<svg fill="none" height="32" viewBox="0 0 32 32" width="32" xmlns="http://www.w3.org/2000/svg" xmlns:xlink="http://www.w3.org/1999/xlink"><filter id="a" color-interpolation-filters="sRGB" filterUnits="userSpaceOnUse" height="17.2954" width="16.1003" x="7.75891" y="12.5767"><feFlood flood-opacity="0" result="BackgroundImageFix"/><feBlend in="SourceGraphic" in2="BackgroundImageFix" mode="normal" result="shape"/><feColorMatrix in="SourceAlpha" result="hardAlpha" type="matrix" values="0 0 0 0 0 0 0 0 0 0 0 0 0 0 0 0 0 0 127 0"/><feOffset dx="1.25"/><feGaussianBlur stdDeviation="1"/><feComposite in2="hardAlpha" k2="-1" k3="1" operator="arithmetic"/><feColorMatrix type="matrix" values="0 0 0 0 0.247059 0 0 0 0 0.470588 0 0 0 0 0.662745 0 0 0 1 0"/><feBlend in2="shape" mode="normal" result="effect1_innerShadow_13929_4551"/></filter><filter id="b" color-interpolation-filters="sRGB" filterUnits="userSpaceOnUse" height="15.1094" width="15.6904" x="7.44104" y="14.7954"><feFlood flood-opacity="0" result="BackgroundImageFix"/><feBlend in="SourceGraphic" in2="BackgroundImageFix" mode="normal" result="shape"/><feGaussianBlur result="effect1_foregroundBlur_13929_4551" stdDeviation=".5"/></filter><filter id="c" color-interpolation-filters="sRGB" filterUnits="userSpaceOnUse" height="14.0711" width="16.5426" x="6.37073" y="15.3767"><feFlood flood-opacity="0" result="BackgroundImageFix"/><feBlend in="SourceGraphic" in2="BackgroundImageFix" mode="normal" result="shape"/><feColorMatrix in="SourceAlpha" result="hardAlpha" type="matrix" values="0 0 0 0 0 0 0 0 0 0 0 0 0 0 0 0 0 0 127 0"/><feOffset dy="-.2"/><feGaussianBlur stdDeviation=".375"/><feComposite in2="hardAlpha" k2="-1" k3="1" operator="arithmetic"/><feColorMatrix type="matrix" values="0 0 0 0 0.266667 0 0 0 0 0.14902 0 0 0 0 0.215686 0 0 0 1 0"/><feBlend in2="shape" mode="normal" result="effect1_innerShadow_13929_4551"/></filter><filter id="d" color-interpolation-filters="sRGB" filterUnits="userSpaceOnUse" height="5.28311" width="4.45121" x="18.6598" y="15.4767"><feFlood flood-opacity="0" result="BackgroundImageFix"/><feBlend in="SourceGraphic" in2="BackgroundImageFix" mode="normal" result="shape"/><feColorMatrix in="SourceAlpha" result="hardAlpha" type="matrix" values="0 0 0 0 0 0 0 0 0 0 0 0 0 0 0 0 0 0 127 0"/><feOffset dx=".1" dy="-.1"/><feGaussianBlur stdDeviation=".25"/><feComposite in2="hardAlpha" k2="-1" k3="1" operator="arithmetic"/><feColorMatrix type="matrix" values="0 0 0 0 0.113725 0 0 0 0 0.407843 0 0 0 0 0.623529 0 0 0 1 0"/><feBlend in2="shape" mode="normal" result="effect1_innerShadow_13929_4551"/></filter><filter id="e" color-interpolation-filters="sRGB" filterUnits="userSpaceOnUse" height=".299609" width="1.54219" x="7.00979" y="26.587"><feFlood flood-opacity="0" result="BackgroundImageFix"/><feBlend in="SourceGraphic" in2="BackgroundImageFix" mode="normal" result="shape"/><feGaussianBlur result="effect1_foregroundBlur_13929_4551" stdDeviation=".05"/></filter><filter id="f" color-interpolation-filters="sRGB" filterUnits="userSpaceOnUse" height=".299609" width="1.54219" x="6.6426" y="27.5245"><feFlood flood-opacity="0" result="BackgroundImageFix"/><feBlend in="SourceGraphic" in2="BackgroundImageFix" mode="normal" result="shape"/><feGaussianBlur result="effect1_foregroundBlur_13929_4551" stdDeviation=".05"/></filter><filter id="g" color-interpolation-filters="sRGB" filterUnits="userSpaceOnUse" height=".299609" width="1.54219" x="6.8301" y="28.4229"><feFlood flood-opacity="0" result="BackgroundImageFix"/><feBlend in="SourceGraphic" in2="BackgroundImageFix" mode="normal" result="shape"/><feGaussianBlur result="effect1_foregroundBlur_13929_4551" stdDeviation=".05"/></filter><filter id="h" color-interpolation-filters="sRGB" filterUnits="userSpaceOnUse" height="2.90674" width="3.10672" x="13.0577" y="7.97412"><feFlood flood-opacity="0" result="BackgroundImageFix"/><feBlend in="SourceGraphic" in2="BackgroundImageFix" mode="normal" result="shape"/><feColorMatrix in="SourceAlpha" result="hardAlpha" type="matrix" values="0 0 0 0 0 0 0 0 0 0 0 0 0 0 0 0 0 0 127 0"/><feOffset dx=".2"/><feGaussianBlur stdDeviation=".15"/><feComposite in2="hardAlpha" k2="-1" k3="1" operator="arithmetic"/><feColorMatrix type="matrix" values="0 0 0 0 0.341176 0 0 0 0 0.270588 0 0 0 0 0.254902 0 0 0 1 0"/><feBlend in2="shape" mode="normal" result="effect1_innerShadow_13929_4551"/></filter><filter id="i" color-interpolation-filters="sRGB" filterUnits="userSpaceOnUse" height="2.73242" width="2.73236" x="13.1448" y="8.06201"><feFlood flood-opacity="0" result="BackgroundImageFix"/><feBlend in="SourceGraphic" in2="BackgroundImageFix" mode="normal" result="shape"/><feGaussianBlur result="effect1_foregroundBlur_13929_4551" stdDeviation=".25"/></filter><filter id="j" color-interpolation-filters="sRGB" filterUnits="userSpaceOnUse" height="3.15674" width="3.15672" x="21.3396" y="7.72412"><feFlood flood-opacity="0" result="BackgroundImageFix"/><feBlend in="SourceGraphic" in2="BackgroundImageFix" mode="normal" result="shape"/><feColorMatrix in="SourceAlpha" result="hardAlpha" type="matrix" values="0 0 0 0 0 0 0 0 0 0 0 0 0 0 0 0 0 0 127 0"/><feOffset dx=".25" dy="-.25"/><feGaussianBlur stdDeviation=".25"/><feComposite in2="hardAlpha" k2="-1" k3="1" operator="arithmetic"/><feColorMatrix type="matrix" values="0 0 0 0 0.243137 0 0 0 0 0.141176 0 0 0 0 0.223529 0 0 0 1 0"/><feBlend in2="shape" mode="normal" result="effect1_innerShadow_13929_4551"/></filter><filter id="k" color-interpolation-filters="sRGB" filterUnits="userSpaceOnUse" height="2.73242" width="2.73236" x="21.4269" y="8.06201"><feFlood flood-opacity="0" result="BackgroundImageFix"/><feBlend in="SourceGraphic" in2="BackgroundImageFix" mode="normal" result="shape"/><feGaussianBlur result="effect1_foregroundBlur_13929_4551" stdDeviation=".25"/></filter><filter id="l" color-interpolation-filters="sRGB" filterUnits="userSpaceOnUse" height="10.5712" width="9.03088" x="14.1541" y="4.53174"><feFlood flood-opacity="0" result="BackgroundImageFix"/><feBlend in="SourceGraphic" in2="BackgroundImageFix" mode="normal" result="shape"/><feColorMatrix in="SourceAlpha" result="hardAlpha" type="matrix" values="0 0 0 0 0 0 0 0 0 0 0 0 0 0 0 0 0 0 127 0"/><feOffset dy=".1"/><feGaussianBlur stdDeviation=".05"/><feComposite in2="hardAlpha" k2="-1" k3="1" operator="arithmetic"/><feColorMatrix type="matrix" values="0 0 0 0 0.109804 0 0 0 0 0.0509804 0 0 0 0 0.0509804 0 0 0 1 0"/><feBlend in2="shape" mode="normal" result="effect1_innerShadow_13929_4551"/></filter><filter id="m" color-interpolation-filters="sRGB" filterUnits="userSpaceOnUse" height="4.66992" width="5.69649" x="17.7923" y="3.53174"><feFlood flood-opacity="0" result="BackgroundImageFix"/><feBlend in="SourceGraphic" in2="BackgroundImageFix" mode="normal" result="shape"/><feGaussianBlur result="effect1_foregroundBlur_13929_4551" stdDeviation=".5"/></filter><filter id="n" color-interpolation-filters="sRGB" filterUnits="userSpaceOnUse" height="7.50244" width="10.9704" x="13.1592" y="1.43994"><feFlood flood-opacity="0" result="BackgroundImageFix"/><feBlend in="SourceGraphic" in2="BackgroundImageFix" mode="normal" result="shape"/><feColorMatrix in="SourceAlpha" result="hardAlpha" type="matrix" values="0 0 0 0 0 0 0 0 0 0 0 0 0 0 0 0 0 0 127 0"/><feOffset dy="-.5"/><feGaussianBlur stdDeviation=".375"/><feComposite in2="hardAlpha" k2="-1" k3="1" operator="arithmetic"/><feColorMatrix type="matrix" values="0 0 0 0 0.0392157 0 0 0 0 0.00784314 0 0 0 0 0.0196078 0 0 0 1 0"/><feBlend in2="shape" mode="normal" result="effect1_innerShadow_13929_4551"/></filter><filter id="o" color-interpolation-filters="sRGB" filterUnits="userSpaceOnUse" height="3.83398" width="3.03215" x="16.9203" y="8.32568"><feFlood flood-opacity="0" result="BackgroundImageFix"/><feBlend in="SourceGraphic" in2="BackgroundImageFix" mode="normal" result="shape"/><feGaussianBlur result="effect1_foregroundBlur_13929_4551" stdDeviation=".375"/></filter><filter id="p" color-interpolation-filters="sRGB" filterUnits="userSpaceOnUse" height="2.83398" width="2.1339" x="17.5775" y="8.68408"><feFlood flood-opacity="0" result="BackgroundImageFix"/><feBlend in="SourceGraphic" in2="BackgroundImageFix" mode="normal" result="shape"/><feGaussianBlur result="effect1_foregroundBlur_13929_4551" stdDeviation=".125"/></filter><filter id="q" color-interpolation-filters="sRGB" filterUnits="userSpaceOnUse" height="1.68223" width="2.62633" x="19.6736" y="6.19912"><feFlood flood-opacity="0" result="BackgroundImageFix"/><feBlend in="SourceGraphic" in2="BackgroundImageFix" mode="normal" result="shape"/><feColorMatrix in="SourceAlpha" result="hardAlpha" type="matrix" values="0 0 0 0 0 0 0 0 0 0 0 0 0 0 0 0 0 0 127 0"/><feOffset dx=".25" dy="-.4"/><feGaussianBlur stdDeviation=".3"/><feComposite in2="hardAlpha" k2="-1" k3="1" operator="arithmetic"/><feColorMatrix type="matrix" values="0 0 0 0 0.0431373 0 0 0 0 0.0196078 0 0 0 0 0.027451 0 0 0 1 0"/><feBlend in2="shape" mode="normal" result="effect1_innerShadow_13929_4551"/></filter><filter id="r" color-interpolation-filters="sRGB" filterUnits="userSpaceOnUse" height="1.68223" width="2.62646" x="15.1921" y="6.19912"><feFlood flood-opacity="0" result="BackgroundImageFix"/><feBlend in="SourceGraphic" in2="BackgroundImageFix" mode="normal" result="shape"/><feColorMatrix in="SourceAlpha" result="hardAlpha" type="matrix" values="0 0 0 0 0 0 0 0 0 0 0 0 0 0 0 0 0 0 127 0"/><feOffset dx=".25" dy="-.4"/><feGaussianBlur stdDeviation=".3"/><feComposite in2="hardAlpha" k2="-1" k3="1" operator="arithmetic"/><feColorMatrix type="matrix" values="0 0 0 0 0.0431373 0 0 0 0 0.0196078 0 0 0 0 0.027451 0 0 0 1 0"/><feBlend in2="shape" mode="normal" result="effect1_innerShadow_13929_4551"/></filter><filter id="s" color-interpolation-filters="sRGB" filterUnits="userSpaceOnUse" height=".632129" width=".710757" x="19.8893" y="8.43809"><feFlood flood-opacity="0" result="BackgroundImageFix"/><feBlend in="SourceGraphic" in2="BackgroundImageFix" mode="normal" result="shape"/><feGaussianBlur result="effect1_foregroundBlur_13929_4551" stdDeviation=".05"/></filter><filter id="t" color-interpolation-filters="sRGB" filterUnits="userSpaceOnUse" height=".846777" width=".827551" x="20.6074" y="8.49092"><feFlood flood-opacity="0" result="BackgroundImageFix"/><feBlend in="SourceGraphic" in2="BackgroundImageFix" mode="normal" result="shape"/><feGaussianBlur result="effect1_foregroundBlur_13929_4551" stdDeviation=".1"/></filter><filter id="u" color-interpolation-filters="sRGB" filterUnits="userSpaceOnUse" height=".957129" width=".910315" x="16.7406" y="8.43525"><feFlood flood-opacity="0" result="BackgroundImageFix"/><feBlend in="SourceGraphic" in2="BackgroundImageFix" mode="normal" result="shape"/><feGaussianBlur result="effect1_foregroundBlur_13929_4551" stdDeviation=".1"/></filter><filter id="v" color-interpolation-filters="sRGB" filterUnits="userSpaceOnUse" height=".638965" width=".820636" x="16.0965" y="8.43174"><feFlood flood-opacity="0" result="BackgroundImageFix"/><feBlend in="SourceGraphic" in2="BackgroundImageFix" mode="normal" result="shape"/><feGaussianBlur result="effect1_foregroundBlur_13929_4551" stdDeviation=".05"/></filter><filter id="w" color-interpolation-filters="sRGB" filterUnits="userSpaceOnUse" height="1.22549" width="2.46005" x="19.665" y="6.47979"><feFlood flood-opacity="0" result="BackgroundImageFix"/><feBlend in="SourceGraphic" in2="BackgroundImageFix" mode="normal" result="shape"/><feGaussianBlur result="effect1_foregroundBlur_13929_4551" stdDeviation=".15"/></filter><filter id="x" color-interpolation-filters="sRGB" filterUnits="userSpaceOnUse" height="1.2748" width="2.52772" x="15.1211" y="6.53594"><feFlood flood-opacity="0" result="BackgroundImageFix"/><feBlend in="SourceGraphic" in2="BackgroundImageFix" mode="normal" result="shape"/><feGaussianBlur result="effect1_foregroundBlur_13929_4551" stdDeviation=".15"/></filter><filter id="y" color-interpolation-filters="sRGB" filterUnits="userSpaceOnUse" height="2.07275" width=".974716" x="14.0986" y="4.86475"><feFlood flood-opacity="0" result="BackgroundImageFix"/><feBlend in="SourceGraphic" in2="BackgroundImageFix" mode="normal" result="shape"/><feGaussianBlur result="effect1_foregroundBlur_13929_4551" stdDeviation=".125"/></filter><linearGradient id="z" gradientUnits="userSpaceOnUse" x1="15.184" x2="15.184" y1="29.872" y2="27.6279"><stop offset="0" stop-color="#546bdb"/><stop offset="1" stop-color="#2280e8" stop-opacity="0"/></linearGradient><radialGradient id="A" cx="0" cy="0" gradientTransform="matrix(0 -2.25 2.3125 0 20.8473 16.1904)" gradientUnits="userSpaceOnUse" r="1"><stop offset="0" stop-color="#46b0f1"/><stop offset="1" stop-color="#46b0f1" stop-opacity="0"/></radialGradient><radialGradient id="B" cx="0" cy="0" gradientTransform="matrix(0 7.0625 -2.6875 0 20.8473 21.9091)" gradientUnits="userSpaceOnUse" r="1"><stop offset=".256637" stop-color="#31acff"/><stop offset="1" stop-color="#31acff" stop-opacity="0"/></radialGradient><radialGradient id="C" cx="0" cy="0" gradientTransform="matrix(-6.71876665 2.87494886 -1.00684305 -2.35299611 19.3473 13.0341)" gradientUnits="userSpaceOnUse" r="1"><stop offset=".448777" stop-color="#155aac"/><stop offset="1" stop-color="#155aac" stop-opacity="0"/></radialGradient><linearGradient id="D" gradientUnits="userSpaceOnUse" x1="20.2848" x2="7.62854" y1="20.9708" y2="30.7521"><stop offset="0" stop-color="#503639"/><stop offset="1" stop-color="#472d2f"/></linearGradient><linearGradient id="E" gradientUnits="userSpaceOnUse" x1="6.62854" x2="9.25354" y1="27.8458" y2="27.6583"><stop offset="0" stop-color="#584440"/><stop offset="1" stop-color="#422e2c" stop-opacity="0"/></linearGradient><linearGradient id="F" gradientUnits="userSpaceOnUse" x1="19.941" x2="19.0035" y1="18.8771" y2="20.6896"><stop offset="0" stop-color="#392325"/><stop offset="1" stop-color="#392325" stop-opacity="0"/></linearGradient><radialGradient id="G" cx="0" cy="0" gradientTransform="matrix(-1.83129244 3.87045684 -2.96919757 -1.40486492 22.6667 16.8894)" gradientUnits="userSpaceOnUse" r="1"><stop offset=".425418" stop-color="#279ae6"/><stop offset="1" stop-color="#1e79bd"/></radialGradient><radialGradient id="H" cx="0" cy="0" gradientTransform="matrix(-1.2624475 2.30399786 -1.44919817 -.79407044 22.4773 16.5423)" gradientUnits="userSpaceOnUse" r="1"><stop offset="0" stop-color="#48b8ff"/><stop offset="1" stop-color="#2b9ae8" stop-opacity="0"/></radialGradient><linearGradient id="I"><stop offset="0" stop-color="#3b2a27"/><stop offset="1" stop-color="#3b2a27" stop-opacity="0"/></linearGradient><linearGradient id="J" gradientUnits="userSpaceOnUse" x1="7.15979" x2="8.61292" xlink:href="#I" y1="26.7368" y2="26.7368"/><linearGradient id="K" gradientUnits="userSpaceOnUse" x1="6.7926" x2="8.24573" xlink:href="#I" y1="27.6743" y2="27.6743"/><linearGradient id="L" gradientUnits="userSpaceOnUse" x1="6.9801" x2="8.43323" xlink:href="#I" y1="28.5728" y2="28.5728"/><radialGradient id="M" cx="0" cy="0" gradientTransform="matrix(1.52771 0 0 2.67351 13.0577 9.42749)" gradientUnits="userSpaceOnUse" r="1"><stop offset=".350532" stop-color="#362324"/><stop offset="1" stop-color="#332423"/></radialGradient><linearGradient id="N" gradientUnits="userSpaceOnUse" x1="14.511" x2="13.9533" y1="9.67078" y2="9.67078"><stop offset="0" stop-color="#281920"/><stop offset="1" stop-color="#27161d"/></linearGradient><linearGradient id="O" gradientUnits="userSpaceOnUse" x1="23.7388" x2="23.0261" y1="8.47722" y2="10.6852"><stop offset="0" stop-color="#635251"/><stop offset="1" stop-color="#452a31"/></linearGradient><radialGradient id="P" cx="0" cy="0" gradientTransform="matrix(.71969556 -.52404949 .5981325 .82143636 23.1169 9.19692)" gradientUnits="userSpaceOnUse" r="1"><stop offset=".542503" stop-color="#40272a"/><stop offset="1" stop-color="#40272a" stop-opacity="0"/></radialGradient><radialGradient id="Q" cx="0" cy="0" gradientTransform="matrix(.71495726 -1.31500812 .76967949 .41846733 22.7571 10.1432)" gradientUnits="userSpaceOnUse" r="1"><stop offset=".754913" stop-color="#31191a" stop-opacity="0"/><stop offset=".915553" stop-color="#31191a"/></radialGradient><radialGradient id="R" cx="0" cy="0" gradientTransform="matrix(.22572628 .22343483 -.28803844 .29099245 22.7931 9.42819)" gradientUnits="userSpaceOnUse" r="1"><stop offset="0" stop-color="#352123"/><stop offset="1" stop-color="#352123" stop-opacity="0"/></radialGradient><linearGradient id="S" gradientUnits="userSpaceOnUse" x1="22.1579" x2="15.5096" y1="9.76724" y2="10.7579"><stop offset="0" stop-color="#533531"/><stop offset="1" stop-color="#3c2828"/></linearGradient><linearGradient id="T" gradientUnits="userSpaceOnUse" x1="13.947" x2="15.9189" y1="12.1143" y2="11.9909"><stop offset=".282895" stop-color="#564440"/><stop offset="1" stop-color="#564440" stop-opacity="0"/></linearGradient><radialGradient id="U" cx="0" cy="0" gradientTransform="matrix(0 6.18546 -8.39643 0 18.3819 9.25494)" gradientUnits="userSpaceOnUse" r="1"><stop offset=".561321" stop-color="#3d2138" stop-opacity="0"/><stop offset="1" stop-color="#3d2138"/></radialGradient><radialGradient id="V" cx="0" cy="0" gradientTransform="matrix(0 -1.13789 1.40048 0 20.6868 8.32128)" gradientUnits="userSpaceOnUse" r="1"><stop offset="0" stop-color="#412628"/><stop offset="1" stop-color="#412628" stop-opacity="0"/></radialGradient><radialGradient id="W" cx="0" cy="0" gradientTransform="matrix(0 -1.21083 1.50578 0 16.7188 8.29211)" gradientUnits="userSpaceOnUse" r="1"><stop offset="0" stop-color="#351d26"/><stop offset="1" stop-color="#351d26" stop-opacity="0"/></radialGradient><radialGradient id="X" cx="0" cy="0" gradientTransform="matrix(-2.47331676 -.59794707 .3513327 -1.4532341 22.3604 14.7903)" gradientUnits="userSpaceOnUse" r="1"><stop offset=".135653" stop-color="#5b4b4d"/><stop offset="1" stop-color="#5b4b4d" stop-opacity="0"/></radialGradient><linearGradient id="Y" gradientUnits="userSpaceOnUse" x1="19.4793" x2="26.9808" y1="6.82681" y2="4.24478"><stop offset="0" stop-color="#675454"/><stop offset="1" stop-color="#685654" stop-opacity="0"/></linearGradient><radialGradient id="Z" cx="0" cy="0" gradientTransform="matrix(.69454923 -2.57391739 .95448833 .25756038 22.4271 5.85311)" gradientUnits="userSpaceOnUse" r="1"><stop offset="0" stop-color="#464344"/><stop offset="1" stop-color="#464344" stop-opacity="0"/></radialGradient><radialGradient id="aa" cx="0" cy="0" gradientTransform="matrix(3.3297507 .30641882 -.16475938 1.79038503 20.9972 4.32102)" gradientUnits="userSpaceOnUse" r="1"><stop offset=".12243" stop-color="#4a4648"/><stop offset="1" stop-color="#4a4648" stop-opacity="0"/></radialGradient><radialGradient id="ab" cx="0" cy="0" gradientTransform="matrix(0 1.46182 -2.26395 0 18.6444 1.93994)" gradientUnits="userSpaceOnUse" r="1"><stop offset="0" stop-color="#423d3f"/><stop offset="1" stop-color="#423d3f" stop-opacity="0"/></radialGradient><radialGradient id="ac" cx="0" cy="0" gradientTransform="matrix(2.67605012 -1.96107692 3.07236901 4.19249923 13.0303 7.87547)" gradientUnits="userSpaceOnUse" r="1"><stop offset="0" stop-color="#463c39"/><stop offset="1" stop-color="#463c39" stop-opacity="0"/></radialGradient><linearGradient id="ad" gradientUnits="userSpaceOnUse" x1="17.8921" x2="18.7089" y1="10.3412" y2="10.3412"><stop offset="0" stop-color="#3d2928"/><stop offset="1" stop-color="#3d2928" stop-opacity="0"/></linearGradient><linearGradient id="ae" gradientUnits="userSpaceOnUse" x1="19.4614" x2="18.5685" y1="10.622" y2="10.6092"><stop offset="0" stop-color="#624d4b"/><stop offset="1" stop-color="#624d4b" stop-opacity="0"/></linearGradient><linearGradient id="af" gradientUnits="userSpaceOnUse" x1="18.8138" x2="18.8138" y1="11.2682" y2="10.7694"><stop offset="0" stop-color="#3f222f"/><stop offset="1" stop-color="#3f222f" stop-opacity="0"/></linearGradient><radialGradient id="ag" cx="0" cy="0" gradientTransform="matrix(0 .171413 -.55071 0 18.9293 10.8269)" gradientUnits="userSpaceOnUse" r="1"><stop offset="0" stop-color="#624e4d"/><stop offset="1" stop-color="#624e4d" stop-opacity="0"/></radialGradient><linearGradient id="ah" gradientUnits="userSpaceOnUse" x1="18.7539" x2="18.7539" y1="11.3047" y2="11.1588"><stop offset="0" stop-color="#31171f"/><stop offset="1" stop-color="#31171f" stop-opacity="0"/></linearGradient><linearGradient id="ai" gradientUnits="userSpaceOnUse" x1="17.7417" x2="18.1204" y1="12.6735" y2="12.075"><stop offset="0" stop-color="#564848"/><stop offset=".663171" stop-color="#564848" stop-opacity="0"/></linearGradient><linearGradient id="aj"><stop offset=".80198" stop-color="#7d574a"/><stop offset="1" stop-color="#694b43"/><stop offset="1" stop-color="#804d49"/><stop offset="1" stop-color="#664944"/></linearGradient><radialGradient id="ak" cx="0" cy="0" gradientTransform="matrix(0 .706139 -1.12319 0 20.5412 8.83462)" gradientUnits="userSpaceOnUse" r="1" xlink:href="#aj"/><linearGradient id="al"><stop offset=".765532" stop-color="#ffe6e2" stop-opacity="0"/><stop offset=".966159" stop-color="#ffe6e2"/></linearGradient><radialGradient id="am" cx="0" cy="0" gradientTransform="matrix(-.20185168 -.26011311 .35811275 -.27790087 20.3427 8.90729)" gradientUnits="userSpaceOnUse" r="1" xlink:href="#al"/><linearGradient id="an"><stop offset="0" stop-color="#b4948d"/><stop offset="1" stop-color="#b4948d" stop-opacity="0"/></linearGradient><linearGradient id="ao" gradientUnits="userSpaceOnUse" x1="21.2184" x2="20.9453" xlink:href="#an" y1="8.88124" y2="9.0495"/><radialGradient id="ap" cx="0" cy="0" gradientTransform="matrix(0 .706175 -1.12325 0 16.7429 8.83366)" gradientUnits="userSpaceOnUse" r="1" xlink:href="#aj"/><linearGradient id="aq" gradientUnits="userSpaceOnUse" x1="17.3904" x2="17.1173" xlink:href="#an" y1="8.88076" y2="9.04903"/><radialGradient id="ar" cx="0" cy="0" gradientTransform="matrix(-.00673293 -.43003029 .51691365 -.00809326 16.4937 9.0253)" gradientUnits="userSpaceOnUse" r="1" xlink:href="#al"/><linearGradient id="as"><stop offset="0" stop-color="#353435"/><stop offset="1" stop-color="#353435" stop-opacity="0"/></linearGradient><linearGradient id="at" gradientUnits="userSpaceOnUse" x1="21.232" x2="20.8662" xlink:href="#as" y1="7.01798" y2="6.27048"/><linearGradient id="au" gradientUnits="userSpaceOnUse" x1="16.614" x2="15.5787" xlink:href="#as" y1="6.90751" y2="6.47333"/><linearGradient id="av" gradientUnits="userSpaceOnUse" x1="14.586" x2="14.586" y1="5.15381" y2="7.03163"><stop offset="0" stop-color="#3c393a"/><stop offset="1" stop-color="#3c393a" stop-opacity="0"/></linearGradient><g filter="url(#a)"><path d="m17.0691 12.6674c-2.2041.6753-3.8859 3.2471-3.8859 5.6089v.7172c0 .2409-.1726.4458-.4065.5033-2.86915.7055-5.01779 3.1066-5.01779 6.1486v1.2149c0 1.6567 1.34474 3 3.00359 3l10.1634.0117c.9676 0 1.6833-.7832 1.6833-1.75v-12.2334c0-1.2954-.8453-2.2378-2.0375-2.4868-.1537-.0322-.3086-.063-.4619-.0986-.2633-.0611-.5222-.1363-.7636-.2564l-.0587-.0293c-.6944-.3462-1.4764-.5776-2.2184-.3501z" fill="#2695f4"/><path d="m17.0691 12.6674c-2.2041.6753-3.8859 3.2471-3.8859 5.6089v.7172c0 .2409-.1726.4458-.4065.5033-2.86915.7055-5.01779 3.1066-5.01779 6.1486v1.2149c0 1.6567 1.34474 3 3.00359 3l10.1634.0117c.9676 0 1.6833-.7832 1.6833-1.75v-12.2334c0-1.2954-.8453-2.2378-2.0375-2.4868-.1537-.0322-.3086-.063-.4619-.0986-.2633-.0611-.5222-.1363-.7636-.2564l-.0587-.0293c-.6944-.3462-1.4764-.5776-2.2184-.3501z" fill="url(#z)"/><path d="m17.0691 12.6674c-2.2041.6753-3.8859 3.2471-3.8859 5.6089v.7172c0 .2409-.1726.4458-.4065.5033-2.86915.7055-5.01779 3.1066-5.01779 6.1486v1.2149c0 1.6567 1.34474 3 3.00359 3l10.1634.0117c.9676 0 1.6833-.7832 1.6833-1.75v-12.2334c0-1.2954-.8453-2.2378-2.0375-2.4868-.1537-.0322-.3086-.063-.4619-.0986-.2633-.0611-.5222-.1363-.7636-.2564l-.0587-.0293c-.6944-.3462-1.4764-.5776-2.2184-.3501z" fill="url(#A)"/><path d="m17.0691 12.6674c-2.2041.6753-3.8859 3.2471-3.8859 5.6089v.7172c0 .2409-.1726.4458-.4065.5033-2.86915.7055-5.01779 3.1066-5.01779 6.1486v1.2149c0 1.6567 1.34474 3 3.00359 3l10.1634.0117c.9676 0 1.6833-.7832 1.6833-1.75v-12.2334c0-1.2954-.8453-2.2378-2.0375-2.4868-.1537-.0322-.3086-.063-.4619-.0986-.2633-.0611-.5222-.1363-.7636-.2564l-.0587-.0293c-.6944-.3462-1.4764-.5776-2.2184-.3501z" fill="url(#B)"/><path d="m17.0691 12.6674c-2.2041.6753-3.8859 3.2471-3.8859 5.6089v.7172c0 .2409-.1726.4458-.4065.5033-2.86915.7055-5.01779 3.1066-5.01779 6.1486v1.2149c0 1.6567 1.34474 3 3.00359 3l10.1634.0117c.9676 0 1.6833-.7832 1.6833-1.75v-12.2334c0-1.2954-.8453-2.2378-2.0375-2.4868-.1537-.0322-.3086-.063-.4619-.0986-.2633-.0611-.5222-.1363-.7636-.2564l-.0587-.0293c-.6944-.3462-1.4764-.5776-2.2184-.3501z" fill="url(#C)"/></g><g filter="url(#b)"><path d="m10.6826 28.9046c.1526-.0186.3001-.0383.4402-.0588 1.8866-.2245 3.5079-.3216 5.7386-2.298 1.3251-1.1741 2.4338-2.8959 3.2706-4.4331.8534-1.5676 1.5028-3.0927 1.8679-3.979.3498-.8491-.0224-1.8351-.8311-2.2023-.8088-.3671-1.748.0235-2.0978.8726-.3493.848-.9437 2.2399-1.7095 3.6464-.7823 1.437-1.6436 2.7921-2.5338 3.5809-1.3658 1.2101-2.8565 1.7749-4.1451 2.0157-.5157.0963-1.13539-.2346-1.70441-.9473-.12383-.1551-.31168-.2384-.4939-.2159-.02856.2479-.04325.5011-.04325.7588v1.2149c0 1.1635 1.31802 1.5476 2.24156 2.0451z" fill="#0c61a8"/></g><g filter="url(#c)"><path d="m21.9028 15.7147c.8491.3671 1.2397 1.3531.8726 2.2022-.3833.8864-1.0651 2.4115-1.961 3.9791-.8786 1.5371-2.0425 3.2589-3.4336 4.433-2.3418 1.9764-4.7644 2.6985-6.7449 2.923-.92923.129-2.16929.2319-3.10898.1837-.45703-.0235-.73542-.2316-.78518-.4766-.03246-.1598.0133-.2865.06178-.3656-.21042-.0685-.36248-.2663-.36248-.4996 0-.1605.07197-.3042.1854-.4006-.15318-.0918-.25571-.2594-.25571-.451 0-.2901.23522-.5254.52539-.5254h.18057c-.1554-.0858-.26065-.2513-.26065-.4414 0-.2783.22561-.5039.50391-.5039h1.09708c-.11176-.1282-.19542-.2849-.25739-.4305-.10047-.2361.02416-.5062.25323-.6218.23648-.1194.52178-.0394.69194.1636.59737.7128 1.24799 1.0436 1.78929.9473 1.3528-.2407 2.9178-.8055 4.3516-2.0156.9347-.7888 1.8389-2.1439 2.6602-3.5809.8038-1.4065 1.4279-2.7984 1.7946-3.6464.3672-.8491 1.3532-1.2398 2.2023-.8726z" fill="url(#D)"/><path d="m21.9028 15.7147c.8491.3671 1.2397 1.3531.8726 2.2022-.3833.8864-1.0651 2.4115-1.961 3.9791-.8786 1.5371-2.0425 3.2589-3.4336 4.433-2.3418 1.9764-4.7644 2.6985-6.7449 2.923-.92923.129-2.16929.2319-3.10898.1837-.45703-.0235-.73542-.2316-.78518-.4766-.03246-.1598.0133-.2865.06178-.3656-.21042-.0685-.36248-.2663-.36248-.4996 0-.1605.07197-.3042.1854-.4006-.15318-.0918-.25571-.2594-.25571-.451 0-.2901.23522-.5254.52539-.5254h.18057c-.1554-.0858-.26065-.2513-.26065-.4414 0-.2783.22561-.5039.50391-.5039h1.09708c-.11176-.1282-.19542-.2849-.25739-.4305-.10047-.2361.02416-.5062.25323-.6218.23648-.1194.52178-.0394.69194.1636.59737.7128 1.24799 1.0436 1.78929.9473 1.3528-.2407 2.9178-.8055 4.3516-2.0156.9347-.7888 1.8389-2.1439 2.6602-3.5809.8038-1.4065 1.4279-2.7984 1.7946-3.6464.3672-.8491 1.3532-1.2398 2.2023-.8726z" fill="url(#E)"/><path d="m21.9028 15.7147c.8491.3671 1.2397 1.3531.8726 2.2022-.3833.8864-1.0651 2.4115-1.961 3.9791-.8786 1.5371-2.0425 3.2589-3.4336 4.433-2.3418 1.9764-4.7644 2.6985-6.7449 2.923-.92923.129-2.16929.2319-3.10898.1837-.45703-.0235-.73542-.2316-.78518-.4766-.03246-.1598.0133-.2865.06178-.3656-.21042-.0685-.36248-.2663-.36248-.4996 0-.1605.07197-.3042.1854-.4006-.15318-.0918-.25571-.2594-.25571-.451 0-.2901.23522-.5254.52539-.5254h.18057c-.1554-.0858-.26065-.2513-.26065-.4414 0-.2783.22561-.5039.50391-.5039h1.09708c-.11176-.1282-.19542-.2849-.25739-.4305-.10047-.2361.02416-.5062.25323-.6218.23648-.1194.52178-.0394.69194.1636.59737.7128 1.24799 1.0436 1.78929.9473 1.3528-.2407 2.9178-.8055 4.3516-2.0156.9347-.7888 1.8389-2.1439 2.6602-3.5809.8038-1.4065 1.4279-2.7984 1.7946-3.6464.3672-.8491 1.3532-1.2398 2.2023-.8726z" fill="url(#F)"/></g><g filter="url(#d)"><path d="m22.8785 18.2482c.3907-1.0899-.1266-2.1664-.9757-2.5335-.8491-.3672-1.8351.0235-2.2023.8726-.2662.6156-.5329 1.2409-1.0407 2.2273l3.0469 1.9453c.5666-1.0983.924-1.8203 1.1718-2.5117z" fill="url(#G)"/><path d="m22.8785 18.2482c.3907-1.0899-.1266-2.1664-.9757-2.5335-.8491-.3672-1.8351.0235-2.2023.8726-.2662.6156-.5329 1.2409-1.0407 2.2273l3.0469 1.9453c.5666-1.0983.924-1.8203 1.1718-2.5117z" fill="url(#H)"/></g><g filter="url(#e)"><path d="m7.15979 26.7368h1.24219" stroke="url(#J)" stroke-linecap="round" stroke-width=".1"/></g><g filter="url(#f)"><path d="m6.7926 27.6743h1.24219" stroke="url(#K)" stroke-linecap="round" stroke-width=".1"/></g><g filter="url(#g)"><path d="m6.9801 28.5728h1.24219" stroke="url(#L)" stroke-linecap="round" stroke-width=".1"/></g><g filter="url(#h)"><circle cx="14.5111" cy="9.42749" fill="url(#M)" r="1.45336"/></g><g filter="url(#i)"><circle cx="14.511" cy="9.42819" fill="url(#N)" r=".866183"/></g><g filter="url(#j)"><circle cx="22.793" cy="9.42749" fill="url(#O)" r="1.45336"/><circle cx="22.793" cy="9.42749" fill="url(#P)" r="1.45336"/></g><g filter="url(#k)"><circle cx="22.7931" cy="9.42819" fill="#463133" r=".866183"/><circle cx="22.7931" cy="9.42819" fill="url(#Q)" r=".866183"/><circle cx="22.7931" cy="9.42819" fill="url(#R)" r=".866183"/></g><g filter="url(#l)"><path d="m14.2047 8.89475c.0141.00096.0284.00145.0427.00145 0 0-.0467-.74289-.0933-1.25362 0-.23215.0933-.51074.2801-.65003l.1401-.13929c.2335-.18572.3269-.4643.3269-.74289v-.74288c0-.23216.1401-.41788.3736-.46431.5603-.13929 1.7277-.37144 3.4088-.37144s2.8485.23215 3.4088.37144c.1868.04643.3736.23215.3736.46431v.74288c0 .27859.1401.55717.3269.74289.4371.30629.4099.47475.3736.83575-.0467.4643-.0934 1.25362-.0934 1.25362.0053 0 .0105-.00006.0157-.0002l-.2314 3.44607c-.1398 1.5405-1.3508 2.6142-2.7948 2.6142h-2.7949c-1.4905 0-2.6551-1.0737-2.7948-2.6142z" fill="url(#S)"/><path d="m14.2047 8.89475c.0141.00096.0284.00145.0427.00145 0 0-.0467-.74289-.0933-1.25362 0-.23215.0933-.51074.2801-.65003l.1401-.13929c.2335-.18572.3269-.4643.3269-.74289v-.74288c0-.23216.1401-.41788.3736-.46431.5603-.13929 1.7277-.37144 3.4088-.37144s2.8485.23215 3.4088.37144c.1868.04643.3736.23215.3736.46431v.74288c0 .27859.1401.55717.3269.74289.4371.30629.4099.47475.3736.83575-.0467.4643-.0934 1.25362-.0934 1.25362.0053 0 .0105-.00006.0157-.0002l-.2314 3.44607c-.1398 1.5405-1.3508 2.6142-2.7948 2.6142h-2.7949c-1.4905 0-2.6551-1.0737-2.7948-2.6142z" fill="url(#T)"/><path d="m14.2047 8.89475c.0141.00096.0284.00145.0427.00145 0 0-.0467-.74289-.0933-1.25362 0-.23215.0933-.51074.2801-.65003l.1401-.13929c.2335-.18572.3269-.4643.3269-.74289v-.74288c0-.23216.1401-.41788.3736-.46431.5603-.13929 1.7277-.37144 3.4088-.37144s2.8485.23215 3.4088.37144c.1868.04643.3736.23215.3736.46431v.74288c0 .27859.1401.55717.3269.74289.4371.30629.4099.47475.3736.83575-.0467.4643-.0934 1.25362-.0934 1.25362.0053 0 .0105-.00006.0157-.0002l-.2314 3.44607c-.1398 1.5405-1.3508 2.6142-2.7948 2.6142h-2.7949c-1.4905 0-2.6551-1.0737-2.7948-2.6142z" fill="url(#U)"/><path d="m14.2047 8.89475c.0141.00096.0284.00145.0427.00145 0 0-.0467-.74289-.0933-1.25362 0-.23215.0933-.51074.2801-.65003l.1401-.13929c.2335-.18572.3269-.4643.3269-.74289v-.74288c0-.23216.1401-.41788.3736-.46431.5603-.13929 1.7277-.37144 3.4088-.37144s2.8485.23215 3.4088.37144c.1868.04643.3736.23215.3736.46431v.74288c0 .27859.1401.55717.3269.74289.4371.30629.4099.47475.3736.83575-.0467.4643-.0934 1.25362-.0934 1.25362.0053 0 .0105-.00006.0157-.0002l-.2314 3.44607c-.1398 1.5405-1.3508 2.6142-2.7948 2.6142h-2.7949c-1.4905 0-2.6551-1.0737-2.7948-2.6142z" fill="url(#V)"/><path d="m14.2047 8.89475c.0141.00096.0284.00145.0427.00145 0 0-.0467-.74289-.0933-1.25362 0-.23215.0933-.51074.2801-.65003l.1401-.13929c.2335-.18572.3269-.4643.3269-.74289v-.74288c0-.23216.1401-.41788.3736-.46431.5603-.13929 1.7277-.37144 3.4088-.37144s2.8485.23215 3.4088.37144c.1868.04643.3736.23215.3736.46431v.74288c0 .27859.1401.55717.3269.74289.4371.30629.4099.47475.3736.83575-.0467.4643-.0934 1.25362-.0934 1.25362.0053 0 .0105-.00006.0157-.0002l-.2314 3.44607c-.1398 1.5405-1.3508 2.6142-2.7948 2.6142h-2.7949c-1.4905 0-2.6551-1.0737-2.7948-2.6142z" fill="url(#W)"/><path d="m14.2047 8.89475c.0141.00096.0284.00145.0427.00145 0 0-.0467-.74289-.0933-1.25362 0-.23215.0933-.51074.2801-.65003l.1401-.13929c.2335-.18572.3269-.4643.3269-.74289v-.74288c0-.23216.1401-.41788.3736-.46431.5603-.13929 1.7277-.37144 3.4088-.37144s2.8485.23215 3.4088.37144c.1868.04643.3736.23215.3736.46431v.74288c0 .27859.1401.55717.3269.74289.4371.30629.4099.47475.3736.83575-.0467.4643-.0934 1.25362-.0934 1.25362.0053 0 .0105-.00006.0157-.0002l-.2314 3.44607c-.1398 1.5405-1.3508 2.6142-2.7948 2.6142h-2.7949c-1.4905 0-2.6551-1.0737-2.7948-2.6142z" fill="url(#X)"/></g><g filter="url(#m)"><path d="m22.0949 4.53174-2.6791.89321c-.4562.15207-.7158.63228-.5932 1.09722.1172.44446.5469.73217 1.0025.67117l2.6637-.35664z" fill="url(#Y)"/></g><g filter="url(#n)"><path d="m22.8395 3.78857.3736.18572c.6538.32501 1.0273 1.0679.8872 1.85722l-.5136 2.64654c-.0458.27332-.2265.45726-.4979.4641-.0052.00013-.0105.00017-.0158.00017 0 0 .0467-.78931.0934-1.25362.0379-.37704-.0279-.49205-.3736-.83575-.1867-.18572-.3268-.4643-.3268-.74288v-.74289c0-.23215-.1868-.41788-.3736-.46431-.5604-.13929-1.7278-.37144-3.4088-.37144-1.6811 0-2.8485.23215-3.4089.37144-.2335.04643-.3735.23216-.3735.46431v.74289c0 .27858-.0934.55716-.3269.74288l-.1401.13929c-.1868.1393-.2802.41788-.2802.65003.0467.51074.0934 1.25362.0934 1.25362-.0144 0-.0286-.00048-.0427-.00145-.2609-.01783-.4734-.19852-.5177-.46283l-.5136-2.64653c-.0934-.74289.2802-1.48578.9339-1.81079l.3736-.18572c.2335-.13929.4669-.32501.7004-.51073l.8406-.88219c.5136-.4643 1.2608-.60359 1.9145-.27858.467.13929.9806.13929 1.4476 0 .7005-.23215 1.4943-.04643 2.0546.46431l.7005.69645c.1868.23216.4203.37145.7004.51074z" fill="#21181b"/><path d="m22.8395 3.78857.3736.18572c.6538.32501 1.0273 1.0679.8872 1.85722l-.5136 2.64654c-.0458.27332-.2265.45726-.4979.4641-.0052.00013-.0105.00017-.0158.00017 0 0 .0467-.78931.0934-1.25362.0379-.37704-.0279-.49205-.3736-.83575-.1867-.18572-.3268-.4643-.3268-.74288v-.74289c0-.23215-.1868-.41788-.3736-.46431-.5604-.13929-1.7278-.37144-3.4088-.37144-1.6811 0-2.8485.23215-3.4089.37144-.2335.04643-.3735.23216-.3735.46431v.74289c0 .27858-.0934.55716-.3269.74288l-.1401.13929c-.1868.1393-.2802.41788-.2802.65003.0467.51074.0934 1.25362.0934 1.25362-.0144 0-.0286-.00048-.0427-.00145-.2609-.01783-.4734-.19852-.5177-.46283l-.5136-2.64653c-.0934-.74289.2802-1.48578.9339-1.81079l.3736-.18572c.2335-.13929.4669-.32501.7004-.51073l.8406-.88219c.5136-.4643 1.2608-.60359 1.9145-.27858.467.13929.9806.13929 1.4476 0 .7005-.23215 1.4943-.04643 2.0546.46431l.7005.69645c.1868.23216.4203.37145.7004.51074z" fill="url(#Z)"/><path d="m22.8395 3.78857.3736.18572c.6538.32501 1.0273 1.0679.8872 1.85722l-.5136 2.64654c-.0458.27332-.2265.45726-.4979.4641-.0052.00013-.0105.00017-.0158.00017 0 0 .0467-.78931.0934-1.25362.0379-.37704-.0279-.49205-.3736-.83575-.1867-.18572-.3268-.4643-.3268-.74288v-.74289c0-.23215-.1868-.41788-.3736-.46431-.5604-.13929-1.7278-.37144-3.4088-.37144-1.6811 0-2.8485.23215-3.4089.37144-.2335.04643-.3735.23216-.3735.46431v.74289c0 .27858-.0934.55716-.3269.74288l-.1401.13929c-.1868.1393-.2802.41788-.2802.65003.0467.51074.0934 1.25362.0934 1.25362-.0144 0-.0286-.00048-.0427-.00145-.2609-.01783-.4734-.19852-.5177-.46283l-.5136-2.64653c-.0934-.74289.2802-1.48578.9339-1.81079l.3736-.18572c.2335-.13929.4669-.32501.7004-.51073l.8406-.88219c.5136-.4643 1.2608-.60359 1.9145-.27858.467.13929.9806.13929 1.4476 0 .7005-.23215 1.4943-.04643 2.0546.46431l.7005.69645c.1868.23216.4203.37145.7004.51074z" fill="url(#aa)"/><path d="m22.8395 3.78857.3736.18572c.6538.32501 1.0273 1.0679.8872 1.85722l-.5136 2.64654c-.0458.27332-.2265.45726-.4979.4641-.0052.00013-.0105.00017-.0158.00017 0 0 .0467-.78931.0934-1.25362.0379-.37704-.0279-.49205-.3736-.83575-.1867-.18572-.3268-.4643-.3268-.74288v-.74289c0-.23215-.1868-.41788-.3736-.46431-.5604-.13929-1.7278-.37144-3.4088-.37144-1.6811 0-2.8485.23215-3.4089.37144-.2335.04643-.3735.23216-.3735.46431v.74289c0 .27858-.0934.55716-.3269.74288l-.1401.13929c-.1868.1393-.2802.41788-.2802.65003.0467.51074.0934 1.25362.0934 1.25362-.0144 0-.0286-.00048-.0427-.00145-.2609-.01783-.4734-.19852-.5177-.46283l-.5136-2.64653c-.0934-.74289.2802-1.48578.9339-1.81079l.3736-.18572c.2335-.13929.4669-.32501.7004-.51073l.8406-.88219c.5136-.4643 1.2608-.60359 1.9145-.27858.467.13929.9806.13929 1.4476 0 .7005-.23215 1.4943-.04643 2.0546.46431l.7005.69645c.1868.23216.4203.37145.7004.51074z" fill="url(#ab)"/><path d="m22.8395 3.78857.3736.18572c.6538.32501 1.0273 1.0679.8872 1.85722l-.5136 2.64654c-.0458.27332-.2265.45726-.4979.4641-.0052.00013-.0105.00017-.0158.00017 0 0 .0467-.78931.0934-1.25362.0379-.37704-.0279-.49205-.3736-.83575-.1867-.18572-.3268-.4643-.3268-.74288v-.74289c0-.23215-.1868-.41788-.3736-.46431-.5604-.13929-1.7278-.37144-3.4088-.37144-1.6811 0-2.8485.23215-3.4089.37144-.2335.04643-.3735.23216-.3735.46431v.74289c0 .27858-.0934.55716-.3269.74288l-.1401.13929c-.1868.1393-.2802.41788-.2802.65003.0467.51074.0934 1.25362.0934 1.25362-.0144 0-.0286-.00048-.0427-.00145-.2609-.01783-.4734-.19852-.5177-.46283l-.5136-2.64653c-.0934-.74289.2802-1.48578.9339-1.81079l.3736-.18572c.2335-.13929.4669-.32501.7004-.51073l.8406-.88219c.5136-.4643 1.2608-.60359 1.9145-.27858.467.13929.9806.13929 1.4476 0 .7005-.23215 1.4943-.04643 2.0546.46431l.7005.69645c.1868.23216.4203.37145.7004.51074z" fill="url(#ac)"/></g><g filter="url(#o)"><path d="m18.4047 9.32151-.7142 1.47959c-.0885.3044.124.6087.425.6087h.6418c.3009 0 .5134-.309.4249-.6087l-.4338-1.47959c-.0929-.32777-.2463-.32777-.3437 0z" fill="#332024"/></g><g filter="url(#p)"><path d="m18.3117 9.1799-.4626 1.4796c-.0944.3044.1322.6087.4532.6087h.6844c.3209 0 .5475-.309.4531-.6087l-.4626-1.4796c-.0991-.32776-.5617-.32776-.6655 0z" fill="#4b3034"/><path d="m18.3117 9.1799-.4626 1.4796c-.0944.3044.1322.6087.4532.6087h.6844c.3209 0 .5475-.309.4531-.6087l-.4626-1.4796c-.0991-.32776-.5617-.32776-.6655 0z" fill="url(#ad)"/><path d="m18.3117 9.1799-.4626 1.4796c-.0944.3044.1322.6087.4532.6087h.6844c.3209 0 .5475-.309.4531-.6087l-.4626-1.4796c-.0991-.32776-.5617-.32776-.6655 0z" fill="url(#ae)"/><path d="m18.3117 9.1799-.4626 1.4796c-.0944.3044.1322.6087.4532.6087h.6844c.3209 0 .5475-.309.4531-.6087l-.4626-1.4796c-.0991-.32776-.5617-.32776-.6655 0z" fill="url(#af)"/><path d="m18.3117 9.1799-.4626 1.4796c-.0944.3044.1322.6087.4532.6087h.6844c.3209 0 .5475-.309.4531-.6087l-.4626-1.4796c-.0991-.32776-.5617-.32776-.6655 0z" fill="url(#ag)"/></g><path d="m18.3117 9.1799-.4626 1.4796c-.0944.3044.1322.6087.4532.6087h.6844c.3209 0 .5475-.309.4531-.6087l-.4626-1.4796c-.0991-.32776-.5617-.32776-.6655 0z" fill="url(#ah)"/><path d="m17.4618 11.8222c.3415.178.7488.2802 1.1827.2802.4383 0 .8411-.1021 1.1827-.2802l.0005-.0003c.0811-.0412.1664-.0173.2177.0359.0518.0538.0709.1402.0189.2183m-2.6025-.2539 2.5608.2262m-2.5608-.2262-.0005-.0003c-.0819-.0416-.1672-.0156-.2179.0378-.0509.0536-.0712.1401-.0184.2167m.2368-.2542-.1954.2262m2.7979.0277c-.0001 0-.0001 0-.0001.0001l-.0416-.0278m.0417.0277c0-.0001 0-.0001 0-.0001l-.0417-.0276m.0417.0277c-.3006.4553-.8239.7586-1.4198.7586-.5957 0-1.119-.3031-1.4195-.7583m2.7976-.028c-.2915.4418-.7995.7363-1.3781.7363s-1.0866-.2945-1.3781-.7363m-.0414.028c.0001.0002.0002.0003.0003.0005l.0411-.0285m-.0414.028c-.0001-.0001-.0002-.0003-.0003-.0004l.0417-.0276" fill="#2a0219" stroke="url(#ai)" stroke-width=".1"/><g filter="url(#q)"><path d="m21.8825 7.05954-.001-.00089-.0017-.00133-.0039-.00318-.0104-.00831c-.0081-.00636-.0186-.01434-.0313-.02367-.0254-.01862-.0601-.0427-.1035-.06992-.0867-.05429-.2098-.12194-.3654-.18348-.3125-.12355-.7588-.22309-1.2995-.13772-.2535.04002-.4265.27793-.3865.53138.0401.25346.278.42649.5314.38647.3463-.05468.6236.00917.8129.08401.0953.03766.1677.07797.2138.10683.0229.01436.039.02566.0476.03202.0037.00264.006.00441.0069.00516.1971.16066.4873.13308.6504-.06273.1643-.19713.1374-.49037-.0598-.65464z" fill="#1e1e1e"/></g><g filter="url(#r)"><path d="m15.3593 7.05982.0007-.00056.0007-.00061.0016-.00133.004-.00318.0104-.00831c.0081-.00636.0186-.01434.0313-.02367.0254-.01862.0601-.0427.1035-.06992.0867-.05429.2097-.12194.3654-.18348.3125-.12355.7588-.22309 1.2995-.13772.2534.04002.4265.27793.3864.53138-.04.25346-.2779.42649-.5313.38647-.3463-.05468-.6236.00917-.813.08401-.0952.03766-.1676.07797-.2137.10683-.0229.01436-.039.02566-.0477.03202-.0036.00264-.0059.00441-.0068.00516-.1971.16066-.4873.13308-.6505-.06273-.1642-.19713-.1376-.49009.0595-.65436z" fill="#1e1e1e"/></g><path d="m20.7232 8.18213c.5684 0 1.0486.39191 1.1792.92151.0389.15182-.0776.29658-.233.29658h-1.9419c-.1235 0-.2224-.11298-.1977-.23656.1095-.55785.6002-.98153 1.1934-.98153z" fill="#fff"/><path d="m20.543 8.41943c.4307 0 .7767.34954.7767.77676 0 .07061-.0106.14122-.0282.20478h-1.5006c-.0176-.06709-.0282-.13417-.0282-.20478 0-.42722.3495-.77676.7803-.77676z" fill="url(#ak)"/><path d="m20.0983 9.19536c0-.24715.1977-.44487.4448-.44487.2472 0 .4449.19772.4449.44487 0 .07414-.0177.14475-.0494.20478h-.7874c-.0353-.06003-.0529-.13064-.0529-.20478z" fill="#000"/><g filter="url(#s)"><path d="m20.4859 8.58309c.0554.07401-.0603.16425-.1918.26258-.1316.09834-.2291.16754-.2845.09352-.0553-.07401.0064-.21373.138-.31207.1315-.09833.283-.11805.3383-.04403z" fill="#c7a7a3"/><path d="m20.4859 8.58309c.0554.07401-.0603.16425-.1918.26258-.1316.09834-.2291.16754-.2845.09352-.0553-.07401.0064-.21373.138-.31207.1315-.09833.283-.11805.3383-.04403z" fill="url(#am)"/></g><g filter="url(#t)"><path d="m21.2349 9.09364c-.0287-.20081-.1462-.35215-.2013-.40272l-.2262.24825.102.1986z" fill="url(#ao)"/></g><path d="m16.5611 8.18213c-.5685 0-1.0487.39193-1.1793.92156-.0388.15182.0777.29659.233.29659h1.942c.1236 0 .2225-.11299.1977-.23657-.1094-.55788-.6037-.98158-1.1934-.98158z" fill="#fff"/><path d="m16.7411 8.41846c-.4307 0-.7767.34955-.7767.77679 0 .07062.0105.14123.0282.20479h1.5006c.0177-.06709.0283-.13417.0283-.20479-.0036-.42724-.3496-.77679-.7804-.77679z" fill="url(#ap)"/><path d="m17.186 9.19538c0-.24716-.1977-.44489-.4448-.44489-.2472 0-.4449.19773-.4449.44489 0 .07415.0176.14476.0494.20479h.7874c.0318-.06003.0529-.13064.0529-.20479z" fill="#000"/><g filter="url(#u)"><path d="m17.4509 9.1042c0-.25102-.2042-.41837-.2593-.46895l-.251.24275.1544.31447z" fill="url(#aq)"/></g><g filter="url(#v)"><ellipse cx="16.5068" cy="8.7512" fill="#c7a7a3" fill-opacity=".9" rx=".339111" ry=".171622" transform="matrix(.88365127 -.46814574 .46814574 .88365127 -2.176292 8.745779)"/><ellipse cx="16.5068" cy="8.7512" fill="url(#ar)" rx=".339111" ry=".171622" transform="matrix(.88365127 -.46814574 .46814574 .88365127 -2.176292 8.745779)"/></g><g filter="url(#w)"><path d="m20.09 6.93373c.3744-.06552 1.1045-.0468 1.61.34634" stroke="url(#at)" stroke-linecap="round" stroke-width=".25"/></g><g filter="url(#x)"><path d="m15.5461 7.38589c.2848-.25172.9068-.51677 1.6777-.39389" stroke="url(#au)" stroke-linecap="round" stroke-width=".25"/></g><g filter="url(#y)"><path d="m14.6983 5.23975v.78136c-.0068.12938-.0612.41877-.2247.54134" stroke="url(#av)" stroke-linecap="round" stroke-width=".25"/></g></svg>