<svg enable-background="new 0 0 128 128" viewBox="0 0 128 128" xmlns="http://www.w3.org/2000/svg"><g transform="scale(4)"><g fill="#26c9fc"><path d="m27.67 10.91c0 .475-.3851.86-.8601.86-.4749 0-.8599-.385-.8599-.86 0-.4749.385-.86.8599-.86.475 0 .8601.3851.8601.86z"/><path d="m29.8101 12.9901c0 .5412-.4388.98-.98.98s-.98-.4388-.98-.98c0-.5413.4388-.98.98-.98s.98.4387.98.98z"/><path d="m29.3439 24.5688c-1.298 3.1336-4.8127 5.4313-7.9939 5.4313h-16.42812s14.46812-4.58 17.97812-11.1c1.8-3.34 7.1-2.04 7.1 2.36.0013 1.1353-.2216 2.2598-.6561 3.3087z"/><path d="m25.8201 16.1801c.6903 0 1.25-.5597 1.25-1.25 0-.6904-.5597-1.25-1.25-1.25-.6904 0-1.25.5596-1.25 1.25 0 .6903.5596 1.25 1.25 1.25z"/></g><path d="m7.92195 12.9531c2.82025-.3984 4.19525-2.2578 4.98435-4.14841 1.0626 0 .7969 2.93751.0234 3.75001-.5559.584-2.3201 2.1019-4.74921 2.4042-.68049-.4589-.68047-1.4589-.25854-2.0058z" fill="#007acf"/><path d="m17.8984 10.0078c1.3878-.04693 2.2266.4531 2.625 1.0781.1759.2758.5782 1.0039.3907 2.0078 0 0-.2461-.0625-.3789.0391-.1329.1015-.3204.5078-.2618.7578s.2969.1757.2969.25c0 .0742-.215.4104 0 .5625s.2578.082.3828.1328.1367.1484.2813.1797c.1445.0312.1992-.0313.3125 0 .1133.0312.1406.1132.3047.1172.164.0039.1757-.0274.3007-.0274s.0586.0742.3399.0742c.2812 0 .4109-.4083.4831-.944.0559-.4145.0559-.7495.0559-.9406 0-.4384.1092-.5576 0-1.2951-.5323-3.59561-3.4673-4.20995-6.2111-4.20995 0 0-1.58-.08-2.36 0-.2558.02463-.504.10119-.7292.22499-.2253.12379-.4229.29223-.5808.49501-.9555 1.73485-.3956 3.79405.2 5.55995.0946.2376.0023.4893-.0923.7269l-6.16405 13.0469 3.02345-1.0703.0937-1.0547 5.1329-7.6406c.25-.35.7152-.2159.8124.0468.6149 1.6614 2.2657 3.9297 3.7266 5.2188l1.7891-.625c-.9475-1.4461-2.7618-3.7969-2.7618-5.7887v-1.4501c0-1.5943-.7976-3.1406-1.33-4.6099-.09-.36-.3517-.7722.3183-.8622z" fill="#0092e7"/><path d="m20.9141 13.0937c.0339-.1812.0487-.5156.0487-.5156l2.114.1108s-.0455.3586-.0455.6061c0 .1912 0 .5261-.0559.9406-.0723.5357-.2019.944-.4832.944-.1687 0-.2123-.0267-.2472-.0481-.0232-.0142-.0426-.0261-.0926-.0261-.0564 0-.0898.0064-.1245.013-.0421.0081-.0863.0165-.1763.0144-.1001-.0024-.1493-.0339-.1982-.0652-.0312-.02-.0623-.0398-.1065-.052-.0552-.0153-.0965-.0082-.1411-.0006-.0468.008-.0973.0166-.1714.0006-.0802-.0174-.1195-.0551-.1599-.094-.0325-.0312-.0657-.0631-.1213-.0857-.0443-.018-.0783-.0208-.1132-.0237-.0638-.0053-.1308-.0109-.2696-.1091-.1628-.1151-.0792-.3357-.0289-.4684.0162-.0426.0289-.0761.0289-.0941 0-.0267-.0308-.0342-.073-.0445-.0751-.0183-.1864-.0454-.2239-.2055-.0586-.25.1289-.6563.2617-.7578.1328-.1016.3789-.0391.3789-.0391z" fill="#573739"/><path d="m6.91744 12.8957c-.23898-.0305-.46938-.0598-.67522-.0598-.58597 0-1.03896.3125-1.24218.5859-.05963.0802-.02353.207-.02353.207-.14453.0691-.40859.2969-.30859.6563-.00569-.0219-.32016.3008-.13657.5898.10925.1563.25118.1719.30849.1602 0 0 .0071.1062.1602.2344.08202.0612.34058.0765.48434-.0703.02927-.03.05761-.0628.08692-.0967.15064-.1744.32702-.3786.78808-.3721-.1836.1445-.53907.4688-.25782.8047.14066.168.46563.1562.6875-.0313l.54297-.4921c.20794 0 .41873-.0179.61758-.0347.08043-.0068.1591-.0134.23465-.0186-.26235-.56-.41473-1.5561-.26235-2.0053-.32276.0295-.67193-.015-1.00447-.0574z" fill="#573739"/><path d="m19.8829 23.3437c-.3195-.2819-.9727-.9694-.9727-.9694l1.9483-.8634s.5812.8533.8134 1.2078z" fill="#573739"/><path d="m8.35921 25.1652-1.26546 2.6785 3.02345-1.0703.0937-1.0547z" fill="#573739"/><path d="m23.0707 24.5469 2.4293-.8369c.2994-.1091.5463-.3276.6911-.6115.1447-.2839.1765-.6121.0889-.9185-.0528-.1569-.1364-.3018-.2457-.4262s-.2423-.2258-.3911-.2984c-.1489-.0726-.3107-.1149-.476-.1244-.1654-.0095-.331.014-.4872.069l-22.47997 7.74c-.10122.0315-.18766.0986-.24341.1887-.05575.0902-.07707.1975-.06003.3021.01703.1046.07127.1996.15275.2674.08147.0679.18469.104.29069.1018h2.79c1.4516-.0043 2.89199-.2545 4.26-.74l11.79797-4.0645 1.732.8445c.0655.031.1386.0422.2102.0321.0717-.0102.1389-.0411.1932-.089s.0933-.1107.1123-.1806c.0189-.0698.017-.1437-.0057-.2125z" fill="#d73b9a"/><path d="m16.26 3.51997-.18-.09c-.1307-.06602-.249-.15396-.35-.26l-.36-.35c-.1303-.1251-.2921-.21255-.4682-.25304-.1761-.0405-.3599-.03254-.5318.02304-.2299.08001-.4801.08001-.71 0-.1524-.07742-.3255-.1046-.4943-.07765-.1689.02694-.3249.10663-.4457.22765l-.44.43c-.1009.10604-.2193.19398-.35.26l-.18.09c-.1643.07869-.2978.20988-.3792.37286-.0815.16297-.1064.34845-.0708.52714l.24 1.34c.0147.06206.0488.11781.0974.15917.0485.04136.1726.07083.1726.07083l4.41.03s.1228-.02812.17-.06985c.0471-.04173.0789-.09816.09-.16015l.25-1.34c.0378-.18529.012-.37791-.0733-.54669-.0853-.16877-.2251-.30383-.3967-.38331z"/><path clip-rule="evenodd" d="m16.22 5.4699v.55007c.0629-.00351.1228-.02812.17-.06985.0471-.04173.0789-.09816.09-.16015l.0368-.19725c.1836.13049.3033.34488.3033.58724 0 .39765-.3223.72-.72.72-.3976 0-.72-.32235-.72-.72 0-.39764.3224-.72.72-.72.0409 0 .0809.0034.1199.00994zm-4.7128.10653.0328.18354c.0147.06206.0488.11781.0974.15917.0485.04136.109.06617.1726.07083v-.52445c.0295-.00367.0595-.00556.0899-.00556.3977 0 .72.32236.72.72 0 .39765-.3223.72-.72.72-.3976 0-.72-.32235-.72-.72 0-.25273.1303-.47505.3273-.60353z" fill="#4e3233" fill-rule="evenodd"/><path clip-rule="evenodd" d="m11.7958 5.98863c.0047.00057.0095.00103.0142.00138v-.62c-.0201-.06328-.0234-.13075-.0093-.19567.014-.06492.0448-.12503.0893-.17433h.11c.0542-.04935.0974-.1096.1267-.17682.0293-.06721.0441-.13986.0433-.21318v-.4c.0003-.04484.0138-.08861.0386-.12592.0249-.03731.0602-.06653.1014-.08408.5531-.13515 1.1206-.20231 1.69-.2.5661-.00281 1.1304.06437 1.68.2.0503.0112.0954.03897.1281.07887.0326.03989.0509.08959.0519.14113v.37c-.0075.07439.0011.14952.0253.22028.0241.07075.0633.13546.1147.18972l.08.07c.0474.04033.0847.09115.1091.14844.0243.05729.0349.11946.0309.18156v.35298l-.1299 1.95703c-.0277.35192-.1874.68037-.447.91957-.2596.23921-.6.37152-.953.37043h-1.38c-.353.00109-.6934-.13122-.953-.37043-.2596-.2392-.4193-.56765-.447-.91957z" fill="#573739" fill-rule="evenodd"/><path d="m14.0001 7.51001c-.2187-.00116-.4343-.05248-.63-.15-.06 0-.13 0-.09.1.0793.11964.1871.21778.3136.28567s.2678.10342.4114.10342c.1435 0 .2849-.03553.4114-.10342s.2342-.16603.3136-.28567c0-.06 0-.14-.09-.1-.1993.09767-.4181.14895-.64.15z" fill="#290118"/><path d="m13.8399 6.05998-.23.73c-.0089.03581-.0097.07315-.0025.10933s.0224.07032.0444.09995c.022.02964.0502.05403.0828.07145.0325.01741.0685.02741.1053.02927h.33c.0367-.00145.0726-.01131.1049-.0288.0322-.0175.0601-.04217.0813-.07211.0213-.02995.0354-.06437.0412-.10062.0059-.03625.0034-.07335-.0074-.10847l-.22-.73c-.0091-.03685-.0303-.06958-.0602-.09297s-.0668-.0361-.1048-.0361c-.0379 0-.0748.01271-.1047.0361s-.0511.05612-.0603.09297z" fill="#3d2123"/><path d="m15.0499 5.57994c.1381.00036.2721.04678.3808.13192s.1858.20412.2192.33808c.0029.01786.0019.03611-.0027.05358-.0046.01748-.0129.03379-.0242.04791-.0113.01411-.0254.02572-.0414.03407-.016.00836-.0336.01327-.0517.01444h-1c-.0144-.00125-.0285-.00536-.0414-.01208s-.0243-.01593-.0336-.02708c-.0093-.01116-.0163-.02405-.0205-.03792-.0043-.01387-.0058-.02846-.0045-.04292.0282-.14288.1058-.2713.2191-.36272.1134-.09143.2553-.14002.4009-.13728z" fill="#fff"/><path d="m13.0001 5.57991c-.1381.00035-.2721.04677-.3808.13191s-.1858.20412-.2192.33809c-.0047.01804-.0051.03693-.0012.05516s.012.0353.0236.04986c.0117.01456.0266.0262.0435.03401.0169.0078.0354.01156.0541.01096h1c.0144-.00125.0285-.00536.0414-.01208s.0243-.01593.0336-.02708c.0093-.01116.0163-.02405.0205-.03792.0043-.01387.0058-.02846.0045-.04291-.03-.14201-.108-.26931-.221-.36042-.113-.0911-.2539-.1404-.399-.13958z" fill="#fff"/><path d="m12.7707 5.81355c.0747-.07286.1749-.11363.2793-.1136.0955.01202.1835.05807.2478.12971.0643.07163.1006.16405.1022.26029.0047.03652.0047.07349 0 .11h-.75c-.0047-.03651-.0047-.07348 0-.11.0026-.10434.0459-.20353.1207-.2764z" fill="#7d4533"/><path d="m15.2759 5.81418c-.0731-.07314-.1723-.11423-.2758-.11423-.0991.00743-.1919.05148-.2603.12358-.0684.07209-.1075.16707-.1097.26642v.11h.76c.005-.0365.005-.0735 0-.11 0-.10343-.0411-.20263-.1142-.27577z" fill="#7d4533"/><path d="m12.8201 6.19995c-.0002-.15308.0237-.31323.2112-.31323s.2388.16794.2388.31323z"/><path d="m14.7869 6.19995c-.0002-.15308.0237-.31323.2112-.31323s.2388.16794.2388.31323z"/><path d="m12.9801 5.94c0 .03866-.0314.07-.07.07-.0387 0-.07-.03134-.07-.07s.0313-.07.07-.07c.0386 0 .07.03134.07.07z" fill="#fff"/><path d="m14.91 5.94c0 .03866-.0313.07-.07.07-.0386 0-.07-.03134-.07-.07s.0314-.07.07-.07c.0387 0 .07.03134.07.07z" fill="#fff"/><path d="m12.5714 5.28267c.1874-.13043.4165-.18691.6431-.15857.0685.00856.131-.04003.1395-.10853.0086-.0685-.04-.13098-.1085-.13954-.2878-.036-.5788.03575-.8169.20143-.0567.03943-.0706.11733-.0312.174.0394.05666.1173.07064.174.03121z"/><path d="m15.5803 5.07667c-.2386-.16234-.5277-.23361-.8145-.20083-.0685.00783-.1178.06979-.11.13838.0079.06859.0698.11784.1384.11.2273-.02597.4564.03051.6455.15917.0571.03882.1349.02402.1737-.03306.0388-.05709.024-.13484-.0331-.17366z"/></g></svg>