<svg fill="none" height="32" viewBox="0 0 32 32" width="32" xmlns="http://www.w3.org/2000/svg" xmlns:xlink="http://www.w3.org/1999/xlink"><filter id="a" color-interpolation-filters="sRGB" filterUnits="userSpaceOnUse" height="15.2976" width="14.6737" x="7.89802" y="1.61462"><feFlood flood-opacity="0" result="BackgroundImageFix"/><feBlend in="SourceGraphic" in2="BackgroundImageFix" mode="normal" result="shape"/><feColorMatrix in="SourceAlpha" result="hardAlpha" type="matrix" values="0 0 0 0 0 0 0 0 0 0 0 0 0 0 0 0 0 0 127 0"/><feOffset dx="-.2" dy="-.5"/><feGaussianBlur stdDeviation=".625"/><feComposite in2="hardAlpha" k2="-1" k3="1" operator="arithmetic"/><feColorMatrix type="matrix" values="0 0 0 0 0.745098 0 0 0 0 0.396078 0 0 0 0 0.282353 0 0 0 1 0"/><feBlend in2="shape" mode="normal" result="effect1_innerShadow_4002_1288"/></filter><filter id="b" color-interpolation-filters="sRGB" filterUnits="userSpaceOnUse" height="13.6261" width="16.9701" x="7.63879" y="16.2592"><feFlood flood-opacity="0" result="BackgroundImageFix"/><feBlend in="SourceGraphic" in2="BackgroundImageFix" mode="normal" result="shape"/><feColorMatrix in="SourceAlpha" result="hardAlpha" type="matrix" values="0 0 0 0 0 0 0 0 0 0 0 0 0 0 0 0 0 0 127 0"/><feOffset dx="1.25"/><feGaussianBlur stdDeviation="1.25"/><feComposite in2="hardAlpha" k2="-1" k3="1" operator="arithmetic"/><feColorMatrix type="matrix" values="0 0 0 0 0.223529 0 0 0 0 0.623529 0 0 0 0 0.317647 0 0 0 1 0"/><feBlend in2="shape" mode="normal" result="effect1_innerShadow_4002_1288"/><feColorMatrix in="SourceAlpha" result="hardAlpha" type="matrix" values="0 0 0 0 0 0 0 0 0 0 0 0 0 0 0 0 0 0 127 0"/><feOffset dy="-.25"/><feGaussianBlur stdDeviation=".5"/><feComposite in2="hardAlpha" k2="-1" k3="1" operator="arithmetic"/><feColorMatrix type="matrix" values="0 0 0 0 0.313726 0 0 0 0 0.576471 0 0 0 0 0.541176 0 0 0 1 0"/><feBlend in2="effect1_innerShadow_4002_1288" mode="normal" result="effect2_innerShadow_4002_1288"/></filter><filter id="c" color-interpolation-filters="sRGB" filterUnits="userSpaceOnUse" height="12.4531" width="8.80271" x="15.0826" y="15.2123"><feFlood flood-opacity="0" result="BackgroundImageFix"/><feBlend in="SourceGraphic" in2="BackgroundImageFix" mode="normal" result="shape"/><feGaussianBlur result="effect1_foregroundBlur_4002_1288" stdDeviation=".5"/></filter><filter id="d" color-interpolation-filters="sRGB" filterUnits="userSpaceOnUse" height="1.94861" width="1.40995" x="24.485" y="7.21765"><feFlood flood-opacity="0" result="BackgroundImageFix"/><feBlend in="SourceGraphic" in2="BackgroundImageFix" mode="normal" result="shape"/><feColorMatrix in="SourceAlpha" result="hardAlpha" type="matrix" values="0 0 0 0 0 0 0 0 0 0 0 0 0 0 0 0 0 0 127 0"/><feOffset dx=".1"/><feGaussianBlur stdDeviation=".125"/><feComposite in2="hardAlpha" k2="-1" k3="1" operator="arithmetic"/><feColorMatrix type="matrix" values="0 0 0 0 0.835294 0 0 0 0 0.607843 0 0 0 0 0.156863 0 0 0 1 0"/><feBlend in2="shape" mode="normal" result="effect1_innerShadow_4002_1288"/></filter><filter id="e" color-interpolation-filters="sRGB" filterUnits="userSpaceOnUse" height="10.7078" width="20.6335" x="5.68323" y="7.05134"><feFlood flood-opacity="0" result="BackgroundImageFix"/><feBlend in="SourceGraphic" in2="BackgroundImageFix" mode="normal" result="shape"/><feColorMatrix in="SourceAlpha" result="hardAlpha" type="matrix" values="0 0 0 0 0 0 0 0 0 0 0 0 0 0 0 0 0 0 127 0"/><feOffset dy="-.2"/><feGaussianBlur stdDeviation=".3"/><feComposite in2="hardAlpha" k2="-1" k3="1" operator="arithmetic"/><feColorMatrix type="matrix" values="0 0 0 0 0.796078 0 0 0 0 0.513726 0 0 0 0 0.290196 0 0 0 1 0"/><feBlend in2="shape" mode="normal" result="effect1_innerShadow_4002_1288"/></filter><filter id="f" color-interpolation-filters="sRGB" filterUnits="userSpaceOnUse" height="3.61458" width="11.112" x="10.8286" y="25.798"><feFlood flood-opacity="0" result="BackgroundImageFix"/><feBlend in="SourceGraphic" in2="BackgroundImageFix" mode="normal" result="shape"/><feGaussianBlur result="effect1_foregroundBlur_4002_1288" stdDeviation=".2"/></filter><filter id="g" color-interpolation-filters="sRGB" filterUnits="userSpaceOnUse" height="3.16975" width="3.29683" x="8.24479" y="23.8285"><feFlood flood-opacity="0" result="BackgroundImageFix"/><feBlend in="SourceGraphic" in2="BackgroundImageFix" mode="normal" result="shape"/><feGaussianBlur result="effect1_foregroundBlur_4002_1288" stdDeviation=".2"/></filter><filter id="h" color-interpolation-filters="sRGB" filterUnits="userSpaceOnUse" height="3.03193" width="3.08495" x="11.5063" y="23.3096"><feFlood flood-opacity="0" result="BackgroundImageFix"/><feBlend in="SourceGraphic" in2="BackgroundImageFix" mode="normal" result="shape"/><feGaussianBlur result="effect1_foregroundBlur_4002_1288" stdDeviation=".2"/></filter><filter id="i" color-interpolation-filters="sRGB" filterUnits="userSpaceOnUse" height="2.79688" width="6.54675" x="14.1398" y="13.5873"><feFlood flood-opacity="0" result="BackgroundImageFix"/><feBlend in="SourceGraphic" in2="BackgroundImageFix" mode="normal" result="shape"/><feGaussianBlur result="effect1_foregroundBlur_4002_1288" stdDeviation=".125"/></filter><filter id="j" color-interpolation-filters="sRGB" filterUnits="userSpaceOnUse" height="3.42813" width="7.84531" x="13.6906" y="12.7498"><feFlood flood-opacity="0" result="BackgroundImageFix"/><feBlend in="SourceGraphic" in2="BackgroundImageFix" mode="normal" result="shape"/><feColorMatrix in="SourceAlpha" result="hardAlpha" type="matrix" values="0 0 0 0 0 0 0 0 0 0 0 0 0 0 0 0 0 0 127 0"/><feOffset dx=".4" dy="-.4"/><feGaussianBlur stdDeviation=".4"/><feComposite in2="hardAlpha" k2="-1" k3="1" operator="arithmetic"/><feColorMatrix type="matrix" values="0 0 0 0 0.494118 0 0 0 0 0.305882 0 0 0 0 0.764706 0 0 0 1 0"/><feBlend in2="shape" mode="normal" result="effect1_innerShadow_4002_1288"/><feColorMatrix in="SourceAlpha" result="hardAlpha" type="matrix" values="0 0 0 0 0 0 0 0 0 0 0 0 0 0 0 0 0 0 127 0"/><feOffset dy=".2"/><feGaussianBlur stdDeviation=".4"/><feComposite in2="hardAlpha" k2="-1" k3="1" operator="arithmetic"/><feColorMatrix type="matrix" values="0 0 0 0 0.568627 0 0 0 0 0.388235 0 0 0 0 0.745098 0 0 0 1 0"/><feBlend in2="effect1_innerShadow_4002_1288" mode="normal" result="effect2_innerShadow_4002_1288"/></filter><filter id="k" color-interpolation-filters="sRGB" filterUnits="userSpaceOnUse" height="1.90179" width="2.00179" x="13.6906" y="6.2699"><feFlood flood-opacity="0" result="BackgroundImageFix"/><feBlend in="SourceGraphic" in2="BackgroundImageFix" mode="normal" result="shape"/><feColorMatrix in="SourceAlpha" result="hardAlpha" type="matrix" values="0 0 0 0 0 0 0 0 0 0 0 0 0 0 0 0 0 0 127 0"/><feOffset dx=".1"/><feGaussianBlur stdDeviation=".1"/><feComposite in2="hardAlpha" k2="-1" k3="1" operator="arithmetic"/><feColorMatrix type="matrix" values="0 0 0 0 0.890196 0 0 0 0 0.6 0 0 0 0 0.196078 0 0 0 1 0"/><feBlend in2="shape" mode="normal" result="effect1_innerShadow_4002_1288"/></filter><filter id="l" color-interpolation-filters="sRGB" filterUnits="userSpaceOnUse" height="1.66947" width="1.6695" x="19.4283" y="6.38606"><feFlood flood-opacity="0" result="BackgroundImageFix"/><feBlend in="SourceGraphic" in2="BackgroundImageFix" mode="normal" result="shape"/><feGaussianBlur result="effect1_foregroundBlur_4002_1288" stdDeviation=".1"/></filter><filter id="m" color-interpolation-filters="sRGB" filterUnits="userSpaceOnUse" height="1.56947" width="1.5695" x="13.8682" y="6.43606"><feFlood flood-opacity="0" result="BackgroundImageFix"/><feBlend in="SourceGraphic" in2="BackgroundImageFix" mode="normal" result="shape"/><feGaussianBlur result="effect1_foregroundBlur_4002_1288" stdDeviation=".075"/></filter><filter id="n" color-interpolation-filters="sRGB" filterUnits="userSpaceOnUse" height="6.42767" width="6.42232" x="14.3993" y="4.32117"><feFlood flood-opacity="0" result="BackgroundImageFix"/><feBlend in="SourceGraphic" in2="BackgroundImageFix" mode="normal" result="shape"/><feColorMatrix in="SourceAlpha" result="hardAlpha" type="matrix" values="0 0 0 0 0 0 0 0 0 0 0 0 0 0 0 0 0 0 127 0"/><feOffset dx=".4"/><feGaussianBlur stdDeviation=".2"/><feComposite in2="hardAlpha" k2="-1" k3="1" operator="arithmetic"/><feColorMatrix type="matrix" values="0 0 0 0 0.909804 0 0 0 0 0.643137 0 0 0 0 0.2 0 0 0 1 0"/><feBlend in2="shape" mode="normal" result="effect1_innerShadow_4002_1288"/></filter><filter id="o" color-interpolation-filters="sRGB" filterUnits="userSpaceOnUse" height="2.08484" width="1.60938" x="16.5099" y="6.67224"><feFlood flood-opacity="0" result="BackgroundImageFix"/><feBlend in="SourceGraphic" in2="BackgroundImageFix" mode="normal" result="shape"/><feGaussianBlur result="effect1_foregroundBlur_4002_1288" stdDeviation=".125"/></filter><filter id="p" color-interpolation-filters="sRGB" filterUnits="userSpaceOnUse" height="1.06542" width="2.35159" x="16.2346" y="8.52659"><feFlood flood-opacity="0" result="BackgroundImageFix"/><feBlend in="SourceGraphic" in2="BackgroundImageFix" mode="normal" result="shape"/><feGaussianBlur result="effect1_foregroundBlur_4002_1288" stdDeviation=".05"/></filter><filter id="q" color-interpolation-filters="sRGB" filterUnits="userSpaceOnUse" height=".759644" width="1.85549" x="17.8854" y="6.39075"><feFlood flood-opacity="0" result="BackgroundImageFix"/><feBlend in="SourceGraphic" in2="BackgroundImageFix" mode="normal" result="shape"/><feColorMatrix in="SourceAlpha" result="hardAlpha" type="matrix" values="0 0 0 0 0 0 0 0 0 0 0 0 0 0 0 0 0 0 127 0"/><feOffset dx="-.2"/><feGaussianBlur stdDeviation=".2"/><feComposite in2="hardAlpha" k2="-1" k3="1" operator="arithmetic"/><feColorMatrix type="matrix" values="0 0 0 0 0.141176 0 0 0 0 0.0862745 0 0 0 0 0.176471 0 0 0 1 0"/><feBlend in2="shape" mode="normal" result="effect1_innerShadow_4002_1288"/></filter><filter id="r" color-interpolation-filters="sRGB" filterUnits="userSpaceOnUse" height=".759644" width="1.85549" x="15.0802" y="6.39075"><feFlood flood-opacity="0" result="BackgroundImageFix"/><feBlend in="SourceGraphic" in2="BackgroundImageFix" mode="normal" result="shape"/><feColorMatrix in="SourceAlpha" result="hardAlpha" type="matrix" values="0 0 0 0 0 0 0 0 0 0 0 0 0 0 0 0 0 0 127 0"/><feOffset dx=".2"/><feGaussianBlur stdDeviation=".125"/><feComposite in2="hardAlpha" k2="-1" k3="1" operator="arithmetic"/><feColorMatrix type="matrix" values="0 0 0 0 0.133333 0 0 0 0 0.0784314 0 0 0 0 0.168627 0 0 0 1 0"/><feBlend in2="shape" mode="normal" result="effect1_innerShadow_4002_1288"/></filter><filter id="s" color-interpolation-filters="sRGB" filterUnits="userSpaceOnUse" height=".72655" width="1.53128" x="15.1598" y="5.4676"><feFlood flood-opacity="0" result="BackgroundImageFix"/><feBlend in="SourceGraphic" in2="BackgroundImageFix" mode="normal" result="shape"/><feColorMatrix in="SourceAlpha" result="hardAlpha" type="matrix" values="0 0 0 0 0 0 0 0 0 0 0 0 0 0 0 0 0 0 127 0"/><feOffset dx=".2" dy="-.2"/><feGaussianBlur stdDeviation=".15"/><feComposite in2="hardAlpha" k2="-1" k3="1" operator="arithmetic"/><feColorMatrix type="matrix" values="0 0 0 0 0.658824 0 0 0 0 0.270588 0 0 0 0 0.141176 0 0 0 1 0"/><feBlend in2="shape" mode="normal" result="effect1_innerShadow_4002_1288"/></filter><filter id="t" color-interpolation-filters="sRGB" filterUnits="userSpaceOnUse" height=".72655" width="1.53128" x="18.3612" y="5.4676"><feFlood flood-opacity="0" result="BackgroundImageFix"/><feBlend in="SourceGraphic" in2="BackgroundImageFix" mode="normal" result="shape"/><feColorMatrix in="SourceAlpha" result="hardAlpha" type="matrix" values="0 0 0 0 0 0 0 0 0 0 0 0 0 0 0 0 0 0 127 0"/><feOffset dx=".2" dy="-.2"/><feGaussianBlur stdDeviation=".15"/><feComposite in2="hardAlpha" k2="-1" k3="1" operator="arithmetic"/><feColorMatrix type="matrix" values="0 0 0 0 0.658824 0 0 0 0 0.270588 0 0 0 0 0.141176 0 0 0 1 0"/><feBlend in2="shape" mode="normal" result="effect1_innerShadow_4002_1288"/></filter><filter id="u" color-interpolation-filters="sRGB" filterUnits="userSpaceOnUse" height=".492053" width=".545318" x="18.2249" y="6.56779"><feFlood flood-opacity="0" result="BackgroundImageFix"/><feBlend in="SourceGraphic" in2="BackgroundImageFix" mode="normal" result="shape"/><feGaussianBlur result="effect1_foregroundBlur_4002_1288" stdDeviation=".05"/></filter><filter id="v" color-interpolation-filters="sRGB" filterUnits="userSpaceOnUse" height=".702124" width=".689063" x="18.6805" y="6.57063"><feFlood flood-opacity="0" result="BackgroundImageFix"/><feBlend in="SourceGraphic" in2="BackgroundImageFix" mode="normal" result="shape"/><feGaussianBlur result="effect1_foregroundBlur_4002_1288" stdDeviation=".1"/></filter><filter id="w" color-interpolation-filters="sRGB" filterUnits="userSpaceOnUse" height=".776709" width=".745011" x="16.055" y="6.53303"><feFlood flood-opacity="0" result="BackgroundImageFix"/><feBlend in="SourceGraphic" in2="BackgroundImageFix" mode="normal" result="shape"/><feGaussianBlur result="effect1_foregroundBlur_4002_1288" stdDeviation=".1"/></filter><filter id="x" color-interpolation-filters="sRGB" filterUnits="userSpaceOnUse" height=".496875" width=".61959" x="15.6496" y="6.56302"><feFlood flood-opacity="0" result="BackgroundImageFix"/><feBlend in="SourceGraphic" in2="BackgroundImageFix" mode="normal" result="shape"/><feGaussianBlur result="effect1_foregroundBlur_4002_1288" stdDeviation=".05"/></filter><filter id="y" color-interpolation-filters="sRGB" filterUnits="userSpaceOnUse" height=".473254" width="1.23144" x="18.4315" y="5.67393"><feFlood flood-opacity="0" result="BackgroundImageFix"/><feBlend in="SourceGraphic" in2="BackgroundImageFix" mode="normal" result="shape"/><feGaussianBlur result="effect1_foregroundBlur_4002_1288" stdDeviation=".05"/></filter><filter id="z" color-interpolation-filters="sRGB" filterUnits="userSpaceOnUse" height=".473254" width="1.23144" x="15.2099" y="5.67393"><feFlood flood-opacity="0" result="BackgroundImageFix"/><feBlend in="SourceGraphic" in2="BackgroundImageFix" mode="normal" result="shape"/><feGaussianBlur result="effect1_foregroundBlur_4002_1288" stdDeviation=".05"/></filter><filter id="A" color-interpolation-filters="sRGB" filterUnits="userSpaceOnUse" height="2.50365" width="2.16284" x="13.885" y="3.29294"><feFlood flood-opacity="0" result="BackgroundImageFix"/><feBlend in="SourceGraphic" in2="BackgroundImageFix" mode="normal" result="shape"/><feGaussianBlur result="effect1_foregroundBlur_4002_1288" stdDeviation=".05"/></filter><filter id="B" color-interpolation-filters="sRGB" filterUnits="userSpaceOnUse" height="3.64517" width="5.15031" x="15.3205" y="2.32825"><feFlood flood-opacity="0" result="BackgroundImageFix"/><feBlend in="SourceGraphic" in2="BackgroundImageFix" mode="normal" result="shape"/><feColorMatrix in="SourceAlpha" result="hardAlpha" type="matrix" values="0 0 0 0 0 0 0 0 0 0 0 0 0 0 0 0 0 0 127 0"/><feOffset dy="-.25"/><feGaussianBlur stdDeviation=".25"/><feComposite in2="hardAlpha" k2="-1" k3="1" operator="arithmetic"/><feColorMatrix type="matrix" values="0 0 0 0 0.909804 0 0 0 0 0.576471 0 0 0 0 0.137255 0 0 0 1 0"/><feBlend in2="shape" mode="normal" result="effect1_innerShadow_4002_1288"/><feGaussianBlur result="effect2_foregroundBlur_4002_1288" stdDeviation=".05"/></filter><filter id="C" color-interpolation-filters="sRGB" filterUnits="userSpaceOnUse" height="3.49517" width="5.15031" x="15.3205" y="2.47825"><feFlood flood-opacity="0" result="BackgroundImageFix"/><feBlend in="SourceGraphic" in2="BackgroundImageFix" mode="normal" result="shape"/><feGaussianBlur result="effect1_foregroundBlur_4002_1288" stdDeviation=".05"/></filter><filter id="D" color-interpolation-filters="sRGB" filterUnits="userSpaceOnUse" height="3.06112" width="3.17028" x="19.2755" y="3.52537"><feFlood flood-opacity="0" result="BackgroundImageFix"/><feBlend in="SourceGraphic" in2="BackgroundImageFix" mode="normal" result="shape"/><feColorMatrix in="SourceAlpha" result="hardAlpha" type="matrix" values="0 0 0 0 0 0 0 0 0 0 0 0 0 0 0 0 0 0 127 0"/><feOffset dx=".1" dy="-.1"/><feGaussianBlur stdDeviation=".2"/><feComposite in2="hardAlpha" k2="-1" k3="1" operator="arithmetic"/><feColorMatrix type="matrix" values="0 0 0 0 0.345098 0 0 0 0 0.529412 0 0 0 0 0.87451 0 0 0 1 0"/><feBlend in2="shape" mode="normal" result="effect1_innerShadow_4002_1288"/></filter><filter id="E" color-interpolation-filters="sRGB" filterUnits="userSpaceOnUse" height="7.64062" width="3.05469" x="23.8541" y="7.33728"><feFlood flood-opacity="0" result="BackgroundImageFix"/><feBlend in="SourceGraphic" in2="BackgroundImageFix" mode="normal" result="shape"/><feGaussianBlur result="effect1_foregroundBlur_4002_1288" stdDeviation=".5"/></filter><radialGradient id="F" cx="0" cy="0" gradientTransform="matrix(-2.5625162 4.21874438 -6.12104339 -3.71799554 21.0244 3.25916)" gradientUnits="userSpaceOnUse" r="1"><stop offset="0" stop-color="#ffdd36"/><stop offset="1" stop-color="#eea535"/></radialGradient><radialGradient id="G" cx="0" cy="0" gradientTransform="matrix(7.1562395 -13.43425674 24.24616182 12.91558917 11.2916 16.9122)" gradientUnits="userSpaceOnUse" r="1"><stop offset=".231259" stop-color="#fa871d"/><stop offset="1" stop-color="#fa871d" stop-opacity="0"/></radialGradient><radialGradient id="H" cx="0" cy="0" gradientTransform="matrix(-3.46875157 2.49999433 -1.9395293 -2.69110422 14.4479 15.6654)" gradientUnits="userSpaceOnUse" r="1"><stop offset="0" stop-color="#bb5b24"/><stop offset="1" stop-color="#bb5b24" stop-opacity="0"/></radialGradient><radialGradient id="I" cx="0" cy="0" gradientTransform="matrix(4.31250339 -2.18749822 2.13962331 4.21812128 19.1041 10.3217)" gradientUnits="userSpaceOnUse" r="1"><stop offset="0" stop-color="#f78913"/><stop offset="1" stop-color="#f78913" stop-opacity="0"/></radialGradient><radialGradient id="J" cx="0" cy="0" gradientTransform="matrix(.43750214 3.65624754 -2.98213643 .35683882 15.6979 8.66541)" gradientUnits="userSpaceOnUse" r="1"><stop offset=".305294" stop-color="#dc6c1f"/><stop offset="1" stop-color="#ec741c" stop-opacity="0"/></radialGradient><radialGradient id="K" cx="0" cy="0" gradientTransform="matrix(-5.2031057 4.5625193 -1.11009405 -1.26595337 14.3698 11.8842)" gradientUnits="userSpaceOnUse" r="1"><stop offset=".458407" stop-color="#e16e14"/><stop offset="1" stop-color="#fb8a20" stop-opacity="0"/></radialGradient><radialGradient id="L" cx="0" cy="0" gradientTransform="matrix(-5.59371993 4.50003872 -1.3624277 -1.69354964 14.7916 3.13416)" gradientUnits="userSpaceOnUse" r="1"><stop offset=".252402" stop-color="#f1b030"/><stop offset="1" stop-color="#f1b030" stop-opacity="0"/></radialGradient><radialGradient id="M" cx="0" cy="0" gradientTransform="matrix(.98437588 1.56250307 -1.81495993 1.14342353 16.0729 2.41541)" gradientUnits="userSpaceOnUse" r="1"><stop offset="0" stop-color="#cfa437"/><stop offset="1" stop-color="#cfa437" stop-opacity="0"/></radialGradient><radialGradient id="N" cx="0" cy="0" gradientTransform="matrix(12.50200881 -3.89700626 4.76721357 15.293726 10.8568 25.0427)" gradientUnits="userSpaceOnUse" r="1"><stop offset=".80484" stop-color="#4dcd7d" stop-opacity="0"/><stop offset="1" stop-color="#4dcd7d"/></radialGradient><radialGradient id="O" cx="0" cy="0" gradientTransform="matrix(-3.61906431 1.93751728 -6.36476554 -11.88866598 22.7017 20.5717)" gradientUnits="userSpaceOnUse" r="1"><stop offset="0" stop-color="#4edd83"/><stop offset="1" stop-color="#4edd83" stop-opacity="0"/></radialGradient><radialGradient id="P" cx="0" cy="0" gradientTransform="matrix(.67968477 -.93749665 .55678295 .40366746 6.76233 16.8998)" gradientUnits="userSpaceOnUse" r="1"><stop offset="0" stop-color="#d69b3c"/><stop offset="1" stop-color="#cf841f"/></radialGradient><radialGradient id="Q" cx="0" cy="0" gradientTransform="matrix(-.68566991 .4999991 -.27414658 -.37594881 25.692 7.44665)" gradientUnits="userSpaceOnUse" r="1"><stop offset="0" stop-color="#fccb44"/><stop offset="1" stop-color="#f3ae26"/></radialGradient><radialGradient id="R" cx="0" cy="0" gradientTransform="matrix(-4.40624755 1.69139996 -2.32549621 -6.05812475 19.4792 12.5052)" gradientUnits="userSpaceOnUse" r="1"><stop offset="0" stop-color="#ffd22f"/><stop offset="1" stop-color="#ffb825"/></radialGradient><linearGradient id="S" gradientUnits="userSpaceOnUse" x1="8.13544" x2="14.7292" y1="16.5717" y2="12.1654"><stop offset="0" stop-color="#ffb430"/><stop offset="1" stop-color="#ffb430" stop-opacity="0"/></linearGradient><radialGradient id="T" cx="0" cy="0" gradientTransform="matrix(2.09375 0 0 4.11135 14.4792 17.1967)" gradientUnits="userSpaceOnUse" r="1"><stop offset=".0746271" stop-color="#efa62d"/><stop offset="1" stop-color="#efa62d" stop-opacity="0"/></radialGradient><radialGradient id="U" cx="0" cy="0" gradientTransform="matrix(-4.03127841 -5.76561104 2.15507656 -1.50681577 23.0261 16.181)" gradientUnits="userSpaceOnUse" r="1"><stop offset=".281046" stop-color="#e4942a"/><stop offset="1" stop-color="#ffc128" stop-opacity="0"/></radialGradient><radialGradient id="V" cx="0" cy="0" gradientTransform="matrix(1.14062196 3.15625077 -1.1266379 .40715014 23.7604 10.8373)" gradientUnits="userSpaceOnUse" r="1"><stop offset="0" stop-color="#e38c1d"/><stop offset="1" stop-color="#ffba27" stop-opacity="0"/></radialGradient><radialGradient id="W" cx="0" cy="0" gradientTransform="matrix(-.90625105 -1.50000011 1.24999581 -.75520662 15.612 13.8607)" gradientUnits="userSpaceOnUse" r="1"><stop offset="0" stop-color="#ef9e28"/><stop offset="1" stop-color="#ef9e28" stop-opacity="0"/></radialGradient><radialGradient id="X" cx="0" cy="0" gradientTransform="matrix(-.49998382 -1.89062576 3.41696465 -.90363046 24.9636 15.4935)" gradientUnits="userSpaceOnUse" r="1"><stop offset=".116896" stop-color="#cc8b40"/><stop offset="1" stop-color="#eda433" stop-opacity="0"/></radialGradient><radialGradient id="Y" cx="0" cy="0" gradientTransform="matrix(-3.34373944 1.4062654 -.90028557 -2.14064883 17.1979 9.79041)" gradientUnits="userSpaceOnUse" r="1"><stop offset=".381879" stop-color="#cf7600"/><stop offset="1" stop-color="#f4a71e" stop-opacity="0"/></radialGradient><radialGradient id="Z" cx="0" cy="0" gradientTransform="matrix(-2.24998228 1.98439405 -1.2066807 -1.36818098 13.6823 14.8998)" gradientUnits="userSpaceOnUse" r="1"><stop offset="0" stop-color="#d1791d"/><stop offset="1" stop-color="#eaa131" stop-opacity="0"/></radialGradient><linearGradient id="aa" gradientUnits="userSpaceOnUse" x1="17.3542" x2="17.3542" y1="18.0404" y2="16.3842"><stop offset=".113207" stop-color="#f1b331"/><stop offset="1" stop-color="#f1b331" stop-opacity="0"/></linearGradient><linearGradient id="ab"><stop offset="0" stop-color="#40b87c"/><stop offset="1" stop-color="#40b87c" stop-opacity="0"/></linearGradient><linearGradient id="ac" gradientUnits="userSpaceOnUse" x1="11.7675" x2="20.8746" xlink:href="#ab" y1="26.9699" y2="28.8125"/><linearGradient id="ad" gradientUnits="userSpaceOnUse" x1="10.518" x2="8.20325" y1="25.7629" y2="25.3905"><stop offset=".302384" stop-color="#40b87c"/><stop offset="1" stop-color="#40b87c" stop-opacity="0"/></linearGradient><linearGradient id="ae" gradientUnits="userSpaceOnUse" x1="14.0125" x2="13.4818" xlink:href="#ab" y1="24.1002" y2="26.2096"/><radialGradient id="af" cx="0" cy="0" gradientTransform="matrix(-1.17187246 -1.23437804 .56870521 -.53990751 16.8527 14.3842)" gradientUnits="userSpaceOnUse" r="1"><stop offset="0" stop-color="#9971db"/><stop offset="1" stop-color="#8c60d5" stop-opacity="0"/></radialGradient><radialGradient id="ag" cx="0" cy="0" gradientTransform="matrix(0 2.26562 -.576172 0 17.4132 13.306)" gradientUnits="userSpaceOnUse" r="1"><stop offset=".234848" stop-color="#8451b2"/><stop offset="1" stop-color="#8d61d6" stop-opacity="0"/></radialGradient><radialGradient id="ah" cx="0" cy="0" gradientTransform="matrix(-1.47070713 1.41405763 -.31529029 -.32792135 21.1359 13.1498)" gradientUnits="userSpaceOnUse" r="1"><stop offset="0" stop-color="#9f7ada"/><stop offset="1" stop-color="#9f7ada" stop-opacity="0"/></radialGradient><radialGradient id="ai" cx="0" cy="0" gradientTransform="matrix(-.8176636 1.38905963 -1.08860013 -.64079949 21.0807 6.78262)" gradientUnits="userSpaceOnUse" r="1"><stop offset=".301454" stop-color="#fdc240"/><stop offset="1" stop-color="#eeaa2e"/></radialGradient><radialGradient id="aj" cx="0" cy="0" gradientTransform="matrix(-3.03126192 1.72423647 -2.4057206 -4.22933245 18.5729 7.535)" gradientUnits="userSpaceOnUse" r="1"><stop offset="0" stop-color="#ffcc2e"/><stop offset="1" stop-color="#f4aa35"/></radialGradient><radialGradient id="ak" cx="0" cy="0" gradientTransform="matrix(-.44373761 4.5833197 -6.04539346 -.5852894 17.8542 6.16552)" gradientUnits="userSpaceOnUse" r="1"><stop offset=".575925" stop-color="#fcae2e" stop-opacity="0"/><stop offset="1" stop-color="#de8a27"/></radialGradient><radialGradient id="al" cx="0" cy="0" gradientTransform="matrix(-1.18749962 .78125844 -1.24325317 -1.8897238 20.0417 5.16552)" gradientUnits="userSpaceOnUse" r="1"><stop offset="0" stop-color="#cc972e"/><stop offset="1" stop-color="#cc972e" stop-opacity="0"/></radialGradient><radialGradient id="am" cx="0" cy="0" gradientTransform="matrix(.90625119 3.21383962 -5.06449928 1.42810751 16.1667 4.32117)" gradientUnits="userSpaceOnUse" r="1"><stop offset="0" stop-color="#f39c22"/><stop offset="1" stop-color="#f39c22" stop-opacity="0"/></radialGradient><radialGradient id="an" cx="0" cy="0" gradientTransform="matrix(.59375007 1.01562565 -1.67561614 .97959045 15.7292 4.21239)" gradientUnits="userSpaceOnUse" r="1"><stop offset="0" stop-color="#d26d02"/><stop offset="1" stop-color="#f4a128" stop-opacity="0"/></radialGradient><linearGradient id="ao" gradientUnits="userSpaceOnUse" x1="17.8735" x2="17.0024" y1="7.80608" y2="7.81389"><stop offset=".257113" stop-color="#ffcb3a"/><stop offset="1" stop-color="#ffb42a" stop-opacity="0"/></linearGradient><radialGradient id="ap" cx="0" cy="0" gradientTransform="matrix(0 -.392632 1.04529 0 17.4103 8.42528)" gradientUnits="userSpaceOnUse" r="1"><stop offset=".243886" stop-color="#f6a934"/><stop offset="1" stop-color="#f6a934" stop-opacity="0"/></radialGradient><linearGradient id="aq" gradientUnits="userSpaceOnUse" x1="17.4517" x2="17.4517" y1="8.45452" y2="8.27483"><stop offset="0" stop-color="#e39229"/><stop offset="1" stop-color="#f8ab33" stop-opacity="0"/></linearGradient><linearGradient id="ar" gradientUnits="userSpaceOnUse" x1="16.9796" x2="17.247" y1="9.3524" y2="8.83733"><stop offset="0" stop-color="#feac35"/><stop offset="1" stop-color="#feac35" stop-opacity="0"/></linearGradient><linearGradient id="as"><stop offset=".80198" stop-color="#925c51"/><stop offset="1" stop-color="#694b43"/><stop offset="1" stop-color="#804d49"/><stop offset="1" stop-color="#85534d"/></linearGradient><radialGradient id="at" cx="0" cy="0" gradientTransform="matrix(0 .479449 -.762617 0 18.6999 6.86796)" gradientUnits="userSpaceOnUse" r="1" xlink:href="#as"/><linearGradient id="au"><stop offset=".765532" stop-color="#ffe6e2" stop-opacity="0"/><stop offset=".966159" stop-color="#ffe6e2"/></linearGradient><radialGradient id="av" cx="0" cy="0" gradientTransform="matrix(-.13647117 -.17586151 .24211946 -.18788834 18.5638 6.9173)" gradientUnits="userSpaceOnUse" r="1" xlink:href="#au"/><linearGradient id="aw"><stop offset="0" stop-color="#b4948d"/><stop offset="1" stop-color="#b4948d" stop-opacity="0"/></linearGradient><linearGradient id="ax" gradientUnits="userSpaceOnUse" x1="19.1584" x2="18.9737" xlink:href="#aw" y1="6.89931" y2="7.01307"/><radialGradient id="ay" cx="0" cy="0" gradientTransform="matrix(0 .479452 -.762622 0 16.121 6.86796)" gradientUnits="userSpaceOnUse" r="1" xlink:href="#as"/><linearGradient id="az" gradientUnits="userSpaceOnUse" x1="16.5591" x2="16.3745" xlink:href="#aw" y1="6.89901" y2="7.01277"/><radialGradient id="aA" cx="0" cy="0" gradientTransform="matrix(-.00455192 -.29072937 .34946817 -.00547158 15.9505 6.99679)" gradientUnits="userSpaceOnUse" r="1" xlink:href="#au"/><radialGradient id="aB" cx="0" cy="0" gradientTransform="matrix(-1.98436958 1.60937813 -.62216383 -.76713046 15.5886 4.08724)" gradientUnits="userSpaceOnUse" r="1"><stop offset=".0960263" stop-color="#ffbc29"/><stop offset=".769744" stop-color="#ffbc29" stop-opacity="0"/></radialGradient><radialGradient id="aC" cx="0" cy="0" gradientTransform="matrix(-.57032326 -1.6718695 3.3271478 -1.13498678 15.7136 4.96224)" gradientUnits="userSpaceOnUse" r="1"><stop offset=".810465" stop-color="#d1a839" stop-opacity="0"/><stop offset="1" stop-color="#d1a839"/></radialGradient><radialGradient id="aD" cx="0" cy="0" gradientTransform="matrix(-3.46874584 .08792441 -.0426334 -1.68194976 19.7604 4.13789)" gradientUnits="userSpaceOnUse" r="1"><stop offset="0" stop-color="#ffda35"/><stop offset="1" stop-color="#feb421"/></radialGradient><radialGradient id="aE" cx="0" cy="0" gradientTransform="matrix(-.88281608 -.8203059 .46947487 -.50525049 20.2916 4.74364)" gradientUnits="userSpaceOnUse" r="1"><stop offset=".192286" stop-color="#c8a328"/><stop offset="1" stop-color="#ffd833" stop-opacity="0"/></radialGradient><linearGradient id="aF" gradientUnits="userSpaceOnUse" x1="19.026" x2="19.026" y1="5.52489" y2="5.00926"><stop offset="0" stop-color="#ba710f"/><stop offset="1" stop-color="#ee9d23" stop-opacity="0"/></linearGradient><radialGradient id="aG" cx="0" cy="0" gradientTransform="matrix(.74219048 .69531477 -.4767235 .50886254 20.1198 5.36864)" gradientUnits="userSpaceOnUse" r="1"><stop offset="0" stop-color="#b06f20"/><stop offset="1" stop-color="#eea223" stop-opacity="0"/></radialGradient><radialGradient id="aH" cx="0" cy="0" gradientTransform="matrix(-.20312235 -2.93749561 6.4612513 -.4467835 17.1198 5.35301)" gradientUnits="userSpaceOnUse" r="1"><stop offset=".690473" stop-color="#cea639" stop-opacity="0"/><stop offset="1" stop-color="#cea639"/></radialGradient><radialGradient id="aI" cx="0" cy="0" gradientTransform="matrix(.20312511 1.2421919 -.56550429 .09247212 21.0261 3.80608)" gradientUnits="userSpaceOnUse" r="1"><stop offset="0" stop-color="#49c4fa"/><stop offset="1" stop-color="#34affa" stop-opacity="0"/></radialGradient><radialGradient id="aJ" cx="0" cy="0" gradientTransform="matrix(-1.1165716 .31250878 -.0973702 -.34789678 22.3458 4.68108)" gradientUnits="userSpaceOnUse" r="1"><stop offset="0" stop-color="#45c0ff"/><stop offset="1" stop-color="#45c0ff" stop-opacity="0"/></radialGradient><radialGradient id="aK" cx="0" cy="0" gradientTransform="matrix(-.59374866 -1.38765988 .70345213 -.30099145 21.9323 6.49358)" gradientUnits="userSpaceOnUse" r="1"><stop offset="0" stop-color="#45beff"/><stop offset="1" stop-color="#45beff" stop-opacity="0"/></radialGradient><g filter="url(#a)"><path d="m9.90918 15.7435c1.81252 1.575 4.20312 1.2136 5.17192.875v-4.625h7.2343c.5166-1.3265.1559-2.45253-.2361-3.06678-.0457-.07165-.0572-.1604-.0292-.24064.0821-.23492.1925-.61488.2067-.91521.0313-.66015-.1718-.70703-.1914-1.61328-.0195-.90625-.3068-1.24098-.7812-2.01562-.3828-.625-1.3708-1.03092-1.9727-1.26953-.6601-.26172-.8945-.75782-1.8906-.75782-.7693 0-1.2765.39053-1.6256.72889-.1308.12679-.2991.2068-.4797.23087-1.2234.16304-2.2666.73441-2.8439 1.80196-.3382.6253-.3685 1.60796-.3645 2.28171.0015.24875-.1784.45865-.421.51342-1.5284.34495-2.64934 1.22949-3.17936 2.23222-.57812 1.09371-.86328 3.87111 1.40234 5.83981z" fill="url(#F)"/><path d="m9.90918 15.7435c1.81252 1.575 4.20312 1.2136 5.17192.875v-4.625h7.2343c.5166-1.3265.1559-2.45253-.2361-3.06678-.0457-.07165-.0572-.1604-.0292-.24064.0821-.23492.1925-.61488.2067-.91521.0313-.66015-.1718-.70703-.1914-1.61328-.0195-.90625-.3068-1.24098-.7812-2.01562-.3828-.625-1.3708-1.03092-1.9727-1.26953-.6601-.26172-.8945-.75782-1.8906-.75782-.7693 0-1.2765.39053-1.6256.72889-.1308.12679-.2991.2068-.4797.23087-1.2234.16304-2.2666.73441-2.8439 1.80196-.3382.6253-.3685 1.60796-.3645 2.28171.0015.24875-.1784.45865-.421.51342-1.5284.34495-2.64934 1.22949-3.17936 2.23222-.57812 1.09371-.86328 3.87111 1.40234 5.83981z" fill="url(#G)"/><path d="m9.90918 15.7435c1.81252 1.575 4.20312 1.2136 5.17192.875v-4.625h7.2343c.5166-1.3265.1559-2.45253-.2361-3.06678-.0457-.07165-.0572-.1604-.0292-.24064.0821-.23492.1925-.61488.2067-.91521.0313-.66015-.1718-.70703-.1914-1.61328-.0195-.90625-.3068-1.24098-.7812-2.01562-.3828-.625-1.3708-1.03092-1.9727-1.26953-.6601-.26172-.8945-.75782-1.8906-.75782-.7693 0-1.2765.39053-1.6256.72889-.1308.12679-.2991.2068-.4797.23087-1.2234.16304-2.2666.73441-2.8439 1.80196-.3382.6253-.3685 1.60796-.3645 2.28171.0015.24875-.1784.45865-.421.51342-1.5284.34495-2.64934 1.22949-3.17936 2.23222-.57812 1.09371-.86328 3.87111 1.40234 5.83981z" fill="url(#H)"/><path d="m9.90918 15.7435c1.81252 1.575 4.20312 1.2136 5.17192.875v-4.625h7.2343c.5166-1.3265.1559-2.45253-.2361-3.06678-.0457-.07165-.0572-.1604-.0292-.24064.0821-.23492.1925-.61488.2067-.91521.0313-.66015-.1718-.70703-.1914-1.61328-.0195-.90625-.3068-1.24098-.7812-2.01562-.3828-.625-1.3708-1.03092-1.9727-1.26953-.6601-.26172-.8945-.75782-1.8906-.75782-.7693 0-1.2765.39053-1.6256.72889-.1308.12679-.2991.2068-.4797.23087-1.2234.16304-2.2666.73441-2.8439 1.80196-.3382.6253-.3685 1.60796-.3645 2.28171.0015.24875-.1784.45865-.421.51342-1.5284.34495-2.64934 1.22949-3.17936 2.23222-.57812 1.09371-.86328 3.87111 1.40234 5.83981z" fill="url(#I)"/><path d="m9.90918 15.7435c1.81252 1.575 4.20312 1.2136 5.17192.875v-4.625h7.2343c.5166-1.3265.1559-2.45253-.2361-3.06678-.0457-.07165-.0572-.1604-.0292-.24064.0821-.23492.1925-.61488.2067-.91521.0313-.66015-.1718-.70703-.1914-1.61328-.0195-.90625-.3068-1.24098-.7812-2.01562-.3828-.625-1.3708-1.03092-1.9727-1.26953-.6601-.26172-.8945-.75782-1.8906-.75782-.7693 0-1.2765.39053-1.6256.72889-.1308.12679-.2991.2068-.4797.23087-1.2234.16304-2.2666.73441-2.8439 1.80196-.3382.6253-.3685 1.60796-.3645 2.28171.0015.24875-.1784.45865-.421.51342-1.5284.34495-2.64934 1.22949-3.17936 2.23222-.57812 1.09371-.86328 3.87111 1.40234 5.83981z" fill="url(#J)"/><path d="m9.90918 15.7435c1.81252 1.575 4.20312 1.2136 5.17192.875v-4.625h7.2343c.5166-1.3265.1559-2.45253-.2361-3.06678-.0457-.07165-.0572-.1604-.0292-.24064.0821-.23492.1925-.61488.2067-.91521.0313-.66015-.1718-.70703-.1914-1.61328-.0195-.90625-.3068-1.24098-.7812-2.01562-.3828-.625-1.3708-1.03092-1.9727-1.26953-.6601-.26172-.8945-.75782-1.8906-.75782-.7693 0-1.2765.39053-1.6256.72889-.1308.12679-.2991.2068-.4797.23087-1.2234.16304-2.2666.73441-2.8439 1.80196-.3382.6253-.3685 1.60796-.3645 2.28171.0015.24875-.1784.45865-.421.51342-1.5284.34495-2.64934 1.22949-3.17936 2.23222-.57812 1.09371-.86328 3.87111 1.40234 5.83981z" fill="url(#K)"/><path d="m9.90918 15.7435c1.81252 1.575 4.20312 1.2136 5.17192.875v-4.625h7.2343c.5166-1.3265.1559-2.45253-.2361-3.06678-.0457-.07165-.0572-.1604-.0292-.24064.0821-.23492.1925-.61488.2067-.91521.0313-.66015-.1718-.70703-.1914-1.61328-.0195-.90625-.3068-1.24098-.7812-2.01562-.3828-.625-1.3708-1.03092-1.9727-1.26953-.6601-.26172-.8945-.75782-1.8906-.75782-.7693 0-1.2765.39053-1.6256.72889-.1308.12679-.2991.2068-.4797.23087-1.2234.16304-2.2666.73441-2.8439 1.80196-.3382.6253-.3685 1.60796-.3645 2.28171.0015.24875-.1784.45865-.421.51342-1.5284.34495-2.64934 1.22949-3.17936 2.23222-.57812 1.09371-.86328 3.87111 1.40234 5.83981z" fill="url(#L)"/><path d="m9.90918 15.7435c1.81252 1.575 4.20312 1.2136 5.17192.875v-4.625h7.2343c.5166-1.3265.1559-2.45253-.2361-3.06678-.0457-.07165-.0572-.1604-.0292-.24064.0821-.23492.1925-.61488.2067-.91521.0313-.66015-.1718-.70703-.1914-1.61328-.0195-.90625-.3068-1.24098-.7812-2.01562-.3828-.625-1.3708-1.03092-1.9727-1.26953-.6601-.26172-.8945-.75782-1.8906-.75782-.7693 0-1.2765.39053-1.6256.72889-.1308.12679-.2991.2068-.4797.23087-1.2234.16304-2.2666.73441-2.8439 1.80196-.3382.6253-.3685 1.60796-.3645 2.28171.0015.24875-.1784.45865-.421.51342-1.5284.34495-2.64934 1.22949-3.17936 2.23222-.57812 1.09371-.86328 3.87111 1.40234 5.83981z" fill="url(#M)"/></g><g filter="url(#b)"><path d="m13.3562 19.0912c0-1.425.7591-2.1016 1.1602-2.2422l5.66-.3398c1.6094.7187 2.9532 2.7812 3.1407 5.2812s-.2031 4.9531-2.2656 6.5625c-1.65 1.2875-3.9584 1.5521-4.9376 1.5313h-2.4725c-2.625 0-3.2462-1.8907-3.3556-2.2969-.0588-.2186-.1316-.4412-.184-.5984-.0377-.113-.113-.2107-.2212-.2606-.52773-.243-1.52067-.4853-1.9463-1.3871-.29156-.6178-.32286-1.2078-.27992-1.6298.02173-.2135.23127-.3444.44049-.2965.51959.1188.95044.2524 1.56986.5669.59847.3331 1.00447.8343 1.23717 1.2266.0651.1097.2379.1116.3037.0024.2062-.342.5614-.8181 1.0451-1.1196.6823-.4253 1.3501-.6157 1.846-.6783.2072-.0261.3831.1359.3874.3447.0367 1.7658-.7477 2.2752-1.1982 2.5133-.2879.1314-.6199.2774-.8655.388-.1394.0628-.2087.2233-.1408.3602.4742.9561 1.4682.869 2.8579.869 1.8515 0 2.9609-1.3243 2.8437-2.7227-.0625-1.8125-1.5625-2.5156-2.5703-3.1484-.5232-.3285-2.0547-1.1446-2.0547-2.9258z" fill="#35bb78"/></g><path d="m13.3562 19.0912c0-1.425.7591-2.1016 1.1602-2.2422l5.66-.3398c1.6094.7187 2.9532 2.7812 3.1407 5.2812s-.2031 4.9531-2.2656 6.5625c-1.65 1.2875-3.9584 1.5521-4.9376 1.5313h-2.4725c-2.625 0-3.2462-1.8907-3.3556-2.2969-.0588-.2186-.1316-.4412-.184-.5984-.0377-.113-.113-.2107-.2212-.2606-.52773-.243-1.52067-.4853-1.9463-1.3871-.29156-.6178-.32286-1.2078-.27992-1.6298.02173-.2135.23127-.3444.44049-.2965.51959.1188.95044.2524 1.56986.5669.59847.3331 1.00447.8343 1.23717 1.2266.0651.1097.2379.1116.3037.0024.2062-.342.5614-.8181 1.0451-1.1196.6823-.4253 1.3501-.6157 1.846-.6783.2072-.0261.3831.1359.3874.3447.0367 1.7658-.7477 2.2752-1.1982 2.5133-.2879.1314-.6199.2774-.8655.388-.1394.0628-.2087.2233-.1408.3602.4742.9561 1.4682.869 2.8579.869 1.8515 0 2.9609-1.3243 2.8437-2.7227-.0625-1.8125-1.5625-2.5156-2.5703-3.1484-.5232-.3285-2.0547-1.1446-2.0547-2.9258z" fill="url(#N)"/><g filter="url(#c)"><path d="m21.317 26.6654c0-5.3437-3.9219-7.9687-5.2344-9l3.25-1.4531c1.125.5208 3.035 2.3577 3.4532 5.1094.4843 3.1875-.9271 4.927-1.4688 5.3437z" fill="url(#O)"/></g><path d="m6.76233 16.0424c0-.2686.21774-.4864.48633-.4864s.48633.2178.48633.4864v.7747c0 .2686-.21774.4863-.48633.4863s-.48633-.2177-.48633-.4863z" fill="url(#P)"/><g filter="url(#d)"><path d="m25.6831 7.95056h-.0028c-.2934 0-.5313.23785-.5313.53125v.50046c0 .13964-.1396.23371-.2556.15592-.0935-.06272-.1736-.13308-.2387-.20012-.1249-.12857-.1697-.30862-.1697-.48782v-.54614l.5594-.55802c.172-.17156.4505-.1712.6221.00079.1656.16599.171.43116.0166.60368z" fill="url(#Q)"/></g><g filter="url(#e)"><path d="m20.7256 13.688v3.4212c0 .3589-.291.65-.65.65h-5.3249c-.359 0-.6501-.2911-.6501-.65v-2.75l-1.9531 1.6972c-.4549.3953-1.0372.6129-1.6398.6129h-1.839l-.61285.5264c-.2143.184-.53547.1666-.72858-.0396-.19495-.2081-.18927-.5334.01288-.7345l.31677-.3152c.04565-.0454.03632-.1216-.01886-.1547l-.01801-.0108c-.15417-.0925-.35192-.0656-.47576.0647l-.55402.5831c-.19568.206-.51965.2192-.73151.0299-.21545-.1925-.23529-.5227-.04443-.7395l.75458-.8574c.15979-.1816.38122-.2975.62152-.3253l3.06837-.3558c.1064-.0123.206-.0584.2842-.1316l3.2468-3.0397c.8891-.8895 2.5711-.9805 3.7347-.9805 1.4954 0 2.5328.2344 3.2011.5743l2.8617 1.4729c.1264.0651.2789-.0185.2928-.16.0489-.4997.1316-1.2712.197-1.8526.0061-.0546-.0105-.1091-.0458-.1511l-.3738-.44419c-.1517-.18027-.2349-.4083-.2349-.64391v-1.20161c0-.2934.2379-.53125.5313-.53125s.5312.23785.5312.53125v.66767c0 .17919.0449.35925.1697.48782.0651.06703.1452.1374.2388.20011.1159.07779.2556-.01627.2556-.15592v-.50046c0-.2934.2378-.53125.5312-.53125s.5313.23785.5313.53125v1.39063c.0052.20876.0103.44566.0158.70226.0183.8461.0412 1.907.0871 2.8835.0301.6392-.2628 1.2547-.7897 1.6178-.5443.3752-1.2505.4218-1.8395.1214z" fill="url(#R)"/><path d="m20.7256 13.688v3.4212c0 .3589-.291.65-.65.65h-5.3249c-.359 0-.6501-.2911-.6501-.65v-2.75l-1.9531 1.6972c-.4549.3953-1.0372.6129-1.6398.6129h-1.839l-.61285.5264c-.2143.184-.53547.1666-.72858-.0396-.19495-.2081-.18927-.5334.01288-.7345l.31677-.3152c.04565-.0454.03632-.1216-.01886-.1547l-.01801-.0108c-.15417-.0925-.35192-.0656-.47576.0647l-.55402.5831c-.19568.206-.51965.2192-.73151.0299-.21545-.1925-.23529-.5227-.04443-.7395l.75458-.8574c.15979-.1816.38122-.2975.62152-.3253l3.06837-.3558c.1064-.0123.206-.0584.2842-.1316l3.2468-3.0397c.8891-.8895 2.5711-.9805 3.7347-.9805 1.4954 0 2.5328.2344 3.2011.5743l2.8617 1.4729c.1264.0651.2789-.0185.2928-.16.0489-.4997.1316-1.2712.197-1.8526.0061-.0546-.0105-.1091-.0458-.1511l-.3738-.44419c-.1517-.18027-.2349-.4083-.2349-.64391v-1.20161c0-.2934.2379-.53125.5313-.53125s.5312.23785.5312.53125v.66767c0 .17919.0449.35925.1697.48782.0651.06703.1452.1374.2388.20011.1159.07779.2556-.01627.2556-.15592v-.50046c0-.2934.2378-.53125.5312-.53125s.5313.23785.5313.53125v1.39063c.0052.20876.0103.44566.0158.70226.0183.8461.0412 1.907.0871 2.8835.0301.6392-.2628 1.2547-.7897 1.6178-.5443.3752-1.2505.4218-1.8395.1214z" fill="url(#S)"/><path d="m20.7256 13.688v3.4212c0 .3589-.291.65-.65.65h-5.3249c-.359 0-.6501-.2911-.6501-.65v-2.75l-1.9531 1.6972c-.4549.3953-1.0372.6129-1.6398.6129h-1.839l-.61285.5264c-.2143.184-.53547.1666-.72858-.0396-.19495-.2081-.18927-.5334.01288-.7345l.31677-.3152c.04565-.0454.03632-.1216-.01886-.1547l-.01801-.0108c-.15417-.0925-.35192-.0656-.47576.0647l-.55402.5831c-.19568.206-.51965.2192-.73151.0299-.21545-.1925-.23529-.5227-.04443-.7395l.75458-.8574c.15979-.1816.38122-.2975.62152-.3253l3.06837-.3558c.1064-.0123.206-.0584.2842-.1316l3.2468-3.0397c.8891-.8895 2.5711-.9805 3.7347-.9805 1.4954 0 2.5328.2344 3.2011.5743l2.8617 1.4729c.1264.0651.2789-.0185.2928-.16.0489-.4997.1316-1.2712.197-1.8526.0061-.0546-.0105-.1091-.0458-.1511l-.3738-.44419c-.1517-.18027-.2349-.4083-.2349-.64391v-1.20161c0-.2934.2379-.53125.5313-.53125s.5312.23785.5312.53125v.66767c0 .17919.0449.35925.1697.48782.0651.06703.1452.1374.2388.20011.1159.07779.2556-.01627.2556-.15592v-.50046c0-.2934.2378-.53125.5312-.53125s.5313.23785.5313.53125v1.39063c.0052.20876.0103.44566.0158.70226.0183.8461.0412 1.907.0871 2.8835.0301.6392-.2628 1.2547-.7897 1.6178-.5443.3752-1.2505.4218-1.8395.1214z" fill="url(#T)"/><path d="m20.7256 13.688v3.4212c0 .3589-.291.65-.65.65h-5.3249c-.359 0-.6501-.2911-.6501-.65v-2.75l-1.9531 1.6972c-.4549.3953-1.0372.6129-1.6398.6129h-1.839l-.61285.5264c-.2143.184-.53547.1666-.72858-.0396-.19495-.2081-.18927-.5334.01288-.7345l.31677-.3152c.04565-.0454.03632-.1216-.01886-.1547l-.01801-.0108c-.15417-.0925-.35192-.0656-.47576.0647l-.55402.5831c-.19568.206-.51965.2192-.73151.0299-.21545-.1925-.23529-.5227-.04443-.7395l.75458-.8574c.15979-.1816.38122-.2975.62152-.3253l3.06837-.3558c.1064-.0123.206-.0584.2842-.1316l3.2468-3.0397c.8891-.8895 2.5711-.9805 3.7347-.9805 1.4954 0 2.5328.2344 3.2011.5743l2.8617 1.4729c.1264.0651.2789-.0185.2928-.16.0489-.4997.1316-1.2712.197-1.8526.0061-.0546-.0105-.1091-.0458-.1511l-.3738-.44419c-.1517-.18027-.2349-.4083-.2349-.64391v-1.20161c0-.2934.2379-.53125.5313-.53125s.5312.23785.5312.53125v.66767c0 .17919.0449.35925.1697.48782.0651.06703.1452.1374.2388.20011.1159.07779.2556-.01627.2556-.15592v-.50046c0-.2934.2378-.53125.5312-.53125s.5313.23785.5313.53125v1.39063c.0052.20876.0103.44566.0158.70226.0183.8461.0412 1.907.0871 2.8835.0301.6392-.2628 1.2547-.7897 1.6178-.5443.3752-1.2505.4218-1.8395.1214z" fill="url(#U)"/><path d="m20.7256 13.688v3.4212c0 .3589-.291.65-.65.65h-5.3249c-.359 0-.6501-.2911-.6501-.65v-2.75l-1.9531 1.6972c-.4549.3953-1.0372.6129-1.6398.6129h-1.839l-.61285.5264c-.2143.184-.53547.1666-.72858-.0396-.19495-.2081-.18927-.5334.01288-.7345l.31677-.3152c.04565-.0454.03632-.1216-.01886-.1547l-.01801-.0108c-.15417-.0925-.35192-.0656-.47576.0647l-.55402.5831c-.19568.206-.51965.2192-.73151.0299-.21545-.1925-.23529-.5227-.04443-.7395l.75458-.8574c.15979-.1816.38122-.2975.62152-.3253l3.06837-.3558c.1064-.0123.206-.0584.2842-.1316l3.2468-3.0397c.8891-.8895 2.5711-.9805 3.7347-.9805 1.4954 0 2.5328.2344 3.2011.5743l2.8617 1.4729c.1264.0651.2789-.0185.2928-.16.0489-.4997.1316-1.2712.197-1.8526.0061-.0546-.0105-.1091-.0458-.1511l-.3738-.44419c-.1517-.18027-.2349-.4083-.2349-.64391v-1.20161c0-.2934.2379-.53125.5313-.53125s.5312.23785.5312.53125v.66767c0 .17919.0449.35925.1697.48782.0651.06703.1452.1374.2388.20011.1159.07779.2556-.01627.2556-.15592v-.50046c0-.2934.2378-.53125.5312-.53125s.5313.23785.5313.53125v1.39063c.0052.20876.0103.44566.0158.70226.0183.8461.0412 1.907.0871 2.8835.0301.6392-.2628 1.2547-.7897 1.6178-.5443.3752-1.2505.4218-1.8395.1214z" fill="url(#V)"/><path d="m20.7256 13.688v3.4212c0 .3589-.291.65-.65.65h-5.3249c-.359 0-.6501-.2911-.6501-.65v-2.75l-1.9531 1.6972c-.4549.3953-1.0372.6129-1.6398.6129h-1.839l-.61285.5264c-.2143.184-.53547.1666-.72858-.0396-.19495-.2081-.18927-.5334.01288-.7345l.31677-.3152c.04565-.0454.03632-.1216-.01886-.1547l-.01801-.0108c-.15417-.0925-.35192-.0656-.47576.0647l-.55402.5831c-.19568.206-.51965.2192-.73151.0299-.21545-.1925-.23529-.5227-.04443-.7395l.75458-.8574c.15979-.1816.38122-.2975.62152-.3253l3.06837-.3558c.1064-.0123.206-.0584.2842-.1316l3.2468-3.0397c.8891-.8895 2.5711-.9805 3.7347-.9805 1.4954 0 2.5328.2344 3.2011.5743l2.8617 1.4729c.1264.0651.2789-.0185.2928-.16.0489-.4997.1316-1.2712.197-1.8526.0061-.0546-.0105-.1091-.0458-.1511l-.3738-.44419c-.1517-.18027-.2349-.4083-.2349-.64391v-1.20161c0-.2934.2379-.53125.5313-.53125s.5312.23785.5312.53125v.66767c0 .17919.0449.35925.1697.48782.0651.06703.1452.1374.2388.20011.1159.07779.2556-.01627.2556-.15592v-.50046c0-.2934.2378-.53125.5312-.53125s.5313.23785.5313.53125v1.39063c.0052.20876.0103.44566.0158.70226.0183.8461.0412 1.907.0871 2.8835.0301.6392-.2628 1.2547-.7897 1.6178-.5443.3752-1.2505.4218-1.8395.1214z" fill="url(#W)"/><path d="m20.7256 13.688v3.4212c0 .3589-.291.65-.65.65h-5.3249c-.359 0-.6501-.2911-.6501-.65v-2.75l-1.9531 1.6972c-.4549.3953-1.0372.6129-1.6398.6129h-1.839l-.61285.5264c-.2143.184-.53547.1666-.72858-.0396-.19495-.2081-.18927-.5334.01288-.7345l.31677-.3152c.04565-.0454.03632-.1216-.01886-.1547l-.01801-.0108c-.15417-.0925-.35192-.0656-.47576.0647l-.55402.5831c-.19568.206-.51965.2192-.73151.0299-.21545-.1925-.23529-.5227-.04443-.7395l.75458-.8574c.15979-.1816.38122-.2975.62152-.3253l3.06837-.3558c.1064-.0123.206-.0584.2842-.1316l3.2468-3.0397c.8891-.8895 2.5711-.9805 3.7347-.9805 1.4954 0 2.5328.2344 3.2011.5743l2.8617 1.4729c.1264.0651.2789-.0185.2928-.16.0489-.4997.1316-1.2712.197-1.8526.0061-.0546-.0105-.1091-.0458-.1511l-.3738-.44419c-.1517-.18027-.2349-.4083-.2349-.64391v-1.20161c0-.2934.2379-.53125.5313-.53125s.5312.23785.5312.53125v.66767c0 .17919.0449.35925.1697.48782.0651.06703.1452.1374.2388.20011.1159.07779.2556-.01627.2556-.15592v-.50046c0-.2934.2378-.53125.5312-.53125s.5313.23785.5313.53125v1.39063c.0052.20876.0103.44566.0158.70226.0183.8461.0412 1.907.0871 2.8835.0301.6392-.2628 1.2547-.7897 1.6178-.5443.3752-1.2505.4218-1.8395.1214z" fill="url(#X)"/><path d="m20.7256 13.688v3.4212c0 .3589-.291.65-.65.65h-5.3249c-.359 0-.6501-.2911-.6501-.65v-2.75l-1.9531 1.6972c-.4549.3953-1.0372.6129-1.6398.6129h-1.839l-.61285.5264c-.2143.184-.53547.1666-.72858-.0396-.19495-.2081-.18927-.5334.01288-.7345l.31677-.3152c.04565-.0454.03632-.1216-.01886-.1547l-.01801-.0108c-.15417-.0925-.35192-.0656-.47576.0647l-.55402.5831c-.19568.206-.51965.2192-.73151.0299-.21545-.1925-.23529-.5227-.04443-.7395l.75458-.8574c.15979-.1816.38122-.2975.62152-.3253l3.06837-.3558c.1064-.0123.206-.0584.2842-.1316l3.2468-3.0397c.8891-.8895 2.5711-.9805 3.7347-.9805 1.4954 0 2.5328.2344 3.2011.5743l2.8617 1.4729c.1264.0651.2789-.0185.2928-.16.0489-.4997.1316-1.2712.197-1.8526.0061-.0546-.0105-.1091-.0458-.1511l-.3738-.44419c-.1517-.18027-.2349-.4083-.2349-.64391v-1.20161c0-.2934.2379-.53125.5313-.53125s.5312.23785.5312.53125v.66767c0 .17919.0449.35925.1697.48782.0651.06703.1452.1374.2388.20011.1159.07779.2556-.01627.2556-.15592v-.50046c0-.2934.2378-.53125.5312-.53125s.5313.23785.5313.53125v1.39063c.0052.20876.0103.44566.0158.70226.0183.8461.0412 1.907.0871 2.8835.0301.6392-.2628 1.2547-.7897 1.6178-.5443.3752-1.2505.4218-1.8395.1214z" fill="url(#Y)"/><path d="m20.7256 13.688v3.4212c0 .3589-.291.65-.65.65h-5.3249c-.359 0-.6501-.2911-.6501-.65v-2.75l-1.9531 1.6972c-.4549.3953-1.0372.6129-1.6398.6129h-1.839l-.61285.5264c-.2143.184-.53547.1666-.72858-.0396-.19495-.2081-.18927-.5334.01288-.7345l.31677-.3152c.04565-.0454.03632-.1216-.01886-.1547l-.01801-.0108c-.15417-.0925-.35192-.0656-.47576.0647l-.55402.5831c-.19568.206-.51965.2192-.73151.0299-.21545-.1925-.23529-.5227-.04443-.7395l.75458-.8574c.15979-.1816.38122-.2975.62152-.3253l3.06837-.3558c.1064-.0123.206-.0584.2842-.1316l3.2468-3.0397c.8891-.8895 2.5711-.9805 3.7347-.9805 1.4954 0 2.5328.2344 3.2011.5743l2.8617 1.4729c.1264.0651.2789-.0185.2928-.16.0489-.4997.1316-1.2712.197-1.8526.0061-.0546-.0105-.1091-.0458-.1511l-.3738-.44419c-.1517-.18027-.2349-.4083-.2349-.64391v-1.20161c0-.2934.2379-.53125.5313-.53125s.5312.23785.5312.53125v.66767c0 .17919.0449.35925.1697.48782.0651.06703.1452.1374.2388.20011.1159.07779.2556-.01627.2556-.15592v-.50046c0-.2934.2378-.53125.5312-.53125s.5313.23785.5313.53125v1.39063c.0052.20876.0103.44566.0158.70226.0183.8461.0412 1.907.0871 2.8835.0301.6392-.2628 1.2547-.7897 1.6178-.5443.3752-1.2505.4218-1.8395.1214z" fill="url(#Z)"/></g><path d="m20.7256 13.688v3.4212c0 .3589-.291.65-.65.65h-5.3249c-.359 0-.6501-.2911-.6501-.65v-2.75l-1.9531 1.6972c-.4549.3953-1.0372.6129-1.6398.6129h-1.839l-.61285.5264c-.2143.184-.53547.1666-.72858-.0396-.19495-.2081-.18927-.5334.01288-.7345l.31677-.3152c.04565-.0454.03632-.1216-.01886-.1547l-.01801-.0108c-.15417-.0925-.35192-.0656-.47576.0647l-.55402.5831c-.19568.206-.51965.2192-.73151.0299-.21545-.1925-.23529-.5227-.04443-.7395l.75458-.8574c.15979-.1816.38122-.2975.62152-.3253l3.06837-.3558c.1064-.0123.206-.0584.2842-.1316l3.2468-3.0397c.8891-.8895 2.5711-.9805 3.7347-.9805 1.4954 0 2.5328.2344 3.2011.5743l2.8617 1.4729c.1264.0651.2789-.0185.2928-.16.0489-.4997.1316-1.2712.197-1.8526.0061-.0546-.0105-.1091-.0458-.1511l-.3738-.44419c-.1517-.18027-.2349-.4083-.2349-.64391v-1.20161c0-.2934.2379-.53125.5313-.53125s.5312.23785.5312.53125v.66767c0 .17919.0449.35925.1697.48782.0651.06703.1452.1374.2388.20011.1159.07779.2556-.01627.2556-.15592v-.50046c0-.2934.2378-.53125.5312-.53125s.5313.23785.5313.53125v1.39063c.0052.20876.0103.44566.0158.70226.0183.8461.0412 1.907.0871 2.8835.0301.6392-.2628 1.2547-.7897 1.6178-.5443.3752-1.2505.4218-1.8395.1214z" fill="url(#aa)"/><g filter="url(#f)"><path d="m11.4287 26.864c-.0071.6495.4362 1.9485 2.2661 1.9485h3.1769c1.0096-.0141 3.3167-.5168 4.4689-2.4144" stroke="url(#ac)" stroke-linecap="round" stroke-width=".4"/></g><g filter="url(#g)"><path d="m8.84485 24.4286c.40945.1624 1.40205.7836 2.09675 1.9697" stroke="url(#ad)" stroke-linecap="round" stroke-width=".4"/></g><g filter="url(#h)"><path d="m13.9913 23.9095c-.3071.353-1.1331 1.1014-1.885 1.8321" stroke="url(#ae)" stroke-linecap="round" stroke-width=".4"/></g><g filter="url(#i)"><path d="m14.7147 13.8373c-.1795 0-.3249.1454-.3249.3248v.9163c0 .5831.4727 1.0558 1.0558 1.0558h3.9351c.5831 0 1.0558-.4727 1.0558-1.0558v-.9163c0-.1794-.1454-.3248-.3249-.3248h-1.4961c-.5008 0-.9311.3022-1.1183.7343-.022.0507-.1461.0507-.1681 0-.1872-.4321-.6175-.7343-1.1183-.7343z" fill="#e5942b"/></g><g filter="url(#j)"><path d="m14.0906 13.1498c-.221 0-.4.1791-.4.4v1.1281c0 .718.582 1.3 1.2999 1.3h4.8454c.7179 0 1.3-.582 1.3-1.3v-1.1281c0-.2209-.1791-.4-.4001-.4h-1.8421c-.6167 0-1.1465.3721-1.377.9041-.0271.0625-.1799.0625-.207 0-.2305-.532-.7603-.9041-1.377-.9041z" fill="#8c60d5"/><path d="m14.0906 13.1498c-.221 0-.4.1791-.4.4v1.1281c0 .718.582 1.3 1.2999 1.3h4.8454c.7179 0 1.3-.582 1.3-1.3v-1.1281c0-.2209-.1791-.4-.4001-.4h-1.8421c-.6167 0-1.1465.3721-1.377.9041-.0271.0625-.1799.0625-.207 0-.2305-.532-.7603-.9041-1.377-.9041z" fill="url(#af)"/><path d="m14.0906 13.1498c-.221 0-.4.1791-.4.4v1.1281c0 .718.582 1.3 1.2999 1.3h4.8454c.7179 0 1.3-.582 1.3-1.3v-1.1281c0-.2209-.1791-.4-.4001-.4h-1.8421c-.6167 0-1.1465.3721-1.377.9041-.0271.0625-.1799.0625-.207 0-.2305-.532-.7603-.9041-1.377-.9041z" fill="url(#ag)"/><path d="m14.0906 13.1498c-.221 0-.4.1791-.4.4v1.1281c0 .718.582 1.3 1.2999 1.3h4.8454c.7179 0 1.3-.582 1.3-1.3v-1.1281c0-.2209-.1791-.4-.4001-.4h-1.8421c-.6167 0-1.1465.3721-1.377.9041-.0271.0625-.1799.0625-.207 0-.2305-.532-.7603-.9041-1.377-.9041z" fill="url(#ah)"/></g><g filter="url(#k)"><path d="m14.6414 8.17168c.5252 0 .9509-.42573.9509-.95089s-.4257-.95089-.9509-.95089c-.5251 0-.9508.42573-.9508.95089s.4257.95089.9508.95089z" fill="#eb9c2d"/></g><path d="m20.263 8.17168c.5252 0 .9509-.42573.9509-.95089s-.4257-.95089-.9509-.95089c-.5251 0-.9509.42573-.9509.95089s.4258.95089.9509.95089z" fill="url(#ai)"/><g filter="url(#l)"><path d="m20.263 7.85556c.3506 0 .6348-.28419.6348-.63475s-.2842-.63475-.6348-.63475c-.3505 0-.6347.28419-.6347.63475s.2842.63475.6347.63475z" fill="#efac26"/></g><g filter="url(#m)"><path d="m14.6529 7.85556c.3506 0 .6348-.28419.6348-.63475s-.2842-.63475-.6348-.63475c-.3505 0-.6347.28419-.6347.63475s.2842.63475.6347.63475z" fill="#e38d22"/></g><g filter="url(#n)"><path d="m14.4041 6.47469h.0073l-.006-.15676-.0061-.18089c.0121-.56074.3394-.7778.4787-.85016.0091-.00301.0197-.00753.0303-.01205.0106-.00453.0213-.00905.0303-.01206.3152-.14471.5697-.39795.703-.72957l.0485-.11456c.0485-.11456.2-.13265.2727-.03015.4242.62104 1.1332.98884 1.8847.98884h1.9029c.1064 0 .6395.05163.6712.78727l-.0702 1.81602c-.0728 1.65615-1.3661 2.76818-2.9448 2.76818s-2.872-1.11203-2.9449-2.76818z" fill="url(#aj)"/></g><path d="m14.4041 6.47469h.0073l-.006-.15676-.0061-.18089c.0121-.56074.3394-.7778.4787-.85016.0091-.00301.0197-.00753.0303-.01205.0106-.00453.0213-.00905.0303-.01206.3152-.14471.5697-.39795.703-.72957l.0485-.11456c.0485-.11456.2-.13265.2727-.03015.4242.62104 1.1332.98884 1.8847.98884h1.9029c.1064 0 .6395.05163.6712.78727l-.0702 1.81602c-.0728 1.65615-1.3661 2.76818-2.9448 2.76818s-2.872-1.11203-2.9449-2.76818z" fill="url(#ak)"/><path d="m14.4041 6.47469h.0073l-.006-.15676-.0061-.18089c.0121-.56074.3394-.7778.4787-.85016.0091-.00301.0197-.00753.0303-.01205.0106-.00453.0213-.00905.0303-.01206.3152-.14471.5697-.39795.703-.72957l.0485-.11456c.0485-.11456.2-.13265.2727-.03015.4242.62104 1.1332.98884 1.8847.98884h1.9029c.1064 0 .6395.05163.6712.78727l-.0702 1.81602c-.0728 1.65615-1.3661 2.76818-2.9448 2.76818s-2.872-1.11203-2.9449-2.76818z" fill="url(#al)"/><path d="m14.4041 6.47469h.0073l-.006-.15676-.0061-.18089c.0121-.56074.3394-.7778.4787-.85016.0091-.00301.0197-.00753.0303-.01205.0106-.00453.0213-.00905.0303-.01206.3152-.14471.5697-.39795.703-.72957l.0485-.11456c.0485-.11456.2-.13265.2727-.03015.4242.62104 1.1332.98884 1.8847.98884h1.9029c.1064 0 .6395.05163.6712.78727l-.0702 1.81602c-.0728 1.65615-1.3661 2.76818-2.9448 2.76818s-2.872-1.11203-2.9449-2.76818z" fill="url(#am)"/><path d="m14.4041 6.47469h.0073l-.006-.15676-.0061-.18089c.0121-.56074.3394-.7778.4787-.85016.0091-.00301.0197-.00753.0303-.01205.0106-.00453.0213-.00905.0303-.01206.3152-.14471.5697-.39795.703-.72957l.0485-.11456c.0485-.11456.2-.13265.2727-.03015.4242.62104 1.1332.98884 1.8847.98884h1.9029c.1064 0 .6395.05163.6712.78727l-.0702 1.81602c-.0728 1.65615-1.3661 2.76818-2.9448 2.76818s-2.872-1.11203-2.9449-2.76818z" fill="url(#an)"/><g filter="url(#o)"><path d="m17.1785 7.08915-.4039 1.00462c-.0641.20665.0897.41329.3076.41329h.4647c.218 0 .3718-.20982.3077-.41329l-.3141-1.00462c-.0673-.22254-.2915-.22254-.362 0z" fill="#f09f2f"/></g><path d="m17.1843 7.00736-.314 1.00462c-.0641.20665.0897.4133.3076.4133h.4647c.218 0 .3718-.20983.3077-.4133l-.3141-1.00462c-.0673-.22254-.3814-.22254-.4519 0z" fill="#feb32a"/><path d="m17.1843 7.00736-.314 1.00462c-.0641.20665.0897.4133.3076.4133h.4647c.218 0 .3718-.20983.3077-.4133l-.3141-1.00462c-.0673-.22254-.3814-.22254-.4519 0z" fill="url(#ao)"/><path d="m17.1843 7.00736-.314 1.00462c-.0641.20665.0897.4133.3076.4133h.4647c.218 0 .3718-.20983.3077-.4133l-.3141-1.00462c-.0673-.22254-.3814-.22254-.4519 0z" fill="url(#ap)"/><path d="m17.1843 7.00736-.314 1.00462c-.0641.20665.0897.4133.3076.4133h.4647c.218 0 .3718-.20983.3077-.4133l-.3141-1.00462c-.0673-.22254-.3814-.22254-.4519 0z" fill="url(#aq)"/><g filter="url(#p)"><path d="m17.4104 8.94139c-.3077 0-.597-.07407-.8401-.2037-.0831-.04321-.1723.05247-.12.12963.2031.31481.557.52469.9601.52469s.757-.20988.9601-.52469c.0523-.08025-.0369-.17284-.12-.12963-.2431.12963-.5293.2037-.8401.2037z" stroke="url(#ar)" stroke-width=".2"/></g><path d="m17.4104 8.94139c-.3077 0-.597-.07407-.8401-.2037-.0831-.04321-.1723.05247-.12.12963.2031.31481.557.52469.9601.52469s.757-.20988.9601-.52469c.0523-.08025-.0369-.17284-.12-.12963-.2431.12963-.5293.2037-.8401.2037z" fill="#8a004f"/><g filter="url(#q)"><path d="m18.0854 6.88449c.1568-.27585.3952-.49374.9085-.49374.2247 0 .4413.06225.6339.21789.1589.12838.1376.29263.0146.35414l-.3286.1876c-.3852-.12451-.8111-.14138-1.2284-.26589z" fill="#635d5f"/></g><g filter="url(#r)"><path d="m16.7357 6.88449c-.1569-.27585-.3953-.49374-.9085-.49374-.2247 0-.4414.06225-.634.21789-.1589.12838-.1376.29263-.0146.35414l.3286.1876c.3852-.12451.8112-.14138 1.2285-.26589z" fill="#635d5f"/></g><g filter="url(#s)"><path d="m15.4024 6.17008-.0026.00149c-.0001.00005-.0002.0001-.0002.00014-.075.04478-.1723.02045-.2172-.0545-.0451-.07505-.0206-.17246.0544-.21749l.0004-.0002.0006-.00037.0017-.00102.0056-.00322.0192-.01065c.0162-.0088.0393-.02083.0685-.03474.0582-.02775.1412-.06329.2424-.09557.2008-.06411.4817-.11803.7849-.06453.0862.01521.1437.09742.1285.18362-.0152.08619-.0974.14374-.1836.12853-.2356-.04159-.4619-.00042-.6335.05433-.085.02716-.1546.05699-.2023.07975-.0239.01135-.0421.02087-.0539.02729z" fill="#bd4f26"/></g><g filter="url(#t)"><path clip-rule="evenodd" d="m19.6154 5.89972c.0001.00003.0001.00006-.0814.13595l.0814-.13595c.0751.04503.0995.14244.0545.21749-.045.07495-.1421.09933-.2171.05454-.0001-.00003-.0002-.00008-.0003-.00016l-.0026-.00151c-.0026-.0015-.007-.00393-.0129-.00714-.0118-.00642-.0301-.01594-.0539-.02729-.0478-.02276-.1173-.05259-.2024-.07975-.1715-.05475-.3978-.09592-.6334-.05434-.0862.01522-.1684-.04233-.1837-.12852-.0152-.0862.0424-.16841.1286-.18362.3032-.0535.5841.00042.7849.06453.1012.03228.1842.06782.2424.09557.0292.01391.0523.02594.0685.03474.0082.0044.0146.00801.0192.01065l.0056.00322.0017.00102.0006.00037z" fill="#bd4f26" fill-rule="evenodd"/></g><path d="m18.8235 6.42542c.3859 0 .712.26609.8007.62568.0263.10308-.0528.20136-.1583.20136h-1.3184c-.0839 0-.1511-.07671-.1343-.16061.0743-.37877.4075-.66643.8103-.66643z" fill="#fff"/><path d="m18.7011 6.58606c.2924 0 .5273.23733.5273.52739 0 .04795-.0071.09589-.0191.13904h-1.0189c-.0119-.04554-.0191-.09109-.0191-.13904 0-.29006.2373-.52739.5298-.52739z" fill="url(#at)"/><path d="m18.399 7.11345c0-.1678.1343-.30205.3021-.30205s.3021.13425.3021.30205c0 .05035-.012.09829-.0336.13904h-.5346c-.024-.04075-.036-.08869-.036-.13904z" fill="#000"/><g filter="url(#u)"><path d="m18.6606 6.69811c.0375.05005-.0408.11105-.1297.17754-.0889.06648-.1549.11327-.1923.06323-.0374-.05005.0044-.14451.0933-.211.0889-.06648.1913-.07981.2287-.02977z" fill="#c7a7a3"/><path d="m18.6606 6.69811c.0375.05005-.0408.11105-.1297.17754-.0889.06648-.1549.11327-.1923.06323-.0374-.05005.0044-.14451.0933-.211.0889-.06648.1913-.07981.2287-.02977z" fill="url(#av)"/></g><g filter="url(#v)"><path d="m19.1696 7.04291c-.0194-.13577-.0989-.23809-.1362-.27228l-.1529.16784.069.13428z" fill="url(#ax)"/></g><path d="m15.9973 6.42542c-.3859 0-.712.26609-.8007.62568-.0263.10308.0528.20137.1583.20137h1.3185c.0839 0 .151-.07671.1342-.16062-.0743-.37876-.4099-.66643-.8103-.66643z" fill="#fff"/><path d="m16.1198 6.58606c-.2925 0-.5274.23733-.5274.5274 0 .04794.0072.09589.0192.13904h1.0188c.012-.04555.0192-.0911.0192-.13904-.0024-.29007-.2373-.5274-.5298-.5274z" fill="url(#ay)"/><path d="m16.4216 7.11346c0-.16781-.1342-.30206-.302-.30206s-.3021.13425-.3021.30206c0 .05034.012.09828.0336.13904h.5346c.0215-.04076.0359-.0887.0359-.13904z" fill="#000"/><g filter="url(#w)"><path d="m16.6 7.05007c0-.16971-.138-.28285-.1753-.31704l-.1697.16412.1044.2126z" fill="url(#az)"/></g><g filter="url(#x)"><ellipse cx="15.9594" cy="6.81148" fill="#c7a7a3" fill-opacity=".9" rx=".229262" ry=".116028" transform="matrix(.88365127 -.46814574 .46814574 .88365127 -1.331909 8.263832)"/><ellipse cx="15.9594" cy="6.81148" fill="url(#aA)" rx=".229262" ry=".116028" transform="matrix(.88365127 -.46814574 .46814574 .88365127 -1.331909 8.263832)"/></g><g filter="url(#y)"><path d="m18.5565 5.81867c.1906-.04637.6646-.02319.9815.2035" stroke="#c9725d" stroke-linecap="round" stroke-width=".05"/></g><g filter="url(#z)"><path d="m16.3163 5.81867c-.1906-.04637-.6646-.02319-.9814.2035" stroke="#c9725d" stroke-linecap="round" stroke-width=".05"/></g><g filter="url(#A)"><path d="m15.6198 4.55599c-.2199.56509-1.1801 1.02837-1.6094 1.14063-.1428-1.14325.301-2.52319 1.7013-2.27425l.2361.91487c-.2361-.0664-.2858.11023-.328.21875z" fill="url(#aB)"/><path d="m15.6198 4.55599c-.2199.56509-1.1801 1.02837-1.6094 1.14063-.1428-1.14325.301-2.52319 1.7013-2.27425l.2361.91487c-.2361-.0664-.2858.11023-.328.21875z" fill="url(#aC)"/></g><g filter="url(#B)"><path d="m17.0538 2.59773c-.6693-.14778-1.5639.58578-1.6333.83341.9113 2.13951 2.1407 2.00089 3.8419 1.93643.9446-.03579 1.0203.30116 1.0996.50586.1562-2.68839-1.7828-2.93892-3.3082-3.2757z" fill="url(#aD)"/></g><g filter="url(#C)"><path d="m17.0538 2.59773c-.6693-.14778-1.5639.58578-1.6333.83341.9113 2.13951 2.1621 2.02148 3.8633 1.95703.9446-.03579.9989.28056 1.0782.48526.1562-2.68839-1.7828-2.93892-3.3082-3.2757z" fill="url(#aE)"/><path d="m17.0538 2.59773c-.6693-.14778-1.5639.58578-1.6333.83341.9113 2.13951 2.1621 2.02148 3.8633 1.95703.9446-.03579.9989.28056 1.0782.48526.1562-2.68839-1.7828-2.93892-3.3082-3.2757z" fill="url(#aF)"/><path d="m17.0538 2.59773c-.6693-.14778-1.5639.58578-1.6333.83341.9113 2.13951 2.1621 2.02148 3.8633 1.95703.9446-.03579.9989.28056 1.0782.48526.1562-2.68839-1.7828-2.93892-3.3082-3.2757z" fill="url(#aG)"/><path d="m17.0538 2.59773c-.6693-.14778-1.5639.58578-1.6333.83341.9113 2.13951 2.1621 2.02148 3.8633 1.95703.9446-.03579.9989.28056 1.0782.48526.1562-2.68839-1.7828-2.93892-3.3082-3.2757z" fill="url(#aH)"/></g><g filter="url(#D)"><path d="m21.0178 3.79045.204.62745c.03.09.12.16.22.16l.6971.01c.2109 0 .2854.24224.1054.38224l-.5325.41776c-.08.06-.11.16-.08.26l.1985.65818c.07.22-.146.36046-.336.23046l-.5425-.39864c-.08-.06-.19-.06-.27 0l-.5508.39864c-.19.13-.3959-.01046-.3359-.23046l.1967-.65818c.03-.1 0-.2-.08-.26l-.5386-.39823c-.18-.14-.0971-.38177.1329-.38177l.6657-.01c.1 0 .19-.07.22-.16l.2314-.64745c.07-.23.3246-.21.3946 0z" fill="#33aef9"/><path d="m21.0178 3.79045.204.62745c.03.09.12.16.22.16l.6971.01c.2109 0 .2854.24224.1054.38224l-.5325.41776c-.08.06-.11.16-.08.26l.1985.65818c.07.22-.146.36046-.336.23046l-.5425-.39864c-.08-.06-.19-.06-.27 0l-.5508.39864c-.19.13-.3959-.01046-.3359-.23046l.1967-.65818c.03-.1 0-.2-.08-.26l-.5386-.39823c-.18-.14-.0971-.38177.1329-.38177l.6657-.01c.1 0 .19-.07.22-.16l.2314-.64745c.07-.23.3246-.21.3946 0z" fill="url(#aI)"/><path d="m21.0178 3.79045.204.62745c.03.09.12.16.22.16l.6971.01c.2109 0 .2854.24224.1054.38224l-.5325.41776c-.08.06-.11.16-.08.26l.1985.65818c.07.22-.146.36046-.336.23046l-.5425-.39864c-.08-.06-.19-.06-.27 0l-.5508.39864c-.19.13-.3959-.01046-.3359-.23046l.1967-.65818c.03-.1 0-.2-.08-.26l-.5386-.39823c-.18-.14-.0971-.38177.1329-.38177l.6657-.01c.1 0 .19-.07.22-.16l.2314-.64745c.07-.23.3246-.21.3946 0z" fill="url(#aJ)"/><path d="m21.0178 3.79045.204.62745c.03.09.12.16.22.16l.6971.01c.2109 0 .2854.24224.1054.38224l-.5325.41776c-.08.06-.11.16-.08.26l.1985.65818c.07.22-.146.36046-.336.23046l-.5425-.39864c-.08-.06-.19-.06-.27 0l-.5508.39864c-.19.13-.3959-.01046-.3359-.23046l.1967-.65818c.03-.1 0-.2-.08-.26l-.5386-.39823c-.18-.14-.0971-.38177.1329-.38177l.6657-.01c.1 0 .19-.07.22-.16l.2314-.64745c.07-.23.3246-.21.3946 0z" fill="url(#aK)"/></g><g filter="url(#E)"><path d="m25.0535 9.55653c.3993-.06567.4881-.33046.4881-.5005v-.53516c0-.10139.0822-.18359.1836-.18359s.1836.0822.1836.18359v4.92973c0 .2912-.2361.5273-.5273.5273-.2913 0-.5274-.2361-.5274-.5273v-3.67894c0-.11046.0904-.1972.1994-.21513z" fill="#ffcf3f"/></g></svg>