<svg fill="none" height="32" viewBox="0 0 32 32" width="32" xmlns="http://www.w3.org/2000/svg" xmlns:xlink="http://www.w3.org/1999/xlink"><filter id="a" color-interpolation-filters="sRGB" filterUnits="userSpaceOnUse" height="7.75" width="5.56" x="4.96881" y="20.0981"><feFlood flood-opacity="0" result="BackgroundImageFix"/><feBlend in="SourceGraphic" in2="BackgroundImageFix" mode="normal" result="shape"/><feColorMatrix in="SourceAlpha" result="hardAlpha" type="matrix" values="0 0 0 0 0 0 0 0 0 0 0 0 0 0 0 0 0 0 127 0"/><feOffset dx=".25"/><feGaussianBlur stdDeviation=".3"/><feComposite in2="hardAlpha" k2="-1" k3="1" operator="arithmetic"/><feColorMatrix type="matrix" values="0 0 0 0 0.329412 0 0 0 0 0.270588 0 0 0 0 0.25098 0 0 0 1 0"/><feBlend in2="shape" mode="normal" result="effect1_innerShadow_4002_3607"/></filter><filter id="b" color-interpolation-filters="sRGB" filterUnits="userSpaceOnUse" height="8.25" width="5.56" x="21.6788" y="19.5981"><feFlood flood-opacity="0" result="BackgroundImageFix"/><feBlend in="SourceGraphic" in2="BackgroundImageFix" mode="normal" result="shape"/><feColorMatrix in="SourceAlpha" result="hardAlpha" type="matrix" values="0 0 0 0 0 0 0 0 0 0 0 0 0 0 0 0 0 0 127 0"/><feOffset dx=".25" dy="-.5"/><feGaussianBlur stdDeviation=".375"/><feComposite in2="hardAlpha" k2="-1" k3="1" operator="arithmetic"/><feColorMatrix type="matrix" values="0 0 0 0 0.168627 0 0 0 0 0.0784314 0 0 0 0 0.211765 0 0 0 1 0"/><feBlend in2="shape" mode="normal" result="effect1_innerShadow_4002_3607"/></filter><filter id="c" color-interpolation-filters="sRGB" filterUnits="userSpaceOnUse" height="4.625" width="4.625" x="4.15631" y="15.2656"><feFlood flood-opacity="0" result="BackgroundImageFix"/><feBlend in="SourceGraphic" in2="BackgroundImageFix" mode="normal" result="shape"/><feGaussianBlur result="effect1_foregroundBlur_4002_3607" stdDeviation=".125"/></filter><filter id="d" color-interpolation-filters="sRGB" filterUnits="userSpaceOnUse" height="4.5" width="4.5" x="23.2188" y="15.3281"><feFlood flood-opacity="0" result="BackgroundImageFix"/><feBlend in="SourceGraphic" in2="BackgroundImageFix" mode="normal" result="shape"/><feGaussianBlur result="effect1_foregroundBlur_4002_3607" stdDeviation=".125"/></filter><filter id="e" color-interpolation-filters="sRGB" filterUnits="userSpaceOnUse" height="26" width="22.388" x="5.30597" y="3.88904"><feFlood flood-opacity="0" result="BackgroundImageFix"/><feBlend in="SourceGraphic" in2="BackgroundImageFix" mode="normal" result="shape"/><feColorMatrix in="SourceAlpha" result="hardAlpha" type="matrix" values="0 0 0 0 0 0 0 0 0 0 0 0 0 0 0 0 0 0 127 0"/><feOffset dx="1.25"/><feGaussianBlur stdDeviation=".75"/><feComposite in2="hardAlpha" k2="-1" k3="1" operator="arithmetic"/><feColorMatrix type="matrix" values="0 0 0 0 0.87451 0 0 0 0 0.65098 0 0 0 0 0.576471 0 0 0 1 0"/><feBlend in2="shape" mode="normal" result="effect1_innerShadow_4002_3607"/><feColorMatrix in="SourceAlpha" result="hardAlpha" type="matrix" values="0 0 0 0 0 0 0 0 0 0 0 0 0 0 0 0 0 0 127 0"/><feOffset dx="-.5"/><feGaussianBlur stdDeviation="1"/><feComposite in2="hardAlpha" k2="-1" k3="1" operator="arithmetic"/><feColorMatrix type="matrix" values="0 0 0 0 1 0 0 0 0 0.843137 0 0 0 0 0.733333 0 0 0 1 0"/><feBlend in2="effect1_innerShadow_4002_3607" mode="normal" result="effect2_innerShadow_4002_3607"/></filter><filter id="f" color-interpolation-filters="sRGB" filterUnits="userSpaceOnUse" height="1.59185" width="3.72015" x="9.18869" y="12.8264"><feFlood flood-opacity="0" result="BackgroundImageFix"/><feBlend in="SourceGraphic" in2="BackgroundImageFix" mode="normal" result="shape"/><feColorMatrix in="SourceAlpha" result="hardAlpha" type="matrix" values="0 0 0 0 0 0 0 0 0 0 0 0 0 0 0 0 0 0 127 0"/><feOffset dx=".25" dy="-.3"/><feGaussianBlur stdDeviation=".15"/><feComposite in2="hardAlpha" k2="-1" k3="1" operator="arithmetic"/><feColorMatrix type="matrix" values="0 0 0 0 0.160784 0 0 0 0 0.117647 0 0 0 0 0.117647 0 0 0 1 0"/><feBlend in2="shape" mode="normal" result="effect1_innerShadow_4002_3607"/></filter><filter id="g" color-interpolation-filters="sRGB" filterUnits="userSpaceOnUse" height="1.04176" width="3.22003" x="9.34378" y="13.1577"><feFlood flood-opacity="0" result="BackgroundImageFix"/><feBlend in="SourceGraphic" in2="BackgroundImageFix" mode="normal" result="shape"/><feGaussianBlur result="effect1_foregroundBlur_4002_3607" stdDeviation=".125"/></filter><filter id="h" color-interpolation-filters="sRGB" filterUnits="userSpaceOnUse" height="1.59185" width="3.72015" x="19.2988" y="12.8264"><feFlood flood-opacity="0" result="BackgroundImageFix"/><feBlend in="SourceGraphic" in2="BackgroundImageFix" mode="normal" result="shape"/><feColorMatrix in="SourceAlpha" result="hardAlpha" type="matrix" values="0 0 0 0 0 0 0 0 0 0 0 0 0 0 0 0 0 0 127 0"/><feOffset dx=".25" dy="-.3"/><feGaussianBlur stdDeviation=".15"/><feComposite in2="hardAlpha" k2="-1" k3="1" operator="arithmetic"/><feColorMatrix type="matrix" values="0 0 0 0 0.160784 0 0 0 0 0.117647 0 0 0 0 0.117647 0 0 0 1 0"/><feBlend in2="shape" mode="normal" result="effect1_innerShadow_4002_3607"/></filter><filter id="i" color-interpolation-filters="sRGB" filterUnits="userSpaceOnUse" height="1.04176" width="3.22003" x="19.4238" y="13.1055"><feFlood flood-opacity="0" result="BackgroundImageFix"/><feBlend in="SourceGraphic" in2="BackgroundImageFix" mode="normal" result="shape"/><feGaussianBlur result="effect1_foregroundBlur_4002_3607" stdDeviation=".125"/></filter><filter id="j" color-interpolation-filters="sRGB" filterUnits="userSpaceOnUse" height="2.90076" width="7.50234" x="12.2177" y="21.9774"><feFlood flood-opacity="0" result="BackgroundImageFix"/><feBlend in="SourceGraphic" in2="BackgroundImageFix" mode="normal" result="shape"/><feGaussianBlur result="effect1_foregroundBlur_4002_3607" stdDeviation=".05"/></filter><filter id="k" color-interpolation-filters="sRGB" filterUnits="userSpaceOnUse" height="16.75" width="26.0002" x="3.09363" y="1.07812"><feFlood flood-opacity="0" result="BackgroundImageFix"/><feBlend in="SourceGraphic" in2="BackgroundImageFix" mode="normal" result="shape"/><feColorMatrix in="SourceAlpha" result="hardAlpha" type="matrix" values="0 0 0 0 0 0 0 0 0 0 0 0 0 0 0 0 0 0 127 0"/><feOffset dy="-.75"/><feGaussianBlur stdDeviation=".625"/><feComposite in2="hardAlpha" k2="-1" k3="1" operator="arithmetic"/><feColorMatrix type="matrix" values="0 0 0 0 0.101961 0 0 0 0 0.0431373 0 0 0 0 0.101961 0 0 0 1 0"/><feBlend in2="shape" mode="normal" result="effect1_innerShadow_4002_3607"/><feColorMatrix in="SourceAlpha" result="hardAlpha" type="matrix" values="0 0 0 0 0 0 0 0 0 0 0 0 0 0 0 0 0 0 127 0"/><feOffset dy="-.35"/><feGaussianBlur stdDeviation=".5"/><feComposite in2="hardAlpha" k2="-1" k3="1" operator="arithmetic"/><feColorMatrix type="matrix" values="0 0 0 0 0.0941176 0 0 0 0 0.0352941 0 0 0 0 0.054902 0 0 0 1 0"/><feBlend in2="effect1_innerShadow_4002_3607" mode="normal" result="effect2_innerShadow_4002_3607"/></filter><filter id="l" color-interpolation-filters="sRGB" filterUnits="userSpaceOnUse" height="1.30579" width="1.50746" x="18.8018" y="16.1411"><feFlood flood-opacity="0" result="BackgroundImageFix"/><feBlend in="SourceGraphic" in2="BackgroundImageFix" mode="normal" result="shape"/><feGaussianBlur result="effect1_foregroundBlur_4002_3607" stdDeviation=".05"/></filter><filter id="m" color-interpolation-filters="sRGB" filterUnits="userSpaceOnUse" height="1.54389" width="1.49445" x="20.7959" y="16.4312"><feFlood flood-opacity="0" result="BackgroundImageFix"/><feBlend in="SourceGraphic" in2="BackgroundImageFix" mode="normal" result="shape"/><feGaussianBlur result="effect1_foregroundBlur_4002_3607" stdDeviation=".1"/></filter><filter id="n" color-interpolation-filters="sRGB" filterUnits="userSpaceOnUse" height="1.82088" width="1.7013" x="11.9334" y="16.2974"><feFlood flood-opacity="0" result="BackgroundImageFix"/><feBlend in="SourceGraphic" in2="BackgroundImageFix" mode="normal" result="shape"/><feGaussianBlur result="effect1_foregroundBlur_4002_3607" stdDeviation=".1"/></filter><filter id="o" color-interpolation-filters="sRGB" filterUnits="userSpaceOnUse" height="1.31969" width="1.78258" x="10.1361" y="16.1316"><feFlood flood-opacity="0" result="BackgroundImageFix"/><feBlend in="SourceGraphic" in2="BackgroundImageFix" mode="normal" result="shape"/><feGaussianBlur result="effect1_foregroundBlur_4002_3607" stdDeviation=".05"/></filter><filter id="p" color-interpolation-filters="sRGB" filterUnits="userSpaceOnUse" height="5.90956" width="4.85741" x="13.2486" y="17.0442"><feFlood flood-opacity="0" result="BackgroundImageFix"/><feBlend in="SourceGraphic" in2="BackgroundImageFix" mode="normal" result="shape"/><feGaussianBlur result="effect1_foregroundBlur_4002_3607" stdDeviation=".3"/></filter><filter id="q" color-interpolation-filters="sRGB" filterUnits="userSpaceOnUse" height="4.9" width="3.8967" x="14.0188" y="17.1281"><feFlood flood-opacity="0" result="BackgroundImageFix"/><feBlend in="SourceGraphic" in2="BackgroundImageFix" mode="normal" result="shape"/><feGaussianBlur result="effect1_foregroundBlur_4002_3607" stdDeviation=".1"/></filter><filter id="r" color-interpolation-filters="sRGB" filterUnits="userSpaceOnUse" height="2.76253" width="7.54378" x="17.4626" y="3.79062"><feFlood flood-opacity="0" result="BackgroundImageFix"/><feBlend in="SourceGraphic" in2="BackgroundImageFix" mode="normal" result="shape"/><feGaussianBlur result="effect1_foregroundBlur_4002_3607" stdDeviation=".3"/></filter><filter id="s" color-interpolation-filters="sRGB" filterUnits="userSpaceOnUse" height="5.14378" width="3.61253" x="11.9264" y="5.50622"><feFlood flood-opacity="0" result="BackgroundImageFix"/><feBlend in="SourceGraphic" in2="BackgroundImageFix" mode="normal" result="shape"/><feGaussianBlur result="effect1_foregroundBlur_4002_3607" stdDeviation=".2"/></filter><filter id="t" color-interpolation-filters="sRGB" filterUnits="userSpaceOnUse" height="7.41699" width="12.9374" x="13.9647" y="3.41116"><feFlood flood-opacity="0" result="BackgroundImageFix"/><feBlend in="SourceGraphic" in2="BackgroundImageFix" mode="normal" result="shape"/><feGaussianBlur result="effect1_foregroundBlur_4002_3607" stdDeviation=".75"/></filter><filter id="u" color-interpolation-filters="sRGB" filterUnits="userSpaceOnUse" height="3.65163" width="1.13126" x="26.2381" y="13.7622"><feFlood flood-opacity="0" result="BackgroundImageFix"/><feBlend in="SourceGraphic" in2="BackgroundImageFix" mode="normal" result="shape"/><feGaussianBlur result="effect1_foregroundBlur_4002_3607" stdDeviation=".125"/></filter><filter id="v" color-interpolation-filters="sRGB" filterUnits="userSpaceOnUse" height="4.29759" width=".96936" x="4.71585" y="13.2043"><feFlood flood-opacity="0" result="BackgroundImageFix"/><feBlend in="SourceGraphic" in2="BackgroundImageFix" mode="normal" result="shape"/><feGaussianBlur result="effect1_foregroundBlur_4002_3607" stdDeviation=".125"/></filter><linearGradient id="w" gradientUnits="userSpaceOnUse" x1="7.62381" x2="7.62381" y1="20.0981" y2="27.8481"><stop offset="0" stop-color="#1c181b"/><stop offset="1" stop-color="#18111d"/></linearGradient><linearGradient id="x" gradientUnits="userSpaceOnUse" x1="24.3338" x2="24.3338" y1="19.7031" y2="27.8481"><stop offset="0" stop-color="#422f33"/><stop offset="1" stop-color="#2e232c"/></linearGradient><radialGradient id="y" cx="0" cy="0" gradientTransform="matrix(0 5.5 -1.36374 0 26.9888 20.9844)" gradientUnits="userSpaceOnUse" r="1"><stop offset="0" stop-color="#333233"/><stop offset="1" stop-color="#333233" stop-opacity="0"/></radialGradient><linearGradient id="z" gradientUnits="userSpaceOnUse" x1="4.00001" x2="6.46881" y1="15.9531" y2="19.9219"><stop offset="0" stop-color="#bb8875"/><stop offset="1" stop-color="#c6877d"/></linearGradient><radialGradient id="A" cx="0" cy="0" gradientTransform="matrix(-4.40625129 .18752715 -.18888612 -4.43818238 7.37501 17.3906)" gradientUnits="userSpaceOnUse" r="1"><stop offset=".870688" stop-color="#eab19a" stop-opacity="0"/><stop offset="1" stop-color="#eab19a"/></radialGradient><radialGradient id="B" cx="0" cy="0" gradientTransform="matrix(-1.62506068 1.18749277 -1.18749277 -1.62506068 6.46881 17.5781)" gradientUnits="userSpaceOnUse" r="1"><stop offset=".233433" stop-color="#b87c6d"/><stop offset="1" stop-color="#c88e80"/></radialGradient><radialGradient id="C" cx="0" cy="0" gradientTransform="matrix(3.46874636 -3.28125117 3.070638 3.24609846 25.2501 19.0469)" gradientUnits="userSpaceOnUse" r="1"><stop offset=".41698" stop-color="#f2bba8"/><stop offset=".862492" stop-color="#ffd7c0"/></radialGradient><radialGradient id="D" cx="0" cy="0" gradientTransform="matrix(0 4.03125 -4.03125 0 25.4688 16.7969)" gradientUnits="userSpaceOnUse" r="1"><stop offset=".880536" stop-color="#d59d93" stop-opacity="0"/><stop offset="1" stop-color="#d59d93"/></radialGradient><radialGradient id="E" cx="0" cy="0" gradientTransform="matrix(-.24994758 1.81249699 -1.91141089 -.26358804 26.3125 16.9844)" gradientUnits="userSpaceOnUse" r="1"><stop offset=".255555" stop-color="#d9a48b"/><stop offset="1" stop-color="#d9a48b" stop-opacity="0"/></radialGradient><radialGradient id="F" cx="0" cy="0" gradientTransform="matrix(-.296877 .94531163 -2.90302517 -.91170083 27.5157 14.5469)" gradientUnits="userSpaceOnUse" r="1"><stop offset="0" stop-color="#c3977a"/><stop offset="1" stop-color="#c3977a" stop-opacity="0"/></radialGradient><radialGradient id="G" cx="0" cy="0" gradientTransform="matrix(-.04687685 2.14062679 -1.84877676 -.04048572 25.9688 16.4062)" gradientUnits="userSpaceOnUse" r="1"><stop offset=".56434" stop-color="#dba084"/><stop offset="1" stop-color="#dba084" stop-opacity="0"/></radialGradient><radialGradient id="H" cx="0" cy="0" gradientTransform="matrix(-13.25 0 0 -14.629 22.9688 17.5665)" gradientUnits="userSpaceOnUse" r="1"><stop offset=".172174" stop-color="#ffddc0"/><stop offset="1" stop-color="#dfab9f"/></radialGradient><radialGradient id="I" cx="0" cy="0" gradientTransform="matrix(0 14.76 -14.0937 0 16.125 15.129)" gradientUnits="userSpaceOnUse" r="1"><stop offset=".771449" stop-color="#b47896" stop-opacity="0"/><stop offset="1" stop-color="#b47896"/></radialGradient><radialGradient id="J" cx="0" cy="0" gradientTransform="matrix(4.68750031 -6.87499452 14.48665315 9.87727204 12.625 27.8906)" gradientUnits="userSpaceOnUse" r="1"><stop offset="0" stop-color="#bf838f"/><stop offset="1" stop-color="#bf838f" stop-opacity="0"/></radialGradient><radialGradient id="K" cx="0" cy="0" gradientTransform="matrix(5.25000374 2.62499601 -1.76484033 3.52968854 17.3438 8.50403)" gradientUnits="userSpaceOnUse" r="1"><stop offset=".291825" stop-color="#c38d7f"/><stop offset="1" stop-color="#c38d7f" stop-opacity="0"/></radialGradient><radialGradient id="L" cx="0" cy="0" gradientTransform="matrix(0 -1.92982 2.72446 0 20.8163 16.4006)" gradientUnits="userSpaceOnUse" r="1"><stop offset=".411765" stop-color="#fabeac"/><stop offset="1" stop-color="#fabeac" stop-opacity="0"/></radialGradient><radialGradient id="M" cx="0" cy="0" gradientTransform="matrix(0 -2.4066 3.39756 0 11.3488 16.4233)" gradientUnits="userSpaceOnUse" r="1"><stop offset=".411765" stop-color="#d0978f"/><stop offset="1" stop-color="#d0978f" stop-opacity="0"/></radialGradient><radialGradient id="N" cx="0" cy="0" gradientTransform="matrix(1.81508492 2.56147877 -1.2603251 .89307673 13.3728 8.3151)" gradientUnits="userSpaceOnUse" r="1"><stop offset="0" stop-color="#a26f61"/><stop offset="1" stop-color="#a26f61" stop-opacity="0"/></radialGradient><radialGradient id="O" cx="0" cy="0" gradientTransform="matrix(0 15.4755 -19.5285 0 17.5214 14.9703)" gradientUnits="userSpaceOnUse" r="1"><stop offset=".791829" stop-color="#bb7f90" stop-opacity="0"/><stop offset=".963303" stop-color="#bb7f90"/></radialGradient><linearGradient id="P"><stop offset="0" stop-color="#323232"/><stop offset="1" stop-color="#323232" stop-opacity="0"/></linearGradient><linearGradient id="Q" gradientUnits="userSpaceOnUse" x1="12.2794" x2="8.87313" xlink:href="#P" y1="13.9584" y2="13.6785"/><linearGradient id="R" gradientUnits="userSpaceOnUse" x1="22.3594" x2="18.9531" xlink:href="#P" y1="13.9063" y2="13.6264"/><linearGradient id="S" gradientUnits="userSpaceOnUse" x1="13.7018" x2="14.5614" y1="24.1911" y2="22.77"><stop offset=".223958" stop-color="#c28a8e"/><stop offset=".510417" stop-color="#c28a8e" stop-opacity="0"/></linearGradient><linearGradient id="T" gradientUnits="userSpaceOnUse" x1="13.875" x2="19.4688" y1="24.3906" y2="22.7969"><stop offset="0" stop-color="#88014e"/><stop offset="1" stop-color="#87004d"/></linearGradient><linearGradient id="U" gradientUnits="userSpaceOnUse" x1="11.2186" x2="27.25" y1="14.4531" y2="6.07812"><stop offset="0" stop-color="#2b2b2c"/><stop offset="1" stop-color="#313131"/></linearGradient><radialGradient id="V" cx="0" cy="0" gradientTransform="matrix(1.73437422 -3.57812622 .86571846 .41962739 11.5625 10.3125)" gradientUnits="userSpaceOnUse" r="1"><stop offset="0" stop-color="#3e333b"/><stop offset="1" stop-color="#2c242a" stop-opacity="0"/></radialGradient><radialGradient id="W" cx="0" cy="0" gradientTransform="matrix(-.31250114 1.5624961 -2.50449071 -.50090121 9.81249 3.07815)" gradientUnits="userSpaceOnUse" r="1"><stop offset=".253846" stop-color="#454243"/><stop offset="1" stop-color="#454243" stop-opacity="0"/></radialGradient><radialGradient id="X" cx="0" cy="0" gradientTransform="matrix(-6.25002991 -8.31246811 3.74065062 -2.81254351 6.87499 12.6407)" gradientUnits="userSpaceOnUse" r="1"><stop offset=".226227" stop-color="#4e413c"/><stop offset="1" stop-color="#4e413c" stop-opacity="0"/></radialGradient><radialGradient id="Y" cx="0" cy="0" gradientTransform="matrix(-4.84372813 -2.50003451 .56327669 -1.0913286 26.9062 5.51565)" gradientUnits="userSpaceOnUse" r="1"><stop offset="0" stop-color="#4e4649"/><stop offset="1" stop-color="#4e4649" stop-opacity="0"/></radialGradient><radialGradient id="Z" cx="0" cy="0" gradientTransform="matrix(4.062499 .3750002 -.11475929 1.24322465 20.5625 4.4219)" gradientUnits="userSpaceOnUse" r="1"><stop offset="0" stop-color="#433d3f"/><stop offset="1" stop-color="#433d3f" stop-opacity="0"/></radialGradient><linearGradient id="aa"><stop offset=".80198" stop-color="#7f594c"/><stop offset="1" stop-color="#694b43"/><stop offset="1" stop-color="#804d49"/><stop offset="1" stop-color="#644844"/></linearGradient><radialGradient id="ab" cx="0" cy="0" gradientTransform="matrix(0 1.80763 -2.87524 0 20.3147 16.9983)" gradientUnits="userSpaceOnUse" r="1" xlink:href="#aa"/><linearGradient id="ac"><stop offset=".765532" stop-color="#ffe6e2" stop-opacity="0"/><stop offset=".966159" stop-color="#ffe6e2"/></linearGradient><radialGradient id="ad" cx="0" cy="0" gradientTransform="matrix(-.51671592 -.66585814 .9167311 -.7113971 19.8062 17.1858)" gradientUnits="userSpaceOnUse" r="1" xlink:href="#ac"/><linearGradient id="ae"><stop offset="0" stop-color="#b4948d"/><stop offset="1" stop-color="#b4948d" stop-opacity="0"/></linearGradient><linearGradient id="af" gradientUnits="userSpaceOnUse" x1="22.048" x2="21.3489" xlink:href="#ae" y1="17.1184" y2="17.5491"/><radialGradient id="ag" cx="0" cy="0" gradientTransform="matrix(0 1.80073 -2.86427 0 11.6295 17.0038)" gradientUnits="userSpaceOnUse" r="1" xlink:href="#aa"/><linearGradient id="ah" gradientUnits="userSpaceOnUse" x1="13.2804" x2="12.5841" xlink:href="#ae" y1="17.1234" y2="17.5525"/><radialGradient id="ai" cx="0" cy="0" gradientTransform="matrix(-.0171688 -1.0965656 1.31811845 -.02063763 10.9939 17.4904)" gradientUnits="userSpaceOnUse" r="1" xlink:href="#ac"/><linearGradient id="aj" gradientUnits="userSpaceOnUse" x1="15.7755" x2="15.3555" y1="17.6287" y2="22.3278"><stop offset="0" stop-color="#d79e8f"/><stop offset="1" stop-color="#cf918f"/></linearGradient><radialGradient id="ak" cx="0" cy="0" gradientTransform="matrix(.88270145 4.40660101 -1.54781206 .31004757 16.8328 18.0755)" gradientUnits="userSpaceOnUse" r="1"><stop offset="0" stop-color="#ffddc3"/><stop offset="1" stop-color="#ffddc3" stop-opacity="0"/></radialGradient><radialGradient id="al" cx="0" cy="0" gradientTransform="matrix(-1.36842 0 0 -.368421 16.807 20.4718)" gradientUnits="userSpaceOnUse" r="1"><stop offset="0" stop-color="#ffd7c3"/><stop offset="1" stop-color="#ffd7c3" stop-opacity="0"/></radialGradient><linearGradient id="am" gradientUnits="userSpaceOnUse" x1="13.7368" x2="15.2456" y1="19.8928" y2="20.1735"><stop offset="0" stop-color="#dea791"/><stop offset="1" stop-color="#dea791" stop-opacity="0"/></linearGradient><radialGradient id="an" cx="0" cy="0" gradientTransform="matrix(0 3.6875 -6.12314 0 16.1251 18.1406)" gradientUnits="userSpaceOnUse" r="1"><stop offset=".679757" stop-color="#d19193" stop-opacity="0"/><stop offset="1" stop-color="#d19193"/></radialGradient><linearGradient id="ao" gradientUnits="userSpaceOnUse" x1="15.6094" x2="15.9672" y1="17.3281" y2="18.2969"><stop offset="0" stop-color="#f0c5b1"/><stop offset="1" stop-color="#f0c5b1" stop-opacity="0"/></linearGradient><linearGradient id="ap" gradientUnits="userSpaceOnUse" x1="12.6545" x2="15.6076" y1="6.81253" y2="10.5625"><stop offset="0" stop-color="#403637"/><stop offset="1" stop-color="#403637" stop-opacity="0"/></linearGradient><radialGradient id="aq" cx="0" cy="0" gradientTransform="matrix(2.03124829 4.71874993 -16.7525143 7.21134124 21.125 6.07815)" gradientUnits="userSpaceOnUse" r="1"><stop offset="0" stop-color="#4d4749"/><stop offset="1" stop-color="#4d4749" stop-opacity="0"/></radialGradient><linearGradient id="ar" gradientUnits="userSpaceOnUse" x1="27.1685" x2="27.1672" y1="16.969" y2="12.3921"><stop offset="0" stop-color="#3b3639"/><stop offset="1" stop-color="#3b3639" stop-opacity="0"/></linearGradient><linearGradient id="as" gradientUnits="userSpaceOnUse" x1=".353608" x2=".350996" y1="3.57653" y2="-1.93478"><stop offset=".384531" stop-color="#362c2a"/><stop offset="1" stop-color="#362c2a" stop-opacity="0"/></linearGradient><g filter="url(#a)"><path d="m10.2788 27.8481h-1.04999c-2.35 0-4.26-1.91-4.26-4.26v-3.49h5.29999v7.75z" fill="url(#w)"/></g><g filter="url(#b)"><path d="m21.6788 27.8481h1.05c2.35 0 4.26-1.91 4.26-4.26v-3.49h-5.3v7.75z" fill="url(#x)"/><path d="m21.6788 27.8481h1.05c2.35 0 4.26-1.91 4.26-4.26v-3.49h-5.3v7.75z" fill="url(#y)"/></g><path d="m6.46881 20.8281c1.79493 0 3.25-1.455 3.25-3.25 0-1.7949-1.45507-3.25-3.25-3.25-1.79492 0-3.25 1.4551-3.25 3.25 0 1.795 1.45508 3.25 3.25 3.25z" fill="url(#z)"/><path d="m6.46881 20.8281c1.79493 0 3.25-1.455 3.25-3.25 0-1.7949-1.45507-3.25-3.25-3.25-1.79492 0-3.25 1.4551-3.25 3.25 0 1.795 1.45508 3.25 3.25 3.25z" fill="url(#A)"/><g filter="url(#c)"><path d="m6.46881 19.6406c1.13909 0 2.0625-.9234 2.0625-2.0625s-.92341-2.0625-2.0625-2.0625-2.0625.9234-2.0625 2.0625.92341 2.0625 2.0625 2.0625z" fill="url(#B)"/></g><path d="m25.4688 20.8281c1.7949 0 3.25-1.455 3.25-3.25 0-1.7949-1.4551-3.25-3.25-3.25s-3.25 1.4551-3.25 3.25c0 1.795 1.4551 3.25 3.25 3.25z" fill="url(#C)"/><path d="m25.4688 20.8281c1.7949 0 3.25-1.455 3.25-3.25 0-1.7949-1.4551-3.25-3.25-3.25s-3.25 1.4551-3.25 3.25c0 1.795 1.4551 3.25 3.25 3.25z" fill="url(#D)"/><path d="m25.4688 20.8281c1.7949 0 3.25-1.455 3.25-3.25 0-1.7949-1.4551-3.25-3.25-3.25s-3.25 1.4551-3.25 3.25c0 1.795 1.4551 3.25 3.25 3.25z" fill="url(#E)"/><path d="m25.4688 20.8281c1.7949 0 3.25-1.455 3.25-3.25 0-1.7949-1.4551-3.25-3.25-3.25s-3.25 1.4551-3.25 3.25c0 1.795 1.4551 3.25 3.25 3.25z" fill="url(#F)"/><g filter="url(#d)"><path d="m25.4688 19.5781c1.1046 0 2-.8954 2-2 0-1.1045-.8954-2-2-2s-2 .8955-2 2c0 1.1046.8954 2 2 2z" fill="#e8b19a"/><path d="m25.4688 19.5781c1.1046 0 2-.8954 2-2 0-1.1045-.8954-2-2-2s-2 .8955-2 2c0 1.1046.8954 2 2 2z" fill="url(#G)"/></g><g filter="url(#e)"><path d="m13.4931 3.88904c-4.34447 0-7.85992 3.61659-7.68056 7.97826l.30693 8.238c.23914 5.8522 4.63343 9.7837 9.97433 9.7837s9.7352-3.9315 9.9743-9.7837l.3694-8.2106c.1794-4.36172-3.3986-8.00566-7.743-8.00566z" fill="url(#H)"/><path d="m13.4931 3.88904c-4.34447 0-7.85992 3.61659-7.68056 7.97826l.30693 8.238c.23914 5.8522 4.63343 9.7837 9.97433 9.7837s9.7352-3.9315 9.9743-9.7837l.3694-8.2106c.1794-4.36172-3.3986-8.00566-7.743-8.00566z" fill="url(#I)"/><path d="m13.4931 3.88904c-4.34447 0-7.85992 3.61659-7.68056 7.97826l.30693 8.238c.23914 5.8522 4.63343 9.7837 9.97433 9.7837s9.7352-3.9315 9.9743-9.7837l.3694-8.2106c.1794-4.36172-3.3986-8.00566-7.743-8.00566z" fill="url(#J)"/><path d="m13.4931 3.88904c-4.34447 0-7.85992 3.61659-7.68056 7.97826l.30693 8.238c.23914 5.8522 4.63343 9.7837 9.97433 9.7837s9.7352-3.9315 9.9743-9.7837l.3694-8.2106c.1794-4.36172-3.3986-8.00566-7.743-8.00566z" fill="url(#K)"/><path d="m13.4931 3.88904c-4.34447 0-7.85992 3.61659-7.68056 7.97826l.30693 8.238c.23914 5.8522 4.63343 9.7837 9.97433 9.7837s9.7352-3.9315 9.9743-9.7837l.3694-8.2106c.1794-4.36172-3.3986-8.00566-7.743-8.00566z" fill="url(#L)"/><path d="m13.4931 3.88904c-4.34447 0-7.85992 3.61659-7.68056 7.97826l.30693 8.238c.23914 5.8522 4.63343 9.7837 9.97433 9.7837s9.7352-3.9315 9.9743-9.7837l.3694-8.2106c.1794-4.36172-3.3986-8.00566-7.743-8.00566z" fill="url(#M)"/><path d="m13.4931 3.88904c-4.34447 0-7.85992 3.61659-7.68056 7.97826l.30693 8.238c.23914 5.8522 4.63343 9.7837 9.97433 9.7837s9.7352-3.9315 9.9743-9.7837l.3694-8.2106c.1794-4.36172-3.3986-8.00566-7.743-8.00566z" fill="url(#N)"/></g><path d="m13.4931 3.88904c-4.34447 0-7.85992 3.61659-7.68056 7.97826l.30693 8.238c.23914 5.8522 4.63343 9.7837 9.97433 9.7837s9.7352-3.9315 9.9743-9.7837l.3694-8.2106c.1794-4.36172-3.3986-8.00566-7.743-8.00566z" fill="url(#O)"/><g filter="url(#f)"><path d="m9.68881 13.9181c.58999-.21 1.40999-.36 2.46999-.26" stroke="#111" stroke-linecap="round" stroke-linejoin="round" stroke-miterlimit="10"/></g><g filter="url(#g)"><path d="m9.71881 13.8244c.58999-.21 1.40999-.36 2.46999-.26" stroke="url(#Q)" stroke-linecap="round" stroke-linejoin="round" stroke-miterlimit="10" stroke-width=".25"/></g><g filter="url(#h)"><path d="m22.2688 13.9181c-.59-.21-1.41-.36-2.47-.26" stroke="#111" stroke-linecap="round" stroke-linejoin="round" stroke-miterlimit="10"/></g><g filter="url(#i)"><path d="m22.2688 13.7723c-.59-.21-1.41-.36-2.47-.26" stroke="url(#R)" stroke-linecap="round" stroke-linejoin="round" stroke-miterlimit="10" stroke-width=".25"/></g><g filter="url(#j)"><path d="m19.4788 22.7816v-.0001c.2216-.3465-.1598-.7634-.5262-.5792l-.0018.0009c-.8673.4657-1.8835.7238-2.98.7238-1.096 0-2.1124-.2679-2.9804-.724-.3673-.1966-.7598.2224-.5274.579l.0629-.0409-.0631.0405c.7421 1.1548 2.0435 1.9215 3.508 1.9215s2.7658-.7667 3.508-1.9215z" stroke="url(#S)" stroke-width=".15"/></g><path d="m15.9708 23.002c-1.1084 0-2.1369-.271-3.0156-.7327-.2995-.1606-.6191.1807-.4293.4718.7289 1.1342 2.007 1.887 3.4449 1.887 1.4378 0 2.7159-.7528 3.4449-1.887.1797-.2811-.1298-.6224-.4294-.4718-.8787.4718-1.9072.7327-3.0155.7327z" fill="url(#T)"/><g filter="url(#k)"><path d="m27.1136 4.6116c.2.60076-.25 1.22153-.88 1.22153h-.4628c-.1053 0-.1403.14103-.0472.19024 2.09 1.1214 3.39 3.29412 3.37 5.65703v1.8724c0 .7109-.58 1.2916-1.29 1.2916h-.2894c-.1343 0-.2446.1062-.2498.2404l-.0108.2802-.06 1.4819c-.02.5507-.47.9812-1.02.9812l.12-3.6746c.04-1.2716-.97-2.3129-2.23-2.3129h-5.17c-2.3428 0-4.4068-1.1913-5.6273-2.9907-.0501-.07388-.1683-.05386-.193.0319-.4921 1.7039-2.0645 2.9588-3.92967 2.9588h-1.24c-1.13 0-2.04.9312-2.01 2.0626.03571 1.3087.09634 2.6127.1414 3.921-.55 0-1.0214-.4266-1.0414-.9773l-.06121-1.6779c-.00491-.1344-.11531-.2409-.24984-.2409h-.33895c-.84473 0-1.25-.7-1.25-1.5455v-2.9037c0-3.60447 2.92-6.52812 6.52-6.52812.29152 0 .52987-.22181.62317-.49801.3185-.94306 1.1931-1.62465 2.2368-1.62465h10.83c1.78 0 3.3 1.17147 3.81 2.78348z" fill="url(#U)"/><path d="m27.1136 4.6116c.2.60076-.25 1.22153-.88 1.22153h-.4628c-.1053 0-.1403.14103-.0472.19024 2.09 1.1214 3.39 3.29412 3.37 5.65703v1.8724c0 .7109-.58 1.2916-1.29 1.2916h-.2894c-.1343 0-.2446.1062-.2498.2404l-.0108.2802-.06 1.4819c-.02.5507-.47.9812-1.02.9812l.12-3.6746c.04-1.2716-.97-2.3129-2.23-2.3129h-5.17c-2.3428 0-4.4068-1.1913-5.6273-2.9907-.0501-.07388-.1683-.05386-.193.0319-.4921 1.7039-2.0645 2.9588-3.92967 2.9588h-1.24c-1.13 0-2.04.9312-2.01 2.0626.03571 1.3087.09634 2.6127.1414 3.921-.55 0-1.0214-.4266-1.0414-.9773l-.06121-1.6779c-.00491-.1344-.11531-.2409-.24984-.2409h-.33895c-.84473 0-1.25-.7-1.25-1.5455v-2.9037c0-3.60447 2.92-6.52812 6.52-6.52812.29152 0 .52987-.22181.62317-.49801.3185-.94306 1.1931-1.62465 2.2368-1.62465h10.83c1.78 0 3.3 1.17147 3.81 2.78348z" fill="url(#V)"/><path d="m27.1136 4.6116c.2.60076-.25 1.22153-.88 1.22153h-.4628c-.1053 0-.1403.14103-.0472.19024 2.09 1.1214 3.39 3.29412 3.37 5.65703v1.8724c0 .7109-.58 1.2916-1.29 1.2916h-.2894c-.1343 0-.2446.1062-.2498.2404l-.0108.2802-.06 1.4819c-.02.5507-.47.9812-1.02.9812l.12-3.6746c.04-1.2716-.97-2.3129-2.23-2.3129h-5.17c-2.3428 0-4.4068-1.1913-5.6273-2.9907-.0501-.07388-.1683-.05386-.193.0319-.4921 1.7039-2.0645 2.9588-3.92967 2.9588h-1.24c-1.13 0-2.04.9312-2.01 2.0626.03571 1.3087.09634 2.6127.1414 3.921-.55 0-1.0214-.4266-1.0414-.9773l-.06121-1.6779c-.00491-.1344-.11531-.2409-.24984-.2409h-.33895c-.84473 0-1.25-.7-1.25-1.5455v-2.9037c0-3.60447 2.92-6.52812 6.52-6.52812.29152 0 .52987-.22181.62317-.49801.3185-.94306 1.1931-1.62465 2.2368-1.62465h10.83c1.78 0 3.3 1.17147 3.81 2.78348z" fill="url(#W)"/><path d="m27.1136 4.6116c.2.60076-.25 1.22153-.88 1.22153h-.4628c-.1053 0-.1403.14103-.0472.19024 2.09 1.1214 3.39 3.29412 3.37 5.65703v1.8724c0 .7109-.58 1.2916-1.29 1.2916h-.2894c-.1343 0-.2446.1062-.2498.2404l-.0108.2802-.06 1.4819c-.02.5507-.47.9812-1.02.9812l.12-3.6746c.04-1.2716-.97-2.3129-2.23-2.3129h-5.17c-2.3428 0-4.4068-1.1913-5.6273-2.9907-.0501-.07388-.1683-.05386-.193.0319-.4921 1.7039-2.0645 2.9588-3.92967 2.9588h-1.24c-1.13 0-2.04.9312-2.01 2.0626.03571 1.3087.09634 2.6127.1414 3.921-.55 0-1.0214-.4266-1.0414-.9773l-.06121-1.6779c-.00491-.1344-.11531-.2409-.24984-.2409h-.33895c-.84473 0-1.25-.7-1.25-1.5455v-2.9037c0-3.60447 2.92-6.52812 6.52-6.52812.29152 0 .52987-.22181.62317-.49801.3185-.94306 1.1931-1.62465 2.2368-1.62465h10.83c1.78 0 3.3 1.17147 3.81 2.78348z" fill="url(#X)"/><path d="m27.1136 4.6116c.2.60076-.25 1.22153-.88 1.22153h-.4628c-.1053 0-.1403.14103-.0472.19024 2.09 1.1214 3.39 3.29412 3.37 5.65703v1.8724c0 .7109-.58 1.2916-1.29 1.2916h-.2894c-.1343 0-.2446.1062-.2498.2404l-.0108.2802-.06 1.4819c-.02.5507-.47.9812-1.02.9812l.12-3.6746c.04-1.2716-.97-2.3129-2.23-2.3129h-5.17c-2.3428 0-4.4068-1.1913-5.6273-2.9907-.0501-.07388-.1683-.05386-.193.0319-.4921 1.7039-2.0645 2.9588-3.92967 2.9588h-1.24c-1.13 0-2.04.9312-2.01 2.0626.03571 1.3087.09634 2.6127.1414 3.921-.55 0-1.0214-.4266-1.0414-.9773l-.06121-1.6779c-.00491-.1344-.11531-.2409-.24984-.2409h-.33895c-.84473 0-1.25-.7-1.25-1.5455v-2.9037c0-3.60447 2.92-6.52812 6.52-6.52812.29152 0 .52987-.22181.62317-.49801.3185-.94306 1.1931-1.62465 2.2368-1.62465h10.83c1.78 0 3.3 1.17147 3.81 2.78348z" fill="url(#Y)"/><path d="m27.1136 4.6116c.2.60076-.25 1.22153-.88 1.22153h-.4628c-.1053 0-.1403.14103-.0472.19024 2.09 1.1214 3.39 3.29412 3.37 5.65703v1.8724c0 .7109-.58 1.2916-1.29 1.2916h-.2894c-.1343 0-.2446.1062-.2498.2404l-.0108.2802-.06 1.4819c-.02.5507-.47.9812-1.02.9812l.12-3.6746c.04-1.2716-.97-2.3129-2.23-2.3129h-5.17c-2.3428 0-4.4068-1.1913-5.6273-2.9907-.0501-.07388-.1683-.05386-.193.0319-.4921 1.7039-2.0645 2.9588-3.92967 2.9588h-1.24c-1.13 0-2.04.9312-2.01 2.0626.03571 1.3087.09634 2.6127.1414 3.921-.55 0-1.0214-.4266-1.0414-.9773l-.06121-1.6779c-.00491-.1344-.11531-.2409-.24984-.2409h-.33895c-.84473 0-1.25-.7-1.25-1.5455v-2.9037c0-3.60447 2.92-6.52812 6.52-6.52812.29152 0 .52987-.22181.62317-.49801.3185-.94306 1.1931-1.62465 2.2368-1.62465h10.83c1.78 0 3.3 1.17147 3.81 2.78348z" fill="url(#Z)"/></g><path d="m20.7802 15.33c1.4551 0 2.6843 1.0032 3.0187 2.3589.0994.3887-.1988.7592-.5965.7592h-4.971c-.3163 0-.5694-.2892-.5061-.6055.2802-1.4281 1.5365-2.5126 3.0549-2.5126z" fill="#fff"/><path d="m20.3192 15.9355c1.1027 0 1.9884.8948 1.9884 1.9884 0 .1808-.0271.3615-.0723.5242h-3.8412c-.0452-.1717-.0723-.3434-.0723-.5242 0-1.0936.8948-1.9884 1.9974-1.9884z" fill="url(#ab)"/><path d="m19.1804 17.9239c0-.6327.5062-1.1388 1.1388-1.1388.6327 0 1.1388.5061 1.1388 1.1388 0 .1898-.0452.3706-.1265.5242h-2.0155c-.0904-.1536-.1356-.3344-.1356-.5242z" fill="#000"/><g filter="url(#l)"><path d="m20.173 16.3558c.1416.1895-.1545.4205-.4912.6722-.3367.2518-.5864.4289-.7281.2394-.1417-.1894.0164-.5471.3531-.7988.3367-.2518.7245-.3022.8662-.1128z" fill="#c7a7a3"/><path d="m20.173 16.3558c.1416.1895-.1545.4205-.4912.6722-.3367.2518-.5864.4289-.7281.2394-.1417-.1894.0164-.5471.3531-.7988.3367-.2518.7245-.3022.8662-.1128z" fill="url(#ad)"/></g><g filter="url(#m)"><path d="m22.0903 17.6621c-.0734-.5141-.3742-.9015-.5154-1.0309l-.579.6355.2612.5084z" fill="url(#af)"/></g><path d="m11.1659 15.3419c-1.44964 0-2.67413.9994-3.00727 2.3499-.09904.3872.19808.7563.59424.7563h4.95203c.3151 0 .5672-.2881.5042-.6032-.2791-1.4226-1.5396-2.503-3.0432-2.503z" fill="#fff"/><path d="m11.625 15.9451c-1.0984 0-1.98077.8913-1.98077 1.9808 0 .1801.02701.3601.07203.5222h3.82654c.045-.1711.072-.3421.072-.5222-.009-1.0895-.8913-1.9808-1.9898-1.9808z" fill="url(#ag)"/><path d="m12.7595 17.9259c0-.6303-.5042-1.1345-1.1345-1.1345-.6302 0-1.1344.5042-1.1344 1.1345 0 .1891.045.3691.126.5222h2.0078c.0811-.1531.1351-.3331.1351-.5222z" fill="#000"/><g filter="url(#n)"><path d="m13.4347 17.6932c0-.6401-.5206-1.0669-.6612-1.1958l-.6401.619.3939.8019z" fill="url(#ah)"/></g><g filter="url(#o)"><ellipse cx="11.0274" cy="16.7914" fill="#c7a7a3" fill-opacity=".9" rx=".864727" ry=".437632" transform="matrix(.88365127 -.46814574 .46814574 .88365127 -6.577798 7.116089)"/><ellipse cx="11.0274" cy="16.7914" fill="url(#ai)" rx=".864727" ry=".437632" transform="matrix(.88365127 -.46814574 .46814574 .88365127 -6.577798 7.116089)"/></g><g filter="url(#p)"><path d="m17.4316 20.7805c.1172.2488.1034.5602-.0948.8054-.4252.5177-1.0736.8231-1.7837.7596-.6996-.0626-1.2939-.479-1.6101-1.063-.1516-.2764-.11-.5854.0495-.8095l1.3469-2.4834c.1256-.2315.3767-.3662.639-.3428.2623.0235.4856.2006.5681.4507z" fill="url(#aj)"/></g><g filter="url(#q)"><path d="m17.6138 20.1818c.1325.2264.1459.5235-.0216.7732-.36.5279-.95.8731-1.63.8731-.67 0-1.27-.3452-1.62-.8731-.1675-.2497-.1542-.5468-.0217-.7732l1.0687-2.4738c.0996-.2306.3268-.3799.578-.3799.2512 0 .4783.1493.5779.3799z" fill="#f9c5ae"/><path d="m17.6138 20.1818c.1325.2264.1459.5235-.0216.7732-.36.5279-.95.8731-1.63.8731-.67 0-1.27-.3452-1.62-.8731-.1675-.2497-.1542-.5468-.0217-.7732l1.0687-2.4738c.0996-.2306.3268-.3799.578-.3799.2512 0 .4783.1493.5779.3799z" fill="url(#ak)"/><path d="m17.6138 20.1818c.1325.2264.1459.5235-.0216.7732-.36.5279-.95.8731-1.63.8731-.67 0-1.27-.3452-1.62-.8731-.1675-.2497-.1542-.5468-.0217-.7732l1.0687-2.4738c.0996-.2306.3268-.3799.578-.3799.2512 0 .4783.1493.5779.3799z" fill="url(#al)"/><path d="m17.6138 20.1818c.1325.2264.1459.5235-.0216.7732-.36.5279-.95.8731-1.63.8731-.67 0-1.27-.3452-1.62-.8731-.1675-.2497-.1542-.5468-.0217-.7732l1.0687-2.4738c.0996-.2306.3268-.3799.578-.3799.2512 0 .4783.1493.5779.3799z" fill="url(#am)"/><path d="m17.6138 20.1818c.1325.2264.1459.5235-.0216.7732-.36.5279-.95.8731-1.63.8731-.67 0-1.27-.3452-1.62-.8731-.1675-.2497-.1542-.5468-.0217-.7732l1.0687-2.4738c.0996-.2306.3268-.3799.578-.3799.2512 0 .4783.1493.5779.3799z" fill="url(#an)"/><path d="m17.6138 20.1818c.1325.2264.1459.5235-.0216.7732-.36.5279-.95.8731-1.63.8731-.67 0-1.27-.3452-1.62-.8731-.1675-.2497-.1542-.5468-.0217-.7732l1.0687-2.4738c.0996-.2306.3268-.3799.578-.3799.2512 0 .4783.1493.5779.3799z" fill="url(#ao)"/></g><g filter="url(#r)"><path d="m24.2813 5.82812c-.8437-.33333-3.2437-1.0625-6.0937-1.3125" stroke="#443e40" stroke-linecap="round" stroke-width=".25"/></g><g filter="url(#s)"><path d="m12.4514 6.03125c.1979.79167.9875 2.71875 2.5625 4.09375" stroke="url(#ap)" stroke-linecap="round" stroke-width=".25"/></g><g filter="url(#t)"><path d="m18.8477 5.4871c-2.2835 1.04307-3.2068 2.99532-3.383 3.84105.5991-.19968 2.3751-.60611 4.6868-.6343s3.8763.41112 4.3697.6343l.8809-3.84105c-1.2333-.43462-4.2709-1.04308-6.5544 0z" fill="url(#aq)"/></g><g filter="url(#u)"><rect fill="url(#ar)" height="3.15606" rx=".238482" transform="matrix(.99834026 .05759103 -.05759103 .99834026 .850454 -1.511947)" width=".476964" x="26.6566" y="13.9989"/></g><g filter="url(#v)"><rect fill="url(#as)" height="3.8004" rx=".164737" transform="matrix(-.999188 .040301 .040301 .999188 5.28854 13.4478)" width=".329475"/></g></svg>