<svg fill="none" height="32" viewBox="0 0 32 32" width="32" xmlns="http://www.w3.org/2000/svg" xmlns:xlink="http://www.w3.org/1999/xlink"><filter id="a" color-interpolation-filters="sRGB" filterUnits="userSpaceOnUse" height="28.275" width="18.2516" x="6.87422" y="1.8625"><feFlood flood-opacity="0" result="BackgroundImageFix"/><feBlend in="SourceGraphic" in2="BackgroundImageFix" mode="normal" result="shape"/><feColorMatrix in="SourceAlpha" result="hardAlpha" type="matrix" values="0 0 0 0 0 0 0 0 0 0 0 0 0 0 0 0 0 0 127 0"/><feOffset dx=".2"/><feGaussianBlur stdDeviation=".2"/><feComposite in2="hardAlpha" k2="-1" k3="1" operator="arithmetic"/><feColorMatrix type="matrix" values="0 0 0 0 0.4 0 0 0 0 0.4 0 0 0 0 0.498039 0 0 0 1 0"/><feBlend in2="shape" mode="normal" result="effect1_innerShadow_18_19755"/><feColorMatrix in="SourceAlpha" result="hardAlpha" type="matrix" values="0 0 0 0 0 0 0 0 0 0 0 0 0 0 0 0 0 0 127 0"/><feOffset dx="-.2" dy=".2"/><feGaussianBlur stdDeviation=".2"/><feComposite in2="hardAlpha" k2="-1" k3="1" operator="arithmetic"/><feColorMatrix type="matrix" values="0 0 0 0 0.521569 0 0 0 0 0.52549 0 0 0 0 0.709804 0 0 0 1 0"/><feBlend in2="effect1_innerShadow_18_19755" mode="normal" result="effect2_innerShadow_18_19755"/><feColorMatrix in="SourceAlpha" result="hardAlpha" type="matrix" values="0 0 0 0 0 0 0 0 0 0 0 0 0 0 0 0 0 0 127 0"/><feOffset dy="-.2"/><feGaussianBlur stdDeviation=".2"/><feComposite in2="hardAlpha" k2="-1" k3="1" operator="arithmetic"/><feColorMatrix type="matrix" values="0 0 0 0 0.478431 0 0 0 0 0.380392 0 0 0 0 0.619608 0 0 0 1 0"/><feBlend in2="effect2_innerShadow_18_19755" mode="normal" result="effect3_innerShadow_18_19755"/></filter><filter id="b" color-interpolation-filters="sRGB" filterUnits="userSpaceOnUse" height="17.5938" width="12.875" x="9.5625" y="1.6875"><feFlood flood-opacity="0" result="BackgroundImageFix"/><feBlend in="SourceGraphic" in2="BackgroundImageFix" mode="normal" result="shape"/><feGaussianBlur result="effect1_foregroundBlur_18_19755" stdDeviation=".125"/></filter><filter id="c" color-interpolation-filters="sRGB" filterUnits="userSpaceOnUse" height="16.8438" width="12.525" x="9.6875" y="2.0625"><feFlood flood-opacity="0" result="BackgroundImageFix"/><feBlend in="SourceGraphic" in2="BackgroundImageFix" mode="normal" result="shape"/><feColorMatrix in="SourceAlpha" result="hardAlpha" type="matrix" values="0 0 0 0 0 0 0 0 0 0 0 0 0 0 0 0 0 0 127 0"/><feOffset dx="-.25"/><feGaussianBlur stdDeviation=".2"/><feComposite in2="hardAlpha" k2="-1" k3="1" operator="arithmetic"/><feColorMatrix type="matrix" values="0 0 0 0 0.239216 0 0 0 0 0.141176 0 0 0 0 0.333333 0 0 0 1 0"/><feBlend in2="shape" mode="normal" result="effect1_innerShadow_18_19755"/><feColorMatrix in="SourceAlpha" result="hardAlpha" type="matrix" values="0 0 0 0 0 0 0 0 0 0 0 0 0 0 0 0 0 0 127 0"/><feOffset dx=".15"/><feGaussianBlur stdDeviation=".125"/><feComposite in2="hardAlpha" k2="-1" k3="1" operator="arithmetic"/><feColorMatrix type="matrix" values="0 0 0 0 0.4 0 0 0 0 0.321569 0 0 0 0 0.466667 0 0 0 1 0"/><feBlend in2="effect1_innerShadow_18_19755" mode="normal" result="effect2_innerShadow_18_19755"/></filter><radialGradient id="d" cx="0" cy="0" gradientTransform="matrix(0 15.5 -14.8125 0 19.375 8.1875)" gradientUnits="userSpaceOnUse" r="1"><stop offset="0" stop-color="#7f7da4"/><stop offset="1" stop-color="#50437f"/></radialGradient><radialGradient id="e" cx="0" cy="0" gradientTransform="matrix(2.56250011 -9.125004 11.48830608 3.22616687 13.4375 31)" gradientUnits="userSpaceOnUse" r="1"><stop offset="0" stop-color="#4b367a"/><stop offset="1" stop-color="#4b367a" stop-opacity="0"/></radialGradient><radialGradient id="f" cx="0" cy="0" gradientTransform="matrix(6.62497561 11.93746979 -23.84564807 13.23369521 9.375 3.625)" gradientUnits="userSpaceOnUse" r="1"><stop offset="0" stop-color="#616293"/><stop offset="1" stop-color="#616293" stop-opacity="0"/></radialGradient><linearGradient id="g" gradientUnits="userSpaceOnUse" x1="16.2187" x2="16.2187" y1="16.875" y2="3.09375"><stop offset="0" stop-color="#625b87"/><stop offset="1" stop-color="#625b87" stop-opacity="0"/></linearGradient><radialGradient id="h" cx="0" cy="0" gradientTransform="matrix(-5.3436924 6.75004474 -7.06061522 -5.58955641 18.9063 8.40625)" gradientUnits="userSpaceOnUse" r="1"><stop offset=".174552" stop-color="#ff4471"/><stop offset="1" stop-color="#c9274f"/></radialGradient><radialGradient id="i" cx="0" cy="0" gradientTransform="matrix(0 6.6875 -7.77422 0 16 9.3125)" gradientUnits="userSpaceOnUse" r="1"><stop offset=".897196" stop-color="#c72361" stop-opacity="0"/><stop offset="1" stop-color="#c72361"/></radialGradient><linearGradient id="j" gradientUnits="userSpaceOnUse" x1="18.0088" x2="16.4362" y1="8.46778" y2="10.8745"><stop offset=".391304" stop-color="#fff"/><stop offset="1" stop-color="#fff" stop-opacity="0"/></linearGradient><g filter="url(#a)"><path d="m7.07422 6.7625c0-2.59574 2.10426-4.7 4.69998-4.7h8.4516c2.5957 0 4.7 2.10426 4.7 4.7v18.675c0 2.4853-2.0147 4.5-4.5 4.5h-8.8516c-2.48526 0-4.49998-2.0147-4.49998-4.5z" fill="url(#d)"/><path d="m7.07422 6.7625c0-2.59574 2.10426-4.7 4.69998-4.7h8.4516c2.5957 0 4.7 2.10426 4.7 4.7v18.675c0 2.4853-2.0147 4.5-4.5 4.5h-8.8516c-2.48526 0-4.49998-2.0147-4.49998-4.5z" fill="url(#e)"/><path d="m7.07422 6.7625c0-2.59574 2.10426-4.7 4.69998-4.7h8.4516c2.5957 0 4.7 2.10426 4.7 4.7v18.675c0 2.4853-2.0147 4.5-4.5 4.5h-8.8516c-2.48526 0-4.49998-2.0147-4.49998-4.5z" fill="url(#f)"/></g><g filter="url(#b)"><path d="m16.5391 2.0625h-1.0782v2.89864c-3.0957.27276-5.5234 2.87231-5.5234 6.03886 0 3.1665 2.4277 5.7661 5.5234 6.0389v1.3283c0 .2977.2414.539.5391.539s.5391-.2413.5391-.539v-1.3283c3.0957-.2728 5.5234-2.8724 5.5234-6.0389 0-3.16655-2.4277-5.7661-5.5234-6.03886z" stroke="url(#g)" stroke-width=".25"/></g><g filter="url(#c)"><path d="m16.5391 2.0625h-1.0782v2.89864c-3.0957.27276-5.5234 2.87231-5.5234 6.03886 0 3.1665 2.4277 5.7661 5.5234 6.0389v1.3283c0 .2977.2414.539.5391.539s.5391-.2413.5391-.539v-1.3283c3.0957-.2728 5.5234-2.8724 5.5234-6.0389 0-3.16655-2.4277-5.7661-5.5234-6.03886z" fill="#543a65"/></g><circle cx="16" cy="11" fill="url(#h)" r="5"/><circle cx="16" cy="11" fill="url(#i)" r="5"/><ellipse cx="17.4893" cy="9.64305" fill="url(#j)" rx="1.37697" ry="1.75278" transform="matrix(.83713111 -.5470023 .5470023 .83713111 -2.426308 11.13724)"/></svg>