<svg enable-background="new 0 0 128 128" viewBox="0 0 32 32" xmlns="http://www.w3.org/2000/svg"><path d="m26.3174 2h-20.63477c-2.03146 0-3.68263 1.65119-3.68263 3.68264v20.63476c0 2.0314 1.65117 3.6826 3.68263 3.6826h1.31737l.49023-.6992.49024.6992h1.05859l.48828-.6992.48826.6992h4.9844l5.4266-1.9951 5.6267 1.9951h.2641c2.0314 0 3.6826-1.6512 3.6826-3.6826v-20.63476c0-2.03145-1.6412-3.68264-3.6826-3.68264z" fill="#321b41"/><path d="m20.515 15c3.0458 0 5.515-2.4691 5.515-5.515 0-3.04585-2.4692-5.515-5.515-5.515s-5.515 2.46915-5.515 5.515c0 3.0459 2.4692 5.515 5.515 5.515z" fill="#ffdea7"/><path d="m26.0784 22.52h-11.0784v7.48h11.0784z" fill="#e19747"/><path d="m22.21 15.38c0 .2603-.0603.5066-.1677.7256.747.1576 1.3076.8205 1.3076 1.6144 0 .3366-.1007.6496-.2737.9106.0145-.0004.0291-.0006.0438-.0006.9112 0 1.65.7387 1.65 1.65s-.7388 1.65-1.65 1.65c-.5165 0-.9775-.2373-1.28-.6087-.3026.3714-.7636.6087-1.28.6087-.5165 0-.9775-.2373-1.28-.6087-.3026.3714-.7636.6087-1.28.6087-.9113 0-1.65-.7387-1.65-1.65 0-.8795.688-1.5982 1.5552-1.6473-.1739-.2614-.2752-.5752-.2752-.9127 0-.8391.6264-1.532 1.4371-1.6364-.1008-.2134-.1571-.4519-.1571-.7036 0-.9113.7387-1.65 1.65-1.65.9112 0 1.65.7387 1.65 1.65z" fill="#f4f4f4"/><path d="m20.3337 18.6454c-.1791-.2639-.2837-.5824-.2837-.9254 0-.4332.1669-.8274.44-1.1218-.3014-.3249-.7319-.5282-1.21-.5282-.9113 0-1.65.7387-1.65 1.65 0 .3375.1013.6513.2752.9127.0314-.0018.063-.0027.0948-.0027.5164 0 .9775.2373 1.28.6087-.2313.284-.37.6465-.37 1.0413 0 .9113.7387 1.65 1.65 1.65.5164 0 .9774-.2373 1.28-.6087-.2313-.284-.37-.6465-.37-1.0413s.1387-.7573.37-1.0413c-.3026-.3714-.7636-.6087-1.28-.6087-.0768 0-.1523.0052-.2263.0154z" fill="#d3d3d3"/><path d="m25.8723 24h-10.7442c-.6206 0-1.1277-.6744-1.1277-1.5s.5071-1.5 1.1277-1.5h10.7442c.6206 0 1.1277.6744 1.1277 1.5s-.5071 1.5-1.1277 1.5z" fill="#7d4533"/><path d="m20.56 27.34c.6296 0 1.14-.5104 1.14-1.14s-.5104-1.14-1.14-1.14-1.14.5104-1.14 1.14.5104 1.14 1.14 1.14z" fill="#d3883e"/><path d="m4 14.1v11.68c0 .92.74 1.66 1.66 1.66v-11.68c0-.92-.74-1.66-1.66-1.66z" fill="#44911b"/><path d="m6.98987 13.69v16.31h1v-16.31z" fill="#86d72f"/><path d="m9.02209 22.53v7.47h1.00001v-7.47z" fill="#86d72f"/><g fill="#fcd53f"><path d="m10.7229 4h3.98c.38 0 .69.33001.66.71001-.04.34-.34.58999-.68.58999h-4.54c-1.01002.06-.94001 1.58.07 1.58h2.58c.38 0 .69.33001.65.72001-.04.34-.34.58999-.68.58999h-3.83001c-.44 0-.80002.36001-.80002.80001s.36002.8.80002.8h1.74001c.38 0 .69.32999.65.71999-.04.34-.34.59-.68.59h-1.73c-.43 0-.78003.35-.78003.78v2.5c0 .38-.32997.69-.71997.65-.34-.04-.59002-.34-.59002-.68v-6.44999c0-2.15 1.74002-3.90001 3.90002-3.90001z"/><path d="m12.7921 14.02h2.01c.38 0 .68.32.66.71-.04.34-.34.59-.68.59h-2.57c-1.01.06-.94 1.58.07 1.58h1.22c.38 0 .69.33.65.72-.04.34-.34.59-.68.59h-2.47c-.44 0-.8.36-.8.8s.36.8.8.8h1.59c.38 0 .69.33.65.72-.04.34-.34.59-.68.59h-1.58c-.43 0-.78.35-.78.78v2.5c0 .38-.32998.69-.71998.65-.34-.04-.59-.34-.59-.68v-6.45c0-2.15 1.73998-3.9 3.89998-3.9z"/></g></svg>