<svg fill="none" height="32" viewBox="0 0 32 32" width="32" xmlns="http://www.w3.org/2000/svg"><path d="m26.5 2h-21c-1.933 0-3.5 1.567-3.5 3.5v12.4829h28v-12.4829c0-1.933-1.567-3.5-3.5-3.5z" fill="#50e2ff"/><path d="m2 12.0028v14.4972c0 .8417.29709 1.6139.79211 2.2177.64188.7828 1.61655.4168 2.70789.4168h21c1.1009 0 2.0831.3572 2.7247-.4375.4842-.5998.7744-1.3627.7753-2.1933v-.0037-14.5c-3.4943.005-5.2399 1.0926-6.9845 2.1796-1.7466 1.0883-3.4923 2.1759-6.9905 2.1759-3.4975 0-5.2582-1.089-7.01815-2.1775-1.75873-1.0878-3.51684-2.1752-7.00685-2.1752z" fill="#00d26a"/><path d="m27.8795 28-9.8395-11.8153c-.56.0699-3.55.1598-4.12.0899l-9.86299 11.7254z" fill="#1c1c1c"/><path d="m5.50001 30h20.99999c1.1103 0 2.0998-.517 2.741-1.3234l-1.139-1.3004c-.1798-.2079-.5494-.3762-.8191-.3762h-22.41597c-.2797 0-.6493.1584-.8391.3663l-1.25299 1.3301c.64159.7951 1.62399 1.3036 2.72517 1.3036zm12.70999-13.0061c.27 0 .5-.0795.5-.1689 0-.0895-.12-.3181-.27-.497s-.49-.328-.77-.328h-3.25c-.28 0-.63.1491-.8.328s-.3.4075-.3.497c0 .0994.22.1689.5.1689zm3 2.6761c0 .18-.23.33-.5.33h-9.42c-.27 0-.5-.15-.5-.33s.15-.5.34-.7l.55-.6c.19-.2.56-.37.84-.37h7.07c.28 0 .64.17.82.38l.48.57c.18.22.32.54.32.72zm4.2 4.8317c0 .2691-.23.4983-.5.4983h-17.84999c-.27 0-.5-.2193-.5-.4983 0-.2691.15-.6578.34-.8671l1.19-1.2658c.19-.1994.57-.3688.84-.3688h14.26999c.28 0 .65.1694.82.3787l1.06 1.2359c.18.2193.33.618.33.8871z" fill="#8c5543"/><path d="m18.21 16.655c.27 0 .5.0798.5.1695s-.22.1595-.5.1694h-4.39c-.28 0-.5-.0797-.5-.1694 0-.0997.22-.1695.5-.1695zm3 3.0057c0-.1851-.23-.3393-.5-.3393h-9.42c-.27 0-.5.1542-.5.3393s.22.3393.5.3393h9.42c.28 0 .5-.1542.5-.3393zm4.29 4.8393c0-.27-.2318-.5-.504-.5h-17.99202c-.27215 0-.50398.22-.50398.5 0 .27.23183.5.50398.5h17.99202c.2722 0 .504-.22.504-.5z" fill="#6d4534"/><path d="m5.5 30h1l9.3-14h-.61zm21.04 0h-1l-9.27-14h.62z" fill="#9b9b9b"/><path d="m5 30h1l9.65-14h-.61zm22.04 0h-1l-9.62-14h.62z" fill="#d3d3d3"/></svg>