<svg enable-background="new 0 0 128 128" viewBox="0 0 128 128" xmlns="http://www.w3.org/2000/svg"><g transform="scale(4)"><path d="m9.57997 2.58405-.4 5.07c-.02.25.18.47.43.47l5.09003-.03c.39-.01.59-.46.33-.74l-1.19-1.28c-.12-.12-.11-.32.02-.42.7-.55 1.61-.88 2.57-.84 1.8.07 3.27 1.46 3.64 3.14.02.09.1.16.2.16h2.43c.13 0 .23-.12.21-.24-.44-3.16-3.08-5.75-6.38-5.87-1.75-.06-3.38.55-4.61 1.61-.12.1-.29.09-.4-.02l-1.18-1.27c-.26-.28-.73003-.12-.76003.26z" fill="#00a6ed"/><path d="m22.3324 29.54.4-5.07c.02-.25-.18-.46-.43-.47l-5.09.03c-.39.01-.59.46-.33.74l1.19 1.28c.12.12.11.32-.02.42-.7.55-1.61.88-2.57.84-1.8-.07-3.27-1.46-3.64-3.14-.02-.09-.1-.16-.2-.16h-2.43003c-.12 0-.23.11-.21.24.44 3.16 3.08003 5.75 6.38003 5.87 1.75.06 3.38-.55 4.61-1.61.12-.1.29-.09.4.02l1.18 1.27c.26.28.73.12.76-.26z" fill="#00a6ed"/><g fill="#533566"><path d="m4.99998 9c0-.55228.44772-1 1-1 .55229 0 1 .44772 1 1v1.1281c1.1126.2681 1.82314.9225 2.23817 1.632.25354.4334.38115.8579.44658 1.1683.03312.1571.05151.2907.06178.3896.00515.0495.00831.0908.01025.1226.00097.0158.00163.0294.00209.0404l.00055.0146.00018.0058.00007.0026.00003.0012c.00001.0005.00003.0011-.99969.0248l.99972-.0237c.01309.5521-.42388 1.0103-.97601 1.0234-.54872.013-1.00467-.4185-1.02314-.9658l-.00008-.0013c-.00032-.0053-.00123-.0184-.00326-.038-.00411-.0395-.0126-.1036-.02948-.1836-.03456-.164-.09946-.372-.21591-.5711-.19772-.338-.60088-.7699-1.65184-.7699-1.14239 0-1.50372.3899-1.64802.6198-.19741.3145-.21198.6929-.21198.9102 0 .2066.01782.5416.20399.8176.13738.2036.50615.5824 1.67601.5824 1.74515 0 2.80692.7357 3.36588 1.6814.50767.859.51412 1.7499.51412 1.9686 0 .3894-.16919 1.1798-.72669 1.8915-.44352.5662-1.10626 1.0484-2.03332 1.2655v1.263c0 .5523-.44771 1-1 1-.55228 0-1-.4477-1-1v-1.2242c-1.1059-.2213-1.84338-.8465-2.29942-1.484-.27277-.3813-.43993-.7572-.53952-1.0359-.05029-.1407-.0848-.2607-.10755-.3498-.01141-.0447-.01995-.0821-.0261-.1108-.00308-.0143-.00557-.0266-.00752-.0366l-.00254-.0132-.00099-.0054-.00042-.0023-.0002-.0011c-.00009-.0005-.00018-.001.98427-.1767l-.98445.1757c-.09703-.5437.26507-1.0631.80877-1.1601.52325-.0934 1.02401.2384 1.14741.7482.00408.0169.00777.034.01101.0512l.00028.0013c.00107.005.00375.0171.00839.0353.00935.0366.0262.0963.05297.1712.05454.1526.14434.3517.28287.5454.2549.3564.69103.7318 1.55275.7318.93421 0 1.36126-.3441 1.57885-.6219.22561-.288.28532-.5841.29811-.6475.00224-.0111.00304-.0151.00304-.0106 0-.1408-.01355-.5748-.23588-.951-.17105-.2894-.54927-.699-1.64412-.699-.96696 0-1.73316-.1962-2.32195-.532-.42818-.2441-.76254-.562-1.01205-.9319-.54383-.8061-.546-1.6711-.546-1.9361v-.0066c-.00004-.2626-.00017-1.1413.51802-1.9669.47159-.7513 1.274-1.3162 2.48197-1.4959z"/><path d="m23.9618 10.887c-.255-.4899-.8589-.6803-1.3488-.4253-.4898.255-.6802.8589-.4252 1.3488l2.7015 5.1895h-1.8893c-.5523 0-1 .4477-1 1s.4477 1 1 1h2v1h-2c-.5523 0-1 .4477-1 1s.4477 1 1 1h2v1c0 .5523.4477 1 1 1s1-.4477 1-1v-1h2c.5523 0 1-.4477 1-1s-.4477-1-1-1h-2v-1h2c.5523 0 1-.4477 1-1s-.4477-1-1-1h-1.8892l2.7015-5.1895c.255-.4899.0646-1.0938-.4252-1.3488-.4899-.255-1.0938-.0646-1.3488.4253l-2.0382 3.9154z"/></g></g></svg>