<svg enable-background="new 0 0 128 128" viewBox="0 0 32 32" xmlns="http://www.w3.org/2000/svg"><path d="m25.5799 20.33c.16-1.89-.33-3.72 1.01-5.06l.83-.83c2.36-2.36 2.36-6.19998 0-8.55998l-1.86-1.86-1.34 1.34c-1.49.04-2.97.63-4.11 1.77l-.21.2c-1.34 1.34-3.11 2.16-4.99 2.32-2.5.21-4.84 1.29998-6.61996 3.07998-2.97 2.97-3.78 7.28-2.42 10.98l-.68.68 2.55 2.55c4.07996 4.08 10.68996 4.08 14.76996 0 1.77-1.77 2.86-4.11 3.07-6.61z" fill="#44911b"/><path d="m20.66 2c-1.84 0-3.58.72-4.88 2.02l-.18.19c-.95.95-2.22 1.54-3.57 1.66-2.59.22-5.02 1.35-6.85 3.18-2.05 2.05-3.18 4.78-3.18 7.67 0 2.9 1.13 5.62 3.18 7.67s4.77 3.18 7.67 3.18 5.62-1.13 7.67-3.18c1.83-1.83 2.97-4.27 3.19-6.85.11-1.35.7-2.61 1.66-3.57l.19-.19c1.3-1.3 2.02-3.04 2.02-4.88s-.72-3.58-2.02-4.88c-1.32-1.3-3.05-2.02-4.9-2.02z" fill="#008463"/><path d="m24.3201 12.93.19-.19c2.12-2.12 2.12-5.56003 0-7.68003s-5.56-2.12-7.68 0l-.19.19c-1.2 1.2-2.79 1.94-4.48 2.08-2.25.19-4.35 1.17-5.94 2.76003-3.66 3.66-3.66 9.59 0 13.25s9.59 3.66 13.25 0c1.59-1.59 2.57-3.69 2.76-5.94.15-1.68.89-3.27 2.09-4.47z" fill="#c3ef3c"/><path d="m13.2899 20.69c2.408 0 4.36-1.9521 4.36-4.36 0-2.408-1.952-4.36-4.36-4.36-2.4079 0-4.35997 1.952-4.35997 4.36 0 2.4079 1.95207 4.36 4.35997 4.36z" fill="#6d4534"/></svg>