<svg fill="none" height="32" viewBox="0 0 32 32" width="32" xmlns="http://www.w3.org/2000/svg" xmlns:xlink="http://www.w3.org/1999/xlink"><filter id="a" color-interpolation-filters="sRGB" filterUnits="userSpaceOnUse" height="14.7867" width="12.8295" x="13.5157" y="6.89935"><feFlood flood-opacity="0" result="BackgroundImageFix"/><feBlend in="SourceGraphic" in2="BackgroundImageFix" mode="normal" result="shape"/><feColorMatrix in="SourceAlpha" result="hardAlpha" type="matrix" values="0 0 0 0 0 0 0 0 0 0 0 0 0 0 0 0 0 0 127 0"/><feOffset dx=".75"/><feGaussianBlur stdDeviation=".6"/><feComposite in2="hardAlpha" k2="-1" k3="1" operator="arithmetic"/><feColorMatrix type="matrix" values="0 0 0 0 0.823529 0 0 0 0 0.623529 0 0 0 0 0.313726 0 0 0 1 0"/><feBlend in2="shape" mode="normal" result="effect1_innerShadow_4002_3859"/><feColorMatrix in="SourceAlpha" result="hardAlpha" type="matrix" values="0 0 0 0 0 0 0 0 0 0 0 0 0 0 0 0 0 0 127 0"/><feOffset dy=".2"/><feGaussianBlur stdDeviation=".375"/><feComposite in2="hardAlpha" k2="-1" k3="1" operator="arithmetic"/><feColorMatrix type="matrix" values="0 0 0 0 0.980392 0 0 0 0 0.54902 0 0 0 0 0.0941176 0 0 0 1 0"/><feBlend in2="effect1_innerShadow_4002_3859" mode="normal" result="effect2_innerShadow_4002_3859"/></filter><filter id="b" color-interpolation-filters="sRGB" filterUnits="userSpaceOnUse" height="5.42761" width="4.21875" x="17.1457" y="12.2184"><feFlood flood-opacity="0" result="BackgroundImageFix"/><feBlend in="SourceGraphic" in2="BackgroundImageFix" mode="normal" result="shape"/><feGaussianBlur result="effect1_foregroundBlur_4002_3859" stdDeviation=".5"/></filter><filter id="c" color-interpolation-filters="sRGB" filterUnits="userSpaceOnUse" height="3.62761" width="2.41875" x="18.2907" y="12.8871"><feFlood flood-opacity="0" result="BackgroundImageFix"/><feBlend in="SourceGraphic" in2="BackgroundImageFix" mode="normal" result="shape"/><feGaussianBlur result="effect1_foregroundBlur_4002_3859" stdDeviation=".05"/></filter><filter id="d" color-interpolation-filters="sRGB" filterUnits="userSpaceOnUse" height="1.76799" width="4.30382" x="17.3481" y="16.9569"><feFlood flood-opacity="0" result="BackgroundImageFix"/><feBlend in="SourceGraphic" in2="BackgroundImageFix" mode="normal" result="shape"/><feGaussianBlur result="effect1_foregroundBlur_4002_3859" stdDeviation=".05"/></filter><filter id="e" color-interpolation-filters="sRGB" filterUnits="userSpaceOnUse" height="9.78571" width="15.2143" x="11.8929" y="3.23602"><feFlood flood-opacity="0" result="BackgroundImageFix"/><feBlend in="SourceGraphic" in2="BackgroundImageFix" mode="normal" result="shape"/><feColorMatrix in="SourceAlpha" result="hardAlpha" type="matrix" values="0 0 0 0 0 0 0 0 0 0 0 0 0 0 0 0 0 0 127 0"/><feOffset dy="-.5"/><feGaussianBlur stdDeviation=".625"/><feComposite in2="hardAlpha" k2="-1" k3="1" operator="arithmetic"/><feColorMatrix type="matrix" values="0 0 0 0 0.945098 0 0 0 0 0.509804 0 0 0 0 0.0627451 0 0 0 1 0"/><feBlend in2="shape" mode="normal" result="effect1_innerShadow_4002_3859"/><feColorMatrix in="SourceAlpha" result="hardAlpha" type="matrix" values="0 0 0 0 0 0 0 0 0 0 0 0 0 0 0 0 0 0 127 0"/><feOffset dy="-.2"/><feGaussianBlur stdDeviation=".2"/><feComposite in2="hardAlpha" k2="-1" k3="1" operator="arithmetic"/><feColorMatrix type="matrix" values="0 0 0 0 0.862745 0 0 0 0 0.486275 0 0 0 0 0.0470588 0 0 0 1 0"/><feBlend in2="effect1_innerShadow_4002_3859" mode="normal" result="effect2_innerShadow_4002_3859"/></filter><filter id="f" color-interpolation-filters="sRGB" filterUnits="userSpaceOnUse" height="1.37059" width="2.74612" x="21.3784" y="9.87532"><feFlood flood-opacity="0" result="BackgroundImageFix"/><feBlend in="SourceGraphic" in2="BackgroundImageFix" mode="normal" result="shape"/><feColorMatrix in="SourceAlpha" result="hardAlpha" type="matrix" values="0 0 0 0 0 0 0 0 0 0 0 0 0 0 0 0 0 0 127 0"/><feOffset dx=".1" dy="-.2"/><feGaussianBlur stdDeviation=".125"/><feComposite in2="hardAlpha" k2="-1" k3="1" operator="arithmetic"/><feColorMatrix type="matrix" values="0 0 0 0 0.603922 0 0 0 0 0.243137 0 0 0 0 0.152941 0 0 0 1 0"/><feBlend in2="shape" mode="normal" result="effect1_innerShadow_4002_3859"/></filter><filter id="g" color-interpolation-filters="sRGB" filterUnits="userSpaceOnUse" height="1.35314" width="2.74612" x="15.1658" y="9.89277"><feFlood flood-opacity="0" result="BackgroundImageFix"/><feBlend in="SourceGraphic" in2="BackgroundImageFix" mode="normal" result="shape"/><feColorMatrix in="SourceAlpha" result="hardAlpha" type="matrix" values="0 0 0 0 0 0 0 0 0 0 0 0 0 0 0 0 0 0 127 0"/><feOffset dx=".1" dy="-.2"/><feGaussianBlur stdDeviation=".125"/><feComposite in2="hardAlpha" k2="-1" k3="1" operator="arithmetic"/><feColorMatrix type="matrix" values="0 0 0 0 0.603922 0 0 0 0 0.243137 0 0 0 0 0.152941 0 0 0 1 0"/><feBlend in2="shape" mode="normal" result="effect1_innerShadow_4002_3859"/></filter><filter id="h" color-interpolation-filters="sRGB" filterUnits="userSpaceOnUse" height="7.49078" width="8.19116" x="12.1085" y="4.22754"><feFlood flood-opacity="0" result="BackgroundImageFix"/><feBlend in="SourceGraphic" in2="BackgroundImageFix" mode="normal" result="shape"/><feGaussianBlur result="effect1_foregroundBlur_4002_3859" stdDeviation=".25"/></filter><filter id="i" color-interpolation-filters="sRGB" filterUnits="userSpaceOnUse" height="7.23523" width="7.97357" x="19.0617" y="4.80591"><feFlood flood-opacity="0" result="BackgroundImageFix"/><feBlend in="SourceGraphic" in2="BackgroundImageFix" mode="normal" result="shape"/><feGaussianBlur result="effect1_foregroundBlur_4002_3859" stdDeviation=".25"/></filter><filter id="j" color-interpolation-filters="sRGB" filterUnits="userSpaceOnUse" height=".786548" width=".893604" x="21.2295" y="12.6082"><feFlood flood-opacity="0" result="BackgroundImageFix"/><feBlend in="SourceGraphic" in2="BackgroundImageFix" mode="normal" result="shape"/><feGaussianBlur result="effect1_foregroundBlur_4002_3859" stdDeviation=".05"/></filter><filter id="k" color-interpolation-filters="sRGB" filterUnits="userSpaceOnUse" height="1.00681" width=".980566" x="22.2403" y="12.715"><feFlood flood-opacity="0" result="BackgroundImageFix"/><feBlend in="SourceGraphic" in2="BackgroundImageFix" mode="normal" result="shape"/><feGaussianBlur result="effect1_foregroundBlur_4002_3859" stdDeviation=".1"/></filter><filter id="l" color-interpolation-filters="sRGB" filterUnits="userSpaceOnUse" height="1.15665" width="1.09299" x="16.9894" y="12.6401"><feFlood flood-opacity="0" result="BackgroundImageFix"/><feBlend in="SourceGraphic" in2="BackgroundImageFix" mode="normal" result="shape"/><feGaussianBlur result="effect1_foregroundBlur_4002_3859" stdDeviation=".1"/></filter><filter id="m" color-interpolation-filters="sRGB" filterUnits="userSpaceOnUse" height=".796313" width="1.04283" x="16.079" y="12.5985"><feFlood flood-opacity="0" result="BackgroundImageFix"/><feBlend in="SourceGraphic" in2="BackgroundImageFix" mode="normal" result="shape"/><feGaussianBlur result="effect1_foregroundBlur_4002_3859" stdDeviation=".05"/></filter><filter id="n" color-interpolation-filters="sRGB" filterUnits="userSpaceOnUse" height="2.72119" width="1.47968" x="12.4156" y="12.5271"><feFlood flood-opacity="0" result="BackgroundImageFix"/><feBlend in="SourceGraphic" in2="BackgroundImageFix" mode="normal" result="shape"/><feGaussianBlur result="effect1_foregroundBlur_4002_3859" stdDeviation=".125"/></filter><filter id="o" color-interpolation-filters="sRGB" filterUnits="userSpaceOnUse" height="2.74957" width="1.61871" x="25.1144" y="12.5085"><feFlood flood-opacity="0" result="BackgroundImageFix"/><feBlend in="SourceGraphic" in2="BackgroundImageFix" mode="normal" result="shape"/><feGaussianBlur result="effect1_foregroundBlur_4002_3859" stdDeviation=".125"/></filter><filter id="p" color-interpolation-filters="sRGB" filterUnits="userSpaceOnUse" height="1.23486" width="2.7063" x="15.1382" y="10.0128"><feFlood flood-opacity="0" result="BackgroundImageFix"/><feBlend in="SourceGraphic" in2="BackgroundImageFix" mode="normal" result="shape"/><feGaussianBlur result="effect1_foregroundBlur_4002_3859" stdDeviation=".125"/></filter><filter id="q" color-interpolation-filters="sRGB" filterUnits="userSpaceOnUse" height="1.23486" width="2.7063" x="21.3775" y="9.95837"><feFlood flood-opacity="0" result="BackgroundImageFix"/><feBlend in="SourceGraphic" in2="BackgroundImageFix" mode="normal" result="shape"/><feGaussianBlur result="effect1_foregroundBlur_4002_3859" stdDeviation=".125"/></filter><filter id="r" color-interpolation-filters="sRGB" filterUnits="userSpaceOnUse" height="12.7567" width="9.21741" x="5.84241" y="12.1581"><feFlood flood-opacity="0" result="BackgroundImageFix"/><feBlend in="SourceGraphic" in2="BackgroundImageFix" mode="normal" result="shape"/><feGaussianBlur result="effect1_foregroundBlur_4002_3859" stdDeviation=".75"/></filter><filter id="s" color-interpolation-filters="sRGB" filterUnits="userSpaceOnUse" height="2.22026" width=".423389" x="4.93931" y="5.09873"><feFlood flood-opacity="0" result="BackgroundImageFix"/><feBlend in="SourceGraphic" in2="BackgroundImageFix" mode="normal" result="shape"/><feGaussianBlur result="effect1_foregroundBlur_4002_3859" stdDeviation=".05"/></filter><filter id="t" color-interpolation-filters="sRGB" filterUnits="userSpaceOnUse" height="2.57183" width=".345264" x="6.52524" y="4.12217"><feFlood flood-opacity="0" result="BackgroundImageFix"/><feBlend in="SourceGraphic" in2="BackgroundImageFix" mode="normal" result="shape"/><feGaussianBlur result="effect1_foregroundBlur_4002_3859" stdDeviation=".05"/></filter><filter id="u" color-interpolation-filters="sRGB" filterUnits="userSpaceOnUse" height="1.6812" width=".509326" x="7.97056" y="5.27061"><feFlood flood-opacity="0" result="BackgroundImageFix"/><feBlend in="SourceGraphic" in2="BackgroundImageFix" mode="normal" result="shape"/><feGaussianBlur result="effect1_foregroundBlur_4002_3859" stdDeviation=".05"/></filter><radialGradient id="v" cx="0" cy="0" gradientTransform="matrix(2.33336383 -6.0423119 7.22854426 2.79145201 6.35951 11.8851)" gradientUnits="userSpaceOnUse" r="1"><stop offset=".474886" stop-color="#f4b937"/><stop offset="1" stop-color="#f2b830"/><stop offset="1" stop-color="#eeb32a"/></radialGradient><radialGradient id="w" cx="0" cy="0" gradientTransform="matrix(-6.25005331 7.24996083 -1.74519094 -1.50449591 10.6237 9.99911)" gradientUnits="userSpaceOnUse" r="1"><stop offset=".146595" stop-color="#d27c28"/><stop offset="1" stop-color="#e9aa33" stop-opacity="0"/></radialGradient><linearGradient id="x" gradientUnits="userSpaceOnUse" x1="6.84242" x2="6.84242" y1="12.546" y2="10.8429"><stop offset="0" stop-color="#c77505"/><stop offset="1" stop-color="#efb234" stop-opacity="0"/></linearGradient><linearGradient id="y"><stop offset=".400744" stop-color="#eaaa15"/><stop offset="1" stop-color="#eaaa15" stop-opacity="0"/></linearGradient><radialGradient id="z" cx="0" cy="0" gradientTransform="matrix(.19531312 2.2578079 -.2707359 .02342018 5.08461 5.07214)" gradientUnits="userSpaceOnUse" r="1" xlink:href="#y"/><radialGradient id="A" cx="0" cy="0" gradientTransform="matrix(-.04687352 3.4062475 -.26600482 -.0036605 6.73305 3.90807)" gradientUnits="userSpaceOnUse" r="1" xlink:href="#y"/><radialGradient id="B" cx="0" cy="0" gradientTransform="matrix(-.6718766 3.96875017 -.5671601 -.09601552 8.7018 3.14245)" gradientUnits="userSpaceOnUse" r="1"><stop offset=".651533" stop-color="#eaaa15"/><stop offset="1" stop-color="#eaaa15" stop-opacity="0"/></radialGradient><linearGradient id="C"><stop offset="0" stop-color="#ffdc45"/><stop offset="1" stop-color="#ffdc45" stop-opacity="0"/></linearGradient><radialGradient id="D" cx="0" cy="0" gradientTransform="matrix(-.89062547 .8437551 -.84799849 -.89510458 10.0455 3.68932)" gradientUnits="userSpaceOnUse" r="1" xlink:href="#C"/><radialGradient id="E" cx="0" cy="0" gradientTransform="matrix(-.8437546 .73437007 -.61197505 -.70312883 8.29555 2.78307)" gradientUnits="userSpaceOnUse" r="1" xlink:href="#C"/><radialGradient id="F" cx="0" cy="0" gradientTransform="matrix(-.46874591 .7187531 -.65233032 -.42542727 6.17055 3.34557)" gradientUnits="userSpaceOnUse" r="1" xlink:href="#C"/><radialGradient id="G" cx="0" cy="0" gradientTransform="matrix(-.4999967 .60937785 -.55306307 -.45379021 4.59242 4.62682)" gradientUnits="userSpaceOnUse" r="1" xlink:href="#C"/><radialGradient id="H" cx="0" cy="0" gradientTransform="matrix(.17187307 2.29796145 -.44574098 .03333862 4.60805 5.21276)" gradientUnits="userSpaceOnUse" r="1"><stop offset="0" stop-color="#ffcc3d"/><stop offset="1" stop-color="#ffcc3d" stop-opacity="0"/></radialGradient><linearGradient id="I" gradientUnits="userSpaceOnUse" x1="4.68616" x2="9.06116" y1="12.5643" y2="12.5643"><stop offset="0" stop-color="#e6724b"/><stop offset=".742857" stop-color="#d64d18"/></linearGradient><linearGradient id="J" gradientUnits="userSpaceOnUse" x1="6.95569" x2="6.95569" y1="11.9784" y2="12.2362"><stop offset="0" stop-color="#dd6422"/><stop offset="1" stop-color="#dd6422" stop-opacity="0"/></linearGradient><radialGradient id="K" cx="0" cy="0" gradientTransform="matrix(-8.71542942 2.79838606 -2.98393791 -9.29332112 26.6719 27.2034)" gradientUnits="userSpaceOnUse" r="1"><stop offset="0" stop-color="#ff8045"/><stop offset="1" stop-color="#ff8045" stop-opacity="0"/></radialGradient><radialGradient id="L" cx="0" cy="0" gradientTransform="matrix(0 -4.62502 2.66619 0 11.4049 30.0018)" gradientUnits="userSpaceOnUse" r="1"><stop offset="0" stop-color="#ff6e45"/><stop offset="1" stop-color="#ff6e45" stop-opacity="0"/></radialGradient><linearGradient id="M" gradientUnits="userSpaceOnUse" x1="9.95257" x2="11.9091" y1="26.6698" y2="20.3852"><stop offset="0" stop-color="#ff4b54"/><stop offset="1" stop-color="#ff4b54" stop-opacity="0"/></linearGradient><radialGradient id="N" cx="0" cy="0" gradientTransform="matrix(0 8.8125 -5.4375 0 3.46739 13.0018)" gradientUnits="userSpaceOnUse" r="1"><stop offset="0" stop-color="#ff7c1f"/><stop offset="1" stop-color="#ff7c1f" stop-opacity="0"/></radialGradient><radialGradient id="O" cx="0" cy="0" gradientTransform="matrix(-7.94465772 -1.83796648 .61900407 -2.67566112 17.4822 21.3042)" gradientUnits="userSpaceOnUse" r="1"><stop offset="0" stop-color="#d93f13"/><stop offset="1" stop-color="#d93f13" stop-opacity="0"/></radialGradient><linearGradient id="P" gradientUnits="userSpaceOnUse" x1="14.0455" x2="13.483" y1="24.3612" y2="23.2987"><stop offset=".133109" stop-color="#ff611d"/><stop offset="1" stop-color="#ff611d" stop-opacity="0"/></linearGradient><linearGradient id="Q" gradientUnits="userSpaceOnUse" x1="17.8112" x2="19.8112" y1="20.6268" y2="24.0018"><stop offset="0" stop-color="#d16c15"/><stop offset="1" stop-color="#ffc436"/></linearGradient><radialGradient id="R" cx="0" cy="0" gradientTransform="matrix(0 1.15625 -2.61254 0 19.5001 21.1893)" gradientUnits="userSpaceOnUse" r="1"><stop offset="0" stop-color="#e97e36"/><stop offset="1" stop-color="#e97e36" stop-opacity="0"/></radialGradient><radialGradient id="S" cx="0" cy="0" gradientTransform="matrix(-.91126935 3.74414049 -4.4477506 -1.08251782 26.0572 15.3052)" gradientUnits="userSpaceOnUse" r="1"><stop offset=".0431525" stop-color="#ffc135"/><stop offset=".909006" stop-color="#e26839"/></radialGradient><radialGradient id="T" cx="0" cy="0" gradientTransform="matrix(.34668022 .47544689 -.40390026 .29451078 25.1757 15.6222)" gradientUnits="userSpaceOnUse" r="1"><stop offset="0" stop-color="#e18c2a"/><stop offset="1" stop-color="#e18c2a" stop-opacity="0"/></radialGradient><radialGradient id="U" cx="0" cy="0" gradientTransform="matrix(1.50558081 3.1696464 -1.4407459 .68435375 12.9428 15.4439)" gradientUnits="userSpaceOnUse" r="1"><stop offset="0" stop-color="#d57a26"/><stop offset="1" stop-color="#d06a3c"/></radialGradient><radialGradient id="V" cx="0" cy="0" gradientTransform="matrix(.37639487 1.17871198 -1.03397242 .33017558 13.7253 15.434)" gradientUnits="userSpaceOnUse" r="1"><stop offset=".263377" stop-color="#be691e"/><stop offset=".977292" stop-color="#be691e" stop-opacity="0"/></radialGradient><radialGradient id="W" cx="0" cy="0" gradientTransform="matrix(-6.17882 0 0 -10.9303 22.8184 14.1927)" gradientUnits="userSpaceOnUse" r="1"><stop offset="0" stop-color="#ffe846"/><stop offset="1" stop-color="#f5a129"/></radialGradient><radialGradient id="X" cx="0" cy="0" gradientTransform="matrix(0 -4.00172 15.5671 0 19.2708 21.6805)" gradientUnits="userSpaceOnUse" r="1"><stop offset=".0824176" stop-color="#e27426"/><stop offset="1" stop-color="#ffa041" stop-opacity="0"/></radialGradient><radialGradient id="Y" cx="0" cy="0" gradientTransform="matrix(-.47578958 7.21189243 -2.65139626 -.17492035 25.5953 13.9189)" gradientUnits="userSpaceOnUse" r="1"><stop offset=".389903" stop-color="#ffd930"/><stop offset="1" stop-color="#ffd930" stop-opacity="0"/></radialGradient><radialGradient id="Z" cx="0" cy="0" gradientTransform="matrix(0 -1.67105 2.01185 0 17.0281 12.7975)" gradientUnits="userSpaceOnUse" r="1"><stop offset=".276316" stop-color="#f59632"/><stop offset="1" stop-color="#f59632" stop-opacity="0"/></radialGradient><radialGradient id="aa" cx="0" cy="0" gradientTransform="matrix(0 -1.81451 2.35348 0 22.4413 12.3111)" gradientUnits="userSpaceOnUse" r="1"><stop offset=".178218" stop-color="#ffbe3a"/><stop offset="1" stop-color="#ffbe3a" stop-opacity="0"/></radialGradient><linearGradient id="ab" gradientUnits="userSpaceOnUse" x1="19.5001" x2="20.5104" y1="15.1721" y2="15.1721"><stop offset="0" stop-color="#ffc92f"/><stop offset="1" stop-color="#ffea47"/></linearGradient><linearGradient id="ac" gradientUnits="userSpaceOnUse" x1="18.2322" x2="19.5017" y1="14.9883" y2="15.0584"><stop offset="0" stop-color="#f49f22"/><stop offset="1" stop-color="#e88830" stop-opacity="0"/><stop offset="1" stop-color="#f49f22" stop-opacity="0"/></linearGradient><linearGradient id="ad" gradientUnits="userSpaceOnUse" x1="19.5001" x2="19.5001" y1="15.6434" y2="16.6503"><stop offset="0" stop-color="#e88830" stop-opacity="0"/><stop offset=".844655" stop-color="#e88830"/></linearGradient><linearGradient id="ae" gradientUnits="userSpaceOnUse" x1="19.5001" x2="19.5001" y1="12.9871" y2="13.4827"><stop offset="0" stop-color="#fac137"/><stop offset="1" stop-color="#fac137" stop-opacity="0"/></linearGradient><radialGradient id="af" cx="0" cy="0" gradientTransform="matrix(.41031273 -.73212649 2.13051326 1.19402415 18.1682 18.08)" gradientUnits="userSpaceOnUse" r="1"><stop offset="0" stop-color="#ffb534"/><stop offset="1" stop-color="#ffb534" stop-opacity="0"/></radialGradient><radialGradient id="ag" cx="0" cy="0" gradientTransform="matrix(0 -.851842 3.42718 0 19.5 18.3758)" gradientUnits="userSpaceOnUse" r="1"><stop offset="0" stop-color="#89014e"/><stop offset="1" stop-color="#87004d"/></radialGradient><linearGradient id="ah" gradientUnits="userSpaceOnUse" x1="25.8393" x2="13.8739" y1="7.49998" y2="7.49998"><stop offset="0" stop-color="#ffe235"/><stop offset="1" stop-color="#d29935"/></linearGradient><radialGradient id="ai" cx="0" cy="0" gradientTransform="matrix(0 -6.75928 11.9761 0 13.3192 12.3229)" gradientUnits="userSpaceOnUse" r="1"><stop offset=".314517" stop-color="#c98537"/><stop offset="1" stop-color="#c98537" stop-opacity="0"/></radialGradient><radialGradient id="aj" cx="0" cy="0" gradientTransform="matrix(0 -4.29345 7.60715 0 25.245 12.3229)" gradientUnits="userSpaceOnUse" r="1"><stop offset="0" stop-color="#ffb52a"/><stop offset="1" stop-color="#ffb52a" stop-opacity="0"/></radialGradient><radialGradient id="ak" cx="0" cy="0" gradientTransform="matrix(-3.84319148 -1.46595834 .78072014 -2.04675461 24.3536 4.90483)" gradientUnits="userSpaceOnUse" r="1"><stop offset="0" stop-color="#ffe639"/><stop offset="1" stop-color="#ffe639" stop-opacity="0"/></radialGradient><radialGradient id="al" cx="0" cy="0" gradientTransform="matrix(1.0697567 1.74330667 -4.0366768 2.47705246 18.4303 3.02285)" gradientUnits="userSpaceOnUse" r="1"><stop offset=".286771" stop-color="#f3c130"/><stop offset="1" stop-color="#f3c130" stop-opacity="0"/></radialGradient><radialGradient id="am" cx="0" cy="0" gradientTransform="matrix(-4.49941093 1.62343683 -.45184295 -1.25229824 19.7997 4.72754)" gradientUnits="userSpaceOnUse" r="1"><stop offset="0" stop-color="#ffdd30"/><stop offset="1" stop-color="#ffdc2b" stop-opacity="0"/></radialGradient><radialGradient id="an" cx="0" cy="0" gradientTransform="matrix(3.80356868 -6.02232739 6.67211975 4.21396315 13.0815 10.3527)" gradientUnits="userSpaceOnUse" r="1"><stop offset=".0926981" stop-color="#d67227"/><stop offset=".233498" stop-color="#ef8a23"/><stop offset="1" stop-color="#ef8a23" stop-opacity="0"/></radialGradient><radialGradient id="ao" cx="0" cy="0" gradientTransform="matrix(4.0016769 .94650207 -.52934824 2.2380095 23.7791 6.09891)" gradientUnits="userSpaceOnUse" r="1"><stop offset="0" stop-color="#ffeb3b"/><stop offset="1" stop-color="#ffeb3b" stop-opacity="0"/></radialGradient><radialGradient id="ap" cx="0" cy="0" gradientTransform="matrix(-2.53944714 -4.37742992 2.441256 -1.4162284 25.5621 11.5412)" gradientUnits="userSpaceOnUse" r="1"><stop offset="0" stop-color="#eb8f29"/><stop offset="1" stop-color="#eb8f29" stop-opacity="0"/></radialGradient><radialGradient id="aq" cx="0" cy="0" gradientTransform="matrix(-1.54518117 -2.60289908 1.8643509 -1.10675051 24.8291 11.1864)" gradientUnits="userSpaceOnUse" r="1"><stop offset=".394122" stop-color="#e48421"/><stop offset="1" stop-color="#e48421" stop-opacity="0"/></radialGradient><radialGradient id="ar" cx="0" cy="0" gradientTransform="matrix(-5.67128909 1.36061389 -1.47087498 -6.13087761 25.1659 5.96088)" gradientUnits="userSpaceOnUse" r="1"><stop offset=".734853" stop-color="#f29415" stop-opacity="0"/><stop offset="1" stop-color="#f29415"/></radialGradient><radialGradient id="as" cx="0" cy="0" gradientTransform="matrix(-.13867604 .45353225 -2.07348566 -.63400733 23.581 5.81299)" gradientUnits="userSpaceOnUse" r="1"><stop offset=".461072" stop-color="#ffce3c"/><stop offset="1" stop-color="#ffce3c" stop-opacity="0"/></radialGradient><linearGradient id="at"><stop offset=".80198" stop-color="#925c51"/><stop offset="1" stop-color="#694b43"/><stop offset="1" stop-color="#804d49"/><stop offset="1" stop-color="#85534d"/></linearGradient><radialGradient id="au" cx="0" cy="0" gradientTransform="matrix(0 .958903 -1.52524 0 22.079 13.1098)" gradientUnits="userSpaceOnUse" r="1" xlink:href="#at"/><linearGradient id="av"><stop offset=".765532" stop-color="#ffe6e2" stop-opacity="0"/><stop offset=".966159" stop-color="#ffe6e2"/></linearGradient><radialGradient id="aw" cx="0" cy="0" gradientTransform="matrix(-.27410473 -.35322091 .48630089 -.3773768 21.8093 13.2093)" gradientUnits="userSpaceOnUse" r="1" xlink:href="#av"/><linearGradient id="ax"><stop offset="0" stop-color="#b4948d"/><stop offset="1" stop-color="#b4948d" stop-opacity="0"/></linearGradient><linearGradient id="ay" gradientUnits="userSpaceOnUse" x1="22.9984" x2="22.6276" xlink:href="#ax" y1="13.1735" y2="13.402"/><radialGradient id="az" cx="0" cy="0" gradientTransform="matrix(0 .958952 -1.52532 0 16.9211 13.1098)" gradientUnits="userSpaceOnUse" r="1" xlink:href="#at"/><linearGradient id="aA" gradientUnits="userSpaceOnUse" x1="17.8002" x2="17.4294" xlink:href="#ax" y1="13.1735" y2="13.402"/><radialGradient id="aB" cx="0" cy="0" gradientTransform="matrix(-.009143 -.58396043 .70194397 -.01099025 16.5825 13.3689)" gradientUnits="userSpaceOnUse" r="1" xlink:href="#av"/><linearGradient id="aC" gradientUnits="userSpaceOnUse" x1="27.1071" x2="25.6808" y1="13.2054" y2="15.7775"><stop offset="0" stop-color="#ffe343"/><stop offset="1" stop-color="#ffc136"/></linearGradient><radialGradient id="aD" cx="0" cy="0" gradientTransform="matrix(.74288701 2.65134038 -2.52957968 .70877051 24.9577 13.1261)" gradientUnits="userSpaceOnUse" r="1"><stop offset=".856273" stop-color="#e1943d" stop-opacity="0"/><stop offset="1" stop-color="#e08f2e"/></radialGradient><radialGradient id="aE" cx="0" cy="0" gradientTransform="matrix(.93108383 -1.27776192 1.07101796 .78043294 25.3836 13.77)" gradientUnits="userSpaceOnUse" r="1"><stop offset=".663731" stop-color="#ffbd22"/><stop offset="1" stop-color="#ffbd22" stop-opacity="0"/></radialGradient><linearGradient id="aF" gradientUnits="userSpaceOnUse" x1="12.5862" x2="14.3097" y1="14.0374" y2="13.8869"><stop offset="0" stop-color="#e39726"/><stop offset="1" stop-color="#d9851d"/></linearGradient><radialGradient id="aG" cx="0" cy="0" gradientTransform="matrix(-.48797571 2.45366719 -2.41217968 -.47972484 13.2796 13.3242)" gradientUnits="userSpaceOnUse" r="1"><stop offset=".77507" stop-color="#c77937" stop-opacity="0"/><stop offset="1" stop-color="#c77937"/></radialGradient><linearGradient id="aH" gradientUnits="userSpaceOnUse" x1="7.49866" x2="13.2487" y1="15.2831" y2="23.5643"><stop offset="0" stop-color="#ff7636"/><stop offset="1" stop-color="#ff7636" stop-opacity="0"/></linearGradient><linearGradient id="aI"><stop offset="0" stop-color="#b36b00"/><stop offset="1" stop-color="#edad18"/></linearGradient><linearGradient id="aJ" gradientUnits="userSpaceOnUse" x1="5.151" x2="5.151" xlink:href="#aI" y1="5.23621" y2="7.18152"/><linearGradient id="aK" gradientUnits="userSpaceOnUse" x1="6.78381" x2="6.81116" xlink:href="#aI" y1="4.26355" y2="6.62683"/><linearGradient id="aL" gradientUnits="userSpaceOnUse" x1="8.41663" x2="8.44397" xlink:href="#aI" y1="4.49011" y2="6.85339"/><path d="m3.78014 9.24911c-.12499-1.92187-.28124-2.95833-.32812-3.64062-.03519-.51226.02344-1.06641.71094-1.19141.59766-.07422.88281.45182.90624.66016-.0026-.20052 0-.67953 0-.80469 0-.21094.00782-.97657.85938-.97657.60134 0 .81641.58724.80079.86329.01041-.10157.02265-.41329.03515-.70704.01844-.4333.25157-.98906.94532-.97656.59765.03906.79296.61328.76561.97656l-.11718 1.86719c.02343-.1875.10235-.66484.27735-1.33984s.70157-.71979.95702-.6836c.32598.04618.87966.36094.64846 1.27344-.27502 1.15625-.46225 2.64453-.52736 3.28516.31956-.13089.60486-.42871.95706-.79625l.0156-.01625c.3594-.375.9336-.33204 1.1719-.10547.3633.23437.5625.9375.1601 1.33984-.4625.425-2.12888 2.40495-2.95701 3.39455-.22917.2916-.99687.875-2.23437.875-2.20313-.0938-2.94147-1.6761-3.04688-3.29689z" fill="url(#v)"/><path d="m3.78014 9.24911c-.12499-1.92187-.28124-2.95833-.32812-3.64062-.03519-.51226.02344-1.06641.71094-1.19141.59766-.07422.88281.45182.90624.66016-.0026-.20052 0-.67953 0-.80469 0-.21094.00782-.97657.85938-.97657.60134 0 .81641.58724.80079.86329.01041-.10157.02265-.41329.03515-.70704.01844-.4333.25157-.98906.94532-.97656.59765.03906.79296.61328.76561.97656l-.11718 1.86719c.02343-.1875.10235-.66484.27735-1.33984s.70157-.71979.95702-.6836c.32598.04618.87966.36094.64846 1.27344-.27502 1.15625-.46225 2.64453-.52736 3.28516.31956-.13089.60486-.42871.95706-.79625l.0156-.01625c.3594-.375.9336-.33204 1.1719-.10547.3633.23437.5625.9375.1601 1.33984-.4625.425-2.12888 2.40495-2.95701 3.39455-.22917.2916-.99687.875-2.23437.875-2.20313-.0938-2.94147-1.6761-3.04688-3.29689z" fill="url(#w)"/><path d="m3.78014 9.24911c-.12499-1.92187-.28124-2.95833-.32812-3.64062-.03519-.51226.02344-1.06641.71094-1.19141.59766-.07422.88281.45182.90624.66016-.0026-.20052 0-.67953 0-.80469 0-.21094.00782-.97657.85938-.97657.60134 0 .81641.58724.80079.86329.01041-.10157.02265-.41329.03515-.70704.01844-.4333.25157-.98906.94532-.97656.59765.03906.79296.61328.76561.97656l-.11718 1.86719c.02343-.1875.10235-.66484.27735-1.33984s.70157-.71979.95702-.6836c.32598.04618.87966.36094.64846 1.27344-.27502 1.15625-.46225 2.64453-.52736 3.28516.31956-.13089.60486-.42871.95706-.79625l.0156-.01625c.3594-.375.9336-.33204 1.1719-.10547.3633.23437.5625.9375.1601 1.33984-.4625.425-2.12888 2.40495-2.95701 3.39455-.22917.2916-.99687.875-2.23437.875-2.20313-.0938-2.94147-1.6761-3.04688-3.29689z" fill="url(#x)"/><path d="m3.78014 9.24911c-.12499-1.92187-.28124-2.95833-.32812-3.64062-.03519-.51226.02344-1.06641.71094-1.19141.59766-.07422.88281.45182.90624.66016-.0026-.20052 0-.67953 0-.80469 0-.21094.00782-.97657.85938-.97657.60134 0 .81641.58724.80079.86329.01041-.10157.02265-.41329.03515-.70704.01844-.4333.25157-.98906.94532-.97656.59765.03906.79296.61328.76561.97656l-.11718 1.86719c.02343-.1875.10235-.66484.27735-1.33984s.70157-.71979.95702-.6836c.32598.04618.87966.36094.64846 1.27344-.27502 1.15625-.46225 2.64453-.52736 3.28516.31956-.13089.60486-.42871.95706-.79625l.0156-.01625c.3594-.375.9336-.33204 1.1719-.10547.3633.23437.5625.9375.1601 1.33984-.4625.425-2.12888 2.40495-2.95701 3.39455-.22917.2916-.99687.875-2.23437.875-2.20313-.0938-2.94147-1.6761-3.04688-3.29689z" fill="url(#z)"/><path d="m3.78014 9.24911c-.12499-1.92187-.28124-2.95833-.32812-3.64062-.03519-.51226.02344-1.06641.71094-1.19141.59766-.07422.88281.45182.90624.66016-.0026-.20052 0-.67953 0-.80469 0-.21094.00782-.97657.85938-.97657.60134 0 .81641.58724.80079.86329.01041-.10157.02265-.41329.03515-.70704.01844-.4333.25157-.98906.94532-.97656.59765.03906.79296.61328.76561.97656l-.11718 1.86719c.02343-.1875.10235-.66484.27735-1.33984s.70157-.71979.95702-.6836c.32598.04618.87966.36094.64846 1.27344-.27502 1.15625-.46225 2.64453-.52736 3.28516.31956-.13089.60486-.42871.95706-.79625l.0156-.01625c.3594-.375.9336-.33204 1.1719-.10547.3633.23437.5625.9375.1601 1.33984-.4625.425-2.12888 2.40495-2.95701 3.39455-.22917.2916-.99687.875-2.23437.875-2.20313-.0938-2.94147-1.6761-3.04688-3.29689z" fill="url(#A)"/><path d="m3.78014 9.24911c-.12499-1.92187-.28124-2.95833-.32812-3.64062-.03519-.51226.02344-1.06641.71094-1.19141.59766-.07422.88281.45182.90624.66016-.0026-.20052 0-.67953 0-.80469 0-.21094.00782-.97657.85938-.97657.60134 0 .81641.58724.80079.86329.01041-.10157.02265-.41329.03515-.70704.01844-.4333.25157-.98906.94532-.97656.59765.03906.79296.61328.76561.97656l-.11718 1.86719c.02343-.1875.10235-.66484.27735-1.33984s.70157-.71979.95702-.6836c.32598.04618.87966.36094.64846 1.27344-.27502 1.15625-.46225 2.64453-.52736 3.28516.31956-.13089.60486-.42871.95706-.79625l.0156-.01625c.3594-.375.9336-.33204 1.1719-.10547.3633.23437.5625.9375.1601 1.33984-.4625.425-2.12888 2.40495-2.95701 3.39455-.22917.2916-.99687.875-2.23437.875-2.20313-.0938-2.94147-1.6761-3.04688-3.29689z" fill="url(#B)"/><path d="m3.78014 9.24911c-.12499-1.92187-.28124-2.95833-.32812-3.64062-.03519-.51226.02344-1.06641.71094-1.19141.59766-.07422.88281.45182.90624.66016-.0026-.20052 0-.67953 0-.80469 0-.21094.00782-.97657.85938-.97657.60134 0 .81641.58724.80079.86329.01041-.10157.02265-.41329.03515-.70704.01844-.4333.25157-.98906.94532-.97656.59765.03906.79296.61328.76561.97656l-.11718 1.86719c.02343-.1875.10235-.66484.27735-1.33984s.70157-.71979.95702-.6836c.32598.04618.87966.36094.64846 1.27344-.27502 1.15625-.46225 2.64453-.52736 3.28516.31956-.13089.60486-.42871.95706-.79625l.0156-.01625c.3594-.375.9336-.33204 1.1719-.10547.3633.23437.5625.9375.1601 1.33984-.4625.425-2.12888 2.40495-2.95701 3.39455-.22917.2916-.99687.875-2.23437.875-2.20313-.0938-2.94147-1.6761-3.04688-3.29689z" fill="url(#D)"/><path d="m3.78014 9.24911c-.12499-1.92187-.28124-2.95833-.32812-3.64062-.03519-.51226.02344-1.06641.71094-1.19141.59766-.07422.88281.45182.90624.66016-.0026-.20052 0-.67953 0-.80469 0-.21094.00782-.97657.85938-.97657.60134 0 .81641.58724.80079.86329.01041-.10157.02265-.41329.03515-.70704.01844-.4333.25157-.98906.94532-.97656.59765.03906.79296.61328.76561.97656l-.11718 1.86719c.02343-.1875.10235-.66484.27735-1.33984s.70157-.71979.95702-.6836c.32598.04618.87966.36094.64846 1.27344-.27502 1.15625-.46225 2.64453-.52736 3.28516.31956-.13089.60486-.42871.95706-.79625l.0156-.01625c.3594-.375.9336-.33204 1.1719-.10547.3633.23437.5625.9375.1601 1.33984-.4625.425-2.12888 2.40495-2.95701 3.39455-.22917.2916-.99687.875-2.23437.875-2.20313-.0938-2.94147-1.6761-3.04688-3.29689z" fill="url(#E)"/><path d="m3.78014 9.24911c-.12499-1.92187-.28124-2.95833-.32812-3.64062-.03519-.51226.02344-1.06641.71094-1.19141.59766-.07422.88281.45182.90624.66016-.0026-.20052 0-.67953 0-.80469 0-.21094.00782-.97657.85938-.97657.60134 0 .81641.58724.80079.86329.01041-.10157.02265-.41329.03515-.70704.01844-.4333.25157-.98906.94532-.97656.59765.03906.79296.61328.76561.97656l-.11718 1.86719c.02343-.1875.10235-.66484.27735-1.33984s.70157-.71979.95702-.6836c.32598.04618.87966.36094.64846 1.27344-.27502 1.15625-.46225 2.64453-.52736 3.28516.31956-.13089.60486-.42871.95706-.79625l.0156-.01625c.3594-.375.9336-.33204 1.1719-.10547.3633.23437.5625.9375.1601 1.33984-.4625.425-2.12888 2.40495-2.95701 3.39455-.22917.2916-.99687.875-2.23437.875-2.20313-.0938-2.94147-1.6761-3.04688-3.29689z" fill="url(#F)"/><path d="m3.78014 9.24911c-.12499-1.92187-.28124-2.95833-.32812-3.64062-.03519-.51226.02344-1.06641.71094-1.19141.59766-.07422.88281.45182.90624.66016-.0026-.20052 0-.67953 0-.80469 0-.21094.00782-.97657.85938-.97657.60134 0 .81641.58724.80079.86329.01041-.10157.02265-.41329.03515-.70704.01844-.4333.25157-.98906.94532-.97656.59765.03906.79296.61328.76561.97656l-.11718 1.86719c.02343-.1875.10235-.66484.27735-1.33984s.70157-.71979.95702-.6836c.32598.04618.87966.36094.64846 1.27344-.27502 1.15625-.46225 2.64453-.52736 3.28516.31956-.13089.60486-.42871.95706-.79625l.0156-.01625c.3594-.375.9336-.33204 1.1719-.10547.3633.23437.5625.9375.1601 1.33984-.4625.425-2.12888 2.40495-2.95701 3.39455-.22917.2916-.99687.875-2.23437.875-2.20313-.0938-2.94147-1.6761-3.04688-3.29689z" fill="url(#G)"/><path d="m3.78014 9.24911c-.12499-1.92187-.28124-2.95833-.32812-3.64062-.03519-.51226.02344-1.06641.71094-1.19141.59766-.07422.88281.45182.90624.66016-.0026-.20052 0-.67953 0-.80469 0-.21094.00782-.97657.85938-.97657.60134 0 .81641.58724.80079.86329.01041-.10157.02265-.41329.03515-.70704.01844-.4333.25157-.98906.94532-.97656.59765.03906.79296.61328.76561.97656l-.11718 1.86719c.02343-.1875.10235-.66484.27735-1.33984s.70157-.71979.95702-.6836c.32598.04618.87966.36094.64846 1.27344-.27502 1.15625-.46225 2.64453-.52736 3.28516.31956-.13089.60486-.42871.95706-.79625l.0156-.01625c.3594-.375.9336-.33204 1.1719-.10547.3633.23437.5625.9375.1601 1.33984-.4625.425-2.12888 2.40495-2.95701 3.39455-.22917.2916-.99687.875-2.23437.875-2.20313-.0938-2.94147-1.6761-3.04688-3.29689z" fill="url(#H)"/><path d="m4.85022 12.1784c0-.1105.08954-.2.2-.2h3.81094c.11045 0 .2.0895.2.2v1.7141h-4.21094z" fill="url(#I)"/><path d="m4.85022 12.1784c0-.1105.08954-.2.2-.2h3.81094c.11045 0 .2.0895.2.2v1.7141h-4.21094z" fill="url(#J)"/><path d="m20.5268 21.0018h.9732c2.5 0 7.5 3.5 7.5 9h-18v-3.5c0-.2766-.1701-.5328-.4157-.625l-3.0843-1.375c-2.5-1-3.5-3.5-3.5-5.198v-5.2875c0-.5636.42517-1.0145.93537-1.0145h4.12926c.51965 0 .93537.4612.93537 1.0145v3.9855c0 1.302 1 1.5 1 1.5l6 1.5z" fill="#ff611d"/><path d="m20.5268 21.0018h.9732c2.5 0 7.5 3.5 7.5 9h-18v-3.5c0-.2766-.1701-.5328-.4157-.625l-3.0843-1.375c-2.5-1-3.5-3.5-3.5-5.198v-5.2875c0-.5636.42517-1.0145.93537-1.0145h4.12926c.51965 0 .93537.4612.93537 1.0145v3.9855c0 1.302 1 1.5 1 1.5l6 1.5z" fill="url(#K)"/><path d="m20.5268 21.0018h.9732c2.5 0 7.5 3.5 7.5 9h-18v-3.5c0-.2766-.1701-.5328-.4157-.625l-3.0843-1.375c-2.5-1-3.5-3.5-3.5-5.198v-5.2875c0-.5636.42517-1.0145.93537-1.0145h4.12926c.51965 0 .93537.4612.93537 1.0145v3.9855c0 1.302 1 1.5 1 1.5l6 1.5z" fill="url(#L)"/><path d="m18.858 21.1112-7.8737 5.2453c-.0474-.2175-.1982-.404-.4-.4797l-3.0843-1.375c-2.5-1-3.5-3.5-3.5-5.198v-5.2875c0-.5636.42517-1.0145.93537-1.0145h4.12926c.51965 0 .93537.4612.93537 1.0145v3.9855c0 1.302 1 1.5 1 1.5l6 1.5z" fill="url(#M)"/><path d="m18.858 21.1112-7.8737 5.2453c-.0474-.2175-.1982-.404-.4-.4797l-3.0843-1.375c-2.5-1-3.5-3.5-3.5-5.198v-5.2875c0-.5636.42517-1.0145.93537-1.0145h4.12926c.51965 0 .93537.4612.93537 1.0145v3.9855c0 1.302 1 1.5 1 1.5l6 1.5z" fill="url(#N)"/><path d="m18.858 21.1112-7.8737 5.2453c-.0474-.2175-.1982-.404-.4-.4797l-3.0843-1.375c-2.5-1-3.5-3.5-3.5-5.198v-5.2875c0-.5636.42517-1.0145.93537-1.0145h4.12926c.51965 0 .93537.4612.93537 1.0145v3.9855c0 1.302 1 1.5 1 1.5l6 1.5z" fill="url(#O)"/><path d="m18.858 21.1112-7.8737 5.2453c-.0474-.2175-.1982-.404-.4-.4797l-3.0843-1.375c-2.5-1-3.5-3.5-3.5-5.198v-5.2875c0-.5636.42517-1.0145.93537-1.0145h4.12926c.51965 0 .93537.4612.93537 1.0145v3.9855c0 1.302 1 1.5 1 1.5l6 1.5z" fill="url(#P)"/><path d="m19.5001 24.0018c-1.2678 0-2.2962-.9854-2.2962-2.2002v-2.5995c0-1.2148 1.0284-2.2003 2.2962-2.2003 1.2677 0 2.2961.9855 2.2961 2.2003v2.5995c0 1.2148-1.0284 2.2002-2.2961 2.2002z" fill="url(#Q)"/><path d="m19.5001 24.0018c-1.2678 0-2.2962-.9854-2.2962-2.2002v-2.5995c0-1.2148 1.0284-2.2003 2.2962-2.2003 1.2677 0 2.2961.9855 2.2961 2.2003v2.5995c0 1.2148-1.0284 2.2002-2.2961 2.2002z" fill="url(#R)"/><path d="m25.2456 15.6699c.3962-.0128.7673-.1471 1.0692-.3647v1.1004c0 1.0556-.6289 1.996-1.5849 2.3862.2013-.4286.3396-.8956.4088-1.3946z" fill="url(#S)"/><path d="m25.2456 15.6699c.3962-.0128.7673-.1471 1.0692-.3647v1.1004c0 1.0556-.6289 1.996-1.5849 2.3862.2013-.4286.3396-.8956.4088-1.3946z" fill="url(#T)"/><path d="m13.7544 15.6699c-.3962-.0128-.7673-.1471-1.0692-.3647v1.1004c0 1.0556.6289 1.996 1.5849 2.3862-.2013-.4286-.3396-.8956-.4088-1.3946z" fill="url(#U)"/><path d="m13.7544 15.6699c-.3962-.0128-.7673-.1471-1.0692-.3647v1.1004c0 1.0556.6289 1.996 1.5849 2.3862-.2013-.4286-.3396-.8956-.4088-1.3946z" fill="url(#V)"/><g filter="url(#a)"><path d="m13.7974 17.4606c.304 2.3075 2.2677 4.0255 4.5925 4.0255h2.2298c2.3247 0 4.2884-1.718 4.5925-4.0255.1394-2.2263.2796-4.4437.3831-6.6689-.0126-.90655-.7272-1.65458-1.6298-1.69261h-1.655c-1.1283 0-2.1501-.66563-2.6139-1.70527-.1191-.29795-.4075-.49447-.7272-.49447h-1.5045c-2.1814 0-3.9492 1.78768-3.9492 3.99375 0 2.1992.1374 4.3628.2817 6.5675z" fill="url(#W)"/></g><path d="m13.7974 17.4606c.304 2.3075 2.2677 4.0255 4.5925 4.0255h2.2298c2.3247 0 4.2884-1.718 4.5925-4.0255.1394-2.2263.2796-4.4437.3831-6.6689-.0126-.90655-.7272-1.65458-1.6298-1.69261h-1.655c-1.1283 0-2.1501-.66563-2.6139-1.70527-.1191-.29795-.4075-.49447-.7272-.49447h-1.5045c-2.1814 0-3.9492 1.78768-3.9492 3.99375 0 2.1992.1374 4.3628.2817 6.5675z" fill="url(#X)"/><path d="m13.7974 17.4606c.304 2.3075 2.2677 4.0255 4.5925 4.0255h2.2298c2.3247 0 4.2884-1.718 4.5925-4.0255.1394-2.2263.2796-4.4437.3831-6.6689-.0126-.90655-.7272-1.65458-1.6298-1.69261h-1.655c-1.1283 0-2.1501-.66563-2.6139-1.70527-.1191-.29795-.4075-.49447-.7272-.49447h-1.5045c-2.1814 0-3.9492 1.78768-3.9492 3.99375 0 2.1992.1374 4.3628.2817 6.5675z" fill="url(#Y)"/><path d="m13.7974 17.4606c.304 2.3075 2.2677 4.0255 4.5925 4.0255h2.2298c2.3247 0 4.2884-1.718 4.5925-4.0255.1394-2.2263.2796-4.4437.3831-6.6689-.0126-.90655-.7272-1.65458-1.6298-1.69261h-1.655c-1.1283 0-2.1501-.66563-2.6139-1.70527-.1191-.29795-.4075-.49447-.7272-.49447h-1.5045c-2.1814 0-3.9492 1.78768-3.9492 3.99375 0 2.1992.1374 4.3628.2817 6.5675z" fill="url(#Z)"/><path d="m13.7974 17.4606c.304 2.3075 2.2677 4.0255 4.5925 4.0255h2.2298c2.3247 0 4.2884-1.718 4.5925-4.0255.1394-2.2263.2796-4.4437.3831-6.6689-.0126-.90655-.7272-1.65458-1.6298-1.69261h-1.655c-1.1283 0-2.1501-.66563-2.6139-1.70527-.1191-.29795-.4075-.49447-.7272-.49447h-1.5045c-2.1814 0-3.9492 1.78768-3.9492 3.99375 0 2.1992.1374 4.3628.2817 6.5675z" fill="url(#aa)"/><g filter="url(#b)"><path d="m18.9255 13.5794-.7505 2.1728c-.1282.4469.1795.8938.6154.8938h.9294c.4358 0 .7435-.4538.6153-.8938l-.6281-2.1728c-.1347-.4813-.6405-.4813-.7815 0z" fill="#ee9020"/></g><g filter="url(#c)"><path d="m19.0482 13.348-.6282 2.1728c-.1282.4469.1795.8939.6154.8939h.9294c.4358 0 .7435-.4539.6153-.8939l-.6282-2.1728c-.1346-.4813-.7627-.4813-.9037 0z" fill="url(#ab)"/><path d="m19.0482 13.348-.6282 2.1728c-.1282.4469.1795.8939.6154.8939h.9294c.4358 0 .7435-.4539.6153-.8939l-.6282-2.1728c-.1346-.4813-.7627-.4813-.9037 0z" fill="url(#ac)"/><path d="m19.0482 13.348-.6282 2.1728c-.1282.4469.1795.8939.6154.8939h.9294c.4358 0 .7435-.4539.6153-.8939l-.6282-2.1728c-.1346-.4813-.7627-.4813-.9037 0z" fill="url(#ad)"/><path d="m19.0482 13.348-.6282 2.1728c-.1282.4469.1795.8939.6154.8939h.9294c.4358 0 .7435-.4539.6153-.8939l-.6282-2.1728c-.1346-.4813-.7627-.4813-.9037 0z" fill="url(#ae)"/></g><g filter="url(#d)"><path d="m17.8972 17.1615-.0007-.0004c-.1143-.0581-.2335-.0217-.3043.0527-.0711.0749-.0996.1959-.0257.3032.4094.62 1.1221 1.0329 1.9335 1.0329.8116 0 1.5245-.4132 1.9339-1.0334.0726-.1092.0459-.23-.0265-.3052-.0715-.0743-.1906-.1078-.3039-.0502l-.0007.0004c-.4628.2413-1.0087.3797-1.6028.3797-.5882 0-1.14-.1385-1.6028-.3797z" stroke="url(#af)" stroke-width=".15"/></g><path d="m19.5 17.6162c-.5998 0-1.1636-.1412-1.6375-.3882-.1619-.0823-.3359.1-.2339.247.3959.5999 1.0857.9999 1.8714.9999s1.4755-.4 1.8714-.9999c.1019-.1529-.072-.3293-.2339-.247-.4739.247-1.0317.3882-1.6375.3882z" fill="url(#ag)"/><g filter="url(#e)"><path d="m25.238 6.34147c.6081.2092 1.1534.63393 1.4982 1.2425.5516.96991.4701 2.13-.1254 2.98583-.2068.3043-.3197.6656-.3197 1.0333v1.4041c-.2211-.154-.5127-.2681-.7886-.3169l.0928-1.8986c-.0125-.90656-.7271-1.6546-1.6298-1.69264h-1.6549c-1.1284 0-2.1501-.66562-2.614-1.70527-.1191-.29794-.4075-.49446-.7272-.49446h-1.5044c-2.1815 0-3.9492 1.78768-3.9492 3.99377l.0362 1.817c-.3002.0441-.6137.1444-.8511.3116v-1.4186c0-.3677-.1129-.729-.3197-1.0333-.5642-.83047-.6645-1.94618-.1693-2.89074.3448-.65295.9027-1.10937 1.5358-1.33125.677-.24089 1.2537-.69732 1.6361-1.31223.489-.77974 1.3478-1.29956 2.3319-1.29956.3824 0 .746.08241 1.0845.22188.4513.19652.9591.19652 1.4104 0 .3323-.13947.6958-.22188 1.0782-.22188.9967 0 1.868.53884 2.3507 1.33759.3636.60224.934 1.03965 1.5985 1.26786z" fill="url(#ah)"/><path d="m25.238 6.34147c.6081.2092 1.1534.63393 1.4982 1.2425.5516.96991.4701 2.13-.1254 2.98583-.2068.3043-.3197.6656-.3197 1.0333v1.4041c-.2211-.154-.5127-.2681-.7886-.3169l.0928-1.8986c-.0125-.90656-.7271-1.6546-1.6298-1.69264h-1.6549c-1.1284 0-2.1501-.66562-2.614-1.70527-.1191-.29794-.4075-.49446-.7272-.49446h-1.5044c-2.1815 0-3.9492 1.78768-3.9492 3.99377l.0362 1.817c-.3002.0441-.6137.1444-.8511.3116v-1.4186c0-.3677-.1129-.729-.3197-1.0333-.5642-.83047-.6645-1.94618-.1693-2.89074.3448-.65295.9027-1.10937 1.5358-1.33125.677-.24089 1.2537-.69732 1.6361-1.31223.489-.77974 1.3478-1.29956 2.3319-1.29956.3824 0 .746.08241 1.0845.22188.4513.19652.9591.19652 1.4104 0 .3323-.13947.6958-.22188 1.0782-.22188.9967 0 1.868.53884 2.3507 1.33759.3636.60224.934 1.03965 1.5985 1.26786z" fill="url(#ai)"/><path d="m25.238 6.34147c.6081.2092 1.1534.63393 1.4982 1.2425.5516.96991.4701 2.13-.1254 2.98583-.2068.3043-.3197.6656-.3197 1.0333v1.4041c-.2211-.154-.5127-.2681-.7886-.3169l.0928-1.8986c-.0125-.90656-.7271-1.6546-1.6298-1.69264h-1.6549c-1.1284 0-2.1501-.66562-2.614-1.70527-.1191-.29794-.4075-.49446-.7272-.49446h-1.5044c-2.1815 0-3.9492 1.78768-3.9492 3.99377l.0362 1.817c-.3002.0441-.6137.1444-.8511.3116v-1.4186c0-.3677-.1129-.729-.3197-1.0333-.5642-.83047-.6645-1.94618-.1693-2.89074.3448-.65295.9027-1.10937 1.5358-1.33125.677-.24089 1.2537-.69732 1.6361-1.31223.489-.77974 1.3478-1.29956 2.3319-1.29956.3824 0 .746.08241 1.0845.22188.4513.19652.9591.19652 1.4104 0 .3323-.13947.6958-.22188 1.0782-.22188.9967 0 1.868.53884 2.3507 1.33759.3636.60224.934 1.03965 1.5985 1.26786z" fill="url(#aj)"/><path d="m25.238 6.34147c.6081.2092 1.1534.63393 1.4982 1.2425.5516.96991.4701 2.13-.1254 2.98583-.2068.3043-.3197.6656-.3197 1.0333v1.4041c-.2211-.154-.5127-.2681-.7886-.3169l.0928-1.8986c-.0125-.90656-.7271-1.6546-1.6298-1.69264h-1.6549c-1.1284 0-2.1501-.66562-2.614-1.70527-.1191-.29794-.4075-.49446-.7272-.49446h-1.5044c-2.1815 0-3.9492 1.78768-3.9492 3.99377l.0362 1.817c-.3002.0441-.6137.1444-.8511.3116v-1.4186c0-.3677-.1129-.729-.3197-1.0333-.5642-.83047-.6645-1.94618-.1693-2.89074.3448-.65295.9027-1.10937 1.5358-1.33125.677-.24089 1.2537-.69732 1.6361-1.31223.489-.77974 1.3478-1.29956 2.3319-1.29956.3824 0 .746.08241 1.0845.22188.4513.19652.9591.19652 1.4104 0 .3323-.13947.6958-.22188 1.0782-.22188.9967 0 1.868.53884 2.3507 1.33759.3636.60224.934 1.03965 1.5985 1.26786z" fill="url(#ak)"/><path d="m25.238 6.34147c.6081.2092 1.1534.63393 1.4982 1.2425.5516.96991.4701 2.13-.1254 2.98583-.2068.3043-.3197.6656-.3197 1.0333v1.4041c-.2211-.154-.5127-.2681-.7886-.3169l.0928-1.8986c-.0125-.90656-.7271-1.6546-1.6298-1.69264h-1.6549c-1.1284 0-2.1501-.66562-2.614-1.70527-.1191-.29794-.4075-.49446-.7272-.49446h-1.5044c-2.1815 0-3.9492 1.78768-3.9492 3.99377l.0362 1.817c-.3002.0441-.6137.1444-.8511.3116v-1.4186c0-.3677-.1129-.729-.3197-1.0333-.5642-.83047-.6645-1.94618-.1693-2.89074.3448-.65295.9027-1.10937 1.5358-1.33125.677-.24089 1.2537-.69732 1.6361-1.31223.489-.77974 1.3478-1.29956 2.3319-1.29956.3824 0 .746.08241 1.0845.22188.4513.19652.9591.19652 1.4104 0 .3323-.13947.6958-.22188 1.0782-.22188.9967 0 1.868.53884 2.3507 1.33759.3636.60224.934 1.03965 1.5985 1.26786z" fill="url(#al)"/></g><g filter="url(#f)"><path d="m23.912 10.671c-.2071-.1804-.4479-.3715-.8126-.4863-.3596-.1132-.81-.1436-1.433-.0674-.1797.022-.3076.1855-.2856.3652s.1855.3075.3652.2855c.5687-.0695.917-.0334 1.1565.042.2344.0738.3929.1933.5789.3553.1365.1189.3436.1046.4625-.0319s.1046-.3435-.0319-.4624z" fill="#c05029"/></g><g filter="url(#g)"><path d="m15.4687 10.5421c.1065-.0637.2597-.1453.4533-.2214.387-.1521.9401-.2843 1.6019-.2033.1797.022.3075.1854.2855.3651-.0219.1797-.1854.3076-.3651.2856-.53-.0649-.9721.0407-1.2825.1627-.1551.061-.276.1256-.3565.1738-.0402.0241-.07.0439-.0887.0568-.0094.0065-.016.0112-.0196.0139l-.0033.0024c-.1428.1102-.348.0842-.4589-.0583-.1111-.1429-.0854-.3488.0575-.46z" fill="#c05029"/></g><g filter="url(#h)"><path d="m19.7748 7.55553c-.0276-.05283-.0537-.10674-.0782-.1617-.1191-.29795-.4075-.49447-.7272-.49447h-1.5044c-2.1815 0-3.9492 1.78768-3.9492 3.99374v.3252c-.4019-.3058-.9073-.9509-.9073-1.99479 0-1.26681.924-1.90714 1.5133-2.31559.1664-.11531.3061-.21214.3909-.29937.0359-.03706.0751-.07862.1178-.12383.4131-.43816 1.1491-1.21885 2.4345-1.56004.6893-.18296 1.3885-.21429 1.9296-.18996.4723.02124.8051.42936.8051.90221v1.9027z" fill="url(#am)"/><path d="m19.7748 7.55553c-.0276-.05283-.0537-.10674-.0782-.1617-.1191-.29795-.4075-.49447-.7272-.49447h-1.5044c-2.1815 0-3.9492 1.78768-3.9492 3.99374v.3252c-.4019-.3058-.9073-.9509-.9073-1.99479 0-1.26681.924-1.90714 1.5133-2.31559.1664-.11531.3061-.21214.3909-.29937.0359-.03706.0751-.07862.1178-.12383.4131-.43816 1.1491-1.21885 2.4345-1.56004.6893-.18296 1.3885-.21429 1.9296-.18996.4723.02124.8051.42936.8051.90221v1.9027z" fill="url(#an)"/></g><g filter="url(#i)"><path d="m25.6609 11.5412-.0345-.746c-.0125-.90238-.7582-1.64696-1.6608-1.68482h-1.6549c-1.0506 0-2.0088-.57436-2.5103-1.48879 0 0-.123-.28495-.213-.74579-.1923-.98448.726-1.71617 1.7144-1.54495 1.2196.21128 2.6853.61024 3.7435 1.30047 2.0619 1.34484 1.701 3.76848.6156 4.90988z" fill="url(#ao)"/><path d="m25.6609 11.5412-.0345-.746c-.0125-.90238-.7582-1.64696-1.6608-1.68482h-1.6549c-1.0506 0-2.0088-.57436-2.5103-1.48879 0 0-.123-.28495-.213-.74579-.1923-.98448.726-1.71617 1.7144-1.54495 1.2196.21128 2.6853.61024 3.7435 1.30047 2.0619 1.34484 1.701 3.76848.6156 4.90988z" fill="url(#ap)"/><path d="m25.6609 11.5412-.0345-.746c-.0125-.90238-.7582-1.64696-1.6608-1.68482h-1.6549c-1.0506 0-2.0088-.57436-2.5103-1.48879 0 0-.123-.28495-.213-.74579-.1923-.98448.726-1.71617 1.7144-1.54495 1.2196.21128 2.6853.61024 3.7435 1.30047 2.0619 1.34484 1.701 3.76848.6156 4.90988z" fill="url(#aq)"/><path d="m25.6609 11.5412-.0345-.746c-.0125-.90238-.7582-1.64696-1.6608-1.68482h-1.6549c-1.0506 0-2.0088-.57436-2.5103-1.48879 0 0-.123-.28495-.213-.74579-.1923-.98448.726-1.71617 1.7144-1.54495 1.2196.21128 2.6853.61024 3.7435 1.30047 2.0619 1.34484 1.701 3.76848.6156 4.90988z" fill="url(#ar)"/><path d="m25.6609 11.5412-.0345-.746c-.0125-.90238-.7582-1.64696-1.6608-1.68482h-1.6549c-1.0506 0-2.0088-.57436-2.5103-1.48879 0 0-.123-.28495-.213-.74579-.1923-.98448.726-1.71617 1.7144-1.54495 1.2196.21128 2.6853.61024 3.7435 1.30047 2.0619 1.34484 1.701 3.76848.6156 4.90988z" fill="url(#as)"/></g><path d="m22.326 12.2248c.772 0 1.424.5322 1.6014 1.2514.0527.2061-.1055.4027-.3164.4027h-2.637c-.1678 0-.3021-.1534-.2685-.3212.1486-.7576.8151-1.3329 1.6205-1.3329z" fill="#fff"/><path d="m22.0814 12.546c.5849 0 1.0548.4747 1.0548 1.0548 0 .0959-.0144.1918-.0384.2781h-2.0377c-.0239-.0911-.0383-.1822-.0383-.2781 0-.5801.4746-1.0548 1.0596-1.0548z" fill="url(#au)"/><path d="m21.4772 13.6008c0-.3356.2685-.6041.6041-.6041.3357 0 .6042.2685.6042.6041 0 .1007-.024.1966-.0672.2781h-1.0691c-.048-.0815-.072-.1774-.072-.2781z" fill="#000"/><g filter="url(#j)"><path d="m22.0038 12.769c.0751.1005-.0819.2231-.2605.3566s-.3111.2275-.3863.127c-.0751-.1005.0087-.2902.1873-.4238.1786-.1335.3843-.1603.4595-.0598z" fill="#c7a7a3"/><path d="m22.0038 12.769c.0751.1005-.0819.2231-.2605.3566s-.3111.2275-.3863.127c-.0751-.1005.0087-.2902.1873-.4238.1786-.1335.3843-.1603.4595-.0598z" fill="url(#aw)"/></g><g filter="url(#k)"><path d="m23.0209 13.4619c-.039-.2727-.1985-.4782-.2734-.5469l-.3072.3372.1386.2696z" fill="url(#ay)"/></g><path d="m16.6742 12.2247c-.7719 0-1.424.5322-1.6014 1.2515-.0528.2061.1055.4027.3164.4027h2.6372c.1678 0 .302-.1534.2685-.3212-.1487-.7576-.8199-1.333-1.6207-1.333z" fill="#fff"/><path d="m16.9187 12.546c-.585 0-1.0549.4746-1.0549 1.0548 0 .0959.0144.1918.0384.2781h2.0378c.0239-.0911.0383-.1822.0383-.2781-.0048-.5802-.4747-1.0548-1.0596-1.0548z" fill="url(#az)"/><path d="m17.5227 13.6008c0-.3356-.2685-.6041-.6041-.6041s-.6041.2685-.6041.6041c0 .1007.0239.1966.0671.2781h1.0692c.0432-.0815.0719-.1774.0719-.2781z" fill="#000"/><g filter="url(#l)"><path d="m17.8824 13.4769c0-.3409-.2772-.5681-.3521-.6368l-.3409.3296.2098.4271z" fill="url(#aA)"/></g><g filter="url(#m)"><ellipse cx="16.6004" cy="12.9967" fill="#c7a7a3" fill-opacity=".9" rx=".460497" ry=".233054" transform="matrix(.88365127 -.46814574 .46814574 .88365127 -4.152914 9.283556)"/><ellipse cx="16.6004" cy="12.9967" fill="url(#aB)" rx=".460497" ry=".233054" transform="matrix(.88365127 -.46814574 .46814574 .88365127 -4.152914 9.283556)"/></g><path d="m25.3172 15.7775c.0778-1.2578.1528-2.5141.2182-3.7718.893.1562 1.5717.9355 1.5717 1.8732 0 1.0128-.7916 1.8407-1.7899 1.8986z" fill="url(#aC)"/><path d="m25.3172 15.7775c.0778-1.2578.1528-2.5141.2182-3.7718.893.1562 1.5717.9355 1.5717 1.8732 0 1.0128-.7916 1.8407-1.7899 1.8986z" fill="url(#aD)"/><path d="m25.3172 15.7775c.0778-1.2578.1528-2.5141.2182-3.7718.893.1562 1.5717.9355 1.5717 1.8732 0 1.0128-.7916 1.8407-1.7899 1.8986z" fill="url(#aE)"/><path d="m13.5267 11.9958c-.9234.1303-1.6338.9237-1.6338 1.8831 0 1.0153.7957 1.8448 1.7975 1.899-.0763-1.2629-.1392-2.5187-.1637-3.7821z" fill="url(#aF)"/><path d="m13.5267 11.9958c-.9234.1303-1.6338.9237-1.6338 1.8831 0 1.0153.7957 1.8448 1.7975 1.899-.0763-1.2629-.1392-2.5187-.1637-3.7821z" fill="url(#aG)"/><g filter="url(#n)"><path d="m13.5467 12.7771c-.5043.1131-.8811.5634-.8811 1.1018 0 .573.4267 1.0463.9797 1.1194-.041-.7408-.0756-1.4802-.0986-2.2212z" fill="#dd8224"/></g><g filter="url(#o)"><path d="m25.3644 15.0081c.0455-.75.0896-1.4996.1307-2.2496.557.0695.988.5446.988 1.1204 0 .6202-.4999 1.1235-1.1187 1.1292z" fill="#ffc837"/></g><g filter="url(#p)"><path d="m15.5132 10.8727c.3037-.2179 1.0608-.6012 1.9562-.4507" stroke="#c96953" stroke-linecap="round" stroke-width=".25"/></g><g filter="url(#q)"><path d="m23.7088 10.8183c-.3038-.218-1.0608-.6013-1.9563-.4507" stroke="#c96953" stroke-linecap="round" stroke-width=".25"/></g><g filter="url(#r)"><path d="m7.84241 13.6581v6.0169c0 .8659.55714 1.6334 1.38038 1.9016l4.18211 1.3627" stroke="url(#aH)"/></g><g filter="url(#s)"><path d="m5.07678 5.23621.14844 1.94531" stroke="url(#aJ)" stroke-linecap="round" stroke-width=".075"/></g><g filter="url(#t)"><path d="m6.73303 4.25964-.07031 2.29688" stroke="url(#aK)" stroke-linecap="round" stroke-width=".075"/></g><g filter="url(#u)"><path d="m8.34241 5.40808-.23438 1.40625" stroke="url(#aL)" stroke-linecap="round" stroke-width=".075"/></g></svg>