<svg fill="none" height="32" viewBox="0 0 32 32" width="32" xmlns="http://www.w3.org/2000/svg" xmlns:xlink="http://www.w3.org/1999/xlink"><filter id="a" color-interpolation-filters="sRGB" filterUnits="userSpaceOnUse" height="15.7682" width="15.2681" x="7.91663" y="1.30676"><feFlood flood-opacity="0" result="BackgroundImageFix"/><feBlend in="SourceGraphic" in2="BackgroundImageFix" mode="normal" result="shape"/><feColorMatrix in="SourceAlpha" result="hardAlpha" type="matrix" values="0 0 0 0 0 0 0 0 0 0 0 0 0 0 0 0 0 0 127 0"/><feOffset dx=".25" dy="-.75"/><feGaussianBlur stdDeviation=".75"/><feComposite in2="hardAlpha" k2="-1" k3="1" operator="arithmetic"/><feColorMatrix type="matrix" values="0 0 0 0 0.886275 0 0 0 0 0.698039 0 0 0 0 0.607843 0 0 0 1 0"/><feBlend in2="shape" mode="normal" result="effect1_innerShadow_4002_2176"/></filter><filter id="b" color-interpolation-filters="sRGB" filterUnits="userSpaceOnUse" height="11.7034" width="7.02335" x="8.37244" y="15.7582"><feFlood flood-opacity="0" result="BackgroundImageFix"/><feBlend in="SourceGraphic" in2="BackgroundImageFix" mode="normal" result="shape"/><feGaussianBlur result="effect1_foregroundBlur_4002_2176" stdDeviation=".375"/></filter><filter id="c" color-interpolation-filters="sRGB" filterUnits="userSpaceOnUse" height="10.4534" width="5.67335" x="9.47546" y="15.5616"><feFlood flood-opacity="0" result="BackgroundImageFix"/><feBlend in="SourceGraphic" in2="BackgroundImageFix" mode="normal" result="shape"/><feColorMatrix in="SourceAlpha" result="hardAlpha" type="matrix" values="0 0 0 0 0 0 0 0 0 0 0 0 0 0 0 0 0 0 127 0"/><feOffset dx=".15" dy="-.25"/><feGaussianBlur stdDeviation=".5"/><feComposite in2="hardAlpha" k2="-1" k3="1" operator="arithmetic"/><feColorMatrix type="matrix" values="0 0 0 0 0.831373 0 0 0 0 0.721569 0 0 0 0 0.941176 0 0 0 1 0"/><feBlend in2="shape" mode="normal" result="effect1_innerShadow_4002_2176"/></filter><filter id="d" color-interpolation-filters="sRGB" filterUnits="userSpaceOnUse" height="10.5291" width="6.3877" x="15.682" y="16.3453"><feFlood flood-opacity="0" result="BackgroundImageFix"/><feBlend in="SourceGraphic" in2="BackgroundImageFix" mode="normal" result="shape"/><feGaussianBlur result="effect1_foregroundBlur_4002_2176" stdDeviation=".375"/></filter><filter id="e" color-interpolation-filters="sRGB" filterUnits="userSpaceOnUse" height=".78125" width="4.00781" x="23.1731" y="18.631"><feFlood flood-opacity="0" result="BackgroundImageFix"/><feBlend in="SourceGraphic" in2="BackgroundImageFix" mode="normal" result="shape"/><feColorMatrix in="SourceAlpha" result="hardAlpha" type="matrix" values="0 0 0 0 0 0 0 0 0 0 0 0 0 0 0 0 0 0 127 0"/><feOffset/><feGaussianBlur stdDeviation=".125"/><feComposite in2="hardAlpha" k2="-1" k3="1" operator="arithmetic"/><feColorMatrix type="matrix" values="0 0 0 0 0.67451 0 0 0 0 0.796078 0 0 0 0 0.94902 0 0 0 1 0"/><feBlend in2="shape" mode="normal" result="effect1_innerShadow_4002_2176"/></filter><filter id="f" color-interpolation-filters="sRGB" filterUnits="userSpaceOnUse" height="5.55625" width="4.46787" x="23.1365" y="24.387"><feFlood flood-opacity="0" result="BackgroundImageFix"/><feBlend in="SourceGraphic" in2="BackgroundImageFix" mode="normal" result="shape"/><feColorMatrix in="SourceAlpha" result="hardAlpha" type="matrix" values="0 0 0 0 0 0 0 0 0 0 0 0 0 0 0 0 0 0 127 0"/><feOffset dx=".15" dy="-.15"/><feGaussianBlur stdDeviation=".5"/><feComposite in2="hardAlpha" k2="-1" k3="1" operator="arithmetic"/><feColorMatrix type="matrix" values="0 0 0 0 0.658824 0 0 0 0 0.443137 0 0 0 0 0.411765 0 0 0 1 0"/><feBlend in2="shape" mode="normal" result="effect1_innerShadow_4002_2176"/></filter><filter id="g" color-interpolation-filters="sRGB" filterUnits="userSpaceOnUse" height=".300098" width="2.09685" x="23.604" y="25.7954"><feFlood flood-opacity="0" result="BackgroundImageFix"/><feBlend in="SourceGraphic" in2="BackgroundImageFix" mode="normal" result="shape"/><feGaussianBlur result="effect1_foregroundBlur_4002_2176" stdDeviation=".05"/></filter><filter id="h" color-interpolation-filters="sRGB" filterUnits="userSpaceOnUse" height=".300098" width="2.09685" x="23.5259" y="27.1001"><feFlood flood-opacity="0" result="BackgroundImageFix"/><feBlend in="SourceGraphic" in2="BackgroundImageFix" mode="normal" result="shape"/><feGaussianBlur result="effect1_foregroundBlur_4002_2176" stdDeviation=".05"/></filter><filter id="i" color-interpolation-filters="sRGB" filterUnits="userSpaceOnUse" height=".300098" width="2.09685" x="23.604" y="28.4048"><feFlood flood-opacity="0" result="BackgroundImageFix"/><feBlend in="SourceGraphic" in2="BackgroundImageFix" mode="normal" result="shape"/><feGaussianBlur result="effect1_foregroundBlur_4002_2176" stdDeviation=".05"/></filter><filter id="j" color-interpolation-filters="sRGB" filterUnits="userSpaceOnUse" height="3.46814" width="3.36817" x="9.13098" y="8.97595"><feFlood flood-opacity="0" result="BackgroundImageFix"/><feBlend in="SourceGraphic" in2="BackgroundImageFix" mode="normal" result="shape"/><feColorMatrix in="SourceAlpha" result="hardAlpha" type="matrix" values="0 0 0 0 0 0 0 0 0 0 0 0 0 0 0 0 0 0 127 0"/><feOffset dx=".15" dy=".25"/><feGaussianBlur stdDeviation=".25"/><feComposite in2="hardAlpha" k2="-1" k3="1" operator="arithmetic"/><feColorMatrix type="matrix" values="0 0 0 0 0.858824 0 0 0 0 0.635294 0 0 0 0 0.533333 0 0 0 1 0"/><feBlend in2="shape" mode="normal" result="effect1_innerShadow_4002_2176"/></filter><filter id="k" color-interpolation-filters="sRGB" filterUnits="userSpaceOnUse" height="3.46814" width="3.21817" x="18.6439" y="8.72595"><feFlood flood-opacity="0" result="BackgroundImageFix"/><feBlend in="SourceGraphic" in2="BackgroundImageFix" mode="normal" result="shape"/><feColorMatrix in="SourceAlpha" result="hardAlpha" type="matrix" values="0 0 0 0 0 0 0 0 0 0 0 0 0 0 0 0 0 0 127 0"/><feOffset dy="-.25"/><feGaussianBlur stdDeviation=".25"/><feComposite in2="hardAlpha" k2="-1" k3="1" operator="arithmetic"/><feColorMatrix type="matrix" values="0 0 0 0 0.827451 0 0 0 0 0.568627 0 0 0 0 0.505882 0 0 0 1 0"/><feBlend in2="shape" mode="normal" result="effect1_innerShadow_4002_2176"/></filter><filter id="l" color-interpolation-filters="sRGB" filterUnits="userSpaceOnUse" height="3.14819" width="3.14822" x="18.679" y="9.01086"><feFlood flood-opacity="0" result="BackgroundImageFix"/><feBlend in="SourceGraphic" in2="BackgroundImageFix" mode="normal" result="shape"/><feGaussianBlur result="effect1_foregroundBlur_4002_2176" stdDeviation=".25"/></filter><filter id="m" color-interpolation-filters="sRGB" filterUnits="userSpaceOnUse" height="2.94819" width="2.94822" x="9.2853" y="9.11086"><feFlood flood-opacity="0" result="BackgroundImageFix"/><feBlend in="SourceGraphic" in2="BackgroundImageFix" mode="normal" result="shape"/><feGaussianBlur result="effect1_foregroundBlur_4002_2176" stdDeviation=".2"/></filter><filter id="n" color-interpolation-filters="sRGB" filterUnits="userSpaceOnUse" height="11.1268" width="10.1909" x="10.3303" y="5.6781"><feFlood flood-opacity="0" result="BackgroundImageFix"/><feBlend in="SourceGraphic" in2="BackgroundImageFix" mode="normal" result="shape"/><feColorMatrix in="SourceAlpha" result="hardAlpha" type="matrix" values="0 0 0 0 0 0 0 0 0 0 0 0 0 0 0 0 0 0 127 0"/><feOffset dy=".25"/><feGaussianBlur stdDeviation=".125"/><feComposite in2="hardAlpha" k2="-1" k3="1" operator="arithmetic"/><feColorMatrix type="matrix" values="0 0 0 0 0.745098 0 0 0 0 0.486275 0 0 0 0 0.384314 0 0 0 1 0"/><feBlend in2="shape" mode="normal" result="effect1_innerShadow_4002_2176"/></filter><filter id="o" color-interpolation-filters="sRGB" filterUnits="userSpaceOnUse" height="3.68176" width="2.87726" x="13.8248" y="9.83508"><feFlood flood-opacity="0" result="BackgroundImageFix"/><feBlend in="SourceGraphic" in2="BackgroundImageFix" mode="normal" result="shape"/><feGaussianBlur result="effect1_foregroundBlur_4002_2176" stdDeviation=".25"/></filter><filter id="p" color-interpolation-filters="sRGB" filterUnits="userSpaceOnUse" height="3.18176" width="2.37726" x="14.2372" y="9.94641"><feFlood flood-opacity="0" result="BackgroundImageFix"/><feBlend in="SourceGraphic" in2="BackgroundImageFix" mode="normal" result="shape"/><feGaussianBlur result="effect1_foregroundBlur_4002_2176" stdDeviation=".125"/></filter><filter id="q" color-interpolation-filters="sRGB" filterUnits="userSpaceOnUse" height="1.2854" width="3.00139" x="16.3679" y="9.18054"><feFlood flood-opacity="0" result="BackgroundImageFix"/><feBlend in="SourceGraphic" in2="BackgroundImageFix" mode="normal" result="shape"/><feColorMatrix in="SourceAlpha" result="hardAlpha" type="matrix" values="0 0 0 0 0 0 0 0 0 0 0 0 0 0 0 0 0 0 127 0"/><feOffset dx="-.2"/><feGaussianBlur stdDeviation=".2"/><feComposite in2="hardAlpha" k2="-1" k3="1" operator="arithmetic"/><feColorMatrix type="matrix" values="0 0 0 0 0.141176 0 0 0 0 0.0862745 0 0 0 0 0.176471 0 0 0 1 0"/><feBlend in2="shape" mode="normal" result="effect1_innerShadow_4002_2176"/></filter><filter id="r" color-interpolation-filters="sRGB" filterUnits="userSpaceOnUse" height="1.2854" width="3.00139" x="11.4824" y="9.18054"><feFlood flood-opacity="0" result="BackgroundImageFix"/><feBlend in="SourceGraphic" in2="BackgroundImageFix" mode="normal" result="shape"/><feColorMatrix in="SourceAlpha" result="hardAlpha" type="matrix" values="0 0 0 0 0 0 0 0 0 0 0 0 0 0 0 0 0 0 127 0"/><feOffset dx=".2"/><feGaussianBlur stdDeviation=".125"/><feComposite in2="hardAlpha" k2="-1" k3="1" operator="arithmetic"/><feColorMatrix type="matrix" values="0 0 0 0 0.133333 0 0 0 0 0.0784314 0 0 0 0 0.168627 0 0 0 1 0"/><feBlend in2="shape" mode="normal" result="effect1_innerShadow_4002_2176"/></filter><filter id="s" color-interpolation-filters="sRGB" filterUnits="userSpaceOnUse" height="1.09099" width="2.45278" x="11.6176" y="7.75691"><feFlood flood-opacity="0" result="BackgroundImageFix"/><feBlend in="SourceGraphic" in2="BackgroundImageFix" mode="normal" result="shape"/><feColorMatrix in="SourceAlpha" result="hardAlpha" type="matrix" values="0 0 0 0 0 0 0 0 0 0 0 0 0 0 0 0 0 0 127 0"/><feOffset dx=".2" dy="-.2"/><feGaussianBlur stdDeviation=".15"/><feComposite in2="hardAlpha" k2="-1" k3="1" operator="arithmetic"/><feColorMatrix type="matrix" values="0 0 0 0 0.47451 0 0 0 0 0.262745 0 0 0 0 0.164706 0 0 0 1 0"/><feBlend in2="shape" mode="normal" result="effect1_innerShadow_4002_2176"/></filter><filter id="t" color-interpolation-filters="sRGB" filterUnits="userSpaceOnUse" height="1.09111" width="2.45278" x="17.0349" y="7.75691"><feFlood flood-opacity="0" result="BackgroundImageFix"/><feBlend in="SourceGraphic" in2="BackgroundImageFix" mode="normal" result="shape"/><feColorMatrix in="SourceAlpha" result="hardAlpha" type="matrix" values="0 0 0 0 0 0 0 0 0 0 0 0 0 0 0 0 0 0 127 0"/><feOffset dx=".2" dy="-.2"/><feGaussianBlur stdDeviation=".15"/><feComposite in2="hardAlpha" k2="-1" k3="1" operator="arithmetic"/><feColorMatrix type="matrix" values="0 0 0 0 0.47451 0 0 0 0 0.262745 0 0 0 0 0.164706 0 0 0 1 0"/><feBlend in2="shape" mode="normal" result="effect1_innerShadow_4002_2176"/></filter><filter id="u" color-interpolation-filters="sRGB" filterUnits="userSpaceOnUse" height=".696338" width=".786823" x="16.8737" y="9.54807"><feFlood flood-opacity="0" result="BackgroundImageFix"/><feBlend in="SourceGraphic" in2="BackgroundImageFix" mode="normal" result="shape"/><feGaussianBlur result="effect1_foregroundBlur_4002_2176" stdDeviation=".05"/></filter><filter id="v" color-interpolation-filters="sRGB" filterUnits="userSpaceOnUse" height=".913428" width=".891241" x="17.7136" y="9.62312"><feFlood flood-opacity="0" result="BackgroundImageFix"/><feBlend in="SourceGraphic" in2="BackgroundImageFix" mode="normal" result="shape"/><feGaussianBlur result="effect1_foregroundBlur_4002_2176" stdDeviation=".1"/></filter><filter id="w" color-interpolation-filters="sRGB" filterUnits="userSpaceOnUse" height="1.04014" width=".986304" x="13.2707" y="9.55964"><feFlood flood-opacity="0" result="BackgroundImageFix"/><feBlend in="SourceGraphic" in2="BackgroundImageFix" mode="normal" result="shape"/><feGaussianBlur result="effect1_foregroundBlur_4002_2176" stdDeviation=".1"/></filter><filter id="x" color-interpolation-filters="sRGB" filterUnits="userSpaceOnUse" height=".704517" width=".913043" x="12.5158" y="9.54014"><feFlood flood-opacity="0" result="BackgroundImageFix"/><feBlend in="SourceGraphic" in2="BackgroundImageFix" mode="normal" result="shape"/><feGaussianBlur result="effect1_foregroundBlur_4002_2176" stdDeviation=".05"/></filter><filter id="y" color-interpolation-filters="sRGB" filterUnits="userSpaceOnUse" height="1.37776" width="2.66081" x="16.8652" y="7.6791"><feFlood flood-opacity="0" result="BackgroundImageFix"/><feBlend in="SourceGraphic" in2="BackgroundImageFix" mode="normal" result="shape"/><feGaussianBlur result="effect1_foregroundBlur_4002_2176" stdDeviation=".2"/></filter><filter id="z" color-interpolation-filters="sRGB" filterUnits="userSpaceOnUse" height="1.37776" width="2.66081" x="11.4136" y="7.6791"><feFlood flood-opacity="0" result="BackgroundImageFix"/><feBlend in="SourceGraphic" in2="BackgroundImageFix" mode="normal" result="shape"/><feGaussianBlur result="effect1_foregroundBlur_4002_2176" stdDeviation=".2"/></filter><filter id="A" color-interpolation-filters="sRGB" filterUnits="userSpaceOnUse" height="5.24988" width="4.28714" x="9.16638" y="3.55896"><feFlood flood-opacity="0" result="BackgroundImageFix"/><feBlend in="SourceGraphic" in2="BackgroundImageFix" mode="normal" result="shape"/><feGaussianBlur result="effect1_foregroundBlur_4002_2176" stdDeviation=".25"/></filter><filter id="B" color-interpolation-filters="sRGB" filterUnits="userSpaceOnUse" height="5.78015" width="8.91418" x="12.1085" y="2.51062"><feFlood flood-opacity="0" result="BackgroundImageFix"/><feBlend in="SourceGraphic" in2="BackgroundImageFix" mode="normal" result="shape"/><feGaussianBlur result="effect1_foregroundBlur_4002_2176" stdDeviation=".125"/></filter><filter id="C" color-interpolation-filters="sRGB" filterUnits="userSpaceOnUse" height="2.30967" width="1.14478" x="12.2345" y="3.74312"><feFlood flood-opacity="0" result="BackgroundImageFix"/><feBlend in="SourceGraphic" in2="BackgroundImageFix" mode="normal" result="shape"/><feGaussianBlur result="effect1_foregroundBlur_4002_2176" stdDeviation=".1"/></filter><filter id="D" color-interpolation-filters="sRGB" filterUnits="userSpaceOnUse" height="6.32368" width="11.4786" x="9.61147" y="5.91975"><feFlood flood-opacity="0" result="BackgroundImageFix"/><feBlend in="SourceGraphic" in2="BackgroundImageFix" mode="normal" result="shape"/><feColorMatrix in="SourceAlpha" result="hardAlpha" type="matrix" values="0 0 0 0 0 0 0 0 0 0 0 0 0 0 0 0 0 0 127 0"/><feOffset dy="-.2"/><feGaussianBlur stdDeviation=".1"/><feComposite in2="hardAlpha" k2="-1" k3="1" operator="arithmetic"/><feColorMatrix type="matrix" values="0 0 0 0 0.596078 0 0 0 0 0.498039 0 0 0 0 0.690196 0 0 0 1 0"/><feBlend in2="shape" mode="normal" result="effect1_innerShadow_4002_2176"/><feColorMatrix in="SourceAlpha" result="hardAlpha" type="matrix" values="0 0 0 0 0 0 0 0 0 0 0 0 0 0 0 0 0 0 127 0"/><feOffset dx="-.15" dy=".1"/><feGaussianBlur stdDeviation=".125"/><feComposite in2="hardAlpha" k2="-1" k3="1" operator="arithmetic"/><feColorMatrix type="matrix" values="0 0 0 0 0.760784 0 0 0 0 0.741176 0 0 0 0 0.784314 0 0 0 1 0"/><feBlend in2="effect1_innerShadow_4002_2176" mode="normal" result="effect2_innerShadow_4002_2176"/></filter><linearGradient id="E" gradientUnits="userSpaceOnUse" x1="20.1189" x2="13.3138" y1="3.63234" y2="16.2368"><stop offset="0" stop-color="#ffffbe"/><stop offset="1" stop-color="#e5ae90"/></linearGradient><radialGradient id="F" cx="0" cy="0" gradientTransform="matrix(1.74317187 -3.62044259 8.25485489 3.97455022 20.1189 16.4045)" gradientUnits="userSpaceOnUse" r="1"><stop offset="0" stop-color="#f9bfa4"/><stop offset="1" stop-color="#ffc3a8" stop-opacity="0"/></radialGradient><radialGradient id="G" cx="0" cy="0" gradientTransform="matrix(-1.88842575 5.46146213 -5.11228648 -1.76769026 14.7552 12.3482)" gradientUnits="userSpaceOnUse" r="1"><stop offset=".619534" stop-color="#c7897d"/><stop offset="1" stop-color="#c7897d" stop-opacity="0"/></radialGradient><radialGradient id="H" cx="0" cy="0" gradientTransform="matrix(-3.15111202 2.44716123 -3.01232529 -3.87885126 12.3082 13.3539)" gradientUnits="userSpaceOnUse" r="1"><stop offset=".205322" stop-color="#cf987b"/><stop offset="1" stop-color="#cf987b" stop-opacity="0"/></radialGradient><radialGradient id="I" cx="0" cy="0" gradientTransform="matrix(-1.02251274 1.45824015 -1.32547636 -.92941924 10.5818 10.8062)" gradientUnits="userSpaceOnUse" r="1"><stop offset=".333546" stop-color="#c58e72"/><stop offset="1" stop-color="#c58e72" stop-opacity="0"/></radialGradient><radialGradient id="J" cx="0" cy="0" gradientTransform="matrix(-2.32982606 -.5195825 .76378884 -3.42485583 11.118 9.31442)" gradientUnits="userSpaceOnUse" r="1"><stop offset=".225789" stop-color="#c49070"/><stop offset="1" stop-color="#c49070" stop-opacity="0"/></radialGradient><radialGradient id="K" cx="0" cy="0" gradientTransform="matrix(2.16228878 3.16788427 -5.52838751 3.77348705 11.5874 3.01217)" gradientUnits="userSpaceOnUse" r="1"><stop offset="0" stop-color="#dcc893"/><stop offset="1" stop-color="#dcc893" stop-opacity="0"/></radialGradient><radialGradient id="L" cx="0" cy="0" gradientTransform="matrix(-1.10623964 1.20682579 -1.68651753 -1.54595019 20.9235 4.83915)" gradientUnits="userSpaceOnUse" r="1"><stop offset="0" stop-color="#ffffbf"/><stop offset="1" stop-color="#ffffbf" stop-opacity="0"/></radialGradient><radialGradient id="M" cx="0" cy="0" gradientTransform="matrix(-1.84366344 .5363666 -1.16706176 -4.0115643 22.9348 9.73345)" gradientUnits="userSpaceOnUse" r="1"><stop offset="0" stop-color="#fffabe"/><stop offset="1" stop-color="#fffabe" stop-opacity="0"/></radialGradient><radialGradient id="N" cx="0" cy="0" gradientTransform="matrix(-3.1511318 1.3408876 -2.13644348 -5.02071537 22.6667 12.5158)" gradientUnits="userSpaceOnUse" r="1"><stop offset="0" stop-color="#fff4bc"/><stop offset="1" stop-color="#fff4bc" stop-opacity="0"/></radialGradient><linearGradient id="O"><stop offset=".00558659" stop-color="#ccc"/><stop offset="1" stop-color="#e6e6e6"/></linearGradient><linearGradient id="P" gradientUnits="userSpaceOnUse" x1="8.22955" x2="22.6589" xlink:href="#O" y1="15.2821" y2="15.2821"/><linearGradient id="Q" gradientUnits="userSpaceOnUse" x1="8.22955" x2="22.6589" xlink:href="#O" y1="15.2517" y2="15.2517"/><radialGradient id="R" cx="0" cy="0" gradientTransform="matrix(0 5.8125 -3.29991 0 15.4458 18.2717)" gradientUnits="userSpaceOnUse" r="1"><stop offset=".350595" stop-color="#755b9f"/><stop offset="1" stop-color="#482f73"/></radialGradient><radialGradient id="S" cx="0" cy="0" gradientTransform="matrix(0 -4.65625 6.93357 0 15.4458 30.2717)" gradientUnits="userSpaceOnUse" r="1"><stop offset="0" stop-color="#5f4786"/><stop offset="1" stop-color="#5f4786" stop-opacity="0"/></radialGradient><radialGradient id="T" cx="0" cy="0" gradientTransform="matrix(-4.43749328 1.46876357 -2.38167982 -7.19563614 13.3334 26.9278)" gradientUnits="userSpaceOnUse" r="1"><stop offset="0" stop-color="#e3d3fa"/><stop offset="1" stop-color="#cdc1db"/></radialGradient><linearGradient id="U"><stop offset="0" stop-color="#c7aae2"/><stop offset="1" stop-color="#c7aae2" stop-opacity="0"/></linearGradient><linearGradient id="V" gradientUnits="userSpaceOnUse" x1="11.2391" x2="11.2391" xlink:href="#U" y1="30.3653" y2="29.0528"/><linearGradient id="W" gradientUnits="userSpaceOnUse" x1="15.1771" x2="14.2084" y1="29.0528" y2="29.0528"><stop offset=".129033" stop-color="#b5a2c9"/><stop offset="1" stop-color="#e2d2f8" stop-opacity="0"/></linearGradient><radialGradient id="X" cx="0" cy="0" gradientTransform="matrix(0 3.375 -2.57376 0 9.30212 17.3653)" gradientUnits="userSpaceOnUse" r="1"><stop offset="0" stop-color="#bdbabb"/><stop offset="1" stop-color="#bdbabb" stop-opacity="0"/></radialGradient><radialGradient id="Y" cx="0" cy="0" gradientTransform="matrix(0 -7.15073 2.71782 0 21.2065 30.2403)" gradientUnits="userSpaceOnUse" r="1"><stop offset="0" stop-color="#c3a5dc"/><stop offset="1" stop-color="#cfbce6"/></radialGradient><radialGradient id="Z" cx="0" cy="0" gradientTransform="matrix(0 9.15625 -3.9375 0 22.7709 18.4903)" gradientUnits="userSpaceOnUse" r="1"><stop offset="0" stop-color="#f6f4ff"/><stop offset="1" stop-color="#d7ccea" stop-opacity="0"/></radialGradient><linearGradient id="aa" gradientUnits="userSpaceOnUse" x1="19.7396" x2="19.7396" xlink:href="#U" y1="30.3653" y2="29.0528"/><linearGradient id="ab" gradientUnits="userSpaceOnUse" x1="15.8021" x2="16.5052" y1="27.9278" y2="27.9278"><stop offset="0" stop-color="#a588b8"/><stop offset="1" stop-color="#d1bee7" stop-opacity="0"/></linearGradient><linearGradient id="ac" gradientUnits="userSpaceOnUse" x1="10.4584" x2="12.6772" y1="17.9848" y2="24.6723"><stop offset="0" stop-color="#b0a6b5"/><stop offset="1" stop-color="#bfa7d3"/></linearGradient><radialGradient id="ad" cx="0" cy="0" gradientTransform="matrix(-3.72790566 1.31251029 -2.69680962 -7.65971278 14.9988 21.8654)" gradientUnits="userSpaceOnUse" r="1"><stop offset="0" stop-color="#fcefff"/><stop offset="1" stop-color="#e6d7e3"/></radialGradient><linearGradient id="ae" gradientUnits="userSpaceOnUse" x1="20.6328" x2="18.2823" y1="19.035" y2="23.7361"><stop offset="0" stop-color="#c8c2cc"/><stop offset="1" stop-color="#c5b2dd"/></linearGradient><radialGradient id="af" cx="0" cy="0" gradientTransform="matrix(-3.74795671 3.71876513 -3.74798807 -3.77740905 22.4896 17.6466)" gradientUnits="userSpaceOnUse" r="1"><stop offset="0" stop-color="#fffbff"/><stop offset="1" stop-color="#e6d2de"/></radialGradient><radialGradient id="ag" cx="0" cy="0" gradientTransform="matrix(3.62500319 -7.46874982 10.06970187 4.8873911 16.7396 26.1779)" gradientUnits="userSpaceOnUse" r="1"><stop offset="0" stop-color="#d8bbf3"/><stop offset=".930076" stop-color="#d8bbf3" stop-opacity="0"/></radialGradient><radialGradient id="ah" cx="0" cy="0" gradientTransform="matrix(-1.32627965 3.3115767 -5.95653809 -2.38558124 20.5346 14.8194)" gradientUnits="userSpaceOnUse" r="1"><stop offset=".0725389" stop-color="#c2bfc3"/><stop offset="1" stop-color="#ddd8e2" stop-opacity="0"/></radialGradient><linearGradient id="ai" gradientUnits="userSpaceOnUse" x1="18.9584" x2="17.5521" y1="24.0529" y2="22.5529"><stop offset="0" stop-color="#d6baf6"/><stop offset="1" stop-color="#e2d2ee" stop-opacity="0"/><stop offset="1" stop-color="#e7cfff" stop-opacity="0"/></linearGradient><linearGradient id="aj" gradientUnits="userSpaceOnUse" x1="17.1459" x2="17.974" y1="18.8341" y2="19.1779"><stop offset=".0807772" stop-color="#9f98a7"/><stop offset="1" stop-color="#e2d6f0" stop-opacity="0"/></linearGradient><radialGradient id="ak" cx="0" cy="0" gradientTransform="matrix(-2.95848 0 0 -8.5991 8.22565 26.0675)" gradientUnits="userSpaceOnUse" r="1"><stop offset="0" stop-color="#ddcef1"/><stop offset="1" stop-color="#d6cbe2"/></radialGradient><linearGradient id="al" gradientUnits="userSpaceOnUse" x1="6.56721" x2="6.56721" xlink:href="#U" y1="30.3078" y2="29.1741"/><radialGradient id="am" cx="0" cy="0" gradientTransform="matrix(-7.51743 0 0 -10.8202 10.0047 28.9234)" gradientUnits="userSpaceOnUse" r="1"><stop offset=".65625" stop-color="#c4c1c3" stop-opacity="0"/><stop offset="1" stop-color="#c4c1c3"/></radialGradient><linearGradient id="an" gradientUnits="userSpaceOnUse" x1="8.37985" x2="7.93495" y1="29.3418" y2="29.3391"><stop offset=".1747" stop-color="#bfa6da"/><stop offset="1" stop-color="#c0a9d9" stop-opacity="0"/></linearGradient><radialGradient id="ao" cx="0" cy="0" gradientTransform="matrix(-1.73585779 3.8328992 -7.93232911 -3.59242302 13.288 15.0324)" gradientUnits="userSpaceOnUse" r="1"><stop offset="0" stop-color="#746e77"/><stop offset="1" stop-color="#a8a1ad" stop-opacity="0"/></radialGradient><radialGradient id="ap" cx="0" cy="0" gradientTransform="matrix(.4158362 12.10916207 -8.52544454 .2927691 24.1771 17.8341)" gradientUnits="userSpaceOnUse" r="1"><stop offset="0" stop-color="#faf8fe"/><stop offset="1" stop-color="#c6a5e0"/></radialGradient><linearGradient id="aq" gradientUnits="userSpaceOnUse" x1="22.7528" x2="23.1615" y1="27.6154" y2="27.5997"><stop offset="0" stop-color="#b59fc2"/><stop offset="1" stop-color="#b59fc2" stop-opacity="0"/></linearGradient><radialGradient id="ar" cx="0" cy="0" gradientTransform="matrix(0 2.41281 -3.18655 0 15.4257 16.5224)" gradientUnits="userSpaceOnUse" r="1"><stop offset="0" stop-color="#be7682"/><stop offset=".632245" stop-color="#cf8f8d"/></radialGradient><radialGradient id="as" cx="0" cy="0" gradientTransform="matrix(0 2.25 -.875 0 13.7657 15.8841)" gradientUnits="userSpaceOnUse" r="1"><stop offset="0" stop-color="#cf8b7d"/><stop offset="1" stop-color="#cf8b7d" stop-opacity="0"/></radialGradient><radialGradient id="at" cx="0" cy="0" gradientTransform="matrix(-2.03942675 1.39355098 -1.36898117 -2.00346946 27.8083 23.5758)" gradientUnits="userSpaceOnUse" r="1"><stop offset=".463759" stop-color="#deaf8e"/><stop offset="1" stop-color="#b27959"/></radialGradient><radialGradient id="au" cx="0" cy="0" gradientTransform="matrix(.80394663 -.61290235 .46984309 .6162952 27.2058 23.4213)" gradientUnits="userSpaceOnUse" r="1"><stop offset=".131677" stop-color="#e6bea1"/><stop offset="1" stop-color="#e6bea1" stop-opacity="0"/></radialGradient><linearGradient id="av" gradientUnits="userSpaceOnUse" x1="23.8254" x2="26.5286" y1="20.8029" y2="20.8029"><stop offset=".252755" stop-color="#a3d3ff"/><stop offset=".772986" stop-color="#bff0ff"/></linearGradient><linearGradient id="aw" gradientUnits="userSpaceOnUse" x1="26.5286" x2="26.1805" y1="20.7872" y2="20.7872"><stop offset="0" stop-color="#aedcff"/><stop offset="1" stop-color="#aedcff" stop-opacity="0"/></linearGradient><radialGradient id="ax" cx="0" cy="0" gradientTransform="matrix(0 1.54688 -.394165 0 25.5712 19.3341)" gradientUnits="userSpaceOnUse" r="1"><stop offset="0" stop-color="#bcebff"/><stop offset="1" stop-color="#bcebff" stop-opacity="0"/></radialGradient><radialGradient id="ay" cx="0" cy="0" gradientTransform="matrix(-2.91833 0 0 -.207411 25.177 19.0216)" gradientUnits="userSpaceOnUse" r="1"><stop offset=".496038" stop-color="#b8e0ff"/><stop offset="1" stop-color="#b8e0ff" stop-opacity="0"/></radialGradient><radialGradient id="az" cx="0" cy="0" gradientTransform="matrix(-.28515706 .14843704 -.12606977 -.24218809 27.0048 18.8732)" gradientUnits="userSpaceOnUse" r="1"><stop offset="0" stop-color="#d3faff"/><stop offset="1" stop-color="#d3faff" stop-opacity="0"/></radialGradient><radialGradient id="aA" cx="0" cy="0" gradientTransform="matrix(-.17968807 .13281179 -.08816257 -.11927979 23.4071 19.2325)" gradientUnits="userSpaceOnUse" r="1"><stop offset="0" stop-color="#caedff"/><stop offset="1" stop-color="#caedff" stop-opacity="0"/></radialGradient><linearGradient id="aB" gradientUnits="userSpaceOnUse" x1="26.5286" x2="25.177" y1="23.1154" y2="23.1154"><stop offset=".477116" stop-color="#ccff86"/><stop offset="1" stop-color="#83b651"/></linearGradient><linearGradient id="aC" gradientUnits="userSpaceOnUse" x1="26.5286" x2="26.1287" y1="23.2638" y2="23.2638"><stop offset="0" stop-color="#c0f07e"/><stop offset="1" stop-color="#c0f07e" stop-opacity="0"/></linearGradient><linearGradient id="aD" gradientUnits="userSpaceOnUse" x1="23.6962" x2="24.2274" y1="23.2638" y2="23.2638"><stop offset="0" stop-color="#a4c098"/><stop offset="1" stop-color="#a4c098" stop-opacity="0"/></linearGradient><radialGradient id="aE" cx="0" cy="0" gradientTransform="matrix(0 1.34375 -.515625 0 26.2274 21.1779)" gradientUnits="userSpaceOnUse" r="1"><stop offset="0" stop-color="#e6ff81"/><stop offset="1" stop-color="#e6ff81" stop-opacity="0"/></radialGradient><linearGradient id="aF"><stop offset="0" stop-color="#0e7268"/><stop offset="1" stop-color="#29615d"/></linearGradient><linearGradient id="aG" gradientUnits="userSpaceOnUse" x1="24.7821" x2="23.8915" xlink:href="#aF" y1="21.756" y2="21.756"/><linearGradient id="aH" gradientUnits="userSpaceOnUse" x1="24.7821" x2="23.8915" xlink:href="#aF" y1="23.5372" y2="23.5372"/><linearGradient id="aI" gradientUnits="userSpaceOnUse" x1="27.1645" x2="23.1365" y1="28.0057" y2="28.0057"><stop offset=".145558" stop-color="#f3c29f"/><stop offset=".861163" stop-color="#c68b80"/></linearGradient><radialGradient id="aJ" cx="0" cy="0" gradientTransform="matrix(0 .801703 -1.35439 0 25.5736 25.2479)" gradientUnits="userSpaceOnUse" r="1"><stop offset=".106061" stop-color="#f8c8ad"/><stop offset="1" stop-color="#f2c49e" stop-opacity="0"/></radialGradient><linearGradient id="aK"><stop offset=".109091" stop-color="#f8c8ad"/><stop offset="1" stop-color="#f2c49e" stop-opacity="0"/></linearGradient><radialGradient id="aL" cx="0" cy="0" gradientTransform="matrix(0 .859375 -1.45182 0 25.5736 26.5423)" gradientUnits="userSpaceOnUse" r="1" xlink:href="#aK"/><radialGradient id="aM" cx="0" cy="0" gradientTransform="matrix(0 .71875 -1.21425 0 25.5736 27.7923)" gradientUnits="userSpaceOnUse" r="1" xlink:href="#aK"/><radialGradient id="aN" cx="0" cy="0" gradientTransform="matrix(0 .799377 -1.7273 0 25.5736 29.1439)" gradientUnits="userSpaceOnUse" r="1"><stop offset=".186046" stop-color="#f8c8ad"/><stop offset="1" stop-color="#f2c49e" stop-opacity="0"/></radialGradient><radialGradient id="aO" cx="0" cy="0" gradientTransform="matrix(-2.72855739 5.10991925 -3.29342525 -1.75859918 28.024 24.8333)" gradientUnits="userSpaceOnUse" r="1"><stop offset="0" stop-color="#feca9f"/><stop offset="1" stop-color="#feca9f" stop-opacity="0"/></radialGradient><linearGradient id="aP"><stop offset="0" stop-color="#ae7759"/><stop offset="1" stop-color="#c08666" stop-opacity="0"/></linearGradient><linearGradient id="aQ" gradientUnits="userSpaceOnUse" x1="23.754" x2="25.4633" xlink:href="#aP" y1="26.0236" y2="26.0236"/><linearGradient id="aR" gradientUnits="userSpaceOnUse" x1="23.6759" x2="25.3851" xlink:href="#aP" y1="27.3282" y2="27.3282"/><linearGradient id="aS" gradientUnits="userSpaceOnUse" x1="23.754" x2="25.4633" xlink:href="#aP" y1="28.6329" y2="28.6329"/><linearGradient id="aT" gradientUnits="userSpaceOnUse" x1="8.26109" x2="22.6371" xlink:href="#O" y1="15.2321" y2="15.2321"/><linearGradient id="aU" gradientUnits="userSpaceOnUse" x1="8.26109" x2="22.6371" xlink:href="#O" y1="15.2018" y2="15.2018"/><linearGradient id="aV" gradientUnits="userSpaceOnUse" x1="9.13098" x2="12.0903" y1="10.6722" y2="10.6722"><stop offset="0" stop-color="#c48b78"/><stop offset="1" stop-color="#b47860"/></linearGradient><radialGradient id="aW" cx="0" cy="0" gradientTransform="matrix(2.4890503 -1.13138887 1.38137594 3.0390207 19.4653 11.0242)" gradientUnits="userSpaceOnUse" r="1"><stop offset=".572298" stop-color="#e1a792"/><stop offset=".904617" stop-color="#f6c3a3"/></radialGradient><radialGradient id="aX" cx="0" cy="0" gradientTransform="matrix(.99730223 .28494357 -.14980547 .524319 20.4877 8.80333)" gradientUnits="userSpaceOnUse" r="1"><stop offset="0" stop-color="#d59566"/><stop offset="1" stop-color="#d59566" stop-opacity="0"/></radialGradient><radialGradient id="aY" cx="0" cy="0" gradientTransform="matrix(1.22357948 -.45255753 .45255753 1.22357948 20.0185 10.823)" gradientUnits="userSpaceOnUse" r="1"><stop offset=".71002" stop-color="#e3a280" stop-opacity="0"/><stop offset="1" stop-color="#e3a280"/></radialGradient><radialGradient id="aZ" cx="0" cy="0" gradientTransform="matrix(-1.21686 0 0 -1.164 10.7594 10.585)" gradientUnits="userSpaceOnUse" r="1"><stop offset=".572999" stop-color="#b0725a" stop-opacity="0"/><stop offset="1" stop-color="#b0725a"/></radialGradient><radialGradient id="a0" cx="0" cy="0" gradientTransform="matrix(-6.50358035 2.99901745 -4.01412942 -8.70492209 18.285 10.0474)" gradientUnits="userSpaceOnUse" r="1"><stop offset="0" stop-color="#ffc59d"/><stop offset="1" stop-color="#d39b88"/></radialGradient><radialGradient id="a1" cx="0" cy="0" gradientTransform="matrix(-2.10973337 1.1159151 -.94677543 -1.78996028 17.326 10.7449)" gradientUnits="userSpaceOnUse" r="1"><stop offset="0" stop-color="#ffc89e"/><stop offset="1" stop-color="#ffc89e" stop-opacity="0"/></radialGradient><radialGradient id="a2" cx="0" cy="0" gradientTransform="matrix(.83692541 -4.04512849 5.13251872 1.06190331 13.246 16.83)" gradientUnits="userSpaceOnUse" r="1"><stop offset="0" stop-color="#b97783"/><stop offset="1" stop-color="#b97783" stop-opacity="0"/></radialGradient><radialGradient id="a3" cx="0" cy="0" gradientTransform="matrix(0 7.02109 -9.51751 0 15.4258 9.76019)" gradientUnits="userSpaceOnUse" r="1"><stop offset=".64393" stop-color="#c7878b" stop-opacity="0"/><stop offset="1" stop-color="#bd7689"/></radialGradient><radialGradient id="a4" cx="0" cy="0" gradientTransform="matrix(-5.73237655 .77097299 -1.32737812 -9.86938754 16.0627 12.3818)" gradientUnits="userSpaceOnUse" r="1"><stop offset=".813118" stop-color="#e3ab91" stop-opacity="0"/><stop offset="1" stop-color="#e3ab91"/></radialGradient><radialGradient id="a5" cx="0" cy="0" gradientTransform="matrix(0 -1.15077 1.65436 0 17.7271 9.62896)" gradientUnits="userSpaceOnUse" r="1"><stop offset=".258747" stop-color="#e3a48e"/><stop offset="1" stop-color="#e3a48e" stop-opacity="0"/></radialGradient><radialGradient id="a6" cx="0" cy="0" gradientTransform="matrix(0 -1.36 1.55865 0 13.5076 9.71614)" gradientUnits="userSpaceOnUse" r="1"><stop offset="0" stop-color="#c2847a"/><stop offset="1" stop-color="#c2847a" stop-opacity="0"/></radialGradient><radialGradient id="a7" cx="0" cy="0" gradientTransform="matrix(-1.34695 0 0 -4.43421 20.5212 11.1165)" gradientUnits="userSpaceOnUse" r="1"><stop offset="0" stop-color="#f4c099"/><stop offset="1" stop-color="#f4c099" stop-opacity="0"/></radialGradient><radialGradient id="a8" cx="0" cy="0" gradientTransform="matrix(1.1562486 4.21875007 -8.717832 2.38932881 12.9257 4.54144)" gradientUnits="userSpaceOnUse" r="1"><stop offset="0" stop-color="#be7c5a"/><stop offset="1" stop-color="#be7c5a" stop-opacity="0"/></radialGradient><radialGradient id="a9" cx="0" cy="0" gradientTransform="matrix(-.69745675 -2.44973908 1.40177446 -.39909436 16.2102 12.0984)" gradientUnits="userSpaceOnUse" r="1"><stop offset=".0168227" stop-color="#fdc9a8"/><stop offset="1" stop-color="#fdc9a8" stop-opacity="0"/></radialGradient><linearGradient id="ba" gradientUnits="userSpaceOnUse" x1="14.3794" x2="15.2338" y1="12.1159" y2="12.2205"><stop offset="0" stop-color="#d1987a"/><stop offset="1" stop-color="#d1987a" stop-opacity="0"/></linearGradient><linearGradient id="bb" gradientUnits="userSpaceOnUse" x1="15.4258" x2="15.4258" y1="12.9702" y2="12.36"><stop offset="0" stop-color="#c57f82"/><stop offset="1" stop-color="#c57f82" stop-opacity="0"/></linearGradient><linearGradient id="bc" gradientUnits="userSpaceOnUse" x1="15.504" x2="15.504" y1="12.9441" y2="12.8046"><stop offset="0" stop-color="#c27b7c"/><stop offset="1" stop-color="#c27b7c" stop-opacity="0"/></linearGradient><radialGradient id="bd" cx="0" cy="0" gradientTransform="matrix(-1.28153556 .91539343 -1.22609675 -1.71651504 15.7133 11.741)" gradientUnits="userSpaceOnUse" r="1"><stop offset=".797297" stop-color="#c27b7c" stop-opacity="0"/><stop offset="1" stop-color="#c27b7c"/></radialGradient><linearGradient id="be" gradientUnits="userSpaceOnUse" x1="14.6967" x2="15.1493" y1="14.192" y2="13.3204"><stop offset="0" stop-color="#d9a59c"/><stop offset="1" stop-color="#d9a59c" stop-opacity="0"/></linearGradient><linearGradient id="bf"><stop offset=".80198" stop-color="#925c51"/><stop offset="1" stop-color="#694b43"/><stop offset="1" stop-color="#804d49"/><stop offset="1" stop-color="#85534d"/></linearGradient><radialGradient id="bg" cx="0" cy="0" gradientTransform="matrix(0 .811316 -1.29049 0 17.6079 9.98789)" gradientUnits="userSpaceOnUse" r="1" xlink:href="#bf"/><linearGradient id="bh"><stop offset=".765532" stop-color="#ffe6e2" stop-opacity="0"/><stop offset=".966159" stop-color="#ffe6e2"/></linearGradient><radialGradient id="bi" cx="0" cy="0" gradientTransform="matrix(-.23191676 -.29885601 .41145298 -.31929369 17.3796 10.072)" gradientUnits="userSpaceOnUse" r="1" xlink:href="#bh"/><linearGradient id="bj"><stop offset="0" stop-color="#b4948d"/><stop offset="1" stop-color="#b4948d" stop-opacity="0"/></linearGradient><linearGradient id="bk" gradientUnits="userSpaceOnUse" x1="18.3858" x2="18.072" xlink:href="#bj" y1="10.0418" y2="10.2351"/><radialGradient id="bl" cx="0" cy="0" gradientTransform="matrix(0 .811321 -1.2905 0 13.2437 9.98789)" gradientUnits="userSpaceOnUse" r="1" xlink:href="#bf"/><linearGradient id="bm" gradientUnits="userSpaceOnUse" x1="13.9875" x2="13.6738" xlink:href="#bj" y1="10.0417" y2="10.235"/><radialGradient id="bn" cx="0" cy="0" gradientTransform="matrix(-.00773543 -.49405945 .59387921 -.0092983 12.9573 10.2073)" gradientUnits="userSpaceOnUse" r="1" xlink:href="#bh"/><radialGradient id="bo" cx="0" cy="0" gradientTransform="matrix(1.93486345 2.68180712 -5.32875894 3.84457958 9.46811 4.33644)" gradientUnits="userSpaceOnUse" r="1"><stop offset=".403078" stop-color="#daa88f" stop-opacity="0"/><stop offset="1" stop-color="#daa88f"/></radialGradient><radialGradient id="bp" cx="0" cy="0" gradientTransform="matrix(-1.87734741 2.48067799 -1.94549877 -1.47233018 12.7104 4.57109)" gradientUnits="userSpaceOnUse" r="1"><stop offset="0" stop-color="#fee2a9"/><stop offset="1" stop-color="#fee2a9" stop-opacity="0"/></radialGradient><radialGradient id="bq" cx="0" cy="0" gradientTransform="matrix(-2.11195111 4.39144816 -6.24446463 -3.00311049 17.3366 2.66034)" gradientUnits="userSpaceOnUse" r="1"><stop offset=".595085" stop-color="#f0c6a3" stop-opacity="0"/><stop offset="1" stop-color="#f0c6a3"/></radialGradient><radialGradient id="br" cx="0" cy="0" gradientTransform="matrix(-.85679225 3.20721822 -5.72497472 -1.52939825 17.7389 3.83363)" gradientUnits="userSpaceOnUse" r="1"><stop offset="0" stop-color="#ffffc0"/><stop offset="1" stop-color="#ffffc0" stop-opacity="0"/></radialGradient><radialGradient id="bs" cx="0" cy="0" gradientTransform="matrix(-3.50318251 -6.30225719 5.64141897 -3.13584794 16.7165 9.29781)" gradientUnits="userSpaceOnUse" r="1"><stop offset=".891192" stop-color="#dac493" stop-opacity="0"/><stop offset=".979491" stop-color="#dac493"/></radialGradient><linearGradient id="bt" gradientUnits="userSpaceOnUse" x1="12.5345" x2="13.0793" y1="4.3867" y2="5.66056"><stop offset="0" stop-color="#ebce91"/><stop offset="1" stop-color="#e6bd9f"/></linearGradient><linearGradient id="bu" gradientUnits="userSpaceOnUse" x1="10.5882" x2="22.1772" y1="9.68271" y2="9.68271"><stop offset="0" stop-color="#9cc4ac"/><stop offset=".115129" stop-color="#77a78a"/><stop offset=".256665" stop-color="#77a78a"/><stop offset=".917166" stop-color="#97c1a5" stop-opacity=".75"/></linearGradient><g clip-rule="evenodd" fill-rule="evenodd" filter="url(#a)"><path d="m22.6109 11.9946c.2125-.4351.3239-.9209.3239-1.4269 0-.4673-.0962-.90578-.2686-1.30547h.0053c-.0804-.18099-.1708-.35199-.2812-.513l-.002-.00313c-.3441-.52624-.5263-1.14356-.5263-1.771v-.01012c0-1.82161-1.4775-3.29913-3.2991-3.29913-.1822 0-.3542-.08096-.4554-.23276-.5971-.82985-1.5788-1.37633-2.6819-1.37633s-2.0847.54648-2.6818 1.37633c-.1012.14168-.2733.23276-.4554.23276-.0285 0-.0568.00036-.0851.00108-1.7823.04512-3.21405 1.50487-3.21405 3.29805v.01012c0 .62744-.18216 1.24476-.52625 1.771l-.00229.00368c-.34262.52544-.54408 1.14146-.54408 1.81792 0 .5161.12144.9918.32384 1.4269.07084.1417.07084.3138 0 .4554-.2024.4251-.32384.9007-.32384 1.4067 0 1.7811 1.43704 3.2182 3.21817 3.2182h8.5818c1.7811 0 3.2182-1.4371 3.2182-3.2182 0-.506-.1215-.9816-.3239-1.4067-.0708-.1416-.0708-.3137 0-.4554zm-12.2601-2.67236h-.0123l1.1986 2.35556c.1233 2.8025 1.2171 0 3.8885 0s3.8364 3.1193 3.9597.3168l1.1358-3.1971c-.0537-1.24483-.9558-1.3322-1.1358-1.3322h-3.2201c-1.2716 0-2.4714-.62239-3.1892-1.67329-.1231-.17345-.3794-.14285-.4615.05101l-.082.19386c-.2256.56116-.6563.98969-1.1896 1.23456-.0153.0051-.0333.01275-.0512.02041-.018.00765-.0359.0153-.0513.0204-.2359.12244-.7896.48975-.8101 1.43862l.0102.30609z" fill="url(#E)"/><path d="m22.6109 11.9946c.2125-.4351.3239-.9209.3239-1.4269 0-.4673-.0962-.90578-.2686-1.30547h.0053c-.0804-.18099-.1708-.35199-.2812-.513l-.002-.00313c-.3441-.52624-.5263-1.14356-.5263-1.771v-.01012c0-1.82161-1.4775-3.29913-3.2991-3.29913-.1822 0-.3542-.08096-.4554-.23276-.5971-.82985-1.5788-1.37633-2.6819-1.37633s-2.0847.54648-2.6818 1.37633c-.1012.14168-.2733.23276-.4554.23276-.0285 0-.0568.00036-.0851.00108-1.7823.04512-3.21405 1.50487-3.21405 3.29805v.01012c0 .62744-.18216 1.24476-.52625 1.771l-.00229.00368c-.34262.52544-.54408 1.14146-.54408 1.81792 0 .5161.12144.9918.32384 1.4269.07084.1417.07084.3138 0 .4554-.2024.4251-.32384.9007-.32384 1.4067 0 1.7811 1.43704 3.2182 3.21817 3.2182h8.5818c1.7811 0 3.2182-1.4371 3.2182-3.2182 0-.506-.1215-.9816-.3239-1.4067-.0708-.1416-.0708-.3137 0-.4554zm-12.2601-2.67236h-.0123l1.1986 2.35556c.1233 2.8025 1.2171 0 3.8885 0s3.8364 3.1193 3.9597.3168l1.1358-3.1971c-.0537-1.24483-.9558-1.3322-1.1358-1.3322h-3.2201c-1.2716 0-2.4714-.62239-3.1892-1.67329-.1231-.17345-.3794-.14285-.4615.05101l-.082.19386c-.2256.56116-.6563.98969-1.1896 1.23456-.0153.0051-.0333.01275-.0512.02041-.018.00765-.0359.0153-.0513.0204-.2359.12244-.7896.48975-.8101 1.43862l.0102.30609z" fill="url(#F)"/><path d="m22.6109 11.9946c.2125-.4351.3239-.9209.3239-1.4269 0-.4673-.0962-.90578-.2686-1.30547h.0053c-.0804-.18099-.1708-.35199-.2812-.513l-.002-.00313c-.3441-.52624-.5263-1.14356-.5263-1.771v-.01012c0-1.82161-1.4775-3.29913-3.2991-3.29913-.1822 0-.3542-.08096-.4554-.23276-.5971-.82985-1.5788-1.37633-2.6819-1.37633s-2.0847.54648-2.6818 1.37633c-.1012.14168-.2733.23276-.4554.23276-.0285 0-.0568.00036-.0851.00108-1.7823.04512-3.21405 1.50487-3.21405 3.29805v.01012c0 .62744-.18216 1.24476-.52625 1.771l-.00229.00368c-.34262.52544-.54408 1.14146-.54408 1.81792 0 .5161.12144.9918.32384 1.4269.07084.1417.07084.3138 0 .4554-.2024.4251-.32384.9007-.32384 1.4067 0 1.7811 1.43704 3.2182 3.21817 3.2182h8.5818c1.7811 0 3.2182-1.4371 3.2182-3.2182 0-.506-.1215-.9816-.3239-1.4067-.0708-.1416-.0708-.3137 0-.4554zm-12.2601-2.67236h-.0123l1.1986 2.35556c.1233 2.8025 1.2171 0 3.8885 0s3.8364 3.1193 3.9597.3168l1.1358-3.1971c-.0537-1.24483-.9558-1.3322-1.1358-1.3322h-3.2201c-1.2716 0-2.4714-.62239-3.1892-1.67329-.1231-.17345-.3794-.14285-.4615.05101l-.082.19386c-.2256.56116-.6563.98969-1.1896 1.23456-.0153.0051-.0333.01275-.0512.02041-.018.00765-.0359.0153-.0513.0204-.2359.12244-.7896.48975-.8101 1.43862l.0102.30609z" fill="url(#G)"/><path d="m22.6109 11.9946c.2125-.4351.3239-.9209.3239-1.4269 0-.4673-.0962-.90578-.2686-1.30547h.0053c-.0804-.18099-.1708-.35199-.2812-.513l-.002-.00313c-.3441-.52624-.5263-1.14356-.5263-1.771v-.01012c0-1.82161-1.4775-3.29913-3.2991-3.29913-.1822 0-.3542-.08096-.4554-.23276-.5971-.82985-1.5788-1.37633-2.6819-1.37633s-2.0847.54648-2.6818 1.37633c-.1012.14168-.2733.23276-.4554.23276-.0285 0-.0568.00036-.0851.00108-1.7823.04512-3.21405 1.50487-3.21405 3.29805v.01012c0 .62744-.18216 1.24476-.52625 1.771l-.00229.00368c-.34262.52544-.54408 1.14146-.54408 1.81792 0 .5161.12144.9918.32384 1.4269.07084.1417.07084.3138 0 .4554-.2024.4251-.32384.9007-.32384 1.4067 0 1.7811 1.43704 3.2182 3.21817 3.2182h8.5818c1.7811 0 3.2182-1.4371 3.2182-3.2182 0-.506-.1215-.9816-.3239-1.4067-.0708-.1416-.0708-.3137 0-.4554zm-12.2601-2.67236h-.0123l1.1986 2.35556c.1233 2.8025 1.2171 0 3.8885 0s3.8364 3.1193 3.9597.3168l1.1358-3.1971c-.0537-1.24483-.9558-1.3322-1.1358-1.3322h-3.2201c-1.2716 0-2.4714-.62239-3.1892-1.67329-.1231-.17345-.3794-.14285-.4615.05101l-.082.19386c-.2256.56116-.6563.98969-1.1896 1.23456-.0153.0051-.0333.01275-.0512.02041-.018.00765-.0359.0153-.0513.0204-.2359.12244-.7896.48975-.8101 1.43862l.0102.30609z" fill="url(#H)"/><path d="m22.6109 11.9946c.2125-.4351.3239-.9209.3239-1.4269 0-.4673-.0962-.90578-.2686-1.30547h.0053c-.0804-.18099-.1708-.35199-.2812-.513l-.002-.00313c-.3441-.52624-.5263-1.14356-.5263-1.771v-.01012c0-1.82161-1.4775-3.29913-3.2991-3.29913-.1822 0-.3542-.08096-.4554-.23276-.5971-.82985-1.5788-1.37633-2.6819-1.37633s-2.0847.54648-2.6818 1.37633c-.1012.14168-.2733.23276-.4554.23276-.0285 0-.0568.00036-.0851.00108-1.7823.04512-3.21405 1.50487-3.21405 3.29805v.01012c0 .62744-.18216 1.24476-.52625 1.771l-.00229.00368c-.34262.52544-.54408 1.14146-.54408 1.81792 0 .5161.12144.9918.32384 1.4269.07084.1417.07084.3138 0 .4554-.2024.4251-.32384.9007-.32384 1.4067 0 1.7811 1.43704 3.2182 3.21817 3.2182h8.5818c1.7811 0 3.2182-1.4371 3.2182-3.2182 0-.506-.1215-.9816-.3239-1.4067-.0708-.1416-.0708-.3137 0-.4554zm-12.2601-2.67236h-.0123l1.1986 2.35556c.1233 2.8025 1.2171 0 3.8885 0s3.8364 3.1193 3.9597.3168l1.1358-3.1971c-.0537-1.24483-.9558-1.3322-1.1358-1.3322h-3.2201c-1.2716 0-2.4714-.62239-3.1892-1.67329-.1231-.17345-.3794-.14285-.4615.05101l-.082.19386c-.2256.56116-.6563.98969-1.1896 1.23456-.0153.0051-.0333.01275-.0512.02041-.018.00765-.0359.0153-.0513.0204-.2359.12244-.7896.48975-.8101 1.43862l.0102.30609z" fill="url(#I)"/><path d="m22.6109 11.9946c.2125-.4351.3239-.9209.3239-1.4269 0-.4673-.0962-.90578-.2686-1.30547h.0053c-.0804-.18099-.1708-.35199-.2812-.513l-.002-.00313c-.3441-.52624-.5263-1.14356-.5263-1.771v-.01012c0-1.82161-1.4775-3.29913-3.2991-3.29913-.1822 0-.3542-.08096-.4554-.23276-.5971-.82985-1.5788-1.37633-2.6819-1.37633s-2.0847.54648-2.6818 1.37633c-.1012.14168-.2733.23276-.4554.23276-.0285 0-.0568.00036-.0851.00108-1.7823.04512-3.21405 1.50487-3.21405 3.29805v.01012c0 .62744-.18216 1.24476-.52625 1.771l-.00229.00368c-.34262.52544-.54408 1.14146-.54408 1.81792 0 .5161.12144.9918.32384 1.4269.07084.1417.07084.3138 0 .4554-.2024.4251-.32384.9007-.32384 1.4067 0 1.7811 1.43704 3.2182 3.21817 3.2182h8.5818c1.7811 0 3.2182-1.4371 3.2182-3.2182 0-.506-.1215-.9816-.3239-1.4067-.0708-.1416-.0708-.3137 0-.4554zm-12.2601-2.67236h-.0123l1.1986 2.35556c.1233 2.8025 1.2171 0 3.8885 0s3.8364 3.1193 3.9597.3168l1.1358-3.1971c-.0537-1.24483-.9558-1.3322-1.1358-1.3322h-3.2201c-1.2716 0-2.4714-.62239-3.1892-1.67329-.1231-.17345-.3794-.14285-.4615.05101l-.082.19386c-.2256.56116-.6563.98969-1.1896 1.23456-.0153.0051-.0333.01275-.0512.02041-.018.00765-.0359.0153-.0513.0204-.2359.12244-.7896.48975-.8101 1.43862l.0102.30609z" fill="url(#J)"/><path d="m22.6109 11.9946c.2125-.4351.3239-.9209.3239-1.4269 0-.4673-.0962-.90578-.2686-1.30547h.0053c-.0804-.18099-.1708-.35199-.2812-.513l-.002-.00313c-.3441-.52624-.5263-1.14356-.5263-1.771v-.01012c0-1.82161-1.4775-3.29913-3.2991-3.29913-.1822 0-.3542-.08096-.4554-.23276-.5971-.82985-1.5788-1.37633-2.6819-1.37633s-2.0847.54648-2.6818 1.37633c-.1012.14168-.2733.23276-.4554.23276-.0285 0-.0568.00036-.0851.00108-1.7823.04512-3.21405 1.50487-3.21405 3.29805v.01012c0 .62744-.18216 1.24476-.52625 1.771l-.00229.00368c-.34262.52544-.54408 1.14146-.54408 1.81792 0 .5161.12144.9918.32384 1.4269.07084.1417.07084.3138 0 .4554-.2024.4251-.32384.9007-.32384 1.4067 0 1.7811 1.43704 3.2182 3.21817 3.2182h8.5818c1.7811 0 3.2182-1.4371 3.2182-3.2182 0-.506-.1215-.9816-.3239-1.4067-.0708-.1416-.0708-.3137 0-.4554zm-12.2601-2.67236h-.0123l1.1986 2.35556c.1233 2.8025 1.2171 0 3.8885 0s3.8364 3.1193 3.9597.3168l1.1358-3.1971c-.0537-1.24483-.9558-1.3322-1.1358-1.3322h-3.2201c-1.2716 0-2.4714-.62239-3.1892-1.67329-.1231-.17345-.3794-.14285-.4615.05101l-.082.19386c-.2256.56116-.6563.98969-1.1896 1.23456-.0153.0051-.0333.01275-.0512.02041-.018.00765-.0359.0153-.0513.0204-.2359.12244-.7896.48975-.8101 1.43862l.0102.30609z" fill="url(#K)"/><path d="m22.6109 11.9946c.2125-.4351.3239-.9209.3239-1.4269 0-.4673-.0962-.90578-.2686-1.30547h.0053c-.0804-.18099-.1708-.35199-.2812-.513l-.002-.00313c-.3441-.52624-.5263-1.14356-.5263-1.771v-.01012c0-1.82161-1.4775-3.29913-3.2991-3.29913-.1822 0-.3542-.08096-.4554-.23276-.5971-.82985-1.5788-1.37633-2.6819-1.37633s-2.0847.54648-2.6818 1.37633c-.1012.14168-.2733.23276-.4554.23276-.0285 0-.0568.00036-.0851.00108-1.7823.04512-3.21405 1.50487-3.21405 3.29805v.01012c0 .62744-.18216 1.24476-.52625 1.771l-.00229.00368c-.34262.52544-.54408 1.14146-.54408 1.81792 0 .5161.12144.9918.32384 1.4269.07084.1417.07084.3138 0 .4554-.2024.4251-.32384.9007-.32384 1.4067 0 1.7811 1.43704 3.2182 3.21817 3.2182h8.5818c1.7811 0 3.2182-1.4371 3.2182-3.2182 0-.506-.1215-.9816-.3239-1.4067-.0708-.1416-.0708-.3137 0-.4554zm-12.2601-2.67236h-.0123l1.1986 2.35556c.1233 2.8025 1.2171 0 3.8885 0s3.8364 3.1193 3.9597.3168l1.1358-3.1971c-.0537-1.24483-.9558-1.3322-1.1358-1.3322h-3.2201c-1.2716 0-2.4714-.62239-3.1892-1.67329-.1231-.17345-.3794-.14285-.4615.05101l-.082.19386c-.2256.56116-.6563.98969-1.1896 1.23456-.0153.0051-.0333.01275-.0512.02041-.018.00765-.0359.0153-.0513.0204-.2359.12244-.7896.48975-.8101 1.43862l.0102.30609z" fill="url(#L)"/><path d="m22.6109 11.9946c.2125-.4351.3239-.9209.3239-1.4269 0-.4673-.0962-.90578-.2686-1.30547h.0053c-.0804-.18099-.1708-.35199-.2812-.513l-.002-.00313c-.3441-.52624-.5263-1.14356-.5263-1.771v-.01012c0-1.82161-1.4775-3.29913-3.2991-3.29913-.1822 0-.3542-.08096-.4554-.23276-.5971-.82985-1.5788-1.37633-2.6819-1.37633s-2.0847.54648-2.6818 1.37633c-.1012.14168-.2733.23276-.4554.23276-.0285 0-.0568.00036-.0851.00108-1.7823.04512-3.21405 1.50487-3.21405 3.29805v.01012c0 .62744-.18216 1.24476-.52625 1.771l-.00229.00368c-.34262.52544-.54408 1.14146-.54408 1.81792 0 .5161.12144.9918.32384 1.4269.07084.1417.07084.3138 0 .4554-.2024.4251-.32384.9007-.32384 1.4067 0 1.7811 1.43704 3.2182 3.21817 3.2182h8.5818c1.7811 0 3.2182-1.4371 3.2182-3.2182 0-.506-.1215-.9816-.3239-1.4067-.0708-.1416-.0708-.3137 0-.4554zm-12.2601-2.67236h-.0123l1.1986 2.35556c.1233 2.8025 1.2171 0 3.8885 0s3.8364 3.1193 3.9597.3168l1.1358-3.1971c-.0537-1.24483-.9558-1.3322-1.1358-1.3322h-3.2201c-1.2716 0-2.4714-.62239-3.1892-1.67329-.1231-.17345-.3794-.14285-.4615.05101l-.082.19386c-.2256.56116-.6563.98969-1.1896 1.23456-.0153.0051-.0333.01275-.0512.02041-.018.00765-.0359.0153-.0513.0204-.2359.12244-.7896.48975-.8101 1.43862l.0102.30609z" fill="url(#M)"/><path d="m22.6109 11.9946c.2125-.4351.3239-.9209.3239-1.4269 0-.4673-.0962-.90578-.2686-1.30547h.0053c-.0804-.18099-.1708-.35199-.2812-.513l-.002-.00313c-.3441-.52624-.5263-1.14356-.5263-1.771v-.01012c0-1.82161-1.4775-3.29913-3.2991-3.29913-.1822 0-.3542-.08096-.4554-.23276-.5971-.82985-1.5788-1.37633-2.6819-1.37633s-2.0847.54648-2.6818 1.37633c-.1012.14168-.2733.23276-.4554.23276-.0285 0-.0568.00036-.0851.00108-1.7823.04512-3.21405 1.50487-3.21405 3.29805v.01012c0 .62744-.18216 1.24476-.52625 1.771l-.00229.00368c-.34262.52544-.54408 1.14146-.54408 1.81792 0 .5161.12144.9918.32384 1.4269.07084.1417.07084.3138 0 .4554-.2024.4251-.32384.9007-.32384 1.4067 0 1.7811 1.43704 3.2182 3.21817 3.2182h8.5818c1.7811 0 3.2182-1.4371 3.2182-3.2182 0-.506-.1215-.9816-.3239-1.4067-.0708-.1416-.0708-.3137 0-.4554zm-12.2601-2.67236h-.0123l1.1986 2.35556c.1233 2.8025 1.2171 0 3.8885 0s3.8364 3.1193 3.9597.3168l1.1358-3.1971c-.0537-1.24483-.9558-1.3322-1.1358-1.3322h-3.2201c-1.2716 0-2.4714-.62239-3.1892-1.67329-.1231-.17345-.3794-.14285-.4615.05101l-.082.19386c-.2256.56116-.6563.98969-1.1896 1.23456-.0153.0051-.0333.01275-.0512.02041-.018.00765-.0359.0153-.0513.0204-.2359.12244-.7896.48975-.8101 1.43862l.0102.30609z" fill="url(#N)"/></g><path d="m15.7957 15.2533c.25.01.51.03.77.05-.25-.02-.51-.04-.77-.05z" fill="url(#P)"/><path d="m15.4657 15.2533c-.01 0-.02 0-.04 0 .1 0 .19 0 .3.01-.09-.01-.18-.01-.26-.01z" fill="url(#Q)"/><path d="m15.4656 15.3033c-2.75 0-5.32 1.06-7.23 2.85v.0141l-.00995-.0141c-1.28998 1.21-2.29999 2.76-2.85999 4.53l-.03.08c-.52002 1.66-.79001 3.38-.79001 5.11v2.07h21.79005l.0099-2.03c.0101-1.76-.25-3.51-.7699-5.18-.5701-1.81-1.59-3.38-2.9101-4.61-1.92-1.77-4.47-2.82-7.2-2.82z" fill="url(#R)"/><path d="m15.4656 15.3033c-2.75 0-5.32 1.06-7.23 2.85v.0141l-.00995-.0141c-1.28998 1.21-2.29999 2.76-2.85999 4.53l-.03.08c-.52002 1.66-.79001 3.38-.79001 5.11v2.07h21.79005l.0099-2.03c.0101-1.76-.25-3.51-.7699-5.18-.5701-1.81-1.59-3.38-2.9101-4.61-1.92-1.77-4.47-2.82-7.2-2.82z" fill="url(#S)"/><path d="m11.1139 16.236c-1.0608.4774-2.034 1.126-2.8783 1.9173v.0141l-.00995-.0141c-1.28998 1.21-2.29999 2.76-2.85999 4.53l-.03.08c-.52002 1.66-.79001 3.38-.79001 5.11v2.07h10.45315v-6.5191z" fill="url(#T)"/><path d="m11.1139 16.236c-1.0608.4774-2.034 1.126-2.8783 1.9173v.0141l-.00995-.0141c-1.28998 1.21-2.29999 2.76-2.85999 4.53l-.03.08c-.52002 1.66-.79001 3.38-.79001 5.11v2.07h10.45315v-6.5191z" fill="url(#V)"/><path d="m11.1139 16.236c-1.0608.4774-2.034 1.126-2.8783 1.9173v.0141l-.00995-.0141c-1.28998 1.21-2.29999 2.76-2.85999 4.53l-.03.08c-.52002 1.66-.79001 3.38-.79001 5.11v2.07h10.45315v-6.5191z" fill="url(#W)"/><path d="m11.1139 16.236c-1.0608.4774-2.034 1.126-2.8783 1.9173v.0141l-.00995-.0141c-1.28998 1.21-2.29999 2.76-2.85999 4.53l-.03.08c-.52002 1.66-.79001 3.38-.79001 5.11v2.07h10.45315v-6.5191z" fill="url(#X)"/><path d="m19.8649 16.236c1.0607.4774 2.034 1.126 2.8783 1.9173v.0141l.0099-.0141c1.29 1.21 2.3 2.76 2.86 4.53l.03.08c.52 1.66.79 3.38.79 5.11v2.07h-10.4531v-6.5191z" fill="url(#Y)"/><path d="m19.8649 16.236c1.0607.4774 2.034 1.126 2.8783 1.9173v.0141l.0099-.0141c1.29 1.21 2.3 2.76 2.86 4.53l.03.08c.52 1.66.79 3.38.79 5.11v2.07h-10.4531v-6.5191z" fill="url(#Z)"/><path d="m19.8649 16.236c1.0607.4774 2.034 1.126 2.8783 1.9173v.0141l.0099-.0141c1.29 1.21 2.3 2.76 2.86 4.53l.03.08c.52 1.66.79 3.38.79 5.11v2.07h-10.4531v-6.5191z" fill="url(#aa)"/><path d="m19.8649 16.236c1.0607.4774 2.034 1.126 2.8783 1.9173v.0141l.0099-.0141c1.29 1.21 2.3 2.76 2.86 4.53l.03.08c.52 1.66.79 3.38.79 5.11v2.07h-10.4531v-6.5191z" fill="url(#ab)"/><g filter="url(#b)"><path d="m9.25496 17.7639-.1308 1.7331c-.0232.3074.19028.5823.49382.636l.47932.0848c.1162.0205.1643.1609.0851.2484l-.62593.6911c-.1779.1964-.17164.4975.01427.6864l4.73256 4.8077c.1255.1275.3425.0386.3425-.1403v-3.3802c0-.2824-.0598-.5616-.1755-.8192l-2.6056-5.8035c-.9289.2986-1.8068.7227-2.60974 1.2557z" fill="url(#ac)"/></g><g filter="url(#c)"><path d="m9.60799 17.0674-.1308 1.7331c-.0232.3073.19028.5823.49382.636l.47929.0847c.1162.0206.1643.161.0851.2484l-.6259.6911c-.1779.1965-.17164.4976.01427.6864l4.73253 4.8078c.1255.1275.3425.0386.3425-.1403v-3.3802c0-.2824-.0598-.5616-.1754-.8192l-2.6057-5.8036c-.9289.2987-1.8068.7228-2.60971 1.2558z" fill="url(#ad)"/></g><g filter="url(#d)"><path d="m21.2024 18.2066.1158 1.5336c.0205.272-.1684.5153-.437.5628l-.4242.075c-.1028.0182-.1453.1424-.0752.2198l.5538.6116c.1574.1738.1519.4403-.0126.6074l-4.1879 4.2544c-.1111.1129-.3031.0342-.3031-.1241v-2.9912c0-.2499.0529-.497.1553-.7249l2.3058-5.1357c.8219.2643 1.5988.6396 2.3093 1.1113z" fill="url(#ae)"/></g><path d="m21.3708 17.0674.1308 1.7331c.0232.3073-.1903.5823-.4938.636l-.4793.0847c-.1162.0206-.1643.161-.0851.2484l.6259.6911c.1779.1965.1716.4976-.0143.6864l-4.7325 4.8078c-.1255.1275-.3425.0386-.3425-.1403v-3.3802c0-.2824.0598-.5616.1754-.8192l2.6057-5.8036c.9289.2987 1.8068.7228 2.6097 1.2558z" fill="url(#af)"/><path d="m21.3708 17.0674.1308 1.7331c.0232.3073-.1903.5823-.4938.636l-.4793.0847c-.1162.0206-.1643.161-.0851.2484l.6259.6911c.1779.1965.1716.4976-.0143.6864l-4.7325 4.8078c-.1255.1275-.3425.0386-.3425-.1403v-3.3802c0-.2824.0598-.5616.1754-.8192l2.6057-5.8036c.9289.2987 1.8068.7228 2.6097 1.2558z" fill="url(#ag)"/><path d="m21.3708 17.0674.1308 1.7331c.0232.3073-.1903.5823-.4938.636l-.4793.0847c-.1162.0206-.1643.161-.0851.2484l.6259.6911c.1779.1965.1716.4976-.0143.6864l-4.7325 4.8078c-.1255.1275-.3425.0386-.3425-.1403v-3.3802c0-.2824.0598-.5616.1754-.8192l2.6057-5.8036c.9289.2987 1.8068.7228 2.6097 1.2558z" fill="url(#ah)"/><path d="m21.3708 17.0674.1308 1.7331c.0232.3073-.1903.5823-.4938.636l-.4793.0847c-.1162.0206-.1643.161-.0851.2484l.6259.6911c.1779.1965.1716.4976-.0143.6864l-4.7325 4.8078c-.1255.1275-.3425.0386-.3425-.1403v-3.3802c0-.2824.0598-.5616.1754-.8192l2.6057-5.8036c.9289.2987 1.8068.7228 2.6097 1.2558z" fill="url(#ai)"/><path d="m21.3708 17.0674.1308 1.7331c.0232.3073-.1903.5823-.4938.636l-.4793.0847c-.1162.0206-.1643.161-.0851.2484l.6259.6911c.1779.1965.1716.4976-.0143.6864l-4.7325 4.8078c-.1255.1275-.3425.0386-.3425-.1403v-3.3802c0-.2824.0598-.5616.1754-.8192l2.6057-5.8036c.9289.2987 1.8068.7228 2.6097 1.2558z" fill="url(#aj)"/><path d="m8.22565 29.9432v-11.79c-1.28998 1.21-2.29999 2.76-2.85999 4.53l-.03.08c-.52002 1.66-.79001 3.38-.79001 5.11v2.07z" fill="url(#ak)"/><path d="m8.22565 29.9432v-11.79c-1.28998 1.21-2.29999 2.76-2.85999 4.53l-.03.08c-.52002 1.66-.79001 3.38-.79001 5.11v2.07z" fill="url(#al)"/><path d="m8.22565 29.9432v-11.79c-1.28998 1.21-2.29999 2.76-2.85999 4.53l-.03.08c-.52002 1.66-.79001 3.38-.79001 5.11v2.07z" fill="url(#am)"/><path d="m8.22565 29.9432v-11.79c-1.28998 1.21-2.29999 2.76-2.85999 4.53l-.03.08c-.52002 1.66-.79001 3.38-.79001 5.11v2.07z" fill="url(#an)"/><path d="m9.60799 17.0674-.1308 1.7331c-.0232.3073.19028.5823.49382.636l.47929.0847c.1162.0206.1643.161.0851.2484l-.6259.6911c-.1779.1965-.17164.4976.01427.6864l4.73253 4.8078c.1255.1275.3425.0386.3425-.1403v-3.3802c0-.2824-.0598-.5616-.1754-.8192l-2.6057-5.8036c-.9289.2987-1.8068.7228-2.60971 1.2558z" fill="url(#ao)"/><path d="m22.7528 29.9433v-11.7896c1.29 1.21 2.3003 2.7596 2.8603 4.5296l.03.08c.52 1.66.79 3.38.79 5.11v2.07z" fill="url(#ap)"/><path d="m22.7528 29.9433v-11.7896c1.29 1.21 2.3003 2.7596 2.8603 4.5296l.03.08c.52 1.66.79 3.38.79 5.11v2.07z" fill="url(#aq)"/><path d="m15.7957 15.2533c.25.01.51.03.77.05-.25-.02-.51-.04-.77-.05z" fill="url(#P)"/><path d="m15.4657 15.2533c-.01 0-.02 0-.04 0 .1 0 .19 0 .3.01-.09-.01-.18-.01-.26-.01z" fill="url(#Q)"/><path d="m15.4257 18.5731c-1.16 0-2.11-.94-2.11-2.11v-1.39h4.22v1.39c0 1.17-.95 2.11-2.11 2.11z" fill="url(#ar)"/><path d="m15.4257 18.5731c-1.16 0-2.11-.94-2.11-2.11v-1.39h4.22v1.39c0 1.17-.95 2.11-2.11 2.11z" fill="url(#as)"/><path d="m26.4343 22.9132c.56 0 1.02.46 1.02 1.02v2.34h-2.04v-2.34c.01-.56.46-1.02 1.02-1.02z" fill="url(#at)"/><path d="m26.4343 22.9132c.56 0 1.02.46 1.02 1.02v2.34h-2.04v-2.34c.01-.56.46-1.02 1.02-1.02z" fill="url(#au)"/><path d="m23.8254 19.4122h2.70312v5.9375h-2.70312z" fill="url(#av)"/><path d="m23.8254 19.4122h2.70312v5.9375h-2.70312z" fill="url(#aw)"/><path d="m23.8254 19.4122h2.70312v5.9375h-2.70312z" fill="url(#ax)"/><g filter="url(#e)"><rect fill="#addaff" height=".78125" rx=".390625" width="4.00781" x="23.1731" y="18.631"/><rect fill="url(#ay)" height=".78125" rx=".390625" width="4.00781" x="23.1731" y="18.631"/><rect fill="url(#az)" height=".78125" rx=".390625" width="4.00781" x="23.1731" y="18.631"/><rect fill="url(#aA)" height=".78125" rx=".390625" width="4.00781" x="23.1731" y="18.631"/></g><path d="m26.5286 21.1779v4.1718h-2.7032v-4.1718z" fill="url(#aB)"/><path d="m26.5286 21.1779v4.1718h-2.7032v-4.1718z" fill="url(#aC)"/><path d="m26.5286 21.1779v4.1718h-2.7032v-4.1718z" fill="url(#aD)"/><path d="m26.5286 21.1779v4.1718h-2.7032v-4.1718z" fill="url(#aE)"/><path d="m23.8254 21.9904v-.4688h.8047c.1295 0 .2344.1049.2344.2344 0 .1294-.1049.2344-.2344.2344z" fill="url(#aG)"/><path d="m23.8254 23.7716v-.4687h.8047c.1295 0 .2344.1049.2344.2343 0 .1295-.1049.2344-.2344.2344z" fill="url(#aH)"/><g filter="url(#f)"><path d="m23.1365 25.2688c0-.4012.3253-.7318.7265-.7318h2.3913c.6628 0 1.2.5372 1.2 1.2v3.2062c0 .5523-.4477 1-1 1h-2.5913c-.4012 0-.7265-.3305-.7265-.7318 0-.2867.1661-.5374.4073-.6571-.2412-.1197-.4073-.3704-.4073-.6571s.1661-.5374.4073-.6571c-.2412-.1197-.4073-.3703-.4073-.6571 0-.2867.1661-.5373.4073-.6571-.2412-.1197-.4073-.3703-.4073-.6571z" fill="url(#aI)"/><path d="m23.1365 25.2688c0-.4012.3253-.7318.7265-.7318h2.3913c.6628 0 1.2.5372 1.2 1.2v3.2062c0 .5523-.4477 1-1 1h-2.5913c-.4012 0-.7265-.3305-.7265-.7318 0-.2867.1661-.5374.4073-.6571-.2412-.1197-.4073-.3704-.4073-.6571s.1661-.5374.4073-.6571c-.2412-.1197-.4073-.3703-.4073-.6571 0-.2867.1661-.5373.4073-.6571-.2412-.1197-.4073-.3703-.4073-.6571z" fill="url(#aJ)"/><path d="m23.1365 25.2688c0-.4012.3253-.7318.7265-.7318h2.3913c.6628 0 1.2.5372 1.2 1.2v3.2062c0 .5523-.4477 1-1 1h-2.5913c-.4012 0-.7265-.3305-.7265-.7318 0-.2867.1661-.5374.4073-.6571-.2412-.1197-.4073-.3704-.4073-.6571s.1661-.5374.4073-.6571c-.2412-.1197-.4073-.3703-.4073-.6571 0-.2867.1661-.5373.4073-.6571-.2412-.1197-.4073-.3703-.4073-.6571z" fill="url(#aL)"/><path d="m23.1365 25.2688c0-.4012.3253-.7318.7265-.7318h2.3913c.6628 0 1.2.5372 1.2 1.2v3.2062c0 .5523-.4477 1-1 1h-2.5913c-.4012 0-.7265-.3305-.7265-.7318 0-.2867.1661-.5374.4073-.6571-.2412-.1197-.4073-.3704-.4073-.6571s.1661-.5374.4073-.6571c-.2412-.1197-.4073-.3703-.4073-.6571 0-.2867.1661-.5373.4073-.6571-.2412-.1197-.4073-.3703-.4073-.6571z" fill="url(#aM)"/><path d="m23.1365 25.2688c0-.4012.3253-.7318.7265-.7318h2.3913c.6628 0 1.2.5372 1.2 1.2v3.2062c0 .5523-.4477 1-1 1h-2.5913c-.4012 0-.7265-.3305-.7265-.7318 0-.2867.1661-.5374.4073-.6571-.2412-.1197-.4073-.3704-.4073-.6571s.1661-.5374.4073-.6571c-.2412-.1197-.4073-.3703-.4073-.6571 0-.2867.1661-.5373.4073-.6571-.2412-.1197-.4073-.3703-.4073-.6571z" fill="url(#aN)"/></g><path d="m23.1365 25.2688c0-.4012.3253-.7318.7265-.7318h2.3913c.6628 0 1.2.5372 1.2 1.2v3.2062c0 .5523-.4477 1-1 1h-2.5913c-.4012 0-.7265-.3305-.7265-.7318 0-.2867.1661-.5374.4073-.6571-.2412-.1197-.4073-.3704-.4073-.6571s.1661-.5374.4073-.6571c-.2412-.1197-.4073-.3703-.4073-.6571 0-.2867.1661-.5373.4073-.6571-.2412-.1197-.4073-.3703-.4073-.6571z" fill="url(#aO)"/><g filter="url(#g)"><path d="m23.754 25.9454h1.7969" stroke="url(#aQ)" stroke-linecap="round" stroke-width=".1"/></g><g filter="url(#h)"><path d="m23.6759 27.2501h1.7969" stroke="url(#aR)" stroke-linecap="round" stroke-width=".1"/></g><g filter="url(#i)"><path d="m23.754 28.5548h1.7969" stroke="url(#aS)" stroke-linecap="round" stroke-width=".1"/></g><path d="m15.8008 15.2025c.25.01.51.03.77.05-.26-.02-.51-.04-.77-.05z" fill="url(#aT)"/><path d="m15.4708 15.2025c-.01 0-.02 0-.04 0 .1 0 .19 0 .29.01-.08-.01-.17-.01-.25-.01z" fill="url(#aU)"/><g filter="url(#j)"><path d="m10.7401 12.1941c.8886 0 1.6091-.7204 1.6091-1.6091 0-.88864-.7205-1.60905-1.6091-1.60905-.88871 0-1.60912.72041-1.60912 1.60905 0 .8887.72041 1.6091 1.60912 1.6091z" fill="url(#aV)"/></g><g filter="url(#k)"><path d="m20.253 12.1941c.8887 0 1.6091-.7204 1.6091-1.6091 0-.88864-.7204-1.60905-1.6091-1.60905s-1.6091.72041-1.6091 1.60905c0 .8887.7204 1.6091 1.6091 1.6091z" fill="url(#aW)"/><path d="m20.253 12.1941c.8887 0 1.6091-.7204 1.6091-1.6091 0-.88864-.7204-1.60905-1.6091-1.60905s-1.6091.72041-1.6091 1.60905c0 .8887.7204 1.6091 1.6091 1.6091z" fill="url(#aX)"/></g><g filter="url(#l)"><path d="m20.2531 11.6591c.5932 0 1.0741-.4809 1.0741-1.0741 0-.59324-.4809-1.07414-1.0741-1.07414s-1.0741.4809-1.0741 1.07414c0 .5932.4809 1.0741 1.0741 1.0741z" fill="#e5aa8b"/><path d="m20.2531 11.6591c.5932 0 1.0741-.4809 1.0741-1.0741 0-.59324-.4809-1.07414-1.0741-1.07414s-1.0741.4809-1.0741 1.07414c0 .5932.4809 1.0741 1.0741 1.0741z" fill="url(#aY)"/></g><g filter="url(#m)"><path d="m10.7594 11.6591c.5932 0 1.0741-.4809 1.0741-1.0741 0-.59324-.4809-1.07414-1.0741-1.07414s-1.0741.4809-1.0741 1.07414c0 .5932.4809 1.0741 1.0741 1.0741z" fill="#b47a6c"/><path d="m10.7594 11.6591c.5932 0 1.0741-.4809 1.0741-1.0741 0-.59324-.4809-1.07414-1.0741-1.07414s-1.0741.4809-1.0741 1.07414c0 .5932.4809 1.0741 1.0741 1.0741z" fill="url(#aZ)"/></g><g filter="url(#n)"><path d="m10.3406 9.05698-.0103-.30609c.0205-.94887.5743-1.31618.8102-1.43862.0153-.0051.0333-.01275.0512-.0204.018-.00766.0359-.01531.0513-.02041.5333-.24487.964-.6734 1.1896-1.23456l.082-.19386c.082-.19385.3384-.22446.4615-.05101.7178 1.0509 1.9176 1.67329 3.1892 1.67329h3.22c.1801 0 1.0822.08737 1.1359 1.3322l-.1188 3.07308c-.1233 2.8025-2.3118 4.6843-4.9832 4.6843s-4.8599-1.8818-4.9832-4.6843z" fill="url(#a0)"/><path d="m10.3406 9.05698-.0103-.30609c.0205-.94887.5743-1.31618.8102-1.43862.0153-.0051.0333-.01275.0512-.0204.018-.00766.0359-.01531.0513-.02041.5333-.24487.964-.6734 1.1896-1.23456l.082-.19386c.082-.19385.3384-.22446.4615-.05101.7178 1.0509 1.9176 1.67329 3.1892 1.67329h3.22c.1801 0 1.0822.08737 1.1359 1.3322l-.1188 3.07308c-.1233 2.8025-2.3118 4.6843-4.9832 4.6843s-4.8599-1.8818-4.9832-4.6843z" fill="url(#a1)"/><path d="m10.3406 9.05698-.0103-.30609c.0205-.94887.5743-1.31618.8102-1.43862.0153-.0051.0333-.01275.0512-.0204.018-.00766.0359-.01531.0513-.02041.5333-.24487.964-.6734 1.1896-1.23456l.082-.19386c.082-.19385.3384-.22446.4615-.05101.7178 1.0509 1.9176 1.67329 3.1892 1.67329h3.22c.1801 0 1.0822.08737 1.1359 1.3322l-.1188 3.07308c-.1233 2.8025-2.3118 4.6843-4.9832 4.6843s-4.8599-1.8818-4.9832-4.6843z" fill="url(#a2)"/><path d="m10.3406 9.05698-.0103-.30609c.0205-.94887.5743-1.31618.8102-1.43862.0153-.0051.0333-.01275.0512-.0204.018-.00766.0359-.01531.0513-.02041.5333-.24487.964-.6734 1.1896-1.23456l.082-.19386c.082-.19385.3384-.22446.4615-.05101.7178 1.0509 1.9176 1.67329 3.1892 1.67329h3.22c.1801 0 1.0822.08737 1.1359 1.3322l-.1188 3.07308c-.1233 2.8025-2.3118 4.6843-4.9832 4.6843s-4.8599-1.8818-4.9832-4.6843z" fill="url(#a3)"/><path d="m10.3406 9.05698-.0103-.30609c.0205-.94887.5743-1.31618.8102-1.43862.0153-.0051.0333-.01275.0512-.0204.018-.00766.0359-.01531.0513-.02041.5333-.24487.964-.6734 1.1896-1.23456l.082-.19386c.082-.19385.3384-.22446.4615-.05101.7178 1.0509 1.9176 1.67329 3.1892 1.67329h3.22c.1801 0 1.0822.08737 1.1359 1.3322l-.1188 3.07308c-.1233 2.8025-2.3118 4.6843-4.9832 4.6843s-4.8599-1.8818-4.9832-4.6843z" fill="url(#a4)"/><path d="m10.3406 9.05698-.0103-.30609c.0205-.94887.5743-1.31618.8102-1.43862.0153-.0051.0333-.01275.0512-.0204.018-.00766.0359-.01531.0513-.02041.5333-.24487.964-.6734 1.1896-1.23456l.082-.19386c.082-.19385.3384-.22446.4615-.05101.7178 1.0509 1.9176 1.67329 3.1892 1.67329h3.22c.1801 0 1.0822.08737 1.1359 1.3322l-.1188 3.07308c-.1233 2.8025-2.3118 4.6843-4.9832 4.6843s-4.8599-1.8818-4.9832-4.6843z" fill="url(#a5)"/><path d="m10.3406 9.05698-.0103-.30609c.0205-.94887.5743-1.31618.8102-1.43862.0153-.0051.0333-.01275.0512-.0204.018-.00766.0359-.01531.0513-.02041.5333-.24487.964-.6734 1.1896-1.23456l.082-.19386c.082-.19385.3384-.22446.4615-.05101.7178 1.0509 1.9176 1.67329 3.1892 1.67329h3.22c.1801 0 1.0822.08737 1.1359 1.3322l-.1188 3.07308c-.1233 2.8025-2.3118 4.6843-4.9832 4.6843s-4.8599-1.8818-4.9832-4.6843z" fill="url(#a6)"/></g><path d="m10.3385 9.32226h.0123l-.0102-.26528-.0103-.30609c.0205-.94887.5743-1.31618.8102-1.43862.0153-.0051.0333-.01275.0512-.0204.018-.00766.0359-.01531.0513-.02041.5333-.24487.964-.6734 1.1896-1.23456l.082-.19386c.082-.19385.3384-.22446.4615-.05101.7178 1.0509 1.9176 1.67329 3.1892 1.67329h3.22c.1801 0 1.0822.08737 1.1359 1.3322l-.1188 3.07308c-.1233 2.8025-2.3118 4.6843-4.9832 4.6843s-4.8599-1.8818-4.9832-4.6843z" fill="url(#a7)"/><path d="m10.3385 9.32226h.0123l-.0102-.26528-.0103-.30609c.0205-.94887.5743-1.31618.8102-1.43862.0153-.0051.0333-.01275.0512-.0204.018-.00766.0359-.01531.0513-.02041.5333-.24487.964-.6734 1.1896-1.23456l.082-.19386c.082-.19385.3384-.22446.4615-.05101.7178 1.0509 1.9176 1.67329 3.1892 1.67329h3.22c.1801 0 1.0822.08737 1.1359 1.3322l-.1188 3.07308c-.1233 2.8025-2.3118 4.6843-4.9832 4.6843s-4.8599-1.8818-4.9832-4.6843z" fill="url(#a8)"/><g filter="url(#o)"><path d="m15.0332 10.6175-.6835 1.7c-.1085.3497.1518.6994.5206.6994h.7863c.3688 0 .6291-.3551.5207-.6994l-.5315-1.7c-.1139-.3766-.4933-.3766-.6126 0z" fill="#c28178"/></g><g filter="url(#p)"><path d="m15.0435 10.4788-.5315 1.7001c-.1085.3496.1519.6993.5206.6993h.7864c.3688 0 .6291-.355.5206-.6993l-.5314-1.7001c-.1139-.3765-.6454-.3765-.7647 0z" fill="#efb696"/><path d="m15.0435 10.4788-.5315 1.7001c-.1085.3496.1519.6993.5206.6993h.7864c.3688 0 .6291-.355.5206-.6993l-.5314-1.7001c-.1139-.3765-.6454-.3765-.7647 0z" fill="url(#a9)"/><path d="m15.0435 10.4788-.5315 1.7001c-.1085.3496.1519.6993.5206.6993h.7864c.3688 0 .6291-.355.5206-.6993l-.5314-1.7001c-.1139-.3765-.6454-.3765-.7647 0z" fill="url(#ba)"/><path d="m15.0435 10.4788-.5315 1.7001c-.1085.3496.1519.6993.5206.6993h.7864c.3688 0 .6291-.355.5206-.6993l-.5314-1.7001c-.1139-.3765-.6454-.3765-.7647 0z" fill="url(#bb)"/></g><path d="m15.0435 10.4788-.5315 1.7001c-.1085.3496.1519.6993.5206.6993h.7864c.3688 0 .6291-.355.5206-.6993l-.5314-1.7001c-.1139-.3765-.6454-.3765-.7647 0z" fill="url(#bc)"/><path d="m15.0435 10.4788-.5315 1.7001c-.1085.3496.1519.6993.5206.6993h.7864c.3688 0 .6291-.355.5206-.6993l-.5314-1.7001c-.1139-.3765-.6454-.3765-.7647 0z" fill="url(#bd)"/><path d="m14.0277 13.1077c.4039.2154.8853.3388 1.398.3388.518 0 .9942-.1234 1.3981-.3388l.0005-.0003c.0923-.048.1891-.02.2469.0415.0583.0618.0793.1601.0212.2494m-3.0647-.2906 3.0227.2635m-3.0227-.2635-.0005-.0003c-.093-.0484-.1898-.018-.2472.0437-.0574.0618-.0796.1602-.0207.2476m.2684-.291-.2266.2635m3.2913.0271c0 .0001-.0001.0001-.0001.0002l-.0419-.0273m.042.0271-.042-.0271m.042.0271c-.3525.5463-.9667.9107-1.6667.9107-.6997 0-1.3139-.3642-1.6664-.9103m3.2911-.0275c-.3437.5327-.9425.8878-1.6247.8878-.6821 0-1.281-.3551-1.6246-.8878m-.0418.0275c.0001.0002.0003.0003.0004.0005l.0414-.028m-.0418.0275c-.0001-.0001-.0002-.0003-.0003-.0004l.0421-.0271" fill="#88014e" stroke="url(#be)" stroke-width=".1"/><g filter="url(#q)"><path d="m16.5679 10.016c.2654-.46674.6689-.83546 1.5373-.83546.3803 0 .7469.10535 1.0728.36872.2689.21724.2329.49514.0247.59924l-.5561.3175c-.6518-.2107-1.3726-.2393-2.0787-.45z" fill="#635d5f"/></g><g filter="url(#r)"><path d="m14.2838 10.016c-.2654-.46674-.6689-.83546-1.5373-.83546-.3803 0-.7469.10535-1.0729.36872-.2688.21724-.2328.49514-.0246.59924l.556.3175c.6519-.2107 1.3727-.2393 2.0788-.45z" fill="#635d5f"/></g><g filter="url(#s)"><path d="m12.0281 8.80719-.0044.00253c-.0001.00007-.0002.00015-.0004.00023-.1269.07577-.2914.03461-.3675-.09222-.0762-.12701-.0349-.29183.0921-.36803l.0006-.00035.001-.00061.003-.00174.0094-.00545c.0078-.00446.0187-.01056.0324-.01802.0275-.0149.0666-.03525.116-.05878.0985-.04696.239-.10711.4101-.16173.3399-.10848.8152-.19973 1.3283-.10919.1459.02574.2432.16485.2175.31071s-.1649.24323-.3107.21749c-.3988-.07036-.7816-.0007-1.072.09196-.1439.04594-.2616.09642-.3424.13494-.0403.01921-.0712.03531-.0913.04619-.01.00543-.0173.00954-.0217.01207z" fill="#9f6836"/></g><g filter="url(#t)"><path clip-rule="evenodd" d="m19.1573 8.3497c.0001.00004.0002.00009-.1378.23005l.1378-.23005c.127.0762.1684.24102.0922.36803-.0761.12683-.2405.16808-.3675.0923 0-.00005-.0002-.00015-.0004-.00028l-.0045-.00256c-.0044-.00253-.0117-.00664-.0217-.01207-.0201-.01088-.0509-.02698-.0912-.04619-.0809-.03852-.1985-.089-.3425-.13494-.2903-.09266-.6732-.16232-1.072-.09196-.1458.02574-.2849-.07163-.3107-.21749-.0257-.14586.0717-.28497.2175-.31071.5131-.09054.9884.00071 1.3283.10919.1711.05462.3116.11477.4101.16173.0494.02353.0885.04388.116.05878.0138.00746.0246.01356.0324.01802l.0095.00545.0029.00174.001.00061z" fill="#9f6836" fill-rule="evenodd"/></g><path d="m17.8167 9.23914c.6531 0 1.2048.45028 1.3549 1.05876.0446.1744-.0893.3408-.2678.3408h-2.2311c-.142 0-.2556-.1299-.2272-.2718.1258-.64097.6897-1.12776 1.3712-1.12776z" fill="#fff"/><path d="m17.6099 9.51086c.4949 0 .8924.40161.8924.89244 0 .0811-.0121.1623-.0324.2353h-1.7241c-.0203-.0771-.0324-.1542-.0324-.2353 0-.49083.4016-.89244.8965-.89244z" fill="url(#bg)"/><path d="m17.0986 10.4033c0-.2839.2272-.51109.5112-.51109.2839 0 .5111.22719.5111.51109 0 .0852-.0203.1664-.0568.2353h-.9046c-.0406-.0689-.0609-.1501-.0609-.2353z" fill="#000"/><g filter="url(#u)"><path d="m17.5442 9.69954c.0636.08504-.0693.18872-.2204.30166-.1511.113-.2633.1925-.3268.1075-.0636-.085.0073-.24558.1585-.35856.1511-.11299.3251-.13564.3887-.0506z" fill="#c7a7a3"/><path d="m17.5442 9.69954c.0636.08504-.0693.18872-.2204.30166-.1511.113-.2633.1925-.3268.1075-.0636-.085.0073-.24558.1585-.35856.1511-.11299.3251-.13564.3887-.0506z" fill="url(#bi)"/></g><g filter="url(#v)"><path d="m18.4048 10.2858c-.033-.2307-.168-.40458-.2314-.46268l-.2598.28518.1172.2282z" fill="url(#bk)"/></g><path d="m13.0348 9.23914c-.6531 0-1.2048.45028-1.3549 1.05876-.0446.1744.0893.3408.2677.3408h2.2312c.142 0 .2555-.1298.2272-.2718-.1258-.64097-.6937-1.12776-1.3712-1.12776z" fill="#fff"/><path d="m13.2417 9.51086c-.4949 0-.8925.40161-.8925.89244 0 .0811.0122.1623.0325.2353h1.7241c.0202-.0771.0324-.1542.0324-.2353-.0041-.49083-.4016-.89244-.8965-.89244z" fill="url(#bl)"/><path d="m13.7529 10.4033c0-.2839-.2272-.51109-.5112-.51109-.2839 0-.5111.22719-.5111.51109 0 .0852.0203.1664.0568.2353h.9046c.0365-.0689.0609-.1501.0609-.2353z" fill="#000"/><g filter="url(#w)"><path d="m14.057 10.2984c0-.2884-.2345-.48065-.2979-.53876l-.2884.27886.1775.3613z" fill="url(#bm)"/></g><g filter="url(#x)"><ellipse cx="12.9723" cy="9.89236" fill="#c7a7a3" fill-opacity=".9" rx=".389603" ry=".197175" transform="matrix(.88365127 -.46814574 .46814574 .88365127 -3.121756 7.223891)"/><ellipse cx="12.9723" cy="9.89236" fill="url(#bn)" rx=".389603" ry=".197175" transform="matrix(.88365127 -.46814574 .46814574 .88365127 -3.121756 7.223891)"/></g><g filter="url(#y)"><path d="m17.3652 8.21244c.3226-.07846 1.1246-.03923 1.6608.34436" stroke="#a57045" stroke-linecap="round" stroke-width=".2"/></g><g filter="url(#z)"><path d="m13.5743 8.21244c-.3225-.07846-1.1246-.03923-1.6607.34436" stroke="#a57045" stroke-linecap="round" stroke-width=".2"/></g><g filter="url(#A)"><path d="m10.5315 4.5711c.6211-.55313 1.5169-.55872 2.0197-.46932l.4023 1.29062c-.257-.03911-.4861.05028-.6788.23466-.4527 1.67613-2.1623 1.42471-2.49757 2.68181-.15085-1.49176-.31834-2.78238.75437-3.73777z" fill="url(#bo)"/><path d="m10.5315 4.5711c.6211-.55313 1.5169-.55872 2.0197-.46932l.4023 1.29062c-.257-.03911-.4861.05028-.6788.23466-.4527 1.67613-2.1623 1.42471-2.49757 2.68181-.15085-1.49176-.31834-2.78238.75437-3.73777z" fill="url(#bp)"/></g><g filter="url(#B)"><path d="m14.8224 2.79443c-1.1326-.25007-2.3466.95539-2.4639 1.37443 1.5421 3.62044 3.9099 3.2754 6.5369 2.98351 1.5726-.17473 1.7432.54195 1.8773.88835-.4358-4.05624-3.369-4.6764-5.9503-5.24629z" fill="url(#bq)"/><path d="m14.8224 2.79443c-1.1326-.25007-2.3466.95539-2.4639 1.37443 1.5421 3.62044 3.9099 3.2754 6.5369 2.98351 1.5726-.17473 1.7432.54195 1.8773.88835-.4358-4.05624-3.369-4.6764-5.9503-5.24629z" fill="url(#br)"/><path d="m14.8224 2.79443c-1.1326-.25007-2.3466.95539-2.4639 1.37443 1.5421 3.62044 3.9099 3.2754 6.5369 2.98351 1.5726-.17473 1.7432.54195 1.8773.88835-.4358-4.05624-3.369-4.6764-5.9503-5.24629z" fill="url(#bs)"/></g><g filter="url(#C)"><path d="m12.5345 4.04309c.0233.24304.2347 1.15653.5448 1.70965" stroke="url(#bt)" stroke-linecap="round" stroke-width=".2"/></g><path d="m18.0829 6.4198h-5.275c-1.4972 0-2.7366 1.19975-2.7465 2.70687 0 1.49723 1.2196 2.71683 2.7168 2.71683.9419 0 1.8142-.4859 2.3001-1.2196.1884-.2776.5326-.2776.721 0 .5057.7535 1.3912 1.2394 2.3728 1.2096 1.408-.0495 2.5978-1.2691 2.6176-2.67708.0199-1.49721-1.1997-2.73662-2.7068-2.73662z" fill="url(#bu)" opacity=".6"/><g filter="url(#D)"><path clip-rule="evenodd" d="m9.76148 9.12465c.01103-1.67583 1.38822-3.0049 3.04652-3.0049h5.2749c1.6742 0 3.0289 1.37596 3.0069 3.04059v.00026c-.0221 1.5673-1.3387 2.9175-2.9071 2.9727l-.0014.0001c-1.0868.0329-2.0686-.5047-2.6305-1.3416-.0448-.0657-.0893-.0762-.1119-.0762s-.0669.0104-.1115.0756c-.5416.8165-1.5071 1.3522-2.5491 1.3522-1.6629 0-3.01683-1.3539-3.01683-3.01677v-.00198zm.60002.00296c.0005 1.33109 1.0856 2.41579 2.4168 2.41579.8411 0 1.6195-.4353 2.0499-1.0852l.0019-.0028c.1435-.2115.3651-.3398.6088-.3398.2436 0 .4652.1283.6087.3398l.0009.0013c.4493.6696 1.238 1.1032 2.1139 1.077 1.2472-.0444 2.3099-1.1332 2.3275-2.38155.0174-1.32968-1.067-2.4324-2.407-2.4324h-5.2749c-1.3358 0-2.4372 1.06991-2.4465 2.40786z" fill="#9b94a2" fill-rule="evenodd"/></g></svg>