<svg enable-background="new 0 0 128 128" viewBox="0 0 128 128" xmlns="http://www.w3.org/2000/svg"><g transform="scale(4)"><path d="m2 6c0-2.20914 1.79086-4 4-4h20c2.2091 0 4 1.79086 4 4v20c0 2.2091-1.7909 4-4 4h-20c-2.20914 0-4-1.7909-4-4z" fill="#00d26a"/><g fill="#fff"><path d="m9 6c0-.55228.44772-1 1-1 .5523 0 1 .44772 1 1v3.875c0 .06904.056.125.125.125h1.875c.5523 0 1 .4477 1 1s-.4477 1-1 1h-1.875c-.069 0-.125.056-.125.125v2.4101c0 .0822.078.142.1574.1207l1.4815-.397c.5335-.1429 1.0818.1737 1.2248.7071.1429.5335-.1737 1.0818-.7071 1.2248l-2.064.553c-.0546.0146-.0926.0642-.0926.1207v8.6356c0 .8284-.6716 1.5-1.5 1.5h-1.5c-.55228 0-1-.4477-1-1s.44772-1 1-1h.875c.06904 0 .125-.056.125-.125v-7.4077c0-.0822-.07796-.142-.15735-.1207l-1.48164.397c-.53347.1429-1.08181-.1737-1.22475-.7071-.14294-.5335.17364-1.0818.70711-1.2248l2.06398-.553c.05465-.0146.09265-.0642.09265-.1207v-3.013c0-.069-.05596-.125-.125-.125h-1.875c-.55228 0-1-.4477-1-1s.44772-1 1-1h1.875c.06904 0 .125-.05596.125-.125z"/><path d="m17 5c-.5523 0-1 .44772-1 1v8c0 .5523.4477 1 1 1h9c.5523 0 1-.4477 1-1v-2c0-.5523-.4477-1-1-1s-1 .4477-1 1v.875c0 .069-.056.125-.125.125h-6.75c-.069 0-.125-.056-.125-.125v-1.584c0-.0586.0407-.1094.0979-.1221l8.1121-1.79836c.5392-.11953.8794-.65354.7599-1.19273-.1196-.5392-.6536-.8794-1.1928-.75986l-7.625 1.69044c-.0781.0173-.1521-.04209-.1521-.12204v-2.98635c0-.55228-.4477-1-1-1z"/><path d="m16 17c0-.5523.4477-1 1-1h9c.5523 0 1 .4477 1 1v9c0 .5523-.4477 1-1 1-.51 0-.9309-.3818-.9923-.8752-.0085-.0686-.0637-.1248-.1327-.1248h-6.75c-.069 0-.1242.0562-.1327.1248-.0614.4934-.4823.8752-.9923.8752-.5523 0-1-.4477-1-1zm2 6.875c0 .069.056.125.125.125h6.75c.069 0 .125-.056.125-.125v-1.75c0-.069-.056-.125-.125-.125h-6.75c-.069 0-.125.056-.125.125zm6.875-5.875h-6.75c-.069 0-.125.056-.125.125v1.75c0 .069.056.125.125.125h6.75c.069 0 .125-.056.125-.125v-1.75c0-.069-.056-.125-.125-.125z"/></g></g></svg>