<svg fill="none" height="32" viewBox="0 0 32 32" width="32" xmlns="http://www.w3.org/2000/svg" xmlns:xlink="http://www.w3.org/1999/xlink"><filter id="a" color-interpolation-filters="sRGB" filterUnits="userSpaceOnUse" height="7.34556" width="8.74256" x="1.95608" y="23.0076"><feFlood flood-opacity="0" result="BackgroundImageFix"/><feBlend in="SourceGraphic" in2="BackgroundImageFix" mode="normal" result="shape"/><feColorMatrix in="SourceAlpha" result="hardAlpha" type="matrix" values="0 0 0 0 0 0 0 0 0 0 0 0 0 0 0 0 0 0 127 0"/><feOffset dx="-.4" dy=".4"/><feGaussianBlur stdDeviation=".5"/><feComposite in2="hardAlpha" k2="-1" k3="1" operator="arithmetic"/><feColorMatrix type="matrix" values="0 0 0 0 0.635294 0 0 0 0 0.607843 0 0 0 0 0.670588 0 0 0 1 0"/><feBlend in2="shape" mode="normal" result="effect1_innerShadow_4002_851"/><feColorMatrix in="SourceAlpha" result="hardAlpha" type="matrix" values="0 0 0 0 0 0 0 0 0 0 0 0 0 0 0 0 0 0 127 0"/><feOffset dx="-.1" dy=".1"/><feGaussianBlur stdDeviation=".5"/><feComposite in2="hardAlpha" k2="-1" k3="1" operator="arithmetic"/><feColorMatrix type="matrix" values="0 0 0 0 0.847059 0 0 0 0 0.831373 0 0 0 0 0.862745 0 0 0 1 0"/><feBlend in2="effect1_innerShadow_4002_851" mode="normal" result="effect2_innerShadow_4002_851"/></filter><filter id="b" color-interpolation-filters="sRGB" filterUnits="userSpaceOnUse" height="5.59924" width="4.27553" x="13.3445" y="9.32703"><feFlood flood-opacity="0" result="BackgroundImageFix"/><feBlend in="SourceGraphic" in2="BackgroundImageFix" mode="normal" result="shape"/><feGaussianBlur result="effect1_foregroundBlur_4002_851" stdDeviation=".375"/></filter><filter id="c" color-interpolation-filters="sRGB" filterUnits="userSpaceOnUse" height="7.73786" width="3.4794" x="13.9196" y="1.90387"><feFlood flood-opacity="0" result="BackgroundImageFix"/><feBlend in="SourceGraphic" in2="BackgroundImageFix" mode="normal" result="shape"/><feColorMatrix in="SourceAlpha" result="hardAlpha" type="matrix" values="0 0 0 0 0 0 0 0 0 0 0 0 0 0 0 0 0 0 127 0"/><feOffset dx="-.02" dy="-.06"/><feGaussianBlur stdDeviation=".05"/><feComposite in2="hardAlpha" k2="-1" k3="1" operator="arithmetic"/><feColorMatrix type="matrix" values="0 0 0 0 0.85098 0 0 0 0 0.792157 0 0 0 0 0.776471 0 0 0 1 0"/><feBlend in2="shape" mode="normal" result="effect1_innerShadow_4002_851"/></filter><filter id="d" color-interpolation-filters="sRGB" filterUnits="userSpaceOnUse" height="15.0292" width="2.82193" x="19.286" y="2.00781"><feFlood flood-opacity="0" result="BackgroundImageFix"/><feBlend in="SourceGraphic" in2="BackgroundImageFix" mode="normal" result="shape"/><feColorMatrix in="SourceAlpha" result="hardAlpha" type="matrix" values="0 0 0 0 0 0 0 0 0 0 0 0 0 0 0 0 0 0 127 0"/><feOffset dx=".2"/><feGaussianBlur stdDeviation=".125"/><feComposite in2="hardAlpha" k2="-1" k3="1" operator="arithmetic"/><feColorMatrix type="matrix" values="0 0 0 0 0.223529 0 0 0 0 0.47451 0 0 0 0 0.360784 0 0 0 1 0"/><feBlend in2="shape" mode="normal" result="effect1_innerShadow_4002_851"/></filter><filter id="e" color-interpolation-filters="sRGB" filterUnits="userSpaceOnUse" height="4.2572" width="4.4296" x="21.9917" y="6.99219"><feFlood flood-opacity="0" result="BackgroundImageFix"/><feBlend in="SourceGraphic" in2="BackgroundImageFix" mode="normal" result="shape"/><feColorMatrix in="SourceAlpha" result="hardAlpha" type="matrix" values="0 0 0 0 0 0 0 0 0 0 0 0 0 0 0 0 0 0 127 0"/><feOffset dx="-.25" dy="-.25"/><feGaussianBlur stdDeviation=".25"/><feComposite in2="hardAlpha" k2="-1" k3="1" operator="arithmetic"/><feColorMatrix type="matrix" values="0 0 0 0 0.878431 0 0 0 0 0.458824 0 0 0 0 0.054902 0 0 0 1 0"/><feBlend in2="shape" mode="normal" result="effect1_innerShadow_4002_851"/></filter><filter id="f" color-interpolation-filters="sRGB" filterUnits="userSpaceOnUse" height="3.54382" width="5.52719" x="18.9642" y="18.5078"><feFlood flood-opacity="0" result="BackgroundImageFix"/><feBlend in="SourceGraphic" in2="BackgroundImageFix" mode="normal" result="shape"/><feColorMatrix in="SourceAlpha" result="hardAlpha" type="matrix" values="0 0 0 0 0 0 0 0 0 0 0 0 0 0 0 0 0 0 127 0"/><feOffset dx="-.5"/><feGaussianBlur stdDeviation=".5"/><feComposite in2="hardAlpha" k2="-1" k3="1" operator="arithmetic"/><feColorMatrix type="matrix" values="0 0 0 0 0.407843 0 0 0 0 0.4 0 0 0 0 0.407843 0 0 0 1 0"/><feBlend in2="shape" mode="normal" result="effect1_innerShadow_4002_851"/></filter><filter id="g" color-interpolation-filters="sRGB" filterUnits="userSpaceOnUse" height="5.48938" width="9.57677" x="9.64514" y="14.9834"><feFlood flood-opacity="0" result="BackgroundImageFix"/><feBlend in="SourceGraphic" in2="BackgroundImageFix" mode="normal" result="shape"/><feColorMatrix in="SourceAlpha" result="hardAlpha" type="matrix" values="0 0 0 0 0 0 0 0 0 0 0 0 0 0 0 0 0 0 127 0"/><feOffset dy="-.25"/><feGaussianBlur stdDeviation=".375"/><feComposite in2="hardAlpha" k2="-1" k3="1" operator="arithmetic"/><feColorMatrix type="matrix" values="0 0 0 0 0.827451 0 0 0 0 0.505882 0 0 0 0 0.282353 0 0 0 1 0"/><feBlend in2="shape" mode="normal" result="effect1_innerShadow_4002_851"/></filter><filter id="h" color-interpolation-filters="sRGB" filterUnits="userSpaceOnUse" height="5.00171" width="6.67222" x="18.1318" y="15.0997"><feFlood flood-opacity="0" result="BackgroundImageFix"/><feBlend in="SourceGraphic" in2="BackgroundImageFix" mode="normal" result="shape"/><feColorMatrix in="SourceAlpha" result="hardAlpha" type="matrix" values="0 0 0 0 0 0 0 0 0 0 0 0 0 0 0 0 0 0 127 0"/><feOffset dy="-.5"/><feGaussianBlur stdDeviation=".375"/><feComposite in2="hardAlpha" k2="-1" k3="1" operator="arithmetic"/><feColorMatrix type="matrix" values="0 0 0 0 0.423529 0 0 0 0 0.372549 0 0 0 0 0.407843 0 0 0 1 0"/><feBlend in2="shape" mode="normal" result="effect1_innerShadow_4002_851"/></filter><filter id="i" color-interpolation-filters="sRGB" filterUnits="userSpaceOnUse" height="5.00171" width="6.67222" x="18.1318" y="15.0997"><feFlood flood-opacity="0" result="BackgroundImageFix"/><feBlend in="SourceGraphic" in2="BackgroundImageFix" mode="normal" result="shape"/><feColorMatrix in="SourceAlpha" result="hardAlpha" type="matrix" values="0 0 0 0 0 0 0 0 0 0 0 0 0 0 0 0 0 0 127 0"/><feOffset dy="-.5"/><feGaussianBlur stdDeviation=".375"/><feComposite in2="hardAlpha" k2="-1" k3="1" operator="arithmetic"/><feColorMatrix type="matrix" values="0 0 0 0 0.423529 0 0 0 0 0.372549 0 0 0 0 0.407843 0 0 0 1 0"/><feBlend in2="shape" mode="normal" result="effect1_innerShadow_4002_851"/></filter><filter id="j" color-interpolation-filters="sRGB" filterUnits="userSpaceOnUse" height="3.64609" width="2.56805" x="9.62183" y="16.8421"><feFlood flood-opacity="0" result="BackgroundImageFix"/><feBlend in="SourceGraphic" in2="BackgroundImageFix" mode="normal" result="shape"/><feColorMatrix in="SourceAlpha" result="hardAlpha" type="matrix" values="0 0 0 0 0 0 0 0 0 0 0 0 0 0 0 0 0 0 127 0"/><feOffset dx=".05" dy="-.4"/><feGaussianBlur stdDeviation=".2"/><feComposite in2="hardAlpha" k2="-1" k3="1" operator="arithmetic"/><feColorMatrix type="matrix" values="0 0 0 0 0.321569 0 0 0 0 0.247059 0 0 0 0 0.537255 0 0 0 1 0"/><feBlend in2="shape" mode="normal" result="effect1_innerShadow_4002_851"/></filter><filter id="k" color-interpolation-filters="sRGB" filterUnits="userSpaceOnUse" height="2.47329" width="2.60374" x="25.1088" y="8.7761"><feFlood flood-opacity="0" result="BackgroundImageFix"/><feBlend in="SourceGraphic" in2="BackgroundImageFix" mode="normal" result="shape"/><feColorMatrix in="SourceAlpha" result="hardAlpha" type="matrix" values="0 0 0 0 0 0 0 0 0 0 0 0 0 0 0 0 0 0 127 0"/><feOffset dx=".4" dy="-.1"/><feGaussianBlur stdDeviation=".25"/><feComposite in2="hardAlpha" k2="-1" k3="1" operator="arithmetic"/><feColorMatrix type="matrix" values="0 0 0 0 0.74902 0 0 0 0 0.388235 0 0 0 0 0.00784314 0 0 0 1 0"/><feBlend in2="shape" mode="normal" result="effect1_innerShadow_4002_851"/></filter><filter id="l" color-interpolation-filters="sRGB" filterUnits="userSpaceOnUse" height="4.64695" width="4.91338" x="23.3856" y="5.41567"><feFlood flood-opacity="0" result="BackgroundImageFix"/><feBlend in="SourceGraphic" in2="BackgroundImageFix" mode="normal" result="shape"/><feColorMatrix in="SourceAlpha" result="hardAlpha" type="matrix" values="0 0 0 0 0 0 0 0 0 0 0 0 0 0 0 0 0 0 127 0"/><feOffset dy="-.15"/><feGaussianBlur stdDeviation=".3"/><feComposite in2="hardAlpha" k2="-1" k3="1" operator="arithmetic"/><feColorMatrix type="matrix" values="0 0 0 0 0.305882 0 0 0 0 0.556863 0 0 0 0 0.882353 0 0 0 1 0"/><feBlend in2="shape" mode="normal" result="effect1_innerShadow_4002_851"/></filter><filter id="m" color-interpolation-filters="sRGB" filterUnits="userSpaceOnUse" height="1.36121" width="1.58785" x="25.0483" y="7.27808"><feFlood flood-opacity="0" result="BackgroundImageFix"/><feBlend in="SourceGraphic" in2="BackgroundImageFix" mode="normal" result="shape"/><feColorMatrix in="SourceAlpha" result="hardAlpha" type="matrix" values="0 0 0 0 0 0 0 0 0 0 0 0 0 0 0 0 0 0 127 0"/><feOffset/><feGaussianBlur stdDeviation=".25"/><feComposite in2="hardAlpha" k2="-1" k3="1" operator="arithmetic"/><feColorMatrix type="matrix" values="0 0 0 0 0.137255 0 0 0 0 0.482353 0 0 0 0 0.796078 0 0 0 1 0"/><feBlend in2="shape" mode="normal" result="effect1_innerShadow_4002_851"/></filter><filter id="n" color-interpolation-filters="sRGB" filterUnits="userSpaceOnUse" height="4.7958" width="6.51355" x="15.6086" y="10.0399"><feFlood flood-opacity="0" result="BackgroundImageFix"/><feBlend in="SourceGraphic" in2="BackgroundImageFix" mode="normal" result="shape"/><feColorMatrix in="SourceAlpha" result="hardAlpha" type="matrix" values="0 0 0 0 0 0 0 0 0 0 0 0 0 0 0 0 0 0 127 0"/><feOffset dy="-.35"/><feGaussianBlur stdDeviation=".325"/><feComposite in2="hardAlpha" k2="-1" k3="1" operator="arithmetic"/><feColorMatrix type="matrix" values="0 0 0 0 0.917647 0 0 0 0 0.615686 0 0 0 0 0.239216 0 0 0 1 0"/><feBlend in2="shape" mode="normal" result="effect1_innerShadow_4002_851"/></filter><radialGradient id="o" cx="0" cy="0" gradientTransform="matrix(1.40625726 -8.03125297 17.41032038 3.0485143 7.50708 28.4063)" gradientUnits="userSpaceOnUse" r="1"><stop offset=".378" stop-color="#e2e0e4"/><stop offset="1" stop-color="#a297ad"/></radialGradient><linearGradient id="p" gradientUnits="userSpaceOnUse" x1="11.4384" x2="11.4384" y1="29.9531" y2="28.6578"><stop offset="0" stop-color="#d2cdd5"/><stop offset="1" stop-color="#e3e1e5" stop-opacity="0"/></linearGradient><linearGradient id="q" gradientUnits="userSpaceOnUse" x1="5.31958" x2="6.47583" y1="17.5312" y2="20.8125"><stop offset=".373084" stop-color="#a9a5ad"/><stop offset="1" stop-color="#a5a2a8"/></linearGradient><linearGradient id="r" gradientUnits="userSpaceOnUse" x1="5.81958" x2="6.16333" y1="17.5312" y2="18.5"><stop offset=".141619" stop-color="#948b99"/><stop offset="1" stop-color="#aaa6ae" stop-opacity="0"/></linearGradient><radialGradient id="s" cx="0" cy="0" gradientTransform="matrix(.31250061 -2.65615006 5.18206835 .60967923 10.0383 21.5614)" gradientUnits="userSpaceOnUse" r="1"><stop offset=".355941" stop-color="#bcb9be"/><stop offset="1" stop-color="#bcb9be" stop-opacity="0"/></radialGradient><radialGradient id="t" cx="0" cy="0" gradientTransform="matrix(-1.43749438 .65719576 -1.2143361 -2.65613602 10.4446 18.9053)" gradientUnits="userSpaceOnUse" r="1"><stop offset=".125611" stop-color="#958e9b"/><stop offset=".694843" stop-color="#958e9b" stop-opacity="0"/></radialGradient><radialGradient id="u" cx="0" cy="0" gradientTransform="matrix(5.21875033 -2.74999856 .52108985 .988887 3.91333 21.2812)" gradientUnits="userSpaceOnUse" r="1"><stop offset=".457061" stop-color="#9f9ca3"/><stop offset="1" stop-color="#9f9ca3" stop-opacity="0"/></radialGradient><linearGradient id="v" gradientUnits="userSpaceOnUse" x1="13.4133" x2="11.5696" y1="1.84375" y2="14.9688"><stop offset=".517648" stop-color="#e5e3e5"/><stop offset="1" stop-color="#ae9ea8"/></linearGradient><linearGradient id="w" gradientUnits="userSpaceOnUse" x1="2.60083" x2="13.1321" y1="17.7187" y2="13.5625"><stop offset=".292864" stop-color="#9c93a5"/><stop offset="1" stop-color="#9c93a5" stop-opacity="0"/></linearGradient><radialGradient id="x" cx="0" cy="0" gradientTransform="matrix(-3.84375218 .34372196 -.93304218 -10.4339651 19.4133 9.5625)" gradientUnits="userSpaceOnUse" r="1"><stop offset=".351128" stop-color="#e3d5d2"/><stop offset="1" stop-color="#e3d5d2" stop-opacity="0"/></radialGradient><linearGradient id="y" gradientUnits="userSpaceOnUse" x1="14.2689" x2="16.87" y1="10.6697" y2="15.1875"><stop offset=".368" stop-color="#ba9f92"/><stop offset="1" stop-color="#ba9f92" stop-opacity="0"/></linearGradient><radialGradient id="z" cx="0" cy="0" gradientTransform="matrix(1.15625183 5.56249833 -3.93630908 .81822309 20.3196 7.09373)" gradientUnits="userSpaceOnUse" r="1"><stop offset=".279975" stop-color="#fcc338"/><stop offset=".834811" stop-color="#e58a1f"/></radialGradient><radialGradient id="A" cx="0" cy="0" gradientTransform="matrix(-1.25000753 1.56249869 -2.5869724 -2.06959212 23.1633 10.8437)" gradientUnits="userSpaceOnUse" r="1"><stop offset=".281922" stop-color="#bb8d40"/><stop offset="1" stop-color="#ea9425" stop-opacity="0"/></radialGradient><linearGradient id="B" gradientUnits="userSpaceOnUse" x1="4.50708" x2="6.88208" y1="5.25" y2="13.5313"><stop offset="0" stop-color="#c7c5c9"/><stop offset="1" stop-color="#c2bfc5"/></linearGradient><radialGradient id="C" cx="0" cy="0" gradientTransform="matrix(9.95983406 -3.00678565 4.88716103 16.18848786 2.35608 8.44428)" gradientUnits="userSpaceOnUse" r="1"><stop offset=".897496" stop-color="#d1cfd2" stop-opacity="0"/><stop offset=".981646" stop-color="#e5e3e5"/></radialGradient><linearGradient id="D" gradientUnits="userSpaceOnUse" x1="5.78833" x2="5.50708" y1="14.1406" y2="13.1406"><stop offset="0" stop-color="#9d94a6"/><stop offset="1" stop-color="#c3c0c6" stop-opacity="0"/></linearGradient><radialGradient id="E" cx="0" cy="0" gradientTransform="matrix(2.87499491 -.81250109 1.05147312 3.72058561 13.1633 7.2812)" gradientUnits="userSpaceOnUse" r="1"><stop offset=".27451" stop-color="#e2dfe2"/><stop offset="1" stop-color="#d6d4d7"/></radialGradient><linearGradient id="F" gradientUnits="userSpaceOnUse" x1="19.5763" x2="20.9353" y1="10.9522" y2="15.6117"><stop offset="0" stop-color="#489778"/><stop offset="1" stop-color="#648431"/></linearGradient><radialGradient id="G" cx="0" cy="0" gradientTransform="matrix(-.00002277 .652344 -.820614 -.00002864 22.8746 7.98437)" gradientUnits="userSpaceOnUse" r="1"><stop offset=".514962" stop-color="#ebab2a"/><stop offset="1" stop-color="#eaa630"/></radialGradient><linearGradient id="H" gradientUnits="userSpaceOnUse" x1="25.1008" x2="26.5071" y1="20.2969" y2="20.2969"><stop offset="0" stop-color="#554682"/><stop offset="1" stop-color="#66619b"/></linearGradient><radialGradient id="I" cx="0" cy="0" gradientTransform="matrix(0 -1.17188 1.40443 0 25.554 21.4844)" gradientUnits="userSpaceOnUse" r="1"><stop offset="0" stop-color="#5a3c98"/><stop offset="1" stop-color="#5a3c98" stop-opacity="0"/></radialGradient><radialGradient id="J" cx="0" cy="0" gradientTransform="matrix(.39062529 .68359375 -1.70288496 .97307786 24.4758 19.0039)" gradientUnits="userSpaceOnUse" r="1"><stop offset="0" stop-color="#413b69"/><stop offset="1" stop-color="#413b69" stop-opacity="0"/></radialGradient><radialGradient id="K" cx="0" cy="0" gradientTransform="matrix(.02503396 1.46227573 -1.51108857 .02586963 25.1182 11.5721)" gradientUnits="userSpaceOnUse" r="1"><stop offset="0" stop-color="#ffb032"/><stop offset="1" stop-color="#d88020"/></radialGradient><radialGradient id="L" cx="0" cy="0" gradientTransform="matrix(2.0312492 1.96874742 -2.0419081 2.10673251 23.1633 8.57812)" gradientUnits="userSpaceOnUse" r="1"><stop offset=".164144" stop-color="#f5b63d"/><stop offset="1" stop-color="#eaa131"/></radialGradient><radialGradient id="M" cx="0" cy="0" gradientTransform="matrix(-.79687493 1.42187459 -1.14734842 -.64301957 25.8508 8.71875)" gradientUnits="userSpaceOnUse" r="1"><stop offset="0" stop-color="#ca7d27"/><stop offset="1" stop-color="#ca7d27" stop-opacity="0"/></radialGradient><linearGradient id="N" gradientUnits="userSpaceOnUse" x1="24.875" x2="24.6008" y1="18.5586" y2="18.5586"><stop offset=".268951" stop-color="#535478"/><stop offset="1" stop-color="#333061"/></linearGradient><linearGradient id="O" gradientUnits="userSpaceOnUse" x1="26.4915" x2="24.475" y1="19.8368" y2="19"><stop offset="0" stop-color="#40347f"/><stop offset="1" stop-color="#292557"/></linearGradient><radialGradient id="P" cx="0" cy="0" gradientTransform="matrix(-.05078086 .15625029 -1.00515834 -.32667333 26.011 19.375)" gradientUnits="userSpaceOnUse" r="1"><stop offset="0" stop-color="#63608c"/><stop offset="1" stop-color="#63608c" stop-opacity="0"/></radialGradient><radialGradient id="Q" cx="0" cy="0" gradientTransform="matrix(.85473341 .16351763 -.68689188 3.59049635 18.7555 21.6998)" gradientUnits="userSpaceOnUse" r="1"><stop offset="0" stop-color="#f7c060"/><stop offset="1" stop-color="#f7c060" stop-opacity="0"/></radialGradient><radialGradient id="R" cx="0" cy="0" gradientTransform="matrix(-3.15351475 -5.28755202 1.80010359 -1.07358816 23.4178 25.8344)" gradientUnits="userSpaceOnUse" r="1"><stop offset=".321736" stop-color="#ffd443"/><stop offset="1" stop-color="#f9ad35" stop-opacity="0"/></radialGradient><radialGradient id="S" cx="0" cy="0" gradientTransform="matrix(-.65624737 -.46875369 1.43476872 -2.00865232 23.6633 27.2813)" gradientUnits="userSpaceOnUse" r="1"><stop offset="0" stop-color="#5e598c"/><stop offset="1" stop-color="#5e598c" stop-opacity="0"/></radialGradient><radialGradient id="T" cx="0" cy="0" gradientTransform="matrix(-2.0118358 -.31177224 .63115559 -4.07278536 23.5071 28.1875)" gradientUnits="userSpaceOnUse" r="1"><stop offset=".54009" stop-color="#4d407b" stop-opacity="0"/><stop offset="1" stop-color="#4d407b"/></radialGradient><linearGradient id="U" gradientUnits="userSpaceOnUse" x1="23.261" x2="23.1555" y1="27.918" y2="27.836"><stop offset="0" stop-color="#4b4386"/><stop offset="1" stop-color="#4b4386" stop-opacity="0"/></linearGradient><radialGradient id="V" cx="0" cy="0" gradientTransform="matrix(-1.85938157 -.29685949 .97700989 -6.11950853 23.1008 28.0938)" gradientUnits="userSpaceOnUse" r="1"><stop offset=".604118" stop-color="#7a7996" stop-opacity="0"/><stop offset="1" stop-color="#7a7996"/></radialGradient><linearGradient id="W" gradientUnits="userSpaceOnUse" x1="23.6594" x2="23.9055" y1="8.24222" y2="7.80472"><stop offset="0" stop-color="#6f443d"/><stop offset="1" stop-color="#5a332d"/></linearGradient><linearGradient id="X" gradientUnits="userSpaceOnUse" x1="24.8821" x2="22.6946" y1="15.8124" y2="12"><stop offset="0" stop-color="#3aadff"/><stop offset="1" stop-color="#4d94cd"/></linearGradient><radialGradient id="Y" cx="0" cy="0" gradientTransform="matrix(-2.1562466 2.06249891 -1.70891068 -1.78658657 25.6008 13.0937)" gradientUnits="userSpaceOnUse" r="1"><stop offset="0" stop-color="#53bfff"/><stop offset="1" stop-color="#53bfff" stop-opacity="0"/></radialGradient><radialGradient id="Z" cx="0" cy="0" gradientTransform="matrix(.28124973 1.35936999 -3.85802122 .79821345 23.8508 11.5781)" gradientUnits="userSpaceOnUse" r="1"><stop offset="0" stop-color="#4788c0"/><stop offset="1" stop-color="#4788c0" stop-opacity="0"/></radialGradient><radialGradient id="aa" cx="0" cy="0" gradientTransform="matrix(-2.06251055 1.12498428 -.64969223 -1.19112515 22.929 13.9531)" gradientUnits="userSpaceOnUse" r="1"><stop offset="0" stop-color="#1b7eec"/><stop offset="1" stop-color="#1b7eec" stop-opacity="0"/></radialGradient><radialGradient id="ab" cx="0" cy="0" gradientTransform="matrix(.98437114 .46874721 -1.87886683 3.94562835 21.5071 15.1093)" gradientUnits="userSpaceOnUse" r="1"><stop offset=".206004" stop-color="#67a3db"/><stop offset="1" stop-color="#67a3db" stop-opacity="0"/></radialGradient><radialGradient id="ac" cx="0" cy="0" gradientTransform="matrix(1.64062306 -2.32812017 1.89839247 1.33779454 20.6946 21.625)" gradientUnits="userSpaceOnUse" r="1"><stop offset="0" stop-color="#716170"/><stop offset="1" stop-color="#716170" stop-opacity="0"/></radialGradient><radialGradient id="ad" cx="0" cy="0" gradientTransform="matrix(.65624969 .48437551 -1.05948105 1.43542375 20.2415 19.5)" gradientUnits="userSpaceOnUse" r="1"><stop offset="0" stop-color="#948f8f"/><stop offset="1" stop-color="#948f8f" stop-opacity="0"/></radialGradient><radialGradient id="ae" cx="0" cy="0" gradientTransform="matrix(-1.87500526 1.75000087 -.85312193 -.91406132 22.1165 19.4219)" gradientUnits="userSpaceOnUse" r="1"><stop offset=".119571" stop-color="#5e505b"/><stop offset="1" stop-color="#5e505b" stop-opacity="0"/></radialGradient><linearGradient id="af" gradientUnits="userSpaceOnUse" x1="18.6477" x2="18.304" y1="15.3282" y2="15.9844"><stop offset="0" stop-color="#e2a539"/><stop offset="1" stop-color="#e2a539" stop-opacity="0"/><stop offset="1" stop-color="#ffbd32" stop-opacity="0"/></linearGradient><radialGradient id="ag" cx="0" cy="0" gradientTransform="matrix(-3.25000492 -1.34373792 .47918262 -1.15896548 22.6008 17.6875)" gradientUnits="userSpaceOnUse" r="1"><stop offset="0" stop-color="#aea0a5"/><stop offset="1" stop-color="#aea0a5" stop-opacity="0"/></radialGradient><linearGradient id="ah" gradientUnits="userSpaceOnUse" x1="20.1321" x2="21.1008" y1="20.1015" y2="17.125"><stop offset="0" stop-color="#8c7786"/><stop offset="1" stop-color="#8c7786" stop-opacity="0"/></linearGradient><radialGradient id="ai" cx="0" cy="0" gradientTransform="matrix(-.2968704 .53125235 -3.08778159 -1.72549063 23.304 17.0312)" gradientUnits="userSpaceOnUse" r="1"><stop offset="0" stop-color="#816878"/><stop offset="1" stop-color="#816878" stop-opacity="0"/></radialGradient><radialGradient id="aj" cx="0" cy="0" gradientTransform="matrix(.92187298 -1.28124606 2.36814969 1.70391408 10.5383 19.1876)" gradientUnits="userSpaceOnUse" r="1"><stop offset=".679667" stop-color="#4a4476" stop-opacity="0"/><stop offset=".964352" stop-color="#4a4476"/></radialGradient><linearGradient id="ak" gradientUnits="userSpaceOnUse" x1="23.1028" x2="23.1028" y1="16.6875" y2="18.125"><stop offset="0" stop-color="#8bad3a"/><stop offset="1" stop-color="#337267"/></linearGradient><linearGradient id="al" gradientUnits="userSpaceOnUse" x1="24.2961" x2="24.5266" y1="18.2149" y2="17.7696"><stop offset=".456682" stop-color="#3a5669"/><stop offset="1" stop-color="#417c62" stop-opacity="0"/></linearGradient><radialGradient id="am" cx="0" cy="0" gradientTransform="matrix(1.21875275 .67968982 -.21221049 .38051493 20.9602 15.9844)" gradientUnits="userSpaceOnUse" r="1"><stop offset="0" stop-color="#a6ca7d"/><stop offset="1" stop-color="#a6ca7d" stop-opacity="0"/></radialGradient><radialGradient id="an" cx="0" cy="0" gradientTransform="matrix(.63330307 -1.0078163 1.01131319 .63550049 19.8503 7.85153)" gradientUnits="userSpaceOnUse" r="1"><stop offset=".40275" stop-color="#e7a61e"/><stop offset="1" stop-color="#e7a61e" stop-opacity="0"/></radialGradient><linearGradient id="ao" gradientUnits="userSpaceOnUse" x1="15.6165" x2="15.9446" y1="11.7109" y2="11.3281"><stop offset=".00161153" stop-color="#eda33a"/><stop offset=".990727" stop-color="#eda33a" stop-opacity="0"/></linearGradient><linearGradient id="ap"><stop offset="0" stop-color="#f9a925"/><stop offset="1" stop-color="#f9a925" stop-opacity="0"/></linearGradient><linearGradient id="aq" gradientUnits="userSpaceOnUse" x1="15.7571" x2="15.9602" xlink:href="#ap" y1="11.3281" y2="11.125"/><linearGradient id="ar" gradientUnits="userSpaceOnUse" x1="16.0145" x2="16.2396" xlink:href="#ap" y1="10.9371" y2="10.7077"/><radialGradient id="as" cx="0" cy="0" gradientTransform="matrix(-.92188301 1.2343713 -.80877548 -.60402925 26.7969 9.82814)" gradientUnits="userSpaceOnUse" r="1"><stop offset="0" stop-color="#ffb32b"/><stop offset="1" stop-color="#ea8e18"/></radialGradient><radialGradient id="at" cx="0" cy="0" gradientTransform="matrix(.08984434 .8124997 -.8124997 .08984434 25.4485 9.14062)" gradientUnits="userSpaceOnUse" r="1"><stop offset=".392003" stop-color="#e1a337"/><stop offset="1" stop-color="#ce780d"/></radialGradient><linearGradient id="au" gradientUnits="userSpaceOnUse" x1="24.9446" x2="24.6243" y1="9.8379" y2="9.59376"><stop offset="0" stop-color="#37234c"/><stop offset="1" stop-color="#37234c" stop-opacity="0"/></linearGradient><linearGradient id="av" gradientUnits="userSpaceOnUse" x1="23.4915" x2="23.929" y1="10.3906" y2="10.6797"><stop offset=".324467" stop-color="#72687c"/><stop offset="1" stop-color="#72687c" stop-opacity="0"/></linearGradient><radialGradient id="aw" cx="0" cy="0" gradientTransform="matrix(.13671882 .11328141 -.66400468 .80138425 24.9524 9.48438)" gradientUnits="userSpaceOnUse" r="1"><stop offset="0" stop-color="#564975"/><stop offset="1" stop-color="#4d3a6e" stop-opacity="0"/></radialGradient><radialGradient id="ax" cx="0" cy="0" gradientTransform="matrix(-1.29688466 1.5624935 -1.83648908 -1.52430363 26.8352 7.15621)" gradientUnits="userSpaceOnUse" r="1"><stop offset=".0445853" stop-color="#4fbdff"/><stop offset=".918703" stop-color="#52abe4"/></radialGradient><radialGradient id="ay" cx="0" cy="0" gradientTransform="matrix(.36718757 -.4531251 1.16199628 .94161766 25.6633 8.18746)" gradientUnits="userSpaceOnUse" r="1"><stop offset=".217657" stop-color="#4b89d0"/><stop offset="1" stop-color="#337bcd"/></radialGradient><linearGradient id="az" gradientUnits="userSpaceOnUse" x1="16.4444" x2="16.6675" xlink:href="#ap" y1="10.7095" y2="10.5179"/><radialGradient id="aA" cx="0" cy="0" gradientTransform="matrix(-3.09375505 -1.12499532 .51077341 -1.404635 21.9758 17.4687)" gradientUnits="userSpaceOnUse" r="1"><stop offset="0" stop-color="#aea0a4"/><stop offset="1" stop-color="#aea0a4" stop-opacity="0"/></radialGradient><radialGradient id="aB" cx="0" cy="0" gradientTransform="matrix(1.15625135 -3.31249982 9.2644063 3.23380614 19.7415 19.4375)" gradientUnits="userSpaceOnUse" r="1"><stop offset=".771343" stop-color="#a69494" stop-opacity="0"/><stop offset="1" stop-color="#8b826e"/></radialGradient><radialGradient id="aC" cx="0" cy="0" gradientTransform="matrix(.48437457 2.46187196 -.72617604 .14287551 17.9133 17.8506)" gradientUnits="userSpaceOnUse" r="1"><stop offset="0" stop-color="#ada2a2"/><stop offset="1" stop-color="#ada2a2" stop-opacity="0"/></radialGradient><radialGradient id="aD" cx="0" cy="0" gradientTransform="matrix(-.37499944 2.39387628 -5.6230065 -.88084096 23.4133 12.2467)" gradientUnits="userSpaceOnUse" r="1"><stop offset=".274424" stop-color="#34aef0"/><stop offset="1" stop-color="#3a9cf8"/></radialGradient><linearGradient id="aE" gradientUnits="userSpaceOnUse" x1="23.2102" x2="23.0852" y1="14.7187" y2="13.7968"><stop offset="0" stop-color="#2280e0"/><stop offset="1" stop-color="#2280e0" stop-opacity="0"/></linearGradient><radialGradient id="aF" cx="0" cy="0" gradientTransform="matrix(-.92187396 .21875439 -.25309046 -1.06657289 24.6946 12.9062)" gradientUnits="userSpaceOnUse" r="1"><stop offset="0" stop-color="#56c0ff"/><stop offset="1" stop-color="#56c0ff" stop-opacity="0"/></radialGradient><path d="m2.35608 29.9531v-8.9531l5.20383-1.9766 2.51359 1.2891c-.2204-.3828.5986-.5374 1.0703.4297.2344.4805-.1133 1.8125-.5977 2.4219l-1.32016 1.4803c-.14375.1612-.13359.4074.02296.5562l5.0004 4.7525z" fill="url(#o)"/><path d="m2.35608 29.9531v-8.9531l5.20383-1.9766 2.51359 1.2891c-.2204-.3828.5986-.5374 1.0703.4297.2344.4805-.1133 1.8125-.5977 2.4219l-1.32016 1.4803c-.14375.1612-.13359.4074.02296.5562l5.0004 4.7525z" fill="url(#p)"/><path d="m9.59129 16.9468c.05568-.4066.328-.6345.45721-.6977l-7.69242 2.6512v2.6611c.67913-.2757 2.2265-.9209 3.28395-1.4152.88619-.4143 1.71499-.4087 2.17775-.2891l3.34162.9241-1.31968-2.7679c-.24843-.5211-.30412-.6598-.24843-1.0665z" fill="url(#q)"/><path d="m9.59129 16.9468c.05568-.4066.328-.6345.45721-.6977l-7.69242 2.6512v2.6611c.67913-.2757 2.2265-.9209 3.28395-1.4152.88619-.4143 1.71499-.4087 2.17775-.2891l3.34162.9241-1.31968-2.7679c-.24843-.5211-.30412-.6598-.24843-1.0665z" fill="url(#r)"/><path d="m9.59129 16.9468c.05568-.4066.328-.6345.45721-.6977l-7.69242 2.6512v2.6611c.67913-.2757 2.2265-.9209 3.28395-1.4152.88619-.4143 1.71499-.4087 2.17775-.2891l3.34162.9241-1.31968-2.7679c-.24843-.5211-.30412-.6598-.24843-1.0665z" fill="url(#s)"/><path d="m9.59129 16.9468c.05568-.4066.328-.6345.45721-.6977l-7.69242 2.6512v2.6611c.67913-.2757 2.2265-.9209 3.28395-1.4152.88619-.4143 1.71499-.4087 2.17775-.2891l3.34162.9241-1.31968-2.7679c-.24843-.5211-.30412-.6598-.24843-1.0665z" fill="url(#t)"/><path d="m9.59129 16.9468c.05568-.4066.328-.6345.45721-.6977l-7.69242 2.6512v2.6611c.67913-.2757 2.2265-.9209 3.28395-1.4152.88619-.4143 1.71499-.4087 2.17775-.2891l3.34162.9241-1.31968-2.7679c-.24843-.5211-.30412-.6598-.24843-1.0665z" fill="url(#u)"/><g filter="url(#a)"><path d="m2.35608 23.0076v6.9455h8.34252c-1.10733-.5778-2.32922-1.2215-2.97277-1.5781-1.0375-.575-1.31014-1.1459-1.48437-1.5235-.06499-.1408-.1863-.4505-.37173-.924-.08206-.2096-.17667-.4512-.28452-.7244-.32226-.8164-.95313-1.2187-1.4375-1.4219z" fill="#a29ea7"/></g><path d="m14.8032 14.6875-12.44712 4.3623v-17.04199h15.94432c-.4009 2.85157-1.2334 8.85939-1.4901 10.67969-.1838 1.303-.8013 1.5234-2.0071 2z" fill="url(#v)"/><path d="m14.8032 14.6875-12.44712 4.3623v-17.04199h15.94432c-.4009 2.85157-1.2334 8.85939-1.4901 10.67969-.1838 1.303-.8013 1.5234-2.0071 2z" fill="url(#w)"/><path d="m14.8032 14.6875-12.44712 4.3623v-17.04199h15.94432c-.4009 2.85157-1.2334 8.85939-1.4901 10.67969-.1838 1.303-.8013 1.5234-2.0071 2z" fill="url(#x)"/><g filter="url(#b)"><path d="m16.87 12.2626c-.0223.1593-.0423.3017-.0597.4249-.1133.8029-.3912 1.1948-.87 1.4888l-.8578-1.286-.9451-1.3289c-.0742-.1043-.0498-.2489.0545-.3231.0826-.0588.1906-.0557.2687 0l-.1266-.1781c-.0894-.1256-.0599-.2999.0657-.3893.0681-.0484.1504-.062.2258-.0442l-.0235-.0326c-.0894-.1256-.06-.3.0657-.3893.1256-.0894.2999-.06.3893.0657l.1065.147c-.0239-.1064.0162-.2216.1107-.2888.1256-.0893.3-.0599.3893.0657l.4992.8185.0259-.2287c.0191-.1693.1784-.2865.3458-.2544.1592.0305.2632.1847.238.3449-.0318.2018-.0619.44-.0612.5994.0018.3901.0724.6138.1588.7885z" fill="url(#y)"/></g><path clip-rule="evenodd" d="m23.6641 13.7676c-3.6183-1.7112-4.8914-4.45512-5.4814-6.54496-.1109-.42708.0353-.99609.59-1.08984l.6936-.15696c.2257-.04205.4396.11433.4756.34112.331 2.08471 1.1756 4.09074 4.4703 5.86854z" fill="url(#z)" fill-rule="evenodd"/><path clip-rule="evenodd" d="m23.6641 13.7676c-3.6183-1.7112-4.8914-4.45512-5.4814-6.54496-.1109-.42708.0353-.99609.59-1.08984l.6936-.15696c.2257-.04205.4396.11433.4756.34112.331 2.08471 1.1756 4.09074 4.4703 5.86854z" fill="url(#A)" fill-rule="evenodd"/><path d="m10.2204 2.00781c.5507 1.05404 1.37 2.95765 1.8492 4.83594.7812 3.0625-.25 5.28125-3.75002 6.31245-1.63518.4818-3.93255 1.1434-5.9635 1.7245v-12.87289z" fill="url(#B)"/><path d="m10.2204 2.00781c.5507 1.05404 1.37 2.95765 1.8492 4.83594.7812 3.0625-.25 5.28125-3.75002 6.31245-1.63518.4818-3.93255 1.1434-5.9635 1.7245v-12.87289z" fill="url(#C)"/><path d="m10.2204 2.00781c.5507 1.05404 1.37 2.95765 1.8492 4.83594.7812 3.0625-.25 5.28125-3.75002 6.31245-1.63518.4818-3.93255 1.1434-5.9635 1.7245v-12.87289z" fill="url(#D)"/><g filter="url(#c)"><path d="m13.9396 1.96387c.3932 1.55348.8502 4.69325.1345 7.32915-.0371.13652.033.28047.165.33125.0461.01773.0964.02345.144.01018.378-.10543.8358-.51285 1.153-1.28777.5667-1.38448 1.1794-3.74912 1.6368-5.51458.0805-.31086.1563-.60315.2261-.86823z" fill="url(#E)"/></g><g filter="url(#d)"><path d="m19.286 2.00781v9.58849c0 .1318.0267.2623.0786.3835l1.7061 3.9891.4208.1366c.0488.1142.1656.9784.2799.9295.1142-.0489.1672-.1811.1184-.2954l-2.1115-4.9368c-.0279-.0653-.0423-.1355-.0423-.2065v-9.58849z" fill="url(#F)"/></g><path d="m22.4523 8.24219c.0313-.20703.1524-.26953.4493-.35157.2169-.05993.3417-.18091.3875-.24806l-.4578.99416c-.211 0-.4102-.1875-.379-.39453z" fill="url(#G)"/><path d="m24.6008 19.0039 1.9063.6307v.7287c0 .5264-.4267.9531-.9531.9531s-.9532-.4267-.9532-.9531z" fill="url(#H)"/><path d="m24.6008 19.0039 1.9063.6307v.7287c0 .5264-.4267.9531-.9531.9531s-.9532-.4267-.9532-.9531z" fill="url(#I)"/><path d="m24.6008 19.0039 1.9063.6307v.7287c0 .5264-.4267.9531-.9531.9531s-.9532-.4267-.9532-.9531z" fill="url(#J)"/><path d="m23.7316 10.7091h1.9053v1.84375h-1.9053z" fill="url(#K)" transform="matrix(.99091303 .13450418 -.13450418 .99091303 1.656067 -3.094686)"/><g filter="url(#e)"><path d="m22.3119 9.42969c.2772-.875.9505-1.81511 1.211-2.1875l2.8984 1.86719-.5938 2.04682c-.289.0704-1.0562.1688-1.8125 0-.9453-.2109-2.0669-.5784-1.7031-1.72651z" fill="url(#L)"/><path d="m22.3119 9.42969c.2772-.875.9505-1.81511 1.211-2.1875l2.8984 1.86719-.5938 2.04682c-.289.0704-1.0562.1688-1.8125 0-.9453-.2109-2.0669-.5784-1.7031-1.72651z" fill="url(#M)"/></g><g clip-rule="evenodd" fill-rule="evenodd"><path d="m24.675 17.9172c.1104 0 .2.0896.2.2v.8828c0 .1105-.0896.2-.2.2-.1105 0-.2-.0895-.2-.2v-.8828c0-.1104.0895-.2.2-.2z" fill="url(#N)"/><path d="m24.4861 18.9656c.0363-.1044.1502-.1595.2546-.1233l1.7422.6055c.1043.0362.1595.1502.1232.2546-.0362.1043-.1502.1595-.2545.1232l-1.7422-.6055c-.1044-.0362-.1595-.1502-.1233-.2545z" fill="url(#O)"/><path d="m24.4861 18.9656c.0363-.1044.1502-.1595.2546-.1233l1.7422.6055c.1043.0362.1595.1502.1232.2546-.0362.1043-.1502.1595-.2545.1232l-1.7422-.6055c-.1044-.0362-.1595-.1502-.1233-.2545z" fill="url(#P)"/><path d="m22.6774 9.14836c.0302-.0462.0922-.05911.1384-.02885.0849.05558.2505.10289.5205.04088.0538-.01237.1075.02124.1198.07507.0124.05382-.0212.10748-.075.11985-.3082.0708-.5331.02435-.6749-.0685-.0462-.03027-.0591-.09226-.0288-.13845z" fill="#87004d"/></g><path d="m23.804 7.75783c-.2013.03162-.3256.22135-.3868.32031l.7344.48438c.2578-.625-.0742-.84766-.3476-.80469z" fill="#fff"/><path d="m19.1946 20.9531.3906-.4062 2.1094 1.1875-.4922.5 1.8359 3.9218.8002.5758c.089.064.1099.1879.0467.2775l-1.753 2.4868c-.0609.0865-.1716.1272-.2635.0748-.1779-.1017-.3694-.2957-.3694-.5789-.0375-.5563.1927-1.7005.3125-2.2031-.6615-.9401-2.1375-3.0453-2.75-3.9453s-.1667-1.6355.1328-1.8907z" fill="#ed9f3c"/><path d="m19.1946 20.9531.3906-.4062 2.1094 1.1875-.4922.5 1.8359 3.9218.8002.5758c.089.064.1099.1879.0467.2775l-1.753 2.4868c-.0609.0865-.1716.1272-.2635.0748-.1779-.1017-.3694-.2957-.3694-.5789-.0375-.5563.1927-1.7005.3125-2.2031-.6615-.9401-2.1375-3.0453-2.75-3.9453s-.1667-1.6355.1328-1.8907z" fill="url(#Q)"/><path d="m19.1946 20.9531.3906-.4062 2.1094 1.1875-.4922.5 1.8359 3.9218.8002.5758c.089.064.1099.1879.0467.2775l-1.753 2.4868c-.0609.0865-.1716.1272-.2635.0748-.1779-.1017-.3694-.2957-.3694-.5789-.0375-.5563.1927-1.7005.3125-2.2031-.6615-.9401-2.1375-3.0453-2.75-3.9453s-.1667-1.6355.1328-1.8907z" fill="url(#R)"/><path d="m23.0395 26.1571.799.5749c.0891.0641.1099.1879.0467.2776l-1.7529 2.4867c-.061.0866-.1716.1273-.2635.0748-.1779-.1016-.3695-.2957-.3695-.5789-.0375-.5562.1927-1.7005.3125-2.2031l-.0016-.0023z" fill="#544583"/><path d="m23.0395 26.1571.799.5749c.0891.0641.1099.1879.0467.2776l-1.7529 2.4867c-.061.0866-.1716.1273-.2635.0748-.1779-.1016-.3695-.2957-.3695-.5789-.0375-.5562.1927-1.7005.3125-2.2031l-.0016-.0023z" fill="url(#S)"/><path d="m23.0395 26.1571.799.5749c.0891.0641.1099.1879.0467.2776l-1.7529 2.4867c-.061.0866-.1716.1273-.2635.0748-.1779-.1016-.3695-.2957-.3695-.5789-.0375-.5562.1927-1.7005.3125-2.2031l-.0016-.0023z" fill="url(#T)"/><path d="m23.0395 26.1571.799.5749c.0891.0641.1099.1879.0467.2776l-1.7529 2.4867c-.061.0866-.1716.1273-.2635.0748-.1779-.1016-.3695-.2957-.3695-.5789-.0375-.5562.1927-1.7005.3125-2.2031l-.0016-.0023z" fill="url(#U)"/><path d="m23.0395 26.1571.799.5749c.0891.0641.1099.1879.0467.2776l-1.7529 2.4867c-.061.0866-.1716.1273-.2635.0748-.1779-.1016-.3695-.2957-.3695-.5789-.0375-.5562.1927-1.7005.3125-2.2031l-.0016-.0023z" fill="url(#V)"/><path d="m23.8299 8.35038c.009-.01308.0178-.02659.0263-.04052.1313-.21576.1434-.44803.0272-.51878-.1163-.07074-.317.04682-.4483.26258-.0053.00871-.0104.01745-.0153.02621z" fill="url(#W)"/><path d="m23.6723 8.24632c.0189-.02075.0369-.04468.0531-.07125.0729-.11997.0811-.2483.0181-.28663s-.1733.02785-.2463.14782c-.0144.02364-.0262.04761-.0355.07114z" fill="#414141"/><circle cx="23.7637" cy="7.88647" fill="#dfdfdf" r=".072266"/><path d="m22.6243 12.9062-1.25 2.8203 3.3906 2.2578c.5625-.7265 1.2656-2.8515 1.2422-4.2422-.0178-1.0547-.4358-1.4039-1.1016-1.7656-.3164-.1719-1.0258-.2799-1.3984-.1601-.3727.1197-.7305.664-.8828 1.0898z" fill="url(#X)"/><path d="m22.6243 12.9062-1.25 2.8203 3.3906 2.2578c.5625-.7265 1.2656-2.8515 1.2422-4.2422-.0178-1.0547-.4358-1.4039-1.1016-1.7656-.3164-.1719-1.0258-.2799-1.3984-.1601-.3727.1197-.7305.664-.8828 1.0898z" fill="url(#Y)"/><path d="m22.6243 12.9062-1.25 2.8203 3.3906 2.2578c.5625-.7265 1.2656-2.8515 1.2422-4.2422-.0178-1.0547-.4358-1.4039-1.1016-1.7656-.3164-.1719-1.0258-.2799-1.3984-.1601-.3727.1197-.7305.664-.8828 1.0898z" fill="url(#Z)"/><path d="m22.6243 12.9062-1.25 2.8203 3.3906 2.2578c.5625-.7265 1.2656-2.8515 1.2422-4.2422-.0178-1.0547-.4358-1.4039-1.1016-1.7656-.3164-.1719-1.0258-.2799-1.3984-.1601-.3727.1197-.7305.664-.8828 1.0898z" fill="url(#aa)"/><path d="m22.6243 12.9062-1.25 2.8203 3.3906 2.2578c.5625-.7265 1.2656-2.8515 1.2422-4.2422-.0178-1.0547-.4358-1.4039-1.1016-1.7656-.3164-.1719-1.0258-.2799-1.3984-.1601-.3727.1197-.7305.664-.8828 1.0898z" fill="url(#ab)"/><g filter="url(#f)"><path d="m19.4642 20.6661.9686-1.17 4.0586-.9883c-.7656 1.3945-2 3.0524-2.1875 3.2774-.2344.2812-.5547.3398-.8906.1757-.8125-.4-1.6092-.9472-1.9491-1.2948z" fill="#67636c"/><path d="m19.4642 20.6661.9686-1.17 4.0586-.9883c-.7656 1.3945-2 3.0524-2.1875 3.2774-.2344.2812-.5547.3398-.8906.1757-.8125-.4-1.6092-.9472-1.9491-1.2948z" fill="url(#ac)"/><path d="m19.4642 20.6661.9686-1.17 4.0586-.9883c-.7656 1.3945-2 3.0524-2.1875 3.2774-.2344.2812-.5547.3398-.8906.1757-.8125-.4-1.6092-.9472-1.9491-1.2948z" fill="url(#ad)"/><path d="m19.4642 20.6661.9686-1.17 4.0586-.9883c-.7656 1.3945-2 3.0524-2.1875 3.2774-.2344.2812-.5547.3398-.8906.1757-.8125-.4-1.6092-.9472-1.9491-1.2948z" fill="url(#ae)"/></g><g filter="url(#g)"><path d="m18.425 15.3633.7969.3203-.8359 2.25-.8338-.5194c-.0741-.0461-.1669-.0503-.2449-.0109l-6.0364 3.0479c-.0999.0504-.2217.0091-.2703-.0916l-1.33047-2.7583c-.04619-.0957-.02958-.2149.06011-.272.24102-.1533.50606-.0975.90576.1121.3812.2 1.1432.8946 1.4922 1.2149 1.0989-.7656 3.3069-2.3926 4.0507-2.9453.836-.6211 1.8451-.5169 2.2461-.3477z" fill="#ffbd32"/><path d="m18.425 15.3633.7969.3203-.8359 2.25-.8338-.5194c-.0741-.0461-.1669-.0503-.2449-.0109l-6.0364 3.0479c-.0999.0504-.2217.0091-.2703-.0916l-1.33047-2.7583c-.04619-.0957-.02958-.2149.06011-.272.24102-.1533.50606-.0975.90576.1121.3812.2 1.1432.8946 1.4922 1.2149 1.0989-.7656 3.3069-2.3926 4.0507-2.9453.836-.6211 1.8451-.5169 2.2461-.3477z" fill="url(#af)"/></g><g filter="url(#h)"><path d="m21.0931 16.3828.1953-.4375 3.5157 2.0234c-.0339.1068-.2391.4985-.7891 1.211-.8595 1.0781-1.8478 1.0234-2.9532.7656-1.1055-.2578-1.7225-.4922-2.0624-.6016-.34-.1093-.7242-.3055-.836-.6406-.0899-.2695.0339-.7786.1016-.9531l.782-2.1371c.0039-.0105.0156-.0159.026-.0118z" fill="#a7959b"/><path d="m21.0931 16.3828.1953-.4375 3.5157 2.0234c-.0339.1068-.2391.4985-.7891 1.211-.8595 1.0781-1.8478 1.0234-2.9532.7656-1.1055-.2578-1.7225-.4922-2.0624-.6016-.34-.1093-.7242-.3055-.836-.6406-.0899-.2695.0339-.7786.1016-.9531l.782-2.1371c.0039-.0105.0156-.0159.026-.0118z" fill="url(#ag)"/><path d="m21.0931 16.3828.1953-.4375 3.5157 2.0234c-.0339.1068-.2391.4985-.7891 1.211-.8595 1.0781-1.8478 1.0234-2.9532.7656-1.1055-.2578-1.7225-.4922-2.0624-.6016-.34-.1093-.7242-.3055-.836-.6406-.0899-.2695.0339-.7786.1016-.9531l.782-2.1371c.0039-.0105.0156-.0159.026-.0118z" fill="url(#ah)"/><path d="m21.0931 16.3828.1953-.4375 3.5157 2.0234c-.0339.1068-.2391.4985-.7891 1.211-.8595 1.0781-1.8478 1.0234-2.9532.7656-1.1055-.2578-1.7225-.4922-2.0624-.6016-.34-.1093-.7242-.3055-.836-.6406-.0899-.2695.0339-.7786.1016-.9531l.782-2.1371c.0039-.0105.0156-.0159.026-.0118z" fill="url(#ai)"/></g><g filter="url(#i)"><path d="m21.0931 16.3828.1953-.4375 3.5157 2.0234c-.0339.1068-.2391.4985-.7891 1.211-.8595 1.0781-1.8478 1.0234-2.9532.7656-1.1055-.2578-1.7225-.4922-2.0624-.6016-.34-.1093-.7242-.3055-.836-.6406-.0899-.2695.0339-.7786.1016-.9531l.782-2.1371c.0039-.0105.0156-.0159.026-.0118z" fill="#a7959b"/><path d="m21.0931 16.3828.1953-.4375 3.5157 2.0234c-.0339.1068-.2391.4985-.7891 1.211-.8595 1.0781-1.8478 1.0234-2.9532.7656-1.1055-.2578-1.7225-.4922-2.0624-.6016-.34-.1093-.7242-.3055-.836-.6406-.0899-.2695.0339-.7786.1016-.9531l.782-2.1371c.0039-.0105.0156-.0159.026-.0118z" fill="url(#ag)"/><path d="m21.0931 16.3828.1953-.4375 3.5157 2.0234c-.0339.1068-.2391.4985-.7891 1.211-.8595 1.0781-1.8478 1.0234-2.9532.7656-1.1055-.2578-1.7225-.4922-2.0624-.6016-.34-.1093-.7242-.3055-.836-.6406-.0899-.2695.0339-.7786.1016-.9531l.782-2.1371c.0039-.0105.0156-.0159.026-.0118z" fill="url(#ah)"/><path d="m21.0931 16.3828.1953-.4375 3.5157 2.0234c-.0339.1068-.2391.4985-.7891 1.211-.8595 1.0781-1.8478 1.0234-2.9532.7656-1.1055-.2578-1.7225-.4922-2.0624-.6016-.34-.1093-.7242-.3055-.836-.6406-.0899-.2695.0339-.7786.1016-.9531l.782-2.1371c.0039-.0105.0156-.0159.026-.0118z" fill="url(#ai)"/></g><g filter="url(#j)"><path d="m12.1399 20.0124-.9095.4543c-.0998.0504-.2216.0091-.2702-.0916l-1.32031-2.7579c-.04618-.0957.00062-.2308.09031-.2879.24102-.1533.5061-.0975.9057.1122.3813.2 1.1433.8945 1.4922 1.2148.0039-.0027.0078-.0055.0118-.0082z" fill="#5c5089"/><path d="m12.1399 20.0124-.9095.4543c-.0998.0504-.2216.0091-.2702-.0916l-1.32031-2.7579c-.04618-.0957.00062-.2308.09031-.2879.24102-.1533.5061-.0975.9057.1122.3813.2 1.1433.8945 1.4922 1.2148.0039-.0027.0078-.0055.0118-.0082z" fill="url(#aj)"/></g><path clip-rule="evenodd" d="m21.0717 15.7503c.0689-.1197.2218-.1608.3414-.0919l3.6289 2.0898c.1197.0689.1608.2218.0919.3414-.0689.1197-.2217.1608-.3414.0919l-3.6289-2.0898c-.1196-.0689-.1608-.2218-.0919-.3414z" fill="url(#ak)" fill-rule="evenodd"/><path clip-rule="evenodd" d="m21.0717 15.7503c.0689-.1197.2218-.1608.3414-.0919l3.6289 2.0898c.1197.0689.1608.2218.0919.3414-.0689.1197-.2217.1608-.3414.0919l-3.6289-2.0898c-.1196-.0689-.1608-.2218-.0919-.3414z" fill="url(#al)" fill-rule="evenodd"/><path clip-rule="evenodd" d="m21.0717 15.7503c.0689-.1197.2218-.1608.3414-.0919l3.6289 2.0898c.1197.0689.1608.2218.0919.3414-.0689.1197-.2217.1608-.3414.0919l-3.6289-2.0898c-.1196-.0689-.1608-.2218-.0919-.3414z" fill="url(#am)" fill-rule="evenodd"/><path d="m20.4836 6.88278c.0031.39375-.1654.70834-.25.81641l-.2812-.69531c-.013.0039-.0852.02343-.2695.07031-.3164.07812-.4376-.09375-.4571-.19141-.0195-.09765-.043-.38672.3711-.46875s.8828-.02343.8867.46875z" fill="#ffc63b"/><path d="m20.4836 6.88278c.0031.39375-.1654.70834-.25.81641l-.2812-.69531c-.013.0039-.0852.02343-.2695.07031-.3164.07812-.4376-.09375-.4571-.19141-.0195-.09765-.043-.38672.3711-.46875s.8828-.02343.8867.46875z" fill="url(#an)"/><path d="m16.7799 9.96997.0788.64333.3398 1.1485.6914-.3672c-.1758-.1836-.3099-.3355-.4414-.875-.0377-.1549-.0637-.3936-.0797-.59727-.0127-.16163-.1496-.28745-.3116-.28018-.1703.00764-.298.15864-.2773.32782z" fill="#fdbe2c"/><path d="m14.9652 11.2022c-.0963-.0842-.1062-.2306-.022-.3269.0842-.0964.2306-.1063.327-.022l1.2449 1.0878-.3049.349z" fill="#ffc22a"/><path d="m14.9652 11.2022c-.0963-.0842-.1062-.2306-.022-.3269.0842-.0964.2306-.1063.327-.022l1.2449 1.0878-.3049.349z" fill="url(#ao)"/><path d="m15.0401 10.6691c-.1161-.1014-.128-.2778-.0266-.3939.1015-.1161.2779-.128.394-.0265l1.5001 1.3108-.3675.4204z" fill="#ffbe3a"/><path d="m15.0401 10.6691c-.1161-.1014-.128-.2778-.0266-.3939.1015-.1161.2779-.128.394-.0265l1.5001 1.3108-.3675.4204z" fill="url(#aq)"/><path d="m15.1924 10.1535c-.1161-.1015-.128-.27784-.0265-.39395s.2778-.12799.394-.02652l1.7539 1.50617-.3674.4204z" fill="#ffbe3a"/><path d="m15.1924 10.1535c-.1161-.1015-.128-.27784-.0265-.39395s.2778-.12799.394-.02652l1.7539 1.50617-.3674.4204z" fill="url(#ar)"/><g filter="url(#k)"><path d="m25.161 10.2433.4883-1.3672 1.6632 1.1708c-.1825.2756-.7951 1.0206-1.0256 1.1026-.3181.1132-.7852.1914-1.0352-.1172-.2-.2468-.1493-.6497-.0907-.789z" fill="url(#as)"/></g><circle cx="25.4485" cy="9.29883" fill="url(#at)" r=".558594"/><path clip-rule="evenodd" d="m25.7139 8.44845c.1061.0883.1206.24593.0322.35207l-1.9921 2.39458c-.0883.1061-.246.1206-.3521.0322-.1062-.0883-.1206-.2459-.0323-.352l1.9922-2.39456c.0883-.10614.2459-.1206.3521-.03229z" fill="#4d3771" fill-rule="evenodd"/><path clip-rule="evenodd" d="m25.7139 8.44845c.1061.0883.1206.24593.0322.35207l-1.9921 2.39458c-.0883.1061-.246.1206-.3521.0322-.1062-.0883-.1206-.2459-.0323-.352l1.9922-2.39456c.0883-.10614.2459-.1206.3521-.03229z" fill="url(#au)" fill-rule="evenodd"/><path clip-rule="evenodd" d="m25.7139 8.44845c.1061.0883.1206.24593.0322.35207l-1.9921 2.39458c-.0883.1061-.246.1206-.3521.0322-.1062-.0883-.1206-.2459-.0323-.352l1.9922-2.39456c.0883-.10614.2459-.1206.3521-.03229z" fill="url(#av)" fill-rule="evenodd"/><path clip-rule="evenodd" d="m25.7139 8.44845c.1061.0883.1206.24593.0322.35207l-1.9921 2.39458c-.0883.1061-.246.1206-.3521.0322-.1062-.0883-.1206-.2459-.0323-.352l1.9922-2.39456c.0883-.10614.2459-.1206.3521-.03229z" fill="url(#aw)" fill-rule="evenodd"/><g filter="url(#l)"><path d="m27.1102 10.0139-3.6286-2.69548c-.0916-.0681-.1247-.18952-.0681-.28866.1236-.21626.3502-.54479.6545-.86613.9063-.95703 1.9089-.4915 2.0547-.4375.2109.07813.7539.3125 1.5 1.02344.8755.83426.7422 1.70312.4766 2.22656-.1671.3292-.4577.74192-.6636 1.00019-.0797.09998-.2229.11388-.3255.03758z" fill="url(#ax)"/></g><g filter="url(#m)"><path d="m25.111 7.39584c.1017-.13212.2912-.15678.4234-.0551l.984.75741c.1321.10169.1568.29123.0551.42335s-.2912.15679-.4233.0551l-.9841-.75741c-.1321-.10169-.1568-.29123-.0551-.42335z" fill="url(#ay)"/></g><path d="m15.7647 9.92304c-.1161-.10146-.128-.27784-.0265-.39396.1014-.11611.2778-.12799.3939-.02652l1.41 1.41934-.2265.5117z" fill="#ffbe3a"/><path d="m15.7647 9.92304c-.1161-.10146-.128-.27784-.0265-.39396.1014-.11611.2778-.12799.3939-.02652l1.41 1.41934-.2265.5117z" fill="url(#az)"/><g filter="url(#n)"><path clip-rule="evenodd" d="m18.2641 14.1972-2.6555-2.4355 1.2593-1.3718 2.5897 2.5274c.1557.1455.3749.2016.5814.1488l1.6498-.4216.4334 1.6954-1.6498.4217c-.7843.2005-1.6165-.0123-2.2083-.5644z" fill="#ffc22a" fill-rule="evenodd"/></g><path d="m21.0951 16.3784c.6542.3013 1.4786.9887 2.0214 2.231.1945.4452.1429.8983-.0416 1.3219-.6188.2641-1.291.1824-2.0131.014-.9058-.2112-1.4836-.4067-1.8498-.5306-.0808-.0274-.1512-.0512-.2126-.071-.34-.1093-.7241-.3055-.836-.6406-.0899-.2695.0339-.7786.1016-.9531l.782-2.1371c.0039-.0105.0156-.0159.026-.0118l2.0201.7817z" fill="url(#aA)"/><path d="m21.0951 16.3784c.6542.3013 1.4786.9887 2.0214 2.231.1945.4452.1429.8983-.0416 1.3219-.6188.2641-1.291.1824-2.0131.014-.9058-.2112-1.4836-.4067-1.8498-.5306-.0808-.0274-.1512-.0512-.2126-.071-.34-.1093-.7241-.3055-.836-.6406-.0899-.2695.0339-.7786.1016-.9531l.782-2.1371c.0039-.0105.0156-.0159.026-.0118l2.0201.7817z" fill="url(#aB)"/><path d="m21.0951 16.3784c.6542.3013 1.4786.9887 2.0214 2.231.1945.4452.1429.8983-.0416 1.3219-.6188.2641-1.291.1824-2.0131.014-.9058-.2112-1.4836-.4067-1.8498-.5306-.0808-.0274-.1512-.0512-.2126-.071-.34-.1093-.7241-.3055-.836-.6406-.0899-.2695.0339-.7786.1016-.9531l.782-2.1371c.0039-.0105.0156-.0159.026-.0118l2.0201.7817z" fill="url(#aC)"/><path d="m21.5199 14.9921-.5469-2.1562c.6406-.1537 1.8492-.4787 2.0899-.5352.4492-.1054 1.2657-.1536 1.4648.8164.1836.8946-.5182 1.1797-.8594 1.2813z" fill="url(#aD)"/><path d="m21.5199 14.9921-.5469-2.1562c.6406-.1537 1.8492-.4787 2.0899-.5352.4492-.1054 1.2657-.1536 1.4648.8164.1836.8946-.5182 1.1797-.8594 1.2813z" fill="url(#aE)"/><path d="m21.5199 14.9921-.5469-2.1562c.6406-.1537 1.8492-.4787 2.0899-.5352.4492-.1054 1.2657-.1536 1.4648.8164.1836.8946-.5182 1.1797-.8594 1.2813z" fill="url(#aF)"/></svg>