<svg enable-background="new 0 0 128 128" viewBox="0 0 32 32" xmlns="http://www.w3.org/2000/svg"><path d="m0 0h9.6875v6.8125h-9.6875z" fill="#d6a089" transform="matrix(-1 0 0 1 25 16)"/><path d="m30 12.63v7.74c0 3.11-2.52 5.62-5.62 5.62h-2.55c.37 1.06.14 2.28-.71 3.12-1.17 1.17-3.07 1.17-4.24 0l-2.48-2.48c-.41-.41-.97-.64-1.55-.64-3.39999 0-6.23-2.48-6.76-5.74-.02-.15-.15-.26-.31-.26h-1.81125c-1.125 0-1.96875-.4275-1.96875-1.9275v-7.1563c0-1.9062.94-2.9062 2.9375-2.9062h20.4325c2.56 0 4.63 2.07 4.63 4.63zm-11.5938 9.2919c.5601-1.2 1.1563-1.8281 2.1038-2.1094s2.0469-.2656 2.8181-.4219c.7713-.1562.6619-1.4006.6619-1.4006 0-.54-.44-.98-.98-.98h-6.19c-.47 0-.83.41-.77.88.16 1.12 1.6762 3.1219 2.3562 4.0319z" fill="#eebfaa"/><path clip-rule="evenodd" d="m23.9688 18c0-.8786.7032-2.2336 1.6264-3.2146.16-.17.0438-.462-.1882-.4359-1.9704.2222-2.9931 1.4253-3.7664 3.1193zm-4.0782 5.5313c1.2049.9268 1.692 1.4947 1.9596 2.4587h2.5298c2.5223 0 4.6606-1.6616 5.37-3.9561v-.3464c-.8542.8333-3.25 2.5-6 2.5-2.6267 0-4.5881-1.4207-5.3397-2.2743l-.0041.0087-.0579-.0775-.0316-.0422-.0042-.0053s.4127.8379 1.5781 1.7344z" fill="#d6a089" fill-rule="evenodd"/></svg>