<svg fill="none" height="32" viewBox="0 0 32 32" width="32" xmlns="http://www.w3.org/2000/svg" xmlns:xlink="http://www.w3.org/1999/xlink"><linearGradient id="a"><stop offset="0" stop-color="#fff478"/><stop offset=".474827" stop-color="#ffb02e"/><stop offset="1" stop-color="#f70a8d"/></linearGradient><radialGradient id="b" cx="0" cy="0" gradientTransform="matrix(-25.50001559 27.49994029 -27.49994029 -25.50001559 25.5 9)" gradientUnits="userSpaceOnUse" r="1" xlink:href="#a"/><radialGradient id="c" cx="0" cy="0" gradientTransform="matrix(-26.00007659 28.99995257 -28.99995257 -26.00007659 25.5 9)" gradientUnits="userSpaceOnUse" r="1" xlink:href="#a"/><radialGradient id="d" cx="0" cy="0" gradientTransform="matrix(-3.50002684 17.50002696 -22.41420586 -4.48286864 16 12.5)" gradientUnits="userSpaceOnUse" r="1"><stop offset=".787821" stop-color="#f59639" stop-opacity="0"/><stop offset=".972509" stop-color="#ff7dce"/></radialGradient><radialGradient id="e" cx="0" cy="0" gradientTransform="matrix(-29.00000473 29.00000473 -29.00000473 -29.00000473 18 14)" gradientUnits="userSpaceOnUse" r="1"><stop offset=".314853" stop-opacity="0"/><stop offset="1"/></radialGradient><radialGradient id="f" cx="0" cy="0" gradientTransform="matrix(5.99998476 27.49996659 -27.49996659 5.99998476 16 17)" gradientUnits="userSpaceOnUse" r="1"><stop offset=".507903" stop-color="#7d6133" stop-opacity="0"/><stop offset="1" stop-color="#715b32"/></radialGradient><radialGradient id="g" cx="0" cy="0" gradientTransform="matrix(7.49998923 10.99997471 -7.97335607 5.43638383 16.5 16.5)" gradientUnits="userSpaceOnUse" r="1"><stop offset="0" stop-color="#ffb849"/><stop offset="1" stop-color="#ffb847" stop-opacity="0"/></radialGradient><radialGradient id="h" cx="0" cy="0" gradientTransform="matrix(11.49998262 1.99999761 -1.99999761 11.49998262 20.5 18)" gradientUnits="userSpaceOnUse" r="1"><stop offset="0" stop-color="#ffa64b"/><stop offset=".900412" stop-color="#ffae46" stop-opacity="0"/></radialGradient><radialGradient id="i" cx="0" cy="0" gradientTransform="matrix(42.50000186 40.99993707 -40.99993707 42.50000186 17.5 15)" gradientUnits="userSpaceOnUse" r="1"><stop offset=".185425" stop-opacity="0"/><stop offset="1" stop-opacity=".4"/></radialGradient><linearGradient id="j"><stop offset="0" stop-color="#392108"/><stop offset="1" stop-color="#c87928" stop-opacity="0"/></linearGradient><radialGradient id="k" cx="0" cy="0" gradientTransform="matrix(-6.88888882 6.88888882 -3.56545866 -3.56545866 12.8889 9.11111)" gradientUnits="userSpaceOnUse" r="1" xlink:href="#j"/><radialGradient id="l" cx="0" cy="0" gradientTransform="matrix(-5.75000143 5.75000143 -3.24596661 -3.24596661 23 10)" gradientUnits="userSpaceOnUse" r="1" xlink:href="#j"/><linearGradient id="m" gradientUnits="userSpaceOnUse" x1="20.6154" x2="19.9265" y1="10" y2="14.0302"><stop offset="0" stop-color="#553b3e"/><stop offset="1" stop-color="#3d2432"/></linearGradient><radialGradient id="n" cx="0" cy="0" gradientTransform="matrix(0 -7.5 20 0 16 25)" gradientUnits="userSpaceOnUse" r="1"><stop offset="0" stop-color="#f70a8d"/><stop offset="1" stop-color="#89029c"/></radialGradient><linearGradient id="o"><stop offset="0" stop-color="#fff"/><stop offset="1" stop-color="#eccdff"/></linearGradient><radialGradient id="p" cx="0" cy="0" gradientTransform="matrix(-6.61108127 5.25003102 -5.15366976 -6.48973874 20.2778 18)" gradientUnits="userSpaceOnUse" r="1" xlink:href="#o"/><linearGradient id="q" gradientUnits="userSpaceOnUse" x1="16" x2="16" y1="21" y2="21.75"><stop offset="0" stop-color="#e181f4" stop-opacity="0"/><stop offset="1" stop-color="#e181f4"/></linearGradient><radialGradient id="r" cx="0" cy="0" gradientTransform="matrix(-6.61108127 5.25003102 -5.15366976 -6.48973874 20.2778 21.5)" gradientUnits="userSpaceOnUse" r="1" xlink:href="#o"/><path d="m15.9989 29.9978c9.3344 0 13.9989-6.2675 13.9989-13.9989 0-7.73139-4.6645-13.9989-13.9989-13.9989-9.33447 0-13.9989 6.26751-13.9989 13.9989 0 7.7314 4.66443 13.9989 13.9989 13.9989z" fill="url(#b)"/><path d="m15.9989 29.9978c9.3344 0 13.9989-6.2675 13.9989-13.9989 0-7.73139-4.6645-13.9989-13.9989-13.9989-9.33447 0-13.9989 6.26751-13.9989 13.9989 0 7.7314 4.66443 13.9989 13.9989 13.9989z" fill="url(#c)"/><path d="m15.9989 29.9978c9.3344 0 13.9989-6.2675 13.9989-13.9989 0-7.73139-4.6645-13.9989-13.9989-13.9989-9.33447 0-13.9989 6.26751-13.9989 13.9989 0 7.7314 4.66443 13.9989 13.9989 13.9989z" fill="url(#d)"/><path d="m15.9989 29.9978c9.3344 0 13.9989-6.2675 13.9989-13.9989 0-7.73139-4.6645-13.9989-13.9989-13.9989-9.33447 0-13.9989 6.26751-13.9989 13.9989 0 7.7314 4.66443 13.9989 13.9989 13.9989z" fill="url(#e)" fill-opacity=".6"/><path d="m15.9989 29.9978c9.3344 0 13.9989-6.2675 13.9989-13.9989 0-7.73139-4.6645-13.9989-13.9989-13.9989-9.33447 0-13.9989 6.26751-13.9989 13.9989 0 7.7314 4.66443 13.9989 13.9989 13.9989z" fill="url(#f)"/><path d="m15.9989 29.9978c9.3344 0 13.9989-6.2675 13.9989-13.9989 0-7.73139-4.6645-13.9989-13.9989-13.9989-9.33447 0-13.9989 6.26751-13.9989 13.9989 0 7.7314 4.66443 13.9989 13.9989 13.9989z" fill="url(#g)"/><path d="m15.9989 29.9978c9.3344 0 13.9989-6.2675 13.9989-13.9989 0-7.73139-4.6645-13.9989-13.9989-13.9989-9.33447 0-13.9989 6.26751-13.9989 13.9989 0 7.7314 4.66443 13.9989 13.9989 13.9989z" fill="url(#h)"/><path d="m15.9989 29.9978c9.3344 0 13.9989-6.2675 13.9989-13.9989 0-7.73139-4.6645-13.9989-13.9989-13.9989-9.33447 0-13.9989 6.26751-13.9989 13.9989 0 7.7314 4.66443 13.9989 13.9989 13.9989z" fill="url(#i)"/><circle cx="9" cy="13" fill="url(#k)" r="5"/><circle cx="19.5" cy="13.5" fill="url(#l)" r="4.5"/><path d="m10.5 16c2.4853 0 4.5-2.0147 4.5-4.5 0-2.48528-2.0147-4.5-4.5-4.5-2.48528 0-4.5 2.01472-4.5 4.5 0 2.4853 2.01472 4.5 4.5 4.5z" fill="#fff"/><path d="m21.5 16c2.4853 0 4.5-2.0147 4.5-4.5 0-2.48528-2.0147-4.5-4.5-4.5s-4.5 2.01472-4.5 4.5c0 2.4853 2.0147 4.5 4.5 4.5z" fill="#fff"/><path d="m12 14c1.1046 0 2-.8954 2-2s-.8954-2-2-2-2 .8954-2 2 .8954 2 2 2z" fill="url(#m)"/><path d="m20 14c1.1046 0 2-.8954 2-2s-.8954-2-2-2-2 .8954-2 2 .8954 2 2 2z" fill="url(#m)"/><rect fill="url(#n)" height="6" rx="3" width="16" x="8" y="19"/><g clip-rule="evenodd" fill-rule="evenodd"><path d="m23 19.7639v.7361c0 .5523-.4477 1-1 1h-12c-.55228 0-1-.4477-1-1v-.7361c.53076-.475 1.2316-.7639 2-.7639h10c.7684 0 1.4692.2889 2 .7639z" fill="url(#p)"/><path d="m23 19.7639v.7361c0 .5523-.4477 1-1 1h-12c-.55228 0-1-.4477-1-1v-.7361c.53076-.475 1.2316-.7639 2-.7639h10c.7684 0 1.4692.2889 2 .7639z" fill="url(#q)"/><path d="m23 24.2361c-.5308.475-1.2316.7639-2 .7639h-10c-.7684 0-1.46924-.2889-2-.7639v-.7361c0-.5523.44772-1 1-1h12c.5523 0 1 .4477 1 1z" fill="url(#r)"/></g></svg>