<svg enable-background="new 0 0 128 128" viewBox="0 0 128 128" xmlns="http://www.w3.org/2000/svg"><g transform="scale(4)"><path d="m16 5.27576c-.123 0-.3633.12654-.5.2242-.0708.0506-.2024.12356-.2656.19398l-3.4904 3.97762c-.3973.44244-1.0907.44244-1.488 0l-2.97351-3.3109c-.36995-.41192-1.00708-.44719-1.39022-.04751-2.41085 2.51495-3.89227 5.92785-3.89227 9.68685 0 7.732 6.26801 14 14 14 7.732 0 14-6.268 14-14 0-3.759-1.4814-7.1719-3.8923-9.68684-.3831-.39969-1.0202-.36442-1.3902.0475l-2.9735 3.3109c-.3973.44244-1.0907.44244-1.488 0l-3.486-3.97762c-.0632-.07042-.1943-.15106-.27-.19398-.1172-.06641-.377-.2242-.5-.2242z" fill="#f92f60"/><path d="m6 17c0-.5523.44772-1 1-1h18c.5523 0 1 .4477 1 1v2c0 .5523-.4477 1-1 1h-18c-.55228 0-1-.4477-1-1z" fill="#fff"/></g></svg>