<svg fill="none" height="32" viewBox="0 0 32 32" width="32" xmlns="http://www.w3.org/2000/svg" xmlns:xlink="http://www.w3.org/1999/xlink"><filter id="a" color-interpolation-filters="sRGB" filterUnits="userSpaceOnUse" height="3.84736" width="7.87915" x="21.4397" y="13.5555"><feFlood flood-opacity="0" result="BackgroundImageFix"/><feBlend in="SourceGraphic" in2="BackgroundImageFix" mode="normal" result="shape"/><feColorMatrix in="SourceAlpha" result="hardAlpha" type="matrix" values="0 0 0 0 0 0 0 0 0 0 0 0 0 0 0 0 0 0 127 0"/><feOffset dy="-.3"/><feGaussianBlur stdDeviation=".3"/><feComposite in2="hardAlpha" k2="-1" k3="1" operator="arithmetic"/><feColorMatrix type="matrix" values="0 0 0 0 0.819608 0 0 0 0 0.545098 0 0 0 0 0.494118 0 0 0 1 0"/><feBlend in2="shape" mode="normal" result="effect1_innerShadow_4002_3798"/></filter><filter id="b" color-interpolation-filters="sRGB" filterUnits="userSpaceOnUse" height="15.7754" width="13.6483" x="6.17419" y="5.48236"><feFlood flood-opacity="0" result="BackgroundImageFix"/><feBlend in="SourceGraphic" in2="BackgroundImageFix" mode="normal" result="shape"/><feColorMatrix in="SourceAlpha" result="hardAlpha" type="matrix" values="0 0 0 0 0 0 0 0 0 0 0 0 0 0 0 0 0 0 127 0"/><feOffset dx=".75"/><feGaussianBlur stdDeviation=".6"/><feComposite in2="hardAlpha" k2="-1" k3="1" operator="arithmetic"/><feColorMatrix type="matrix" values="0 0 0 0 0.843137 0 0 0 0 0.611765 0 0 0 0 0.498039 0 0 0 1 0"/><feBlend in2="shape" mode="normal" result="effect1_innerShadow_4002_3798"/><feColorMatrix in="SourceAlpha" result="hardAlpha" type="matrix" values="0 0 0 0 0 0 0 0 0 0 0 0 0 0 0 0 0 0 127 0"/><feOffset dy=".2"/><feGaussianBlur stdDeviation=".375"/><feComposite in2="hardAlpha" k2="-1" k3="1" operator="arithmetic"/><feColorMatrix type="matrix" values="0 0 0 0 0.776471 0 0 0 0 0.54902 0 0 0 0 0.423529 0 0 0 1 0"/><feBlend in2="effect1_innerShadow_4002_3798" mode="normal" result="effect2_innerShadow_4002_3798"/></filter><filter id="c" color-interpolation-filters="sRGB" filterUnits="userSpaceOnUse" height="5.56342" width="4.21399" x="10.1179" y="11.3264"><feFlood flood-opacity="0" result="BackgroundImageFix"/><feBlend in="SourceGraphic" in2="BackgroundImageFix" mode="normal" result="shape"/><feGaussianBlur result="effect1_foregroundBlur_4002_3798" stdDeviation=".5"/></filter><filter id="d" color-interpolation-filters="sRGB" filterUnits="userSpaceOnUse" height="3.85991" width="2.56914" x="11.2794" y="11.8827"><feFlood flood-opacity="0" result="BackgroundImageFix"/><feBlend in="SourceGraphic" in2="BackgroundImageFix" mode="normal" result="shape"/><feGaussianBlur result="effect1_foregroundBlur_4002_3798" stdDeviation=".05"/></filter><filter id="e" color-interpolation-filters="sRGB" filterUnits="userSpaceOnUse" height="1.85393" width="4.56163" x="10.2832" y="16.2386"><feFlood flood-opacity="0" result="BackgroundImageFix"/><feBlend in="SourceGraphic" in2="BackgroundImageFix" mode="normal" result="shape"/><feGaussianBlur result="effect1_foregroundBlur_4002_3798" stdDeviation=".05"/></filter><filter id="f" color-interpolation-filters="sRGB" filterUnits="userSpaceOnUse" height="10.4151" width="16.2455" x="4.44116" y="1.60468"><feFlood flood-opacity="0" result="BackgroundImageFix"/><feBlend in="SourceGraphic" in2="BackgroundImageFix" mode="normal" result="shape"/><feColorMatrix in="SourceAlpha" result="hardAlpha" type="matrix" values="0 0 0 0 0 0 0 0 0 0 0 0 0 0 0 0 0 0 127 0"/><feOffset dy="-.5"/><feGaussianBlur stdDeviation=".625"/><feComposite in2="hardAlpha" k2="-1" k3="1" operator="arithmetic"/><feColorMatrix type="matrix" values="0 0 0 0 0.913725 0 0 0 0 0.733333 0 0 0 0 0.592157 0 0 0 1 0"/><feBlend in2="shape" mode="normal" result="effect1_innerShadow_4002_3798"/><feColorMatrix in="SourceAlpha" result="hardAlpha" type="matrix" values="0 0 0 0 0 0 0 0 0 0 0 0 0 0 0 0 0 0 127 0"/><feOffset dy="-.2"/><feGaussianBlur stdDeviation=".2"/><feComposite in2="hardAlpha" k2="-1" k3="1" operator="arithmetic"/><feColorMatrix type="matrix" values="0 0 0 0 0.87451 0 0 0 0 0.678431 0 0 0 0 0.556863 0 0 0 1 0"/><feBlend in2="effect1_innerShadow_4002_3798" mode="normal" result="effect2_innerShadow_4002_3798"/></filter><filter id="g" color-interpolation-filters="sRGB" filterUnits="userSpaceOnUse" height="1.44994" width="2.9255" x="14.5696" y="8.6736"><feFlood flood-opacity="0" result="BackgroundImageFix"/><feBlend in="SourceGraphic" in2="BackgroundImageFix" mode="normal" result="shape"/><feColorMatrix in="SourceAlpha" result="hardAlpha" type="matrix" values="0 0 0 0 0 0 0 0 0 0 0 0 0 0 0 0 0 0 127 0"/><feOffset dx=".1" dy="-.2"/><feGaussianBlur stdDeviation=".125"/><feComposite in2="hardAlpha" k2="-1" k3="1" operator="arithmetic"/><feColorMatrix type="matrix" values="0 0 0 0 0.470588 0 0 0 0 0.270588 0 0 0 0 0.160784 0 0 0 1 0"/><feBlend in2="shape" mode="normal" result="effect1_innerShadow_4002_3798"/></filter><filter id="h" color-interpolation-filters="sRGB" filterUnits="userSpaceOnUse" height="1.43132" width="2.9255" x="7.93604" y="8.69227"><feFlood flood-opacity="0" result="BackgroundImageFix"/><feBlend in="SourceGraphic" in2="BackgroundImageFix" mode="normal" result="shape"/><feColorMatrix in="SourceAlpha" result="hardAlpha" type="matrix" values="0 0 0 0 0 0 0 0 0 0 0 0 0 0 0 0 0 0 127 0"/><feOffset dx=".1" dy="-.2"/><feGaussianBlur stdDeviation=".125"/><feComposite in2="hardAlpha" k2="-1" k3="1" operator="arithmetic"/><feColorMatrix type="matrix" values="0 0 0 0 0.470588 0 0 0 0 0.270588 0 0 0 0 0.160784 0 0 0 1 0"/><feBlend in2="shape" mode="normal" result="effect1_innerShadow_4002_3798"/></filter><filter id="i" color-interpolation-filters="sRGB" filterUnits="userSpaceOnUse" height="7.93073" width="8.67853" x="4.70532" y="2.66333"><feFlood flood-opacity="0" result="BackgroundImageFix"/><feBlend in="SourceGraphic" in2="BackgroundImageFix" mode="normal" result="shape"/><feGaussianBlur result="effect1_foregroundBlur_4002_3798" stdDeviation=".25"/></filter><filter id="j" color-interpolation-filters="sRGB" filterUnits="userSpaceOnUse" height="7.67432" width="8.46082" x="12.1152" y="3.26447"><feFlood flood-opacity="0" result="BackgroundImageFix"/><feBlend in="SourceGraphic" in2="BackgroundImageFix" mode="normal" result="shape"/><feGaussianBlur result="effect1_foregroundBlur_4002_3798" stdDeviation=".25"/></filter><filter id="k" color-interpolation-filters="sRGB" filterUnits="userSpaceOnUse" height=".826343" width=".940601" x="14.4175" y="11.5849"><feFlood flood-opacity="0" result="BackgroundImageFix"/><feBlend in="SourceGraphic" in2="BackgroundImageFix" mode="normal" result="shape"/><feGaussianBlur result="effect1_foregroundBlur_4002_3798" stdDeviation=".05"/></filter><filter id="l" color-interpolation-filters="sRGB" filterUnits="userSpaceOnUse" height="1.04795" width="1.01993" x="15.5036" y="11.7058"><feFlood flood-opacity="0" result="BackgroundImageFix"/><feBlend in="SourceGraphic" in2="BackgroundImageFix" mode="normal" result="shape"/><feGaussianBlur result="effect1_foregroundBlur_4002_3798" stdDeviation=".1"/></filter><filter id="m" color-interpolation-filters="sRGB" filterUnits="userSpaceOnUse" height="1.20798" width="1.13999" x="9.8968" y="11.6258"><feFlood flood-opacity="0" result="BackgroundImageFix"/><feBlend in="SourceGraphic" in2="BackgroundImageFix" mode="normal" result="shape"/><feGaussianBlur result="effect1_foregroundBlur_4002_3798" stdDeviation=".1"/></filter><filter id="n" color-interpolation-filters="sRGB" filterUnits="userSpaceOnUse" height=".836658" width="1.09996" x="8.91788" y="11.5747"><feFlood flood-opacity="0" result="BackgroundImageFix"/><feBlend in="SourceGraphic" in2="BackgroundImageFix" mode="normal" result="shape"/><feGaussianBlur result="effect1_foregroundBlur_4002_3798" stdDeviation=".05"/></filter><filter id="o" color-interpolation-filters="sRGB" filterUnits="userSpaceOnUse" height="2.87177" width="1.54608" x="5.01611" y="11.5085"><feFlood flood-opacity="0" result="BackgroundImageFix"/><feBlend in="SourceGraphic" in2="BackgroundImageFix" mode="normal" result="shape"/><feGaussianBlur result="effect1_foregroundBlur_4002_3798" stdDeviation=".125"/></filter><filter id="p" color-interpolation-filters="sRGB" filterUnits="userSpaceOnUse" height="2.90204" width="1.69452" x="18.5759" y="11.4886"><feFlood flood-opacity="0" result="BackgroundImageFix"/><feBlend in="SourceGraphic" in2="BackgroundImageFix" mode="normal" result="shape"/><feGaussianBlur result="effect1_foregroundBlur_4002_3798" stdDeviation=".125"/></filter><filter id="q" color-interpolation-filters="sRGB" filterUnits="userSpaceOnUse" height="1.26776" width="2.83887" x="7.93188" y="8.83228"><feFlood flood-opacity="0" result="BackgroundImageFix"/><feBlend in="SourceGraphic" in2="BackgroundImageFix" mode="normal" result="shape"/><feGaussianBlur result="effect1_foregroundBlur_4002_3798" stdDeviation=".125"/></filter><filter id="r" color-interpolation-filters="sRGB" filterUnits="userSpaceOnUse" height="1.26776" width="2.83887" x="14.5941" y="8.77411"><feFlood flood-opacity="0" result="BackgroundImageFix"/><feBlend in="SourceGraphic" in2="BackgroundImageFix" mode="normal" result="shape"/><feGaussianBlur result="effect1_foregroundBlur_4002_3798" stdDeviation=".125"/></filter><linearGradient id="s" gradientUnits="userSpaceOnUse" x1="12.564" x2="12.564" y1="29.9766" y2="24.9512"><stop offset="0" stop-color="#f6563d"/><stop offset="1" stop-color="#ff732c"/></linearGradient><radialGradient id="t" cx="0" cy="0" gradientTransform="matrix(0 3.33523 -6.23448 0 12.564 19.9258)" gradientUnits="userSpaceOnUse" r="1"><stop offset=".396858" stop-color="#c95513"/><stop offset="1" stop-color="#c95513" stop-opacity="0"/></radialGradient><radialGradient id="u" cx="0" cy="0" gradientTransform="matrix(-3.89736725 -6.66767451 3.24498725 -1.89674931 21.3224 29.3652)" gradientUnits="userSpaceOnUse" r="1"><stop offset=".0854249" stop-color="#bb2c0d"/><stop offset="1" stop-color="#bb2c0d" stop-opacity="0"/></radialGradient><radialGradient id="v" cx="0" cy="0" gradientTransform="matrix(1.94312291 3.60967639 -5.81716637 3.13143563 12.3125 20.2383)" gradientUnits="userSpaceOnUse" r="1"><stop offset=".169335" stop-color="#bf7173"/><stop offset=".825613" stop-color="#e59e81"/></radialGradient><radialGradient id="w" cx="0" cy="0" gradientTransform="matrix(-1.40625963 1.59374216 -.7855036 -.69309956 24.0049 13.1828)" gradientUnits="userSpaceOnUse" r="1"><stop offset="0" stop-color="#f2c29d"/><stop offset=".83587" stop-color="#e6b086"/></radialGradient><radialGradient id="x" cx="0" cy="0" gradientTransform="matrix(1.01562784 -2.93750064 1.49476907 .51680979 23.3174 15.214)" gradientUnits="userSpaceOnUse" r="1"><stop offset=".854406" stop-color="#dfa377" stop-opacity="0"/><stop offset="1" stop-color="#dfa377"/></radialGradient><linearGradient id="y"><stop offset="0" stop-color="#f0c4a6"/><stop offset="1" stop-color="#f0c4a6" stop-opacity="0"/></linearGradient><radialGradient id="z" cx="0" cy="0" gradientTransform="matrix(-.89575218 .17999716 -.22855391 -1.13739383 29.8203 14.0524)" gradientUnits="userSpaceOnUse" r="1" xlink:href="#y"/><linearGradient id="A"><stop offset=".21654" stop-color="#c58780"/><stop offset="1" stop-color="#c58780" stop-opacity="0"/></linearGradient><linearGradient id="B" gradientUnits="userSpaceOnUse" x1="28.3047" x2="27.6937" xlink:href="#A" y1="15.3897" y2="14.1797"/><linearGradient id="C"><stop offset=".382314" stop-color="#dcb18d"/><stop offset="1" stop-color="#dcb18d" stop-opacity="0"/></linearGradient><radialGradient id="D" cx="0" cy="0" gradientTransform="matrix(.04349004 .39537028 -3.05119635 .33562629 27.3759 13.4865)" gradientUnits="userSpaceOnUse" r="1" xlink:href="#C"/><radialGradient id="E" cx="0" cy="0" gradientTransform="matrix(-.89138072 .17557677 -.2188709 -1.11117943 30.3985 14.3638)" gradientUnits="userSpaceOnUse" r="1" xlink:href="#y"/><linearGradient id="F" gradientUnits="userSpaceOnUse" x1="28.7188" x2="28.2832" xlink:href="#A" y1="15.9444" y2="14.6508"/><radialGradient id="G" cx="0" cy="0" gradientTransform="matrix(.04833949 .30468723 -2.39683247 .38026423 27.9609 13.9131)" gradientUnits="userSpaceOnUse" r="1"><stop offset=".430726" stop-color="#dcb18d"/><stop offset="1" stop-color="#dcb18d" stop-opacity="0"/></radialGradient><radialGradient id="H" cx="0" cy="0" gradientTransform="matrix(-.89428075 .1692671 -.20334726 -1.07433483 30.1171 14.8243)" gradientUnits="userSpaceOnUse" r="1" xlink:href="#y"/><linearGradient id="I" gradientUnits="userSpaceOnUse" x1="28.1227" x2="28.0053" xlink:href="#A" y1="16.2798" y2="15.097"/><radialGradient id="J" cx="0" cy="0" gradientTransform="matrix(.04339621 .28906267 -2.36233691 .35465131 27.6768 14.2922)" gradientUnits="userSpaceOnUse" r="1" xlink:href="#C"/><radialGradient id="K" cx="0" cy="0" gradientTransform="matrix(-.8849746 .16525083 -.1960221 -1.04976526 29.3188 15.5683)" gradientUnits="userSpaceOnUse" r="1"><stop offset="0" stop-color="#f0c2a7"/><stop offset="1" stop-color="#f0c2a7" stop-opacity="0"/></radialGradient><radialGradient id="L" cx="0" cy="0" gradientTransform="matrix(.03124941 .21093784 -1.74637023 .25871625 27.4971 15.1047)" gradientUnits="userSpaceOnUse" r="1"><stop offset=".382314" stop-color="#d8a983"/><stop offset="1" stop-color="#f1bf98" stop-opacity="0"/></radialGradient><linearGradient id="M" gradientUnits="userSpaceOnUse" x1="20.9375" x2="25.3793" y1="16.7022" y2="16.3585"><stop offset="0" stop-color="#e39e77"/><stop offset="1" stop-color="#e39e77" stop-opacity="0"/></linearGradient><radialGradient id="N" cx="0" cy="0" gradientTransform="matrix(0 .953125 -3.31428 0 24.2861 17.2765)" gradientUnits="userSpaceOnUse" r="1"><stop offset=".442623" stop-color="#ff7849"/><stop offset="1" stop-color="#f3632f"/></radialGradient><linearGradient id="O" gradientUnits="userSpaceOnUse" x1="23.6653" x2="23.6653" y1="18.228" y2="17.9683"><stop offset=".315789" stop-color="#f05918"/><stop offset="1" stop-color="#f05918" stop-opacity="0"/></linearGradient><linearGradient id="P" gradientUnits="userSpaceOnUse" x1="24.5361" x2="24.5361" y1="19.2922" y2="38.6047"><stop offset="0" stop-color="#ff872c"/><stop offset=".621359" stop-color="#ea6033"/></linearGradient><radialGradient id="Q" cx="0" cy="0" gradientTransform="matrix(0 10.75 -3.6875 0 25.8486 17.6047)" gradientUnits="userSpaceOnUse" r="1"><stop offset=".139535" stop-color="#ff9f3b"/><stop offset="1" stop-color="#ff9f3b" stop-opacity="0"/></radialGradient><linearGradient id="R" gradientUnits="userSpaceOnUse" x1="23.4937" x2="23.4937" y1="18.1328" y2="19.1672"><stop offset=".365545" stop-color="#ff9c1d"/><stop offset="1" stop-color="#ff9c1d" stop-opacity="0"/></linearGradient><radialGradient id="S" cx="0" cy="0" gradientTransform="matrix(-.54687629 3.56249915 -4.23197694 -.64964727 19.4531 14.2491)" gradientUnits="userSpaceOnUse" r="1"><stop offset=".28005" stop-color="#f7bf94"/><stop offset="1" stop-color="#da8f78"/></radialGradient><radialGradient id="T" cx="0" cy="0" gradientTransform="matrix(1.60763191 3.38449099 -1.53839925 .73073905 5.56234 14.6061)" gradientUnits="userSpaceOnUse" r="1"><stop offset="0" stop-color="#f8bf95"/><stop offset="1" stop-color="#dc998e"/></radialGradient><radialGradient id="U" cx="0" cy="0" gradientTransform="matrix(.22628045 1.50637947 -1.32140476 .19849452 6.57352 14.3478)" gradientUnits="userSpaceOnUse" r="1"><stop offset=".263377" stop-color="#d79b77"/><stop offset="1" stop-color="#d79b77" stop-opacity="0"/></radialGradient><radialGradient id="V" cx="0" cy="0" gradientTransform="matrix(-6.59763 0 0 -11.6711 16.1074 13.2701)" gradientUnits="userSpaceOnUse" r="1"><stop offset="0" stop-color="#ffc59f"/><stop offset="1" stop-color="#c8917d"/></radialGradient><linearGradient id="W" gradientUnits="userSpaceOnUse" x1="19.0725" x2="13.5794" y1="15.3971" y2="15.3971"><stop offset="0" stop-color="#f7c29d"/><stop offset="1" stop-color="#f7c29d" stop-opacity="0"/></linearGradient><radialGradient id="X" cx="0" cy="0" gradientTransform="matrix(-1.44246612 16.35952996 -13.54763925 -1.19453375 14.5599 5.80717)" gradientUnits="userSpaceOnUse" r="1"><stop offset=".777698" stop-color="#b36e91" stop-opacity="0"/><stop offset="1" stop-color="#b36e91"/></radialGradient><radialGradient id="Y" cx="0" cy="0" gradientTransform="matrix(0 -1.69224 2.09415 0 15.6524 11.8562)" gradientUnits="userSpaceOnUse" r="1"><stop offset=".325" stop-color="#e4a38d"/><stop offset="1" stop-color="#e4a38d" stop-opacity="0"/></radialGradient><radialGradient id="Z" cx="0" cy="0" gradientTransform="matrix(-.07327777 -1.39250328 1.51537328 -.07974356 9.73937 11.6834)" gradientUnits="userSpaceOnUse" r="1"><stop offset=".377617" stop-color="#c2847c"/><stop offset="1" stop-color="#c2847c" stop-opacity="0"/></radialGradient><radialGradient id="aa" cx="0" cy="0" gradientTransform="matrix(1.52302 0 0 7.74116 6.40435 13.7555)" gradientUnits="userSpaceOnUse" r="1"><stop offset="0" stop-color="#dba085"/><stop offset="1" stop-color="#dba085" stop-opacity="0"/></radialGradient><radialGradient id="ab" cx="0" cy="0" gradientTransform="matrix(3.29987936 -4.61136487 1.04447849 .74742578 5.17747 9.48254)" gradientUnits="userSpaceOnUse" r="1"><stop offset=".450932" stop-color="#b67459"/><stop offset="1" stop-color="#b67459" stop-opacity="0"/></radialGradient><radialGradient id="ac" cx="0" cy="0" gradientTransform="matrix(-3.04599512 -12.92677695 14.23923298 -3.35525509 12.3695 18.4091)" gradientUnits="userSpaceOnUse" r="1"><stop offset=".92388" stop-color="#c17f5f" stop-opacity="0"/><stop offset="1" stop-color="#c17f5f"/></radialGradient><radialGradient id="ad" cx="0" cy="0" gradientTransform="matrix(2.58066589 .90958071 -.54565136 1.54812414 15.0348 6.47881)" gradientUnits="userSpaceOnUse" r="1"><stop offset=".258114" stop-color="#c17f5f"/><stop offset="1" stop-color="#c17f5f" stop-opacity="0"/></radialGradient><linearGradient id="ae" gradientUnits="userSpaceOnUse" x1="12.564" x2="13.6428" y1="14.3159" y2="14.3159"><stop offset="0" stop-color="#e1aa8c"/><stop offset="1" stop-color="#fecaa8"/></linearGradient><linearGradient id="af" gradientUnits="userSpaceOnUse" x1="11.2102" x2="12.5657" y1="14.1196" y2="14.1944"><stop offset="0" stop-color="#d29879" stop-opacity=".915033"/><stop offset=".203125" stop-color="#d29879"/><stop offset="1" stop-color="#d29879" stop-opacity="0"/></linearGradient><linearGradient id="ag" gradientUnits="userSpaceOnUse" x1="12.564" x2="12.564" y1="14.8192" y2="15.8943"><stop offset="0" stop-color="#cb8685" stop-opacity="0"/><stop offset=".844655" stop-color="#cb8685"/></linearGradient><linearGradient id="ah" gradientUnits="userSpaceOnUse" x1="12.564" x2="12.564" y1="11.9827" y2="12.512"><stop offset="0" stop-color="#e0a78c"/><stop offset="1" stop-color="#e0a78c" stop-opacity="0"/></linearGradient><linearGradient id="ai" gradientUnits="userSpaceOnUse" x1="12.729" x2="12.729" y1="15.6699" y2="15.5958"><stop offset="0" stop-color="#c27b78"/><stop offset="1" stop-color="#c27b78" stop-opacity="0"/></linearGradient><radialGradient id="aj" cx="0" cy="0" gradientTransform="matrix(-2.32155241 2.3109607 -1.46885469 -1.47558682 13.8501 13.1738)" gradientUnits="userSpaceOnUse" r="1"><stop offset=".940127" stop-color="#c27b78" stop-opacity="0"/><stop offset="1" stop-color="#c27b78"/></radialGradient><radialGradient id="ak" cx="0" cy="0" gradientTransform="matrix(.43812403 -.78175057 2.27492084 1.27495588 11.142 17.4209)" gradientUnits="userSpaceOnUse" r="1"><stop offset="0" stop-color="#d0978e"/><stop offset="1" stop-color="#d0978e" stop-opacity="0"/></radialGradient><radialGradient id="al" cx="0" cy="0" gradientTransform="matrix(0 -.909581 3.65948 0 12.564 17.7367)" gradientUnits="userSpaceOnUse" r="1"><stop offset="0" stop-color="#89024e"/><stop offset="1" stop-color="#87004d"/></radialGradient><linearGradient id="am" gradientUnits="userSpaceOnUse" x1="19.3329" x2="6.55647" y1="6.12375" y2="6.12375"><stop offset="0" stop-color="#fff6b9"/><stop offset="1" stop-color="#e7c991"/></linearGradient><radialGradient id="an" cx="0" cy="0" gradientTransform="matrix(0 -4.58447 8.12277 0 5.96418 11.2736)" gradientUnits="userSpaceOnUse" r="1"><stop offset="0" stop-color="#e7b286"/><stop offset="1" stop-color="#e7b286" stop-opacity="0"/></radialGradient><radialGradient id="ao" cx="0" cy="0" gradientTransform="matrix(0 -4.58447 8.12277 0 18.6983 11.2736)" gradientUnits="userSpaceOnUse" r="1"><stop offset="0" stop-color="#f6cb9c"/><stop offset="1" stop-color="#f6cb9c" stop-opacity="0"/></radialGradient><radialGradient id="ap" cx="0" cy="0" gradientTransform="matrix(-4.10369347 -1.56532499 .83363775 -2.18548469 17.7464 3.3527)" gradientUnits="userSpaceOnUse" r="1"><stop offset="0" stop-color="#ffffc1"/><stop offset="1" stop-color="#ffffc1" stop-opacity="0"/></radialGradient><radialGradient id="aq" cx="0" cy="0" gradientTransform="matrix(1.14226246 1.86146415 -4.3102809 2.64494593 11.4217 1.34317)" gradientUnits="userSpaceOnUse" r="1"><stop offset=".286771" stop-color="#ddca94"/><stop offset="1" stop-color="#ddca94" stop-opacity="0"/></radialGradient><radialGradient id="ar" cx="0" cy="0" gradientTransform="matrix(-4.80438655 1.73347538 -.48246653 -1.33717256 12.8839 3.16333)" gradientUnits="userSpaceOnUse" r="1"><stop offset="0" stop-color="#fffcbe"/><stop offset="1" stop-color="#fffcbe" stop-opacity="0"/></radialGradient><radialGradient id="as" cx="0" cy="0" gradientTransform="matrix(4.06138018 -6.43052964 7.12436353 4.49959031 5.71036 9.16976)" gradientUnits="userSpaceOnUse" r="1"><stop offset=".0926981" stop-color="#d5a088"/><stop offset=".233498" stop-color="#e4b99b"/><stop offset="1" stop-color="#e4b99b" stop-opacity="0"/></radialGradient><radialGradient id="at" cx="0" cy="0" gradientTransform="matrix(4.27291303 1.01065656 -.56522798 2.38970399 17.1331 4.62766)" gradientUnits="userSpaceOnUse" r="1"><stop offset="0" stop-color="#ffffc7"/><stop offset="1" stop-color="#ffffc7" stop-opacity="0"/></radialGradient><radialGradient id="au" cx="0" cy="0" gradientTransform="matrix(-2.71156873 -4.67412845 2.60672764 -1.51222228 19.0369 10.4388)" gradientUnits="userSpaceOnUse" r="1"><stop offset="0" stop-color="#e3b593"/><stop offset="1" stop-color="#e4b78d" stop-opacity="0"/></radialGradient><radialGradient id="av" cx="0" cy="0" gradientTransform="matrix(-1.64991386 -2.77932411 1.99071274 -1.18176377 18.2542 10.06)" gradientUnits="userSpaceOnUse" r="1"><stop offset=".0574152" stop-color="#dfb086"/><stop offset="1" stop-color="#dfb086" stop-opacity="0"/></radialGradient><radialGradient id="aw" cx="0" cy="0" gradientTransform="matrix(-6.05569114 1.4528368 -1.57057259 -6.54643556 18.6138 4.48027)" gradientUnits="userSpaceOnUse" r="1"><stop offset=".651546" stop-color="#ebcd93" stop-opacity="0"/><stop offset="1" stop-color="#ebcd93"/></radialGradient><radialGradient id="ax" cx="0" cy="0" gradientTransform="matrix(-.14807569 .4842733 -2.21403227 -.6769821 16.9216 4.32236)" gradientUnits="userSpaceOnUse" r="1"><stop offset=".461072" stop-color="#ffed93"/><stop offset="1" stop-color="#ffed93" stop-opacity="0"/></radialGradient><radialGradient id="ay" cx="0" cy="0" gradientTransform="matrix(-2.51717091 4.73829875 -12.21875453 -6.49108362 16.9174 3.28471)" gradientUnits="userSpaceOnUse" r="1"><stop offset=".651289" stop-color="#e1b395" stop-opacity="0"/><stop offset="1" stop-color="#e1b395"/></radialGradient><linearGradient id="az"><stop offset=".80198" stop-color="#925c51"/><stop offset="1" stop-color="#694b43"/><stop offset="1" stop-color="#804d49"/><stop offset="1" stop-color="#85534d"/></linearGradient><radialGradient id="aA" cx="0" cy="0" gradientTransform="matrix(0 1.0239 -1.62862 0 15.3178 12.1138)" gradientUnits="userSpaceOnUse" r="1" xlink:href="#az"/><linearGradient id="aB"><stop offset=".765532" stop-color="#ffe6e2" stop-opacity="0"/><stop offset=".966159" stop-color="#ffe6e2"/></linearGradient><radialGradient id="aC" cx="0" cy="0" gradientTransform="matrix(-.29268389 -.37716266 .51926238 -.40295541 15.0298 12.22)" gradientUnits="userSpaceOnUse" r="1" xlink:href="#aB"/><linearGradient id="aD"><stop offset="0" stop-color="#b4948d"/><stop offset="1" stop-color="#b4948d" stop-opacity="0"/></linearGradient><linearGradient id="aE" gradientUnits="userSpaceOnUse" x1="16.2996" x2="15.9036" xlink:href="#aD" y1="12.1818" y2="12.4258"/><radialGradient id="aF" cx="0" cy="0" gradientTransform="matrix(0 1.02395 -1.62871 0 9.8103 12.1138)" gradientUnits="userSpaceOnUse" r="1" xlink:href="#az"/><linearGradient id="aG" gradientUnits="userSpaceOnUse" x1="10.7491" x2="10.3531" xlink:href="#aD" y1="12.1818" y2="12.4258"/><radialGradient id="aH" cx="0" cy="0" gradientTransform="matrix(-.00976272 -.62354158 .74952214 -.01173518 9.44882 12.3904)" gradientUnits="userSpaceOnUse" r="1" xlink:href="#aB"/><linearGradient id="aI" gradientUnits="userSpaceOnUse" x1="20.6867" x2="19.1637" y1="12.2158" y2="14.9623"><stop offset="0" stop-color="#f8c5a2"/><stop offset="1" stop-color="#e0a48c"/></linearGradient><radialGradient id="aJ" cx="0" cy="0" gradientTransform="matrix(.7932402 2.83104934 -2.70103646 .7568115 18.3916 12.1312)" gradientUnits="userSpaceOnUse" r="1"><stop offset=".856273" stop-color="#ce8d79" stop-opacity="0"/><stop offset="1" stop-color="#ce8d79"/></radialGradient><radialGradient id="aK" cx="0" cy="0" gradientTransform="matrix(.99419218 -1.36436793 1.14360989 .83332948 18.8464 12.8187)" gradientUnits="userSpaceOnUse" r="1"><stop offset=".663731" stop-color="#e3a17b"/><stop offset="1" stop-color="#e3a17b" stop-opacity="0"/></radialGradient><linearGradient id="aL" gradientUnits="userSpaceOnUse" x1="5.18152" x2="7.02183" y1="13.1042" y2="12.9435"><stop offset="0" stop-color="#c48874"/><stop offset="1" stop-color="#bd776c"/></linearGradient><radialGradient id="aM" cx="0" cy="0" gradientTransform="matrix(-2.11389532 -.30913761 .30391099 -2.07815548 6.36051 12.9435)" gradientUnits="userSpaceOnUse" r="1"><stop offset=".77507" stop-color="#dca187" stop-opacity="0"/><stop offset="1" stop-color="#c77937"/><stop offset="1" stop-color="#dca187"/></radialGradient><path d="m12.564 19.9258c-5.52286 0-10.00004 4.4771-10.00004 10v.0508h20.00004v-.0508c0-5.5229-4.4772-10-10-10z" fill="url(#s)"/><path d="m12.564 19.9258c-5.52286 0-10.00004 4.4771-10.00004 10v.0508h20.00004v-.0508c0-5.5229-4.4772-10-10-10z" fill="url(#t)"/><path d="m12.564 19.9258c-5.52286 0-10.00004 4.4771-10.00004 10v.0508h20.00004v-.0508c0-5.5229-4.4772-10-10-10z" fill="url(#u)"/><rect fill="url(#v)" height="6.67969" rx="2.44922" width="4.89844" x="10.1265" y="16.8984"/><path d="m21.4397 15.6789h4.01489v2.01643h-4.01489z" fill="#d7927e"/><path d="m22.2124 13.7656c-.5547.6484-.7409 1.4167-.7617 1.7578l1.8476-.1015.8868-1.1836c.289-.3829.539-1.0196-.0352-1.4414-.4657-.3422-.9453-.0665-1.1016.1054-.0625.0573-.2484.2446-.8359.8633z" fill="url(#w)"/><path d="m22.2124 13.7656c-.5547.6484-.7409 1.4167-.7617 1.7578l1.8476-.1015.8868-1.1836c.289-.3829.539-1.0196-.0352-1.4414-.4657-.3422-.9453-.0665-1.1016.1054-.0625.0573-.2484.2446-.8359.8633z" fill="url(#x)"/><g clip-rule="evenodd" fill-rule="evenodd"><path d="m29.8072 14.071c.0816.4623-.227.9032-.6893.9847-.1476.0261-.3383.0658-.5631.1127-.6527.1359-1.5935.3319-2.6061.4278-.4673.0442-.8821-.2987-.9263-.7661s.2987-.8821.7661-.9263c.9093-.0861 1.679-.2466 2.3181-.3799.26-.0542.4984-.1039.7159-.1423.4623-.0816.9032.2271.9847.6894z" fill="#eeb992"/><path d="m29.8072 14.071c.0816.4623-.227.9032-.6893.9847-.1476.0261-.3383.0658-.5631.1127-.6527.1359-1.5935.3319-2.6061.4278-.4673.0442-.8821-.2987-.9263-.7661s.2987-.8821.7661-.9263c.9093-.0861 1.679-.2466 2.3181-.3799.26-.0542.4984-.1039.7159-.1423.4623-.0816.9032.2271.9847.6894z" fill="url(#z)"/><path d="m29.8072 14.071c.0816.4623-.227.9032-.6893.9847-.1476.0261-.3383.0658-.5631.1127-.6527.1359-1.5935.3319-2.6061.4278-.4673.0442-.8821-.2987-.9263-.7661s.2987-.8821.7661-.9263c.9093-.0861 1.679-.2466 2.3181-.3799.26-.0542.4984-.1039.7159-.1423.4623-.0816.9032.2271.9847.6894z" fill="url(#B)"/><path d="m29.8072 14.071c.0816.4623-.227.9032-.6893.9847-.1476.0261-.3383.0658-.5631.1127-.6527.1359-1.5935.3319-2.6061.4278-.4673.0442-.8821-.2987-.9263-.7661s.2987-.8821.7661-.9263c.9093-.0861 1.679-.2466 2.3181-.3799.26-.0542.4984-.1039.7159-.1423.4623-.0816.9032.2271.9847.6894z" fill="url(#D)"/><path d="m30.3854 14.3991c.0815.4623-.2271.9032-.6894.9848-.1198.0212-.2582.0471-.4132.0762-.6621.1241-1.6263.3048-2.7325.4095-.4674.0443-.8821-.2987-.9263-.7661-.0443-.4673.2987-.882.7661-.9263 1.0202-.0966 1.8891-.2591 2.5523-.3832.1659-.031.3189-.0596.4582-.0842.4623-.0816.9032.227.9848.6893z" fill="#eeb992"/><path d="m30.3854 14.3991c.0815.4623-.2271.9032-.6894.9848-.1198.0212-.2582.0471-.4132.0762-.6621.1241-1.6263.3048-2.7325.4095-.4674.0443-.8821-.2987-.9263-.7661-.0443-.4673.2987-.882.7661-.9263 1.0202-.0966 1.8891-.2591 2.5523-.3832.1659-.031.3189-.0596.4582-.0842.4623-.0816.9032.227.9848.6893z" fill="url(#E)"/><path d="m30.3854 14.3991c.0815.4623-.2271.9032-.6894.9848-.1198.0212-.2582.0471-.4132.0762-.6621.1241-1.6263.3048-2.7325.4095-.4674.0443-.8821-.2987-.9263-.7661-.0443-.4673.2987-.882.7661-.9263 1.0202-.0966 1.8891-.2591 2.5523-.3832.1659-.031.3189-.0596.4582-.0842.4623-.0816.9032.227.9848.6893z" fill="url(#F)"/><path d="m30.3854 14.3991c.0815.4623-.2271.9032-.6894.9848-.1198.0212-.2582.0471-.4132.0762-.6621.1241-1.6263.3048-2.7325.4095-.4674.0443-.8821-.2987-.9263-.7661-.0443-.4673.2987-.882.7661-.9263 1.0202-.0966 1.8891-.2591 2.5523-.3832.1659-.031.3189-.0596.4582-.0842.4623-.0816.9032.227.9848.6893z" fill="url(#G)"/><path d="m30.1138 14.9568c.0411.4677-.3047.8801-.7723.9212-.3212.0282-.7391.0876-1.2602.1616l-.03.0043c-.5249.0746-1.1335.1604-1.7868.2309-.4668.0503-.886-.2872-.9363-.754-.0503-.4667.2872-.8859.754-.9362.6216-.067 1.2044-.1491 1.73-.2238.0214-.003.0427-.0061.064-.0091.4911-.0698.9488-.1348 1.3164-.1672.4677-.0411.8801.3047.9212.7723z" fill="#eeb992"/><path d="m30.1138 14.9568c.0411.4677-.3047.8801-.7723.9212-.3212.0282-.7391.0876-1.2602.1616l-.03.0043c-.5249.0746-1.1335.1604-1.7868.2309-.4668.0503-.886-.2872-.9363-.754-.0503-.4667.2872-.8859.754-.9362.6216-.067 1.2044-.1491 1.73-.2238.0214-.003.0427-.0061.064-.0091.4911-.0698.9488-.1348 1.3164-.1672.4677-.0411.8801.3047.9212.7723z" fill="url(#H)"/><path d="m30.1138 14.9568c.0411.4677-.3047.8801-.7723.9212-.3212.0282-.7391.0876-1.2602.1616l-.03.0043c-.5249.0746-1.1335.1604-1.7868.2309-.4668.0503-.886-.2872-.9363-.754-.0503-.4667.2872-.8859.754-.9362.6216-.067 1.2044-.1491 1.73-.2238.0214-.003.0427-.0061.064-.0091.4911-.0698.9488-.1348 1.3164-.1672.4677-.0411.8801.3047.9212.7723z" fill="url(#I)"/><path d="m30.1138 14.9568c.0411.4677-.3047.8801-.7723.9212-.3212.0282-.7391.0876-1.2602.1616l-.03.0043c-.5249.0746-1.1335.1604-1.7868.2309-.4668.0503-.886-.2872-.9363-.754-.0503-.4667.2872-.8859.754-.9362.6216-.067 1.2044-.1491 1.73-.2238.0214-.003.0427-.0061.064-.0091.4911-.0698.9488-.1348 1.3164-.1672.4677-.0411.8801.3047.9212.7723z" fill="url(#J)"/></g><g filter="url(#a)"><path d="m25.7515 13.9063c-.3287.0365-.7699.0856-1.5976.1551-.075.0063-.1514.0123-.2285.0183-1.0596.0827-2.2734.1774-2.4666 1.345-.199 1.2031 1.1833 2.1417 2.8317 1.9542.5932-.0675.8662-.1536 1.1748-.2509.2427-.0765.5074-.16.9671-.2468.9165-.1025 1.7583-.2069 2.2341-.3089.4455-.0955.7293-.534.6338-.9795-.0954-.4456-.534-.7293-.9795-.6339-.3692.0791-1.053.1667-1.8736.26l-.2036-1.3634c-.1607.0139-.3089.0304-.4921.0508z" fill="#f0be97"/><path d="m25.7515 13.9063c-.3287.0365-.7699.0856-1.5976.1551-.075.0063-.1514.0123-.2285.0183-1.0596.0827-2.2734.1774-2.4666 1.345-.199 1.2031 1.1833 2.1417 2.8317 1.9542.5932-.0675.8662-.1536 1.1748-.2509.2427-.0765.5074-.16.9671-.2468.9165-.1025 1.7583-.2069 2.2341-.3089.4455-.0955.7293-.534.6338-.9795-.0954-.4456-.534-.7293-.9795-.6339-.3692.0791-1.053.1667-1.8736.26l-.2036-1.3634c-.1607.0139-.3089.0304-.4921.0508z" fill="url(#K)"/><path d="m25.7515 13.9063c-.3287.0365-.7699.0856-1.5976.1551-.075.0063-.1514.0123-.2285.0183-1.0596.0827-2.2734.1774-2.4666 1.345-.199 1.2031 1.1833 2.1417 2.8317 1.9542.5932-.0675.8662-.1536 1.1748-.2509.2427-.0765.5074-.16.9671-.2468.9165-.1025 1.7583-.2069 2.2341-.3089.4455-.0955.7293-.534.6338-.9795-.0954-.4456-.534-.7293-.9795-.6339-.3692.0791-1.053.1667-1.8736.26l-.2036-1.3634c-.1607.0139-.3089.0304-.4921.0508z" fill="url(#L)"/><path d="m25.7515 13.9063c-.3287.0365-.7699.0856-1.5976.1551-.075.0063-.1514.0123-.2285.0183-1.0596.0827-2.2734.1774-2.4666 1.345-.199 1.2031 1.1833 2.1417 2.8317 1.9542.5932-.0675.8662-.1536 1.1748-.2509.2427-.0765.5074-.16.9671-.2468.9165-.1025 1.7583-.2069 2.2341-.3089.4455-.0955.7293-.534.6338-.9795-.0954-.4456-.534-.7293-.9795-.6339-.3692.0791-1.053.1667-1.8736.26l-.2036-1.3634c-.1607.0139-.3089.0304-.4921.0508z" fill="url(#M)"/></g><path d="m21.1968 17.4375c0-.1381.1119-.25.25-.25h4.0937c.1381 0 .25.1119.25.25v1.6406h-4.5937z" fill="url(#N)"/><path d="m21.1968 17.4375c0-.1381.1119-.25.25-.25h4.0937c.1381 0 .25.1119.25.25v1.6406h-4.5937z" fill="url(#O)"/><path d="m20.2983 18.9328c0-.4418.3582-.8.8-.8h4.7907c.4418 0 .8.3582.8.8v11.0438h-6.3907z" fill="url(#P)"/><path d="m20.2983 18.9328c0-.4418.3582-.8.8-.8h4.7907c.4418 0 .8.3582.8.8v11.0438h-6.3907z" fill="url(#Q)"/><path d="m20.2983 18.9328c0-.4418.3582-.8.8-.8h4.7907c.4418 0 .8.3582.8.8v11.0438h-6.3907z" fill="url(#R)"/><path d="m18.699 14.8474c.423-.0136.8192-.1571 1.1416-.3893v1.1749c0 1.1271-.6715 2.1313-1.6923 2.548.2149-.4577.3627-.9563.4365-1.4892z" fill="url(#S)"/><path d="m6.42895 14.8474c-.42306-.0136-.81926-.1571-1.1416-.3893v1.1749c0 1.1271.67153 2.1313 1.69225 2.548-.21489-.4577-.36263-.9563-.43649-1.4892z" fill="url(#T)"/><path d="m6.42895 14.8474c-.42306-.0136-.81926-.1571-1.1416-.3893v1.1749c0 1.1271.67153 2.1313 1.69225 2.548-.21489-.4577-.36263-.9563-.43649-1.4892z" fill="url(#U)"/><g filter="url(#b)"><path d="m6.47491 16.7595c.32467 2.4639 2.42147 4.2983 4.90379 4.2983h2.3809c2.4823 0 4.5792-1.8344 4.9038-4.2983.1489-2.3773.2986-4.745.4091-7.12099-.0134-.96797-.7765-1.7667-1.7403-1.80731h-1.7671c-1.2048 0-2.2958-.71075-2.7912-1.82086-.1271-.31814-.435-.52798-.7764-.52798h-1.6064c-2.32935 0-4.21691 1.90885-4.21691 4.26445 0 2.34829.14668 4.65849.30072 7.01269z" fill="url(#V)"/></g><path d="m6.47491 16.7595c.32467 2.4639 2.42147 4.2983 4.90379 4.2983h2.3809c2.4823 0 4.5792-1.8344 4.9038-4.2983.1489-2.3773.2986-4.745.4091-7.12099-.0134-.96797-.7765-1.7667-1.7403-1.80731h-1.7671c-1.2048 0-2.2958-.71075-2.7912-1.82086-.1271-.31814-.435-.52798-.7764-.52798h-1.6064c-2.32935 0-4.21691 1.90885-4.21691 4.26445 0 2.34829.14668 4.65849.30072 7.01269z" fill="url(#W)"/><path d="m6.47491 16.7595c.32467 2.4639 2.42147 4.2983 4.90379 4.2983h2.3809c2.4823 0 4.5792-1.8344 4.9038-4.2983.1489-2.3773.2986-4.745.4091-7.12099-.0134-.96797-.7765-1.7667-1.7403-1.80731h-1.7671c-1.2048 0-2.2958-.71075-2.7912-1.82086-.1271-.31814-.435-.52798-.7764-.52798h-1.6064c-2.32935 0-4.21691 1.90885-4.21691 4.26445 0 2.34829.14668 4.65849.30072 7.01269z" fill="url(#X)"/><path d="m6.47491 16.7595c.32467 2.4639 2.42147 4.2983 4.90379 4.2983h2.3809c2.4823 0 4.5792-1.8344 4.9038-4.2983.1489-2.3773.2986-4.745.4091-7.12099-.0134-.96797-.7765-1.7667-1.7403-1.80731h-1.7671c-1.2048 0-2.2958-.71075-2.7912-1.82086-.1271-.31814-.435-.52798-.7764-.52798h-1.6064c-2.32935 0-4.21691 1.90885-4.21691 4.26445 0 2.34829.14668 4.65849.30072 7.01269z" fill="url(#Y)"/><path d="m6.47491 16.7595c.32467 2.4639 2.42147 4.2983 4.90379 4.2983h2.3809c2.4823 0 4.5792-1.8344 4.9038-4.2983.1489-2.3773.2986-4.745.4091-7.12099-.0134-.96797-.7765-1.7667-1.7403-1.80731h-1.7671c-1.2048 0-2.2958-.71075-2.7912-1.82086-.1271-.31814-.435-.52798-.7764-.52798h-1.6064c-2.32935 0-4.21691 1.90885-4.21691 4.26445 0 2.34829.14668 4.65849.30072 7.01269z" fill="url(#Z)"/><path d="m6.47491 16.7595c.32467 2.4639 2.42147 4.2983 4.90379 4.2983h2.3809c2.4823 0 4.5792-1.8344 4.9038-4.2983.1489-2.3773.2986-4.745.4091-7.12099-.0134-.96797-.7765-1.7667-1.7403-1.80731h-1.7671c-1.2048 0-2.2958-.71075-2.7912-1.82086-.1271-.31814-.435-.52798-.7764-.52798h-1.6064c-2.32935 0-4.21691 1.90885-4.21691 4.26445 0 2.34829.14668 4.65849.30072 7.01269z" fill="url(#aa)"/><path d="m6.47491 16.7595c.32467 2.4639 2.42147 4.2983 4.90379 4.2983h2.3809c2.4823 0 4.5792-1.8344 4.9038-4.2983.1489-2.3773.2986-4.745.4091-7.12099-.0134-.96797-.7765-1.7667-1.7403-1.80731h-1.7671c-1.2048 0-2.2958-.71075-2.7912-1.82086-.1271-.31814-.435-.52798-.7764-.52798h-1.6064c-2.32935 0-4.21691 1.90885-4.21691 4.26445 0 2.34829.14668 4.65849.30072 7.01269z" fill="url(#ab)"/><path d="m6.47491 16.7595c.32467 2.4639 2.42147 4.2983 4.90379 4.2983h2.3809c2.4823 0 4.5792-1.8344 4.9038-4.2983.1489-2.3773.2986-4.745.4091-7.12099-.0134-.96797-.7765-1.7667-1.7403-1.80731h-1.7671c-1.2048 0-2.2958-.71075-2.7912-1.82086-.1271-.31814-.435-.52798-.7764-.52798h-1.6064c-2.32935 0-4.21691 1.90885-4.21691 4.26445 0 2.34829.14668 4.65849.30072 7.01269z" fill="url(#ac)"/><path d="m6.47491 16.7595c.32467 2.4639 2.42147 4.2983 4.90379 4.2983h2.3809c2.4823 0 4.5792-1.8344 4.9038-4.2983.1489-2.3773.2986-4.745.4091-7.12099-.0134-.96797-.7765-1.7667-1.7403-1.80731h-1.7671c-1.2048 0-2.2958-.71075-2.7912-1.82086-.1271-.31814-.435-.52798-.7764-.52798h-1.6064c-2.32935 0-4.21691 1.90885-4.21691 4.26445 0 2.34829.14668 4.65849.30072 7.01269z" fill="url(#ad)"/><g filter="url(#c)"><path d="m12.0204 12.8459-.8732 2.0894c-.1279.4772.1791.9544.614.9544h.9274c.435 0 .742-.4845.6141-.9544l-.6269-2.32c-.1343-.5139-.5146-.2833-.6554.2306z" fill="#c48377"/></g><g filter="url(#d)"><path d="m12.0815 12.3682-.6708 2.32c-.1369.4772.1917.9544.6571.9544h.9924c.4654 0 .7939-.4845.657-.9544l-.6707-2.32c-.1437-.514-.8145-.514-.965 0z" fill="url(#ae)"/><path d="m12.0815 12.3682-.6708 2.32c-.1369.4772.1917.9544.6571.9544h.9924c.4654 0 .7939-.4845.657-.9544l-.6707-2.32c-.1437-.514-.8145-.514-.965 0z" fill="url(#af)"/><path d="m12.0815 12.3682-.6708 2.32c-.1369.4772.1917.9544.6571.9544h.9924c.4654 0 .7939-.4845.657-.9544l-.6707-2.32c-.1437-.514-.8145-.514-.965 0z" fill="url(#ag)"/><path d="m12.0815 12.3682-.6708 2.32c-.1369.4772.1917.9544.6571.9544h.9924c.4654 0 .7939-.4845.657-.9544l-.6707-2.32c-.1437-.514-.8145-.514-.965 0z" fill="url(#ah)"/></g><path d="m12.0815 12.3682-.6708 2.32c-.1369.4772.1917.9544.6571.9544h.9924c.4654 0 .7939-.4845.657-.9544l-.6707-2.32c-.1437-.514-.8145-.514-.965 0z" fill="url(#ai)"/><path d="m12.0815 12.3682-.6708 2.32c-.1369.4772.1917.9544.6571.9544h.9924c.4654 0 .7939-.4845.657-.9544l-.6707-2.32c-.1437-.514-.8145-.514-.965 0z" fill="url(#aj)"/><g filter="url(#e)"><path d="m10.8502 16.4446c.4949.258 1.085.406 1.7138.406.6352 0 1.2189-.148 1.7138-.406l.0007-.0004c.1188-.0604.2436-.0253.3185.0525.0759.0788.1039.2053.0278.3196-.0001.0001-.0001.0001-.0002.0002l-.0624-.0416c-.4227.6405-1.1592 1.0676-1.9982 1.0676s-1.5755-.4271-1.9982-1.0676zm0 0-.0006-.0004c-.1199-.0609-.2448-.0228-.319.0553-.0745.0785-.1043.2051-.027.3173z" stroke="url(#ak)" stroke-width=".15"/></g><path d="m12.564 16.9256c-.6404 0-1.2425-.1507-1.7484-.4145-.173-.0879-.3587.1068-.2498.2638.4227.6405 1.1592 1.0676 1.9982 1.0676s1.5755-.4271 1.9982-1.0676c.1089-.1633-.0768-.3517-.2497-.2638-.506.2638-1.1016.4145-1.7485.4145z" fill="url(#al)"/><g filter="url(#f)"><path d="m18.6908 4.88672c.6493.22338 1.2316.6769 1.5998 1.32672.589 1.03566.502 2.27438-.1339 3.18819-.2209.32491-.3414.71077-.3414 1.10337v1.4993c-.236-.1644-.5474-.2864-.842-.3384l.0991-2.02736c-.0134-.96796-.7765-1.7667-1.7403-1.80731h-1.7671c-1.2048 0-2.2959-.71075-2.7912-1.82086-.1272-.31814-.4351-.52798-.7764-.52798h-1.6065c-2.32928 0-4.21683 1.90885-4.21683 4.26446l.03866 1.94015c-.32051.0471-.65534.1542-.90881.3328v-1.5148c0-.3926-.12048-.77846-.34137-1.10337-.60241-.88674-.70951-2.07808-.18072-3.08665.36814-.69721.96386-1.18457 1.6399-1.42149.72289-.25722 1.33869-.74458 1.74699-1.40118.52209-.83258 1.43909-1.38763 2.48998-1.38763.4083 0 .7965.08799 1.158.23691.4819.20984 1.0241.20984 1.506 0 .3547-.14892.743-.23691 1.1513-.23691 1.0642 0 1.9946.57536 2.51 1.42825.3882.64305.9973 1.11011 1.7068 1.35379z" fill="url(#am)"/><path d="m18.6908 4.88672c.6493.22338 1.2316.6769 1.5998 1.32672.589 1.03566.502 2.27438-.1339 3.18819-.2209.32491-.3414.71077-.3414 1.10337v1.4993c-.236-.1644-.5474-.2864-.842-.3384l.0991-2.02736c-.0134-.96796-.7765-1.7667-1.7403-1.80731h-1.7671c-1.2048 0-2.2959-.71075-2.7912-1.82086-.1272-.31814-.4351-.52798-.7764-.52798h-1.6065c-2.32928 0-4.21683 1.90885-4.21683 4.26446l.03866 1.94015c-.32051.0471-.65534.1542-.90881.3328v-1.5148c0-.3926-.12048-.77846-.34137-1.10337-.60241-.88674-.70951-2.07808-.18072-3.08665.36814-.69721.96386-1.18457 1.6399-1.42149.72289-.25722 1.33869-.74458 1.74699-1.40118.52209-.83258 1.43909-1.38763 2.48998-1.38763.4083 0 .7965.08799 1.158.23691.4819.20984 1.0241.20984 1.506 0 .3547-.14892.743-.23691 1.1513-.23691 1.0642 0 1.9946.57536 2.51 1.42825.3882.64305.9973 1.11011 1.7068 1.35379z" fill="url(#an)"/><path d="m18.6908 4.88672c.6493.22338 1.2316.6769 1.5998 1.32672.589 1.03566.502 2.27438-.1339 3.18819-.2209.32491-.3414.71077-.3414 1.10337v1.4993c-.236-.1644-.5474-.2864-.842-.3384l.0991-2.02736c-.0134-.96796-.7765-1.7667-1.7403-1.80731h-1.7671c-1.2048 0-2.2959-.71075-2.7912-1.82086-.1272-.31814-.4351-.52798-.7764-.52798h-1.6065c-2.32928 0-4.21683 1.90885-4.21683 4.26446l.03866 1.94015c-.32051.0471-.65534.1542-.90881.3328v-1.5148c0-.3926-.12048-.77846-.34137-1.10337-.60241-.88674-.70951-2.07808-.18072-3.08665.36814-.69721.96386-1.18457 1.6399-1.42149.72289-.25722 1.33869-.74458 1.74699-1.40118.52209-.83258 1.43909-1.38763 2.48998-1.38763.4083 0 .7965.08799 1.158.23691.4819.20984 1.0241.20984 1.506 0 .3547-.14892.743-.23691 1.1513-.23691 1.0642 0 1.9946.57536 2.51 1.42825.3882.64305.9973 1.11011 1.7068 1.35379z" fill="url(#ao)"/><path d="m18.6908 4.88672c.6493.22338 1.2316.6769 1.5998 1.32672.589 1.03566.502 2.27438-.1339 3.18819-.2209.32491-.3414.71077-.3414 1.10337v1.4993c-.236-.1644-.5474-.2864-.842-.3384l.0991-2.02736c-.0134-.96796-.7765-1.7667-1.7403-1.80731h-1.7671c-1.2048 0-2.2959-.71075-2.7912-1.82086-.1272-.31814-.4351-.52798-.7764-.52798h-1.6065c-2.32928 0-4.21683 1.90885-4.21683 4.26446l.03866 1.94015c-.32051.0471-.65534.1542-.90881.3328v-1.5148c0-.3926-.12048-.77846-.34137-1.10337-.60241-.88674-.70951-2.07808-.18072-3.08665.36814-.69721.96386-1.18457 1.6399-1.42149.72289-.25722 1.33869-.74458 1.74699-1.40118.52209-.83258 1.43909-1.38763 2.48998-1.38763.4083 0 .7965.08799 1.158.23691.4819.20984 1.0241.20984 1.506 0 .3547-.14892.743-.23691 1.1513-.23691 1.0642 0 1.9946.57536 2.51 1.42825.3882.64305.9973 1.11011 1.7068 1.35379z" fill="url(#ap)"/><path d="m18.6908 4.88672c.6493.22338 1.2316.6769 1.5998 1.32672.589 1.03566.502 2.27438-.1339 3.18819-.2209.32491-.3414.71077-.3414 1.10337v1.4993c-.236-.1644-.5474-.2864-.842-.3384l.0991-2.02736c-.0134-.96796-.7765-1.7667-1.7403-1.80731h-1.7671c-1.2048 0-2.2959-.71075-2.7912-1.82086-.1272-.31814-.4351-.52798-.7764-.52798h-1.6065c-2.32928 0-4.21683 1.90885-4.21683 4.26446l.03866 1.94015c-.32051.0471-.65534.1542-.90881.3328v-1.5148c0-.3926-.12048-.77846-.34137-1.10337-.60241-.88674-.70951-2.07808-.18072-3.08665.36814-.69721.96386-1.18457 1.6399-1.42149.72289-.25722 1.33869-.74458 1.74699-1.40118.52209-.83258 1.43909-1.38763 2.48998-1.38763.4083 0 .7965.08799 1.158.23691.4819.20984 1.0241.20984 1.506 0 .3547-.14892.743-.23691 1.1513-.23691 1.0642 0 1.9946.57536 2.51 1.42825.3882.64305.9973 1.11011 1.7068 1.35379z" fill="url(#aq)"/></g><g filter="url(#g)"><path d="m17.2749 9.50963c-.2211-.19257-.4782-.39661-.8676-.51921-.384-.12087-.8649-.15334-1.5302-.07195-.1919.02348-.3284.19804-.3049.3899.0235.19187.198.32838.3899.3049.6073-.07429.9792-.03568 1.235.04482.2502.07878.4195.20641.6181.37941.1458.1269.3668.1117.4938-.0341.1269-.14574.1117-.36682-.0341-.49377z" fill="#a06937"/></g><g filter="url(#h)"><path d="m8.25945 9.37209c.11374-.06808.27739-.15516.48404-.23641.41325-.16248 1.00383-.30359 1.71051-.21714.1919.02348.3284.19804.3049.3899-.0235.19187-.198.32837-.3899.3049-.56589-.06923-1.03804.0435-1.36938.17377-.16563.06513-.29475.13416-.38069.1856-.04289.02567-.07476.04679-.09478.06059-.00999.0069-.017.012-.02092.0149l-.00348.0026c-.15253.1176-.37162.0899-.48997-.06231-.11868-.15258-.09119-.37247.06139-.49114z" fill="#a06937"/></g><g filter="url(#i)"><path d="m12.8573 6.183c-.0294-.05641-.0573-.11397-.0835-.17266-.1271-.31814-.435-.52798-.7764-.52798h-1.6064c-2.32936 0-4.21691 1.90885-4.21691 4.26446v.34728c-.42908-.32656-.96877-1.01538-.96877-2.13006 0-1.35268.98656-2.03641 1.61587-2.47254.17766-.12313.32685-.22652.41733-.31966.03843-.03957.08028-.08395.12579-.13222.44112-.46786 1.22708-1.30147 2.59955-1.66579.75944-.20158 1.53014-.23077 2.11504-.20017.4722.02471.805.43286.805.90571v2.08666z" fill="url(#ar)"/><path d="m12.8573 6.183c-.0294-.05641-.0573-.11397-.0835-.17266-.1271-.31814-.435-.52798-.7764-.52798h-1.6064c-2.32936 0-4.21691 1.90885-4.21691 4.26446v.34728c-.42908-.32656-.96877-1.01538-.96877-2.13006 0-1.35268.98656-2.03641 1.61587-2.47254.17766-.12313.32685-.22652.41733-.31966.03843-.03957.08028-.08395.12579-.13222.44112-.46786 1.22708-1.30147 2.59955-1.66579.75944-.20158 1.53014-.23077 2.11504-.20017.4722.02471.805.43286.805.90571v2.08666z" fill="url(#as)"/></g><g filter="url(#j)"><path d="m19.1424 10.4388-.0368-.79658c-.0134-.9635-.8096-1.75855-1.7734-1.79898h-1.7671c-1.1218 0-2.1449-.61328-2.6804-1.58969 0 0-.1523-.35282-.2489-.91305-.1704-.98849.7456-1.7172 1.7352-1.55279 1.3245.22006 2.9501.64925 4.1141 1.40845 2.2017 1.43599 1.8162 4.02394.6573 5.24264z" fill="url(#at)"/><path d="m19.1424 10.4388-.0368-.79658c-.0134-.9635-.8096-1.75855-1.7734-1.79898h-1.7671c-1.1218 0-2.1449-.61328-2.6804-1.58969 0 0-.1523-.35282-.2489-.91305-.1704-.98849.7456-1.7172 1.7352-1.55279 1.3245.22006 2.9501.64925 4.1141 1.40845 2.2017 1.43599 1.8162 4.02394.6573 5.24264z" fill="url(#au)"/><path d="m19.1424 10.4388-.0368-.79658c-.0134-.9635-.8096-1.75855-1.7734-1.79898h-1.7671c-1.1218 0-2.1449-.61328-2.6804-1.58969 0 0-.1523-.35282-.2489-.91305-.1704-.98849.7456-1.7172 1.7352-1.55279 1.3245.22006 2.9501.64925 4.1141 1.40845 2.2017 1.43599 1.8162 4.02394.6573 5.24264z" fill="url(#av)"/><path d="m19.1424 10.4388-.0368-.79658c-.0134-.9635-.8096-1.75855-1.7734-1.79898h-1.7671c-1.1218 0-2.1449-.61328-2.6804-1.58969 0 0-.1523-.35282-.2489-.91305-.1704-.98849.7456-1.7172 1.7352-1.55279 1.3245.22006 2.9501.64925 4.1141 1.40845 2.2017 1.43599 1.8162 4.02394.6573 5.24264z" fill="url(#aw)"/><path d="m19.1424 10.4388-.0368-.79658c-.0134-.9635-.8096-1.75855-1.7734-1.79898h-1.7671c-1.1218 0-2.1449-.61328-2.6804-1.58969 0 0-.1523-.35282-.2489-.91305-.1704-.98849.7456-1.7172 1.7352-1.55279 1.3245.22006 2.9501.64925 4.1141 1.40845 2.2017 1.43599 1.8162 4.02394.6573 5.24264z" fill="url(#ax)"/><path d="m19.1424 10.4388-.0368-.79658c-.0134-.9635-.8096-1.75855-1.7734-1.79898h-1.7671c-1.1218 0-2.1449-.61328-2.6804-1.58969 0 0-.1523-.35282-.2489-.91305-.1704-.98849.7456-1.7172 1.7352-1.55279 1.3245.22006 2.9501.64925 4.1141 1.40845 2.2017 1.43599 1.8162 4.02394.6573 5.24264z" fill="url(#ay)"/></g><path d="m15.5815 11.1688c.8242 0 1.5205.5682 1.7099 1.3361.0563.2202-.1126.4301-.3379.4301h-2.8157c-.1792 0-.3225-.1638-.2867-.343.1587-.8089.8703-1.4232 1.7304-1.4232z" fill="#fff"/><path d="m15.3204 11.5118c.6246 0 1.1263.5068 1.1263 1.1263 0 .1024-.0154.2047-.041.2969h-2.1758c-.0256-.0973-.0409-.1945-.0409-.2969 0-.6195.5068-1.1263 1.1314-1.1263z" fill="url(#aA)"/><path d="m14.6753 12.6381c0-.3584.2867-.6451.645-.6451.3584 0 .6451.2867.6451.6451 0 .1075-.0256.2099-.0717.2969h-1.1416c-.0512-.087-.0768-.1894-.0768-.2969z" fill="#000"/><g filter="url(#k)"><path d="m15.2375 11.7499c.0803.1073-.0875.2381-.2782.3807s-.3322.2429-.4124.1356.0093-.3099.2-.4525.4104-.1712.4906-.0638z" fill="#c7a7a3"/><path d="m15.2375 11.7499c.0803.1073-.0875.2381-.2782.3807s-.3322.2429-.4124.1356.0093-.3099.2-.4525.4104-.1712.4906-.0638z" fill="url(#aC)"/></g><g filter="url(#l)"><path d="m16.3236 12.4898c-.0416-.2912-.212-.5107-.292-.584l-.328.36.148.288z" fill="url(#aE)"/></g><path d="m9.5466 11.1687c-.82428 0-1.52057.5683-1.71 1.3363-.05632.2201.11263.43.3379.43h2.8159c.1792 0 .3225-.1638.2867-.343-.1587-.8089-.8755-1.4233-1.7305-1.4233z" fill="#fff"/><path d="m9.80774 11.5117c-.62461 0-1.12634.5069-1.12634 1.1264 0 .1024.01536.2048.04095.2969h2.17585c.0256-.0973.041-.1945.041-.2969-.0051-.6195-.5068-1.1264-1.13146-1.1264z" fill="url(#aF)"/><path d="m10.4528 12.6381c0-.3584-.2867-.6451-.64511-.6451-.35839 0-.64509.2867-.64509.6451 0 .1075.0256.2099.07167.2969h1.14173c.0461-.087.0768-.1894.0768-.2969z" fill="#000"/><g filter="url(#m)"><path d="m10.8368 12.5058c0-.364-.296-.6067-.376-.68l-.364.352.224.456z" fill="url(#aG)"/></g><g filter="url(#n)"><ellipse cx="9.46787" cy="11.993" fill="#c7a7a3" fill-opacity=".9" rx=".49171" ry=".24885" transform="matrix(.88365127 -.46814574 .46814574 .88365127 -4.512897 5.827713)"/><ellipse cx="9.46787" cy="11.993" fill="url(#aH)" rx=".49171" ry=".24885" transform="matrix(.88365127 -.46814574 .46814574 .88365127 -4.512897 5.827713)"/></g><path d="m18.7755 14.9623c.0831-1.3431.1631-2.6845.233-4.0275.9535.1669 1.6782.9989 1.6782 2.0002 0 1.0815-.8453 1.9654-1.9112 2.0273z" fill="url(#aI)"/><path d="m18.7755 14.9623c.0831-1.3431.1631-2.6845.233-4.0275.9535.1669 1.6782.9989 1.6782 2.0002 0 1.0815-.8453 1.9654-1.9112 2.0273z" fill="url(#aJ)"/><path d="m18.7755 14.9623c.0831-1.3431.1631-2.6845.233-4.0275.9535.1669 1.6782.9989 1.6782 2.0002 0 1.0815-.8453 1.9654-1.9112 2.0273z" fill="url(#aK)"/><path d="m6.18576 10.9243c-.98605.1391-1.7446.9863-1.7446 2.0107 0 1.0842.84961 1.9699 1.91934 2.0277-.08146-1.3485-.14863-2.6894-.17474-4.0384z" fill="url(#aL)"/><path d="m6.18576 10.9243c-.98605.1391-1.7446.9863-1.7446 2.0107 0 1.0842.84961 1.9699 1.91934 2.0277-.08146-1.3485-.14863-2.6894-.17474-4.0384z" fill="url(#aM)"/><g filter="url(#o)"><path d="m6.20691 11.7585c-.53846.1207-.9408.6016-.9408 1.1765 0 .6118.45565 1.1172 1.04609 1.1953-.04375-.7911-.08065-1.5806-.10529-2.3718z" fill="#b57562"/></g><g filter="url(#p)"><path d="m18.8259 14.1407c.0487-.8008.0957-1.6013.1396-2.4021.5948.0742 1.055.5816 1.055 1.1964 0 .6622-.5338 1.1997-1.1946 1.2057z" fill="#e6aa8b"/></g><g filter="url(#q)"><path d="m8.30688 9.72502c.32435-.23269 1.13275-.64199 2.08882-.48123" stroke="#b17847" stroke-linecap="round" stroke-width=".25"/></g><g filter="url(#r)"><path d="m17.058 9.66685c-.3244-.23268-1.1328-.64199-2.0889-.48123" stroke="#b17847" stroke-linecap="round" stroke-width=".25"/></g></svg>