<svg fill="none" height="32" viewBox="0 0 32 32" width="32" xmlns="http://www.w3.org/2000/svg" xmlns:xlink="http://www.w3.org/1999/xlink"><filter id="a" color-interpolation-filters="sRGB" filterUnits="userSpaceOnUse" height="8.19971" width="4.70178" x="22.3008" y="10.2015"><feFlood flood-opacity="0" result="BackgroundImageFix"/><feBlend in="SourceGraphic" in2="BackgroundImageFix" mode="normal" result="shape"/><feColorMatrix in="SourceAlpha" result="hardAlpha" type="matrix" values="0 0 0 0 0 0 0 0 0 0 0 0 0 0 0 0 0 0 127 0"/><feOffset dx=".15"/><feComposite in2="hardAlpha" k2="-1" k3="1" operator="arithmetic"/><feColorMatrix type="matrix" values="0 0 0 0 0.313726 0 0 0 0 0.247059 0 0 0 0 0.32549 0 0 0 1 0"/><feBlend in2="shape" mode="normal" result="effect1_innerShadow_4002_1217"/></filter><filter id="b" color-interpolation-filters="sRGB" filterUnits="userSpaceOnUse" height="8.39971" width="4.90178" x="5.14622" y="10.1015"><feFlood flood-opacity="0" result="BackgroundImageFix"/><feBlend in="SourceGraphic" in2="BackgroundImageFix" mode="normal" result="shape"/><feColorMatrix in="SourceAlpha" result="hardAlpha" type="matrix" values="0 0 0 0 0 0 0 0 0 0 0 0 0 0 0 0 0 0 127 0"/><feOffset dx="-.1" dy=".1"/><feGaussianBlur stdDeviation=".125"/><feComposite in2="hardAlpha" k2="-1" k3="1" operator="arithmetic"/><feColorMatrix type="matrix" values="0 0 0 0 0.360784 0 0 0 0 0.321569 0 0 0 0 0.364706 0 0 0 1 0"/><feBlend in2="shape" mode="normal" result="effect1_innerShadow_4002_1217"/><feColorMatrix in="SourceAlpha" result="hardAlpha" type="matrix" values="0 0 0 0 0 0 0 0 0 0 0 0 0 0 0 0 0 0 127 0"/><feOffset dx=".1" dy="-.1"/><feGaussianBlur stdDeviation=".125"/><feComposite in2="hardAlpha" k2="-1" k3="1" operator="arithmetic"/><feColorMatrix type="matrix" values="0 0 0 0 0.360784 0 0 0 0 0.32549 0 0 0 0 0.396078 0 0 0 1 0"/><feBlend in2="effect1_innerShadow_4002_1217" mode="normal" result="effect2_innerShadow_4002_1217"/></filter><filter id="c" color-interpolation-filters="sRGB" filterUnits="userSpaceOnUse" height="4.81531" width="6.96838" x="12.464" y="14.9559"><feFlood flood-opacity="0" result="BackgroundImageFix"/><feBlend in="SourceGraphic" in2="BackgroundImageFix" mode="normal" result="shape"/><feGaussianBlur result="effect1_foregroundBlur_4002_1217" stdDeviation=".25"/></filter><filter id="d" color-interpolation-filters="sRGB" filterUnits="userSpaceOnUse" height="3.27344" width="1.58281" x="10.1432" y="10.6912"><feFlood flood-opacity="0" result="BackgroundImageFix"/><feBlend in="SourceGraphic" in2="BackgroundImageFix" mode="normal" result="shape"/><feColorMatrix in="SourceAlpha" result="hardAlpha" type="matrix" values="0 0 0 0 0 0 0 0 0 0 0 0 0 0 0 0 0 0 127 0"/><feOffset dx=".2"/><feGaussianBlur stdDeviation=".125"/><feComposite in2="hardAlpha" k2="-1" k3="1" operator="arithmetic"/><feColorMatrix type="matrix" values="0 0 0 0 0.258824 0 0 0 0 0.258824 0 0 0 0 0.258824 0 0 0 1 0"/><feBlend in2="shape" mode="normal" result="effect1_innerShadow_4002_1217"/></filter><filter id="e" color-interpolation-filters="sRGB" filterUnits="userSpaceOnUse" height="9.0285" width="6.43097" x="12.5275" y="16.5115"><feFlood flood-opacity="0" result="BackgroundImageFix"/><feBlend in="SourceGraphic" in2="BackgroundImageFix" mode="normal" result="shape"/><feGaussianBlur result="effect1_foregroundBlur_4002_1217" stdDeviation=".25"/></filter><filter id="f" color-interpolation-filters="sRGB" filterUnits="userSpaceOnUse" height="4.46017" width="6.42969" x="12.7333" y="14.6928"><feFlood flood-opacity="0" result="BackgroundImageFix"/><feBlend in="SourceGraphic" in2="BackgroundImageFix" mode="normal" result="shape"/><feColorMatrix in="SourceAlpha" result="hardAlpha" type="matrix" values="0 0 0 0 0 0 0 0 0 0 0 0 0 0 0 0 0 0 127 0"/><feOffset dy="-.35"/><feGaussianBlur stdDeviation=".35"/><feComposite in2="hardAlpha" k2="-1" k3="1" operator="arithmetic"/><feColorMatrix type="matrix" values="0 0 0 0 0.901961 0 0 0 0 0.835294 0 0 0 0 0.956863 0 0 0 1 0"/><feBlend in2="shape" mode="normal" result="effect1_innerShadow_4002_1217"/><feColorMatrix in="SourceAlpha" result="hardAlpha" type="matrix" values="0 0 0 0 0 0 0 0 0 0 0 0 0 0 0 0 0 0 127 0"/><feOffset dy="-.25"/><feGaussianBlur stdDeviation=".2"/><feComposite in2="hardAlpha" k2="-1" k3="1" operator="arithmetic"/><feColorMatrix type="matrix" values="0 0 0 0 0.839216 0 0 0 0 0.733333 0 0 0 0 0.905882 0 0 0 1 0"/><feBlend in2="effect1_innerShadow_4002_1217" mode="normal" result="effect2_innerShadow_4002_1217"/></filter><filter id="g" color-interpolation-filters="sRGB" filterUnits="userSpaceOnUse" height="8.00585" width="5.53097" x="13.2194" y="17.1717"><feFlood flood-opacity="0" result="BackgroundImageFix"/><feBlend in="SourceGraphic" in2="BackgroundImageFix" mode="normal" result="shape"/><feColorMatrix in="SourceAlpha" result="hardAlpha" type="matrix" values="0 0 0 0 0 0 0 0 0 0 0 0 0 0 0 0 0 0 127 0"/><feOffset dx=".1" dy="-.25"/><feGaussianBlur stdDeviation=".25"/><feComposite in2="hardAlpha" k2="-1" k3="1" operator="arithmetic"/><feColorMatrix type="matrix" values="0 0 0 0 0.854902 0 0 0 0 0.705882 0 0 0 0 0.941176 0 0 0 1 0"/><feBlend in2="shape" mode="normal" result="effect1_innerShadow_4002_1217"/><feColorMatrix in="SourceAlpha" result="hardAlpha" type="matrix" values="0 0 0 0 0 0 0 0 0 0 0 0 0 0 0 0 0 0 127 0"/><feOffset dy=".2"/><feGaussianBlur stdDeviation=".25"/><feComposite in2="hardAlpha" k2="-1" k3="1" operator="arithmetic"/><feColorMatrix type="matrix" values="0 0 0 0 0.760784 0 0 0 0 0.670588 0 0 0 0 0.847059 0 0 0 1 0"/><feBlend in2="effect1_innerShadow_4002_1217" mode="normal" result="effect2_innerShadow_4002_1217"/></filter><filter id="h" color-interpolation-filters="sRGB" filterUnits="userSpaceOnUse" height="12.4223" width="11.1953" x="10.7213" y="3.76117"><feFlood flood-opacity="0" result="BackgroundImageFix"/><feBlend in="SourceGraphic" in2="BackgroundImageFix" mode="normal" result="shape"/><feColorMatrix in="SourceAlpha" result="hardAlpha" type="matrix" values="0 0 0 0 0 0 0 0 0 0 0 0 0 0 0 0 0 0 127 0"/><feOffset dx="1"/><feGaussianBlur stdDeviation=".375"/><feComposite in2="hardAlpha" k2="-1" k3="1" operator="arithmetic"/><feColorMatrix type="matrix" values="0 0 0 0 0.32549 0 0 0 0 0.254902 0 0 0 0 0.243137 0 0 0 1 0"/><feBlend in2="shape" mode="normal" result="effect1_innerShadow_4002_1217"/></filter><filter id="i" color-interpolation-filters="sRGB" filterUnits="userSpaceOnUse" height="1.54583" width="3.56566" x="14.1653" y="12.3454"><feFlood flood-opacity="0" result="BackgroundImageFix"/><feBlend in="SourceGraphic" in2="BackgroundImageFix" mode="normal" result="shape"/><feGaussianBlur result="effect1_foregroundBlur_4002_1217" stdDeviation=".05"/></filter><filter id="j" color-interpolation-filters="sRGB" filterUnits="userSpaceOnUse" height="3.37993" width="1.79772" x="20.8803" y="7.51163"><feFlood flood-opacity="0" result="BackgroundImageFix"/><feBlend in="SourceGraphic" in2="BackgroundImageFix" mode="normal" result="shape"/><feGaussianBlur result="effect1_foregroundBlur_4002_1217" stdDeviation=".05"/></filter><filter id="k" color-interpolation-filters="sRGB" filterUnits="userSpaceOnUse" height="3.59537" width="2.01682" x="9.09187" y="7.41163"><feFlood flood-opacity="0" result="BackgroundImageFix"/><feBlend in="SourceGraphic" in2="BackgroundImageFix" mode="normal" result="shape"/><feGaussianBlur result="effect1_foregroundBlur_4002_1217" stdDeviation=".1"/></filter><filter id="l" color-interpolation-filters="sRGB" filterUnits="userSpaceOnUse" height="5.72266" width="12.6832" x="9.64788" y="1.93341"><feFlood flood-opacity="0" result="BackgroundImageFix"/><feBlend in="SourceGraphic" in2="BackgroundImageFix" mode="normal" result="shape"/><feColorMatrix in="SourceAlpha" result="hardAlpha" type="matrix" values="0 0 0 0 0 0 0 0 0 0 0 0 0 0 0 0 0 0 127 0"/><feOffset dx=".3"/><feGaussianBlur stdDeviation=".25"/><feComposite in2="hardAlpha" k2="-1" k3="1" operator="arithmetic"/><feColorMatrix type="matrix" values="0 0 0 0 0.278431 0 0 0 0 0.278431 0 0 0 0 0.278431 0 0 0 1 0"/><feBlend in2="shape" mode="normal" result="effect1_innerShadow_4002_1217"/><feColorMatrix in="SourceAlpha" result="hardAlpha" type="matrix" values="0 0 0 0 0 0 0 0 0 0 0 0 0 0 0 0 0 0 127 0"/><feOffset dx="-.3"/><feGaussianBlur stdDeviation=".25"/><feComposite in2="hardAlpha" k2="-1" k3="1" operator="arithmetic"/><feColorMatrix type="matrix" values="0 0 0 0 0.278431 0 0 0 0 0.278431 0 0 0 0 0.278431 0 0 0 1 0"/><feBlend in2="effect1_innerShadow_4002_1217" mode="normal" result="effect2_innerShadow_4002_1217"/></filter><filter id="m" color-interpolation-filters="sRGB" filterUnits="userSpaceOnUse" height="3.49255" width="6.90553" x="15.3135" y="2.25104"><feFlood flood-opacity="0" result="BackgroundImageFix"/><feBlend in="SourceGraphic" in2="BackgroundImageFix" mode="normal" result="shape"/><feGaussianBlur result="effect1_foregroundBlur_4002_1217" stdDeviation=".25"/></filter><filter id="n" color-interpolation-filters="sRGB" filterUnits="userSpaceOnUse" height=".867932" width="2.17657" x="12.1994" y="6.67336"><feFlood flood-opacity="0" result="BackgroundImageFix"/><feBlend in="SourceGraphic" in2="BackgroundImageFix" mode="normal" result="shape"/><feGaussianBlur result="effect1_foregroundBlur_4002_1217" stdDeviation=".075"/></filter><filter id="o" color-interpolation-filters="sRGB" filterUnits="userSpaceOnUse" height=".867932" width="2.17657" x="17.4875" y="6.61465"><feFlood flood-opacity="0" result="BackgroundImageFix"/><feBlend in="SourceGraphic" in2="BackgroundImageFix" mode="normal" result="shape"/><feGaussianBlur result="effect1_foregroundBlur_4002_1217" stdDeviation=".075"/></filter><filter id="p" color-interpolation-filters="sRGB" filterUnits="userSpaceOnUse" height="4.18372" width="3.26163" x="14.0963" y="8.69708"><feFlood flood-opacity="0" result="BackgroundImageFix"/><feBlend in="SourceGraphic" in2="BackgroundImageFix" mode="normal" result="shape"/><feGaussianBlur result="effect1_foregroundBlur_4002_1217" stdDeviation=".375"/></filter><filter id="q" color-interpolation-filters="sRGB" filterUnits="userSpaceOnUse" height="3.08372" width="2.2786" x="14.827" y="9.08387"><feFlood flood-opacity="0" result="BackgroundImageFix"/><feBlend in="SourceGraphic" in2="BackgroundImageFix" mode="normal" result="shape"/><feGaussianBlur result="effect1_foregroundBlur_4002_1217" stdDeviation=".1"/></filter><filter id="r" color-interpolation-filters="sRGB" filterUnits="userSpaceOnUse" height=".696643" width=".78725" x="17.4124" y="8.72928"><feFlood flood-opacity="0" result="BackgroundImageFix"/><feBlend in="SourceGraphic" in2="BackgroundImageFix" mode="normal" result="shape"/><feGaussianBlur result="effect1_foregroundBlur_4002_1217" stdDeviation=".05"/></filter><filter id="s" color-interpolation-filters="sRGB" filterUnits="userSpaceOnUse" height=".913794" width=".891577" x="18.2532" y="8.80446"><feFlood flood-opacity="0" result="BackgroundImageFix"/><feBlend in="SourceGraphic" in2="BackgroundImageFix" mode="normal" result="shape"/><feGaussianBlur result="effect1_foregroundBlur_4002_1217" stdDeviation=".1"/></filter><filter id="t" color-interpolation-filters="sRGB" filterUnits="userSpaceOnUse" height="1.04069" width=".986761" x="13.807" y="8.74098"><feFlood flood-opacity="0" result="BackgroundImageFix"/><feBlend in="SourceGraphic" in2="BackgroundImageFix" mode="normal" result="shape"/><feGaussianBlur result="effect1_foregroundBlur_4002_1217" stdDeviation=".1"/></filter><filter id="u" color-interpolation-filters="sRGB" filterUnits="userSpaceOnUse" height=".704883" width=".913577" x="13.0515" y="8.72123"><feFlood flood-opacity="0" result="BackgroundImageFix"/><feBlend in="SourceGraphic" in2="BackgroundImageFix" mode="normal" result="shape"/><feGaussianBlur result="effect1_foregroundBlur_4002_1217" stdDeviation=".05"/></filter><radialGradient id="v" cx="0" cy="0" gradientTransform="matrix(3.93789896 -7.29126288 14.31502639 7.73132561 20.5531 15.8641)" gradientUnits="userSpaceOnUse" r="1"><stop offset="0" stop-color="#d82535"/><stop offset="1" stop-color="#e82e5c"/></radialGradient><radialGradient id="w" cx="0" cy="0" gradientTransform="matrix(-2.92122058 7.0615121 -2.22108174 -.91882158 27.5729 11.3397)" gradientUnits="userSpaceOnUse" r="1"><stop offset=".180333" stop-color="#534263"/><stop offset="1" stop-color="#3d3743"/></radialGradient><radialGradient id="x" cx="0" cy="0" gradientTransform="matrix(-1.5624825 4.15625655 -.42744411 -.16069122 27.3229 11.8084)" gradientUnits="userSpaceOnUse" r="1"><stop offset="0" stop-color="#574b64"/><stop offset="1" stop-color="#574b64" stop-opacity="0"/></radialGradient><radialGradient id="y" cx="0" cy="0" gradientTransform="matrix(-4.58397238 -6.61442213 12.98618194 -8.99977325 12.4928 16.141)" gradientUnits="userSpaceOnUse" r="1"><stop offset="0" stop-color="#d82535"/><stop offset=".0001" stop-color="#e33e4b"/><stop offset="1" stop-color="#e73665"/></radialGradient><linearGradient id="z" gradientUnits="userSpaceOnUse" x1="5.53995" x2="8.86255" y1="11.0956" y2="17.4639"><stop offset="0" stop-color="#554961"/><stop offset="1" stop-color="#302736"/></linearGradient><linearGradient id="A" gradientUnits="userSpaceOnUse" x1="15.9349" x2="15.9349" y1="14.6834" y2="29.0584"><stop offset="0" stop-color="#503d5d"/><stop offset="1" stop-color="#553d71"/></linearGradient><radialGradient id="B" cx="0" cy="0" gradientTransform="matrix(-6.03133098 -10.93746509 29.19792306 -16.10083657 17.0729 26.1522)" gradientUnits="userSpaceOnUse" r="1"><stop offset=".870284" stop-color="#56475f" stop-opacity="0"/><stop offset="1" stop-color="#56475f"/></radialGradient><radialGradient id="C" cx="0" cy="0" gradientTransform="matrix(5.15623086 -11.12497293 26.15999032 12.12469911 15.4791 26.5584)" gradientUnits="userSpaceOnUse" r="1"><stop offset=".86318" stop-color="#60506b" stop-opacity="0"/><stop offset="1" stop-color="#60506b"/></radialGradient><radialGradient id="D" cx="0" cy="0" gradientTransform="matrix(-3.71875 0 0 -14.5625 23.2916 22.4334)" gradientUnits="userSpaceOnUse" r="1"><stop offset="0" stop-color="#746784"/><stop offset="1" stop-color="#604f70" stop-opacity="0"/></radialGradient><radialGradient id="E" cx="0" cy="0" gradientTransform="matrix(0 15.6875 -.226561 0 19.2057 15.8397)" gradientUnits="userSpaceOnUse" r="1"><stop offset=".0385956" stop-color="#47304f"/><stop offset="1" stop-color="#47304f" stop-opacity="0"/></radialGradient><radialGradient id="F" cx="0" cy="0" gradientTransform="matrix(-1.15622817 3.5000039 -5.72433384 -1.89103676 12.6666 15.4647)" gradientUnits="userSpaceOnUse" r="1"><stop offset=".0946597" stop-color="#47374c"/><stop offset="1" stop-color="#47374c" stop-opacity="0"/></radialGradient><linearGradient id="G" gradientUnits="userSpaceOnUse" x1="8.66127" x2="8.93777" y1="29.0584" y2="29.0584"><stop offset="0" stop-color="#453455"/><stop offset="1" stop-color="#453455" stop-opacity="0"/></linearGradient><linearGradient id="H" gradientUnits="userSpaceOnUse" x1="23.2057" x2="22.776" y1="29.0584" y2="29.0584"><stop offset=".136367" stop-color="#4a2f65"/><stop offset="1" stop-color="#665579" stop-opacity="0"/></linearGradient><radialGradient id="I" cx="0" cy="0" gradientTransform="matrix(0 -11.6045 2.48458 0 23.8545 29.0584)" gradientUnits="userSpaceOnUse" r="1"><stop offset=".467219" stop-color="#6b5a80"/><stop offset="1" stop-color="#605075"/></radialGradient><radialGradient id="J" cx="0" cy="0" gradientTransform="matrix(0 -13.5781 .524658 0 23.1107 29.0584)" gradientUnits="userSpaceOnUse" r="1"><stop offset=".195627" stop-color="#48335e"/><stop offset="1" stop-color="#48335e" stop-opacity="0"/></radialGradient><radialGradient id="K" cx="0" cy="0" gradientTransform="matrix(0 -10.2188 2.95614 0 7.29163 29.0584)" gradientUnits="userSpaceOnUse" r="1"><stop offset="0" stop-color="#543e6e"/><stop offset="1" stop-color="#483859"/></radialGradient><radialGradient id="L" cx="0" cy="0" gradientTransform="matrix(-4.21875 0 0 -14.5625 8.54163 28.5896)" gradientUnits="userSpaceOnUse" r="1"><stop offset=".57037" stop-color="#655578" stop-opacity="0"/><stop offset="1" stop-color="#655578"/></radialGradient><linearGradient id="M" gradientUnits="userSpaceOnUse" x1="8.75916" x2="7.51038" y1="27.8709" y2="27.8709"><stop offset="0" stop-color="#423153"/><stop offset="1" stop-color="#423153" stop-opacity="0"/></linearGradient><linearGradient id="N" gradientUnits="userSpaceOnUse" x1="15.9392" x2="15.9392" y1="20.0272" y2="29.0584"><stop offset="0" stop-color="#e32d3d"/><stop offset="1" stop-color="#ff3779"/></linearGradient><linearGradient id="O" gradientUnits="userSpaceOnUse" x1="15.9392" x2="15.9392" y1="29.0584" y2="26.4022"><stop offset="0" stop-color="#f73397"/><stop offset="1" stop-color="#f73397" stop-opacity="0"/></linearGradient><linearGradient id="P" gradientUnits="userSpaceOnUse" x1="19.5417" x2="17.6979" y1="27.8709" y2="27.8709"><stop offset=".118644" stop-color="#c52133"/><stop offset="1" stop-color="#dd2864" stop-opacity="0"/></linearGradient><radialGradient id="Q" cx="0" cy="0" gradientTransform="matrix(2.25000059 3.53124942 -5.20827558 3.31854869 15.0471 15.3553)" gradientUnits="userSpaceOnUse" r="1"><stop offset=".117867" stop-color="#b3a9bc"/><stop offset="1" stop-color="#eae1f3"/></radialGradient><radialGradient id="R" cx="0" cy="0" gradientTransform="matrix(.37500055 3.37500052 -7.05107823 .78345416 14.7292 13.4647)" gradientUnits="userSpaceOnUse" r="1"><stop offset=".339432" stop-color="#a99494"/><stop offset="1" stop-color="#a99494" stop-opacity="0"/></radialGradient><radialGradient id="S" cx="0" cy="0" gradientTransform="matrix(0 1.87568 -2.6343 0 15.9481 15.4959)" gradientUnits="userSpaceOnUse" r="1"><stop offset=".208257" stop-color="#776484"/><stop offset="1" stop-color="#9c8ea7" stop-opacity="0"/></radialGradient><linearGradient id="T" gradientUnits="userSpaceOnUse" x1="15.9348" x2="15.9348" y1="16.949" y2="24.9775"><stop offset="0" stop-color="#f4dff7"/><stop offset="1" stop-color="#f3e0ff"/></linearGradient><radialGradient id="U" cx="0" cy="0" gradientTransform="matrix(-5.96874343 2.93750348 -2.90055745 -5.89367241 19.3906 8.82407)" gradientUnits="userSpaceOnUse" r="1"><stop offset="0" stop-color="#583e3b"/><stop offset="1" stop-color="#3c2728"/></radialGradient><radialGradient id="V" cx="0" cy="0" gradientTransform="matrix(5.26561952 -5.10937379 1.36318259 1.404869 11.3125 5.24594)" gradientUnits="userSpaceOnUse" r="1"><stop offset="0" stop-color="#200f10"/><stop offset="1" stop-color="#200f10" stop-opacity="0"/></radialGradient><radialGradient id="W" cx="0" cy="0" gradientTransform="matrix(2.99474978 -2.0937465 1.42284551 2.03513953 18.1719 4.85532)" gradientUnits="userSpaceOnUse" r="1"><stop offset="0" stop-color="#6a5856"/><stop offset="1" stop-color="#6a5856" stop-opacity="0"/></radialGradient><radialGradient id="X" cx="0" cy="0" gradientTransform="matrix(4.28124866 -6.34374854 6.55434615 4.4233761 15.3281 10.3866)" gradientUnits="userSpaceOnUse" r="1"><stop offset=".841439" stop-color="#442c29" stop-opacity="0"/><stop offset=".945739" stop-color="#402825"/></radialGradient><radialGradient id="Y" cx="0" cy="0" gradientTransform="matrix(0 -1.10937 6.74738 0 15.944 16.1834)" gradientUnits="userSpaceOnUse" r="1"><stop offset="0" stop-color="#5b4161"/><stop offset="1" stop-color="#5b4161" stop-opacity="0"/></radialGradient><radialGradient id="Z" cx="0" cy="0" gradientTransform="matrix(0 -1.40625 1.52344 0 18.4844 8.60532)" gradientUnits="userSpaceOnUse" r="1"><stop offset="0" stop-color="#422628"/><stop offset=".993885" stop-color="#422628" stop-opacity="0"/></radialGradient><radialGradient id="aa" cx="0" cy="0" gradientTransform="matrix(-.7421979 -1.33593447 1.4726434 -.81814854 13.8437 8.76938)" gradientUnits="userSpaceOnUse" r="1"><stop offset="0" stop-color="#361e26"/><stop offset=".996249" stop-color="#361e26" stop-opacity="0"/></radialGradient><radialGradient id="ab" cx="0" cy="0" gradientTransform="matrix(-3.34374946 3.31249858 -4.33742627 -4.37834656 20.9166 3.05838)" gradientUnits="userSpaceOnUse" r="1"><stop offset=".116773" stop-color="#494949"/><stop offset="1" stop-color="#494949" stop-opacity="0"/></radialGradient><radialGradient id="ac" cx="0" cy="0" gradientTransform="matrix(-2.37499248 -2.06251265 3.5748357 -4.11643921 10.8853 5.30838)" gradientUnits="userSpaceOnUse" r="1"><stop offset=".151698" stop-color="#4a4a4a"/><stop offset="1" stop-color="#494949" stop-opacity="0"/></radialGradient><radialGradient id="ad" cx="0" cy="0" gradientTransform="matrix(0 1.24277 -3.79959 0 15.9349 1.15936)" gradientUnits="userSpaceOnUse" r="1"><stop offset="0" stop-color="#404040"/><stop offset="1" stop-color="#404040" stop-opacity="0"/></radialGradient><linearGradient id="ae" gradientUnits="userSpaceOnUse" x1="21.5416" x2="22.4166" y1="7.52718" y2="10.2147"><stop offset="0" stop-color="#463032"/><stop offset="1" stop-color="#4c3332"/></linearGradient><radialGradient id="af" cx="0" cy="0" gradientTransform="matrix(-1.68749983 1.84474778 -.4116256 -.37653827 23.5313 6.76056)" gradientUnits="userSpaceOnUse" r="1"><stop offset="0" stop-color="#665654"/><stop offset="1" stop-color="#665654" stop-opacity="0"/></radialGradient><linearGradient id="ag" gradientUnits="userSpaceOnUse" x1="21.8619" x2="22.1306" y1="7.26937" y2="7.69124"><stop offset="0" stop-color="#2f1c19"/><stop offset="1" stop-color="#2f1c19" stop-opacity="0"/></linearGradient><linearGradient id="ah" gradientUnits="userSpaceOnUse" x1="8.97913" x2="11.3854" y1="9.62093" y2="8.62093"><stop offset="0" stop-color="#382326"/><stop offset="1" stop-color="#221210"/></linearGradient><radialGradient id="ai" cx="0" cy="0" gradientTransform="matrix(-.2968759 .47656166 -2.49611165 -1.55496229 10.4791 7.48812)" gradientUnits="userSpaceOnUse" r="1"><stop offset=".315973" stop-color="#281717"/><stop offset="1" stop-color="#281717" stop-opacity="0"/></radialGradient><linearGradient id="aj" gradientUnits="userSpaceOnUse" x1="15.9481" x2="15.9481" y1="13.8006" y2="13.3788"><stop offset="0" stop-color="#4d3c3c"/><stop offset="1" stop-color="#4d3c3c" stop-opacity="0"/></linearGradient><linearGradient id="ak" gradientUnits="userSpaceOnUse" x1="17.479" x2="16.9399" y1="12.9881" y2="13.2303"><stop offset="0" stop-color="#e6deec"/><stop offset="1" stop-color="#d3cadb"/></linearGradient><linearGradient id="al" gradientUnits="userSpaceOnUse" x1="14.9688" x2="14.5156" y1="13.2303" y2="13.1572"><stop offset="0" stop-color="#d1c8d8"/><stop offset="1" stop-color="#c7becf"/></linearGradient><radialGradient id="am" cx="0" cy="0" gradientTransform="matrix(1.5977205 -1.40625248 .59778812 .67917984 20.9803 9.43338)" gradientUnits="userSpaceOnUse" r="1"><stop offset="0" stop-color="#473031"/><stop offset="1" stop-color="#3e2322"/></radialGradient><radialGradient id="an" cx="0" cy="0" gradientTransform="matrix(.77099591 .03125092 -.0992868 2.44951862 20.8386 9.43338)" gradientUnits="userSpaceOnUse" r="1"><stop offset=".119331" stop-color="#594948"/><stop offset="1" stop-color="#594948" stop-opacity="0"/></radialGradient><radialGradient id="ao" cx="0" cy="0" gradientTransform="matrix(-1.61682168 -1.79050248 1.61556914 -1.45885708 10.9087 9.40213)" gradientUnits="userSpaceOnUse" r="1"><stop offset=".10633" stop-color="#301f25"/><stop offset="1" stop-color="#38212d"/></radialGradient><radialGradient id="ap" cx="0" cy="0" gradientTransform="matrix(-1.18122571 .63381898 -1.16712754 -2.17513375 11.0101 8.88978)" gradientUnits="userSpaceOnUse" r="1"><stop offset=".583372" stop-color="#443738" stop-opacity="0"/><stop offset="1" stop-color="#443738"/></radialGradient><linearGradient id="aq"><stop offset="0" stop-color="#d2bdd8"/><stop offset="1" stop-color="#dfcfe8" stop-opacity="0"/></linearGradient><linearGradient id="ar" gradientUnits="userSpaceOnUse" x1="16.3505" x2="16.4792" xlink:href="#aq" y1="18.2068" y2="18.8162"/><linearGradient id="as" gradientUnits="userSpaceOnUse" x1="15.5458" x2="15.4171" xlink:href="#aq" y1="18.2068" y2="18.8162"/><linearGradient id="at"><stop offset="0" stop-color="#281c22"/><stop offset="1" stop-color="#301d1b"/><stop offset="1" stop-color="#1f1216"/></linearGradient><linearGradient id="au" gradientUnits="userSpaceOnUse" x1="12.4479" x2="14.4333" xlink:href="#at" y1="7.5702" y2="6.87096"/><linearGradient id="av" gradientUnits="userSpaceOnUse" x1="19.4303" x2="17.4449" xlink:href="#at" y1="7.5702" y2="6.87096"/><radialGradient id="aw" cx="0" cy="0" gradientTransform="matrix(0 1 -6.0416 0 15.9895 1.93341)" gradientUnits="userSpaceOnUse" r="1"><stop offset="0" stop-color="#202020"/><stop offset="1" stop-color="#202020" stop-opacity="0"/></radialGradient><radialGradient id="ax" cx="0" cy="0" gradientTransform="matrix(0 -1.45508 3.06778 0 15.9895 4.79474)" gradientUnits="userSpaceOnUse" r="1"><stop offset="0" stop-color="#21132a"/><stop offset="1" stop-color="#21132a" stop-opacity="0"/></radialGradient><radialGradient id="ay" cx="0" cy="0" gradientTransform="matrix(1.62500179 -2.68750344 1.3597154 .82215335 12.2657 5.74591)" gradientUnits="userSpaceOnUse" r="1"><stop offset=".324165" stop-color="#060303"/><stop offset="1" stop-color="#060303" stop-opacity="0"/></radialGradient><radialGradient id="az" cx="0" cy="0" gradientTransform="matrix(-2.18748766 -3.43750607 1.73189731 -1.1021083 20.1251 6.76153)" gradientUnits="userSpaceOnUse" r="1"><stop offset=".502076" stop-color="#060303"/><stop offset="1" stop-color="#060303" stop-opacity="0"/></radialGradient><linearGradient id="aA" gradientUnits="userSpaceOnUse" x1="16.0416" x2="20.276" y1="4.48027" y2="3.2459"><stop offset=".16409" stop-color="#505050"/><stop offset=".480767" stop-color="#484848" stop-opacity="0"/><stop offset=".741735" stop-color="#616161"/></linearGradient><linearGradient id="aB"><stop offset="0" stop-color="#4e4649"/><stop offset="1" stop-color="#4e4649" stop-opacity="0"/></linearGradient><linearGradient id="aC" gradientUnits="userSpaceOnUse" x1="14.0573" x2="12.1744" xlink:href="#aB" y1="6.89838" y2="7.2694"/><linearGradient id="aD" gradientUnits="userSpaceOnUse" x1="19.4391" x2="16.9733" xlink:href="#aB" y1="7.25756" y2="7.04861"/><linearGradient id="aE" gradientUnits="userSpaceOnUse" x1="16.8051" x2="15.9665" y1="10.8524" y2="10.8901"><stop offset=".360477" stop-color="#66514e"/><stop offset="1" stop-color="#66514e" stop-opacity="0"/></linearGradient><radialGradient id="aF" cx="0" cy="0" gradientTransform="matrix(0 .225894 -.767728 0 16.4329 11.487)" gradientUnits="userSpaceOnUse" r="1"><stop offset="0" stop-color="#685554"/><stop offset="1" stop-color="#685554" stop-opacity="0"/></radialGradient><linearGradient id="aG" gradientUnits="userSpaceOnUse" x1="15.9663" x2="15.9663" y1="11.9065" y2="11.4763"><stop offset="0" stop-color="#3e2230"/><stop offset="1" stop-color="#3e2230" stop-opacity="0"/></linearGradient><radialGradient id="aH" cx="0" cy="0" gradientTransform="matrix(-1.5222332 .64539727 -.9839049 -2.32063687 16.5492 10.9599)" gradientUnits="userSpaceOnUse" r="1"><stop offset=".714105" stop-color="#3e2b29" stop-opacity="0"/><stop offset="1" stop-color="#3f2c2a"/></radialGradient><linearGradient id="aI" gradientUnits="userSpaceOnUse" x1="15.9663" x2="15.9663" y1="9.17232" y2="9.90909"><stop offset="0" stop-color="#4b302a"/><stop offset="1" stop-color="#4b302a" stop-opacity="0"/></linearGradient><linearGradient id="aJ"><stop offset=".426258" stop-color="#ff136b"/><stop offset="1" stop-color="#ff242f"/></linearGradient><radialGradient id="aK" cx="0" cy="0" gradientTransform="matrix(-.26170641 -.50778598 .80408477 -.41441501 18.1706 9.42564)" gradientUnits="userSpaceOnUse" r="1" xlink:href="#aJ"/><linearGradient id="aL"><stop offset=".765532" stop-color="#ffc2c8" stop-opacity="0"/><stop offset="1" stop-color="#ffc2c8"/></linearGradient><radialGradient id="aM" cx="0" cy="0" gradientTransform="matrix(-.23208351 -.2990709 .41174845 -.31952298 17.9186 9.25357)" gradientUnits="userSpaceOnUse" r="1" xlink:href="#aL"/><linearGradient id="aN"><stop offset="0" stop-color="#ff6d74"/><stop offset="1" stop-color="#e5e5e5" stop-opacity="0"/></linearGradient><linearGradient id="aO" gradientUnits="userSpaceOnUse" x1="18.8866" x2="18.63" xlink:href="#aN" y1="9.23082" y2="9.396"/><radialGradient id="aP" cx="0" cy="0" gradientTransform="matrix(-.26171969 -.50781176 .80412654 -.41443654 13.8035 9.42555)" gradientUnits="userSpaceOnUse" r="1" xlink:href="#aJ"/><linearGradient id="aQ" gradientUnits="userSpaceOnUse" x1="14.5242" x2="14.2102" xlink:href="#aN" y1="9.22326" y2="9.41673"/><radialGradient id="aR" cx="0" cy="0" gradientTransform="matrix(-.00774133 -.4944364 .59433316 -.0093054 13.4932 9.38883)" gradientUnits="userSpaceOnUse" r="1" xlink:href="#aL"/><path d="m26.4783 10.6563c-2.2431-2.14342-5.0515-3.37659-6.3338-3.81664l-4.0625 12.31254h5.8907c2.9155-1.118 4.4303-4.5282 4.9856-6.8945.1365-.5816-.0481-1.1886-.48-1.6014z" fill="url(#v)"/><g filter="url(#a)"><path d="m25.9789 10.2015c.1689.1468.3357.2984.4994.4548.4319.4128.6165 1.0198.48 1.6015-.4611 1.9646-1.5836 4.6489-3.6201 6.1434l-1.0374-.6943c2.5875-1.72 3.6963-4.9698 3.6781-7.5054z" fill="url(#w)"/><path d="m25.9789 10.2015c.1689.1468.3357.2984.4994.4548.4319.4128.6165 1.0198.48 1.6015-.4611 1.9646-1.5836 4.6489-3.6201 6.1434l-1.0374-.6943c2.5875-1.72 3.6963-4.9698 3.6781-7.5054z" fill="url(#x)"/></g><path d="m5.77049 10.6563c2.24308-2.14342 5.05141-3.37659 6.33371-3.81664l4.0625 12.31254h-5.8906c-2.91554-1.118-4.43029-4.5282-4.98563-6.8945-.1365-.5816.04811-1.1886.48002-1.6014z" fill="url(#y)"/><g filter="url(#b)"><path d="m6.2699 10.2015c-.16894.1468-.33568.2984-.49941.4548-.43191.4128-.61652 1.0198-.48002 1.6015.46109 1.9646 1.58357 4.6489 3.62008 6.1434l1.03745-.6943c-2.58755-1.72-3.69635-4.9698-3.6781-7.5054z" fill="url(#z)"/></g><path d="m15.9349 14.6834c-6.04058 0-10.93746 5.1-10.93746 11.1406v3.2344h21.87496v-3.2344c0-6.0406-4.8968-11.1406-10.9375-11.1406z" fill="url(#A)"/><path d="m15.9349 14.6834c-6.04058 0-10.93746 5.1-10.93746 11.1406v3.2344h21.87496v-3.2344c0-6.0406-4.8968-11.1406-10.9375-11.1406z" fill="url(#B)"/><path d="m15.9349 14.6834c-6.04058 0-10.93746 5.1-10.93746 11.1406v3.2344h21.87496v-3.2344c0-6.0406-4.8968-11.1406-10.9375-11.1406z" fill="url(#C)"/><path d="m15.9349 14.6834c-6.04058 0-10.93746 5.1-10.93746 11.1406v3.2344h21.87496v-3.2344c0-6.0406-4.8968-11.1406-10.9375-11.1406z" fill="url(#D)"/><path d="m15.9349 14.6834c-6.04058 0-10.93746 5.1-10.93746 11.1406v3.2344h21.87496v-3.2344c0-6.0406-4.8968-11.1406-10.9375-11.1406z" fill="url(#E)"/><path d="m15.9349 14.6834c-6.04058 0-10.93746 5.1-10.93746 11.1406v3.2344h21.87496v-3.2344c0-6.0406-4.8968-11.1406-10.9375-11.1406z" fill="url(#F)"/><path d="m15.9349 14.6834c-6.04058 0-10.93746 5.1-10.93746 11.1406v3.2344h21.87496v-3.2344c0-6.0406-4.8968-11.1406-10.9375-11.1406z" fill="url(#G)"/><path d="m15.9349 14.6834c-6.04058 0-10.93746 5.1-10.93746 11.1406v3.2344h21.87496v-3.2344c0-6.0406-4.8968-11.1406-10.9375-11.1406z" fill="url(#H)"/><path d="m23.1107 17.4539v11.6045h3.7617v-3.2344c0-3.2949-1.4569-6.3099-3.7617-8.3701z" fill="url(#I)"/><path d="m23.1107 17.4539v11.6045h3.7617v-3.2344c0-3.2949-1.4569-6.3099-3.7617-8.3701z" fill="url(#J)"/><path d="m8.75916 17.4539v11.6045h-3.76172v-3.2344c0-3.2949 1.45693-6.3099 3.76172-8.3701z" fill="url(#K)"/><path d="m8.75916 17.4539v11.6045h-3.76172v-3.2344c0-3.2949 1.45693-6.3099 3.76172-8.3701z" fill="url(#L)"/><path d="m8.75916 17.4539v11.6045h-3.76172v-3.2344c0-3.2949 1.45693-6.3099 3.76172-8.3701z" fill="url(#M)"/><path d="m12.7333 29.0584v-13.8923c1.0077-.3134 2.0763-.4827 3.1832-.4827 1.1235 0 2.2076.1744 3.2286.4969v13.8781z" fill="url(#N)"/><path d="m12.7333 29.0584v-13.8923c1.0077-.3134 2.0763-.4827 3.1832-.4827 1.1235 0 2.2076.1744 3.2286.4969v13.8781z" fill="url(#O)"/><path d="m12.7333 29.0584v-13.8923c1.0077-.3134 2.0763-.4827 3.1832-.4827 1.1235 0 2.2076.1744 3.2286.4969v13.8781z" fill="url(#P)"/><g filter="url(#c)"><path d="m12.964 18.9405v-3.4846h5.9684v3.3872c0 .3741-.2163.5597-.7216.3222-.6853-.3222-2.2771-1.5012-2.2771-1.5012s-1.7927 1.2884-2.23 1.483c-.4373.1947-.7397.1681-.7397-.2066z" fill="#bb172a"/></g><g filter="url(#d)"><path d="m10.1744 11.8358-.0312-1.1446h1.3828v3.2735c-1.125-.5235-1.3542-1.6029-1.3516-2.1289z" fill="#302838"/></g><path d="m21.7216 11.8358.0312-1.1446h-1.3828v3.2735c1.125-.5235 1.3542-1.6029 1.3516-2.1289z" fill="#1e1c21"/><g filter="url(#e)"><path d="m14.1774 17.0115-1.1444 6.9859c-.0548.3346.3081.581.6022.4088l.2013-.1179c.1734-.1016.3911-.0908.5534.0274l.7057.5137c.3859.2809.9088.2809 1.2947 0l.7057-.5137c.1623-.1182.38-.129.5534-.0274l.2013.1179c.2941.1722.657-.0742.6022-.4088l-1.1444-6.9859z" fill="#c91a3b"/></g><g filter="url(#f)"><path d="m12.7333 18.7967v-3.7539h6.4297v3.649c0 .403-.233.603-.7774.3471-.7383-.3471-2.4531-1.6172-2.4531-1.6172s-1.9313 1.388-2.4023 1.5976c-.4711.2097-.7969.1812-.7969-.2226z" fill="url(#Q)"/><path d="m12.7333 18.7967v-3.7539h6.4297v3.649c0 .403-.233.603-.7774.3471-.7383-.3471-2.4531-1.6172-2.4531-1.6172s-1.9313 1.388-2.4023 1.5976c-.4711.2097-.7969.1812-.7969-.2226z" fill="url(#R)"/><path d="m12.7333 18.7967v-3.7539h6.4297v3.649c0 .403-.233.603-.7774.3471-.7383-.3471-2.4531-1.6172-2.4531-1.6172s-1.9313 1.388-2.4023 1.5976c-.4711.2097-.7969.1812-.7969-.2226z" fill="url(#S)"/></g><g filter="url(#g)"><path d="m14.0833 18.6946-.8584 5.2403c-.0548.3346.3081.581.6022.4088l.2013-.1179c.1734-.1016.3911-.0908.5534.0274l.7057.5137c.3859.2809.9088.2809 1.2947 0l.7057-.5137c.1623-.1182.38-.129.5534-.0274l.2013.1179c.2941.1722.657-.0742.6022-.4088l-.8575-5.2343c-.8097-.5047-1.855-1.2789-1.855-1.2789s-1.1068.7954-1.849 1.2729z" fill="url(#T)"/></g><g filter="url(#h)"><path d="m13.2368 3.99595c-1.1718.21875-2.6349 1.67981-2.5077 3.92187.0315.55517.0622 1.11665.0914 1.64898.0635 1.1576.1194 2.1774.1586 2.6948.0417.4531.2531 1.55.7656 2.3125.6407.9531 1.8907 1.6093 2.9688 1.6093h2.4609c1.0782 0 2.3282-.6562 2.9688-1.6093.5125-.7625.7239-1.8594.7656-2.3125.0393-.5174.0952-1.5371.1586-2.69479.0292-.53233.06-1.09381.0915-1.64899.1271-2.24206-1.3359-3.70312-2.5078-3.92187-1.677-.31304-3.7373-.31304-5.4143 0z" fill="url(#U)"/></g><path d="m13.2368 3.99595c-1.1718.21875-2.6349 1.67981-2.5077 3.92187.0315.55517.0622 1.11665.0914 1.64898.0635 1.1576.1194 2.1774.1586 2.6948.0417.4531.2531 1.55.7656 2.3125.6407.9531 1.8907 1.6093 2.9688 1.6093h2.4609c1.0782 0 2.3282-.6562 2.9688-1.6093.5125-.7625.7239-1.8594.7656-2.3125.0393-.5174.0952-1.5371.1586-2.69479.0292-.53233.06-1.09381.0915-1.64899.1271-2.24206-1.3359-3.70312-2.5078-3.92187-1.677-.31304-3.7373-.31304-5.4143 0z" fill="url(#V)"/><path d="m13.2368 3.99595c-1.1718.21875-2.6349 1.67981-2.5077 3.92187.0315.55517.0622 1.11665.0914 1.64898.0635 1.1576.1194 2.1774.1586 2.6948.0417.4531.2531 1.55.7656 2.3125.6407.9531 1.8907 1.6093 2.9688 1.6093h2.4609c1.0782 0 2.3282-.6562 2.9688-1.6093.5125-.7625.7239-1.8594.7656-2.3125.0393-.5174.0952-1.5371.1586-2.69479.0292-.53233.06-1.09381.0915-1.64899.1271-2.24206-1.3359-3.70312-2.5078-3.92187-1.677-.31304-3.7373-.31304-5.4143 0z" fill="url(#W)"/><path d="m13.2368 3.99595c-1.1718.21875-2.6349 1.67981-2.5077 3.92187.0315.55517.0622 1.11665.0914 1.64898.0635 1.1576.1194 2.1774.1586 2.6948.0417.4531.2531 1.55.7656 2.3125.6407.9531 1.8907 1.6093 2.9688 1.6093h2.4609c1.0782 0 2.3282-.6562 2.9688-1.6093.5125-.7625.7239-1.8594.7656-2.3125.0393-.5174.0952-1.5371.1586-2.69479.0292-.53233.06-1.09381.0915-1.64899.1271-2.24206-1.3359-3.70312-2.5078-3.92187-1.677-.31304-3.7373-.31304-5.4143 0z" fill="url(#X)"/><path d="m13.2368 3.99595c-1.1718.21875-2.6349 1.67981-2.5077 3.92187.0315.55517.0622 1.11665.0914 1.64898.0635 1.1576.1194 2.1774.1586 2.6948.0417.4531.2531 1.55.7656 2.3125.6407.9531 1.8907 1.6093 2.9688 1.6093h2.4609c1.0782 0 2.3282-.6562 2.9688-1.6093.5125-.7625.7239-1.8594.7656-2.3125.0393-.5174.0952-1.5371.1586-2.69479.0292-.53233.06-1.09381.0915-1.64899.1271-2.24206-1.3359-3.70312-2.5078-3.92187-1.677-.31304-3.7373-.31304-5.4143 0z" fill="url(#Y)"/><path d="m13.2368 3.99595c-1.1718.21875-2.6349 1.67981-2.5077 3.92187.0315.55517.0622 1.11665.0914 1.64898.0635 1.1576.1194 2.1774.1586 2.6948.0417.4531.2531 1.55.7656 2.3125.6407.9531 1.8907 1.6093 2.9688 1.6093h2.4609c1.0782 0 2.3282-.6562 2.9688-1.6093.5125-.7625.7239-1.8594.7656-2.3125.0393-.5174.0952-1.5371.1586-2.69479.0292-.53233.06-1.09381.0915-1.64899.1271-2.24206-1.3359-3.70312-2.5078-3.92187-1.677-.31304-3.7373-.31304-5.4143 0z" fill="url(#Z)"/><path d="m13.2368 3.99595c-1.1718.21875-2.6349 1.67981-2.5077 3.92187.0315.55517.0622 1.11665.0914 1.64898.0635 1.1576.1194 2.1774.1586 2.6948.0417.4531.2531 1.55.7656 2.3125.6407.9531 1.8907 1.6093 2.9688 1.6093h2.4609c1.0782 0 2.3282-.6562 2.9688-1.6093.5125-.7625.7239-1.8594.7656-2.3125.0393-.5174.0952-1.5371.1586-2.69479.0292-.53233.06-1.09381.0915-1.64899.1271-2.24206-1.3359-3.70312-2.5078-3.92187-1.677-.31304-3.7373-.31304-5.4143 0z" fill="url(#aa)"/><path d="m10.0468 7.71107c-.0105-.08933-.08824-.45086-.31525-1.18234-.28377-.91435-.3479-1.16975-.14188-1.74988.23785-.66979.71343-.97882 1.21413-1.30409.0797-.05177.16-.10396.2401-.15808.5833-.39412.7724-.57147 1.2926-1.10747s1.3794-1.2257 2.5499-1.00894c.4833.10873.8606.12006 1.0485.12544.1879-.00538.5652-.01671 1.0485-.12544 1.1705-.21676 2.0297.47294 2.5499 1.00894s.7093.71335 1.2926 1.10747c.0801.05412.1605.10631.2401.15808.5007.32527.9763.6343 1.2141 1.30409.2061.58013.1419.83553-.1418 1.74988-.227.73148-.3048 1.09301-.3153 1.18234l-.6799.29953c.1485-2.48347-1.3919-3.6229-2.2011-3.89387-.871-.29164-1.4825-.26405-1.9161-.07488-.4178.18231-.5647.52933-.6947.83648-.0049.01157-.0098.02308-.0147.03452-.1387.32644-.6131.30163-.7413 0-.0049-.01144-.0097-.02295-.0146-.03452-.1301-.30715-.277-.65417-.6948-.83648-.4335-.18917-1.067-.21676-1.938.07488-.8092.27097-2.3081 1.39478-2.1795 3.89387z" fill="#1e1d1d"/><path d="m10.0468 7.71107c-.0105-.08933-.08824-.45086-.31525-1.18234-.28377-.91435-.3479-1.16975-.14188-1.74988.23785-.66979.71343-.97882 1.21413-1.30409.0797-.05177.16-.10396.2401-.15808.5833-.39412.7724-.57147 1.2926-1.10747s1.3794-1.2257 2.5499-1.00894c.4833.10873.8606.12006 1.0485.12544.1879-.00538.5652-.01671 1.0485-.12544 1.1705-.21676 2.0297.47294 2.5499 1.00894s.7093.71335 1.2926 1.10747c.0801.05412.1605.10631.2401.15808.5007.32527.9763.6343 1.2141 1.30409.2061.58013.1419.83553-.1418 1.74988-.227.73148-.3048 1.09301-.3153 1.18234l-.6799.29953c.1485-2.48347-1.3919-3.6229-2.2011-3.89387-.871-.29164-1.4825-.26405-1.9161-.07488-.4178.18231-.5647.52933-.6947.83648-.0049.01157-.0098.02308-.0147.03452-.1387.32644-.6131.30163-.7413 0-.0049-.01144-.0097-.02295-.0146-.03452-.1301-.30715-.277-.65417-.6948-.83648-.4335-.18917-1.067-.21676-1.938.07488-.8092.27097-2.3081 1.39478-2.1795 3.89387z" fill="url(#ab)"/><path d="m10.0468 7.71107c-.0105-.08933-.08824-.45086-.31525-1.18234-.28377-.91435-.3479-1.16975-.14188-1.74988.23785-.66979.71343-.97882 1.21413-1.30409.0797-.05177.16-.10396.2401-.15808.5833-.39412.7724-.57147 1.2926-1.10747s1.3794-1.2257 2.5499-1.00894c.4833.10873.8606.12006 1.0485.12544.1879-.00538.5652-.01671 1.0485-.12544 1.1705-.21676 2.0297.47294 2.5499 1.00894s.7093.71335 1.2926 1.10747c.0801.05412.1605.10631.2401.15808.5007.32527.9763.6343 1.2141 1.30409.2061.58013.1419.83553-.1418 1.74988-.227.73148-.3048 1.09301-.3153 1.18234l-.6799.29953c.1485-2.48347-1.3919-3.6229-2.2011-3.89387-.871-.29164-1.4825-.26405-1.9161-.07488-.4178.18231-.5647.52933-.6947.83648-.0049.01157-.0098.02308-.0147.03452-.1387.32644-.6131.30163-.7413 0-.0049-.01144-.0097-.02295-.0146-.03452-.1301-.30715-.277-.65417-.6948-.83648-.4335-.18917-1.067-.21676-1.938.07488-.8092.27097-2.3081 1.39478-2.1795 3.89387z" fill="url(#ac)"/><path d="m10.0468 7.71107c-.0105-.08933-.08824-.45086-.31525-1.18234-.28377-.91435-.3479-1.16975-.14188-1.74988.23785-.66979.71343-.97882 1.21413-1.30409.0797-.05177.16-.10396.2401-.15808.5833-.39412.7724-.57147 1.2926-1.10747s1.3794-1.2257 2.5499-1.00894c.4833.10873.8606.12006 1.0485.12544.1879-.00538.5652-.01671 1.0485-.12544 1.1705-.21676 2.0297.47294 2.5499 1.00894s.7093.71335 1.2926 1.10747c.0801.05412.1605.10631.2401.15808.5007.32527.9763.6343 1.2141 1.30409.2061.58013.1419.83553-.1418 1.74988-.227.73148-.3048 1.09301-.3153 1.18234l-.6799.29953c.1485-2.48347-1.3919-3.6229-2.2011-3.89387-.871-.29164-1.4825-.26405-1.9161-.07488-.4178.18231-.5647.52933-.6947.83648-.0049.01157-.0098.02308-.0147.03452-.1387.32644-.6131.30163-.7413 0-.0049-.01144-.0097-.02295-.0146-.03452-.1301-.30715-.277-.65417-.6948-.83648-.4335-.18917-1.067-.21676-1.938.07488-.8092.27097-2.3081 1.39478-2.1795 3.89387z" fill="url(#ad)"/><path d="m20.9449 11.4048c.0305-.5135.0654-1.1515.1031-1.83787.0291-.53214.0599-1.09418.0914-1.64912.0029-.0507.005-.10099.0062-.15089.4902-.32069 1.1068-.68211 1.7087-.97021.2135-.10218.4559.02117.461.25782.0137.64074-.1182 1.50314-.6563 2.52734-.6207 1.21513-1.2107 1.65553-1.7141 1.82293z" fill="url(#ae)"/><path d="m20.9449 11.4048c.0305-.5135.0654-1.1515.1031-1.83787.0291-.53214.0599-1.09418.0914-1.64912.0029-.0507.005-.10099.0062-.15089.4902-.32069 1.1068-.68211 1.7087-.97021.2135-.10218.4559.02117.461.25782.0137.64074-.1182 1.50314-.6563 2.52734-.6207 1.21513-1.2107 1.65553-1.7141 1.82293z" fill="url(#af)"/><path d="m20.9449 11.4048c.0305-.5135.0654-1.1515.1031-1.83787.0291-.53214.0599-1.09418.0914-1.64912.0029-.0507.005-.10099.0062-.15089.4902-.32069 1.1068-.68211 1.7087-.97021.2135-.10218.4559.02117.461.25782.0137.64074-.1182 1.50314-.6563 2.52734-.6207 1.21513-1.2107 1.65553-1.7141 1.82293z" fill="url(#ag)"/><path d="m10.7428 7.77913c.0013.04588.0033.09211.0059.13868.0315.55517.0623 1.11664.0914 1.64897.0378.68922.0729 1.32952.1034 1.84402-.5074-.1627-1.1043-.5988-1.73271-1.82893-.53806-1.0242-.67002-1.8866-.65625-2.52734.00508-.23665.24743-.36.46094-.25782.60959.29176 1.23422.65872 1.72732.98242z" fill="url(#ah)"/><path d="m10.7428 7.77913c.0013.04588.0033.09211.0059.13868.0315.55517.0623 1.11664.0914 1.64897.0378.68922.0729 1.32952.1034 1.84402-.5074-.1627-1.1043-.5988-1.73271-1.82893-.53806-1.0242-.67002-1.8866-.65625-2.52734.00508-.23665.24743-.36.46094-.25782.60959.29176 1.23422.65872 1.72732.98242z" fill="url(#ai)"/><g filter="url(#i)"><path d="m14.5127 12.5587c.3076.1692.7907.3747 1.4354.3747s1.1278-.2055 1.4355-.3747c.0765-.0421.1685.0227.1429.1063-.2608.8502-.9937 1.0263-1.5784 1.0263s-1.3175-.1761-1.5784-1.0263c-.0256-.0836.0664-.1484.143-.1063z" stroke="url(#aj)" stroke-width=".2"/></g><path d="m14.5127 12.5587c.3076.1692.7907.3747 1.4354.3747s1.1278-.2055 1.4355-.3747c.0765-.0421.1685.0227.1429.1063-.2608.8502-.9937 1.0263-1.5784 1.0263s-1.3175-.1761-1.5784-1.0263c-.0256-.0836.0664-.1484.143-.1063z" fill="#290118"/><path d="m17.1533 13.7147-.3959-.8946c.2563-.0778.466-.1755.6231-.2634.1022-.0571.2484.0435.2188.1568l-.2578.986c-.0239.0916-.1499.1017-.1882.0152z" fill="url(#ak)"/><path d="m14.7346 13.7147.3959-.8946c-.2563-.0778-.4659-.1755-.6231-.2634-.1022-.0571-.2483.0435-.2187.1568l.2577.986c.0239.0916.1499.1017.1882.0152z" fill="url(#al)"/><g filter="url(#j)"><path d="m20.9803 10.7916c.0212-.3761.044-.7907.0678-1.22472.0203-.37184.0415-.75869.0632-1.14687l1.1092-.76375c.1659-.1142.3833.00417.3551.20355-.1163.82025-.5333 2.06754-1.5953 2.93179z" fill="url(#am)"/><path d="m20.9803 10.7916c.0212-.3761.044-.7907.0678-1.22472.0203-.37184.0415-.75869.0632-1.14687l1.1092-.76375c.1659-.1142.3833.00417.3551.20355-.1163.82025-.5333 2.06754-1.5953 2.93179z" fill="url(#an)"/></g><g filter="url(#k)"><path d="m10.7776 8.43306c.0214.384.0423.76578.0625 1.13363.0241.44001.0472.86021.0686 1.24031-1.07611-.86473-1.49736-2.12204-1.61433-2.94719-.02827-.19938.18916-.31775.35502-.20355z" fill="url(#ao)"/><path d="m10.7776 8.43306c.0214.384.0423.76578.0625 1.13363.0241.44001.0472.86021.0686 1.24031-1.07611-.86473-1.49736-2.12204-1.61433-2.94719-.02827-.19938.18916-.31775.35502-.20355z" fill="url(#ap)"/></g><g clip-rule="evenodd" fill-rule="evenodd"><path d="m16.4583 18.2081c.0684-.0095.1315.0382.141.1066l.6484 4.6719c.0095.0683-.0382.1315-.1066.141-.0684.0094-.1315-.0383-.141-.1067l-.6484-4.6719c-.0095-.0683.0382-.1315.1066-.1409z" fill="#decee7"/><path d="m16.4583 18.2081c.0684-.0095.1315.0382.141.1066l.6484 4.6719c.0095.0683-.0382.1315-.1066.141-.0684.0094-.1315-.0383-.141-.1067l-.6484-4.6719c-.0095-.0683.0382-.1315.1066-.1409z" fill="url(#ar)"/><path d="m15.4379 18.2081c-.0683-.0095-.1315.0382-.141.1066l-.6484 4.6719c-.0095.0683.0383.1315.1066.141.0684.0094.1315-.0383.141-.1067l.6485-4.6719c.0095-.0683-.0383-.1315-.1067-.1409z" fill="#decee8"/><path d="m15.4379 18.2081c-.0683-.0095-.1315.0382-.141.1066l-.6484 4.6719c-.0095.0683.0383.1315.1066.141.0684.0094.1315-.0383.141-.1067l.6485-4.6719c.0095-.0683-.0383-.1315-.1067-.1409z" fill="url(#as)"/><path d="m14.1375 7.17924c-.7163-.13326-1.345.18029-1.5689.34312-.1117.08121-.268.05653-.3493-.05514-.0812-.11166-.0565-.26801.0552-.34922.2917-.21217 1.0583-.59705 1.9545-.43032.1357.02525.2253.15577.2.29151-.0252.13574-.1557.22531-.2915.20005z" fill="url(#au)"/><path d="m17.7407 7.17924c.7163-.13326 1.345.18029 1.5689.34312.1117.08121.268.05653.3492-.05514.0812-.11166.0566-.26801-.0551-.34922-.2917-.21217-1.0583-.59705-1.9545-.43032-.1357.02525-.2253.15577-.2001.29151.0253.13574.1558.22531.2916.20005z" fill="#393939"/><path d="m17.7407 7.17924c.7163-.13326 1.345.18029 1.5689.34312.1117.08121.268.05653.3492-.05514.0812-.11166.0566-.26801-.0551-.34922-.2917-.21217-1.0583-.59705-1.9545-.43032-.1357.02525-.2253.15577-.2001.29151.0253.13574.1558.22531.2916.20005z" fill="url(#av)"/></g><g filter="url(#l)"><path d="m21.1531 7.65607c-.0103-2.23821-1.4413-3.28158-2.211-3.53931-.871-.29165-1.4826-.26406-1.9161-.07488-.4178.18231-.5647.52933-.6948.83648l-.0146.03452c-.1387.32644-.6132.30162-.7413 0l-.0147-.03452c-.13-.30715-.277-.65417-.6948-.83648-.4335-.18918-1.0669-.21677-1.9379.07488-.7632.25554-2.1397 1.26958-2.1861 3.48031-.2754-.20994-.6607-.66202-.7636-1.38241-.13921-.97445.2177-1.36599.7281-1.926.0625-.06856.1273-.13964.1938-.21462l.0317-.03587c.6206-.70083 1.8637-2.10476 3.937-2.10476h2.2413c2.0734 0 3.3165 1.40393 3.937 2.10476l.0318.03587c.0664.07498.1312.14606.1937.21462.5105.56001.8674.95155.7281 1.926-.1139.79731-.5737 1.26596-.8476 1.44141z" fill="#1f1e1d"/></g><path d="m21.1531 7.65607c-.0103-2.23821-1.4413-3.28158-2.211-3.53931-.871-.29165-1.4826-.26406-1.9161-.07488-.4178.18231-.5647.52933-.6948.83648l-.0146.03452c-.1387.32644-.6132.30162-.7413 0l-.0147-.03452c-.13-.30715-.277-.65417-.6948-.83648-.4335-.18918-1.0669-.21677-1.9379.07488-.7632.25554-2.1397 1.26958-2.1861 3.48031-.2754-.20994-.6607-.66202-.7636-1.38241-.13921-.97445.2177-1.36599.7281-1.926.0625-.06856.1273-.13964.1938-.21462l.0317-.03587c.6206-.70083 1.8637-2.10476 3.937-2.10476h2.2413c2.0734 0 3.3165 1.40393 3.937 2.10476l.0318.03587c.0664.07498.1312.14606.1937.21462.5105.56001.8674.95155.7281 1.926-.1139.79731-.5737 1.26596-.8476 1.44141z" fill="url(#aw)"/><path d="m21.1531 7.65607c-.0103-2.23821-1.4413-3.28158-2.211-3.53931-.871-.29165-1.4826-.26406-1.9161-.07488-.4178.18231-.5647.52933-.6948.83648l-.0146.03452c-.1387.32644-.6132.30162-.7413 0l-.0147-.03452c-.13-.30715-.277-.65417-.6948-.83648-.4335-.18918-1.0669-.21677-1.9379.07488-.7632.25554-2.1397 1.26958-2.1861 3.48031-.2754-.20994-.6607-.66202-.7636-1.38241-.13921-.97445.2177-1.36599.7281-1.926.0625-.06856.1273-.13964.1938-.21462l.0317-.03587c.6206-.70083 1.8637-2.10476 3.937-2.10476h2.2413c2.0734 0 3.3165 1.40393 3.937 2.10476l.0318.03587c.0664.07498.1312.14606.1937.21462.5105.56001.8674.95155.7281 1.926-.1139.79731-.5737 1.26596-.8476 1.44141z" fill="url(#ax)"/><path d="m21.1531 7.65607c-.0103-2.23821-1.4413-3.28158-2.211-3.53931-.871-.29165-1.4826-.26406-1.9161-.07488-.4178.18231-.5647.52933-.6948.83648l-.0146.03452c-.1387.32644-.6132.30162-.7413 0l-.0147-.03452c-.13-.30715-.277-.65417-.6948-.83648-.4335-.18918-1.0669-.21677-1.9379.07488-.7632.25554-2.1397 1.26958-2.1861 3.48031-.2754-.20994-.6607-.66202-.7636-1.38241-.13921-.97445.2177-1.36599.7281-1.926.0625-.06856.1273-.13964.1938-.21462l.0317-.03587c.6206-.70083 1.8637-2.10476 3.937-2.10476h2.2413c2.0734 0 3.3165 1.40393 3.937 2.10476l.0318.03587c.0664.07498.1312.14606.1937.21462.5105.56001.8674.95155.7281 1.926-.1139.79731-.5737 1.26596-.8476 1.44141z" fill="url(#ay)"/><path d="m21.1531 7.65607c-.0103-2.23821-1.4413-3.28158-2.211-3.53931-.871-.29165-1.4826-.26406-1.9161-.07488-.4178.18231-.5647.52933-.6948.83648l-.0146.03452c-.1387.32644-.6132.30162-.7413 0l-.0147-.03452c-.13-.30715-.277-.65417-.6948-.83648-.4335-.18918-1.0669-.21677-1.9379.07488-.7632.25554-2.1397 1.26958-2.1861 3.48031-.2754-.20994-.6607-.66202-.7636-1.38241-.13921-.97445.2177-1.36599.7281-1.926.0625-.06856.1273-.13964.1938-.21462l.0317-.03587c.6206-.70083 1.8637-2.10476 3.937-2.10476h2.2413c2.0734 0 3.3165 1.40393 3.937 2.10476l.0318.03587c.0664.07498.1312.14606.1937.21462.5105.56001.8674.95155.7281 1.926-.1139.79731-.5737 1.26596-.8476 1.44141z" fill="url(#az)"/><g filter="url(#m)"><path d="m15.9635 4.52715c.1823-.53646.7344-1.45313 1.9531-1.60938 1.3949-.17882 3.043 1.11328 3.6524 2.17578" stroke="url(#aA)" stroke-linecap="round" stroke-width=".3"/></g><g filter="url(#n)"><path d="m12.4244 7.31627c.224-.17968.9297-.5 1.7266-.39843" stroke="url(#aC)" stroke-linecap="round" stroke-width=".15"/></g><g filter="url(#o)"><path d="m19.4391 7.25756c-.224-.17969-.9297-.5-1.7266-.39844" stroke="url(#aD)" stroke-linecap="round" stroke-width=".15"/></g><g filter="url(#p)"><path d="m15.6907 9.72972-.8211 1.70118c-.1018.35.1425.6999.4886.6999h.7379c.346 0 .5903-.3553.4885-.6999l-.4987-1.70118c-.1069-.37685-.2832-.37685-.3952 0z" fill="#3e262d"/></g><g filter="url(#q)"><path d="m15.5837 9.56651-.5319 1.70119c-.1085.35.152.6999.521.6999h.7869c.3691 0 .6296-.3553.521-.6999l-.5318-1.70119c-.114-.37685-.6458-.37685-.7652 0z" fill="#402929"/><path d="m15.5837 9.56651-.5319 1.70119c-.1085.35.152.6999.521.6999h.7869c.3691 0 .6296-.3553.521-.6999l-.5318-1.70119c-.114-.37685-.6458-.37685-.7652 0z" fill="url(#aE)"/><path d="m15.5837 9.56651-.5319 1.70119c-.1085.35.152.6999.521.6999h.7869c.3691 0 .6296-.3553.521-.6999l-.5318-1.70119c-.114-.37685-.6458-.37685-.7652 0z" fill="url(#aF)"/><path d="m15.5837 9.56651-.5319 1.70119c-.1085.35.152.6999.521.6999h.7869c.3691 0 .6296-.3553.521-.6999l-.5318-1.70119c-.114-.37685-.6458-.37685-.7652 0z" fill="url(#aG)"/><path d="m15.5837 9.56651-.5319 1.70119c-.1085.35.152.6999.521.6999h.7869c.3691 0 .6296-.3553.521-.6999l-.5318-1.70119c-.114-.37685-.6458-.37685-.7652 0z" fill="url(#aH)"/><path d="m15.5837 9.56651-.5319 1.70119c-.1085.35.152.6999.521.6999h.7869c.3691 0 .6296-.3553.521-.6999l-.5318-1.70119c-.114-.37685-.6458-.37685-.7652 0z" fill="url(#aI)"/></g><path d="m18.3561 8.4201c.6536 0 1.2057.45061 1.3559 1.05953.0446.17456-.0893.341-.2679.341h-2.2328c-.1421 0-.2557-.1299-.2273-.27199.1258-.6414.6901-1.12854 1.3721-1.12854z" fill="#fff"/><path d="m18.1492 8.69208c.4953 0 .8931.40189.8931.89309 0 .08119-.0122.16238-.0325.23545h-1.7252c-.0203-.07713-.0325-.15426-.0325-.23545 0-.4912.4019-.89309.8971-.89309z" fill="url(#aK)"/><path d="m17.6378 9.58517c0-.28417.2273-.5115.5115-.5115s.5115.22733.5115.5115c0 .08525-.0203.16644-.0568.23545h-.9053c-.0406-.06901-.0609-.1502-.0609-.23545z" fill="#000"/><g filter="url(#r)"><path d="m18.0834 8.88082c.0636.0851-.0694.18885-.2206.30191-.1512.11307-.2634.19263-.3271.10753-.0636-.0851.0074-.24575.1586-.35881.1513-.11307.3254-.13573.3891-.05063z" fill="#ff809e" fill-opacity=".6"/><path d="m18.0834 8.88082c.0636.0851-.0694.18885-.2206.30191-.1512.11307-.2634.19263-.3271.10753-.0636-.0851.0074-.24575.1586-.35881.1513-.11307.3254-.13573.3891-.05063z" fill="url(#aM)"/></g><g filter="url(#s)"><path d="m18.9448 9.46749c-.033-.23088-.1681-.40489-.2315-.46303l-.2601.28543.1174.22835z" fill="url(#aO)"/></g><path d="m13.5708 8.41998c-.6536 0-1.2058.45063-1.356 1.05959-.0446.17456.0893.34101.268.34101h2.2328c.1421 0 .2558-.12991.2274-.272-.1259-.64143-.6943-1.1286-1.3722-1.1286z" fill="#fff"/><path d="m13.778 8.69196c-.4953 0-.8931.40191-.8931.89313 0 .08119.0122.16239.0325.23546h1.7253c.0203-.07713.0325-.15427.0325-.23546-.004-.49122-.4019-.89313-.8972-.89313z" fill="url(#aP)"/><path d="m14.2895 9.58519c0-.28418-.2273-.51152-.5115-.51152s-.5115.22734-.5115.51152c0 .08526.0203.16645.0568.23546h.9053c.0366-.06901.0609-.1502.0609-.23546z" fill="#000"/><g filter="url(#t)"><path d="m14.5937 9.48016c0-.28862-.2347-.48103-.2981-.53918l-.2886.2791.1776.36157z" fill="url(#aQ)"/></g><g filter="url(#u)"><ellipse cx="13.5083" cy="9.07368" fill="#ff809e" fill-opacity=".6" rx=".389901" ry=".197326" transform="matrix(.88365127 -.46814574 .46814574 .88365127 -2.676131 7.379564)"/><ellipse cx="13.5083" cy="9.07368" fill="url(#aR)" rx=".389901" ry=".197326" transform="matrix(.88365127 -.46814574 .46814574 .88365127 -2.676131 7.379564)"/></g></svg>