<svg fill="none" height="32" viewBox="0 0 32 32" width="32" xmlns="http://www.w3.org/2000/svg" xmlns:xlink="http://www.w3.org/1999/xlink"><filter id="a" color-interpolation-filters="sRGB" filterUnits="userSpaceOnUse" height="6.698" width="5.72693" x="3.55408" y="20.3834"><feFlood flood-opacity="0" result="BackgroundImageFix"/><feBlend in="SourceGraphic" in2="BackgroundImageFix" mode="normal" result="shape"/><feGaussianBlur result="effect1_foregroundBlur_6896_5275" stdDeviation=".75"/></filter><filter id="b" color-interpolation-filters="sRGB" filterUnits="userSpaceOnUse" height="11.6356" width="9.00903" x="19.098" y="4.58191"><feFlood flood-opacity="0" result="BackgroundImageFix"/><feBlend in="SourceGraphic" in2="BackgroundImageFix" mode="normal" result="shape"/><feGaussianBlur result="effect1_foregroundBlur_6896_5275" stdDeviation=".5"/></filter><filter id="c" color-interpolation-filters="sRGB" filterUnits="userSpaceOnUse" height="4.625" width="3.41745" x="24.8055" y="4.47717"><feFlood flood-opacity="0" result="BackgroundImageFix"/><feBlend in="SourceGraphic" in2="BackgroundImageFix" mode="normal" result="shape"/><feGaussianBlur result="effect1_foregroundBlur_6896_5275" stdDeviation=".5"/></filter><filter id="d" color-interpolation-filters="sRGB" filterUnits="userSpaceOnUse" height="10.7286" width="8.94989" x="2.72321" y="3.88342"><feFlood flood-opacity="0" result="BackgroundImageFix"/><feBlend in="SourceGraphic" in2="BackgroundImageFix" mode="normal" result="shape"/><feGaussianBlur result="effect1_foregroundBlur_6896_5275" stdDeviation="1"/></filter><filter id="e" color-interpolation-filters="sRGB" filterUnits="userSpaceOnUse" height="3.02374" width="3.66141" x="13.7482" y="15.9199"><feFlood flood-opacity="0" result="BackgroundImageFix"/><feBlend in="SourceGraphic" in2="BackgroundImageFix" mode="normal" result="shape"/><feGaussianBlur result="effect1_foregroundBlur_6896_5275" stdDeviation=".25"/></filter><filter id="f" color-interpolation-filters="sRGB" filterUnits="userSpaceOnUse" height="1.74852" width="2.72344" x="14.9086" y="15.731"><feFlood flood-opacity="0" result="BackgroundImageFix"/><feBlend in="SourceGraphic" in2="BackgroundImageFix" mode="normal" result="shape"/><feGaussianBlur result="effect1_foregroundBlur_6896_5275" stdDeviation=".3"/></filter><filter id="g" color-interpolation-filters="sRGB" filterUnits="userSpaceOnUse" height="4.01282" width="6.00494" x="23.685" y="20.0427"><feFlood flood-opacity="0" result="BackgroundImageFix"/><feBlend in="SourceGraphic" in2="BackgroundImageFix" mode="normal" result="shape"/><feGaussianBlur result="effect1_foregroundBlur_6896_5275" stdDeviation=".25"/></filter><filter id="h" color-interpolation-filters="sRGB" filterUnits="userSpaceOnUse" height="3.56561" width="4.12671" x="23.6851" y="23.8866"><feFlood flood-opacity="0" result="BackgroundImageFix"/><feBlend in="SourceGraphic" in2="BackgroundImageFix" mode="normal" result="shape"/><feGaussianBlur result="effect1_foregroundBlur_6896_5275" stdDeviation=".25"/></filter><filter id="i" color-interpolation-filters="sRGB" filterUnits="userSpaceOnUse" height="2.69324" width="4.29688" x="25.6031" y="24.3381"><feFlood flood-opacity="0" result="BackgroundImageFix"/><feBlend in="SourceGraphic" in2="BackgroundImageFix" mode="normal" result="shape"/><feGaussianBlur result="effect1_foregroundBlur_6896_5275" stdDeviation=".25"/></filter><filter id="j" color-interpolation-filters="sRGB" filterUnits="userSpaceOnUse" height="1.34009" width="1.35999" x="28.8604" y="25.7612"><feFlood flood-opacity="0" result="BackgroundImageFix"/><feBlend in="SourceGraphic" in2="BackgroundImageFix" mode="normal" result="shape"/><feGaussianBlur result="effect1_foregroundBlur_6896_5275" stdDeviation=".25"/></filter><filter id="k" color-interpolation-filters="sRGB" filterUnits="userSpaceOnUse" height="10.3461" width="9.24683" x="2.96262" y="15.6775"><feFlood flood-opacity="0" result="BackgroundImageFix"/><feBlend in="SourceGraphic" in2="BackgroundImageFix" mode="normal" result="shape"/><feGaussianBlur result="effect1_foregroundBlur_6896_5275" stdDeviation="1"/></filter><filter id="l" color-interpolation-filters="sRGB" filterUnits="userSpaceOnUse" height="3.11908" width="5.10162" x="2.14175" y="23.9739"><feFlood flood-opacity="0" result="BackgroundImageFix"/><feBlend in="SourceGraphic" in2="BackgroundImageFix" mode="normal" result="shape"/><feGaussianBlur result="effect1_foregroundBlur_6896_5275" stdDeviation=".25"/></filter><filter id="m" color-interpolation-filters="sRGB" filterUnits="userSpaceOnUse" height="1.33594" width="1.36395" x="5.96417" y="23.9"><feFlood flood-opacity="0" result="BackgroundImageFix"/><feBlend in="SourceGraphic" in2="BackgroundImageFix" mode="normal" result="shape"/><feGaussianBlur result="effect1_foregroundBlur_6896_5275" stdDeviation=".25"/></filter><filter id="n" color-interpolation-filters="sRGB" filterUnits="userSpaceOnUse" height="3.09381" width="5.11365" x="2.21042" y="20.1182"><feFlood flood-opacity="0" result="BackgroundImageFix"/><feBlend in="SourceGraphic" in2="BackgroundImageFix" mode="normal" result="shape"/><feGaussianBlur result="effect1_foregroundBlur_6896_5275" stdDeviation=".25"/></filter><filter id="o" color-interpolation-filters="sRGB" filterUnits="userSpaceOnUse" height="1.36389" width="1.33606" x="6.08273" y="21.8855"><feFlood flood-opacity="0" result="BackgroundImageFix"/><feBlend in="SourceGraphic" in2="BackgroundImageFix" mode="normal" result="shape"/><feGaussianBlur result="effect1_foregroundBlur_6896_5275" stdDeviation=".25"/></filter><filter id="p" color-interpolation-filters="sRGB" filterUnits="userSpaceOnUse" height="22.1857" width="12.5851" x="18.1024" y="6.16467"><feFlood flood-opacity="0" result="BackgroundImageFix"/><feBlend in="SourceGraphic" in2="BackgroundImageFix" mode="normal" result="shape"/><feGaussianBlur result="effect1_foregroundBlur_6896_5275" stdDeviation="2"/></filter><filter id="q" color-interpolation-filters="sRGB" filterUnits="userSpaceOnUse" height="10.3793" width="9.42438" x="18.6128" y="15.8741"><feFlood flood-opacity="0" result="BackgroundImageFix"/><feBlend in="SourceGraphic" in2="BackgroundImageFix" mode="normal" result="shape"/><feGaussianBlur result="effect1_foregroundBlur_6896_5275" stdDeviation="1"/></filter><filter id="r" color-interpolation-filters="sRGB" filterUnits="userSpaceOnUse" height="3.11255" width="5.10474" x="24.9163" y="20.3115"><feFlood flood-opacity="0" result="BackgroundImageFix"/><feBlend in="SourceGraphic" in2="BackgroundImageFix" mode="normal" result="shape"/><feGaussianBlur result="effect1_foregroundBlur_6896_5275" stdDeviation=".25"/></filter><filter id="s" color-interpolation-filters="sRGB" filterUnits="userSpaceOnUse" height="7.1375" width="4.825" x="22.4086" y="6.8303"><feFlood flood-opacity="0" result="BackgroundImageFix"/><feBlend in="SourceGraphic" in2="BackgroundImageFix" mode="normal" result="shape"/><feGaussianBlur result="effect1_foregroundBlur_6896_5275" stdDeviation=".3"/></filter><filter id="t" color-interpolation-filters="sRGB" filterUnits="userSpaceOnUse" height="4.73438" width="4.53125" x="22.7274" y="9.35217"><feFlood flood-opacity="0" result="BackgroundImageFix"/><feBlend in="SourceGraphic" in2="BackgroundImageFix" mode="normal" result="shape"/><feGaussianBlur result="effect1_foregroundBlur_6896_5275" stdDeviation=".375"/></filter><filter id="u" color-interpolation-filters="sRGB" filterUnits="userSpaceOnUse" height="6.90771" width="4.46875" x="4.72321" y="7.06238"><feFlood flood-opacity="0" result="BackgroundImageFix"/><feBlend in="SourceGraphic" in2="BackgroundImageFix" mode="normal" result="shape"/><feGaussianBlur result="effect1_foregroundBlur_6896_5275" stdDeviation=".25"/></filter><filter id="v" color-interpolation-filters="sRGB" filterUnits="userSpaceOnUse" height="6.33752" width="1.15002" x="4.64819" y="7.21466"><feFlood flood-opacity="0" result="BackgroundImageFix"/><feBlend in="SourceGraphic" in2="BackgroundImageFix" mode="normal" result="shape"/><feGaussianBlur result="effect1_foregroundBlur_6896_5275" stdDeviation=".25"/></filter><filter id="w" color-interpolation-filters="sRGB" filterUnits="userSpaceOnUse" height="1.3374" width="1.36264" x="2.13193" y="19.975"><feFlood flood-opacity="0" result="BackgroundImageFix"/><feBlend in="SourceGraphic" in2="BackgroundImageFix" mode="normal" result="shape"/><feGaussianBlur result="effect1_foregroundBlur_6896_5275" stdDeviation=".25"/></filter><filter id="x" color-interpolation-filters="sRGB" filterUnits="userSpaceOnUse" height="1.3374" width="1.36264" x="28.9245" y="19.975"><feFlood flood-opacity="0" result="BackgroundImageFix"/><feBlend in="SourceGraphic" in2="BackgroundImageFix" mode="normal" result="shape"/><feGaussianBlur result="effect1_foregroundBlur_6896_5275" stdDeviation=".25"/></filter><filter id="y" color-interpolation-filters="sRGB" filterUnits="userSpaceOnUse" height="2.46094" width="4.42813" x="17.6461" y="14.3691"><feFlood flood-opacity="0" result="BackgroundImageFix"/><feBlend in="SourceGraphic" in2="BackgroundImageFix" mode="normal" result="shape"/><feGaussianBlur result="effect1_foregroundBlur_6896_5275" stdDeviation=".25"/></filter><filter id="z" color-interpolation-filters="sRGB" filterUnits="userSpaceOnUse" height="2.48926" width="4.49454" x="8.58359" y="14.3204"><feFlood flood-opacity="0" result="BackgroundImageFix"/><feBlend in="SourceGraphic" in2="BackgroundImageFix" mode="normal" result="shape"/><feGaussianBlur result="effect1_foregroundBlur_6896_5275" stdDeviation=".25"/></filter><filter id="A" color-interpolation-filters="sRGB" filterUnits="userSpaceOnUse" height="8.34375" width="8.21875" x="22.6655" y="14.0631"><feFlood flood-opacity="0" result="BackgroundImageFix"/><feBlend in="SourceGraphic" in2="BackgroundImageFix" mode="normal" result="shape"/><feGaussianBlur result="effect1_foregroundBlur_6896_5275" stdDeviation="1"/></filter><filter id="B" color-interpolation-filters="sRGB" filterUnits="userSpaceOnUse" height="5.48438" width="5.48438" x="25.6825" y="17.788"><feFlood flood-opacity="0" result="BackgroundImageFix"/><feBlend in="SourceGraphic" in2="BackgroundImageFix" mode="normal" result="shape"/><feGaussianBlur result="effect1_foregroundBlur_6896_5275" stdDeviation="1"/></filter><filter id="C" color-interpolation-filters="sRGB" filterUnits="userSpaceOnUse" height="8.34375" width="8.21875" x="2.57617" y="15.1178"><feFlood flood-opacity="0" result="BackgroundImageFix"/><feBlend in="SourceGraphic" in2="BackgroundImageFix" mode="normal" result="shape"/><feGaussianBlur result="effect1_foregroundBlur_6896_5275" stdDeviation="1"/></filter><filter id="D" color-interpolation-filters="sRGB" filterUnits="userSpaceOnUse" height="5.48438" width="5.48438" x="5.34283" y="14.1256"><feFlood flood-opacity="0" result="BackgroundImageFix"/><feBlend in="SourceGraphic" in2="BackgroundImageFix" mode="normal" result="shape"/><feGaussianBlur result="effect1_foregroundBlur_6896_5275" stdDeviation="1"/></filter><linearGradient id="E" gradientUnits="userSpaceOnUse" x1="7.90668" x2="7.90668" y1="1.34978" y2="30.99"><stop offset=".288159" stop-color="#f2cc26"/><stop offset=".762024" stop-color="#e99e20"/><stop offset=".9925" stop-color="#e3821d"/><stop offset="1" stop-color="#e3801d"/></linearGradient><linearGradient id="F"><stop offset="0" stop-color="#e99e20" stop-opacity="0"/><stop offset=".9925" stop-color="#e3821d"/><stop offset="1" stop-color="#e3801d"/></linearGradient><linearGradient id="G" gradientUnits="userSpaceOnUse" x1="8.83102" x2="1.16971" xlink:href="#F" y1="12.033" y2="12.033"/><linearGradient id="H" gradientUnits="userSpaceOnUse" x1="26.7911" x2="30.245" xlink:href="#F" y1="12.033" y2="12.033"/><linearGradient id="I" gradientUnits="userSpaceOnUse" x1="16.001" x2="16" y1="-1.59459" y2="30.99"><stop offset=".77079" stop-color="#f59639" stop-opacity="0"/><stop offset="1" stop-color="#ff63c4"/></linearGradient><linearGradient id="J" gradientUnits="userSpaceOnUse" x1="16" x2="16" y1="11.2521" y2="32.475"><stop offset=".854227" stop-color="#fff" stop-opacity="0"/><stop offset=".985362" stop-color="#fff"/></linearGradient><radialGradient id="K" cx="0" cy="0" gradientTransform="matrix(3.04568928 4.42400808 -8.78922202 6.05090198 22.1755 4.47688)" gradientUnits="userSpaceOnUse" r="1"><stop offset="0" stop-color="#ffa720"/><stop offset=".921158" stop-color="#ffa720" stop-opacity="0"/></radialGradient><linearGradient id="L" gradientUnits="userSpaceOnUse" x1="21.9081" x2="28.1649" y1="6.9147" y2="13.7585"><stop offset="0" stop-color="#ffa720"/><stop offset="1" stop-color="#ffa720" stop-opacity="0"/></linearGradient><linearGradient id="M" gradientUnits="userSpaceOnUse" x1="10.6023" x2="4.74258" y1="10.6803" y2="10.1334"><stop offset=".437473" stop-color="#ed8c1b"/><stop offset="1" stop-color="#ffb03a"/></linearGradient><linearGradient id="N" gradientUnits="userSpaceOnUse" x1="27.0399" x2="26.4438" y1="5.02405" y2="7.3655"><stop offset=".28598" stop-color="#ffe792"/><stop offset="1" stop-color="#ffdd65" stop-opacity="0"/></linearGradient><linearGradient id="O" gradientUnits="userSpaceOnUse" x1="15.7508" x2="15.0789" y1="18.215" y2="19.3088"><stop offset="0" stop-color="#e3900e"/><stop offset="1" stop-color="#ea9d26" stop-opacity="0"/></linearGradient><radialGradient id="P" cx="0" cy="0" gradientTransform="matrix(-1.89062885 -.95312092 .95875693 -1.90180855 16.4461 17.0436)" gradientUnits="userSpaceOnUse" r="1"><stop offset="0" stop-color="#ea088b"/><stop offset="1" stop-color="#e61e27"/></radialGradient><linearGradient id="Q" gradientUnits="userSpaceOnUse" x1="17.2036" x2="15.6801" y1="16.6053" y2="16.6053"><stop offset="0" stop-color="#fff" stop-opacity=".9"/><stop offset="1" stop-color="#fff" stop-opacity="0"/></linearGradient><linearGradient id="R" gradientUnits="userSpaceOnUse" x1="24.2898" x2="28.0242" y1="23.2991" y2="21.3834"><stop offset="0" stop-color="#e88105"/><stop offset="1" stop-color="#e37d02" stop-opacity="0"/></linearGradient><linearGradient id="S" gradientUnits="userSpaceOnUse" x1="24.2898" x2="28.0242" y1="24.6429" y2="26.5586"><stop offset=".286458" stop-color="#de7d07"/><stop offset=".817708" stop-color="#e37d02" stop-opacity="0"/></linearGradient><linearGradient id="T" gradientUnits="userSpaceOnUse" x1="25.0739" x2="29.1465" y1="24.7728" y2="26.7283"><stop offset="0" stop-color="#b9230f"/><stop offset=".364583" stop-color="#d64a38"/><stop offset="1" stop-color="#fb7425"/></linearGradient><linearGradient id="U"><stop offset=".15625" stop-color="#d64a38"/><stop offset="1" stop-color="#fb7425"/></linearGradient><linearGradient id="V" gradientUnits="userSpaceOnUse" x1="7.01785" x2="2.94525" xlink:href="#U" y1="24.7845" y2="26.74"/><linearGradient id="W" gradientUnits="userSpaceOnUse" x1="6.81823" x2="2.72754" xlink:href="#U" y1="22.9923" y2="21.075"/><linearGradient id="X" gradientUnits="userSpaceOnUse" x1="16.0466" x2="16.0466" y1="23.3864" y2="18.9643"><stop offset="0" stop-color="#e61e27"/><stop offset="1" stop-color="#672a7a"/></linearGradient><linearGradient id="Y" gradientUnits="userSpaceOnUse" x1="23.3524" x2="22.9558" y1="10.9016" y2="22.9522"><stop offset=".548257" stop-color="#ffdd65"/><stop offset="1" stop-color="#ffdd65" stop-opacity="0"/></linearGradient><linearGradient id="Z" gradientUnits="userSpaceOnUse" x1="25.2898" x2="29.371" y1="23.0084" y2="21.0709"><stop offset=".15625" stop-color="#c83f2d"/><stop offset="1" stop-color="#e7671c"/></linearGradient><linearGradient id="aa" gradientUnits="userSpaceOnUse" x1="26.5398" x2="25.2898" y1="15.5709" y2="12.1022"><stop offset="0" stop-color="#ef8a47"/><stop offset="1" stop-color="#ef8a47" stop-opacity="0"/></linearGradient><radialGradient id="ab" cx="0" cy="0" gradientTransform="matrix(4.40624866 6.46874874 -7.75589325 5.28299918 22.868 7.83655)" gradientUnits="userSpaceOnUse" r="1"><stop offset="0" stop-color="#ffdf70"/><stop offset="1" stop-color="#ffdf70" stop-opacity="0"/></radialGradient><linearGradient id="ac" gradientUnits="userSpaceOnUse" x1="25.0555" x2="25.0555" y1="10.5397" y2="12.8834"><stop offset=".432292" stop-color="#ffe7a3"/><stop offset="1" stop-color="#ffdf83" stop-opacity="0"/></linearGradient><linearGradient id="ad"><stop offset="0" stop-color="#e69518"/><stop offset="1" stop-color="#ea9d26" stop-opacity="0"/></linearGradient><linearGradient id="ae" gradientUnits="userSpaceOnUse" x1="22.6383" x2="22.7588" xlink:href="#ad" y1="15.9384" y2="17.7936"/><linearGradient id="af" gradientUnits="userSpaceOnUse" x1="13.6628" x2="13.7856" xlink:href="#ad" y1="15.9104" y2="17.8015"/><radialGradient id="ag" cx="0" cy="0" gradientTransform="matrix(-5.49998554 2.34378726 -3.53376924 -8.29242488 28.5092 16.4069)" gradientUnits="userSpaceOnUse" r="1"><stop offset="0" stop-color="#5c98ff"/><stop offset="1" stop-color="#3d5bf1"/></radialGradient><linearGradient id="ah"><stop offset=".731957" stop-color="#1f2d75" stop-opacity="0"/><stop offset=".956392" stop-color="#1f2d75" stop-opacity=".75"/></linearGradient><radialGradient id="ai" cx="0" cy="0" gradientTransform="matrix(-8.50000405 -8.77009852 5.93320327 -5.75047722 29.9467 22.9694)" gradientUnits="userSpaceOnUse" r="1" xlink:href="#ah"/><radialGradient id="aj" cx="0" cy="0" gradientTransform="matrix(10.89343305 -.93750314 1.57414646 18.29098841 1.11581 20.8132)" gradientUnits="userSpaceOnUse" r="1"><stop offset="0" stop-color="#3d5bf1"/><stop offset="1" stop-color="#5c98ff"/></radialGradient><radialGradient id="ak" cx="0" cy="0" gradientTransform="matrix(-10.77729186 4.81256576 -3.25583957 -7.29114885 10.724 17.2506)" gradientUnits="userSpaceOnUse" r="1" xlink:href="#ah"/><linearGradient id="al" gradientUnits="userSpaceOnUse" x1="8.32171" x2="2.32171" y1="22.5007" y2="16.3132"><stop offset=".585153" stop-color="#1f2d75" stop-opacity="0"/><stop offset="1" stop-color="#1f2d75" stop-opacity=".75"/></linearGradient><linearGradient id="am"><stop offset=".166667" stop-color="#482641"/><stop offset=".276042" stop-color="#594253"/><stop offset=".401042" stop-color="#483637"/></linearGradient><radialGradient id="an" cx="0" cy="0" gradientTransform="matrix(-.2187489 -3.90624986 7.34958499 -.41157471 20.5 15.6256)" gradientUnits="userSpaceOnUse" r="1" xlink:href="#am"/><linearGradient id="ao"><stop offset="0" stop-color="#271b27"/><stop offset="1" stop-color="#483637" stop-opacity="0"/></linearGradient><linearGradient id="ap" gradientUnits="userSpaceOnUse" x1="18.5067" x2="19.1657" xlink:href="#ao" y1="15.5092" y2="14.3652"/><radialGradient id="aq" cx="0" cy="0" gradientTransform="matrix(-.09375092 -3.1875016 6.17890799 -.18173428 11.5938 15.3913)" gradientUnits="userSpaceOnUse" r="1" xlink:href="#am"/><linearGradient id="ar" gradientUnits="userSpaceOnUse" x1="9.50667" x2="10.1657" xlink:href="#ao" y1="15.5092" y2="14.3652"/><path d="m4 25.942c0 2.2319 1.76327 4.058 3.91837 4.058h16.16323c2.1551 0 3.9184-1.9275 3.9184-4.1594v-19.4109c0-1.3-1.5901-1.9-2.4845-1l-4.5419 4.5703h-9.8119l-4.6617-4.5703c-.9-.9-2.5-.3-2.5 1z" fill="url(#E)"/><path d="m4 25.942c0 2.2319 1.76327 4.058 3.91837 4.058h16.16323c2.1551 0 3.9184-1.9275 3.9184-4.1594v-19.4109c0-1.3-1.5901-1.9-2.4845-1l-4.5419 4.5703h-9.8119l-4.6617-4.5703c-.9-.9-2.5-.3-2.5 1z" fill="url(#G)"/><path d="m4 25.942c0 2.2319 1.76327 4.058 3.91837 4.058h16.16323c2.1551 0 3.9184-1.9275 3.9184-4.1594v-19.4109c0-1.3-1.5901-1.9-2.4845-1l-4.5419 4.5703h-9.8119l-4.6617-4.5703c-.9-.9-2.5-.3-2.5 1z" fill="url(#H)"/><path d="m4 25.942c0 2.2319 1.76327 4.058 3.91837 4.058h16.16323c2.1551 0 3.9184-1.9275 3.9184-4.1594v-19.4109c0-1.3-1.5901-1.9-2.4845-1l-4.5419 4.5703h-9.8119l-4.6617-4.5703c-.9-.9-2.5-.3-2.5 1z" fill="url(#I)"/><path d="m4 25.942c0 2.2319 1.76327 4.058 3.91837 4.058h16.16323c2.1551 0 3.9184-1.9275 3.9184-4.1594v-19.4109c0-1.3-1.5901-1.9-2.4845-1l-4.5419 4.5703h-9.8119l-4.6617-4.5703c-.9-.9-2.5-.3-2.5 1z" fill="url(#J)"/><path d="m4 25.942c0 2.2319 1.76327 4.058 3.91837 4.058h16.16323c2.1551 0 3.9184-1.9275 3.9184-4.1594v-19.4109c0-1.3-1.5901-1.9-2.4845-1l-4.5419 4.5703h-9.8119l-4.6617-4.5703c-.9-.9-2.5-.3-2.5 1z" fill="url(#K)"/><g filter="url(#a)"><rect fill="#d67908" height="3.69801" rx="1.36346" width="2.72692" x="5.05408" y="21.8834"/></g><g filter="url(#b)"><path d="m20.7508 10.2638c-2.9833.1075 5.2265 4.9538 5.2265 4.9538l1.125-9.06254c.0547-.46094-.3641-.95351-1.25-.13098 0 0-3.8265 3.76801-4.0136 3.95222-.1871.1842-.408.2489-.7016.2875-.1496.0196-.2356-.0055-.3863 0z" fill="url(#L)"/></g><path d="m6.13258 13.5666 2.8-2.6c.32-.3.32-.78 0-1.07005l-3.01468-2.67718c-.38282-.33594-1.17532-.22656-1.17532.60718v5.20005c0 .8334.88 1.02 1.39.54z" fill="url(#M)"/><g filter="url(#c)"><path d="m26.4909 5.71495c.0579-.14368.1973-.23778.3522-.23778.2098 0 .3798.17005.3798.37982v2.24518l-1.4174-.6875z" fill="url(#N)"/></g><g filter="url(#d)"><path d="m5.22321 6.38342 3.37496 3.21954c.75411.71934.76824 1.91854.03129 2.65544" stroke="#ffdf70" stroke-linecap="round"/></g><g filter="url(#e)"><path d="m14.8054 16.5141.0643-.015c.4736-.1104.9669-.1053 1.438.015.5211.0981.8322.6955.3922 1.1255l-.5508.6015c-.27.27-.8628.27-1.1328 0l-.5429-.6015c-.4493-.5078-.168-1.0156.332-1.1255z" fill="url(#O)"/></g><path d="m15.2265 16.0705.0643-.015c.4736-.1105.9669-.1054 1.4381.015.5211.0981.8321.6954.3921 1.1254l-.5507.6016c-.27.27-.8628.27-1.1328 0l-.543-.6016c-.4492-.5078-.168-1.0156.332-1.1254z" fill="url(#P)"/><g filter="url(#f)"><ellipse cx="16.2703" cy="16.6053" fill="url(#Q)" rx=".761719" ry=".274258"/></g><g filter="url(#g)"><path d="m24.7851 22.9554 3.8047-1.8125" stroke="url(#R)" stroke-linecap="round" stroke-miterlimit="10" stroke-width="1.2"/></g><g filter="url(#h)"><path d="m24.7851 24.9866 1.9266 1.3656" stroke="url(#S)" stroke-linecap="round" stroke-miterlimit="10" stroke-width="1.2"/></g><path d="m25.5636 24.7324 3.8016 1.8191" stroke="url(#T)" stroke-linecap="round" stroke-miterlimit="10" stroke-width="1.2"/><g filter="url(#i)"><path d="m26.2031 24.9381 3.0969 1.4932" stroke="#ff8485" stroke-linecap="round" stroke-miterlimit="10" stroke-width=".2"/></g><g filter="url(#j)"><ellipse cx="29.5404" cy="26.4313" fill="#ffdd86" rx=".18384" ry=".165827" transform="matrix(.88049307 .47405901 -.47405901 .88049307 16.060278 -10.845169)"/></g><g filter="url(#k)" opacity=".5"><path d="m9.99465 19.4353c.38935-.5293.23285-1.2794-.33561-1.6089-.48769-.2827-1.11002-.1525-1.44343.302l-3.03978 4.1439c-.36522.4978-.24938 1.1987.25662 1.5526.48962.3424 1.16303.2316 1.51705-.2497z" fill="#d17426"/></g><path d="m6.5281 24.7441-3.80156 1.8191" stroke="url(#V)" stroke-linecap="round" stroke-miterlimit="10" stroke-width="1.2"/><g filter="url(#l)"><path d="m6.59334 24.6239-3.80155 1.8191" stroke="#ff8485" stroke-linecap="round" stroke-miterlimit="10" stroke-width=".3"/></g><g filter="url(#m)"><ellipse fill="#ffdd86" rx=".18384" ry=".165827" transform="matrix(-.942776 -.333427 -.333427 .942776 6.64614 24.568)"/></g><path d="m6.53973 22.5874-3.81358-1.7937" stroke="url(#W)" stroke-linecap="round" stroke-miterlimit="10" stroke-width="1.2"/><g filter="url(#n)"><path d="m6.67403 22.5619-3.81357-1.7937" stroke="#ff8485" stroke-linecap="round" stroke-miterlimit="10" stroke-width=".3"/></g><g filter="url(#o)"><ellipse fill="#ffdd86" rx=".18384" ry=".165827" transform="matrix(-.338111 -.941106 -.941106 .338111 6.75078 22.5674)"/></g><path d="m20.4179 18.9186c0 2.44-1.9819 4.3359-4.4219 4.3359s-4.3125-1.9428-4.3125-4.3828c0 0 1.8047 2.1328 4.3125 0 2.3516 2.0781 4.4219.0469 4.4219.0469z" fill="url(#X)"/><g filter="url(#p)"><path d="m22.1024 10.1647h4.5851v14.1857h-4.5851z" fill="url(#Y)"/></g><g filter="url(#q)"><path d="m20.8841 20.0949c-.484-.658-.3013-1.5893.3955-2.0157.6185-.3784 1.4238-.2197 1.8524.3651l2.636 3.5961c.4595.6269.316 1.5088-.3187 1.9576-.6188.4377-1.4741.2992-1.9233-.3114z" fill="#d17426"/></g><path d="m25.5663 22.6022 3.6837-1.7344" stroke="url(#Z)" stroke-linecap="round" stroke-miterlimit="10" stroke-width="1.2"/><g filter="url(#r)"><path d="m25.5663 22.774 3.8047-1.8125" stroke="#ff5b5d" stroke-linecap="round" stroke-miterlimit="10" stroke-width=".3"/></g><path d="m25.8329 13.5666-2.8-2.6c-.32-.3-.32-.78 0-1.07005l3.0147-2.67718c.3828-.33594 1.1753-.22656 1.1753.60718v5.20005c0 .8334-.88 1.02-1.39.54z" fill="#ffb915"/><path d="m25.8329 13.5666-2.8-2.6c-.32-.3-.32-.78 0-1.07005l3.0147-2.67718c.3828-.33594 1.1753-.22656 1.1753.60718v5.20005c0 .8334-.88 1.02-1.39.54z" fill="url(#aa)"/><g filter="url(#s)"><path d="m26.6336 7.4303-3.625 3.125 3.5469 2.8125z" fill="url(#ab)"/></g><g filter="url(#t)"><path d="m23.7274 10.3522 2.5312 2.7343" stroke="url(#ac)" stroke-linecap="round" stroke-width=".5"/></g><g filter="url(#u)"><path d="m5.22321 7.56238v5.90772l3.46875-3.0894z" fill="#feb33e"/></g><g filter="url(#v)"><path d="m5.22321 7.78967v5.18753" stroke="#ffe7a3" stroke-linecap="round" stroke-width=".15"/></g><g filter="url(#w)"><ellipse fill="#ffdd86" rx=".18384" ry=".165827" transform="matrix(-.922231 -.386639 -.386639 .922231 2.81325 20.6437)"/></g><g filter="url(#x)"><ellipse cx="29.6059" cy="20.6437" fill="#ffdd86" rx=".18384" ry=".165827" transform="matrix(.92223134 -.38663853 .38663853 .92223134 -5.679239 13.052215)"/></g><g filter="url(#y)"><path clip-rule="evenodd" d="m20.7972 16.1738c-.75-.6216-1.5563-.2954-1.8258.001-.1762.1939-.4762.2081-.67.0319-.1939-.1762-.2082-.4762-.032-.67.5391-.593 1.9158-1.1022 3.1332-.0933.2017.1671.2297.4662.0625.6679s-.4662.2297-.6679.0625z" fill="url(#ae)" fill-rule="evenodd"/></g><g filter="url(#z)"><path clip-rule="evenodd" d="m11.7861 16.1504c-.7646-.6337-1.5865-.3012-1.86121.001-.17963.1976-.48544.2122-.68303.0325-.19759-.1796-.21216-.4854-.03252-.683.54948-.6044 1.95286-1.1236 3.19376-.0951.2056.1704.2342.4752.0638.6808s-.4752.2342-.6808.0638z" fill="url(#af)" fill-rule="evenodd"/></g><path d="m22.9635 19.0509c-.9136-.9136-.8646-2.4091.1068-3.2609.8869-.7776 2.2253-.7323 3.0575.1035l3.15 3.1637c.8766.8803.8648 2.3073-.0261 3.1731-.8745.8497-2.2692.8397-3.1313-.0225z" fill="url(#ag)"/><path d="m22.9635 19.0509c-.9136-.9136-.8646-2.4091.1068-3.2609.8869-.7776 2.2253-.7323 3.0575.1035l3.15 3.1637c.8766.8803.8648 2.3073-.0261 3.1731-.8745.8497-2.2692.8397-3.1313-.0225z" fill="url(#ai)"/><g filter="url(#A)"><path d="m25.1655 16.5631 3.2187 3.3438" stroke="#6bafff" stroke-linecap="round"/></g><g filter="url(#B)"><circle cx="28.4247" cy="20.5302" fill="#6bafff" r=".742188"/></g><path d="m9.03653 19.0509c.91355-.9136.86455-2.4091-.10684-3.2609-.88681-.7776-2.22524-.7323-3.05744.1035l-3.15007 3.1637c-.87657.8803-.8648 2.3073.02619 3.1731.87442.8497 2.26911.8397 3.13126-.0225z" fill="url(#aj)"/><path d="m9.03653 19.0509c.91355-.9136.86455-2.4091-.10684-3.2609-.88681-.7776-2.22524-.7323-3.05744.1035l-3.15007 3.1637c-.87657.8803-.8648 2.3073.02619 3.1731.87442.8497 2.26911.8397 3.13126-.0225z" fill="url(#ak)"/><path d="m9.03653 19.0509c.91355-.9136.86455-2.4091-.10684-3.2609-.88681-.7776-2.22524-.7323-3.05744.1035l-3.15007 3.1637c-.87657.8803-.8648 2.3073.02619 3.1731.87442.8497 2.26911.8397 3.13126-.0225z" fill="url(#al)"/><g filter="url(#C)"><path d="m8.29492 17.6178-3.21875 3.3437" stroke="#6bafff" stroke-linecap="round"/></g><g filter="url(#D)"><circle fill="#6bafff" r=".742188" transform="matrix(-1 0 0 1 8.08502 16.8678)"/></g><g stroke-linecap="round" stroke-width="1.1"><path d="m19.0625 15.2272c.4687-.5156 1.7344-1 2.875-.0547" stroke="url(#an)"/><path d="m19.0625 15.2272c.4687-.5156 1.7344-1 2.875-.0547" stroke="url(#ap)"/><path d="m10.0625 15.2272c.4687-.5156 1.7344-1 2.875-.0547" stroke="url(#aq)"/><path d="m10.0625 15.2272c.4687-.5156 1.7344-1 2.875-.0547" stroke="url(#ar)"/></g></svg>