<svg fill="none" height="32" viewBox="0 0 32 32" width="32" xmlns="http://www.w3.org/2000/svg" xmlns:xlink="http://www.w3.org/1999/xlink"><radialGradient id="a" cx="0" cy="0" gradientTransform="matrix(13.74997716 -14.06245419 8.72293156 8.52910225 6.19904 26)" gradientUnits="userSpaceOnUse" r="1"><stop offset="0" stop-color="#ff9130"/><stop offset="1" stop-color="#f3633d"/></radialGradient><linearGradient id="b" gradientUnits="userSpaceOnUse" x1="10.1365" x2="11.699" y1="14.875" y2="16.375"><stop offset="0" stop-color="#ee9b6a"/><stop offset="1" stop-color="#ee9b6a" stop-opacity="0"/></linearGradient><linearGradient id="c" gradientUnits="userSpaceOnUse" x1="20.6365" x2="18.7615" y1="18.5" y2="16.9375"><stop offset="0" stop-color="#e66a62"/><stop offset="1" stop-color="#e66a62" stop-opacity="0"/></linearGradient><radialGradient id="d" cx="0" cy="0" gradientTransform="matrix(12.87502768 -12.81253001 2.86510882 2.8790844 5.94904 25.8125)" gradientUnits="userSpaceOnUse" r="1"><stop offset="0" stop-color="#ff994d"/><stop offset="1" stop-color="#ff994d" stop-opacity="0"/></radialGradient><linearGradient id="e" gradientUnits="userSpaceOnUse" x1="3.88654" x2="6.51154" y1="26.0937" y2="30.2187"><stop offset="0" stop-color="#d8a587"/><stop offset="1" stop-color="#ce7a98"/></linearGradient><linearGradient id="f" gradientUnits="userSpaceOnUse" x1="6.98029" x2="6.45685" y1="26.2822" y2="26.8124"><stop offset=".207411" stop-color="#ffc09f"/><stop offset="1" stop-color="#fcb196" stop-opacity="0"/></linearGradient><linearGradient id="g" gradientUnits="userSpaceOnUse" x1="1.51154" x2="3.63654" y1="25.9374" y2="26.1249"><stop offset="0" stop-color="#debca3"/><stop offset="1" stop-color="#debca3" stop-opacity="0"/></linearGradient><linearGradient id="h" gradientUnits="userSpaceOnUse" x1="28.074" x2="23.949" y1="4.93753" y2="9.00003"><stop offset="0" stop-color="#ff6153"/><stop offset="1" stop-color="#ff6154"/></linearGradient><linearGradient id="i" gradientUnits="userSpaceOnUse" x1="20.7615" x2="24.0115" y1="4.56253" y2="7.56253"><stop offset="0" stop-color="#f1553e"/><stop offset="1" stop-color="#f1553e" stop-opacity="0"/></linearGradient><radialGradient id="j" cx="0" cy="0" gradientTransform="matrix(-.96875043 .96875043 -2.20070722 -2.20070722 27.2303 5.87503)" gradientUnits="userSpaceOnUse" r="1"><stop offset=".177419" stop-color="#ff786d"/><stop offset="1" stop-color="#ff786d" stop-opacity="0"/></radialGradient><linearGradient id="k" gradientUnits="userSpaceOnUse" x1="18.324" x2="22.449" y1="7.375" y2="11.125"><stop offset="0" stop-color="#c5c4cb"/><stop offset="1" stop-color="#e8defa"/></linearGradient><linearGradient id="l" gradientUnits="userSpaceOnUse" x1="24.824" x2="22.5115" y1="14.375" y2="12.125"><stop offset="0" stop-color="#c9b9e0"/><stop offset="1" stop-color="#c9b9e0" stop-opacity="0"/></linearGradient><linearGradient id="m" gradientUnits="userSpaceOnUse" x1="2.23029" x2="3.29095" y1="28.5312" y2="30.0011"><stop offset="0" stop-color="#461e49"/><stop offset="1" stop-color="#450f51"/></linearGradient><path d="m23.0368 2.50597c.5858-.58578 1.5355-.58578 2.1213 0l4.3631 4.36306c.5858.58578.5858 1.53553 0 2.12132l-20.05733 20.05735-6.48437-6.4844z" fill="url(#a)"/><path d="m23.0368 2.50597c.5858-.58578 1.5355-.58578 2.1213 0l4.3631 4.36306c.5858.58578.5858 1.53553 0 2.12132l-20.05733 20.05735-6.48437-6.4844z" fill="url(#b)"/><path d="m23.0368 2.50597c.5858-.58578 1.5355-.58578 2.1213 0l4.3631 4.36306c.5858.58578.5858 1.53553 0 2.12132l-20.05733 20.05735-6.48437-6.4844z" fill="url(#c)"/><path d="m23.0368 2.50597c.5858-.58578 1.5355-.58578 2.1213 0l4.3631 4.36306c.5858.58578.5858 1.53553 0 2.12132l-20.05733 20.05735-6.48437-6.4844z" fill="url(#d)"/><path d="m2.03436 29.7823c-.01183.125.0932.2299.21825.2179l6.54113-.6288c.18822-.0181.36745-.0892.5169-.205l.15325-.1188-6.48438-6.4844-.10056.1218c-.12742.1543-.2056.3433-.22445.5425z" fill="url(#e)"/><path d="m2.03436 29.7823c-.01183.125.0932.2299.21825.2179l6.54113-.6288c.18822-.0181.36745-.0892.5169-.205l.15325-.1188-6.48438-6.4844-.10056.1218c-.12742.1543-.2056.3433-.22445.5425z" fill="url(#f)"/><path d="m2.03436 29.7823c-.01183.125.0932.2299.21825.2179l6.54113-.6288c.18822-.0181.36745-.0892.5169-.205l.15325-.1188-6.48438-6.4844-.10056.1218c-.12742.1543-.2056.3433-.22445.5425z" fill="url(#g)"/><path d="m26.3397 12.1719 3.1815-3.18153c.5858-.58578.5858-1.53554 0-2.12132l-4.3631-4.36306c-.5858-.58579-1.5355-.58579-2.1213 0l-3.1815 3.18153z" fill="url(#h)"/><path d="m26.3397 12.1719 3.1815-3.18153c.5858-.58578.5858-1.53554 0-2.12132l-4.3631-4.36306c-.5858-.58579-1.5355-.58579-2.1213 0l-3.1815 3.18153z" fill="url(#i)"/><path d="m26.3397 12.1719 3.1815-3.18153c.5858-.58578.5858-1.53554 0-2.12132l-4.3631-4.36306c-.5858-.58579-1.5355-.58579-2.1213 0l-3.1815 3.18153z" fill="url(#j)"/><path d="m16.6656 8.87719 3.1897-3.18969 6.4844 6.4844-3.1897 3.1896z" fill="url(#k)"/><path d="m16.6656 8.87719 3.1897-3.18969 6.4844 6.4844-3.1897 3.1896z" fill="url(#l)"/><path d="m2.25262 30.0002c-.12506.012-.2301-.0929-.21826-.2179l.21753-2.2994 2.29657 2.2966z" fill="url(#m)"/></svg>