<svg enable-background="new 0 0 128 128" viewBox="0 0 32 32" xmlns="http://www.w3.org/2000/svg"><path d="m24.4853 2.56853c-.3905-.39053-1.0237-.39053-1.4142 0l-1.0607 1.06066 2.4749 3.88909 3.8891 2.47487 1.0606-1.06066c.3906-.39053.3906-1.02369 0-1.41421z" fill="#00d26a"/><path d="m5.0417 20.598 4.50489 2.3905 1.85911 3.9735-.5401.54c-.1099.1099-.2438.1926-.3912.2417l-6.32283 2.1053c-.539.1796-1.13325.0393-1.535-.3624l-.10317-.1032c-.40175-.4017-.54203-.996-.36236-1.535l2.10888-6.3195c.04911-.1472.13178-.2809.24147-.3906z" fill="#00d26a"/><path d="m28.3762 9.9914-6.364-6.36396-.7071.70712 2.8169 3.57399 3.5471 2.78995zm-1.4142 1.4142-2.84-3.49705-3.524-2.86688-14.14213 14.14213 2.69331 3.4924 3.67062 2.8716zm-14.8493 14.8493-2.96352-3.5787-3.40042-2.7853-.70707.7071 6.36391 6.364z" fill="#c3ef3c"/><g fill="#321b41"><path d="m27.6691 10.6986-6.3639-6.36401-.7071.70711 6.3639 6.364z"/><path d="m18.1213 16.7071c-2.7336 2.7337-5.5829 4.3166-6.3639 3.5356-.7811-.7811.8018-3.6303 3.5355-6.364s5.5829-4.31658 6.364-3.5355c.781.781-.8019 3.6303-3.5356 6.3639z"/><path d="m6.45592 19.1838 6.36398 6.364-.7071.7071-6.36399-6.364z"/></g></svg>