<svg enable-background="new 0 0 128 128" viewBox="0 0 128 128" xmlns="http://www.w3.org/2000/svg"><g transform="scale(4)"><path d="m18.7225 5.89025c1.34-1.34 3.51-1.34 4.85 0s1.34 3.51-.01 4.85005l-3.2541 3.2541.4038.4038c.8701.8701.8701 2.292 0 3.1621-.8701.8702-2.292.8702-3.1621 0l-1.3751-1.375-1.3878 1.3878c-.8531.8531-2.2472.8531-3.1003 0s-.8531-2.2472 0-3.1003l.2999-.2999c-.0111-.0108-.0221-.0217-.033-.0326l-3.37-3.37c-1.34-1.34002-1.34-3.51002 0-4.85002s3.51-1.34 4.85 0l2.6254 2.62541z" fill="#75e0fc"/><path d="m11.2286 6.09779c-.0959.01192-.164.09933-.1521.19524l.1894 1.52434-1.0997-.99856c-.0715-.06497-.18218-.05964-.24715.01192-.06498.07155-.05964.18222.01191.2472l4.36154 3.96047c.0715.065.1822.0596.2472-.0119.065-.0716.0596-.1823-.0119-.2472l-2.8643-2.60094-.2396-1.92848c-.012-.09592-.0994-.16401-.1953-.15209zm9.7157.05616c.0958.01287.163.10095.1502.19674l-.207 1.54036 1.1975-1.073c.072-.0645.1826-.05844.2471.01354s.0584.18262-.0135.24712l-4.33 3.87999c-.072.0645-.1827.0584-.2472-.0135-.0644-.072-.0584-.1827.0136-.2472l2.7311-2.4472.2615-1.94671c.0129-.09579.1009-.16301.1967-.15014zm-11.07675 3.12149c.06499-.07153.17565-.07684.24725-.01186l3.4563 3.13992c.0715.065.0768.1756.0119.2472-.065.0715-.1757.0768-.2472.0118l-1.2244-1.1122c-.0008.0001-.0016.0002-.0024.0002l-1.25.1c-.0963.0077-.1807-.0641-.1884-.1605-.0077-.0963.0641-.1807.1605-.1884l.9251-.074-1.87679-1.70495c-.07154-.06499-.07685-.17567-.01186-.24721zm12.52015.28491c.0726-.06377.0798-.17435.016-.24697-.0638-.07261-.1744-.07978-.247-.016l-3.45 3.03002c-.0726.0638-.0798.1743-.016.2469.0638.0727.1744.0798.247.0161l1.2157-1.0678c.0253.0186.0559.0306.0894.0333l1.24.1c.0964.0078.1808-.064.1885-.1604.0078-.0963-.064-.1807-.1603-.1885l-1.0186-.0821z" fill="#fff"/><path d="m17.1722 4.59382-.0264-.02517c-.5439-.51857-1.4012-.51197-1.9371.0149-.1947.19143-.4444.32199-.7124.37432-.5812.11347-1.0389.57548-1.1397 1.15896l-.1089.63031c-.0289.16773-.0822.33035-.158.48273l-.0577.11584c-.1581.31758-.1916.68286-.0937 1.02386l.0166.05814c.0662.23066.0628.47573-.0097.70448-.1632.51472.0317 1.07551.479 1.37801l.3095.2093c.2844.1924.6198.2951.9631.2951h2.9397c.3477 0 .6875-.1041.9755-.2989l.2903-.1963c.457-.3091.6605-.87888.5029-1.40752-.0645-.21635-.0698-.44604-.0155-.66516l.0471-.18993c.0845-.34062.0254-.70099-.1634-.99679-.097-.15196-.1608-.3227-.1873-.50103l-.093-.6281c-.0874-.58936-.5364-1.05987-1.121-1.17471-.263-.05167-.5058-.17738-.6999-.36234z" fill="#593b39"/><path d="m23.0841 9.01178c0-.18334.1486-.33179.332-.33179.1937 0 .3463.1652.3309.35832l-.0832 1.04409c-.0216.6474-.0697 2.3743-.1016 3.5368-.0173.6314-.5341 1.1334-1.1657 1.1334-.1528 0-.304-.0301-.4452-.0884l-2.9019-1.199c-.0559-.0231-.1173.018-.1173.0785v.3423c0 1.4073 0 2.1109.0979 2.8054.0978.6944.2923 1.3707.6813 2.7231l.5594 1.9446c.1174.4081.0562.847-.1683 1.2075l-3.1388 5.0407c-.1058.1699-.3582.1529-.4402-.0295l-.6385-1.4195c-.036-.0801-.0356-.171.0017-.2504.2616-.5566 1.3354-2.8522 1.891-4.1978.0497-.1204.0488-.2547-.0006-.3753l-1.2054-2.9405c-.1-.244-.4609-.1869-.4806.0762l-.789 10.5362c-.008.107-.0726.2015-.1692.248l-1.3217.6353c-.166.0797-.3583-.0412-.3583-.2254l-.0129-15.2696c-.0001-.1343-.0002-.2015-.0352-.2253-.009-.0061-.0192-.0104-.0299-.0124-.0416-.0079-.0892.0395-.1843.1344s-.6891.67-1.6563 1.16c-.8896.4506-1.7691.4445-2.33249.4406-.04924-.0003-.09607-.0006-.14027-.0006-.55 0-1.24686-.196-1.24686-.196s-.30079.3438-.79397.186c-.15091.1837-.39757.3923-.65918.2085-.47266-.332-.08923-1.0339.13687-1.2915.34301-.4086.97333-.827 1.53496-.827.20555-.0105.4071-.0115.60884-.0126.56734-.0029 1.13625-.0058 1.8003-.2183.9544-.3056 1.6771-1.1192 2.2641-1.7801.3801-.4279.7032-.7917.9956-.9121.51-.21 1.0361-.2492 1.5861-.2492h1.82c.62 0 1.1319.0738 1.8239.4101l2.71 1.1151c.0498-.2502.2483-1.3136.3545-1.8834.0431-.2315-.014-.47219-.1735-.64538-.1123-.12199-.181-.28014-.181-.44596l.0001-.79382c0-.23443.1915-.4237.4259-.421.241.00277.4345.20692.4335.44792-.0013.28725.0022.53875.0053.77431.0021.15758.1306.28347.2882.28347.1596 0 .289-.12926.289-.28888z" fill="#bb806e"/><path d="m15.3777 27.9953-.0757 1.0113c-.008.107-.0726.2015-.1692.248l-1.3217.6353c-.166.0797-.3583-.0412-.3583-.2254l-.0013-1.4819zm2.2029-1.3789-.617.9908c-.1058.1699-.3582.1529-.4402-.0295l-.6385-1.4195c-.036-.0801-.0356-.171.0017-.2504.0934-.1987.2902-.619.5301-1.1385z" fill="#635994"/><path d="m17.17 10.0004v2.9862l-2 .0136v-3z" fill="#b87a66"/><path d="m18.9903 16.4104.6919 2.6183c.0206.0781-.0126.1605-.0816.2024l-.1756.1068c-1.7885 1.0873-3.8414 1.6623-5.9345 1.6623-.0964 0-.1738-.0795-.1713-.1758l.1165-4.414z" fill="#8b62bf"/><path d="m17.1688 10.7996c.5346.0044.9943.0696 1.5698.3206.1086.1581.173.349.1752.5551l.0194 1.8543c-.0007.0045-.0011.0092-.0011.0141v.3423c0 .9063 0 1.5208.0261 2.0289l.0009.0853h-5.5179l-.0013-1.6053c-.0001-.1085-.0002-.1732-.0186-.2066v-2.4533c0-.263.1015-.5023.2674-.6808.0045-.0019.0089-.0038.0134-.0056.473-.1948.96-.2427 1.467-.2486l.6466 1.2273c.1501.2849.5582.2847.708-.0003z" fill="#8b62bf"/><path d="m13.4416 16.4084-.0007-.8342h5.5039c.009.3126.0244.58.0507.8342z" fill="#c3ef3c"/><path d="m14.7019 8.00005c0 .3866-.3134.7-.7.7s-.7-.3134-.7-.7.3134-.7.7-.7.7.3134.7.7zm4.2902 0c0 .3866-.3134.7-.7.7s-.7-.3134-.7-.7.3134-.7.7-.7.7.3134.7.7z" fill="#b87a66"/><path d="m18.4102 6.94266c-.0472-.22402-.2459-.3922-.4839-.3922h-1.4067c-.5177 0-1.0106-.22137-1.3545-.60829l-.138-.15521c-.0442-.04975-.1263-.02679-.1383.03868-.0388.21175-.1614.39888-.3401.51902l-.3295.22163c-.1673.11247-.2766.29068-.3063.48712l.0414 1.62395c.0467 1.04091.9041 1.86084 1.9461 1.86084h.5276c1.0411 0 1.897-.82073 1.9407-1.86084z" fill="#c68d7b"/><path d="m22.4727 5.33325v4.03024c0 .16711.1588.30472.3516.30472s.3515-.13761.3515-.30472v-4.03024z" fill="#75443e"/><path d="m22.973 2.36856.4691.96108c.0229.04576.0687.08009.1259.09153l1.064.14874c.1373.02288.1945.18306.0915.28603l-.7665.74369c-.0344.03432-.0572.09153-.0458.14874l.1831 1.05261c.0229.13729-.1144.24026-.2403.17162l-.9611-.49198c-.0457-.02289-.1029-.02289-.1602 0l-.9496.50342c-.1144.0572-.2517-.04577-.2288-.18306l.183-1.05261c.0115-.05721-.0114-.11442-.0457-.14874l-.7666-.74369c-.103-.09153-.0458-.26315.0915-.28603l1.0526-.14874c.0573-.01144.103-.04577.1259-.09153l.4691-.96108c.0686-.12585.2403-.12585.3089 0z" fill="#fcd53f"/><path d="m15.0074 7.32104c.2499 0 .4498.17138.5784.36417-.0948.02863-.1868.05523-.2775.08146-.2034.05881-.4006.11581-.608.18987l-.2142-.19279c-.0857-.07854-.0785-.21421.0143-.28562.1428-.09996.3285-.15709.507-.15709zm2.3252.00025c-.2499 0-.4498.17137-.5783.36416.0947.02864.1867.05523.2774.08147.2035.05881.4006.1158.608.18987l.2142-.19279c.0857-.07855.0785-.21422-.0143-.28562-.1428-.09997-.3284-.15709-.507-.15709z"/><path d="m17.7889 6.93908-.0009-.00076-.0014-.00115-.0039-.00315c-.0031-.00247-.0072-.00565-.0124-.0094-.0102-.00751-.0246-.01736-.043-.02848-.0369-.02224-.0902-.04965-.1597-.07375-.1398-.04846-.3424-.0825-.6053-.03725-.0635.01094-.1061.07129-.0952.13481s.0713.10614.1348.09521c.222-.03822.3848-.00847.4892.02775.0526.01824.0912.03837.1156.0531.0122.00736.0209.01335.0259.01706l.005.00371c.0489.04118.1223.03559.164-.01306.042-.04892.0362-.12268-.0127-.16464-.1267.14803 0 .00002 0 0zm-3.229-.00488.0011-.00089.0014-.00118.004-.00317c.0032-.00246.0074-.0056.0127-.00928.0104-.00736.0249-.01691.0436-.02759.0374-.02137.0913-.04728.162-.06933.1423-.04434.3493-.07201.6221-.01985.0633.01211.1048.07324.0927.13654-.0121.06331-.0732.10481-.1365.09271-.235-.04491-.403-.01955-.5088.01343-.0533.01659-.0917.03541-.1156.04909-.012.00685-.0203.01242-.0251.01579l-.0045.00328c-.0003.00023-.0001.00012 0 0-.0494.04132-.1221.03421-.1635-.01514-.0414-.04938-.035-.12299.0144-.16441z" fill="#593b39"/><path d="m14.5581 7.86016c.07-.26.3-.45.58-.45.29 0 .53.2.59.47.01.06-.04.12-.1.12h-.95c-.07 0-.13-.07-.12-.14zm3.2051 0c-.07-.26-.3-.45-.58-.45-.29 0-.53.2-.58.47-.01.06.04.12.1.12h.95c.07 0 .13-.07.11-.14z" fill="#fff"/><path d="m14.8483 7.90026c0-.21.17-.38.38-.38s.38.17.37.38v.00001c0 .03 0 .07-.01.09999h-.73c0-.015-.0025-.0325-.005-.05s-.005-.035-.005-.05zm2.6251 0c0-.21-.17-.38-.38-.38s-.38.17-.37.38c0 .03 0 .07.01.1h.73c0-.015.0025-.0325.005-.05s.005-.035.005-.05z" fill="#7d4533"/><path d="m15.2282 7.68018c.12 0 .22.1.22.22 0 .04-.01.07-.04.1h-.38v-.00001c-.01-.03-.02-.06-.02-.09999 0-.12.1-.22.22-.22zm1.8752 0c-.12 0-.22.1-.22.22 0 .04.01.07.04.1h.38c.01-.03.02-.06.02-.1 0-.12-.1-.22-.22-.22z"/><path d="m15.1682 7.75018c0 .03866-.0313.07-.07.07s-.07-.03134-.07-.07.0313-.07.07-.07.07.03134.07.07zm1.885 0c0 .03866-.0313.07-.07.07s-.07-.03134-.07-.07.0313-.07.07-.07.07.03134.07.07z" fill="#fff"/><path d="m16.005 8.0055-.22.71c-.04.15.07.3.22.3h.33c.15 0 .26-.15.22-.29l-.22-.71c-.06-.17-.28-.17-.33-.01z" fill="#ab6a55"/><path d="m16.17 9.35078c-.23 0-.44-.05-.62-.15-.06-.03-.13.04-.09.1.16.23.42.38.71.38.3 0 .56-.15.71-.38.04-.06-.03-.13-.09-.1-.18.09-.39.15-.62.15z" fill="#990838"/></g></svg>