<svg enable-background="new 0 0 128 128" viewBox="0 0 32 32" xmlns="http://www.w3.org/2000/svg" xmlns:xlink="http://www.w3.org/1999/xlink"><clipPath id="a"><path d="m0 0h32v32h-32z"/></clipPath><g clip-path="url(#a)"><path d="m11.4375 24.3125c-1.72611-4.2157-5.70316-5.8388-6.57816-6.745-.875-.9063-.97321-2.5942 0-3.63 1.25782-1.3388 2.56905-.9947 4.09379-.0938.51562.3047 2.21877 1.4375 2.21877 1.4375v-10.24996c0-2.10937 1.2619-3.04125 2.4219-3.04125 1.1599 0 2.5624 1.16625 2.5624 3.04125v3.96875s.6113-1.3125 2.4082-1.3125c1.7968 0 2.3106 1.625 2.3106 1.625s.3828-.85155 2.0547-.85155c1.5781 0 2.2422 1.64846 2.2422 1.64846s.5703-.60159 1.9765-.60159c1.0782 0 2.9766 1.52339 2.9766 3.16409 0 7.0905-.7017 17.3181-10.095 17.3181-2.49.01-6.8664-1.4618-8.5925-5.6775z" fill="#c68d7b"/><g clip-rule="evenodd" fill="#a9715f" fill-rule="evenodd"><path d="m13.0796 2.05127c-.4237.41604-.9233 1.67128-.9233 3.93311v9.41402c0 .8594-.9688.7969-.9688 0 0-.3973-.0053-.9129-.0156-1.4921v-8.87505c0-1.79909.9179-2.74162 1.9077-2.97998z"/><path d="m16.1562 8v.99999s.2735-.58715.9922-.97603v4.49164c0 .2762-.2238.5-.5.5-.2761 0-.5-.2238-.5-.5v-4.5156z"/><path d="m20.875 9.31245v.00008s.2103-.46785 1-.70999v2.92876c0 .2761-.2239.5-.5.5s-.5-.2239-.5-.5z"/><path d="m25.1641 10.0909c.0052.012.0078.0185.0078.0185s.2974-.31373.9922-.48806v3.87866c0 .2761-.2239.5-.5.5-.2762 0-.5-.2239-.5-.5z"/></g></g></svg>