<svg fill="none" height="32" viewBox="0 0 32 32" width="32" xmlns="http://www.w3.org/2000/svg" xmlns:xlink="http://www.w3.org/1999/xlink"><filter id="a" color-interpolation-filters="sRGB" filterUnits="userSpaceOnUse" height="8.6496" width="7.48574" x="14.8698" y="7.27435"><feFlood flood-opacity="0" result="BackgroundImageFix"/><feBlend in="SourceGraphic" in2="BackgroundImageFix" mode="normal" result="shape"/><feColorMatrix in="SourceAlpha" result="hardAlpha" type="matrix" values="0 0 0 0 0 0 0 0 0 0 0 0 0 0 0 0 0 0 127 0"/><feOffset dx=".2" dy="-.5"/><feGaussianBlur stdDeviation=".5"/><feComposite in2="hardAlpha" k2="-1" k3="1" operator="arithmetic"/><feColorMatrix type="matrix" values="0 0 0 0 0.247059 0 0 0 0 0.113725 0 0 0 0 0.133333 0 0 0 1 0"/><feBlend in2="shape" mode="normal" result="effect1_innerShadow_3987_23223"/></filter><filter id="b" color-interpolation-filters="sRGB" filterUnits="userSpaceOnUse" height="5.49012" width="5.43889" x="2.46228" y="16.5769"><feFlood flood-opacity="0" result="BackgroundImageFix"/><feBlend in="SourceGraphic" in2="BackgroundImageFix" mode="normal" result="shape"/><feColorMatrix in="SourceAlpha" result="hardAlpha" type="matrix" values="0 0 0 0 0 0 0 0 0 0 0 0 0 0 0 0 0 0 127 0"/><feOffset dy="-.05"/><feGaussianBlur stdDeviation=".025"/><feComposite in2="hardAlpha" k2="-1" k3="1" operator="arithmetic"/><feColorMatrix type="matrix" values="0 0 0 0 0.298039 0 0 0 0 0.223529 0 0 0 0 0.266667 0 0 0 1 0"/><feBlend in2="shape" mode="normal" result="effect1_innerShadow_3987_23223"/></filter><filter id="c" color-interpolation-filters="sRGB" filterUnits="userSpaceOnUse" height="4.29621" width="6.26415" x="4.73962" y="25.6922"><feFlood flood-opacity="0" result="BackgroundImageFix"/><feBlend in="SourceGraphic" in2="BackgroundImageFix" mode="normal" result="shape"/><feColorMatrix in="SourceAlpha" result="hardAlpha" type="matrix" values="0 0 0 0 0 0 0 0 0 0 0 0 0 0 0 0 0 0 127 0"/><feOffset dx=".1" dy=".1"/><feGaussianBlur stdDeviation=".15"/><feComposite in2="hardAlpha" k2="-1" k3="1" operator="arithmetic"/><feColorMatrix type="matrix" values="0 0 0 0 0.862745 0 0 0 0 0.32549 0 0 0 0 0.180392 0 0 0 1 0"/><feBlend in2="shape" mode="normal" result="effect1_innerShadow_3987_23223"/></filter><filter id="d" color-interpolation-filters="sRGB" filterUnits="userSpaceOnUse" height="3.17584" width="5.10515" x="4.73962" y="26.7126"><feFlood flood-opacity="0" result="BackgroundImageFix"/><feBlend in="SourceGraphic" in2="BackgroundImageFix" mode="normal" result="shape"/><feColorMatrix in="SourceAlpha" result="hardAlpha" type="matrix" values="0 0 0 0 0 0 0 0 0 0 0 0 0 0 0 0 0 0 127 0"/><feOffset dy="-.05"/><feGaussianBlur stdDeviation=".05"/><feComposite in2="hardAlpha" k2="-1" k3="1" operator="arithmetic"/><feColorMatrix type="matrix" values="0 0 0 0 0.705882 0 0 0 0 0.564706 0 0 0 0 0.831373 0 0 0 1 0"/><feBlend in2="shape" mode="normal" result="effect1_innerShadow_3987_23223"/></filter><filter id="e" color-interpolation-filters="sRGB" filterUnits="userSpaceOnUse" height="5.54686" width="7.33892" x="11.4237" y="16.8459"><feFlood flood-opacity="0" result="BackgroundImageFix"/><feBlend in="SourceGraphic" in2="BackgroundImageFix" mode="normal" result="shape"/><feColorMatrix in="SourceAlpha" result="hardAlpha" type="matrix" values="0 0 0 0 0 0 0 0 0 0 0 0 0 0 0 0 0 0 127 0"/><feOffset dx=".25" dy=".25"/><feGaussianBlur stdDeviation=".5"/><feComposite in2="hardAlpha" k2="-1" k3="1" operator="arithmetic"/><feColorMatrix type="matrix" values="0 0 0 0 0 0 0 0 0 0 0 0 0 0 0 0 0 0 0.25 0"/><feBlend in2="shape" mode="normal" result="effect1_innerShadow_3987_23223"/></filter><filter id="f" color-interpolation-filters="sRGB" filterUnits="userSpaceOnUse" height="5.55337" width="5.43735" x="22.6763" y="16.2256"><feFlood flood-opacity="0" result="BackgroundImageFix"/><feBlend in="SourceGraphic" in2="BackgroundImageFix" mode="normal" result="shape"/><feColorMatrix in="SourceAlpha" result="hardAlpha" type="matrix" values="0 0 0 0 0 0 0 0 0 0 0 0 0 0 0 0 0 0 127 0"/><feOffset dx=".2" dy="-.1"/><feGaussianBlur stdDeviation=".15"/><feComposite in2="hardAlpha" k2="-1" k3="1" operator="arithmetic"/><feColorMatrix type="matrix" values="0 0 0 0 0.827451 0 0 0 0 0.231373 0 0 0 0 0.321569 0 0 0 1 0"/><feBlend in2="shape" mode="normal" result="effect1_innerShadow_3987_23223"/></filter><filter id="g" color-interpolation-filters="sRGB" filterUnits="userSpaceOnUse" height="5.35292" width="2.6891" x="25.2245" y="16.3257"><feFlood flood-opacity="0" result="BackgroundImageFix"/><feBlend in="SourceGraphic" in2="BackgroundImageFix" mode="normal" result="shape"/><feColorMatrix in="SourceAlpha" result="hardAlpha" type="matrix" values="0 0 0 0 0 0 0 0 0 0 0 0 0 0 0 0 0 0 127 0"/><feOffset dx="-.05" dy=".05"/><feGaussianBlur stdDeviation=".05"/><feComposite in2="hardAlpha" k2="-1" k3="1" operator="arithmetic"/><feColorMatrix type="matrix" values="0 0 0 0 0.94902 0 0 0 0 0.92549 0 0 0 0 0.972549 0 0 0 1 0"/><feBlend in2="shape" mode="normal" result="effect1_innerShadow_3987_23223"/></filter><filter id="h" color-interpolation-filters="sRGB" filterUnits="userSpaceOnUse" height="6.29362" width="8.09789" x="5.65701" y="8.50448"><feFlood flood-opacity="0" result="BackgroundImageFix"/><feBlend in="SourceGraphic" in2="BackgroundImageFix" mode="normal" result="shape"/><feColorMatrix in="SourceAlpha" result="hardAlpha" type="matrix" values="0 0 0 0 0 0 0 0 0 0 0 0 0 0 0 0 0 0 127 0"/><feOffset dx="-.25" dy="-.4"/><feGaussianBlur stdDeviation=".375"/><feComposite in2="hardAlpha" k2="-1" k3="1" operator="arithmetic"/><feColorMatrix type="matrix" values="0 0 0 0 0.25098 0 0 0 0 0.129412 0 0 0 0 0.176471 0 0 0 1 0"/><feBlend in2="shape" mode="normal" result="effect1_innerShadow_3987_23223"/><feColorMatrix in="SourceAlpha" result="hardAlpha" type="matrix" values="0 0 0 0 0 0 0 0 0 0 0 0 0 0 0 0 0 0 127 0"/><feOffset dy="-.1"/><feGaussianBlur stdDeviation=".375"/><feComposite in2="hardAlpha" k2="-1" k3="1" operator="arithmetic"/><feColorMatrix type="matrix" values="0 0 0 0 0.25098 0 0 0 0 0.14902 0 0 0 0 0.215686 0 0 0 1 0"/><feBlend in2="effect1_innerShadow_3987_23223" mode="normal" result="effect2_innerShadow_3987_23223"/></filter><filter id="i" color-interpolation-filters="sRGB" filterUnits="userSpaceOnUse" height="9.98594" width="7.63596" x="11.5819" y="7.0787"><feFlood flood-opacity="0" result="BackgroundImageFix"/><feBlend in="SourceGraphic" in2="BackgroundImageFix" mode="normal" result="shape"/><feColorMatrix in="SourceAlpha" result="hardAlpha" type="matrix" values="0 0 0 0 0 0 0 0 0 0 0 0 0 0 0 0 0 0 127 0"/><feOffset dx=".4" dy="-.4"/><feGaussianBlur stdDeviation=".75"/><feComposite in2="hardAlpha" k2="-1" k3="1" operator="arithmetic"/><feColorMatrix type="matrix" values="0 0 0 0 0.729412 0 0 0 0 0.215686 0 0 0 0 0.101961 0 0 0 1 0"/><feBlend in2="shape" mode="normal" result="effect1_innerShadow_3987_23223"/></filter><filter id="j" color-interpolation-filters="sRGB" filterUnits="userSpaceOnUse" height="5.78232" width="5.62283" x="10.5529" y="3.32208"><feFlood flood-opacity="0" result="BackgroundImageFix"/><feBlend in="SourceGraphic" in2="BackgroundImageFix" mode="normal" result="shape"/><feColorMatrix in="SourceAlpha" result="hardAlpha" type="matrix" values="0 0 0 0 0 0 0 0 0 0 0 0 0 0 0 0 0 0 127 0"/><feOffset dx="1"/><feGaussianBlur stdDeviation=".5"/><feComposite in2="hardAlpha" k2="-1" k3="1" operator="arithmetic"/><feColorMatrix type="matrix" values="0 0 0 0 0.333333 0 0 0 0 0.270588 0 0 0 0 0.258824 0 0 0 1 0"/><feBlend in2="shape" mode="normal" result="effect1_innerShadow_3987_23223"/><feColorMatrix in="SourceAlpha" result="hardAlpha" type="matrix" values="0 0 0 0 0 0 0 0 0 0 0 0 0 0 0 0 0 0 127 0"/><feOffset dy=".2"/><feGaussianBlur stdDeviation=".375"/><feComposite in2="hardAlpha" k2="-1" k3="1" operator="arithmetic"/><feColorMatrix type="matrix" values="0 0 0 0 0.145098 0 0 0 0 0.0705882 0 0 0 0 0.0745098 0 0 0 1 0"/><feBlend in2="effect1_innerShadow_3987_23223" mode="normal" result="effect2_innerShadow_3987_23223"/></filter><filter id="k" color-interpolation-filters="sRGB" filterUnits="userSpaceOnUse" height="3.31174" width="2.79008" x="11.3837" y="4.74042"><feFlood flood-opacity="0" result="BackgroundImageFix"/><feBlend in="SourceGraphic" in2="BackgroundImageFix" mode="normal" result="shape"/><feGaussianBlur result="effect1_foregroundBlur_3987_23223" stdDeviation=".5"/></filter><filter id="l" color-interpolation-filters="sRGB" filterUnits="userSpaceOnUse" height="1.41174" width=".949113" x="12.3683" y="5.60192"><feFlood flood-opacity="0" result="BackgroundImageFix"/><feBlend in="SourceGraphic" in2="BackgroundImageFix" mode="normal" result="shape"/><feGaussianBlur result="effect1_foregroundBlur_3987_23223" stdDeviation=".025"/></filter><filter id="m" color-interpolation-filters="sRGB" filterUnits="userSpaceOnUse" height=".785236" width="1.75572" x="11.9651" y="7.11687"><feFlood flood-opacity="0" result="BackgroundImageFix"/><feBlend in="SourceGraphic" in2="BackgroundImageFix" mode="normal" result="shape"/><feGaussianBlur result="effect1_foregroundBlur_3987_23223" stdDeviation=".05"/></filter><filter id="n" color-interpolation-filters="sRGB" filterUnits="userSpaceOnUse" height="4.05363" width="5.8225" x="9.93176" y="1.61151"><feFlood flood-opacity="0" result="BackgroundImageFix"/><feBlend in="SourceGraphic" in2="BackgroundImageFix" mode="normal" result="shape"/><feColorMatrix in="SourceAlpha" result="hardAlpha" type="matrix" values="0 0 0 0 0 0 0 0 0 0 0 0 0 0 0 0 0 0 127 0"/><feOffset dy="-.5"/><feGaussianBlur stdDeviation=".625"/><feComposite in2="hardAlpha" k2="-1" k3="1" operator="arithmetic"/><feColorMatrix type="matrix" values="0 0 0 0 0.137255 0 0 0 0 0.0901961 0 0 0 0 0.145098 0 0 0 1 0"/><feBlend in2="shape" mode="normal" result="effect1_innerShadow_3987_23223"/><feColorMatrix in="SourceAlpha" result="hardAlpha" type="matrix" values="0 0 0 0 0 0 0 0 0 0 0 0 0 0 0 0 0 0 127 0"/><feOffset dy="-.2"/><feGaussianBlur stdDeviation=".2"/><feComposite in2="hardAlpha" k2="-1" k3="1" operator="arithmetic"/><feColorMatrix type="matrix" values="0 0 0 0 0.0784314 0 0 0 0 0.0352941 0 0 0 0 0.0470588 0 0 0 1 0"/><feBlend in2="effect1_innerShadow_3987_23223" mode="normal" result="effect2_innerShadow_3987_23223"/></filter><filter id="o" color-interpolation-filters="sRGB" filterUnits="userSpaceOnUse" height=".647983" width="1.11267" x="13.5619" y="4.33754"><feFlood flood-opacity="0" result="BackgroundImageFix"/><feBlend in="SourceGraphic" in2="BackgroundImageFix" mode="normal" result="shape"/><feColorMatrix in="SourceAlpha" result="hardAlpha" type="matrix" values="0 0 0 0 0 0 0 0 0 0 0 0 0 0 0 0 0 0 127 0"/><feOffset dx=".1" dy="-.2"/><feGaussianBlur stdDeviation=".125"/><feComposite in2="hardAlpha" k2="-1" k3="1" operator="arithmetic"/><feColorMatrix type="matrix" values="0 0 0 0 0.0588235 0 0 0 0 0.054902 0 0 0 0 0.0588235 0 0 0 1 0"/><feBlend in2="shape" mode="normal" result="effect1_innerShadow_3987_23223"/></filter><filter id="p" color-interpolation-filters="sRGB" filterUnits="userSpaceOnUse" height=".641315" width="1.11267" x="11.1842" y="4.34425"><feFlood flood-opacity="0" result="BackgroundImageFix"/><feBlend in="SourceGraphic" in2="BackgroundImageFix" mode="normal" result="shape"/><feColorMatrix in="SourceAlpha" result="hardAlpha" type="matrix" values="0 0 0 0 0 0 0 0 0 0 0 0 0 0 0 0 0 0 127 0"/><feOffset dx=".1" dy="-.2"/><feGaussianBlur stdDeviation=".125"/><feComposite in2="hardAlpha" k2="-1" k3="1" operator="arithmetic"/><feColorMatrix type="matrix" values="0 0 0 0 0.0588235 0 0 0 0 0.054902 0 0 0 0 0.0588235 0 0 0 1 0"/><feBlend in2="shape" mode="normal" result="effect1_innerShadow_3987_23223"/></filter><filter id="q" color-interpolation-filters="sRGB" filterUnits="userSpaceOnUse" height="2.81468" width="3.30204" x="10.0557" y="2.36025"><feFlood flood-opacity="0" result="BackgroundImageFix"/><feBlend in="SourceGraphic" in2="BackgroundImageFix" mode="normal" result="shape"/><feColorMatrix in="SourceAlpha" result="hardAlpha" type="matrix" values="0 0 0 0 0 0 0 0 0 0 0 0 0 0 0 0 0 0 127 0"/><feOffset dx=".4" dy=".2"/><feGaussianBlur stdDeviation=".2"/><feComposite in2="hardAlpha" k2="-1" k3="1" operator="arithmetic"/><feColorMatrix type="matrix" values="0 0 0 0 0.286275 0 0 0 0 0.243137 0 0 0 0 0.227451 0 0 0 1 0"/><feBlend in2="shape" mode="normal" result="effect1_innerShadow_3987_23223"/><feGaussianBlur result="effect2_foregroundBlur_3987_23223" stdDeviation=".075"/></filter><filter id="r" color-interpolation-filters="sRGB" filterUnits="userSpaceOnUse" height="2.72957" width="2.97744" x="12.758" y="2.52127"><feFlood flood-opacity="0" result="BackgroundImageFix"/><feBlend in="SourceGraphic" in2="BackgroundImageFix" mode="normal" result="shape"/><feColorMatrix in="SourceAlpha" result="hardAlpha" type="matrix" values="0 0 0 0 0 0 0 0 0 0 0 0 0 0 0 0 0 0 127 0"/><feOffset dx="-.1" dy=".2"/><feComposite in2="hardAlpha" k2="-1" k3="1" operator="arithmetic"/><feColorMatrix type="matrix" values="0 0 0 0 0.329412 0 0 0 0 0.305882 0 0 0 0 0.313726 0 0 0 1 0"/><feBlend in2="shape" mode="normal" result="effect1_innerShadow_3987_23223"/><feGaussianBlur result="effect2_foregroundBlur_3987_23223" stdDeviation=".1"/></filter><filter id="s" color-interpolation-filters="sRGB" filterUnits="userSpaceOnUse" height=".424487" width=".465434" x="13.4431" y="5.44507"><feFlood flood-opacity="0" result="BackgroundImageFix"/><feBlend in="SourceGraphic" in2="BackgroundImageFix" mode="normal" result="shape"/><feGaussianBlur result="effect1_foregroundBlur_3987_23223" stdDeviation=".05"/></filter><filter id="t" color-interpolation-filters="sRGB" filterUnits="userSpaceOnUse" height=".632224" width=".622191" x="13.7684" y="5.42433"><feFlood flood-opacity="0" result="BackgroundImageFix"/><feBlend in="SourceGraphic" in2="BackgroundImageFix" mode="normal" result="shape"/><feGaussianBlur result="effect1_foregroundBlur_3987_23223" stdDeviation=".1"/></filter><filter id="u" color-interpolation-filters="sRGB" filterUnits="userSpaceOnUse" height=".689581" width=".665205" x="11.7586" y="5.39564"><feFlood flood-opacity="0" result="BackgroundImageFix"/><feBlend in="SourceGraphic" in2="BackgroundImageFix" mode="normal" result="shape"/><feGaussianBlur result="effect1_foregroundBlur_3987_23223" stdDeviation=".1"/></filter><filter id="v" color-interpolation-filters="sRGB" filterUnits="userSpaceOnUse" height=".428195" width=".522533" x="11.472" y="5.44146"><feFlood flood-opacity="0" result="BackgroundImageFix"/><feBlend in="SourceGraphic" in2="BackgroundImageFix" mode="normal" result="shape"/><feGaussianBlur result="effect1_foregroundBlur_3987_23223" stdDeviation=".05"/></filter><filter id="w" color-interpolation-filters="sRGB" filterUnits="userSpaceOnUse" height="1.35005" width=".874924" x="9.95569" y="5.32123"><feFlood flood-opacity="0" result="BackgroundImageFix"/><feBlend in="SourceGraphic" in2="BackgroundImageFix" mode="normal" result="shape"/><feGaussianBlur result="effect1_foregroundBlur_3987_23223" stdDeviation=".125"/></filter><filter id="x" color-interpolation-filters="sRGB" filterUnits="userSpaceOnUse" height="1.86092" width="1.42813" x="14.5787" y="5.06268"><feFlood flood-opacity="0" result="BackgroundImageFix"/><feBlend in="SourceGraphic" in2="BackgroundImageFix" mode="normal" result="shape"/><feGaussianBlur result="effect1_foregroundBlur_3987_23223" stdDeviation=".25"/></filter><filter id="y" color-interpolation-filters="sRGB" filterUnits="userSpaceOnUse" height="2.181" width="3.20332" x="12.8299" y="2.39354"><feFlood flood-opacity="0" result="BackgroundImageFix"/><feBlend in="SourceGraphic" in2="BackgroundImageFix" mode="normal" result="shape"/><feGaussianBlur result="effect1_foregroundBlur_3987_23223" stdDeviation=".375"/></filter><filter id="z" color-interpolation-filters="sRGB" filterUnits="userSpaceOnUse" height="5.36719" width="2.62481" x="19.7633" y="9.30145"><feFlood flood-opacity="0" result="BackgroundImageFix"/><feBlend in="SourceGraphic" in2="BackgroundImageFix" mode="normal" result="shape"/><feGaussianBlur result="effect1_foregroundBlur_3987_23223" stdDeviation=".25"/></filter><filter id="A" color-interpolation-filters="sRGB" filterUnits="userSpaceOnUse" height="3.24797" width="3.4036" x="18.3959" y="8.29852"><feFlood flood-opacity="0" result="BackgroundImageFix"/><feBlend in="SourceGraphic" in2="BackgroundImageFix" mode="normal" result="shape"/><feColorMatrix in="SourceAlpha" result="hardAlpha" type="matrix" values="0 0 0 0 0 0 0 0 0 0 0 0 0 0 0 0 0 0 127 0"/><feOffset/><feGaussianBlur stdDeviation=".125"/><feComposite in2="hardAlpha" k2="-1" k3="1" operator="arithmetic"/><feColorMatrix type="matrix" values="0 0 0 0 0.792157 0 0 0 0 0.760784 0 0 0 0 0.756863 0 0 0 1 0"/><feBlend in2="shape" mode="normal" result="effect1_innerShadow_3987_23223"/></filter><radialGradient id="B" cx="0" cy="0" gradientTransform="matrix(0 .555522 -.421153 0 19.7 14.0248)" gradientUnits="userSpaceOnUse" r="1"><stop offset=".464386" stop-color="#382525"/><stop offset="1" stop-color="#33151d"/></radialGradient><linearGradient id="C" gradientUnits="userSpaceOnUse" x1="4.74304" x2="6.86804" y1="18.9865" y2="21.1115"><stop offset="0" stop-color="#f84c2c"/><stop offset=".904412" stop-color="#ff7937"/></linearGradient><radialGradient id="D" cx="0" cy="0" gradientTransform="matrix(-1.65624914 1.65624914 -1.54687387 -1.54687387 6.33679 18.3615)" gradientUnits="userSpaceOnUse" r="1"><stop offset="0" stop-color="#ff8c60"/><stop offset="1" stop-color="#ff8c60" stop-opacity="0"/></radialGradient><radialGradient id="E" cx="0" cy="0" gradientTransform="matrix(-3.28393896 -.29753273 .33333891 -3.67914021 5.74304 19.3465)" gradientUnits="userSpaceOnUse" r="1"><stop offset=".438958" stop-color="#fa4e2e" stop-opacity="0"/><stop offset=".94713" stop-color="#bf5347"/></radialGradient><radialGradient id="F" cx="0" cy="0" gradientTransform="matrix(-.43749854 3.98763196 -3.99499776 -.43830667 5.46179 18.0802)" gradientUnits="userSpaceOnUse" r="1"><stop offset=".681755" stop-color="#f25c44" stop-opacity="0"/><stop offset="1" stop-color="#d85b75"/></radialGradient><radialGradient id="G" cx="0" cy="0" gradientTransform="matrix(-1.34374355 .78906337 -.80709503 -1.37445074 6.2821 18.8381)" gradientUnits="userSpaceOnUse" r="1"><stop offset=".198165" stop-color="#4d3a45"/><stop offset="1" stop-color="#4c3945"/></radialGradient><radialGradient id="H" cx="0" cy="0" gradientTransform="matrix(.93750376 -4.62499881 2.23622073 .45328992 11.5555 25.1115)" gradientUnits="userSpaceOnUse" r="1"><stop offset=".130507" stop-color="#4d3235"/><stop offset="1" stop-color="#3f2522"/></radialGradient><radialGradient id="I" cx="0" cy="0" gradientTransform="matrix(3.81250443 -.34375029 .46441135 5.15074581 9.86804 22.7053)" gradientUnits="userSpaceOnUse" r="1"><stop offset=".617328" stop-color="#3d2231" stop-opacity="0"/><stop offset="1" stop-color="#3d2231"/></radialGradient><linearGradient id="J" gradientUnits="userSpaceOnUse" x1="11.118" x2="8.99304" y1="26.2991" y2="25.5491"><stop offset="0" stop-color="#e2cded"/><stop offset="1" stop-color="#c5b1cb"/></linearGradient><linearGradient id="K" gradientUnits="userSpaceOnUse" x1="8.91492" x2="10.1337" y1="25.2991" y2="25.7628"><stop offset="0" stop-color="#a38f93"/><stop offset="1" stop-color="#c4b0ca" stop-opacity="0"/></linearGradient><radialGradient id="L" cx="0" cy="0" gradientTransform="matrix(1.3413607 3.28833125 -5.45056745 2.22336997 6.74109 26.6001)" gradientUnits="userSpaceOnUse" r="1"><stop offset="0" stop-color="#ff6b38"/><stop offset="1" stop-color="#ff6b3f"/></radialGradient><radialGradient id="M" cx="0" cy="0" gradientTransform="matrix(-.30078054 .14843951 -.19931517 -.40386904 10.8641 26.5568)" gradientUnits="userSpaceOnUse" r="1"><stop offset="0" stop-color="#ff7049"/><stop offset="1" stop-color="#ff7049" stop-opacity="0"/></radialGradient><radialGradient id="N" cx="0" cy="0" gradientTransform="matrix(.46484337 .60156288 -.45472088 .35137471 9.35242 26.049)" gradientUnits="userSpaceOnUse" r="1"><stop offset="0" stop-color="#ff7447"/><stop offset="1" stop-color="#ff7447" stop-opacity="0"/></radialGradient><linearGradient id="O"><stop offset="0" stop-color="#d5c2e7"/><stop offset="1" stop-color="#d4c1e8"/></linearGradient><linearGradient id="P" gradientUnits="userSpaceOnUse" x1="5.18054" x2="9.84485" xlink:href="#O" y1="27.2053" y2="29.7366"/><linearGradient id="Q" gradientUnits="userSpaceOnUse" x1="7.52429" x2="7.4657" y1="28.135" y2="28.2405"><stop offset=".400866" stop-color="#e4d5e5"/><stop offset="1" stop-color="#e4d5e5" stop-opacity="0"/></linearGradient><radialGradient id="R" cx="0" cy="0" gradientTransform="matrix(-2.67271705 1.34423663 -.65815798 -1.30860148 21.4677 20.1525)" gradientUnits="userSpaceOnUse" r="1"><stop offset=".320812" stop-color="#462928"/><stop offset="1" stop-color="#402531"/></radialGradient><linearGradient id="S" gradientUnits="userSpaceOnUse" x1="21.9696" x2="21.5399" y1="21.1271" y2="20.3537"><stop offset="0" stop-color="#432836"/><stop offset="1" stop-color="#432836" stop-opacity="0"/></linearGradient><radialGradient id="T" cx="0" cy="0" gradientTransform="matrix(-1.71875418 .87499341 -.46954009 -.92232007 23.618 18.9865)" gradientUnits="userSpaceOnUse" r="1"><stop offset=".153846" stop-color="#cfbedb"/><stop offset="1" stop-color="#c7b9c5"/></radialGradient><linearGradient id="U" gradientUnits="userSpaceOnUse" x1="23.368" x2="23.0087" y1="20.4084" y2="19.674"><stop offset="0" stop-color="#bb98d6"/><stop offset="1" stop-color="#bb98d6" stop-opacity="0"/></linearGradient><radialGradient id="V" cx="0" cy="0" gradientTransform="matrix(-1.21874403 .66406696 -.4409099 -.80918994 23.1727 18.1115)" gradientUnits="userSpaceOnUse" r="1"><stop offset=".342258" stop-color="#9c7f8c"/><stop offset="1" stop-color="#ccbdcf" stop-opacity="0"/></radialGradient><radialGradient id="W" cx="0" cy="0" gradientTransform="matrix(-1.03124203 2.49999894 -.97493247 -.40215671 24.5087 19.049)" gradientUnits="userSpaceOnUse" r="1"><stop offset=".56623" stop-color="#a471bc"/><stop offset="1" stop-color="#a471bc" stop-opacity="0"/></radialGradient><radialGradient id="X" cx="0" cy="0" gradientTransform="matrix(-2.49999743 2.10937286 -4.01055558 -4.753251 19.6337 19.8303)" gradientUnits="userSpaceOnUse" r="1"><stop offset=".378616" stop-color="#92869f" stop-opacity="0"/><stop offset=".920126" stop-color="#7b5a93"/></radialGradient><radialGradient id="Y" cx="0" cy="0" gradientTransform="matrix(1.92187143 1.03124999 -1.60808369 2.9968777 16.6962 19.1428)" gradientUnits="userSpaceOnUse" r="1"><stop offset=".428967" stop-color="#695279"/><stop offset="1" stop-color="#93869f" stop-opacity="0"/></radialGradient><radialGradient id="Z" cx="0" cy="0" gradientTransform="matrix(-.87817575 .60937113 -1.28653252 -1.85404526 19.9181 18.7521)" gradientUnits="userSpaceOnUse" r="1"><stop offset=".183087" stop-color="#9e99a0"/><stop offset="1" stop-color="#9e99a0" stop-opacity="0"/></radialGradient><radialGradient id="aa" cx="0" cy="0" gradientTransform="matrix(.28125076 -3.87499669 4.85232579 .35218619 16.493 20.924)" gradientUnits="userSpaceOnUse" r="1"><stop offset="0" stop-color="#806d93"/><stop offset="1" stop-color="#806d93" stop-opacity="0"/></radialGradient><radialGradient id="ab" cx="0" cy="0" gradientTransform="matrix(.94384958 -3.62499864 2.02421063 .52704857 14.0243 22.674)" gradientUnits="userSpaceOnUse" r="1"><stop offset="0" stop-color="#9380a4"/><stop offset="1" stop-color="#9380a4" stop-opacity="0"/></radialGradient><radialGradient id="ac" cx="0" cy="0" gradientTransform="matrix(0 1.89062 -2.42602 0 16.9305 16.8459)" gradientUnits="userSpaceOnUse" r="1"><stop offset=".301075" stop-color="#918b96"/><stop offset="1" stop-color="#84798d" stop-opacity="0"/></radialGradient><radialGradient id="ad" cx="0" cy="0" gradientTransform="matrix(-2.65625249 .96873987 -1.16376653 -3.19100909 26.1805 18.4552)" gradientUnits="userSpaceOnUse" r="1"><stop offset=".207061" stop-color="#ff6836"/><stop offset="1" stop-color="#ff5a36"/></radialGradient><linearGradient id="ae" gradientUnits="userSpaceOnUse" x1="26.3134" x2="26.1141" y1="18.838" y2="18.924"><stop offset=".243595" stop-color="#d0431b"/><stop offset="1" stop-color="#d0431b" stop-opacity="0"/><stop offset="1" stop-color="#ff6937" stop-opacity="0"/></linearGradient><linearGradient id="af" gradientUnits="userSpaceOnUse" x1="27.5325" x2="25.4392" xlink:href="#O" y1="21.1488" y2="16.2722"/><linearGradient id="ag" gradientUnits="userSpaceOnUse" x1="26.2686" x2="26.38" y1="18.9671" y2="18.9206"><stop offset=".400866" stop-color="#bfa7d0"/><stop offset="1" stop-color="#bfa7d0" stop-opacity="0"/></linearGradient><radialGradient id="ah" cx="0" cy="0" gradientTransform="matrix(3.40625064 -1.28124828 .66320375 1.76315414 6.71179 13.9241)" gradientUnits="userSpaceOnUse" r="1"><stop offset="0" stop-color="#442c2d"/><stop offset="1" stop-color="#442229"/></radialGradient><radialGradient id="ai" cx="0" cy="0" gradientTransform="matrix(2.34375274 1.71874964 -2.54510274 3.47059943 12.493 8.04901)" gradientUnits="userSpaceOnUse" r="1"><stop offset=".172466" stop-color="#311c1c"/><stop offset="1" stop-color="#311c1c" stop-opacity="0"/></radialGradient><radialGradient id="aj" cx="0" cy="0" gradientTransform="matrix(3.34374932 -.99999945 4.72679448 15.80522457 13.2946 9.93426)" gradientUnits="userSpaceOnUse" r="1"><stop offset=".713461" stop-color="#533938" stop-opacity="0"/><stop offset=".945001" stop-color="#533938"/></radialGradient><linearGradient id="ak"><stop offset=".361142" stop-color="#3b2425"/><stop offset="1" stop-color="#3b2425" stop-opacity="0"/></linearGradient><radialGradient id="al" cx="0" cy="0" gradientTransform="matrix(-1.36052572 .65908123 -.35835122 -.73973591 5.61943 13.8622)" gradientUnits="userSpaceOnUse" r="1" xlink:href="#ak"/><radialGradient id="am" cx="0" cy="0" gradientTransform="matrix(-1.51072274 .87401007 -.52499294 -.90744811 5.46885 14.3891)" gradientUnits="userSpaceOnUse" r="1" xlink:href="#ak"/><radialGradient id="an" cx="0" cy="0" gradientTransform="matrix(-1.49194853 .9311147 -.57955227 -.9286312 5.3368 14.9295)" gradientUnits="userSpaceOnUse" r="1" xlink:href="#ak"/><radialGradient id="ao" cx="0" cy="0" gradientTransform="matrix(-1.31738628 .78906412 -.48201653 -.80475331 5.60242 15.1896)" gradientUnits="userSpaceOnUse" r="1" xlink:href="#ak"/><radialGradient id="ap" cx="0" cy="0" gradientTransform="matrix(-.72587329 .87531286 -.16352316 -.13560533 6.6705 14.7102)" gradientUnits="userSpaceOnUse" r="1"><stop offset="0" stop-color="#655453"/><stop offset="1" stop-color="#482c2f"/></radialGradient><radialGradient id="aq" cx="0" cy="0" gradientTransform="matrix(-3.12493677 8.57033139 -5.82185617 -2.1227805 16.8993 7.4787)" gradientUnits="userSpaceOnUse" r="1"><stop offset=".205468" stop-color="#ff9128"/><stop offset=".809938" stop-color="#ed5722"/></radialGradient><radialGradient id="ar" cx="0" cy="0" gradientTransform="matrix(-1.84369837 -6.87501608 1.85719723 -.49805142 18.0243 16.3928)" gradientUnits="userSpaceOnUse" r="1"><stop offset="0" stop-color="#ff6e44"/><stop offset="1" stop-color="#ff6e44" stop-opacity="0"/></radialGradient><radialGradient id="as" cx="0" cy="0" gradientTransform="matrix(-1.53126165 3.78905355 -4.0048758 -1.61848141 15.5868 7.4787)" gradientUnits="userSpaceOnUse" r="1"><stop offset=".107824" stop-color="#ffa61d"/><stop offset="1" stop-color="#ff8524" stop-opacity="0"/></radialGradient><radialGradient id="at" cx="0" cy="0" gradientTransform="matrix(2.53393837 .29687533 -.19207 1.63938692 5.89661 13.2209)" gradientUnits="userSpaceOnUse" r="1"><stop offset=".302716" stop-color="#4b3532"/><stop offset="1" stop-color="#4b3532" stop-opacity="0"/></radialGradient><radialGradient id="au" cx="0" cy="0" gradientTransform="matrix(.33868236 .91346503 -1.0851259 .40232848 14.9931 6.539)" gradientUnits="userSpaceOnUse" r="1"><stop offset=".214643" stop-color="#3c3b3c"/><stop offset="1" stop-color="#221c27"/></radialGradient><radialGradient id="av" cx="0" cy="0" gradientTransform="matrix(.66782513 .20988805 -.64751793 2.06028286 10.1036 6.76079)" gradientUnits="userSpaceOnUse" r="1"><stop offset="0" stop-color="#463c39"/><stop offset=".745836" stop-color="#1b141e"/></radialGradient><radialGradient id="aw" cx="0" cy="0" gradientTransform="matrix(-2.36463 0 0 -4.18301 14.113 6.11324)" gradientUnits="userSpaceOnUse" r="1"><stop offset="0" stop-color="#563b38"/><stop offset="1" stop-color="#3c2828"/></radialGradient><linearGradient id="ax" gradientUnits="userSpaceOnUse" x1="15.1757" x2="13.2069" y1="6.8756" y2="6.8756"><stop offset="0" stop-color="#563b38"/><stop offset="1" stop-color="#563b38" stop-opacity="0"/></linearGradient><radialGradient id="ay" cx="0" cy="0" gradientTransform="matrix(-.46236822 5.61932986 -4.6534739 -.38289592 13.5584 3.4385)" gradientUnits="userSpaceOnUse" r="1"><stop offset=".767031" stop-color="#432742" stop-opacity="0"/><stop offset=".99662" stop-color="#432742"/></radialGradient><radialGradient id="az" cx="0" cy="0" gradientTransform="matrix(0 -.519415 .642777 0 13.9499 5.51941)" gradientUnits="userSpaceOnUse" r="1"><stop offset=".325" stop-color="#432728"/><stop offset="1" stop-color="#432728" stop-opacity="0"/></radialGradient><radialGradient id="aA" cx="0" cy="0" gradientTransform="matrix(.00177784 -.49495781 .53863053 .00193471 11.8026 5.54044)" gradientUnits="userSpaceOnUse" r="1"><stop offset=".377617" stop-color="#361e27"/><stop offset="1" stop-color="#361e27" stop-opacity="0"/></radialGradient><radialGradient id="aB" cx="0" cy="0" gradientTransform="matrix(-3.84286118 .24258038 -.61967045 -9.81657112 14.3957 6.56015)" gradientUnits="userSpaceOnUse" r="1"><stop offset=".835902" stop-color="#564440" stop-opacity="0"/><stop offset="1" stop-color="#564440"/></radialGradient><radialGradient id="aC" cx="0" cy="0" gradientTransform="matrix(1.84227213 -1.19785803 .43850088 .67440208 10.37 4.15685)" gradientUnits="userSpaceOnUse" r="1"><stop offset=".379603" stop-color="#231112"/><stop offset="1" stop-color="#231112" stop-opacity="0"/></radialGradient><radialGradient id="aD" cx="0" cy="0" gradientTransform="matrix(-.10613849 1.12962462 -.45155913 -.04242808 15.351 4.79368)" gradientUnits="userSpaceOnUse" r="1"><stop offset=".244676" stop-color="#6b5b59"/><stop offset="1" stop-color="#6b5b59" stop-opacity="0"/></radialGradient><radialGradient id="aE" cx="0" cy="0" gradientTransform="matrix(-.78845736 1.30400282 -1.07655708 -.65093368 13.9408 3.86117)" gradientUnits="userSpaceOnUse" r="1"><stop offset=".0780198" stop-color="#534445"/><stop offset="1" stop-color="#534445" stop-opacity="0"/></radialGradient><linearGradient id="aF" gradientUnits="userSpaceOnUse" x1="12.8643" x2="12.8643" y1="8.94114" y2="8.65151"><stop offset="0" stop-color="#49201f"/><stop offset="1" stop-color="#49201f" stop-opacity="0"/></linearGradient><linearGradient id="aG" gradientUnits="userSpaceOnUse" x1="13.222" x2="12.8429" y1="6.41855" y2="6.43432"><stop offset=".360477" stop-color="#66514e"/><stop offset="1" stop-color="#66514e" stop-opacity="0"/></linearGradient><radialGradient id="aH" cx="0" cy="0" gradientTransform="matrix(0 .110411 -.347007 0 13.0538 6.72875)" gradientUnits="userSpaceOnUse" r="1"><stop offset="0" stop-color="#685554"/><stop offset="1" stop-color="#685554" stop-opacity="0"/></radialGradient><linearGradient id="aI" gradientUnits="userSpaceOnUse" x1="12.8429" x2="12.8429" y1="6.9338" y2="6.7235"><stop offset="0" stop-color="#3e2230"/><stop offset="1" stop-color="#3e2230" stop-opacity="0"/></linearGradient><radialGradient id="aJ" cx="0" cy="0" gradientTransform="matrix(-.6880366 .31545816 -.50696645 -1.10572976 13.1064 6.47113)" gradientUnits="userSpaceOnUse" r="1"><stop offset=".714105" stop-color="#3e2b29" stop-opacity="0"/><stop offset="1" stop-color="#3f2c2a"/></radialGradient><linearGradient id="aK" gradientUnits="userSpaceOnUse" x1="12.8429" x2="12.8429" y1="5.59739" y2="5.95751"><stop offset="0" stop-color="#4b302a"/><stop offset="1" stop-color="#4b302a" stop-opacity="0"/></linearGradient><linearGradient id="aL" gradientUnits="userSpaceOnUse" x1="12.2994" x2="12.4434" y1="7.64436" y2="7.26691"><stop offset="0" stop-color="#584a4a"/><stop offset="1" stop-color="#40222d" stop-opacity="0"/></linearGradient><radialGradient id="aM" cx="0" cy="0" gradientTransform="matrix(0 -.326 1.31158 0 12.8429 7.71421)" gradientUnits="userSpaceOnUse" r="1"><stop offset="0" stop-color="#290018"/><stop offset="1" stop-color="#290017"/></radialGradient><linearGradient id="aN" gradientUnits="userSpaceOnUse" x1="15.9423" x2="10.6899" y1="3.55197" y2="3.55197"><stop offset="0" stop-color="#443d40"/><stop offset="1" stop-color="#272127"/></linearGradient><radialGradient id="aO" cx="0" cy="0" gradientTransform="matrix(0 -1.5837 4.00499 0 10.4776 4.80506)" gradientUnits="userSpaceOnUse" r="1"><stop offset=".535851" stop-color="#3e3433"/><stop offset="1" stop-color="#3e3433" stop-opacity="0"/></radialGradient><radialGradient id="aP" cx="0" cy="0" gradientTransform="matrix(.05158249 -1.13645997 2.01358693 .09139419 15.0416 5.39771)" gradientUnits="userSpaceOnUse" r="1"><stop offset="0" stop-color="#4f4d4d"/><stop offset="1" stop-color="#4f4d4d" stop-opacity="0"/></radialGradient><radialGradient id="aQ" cx="0" cy="0" gradientTransform="matrix(-1.06693037 -.70172225 .51510131 -.78318342 14.7005 2.55881)" gradientUnits="userSpaceOnUse" r="1"><stop offset="0" stop-color="#5e5a5b"/><stop offset="1" stop-color="#5e5a5b" stop-opacity="0"/></radialGradient><radialGradient id="aR" cx="0" cy="0" gradientTransform="matrix(.4093947 .66716152 -1.54483481 .94796712 12.4336 1.83858)" gradientUnits="userSpaceOnUse" r="1"><stop offset=".286771" stop-color="#484646"/><stop offset="1" stop-color="#484646" stop-opacity="0"/></radialGradient><radialGradient id="aS" cx="0" cy="0" gradientTransform="matrix(-.995601 0 0 -.369507 12.9577 2.86041)" gradientUnits="userSpaceOnUse" r="1"><stop offset="0" stop-color="#423c3f"/><stop offset="1" stop-color="#423c3f" stop-opacity="0"/></radialGradient><radialGradient id="aT" cx="0" cy="0" gradientTransform="matrix(1.45562573 -2.30474469 2.55342001 1.61268356 10.3867 4.64365)" gradientUnits="userSpaceOnUse" r="1"><stop offset=".0926981" stop-color="#0b0306"/><stop offset=".311222" stop-color="#1c0c20"/><stop offset="1" stop-color="#1c0c20" stop-opacity="0"/></radialGradient><radialGradient id="aU" cx="0" cy="0" gradientTransform="matrix(1.46921806 .17172679 -.07189859 .61513239 13.6336 3.91783)" gradientUnits="userSpaceOnUse" r="1"><stop offset="0" stop-color="#200e25"/><stop offset="1" stop-color="#200e25" stop-opacity="0"/></radialGradient><linearGradient id="aV"><stop offset=".80198" stop-color="#7d574a"/><stop offset="1" stop-color="#694b43"/><stop offset="1" stop-color="#804d49"/><stop offset="1" stop-color="#664842"/></linearGradient><radialGradient id="aW" cx="0" cy="0" gradientTransform="matrix(0 .366972 -.58371 0 13.83 5.69886)" gradientUnits="userSpaceOnUse" r="1" xlink:href="#aV"/><linearGradient id="aX"><stop offset=".765532" stop-color="#ffe6e2" stop-opacity="0"/><stop offset=".966159" stop-color="#ffe6e2"/></linearGradient><radialGradient id="aY" cx="0" cy="0" gradientTransform="matrix(-.10489978 -.13517751 .18610657 -.1444215 13.7267 5.73684)" gradientUnits="userSpaceOnUse" r="1" xlink:href="#aX"/><linearGradient id="aZ"><stop offset="0" stop-color="#b4948d"/><stop offset="1" stop-color="#b4948d" stop-opacity="0"/></linearGradient><linearGradient id="a0" gradientUnits="userSpaceOnUse" x1="14.182" x2="14.0401" xlink:href="#aZ" y1="5.72324" y2="5.81068"/><radialGradient id="a1" cx="0" cy="0" gradientTransform="matrix(0 .36699 -.583739 0 11.8561 5.69887)" gradientUnits="userSpaceOnUse" r="1" xlink:href="#aV"/><linearGradient id="a2" gradientUnits="userSpaceOnUse" x1="12.1924" x2="12.0505" xlink:href="#aZ" y1="5.72323" y2="5.81068"/><radialGradient id="a3" cx="0" cy="0" gradientTransform="matrix(-.00349903 -.22348161 .26863408 -.00420597 11.7264 5.798)" gradientUnits="userSpaceOnUse" r="1" xlink:href="#aX"/><linearGradient id="a4" gradientUnits="userSpaceOnUse" x1="15.7542" x2="15.2084" y1="5.73543" y2="6.71977"><stop offset="0" stop-color="#62504f"/><stop offset="1" stop-color="#492f32"/></linearGradient><radialGradient id="a5" cx="0" cy="0" gradientTransform="matrix(.28430142 1.01466284 -.96806735 .27124569 14.9316 5.70511)" gradientUnits="userSpaceOnUse" r="1"><stop offset=".856273" stop-color="#301924" stop-opacity="0"/><stop offset="1" stop-color="#301924"/></radialGradient><radialGradient id="a6" cx="0" cy="0" gradientTransform="matrix(.35632547 -.48899906 .40987854 .29867166 15.0946 5.9515)" gradientUnits="userSpaceOnUse" r="1"><stop offset=".663731" stop-color="#351b1e"/><stop offset="1" stop-color="#351b1e" stop-opacity="0"/></radialGradient><radialGradient id="a7" cx="0" cy="0" gradientTransform="matrix(.26550728 -.70127841 .93700245 .35475351 15.1462 6.02949)" gradientUnits="userSpaceOnUse" r="1"><stop offset=".803247" stop-color="#361c1e" stop-opacity="0"/><stop offset=".965916" stop-color="#361c1e"/></radialGradient><linearGradient id="a8" gradientUnits="userSpaceOnUse" x1="10.1971" x2="10.8567" y1="6.05382" y2="5.99621"><stop offset="0" stop-color="#372425"/><stop offset="1" stop-color="#281919"/></linearGradient><radialGradient id="a9" cx="0" cy="0" gradientTransform="matrix(-.18674787 .93901623 -.92313819 -.1835901 10.4625 5.78089)" gradientUnits="userSpaceOnUse" r="1"><stop offset=".77507" stop-color="#301929" stop-opacity="0"/><stop offset="1" stop-color="#301929"/></radialGradient><radialGradient id="ba" cx="0" cy="0" gradientTransform="matrix(-.4145373 .07115605 -.03138378 -.18283401 10.6202 5.99626)" gradientUnits="userSpaceOnUse" r="1"><stop offset="0" stop-color="#2c1d22"/><stop offset="1" stop-color="#271416"/></radialGradient><linearGradient id="bb" gradientUnits="userSpaceOnUse" x1="15.2928" x2="15.2928" y1="5.56268" y2="6.4236"><stop offset="0" stop-color="#4c3838"/><stop offset="1" stop-color="#3e2724"/></linearGradient><radialGradient id="bc" cx="0" cy="0" gradientTransform="matrix(-3.75 0 0 -3.07783 14.3334 3.73297)" gradientUnits="userSpaceOnUse" r="1"><stop offset=".216981" stop-color="#e7dff1"/><stop offset="1" stop-color="#b7a8c2"/></radialGradient><linearGradient id="bd" gradientUnits="userSpaceOnUse" x1="9.71619" x2="13.4271" y1="3.92047" y2="3.92047"><stop offset="0" stop-color="#98919c"/><stop offset="1" stop-color="#d3c9dc" stop-opacity="0"/></linearGradient><linearGradient id="be" gradientUnits="userSpaceOnUse" x1="13.4896" x2="13.4896" y1="4.26422" y2="4.14703"><stop offset="0" stop-color="#b391c2"/><stop offset="1" stop-color="#b391c2" stop-opacity="0"/></linearGradient><radialGradient id="bf" cx="0" cy="0" gradientTransform="matrix(-3.16797 0 0 -.117188 15.1615 3.20172)" gradientUnits="userSpaceOnUse" r="1"><stop offset=".083237" stop-color="#f0eaf5"/><stop offset="1" stop-color="#f0eaf5" stop-opacity="0"/></radialGradient><radialGradient id="bg" cx="0" cy="0" gradientTransform="matrix(1.46874903 -1.81249884 3.35248848 2.71667165 18.8524 11.2678)" gradientUnits="userSpaceOnUse" r="1"><stop offset=".239099" stop-color="#9f6ea3"/><stop offset="1" stop-color="#c1add1" stop-opacity="0"/></radialGradient><rect fill="url(#B)" height="1.11104" rx=".329517" transform="matrix(.89131455 .45338546 -.45338546 .89131455 8.212076 -7.318386)" width=".659034" x="19.3705" y="13.4693"/><g filter="url(#a)"><path d="m15.2161 10.0263c.3734-.0111.8633.0103 1.474.0582.8269.0647 1.6914.1953 2.1379.5309.5824.3709.9089.8279 1.0261 1.3714.1325.6141.0229 1.1389-.2303 1.8008-.0492.1287-.1007.2577-.1507.3829-.1244.3118-.2394.6-.2868.8007-.0608.2575.0977.4331.4038.437.0544.0006.1059.0256.1402.0678.0474.0584.1162.124.2059.1475.0817.0214.1403.0162.219.0092.03-.0027.0629-.0056.101-.0074.0469-.0022.0901.0209.1172.0592.0407.0575.0949.1206.1996.146.0887.0216.1774.0049.2435-.0166.0576-.0188.1219-.0116.1729.0211.0583.0374.1338.0756.2046.0854.1407.0195.3047-.0391.3672-.2344.0347-.1084.0791-.2975.121-.4763.0976-.4162.2501-.8211.2501-1.2542.2539-.8437.2868-1.6926.121-2.4609-.2481-1.1499-.9149-2.12898-1.9882-2.81249-1.1771-.7496-3.7583-.94264-5.0217-.90284-.0805.00253-.1399.0044-.1736.0044v2.25003c.0983 0 .2142-.0035.3463-.0074z" fill="#4b3230"/></g><circle cx="5.18045" cy="19.3465" fill="url(#C)" r="2.72134"/><circle cx="5.18045" cy="19.3465" fill="url(#D)" r="2.72134"/><circle cx="5.18045" cy="19.3465" fill="url(#E)" r="2.72134"/><circle cx="5.18045" cy="19.3465" fill="url(#F)" r="2.72134"/><g filter="url(#b)"><path d="m5.52735 16.6471c.013.6124.23759 1.167.59808 1.5876l.89689-.8915c.06136.0564.12012.1157.17608.1775l-.90058.8952c.40931.3873.94909.622 1.53814.622.0162 0 .03235-.0002.04847-.0006.0093.0822.01493.1655.01674.2497-.02167.0006-.04341.0009-.06521.0009-.66178 0-1.26264-.2638-1.7156-.6956l-.77707.7724 1.75389 1.9136c-.05916.0587-.121.1147-.18532.1678l-1.74602-1.905-.7692.7646c.42137.4613.6879 1.0799.71385 1.7613-.08468-.0021-.1684-.0081-.25099-.0178-.02942-.6088-.26821-1.1568-.64031-1.5671l-.87663.8714c-.06147-.0563-.12034-.1154-.17642-.1771l.87565-.8705c-.40284-.3599-.92293-.5762-1.48843-.5762-.02256 0-.04504.0003-.06746.001-.01158-.082-.01951-.1652-.02362-.2493.03023-.0012.06059-.0017.09108-.0017.63797 0 1.21932.2451 1.66613.6496l.77729-.7727-1.7574-1.9174c.05842-.0595.11955-.1162.18319-.1701l1.75166 1.9112.77352-.7689c-.41006-.4725-.66221-1.0988-.67077-1.7845.08449.0029.168.0097.25037.0202z" fill="url(#G)"/></g><path d="m11.0009 20.6037.6718-.75 2.336 1.8594c-.0703.0468-.3282.2078-.7969.4765-.6438.4125-1.0287 1.0886-1.1406 1.375l-1.4922 3.7032-1.97658-.9688c.32552-.8594 1.05937-2.8375 1.39062-3.875.33126-1.0375.80986-1.6458 1.00786-1.8203z" fill="url(#H)"/><path d="m11.0009 20.6037.6718-.75 2.336 1.8594c-.0703.0468-.3282.2078-.7969.4765-.6438.4125-1.0287 1.0886-1.1406 1.375l-1.4922 3.7032-1.97658-.9688c.32552-.8594 1.05937-2.8375 1.39062-3.875.33126-1.0375.80986-1.6458 1.00786-1.8203z" fill="url(#I)"/><path d="m11.4323 25.1502-.8533 2.1176-1.97658-.9687c.17529-.4631.46924-1.2509.75488-2.0413z" fill="url(#J)"/><path d="m11.4323 25.1502-.8533 2.1176-1.97658-.9687c.17529-.4631.46924-1.2509.75488-2.0413z" fill="url(#K)"/><g filter="url(#c)"><path d="m9.12038 25.7893.48202.6113c.14453.1875.3326.1173.3984.0586.1211-.1081.4329-.2711.711-.0586s.194.5781.1172.7343l-1.03177 2.5057c-.09121.2215-.35534.3137-.56459.1971l-4.339-2.4181c-.15137-.0843-.2-.279-.10606-.4247l.32601-.5054c.13649-.2116.40876-.2857.64312-.1936 1.41398.5557 2.1942.1865 2.54491-.0711.14295-.105.25769-.2479.34552-.3868.10428-.165.3524-.2019.47324-.0487z" fill="url(#L)"/><path d="m9.12038 25.7893.48202.6113c.14453.1875.3326.1173.3984.0586.1211-.1081.4329-.2711.711-.0586s.194.5781.1172.7343l-1.03177 2.5057c-.09121.2215-.35534.3137-.56459.1971l-4.339-2.4181c-.15137-.0843-.2-.279-.10606-.4247l.32601-.5054c.13649-.2116.40876-.2857.64312-.1936 1.41398.5557 2.1942.1865 2.54491-.0711.14295-.105.25769-.2479.34552-.3868.10428-.165.3524-.2019.47324-.0487z" fill="url(#M)"/><path d="m9.12038 25.7893.48202.6113c.14453.1875.3326.1173.3984.0586.1211-.1081.4329-.2711.711-.0586s.194.5781.1172.7343l-1.03177 2.5057c-.09121.2215-.35534.3137-.56459.1971l-4.339-2.4181c-.15137-.0843-.2-.279-.10606-.4247l.32601-.5054c.13649-.2116.40876-.2857.64312-.1936 1.41398.5557 2.1942.1865 2.54491-.0711.14295-.105.25769-.2479.34552-.3868.10428-.165.3524-.2019.47324-.0487z" fill="url(#N)"/></g><g filter="url(#d)"><path d="m9.79367 29.4181c.04411.0248.06281.0786.04356.1253l-.04001.0972c-.09131.2215-.35547.3138-.5647.1971l-4.33886-2.418c-.15137-.0844-.19995-.2791-.1062-.4247l.10568-.1637c.04296-.0666.13029-.0882.19939-.0495z" fill="url(#P)"/><path d="m9.79367 29.4181c.04411.0248.06281.0786.04356.1253l-.04001.0972c-.09131.2215-.35547.3138-.5647.1971l-4.33886-2.418c-.15137-.0844-.19995-.2791-.1062-.4247l.10568-.1637c.04296-.0666.13029-.0882.19939-.0495z" fill="url(#Q)"/></g><path d="m19.2665 22.4553c-.2125.0906-.3516.069-.3711.0468l.7539-2.9297c.2312.0813.474.0131.5547-.039l3.1094-1.75.7265 2.1445c-1.5182.8047-4.5609 2.4367-4.7734 2.5274z" fill="url(#R)"/><path d="m19.2665 22.4553c-.2125.0906-.3516.069-.3711.0468l.7539-2.9297c.2312.0813.474.0131.5547-.039l3.1094-1.75.7265 2.1445c-1.5182.8047-4.5609 2.4367-4.7734 2.5274z" fill="url(#S)"/><path d="m22.2816 20.8637c.01-.0054.0203-.0108.0303-.0162.6362-.339 1.2558-.6693 1.728-.9196l-.7265-2.1445-2.0872 1.1747z" fill="url(#T)"/><path d="m22.2816 20.8637c.01-.0054.0203-.0108.0303-.0162.6362-.339 1.2558-.6693 1.728-.9196l-.7265-2.1445-2.0872 1.1747z" fill="url(#U)"/><path d="m22.2816 20.8637c.01-.0054.0203-.0108.0303-.0162.6362-.339 1.2558-.6693 1.728-.9196l-.7265-2.1445-2.0872 1.1747z" fill="url(#V)"/><path d="m22.2816 20.8637c.01-.0054.0203-.0108.0303-.0162.6362-.339 1.2558-.6693 1.728-.9196l-.7265-2.1445-2.0872 1.1747z" fill="url(#W)"/><path d="m18.2922 22.6587c-1.2-.7124-1.9188-1.8978-2.1429-2.4534l2.1562-3.0157c.3776.41 1.0501 1.3965 1.4599 2.0223.1135.1733.1707.3783.1475.5842-.1194 1.0603-.5672 2.0596-.9226 2.6754-.1427.2472-.4527.3329-.6981.1872z" fill="#92869e"/><path d="m18.2922 22.6587c-1.2-.7124-1.9188-1.8978-2.1429-2.4534l2.1562-3.0157c.3776.41 1.0501 1.3965 1.4599 2.0223.1135.1733.1707.3783.1475.5842-.1194 1.0603-.5672 2.0596-.9226 2.6754-.1427.2472-.4527.3329-.6981.1872z" fill="url(#X)"/><path d="m18.2922 22.6587c-1.2-.7124-1.9188-1.8978-2.1429-2.4534l2.1562-3.0157c.3776.41 1.0501 1.3965 1.4599 2.0223.1135.1733.1707.3783.1475.5842-.1194 1.0603-.5672 2.0596-.9226 2.6754-.1427.2472-.4527.3329-.6981.1872z" fill="url(#Y)"/><path d="m18.2922 22.6587c-1.2-.7124-1.9188-1.8978-2.1429-2.4534l2.1562-3.0157c.3776.41 1.0501 1.3965 1.4599 2.0223.1135.1733.1707.3783.1475.5842-.1194 1.0603-.5672 2.0596-.9226 2.6754-.1427.2472-.4527.3329-.6981.1872z" fill="url(#Z)"/><g filter="url(#e)"><path d="m12.9619 17.4553c.0937-.275.2161-.5209.2656-.6094h5.1484c.539 1.5195-.6524 2.9258-1.1993 3.2383-.9791.6015-2.8922 1.7797-3.0859 1.8984-.2422.1484-.5117.2383-.7305.0664-.7578-.5312-1.5546-1.5078-1.8437-2.0078-.2312-.4.0235-.7396.1797-.8594.8281-.6992 1.1485-1.3828 1.2657-1.7265z" fill="#83788b"/><path d="m12.9619 17.4553c.0937-.275.2161-.5209.2656-.6094h5.1484c.539 1.5195-.6524 2.9258-1.1993 3.2383-.9791.6015-2.8922 1.7797-3.0859 1.8984-.2422.1484-.5117.2383-.7305.0664-.7578-.5312-1.5546-1.5078-1.8437-2.0078-.2312-.4.0235-.7396.1797-.8594.8281-.6992 1.1485-1.3828 1.2657-1.7265z" fill="url(#aa)"/><path d="m12.9619 17.4553c.0937-.275.2161-.5209.2656-.6094h5.1484c.539 1.5195-.6524 2.9258-1.1993 3.2383-.9791.6015-2.8922 1.7797-3.0859 1.8984-.2422.1484-.5117.2383-.7305.0664-.7578-.5312-1.5546-1.5078-1.8437-2.0078-.2312-.4.0235-.7396.1797-.8594.8281-.6992 1.1485-1.3828 1.2657-1.7265z" fill="url(#ab)"/><path d="m12.9619 17.4553c.0937-.275.2161-.5209.2656-.6094h5.1484c.539 1.5195-.6524 2.9258-1.1993 3.2383-.9791.6015-2.8922 1.7797-3.0859 1.8984-.2422.1484-.5117.2383-.7305.0664-.7578-.5312-1.5546-1.5078-1.8437-2.0078-.2312-.4.0235-.7396.1797-.8594.8281-.6992 1.1485-1.3828 1.2657-1.7265z" fill="url(#ac)"/></g><g filter="url(#f)"><path d="m23.5626 19.8195.0003-.7784c.0027-.2367-.1884-.2982-.2765-.2928-.162.0098-.5077-.0554-.5944-.3945-.0866-.3391.2059-.574.363-.649l2.3622-1.3278c.2088-.1174.4732-.0261.5653.1951l1.908 4.5862c.0666.16-.0158.3429-.1798.399l-.569.1948c-.2383.0816-.4979-.0289-.6248-.2464-.7657-1.3122-1.6069-1.5058-2.0418-1.5208-.1773-.0061-.3559.035-.5109.0896-.184.0649-.4017-.0598-.4016-.255z" fill="url(#ad)"/><path d="m23.5626 19.8195.0003-.7784c.0027-.2367-.1884-.2982-.2765-.2928-.162.0098-.5077-.0554-.5944-.3945-.0866-.3391.2059-.574.363-.649l2.3622-1.3278c.2088-.1174.4732-.0261.5653.1951l1.908 4.5862c.0666.16-.0158.3429-.1798.399l-.569.1948c-.2383.0816-.4979-.0289-.6248-.2464-.7657-1.3122-1.6069-1.5058-2.0418-1.5208-.1773-.0061-.3559.035-.5109.0896-.184.0649-.4017-.0598-.4016-.255z" fill="url(#ae)"/></g><g filter="url(#g)"><path d="m25.2821 16.5539c-.0193-.0467-.0007-.1005.0434-.1253l.0916-.0516c.2089-.1173.4734-.026.5654.1952l1.908 4.5861c.0666.16-.0159.3429-.1797.3991l-.1844.0631c-.075.0256-.1569-.0115-.1872-.0847z" fill="url(#af)"/><path d="m25.2821 16.5539c-.0193-.0467-.0007-.1005.0434-.1253l.0916-.0516c.2089-.1173.4734-.026.5654.1952l1.908 4.5861c.0666.16-.0159.3429-.1797.3991l-.1844.0631c-.075.0256-.1569-.0115-.1872-.0847z" fill="url(#ag)"/></g><g filter="url(#h)"><path clip-rule="evenodd" d="m11.974 8.99593c.0178-.03041.0355-.06089.0533-.09145l1.7276 1.00774c-.0244.0418-.0489.08393-.0736.12638-.7127 1.2248-1.5702 2.6983-3.6766 3.8914-.76819.4351-1.65358.6565-2.3811.7731-.25678.0411-.50269.0705-.72858.0912-.54993.0504-.99373-.403-.98796-.9552l.01071-1.0244c.25042.0026.78346.0106 1.38956-.0865.61641-.0987 1.23765-.2699 1.71164-.5384 1.63283-.9249 2.25993-2.0009 2.95503-3.19387z" fill="url(#ah)" fill-rule="evenodd"/></g><path d="m11.657 11.7053c-.2375-1.5.143-2.74483.3826-3.12504.2938-.60625.9869-.80469 1.2967-.82812h2.4375c.3866.57717.6344 1.59512.7438 2.23951.0347.20385.0788.40405.1457.59965.3644 1.064 1.6262 4.7412 2.1389 6.1336.0608.1651-.062.3397-.238.3397h-5.2507c-.2493 0-.4735-.1535-.5498-.3909-.4226-1.315-.8924-3.6153-1.1067-4.9684z" fill="#6a5856"/><path d="m11.657 11.7053c-.2375-1.5.143-2.74483.3826-3.12504.2938-.60625.9869-.80469 1.2967-.82812h2.4375c.3866.57717.6344 1.59512.7438 2.23951.0347.20385.0788.40405.1457.59965.3644 1.064 1.6262 4.7412 2.1389 6.1336.0608.1651-.062.3397-.238.3397h-5.2507c-.2493 0-.4735-.1535-.5498-.3909-.4226-1.315-.8924-3.6153-1.1067-4.9684z" fill="url(#ai)"/><path d="m11.657 11.7053c-.2375-1.5.143-2.74483.3826-3.12504.2938-.60625.9869-.80469 1.2967-.82812h2.4375c.3866.57717.6344 1.59512.7438 2.23951.0347.20385.0788.40405.1457.59965.3644 1.064 1.6262 4.7412 2.1389 6.1336.0608.1651-.062.3397-.238.3397h-5.2507c-.2493 0-.4735-.1535-.5498-.3909-.4226-1.315-.8924-3.6153-1.1067-4.9684z" fill="url(#aj)"/><g clip-rule="evenodd" fill-rule="evenodd"><path d="m6.32174 13.6846c-.77437-.132-1.17011.0894-1.29942.2891-.12457.1924-.38151.2474-.5739.1228-.1924-.1245-.24738-.3815-.12282-.5739.39169-.6049 1.2147-.8132 2.13564-.6562.22594.0385.37787.2529.33935.4789-.03853.2259-.25292.3778-.47885.3393z" fill="#483230"/><path d="m6.32174 13.6846c-.77437-.132-1.17011.0894-1.29942.2891-.12457.1924-.38151.2474-.5739.1228-.1924-.1245-.24738-.3815-.12282-.5739.39169-.6049 1.2147-.8132 2.13564-.6562.22594.0385.37787.2529.33935.4789-.03853.2259-.25292.3778-.47885.3393z" fill="url(#al)"/><path d="m5.23012 14.105c-.30623.1781-.45025.3704-.47287.4256-.08691.2121-.32929.3135-.54137.2266s-.31356-.3293-.22665-.5413c.1193-.2912.43561-.6028.82376-.8284.40663-.2364.94978-.4138 1.58005-.3819.22891.0116.40506.2066.39345.4355-.01162.2289-.20659.4051-.4355.3935-.44785-.0228-.83313.1032-1.12087.2704z" fill="#483230"/><path d="m5.23012 14.105c-.30623.1781-.45025.3704-.47287.4256-.08691.2121-.32929.3135-.54137.2266s-.31356-.3293-.22665-.5413c.1193-.2912.43561-.6028.82376-.8284.40663-.2364.94978-.4138 1.58005-.3819.22891.0116.40506.2066.39345.4355-.01162.2289-.20659.4051-.4355.3935-.44785-.0228-.83313.1032-1.12087.2704z" fill="url(#am)"/><path d="m5.12475 14.5968c-.29289.2001-.44919.4231-.48078.5002-.08691.2121-.32929.3136-.54137.2267s-.31356-.3293-.22665-.5414c.11033-.2692.39679-.6087.78069-.8709.39707-.2712.94047-.4894 1.58796-.4565.22891.0116.40506.2066.39345.4355s-.20659.405-.43549.3934c-.43064-.0218-.79808.122-1.07781.313z" fill="#483230"/><path d="m5.12475 14.5968c-.29289.2001-.44919.4231-.48078.5002-.08691.2121-.32929.3136-.54137.2267s-.31356-.3293-.22665-.5414c.11033-.2692.39679-.6087.78069-.8709.39707-.2712.94047-.4894 1.58796-.4565.22891.0116.40506.2066.39345.4355s-.20659.405-.43549.3934c-.43064-.0218-.79808.122-1.07781.313z" fill="url(#an)"/><path d="m6.29321 14.7781c-.7896-.0836-1.13634.3367-1.20906.5141-.0869.2121-.32928.3136-.54136.2267-.21209-.0869-.31356-.3293-.22666-.5414.21114-.5152.90399-1.1476 2.06438-1.0248.22793.0241.39316.2284.36905.4563s-.22842.3932-.45635.3691z" fill="#483230"/><path d="m6.29321 14.7781c-.7896-.0836-1.13634.3367-1.20906.5141-.0869.2121-.32928.3136-.54136.2267-.21209-.0869-.31356-.3293-.22666-.5414.21114-.5152.90399-1.1476 2.06438-1.0248.22793.0241.39316.2284.36905.4563s-.22842.3932-.45635.3691z" fill="url(#ao)"/><path d="m7.13158 13.933c.19136.1262.24421.3836.11806.5749-.36315.5509-.73775.9467-.90455 1.1229-.00261.0028-.00516.0055-.00766.0081-.15753.1665-.42019.1738-.58668.0163-.16649-.1576-.17375-.4202-.01623-.5867l.00523-.0055c.1597-.1688.494-.5221.81693-1.0119.12615-.1914.38354-.2442.5749-.1181z" fill="url(#ap)"/></g><g filter="url(#i)"><path d="m11.8837 8.91053c.1472.24355.5009.62286 1.0195.62286.8867 0 1.2539-.42969 1.543-1.10157.1237-.28802.365-.78906.4375-.95312.6953.10547.8901.27344.8901.27344.0027.00392.0051.00786.0078.01182-.1482.27701-.4004.78089-.4526.98427-.0703.27344-.2383 1.05078.25 1.68747.373.4866.8122.5978 1.2326.5885.4812 1.4029 1.5335 4.4595 1.9905 5.7007.0608.1651-.062.3397-.2378.3397h-5.2507c-.2495 0-.4736-.1535-.5498-.3909-.4226-1.315-.8926-3.6153-1.1067-4.9684-.1897-1.1977.0144-2.23269.2266-2.79477z" fill="url(#aq)"/><path d="m11.8837 8.91053c.1472.24355.5009.62286 1.0195.62286.8867 0 1.2539-.42969 1.543-1.10157.1237-.28802.365-.78906.4375-.95312.6953.10547.8901.27344.8901.27344.0027.00392.0051.00786.0078.01182-.1482.27701-.4004.78089-.4526.98427-.0703.27344-.2383 1.05078.25 1.68747.373.4866.8122.5978 1.2326.5885.4812 1.4029 1.5335 4.4595 1.9905 5.7007.0608.1651-.062.3397-.2378.3397h-5.2507c-.2495 0-.4736-.1535-.5498-.3909-.4226-1.315-.8926-3.6153-1.1067-4.9684-.1897-1.1977.0144-2.23269.2266-2.79477z" fill="url(#ar)"/></g><path d="m11.8837 8.91053c.1472.24355.5009.62286 1.0195.62286.8867 0 1.2539-.42969 1.543-1.10157.1237-.28802.365-.78906.4375-.95312.6953.10547.8901.27344.8901.27344.0027.00392.0051.00786.0078.01182-.1482.27701-.4004.78089-.4526.98427-.0703.27344-.2383 1.05078.25 1.68747.373.4866.8122.5978 1.2326.5885.4812 1.4029 1.5335 4.4595 1.9905 5.7007.0608.1651-.062.3397-.2378.3397h-5.2507c-.2495 0-.4736-.1535-.5498-.3909-.4226-1.315-.8926-3.6153-1.1067-4.9684-.1897-1.1977.0144-2.23269.2266-2.79477z" fill="url(#as)"/><path clip-rule="evenodd" d="m11.974 8.99593c.0178-.03041.0355-.06089.0533-.09145l1.7276 1.00774c-.0244.0418-.0489.08393-.0736.12638-.7127 1.2248-1.5702 2.6983-3.6766 3.8914-.76819.4351-1.65358.6565-2.3811.7731-.25678.0411-.50269.0705-.72858.0912-.54993.0504-.99373-.403-.98796-.9552l.01071-1.0244c.25042.0026.78346.0106 1.38956-.0865.61641-.0987 1.23765-.2699 1.71164-.5384 1.63283-.9249 2.25993-2.0009 2.95503-3.19387z" fill="url(#at)" fill-rule="evenodd"/><path d="m15.0419 6.67855c.1516-.00489.2936-.05631.4091-.13955v.42111c0 .40397-.2406.76387-.6065.91322.0771-.16404.13-.34277.1565-.53373z" fill="url(#au)"/><path d="m10.6441 6.67855c-.1516-.00489-.2936-.05631-.4091-.13955v.42111c0 .40397.2407.76387.6065.91322-.077-.16404-.13-.34277-.1564-.53373z" fill="url(#av)"/><g filter="url(#j)"><path d="m10.6606 7.36387c.1164.88308.8679 1.54054 1.7576 1.54054h.8533c.8897 0 1.6412-.65746 1.7576-1.54054.0533-.85202.107-1.70062.1466-2.5522-.0048-.34692-.2783-.63319-.6237-.64775h-.6334c-.4318 0-.8228-.25474-1.0003-.65261-.0456-.11402-.156-.18923-.2783-.18923h-.5758c-.8348 0-1.5113.68414-1.5113 1.52841 0 .84163.0525 1.66963.1077 2.51338z" fill="url(#aw)"/></g><path d="m10.6606 7.36387c.1164.88308.8679 1.54054 1.7576 1.54054h.8533c.8897 0 1.6412-.65746 1.7576-1.54054.0533-.85202.107-1.70062.1466-2.5522-.0048-.34692-.2783-.63319-.6237-.64775h-.6334c-.4318 0-.8228-.25474-1.0003-.65261-.0456-.11402-.156-.18923-.2783-.18923h-.5758c-.8348 0-1.5113.68414-1.5113 1.52841 0 .84163.0525 1.66963.1077 2.51338z" fill="url(#ax)"/><path d="m10.6606 7.36387c.1164.88308.8679 1.54054 1.7576 1.54054h.8533c.8897 0 1.6412-.65746 1.7576-1.54054.0533-.85202.107-1.70062.1466-2.5522-.0048-.34692-.2783-.63319-.6237-.64775h-.6334c-.4318 0-.8228-.25474-1.0003-.65261-.0456-.11402-.156-.18923-.2783-.18923h-.5758c-.8348 0-1.5113.68414-1.5113 1.52841 0 .84163.0525 1.66963.1077 2.51338z" fill="url(#ay)"/><path d="m10.6606 7.36387c.1164.88308.8679 1.54054 1.7576 1.54054h.8533c.8897 0 1.6412-.65746 1.7576-1.54054.0533-.85202.107-1.70062.1466-2.5522-.0048-.34692-.2783-.63319-.6237-.64775h-.6334c-.4318 0-.8228-.25474-1.0003-.65261-.0456-.11402-.156-.18923-.2783-.18923h-.5758c-.8348 0-1.5113.68414-1.5113 1.52841 0 .84163.0525 1.66963.1077 2.51338z" fill="url(#az)"/><path d="m10.6606 7.36387c.1164.88308.8679 1.54054 1.7576 1.54054h.8533c.8897 0 1.6412-.65746 1.7576-1.54054.0533-.85202.107-1.70062.1466-2.5522-.0048-.34692-.2783-.63319-.6237-.64775h-.6334c-.4318 0-.8228-.25474-1.0003-.65261-.0456-.11402-.156-.18923-.2783-.18923h-.5758c-.8348 0-1.5113.68414-1.5113 1.52841 0 .84163.0525 1.66963.1077 2.51338z" fill="url(#aA)"/><path d="m10.6606 7.36387c.1164.88308.8679 1.54054 1.7576 1.54054h.8533c.8897 0 1.6412-.65746 1.7576-1.54054.0533-.85202.107-1.70062.1466-2.5522-.0048-.34692-.2783-.63319-.6237-.64775h-.6334c-.4318 0-.8228-.25474-1.0003-.65261-.0456-.11402-.156-.18923-.2783-.18923h-.5758c-.8348 0-1.5113.68414-1.5113 1.52841 0 .84163.0525 1.66963.1077 2.51338z" fill="url(#aB)"/><path d="m10.6606 7.36387c.1164.88308.8679 1.54054 1.7576 1.54054h.8533c.8897 0 1.6412-.65746 1.7576-1.54054.0533-.85202.107-1.70062.1466-2.5522-.0048-.34692-.2783-.63319-.6237-.64775h-.6334c-.4318 0-.8228-.25474-1.0003-.65261-.0456-.11402-.156-.18923-.2783-.18923h-.5758c-.8348 0-1.5113.68414-1.5113 1.52841 0 .84163.0525 1.66963.1077 2.51338z" fill="url(#aC)"/><path d="m10.6606 7.36387c.1164.88308.8679 1.54054 1.7576 1.54054h.8533c.8897 0 1.6412-.65746 1.7576-1.54054.0533-.85202.107-1.70062.1466-2.5522-.0048-.34692-.2783-.63319-.6237-.64775h-.6334c-.4318 0-.8228-.25474-1.0003-.65261-.0456-.11402-.156-.18923-.2783-.18923h-.5758c-.8348 0-1.5113.68414-1.5113 1.52841 0 .84163.0525 1.66963.1077 2.51338z" fill="url(#aD)"/><path d="m10.6606 7.36387c.1164.88308.8679 1.54054 1.7576 1.54054h.8533c.8897 0 1.6412-.65746 1.7576-1.54054.0533-.85202.107-1.70062.1466-2.5522-.0048-.34692-.2783-.63319-.6237-.64775h-.6334c-.4318 0-.8228-.25474-1.0003-.65261-.0456-.11402-.156-.18923-.2783-.18923h-.5758c-.8348 0-1.5113.68414-1.5113 1.52841 0 .84163.0525 1.66963.1077 2.51338z" fill="url(#aE)"/><path d="m10.6606 7.36387c.1164.88308.8679 1.54054 1.7576 1.54054h.8533c.8897 0 1.6412-.65746 1.7576-1.54054.0533-.85202.107-1.70062.1466-2.5522-.0048-.34692-.2783-.63319-.6237-.64775h-.6334c-.4318 0-.8228-.25474-1.0003-.65261-.0456-.11402-.156-.18923-.2783-.18923h-.5758c-.8348 0-1.5113.68414-1.5113 1.52841 0 .84163.0525 1.66963.1077 2.51338z" fill="url(#aF)"/><g filter="url(#k)"><path d="m12.6613 5.87856-.2672.83152c-.0456.17104.0639.34207.2191.34207h.331c.1552 0 .2647-.17367.2191-.34207l-.2237-.83152c-.0479-.18419-.228-.18419-.2783 0z" fill="#331e24"/></g><g filter="url(#l)"><path d="m12.67 5.79006-.2404.83152c-.0491.17103.0686.34207.2355.34207h.3556c.1668 0 .2846-.17367.2355-.34207l-.2404-.83152c-.0515-.18419-.2919-.18419-.3458 0z" fill="#402929"/><path d="m12.67 5.79006-.2404.83152c-.0491.17103.0686.34207.2355.34207h.3556c.1668 0 .2846-.17367.2355-.34207l-.2404-.83152c-.0515-.18419-.2919-.18419-.3458 0z" fill="url(#aG)"/><path d="m12.67 5.79006-.2404.83152c-.0491.17103.0686.34207.2355.34207h.3556c.1668 0 .2846-.17367.2355-.34207l-.2404-.83152c-.0515-.18419-.2919-.18419-.3458 0z" fill="url(#aH)"/><path d="m12.67 5.79006-.2404.83152c-.0491.17103.0686.34207.2355.34207h.3556c.1668 0 .2846-.17367.2355-.34207l-.2404-.83152c-.0515-.18419-.2919-.18419-.3458 0z" fill="url(#aI)"/><path d="m12.67 5.79006-.2404.83152c-.0491.17103.0686.34207.2355.34207h.3556c.1668 0 .2846-.17367.2355-.34207l-.2404-.83152c-.0515-.18419-.2919-.18419-.3458 0z" fill="url(#aJ)"/><path d="m12.67 5.79006-.2404.83152c-.0491.17103.0686.34207.2355.34207h.3556c.1668 0 .2846-.17367.2355-.34207l-.2404-.83152c-.0515-.18419-.2919-.18419-.3458 0z" fill="url(#aK)"/></g><g filter="url(#m)"><path d="m12.8429 7.42349c-.2295 0-.4453-.05402-.6266-.14856-.062-.03151-.1286.03827-.0896.09454.1515.22959.4155.38265.7162.38265s.5647-.15306.7162-.38265c.039-.05853-.0275-.12605-.0895-.09454-.1814.09454-.3948.14856-.6267.14856z" stroke="url(#aL)" stroke-width=".1"/></g><path d="m12.8429 7.42349c-.2295 0-.4453-.05402-.6266-.14856-.062-.03151-.1286.03827-.0896.09454.1515.22959.4155.38265.7162.38265s.5647-.15306.7162-.38265c.039-.05853-.0275-.12605-.0895-.09454-.1814.09454-.3948.14856-.6267.14856z" fill="url(#aM)"/><g filter="url(#n)"><path d="m15.0389 3.10862c.2327.08005.4414.2426.5734.4755.2111.37118.1799.81515-.048 1.14267-.0792.11645-.1223.25473-.1223.39544v.53737c-.0846-.05894-.1963-.10263-.3018-.1213l.0355-.7266c-.0048-.34693-.2783-.6332-.6238-.64776h-.6333c-.4318 0-.8228-.25473-1.0004-.6526-.0455-.11403-.1559-.18923-.2782-.18923h-.5758c-.8348 0-1.5114.68414-1.5114 1.5284l.0139.69537c-.1149.01688-.2349.05528-.3257.11926v-.54291c0-.14071-.0432-.27899-.1224-.39544-.21588-.31782-.25426-.7448-.0647-1.10628.1319-.24988.3454-.42456.5877-.50947.2591-.09219.4798-.26686.6261-.50219.1872-.2984.5158-.49734.8925-.49734.1463 0 .2854.03154.415.08491.1727.07521.367.07521.5398 0 .1271-.05337.2662-.08491.4126-.08491.3814 0 .7149.20621.8996.5119.1391.23047.3574.39787.6117.48521z" fill="url(#aN)"/><path d="m15.0389 3.10862c.2327.08005.4414.2426.5734.4755.2111.37118.1799.81515-.048 1.14267-.0792.11645-.1223.25473-.1223.39544v.53737c-.0846-.05894-.1963-.10263-.3018-.1213l.0355-.7266c-.0048-.34693-.2783-.6332-.6238-.64776h-.6333c-.4318 0-.8228-.25473-1.0004-.6526-.0455-.11403-.1559-.18923-.2782-.18923h-.5758c-.8348 0-1.5114.68414-1.5114 1.5284l.0139.69537c-.1149.01688-.2349.05528-.3257.11926v-.54291c0-.14071-.0432-.27899-.1224-.39544-.21588-.31782-.25426-.7448-.0647-1.10628.1319-.24988.3454-.42456.5877-.50947.2591-.09219.4798-.26686.6261-.50219.1872-.2984.5158-.49734.8925-.49734.1463 0 .2854.03154.415.08491.1727.07521.367.07521.5398 0 .1271-.05337.2662-.08491.4126-.08491.3814 0 .7149.20621.8996.5119.1391.23047.3574.39787.6117.48521z" fill="url(#aO)"/><path d="m15.0389 3.10862c.2327.08005.4414.2426.5734.4755.2111.37118.1799.81515-.048 1.14267-.0792.11645-.1223.25473-.1223.39544v.53737c-.0846-.05894-.1963-.10263-.3018-.1213l.0355-.7266c-.0048-.34693-.2783-.6332-.6238-.64776h-.6333c-.4318 0-.8228-.25473-1.0004-.6526-.0455-.11403-.1559-.18923-.2782-.18923h-.5758c-.8348 0-1.5114.68414-1.5114 1.5284l.0139.69537c-.1149.01688-.2349.05528-.3257.11926v-.54291c0-.14071-.0432-.27899-.1224-.39544-.21588-.31782-.25426-.7448-.0647-1.10628.1319-.24988.3454-.42456.5877-.50947.2591-.09219.4798-.26686.6261-.50219.1872-.2984.5158-.49734.8925-.49734.1463 0 .2854.03154.415.08491.1727.07521.367.07521.5398 0 .1271-.05337.2662-.08491.4126-.08491.3814 0 .7149.20621.8996.5119.1391.23047.3574.39787.6117.48521z" fill="url(#aP)"/><path d="m15.0389 3.10862c.2327.08005.4414.2426.5734.4755.2111.37118.1799.81515-.048 1.14267-.0792.11645-.1223.25473-.1223.39544v.53737c-.0846-.05894-.1963-.10263-.3018-.1213l.0355-.7266c-.0048-.34693-.2783-.6332-.6238-.64776h-.6333c-.4318 0-.8228-.25473-1.0004-.6526-.0455-.11403-.1559-.18923-.2782-.18923h-.5758c-.8348 0-1.5114.68414-1.5114 1.5284l.0139.69537c-.1149.01688-.2349.05528-.3257.11926v-.54291c0-.14071-.0432-.27899-.1224-.39544-.21588-.31782-.25426-.7448-.0647-1.10628.1319-.24988.3454-.42456.5877-.50947.2591-.09219.4798-.26686.6261-.50219.1872-.2984.5158-.49734.8925-.49734.1463 0 .2854.03154.415.08491.1727.07521.367.07521.5398 0 .1271-.05337.2662-.08491.4126-.08491.3814 0 .7149.20621.8996.5119.1391.23047.3574.39787.6117.48521z" fill="url(#aQ)"/><path d="m15.0389 3.10862c.2327.08005.4414.2426.5734.4755.2111.37118.1799.81515-.048 1.14267-.0792.11645-.1223.25473-.1223.39544v.53737c-.0846-.05894-.1963-.10263-.3018-.1213l.0355-.7266c-.0048-.34693-.2783-.6332-.6238-.64776h-.6333c-.4318 0-.8228-.25473-1.0004-.6526-.0455-.11403-.1559-.18923-.2782-.18923h-.5758c-.8348 0-1.5114.68414-1.5114 1.5284l.0139.69537c-.1149.01688-.2349.05528-.3257.11926v-.54291c0-.14071-.0432-.27899-.1224-.39544-.21588-.31782-.25426-.7448-.0647-1.10628.1319-.24988.3454-.42456.5877-.50947.2591-.09219.4798-.26686.6261-.50219.1872-.2984.5158-.49734.8925-.49734.1463 0 .2854.03154.415.08491.1727.07521.367.07521.5398 0 .1271-.05337.2662-.08491.4126-.08491.3814 0 .7149.20621.8996.5119.1391.23047.3574.39787.6117.48521z" fill="url(#aR)"/></g><g filter="url(#o)"><path d="m14.5315 4.76549c-.0792-.06901-.1714-.14214-.311-.18608-.1376-.04332-.3099-.05496-.5484-.02579-.0688.00841-.1177.07098-.1093.13974.0084.06877.071.11769.1398.10928.2176-.02662.3509-.01279.4426.01607.0897.02823.1504.07397.2215.13596.0523.04551.1315.04004.177-.0122s.04-.13147-.0122-.17698z" fill="#202020"/></g><g filter="url(#p)"><path d="m11.3001 4.71622c.0408-.0244.0994-.05561.1735-.08473.1481-.05824.3598-.10881.6131-.07782.0687.00841.1176.07097.1092.13974-.0084.06876-.0709.11769-.1397.10928-.2028-.02482-.372.01559-.4908.06228-.0594.02334-.1056.04808-.1364.06652-.0154.0092-.0268.01677-.034.02173l-.0075.00532-.0013.00093c-.0546.04214-.1331.03221-.1756-.02233-.0425-.05468-.0326-.13349.022-.17603z" fill="#202020"/></g><g filter="url(#q)"><path d="m12.9482 3.57317c-.0105-.02021-.0205-.04084-.0299-.06188-.0456-.11402-.1559-.18923-.2783-.18923h-.5757c-.8349 0-1.5114.68415-1.5114 1.52841v.12446c-.1538-.11703-.3472-.36391-.3472-.76342 0-.48481.3536-.72986.5791-.88617.0637-.04413.1172-.08119.1496-.11457.0138-.01418.0288-.03009.0451-.04739.1581-.16768.4398-.46646.9317-.59703.0798-.0212.16-.03708.2388-.04866.4678-.06877.8077.34921.8077.82206v.22734z" fill="#23181c"/><path d="m12.9482 3.57317c-.0105-.02021-.0205-.04084-.0299-.06188-.0456-.11402-.1559-.18923-.2783-.18923h-.5757c-.8349 0-1.5114.68415-1.5114 1.52841v.12446c-.1538-.11703-.3472-.36391-.3472-.76342 0-.48481.3536-.72986.5791-.88617.0637-.04413.1172-.08119.1496-.11457.0138-.01418.0288-.03009.0451-.04739.1581-.16768.4398-.46646.9317-.59703.0798-.0212.16-.03708.2388-.04866.4678-.06877.8077.34921.8077.82206v.22734z" fill="url(#aS)"/><path d="m12.9482 3.57317c-.0105-.02021-.0205-.04084-.0299-.06188-.0456-.11402-.1559-.18923-.2783-.18923h-.5757c-.8349 0-1.5114.68415-1.5114 1.52841v.12446c-.1538-.11703-.3472-.36391-.3472-.76342 0-.48481.3536-.72986.5791-.88617.0637-.04413.1172-.08119.1496-.11457.0138-.01418.0288-.03009.0451-.04739.1581-.16768.4398-.46646.9317-.59703.0798-.0212.16-.03708.2388-.04866.4678-.06877.8077.34921.8077.82206v.22734z" fill="url(#aT)"/></g><g filter="url(#r)"><path d="m15.2008 5.05085-.0132-.2855c-.0048-.34532-.2902-.63027-.6356-.64476h-.6333c-.4021 0-.7688-.21981-.9607-.56976s.3258-.94047.8663-.81868c.3948.08896.8176.22881 1.1409.4397.7891.51467.651 1.44221.2356 1.879z" fill="#1f151b"/><path d="m15.2008 5.05085-.0132-.2855c-.0048-.34532-.2902-.63027-.6356-.64476h-.6333c-.4021 0-.7688-.21981-.9607-.56976s.3258-.94047.8663-.81868c.3948.08896.8176.22881 1.1409.4397.7891.51467.651 1.44221.2356 1.879z" fill="url(#aU)"/></g><path d="m13.9245 5.36017c.2954 0 .545.20367.6129.4789.0202.0789-.0404.15412-.1211.15412h-1.0092c-.0642 0-.1156-.05871-.1028-.12293.0569-.28991.312-.51009.6202-.51009z" fill="#fff"/><path d="m13.8309 5.48309c.2239 0 .4037.18165.4037.40367 0 .0367-.0055.0734-.0147.10642h-.7798c-.0092-.03486-.0147-.06972-.0147-.10642 0-.22202.1817-.40367.4055-.40367z" fill="url(#aW)"/><path d="m13.5997 5.88677c0-.12844.1028-.23119.2312-.23119.1285 0 .2312.10275.2312.23119 0 .03853-.0092.07523-.0257.10642h-.4091c-.0184-.03119-.0276-.06789-.0276-.10642z" fill="#000"/><g filter="url(#s)"><path d="m13.8012 5.56836c.0287.03847-.0314.08536-.0997.13646-.0684.05111-.1191.08707-.1478.0486-.0288-.03846.0033-.11107.0716-.16218.0684-.0511.1471-.06135.1759-.02288z" fill="#c7a7a3"/><path d="m13.8012 5.56836c.0287.03847-.0314.08536-.0997.13646-.0684.05111-.1191.08707-.1478.0486-.0288-.03846.0033-.11107.0716-.16218.0684-.0511.1471-.06135.1759-.02288z" fill="url(#aY)"/></g><g filter="url(#t)"><path d="m14.1906 5.83362c-.0149-.10436-.076-.18301-.1047-.20929l-.1175.12901.053.10321z" fill="url(#a0)"/></g><path d="m11.7614 5.36017c-.2954 0-.5449.20368-.6128.47892-.0202.0789.0403.15414.1211.15414h1.0092c.0642 0 .1156-.05872.1028-.12294-.0569-.28993-.3138-.51012-.6203-.51012z" fill="#fff"/><path d="m11.8552 5.48309c-.2238 0-.4037.18166-.4037.40369 0 .0367.0055.0734.0147.10643h.7799c.0091-.03486.0147-.06973.0147-.10643-.0019-.22203-.1817-.40369-.4056-.40369z" fill="url(#a1)"/><path d="m12.0863 5.88678c0-.12844-.1027-.2312-.2312-.2312-.1284 0-.2312.10276-.2312.2312 0 .03854.0092.07524.0257.10643h.4092c.0165-.03119.0275-.06789.0275-.10643z" fill="#000"/><g filter="url(#u)"><path d="m12.2238 5.83935c0-.13046-.1061-.21743-.1347-.24371l-.1305.12616.0803.16342z" fill="url(#a2)"/></g><g filter="url(#v)"><ellipse cx="11.7332" cy="5.65555" fill="#c7a7a3" fill-opacity=".9" rx=".176232" ry=".08919" transform="matrix(.88365127 -.46814574 .46814574 .88365127 -1.282479 6.150864)"/><ellipse cx="11.7332" cy="5.65555" fill="url(#a3)" rx=".176232" ry=".08919" transform="matrix(.88365127 -.46814574 .46814574 .88365127 -1.282479 6.150864)"/></g><path d="m15.0692 6.71977c.0298-.48135.0585-.96212.0835-1.44346.3418.05979.6015.35801.6015.71689 0 .38759-.303.70441-.685.72657z" fill="url(#a4)"/><path d="m15.0692 6.71977c.0298-.48135.0585-.96212.0835-1.44346.3418.05979.6015.35801.6015.71689 0 .38759-.303.70441-.685.72657z" fill="url(#a5)"/><path d="m15.0692 6.71977c.0298-.48135.0585-.96212.0835-1.44346.3418.05979.6015.35801.6015.71689 0 .38759-.303.70441-.685.72657z" fill="url(#a6)"/><path d="m15.0692 6.71977c.0298-.48135.0585-.96212.0835-1.44346.3418.05979.6015.35801.6015.71689 0 .38759-.303.70441-.685.72657z" fill="url(#a7)"/><path d="m10.557 5.27252c-.3534.04983-.62524.35349-.62524.72065 0 .38857.30454.70602.68794.72674-.0292-.48333-.0533-.96391-.0627-1.44739z" fill="url(#a8)"/><path d="m10.557 5.27252c-.3534.04983-.62524.35349-.62524.72065 0 .38857.30454.70602.68794.72674-.0292-.48333-.0533-.96391-.0627-1.44739z" fill="url(#a9)"/><g filter="url(#w)"><path d="m10.5429 5.57123c-.193.04327-.3372.21563-.3372.42167 0 .21927.1633.40039.3749.42839-.0157-.28352-.0289-.56649-.0377-.85006z" fill="url(#ba)"/></g><g filter="url(#x)"><path d="m15.0787 6.4236c.0175-.28702.0343-.57391.0501-.86092.2131.0266.3781.20843.3781.4288 0 .23732-.1913.42996-.4282.43212z" fill="url(#bb)"/></g><g filter="url(#y)"><path d="m14.7395 3.58105h-.9413c-.1205 0-.2183-.09773-.2183-.2183 0-.13449.1204-.23761.2533-.21644.2441.03892.5684.09317.7856.14701.491.12174.6266.36078.6645.53121-.1754-.21426-.4356-.25159-.5438-.24348z" fill="#504a4c"/></g><path d="m9.71619 3.30172c0-.05523.04477-.1.1-.1h5.92501c.0552 0 .1.04477.1.1v.8625c0 .05523-.0448.1-.1.1h-5.92501c-.05523 0-.1-.04477-.1-.1z" fill="url(#bc)"/><path d="m9.71619 3.30172c0-.05523.04477-.1.1-.1h5.92501c.0552 0 .1.04477.1.1v.8625c0 .05523-.0448.1-.1.1h-5.92501c-.05523 0-.1-.04477-.1-.1z" fill="url(#bd)"/><path d="m9.71619 3.30172c0-.05523.04477-.1.1-.1h5.92501c.0552 0 .1.04477.1.1v.8625c0 .05523-.0448.1-.1.1h-5.92501c-.05523 0-.1-.04477-.1-.1z" fill="url(#be)"/><path d="m9.71619 3.30172c0-.05523.04477-.1.1-.1h5.92501c.0552 0 .1.04477.1.1v.8625c0 .05523-.0448.1-.1.1h-5.92501c-.05523 0-.1-.04477-.1-.1z" fill="url(#bf)"/><g filter="url(#z)"><path d="m20.8571 14.1686c.475-1.675-.198-3.3541-.5938-3.9843l.7813-.38285c.9062 1.67185.9531 2.77345.7343 3.61715z" fill="#614e4d"/></g><g filter="url(#A)"><path d="m19.3238 8.30441c-.0383-.01406-.0813-.00243-.1068.02947-.4396.551-.75 1.56721-.8211 2.05632.1675.0625.3143.1368.432.2253.4177.266.7038.5763.8754.931.8112-.5492 1.6365-.8023 2.0962-.8555-.3412-.80317-.9211-1.49085-1.7345-2.0088-.2087-.13291-.4597-.27444-.7412-.37779z" fill="#e8e5eb"/><path d="m19.3238 8.30441c-.0383-.01406-.0813-.00243-.1068.02947-.4396.551-.75 1.56721-.8211 2.05632.1675.0625.3143.1368.432.2253.4177.266.7038.5763.8754.931.8112-.5492 1.6365-.8023 2.0962-.8555-.3412-.80317-.9211-1.49085-1.7345-2.0088-.2087-.13291-.4597-.27444-.7412-.37779z" fill="url(#bg)"/></g></svg>