<svg enable-background="new 0 0 128 128" viewBox="0 0 32 32" xmlns="http://www.w3.org/2000/svg"><path d="m7.12 2.2911-4.12 1.6c.87 2.24 3.38 3.35 5.62 2.48l4.12-1.6c-.87-2.23-3.38-3.34-5.62-2.48z" fill="#00d26a"/><path d="m19.99 8.10112-.1-.25c-1.11-2.86-4.33-4.28-7.19-3.17-2.86 1.1-4.28 4.32-3.17 7.17998l.1.25c.63 1.62.66 3.41.1 5.06-.75 2.18-.7 4.55.13 6.7 1.91 4.94 7.47 7.39 12.41 5.48s7.39-7.47 5.48-12.41c-.83-2.15-2.4-3.93-4.42-5.04-1.53-.83-2.71-2.17998-3.34-3.79998z" fill="#c3ef3c"/></svg>