<svg fill="none" height="32" viewBox="0 0 32 32" width="32" xmlns="http://www.w3.org/2000/svg" xmlns:xlink="http://www.w3.org/1999/xlink"><filter id="a" color-interpolation-filters="sRGB" filterUnits="userSpaceOnUse" height="12.0833" width="11.8333" x="17.9701" y="18.8607"><feFlood flood-opacity="0" result="BackgroundImageFix"/><feBlend in="SourceGraphic" in2="BackgroundImageFix" mode="normal" result="shape"/><feColorMatrix in="SourceAlpha" result="hardAlpha" type="matrix" values="0 0 0 0 0 0 0 0 0 0 0 0 0 0 0 0 0 0 127 0"/><feOffset dx="-1" dy="1"/><feGaussianBlur stdDeviation="1.5"/><feComposite in2="hardAlpha" k2="-1" k3="1" operator="arithmetic"/><feColorMatrix type="matrix" values="0 0 0 0 0.4 0 0 0 0 0.239216 0 0 0 0 0.439216 0 0 0 1 0"/><feBlend in2="shape" mode="normal" result="effect1_innerShadow_18_20461"/><feColorMatrix in="SourceAlpha" result="hardAlpha" type="matrix" values="0 0 0 0 0 0 0 0 0 0 0 0 0 0 0 0 0 0 127 0"/><feOffset dy="-.25"/><feGaussianBlur stdDeviation=".375"/><feComposite in2="hardAlpha" k2="-1" k3="1" operator="arithmetic"/><feColorMatrix type="matrix" values="0 0 0 0 0.639216 0 0 0 0 0.490196 0 0 0 0 0.643137 0 0 0 1 0"/><feBlend in2="effect1_innerShadow_18_20461" mode="normal" result="effect2_innerShadow_18_20461"/><feColorMatrix in="SourceAlpha" result="hardAlpha" type="matrix" values="0 0 0 0 0 0 0 0 0 0 0 0 0 0 0 0 0 0 127 0"/><feOffset dy="1"/><feGaussianBlur stdDeviation=".75"/><feComposite in2="hardAlpha" k2="-1" k3="1" operator="arithmetic"/><feColorMatrix type="matrix" values="0 0 0 0 0.333333 0 0 0 0 0.27451 0 0 0 0 0.380392 0 0 0 1 0"/><feBlend in2="effect2_innerShadow_18_20461" mode="normal" result="effect3_innerShadow_18_20461"/></filter><filter id="b" color-interpolation-filters="sRGB" filterUnits="userSpaceOnUse" height="21.736" width="21.736" x="2.03826" y="2.11638"><feFlood flood-opacity="0" result="BackgroundImageFix"/><feBlend in="SourceGraphic" in2="BackgroundImageFix" mode="normal" result="shape"/><feGaussianBlur result="effect1_foregroundBlur_18_20461" stdDeviation=".15"/></filter><filter id="c" color-interpolation-filters="sRGB" filterUnits="userSpaceOnUse" height="18.9901" width="18.9901" x="3.41121" y="3.48933"><feFlood flood-opacity="0" result="BackgroundImageFix"/><feBlend in="SourceGraphic" in2="BackgroundImageFix" mode="normal" result="shape"/><feGaussianBlur result="effect1_foregroundBlur_18_20461" stdDeviation=".1"/></filter><filter id="d" color-interpolation-filters="sRGB" filterUnits="userSpaceOnUse" height="19.275" width="18.125" x="3.84375" y="3.77187"><feFlood flood-opacity="0" result="BackgroundImageFix"/><feBlend in="SourceGraphic" in2="BackgroundImageFix" mode="normal" result="shape"/><feColorMatrix in="SourceAlpha" result="hardAlpha" type="matrix" values="0 0 0 0 0 0 0 0 0 0 0 0 0 0 0 0 0 0 127 0"/><feOffset dy="1"/><feGaussianBlur stdDeviation="1"/><feComposite in2="hardAlpha" k2="-1" k3="1" operator="arithmetic"/><feColorMatrix type="matrix" values="0 0 0 0 0.168627 0 0 0 0 0.603922 0 0 0 0 0.956863 0 0 0 1 0"/><feBlend in2="shape" mode="normal" result="effect1_innerShadow_18_20461"/><feColorMatrix in="SourceAlpha" result="hardAlpha" type="matrix" values="0 0 0 0 0 0 0 0 0 0 0 0 0 0 0 0 0 0 127 0"/><feOffset dy="-.15"/><feGaussianBlur stdDeviation=".15"/><feComposite in2="hardAlpha" k2="-1" k3="1" operator="arithmetic"/><feColorMatrix type="matrix" values="0 0 0 0 0.137255 0 0 0 0 0.607843 0 0 0 0 0.984314 0 0 0 1 0"/><feBlend in2="effect1_innerShadow_18_20461" mode="normal" result="effect2_innerShadow_18_20461"/></filter><linearGradient id="e" gradientUnits="userSpaceOnUse" x1="18.0438" x2="22.3749" y1="33.2307" y2="24.7012"><stop offset="0" stop-color="#a0659c"/><stop offset="1" stop-color="#895792"/></linearGradient><linearGradient id="f" gradientUnits="userSpaceOnUse" x1="21.1595" x2="21.1706" y1="23.3975" y2="27.6844"><stop offset="0" stop-color="#6c3b74"/><stop offset="1" stop-color="#845590" stop-opacity="0"/></linearGradient><linearGradient id="g" gradientUnits="userSpaceOnUse" x1="25.0265" x2="19.8779" y1="31.1978" y2="31.0431"><stop offset=".115168" stop-color="#703d7a"/><stop offset="1" stop-color="#703d7a" stop-opacity="0"/></linearGradient><radialGradient id="h" cx="0" cy="0" gradientTransform="matrix(-.09943617 2.3312403 -5.4179337 -.23109525 21.2148 22.6794)" gradientUnits="userSpaceOnUse" r="1"><stop offset="0" stop-color="#2f1a3d"/><stop offset="1" stop-color="#532d64" stop-opacity="0"/></radialGradient><linearGradient id="i" gradientUnits="userSpaceOnUse" x1="12.9062" x2="12.9063" y1="2.17187" y2="23.7969"><stop offset=".378529" stop-color="#344a7d"/><stop offset=".633316" stop-color="#785790"/><stop offset=".837142" stop-color="#785790"/><stop offset="1" stop-color="#9872a2"/></linearGradient><linearGradient id="j" gradientUnits="userSpaceOnUse" x1="12.9062" x2="12.9062" y1="2.41638" y2="23.5523"><stop offset="0" stop-color="#475890"/><stop offset="1" stop-color="#7a4d87"/></linearGradient><radialGradient id="k" cx="0" cy="0" gradientTransform="matrix(-.00000894 -5.125 9.53123 -.00001664 12.9062 7.40622)" gradientUnits="userSpaceOnUse" r="1"><stop offset=".704268" stop-color="#566298"/><stop offset=".786585" stop-color="#566298" stop-opacity="0"/></radialGradient><linearGradient id="l" gradientUnits="userSpaceOnUse" x1="12.9063" x2="12.9063" y1="3.68933" y2="22.2794"><stop offset="0" stop-color="#204083"/><stop offset="1" stop-color="#523573"/></linearGradient><linearGradient id="m" gradientUnits="userSpaceOnUse" x1="16.9896" x2="16.9896" y1="6.40908" y2="10.4759"><stop offset="0" stop-color="#dcdbf2"/><stop offset=".209118" stop-color="#dcdbf2" stop-opacity=".84797"/><stop offset="1" stop-color="#dcdbf2" stop-opacity="0"/></linearGradient><g filter="url(#a)"><rect fill="url(#e)" height="12.2086" rx="3.75651" transform="matrix(.70710678 -.70710678 .70710678 .70710678 -11.06908 19.011276)" width="7.51302" x="17.4141" y="22.8672"/><rect fill="url(#f)" height="12.2086" rx="3.75651" transform="matrix(.70710678 -.70710678 .70710678 .70710678 -11.06908 19.011276)" width="7.51302" x="17.4141" y="22.8672"/><rect fill="url(#g)" height="12.2086" rx="3.75651" transform="matrix(.70710678 -.70710678 .70710678 .70710678 -11.06908 19.011276)" width="7.51302" x="17.4141" y="22.8672"/></g><rect fill="url(#h)" height="12.2086" rx="3.75651" transform="matrix(.70710678 -.70710678 .70710678 .70710678 -11.06908 19.011276)" width="7.51302" x="17.4141" y="22.8672"/><path clip-rule="evenodd" d="m12.9062 23.7969c5.9716 0 10.8126-4.8409 10.8126-10.8125 0-5.97161-4.841-10.81252-10.8126-10.81252-5.97154 0-10.81245 4.84091-10.81245 10.81252 0 5.9716 4.84091 10.8125 10.81245 10.8125zm0-1.75c5.0051 0 9.0626-4.0575 9.0626-9.0625 0-5.00509-4.0575-9.06252-9.0626-9.06252-5.00502 0-9.06245 4.05743-9.06245 9.06252 0 5.005 4.05743 9.0625 9.06245 9.0625z" fill="url(#i)" fill-rule="evenodd"/><g clip-rule="evenodd" fill-rule="evenodd" filter="url(#b)"><path d="m12.9062 23.5523c5.8366 0 10.568-4.7314 10.568-10.5679 0-5.83658-4.7314-10.56802-10.568-10.56802-5.83651 0-10.56794 4.73144-10.56794 10.56802 0 5.8365 4.73143 10.5679 10.56794 10.5679zm0-1.7104c4.8919 0 8.8576-3.9657 8.8576-8.8575 0-4.89192-3.9657-8.85759-8.8576-8.85759-4.89184 0-8.85752 3.96567-8.85752 8.85759 0 4.8918 3.96568 8.8575 8.85752 8.8575z" fill="url(#j)"/><path d="m12.9062 23.5523c5.8366 0 10.568-4.7314 10.568-10.5679 0-5.83658-4.7314-10.56802-10.568-10.56802-5.83651 0-10.56794 4.73144-10.56794 10.56802 0 5.8365 4.73143 10.5679 10.56794 10.5679zm0-1.7104c4.8919 0 8.8576-3.9657 8.8576-8.8575 0-4.89192-3.9657-8.85759-8.8576-8.85759-4.89184 0-8.85752 3.96567-8.85752 8.85759 0 4.8918 3.96568 8.8575 8.85752 8.8575z" fill="url(#k)"/></g><g filter="url(#c)"><circle cx="12.9063" cy="12.9844" fill="url(#l)" r="9.29505"/></g><g filter="url(#d)"><circle cx="12.9062" cy="12.9844" fill="#64d0ea" r="9.0625"/></g><ellipse cx="16.9896" cy="8.44251" fill="url(#m)" rx="1.65124" ry="2.03343" transform="matrix(.77829027 -.62790465 .62790465 .77829027 -1.534332 12.539635)"/></svg>