<svg enable-background="new 0 0 128 128" viewBox="0 0 32 32" xmlns="http://www.w3.org/2000/svg"><g fill="#212121"><path d="m23.5899 12.3398c.22-.45.34-.95.34-1.48 0-.7-.21-1.35003-.57-1.89003-.36-.56-.55-1.2-.55-1.85v-.01c0-1.89-1.53-3.43-3.43-3.43-.19 0-.36-.09-.47-.24-.62-.87-1.64-1.43-2.79-1.43s-2.17.57-2.79 1.43c-.1.15-.28.24-.46.24-1.89 0-3.42995 1.53-3.42995 3.43v.01c0 .66-.19 1.3-.55 1.84s-.57 1.19003-.57 1.89003c0 .53.12 1.04.34 1.48.07.15.07.33 0 .48-.22.44-.34.94-.34 1.46 0 1.85 1.5 3.35 3.34995 3.35h8.92c1.85 0 3.35-1.5 3.35-3.35 0-.53-.12-1.02-.34-1.46-.08-.15-.08-.32-.01-.47z"/><path d="m11.4115 16.5h9.1751c-1.3959-.6421-2.9494-1-4.5866-1-1.6373 0-3.1915.3579-4.5885 1z"/><path d="m23 18.5h-14l-2 5.5 2 6h14l2-6z"/></g><path d="m23 30v-11.4064c-1.3697 2.4604-3.9822 4.1264-7 4.1264-3.0167 0-5.6375-1.6649-6.99995-4.1239v11.4039h-4v-3.5c-.01-3.41 1.57-6.47 4-8.5v.0128c1.90115-1.5647 4.33905-2.5128 6.99995-2.5128 2.661 0 5.0989.9388 7 2.5117v-.0117c2.45 2.02 4 5.09 4 8.5v3.5z"/><path d="m12.5 29.99v-5.25c0-.28-.22-.5-.5-.5s-.5.22-.5.5v5.25z"/><path d="m16.5 29.99v-5.25c0-.28-.22-.5-.5-.5s-.5.22-.5.5v5.25z"/><path d="m20.5 29.99v-5.25c0-.28-.22-.5-.5-.5s-.5.22-.5.5v5.25z"/><path d="m16.9201 18.2801-.65.58c-.16.14-.39.14-.55 0l-.65-.58c-.72-.65-1.14-1.58-1.14-2.55v-3.09c0-1.14.92-2.06 2.06-2.06s2.06.92 2.06 2.06v3.09c0 .97-.41 1.9-1.13 2.55z" fill="#f4c6ad"/><path d="m13.1612 10.66c0 .9003-.7297 1.63-1.63 1.63-.9002 0-1.62995-.7297-1.62995-1.63 0-.9002.72975-1.62997 1.62995-1.62997.9003 0 1.63.72977 1.63 1.62997z" fill="#f4c6ad"/><path d="m22.3588 10.66c0 .9003-.7298 1.63-1.63 1.63-.9003 0-1.63-.7297-1.63-1.63 0-.9002.7297-1.62997 1.63-1.62997.9002 0 1.63.72977 1.63 1.62997z" fill="#f4c6ad"/><path d="m20.19 7.58003h-3.3c-1.31 0-2.53-.65-3.27-1.73-.12-.18-.4-.15-.48.05l-.09.21c-.23.57-.68 1.02-1.22 1.27-.04.01-.08.03-.11.04-.25.12-.81.5-.83 1.48l.14 3.28997c.12 2.92 2.37 4.87 5.1 4.87s4.98-1.95 5.1-4.87l.13-3.12997c-.02-1.38-.98-1.47-1.17-1.48z" fill="#ffd7c2"/><path d="m16.13 13.9399c-.54 0-1.05-.13-1.47-.35-.15-.08-.3.09-.21.23.36.55.98.92 1.68.92s1.33-.37 1.68-.92c.09-.14-.07-.3-.21-.23-.43.22-.93.35-1.47.35z" fill="#990838"/><path d="m15.74 10.57-.53 1.7c-.11.35.15.7.52.7h.78c.37 0 .63-.35.52-.7l-.53-1.7c-.11-.37-.64-.37-.76 0z" fill="#e5af93"/><path d="m13.42 9.5c.59 0 1.07.4 1.37.86-.2543.0777-.5011.1479-.7448.2173-.4464.1269-.8824.251-1.3352.4127l-.5-.45c-.21-.19-.19-.52.03-.68.33-.23.77-.36 1.18-.36z"/><path d="m18.86 9.5c-.58 0-1.06.41-1.36.86.2673.0828.5275.1571.786.231.428.1222.8513.2431 1.294.399l.5-.45c.2-.19.19-.52-.04-.68-.33-.23-.77-.36-1.18-.36z"/><path d="m12.2 10.7001c.16-.63.73-1.1 1.41-1.1.7 0 1.29.5 1.42 1.17.03.15-.09.28-.24.28h-2.31c-.19 0-.32-.17-.28-.35z" fill="#fff"/><path d="m20.08 10.7001c-.16-.63-.73-1.1-1.41-1.1-.7 0-1.29.5-1.42 1.17-.03.15.09.28.24.28h2.31c.19 0 .32-.17.28-.35z" fill="#fff"/><path d="m12.89 10.8099c0-.51.42-.93002.93-.93002s.93.41002.93.92002c0 .09-.01.17-.04.26h-1.79c-.02-.08-.03-.16-.03-.25z" fill="#7d4533"/><path d="m19.39 10.8099c0-.51-.42-.93002-.93-.93002s-.93.41002-.92.93002c0 .09.01.17.03.25h1.79c.02-.08.03-.16.03-.25z" fill="#7d4533"/><path d="m13.82 10.27c.29 0 .53.24.53.53 0 .09-.02.18-.06.25h-.94c-.04-.08-.06-.16-.06-.25 0-.29.24-.53.53-.53z"/><path d="m18.4599 10.27c-.29 0-.53.24-.53.53 0 .09.02.18.06.25h.94c.04-.08.06-.16.06-.25 0-.29-.24-.53-.53-.53z"/><path d="m13.6701 10.44c0 .0939-.0761.17-.17.17s-.17-.0761-.17-.17.0761-.17.17-.17.17.0761.17.17z" fill="#fff"/><path d="m18.32 10.44c0 .0939-.0761.17-.17.17s-.17-.0761-.17-.17.0761-.17.17-.17.17.0761.17.17z" fill="#fff"/><path d="m19.6601 8.92996c.05.03.09.04.14.04.1 0 .19-.05.24-.14.08-.13.03-.3-.1-.38 0 0-.0046-.00238-.0089-.00467-.1033-.055-.9727-.51773-1.9711-.33533-.15.02-.25.17-.22.32.02.15.17.25.32.22.768-.13715 1.4608.21057 1.5815.27116.0113.00568.0185.00884.0185.00884z" fill="#212121"/><path d="m12.21 8.82996c.05.09.14.14.24.14.05 0 .09-.01.14-.04 0 0 .0071-.00307.0184-.00858.1204-.05902.8134-.39861 1.5816-.26142.15.03.29-.07.31-.23.03-.15-.07-.29-.22-.32-.9886-.18237-1.8574.28015-1.961.33529-.0044.00231-.009.00471-.009.00471-.13.08-.18.25-.1.38z" fill="#212121"/><path d="m25.33 13.7799c-.11-.35-.43-.61-.82-.61s-.71.25-.82.61l-.58 2.11c-.07.24.11.48.36.48h2.07c.25 0 .43-.24.36-.48z" fill="#f9c23c"/><path d="m21.3453 3.6h2.7647v8.08c-.27.14-.46.43-.46.76 0 .47.38.86.86.86s.86-.38.86-.86c0-.33-.19-.62-.46-.76v-8.88001l-.01.00001c0-.44-.36-.8-.8-.8h-15.96003c-.44 0-.8.36-.8.8s.36.8.8.8h2.77003l-.8801 1.60001 4.56.76c1.02.15 2.05.15 3.07-.01l4.55-.76z" fill="#1c1c1c"/></svg>