<svg fill="none" height="32" viewBox="0 0 32 32" width="32" xmlns="http://www.w3.org/2000/svg" xmlns:xlink="http://www.w3.org/1999/xlink"><filter id="a" color-interpolation-filters="sRGB" filterUnits="userSpaceOnUse" height="1.60337" width="1.80479" x="19.7873" y="6.88702"><feFlood flood-opacity="0" result="BackgroundImageFix"/><feBlend in="SourceGraphic" in2="BackgroundImageFix" mode="normal" result="shape"/><feColorMatrix in="SourceAlpha" result="hardAlpha" type="matrix" values="0 0 0 0 0 0 0 0 0 0 0 0 0 0 0 0 0 0 127 0"/><feOffset dx="-.025" dy=".025"/><feGaussianBlur stdDeviation=".1"/><feComposite in2="hardAlpha" k2="-1" k3="1" operator="arithmetic"/><feColorMatrix type="matrix" values="0 0 0 0 0.945098 0 0 0 0 0.698039 0 0 0 0 0.27451 0 0 0 1 0"/><feBlend in2="shape" mode="normal" result="effect1_innerShadow_18_806"/></filter><filter id="b" color-interpolation-filters="sRGB" filterUnits="userSpaceOnUse" height="1.65337" width="1.82612" x="22.9217" y="6.81202"><feFlood flood-opacity="0" result="BackgroundImageFix"/><feBlend in="SourceGraphic" in2="BackgroundImageFix" mode="normal" result="shape"/><feColorMatrix in="SourceAlpha" result="hardAlpha" type="matrix" values="0 0 0 0 0 0 0 0 0 0 0 0 0 0 0 0 0 0 127 0"/><feOffset dx=".05" dy="-.075"/><feGaussianBlur stdDeviation=".1"/><feComposite in2="hardAlpha" k2="-1" k3="1" operator="arithmetic"/><feColorMatrix type="matrix" values="0 0 0 0 0.603922 0 0 0 0 0.415686 0 0 0 0 0.196078 0 0 0 1 0"/><feBlend in2="shape" mode="normal" result="effect1_innerShadow_18_806"/></filter><filter id="c" color-interpolation-filters="sRGB" filterUnits="userSpaceOnUse" height="7.06999" width="8.14857" x="17.9064" y="17.2868"><feFlood flood-opacity="0" result="BackgroundImageFix"/><feBlend in="SourceGraphic" in2="BackgroundImageFix" mode="normal" result="shape"/><feGaussianBlur result="effect1_foregroundBlur_18_806" stdDeviation=".2"/></filter><filter id="d" color-interpolation-filters="sRGB" filterUnits="userSpaceOnUse" height="15.48" width="14.45" x="2.51001" y="13.77"><feFlood flood-opacity="0" result="BackgroundImageFix"/><feBlend in="SourceGraphic" in2="BackgroundImageFix" mode="normal" result="shape"/><feColorMatrix in="SourceAlpha" result="hardAlpha" type="matrix" values="0 0 0 0 0 0 0 0 0 0 0 0 0 0 0 0 0 0 127 0"/><feOffset dx="1.5" dy="1.5"/><feGaussianBlur stdDeviation="1"/><feComposite in2="hardAlpha" k2="-1" k3="1" operator="arithmetic"/><feColorMatrix type="matrix" values="0 0 0 0 0.411765 0 0 0 0 0.682353 0 0 0 0 0.858824 0 0 0 1 0"/><feBlend in2="shape" mode="normal" result="effect1_innerShadow_18_806"/><feColorMatrix in="SourceAlpha" result="hardAlpha" type="matrix" values="0 0 0 0 0 0 0 0 0 0 0 0 0 0 0 0 0 0 127 0"/><feOffset dx="-1.5"/><feGaussianBlur stdDeviation="1.25"/><feComposite in2="hardAlpha" k2="-1" k3="1" operator="arithmetic"/><feColorMatrix type="matrix" values="0 0 0 0 0.364706 0 0 0 0 0.545098 0 0 0 0 0.764706 0 0 0 1 0"/><feBlend in2="effect1_innerShadow_18_806" mode="normal" result="effect2_innerShadow_18_806"/></filter><filter id="e" color-interpolation-filters="sRGB" filterUnits="userSpaceOnUse" height="6.62653" width="2.25879" x="8.44434" y="17.528"><feFlood flood-opacity="0" result="BackgroundImageFix"/><feBlend in="SourceGraphic" in2="BackgroundImageFix" mode="normal" result="shape"/><feGaussianBlur result="effect1_foregroundBlur_18_806" stdDeviation=".125"/></filter><filter id="f" color-interpolation-filters="sRGB" filterUnits="userSpaceOnUse" height="6.35001" width="1.97288" x="8.8186" y="17.51"><feFlood flood-opacity="0" result="BackgroundImageFix"/><feBlend in="SourceGraphic" in2="BackgroundImageFix" mode="normal" result="shape"/><feColorMatrix in="SourceAlpha" result="hardAlpha" type="matrix" values="0 0 0 0 0 0 0 0 0 0 0 0 0 0 0 0 0 0 127 0"/><feOffset dx=".15"/><feGaussianBlur stdDeviation=".15"/><feComposite in2="hardAlpha" k2="-1" k3="1" operator="arithmetic"/><feColorMatrix type="matrix" values="0 0 0 0 0.803922 0 0 0 0 0.690196 0 0 0 0 0.32549 0 0 0 1 0"/><feBlend in2="shape" mode="normal" result="effect1_innerShadow_18_806"/></filter><filter id="g" color-interpolation-filters="sRGB" filterUnits="userSpaceOnUse" height="2.3" width="28.3" x="1.85" y="27.6"><feFlood flood-opacity="0" result="BackgroundImageFix"/><feBlend in="SourceGraphic" in2="BackgroundImageFix" mode="normal" result="shape"/><feColorMatrix in="SourceAlpha" result="hardAlpha" type="matrix" values="0 0 0 0 0 0 0 0 0 0 0 0 0 0 0 0 0 0 127 0"/><feOffset dx=".15" dy="-.15"/><feGaussianBlur stdDeviation=".125"/><feComposite in2="hardAlpha" k2="-1" k3="1" operator="arithmetic"/><feColorMatrix type="matrix" values="0 0 0 0 0.596078 0 0 0 0 0.27451 0 0 0 0 0.313726 0 0 0 1 0"/><feBlend in2="shape" mode="normal" result="effect1_innerShadow_18_806"/><feColorMatrix in="SourceAlpha" result="hardAlpha" type="matrix" values="0 0 0 0 0 0 0 0 0 0 0 0 0 0 0 0 0 0 127 0"/><feOffset dx="-.15" dy=".15"/><feGaussianBlur stdDeviation=".125"/><feComposite in2="hardAlpha" k2="-1" k3="1" operator="arithmetic"/><feColorMatrix type="matrix" values="0 0 0 0 0.792157 0 0 0 0 0.552941 0 0 0 0 0.403922 0 0 0 1 0"/><feBlend in2="effect1_innerShadow_18_806" mode="normal" result="effect2_innerShadow_18_806"/></filter><filter id="h" color-interpolation-filters="sRGB" filterUnits="userSpaceOnUse" height="4.55999" width="5.55997" x="19.54" y="11.95"><feFlood flood-opacity="0" result="BackgroundImageFix"/><feBlend in="SourceGraphic" in2="BackgroundImageFix" mode="normal" result="shape"/><feColorMatrix in="SourceAlpha" result="hardAlpha" type="matrix" values="0 0 0 0 0 0 0 0 0 0 0 0 0 0 0 0 0 0 127 0"/><feOffset dx=".15" dy="-.1"/><feGaussianBlur stdDeviation=".3"/><feComposite in2="hardAlpha" k2="-1" k3="1" operator="arithmetic"/><feColorMatrix type="matrix" values="0 0 0 0 0.886275 0 0 0 0 0.596078 0 0 0 0 0.541176 0 0 0 1 0"/><feBlend in2="shape" mode="normal" result="effect1_innerShadow_18_806"/></filter><filter id="i" color-interpolation-filters="sRGB" filterUnits="userSpaceOnUse" height="2.80999" width="5.55002" x="19.5601" y="9.34003"><feFlood flood-opacity="0" result="BackgroundImageFix"/><feBlend in="SourceGraphic" in2="BackgroundImageFix" mode="normal" result="shape"/><feColorMatrix in="SourceAlpha" result="hardAlpha" type="matrix" values="0 0 0 0 0 0 0 0 0 0 0 0 0 0 0 0 0 0 127 0"/><feOffset dx=".15" dy=".1"/><feGaussianBlur stdDeviation=".375"/><feComposite in2="hardAlpha" k2="-1" k3="1" operator="arithmetic"/><feColorMatrix type="matrix" values="0 0 0 0 0.290196 0 0 0 0 0.25098 0 0 0 0 0.341176 0 0 0 1 0"/><feBlend in2="shape" mode="normal" result="effect1_innerShadow_18_806"/></filter><filter id="j" color-interpolation-filters="sRGB" filterUnits="userSpaceOnUse" height=".796875" width="2.92188" x="9.1875" y="7.97656"><feFlood flood-opacity="0" result="BackgroundImageFix"/><feBlend in="SourceGraphic" in2="BackgroundImageFix" mode="normal" result="shape"/><feGaussianBlur result="effect1_foregroundBlur_18_806" stdDeviation=".125"/></filter><filter id="k" color-interpolation-filters="sRGB" filterUnits="userSpaceOnUse" height="7.27001" width="5.55002" x="7.03003" y="9.24003"><feFlood flood-opacity="0" result="BackgroundImageFix"/><feBlend in="SourceGraphic" in2="BackgroundImageFix" mode="normal" result="shape"/><feColorMatrix in="SourceAlpha" result="hardAlpha" type="matrix" values="0 0 0 0 0 0 0 0 0 0 0 0 0 0 0 0 0 0 127 0"/><feOffset dx=".15" dy="-.1"/><feGaussianBlur stdDeviation=".3"/><feComposite in2="hardAlpha" k2="-1" k3="1" operator="arithmetic"/><feColorMatrix type="matrix" values="0 0 0 0 0.717647 0 0 0 0 0.654902 0 0 0 0 0.576471 0 0 0 1 0"/><feBlend in2="shape" mode="normal" result="effect1_innerShadow_18_806"/></filter><filter id="l" color-interpolation-filters="sRGB" filterUnits="userSpaceOnUse" height="1.83154" width="1.5" x="7.78833" y="12.7988"><feFlood flood-opacity="0" result="BackgroundImageFix"/><feBlend in="SourceGraphic" in2="BackgroundImageFix" mode="normal" result="shape"/><feGaussianBlur result="effect1_foregroundBlur_18_806" stdDeviation=".125"/></filter><filter id="m" color-interpolation-filters="sRGB" filterUnits="userSpaceOnUse" height="1.83154" width="1.5" x="10.0284" y="12.7988"><feFlood flood-opacity="0" result="BackgroundImageFix"/><feBlend in="SourceGraphic" in2="BackgroundImageFix" mode="normal" result="shape"/><feGaussianBlur result="effect1_foregroundBlur_18_806" stdDeviation=".125"/></filter><filter id="n" color-interpolation-filters="sRGB" filterUnits="userSpaceOnUse" height="4.50714" width="1.58442" x="9.08777" y="6.33252"><feFlood flood-opacity="0" result="BackgroundImageFix"/><feBlend in="SourceGraphic" in2="BackgroundImageFix" mode="normal" result="shape"/><feColorMatrix in="SourceAlpha" result="hardAlpha" type="matrix" values="0 0 0 0 0 0 0 0 0 0 0 0 0 0 0 0 0 0 127 0"/><feOffset dx=".3"/><feGaussianBlur stdDeviation=".3"/><feComposite in2="hardAlpha" k2="-1" k3="1" operator="arithmetic"/><feColorMatrix type="matrix" values="0 0 0 0 0.341176 0 0 0 0 0.333333 0 0 0 0 0.478431 0 0 0 1 0"/><feBlend in2="shape" mode="normal" result="effect1_innerShadow_18_806"/></filter><filter id="o" color-interpolation-filters="sRGB" filterUnits="userSpaceOnUse" height="4.0125" width=".95" x="9.4" y="6.32188"><feFlood flood-opacity="0" result="BackgroundImageFix"/><feBlend in="SourceGraphic" in2="BackgroundImageFix" mode="normal" result="shape"/><feGaussianBlur result="effect1_foregroundBlur_18_806" stdDeviation=".175"/></filter><filter id="p" color-interpolation-filters="sRGB" filterUnits="userSpaceOnUse" height="2.81002" width="5.55002" x="7.03003" y="9.34003"><feFlood flood-opacity="0" result="BackgroundImageFix"/><feBlend in="SourceGraphic" in2="BackgroundImageFix" mode="normal" result="shape"/><feColorMatrix in="SourceAlpha" result="hardAlpha" type="matrix" values="0 0 0 0 0 0 0 0 0 0 0 0 0 0 0 0 0 0 127 0"/><feOffset dx=".15" dy=".1"/><feGaussianBlur stdDeviation=".375"/><feComposite in2="hardAlpha" k2="-1" k3="1" operator="arithmetic"/><feColorMatrix type="matrix" values="0 0 0 0 0.278431 0 0 0 0 0.262745 0 0 0 0 0.423529 0 0 0 1 0"/><feBlend in2="shape" mode="normal" result="effect1_innerShadow_18_806"/></filter><radialGradient id="q" cx="0" cy="0" gradientTransform="matrix(1.9687546 .43750074 -.64583195 2.90624563 17.8275 11.3125)" gradientUnits="userSpaceOnUse" r="1"><stop offset="0" stop-color="#6c6772"/><stop offset="1" stop-color="#3c243b"/></radialGradient><radialGradient id="r" cx="0" cy="0" gradientTransform="matrix(1.46875189 -.42187645 .37285713 1.29809241 24.9531 11.7188)" gradientUnits="userSpaceOnUse" r="1"><stop offset="0" stop-color="#6e6975"/><stop offset="1" stop-color="#311742"/></radialGradient><radialGradient id="s" cx="0" cy="0" gradientTransform="matrix(2.40624941 .17187509 -.17187509 2.40624941 20.9219 9.56252)" gradientUnits="userSpaceOnUse" r="1"><stop offset="0" stop-color="#706878"/><stop offset="1" stop-color="#584e64"/></radialGradient><radialGradient id="t" cx="0" cy="0" gradientTransform="matrix(-.74218448 1.01562777 -.96685316 -.70654174 22.7969 6.4375)" gradientUnits="userSpaceOnUse" r="1"><stop offset="0" stop-color="#fdf57b"/><stop offset="1" stop-color="#f1ba51"/></radialGradient><linearGradient id="u"><stop offset="0" stop-color="#ce9658"/><stop offset="1" stop-color="#ce9658" stop-opacity="0"/></linearGradient><linearGradient id="v" gradientUnits="userSpaceOnUse" x1="21.8907" x2="22.0352" xlink:href="#u" y1="7.67187" y2="7.58984"/><linearGradient id="w" gradientUnits="userSpaceOnUse" x1="22.7032" x2="22.4766" xlink:href="#u" y1="7.84375" y2="7.71094"/><radialGradient id="x" cx="0" cy="0" gradientTransform="matrix(-.18850853 1.24999568 -1.67070847 -.25195511 20.8907 7.09377)" gradientUnits="userSpaceOnUse" r="1"><stop offset="0" stop-color="#fbe673"/><stop offset="1" stop-color="#e1a747"/></radialGradient><radialGradient id="y" cx="0" cy="0" gradientTransform="matrix(-.23560824 -.12746731 .29211764 -.5399449 21.3985 8.39064)" gradientUnits="userSpaceOnUse" r="1"><stop offset=".515511" stop-color="#cd8937"/><stop offset="1" stop-color="#cd8937" stop-opacity="0"/></radialGradient><linearGradient id="z" gradientUnits="userSpaceOnUse" x1="20.6172" x2="20.6485" y1="8.4654" y2="8.25002"><stop offset="0" stop-color="#ad7a41"/><stop offset="1" stop-color="#ad7a41" stop-opacity="0"/></linearGradient><radialGradient id="A" cx="0" cy="0" gradientTransform="matrix(-.78906237 .65625625 -.54878573 -.65984313 24.2812 7.37502)" gradientUnits="userSpaceOnUse" r="1"><stop offset="0" stop-color="#fbe878"/><stop offset="1" stop-color="#eaaf4a"/></radialGradient><radialGradient id="B" cx="0" cy="0" gradientTransform="matrix(-.82812183 1.06250627 -1.06250627 -.82812183 22.9531 8.31252)" gradientUnits="userSpaceOnUse" r="1"><stop offset="0" stop-color="#f9db78"/><stop offset="1" stop-color="#e5ab48"/></radialGradient><linearGradient id="C" gradientUnits="userSpaceOnUse" x1="17.5968" x2="25.5968" y1="24.9608" y2="24.9608"><stop offset="0" stop-color="#db4c66"/><stop offset="1" stop-color="#ec5d92"/></linearGradient><radialGradient id="D" cx="0" cy="0" gradientTransform="matrix(1.58178105 4.03103051 -7.4950058 2.94104897 18.5293 13.77)" gradientUnits="userSpaceOnUse" r="1"><stop offset="0" stop-color="#b55965"/><stop offset="1" stop-color="#b55965" stop-opacity="0"/></radialGradient><linearGradient id="E" gradientUnits="userSpaceOnUse" x1="16.0291" x2="18.8355" y1="23.873" y2="23.873"><stop offset="0" stop-color="#c36472"/><stop offset="1" stop-color="#c36472" stop-opacity="0"/></linearGradient><radialGradient id="F" cx="0" cy="0" gradientTransform="matrix(-2.52836074 1.27977123 -1.2033047 -2.37729078 22.0066 14.5469)" gradientUnits="userSpaceOnUse" r="1"><stop offset=".635724" stop-color="#ab3140"/><stop offset="1" stop-color="#ab3140" stop-opacity="0"/></radialGradient><linearGradient id="G" gradientUnits="userSpaceOnUse" x1="22.6563" x2="22.6563" y1="28.4063" y2="26.5938"><stop offset="0" stop-color="#ad2b62"/><stop offset="1" stop-color="#ad2b62" stop-opacity="0"/></linearGradient><linearGradient id="H" gradientUnits="userSpaceOnUse" x1="28.5938" x2="26.3438" y1="24.3438" y2="24.3438"><stop offset="0" stop-color="#d34f8a"/><stop offset="1" stop-color="#d34f8a" stop-opacity="0"/></linearGradient><linearGradient id="I" gradientUnits="userSpaceOnUse" x1="22.2242" x2="18.3064" y1="23.6863" y2="19.451"><stop offset="0" stop-color="#ab2e4d"/><stop offset="1" stop-color="#ab2e4d" stop-opacity="0"/></linearGradient><linearGradient id="J" gradientUnits="userSpaceOnUse" x1="22.2299" x2="22.2299" y1="17.47" y2="23.74"><stop offset="0" stop-color="#fbe46c"/><stop offset="1" stop-color="#f5c056"/></linearGradient><radialGradient id="K" cx="0" cy="0" gradientTransform="matrix(3.67428263 2.48000542 -3.1889876 4.72468392 18.5557 18.125)" gradientUnits="userSpaceOnUse" r="1"><stop offset="0" stop-color="#fbe774"/><stop offset="1" stop-color="#fbe774" stop-opacity="0"/></radialGradient><radialGradient id="L" cx="0" cy="0" gradientTransform="matrix(-2.34179333 1.81249111 -1.32236132 -1.70853082 25.9042 18.4375)" gradientUnits="userSpaceOnUse" r="1"><stop offset="0" stop-color="#fbe47a"/><stop offset="1" stop-color="#fbe47a" stop-opacity="0"/></radialGradient><linearGradient id="M" gradientUnits="userSpaceOnUse" x1="24.7536" x2="23.6164" y1="22.5491" y2="21.5098"><stop offset="0" stop-color="#ebac4c"/><stop offset="1" stop-color="#ebac4c" stop-opacity="0"/></linearGradient><linearGradient id="N" gradientUnits="userSpaceOnUse" x1="9.31251" x2="9.31251" y1="28" y2="26.9375"><stop offset="0" stop-color="#4347a5"/><stop offset="1" stop-color="#4347a5" stop-opacity="0"/></linearGradient><radialGradient id="O" cx="0" cy="0" gradientTransform="matrix(2.28124975 -1.65625119 1.35651395 1.86840447 10.6563 18.125)" gradientUnits="userSpaceOnUse" r="1"><stop offset="0" stop-color="#82d8fb"/><stop offset="1" stop-color="#82d8fb" stop-opacity="0"/></radialGradient><radialGradient id="P" cx="0" cy="0" gradientTransform="matrix(-.74999682 5.34374549 -1.70275119 -.23898181 10.9375 17.3438)" gradientUnits="userSpaceOnUse" r="1"><stop offset="0" stop-color="#fef67e"/><stop offset="1" stop-color="#ecca54"/></radialGradient><linearGradient id="Q" gradientUnits="userSpaceOnUse" x1="9.73005" x2="9.73005" y1="24.0313" y2="23.2813"><stop offset="0" stop-color="#dc9c49"/><stop offset="1" stop-color="#dc9c49" stop-opacity="0"/></linearGradient><linearGradient id="R" gradientUnits="userSpaceOnUse" x1="3.22942" x2="29.4523" y1="28.75" y2="28.75"><stop offset="0" stop-color="#ee9463"/><stop offset="1" stop-color="#bd7659"/></linearGradient><linearGradient id="S" gradientUnits="userSpaceOnUse" x1="16" x2="16" y1="27.75" y2="27.9296"><stop offset="0" stop-color="#b6674c"/><stop offset="1" stop-color="#b6674c" stop-opacity="0"/></linearGradient><linearGradient id="T"><stop offset=".00558659" stop-color="#fdf4d3"/><stop offset="1" stop-color="#edc6c0"/></linearGradient><radialGradient id="U" cx="0" cy="0" gradientTransform="matrix(0 4.46 -5.70418 0 23.173 12.05)" gradientUnits="userSpaceOnUse" r="1" xlink:href="#T"/><radialGradient id="V" cx="0" cy="0" gradientTransform="matrix(0 -1.625 1.71385 0 23.2784 12.1563)" gradientUnits="userSpaceOnUse" r="1"><stop offset="0" stop-color="#766c82"/><stop offset="1" stop-color="#4f3c62"/></radialGradient><linearGradient id="W" gradientUnits="userSpaceOnUse" x1="22.8582" x2="22.8582" y1="12.0977" y2="11.8906"><stop offset="0" stop-color="#46345d"/><stop offset="1" stop-color="#46345d" stop-opacity="0"/></linearGradient><radialGradient id="X" cx="0" cy="0" gradientTransform="matrix(2.56250025 .38249638 -.89798639 6.0159794 19.1251 10.3125)" gradientUnits="userSpaceOnUse" r="1"><stop offset="0" stop-color="#70687a"/><stop offset="1" stop-color="#70687a" stop-opacity="0"/></radialGradient><linearGradient id="Y" gradientUnits="userSpaceOnUse" x1="7.5" x2="12.0937" y1="8.41003" y2="8.41003"><stop offset="0" stop-color="#b3b2b4"/><stop offset="1" stop-color="#c7c7c8"/></linearGradient><linearGradient id="Z" gradientUnits="userSpaceOnUse" x1="9.79687" x2="9.79687" y1="9.10941" y2="8.56253"><stop offset="0" stop-color="#636071"/><stop offset="1" stop-color="#636071" stop-opacity="0"/></linearGradient><radialGradient id="aa" cx="0" cy="0" gradientTransform="matrix(0 1.20313 -.570713 0 9.20313 8.29691)" gradientUnits="userSpaceOnUse" r="1"><stop offset=".201299" stop-color="#76737f"/><stop offset="1" stop-color="#76737f" stop-opacity="0"/></radialGradient><linearGradient id="ab" gradientUnits="userSpaceOnUse" x1="7.375" x2="7.89063" y1="8.57816" y2="8.57816"><stop offset="0" stop-color="#a6a3aa"/><stop offset="1" stop-color="#a6a3aa" stop-opacity="0"/></linearGradient><radialGradient id="ac" cx="0" cy="0" gradientTransform="matrix(-.8125 0 0 -.853868 12.4219 8.41003)" gradientUnits="userSpaceOnUse" r="1"><stop offset="0" stop-color="#e9e6ed"/><stop offset="1" stop-color="#e9e6ed" stop-opacity="0"/></radialGradient><linearGradient id="ad" gradientUnits="userSpaceOnUse" x1="9.54688" x2="7.9375" y1="8.35156" y2="8.35156"><stop offset="0" stop-color="#e3e1e7"/><stop offset="1" stop-color="#e3e1e7" stop-opacity="0"/></linearGradient><radialGradient id="ae" cx="0" cy="0" gradientTransform="matrix(0 3.8225 -3.62625 0 10.6563 12.6875)" gradientUnits="userSpaceOnUse" r="1" xlink:href="#T"/><linearGradient id="af"><stop offset=".00558659" stop-color="#4c3f56"/><stop offset="1" stop-color="#321f43"/></linearGradient><linearGradient id="ag" gradientUnits="userSpaceOnUse" x1="8.60739" x2="8.60739" xlink:href="#af" y1="12.9355" y2="14.3439"/><linearGradient id="ah"><stop offset="0" stop-color="#695d77"/><stop offset="1" stop-color="#695d77" stop-opacity="0"/></linearGradient><radialGradient id="ai" cx="0" cy="0" gradientTransform="matrix(0 .886451 -.357204 0 8.75153 13.2921)" gradientUnits="userSpaceOnUse" r="1" xlink:href="#ah"/><linearGradient id="aj" gradientUnits="userSpaceOnUse" x1="10.8574" x2="10.8574" xlink:href="#af" y1="12.9355" y2="14.3439"/><radialGradient id="ak" cx="0" cy="0" gradientTransform="matrix(0 .886451 -.357204 0 11.0015 13.2921)" gradientUnits="userSpaceOnUse" r="1" xlink:href="#ah"/><linearGradient id="al" gradientUnits="userSpaceOnUse" x1="21.1374" x2="21.1374" xlink:href="#af" y1="12.9355" y2="14.3439"/><radialGradient id="am" cx="0" cy="0" gradientTransform="matrix(0 .886451 -.357204 0 21.2816 13.2921)" gradientUnits="userSpaceOnUse" r="1" xlink:href="#ah"/><linearGradient id="an" gradientUnits="userSpaceOnUse" x1="23.3874" x2="23.3874" xlink:href="#af" y1="12.9355" y2="14.3439"/><radialGradient id="ao" cx="0" cy="0" gradientTransform="matrix(0 .886451 -.357204 0 23.5316 13.2921)" gradientUnits="userSpaceOnUse" r="1" xlink:href="#ah"/><linearGradient id="ap" gradientUnits="userSpaceOnUse" x1="9.875" x2="9.875" y1="7.05516" y2="9.54688"><stop offset="0" stop-color="#8380b1"/><stop offset="1" stop-color="#726e9b"/></linearGradient><radialGradient id="aq" cx="0" cy="0" gradientTransform="matrix(0 -1.67689 2.22991 0 10.7484 11.696)" gradientUnits="userSpaceOnUse" r="1"><stop offset="0" stop-color="#7e78a4"/><stop offset="1" stop-color="#56517e"/></radialGradient><linearGradient id="ar" gradientUnits="userSpaceOnUse" x1="10.3282" x2="10.3282" y1="12.0977" y2="11.8907"><stop offset="0" stop-color="#4f4773"/><stop offset="1" stop-color="#4f4773" stop-opacity="0"/></linearGradient><circle cx="19.7963" cy="12.125" fill="url(#q)" r="1.96875"/><circle cx="24.7338" cy="12.125" fill="url(#r)" r="1.96875"/><path d="m22.26 12.07c.9996 0 1.81-.8104 1.81-1.81 0-.99962-.8104-1.80999-1.81-1.80999s-1.81.81037-1.81 1.80999c0 .9996.8104 1.81 1.81 1.81z" fill="url(#s)"/><path d="m22.47 7.85.43-.74c.28-.49-.07-1.11-.64-1.11s-.93.62-.64 1.11l.43.74c.09.17.33.17.42 0z" fill="url(#t)"/><path d="m22.47 7.85.43-.74c.28-.49-.07-1.11-.64-1.11s-.93.62-.64 1.11l.43.74c.09.17.33.17.42 0z" fill="url(#v)"/><path d="m22.47 7.85.43-.74c.28-.49-.07-1.11-.64-1.11s-.93.62-.64 1.11l.43.74c.09.17.33.17.42 0z" fill="url(#w)"/><g filter="url(#a)"><path d="m21.57 8.13002-.33-.79c-.22-.53-.93-.61-1.28-.16-.34.46-.06 1.11.5 1.18l.85.1c.19.04.34-.15.26-.33z" fill="url(#x)"/><path d="m21.57 8.13002-.33-.79c-.22-.53-.93-.61-1.28-.16-.34.46-.06 1.11.5 1.18l.85.1c.19.04.34-.15.26-.33z" fill="url(#y)"/><path d="m21.57 8.13002-.33-.79c-.22-.53-.93-.61-1.28-.16-.34.46-.06 1.11.5 1.18l.85.1c.19.04.34-.15.26-.33z" fill="url(#z)"/></g><g filter="url(#b)"><path d="m22.94 8.13002.33-.79c.22-.53.93-.61 1.28-.16.34.46.06 1.11-.5 1.18l-.85.1c-.19.04-.33-.15-.26-.33z" fill="url(#A)"/></g><path d="m22.26 10c.6241 0 1.13-.5059 1.13-1.12998s-.5059-1.13-1.13-1.13-1.13.50592-1.13 1.13.5059 1.12998 1.13 1.12998z" fill="url(#B)"/><path d="m22.83 13.77h-1.13c-2.85 0-5.16 2.31-5.16 5.16v7.76c0 .58.47 1.06 1.06 1.06h9.33c.58 0 1.06-.47 1.06-1.06v-7.76c0-2.85-2.31-5.16-5.16-5.16z" fill="url(#C)"/><path d="m22.83 13.77h-1.13c-2.85 0-5.16 2.31-5.16 5.16v7.76c0 .58.47 1.06 1.06 1.06h9.33c.58 0 1.06-.47 1.06-1.06v-7.76c0-2.85-2.31-5.16-5.16-5.16z" fill="url(#D)"/><path d="m22.83 13.77h-1.13c-2.85 0-5.16 2.31-5.16 5.16v7.76c0 .58.47 1.06 1.06 1.06h9.33c.58 0 1.06-.47 1.06-1.06v-7.76c0-2.85-2.31-5.16-5.16-5.16z" fill="url(#E)"/><path d="m22.83 13.77h-1.13c-2.85 0-5.16 2.31-5.16 5.16v7.76c0 .58.47 1.06 1.06 1.06h9.33c.58 0 1.06-.47 1.06-1.06v-7.76c0-2.85-2.31-5.16-5.16-5.16z" fill="url(#F)"/><path d="m22.83 13.77h-1.13c-2.85 0-5.16 2.31-5.16 5.16v7.76c0 .58.47 1.06 1.06 1.06h9.33c.58 0 1.06-.47 1.06-1.06v-7.76c0-2.85-2.31-5.16-5.16-5.16z" fill="url(#G)"/><path d="m22.83 13.77h-1.13c-2.85 0-5.16 2.31-5.16 5.16v7.76c0 .58.47 1.06 1.06 1.06h9.33c.58 0 1.06-.47 1.06-1.06v-7.76c0-2.85-2.31-5.16-5.16-5.16z" fill="url(#H)"/><g filter="url(#c)"><path d="m22.4907 23.7468 2.59-2.65c1.24-1.27.34-3.41-1.44-3.41h-3.32c-1.78 0-2.68 2.14-1.44 3.41l2.59 2.65c.29.28.75.28 1.02 0z" fill="url(#I)"/></g><path d="m22.7399 23.53 2.59-2.65c1.24-1.27.34-3.41-1.44-3.41h-3.32c-1.78 0-2.68 2.14-1.44 3.41l2.59 2.65c.29.28.75.28 1.02 0z" fill="url(#J)"/><path d="m22.7399 23.53 2.59-2.65c1.24-1.27.34-3.41-1.44-3.41h-3.32c-1.78 0-2.68 2.14-1.44 3.41l2.59 2.65c.29.28.75.28 1.02 0z" fill="url(#K)"/><path d="m22.7399 23.53 2.59-2.65c1.24-1.27.34-3.41-1.44-3.41h-3.32c-1.78 0-2.68 2.14-1.44 3.41l2.59 2.65c.29.28.75.28 1.02 0z" fill="url(#L)"/><path d="m22.7399 23.53 2.59-2.65c1.24-1.27.34-3.41-1.44-3.41h-3.32c-1.78 0-2.68 2.14-1.44 3.41l2.59 2.65c.29.28.75.28 1.02 0z" fill="url(#M)"/><g filter="url(#d)"><path d="m10.3 13.77h-1.12999c-2.85 0-5.16 2.31-5.16 5.16v7.76c0 .58.47 1.06 1.06 1.06h9.32999c.58 0 1.06-.47 1.06-1.06v-7.76c0-2.85-2.31-5.16-5.16-5.16z" fill="#7ed2fb"/></g><path d="m10.3 13.77h-1.12999c-2.85 0-5.16 2.31-5.16 5.16v7.76c0 .58.47 1.06 1.06 1.06h9.32999c.58 0 1.06-.47 1.06-1.06v-7.76c0-2.85-2.31-5.16-5.16-5.16z" fill="url(#N)"/><path d="m10.3 13.77h-1.12999c-2.85 0-5.16 2.31-5.16 5.16v7.76c0 .58.47 1.06 1.06 1.06h9.32999c.58 0 1.06-.47 1.06-1.06v-7.76c0-2.85-2.31-5.16-5.16-5.16z" fill="url(#O)"/><g filter="url(#e)"><path d="m9.0913 17.778h.9648c.2316 0 .4149.2026.3956.4342l-.48242 5.3354c-.0193.2026-.19296.3569-.39557.3569s-.37628-.1543-.39557-.3569l-.48241-5.3354c-.01929-.2316.16402-.4342.39557-.4342z" fill="#4e8db3"/></g><g filter="url(#f)"><path d="m9.23005 17.51h.99995c.24 0 .4301.21.4101.45l-.5 5.53c-.02.21-.20005.37-.41005.37s-.39-.16-.41-.37l-.5-5.53c-.02-.24.17-.45.41-.45z" fill="url(#P)"/><path d="m9.23005 17.51h.99995c.24 0 .4301.21.4101.45l-.5 5.53c-.02.21-.20005.37-.41005.37s-.39-.16-.41-.37l-.5-5.53c-.02-.24.17-.45.41-.45z" fill="url(#Q)"/></g><g filter="url(#g)"><path d="m29 27.75h-26c-.55 0-1 .45-1 1s.45 1 1 1h26c.55 0 1-.45 1-1s-.45-1-1-1z" fill="url(#R)"/></g><path d="m29 27.75h-26c-.55 0-1 .45-1 1s.45 1 1 1h26c.55 0 1-.45 1-1s-.45-1-1-1z" fill="url(#S)"/><g filter="url(#h)"><path d="m19.55 13.81c0 1.49 1.21 2.7 2.7 2.7s2.7-1.21 2.7-2.7v-1.76h-5.41v1.76z" fill="url(#U)"/></g><g filter="url(#i)"><path d="m24.9601 12.05c0-1.5-1.21-2.70997-2.7-2.70997s-2.7 1.20997-2.7 2.69997v.01z" fill="url(#V)"/><path d="m24.9601 12.05c0-1.5-1.21-2.70997-2.7-2.70997s-2.7 1.20997-2.7 2.69997v.01z" fill="url(#W)"/><path d="m24.9601 12.05c0-1.5-1.21-2.70997-2.7-2.70997s-2.7 1.20997-2.7 2.69997v.01z" fill="url(#X)"/></g><g clip-rule="evenodd" fill-rule="evenodd"><path d="m7.5 8.41003c0-.27614.22386-.5.5-.5h3.5938c.2761 0 .5.22386.5.5 0 .27615-.2239.5-.5.5h-3.5938c-.27614 0-.5-.22385-.5-.5z" fill="url(#Y)"/><path d="m7.5 8.41003c0-.27614.22386-.5.5-.5h3.5938c.2761 0 .5.22386.5.5 0 .27615-.2239.5-.5.5h-3.5938c-.27614 0-.5-.22385-.5-.5z" fill="url(#Z)"/><path d="m7.5 8.41003c0-.27614.22386-.5.5-.5h3.5938c.2761 0 .5.22386.5.5 0 .27615-.2239.5-.5.5h-3.5938c-.27614 0-.5-.22385-.5-.5z" fill="url(#aa)"/><path d="m7.5 8.41003c0-.27614.22386-.5.5-.5h3.5938c.2761 0 .5.22386.5.5 0 .27615-.2239.5-.5.5h-3.5938c-.27614 0-.5-.22385-.5-.5z" fill="url(#ab)"/><path d="m7.5 8.41003c0-.27614.22386-.5.5-.5h3.5938c.2761 0 .5.22386.5.5 0 .27615-.2239.5-.5.5h-3.5938c-.27614 0-.5-.22385-.5-.5z" fill="url(#ac)"/></g><g filter="url(#j)"><path d="m9.5625 8.39844 2.1719-.04688" stroke="url(#ad)" stroke-linecap="round" stroke-width=".25"/></g><g filter="url(#k)"><path d="m9.73003 9.34003c-1.49 0-2.7 1.20997-2.7 2.69997v1.77c0 1.49 1.21 2.7 2.7 2.7 1.48997 0 2.69997-1.21 2.69997-2.7v-1.77c.01-1.49-1.2-2.69997-2.69997-2.69997z" fill="url(#ae)"/></g><g filter="url(#l)"><path d="m8.53833 14.3803c-.28 0-.5-.2092-.5-.4755v-.3805c0-.2663.22-.4755.5-.4755s.5.2092.5.4755v.39c0 .2568-.23.466-.5.466z" fill="#caab9f"/></g><path d="m8.60999 14.34c-.28 0-.5-.22-.5-.5v-.4c0-.28.22-.5.5-.5s.5.22.5.5v.41c0 .27-.23.49-.5.49z" fill="url(#ag)"/><path d="m8.60999 14.34c-.28 0-.5-.22-.5-.5v-.4c0-.28.22-.5.5-.5s.5.22.5.5v.41c0 .27-.23.49-.5.49z" fill="url(#ai)"/><g filter="url(#m)"><path d="m10.7784 14.3803c-.28 0-.5-.2092-.5-.4755v-.3805c0-.2663.22-.4755.5-.4755s.5.2092.5.4755v.39c0 .2568-.23.466-.5.466z" fill="#d3aea3"/></g><path d="m10.86 14.34c-.28 0-.5-.22-.5-.5v-.4c0-.28.22-.5.5-.5s.5.22.5.5v.41c0 .27-.23.49-.5.49z" fill="url(#aj)"/><path d="m10.86 14.34c-.28 0-.5-.22-.5-.5v-.4c0-.28.22-.5.5-.5s.5.22.5.5v.41c0 .27-.23.49-.5.49z" fill="url(#ak)"/><path d="m21.14 14.34c-.28 0-.5-.22-.5-.5v-.4c0-.28.22-.5.5-.5s.5.22.5.5v.41c0 .27-.22.49-.5.49z" fill="url(#al)"/><path d="m21.14 14.34c-.28 0-.5-.22-.5-.5v-.4c0-.28.22-.5.5-.5s.5.22.5.5v.41c0 .27-.22.49-.5.49z" fill="url(#am)"/><path d="m23.39 14.34c-.28 0-.5-.22-.5-.5v-.4c0-.28.22-.5.5-.5s.5.22.5.5v.41c0 .27-.22.49-.5.49z" fill="url(#an)"/><path d="m23.39 14.34c-.28 0-.5-.22-.5-.5v-.4c0-.28.22-.5.5-.5s.5.22.5.5v.41c0 .27-.22.49-.5.49z" fill="url(#ao)"/><g filter="url(#n)"><rect fill="#5f5a94" height="4.50713" rx=".642214" width="1.28443" x="9.08777" y="6.33252"/></g><g filter="url(#o)"><path d="m9.875 6.79688v3.0625" stroke="url(#ap)" stroke-linecap="round" stroke-width=".25"/></g><g filter="url(#p)"><path d="m12.43 12.05h-5.39997v-.01c0-1.49 1.21001-2.69997 2.7-2.69997 1.49997 0 2.70997 1.20997 2.69997 2.69997z" fill="url(#aq)"/><path d="m12.43 12.05h-5.39997v-.01c0-1.49 1.21001-2.69997 2.7-2.69997 1.49997 0 2.70997 1.20997 2.69997 2.69997z" fill="url(#ar)"/></g></svg>