<svg fill="none" height="32" viewBox="0 0 32 32" width="32" xmlns="http://www.w3.org/2000/svg" xmlns:xlink="http://www.w3.org/1999/xlink"><filter id="a" color-interpolation-filters="sRGB" filterUnits="userSpaceOnUse" height="7.91992" width="28.36" x="2.08859" y="18.5801"><feFlood flood-opacity="0" result="BackgroundImageFix"/><feBlend in="SourceGraphic" in2="BackgroundImageFix" mode="normal" result="shape"/><feColorMatrix in="SourceAlpha" result="hardAlpha" type="matrix" values="0 0 0 0 0 0 0 0 0 0 0 0 0 0 0 0 0 0 127 0"/><feOffset dx=".5" dy="-.5"/><feGaussianBlur stdDeviation=".5"/><feComposite in2="hardAlpha" k2="-1" k3="1" operator="arithmetic"/><feColorMatrix type="matrix" values="0 0 0 0 0.643137 0 0 0 0 0.301961 0 0 0 0 0.254902 0 0 0 1 0"/><feBlend in2="shape" mode="normal" result="effect1_innerShadow_18_12167"/></filter><filter id="b" color-interpolation-filters="sRGB" filterUnits="userSpaceOnUse" height="8.83872" width="8.78007" x="5.14733" y="21.2744"><feFlood flood-opacity="0" result="BackgroundImageFix"/><feBlend in="SourceGraphic" in2="BackgroundImageFix" mode="normal" result="shape"/><feColorMatrix in="SourceAlpha" result="hardAlpha" type="matrix" values="0 0 0 0 0 0 0 0 0 0 0 0 0 0 0 0 0 0 127 0"/><feOffset dx="-.15" dy=".15"/><feGaussianBlur stdDeviation=".125"/><feComposite in2="hardAlpha" k2="-1" k3="1" operator="arithmetic"/><feColorMatrix type="matrix" values="0 0 0 0 1 0 0 0 0 0.941176 0 0 0 0 0.643137 0 0 0 1 0"/><feBlend in2="shape" mode="normal" result="effect1_innerShadow_18_12167"/></filter><filter id="c" color-interpolation-filters="sRGB" filterUnits="userSpaceOnUse" height="2.13486" width="2.1439" x="24.0209" y="8.85"><feFlood flood-opacity="0" result="BackgroundImageFix"/><feBlend in="SourceGraphic" in2="BackgroundImageFix" mode="normal" result="shape"/><feColorMatrix in="SourceAlpha" result="hardAlpha" type="matrix" values="0 0 0 0 0 0 0 0 0 0 0 0 0 0 0 0 0 0 127 0"/><feOffset dx=".15" dy="-.15"/><feGaussianBlur stdDeviation=".125"/><feComposite in2="hardAlpha" k2="-1" k3="1" operator="arithmetic"/><feColorMatrix type="matrix" values="0 0 0 0 0.901961 0 0 0 0 0.560784 0 0 0 0 0.372549 0 0 0 1 0"/><feBlend in2="shape" mode="normal" result="effect1_innerShadow_18_12167"/></filter><filter id="d" color-interpolation-filters="sRGB" filterUnits="userSpaceOnUse" height="7.6" width="28.6" x="1.34858" y="23"><feFlood flood-opacity="0" result="BackgroundImageFix"/><feBlend in="SourceGraphic" in2="BackgroundImageFix" mode="normal" result="shape"/><feColorMatrix in="SourceAlpha" result="hardAlpha" type="matrix" values="0 0 0 0 0 0 0 0 0 0 0 0 0 0 0 0 0 0 127 0"/><feOffset dx="-.6" dy=".6"/><feGaussianBlur stdDeviation=".3"/><feComposite in2="hardAlpha" k2="-1" k3="1" operator="arithmetic"/><feColorMatrix type="matrix" values="0 0 0 0 0.384314 0 0 0 0 0.67451 0 0 0 0 0.996078 0 0 0 1 0"/><feBlend in2="shape" mode="normal" result="effect1_innerShadow_18_12167"/><feColorMatrix in="SourceAlpha" result="hardAlpha" type="matrix" values="0 0 0 0 0 0 0 0 0 0 0 0 0 0 0 0 0 0 127 0"/><feOffset dy=".4"/><feGaussianBlur stdDeviation=".2"/><feComposite in2="hardAlpha" k2="-1" k3="1" operator="arithmetic"/><feColorMatrix type="matrix" values="0 0 0 0 0.305882 0 0 0 0 0.556863 0 0 0 0 0.882353 0 0 0 1 0"/><feBlend in2="effect1_innerShadow_18_12167" mode="normal" result="effect2_innerShadow_18_12167"/></filter><linearGradient id="e" gradientUnits="userSpaceOnUse" x1="15.5186" x2="15.5186" y1="19.0801" y2="26.5001"><stop offset="0" stop-color="#ff9053"/><stop offset="1" stop-color="#fc6d4e"/></linearGradient><radialGradient id="f" cx="0" cy="0" gradientTransform="matrix(24.93752168 -.06250086 .23467297 93.63330592 4.69107 19.8751)" gradientUnits="userSpaceOnUse" r="1"><stop offset=".946098" stop-color="#ffaa62" stop-opacity="0"/><stop offset="1" stop-color="#ffaa62"/></radialGradient><linearGradient id="g"><stop offset=".128033" stop-color="#ca653a"/><stop offset="1" stop-color="#ca653a" stop-opacity="0"/></linearGradient><radialGradient id="h" cx="0" cy="0" gradientTransform="matrix(-3.75484659 3.35592337 -.6558324 -.73379209 15.0055 19.8397)" gradientUnits="userSpaceOnUse" r="1" xlink:href="#g"/><radialGradient id="i" cx="0" cy="0" gradientTransform="matrix(-2.22945552 1.85395529 -.36230961 -.43569183 10.0538 22.6089)" gradientUnits="userSpaceOnUse" r="1" xlink:href="#g"/><linearGradient id="j" gradientUnits="userSpaceOnUse" x1="16.015" x2="16.015" y1="17.8751" y2="19.8546"><stop offset="0" stop-color="#6e5187"/><stop offset="1" stop-color="#3f3c42"/></linearGradient><linearGradient id="k" gradientUnits="userSpaceOnUse" x1="13.4878" x2="8.80936" y1="22.3144" y2="27.0383"><stop offset="0" stop-color="#ffd18e"/><stop offset="1" stop-color="#cd8833"/><stop offset="1" stop-color="#efba7a"/></linearGradient><linearGradient id="l" gradientUnits="userSpaceOnUse" x1="24.5233" x2="25.0179" y1="9.14911" y2="11.3202"><stop offset="0" stop-color="#ffa661"/><stop offset="1" stop-color="#ff9b56"/></linearGradient><radialGradient id="m" cx="0" cy="0" gradientTransform="matrix(.48391135 .48391135 -12.2600295 12.2600295 17.8472 17.2699)" gradientUnits="userSpaceOnUse" r="1"><stop offset="0" stop-color="#ffcd8c"/><stop offset="1" stop-color="#fe9c57"/></radialGradient><linearGradient id="n" gradientUnits="userSpaceOnUse" x1="18.7918" x2="18.7918" y1="30" y2="24.3429"><stop offset="0" stop-color="#51adff"/><stop offset="1" stop-color="#539dfa"/></linearGradient><g filter="url(#a)"><path d="m2.08859 19.0801c.38 4.15 4.22 7.42 8.94001 7.42h9.98c4.71 0 8.56-3.27 8.94-7.42-8.97 1-18.9 1-27.86001 0z" fill="url(#e)"/><path d="m2.08859 19.0801c.38 4.15 4.22 7.42 8.94001 7.42h9.98c4.71 0 8.56-3.27 8.94-7.42-8.97 1-18.9 1-27.86001 0z" fill="url(#f)"/><path d="m2.08859 19.0801c.38 4.15 4.22 7.42 8.94001 7.42h9.98c4.71 0 8.56-3.27 8.94-7.42-8.97 1-18.9 1-27.86001 0z" fill="url(#h)"/><path d="m2.08859 19.0801c.38 4.15 4.22 7.42 8.94001 7.42h9.98c4.71 0 8.56-3.27 8.94-7.42-8.97 1-18.9 1-27.86001 0z" fill="url(#i)"/></g><path d="m30 18.4446c0-.46-.39-.82-.89-.88-.07 0-.14-.02-.22-.01-1.52.16-3.07.28-4.64.38-5.43.35-11.05.35-16.48 0-1.56-.1-3.12-.22-4.64-.38-.08-.01-.15.01-.22.01-.49.05-.88.42-.88.88 0 .1.01.19.02.29.01.13.02.25.04.37 8.96 1 18.89 1 27.85 0 .01-.12.03-.25.04-.37.01-.09.02-.19.02-.29z" fill="url(#j)"/><g filter="url(#b)"><path d="m8.43859 29.6632 4.91001-4.98c.78-.79.77-2.05-.02-2.83s-2.05-.77-2.83.02l-4.91001 4.98c-.39.4-.38999 1.03.01001 1.42l1.41999 1.39c.39.4 1.03.4 1.42 0z" fill="url(#k)"/></g><g filter="url(#c)"><path d="m24.8686 9.13316 1.01.99004c.25.24.14.67-.2.76l-.22.06c-.84.23-1.62-.53-1.4-1.38004l.06-.22c.08-.34.5-.46.75-.21z" fill="url(#l)"/></g><path d="m25.5586 9.93336c0-.27-.22-.49-.49-.49-.13 0-.25.05-.34.14l-14.44 14.66004c-.1.09-.16.22-.16.36 0 .27.23.49.5.49.14 0 .27-.07.36-.16l14.43-14.65c.09-.1.14-.22.14-.35004z" fill="url(#m)"/><g filter="url(#d)"><path d="m29.9486 23c-1.7494 0-1.5582.9593-3.3176.9593-1.7494 0-1.8479-.9593-3.6073-.9593-1.7493 0-1.7767.9593-3.526.9593-1.7494 0-1.9507-.9593-3.7001-.9593-1.6123 0-2.0203.9593-3.7697.9593-1.7493 0-1.8115-.9593-3.56083-.9593-1.74937 0-1.98388.9593-3.72326.9593-1.43826 0-1.77463-.9593-2.79523-.9593v7h27.99002z" fill="url(#n)"/></g></svg>