<svg enable-background="new 0 0 128 128" viewBox="0 0 32 32" xmlns="http://www.w3.org/2000/svg"><path d="m12.9914 26.1681c0-.1444-.1171-.2614-.2614-.2614-.1444 0-.2614.117-.2614.2614v2.39c0 .1443.117.2614.2614.2614.1443 0 .2614-.1171.2614-.2614z" fill="#635994"/><path d="m24.7514 26.1681c0-.1444-.1171-.2614-.2614-.2614-.1444 0-.2614.117-.2614.2614v2.39c0 .1443.117.2614.2614.2614.1443 0 .2614-.1171.2614-.2614z" fill="#635994"/><path d="m24.4272 5.4095c.0284-.17516-.0906-.34018-.2657-.36857-.1752-.02839-.3402.09059-.3686.26575l-.65 4.01c-.0284.17517.0906.34018.2657.36857.1752.0284.3402-.09058.3686-.26575z" fill="#321b41"/><path d="m6.14165 23.7197c-.1593-.0782-.35181-.0124-.43.1469-.07818.1592-.01243.3518.14687.4299l3.81 1.87c.04406.0217.09248.0329.14156.0329h1.61002c.1774 0 .3213-.1438.3213-.3213 0-.1774-.1439-.3213-.3213-.3213h-1.53542l-.34116-.1674-1.20368-1.2605-2.03003-.3267z" fill="#321b41"/><g fill="#ca0b4a"><path d="m21.04 20.9181v1.02l-2.4772.518-2.5328-.518v-1.02l2.5328-.6397z"/><path d="m11.18 25.2181 3.49-1.95v3.38h-3.11c-.42 0-.77-.34-.77-.77 0-.27.15-.52.39-.66z"/><path d="m26.04 25.2181-3.49-1.95v3.38h3.11c.42 0 .77-.34.77-.77 0-.27-.15-.52-.39-.66z"/></g><path d="m21.97 21.938h-6.83c-.73 0-1.28.66-1.15 1.38l.61 3.43c.08.45.48.78.94.78h6.16c.47 0 .87-.35.94-.82l.49-3.44c.1-.7-.45-1.33-1.16-1.33z" fill="#f92f60"/><path d="m18.53 24.9181c-1.41 0-2.56 1.15-2.56 2.56s1.15 2.56 2.56 2.56 2.56-1.15 2.56-2.56c0-1.42-1.14-2.56-2.56-2.56z" fill="#9b9b9b"/><path d="m23 28.5381c0 .82.67 1.49 1.49 1.49s1.49-.67 1.49-1.49-.67-1.49-1.49-1.49-1.49.67-1.49 1.49z" fill="#9b9b9b"/><path d="m11.24 28.5381c0-.82.67-1.49 1.49-1.49s1.49.67 1.49 1.49-.67 1.49-1.49 1.49-1.49-.67-1.49-1.49z" fill="#9b9b9b"/><path d="m18.53 28.9781c.8285 0 1.5-.6715 1.5-1.5 0-.8284-.6715-1.5-1.5-1.5-.8284 0-1.5.6716-1.5 1.5 0 .8285.6716 1.5 1.5 1.5z" fill="#d3d3d3"/><path d="m24.4901 29.4181c.486 0 .88-.394.88-.88s-.394-.88-.88-.88-.88.394-.88.88.394.88.88.88z" fill="#d3d3d3"/><path d="m13.6101 28.5381c0 .486-.394.88-.88.88s-.88-.394-.88-.88.394-.88.88-.88.88.394.88.88z" fill="#d3d3d3"/><path d="m18.5299 28.0781c.3314 0 .6-.2687.6-.6 0-.3314-.2686-.6-.6-.6-.3313 0-.6.2686-.6.6 0 .3313.2687.6.6.6z" fill="#1c1c1c"/><path d="m24.49 29.0181c.2651 0 .48-.2149.48-.48s-.2149-.48-.48-.48-.48.2149-.48.48.2149.48.48.48z" fill="#1c1c1c"/><path d="m13.21 28.5381c0 .2651-.2149.48-.48.48s-.48-.2149-.48-.48.2149-.48.48-.48.48.2149.48.48z" fill="#1c1c1c"/><path d="m21.0498 6.85803.05 1.96-2 .06-.03-1.98z" fill="#8b5c56"/><path d="m9.30005 22.9681 1.14995-5.88c.21-1.05.77-1.44 1.51-1.49l4.45-.44h4.64s.78 3-.37 3l-7.42.01c-.22 0-.43.13-.51.34l-2.38 5.68-1.01921-.2397z" fill="#9b9b9b"/><path d="m20.31 8.49806c-1.25-.21-2.44.64-2.65 1.89004l-1.16 4.78 4.08 3 1.62-7.02c.21-1.26004-.64-2.44004-1.89-2.65004z" fill="#ff6723"/><path d="m15.4099 15.0481h-.52v1.1h.52z" fill="#321b41"/><path d="m15.15 15.298c.3314 0 .6-.2686.6-.6 0-.3313-.2686-.6-.6-.6-.3313 0-.6.2687-.6.6 0 .3314.2687.6.6.6z" fill="#433b6b"/><path d="m14.0299 13.568c-.16.06-.23.24-.18.4l.7009-.2219.3591-.5581z" fill="#764c49"/><path d="m21.39 10.1481-.21 3.72c-.03.49-.43.88-.91.9l-4.22.04c-.29 0-.57-.04-.84-.13l-.13-.04-.58.25c-.15.06-.33.02-.42-.12-.03-.05-.05-.1-.05-.15-.16.07-.36-.01-.43-.18s.01-.36.18-.43l.07-.04 1.0594-.7798c.26-.12 1.1106-.2102 1.2706-.2102l3.08-.08c.05 0 .1-.05.1-.1l.16-2.76c.03-.51002.47-.91002.99-.88002.51.03.91.47.88.99002z" fill="#966661"/><path d="m21.31 12.588c.09.01.17-.07.18-.16l.11-2.43997c.03-.67-.49-1.24-1.16-1.27s-1.24.49-1.27 1.16l-.11 2.33997c-.01.13.09.23.22.24.54.04 1.44.09 2.03.13z" fill="#ff8101"/><path d="m10.3699 24.188-.54001 1.1c-.06.11-.19.16-.3.1l-3.19-1.57c-.29-.14-.22-.57.1-.62l2.87-.23z" fill="#533566"/><path d="m18.7599 7.90802c.69.1 1.84-.1 2.27-.88l.45-1.07.49-1.12c.12-.85-.48-1.63-1.33-1.75l-1.01-.14c-.85-.12-1.63.48-1.75 1.33l-.0808.5994c-.1822.25259-.3287.38041-.4327.47115-.1008.08804-.1617.14117-.1765.23951-.02.2.17.39.37.42.0383.00574.0671.00415.0887-.00357-.1174 1.00073-.0625 1.747 1.1113 1.90351z" fill="#966661"/><path d="m18.1499 5.21806c-.06-.01-.1-.07-.09-.14v-.01c.04-.28.31-.41.54-.38s.46.22.42.51v.01c-.01.07-.07.12-.13.11z" fill="#fff"/><path d="m18.06 5.20799c-.01-.04-.01-.09 0-.13.03-.21.18-.35.34-.33s.27.21.24.41c-.01.05-.02.09-.04.13z" fill="#7d4533"/><path d="m18.1599 5.21805c-.02-.04-.03-.09-.02-.14.02-.12.1-.2.2-.19.09.01.15.12.14.24-.01.05-.03.09-.06.13z"/><path d="m18.2831 4.95757c.0053-.0383-.0171-.07298-.05-.07745-.0328-.00448-.0636.02295-.0689.06125-.0052.03831.0172.07298.05.07746.0329.00447.0637-.02295.0689-.06126z" fill="#fff"/><path d="m18.6049 6.20395c.052.02484.074.08709.0491.13903-.1363.28502-.4802.39241-.759.25907-.052-.02484-.0739-.08709-.0491-.13903.0249-.05194.0871-.07391.139-.04907.1812.08666.3973.01405.481-.16093.0249-.05194.0871-.07391.139-.04907z" fill="#990838"/><path d="m19.04 4.55066c-.0145-.00008-.0289-.00303-.0423-.0087-.0134-.00566-.0255-.01392-.0357-.0243-.1606-.13697-.3639-.21371-.575-.217-.0145-.00039-.0289-.00365-.0422-.00959s-.0254-.01445-.0354-.02503c-.01-.01059-.0179-.02305-.0231-.03667s-.0077-.02814-.0073-.04271c-.0015-.01513.0005-.03042.0057-.04468.0053-.01427.0137-.02715.0247-.03766s.0243-.01837.0388-.02299c.0144-.00462.0298-.00588.0448-.00367.2683.00359.5261.10411.726.283.0206.02094.0322.04913.0322.0785 0 .02936-.0116.05755-.0322.0785-.0103.01045-.0226.01875-.0362.02442-.0135.00566-.0281.00858-.0428.00858z" fill="#372128"/><path d="m19.951 4.35229c.0147-.11713-.0183-.22949-.0839-.31733-.1374-.04948-.3015-.09001-.4973-.11691-.2768-.03742-.5002-.09163-.6781-.16171l-.7807-.09405c-.02-.01-.03-.01-.04-.01-.36-.07-.61-.41-.58-.77.03-.42.41-.73.82-.68.12.01.24-.04.32-.13.16-.18.41-.28.67-.25.1.01.2.04.29.08.24.13.52.16.78.09.1-.02.2-.03.31-.02.13.02.26.07.36.14.15.11.33.17.51.18.11.01.21.03.32.06.0221.00675.0437.01402.0649.0218.7206.20107 1.3083.74124 1.1639 1.82396-.31 2.27-1.13 2.17-1.13 2.17.64.09.45.91-.03.84-.0362-.00375-.078-.00562-.1233-.00765-.3172-.01422-.8029-.036-.7067-.76235.0061-.04426.0115-.08726.0164-.12903-.1418-.06506-.2765-.17657-.3399-.32129.1743-.09284.305-.26657.3355-.4737.0431-.29352-.1298-.57214-.4031-.675-.0453-.04113-.1029-.06912-.1677-.07674l-.1-.01c-.19-.03-.33-.21-.3-.4z" fill="#2d242d"/><path d="m22.6799 5.38809.24-1.49c.11-.71.72-1.23 1.44-1.23.9 0 1.58.8 1.44 1.68l-.24 1.49c-.12.71-.72 1.23-1.44 1.23-.9 0-1.58-.8-1.44-1.68z" fill="#433b6b"/><path d="m23.4501 8.02808c-.72 0-1.32.52-1.44 1.23l-1.4304 8.90002h-4.2672l-1.0977-.7909-1.2304.7909h-.7344c-.29 0-.52.23-.52.52v1.73c0 .29.23.52.52.52h10.8c.29 0 .52-.23.52-.52v-1.73c0-.28-.23-.52-.52-.52h-.5203l.2661-1.6509-.4312-.8652.707-.8457.8185-5.07822c.14-.89-.55-1.69-1.44-1.69z" fill="#433b6b"/><path d="m15.1501 17.5781c.4639 0 .84-.3761.84-.84s-.3761-.84-.84-.84c-.464 0-.84.3761-.84.84s.376.84.84.84z" fill="#f92f60"/><path d="m17.85 14.7881h6.2159l-.2659 1.74h-5.95c-.48 0-.87-.39-.87-.87s.39-.87.87-.87z" fill="#635994"/><path d="m14.33 16.748h1.64c.19 0 .35.15.35.35v1.06h-2.34v-1.06c0-.19.16-.35.35-.35z" fill="#635994"/><path d="m22.5401 16.068c.2375 0 .43-.1925.43-.43s-.1925-.43-.43-.43-.43.1925-.43.43.1925.43.43.43z" fill="#321b41"/></svg>