<svg fill="none" height="32" viewBox="0 0 32 32" width="32" xmlns="http://www.w3.org/2000/svg"><path d="m23.49 10.9543c0 .5197-.1101.9993-.3202 1.429-.0701.14-.0601.3098.01.4597.2001.4298.3202.9094.3202 1.4091 0 1.7688-1.441 3.2079-3.2121 3.2079h-8.5758c-1.77114 0-3.2121-1.4391-3.2121-3.2079 0-.5097.11007-.9893.32021-1.4091.07005-.1499.07005-.3197 0-.4597-.20013-.4397-.32021-.9193-.32021-1.429 0-.6696.20013-1.28914.54036-1.81879.35023-.52965.86057-1.13924.86057-1.76882v-.00999c0-1.81879 1.14077-3.28781 2.96197-3.28781.1801 0 .3502-.07995.4503-.22985.6004-.83944 1.5811-1.37908 2.6818-1.37908 1.1107 0 2.0814.54963 2.6818 1.37908.1001.1499.2702.22985.4503.22985 1.8112 0 2.972 1.46902 2.972 3.28781v.00999c-.01.62958.4903 1.24917.8405 1.76882.3503.51965.5504 1.14919.5504 1.81879z" fill="#593b39"/><path d="m8.99996 18.0145c1.90254-1.5711 4.34204-2.5145 7.00004-2.5145s5.0974.9434 7 2.5145l2.1937 5.9637-2.1937 6.0218h-14.00004l-1.91988-6.0218z" fill="#e6e6e6"/><path d="m16 20.4727c.0019 1.399 1.1812 2.5272 2.62 2.5272v-1.613c0-.5575-.187-1.0722-.5029-1.4898 1.3479-.1991 2.3829-1.326 2.3829-2.6829 0-1.4972-1.26-2.7142-2.81-2.7142h-3.38c-1.55 0-2.81 1.217-2.81 2.7142 0 1.3569 1.035 2.4838 2.3829 2.6829-.3159.4176-.5029.9323-.5029 1.4898v1.613c1.4388 0 2.6181-1.1282 2.62-2.5272z" fill="#f92f60"/><path d="m5.00018 26.5c-.0199-3.41 1.58202-6.47 3.99981-8.5v11.98l-3.97991.02z" fill="#d3d3d3"/><path d="m23 30v-12c2.44 2.0234 4 5.0785 4 8.4942v3.5058z" fill="#d3d3d3"/><path d="m27.5 23.1001c.55 0 1 .4445 1 .9878v2.2622h-2v-2.2622c0-.5433.44-.9878 1-.9878z" fill="#bb806e"/><path d="m25.2121 20.75c-.2413 1.3648-.2779 2.7641-.1038 4.15l.55 4.37c.04.28.28.5.56.5.29 0 .53-.21.56-.5l.55-4.37c.1676-1.3874.133-2.7838-.1068-4.15l-1.0223-.3945z" fill="#8c5543"/><path d="m27.2266 20.75c-.12-.67-.2166-1.34-.4266-1.99h-1.2c-.22.65-.273 1.32-.393 1.99z" fill="#e6e6e6"/><path d="m24.6841 16.75.7026-.2031c.3 0 .6836.4383.6836.7383 0 .44.1264.5117.5664.5117.4225.0096.8002.0004.8443-.4059.0027.036.004.0725.004.109 0 .83-.67 1.5-1.5 1.5s-1.5-.67-1.5-1.5c0-.25.06-.48.17-.69.0095-.0202.0193-.0402.0291-.06z" fill="#f3ad61"/><path d="m27.6549 15.07c-.06-.05-.13-.07-.2-.07-1.21.08-2.23.65-2.77 1.75h.67c.3 0 .54.24.54.54 0 .44.34.82.78.82.44.01.79-.34.81-.77 0-.05-.01-.1-.02-.15v-.01c-.15-.65-.05-1.2.26-1.75.06-.12.03-.27-.07-.36z" fill="#5092ff"/><path d="m24.7018 24.74c-.3734 0-.6922.32-.7013.73-.0092.27.1184.51.3096.65-.1821.13-.3096.36-.3096.62s.1184.49.3096.62c-.1821.13-.3096.36-.3096.62s.1184.49.3096.62c-.1912.14-.3096.38-.3096.65.0091.41.3279.73.7013.73h3.0058c.4372 0 .7924-.39.7924-.87v-3.51c0-.48-.3552-.87-.7924-.87h-3.0058z" fill="#c68d7b"/><path d="m4.91851 29.9999h9.60659l-2.15-5.9c-.6364-1.7405-2.2271-2.9381-4.043-3.0848-.1247-.0101-.34705.0227-.47269.0356-2.72451.2813-5.0309 3.1892-3.9209 6.2592z" fill="#ffce7c"/><path d="m8.38502 21.02c-.14-.01-.29-.02-.43-.02-3.26 0-5.53 3.24-4.42 6.31l.98 2.69h.89l-.98-2.69c-1.06-2.92.95-6.01 3.96-6.29z" fill="#e19747"/><path d="m8.24 25.24c.68483 0 1.24-.5552 1.24-1.24s-.55517-1.24-1.24-1.24-1.24.5552-1.24 1.24.55517 1.24 1.24 1.24z" fill="#f92f60"/><path d="m11.24 28.24c.6848 0 1.24-.5552 1.24-1.24s-.5552-1.24-1.24-1.24-1.24.5552-1.24 1.24.5552 1.24 1.24 1.24z" fill="#5092ff"/><path d="m7.24 29.1299c.68483 0 1.24-.5552 1.24-1.24s-.55517-1.24-1.24-1.24-1.24.5552-1.24 1.24.55517 1.24 1.24 1.24z" fill="#86d72f"/><path d="m16 18.5c-1.1 0-2-.9076-2-2.0168v-1.9664c0-1.1092.9-2.0168 2-2.0168s2 .9076 2 2.0168v1.9664c0 1.1092-.9 2.0168-2 2.0168z" fill="#b87a66"/><path d="m13.25 10.625c0 .8975-.7275 1.625-1.625 1.625s-1.625-.7275-1.625-1.625c0-.89746.7275-1.625 1.625-1.625s1.625.72754 1.625 1.625z" fill="#bb806e"/><path d="m22 10.625c0 .8975-.7275 1.625-1.625 1.625s-1.625-.7275-1.625-1.625c0-.89746.7275-1.625 1.625-1.625s1.625.72754 1.625 1.625z" fill="#bb806e"/><path d="m19.8756 7.28394h-3.1542c-1.2537 0-2.4179-.62722-3.1244-1.67932-.1194-.16187-.3781-.13152-.4577.06069l-.0696.19222c-.2289.5564-.6468 1.00152-1.1742 1.2342-.0298.02023-.0696.03035-.0995.04047-.2288.11128-.7761.48558-.796 1.43653l.1294 3.19677c.1194 2.8326 2.2587 4.7345 4.8756 4.7345 2.6069 0 4.7562-1.9019 4.8756-4.7345l.1194-3.04503c-.0199-1.33536-.9453-1.42641-1.1244-1.43653z" fill="#c68d7b"/><path d="m13.3083 9.25c.56 0 1.02.38 1.31.82-.2558.0779-.5034.1488-.7483.2191-.4157.1192-.8238.2362-1.2517.3809l-.48-.43c-.2-.17-.18-.49.04-.64.31-.23.73-.35 1.13-.35z" fill="#000"/><path d="m18.5283 9.25c-.56 0-1.02.38-1.31.82.2381.0735.4713.1409.7026.2078.4293.1241.852.2462 1.2874.4022l.48-.43c.2-.18.19-.5-.03-.65-.31-.23-.73-.35-1.13-.35z" fill="#000"/><path d="m12.1382 10.3901c.15-.60001.7-1.05001 1.35-1.05001.67 0 1.24.49 1.37 1.12001.03.14-.09.27-.23.27h-2.22c-.18 0-.31-.17-.27-.34z" fill="#fff"/><path d="m19.6983 10.3901c-.15-.60001-.7-1.05001-1.35-1.05001-.68 0-1.24.49-1.37 1.12001-.03.14.09.27.23.27h2.22c.18 0 .31-.17.27-.34z" fill="#fff"/><path d="m12.7983 10.5001c0-.49.4-.88999.89-.88999s.89.39999.89.88999c0 .09-.01.16-.03.24h-1.72c-.02-.08-.03-.16-.03-.24z" fill="#7d4533"/><path d="m19.0283 10.5001c0-.49-.4-.88999-.89-.88999s-.89.39999-.89.88999c0 .0533.0089.1067.0178.16.0044.0267.0089.0533.0122.08h1.72c.02-.08.03-.16.03-.24z" fill="#7d4533"/><path d="m13.6883 9.98999c.28 0 .51.23001.51.51001 0 .08-.02.16-.06.24h-.9c-.04-.07-.06-.15-.06-.24 0-.28.23-.51001.51-.51001z" fill="#000"/><path d="m18.1483 9.98999c-.28 0-.51.23001-.51.51001 0 .08.02.16.06.24h.9c.04-.07.06-.15.06-.24 0-.28-.23-.51001-.51-.51001z" fill="#000"/><path d="m13.5483 10.15c0 .0884-.0717.16-.16.16-.0884 0-.16-.0716-.16-.16s.0716-.16001.16-.16001c.0883 0 .16.07161.16.16001z" fill="#fff"/><path d="m17.9982 10.15c0 .0884-.0716.16-.16.16-.0883 0-.16-.0716-.16-.16s.0717-.16001.16-.16001c.0884 0 .16.07161.16.16001z" fill="#fff"/><path d="m15.8651 13.9625c-.5129 0-.9864-.1343-1.3909-.3804-.1381-.0784-.2861.1007-.1973.2461.3354.5931.9273.9848 1.5981.9848s1.2528-.3917 1.5981-.9848c.0888-.1454-.0592-.3245-.1973-.2461-.4143.2461-.8977.3804-1.4107.3804z" fill="#990838"/><path d="m15.519 10.7889-.4973 1.7442c-.0976.3638.1463.7169.4876.7169h.7314c.3413 0 .5852-.3638.4876-.7169l-.4973-1.7442c-.1073-.3852-.6047-.3852-.712 0z" fill="#ab6a55"/><path d="m12.0341 8.72966c.05.08.14.12999.23.12999.0233 0 .0499-.00677.08-.0144.0216-.00549.0449-.01141.07-.01559 0 0 .73-.40001 1.53-.26001.14.02.28-.06999.31-.21999.02-.14-.07-.28-.22-.31-.9584-.17251-1.7881.27034-1.8908.32513-.0045.00238-.0092.00487-.0092.00487-.13.07-.17.23-.1.36z" fill="#593b39"/><path d="m19.1841 8.82966c.04.02.09.02999.13.02999.09 0 .18-.04999.25-.12999.07-.12.03-.29-.1-.36 0 0-.0048-.00249-.0092-.00487-.1027-.05479-.9325-.49764-1.8908-.32513-.15.03-.25.16-.22.31s.17.24999.31.21999c.7304-.13695 1.3941.19292 1.5117.25134.0112.00556.0183.00867.0183.00867z" fill="#593b39"/><path d="m8.495 5.72c0-.45.23-.86.62-1.09l.26999-.16c2.66001-1.62 5.72001-2.47 8.84001-2.47 2.36 0 4.27 1.91 4.27 4.27 0 .4-.33.73-.73.73h-11.99c-.71 0-1.28-.57-1.28-1.28z" fill="#212121"/></svg>