<svg fill="none" height="32" viewBox="0 0 32 32" width="32" xmlns="http://www.w3.org/2000/svg" xmlns:xlink="http://www.w3.org/1999/xlink"><filter id="a" color-interpolation-filters="sRGB" filterUnits="userSpaceOnUse" height="3.33936" width="3.53923" x="8.46777" y="10.396"><feFlood flood-opacity="0" result="BackgroundImageFix"/><feBlend in="SourceGraphic" in2="BackgroundImageFix" mode="normal" result="shape"/><feColorMatrix in="SourceAlpha" result="hardAlpha" type="matrix" values="0 0 0 0 0 0 0 0 0 0 0 0 0 0 0 0 0 0 127 0"/><feOffset dx=".2"/><feGaussianBlur stdDeviation=".15"/><feComposite in2="hardAlpha" k2="-1" k3="1" operator="arithmetic"/><feColorMatrix type="matrix" values="0 0 0 0 0.619608 0 0 0 0 0.470588 0 0 0 0 0.407843 0 0 0 1 0"/><feBlend in2="shape" mode="normal" result="effect1_innerShadow_4002_3540"/></filter><filter id="b" color-interpolation-filters="sRGB" filterUnits="userSpaceOnUse" height="2.99023" width="2.99017" x="8.64221" y="10.5708"><feFlood flood-opacity="0" result="BackgroundImageFix"/><feBlend in="SourceGraphic" in2="BackgroundImageFix" mode="normal" result="shape"/><feGaussianBlur result="effect1_foregroundBlur_4002_3540" stdDeviation=".25"/></filter><filter id="c" color-interpolation-filters="sRGB" filterUnits="userSpaceOnUse" height="3.58936" width="3.58923" x="17.814" y="8.37549"><feFlood flood-opacity="0" result="BackgroundImageFix"/><feBlend in="SourceGraphic" in2="BackgroundImageFix" mode="normal" result="shape"/><feColorMatrix in="SourceAlpha" result="hardAlpha" type="matrix" values="0 0 0 0 0 0 0 0 0 0 0 0 0 0 0 0 0 0 127 0"/><feOffset dx=".25" dy="-.25"/><feGaussianBlur stdDeviation=".25"/><feComposite in2="hardAlpha" k2="-1" k3="1" operator="arithmetic"/><feColorMatrix type="matrix" values="0 0 0 0 0.584314 0 0 0 0 0.368627 0 0 0 0 0.470588 0 0 0 1 0"/><feBlend in2="shape" mode="normal" result="effect1_innerShadow_4002_3540"/></filter><filter id="d" color-interpolation-filters="sRGB" filterUnits="userSpaceOnUse" height="2.99023" width="2.99017" x="17.9886" y="8.80029"><feFlood flood-opacity="0" result="BackgroundImageFix"/><feBlend in="SourceGraphic" in2="BackgroundImageFix" mode="normal" result="shape"/><feGaussianBlur result="effect1_foregroundBlur_4002_3540" stdDeviation=".25"/></filter><filter id="e" color-interpolation-filters="sRGB" filterUnits="userSpaceOnUse" height="12.6573" width="10.8724" x="9.33392" y="5.32031"><feFlood flood-opacity="0" result="BackgroundImageFix"/><feBlend in="SourceGraphic" in2="BackgroundImageFix" mode="normal" result="shape"/><feColorMatrix in="SourceAlpha" result="hardAlpha" type="matrix" values="0 0 0 0 0 0 0 0 0 0 0 0 0 0 0 0 0 0 127 0"/><feOffset dy=".15"/><feGaussianBlur stdDeviation=".125"/><feComposite in2="hardAlpha" k2="-1" k3="1" operator="arithmetic"/><feColorMatrix type="matrix" values="0 0 0 0 0.305882 0 0 0 0 0.2 0 0 0 0 0.172549 0 0 0 1 0"/><feBlend in2="shape" mode="normal" result="effect1_innerShadow_4002_3540"/></filter><filter id="f" color-interpolation-filters="sRGB" filterUnits="userSpaceOnUse" height="7.54248" width="8.30676" x="12.2796" y="2.91895"><feFlood flood-opacity="0" result="BackgroundImageFix"/><feBlend in="SourceGraphic" in2="BackgroundImageFix" mode="normal" result="shape"/><feGaussianBlur result="effect1_foregroundBlur_4002_3540" stdDeviation="1"/></filter><filter id="g" color-interpolation-filters="sRGB" filterUnits="userSpaceOnUse" height="9.5459" width="12.4426" x="7.7475" y="1.98926"><feFlood flood-opacity="0" result="BackgroundImageFix"/><feBlend in="SourceGraphic" in2="BackgroundImageFix" mode="normal" result="shape"/><feColorMatrix in="SourceAlpha" result="hardAlpha" type="matrix" values="0 0 0 0 0 0 0 0 0 0 0 0 0 0 0 0 0 0 127 0"/><feOffset dy="-.5"/><feGaussianBlur stdDeviation=".375"/><feComposite in2="hardAlpha" k2="-1" k3="1" operator="arithmetic"/><feColorMatrix type="matrix" values="0 0 0 0 0.207843 0 0 0 0 0.109804 0 0 0 0 0.109804 0 0 0 1 0"/><feBlend in2="shape" mode="normal" result="effect1_innerShadow_4002_3540"/></filter><filter id="h" color-interpolation-filters="sRGB" filterUnits="userSpaceOnUse" height="4.24316" width="3.24847" x="13.2662" y="10.0479"><feFlood flood-opacity="0" result="BackgroundImageFix"/><feBlend in="SourceGraphic" in2="BackgroundImageFix" mode="normal" result="shape"/><feGaussianBlur result="effect1_foregroundBlur_4002_3540" stdDeviation=".375"/></filter><filter id="i" color-interpolation-filters="sRGB" filterUnits="userSpaceOnUse" height="3.22461" width="2.36212" x="13.9141" y="10.3667"><feFlood flood-opacity="0" result="BackgroundImageFix"/><feBlend in="SourceGraphic" in2="BackgroundImageFix" mode="normal" result="shape"/><feGaussianBlur result="effect1_foregroundBlur_4002_3540" stdDeviation=".125"/></filter><filter id="j" color-interpolation-filters="sRGB" filterUnits="userSpaceOnUse" height="2.29053" width=".92627" x="9.078" y="6.9248"><feFlood flood-opacity="0" result="BackgroundImageFix"/><feBlend in="SourceGraphic" in2="BackgroundImageFix" mode="normal" result="shape"/><feGaussianBlur result="effect1_foregroundBlur_4002_3540" stdDeviation=".125"/></filter><filter id="k" color-interpolation-filters="sRGB" filterUnits="userSpaceOnUse" height="3.9875" width="3.98738" x="10.4003" y="8.69668"><feFlood flood-opacity="0" result="BackgroundImageFix"/><feBlend in="SourceGraphic" in2="BackgroundImageFix" mode="normal" result="shape"/><feGaussianBlur result="effect1_foregroundBlur_4002_3540" stdDeviation=".325"/></filter><filter id="l" color-interpolation-filters="sRGB" filterUnits="userSpaceOnUse" height="3.9875" width="3.98738" x="14.9889" y="7.96816"><feFlood flood-opacity="0" result="BackgroundImageFix"/><feBlend in="SourceGraphic" in2="BackgroundImageFix" mode="normal" result="shape"/><feGaussianBlur result="effect1_foregroundBlur_4002_3540" stdDeviation=".325"/></filter><filter id="m" color-interpolation-filters="sRGB" filterUnits="userSpaceOnUse" height=".963672" width="2.32341" x="11.3051" y="11.11"><feFlood flood-opacity="0" result="BackgroundImageFix"/><feBlend in="SourceGraphic" in2="BackgroundImageFix" mode="normal" result="shape"/><feGaussianBlur result="effect1_foregroundBlur_4002_3540" stdDeviation=".05"/></filter><filter id="n" color-interpolation-filters="sRGB" filterUnits="userSpaceOnUse" height=".963672" width="2.32341" x="15.9355" y="10.3023"><feFlood flood-opacity="0" result="BackgroundImageFix"/><feBlend in="SourceGraphic" in2="BackgroundImageFix" mode="normal" result="shape"/><feGaussianBlur result="effect1_foregroundBlur_4002_3540" stdDeviation=".05"/></filter><filter id="o" color-interpolation-filters="sRGB" filterUnits="userSpaceOnUse" height="8.35889" width="11.1924" x="11.4661" y="22.3311"><feFlood flood-opacity="0" result="BackgroundImageFix"/><feBlend in="SourceGraphic" in2="BackgroundImageFix" mode="normal" result="shape"/><feColorMatrix in="SourceAlpha" result="hardAlpha" type="matrix" values="0 0 0 0 0 0 0 0 0 0 0 0 0 0 0 0 0 0 127 0"/><feOffset dx=".25" dy=".25"/><feGaussianBlur stdDeviation=".5"/><feComposite in2="hardAlpha" k2="-1" k3="1" operator="arithmetic"/><feColorMatrix type="matrix" values="0 0 0 0 0.290196 0 0 0 0 0.607843 0 0 0 0 0.341176 0 0 0 1 0"/><feBlend in2="shape" mode="normal" result="effect1_innerShadow_4002_3540"/></filter><filter id="p" color-interpolation-filters="sRGB" filterUnits="userSpaceOnUse" height="8.44434" width="7.40695" x="19.0479" y="19.1602"><feFlood flood-opacity="0" result="BackgroundImageFix"/><feBlend in="SourceGraphic" in2="BackgroundImageFix" mode="normal" result="shape"/><feColorMatrix in="SourceAlpha" result="hardAlpha" type="matrix" values="0 0 0 0 0 0 0 0 0 0 0 0 0 0 0 0 0 0 127 0"/><feOffset dx="-.1"/><feGaussianBlur stdDeviation=".1"/><feComposite in2="hardAlpha" k2="-1" k3="1" operator="arithmetic"/><feColorMatrix type="matrix" values="0 0 0 0 0.258824 0 0 0 0 0.67451 0 0 0 0 0.45098 0 0 0 1 0"/><feBlend in2="shape" mode="normal" result="effect1_innerShadow_4002_3540"/></filter><filter id="q" color-interpolation-filters="sRGB" filterUnits="userSpaceOnUse" height="4.66729" width="8.20781" x="12.416" y="25.7727"><feFlood flood-opacity="0" result="BackgroundImageFix"/><feBlend in="SourceGraphic" in2="BackgroundImageFix" mode="normal" result="shape"/><feColorMatrix in="SourceAlpha" result="hardAlpha" type="matrix" values="0 0 0 0 0 0 0 0 0 0 0 0 0 0 0 0 0 0 127 0"/><feOffset dx=".2" dy="-.2"/><feGaussianBlur stdDeviation=".25"/><feComposite in2="hardAlpha" k2="-1" k3="1" operator="arithmetic"/><feColorMatrix type="matrix" values="0 0 0 0 0.54902 0 0 0 0 0.419608 0 0 0 0 0.368627 0 0 0 1 0"/><feBlend in2="shape" mode="normal" result="effect1_innerShadow_4002_3540"/></filter><filter id="r" color-interpolation-filters="sRGB" filterUnits="userSpaceOnUse" height="1.70078" width="3.45634" x="7.38069" y="22.2434"><feFlood flood-opacity="0" result="BackgroundImageFix"/><feBlend in="SourceGraphic" in2="BackgroundImageFix" mode="normal" result="shape"/><feGaussianBlur result="effect1_foregroundBlur_4002_3540" stdDeviation=".1"/></filter><filter id="s" color-interpolation-filters="sRGB" filterUnits="userSpaceOnUse" height="4.66211" width="4.30928" x="11.0433" y="16.9053"><feFlood flood-opacity="0" result="BackgroundImageFix"/><feBlend in="SourceGraphic" in2="BackgroundImageFix" mode="normal" result="shape"/><feColorMatrix in="SourceAlpha" result="hardAlpha" type="matrix" values="0 0 0 0 0 0 0 0 0 0 0 0 0 0 0 0 0 0 127 0"/><feOffset dx="-.05"/><feGaussianBlur stdDeviation=".05"/><feComposite in2="hardAlpha" k2="-1" k3="1" operator="arithmetic"/><feColorMatrix type="matrix" values="0 0 0 0 0.533333 0 0 0 0 0.552941 0 0 0 0 0.619608 0 0 0 1 0"/><feBlend in2="shape" mode="normal" result="effect1_innerShadow_4002_3540"/></filter><filter id="t" color-interpolation-filters="sRGB" filterUnits="userSpaceOnUse" height="2.75273" width="3.6472" x="6.2631" y="19.9903"><feFlood flood-opacity="0" result="BackgroundImageFix"/><feBlend in="SourceGraphic" in2="BackgroundImageFix" mode="normal" result="shape"/><feGaussianBlur result="effect1_foregroundBlur_4002_3540" stdDeviation=".05"/></filter><filter id="u" color-interpolation-filters="sRGB" filterUnits="userSpaceOnUse" height="2.14111" width="2.63428" x="16.374" y="26.2305"><feFlood flood-opacity="0" result="BackgroundImageFix"/><feBlend in="SourceGraphic" in2="BackgroundImageFix" mode="normal" result="shape"/><feGaussianBlur result="effect1_foregroundBlur_4002_3540" stdDeviation=".125"/></filter><filter id="v" color-interpolation-filters="sRGB" filterUnits="userSpaceOnUse" height="1.00039" width="4.53567" x="12.7461" y="29.0359"><feFlood flood-opacity="0" result="BackgroundImageFix"/><feBlend in="SourceGraphic" in2="BackgroundImageFix" mode="normal" result="shape"/><feGaussianBlur result="effect1_foregroundBlur_4002_3540" stdDeviation=".15"/></filter><filter id="w" color-interpolation-filters="sRGB" filterUnits="userSpaceOnUse" height="1.66758" width="3.02045" x="15.4542" y="7.15078"><feFlood flood-opacity="0" result="BackgroundImageFix"/><feBlend in="SourceGraphic" in2="BackgroundImageFix" mode="normal" result="shape"/><feColorMatrix in="SourceAlpha" result="hardAlpha" type="matrix" values="0 0 0 0 0 0 0 0 0 0 0 0 0 0 0 0 0 0 127 0"/><feOffset dx=".25" dy="-.4"/><feGaussianBlur stdDeviation=".3"/><feComposite in2="hardAlpha" k2="-1" k3="1" operator="arithmetic"/><feColorMatrix type="matrix" values="0 0 0 0 0.254902 0 0 0 0 0.156863 0 0 0 0 0.152941 0 0 0 1 0"/><feBlend in2="shape" mode="normal" result="effect1_innerShadow_4002_3540"/></filter><filter id="x" color-interpolation-filters="sRGB" filterUnits="userSpaceOnUse" height="2.14561" width="2.88062" x="10.4667" y="7.93984"><feFlood flood-opacity="0" result="BackgroundImageFix"/><feBlend in="SourceGraphic" in2="BackgroundImageFix" mode="normal" result="shape"/><feColorMatrix in="SourceAlpha" result="hardAlpha" type="matrix" values="0 0 0 0 0 0 0 0 0 0 0 0 0 0 0 0 0 0 127 0"/><feOffset dx=".25" dy="-.4"/><feGaussianBlur stdDeviation=".3"/><feComposite in2="hardAlpha" k2="-1" k3="1" operator="arithmetic"/><feColorMatrix type="matrix" values="0 0 0 0 0.254902 0 0 0 0 0.156863 0 0 0 0 0.152941 0 0 0 1 0"/><feBlend in2="shape" mode="normal" result="effect1_innerShadow_4002_3540"/></filter><filter id="y" color-interpolation-filters="sRGB" filterUnits="userSpaceOnUse" height="1.45801" width="3.14105" x="15.2691" y="7.31543"><feFlood flood-opacity="0" result="BackgroundImageFix"/><feBlend in="SourceGraphic" in2="BackgroundImageFix" mode="normal" result="shape"/><feGaussianBlur result="effect1_foregroundBlur_4002_3540" stdDeviation=".25"/></filter><filter id="z" color-interpolation-filters="sRGB" filterUnits="userSpaceOnUse" height="2.05322" width="3.05908" x="10.2438" y="8.11133"><feFlood flood-opacity="0" result="BackgroundImageFix"/><feBlend in="SourceGraphic" in2="BackgroundImageFix" mode="normal" result="shape"/><feGaussianBlur result="effect1_foregroundBlur_4002_3540" stdDeviation=".25"/></filter><linearGradient id="A" gradientUnits="userSpaceOnUse" x1="19.2242" x2="12.3358" y1="19.0451" y2="30.7219"><stop offset="0" stop-color="#2ba6ec"/><stop offset="1" stop-color="#1577e2"/></linearGradient><radialGradient id="B" cx="0" cy="0" gradientTransform="matrix(1.34716597 2.65624792 -4.56311453 2.31426916 16.0449 17.3187)" gradientUnits="userSpaceOnUse" r="1"><stop offset=".114019" stop-color="#1c8ec9"/><stop offset="1" stop-color="#1c8ec9" stop-opacity="0"/></radialGradient><linearGradient id="C" gradientUnits="userSpaceOnUse" x1="15.6849" x2="17.2181" y1="17.675" y2="18.6594"><stop offset=".177497" stop-color="#70525f"/><stop offset="1" stop-color="#9d867e"/></linearGradient><radialGradient id="D" cx="0" cy="0" gradientTransform="matrix(1.75472 0 0 3.07077 8.46809 12.0657)" gradientUnits="userSpaceOnUse" r="1"><stop offset=".350532" stop-color="#865d5f"/><stop offset="1" stop-color="#76594a"/></radialGradient><radialGradient id="E" cx="0" cy="0" gradientTransform="matrix(-.94971298 -1.35733887 1.35733887 -.94971298 10.1374 13.735)" gradientUnits="userSpaceOnUse" r="1"><stop offset=".339551" stop-color="#834e63"/><stop offset="1" stop-color="#834e63" stop-opacity="0"/></radialGradient><linearGradient id="F" gradientUnits="userSpaceOnUse" x1="10.1373" x2="9.49679" y1="12.3444" y2="12.3444"><stop offset="0" stop-color="#694448"/><stop offset="1" stop-color="#6e464d"/></linearGradient><linearGradient id="G" gradientUnits="userSpaceOnUse" x1="20.5699" x2="19.7513" y1="9.20375" y2="11.7398"><stop offset="0" stop-color="#cca68c"/><stop offset="1" stop-color="#ae7f75"/></linearGradient><radialGradient id="H" cx="0" cy="0" gradientTransform="matrix(.82663435 -.60191744 .68701092 .94349621 19.8557 10.0304)" gradientUnits="userSpaceOnUse" r="1"><stop offset=".542503" stop-color="#8f6459"/><stop offset="1" stop-color="#8f6459" stop-opacity="0"/></radialGradient><radialGradient id="I" cx="0" cy="0" gradientTransform="matrix(.82119299 -1.5104056 .88404601 .48064731 19.4424 11.1164)" gradientUnits="userSpaceOnUse" r="1"><stop offset=".754913" stop-color="#8a5d55" stop-opacity="0"/><stop offset=".915553" stop-color="#8a5d55"/></radialGradient><radialGradient id="J" cx="0" cy="0" gradientTransform="matrix(.25926658 .25663464 -.33083738 .33423032 19.4837 10.2952)" gradientUnits="userSpaceOnUse" r="1"><stop offset="0" stop-color="#895f52"/><stop offset="1" stop-color="#895f52" stop-opacity="0"/></radialGradient><radialGradient id="K" cx="0" cy="0" gradientTransform="matrix(-7.62145757 1.7936323 -2.81577778 -11.96473259 19.17 11.5591)" gradientUnits="userSpaceOnUse" r="1"><stop offset=".231544" stop-color="#c4997d"/><stop offset="1" stop-color="#876658"/></radialGradient><linearGradient id="L" gradientUnits="userSpaceOnUse" x1="10.075" x2="11.911" y1="15.2175" y2="14.8014"><stop offset="0" stop-color="#9b7569"/><stop offset="1" stop-color="#9b7569" stop-opacity="0"/></linearGradient><linearGradient id="M" gradientUnits="userSpaceOnUse" x1="20.0539" x2="18.9432" y1="12.4705" y2="12.5823"><stop offset="0" stop-color="#c1987f"/><stop offset="1" stop-color="#c1987f" stop-opacity="0"/></linearGradient><radialGradient id="N" cx="0" cy="0" gradientTransform="matrix(-1.93428888 7.50148062 -16.05059374 -4.13871429 16.1977 10.2271)" gradientUnits="userSpaceOnUse" r="1"><stop offset=".607781" stop-color="#856659" stop-opacity="0"/><stop offset="1" stop-color="#765968"/></radialGradient><linearGradient id="O" gradientUnits="userSpaceOnUse" x1="16.2166" x2="16.0291" y1="17.7603" y2="16.8853"><stop offset="0" stop-color="#685973"/><stop offset="1" stop-color="#826365" stop-opacity="0"/></linearGradient><linearGradient id="P" gradientUnits="userSpaceOnUse" x1="13.7966" x2="21.255" y1="8.73146" y2="4.35098"><stop offset="0" stop-color="#c89f8b"/><stop offset="1" stop-color="#c89f8b" stop-opacity="0"/></linearGradient><radialGradient id="Q" cx="0" cy="0" gradientTransform="matrix(.23347802 -3.05319598 1.13222439 .08658124 18.3064 6.33977)" gradientUnits="userSpaceOnUse" r="1"><stop offset="0" stop-color="#554042"/><stop offset="1" stop-color="#554042" stop-opacity="0"/></radialGradient><radialGradient id="R" cx="0" cy="0" gradientTransform="matrix(3.8231783 -.3661335 .19686729 2.05569484 16.3651 4.91652)" gradientUnits="userSpaceOnUse" r="1"><stop offset=".392334" stop-color="#644949"/><stop offset="1" stop-color="#644949" stop-opacity="0"/></radialGradient><radialGradient id="S" cx="0" cy="0" gradientTransform="matrix(.3125518 1.64968273 -2.55489925 .48405572 13.2009 2.73248)" gradientUnits="userSpaceOnUse" r="1"><stop offset="0" stop-color="#624c49"/><stop offset="1" stop-color="#624c49" stop-opacity="0"/></radialGradient><radialGradient id="T" cx="0" cy="0" gradientTransform="matrix(2.60066988 -2.78526875 4.36359526 4.07438987 8.13434 10.6312)" gradientUnits="userSpaceOnUse" r="1"><stop offset="0" stop-color="#4e3c3a"/><stop offset="1" stop-color="#4e3c3a" stop-opacity="0"/></radialGradient><linearGradient id="U" gradientUnits="userSpaceOnUse" x1="14.1482" x2="15.0699" y1="12.373" y2="12.1984"><stop offset="0" stop-color="#8b6455"/><stop offset="1" stop-color="#8b6455" stop-opacity="0"/></linearGradient><linearGradient id="V" gradientUnits="userSpaceOnUse" x1="15.9792" x2="14.9688" y1="12.3543" y2="12.5308"><stop offset="0" stop-color="#cda186"/><stop offset="1" stop-color="#cda186" stop-opacity="0"/></linearGradient><linearGradient id="W" gradientUnits="userSpaceOnUse" x1="15.3865" x2="15.2799" y1="13.2221" y2="12.6591"><stop offset="0" stop-color="#8a5e61"/><stop offset="1" stop-color="#8a5e61" stop-opacity="0"/></linearGradient><radialGradient id="X" cx="0" cy="0" gradientTransform="matrix(.03664981 .19344174 -.62148402 .11774746 15.4225 12.6993)" gradientUnits="userSpaceOnUse" r="1"><stop offset="0" stop-color="#c39787"/><stop offset="1" stop-color="#c39787" stop-opacity="0"/></radialGradient><linearGradient id="Y" gradientUnits="userSpaceOnUse" x1="14.477" x2="14.7763" y1="15.0386" y2="14.2821"><stop offset="0" stop-color="#a87d7b"/><stop offset=".663171" stop-color="#a87d7b" stop-opacity="0"/></linearGradient><linearGradient id="Z" gradientUnits="userSpaceOnUse" x1="9.30789" x2="9.70939" y1="7.22665" y2="9.34579"><stop offset=".227964" stop-color="#4a3236"/><stop offset="1" stop-color="#4a3236" stop-opacity="0"/></linearGradient><radialGradient id="aa" cx="0" cy="0" gradientTransform="matrix(.76781857 -1.4826843 1.92054548 .99456808 12.2346 11.0941)" gradientUnits="userSpaceOnUse" r="1"><stop offset=".0533848" stop-color="#956f60"/><stop offset=".875727" stop-color="#865a57"/></radialGradient><radialGradient id="ab" cx="0" cy="0" gradientTransform="matrix(.76781857 -1.4826843 1.92054548 .99456808 16.8232 10.3656)" gradientUnits="userSpaceOnUse" r="1"><stop offset=".126959" stop-color="#c29579"/><stop offset=".534734" stop-color="#ae806d"/></radialGradient><linearGradient id="ac"><stop offset="0" stop-color="#3a1f28"/><stop offset="1" stop-color="#3d2727"/></linearGradient><radialGradient id="ad" cx="0" cy="0" gradientTransform="matrix(1.3437504 -.2186927 .35568506 2.18549564 11.3068 11.5939)" gradientUnits="userSpaceOnUse" r="1" xlink:href="#ac"/><radialGradient id="ae" cx="0" cy="0" gradientTransform="matrix(1.34375037 -.21869294 .35568545 2.18549558 15.9369 10.7844)" gradientUnits="userSpaceOnUse" r="1" xlink:href="#ac"/><linearGradient id="af"><stop offset="0" stop-color="#513a3b"/><stop offset="1" stop-color="#513a3b" stop-opacity="0"/></linearGradient><linearGradient id="ag" gradientUnits="userSpaceOnUse" x1="11.4004" x2="13.6816" xlink:href="#af" y1="11.6357" y2="11.791"/><linearGradient id="ah"><stop offset=".180293" stop-color="#503a3b"/><stop offset="1" stop-color="#c26f5c" stop-opacity="0"/><stop offset="1" stop-color="#503a3b" stop-opacity="0"/></linearGradient><radialGradient id="ai" cx="0" cy="0" gradientTransform="matrix(-.17968725 .22656263 -.28593221 -.22677337 13.4785 11.2285)" gradientUnits="userSpaceOnUse" r="1" xlink:href="#ah"/><linearGradient id="aj" gradientUnits="userSpaceOnUse" x1="16.0308" x2="18.312" xlink:href="#af" y1="10.8281" y2="10.9834"/><radialGradient id="ak" cx="0" cy="0" gradientTransform="matrix(-.17968725 .22656263 -.28593221 -.22677337 18.1089 10.4209)" gradientUnits="userSpaceOnUse" r="1" xlink:href="#ah"/><linearGradient id="al" gradientUnits="userSpaceOnUse" x1="9.10889" x2="3.64014" y1="26.7532" y2="25.2844"><stop offset="0" stop-color="#2f71f9"/><stop offset="1" stop-color="#246bda"/></linearGradient><linearGradient id="am" gradientUnits="userSpaceOnUse" x1="3.51514" x2="5.48584" y1="26.3782" y2="26.9437"><stop offset="0" stop-color="#4e83c4"/><stop offset="1" stop-color="#5082c1" stop-opacity="0"/></linearGradient><radialGradient id="an" cx="0" cy="0" gradientTransform="matrix(3.12500421 .78124853 -.62683627 2.50735317 8.23584 21.3812)" gradientUnits="userSpaceOnUse" r="1"><stop offset=".836066" stop-color="#1972ba"/><stop offset="1" stop-color="#1972ba" stop-opacity="0"/></radialGradient><radialGradient id="ao" cx="0" cy="0" gradientTransform="matrix(-1.49500439 1.82205717 -1.77767483 -1.45858852 6.87196 19.9128)" gradientUnits="userSpaceOnUse" r="1"><stop offset=".383565" stop-color="#2170a2"/><stop offset="1" stop-color="#2374a5" stop-opacity="0"/></radialGradient><radialGradient id="ap" cx="0" cy="0" gradientTransform="matrix(-1.15507736 -.34882641 2.01873526 -6.68468711 8.59765 30.4407)" gradientUnits="userSpaceOnUse" r="1"><stop offset="0" stop-color="#5289f2"/><stop offset="1" stop-color="#317ff4" stop-opacity="0"/></radialGradient><linearGradient id="aq" gradientUnits="userSpaceOnUse" x1="9.22942" x2="8.83657" y1="28.771" y2="28.646"><stop offset="0" stop-color="#1e7eee"/><stop offset="1" stop-color="#1e7eee" stop-opacity="0"/></linearGradient><radialGradient id="ar" cx="0" cy="0" gradientTransform="matrix(1.82812436 2.45312627 -3.10930802 2.31712562 8.84521 21.3812)" gradientUnits="userSpaceOnUse" r="1"><stop offset=".629005" stop-color="#3395d2"/><stop offset="1" stop-color="#2e71f4" stop-opacity="0"/></radialGradient><radialGradient id="as" cx="0" cy="0" gradientTransform="matrix(-2.07850454 5.99999216 -4.46734988 -1.54756986 16.9373 25.2213)" gradientUnits="userSpaceOnUse" r="1"><stop offset="0" stop-color="#31ae6a"/><stop offset="1" stop-color="#32996b"/></radialGradient><radialGradient id="at" cx="0" cy="0" gradientTransform="matrix(-2.8749969 -3.09375685 4.9270842 -4.57868944 17.5463 28.3775)" gradientUnits="userSpaceOnUse" r="1"><stop offset="0" stop-color="#208d47"/><stop offset="1" stop-color="#208d47" stop-opacity="0"/></radialGradient><radialGradient id="au" cx="0" cy="0" gradientTransform="matrix(-2.62501051 -3.82770908 2.09450489 -1.43639374 21.1088 26.1588)" gradientUnits="userSpaceOnUse" r="1"><stop offset=".392677" stop-color="#148c3e"/><stop offset="1" stop-color="#148c3e" stop-opacity="0"/></radialGradient><radialGradient id="av" cx="0" cy="0" gradientTransform="matrix(-6.03799062 1.01561386 -1.5116479 -8.98699415 27.2713 23.2697)" gradientUnits="userSpaceOnUse" r="1"><stop offset="0" stop-color="#53f595"/><stop offset="1" stop-color="#31be7d"/></radialGradient><radialGradient id="aw" cx="0" cy="0" gradientTransform="matrix(-2.90625988 .78123135 -1.16041578 -4.31686445 21.1086 23.0969)" gradientUnits="userSpaceOnUse" r="1"><stop offset="0" stop-color="#279f64"/><stop offset="1" stop-color="#3ba055"/></radialGradient><radialGradient id="ax" cx="0" cy="0" gradientTransform="matrix(-1.6615559 -1.31250032 1.73451423 -2.19580316 22.8015 25.9407)" gradientUnits="userSpaceOnUse" r="1"><stop offset="0" stop-color="#289d47"/><stop offset="1" stop-color="#289d47" stop-opacity="0"/></radialGradient><radialGradient id="ay" cx="0" cy="0" gradientTransform="matrix(1.89062787 1.23437589 -.43397969 .6647036 15.9524 27.6899)" gradientUnits="userSpaceOnUse" r="1"><stop offset="0" stop-color="#905d66"/><stop offset="1" stop-color="#905d66" stop-opacity="0"/></radialGradient><radialGradient id="az" cx="0" cy="0" gradientTransform="matrix(6.57813 0 0 1.16319 12.9236 30.4399)" gradientUnits="userSpaceOnUse" r="1"><stop offset="0" stop-color="#98567e"/><stop offset="1" stop-color="#98567e" stop-opacity="0"/></radialGradient><linearGradient id="aA" gradientUnits="userSpaceOnUse" x1="18.2269" x2="17.5662" y1="26.7148" y2="27.6095"><stop offset=".174873" stop-color="#b99477"/><stop offset="1" stop-color="#b99477" stop-opacity="0"/></linearGradient><radialGradient id="aB" cx="0" cy="0" gradientTransform="matrix(-1.02913 0 0 -3.40472 19.2649 29.3774)" gradientUnits="userSpaceOnUse" r="1"><stop offset=".0833338" stop-color="#814c4e"/><stop offset="1" stop-color="#814c4e" stop-opacity="0"/></radialGradient><radialGradient id="aC" cx="0" cy="0" gradientTransform="matrix(0 1.70313 -.628418 0 19.6265 28.6309)" gradientUnits="userSpaceOnUse" r="1"><stop offset=".431193" stop-color="#2176c7"/><stop offset="1" stop-color="#286ad9"/></radialGradient><linearGradient id="aD" gradientUnits="userSpaceOnUse" x1="19.5227" x2="19.4368" y1="27.0029" y2="27.5107"><stop offset="0" stop-color="#0e6996"/><stop offset="1" stop-color="#0e6996" stop-opacity="0"/></linearGradient><linearGradient id="aE" gradientUnits="userSpaceOnUse" x1="26.5461" x2="26.9836" y1="27.2212" y2="30.9399"><stop offset="0" stop-color="#27a9f1"/><stop offset="1" stop-color="#297eff"/></linearGradient><radialGradient id="aF" cx="0" cy="0" gradientTransform="matrix(-6.40625638 1.34370533 -.35049006 -1.67099817 28.4211 27.0024)" gradientUnits="userSpaceOnUse" r="1"><stop offset="0" stop-color="#48b6ff"/><stop offset="1" stop-color="#48b6ff" stop-opacity="0"/></radialGradient><radialGradient id="aG" cx="0" cy="0" gradientTransform="matrix(.84204158 2.7300106 -2.93116937 .90408678 6.76489 20.3153)" gradientUnits="userSpaceOnUse" r="1"><stop offset="0" stop-color="#277aa9"/><stop offset="1" stop-color="#1f70cf"/></radialGradient><radialGradient id="aH" cx="0" cy="0" gradientTransform="matrix(-1.2812457 .87171473 -.46263145 -.67997539 9.90552 21.2874)" gradientUnits="userSpaceOnUse" r="1"><stop offset=".215623" stop-color="#052e6b"/><stop offset="1" stop-color="#124ea0" stop-opacity="0"/></radialGradient><radialGradient id="aI" cx="0" cy="0" gradientTransform="matrix(.32031235 .7500004 -.43392107 .18532027 7.16333 20.9247)" gradientUnits="userSpaceOnUse" r="1"><stop offset=".826919" stop-color="#1a3f75"/><stop offset="1" stop-color="#1a3f75" stop-opacity="0"/></radialGradient><linearGradient id="aJ"><stop offset="0" stop-color="#f38820"/><stop offset="1" stop-color="#f38820" stop-opacity="0"/></linearGradient><linearGradient id="aK" gradientUnits="userSpaceOnUse" x1="11.1443" x2="10.9974" xlink:href="#aJ" y1="22.513" y2="19.8699"/><linearGradient id="aL" gradientUnits="userSpaceOnUse" x1="12.3506" x2="11.9636" xlink:href="#aJ" y1="20.7038" y2="18.7219"/><linearGradient id="aM" gradientUnits="userSpaceOnUse" x1="16.0775" x2="15.2963" y1="18.5025" y2="21.4889"><stop offset="0" stop-color="#6cd9f5"/><stop offset="1" stop-color="#3782ce"/></linearGradient><linearGradient id="aN" gradientUnits="userSpaceOnUse" x1="15.205" x2="15.4279" y1="21.7087" y2="20.8181"><stop offset="0" stop-color="#735caf"/><stop offset="1" stop-color="#735caf" stop-opacity="0"/></linearGradient><radialGradient id="aO" cx="0" cy="0" gradientTransform="matrix(-.37109197 1.25391052 -.15320842 -.04534169 16.0096 18.9157)" gradientUnits="userSpaceOnUse" r="1"><stop offset="0" stop-color="#78e0ff"/><stop offset="1" stop-color="#6cd8f5" stop-opacity="0"/></radialGradient><radialGradient id="aP" cx="0" cy="0" gradientTransform="matrix(-.20312621 -.60156223 1.71998226 -.58077696 9.31201 23.4561)" gradientUnits="userSpaceOnUse" r="1"><stop offset="0" stop-color="#429ce6"/><stop offset="1" stop-color="#429ce6" stop-opacity="0"/></radialGradient><linearGradient id="aQ" gradientUnits="userSpaceOnUse" x1="14.9524" x2="13.8274" y1="17.7375" y2="22.0656"><stop offset="0" stop-color="#58d4f5"/><stop offset="1" stop-color="#4760c0"/></linearGradient><radialGradient id="aR" cx="0" cy="0" gradientTransform="matrix(-.6406295 2.00000346 -.16496005 -.05283905 15.822 18.2561)" gradientUnits="userSpaceOnUse" r="1"><stop offset="0" stop-color="#78e2ff"/><stop offset="1" stop-color="#78e2ff" stop-opacity="0"/></radialGradient><linearGradient id="aS" gradientUnits="userSpaceOnUse" x1="15.2651" x2="14.1558" y1="18.1124" y2="17.753"><stop offset="0" stop-color="#43b1db"/><stop offset="1" stop-color="#42b8e0"/></linearGradient><linearGradient id="aT" gradientUnits="userSpaceOnUse" x1="14.4526" x2="13.2229" y1="17.628" y2="22.378"><stop offset="0" stop-color="#d2c9d1"/><stop offset="1" stop-color="#a07cb6"/></linearGradient><radialGradient id="aU" cx="0" cy="0" gradientTransform="matrix(1.42187346 .68749826 -.62811439 1.29905664 11.4551 18.9435)" gradientUnits="userSpaceOnUse" r="1"><stop offset=".127471" stop-color="#6e574e"/><stop offset="1" stop-color="#6e574e" stop-opacity="0"/></radialGradient><linearGradient id="aV" gradientUnits="userSpaceOnUse" x1="12.5488" x2="12.7676" y1="21.4435" y2="20.3654"><stop offset="0" stop-color="#8b72aa"/><stop offset="1" stop-color="#b59cc2" stop-opacity="0"/></linearGradient><linearGradient id="aW" gradientUnits="userSpaceOnUse" x1="8.42139" x2="8.96436" y1="17.1279" y2="21.6279"><stop offset="0" stop-color="#8e705c"/><stop offset="1" stop-color="#8e685c"/></linearGradient><radialGradient id="aX" cx="0" cy="0" gradientTransform="matrix(-2.01560849 3.18751508 -2.63101232 -1.66370688 9.45508 18.9024)" gradientUnits="userSpaceOnUse" r="1"><stop offset=".555875" stop-color="#91576c" stop-opacity="0"/><stop offset="1" stop-color="#6f3928"/></radialGradient><radialGradient id="aY" cx="0" cy="0" gradientTransform="matrix(-1.82812891 3.21874284 -1.16015503 -.65892588 10.1245 18.0029)" gradientUnits="userSpaceOnUse" r="1"><stop offset=".269499" stop-color="#ab8870"/><stop offset="1" stop-color="#8f715e" stop-opacity="0"/></radialGradient><radialGradient id="aZ" cx="0" cy="0" gradientTransform="matrix(.1562505 1.04772299 -1.07632665 .16051626 9.00977 21.0813)" gradientUnits="userSpaceOnUse" r="1"><stop offset=".279509" stop-color="#94596d"/><stop offset="1" stop-color="#945c6f" stop-opacity="0"/></radialGradient><radialGradient id="a0" cx="0" cy="0" gradientTransform="matrix(.03125042 -.93274665 3.892426 .13041048 12.7207 17.9649)" gradientUnits="userSpaceOnUse" r="1"><stop offset=".329217" stop-color="#936e63"/><stop offset="1" stop-color="#936e63" stop-opacity="0"/></radialGradient><radialGradient id="a1" cx="0" cy="0" gradientTransform="matrix(.82031239 .17968808 -.24566042 1.12148948 9.81445 16.55)" gradientUnits="userSpaceOnUse" r="1"><stop offset=".293059" stop-color="#987763"/><stop offset="1" stop-color="#987763" stop-opacity="0"/></radialGradient><radialGradient id="a2" cx="0" cy="0" gradientTransform="matrix(.13501821 -.82584465 3.70255295 .60533429 12.1828 19.3455)" gradientUnits="userSpaceOnUse" r="1"><stop offset=".0896479" stop-color="#8d5c59"/><stop offset="1" stop-color="#8d5c59" stop-opacity="0"/></radialGradient><radialGradient id="a3" cx="0" cy="0" gradientTransform="matrix(-1.06250051 .41405938 -.20021784 -.51377066 13.8145 17.9618)" gradientUnits="userSpaceOnUse" r="1"><stop offset=".283267" stop-color="#c7a28d"/><stop offset="1" stop-color="#a6816a" stop-opacity="0"/></radialGradient><radialGradient id="a4" cx="0" cy="0" gradientTransform="matrix(.61328112 .24999948 -.50554118 1.24015801 9.5293 17.4094)" gradientUnits="userSpaceOnUse" r="1"><stop offset="0" stop-color="#997963"/><stop offset="1" stop-color="#997963" stop-opacity="0"/></radialGradient><radialGradient id="a5" cx="0" cy="0" gradientTransform="matrix(-.81249911 1.51562202 -5.32458223 -2.85441772 11.1426 19.2137)" gradientUnits="userSpaceOnUse" r="1"><stop offset=".243473" stop-color="#ac866d"/><stop offset="1" stop-color="#966464"/></radialGradient><radialGradient id="a6" cx="0" cy="0" gradientTransform="matrix(1.85937204 1.37499932 -.35308743 .47746998 11.6895 19.4637)" gradientUnits="userSpaceOnUse" r="1"><stop offset="0" stop-color="#c29c8a"/><stop offset="1" stop-color="#a87f6c" stop-opacity="0"/></radialGradient><radialGradient id="a7" cx="0" cy="0" gradientTransform="matrix(-.36719249 .5314221 -1.08324577 -.74848168 12.062 19.237)" gradientUnits="userSpaceOnUse" r="1"><stop offset=".13905" stop-color="#87624f"/><stop offset="1" stop-color="#87624f" stop-opacity="0"/></radialGradient><radialGradient id="a8" cx="0" cy="0" gradientTransform="matrix(1.03039347 -.54867295 .96509043 1.8124146 8.93945 19.2919)" gradientUnits="userSpaceOnUse" r="1"><stop offset=".201461" stop-color="#947260"/><stop offset="1" stop-color="#8f6d5d" stop-opacity="0"/></radialGradient><radialGradient id="a9" cx="0" cy="0" gradientTransform="matrix(1.09945113 -1.69164856 1.88005297 1.22190059 8.8689 21.9101)" gradientUnits="userSpaceOnUse" r="1"><stop offset=".406756" stop-color="#935b6e"/><stop offset="1" stop-color="#ba9374"/></radialGradient><radialGradient id="ba" cx="0" cy="0" gradientTransform="matrix(1.15624919 .84934947 -.34382645 .468063 10.7673 20.4639)" gradientUnits="userSpaceOnUse" r="1"><stop offset=".060323" stop-color="#c7a08d"/><stop offset="1" stop-color="#c7a08d" stop-opacity="0"/></radialGradient><radialGradient id="bb" cx="0" cy="0" gradientTransform="matrix(-.42968884 1.98437124 -4.76865415 -1.03258777 10.197 20.4179)" gradientUnits="userSpaceOnUse" r="1"><stop offset=".651219" stop-color="#935067" stop-opacity="0"/><stop offset=".962134" stop-color="#935067"/></radialGradient><radialGradient id="bc" cx="0" cy="0" gradientTransform="matrix(.61482512 -.19518284 .65089087 2.05030348 7.80126 20.9337)" gradientUnits="userSpaceOnUse" r="1"><stop offset="0" stop-color="#8e655d"/><stop offset="1" stop-color="#8e655d" stop-opacity="0"/></radialGradient><radialGradient id="bd" cx="0" cy="0" gradientTransform="matrix(-1.56248991 -1.9218894 3.39221356 -2.75785872 9.82983 22.0108)" gradientUnits="userSpaceOnUse" r="1"><stop offset=".832294" stop-color="#937160" stop-opacity="0"/><stop offset="1" stop-color="#937160"/></radialGradient><linearGradient id="be" gradientUnits="userSpaceOnUse" x1="16.5211" x2="15.9369" y1="19.0032" y2="21.5032"><stop offset="0" stop-color="#f3c22a"/><stop offset="1" stop-color="#ce953a"/></linearGradient><radialGradient id="bf" cx="0" cy="0" gradientTransform="matrix(-.35515479 1.26562301 -.33103902 -.09289503 16.5211 19.514)" gradientUnits="userSpaceOnUse" r="1"><stop offset="0" stop-color="#fed466"/><stop offset="1" stop-color="#ebb830" stop-opacity="0"/><stop offset="1" stop-color="#fed466" stop-opacity="0"/></radialGradient><radialGradient id="bg" cx="0" cy="0" gradientTransform="matrix(-.14062363 .5234986 -.15374851 -.04130034 16.869 20.053)" gradientUnits="userSpaceOnUse" r="1"><stop offset="0" stop-color="#fed064"/><stop offset="1" stop-color="#ebb830" stop-opacity="0"/><stop offset="1" stop-color="#fed466" stop-opacity="0"/></radialGradient><radialGradient id="bh" cx="0" cy="0" gradientTransform="matrix(-.43823228 .03906493 -.03423094 -.38400431 17.5885 20.2406)" gradientUnits="userSpaceOnUse" r="1"><stop offset="0" stop-color="#ffd267"/><stop offset="1" stop-color="#ffd267" stop-opacity="0"/></radialGradient><radialGradient id="bi" cx="0" cy="0" gradientTransform="matrix(-.26365001 -2.2146517 3.37211849 -.4014442 7.76804 22.2557)" gradientUnits="userSpaceOnUse" r="1"><stop offset="0" stop-color="#377dcb"/><stop offset="1" stop-color="#377dcb" stop-opacity="0"/></radialGradient><linearGradient id="bj"><stop offset="0" stop-color="#422235"/><stop offset="1" stop-color="#422235" stop-opacity="0"/></linearGradient><radialGradient id="bk" cx="0" cy="0" gradientTransform="matrix(-.00992393 -.61206755 1.810752 -.02935914 16.8139 8.68005)" gradientUnits="userSpaceOnUse" r="1" xlink:href="#bj"/><radialGradient id="bl" cx="0" cy="0" gradientTransform="matrix(-.00991861 -.61206864 1.81085225 -.02934496 11.7566 9.63804)" gradientUnits="userSpaceOnUse" r="1" xlink:href="#bj"/><linearGradient id="bm"><stop offset="0" stop-color="#5b4545"/><stop offset="1" stop-color="#5b4545" stop-opacity="0"/></linearGradient><linearGradient id="bn" gradientUnits="userSpaceOnUse" x1="17.2009" x2="16.6283" xlink:href="#bm" y1="7.95291" y2="7.18756"/><linearGradient id="bo" gradientUnits="userSpaceOnUse" x1="11.9716" x2="10.7105" xlink:href="#bm" y1="8.77148" y2="8.50286"/><path d="m7.15498 30.4402c-1.05 0-1.9-.85-1.89-1.9l.01-2.13c0-5.77 4.79002-10.46 10.69002-10.46 5.91 0 10.69 4.68 10.69 10.46l.17 4.03z" fill="url(#A)"/><path d="m7.15498 30.4402c-1.05 0-1.9-.85-1.89-1.9l.01-2.13c0-5.77 4.79002-10.46 10.69002-10.46 5.91 0 10.69 4.68 10.69 10.46l.17 4.03z" fill="url(#B)"/><path d="m15.685 18.9706c1.06 0 1.91-.86 1.91-1.91v-2.26c0-1.06-.86-1.91-1.91-1.91-1.06 0-1.91.86-1.91 1.91v2.26c-.01 1.06.85 1.91 1.91 1.91z" fill="url(#C)"/><g filter="url(#a)"><circle cx="10.1374" cy="12.0657" fill="url(#D)" r="1.66932" transform="matrix(.9825213 -.18615022 .18615022 .9825213 -2.068844 2.097972)"/></g><circle cx="10.1374" cy="12.0657" fill="url(#E)" r="1.66932" transform="matrix(.9825213 -.18615022 .18615022 .9825213 -2.068844 2.097972)"/><g filter="url(#b)"><circle cx="10.1373" cy="12.0657" fill="url(#F)" r=".994888" transform="matrix(.9825213 -.18615022 .18615022 .9825213 -2.068846 2.097953)"/></g><g filter="url(#c)"><circle cx="19.4836" cy="10.2952" fill="url(#G)" r="1.66932" transform="matrix(.9825213 -.18615022 .18615022 .9825213 -1.575906 3.806823)"/><circle cx="19.4836" cy="10.2952" fill="url(#H)" r="1.66932" transform="matrix(.9825213 -.18615022 .18615022 .9825213 -1.575906 3.806823)"/></g><g filter="url(#d)"><circle cx="19.4837" cy="10.2952" fill="#a57c70" r=".994888" transform="matrix(.9825213 -.18615022 .18615022 .9825213 -1.575904 3.806842)"/><circle cx="19.4837" cy="10.2952" fill="url(#I)" r=".994888" transform="matrix(.9825213 -.18615022 .18615022 .9825213 -1.575904 3.806842)"/><circle cx="19.4837" cy="10.2952" fill="url(#J)" r=".994888" transform="matrix(.9825213 -.18615022 .18615022 .9825213 -1.575904 3.806842)"/></g><g filter="url(#e)"><path d="m9.67755 11.5291c.01612-.0019.0323-.0044.04851-.0075 0 0-.21154-.8284-.37343-1.3948-.04964-.26195-.00381-.5963.1772-.79343l.12831-.18715c.22378-.25951.26961-.59386.21005-.90824l-.15884-.83836c-.04964-.26199.06875-.50153.32235-.60385.6025-.277 1.8703-.78859 3.7675-1.14802 1.8971-.35943 3.2641-.34704 3.9263-.30966.2207.01246.4712.18211.5208.4441l.1589.83836c.0595.31438.2772.59881.5277.76847.5588.25219.5641.44812.6003.86328.0465.53395.1626 1.43469.1626 1.43469.006-.00113.0119-.00232.0178-.00359l.4756 3.9384c.1717 1.7684-.9655 3.2391-2.5951 3.5478l-3.154.5976c-1.6821.3186-3.2258-.6441-3.7129-2.3527z" fill="url(#K)"/></g><path d="m9.35263 10.1268c-.04964-.26195-.00381-.5963.1772-.79343l.12831-.18715c.22378-.25951.26961-.59386.21005-.90824l-.15884-.83836c-.04964-.26199.06875-.50153.32235-.60385.6025-.277 1.8703-.78859 3.7675-1.14802 1.8971-.35943 3.2641-.34704 3.9263-.30966.2207.01246.4712.18211.5208.4441l.1589.83836c.0595.31438.2772.59881.5277.76847.5588.25219.5641.44812.6003.86328.0465.53395.1626 1.43469.1626 1.43469.006-.00113.0119-.00232.0178-.00359l.4756 3.9384c.1717 1.7684-.9655 3.2391-2.5951 3.5478l-3.154.5976c-1.6821.3186-3.2258-.6441-3.7129-2.3527-.4751-1.7586-.87417-3.537-1.37457-5.2877z" fill="url(#L)"/><path d="m9.35263 10.1268c-.04964-.26195-.00381-.5963.1772-.79343l.12831-.18715c.22378-.25951.26961-.59386.21005-.90824l-.15884-.83836c-.04964-.26199.06875-.50153.32235-.60385.6025-.277 1.8703-.78859 3.7675-1.14802 1.8971-.35943 3.2641-.34704 3.9263-.30966.2207.01246.4712.18211.5208.4441l.1589.83836c.0595.31438.2772.59881.5277.76847.5588.25219.5641.44812.6003.86328.0465.53395.1626 1.43469.1626 1.43469.006-.00113.0119-.00232.0178-.00359l.4756 3.9384c.1717 1.7684-.9655 3.2391-2.5951 3.5478l-3.154.5976c-1.6821.3186-3.2258-.6441-3.7129-2.3527-.4751-1.7586-.87417-3.537-1.37457-5.2877z" fill="url(#M)"/><path d="m9.35263 10.1268c-.04964-.26195-.00381-.5963.1772-.79343l.12831-.18715c.22378-.25951.26961-.59386.21005-.90824l-.15884-.83836c-.04964-.26199.06875-.50153.32235-.60385.6025-.277 1.8703-.78859 3.7675-1.14802 1.8971-.35943 3.2641-.34704 3.9263-.30966.2207.01246.4712.18211.5208.4441l.1589.83836c.0595.31438.2772.59881.5277.76847.5588.25219.5641.44812.6003.86328.0465.53395.1626 1.43469.1626 1.43469.006-.00113.0119-.00232.0178-.00359l.4756 3.9384c.1717 1.7684-.9655 3.2391-2.5951 3.5478l-3.154.5976c-1.6821.3186-3.2258-.6441-3.7129-2.3527-.4751-1.7586-.87417-3.537-1.37457-5.2877z" fill="url(#N)"/><path d="m9.35263 10.1268c-.04964-.26195-.00381-.5963.1772-.79343l.12831-.18715c.22378-.25951.26961-.59386.21005-.90824l-.15884-.83836c-.04964-.26199.06875-.50153.32235-.60385.6025-.277 1.8703-.78859 3.7675-1.14802 1.8971-.35943 3.2641-.34704 3.9263-.30966.2207.01246.4712.18211.5208.4441l.1589.83836c.0595.31438.2772.59881.5277.76847.5588.25219.5641.44812.6003.86328.0465.53395.1626 1.43469.1626 1.43469.006-.00113.0119-.00232.0178-.00359l.4756 3.9384c.1717 1.7684-.9655 3.2391-2.5951 3.5478l-3.154.5976c-1.6821.3186-3.2258-.6441-3.7129-2.3527-.4751-1.7586-.87417-3.537-1.37457-5.2877z" fill="url(#O)"/><g filter="url(#f)"><path d="m17.649 4.91879-2.8324 1.58082c-.4823.26915-.6726.86657-.4348 1.36506.2272.47652.7737.70932 1.2748.54307l2.9297-.97199z" fill="url(#P)"/></g><g filter="url(#g)"><path d="m18.3304 3.92172.4613.12972c.8073.227 1.3877.98549 1.3983 1.9062l-.0138 3.09647c.0068.31825-.1578.56446-.4626.63021-.0059.00126-.0118.00243-.0178.00356 0 0-.116-.90074-.1626-1.4347-.0378-.4336-.1367-.54932-.6003-.86327-.2505-.16966-.4681-.45409-.5277-.76847l-.1588-.83836c-.0497-.26199-.3002-.43164-.5209-.4441-.6622-.03739-2.0292-.04977-3.9263.30966s-3.1649.87102-3.7675 1.14802c-.2536.10232-.37198.34186-.32235.60385l.15884.83835c.05956.31439.01373.64874-.21005.90825l-.12831.18714c-.181.19713-.22684.53149-.1772.79345.1619.5664.37343 1.3948.37343 1.3948-.01621.0031-.03239.0056-.04851.0075-.29827.0356-.57662-.1229-.68313-.4117l-1.14553-2.87678c-.26423-.81839-.00148-1.73662.66679-2.24318l.38187-.28946c.23371-.20711.45749-.46662.68126-.72613l.75999-1.17527c.4804-.6338 1.2937-.95073 2.101-.72373.5567.05735 1.1364-.05247 1.6336-.30951.7408-.41175 1.6764-.37189 2.418.08468l.9393.63619c.2605.22205.5537.32933.8997.42661z" fill="#4f3332"/><path d="m18.3304 3.92172.4613.12972c.8073.227 1.3877.98549 1.3983 1.9062l-.0138 3.09647c.0068.31825-.1578.56446-.4626.63021-.0059.00126-.0118.00243-.0178.00356 0 0-.116-.90074-.1626-1.4347-.0378-.4336-.1367-.54932-.6003-.86327-.2505-.16966-.4681-.45409-.5277-.76847l-.1588-.83836c-.0497-.26199-.3002-.43164-.5209-.4441-.6622-.03739-2.0292-.04977-3.9263.30966s-3.1649.87102-3.7675 1.14802c-.2536.10232-.37198.34186-.32235.60385l.15884.83835c.05956.31439.01373.64874-.21005.90825l-.12831.18714c-.181.19713-.22684.53149-.1772.79345.1619.5664.37343 1.3948.37343 1.3948-.01621.0031-.03239.0056-.04851.0075-.29827.0356-.57662-.1229-.68313-.4117l-1.14553-2.87678c-.26423-.81839-.00148-1.73662.66679-2.24318l.38187-.28946c.23371-.20711.45749-.46662.68126-.72613l.75999-1.17527c.4804-.6338 1.2937-.95073 2.101-.72373.5567.05735 1.1364-.05247 1.6336-.30951.7408-.41175 1.6764-.37189 2.418.08468l.9393.63619c.2605.22205.5537.32933.8997.42661z" fill="url(#Q)"/><path d="m18.3304 3.92172.4613.12972c.8073.227 1.3877.98549 1.3983 1.9062l-.0138 3.09647c.0068.31825-.1578.56446-.4626.63021-.0059.00126-.0118.00243-.0178.00356 0 0-.116-.90074-.1626-1.4347-.0378-.4336-.1367-.54932-.6003-.86327-.2505-.16966-.4681-.45409-.5277-.76847l-.1588-.83836c-.0497-.26199-.3002-.43164-.5209-.4441-.6622-.03739-2.0292-.04977-3.9263.30966s-3.1649.87102-3.7675 1.14802c-.2536.10232-.37198.34186-.32235.60385l.15884.83835c.05956.31439.01373.64874-.21005.90825l-.12831.18714c-.181.19713-.22684.53149-.1772.79345.1619.5664.37343 1.3948.37343 1.3948-.01621.0031-.03239.0056-.04851.0075-.29827.0356-.57662-.1229-.68313-.4117l-1.14553-2.87678c-.26423-.81839-.00148-1.73662.66679-2.24318l.38187-.28946c.23371-.20711.45749-.46662.68126-.72613l.75999-1.17527c.4804-.6338 1.2937-.95073 2.101-.72373.5567.05735 1.1364-.05247 1.6336-.30951.7408-.41175 1.6764-.37189 2.418.08468l.9393.63619c.2605.22205.5537.32933.8997.42661z" fill="url(#R)"/><path d="m18.3304 3.92172.4613.12972c.8073.227 1.3877.98549 1.3983 1.9062l-.0138 3.09647c.0068.31825-.1578.56446-.4626.63021-.0059.00126-.0118.00243-.0178.00356 0 0-.116-.90074-.1626-1.4347-.0378-.4336-.1367-.54932-.6003-.86327-.2505-.16966-.4681-.45409-.5277-.76847l-.1588-.83836c-.0497-.26199-.3002-.43164-.5209-.4441-.6622-.03739-2.0292-.04977-3.9263.30966s-3.1649.87102-3.7675 1.14802c-.2536.10232-.37198.34186-.32235.60385l.15884.83835c.05956.31439.01373.64874-.21005.90825l-.12831.18714c-.181.19713-.22684.53149-.1772.79345.1619.5664.37343 1.3948.37343 1.3948-.01621.0031-.03239.0056-.04851.0075-.29827.0356-.57662-.1229-.68313-.4117l-1.14553-2.87678c-.26423-.81839-.00148-1.73662.66679-2.24318l.38187-.28946c.23371-.20711.45749-.46662.68126-.72613l.75999-1.17527c.4804-.6338 1.2937-.95073 2.101-.72373.5567.05735 1.1364-.05247 1.6336-.30951.7408-.41175 1.6764-.37189 2.418.08468l.9393.63619c.2605.22205.5537.32933.8997.42661z" fill="url(#S)"/><path d="m18.3304 3.92172.4613.12972c.8073.227 1.3877.98549 1.3983 1.9062l-.0138 3.09647c.0068.31825-.1578.56446-.4626.63021-.0059.00126-.0118.00243-.0178.00356 0 0-.116-.90074-.1626-1.4347-.0378-.4336-.1367-.54932-.6003-.86327-.2505-.16966-.4681-.45409-.5277-.76847l-.1588-.83836c-.0497-.26199-.3002-.43164-.5209-.4441-.6622-.03739-2.0292-.04977-3.9263.30966s-3.1649.87102-3.7675 1.14802c-.2536.10232-.37198.34186-.32235.60385l.15884.83835c.05956.31439.01373.64874-.21005.90825l-.12831.18714c-.181.19713-.22684.53149-.1772.79345.1619.5664.37343 1.3948.37343 1.3948-.01621.0031-.03239.0056-.04851.0075-.29827.0356-.57662-.1229-.68313-.4117l-1.14553-2.87678c-.26423-.81839-.00148-1.73662.66679-2.24318l.38187-.28946c.23371-.20711.45749-.46662.68126-.72613l.75999-1.17527c.4804-.6338 1.2937-.95073 2.101-.72373.5567.05735 1.1364-.05247 1.6336-.30951.7408-.41175 1.6764-.37189 2.418.08468l.9393.63619c.2605.22205.5537.32933.8997.42661z" fill="url(#T)"/></g><g filter="url(#h)"><path d="m14.5086 11.1135-.4896 1.8225c-.0349.3624.27.6604.6096.5961l.7243-.1372c.3397-.0644.5134-.4586.3494-.7778l-.8059-1.577c-.1749-.35-.348-.3173-.3878.0734z" fill="#87565c"/></g><g filter="url(#i)"><path d="m14.3734 10.9727-.2057 1.7687c-.0414.3636.2793.6587.6415.59l.7724-.1463c.3622-.0686.5518-.4658.3812-.7838l-.8384-1.5709c-.1819-.3487-.7039-.2498-.751.1423z" fill="#9e7764"/><path d="m14.3734 10.9727-.2057 1.7687c-.0414.3636.2793.6587.6415.59l.7724-.1463c.3622-.0686.5518-.4658.3812-.7838l-.8384-1.5709c-.1819-.3487-.7039-.2498-.751.1423z" fill="url(#U)"/><path d="m14.3734 10.9727-.2057 1.7687c-.0414.3636.2793.6587.6415.59l.7724-.1463c.3622-.0686.5518-.4658.3812-.7838l-.8384-1.5709c-.1819-.3487-.7039-.2498-.751.1423z" fill="url(#V)"/><path d="m14.3734 10.9727-.2057 1.7687c-.0414.3636.2793.6587.6415.59l.7724-.1463c.3622-.0686.5518-.4658.3812-.7838l-.8384-1.5709c-.1819-.3487-.7039-.2498-.751.1423z" fill="url(#W)"/><path d="m14.3734 10.9727-.2057 1.7687c-.0414.3636.2793.6587.6415.59l.7724-.1463c.3622-.0686.5518-.4658.3812-.7838l-.8384-1.5709c-.1819-.3487-.7039-.2498-.751.1423z" fill="url(#X)"/></g><path d="m13.9769 14.1447-.0005-.0001c-.0977-.0284-.1852.0174-.2295.0861-.0445.069-.0486.1669.0246.2392.4348.4477 1.0876.6771 1.7574.5502.6699-.1269 1.1937-.5794 1.4345-1.1553.0405-.0956.0021-.1854-.0654-.2333-.0668-.0474-.1646-.0558-.2445.0059l-.0004.0003c-.3484.2748-.7822.4766-1.278.5706-.4909.093-.9735.0647-1.3982-.0636z" fill="#88024e" stroke="url(#Y)" stroke-width=".1"/><g filter="url(#j)"><path d="m9.45305 7.29961.16707.88178c.01997.14746.02037.4857-.13785.65896" stroke="url(#Z)" stroke-linecap="round" stroke-width=".25"/></g><g filter="url(#k)"><circle cx="12.394" cy="10.6904" fill="url(#aa)" r="1.34369"/></g><g filter="url(#l)"><circle cx="16.9826" cy="9.96185" fill="url(#ab)" r="1.34369"/></g><path d="m11.4131 11.3595c.08-.01.16.01.22.06.24.19.55.28.87.22s.58-.25.73-.51c.04-.07.11-.12.19-.13.22-.04.39.2.28.4-.23.39-.63.68-1.1.77-.48.08-.95-.05-1.3-.34-.19-.14-.11-.43.11-.47z" fill="url(#ad)"/><path d="m16.0432 10.55c.08-.01.16.01.22.06.24.19.55.28.87.22s.58-.25.73-.51c.04-.07.11-.12.19-.13.22-.04.39.2.28.4-.23.39-.63.68-1.1.77-.48.08-.95-.05-1.3-.34-.19-.15-.11-.43.11-.47z" fill="url(#ae)"/><g filter="url(#m)" stroke-linecap="round" stroke-width=".1"><path d="m11.4551 11.627c.151.1406.5475.3707 1.0625.2734.5625-.1063.888-.4583.9609-.6406" stroke="url(#ag)"/><path d="m11.4551 11.627c.151.1406.5475.3707 1.0625.2734.5625-.1063.888-.4583.9609-.6406" stroke="url(#ai)"/></g><g filter="url(#n)" stroke-linecap="round" stroke-width=".1"><path d="m16.0854 10.8193c.1511.1407.5476.3707 1.0625.2735.5625-.1063.8881-.4584.961-.6407" stroke="url(#aj)"/><path d="m16.0854 10.8193c.1511.1407.5476.3707 1.0625.2735.5625-.1063.8881-.4584.961-.6407" stroke="url(#ak)"/></g><path d="m29.1449 25.7805-4.94-6.05-3.16 8.57z" fill="#58b2ec"/><path d="m2.20117 30.4407 2.92969-9.1563c.35156-1.4141 2.07031-2.1037 3.65031-1.6137 1.58003.49 2.49033 2.3325 2.00593 3.6918l-2.21593 7.0782z" fill="url(#al)"/><path d="m2.20117 30.4407 2.92969-9.1563c.35156-1.4141 2.07031-2.1037 3.65031-1.6137 1.58003.49 2.49033 2.3325 2.00593 3.6918l-2.21593 7.0782z" fill="url(#am)"/><path d="m2.20117 30.4407 2.92969-9.1563c.35156-1.4141 2.07031-2.1037 3.65031-1.6137 1.58003.49 2.49033 2.3325 2.00593 3.6918l-2.21593 7.0782z" fill="url(#an)"/><path d="m2.20117 30.4407 2.92969-9.1563c.35156-1.4141 2.07031-2.1037 3.65031-1.6137 1.58003.49 2.49033 2.3325 2.00593 3.6918l-2.21593 7.0782z" fill="url(#ao)"/><path d="m2.20117 30.4407 2.92969-9.1563c.35156-1.4141 2.07031-2.1037 3.65031-1.6137 1.58003.49 2.49033 2.3325 2.00593 3.6918l-2.21593 7.0782z" fill="url(#ap)"/><path d="m2.20117 30.4407 2.92969-9.1563c.35156-1.4141 2.07031-2.1037 3.65031-1.6137 1.58003.49 2.49033 2.3325 2.00593 3.6918l-2.21593 7.0782z" fill="url(#aq)"/><path d="m2.20117 30.4407 2.92969-9.1563c.35156-1.4141 2.07031-2.1037 3.65031-1.6137 1.58003.49 2.49033 2.3325 2.00593 3.6918l-2.21593 7.0782z" fill="url(#ar)"/><g filter="url(#o)"><path d="m21.835 24.46c-1.17-2.04-3.78-2.73-5.81-1.56l-2.43 1.4c-2.04 1.17-2.73 3.78-1.56 5.81.07.11.14.22.21.33h7.73l.3-.18c2.04-1.16 2.74-3.77 1.56-5.8z" fill="url(#as)"/><path d="m21.835 24.46c-1.17-2.04-3.78-2.73-5.81-1.56l-2.43 1.4c-2.04 1.17-2.73 3.78-1.56 5.81.07.11.14.22.21.33h7.73l.3-.18c2.04-1.16 2.74-3.77 1.56-5.8z" fill="url(#at)"/><path d="m21.835 24.46c-1.17-2.04-3.78-2.73-5.81-1.56l-2.43 1.4c-2.04 1.17-2.73 3.78-1.56 5.81.07.11.14.22.21.33h7.73l.3-.18c2.04-1.16 2.74-3.77 1.56-5.8z" fill="url(#au)"/></g><path d="m23.6945 27.5697c2.3749 0 4.3-1.9251 4.3-4.3 0-2.3748-1.9251-4.3-4.3-4.3-2.3748 0-4.3 1.9252-4.3 4.3 0 2.3749 1.9252 4.3 4.3 4.3z" fill="url(#av)"/><g filter="url(#p)"><path d="m21.5749 24.3802c-1-1.74-.66-3.88.71-5.22-.36.1-.71.25-1.04.45-1.98 1.18-2.68 3.74-1.57 5.76 1.16 2.12 3.84 2.86 5.92 1.66.32-.18.61-.41.86-.65-1.84.51-3.87-.26-4.88-2z" fill="url(#aw)"/><path d="m21.5749 24.3802c-1-1.74-.66-3.88.71-5.22-.36.1-.71.25-1.04.45-1.98 1.18-2.68 3.74-1.57 5.76 1.16 2.12 3.84 2.86 5.92 1.66.32-.18.61-.41.86-.65-1.84.51-3.87-.26-4.88-2z" fill="url(#ax)"/></g><g filter="url(#q)"><path d="m17.1796 26.1222c-.4223-.2722-.984-.1629-1.2736.2476-.2779.3943-.2112.9352.1543 1.2501l.9306.8015c.0695.0599.0284.1739-.0633.1758l-3.6434.0717c-.4822.0095-.8682.4031-.8682.8854 0 .4891.3965.8856.8856.8856h6.0597v-1.0002l1.0625-1.2264z" fill="#a77671"/><path d="m17.1796 26.1222c-.4223-.2722-.984-.1629-1.2736.2476-.2779.3943-.2112.9352.1543 1.2501l.9306.8015c.0695.0599.0284.1739-.0633.1758l-3.6434.0717c-.4822.0095-.8682.4031-.8682.8854 0 .4891.3965.8856.8856.8856h6.0597v-1.0002l1.0625-1.2264z" fill="url(#ay)"/><path d="m17.1796 26.1222c-.4223-.2722-.984-.1629-1.2736.2476-.2779.3943-.2112.9352.1543 1.2501l.9306.8015c.0695.0599.0284.1739-.0633.1758l-3.6434.0717c-.4822.0095-.8682.4031-.8682.8854 0 .4891.3965.8856.8856.8856h6.0597v-1.0002l1.0625-1.2264z" fill="url(#az)"/><path d="m17.1796 26.1222c-.4223-.2722-.984-.1629-1.2736.2476-.2779.3943-.2112.9352.1543 1.2501l.9306.8015c.0695.0599.0284.1739-.0633.1758l-3.6434.0717c-.4822.0095-.8682.4031-.8682.8854 0 .4891.3965.8856.8856.8856h6.0597v-1.0002l1.0625-1.2264z" fill="url(#aA)"/><path d="m17.1796 26.1222c-.4223-.2722-.984-.1629-1.2736.2476-.2779.3943-.2112.9352.1543 1.2501l.9306.8015c.0695.0599.0284.1739-.0633.1758l-3.6434.0717c-.4822.0095-.8682.4031-.8682.8854 0 .4891.3965.8856.8856.8856h6.0597v-1.0002l1.0625-1.2264z" fill="url(#aB)"/></g><path d="m18.998 27.2232c0-.0828.0672-.15.15-.15h.643v3.3672h-.793z" fill="url(#aC)"/><path d="m18.998 27.2232c0-.0828.0672-.15.15-.15h.643v3.3672h-.793z" fill="url(#aD)"/><path d="m20.6152 26.2173c1.5977-.2305 4.5664-.8086 6.543-1.2695 1.5221-.2631 2.6406 1.2031 2.6406 2.7809 0 1.3713-1.0224 2.2364-1.7466 2.6183-.124.0654-.2634.0929-.4036.0929h-8.0138v-3.0859c0-.7969.2812-1 .9804-1.1367z" fill="url(#aE)"/><path d="m20.6152 26.2173c1.5977-.2305 4.5664-.8086 6.543-1.2695 1.5221-.2631 2.6406 1.2031 2.6406 2.7809 0 1.3713-1.0224 2.2364-1.7466 2.6183-.124.0654-.2634.0929-.4036.0929h-8.0138v-3.0859c0-.7969.2812-1 .9804-1.1367z" fill="url(#aF)"/><path d="m10.2139 22.127c-.28378.8799-1.44787 1.2921-2.60012.9206-1.15224-.3716-1.7926-1.1778-1.57256-2.2661.17955-.888.88322-1.7501 2.7381-1.2396 1.15224.3715 1.71828 1.7051 1.43458 2.5851z" fill="url(#aG)"/><path d="m10.2139 22.127c-.28378.8799-1.44787 1.2921-2.60012.9206-1.15224-.3716-1.7926-1.1778-1.57256-2.2661.17955-.888.88322-1.7501 2.7381-1.2396 1.15224.3715 1.71828 1.7051 1.43458 2.5851z" fill="url(#aH)"/><path d="m10.2139 22.127c-.28378.8799-1.44787 1.2921-2.60012.9206-1.15224-.3716-1.7926-1.1778-1.57256-2.2661.17955-.888.88322-1.7501 2.7381-1.2396 1.15224.3715 1.71828 1.7051 1.43458 2.5851z" fill="url(#aI)"/><path d="m11.8451 21.0402-.46-.5c-.28-.3-.68-.48-1.09-.49-.41996-.01-.81996.16-1.10996.46l-.17.18.53-.95c.22-.39.58996-.66 1.01996-.74s.88.03 1.23.3l.99.8c.33.27.38.75.12 1.09-.21.26-.56.35-.85.24-.03-.13-.1-.27-.21-.39z" fill="url(#aK)"/><path d="m10.565 19.0102c-.28.05-.54.19-.74005.38.01-.05.02-.1.04-.15l.12-.33c.28005-.78 1.09005-1.27 1.91005-1.15l1.66.23c.42.06.72.45.66.87s-.45.72-.87.66l-1.57-.22c-.34-.26-.78-.37-1.21-.29z" fill="url(#aL)"/><path d="m15.5292 18.3057.555.1593c.0796.0228.1257.1059.1028.1855l-.7836 2.7298c-.0229.0796-.1059.1256-.1856.1028l-.555-.1593z" fill="url(#aM)"/><path d="m15.5292 18.3057.555.1593c.0796.0228.1257.1059.1028.1855l-.7836 2.7298c-.0229.0796-.1059.1256-.1856.1028l-.555-.1593z" fill="url(#aN)"/><path d="m15.5292 18.3057.555.1593c.0796.0228.1257.1059.1028.1855l-.7836 2.7298c-.0229.0796-.1059.1256-.1856.1028l-.555-.1593z" fill="url(#aO)"/><g filter="url(#r)"><path d="m7.78076 23.4717c.57813.1406 1.91875.1719 2.65624-.8281" stroke="url(#aP)" stroke-linecap="round" stroke-width=".4"/></g><path d="m11.9386 16.4746 3.172.884c.4297.125.7443.5584.6274.9596l-.8994 3.0861c-.1154.3961-.5327.6066-1.0249.4738l-3.1286-.8832z" fill="url(#aQ)"/><path d="m11.9386 16.4746 3.172.884c.4297.125.7443.5584.6274.9596l-.8994 3.0861c-.1154.3961-.5327.6066-1.0249.4738l-3.1286-.8832z" fill="url(#aR)"/><path d="m14.8257 17.5382-2.6356-.7345-1.0734 3.8951 2.5996.7338c.409.1104.7557-.0645.8516-.3936l.7791-2.7034c.1232-.3912-.1643-.6936-.5213-.7974z" fill="url(#aS)"/><g filter="url(#s)"><path d="m12.1666 16.9053 2.6356.7344c.3571.1039.6446.4063.5213.7974l-.779 2.7034c-.0959.3291-.4427.504-.8516.3937l-2.5996-.7339z" fill="url(#aT)"/><path d="m12.1666 16.9053 2.6356.7344c.3571.1039.6446.4063.5213.7974l-.779 2.7034c-.0959.3291-.4427.504-.8516.3937l-2.5996-.7339z" fill="url(#aU)"/><path d="m12.1666 16.9053 2.6356.7344c.3571.1039.6446.4063.5213.7974l-.779 2.7034c-.0959.3291-.4427.504-.8516.3937l-2.5996-.7339z" fill="url(#aV)"/></g><path d="m8.13037 17.6826c1.03125-1.0859 1.91923-1.3698 2.32033-1.375l.7969.8672-.9297 3.5156c-.1797.3151-.56409.9961-.69534 1.1524-.16406.1953-.73489.6302-1.76563.2383-.8875-.3375-1.14974-.8985-1.17578-1.1485.23348-1.1674.64898-2.3579 1.44922-3.25z" fill="url(#aW)"/><path d="m8.13037 17.6826c1.03125-1.0859 1.91923-1.3698 2.32033-1.375l.7969.8672-.9297 3.5156c-.1797.3151-.56409.9961-.69534 1.1524-.16406.1953-.73489.6302-1.76563.2383-.8875-.3375-1.14974-.8985-1.17578-1.1485.23348-1.1674.64898-2.3579 1.44922-3.25z" fill="url(#aX)"/><path d="m8.13037 17.6826c1.03125-1.0859 1.91923-1.3698 2.32033-1.375l.7969.8672-.9297 3.5156c-.1797.3151-.56409.9961-.69534 1.1524-.16406.1953-.73489.6302-1.76563.2383-.8875-.3375-1.14974-.8985-1.17578-1.1485.23348-1.1674.64898-2.3579 1.44922-3.25z" fill="url(#aY)"/><path d="m8.13037 17.6826c1.03125-1.0859 1.91923-1.3698 2.32033-1.375l.7969.8672-.9297 3.5156c-.1797.3151-.56409.9961-.69534 1.1524-.16406.1953-.73489.6302-1.76563.2383-.8875-.3375-1.14974-.8985-1.17578-1.1485.23348-1.1674.64898-2.3579 1.44922-3.25z" fill="url(#aZ)"/><path d="m10.0991 16.9014c.3562.125.4815.3307.5154.4531l.4453.3906 2.2918.3621c.5434.0859 1.0399-.3219 1.0614-.8716.0204-.5228-.3989-.9564-.9221-.9504-1.1743.0135-2.6873.0358-3.044.0263-.58597-.0156-.79314.4336-.3478.5899z" fill="#a37e69"/><path d="m10.0991 16.9014c.3562.125.4815.3307.5154.4531l.4453.3906 2.2918.3621c.5434.0859 1.0399-.3219 1.0614-.8716.0204-.5228-.3989-.9564-.9221-.9504-1.1743.0135-2.6873.0358-3.044.0263-.58597-.0156-.79314.4336-.3478.5899z" fill="url(#a0)"/><path d="m10.0991 16.9014c.3562.125.4815.3307.5154.4531l.4453.3906 2.2918.3621c.5434.0859 1.0399-.3219 1.0614-.8716.0204-.5228-.3989-.9564-.9221-.9504-1.1743.0135-2.6873.0358-3.044.0263-.58597-.0156-.79314.4336-.3478.5899z" fill="url(#a1)"/><path d="m9.66946 17.8232c.24375.25.33074.526.34374.6328l.4844.4688 2.3412.4074c.4723.0822.925-.2241 1.0245-.6931.1095-.5161-.2507-1.015-.7745-1.0787-1.0897-.1326-2.4196-.3054-2.7787-.3466-.6132-.0703-.94533.2969-.64064.6094z" fill="#a8836a"/><path d="m9.66946 17.8232c.24375.25.33074.526.34374.6328l.4844.4688 2.3412.4074c.4723.0822.925-.2241 1.0245-.6931.1095-.5161-.2507-1.015-.7745-1.0787-1.0897-.1326-2.4196-.3054-2.7787-.3466-.6132-.0703-.94533.2969-.64064.6094z" fill="url(#a2)"/><path d="m9.66946 17.8232c.24375.25.33074.526.34374.6328l.4844.4688 2.3412.4074c.4723.0822.925-.2241 1.0245-.6931.1095-.5161-.2507-1.015-.7745-1.0787-1.0897-.1326-2.4196-.3054-2.7787-.3466-.6132-.0703-.94533.2969-.64064.6094z" fill="url(#a3)"/><path d="m9.66946 17.8232c.24375.25.33074.526.34374.6328l.4844.4688 2.3412.4074c.4723.0822.925-.2241 1.0245-.6931.1095-.5161-.2507-1.015-.7745-1.0787-1.0897-.1326-2.4196-.3054-2.7787-.3466-.6132-.0703-.94533.2969-.64064.6094z" fill="url(#a4)"/><path d="m8.52116 18.9205c-.00937-.1562.08464-.2448.13281-.2695.98129-.6906 2.00523-.3047 2.38273 0 .3047.2357 1 .7891 1.3633 1.082.4462.3598.3722.9611.043 1.3164-.276.2979-.7513.2409-.9297.1485l-2.09765-1.3125c-.05469-.3125-.23438-.5625-.48047-.6367-.24609-.0743-.4023-.1328-.41402-.3282z" fill="url(#a5)"/><path d="m8.52116 18.9205c-.00937-.1562.08464-.2448.13281-.2695.98129-.6906 2.00523-.3047 2.38273 0 .3047.2357 1 .7891 1.3633 1.082.4462.3598.3722.9611.043 1.3164-.276.2979-.7513.2409-.9297.1485l-2.09765-1.3125c-.05469-.3125-.23438-.5625-.48047-.6367-.24609-.0743-.4023-.1328-.41402-.3282z" fill="url(#a6)"/><path d="m8.52116 18.9205c-.00937-.1562.08464-.2448.13281-.2695.98129-.6906 2.00523-.3047 2.38273 0 .3047.2357 1 .7891 1.3633 1.082.4462.3598.3722.9611.043 1.3164-.276.2979-.7513.2409-.9297.1485l-2.09765-1.3125c-.05469-.3125-.23438-.5625-.48047-.6367-.24609-.0743-.4023-.1328-.41402-.3282z" fill="url(#a7)"/><path d="m8.52116 18.9205c-.00937-.1562.08464-.2448.13281-.2695.98129-.6906 2.00523-.3047 2.38273 0 .3047.2357 1 .7891 1.3633 1.082.4462.3598.3722.9611.043 1.3164-.276.2979-.7513.2409-.9297.1485l-2.09765-1.3125c-.05469-.3125-.23438-.5625-.48047-.6367-.24609-.0743-.4023-.1328-.41402-.3282z" fill="url(#a8)"/><path d="m8.85686 21.37c-.31463.2202-.7227.2109-.90627-.1094-.39122-.948.72117-1.5794 1.4999-1.5977 1.16791-.0273 1.75011.6289 1.93761 1.1211s.2266 1.4766-.6719 1.5391c-.8038.0559-.84767-.5-.98048-.7422s-.59366-.4106-.87886-.2109z" fill="url(#a9)"/><path d="m8.85686 21.37c-.31463.2202-.7227.2109-.90627-.1094-.39122-.948.72117-1.5794 1.4999-1.5977 1.16791-.0273 1.75011.6289 1.93761 1.1211s.2266 1.4766-.6719 1.5391c-.8038.0559-.84767-.5-.98048-.7422s-.59366-.4106-.87886-.2109z" fill="url(#ba)"/><path d="m8.85686 21.37c-.31463.2202-.7227.2109-.90627-.1094-.39122-.948.72117-1.5794 1.4999-1.5977 1.16791-.0273 1.75011.6289 1.93761 1.1211s.2266 1.4766-.6719 1.5391c-.8038.0559-.84767-.5-.98048-.7422s-.59366-.4106-.87886-.2109z" fill="url(#bb)"/><path d="m8.85686 21.37c-.31463.2202-.7227.2109-.90627-.1094-.39122-.948.72117-1.5794 1.4999-1.5977 1.16791-.0273 1.75011.6289 1.93761 1.1211s.2266 1.4766-.6719 1.5391c-.8038.0559-.84767-.5-.98048-.7422s-.59366-.4106-.87886-.2109z" fill="url(#bc)"/><path d="m8.85686 21.37c-.31463.2202-.7227.2109-.90627-.1094-.39122-.948.72117-1.5794 1.4999-1.5977 1.16791-.0273 1.75011.6289 1.93761 1.1211s.2266 1.4766-.6719 1.5391c-.8038.0559-.84767-.5-.98048-.7422s-.59366-.4106-.87886-.2109z" fill="url(#bd)"/><path d="m15.4536 21.2062.2273.0682c.1735.052.3615.0062.4916-.1199l.3637-.3523c.0338-.0328.0824-.0455.128-.0333l.3148.084c.2614.0697.5293-.0881.5949-.3506.0639-.2557-.0882-.5155-.3424-.5849l-.3031-.0827c-.051-.014-.089-.0565-.0972-.1087l-.0692-.4395c-.0306-.1939-.1717-.352-.3609-.4042l-.2598-.0718z" fill="url(#be)"/><path d="m15.4536 21.2062.2273.0682c.1735.052.3615.0062.4916-.1199l.3637-.3523c.0338-.0328.0824-.0455.128-.0333l.3148.084c.2614.0697.5293-.0881.5949-.3506.0639-.2557-.0882-.5155-.3424-.5849l-.3031-.0827c-.051-.014-.089-.0565-.0972-.1087l-.0692-.4395c-.0306-.1939-.1717-.352-.3609-.4042l-.2598-.0718z" fill="url(#bf)"/><path d="m15.4536 21.2062.2273.0682c.1735.052.3615.0062.4916-.1199l.3637-.3523c.0338-.0328.0824-.0455.128-.0333l.3148.084c.2614.0697.5293-.0881.5949-.3506.0639-.2557-.0882-.5155-.3424-.5849l-.3031-.0827c-.051-.014-.089-.0565-.0972-.1087l-.0692-.4395c-.0306-.1939-.1717-.352-.3609-.4042l-.2598-.0718z" fill="url(#bg)"/><path d="m15.4536 21.2062.2273.0682c.1735.052.3615.0062.4916-.1199l.3637-.3523c.0338-.0328.0824-.0455.128-.0333l.3148.084c.2614.0697.5293-.0881.5949-.3506.0639-.2557-.0882-.5155-.3424-.5849l-.3031-.0827c-.051-.014-.089-.0565-.0972-.1087l-.0692-.4395c-.0306-.1939-.1717-.352-.3609-.4042l-.2598-.0718z" fill="url(#bh)"/><g filter="url(#t)"><path d="m6.59312 20.1904c-.20573.4323-.31875 1.4485.875 2.0547 1.19375.6063 1.9922.1485 2.24221-.1562" stroke="url(#bi)" stroke-linecap="round" stroke-width=".2"/></g><g filter="url(#u)" opacity=".5"><path d="m16.874 26.7305 1.6343 1.1409" stroke="#c19885" stroke-linecap="round" stroke-width=".5"/></g><g filter="url(#v)" opacity=".5"><path d="m13.2461 29.5361h3.5356" stroke="#ba8c83" stroke-linecap="round" stroke-width=".4"/></g><g filter="url(#w)"><path d="m17.9499 7.81781-.0014-.00078-.0021-.00116-.0051-.00275-.0135-.00714c-.0106-.00545-.0241-.01222-.0404-.02002-.0327-.01559-.077-.03535-.1318-.05677-.1094-.04274-.2628-.09277-.4516-.12894-.3791-.07261-.904-.08952-1.4959.12242-.2775.09935-.4219.40483-.3225.6823.0993.27747.4048.42187.6823.32251.3791-.13574.7057-.12298.9353-.07899.1156.02213.2059.05214.2641.07485.029.01131.0495.02063.0606.02595.0047.00221.0076.00371.0089.00435.2567.13918.5783.04601.7206-.20986.1432-.25758.0501-.58274-.2075-.72597z" fill="#4c3230"/><path d="m17.9499 7.81781-.0014-.00078-.0021-.00116-.0051-.00275-.0135-.00714c-.0106-.00545-.0241-.01222-.0404-.02002-.0327-.01559-.077-.03535-.1318-.05677-.1094-.04274-.2628-.09277-.4516-.12894-.3791-.07261-.904-.08952-1.4959.12242-.2775.09935-.4219.40483-.3225.6823.0993.27747.4048.42187.6823.32251.3791-.13574.7057-.12298.9353-.07899.1156.02213.2059.05214.2641.07485.029.01131.0495.02063.0606.02595.0047.00221.0076.00371.0089.00435.2567.13918.5783.04601.7206-.20986.1432-.25758.0501-.58274-.2075-.72597z" fill="url(#bk)"/></g><g filter="url(#x)"><path d="m10.5884 9.21267.0007-.00077.0007-.00084.0015-.00186.0037-.00442.0101-.0116c.0078-.00892.0178-.02016.0302-.0334.0247-.02646.0587-.06105.1019-.10105.0862-.07981.2106-.18245.3731-.28518.3263-.20625.8086-.41401 1.437-.43327.2946-.00903.5408.22246.5498.51705s-.2225.54071-.5171.54974c-.4025.01234-.7017.14368-.8994.26863-.0994.06286-.1726.12384-.2184.16626-.0228.02111-.0385.03729-.0469.04631-.0035.00376-.0057.00624-.0067.0073-.188.22343-.5214.25433-.7474.06827-.2275-.18733-.2601-.52364-.0728-.75117z" fill="#4c3230"/><path d="m10.5884 9.21267.0007-.00077.0007-.00084.0015-.00186.0037-.00442.0101-.0116c.0078-.00892.0178-.02016.0302-.0334.0247-.02646.0587-.06105.1019-.10105.0862-.07981.2106-.18245.3731-.28518.3263-.20625.8086-.41401 1.437-.43327.2946-.00903.5408.22246.5498.51705s-.2225.54071-.5171.54974c-.4025.01234-.7017.14368-.8994.26863-.0994.06286-.1726.12384-.2184.16626-.0228.02111-.0385.03729-.0469.04631-.0035.00376-.0057.00624-.0067.0073-.188.22343-.5214.25433-.7474.06827-.2275-.18733-.2601-.52364-.0728-.75117z" fill="url(#bl)"/></g><g filter="url(#y)"><path d="m15.8941 8.102c.4086-.154 1.2365-.28898 1.891.04662" stroke="url(#bn)" stroke-linecap="round" stroke-width=".25"/></g><g filter="url(#z)"><path d="m10.8688 9.53966c.2676-.34497.9128-.77706 1.8091-.80322" stroke="url(#bo)" stroke-linecap="round" stroke-width=".25"/></g></svg>