<svg fill="none" height="32" viewBox="0 0 32 32" width="32" xmlns="http://www.w3.org/2000/svg" xmlns:xlink="http://www.w3.org/1999/xlink"><filter id="a" color-interpolation-filters="sRGB" filterUnits="userSpaceOnUse" height="21.0025" width="21.2388" x="2.18865" y="8.75759"><feFlood flood-opacity="0" result="BackgroundImageFix"/><feBlend in="SourceGraphic" in2="BackgroundImageFix" mode="normal" result="shape"/><feColorMatrix in="SourceAlpha" result="hardAlpha" type="matrix" values="0 0 0 0 0 0 0 0 0 0 0 0 0 0 0 0 0 0 127 0"/><feOffset dx=".3" dy="-.15"/><feGaussianBlur stdDeviation=".25"/><feComposite in2="hardAlpha" k2="-1" k3="1" operator="arithmetic"/><feColorMatrix type="matrix" values="0 0 0 0 0.388235 0 0 0 0 0.254902 0 0 0 0 0.298039 0 0 0 1 0"/><feBlend in2="shape" mode="normal" result="effect1_innerShadow_18_18800"/><feColorMatrix in="SourceAlpha" result="hardAlpha" type="matrix" values="0 0 0 0 0 0 0 0 0 0 0 0 0 0 0 0 0 0 127 0"/><feOffset dx="-.3" dy=".15"/><feGaussianBlur stdDeviation=".25"/><feComposite in2="hardAlpha" k2="-1" k3="1" operator="arithmetic"/><feColorMatrix type="matrix" values="0 0 0 0 0.678431 0 0 0 0 0.505882 0 0 0 0 0.462745 0 0 0 1 0"/><feBlend in2="effect1_innerShadow_18_18800" mode="normal" result="effect2_innerShadow_18_18800"/></filter><filter id="b" color-interpolation-filters="sRGB" filterUnits="userSpaceOnUse" height="6.6792" width="6.71094" x="15.3274" y="9.97705"><feFlood flood-opacity="0" result="BackgroundImageFix"/><feBlend in="SourceGraphic" in2="BackgroundImageFix" mode="normal" result="shape"/><feGaussianBlur result="effect1_foregroundBlur_18_18800" stdDeviation=".25"/></filter><filter id="c" color-interpolation-filters="sRGB" filterUnits="userSpaceOnUse" height="11.2714" width="10.6403" x="16" y="5.02861"><feFlood flood-opacity="0" result="BackgroundImageFix"/><feBlend in="SourceGraphic" in2="BackgroundImageFix" mode="normal" result="shape"/><feColorMatrix in="SourceAlpha" result="hardAlpha" type="matrix" values="0 0 0 0 0 0 0 0 0 0 0 0 0 0 0 0 0 0 127 0"/><feOffset dy="-.3"/><feGaussianBlur stdDeviation=".15"/><feComposite in2="hardAlpha" k2="-1" k3="1" operator="arithmetic"/><feColorMatrix type="matrix" values="0 0 0 0 0.223529 0 0 0 0 0.141176 0 0 0 0 0.266667 0 0 0 1 0"/><feBlend in2="shape" mode="normal" result="effect1_innerShadow_18_18800"/><feColorMatrix in="SourceAlpha" result="hardAlpha" type="matrix" values="0 0 0 0 0 0 0 0 0 0 0 0 0 0 0 0 0 0 127 0"/><feOffset dy=".3"/><feGaussianBlur stdDeviation=".15"/><feComposite in2="hardAlpha" k2="-1" k3="1" operator="arithmetic"/><feColorMatrix type="matrix" values="0 0 0 0 0.207843 0 0 0 0 0.156863 0 0 0 0 0.168627 0 0 0 1 0"/><feBlend in2="effect1_innerShadow_18_18800" mode="normal" result="effect2_innerShadow_18_18800"/></filter><filter id="d" color-interpolation-filters="sRGB" filterUnits="userSpaceOnUse" height="5.23665" width="4.90076" x="24.5342" y="2.15544"><feFlood flood-opacity="0" result="BackgroundImageFix"/><feBlend in="SourceGraphic" in2="BackgroundImageFix" mode="normal" result="shape"/><feColorMatrix in="SourceAlpha" result="hardAlpha" type="matrix" values="0 0 0 0 0 0 0 0 0 0 0 0 0 0 0 0 0 0 127 0"/><feOffset dy="-.3"/><feGaussianBlur stdDeviation=".375"/><feComposite in2="hardAlpha" k2="-1" k3="1" operator="arithmetic"/><feColorMatrix type="matrix" values="0 0 0 0 0.372549 0 0 0 0 0.2 0 0 0 0 0.298039 0 0 0 1 0"/><feBlend in2="shape" mode="normal" result="effect1_innerShadow_18_18800"/></filter><filter id="e" color-interpolation-filters="sRGB" filterUnits="userSpaceOnUse" height="5.28786" width="5.17131" x="4.18384" y="22.7223"><feFlood flood-opacity="0" result="BackgroundImageFix"/><feBlend in="SourceGraphic" in2="BackgroundImageFix" mode="normal" result="shape"/><feColorMatrix in="SourceAlpha" result="hardAlpha" type="matrix" values="0 0 0 0 0 0 0 0 0 0 0 0 0 0 0 0 0 0 127 0"/><feOffset dy="-.15"/><feGaussianBlur stdDeviation=".075"/><feComposite in2="hardAlpha" k2="-1" k3="1" operator="arithmetic"/><feColorMatrix type="matrix" values="0 0 0 0 0.298039 0 0 0 0 0.184314 0 0 0 0 0.376471 0 0 0 1 0"/><feBlend in2="shape" mode="normal" result="effect1_innerShadow_18_18800"/><feColorMatrix in="SourceAlpha" result="hardAlpha" type="matrix" values="0 0 0 0 0 0 0 0 0 0 0 0 0 0 0 0 0 0 127 0"/><feOffset dx=".08" dy=".08"/><feGaussianBlur stdDeviation=".075"/><feComposite in2="hardAlpha" k2="-1" k3="1" operator="arithmetic"/><feColorMatrix type="matrix" values="0 0 0 0 0.266667 0 0 0 0 0.207843 0 0 0 0 0.309804 0 0 0 1 0"/><feBlend in2="effect1_innerShadow_18_18800" mode="normal" result="effect2_innerShadow_18_18800"/></filter><filter id="f" color-interpolation-filters="sRGB" filterUnits="userSpaceOnUse" height="6.21936" width="6.17249" x="3.81348" y="21.9519"><feFlood flood-opacity="0" result="BackgroundImageFix"/><feBlend in="SourceGraphic" in2="BackgroundImageFix" mode="normal" result="shape"/><feGaussianBlur result="effect1_foregroundBlur_18_18800" stdDeviation=".375"/></filter><filter id="g" color-interpolation-filters="sRGB" filterUnits="userSpaceOnUse" height="5.28786" width="5.17131" x="4.18384" y="22.7223"><feFlood flood-opacity="0" result="BackgroundImageFix"/><feBlend in="SourceGraphic" in2="BackgroundImageFix" mode="normal" result="shape"/><feColorMatrix in="SourceAlpha" result="hardAlpha" type="matrix" values="0 0 0 0 0 0 0 0 0 0 0 0 0 0 0 0 0 0 127 0"/><feOffset dy="-.15"/><feGaussianBlur stdDeviation=".075"/><feComposite in2="hardAlpha" k2="-1" k3="1" operator="arithmetic"/><feColorMatrix type="matrix" values="0 0 0 0 0.298039 0 0 0 0 0.184314 0 0 0 0 0.376471 0 0 0 1 0"/><feBlend in2="shape" mode="normal" result="effect1_innerShadow_18_18800"/><feColorMatrix in="SourceAlpha" result="hardAlpha" type="matrix" values="0 0 0 0 0 0 0 0 0 0 0 0 0 0 0 0 0 0 127 0"/><feOffset dx=".08" dy=".08"/><feGaussianBlur stdDeviation=".075"/><feComposite in2="hardAlpha" k2="-1" k3="1" operator="arithmetic"/><feColorMatrix type="matrix" values="0 0 0 0 0.266667 0 0 0 0 0.207843 0 0 0 0 0.309804 0 0 0 1 0"/><feBlend in2="effect1_innerShadow_18_18800" mode="normal" result="effect2_innerShadow_18_18800"/></filter><filter id="h" color-interpolation-filters="sRGB" filterUnits="userSpaceOnUse" height="4.95679" width="1.75977" x="13.4274" y="19.3403"><feFlood flood-opacity="0" result="BackgroundImageFix"/><feBlend in="SourceGraphic" in2="BackgroundImageFix" mode="normal" result="shape"/><feColorMatrix in="SourceAlpha" result="hardAlpha" type="matrix" values="0 0 0 0 0 0 0 0 0 0 0 0 0 0 0 0 0 0 127 0"/><feOffset/><feGaussianBlur stdDeviation=".125"/><feComposite in2="hardAlpha" k2="-1" k3="1" operator="arithmetic"/><feColorMatrix type="matrix" values="0 0 0 0 0.137255 0 0 0 0 0.117647 0 0 0 0 0.145098 0 0 0 1 0"/><feBlend in2="shape" mode="normal" result="effect1_innerShadow_18_18800"/></filter><filter id="i" color-interpolation-filters="sRGB" filterUnits="userSpaceOnUse" height="1.72424" width="4.9624" x="7.81079" y="16.9332"><feFlood flood-opacity="0" result="BackgroundImageFix"/><feBlend in="SourceGraphic" in2="BackgroundImageFix" mode="normal" result="shape"/><feColorMatrix in="SourceAlpha" result="hardAlpha" type="matrix" values="0 0 0 0 0 0 0 0 0 0 0 0 0 0 0 0 0 0 127 0"/><feOffset/><feGaussianBlur stdDeviation=".125"/><feComposite in2="hardAlpha" k2="-1" k3="1" operator="arithmetic"/><feColorMatrix type="matrix" values="0 0 0 0 0.137255 0 0 0 0 0.117647 0 0 0 0 0.145098 0 0 0 1 0"/><feBlend in2="shape" mode="normal" result="effect1_innerShadow_18_18800"/></filter><linearGradient id="j" gradientUnits="userSpaceOnUse" x1="21.7184" x2="7.0934" y1="12.4224" y2="28.4224"><stop offset="0" stop-color="#9a6460"/><stop offset="1" stop-color="#7b4e49"/></linearGradient><linearGradient id="k" gradientUnits="userSpaceOnUse" x1="18.3434" x2="23.6872" y1="14.2974" y2="8.67236"><stop offset="0" stop-color="#433e4a"/><stop offset="1" stop-color="#503f60"/></linearGradient><linearGradient id="l" gradientUnits="userSpaceOnUse" x1="25.7106" x2="25.0153" y1="6.45361" y2="7.14111"><stop offset=".179159" stop-color="#37234a"/><stop offset="1" stop-color="#504060" stop-opacity="0"/></linearGradient><radialGradient id="m" cx="0" cy="0" gradientTransform="matrix(-.9374903 .92188045 -1.97369724 -2.00711709 28.4841 4.35992)" gradientUnits="userSpaceOnUse" r="1"><stop offset="0" stop-color="#b08378"/><stop offset="1" stop-color="#a37062" stop-opacity="0"/></radialGradient><linearGradient id="n" gradientUnits="userSpaceOnUse" x1="24.5342" x2="27.0935" y1="3.51617" y2="4.92377"><stop offset=".132615" stop-color="#562c26"/><stop offset="1" stop-color="#7d4e49" stop-opacity="0"/></linearGradient><linearGradient id="o"><stop offset="0" stop-color="#3e2455"/><stop offset="1" stop-color="#3c2943"/></linearGradient><radialGradient id="p" cx="0" cy="0" gradientTransform="matrix(0 -.921875 .851563 0 27.8167 8.15283)" gradientUnits="userSpaceOnUse" r="1" xlink:href="#o"/><linearGradient id="q"><stop offset="0" stop-color="#655d6e"/><stop offset="1" stop-color="#655d6e" stop-opacity="0"/></linearGradient><radialGradient id="r" cx="0" cy="0" gradientTransform="matrix(-.39843644 .44140727 -.44140727 -.39843644 28.1566 7.52002)" gradientUnits="userSpaceOnUse" r="1" xlink:href="#q"/><radialGradient id="s" cx="0" cy="0" gradientTransform="matrix(0 -.921875 .851563 0 24.2732 4.54736)" gradientUnits="userSpaceOnUse" r="1" xlink:href="#o"/><radialGradient id="t" cx="0" cy="0" gradientTransform="matrix(-.39843644 .44140727 -.44140727 -.39843644 24.613 3.91455)" gradientUnits="userSpaceOnUse" r="1" xlink:href="#q"/><radialGradient id="u" cx="0" cy="0" gradientTransform="matrix(0 -.921875 .851563 0 29.3089 7.01221)" gradientUnits="userSpaceOnUse" r="1" xlink:href="#o"/><radialGradient id="v" cx="0" cy="0" gradientTransform="matrix(-.39843644 .44140727 -.44140727 -.39843644 29.6488 6.37939)" gradientUnits="userSpaceOnUse" r="1" xlink:href="#q"/><radialGradient id="w" cx="0" cy="0" gradientTransform="matrix(0 -.921875 .851563 0 25.3903 3.08252)" gradientUnits="userSpaceOnUse" r="1" xlink:href="#o"/><radialGradient id="x" cx="0" cy="0" gradientTransform="matrix(-.39843644 .44140727 -.44140727 -.39843644 25.7302 2.44971)" gradientUnits="userSpaceOnUse" r="1" xlink:href="#q"/><linearGradient id="y" gradientUnits="userSpaceOnUse" x1="9.46844" x2="10.0934" y1="20.8287" y2="24.0863"><stop offset="0" stop-color="#df935d"/><stop offset="1" stop-color="#f1be92"/></linearGradient><linearGradient id="z" gradientUnits="userSpaceOnUse" x1="8.34344" x2="5.06219" y1="24.2036" y2="27.4224"><stop offset=".526882" stop-color="#685779"/><stop offset="1" stop-color="#43384e"/></linearGradient><linearGradient id="A" gradientUnits="userSpaceOnUse" x1="8.39031" x2="8.08953" y1="23.9849" y2="24.2778"><stop offset=".451532" stop-color="#6f5f7b"/><stop offset="1" stop-color="#6f5f7b" stop-opacity="0"/></linearGradient><radialGradient id="B" cx="0" cy="0" gradientTransform="matrix(-.60937198 -2.21729836 3.00411525 -.82560997 5.28091 25.0616)" gradientUnits="userSpaceOnUse" r="1"><stop offset=".610981" stop-color="#472b32"/><stop offset="1" stop-color="#472b32" stop-opacity="0"/></radialGradient><g filter="url(#a)"><path d="m14.4378 9.88059c1.2575-1.28075 3.3152-1.29955 4.596-.04199l3.1207 3.0642c1.2807 1.2576 1.2995 3.3153.042 4.596l-2.7738 2.8249c-.1548.1576-.408.16-.5657.0052l-.2854-.2803c-.7636-.5304-1.8206-.4496-2.4939.2362-.7513.7651-.7409 1.9939.0226 2.7462l-.0063.0002.6972.6846c.2956.2902.2999.765.0097 1.0606l-3.3498 3.4116c-1.838 1.8718-4.84541 1.8993-6.71727.0614l-2.82312-2.772c-1.87186-1.838-1.89933-4.8454-.06136-6.7173l3.34985-3.4116c.29021-.2956.76506-.2999 1.06062-.0097l.7372.7239.00167-.0048c.76671.7528 1.99851.7416 2.75131-.0251.6687-.681.7346-1.7289.2038-2.4822l-.2846-.2794c-.1577-.1548-.16-.4081-.0052-.5657z" fill="url(#j)"/></g><g filter="url(#b)"><path d="m21.5383 12.6016-2.949 3.3071c-.2843.315-.773.3316-1.0781.0367l-1.4551-1.4068c-.3106-.3003-.3039-.8002.0145-1.0921l3.304-2.9694z" fill="#6c4043"/></g><g filter="url(#c)"><path d="m24.9293 5.32861 1.711 1.69532-7.8784 8.72857c-.2843.3149-.773.3316-1.0781.0367l-1.4551-1.4068c-.3106-.3003-.3039-.8002.0145-1.0921z" fill="url(#k)"/><path d="m24.9293 5.32861 1.711 1.69532-7.8784 8.72857c-.2843.3149-.773.3316-1.0781.0367l-1.4551-1.4068c-.3106-.3003-.3039-.8002.0145-1.0921z" fill="url(#l)"/></g><g filter="url(#d)"><path d="m25.7743 2.99656c.445-.64621 1.3683-.72749 1.9194-.16895l1.381 1.39982c.5441.55154.4606 1.46017-.175 1.90327l-1.6159 1.12662c-.3011.2099-.7098.17109-.966-.09173l-1.5707-1.61136c-.25-.25646-.2837-.65389-.0806-.94886z" fill="#825250"/><path d="m25.7743 2.99656c.445-.64621 1.3683-.72749 1.9194-.16895l1.381 1.39982c.5441.55154.4606 1.46017-.175 1.90327l-1.6159 1.12662c-.3011.2099-.7098.17109-.966-.09173l-1.5707-1.61136c-.25-.25646-.2837-.65389-.0806-.94886z" fill="url(#m)"/><path d="m25.7743 2.99656c.445-.64621 1.3683-.72749 1.9194-.16895l1.381 1.39982c.5441.55154.4606 1.46017-.175 1.90327l-1.6159 1.12662c-.3011.2099-.7098.17109-.966-.09173l-1.5707-1.61136c-.25-.25646-.2837-.65389-.0806-.94886z" fill="url(#n)"/></g><circle cx="27.8824" cy="7.58252" fill="url(#p)" r=".660156"/><circle cx="27.8824" cy="7.58252" fill="url(#r)" r=".660156"/><circle cx="24.3389" cy="3.97705" fill="url(#s)" r=".660156"/><circle cx="24.3389" cy="3.97705" fill="url(#t)" r=".660156"/><circle cx="29.3746" cy="6.44189" fill="url(#u)" r=".660156"/><circle cx="29.3746" cy="6.44189" fill="url(#v)" r=".660156"/><circle cx="25.4561" cy="2.51221" fill="url(#w)" r=".660156"/><circle cx="25.4561" cy="2.51221" fill="url(#x)" r=".660156"/><path d="m8.18911 20.7877c.3096-.3096.81157-.3096 1.12117 0l1.94522 1.9453c.3096.3096.3096.8115 0 1.1211-.3096.3097-.8115.3097-1.1212 0l-1.94519-1.9452c-.3096-.3096-.3096-.8116 0-1.1212z" fill="url(#y)"/><g filter="url(#e)"><path d="m6.61219 23.0708c.18376-.2431.54037-.2667.75454-.0499l1.7641 1.7855c.2148.2174.18603.5749-.06077.7552l-3.13754 2.2916c-.15919.1163-.37937.0992-.51877-.0402l-1.11275-1.1128c-.14116-.1411-.15663-.3647-.03625-.524z" fill="url(#z)"/><path d="m6.61219 23.0708c.18376-.2431.54037-.2667.75454-.0499l1.7641 1.7855c.2148.2174.18603.5749-.06077.7552l-3.13754 2.2916c-.15919.1163-.37937.0992-.51877-.0402l-1.11275-1.1128c-.14116-.1411-.15663-.3647-.03625-.524z" fill="url(#A)"/></g><g filter="url(#f)"><path d="m6.40115 22.9004c.18376-.2431.54037-.2667.75454-.0499l1.93599 1.9261c.2148.2174.18603.5749-.06077.7552l-2.42969 1.8125c-.15919.1163-.37937.0992-.51876-.0402l-1.40182-1.3889c-.14117-.1411-.15663-.3648-.03625-.524z" fill="#4d2e34"/><path d="m6.40115 22.9004c.18376-.2431.54037-.2667.75454-.0499l1.93599 1.9261c.2148.2174.18603.5749-.06077.7552l-2.42969 1.8125c-.15919.1163-.37937.0992-.51876-.0402l-1.40182-1.3889c-.14117-.1411-.15663-.3648-.03625-.524z" fill="url(#B)"/></g><g filter="url(#g)"><path d="m6.61219 23.0708c.18376-.2431.54037-.2667.75454-.0499l1.7641 1.7855c.2148.2174.18603.5749-.06077.7552l-3.13754 2.2916c-.15919.1163-.37937.0992-.51877-.0402l-1.11275-1.1128c-.14116-.1411-.15663-.3647-.03625-.524z" fill="url(#z)"/><path d="m6.61219 23.0708c.18376-.2431.54037-.2667.75454-.0499l1.7641 1.7855c.2148.2174.18603.5749-.06077.7552l-3.13754 2.2916c-.15919.1163-.37937.0992-.51877-.0402l-1.11275-1.1128c-.14116-.1411-.15663-.3647-.03625-.524z" fill="url(#A)"/></g><g filter="url(#h)"><path d="m14.4264 20.4048c-.0083-.0354-.0518-.046-.0811-.0244-.0956.0706-.2138.1123-.3418.1123-.3182 0-.5761-.258-.5761-.5762s.2579-.5762.5761-.5762c.101 0 .2298.0409.319.0916.0992.0564.2866.163.43.3257.194.2199.3167.5316.2968.9827-.0083.1881-.0709.3706-.146.5339-.0757.1648-.1738.3305-.2691.4858-.0251.0409-.0499.081-.0742.1203-.171.2763-.3168.512-.3829.7277-.0802.2613-.0964.5174-.0294.7092.0065.0188.031.0224.0446.0079.1051-.111.2538-.1803.4187-.1803.3182 0 .5761.258.5761.5762s-.2579.5762-.5761.5762c-.5583 0-.9054-.4255-1.0299-.7824-.1255-.3599-.0772-.7582.0223-1.0827.0909-.2964.2841-.6071.4493-.8727.0241-.0388.0477-.0767.0702-.1133.0941-.1533.1757-.2928.2352-.4224.0603-.1311.0884-.2324.0918-.3099.0056-.1273-.0044-.2282-.0235-.309z" fill="#332c3a"/></g><g filter="url(#i)"><path d="m11.7048 17.663c.0355.008.0464.0514.0251.0809-.0697.0962-.1103.2148-.1091.3428.003.3181.2634.5737.5816.5707s.5737-.2633.5707-.5815c-.0009-.1009-.043-.2293-.0946-.3181-.0573-.0987-.1656-.285-.3296-.427-.2218-.1919-.5345-.3117-.9854-.2876-.1881.0101-.3699.0744-.5325.151-.1641.0772-.3289.1769-.4833.2736-.0407.0256-.0806.0507-.1196.0754-.27476.1735-.50909.3215-.7241.3897-.2606.0826-.51646.1011-.70897.036-.01886-.0064-.02262-.0308-.00828-.0446.11003-.106.1779-.2554.17636-.4203-.00297-.3182-.26333-.5737-.58153-.5707-.31819.0029-.57373.2633-.57076.5815.00521.5582.4339.9014.79197 1.0225.36103.1221.75884.0701 1.08247-.0325.29553-.0936.60434-.2897.86844-.4574.0386-.0244.0762-.0483.1127-.0712.1524-.0955.2911-.1784.4201-.2392.1306-.0614.2316-.0905.309-.0946.1273-.0069.2282.0023.3093.0206z" fill="#332c3a"/></g></svg>