<svg fill="none" height="32" viewBox="0 0 32 32" width="32" xmlns="http://www.w3.org/2000/svg" xmlns:xlink="http://www.w3.org/1999/xlink"><filter id="a" color-interpolation-filters="sRGB" filterUnits="userSpaceOnUse" height="10.359" width="15.6483" x="5.96538" y="2.72056"><feFlood flood-opacity="0" result="BackgroundImageFix"/><feBlend in="SourceGraphic" in2="BackgroundImageFix" mode="normal" result="shape"/><feColorMatrix in="SourceAlpha" result="hardAlpha" type="matrix" values="0 0 0 0 0 0 0 0 0 0 0 0 0 0 0 0 0 0 127 0"/><feOffset dy=".5"/><feGaussianBlur stdDeviation=".375"/><feComposite in2="hardAlpha" k2="-1" k3="1" operator="arithmetic"/><feColorMatrix type="matrix" values="0 0 0 0 0.258824 0 0 0 0 0.619608 0 0 0 0 0.901961 0 0 0 1 0"/><feBlend in2="shape" mode="normal" result="effect1_innerShadow_18_12514"/><feColorMatrix in="SourceAlpha" result="hardAlpha" type="matrix" values="0 0 0 0 0 0 0 0 0 0 0 0 0 0 0 0 0 0 127 0"/><feOffset dx=".3" dy="-.6"/><feGaussianBlur stdDeviation=".375"/><feComposite in2="hardAlpha" k2="-1" k3="1" operator="arithmetic"/><feColorMatrix type="matrix" values="0 0 0 0 0.270588 0 0 0 0 0.352941 0 0 0 0 0.752941 0 0 0 1 0"/><feBlend in2="effect1_innerShadow_18_12514" mode="normal" result="effect2_innerShadow_18_12514"/></filter><filter id="b" color-interpolation-filters="sRGB" filterUnits="userSpaceOnUse" height="16.9484" width="9.55915" x="19.3762" y="10.0423"><feFlood flood-opacity="0" result="BackgroundImageFix"/><feBlend in="SourceGraphic" in2="BackgroundImageFix" mode="normal" result="shape"/><feColorMatrix in="SourceAlpha" result="hardAlpha" type="matrix" values="0 0 0 0 0 0 0 0 0 0 0 0 0 0 0 0 0 0 127 0"/><feOffset dy="1"/><feGaussianBlur stdDeviation=".625"/><feComposite in2="hardAlpha" k2="-1" k3="1" operator="arithmetic"/><feColorMatrix type="matrix" values="0 0 0 0 0.34902 0 0 0 0 0.784314 0 0 0 0 1 0 0 0 1 0"/><feBlend in2="shape" mode="normal" result="effect1_innerShadow_18_12514"/><feColorMatrix in="SourceAlpha" result="hardAlpha" type="matrix" values="0 0 0 0 0 0 0 0 0 0 0 0 0 0 0 0 0 0 127 0"/><feOffset dx=".3" dy="-.6"/><feGaussianBlur stdDeviation=".375"/><feComposite in2="hardAlpha" k2="-1" k3="1" operator="arithmetic"/><feColorMatrix type="matrix" values="0 0 0 0 0.270588 0 0 0 0 0.352941 0 0 0 0 0.752941 0 0 0 1 0"/><feBlend in2="effect1_innerShadow_18_12514" mode="normal" result="effect2_innerShadow_18_12514"/></filter><filter id="c" color-interpolation-filters="sRGB" filterUnits="userSpaceOnUse" height="28.8162" width="29.9378" x="1.06218" y="1.5"><feFlood flood-opacity="0" result="BackgroundImageFix"/><feBlend in="SourceGraphic" in2="BackgroundImageFix" mode="normal" result="shape"/><feColorMatrix in="SourceAlpha" result="hardAlpha" type="matrix" values="0 0 0 0 0 0 0 0 0 0 0 0 0 0 0 0 0 0 127 0"/><feOffset dx="1" dy=".5"/><feGaussianBlur stdDeviation="1"/><feComposite in2="hardAlpha" k2="-1" k3="1" operator="arithmetic"/><feColorMatrix type="matrix" values="0 0 0 0 0.486275 0 0 0 0 0.482353 0 0 0 0 0.490196 0 0 0 1 0"/><feBlend in2="shape" mode="normal" result="effect1_innerShadow_18_12514"/><feColorMatrix in="SourceAlpha" result="hardAlpha" type="matrix" values="0 0 0 0 0 0 0 0 0 0 0 0 0 0 0 0 0 0 127 0"/><feOffset dx="-1" dy="-.5"/><feGaussianBlur stdDeviation="1"/><feComposite in2="hardAlpha" k2="-1" k3="1" operator="arithmetic"/><feColorMatrix type="matrix" values="0 0 0 0 0.760784 0 0 0 0 0.639216 0 0 0 0 0.858824 0 0 0 1 0"/><feBlend in2="effect1_innerShadow_18_12514" mode="normal" result="effect2_innerShadow_18_12514"/></filter><filter id="d" color-interpolation-filters="sRGB" filterUnits="userSpaceOnUse" height="3.43882" width="3.43897" x="24.6958" y="3.79785"><feFlood flood-opacity="0" result="BackgroundImageFix"/><feBlend in="SourceGraphic" in2="BackgroundImageFix" mode="normal" result="shape"/><feColorMatrix in="SourceAlpha" result="hardAlpha" type="matrix" values="0 0 0 0 0 0 0 0 0 0 0 0 0 0 0 0 0 0 127 0"/><feOffset dx="-.4" dy=".4"/><feGaussianBlur stdDeviation=".2"/><feComposite in2="hardAlpha" k2="-1" k3="1" operator="arithmetic"/><feColorMatrix type="matrix" values="0 0 0 0 0.0823529 0 0 0 0 0.447059 0 0 0 0 0.792157 0 0 0 1 0"/><feBlend in2="shape" mode="normal" result="effect1_innerShadow_18_12514"/></filter><filter id="e" color-interpolation-filters="sRGB" filterUnits="userSpaceOnUse" height="4.0625" width="7.59388" x="2.14177" y="17.0017"><feFlood flood-opacity="0" result="BackgroundImageFix"/><feBlend in="SourceGraphic" in2="BackgroundImageFix" mode="normal" result="shape"/><feGaussianBlur result="effect1_foregroundBlur_18_12514" stdDeviation=".5"/></filter><filter id="f" color-interpolation-filters="sRGB" filterUnits="userSpaceOnUse" height="7.8125" width="4.21889" x="10.8918" y="22.0642"><feFlood flood-opacity="0" result="BackgroundImageFix"/><feBlend in="SourceGraphic" in2="BackgroundImageFix" mode="normal" result="shape"/><feGaussianBlur result="effect1_foregroundBlur_18_12514" stdDeviation=".5"/></filter><linearGradient id="g"><stop offset=".232795" stop-color="#86848f"/><stop offset="1" stop-color="#5a5c5e"/></linearGradient><radialGradient id="h" cx="0" cy="0" gradientTransform="matrix(-2.41338373 2.41338373 -.91887112 -.91887112 29.0233 16.5987)" gradientUnits="userSpaceOnUse" r="1" xlink:href="#g"/><linearGradient id="i"><stop offset="0" stop-color="#7c758f"/><stop offset="1" stop-color="#7c758f" stop-opacity="0"/></linearGradient><linearGradient id="j" gradientUnits="userSpaceOnUse" x1="28.4934" x2="27.9856" xlink:href="#i" y1="17.9971" y2="17.533"/><linearGradient id="k"><stop offset=".205166" stop-color="#b3b2b4"/><stop offset="1" stop-color="#b3b2b4" stop-opacity="0"/></linearGradient><linearGradient id="l" gradientUnits="userSpaceOnUse" x1="29.0233" x2="28.2903" xlink:href="#k" y1="16.1143" y2="16.8955"/><radialGradient id="m" cx="0" cy="0" gradientTransform="matrix(-2.41338373 2.41338373 -1.11651454 -1.11651454 16.0311 3.61112)" gradientUnits="userSpaceOnUse" r="1" xlink:href="#g"/><linearGradient id="n" gradientUnits="userSpaceOnUse" x1="15.5012" x2="15.259" xlink:href="#i" y1="5.00955" y2="4.76737"/><linearGradient id="o" gradientUnits="userSpaceOnUse" x1="16.0311" x2="15.2981" xlink:href="#k" y1="3.12674" y2="3.90799"/><linearGradient id="p" gradientUnits="userSpaceOnUse" x1="18.0168" x2="16.97" y1="9.75158" y2="8.70471"><stop offset=".104478" stop-color="#256198"/><stop offset="1" stop-color="#256198" stop-opacity="0"/></linearGradient><linearGradient id="q" gradientUnits="userSpaceOnUse" x1="22.6731" x2="23.3606" y1="13.908" y2="14.658"><stop offset="0" stop-color="#256198"/><stop offset="1" stop-color="#256198" stop-opacity="0"/></linearGradient><linearGradient id="r" gradientUnits="userSpaceOnUse" x1="22.9427" x2="5.18364" y1="8.84769" y2="25.8859"><stop offset="0" stop-color="#cbbcd8"/><stop offset="1" stop-color="#b1a1d1"/></linearGradient><linearGradient id="s" gradientUnits="userSpaceOnUse" x1="7.21512" x2="8.29639" y1="24.5097" y2="23.4284"><stop offset="0" stop-color="#9871c0"/><stop offset="1" stop-color="#9871c0" stop-opacity="0"/></linearGradient><radialGradient id="t" cx="0" cy="0" gradientTransform="matrix(.76671806 .2137023 -.50913654 1.82667284 2.06218 17.9018)" gradientUnits="userSpaceOnUse" r="1"><stop offset="0" stop-color="#76707b"/><stop offset="1" stop-color="#76707b" stop-opacity="0"/></radialGradient><radialGradient id="u" cx="0" cy="0" gradientTransform="matrix(-3.37499729 1.68749488 -.74246716 -1.48493763 7.51683 23.0331)" gradientUnits="userSpaceOnUse" r="1"><stop offset=".128646" stop-color="#5f677b"/><stop offset="1" stop-color="#5f677b" stop-opacity="0"/></radialGradient><radialGradient id="v" cx="0" cy="0" gradientTransform="matrix(.12499988 -4.8749977 1.09383048 .02804692 8.98558 21.0956)" gradientUnits="userSpaceOnUse" r="1"><stop offset="0" stop-color="#7d7d8a"/><stop offset="1" stop-color="#7d7d8a" stop-opacity="0"/></radialGradient><radialGradient id="w" cx="0" cy="0" gradientTransform="matrix(-5.49999263 4.12500983 -3.9864035 -5.31518488 30.3606 3.53306)" gradientUnits="userSpaceOnUse" r="1"><stop offset=".174983" stop-color="#edebee"/><stop offset="1" stop-color="#edebee" stop-opacity="0"/></radialGradient><radialGradient id="x" cx="0" cy="0" gradientTransform="matrix(-5.54636609 .02207105 -.0161373 -4.05523789 11.0281 26.7786)" gradientUnits="userSpaceOnUse" r="1"><stop offset="0" stop-color="#4dc0ff"/><stop offset="1" stop-color="#4763e6"/></radialGradient><linearGradient id="y" gradientUnits="userSpaceOnUse" x1="8.36541" x2="8.4317" y1="25.2208" y2="26.0605"><stop offset="0" stop-color="#3f618f"/><stop offset="1" stop-color="#3f618f" stop-opacity="0"/></linearGradient><radialGradient id="z" cx="0" cy="0" gradientTransform="matrix(.98604754 -.93970947 2.10297172 2.20667147 4.72477 28.096)" gradientUnits="userSpaceOnUse" r="1"><stop offset="0" stop-color="#847fff"/><stop offset="1" stop-color="#847fff" stop-opacity="0"/></radialGradient><path d="m25.4523 19.487c-.3917-.3917-.3917-1.0267 0-1.4184l1.8588-1.8588c.3917-.3917 1.0267-.3917 1.4184 0s.3917 1.0267 0 1.4184l-1.8588 1.8588c-.3917.3917-1.0267.3917-1.4184 0z" fill="url(#h)"/><path d="m25.4523 19.487c-.3917-.3917-.3917-1.0267 0-1.4184l1.8588-1.8588c.3917-.3917 1.0267-.3917 1.4184 0s.3917 1.0267 0 1.4184l-1.8588 1.8588c-.3917.3917-1.0267.3917-1.4184 0z" fill="url(#j)"/><path d="m25.4523 19.487c-.3917-.3917-.3917-1.0267 0-1.4184l1.8588-1.8588c.3917-.3917 1.0267-.3917 1.4184 0s.3917 1.0267 0 1.4184l-1.8588 1.8588c-.3917.3917-1.0267.3917-1.4184 0z" fill="url(#l)"/><path d="m12.4601 6.49944c-.3917-.39168-.3917-1.02672 0-1.4184l1.8588-1.85881c.3917-.39168 1.0268-.39168 1.4184 0 .3917.39168.3917 1.02672 0 1.4184l-1.8588 1.85881c-.3916.39168-1.0267.39168-1.4184 0z" fill="url(#m)"/><path d="m12.4601 6.49944c-.3917-.39168-.3917-1.02672 0-1.4184l1.8588-1.85881c.3917-.39168 1.0268-.39168 1.4184 0 .3917.39168.3917 1.02672 0 1.4184l-1.8588 1.85881c-.3916.39168-1.0267.39168-1.4184 0z" fill="url(#n)"/><path d="m12.4601 6.49944c-.3917-.39168-.3917-1.02672 0-1.4184l1.8588-1.85881c.3917-.39168 1.0268-.39168 1.4184 0 .3917.39168.3917 1.02672 0 1.4184l-1.8588 1.85881c-.3916.39168-1.0267.39168-1.4184 0z" fill="url(#o)"/><g filter="url(#a)"><path d="m17.2668 12.5797-10.30233-5.64832c-.79097-.43366-1.17438-1.35868-.92213-2.22474.28421-.97579 1.27845-1.56214 2.26991-1.33866l13.00145 2.93048z" fill="#4282da"/><path d="m17.2668 12.5797-10.30233-5.64832c-.79097-.43366-1.17438-1.35868-.92213-2.22474.28421-.97579 1.27845-1.56214 2.26991-1.33866l13.00145 2.93048z" fill="url(#p)"/></g><g filter="url(#b)"><path d="m19.3762 14.6892 5.6483 10.3023c.4337.791 1.3587 1.1744 2.2248.9222.9758-.2842 1.5621-1.2785 1.3386-2.2699l-2.9304-13.0015z" fill="#4282da"/><path d="m19.3762 14.6892 5.6483 10.3023c.4337.791 1.3587 1.1744 2.2248.9222.9758-.2842 1.5621-1.2785 1.3386-2.2699l-2.9304-13.0015z" fill="url(#q)"/></g><g filter="url(#c)"><path d="m8.04702 18.7028c.29004.0809.60098-.0078.80457-.2297l13.87031-15.11581c1.645-1.79262 4.4656-1.81229 6.1354-.04278 1.6073 1.70338 1.5066 4.39353-.2237 5.97188l-15.2329 13.89511c-.2259.2061-.3146.5228-.2286.8161l1.3049 4.4516c.1191.406-.0131.844-.3368 1.1164-.4235.3563-1.0492.3297-1.4408-.0614l-10.29413-10.2805c-.4313-.4307-.45945-1.1205-.06467-1.5849.22161-.2607.5746-.3688.90417-.2768z" fill="url(#r)"/></g><path d="m8.04702 18.7028c.29004.0809.60098-.0078.80457-.2297l13.87031-15.11581c1.645-1.79262 4.4656-1.81229 6.1354-.04278 1.6073 1.70338 1.5066 4.39353-.2237 5.97188l-15.2329 13.89511c-.2259.2061-.3146.5228-.2286.8161l1.3049 4.4516c.1191.406-.0131.844-.3368 1.1164-.4235.3563-1.0492.3297-1.4408-.0614l-10.29413-10.2805c-.4313-.4307-.45945-1.1205-.06467-1.5849.22161-.2607.5746-.3688.90417-.2768z" fill="url(#s)"/><path d="m8.04702 18.7028c.29004.0809.60098-.0078.80457-.2297l13.87031-15.11581c1.645-1.79262 4.4656-1.81229 6.1354-.04278 1.6073 1.70338 1.5066 4.39353-.2237 5.97188l-15.2329 13.89511c-.2259.2061-.3146.5228-.2286.8161l1.3049 4.4516c.1191.406-.0131.844-.3368 1.1164-.4235.3563-1.0492.3297-1.4408-.0614l-10.29413-10.2805c-.4313-.4307-.45945-1.1205-.06467-1.5849.22161-.2607.5746-.3688.90417-.2768z" fill="url(#t)"/><path d="m8.04702 18.7028c.29004.0809.60098-.0078.80457-.2297l13.87031-15.11581c1.645-1.79262 4.4656-1.81229 6.1354-.04278 1.6073 1.70338 1.5066 4.39353-.2237 5.97188l-15.2329 13.89511c-.2259.2061-.3146.5228-.2286.8161l1.3049 4.4516c.1191.406-.0131.844-.3368 1.1164-.4235.3563-1.0492.3297-1.4408-.0614l-10.29413-10.2805c-.4313-.4307-.45945-1.1205-.06467-1.5849.22161-.2607.5746-.3688.90417-.2768z" fill="url(#u)"/><path d="m8.04702 18.7028c.29004.0809.60098-.0078.80457-.2297l13.87031-15.11581c1.645-1.79262 4.4656-1.81229 6.1354-.04278 1.6073 1.70338 1.5066 4.39353-.2237 5.97188l-15.2329 13.89511c-.2259.2061-.3146.5228-.2286.8161l1.3049 4.4516c.1191.406-.0131.844-.3368 1.1164-.4235.3563-1.0492.3297-1.4408-.0614l-10.29413-10.2805c-.4313-.4307-.45945-1.1205-.06467-1.5849.22161-.2607.5746-.3688.90417-.2768z" fill="url(#v)"/><path d="m8.04702 18.7028c.29004.0809.60098-.0078.80457-.2297l13.87031-15.11581c1.645-1.79262 4.4656-1.81229 6.1354-.04278 1.6073 1.70338 1.5066 4.39353-.2237 5.97188l-15.2329 13.89511c-.2259.2061-.3146.5228-.2286.8161l1.3049 4.4516c.1191.406-.0131.844-.3368 1.1164-.4235.3563-1.0492.3297-1.4408-.0614l-10.29413-10.2805c-.4313-.4307-.45945-1.1205-.06467-1.5849.22161-.2607.5746-.3688.90417-.2768z" fill="url(#w)"/><g filter="url(#d)"><rect fill="#48dbff" height="1.09607" rx=".548037" transform="matrix(.70710678 .70710678 -.70710678 .70710678 10.035832 -17.087042)" width="3.84375" x="25.6438" y="3.5708"/></g><rect fill="url(#x)" height="2.34352" rx="1.17176" transform="matrix(.70710678 -.70710678 .70710678 .70710678 -16.779064 10.770557)" width="7.51025" x="4.61168" y="25.6394"/><rect fill="url(#y)" height="2.34352" rx="1.17176" transform="matrix(.70710678 -.70710678 .70710678 .70710678 -16.779064 10.770557)" width="7.51025" x="4.61168" y="25.6394"/><rect fill="url(#z)" height="2.34352" rx="1.17176" transform="matrix(.70710678 -.70710678 .70710678 .70710678 -16.779064 10.770557)" width="7.51025" x="4.61168" y="25.6394"/><g filter="url(#e)"><path d="m3.39183 18.2517 5.09375 1.5625" stroke="#b3adb8" stroke-linecap="round" stroke-width=".5"/></g><g filter="url(#f)"><path d="m12.1418 23.3142 1.7188 5.3125" stroke="#d1c7db" stroke-linecap="round" stroke-width=".5"/></g></svg>