<svg fill="none" height="32" viewBox="0 0 32 32" width="32" xmlns="http://www.w3.org/2000/svg"><path d="m27.6624 8.55204c.3835.47016.4459 1.125.1583 1.65916l-5.4456 10.1134 5.7995-1.2888c.8087-.1797 1.61.3302 1.7897 1.1389s-.3302 1.6099-1.1389 1.7896l-9 2c-.5729.1274-1.1674-.0911-1.5216-.5591-.3541-.468-.4027-1.0996-.1245-1.6163l5.2831-9.8115-6.5314 1.9594c-.7935.2381-1.6297-.2122-1.8677-1.0057-.2381-.7935.2122-1.6297 1.0057-1.8678l10-2.99997c.5811-.17433 1.21.01855 1.5934.48871z" fill="#00a6ed"/><path d="m9 19c0-.5523.44772-1 1-1h7c.3924 0 .7485.2295.9106.5868.1622.3573.1004.7764-.158 1.0717l-5.5488 6.3415h4.7962c.5523 0 1 .4477 1 1s-.4477 1-1 1h-7c-.39238 0-.7485-.2295-.91063-.5868-.16214-.3573-.10033-.7764.15805-1.0717l5.54878-6.3415h-4.7962c-.55228 0-1-.4477-1-1z" fill="#83cbff"/><path d="m3.04217 21.7127c.1587-.529.71618-.8292 1.24517-.6705l5 1.5c.36148.1084.63112.4111.6972.7827.06606.3716-.08263.7487-.38454.9751l-4.21074 3.1581 2.80685.5613c.54156.1084.89278.6352.78447 1.1767-.10832.5416-.63514.8928-1.1767.7845l-5-1c-.38672-.0773-.69187-.3748-.77911-.7594s.05972-.7846.37523-1.0212l4.4152-3.3114-3.10255-.9308c-.529-.1587-.82918-.7161-.67048-1.2451z" fill="#aeddff"/></svg>