<svg enable-background="new 0 0 128 128" viewBox="0 0 32 32" xmlns="http://www.w3.org/2000/svg"><path d="m4 7c0-1.10457.89543-2 2-2h23c1.1046 0 2 .89543 2 2v22c0 1.1046-.8954 2-2 2h-25c-1.65685 0-3-1.3431-3-3v-18c0-1.65686 1.34315-3 3-3z" fill="#b4acbc"/><path d="m28 10c0-1.10457-.8954-2-2-2h-22c-1.10457 0-2 .89543-2 2v18c0 1.1046.89543 2 2 2h25.5c-.8284 0-1.5-.6716-1.5-1.5z" fill="#f3eef8"/><path d="m4 11c0-.5523.44772-1 1-1h20c.5523 0 1 .4477 1 1s-.4477 1-1 1h-20c-.55228 0-1-.4477-1-1zm0 3.5c0-.2761.22386-.5.5-.5h21c.2761 0 .5.2239.5.5s-.2239.5-.5.5h-21c-.27614 0-.5-.2239-.5-.5zm15.5 2.5c-.2761 0-.5.2239-.5.5s.2239.5.5.5h6c.2761 0 .5-.2239.5-.5s-.2239-.5-.5-.5zm-.5 3.5c0-.2761.2239-.5.5-.5h6c.2761 0 .5.2239.5.5s-.2239.5-.5.5h-6c-.2761 0-.5-.2239-.5-.5zm.5 2.5c-.2761 0-.5.2239-.5.5s.2239.5.5.5h6c.2761 0 .5-.2239.5-.5s-.2239-.5-.5-.5zm-.5 3.5c0-.2761.2239-.5.5-.5h6c.2761 0 .5.2239.5.5s-.2239.5-.5.5h-6c-.2761 0-.5-.2239-.5-.5zm-13-9.5c-1.10457 0-2 .8954-2 2v6c0 1.1046.89543 2 2 2h9c1.1046 0 2-.8954 2-2v-6c0-1.1046-.8954-2-2-2z" fill="#998ea4"/></svg>