<svg fill="none" height="32" viewBox="0 0 32 32" width="32" xmlns="http://www.w3.org/2000/svg" xmlns:xlink="http://www.w3.org/1999/xlink"><filter id="a" color-interpolation-filters="sRGB" filterUnits="userSpaceOnUse" height="23.0631" width="26.8257" x="2.52759" y="2.0625"><feFlood flood-opacity="0" result="BackgroundImageFix"/><feBlend in="SourceGraphic" in2="BackgroundImageFix" mode="normal" result="shape"/><feColorMatrix in="SourceAlpha" result="hardAlpha" type="matrix" values="0 0 0 0 0 0 0 0 0 0 0 0 0 0 0 0 0 0 127 0"/><feOffset/><feGaussianBlur stdDeviation=".5"/><feComposite in2="hardAlpha" k2="-1" k3="1" operator="arithmetic"/><feColorMatrix type="matrix" values="0 0 0 0 0.870833 0 0 0 0 0.0689409 0 0 0 0 0.37366 0 0 0 1 0"/><feBlend in2="shape" mode="normal" result="effect1_innerShadow_28327_7927"/></filter><filter id="b" color-interpolation-filters="sRGB" filterUnits="userSpaceOnUse" height="12.1017" width="17.3314" x="6.99969" y="11.2595"><feFlood flood-opacity="0" result="BackgroundImageFix"/><feBlend in="SourceGraphic" in2="BackgroundImageFix" mode="normal" result="shape"/><feGaussianBlur result="effect1_foregroundBlur_28327_7927" stdDeviation=".5"/></filter><filter id="c" color-interpolation-filters="sRGB" filterUnits="userSpaceOnUse" height="18.4938" width="15.8815" x="7.99976" y="11.4437"><feFlood flood-opacity="0" result="BackgroundImageFix"/><feBlend in="SourceGraphic" in2="BackgroundImageFix" mode="normal" result="shape"/><feColorMatrix in="SourceAlpha" result="hardAlpha" type="matrix" values="0 0 0 0 0 0 0 0 0 0 0 0 0 0 0 0 0 0 127 0"/><feOffset dy="-.15"/><feGaussianBlur stdDeviation=".2"/><feComposite in2="hardAlpha" k2="-1" k3="1" operator="arithmetic"/><feColorMatrix type="matrix" values="0 0 0 0 0.72549 0 0 0 0 0.0470588 0 0 0 0 0.301961 0 0 0 1 0"/><feBlend in2="shape" mode="normal" result="effect1_innerShadow_28327_7927"/></filter><filter id="d" color-interpolation-filters="sRGB" filterUnits="userSpaceOnUse" height="2.41567" width="2.94692" x="10.3811" y="3.78435"><feFlood flood-opacity="0" result="BackgroundImageFix"/><feBlend in="SourceGraphic" in2="BackgroundImageFix" mode="normal" result="shape"/><feGaussianBlur result="effect1_foregroundBlur_28327_7927" stdDeviation=".15"/></filter><filter id="e" color-interpolation-filters="sRGB" filterUnits="userSpaceOnUse" height="4.08755" width="2.72817" x="15.5373" y="2.17498"><feFlood flood-opacity="0" result="BackgroundImageFix"/><feBlend in="SourceGraphic" in2="BackgroundImageFix" mode="normal" result="shape"/><feGaussianBlur result="effect1_foregroundBlur_28327_7927" stdDeviation=".15"/></filter><filter id="f" color-interpolation-filters="sRGB" filterUnits="userSpaceOnUse" height="9.60317" width="2.10342" x="19.771" y="3.72185"><feFlood flood-opacity="0" result="BackgroundImageFix"/><feBlend in="SourceGraphic" in2="BackgroundImageFix" mode="normal" result="shape"/><feGaussianBlur result="effect1_foregroundBlur_28327_7927" stdDeviation=".15"/></filter><filter id="g" color-interpolation-filters="sRGB" filterUnits="userSpaceOnUse" height="3.20376" width="2.71633" x="24.1161" y="11.0602"><feFlood flood-opacity="0" result="BackgroundImageFix"/><feBlend in="SourceGraphic" in2="BackgroundImageFix" mode="normal" result="shape"/><feGaussianBlur result="effect1_foregroundBlur_28327_7927" stdDeviation=".15"/></filter><filter id="h" color-interpolation-filters="sRGB" filterUnits="userSpaceOnUse" height="2.69692" width="2.79159" x="26.6146" y="15.5812"><feFlood flood-opacity="0" result="BackgroundImageFix"/><feBlend in="SourceGraphic" in2="BackgroundImageFix" mode="normal" result="shape"/><feGaussianBlur result="effect1_foregroundBlur_28327_7927" stdDeviation=".15"/></filter><filter id="i" color-interpolation-filters="sRGB" filterUnits="userSpaceOnUse" height="1.16567" width="2.71255" x="26.2561" y="13.0187"><feFlood flood-opacity="0" result="BackgroundImageFix"/><feBlend in="SourceGraphic" in2="BackgroundImageFix" mode="normal" result="shape"/><feGaussianBlur result="effect1_foregroundBlur_28327_7927" stdDeviation=".15"/></filter><filter id="j" color-interpolation-filters="sRGB" filterUnits="userSpaceOnUse" height="3.4313" width="2.01571" x="22.4998" y="21.4719"><feFlood flood-opacity="0" result="BackgroundImageFix"/><feBlend in="SourceGraphic" in2="BackgroundImageFix" mode="normal" result="shape"/><feGaussianBlur result="effect1_foregroundBlur_28327_7927" stdDeviation=".15"/></filter><filter id="k" color-interpolation-filters="sRGB" filterUnits="userSpaceOnUse" height="18.0874" width="1.40002" x="15.4" y="11.5625"><feFlood flood-opacity="0" result="BackgroundImageFix"/><feBlend in="SourceGraphic" in2="BackgroundImageFix" mode="normal" result="shape"/><feGaussianBlur result="effect1_foregroundBlur_28327_7927" stdDeviation=".25"/></filter><filter id="l" color-interpolation-filters="sRGB" filterUnits="userSpaceOnUse" height="4.15005" width="7.46255" x="8.27172" y="15.5812"><feFlood flood-opacity="0" result="BackgroundImageFix"/><feBlend in="SourceGraphic" in2="BackgroundImageFix" mode="normal" result="shape"/><feGaussianBlur result="effect1_foregroundBlur_28327_7927" stdDeviation=".15"/></filter><filter id="m" color-interpolation-filters="sRGB" filterUnits="userSpaceOnUse" height="4.94702" width="8.57202" x="15.4592" y="15.3156"><feFlood flood-opacity="0" result="BackgroundImageFix"/><feBlend in="SourceGraphic" in2="BackgroundImageFix" mode="normal" result="shape"/><feGaussianBlur result="effect1_foregroundBlur_28327_7927" stdDeviation=".25"/></filter><radialGradient id="n" cx="0" cy="0" gradientTransform="matrix(-7.23431349 14.37507983 -23.52082777 -11.83694586 23.1749 9.6875)" gradientUnits="userSpaceOnUse" r="1"><stop offset="0" stop-color="#fe63ba"/><stop offset="1" stop-color="#ef2869"/></radialGradient><radialGradient id="o" cx="0" cy="0" gradientTransform="matrix(-4.68745664 -6.03128664 14.97338051 -11.63716403 23.9249 24.7188)" gradientUnits="userSpaceOnUse" r="1"><stop offset="0" stop-color="#fb4273"/><stop offset="1" stop-color="#fb4273" stop-opacity="0"/></radialGradient><radialGradient id="p" cx="0" cy="0" gradientTransform="matrix(-11.5000154 2.62498447 -4.23489543 -18.5530098 31.3624 16.25)" gradientUnits="userSpaceOnUse" r="1"><stop offset="0" stop-color="#ff6fa9"/><stop offset="1" stop-color="#ff6fa9" stop-opacity="0"/></radialGradient><linearGradient id="q" gradientUnits="userSpaceOnUse" x1="15.9405" x2="15.9405" y1="12.9375" y2="29.9375"><stop offset="0" stop-color="#e02e6b"/><stop offset="1" stop-color="#c81776"/></linearGradient><linearGradient id="r" gradientUnits="userSpaceOnUse" x1="7.99976" x2="8.87799" y1="15.875" y2="16.3125"><stop offset="0" stop-color="#bf1a46"/><stop offset=".991222" stop-color="#bf1a46" stop-opacity="0"/></linearGradient><linearGradient id="s" gradientUnits="userSpaceOnUse" x1="20.8227" x2="20.8227" y1="4.17187" y2="12.875"><stop offset="0" stop-color="#ff7fcd"/><stop offset="1" stop-color="#ff7fb8"/></linearGradient><linearGradient id="t"><stop offset="0" stop-color="#ff7fcd" stop-opacity="0"/><stop offset="1" stop-color="#ff7fb8"/></linearGradient><linearGradient id="u" gradientUnits="userSpaceOnUse" x1="25.7217" x2="24.878" xlink:href="#t" y1="12.1249" y2="13.4218"/><linearGradient id="v" gradientUnits="userSpaceOnUse" x1="28.2681" x2="27.7013" xlink:href="#t" y1="16.5106" y2="17.674"/><linearGradient id="w" gradientUnits="userSpaceOnUse" x1="27.6889" x2="27.6714" xlink:href="#t" y1="13.5521" y2="13.8012"/><linearGradient id="x" gradientUnits="userSpaceOnUse" x1="23.5077" x2="23.003" y1="22.2187" y2="24.0336"><stop offset="0" stop-color="#ff7e8c" stop-opacity="0"/><stop offset="1" stop-color="#ff7e8c"/></linearGradient><linearGradient id="y"><stop offset="0" stop-color="#fa6e94"/><stop offset=".971379" stop-color="#ff7e8c" stop-opacity="0"/></linearGradient><linearGradient id="z" gradientUnits="userSpaceOnUse" x1="16.6" x2="6.31437" xlink:href="#y" y1="12.8091" y2="17.5175"/><linearGradient id="A" gradientUnits="userSpaceOnUse" x1="11.8311" x2="11.4878" xlink:href="#y" y1="15.9804" y2="21.2001"/><linearGradient id="B" gradientUnits="userSpaceOnUse" x1="19.7452" x2="19.3728" xlink:href="#y" y1="16.1318" y2="21.8843"/><g filter="url(#a)"><path d="m15.9404 2.0628c.0053-.0002.0105-.0003.0157-.0003v.0012c.1762.01346.3409.13962.4218.33283l1.0782 2.46094c.2483.59325.884.727 1.4062.35156l1.8298-1.31557c.5144-.36982 1.2162.07939 1.0959.70136l-1.0898 6.21578c-.2343 1.3359 1.0581 2.0328 2.0938 1.3594l1.6456-1.0701c.4942-.3213 1.0627.1124.8372.6569l-.1937.4679c-.2368.5716.2466 1.2263.8593 1.1406l2.5625-.3281c.5199-.0728.9185.4735.6165.9029l-1.4212 1.9721c-.5312.8671-.0715 1.288.5938 1.4062l.4844.1016c.7197.1271.7503.792.1796 1.1172l-4.5156 2.6562c-.9185.5235-1.2726 1.8244-.5234 2.5703l.3984.4531c.4136.4119.0286 1.0646-.5234.875l-7.827-2.6551-7.87607 2.6551c-.55208.1896-.93708-.4631-.52344-.875l.39843-.4531c.74918-.7459.3951-2.0468-.52344-2.5703l-4.51563-2.6562c-.57063-.3252-.54003-.9901.17964-1.1172l.48442-.1016c.66533-.1182 1.125-.5391.59375-1.4062l-1.42121-1.9721c-.30193-.4294.09668-.9757.61652-.9029l2.5625.3281c.61273.0857 1.09608-.569.85937-1.1406l-.19372-.4679c-.22551-.5445.34301-.9782.83715-.6569l1.64564 1.0701c1.03569.6734 2.32809-.0235 2.09379-1.3594l-1.0898-6.21578c-.12035-.62197.5815-1.07118 1.0959-.70136l1.8298 1.31557c.5222.37544 1.1579.24169 1.4062-.35156l1.0782-2.46094c.0808-.19314.2454-.31927.4216-.33282l.0002-.00121c.0052 0 .0104.0001.0156.0003z" fill="url(#n)"/><path d="m15.9404 2.0628c.0053-.0002.0105-.0003.0157-.0003v.0012c.1762.01346.3409.13962.4218.33283l1.0782 2.46094c.2483.59325.884.727 1.4062.35156l1.8298-1.31557c.5144-.36982 1.2162.07939 1.0959.70136l-1.0898 6.21578c-.2343 1.3359 1.0581 2.0328 2.0938 1.3594l1.6456-1.0701c.4942-.3213 1.0627.1124.8372.6569l-.1937.4679c-.2368.5716.2466 1.2263.8593 1.1406l2.5625-.3281c.5199-.0728.9185.4735.6165.9029l-1.4212 1.9721c-.5312.8671-.0715 1.288.5938 1.4062l.4844.1016c.7197.1271.7503.792.1796 1.1172l-4.5156 2.6562c-.9185.5235-1.2726 1.8244-.5234 2.5703l.3984.4531c.4136.4119.0286 1.0646-.5234.875l-7.827-2.6551-7.87607 2.6551c-.55208.1896-.93708-.4631-.52344-.875l.39843-.4531c.74918-.7459.3951-2.0468-.52344-2.5703l-4.51563-2.6562c-.57063-.3252-.54003-.9901.17964-1.1172l.48442-.1016c.66533-.1182 1.125-.5391.59375-1.4062l-1.42121-1.9721c-.30193-.4294.09668-.9757.61652-.9029l2.5625.3281c.61273.0857 1.09608-.569.85937-1.1406l-.19372-.4679c-.22551-.5445.34301-.9782.83715-.6569l1.64564 1.0701c1.03569.6734 2.32809-.0235 2.09379-1.3594l-1.0898-6.21578c-.12035-.62197.5815-1.07118 1.0959-.70136l1.8298 1.31557c.5222.37544 1.1579.24169 1.4062-.35156l1.0782-2.46094c.0808-.19314.2454-.31927.4216-.33282l.0002-.00121c.0052 0 .0104.0001.0156.0003z" fill="url(#o)"/><path d="m15.9404 2.0628c.0053-.0002.0105-.0003.0157-.0003v.0012c.1762.01346.3409.13962.4218.33283l1.0782 2.46094c.2483.59325.884.727 1.4062.35156l1.8298-1.31557c.5144-.36982 1.2162.07939 1.0959.70136l-1.0898 6.21578c-.2343 1.3359 1.0581 2.0328 2.0938 1.3594l1.6456-1.0701c.4942-.3213 1.0627.1124.8372.6569l-.1937.4679c-.2368.5716.2466 1.2263.8593 1.1406l2.5625-.3281c.5199-.0728.9185.4735.6165.9029l-1.4212 1.9721c-.5312.8671-.0715 1.288.5938 1.4062l.4844.1016c.7197.1271.7503.792.1796 1.1172l-4.5156 2.6562c-.9185.5235-1.2726 1.8244-.5234 2.5703l.3984.4531c.4136.4119.0286 1.0646-.5234.875l-7.827-2.6551-7.87607 2.6551c-.55208.1896-.93708-.4631-.52344-.875l.39843-.4531c.74918-.7459.3951-2.0468-.52344-2.5703l-4.51563-2.6562c-.57063-.3252-.54003-.9901.17964-1.1172l.48442-.1016c.66533-.1182 1.125-.5391.59375-1.4062l-1.42121-1.9721c-.30193-.4294.09668-.9757.61652-.9029l2.5625.3281c.61273.0857 1.09608-.569.85937-1.1406l-.19372-.4679c-.22551-.5445.34301-.9782.83715-.6569l1.64564 1.0701c1.03569.6734 2.32809-.0235 2.09379-1.3594l-1.0898-6.21578c-.12035-.62197.5815-1.07118 1.0959-.70136l1.8298 1.31557c.5222.37544 1.1579.24169 1.4062-.35156l1.0782-2.46094c.0808-.19314.2454-.31927.4216-.33282l.0002-.00121c.0052 0 .0104.0001.0156.0003z" fill="url(#p)"/></g><g filter="url(#b)"><path d="m16.3743 21.9081-.0517-.0175-1.3963.4707v-1.6245c0-.1839-.1045-.3518-.2694-.433l-6.36076-3.1333c-.26305-.1296-.37125-.4479-.24167-.711.12958-.263.44787-.3712.71092-.2416l5.81291 2.8634c.1604.079.348-.0377.348-.2165v-5.8813c0-.3998.3242-.724.724-.724.3999 0 .724.3242.724.724v5.8962c0 .1788.1877.2955.348.2165l5.8431-2.8783c.2631-.1296.5814-.0214.7109.2416.1296.2631.0214.5814-.2416.711l-6.391 3.1481c-.1649.0813-.2694.2492-.2694.433z" fill="#d7102f"/></g><g filter="url(#c)"><path d="m15.9249 11.5938c.4142 0 .75.3357.75.75v6.1076c0 .1852.1943.3061.3605.2243l6.0527-2.9816c.2725-.1342.6022-.0221.7364.2504.1342.2724.0222.6022-.2503.7364l-6.6203 3.2611c-.1708.0842-.279.2581-.279.4486v8.7969c0 .4142-.3358.75-.75.75s-.75-.3358-.75-.75v-8.8123c0-.1905-.1082-.3644-.2791-.4486l-6.58896-3.2457c-.27249-.1342-.38458-.464-.25035-.7364.13423-.2725.46394-.3846.73643-.2504l6.02148 2.9662c.1661.0818.3605-.0391.3605-.2243v-6.0922c0-.4143.3358-.75.75-.75z" fill="url(#q)"/><path d="m15.9249 11.5938c.4142 0 .75.3357.75.75v6.1076c0 .1852.1943.3061.3605.2243l6.0527-2.9816c.2725-.1342.6022-.0221.7364.2504.1342.2724.0222.6022-.2503.7364l-6.6203 3.2611c-.1708.0842-.279.2581-.279.4486v8.7969c0 .4142-.3358.75-.75.75s-.75-.3358-.75-.75v-8.8123c0-.1905-.1082-.3644-.2791-.4486l-6.58896-3.2457c-.27249-.1342-.38458-.464-.25035-.7364.13423-.2725.46394-.3846.73643-.2504l6.02148 2.9662c.1661.0818.3605-.0391.3605-.2243v-6.0922c0-.4143.3358-.75.75-.75z" fill="url(#r)"/></g><g filter="url(#d)"><path d="m10.8311 4.23438 2.0469 1.51562" stroke="#fb69b8" stroke-linecap="round" stroke-width=".3"/></g><g filter="url(#e)"><path d="m15.9874 2.625 1.1718 2.64062c.0573.13542.2688.43438.6563.54688" stroke="#fb69b8" stroke-linecap="round" stroke-width=".3"/></g><g filter="url(#f)"><path d="m21.1436 4.17188c.1198.02604.3407.17187.2657.54687s-.8125 4.25-1.1719 6.14065c-.0729.5156.0594 1.6406 1.1719 2.0156" stroke="url(#s)" stroke-linecap="round" stroke-width=".3"/></g><g filter="url(#g)"><path d="m24.933 11.5103c-.2415.2868-.5738 1.0795-.1964 1.6532.4759.7233 1.2608.7247 1.6458.5662" stroke="url(#u)" stroke-linecap="round" stroke-width=".3"/></g><g filter="url(#h)"><path d="m27.1749 16.0312c-.0833.099-.2.4188 0 .9063s.7396.6719.9843.7031l.7969.1875" stroke="url(#v)" stroke-linecap="round" stroke-width=".3"/></g><g filter="url(#i)"><path d="m26.7061 13.7344 1.8125-.2656" stroke="url(#w)" stroke-linecap="round" stroke-width=".3"/></g><g filter="url(#j)"><path d="m23.0811 21.9219c-.125.3229-.2719 1.0937.1406 1.5937s.7344.8334.8438.9375" stroke="url(#x)" stroke-linecap="round" stroke-width=".3"/></g><g filter="url(#k)"><path d="m16.1 12.2625v16.6875" stroke="url(#z)" stroke-linecap="round" stroke-width=".4"/></g><g filter="url(#l)"><path d="m8.72174 16.0312 6.56246 3.25" stroke="url(#A)" stroke-linecap="round" stroke-width=".3"/></g><g filter="url(#m)"><path d="m16.1592 19.5625 7.1719-3.5469" stroke="url(#B)" stroke-linecap="round" stroke-width=".4"/></g></svg>