<svg fill="none" height="32" viewBox="0 0 32 32" width="32" xmlns="http://www.w3.org/2000/svg" xmlns:xlink="http://www.w3.org/1999/xlink"><filter id="a" color-interpolation-filters="sRGB" filterUnits="userSpaceOnUse" height="28.4053" width="26.1828" x="4.0625" y="1.54736"><feFlood flood-opacity="0" result="BackgroundImageFix"/><feBlend in="SourceGraphic" in2="BackgroundImageFix" mode="normal" result="shape"/><feColorMatrix in="SourceAlpha" result="hardAlpha" type="matrix" values="0 0 0 0 0 0 0 0 0 0 0 0 0 0 0 0 0 0 127 0"/><feOffset dx=".5" dy="-.5"/><feGaussianBlur stdDeviation="1"/><feComposite in2="hardAlpha" k2="-1" k3="1" operator="arithmetic"/><feColorMatrix type="matrix" values="0 0 0 0 0.807843 0 0 0 0 0.498039 0 0 0 0 0.439216 0 0 0 1 0"/><feBlend in2="shape" mode="normal" result="effect1_innerShadow_18_18496"/><feColorMatrix in="SourceAlpha" result="hardAlpha" type="matrix" values="0 0 0 0 0 0 0 0 0 0 0 0 0 0 0 0 0 0 127 0"/><feOffset dx=".65"/><feGaussianBlur stdDeviation=".45"/><feComposite in2="hardAlpha" k2="-1" k3="1" operator="arithmetic"/><feColorMatrix type="matrix" values="0 0 0 0 0.866667 0 0 0 0 0.741176 0 0 0 0 0.541176 0 0 0 1 0"/><feBlend in2="effect1_innerShadow_18_18496" mode="normal" result="effect2_innerShadow_18_18496"/></filter><filter id="b" color-interpolation-filters="sRGB" filterUnits="userSpaceOnUse" height="2.17188" width="2.17188" x="13.9844" y="10.1855"><feFlood flood-opacity="0" result="BackgroundImageFix"/><feBlend in="SourceGraphic" in2="BackgroundImageFix" mode="normal" result="shape"/><feColorMatrix in="SourceAlpha" result="hardAlpha" type="matrix" values="0 0 0 0 0 0 0 0 0 0 0 0 0 0 0 0 0 0 127 0"/><feOffset/><feGaussianBlur stdDeviation=".15"/><feComposite in2="hardAlpha" k2="-1" k3="1" operator="arithmetic"/><feColorMatrix type="matrix" values="0 0 0 0 0.713726 0 0 0 0 0.65098 0 0 0 0 0.639216 0 0 0 1 0"/><feBlend in2="shape" mode="normal" result="effect1_innerShadow_18_18496"/></filter><filter id="c" color-interpolation-filters="sRGB" filterUnits="userSpaceOnUse" height="2.17188" width="2.17188" x="14.2188" y="6.7168"><feFlood flood-opacity="0" result="BackgroundImageFix"/><feBlend in="SourceGraphic" in2="BackgroundImageFix" mode="normal" result="shape"/><feColorMatrix in="SourceAlpha" result="hardAlpha" type="matrix" values="0 0 0 0 0 0 0 0 0 0 0 0 0 0 0 0 0 0 127 0"/><feOffset/><feGaussianBlur stdDeviation=".15"/><feComposite in2="hardAlpha" k2="-1" k3="1" operator="arithmetic"/><feColorMatrix type="matrix" values="0 0 0 0 0.713726 0 0 0 0 0.65098 0 0 0 0 0.639216 0 0 0 1 0"/><feBlend in2="shape" mode="normal" result="effect1_innerShadow_18_18496"/></filter><filter id="d" color-interpolation-filters="sRGB" filterUnits="userSpaceOnUse" height="2.17188" width="2.17188" x="15.5469" y="3.89648"><feFlood flood-opacity="0" result="BackgroundImageFix"/><feBlend in="SourceGraphic" in2="BackgroundImageFix" mode="normal" result="shape"/><feColorMatrix in="SourceAlpha" result="hardAlpha" type="matrix" values="0 0 0 0 0 0 0 0 0 0 0 0 0 0 0 0 0 0 127 0"/><feOffset/><feGaussianBlur stdDeviation=".15"/><feComposite in2="hardAlpha" k2="-1" k3="1" operator="arithmetic"/><feColorMatrix type="matrix" values="0 0 0 0 0.713726 0 0 0 0 0.65098 0 0 0 0 0.639216 0 0 0 1 0"/><feBlend in2="shape" mode="normal" result="effect1_innerShadow_18_18496"/></filter><filter id="e" color-interpolation-filters="sRGB" filterUnits="userSpaceOnUse" height="14.625" width="9.5" x="6.28125" y="12.3965"><feFlood flood-opacity="0" result="BackgroundImageFix"/><feBlend in="SourceGraphic" in2="BackgroundImageFix" mode="normal" result="shape"/><feGaussianBlur result="effect1_foregroundBlur_18_18496" stdDeviation="1"/></filter><filter id="f" color-interpolation-filters="sRGB" filterUnits="userSpaceOnUse" height="6.41948" width="12.5225" x="1.8144" y="12.1509"><feFlood flood-opacity="0" result="BackgroundImageFix"/><feBlend in="SourceGraphic" in2="BackgroundImageFix" mode="normal" result="shape"/><feColorMatrix in="SourceAlpha" result="hardAlpha" type="matrix" values="0 0 0 0 0 0 0 0 0 0 0 0 0 0 0 0 0 0 127 0"/><feOffset dx="-.2" dy=".2"/><feGaussianBlur stdDeviation=".3"/><feComposite in2="hardAlpha" k2="-1" k3="1" operator="arithmetic"/><feColorMatrix type="matrix" values="0 0 0 0 0.811765 0 0 0 0 0.72549 0 0 0 0 0.223529 0 0 0 1 0"/><feBlend in2="shape" mode="normal" result="effect1_innerShadow_18_18496"/></filter><filter id="g" color-interpolation-filters="sRGB" filterUnits="userSpaceOnUse" height="25.9062" width="9.3125" x="14.5" y="2.30273"><feFlood flood-opacity="0" result="BackgroundImageFix"/><feBlend in="SourceGraphic" in2="BackgroundImageFix" mode="normal" result="shape"/><feGaussianBlur result="effect1_foregroundBlur_18_18496" stdDeviation=".75"/></filter><linearGradient id="h" gradientUnits="userSpaceOnUse" x1="10.9375" x2="24.8125" y1="25.709" y2="6.89652"><stop offset="0" stop-color="#d59f41"/><stop offset="1" stop-color="#d8a534"/></linearGradient><radialGradient id="i" cx="0" cy="0" gradientTransform="matrix(.99999858 12.81253508 -6.07912244 .47446612 14.8125 13.584)" gradientUnits="userSpaceOnUse" r="1"><stop offset="0" stop-color="#dfa61b"/><stop offset=".762494" stop-color="#dfa61b" stop-opacity=".895911"/><stop offset="1" stop-color="#dfa61b" stop-opacity="0"/></radialGradient><linearGradient id="j"><stop offset="0" stop-color="#bca6be"/><stop offset="1" stop-color="#b8acbb"/></linearGradient><radialGradient id="k" cx="0" cy="0" gradientTransform="matrix(.39843884 -1.70312427 2.03029052 .47497803 15.0703 12.2246)" gradientUnits="userSpaceOnUse" r="1" xlink:href="#j"/><linearGradient id="l"><stop offset=".718637" stop-color="#cfc9cc" stop-opacity="0"/><stop offset="1" stop-color="#cfc9cc"/></linearGradient><radialGradient id="m" cx="0" cy="0" gradientTransform="matrix(-1.73437108 -.65626378 .54688766 -1.44531235 15.6094 11.5215)" gradientUnits="userSpaceOnUse" r="1" xlink:href="#l"/><linearGradient id="n"><stop offset=".119782" stop-color="#d3c9d5"/><stop offset="1" stop-color="#bcaec1" stop-opacity="0"/></linearGradient><radialGradient id="o" cx="0" cy="0" gradientTransform="matrix(-.84374703 .29688197 -.31563247 -.89703648 15.8125 10.9746)" gradientUnits="userSpaceOnUse" r="1" xlink:href="#n"/><radialGradient id="p" cx="0" cy="0" gradientTransform="matrix(.39843884 -1.70312427 2.03029052 .47497803 15.3047 8.75586)" gradientUnits="userSpaceOnUse" r="1" xlink:href="#j"/><radialGradient id="q" cx="0" cy="0" gradientTransform="matrix(-1.73437108 -.65626378 .54688766 -1.44531235 15.8437 8.05273)" gradientUnits="userSpaceOnUse" r="1" xlink:href="#l"/><radialGradient id="r" cx="0" cy="0" gradientTransform="matrix(-.84374703 .29688197 -.31563247 -.89703648 16.0469 7.50586)" gradientUnits="userSpaceOnUse" r="1" xlink:href="#n"/><radialGradient id="s" cx="0" cy="0" gradientTransform="matrix(.39843884 -1.70312427 2.03029052 .47497803 16.6328 5.93555)" gradientUnits="userSpaceOnUse" r="1" xlink:href="#j"/><radialGradient id="t" cx="0" cy="0" gradientTransform="matrix(-1.73437108 -.65626378 .54688766 -1.44531235 17.1719 5.23242)" gradientUnits="userSpaceOnUse" r="1" xlink:href="#l"/><radialGradient id="u" cx="0" cy="0" gradientTransform="matrix(-.84374703 .29688197 -.31563247 -.89703648 17.375 4.68555)" gradientUnits="userSpaceOnUse" r="1" xlink:href="#n"/><linearGradient id="v" gradientUnits="userSpaceOnUse" x1="24.0781" x2="23.8906" y1="5.50589" y2="3.81953"><stop offset="0" stop-color="#ad90c5"/><stop offset="1" stop-color="#ad90c5" stop-opacity="0"/></linearGradient><linearGradient id="w" gradientUnits="userSpaceOnUse" x1="23.5312" x2="23.5937" y1="2.04736" y2="2.81839"><stop offset="0" stop-color="#bbb7bd"/><stop offset="1" stop-color="#bbb7bd" stop-opacity="0"/></linearGradient><linearGradient id="x" gradientUnits="userSpaceOnUse" x1="29.3125" x2="24.1635" y1="4.11526" y2="4.49026"><stop offset="0" stop-color="#4a4351"/><stop offset="1" stop-color="#412856"/></linearGradient><radialGradient id="y" cx="0" cy="0" gradientTransform="matrix(-6.53294787 .21877487 -.02826069 -.84390694 29.5954 3.17777)" gradientUnits="userSpaceOnUse" r="1"><stop offset="0" stop-color="#5e5864"/><stop offset="1" stop-color="#5e5864" stop-opacity="0"/></radialGradient><linearGradient id="z"><stop offset="0" stop-color="#fdcd6b"/><stop offset="1" stop-color="#fdcd6b" stop-opacity="0"/></linearGradient><linearGradient id="A" gradientUnits="userSpaceOnUse" x1="9.75" x2="18.0906" xlink:href="#z" y1="12.0215" y2="25.7694"/><linearGradient id="B" gradientUnits="userSpaceOnUse" x1="12.3126" x2="3.06256" y1="12.5215" y2="19.1465"><stop offset="0" stop-color="#dbc733"/><stop offset="1" stop-color="#c4a147"/></linearGradient><radialGradient id="C" cx="0" cy="0" gradientTransform="matrix(-4.93750412 1.7187445 -.43286351 -1.24350382 11.2501 14.1465)" gradientUnits="userSpaceOnUse" r="1"><stop offset="0" stop-color="#f0dd6a"/><stop offset="1" stop-color="#dac537" stop-opacity="0"/></radialGradient><radialGradient id="D" cx="0" cy="0" gradientTransform="matrix(-7.31250265 -.68750093 .8368739 -8.90128629 8.68756 17.209)" gradientUnits="userSpaceOnUse" r="1"><stop offset=".793254" stop-color="#e8d99d" stop-opacity="0"/><stop offset=".95496" stop-color="#e8d99d"/></radialGradient><radialGradient id="E" cx="0" cy="0" gradientTransform="matrix(5.26690155 -2.00000348 .49906989 1.3142737 2.0144 16.1153)" gradientUnits="userSpaceOnUse" r="1"><stop offset="0" stop-color="#e6d597"/><stop offset="1" stop-color="#c8ae3d" stop-opacity="0"/></radialGradient><linearGradient id="F" gradientUnits="userSpaceOnUse" x1="16" x2="21.3125" xlink:href="#z" y1="30.959" y2="3.08398"/><g filter="url(#a)"><path d="m7.6875 25.4533-3.625-7.6562 9.2031-3.7032.683 5.856c.0293.2513.2422.4409.4953.4409.2765 0 .5002-.2249.4987-.5014l-.0364-6.6392c-.0572-2.0209.2469-6.56566 1.9219-8.57815 2.7031-2.85366 9.1797-2.74428 10.3516-2.52553.6875.17969 2.4765.52341 2.4141 1.52341-.0626 1-1.3438 1.08594-4.8282 1.625-2.9687.54688-4.1797.79688-5.0547 2.09375-.7 1.0375-.8567 2.76252-.8515 3.54902.0573 3.1823.1718 10.0094.1718 11.8594 0 2.3125-.0859 5.9979-4.5546 7.0291-3.575.825-6.0391-2.5916-6.7891-4.3729z" fill="url(#h)"/><path d="m7.6875 25.4533-3.625-7.6562 9.2031-3.7032.683 5.856c.0293.2513.2422.4409.4953.4409.2765 0 .5002-.2249.4987-.5014l-.0364-6.6392c-.0572-2.0209.2469-6.56566 1.9219-8.57815 2.7031-2.85366 9.1797-2.74428 10.3516-2.52553.6875.17969 2.4765.52341 2.4141 1.52341-.0626 1-1.3438 1.08594-4.8282 1.625-2.9687.54688-4.1797.79688-5.0547 2.09375-.7 1.0375-.8567 2.76252-.8515 3.54902.0573 3.1823.1718 10.0094.1718 11.8594 0 2.3125-.0859 5.9979-4.5546 7.0291-3.575.825-6.0391-2.5916-6.7891-4.3729z" fill="url(#i)"/></g><g filter="url(#b)"><circle cx="15.0703" cy="11.2715" fill="url(#k)" r="1.08594"/><circle cx="15.0703" cy="11.2715" fill="url(#m)" r="1.08594"/><circle cx="15.0703" cy="11.2715" fill="url(#o)" r="1.08594"/></g><g filter="url(#c)"><circle cx="15.3047" cy="7.80273" fill="url(#p)" r="1.08594"/><circle cx="15.3047" cy="7.80273" fill="url(#q)" r="1.08594"/><circle cx="15.3047" cy="7.80273" fill="url(#r)" r="1.08594"/></g><g filter="url(#d)"><circle cx="16.6328" cy="4.98242" fill="url(#s)" r="1.08594"/><circle cx="16.6328" cy="4.98242" fill="url(#t)" r="1.08594"/><circle cx="16.6328" cy="4.98242" fill="url(#u)" r="1.08594"/></g><path d="m23.2151 5.5917c.4567-.09427.97-.18985 1.5505-.29678.3424-.05298.6636-.10159.9644-.14713 2.76-.41766 3.8074-.57614 3.8637-1.47787.057-.91129-1.4237-1.27759-2.2072-1.47138-.0762-.01886-.1459-.0361-.2069-.05203-.5515-.10296-2.2782-.18167-4.2336.06137.0702.71344.1761 1.92682.2691 3.38382z" fill="#c3b9cc"/><path d="m23.2151 5.5917c.4567-.09427.97-.18985 1.5505-.29678.3424-.05298.6636-.10159.9644-.14713 2.76-.41766 3.8074-.57614 3.8637-1.47787.057-.91129-1.4237-1.27759-2.2072-1.47138-.0762-.01886-.1459-.0361-.2069-.05203-.5515-.10296-2.2782-.18167-4.2336.06137.0702.71344.1761 1.92682.2691 3.38382z" fill="url(#v)"/><path d="m23.2151 5.5917c.4567-.09427.97-.18985 1.5505-.29678.3424-.05298.6636-.10159.9644-.14713 2.76-.41766 3.8074-.57614 3.8637-1.47787.057-.91129-1.4237-1.27759-2.2072-1.47138-.0762-.01886-.1459-.0361-.2069-.05203-.5515-.10296-2.2782-.18167-4.2336.06137.0702.71344.1761 1.92682.2691 3.38382z" fill="url(#w)"/><path d="m24.4253 5.35778c.1108-.02056.2242-.04147.3403-.06286.3424-.05298.6636-.10159.9644-.14713 2.76-.41766 3.8073-.57614 3.8637-1.47787.0625-.99999-1.5234-1.40622-2.4141-1.52341-.4332-.08087-1.5915-.14679-3.0161-.05356.068.69001.1703 1.8577.2618 3.26483z" fill="url(#x)"/><path d="m24.4253 5.35778c.1108-.02056.2242-.04147.3403-.06286.3424-.05298.6636-.10159.9644-.14713 2.76-.41766 3.8073-.57614 3.8637-1.47787.0625-.99999-1.5234-1.40622-2.4141-1.52341-.4332-.08087-1.5915-.14679-3.0161-.05356.068.69001.1703 1.8577.2618 3.26483z" fill="url(#y)"/><g filter="url(#e)"><path d="m12.875 25.0215-4.59375-8.75 4.37495-1.875 1.125 7.0937z" fill="url(#A)"/></g><g filter="url(#f)"><path d="m2.09707 17.4588c-.25932-.7171.11179-1.5087.8289-1.768l9.56023-3.4573c.7172-.2593 1.5087.1118 1.768.8289.2594.7172-.1117 1.5087-.8288 1.768l-9.56033 3.4573c-.71711.2593-1.50867-.1118-1.768-.8289z" fill="url(#B)"/><path d="m2.09707 17.4588c-.25932-.7171.11179-1.5087.8289-1.768l9.56023-3.4573c.7172-.2593 1.5087.1118 1.768.8289.2594.7172-.1117 1.5087-.8288 1.768l-9.56033 3.4573c-.71711.2593-1.50867-.1118-1.768-.8289z" fill="url(#C)"/><path d="m2.09707 17.4588c-.25932-.7171.11179-1.5087.8289-1.768l9.56023-3.4573c.7172-.2593 1.5087.1118 1.768.8289.2594.7172-.1117 1.5087-.8288 1.768l-9.56033 3.4573c-.71711.2593-1.50867-.1118-1.768-.8289z" fill="url(#D)"/><path d="m2.09707 17.4588c-.25932-.7171.11179-1.5087.8289-1.768l9.56023-3.4573c.7172-.2593 1.5087.1118 1.768.8289.2594.7172-.1117 1.5087-.8288 1.768l-9.56033 3.4573c-.71711.2593-1.50867-.1118-1.768-.8289z" fill="url(#E)"/></g><g filter="url(#g)"><path d="m17.5625 7.58398c.8-2.9 3.5-3.72916 4.75-3.78125v.5625c-2.125.3125-3.6563 1.4375-4.0313 3.59375-.75 3.75002 0 8.21872 0 12.78122 0 3.65-.7083 5.5-1.0624 5.9688l-1.2188-2.9063c.2604-.3437.8063-1.3125.9063-2.4375.125-1.4062-.3438-10.1562.6562-13.78122z" fill="url(#F)"/></g></svg>