<svg fill="none" height="32" viewBox="0 0 32 32" width="32" xmlns="http://www.w3.org/2000/svg"><path d="m28.5398 17.591-6.793-11.783c-1.195-2.071-3.333-3.308-5.721-3.308s-4.526 1.237-5.72 3.309l-6.79402 11.783c-1.314 2.281-1.312 5.004.005 7.281 1.313 2.272 3.661 3.627 6.281 3.627h12.45602c2.625 0 4.976-1.358 6.289-3.635 1.315-2.277 1.313-4.997-.003-7.274z" fill="#9b9b9b"/><path d="m11.1719 6.308-6.79403 11.783c-1.133 1.968-1.132 4.316.004 6.282 1.133 1.958 3.157 3.127 5.416 3.127h12.45603c2.263 0 4.29-1.172 5.423-3.135 1.134-1.964 1.132-4.31-.003-6.274l-6.794-11.783c-1.013-1.759-2.828-2.808-4.854-2.808s-3.841 1.05-4.854 2.808z" fill="#f4f4f4"/><g fill="#9b9b9b"><path d="m17.8225 7.43299c-.26.36-.76.43-1.11.17l-1.5999-1.18c-.36-.26-.43-.76-.17-1.11.26-.36.76-.43 1.11-.17l1.5999 1.18c.3601.26.4301.76.17 1.11z"/><path d="m11.7839 8.72198c.26-.35999.76-.42999 1.1-.16999.36.26099.429.76099.17 1.10998l-1.18 1.60003c-.26.35-.75.42-1.11.16-.35-.26-.42-.76-.16-1.1z"/><path d="m22.1521 10.823c-.2-.39-.68-.54-1.07-.34s-.54.68-.34 1.07l.92 1.76c.2.39.68.54 1.07.34.3901-.2.5401-.68.3401-1.07z"/><path d="m12.4841 13.8421c.4-.18.87 0 1.0499.4l.81 1.81c.18.3999 0 .8699-.4 1.0499s-.8699 0-1.0499-.4l-.81-1.8099c-.18-.4 0-.87.4-1.05z"/><path d="m7.95385 15.613-1.76.92c-.39.2-.54.6801-.34 1.0701s.68.54 1.07.34l1.76-.92c.39-.2.54-.6801.34-1.0701-.21-.39-.69-.541-1.07-.34z"/><path d="m24.8921 17.492 1.6 1.18c.35.26.42.76.17 1.11-.26.36-.76.43-1.11.17l-1.6-1.18c-.36-.26-.43-.76-.17-1.11.26-.36.76-.43 1.11-.17z"/><path d="m20.1324 15.172-1.98.14c-.44.03-.77.41-.73.85.03.43.41.7599.85.7299l1.98-.1399c.44-.03.77-.41.73-.85-.03-.44-.41-.769-.85-.73z"/><path d="m23.5816 23.483 1.46-1.35c.32-.3.8199-.28 1.1199.04s.28.82-.04 1.12l-1.4599 1.35c-.32.3-.83.28-1.12-.04-.3-.32-.28-.82.04-1.12z"/><path d="m7.51343 21.103c-.22-.38-.7-.51-1.08-.29s-.51.6999-.29 1.0799l.99 1.7199c.22.38.7.51 1.08.29s.51-.6999.3-1.0799z"/><path d="m17.7232 11.392c.4.18.59.64.42 1.04-.17.411-.64.59-1.04.42l-1.8199-.78c-.41-.17-.59-.64-.42-1.04.17-.41.64-.59 1.04-.42z"/></g><path d="m9.52911 19c0-.552.448-1 .99999-1h10.999c.552 0 1 .448 1 1v8c0 1.657-1.343 3-3 3h-6.999c-1.657 0-2.99999-1.343-2.99999-3z" fill="#533566"/></svg>