<svg fill="none" height="32" viewBox="0 0 32 32" width="32" xmlns="http://www.w3.org/2000/svg" xmlns:xlink="http://www.w3.org/1999/xlink"><filter id="a" color-interpolation-filters="sRGB" filterUnits="userSpaceOnUse" height="23.21" width="20.055" x="6.47247" y="6.85605"><feFlood flood-opacity="0" result="BackgroundImageFix"/><feBlend in="SourceGraphic" in2="BackgroundImageFix" mode="normal" result="shape"/><feColorMatrix in="SourceAlpha" result="hardAlpha" type="matrix" values="0 0 0 0 0 0 0 0 0 0 0 0 0 0 0 0 0 0 127 0"/><feOffset dx="1"/><feGaussianBlur stdDeviation=".7"/><feComposite in2="hardAlpha" k2="-1" k3="1" operator="arithmetic"/><feColorMatrix type="matrix" values="0 0 0 0 0.494118 0 0 0 0 0.352941 0 0 0 0 0.32549 0 0 0 1 0"/><feBlend in2="shape" mode="normal" result="effect1_innerShadow_3930_2009"/><feColorMatrix in="SourceAlpha" result="hardAlpha" type="matrix" values="0 0 0 0 0 0 0 0 0 0 0 0 0 0 0 0 0 0 127 0"/><feOffset dy=".2"/><feGaussianBlur stdDeviation=".375"/><feComposite in2="hardAlpha" k2="-1" k3="1" operator="arithmetic"/><feColorMatrix type="matrix" values="0 0 0 0 0.396078 0 0 0 0 0.215686 0 0 0 0 0.215686 0 0 0 1 0"/><feBlend in2="effect1_innerShadow_3930_2009" mode="normal" result="effect2_innerShadow_3930_2009"/></filter><filter id="b" color-interpolation-filters="sRGB" filterUnits="userSpaceOnUse" height="7.4069" width="5.25662" x="13.0194" y="15.8242"><feFlood flood-opacity="0" result="BackgroundImageFix"/><feBlend in="SourceGraphic" in2="BackgroundImageFix" mode="normal" result="shape"/><feGaussianBlur result="effect1_foregroundBlur_3930_2009" stdDeviation=".5"/></filter><filter id="c" color-interpolation-filters="sRGB" filterUnits="userSpaceOnUse" height="5.8069" width="3.9" x="13.9624" y="16.2592"><feFlood flood-opacity="0" result="BackgroundImageFix"/><feBlend in="SourceGraphic" in2="BackgroundImageFix" mode="normal" result="shape"/><feGaussianBlur result="effect1_foregroundBlur_3930_2009" stdDeviation=".1"/></filter><filter id="d" color-interpolation-filters="sRGB" filterUnits="userSpaceOnUse" height="2.50012" width="6.50029" x="12.6622" y="22.8659"><feFlood flood-opacity="0" result="BackgroundImageFix"/><feBlend in="SourceGraphic" in2="BackgroundImageFix" mode="normal" result="shape"/><feGaussianBlur result="effect1_foregroundBlur_3930_2009" stdDeviation=".05"/></filter><filter id="e" color-interpolation-filters="sRGB" filterUnits="userSpaceOnUse" height="15.1478" width="24" x="3.91241" y="1.36604"><feFlood flood-opacity="0" result="BackgroundImageFix"/><feBlend in="SourceGraphic" in2="BackgroundImageFix" mode="normal" result="shape"/><feColorMatrix in="SourceAlpha" result="hardAlpha" type="matrix" values="0 0 0 0 0 0 0 0 0 0 0 0 0 0 0 0 0 0 127 0"/><feOffset dy="-.5"/><feGaussianBlur stdDeviation=".625"/><feComposite in2="hardAlpha" k2="-1" k3="1" operator="arithmetic"/><feColorMatrix type="matrix" values="0 0 0 0 0.137255 0 0 0 0 0.0901961 0 0 0 0 0.145098 0 0 0 1 0"/><feBlend in2="shape" mode="normal" result="effect1_innerShadow_3930_2009"/><feColorMatrix in="SourceAlpha" result="hardAlpha" type="matrix" values="0 0 0 0 0 0 0 0 0 0 0 0 0 0 0 0 0 0 127 0"/><feOffset dy="-.2"/><feGaussianBlur stdDeviation=".2"/><feComposite in2="hardAlpha" k2="-1" k3="1" operator="arithmetic"/><feColorMatrix type="matrix" values="0 0 0 0 0.0784314 0 0 0 0 0.0352941 0 0 0 0 0.0470588 0 0 0 1 0"/><feBlend in2="effect1_innerShadow_3930_2009" mode="normal" result="effect2_innerShadow_3930_2009"/></filter><filter id="f" color-interpolation-filters="sRGB" filterUnits="userSpaceOnUse" height="2.04658" width="4.27416" x="18.8753" y="11.666"><feFlood flood-opacity="0" result="BackgroundImageFix"/><feBlend in="SourceGraphic" in2="BackgroundImageFix" mode="normal" result="shape"/><feColorMatrix in="SourceAlpha" result="hardAlpha" type="matrix" values="0 0 0 0 0 0 0 0 0 0 0 0 0 0 0 0 0 0 127 0"/><feOffset dx=".1" dy="-.2"/><feGaussianBlur stdDeviation=".125"/><feComposite in2="hardAlpha" k2="-1" k3="1" operator="arithmetic"/><feColorMatrix type="matrix" values="0 0 0 0 0.172549 0 0 0 0 0.0862745 0 0 0 0 0.156863 0 0 0 1 0"/><feBlend in2="shape" mode="normal" result="effect1_innerShadow_3930_2009"/></filter><filter id="g" color-interpolation-filters="sRGB" filterUnits="userSpaceOnUse" height="2.01908" width="4.27416" x="9.07535" y="11.6935"><feFlood flood-opacity="0" result="BackgroundImageFix"/><feBlend in="SourceGraphic" in2="BackgroundImageFix" mode="normal" result="shape"/><feColorMatrix in="SourceAlpha" result="hardAlpha" type="matrix" values="0 0 0 0 0 0 0 0 0 0 0 0 0 0 0 0 0 0 127 0"/><feOffset dx=".1" dy="-.2"/><feGaussianBlur stdDeviation=".125"/><feComposite in2="hardAlpha" k2="-1" k3="1" operator="arithmetic"/><feColorMatrix type="matrix" values="0 0 0 0 0.172549 0 0 0 0 0.0862745 0 0 0 0 0.156863 0 0 0 1 0"/><feBlend in2="shape" mode="normal" result="effect1_innerShadow_3930_2009"/></filter><filter id="h" color-interpolation-filters="sRGB" filterUnits="userSpaceOnUse" height="11.239" width="12.3438" x="4.54132" y="2.93007"><feFlood flood-opacity="0" result="BackgroundImageFix"/><feBlend in="SourceGraphic" in2="BackgroundImageFix" mode="normal" result="shape"/><feColorMatrix in="SourceAlpha" result="hardAlpha" type="matrix" values="0 0 0 0 0 0 0 0 0 0 0 0 0 0 0 0 0 0 127 0"/><feOffset dx=".4" dy=".2"/><feGaussianBlur stdDeviation=".2"/><feComposite in2="hardAlpha" k2="-1" k3="1" operator="arithmetic"/><feColorMatrix type="matrix" values="0 0 0 0 0.286275 0 0 0 0 0.243137 0 0 0 0 0.227451 0 0 0 1 0"/><feBlend in2="shape" mode="normal" result="effect1_innerShadow_3930_2009"/><feGaussianBlur result="effect2_foregroundBlur_3930_2009" stdDeviation=".25"/></filter><filter id="i" color-interpolation-filters="sRGB" filterUnits="userSpaceOnUse" height="10.9649" width="12.0935" x="15.4166" y="3.51679"><feFlood flood-opacity="0" result="BackgroundImageFix"/><feBlend in="SourceGraphic" in2="BackgroundImageFix" mode="normal" result="shape"/><feGaussianBlur result="effect1_foregroundBlur_3930_2009" stdDeviation=".25"/></filter><filter id="j" color-interpolation-filters="sRGB" filterUnits="userSpaceOnUse" height="1.12532" width="1.29412" x="18.6983" y="15.9192"><feFlood flood-opacity="0" result="BackgroundImageFix"/><feBlend in="SourceGraphic" in2="BackgroundImageFix" mode="normal" result="shape"/><feGaussianBlur result="effect1_foregroundBlur_3930_2009" stdDeviation=".05"/></filter><filter id="k" color-interpolation-filters="sRGB" filterUnits="userSpaceOnUse" height="1.35721" width="1.31586" x="20.3507" y="16.1456"><feFlood flood-opacity="0" result="BackgroundImageFix"/><feBlend in="SourceGraphic" in2="BackgroundImageFix" mode="normal" result="shape"/><feGaussianBlur result="effect1_foregroundBlur_3930_2009" stdDeviation=".1"/></filter><filter id="l" color-interpolation-filters="sRGB" filterUnits="userSpaceOnUse" height="1.59362" width="1.49317" x="12.0675" y="16.0273"><feFlood flood-opacity="0" result="BackgroundImageFix"/><feBlend in="SourceGraphic" in2="BackgroundImageFix" mode="normal" result="shape"/><feGaussianBlur result="effect1_foregroundBlur_3930_2009" stdDeviation=".1"/></filter><filter id="m" color-interpolation-filters="sRGB" filterUnits="userSpaceOnUse" height="1.1406" width="1.52947" x="10.5737" y="15.9041"><feFlood flood-opacity="0" result="BackgroundImageFix"/><feBlend in="SourceGraphic" in2="BackgroundImageFix" mode="normal" result="shape"/><feGaussianBlur result="effect1_foregroundBlur_3930_2009" stdDeviation=".05"/></filter><filter id="n" color-interpolation-filters="sRGB" filterUnits="userSpaceOnUse" height="4.00389" width="2.04541" x="4.79132" y="15.8766"><feFlood flood-opacity="0" result="BackgroundImageFix"/><feBlend in="SourceGraphic" in2="BackgroundImageFix" mode="normal" result="shape"/><feGaussianBlur result="effect1_foregroundBlur_3930_2009" stdDeviation=".125"/></filter><filter id="o" color-interpolation-filters="sRGB" filterUnits="userSpaceOnUse" height="4.54863" width="2.76471" x="24.6282" y="15.5917"><feFlood flood-opacity="0" result="BackgroundImageFix"/><feBlend in="SourceGraphic" in2="BackgroundImageFix" mode="normal" result="shape"/><feGaussianBlur result="effect1_foregroundBlur_3930_2009" stdDeviation=".25"/></filter><filter id="p" color-interpolation-filters="sRGB" filterUnits="userSpaceOnUse" height="1.51483" width="3.83597" x="9.24835" y="11.984"><feFlood flood-opacity="0" result="BackgroundImageFix"/><feBlend in="SourceGraphic" in2="BackgroundImageFix" mode="normal" result="shape"/><feGaussianBlur result="effect1_foregroundBlur_3930_2009" stdDeviation=".125"/></filter><filter id="q" color-interpolation-filters="sRGB" filterUnits="userSpaceOnUse" height="1.51483" width="3.83597" x="19.0906" y="11.8981"><feFlood flood-opacity="0" result="BackgroundImageFix"/><feBlend in="SourceGraphic" in2="BackgroundImageFix" mode="normal" result="shape"/><feGaussianBlur result="effect1_foregroundBlur_3930_2009" stdDeviation=".125"/></filter><radialGradient id="r" cx="0" cy="0" gradientTransform="matrix(1.39602919 3.76525027 -4.47282163 1.65837305 24.7746 20.116)" gradientUnits="userSpaceOnUse" r="1"><stop offset=".214643" stop-color="#332f31"/><stop offset="1" stop-color="#221925"/></radialGradient><radialGradient id="s" cx="0" cy="0" gradientTransform="matrix(2.75272962 .8651442 -2.6690311 8.49236567 4.62068 21.0302)" gradientUnits="userSpaceOnUse" r="1"><stop offset="0" stop-color="#3e3330"/><stop offset=".745836" stop-color="#201524"/></radialGradient><radialGradient id="t" cx="0" cy="0" gradientTransform="matrix(-9.74687 0 0 -17.2421 21.1471 18.361)" gradientUnits="userSpaceOnUse" r="1"><stop offset="0" stop-color="#9a6e61"/><stop offset="1" stop-color="#754c4c"/></radialGradient><radialGradient id="u" cx="0" cy="0" gradientTransform="matrix(-3.24997026 5.37501534 -4.43751515 -2.68311649 20.4375 9.07815)" gradientUnits="userSpaceOnUse" r="1"><stop offset=".0780198" stop-color="#855e5a"/><stop offset="1" stop-color="#855e5a" stop-opacity="0"/></radialGradient><linearGradient id="v" gradientUnits="userSpaceOnUse" x1="25.5275" x2="20.8125" y1="21.5034" y2="21.5034"><stop offset="0" stop-color="#936b5d"/><stop offset="1" stop-color="#936b5d" stop-opacity="0"/></linearGradient><radialGradient id="w" cx="0" cy="0" gradientTransform="matrix(-1.90585269 23.16252383 -19.18137784 -1.57827709 18.8609 7.3359)" gradientUnits="userSpaceOnUse" r="1"><stop offset=".767031" stop-color="#804776" stop-opacity="0"/><stop offset="1" stop-color="#804776"/></radialGradient><radialGradient id="x" cx="0" cy="0" gradientTransform="matrix(0 -2.141 2.64949 0 20.4749 15.9133)" gradientUnits="userSpaceOnUse" r="1"><stop offset=".325" stop-color="#875455"/><stop offset="1" stop-color="#875455" stop-opacity="0"/></radialGradient><radialGradient id="y" cx="0" cy="0" gradientTransform="matrix(.00732815 -2.04018684 2.22020568 .00797476 11.6238 16)" gradientUnits="userSpaceOnUse" r="1"><stop offset=".377617" stop-color="#70424e"/><stop offset="1" stop-color="#70424e" stop-opacity="0"/></radialGradient><radialGradient id="z" cx="0" cy="0" gradientTransform="matrix(-15.83997215 .99989727 -2.55424093 -40.463262 22.3125 20.2031)" gradientUnits="userSpaceOnUse" r="1"><stop offset=".835902" stop-color="#815f58" stop-opacity="0"/><stop offset="1" stop-color="#815f58"/></radialGradient><radialGradient id="A" cx="0" cy="0" gradientTransform="matrix(6.31249546 -5.43750494 1.60614886 1.86460656 3.24998 13.2656)" gradientUnits="userSpaceOnUse" r="1"><stop offset=".539452" stop-color="#4f2c2a"/><stop offset="1" stop-color="#4f2c2a" stop-opacity="0"/></radialGradient><radialGradient id="B" cx="0" cy="0" gradientTransform="matrix(-.43749714 4.65625175 -1.86130198 -.17488623 26.25 12.9219)" gradientUnits="userSpaceOnUse" r="1"><stop offset=".244676" stop-color="#98786d"/><stop offset="1" stop-color="#98786d" stop-opacity="0"/></radialGradient><linearGradient id="C" gradientUnits="userSpaceOnUse" x1="17.4752" x2="15.9124" y1="19.6192" y2="19.6842"><stop offset=".360477" stop-color="#a17c72"/><stop offset="1" stop-color="#a17c72" stop-opacity="0"/></linearGradient><radialGradient id="D" cx="0" cy="0" gradientTransform="matrix(0 .455108 -1.43034 0 16.7817 20.8978)" gradientUnits="userSpaceOnUse" r="1"><stop offset="0" stop-color="#a17c72"/><stop offset="1" stop-color="#a17c72" stop-opacity="0"/></radialGradient><linearGradient id="E" gradientUnits="userSpaceOnUse" x1="15.9124" x2="15.9124" y1="21.743" y2="20.8761"><stop offset="0" stop-color="#7d465b"/><stop offset="1" stop-color="#7d465b" stop-opacity="0"/></linearGradient><radialGradient id="F" cx="0" cy="0" gradientTransform="matrix(-2.83604081 1.30029741 -2.08968569 -4.55775261 16.9985 19.8359)" gradientUnits="userSpaceOnUse" r="1"><stop offset=".714105" stop-color="#744a4a" stop-opacity="0"/><stop offset="1" stop-color="#744a4a"/></radialGradient><linearGradient id="G" gradientUnits="userSpaceOnUse" x1="15.9124" x2="15.9124" y1="16.6996" y2="17.7188"><stop offset="0" stop-color="#865c56"/><stop offset="1" stop-color="#865c56" stop-opacity="0"/></linearGradient><linearGradient id="H" gradientUnits="userSpaceOnUse" x1="16.6875" x2="16.6875" y1="22" y2="21.6406"><stop offset="0" stop-color="#6d3945"/><stop offset="1" stop-color="#6d3945" stop-opacity="0"/></linearGradient><radialGradient id="I" cx="0" cy="0" gradientTransform="matrix(-2.39062014 2.28125555 -3.29240539 -3.45024504 16.7188 19.2969)" gradientUnits="userSpaceOnUse" r="1"><stop offset=".88758" stop-color="#6d3945" stop-opacity="0"/><stop offset="1" stop-color="#6d3945"/></radialGradient><linearGradient id="J" gradientUnits="userSpaceOnUse" x1="13.6719" x2="14.2656" y1="24.6719" y2="23.116"><stop offset="0" stop-color="#866163"/><stop offset="1" stop-color="#866163" stop-opacity="0"/></linearGradient><radialGradient id="K" cx="0" cy="0" gradientTransform="matrix(4.06811064 -2.00000385 8.04654376 16.36708359 14.9969 25.116)" gradientUnits="userSpaceOnUse" r="1"><stop offset=".562207" stop-color="#87004e"/><stop offset="1" stop-color="#87004d"/></radialGradient><linearGradient id="L" gradientUnits="userSpaceOnUse" x1="28.6874" x2="7.03741" y1="7.80354" y2="7.80354"><stop offset="0" stop-color="#443237"/><stop offset="1" stop-color="#362c2e"/></linearGradient><radialGradient id="M" cx="0" cy="0" gradientTransform="matrix(0 -6.52791 16.5083 0 6.16241 12.9687)" gradientUnits="userSpaceOnUse" r="1"><stop offset=".535851" stop-color="#3e3433"/><stop offset="1" stop-color="#3e3433" stop-opacity="0"/></radialGradient><radialGradient id="N" cx="0" cy="0" gradientTransform="matrix(.21261983 -4.68441721 8.29986496 .37672047 24.9749 15.4116)" gradientUnits="userSpaceOnUse" r="1"><stop offset="0" stop-color="#4f4d4d"/><stop offset="1" stop-color="#4f4d4d" stop-opacity="0"/></radialGradient><radialGradient id="O" cx="0" cy="0" gradientTransform="matrix(-4.3978325 -2.89246329 2.12321797 -3.228237 23.5687 3.70979)" gradientUnits="userSpaceOnUse" r="1"><stop offset="0" stop-color="#402c32"/><stop offset="1" stop-color="#402c32" stop-opacity="0"/></radialGradient><radialGradient id="P" cx="0" cy="0" gradientTransform="matrix(1.68750176 2.750002 -6.36771108 3.90746031 14.2249 .741043)" gradientUnits="userSpaceOnUse" r="1"><stop offset=".286771" stop-color="#484646"/><stop offset="1" stop-color="#484646" stop-opacity="0"/></radialGradient><radialGradient id="Q" cx="0" cy="0" gradientTransform="matrix(-4.10381 0 0 -1.52308 16.3851 4.95315)" gradientUnits="userSpaceOnUse" r="1"><stop offset="0" stop-color="#423c3f"/><stop offset="1" stop-color="#423c3f" stop-opacity="0"/></radialGradient><radialGradient id="R" cx="0" cy="0" gradientTransform="matrix(5.9999913 -9.5000025 10.5249892 6.64735021 5.78743 12.3035)" gradientUnits="userSpaceOnUse" r="1"><stop offset=".0926981" stop-color="#0b0306"/><stop offset=".311222" stop-color="#1c0c20"/><stop offset="1" stop-color="#1c0c20" stop-opacity="0"/></radialGradient><radialGradient id="S" cx="0" cy="0" gradientTransform="matrix(5.70209 0 0 2.22942 22.2775 6.40143)" gradientUnits="userSpaceOnUse" r="1"><stop offset="0" stop-color="#4e494b"/><stop offset="1" stop-color="#4e494b" stop-opacity="0"/></radialGradient><radialGradient id="T" cx="0" cy="0" gradientTransform="matrix(4.99424633 -4.75830066 8.71124866 9.1432057 20.8225 12.0642)" gradientUnits="userSpaceOnUse" r="1"><stop offset=".856906" stop-color="#545051" stop-opacity="0"/><stop offset="1" stop-color="#545051"/></radialGradient><radialGradient id="U" cx="0" cy="0" gradientTransform="matrix(6.05601273 .70784566 -.2963617 2.53553891 19.1708 9.31146)" gradientUnits="userSpaceOnUse" r="1"><stop offset="0" stop-color="#200e25"/><stop offset="1" stop-color="#200e25" stop-opacity="0"/></radialGradient><linearGradient id="V"><stop offset=".80198" stop-color="#7d574a"/><stop offset="1" stop-color="#694b43"/><stop offset="1" stop-color="#804d49"/><stop offset="1" stop-color="#664842"/></linearGradient><radialGradient id="W" cx="0" cy="0" gradientTransform="matrix(0 1.51263 -2.40601 0 19.9807 16.6528)" gradientUnits="userSpaceOnUse" r="1" xlink:href="#V"/><linearGradient id="X"><stop offset=".765532" stop-color="#ffe6e2" stop-opacity="0"/><stop offset=".966159" stop-color="#ffe6e2"/></linearGradient><radialGradient id="Y" cx="0" cy="0" gradientTransform="matrix(-.43239025 -.55719314 .76712139 -.59529772 19.5552 16.8097)" gradientUnits="userSpaceOnUse" r="1" xlink:href="#X"/><linearGradient id="Z"><stop offset="0" stop-color="#b4948d"/><stop offset="1" stop-color="#b4948d" stop-opacity="0"/></linearGradient><linearGradient id="aa" gradientUnits="userSpaceOnUse" x1="21.4311" x2="20.8461" xlink:href="#Z" y1="16.7533" y2="17.1137"/><radialGradient id="ab" cx="0" cy="0" gradientTransform="matrix(0 1.51271 -2.40614 0 11.8443 16.6528)" gradientUnits="userSpaceOnUse" r="1" xlink:href="#V"/><linearGradient id="ac" gradientUnits="userSpaceOnUse" x1="13.2312" x2="12.6462" xlink:href="#Z" y1="16.7532" y2="17.1137"/><radialGradient id="ad" cx="0" cy="0" gradientTransform="matrix(-.01442275 -.9211761 1.10729429 -.01733678 11.3103 17.0615)" gradientUnits="userSpaceOnUse" r="1" xlink:href="#X"/><linearGradient id="ae" gradientUnits="userSpaceOnUse" x1="27.9124" x2="25.6624" y1="16.8035" y2="20.8609"><stop offset="0" stop-color="#9c7b71"/><stop offset="1" stop-color="#815758"/></linearGradient><radialGradient id="af" cx="0" cy="0" gradientTransform="matrix(1.17187529 4.18238605 -3.99032288 1.11806053 24.5218 16.6785)" gradientUnits="userSpaceOnUse" r="1"><stop offset=".856273" stop-color="#71404f" stop-opacity="0"/><stop offset="1" stop-color="#71404f"/></radialGradient><radialGradient id="ag" cx="0" cy="0" gradientTransform="matrix(1.46875336 -2.01562638 1.68949607 1.23110764 25.1937 17.6942)" gradientUnits="userSpaceOnUse" r="1"><stop offset=".663731" stop-color="#7c4c46"/><stop offset="1" stop-color="#7c4c46" stop-opacity="0"/></radialGradient><radialGradient id="ah" cx="0" cy="0" gradientTransform="matrix(1.09440312 -2.89062231 3.86227452 1.46227519 25.4062 18.0157)" gradientUnits="userSpaceOnUse" r="1"><stop offset=".803247" stop-color="#805d4c" stop-opacity="0"/><stop offset="1" stop-color="#805d4c"/></radialGradient><linearGradient id="ai" gradientUnits="userSpaceOnUse" x1="5.00616" x2="7.72491" y1="18.116" y2="17.8786"><stop offset="0" stop-color="#6a4544"/><stop offset="1" stop-color="#623549"/></linearGradient><radialGradient id="aj" cx="0" cy="0" gradientTransform="matrix(-3.09167 0 0 -3.45229 6.74792 17.8742)" gradientUnits="userSpaceOnUse" r="1"><stop offset=".777628" stop-color="#836158" stop-opacity="0"/><stop offset="1" stop-color="#836158"/></radialGradient><radialGradient id="ak" cx="0" cy="0" gradientTransform="matrix(-1.7086999 .29330132 -.30072483 -1.7519474 6.75002 17.8786)" gradientUnits="userSpaceOnUse" r="1"><stop offset="0" stop-color="#57353c"/><stop offset="1" stop-color="#5b3336"/></radialGradient><linearGradient id="al" gradientUnits="userSpaceOnUse" x1="26.0106" x2="26.0106" y1="16.0917" y2="19.6404"><stop offset="0" stop-color="#825d56"/><stop offset="1" stop-color="#7d5449"/></linearGradient><path d="m24.9759 20.6913c.625-.0202 1.2103-.2321 1.6865-.5753v1.7358c0 1.6652-.992 3.1486-2.5 3.7642.3175-.6761.5357-1.4128.6449-2.2z" fill="url(#r)"/><path d="m6.84892 20.6913c-.625-.0202-1.21031-.2321-1.68651-.5753v1.7358c0 1.6652.99207 3.1486 2.5 3.7642-.31746-.6761-.53571-1.4128-.64484-2.2z" fill="url(#s)"/><g filter="url(#a)"><path d="m6.91673 23.516c.47964 3.64 3.57727 6.35 7.24457 6.35h3.5173c3.6673 0 6.7649-2.71 7.2446-6.35.2199-3.5119.4411-7.0098.6043-10.52-.0198-1.43-1.1471-2.61-2.571-2.67h-2.6105c-1.78 0-3.3918-1.04995-4.1235-2.68995-.1879-.47-.6428-.78-1.1471-.78h-2.3732c-3.44119 0-6.22973 2.81999-6.22973 6.29995 0 3.4692.21669 6.8822.44426 10.36z" fill="url(#t)"/><path d="m6.91673 23.516c.47964 3.64 3.57727 6.35 7.24457 6.35h3.5173c3.6673 0 6.7649-2.71 7.2446-6.35.2199-3.5119.4411-7.0098.6043-10.52-.0198-1.43-1.1471-2.61-2.571-2.67h-2.6105c-1.78 0-3.3918-1.04995-4.1235-2.68995-.1879-.47-.6428-.78-1.1471-.78h-2.3732c-3.44119 0-6.22973 2.81999-6.22973 6.29995 0 3.4692.21669 6.8822.44426 10.36z" fill="url(#u)"/></g><path d="m6.91673 23.516c.47964 3.64 3.57727 6.35 7.24457 6.35h3.5173c3.6673 0 6.7649-2.71 7.2446-6.35.2199-3.5119.4411-7.0098.6043-10.52-.0198-1.43-1.1471-2.61-2.571-2.67h-2.6105c-1.78 0-3.3918-1.04995-4.1235-2.68995-.1879-.47-.6428-.78-1.1471-.78h-2.3732c-3.44119 0-6.22973 2.81999-6.22973 6.29995 0 3.4692.21669 6.8822.44426 10.36z" fill="url(#v)"/><path d="m6.91673 23.516c.47964 3.64 3.57727 6.35 7.24457 6.35h3.5173c3.6673 0 6.7649-2.71 7.2446-6.35.2199-3.5119.4411-7.0098.6043-10.52-.0198-1.43-1.1471-2.61-2.571-2.67h-2.6105c-1.78 0-3.3918-1.04995-4.1235-2.68995-.1879-.47-.6428-.78-1.1471-.78h-2.3732c-3.44119 0-6.22973 2.81999-6.22973 6.29995 0 3.4692.21669 6.8822.44426 10.36z" fill="url(#w)"/><path d="m6.91673 23.516c.47964 3.64 3.57727 6.35 7.24457 6.35h3.5173c3.6673 0 6.7649-2.71 7.2446-6.35.2199-3.5119.4411-7.0098.6043-10.52-.0198-1.43-1.1471-2.61-2.571-2.67h-2.6105c-1.78 0-3.3918-1.04995-4.1235-2.68995-.1879-.47-.6428-.78-1.1471-.78h-2.3732c-3.44119 0-6.22973 2.81999-6.22973 6.29995 0 3.4692.21669 6.8822.44426 10.36z" fill="url(#x)"/><path d="m6.91673 23.516c.47964 3.64 3.57727 6.35 7.24457 6.35h3.5173c3.6673 0 6.7649-2.71 7.2446-6.35.2199-3.5119.4411-7.0098.6043-10.52-.0198-1.43-1.1471-2.61-2.571-2.67h-2.6105c-1.78 0-3.3918-1.04995-4.1235-2.68995-.1879-.47-.6428-.78-1.1471-.78h-2.3732c-3.44119 0-6.22973 2.81999-6.22973 6.29995 0 3.4692.21669 6.8822.44426 10.36z" fill="url(#y)"/><path d="m6.91673 23.516c.47964 3.64 3.57727 6.35 7.24457 6.35h3.5173c3.6673 0 6.7649-2.71 7.2446-6.35.2199-3.5119.4411-7.0098.6043-10.52-.0198-1.43-1.1471-2.61-2.571-2.67h-2.6105c-1.78 0-3.3918-1.04995-4.1235-2.68995-.1879-.47-.6428-.78-1.1471-.78h-2.3732c-3.44119 0-6.22973 2.81999-6.22973 6.29995 0 3.4692.21669 6.8822.44426 10.36z" fill="url(#z)"/><path d="m6.91673 23.516c.47964 3.64 3.57727 6.35 7.24457 6.35h3.5173c3.6673 0 6.7649-2.71 7.2446-6.35.2199-3.5119.4411-7.0098.6043-10.52-.0198-1.43-1.1471-2.61-2.571-2.67h-2.6105c-1.78 0-3.3918-1.04995-4.1235-2.68995-.1879-.47-.6428-.78-1.1471-.78h-2.3732c-3.44119 0-6.22973 2.81999-6.22973 6.29995 0 3.4692.21669 6.8822.44426 10.36z" fill="url(#A)"/><path d="m6.91673 23.516c.47964 3.64 3.57727 6.35 7.24457 6.35h3.5173c3.6673 0 6.7649-2.71 7.2446-6.35.2199-3.5119.4411-7.0098.6043-10.52-.0198-1.43-1.1471-2.61-2.571-2.67h-2.6105c-1.78 0-3.3918-1.04995-4.1235-2.68995-.1879-.47-.6428-.78-1.1471-.78h-2.3732c-3.44119 0-6.22973 2.81999-6.22973 6.29995 0 3.4692.21669 6.8822.44426 10.36z" fill="url(#B)"/><g filter="url(#b)"><path d="m15.164 17.3936-1.1015 3.4275c-.1882.705.2634 1.41.9031 1.41h1.3642c.6398 0 1.0913-.7159.9032-1.41l-.922-3.4275c-.1976-.7592-.94-.7592-1.147 0z" fill="#6f3f46"/></g><g filter="url(#c)"><path d="m15.1996 17.0286-.9909 3.4274c-.2022.705.2831 1.4101.9707 1.4101h1.4661c.6875 0 1.1729-.7159.9706-1.4101l-.9909-3.4274c-.2123-.7593-1.2032-.7593-1.4256 0z" fill="#845b55"/><path d="m15.1996 17.0286-.9909 3.4274c-.2022.705.2831 1.4101.9707 1.4101h1.4661c.6875 0 1.1729-.7159.9706-1.4101l-.9909-3.4274c-.2123-.7593-1.2032-.7593-1.4256 0z" fill="url(#C)"/><path d="m15.1996 17.0286-.9909 3.4274c-.2022.705.2831 1.4101.9707 1.4101h1.4661c.6875 0 1.1729-.7159.9706-1.4101l-.9909-3.4274c-.2123-.7593-1.2032-.7593-1.4256 0z" fill="url(#D)"/><path d="m15.1996 17.0286-.9909 3.4274c-.2022.705.2831 1.4101.9707 1.4101h1.4661c.6875 0 1.1729-.7159.9706-1.4101l-.9909-3.4274c-.2123-.7593-1.2032-.7593-1.4256 0z" fill="url(#E)"/><path d="m15.1996 17.0286-.9909 3.4274c-.2022.705.2831 1.4101.9707 1.4101h1.4661c.6875 0 1.1729-.7159.9706-1.4101l-.9909-3.4274c-.2123-.7593-1.2032-.7593-1.4256 0z" fill="url(#F)"/><path d="m15.1996 17.0286-.9909 3.4274c-.2022.705.2831 1.4101.9707 1.4101h1.4661c.6875 0 1.1729-.7159.9706-1.4101l-.9909-3.4274c-.2123-.7593-1.2032-.7593-1.4256 0z" fill="url(#G)"/></g><path d="m15.1996 17.0286-.9909 3.4274c-.2022.705.2831 1.4101.9707 1.4101h1.4661c.6875 0 1.1729-.7159.9706-1.4101l-.9909-3.4274c-.2123-.7593-1.2032-.7593-1.4256 0z" fill="url(#H)"/><path d="m15.1996 17.0286-.9909 3.4274c-.2022.705.2831 1.4101.9707 1.4101h1.4661c.6875 0 1.1729-.7159.9706-1.4101l-.9909-3.4274c-.2123-.7593-1.2032-.7593-1.4256 0z" fill="url(#I)"/><g filter="url(#d)"><path d="m13.3641 23.0826-.0007-.0003c-.1611-.082-.3288-.0312-.429.0743-.1006.1058-.1395.2745-.0362.4242.6381.9664 1.7491 1.6102 3.0142 1.6102 1.2654 0 2.3766-.6441 3.0146-1.6108.1021-.1532.065-.3217-.0369-.4274-.101-.1049-.2686-.1519-.4286-.0705h-.0001l-.0006.0003c-.7365.3839-1.6045.6039-2.5484.6039-.9345 0-1.812-.22-2.5483-.6039z" stroke="url(#J)" stroke-width=".15"/></g><path d="m15.9124 23.7615c-.9462 0-1.8355-.2227-2.583-.6124-.2555-.1299-.5299.1577-.369.3897.6244.9463 1.7125 1.5772 2.952 1.5772s2.3276-.6309 2.952-1.5772c.1609-.2412-.1135-.5196-.369-.3897-.7474.3897-1.6274.6124-2.583.6124z" fill="url(#K)"/><g filter="url(#e)"><path d="m24.9639 5.97604c.9591.33 1.8194 1 2.3633 1.96.8702 1.53.7416 3.35996-.1978 4.70996-.3263.48-.5043 1.05-.5043 1.63v2.215c-.3487-.2429-.8088-.423-1.2439-.5l.1463-2.995c-.0198-1.43-1.1471-2.61-2.571-2.67h-2.6105c-1.78 0-3.3918-1.04996-4.1235-2.68996-.1879-.47-.6428-.78-1.1471-.78h-2.3732c-3.44117 0-6.22971 2.82-6.22971 6.29996l.05711 2.8663c-.4735.0696-.96814.2279-1.34261.4916v-2.2379c0-.58-.17799-1.15-.50431-1.63-.88996-1.31-1.04818-3.06996-.26699-4.55996.54386-1.03 1.42394-1.75 2.42267-2.1 1.06795-.38 1.97769-1.1 2.58088-2.07.77126-1.23 2.12606-2.05 3.67846-2.05.6032 0 1.1768.13 1.7107.35.712.31 1.513.31 2.2249 0 .5241-.22 1.0977-.35 1.7009-.35 1.5722 0 2.9467.85 3.7081 2.11.5735.95 1.4734 1.64 2.5216 2z" fill="url(#L)"/><path d="m24.9639 5.97604c.9591.33 1.8194 1 2.3633 1.96.8702 1.53.7416 3.35996-.1978 4.70996-.3263.48-.5043 1.05-.5043 1.63v2.215c-.3487-.2429-.8088-.423-1.2439-.5l.1463-2.995c-.0198-1.43-1.1471-2.61-2.571-2.67h-2.6105c-1.78 0-3.3918-1.04996-4.1235-2.68996-.1879-.47-.6428-.78-1.1471-.78h-2.3732c-3.44117 0-6.22971 2.82-6.22971 6.29996l.05711 2.8663c-.4735.0696-.96814.2279-1.34261.4916v-2.2379c0-.58-.17799-1.15-.50431-1.63-.88996-1.31-1.04818-3.06996-.26699-4.55996.54386-1.03 1.42394-1.75 2.42267-2.1 1.06795-.38 1.97769-1.1 2.58088-2.07.77126-1.23 2.12606-2.05 3.67846-2.05.6032 0 1.1768.13 1.7107.35.712.31 1.513.31 2.2249 0 .5241-.22 1.0977-.35 1.7009-.35 1.5722 0 2.9467.85 3.7081 2.11.5735.95 1.4734 1.64 2.5216 2z" fill="url(#M)"/><path d="m24.9639 5.97604c.9591.33 1.8194 1 2.3633 1.96.8702 1.53.7416 3.35996-.1978 4.70996-.3263.48-.5043 1.05-.5043 1.63v2.215c-.3487-.2429-.8088-.423-1.2439-.5l.1463-2.995c-.0198-1.43-1.1471-2.61-2.571-2.67h-2.6105c-1.78 0-3.3918-1.04996-4.1235-2.68996-.1879-.47-.6428-.78-1.1471-.78h-2.3732c-3.44117 0-6.22971 2.82-6.22971 6.29996l.05711 2.8663c-.4735.0696-.96814.2279-1.34261.4916v-2.2379c0-.58-.17799-1.15-.50431-1.63-.88996-1.31-1.04818-3.06996-.26699-4.55996.54386-1.03 1.42394-1.75 2.42267-2.1 1.06795-.38 1.97769-1.1 2.58088-2.07.77126-1.23 2.12606-2.05 3.67846-2.05.6032 0 1.1768.13 1.7107.35.712.31 1.513.31 2.2249 0 .5241-.22 1.0977-.35 1.7009-.35 1.5722 0 2.9467.85 3.7081 2.11.5735.95 1.4734 1.64 2.5216 2z" fill="url(#N)"/><path d="m24.9639 5.97604c.9591.33 1.8194 1 2.3633 1.96.8702 1.53.7416 3.35996-.1978 4.70996-.3263.48-.5043 1.05-.5043 1.63v2.215c-.3487-.2429-.8088-.423-1.2439-.5l.1463-2.995c-.0198-1.43-1.1471-2.61-2.571-2.67h-2.6105c-1.78 0-3.3918-1.04996-4.1235-2.68996-.1879-.47-.6428-.78-1.1471-.78h-2.3732c-3.44117 0-6.22971 2.82-6.22971 6.29996l.05711 2.8663c-.4735.0696-.96814.2279-1.34261.4916v-2.2379c0-.58-.17799-1.15-.50431-1.63-.88996-1.31-1.04818-3.06996-.26699-4.55996.54386-1.03 1.42394-1.75 2.42267-2.1 1.06795-.38 1.97769-1.1 2.58088-2.07.77126-1.23 2.12606-2.05 3.67846-2.05.6032 0 1.1768.13 1.7107.35.712.31 1.513.31 2.2249 0 .5241-.22 1.0977-.35 1.7009-.35 1.5722 0 2.9467.85 3.7081 2.11.5735.95 1.4734 1.64 2.5216 2z" fill="url(#O)"/><path d="m24.9639 5.97604c.9591.33 1.8194 1 2.3633 1.96.8702 1.53.7416 3.35996-.1978 4.70996-.3263.48-.5043 1.05-.5043 1.63v2.215c-.3487-.2429-.8088-.423-1.2439-.5l.1463-2.995c-.0198-1.43-1.1471-2.61-2.571-2.67h-2.6105c-1.78 0-3.3918-1.04996-4.1235-2.68996-.1879-.47-.6428-.78-1.1471-.78h-2.3732c-3.44117 0-6.22971 2.82-6.22971 6.29996l.05711 2.8663c-.4735.0696-.96814.2279-1.34261.4916v-2.2379c0-.58-.17799-1.15-.50431-1.63-.88996-1.31-1.04818-3.06996-.26699-4.55996.54386-1.03 1.42394-1.75 2.42267-2.1 1.06795-.38 1.97769-1.1 2.58088-2.07.77126-1.23 2.12606-2.05 3.67846-2.05.6032 0 1.1768.13 1.7107.35.712.31 1.513.31 2.2249 0 .5241-.22 1.0977-.35 1.7009-.35 1.5722 0 2.9467.85 3.7081 2.11.5735.95 1.4734 1.64 2.5216 2z" fill="url(#P)"/></g><g filter="url(#f)"><path d="m22.872 12.8057c-.3266-.2845-.7065-.586-1.2818-.7671-.5672-.1785-1.2777-.2265-2.2606-.1063-.2834.0347-.4851.2926-.4504.5761.0347.2834.2926.4851.576.4504.8971-.1098 1.4467-.0527 1.8245.0662.3696.1164.6197.3049.9131.5605.2153.1875.5419.165.7295-.0503.1876-.2154.165-.542-.0503-.7295z" fill="#2e201f"/></g><g filter="url(#g)"><path d="m9.55314 12.6024c.16803-.1006.40979-.2292.71506-.3493.6105-.24 1.483-.4485 2.527-.3208.2835.0347.4851.2926.4504.5761-.0346.2834-.2925.4851-.576.4504-.836-.1023-1.5335.0643-2.023.2567-.2447.0962-.4354.1982-.5624.2742-.0634.0379-.11044.0691-.14001.0896-.01477.0102-.02512.0177-.03091.0219l-.00514.0038c-.22534.1738-.549.1328-.72385-.092-.17532-.2254-.13471-.5502.09069-.7256z" fill="#2e201f"/></g><g filter="url(#h)"><path d="m16.3458 7.89111c-.0435-.08333-.0846-.16837-.1233-.25507-.1879-.47-.6427-.78-1.1471-.78h-2.3732c-3.44115 0-6.2297 2.82-6.2297 6.29996v.5131c-.63389-.4824-1.43118-1.5-1.43118-3.1468 0-1.99835 1.45748-3.00845 2.38717-3.65276.26246-.1819.48286-.33465.61653-.47225.05678-.05845.1186-.12401.18583-.19533.65168-.69118 1.81285-1.92269 3.84045-2.46091 1.2985-.3447 2.6195-.3482 3.5111-.26845.471.04213.8027.45066.8027.9235v3.46994z" fill="#2d171f"/><path d="m16.3458 7.89111c-.0435-.08333-.0846-.16837-.1233-.25507-.1879-.47-.6427-.78-1.1471-.78h-2.3732c-3.44115 0-6.2297 2.82-6.2297 6.29996v.5131c-.63389-.4824-1.43118-1.5-1.43118-3.1468 0-1.99835 1.45748-3.00845 2.38717-3.65276.26246-.1819.48286-.33465.61653-.47225.05678-.05845.1186-.12401.18583-.19533.65168-.69118 1.81285-1.92269 3.84045-2.46091 1.2985-.3447 2.6195-.3482 3.5111-.26845.471.04213.8027.45066.8027.9235v3.46994z" fill="url(#Q)"/><path d="m16.3458 7.89111c-.0435-.08333-.0846-.16837-.1233-.25507-.1879-.47-.6427-.78-1.1471-.78h-2.3732c-3.44115 0-6.2297 2.82-6.2297 6.29996v.5131c-.63389-.4824-1.43118-1.5-1.43118-3.1468 0-1.99835 1.45748-3.00845 2.38717-3.65276.26246-.1819.48286-.33465.61653-.47225.05678-.05845.1186-.12401.18583-.19533.65168-.69118 1.81285-1.92269 3.84045-2.46091 1.2985-.3447 2.6195-.3482 3.5111-.26845.471.04213.8027.45066.8027.9235v3.46994z" fill="url(#R)"/></g><g filter="url(#i)"><path d="m25.6309 13.9817-.0544-1.1768c-.0198-1.4234-1.1961-2.598-2.62-2.6577h-2.6106c-1.6572 0-3.1687-.90602-3.9598-2.34851 0 0-.382-.8849-.4662-2.17953-.065-1.00096.8403-1.71838 1.8347-1.5868 2.0662.27339 4.9339.91844 6.9052 2.20422 3.2525 2.12144 2.6831 5.94472.9711 7.74512z" fill="#2d171f"/><path d="m25.6309 13.9817-.0544-1.1768c-.0198-1.4234-1.1961-2.598-2.62-2.6577h-2.6106c-1.6572 0-3.1687-.90602-3.9598-2.34851 0 0-.382-.8849-.4662-2.17953-.065-1.00096.8403-1.71838 1.8347-1.5868 2.0662.27339 4.9339.91844 6.9052 2.20422 3.2525 2.12144 2.6831 5.94472.9711 7.74512z" fill="url(#S)"/><path d="m25.6309 13.9817-.0544-1.1768c-.0198-1.4234-1.1961-2.598-2.62-2.6577h-2.6106c-1.6572 0-3.1687-.90602-3.9598-2.34851 0 0-.382-.8849-.4662-2.17953-.065-1.00096.8403-1.71838 1.8347-1.5868 2.0662.27339 4.9339.91844 6.9052 2.20422 3.2525 2.12144 2.6831 5.94472.9711 7.74512z" fill="url(#T)"/><path d="m25.6309 13.9817-.0544-1.1768c-.0198-1.4234-1.1961-2.598-2.62-2.6577h-2.6106c-1.6572 0-3.1687-.90602-3.9598-2.34851 0 0-.382-.8849-.4662-2.17953-.065-1.00096.8403-1.71838 1.8347-1.5868 2.0662.27339 4.9339.91844 6.9052 2.20422 3.2525 2.12144 2.6831 5.94472.9711 7.74512z" fill="url(#U)"/></g><path d="m20.3702 15.2567c1.2177 0 2.2462.8396 2.5261 1.974.0832.3252-.1664.6353-.4992.6353h-4.1597c-.2647 0-.4765-.242-.4236-.5067.2345-1.195 1.2858-2.1026 2.5564-2.1026z" fill="#fff"/><path d="m19.9845 15.7635c.9227 0 1.6638.7487 1.6638 1.6639 0 .1512-.0226.3025-.0605.4386h-3.2143c-.0378-.1437-.0605-.2874-.0605-.4386 0-.9152.7487-1.6639 1.6715-1.6639z" fill="url(#W)"/><path d="m19.0315 17.4274c0-.5295.4235-.953.953-.953.5294 0 .9529.4235.9529.953 0 .1588-.0378.3101-.1059.4386h-1.6866c-.0756-.1285-.1134-.2798-.1134-.4386z" fill="#000"/><g filter="url(#j)"><path d="m19.8621 16.1152c.1185.1586-.1293.3519-.411.5625-.2818.2107-.4908.3589-.6093.2003-.1186-.1585.0137-.4578.2955-.6685.2817-.2106.6062-.2528.7248-.0943z" fill="#c7a7a3"/><path d="m19.8621 16.1152c.1185.1586-.1293.3519-.411.5625-.2818.2107-.4908.3589-.6093.2003-.1186-.1585.0137-.4578.2955-.6685.2817-.2106.6062-.2528.7248-.0943z" fill="url(#Y)"/></g><g filter="url(#k)"><path d="m21.4665 17.2083c-.0614-.4302-.3131-.7544-.4313-.8627l-.4845.5318.2186.4254z" fill="url(#aa)"/></g><path d="m11.4548 15.2566c-1.2178 0-2.24641.8396-2.52626 1.9741-.0832.3252.1664.6353.49919.6353h4.15997c.2647 0 .4765-.242.4236-.5067-.2345-1.1951-1.2934-2.1027-2.5565-2.1027z" fill="#fff"/><path d="m11.8405 15.7634c-.9228 0-1.664.7488-1.664 1.6639 0 .1513.0227.3026.0605.4387h3.2145c.0379-.1437.0605-.2874.0605-.4387-.0075-.9151-.7487-1.6639-1.6715-1.6639z" fill="url(#ab)"/><path d="m12.7935 17.4274c0-.5295-.4235-.9531-.953-.9531-.5294 0-.953.4236-.953.9531 0 .1588.0378.3101.1059.4386h1.6867c.068-.1285.1134-.2798.1134-.4386z" fill="#000"/><g filter="url(#l)"><path d="m13.3607 17.2319c0-.5377-.4373-.8962-.5554-1.0046l-.5378.52.331.6737z" fill="url(#ac)"/></g><g filter="url(#m)"><ellipse cx="11.3385" cy="16.4744" fill="#c7a7a3" fill-opacity=".9" rx=".726417" ry=".367634" transform="matrix(.88365127 -.46814574 .46814574 .88365127 -6.3932 7.224846)"/><ellipse cx="11.3385" cy="16.4744" fill="url(#ad)" rx=".726417" ry=".367634" transform="matrix(.88365127 -.46814574 .46814574 .88365127 -6.3932 7.224846)"/></g><path d="m25.0889 20.8609c.1227-1.9841.241-3.9658.3441-5.9498 1.4087.2464 2.4794 1.4757 2.4794 2.9549 0 1.5977-1.2488 2.9036-2.8235 2.9949z" fill="url(#ae)"/><path d="m25.0889 20.8609c.1227-1.9841.241-3.9658.3441-5.9498 1.4087.2464 2.4794 1.4757 2.4794 2.9549 0 1.5977-1.2488 2.9036-2.8235 2.9949z" fill="url(#af)"/><path d="m25.0889 20.8609c.1227-1.9841.241-3.9658.3441-5.9498 1.4087.2464 2.4794 1.4757 2.4794 2.9549 0 1.5977-1.2488 2.9036-2.8235 2.9949z" fill="url(#ag)"/><path d="m25.0889 20.8609c.1227-1.9841.241-3.9658.3441-5.9498 1.4087.2464 2.4794 1.4757 2.4794 2.9549 0 1.5977-1.2488 2.9036-2.8235 2.9949z" fill="url(#ah)"/><path d="m6.50781 14.8867c-1.45672.2054-2.5954 1.4659-2.5954 2.9793 0 1.6017 1.25515 2.9102 2.8355 2.9956-.12035-1.9922-.20153-3.982-.2401-5.9749z" fill="url(#ai)"/><path d="m6.50781 14.8867c-1.45672.2054-2.5954 1.4659-2.5954 2.9793 0 1.6017 1.25515 2.9102 2.8355 2.9956-.12035-1.9922-.20153-3.982-.2401-5.9749z" fill="url(#aj)"/><g filter="url(#n)"><path d="m6.43119 16.1266c-.79548.1784-1.38987.8889-1.38987 1.7382 0 .9038.67313 1.6504 1.54541 1.7657-.06462-1.1686-.11915-2.335-.15554-3.5039z" fill="url(#ak)"/></g><g filter="url(#o)"><path d="m25.1282 19.6404c.0719-1.1831.1414-2.3656.2063-3.5487.8786.1096 1.5585.8592 1.5585 1.7675 0 .9782-.7886 1.7723-1.7648 1.7812z" fill="url(#al)"/></g><g filter="url(#p)"><path d="m9.62335 13.1239c.47915-.3438 1.67345-.9485 3.08595-.711" stroke="#433739" stroke-linecap="round" stroke-width=".25"/></g><g filter="url(#q)"><path d="m22.5516 13.0379c-.4792-.3437-1.6735-.9484-3.086-.7109" stroke="#433739" stroke-linecap="round" stroke-width=".25"/></g></svg>