<svg fill="none" height="32" viewBox="0 0 32 32" width="32" xmlns="http://www.w3.org/2000/svg"><path d="m24.0874 6.23099c-.3894-.66544-.9884-1.13224-1.6772-1.3706-.7388-.2483-1.3778-.72503-1.7871-1.39047-.5391-.88394-1.5175-1.46992-2.6257-1.46992-.4293 0-.8386.08939-1.208.2483-.4992.2185-1.0683.2185-1.5774 0-.3694-.15891-.7788-.2483-1.2081-.2483-1.0982 0-2.0566.56612-2.6057 1.43019-.4293.67537-1.0682 1.1819-1.82698 1.44013-.70884.23836-1.32782.74489-1.71719 1.45999-.5491 1.03291-.43928 2.26447.18969 3.1782.22963.33769.35941.73499.35941 1.13219v5.3633c0 1.1918.75876 2.2545 1.89687 2.6518l2.446.8442h6.4894l2.4459-.8442c1.1382-.3874 1.8969-1.4501 1.8969-2.6518v-5.3633c0-.4072.1198-.80443.3594-1.13219.669-.9336.7688-2.21481.1498-3.27752z" fill="#212121"/><path d="m26 30v-.3839c0-5.3051-4.4745-9.6161-10-9.6161-5.5255.0098-10 4.311-10 9.6161v.3839z" fill="#ff6723"/><g fill="#f4c6ad"><path d="m16 24.5c-1.3826 0-2.5-1.194-2.5-2.6714v-3.1572c0-1.4774 1.1174-2.6714 2.5-2.6714s2.5 1.194 2.5 2.6714v3.1572c0 1.4774-1.1174 2.6714-2.5 2.6714z"/><path d="m12 13.25c0 1.2426-1.0074 2.25-2.25 2.25-1.24264 0-2.25-1.0074-2.25-2.25s1.00736-2.25 2.25-2.25c1.2426 0 2.25 1.0074 2.25 2.25z"/><path d="m24.5 13.25c0 1.2426-1.0074 2.25-2.25 2.25s-2.25-1.0074-2.25-2.25 1.0074-2.25 2.25-2.25 2.25 1.0074 2.25 2.25z"/></g><path d="m9.13278 11-.01534-.6353c-.06441-2.6675 2.08036-4.8647 4.74866-4.8647h1.6261c.3067 0 .5825.18671.6964.47146l.057.14271c.4556 1.13898 1.5588 1.88583 2.7855 1.88583h2.278c.8097 0 1.4732.64259 1.4992 1.45186l.0497 1.54814h.0044l-.3896 6.0648c-.3474 2.5415-2.5746 4.4352-5.2003 4.4352h-2.5338c-2.6257 0-4.85294-1.8937-5.20031-4.4352z" fill="#ffd7c2"/><path d="m17.3882 18.2236c-.9296-.4648-1.8468-.4648-2.7764 0-.1235.0618-.2737.0117-.3354-.1118-.0618-.1235-.0117-.2737.1118-.3354 1.0704-.5352 2.1532-.5352 3.2236 0 .1235.0617.1735.2119.1118.3354s-.2119.1736-.3354.1118z" fill="#990838"/><path d="m15.49 12.8675-.69 2.22c-.14.45.2.91.67.91h1.01c.48 0 .81-.46.67-.91l-.69-2.22c-.13-.49-.82-.49-.97 0z" fill="#e5af93"/><path d="m14.9383 12.5051c.0681.2676-.1622.4949-.4383.4949h-3c-.2762 0-.5064-.2273-.4383-.4949.2202-.8652 1.0045-1.5051 1.9383-1.5051.9337 0 1.718.6399 1.9383 1.5051z" fill="#fff"/><path d="m20.9383 12.5051c.0681.2676-.1622.4949-.4383.4949h-3c-.2762 0-.5064-.2273-.4383-.4949.2202-.8652 1.0045-1.5051 1.9383-1.5051.9337 0 1.718.6399 1.9383 1.5051z" fill="#fff"/><path d="m14.5 12.75c0 .0856-.0086.1692-.025.25h-2.45c-.0164-.0808-.025-.1644-.025-.25 0-.6904.5596-1.25 1.25-1.25s1.25.5596 1.25 1.25z" fill="#7d4533"/><path d="m20 12.75c0 .0856-.0086.1692-.025.25h-2.45c-.0164-.0808-.025-.1644-.025-.25 0-.6904.5596-1.25 1.25-1.25s1.25.5596 1.25 1.25z" fill="#7d4533"/><path d="m14 12.75c0 .0877-.015.1718-.0427.25h-1.4146c-.0277-.0782-.0427-.1623-.0427-.25 0-.4142.3358-.75.75-.75s.75.3358.75.75z" fill="#000"/><path d="m19.5 12.75c0 .0877-.015.1718-.0427.25h-1.4146c-.0277-.0782-.0427-.1623-.0427-.25 0-.4142.3358-.75.75-.75s.75.3358.75.75z" fill="#000"/><path d="m12.75 12.5c.1381 0 .25-.1119.25-.25s-.1119-.25-.25-.25-.25.1119-.25.25.1119.25.25.25z" fill="#fff"/><path d="m18.25 12.5c.1381 0 .25-.1119.25-.25s-.1119-.25-.25-.25-.25.1119-.25.25.1119.25.25.25z" fill="#fff"/><path d="m13.9736 9.3618c.0617-.1235.0117-.27367-.1118-.33541-.1235-.06175-.2737-.01169-.3354.1118-.1757.35135-.4461.61994-.807.77612-.3626.15699-.8341.20779-1.4204.09049-.1354-.02703-.2671.0608-.2942.1962-.027.1354.0608.2671.1962.2941.6637.1328 1.2421.0836 1.717-.1219.4767-.2063.8313-.56275 1.0556-1.0114z" fill="#212121"/><path d="m18.0264 9.3618c-.0618-.1235-.0117-.27367.1118-.33541.1235-.06175.2736-.01169.3354.1118.1757.35135.4461.61994.8069.77612.3626.15699.8342.20779 1.4205.09049.1353-.02703.2671.0608.2941.1962.0271.1354-.0607.2671-.1961.2941-.6637.1328-1.2422.0836-1.7171-.1219-.4766-.2063-.8312-.56275-1.0555-1.0114z" fill="#212121"/></svg>