<svg enable-background="new 0 0 128 128" viewBox="0 0 32 32" xmlns="http://www.w3.org/2000/svg"><path d="m21.1656 26.5709v-.5787h-2.7365c-1.8931 0-3.4291 1.536-3.4291 3.4291v.1939c0 .2124.1724.3848.3848.3848h2.3517c1.8931 0 3.4291-1.536 3.4291-3.4291z" fill="#00d26a"/><path d="m2 19.0898 28-11.19527v4.99997l-15.4948 6.0782h15.4948v5.1171h-7.4293c-.1535 0-.2079.2032-.075.2799l1.727.9971c1.3097.7562.7732 2.7582-.739 2.7582-.2595 0-.5144-.0683-.7391-.198l-5.4858-3.1673c-.7601-.4388-1.6223-.6699-2.5-.6699h-12.7588z" fill="#7d4533"/><rect fill="#b97028" height="9.70895" rx="4.85447" width="15.7142" x="8.14288" y="5.81055"/><path d="m12.8572 15.5195h6.2857c2.2412 0 4.1172-1.6106 4.596-3.7691-.4016-1.5565-1.7795-2.70352-3.4175-2.70352l-3.7902 2.32802-4.8526-2.32802c-1.638 0-3.01585 1.14702-3.41743 2.70352.47875 2.1585 2.35473 3.7691 4.59603 3.7691z" fill="#7d4533"/><path d="m15.9342 7.00977c-.8545 0-1.6557.42557-2.1345 1.13042l-.0432.06317c-.9542 1.40637-1.3864 3.10204-1.2235 4.79094l.0266.266c.1662 1.7322 1.6224 3.0521 3.3613 3.0521 1.7455 0 3.2017-1.3265 3.3613-3.0654l.03-.3092c.1595-1.7023-.286-3.40786-1.2568-4.81424-.4821-.69487-1.2734-1.11379-2.1212-1.11379z" fill="#00a6ed"/><path d="m9.12611 10.0699c.25473-.73207.85857-1.29465 1.60939-1.49582.7449-.1996 1.5388-.01781 2.126.47924 1.1841 1.00718 1.9772 2.40088 2.2377 3.93418l.0465.2787c.2692 1.5655-.698 3.0739-2.2317 3.4849-1.5279.4094-3.11819-.4075-3.67208-1.8904l-.08599-.2275c-.54079-1.4456-.56023-3.0373-.05292-4.4976z" fill="#26c9fc"/><path d="m19.1899 9.07061c.5866-.50661 1.3909-.69189 2.1416-.49072.745.19961 1.3416.75399 1.6016 1.47801.5219 1.4643.5118 3.0679-.0292 4.526l-.0991.2647c-.5496 1.4902-2.1414 2.313-3.6751 1.902-1.5279-.4094-2.4967-1.912-2.2349-3.4731l.0392-.24c.2545-1.5224 1.0335-2.9105 2.2031-3.92156z" fill="#26c9fc"/><path clip-rule="evenodd" d="m21.7532 2.84086c-.16.22504-.1073.53721.1177.69725.8663.61611 1.8506 1.88761 2.6453 3.55439-1.725-1.94142-4.9211-4.10031-10.1725-4.10031-.2761 0-.5.22386-.5.5s.2239.5.5.5c2.4225 0 4.3631.48524 5.8951 1.1864-.5599-.11611-1.1399-.17713-1.7341-.17713h-5.0093c-2.1105 0-4.04132.76963-5.527 2.04355.66518-.90342 1.41885-1.60726 2.13-2.11447.2248-.16034.2771-.47258.1167-.6974-.1603-.22482-.47258-.27708-.6974-.11673-2.11412 1.50788-4.53107 4.55551-4.53107 9.16979 0 .0405.00483.0799.01393.1177-.00033.0309-.0005.0619-.0005.0929 0 4.6918 3.8035 8.4953 8.49534 8.4953h5.0093c4.6918 0 8.4953-3.8035 8.4953-8.4953 0-.1214-.0025-.2422-.0076-.3624-.038-2.2169-.6268-4.3995-1.4544-6.21658-.8505-1.86732-1.9804-3.40721-3.0875-4.19462-.2251-.16005-.5372-.10737-.6973.11766zm-8.7558 2.96969c-2.6811 0-4.85452 2.17343-4.85452 4.85445 0 2.6811 2.17342 4.8545 4.85452 4.8545h1.5861c2.1009-.1914 4.3772-.8357 6.2115-2.8469.1861-.204.5023-.2186.7064-.0325.204.1861.2185.5023.0324.7064-.9095.9972-1.9139 1.6911-2.9448 2.173h.4137c2.681 0 4.8544-2.1734 4.8544-4.8545 0-2.68102-2.1734-4.85445-4.8545-4.85445z" fill="#f3ad61" fill-rule="evenodd"/></svg>