<svg enable-background="new 0 0 128 128" viewBox="0 0 128 128" xmlns="http://www.w3.org/2000/svg"><g transform="scale(4)"><path d="m2 6c0-2.20914 1.79086-4 4-4h20c2.2091 0 4 1.79086 4 4v20c0 2.2091-1.7909 4-4 4h-20c-2.20914 0-4-1.7909-4-4z" fill="#8d65c5"/><path d="m25 7.00003c0-.03 0-.06 0-.1 0-.02 0-.03-.01-.05 0-.02 0-.03-.01-.05 0-.02-.01-.03-.01-.05 0-.01-.01-.03-.01-.04 0-.02-.01-.03-.02-.05-.01-.01-.01-.03-.02-.04-.01-.02-.01-.03-.02-.04s-.01-.03-.02-.04-.02-.03-.02-.04c-.01-.01-.02-.03-.03-.04-.01-.02-.02-.03-.03-.04s-.02-.02-.03-.03c-.04-.05-.09-.1-.14-.14-.01-.01-.02-.02-.03-.02-.02-.01-.03-.02-.05-.03-.01-.01-.03-.02-.04-.03s-.03-.02-.04-.02c-.01-.01-.03-.01-.04-.02-.02-.01-.03-.01-.05-.02-.01-.01-.03-.01-.04-.02-.02-.01-.03-.01-.05-.02-.01 0-.03-.01-.04-.01-.02 0-.03-.01-.05-.01s-.03-.01-.05-.01-.03-.01-.05-.01c-.03 0-.06 0-.09 0h-.01-9c-.55 0-1 .45-1 1s.45 1 1 1h6.59l-8.59 8.55997-2.29-2.29c-.39-.39-1.01999-.39-1.40999 0s-.39 1.02 0 1.41l2.28999 2.29-5.28999 5.29c-.39.39-.39 1.02 0 1.41.19.2.44.3.7.3s.51-.1.71-.29l5.28999-5.3 2.29 2.29c.2.2.45.3.71.3s.51-.1.71-.29c.39-.39.39-1.02 0-1.41l-2.3-2.3 8.59-8.58997v6.58997c0 .55.45 1 1 1s1-.45 1-1z" fill="#fff"/></g></svg>