<svg fill="none" height="32" viewBox="0 0 32 32" width="32" xmlns="http://www.w3.org/2000/svg" xmlns:xlink="http://www.w3.org/1999/xlink"><filter id="a" color-interpolation-filters="sRGB" filterUnits="userSpaceOnUse" height="20.4628" width="14.4372" x="7.3967" y="9.4708"><feFlood flood-opacity="0" result="BackgroundImageFix"/><feBlend in="SourceGraphic" in2="BackgroundImageFix" mode="normal" result="shape"/><feColorMatrix in="SourceAlpha" result="hardAlpha" type="matrix" values="0 0 0 0 0 0 0 0 0 0 0 0 0 0 0 0 0 0 127 0"/><feOffset dx="-.1" dy="-.1"/><feGaussianBlur stdDeviation=".5"/><feComposite in2="hardAlpha" k2="-1" k3="1" operator="arithmetic"/><feColorMatrix type="matrix" values="0 0 0 0 0.580392 0 0 0 0 0.462745 0 0 0 0 0.658824 0 0 0 1 0"/><feBlend in2="shape" mode="normal" result="effect1_innerShadow_28327_7824"/></filter><filter id="b" color-interpolation-filters="sRGB" filterUnits="userSpaceOnUse" height="19.9404" width="13.4749" x="8.38894" y="9.64687"><feFlood flood-opacity="0" result="BackgroundImageFix"/><feBlend in="SourceGraphic" in2="BackgroundImageFix" mode="normal" result="shape"/><feGaussianBlur result="effect1_foregroundBlur_28327_7824" stdDeviation=".2"/></filter><filter id="c" color-interpolation-filters="sRGB" filterUnits="userSpaceOnUse" height="4.32734" width="2.62043" x="7.90853" y="21.6293"><feFlood flood-opacity="0" result="BackgroundImageFix"/><feBlend in="SourceGraphic" in2="BackgroundImageFix" mode="normal" result="shape"/><feGaussianBlur result="effect1_foregroundBlur_28327_7824" stdDeviation=".2"/></filter><filter id="d" color-interpolation-filters="sRGB" filterUnits="userSpaceOnUse" height="1.46699" width="4.63496" x="9.73184" y="24.8737"><feFlood flood-opacity="0" result="BackgroundImageFix"/><feBlend in="SourceGraphic" in2="BackgroundImageFix" mode="normal" result="shape"/><feGaussianBlur result="effect1_foregroundBlur_28327_7824" stdDeviation=".2"/></filter><filter id="e" color-interpolation-filters="sRGB" filterUnits="userSpaceOnUse" height="1.46699" width="4.63496" x="15.755" y="17.3424"><feFlood flood-opacity="0" result="BackgroundImageFix"/><feBlend in="SourceGraphic" in2="BackgroundImageFix" mode="normal" result="shape"/><feGaussianBlur result="effect1_foregroundBlur_28327_7824" stdDeviation=".2"/></filter><filter id="f" color-interpolation-filters="sRGB" filterUnits="userSpaceOnUse" height="4.51387" width="2.82502" x="13.7649" y="13.7116"><feFlood flood-opacity="0" result="BackgroundImageFix"/><feBlend in="SourceGraphic" in2="BackgroundImageFix" mode="normal" result="shape"/><feGaussianBlur result="effect1_foregroundBlur_28327_7824" stdDeviation=".2"/></filter><filter id="g" color-interpolation-filters="sRGB" filterUnits="userSpaceOnUse" height="12.0076" width="6.10173" x="5" y="10.8325"><feFlood flood-opacity="0" result="BackgroundImageFix"/><feBlend in="SourceGraphic" in2="BackgroundImageFix" mode="normal" result="shape"/><feColorMatrix in="SourceAlpha" result="hardAlpha" type="matrix" values="0 0 0 0 0 0 0 0 0 0 0 0 0 0 0 0 0 0 127 0"/><feOffset dx=".2" dy=".2"/><feGaussianBlur stdDeviation=".375"/><feComposite in2="hardAlpha" k2="-1" k3="1" operator="arithmetic"/><feColorMatrix type="matrix" values="0 0 0 0 0.564706 0 0 0 0 0.760784 0 0 0 0 0.329412 0 0 0 1 0"/><feBlend in2="shape" mode="normal" result="effect1_innerShadow_28327_7824"/></filter><filter id="h" color-interpolation-filters="sRGB" filterUnits="userSpaceOnUse" height="9.66602" width="5.29309" x="6.36621" y="10.6035"><feFlood flood-opacity="0" result="BackgroundImageFix"/><feBlend in="SourceGraphic" in2="BackgroundImageFix" mode="normal" result="shape"/><feGaussianBlur result="effect1_foregroundBlur_28327_7824" stdDeviation=".5"/></filter><filter id="i" color-interpolation-filters="sRGB" filterUnits="userSpaceOnUse" height="9.39727" width="4.81365" x="11.6012" y="5.48242"><feFlood flood-opacity="0" result="BackgroundImageFix"/><feBlend in="SourceGraphic" in2="BackgroundImageFix" mode="normal" result="shape"/><feColorMatrix in="SourceAlpha" result="hardAlpha" type="matrix" values="0 0 0 0 0 0 0 0 0 0 0 0 0 0 0 0 0 0 127 0"/><feOffset dx=".2" dy=".2"/><feGaussianBlur stdDeviation=".375"/><feComposite in2="hardAlpha" k2="-1" k3="1" operator="arithmetic"/><feColorMatrix type="matrix" values="0 0 0 0 0.592157 0 0 0 0 0.784314 0 0 0 0 0.368627 0 0 0 1 0"/><feBlend in2="shape" mode="normal" result="effect1_innerShadow_28327_7824"/></filter><filter id="j" color-interpolation-filters="sRGB" filterUnits="userSpaceOnUse" height="7.66357" width="4.4422" x="12.386" y="5.27466"><feFlood flood-opacity="0" result="BackgroundImageFix"/><feBlend in="SourceGraphic" in2="BackgroundImageFix" mode="normal" result="shape"/><feGaussianBlur result="effect1_foregroundBlur_28327_7824" stdDeviation=".5"/></filter><filter id="k" color-interpolation-filters="sRGB" filterUnits="userSpaceOnUse" height="4.4373" width="8.89922" x="19.1968" y="15.1133"><feFlood flood-opacity="0" result="BackgroundImageFix"/><feBlend in="SourceGraphic" in2="BackgroundImageFix" mode="normal" result="shape"/><feColorMatrix in="SourceAlpha" result="hardAlpha" type="matrix" values="0 0 0 0 0 0 0 0 0 0 0 0 0 0 0 0 0 0 127 0"/><feOffset dx=".2" dy=".2"/><feGaussianBlur stdDeviation=".375"/><feComposite in2="hardAlpha" k2="-1" k3="1" operator="arithmetic"/><feColorMatrix type="matrix" values="0 0 0 0 0.564706 0 0 0 0 0.760784 0 0 0 0 0.329412 0 0 0 1 0"/><feBlend in2="shape" mode="normal" result="effect1_innerShadow_28327_7824"/></filter><filter id="l" color-interpolation-filters="sRGB" filterUnits="userSpaceOnUse" height="3.24756" width="7.90631" x="20.5695" y="14.5427"><feFlood flood-opacity="0" result="BackgroundImageFix"/><feBlend in="SourceGraphic" in2="BackgroundImageFix" mode="normal" result="shape"/><feGaussianBlur result="effect1_foregroundBlur_28327_7824" stdDeviation=".5"/></filter><filter id="m" color-interpolation-filters="sRGB" filterUnits="userSpaceOnUse" height="5.61943" width="11.3521" x="13.437" y="21.6523"><feFlood flood-opacity="0" result="BackgroundImageFix"/><feBlend in="SourceGraphic" in2="BackgroundImageFix" mode="normal" result="shape"/><feColorMatrix in="SourceAlpha" result="hardAlpha" type="matrix" values="0 0 0 0 0 0 0 0 0 0 0 0 0 0 0 0 0 0 127 0"/><feOffset dx=".2" dy=".2"/><feGaussianBlur stdDeviation=".375"/><feComposite in2="hardAlpha" k2="-1" k3="1" operator="arithmetic"/><feColorMatrix type="matrix" values="0 0 0 0 0.564706 0 0 0 0 0.760784 0 0 0 0 0.329412 0 0 0 1 0"/><feBlend in2="shape" mode="normal" result="effect1_innerShadow_28327_7824"/></filter><filter id="n" color-interpolation-filters="sRGB" filterUnits="userSpaceOnUse" height="3.66333" width="9.87335" x="14.9948" y="21.4124"><feFlood flood-opacity="0" result="BackgroundImageFix"/><feBlend in="SourceGraphic" in2="BackgroundImageFix" mode="normal" result="shape"/><feGaussianBlur result="effect1_foregroundBlur_28327_7824" stdDeviation=".5"/></filter><linearGradient id="o"><stop offset="0" stop-color="#b5e64b"/><stop offset="1" stop-color="#8ec347"/></linearGradient><radialGradient id="p" cx="0" cy="0" gradientTransform="matrix(.22601342 14.46443433 -6.81339829 .10646248 8.67906 15.3131)" gradientUnits="userSpaceOnUse" r="1" xlink:href="#o"/><linearGradient id="q"><stop offset="0" stop-color="#b2c770"/><stop offset="1" stop-color="#b2c770" stop-opacity="0"/></linearGradient><radialGradient id="r" cx="0" cy="0" gradientTransform="matrix(.33037309 -5.81249863 3.38423784 .19235465 7.95088 23.0977)" gradientUnits="userSpaceOnUse" r="1" xlink:href="#q"/><linearGradient id="s"><stop offset="0" stop-color="#b1eb4b"/><stop offset="1" stop-color="#b1eb4b" stop-opacity="0"/></linearGradient><radialGradient id="t" cx="0" cy="0" gradientTransform="matrix(-.78123693 3.62500187 -.73570461 -.15855429 8.40625 10.0352)" gradientUnits="userSpaceOnUse" r="1" xlink:href="#s"/><linearGradient id="u"><stop offset="0" stop-color="#cfff73"/><stop offset="1" stop-color="#cfff73" stop-opacity="0"/></linearGradient><linearGradient id="v" gradientUnits="userSpaceOnUse" x1="9.90551" x2="8.62016" xlink:href="#u" y1="15.0386" y2="15.7433"/><radialGradient id="w" cx="0" cy="0" gradientTransform="matrix(.17667395 11.31312055 -5.32634054 .08318002 14.4773 8.96827)" gradientUnits="userSpaceOnUse" r="1" xlink:href="#o"/><radialGradient id="x" cx="0" cy="0" gradientTransform="matrix(.25826112 -4.54616018 2.64561445 .15029373 13.908 15.0569)" gradientUnits="userSpaceOnUse" r="1" xlink:href="#q"/><radialGradient id="y" cx="0" cy="0" gradientTransform="matrix(-.61072395 2.83524961 -.57515893 -.1238915 14.264 4.84024)" gradientUnits="userSpaceOnUse" r="1" xlink:href="#s"/><linearGradient id="z" gradientUnits="userSpaceOnUse" x1="15.2666" x2="14.3175" xlink:href="#u" y1="8.81104" y2="9.33399"/><radialGradient id="A" cx="0" cy="0" gradientTransform="matrix(-5.06630143 -1.58205218 2.13723116 -6.84418467 25.6295 7.62884)" gradientUnits="userSpaceOnUse" r="1"><stop offset=".808068" stop-color="#96c860" stop-opacity="0"/><stop offset="1" stop-color="#96c860"/></radialGradient><radialGradient id="B" cx="0" cy="0" gradientTransform="matrix(5.53715269 2.59907336 -3.51114552 7.48026166 18.8117 5.12394)" gradientUnits="userSpaceOnUse" r="1"><stop offset=".909987" stop-color="#96c860" stop-opacity="0"/><stop offset="1" stop-color="#96c860"/></radialGradient><radialGradient id="C" cx="0" cy="0" gradientTransform="matrix(-1.29348998 4.66987068 -.57809755 -.16012507 24.3826 2.18837)" gradientUnits="userSpaceOnUse" r="1"><stop offset="0" stop-color="#c8ff74"/><stop offset="1" stop-color="#c8ff74" stop-opacity="0"/></radialGradient><radialGradient id="D" cx="0" cy="0" gradientTransform="matrix(-2.85018952 6.0195584 -2.99163529 -1.41650383 25.8296 2.06641)" gradientUnits="userSpaceOnUse" r="1"><stop offset="0" stop-color="#c7fd61"/><stop offset="1" stop-color="#c7fd61" stop-opacity="0"/></radialGradient><radialGradient id="E" cx="0" cy="0" gradientTransform="matrix(-.39205624 -.1650791 .91851692 -2.18144087 20.8773 10.8149)" gradientUnits="userSpaceOnUse" r="1"><stop offset="0" stop-color="#afce6d"/><stop offset="1" stop-color="#afce6d" stop-opacity="0"/></radialGradient><radialGradient id="F" cx="0" cy="0" gradientTransform="matrix(.33546036 5.11608377 -10.0722709 .66043634 24.6267 16.7285)" gradientUnits="userSpaceOnUse" r="1" xlink:href="#o"/><radialGradient id="G" cx="0" cy="0" gradientTransform="matrix(.4903657 -2.05588846 4.76818348 1.13729595 23.5459 19.482)" gradientUnits="userSpaceOnUse" r="1" xlink:href="#q"/><radialGradient id="H" cx="0" cy="0" gradientTransform="matrix(-2.27890328 1.45020043 -.42351683 -.66553138 28.3494 15.3066)" gradientUnits="userSpaceOnUse" r="1" xlink:href="#s"/><linearGradient id="I" gradientUnits="userSpaceOnUse" x1="24.5807" x2="24.4536" xlink:href="#u" y1="15.4973" y2="16.5735"/><radialGradient id="J" cx="0" cy="0" gradientTransform="matrix(.42928365 6.54330321 -12.8892906 .84562208 20.3962 23.7182)" gradientUnits="userSpaceOnUse" r="1" xlink:href="#o"/><radialGradient id="K" cx="0" cy="0" gradientTransform="matrix(.62751205 -2.62941881 6.10138656 1.4560988 19.0131 27.2397)" gradientUnits="userSpaceOnUse" r="1" xlink:href="#q"/><radialGradient id="L" cx="0" cy="0" gradientTransform="matrix(-2.49164965 1.58204209 -.52794967 -.83149849 24.6181 22.1089)" gradientUnits="userSpaceOnUse" r="1" xlink:href="#s"/><radialGradient id="M" cx="0" cy="0" gradientTransform="matrix(.50000347 -2.75000448 9.20699402 1.6740078 18.1875 28)" gradientUnits="userSpaceOnUse" r="1"><stop offset="0" stop-color="#c0ba90"/><stop offset="1" stop-color="#c0ba90" stop-opacity="0"/></radialGradient><linearGradient id="N" gradientUnits="userSpaceOnUse" x1="20.0089" x2="19.8393" xlink:href="#u" y1="22.3519" y2="23.7865"/><g filter="url(#a)"><path d="m9.3858 29.5281c-.10864.3137-.45044.4804-.76453.373-.31561-.108-.48346-.4518-.37451-.767l1.12204-3.2466c.01299-.0376.01052-.0788-.00687-.1145l-1.80267-3.7075c-.14996-.3-.02002-.6601.28003-.8101.29999-.15.65997-.02.81.28l1.15873 2.3832c.05708.1174.22728.1111.27788-.0092 1.0575-2.5171 2.6864-4.5449 4.9588-6.0837 0 0 .051-.0492.1008-.0975l.0074-.0073c.0533-.0518.0689-.1393.0364-.2061l-1.75-3.5993c-.15-.3-.0201-.66.28-.81.3-.15.66-.02.81.28l1.6202 3.3323c.0425.0874.1557.1119.2297.0489 1.7735-1.513 3.1365-3.4935 3.9001-5.7013l.38-1.09c.11-.32.45-.47999.77-.36999s.48.44999.37.76999l-.38 1.09c-.7596 2.2105-2.0732 4.2133-3.7741 5.8023-.0951.0888-.0429.2503.0866.2641l2.5675.2737c.33.03.57.33.54.66s-.33.5699-.66.5399l-4.0871-.4345c-.0357-.0039-.0715.0054-.1007.0264-.0234.0168-.0526.0379-.0828.0597-.0708.0512-.1474.1065-.1691.1212-2.2213 1.5063-3.7885 3.5736-4.727 6.068-.0344.0912.0273.1898.1243.1999l3.5424.3695c.33.03.57.33.54.66s-.33.57-.66.54l-3.9016-.4061c-.0693-.0072-.1345.0343-.1573.1001z" fill="#4e7c2f"/></g><g filter="url(#b)"><path d="m8.90625 29.144 1.84375-5c.5312-1.4062 1.4358-2.9129 2.7344-4.1718 2.0468-1.9844 4.0312-2.8594 5.375-4.7969 1.3437-1.9375 1.9531-3.25 2.4844-5.0938" stroke="#77975c" stroke-width=".25"/></g><g filter="url(#c)"><path d="m8.42188 22.082 1.59372 3.4219" stroke="#83a763" stroke-width=".25"/></g><g filter="url(#d)"><path d="m13.9531 25.8164-3.8076-.4185" stroke="#77975c" stroke-width=".25"/></g><g filter="url(#e)"><path d="m19.9763 18.2852-3.8076-.4186" stroke="#77975c" stroke-width=".25"/></g><g filter="url(#f)"><path d="m16.0781 17.7695-1.8014-3.6019" stroke="#83a763" stroke-width=".25"/></g><g filter="url(#g)"><path d="m10.3581 15.5063-2.21039-4.535c-.06054-.1242-.21083-.1762-.33209-.1099-2.51865 1.3762-3.5407 4.5003-2.26755 7.1049l2.21033 4.5351c.06055.1242.21084.1762.33209.1099 2.51811-1.3762 3.53101-4.5003 2.26761-7.105z" fill="url(#p)"/><path d="m10.3581 15.5063-2.21039-4.535c-.06054-.1242-.21083-.1762-.33209-.1099-2.51865 1.3762-3.5407 4.5003-2.26755 7.1049l2.21033 4.5351c.06055.1242.21084.1762.33209.1099 2.51811-1.3762 3.53101-4.5003 2.26761-7.105z" fill="url(#r)"/><path d="m10.3581 15.5063-2.21039-4.535c-.06054-.1242-.21083-.1762-.33209-.1099-2.51865 1.3762-3.5407 4.5003-2.26755 7.1049l2.21033 4.5351c.06055.1242.21084.1762.33209.1099 2.51811-1.3762 3.53101-4.5003 2.26761-7.105z" fill="url(#t)"/></g><g filter="url(#h)"><path d="m10.338 16.2797-2.38448-4.6763c-1.03269.6703-.45892 2.3153-.11747 2.9059l2.47065 4.7602c.6232-1.0832.2805-2.4445.0313-2.9898z" fill="url(#v)"/></g><g filter="url(#i)"><path d="m15.788 9.11649-1.7007-3.49536c-.0603-.12409-.2104-.17637-.3308-.10894-1.9385 1.08555-2.7118 3.50974-1.7285 5.53431l1.7003 3.4945c.0606.1244.2112.1765.3317.1085 1.9382-1.0939 2.7113-3.5086 1.728-5.53301z" fill="url(#w)"/><path d="m15.788 9.11649-1.7007-3.49536c-.0603-.12409-.2104-.17637-.3308-.10894-1.9385 1.08555-2.7118 3.50974-1.7285 5.53431l1.7003 3.4945c.0606.1244.2112.1765.3317.1085 1.9382-1.0939 2.7113-3.5086 1.728-5.53301z" fill="url(#x)"/><path d="m15.788 9.11649-1.7007-3.49536c-.0603-.12409-.2104-.17637-.3308-.10894-1.9385 1.08555-2.7118 3.50974-1.7285 5.53431l1.7003 3.4945c.0606.1244.2112.1765.3317.1085 1.9382-1.0939 2.7113-3.5086 1.728-5.53301z" fill="url(#y)"/></g><g filter="url(#j)"><path d="m15.5883 9.7279-1.77-3.45334c-.7624.49709-.3357 1.71233-.0824 2.14836l1.8338 3.51528c.4591-.8017.2037-1.8076.0186-2.2103z" fill="url(#z)"/></g><path d="m24.0838 2.29341c-.056-.12622-.2069-.17815-.3287-.1131-3.1054 1.65838-4.4193 5.44173-2.9926 8.65939.0559.1261.2067.178.3284.1132 3.1146-1.65812 4.4199-5.44166 2.9929-8.65949z" fill="#b2dc52"/><path d="m24.0838 2.29341c-.056-.12622-.2069-.17815-.3287-.1131-3.1054 1.65838-4.4193 5.44173-2.9926 8.65939.0559.1261.2067.178.3284.1132 3.1146-1.65812 4.4199-5.44166 2.9929-8.65949z" fill="url(#A)"/><path d="m24.0838 2.29341c-.056-.12622-.2069-.17815-.3287-.1131-3.1054 1.65838-4.4193 5.44173-2.9926 8.65939.0559.1261.2067.178.3284.1132 3.1146-1.65812 4.4199-5.44166 2.9929-8.65949z" fill="url(#B)"/><path d="m24.0838 2.29341c-.056-.12622-.2069-.17815-.3287-.1131-3.1054 1.65838-4.4193 5.44173-2.9926 8.65939.0559.1261.2067.178.3284.1132 3.1146-1.65812 4.4199-5.44166 2.9929-8.65949z" fill="url(#C)"/><path d="m24.0838 2.29341c-.056-.12622-.2069-.17815-.3287-.1131-3.1054 1.65838-4.4193 5.44173-2.9926 8.65939.0559.1261.2067.178.3284.1132 3.1146-1.65812 4.4199-5.44166 2.9929-8.65949z" fill="url(#D)"/><path d="m24.0838 2.29341c-.056-.12622-.2069-.17815-.3287-.1131-3.1054 1.65838-4.4193 5.44173-2.9926 8.65939.0559.1261.2067.178.3284.1132 3.1146-1.65812 4.4199-5.44166 2.9929-8.65949z" fill="url(#E)"/><g filter="url(#k)"><path d="m23.8059 15.1378 3.8716.4041c.1372.0143.2376.1375.2154.2736-.3569 2.1906-2.3704 3.7437-4.607 3.5123l-3.8705-.4039c-.1377-.0144-.2382-.1382-.2154-.2747.3656-2.1908 2.3696-3.7524 4.6059-3.5114z" fill="url(#F)"/><path d="m23.8059 15.1378 3.8716.4041c.1372.0143.2376.1375.2154.2736-.3569 2.1906-2.3704 3.7437-4.607 3.5123l-3.8705-.4039c-.1377-.0144-.2382-.1382-.2154-.2747.3656-2.1908 2.3696-3.7524 4.6059-3.5114z" fill="url(#G)"/><path d="m23.8059 15.1378 3.8716.4041c.1372.0143.2376.1375.2154.2736-.3569 2.1906-2.3704 3.7437-4.607 3.5123l-3.8705-.4039c-.1377-.0144-.2382-.1382-.2154-.2747.3656-2.1908 2.3696-3.7524 4.6059-3.5114z" fill="url(#H)"/></g><g filter="url(#l)"><path d="m23.6102 15.5445 3.8656.3397c-.1735.8934-1.4599.9556-1.9593.8851l-3.947-.3755c.57-.7271 1.598-.8692 2.0407-.8493z" fill="url(#I)"/></g><g filter="url(#m)"><path d="m19.3481 21.6821 5.0213.524c.1373.0143.2376.1376.2171.2741-.428 2.8406-3.0218 4.8631-5.9084 4.5619l-5.0214-.5241c-.1373-.0143-.2376-.1375-.217-.2741.428-2.8406 3.0218-4.8631 5.9084-4.5618z" fill="url(#J)"/><path d="m19.3481 21.6821 5.0213.524c.1373.0143.2376.1376.2171.2741-.428 2.8406-3.0218 4.8631-5.9084 4.5619l-5.0214-.5241c-.1373-.0143-.2376-.1375-.217-.2741.428-2.8406 3.0218-4.8631 5.9084-4.5618z" fill="url(#K)"/><path d="m19.3481 21.6821 5.0213.524c.1373.0143.2376.1376.2171.2741-.428 2.8406-3.0218 4.8631-5.9084 4.5619l-5.0214-.5241c-.1373-.0143-.2376-.1375-.217-.2741.428-2.8406 3.0218-4.8631 5.9084-4.5618z" fill="url(#L)"/><path d="m19.3481 21.6821 5.0213.524c.1373.0143.2376.1376.2171.2741-.428 2.8406-3.0218 4.8631-5.9084 4.5619l-5.0214-.5241c-.1373-.0143-.2376-.1375-.217-.2741.428-2.8406 3.0218-4.8631 5.9084-4.5618z" fill="url(#M)"/></g><g filter="url(#n)"><path d="m18.7151 22.4147 5.1531.4529c-.2313 1.191-1.9462 1.2739-2.6119 1.1799l-5.2615-.5006c.7597-.9693 2.1301-1.1586 2.7203-1.1322z" fill="url(#N)"/></g></svg>