<svg fill="none" height="32" viewBox="0 0 32 32" width="32" xmlns="http://www.w3.org/2000/svg" xmlns:xlink="http://www.w3.org/1999/xlink"><filter id="a" color-interpolation-filters="sRGB" filterUnits="userSpaceOnUse" height="6.01016" width="7.36519" x="12.1693" y="19.1851"><feFlood flood-opacity="0" result="BackgroundImageFix"/><feBlend in="SourceGraphic" in2="BackgroundImageFix" mode="normal" result="shape"/><feGaussianBlur result="effect1_foregroundBlur_4002_2674" stdDeviation=".25"/></filter><filter id="b" color-interpolation-filters="sRGB" filterUnits="userSpaceOnUse" height="2.78" width="4.12" x="13.9824" y="21.8285"><feFlood flood-opacity="0" result="BackgroundImageFix"/><feBlend in="SourceGraphic" in2="BackgroundImageFix" mode="normal" result="shape"/><feColorMatrix in="SourceAlpha" result="hardAlpha" type="matrix" values="0 0 0 0 0 0 0 0 0 0 0 0 0 0 0 0 0 0 127 0"/><feOffset dx=".1" dy="-.15"/><feGaussianBlur stdDeviation=".15"/><feComposite in2="hardAlpha" k2="-1" k3="1" operator="arithmetic"/><feColorMatrix type="matrix" values="0 0 0 0 0.0980392 0 0 0 0 0.321569 0 0 0 0 0.741176 0 0 0 1 0"/><feBlend in2="shape" mode="normal" result="effect1_innerShadow_4002_2674"/></filter><filter id="c" color-interpolation-filters="sRGB" filterUnits="userSpaceOnUse" height="4.53933" width="3.58" x="12.5669" y="19.1285"><feFlood flood-opacity="0" result="BackgroundImageFix"/><feBlend in="SourceGraphic" in2="BackgroundImageFix" mode="normal" result="shape"/><feColorMatrix in="SourceAlpha" result="hardAlpha" type="matrix" values="0 0 0 0 0 0 0 0 0 0 0 0 0 0 0 0 0 0 127 0"/><feOffset dx=".1" dy="-.1"/><feGaussianBlur stdDeviation=".2"/><feComposite in2="hardAlpha" k2="-1" k3="1" operator="arithmetic"/><feColorMatrix type="matrix" values="0 0 0 0 0.321569 0 0 0 0 0.701961 0 0 0 0 1 0 0 0 1 0"/><feBlend in2="shape" mode="normal" result="effect1_innerShadow_4002_2674"/></filter><filter id="d" color-interpolation-filters="sRGB" filterUnits="userSpaceOnUse" height="4.53933" width="3.6" x="15.9019" y="19.1285"><feFlood flood-opacity="0" result="BackgroundImageFix"/><feBlend in="SourceGraphic" in2="BackgroundImageFix" mode="normal" result="shape"/><feColorMatrix in="SourceAlpha" result="hardAlpha" type="matrix" values="0 0 0 0 0 0 0 0 0 0 0 0 0 0 0 0 0 0 127 0"/><feOffset dx=".1" dy="-.1"/><feGaussianBlur stdDeviation=".2"/><feComposite in2="hardAlpha" k2="-1" k3="1" operator="arithmetic"/><feColorMatrix type="matrix" values="0 0 0 0 0.321569 0 0 0 0 0.701961 0 0 0 0 1 0 0 0 1 0"/><feBlend in2="shape" mode="normal" result="effect1_innerShadow_4002_2674"/></filter><filter id="e" color-interpolation-filters="sRGB" filterUnits="userSpaceOnUse" height="2.80469" width="4.35156" x="13.7628" y="19.25"><feFlood flood-opacity="0" result="BackgroundImageFix"/><feBlend in="SourceGraphic" in2="BackgroundImageFix" mode="normal" result="shape"/><feColorMatrix in="SourceAlpha" result="hardAlpha" type="matrix" values="0 0 0 0 0 0 0 0 0 0 0 0 0 0 0 0 0 0 127 0"/><feOffset dy="-.25"/><feGaussianBlur stdDeviation=".3"/><feComposite in2="hardAlpha" k2="-1" k3="1" operator="arithmetic"/><feColorMatrix type="matrix" values="0 0 0 0 0.835294 0 0 0 0 0.447059 0 0 0 0 0.270588 0 0 0 1 0"/><feBlend in2="shape" mode="normal" result="effect1_innerShadow_4002_2674"/></filter><filter id="f" color-interpolation-filters="sRGB" filterUnits="userSpaceOnUse" height="14.3768" width="12.2401" x="10.1224" y="6.01758"><feFlood flood-opacity="0" result="BackgroundImageFix"/><feBlend in="SourceGraphic" in2="BackgroundImageFix" mode="normal" result="shape"/><feColorMatrix in="SourceAlpha" result="hardAlpha" type="matrix" values="0 0 0 0 0 0 0 0 0 0 0 0 0 0 0 0 0 0 127 0"/><feOffset dx=".5"/><feGaussianBlur stdDeviation=".5"/><feComposite in2="hardAlpha" k2="-1" k3="1" operator="arithmetic"/><feColorMatrix type="matrix" values="0 0 0 0 0.823529 0 0 0 0 0.623529 0 0 0 0 0.313726 0 0 0 1 0"/><feBlend in2="shape" mode="normal" result="effect1_innerShadow_4002_2674"/><feColorMatrix in="SourceAlpha" result="hardAlpha" type="matrix" values="0 0 0 0 0 0 0 0 0 0 0 0 0 0 0 0 0 0 127 0"/><feOffset dy=".2"/><feGaussianBlur stdDeviation=".375"/><feComposite in2="hardAlpha" k2="-1" k3="1" operator="arithmetic"/><feColorMatrix type="matrix" values="0 0 0 0 0.980392 0 0 0 0 0.54902 0 0 0 0 0.0941176 0 0 0 1 0"/><feBlend in2="effect1_innerShadow_4002_2674" mode="normal" result="effect2_innerShadow_4002_2674"/></filter><filter id="g" color-interpolation-filters="sRGB" filterUnits="userSpaceOnUse" height="5.33127" width="4.1564" x="13.6222" y="11.1592"><feFlood flood-opacity="0" result="BackgroundImageFix"/><feBlend in="SourceGraphic" in2="BackgroundImageFix" mode="normal" result="shape"/><feGaussianBlur result="effect1_foregroundBlur_4002_2674" stdDeviation=".5"/></filter><filter id="h" color-interpolation-filters="sRGB" filterUnits="userSpaceOnUse" height="3.53127" width="2.38015" x="14.7485" y="11.8341"><feFlood flood-opacity="0" result="BackgroundImageFix"/><feBlend in="SourceGraphic" in2="BackgroundImageFix" mode="normal" result="shape"/><feColorMatrix in="SourceAlpha" result="hardAlpha" type="matrix" values="0 0 0 0 0 0 0 0 0 0 0 0 0 0 0 0 0 0 127 0"/><feOffset dx=".1" dy="-.1"/><feGaussianBlur stdDeviation=".2"/><feComposite in2="hardAlpha" k2="-1" k3="1" operator="arithmetic"/><feColorMatrix type="matrix" values="0 0 0 0 0.921569 0 0 0 0 0.576471 0 0 0 0 0.133333 0 0 0 1 0"/><feBlend in2="shape" mode="normal" result="effect1_innerShadow_4002_2674"/><feGaussianBlur result="effect2_foregroundBlur_4002_2674" stdDeviation=".05"/></filter><filter id="i" color-interpolation-filters="sRGB" filterUnits="userSpaceOnUse" height="3.53127" width="2.38015" x="14.7485" y="11.7872"><feFlood flood-opacity="0" result="BackgroundImageFix"/><feBlend in="SourceGraphic" in2="BackgroundImageFix" mode="normal" result="shape"/><feGaussianBlur result="effect1_foregroundBlur_4002_2674" stdDeviation=".05"/></filter><filter id="j" color-interpolation-filters="sRGB" filterUnits="userSpaceOnUse" height="1.73235" width="4.19696" x="13.84" y="15.7855"><feFlood flood-opacity="0" result="BackgroundImageFix"/><feBlend in="SourceGraphic" in2="BackgroundImageFix" mode="normal" result="shape"/><feGaussianBlur result="effect1_foregroundBlur_4002_2674" stdDeviation=".05"/></filter><filter id="k" color-interpolation-filters="sRGB" filterUnits="userSpaceOnUse" height=".770099" width=".874088" x="17.6166" y="11.5634"><feFlood flood-opacity="0" result="BackgroundImageFix"/><feBlend in="SourceGraphic" in2="BackgroundImageFix" mode="normal" result="shape"/><feGaussianBlur result="effect1_foregroundBlur_4002_2674" stdDeviation=".05"/></filter><filter id="l" color-interpolation-filters="sRGB" filterUnits="userSpaceOnUse" height=".989752" width=".96427" x="18.5961" y="11.6643"><feFlood flood-opacity="0" result="BackgroundImageFix"/><feBlend in="SourceGraphic" in2="BackgroundImageFix" mode="normal" result="shape"/><feGaussianBlur result="effect1_foregroundBlur_4002_2674" stdDeviation=".1"/></filter><filter id="m" color-interpolation-filters="sRGB" filterUnits="userSpaceOnUse" height="1.13541" width="1.07352" x="13.4929" y="11.5915"><feFlood flood-opacity="0" result="BackgroundImageFix"/><feBlend in="SourceGraphic" in2="BackgroundImageFix" mode="normal" result="shape"/><feGaussianBlur result="effect1_foregroundBlur_4002_2674" stdDeviation=".1"/></filter><filter id="n" color-interpolation-filters="sRGB" filterUnits="userSpaceOnUse" height=".779529" width="1.01911" x="12.6109" y="11.554"><feFlood flood-opacity="0" result="BackgroundImageFix"/><feBlend in="SourceGraphic" in2="BackgroundImageFix" mode="normal" result="shape"/><feGaussianBlur result="effect1_foregroundBlur_4002_2674" stdDeviation=".05"/></filter><filter id="o" color-interpolation-filters="sRGB" filterUnits="userSpaceOnUse" height="2.65881" width="1.45215" x="9.04614" y="11.4805"><feFlood flood-opacity="0" result="BackgroundImageFix"/><feBlend in="SourceGraphic" in2="BackgroundImageFix" mode="normal" result="shape"/><feGaussianBlur result="effect1_foregroundBlur_4002_2674" stdDeviation=".125"/></filter><filter id="p" color-interpolation-filters="sRGB" filterUnits="userSpaceOnUse" height="2.68637" width="1.58727" x="21.3882" y="11.4619"><feFlood flood-opacity="0" result="BackgroundImageFix"/><feBlend in="SourceGraphic" in2="BackgroundImageFix" mode="normal" result="shape"/><feGaussianBlur result="effect1_foregroundBlur_4002_2674" stdDeviation=".125"/></filter><filter id="q" color-interpolation-filters="sRGB" filterUnits="userSpaceOnUse" height="6.9343" width="16.5601" x="7.74341" y="2.06592"><feFlood flood-opacity="0" result="BackgroundImageFix"/><feBlend in="SourceGraphic" in2="BackgroundImageFix" mode="normal" result="shape"/><feColorMatrix in="SourceAlpha" result="hardAlpha" type="matrix" values="0 0 0 0 0 0 0 0 0 0 0 0 0 0 0 0 0 0 127 0"/><feOffset/><feGaussianBlur stdDeviation=".5"/><feComposite in2="hardAlpha" k2="-1" k3="1" operator="arithmetic"/><feColorMatrix type="matrix" values="0 0 0 0 0.298039 0 0 0 0 0.537255 0 0 0 0 0.701961 0 0 0 1 0"/><feBlend in2="shape" mode="normal" result="effect1_innerShadow_4002_2674"/></filter><filter id="r" color-interpolation-filters="sRGB" filterUnits="userSpaceOnUse" height="2.94795" width="2.67357" x="14.6128" y="3.11025"><feFlood flood-opacity="0" result="BackgroundImageFix"/><feBlend in="SourceGraphic" in2="BackgroundImageFix" mode="normal" result="shape"/><feGaussianBlur result="effect1_foregroundBlur_4002_2674" stdDeviation=".075"/></filter><filter id="s" color-interpolation-filters="sRGB" filterUnits="userSpaceOnUse" height="2.74795" width="2.62357" x="14.6667" y="3.11729"><feFlood flood-opacity="0" result="BackgroundImageFix"/><feBlend in="SourceGraphic" in2="BackgroundImageFix" mode="normal" result="shape"/><feColorMatrix in="SourceAlpha" result="hardAlpha" type="matrix" values="0 0 0 0 0 0 0 0 0 0 0 0 0 0 0 0 0 0 127 0"/><feOffset dx="-.15"/><feGaussianBlur stdDeviation=".075"/><feComposite in2="hardAlpha" k2="-1" k3="1" operator="arithmetic"/><feColorMatrix type="matrix" values="0 0 0 0 1 0 0 0 0 0.952941 0 0 0 0 0.411765 0 0 0 1 0"/><feBlend in2="shape" mode="normal" result="effect1_innerShadow_4002_2674"/><feColorMatrix in="SourceAlpha" result="hardAlpha" type="matrix" values="0 0 0 0 0 0 0 0 0 0 0 0 0 0 0 0 0 0 127 0"/><feOffset dx=".1" dy="-.1"/><feGaussianBlur stdDeviation=".125"/><feComposite in2="hardAlpha" k2="-1" k3="1" operator="arithmetic"/><feColorMatrix type="matrix" values="0 0 0 0 0.952941 0 0 0 0 0.623529 0 0 0 0 0.317647 0 0 0 1 0"/><feBlend in2="effect1_innerShadow_4002_2674" mode="normal" result="effect2_innerShadow_4002_2674"/></filter><filter id="t" color-interpolation-filters="sRGB" filterUnits="userSpaceOnUse" height="4.0875" width="13.1547" x="9.36509" y="7.07656"><feFlood flood-opacity="0" result="BackgroundImageFix"/><feBlend in="SourceGraphic" in2="BackgroundImageFix" mode="normal" result="shape"/><feColorMatrix in="SourceAlpha" result="hardAlpha" type="matrix" values="0 0 0 0 0 0 0 0 0 0 0 0 0 0 0 0 0 0 127 0"/><feOffset dx="-.1" dy="-.15"/><feGaussianBlur stdDeviation=".125"/><feComposite in2="hardAlpha" k2="-1" k3="1" operator="arithmetic"/><feColorMatrix type="matrix" values="0 0 0 0 0.368627 0 0 0 0 0.313726 0 0 0 0 0.427451 0 0 0 1 0"/><feBlend in2="shape" mode="normal" result="effect1_innerShadow_4002_2674"/><feColorMatrix in="SourceAlpha" result="hardAlpha" type="matrix" values="0 0 0 0 0 0 0 0 0 0 0 0 0 0 0 0 0 0 127 0"/><feOffset dy="-.1"/><feGaussianBlur stdDeviation=".05"/><feComposite in2="hardAlpha" k2="-1" k3="1" operator="arithmetic"/><feColorMatrix type="matrix" values="0 0 0 0 0.34902 0 0 0 0 0.207843 0 0 0 0 0.407843 0 0 0 1 0"/><feBlend in2="effect1_innerShadow_4002_2674" mode="normal" result="effect2_innerShadow_4002_2674"/></filter><filter id="u" color-interpolation-filters="sRGB" filterUnits="userSpaceOnUse" height="3.44836" width="13.8992" x="9.17041" y="5.73145"><feFlood flood-opacity="0" result="BackgroundImageFix"/><feBlend in="SourceGraphic" in2="BackgroundImageFix" mode="normal" result="shape"/><feGaussianBlur result="effect1_foregroundBlur_4002_2674" stdDeviation=".25"/></filter><filter id="v" color-interpolation-filters="sRGB" filterUnits="userSpaceOnUse" height="2.72009" width="14.0332" x="9.05176" y="6.28965"><feFlood flood-opacity="0" result="BackgroundImageFix"/><feBlend in="SourceGraphic" in2="BackgroundImageFix" mode="normal" result="shape"/><feColorMatrix in="SourceAlpha" result="hardAlpha" type="matrix" values="0 0 0 0 0 0 0 0 0 0 0 0 0 0 0 0 0 0 127 0"/><feOffset dx=".1" dy="-.1"/><feGaussianBlur stdDeviation=".25"/><feComposite in2="hardAlpha" k2="-1" k3="1" operator="arithmetic"/><feColorMatrix type="matrix" values="0 0 0 0 0.333333 0 0 0 0 0.603922 0 0 0 0 0.862745 0 0 0 1 0"/><feBlend in2="shape" mode="normal" result="effect1_innerShadow_4002_2674"/></filter><filter id="w" color-interpolation-filters="sRGB" filterUnits="userSpaceOnUse" height="3.73281" width="3.0625" x="18.7028" y="24.3297"><feFlood flood-opacity="0" result="BackgroundImageFix"/><feBlend in="SourceGraphic" in2="BackgroundImageFix" mode="normal" result="shape"/><feColorMatrix in="SourceAlpha" result="hardAlpha" type="matrix" values="0 0 0 0 0 0 0 0 0 0 0 0 0 0 0 0 0 0 127 0"/><feOffset dx="-.15"/><feGaussianBlur stdDeviation=".075"/><feComposite in2="hardAlpha" k2="-1" k3="1" operator="arithmetic"/><feColorMatrix type="matrix" values="0 0 0 0 1 0 0 0 0 0.952941 0 0 0 0 0.411765 0 0 0 1 0"/><feBlend in2="shape" mode="normal" result="effect1_innerShadow_4002_2674"/><feColorMatrix in="SourceAlpha" result="hardAlpha" type="matrix" values="0 0 0 0 0 0 0 0 0 0 0 0 0 0 0 0 0 0 127 0"/><feOffset dx=".1" dy="-.1"/><feGaussianBlur stdDeviation=".1"/><feComposite in2="hardAlpha" k2="-1" k3="1" operator="arithmetic"/><feColorMatrix type="matrix" values="0 0 0 0 0.952941 0 0 0 0 0.623529 0 0 0 0 0.317647 0 0 0 1 0"/><feBlend in2="effect1_innerShadow_4002_2674" mode="normal" result="effect2_innerShadow_4002_2674"/></filter><filter id="x" color-interpolation-filters="sRGB" filterUnits="userSpaceOnUse" height="1.33438" width="4.30625" x="8.81216" y="25.8766"><feFlood flood-opacity="0" result="BackgroundImageFix"/><feBlend in="SourceGraphic" in2="BackgroundImageFix" mode="normal" result="shape"/><feColorMatrix in="SourceAlpha" result="hardAlpha" type="matrix" values="0 0 0 0 0 0 0 0 0 0 0 0 0 0 0 0 0 0 127 0"/><feOffset dx="-.15"/><feGaussianBlur stdDeviation=".075"/><feComposite in2="hardAlpha" k2="-1" k3="1" operator="arithmetic"/><feColorMatrix type="matrix" values="0 0 0 0 1 0 0 0 0 0.952941 0 0 0 0 0.411765 0 0 0 1 0"/><feBlend in2="shape" mode="normal" result="effect1_innerShadow_4002_2674"/><feColorMatrix in="SourceAlpha" result="hardAlpha" type="matrix" values="0 0 0 0 0 0 0 0 0 0 0 0 0 0 0 0 0 0 127 0"/><feOffset dy="-.1"/><feGaussianBlur stdDeviation=".1"/><feComposite in2="hardAlpha" k2="-1" k3="1" operator="arithmetic"/><feColorMatrix type="matrix" values="0 0 0 0 0.952941 0 0 0 0 0.623529 0 0 0 0 0.317647 0 0 0 1 0"/><feBlend in2="effect1_innerShadow_4002_2674" mode="normal" result="effect2_innerShadow_4002_2674"/></filter><radialGradient id="y" cx="0" cy="0" gradientTransform="matrix(.59375216 6.27271145 -11.99428644 1.13533574 13.6849 18.0313)" gradientUnits="userSpaceOnUse" r="1"><stop offset=".258567" stop-color="#3a84b9"/><stop offset="1" stop-color="#36a5fc" stop-opacity="0"/></radialGradient><radialGradient id="z" cx="0" cy="0" gradientTransform="matrix(2.6875 0 0 14.4101 8.12244 29.9336)" gradientUnits="userSpaceOnUse" r="1"><stop offset="0" stop-color="#30acff"/><stop offset="1" stop-color="#30acff" stop-opacity="0"/></radialGradient><radialGradient id="A" cx="0" cy="0" gradientTransform="matrix(-3.15625 0 0 -12.1562 24.0287 27.875)" gradientUnits="userSpaceOnUse" r="1"><stop offset=".207921" stop-color="#5bcdff"/><stop offset="1" stop-color="#5bcdff" stop-opacity="0"/></radialGradient><linearGradient id="B" gradientUnits="userSpaceOnUse" x1="7.94926" x2="8.22825" y1="28.4765" y2="28.4765"><stop offset=".228677" stop-color="#1b89dc"/><stop offset="1" stop-color="#1b89dc" stop-opacity="0"/></linearGradient><radialGradient id="C" cx="0" cy="0" gradientTransform="matrix(.93749879 -6.93361715 3.82090149 .51662652 6.46619 29.9337)" gradientUnits="userSpaceOnUse" r="1"><stop offset="0" stop-color="#3bafff"/><stop offset="1" stop-color="#409ed2"/></radialGradient><radialGradient id="D" cx="0" cy="0" gradientTransform="matrix(-1.78125 0 0 -13.7094 8.30994 29.9337)" gradientUnits="userSpaceOnUse" r="1"><stop offset=".350877" stop-color="#3183ce"/><stop offset="1" stop-color="#4188d4" stop-opacity="0"/></radialGradient><radialGradient id="E" cx="0" cy="0" gradientTransform="matrix(-1.65625201 -8.02736706 2.31778967 -.47821954 26.4662 29.9337)" gradientUnits="userSpaceOnUse" r="1"><stop offset=".0858336" stop-color="#55d2ff"/><stop offset="1" stop-color="#4eb9f4"/></radialGradient><radialGradient id="F" cx="0" cy="0" gradientTransform="matrix(1.36307 0 0 13.6894 23.9688 29.7099)" gradientUnits="userSpaceOnUse" r="1"><stop offset=".0342993" stop-color="#189cf0"/><stop offset=".799951" stop-color="#189cf0" stop-opacity="0"/></radialGradient><radialGradient id="G" cx="0" cy="0" gradientTransform="matrix(-1.59375352 1.71874902 -2.62713511 -2.43607751 16.9349 22.5937)" gradientUnits="userSpaceOnUse" r="1"><stop offset="0" stop-color="#407ccf"/><stop offset="1" stop-color="#3c73d6"/></radialGradient><radialGradient id="H" cx="0" cy="0" gradientTransform="matrix(1.60937733 -1.10937712 1.05865551 1.53579531 15.4974 24.0312)" gradientUnits="userSpaceOnUse" r="1"><stop offset=".675893" stop-color="#4681d4" stop-opacity="0"/><stop offset="1" stop-color="#4681d4"/></radialGradient><linearGradient id="I"><stop offset=".19293" stop-color="#33488b"/><stop offset="1" stop-color="#1b54be" stop-opacity="0"/></linearGradient><linearGradient id="J" gradientUnits="userSpaceOnUse" x1="15.2161" x2="15.5208" xlink:href="#I" y1="22.4219" y2="22.7656"/><linearGradient id="K" gradientUnits="userSpaceOnUse" x1="16.4271" x2="16.2083" xlink:href="#I" y1="22.2578" y2="22.5547"/><radialGradient id="L" cx="0" cy="0" gradientTransform="matrix(0 4.71487 -1.3158 0 15.9383 25.2186)" gradientUnits="userSpaceOnUse" r="1"><stop offset="0" stop-color="#3f7cd5"/><stop offset="1" stop-color="#3872d8"/></radialGradient><linearGradient id="M" gradientUnits="userSpaceOnUse" x1="17.435" x2="16.4975" y1="27.8749" y2="28.0624"><stop offset="0" stop-color="#4a88df"/><stop offset="1" stop-color="#4a88df" stop-opacity="0"/></linearGradient><linearGradient id="N" gradientUnits="userSpaceOnUse" x1="14.7006" x2="15.9383" y1="27.1093" y2="27.1249"><stop offset="0" stop-color="#3169c8"/><stop offset="1" stop-color="#3169c8" stop-opacity="0"/></linearGradient><radialGradient id="O" cx="0" cy="0" gradientTransform="matrix(.65930149 -2.21967439 2.48773934 .73892381 14.3069 23.6679)" gradientUnits="userSpaceOnUse" r="1"><stop offset="0" stop-color="#76c4ff"/><stop offset="1" stop-color="#76c4ff" stop-opacity="0"/></radialGradient><radialGradient id="P" cx="0" cy="0" gradientTransform="matrix(-.34376002 1.49505846 -2.22012873 -.51047602 14.0287 19.9531)" gradientUnits="userSpaceOnUse" r="1"><stop offset=".192275" stop-color="#5d8cde"/><stop offset="1" stop-color="#5d8cde" stop-opacity="0"/></radialGradient><linearGradient id="Q" gradientUnits="userSpaceOnUse" x1="18.8099" x2="17.2708" y1="22.4219" y2="22.1016"><stop offset="0" stop-color="#8be8ff"/><stop offset="1" stop-color="#75c1ff" stop-opacity="0"/></linearGradient><radialGradient id="R" cx="0" cy="0" gradientTransform="matrix(.46875037 .42187515 -1.2508634 1.38984883 17.0599 20.7031)" gradientUnits="userSpaceOnUse" r="1"><stop offset=".491071" stop-color="#639be0"/><stop offset=".902394" stop-color="#639be0" stop-opacity="0"/></radialGradient><radialGradient id="S" cx="0" cy="0" gradientTransform="matrix(.84374996 .87499914 -2.3999598 2.31424911 17.8099 19.9063)" gradientUnits="userSpaceOnUse" r="1"><stop offset=".149268" stop-color="#5fa3ec"/><stop offset="1" stop-color="#5fa3ec" stop-opacity="0"/></radialGradient><radialGradient id="T" cx="0" cy="0" gradientTransform="matrix(-2.28124415 1.4218836 -1.21746823 -1.95328385 17.6224 20.375)" gradientUnits="userSpaceOnUse" r="1"><stop offset=".238673" stop-color="#e7a446"/><stop offset="1" stop-color="#dd8f36"/></radialGradient><radialGradient id="U" cx="0" cy="0" gradientTransform="matrix(-2.4218776 .20311534 -.04645942 -.55396621 15.3724 20)" gradientUnits="userSpaceOnUse" r="1"><stop offset="0" stop-color="#d1814c"/><stop offset="1" stop-color="#d1814c" stop-opacity="0"/></radialGradient><radialGradient id="V" cx="0" cy="0" gradientTransform="matrix(-1.171881 .31249246 -.76735511 -2.87766581 10.2943 9.78125)" gradientUnits="userSpaceOnUse" r="1"><stop offset=".183403" stop-color="#d36a1e"/><stop offset=".775104" stop-color="#d18e42"/></radialGradient><radialGradient id="W" cx="0" cy="0" gradientTransform="matrix(.87500022 .25781202 -.53319737 1.80964339 21.9037 9.71094)" gradientUnits="userSpaceOnUse" r="1"><stop offset=".152468" stop-color="#e3872a"/><stop offset="1" stop-color="#f8b538"/></radialGradient><radialGradient id="X" cx="0" cy="0" gradientTransform="matrix(-1.00204093 4.28264461 -5.08744851 -1.19034664 22.3115 14.1875)" gradientUnits="userSpaceOnUse" r="1"><stop offset=".0431525" stop-color="#ffc135"/><stop offset="1" stop-color="#e26839"/></radialGradient><radialGradient id="Y" cx="0" cy="0" gradientTransform="matrix(.33693767 .46208568 -.39255018 .28623467 21.4547 14.4956)" gradientUnits="userSpaceOnUse" r="1"><stop offset="0" stop-color="#e18c2a"/><stop offset="1" stop-color="#e18c2a" stop-opacity="0"/></radialGradient><radialGradient id="Z" cx="0" cy="0" gradientTransform="matrix(1.53128762 4.506841 -2.04856237 .69603924 9.5656 14.3223)" gradientUnits="userSpaceOnUse" r="1"><stop offset="0" stop-color="#d57a26"/><stop offset="1" stop-color="#d06a3c"/></radialGradient><radialGradient id="aa" cx="0" cy="0" gradientTransform="matrix(.36581803 1.14558973 -1.00491781 .32089765 10.3261 14.3126)" gradientUnits="userSpaceOnUse" r="1"><stop offset=".263377" stop-color="#be691e"/><stop offset=".977292" stop-color="#be691e" stop-opacity="0"/></radialGradient><radialGradient id="ab" cx="0" cy="0" gradientTransform="matrix(-6.00519 0 0 -10.6231 19.1637 13.106)" gradientUnits="userSpaceOnUse" r="1"><stop offset="0" stop-color="#ffe846"/><stop offset="1" stop-color="#f5a129"/></radialGradient><radialGradient id="ac" cx="0" cy="0" gradientTransform="matrix(0 -3.22721 12.5542 0 15.7158 20.3833)" gradientUnits="userSpaceOnUse" r="1"><stop offset="0" stop-color="#ed8e57"/><stop offset="1" stop-color="#ffa041" stop-opacity="0"/></radialGradient><radialGradient id="ad" cx="0" cy="0" gradientTransform="matrix(-.46241955 7.00923298 -2.57688823 -.17000483 21.8625 12.8399)" gradientUnits="userSpaceOnUse" r="1"><stop offset=".389903" stop-color="#ffd930"/><stop offset="1" stop-color="#ffd930" stop-opacity="0"/></radialGradient><radialGradient id="ae" cx="0" cy="0" gradientTransform="matrix(0 -1.62409 1.95532 0 13.5361 11.75)" gradientUnits="userSpaceOnUse" r="1"><stop offset=".276316" stop-color="#f59632"/><stop offset="1" stop-color="#f59632" stop-opacity="0"/></radialGradient><radialGradient id="af" cx="0" cy="0" gradientTransform="matrix(0 -1.76352 2.28734 0 18.7972 11.2772)" gradientUnits="userSpaceOnUse" r="1"><stop offset=".178218" stop-color="#ffbe3a"/><stop offset="1" stop-color="#ffbe3a" stop-opacity="0"/></radialGradient><radialGradient id="ag" cx="0" cy="0" gradientTransform="matrix(0 7.875 -10.4852 0 15.9925 12.5936)" gradientUnits="userSpaceOnUse" r="1"><stop offset=".869048" stop-color="#f59c46" stop-opacity="0"/><stop offset=".988095" stop-color="#e08969"/></radialGradient><radialGradient id="ah" cx="0" cy="0" gradientTransform="matrix(0 2.875 -5.98132 0 15.7787 10.6249)" gradientUnits="userSpaceOnUse" r="1"><stop offset=".264368" stop-color="#c6752e"/><stop offset="1" stop-color="#c6752e" stop-opacity="0"/></radialGradient><linearGradient id="ai" gradientUnits="userSpaceOnUse" x1="15.9386" x2="16.9313" y1="14.0578" y2="14.0578"><stop offset="0" stop-color="#ffc92f"/><stop offset="1" stop-color="#ffea47"/></linearGradient><linearGradient id="aj" gradientUnits="userSpaceOnUse" x1="14.6928" x2="15.9401" y1="13.8791" y2="13.9487"><stop offset="0" stop-color="#f49f22"/><stop offset="1" stop-color="#e88830" stop-opacity="0"/><stop offset="1" stop-color="#f49f22" stop-opacity="0"/></linearGradient><linearGradient id="ak" gradientUnits="userSpaceOnUse" x1="15.9386" x2="15.9386" y1="14.5158" y2="15.4944"><stop offset="0" stop-color="#e88830" stop-opacity="0"/><stop offset=".844655" stop-color="#e88830"/></linearGradient><linearGradient id="al" gradientUnits="userSpaceOnUse" x1="15.9386" x2="15.9386" y1="11.9341" y2="12.4158"><stop offset="0" stop-color="#fac137"/><stop offset="1" stop-color="#fac137" stop-opacity="0"/></linearGradient><linearGradient id="am" gradientUnits="userSpaceOnUse" x1="15.7892" x2="16.1707" y1="11.6717" y2="13.1442"><stop offset=".0227273" stop-color="#d5862a"/><stop offset=".995325" stop-color="#d5862a" stop-opacity="0"/></linearGradient><radialGradient id="an" cx="0" cy="0" gradientTransform="matrix(.39878213 -.7115523 2.0706444 1.16047127 14.6442 16.8841)" gradientUnits="userSpaceOnUse" r="1"><stop offset="0" stop-color="#ffb534"/><stop offset="1" stop-color="#ffb534" stop-opacity="0"/></radialGradient><radialGradient id="ao" cx="0" cy="0" gradientTransform="matrix(0 -.827904 3.33087 0 15.9386 17.1716)" gradientUnits="userSpaceOnUse" r="1"><stop offset="0" stop-color="#89014e"/><stop offset="1" stop-color="#87004d"/></radialGradient><linearGradient id="ap"><stop offset=".80198" stop-color="#925c51"/><stop offset="1" stop-color="#694b43"/><stop offset="1" stop-color="#804d49"/><stop offset="1" stop-color="#85534d"/></linearGradient><radialGradient id="aq" cx="0" cy="0" gradientTransform="matrix(0 .931956 -1.48238 0 18.445 12.0538)" gradientUnits="userSpaceOnUse" r="1" xlink:href="#ap"/><linearGradient id="ar"><stop offset=".765532" stop-color="#ffe6e2" stop-opacity="0"/><stop offset=".966159" stop-color="#ffe6e2"/></linearGradient><radialGradient id="as" cx="0" cy="0" gradientTransform="matrix(-.26640208 -.34329501 .47263501 -.36677187 18.1829 12.1504)" gradientUnits="userSpaceOnUse" r="1" xlink:href="#ar"/><linearGradient id="at"><stop offset="0" stop-color="#b4948d"/><stop offset="1" stop-color="#b4948d" stop-opacity="0"/></linearGradient><linearGradient id="au" gradientUnits="userSpaceOnUse" x1="19.3386" x2="18.9782" xlink:href="#at" y1="12.1154" y2="12.3375"/><radialGradient id="av" cx="0" cy="0" gradientTransform="matrix(0 .932004 -1.48246 0 13.4321 12.0538)" gradientUnits="userSpaceOnUse" r="1" xlink:href="#ap"/><linearGradient id="aw" gradientUnits="userSpaceOnUse" x1="14.2866" x2="13.9261" xlink:href="#at" y1="12.1155" y2="12.3376"/><radialGradient id="ax" cx="0" cy="0" gradientTransform="matrix(-.00888607 -.56755044 .68221839 -.01068141 13.1031 12.3055)" gradientUnits="userSpaceOnUse" r="1" xlink:href="#ar"/><linearGradient id="ay" gradientUnits="userSpaceOnUse" x1="23.3318" x2="21.9455" y1="12.1465" y2="14.6463"><stop offset="0" stop-color="#ffe343"/><stop offset="1" stop-color="#ffc136"/></linearGradient><radialGradient id="az" cx="0" cy="0" gradientTransform="matrix(.72200971 2.57682996 -2.45849724 .68885371 21.2428 12.0694)" gradientUnits="userSpaceOnUse" r="1"><stop offset=".856273" stop-color="#e1943d" stop-opacity="0"/><stop offset="1" stop-color="#e08f2e"/></radialGradient><radialGradient id="aA" cx="0" cy="0" gradientTransform="matrix(.90491824 -1.24185389 1.04092083 .75850167 21.6567 12.6952)" gradientUnits="userSpaceOnUse" r="1"><stop offset=".663731" stop-color="#ffbd22"/><stop offset="1" stop-color="#ffbd22" stop-opacity="0"/></radialGradient><linearGradient id="aB" gradientUnits="userSpaceOnUse" x1="9.21904" x2="10.8941" y1="12.9554" y2="12.8091"><stop offset="0" stop-color="#e39726"/><stop offset="1" stop-color="#d9851d"/></linearGradient><radialGradient id="aC" cx="0" cy="0" gradientTransform="matrix(-.47426132 2.38470769 -2.34438733 -.46624256 9.89292 12.2622)" gradientUnits="userSpaceOnUse" r="1"><stop offset=".77507" stop-color="#c77937" stop-opacity="0"/><stop offset="1" stop-color="#c77937"/></radialGradient><radialGradient id="aD" cx="0" cy="0" gradientTransform="matrix(-7.96878387 3.93564981 -5.00914492 -10.14236406 21.2162 5.53307)" gradientUnits="userSpaceOnUse" r="1"><stop offset="0" stop-color="#48a8fb"/><stop offset="1" stop-color="#328fdd"/></radialGradient><linearGradient id="aE" gradientUnits="userSpaceOnUse" x1="7.34119" x2="13.1537" y1="7.65628" y2="6.09378"><stop offset="0" stop-color="#4389d1"/><stop offset="1" stop-color="#4389d1" stop-opacity="0"/></linearGradient><radialGradient id="aF" cx="0" cy="0" gradientTransform="matrix(-.56248597 1.81250613 -5.67441308 -1.76097487 20.9037 4.12503)" gradientUnits="userSpaceOnUse" r="1"><stop offset=".148047" stop-color="#47b7fb"/><stop offset="1" stop-color="#47b7fb" stop-opacity="0"/></radialGradient><linearGradient id="aG"><stop offset="0" stop-color="#ffd44c"/><stop offset="1" stop-color="#ffd24b"/></linearGradient><linearGradient id="aH" gradientUnits="userSpaceOnUse" x1="16.9225" x2="14.8167" xlink:href="#aG" y1="4.54125" y2="4.54125"/><radialGradient id="aI" cx="0" cy="0" gradientTransform="matrix(-6.84468176 -5.45348366 7.64758176 -9.59850009 20.8521 10.8452)" gradientUnits="userSpaceOnUse" r="1"><stop offset="0" stop-color="#574a69"/><stop offset="1" stop-color="#46395b"/></radialGradient><radialGradient id="aJ" cx="0" cy="0" gradientTransform="matrix(0 -4.33594 10.5987 0 15.9924 11.5625)" gradientUnits="userSpaceOnUse" r="1"><stop offset=".763964" stop-color="#1d1b3e" stop-opacity="0"/><stop offset=".917117" stop-color="#1d1b3e"/></radialGradient><linearGradient id="aK" gradientUnits="userSpaceOnUse" x1="10.9974" x2="21.7786" y1="7.6997" y2="7.6997"><stop offset="0" stop-color="#73b8f6"/><stop offset="1" stop-color="#81d0ff"/></linearGradient><radialGradient id="aL" cx="0" cy="0" gradientTransform="matrix(-.28126248 1.34374977 -11.40523856 -2.38724927 20.6849 6.87516)" gradientUnits="userSpaceOnUse" r="1"><stop offset="0" stop-color="#87ddff"/><stop offset="1" stop-color="#7dc8fc" stop-opacity="0"/></radialGradient><radialGradient id="aM" cx="0" cy="0" gradientTransform="matrix(-1.76886194 1.6033436 -1.79055639 -1.97540131 22.985 7.40641)" gradientUnits="userSpaceOnUse" r="1"><stop offset="0" stop-color="#8ae0ff"/><stop offset="1" stop-color="#8ae0ff" stop-opacity="0"/></radialGradient><linearGradient id="aN" gradientUnits="userSpaceOnUse" x1="21.3481" x2="18.8528" xlink:href="#aG" y1="26.2461" y2="26.2461"/><linearGradient id="aO" gradientUnits="userSpaceOnUse" x1="13.1184" x2="8.78659" y1="26.8635" y2="26.8635"><stop offset="0" stop-color="#ffd04c"/><stop offset="1" stop-color="#ffcd47"/></linearGradient><path d="m3.88525 29.9336h24.27635c-.4667-6.2961-5.7228-11.2593-12.1382-11.2593-6.41531 0-11.67147 4.9632-12.13815 11.2593z" fill="#3fb3ff"/><path d="m3.88525 29.9336h24.27635c-.4667-6.2961-5.7228-11.2593-12.1382-11.2593-6.41531 0-11.67147 4.9632-12.13815 11.2593z" fill="url(#y)"/><path d="m3.88525 29.9336h24.27635c-.4667-6.2961-5.7228-11.2593-12.1382-11.2593-6.41531 0-11.67147 4.9632-12.13815 11.2593z" fill="url(#z)"/><path d="m3.88525 29.9336h24.27635c-.4667-6.2961-5.7228-11.2593-12.1382-11.2593-6.41531 0-11.67147 4.9632-12.13815 11.2593z" fill="url(#A)"/><path d="m3.88525 29.9336h24.27635c-.4667-6.2961-5.7228-11.2593-12.1382-11.2593-6.41531 0-11.67147 4.9632-12.13815 11.2593z" fill="url(#B)"/><g filter="url(#a)"><path d="m12.6693 19.6851.7637 3.7995c.0651.3073.419.4377.6612.2421l.4517-.3637.6017 1.2035c.0394.0789.12.1287.2082.1287h1.021c.0886 0 .1695-.0502.2088-.1297l.5865-1.1875.4375.3487c.2422.1956.5961.0652.6613-.2421l.7636-3.7995z" fill="#2389d6"/></g><path d="m8.07812 29.9337h-4.19287c.24579-3.3162 1.82026-6.2625 4.19287-8.3087z" fill="url(#C)"/><path d="m8.07812 29.9337h-4.19287c.24579-3.3162 1.82026-6.2625 4.19287-8.3087z" fill="url(#D)"/><path d="m23.9688 29.9337h4.1928c-.2458-3.3162-1.8202-6.2625-4.1928-8.3087z" fill="url(#E)"/><path d="m23.9688 29.9337h4.1928c-.2458-3.3162-1.8202-6.2625-4.1928-8.3087z" fill="url(#F)"/><g filter="url(#b)"><path d="m16.7722 24.4692c-.0422.0853-.129.1393-.2242.1393h-1.0964c-.0947 0-.1812-.0535-.2236-.1382l-1.2456-2.4918h4.02z" fill="url(#G)"/><path d="m16.7722 24.4692c-.0422.0853-.129.1393-.2242.1393h-1.0964c-.0947 0-.1812-.0535-.2236-.1382l-1.2456-2.4918h4.02z" fill="url(#H)"/><path d="m16.7722 24.4692c-.0422.0853-.129.1393-.2242.1393h-1.0964c-.0947 0-.1812-.0535-.2236-.1382l-1.2456-2.4918h4.02z" fill="url(#J)"/><path d="m16.7722 24.4692c-.0422.0853-.129.1393-.2242.1393h-1.0964c-.0947 0-.1812-.0535-.2236-.1382l-1.2456-2.4918h4.02z" fill="url(#K)"/></g><path d="m17.6005 29.9335-.9265-5.2014c-.0128-.0716-.075-.1237-.1477-.1237h-1.0774c-.0716 0-.1333.0507-.1471.121l-1.0252 5.2041z" fill="url(#L)"/><path d="m17.6005 29.9335-.9265-5.2014c-.0128-.0716-.075-.1237-.1477-.1237h-1.0774c-.0716 0-.1333.0507-.1471.121l-1.0252 5.2041z" fill="url(#M)"/><path d="m17.6005 29.9335-.9265-5.2014c-.0128-.0716-.075-.1237-.1477-.1237h-1.0774c-.0716 0-.1333.0507-.1471.121l-1.0252 5.2041z" fill="url(#N)"/><g filter="url(#c)"><path d="m16.0469 21.2085v.79l-1.95 1.57c-.26.21-.64.07-.71-.26l-.82-4.08z" fill="#73c0ff"/><path d="m16.0469 21.2085v.79l-1.95 1.57c-.26.21-.64.07-.71-.26l-.82-4.08z" fill="url(#O)"/></g><path d="m16.0469 21.2085v.79l-1.95 1.57c-.26.21-.64.07-.71-.26l-.82-4.08z" fill="url(#P)"/><g filter="url(#d)"><path d="m15.9019 21.2085v.79l1.97 1.57c.26.21.64.07.71-.26l.82-4.08z" fill="#73c0ff"/><path d="m15.9019 21.2085v.79l1.97 1.57c.26.21.64.07.71-.26l.82-4.08z" fill="url(#Q)"/><path d="m15.9019 21.2085v.79l1.97 1.57c.26.21.64.07.71-.26l.82-4.08z" fill="url(#R)"/></g><path d="m15.9019 21.2085v.79l1.97 1.57c.26.21.64.07.71-.26l.82-4.08z" fill="url(#S)"/><g filter="url(#e)"><path d="m13.7628 19.832c.211.5703.8125 1.5821 2.207 2.2227 1.4532-.75 1.9336-1.6524 2.1446-2.2227l-2.1446-.332z" fill="url(#T)"/><path d="m13.7628 19.832c.211.5703.8125 1.5821 2.207 2.2227 1.4532-.75 1.9336-1.6524 2.1446-2.2227l-2.1446-.332z" fill="url(#U)"/></g><path d="m12.1034 10.0686s.77-.59005 1.9-.46005" stroke="#d37034" stroke-linecap="round" stroke-linejoin="round" stroke-miterlimit="10" stroke-width=".6268"/><path d="m19.9435 10.0686s-.77-.59005-1.9-.46005" stroke="#d37034" stroke-linecap="round" stroke-linejoin="round" stroke-miterlimit="10" stroke-width=".6268"/><path d="m9.04297 9.79688c-.15235-.44922-.26172-.89063-.30859-1.11719h1.78902v3.27341h-1.28121v-1.1953c0-.3555-.07347-.5901-.19922-.96092z" fill="url(#V)"/><path d="m22.832 9.83594c.168-.39063.3946-.8086.4805-1.15625h-1.9453v3.27341h1.2812v-1.1953c-.013-.1693.0411-.5904.1836-.92186z" fill="url(#W)"/><path d="m21.5227 14.5419c.3851-.0124.7457-.143 1.0391-.3544v1.0694c0 1.026-.6113 1.94-1.5403 2.3192.1956-.4166.33-.8704.3973-1.3554z" fill="url(#X)"/><path d="m21.5227 14.5419c.3851-.0124.7457-.143 1.0391-.3544v1.0694c0 1.026-.6113 1.94-1.5403 2.3192.1956-.4166.33-.8704.3973-1.3554z" fill="url(#Y)"/><path d="m10.3544 14.5419c-.38508-.0124-.7457-.143-1.03909-.3544v1.0694c0 1.026.61122 1.94 1.54029 2.3192-.1956-.4166-.3301-.8704-.3973-1.3554z" fill="url(#Z)"/><path d="m10.3544 14.5419c-.38508-.0124-.7457-.143-1.03909-.3544v1.0694c0 1.026.61122 1.94 1.54029 2.3192-.1956-.4166-.3301-.8704-.3973-1.3554z" fill="url(#aa)"/><g filter="url(#f)"><path d="m10.3961 16.282c.2956 2.2427 2.2041 3.9124 4.4635 3.9124h2.1671c2.2595 0 4.168-1.6697 4.4635-3.9124.1355-2.1637.2718-4.3188.3723-6.48148-.0122-.88105-.7067-1.60806-1.584-1.64502h-1.6084c-1.0966 0-2.0897-.64693-2.5405-1.65735-.1158-.28958-.396-.48057-.7068-.48057h-1.4621c-2.1202 0-3.8383 1.73744-3.8383 3.88151 0 2.13741.1335 4.24021.2737 6.38291z" fill="url(#ab)"/></g><path d="m10.3961 16.282c.2956 2.2427 2.2041 3.9124 4.4635 3.9124h2.1671c2.2595 0 4.168-1.6697 4.4635-3.9124.1355-2.1637.2718-4.3188.3723-6.48148-.0122-.88105-.7067-1.60806-1.584-1.64502h-1.6084c-1.0966 0-2.0897-.64693-2.5405-1.65735-.1158-.28958-.396-.48057-.7068-.48057h-1.4621c-2.1202 0-3.8383 1.73744-3.8383 3.88151 0 2.13741.1335 4.24021.2737 6.38291z" fill="url(#ac)"/><path d="m10.3961 16.282c.2956 2.2427 2.2041 3.9124 4.4635 3.9124h2.1671c2.2595 0 4.168-1.6697 4.4635-3.9124.1355-2.1637.2718-4.3188.3723-6.48148-.0122-.88105-.7067-1.60806-1.584-1.64502h-1.6084c-1.0966 0-2.0897-.64693-2.5405-1.65735-.1158-.28958-.396-.48057-.7068-.48057h-1.4621c-2.1202 0-3.8383 1.73744-3.8383 3.88151 0 2.13741.1335 4.24021.2737 6.38291z" fill="url(#ad)"/><path d="m10.3961 16.282c.2956 2.2427 2.2041 3.9124 4.4635 3.9124h2.1671c2.2595 0 4.168-1.6697 4.4635-3.9124.1355-2.1637.2718-4.3188.3723-6.48148-.0122-.88105-.7067-1.60806-1.584-1.64502h-1.6084c-1.0966 0-2.0897-.64693-2.5405-1.65735-.1158-.28958-.396-.48057-.7068-.48057h-1.4621c-2.1202 0-3.8383 1.73744-3.8383 3.88151 0 2.13741.1335 4.24021.2737 6.38291z" fill="url(#ae)"/><path d="m10.3961 16.282c.2956 2.2427 2.2041 3.9124 4.4635 3.9124h2.1671c2.2595 0 4.168-1.6697 4.4635-3.9124.1355-2.1637.2718-4.3188.3723-6.48148-.0122-.88105-.7067-1.60806-1.584-1.64502h-1.6084c-1.0966 0-2.0897-.64693-2.5405-1.65735-.1158-.28958-.396-.48057-.7068-.48057h-1.4621c-2.1202 0-3.8383 1.73744-3.8383 3.88151 0 2.13741.1335 4.24021.2737 6.38291z" fill="url(#af)"/><path d="m10.3961 16.282c.2956 2.2427 2.2041 3.9124 4.4635 3.9124h2.1671c2.2595 0 4.168-1.6697 4.4635-3.9124.1355-2.1637.2718-4.3188.3723-6.48148-.0122-.88105-.7067-1.60806-1.584-1.64502h-1.6084c-1.0966 0-2.0897-.64693-2.5405-1.65735-.1158-.28958-.396-.48057-.7068-.48057h-1.4621c-2.1202 0-3.8383 1.73744-3.8383 3.88151 0 2.13741.1335 4.24021.2737 6.38291z" fill="url(#ag)"/><path d="m10.3961 16.282c.2956 2.2427 2.2041 3.9124 4.4635 3.9124h2.1671c2.2595 0 4.168-1.6697 4.4635-3.9124.1355-2.1637.2718-4.3188.3723-6.48148-.0122-.88105-.7067-1.60806-1.584-1.64502h-1.6084c-1.0966 0-2.0897-.64693-2.5405-1.65735-.1158-.28958-.396-.48057-.7068-.48057h-1.4621c-2.1202 0-3.8383 1.73744-3.8383 3.88151 0 2.13741.1335 4.24021.2737 6.38291z" fill="url(#ah)"/><g filter="url(#g)"><path d="m15.3801 12.51-.7294 2.1117c-.1246.4344.1744.8687.598.8687h.9033c.4236 0 .7227-.441.5981-.8687l-.6105-2.1117c-.1308-.4678-.6225-.4678-.7595 0z" fill="#ee9020"/></g><g filter="url(#h)"><path d="m15.4946 12.2849-.6173 2.1117c-.1259.4344.1764.8688.6047.8688h.9132c.4283 0 .7306-.4411.6046-.8688l-.6172-2.1117c-.1323-.4678-.7495-.4678-.888 0z" fill="url(#ai)"/><path d="m15.4946 12.2849-.6173 2.1117c-.1259.4344.1764.8688.6047.8688h.9132c.4283 0 .7306-.4411.6046-.8688l-.6172-2.1117c-.1323-.4678-.7495-.4678-.888 0z" fill="url(#aj)"/><path d="m15.4946 12.2849-.6173 2.1117c-.1259.4344.1764.8688.6047.8688h.9132c.4283 0 .7306-.4411.6046-.8688l-.6172-2.1117c-.1323-.4678-.7495-.4678-.888 0z" fill="url(#ak)"/><path d="m15.4946 12.2849-.6173 2.1117c-.1259.4344.1764.8688.6047.8688h.9132c.4283 0 .7306-.4411.6046-.8688l-.6172-2.1117c-.1323-.4678-.7495-.4678-.888 0z" fill="url(#al)"/></g><g filter="url(#i)"><path d="m15.4946 12.238-.6173 2.1117c-.1259.4344.1764.8688.6047.8688h.9132c.4283 0 .7306-.4411.6046-.8688l-.6172-2.1117c-.1323-.4677-.7495-.4677-.888 0z" fill="url(#am)"/></g><g filter="url(#j)"><path d="m14.3818 15.9895-.0007-.0003c-.1121-.057-.2289-.0214-.2982.0516-.0697.0733-.0977.1921-.0253.2973.3983.6031 1.0917 1.0048 1.881 1.0048.7895 0 1.483-.4019 1.8813-1.0054.0712-.1069.045-.2255-.026-.2992-.0701-.0728-.1869-.1056-.2979-.0491l-.0007.0003c-.4495.2343-.9797.3688-1.5567.3688-.5714 0-1.1074-.1345-1.5568-.3688z" stroke="url(#an)" stroke-width=".15"/></g><path d="m15.9386 16.4333c-.583 0-1.131-.1372-1.5915-.3773-.1574-.08-.3264.0972-.2273.2401.3847.5831 1.0551.9718 1.8188.9718.7636 0 1.434-.3887 1.8187-.9718.0991-.1486-.0699-.3201-.2273-.2401-.4605.2401-1.0027.3773-1.5914.3773z" fill="url(#ao)"/><path d="m18.6851 11.1934c.7503 0 1.384.5172 1.5564 1.2162.0513.2003-.1025.3914-.3075.3914h-2.5629c-.1631 0-.2936-.1491-.261-.3122.1445-.7363.7922-1.2954 1.575-1.2954z" fill="#fff"/><path d="m18.4473 11.5059c.5685 0 1.0251.4613 1.0251 1.0251 0 .0932-.0139.1864-.0372.2703h-1.9804c-.0233-.0886-.0373-.1771-.0373-.2703 0-.5638.4613-1.0251 1.0298-1.0251z" fill="url(#aq)"/><path d="m17.8602 12.531c0-.3262.261-.5872.5872-.5872.3261 0 .5871.261.5871.5872 0 .0978-.0233.191-.0652.2702h-1.0392c-.0466-.0792-.0699-.1724-.0699-.2702z" fill="#000"/><g filter="url(#k)"><path d="m18.3719 11.7225c.0731.0977-.0796.2168-.2532.3466s-.3023.2211-.3754.1234c-.073-.0977.0085-.2821.1821-.4119s.3735-.1558.4465-.0581z" fill="#c7a7a3"/><path d="m18.3719 11.7225c.0731.0977-.0796.2168-.2532.3466s-.3023.2211-.3754.1234c-.073-.0977.0085-.2821.1821-.4119s.3735-.1558.4465-.0581z" fill="url(#as)"/></g><g filter="url(#l)"><path d="m19.3604 12.3958c-.0378-.2651-.1929-.4648-.2657-.5315l-.2986.3276.1347.2621z" fill="url(#au)"/></g><path d="m13.1921 11.1934c-.7502 0-1.384.5172-1.5564 1.2162-.0513.2004.1025.3915.3075.3915h2.563c.1631 0 .2936-.1492.261-.3123-.1445-.7362-.7969-1.2954-1.5751-1.2954z" fill="#fff"/><path d="m13.4297 11.5059c-.5685 0-1.0252.4613-1.0252 1.0252 0 .0932.014.1864.0373.2702h1.9805c.0233-.0885.0373-.177.0373-.2702-.0047-.5639-.4613-1.0252-1.0299-1.0252z" fill="url(#av)"/><path d="m14.0169 12.531c0-.3262-.261-.5872-.5872-.5872s-.5872.261-.5872.5872c0 .0979.0233.1911.0653.2703h1.0392c.0419-.0792.0699-.1724.0699-.2703z" fill="#000"/><g filter="url(#m)"><path d="m14.3664 12.4104c0-.3313-.2694-.5522-.3422-.6189l-.3313.3204.2038.415z" fill="url(#aw)"/></g><g filter="url(#n)"><ellipse cx="13.1204" cy="11.9438" fill="#c7a7a3" fill-opacity=".9" rx=".447556" ry=".226505" transform="matrix(.88365127 -.46814574 .46814574 .88365127 -4.064897 7.531905)"/><ellipse cx="13.1204" cy="11.9438" fill="url(#ax)" rx=".447556" ry=".226505" transform="matrix(.88365127 -.46814574 .46814574 .88365127 -4.064897 7.531905)"/></g><path d="m21.5922 14.6463c.0755-1.2224.1484-2.4434.212-3.6658.8679.1518 1.5276.9092 1.5276 1.8206 0 .9843-.7694 1.7889-1.7396 1.8452z" fill="url(#ay)"/><path d="m21.5922 14.6463c.0755-1.2224.1484-2.4434.212-3.6658.8679.1518 1.5276.9092 1.5276 1.8206 0 .9843-.7694 1.7889-1.7396 1.8452z" fill="url(#az)"/><path d="m21.5922 14.6463c.0755-1.2224.1484-2.4434.212-3.6658.8679.1518 1.5276.9092 1.5276 1.8206 0 .9843-.7694 1.7889-1.7396 1.8452z" fill="url(#aA)"/><path d="m10.1331 10.9712c-.8975.1265-1.58793.8977-1.58793 1.8301 0 .9868.77331 1.793 1.74703 1.8456-.0742-1.2274-.1353-2.4479-.1591-3.6757z" fill="url(#aB)"/><path d="m10.1331 10.9712c-.8975.1265-1.58793.8977-1.58793 1.8301 0 .9868.77331 1.793 1.74703 1.8456-.0742-1.2274-.1353-2.4479-.1591-3.6757z" fill="url(#aC)"/><g filter="url(#o)"><path d="m10.1525 11.7305c-.49014.1098-.85636.5476-.85636 1.0708 0 .5569.41473 1.0169.95216 1.088-.0398-.72-.0734-1.4387-.0958-2.1588z" fill="#dd8224"/></g><g filter="url(#p)"><path d="m21.6382 13.8983c.0442-.7289.0871-1.4575.127-2.1864.5414.0676.9603.5293.9603 1.089 0 .6027-.4859 1.0919-1.0873 1.0974z" fill="#ffc837"/></g><g filter="url(#q)"><path d="m8.82032 4.26566c-.62507.25781-1.35625 1.025-.96875 2.375s.52603 1.80208.54687 1.85937c.04036.16667.22343.5.63281.5h.39062c.05078.00261.18203-.02031.30078-.13281.14226-.13477 2.25405-1.59692 5.82665-1.71852 3.6454.1216 6.6327 1.58375 6.7749 1.71852.1188.1125.25.13542.3008.13281h.3906c.4094 0 .5925-.33333.6328-.5.0209-.05729.1594-.50937.5469-1.85937s-.3437-2.11719-.9687-2.375l-5.2094-1.85283c-1.3045-.46398-2.7294-.4625-4.033.00416z" fill="url(#aD)"/><path d="m8.82032 4.26566c-.62507.25781-1.35625 1.025-.96875 2.375s.52603 1.80208.54687 1.85937c.04036.16667.22343.5.63281.5h.39062c.05078.00261.18203-.02031.30078-.13281.14226-.13477 2.25405-1.59692 5.82665-1.71852 3.6454.1216 6.6327 1.58375 6.7749 1.71852.1188.1125.25.13542.3008.13281h.3906c.4094 0 .5925-.33333.6328-.5.0209-.05729.1594-.50937.5469-1.85937s-.3437-2.11719-.9687-2.375l-5.2094-1.85283c-1.3045-.46398-2.7294-.4625-4.033.00416z" fill="url(#aE)"/></g><path d="m8.82032 4.26566c-.62507.25781-1.35625 1.025-.96875 2.375s.52603 1.80208.54687 1.85937c.04036.16667.22343.5.63281.5h.39062c.05078.00261.18203-.02031.30078-.13281.14226-.13477 2.25405-1.59692 5.82665-1.71852 3.6454.1216 6.6327 1.58375 6.7749 1.71852.1188.1125.25.13542.3008.13281h.3906c.4094 0 .5925-.33333.6328-.5.0209-.05729.1594-.50937.5469-1.85937s-.3437-2.11719-.9687-2.375l-5.2094-1.85283c-1.3045-.46398-2.7294-.4625-4.033.00416z" fill="url(#aF)"/><g filter="url(#r)"><path d="m14.7628 3.79933v.92208c0 .65544.5314 1.18678 1.1868 1.18678s1.1868-.53134 1.1868-1.18678v-.92342c0-.15779-.1742-.25344-.3074-.16876l-.2524.16054c-.0445.02828-.1032.01721-.1344-.0253l-.2943-.40192c-.1001-.13667-.3042-.13634-.4039.00066l-.2913.4006c-.0311.04281-.0902.05394-.1348.0254l-.2472-.15831c-.1332-.08524-.3079.01036-.3079.16843z" fill="#297ecb"/></g><g filter="url(#s)"><path d="m14.8167 3.75636v.92208c0 .65544.5313 1.18678 1.1867 1.18678.6555 0 1.1868-.53134 1.1868-1.18678v-.92342c0-.15779-.1742-.25344-.3073-.16876l-.2525.16055c-.0444.02827-.1032.0172-.1343-.02531l-.2943-.40192c-.1001-.13667-.3043-.13634-.4039.00066l-.2914.4006c-.0311.04281-.0902.05394-.1348.0254l-.2472-.15831c-.1331-.08524-.3078.01036-.3078.16843z" fill="url(#aH)"/></g><g filter="url(#t)"><path d="m9.46509 8.70312c.39619.84376 1.51571 2.46098 3.96971 2.46098h5.1152c2.4541 0 3.5736-1.61722 3.9698-2.46098-2.2532-1.04999-5.2904-1.42187-6.5274-1.47656-1.2369.05469-4.2741.42657-6.52731 1.47656z" fill="url(#aI)"/><path d="m9.46509 8.70312c.39619.84376 1.51571 2.46098 3.96971 2.46098h5.1152c2.4541 0 3.5736-1.61722 3.9698-2.46098-2.2532-1.04999-5.2904-1.42187-6.5274-1.47656-1.2369.05469-4.2741.42657-6.52731 1.47656z" fill="url(#aJ)"/></g><g filter="url(#u)"><path clip-rule="evenodd" d="m21.605 8.63581c-4.6862-1.71717-9.2567-.76893-10.9428-.072-.3663.15137-.78583-.0228-.93719-.389-.15137-.36621.02279-.78578.38899-.93715 1.9302-.79782 6.8808-1.81946 11.9847.05079.3721.13633.5632.54847.4269.92053-.1364.37207-.5485.56316-.9206.42683z" fill="#247dbd" fill-rule="evenodd"/></g><g filter="url(#v)"><path clip-rule="evenodd" d="m21.9431 8.96222c-5.0618-1.85482-9.9988-.76426-11.8201-.01145-.39556.16349-.84877-.02463-1.01227-.42019s.02463-.84877.42019-1.01227c2.08498-.86178 7.43238-2.03164 12.94548-.01146.4019.14727.6083.59244.4611.99433-.1473.40189-.5925.60831-.9944.46104z" fill="url(#aK)" fill-rule="evenodd"/></g><path clip-rule="evenodd" d="m21.9431 8.96222c-5.0618-1.85482-9.9988-.76426-11.8201-.01145-.39556.16349-.84877-.02463-1.01227-.42019s.02463-.84877.42019-1.01227c2.08498-.86178 7.43238-2.03164 12.94548-.01146.4019.14727.6083.59244.4611.99433-.1473.40189-.5925.60831-.9944.46104z" fill="url(#aL)" fill-rule="evenodd"/><path clip-rule="evenodd" d="m21.9431 8.96222c-5.0618-1.85482-9.9988-.76426-11.8201-.01145-.39556.16349-.84877-.02463-1.01227-.42019s.02463-.84877.42019-1.01227c2.08498-.86178 7.43238-2.03164 12.94548-.01146.4019.14727.6083.59244.4611.99433-.1473.40189-.5925.60831-.9944.46104z" fill="url(#aM)" fill-rule="evenodd"/><g filter="url(#w)"><path d="m18.8528 24.9297c0-.2762.2238-.5.5-.5h1.8125c.2761 0 .5.2238.5.5v1.7265c0 .7767-.6296 1.4063-1.4063 1.4063-.7766 0-1.4062-.6296-1.4062-1.4063z" fill="url(#aN)"/></g><g filter="url(#x)"><rect fill="url(#aO)" height="1.23438" rx=".15" width="4.15625" x="8.96216" y="25.9766"/></g></svg>