<svg fill="none" height="32" viewBox="0 0 32 32" width="32" xmlns="http://www.w3.org/2000/svg" xmlns:xlink="http://www.w3.org/1999/xlink"><filter id="a" color-interpolation-filters="sRGB" filterUnits="userSpaceOnUse" height="28.875" width="28.875" x="2.0658" y=".8125"><feFlood flood-opacity="0" result="BackgroundImageFix"/><feBlend in="SourceGraphic" in2="BackgroundImageFix" mode="normal" result="shape"/><feColorMatrix in="SourceAlpha" result="hardAlpha" type="matrix" values="0 0 0 0 0 0 0 0 0 0 0 0 0 0 0 0 0 0 127 0"/><feOffset dx="1" dy="-1"/><feGaussianBlur stdDeviation="1.5"/><feComposite in2="hardAlpha" k2="-1" k3="1" operator="arithmetic"/><feColorMatrix type="matrix" values="0 0 0 0 0.188235 0 0 0 0 0.470588 0 0 0 0 0.843137 0 0 0 1 0"/><feBlend in2="shape" mode="normal" result="effect1_innerShadow_18590_834"/><feColorMatrix in="SourceAlpha" result="hardAlpha" type="matrix" values="0 0 0 0 0 0 0 0 0 0 0 0 0 0 0 0 0 0 127 0"/><feOffset dy="-1"/><feGaussianBlur stdDeviation="1.5"/><feComposite in2="hardAlpha" k2="-1" k3="1" operator="arithmetic"/><feColorMatrix type="matrix" values="0 0 0 0 0.27451 0 0 0 0 0.34902 0 0 0 0 0.8 0 0 0 1 0"/><feBlend in2="effect1_innerShadow_18590_834" mode="normal" result="effect2_innerShadow_18590_834"/></filter><filter id="b" color-interpolation-filters="sRGB" filterUnits="userSpaceOnUse" height="28.375" width="5.5" x="25.5033" y="1.5625"><feFlood flood-opacity="0" result="BackgroundImageFix"/><feBlend in="SourceGraphic" in2="BackgroundImageFix" mode="normal" result="shape"/><feGaussianBlur result="effect1_foregroundBlur_18590_834" stdDeviation="1"/></filter><filter id="c" color-interpolation-filters="sRGB" filterUnits="userSpaceOnUse" height="5.5" width="27.2812" x="2.77966" y=".875"><feFlood flood-opacity="0" result="BackgroundImageFix"/><feBlend in="SourceGraphic" in2="BackgroundImageFix" mode="normal" result="shape"/><feGaussianBlur result="effect1_foregroundBlur_18590_834" stdDeviation="1"/></filter><filter id="d" color-interpolation-filters="sRGB" filterUnits="userSpaceOnUse" height="20.4116" width="21.7289" x="5.13525" y="6.25"><feFlood flood-opacity="0" result="BackgroundImageFix"/><feBlend in="SourceGraphic" in2="BackgroundImageFix" mode="normal" result="shape"/><feGaussianBlur result="effect1_foregroundBlur_18590_834" stdDeviation=".5"/></filter><filter id="e" color-interpolation-filters="sRGB" filterUnits="userSpaceOnUse" height="19.4116" width="20.7289" x="5.53525" y="6.85"><feFlood flood-opacity="0" result="BackgroundImageFix"/><feBlend in="SourceGraphic" in2="BackgroundImageFix" mode="normal" result="shape"/><feColorMatrix in="SourceAlpha" result="hardAlpha" type="matrix" values="0 0 0 0 0 0 0 0 0 0 0 0 0 0 0 0 0 0 127 0"/><feOffset dx="-.6" dy=".6"/><feGaussianBlur stdDeviation=".5"/><feComposite in2="hardAlpha" k2="-1" k3="1" operator="arithmetic"/><feColorMatrix type="matrix" values="0 0 0 0 0.866667 0 0 0 0 0.819608 0 0 0 0 0.941176 0 0 0 1 0"/><feBlend in2="shape" mode="normal" result="effect1_innerShadow_18590_834"/><feColorMatrix in="SourceAlpha" result="hardAlpha" type="matrix" values="0 0 0 0 0 0 0 0 0 0 0 0 0 0 0 0 0 0 127 0"/><feOffset dx=".4" dy="-.4"/><feGaussianBlur stdDeviation=".5"/><feComposite in2="hardAlpha" k2="-1" k3="1" operator="arithmetic"/><feColorMatrix type="matrix" values="0 0 0 0 1 0 0 0 0 0.988235 0 0 0 0 1 0 0 0 1 0"/><feBlend in2="effect1_innerShadow_18590_834" mode="normal" result="effect2_innerShadow_18590_834"/></filter><linearGradient id="f" gradientUnits="userSpaceOnUse" x1="16.0033" x2="16.0033" y1="5.38701" y2="38.6397"><stop offset="0" stop-color="#5cb7ff"/><stop offset="1" stop-color="#4878dd"/></linearGradient><radialGradient id="g" cx="0" cy="0" gradientTransform="matrix(-1.56248628 1.46876123 -1.71548166 -1.82495051 27.722 3.90625)" gradientUnits="userSpaceOnUse" r="1"><stop offset="0" stop-color="#7bd7ff"/><stop offset="1" stop-color="#7bd7ff" stop-opacity="0"/></radialGradient><linearGradient id="h" gradientUnits="userSpaceOnUse" x1="28.7533" x2="28.7533" y1="4.3125" y2="27.1875"><stop offset="0" stop-color="#7fd9ff"/><stop offset="1" stop-color="#639df4"/></linearGradient><linearGradient id="i" gradientUnits="userSpaceOnUse" x1="28.4672" x2="2.93591" y1="3.87502" y2="3.87502"><stop offset="0" stop-color="#7dd8ff"/><stop offset="1" stop-color="#5db6ff"/></linearGradient><g filter="url(#a)"><rect fill="url(#f)" height="27.875" rx="3.6" width="27.875" x="2.0658" y="1.8125"/><rect fill="url(#g)" height="27.875" rx="3.6" width="27.875" x="2.0658" y="1.8125"/></g><g filter="url(#b)"><path d="m28.2533 4.3125v22.875" stroke="url(#h)" stroke-linecap="round" stroke-width="1.5"/></g><g filter="url(#c)"><path d="m5.52966 3.625h21.78124" stroke="url(#i)" stroke-linecap="round" stroke-width="1.5"/></g><g filter="url(#d)"><path d="m18.8675 7.25001c3.8644.00189 6.9967 3.35899 6.9967 7.49999 0 4.1421-3.134 7.5-7 7.5h-6.75c-.138 0-.25.1119-.25.25v2.4101c0 .6826-.8377 1.0103-1.3009.5089l-4.22896-4.578c-.26545-.2874-.26545-.7305 0-1.0178l4.22896-4.578c.4632-.5014 1.3009-.1737 1.3009.5089v2.2459c0 .1381.112.25.25.25h6.75c1.4014 0 3-1.3026 3-3.5s-1.5986-3.5-3-3.5h-6c-.5523 0-1-.4477-1-1v-2c0-.55228.4477-1 1-1h6z" fill="#579fff"/></g><g filter="url(#e)"><path d="m18.8675 7.25001c3.8644.00189 6.9967 3.35899 6.9967 7.49999 0 4.1421-3.134 7.5-7 7.5h-6.75c-.138 0-.25.1119-.25.25v2.4101c0 .6826-.8377 1.0103-1.3009.5089l-4.22896-4.578c-.26545-.2874-.26545-.7305 0-1.0178l4.22896-4.578c.4632-.5014 1.3009-.1737 1.3009.5089v2.2459c0 .1381.112.25.25.25h6.75c1.4014 0 3-1.3026 3-3.5s-1.5986-3.5-3-3.5h-6c-.5523 0-1-.4477-1-1v-2c0-.55228.4477-1 1-1h6z" fill="#fcf2ff"/></g></svg>