<svg enable-background="new 0 0 128 128" viewBox="0 0 32 32" xmlns="http://www.w3.org/2000/svg"><path d="m30.3562 26.4524-2.6467-11.8652c-.947-4.92786-5.3702-8.60803-10.6228-8.37614-1.5922.06849-3.0174.84844-4.2209 1.94094-1.2055 1.09422-2.2515 2.5562-3.10822 4.1348-1.70423 3.1402-2.76735 6.9459-2.76735 9.7132v5.2001c0 2.0446 1.62851 3.7851 3.72137 3.8 1.0559.0107 2.0032-.4207 2.6881-1.1076.6763.6788 1.6126 1.1076 2.6605 1.1076 1.0385 0 1.9803-.4279 2.6596-1.1075.6763.6787 1.6125 1.1075 2.6604 1.1075 1.0385 0 1.9803-.4279 2.6596-1.1075.6763.6787 1.6125 1.1075 2.6604 1.1075 2.0723 0 3.75-1.6777 3.75-3.75v-.025l-.0012-.0249c-.0114-.2273-.0356-.4904-.0928-.7478z" fill="#9b9b9b"/><path d="m9.3001 16.6601.78.39c.63.31 1.03.96 1.03 1.67v.92 1.3599h-3.29l-4.7831-1.3482c-.06719-.2041-.0695-.4225.0131-.6317l.29-.72c.83-2.06 2.69-3.49 4.85-3.79.45-.06.84.28.84.73v.99c0 .18.11.35.27.43z" fill="#f9c23c"/><path d="m3.34014 20.1099c.96.97 2.84 1.89 4.48 1.89h3.28996v-1.26l-.51-1.1h-7.56494c.05.17.16498.33.30498.47z" fill="#ffb02e"/><path d="m20.7199 11.86v-.44c-1.46-.11-2.73-.89-3.53-2.02-.61.75-1.5 1.28-2.51 1.41.03.2.05.41.05.62 0 2.2-1.83 3.97-4.05 3.87-1.98-.09-3.59-1.71-3.68-3.69-.08-1.83 1.11-3.4 2.76-3.89.33-.1.55-.4.55-.74v-.01c0-2.14 1.73-3.87 3.87-3.87.56 0 1.09.12 1.57.33.76.34 1.66.21 2.3-.33.81-.68 1.86-1.09 3-1.1h.14c3.45.08 5.08 4.31 2.64 6.75z" fill="#f8312f"/><path d="m8.99988 23.5-1.00997 1.9c0 .88-.71 1.6-1.6 1.6-1.14 0-1.91-1.16-1.48-2.22l.77-1.84c.24-.57.79-.94 1.41-.94h.9z" fill="#f8312f"/><path d="m29.3802 26.6701-2.65-11.88c-.85-4.46-4.85-7.79001-9.6-7.58001-5.13.22-9.13997 4.52001-9.13997 9.65001v10.34c0 1.52 1.21 2.79 2.72997 2.8.94.01 1.77-.46 2.28-1.18.2-.28.61-.28.8 0 .5.71 1.32 1.18 2.26 1.18.93 0 1.76-.47 2.26-1.18.2-.28.61-.28.8 0 .5.71 1.32 1.18 2.26 1.18.93 0 1.76-.47 2.26-1.18.2-.28.61-.28.8 0 .5.71 1.32 1.18 2.26 1.18 1.52 0 2.75-1.23 2.75-2.75-.01-.2-.03-.4-.07-.58z" fill="#fff"/><path d="m13.5 18c.8284 0 1.5-.6716 1.5-1.5s-.6716-1.5-1.5-1.5-1.5.6716-1.5 1.5.6716 1.5 1.5 1.5z" fill="#212121"/></svg>