<svg fill="none" height="32" viewBox="0 0 32 32" width="32" xmlns="http://www.w3.org/2000/svg" xmlns:xlink="http://www.w3.org/1999/xlink"><filter id="a" color-interpolation-filters="sRGB" filterUnits="userSpaceOnUse" height="22.6562" width="28.8113" x="2.0943" y="6.34375"><feFlood flood-opacity="0" result="BackgroundImageFix"/><feBlend in="SourceGraphic" in2="BackgroundImageFix" mode="normal" result="shape"/><feColorMatrix in="SourceAlpha" result="hardAlpha" type="matrix" values="0 0 0 0 0 0 0 0 0 0 0 0 0 0 0 0 0 0 127 0"/><feOffset dx="1" dy="-1.5"/><feGaussianBlur stdDeviation="1.5"/><feComposite in2="hardAlpha" k2="-1" k3="1" operator="arithmetic"/><feColorMatrix type="matrix" values="0 0 0 0 0.839216 0 0 0 0 0.541176 0 0 0 0 0.294118 0 0 0 1 0"/><feBlend in2="shape" mode="normal" result="effect1_innerShadow_20020_4291"/></filter><filter id="b" color-interpolation-filters="sRGB" filterUnits="userSpaceOnUse" height="10.7188" width="15.7812" x="5.54626" y="17.6875"><feFlood flood-opacity="0" result="BackgroundImageFix"/><feBlend in="SourceGraphic" in2="BackgroundImageFix" mode="normal" result="shape"/><feGaussianBlur result="effect1_foregroundBlur_20020_4291" stdDeviation=".5"/></filter><filter id="c" color-interpolation-filters="sRGB" filterUnits="userSpaceOnUse" height="7.65662" width="6.85138" x="9.69861" y="2.51733"><feFlood flood-opacity="0" result="BackgroundImageFix"/><feBlend in="SourceGraphic" in2="BackgroundImageFix" mode="normal" result="shape"/><feGaussianBlur result="effect1_foregroundBlur_20020_4291" stdDeviation=".5"/></filter><filter id="d" color-interpolation-filters="sRGB" filterUnits="userSpaceOnUse" height="2.5022" width="2.39062" x="8.90564" y="4.93347"><feFlood flood-opacity="0" result="BackgroundImageFix"/><feBlend in="SourceGraphic" in2="BackgroundImageFix" mode="normal" result="shape"/><feGaussianBlur result="effect1_foregroundBlur_20020_4291" stdDeviation=".25"/></filter><linearGradient id="e" gradientUnits="userSpaceOnUse" x1="16" x2="16" y1="29.9687" y2="27.0313"><stop offset="0" stop-color="#d27a7f"/><stop offset="1" stop-color="#d27a7f" stop-opacity="0"/></linearGradient><radialGradient id="f" cx="0" cy="0" gradientTransform="matrix(1.09435955 7.34374742 -3.76674609 .56131758 10.4056 15.6562)" gradientUnits="userSpaceOnUse" r="1"><stop offset=".021235" stop-color="#ffea5e"/><stop offset="1" stop-color="#ffea5e" stop-opacity="0"/></radialGradient><radialGradient id="g" cx="0" cy="0" gradientTransform="matrix(0 -2.0625 .859375 0 13.4681 17.4531)" gradientUnits="userSpaceOnUse" r="1"><stop offset="0" stop-color="#e49b48"/><stop offset="1" stop-color="#e49b48" stop-opacity="0"/></radialGradient><radialGradient id="h" cx="0" cy="0" gradientTransform="matrix(-.87441225 1.2313276 -2.24067347 -1.59118689 9.80434 10.6242)" gradientUnits="userSpaceOnUse" r="1"><stop offset=".210581" stop-color="#d4934e"/><stop offset="1" stop-color="#d4934e" stop-opacity="0"/></radialGradient><radialGradient id="i" cx="0" cy="0" gradientTransform="matrix(-7.25004413 5.87495181 -5.87495181 -7.25004413 26.6556 18.3438)" gradientUnits="userSpaceOnUse" r="1"><stop offset="0" stop-color="#ffed59"/><stop offset="1" stop-color="#ffed59" stop-opacity="0"/></radialGradient><linearGradient id="j" gradientUnits="userSpaceOnUse" x1="8.40564" x2="16.8431" y1="8.78121" y2="6.78121"><stop offset="0" stop-color="#e9a73e"/><stop offset="1" stop-color="#ffcc30"/></linearGradient><radialGradient id="k" cx="0" cy="0" gradientTransform="matrix(6.12188849 -3.56249496 6.34951981 10.91118801 10.0931 8.87496)" gradientUnits="userSpaceOnUse" r="1"><stop offset=".560064" stop-color="#ffdd47" stop-opacity="0"/><stop offset="1" stop-color="#ffdd47"/></radialGradient><radialGradient id="l" cx="0" cy="0" gradientTransform="matrix(-2.96747557 -4.61611319 6.55291472 -4.21255146 11.464 7.54682)" gradientUnits="userSpaceOnUse" r="1"><stop offset=".742479" stop-color="#d0a659" stop-opacity="0"/><stop offset=".961492" stop-color="#d0a659"/></radialGradient><linearGradient id="m" gradientUnits="userSpaceOnUse" x1="13.4213" x2="13.4213" y1="18.6875" y2="26.1489"><stop offset="0" stop-color="#ffca40"/><stop offset="1" stop-color="#ffca40" stop-opacity="0"/></linearGradient><radialGradient id="n" cx="0" cy="0" gradientTransform="matrix(1.8125013 1.21874947 -2.41976579 3.59863019 10.7181 20.1563)" gradientUnits="userSpaceOnUse" r="1"><stop offset="0" stop-color="#ffe060"/><stop offset="1" stop-color="#ffe060" stop-opacity="0"/></radialGradient><radialGradient id="o" cx="0" cy="0" gradientTransform="matrix(-1.34375056 .99999647 -5.92097059 -7.95633567 16.6869 21.5312)" gradientUnits="userSpaceOnUse" r="1"><stop offset=".374869" stop-color="#f99d45"/><stop offset="1" stop-color="#f99d45" stop-opacity="0"/></radialGradient><linearGradient id="p" gradientUnits="userSpaceOnUse" x1="14.812" x2="11.0035" y1="6.71666" y2="5.04028"><stop offset="0" stop-color="#ffed67"/><stop offset="1" stop-color="#ffed67" stop-opacity="0"/></linearGradient><linearGradient id="q" gradientUnits="userSpaceOnUse" x1="8.68689" x2="14.4369" y1="9.40625" y2="9.40625"><stop offset="0" stop-color="#e9a73e"/><stop offset="1" stop-color="#ffc524"/></linearGradient><radialGradient id="r" cx="0" cy="0" gradientTransform="matrix(-1.18749513 1.09375689 -.95458226 -1.03639282 13.8431 8.6875)" gradientUnits="userSpaceOnUse" r="1"><stop offset="0" stop-color="#ffeb64"/><stop offset="1" stop-color="#ffeb64" stop-opacity="0"/></radialGradient><linearGradient id="s" gradientUnits="userSpaceOnUse" x1="10.7377" x2="10.7377" y1="11.6236" y2="8.62555"><stop offset="0" stop-color="#f0960f"/><stop offset="1" stop-color="#f0960f" stop-opacity="0"/></linearGradient><radialGradient id="t" cx="0" cy="0" gradientTransform="matrix(0 -1.21213 1.47114 0 11.4922 7.08081)" gradientUnits="userSpaceOnUse" r="1"><stop offset="0" stop-color="#a55812"/><stop offset="1" stop-color="#f29b05" stop-opacity="0"/></radialGradient><linearGradient id="u" gradientUnits="userSpaceOnUse" x1="10.39" x2="9.85631" y1="5.90619" y2="7.13686"><stop offset="0" stop-color="#ffd863"/><stop offset="1" stop-color="#ffd863" stop-opacity="0"/></linearGradient><g filter="url(#a)"><path d="m7.96785 7.84375h-1.64063l-3.74969 11.18745c-1.734376 5.9063 1.39905 9.9688 6.21924 9.9688h12.82733c4.5837-.0584 8.2816-3.793 8.2816-8.3906 0-4.634-3.7566-8.3906-8.3907-8.3906-3.6406 0-6.7396 2.3186-7.901 5.5597-.0339.0946-.1229.159-.2234.159-.087 0-.1668-.0483-.2071-.1254z" fill="#ffb336"/></g><path d="m7.96785 7.84375h-1.64063l-3.74969 11.18745c-1.734376 5.9063 1.39905 9.9688 6.21924 9.9688h12.82733c4.5837-.0584 8.2816-3.793 8.2816-8.3906 0-4.634-3.7566-8.3906-8.3907-8.3906-3.6406 0-6.7396 2.3186-7.901 5.5597-.0339.0946-.1229.159-.2234.159-.087 0-.1668-.0483-.2071-.1254z" fill="url(#e)"/><path d="m7.96785 7.84375h-1.64063l-3.74969 11.18745c-1.734376 5.9063 1.39905 9.9688 6.21924 9.9688h12.82733c4.5837-.0584 8.2816-3.793 8.2816-8.3906 0-4.634-3.7566-8.3906-8.3907-8.3906-3.6406 0-6.7396 2.3186-7.901 5.5597-.0339.0946-.1229.159-.2234.159-.087 0-.1668-.0483-.2071-.1254z" fill="url(#f)"/><path d="m7.96785 7.84375h-1.64063l-3.74969 11.18745c-1.734376 5.9063 1.39905 9.9688 6.21924 9.9688h12.82733c4.5837-.0584 8.2816-3.793 8.2816-8.3906 0-4.634-3.7566-8.3906-8.3907-8.3906-3.6406 0-6.7396 2.3186-7.901 5.5597-.0339.0946-.1229.159-.2234.159-.087 0-.1668-.0483-.2071-.1254z" fill="url(#g)"/><path d="m7.96785 7.84375h-1.64063l-3.74969 11.18745c-1.734376 5.9063 1.39905 9.9688 6.21924 9.9688h12.82733c4.5837-.0584 8.2816-3.793 8.2816-8.3906 0-4.634-3.7566-8.3906-8.3907-8.3906-3.6406 0-6.7396 2.3186-7.901 5.5597-.0339.0946-.1229.159-.2234.159-.087 0-.1668-.0483-.2071-.1254z" fill="url(#h)"/><circle cx="21.515" cy="20.6094" fill="url(#i)" r="8.39062"/><path d="m7.3197 5.03903-1.02344 2.89453.49857.96233c.34578.68656 1.04891 1.11971 1.81763 1.11971h4.94064c1.0163 0 1.9314-.61521 2.3151-1.5563l.0871-.21368c.7128-1.74854-.0899-3.74727-1.8141-4.5171l-1.7746-.75199c-2.1719-.80469-4.28218.0473-5.0469 2.0625z" fill="url(#j)"/><path d="m7.3197 5.03903-1.02344 2.89453.49857.96233c.34578.68656 1.04891 1.11971 1.81763 1.11971h4.94064c1.0163 0 1.9314-.61521 2.3151-1.5563l.0871-.21368c.7128-1.74854-.0899-3.74727-1.8141-4.5171l-1.7746-.75199c-2.1719-.80469-4.28218.0473-5.0469 2.0625z" fill="url(#k)"/><path d="m7.3197 5.03903-1.02344 2.89453.49857.96233c.34578.68656 1.04891 1.11971 1.81763 1.11971h4.94064c1.0163 0 1.9314-.61521 2.3151-1.5563l.0871-.21368c.7128-1.74854-.0899-3.74727-1.8141-4.5171l-1.7746-.75199c-2.1719-.80469-4.28218.0473-5.0469 2.0625z" fill="url(#l)"/><g filter="url(#b)"><path d="m13.1713 18.6875-6.62504 8.7187h13.78124l-6.5312-8.7187z" fill="url(#m)"/><path d="m13.1713 18.6875-6.62504 8.7187h13.78124l-6.5312-8.7187z" fill="url(#n)"/><path d="m13.1713 18.6875-6.62504 8.7187h13.78124l-6.5312-8.7187z" fill="url(#o)"/></g><g filter="url(#c)"><path d="m11.4488 4.26758 2.3836.98437c.4016.14843.9089.67969.9636 1.46094.0576.82191-.5239 1.48393-.8906 1.71094" stroke="url(#p)" stroke-linecap="round" stroke-width="1.5"/></g><rect fill="url(#q)" height="4.07031" rx="2.03516" width="8.91406" x="6.28064" y="6.89844"/><rect fill="url(#r)" height="4.07031" rx="2.03516" width="8.91406" x="6.28064" y="6.89844"/><rect fill="url(#s)" height="4.07031" rx="2.03516" width="8.91406" x="6.28064" y="6.89844"/><path d="m10.6531 5.00879-.6527 1.92051h3.7503z" fill="url(#t)"/><g filter="url(#d)"><path d="m9.40564 5.43347 1.39066.89097v.61125h-1.39066z" fill="url(#u)"/></g></svg>