<svg fill="none" height="32" viewBox="0 0 32 32" width="32" xmlns="http://www.w3.org/2000/svg" xmlns:xlink="http://www.w3.org/1999/xlink"><filter id="a" color-interpolation-filters="sRGB" filterUnits="userSpaceOnUse" height="25.5494" width="27.6747" x="2.53766" y="3.46619"><feFlood flood-opacity="0" result="BackgroundImageFix"/><feBlend in="SourceGraphic" in2="BackgroundImageFix" mode="normal" result="shape"/><feColorMatrix in="SourceAlpha" result="hardAlpha" type="matrix" values="0 0 0 0 0 0 0 0 0 0 0 0 0 0 0 0 0 0 127 0"/><feOffset dx=".75" dy="-.5"/><feGaussianBlur stdDeviation="1.5"/><feComposite in2="hardAlpha" k2="-1" k3="1" operator="arithmetic"/><feColorMatrix type="matrix" values="0 0 0 0 0.717647 0 0 0 0 0.443137 0 0 0 0 0.572549 0 0 0 1 0"/><feBlend in2="shape" mode="normal" result="effect1_innerShadow_20020_2003"/></filter><filter id="b" color-interpolation-filters="sRGB" filterUnits="userSpaceOnUse" height="12.2603" width="16.0912" x="1.90881" y="6.95312"><feFlood flood-opacity="0" result="BackgroundImageFix"/><feBlend in="SourceGraphic" in2="BackgroundImageFix" mode="normal" result="shape"/><feGaussianBlur result="effect1_foregroundBlur_20020_2003" stdDeviation="1"/></filter><filter id="c" color-interpolation-filters="sRGB" filterUnits="userSpaceOnUse" height="8.3125" width="2.26562" x="6.2486" y="7.28125"><feFlood flood-opacity="0" result="BackgroundImageFix"/><feBlend in="SourceGraphic" in2="BackgroundImageFix" mode="normal" result="shape"/><feGaussianBlur result="effect1_foregroundBlur_20020_2003" stdDeviation=".375"/></filter><filter id="d" color-interpolation-filters="sRGB" filterUnits="userSpaceOnUse" height="8.71875" width="2.26562" x="11.1861" y="6.875"><feFlood flood-opacity="0" result="BackgroundImageFix"/><feBlend in="SourceGraphic" in2="BackgroundImageFix" mode="normal" result="shape"/><feGaussianBlur result="effect1_foregroundBlur_20020_2003" stdDeviation=".375"/></filter><radialGradient id="e" cx="0" cy="0" gradientTransform="matrix(-10.43052542 9.3561467 -6.96955105 -7.76987383 22.4089 17.9136)" gradientUnits="userSpaceOnUse" r="1"><stop offset="0" stop-color="#fec8a5"/><stop offset="1" stop-color="#fec8a5" stop-opacity="0"/></radialGradient><radialGradient id="f" cx="0" cy="0" gradientTransform="matrix(-1.39249688 -2.14090164 2.27672824 -1.48084196 24.6454 10.1785)" gradientUnits="userSpaceOnUse" r="1"><stop offset="0" stop-color="#bd7a7d"/><stop offset="1" stop-color="#bd7a7d" stop-opacity="0"/></radialGradient><radialGradient id="g" cx="0" cy="0" gradientTransform="matrix(1.70665632 4.77864403 -16.30598112 5.82355697 22.1999 2.65321)" gradientUnits="userSpaceOnUse" r="1"><stop offset="0" stop-color="#e6b790"/><stop offset="1" stop-color="#e6b790" stop-opacity="0"/></radialGradient><radialGradient id="h" cx="0" cy="0" gradientTransform="matrix(-2.30205116 1.13025535 -.90333605 -1.83987257 26.7578 6.58223)" gradientUnits="userSpaceOnUse" r="1"><stop offset="0" stop-color="#ffd0aa"/><stop offset="1" stop-color="#ffd0aa" stop-opacity="0"/></radialGradient><radialGradient id="i" cx="0" cy="0" gradientTransform="matrix(1.61753442 1.77534261 -9.13543174 8.32339359 18.5977 5.40335)" gradientUnits="userSpaceOnUse" r="1"><stop offset="0" stop-color="#c39574"/><stop offset="1" stop-color="#c39574" stop-opacity="0"/></radialGradient><radialGradient id="j" cx="0" cy="0" gradientTransform="matrix(1.14411 0 0 3.35343 17.6114 8.48061)" gradientUnits="userSpaceOnUse" r="1"><stop offset="0" stop-color="#c58256"/><stop offset="1" stop-color="#c58256" stop-opacity="0"/></radialGradient><radialGradient id="k" cx="0" cy="0" gradientTransform="matrix(-23.07864073 10.46505052 -10.22957088 -22.55933602 27.2256 13.4781)" gradientUnits="userSpaceOnUse" r="1"><stop offset=".92707" stop-color="#dc9f89" stop-opacity="0"/><stop offset="1" stop-color="#dc9f89"/></radialGradient><linearGradient id="l"><stop offset="0" stop-color="#cf9d78"/><stop offset="1" stop-color="#cf9d78" stop-opacity="0"/></linearGradient><linearGradient id="m" gradientUnits="userSpaceOnUse" x1="3.1028" x2="5.92633" xlink:href="#l" y1="12.5051" y2="12.5051"/><linearGradient id="n"><stop offset=".551696" stop-color="#bb7b7d" stop-opacity="0"/><stop offset="1" stop-color="#bb7b7d"/></linearGradient><radialGradient id="o" cx="0" cy="0" gradientTransform="matrix(4.61753928 5.37902903 -4.67310507 4.01155043 3.13247 9.11189)" gradientUnits="userSpaceOnUse" r="1" xlink:href="#n"/><linearGradient id="p"><stop offset="0" stop-color="#e2b197"/><stop offset="1" stop-color="#e2b197" stop-opacity="0"/></linearGradient><radialGradient id="q" cx="0" cy="0" gradientTransform="matrix(0 3.74306 -1.49874 0 6.4836 11.5338)" gradientUnits="userSpaceOnUse" r="1" xlink:href="#p"/><linearGradient id="r" gradientUnits="userSpaceOnUse" x1="2.4297" x2="3.03922" y1="11.5338" y2="11.5338"><stop offset="0" stop-color="#dea788"/><stop offset="1" stop-color="#dea788" stop-opacity="0"/></linearGradient><linearGradient id="s" gradientUnits="userSpaceOnUse" x1="7.89306" x2="10.6446" xlink:href="#l" y1="12.2775" y2="12.2775"/><radialGradient id="t" cx="0" cy="0" gradientTransform="matrix(4.49973033 6.05544687 -5.09584861 3.78666431 7.92198 8.45758)" gradientUnits="userSpaceOnUse" r="1" xlink:href="#n"/><radialGradient id="u" cx="0" cy="0" gradientTransform="matrix(0 4.21375 -1.4605 0 11.1876 11.1841)" gradientUnits="userSpaceOnUse" r="1" xlink:href="#p"/><linearGradient id="v" gradientUnits="userSpaceOnUse" x1="12.7924" x2="15.5873" xlink:href="#l" y1="12.1476" y2="12.1476"/><radialGradient id="w" cx="0" cy="0" gradientTransform="matrix(0 8.8739 -7.49705 0 15.1158 7.21501)" gradientUnits="userSpaceOnUse" r="1" xlink:href="#n"/><radialGradient id="x" cx="0" cy="0" gradientTransform="matrix(0 7.0117 -2.44401 0 16.139 8.2617)" gradientUnits="userSpaceOnUse" r="1"><stop offset="0" stop-color="#ffcda2"/><stop offset="1" stop-color="#ffcda2" stop-opacity="0"/></radialGradient><radialGradient id="y" cx="0" cy="0" gradientTransform="matrix(-2.45056419 7.51928068 -4.3010959 -1.40174467 23.9699 12.2676)" gradientUnits="userSpaceOnUse" r="1"><stop offset="0" stop-color="#cb8f69"/><stop offset="1" stop-color="#cb8f69" stop-opacity="0"/></radialGradient><radialGradient id="z" cx="0" cy="0" gradientTransform="matrix(-2.73419194 1.7682866 -1.38593631 -2.14298739 28.7503 14.6563)" gradientUnits="userSpaceOnUse" r="1"><stop offset="0" stop-color="#ffcfa9"/><stop offset="1" stop-color="#ffcfa9" stop-opacity="0"/></radialGradient><radialGradient id="A" cx="0" cy="0" gradientTransform="matrix(1.11880673 .37925678 -2.26209556 6.67317724 22.1051 16.3634)" gradientUnits="userSpaceOnUse" r="1"><stop offset=".521388" stop-color="#f4bc9c"/><stop offset="1" stop-color="#f4bc9c" stop-opacity="0"/></radialGradient><g filter="url(#a)"><path d="m28.9205 14.1875c-.9629-1.4364-2.8282-1.7813-4.375-.4375-.7613.6613-1.6485 1.6181-1.6485.464v-3.0969c.0703-1.28121.8282-1.62496 2.0625-1.20308 1.757.44538 3.1687-.96394 3.4297-2.16407.204-.93774-.0068-2.44108-1.6094-3.20309-3.2968-1.42184-7.3593-.20312-8.8993 3.33311l-3.3027 2.33373h-12.04014v6.5831c0 7.7188 3.98248 12.2188 10.45604 12.2188 3.2596 0 5.551-1.252 8.0032-3.4513 1.3099-1.1748 2.4117-2.3972 4.2204-4.08 2.0313-2.2187 5.6094-4.4531 3.7032-7.2968z" fill="#e5ab95"/><path d="m28.9205 14.1875c-.9629-1.4364-2.8282-1.7813-4.375-.4375-.7613.6613-1.6485 1.6181-1.6485.464v-3.0969c.0703-1.28121.8282-1.62496 2.0625-1.20308 1.757.44538 3.1687-.96394 3.4297-2.16407.204-.93774-.0068-2.44108-1.6094-3.20309-3.2968-1.42184-7.3593-.20312-8.8993 3.33311l-3.3027 2.33373h-12.04014v6.5831c0 7.7188 3.98248 12.2188 10.45604 12.2188 3.2596 0 5.551-1.252 8.0032-3.4513 1.3099-1.1748 2.4117-2.3972 4.2204-4.08 2.0313-2.2187 5.6094-4.4531 3.7032-7.2968z" fill="url(#e)"/></g><path d="m28.9205 14.1875c-.9629-1.4364-2.8282-1.7813-4.375-.4375-.7613.6613-1.6485 1.6181-1.6485.464v-3.0969c.0703-1.28121.8282-1.62496 2.0625-1.20308 1.757.44538 3.1687-.96394 3.4297-2.16407.204-.93774-.0068-2.44108-1.6094-3.20309-3.2968-1.42184-7.3593-.20312-8.8993 3.33311l-3.3027 2.33373h-12.04014v6.5831c0 7.7188 3.98248 12.2188 10.45604 12.2188 3.2596 0 5.551-1.252 8.0032-3.4513 1.3099-1.1748 2.4117-2.3972 4.2204-4.08 2.0313-2.2187 5.6094-4.4531 3.7032-7.2968z" fill="url(#f)"/><path d="m28.9205 14.1875c-.9629-1.4364-2.8282-1.7813-4.375-.4375-.7613.6613-1.6485 1.6181-1.6485.464v-3.0969c.0703-1.28121.8282-1.62496 2.0625-1.20308 1.757.44538 3.1687-.96394 3.4297-2.16407.204-.93774-.0068-2.44108-1.6094-3.20309-3.2968-1.42184-7.3593-.20312-8.8993 3.33311l-3.3027 2.33373h-12.04014v6.5831c0 7.7188 3.98248 12.2188 10.45604 12.2188 3.2596 0 5.551-1.252 8.0032-3.4513 1.3099-1.1748 2.4117-2.3972 4.2204-4.08 2.0313-2.2187 5.6094-4.4531 3.7032-7.2968z" fill="url(#g)"/><path d="m28.9205 14.1875c-.9629-1.4364-2.8282-1.7813-4.375-.4375-.7613.6613-1.6485 1.6181-1.6485.464v-3.0969c.0703-1.28121.8282-1.62496 2.0625-1.20308 1.757.44538 3.1687-.96394 3.4297-2.16407.204-.93774-.0068-2.44108-1.6094-3.20309-3.2968-1.42184-7.3593-.20312-8.8993 3.33311l-3.3027 2.33373h-12.04014v6.5831c0 7.7188 3.98248 12.2188 10.45604 12.2188 3.2596 0 5.551-1.252 8.0032-3.4513 1.3099-1.1748 2.4117-2.3972 4.2204-4.08 2.0313-2.2187 5.6094-4.4531 3.7032-7.2968z" fill="url(#h)"/><path d="m28.9205 14.1875c-.9629-1.4364-2.8282-1.7813-4.375-.4375-.7613.6613-1.6485 1.6181-1.6485.464v-3.0969c.0703-1.28121.8282-1.62496 2.0625-1.20308 1.757.44538 3.1687-.96394 3.4297-2.16407.204-.93774-.0068-2.44108-1.6094-3.20309-3.2968-1.42184-7.3593-.20312-8.8993 3.33311l-3.3027 2.33373h-12.04014v6.5831c0 7.7188 3.98248 12.2188 10.45604 12.2188 3.2596 0 5.551-1.252 8.0032-3.4513 1.3099-1.1748 2.4117-2.3972 4.2204-4.08 2.0313-2.2187 5.6094-4.4531 3.7032-7.2968z" fill="url(#i)"/><path d="m28.9205 14.1875c-.9629-1.4364-2.8282-1.7813-4.375-.4375-.7613.6613-1.6485 1.6181-1.6485.464v-3.0969c.0703-1.28121.8282-1.62496 2.0625-1.20308 1.757.44538 3.1687-.96394 3.4297-2.16407.204-.93774-.0068-2.44108-1.6094-3.20309-3.2968-1.42184-7.3593-.20312-8.8993 3.33311l-3.3027 2.33373h-12.04014v6.5831c0 7.7188 3.98248 12.2188 10.45604 12.2188 3.2596 0 5.551-1.252 8.0032-3.4513 1.3099-1.1748 2.4117-2.3972 4.2204-4.08 2.0313-2.2187 5.6094-4.4531 3.7032-7.2968z" fill="url(#j)"/><path d="m28.9205 14.1875c-.9629-1.4364-2.8282-1.7813-4.375-.4375-.7613.6613-1.6485 1.6181-1.6485.464v-3.0969c.0703-1.28121.8282-1.62496 2.0625-1.20308 1.757.44538 3.1687-.96394 3.4297-2.16407.204-.93774-.0068-2.44108-1.6094-3.20309-3.2968-1.42184-7.3593-.20312-8.8993 3.33311l-3.3027 2.33373h-12.04014v6.5831c0 7.7188 3.98248 12.2188 10.45604 12.2188 3.2596 0 5.551-1.252 8.0032-3.4513 1.3099-1.1748 2.4117-2.3972 4.2204-4.08 2.0313-2.2187 5.6094-4.4531 3.7032-7.2968z" fill="url(#k)"/><g fill="#93534f" filter="url(#b)"><path d="m13.3378 8.95312c-1.4675 0-2.6622 1.18618-2.6622 2.64318v2.974c0 1.457 1.1947 2.6431 2.6622 2.6431s2.6622-1.1861 2.6622-2.6431v-2.974c0-1.4664-1.1947-2.64318-2.6622-2.64318z"/><path d="m9.53076 9.35658c-1.39582 0-2.53216 1.12822-2.53216 2.51402v2.8288c0 1.3858 1.13634 2.514 2.53216 2.514 1.39584 0 2.53214-1.1282 2.53214-2.514v-2.8288c0-1.3947-1.1363-2.51402-2.53214-2.51402z"/><path d="m6.19153 9.54184c-1.25831 0-2.28272 1.01706-2.28272 2.26636v2.5501c0 1.2493 1.02441 2.2664 2.28272 2.2664 1.25832 0 2.28272-1.0171 2.28272-2.2664v-2.5501c0-1.2573-1.0244-2.26636-2.28272-2.26636z"/></g><path d="m5.44995 7.06763c-1.60604 0-2.91229 1.19099-2.91229 2.65531v3.62176c0 1.4643 1.30625 2.6553 2.91229 2.6553s2.91228-1.191 2.91228-2.6553v-3.62176c0-1.46432-1.30624-2.65531-2.91228-2.65531z" fill="#e0aa8b"/><path d="m5.44995 7.06763c-1.60604 0-2.91229 1.19099-2.91229 2.65531v3.62176c0 1.4643 1.30625 2.6553 2.91229 2.6553s2.91228-1.191 2.91228-2.6553v-3.62176c0-1.46432-1.30624-2.65531-2.91228-2.65531z" fill="url(#m)"/><path d="m5.44995 7.06763c-1.60604 0-2.91229 1.19099-2.91229 2.65531v3.62176c0 1.4643 1.30625 2.6553 2.91229 2.6553s2.91228-1.191 2.91228-2.6553v-3.62176c0-1.46432-1.30624-2.65531-2.91228-2.65531z" fill="url(#o)"/><path d="m5.44995 7.06763c-1.60604 0-2.91229 1.19099-2.91229 2.65531v3.62176c0 1.4643 1.30625 2.6553 2.91229 2.6553s2.91228-1.191 2.91228-2.6553v-3.62176c0-1.46432-1.30624-2.65531-2.91228-2.65531z" fill="url(#q)"/><path d="m5.44995 7.06763c-1.60604 0-2.91229 1.19099-2.91229 2.65531v3.62176c0 1.4643 1.30625 2.6553 2.91229 2.6553s2.91228-1.191 2.91228-2.6553v-3.62176c0-1.46432-1.30624-2.65531-2.91228-2.65531z" fill="url(#r)"/><g filter="url(#c)"><rect fill="#c2885e" height="6.8125" rx=".382812" width=".765625" x="6.9986" y="8.03125"/></g><path d="m10.1803 6.15625c-1.56503 0-2.83795 1.23048-2.83795 2.74337v4.56888c0 1.5129 1.27292 2.7434 2.83795 2.7434 1.5651 0 2.838-1.2305 2.838-2.7434v-4.57896c0-1.51289-1.2729-2.73329-2.838-2.73329z" fill="#e0aa8b"/><path d="m10.1803 6.15625c-1.56503 0-2.83795 1.23048-2.83795 2.74337v4.56888c0 1.5129 1.27292 2.7434 2.83795 2.7434 1.5651 0 2.838-1.2305 2.838-2.7434v-4.57896c0-1.51289-1.2729-2.73329-2.838-2.73329z" fill="url(#s)"/><path d="m10.1803 6.15625c-1.56503 0-2.83795 1.23048-2.83795 2.74337v4.56888c0 1.5129 1.27292 2.7434 2.83795 2.7434 1.5651 0 2.838-1.2305 2.838-2.7434v-4.57896c0-1.51289-1.2729-2.73329-2.838-2.73329z" fill="url(#t)"/><path d="m10.1803 6.15625c-1.56503 0-2.83795 1.23048-2.83795 2.74337v4.56888c0 1.5129 1.27292 2.7434 2.83795 2.7434 1.5651 0 2.838-1.2305 2.838-2.7434v-4.57896c0-1.51289-1.2729-2.73329-2.838-2.73329z" fill="url(#u)"/><g filter="url(#d)"><rect fill="#c2885e" height="7.21875" rx=".382812" width=".765625" x="11.9361" y="7.625"/></g><path d="m15.1158 6.01562c-1.5891 0-2.8828 1.28445-2.8828 2.86219v4.34889c0 1.5778 1.2937 2.8622 2.8828 2.8622s2.8828-1.2844 2.8828-2.8622v-4.34889c0-1.58785-1.2937-2.86219-2.8828-2.86219z" fill="#e0aa8b"/><path d="m15.1158 6.01562c-1.5891 0-2.8828 1.28445-2.8828 2.86219v4.34889c0 1.5778 1.2937 2.8622 2.8828 2.8622s2.8828-1.2844 2.8828-2.8622v-4.34889c0-1.58785-1.2937-2.86219-2.8828-2.86219z" fill="url(#v)"/><path d="m15.1158 6.01562c-1.5891 0-2.8828 1.28445-2.8828 2.86219v4.34889c0 1.5778 1.2937 2.8622 2.8828 2.8622s2.8828-1.2844 2.8828-2.8622v-4.34889c0-1.58785-1.2937-2.86219-2.8828-2.86219z" fill="url(#w)"/><path d="m15.1158 6.01562c-1.5891 0-2.8828 1.28445-2.8828 2.86219v4.34889c0 1.5778 1.2937 2.8622 2.8828 2.8622s2.8828-1.2844 2.8828-2.8622v-4.34889c0-1.58785-1.2937-2.86219-2.8828-2.86219z" fill="url(#x)"/><path d="m24.5455 13.75c1.5468-1.3437 3.4121-.9989 4.375.4375 1.5252 2.2753-.4606 4.1605-2.3559 5.9598-.4734.4494-.9413.8935-1.3473 1.337-.8845.8229-1.5999 1.5358-2.2533 2.1867-.6828.6803-1.2978 1.293-1.9671 1.8934-.4458.3997-.8862.7682-1.3281 1.1035l3.427-11.9238c.2524.0782.7103-.333 1.1674-.7434.0947-.0851.1894-.1701.2823-.2507z" fill="url(#y)"/><path d="m24.5455 13.75c1.5468-1.3437 3.4121-.9989 4.375.4375 1.5252 2.2753-.4606 4.1605-2.3559 5.9598-.4734.4494-.9413.8935-1.3473 1.337-.8845.8229-1.5999 1.5358-2.2533 2.1867-.6828.6803-1.2978 1.293-1.9671 1.8934-.4458.3997-.8862.7682-1.3281 1.1035l3.427-11.9238c.2524.0782.7103-.333 1.1674-.7434.0947-.0851.1894-.1701.2823-.2507z" fill="url(#z)"/><path d="m24.5455 13.75c1.5468-1.3437 3.4121-.9989 4.375.4375 1.5252 2.2753-.4606 4.1605-2.3559 5.9598-.4734.4494-.9413.8935-1.3473 1.337-.8845.8229-1.5999 1.5358-2.2533 2.1867-.6828.6803-1.2978 1.293-1.9671 1.8934-.4458.3997-.8862.7682-1.3281 1.1035l3.427-11.9238c.2524.0782.7103-.333 1.1674-.7434.0947-.0851.1894-.1701.2823-.2507z" fill="url(#A)"/></svg>