<svg fill="none" height="32" viewBox="0 0 32 32" width="32" xmlns="http://www.w3.org/2000/svg" xmlns:xlink="http://www.w3.org/1999/xlink"><filter id="a" color-interpolation-filters="sRGB" filterUnits="userSpaceOnUse" height="15.5454" width="28.4996" x="1.33917" y="8.19537"><feFlood flood-opacity="0" result="BackgroundImageFix"/><feBlend in="SourceGraphic" in2="BackgroundImageFix" mode="normal" result="shape"/><feColorMatrix in="SourceAlpha" result="hardAlpha" type="matrix" values="0 0 0 0 0 0 0 0 0 0 0 0 0 0 0 0 0 0 127 0"/><feOffset dy="-.75"/><feGaussianBlur stdDeviation=".5"/><feComposite in2="hardAlpha" k2="-1" k3="1" operator="arithmetic"/><feColorMatrix type="matrix" values="0 0 0 0 0.239216 0 0 0 0 0.129412 0 0 0 0 0.32549 0 0 0 1 0"/><feBlend in2="shape" mode="normal" result="effect1_innerShadow_18590_2068"/><feColorMatrix in="SourceAlpha" result="hardAlpha" type="matrix" values="0 0 0 0 0 0 0 0 0 0 0 0 0 0 0 0 0 0 127 0"/><feOffset dx=".5"/><feGaussianBlur stdDeviation=".5"/><feComposite in2="hardAlpha" k2="-1" k3="1" operator="arithmetic"/><feColorMatrix type="matrix" values="0 0 0 0 0.239216 0 0 0 0 0.215686 0 0 0 0 0.270588 0 0 0 1 0"/><feBlend in2="effect1_innerShadow_18590_2068" mode="normal" result="effect2_innerShadow_18590_2068"/></filter><filter id="b" color-interpolation-filters="sRGB" filterUnits="userSpaceOnUse" height="14.7596" width="15" x="1.6333" y="8.74042"><feFlood flood-opacity="0" result="BackgroundImageFix"/><feBlend in="SourceGraphic" in2="BackgroundImageFix" mode="normal" result="shape"/><feGaussianBlur result="effect1_foregroundBlur_18590_2068" stdDeviation=".25"/></filter><filter id="c" color-interpolation-filters="sRGB" filterUnits="userSpaceOnUse" height="14.7917" width="15" x="14.2583" y="8.74115"><feFlood flood-opacity="0" result="BackgroundImageFix"/><feBlend in="SourceGraphic" in2="BackgroundImageFix" mode="normal" result="shape"/><feGaussianBlur result="effect1_foregroundBlur_18590_2068" stdDeviation=".25"/></filter><linearGradient id="d" gradientUnits="userSpaceOnUse" x1="15.339" x2="15.339" y1="9.86426" y2="23.7408"><stop offset="0" stop-color="#5a4c68"/><stop offset="1" stop-color="#312e35"/></linearGradient><radialGradient id="e" cx="0" cy="0" gradientTransform="matrix(-.72656117 .03125227 -.02945548 -.68478879 28.6099 9.75001)" gradientUnits="userSpaceOnUse" r="1"><stop offset="0" stop-color="#7b6e88"/><stop offset="1" stop-color="#7b6e88" stop-opacity="0"/></radialGradient><g filter="url(#a)"><path d="m21.5984 23.7408c-2.9025 0-5.2638-2.3594-5.2675-5.2612-.0019-.2144.0137-2.435 1.4756-4.6882.4961-.7646 1.1-1.4457 1.8061-2.0377.0917-.0769.0647-.2258-.0501-.2598-1.2142-.3604-2.6241-.5418-4.2235-.5418-1.5708 0-2.9624.1966-4.1671.5874-.1116.0362-.1367.1815-.0474.2576.6802.58 1.2639 1.2441 1.7457 1.9862 1.4613 2.2506 1.4794 4.4694 1.4769 4.6875v.0025c0 2.9044-2.3631 5.2675-5.26749 5.2675-2.90312 0-5.26562-2.3612-5.2675-5.2644-.00062-.2068.02688-3.7081 2.73-6.4325.05702-.0573.11463-.1139.17299-.1697.08258-.079.05359-.2186-.05532-.2532-1.26384-.402-2.72015-.6289-4.35079-.6764-.55125-.0163-.98563-.4769-.96938-1.02879.01625-.55187.47563-.98624 1.02875-.96999 2.49018.07282 4.64886.53199 6.42548 1.36488.04273.02.09213.0191.13411-.0025 1.75345-.90085 3.89845-1.35551 6.41105-1.35551 2.5903 0 4.7799.43619 6.5475 1.30191.0408.02.0882.0208.1297.002 1.751-.79364 3.8643-1.23168 6.2934-1.30328.01 0 .02-.00063.03-.00063.5388 0 .9831.42875.9988.97062.0162.55189-.4182 1.01249-.97 1.02879-1.5438.0456-2.9318.2508-4.1476.6136-.111.0332-.1414.1751-.0572.2547.1341.127.2639.2581.3891.3935 2.425 2.6157 2.3363 5.8494 2.3125 6.2832-.0125 2.8937-2.3706 5.2437-5.2668 5.2437zm.3865-11.118c-.048-.0332-.1111-.0347-.1606-.0039-.9397.5821-1.7076 1.3138-2.2878 2.1819-1.21 1.8113-1.2063 3.6394-1.2056 3.6575v.01.005c0 1.8019 1.4656 3.2675 3.2675 3.2675 1.8018 0 3.2675-1.4656 3.2675-3.2675l.0031-.0831c.0012-.0231.1587-2.7413-1.8013-4.8369-.322-.3437-.6831-.6539-1.0828-.9305zm-12.98721.0813c-.05086-.0329-.11669-.0313-.16573.0043-.31198.2265-.60177.4751-.86985.7449-2.14687 2.1638-2.15 4.9844-2.15 5.0131v.0075c0 1.8019 1.46563 3.2675 3.2675 3.2675 1.80189 0 3.26749-1.4656 3.26749-3.2675v-.0268c0-.0132.0031-1.8413-1.2075-3.6532-.5493-.823-1.26763-1.5234-2.14191-2.0898z" fill="url(#d)"/></g><path d="m21.5984 23.7408c-2.9025 0-5.2638-2.3594-5.2675-5.2612-.0019-.2144.0137-2.435 1.4756-4.6882.5462-.8418 1.2231-1.5825 2.0231-2.2143-1.2731-.4157-2.7725-.625-4.4906-.625-1.6825 0-3.1594.2256-4.4213.6737.7694.6194 1.4225 1.3413 1.9525 2.1575 1.4613 2.2506 1.4794 4.4694 1.4769 4.6875v.0025c0 2.9044-2.3631 5.2675-5.26749 5.2675-2.90312 0-5.26562-2.3612-5.2675-5.2644-.00062-.2068.02688-3.7081 2.73-6.4325.11688-.1175.23625-.2318.35938-.3431-1.31875-.4519-2.85688-.7056-4.5925-.7562-.55125-.0163-.98563-.4769-.96938-1.02879.01625-.55187.47563-.98624 1.02875-.96999 2.52188.07374 4.70375.54375 6.49313 1.39688 1.76561-.92376 3.93311-1.39001 6.47751-1.39001 2.6219 0 4.8331.44687 6.6119 1.33371 1.7637-.81246 3.8993-1.26059 6.3587-1.33308.01 0 .02-.00063.03-.00063.5388 0 .9831.42875.9988.97062.0162.55189-.4182 1.01249-.97 1.02879-1.6507.0487-3.1232.28-4.3975.6912.2031.1813.3975.3713.5818.5706 2.425 2.6157 2.3363 5.8494 2.3125 6.2832-.0125 2.8937-2.3706 5.2437-5.2668 5.2437zm.3075-11.1719c-.9769.59-1.7725 1.3388-2.3694 2.2319-1.21 1.8113-1.2063 3.6394-1.2056 3.6575v.01.005c0 1.8019 1.4656 3.2675 3.2675 3.2675 1.8018 0 3.2675-1.4656 3.2675-3.2675l.0031-.0831c.0012-.0231.1587-2.7413-1.8013-4.8369-.3431-.3662-.7306-.6944-1.1618-.9844zm-12.99254.0813c-.34312.2419-.66.51-.95125.8031-2.14687 2.1638-2.15 4.9844-2.15 5.0131v.0075c0 1.8019 1.46563 3.2675 3.2675 3.2675 1.80189 0 3.26749-1.4656 3.26749-3.2675v-.0268c0-.0132.0031-1.8413-1.2075-3.6532-.5669-.8493-1.31374-1.5681-2.22624-2.1437z" fill="url(#e)"/><g filter="url(#b)"><path d="m2.5083 9.62499c1.9375-.09375 6.68125.45621 9.1563 3.65621 3.0937 4 2.0625 9.3438-2.2813 9.3438-4.75 0-5.59375-6.2188-2.3125-9.5 3.0896-3.0896 6.8125-3.15626 8.6875-3.15626" stroke="#5b4f68" stroke-linecap="round" stroke-width=".75"/></g><g filter="url(#c)"><path d="m28.3833 9.625c-1.9375-.09375-6.4312.5187-8.9062 3.7187-3.0938 4-2.6563 8.7188 2.0312 9.2813s5.5938-6.2188 2.3125-9.5c-3.0896-3.0896-6.8125-3.15626-8.6875-3.15626" stroke="#5b4f68" stroke-linecap="round" stroke-width=".75"/></g></svg>