<svg enable-background="new 0 0 128 128" viewBox="0 0 128 128" xmlns="http://www.w3.org/2000/svg"><g transform="scale(4)"><path d="m14.313 7.65039 2.66-1.53c.46-.27 1.06-.11 1.33.36s.11 1.06-.36 1.33l-2.66 1.53zm4.57 8.00001 2.66-1.53c.46-.27 1.06-.11 1.33.36s.11 1.06-.36 1.33l-2.66 1.53z" fill="#9b9b9b"/><path d="m4.21289 14.4103.48.84c.92 1.6 2.54 2.66 4.37 2.88 1.25001.15 2.51001-.11 3.60001-.74l15.72-9.07001c1.57-.91 2.09-2.96 1.15-4.59s-2.98-2.21-4.55-1.3l-7.7111 4.44773-3.9619.64185-1.0635 2.25673-2.97513 1.7161-3.79949.3333z" fill="#cdc4d6"/><path d="m25.2527 5.36012c.2.35.65.47 1 .27l3.29-1.9v-.01c-.26-.45-.6-.82-1-1.1l-3.02 1.74c-.36.2-.48.65-.27 1z" fill="#00a6ed"/><path d="m17.2981 6.86287-5.0662 2.92214-2.44892-1.14471c-1.24-.58-1.31-2.31-.13-2.99.36002-.21.79002-.28 1.20002-.19zm-8.01513 4.62743-2.94-1.63995c-1.26-.69-2.79-.68-4.04.04-.29.16995-.39.53995-.22.82995l2.13 3.69zm12.54003-2.75001-4.15 2.40001c-.34.19-.56.55-.6.95l-.7 7.98c-.12 1.36 1.35 2.29 2.53 1.61.36-.21.63-.55.76-.95l3.49-10.92001c.25-.8-.61-1.49-1.33-1.07z" fill="#0084ce"/><path d="m29.0029 24h-25.99997c-.55229 0-1 .4477-1 1v4c0 .5523.44771 1 1 1h25.99997c.5523 0 1-.4477 1-1v-4c0-.5523-.4477-1-1-1z" fill="#636363"/><g fill="#9b9b9b"><path d="m4.5 26.5c-.27614 0-.5.2239-.5.5s.22386.5.5.5h3.5c.27614 0 .5-.2239.5-.5s-.22386-.5-.5-.5z"/><path d="m11 26.5c-.2761 0-.5.2239-.5.5s.2239.5.5.5h3.5c.2761 0 .5-.2239.5-.5s-.2239-.5-.5-.5z"/><path d="m17 27c0-.2761.2239-.5.5-.5h3.5c.2761 0 .5.2239.5.5s-.2239.5-.5.5h-3.5c-.2761 0-.5-.2239-.5-.5z"/><path d="m24 26.5c-.2761 0-.5.2239-.5.5s.2239.5.5.5h3.5c.2761 0 .5-.2239.5-.5s-.2239-.5-.5-.5z"/></g></g></svg>