<svg fill="none" height="32" viewBox="0 0 32 32" width="32" xmlns="http://www.w3.org/2000/svg" xmlns:xlink="http://www.w3.org/1999/xlink"><filter id="a" color-interpolation-filters="sRGB" filterUnits="userSpaceOnUse" height="28.875" width="29.875" x="1.72333" y=".9375"><feFlood flood-opacity="0" result="BackgroundImageFix"/><feBlend in="SourceGraphic" in2="BackgroundImageFix" mode="normal" result="shape"/><feColorMatrix in="SourceAlpha" result="hardAlpha" type="matrix" values="0 0 0 0 0 0 0 0 0 0 0 0 0 0 0 0 0 0 127 0"/><feOffset dx="2" dy="-1"/><feGaussianBlur stdDeviation="1.5"/><feComposite in2="hardAlpha" k2="-1" k3="1" operator="arithmetic"/><feColorMatrix type="matrix" values="0 0 0 0 0.298039 0 0 0 0 0.235294 0 0 0 0 0.6 0 0 0 1 0"/><feBlend in2="shape" mode="normal" result="effect1_innerShadow_18590_997"/><feColorMatrix in="SourceAlpha" result="hardAlpha" type="matrix" values="0 0 0 0 0 0 0 0 0 0 0 0 0 0 0 0 0 0 127 0"/><feOffset dy="-1"/><feGaussianBlur stdDeviation="1.5"/><feComposite in2="hardAlpha" k2="-1" k3="1" operator="arithmetic"/><feColorMatrix type="matrix" values="0 0 0 0 0.352941 0 0 0 0 0.211765 0 0 0 0 0.709804 0 0 0 1 0"/><feBlend in2="effect1_innerShadow_18590_997" mode="normal" result="effect2_innerShadow_18590_997"/></filter><filter id="b" color-interpolation-filters="sRGB" filterUnits="userSpaceOnUse" height="28.375" width="5.5" x="25.1608" y="1.6875"><feFlood flood-opacity="0" result="BackgroundImageFix"/><feBlend in="SourceGraphic" in2="BackgroundImageFix" mode="normal" result="shape"/><feGaussianBlur result="effect1_foregroundBlur_18590_997" stdDeviation="1"/></filter><filter id="c" color-interpolation-filters="sRGB" filterUnits="userSpaceOnUse" height="5.5" width="27.2812" x="2.43719" y="1"><feFlood flood-opacity="0" result="BackgroundImageFix"/><feBlend in="SourceGraphic" in2="BackgroundImageFix" mode="normal" result="shape"/><feGaussianBlur result="effect1_foregroundBlur_18590_997" stdDeviation="1"/></filter><filter id="d" color-interpolation-filters="sRGB" filterUnits="userSpaceOnUse" height="21" width="24.6019" x="3.36646" y="5.375"><feFlood flood-opacity="0" result="BackgroundImageFix"/><feBlend in="SourceGraphic" in2="BackgroundImageFix" mode="normal" result="shape"/><feGaussianBlur result="effect1_foregroundBlur_18590_997" stdDeviation=".5"/></filter><filter id="e" color-interpolation-filters="sRGB" filterUnits="userSpaceOnUse" height="19.8" width="23.4019" x="3.96646" y="5.975"><feFlood flood-opacity="0" result="BackgroundImageFix"/><feBlend in="SourceGraphic" in2="BackgroundImageFix" mode="normal" result="shape"/><feColorMatrix in="SourceAlpha" result="hardAlpha" type="matrix" values="0 0 0 0 0 0 0 0 0 0 0 0 0 0 0 0 0 0 127 0"/><feOffset dx="-.4" dy=".4"/><feGaussianBlur stdDeviation=".375"/><feComposite in2="hardAlpha" k2="-1" k3="1" operator="arithmetic"/><feColorMatrix type="matrix" values="0 0 0 0 0.913725 0 0 0 0 0.886275 0 0 0 0 0.968627 0 0 0 1 0"/><feBlend in2="shape" mode="normal" result="effect1_innerShadow_18590_997"/><feColorMatrix in="SourceAlpha" result="hardAlpha" type="matrix" values="0 0 0 0 0 0 0 0 0 0 0 0 0 0 0 0 0 0 127 0"/><feOffset dx=".4" dy="-.4"/><feGaussianBlur stdDeviation=".2"/><feComposite in2="hardAlpha" k2="-1" k3="1" operator="arithmetic"/><feColorMatrix type="matrix" values="0 0 0 0 1 0 0 0 0 0.988235 0 0 0 0 1 0 0 0 1 0"/><feBlend in2="effect1_innerShadow_18590_997" mode="normal" result="effect2_innerShadow_18590_997"/></filter><linearGradient id="f" gradientUnits="userSpaceOnUse" x1="15.6608" x2="15.6608" y1="5.51201" y2="38.7647"><stop offset="0" stop-color="#9865ee"/><stop offset="1" stop-color="#7764c6"/></linearGradient><radialGradient id="g" cx="0" cy="0" gradientTransform="matrix(-1.56248628 1.46876123 -1.71548166 -1.82495051 27.3796 4.03125)" gradientUnits="userSpaceOnUse" r="1"><stop offset="0" stop-color="#bb8dff"/><stop offset="1" stop-color="#bb8dff" stop-opacity="0"/></radialGradient><linearGradient id="h" gradientUnits="userSpaceOnUse" x1="28.4108" x2="28.4108" y1="4.4375" y2="27.3125"><stop offset="0" stop-color="#ae7eff"/><stop offset="1" stop-color="#8777d6"/></linearGradient><linearGradient id="i" gradientUnits="userSpaceOnUse" x1="28.1247" x2="2.59345" y1="4.00002" y2="4.00002"><stop offset="0" stop-color="#a672ff"/><stop offset="1" stop-color="#9a6ceb"/></linearGradient><g filter="url(#a)"><rect fill="url(#f)" height="27.875" rx="3.6" width="27.875" x="1.72333" y="1.9375"/><rect fill="url(#g)" height="27.875" rx="3.6" width="27.875" x="1.72333" y="1.9375"/></g><g filter="url(#b)"><path d="m27.9108 4.4375v22.875" stroke="url(#h)" stroke-linecap="round" stroke-width="1.5"/></g><g filter="url(#c)"><path d="m5.18719 3.75h21.78121" stroke="url(#i)" stroke-linecap="round" stroke-width="1.5"/></g><g fill="#6a4ebe" filter="url(#d)"><path d="m21.5621 8.375c.5523 0 1-.44772 1-1s-.4477-1-1-1-1 .44772-1 1 .4477 1 1 1z"/><path d="m14.5622 12.375c0 1.6569-1.3432 3-3 3-.1314 0-.2614.0259-.3827.0761-.1214.0503-.2316.1239-.3245.2168-.0928.0929-.1665.2031-.2167.3244-.0503.1213-.0761.2514-.0761.3827s.0258.2614.0761.3827c.0502.1213.1239.2315.2167.3244.0929.0929.2031.1665.3245.2168.1213.0502.2513.0761.3827.0761 1.6568 0 3 1.3431 3 3s-1.3432 3-3 3c-.8889 0-1.68746-.3866-2.2368-1.0007-.00261-.0029-.00696-.0035-.01021-.0013-.00333.0022-.0078.0015-.01036-.0015l-3.18392-3.8252c-.31942-.3838-.87428-.4703-1.29538-.202-.50408.3211-.61179 1.0118-.22943 1.4712l3.05226 3.667c.00049.0006.00036.0015-.00027.0019-.00062.0004-.00076.0012-.00029.0018.91603 1.151 2.32903 1.8888 3.9144 1.8888 2.7614 0 5-2.2386 5-5 0-.5924-.1031-1.1607-.2921-1.688-.0189-.0525.0077-.1108.0601-.13l3.9932-1.4545c1.5524-.4949 2.7382-.34 3.4875.0763.7267.4037 1.1575 1.1096 1.1575 2.0399 0 1.143-.4318 1.8599-1.0149 2.264-.6057.4198-1.5246.6039-2.6594.3569l-2.045-.5268c-.5348-.1378-1.08.1841-1.2178.7189s.1841 1.0801.7189 1.2179l2.0625.5313.0174.0043.0163.0037c1.5453.3414 3.0736.1503 4.2463-.6623 1.1982-.8304 1.8757-2.2072 1.8757-3.9079 0-1.6322-.8036-3.0201-2.1862-3.7882-1.3572-.754-3.1497-.8495-5.0885-.2263-.0122.0039-.0243.008-.0363.0124l-4.4716 1.6288c-.0368.0134-.078.004-.1058-.0235-.1305-.1292-.268-.2513-.412-.3655-.0522-.0414-.0522-.1214 0-.1628 1.154-.9159 1.8942-2.3308 1.8942-3.9186 0-2.76142-2.2386-5-5-5-2.76147 0-5.00005 2.23858-5.00005 5 0 .5523.44772 1 1 1 .55229 0 1-.4477 1-1 0-1.6569 1.34315-3 3.00005-3 1.6568 0 3 1.3431 3 3z"/><path d="m19.9817 8.84226c-.3115-.45607-.9337-.5733-1.3898-.26184-.4561.31147-.5733.93369-.2618 1.38977l.3437.50331c1.0759 1.5755 2.9546 2.4014 4.8428 2.129l.782-.1128c.5466-.0788.9259-.5859.847-1.1325-.0788-.5466-.5859-.9258-1.1325-.847l-.782.1128c-1.133.1634-2.2601-.3321-2.9057-1.27738z"/></g><g fill="#fcf2ff" filter="url(#e)"><path d="m21.5621 8.375c.5523 0 1-.44772 1-1s-.4477-1-1-1-1 .44772-1 1 .4477 1 1 1z"/><path d="m14.5622 12.375c0 1.6569-1.3432 3-3 3-.1314 0-.2614.0259-.3827.0761-.1214.0503-.2316.1239-.3245.2168-.0928.0929-.1665.2031-.2167.3244-.0503.1213-.0761.2514-.0761.3827s.0258.2614.0761.3827c.0502.1213.1239.2315.2167.3244.0929.0929.2031.1665.3245.2168.1213.0502.2513.0761.3827.0761 1.6568 0 3 1.3431 3 3s-1.3432 3-3 3c-.8889 0-1.68746-.3866-2.2368-1.0007-.00261-.0029-.00696-.0035-.01021-.0013-.00333.0022-.0078.0015-.01036-.0015l-3.18392-3.8252c-.31942-.3838-.87428-.4703-1.29538-.202-.50408.3211-.61179 1.0118-.22943 1.4712l3.05226 3.667c.00049.0006.00036.0015-.00027.0019-.00062.0004-.00076.0012-.00029.0018.91603 1.151 2.32903 1.8888 3.9144 1.8888 2.7614 0 5-2.2386 5-5 0-.5924-.1031-1.1607-.2921-1.688-.0189-.0525.0077-.1108.0601-.13l3.9932-1.4545c1.5524-.4949 2.7382-.34 3.4875.0763.7267.4037 1.1575 1.1096 1.1575 2.0399 0 1.143-.4318 1.8599-1.0149 2.264-.6057.4198-1.5246.6039-2.6594.3569l-2.045-.5268c-.5348-.1378-1.08.1841-1.2178.7189s.1841 1.0801.7189 1.2179l2.0625.5313.0174.0043.0163.0037c1.5453.3414 3.0736.1503 4.2463-.6623 1.1982-.8304 1.8757-2.2072 1.8757-3.9079 0-1.6322-.8036-3.0201-2.1862-3.7882-1.3572-.754-3.1497-.8495-5.0885-.2263-.0122.0039-.0243.008-.0363.0124l-4.4716 1.6288c-.0368.0134-.078.004-.1058-.0235-.1305-.1292-.268-.2513-.412-.3655-.0522-.0414-.0522-.1214 0-.1628 1.154-.9159 1.8942-2.3308 1.8942-3.9186 0-2.76142-2.2386-5-5-5-2.76147 0-5.00005 2.23858-5.00005 5 0 .5523.44772 1 1 1 .55229 0 1-.4477 1-1 0-1.6569 1.34315-3 3.00005-3 1.6568 0 3 1.3431 3 3z"/><path d="m19.9817 8.84226c-.3115-.45607-.9337-.5733-1.3898-.26184-.4561.31147-.5733.93369-.2618 1.38977l.3437.50331c1.0759 1.5755 2.9546 2.4014 4.8428 2.129l.782-.1128c.5466-.0788.9259-.5859.847-1.1325-.0788-.5466-.5859-.9258-1.1325-.847l-.782.1128c-1.133.1634-2.2601-.3321-2.9057-1.27738z"/></g></svg>