<svg fill="none" height="33" viewBox="0 0 32 33" width="32" xmlns="http://www.w3.org/2000/svg" xmlns:xlink="http://www.w3.org/1999/xlink"><filter id="a" color-interpolation-filters="sRGB" filterUnits="userSpaceOnUse" height="15.5262" width="12.3567" x="19.2258" y="5.18799"><feFlood flood-opacity="0" result="BackgroundImageFix"/><feBlend in="SourceGraphic" in2="BackgroundImageFix" mode="normal" result="shape"/><feGaussianBlur result="effect1_foregroundBlur_7000_4934" stdDeviation="1"/></filter><filter id="b" color-interpolation-filters="sRGB" filterUnits="userSpaceOnUse" height="13.501" width="12.2435" x="4.57236" y="6.16772"><feFlood flood-opacity="0" result="BackgroundImageFix"/><feBlend in="SourceGraphic" in2="BackgroundImageFix" mode="normal" result="shape"/><feGaussianBlur result="effect1_foregroundBlur_7000_4934" stdDeviation=".5"/></filter><filter id="c" color-interpolation-filters="sRGB" filterUnits="userSpaceOnUse" height="13.3162" width="11.054" x="15.0031" y="6.97339"><feFlood flood-opacity="0" result="BackgroundImageFix"/><feBlend in="SourceGraphic" in2="BackgroundImageFix" mode="normal" result="shape"/><feGaussianBlur result="effect1_foregroundBlur_7000_4934" stdDeviation=".5"/></filter><filter id="d" color-interpolation-filters="sRGB" filterUnits="userSpaceOnUse" height="16.2545" width="11.6027" x="3.15048" y="9.40234"><feFlood flood-opacity="0" result="BackgroundImageFix"/><feBlend in="SourceGraphic" in2="BackgroundImageFix" mode="normal" result="shape"/><feGaussianBlur result="effect1_foregroundBlur_7000_4934" stdDeviation=".5"/></filter><filter id="e" color-interpolation-filters="sRGB" filterUnits="userSpaceOnUse" height="10.7224" width="9.50357" x="18.203" y="9.28101"><feFlood flood-opacity="0" result="BackgroundImageFix"/><feBlend in="SourceGraphic" in2="BackgroundImageFix" mode="normal" result="shape"/><feGaussianBlur result="effect1_foregroundBlur_7000_4934" stdDeviation="1"/></filter><filter id="f" color-interpolation-filters="sRGB" filterUnits="userSpaceOnUse" height="11.2134" width="8.20587" x="8.61398" y="10.0031"><feFlood flood-opacity="0" result="BackgroundImageFix"/><feBlend in="SourceGraphic" in2="BackgroundImageFix" mode="normal" result="shape"/><feGaussianBlur result="effect1_foregroundBlur_7000_4934" stdDeviation=".5"/></filter><filter id="g" color-interpolation-filters="sRGB" filterUnits="userSpaceOnUse" height="12.8171" width="9.96597" x="7.03717" y="12.8086"><feFlood flood-opacity="0" result="BackgroundImageFix"/><feBlend in="SourceGraphic" in2="BackgroundImageFix" mode="normal" result="shape"/><feGaussianBlur result="effect1_foregroundBlur_7000_4934" stdDeviation=".5"/></filter><filter id="h" color-interpolation-filters="sRGB" filterUnits="userSpaceOnUse" height="14.4248" width="10.3283" x="13.8469" y="11.0632"><feFlood flood-opacity="0" result="BackgroundImageFix"/><feBlend in="SourceGraphic" in2="BackgroundImageFix" mode="normal" result="shape"/><feGaussianBlur result="effect1_foregroundBlur_7000_4934" stdDeviation="1"/></filter><filter id="i" color-interpolation-filters="sRGB" filterUnits="userSpaceOnUse" height="1.95581" width="2.32136" x="19.0679" y="13.1719"><feFlood flood-opacity="0" result="BackgroundImageFix"/><feBlend in="SourceGraphic" in2="BackgroundImageFix" mode="normal" result="shape"/><feGaussianBlur result="effect1_foregroundBlur_7000_4934" stdDeviation=".25"/></filter><filter id="j" color-interpolation-filters="sRGB" filterUnits="userSpaceOnUse" height="5.30713" width="5.75808" x="17.4953" y="14.1155"><feFlood flood-opacity="0" result="BackgroundImageFix"/><feBlend in="SourceGraphic" in2="BackgroundImageFix" mode="normal" result="shape"/><feGaussianBlur result="effect1_foregroundBlur_7000_4934" stdDeviation=".5"/></filter><filter id="k" color-interpolation-filters="sRGB" filterUnits="userSpaceOnUse" height="7.72961" width="5.52556" x="10.9853" y="13.8517"><feFlood flood-opacity="0" result="BackgroundImageFix"/><feBlend in="SourceGraphic" in2="BackgroundImageFix" mode="normal" result="shape"/><feGaussianBlur result="effect1_foregroundBlur_7000_4934" stdDeviation=".5"/></filter><filter id="l" color-interpolation-filters="sRGB" filterUnits="userSpaceOnUse" height="6.4762" width="5.88758" x="16.2411" y="17.7657"><feFlood flood-opacity="0" result="BackgroundImageFix"/><feBlend in="SourceGraphic" in2="BackgroundImageFix" mode="normal" result="shape"/><feGaussianBlur result="effect1_foregroundBlur_7000_4934" stdDeviation=".25"/></filter><radialGradient id="m" cx="0" cy="0" gradientTransform="matrix(-13.31248363 -27.12501255 67.43598586 -33.0964071 21.9406 33.2821)" gradientUnits="userSpaceOnUse" r="1"><stop offset=".270833" stop-color="#ffbbe4"/><stop offset="1" stop-color="#f9f"/></radialGradient><radialGradient id="n" cx="0" cy="0" gradientTransform="matrix(-21.24996551 -17.43753405 14.17918085 -17.2792267 21.6281 25.0946)" gradientUnits="userSpaceOnUse" r="1"><stop offset=".758617" stop-color="#cb90c8" stop-opacity="0"/><stop offset=".896933" stop-color="#cb90c8"/></radialGradient><radialGradient id="o" cx="0" cy="0" gradientTransform="matrix(-.56251063 20.56250738 -23.69383592 -.64817166 16.9406 10.7821)" gradientUnits="userSpaceOnUse" r="1"><stop offset=".758617" stop-color="#ffa5d9" stop-opacity="0"/><stop offset=".896933" stop-color="#ffa5d9"/></radialGradient><radialGradient id="p" cx="0" cy="0" gradientTransform="matrix(5.53124641 -4.03125137 1.39517877 1.91431316 19.2219 9.68819)" gradientUnits="userSpaceOnUse" r="1"><stop offset=".640979" stop-color="#cb90c8" stop-opacity="0"/><stop offset="1" stop-color="#cb90c8"/></radialGradient><linearGradient id="q"><stop offset="0" stop-color="#ffd9f0"/><stop offset="1" stop-color="#ffd9f0" stop-opacity="0"/></linearGradient><radialGradient id="r" cx="0" cy="0" gradientTransform="matrix(-7.12912574 9.66405965 -4.86359931 -3.58785151 29.6291 7.63457)" gradientUnits="userSpaceOnUse" r="1" xlink:href="#q"/><radialGradient id="s" cx="0" cy="0" gradientTransform="matrix(-6.12941242 8.10659438 -5.23668608 -3.95946894 14.8836 6.69673)" gradientUnits="userSpaceOnUse" r="1" xlink:href="#q"/><radialGradient id="t" cx="0" cy="0" gradientTransform="matrix(-3.6891701 -26.31445571 65.42091105 -9.17172188 16.5335 31.8156)" gradientUnits="userSpaceOnUse" r="1"><stop offset=".29664" stop-color="#ff7eb4"/><stop offset=".791667" stop-color="#ff70d7"/><stop offset="1" stop-color="#ff71e8"/></radialGradient><radialGradient id="u" cx="0" cy="0" gradientTransform="matrix(1.10708618 22.11390537 -18.978532 .95012031 14.9734 12.6683)" gradientUnits="userSpaceOnUse" r="1"><stop offset=".634872" stop-color="#ffbfce" stop-opacity="0"/><stop offset=".833898" stop-color="#ffbfce"/></radialGradient><linearGradient id="v"><stop offset=".766579" stop-color="#ffa9bd" stop-opacity="0"/><stop offset=".933184" stop-color="#ffa9bd"/></linearGradient><radialGradient id="w" cx="0" cy="0" gradientTransform="matrix(11.25770776 10.57032326 -25.31972455 26.96625756 12.6685 15.9904)" gradientUnits="userSpaceOnUse" r="1" xlink:href="#v"/><linearGradient id="x"><stop offset=".649211" stop-color="#ffa9bd" stop-opacity="0"/><stop offset=".909941" stop-color="#ffa9bd"/></linearGradient><radialGradient id="y" cx="0" cy="0" gradientTransform="matrix(16.34814698 -5.80231916 8.50130251 23.95258499 16.3733 19.7103)" gradientUnits="userSpaceOnUse" r="1" xlink:href="#x"/><linearGradient id="z"><stop offset=".786458" stop-color="#d5246b" stop-opacity="0"/><stop offset="1" stop-color="#d5246b"/></linearGradient><radialGradient id="A" cx="0" cy="0" gradientTransform="matrix(-13.8074141 -9.87347817 9.12539398 -12.76126724 17.8809 20.6271)" gradientUnits="userSpaceOnUse" r="1" xlink:href="#z"/><radialGradient id="B" cx="0" cy="0" gradientTransform="matrix(4.4374989 -4.25000008 2.17917277 2.27531214 19.1906 12.9694)" gradientUnits="userSpaceOnUse" r="1"><stop offset=".786458" stop-color="#d66dc4" stop-opacity="0"/><stop offset="1" stop-color="#da68c7"/></radialGradient><linearGradient id="C"><stop offset="0" stop-color="#ffbee5"/><stop offset="1" stop-color="#ffbee5" stop-opacity="0"/></linearGradient><radialGradient id="D" cx="0" cy="0" gradientTransform="matrix(-4.89560688 6.63635888 -3.33987088 -2.4638051 25.9736 10.7913)" gradientUnits="userSpaceOnUse" r="1" xlink:href="#C"/><radialGradient id="E" cx="0" cy="0" gradientTransform="matrix(-4.86882695 6.43937828 -4.15972067 -3.14517322 16.2433 10.7066)" gradientUnits="userSpaceOnUse" r="1" xlink:href="#C"/><radialGradient id="F" cx="0" cy="0" gradientTransform="matrix(.37501249 -18.06250743 31.37183919 .65133988 15.9328 29.6101)" gradientUnits="userSpaceOnUse" r="1"><stop offset="0" stop-color="#f12e52"/><stop offset=".596003" stop-color="#ff3b79"/><stop offset="1" stop-color="#ff4ec6"/></radialGradient><radialGradient id="G" cx="0" cy="0" gradientTransform="matrix(1.6250051 11.93750494 -11.7980907 1.60602719 14.4953 16.9851)" gradientUnits="userSpaceOnUse" r="1"><stop offset=".634872" stop-color="#ffa9bd" stop-opacity="0"/><stop offset=".833898" stop-color="#ffa9bd"/></radialGradient><radialGradient id="H" cx="0" cy="0" gradientTransform="matrix(7.00745158 6.66229317 -16.13108608 16.96680133 13.7826 17.5876)" gradientUnits="userSpaceOnUse" r="1" xlink:href="#v"/><radialGradient id="I" cx="0" cy="0" gradientTransform="matrix(10.24279846 -3.72819523 5.48256962 15.06274545 16.0879 19.9331)" gradientUnits="userSpaceOnUse" r="1" xlink:href="#x"/><radialGradient id="J" cx="0" cy="0" gradientTransform="matrix(-9.75006263 -6.12498026 5.22089098 -8.31088622 18.6203 20.7351)" gradientUnits="userSpaceOnUse" r="1" xlink:href="#z"/><radialGradient id="K" cx="0" cy="0" gradientTransform="matrix(.84375208 1.04687674 -2.98699767 2.40743289 17.8 14.9225)" gradientUnits="userSpaceOnUse" r="1"><stop offset=".62" stop-color="#d5246b" stop-opacity="0"/><stop offset="1" stop-color="#d5246b"/></radialGradient><linearGradient id="L" gradientUnits="userSpaceOnUse" x1=".960042" x2=".095429" y1="-.164316" y2="-.069496"><stop offset="0" stop-color="#ff7dcb"/><stop offset="1" stop-color="#ff7dcb" stop-opacity="0"/></linearGradient><linearGradient id="M" gradientUnits="userSpaceOnUse" x1="22.5089" x2="17.7238" y1="15.6058" y2="15.5357"><stop offset="0" stop-color="#ffa2da"/><stop offset="1" stop-color="#ffa1da" stop-opacity="0"/></linearGradient><linearGradient id="N" gradientUnits="userSpaceOnUse" x1="15.744" x2="13.0342" y1="18.4014" y2="14.4819"><stop offset="0" stop-color="#ff7dcb" stop-opacity=".6"/><stop offset="1" stop-color="#ff7dcb" stop-opacity="0"/></linearGradient><linearGradient id="O" gradientUnits="userSpaceOnUse" x1="17.8393" x2="21.9332" y1="21.6198" y2="20.5967"><stop offset="0" stop-color="#dd2345" stop-opacity="0"/><stop offset=".544604" stop-color="#e72044"/><stop offset="1" stop-color="#d12847"/></linearGradient><path d="m15.2171 30.8932c.3111.1742.6814.184 1.0028.0294 3.9395-1.8951 10.3241-6.8977 13.0065-13.1868 3.4271-8.03512-4.8777-14.36754-10.9683-9.97811-.6433.4636-1.3909 1.05744-1.9114 1.59544-.2272.23479-.6295.25335-.872.03447-.6868-.61992-1.7546-1.38973-2.4806-1.88871-5.14813-3.53861-13.936892 1.01599-10.27789 10.10491 1.60981 4.9853 8.67819 11.1484 12.50089 13.2894z" fill="url(#m)"/><path d="m15.2171 30.8932c.3111.1742.6814.184 1.0028.0294 3.9395-1.8951 10.3241-6.8977 13.0065-13.1868 3.4271-8.03512-4.8777-14.36754-10.9683-9.97811-.6433.4636-1.3909 1.05744-1.9114 1.59544-.2272.23479-.6295.25335-.872.03447-.6868-.61992-1.7546-1.38973-2.4806-1.88871-5.14813-3.53861-13.936892 1.01599-10.27789 10.10491 1.60981 4.9853 8.67819 11.1484 12.50089 13.2894z" fill="url(#n)"/><path d="m15.2171 30.8932c.3111.1742.6814.184 1.0028.0294 3.9395-1.8951 10.3241-6.8977 13.0065-13.1868 3.4271-8.03512-4.8777-14.36754-10.9683-9.97811-.6433.4636-1.3909 1.05744-1.9114 1.59544-.2272.23479-.6295.25335-.872.03447-.6868-.61992-1.7546-1.38973-2.4806-1.88871-5.14813-3.53861-13.936892 1.01599-10.27789 10.10491 1.60981 4.9853 8.67819 11.1484 12.50089 13.2894z" fill="url(#o)"/><path d="m15.3781 9.31319.4751.41712c.4358.38269 1.1055.31429 1.5174-.09387 1.2736-1.26191 3.4885-2.73671 6.4232-3.20932-1.8036-.31623-3.7634.05318-5.5357 1.33045-.6433.4636-1.3909 1.05744-1.9114 1.59544-.2272.23479-.6294.25335-.872.03447-.0314-.02836-.0636-.05704-.0966-.08599z" fill="url(#p)"/><g filter="url(#a)"><path d="m21.2258 14.9527 2.9829-7.76473c3.3881.56469 7.1029 4.99543 4.4983 10.01053-.787 1.5154-2.7042 1.8633-4.2704 1.183l-2.7629-1.2002z" fill="url(#r)"/></g><g filter="url(#b)"><path d="m15.8156 12.8445-1.4651 5.8242-8.77814-10.74203c6.62504-2.75003 10.27774 2.69093 10.24324 4.91783z" fill="url(#s)" fill-opacity=".6"/></g><g filter="url(#c)"><path d="m16.0031 10.9382v6.7812c1.8438 1.9792 4.9474 2.3327 7-.375 2.9375-3.875 2.9063-8.21875-1.2812-9.24999-2.8263-.69603-5.0208 1.79166-5.7188 2.84379z" fill="#ff8cf4" fill-opacity=".6"/></g><g filter="url(#d)"><path d="m4.30629 12.8132c.64256-2.682 3.84374-2.75 4.4375-2l5.00931 13.8437c-8.62496-3.4375-10.16557-8.8437-9.44681-11.8437z" fill="#e65c9c" fill-opacity=".6"/></g><path d="m15.3582 28.463c.3374.1969.7508.1903 1.09-.0037 2.999-1.7154 7.8603-5.3585 9.9535-10.2661 2.7222-6.3826-3.8746-11.41275-8.7126-7.926-.4799.3458-1.015.8722-1.4128 1.3295-.2144.2465-.614.2661-.8507.041-.5556-.5282-1.3694-1.1991-1.9179-1.5761-4.0894-2.81088-11.07069.807-8.16419 8.0268 1.16256 3.4641 6.91199 8.564 10.01469 10.3746z" fill="url(#t)"/><path d="m15.3582 28.463c.3374.1969.7508.1903 1.09-.0037 2.999-1.7154 7.8603-5.3585 9.9535-10.2661 2.7222-6.3826-3.8746-11.41275-8.7126-7.926-.4799.3458-1.015.8722-1.4128 1.3295-.2144.2465-.614.2661-.8507.041-.5556-.5282-1.3694-1.1991-1.9179-1.5761-4.0894-2.81088-11.07069.807-8.16419 8.0268 1.16256 3.4641 6.91199 8.564 10.01469 10.3746z" fill="url(#u)"/><path d="m15.3582 28.463c.3374.1969.7508.1903 1.09-.0037 2.999-1.7154 7.8603-5.3585 9.9535-10.2661 2.7222-6.3826-3.8746-11.41275-8.7126-7.926-.4799.3458-1.015.8722-1.4128 1.3295-.2144.2465-.614.2661-.8507.041-.5556-.5282-1.3694-1.1991-1.9179-1.5761-4.0894-2.81088-11.07069.807-8.16419 8.0268 1.16256 3.4641 6.91199 8.564 10.01469 10.3746z" fill="url(#w)"/><path d="m15.3582 28.463c.3374.1969.7508.1903 1.09-.0037 2.999-1.7154 7.8603-5.3585 9.9535-10.2661 2.7222-6.3826-3.8746-11.41275-8.7126-7.926-.4799.3458-1.015.8722-1.4128 1.3295-.2144.2465-.614.2661-.8507.041-.5556-.5282-1.3694-1.1991-1.9179-1.5761-4.0894-2.81088-11.07069.807-8.16419 8.0268 1.16256 3.4641 6.91199 8.564 10.01469 10.3746z" fill="url(#y)"/><path d="m15.3582 28.463c.3374.1969.7508.1903 1.09-.0037 2.999-1.7154 7.8603-5.3585 9.9535-10.2661 2.7222-6.3826-3.8746-11.41275-8.7126-7.926-.4799.3458-1.015.8722-1.4128 1.3295-.2144.2465-.614.2661-.8507.041-.5556-.5282-1.3694-1.1991-1.9179-1.5761-4.0894-2.81088-11.07069.807-8.16419 8.0268 1.16256 3.4641 6.91199 8.564 10.01469 10.3746z" fill="url(#A)"/><path d="m15.3456 11.5623c.6953.7191 1.9037.6097 2.643-.0643 1.0306-.9395 2.5312-1.89231 4.4009-2.22599-1.5141-.35091-3.1927-.09148-4.7004.99519-.4799.3458-1.015.8722-1.4128 1.3295-.2144.2465-.614.2661-.8507.041-.0262-.0248-.0528-.05-.08-.0754z" fill="url(#B)"/><g filter="url(#e)"><path d="m20.203 15.8168 3.2149-4.5358c1.2171.4212 2.7386 2.1912 2.1631 4.7935-.4051 1.8317-2.6004 2.3456-4.3211 1.5982l-.7494-.3256z" fill="url(#D)"/></g><g filter="url(#f)"><path d="m15.7905 14.3967.0293 5.8198-6.20582-8.1674c2.79472-2.7443 6.20392.5787 6.17652 2.3476z" fill="url(#E)" fill-opacity=".6"/></g><g filter="url(#g)"><path d="m8.12814 16.2194c.64257-2.682 3.84376-2.75 4.43746-2l3.4375 10.4063c-4.9687-2.3125-8.59371-5.4063-7.87496-8.4063z" fill="#c82873" fill-opacity=".6"/></g><g filter="url(#h)"><path d="m21.7559 14.9081c-2.5023-3.2861-5.4978-1.3265-5.909-.603v9.1829c3.4412-2.231 7.6881-6.2435 5.909-8.5799z" fill="#fa3cc0"/></g><path d="m15.3976 25.4656c.2264.1346.5066.1295.7349-.0021 1.9017-1.0957 5.0831-3.3637 6.4022-6.467 1.8999-3.9708-2.4341-7.2366-5.4709-5.012-.325.238-.7636.5863-1.0518.881-.115.1176-.3171.1243-.4297.0042-.3405-.363-.8771-.8776-1.2393-1.1288-2.5487-1.7682-7.2326.2646-5.29235 5.0906.71295 2.1816 4.39035 5.4714 6.34695 6.6341z" fill="url(#F)"/><path d="m15.3976 25.4656c.2264.1346.5066.1295.7349-.0021 1.9017-1.0957 5.0831-3.3637 6.4022-6.467 1.8999-3.9708-2.4341-7.2366-5.4709-5.012-.325.238-.7636.5863-1.0518.881-.115.1176-.3171.1243-.4297.0042-.3405-.363-.8771-.8776-1.2393-1.1288-2.5487-1.7682-7.2326.2646-5.29235 5.0906.71295 2.1816 4.39035 5.4714 6.34695 6.6341z" fill="url(#G)"/><path d="m15.3976 25.4656c.2264.1346.5066.1295.7349-.0021 1.9017-1.0957 5.0831-3.3637 6.4022-6.467 1.8999-3.9708-2.4341-7.2366-5.4709-5.012-.325.238-.7636.5863-1.0518.881-.115.1176-.3171.1243-.4297.0042-.3405-.363-.8771-.8776-1.2393-1.1288-2.5487-1.7682-7.2326.2646-5.29235 5.0906.71295 2.1816 4.39035 5.4714 6.34695 6.6341z" fill="url(#H)"/><path d="m15.3976 25.4656c.2264.1346.5066.1295.7349-.0021 1.9017-1.0957 5.0831-3.3637 6.4022-6.467 1.8999-3.9708-2.4341-7.2366-5.4709-5.012-.325.238-.7636.5863-1.0518.881-.115.1176-.3171.1243-.4297.0042-.3405-.363-.8771-.8776-1.2393-1.1288-2.5487-1.7682-7.2326.2646-5.29235 5.0906.71295 2.1816 4.39035 5.4714 6.34695 6.6341z" fill="url(#I)"/><path d="m15.3976 25.4656c.2264.1346.5066.1295.7349-.0021 1.9017-1.0957 5.0831-3.3637 6.4022-6.467 1.8999-3.9708-2.4341-7.2366-5.4709-5.012-.325.238-.7636.5863-1.0518.881-.115.1176-.3171.1243-.4297.0042-.3405-.363-.8771-.8776-1.2393-1.1288-2.5487-1.7682-7.2326.2646-5.29235 5.0906.71295 2.1816 4.39035 5.4714 6.34695 6.6341z" fill="url(#J)"/><path d="m19.6218 13.2847c-.9276.2934-1.7343.915-2.328 1.5256-.4341.4464-1.1689.5264-1.6217.1223.1112.0482.2514.0234.34-.0672.2881-.2947.7267-.6429 1.0517-.8809.8081-.592 1.7081-.7952 2.558-.6998z" fill="url(#K)"/><g filter="url(#i)"><ellipse fill="url(#L)" rx=".691795" ry=".431329" transform="matrix(-.923789 -.382901 -.387038 .922064 20.2285 14.1498)"/></g><g filter="url(#j)"><path d="m18.4953 17.4539 3.166-2.3384c.5188.6681.709 1.2759.5215 2.3384l-3.5.9687z" fill="url(#M)"/></g><g filter="url(#k)"><path d="m15.2745 16.71.2364 3.8713-3.5256-4.9881c1.7566-1.7477 3.3119-.0042 3.2892 1.1168z" fill="url(#N)"/></g><g filter="url(#l)"><path d="m21.5036 18.3908c-.4124.8632-1.9172 3.117-4.6375 5.2262" stroke="url(#O)" stroke-linecap="round" stroke-width=".25"/></g></svg>