<svg fill="none" height="32" viewBox="0 0 32 32" width="32" xmlns="http://www.w3.org/2000/svg" xmlns:xlink="http://www.w3.org/1999/xlink"><linearGradient id="a"><stop offset="0" stop-color="#fff478"/><stop offset=".474827" stop-color="#ffb02e"/><stop offset="1" stop-color="#f70a8d"/></linearGradient><radialGradient id="b" cx="0" cy="0" gradientTransform="matrix(-25.50001559 27.49994029 -27.49994029 -25.50001559 25.5 9)" gradientUnits="userSpaceOnUse" r="1" xlink:href="#a"/><radialGradient id="c" cx="0" cy="0" gradientTransform="matrix(-26.00007659 28.99995257 -28.99995257 -26.00007659 25.5 9)" gradientUnits="userSpaceOnUse" r="1" xlink:href="#a"/><radialGradient id="d" cx="0" cy="0" gradientTransform="matrix(-3.50002684 17.50002696 -22.41420586 -4.48286864 16 12.5)" gradientUnits="userSpaceOnUse" r="1"><stop offset=".787821" stop-color="#f59639" stop-opacity="0"/><stop offset=".972509" stop-color="#ff7dce"/></radialGradient><radialGradient id="e" cx="0" cy="0" gradientTransform="matrix(-29.00000473 29.00000473 -29.00000473 -29.00000473 18 14)" gradientUnits="userSpaceOnUse" r="1"><stop offset=".314853" stop-opacity="0"/><stop offset="1"/></radialGradient><radialGradient id="f" cx="0" cy="0" gradientTransform="matrix(5.99998476 27.49996659 -27.49996659 5.99998476 16 17)" gradientUnits="userSpaceOnUse" r="1"><stop offset=".507903" stop-color="#7d6133" stop-opacity="0"/><stop offset="1" stop-color="#715b32"/></radialGradient><radialGradient id="g" cx="0" cy="0" gradientTransform="matrix(7.49998923 10.99997471 -7.97335607 5.43638383 16.5 16.5)" gradientUnits="userSpaceOnUse" r="1"><stop offset="0" stop-color="#ffb849"/><stop offset="1" stop-color="#ffb847" stop-opacity="0"/></radialGradient><radialGradient id="h" cx="0" cy="0" gradientTransform="matrix(11.49998262 1.99999761 -1.99999761 11.49998262 20.5 18)" gradientUnits="userSpaceOnUse" r="1"><stop offset="0" stop-color="#ffa64b"/><stop offset=".900412" stop-color="#ffae46" stop-opacity="0"/></radialGradient><radialGradient id="i" cx="0" cy="0" gradientTransform="matrix(42.50000186 40.99993707 -40.99993707 42.50000186 17.5 15)" gradientUnits="userSpaceOnUse" r="1"><stop offset=".185425" stop-opacity="0"/><stop offset="1" stop-opacity=".4"/></radialGradient><linearGradient id="j"><stop offset="0" stop-color="#392108"/><stop offset="1" stop-color="#c87928" stop-opacity="0"/></linearGradient><radialGradient id="k" cx="0" cy="0" gradientTransform="matrix(-6.43876586 6.43876586 -3.33248819 -3.33248819 12.6518 9.7857)" gradientUnits="userSpaceOnUse" r="1" xlink:href="#j"/><radialGradient id="l" cx="0" cy="0" gradientTransform="matrix(-5.42328274 5.42328274 -3.06153195 -3.06153195 22.5454 10.642)" gradientUnits="userSpaceOnUse" r="1" xlink:href="#j"/><linearGradient id="m" gradientUnits="userSpaceOnUse" x1="16.5" x2="15.5" y1="8" y2="15"><stop offset="0" stop-color="#553b3e"/><stop offset="1" stop-color="#3d2432"/></linearGradient><radialGradient id="n" cx="0" cy="0" gradientTransform="matrix(6.33008 0 0 7.26524 16.6699 20.96)" gradientUnits="userSpaceOnUse" r="1"><stop offset="0" stop-color="#3e3537"/><stop offset=".313085" stop-color="#523a4f"/><stop offset=".675586" stop-color="#6a5763"/></radialGradient><linearGradient id="o" gradientUnits="userSpaceOnUse" x1="19" x2="20.5" y1="21" y2="20.5"><stop offset="0" stop-color="#664f62" stop-opacity="0"/><stop offset="1" stop-color="#765d72"/></linearGradient><mask id="p" fill="#fff"><path clip-rule="evenodd" d="m17.6699 16.92c-.5523 0-1 .4477-1 1s.4477 1 1 1c.2877 0 .52.2323.52.52s-.2323.52-.52.52c-.5523 0-1 .4477-1 1 0 .5523.4477 1 1 1 .2877 0 .52.2323.52.52s-.2323.52-.52.52c-.5523 0-1 .4477-1 1s.4477 1 1 1c1.3923 0 2.52-1.1277 2.52-2.52 0-.571-.1897-1.0975-.5095-1.52.3198-.4225.5095-.949.5095-1.52 0-1.3923-1.1277-2.52-2.52-2.52z" fill="#fff" fill-rule="evenodd"/></mask><path d="m15.9989 29.9978c9.3344 0 13.9989-6.2675 13.9989-13.9989 0-7.73139-4.6645-13.9989-13.9989-13.9989-9.33447 0-13.9989 6.26751-13.9989 13.9989 0 7.7314 4.66443 13.9989 13.9989 13.9989z" fill="url(#b)"/><path d="m15.9989 29.9978c9.3344 0 13.9989-6.2675 13.9989-13.9989 0-7.73139-4.6645-13.9989-13.9989-13.9989-9.33447 0-13.9989 6.26751-13.9989 13.9989 0 7.7314 4.66443 13.9989 13.9989 13.9989z" fill="url(#c)"/><path d="m15.9989 29.9978c9.3344 0 13.9989-6.2675 13.9989-13.9989 0-7.73139-4.6645-13.9989-13.9989-13.9989-9.33447 0-13.9989 6.26751-13.9989 13.9989 0 7.7314 4.66443 13.9989 13.9989 13.9989z" fill="url(#d)"/><path d="m15.9989 29.9978c9.3344 0 13.9989-6.2675 13.9989-13.9989 0-7.73139-4.6645-13.9989-13.9989-13.9989-9.33447 0-13.9989 6.26751-13.9989 13.9989 0 7.7314 4.66443 13.9989 13.9989 13.9989z" fill="url(#e)" fill-opacity=".6"/><path d="m15.9989 29.9978c9.3344 0 13.9989-6.2675 13.9989-13.9989 0-7.73139-4.6645-13.9989-13.9989-13.9989-9.33447 0-13.9989 6.26751-13.9989 13.9989 0 7.7314 4.66443 13.9989 13.9989 13.9989z" fill="url(#f)"/><path d="m15.9989 29.9978c9.3344 0 13.9989-6.2675 13.9989-13.9989 0-7.73139-4.6645-13.9989-13.9989-13.9989-9.33447 0-13.9989 6.26751-13.9989 13.9989 0 7.7314 4.66443 13.9989 13.9989 13.9989z" fill="url(#g)"/><path d="m15.9989 29.9978c9.3344 0 13.9989-6.2675 13.9989-13.9989 0-7.73139-4.6645-13.9989-13.9989-13.9989-9.33447 0-13.9989 6.26751-13.9989 13.9989 0 7.7314 4.66443 13.9989 13.9989 13.9989z" fill="url(#h)"/><path d="m15.9989 29.9978c9.3344 0 13.9989-6.2675 13.9989-13.9989 0-7.73139-4.6645-13.9989-13.9989-13.9989-9.33447 0-13.9989 6.26751-13.9989 13.9989 0 7.7314 4.66443 13.9989 13.9989 13.9989z" fill="url(#i)"/><circle cx="9.01705" cy="13.4205" fill="url(#k)" r="4.6733"/><circle cx="19.2443" cy="13.9432" fill="url(#l)" r="4.24431"/><path d="m10.4191 16.2244c2.3229 0 4.206-1.883 4.206-4.2059 0-2.32293-1.8831-4.206-4.206-4.206-2.32289 0-4.20597 1.88307-4.20597 4.206 0 2.3229 1.88308 4.2059 4.20597 4.2059z" fill="#fff"/><path d="m21.5683 16.3011c2.344 0 4.2443-1.9002 4.2443-4.2443 0-2.34406-1.9003-4.2443-4.2443-4.2443-2.3441 0-4.2443 1.90024-4.2443 4.2443 0 2.3441 1.9002 4.2443 4.2443 4.2443z" fill="#fff"/><path d="m11 15c1.6569 0 3-1.3431 3-3s-1.3431-3-3-3c-1.65685 0-3 1.3431-3 3s1.34315 3 3 3z" fill="url(#m)"/><path d="m21 15c1.6569 0 3-1.3431 3-3s-1.3431-3-3-3-3 1.3431-3 3 1.3431 3 3 3z" fill="url(#m)"/><path clip-rule="evenodd" d="m17.6699 16.92c-.5523 0-1 .4477-1 1s.4477 1 1 1c.2877 0 .52.2323.52.52s-.2323.52-.52.52c-.5523 0-1 .4477-1 1 0 .5523.4477 1 1 1 .2877 0 .52.2323.52.52s-.2323.52-.52.52c-.5523 0-1 .4477-1 1s.4477 1 1 1c1.3923 0 2.52-1.1277 2.52-2.52 0-.571-.1897-1.0975-.5095-1.52.3198-.4225.5095-.949.5095-1.52 0-1.3923-1.1277-2.52-2.52-2.52z" fill="url(#n)" fill-rule="evenodd"/><path d="m19.6804 20.96-.3987-.3018-.2284.3018.2284.3018zm-2.5105-3.04c0-.2762.2239-.5.5-.5v-1c-.8284 0-1.5.6716-1.5 1.5zm.5.5c-.2761 0-.5-.2239-.5-.5h-1c0 .8284.6716 1.5 1.5 1.5zm1.02 1.02c0-.5639-.4561-1.02-1.02-1.02v1c.0116 0 .02.0084.02.02zm-1.02 1.02c.5639 0 1.02-.4562 1.02-1.02h-1c0 .0116-.0084.02-.02.02zm-.5.5c0-.2762.2239-.5.5-.5v-1c-.8284 0-1.5.6716-1.5 1.5zm0 0h-1zm.5.5c-.2761 0-.5-.2238-.5-.5h-1c0 .8284.6716 1.5 1.5 1.5zm1.02 1.02c0-.5638-.4561-1.02-1.02-1.02v1c.0116 0 .02.0084.02.02zm-1.02 1.02c.5639 0 1.02-.4561 1.02-1.02h-1c0 .0116-.0084.02-.02.02zm-.5.5c0-.2761.2239-.5.5-.5v-1c-.8284 0-1.5.6716-1.5 1.5zm.5.5c-.2761 0-.5-.2238-.5-.5h-1c0 .8284.6716 1.5 1.5 1.5zm2.02-2.02c0 1.1162-.9038 2.02-2.02 2.02v1c1.6684 0 3.02-1.3516 3.02-3.02zm-.4082-1.2182c.2564.3386.4082.7598.4082 1.2182h1c0-.6836-.2275-1.3154-.6109-1.8218zm.4082-1.8218c0 .4584-.1518.8796-.4082 1.2182l.7973.6036c.3834-.5064.6109-1.1382.6109-1.8218zm-2.02-2.02c1.1162 0 2.02.9038 2.02 2.02h1c0-1.6684-1.3516-3.02-3.02-3.02z" fill="url(#o)" mask="url(#p)"/></svg>