<svg fill="none" height="32" viewBox="0 0 32 32" width="32" xmlns="http://www.w3.org/2000/svg" xmlns:xlink="http://www.w3.org/1999/xlink"><filter id="a" color-interpolation-filters="sRGB" filterUnits="userSpaceOnUse" height="9.59375" width="6.65625" x="23.8309" y="4.68854"><feFlood flood-opacity="0" result="BackgroundImageFix"/><feBlend in="SourceGraphic" in2="BackgroundImageFix" mode="normal" result="shape"/><feGaussianBlur result="effect1_foregroundBlur_28327_2478" stdDeviation=".5"/></filter><filter id="b" color-interpolation-filters="sRGB" filterUnits="userSpaceOnUse" height="12.775" width="6.29636" x="16.997" y="15.2263"><feFlood flood-opacity="0" result="BackgroundImageFix"/><feBlend in="SourceGraphic" in2="BackgroundImageFix" mode="normal" result="shape"/><feColorMatrix in="SourceAlpha" result="hardAlpha" type="matrix" values="0 0 0 0 0 0 0 0 0 0 0 0 0 0 0 0 0 0 127 0"/><feOffset dx=".15"/><feGaussianBlur stdDeviation=".125"/><feComposite in2="hardAlpha" k2="-1" k3="1" operator="arithmetic"/><feColorMatrix type="matrix" values="0 0 0 0 0.533333 0 0 0 0 0.415686 0 0 0 0 0.392157 0 0 0 1 0"/><feBlend in2="shape" mode="normal" result="effect1_innerShadow_28327_2478"/></filter><filter id="c" color-interpolation-filters="sRGB" filterUnits="userSpaceOnUse" height="7.52966" width="10.1453" x="3.01166" y="16"><feFlood flood-opacity="0" result="BackgroundImageFix"/><feBlend in="SourceGraphic" in2="BackgroundImageFix" mode="normal" result="shape"/><feColorMatrix in="SourceAlpha" result="hardAlpha" type="matrix" values="0 0 0 0 0 0 0 0 0 0 0 0 0 0 0 0 0 0 127 0"/><feOffset dx=".15"/><feGaussianBlur stdDeviation=".125"/><feComposite in2="hardAlpha" k2="-1" k3="1" operator="arithmetic"/><feColorMatrix type="matrix" values="0 0 0 0 0.533333 0 0 0 0 0.415686 0 0 0 0 0.392157 0 0 0 1 0"/><feBlend in2="shape" mode="normal" result="effect1_innerShadow_28327_2478"/></filter><filter id="d" color-interpolation-filters="sRGB" filterUnits="userSpaceOnUse" height="6.41877" width="4.88752" x="3.56948" y="16.5554"><feFlood flood-opacity="0" result="BackgroundImageFix"/><feBlend in="SourceGraphic" in2="BackgroundImageFix" mode="normal" result="shape"/><feGaussianBlur result="effect1_foregroundBlur_28327_2478" stdDeviation=".2"/></filter><filter id="e" color-interpolation-filters="sRGB" filterUnits="userSpaceOnUse" height="28.2502" width="25.9631" x="2.01843" y="2.00104"><feFlood flood-opacity="0" result="BackgroundImageFix"/><feBlend in="SourceGraphic" in2="BackgroundImageFix" mode="normal" result="shape"/><feColorMatrix in="SourceAlpha" result="hardAlpha" type="matrix" values="0 0 0 0 0 0 0 0 0 0 0 0 0 0 0 0 0 0 127 0"/><feOffset dy=".25"/><feGaussianBlur stdDeviation=".375"/><feComposite in2="hardAlpha" k2="-1" k3="1" operator="arithmetic"/><feColorMatrix type="matrix" values="0 0 0 0 0.423529 0 0 0 0 0.262745 0 0 0 0 0.231373 0 0 0 1 0"/><feBlend in2="shape" mode="normal" result="effect1_innerShadow_28327_2478"/></filter><filter id="f" color-interpolation-filters="sRGB" filterUnits="userSpaceOnUse" height="7.8125" width="5.60938" x="17.0028" y="20.626"><feFlood flood-opacity="0" result="BackgroundImageFix"/><feBlend in="SourceGraphic" in2="BackgroundImageFix" mode="normal" result="shape"/><feGaussianBlur result="effect1_foregroundBlur_28327_2478" stdDeviation=".5"/></filter><filter id="g" color-interpolation-filters="sRGB" filterUnits="userSpaceOnUse" height="13.5156" width="8.63171" x="5.90906" y="1.45416"><feFlood flood-opacity="0" result="BackgroundImageFix"/><feBlend in="SourceGraphic" in2="BackgroundImageFix" mode="normal" result="shape"/><feGaussianBlur result="effect1_foregroundBlur_28327_2478" stdDeviation=".5"/></filter><filter id="h" color-interpolation-filters="sRGB" filterUnits="userSpaceOnUse" height="15.783" width="9.0625" x="20.1434" y="10.7493"><feFlood flood-opacity="0" result="BackgroundImageFix"/><feBlend in="SourceGraphic" in2="BackgroundImageFix" mode="normal" result="shape"/><feGaussianBlur result="effect1_foregroundBlur_28327_2478" stdDeviation="1"/></filter><filter id="i" color-interpolation-filters="sRGB" filterUnits="userSpaceOnUse" height="14.0598" width="5.63477" x="22.5087" y="16.2823"><feFlood flood-opacity="0" result="BackgroundImageFix"/><feBlend in="SourceGraphic" in2="BackgroundImageFix" mode="normal" result="shape"/><feGaussianBlur result="effect1_foregroundBlur_28327_2478" stdDeviation=".5"/></filter><filter id="j" color-interpolation-filters="sRGB" filterUnits="userSpaceOnUse" height="3.46875" width="2.59375" x="6.56531" y="2.20416"><feFlood flood-opacity="0" result="BackgroundImageFix"/><feBlend in="SourceGraphic" in2="BackgroundImageFix" mode="normal" result="shape"/><feGaussianBlur result="effect1_foregroundBlur_28327_2478" stdDeviation=".125"/></filter><filter id="k" color-interpolation-filters="sRGB" filterUnits="userSpaceOnUse" height="6.38525" width="4.56445" x="7.45398" y="19.2233"><feFlood flood-opacity="0" result="BackgroundImageFix"/><feBlend in="SourceGraphic" in2="BackgroundImageFix" mode="normal" result="shape"/><feGaussianBlur result="effect1_foregroundBlur_28327_2478" stdDeviation=".25"/></filter><filter id="l" color-interpolation-filters="sRGB" filterUnits="userSpaceOnUse" height="3.28223" width="1.13" x="6.97748" y="20.3547"><feFlood flood-opacity="0" result="BackgroundImageFix"/><feBlend in="SourceGraphic" in2="BackgroundImageFix" mode="normal" result="shape"/><feGaussianBlur result="effect1_foregroundBlur_28327_2478" stdDeviation=".125"/></filter><filter id="m" color-interpolation-filters="sRGB" filterUnits="userSpaceOnUse" height="13.3438" width="5.03125" x="5.90906" y="6.297"><feFlood flood-opacity="0" result="BackgroundImageFix"/><feBlend in="SourceGraphic" in2="BackgroundImageFix" mode="normal" result="shape"/><feGaussianBlur result="effect1_foregroundBlur_28327_2478" stdDeviation=".5"/></filter><radialGradient id="n" cx="0" cy="0" gradientTransform="matrix(2.31249727 1.32812347 -1.34622689 2.34401851 26.6122 9.48541)" gradientUnits="userSpaceOnUse" r="1"><stop offset="0" stop-color="#535254" stop-opacity="0"/><stop offset="1" stop-color="#535254"/></radialGradient><linearGradient id="o" gradientUnits="userSpaceOnUse" x1="1.76098" x2="6.08487" y1="9.53515" y2="6.04414"><stop offset=".00558659" stop-color="#dc872a"/><stop offset="1" stop-color="#ffdea7"/></linearGradient><radialGradient id="p" cx="0" cy="0" gradientTransform="matrix(-3.22038047 2.17372819 -4.08888155 -6.05768209 17.8846 6.90655)" gradientUnits="userSpaceOnUse" r="1"><stop offset="0" stop-color="#535253"/><stop offset="1" stop-color="#363335"/></radialGradient><radialGradient id="q" cx="0" cy="0" gradientTransform="matrix(4.21876328 9.53127141 -10.1300392 4.48379189 11.0809 2.65729)" gradientUnits="userSpaceOnUse" r="1"><stop offset=".794641" stop-color="#1e1818" stop-opacity="0"/><stop offset="1" stop-color="#1e1818"/></radialGradient><linearGradient id="r" gradientUnits="userSpaceOnUse" x1="14.4026" x2="11.5244" y1="7.5305" y2="9.24132"><stop offset=".515683" stop-color="#1e1818" stop-opacity="0"/><stop offset="1" stop-color="#1e1818"/></linearGradient><linearGradient id="s"><stop offset="0" stop-color="#5a5a5b"/><stop offset="1" stop-color="#5a5a5b" stop-opacity="0"/></linearGradient><radialGradient id="t" cx="0" cy="0" gradientTransform="matrix(-1.51142573 1.89658688 -1.12443686 -.89608487 13.6392 4.30758)" gradientUnits="userSpaceOnUse" r="1" xlink:href="#s"/><radialGradient id="u" cx="0" cy="0" gradientTransform="matrix(-2.52563824 2.11911188 -.89938957 -1.07192674 16.0284 7.10066)" gradientUnits="userSpaceOnUse" r="1" xlink:href="#s"/><radialGradient id="v" cx="0" cy="0" gradientTransform="matrix(-2.34374937 1.64062333 -.26724249 -.38177528 17.9559 7.89166)" gradientUnits="userSpaceOnUse" r="1"><stop offset=".0311178" stop-color="#5a5a5b"/><stop offset=".893168" stop-color="#5a5a5b" stop-opacity="0"/></radialGradient><radialGradient id="w" cx="0" cy="0" gradientTransform="matrix(-2.32810923 2.53126771 -.41231967 -.37922707 14.0809 2.79791)" gradientUnits="userSpaceOnUse" r="1" xlink:href="#s"/><linearGradient id="x"><stop offset="0" stop-color="#343435"/><stop offset="1" stop-color="#343435" stop-opacity="0"/></linearGradient><radialGradient id="y" cx="0" cy="0" gradientTransform="matrix(-2.16972406 .91893809 -.40706192 -.96112247 14.7945 4.89526)" gradientUnits="userSpaceOnUse" r="1" xlink:href="#x"/><radialGradient id="z" cx="0" cy="0" gradientTransform="matrix(-.82339412 .76562722 -.34492754 -.37095247 13.4481 4.7276)" gradientUnits="userSpaceOnUse" r="1" xlink:href="#x"/><radialGradient id="A" cx="0" cy="0" gradientTransform="matrix(-2.35937235 1.21875388 -.54907167 -1.06294186 16.4403 7.87604)" gradientUnits="userSpaceOnUse" r="1" xlink:href="#x"/><radialGradient id="B" cx="0" cy="0" gradientTransform="matrix(-1.40624097 1.42188831 -.68018167 -.67269654 15.3934 7.37604)" gradientUnits="userSpaceOnUse" r="1" xlink:href="#x"/><radialGradient id="C" cx="0" cy="0" gradientTransform="matrix(1.89151051 -1.62855887 .98903633 1.14872888 3.90505 4.62978)" gradientUnits="userSpaceOnUse" r="1"><stop offset="0" stop-color="#2b292d"/><stop offset="1" stop-color="#1f1818"/></radialGradient><radialGradient id="D" cx="0" cy="0" gradientTransform="matrix(-1.86009501 -.80150685 .96608756 -2.24204527 5.68548 5.00872)" gradientUnits="userSpaceOnUse" r="1"><stop offset=".840498" stop-color="#4a494a" stop-opacity="0"/><stop offset="1" stop-color="#4a494a"/></radialGradient><linearGradient id="E" gradientUnits="userSpaceOnUse" x1="20.9247" x2="15.6887" y1="19.4385" y2="21.5393"><stop offset="0" stop-color="#522a34"/><stop offset="1" stop-color="#805655"/></linearGradient><radialGradient id="F" cx="0" cy="0" gradientTransform="matrix(0 -.851562 2.14227 0 18.0004 28.1417)" gradientUnits="userSpaceOnUse" r="1"><stop offset="0" stop-color="#794562"/><stop offset="1" stop-color="#784d65" stop-opacity="0"/></radialGradient><linearGradient id="G" gradientUnits="userSpaceOnUse" x1="8.00932" x2="3.01166" y1="16.9698" y2="22.001"><stop offset="0" stop-color="#5a3933"/><stop offset="1" stop-color="#805655"/></linearGradient><radialGradient id="H" cx="0" cy="0" gradientTransform="matrix(-.71875283 -.71875283 1.42015326 -1.42015326 5.36218 23.126)" gradientUnits="userSpaceOnUse" r="1"><stop offset="0" stop-color="#784d65"/><stop offset="1" stop-color="#784d65" stop-opacity="0"/></radialGradient><radialGradient id="I" cx="0" cy="0" gradientTransform="matrix(-1.5703092 -1.52343703 1.11774375 -1.15213379 6.81531 18.7823)" gradientUnits="userSpaceOnUse" r="1"><stop offset="0" stop-color="#5f3553"/><stop offset="1" stop-color="#5f3553" stop-opacity="0"/></radialGradient><linearGradient id="J" gradientUnits="userSpaceOnUse" x1="4.76324" x2="8.32574" y1="19.7648" y2="17.4367"><stop offset="0" stop-color="#876363"/><stop offset="1" stop-color="#876363" stop-opacity="0"/></linearGradient><linearGradient id="K" gradientUnits="userSpaceOnUse" x1="8.57604" x2="21.2638" y1="1.98185" y2="26.3714"><stop offset="0" stop-color="#936554"/><stop offset="1" stop-color="#764a4c"/></linearGradient><radialGradient id="L" cx="0" cy="0" gradientTransform="matrix(-1.87505201 -6.3749879 8.62478104 -2.53677548 9.45593 26.001)" gradientUnits="userSpaceOnUse" r="1"><stop offset="0" stop-color="#6a433b"/><stop offset="1" stop-color="#6a433b" stop-opacity="0"/></radialGradient><linearGradient id="M"><stop offset="0" stop-color="#733b61"/><stop offset="1" stop-color="#643655" stop-opacity="0"/></linearGradient><radialGradient id="N" cx="0" cy="0" gradientTransform="matrix(0 -1.875 6.53125 0 16.2997 21.251)" gradientUnits="userSpaceOnUse" r="1" xlink:href="#M"/><radialGradient id="O" cx="0" cy="0" gradientTransform="matrix(1.09374944 -2.09375153 4.79589308 2.50531417 21.4247 22.5948)" gradientUnits="userSpaceOnUse" r="1" xlink:href="#M"/><radialGradient id="P" cx="0" cy="0" gradientTransform="matrix(4.8124939 -1.43750241 3.10116546 10.38213205 5.89343 13.751)" gradientUnits="userSpaceOnUse" r="1"><stop offset="0" stop-color="#855f53"/><stop offset="1" stop-color="#855f53" stop-opacity="0"/></radialGradient><radialGradient id="Q" cx="0" cy="0" gradientTransform="matrix(2.59375372 -1.51562479 .69874606 1.19579411 4.98718 8.76666)" gradientUnits="userSpaceOnUse" r="1"><stop offset="0" stop-color="#6f3e55"/><stop offset="1" stop-color="#6f3e55" stop-opacity="0"/></radialGradient><radialGradient id="R" cx="0" cy="0" gradientTransform="matrix(.67187469 .4296884 -1.30181912 2.03556652 6.01843 2.7901)" gradientUnits="userSpaceOnUse" r="1"><stop offset="0" stop-color="#926c60"/><stop offset="1" stop-color="#926c60" stop-opacity="0"/></radialGradient><radialGradient id="S" cx="0" cy="0" gradientTransform="matrix(.57812311 -1.42187284 6.45398597 2.62414357 9.75281 25.8292)" gradientUnits="userSpaceOnUse" r="1"><stop offset="0" stop-color="#633456"/><stop offset="1" stop-color="#633456" stop-opacity="0"/></radialGradient><radialGradient id="T" cx="0" cy="0" gradientTransform="matrix(-.32031709 .53124725 -1.9945579 -1.20262457 10.9012 23.7354)" gradientUnits="userSpaceOnUse" r="1"><stop offset="0" stop-color="#6a463f"/><stop offset="1" stop-color="#6a463f" stop-opacity="0"/></radialGradient><radialGradient id="U" cx="0" cy="0" gradientTransform="matrix(1.06250151 -.67187506 .27910946 .44138299 8.28406 19.4073)" gradientUnits="userSpaceOnUse" r="1"><stop offset="0" stop-color="#97716c"/><stop offset="1" stop-color="#97716c" stop-opacity="0"/></radialGradient><linearGradient id="V" gradientUnits="userSpaceOnUse" x1="2.90906" x2="3.5007" y1="8.04788" y2="9.57994"><stop offset=".00558659" stop-color="#cfa576"/><stop offset="1" stop-color="#bb8185"/></linearGradient><radialGradient id="W" cx="0" cy="0" gradientTransform="matrix(1.44220405 -.80985351 .22470971 .40016774 2.42401 8.52371)" gradientUnits="userSpaceOnUse" r="1"><stop offset="0" stop-color="#d7aa87"/><stop offset="1" stop-color="#d7aa87" stop-opacity="0"/></radialGradient><radialGradient id="X" cx="0" cy="0" gradientTransform="matrix(-.40625364 .56249786 -.50148884 -.36219101 6.16168 5.85187)" gradientUnits="userSpaceOnUse" r="1"><stop offset=".00558659" stop-color="#433437"/><stop offset="1" stop-color="#3b2838"/></radialGradient><radialGradient id="Y" cx="0" cy="0" gradientTransform="matrix(-.22817824 .20597963 -.18121225 -.20074165 6.2001 5.88776)" gradientUnits="userSpaceOnUse" r="1"><stop offset="0" stop-color="#5c5051"/><stop offset="1" stop-color="#5c5051" stop-opacity="0"/></radialGradient><linearGradient id="Z" gradientUnits="userSpaceOnUse" x1="5.91495" x2="5.5712" y1="5.62003" y2="5.40128"><stop offset="0" stop-color="#5c5051" stop-opacity="0"/><stop offset="1" stop-color="#5c5051"/></linearGradient><linearGradient id="aa" gradientUnits="userSpaceOnUse" x1="18.1682" x2="21.5668" y1="27.0323" y2="21.6753"><stop offset="0" stop-color="#82585e"/><stop offset="1" stop-color="#82585e" stop-opacity="0"/></linearGradient><linearGradient id="ab" gradientUnits="userSpaceOnUse" x1="7.91935" x2="14.25" y1="3.63105" y2="13.9698"><stop offset="0" stop-color="#ab8073"/><stop offset="1" stop-color="#ab8073" stop-opacity="0"/></linearGradient><linearGradient id="ac" gradientUnits="userSpaceOnUse" x1="28.9559" x2="25.7372" y1="12.7493" y2="24.7823"><stop offset="0" stop-color="#a47c71"/><stop offset="1" stop-color="#a47c71" stop-opacity="0"/></linearGradient><linearGradient id="ad" gradientUnits="userSpaceOnUse" x1="27.5184" x2="21.2997" y1="19.1885" y2="33.0635"><stop offset="0" stop-color="#a47c71" stop-opacity="0"/><stop offset=".239156" stop-color="#a47c71"/><stop offset="1" stop-color="#a47c71" stop-opacity="0"/></linearGradient><linearGradient id="ae" gradientUnits="userSpaceOnUse" x1="7.39343" x2="8.90906" y1="2.75104" y2="5.62604"><stop offset="0" stop-color="#9f7667"/><stop offset="1" stop-color="#9f7667" stop-opacity="0"/></linearGradient><linearGradient id="af"><stop offset="0" stop-color="#8b6c67"/><stop offset="1" stop-color="#8b6c67" stop-opacity="0"/></linearGradient><linearGradient id="ag" gradientUnits="userSpaceOnUse" x1="9.39343" x2="10.1747" xlink:href="#af" y1="24.2198" y2="17.7823"/><linearGradient id="ah" gradientUnits="userSpaceOnUse" x1="7.03406" x2="8.02964" xlink:href="#af" y1="21.8448" y2="21.9836"/><path d="m28.0209 6.64874v-1.1625c0-.26813.2172-.48563.4849-.48563.8351 0 1.5123.67813 1.5123 1.51438v1.98875c0 1.38062-1.1178 2.49996-2.4965 2.49996h-1.154c-.1966 0-.3558.1594-.3558.3563v4.6412h-1.9972v-6.49622c0-1.38062 1.1179-2.49999 2.4965-2.49999h1.154c.1966 0 .3558-.15938.3558-.35625z" fill="#292727"/><g filter="url(#a)"><path d="m28.7372 5.68854v1.875h-1.9063c-1.1045 0-2 .89543-2 2v3.71876h.6094v-2.9375h2.0469c1.1045 0 2-.89544 2-2.00001v-1.53125c0-.49201-.2959-.93577-.75-1.125z" fill="url(#n)"/></g><path d="m3.01663 6.91943c-.3364.3625-.73896.77875-.73896.77875-.21969.25688-.30957.60625-.23155.94625.15478.675.83882 1.0075 1.48042.74875l.76892-.31062z" fill="url(#o)"/><path d="m7.61456 5.14247c0 .08284.06716.15.15.15h1.08996c.08284 0 .15.06716.15.15v2.92121c0 .08284.06715.15.15.15h1.69908c.0828 0 .15.06716.15.15v3.61562c0 .0828.0672.15.15.15h2.4751c2.2131 0 4.0068-1.7963 4.0062-4.01253 0-.2275-.1842-.4125-.4119-.4125h-2.0851c-.1486 0-.2159-.20626-.1069-.30723.6064-.5616.9858-1.36521.9855-2.25774 0-.24062-.1947-.43625-.4356-.43625h-2.1524c-.1501 0-.2238-.2207-.1239-.33265.2944-.32972.4735-.76501.4738-1.2423 0-.23563-.191-.42688-.4263-.42688h-5.58754c-.08284 0-.15.06716-.15.15z" fill="url(#p)"/><path d="m7.61456 5.14247c0 .08284.06716.15.15.15h1.08996c.08284 0 .15.06716.15.15v2.92121c0 .08284.06715.15.15.15h1.69908c.0828 0 .15.06716.15.15v3.61562c0 .0828.0672.15.15.15h2.4751c2.2131 0 4.0068-1.7963 4.0062-4.01253 0-.2275-.1842-.4125-.4119-.4125h-2.0851c-.1486 0-.2159-.20626-.1069-.30723.6064-.5616.9858-1.36521.9855-2.25774 0-.24062-.1947-.43625-.4356-.43625h-2.1524c-.1501 0-.2238-.2207-.1239-.33265.2944-.32972.4735-.76501.4738-1.2423 0-.23563-.191-.42688-.4263-.42688h-5.58754c-.08284 0-.15.06716-.15.15z" fill="url(#q)"/><path d="m7.61456 5.14247c0 .08284.06716.15.15.15h1.08996c.08284 0 .15.06716.15.15v2.92121c0 .08284.06715.15.15.15h1.69908c.0828 0 .15.06716.15.15v3.61562c0 .0828.0672.15.15.15h2.4751c2.2131 0 4.0068-1.7963 4.0062-4.01253 0-.2275-.1842-.4125-.4119-.4125h-2.0851c-.1486 0-.2159-.20626-.1069-.30723.6064-.5616.9858-1.36521.9855-2.25774 0-.24062-.1947-.43625-.4356-.43625h-2.1524c-.1501 0-.2238-.2207-.1239-.33265.2944-.32972.4735-.76501.4738-1.2423 0-.23563-.191-.42688-.4263-.42688h-5.58754c-.08284 0-.15.06716-.15.15z" fill="url(#r)"/><path d="m7.61456 5.14247c0 .08284.06716.15.15.15h1.08996c.08284 0 .15.06716.15.15v2.92121c0 .08284.06715.15.15.15h1.69908c.0828 0 .15.06716.15.15v3.61562c0 .0828.0672.15.15.15h2.4751c2.2131 0 4.0068-1.7963 4.0062-4.01253 0-.2275-.1842-.4125-.4119-.4125h-2.0851c-.1486 0-.2159-.20626-.1069-.30723.6064-.5616.9858-1.36521.9855-2.25774 0-.24062-.1947-.43625-.4356-.43625h-2.1524c-.1501 0-.2238-.2207-.1239-.33265.2944-.32972.4735-.76501.4738-1.2423 0-.23563-.191-.42688-.4263-.42688h-5.58754c-.08284 0-.15.06716-.15.15z" fill="url(#t)"/><path d="m7.61456 5.14247c0 .08284.06716.15.15.15h1.08996c.08284 0 .15.06716.15.15v2.92121c0 .08284.06715.15.15.15h1.69908c.0828 0 .15.06716.15.15v3.61562c0 .0828.0672.15.15.15h2.4751c2.2131 0 4.0068-1.7963 4.0062-4.01253 0-.2275-.1842-.4125-.4119-.4125h-2.0851c-.1486 0-.2159-.20626-.1069-.30723.6064-.5616.9858-1.36521.9855-2.25774 0-.24062-.1947-.43625-.4356-.43625h-2.1524c-.1501 0-.2238-.2207-.1239-.33265.2944-.32972.4735-.76501.4738-1.2423 0-.23563-.191-.42688-.4263-.42688h-5.58754c-.08284 0-.15.06716-.15.15z" fill="url(#u)"/><path d="m7.61456 5.14247c0 .08284.06716.15.15.15h1.08996c.08284 0 .15.06716.15.15v2.92121c0 .08284.06715.15.15.15h1.69908c.0828 0 .15.06716.15.15v3.61562c0 .0828.0672.15.15.15h2.4751c2.2131 0 4.0068-1.7963 4.0062-4.01253 0-.2275-.1842-.4125-.4119-.4125h-2.0851c-.1486 0-.2159-.20626-.1069-.30723.6064-.5616.9858-1.36521.9855-2.25774 0-.24062-.1947-.43625-.4356-.43625h-2.1524c-.1501 0-.2238-.2207-.1239-.33265.2944-.32972.4735-.76501.4738-1.2423 0-.23563-.191-.42688-.4263-.42688h-5.58754c-.08284 0-.15.06716-.15.15z" fill="url(#v)"/><path d="m7.61456 5.14247c0 .08284.06716.15.15.15h1.08996c.08284 0 .15.06716.15.15v2.92121c0 .08284.06715.15.15.15h1.69908c.0828 0 .15.06716.15.15v3.61562c0 .0828.0672.15.15.15h2.4751c2.2131 0 4.0068-1.7963 4.0062-4.01253 0-.2275-.1842-.4125-.4119-.4125h-2.0851c-.1486 0-.2159-.20626-.1069-.30723.6064-.5616.9858-1.36521.9855-2.25774 0-.24062-.1947-.43625-.4356-.43625h-2.1524c-.1501 0-.2238-.2207-.1239-.33265.2944-.32972.4735-.76501.4738-1.2423 0-.23563-.191-.42688-.4263-.42688h-5.58754c-.08284 0-.15.06716-.15.15z" fill="url(#w)"/><path d="m7.61456 5.14247c0 .08284.06716.15.15.15h1.08996c.08284 0 .15.06716.15.15v2.92121c0 .08284.06715.15.15.15h1.69908c.0828 0 .15.06716.15.15v3.61562c0 .0828.0672.15.15.15h2.4751c2.2131 0 4.0068-1.7963 4.0062-4.01253 0-.2275-.1842-.4125-.4119-.4125h-2.0851c-.1486 0-.2159-.20626-.1069-.30723.6064-.5616.9858-1.36521.9855-2.25774 0-.24062-.1947-.43625-.4356-.43625h-2.1524c-.1501 0-.2238-.2207-.1239-.33265.2944-.32972.4735-.76501.4738-1.2423 0-.23563-.191-.42688-.4263-.42688h-5.58754c-.08284 0-.15.06716-.15.15z" fill="url(#y)"/><path d="m7.61456 5.14247c0 .08284.06716.15.15.15h1.08996c.08284 0 .15.06716.15.15v2.92121c0 .08284.06715.15.15.15h1.69908c.0828 0 .15.06716.15.15v3.61562c0 .0828.0672.15.15.15h2.4751c2.2131 0 4.0068-1.7963 4.0062-4.01253 0-.2275-.1842-.4125-.4119-.4125h-2.0851c-.1486 0-.2159-.20626-.1069-.30723.6064-.5616.9858-1.36521.9855-2.25774 0-.24062-.1947-.43625-.4356-.43625h-2.1524c-.1501 0-.2238-.2207-.1239-.33265.2944-.32972.4735-.76501.4738-1.2423 0-.23563-.191-.42688-.4263-.42688h-5.58754c-.08284 0-.15.06716-.15.15z" fill="url(#z)"/><path d="m7.61456 5.14247c0 .08284.06716.15.15.15h1.08996c.08284 0 .15.06716.15.15v2.92121c0 .08284.06715.15.15.15h1.69908c.0828 0 .15.06716.15.15v3.61562c0 .0828.0672.15.15.15h2.4751c2.2131 0 4.0068-1.7963 4.0062-4.01253 0-.2275-.1842-.4125-.4119-.4125h-2.0851c-.1486 0-.2159-.20626-.1069-.30723.6064-.5616.9858-1.36521.9855-2.25774 0-.24062-.1947-.43625-.4356-.43625h-2.1524c-.1501 0-.2238-.2207-.1239-.33265.2944-.32972.4735-.76501.4738-1.2423 0-.23563-.191-.42688-.4263-.42688h-5.58754c-.08284 0-.15.06716-.15.15z" fill="url(#A)"/><path d="m7.61456 5.14247c0 .08284.06716.15.15.15h1.08996c.08284 0 .15.06716.15.15v2.92121c0 .08284.06715.15.15.15h1.69908c.0828 0 .15.06716.15.15v3.61562c0 .0828.0672.15.15.15h2.4751c2.2131 0 4.0068-1.7963 4.0062-4.01253 0-.2275-.1842-.4125-.4119-.4125h-2.0851c-.1486 0-.2159-.20626-.1069-.30723.6064-.5616.9858-1.36521.9855-2.25774 0-.24062-.1947-.43625-.4356-.43625h-2.1524c-.1501 0-.2238-.2207-.1239-.33265.2944-.32972.4735-.76501.4738-1.2423 0-.23563-.191-.42688-.4263-.42688h-5.58754c-.08284 0-.15.06716-.15.15z" fill="url(#B)"/><path d="m5.71659 3.00122c-1.01107 0-1.8474.75-1.9847 1.72438-.02122.14875.09112.28312.24153.28312h1.50663c1.10719 0 2.00468-.89875 2.00468-2.0075z" fill="url(#C)"/><path d="m5.71659 3.00122c-1.01107 0-1.8474.75-1.9847 1.72438-.02122.14875.09112.28312.24153.28312h1.50663c1.10719 0 2.00468-.89875 2.00468-2.0075z" fill="url(#D)"/><g filter="url(#b)"><path d="m18.9942 15.3875v7.7881c0 .2538-.1011.4969-.2809.6763l-.8818.8781c-.538.5388-.8345 1.2556-.8345 2.0175v.9375c0 .1744.1411.3163.3158.3163h1.3662c.1741 0 .3158-.1413.3158-.3163v-.9375c0-.2262.0899-.4431.2497-.6037l3.8745-3.88.0244-.0088v-7.0287z" fill="url(#E)"/><path d="m18.9942 15.3875v7.7881c0 .2538-.1011.4969-.2809.6763l-.8818.8781c-.538.5388-.8345 1.2556-.8345 2.0175v.9375c0 .1744.1411.3163.3158.3163h1.3662c.1741 0 .3158-.1413.3158-.3163v-.9375c0-.2262.0899-.4431.2497-.6037l3.8745-3.88.0244-.0088v-7.0287z" fill="url(#F)"/></g><g filter="url(#c)"><path d="m4.77106 23.4181c-.14854.1488-.38945.1488-.53799 0l-.39195-.3919c-.53488-.5356-.82946-1.2475-.82946-2.005v-2.3587c0-1.4706 1.1902-2.6625 2.65876-2.6625h7.33658v2h-7.33658c-.36511 0-.66157.2962-.66157.6625v2.3587c0 .2213.088.4338.24403.5907l.39133.3918c.14854.1488.14854.39 0 .5388z" fill="url(#G)"/><path d="m4.77106 23.4181c-.14854.1488-.38945.1488-.53799 0l-.39195-.3919c-.53488-.5356-.82946-1.2475-.82946-2.005v-2.3587c0-1.4706 1.1902-2.6625 2.65876-2.6625h7.33658v2h-7.33658c-.36511 0-.66157.2962-.66157.6625v2.3587c0 .2213.088.4338.24403.5907l.39133.3918c.14854.1488.14854.39 0 .5388z" fill="url(#H)"/><path d="m4.77106 23.4181c-.14854.1488-.38945.1488-.53799 0l-.39195-.3919c-.53488-.5356-.82946-1.2475-.82946-2.005v-2.3587c0-1.4706 1.1902-2.6625 2.65876-2.6625h7.33658v2h-7.33658c-.36511 0-.66157.2962-.66157.6625v2.3587c0 .2213.088.4338.24403.5907l.39133.3918c.14854.1488.14854.39 0 .5388z" fill="url(#I)"/></g><g filter="url(#d)"><path d="m4.91949 22.3742-.19415-.2026c-.35671-.3724-.55585-.8681-.55585-1.3837v-2.3824c0-.6904.55965-1.25 1.25-1.25h2.4375" stroke="url(#J)" stroke-linecap="round" stroke-width=".4"/></g><g filter="url(#e)"><path d="m23.0685 12.0012h-7.0395c-1.2514 0-2.4047-.6793-3.012-1.775l-3.03825-5.47683c-.27274-.49188-.64472-.82813-1.11156-1.195h.00063l-2.01654-1.51063c-.17913-.11437-.41442.01438-.41442.2275v.83c0 .07188-.02684.14125-.07614.19438l-4.05867 4.39875c-.2303.24937-.33141.5975-.26213.93937.1398.6875.81947 1.02813 1.46918.76563l2.39476-.96625c.17912-.0725.37822.04312.40505.235l1.10969 8.04438c.12545.9112.49306 1.7356 1.03168 2.4131.08301.1044.07552.2544-.01873.3488l-.64159.6425c-.50305.5037-.78016 1.1743-.77891 1.8875.00125.7181.30457 1.4025.81136 1.9106l1.24512 1.2556c.53488.5356 1.24577.8306 2.00217.8306h.4563c.264 0 .478-.2143.478-.4787v-1.0425c0-.2644-.214-.4788-.478-.4788h-.4563c-.2209 0-.4331-.0881-.5898-.2443l-1.26258-1.2738c-.1217-.1219-.20096-.2831-.20845-.455-.00749-.1875.06179-.365.19285-.4969l.87938-.8806c.0755-.0756.1891-.0975.2871-.0556.6048.2619 1.2695.4062 1.9647.4062h.6697 2.3486 4.9861c.4244 0 .8376.1382 1.1771.3932l2.5127 1.8868c.6036.4532.9587 1.1644.9587 1.92 0 .5194-.1679 1.0244-.4794 1.44l-2.2387 2.9888c-.1142.1531-.0056.3712.1854.3712h1.217c.2004 0 .3901-.0912.5149-.2481l3.2342-4.0481c.3639-.4556.5624-1.0213.5624-1.6044v-3.0994-4.08c0-2.7175-2.1994-4.92-4.9131-4.92z" fill="url(#K)"/><path d="m23.0685 12.0012h-7.0395c-1.2514 0-2.4047-.6793-3.012-1.775l-3.03825-5.47683c-.27274-.49188-.64472-.82813-1.11156-1.195h.00063l-2.01654-1.51063c-.17913-.11437-.41442.01438-.41442.2275v.83c0 .07188-.02684.14125-.07614.19438l-4.05867 4.39875c-.2303.24937-.33141.5975-.26213.93937.1398.6875.81947 1.02813 1.46918.76563l2.39476-.96625c.17912-.0725.37822.04312.40505.235l1.10969 8.04438c.12545.9112.49306 1.7356 1.03168 2.4131.08301.1044.07552.2544-.01873.3488l-.64159.6425c-.50305.5037-.78016 1.1743-.77891 1.8875.00125.7181.30457 1.4025.81136 1.9106l1.24512 1.2556c.53488.5356 1.24577.8306 2.00217.8306h.4563c.264 0 .478-.2143.478-.4787v-1.0425c0-.2644-.214-.4788-.478-.4788h-.4563c-.2209 0-.4331-.0881-.5898-.2443l-1.26258-1.2738c-.1217-.1219-.20096-.2831-.20845-.455-.00749-.1875.06179-.365.19285-.4969l.87938-.8806c.0755-.0756.1891-.0975.2871-.0556.6048.2619 1.2695.4062 1.9647.4062h.6697 2.3486 4.9861c.4244 0 .8376.1382 1.1771.3932l2.5127 1.8868c.6036.4532.9587 1.1644.9587 1.92 0 .5194-.1679 1.0244-.4794 1.44l-2.2387 2.9888c-.1142.1531-.0056.3712.1854.3712h1.217c.2004 0 .3901-.0912.5149-.2481l3.2342-4.0481c.3639-.4556.5624-1.0213.5624-1.6044v-3.0994-4.08c0-2.7175-2.1994-4.92-4.9131-4.92z" fill="url(#L)"/><path d="m23.0685 12.0012h-7.0395c-1.2514 0-2.4047-.6793-3.012-1.775l-3.03825-5.47683c-.27274-.49188-.64472-.82813-1.11156-1.195h.00063l-2.01654-1.51063c-.17913-.11437-.41442.01438-.41442.2275v.83c0 .07188-.02684.14125-.07614.19438l-4.05867 4.39875c-.2303.24937-.33141.5975-.26213.93937.1398.6875.81947 1.02813 1.46918.76563l2.39476-.96625c.17912-.0725.37822.04312.40505.235l1.10969 8.04438c.12545.9112.49306 1.7356 1.03168 2.4131.08301.1044.07552.2544-.01873.3488l-.64159.6425c-.50305.5037-.78016 1.1743-.77891 1.8875.00125.7181.30457 1.4025.81136 1.9106l1.24512 1.2556c.53488.5356 1.24577.8306 2.00217.8306h.4563c.264 0 .478-.2143.478-.4787v-1.0425c0-.2644-.214-.4788-.478-.4788h-.4563c-.2209 0-.4331-.0881-.5898-.2443l-1.26258-1.2738c-.1217-.1219-.20096-.2831-.20845-.455-.00749-.1875.06179-.365.19285-.4969l.87938-.8806c.0755-.0756.1891-.0975.2871-.0556.6048.2619 1.2695.4062 1.9647.4062h.6697 2.3486 4.9861c.4244 0 .8376.1382 1.1771.3932l2.5127 1.8868c.6036.4532.9587 1.1644.9587 1.92 0 .5194-.1679 1.0244-.4794 1.44l-2.2387 2.9888c-.1142.1531-.0056.3712.1854.3712h1.217c.2004 0 .3901-.0912.5149-.2481l3.2342-4.0481c.3639-.4556.5624-1.0213.5624-1.6044v-3.0994-4.08c0-2.7175-2.1994-4.92-4.9131-4.92z" fill="url(#N)"/><path d="m23.0685 12.0012h-7.0395c-1.2514 0-2.4047-.6793-3.012-1.775l-3.03825-5.47683c-.27274-.49188-.64472-.82813-1.11156-1.195h.00063l-2.01654-1.51063c-.17913-.11437-.41442.01438-.41442.2275v.83c0 .07188-.02684.14125-.07614.19438l-4.05867 4.39875c-.2303.24937-.33141.5975-.26213.93937.1398.6875.81947 1.02813 1.46918.76563l2.39476-.96625c.17912-.0725.37822.04312.40505.235l1.10969 8.04438c.12545.9112.49306 1.7356 1.03168 2.4131.08301.1044.07552.2544-.01873.3488l-.64159.6425c-.50305.5037-.78016 1.1743-.77891 1.8875.00125.7181.30457 1.4025.81136 1.9106l1.24512 1.2556c.53488.5356 1.24577.8306 2.00217.8306h.4563c.264 0 .478-.2143.478-.4787v-1.0425c0-.2644-.214-.4788-.478-.4788h-.4563c-.2209 0-.4331-.0881-.5898-.2443l-1.26258-1.2738c-.1217-.1219-.20096-.2831-.20845-.455-.00749-.1875.06179-.365.19285-.4969l.87938-.8806c.0755-.0756.1891-.0975.2871-.0556.6048.2619 1.2695.4062 1.9647.4062h.6697 2.3486 4.9861c.4244 0 .8376.1382 1.1771.3932l2.5127 1.8868c.6036.4532.9587 1.1644.9587 1.92 0 .5194-.1679 1.0244-.4794 1.44l-2.2387 2.9888c-.1142.1531-.0056.3712.1854.3712h1.217c.2004 0 .3901-.0912.5149-.2481l3.2342-4.0481c.3639-.4556.5624-1.0213.5624-1.6044v-3.0994-4.08c0-2.7175-2.1994-4.92-4.9131-4.92z" fill="url(#O)"/><path d="m23.0685 12.0012h-7.0395c-1.2514 0-2.4047-.6793-3.012-1.775l-3.03825-5.47683c-.27274-.49188-.64472-.82813-1.11156-1.195h.00063l-2.01654-1.51063c-.17913-.11437-.41442.01438-.41442.2275v.83c0 .07188-.02684.14125-.07614.19438l-4.05867 4.39875c-.2303.24937-.33141.5975-.26213.93937.1398.6875.81947 1.02813 1.46918.76563l2.39476-.96625c.17912-.0725.37822.04312.40505.235l1.10969 8.04438c.12545.9112.49306 1.7356 1.03168 2.4131.08301.1044.07552.2544-.01873.3488l-.64159.6425c-.50305.5037-.78016 1.1743-.77891 1.8875.00125.7181.30457 1.4025.81136 1.9106l1.24512 1.2556c.53488.5356 1.24577.8306 2.00217.8306h.4563c.264 0 .478-.2143.478-.4787v-1.0425c0-.2644-.214-.4788-.478-.4788h-.4563c-.2209 0-.4331-.0881-.5898-.2443l-1.26258-1.2738c-.1217-.1219-.20096-.2831-.20845-.455-.00749-.1875.06179-.365.19285-.4969l.87938-.8806c.0755-.0756.1891-.0975.2871-.0556.6048.2619 1.2695.4062 1.9647.4062h.6697 2.3486 4.9861c.4244 0 .8376.1382 1.1771.3932l2.5127 1.8868c.6036.4532.9587 1.1644.9587 1.92 0 .5194-.1679 1.0244-.4794 1.44l-2.2387 2.9888c-.1142.1531-.0056.3712.1854.3712h1.217c.2004 0 .3901-.0912.5149-.2481l3.2342-4.0481c.3639-.4556.5624-1.0213.5624-1.6044v-3.0994-4.08c0-2.7175-2.1994-4.92-4.9131-4.92z" fill="url(#P)"/><path d="m23.0685 12.0012h-7.0395c-1.2514 0-2.4047-.6793-3.012-1.775l-3.03825-5.47683c-.27274-.49188-.64472-.82813-1.11156-1.195h.00063l-2.01654-1.51063c-.17913-.11437-.41442.01438-.41442.2275v.83c0 .07188-.02684.14125-.07614.19438l-4.05867 4.39875c-.2303.24937-.33141.5975-.26213.93937.1398.6875.81947 1.02813 1.46918.76563l2.39476-.96625c.17912-.0725.37822.04312.40505.235l1.10969 8.04438c.12545.9112.49306 1.7356 1.03168 2.4131.08301.1044.07552.2544-.01873.3488l-.64159.6425c-.50305.5037-.78016 1.1743-.77891 1.8875.00125.7181.30457 1.4025.81136 1.9106l1.24512 1.2556c.53488.5356 1.24577.8306 2.00217.8306h.4563c.264 0 .478-.2143.478-.4787v-1.0425c0-.2644-.214-.4788-.478-.4788h-.4563c-.2209 0-.4331-.0881-.5898-.2443l-1.26258-1.2738c-.1217-.1219-.20096-.2831-.20845-.455-.00749-.1875.06179-.365.19285-.4969l.87938-.8806c.0755-.0756.1891-.0975.2871-.0556.6048.2619 1.2695.4062 1.9647.4062h.6697 2.3486 4.9861c.4244 0 .8376.1382 1.1771.3932l2.5127 1.8868c.6036.4532.9587 1.1644.9587 1.92 0 .5194-.1679 1.0244-.4794 1.44l-2.2387 2.9888c-.1142.1531-.0056.3712.1854.3712h1.217c.2004 0 .3901-.0912.5149-.2481l3.2342-4.0481c.3639-.4556.5624-1.0213.5624-1.6044v-3.0994-4.08c0-2.7175-2.1994-4.92-4.9131-4.92z" fill="url(#Q)"/><path d="m23.0685 12.0012h-7.0395c-1.2514 0-2.4047-.6793-3.012-1.775l-3.03825-5.47683c-.27274-.49188-.64472-.82813-1.11156-1.195h.00063l-2.01654-1.51063c-.17913-.11437-.41442.01438-.41442.2275v.83c0 .07188-.02684.14125-.07614.19438l-4.05867 4.39875c-.2303.24937-.33141.5975-.26213.93937.1398.6875.81947 1.02813 1.46918.76563l2.39476-.96625c.17912-.0725.37822.04312.40505.235l1.10969 8.04438c.12545.9112.49306 1.7356 1.03168 2.4131.08301.1044.07552.2544-.01873.3488l-.64159.6425c-.50305.5037-.78016 1.1743-.77891 1.8875.00125.7181.30457 1.4025.81136 1.9106l1.24512 1.2556c.53488.5356 1.24577.8306 2.00217.8306h.4563c.264 0 .478-.2143.478-.4787v-1.0425c0-.2644-.214-.4788-.478-.4788h-.4563c-.2209 0-.4331-.0881-.5898-.2443l-1.26258-1.2738c-.1217-.1219-.20096-.2831-.20845-.455-.00749-.1875.06179-.365.19285-.4969l.87938-.8806c.0755-.0756.1891-.0975.2871-.0556.6048.2619 1.2695.4062 1.9647.4062h.6697 2.3486 4.9861c.4244 0 .8376.1382 1.1771.3932l2.5127 1.8868c.6036.4532.9587 1.1644.9587 1.92 0 .5194-.1679 1.0244-.4794 1.44l-2.2387 2.9888c-.1142.1531-.0056.3712.1854.3712h1.217c.2004 0 .3901-.0912.5149-.2481l3.2342-4.0481c.3639-.4556.5624-1.0213.5624-1.6044v-3.0994-4.08c0-2.7175-2.1994-4.92-4.9131-4.92z" fill="url(#R)"/><path d="m23.0685 12.0012h-7.0395c-1.2514 0-2.4047-.6793-3.012-1.775l-3.03825-5.47683c-.27274-.49188-.64472-.82813-1.11156-1.195h.00063l-2.01654-1.51063c-.17913-.11437-.41442.01438-.41442.2275v.83c0 .07188-.02684.14125-.07614.19438l-4.05867 4.39875c-.2303.24937-.33141.5975-.26213.93937.1398.6875.81947 1.02813 1.46918.76563l2.39476-.96625c.17912-.0725.37822.04312.40505.235l1.10969 8.04438c.12545.9112.49306 1.7356 1.03168 2.4131.08301.1044.07552.2544-.01873.3488l-.64159.6425c-.50305.5037-.78016 1.1743-.77891 1.8875.00125.7181.30457 1.4025.81136 1.9106l1.24512 1.2556c.53488.5356 1.24577.8306 2.00217.8306h.4563c.264 0 .478-.2143.478-.4787v-1.0425c0-.2644-.214-.4788-.478-.4788h-.4563c-.2209 0-.4331-.0881-.5898-.2443l-1.26258-1.2738c-.1217-.1219-.20096-.2831-.20845-.455-.00749-.1875.06179-.365.19285-.4969l.87938-.8806c.0755-.0756.1891-.0975.2871-.0556.6048.2619 1.2695.4062 1.9647.4062h.6697 2.3486 4.9861c.4244 0 .8376.1382 1.1771.3932l2.5127 1.8868c.6036.4532.9587 1.1644.9587 1.92 0 .5194-.1679 1.0244-.4794 1.44l-2.2387 2.9888c-.1142.1531-.0056.3712.1854.3712h1.217c.2004 0 .3901-.0912.5149-.2481l3.2342-4.0481c.3639-.4556.5624-1.0213.5624-1.6044v-3.0994-4.08c0-2.7175-2.1994-4.92-4.9131-4.92z" fill="url(#S)"/><path d="m23.0685 12.0012h-7.0395c-1.2514 0-2.4047-.6793-3.012-1.775l-3.03825-5.47683c-.27274-.49188-.64472-.82813-1.11156-1.195h.00063l-2.01654-1.51063c-.17913-.11437-.41442.01438-.41442.2275v.83c0 .07188-.02684.14125-.07614.19438l-4.05867 4.39875c-.2303.24937-.33141.5975-.26213.93937.1398.6875.81947 1.02813 1.46918.76563l2.39476-.96625c.17912-.0725.37822.04312.40505.235l1.10969 8.04438c.12545.9112.49306 1.7356 1.03168 2.4131.08301.1044.07552.2544-.01873.3488l-.64159.6425c-.50305.5037-.78016 1.1743-.77891 1.8875.00125.7181.30457 1.4025.81136 1.9106l1.24512 1.2556c.53488.5356 1.24577.8306 2.00217.8306h.4563c.264 0 .478-.2143.478-.4787v-1.0425c0-.2644-.214-.4788-.478-.4788h-.4563c-.2209 0-.4331-.0881-.5898-.2443l-1.26258-1.2738c-.1217-.1219-.20096-.2831-.20845-.455-.00749-.1875.06179-.365.19285-.4969l.87938-.8806c.0755-.0756.1891-.0975.2871-.0556.6048.2619 1.2695.4062 1.9647.4062h.6697 2.3486 4.9861c.4244 0 .8376.1382 1.1771.3932l2.5127 1.8868c.6036.4532.9587 1.1644.9587 1.92 0 .5194-.1679 1.0244-.4794 1.44l-2.2387 2.9888c-.1142.1531-.0056.3712.1854.3712h1.217c.2004 0 .3901-.0912.5149-.2481l3.2342-4.0481c.3639-.4556.5624-1.0213.5624-1.6044v-3.0994-4.08c0-2.7175-2.1994-4.92-4.9131-4.92z" fill="url(#T)"/><path d="m23.0685 12.0012h-7.0395c-1.2514 0-2.4047-.6793-3.012-1.775l-3.03825-5.47683c-.27274-.49188-.64472-.82813-1.11156-1.195h.00063l-2.01654-1.51063c-.17913-.11437-.41442.01438-.41442.2275v.83c0 .07188-.02684.14125-.07614.19438l-4.05867 4.39875c-.2303.24937-.33141.5975-.26213.93937.1398.6875.81947 1.02813 1.46918.76563l2.39476-.96625c.17912-.0725.37822.04312.40505.235l1.10969 8.04438c.12545.9112.49306 1.7356 1.03168 2.4131.08301.1044.07552.2544-.01873.3488l-.64159.6425c-.50305.5037-.78016 1.1743-.77891 1.8875.00125.7181.30457 1.4025.81136 1.9106l1.24512 1.2556c.53488.5356 1.24577.8306 2.00217.8306h.4563c.264 0 .478-.2143.478-.4787v-1.0425c0-.2644-.214-.4788-.478-.4788h-.4563c-.2209 0-.4331-.0881-.5898-.2443l-1.26258-1.2738c-.1217-.1219-.20096-.2831-.20845-.455-.00749-.1875.06179-.365.19285-.4969l.87938-.8806c.0755-.0756.1891-.0975.2871-.0556.6048.2619 1.2695.4062 1.9647.4062h.6697 2.3486 4.9861c.4244 0 .8376.1382 1.1771.3932l2.5127 1.8868c.6036.4532.9587 1.1644.9587 1.92 0 .5194-.1679 1.0244-.4794 1.44l-2.2387 2.9888c-.1142.1531-.0056.3712.1854.3712h1.217c.2004 0 .3901-.0912.5149-.2481l3.2342-4.0481c.3639-.4556.5624-1.0213.5624-1.6044v-3.0994-4.08c0-2.7175-2.1994-4.92-4.9131-4.92z" fill="url(#U)"/></g><path d="m4.21472 9.11464-1.25873-2.12904-.65393.70873c-.23029.24938-.33142.5975-.26215.93938.13984.6875.81946 1.02812 1.46918.76562z" fill="url(#V)"/><path d="m4.21472 9.11464-1.25873-2.12904-.65393.70873c-.23029.24938-.33142.5975-.26215.93938.13984.6875.81946 1.02812 1.46918.76562z" fill="url(#W)"/><circle cx="6.01324" cy="6.01276" fill="url(#X)" r=".5"/><circle cx="6.01324" cy="6.01276" fill="url(#Y)" r=".5"/><circle cx="6.01324" cy="6.01276" fill="url(#Z)" r=".5"/><g filter="url(#f)"><path d="m18.0028 26.6232v.8153h.3806v-.8202c0-.2744.1128-.5367.3119-.7255l2.9169-2.7668-1.9373-1.5v1.4717c0 .4437-.1476.8749-.4195 1.2256l-.8331 1.0742c-.2719.3507-.4195.7819-.4195 1.2257z" fill="url(#aa)"/></g><g filter="url(#g)"><path d="m11.3934 13.9698-4.48434-11.51564 2.47373 2.52902c.21417.21895.39354.4694.53188.74265l3.62613 7.16207z" fill="url(#ab)"/></g><g filter="url(#h)"><path d="m27.2059 16.8761c0-3.1563-2.2343-4.5157-5.0625-4.0313v.7813l1.0501.6513c.8821.5471 1.4187 1.5113 1.4187 2.5494v4.9868l2.5937 2.7187z" fill="url(#ac)"/></g><g filter="url(#i)"><path d="m23.7059 29.1885 2.5546-3.2809c.4102-.5268.6329-1.1754.6329-1.843v-6.7823" stroke="url(#ad)" stroke-width=".5"/></g><g filter="url(#j)"><path d="m8.00281 5.42291-1.1875-2.96875 2.09375 1.78125z" fill="url(#ae)"/></g><g filter="url(#k)"><path d="m9.58093 19.8898-.99587 1.1154c-.53516.5994-.50295 1.514.07304 2.0743l1.538 1.4959c.1866.1816.4368.2832.6972.2832h.6251" stroke="url(#ag)" stroke-width=".5"/></g><g filter="url(#l)"><path d="m7.75279 20.6729c-.30209.4636-.725 1.6406 0 2.6406" stroke="url(#ah)" stroke-width=".25"/></g><g filter="url(#m)"><path d="m8.00281 15.9845-1.09375-7.75.84375-.9375c.14583 1.15625.725 4.575 1 6.875s.78125 3.1562 1.1875 3.875l-.875.5937c-.525-.725-.92709-2.0729-1.0625-2.6562z" fill="#966d67"/></g></svg>