<svg fill="none" height="32" viewBox="0 0 32 32" width="32" xmlns="http://www.w3.org/2000/svg" xmlns:xlink="http://www.w3.org/1999/xlink"><filter id="a" color-interpolation-filters="sRGB" filterUnits="userSpaceOnUse" height="19" width="28" x="2" y="6"><feFlood flood-opacity="0" result="BackgroundImageFix"/><feBlend in="SourceGraphic" in2="BackgroundImageFix" mode="normal" result="shape"/><feColorMatrix in="SourceAlpha" result="hardAlpha" type="matrix" values="0 0 0 0 0 0 0 0 0 0 0 0 0 0 0 0 0 0 127 0"/><feOffset dy="-1"/><feGaussianBlur stdDeviation="1"/><feComposite in2="hardAlpha" k2="-1" k3="1" operator="arithmetic"/><feColorMatrix type="matrix" values="0 0 0 0 0.815686 0 0 0 0 0.784314 0 0 0 0 0.956863 0 0 0 1 0"/><feBlend in2="shape" mode="normal" result="effect1_innerShadow_18_14985"/></filter><radialGradient id="b" cx="0" cy="0" gradientTransform="matrix(-5.49655789 -.72724693 .72724693 -5.49655789 13.7165 12.1054)" gradientUnits="userSpaceOnUse" r="1"><stop offset=".308752" stop-color="#e8e8e9"/><stop offset="1" stop-color="#d2d2d2"/></radialGradient><radialGradient id="c" cx="0" cy="0" gradientTransform="matrix(-2.34711123 -1.8842948 1.726447 -2.1504932 12.6917 13.2625)" gradientUnits="userSpaceOnUse" r="1"><stop offset="0" stop-color="#cdcdce"/><stop offset="1" stop-color="#cdcdce" stop-opacity="0"/></radialGradient><linearGradient id="d" gradientUnits="userSpaceOnUse" x1="18.8604" x2="18.8604" y1="24.0321" y2="16.5192"><stop offset="0" stop-color="#ded7fa"/><stop offset="1" stop-color="#ded7fa" stop-opacity="0"/></linearGradient><radialGradient id="e" cx="0" cy="0" gradientTransform="matrix(-8.09089827 7.67797577 -8.2361625 -8.67910435 26.3733 13.0518)" gradientUnits="userSpaceOnUse" r="1"><stop offset=".178875" stop-color="#fcfbfe"/><stop offset="1" stop-color="#fcfbfe" stop-opacity="0"/></radialGradient><radialGradient id="f" cx="0" cy="0" gradientTransform="matrix(-5.56706527 3.97916435 -4.16955855 -5.83343701 8.65868 17.3286)" gradientUnits="userSpaceOnUse" r="1"><stop offset="0" stop-color="#fcfbfe"/><stop offset="1" stop-color="#fcfbfe" stop-opacity="0"/></radialGradient><radialGradient id="g" cx="0" cy="0" gradientTransform="matrix(-23.21339569 5.5070963 -4.33701405 -18.2812898 25.2134 15.4665)" gradientUnits="userSpaceOnUse" r="1"><stop offset=".815422" stop-color="#ceccd7" stop-opacity="0"/><stop offset="1" stop-color="#ceccd7"/></radialGradient><radialGradient id="h" cx="0" cy="0" gradientTransform="matrix(4.42538018 -4.71088683 6.50114875 6.107142 5.64434 26.0182)" gradientUnits="userSpaceOnUse" r="1"><stop offset="0" stop-color="#d0c9ee"/><stop offset="1" stop-color="#d0c9ee" stop-opacity="0"/></radialGradient><path d="m12.26 17.6443c2.2312 0 4.04-1.8087 4.04-4.04 0-2.2312-1.8088-4.03997-4.04-4.03997-2.2313 0-4.04003 1.80877-4.04003 4.03997 0 2.2313 1.80873 4.04 4.04003 4.04z" fill="url(#b)"/><path d="m12.26 17.6443c2.2312 0 4.04-1.8087 4.04-4.04 0-2.2312-1.8088-4.03997-4.04-4.03997-2.2313 0-4.04003 1.80877-4.04003 4.03997 0 2.2313 1.80873 4.04 4.04003 4.04z" fill="url(#c)"/><g filter="url(#a)"><path d="m27.2902 9.55941c-3.557-3.46687-9.2483-3.40675-12.7152.1503-.9258.94409-1.5916 2.03909-2.0205 3.20829-.0589.1604-.2559.2232-.3985.1289-.3117-.2063-.6439-.3864-.9878-.5316-.8216-.3808-1.73343-.5912-2.69534-.5912-3.57711 0-6.47286 2.8957-6.47286 6.4728 0 1.523.53105 2.9258 1.4128 4.038 1.19237 1.5631 3.0661 2.5651 5.1803 2.5651h12.7153c2.8256 0 5.3205-1.3928 6.8436-3.527 2.7254-3.5671 2.4348-8.6972-.8618-11.91359z" fill="#d5d4da"/><path d="m27.2902 9.55941c-3.557-3.46687-9.2483-3.40675-12.7152.1503-.9258.94409-1.5916 2.03909-2.0205 3.20829-.0589.1604-.2559.2232-.3985.1289-.3117-.2063-.6439-.3864-.9878-.5316-.8216-.3808-1.73343-.5912-2.69534-.5912-3.57711 0-6.47286 2.8957-6.47286 6.4728 0 1.523.53105 2.9258 1.4128 4.038 1.19237 1.5631 3.0661 2.5651 5.1803 2.5651h12.7153c2.8256 0 5.3205-1.3928 6.8436-3.527 2.7254-3.5671 2.4348-8.6972-.8618-11.91359z" fill="url(#d)"/></g><path d="m27.2902 9.55941c-3.557-3.46687-9.2483-3.40675-12.7152.1503-.9258.94409-1.5916 2.03909-2.0205 3.20829-.0589.1604-.2559.2232-.3985.1289-.3117-.2063-.6439-.3864-.9878-.5316-.8216-.3808-1.73343-.5912-2.69534-.5912-3.57711 0-6.47286 2.8957-6.47286 6.4728 0 1.523.53105 2.9258 1.4128 4.038 1.19237 1.5631 3.0661 2.5651 5.1803 2.5651h12.7153c2.8256 0 5.3205-1.3928 6.8436-3.527 2.7254-3.5671 2.4348-8.6972-.8618-11.91359z" fill="url(#e)"/><path d="m27.2902 9.55941c-3.557-3.46687-9.2483-3.40675-12.7152.1503-.9258.94409-1.5916 2.03909-2.0205 3.20829-.0589.1604-.2559.2232-.3985.1289-.3117-.2063-.6439-.3864-.9878-.5316-.8216-.3808-1.73343-.5912-2.69534-.5912-3.57711 0-6.47286 2.8957-6.47286 6.4728 0 1.523.53105 2.9258 1.4128 4.038 1.19237 1.5631 3.0661 2.5651 5.1803 2.5651h12.7153c2.8256 0 5.3205-1.3928 6.8436-3.527 2.7254-3.5671 2.4348-8.6972-.8618-11.91359z" fill="url(#f)"/><path d="m27.2902 9.55941c-3.557-3.46687-9.2483-3.40675-12.7152.1503-.9258.94409-1.5916 2.03909-2.0205 3.20829-.0589.1604-.2559.2232-.3985.1289-.3117-.2063-.6439-.3864-.9878-.5316-.8216-.3808-1.73343-.5912-2.69534-.5912-3.57711 0-6.47286 2.8957-6.47286 6.4728 0 1.523.53105 2.9258 1.4128 4.038 1.19237 1.5631 3.0661 2.5651 5.1803 2.5651h12.7153c2.8256 0 5.3205-1.3928 6.8436-3.527 2.7254-3.5671 2.4348-8.6972-.8618-11.91359z" fill="url(#g)"/><path d="m27.2902 9.55941c-3.557-3.46687-9.2483-3.40675-12.7152.1503-.9258.94409-1.5916 2.03909-2.0205 3.20829-.0589.1604-.2559.2232-.3985.1289-.3117-.2063-.6439-.3864-.9878-.5316-.8216-.3808-1.73343-.5912-2.69534-.5912-3.57711 0-6.47286 2.8957-6.47286 6.4728 0 1.523.53105 2.9258 1.4128 4.038 1.19237 1.5631 3.0661 2.5651 5.1803 2.5651h12.7153c2.8256 0 5.3205-1.3928 6.8436-3.527 2.7254-3.5671 2.4348-8.6972-.8618-11.91359z" fill="url(#h)"/></svg>