<svg fill="none" height="32" viewBox="0 0 32 32" width="32" xmlns="http://www.w3.org/2000/svg" xmlns:xlink="http://www.w3.org/1999/xlink"><filter id="a" color-interpolation-filters="sRGB" filterUnits="userSpaceOnUse" height="9.9375" width="9.9375" x="2.05859" y="20.594"><feFlood flood-opacity="0" result="BackgroundImageFix"/><feBlend in="SourceGraphic" in2="BackgroundImageFix" mode="normal" result="shape"/><feColorMatrix in="SourceAlpha" result="hardAlpha" type="matrix" values="0 0 0 0 0 0 0 0 0 0 0 0 0 0 0 0 0 0 127 0"/><feOffset/><feGaussianBlur stdDeviation=".25"/><feComposite in2="hardAlpha" k2="-1" k3="1" operator="arithmetic"/><feColorMatrix type="matrix" values="0 0 0 0 0.227451 0 0 0 0 0.156863 0 0 0 0 0.27451 0 0 0 1 0"/><feBlend in2="shape" mode="normal" result="effect1_innerShadow_3987_23409"/></filter><filter id="b" color-interpolation-filters="sRGB" filterUnits="userSpaceOnUse" height="10.4093" width="10.4093" x="1.82266" y="20.3581"><feFlood flood-opacity="0" result="BackgroundImageFix"/><feBlend in="SourceGraphic" in2="BackgroundImageFix" mode="normal" result="shape"/><feGaussianBlur result="effect1_foregroundBlur_3987_23409" stdDeviation=".25"/></filter><filter id="c" color-interpolation-filters="sRGB" filterUnits="userSpaceOnUse" height="10.0375" width="10.0375" x="20.0039" y="20.494"><feFlood flood-opacity="0" result="BackgroundImageFix"/><feBlend in="SourceGraphic" in2="BackgroundImageFix" mode="normal" result="shape"/><feColorMatrix in="SourceAlpha" result="hardAlpha" type="matrix" values="0 0 0 0 0 0 0 0 0 0 0 0 0 0 0 0 0 0 127 0"/><feOffset dx=".1" dy="-.1"/><feGaussianBlur stdDeviation=".2"/><feComposite in2="hardAlpha" k2="-1" k3="1" operator="arithmetic"/><feColorMatrix type="matrix" values="0 0 0 0 0.152941 0 0 0 0 0.0862745 0 0 0 0 0.164706 0 0 0 1 0"/><feBlend in2="shape" mode="normal" result="effect1_innerShadow_3987_23409"/></filter><filter id="d" color-interpolation-filters="sRGB" filterUnits="userSpaceOnUse" height="4.07656" width="9.1875" x="16.6367" y="23.4495"><feFlood flood-opacity="0" result="BackgroundImageFix"/><feBlend in="SourceGraphic" in2="BackgroundImageFix" mode="normal" result="shape"/><feColorMatrix in="SourceAlpha" result="hardAlpha" type="matrix" values="0 0 0 0 0 0 0 0 0 0 0 0 0 0 0 0 0 0 127 0"/><feOffset dx=".25" dy="-.25"/><feGaussianBlur stdDeviation=".25"/><feComposite in2="hardAlpha" k2="-1" k3="1" operator="arithmetic"/><feColorMatrix type="matrix" values="0 0 0 0 0.701961 0 0 0 0 0.341176 0 0 0 0 0.254902 0 0 0 1 0"/><feBlend in2="shape" mode="normal" result="effect1_innerShadow_3987_23409"/><feColorMatrix in="SourceAlpha" result="hardAlpha" type="matrix" values="0 0 0 0 0 0 0 0 0 0 0 0 0 0 0 0 0 0 127 0"/><feOffset dx=".25" dy=".1"/><feGaussianBlur stdDeviation=".25"/><feComposite in2="hardAlpha" k2="-1" k3="1" operator="arithmetic"/><feColorMatrix type="matrix" values="0 0 0 0 0.894118 0 0 0 0 0.490196 0 0 0 0 0.196078 0 0 0 1 0"/><feBlend in2="effect1_innerShadow_3987_23409" mode="normal" result="effect2_innerShadow_3987_23409"/></filter><filter id="e" color-interpolation-filters="sRGB" filterUnits="userSpaceOnUse" height="2.18128" width="4.03448" x="13.4993" y="23.662"><feFlood flood-opacity="0" result="BackgroundImageFix"/><feBlend in="SourceGraphic" in2="BackgroundImageFix" mode="normal" result="shape"/><feColorMatrix in="SourceAlpha" result="hardAlpha" type="matrix" values="0 0 0 0 0 0 0 0 0 0 0 0 0 0 0 0 0 0 127 0"/><feOffset dx=".1" dy="-.15"/><feGaussianBlur stdDeviation=".125"/><feComposite in2="hardAlpha" k2="-1" k3="1" operator="arithmetic"/><feColorMatrix type="matrix" values="0 0 0 0 0.27451 0 0 0 0 0.188235 0 0 0 0 0.52549 0 0 0 1 0"/><feBlend in2="shape" mode="normal" result="effect1_innerShadow_3987_23409"/></filter><filter id="f" color-interpolation-filters="sRGB" filterUnits="userSpaceOnUse" height="8.62047" width="3.57217" x="15.1724" y="16.072"><feFlood flood-opacity="0" result="BackgroundImageFix"/><feBlend in="SourceGraphic" in2="BackgroundImageFix" mode="normal" result="shape"/><feColorMatrix in="SourceAlpha" result="hardAlpha" type="matrix" values="0 0 0 0 0 0 0 0 0 0 0 0 0 0 0 0 0 0 127 0"/><feOffset dx=".1" dy=".2"/><feGaussianBlur stdDeviation=".1"/><feComposite in2="hardAlpha" k2="-1" k3="1" operator="arithmetic"/><feColorMatrix type="matrix" values="0 0 0 0 0.333333 0 0 0 0 0.262745 0 0 0 0 0.254902 0 0 0 1 0"/><feBlend in2="shape" mode="normal" result="effect1_innerShadow_3987_23409"/></filter><filter id="g" color-interpolation-filters="sRGB" filterUnits="userSpaceOnUse" height="7.6702" width="6.66827" x="16.5508" y="10.9377"><feFlood flood-opacity="0" result="BackgroundImageFix"/><feBlend in="SourceGraphic" in2="BackgroundImageFix" mode="normal" result="shape"/><feColorMatrix in="SourceAlpha" result="hardAlpha" type="matrix" values="0 0 0 0 0 0 0 0 0 0 0 0 0 0 0 0 0 0 127 0"/><feOffset dx=".25" dy="-.25"/><feGaussianBlur stdDeviation=".625"/><feComposite in2="hardAlpha" k2="-1" k3="1" operator="arithmetic"/><feColorMatrix type="matrix" values="0 0 0 0 0.482353 0 0 0 0 0.360784 0 0 0 0 0.556863 0 0 0 1 0"/><feBlend in2="shape" mode="normal" result="effect1_innerShadow_3987_23409"/></filter><filter id="h" color-interpolation-filters="sRGB" filterUnits="userSpaceOnUse" height="5.86945" width="7.97131" x="15.0093" y="7.8418"><feFlood flood-opacity="0" result="BackgroundImageFix"/><feBlend in="SourceGraphic" in2="BackgroundImageFix" mode="normal" result="shape"/><feColorMatrix in="SourceAlpha" result="hardAlpha" type="matrix" values="0 0 0 0 0 0 0 0 0 0 0 0 0 0 0 0 0 0 127 0"/><feOffset dx="1"/><feGaussianBlur stdDeviation=".75"/><feComposite in2="hardAlpha" k2="-1" k3="1" operator="arithmetic"/><feColorMatrix type="matrix" values="0 0 0 0 0.301961 0 0 0 0 0.243137 0 0 0 0 0.466667 0 0 0 1 0"/><feBlend in2="shape" mode="normal" result="effect1_innerShadow_3987_23409"/></filter><filter id="i" color-interpolation-filters="sRGB" filterUnits="userSpaceOnUse" height="4.25937" width="6.00464" x="6.90552" y="11.6206"><feFlood flood-opacity="0" result="BackgroundImageFix"/><feBlend in="SourceGraphic" in2="BackgroundImageFix" mode="normal" result="shape"/><feColorMatrix in="SourceAlpha" result="hardAlpha" type="matrix" values="0 0 0 0 0 0 0 0 0 0 0 0 0 0 0 0 0 0 127 0"/><feOffset dx="-.25"/><feGaussianBlur stdDeviation=".5"/><feComposite in2="hardAlpha" k2="-1" k3="1" operator="arithmetic"/><feColorMatrix type="matrix" values="0 0 0 0 0.576471 0 0 0 0 0.505882 0 0 0 0 0.529412 0 0 0 1 0"/><feBlend in2="shape" mode="normal" result="effect1_innerShadow_3987_23409"/></filter><filter id="j" color-interpolation-filters="sRGB" filterUnits="userSpaceOnUse" height="2.91486" width="3.13672" x="6.90625" y="13.2151"><feFlood flood-opacity="0" result="BackgroundImageFix"/><feBlend in="SourceGraphic" in2="BackgroundImageFix" mode="normal" result="shape"/><feColorMatrix in="SourceAlpha" result="hardAlpha" type="matrix" values="0 0 0 0 0 0 0 0 0 0 0 0 0 0 0 0 0 0 127 0"/><feOffset dx="-.25" dy=".25"/><feGaussianBlur stdDeviation=".25"/><feComposite in2="hardAlpha" k2="-1" k3="1" operator="arithmetic"/><feColorMatrix type="matrix" values="0 0 0 0 0.164706 0 0 0 0 0.117647 0 0 0 0 0.231373 0 0 0 1 0"/><feBlend in2="shape" mode="normal" result="effect1_innerShadow_3987_23409"/></filter><filter id="k" color-interpolation-filters="sRGB" filterUnits="userSpaceOnUse" height="6.93665" width="10.2718" x="7.7825" y="8.17676"><feFlood flood-opacity="0" result="BackgroundImageFix"/><feBlend in="SourceGraphic" in2="BackgroundImageFix" mode="normal" result="shape"/><feColorMatrix in="SourceAlpha" result="hardAlpha" type="matrix" values="0 0 0 0 0 0 0 0 0 0 0 0 0 0 0 0 0 0 127 0"/><feOffset dx=".5" dy="-.5"/><feGaussianBlur stdDeviation=".375"/><feComposite in2="hardAlpha" k2="-1" k3="1" operator="arithmetic"/><feColorMatrix type="matrix" values="0 0 0 0 0.25098 0 0 0 0 0.12549 0 0 0 0 0.203922 0 0 0 1 0"/><feBlend in2="shape" mode="normal" result="effect1_innerShadow_3987_23409"/></filter><filter id="l" color-interpolation-filters="sRGB" filterUnits="userSpaceOnUse" height="6.37188" width="5.49572" x="17.6969" y="11.3617"><feFlood flood-opacity="0" result="BackgroundImageFix"/><feBlend in="SourceGraphic" in2="BackgroundImageFix" mode="normal" result="shape"/><feGaussianBlur result="effect1_foregroundBlur_3987_23409" stdDeviation=".3"/></filter><filter id="m" color-interpolation-filters="sRGB" filterUnits="userSpaceOnUse" height="2.96935" width="2.96935" x="7.71055" y="12.5255"><feFlood flood-opacity="0" result="BackgroundImageFix"/><feBlend in="SourceGraphic" in2="BackgroundImageFix" mode="normal" result="shape"/><feGaussianBlur result="effect1_foregroundBlur_3987_23409" stdDeviation=".3"/></filter><filter id="n" color-interpolation-filters="sRGB" filterUnits="userSpaceOnUse" height="5.29221" width="5.80768" x="10.0159" y="5.0228"><feFlood flood-opacity="0" result="BackgroundImageFix"/><feBlend in="SourceGraphic" in2="BackgroundImageFix" mode="normal" result="shape"/><feColorMatrix in="SourceAlpha" result="hardAlpha" type="matrix" values="0 0 0 0 0 0 0 0 0 0 0 0 0 0 0 0 0 0 127 0"/><feOffset dx="-.25" dy="-.25"/><feGaussianBlur stdDeviation=".25"/><feComposite in2="hardAlpha" k2="-1" k3="1" operator="arithmetic"/><feColorMatrix type="matrix" values="0 0 0 0 0.2 0 0 0 0 0.109804 0 0 0 0 0.184314 0 0 0 1 0"/><feBlend in2="shape" mode="normal" result="effect1_innerShadow_3987_23409"/><feColorMatrix in="SourceAlpha" result="hardAlpha" type="matrix" values="0 0 0 0 0 0 0 0 0 0 0 0 0 0 0 0 0 0 127 0"/><feOffset dx=".25" dy=".15"/><feGaussianBlur stdDeviation=".15"/><feComposite in2="hardAlpha" k2="-1" k3="1" operator="arithmetic"/><feColorMatrix type="matrix" values="0 0 0 0 0.352941 0 0 0 0 0.278431 0 0 0 0 0.270588 0 0 0 1 0"/><feBlend in2="effect1_innerShadow_3987_23409" mode="normal" result="effect2_innerShadow_3987_23409"/></filter><filter id="o" color-interpolation-filters="sRGB" filterUnits="userSpaceOnUse" height="3.78862" width="4.48554" x="12.8077" y="4.61677"><feFlood flood-opacity="0" result="BackgroundImageFix"/><feBlend in="SourceGraphic" in2="BackgroundImageFix" mode="normal" result="shape"/><feColorMatrix in="SourceAlpha" result="hardAlpha" type="matrix" values="0 0 0 0 0 0 0 0 0 0 0 0 0 0 0 0 0 0 127 0"/><feOffset dx=".15" dy="-.2"/><feGaussianBlur stdDeviation=".3"/><feComposite in2="hardAlpha" k2="-1" k3="1" operator="arithmetic"/><feColorMatrix type="matrix" values="0 0 0 0 0.141176 0 0 0 0 0.0666667 0 0 0 0 0.196078 0 0 0 1 0"/><feBlend in2="shape" mode="normal" result="effect1_innerShadow_3987_23409"/></filter><filter id="p" color-interpolation-filters="sRGB" filterUnits="userSpaceOnUse" height="5.01624" width="5.93307" x="9.25436" y="2.45754"><feFlood flood-opacity="0" result="BackgroundImageFix"/><feBlend in="SourceGraphic" in2="BackgroundImageFix" mode="normal" result="shape"/><feColorMatrix in="SourceAlpha" result="hardAlpha" type="matrix" values="0 0 0 0 0 0 0 0 0 0 0 0 0 0 0 0 0 0 127 0"/><feOffset dy="-.15"/><feGaussianBlur stdDeviation=".3"/><feComposite in2="hardAlpha" k2="-1" k3="1" operator="arithmetic"/><feColorMatrix type="matrix" values="0 0 0 0 0.305882 0 0 0 0 0.556863 0 0 0 0 0.882353 0 0 0 1 0"/><feBlend in2="shape" mode="normal" result="effect1_innerShadow_3987_23409"/></filter><filter id="q" color-interpolation-filters="sRGB" filterUnits="userSpaceOnUse" height="1.35229" width="2.01248" x="11.2101" y="4.61191"><feFlood flood-opacity="0" result="BackgroundImageFix"/><feBlend in="SourceGraphic" in2="BackgroundImageFix" mode="normal" result="shape"/><feColorMatrix in="SourceAlpha" result="hardAlpha" type="matrix" values="0 0 0 0 0 0 0 0 0 0 0 0 0 0 0 0 0 0 127 0"/><feOffset/><feGaussianBlur stdDeviation=".25"/><feComposite in2="hardAlpha" k2="-1" k3="1" operator="arithmetic"/><feColorMatrix type="matrix" values="0 0 0 0 0.137255 0 0 0 0 0.482353 0 0 0 0 0.796078 0 0 0 1 0"/><feBlend in2="shape" mode="normal" result="effect1_innerShadow_3987_23409"/></filter><radialGradient id="r" cx="0" cy="0" gradientTransform="matrix(-5.87497859 7.81251861 -7.54119471 -5.67094425 10.2695 21.6487)" gradientUnits="userSpaceOnUse" r="1"><stop offset="0" stop-color="#32295b"/><stop offset="1" stop-color="#3c2150"/></radialGradient><linearGradient id="s" gradientUnits="userSpaceOnUse" x1="9.23828" x2="3.20703" y1="21.8987" y2="28.9299"><stop offset="0" stop-color="#302a5b"/><stop offset="1" stop-color="#302a5b" stop-opacity="0"/></linearGradient><linearGradient id="t" gradientUnits="userSpaceOnUse" x1="17.707" x2="18.6758" y1="21.1018" y2="20.0959"><stop offset=".573276" stop-color="#381a27"/><stop offset="1" stop-color="#4a3939"/></linearGradient><linearGradient id="u" gradientUnits="userSpaceOnUse" x1="22.2227" x2="17.6289" y1="22.67" y2="22.2111"><stop offset=".890666" stop-color="#615f76" stop-opacity="0"/><stop offset="1" stop-color="#615f76"/></linearGradient><radialGradient id="v" cx="0" cy="0" gradientTransform="matrix(-1.53126999 2.45311583 -.44454279 -.27748997 20.3008 21.5393)" gradientUnits="userSpaceOnUse" r="1"><stop offset="0" stop-color="#5d5c7e"/><stop offset="1" stop-color="#5d5c7e" stop-opacity="0"/></radialGradient><linearGradient id="w" gradientUnits="userSpaceOnUse" x1="11.5039" x2="10.6289" y1="15.4923" y2="15.2111"><stop offset="0" stop-color="#bfa8c7"/><stop offset="1" stop-color="#908590"/></linearGradient><radialGradient id="x" cx="0" cy="0" gradientTransform="matrix(1.07812374 -2.67187294 .30151132 .12166241 10.582 17.1798)" gradientUnits="userSpaceOnUse" r="1"><stop offset="0" stop-color="#baa3b9"/><stop offset="1" stop-color="#baa3b9" stop-opacity="0"/></radialGradient><linearGradient id="y" gradientUnits="userSpaceOnUse" x1="9.73828" x2="8.45703" y1="20.4457" y2="19.9613"><stop offset=".146259" stop-color="#d4385b"/><stop offset="1" stop-color="#973c50"/></linearGradient><radialGradient id="z" cx="0" cy="0" gradientTransform="matrix(6.71875315 4.82812728 -1.31598798 1.83131012 10.1758 19.1018)" gradientUnits="userSpaceOnUse" r="1"><stop offset="0" stop-color="#ce3d5e"/><stop offset="1" stop-color="#932145"/></radialGradient><linearGradient id="A" gradientUnits="userSpaceOnUse" x1="12.957" x2="13.3477" y1="22.4924" y2="21.9924"><stop offset="0" stop-color="#96275e"/><stop offset="1" stop-color="#96275e" stop-opacity="0"/><stop offset="1" stop-color="#9c2649" stop-opacity="0"/></linearGradient><radialGradient id="B" cx="0" cy="0" gradientTransform="matrix(-6.86715328 7.00003073 -6.75692924 -6.62866645 29.207 22.4612)" gradientUnits="userSpaceOnUse" r="1"><stop offset=".427322" stop-color="#373c67"/><stop offset="1" stop-color="#38144f"/></radialGradient><linearGradient id="C" gradientUnits="userSpaceOnUse" x1="20.0039" x2="27.7588" y1="28.0035" y2="25.5627"><stop offset="0" stop-color="#352542"/><stop offset="1" stop-color="#352542" stop-opacity="0"/></linearGradient><linearGradient id="D" gradientUnits="userSpaceOnUse" x1="23.7852" x2="22.7227" y1="22.43" y2="23.18"><stop offset="0" stop-color="#fd5a60"/><stop offset="1" stop-color="#af253c"/></linearGradient><linearGradient id="E" gradientUnits="userSpaceOnUse" x1="19.582" x2="18.5664" y1="21.2034" y2="21.055"><stop offset="0" stop-color="#e5435f"/><stop offset="1" stop-color="#a62f2f"/></linearGradient><radialGradient id="F" cx="0" cy="0" gradientTransform="matrix(-1.0937525 4.48437198 -.42827913 -.10445863 20.1133 18.0081)" gradientUnits="userSpaceOnUse" r="1"><stop offset="0" stop-color="#e44354"/><stop offset="1" stop-color="#e44354" stop-opacity="0"/></radialGradient><radialGradient id="G" cx="0" cy="0" gradientTransform="matrix(-.03125031 -1.06250053 1.65481439 -.04867146 18.457 24.3363)" gradientUnits="userSpaceOnUse" r="1"><stop offset="0" stop-color="#ac2735"/><stop offset="1" stop-color="#ac2735" stop-opacity="0"/></radialGradient><radialGradient id="H" cx="0" cy="0" gradientTransform="matrix(2.18359331 .43749824 -.55377075 2.76391991 13.2422 17.3362)" gradientUnits="userSpaceOnUse" r="1"><stop offset=".114285" stop-color="#4d3938"/><stop offset="1" stop-color="#2f1b1b"/></radialGradient><radialGradient id="I" cx="0" cy="0" gradientTransform="matrix(1.21875062 .45312581 -.35000106 .94138095 15.7383 17.7424)" gradientUnits="userSpaceOnUse" r="1"><stop offset=".345681" stop-color="#291618"/><stop offset="1" stop-color="#291618" stop-opacity="0"/></radialGradient><linearGradient id="J" gradientUnits="userSpaceOnUse" x1="14.5195" x2="14.9414" y1="15.4612" y2="16.1487"><stop offset="0" stop-color="#41302f"/><stop offset="1" stop-color="#41302f" stop-opacity="0"/></linearGradient><radialGradient id="K" cx="0" cy="0" gradientTransform="matrix(-2.31251357 1.68748882 -.72630839 -.99532394 18.457 14.4299)" gradientUnits="userSpaceOnUse" r="1"><stop offset=".254766" stop-color="#4f414e"/><stop offset="1" stop-color="#564a5a"/></radialGradient><linearGradient id="L" gradientUnits="userSpaceOnUse" x1="16.5898" x2="16.957" y1="14.3284" y2="14.8596"><stop offset="0" stop-color="#72696b"/><stop offset="1" stop-color="#72696b" stop-opacity="0"/></linearGradient><linearGradient id="M" gradientUnits="userSpaceOnUse" x1="25.3008" x2="16.6367" y1="25.5627" y2="25.5627"><stop offset="0" stop-color="#f7b14e"/><stop offset="1" stop-color="#e8774d"/></linearGradient><radialGradient id="N" cx="0" cy="0" gradientTransform="matrix(-.867187 0 0 -.96875 25.5742 25.3987)" gradientUnits="userSpaceOnUse" r="1"><stop offset="0" stop-color="#ffd359"/><stop offset="1" stop-color="#ffd359" stop-opacity="0"/></radialGradient><radialGradient id="O" cx="0" cy="0" gradientTransform="matrix(1.56250158 -.65625048 .66796813 1.59040076 17.6758 25.7581)" gradientUnits="userSpaceOnUse" r="1"><stop offset=".470418" stop-color="#d8cfe2"/><stop offset="1" stop-color="#c5bfcb"/></radialGradient><radialGradient id="P" cx="0" cy="0" gradientTransform="matrix(-1.56250016 .85938242 -.85938242 -1.56250016 18.8789 25.2893)" gradientUnits="userSpaceOnUse" r="1"><stop offset=".632246" stop-color="#e2dfe5" stop-opacity="0"/><stop offset="1" stop-color="#e2dfe5"/></radialGradient><linearGradient id="Q" gradientUnits="userSpaceOnUse" x1="17.4338" x2="16.6758" y1="25.4299" y2="25.4299"><stop offset="0" stop-color="#605c92"/><stop offset="1" stop-color="#605c92" stop-opacity="0"/></linearGradient><radialGradient id="R" cx="0" cy="0" gradientTransform="matrix(-1.10939185 -1.99999616 6.41983308 -3.56106207 16.2539 26.1018)" gradientUnits="userSpaceOnUse" r="1"><stop offset=".300652" stop-color="#5c4f86" stop-opacity="0"/><stop offset=".942972" stop-color="#493b63"/></radialGradient><linearGradient id="S" gradientUnits="userSpaceOnUse" x1="15.5198" x2="13.9151" y1="9.96139" y2="9.89162"><stop offset="0" stop-color="#513b37"/><stop offset="1" stop-color="#2f191c"/></linearGradient><radialGradient id="T" cx="0" cy="0" gradientTransform="matrix(.03131881 1.42110493 -.52543542 .01157973 14.9336 9.48314)" gradientUnits="userSpaceOnUse" r="1"><stop offset=".180159" stop-color="#544241"/><stop offset="1" stop-color="#544241" stop-opacity="0"/></radialGradient><radialGradient id="U" cx="0" cy="0" gradientTransform="matrix(-.74999348 -8.78125028 2.5288134 -.21598218 17.8945 24.4925)" gradientUnits="userSpaceOnUse" r="1"><stop offset=".122469" stop-color="#513938"/><stop offset="1" stop-color="#442d2c"/></radialGradient><radialGradient id="V" cx="0" cy="0" gradientTransform="matrix(-1.68750309 .06249727 -.11168168 -3.01554262 18.8008 18.2112)" gradientUnits="userSpaceOnUse" r="1"><stop offset=".284247" stop-color="#3f202e"/><stop offset="1" stop-color="#3f202e" stop-opacity="0"/></radialGradient><radialGradient id="W" cx="0" cy="0" gradientTransform="matrix(5.12499803 -4.92969106 2.61319214 2.71672289 16.7695 16.1174)" gradientUnits="userSpaceOnUse" r="1"><stop offset=".148384" stop-color="#726b71"/><stop offset="1" stop-color="#a3a1a2"/></radialGradient><radialGradient id="X" cx="0" cy="0" gradientTransform="matrix(2.59374628 -.09374984 .01804196 .49916105 18.1914 14.3987)" gradientUnits="userSpaceOnUse" r="1"><stop offset=".219629" stop-color="#736e75"/><stop offset="1" stop-color="#736e75" stop-opacity="0"/></radialGradient><radialGradient id="Y" cx="0" cy="0" gradientTransform="matrix(-3.49999043 -4.06251234 1.7090785 -1.47242836 21.082 12.0862)" gradientUnits="userSpaceOnUse" r="1"><stop offset="0" stop-color="#977ed0"/><stop offset="1" stop-color="#674e9f"/></radialGradient><radialGradient id="Z" cx="0" cy="0" gradientTransform="matrix(3.25232 0 0 1.29925 10.0328 13.5237)" gradientUnits="userSpaceOnUse" r="1"><stop offset=".25377" stop-color="#8c5ea8"/><stop offset="1" stop-color="#8c5ea8" stop-opacity="0"/></radialGradient><radialGradient id="aa" cx="0" cy="0" gradientTransform="matrix(-1.03442913 .40624249 -.45267741 -1.15266796 17.554 9.33624)" gradientUnits="userSpaceOnUse" r="1"><stop offset="0" stop-color="#604f4d"/><stop offset="1" stop-color="#604f4d" stop-opacity="0"/></radialGradient><linearGradient id="ab"><stop offset=".511668" stop-color="#3c212e"/><stop offset="1" stop-color="#492f31"/></linearGradient><radialGradient id="ac" cx="0" cy="0" gradientTransform="matrix(1.68979397 -1.43022763 1.27507919 1.50648825 7.36577 14.5986)" gradientUnits="userSpaceOnUse" r="1" xlink:href="#ab"/><linearGradient id="ad"><stop offset=".679691" stop-color="#584744" stop-opacity="0"/><stop offset="1" stop-color="#584744"/></linearGradient><radialGradient id="ae" cx="0" cy="0" gradientTransform="matrix(-1.31056149 -.2410769 .37304097 -2.02795512 8.39609 14.464)" gradientUnits="userSpaceOnUse" r="1" xlink:href="#ad"/><radialGradient id="af" cx="0" cy="0" gradientTransform="matrix(5.49999736 -1.43750185 2.00474707 7.67032308 17.332 15.2738)" gradientUnits="userSpaceOnUse" r="1"><stop offset=".624989" stop-color="#afa6a9" stop-opacity="0"/><stop offset=".90475" stop-color="#afa6a9"/></radialGradient><radialGradient id="ag" cx="0" cy="0" gradientTransform="matrix(1.09826207 -1.28234694 1.06577046 .91277582 7.59097 15.0949)" gradientUnits="userSpaceOnUse" r="1" xlink:href="#ab"/><radialGradient id="ah" cx="0" cy="0" gradientTransform="matrix(-.81595845 -.17382436 .37209174 -1.74665622 8.24105 14.9511)" gradientUnits="userSpaceOnUse" r="1" xlink:href="#ad"/><radialGradient id="ai" cx="0" cy="0" gradientTransform="matrix(.8593763 -1.30714651 1.07140993 .70439257 8.15454 15.5081)" gradientUnits="userSpaceOnUse" r="1" xlink:href="#ab"/><radialGradient id="aj" cx="0" cy="0" gradientTransform="matrix(-.74999978 -.07812679 .17331623 -1.66379726 8.72412 15.3074)" gradientUnits="userSpaceOnUse" r="1" xlink:href="#ad"/><radialGradient id="ak" cx="0" cy="0" gradientTransform="matrix(.68638531 .33665786 -.42349775 .86343634 10.7122 8.42404)" gradientUnits="userSpaceOnUse" r="1"><stop offset=".514962" stop-color="#463736"/><stop offset="1" stop-color="#483637"/></radialGradient><radialGradient id="al" cx="0" cy="0" gradientTransform="matrix(3.11971629 -1.12133442 1.16300663 3.23565449 11.486 8.42666)" gradientUnits="userSpaceOnUse" r="1"><stop offset=".164144" stop-color="#402e2d"/><stop offset="1" stop-color="#41292d"/></radialGradient><radialGradient id="am" cx="0" cy="0" gradientTransform="matrix(1.08488153 1.57221433 -1.26866722 .87542367 13.0208 5.67144)" gradientUnits="userSpaceOnUse" r="1"><stop offset="0" stop-color="#2b1a25"/><stop offset="1" stop-color="#2b1a25" stop-opacity="0"/></radialGradient><linearGradient id="an" gradientUnits="userSpaceOnUse" x1="11.0825" x2="11.3234" y1="7.79192" y2="7.65161"><stop offset=".242014" stop-color="#5f5451"/><stop offset=".667004" stop-color="#383838"/></linearGradient><radialGradient id="ao" cx="0" cy="0" gradientTransform="matrix(-.911004 2.47417064 -3.56797034 -1.31374741 15.6791 5.12052)" gradientUnits="userSpaceOnUse" r="1"><stop offset=".0943174" stop-color="#2b2427"/><stop offset="1" stop-color="#1d0f22"/></radialGradient><radialGradient id="ap" cx="0" cy="0" gradientTransform="matrix(-.53433251 -.48627337 .28134687 -.30915281 13.9872 6.72585)" gradientUnits="userSpaceOnUse" r="1"><stop offset=".0175901" stop-color="#615250"/><stop offset="1" stop-color="#40292e"/></radialGradient><linearGradient id="aq" gradientUnits="userSpaceOnUse" x1="13.7309" x2="13.3087" y1="7.20238" y2="7.41343"><stop offset="0" stop-color="#37234c"/><stop offset="1" stop-color="#37234c" stop-opacity="0"/></linearGradient><linearGradient id="ar" gradientUnits="userSpaceOnUse" x1="13.5626" x2="14.0925" y1="9.01659" y2="8.70542"><stop offset=".324467" stop-color="#72687c"/><stop offset="1" stop-color="#72687c" stop-opacity="0"/></linearGradient><radialGradient id="as" cx="0" cy="0" gradientTransform="matrix(.1897461 -.08539831 .50056662 1.11220662 13.363 7.01174)" gradientUnits="userSpaceOnUse" r="1"><stop offset="0" stop-color="#564975"/><stop offset="1" stop-color="#4d3a6e" stop-opacity="0"/></radialGradient><radialGradient id="at" cx="0" cy="0" gradientTransform="matrix(.97483114 2.17088091 -2.55156116 1.1457751 11.8843 3.82955)" gradientUnits="userSpaceOnUse" r="1"><stop offset=".0445853" stop-color="#4fbdff"/><stop offset=".918703" stop-color="#52abe4"/></radialGradient><radialGradient id="au" cx="0" cy="0" gradientTransform="matrix(-.28730053 -.62018268 1.59039672 -.73675361 12.3648 5.5944)" gradientUnits="userSpaceOnUse" r="1"><stop offset=".217657" stop-color="#4b89d0"/><stop offset="1" stop-color="#337bcd"/></radialGradient><g filter="url(#a)"><path clip-rule="evenodd" d="m7.02734 21.594c-2.19188 0-3.96875 1.7769-3.96875 3.9687 0 2.1919 1.77687 3.9688 3.96875 3.9688s3.96876-1.7769 3.96876-3.9688c0-2.1918-1.77688-3.9687-3.96876-3.9687zm-4.96875 3.9687c0-2.7441 2.22459-4.9687 4.96875-4.9687 2.74417 0 4.96876 2.2246 4.96876 4.9687 0 2.7442-2.22459 4.9688-4.96876 4.9688-2.74416 0-4.96875-2.2246-4.96875-4.9688z" fill="url(#r)" fill-rule="evenodd"/></g><g filter="url(#b)"><circle cx="7.02733" cy="25.5627" r="4.55468" stroke="url(#s)" stroke-width=".3"/></g><path d="m19.1584 20.719-1.8264-1.9883-.4236 2.0586 1.001.7056z" fill="url(#t)"/><path d="m17.8529 21.4521-.3004 1.9807c-.0663.4758-.0394.8871.3647 1.1669.1015.0702.2373.031.3065-.0713l1.9637-2.9016c.0619-.0915.038-.2159-.0535-.2778l-.9519-.6442z" fill="#413354"/><path d="m17.8529 21.4521-.3004 1.9807c-.0663.4758-.0394.8871.3647 1.1669.1015.0702.2373.031.3065-.0713l1.9637-2.9016c.0619-.0915.038-.2159-.0535-.2778l-.9519-.6442z" fill="url(#u)"/><path d="m17.8529 21.4521-.3004 1.9807c-.0663.4758-.0394.8871.3647 1.1669.1015.0702.2373.031.3065-.0713l1.9637-2.9016c.0619-.0915.038-.2159-.0535-.2778l-.9519-.6442z" fill="url(#v)"/><g clip-rule="evenodd" fill-rule="evenodd"><path d="m12.4596 12.1863c.2553.1053.3769.3976.2717.6529l-2.5399 6.2469c-.1053.2553-.39756.3769-.65285.2716s-.3769-.3976-.27163-.6529l2.53988-6.2468c.1052-.2553.3975-.3769.6528-.2717z" fill="url(#w)"/><path d="m12.4596 12.1863c.2553.1053.3769.3976.2717.6529l-2.5399 6.2469c-.1053.2553-.39756.3769-.65285.2716s-.3769-.3976-.27163-.6529l2.53988-6.2468c.1052-.2553.3975-.3769.6528-.2717z" fill="url(#x)"/><path d="m10.5256 16.9213c.281.1155.4151.4369.2996.7179l-3.28907 8c-.11551.2809-.43689.415-.71783.2995s-.41505-.4369-.29955-.7178l3.28907-8c.1155-.2809.43688-.4151.71778-.2996z" fill="url(#y)"/><path d="m9.60157 19.1486c.10169-.2219.43083-.4654.67263-.2816l6.25 4.75c.2419.1838.2889.5288.1051.7707-.1838.2418-.5288.2889-.7707.1051l-6.08109-4.6098c-.24184-.1838-.30483-.4531-.17594-.7344z" fill="url(#z)"/><path d="m9.60157 19.1486c.10169-.2219.43083-.4654.67263-.2816l6.25 4.75c.2419.1838.2889.5288.1051.7707-.1838.2418-.5288.2889-.7707.1051l-6.08109-4.6098c-.24184-.1838-.30483-.4531-.17594-.7344z" fill="url(#A)"/><g filter="url(#c)"><path d="m24.9727 21.594c-2.1919 0-3.9688 1.7769-3.9688 3.9687 0 2.1919 1.7769 3.9688 3.9688 3.9688 2.1918 0 3.9687-1.7769 3.9687-3.9688 0-2.1918-1.7769-3.9687-3.9687-3.9687zm-4.9688 3.9687c0-2.7441 2.2246-4.9687 4.9688-4.9687 2.7441 0 4.9687 2.2246 4.9687 4.9687 0 2.7442-2.2246 4.9688-4.9687 4.9688-2.7442 0-4.9688-2.2246-4.9688-4.9688z" fill="url(#B)"/><path d="m24.9727 21.594c-2.1919 0-3.9688 1.7769-3.9688 3.9687 0 2.1919 1.7769 3.9688 3.9688 3.9688 2.1918 0 3.9687-1.7769 3.9687-3.9688 0-2.1918-1.7769-3.9687-3.9687-3.9687zm-4.9688 3.9687c0-2.7441 2.2246-4.9687 4.9688-4.9687 2.7441 0 4.9687 2.2246 4.9687 4.9687 0 2.7442-2.2246 4.9688-4.9687 4.9688-2.7442 0-4.9688-2.2246-4.9688-4.9688z" fill="url(#C)"/></g><path d="m19.7103 17.207c-.2568.1622-.3337.5018-.1715.7587l4.7187 7.4766c.1621.2568.5018.3336.7587.1715s.3337-.5018.1715-.7586l-4.7187-7.4766c-.1621-.2569-.5018-.3337-.7587-.1716z" fill="url(#D)"/><path d="m20.0143 17.1276c.2965.0661.4832.36.4171.6565l-1.5781 7.0781c-.0661.2965-.36.4832-.6565.4171s-.4832-.36-.4171-.6565l1.5781-7.0781c.0661-.2965.36-.4832.6565-.4171z" fill="url(#E)"/><path d="m20.0143 17.1276c.2965.0661.4832.36.4171.6565l-1.5781 7.0781c-.0661.2965-.36.4832-.6565.4171s-.4832-.36-.4171-.6565l1.5781-7.0781c.0661-.2965.36-.4832.6565-.4171z" fill="url(#F)"/><path d="m20.0143 17.1276c.2965.0661.4832.36.4171.6565l-1.5781 7.0781c-.0661.2965-.36.4832-.6565.4171s-.4832-.36-.4171-.6565l1.5781-7.0781c.0661-.2965.36-.4832.6565-.4171z" fill="url(#G)"/></g><path d="m13.9693 16.0315 1.3399-.8359 1.039 1.039-.7656 3.5313c-.513-.3802-1.5687-1.161-1.6874-1.2422-.1485-.1016-.6608-.543-.653-1.2383.008-.7112.4771-1.0716.7271-1.2539z" fill="url(#H)"/><path d="m13.9693 16.0315 1.3399-.8359 1.039 1.039-.7656 3.5313c-.513-.3802-1.5687-1.161-1.6874-1.2422-.1485-.1016-.6608-.543-.653-1.2383.008-.7112.4771-1.0716.7271-1.2539z" fill="url(#I)"/><path d="m13.9693 16.0315 1.3399-.8359 1.039 1.039-.7656 3.5313c-.513-.3802-1.5687-1.161-1.6874-1.2422-.1485-.1016-.6608-.543-.653-1.2383.008-.7112.4771-1.0716.7271-1.2539z" fill="url(#J)"/><path d="m15.25 15.2307 2.6406-1.6094 1.2071.6289-2.7266 2.4766c-.2688-.2312-.8399-1.0508-1.1211-1.4961z" fill="url(#K)"/><path d="m15.25 15.2307 2.6406-1.6094 1.2071.6289-2.7266 2.4766c-.2688-.2312-.8399-1.0508-1.1211-1.4961z" fill="url(#L)"/><g filter="url(#d)"><path d="m18.8841 27.3864c-.124.026-.2524.0396-.3841.0396-1.0291 0-1.8633-.8342-1.8633-1.8633 0-1.029.8342-1.8632 1.8633-1.8632.1381 0 .2728.015.4024.0435l5.8984.9057c.4388.0726.7734.4546.7734.914 0 .4891-.3791.8895-.8595.9235z" fill="url(#M)"/><path d="m18.8841 27.3864c-.124.026-.2524.0396-.3841.0396-1.0291 0-1.8633-.8342-1.8633-1.8633 0-1.029.8342-1.8632 1.8633-1.8632.1381 0 .2728.015.4024.0435l5.8984.9057c.4388.0726.7734.4546.7734.914 0 .4891-.3791.8895-.8595.9235z" fill="url(#N)"/></g><circle cx="18.3438" cy="25.5627" fill="url(#O)" r="1.02734"/><circle cx="18.3438" cy="25.5627" fill="url(#P)" r="1.02734"/><g filter="url(#e)"><path d="m16.07 23.812-1.8088.8613c-.4312.2118-.7568.4646-.7619.9561-.0013.1234.1073.2139.2307.2139h3.5037c.1105 0 .2-.0896.2-.2v-1.1494z" fill="#5b4e85"/><path d="m16.07 23.812-1.8088.8613c-.4312.2118-.7568.4646-.7619.9561-.0013.1234.1073.2139.2307.2139h3.5037c.1105 0 .2-.0896.2-.2v-1.1494z" fill="url(#Q)"/><path d="m16.07 23.812-1.8088.8613c-.4312.2118-.7568.4646-.7619.9561-.0013.1234.1073.2139.2307.2139h3.5037c.1105 0 .2-.0896.2-.2v-1.1494z" fill="url(#R)"/></g><path d="m13.5093 8.49902h2.15415v2.66825h-2.15415z" fill="url(#S)" transform="matrix(.56788972 -.82310465 .82310465 .56788972 -1.158075 14.792082)"/><path d="m13.5093 8.49902h2.15415v2.66825h-2.15415z" fill="url(#T)" transform="matrix(.56788972 -.82310465 .82310465 .56788972 -1.158075 14.792082)"/><g filter="url(#f)"><path d="m16.0511 16.5862.5532-.5142 2.0402 1.9166c-.2734.1536-.8871.4633-1.0308.582-.1098.0907-.1098.2344-.1098.3281l-.0465 5.5938-1.4063-.6719c-.138-.7942-.4196-2.7082-.7691-4.3008-.3953-1.8007.3759-2.5924.7691-2.9336z" fill="url(#U)"/><path d="m16.0511 16.5862.5532-.5142 2.0402 1.9166c-.2734.1536-.8871.4633-1.0308.582-.1098.0907-.1098.2344-.1098.3281l-.0465 5.5938-1.4063-.6719c-.138-.7942-.4196-2.7082-.7691-4.3008-.3953-1.8007.3759-2.5924.7691-2.9336z" fill="url(#V)"/></g><g filter="url(#g)"><path d="m18.3349 14.3636-.6357-.6993 4.0313-2.4766c1.4218 1.8672 1.5 3.211.8359 4.2735s-1.582 2.0508-2.6172 2.9453c-.2714.2345-.8026.3616-1.3594-.1797-.707-.6875-1.5781-1.5781-2.039-2.1133l1.7772-1.6085c.041-.0371.0441-.1005.0069-.1414z" fill="url(#W)"/><path d="m18.3349 14.3636-.6357-.6993 4.0313-2.4766c1.4218 1.8672 1.5 3.211.8359 4.2735s-1.582 2.0508-2.6172 2.9453c-.2714.2345-.8026.3616-1.3594-.1797-.707-.6875-1.5781-1.5781-2.039-2.1133l1.7772-1.6085c.041-.0371.0441-.1005.0069-.1414z" fill="url(#X)"/></g><g filter="url(#h)"><path d="m16.0664 11.7425c.6641.625 1.3633 1.5859 1.6719 1.9687l4.2423-2.1797c-.586-.9765-2.0703-2.53121-3.5391-3.35933-1.7187-.8125-2.6724 0-3.3052 1.07031-.4136.85152.2582 1.78122.9301 2.50002z" fill="url(#Y)"/></g><g filter="url(#i)"><path d="m12.9102 12.1956c0-.3176-.2575-.575-.575-.575h-3.04999c-1.1762 0-2.12969.9535-2.12969 2.1297s.95349 2.1297 2.12968 2.1297h.18277c.31756 0 .57503-.2575.57503-.575 0-.3176-.25747-.575-.57503-.575h-.18277c-.54106 0-.97968-.4386-.97968-.9797s.43862-.9797.97969-.9797h3.04999c.3175 0 .575-.2574.575-.575z" fill="#c0b9bc"/><path d="m12.9102 12.1956c0-.3176-.2575-.575-.575-.575h-3.04999c-1.1762 0-2.12969.9535-2.12969 2.1297s.95349 2.1297 2.12968 2.1297h.18277c.31756 0 .57503-.2575.57503-.575 0-.3176-.25747-.575-.57503-.575h-.18277c-.54106 0-.97968-.4386-.97968-.9797s.43862-.9797.97969-.9797h3.04999c.3175 0 .575-.2574.575-.575z" fill="url(#Z)"/></g><g filter="url(#j)"><path clip-rule="evenodd" d="m8.30469 13.8088v-.0214c0-.3161-.25611-.5723-.57227-.5723s-.57226.2562-.57226.5723v.0214h-.00391c.03101 1.1491.97241 2.0711 2.12891 2.0711h.18286c.31762 0 .57498-.2574.57498-.575 0-.3175-.25736-.575-.57498-.575h-.18286c-.52124 0-.94776-.4073-.97803-.9211z" fill="#2b174f" fill-rule="evenodd"/></g><g clip-rule="evenodd" fill-rule="evenodd" filter="url(#k)"><path d="m17.0969 8.86013c.4786.32733.6013.98074.274 1.45937-.7827 1.1447-3.1516 4.3029-7.93264 4.7879-.57693.0586-1.59457-.3192-1.6531-.8962-.05853-.5769.86421-1.1345 1.44115-1.193 3.84389-.39 5.74069-2.9036 6.41109-3.88403.3274-.47868.9808-.60137 1.4595-.27404z" fill="#492f33"/><path d="m17.0969 8.86013c.4786.32733.6013.98074.274 1.45937-.7827 1.1447-3.1516 4.3029-7.93264 4.7879-.57693.0586-1.59457-.3192-1.6531-.8962-.05853-.5769.86421-1.1345 1.44115-1.193 3.84389-.39 5.74069-2.9036 6.41109-3.88403.3274-.47868.9808-.60137 1.4595-.27404z" fill="url(#aa)"/></g><path clip-rule="evenodd" d="m9.29142 13.508c0 .1933-.1567.35-.35.35-.17295 0-.43539.0424-.66246.1496-.22598.1066-.3699.2525-.41531.4387-.0458.1878-.23516.303-.42296.2572-.18779-.0458-.30291-.2352-.25711-.423.11366-.4661.46185-.748.79661-.906.33366-.1574.70058-.2165.96123-.2165.1933 0 .35.1567.35.35z" fill="url(#ac)" fill-rule="evenodd"/><path clip-rule="evenodd" d="m9.29142 13.508c0 .1933-.1567.35-.35.35-.17295 0-.43539.0424-.66246.1496-.22598.1066-.3699.2525-.41531.4387-.0458.1878-.23516.303-.42296.2572-.18779-.0458-.30291-.2352-.25711-.423.11366-.4661.46185-.748.79661-.906.33366-.1574.70058-.2165.96123-.2165.1933 0 .35.1567.35.35z" fill="url(#ae)" fill-rule="evenodd"/><g filter="url(#l)"><path d="m20.9608 13.4814-.5233-.8635 1.125-.6562c.9687 1.3125 1.3437 2.2968.7344 2.875-.4875.4625-2.8698 1.7239-4 2.2968l2.5029-2.414c.3364-.3244.4032-.8384.161-1.2381z" fill="url(#af)"/></g><path clip-rule="evenodd" d="m8.80626 14.0344c.05881.1842-.04279.3811-.22692.4399-.28845.0921-.37727.3293-.40575.4574-.04194.1887-.22891.3077-.4176.2657-.1887-.0419-.30766-.2289-.26572-.4176.04967-.2234.23499-.7675.8761-.9723.18414-.0588.38109.0428.43989.2269z" fill="url(#ag)" fill-rule="evenodd"/><path clip-rule="evenodd" d="m8.80626 14.0344c.05881.1842-.04279.3811-.22692.4399-.28845.0921-.37727.3293-.40575.4574-.04194.1887-.22891.3077-.4176.2657-.1887-.0419-.30766-.2289-.26572-.4176.04967-.2234.23499-.7675.8761-.9723.18414-.0588.38109.0428.43989.2269z" fill="url(#ah)" fill-rule="evenodd"/><path clip-rule="evenodd" d="m8.80626 14.0344c.05881.1842-.04279.3811-.22692.4399-.28845.0921-.37727.3293-.40575.4574-.04194.1887-.22891.3077-.4176.2657-.1887-.0419-.30766-.2289-.26572-.4176.04967-.2234.23499-.7675.8761-.9723.18414-.0588.38109.0428.43989.2269z" fill="url(#ah)" fill-rule="evenodd"/><path clip-rule="evenodd" d="m9.09985 14.2932c.06659.0804.11328.2422 0 .4024-.15152.1256-.34264.3889-.37246.5934-.0279.1913-.20557.3238-.39685.2959-.19127-.0279-.32372-.2056-.29582-.3969.01874-.1285.07671-.2846.15466-.4288.07977-.1475.1966-.3126.35391-.443.14881-.1234.4332-.1718.55656-.023z" fill="url(#ai)" fill-rule="evenodd"/><path clip-rule="evenodd" d="m9.09985 14.2932c.06659.0804.11328.2422 0 .4024-.15152.1256-.34264.3889-.37246.5934-.0279.1913-.20557.3238-.39685.2959-.19127-.0279-.32372-.2056-.29582-.3969.01874-.1285.07671-.2846.15466-.4288.07977-.1475.1966-.3126.35391-.443.14881-.1234.4332-.1718.55656-.023z" fill="url(#aj)" fill-rule="evenodd"/><g filter="url(#m)"><circle cx="9.19522" cy="14.0102" fill="#493030" r=".884675"/></g><path d="m10.7656 9.00135c-.2017-.13972-.205-.29938-.1381-.65409.0489-.25916-.014-.45292-.0611-.53576l.8098.99476c-.1088.22195-.4089.33481-.6106.19509z" fill="url(#ak)"/><g filter="url(#n)"><path d="m11.9427 9.76196c-.7776-.74323-1.4194-1.9368-1.6768-2.40298l3.4603-2.0862 1.8474 1.68101c-.0752.34043-.3676 1.19847-.9354 1.90711-.7097.88581-1.6752 1.8763-2.6955.90106z" fill="url(#al)"/><path d="m11.9427 9.76196c-.7776-.74323-1.4194-1.9368-1.6768-2.40298l3.4603-2.0862 1.8474 1.68101c-.0752.34043-.3676 1.19847-.9354 1.90711-.7097.88581-1.6752 1.8763-2.6955.90106z" fill="url(#am)"/></g><path clip-rule="evenodd" d="m11.8354 9.23219c-.0331-.05573-.0146-.12768.0411-.1607.1023-.06063.2377-.21067.3118-.52699.0148-.06307.0779-.10222.141-.08745.0631.01478.1022.07789.0874.14096-.0846.36111-.2497.57401-.4206.67531-.0558.03302-.1277.0146-.1607-.04113z" fill="#290017" fill-rule="evenodd"/><path d="m11.8648 7.01852c-.2372-.09692-.4611-.04497-.5889.00168.2823.14966.3356.38294.4936.36472.206-.02375.2928-.28572.0953-.3664z" fill="#1b131c"/><path d="m10.9534 7.3288c-.0706.22828.065.45713.1376.57269l.8894-.52321c-.525-.5943-.931-.35963-1.027-.04948z" fill="#fff"/><path d="m11.59 7.60773c-.0091-.01622-.0188-.03241-.0291-.0485-.1592-.24938-.3972-.38198-.5316-.29618s-.1142.35751.045.60689c.0064.01007.013.01994.0196.02963z" fill="#634c48"/><path d="m11.4006 7.71982c-.0121-.03067-.0281-.06204-.0477-.09285-.0888-.13908-.22-.21402-.293-.16739-.0731.04663-.0603.19717.0285.33625.0175.0274.0366.05232.0567.07431z" fill="url(#an)"/><circle cx="11.067" cy="7.43838" fill="#dfdfdf" r=".083989" transform="matrix(.44033097 -.89783553 .89783553 .44033097 -.484585 14.099377)"/><g filter="url(#o)"><path d="m14.3298 7.88521-.9868-1.06523-.5353-.9254 2.252-1.07782c.0636.09915.3211.33494.8431.48489.6525.18744.9468.64787 1.0755.88438.1288.2365.5097 1.31049-.6358 1.98263-.9163.53771-1.7236.03508-2.0127-.28345z" fill="url(#ao)"/></g><circle cx="13.4234" cy="6.39411" fill="url(#ap)" r=".654633" transform="matrix(.44033097 -.89783553 .89783553 .44033097 1.771802 15.630591)"/><path clip-rule="evenodd" d="m12.6659 5.67595c.1477-.06612.321.00001.3871.1477l1.4915 3.33185c.0661.14769 0 .32101-.1477.38712s-.321-.00002-.3871-.14771l-1.4915-3.33185c-.0661-.14768 0-.321.1477-.38711z" fill="#4d3771" fill-rule="evenodd"/><path clip-rule="evenodd" d="m12.6659 5.67595c.1477-.06612.321.00001.3871.1477l1.4915 3.33185c.0661.14769 0 .32101-.1477.38712s-.321-.00002-.3871-.14771l-1.4915-3.33185c-.0661-.14768 0-.321.1477-.38711z" fill="url(#aq)" fill-rule="evenodd"/><path clip-rule="evenodd" d="m12.6659 5.67595c.1477-.06612.321.00001.3871.1477l1.4915 3.33185c.0661.14769 0 .32101-.1477.38712s-.321-.00002-.3871-.14771l-1.4915-3.33185c-.0661-.14768 0-.321.1477-.38711z" fill="url(#ar)" fill-rule="evenodd"/><path clip-rule="evenodd" d="m12.6659 5.67595c.1477-.06612.321.00001.3871.1477l1.4915 3.33185c.0661.14769 0 .32101-.1477.38712s-.321-.00002-.3871-.14771l-1.4915-3.33185c-.0661-.14768 0-.321.1477-.38711z" fill="url(#as)" fill-rule="evenodd"/><g filter="url(#p)"><path d="m15.0331 5.01492-4.7087 2.42698c-.1189.06131-.2637.03347-.33883-.0773-.16377-.24162-.3925-.64963-.57359-1.13563-.53933-1.44742.4679-2.26216.59992-2.38771.1911-.18163.7179-.632 1.851-1.05017 1.3296-.49071 2.175.09795 2.5887.64755.2601.34565.5444.86447.7099 1.21437.0641.13545.0048.29326-.1284.36191z" fill="url(#at)"/></g><g filter="url(#q)"><path d="m11.2468 5.76705c-.0865-.17517-.0147-.38734.1605-.47388l1.3048-.64459c.1752-.08654.3873-.01469.4739.16048.0865.17518.0146.38734-.1605.47388l-1.3048.6446c-.1752.08654-.3873.01469-.4739-.16049z" fill="url(#au)"/></g></svg>