<svg fill="none" height="32" viewBox="0 0 32 32" width="32" xmlns="http://www.w3.org/2000/svg"><path d="m22.58 20.82-1.96 1.4h-6.44l5.51-4.99c-.47-.59-.76-1.33-.76-2.15v-4.02c0-1.88997 1.53-3.41999 3.42-3.41999s3.42 1.53002 3.42 3.41999l-.05 3.75c-.01.97-.21 1.92-.59 2.81-.53 1.29-1.42 2.39-2.55 3.2z" fill="#ca0b4a"/><path d="m13 2c-3.86599 0-7 3.13401-7 7v7c0 2.3787 1.18652 4.4804 3 5.7453v2.2547h13v-2.9995c.6279-.8358 1-1.8747 1-3.0005v-9c0-3.86599-3.134-7-7-7z" fill="#f8312f"/><path d="m22 23h-13v6.049c0 .5308.39059.951.86131.951h11.27739c.4807 0 .8613-.4313.8613-.951z" fill="#9b9b9b"/><path d="m17.688 25h-4.376c-.1724 0-.312.1564-.312.3497v2.3006c0 .1933.1396.3497.312.3497h4.376c.1724 0 .312-.1564.312-.3497v-2.3006c0-.1933-.1396-.3497-.312-.3497z" fill="#d3d3d3"/></svg>