<svg fill="none" height="32" viewBox="0 0 32 32" width="32" xmlns="http://www.w3.org/2000/svg"><path d="m27.7524 30h-23.50481c-1.23867 0-2.24759-1.0094-2.24759-2.2488v-13.5024c0-1.2394 1.00892-2.2488 2.24759-2.2488h23.50481c1.2387 0 2.2476 1.0094 2.2476 2.2488v13.5024c0 1.2494-1.0089 2.2488-2.2476 2.2488z" fill="#00a6ed"/><path d="m23.3864 24h-17.77285c-.33192 0-.61355-.2727-.61355-.6162v-2.7676c0-.3334.27157-.6162.61355-.6162h17.77285c.332 0 .6136.2727.6136.6162v2.7777c0 .3334-.2716.6061-.6136.6061z" fill="#f4f4f4"/><path d="m25.3532 28h1.7936c.4751 0 .8532-.3781.8532-.8532v-1.7936c0-.4751-.3781-.8532-.8532-.8532h-1.7936c-.4751 0-.8532.3781-.8532.8532v1.7936c0 .4654.3878.8532.8532.8532z" fill="#fff478"/><path d="m30 15h-28v3h28z" fill="#321b41"/><path d="m6 22c0-.2761.22386-.5.5-.5h11c.2761 0 .5.2239.5.5s-.2239.5-.5.5h-11c-.27614 0-.5-.2239-.5-.5z" fill="#9b9b9b"/></svg>