<svg fill="none" height="32" viewBox="0 0 32 32" width="32" xmlns="http://www.w3.org/2000/svg" xmlns:xlink="http://www.w3.org/1999/xlink"><filter id="a" color-interpolation-filters="sRGB" filterUnits="userSpaceOnUse" height="4.20991" width="6.38477" x="10.46" y="13.1646"><feFlood flood-opacity="0" result="BackgroundImageFix"/><feBlend in="SourceGraphic" in2="BackgroundImageFix" mode="normal" result="shape"/><feColorMatrix in="SourceAlpha" result="hardAlpha" type="matrix" values="0 0 0 0 0 0 0 0 0 0 0 0 0 0 0 0 0 0 127 0"/><feOffset dx="-.5" dy=".3"/><feGaussianBlur stdDeviation=".25"/><feComposite in2="hardAlpha" k2="-1" k3="1" operator="arithmetic"/><feColorMatrix type="matrix" values="0 0 0 0 0.027451 0 0 0 0 0.576471 0 0 0 0 0.858824 0 0 0 1 0"/><feBlend in2="shape" mode="normal" result="effect1_innerShadow_18_12198"/></filter><filter id="b" color-interpolation-filters="sRGB" filterUnits="userSpaceOnUse" height="12.75" width="28.6034" x="1.99664" y="14.2905"><feFlood flood-opacity="0" result="BackgroundImageFix"/><feBlend in="SourceGraphic" in2="BackgroundImageFix" mode="normal" result="shape"/><feColorMatrix in="SourceAlpha" result="hardAlpha" type="matrix" values="0 0 0 0 0 0 0 0 0 0 0 0 0 0 0 0 0 0 127 0"/><feOffset dx=".6" dy="-.75"/><feGaussianBlur stdDeviation=".625"/><feComposite in2="hardAlpha" k2="-1" k3="1" operator="arithmetic"/><feColorMatrix type="matrix" values="0 0 0 0 0.545098 0 0 0 0 0.211765 0 0 0 0 0.25098 0 0 0 1 0"/><feBlend in2="shape" mode="normal" result="effect1_innerShadow_18_12198"/></filter><filter id="c" color-interpolation-filters="sRGB" filterUnits="userSpaceOnUse" height="7.75649" width="28.6" x="1.4" y="22.8435"><feFlood flood-opacity="0" result="BackgroundImageFix"/><feBlend in="SourceGraphic" in2="BackgroundImageFix" mode="normal" result="shape"/><feColorMatrix in="SourceAlpha" result="hardAlpha" type="matrix" values="0 0 0 0 0 0 0 0 0 0 0 0 0 0 0 0 0 0 127 0"/><feOffset dx="-.6" dy=".6"/><feGaussianBlur stdDeviation=".3"/><feComposite in2="hardAlpha" k2="-1" k3="1" operator="arithmetic"/><feColorMatrix type="matrix" values="0 0 0 0 0.384314 0 0 0 0 0.67451 0 0 0 0 0.996078 0 0 0 1 0"/><feBlend in2="shape" mode="normal" result="effect1_innerShadow_18_12198"/><feColorMatrix in="SourceAlpha" result="hardAlpha" type="matrix" values="0 0 0 0 0 0 0 0 0 0 0 0 0 0 0 0 0 0 127 0"/><feOffset dy=".4"/><feGaussianBlur stdDeviation=".2"/><feComposite in2="hardAlpha" k2="-1" k3="1" operator="arithmetic"/><feColorMatrix type="matrix" values="0 0 0 0 0.305882 0 0 0 0 0.556863 0 0 0 0 0.882353 0 0 0 1 0"/><feBlend in2="effect1_innerShadow_18_12198" mode="normal" result="effect2_innerShadow_18_12198"/></filter><linearGradient id="d" gradientUnits="userSpaceOnUse" x1="27.8068" x2="26.4043" y1="13.9062" y2="19.9688"><stop offset="0" stop-color="#ff894e"/><stop offset="1" stop-color="#ff874d"/></linearGradient><linearGradient id="e"><stop offset=".168142" stop-color="#f97342"/><stop offset="1" stop-color="#f97342" stop-opacity="0"/></linearGradient><linearGradient id="f" gradientUnits="userSpaceOnUse" x1="25.2913" x2="25.6032" xlink:href="#e" y1="16.5641" y2="16.7553"/><linearGradient id="g" gradientUnits="userSpaceOnUse" x1="27.0823" x2="25.9151" xlink:href="#e" y1="20.3675" y2="16.544"/><linearGradient id="h" gradientUnits="userSpaceOnUse" x1="18.9132" x2="16.9601" y1="14.7733" y2="18.6204"><stop offset="0" stop-color="#f2eff4"/><stop offset=".530738" stop-color="#baadb5"/></linearGradient><linearGradient id="i" gradientUnits="userSpaceOnUse" x1="14.951" x2="16.1385" y1="12.8359" y2="13.6562"><stop offset=".198655" stop-color="#bcbbbe"/><stop offset="1" stop-color="#bcbbbe" stop-opacity="0"/></linearGradient><linearGradient id="j" gradientUnits="userSpaceOnUse" x1="13.1072" x2="15.9822" y1="16.7189" y2="13.7814"><stop offset="0" stop-color="#67f0ff"/><stop offset="1" stop-color="#4ecaff"/></linearGradient><linearGradient id="k" gradientUnits="userSpaceOnUse" x1="20.1697" x2="19.5447" y1="16.3125" y2="17.375"><stop offset="0" stop-color="#3ca8ce"/><stop offset="1" stop-color="#3ca8ce" stop-opacity="0"/></linearGradient><linearGradient id="l" gradientUnits="userSpaceOnUse" x1="30" x2="3" y1="21.4062" y2="16.9063"><stop offset="0" stop-color="#f95"/><stop offset="1" stop-color="#ff6359"/></linearGradient><linearGradient id="m" gradientUnits="userSpaceOnUse" x1="30" x2="23.2509" y1="21.4063" y2="20.4733"><stop offset="0" stop-color="#dbd6e8"/><stop offset="1" stop-color="#ece7f7"/></linearGradient><linearGradient id="n" gradientUnits="userSpaceOnUse" x1="3.02159" x2="4.14804" y1="17.7041" y2="17.0236"><stop offset="0" stop-color="#9693a9"/><stop offset="1" stop-color="#9693a9" stop-opacity="0"/></linearGradient><linearGradient id="o" gradientUnits="userSpaceOnUse" x1="18.8432" x2="18.8432" y1="30" y2="24.2164"><stop offset="0" stop-color="#51adff"/><stop offset="1" stop-color="#529cf8"/></linearGradient><path d="m27.28 13.9088c-.2-.02-.39.08-.5.25l-3.05 5.11 3.55.7 1.77-5.25c.11-.32-.11-.66-.45-.69z" fill="url(#d)"/><path d="m27.28 13.9088c-.2-.02-.39.08-.5.25l-3.05 5.11 3.55.7 1.77-5.25c.11-.32-.11-.66-.45-.69z" fill="url(#f)"/><path d="m27.28 13.9088c-.2-.02-.39.08-.5.25l-3.05 5.11 3.55.7 1.77-5.25c.11-.32-.11-.66-.45-.69z" fill="url(#g)"/><path d="m14.6122 13.3714-3.5819 3.1204 11.9932 2.1698.0202-.1756c.0704-.7956-.2818-1.5602-.9156-1.9839l-4.9201-3.3064c-.3018-.2066-.6338-.3203-.9759-.3513-.5836-.0517-1.1671.1343-1.6199.527z" fill="url(#h)"/><path d="m14.6122 13.3714-3.5819 3.1204 11.9932 2.1698.0202-.1756c.0704-.7956-.2818-1.5602-.9156-1.9839l-4.9201-3.3064c-.3018-.2066-.6338-.3203-.9759-.3513-.5836-.0517-1.1671.1343-1.6199.527z" fill="url(#i)"/><g filter="url(#a)"><path d="m14.46 13.4546-3.5 2.9899 3.56.6301 2.16-1.84c.27-.32.2-.8101-.15-1.0401l-.65-.4199-.94-.61h-.01c-.16.07-.33.17-.47.29z" fill="url(#j)"/></g><path d="m17.66 15.8045-1.77 1.51 5.84 1.03.01-.13c.04-.39-.14-.76-.46-.97l-2.33-1.52c-.15-.1-.32-.16-.49-.17-.27-.03-.57.06-.8.25z" fill="#66f2ff"/><path d="m17.66 15.8045-1.77 1.51 5.84 1.03.01-.13c.04-.39-.14-.76-.46-.97l-2.33-1.52c-.15-.1-.32-.16-.49-.17-.27-.03-.57.06-.8.25z" fill="url(#k)"/><g filter="url(#b)"><path d="m30 21.0405c-.1503-.9798-.872-1.7636-1.8241-1.9129l-24.79603-4.0684-.02642-.0036c-.05915-.008-.11158-.0151-.16407-.0151-.72162 0-1.2395.3002-1.18939 1 .01001.25.07007.48.20026.7l1.5097 2.514c2.89069 4.8767 7.61725 7.786 12.65825 7.786h9.4226c2.0617 0 3.7843-1.708 4.1989-4.0017l.0103.0017z" fill="url(#l)"/></g><path d="m2.20028 16.7405 1.02024 1.7009 26.77948 4.5991s0-.51 0-.85v-.77c0-.14 0-.38 0-.38l-28-5c.01001.25.0701.48.20028.7z" fill="url(#m)"/><path d="m2.20028 16.7405 1.02024 1.7009 26.77948 4.5991s0-.51 0-.85v-.77c0-.14 0-.38 0-.38l-28-5c.01001.25.0701.48.20028.7z" fill="url(#n)"/><g filter="url(#c)"><path d="m30 23c-1.518 0-1.7762.97-3.0904.97-1.7494 0-2.1128-1.1265-3.8722-1.1265-1.7494 0-2.2294 1.1265-3.7079 1.1265-1.1969 0-1.63-1.1265-3.3794-1.1265-1.7493 0-2.4641 1.1265-3.8018 1.1265-1.3376 0-1.7708-1.1265-3.52015-1.1265-1.74937 0-1.99201 1.1265-3.73139 1.1265-1.74937 0-1.66622-.97-2.89676-.97v7h27.99z" fill="url(#o)"/></g></svg>