<svg fill="none" height="32" viewBox="0 0 32 32" width="32" xmlns="http://www.w3.org/2000/svg" xmlns:xlink="http://www.w3.org/1999/xlink"><filter id="a" color-interpolation-filters="sRGB" filterUnits="userSpaceOnUse" height="15.11" width="24.414" x="3.85001" y="1.76599"><feFlood flood-opacity="0" result="BackgroundImageFix"/><feBlend in="SourceGraphic" in2="BackgroundImageFix" mode="normal" result="shape"/><feColorMatrix in="SourceAlpha" result="hardAlpha" type="matrix" values="0 0 0 0 0 0 0 0 0 0 0 0 0 0 0 0 0 0 127 0"/><feOffset dy="-.5"/><feGaussianBlur stdDeviation=".625"/><feComposite in2="hardAlpha" k2="-1" k3="1" operator="arithmetic"/><feColorMatrix type="matrix" values="0 0 0 0 0.137255 0 0 0 0 0.0901961 0 0 0 0 0.145098 0 0 0 1 0"/><feBlend in2="shape" mode="normal" result="effect1_innerShadow_3930_2128"/><feColorMatrix in="SourceAlpha" result="hardAlpha" type="matrix" values="0 0 0 0 0 0 0 0 0 0 0 0 0 0 0 0 0 0 127 0"/><feOffset dy="-.2"/><feGaussianBlur stdDeviation=".2"/><feComposite in2="hardAlpha" k2="-1" k3="1" operator="arithmetic"/><feColorMatrix type="matrix" values="0 0 0 0 0.0784314 0 0 0 0 0.0352941 0 0 0 0 0.0470588 0 0 0 1 0"/><feBlend in2="effect1_innerShadow_3930_2128" mode="normal" result="effect2_innerShadow_3930_2128"/></filter><filter id="b" color-interpolation-filters="sRGB" filterUnits="userSpaceOnUse" height="6.40001" width="6.40001" x="4.06219" y="15.126"><feFlood flood-opacity="0" result="BackgroundImageFix"/><feBlend in="SourceGraphic" in2="BackgroundImageFix" mode="normal" result="shape"/><feColorMatrix in="SourceAlpha" result="hardAlpha" type="matrix" values="0 0 0 0 0 0 0 0 0 0 0 0 0 0 0 0 0 0 127 0"/><feOffset dx=".2" dy=".2"/><feGaussianBlur stdDeviation=".2"/><feComposite in2="hardAlpha" k2="-1" k3="1" operator="arithmetic"/><feColorMatrix type="matrix" values="0 0 0 0 0.509804 0 0 0 0 0.396078 0 0 0 0 0.360784 0 0 0 1 0"/><feBlend in2="shape" mode="normal" result="effect1_innerShadow_3930_2128"/></filter><filter id="c" color-interpolation-filters="sRGB" filterUnits="userSpaceOnUse" height="4.41577" width="4.41577" x="22.7443" y="16.0181"><feFlood flood-opacity="0" result="BackgroundImageFix"/><feBlend in="SourceGraphic" in2="BackgroundImageFix" mode="normal" result="shape"/><feGaussianBlur result="effect1_foregroundBlur_3930_2128" stdDeviation=".125"/></filter><filter id="d" color-interpolation-filters="sRGB" filterUnits="userSpaceOnUse" height="4.41998" width="4.41998" x="4.95221" y="16.016"><feFlood flood-opacity="0" result="BackgroundImageFix"/><feBlend in="SourceGraphic" in2="BackgroundImageFix" mode="normal" result="shape"/><feGaussianBlur result="effect1_foregroundBlur_3930_2128" stdDeviation=".125"/></filter><filter id="e" color-interpolation-filters="sRGB" filterUnits="userSpaceOnUse" height="23.11" width="19.3795" x="6.46365" y="7.276"><feFlood flood-opacity="0" result="BackgroundImageFix"/><feBlend in="SourceGraphic" in2="BackgroundImageFix" mode="normal" result="shape"/><feColorMatrix in="SourceAlpha" result="hardAlpha" type="matrix" values="0 0 0 0 0 0 0 0 0 0 0 0 0 0 0 0 0 0 127 0"/><feOffset dy=".25"/><feGaussianBlur stdDeviation=".25"/><feComposite in2="hardAlpha" k2="-1" k3="1" operator="arithmetic"/><feColorMatrix type="matrix" values="0 0 0 0 0.431373 0 0 0 0 0.239216 0 0 0 0 0.231373 0 0 0 1 0"/><feBlend in2="shape" mode="normal" result="effect1_innerShadow_3930_2128"/></filter><filter id="f" color-interpolation-filters="sRGB" filterUnits="userSpaceOnUse" height="5.99945" width="4.35995" x="13.575" y="17.133"><feFlood flood-opacity="0" result="BackgroundImageFix"/><feBlend in="SourceGraphic" in2="BackgroundImageFix" mode="normal" result="shape"/><feGaussianBlur result="effect1_foregroundBlur_3930_2128" stdDeviation=".25"/></filter><filter id="g" color-interpolation-filters="sRGB" filterUnits="userSpaceOnUse" height="2.51967" width="6.63411" x="12.6833" y="23.2114"><feFlood flood-opacity="0" result="BackgroundImageFix"/><feBlend in="SourceGraphic" in2="BackgroundImageFix" mode="normal" result="shape"/><feGaussianBlur result="effect1_foregroundBlur_3930_2128" stdDeviation=".05"/></filter><filter id="h" color-interpolation-filters="sRGB" filterUnits="userSpaceOnUse" height="2.04659" width="4.27416" x="18.8129" y="12.066"><feFlood flood-opacity="0" result="BackgroundImageFix"/><feBlend in="SourceGraphic" in2="BackgroundImageFix" mode="normal" result="shape"/><feColorMatrix in="SourceAlpha" result="hardAlpha" type="matrix" values="0 0 0 0 0 0 0 0 0 0 0 0 0 0 0 0 0 0 127 0"/><feOffset dx=".1" dy="-.2"/><feGaussianBlur stdDeviation=".125"/><feComposite in2="hardAlpha" k2="-1" k3="1" operator="arithmetic"/><feColorMatrix type="matrix" values="0 0 0 0 0.172549 0 0 0 0 0.0862745 0 0 0 0 0.156863 0 0 0 1 0"/><feBlend in2="shape" mode="normal" result="effect1_innerShadow_3930_2128"/></filter><filter id="i" color-interpolation-filters="sRGB" filterUnits="userSpaceOnUse" height="2.01909" width="4.27416" x="9.01294" y="12.0935"><feFlood flood-opacity="0" result="BackgroundImageFix"/><feBlend in="SourceGraphic" in2="BackgroundImageFix" mode="normal" result="shape"/><feColorMatrix in="SourceAlpha" result="hardAlpha" type="matrix" values="0 0 0 0 0 0 0 0 0 0 0 0 0 0 0 0 0 0 127 0"/><feOffset dx=".1" dy="-.2"/><feGaussianBlur stdDeviation=".125"/><feComposite in2="hardAlpha" k2="-1" k3="1" operator="arithmetic"/><feColorMatrix type="matrix" values="0 0 0 0 0.172549 0 0 0 0 0.0862745 0 0 0 0 0.156863 0 0 0 1 0"/><feBlend in2="shape" mode="normal" result="effect1_innerShadow_3930_2128"/></filter><filter id="j" color-interpolation-filters="sRGB" filterUnits="userSpaceOnUse" height="11.239" width="12.3438" x="4.51556" y="3.19592"><feFlood flood-opacity="0" result="BackgroundImageFix"/><feBlend in="SourceGraphic" in2="BackgroundImageFix" mode="normal" result="shape"/><feColorMatrix in="SourceAlpha" result="hardAlpha" type="matrix" values="0 0 0 0 0 0 0 0 0 0 0 0 0 0 0 0 0 0 127 0"/><feOffset dx=".4" dy=".2"/><feGaussianBlur stdDeviation=".2"/><feComposite in2="hardAlpha" k2="-1" k3="1" operator="arithmetic"/><feColorMatrix type="matrix" values="0 0 0 0 0.286275 0 0 0 0 0.243137 0 0 0 0 0.227451 0 0 0 1 0"/><feBlend in2="shape" mode="normal" result="effect1_innerShadow_3930_2128"/><feGaussianBlur result="effect2_foregroundBlur_3930_2128" stdDeviation=".25"/></filter><filter id="k" color-interpolation-filters="sRGB" filterUnits="userSpaceOnUse" height="10.9649" width="12.0935" x="15.7412" y="3.81812"><feFlood flood-opacity="0" result="BackgroundImageFix"/><feBlend in="SourceGraphic" in2="BackgroundImageFix" mode="normal" result="shape"/><feGaussianBlur result="effect1_foregroundBlur_3930_2128" stdDeviation=".25"/></filter><filter id="l" color-interpolation-filters="sRGB" filterUnits="userSpaceOnUse" height="5.23534" width="3.68026" x="14.2321" y="17.076"><feFlood flood-opacity="0" result="BackgroundImageFix"/><feBlend in="SourceGraphic" in2="BackgroundImageFix" mode="normal" result="shape"/><feGaussianBlur result="effect1_foregroundBlur_3930_2128" stdDeviation=".05"/></filter><filter id="m" color-interpolation-filters="sRGB" filterUnits="userSpaceOnUse" height="1.12532" width="1.29412" x="18.9831" y="16.3592"><feFlood flood-opacity="0" result="BackgroundImageFix"/><feBlend in="SourceGraphic" in2="BackgroundImageFix" mode="normal" result="shape"/><feGaussianBlur result="effect1_foregroundBlur_3930_2128" stdDeviation=".05"/></filter><filter id="n" color-interpolation-filters="sRGB" filterUnits="userSpaceOnUse" height="1.35721" width="1.31586" x="20.6355" y="16.5856"><feFlood flood-opacity="0" result="BackgroundImageFix"/><feBlend in="SourceGraphic" in2="BackgroundImageFix" mode="normal" result="shape"/><feGaussianBlur result="effect1_foregroundBlur_3930_2128" stdDeviation=".1"/></filter><filter id="o" color-interpolation-filters="sRGB" filterUnits="userSpaceOnUse" height="1.61417" width="1.512" x="12.1601" y="16.4595"><feFlood flood-opacity="0" result="BackgroundImageFix"/><feBlend in="SourceGraphic" in2="BackgroundImageFix" mode="normal" result="shape"/><feGaussianBlur result="effect1_foregroundBlur_3930_2128" stdDeviation=".1"/></filter><filter id="p" color-interpolation-filters="sRGB" filterUnits="userSpaceOnUse" height="1.15679" width="1.55239" x="10.6388" y="16.3323"><feFlood flood-opacity="0" result="BackgroundImageFix"/><feBlend in="SourceGraphic" in2="BackgroundImageFix" mode="normal" result="shape"/><feGaussianBlur result="effect1_foregroundBlur_3930_2128" stdDeviation=".05"/></filter><filter id="q" color-interpolation-filters="sRGB" filterUnits="userSpaceOnUse" height="16.6856" width="20.0363" x="6.33109" y="13.9404"><feFlood flood-opacity="0" result="BackgroundImageFix"/><feBlend in="SourceGraphic" in2="BackgroundImageFix" mode="normal" result="shape"/><feColorMatrix in="SourceAlpha" result="hardAlpha" type="matrix" values="0 0 0 0 0 0 0 0 0 0 0 0 0 0 0 0 0 0 127 0"/><feOffset dy=".5"/><feGaussianBlur stdDeviation=".5"/><feComposite in2="hardAlpha" k2="-1" k3="1" operator="arithmetic"/><feColorMatrix type="matrix" values="0 0 0 0 0.282353 0 0 0 0 0.278431 0 0 0 0 0.278431 0 0 0 1 0"/><feBlend in2="shape" mode="normal" result="effect1_innerShadow_3930_2128"/><feColorMatrix in="SourceAlpha" result="hardAlpha" type="matrix" values="0 0 0 0 0 0 0 0 0 0 0 0 0 0 0 0 0 0 127 0"/><feOffset dx=".25" dy=".25"/><feGaussianBlur stdDeviation=".175"/><feComposite in2="hardAlpha" k2="-1" k3="1" operator="arithmetic"/><feColorMatrix type="matrix" values="0 0 0 0 0.0392157 0 0 0 0 0.0156863 0 0 0 0 0.0196078 0 0 0 1 0"/><feBlend in2="effect1_innerShadow_3930_2128" mode="normal" result="effect2_innerShadow_3930_2128"/></filter><filter id="r" color-interpolation-filters="sRGB" filterUnits="userSpaceOnUse" height="1.54315" width="3.90625" x="9.15118" y="12.3948"><feFlood flood-opacity="0" result="BackgroundImageFix"/><feBlend in="SourceGraphic" in2="BackgroundImageFix" mode="normal" result="shape"/><feGaussianBlur result="effect1_foregroundBlur_3930_2128" stdDeviation=".125"/></filter><filter id="s" color-interpolation-filters="sRGB" filterUnits="userSpaceOnUse" height="1.54315" width="3.90625" x="19.0418" y="12.3479"><feFlood flood-opacity="0" result="BackgroundImageFix"/><feBlend in="SourceGraphic" in2="BackgroundImageFix" mode="normal" result="shape"/><feGaussianBlur result="effect1_foregroundBlur_3930_2128" stdDeviation=".125"/></filter><radialGradient id="t" cx="0" cy="0" gradientTransform="matrix(-1.46498634 4.16608739 -4.75150712 -1.67084662 26.3197 20.186)" gradientUnits="userSpaceOnUse" r="1"><stop offset=".214643" stop-color="#332f31"/><stop offset="1" stop-color="#221925"/></radialGradient><linearGradient id="u" gradientUnits="userSpaceOnUse" x1="29.0524" x2="7.02891" y1="8.18815" y2="8.18815"><stop offset="0" stop-color="#443237"/><stop offset="1" stop-color="#362c2e"/></linearGradient><radialGradient id="v" cx="0" cy="0" gradientTransform="matrix(0 -6.51104 16.7931 0 6.13882 13.3399)" gradientUnits="userSpaceOnUse" r="1"><stop offset=".535851" stop-color="#3e3433"/><stop offset="1" stop-color="#3e3433" stop-opacity="0"/></radialGradient><radialGradient id="w" cx="0" cy="0" gradientTransform="matrix(.21628682 -4.67230659 8.44233939 .39080627 25.2758 15.7765)" gradientUnits="userSpaceOnUse" r="1"><stop offset="0" stop-color="#4f4d4d"/><stop offset="1" stop-color="#4f4d4d" stop-opacity="0"/></radialGradient><radialGradient id="x" cx="0" cy="0" gradientTransform="matrix(-4.47369878 -2.88498115 2.10093111 -3.25788366 23.8453 4.10498)" gradientUnits="userSpaceOnUse" r="1"><stop offset="0" stop-color="#402c32"/><stop offset="1" stop-color="#402c32" stop-opacity="0"/></radialGradient><radialGradient id="y" cx="0" cy="0" gradientTransform="matrix(1.71661217 2.74289084 -6.40714825 4.00985287 14.3404 1.1439)" gradientUnits="userSpaceOnUse" r="1"><stop offset=".286771" stop-color="#484646"/><stop offset="1" stop-color="#484646" stop-opacity="0"/></radialGradient><radialGradient id="z" cx="0" cy="0" gradientTransform="matrix(4.37132239 1.03082376 -2.48370224 10.53241458 4.29192 21.2752)" gradientUnits="userSpaceOnUse" r="1"><stop offset="0" stop-color="#3e3330"/><stop offset=".745836" stop-color="#201524"/></radialGradient><linearGradient id="A" gradientUnits="userSpaceOnUse" x1="8.40099" x2="4.32716" y1="19.7713" y2="16.6608"><stop offset="0" stop-color="#64374e"/><stop offset="1" stop-color="#5b3c3a"/></linearGradient><linearGradient id="B" gradientUnits="userSpaceOnUse" x1="27.6824" x2="28.38" y1="15.6098" y2="20.0018"><stop offset="0" stop-color="#97776c"/><stop offset="1" stop-color="#805959"/></linearGradient><radialGradient id="C" cx="0" cy="0" gradientTransform="matrix(-.46874739 4.99999564 -5.41957583 -.50808284 24.3074 17.391)" gradientUnits="userSpaceOnUse" r="1"><stop offset=".690416" stop-color="#6f414f" stop-opacity="0"/><stop offset=".901646" stop-color="#6f414f"/></radialGradient><radialGradient id="D" cx="0" cy="0" gradientTransform="matrix(1.93749745 -2.26562593 2.05322967 1.75586235 24.5937 18.125)" gradientUnits="userSpaceOnUse" r="1"><stop offset=".564406" stop-color="#724640"/><stop offset="1" stop-color="#724640" stop-opacity="0"/></radialGradient><radialGradient id="E" cx="24.9522" cy="18.226" gradientUnits="userSpaceOnUse" r="1.95788"><stop offset=".336925" stop-color="#7c5c56"/><stop offset="1" stop-color="#744740"/></radialGradient><radialGradient id="F" cx="7.1622" cy="18.226" gradientUnits="userSpaceOnUse" r="1.95998"><stop offset="0" stop-color="#533238"/><stop offset="1" stop-color="#522b30"/></radialGradient><linearGradient id="G" gradientUnits="userSpaceOnUse" x1="20.3125" x2="9.92105" y1="19.391" y2="19.391"><stop offset="0" stop-color="#986a5b"/><stop offset="1" stop-color="#714b48"/></linearGradient><linearGradient id="H" gradientUnits="userSpaceOnUse" x1="15.4324" x2="15.4324" y1="29.516" y2="23.1855"><stop offset="0" stop-color="#59302c"/><stop offset="1" stop-color="#764859" stop-opacity="0"/></linearGradient><radialGradient id="I" cx="0" cy="0" gradientTransform="matrix(.06324546 -1.96062018 1.10666437 .03569865 15.3672 28.0989)" gradientUnits="userSpaceOnUse" r="1"><stop offset=".247401" stop-color="#582c2b"/><stop offset="1" stop-color="#582c2b" stop-opacity="0"/></radialGradient><radialGradient id="J" cx="0" cy="0" gradientTransform="matrix(-.93926154 .00214751 -.00625073 -2.73389285 19.7187 25.8125)" gradientUnits="userSpaceOnUse" r="1"><stop offset=".250442" stop-color="#6b393d"/><stop offset="1" stop-color="#6b393d" stop-opacity="0"/></radialGradient><radialGradient id="K" cx="0" cy="0" gradientTransform="matrix(0 -1.91873 2.92105 0 20.7676 15.9092)" gradientUnits="userSpaceOnUse" r="1"><stop offset="0" stop-color="#865353"/><stop offset="1" stop-color="#865353" stop-opacity="0"/></radialGradient><radialGradient id="L" cx="0" cy="0" gradientTransform="matrix(.15624913 -2.1874968 2.97366384 .21240368 11.5938 16.3125)" gradientUnits="userSpaceOnUse" r="1"><stop offset="0" stop-color="#70424e"/><stop offset="1" stop-color="#70424e" stop-opacity="0"/></radialGradient><radialGradient id="M" cx="0" cy="0" gradientTransform="matrix(5.93751791 10.37504729 -2.83253138 1.62102449 5.15625 18.875)" gradientUnits="userSpaceOnUse" r="1"><stop offset=".604828" stop-color="#542e2a"/><stop offset="1" stop-color="#542e2a" stop-opacity="0"/></radialGradient><radialGradient id="N" cx="0" cy="0" gradientTransform="matrix(3.12500307 -.2187506 1.35125186 19.30356389 5.64647 13.8438)" gradientUnits="userSpaceOnUse" r="1"><stop offset=".398741" stop-color="#805f57"/><stop offset="1" stop-color="#805f57" stop-opacity="0"/></radialGradient><radialGradient id="O" cx="0" cy="0" gradientTransform="matrix(5.8964683 -7.15621927 1.79479482 1.47884663 4.78125 13.0938)" gradientUnits="userSpaceOnUse" r="1"><stop offset=".302061" stop-color="#4c2a29"/><stop offset="1" stop-color="#4c2a29" stop-opacity="0"/></radialGradient><radialGradient id="P" cx="0" cy="0" gradientTransform="matrix(-2.21873347 8.46874948 -7.19085834 -1.88393789 20.6465 9.21878)" gradientUnits="userSpaceOnUse" r="1"><stop offset="0" stop-color="#855e5a"/><stop offset="1" stop-color="#855e5a" stop-opacity="0"/></radialGradient><linearGradient id="Q" gradientUnits="userSpaceOnUse" x1="14.0371" x2="14.959" y1="25.2969" y2="23.7344"><stop offset="0" stop-color="#815c5f"/><stop offset="1" stop-color="#815c5f" stop-opacity="0"/></linearGradient><radialGradient id="R" cx="0" cy="0" gradientTransform="matrix(0 -1.26502 3.72016 0 16 25.531)" gradientUnits="userSpaceOnUse" r="1"><stop offset="0" stop-color="#88004e"/><stop offset="1" stop-color="#86004d"/></radialGradient><radialGradient id="S" cx="0" cy="0" gradientTransform="matrix(-4.10381 0 0 -1.52308 16.3593 5.21901)" gradientUnits="userSpaceOnUse" r="1"><stop offset="0" stop-color="#423c3f"/><stop offset="1" stop-color="#423c3f" stop-opacity="0"/></radialGradient><radialGradient id="T" cx="0" cy="0" gradientTransform="matrix(5.9999913 -9.5000025 10.5249892 6.64735021 5.76168 12.5694)" gradientUnits="userSpaceOnUse" r="1"><stop offset=".0926981" stop-color="#0b0306"/><stop offset=".311222" stop-color="#1c0c20"/><stop offset="1" stop-color="#1c0c20" stop-opacity="0"/></radialGradient><radialGradient id="U" cx="0" cy="0" gradientTransform="matrix(5.70209 0 0 2.22942 22.6021 6.70274)" gradientUnits="userSpaceOnUse" r="1"><stop offset="0" stop-color="#4e494b"/><stop offset="1" stop-color="#4e494b" stop-opacity="0"/></radialGradient><radialGradient id="V" cx="0" cy="0" gradientTransform="matrix(4.99424633 -4.75830066 8.71124866 9.1432057 21.1471 12.3655)" gradientUnits="userSpaceOnUse" r="1"><stop offset=".856906" stop-color="#545051" stop-opacity="0"/><stop offset="1" stop-color="#545051"/></radialGradient><radialGradient id="W" cx="0" cy="0" gradientTransform="matrix(6.05601273 .70784566 -.2963617 2.53553891 19.4954 9.61278)" gradientUnits="userSpaceOnUse" r="1"><stop offset="0" stop-color="#200e25"/><stop offset="1" stop-color="#200e25" stop-opacity="0"/></radialGradient><radialGradient id="X" cx="0" cy="0" gradientTransform="matrix(-.88710216 -4.94168771 1.33534467 -.23971307 17.8124 20.9125)" gradientUnits="userSpaceOnUse" r="1"><stop offset=".101466" stop-color="#a17c72"/><stop offset="1" stop-color="#a17c72" stop-opacity="0"/></radialGradient><linearGradient id="Y" gradientUnits="userSpaceOnUse" x1="16.0722" x2="16.0722" y1="22.2113" y2="20.9324"><stop offset="0" stop-color="#774254"/><stop offset="1" stop-color="#774254" stop-opacity="0"/></linearGradient><linearGradient id="Z" gradientUnits="userSpaceOnUse" x1="14.1149" x2="15.8338" y1="20.7442" y2="20.8687"><stop offset="0" stop-color="#724b48"/><stop offset="1" stop-color="#724b48" stop-opacity="0"/></linearGradient><linearGradient id="aa" gradientUnits="userSpaceOnUse" x1="16.2087" x2="16.2087" y1="17.0095" y2="17.8121"><stop offset="0" stop-color="#885e53"/><stop offset="1" stop-color="#885e53" stop-opacity="0"/></linearGradient><radialGradient id="ab" cx="0" cy="0" gradientTransform="matrix(0 .377709 -1.02893 0 16.8781 21.0699)" gradientUnits="userSpaceOnUse" r="1"><stop offset="0" stop-color="#9e7a73"/><stop offset="1" stop-color="#9e7a73" stop-opacity="0"/></radialGradient><linearGradient id="ac"><stop offset=".80198" stop-color="#7d574a"/><stop offset="1" stop-color="#694b43"/><stop offset="1" stop-color="#804d49"/><stop offset="1" stop-color="#664842"/></linearGradient><radialGradient id="ad" cx="0" cy="0" gradientTransform="matrix(0 1.51263 -2.40601 0 20.2655 17.0928)" gradientUnits="userSpaceOnUse" r="1" xlink:href="#ac"/><linearGradient id="ae"><stop offset=".765532" stop-color="#ffe6e2" stop-opacity="0"/><stop offset=".966159" stop-color="#ffe6e2"/></linearGradient><radialGradient id="af" cx="0" cy="0" gradientTransform="matrix(-.43239025 -.55719314 .76712139 -.59529772 19.84 17.2497)" gradientUnits="userSpaceOnUse" r="1" xlink:href="#ae"/><linearGradient id="ag"><stop offset="0" stop-color="#b4948d"/><stop offset="1" stop-color="#b4948d" stop-opacity="0"/></linearGradient><linearGradient id="ah" gradientUnits="userSpaceOnUse" x1="21.7159" x2="21.1309" xlink:href="#ag" y1="17.1933" y2="17.5537"/><radialGradient id="ai" cx="0" cy="0" gradientTransform="matrix(0 1.53876 -2.44757 0 11.9296 17.0922)" gradientUnits="userSpaceOnUse" r="1" xlink:href="#ac"/><linearGradient id="aj" gradientUnits="userSpaceOnUse" x1="13.3403" x2="12.7452" xlink:href="#ag" y1="17.1944" y2="17.5611"/><radialGradient id="ak" cx="0" cy="0" gradientTransform="matrix(-.01467111 -.93703916 1.12636195 -.01763532 11.3864 17.508)" gradientUnits="userSpaceOnUse" r="1" xlink:href="#ae"/><linearGradient id="al" gradientUnits="userSpaceOnUse" x1="11.3429" x2="25.4324" y1="27.7371" y2="14.2266"><stop offset="0" stop-color="#1a1021"/><stop offset="1" stop-color="#393536"/></linearGradient><radialGradient id="am" cx="0" cy="0" gradientTransform="matrix(-1.27858521 6.54541938 -1.6064476 -.31380421 23.8633 19.1581)" gradientUnits="userSpaceOnUse" r="1"><stop offset="0" stop-color="#4d494b"/><stop offset="1" stop-color="#4d494b" stop-opacity="0"/></radialGradient><radialGradient id="an" cx="0" cy="0" gradientTransform="matrix(0 11.9534 -14.6299 0 16.2283 18.6753)" gradientUnits="userSpaceOnUse" r="1"><stop offset=".793651" stop-color="#271832" stop-opacity="0"/><stop offset="1" stop-color="#271832"/></radialGradient><radialGradient id="ao" cx="0" cy="0" gradientTransform="matrix(-11.32092401 1.92129526 -4.01041188 -23.63070846 18.5611 21.0787)" gradientUnits="userSpaceOnUse" r="1"><stop offset=".830608" stop-color="#4e4442" stop-opacity="0"/><stop offset="1" stop-color="#4e4442"/></radialGradient><radialGradient id="ap" cx="0" cy="0" gradientTransform="matrix(13.70673075 1.83412306 -4.42044227 33.0347584 12.4263 20.8257)" gradientUnits="userSpaceOnUse" r="1"><stop offset=".901464" stop-color="#585657" stop-opacity="0"/><stop offset=".968601" stop-color="#585657"/></radialGradient><radialGradient id="aq" cx="0" cy="0" gradientTransform="matrix(0 1.17005 -3.77893 0 16.0155 23.5927)" gradientUnits="userSpaceOnUse" r="1"><stop offset=".2875" stop-color="#100510"/><stop offset="1" stop-color="#100510" stop-opacity="0"/></radialGradient><path d="m24.3387 26.2715c1.5764-.5867 2.6235-2.0997 2.6235-3.7855v-2.3h-2.6235z" fill="url(#t)"/><g filter="url(#a)"><path d="m6.68526 16.876h-1.53307v-2.13c0-.59-.19-1.16-.51999-1.64-.91001-1.32-1.06001-3.1-.27001-4.59001.55-1.04 1.45001-1.76 2.47-2.11 1.08-.38 2.01001-1.11 2.62001-2.08.78-1.24 2.16-2.06 3.74-2.06.61 0 1.2.13 1.74.35.72.31 1.54.31 2.26 0 .53-.22 1.11-.35 1.73-.35 1.6 0 3 .85 3.78 2.12.58.96 1.51 1.65 2.57 2.01.98.33 1.84 1 2.4 1.97.88 1.53.75 3.38001-.2 4.74001-.33.48-.51 1.06-.51 1.64v2.13h-1.2522l.1052-1.69h-.023l.05-1.6c.04-1.51-1.13-2.75-2.62-2.82h-2.65c-1.81 0-3.45-1.05001-4.2-2.70001-.19-.48-.65-.79-1.16-.79h-2.42c-3.44452 0-6.25587 2.75671-6.32855 6.19351z" fill="url(#u)"/><path d="m6.68526 16.876h-1.53307v-2.13c0-.59-.19-1.16-.51999-1.64-.91001-1.32-1.06001-3.1-.27001-4.59001.55-1.04 1.45001-1.76 2.47-2.11 1.08-.38 2.01001-1.11 2.62001-2.08.78-1.24 2.16-2.06 3.74-2.06.61 0 1.2.13 1.74.35.72.31 1.54.31 2.26 0 .53-.22 1.11-.35 1.73-.35 1.6 0 3 .85 3.78 2.12.58.96 1.51 1.65 2.57 2.01.98.33 1.84 1 2.4 1.97.88 1.53.75 3.38001-.2 4.74001-.33.48-.51 1.06-.51 1.64v2.13h-1.2522l.1052-1.69h-.023l.05-1.6c.04-1.51-1.13-2.75-2.62-2.82h-2.65c-1.81 0-3.45-1.05001-4.2-2.70001-.19-.48-.65-.79-1.16-.79h-2.42c-3.44452 0-6.25587 2.75671-6.32855 6.19351z" fill="url(#v)"/><path d="m6.68526 16.876h-1.53307v-2.13c0-.59-.19-1.16-.51999-1.64-.91001-1.32-1.06001-3.1-.27001-4.59001.55-1.04 1.45001-1.76 2.47-2.11 1.08-.38 2.01001-1.11 2.62001-2.08.78-1.24 2.16-2.06 3.74-2.06.61 0 1.2.13 1.74.35.72.31 1.54.31 2.26 0 .53-.22 1.11-.35 1.73-.35 1.6 0 3 .85 3.78 2.12.58.96 1.51 1.65 2.57 2.01.98.33 1.84 1 2.4 1.97.88 1.53.75 3.38001-.2 4.74001-.33.48-.51 1.06-.51 1.64v2.13h-1.2522l.1052-1.69h-.023l.05-1.6c.04-1.51-1.13-2.75-2.62-2.82h-2.65c-1.81 0-3.45-1.05001-4.2-2.70001-.19-.48-.65-.79-1.16-.79h-2.42c-3.44452 0-6.25587 2.75671-6.32855 6.19351z" fill="url(#w)"/><path d="m6.68526 16.876h-1.53307v-2.13c0-.59-.19-1.16-.51999-1.64-.91001-1.32-1.06001-3.1-.27001-4.59001.55-1.04 1.45001-1.76 2.47-2.11 1.08-.38 2.01001-1.11 2.62001-2.08.78-1.24 2.16-2.06 3.74-2.06.61 0 1.2.13 1.74.35.72.31 1.54.31 2.26 0 .53-.22 1.11-.35 1.73-.35 1.6 0 3 .85 3.78 2.12.58.96 1.51 1.65 2.57 2.01.98.33 1.84 1 2.4 1.97.88 1.53.75 3.38001-.2 4.74001-.33.48-.51 1.06-.51 1.64v2.13h-1.2522l.1052-1.69h-.023l.05-1.6c.04-1.51-1.13-2.75-2.62-2.82h-2.65c-1.81 0-3.45-1.05001-4.2-2.70001-.19-.48-.65-.79-1.16-.79h-2.42c-3.44452 0-6.25587 2.75671-6.32855 6.19351z" fill="url(#x)"/><path d="m6.68526 16.876h-1.53307v-2.13c0-.59-.19-1.16-.51999-1.64-.91001-1.32-1.06001-3.1-.27001-4.59001.55-1.04 1.45001-1.76 2.47-2.11 1.08-.38 2.01001-1.11 2.62001-2.08.78-1.24 2.16-2.06 3.74-2.06.61 0 1.2.13 1.74.35.72.31 1.54.31 2.26 0 .53-.22 1.11-.35 1.73-.35 1.6 0 3 .85 3.78 2.12.58.96 1.51 1.65 2.57 2.01.98.33 1.84 1 2.4 1.97.88 1.53.75 3.38001-.2 4.74001-.33.48-.51 1.06-.51 1.64v2.13h-1.2522l.1052-1.69h-.023l.05-1.6c.04-1.51-1.13-2.75-2.62-2.82h-2.65c-1.81 0-3.45-1.05001-4.2-2.70001-.19-.48-.65-.79-1.16-.79h-2.42c-3.44452 0-6.25587 2.75671-6.32855 6.19351z" fill="url(#y)"/></g><path d="m9.12218 20.186h-3.96999v2.3c0 1.73 1.09001 3.26 2.72 3.82l1.24999.4332z" fill="url(#z)"/><g filter="url(#b)"><path d="m7.16219 21.326c1.71209 0 3.10001-1.3879 3.10001-3.1s-1.38792-3.1-3.10001-3.1c-1.71208 0-3.1 1.3879-3.1 3.1s1.38792 3.1 3.1 3.1z" fill="url(#A)"/></g><path d="m24.9522 21.326c1.7121 0 3.1-1.3879 3.1-3.1s-1.3879-3.1-3.1-3.1-3.1 1.3879-3.1 3.1 1.3879 3.1 3.1 3.1z" fill="url(#B)"/><path d="m24.9522 21.326c1.7121 0 3.1-1.3879 3.1-3.1s-1.3879-3.1-3.1-3.1-3.1 1.3879-3.1 3.1 1.3879 3.1 3.1 3.1z" fill="url(#C)"/><path d="m24.9522 21.326c1.7121 0 3.1-1.3879 3.1-3.1s-1.3879-3.1-3.1-3.1-3.1 1.3879-3.1 3.1 1.3879 3.1 3.1 3.1z" fill="url(#D)"/><g filter="url(#c)"><path d="m24.9522 20.1839c1.0813 0 1.9579-.8766 1.9579-1.9579s-.8766-1.9579-1.9579-1.9579-1.9579.8766-1.9579 1.9579.8766 1.9579 1.9579 1.9579z" fill="url(#E)"/></g><g filter="url(#d)"><path d="m7.1622 20.186c1.08247 0 1.95998-.8776 1.95998-1.96 0-1.0825-.87751-1.96-1.95998-1.96s-1.95999.8775-1.95999 1.96c0 1.0824.87752 1.96 1.95999 1.96z" fill="url(#F)"/></g><g filter="url(#e)"><path d="m6.46365 13.4695c.07269-3.4368 2.88404-6.1935 6.32855-6.1935h2.42c.51 0 .97.31 1.16.79.75 1.65 2.39 2.7 4.2 2.7h2.65c1.49.07 2.66 1.31 2.62 2.82l-.05 1.6h.023l-.6251 8.56c-.49 3.66-3.5179 6.39-7.2079 6.39h-3.55c-3.69 0-6.81-2.73-7.3-6.39z" fill="url(#G)"/><path d="m6.46365 13.4695c.07269-3.4368 2.88404-6.1935 6.32855-6.1935h2.42c.51 0 .97.31 1.16.79.75 1.65 2.39 2.7 4.2 2.7h2.65c1.49.07 2.66 1.31 2.62 2.82l-.05 1.6h.023l-.6251 8.56c-.49 3.66-3.5179 6.39-7.2079 6.39h-3.55c-3.69 0-6.81-2.73-7.3-6.39z" fill="url(#H)"/><path d="m6.46365 13.4695c.07269-3.4368 2.88404-6.1935 6.32855-6.1935h2.42c.51 0 .97.31 1.16.79.75 1.65 2.39 2.7 4.2 2.7h2.65c1.49.07 2.66 1.31 2.62 2.82l-.05 1.6h.023l-.6251 8.56c-.49 3.66-3.5179 6.39-7.2079 6.39h-3.55c-3.69 0-6.81-2.73-7.3-6.39z" fill="url(#I)"/><path d="m6.46365 13.4695c.07269-3.4368 2.88404-6.1935 6.32855-6.1935h2.42c.51 0 .97.31 1.16.79.75 1.65 2.39 2.7 4.2 2.7h2.65c1.49.07 2.66 1.31 2.62 2.82l-.05 1.6h.023l-.6251 8.56c-.49 3.66-3.5179 6.39-7.2079 6.39h-3.55c-3.69 0-6.81-2.73-7.3-6.39z" fill="url(#J)"/><path d="m6.46365 13.4695c.07269-3.4368 2.88404-6.1935 6.32855-6.1935h2.42c.51 0 .97.31 1.16.79.75 1.65 2.39 2.7 4.2 2.7h2.65c1.49.07 2.66 1.31 2.62 2.82l-.05 1.6h.023l-.6251 8.56c-.49 3.66-3.5179 6.39-7.2079 6.39h-3.55c-3.69 0-6.81-2.73-7.3-6.39z" fill="url(#K)"/><path d="m6.46365 13.4695c.07269-3.4368 2.88404-6.1935 6.32855-6.1935h2.42c.51 0 .97.31 1.16.79.75 1.65 2.39 2.7 4.2 2.7h2.65c1.49.07 2.66 1.31 2.62 2.82l-.05 1.6h.023l-.6251 8.56c-.49 3.66-3.5179 6.39-7.2079 6.39h-3.55c-3.69 0-6.81-2.73-7.3-6.39z" fill="url(#L)"/><path d="m6.46365 13.4695c.07269-3.4368 2.88404-6.1935 6.32855-6.1935h2.42c.51 0 .97.31 1.16.79.75 1.65 2.39 2.7 4.2 2.7h2.65c1.49.07 2.66 1.31 2.62 2.82l-.05 1.6h.023l-.6251 8.56c-.49 3.66-3.5179 6.39-7.2079 6.39h-3.55c-3.69 0-6.81-2.73-7.3-6.39z" fill="url(#M)"/><path d="m6.46365 13.4695c.07269-3.4368 2.88404-6.1935 6.32855-6.1935h2.42c.51 0 .97.31 1.16.79.75 1.65 2.39 2.7 4.2 2.7h2.65c1.49.07 2.66 1.31 2.62 2.82l-.05 1.6h.023l-.6251 8.56c-.49 3.66-3.5179 6.39-7.2079 6.39h-3.55c-3.69 0-6.81-2.73-7.3-6.39z" fill="url(#N)"/><path d="m6.46365 13.4695c.07269-3.4368 2.88404-6.1935 6.32855-6.1935h2.42c.51 0 .97.31 1.16.79.75 1.65 2.39 2.7 4.2 2.7h2.65c1.49.07 2.66 1.31 2.62 2.82l-.05 1.6h.023l-.6251 8.56c-.49 3.66-3.5179 6.39-7.2079 6.39h-3.55c-3.69 0-6.81-2.73-7.3-6.39z" fill="url(#O)"/><path d="m6.46365 13.4695c.07269-3.4368 2.88404-6.1935 6.32855-6.1935h2.42c.51 0 .97.31 1.16.79.75 1.65 2.39 2.7 4.2 2.7h2.65c1.49.07 2.66 1.31 2.62 2.82l-.05 1.6h.023l-.6251 8.56c-.49 3.66-3.5179 6.39-7.2079 6.39h-3.55c-3.69 0-6.81-2.73-7.3-6.39z" fill="url(#P)"/></g><g filter="url(#f)"><path d="m15.3944 18.0862-1.2433 3.0318c-.2538.6198.1558 1.3131.8105 1.3759l1.396.134c.6547.0629 1.1887-.5399 1.0574-1.1966l-.6438-3.2129c-.1458-.7077-1.1086-.8001-1.3768-.1322z" fill="#603734"/></g><g filter="url(#g)"><path d="m19.1122 23.8897c.1878-.2892-.1429-.6471-.4455-.4887-.7903.4134-1.6902.6446-2.6759.6446-.9737 0-1.8856-.2313-2.6509-.6443l-.0014-.0007c-.1565-.0782-.3181-.0317-.4147.072-.0971.1043-.1294.2676-.0298.4173.6592 1.0196 1.8033 1.6911 3.109 1.6911 1.3059 0 2.4501-.6716 3.1092-1.6913zm0 0s0 0-.0001 0l-.0419-.0272.042.0271z" stroke="url(#Q)" stroke-width=".1"/></g><path d="m15.9908 24.0956c-.9815 0-1.9017-.2331-2.6746-.6503-.2699-.1349-.5521.1595-.3804.4172.6503 1.006 1.779 1.6685 3.0672 1.6685 1.2883 0 2.417-.6625 3.0672-1.6685.1595-.2454-.1227-.5521-.3803-.4172-.7975.4172-1.7054.6503-2.6991.6503z" fill="url(#R)"/><g filter="url(#h)"><path d="m22.8096 13.2056c-.3266-.2845-.7065-.5859-1.2818-.767-.5672-.1786-1.2777-.2266-2.2606-.1063-.2834.0347-.4851.2926-.4504.576s.2925.4851.576.4504c.8971-.1097 1.4467-.0527 1.8244.0663.3697.1163.6198.3049.9132.5604.2153.1876.5419.165.7295-.0503.1875-.2153.165-.5419-.0503-.7295z" fill="#2e201f"/></g><g filter="url(#i)"><path d="m9.49073 13.0023c.16803-.1005.40979-.2292.71507-.3492.6105-.2401 1.483-.4485 2.527-.3208.2834.0347.4851.2926.4504.576-.0346.2835-.2925.4851-.576.4504-.836-.1022-1.5335.0643-2.023.2568-.2447.0962-.4354.1982-.5624.2741-.06336.038-.11045.0692-.14002.0896-.01477.0102-.02512.0177-.03091.022l-.00514.0038c-.22533.1737-.549.1328-.72385-.092-.17532-.2254-.13471-.5503.0907-.7256z" fill="#2e201f"/></g><g filter="url(#j)"><path d="m16.3201 8.15697c-.0435-.08333-.0847-.16838-.1234-.25507-.1878-.47-.6427-.78-1.147-.78h-2.3732c-3.44121 0-6.22975 2.82-6.22975 6.3v.513c-.63389-.4824-1.43119-1.5-1.43119-3.1468 0-1.9983 1.45748-3.00839 2.38717-3.65271.26247-.1819.48287-.33464.61653-.47224.05678-.05846.1186-.12402.18584-.19533.65167-.69118 1.8128-1.9227 3.8404-2.46092 1.2985-.34469 2.6195-.34819 3.5111-.26844.471.04212.8027.45065.8027.9235v3.46994z" fill="#2d171f"/><path d="m16.3201 8.15697c-.0435-.08333-.0847-.16838-.1234-.25507-.1878-.47-.6427-.78-1.147-.78h-2.3732c-3.44121 0-6.22975 2.82-6.22975 6.3v.513c-.63389-.4824-1.43119-1.5-1.43119-3.1468 0-1.9983 1.45748-3.00839 2.38717-3.65271.26247-.1819.48287-.33464.61653-.47224.05678-.05846.1186-.12402.18584-.19533.65167-.69118 1.8128-1.9227 3.8404-2.46092 1.2985-.34469 2.6195-.34819 3.5111-.26844.471.04212.8027.45065.8027.9235v3.46994z" fill="url(#S)"/><path d="m16.3201 8.15697c-.0435-.08333-.0847-.16838-.1234-.25507-.1878-.47-.6427-.78-1.147-.78h-2.3732c-3.44121 0-6.22975 2.82-6.22975 6.3v.513c-.63389-.4824-1.43119-1.5-1.43119-3.1468 0-1.9983 1.45748-3.00839 2.38717-3.65271.26247-.1819.48287-.33464.61653-.47224.05678-.05846.1186-.12402.18584-.19533.65167-.69118 1.8128-1.9227 3.8404-2.46092 1.2985-.34469 2.6195-.34819 3.5111-.26844.471.04212.8027.45065.8027.9235v3.46994z" fill="url(#T)"/></g><g filter="url(#k)"><path d="m25.9555 14.283-.0544-1.1768c-.0198-1.4234-1.1961-2.598-2.62-2.6577h-2.6106c-1.6572 0-3.1687-.90601-3.9598-2.34849 0 0-.382-.88491-.4662-2.17953-.0651-1.00097.8403-1.71838 1.8347-1.58681 2.0662.2734 4.9338.91845 6.9052 2.20423 3.2525 2.12144 2.6831 5.9447.9711 7.7451z" fill="#2d171f"/><path d="m25.9555 14.283-.0544-1.1768c-.0198-1.4234-1.1961-2.598-2.62-2.6577h-2.6106c-1.6572 0-3.1687-.90601-3.9598-2.34849 0 0-.382-.88491-.4662-2.17953-.0651-1.00097.8403-1.71838 1.8347-1.58681 2.0662.2734 4.9338.91845 6.9052 2.20423 3.2525 2.12144 2.6831 5.9447.9711 7.7451z" fill="url(#U)"/><path d="m25.9555 14.283-.0544-1.1768c-.0198-1.4234-1.1961-2.598-2.62-2.6577h-2.6106c-1.6572 0-3.1687-.90601-3.9598-2.34849 0 0-.382-.88491-.4662-2.17953-.0651-1.00097.8403-1.71838 1.8347-1.58681 2.0662.2734 4.9338.91845 6.9052 2.20423 3.2525 2.12144 2.6831 5.9447.9711 7.7451z" fill="url(#V)"/><path d="m25.9555 14.283-.0544-1.1768c-.0198-1.4234-1.1961-2.598-2.62-2.6577h-2.6106c-1.6572 0-3.1687-.90601-3.9598-2.34849 0 0-.382-.88491-.4662-2.17953-.0651-1.00097.8403-1.71838 1.8347-1.58681 2.0662.2734 4.9338.91845 6.9052 2.20423 3.2525 2.12144 2.6831 5.9447.9711 7.7451z" fill="url(#W)"/></g><g filter="url(#l)"><path d="m15.3572 17.7031-.98 3.1929c-.2.6527.29 1.3153.97 1.3153h1.45c.68 0 1.17-.6626.97-1.3153l-.98-3.1929c-.22-.7028-1.22-.7028-1.43 0z" fill="#835a51"/><path d="m15.3572 17.7031-.98 3.1929c-.2.6527.29 1.3153.97 1.3153h1.45c.68 0 1.17-.6626.97-1.3153l-.98-3.1929c-.22-.7028-1.22-.7028-1.43 0z" fill="url(#X)"/><path d="m15.3572 17.7031-.98 3.1929c-.2.6527.29 1.3153.97 1.3153h1.45c.68 0 1.17-.6626.97-1.3153l-.98-3.1929c-.22-.7028-1.22-.7028-1.43 0z" fill="url(#Y)"/><path d="m15.3572 17.7031-.98 3.1929c-.2.6527.29 1.3153.97 1.3153h1.45c.68 0 1.17-.6626.97-1.3153l-.98-3.1929c-.22-.7028-1.22-.7028-1.43 0z" fill="url(#Z)"/><path d="m15.3572 17.7031-.98 3.1929c-.2.6527.29 1.3153.97 1.3153h1.45c.68 0 1.17-.6626.97-1.3153l-.98-3.1929c-.22-.7028-1.22-.7028-1.43 0z" fill="url(#aa)"/><path d="m15.3572 17.7031-.98 3.1929c-.2.6527.29 1.3153.97 1.3153h1.45c.68 0 1.17-.6626.97-1.3153l-.98-3.1929c-.22-.7028-1.22-.7028-1.43 0z" fill="url(#ab)"/></g><path d="m20.655 15.6967c1.2176 0 2.2462.8395 2.5261 1.974.0832.3252-.1664.6353-.4992.6353h-4.1597c-.2648 0-.4765-.242-.4236-.5067.2345-1.195 1.2858-2.1026 2.5564-2.1026z" fill="#fff"/><path d="m20.2693 16.2034c.9227 0 1.6639.7488 1.6639 1.6639 0 .1513-.0227.3026-.0605.4387h-3.2144c-.0378-.1437-.0605-.2874-.0605-.4387 0-.9151.7488-1.6639 1.6715-1.6639z" fill="url(#ad)"/><path d="m19.3163 17.8673c0-.5294.4236-.9529.953-.9529s.9529.4235.9529.9529c0 .1589-.0378.3101-.1059.4387h-1.6865c-.0757-.1286-.1135-.2798-.1135-.4387z" fill="#000"/><g filter="url(#m)"><path d="m20.1469 16.5552c.1185.1586-.1293.3518-.411.5625-.2817.2106-.4908.3589-.6093.2003-.1185-.1585.0138-.4578.2955-.6685.2817-.2106.6062-.2528.7248-.0943z" fill="#c7a7a3"/><path d="m20.1469 16.5552c.1185.1586-.1293.3518-.411.5625-.2817.2106-.4908.3589-.6093.2003-.1185-.1585.0138-.4578.2955-.6685.2817-.2106.6062-.2528.7248-.0943z" fill="url(#af)"/></g><g filter="url(#n)"><path d="m21.7513 17.6483c-.0614-.4302-.3131-.7544-.4313-.8627l-.4845.5318.2186.4254z" fill="url(#ah)"/></g><path d="m11.5333 15.672c-1.2387 0-2.28502.854-2.56969 2.0081-.08463.3308.16926.6463.50779.6463h4.2316c.2693 0 .4847-.2462.4308-.5155-.2385-1.2156-1.3156-2.1389-2.6005-2.1389z" fill="#fff"/><path d="m11.9257 16.1875c-.9386 0-1.6926.7617-1.6926 1.6926 0 .1539.0231.3078.0615.4463h3.2699c.0385-.1462.0616-.2924.0616-.4463-.0077-.9309-.7617-1.6926-1.7004-1.6926z" fill="url(#ai)"/><path d="m12.8951 17.8802c0-.5386-.4308-.9695-.9694-.9695-.5385 0-.9694.4309-.9694.9695 0 .1615.0385.3154.1077.4462h1.7157c.0693-.1308.1154-.2847.1154-.4462z" fill="#000"/><g filter="url(#o)"><path d="m13.4721 17.6813c0-.547-.4448-.9116-.565-1.0218l-.547.5289.3366.6852z" fill="url(#aj)"/></g><g filter="url(#p)"><ellipse cx="11.415" cy="16.9107" fill="#c7a7a3" fill-opacity=".9" rx=".738926" ry=".373965" transform="matrix(.88365127 -.46814574 .46814574 .88365127 -6.588551 7.311422)"/><ellipse cx="11.415" cy="16.9107" fill="url(#ak)" rx=".738926" ry=".373965" transform="matrix(.88365127 -.46814574 .46814574 .88365127 -6.588551 7.311422)"/></g><g clip-rule="evenodd" fill-rule="evenodd"><g filter="url(#q)"><path d="m6.42042 13.9404c-.05223 0-.09331.0446-.08902.0966l.8008 9.709c.1668 1.2458.63832 2.3839 1.33332 3.3432.54032.8171 1.27267 1.4145 2.09008 1.9445 1.0275.6369 2.22 1.0263 3.4903 1.0923h4.0363c.2233.0005.4424-.0093.6573-.0286.9599-.0985 1.8691-.382 2.6887-.8165 1.5606-.8487 2.7101-2.2278 3.3316-3.6257.2255-.5303.3913-1.0939.4886-1.6832.0098-.076.0178-.1514.0238-.226l.0533-.695.7912-8.9163c.0088-.0991-.0693-.1845-.1688-.1845-.0733 0-.1383.0472-.1611.1168l-3.0646 9.369c-.15.43-.69.57-1.02.27l-.75-.67c-.62-.56-1.43-.86-2.27-.86h-5.03c-.84 0-1.64.31-2.27.86l-.75.67c-.34.3-.87998.16-1.01998-.27l-3.10695-9.4342c-.01206-.0367-.04628-.0614-.08485-.0614zm6.16828 11.9204v-1.7823c0-.47.38-.85.85-.85h5.0656c.47 0 .85.38.85.85v1.7823c0 .92-1.0644 1.66-1.9844 1.66-.19 0-.34-.15-.34-.34v-.3228c0-.51-.4677-.92-.9777-.92s-.9166.41-.9166.92v.3228c0 .19-.1501.34-.3401.34-.92 0-2.2068-.74-2.2068-1.66z" fill="url(#al)"/><path d="m6.42042 13.9404c-.05223 0-.09331.0446-.08902.0966l.8008 9.709c.1668 1.2458.63832 2.3839 1.33332 3.3432.54032.8171 1.27267 1.4145 2.09008 1.9445 1.0275.6369 2.22 1.0263 3.4903 1.0923h4.0363c.2233.0005.4424-.0093.6573-.0286.9599-.0985 1.8691-.382 2.6887-.8165 1.5606-.8487 2.7101-2.2278 3.3316-3.6257.2255-.5303.3913-1.0939.4886-1.6832.0098-.076.0178-.1514.0238-.226l.0533-.695.7912-8.9163c.0088-.0991-.0693-.1845-.1688-.1845-.0733 0-.1383.0472-.1611.1168l-3.0646 9.369c-.15.43-.69.57-1.02.27l-.75-.67c-.62-.56-1.43-.86-2.27-.86h-5.03c-.84 0-1.64.31-2.27.86l-.75.67c-.34.3-.87998.16-1.01998-.27l-3.10695-9.4342c-.01206-.0367-.04628-.0614-.08485-.0614zm6.16828 11.9204v-1.7823c0-.47.38-.85.85-.85h5.0656c.47 0 .85.38.85.85v1.7823c0 .92-1.0644 1.66-1.9844 1.66-.19 0-.34-.15-.34-.34v-.3228c0-.51-.4677-.92-.9777-.92s-.9166.41-.9166.92v.3228c0 .19-.1501.34-.3401.34-.92 0-2.2068-.74-2.2068-1.66z" fill="url(#am)"/></g><path d="m6.42042 13.9404c-.05223 0-.09331.0446-.08902.0966l.8008 9.709c.1668 1.2458.63832 2.3839 1.33332 3.3432.56019.7341 1.27267 1.4145 2.09008 1.9445 1.0275.6369 2.22 1.0263 3.4903 1.0923h4.0363c.2233.0005.4424-.0093.6573-.0286.9599-.0985 1.8691-.382 2.6887-.8165 1.5606-.8487 2.7101-2.2278 3.3316-3.6257.2255-.5303.3913-1.0939.4886-1.6832.0098-.076.0178-.1514.0238-.226l.0533-.695.7912-8.9163c.0088-.0991-.0693-.1845-.1688-.1845-.0733 0-.1383.0472-.1611.1168l-3.0646 9.369c-.15.43-.69.57-1.02.27l-.75-.67c-.62-.56-1.43-.86-2.27-.86h-5.03c-.84 0-1.64.31-2.27.86l-.75.67c-.34.3-.87998.16-1.01998-.27l-3.10695-9.4342c-.01206-.0367-.04628-.0614-.08485-.0614zm6.16828 11.9204v-1.7823c0-.47.38-.85.85-.85h5.0656c.47 0 .85.38.85.85v1.7823c0 .92-1.0644 1.66-1.9844 1.66-.19 0-.34-.15-.34-.34v-.3228c0-.51-.4677-.92-.9777-.92s-.9166.41-.9166.92v.3228c0 .19-.1501.34-.3401.34-.92 0-2.2068-.74-2.2068-1.66z" fill="url(#an)"/><path d="m6.42042 13.9404c-.05223 0-.09331.0446-.08902.0966l.8008 9.709c.1668 1.2458.63832 2.3839 1.33332 3.3432.56019.7341 1.27267 1.4145 2.09008 1.9445 1.0275.6369 2.22 1.0263 3.4903 1.0923h4.0363c.2233.0005.4424-.0093.6573-.0286.9599-.0985 1.8691-.382 2.6887-.8165 1.5606-.8487 2.7101-2.2278 3.3316-3.6257.2255-.5303.3913-1.0939.4886-1.6832.0098-.076.0178-.1514.0238-.226l.0533-.695.7912-8.9163c.0088-.0991-.0693-.1845-.1688-.1845-.0733 0-.1383.0472-.1611.1168l-3.0646 9.369c-.15.43-.69.57-1.02.27l-.75-.67c-.62-.56-1.43-.86-2.27-.86h-5.03c-.84 0-1.64.31-2.27.86l-.75.67c-.34.3-.87998.16-1.01998-.27l-3.10695-9.4342c-.01206-.0367-.04628-.0614-.08485-.0614zm6.16828 11.9204v-1.7823c0-.47.38-.85.85-.85h5.0656c.47 0 .85.38.85.85v1.7823c0 .92-1.0644 1.66-1.9844 1.66-.19 0-.34-.15-.34-.34v-.3228c0-.51-.4677-.92-.9777-.92s-.9166.41-.9166.92v.3228c0 .19-.1501.34-.3401.34-.92 0-2.2068-.74-2.2068-1.66z" fill="url(#ao)"/><path d="m6.42042 13.9404c-.05223 0-.09331.0446-.08902.0966l.8008 9.709c.1668 1.2458.63832 2.3839 1.33332 3.3432.56019.7341 1.27267 1.4145 2.09008 1.9445 1.0275.6369 2.22 1.0263 3.4903 1.0923h4.0363c.2233.0005.4424-.0093.6573-.0286.9599-.0985 1.8691-.382 2.6887-.8165 1.5606-.8487 2.7101-2.2278 3.3316-3.6257.2255-.5303.3913-1.0939.4886-1.6832.0098-.076.0178-.1514.0238-.226l.0533-.695.7912-8.9163c.0088-.0991-.0693-.1845-.1688-.1845-.0733 0-.1383.0472-.1611.1168l-3.0646 9.369c-.15.43-.69.57-1.02.27l-.75-.67c-.62-.56-1.43-.86-2.27-.86h-5.03c-.84 0-1.64.31-2.27.86l-.75.67c-.34.3-.87998.16-1.01998-.27l-3.10695-9.4342c-.01206-.0367-.04628-.0614-.08485-.0614zm6.16828 11.9204v-1.7823c0-.47.38-.85.85-.85h5.0656c.47 0 .85.38.85.85v1.7823c0 .92-1.0644 1.66-1.9844 1.66-.19 0-.34-.15-.34-.34v-.3228c0-.51-.4677-.92-.9777-.92s-.9166.41-.9166.92v.3228c0 .19-.1501.34-.3401.34-.92 0-2.2068-.74-2.2068-1.66z" fill="url(#ap)"/><path d="m6.42042 13.9404c-.05223 0-.09331.0446-.08902.0966l.8008 9.709c.1668 1.2458.63832 2.3839 1.33332 3.3432.56019.7341 1.27267 1.4145 2.09008 1.9445 1.0275.6369 2.22 1.0263 3.4903 1.0923h4.0363c.2233.0005.4424-.0093.6573-.0286.9599-.0985 1.8691-.382 2.6887-.8165 1.5606-.8487 2.7101-2.2278 3.3316-3.6257.2255-.5303.3913-1.0939.4886-1.6832.0098-.076.0178-.1514.0238-.226l.0533-.695.7912-8.9163c.0088-.0991-.0693-.1845-.1688-.1845-.0733 0-.1383.0472-.1611.1168l-3.0646 9.369c-.15.43-.69.57-1.02.27l-.75-.67c-.62-.56-1.43-.86-2.27-.86h-5.03c-.84 0-1.64.31-2.27.86l-.75.67c-.34.3-.87998.16-1.01998-.27l-3.10695-9.4342c-.01206-.0367-.04628-.0614-.08485-.0614zm6.16828 11.9204v-1.7823c0-.47.38-.85.85-.85h5.0656c.47 0 .85.38.85.85v1.7823c0 .92-1.0644 1.66-1.9844 1.66-.19 0-.34-.15-.34-.34v-.3228c0-.51-.4677-.92-.9777-.92s-.9166.41-.9166.92v.3228c0 .19-.1501.34-.3401.34-.92 0-2.2068-.74-2.2068-1.66z" fill="url(#aq)"/></g><g filter="url(#r)"><path d="m9.52618 13.5629c.40625-.3385 1.60622-.9625 3.15622-.75" stroke="#353535" stroke-linecap="round" stroke-width=".25"/></g><g filter="url(#s)"><path d="m22.5731 13.516c-.4063-.3385-1.6063-.9625-3.1563-.75" stroke="#433739" stroke-linecap="round" stroke-width=".25"/></g></svg>