<svg fill="none" height="32" viewBox="0 0 32 32" width="32" xmlns="http://www.w3.org/2000/svg" xmlns:xlink="http://www.w3.org/1999/xlink"><filter id="a" color-interpolation-filters="sRGB" filterUnits="userSpaceOnUse" height="15.7313" width="25.525" x="3.2375" y="9.40625"><feFlood flood-opacity="0" result="BackgroundImageFix"/><feBlend in="SourceGraphic" in2="BackgroundImageFix" mode="normal" result="shape"/><feColorMatrix in="SourceAlpha" result="hardAlpha" type="matrix" values="0 0 0 0 0 0 0 0 0 0 0 0 0 0 0 0 0 0 127 0"/><feOffset dy=".2"/><feGaussianBlur stdDeviation=".125"/><feComposite in2="hardAlpha" k2="-1" k3="1" operator="arithmetic"/><feColorMatrix type="matrix" values="0 0 0 0 0.133333 0 0 0 0 0.376471 0 0 0 0 0.603922 0 0 0 1 0"/><feBlend in2="shape" mode="normal" result="effect1_innerShadow_18_21465"/><feColorMatrix in="SourceAlpha" result="hardAlpha" type="matrix" values="0 0 0 0 0 0 0 0 0 0 0 0 0 0 0 0 0 0 127 0"/><feOffset dx="-.2"/><feGaussianBlur stdDeviation=".125"/><feComposite in2="hardAlpha" k2="-1" k3="1" operator="arithmetic"/><feColorMatrix type="matrix" values="0 0 0 0 0.121569 0 0 0 0 0.341176 0 0 0 0 0.560784 0 0 0 1 0"/><feBlend in2="effect1_innerShadow_18_21465" mode="normal" result="effect2_innerShadow_18_21465"/><feColorMatrix in="SourceAlpha" result="hardAlpha" type="matrix" values="0 0 0 0 0 0 0 0 0 0 0 0 0 0 0 0 0 0 127 0"/><feOffset dx=".2"/><feGaussianBlur stdDeviation=".125"/><feComposite in2="hardAlpha" k2="-1" k3="1" operator="arithmetic"/><feColorMatrix type="matrix" values="0 0 0 0 0.207843 0 0 0 0 0.533333 0 0 0 0 0.780392 0 0 0 1 0"/><feBlend in2="effect2_innerShadow_18_21465" mode="normal" result="effect3_innerShadow_18_21465"/></filter><filter id="b" color-interpolation-filters="sRGB" filterUnits="userSpaceOnUse" height="18.8" width="5.1125" x="14.4125" y="7.9125"><feFlood flood-opacity="0" result="BackgroundImageFix"/><feBlend in="SourceGraphic" in2="BackgroundImageFix" mode="normal" result="shape"/><feGaussianBlur result="effect1_foregroundBlur_18_21465" stdDeviation=".2"/></filter><filter id="c" color-interpolation-filters="sRGB" filterUnits="userSpaceOnUse" height="3.90625" width="4.8125" x="14.5625" y="26.0625"><feFlood flood-opacity="0" result="BackgroundImageFix"/><feBlend in="SourceGraphic" in2="BackgroundImageFix" mode="normal" result="shape"/><feGaussianBlur result="effect1_foregroundBlur_18_21465" stdDeviation=".125"/></filter><filter id="d" color-interpolation-filters="sRGB" filterUnits="userSpaceOnUse" height="9.88745" width="8.40314" x="5.41154" y="12.3469"><feFlood flood-opacity="0" result="BackgroundImageFix"/><feColorMatrix in="SourceAlpha" result="hardAlpha" type="matrix" values="0 0 0 0 0 0 0 0 0 0 0 0 0 0 0 0 0 0 127 0"/><feOffset dx="-.1" dy=".15"/><feGaussianBlur stdDeviation=".125"/><feComposite in2="hardAlpha" operator="out"/><feColorMatrix type="matrix" values="0 0 0 0 0.188235 0 0 0 0 0.509804 0 0 0 0 0.639216 0 0 0 1 0"/><feBlend in2="BackgroundImageFix" mode="normal" result="effect1_dropShadow_18_21465"/><feBlend in="SourceGraphic" in2="effect1_dropShadow_18_21465" mode="normal" result="shape"/><feColorMatrix in="SourceAlpha" result="hardAlpha" type="matrix" values="0 0 0 0 0 0 0 0 0 0 0 0 0 0 0 0 0 0 127 0"/><feOffset dx=".1" dy="-.1"/><feGaussianBlur stdDeviation=".05"/><feComposite in2="hardAlpha" k2="-1" k3="1" operator="arithmetic"/><feColorMatrix type="matrix" values="0 0 0 0 0.784314 0 0 0 0 0.760784 0 0 0 0 0.752941 0 0 0 1 0"/><feBlend in2="shape" mode="normal" result="effect2_innerShadow_18_21465"/><feColorMatrix in="SourceAlpha" result="hardAlpha" type="matrix" values="0 0 0 0 0 0 0 0 0 0 0 0 0 0 0 0 0 0 127 0"/><feOffset dx="-.1" dy=".1"/><feGaussianBlur stdDeviation=".05"/><feComposite in2="hardAlpha" k2="-1" k3="1" operator="arithmetic"/><feColorMatrix type="matrix" values="0 0 0 0 1 0 0 0 0 0.996078 0 0 0 0 0.992157 0 0 0 1 0"/><feBlend in2="effect2_innerShadow_18_21465" mode="normal" result="effect3_innerShadow_18_21465"/></filter><linearGradient id="e" gradientUnits="userSpaceOnUse" x1="28.1094" x2="3.04688" y1="28.6875" y2="28.6875"><stop offset="0" stop-color="#18739d"/><stop offset="1" stop-color="#1b5186"/></linearGradient><linearGradient id="f" gradientUnits="userSpaceOnUse" x1="29.9219" x2="27.2656" y1="27.8125" y2="27.8125"><stop offset="0" stop-color="#2091c5"/><stop offset="1" stop-color="#2091c5" stop-opacity="0"/></linearGradient><linearGradient id="g" gradientUnits="userSpaceOnUse" x1="2.07812" x2="4.82812" y1="27.6875" y2="27.6875"><stop offset=".556818" stop-color="#1e4472"/><stop offset="1" stop-color="#1e4472" stop-opacity="0"/></linearGradient><radialGradient id="h" cx="0" cy="0" gradientTransform="matrix(12.93752524 14.50000931 -19.01468335 16.96570951 2.6875 8.75)" gradientUnits="userSpaceOnUse" r="1"><stop offset="0" stop-color="#49d9f8"/><stop offset="1" stop-color="#37c8f5"/></radialGradient><linearGradient id="i" gradientUnits="userSpaceOnUse" x1="25.625" x2="7.875" y1="9.75" y2="24.4375"><stop offset="0" stop-color="#2d6fab"/><stop offset="1" stop-color="#2d70ac"/></linearGradient><linearGradient id="j" gradientUnits="userSpaceOnUse" x1="19.3125" x2="21.0938" y1="17.6875" y2="17.6875"><stop offset=".22807" stop-color="#2b6a9c"/><stop offset="1" stop-color="#2b6a9c" stop-opacity="0"/></linearGradient><radialGradient id="k" cx="0" cy="0" gradientTransform="matrix(3.65625026 -3.1562467 3.10229779 3.59375492 20.8437 17.8437)" gradientUnits="userSpaceOnUse" r="1"><stop offset=".587108" stop-color="#28669c" stop-opacity="0"/><stop offset=".986856" stop-color="#1d5083"/></radialGradient><linearGradient id="l" gradientUnits="userSpaceOnUse" x1="17.25" x2="17.25" y1="9.6875" y2="27"><stop offset="0" stop-color="#ffd425"/><stop offset="1" stop-color="#ffad24"/></linearGradient><linearGradient id="m" gradientUnits="userSpaceOnUse" x1="18.3125" x2="18.3125" y1="29.9063" y2="26.0625"><stop offset=".893939" stop-color="#cc8139"/><stop offset="1" stop-color="#cc8139" stop-opacity="0"/></linearGradient><linearGradient id="n" gradientUnits="userSpaceOnUse" x1="9.71313" x2="9.71313" y1="12.4469" y2="21.8344"><stop offset="0" stop-color="#efeaea"/><stop offset="1" stop-color="#eae3e3"/></linearGradient><rect fill="url(#e)" height="18.2812" rx="2.2" width="27.8438" x="2.07812" y="11.625"/><rect fill="url(#f)" height="18.2812" rx="2.2" width="27.8438" x="2.07812" y="11.625"/><rect fill="url(#g)" height="18.2812" rx="2.2" width="27.8438" x="2.07812" y="11.625"/><rect fill="url(#h)" height="18.2812" rx="2.2" width="27.8438" x="2.07812" y="8.03125"/><g filter="url(#a)"><path clip-rule="evenodd" d="m27.0625 10.1562h-22.125c-.41421 0-.75.3358-.75.75v12.5313c0 .4142.33579.75.75.75h22.125c.4142 0 .75-.3358.75-.75v-12.5313c0-.4142-.3358-.75-.75-.75zm-22.125-.74995c-.82843 0-1.5.67155-1.5 1.49995v12.5313c0 .8284.67157 1.5 1.5 1.5h22.125c.8284 0 1.5-.6716 1.5-1.5v-12.5313c0-.8284-.6716-1.49995-1.5-1.49995z" fill="url(#i)" fill-rule="evenodd"/></g><ellipse cx="20.8438" cy="17.1719" fill="#2e70a8" rx="4.625" ry="4.26562"/><ellipse cx="20.8438" cy="17.1719" fill="url(#j)" rx="4.625" ry="4.26562"/><ellipse cx="20.8438" cy="17.1719" fill="url(#k)" rx="4.625" ry="4.26562"/><g filter="url(#b)"><path d="m14.9688 8.3125h4.1562v18h-4.3125z" fill="#1c6e85"/></g><g filter="url(#c)"><path d="m14.9844 29.7188h4.1406v-3.4063h-4.3125z" fill="#164a75"/></g><path d="m15.0625 8.03125h4.375v21.875h-4.375z" fill="url(#l)"/><path d="m15.0625 8.03125h4.375v21.875h-4.375z" fill="url(#m)"/><g filter="url(#d)"><path d="m6.36154 16.7875h1.93125v.7531h-1.93125c-.33138 0-.6.2687-.6.6 0 .3314.26862.6.6.6h1.96656c.24608 1.7486 1.7483 3.0938 3.5647 3.0938h1.1719c.3313 0 .6-.2686.6-.6s-.2687-.6-.6-.6h-1.1719c-1.1518 0-2.11412-.8114-2.34652-1.8938h2.56522c.3314 0 .6-.2686.6-.6 0-.3313-.2686-.6-.6-.6h-2.61871v-.7531h2.61871c.3314 0 .6-.2686.6-.6 0-.3313-.2686-.6-.6-.6h-2.5748c.21433-1.1057 1.1877-1.9406 2.3561-1.9406h1.1719c.3313 0 .6-.2686.6-.6s-.2687-.6-.6-.6h-1.1719c-1.8326 0-3.34538 1.3693-3.57098 3.1406h-1.96028c-.33138 0-.6.2687-.6.6 0 .3314.26862.6.6.6z" fill="url(#n)"/></g></svg>