<svg fill="none" height="32" viewBox="0 0 32 32" width="32" xmlns="http://www.w3.org/2000/svg" xmlns:xlink="http://www.w3.org/1999/xlink"><filter id="a" color-interpolation-filters="sRGB" filterUnits="userSpaceOnUse" height="22.6562" width="28.8113" x="2.0943" y="7.1875"><feFlood flood-opacity="0" result="BackgroundImageFix"/><feBlend in="SourceGraphic" in2="BackgroundImageFix" mode="normal" result="shape"/><feColorMatrix in="SourceAlpha" result="hardAlpha" type="matrix" values="0 0 0 0 0 0 0 0 0 0 0 0 0 0 0 0 0 0 127 0"/><feOffset dx="1" dy="-1.5"/><feGaussianBlur stdDeviation="1.5"/><feComposite in2="hardAlpha" k2="-1" k3="1" operator="arithmetic"/><feColorMatrix type="matrix" values="0 0 0 0 0.427451 0 0 0 0 0.290196 0 0 0 0 0.254902 0 0 0 1 0"/><feBlend in2="shape" mode="normal" result="effect1_innerShadow_20020_4311"/></filter><filter id="b" color-interpolation-filters="sRGB" filterUnits="userSpaceOnUse" height="10.7188" width="15.7812" x="5.24475" y="18.2656"><feFlood flood-opacity="0" result="BackgroundImageFix"/><feBlend in="SourceGraphic" in2="BackgroundImageFix" mode="normal" result="shape"/><feGaussianBlur result="effect1_foregroundBlur_20020_4311" stdDeviation=".5"/></filter><filter id="c" color-interpolation-filters="sRGB" filterUnits="userSpaceOnUse" height="7.65662" width="6.85138" x="9.69861" y="3.36121"><feFlood flood-opacity="0" result="BackgroundImageFix"/><feBlend in="SourceGraphic" in2="BackgroundImageFix" mode="normal" result="shape"/><feGaussianBlur result="effect1_foregroundBlur_20020_4311" stdDeviation=".5"/></filter><filter id="d" color-interpolation-filters="sRGB" filterUnits="userSpaceOnUse" height="3.10767" width="2.91345" x="8.38281" y="5.17188"><feFlood flood-opacity="0" result="BackgroundImageFix"/><feBlend in="SourceGraphic" in2="BackgroundImageFix" mode="normal" result="shape"/><feGaussianBlur result="effect1_foregroundBlur_20020_4311" stdDeviation=".25"/></filter><filter id="e" color-interpolation-filters="sRGB" filterUnits="userSpaceOnUse" height="12.9154" width="12.9154" x="17.5669" y="13.5142"><feFlood flood-opacity="0" result="BackgroundImageFix"/><feBlend in="SourceGraphic" in2="BackgroundImageFix" mode="normal" result="shape"/><feGaussianBlur result="effect1_foregroundBlur_20020_4311" stdDeviation="1"/></filter><filter id="f" color-interpolation-filters="sRGB" filterUnits="userSpaceOnUse" height="19.0297" width="8.93811" x="4.81158" y="10.2374"><feFlood flood-opacity="0" result="BackgroundImageFix"/><feBlend in="SourceGraphic" in2="BackgroundImageFix" mode="normal" result="shape"/><feGaussianBlur result="effect1_foregroundBlur_20020_4311" stdDeviation=".75"/></filter><radialGradient id="g" cx="0" cy="0" gradientTransform="matrix(-8.44171146 3.7901372 -3.64234121 -8.11252785 27.018 20.1872)" gradientUnits="userSpaceOnUse" r="1"><stop offset="0" stop-color="#a07460"/><stop offset="1" stop-color="#794e46"/></radialGradient><linearGradient id="h" gradientUnits="userSpaceOnUse" x1="16" x2="16" y1="31.816" y2="23.5553"><stop offset="0" stop-color="#7e4372"/><stop offset="1" stop-color="#7e4372" stop-opacity="0"/></linearGradient><radialGradient id="i" cx="0" cy="0" gradientTransform="matrix(0 -2.59496 1.38168 0 13.4681 18.5074)" gradientUnits="userSpaceOnUse" r="1"><stop offset="0" stop-color="#5f453e"/><stop offset="1" stop-color="#5f453e" stop-opacity="0"/></radialGradient><radialGradient id="j" cx="0" cy="0" gradientTransform="matrix(-1.13246478 .17058187 -.5112645 -3.39420038 8.9375 11.5313)" gradientUnits="userSpaceOnUse" r="1"><stop offset="0" stop-color="#613a34"/><stop offset="1" stop-color="#613a34" stop-opacity="0"/></radialGradient><radialGradient id="k" cx="0" cy="0" gradientTransform="matrix(-15.59592857 3.98260029 -5.62676765 -22.03451511 17.6902 23.1871)" gradientUnits="userSpaceOnUse" r="1"><stop offset=".84569" stop-color="#87645c" stop-opacity="0"/><stop offset=".969063" stop-color="#87645c"/></radialGradient><radialGradient id="l" cx="0" cy="0" gradientTransform="matrix(-3.49997786 9.62499483 -2.97271898 -1.08098246 13.0937 10.9062)" gradientUnits="userSpaceOnUse" r="1"><stop offset="0" stop-color="#a07b6d"/><stop offset="1" stop-color="#a07b6d" stop-opacity="0"/></radialGradient><linearGradient id="m" gradientUnits="userSpaceOnUse" x1="8.40564" x2="17.3346" y1="9.62496" y2="7.1895"><stop offset="0" stop-color="#785349"/><stop offset="1" stop-color="#97705f"/></linearGradient><radialGradient id="n" cx="0" cy="0" gradientTransform="matrix(6.12188849 -3.56249496 4.39212926 7.54755471 10.0931 9.71871)" gradientUnits="userSpaceOnUse" r="1"><stop offset=".789681" stop-color="#9f7a69" stop-opacity="0"/><stop offset="1" stop-color="#9f7a69"/></radialGradient><radialGradient id="o" cx="0" cy="0" gradientTransform="matrix(-2.96747557 -4.61611319 6.55291472 -4.21255146 11.464 8.39057)" gradientUnits="userSpaceOnUse" r="1"><stop offset=".742479" stop-color="#75564a" stop-opacity="0"/><stop offset="1" stop-color="#75564a"/></radialGradient><linearGradient id="p" gradientUnits="userSpaceOnUse" x1="13.1198" x2="13.1198" y1="19.9869" y2="29.232"><stop offset="0" stop-color="#7d584a"/><stop offset="1" stop-color="#7d584a" stop-opacity="0"/></linearGradient><radialGradient id="q" cx="0" cy="0" gradientTransform="matrix(1.8125013 1.21874947 -2.41976579 3.59863019 10.4166 20.7344)" gradientUnits="userSpaceOnUse" r="1"><stop offset="0" stop-color="#9b766c"/><stop offset="1" stop-color="#9b766c" stop-opacity="0"/></radialGradient><radialGradient id="r" cx="0" cy="0" gradientTransform="matrix(-1.57195122 1.14603442 -4.87461689 -6.68623896 16.6136 21.9633)" gradientUnits="userSpaceOnUse" r="1"><stop offset=".23109" stop-color="#623c31"/><stop offset="1" stop-color="#623c31" stop-opacity="0"/></radialGradient><linearGradient id="s" gradientUnits="userSpaceOnUse" x1="14.812" x2="11.0035" y1="7.56053" y2="5.88415"><stop offset="0" stop-color="#a77e71"/><stop offset="1" stop-color="#a77e71" stop-opacity="0"/></linearGradient><linearGradient id="t" gradientUnits="userSpaceOnUse" x1="8.68689" x2="14.4369" y1="10.25" y2="10.25"><stop offset="0" stop-color="#775248"/><stop offset="1" stop-color="#916b5a"/></linearGradient><linearGradient id="u" gradientUnits="userSpaceOnUse" x1="10.7377" x2="10.7377" y1="12.4673" y2="9.4693"><stop offset="0" stop-color="#653840"/><stop offset="1" stop-color="#653840" stop-opacity="0"/></linearGradient><radialGradient id="v" cx="0" cy="0" gradientTransform="matrix(-1.18749513 1.09375689 -.95458226 -1.03639282 13.8431 9.53125)" gradientUnits="userSpaceOnUse" r="1"><stop offset="0" stop-color="#a07d72"/><stop offset="1" stop-color="#a07d72" stop-opacity="0"/></radialGradient><radialGradient id="w" cx="0" cy="0" gradientTransform="matrix(-8.91406 0 0 -7.03626 15.1947 9.77735)" gradientUnits="userSpaceOnUse" r="1"><stop offset=".90282" stop-color="#7d5952" stop-opacity="0"/><stop offset="1" stop-color="#7d5952"/></radialGradient><radialGradient id="x" cx="0" cy="0" gradientTransform="matrix(0 -1.21213 1.47114 0 11.4922 7.92456)" gradientUnits="userSpaceOnUse" r="1"><stop offset="0" stop-color="#391a13"/><stop offset="1" stop-color="#5a3227" stop-opacity="0"/></radialGradient><linearGradient id="y" gradientUnits="userSpaceOnUse" x1="10.39" x2="9.85631" y1="6.75" y2="7.98068"><stop offset="0" stop-color="#8d6f67"/><stop offset="1" stop-color="#8d6f67" stop-opacity="0"/></linearGradient><radialGradient id="z" cx="0" cy="0" gradientTransform="matrix(-6.42743059 3.73199864 -1.48346687 -2.55489921 26.9274 18.4169)" gradientUnits="userSpaceOnUse" r="1"><stop offset="0" stop-color="#a88174"/><stop offset="1" stop-color="#a88174" stop-opacity="0"/></radialGradient><radialGradient id="A" cx="0" cy="0" gradientTransform="matrix(-3.12907095 -14.72112139 5.13472714 -1.09141995 11.1475 21.6937)" gradientUnits="userSpaceOnUse" r="1"><stop offset="0" stop-color="#9e7970"/><stop offset="1" stop-color="#9e7970" stop-opacity="0"/></radialGradient><g filter="url(#a)"><path d="m7.96785 8.6875h-1.64063l-3.74969 11.1875c-1.734376 5.9062 1.39905 9.9688 6.21924 9.9688h12.82733c4.5837-.0584 8.2816-3.7931 8.2816-8.3907 0-4.634-3.7566-8.3906-8.3907-8.3906-3.6406 0-6.7396 2.3186-7.901 5.5597-.0339.0946-.1229.159-.2234.159-.087 0-.1668-.0483-.2071-.1254z" fill="url(#g)"/></g><path d="m7.96785 8.6875h-1.64063l-3.74969 11.1875c-1.734376 5.9062 1.39905 9.9688 6.21924 9.9688h12.82733c4.5837-.0584 8.2816-3.7931 8.2816-8.3907 0-4.634-3.7566-8.3906-8.3907-8.3906-3.6406 0-6.7396 2.3186-7.901 5.5597-.0339.0946-.1229.159-.2234.159-.087 0-.1668-.0483-.2071-.1254z" fill="url(#h)"/><path d="m7.96785 8.6875h-1.64063l-3.74969 11.1875c-1.734376 5.9062 1.39905 9.9688 6.21924 9.9688h12.82733c4.5837-.0584 8.2816-3.7931 8.2816-8.3907 0-4.634-3.7566-8.3906-8.3907-8.3906-3.6406 0-6.7396 2.3186-7.901 5.5597-.0339.0946-.1229.159-.2234.159-.087 0-.1668-.0483-.2071-.1254z" fill="url(#i)"/><path d="m7.96785 8.6875h-1.64063l-3.74969 11.1875c-1.734376 5.9062 1.39905 9.9688 6.21924 9.9688h12.82733c4.5837-.0584 8.2816-3.7931 8.2816-8.3907 0-4.634-3.7566-8.3906-8.3907-8.3906-3.6406 0-6.7396 2.3186-7.901 5.5597-.0339.0946-.1229.159-.2234.159-.087 0-.1668-.0483-.2071-.1254z" fill="url(#j)"/><path d="m7.96785 8.6875h-1.64063l-3.74969 11.1875c-1.734376 5.9062 1.39905 9.9688 6.21924 9.9688h12.82733c4.5837-.0584 8.2816-3.7931 8.2816-8.3907 0-4.634-3.7566-8.3906-8.3907-8.3906-3.6406 0-6.7396 2.3186-7.901 5.5597-.0339.0946-.1229.159-.2234.159-.087 0-.1668-.0483-.2071-.1254z" fill="url(#k)"/><path d="m7.96785 8.6875h-1.64063l-3.74969 11.1875c-1.734376 5.9062 1.39905 9.9688 6.21924 9.9688h12.82733c4.5837-.0584 8.2816-3.7931 8.2816-8.3907 0-4.634-3.7566-8.3906-8.3907-8.3906-3.6406 0-6.7396 2.3186-7.901 5.5597-.0339.0946-.1229.159-.2234.159-.087 0-.1668-.0483-.2071-.1254z" fill="url(#l)"/><path d="m7.3197 5.88278-1.02344 2.89453.49857.96233c.34578.68656 1.04891 1.11966 1.81763 1.11966h4.94064c1.0163 0 1.9314-.6152 2.3151-1.55625l.0871-.21368c.7128-1.74854-.0899-3.74727-1.8141-4.5171l-1.7746-.75199c-2.1719-.80469-4.28218.0473-5.0469 2.0625z" fill="url(#m)"/><path d="m7.3197 5.88278-1.02344 2.89453.49857.96233c.34578.68656 1.04891 1.11966 1.81763 1.11966h4.94064c1.0163 0 1.9314-.6152 2.3151-1.55625l.0871-.21368c.7128-1.74854-.0899-3.74727-1.8141-4.5171l-1.7746-.75199c-2.1719-.80469-4.28218.0473-5.0469 2.0625z" fill="url(#n)"/><path d="m7.3197 5.88278-1.02344 2.89453.49857.96233c.34578.68656 1.04891 1.11966 1.81763 1.11966h4.94064c1.0163 0 1.9314-.6152 2.3151-1.55625l.0871-.21368c.7128-1.74854-.0899-3.74727-1.8141-4.5171l-1.7746-.75199c-2.1719-.80469-4.28218.0473-5.0469 2.0625z" fill="url(#o)"/><g filter="url(#b)"><path d="m12.8698 19.2656-6.62505 8.7188h13.78125l-6.1294-8.7188z" fill="url(#p)"/><path d="m12.8698 19.2656-6.62505 8.7188h13.78125l-6.1294-8.7188z" fill="url(#q)"/><path d="m12.8698 19.2656-6.62505 8.7188h13.78125l-6.1294-8.7188z" fill="url(#r)"/></g><g filter="url(#c)"><path d="m11.4488 5.11145 2.3836.98438c.4016.14842.9089.67968.9636 1.46093.0576.82191-.5239 1.48393-.8906 1.71094" stroke="url(#s)" stroke-linecap="round" stroke-width="1.5"/></g><rect fill="url(#t)" height="4.07031" rx="2.03516" width="8.91406" x="6.28064" y="7.74219"/><rect fill="url(#u)" height="4.07031" rx="2.03516" width="8.91406" x="6.28064" y="7.74219"/><rect fill="url(#v)" height="4.07031" rx="2.03516" width="8.91406" x="6.28064" y="7.74219"/><rect fill="url(#w)" height="4.07031" rx="2.03516" width="8.91406" x="6.28064" y="7.74219"/><path d="m10.6531 5.85254-.6527 1.92051h3.7503z" fill="url(#x)"/><g filter="url(#d)"><path d="m9.40564 5.67188 1.39066 1.04687v1.06075h-1.91349z" fill="url(#y)"/></g><g filter="url(#e)"><circle cx="24.0246" cy="19.9719" fill="url(#z)" r="4.45772"/></g><g filter="url(#f)"><path d="m8.51603 11.7374c-.49764 3.7692-2.20444 15.859-2.20443 16.0297l5.9381-8.4913z" fill="url(#A)"/></g></svg>