<svg fill="none" height="32" viewBox="0 0 32 32" width="32" xmlns="http://www.w3.org/2000/svg" xmlns:xlink="http://www.w3.org/1999/xlink"><filter id="a" color-interpolation-filters="sRGB" filterUnits="userSpaceOnUse" height="6.27188" width="2.7875" x="14.0125" y="18.7831"><feFlood flood-opacity="0" result="BackgroundImageFix"/><feBlend in="SourceGraphic" in2="BackgroundImageFix" mode="normal" result="shape"/><feGaussianBlur result="effect1_foregroundBlur_28327_3592" stdDeviation=".4"/></filter><filter id="b" color-interpolation-filters="sRGB" filterUnits="userSpaceOnUse" height="12.28" width="15.91" x="1.64062" y="9.33875"><feFlood flood-opacity="0" result="BackgroundImageFix"/><feBlend in="SourceGraphic" in2="BackgroundImageFix" mode="normal" result="shape"/><feColorMatrix in="SourceAlpha" result="hardAlpha" type="matrix" values="0 0 0 0 0 0 0 0 0 0 0 0 0 0 0 0 0 0 127 0"/><feOffset dx=".2" dy=".2"/><feGaussianBlur stdDeviation=".5"/><feComposite in2="hardAlpha" k2="-1" k3="1" operator="arithmetic"/><feColorMatrix type="matrix" values="0 0 0 0 0.636111 0 0 0 0 0.642222 0 0 0 0 0.666667 0 0 0 1 0"/><feBlend in2="shape" mode="normal" result="effect1_innerShadow_28327_3592"/></filter><filter id="c" color-interpolation-filters="sRGB" filterUnits="userSpaceOnUse" height="6.04358" width="4.1875" x="9.95312" y="9.27393"><feFlood flood-opacity="0" result="BackgroundImageFix"/><feBlend in="SourceGraphic" in2="BackgroundImageFix" mode="normal" result="shape"/><feGaussianBlur result="effect1_foregroundBlur_28327_3592" stdDeviation=".5"/></filter><filter id="d" color-interpolation-filters="sRGB" filterUnits="userSpaceOnUse" height="2.80469" width="1.8988" x="6.85089" y="11.4425"><feFlood flood-opacity="0" result="BackgroundImageFix"/><feBlend in="SourceGraphic" in2="BackgroundImageFix" mode="normal" result="shape"/><feGaussianBlur result="effect1_foregroundBlur_28327_3592" stdDeviation=".25"/></filter><filter id="e" color-interpolation-filters="sRGB" filterUnits="userSpaceOnUse" height="2.80469" width="1.8988" x="9.88214" y="11.4425"><feFlood flood-opacity="0" result="BackgroundImageFix"/><feBlend in="SourceGraphic" in2="BackgroundImageFix" mode="normal" result="shape"/><feGaussianBlur result="effect1_foregroundBlur_28327_3592" stdDeviation=".25"/></filter><filter id="f" color-interpolation-filters="sRGB" filterUnits="userSpaceOnUse" height="10.0085" width="9.98016" x="19.6625" y="7.83777"><feFlood flood-opacity="0" result="BackgroundImageFix"/><feBlend in="SourceGraphic" in2="BackgroundImageFix" mode="normal" result="shape"/><feGaussianBlur result="effect1_foregroundBlur_28327_3592" stdDeviation=".5"/></filter><filter id="g" color-interpolation-filters="sRGB" filterUnits="userSpaceOnUse" height="6.70938" width="2.06875" x="25.8875" y="18.3925"><feFlood flood-opacity="0" result="BackgroundImageFix"/><feBlend in="SourceGraphic" in2="BackgroundImageFix" mode="normal" result="shape"/><feGaussianBlur result="effect1_foregroundBlur_28327_3592" stdDeviation=".4"/></filter><filter id="h" color-interpolation-filters="sRGB" filterUnits="userSpaceOnUse" height="13.7982" width="9.25" x="21.6094" y="12.0988"><feFlood flood-opacity="0" result="BackgroundImageFix"/><feBlend in="SourceGraphic" in2="BackgroundImageFix" mode="normal" result="shape"/><feGaussianBlur result="effect1_foregroundBlur_28327_3592" stdDeviation="1"/></filter><filter id="i" color-interpolation-filters="sRGB" filterUnits="userSpaceOnUse" height="2.62278" width="2.47794" x="10.7594" y="22.4276"><feFlood flood-opacity="0" result="BackgroundImageFix"/><feBlend in="SourceGraphic" in2="BackgroundImageFix" mode="normal" result="shape"/><feGaussianBlur result="effect1_foregroundBlur_28327_3592" stdDeviation=".35"/></filter><filter id="j" color-interpolation-filters="sRGB" filterUnits="userSpaceOnUse" height="2.43115" width=".650024" x="29.0031" y="19.7894"><feFlood flood-opacity="0" result="BackgroundImageFix"/><feBlend in="SourceGraphic" in2="BackgroundImageFix" mode="normal" result="shape"/><feGaussianBlur result="effect1_foregroundBlur_28327_3592" stdDeviation=".125"/></filter><linearGradient id="k"><stop offset="0" stop-color="#2a2233"/><stop offset="1" stop-color="#433851"/></linearGradient><linearGradient id="l" gradientUnits="userSpaceOnUse" x1="8.75001" x2="8.75001" xlink:href="#k" y1="18.4738" y2="24.1613"/><linearGradient id="m"><stop offset="0" stop-color="#62487a" stop-opacity="0"/><stop offset="1" stop-color="#62487a"/></linearGradient><linearGradient id="n" gradientUnits="userSpaceOnUse" x1="8.75001" x2="8.75001" xlink:href="#m" y1="23.6642" y2="25.6613"/><linearGradient id="o"><stop offset="0" stop-color="#848485"/><stop offset=".724319" stop-color="#848485" stop-opacity="0"/></linearGradient><linearGradient id="p" gradientUnits="userSpaceOnUse" x1="4.75002" x2="6.20314" xlink:href="#o" y1="22.5363" y2="23.3019"/><linearGradient id="q" gradientUnits="userSpaceOnUse" x1="19.75" x2="18.9219" xlink:href="#k" y1="19.38" y2="23.1613"/><linearGradient id="r" gradientUnits="userSpaceOnUse" x1="19.75" x2="19.75" xlink:href="#m" y1="23.6642" y2="25.6613"/><linearGradient id="s" gradientUnits="userSpaceOnUse" x1="14.9844" x2="17.2031" xlink:href="#o" y1="22.2863" y2="23.3019"/><radialGradient id="t" cx="0" cy="0" gradientTransform="matrix(-5.06252157 4.56247638 -7.76924037 -8.62074533 30.8906 7.84875)" gradientUnits="userSpaceOnUse" r="1"><stop offset="0" stop-color="#838487"/><stop offset="1" stop-color="#838487" stop-opacity="0"/></radialGradient><linearGradient id="u"><stop offset="0" stop-color="#4d425b"/><stop offset="1" stop-color="#4d425b" stop-opacity="0"/></linearGradient><radialGradient id="v" cx="0" cy="0" gradientTransform="matrix(0 -2.46875 .671873 0 28.1406 22.2238)" gradientUnits="userSpaceOnUse" r="1" xlink:href="#u"/><radialGradient id="w" cx="0" cy="0" gradientTransform="matrix(-.49999826 -3.3124969 1.17735325 -.17771325 28.7344 22.9113)" gradientUnits="userSpaceOnUse" r="1" xlink:href="#u"/><linearGradient id="x"><stop offset="0" stop-color="#5d5d60"/><stop offset="1" stop-color="#5d5d60" stop-opacity="0"/></linearGradient><radialGradient id="y" cx="0" cy="0" gradientTransform="matrix(2.18749787 -1.7812461 2.20141582 2.7034964 13.7031 13.6925)" gradientUnits="userSpaceOnUse" r="1" xlink:href="#x"/><radialGradient id="z" cx="0" cy="0" gradientTransform="matrix(.76562478 -1.74999764 1.27049013 .55584002 11.5469 9.83313)" gradientUnits="userSpaceOnUse" r="1" xlink:href="#x"/><linearGradient id="A"><stop offset="0" stop-color="#47474e"/><stop offset="1" stop-color="#47474e" stop-opacity="0"/></linearGradient><radialGradient id="B" cx="0" cy="0" gradientTransform="matrix(-2.81249286 2.06250701 -.97244216 -1.32604962 12.75 21.13)" gradientUnits="userSpaceOnUse" r="1" xlink:href="#A"/><radialGradient id="C" cx="0" cy="0" gradientTransform="matrix(2.62499826 -.71874862 1.1573891 4.22699159 11.1406 22.5988)" gradientUnits="userSpaceOnUse" r="1" xlink:href="#A"/><linearGradient id="D" gradientUnits="userSpaceOnUse" x1="11.2656" x2="11.2656" y1="25.9113" y2="16.7863"><stop offset="0" stop-color="#525257"/><stop offset="1" stop-color="#525257" stop-opacity="0"/></linearGradient><linearGradient id="E" gradientUnits="userSpaceOnUse" x1="19.1456" x2="19.1456" xlink:href="#m" y1="23.3488" y2="25.9113"/><linearGradient id="F"><stop offset="0" stop-color="#62487a"/><stop offset="1" stop-color="#62487a" stop-opacity="0"/></linearGradient><radialGradient id="G" cx="0" cy="0" gradientTransform="matrix(-1.4687761 -3.18748476 2.1546431 -.99284813 21.5781 22.1925)" gradientUnits="userSpaceOnUse" r="1" xlink:href="#F"/><linearGradient id="H"><stop offset="0" stop-color="#8d8e91"/><stop offset="1" stop-color="#8d8e91" stop-opacity="0"/></linearGradient><linearGradient id="I" gradientUnits="userSpaceOnUse" x1="20.9406" x2="20.9406" xlink:href="#H" y1="23.8407" y2="18.9259"/><linearGradient id="J" gradientUnits="userSpaceOnUse" x1="15.8906" x2="25.0781" y1="21.0951" y2="21.0951"><stop offset="0" stop-color="#c06e84"/><stop offset="1" stop-color="#e9877a" stop-opacity="0"/></linearGradient><linearGradient id="K" gradientUnits="userSpaceOnUse" x1="16.4219" x2="17.3594" y1="22.3388" y2="22.3388"><stop offset="0" stop-color="#e08d95"/><stop offset="1" stop-color="#e08d95" stop-opacity="0"/></linearGradient><linearGradient id="L" gradientUnits="userSpaceOnUse" x1="19.6406" x2="19.6406" y1="21.5206" y2="23.3488"><stop offset="0" stop-color="#a5517f" stop-opacity="0"/><stop offset=".752137" stop-color="#a5517f"/></linearGradient><radialGradient id="M" cx="0" cy="0" gradientTransform="matrix(-4.00000789 -1.21872773 .79936974 -2.6236256 23.2031 22.755)" gradientUnits="userSpaceOnUse" r="1" xlink:href="#F"/><linearGradient id="N"><stop offset="0" stop-color="#616264"/><stop offset="1" stop-color="#767779"/></linearGradient><linearGradient id="O" gradientUnits="userSpaceOnUse" x1="10.7969" x2="10.7969" xlink:href="#N" y1="9.005" y2="6.66125"/><linearGradient id="P"><stop offset="0" stop-color="#919193"/><stop offset="1" stop-color="#919193" stop-opacity="0"/></linearGradient><linearGradient id="Q" gradientUnits="userSpaceOnUse" x1="10.4844" x2="10.8906" xlink:href="#P" y1="8.45813" y2="8.45813"/><linearGradient id="R"><stop offset="0" stop-color="#e7958a"/><stop offset="1" stop-color="#bd5750"/></linearGradient><radialGradient id="S" cx="0" cy="0" gradientTransform="matrix(0 2.10938 -1.04688 0 11.3281 8.11434)" gradientUnits="userSpaceOnUse" r="1" xlink:href="#R"/><linearGradient id="T" gradientUnits="userSpaceOnUse" x1="6.95178" x2="6.95178" xlink:href="#N" y1="9.005" y2="6.66125"/><radialGradient id="U" cx="0" cy="0" gradientTransform="matrix(-.79687719 .21093094 -.43266224 -1.63455716 8.74219 7.59094)" gradientUnits="userSpaceOnUse" r="1" xlink:href="#P"/><radialGradient id="V" cx="0" cy="0" gradientTransform="matrix(-.740305 0 0 -2.05319 8 8.73934)" gradientUnits="userSpaceOnUse" r="1" xlink:href="#R"/><linearGradient id="W" gradientUnits="userSpaceOnUse" x1="9.49563" x2="9.49563" y1="16.0987" y2="21.4187"><stop offset="0" stop-color="#68696c"/><stop offset="1" stop-color="#534e5d"/></linearGradient><linearGradient id="X" gradientUnits="userSpaceOnUse" x1="9.49563" x2="9.49563" xlink:href="#m" y1="19.255" y2="21.7237"/><linearGradient id="Y" gradientUnits="userSpaceOnUse" x1="9.49563" x2="9.49563" y1="20.7237" y2="21.7862"><stop offset=".382353" stop-color="#8261a0" stop-opacity="0"/><stop offset="1" stop-color="#8261a0"/></linearGradient><linearGradient id="Z"><stop offset="0" stop-color="#8a8b8f"/><stop offset=".862869" stop-color="#8a8b8f" stop-opacity="0"/></linearGradient><radialGradient id="aa" cx="0" cy="0" gradientTransform="matrix(-1.71874902 1.59375352 -1.65027019 -1.77969819 14.9219 15.7237)" gradientUnits="userSpaceOnUse" r="1" xlink:href="#Z"/><radialGradient id="ab" cx="0" cy="0" gradientTransform="matrix(1.96875038 2.2812539 -1.30141064 1.12313351 4.39062 11.9112)" gradientUnits="userSpaceOnUse" r="1" xlink:href="#Z"/><radialGradient id="ac" cx="0" cy="0" gradientTransform="matrix(3.37500372 3.59374995 -1.84892883 1.73638727 4.51563 10.4425)" gradientUnits="userSpaceOnUse" r="1"><stop offset="0" stop-color="#4d4d55"/><stop offset="1" stop-color="#4d4d55" stop-opacity="0"/></radialGradient><linearGradient id="ad" gradientUnits="userSpaceOnUse" x1="12.0469" x2="12.0469" y1="10.5988" y2="17.38"><stop offset="0" stop-color="#8a8b8f"/><stop offset=".0001" stop-color="#8a8b8f"/><stop offset="1" stop-color="#8a8b8f" stop-opacity="0"/></linearGradient><radialGradient id="ae" cx="9.49562" cy="13.5362" gradientUnits="userSpaceOnUse" r="7.645"><stop offset=".0271422" stop-color="#e9877a" stop-opacity="0"/><stop offset="1" stop-color="#e9877a"/></radialGradient><linearGradient id="af" gradientUnits="userSpaceOnUse" x1="9.82812" x2="9.84375" y1="20.1612" y2="18.1925"><stop offset="0" stop-color="#dc8490"/><stop offset="1" stop-color="#dc8490" stop-opacity="0"/></linearGradient><radialGradient id="ag" cx="0" cy="0" gradientTransform="matrix(-2.9375 0 0 -2.12905 16.6406 16.5887)" gradientUnits="userSpaceOnUse" r="1"><stop offset="0" stop-color="#f2aaa3"/><stop offset="1" stop-color="#f2aaa3" stop-opacity="0"/></radialGradient><radialGradient id="ah" cx="0" cy="0" gradientTransform="matrix(.92187309 .9999974 -.64255213 .59235306 6.10939 16.0363)" gradientUnits="userSpaceOnUse" r="1"><stop offset="0" stop-color="#815a57"/><stop offset=".965208" stop-color="#402d2b"/></radialGradient><linearGradient id="ai" gradientUnits="userSpaceOnUse" x1="7.07814" x2="6.70314" y1="16.6456" y2="14.505"><stop offset="0" stop-color="#864d54" stop-opacity="0"/><stop offset="1" stop-color="#864d54"/></linearGradient><radialGradient id="aj" cx="0" cy="0" gradientTransform="matrix(2.40625211 -1.51625402 1.04640202 1.66061032 11.2344 17.005)" gradientUnits="userSpaceOnUse" r="1"><stop offset="0" stop-color="#815a57"/><stop offset=".419652" stop-color="#402d2b"/></radialGradient><radialGradient id="ak" cx="0" cy="0" gradientTransform="matrix(.16937284 1.73437947 -1.58997641 .15527099 12.2812 15.1613)" gradientUnits="userSpaceOnUse" r="1"><stop offset="0" stop-color="#9b5961"/><stop offset=".877085" stop-color="#864d54" stop-opacity="0"/></radialGradient><linearGradient id="al"><stop offset=".225" stop-color="#594c4f"/><stop offset="1" stop-color="#392833"/></linearGradient><linearGradient id="am" gradientUnits="userSpaceOnUse" x1="8.51123" x2="7.93237" xlink:href="#al" y1="12.8448" y2="12.8448"/><linearGradient id="an"><stop offset="0" stop-color="#552d52"/><stop offset="1" stop-color="#552d52" stop-opacity="0"/></linearGradient><linearGradient id="ao" gradientUnits="userSpaceOnUse" x1="8.66748" x2="8.66748" xlink:href="#an" y1="14.0206" y2="13.3019"/><linearGradient id="ap"><stop offset=".813951" stop-color="#594c4f" stop-opacity="0"/><stop offset="1" stop-color="#594c4f"/></linearGradient><radialGradient id="aq" cx="0" cy="0" gradientTransform="matrix(-.3857338 -1.09449681 1.06073235 -.37383418 8.20581 12.9651)" gradientUnits="userSpaceOnUse" r="1" xlink:href="#ap"/><linearGradient id="ar" gradientUnits="userSpaceOnUse" x1="11.48" x2="10.9011" xlink:href="#al" y1="12.8448" y2="12.8448"/><linearGradient id="as" gradientUnits="userSpaceOnUse" x1="11.6362" x2="11.6362" xlink:href="#an" y1="14.0206" y2="13.3019"/><radialGradient id="at" cx="0" cy="0" gradientTransform="matrix(-.3857338 -1.09449681 1.06073235 -.37383418 11.1746 12.9651)" gradientUnits="userSpaceOnUse" r="1" xlink:href="#ap"/><radialGradient id="au" cx="0" cy="0" gradientTransform="matrix(.40683776 4.19302908 -5.1685977 .50149443 24.7706 11.4668)" gradientUnits="userSpaceOnUse" r="1"><stop offset="0" stop-color="#8d8e91"/><stop offset=".795753" stop-color="#8d8e91" stop-opacity="0"/></radialGradient><linearGradient id="av" gradientUnits="userSpaceOnUse" x1="28.6094" x2="28.6094" xlink:href="#H" y1="23.8488" y2="18.4738"/><linearGradient id="aw" gradientUnits="userSpaceOnUse" x1="26.2344" x2="26.2344" xlink:href="#H" y1="15.5988" y2="25.3488"/><linearGradient id="ax" gradientUnits="userSpaceOnUse" x1="11.4844" x2="12.6094" xlink:href="#H" y1="24.3019" y2="23.38"/><linearGradient id="ay" gradientUnits="userSpaceOnUse" x1="29.4844" x2="29.4844" y1="21.7706" y2="19.755"><stop offset="0" stop-color="#8a8b8f"/><stop offset="1" stop-color="#8a8b8f" stop-opacity="0"/></linearGradient><path d="m12.6406 16.8488h-4.99995l-2.75 7.32c-.12.33.12.68.47.68h3.93c.21 0 .39-.13.47-.32z" fill="url(#l)"/><path d="m12.6406 16.8488h-4.99995l-2.75 7.32c-.12.33.12.68.47.68h3.93c.21 0 .39-.13.47-.32z" fill="url(#n)"/><path d="m12.6406 16.8488h-4.99995l-2.75 7.32c-.12.33.12.68.47.68h3.93c.21 0 .39-.13.47-.32z" fill="url(#p)"/><path d="m23.6406 16.8488h-5l-2.75 7.32c-.12.33.12.68.47.68h3.93c.21 0 .39-.13.47-.32z" fill="url(#q)"/><path d="m23.6406 16.8488h-5l-2.75 7.32c-.12.33.12.68.47.68h3.93c.21 0 .39-.13.47-.32z" fill="url(#r)"/><path d="m23.6406 16.8488h-5l-2.75 7.32c-.12.33.12.68.47.68h3.93c.21 0 .39-.13.47-.32z" fill="url(#s)"/><path d="m22.0006 7.84875c3.21 0 5.51 1.07 6.83 3.50005.52.94.81 2.03.82 3.18v3.73c0 .0969-.0034.1931-.01.2883v3.2917c0 .28-.22.5-.5.5s-.5-.22-.5-.5v-.888c-.2862.3272-.6237.6083-1 .8309v2.5671c0 .28-.22.5-.5.5h-4.69c-.37 0-.61-.39-.45-.72l.3-.59c.1819-.372.2954-.778.3293-1.19h-5.9893v2c0 .28-.22.5-.5.5h-4.78c-.38 0-.62-.41-.43-.75l.28-.5c.28-.49.43-1.05.43-1.62v-1.6282c-.9466-.4383-1.97327-.7157-2.99998-.9318v-7.6c0-2.19005 1.77998-3.97005 3.96998-3.97005z" fill="#6f7073"/><path d="m22.0006 7.84875c3.21 0 5.51 1.07 6.83 3.50005.52.94.81 2.03.82 3.18v3.73c0 .0969-.0034.1931-.01.2883v3.2917c0 .28-.22.5-.5.5s-.5-.22-.5-.5v-.888c-.2862.3272-.6237.6083-1 .8309v2.5671c0 .28-.22.5-.5.5h-4.69c-.37 0-.61-.39-.45-.72l.3-.59c.1819-.372.2954-.778.3293-1.19h-5.9893v2c0 .28-.22.5-.5.5h-4.78c-.38 0-.62-.41-.43-.75l.28-.5c.28-.49.43-1.05.43-1.62v-1.6282c-.9466-.4383-1.97327-.7157-2.99998-.9318v-7.6c0-2.19005 1.77998-3.97005 3.96998-3.97005z" fill="url(#t)"/><path d="m22.0006 7.84875c3.21 0 5.51 1.07 6.83 3.50005.52.94.81 2.03.82 3.18v3.73c0 .0969-.0034.1931-.01.2883v3.2917c0 .28-.22.5-.5.5s-.5-.22-.5-.5v-.888c-.2862.3272-.6237.6083-1 .8309v2.5671c0 .28-.22.5-.5.5h-4.69c-.37 0-.61-.39-.45-.72l.3-.59c.1819-.372.2954-.778.3293-1.19h-5.9893v2c0 .28-.22.5-.5.5h-4.78c-.38 0-.62-.41-.43-.75l.28-.5c.28-.49.43-1.05.43-1.62v-1.6282c-.9466-.4383-1.97327-.7157-2.99998-.9318v-7.6c0-2.19005 1.77998-3.97005 3.96998-3.97005z" fill="url(#v)"/><path d="m22.0006 7.84875c3.21 0 5.51 1.07 6.83 3.50005.52.94.81 2.03.82 3.18v3.73c0 .0969-.0034.1931-.01.2883v3.2917c0 .28-.22.5-.5.5s-.5-.22-.5-.5v-.888c-.2862.3272-.6237.6083-1 .8309v2.5671c0 .28-.22.5-.5.5h-4.69c-.37 0-.61-.39-.45-.72l.3-.59c.1819-.372.2954-.778.3293-1.19h-5.9893v2c0 .28-.22.5-.5.5h-4.78c-.38 0-.62-.41-.43-.75l.28-.5c.28-.49.43-1.05.43-1.62v-1.6282c-.9466-.4383-1.97327-.7157-2.99998-.9318v-7.6c0-2.19005 1.77998-3.97005 3.96998-3.97005z" fill="url(#w)"/><path d="m22.0006 7.84875c3.21 0 5.51 1.07 6.83 3.50005.52.94.81 2.03.82 3.18v3.73c0 .0969-.0034.1931-.01.2883v3.2917c0 .28-.22.5-.5.5s-.5-.22-.5-.5v-.888c-.2862.3272-.6237.6083-1 .8309v2.5671c0 .28-.22.5-.5.5h-4.69c-.37 0-.61-.39-.45-.72l.3-.59c.1819-.372.2954-.778.3293-1.19h-5.9893v2c0 .28-.22.5-.5.5h-4.78c-.38 0-.62-.41-.43-.75l.28-.5c.28-.49.43-1.05.43-1.62v-1.6282c-.9466-.4383-1.97327-.7157-2.99998-.9318v-7.6c0-2.19005 1.77998-3.97005 3.96998-3.97005z" fill="url(#y)"/><path d="m22.0006 7.84875c3.21 0 5.51 1.07 6.83 3.50005.52.94.81 2.03.82 3.18v3.73c0 .0969-.0034.1931-.01.2883v3.2917c0 .28-.22.5-.5.5s-.5-.22-.5-.5v-.888c-.2862.3272-.6237.6083-1 .8309v2.5671c0 .28-.22.5-.5.5h-4.69c-.37 0-.61-.39-.45-.72l.3-.59c.1819-.372.2954-.778.3293-1.19h-5.9893v2c0 .28-.22.5-.5.5h-4.78c-.38 0-.62-.41-.43-.75l.28-.5c.28-.49.43-1.05.43-1.62v-1.6282c-.9466-.4383-1.97327-.7157-2.99998-.9318v-7.6c0-2.19005 1.77998-3.97005 3.96998-3.97005z" fill="url(#z)"/><path d="m22.0006 7.84875c3.21 0 5.51 1.07 6.83 3.50005.52.94.81 2.03.82 3.18v3.73c0 .0969-.0034.1931-.01.2883v3.2917c0 .28-.22.5-.5.5s-.5-.22-.5-.5v-.888c-.2862.3272-.6237.6083-1 .8309v2.5671c0 .28-.22.5-.5.5h-4.69c-.37 0-.61-.39-.45-.72l.3-.59c.1819-.372.2954-.778.3293-1.19h-5.9893v2c0 .28-.22.5-.5.5h-4.78c-.38 0-.62-.41-.43-.75l.28-.5c.28-.49.43-1.05.43-1.62v-1.6282c-.9466-.4383-1.97327-.7157-2.99998-.9318v-7.6c0-2.19005 1.77998-3.97005 3.96998-3.97005z" fill="url(#B)"/><path d="m22.0006 7.84875c3.21 0 5.51 1.07 6.83 3.50005.52.94.81 2.03.82 3.18v3.73c0 .0969-.0034.1931-.01.2883v3.2917c0 .28-.22.5-.5.5s-.5-.22-.5-.5v-.888c-.2862.3272-.6237.6083-1 .8309v2.5671c0 .28-.22.5-.5.5h-4.69c-.37 0-.61-.39-.45-.72l.3-.59c.1819-.372.2954-.778.3293-1.19h-5.9893v2c0 .28-.22.5-.5.5h-4.78c-.38 0-.62-.41-.43-.75l.28-.5c.28-.49.43-1.05.43-1.62v-1.6282c-.9466-.4383-1.97327-.7157-2.99998-.9318v-7.6c0-2.19005 1.77998-3.97005 3.96998-3.97005z" fill="url(#C)"/><path d="m22.0006 7.84875c3.21 0 5.51 1.07 6.83 3.50005.52.94.81 2.03.82 3.18v3.73c0 .0969-.0034.1931-.01.2883v3.2917c0 .28-.22.5-.5.5s-.5-.22-.5-.5v-.888c-.2862.3272-.6237.6083-1 .8309v2.5671c0 .28-.22.5-.5.5h-4.69c-.37 0-.61-.39-.45-.72l.3-.59c.1819-.372.2954-.778.3293-1.19h-5.9893v2c0 .28-.22.5-.5.5h-4.78c-.38 0-.62-.41-.43-.75l.28-.5c.28-.49.43-1.05.43-1.62v-1.6282c-.9466-.4383-1.97327-.7157-2.99998-.9318v-7.6c0-2.19005 1.77998-3.97005 3.96998-3.97005z" fill="url(#D)"/><path d="m22.0006 7.84875c3.21 0 5.51 1.07 6.83 3.50005.52.94.81 2.03.82 3.18v3.73c0 .0969-.0034.1931-.01.2883v3.2917c0 .28-.22.5-.5.5s-.5-.22-.5-.5v-.888c-.2862.3272-.6237.6083-1 .8309v2.5671c0 .28-.22.5-.5.5h-4.69c-.37 0-.61-.39-.45-.72l.3-.59c.1819-.372.2954-.778.3293-1.19h-5.9893v2c0 .28-.22.5-.5.5h-4.78c-.38 0-.62-.41-.43-.75l.28-.5c.28-.49.43-1.05.43-1.62v-1.6282c-.9466-.4383-1.97327-.7157-2.99998-.9318v-7.6c0-2.19005 1.77998-3.97005 3.96998-3.97005z" fill="url(#E)"/><path d="m22.0006 7.84875c3.21 0 5.51 1.07 6.83 3.50005.52.94.81 2.03.82 3.18v3.73c0 .0969-.0034.1931-.01.2883v3.2917c0 .28-.22.5-.5.5s-.5-.22-.5-.5v-.888c-.2862.3272-.6237.6083-1 .8309v2.5671c0 .28-.22.5-.5.5h-4.69c-.37 0-.61-.39-.45-.72l.3-.59c.1819-.372.2954-.778.3293-1.19h-5.9893v2c0 .28-.22.5-.5.5h-4.78c-.38 0-.62-.41-.43-.75l.28-.5c.28-.49.43-1.05.43-1.62v-1.6282c-.9466-.4383-1.97327-.7157-2.99998-.9318v-7.6c0-2.19005 1.77998-3.97005 3.96998-3.97005z" fill="url(#G)"/><g filter="url(#a)"><path d="m16 19.5831v4.6719l-1.1875-4.0781z" fill="url(#I)"/></g><path d="m22.6406 21.7988c0-.61-.24-1.19-.67-1.62l-.33-.33h-5v2.49h6z" fill="url(#J)"/><path d="m22.6406 21.7988c0-.61-.24-1.19-.67-1.62l-.33-.33h-5v2.49h6z" fill="url(#K)"/><path d="m22.6406 21.7988c0-.61-.24-1.19-.67-1.62l-.33-.33h-5v2.49h6z" fill="url(#L)"/><path d="m22.6406 21.7988c0-.61-.24-1.19-.67-1.62l-.33-.33h-5v2.49h6z" fill="url(#M)"/><path d="m11.5606 6.84875c-.51 0-.92.41-.92.92v1.57h1.18l.56-1.14c.32-.62-.13-1.35-.82-1.35z" fill="url(#O)"/><path d="m11.5606 6.84875c-.51 0-.92.41-.92.92v1.57h1.18l.56-1.14c.32-.62-.13-1.35-.82-1.35z" fill="url(#Q)"/><path d="m12.4806 7.72872c-.03-.58-.91-.56-.92.02v.02 1.57h.26l.56-1.14c.08-.16.11-.32.1-.47z" fill="url(#S)"/><path d="m7.72063 6.84875c.51 0 .92.41.92.92v1.57h-1.18l-.56-1.14c-.32-.62.13-1.35.82-1.35z" fill="url(#T)"/><path d="m7.72063 6.84875c.51 0 .92.41.92.92v1.57h-1.18l-.56-1.14c-.32-.62.13-1.35.82-1.35z" fill="url(#U)"/><path d="m6.80062 7.72872c.03-.58.91-.56.92.02v.02 1.57h-.26l-.56-1.14c-.08-.16-.11-.32-.1-.47z" fill="url(#V)"/><g filter="url(#b)"><path d="m4.75171 13.1177c.28788-.0785.50891-.327.50891-.6254v-1.5836c0-.87.7-1.56995 1.57001-1.56995h5.31997c.87 0 1.57.69995 1.57 1.56995v1.5809c0 .299.2218.5478.5104.6258 1.7996.4864 3.1196 2.1277 3.1196 4.0833 0 2.33-1.9 4.22-4.23 4.22h-7.24998c-2.34 0-4.23-1.89-4.23-4.22 0-1.9525 1.31588-3.5917 3.11109-4.081z" fill="url(#W)"/><path d="m4.75171 13.1177c.28788-.0785.50891-.327.50891-.6254v-1.5836c0-.87.7-1.56995 1.57001-1.56995h5.31997c.87 0 1.57.69995 1.57 1.56995v1.5809c0 .299.2218.5478.5104.6258 1.7996.4864 3.1196 2.1277 3.1196 4.0833 0 2.33-1.9 4.22-4.23 4.22h-7.24998c-2.34 0-4.23-1.89-4.23-4.22 0-1.9525 1.31588-3.5917 3.11109-4.081z" fill="url(#X)"/><path d="m4.75171 13.1177c.28788-.0785.50891-.327.50891-.6254v-1.5836c0-.87.7-1.56995 1.57001-1.56995h5.31997c.87 0 1.57.69995 1.57 1.56995v1.5809c0 .299.2218.5478.5104.6258 1.7996.4864 3.1196 2.1277 3.1196 4.0833 0 2.33-1.9 4.22-4.23 4.22h-7.24998c-2.34 0-4.23-1.89-4.23-4.22 0-1.9525 1.31588-3.5917 3.11109-4.081z" fill="url(#Y)"/><path d="m4.75171 13.1177c.28788-.0785.50891-.327.50891-.6254v-1.5836c0-.87.7-1.56995 1.57001-1.56995h5.31997c.87 0 1.57.69995 1.57 1.56995v1.5809c0 .299.2218.5478.5104.6258 1.7996.4864 3.1196 2.1277 3.1196 4.0833 0 2.33-1.9 4.22-4.23 4.22h-7.24998c-2.34 0-4.23-1.89-4.23-4.22 0-1.9525 1.31588-3.5917 3.11109-4.081z" fill="url(#aa)"/><path d="m4.75171 13.1177c.28788-.0785.50891-.327.50891-.6254v-1.5836c0-.87.7-1.56995 1.57001-1.56995h5.31997c.87 0 1.57.69995 1.57 1.56995v1.5809c0 .299.2218.5478.5104.6258 1.7996.4864 3.1196 2.1277 3.1196 4.0833 0 2.33-1.9 4.22-4.23 4.22h-7.24998c-2.34 0-4.23-1.89-4.23-4.22 0-1.9525 1.31588-3.5917 3.11109-4.081z" fill="url(#ab)"/><path d="m4.75171 13.1177c.28788-.0785.50891-.327.50891-.6254v-1.5836c0-.87.7-1.56995 1.57001-1.56995h5.31997c.87 0 1.57.69995 1.57 1.56995v1.5809c0 .299.2218.5478.5104.6258 1.7996.4864 3.1196 2.1277 3.1196 4.0833 0 2.33-1.9 4.22-4.23 4.22h-7.24998c-2.34 0-4.23-1.89-4.23-4.22 0-1.9525 1.31588-3.5917 3.11109-4.081z" fill="url(#ac)"/></g><g filter="url(#c)"><path d="m10.9531 11.3198v2.7477c0 .1381.112.25.25.25h1.6875c.1381 0 .25-.1119.25-.25v-3.5432c0-.1834-.1908-.3044-.3566-.2262l-1.6875.7956c-.0875.0412-.1434.1293-.1434.2261z" fill="url(#ad)"/></g><path d="m5.87062 19.0087c-1.33 0-2.42-1.08-2.42-2.42s1.09-2.42 2.42-2.42h7.24998c1.33 0 2.42 1.08 2.42 2.42s-1.08 2.42-2.42 2.42z" fill="url(#ae)"/><path d="m5.87062 19.0087c-1.33 0-2.42-1.08-2.42-2.42s1.09-2.42 2.42-2.42h7.24998c1.33 0 2.42 1.08 2.42 2.42s-1.08 2.42-2.42 2.42z" fill="url(#af)"/><path d="m5.87062 19.0087c-1.33 0-2.42-1.08-2.42-2.42s1.09-2.42 2.42-2.42h7.24998c1.33 0 2.42 1.08 2.42 2.42s-1.08 2.42-2.42 2.42z" fill="url(#ag)"/><path d="m6.65064 17.0888-.56-.57c-.24-.24-.24-.62 0-.85.24-.24.62-.24.85 0l.57.57c.24.24.24.62 0 .85s-.62.23-.86 0z" fill="url(#ah)"/><path d="m6.65064 17.0888-.56-.57c-.24-.24-.24-.62 0-.85.24-.24.62-.24.85 0l.57.57c.24.24.24.62 0 .85s-.62.23-.86 0z" fill="url(#ai)"/><path d="m12.5906 17.0888.57-.57c.24-.24.24-.62 0-.85-.24-.24-.62-.24-.85 0l-.57.56c-.24.24-.24.62 0 .85.23.24.62.24.85.01z" fill="url(#aj)"/><path d="m12.5906 17.0888.57-.57c.24-.24.24-.62 0-.85-.24-.24-.62-.24-.85 0l-.57.56c-.24.24-.24.62 0 .85.23.24.62.24.85.01z" fill="url(#ak)"/><g filter="url(#d)"><path d="m7.80031 13.7472c-.25168 0-.44942-.1978-.44942-.4494v-.9059c0-.2517.19774-.4494.44942-.4494.25167 0 .44941.1977.44941.4494v.9059c0 .2516-.19774.4494-.44941.4494z" fill="#46454a"/></g><g filter="url(#e)"><path d="m10.8316 13.7472c-.2517 0-.4495-.1978-.4495-.4494v-.9059c0-.2517.1978-.4494.4495-.4494.2516 0 .4494.1977.4494.4494v.9059c0 .2516-.1978.4494-.4494.4494z" fill="#46454a"/></g><path d="m8.01123 13.8488c-.28 0-.5-.22-.5-.5v-1.0079c0-.28.22-.5.5-.5s.5.22.5.5v1.0079c0 .28-.22.5-.5.5z" fill="url(#am)"/><path d="m8.01123 13.8488c-.28 0-.5-.22-.5-.5v-1.0079c0-.28.22-.5.5-.5s.5.22.5.5v1.0079c0 .28-.22.5-.5.5z" fill="url(#ao)"/><path d="m8.01123 13.8488c-.28 0-.5-.22-.5-.5v-1.0079c0-.28.22-.5.5-.5s.5.22.5.5v1.0079c0 .28-.22.5-.5.5z" fill="url(#aq)"/><path d="m10.98 13.8488c-.28 0-.5-.22-.5-.5v-1.0079c0-.28.22-.5.5-.5s.5.22.5.5v1.0079c0 .28-.22.5-.5.5z" fill="url(#ar)"/><path d="m10.98 13.8488c-.28 0-.5-.22-.5-.5v-1.0079c0-.28.22-.5.5-.5s.5.22.5.5v1.0079c0 .28-.22.5-.5.5z" fill="url(#as)"/><path d="m10.98 13.8488c-.28 0-.5-.22-.5-.5v-1.0079c0-.28.22-.5.5-.5s.5.22.5.5v1.0079c0 .28-.22.5-.5.5z" fill="url(#at)"/><g filter="url(#f)"><ellipse cx="24.6526" cy="12.8421" fill="url(#au)" rx="4.28857" ry="3.68266" transform="matrix(.69877869 .71533792 -.71533792 .69877869 16.61233 -13.766625)"/></g><g filter="url(#g)"><path d="m26.6875 19.1925h.46875v5.10938h-.46875z" fill="url(#av)"/></g><g filter="url(#h)"><path d="m23.6512 19.5054 2.8465 4.2795c.1371.2061.4582.1091.4582-.1384v-2.864c0-.0765.0351-.1489.0952-.1963l1.713-1.3499c.0602-.0474.0953-.1197.0953-.1963v-4.6912c0-.1381-.112-.25-.25-.25h-4.75c-.1381 0-.25.1119-.25.25v5.0182c0 .0492.0145.0974.0418.1384z" fill="url(#aw)" fill-opacity=".5"/></g><g filter="url(#i)"><path d="m11.6094 24.2003c.1555-.1376.6582-.6954.7779-.9227" stroke="url(#ax)" stroke-linecap="round" stroke-opacity=".75" stroke-width=".3"/></g><g filter="url(#j)"><path d="m29.3281 21.8956v-1.7812" stroke="url(#ay)" stroke-linecap="round" stroke-width=".15"/></g></svg>