<svg fill="none" height="32" viewBox="0 0 32 32" width="32" xmlns="http://www.w3.org/2000/svg" xmlns:xlink="http://www.w3.org/1999/xlink"><filter id="a" color-interpolation-filters="sRGB" filterUnits="userSpaceOnUse" height="14.5948" width="6.55585" x="9.21191" y="15.7546"><feFlood flood-opacity="0" result="BackgroundImageFix"/><feBlend in="SourceGraphic" in2="BackgroundImageFix" mode="normal" result="shape"/><feGaussianBlur result="effect1_foregroundBlur_4002_2107" stdDeviation=".5"/></filter><filter id="b" color-interpolation-filters="sRGB" filterUnits="userSpaceOnUse" height="13.3618" width="3.94995" x="17.96" y="16.2322"><feFlood flood-opacity="0" result="BackgroundImageFix"/><feBlend in="SourceGraphic" in2="BackgroundImageFix" mode="normal" result="shape"/><feGaussianBlur result="effect1_foregroundBlur_4002_2107" stdDeviation=".375"/></filter><filter id="c" color-interpolation-filters="sRGB" filterUnits="userSpaceOnUse" height="14" width="2.89681" x="10.5032" y="15.9973"><feFlood flood-opacity="0" result="BackgroundImageFix"/><feBlend in="SourceGraphic" in2="BackgroundImageFix" mode="normal" result="shape"/><feColorMatrix in="SourceAlpha" result="hardAlpha" type="matrix" values="0 0 0 0 0 0 0 0 0 0 0 0 0 0 0 0 0 0 127 0"/><feOffset dx=".1" dy=".1"/><feGaussianBlur stdDeviation=".1"/><feComposite in2="hardAlpha" k2="-1" k3="1" operator="arithmetic"/><feColorMatrix type="matrix" values="0 0 0 0 0.403922 0 0 0 0 0.368627 0 0 0 0 0.494118 0 0 0 1 0"/><feBlend in2="shape" mode="normal" result="effect1_innerShadow_4002_2107"/></filter><filter id="d" color-interpolation-filters="sRGB" filterUnits="userSpaceOnUse" height="2.88284" width="2.96465" x="14.509" y="18.1346"><feFlood flood-opacity="0" result="BackgroundImageFix"/><feBlend in="SourceGraphic" in2="BackgroundImageFix" mode="normal" result="shape"/><feColorMatrix in="SourceAlpha" result="hardAlpha" type="matrix" values="0 0 0 0 0 0 0 0 0 0 0 0 0 0 0 0 0 0 127 0"/><feOffset dx=".1" dy="-.1"/><feGaussianBlur stdDeviation=".25"/><feComposite in2="hardAlpha" k2="-1" k3="1" operator="arithmetic"/><feColorMatrix type="matrix" values="0 0 0 0 0.156863 0 0 0 0 0.0980392 0 0 0 0 0.215686 0 0 0 1 0"/><feBlend in2="shape" mode="normal" result="effect1_innerShadow_4002_2107"/><feColorMatrix in="SourceAlpha" result="hardAlpha" type="matrix" values="0 0 0 0 0 0 0 0 0 0 0 0 0 0 0 0 0 0 127 0"/><feOffset dx="-.1" dy="-.1"/><feGaussianBlur stdDeviation=".25"/><feComposite in2="hardAlpha" k2="-1" k3="1" operator="arithmetic"/><feColorMatrix type="matrix" values="0 0 0 0 0.156863 0 0 0 0 0.0980392 0 0 0 0 0.215686 0 0 0 1 0"/><feBlend in2="effect1_innerShadow_4002_2107" mode="normal" result="effect2_innerShadow_4002_2107"/></filter><filter id="e" color-interpolation-filters="sRGB" filterUnits="userSpaceOnUse" height="14.05" width="2.90212" x="18.61" y="15.9475"><feFlood flood-opacity="0" result="BackgroundImageFix"/><feBlend in="SourceGraphic" in2="BackgroundImageFix" mode="normal" result="shape"/><feColorMatrix in="SourceAlpha" result="hardAlpha" type="matrix" values="0 0 0 0 0 0 0 0 0 0 0 0 0 0 0 0 0 0 127 0"/><feOffset dx="-.1" dy=".1"/><feGaussianBlur stdDeviation=".1"/><feComposite in2="hardAlpha" k2="-1" k3="1" operator="arithmetic"/><feColorMatrix type="matrix" values="0 0 0 0 0.439216 0 0 0 0 0.415686 0 0 0 0 0.584314 0 0 0 1 0"/><feBlend in2="shape" mode="normal" result="effect1_innerShadow_4002_2107"/></filter><filter id="f" color-interpolation-filters="sRGB" filterUnits="userSpaceOnUse" height="3.33862" width="3.53862" x="9.55945" y="9.01392"><feFlood flood-opacity="0" result="BackgroundImageFix"/><feBlend in="SourceGraphic" in2="BackgroundImageFix" mode="normal" result="shape"/><feColorMatrix in="SourceAlpha" result="hardAlpha" type="matrix" values="0 0 0 0 0 0 0 0 0 0 0 0 0 0 0 0 0 0 127 0"/><feOffset dx=".2"/><feGaussianBlur stdDeviation=".15"/><feComposite in2="hardAlpha" k2="-1" k3="1" operator="arithmetic"/><feColorMatrix type="matrix" values="0 0 0 0 0.917647 0 0 0 0 0.694118 0 0 0 0 0.607843 0 0 0 1 0"/><feBlend in2="shape" mode="normal" result="effect1_innerShadow_4002_2107"/></filter><filter id="g" color-interpolation-filters="sRGB" filterUnits="userSpaceOnUse" height="2.98975" width="2.98975" x="9.73389" y="9.18823"><feFlood flood-opacity="0" result="BackgroundImageFix"/><feBlend in="SourceGraphic" in2="BackgroundImageFix" mode="normal" result="shape"/><feGaussianBlur result="effect1_foregroundBlur_4002_2107" stdDeviation=".25"/></filter><filter id="h" color-interpolation-filters="sRGB" filterUnits="userSpaceOnUse" height="3.58862" width="3.58862" x="19.0719" y="8.76392"><feFlood flood-opacity="0" result="BackgroundImageFix"/><feBlend in="SourceGraphic" in2="BackgroundImageFix" mode="normal" result="shape"/><feColorMatrix in="SourceAlpha" result="hardAlpha" type="matrix" values="0 0 0 0 0 0 0 0 0 0 0 0 0 0 0 0 0 0 127 0"/><feOffset dx=".25" dy="-.25"/><feGaussianBlur stdDeviation=".25"/><feComposite in2="hardAlpha" k2="-1" k3="1" operator="arithmetic"/><feColorMatrix type="matrix" values="0 0 0 0 0.843137 0 0 0 0 0.623529 0 0 0 0 0.580392 0 0 0 1 0"/><feBlend in2="shape" mode="normal" result="effect1_innerShadow_4002_2107"/></filter><filter id="i" color-interpolation-filters="sRGB" filterUnits="userSpaceOnUse" height="2.98975" width="2.98975" x="19.2463" y="9.18823"><feFlood flood-opacity="0" result="BackgroundImageFix"/><feBlend in="SourceGraphic" in2="BackgroundImageFix" mode="normal" result="shape"/><feGaussianBlur result="effect1_foregroundBlur_4002_2107" stdDeviation=".25"/></filter><filter id="j" color-interpolation-filters="sRGB" filterUnits="userSpaceOnUse" height="12.2769" width="10.3727" x="10.8186" y="5.05933"><feFlood flood-opacity="0" result="BackgroundImageFix"/><feBlend in="SourceGraphic" in2="BackgroundImageFix" mode="normal" result="shape"/><feColorMatrix in="SourceAlpha" result="hardAlpha" type="matrix" values="0 0 0 0 0 0 0 0 0 0 0 0 0 0 0 0 0 0 127 0"/><feOffset dy=".25"/><feGaussianBlur stdDeviation=".375"/><feComposite in2="hardAlpha" k2="-1" k3="1" operator="arithmetic"/><feColorMatrix type="matrix" values="0 0 0 0 0.819608 0 0 0 0 0.615686 0 0 0 0 0.509804 0 0 0 1 0"/><feBlend in2="shape" mode="normal" result="effect1_innerShadow_4002_2107"/></filter><filter id="k" color-interpolation-filters="sRGB" filterUnits="userSpaceOnUse" height="7.06641" width="8.24573" x="14.1462" y="3.05933"><feFlood flood-opacity="0" result="BackgroundImageFix"/><feBlend in="SourceGraphic" in2="BackgroundImageFix" mode="normal" result="shape"/><feGaussianBlur result="effect1_foregroundBlur_4002_2107" stdDeviation="1"/></filter><filter id="l" color-interpolation-filters="sRGB" filterUnits="userSpaceOnUse" height="8.54285" width="12.6005" x="9.67603" y="1.58276"><feFlood flood-opacity="0" result="BackgroundImageFix"/><feBlend in="SourceGraphic" in2="BackgroundImageFix" mode="normal" result="shape"/><feColorMatrix in="SourceAlpha" result="hardAlpha" type="matrix" values="0 0 0 0 0 0 0 0 0 0 0 0 0 0 0 0 0 0 127 0"/><feOffset dy="-.5"/><feGaussianBlur stdDeviation=".375"/><feComposite in2="hardAlpha" k2="-1" k3="1" operator="arithmetic"/><feColorMatrix type="matrix" values="0 0 0 0 0.0392157 0 0 0 0 0.00784314 0 0 0 0 0.0196078 0 0 0 1 0"/><feBlend in2="shape" mode="normal" result="effect1_innerShadow_4002_2107"/></filter><filter id="m" color-interpolation-filters="sRGB" filterUnits="userSpaceOnUse" height="4.18091" width="3.25983" x="14.1074" y="9.52856"><feFlood flood-opacity="0" result="BackgroundImageFix"/><feBlend in="SourceGraphic" in2="BackgroundImageFix" mode="normal" result="shape"/><feGaussianBlur result="effect1_foregroundBlur_4002_2107" stdDeviation=".375"/></filter><filter id="n" color-interpolation-filters="sRGB" filterUnits="userSpaceOnUse" height="3.18091" width="2.37665" x="14.7878" y="9.86548"><feFlood flood-opacity="0" result="BackgroundImageFix"/><feBlend in="SourceGraphic" in2="BackgroundImageFix" mode="normal" result="shape"/><feGaussianBlur result="effect1_foregroundBlur_4002_2107" stdDeviation=".125"/></filter><filter id="o" color-interpolation-filters="sRGB" filterUnits="userSpaceOnUse" height="1.87278" width="2.97943" x="17.1583" y="7.03457"><feFlood flood-opacity="0" result="BackgroundImageFix"/><feBlend in="SourceGraphic" in2="BackgroundImageFix" mode="normal" result="shape"/><feColorMatrix in="SourceAlpha" result="hardAlpha" type="matrix" values="0 0 0 0 0 0 0 0 0 0 0 0 0 0 0 0 0 0 127 0"/><feOffset dx=".25" dy="-.4"/><feGaussianBlur stdDeviation=".3"/><feComposite in2="hardAlpha" k2="-1" k3="1" operator="arithmetic"/><feColorMatrix type="matrix" values="0 0 0 0 0.0431373 0 0 0 0 0.0196078 0 0 0 0 0.027451 0 0 0 1 0"/><feBlend in2="shape" mode="normal" result="effect1_innerShadow_4002_2107"/></filter><filter id="p" color-interpolation-filters="sRGB" filterUnits="userSpaceOnUse" height="1.87278" width="2.97955" x="12.011" y="7.03457"><feFlood flood-opacity="0" result="BackgroundImageFix"/><feBlend in="SourceGraphic" in2="BackgroundImageFix" mode="normal" result="shape"/><feColorMatrix in="SourceAlpha" result="hardAlpha" type="matrix" values="0 0 0 0 0 0 0 0 0 0 0 0 0 0 0 0 0 0 127 0"/><feOffset dx=".25" dy="-.4"/><feGaussianBlur stdDeviation=".3"/><feComposite in2="hardAlpha" k2="-1" k3="1" operator="arithmetic"/><feColorMatrix type="matrix" values="0 0 0 0 0.0431373 0 0 0 0 0.0196078 0 0 0 0 0.027451 0 0 0 1 0"/><feBlend in2="shape" mode="normal" result="effect1_innerShadow_4002_2107"/></filter><filter id="q" color-interpolation-filters="sRGB" filterUnits="userSpaceOnUse" height=".696094" width=".786609" x="17.421" y="9.5615"><feFlood flood-opacity="0" result="BackgroundImageFix"/><feBlend in="SourceGraphic" in2="BackgroundImageFix" mode="normal" result="shape"/><feGaussianBlur result="effect1_foregroundBlur_4002_2107" stdDeviation=".05"/></filter><filter id="r" color-interpolation-filters="sRGB" filterUnits="userSpaceOnUse" height=".913306" width=".891089" x="18.2606" y="9.63643"><feFlood flood-opacity="0" result="BackgroundImageFix"/><feBlend in="SourceGraphic" in2="BackgroundImageFix" mode="normal" result="shape"/><feGaussianBlur result="effect1_foregroundBlur_4002_2107" stdDeviation=".1"/></filter><filter id="s" color-interpolation-filters="sRGB" filterUnits="userSpaceOnUse" height="1.04001" width=".986121" x="13.8193" y="9.57319"><feFlood flood-opacity="0" result="BackgroundImageFix"/><feBlend in="SourceGraphic" in2="BackgroundImageFix" mode="normal" result="shape"/><feGaussianBlur result="effect1_foregroundBlur_4002_2107" stdDeviation=".1"/></filter><filter id="t" color-interpolation-filters="sRGB" filterUnits="userSpaceOnUse" height=".704395" width=".912891" x="13.0646" y="9.55344"><feFlood flood-opacity="0" result="BackgroundImageFix"/><feBlend in="SourceGraphic" in2="BackgroundImageFix" mode="normal" result="shape"/><feGaussianBlur result="effect1_foregroundBlur_4002_2107" stdDeviation=".05"/></filter><filter id="u" color-interpolation-filters="sRGB" filterUnits="userSpaceOnUse" height="1.68103" width="3.09924" x="17.0117" y="7.16064"><feFlood flood-opacity="0" result="BackgroundImageFix"/><feBlend in="SourceGraphic" in2="BackgroundImageFix" mode="normal" result="shape"/><feGaussianBlur result="effect1_foregroundBlur_4002_2107" stdDeviation=".25"/></filter><filter id="v" color-interpolation-filters="sRGB" filterUnits="userSpaceOnUse" height="1.73804" width="3.177" x="11.7927" y="7.22437"><feFlood flood-opacity="0" result="BackgroundImageFix"/><feBlend in="SourceGraphic" in2="BackgroundImageFix" mode="normal" result="shape"/><feGaussianBlur result="effect1_foregroundBlur_4002_2107" stdDeviation=".25"/></filter><filter id="w" color-interpolation-filters="sRGB" filterUnits="userSpaceOnUse" height="2.26929" width="1.00812" x="10.8107" y="5.49731"><feFlood flood-opacity="0" result="BackgroundImageFix"/><feBlend in="SourceGraphic" in2="BackgroundImageFix" mode="normal" result="shape"/><feGaussianBlur result="effect1_foregroundBlur_4002_2107" stdDeviation=".125"/></filter><linearGradient id="x" gradientUnits="userSpaceOnUse" x1="15.9999" x2="15.9999" y1="16.219" y2="31.1565"><stop offset="0" stop-color="#594e72"/><stop offset="1" stop-color="#594984"/></linearGradient><radialGradient id="y" cx="0" cy="0" gradientTransform="matrix(0 -16.4313 6.37009 0 22.9949 25.4003)" gradientUnits="userSpaceOnUse" r="1"><stop offset=".155797" stop-color="#7b74a6"/><stop offset="1" stop-color="#5f5490" stop-opacity="0"/></radialGradient><radialGradient id="z" cx="0" cy="0" gradientTransform="matrix(0 10.1215 -4.59696 0 16 22.9723)" gradientUnits="userSpaceOnUse" r="1"><stop offset=".397031" stop-color="#c6bbd1"/><stop offset="1" stop-color="#a89cb3"/></radialGradient><linearGradient id="A" gradientUnits="userSpaceOnUse" x1="18.9031" x2="17.0593" y1="25.2189" y2="25.2189"><stop offset="0" stop-color="#7a6c85"/><stop offset="1" stop-color="#c7bcd2" stop-opacity="0"/></linearGradient><linearGradient id="B" gradientUnits="userSpaceOnUse" x1="15.5906" x2="15.6687" y1="17.7657" y2="21.6564"><stop offset="0" stop-color="#877f93"/><stop offset="1" stop-color="#877f93" stop-opacity="0"/></linearGradient><radialGradient id="C" cx="0" cy="0" gradientTransform="matrix(0 -10.3135 1.68433 0 25 29.9073)" gradientUnits="userSpaceOnUse" r="1"><stop offset="0" stop-color="#776d9f"/><stop offset="1" stop-color="#6d6193"/></radialGradient><linearGradient id="D" gradientUnits="userSpaceOnUse" x1="23" x2="23.7438" y1="29.3943" y2="29.3705"><stop offset=".275571" stop-color="#504176"/><stop offset="1" stop-color="#504176" stop-opacity="0"/></linearGradient><linearGradient id="E" gradientUnits="userSpaceOnUse" x1="11.9016" x2="11.9016" y1="15.9973" y2="29.8973"><stop offset="0" stop-color="#594b78"/><stop offset=".524033" stop-color="#5d5087"/></linearGradient><linearGradient id="F" gradientUnits="userSpaceOnUse" x1="13.6709" x2="13.0501" y1="22.4566" y2="22.4566"><stop offset="0" stop-color="#553a63"/><stop offset="1" stop-color="#553a63" stop-opacity="0"/></linearGradient><radialGradient id="G" cx="0" cy="0" gradientTransform="matrix(-1.53126491 2.09374127 -2.90145657 -2.12199027 13.7156 16.2814)" gradientUnits="userSpaceOnUse" r="1"><stop offset="0" stop-color="#4e3360"/><stop offset="1" stop-color="#4e3360" stop-opacity="0"/></radialGradient><linearGradient id="H" gradientUnits="userSpaceOnUse" x1="11.9016" x2="12.8388" y1="25.8733" y2="25.4719"><stop offset=".195813" stop-color="#594c7d"/><stop offset="1" stop-color="#594c7d" stop-opacity="0"/></linearGradient><radialGradient id="I" cx="0" cy="0" gradientTransform="matrix(1.0937527 -.31250086 .15357602 .53751591 11.3953 19.6642)" gradientUnits="userSpaceOnUse" r="1"><stop offset=".241347" stop-color="#4b3b6d"/><stop offset="1" stop-color="#4b3b6d" stop-opacity="0"/></radialGradient><linearGradient id="J" gradientUnits="userSpaceOnUse" x1="12.2234" x2="12.4343" y1="15.9973" y2="16.3986"><stop offset="0" stop-color="#584360"/><stop offset="1" stop-color="#584360" stop-opacity="0"/></linearGradient><linearGradient id="K" gradientUnits="userSpaceOnUse" x1="15.9882" x2="15.9882" y1="18.8909" y2="20.8752"><stop offset=".00558659" stop-color="#5a3859"/><stop offset="1" stop-color="#463952"/></linearGradient><linearGradient id="L" gradientUnits="userSpaceOnUse" x1="18.71" x2="20.111" y1="21.5043" y2="21.5043"><stop offset=".0932249" stop-color="#5a4c74"/><stop offset="1" stop-color="#625a91" stop-opacity="0"/></linearGradient><radialGradient id="M" cx="0" cy="0" gradientTransform="matrix(0 3.75 -4.3769 0 15.9999 18.4221)" gradientUnits="userSpaceOnUse" r="1"><stop offset=".3625" stop-color="#cdbed0"/><stop offset="1" stop-color="#a093a3"/></radialGradient><radialGradient id="N" cx="0" cy="0" gradientTransform="matrix(0 -5.1875 6.81546 0 15.9999 20.9192)" gradientUnits="userSpaceOnUse" r="1"><stop offset=".532569" stop-color="#9d8392" stop-opacity="0"/><stop offset=".875943" stop-color="#815a72"/></radialGradient><linearGradient id="O" gradientUnits="userSpaceOnUse" x1="9.45187" x2="7.01987" y1="23.9148" y2="23.9148"><stop offset="0" stop-color="#43395f"/><stop offset="1" stop-color="#43395f" stop-opacity="0"/></linearGradient><radialGradient id="P" cx="0" cy="0" gradientTransform="matrix(0 8.8125 -3.45478 0 15.9827 21.3126)" gradientUnits="userSpaceOnUse" r="1"><stop offset=".00558659" stop-color="#59416d"/><stop offset=".939716" stop-color="#3d3247"/></radialGradient><linearGradient id="Q"><stop offset="0" stop-color="#2b1b3a"/><stop offset="1" stop-color="#2b1b3a" stop-opacity="0"/></linearGradient><linearGradient id="R" gradientUnits="userSpaceOnUse" x1="14.6061" x2="14.899" xlink:href="#Q" y1="24.7775" y2="24.8165"/><linearGradient id="S" gradientUnits="userSpaceOnUse" x1="17.4108" x2="17.0123" xlink:href="#Q" y1="24.5939" y2="24.6407"/><radialGradient id="T" cx="0" cy="0" gradientTransform="matrix(1.54692735 2.84634853 -4.3189059 2.34722965 15.469 16.5158)" gradientUnits="userSpaceOnUse" r="1"><stop offset=".41381" stop-color="#bc7b7b"/><stop offset="1" stop-color="#a9707a"/></radialGradient><radialGradient id="U" cx="0" cy="0" gradientTransform="matrix(1.75471 0 0 3.07077 9.55945 10.6832)" gradientUnits="userSpaceOnUse" r="1"><stop offset=".350532" stop-color="#cf9888"/><stop offset="1" stop-color="#be8c77"/></radialGradient><linearGradient id="V" gradientUnits="userSpaceOnUse" x1="11.2288" x2="10.5883" y1="10.9618" y2="10.9618"><stop offset="0" stop-color="#ba7c6b"/><stop offset="1" stop-color="#be8474"/></linearGradient><linearGradient id="W" gradientUnits="userSpaceOnUse" x1="21.8276" x2="21.0089" y1="9.59177" y2="12.1278"><stop offset="0" stop-color="#fbd3bd"/><stop offset="1" stop-color="#f0b8a4"/></linearGradient><radialGradient id="X" cx="0" cy="0" gradientTransform="matrix(.82663435 -.60191744 .68701092 .94349621 21.1133 10.4184)" gradientUnits="userSpaceOnUse" r="1"><stop offset=".542503" stop-color="#d9aa94"/><stop offset="1" stop-color="#d9aa94" stop-opacity="0"/></radialGradient><radialGradient id="Y" cx="0" cy="0" gradientTransform="matrix(.82119299 -1.5104056 .88404601 .48064731 20.6999 11.5043)" gradientUnits="userSpaceOnUse" r="1"><stop offset=".754913" stop-color="#d6a38d" stop-opacity="0"/><stop offset=".915553" stop-color="#d6a38d"/></radialGradient><radialGradient id="Z" cx="0" cy="0" gradientTransform="matrix(.25926658 .25663464 -.33083738 .33423032 20.7412 10.6831)" gradientUnits="userSpaceOnUse" r="1"><stop offset="0" stop-color="#d5a58e"/><stop offset="1" stop-color="#d5a58e" stop-opacity="0"/></radialGradient><linearGradient id="aa" gradientUnits="userSpaceOnUse" x1="20.0118" x2="12.3756" y1="11.0728" y2="12.2107"><stop offset="0" stop-color="#ffdabf"/><stop offset="1" stop-color="#eaab97"/></linearGradient><radialGradient id="ab" cx="0" cy="0" gradientTransform="matrix(0 8.51658 -12.5003 0 16.005 8.75841)" gradientUnits="userSpaceOnUse" r="1"><stop offset=".653284" stop-color="#ca8f9a" stop-opacity="0"/><stop offset="1" stop-color="#ae6d8f"/></radialGradient><linearGradient id="ac" gradientUnits="userSpaceOnUse" x1="10.3342" x2="13.6921" y1="12.6" y2="12.7139"><stop offset="0" stop-color="#a58787"/><stop offset="1" stop-color="#dead9d" stop-opacity="0"/></linearGradient><linearGradient id="ad" gradientUnits="userSpaceOnUse" x1="10.5808" x2="12.4621" y1="13.7685" y2="13.7015"><stop offset="0" stop-color="#e8ad97"/><stop offset="1" stop-color="#e8ad97" stop-opacity="0"/></linearGradient><radialGradient id="ae" cx="0" cy="0" gradientTransform="matrix(0 -1.30697 1.60858 0 18.3221 9.41196)" gradientUnits="userSpaceOnUse" r="1"><stop offset="0" stop-color="#f5b7a7"/><stop offset="1" stop-color="#f5b7a7" stop-opacity="0"/></radialGradient><radialGradient id="af" cx="0" cy="0" gradientTransform="matrix(0 -1.39075 1.72952 0 13.7644 9.37844)" gradientUnits="userSpaceOnUse" r="1"><stop offset="0" stop-color="#d0958d"/><stop offset="1" stop-color="#d0958d" stop-opacity="0"/></radialGradient><linearGradient id="ag" gradientUnits="userSpaceOnUse" x1="15.4447" x2="23.5882" y1="8.08823" y2="5.17268"><stop offset="0" stop-color="#ffdec4"/><stop offset="1" stop-color="#ffdec4" stop-opacity="0"/></linearGradient><radialGradient id="ah" cx="0" cy="0" gradientTransform="matrix(.79775022 -2.95636808 1.09631746 .29583173 20.3211 6.57738)" gradientUnits="userSpaceOnUse" r="1"><stop offset="0" stop-color="#464344"/><stop offset="1" stop-color="#464344" stop-opacity="0"/></radialGradient><radialGradient id="ai" cx="0" cy="0" gradientTransform="matrix(3.82451017 .35194884 -.1892403 2.05641098 18.6786 4.81764)" gradientUnits="userSpaceOnUse" r="1"><stop offset=".334886" stop-color="#4a4648"/><stop offset="1" stop-color="#4a4648" stop-opacity="0"/></radialGradient><radialGradient id="aj" cx="0" cy="0" gradientTransform="matrix(0 1.67903 -2.60035 0 15.9763 2.08276)" gradientUnits="userSpaceOnUse" r="1"><stop offset="0" stop-color="#423d3f"/><stop offset="1" stop-color="#423d3f" stop-opacity="0"/></radialGradient><radialGradient id="ak" cx="0" cy="0" gradientTransform="matrix(3.073688 -2.25247596 3.52888511 4.81545286 9.52797 8.90025)" gradientUnits="userSpaceOnUse" r="1"><stop offset="0" stop-color="#463c39"/><stop offset="1" stop-color="#463c39" stop-opacity="0"/></radialGradient><linearGradient id="al" gradientUnits="userSpaceOnUse" x1="15.1121" x2="16.0502" y1="11.7317" y2="11.7317"><stop offset="0" stop-color="#dfa790"/><stop offset="1" stop-color="#dfa790" stop-opacity="0"/></linearGradient><linearGradient id="am" gradientUnits="userSpaceOnUse" x1="16.9145" x2="15.8889" y1="12.0542" y2="12.0395"><stop offset="0" stop-color="#ffdfc4"/><stop offset="1" stop-color="#ffdfc4" stop-opacity="0"/></linearGradient><linearGradient id="an" gradientUnits="userSpaceOnUse" x1="16.1707" x2="16.1707" y1="12.7964" y2="12.2235"><stop offset="0" stop-color="#dc9c96"/><stop offset="1" stop-color="#dc9c96" stop-opacity="0"/></linearGradient><radialGradient id="ao" cx="0" cy="0" gradientTransform="matrix(0 .196883 -.632539 0 16.3033 12.2896)" gradientUnits="userSpaceOnUse" r="1"><stop offset="0" stop-color="#ffd7c1"/><stop offset="1" stop-color="#ffd7c1" stop-opacity="0"/></radialGradient><linearGradient id="ap" gradientUnits="userSpaceOnUse" x1="16.1018" x2="16.1018" y1="12.8383" y2="12.6708"><stop offset="0" stop-color="#d6938e"/><stop offset="1" stop-color="#d6938e" stop-opacity="0"/></linearGradient><linearGradient id="aq" gradientUnits="userSpaceOnUse" x1="14.9393" x2="15.3742" y1="14.4115" y2="13.724"><stop offset="0" stop-color="#e6b4a6"/><stop offset=".663171" stop-color="#e6b4a6" stop-opacity="0"/></linearGradient><linearGradient id="ar"><stop offset=".80198" stop-color="#7d574a"/><stop offset="1" stop-color="#694b43"/><stop offset="1" stop-color="#804d49"/><stop offset="1" stop-color="#664944"/></linearGradient><radialGradient id="as" cx="0" cy="0" gradientTransform="matrix(0 .811063 -1.29009 0 18.1549 10.0013)" gradientUnits="userSpaceOnUse" r="1" xlink:href="#ar"/><linearGradient id="at"><stop offset=".765532" stop-color="#ffe6e2" stop-opacity="0"/><stop offset=".966159" stop-color="#ffe6e2"/></linearGradient><radialGradient id="au" cx="0" cy="0" gradientTransform="matrix(-.23184441 -.29876279 .4113242 -.31919376 17.9268 10.0853)" gradientUnits="userSpaceOnUse" r="1" xlink:href="#at"/><linearGradient id="av"><stop offset="0" stop-color="#b4948d"/><stop offset="1" stop-color="#b4948d" stop-opacity="0"/></linearGradient><linearGradient id="aw" gradientUnits="userSpaceOnUse" x1="18.9326" x2="18.619" xlink:href="#av" y1="10.055" y2="10.2483"/><radialGradient id="ax" cx="0" cy="0" gradientTransform="matrix(0 .811104 -1.29015 0 13.7923 10.0013)" gradientUnits="userSpaceOnUse" r="1" xlink:href="#ar"/><linearGradient id="ay" gradientUnits="userSpaceOnUse" x1="14.536" x2="14.2223" xlink:href="#av" y1="10.0552" y2="10.2484"/><radialGradient id="az" cx="0" cy="0" gradientTransform="matrix(-.00773336 -.49392746 .59372123 -.00929582 13.506 10.2205)" gradientUnits="userSpaceOnUse" r="1" xlink:href="#at"/><linearGradient id="aA"><stop offset="0" stop-color="#353435"/><stop offset="1" stop-color="#353435" stop-opacity="0"/></linearGradient><linearGradient id="aB" gradientUnits="userSpaceOnUse" x1="18.9484" x2="18.5282" xlink:href="#aA" y1="7.91565" y2="7.05709"/><linearGradient id="aC" gradientUnits="userSpaceOnUse" x1="13.6441" x2="12.4551" xlink:href="#aA" y1="7.78791" y2="7.28923"/><linearGradient id="aD" gradientUnits="userSpaceOnUse" x1="11.3147" x2="11.3147" y1="5.77361" y2="7.93045"><stop offset="0" stop-color="#3c393a"/><stop offset="1" stop-color="#3c393a" stop-opacity="0"/></linearGradient><path d="m16 15.4075c-6.08 0-11 4.92-11 11v3.5h22v-3.5c0-6.07-4.93-11-11-11z" fill="url(#x)"/><path d="m16 15.4075c-6.08 0-11 4.92-11 11v3.5h22v-3.5c0-6.07-4.93-11-11-11z" fill="url(#y)"/><g filter="url(#a)"><path d="m13.4187 16.7562c-.5124 0-1.2955-.0292-1.7699.1661l-1.3801 2.7239c-.09.19.06.41.27.41h1.55c.24 0 .35.29.19.45l-1.78 1.3428c-.26.26-.36.65-.23 1l2.9128 6.5005 1.5862-1.1163-1.339-11.477z" fill="#46375f"/></g><g filter="url(#b)"><path d="m20.9045 21.0888-1.1891-.828c-.1486-.1486-.0437-.3934.1661-.3934h.9181c.1836 0 .306-.1923.2273-.3585l-1.0754-2.2907c-.2099-.0874-.4284-.1661-.647-.236h-.5945v11.8618l2.4043-6.8721c.1049-.3148.0262-.6558-.2098-.8831z" fill="#493e6a"/></g><path d="m18.71 16.0273h-5.42v13.89h5.42z" fill="url(#z)"/><path d="m18.71 16.0273h-5.42v13.89h5.42z" fill="url(#A)"/><path d="m18.71 16.0273h-5.42v13.89h5.42z" fill="url(#B)"/><path d="m23 17.925v11.9823h4v-3.5c0-3.412-1.5577-6.4638-4-8.4823z" fill="url(#C)"/><path d="m23 17.925v11.9823h4v-3.5c0-3.412-1.5577-6.4638-4-8.4823z" fill="url(#D)"/><g filter="url(#c)"><path d="m13.29 15.9973h-.85c-.18.06-.36.13-.53.2l-1.27 2.69c-.09.19.06.41.27.41h1.05c.24 0 .35.29.19.45l-1.36 1.33c-.26.26-.36.65-.23 1l2.73 7.82h.01v-13.9z" fill="url(#E)"/><path d="m13.29 15.9973h-.85c-.18.06-.36.13-.53.2l-1.27 2.69c-.09.19.06.41.27.41h1.05c.24 0 .35.29.19.45l-1.36 1.33c-.26.26-.36.65-.23 1l2.73 7.82h.01v-13.9z" fill="url(#F)"/><path d="m13.29 15.9973h-.85c-.18.06-.36.13-.53.2l-1.27 2.69c-.09.19.06.41.27.41h1.05c.24 0 .35.29.19.45l-1.36 1.33c-.26.26-.36.65-.23 1l2.73 7.82h.01v-13.9z" fill="url(#G)"/></g><path d="m13.29 15.9973h-.85c-.18.06-.36.13-.53.2l-1.27 2.69c-.09.19.06.41.27.41h1.05c.24 0 .35.29.19.45l-1.36 1.33c-.26.26-.36.65-.23 1l2.73 7.82h.01v-13.9z" fill="url(#H)"/><path d="m13.29 15.9973h-.85c-.18.06-.36.13-.53.2l-1.27 2.69c-.09.19.06.41.27.41h1.05c.24 0 .35.29.19.45l-1.36 1.33c-.26.26-.36.65-.23 1l2.73 7.82h.01v-13.9z" fill="url(#I)"/><path d="m13.29 15.9973h-.85c-.18.06-.36.13-.53.2l-1.27 2.69c-.09.19.06.41.27.41h1.05c.24 0 .35.29.19.45l-1.36 1.33c-.26.26-.36.65-.23 1l2.73 7.82h.01v-13.9z" fill="url(#J)"/><g filter="url(#d)"><path d="m16.0125 18.2346-1.3562 1.2751c-.0483.0454-.0611.1171-.0315.1763l.5962 1.1931c.0423.0848.1289.1383.2236.1383h1.0901c.0952 0 .182-.054.2242-.1392l.5993-1.2127c.029-.0588.0165-.1297-.0309-.175z" fill="url(#K)"/></g><g filter="url(#e)"><path d="m21.22 21.0275-1.36-1.33c-.17-.17-.05-.45.19-.45h1.05c.21 0 .35-.22.26-.41l-1.23-2.62c-.24-.1-.49-.19-.74-.27h-.68v13.95l2.75-7.86c.12-.36.03-.75-.24-1.01z" fill="#615990"/><path d="m21.22 21.0275-1.36-1.33c-.17-.17-.05-.45.19-.45h1.05c.21 0 .35-.22.26-.41l-1.23-2.62c-.24-.1-.49-.19-.74-.27h-.68v13.95l2.75-7.86c.12-.36.03-.75-.24-1.01z" fill="url(#L)"/></g><path d="m15.9999 14.9644h-2.71v4.74c0 .31.36.49.61.29l2.1-1.3926 2.1 1.3926c.25.2.61.02.61-.29v-4.74z" fill="url(#M)"/><path d="m15.9999 14.9644h-2.71v4.74c0 .31.36.49.61.29l2.1-1.3926 2.1 1.3926c.25.2.61.02.61-.29v-4.74z" fill="url(#N)"/><path d="m7.03187 29.9075h1.93823v-11.9641c-1.78268 1.4818-3.08884 3.5166-3.65643 5.8426-.20346.8439-.30902 1.7254-.30371 2.6315l.01996 3.49z" fill="url(#O)"/><path d="m15.5046 21.0173c-.1235 0-.2285.0902-.2472.2122l-1.3275 8.6678h4.11l-1.3177-8.6675c-.0185-.1222-.1236-.2125-.2471-.2125z" fill="url(#P)"/><path d="m15.5046 21.0173c-.1235 0-.2285.0902-.2472.2122l-1.3275 8.6678h4.11l-1.3177-8.6675c-.0185-.1222-.1236-.2125-.2471-.2125z" fill="url(#R)"/><path d="m15.5046 21.0173c-.1235 0-.2285.0902-.2472.2122l-1.3275 8.6678h4.11l-1.3177-8.6675c-.0185-.1222-.1236-.2125-.2471-.2125z" fill="url(#S)"/><path d="m14.0449 16.7971c.0209.2136.205.691.7461 1.0547.2135.1435 1.2131.6286 1.1927.6189.1562-.0782.8073-.2986 1.2839-.6189.5411-.3637.7252-.8411.7461-1.0547l-1.9844-.9531z" fill="url(#T)"/><g filter="url(#f)"><circle cx="11.2288" cy="10.6832" fill="url(#U)" r="1.66932"/></g><g filter="url(#g)"><circle cx="11.2288" cy="10.6831" fill="url(#V)" r=".994888"/></g><g filter="url(#h)"><circle cx="20.7412" cy="10.6832" fill="url(#W)" r="1.66932"/><circle cx="20.7412" cy="10.6832" fill="url(#X)" r="1.66932"/></g><g filter="url(#i)"><circle cx="20.7412" cy="10.6831" fill="#e4af9a" r=".994888"/><circle cx="20.7412" cy="10.6831" fill="url(#Y)" r=".994888"/><circle cx="20.7412" cy="10.6831" fill="url(#Z)" r=".994888"/></g><g filter="url(#j)"><path d="m10.8186 8.6324c0-.26665.1073-.58662.3218-.74661l.1609-.15999c.2682-.21332.3755-.53329.3755-.85327v-.85327c0-.26665.1609-.47997.429-.5333.6437-.15999 1.9845-.42663 3.9154-.42663s3.2717.26664 3.9153.42663c.2146.05333.4291.26665.4291.5333v.85327c0 .31998.1609.63995.3755.85327.502.3518.4708.54529.4291.95993-.0537.5333-.1073 1.43987-.1073 1.43987.0061 0 .0121 0 .0181-.0002l-.2658 3.9581c-.1606 1.7695-1.5516 3.0027-3.2102 3.0027h-3.2101c-1.712 0-3.0496-1.2332-3.2101-3.0027-.1394-1.8163-.2004-3.6379-.3662-5.4511z" fill="url(#aa)"/><path d="m10.8186 8.6324c0-.26665.1073-.58662.3218-.74661l.1609-.15999c.2682-.21332.3755-.53329.3755-.85327v-.85327c0-.26665.1609-.47997.429-.5333.6437-.15999 1.9845-.42663 3.9154-.42663s3.2717.26664 3.9153.42663c.2146.05333.4291.26665.4291.5333v.85327c0 .31998.1609.63995.3755.85327.502.3518.4708.54529.4291.95993-.0537.5333-.1073 1.43987-.1073 1.43987.0061 0 .0121 0 .0181-.0002l-.2658 3.9581c-.1606 1.7695-1.5516 3.0027-3.2102 3.0027h-3.2101c-1.712 0-3.0496-1.2332-3.2101-3.0027-.1394-1.8163-.2004-3.6379-.3662-5.4511z" fill="url(#ab)"/><path d="m10.8186 8.6324c0-.26665.1073-.58662.3218-.74661l.1609-.15999c.2682-.21332.3755-.53329.3755-.85327v-.85327c0-.26665.1609-.47997.429-.5333.6437-.15999 1.9845-.42663 3.9154-.42663s3.2717.26664 3.9153.42663c.2146.05333.4291.26665.4291.5333v.85327c0 .31998.1609.63995.3755.85327.502.3518.4708.54529.4291.95993-.0537.5333-.1073 1.43987-.1073 1.43987.0061 0 .0121 0 .0181-.0002l-.2658 3.9581c-.1606 1.7695-1.5516 3.0027-3.2102 3.0027h-3.2101c-1.712 0-3.0496-1.2332-3.2101-3.0027-.1394-1.8163-.2004-3.6379-.3662-5.4511z" fill="url(#ac)"/><path d="m10.8186 8.6324c0-.26665.1073-.58662.3218-.74661l.1609-.15999c.2682-.21332.3755-.53329.3755-.85327v-.85327c0-.26665.1609-.47997.429-.5333.6437-.15999 1.9845-.42663 3.9154-.42663s3.2717.26664 3.9153.42663c.2146.05333.4291.26665.4291.5333v.85327c0 .31998.1609.63995.3755.85327.502.3518.4708.54529.4291.95993-.0537.5333-.1073 1.43987-.1073 1.43987.0061 0 .0121 0 .0181-.0002l-.2658 3.9581c-.1606 1.7695-1.5516 3.0027-3.2102 3.0027h-3.2101c-1.712 0-3.0496-1.2332-3.2101-3.0027-.1394-1.8163-.2004-3.6379-.3662-5.4511z" fill="url(#ad)"/><path d="m10.8186 8.6324c0-.26665.1073-.58662.3218-.74661l.1609-.15999c.2682-.21332.3755-.53329.3755-.85327v-.85327c0-.26665.1609-.47997.429-.5333.6437-.15999 1.9845-.42663 3.9154-.42663s3.2717.26664 3.9153.42663c.2146.05333.4291.26665.4291.5333v.85327c0 .31998.1609.63995.3755.85327.502.3518.4708.54529.4291.95993-.0537.5333-.1073 1.43987-.1073 1.43987.0061 0 .0121 0 .0181-.0002l-.2658 3.9581c-.1606 1.7695-1.5516 3.0027-3.2102 3.0027h-3.2101c-1.712 0-3.0496-1.2332-3.2101-3.0027-.1394-1.8163-.2004-3.6379-.3662-5.4511z" fill="url(#ae)"/><path d="m10.8186 8.6324c0-.26665.1073-.58662.3218-.74661l.1609-.15999c.2682-.21332.3755-.53329.3755-.85327v-.85327c0-.26665.1609-.47997.429-.5333.6437-.15999 1.9845-.42663 3.9154-.42663s3.2717.26664 3.9153.42663c.2146.05333.4291.26665.4291.5333v.85327c0 .31998.1609.63995.3755.85327.502.3518.4708.54529.4291.95993-.0537.5333-.1073 1.43987-.1073 1.43987.0061 0 .0121 0 .0181-.0002l-.2658 3.9581c-.1606 1.7695-1.5516 3.0027-3.2102 3.0027h-3.2101c-1.712 0-3.0496-1.2332-3.2101-3.0027-.1394-1.8163-.2004-3.6379-.3662-5.4511z" fill="url(#af)"/></g><g filter="url(#k)"><path d="m19.9395 5.05933-3.0772 1.02593c-.5239.17467-.8221.72623-.6813 1.26026.1346.51049.6282.84095 1.1515.77089l3.0595-.40963z" fill="url(#ag)"/></g><g filter="url(#l)"><path d="m20.7948 4.20608.4291.21331c.7508.37331 1.1799 1.22658 1.019 2.13318l-.59 3.03978c-.0526.31395-.2601.52525-.5719.53305-.0059.0002-.012.0002-.018.0002 0 0 .0536-.90658.1072-1.43988.0436-.43306-.032-.56516-.4291-.95993-.2145-.21332-.3754-.53329-.3754-.85327v-.85327c0-.26665-.2145-.47997-.4291-.5333-.6436-.15998-1.9845-.42663-3.9153-.42663-1.9309 0-3.2718.26665-3.9154.42663-.2682.05333-.4291.26665-.4291.5333v.85327c0 .31998-.1072.63995-.3754.85327l-.1609.15999c-.2146.15999-.3218.47997-.3218.74661.0536.58663.1072 1.43991.1072 1.43991-.0165 0-.0328-.0006-.049-.0017-.2997-.0205-.5437-.228-.5946-.53158l-.58996-3.03978c-.10727-.85327.32176-1.70654 1.07266-2.07985l.4291-.21331c.2682-.15999.5364-.37331.8045-.58663l.9655-1.01326c.59-.53329 1.4481-.69328 2.199-.31998.5364.15999 1.1263.15999 1.6627 0 .8045-.26664 1.7163-.05333 2.3599.5333l.8046.79994c.2145.26665.4827.42664.8045.58663z" fill="#242324"/><path d="m20.7948 4.20608.4291.21331c.7508.37331 1.1799 1.22658 1.019 2.13318l-.59 3.03978c-.0526.31395-.2601.52525-.5719.53305-.0059.0002-.012.0002-.018.0002 0 0 .0536-.90658.1072-1.43988.0436-.43306-.032-.56516-.4291-.95993-.2145-.21332-.3754-.53329-.3754-.85327v-.85327c0-.26665-.2145-.47997-.4291-.5333-.6436-.15998-1.9845-.42663-3.9153-.42663-1.9309 0-3.2718.26665-3.9154.42663-.2682.05333-.4291.26665-.4291.5333v.85327c0 .31998-.1072.63995-.3754.85327l-.1609.15999c-.2146.15999-.3218.47997-.3218.74661.0536.58663.1072 1.43991.1072 1.43991-.0165 0-.0328-.0006-.049-.0017-.2997-.0205-.5437-.228-.5946-.53158l-.58996-3.03978c-.10727-.85327.32176-1.70654 1.07266-2.07985l.4291-.21331c.2682-.15999.5364-.37331.8045-.58663l.9655-1.01326c.59-.53329 1.4481-.69328 2.199-.31998.5364.15999 1.1263.15999 1.6627 0 .8045-.26664 1.7163-.05333 2.3599.5333l.8046.79994c.2145.26665.4827.42664.8045.58663z" fill="url(#ah)"/><path d="m20.7948 4.20608.4291.21331c.7508.37331 1.1799 1.22658 1.019 2.13318l-.59 3.03978c-.0526.31395-.2601.52525-.5719.53305-.0059.0002-.012.0002-.018.0002 0 0 .0536-.90658.1072-1.43988.0436-.43306-.032-.56516-.4291-.95993-.2145-.21332-.3754-.53329-.3754-.85327v-.85327c0-.26665-.2145-.47997-.4291-.5333-.6436-.15998-1.9845-.42663-3.9153-.42663-1.9309 0-3.2718.26665-3.9154.42663-.2682.05333-.4291.26665-.4291.5333v.85327c0 .31998-.1072.63995-.3754.85327l-.1609.15999c-.2146.15999-.3218.47997-.3218.74661.0536.58663.1072 1.43991.1072 1.43991-.0165 0-.0328-.0006-.049-.0017-.2997-.0205-.5437-.228-.5946-.53158l-.58996-3.03978c-.10727-.85327.32176-1.70654 1.07266-2.07985l.4291-.21331c.2682-.15999.5364-.37331.8045-.58663l.9655-1.01326c.59-.53329 1.4481-.69328 2.199-.31998.5364.15999 1.1263.15999 1.6627 0 .8045-.26664 1.7163-.05333 2.3599.5333l.8046.79994c.2145.26665.4827.42664.8045.58663z" fill="url(#ai)"/><path d="m20.7948 4.20608.4291.21331c.7508.37331 1.1799 1.22658 1.019 2.13318l-.59 3.03978c-.0526.31395-.2601.52525-.5719.53305-.0059.0002-.012.0002-.018.0002 0 0 .0536-.90658.1072-1.43988.0436-.43306-.032-.56516-.4291-.95993-.2145-.21332-.3754-.53329-.3754-.85327v-.85327c0-.26665-.2145-.47997-.4291-.5333-.6436-.15998-1.9845-.42663-3.9153-.42663-1.9309 0-3.2718.26665-3.9154.42663-.2682.05333-.4291.26665-.4291.5333v.85327c0 .31998-.1072.63995-.3754.85327l-.1609.15999c-.2146.15999-.3218.47997-.3218.74661.0536.58663.1072 1.43991.1072 1.43991-.0165 0-.0328-.0006-.049-.0017-.2997-.0205-.5437-.228-.5946-.53158l-.58996-3.03978c-.10727-.85327.32176-1.70654 1.07266-2.07985l.4291-.21331c.2682-.15999.5364-.37331.8045-.58663l.9655-1.01326c.59-.53329 1.4481-.69328 2.199-.31998.5364.15999 1.1263.15999 1.6627 0 .8045-.26664 1.7163-.05333 2.3599.5333l.8046.79994c.2145.26665.4827.42664.8045.58663z" fill="url(#aj)"/><path d="m20.7948 4.20608.4291.21331c.7508.37331 1.1799 1.22658 1.019 2.13318l-.59 3.03978c-.0526.31395-.2601.52525-.5719.53305-.0059.0002-.012.0002-.018.0002 0 0 .0536-.90658.1072-1.43988.0436-.43306-.032-.56516-.4291-.95993-.2145-.21332-.3754-.53329-.3754-.85327v-.85327c0-.26665-.2145-.47997-.4291-.5333-.6436-.15998-1.9845-.42663-3.9153-.42663-1.9309 0-3.2718.26665-3.9154.42663-.2682.05333-.4291.26665-.4291.5333v.85327c0 .31998-.1072.63995-.3754.85327l-.1609.15999c-.2146.15999-.3218.47997-.3218.74661.0536.58663.1072 1.43991.1072 1.43991-.0165 0-.0328-.0006-.049-.0017-.2997-.0205-.5437-.228-.5946-.53158l-.58996-3.03978c-.10727-.85327.32176-1.70654 1.07266-2.07985l.4291-.21331c.2682-.15999.5364-.37331.8045-.58663l.9655-1.01326c.59-.53329 1.4481-.69328 2.199-.31998.5364.15999 1.1263.15999 1.6627 0 .8045-.26664 1.7163-.05333 2.3599.5333l.8046.79994c.2145.26665.4827.42664.8045.58663z" fill="url(#ak)"/></g><g filter="url(#m)"><path d="m15.701 10.5609-.8203 1.6995c-.1017.3496.1423.6991.488.6991h.7372c.3457 0 .5897-.3549.4881-.6991l-.4983-1.6995c-.1067-.3765-.2829-.3765-.3947 0z" fill="#d89992"/></g><g filter="url(#n)"><path d="m15.594 10.3978-.5313 1.6995c-.1085.3496.1518.6991.5204.6991h.7861c.3687 0 .6289-.3549.5205-.6991l-.5313-1.6995c-.1139-.3764-.6452-.3764-.7644 0z" fill="#fbc4b1"/><path d="m15.594 10.3978-.5313 1.6995c-.1085.3496.1518.6991.5204.6991h.7861c.3687 0 .6289-.3549.5205-.6991l-.5313-1.6995c-.1139-.3764-.6452-.3764-.7644 0z" fill="url(#al)"/><path d="m15.594 10.3978-.5313 1.6995c-.1085.3496.1518.6991.5204.6991h.7861c.3687 0 .6289-.3549.5205-.6991l-.5313-1.6995c-.1139-.3764-.6452-.3764-.7644 0z" fill="url(#am)"/><path d="m15.594 10.3978-.5313 1.6995c-.1085.3496.1518.6991.5204.6991h.7861c.3687 0 .6289-.3549.5205-.6991l-.5313-1.6995c-.1139-.3764-.6452-.3764-.7644 0z" fill="url(#an)"/><path d="m15.594 10.3978-.5313 1.6995c-.1085.3496.1518.6991.5204.6991h.7861c.3687 0 .6289-.3549.5205-.6991l-.5313-1.6995c-.1139-.3764-.6452-.3764-.7644 0z" fill="url(#ao)"/></g><path d="m15.594 10.3978-.5313 1.6995c-.1085.3496.1518.6991.5204.6991h.7861c.3687 0 .6289-.3549.5205-.6991l-.5313-1.6995c-.1139-.3764-.6452-.3764-.7644 0z" fill="url(#ap)"/><path d="m14.6144 13.4402c.3934.2051.8623.3227 1.3619.3227.5046 0 .9684-.1176 1.3618-.3227l.0005-.0002c.09-.0458.1845-.0193.2413.0397.0574.0596.0785.155.0209.2414m-2.9864-.2809 2.9447.2533m-2.9447-.2533-.0005-.0002c-.0907-.0462-.1852-.0175-.2415.0418-.0566.0595-.0788.155-.0204.2397m.2624-.2813-.221.2533m3.2074.0276s-.0001.0001-.0001.0001l-.0416-.0277m.0417.0276v-.0001l-.0417-.0275m.0417.0276c-.3439.521-.9427.8681-1.6245.8681-.6817 0-1.2805-.3469-1.6243-.8677m3.2071-.028c-.3348.5074-.9183.8457-1.5828.8457-.6646 0-1.2481-.3383-1.5829-.8457m-.0414.028c.0001.0001.0002.0003.0003.0005l.0411-.0285m-.0414.028c-.0001-.0002-.0002-.0003-.0003-.0005l.0417-.0275" fill="#88024e" stroke="url(#aq)" stroke-width=".1"/><g filter="url(#o)"><path d="m19.6955 7.96341-.0012-.00103-.0019-.00153-.0045-.00366-.012-.00953c-.0093-.00731-.0213-.01648-.0359-.02719-.0292-.02139-.069-.04905-.1189-.08031-.0996-.06236-.2409-.14006-.4197-.21074-.359-.14191-.8716-.25625-1.4926-.15819-.2911.04596-.4898.31922-.4439.61034.046.29112.3193.48986.6104.44389.3977-.0628.7162.01053.9337.0965.1094.04326.1926.08956.2455.1227.0263.0165.0448.02947.0547.03677.0042.00304.0068.00507.0079.00593.2264.18454.5597.15286.7471-.07205.1887-.22641.1577-.56323-.0687-.7519z" fill="#1e1e1e"/></g><g filter="url(#p)"><path d="m12.203 7.96372.0008-.00064.0008-.0007.0019-.00153.0045-.00366.012-.00953c.0093-.00731.0213-.01648.0359-.02719.0292-.02139.069-.04905.1189-.08031.0996-.06236.2409-.14006.4197-.21074.359-.14191.8716-.25625 1.4926-.15819.2911.04596.4898.31922.4439.61034-.046.29112-.3193.48985-.6104.44389-.3977-.0628-.7162.01053-.9337.0965-.1094.04326-.1926.08956-.2455.1227-.0264.0165-.0448.02947-.0547.03677-.0042.00304-.0068.00507-.0079.00593-.2264.18454-.5597.15286-.7471-.07205-.1887-.22641-.1581-.56291.0683-.75159z" fill="#1e1e1e"/></g><path d="m18.3638 9.25269c.653 0 1.2045.45014 1.3545 1.05841.0446.1744-.0892.3407-.2676.3407h-2.2305c-.1419 0-.2554-.1298-.2271-.2717.1258-.64078.6895-1.12741 1.3707-1.12741z" fill="#fff"/><path d="m18.157 9.52441c.4947 0 .8921.40148.8921.89219 0 .0811-.0121.1622-.0324.2352h-1.7235c-.0203-.0771-.0325-.1541-.0325-.2352 0-.49071.4015-.89219.8963-.89219z" fill="url(#as)"/><path d="m17.646 10.4165c0-.2839.2271-.51098.511-.51098.2838 0 .5109.22708.5109.51098 0 .0851-.0202.1663-.0567.2352h-.9044c-.0405-.0689-.0608-.1501-.0608-.2352z" fill="#000"/><g filter="url(#q)"><path d="m18.0914 9.71293c.0635.08501-.0693.18865-.2204.30157-.1511.113-.2631.1925-.3267.1074-.0636-.085.0074-.24544.1584-.35839.1511-.11295.3251-.1356.3887-.05058z" fill="#c7a7a3"/><path d="m18.0914 9.71293c.0635.08501-.0693.18865-.2204.30157-.1511.113-.2631.1925-.3267.1074-.0636-.085.0074-.24544.1584-.35839.1511-.11295.3251-.1356.3887-.05058z" fill="url(#au)"/></g><g filter="url(#r)"><path d="m18.9516 10.299c-.0329-.2307-.1679-.40449-.2312-.46257l-.2598.28517.1172.2281z" fill="url(#aw)"/></g><path d="m13.5834 9.25269c-.6529 0-1.2045.45016-1.3545 1.05851-.0446.1744.0892.3406.2676.3406h2.2306c.1419 0 .2555-.1297.2271-.2717-.1257-.64075-.6935-1.12741-1.3708-1.12741z" fill="#fff"/><path d="m13.7903 9.52441c-.4948 0-.8922.4015-.8922.89219 0 .0811.0121.1622.0324.2352h1.7236c.0203-.077.0325-.1541.0325-.2352-.0041-.49069-.4015-.89219-.8963-.89219z" fill="url(#ax)"/><path d="m14.3013 10.4165c0-.2839-.2271-.51098-.511-.51098s-.511.22708-.511.51098c0 .0852.0203.1663.0568.2352h.9044c.0365-.0689.0608-.15.0608-.2352z" fill="#000"/><g filter="url(#s)"><path d="m14.6054 10.3118c0-.2883-.2344-.48052-.2978-.53861l-.2883.27881.1774.3612z" fill="url(#ay)"/></g><g filter="url(#t)"><ellipse cx="13.5211" cy="9.90566" fill="#c7a7a3" fill-opacity=".9" rx=".389499" ry=".197123" transform="matrix(.88365127 -.46814574 .46814574 .88365127 -3.06413 7.482356)"/><ellipse cx="13.5211" cy="9.90566" fill="url(#az)" rx=".389499" ry=".197123" transform="matrix(.88365127 -.46814574 .46814574 .88365127 -3.06413 7.482356)"/></g><g filter="url(#u)"><path d="m17.6367 7.81889c.4301-.07526 1.2687-.05376 1.8493.3978" stroke="url(#aB)" stroke-linecap="round" stroke-width=".25"/></g><g filter="url(#v)"><path d="m12.4176 8.33738c.3272-.28913 1.0415-.59356 1.927-.45241" stroke="url(#aC)" stroke-linecap="round" stroke-width=".25"/></g><g filter="url(#w)"><path d="m11.4438 5.87231v.89747c-.0079.1486-.0704.481-.2581.62178" stroke="url(#aD)" stroke-linecap="round" stroke-width=".25"/></g></svg>