<svg fill="none" height="32" viewBox="0 0 32 32" width="32" xmlns="http://www.w3.org/2000/svg" xmlns:xlink="http://www.w3.org/1999/xlink"><filter id="a" color-interpolation-filters="sRGB" filterUnits="userSpaceOnUse" height="6.698" width="5.72693" x="3.55408" y="20.3203"><feFlood flood-opacity="0" result="BackgroundImageFix"/><feBlend in="SourceGraphic" in2="BackgroundImageFix" mode="normal" result="shape"/><feGaussianBlur result="effect1_foregroundBlur_6898_5229" stdDeviation=".75"/></filter><filter id="b" color-interpolation-filters="sRGB" filterUnits="userSpaceOnUse" height="11.6356" width="9.00903" x="19.098" y="4.5188"><feFlood flood-opacity="0" result="BackgroundImageFix"/><feBlend in="SourceGraphic" in2="BackgroundImageFix" mode="normal" result="shape"/><feGaussianBlur result="effect1_foregroundBlur_6898_5229" stdDeviation=".5"/></filter><filter id="c" color-interpolation-filters="sRGB" filterUnits="userSpaceOnUse" height="4.625" width="3.41745" x="24.8055" y="4.41406"><feFlood flood-opacity="0" result="BackgroundImageFix"/><feBlend in="SourceGraphic" in2="BackgroundImageFix" mode="normal" result="shape"/><feGaussianBlur result="effect1_foregroundBlur_6898_5229" stdDeviation=".5"/></filter><filter id="d" color-interpolation-filters="sRGB" filterUnits="userSpaceOnUse" height="10.7286" width="8.94989" x="2.94611" y="3.22656"><feFlood flood-opacity="0" result="BackgroundImageFix"/><feBlend in="SourceGraphic" in2="BackgroundImageFix" mode="normal" result="shape"/><feGaussianBlur result="effect1_foregroundBlur_6898_5229" stdDeviation="1"/></filter><filter id="e" color-interpolation-filters="sRGB" filterUnits="userSpaceOnUse" height="3.02374" width="3.66141" x="13.7482" y="20.056"><feFlood flood-opacity="0" result="BackgroundImageFix"/><feBlend in="SourceGraphic" in2="BackgroundImageFix" mode="normal" result="shape"/><feGaussianBlur result="effect1_foregroundBlur_6898_5229" stdDeviation=".25"/></filter><filter id="f" color-interpolation-filters="sRGB" filterUnits="userSpaceOnUse" height="1.74852" width="2.72344" x="14.9086" y="19.8671"><feFlood flood-opacity="0" result="BackgroundImageFix"/><feBlend in="SourceGraphic" in2="BackgroundImageFix" mode="normal" result="shape"/><feGaussianBlur result="effect1_foregroundBlur_6898_5229" stdDeviation=".3"/></filter><filter id="g" color-interpolation-filters="sRGB" filterUnits="userSpaceOnUse" height="4.01282" width="6.00494" x="23.685" y="19.9796"><feFlood flood-opacity="0" result="BackgroundImageFix"/><feBlend in="SourceGraphic" in2="BackgroundImageFix" mode="normal" result="shape"/><feGaussianBlur result="effect1_foregroundBlur_6898_5229" stdDeviation=".25"/></filter><filter id="h" color-interpolation-filters="sRGB" filterUnits="userSpaceOnUse" height="3.56561" width="4.12671" x="23.6851" y="23.8235"><feFlood flood-opacity="0" result="BackgroundImageFix"/><feBlend in="SourceGraphic" in2="BackgroundImageFix" mode="normal" result="shape"/><feGaussianBlur result="effect1_foregroundBlur_6898_5229" stdDeviation=".25"/></filter><filter id="i" color-interpolation-filters="sRGB" filterUnits="userSpaceOnUse" height="3.11255" width="5.10474" x="24.9163" y="20.2484"><feFlood flood-opacity="0" result="BackgroundImageFix"/><feBlend in="SourceGraphic" in2="BackgroundImageFix" mode="normal" result="shape"/><feGaussianBlur result="effect1_foregroundBlur_6898_5229" stdDeviation=".25"/></filter><filter id="j" color-interpolation-filters="sRGB" filterUnits="userSpaceOnUse" height="1.3374" width="1.36264" x="28.9245" y="19.9119"><feFlood flood-opacity="0" result="BackgroundImageFix"/><feBlend in="SourceGraphic" in2="BackgroundImageFix" mode="normal" result="shape"/><feGaussianBlur result="effect1_foregroundBlur_6898_5229" stdDeviation=".25"/></filter><filter id="k" color-interpolation-filters="sRGB" filterUnits="userSpaceOnUse" height="3.11908" width="5.10162" x="24.8484" y="23.8991"><feFlood flood-opacity="0" result="BackgroundImageFix"/><feBlend in="SourceGraphic" in2="BackgroundImageFix" mode="normal" result="shape"/><feGaussianBlur result="effect1_foregroundBlur_6898_5229" stdDeviation=".25"/></filter><filter id="l" color-interpolation-filters="sRGB" filterUnits="userSpaceOnUse" height="1.34009" width="1.35999" x="28.8604" y="25.6981"><feFlood flood-opacity="0" result="BackgroundImageFix"/><feBlend in="SourceGraphic" in2="BackgroundImageFix" mode="normal" result="shape"/><feGaussianBlur result="effect1_foregroundBlur_6898_5229" stdDeviation=".25"/></filter><filter id="m" color-interpolation-filters="sRGB" filterUnits="userSpaceOnUse" height="3.11908" width="5.10162" x="2.14175" y="23.9108"><feFlood flood-opacity="0" result="BackgroundImageFix"/><feBlend in="SourceGraphic" in2="BackgroundImageFix" mode="normal" result="shape"/><feGaussianBlur result="effect1_foregroundBlur_6898_5229" stdDeviation=".25"/></filter><filter id="n" color-interpolation-filters="sRGB" filterUnits="userSpaceOnUse" height="1.33594" width="1.36395" x="5.96417" y="23.8369"><feFlood flood-opacity="0" result="BackgroundImageFix"/><feBlend in="SourceGraphic" in2="BackgroundImageFix" mode="normal" result="shape"/><feGaussianBlur result="effect1_foregroundBlur_6898_5229" stdDeviation=".25"/></filter><filter id="o" color-interpolation-filters="sRGB" filterUnits="userSpaceOnUse" height="3.09381" width="5.11365" x="2.21042" y="20.0551"><feFlood flood-opacity="0" result="BackgroundImageFix"/><feBlend in="SourceGraphic" in2="BackgroundImageFix" mode="normal" result="shape"/><feGaussianBlur result="effect1_foregroundBlur_6898_5229" stdDeviation=".25"/></filter><filter id="p" color-interpolation-filters="sRGB" filterUnits="userSpaceOnUse" height="1.36389" width="1.33606" x="6.08273" y="21.8224"><feFlood flood-opacity="0" result="BackgroundImageFix"/><feBlend in="SourceGraphic" in2="BackgroundImageFix" mode="normal" result="shape"/><feGaussianBlur result="effect1_foregroundBlur_6898_5229" stdDeviation=".25"/></filter><filter id="q" color-interpolation-filters="sRGB" filterUnits="userSpaceOnUse" height="22.1857" width="12.5851" x="18.1024" y="6.10156"><feFlood flood-opacity="0" result="BackgroundImageFix"/><feBlend in="SourceGraphic" in2="BackgroundImageFix" mode="normal" result="shape"/><feGaussianBlur result="effect1_foregroundBlur_6898_5229" stdDeviation="2"/></filter><filter id="r" color-interpolation-filters="sRGB" filterUnits="userSpaceOnUse" height="7.1375" width="4.825" x="22.4086" y="6.76719"><feFlood flood-opacity="0" result="BackgroundImageFix"/><feBlend in="SourceGraphic" in2="BackgroundImageFix" mode="normal" result="shape"/><feGaussianBlur result="effect1_foregroundBlur_6898_5229" stdDeviation=".3"/></filter><filter id="s" color-interpolation-filters="sRGB" filterUnits="userSpaceOnUse" height="4.73438" width="4.53125" x="22.7274" y="9.28906"><feFlood flood-opacity="0" result="BackgroundImageFix"/><feBlend in="SourceGraphic" in2="BackgroundImageFix" mode="normal" result="shape"/><feGaussianBlur result="effect1_foregroundBlur_6898_5229" stdDeviation=".375"/></filter><filter id="t" color-interpolation-filters="sRGB" filterUnits="userSpaceOnUse" height="6.90771" width="4.46875" x="4.72321" y="6.99927"><feFlood flood-opacity="0" result="BackgroundImageFix"/><feBlend in="SourceGraphic" in2="BackgroundImageFix" mode="normal" result="shape"/><feGaussianBlur result="effect1_foregroundBlur_6898_5229" stdDeviation=".25"/></filter><filter id="u" color-interpolation-filters="sRGB" filterUnits="userSpaceOnUse" height="6.33752" width="1.15002" x="4.64819" y="7.15155"><feFlood flood-opacity="0" result="BackgroundImageFix"/><feBlend in="SourceGraphic" in2="BackgroundImageFix" mode="normal" result="shape"/><feGaussianBlur result="effect1_foregroundBlur_6898_5229" stdDeviation=".25"/></filter><filter id="v" color-interpolation-filters="sRGB" filterUnits="userSpaceOnUse" height="1.25313" width="1.12813" x="20.975" y="18.7406"><feFlood flood-opacity="0" result="BackgroundImageFix"/><feBlend in="SourceGraphic" in2="BackgroundImageFix" mode="normal" result="shape"/><feGaussianBlur result="effect1_foregroundBlur_6898_5229" stdDeviation=".2"/></filter><filter id="w" color-interpolation-filters="sRGB" filterUnits="userSpaceOnUse" height="9.41132" width="9.85287" x="15.3509" y="13.1204"><feFlood flood-opacity="0" result="BackgroundImageFix"/><feBlend in="SourceGraphic" in2="BackgroundImageFix" mode="normal" result="shape"/><feGaussianBlur result="effect1_foregroundBlur_6898_5229" stdDeviation=".5"/></filter><filter id="x" color-interpolation-filters="sRGB" filterUnits="userSpaceOnUse" height="8.86224" width="9.17899" x="5.34515" y="13.1702"><feFlood flood-opacity="0" result="BackgroundImageFix"/><feBlend in="SourceGraphic" in2="BackgroundImageFix" mode="normal" result="shape"/><feGaussianBlur result="effect1_foregroundBlur_6898_5229" stdDeviation=".5"/></filter><filter id="y" color-interpolation-filters="sRGB" filterUnits="userSpaceOnUse" height="5.23438" width="3.04688" x="18.8323" y="13.2969"><feFlood flood-opacity="0" result="BackgroundImageFix"/><feBlend in="SourceGraphic" in2="BackgroundImageFix" mode="normal" result="shape"/><feGaussianBlur result="effect1_foregroundBlur_6898_5229" stdDeviation=".25"/></filter><filter id="z" color-interpolation-filters="sRGB" filterUnits="userSpaceOnUse" height="2.51562" width="2.98438" x="22.3792" y="14.6172"><feFlood flood-opacity="0" result="BackgroundImageFix"/><feBlend in="SourceGraphic" in2="BackgroundImageFix" mode="normal" result="shape"/><feGaussianBlur result="effect1_foregroundBlur_6898_5229" stdDeviation=".25"/></filter><filter id="A" color-interpolation-filters="sRGB" filterUnits="userSpaceOnUse" height="1.49219" width="1.76562" x="22.2776" y="13.9492"><feFlood flood-opacity="0" result="BackgroundImageFix"/><feBlend in="SourceGraphic" in2="BackgroundImageFix" mode="normal" result="shape"/><feGaussianBlur result="effect1_foregroundBlur_6898_5229" stdDeviation=".25"/></filter><filter id="B" color-interpolation-filters="sRGB" filterUnits="userSpaceOnUse" height="2.62195" width="1.34824" x="20.2791" y="14.9625"><feFlood flood-opacity="0" result="BackgroundImageFix"/><feBlend in="SourceGraphic" in2="BackgroundImageFix" mode="normal" result="shape"/><feGaussianBlur result="effect1_foregroundBlur_6898_5229" stdDeviation=".125"/></filter><filter id="C" color-interpolation-filters="sRGB" filterUnits="userSpaceOnUse" height="4.05878" width="4.03125" x="20.3323" y="14.3475"><feFlood flood-opacity="0" result="BackgroundImageFix"/><feBlend in="SourceGraphic" in2="BackgroundImageFix" mode="normal" result="shape"/><feGaussianBlur result="effect1_foregroundBlur_6898_5229" stdDeviation=".25"/></filter><filter id="D" color-interpolation-filters="sRGB" filterUnits="userSpaceOnUse" height="2.50732" width="2.96094" x="17.8792" y="13.0552"><feFlood flood-opacity="0" result="BackgroundImageFix"/><feBlend in="SourceGraphic" in2="BackgroundImageFix" mode="normal" result="shape"/><feGaussianBlur result="effect1_foregroundBlur_6898_5229" stdDeviation=".25"/></filter><filter id="E" color-interpolation-filters="sRGB" filterUnits="userSpaceOnUse" height="1.49384" width="1.76462" x="11.676" y="12.7836"><feFlood flood-opacity="0" result="BackgroundImageFix"/><feBlend in="SourceGraphic" in2="BackgroundImageFix" mode="normal" result="shape"/><feGaussianBlur result="effect1_foregroundBlur_6898_5229" stdDeviation=".25"/></filter><filter id="F" color-interpolation-filters="sRGB" filterUnits="userSpaceOnUse" height="2.55" width="2.19063" x="12.362" y="13.3891"><feFlood flood-opacity="0" result="BackgroundImageFix"/><feBlend in="SourceGraphic" in2="BackgroundImageFix" mode="normal" result="shape"/><feGaussianBlur result="effect1_foregroundBlur_6898_5229" stdDeviation=".2"/></filter><filter id="G" color-interpolation-filters="sRGB" filterUnits="userSpaceOnUse" height="3.37039" width="3.33438" x="8.19634" y="14.7968"><feFlood flood-opacity="0" result="BackgroundImageFix"/><feBlend in="SourceGraphic" in2="BackgroundImageFix" mode="normal" result="shape"/><feGaussianBlur result="effect1_foregroundBlur_6898_5229" stdDeviation=".15"/></filter><filter id="H" color-interpolation-filters="sRGB" filterUnits="userSpaceOnUse" height="4.92188" width="2.75003" x="11.8557" y="14.9609"><feFlood flood-opacity="0" result="BackgroundImageFix"/><feBlend in="SourceGraphic" in2="BackgroundImageFix" mode="normal" result="shape"/><feGaussianBlur result="effect1_foregroundBlur_6898_5229" stdDeviation=".25"/></filter><linearGradient id="I" gradientUnits="userSpaceOnUse" x1="7.90668" x2="7.90668" y1="1.34978" y2="30.99"><stop offset=".288159" stop-color="#f2cc26"/><stop offset=".762024" stop-color="#e99e20"/><stop offset=".9925" stop-color="#e3821d"/><stop offset="1" stop-color="#e3801d"/></linearGradient><linearGradient id="J"><stop offset="0" stop-color="#e99e20" stop-opacity="0"/><stop offset=".9925" stop-color="#e3821d"/><stop offset="1" stop-color="#e3801d"/></linearGradient><linearGradient id="K" gradientUnits="userSpaceOnUse" x1="8.83102" x2="1.16971" xlink:href="#J" y1="12.033" y2="12.033"/><linearGradient id="L" gradientUnits="userSpaceOnUse" x1="26.7911" x2="30.245" xlink:href="#J" y1="12.033" y2="12.033"/><linearGradient id="M" gradientUnits="userSpaceOnUse" x1="16.001" x2="16" y1="-1.59459" y2="30.99"><stop offset=".77079" stop-color="#f59639" stop-opacity="0"/><stop offset="1" stop-color="#ff63c4"/></linearGradient><linearGradient id="N" gradientUnits="userSpaceOnUse" x1="16" x2="16" y1="11.2521" y2="32.475"><stop offset=".854227" stop-color="#fff" stop-opacity="0"/><stop offset=".985362" stop-color="#fff"/></linearGradient><radialGradient id="O" cx="0" cy="0" gradientTransform="matrix(3.04568928 4.42400808 -8.78922202 6.05090198 22.1755 4.47688)" gradientUnits="userSpaceOnUse" r="1"><stop offset="0" stop-color="#ffa720"/><stop offset=".921158" stop-color="#ffa720" stop-opacity="0"/></radialGradient><linearGradient id="P" gradientUnits="userSpaceOnUse" x1="21.9081" x2="28.1649" y1="6.85159" y2="13.6953"><stop offset="0" stop-color="#ffa720"/><stop offset="1" stop-color="#ffa720" stop-opacity="0"/></linearGradient><linearGradient id="Q" gradientUnits="userSpaceOnUse" x1="10.6023" x2="4.74258" y1="10.6172" y2="10.0703"><stop offset=".437473" stop-color="#ed8c1b"/><stop offset="1" stop-color="#ffb03a"/></linearGradient><linearGradient id="R" gradientUnits="userSpaceOnUse" x1="27.0399" x2="26.4438" y1="4.96094" y2="7.30239"><stop offset=".28598" stop-color="#ffe792"/><stop offset="1" stop-color="#ffdd65" stop-opacity="0"/></linearGradient><linearGradient id="S" gradientUnits="userSpaceOnUse" x1="15.7508" x2="15.0789" y1="22.3512" y2="23.4449"><stop offset="0" stop-color="#e3900e"/><stop offset="1" stop-color="#ea9d26" stop-opacity="0"/></linearGradient><radialGradient id="T" cx="0" cy="0" gradientTransform="matrix(-1.89062885 -.95312092 .95875693 -1.90180855 16.4461 21.1797)" gradientUnits="userSpaceOnUse" r="1"><stop offset="0" stop-color="#ea088b"/><stop offset="1" stop-color="#e61e27"/></radialGradient><linearGradient id="U" gradientUnits="userSpaceOnUse" x1="17.2036" x2="15.6801" y1="20.7414" y2="20.7414"><stop offset="0" stop-color="#fff" stop-opacity=".9"/><stop offset="1" stop-color="#fff" stop-opacity="0"/></linearGradient><linearGradient id="V" gradientUnits="userSpaceOnUse" x1="24.2898" x2="28.0242" y1="23.236" y2="21.3203"><stop offset="0" stop-color="#e88105"/><stop offset="1" stop-color="#e37d02" stop-opacity="0"/></linearGradient><linearGradient id="W" gradientUnits="userSpaceOnUse" x1="24.2898" x2="28.0242" y1="24.5798" y2="26.4955"><stop offset=".286458" stop-color="#de7d07"/><stop offset=".817708" stop-color="#e37d02" stop-opacity="0"/></linearGradient><linearGradient id="X"><stop offset=".15625" stop-color="#d64a38"/><stop offset="1" stop-color="#fb7425"/></linearGradient><linearGradient id="Y" gradientUnits="userSpaceOnUse" x1="25.2898" x2="29.371" xlink:href="#X" y1="22.9453" y2="21.0078"/><linearGradient id="Z" gradientUnits="userSpaceOnUse" x1="25.0739" x2="29.1465" xlink:href="#X" y1="24.7096" y2="26.6651"/><linearGradient id="aa" gradientUnits="userSpaceOnUse" x1="7.01785" x2="2.94525" xlink:href="#X" y1="24.7214" y2="26.6768"/><linearGradient id="ab" gradientUnits="userSpaceOnUse" x1="6.81823" x2="2.72754" xlink:href="#X" y1="22.9292" y2="21.0118"/><linearGradient id="ac" gradientUnits="userSpaceOnUse" x1="16.0466" x2="16.0466" y1="27.5225" y2="23.1004"><stop offset="0" stop-color="#e61e27"/><stop offset="1" stop-color="#672a7a"/></linearGradient><linearGradient id="ad" gradientUnits="userSpaceOnUse" x1="23.3524" x2="22.9558" y1="10.8385" y2="22.8891"><stop offset=".548257" stop-color="#ffdd65"/><stop offset="1" stop-color="#ffdd65" stop-opacity="0"/></linearGradient><linearGradient id="ae" gradientUnits="userSpaceOnUse" x1="26.5398" x2="25.2898" y1="15.5078" y2="12.0391"><stop offset="0" stop-color="#ef8a47"/><stop offset="1" stop-color="#ef8a47" stop-opacity="0"/></linearGradient><radialGradient id="af" cx="0" cy="0" gradientTransform="matrix(4.40624866 6.46874874 -7.75589325 5.28299918 22.868 7.77344)" gradientUnits="userSpaceOnUse" r="1"><stop offset="0" stop-color="#ffdf70"/><stop offset="1" stop-color="#ffdf70" stop-opacity="0"/></radialGradient><linearGradient id="ag" gradientUnits="userSpaceOnUse" x1="25.0555" x2="25.0555" y1="10.4766" y2="12.8203"><stop offset=".432292" stop-color="#ffe7a3"/><stop offset="1" stop-color="#ffdf83" stop-opacity="0"/></linearGradient><linearGradient id="ah" gradientUnits="userSpaceOnUse" x1="18.625" x2="14.6875" y1="20" y2="24.9375"><stop offset="0" stop-color="#d68406"/><stop offset="1" stop-color="#dc8c10" stop-opacity="0"/></linearGradient><linearGradient id="ai" gradientUnits="userSpaceOnUse" x1="10.6437" x2="10.8151" y1="20.0216" y2="25.8518"><stop offset="0" stop-color="#da8503"/><stop offset="1" stop-color="#dc8c10" stop-opacity="0"/></linearGradient><radialGradient id="aj" cx="0" cy="0" gradientTransform="matrix(-1.03124992 6.12500231 -7.06816752 -1.19004808 20.6135 14.7188)" gradientUnits="userSpaceOnUse" r="1"><stop offset="0" stop-color="#f12e52"/><stop offset=".596003" stop-color="#ff3b79"/><stop offset="1" stop-color="#ff4ec6"/></radialGradient><linearGradient id="ak"><stop offset=".634872" stop-color="#ffa9bd" stop-opacity="0"/><stop offset=".833898" stop-color="#ffa9bd"/></linearGradient><radialGradient id="al" cx="0" cy="0" gradientTransform="matrix(2.78125074 4.53125393 -7.14330463 4.38450848 20.5823 16.3438)" gradientUnits="userSpaceOnUse" r="1" xlink:href="#ak"/><linearGradient id="am"><stop offset=".766579" stop-color="#ffa9bd" stop-opacity="0"/><stop offset=".933184" stop-color="#ffa9bd"/></linearGradient><radialGradient id="an" cx="0" cy="0" gradientTransform="matrix(-4.85637426 2.31252329 -5.70798398 -11.98695234 22.2073 16.5625)" gradientUnits="userSpaceOnUse" r="1" xlink:href="#am"/><linearGradient id="ao"><stop offset=".649211" stop-color="#ffa9bd" stop-opacity="0"/><stop offset=".909941" stop-color="#ffa9bd"/></linearGradient><radialGradient id="ap" cx="0" cy="0" gradientTransform="matrix(-4.70312664 -3.89062646 5.75632075 -6.95844376 20.5823 17.4063)" gradientUnits="userSpaceOnUse" r="1" xlink:href="#ao"/><linearGradient id="aq"><stop offset="0" stop-color="#ff7d9c"/><stop offset="1" stop-color="#f9698b" stop-opacity="0"/></linearGradient><linearGradient id="ar" gradientUnits="userSpaceOnUse" x1="21.9417" x2="18.9885" xlink:href="#aq" y1="16" y2="11.9844"/><linearGradient id="as" gradientUnits="userSpaceOnUse" x1="24.4104" x2="23.2393" xlink:href="#aq" y1="15.375" y2="15.1598"/><linearGradient id="at" gradientUnits="userSpaceOnUse" x1="23.3088" x2="22.8301" xlink:href="#aq" y1="14.3555" y2="14.4064"/><linearGradient id="au" gradientUnits="userSpaceOnUse" x1="21.2773" x2="20.6292" y1="15.2188" y2="17.5312"><stop offset="0" stop-color="#ff99b1"/><stop offset="1" stop-color="#ff8aa6" stop-opacity="0"/></linearGradient><linearGradient id="av"><stop offset="0" stop-color="#ff365b"/><stop offset="1" stop-color="#e72044"/></linearGradient><linearGradient id="aw" gradientUnits="userSpaceOnUse" x1="21.1448" x2="22.846" xlink:href="#av" y1="16.8594" y2="14.28"/><linearGradient id="ax" gradientUnits="userSpaceOnUse" x1="18.5499" x2="19.0828" xlink:href="#av" y1="14.3522" y2="13.1903"/><radialGradient id="ay" cx="0" cy="0" gradientTransform="matrix(-1.78128674 5.96873848 -6.88784182 -2.05558031 11.8714 14.9765)" gradientUnits="userSpaceOnUse" r="1"><stop offset=".0194914" stop-color="#f12e52"/><stop offset=".596003" stop-color="#ff3b79"/><stop offset="1" stop-color="#ff4ec6"/></radialGradient><radialGradient id="az" cx="0" cy="0" gradientTransform="matrix(-2.78122701 4.5312685 -7.14332759 -4.38447108 11.4177 16.3489)" gradientUnits="userSpaceOnUse" r="1" xlink:href="#ak"/><radialGradient id="aA" cx="0" cy="0" gradientTransform="matrix(4.85638637 2.31249786 -5.70792122 11.98698223 9.79272 16.5676)" gradientUnits="userSpaceOnUse" r="1" xlink:href="#am"/><radialGradient id="aB" cx="0" cy="0" gradientTransform="matrix(4.70312664 -3.89062646 5.75632075 6.95844376 11.4177 17.4114)" gradientUnits="userSpaceOnUse" r="1" xlink:href="#ao"/><linearGradient id="aC" gradientUnits="userSpaceOnUse" x1=".53125" x2=".052469" y1="-.09375" y2="-.042825"><stop offset="0" stop-color="#ffaabe"/><stop offset="1" stop-color="#f9698b" stop-opacity="0"/></linearGradient><linearGradient id="aD" gradientUnits="userSpaceOnUse" x1="14.012" x2="11.4785" xlink:href="#aq" y1="13.8984" y2="14.6932"/><linearGradient id="aE" gradientUnits="userSpaceOnUse" x1="10.9651" x2="8.8033" y1="16.6475" y2="15.0903"><stop offset="0" stop-color="#f97292"/><stop offset="1" stop-color="#f46889" stop-opacity="0"/></linearGradient><linearGradient id="aF" gradientUnits="userSpaceOnUse" x1="12.6354" x2="14.6324" y1="18.0011" y2="16.7529"><stop offset="0" stop-color="#dd2345" stop-opacity="0"/><stop offset=".544604" stop-color="#e72044"/><stop offset="1" stop-color="#d12847"/></linearGradient><path d="m4 25.942c0 2.2319 1.76327 4.058 3.91837 4.058h16.16323c2.1551 0 3.9184-1.9275 3.9184-4.1594v-19.4109c0-1.3-1.5901-1.9-2.4845-1l-4.5419 4.5703h-9.8119l-4.6617-4.5703c-.9-.9-2.5-.3-2.5 1z" fill="url(#I)"/><path d="m4 25.942c0 2.2319 1.76327 4.058 3.91837 4.058h16.16323c2.1551 0 3.9184-1.9275 3.9184-4.1594v-19.4109c0-1.3-1.5901-1.9-2.4845-1l-4.5419 4.5703h-9.8119l-4.6617-4.5703c-.9-.9-2.5-.3-2.5 1z" fill="url(#K)"/><path d="m4 25.942c0 2.2319 1.76327 4.058 3.91837 4.058h16.16323c2.1551 0 3.9184-1.9275 3.9184-4.1594v-19.4109c0-1.3-1.5901-1.9-2.4845-1l-4.5419 4.5703h-9.8119l-4.6617-4.5703c-.9-.9-2.5-.3-2.5 1z" fill="url(#L)"/><path d="m4 25.942c0 2.2319 1.76327 4.058 3.91837 4.058h16.16323c2.1551 0 3.9184-1.9275 3.9184-4.1594v-19.4109c0-1.3-1.5901-1.9-2.4845-1l-4.5419 4.5703h-9.8119l-4.6617-4.5703c-.9-.9-2.5-.3-2.5 1z" fill="url(#M)"/><path d="m4 25.942c0 2.2319 1.76327 4.058 3.91837 4.058h16.16323c2.1551 0 3.9184-1.9275 3.9184-4.1594v-19.4109c0-1.3-1.5901-1.9-2.4845-1l-4.5419 4.5703h-9.8119l-4.6617-4.5703c-.9-.9-2.5-.3-2.5 1z" fill="url(#N)"/><path d="m4 25.942c0 2.2319 1.76327 4.058 3.91837 4.058h16.16323c2.1551 0 3.9184-1.9275 3.9184-4.1594v-19.4109c0-1.3-1.5901-1.9-2.4845-1l-4.5419 4.5703h-9.8119l-4.6617-4.5703c-.9-.9-2.5-.3-2.5 1z" fill="url(#O)"/><g filter="url(#a)"><rect fill="#d67908" height="3.69801" rx="1.36346" width="2.72692" x="5.05408" y="21.8203"/></g><g filter="url(#b)"><path d="m20.7508 10.2007c-2.9833.1075 5.2265 4.9537 5.2265 4.9537l1.125-9.06245c.0547-.46094-.3641-.95351-1.25-.13098 0 0-3.8265 3.76801-4.0136 3.95222s-.408.24891-.7016.28751c-.1496.0196-.2356-.0055-.3863 0z" fill="url(#P)"/></g><path d="m6.13258 13.5034 2.8-2.6c.32-.3.32-.78 0-1.06996l-3.01468-2.67718c-.38282-.33594-1.17532-.22656-1.17532.60718v5.19996c0 .8335.88 1.02 1.39.54z" fill="url(#Q)"/><g filter="url(#c)"><path d="m26.4909 5.65184c.0579-.14368.1973-.23778.3522-.23778.2098 0 .3798.17005.3798.37982v2.24518l-1.4174-.6875z" fill="url(#R)"/></g><g filter="url(#d)"><path d="m5.44611 5.72656 3.37496 3.21954c.75411.71938.76824 1.9185.03129 2.6555" stroke="#ffdf70" stroke-linecap="round"/></g><g filter="url(#e)"><path d="m14.8054 20.6502.0643-.015c.4736-.1104.9669-.1053 1.438.015.5211.0982.8322.6955.3922 1.1255l-.5508.6016c-.27.27-.8628.27-1.1328 0l-.5429-.6016c-.4493-.5078-.168-1.0156.332-1.1255z" fill="url(#S)"/></g><path d="m15.2265 20.2066.0643-.015c.4736-.1105.9669-.1054 1.4381.015.5211.0981.8321.6954.3921 1.1254l-.5507.6016c-.27.27-.8628.27-1.1328 0l-.543-.6016c-.4492-.5078-.168-1.0156.332-1.1254z" fill="url(#T)"/><g filter="url(#f)"><ellipse cx="16.2703" cy="20.7414" fill="url(#U)" rx=".761719" ry=".274258"/></g><g filter="url(#g)"><path d="m24.7851 22.8923 3.8047-1.8125" stroke="url(#V)" stroke-linecap="round" stroke-miterlimit="10" stroke-width="1.2"/></g><g filter="url(#h)"><path d="m24.7851 24.9235 1.9266 1.3656" stroke="url(#W)" stroke-linecap="round" stroke-miterlimit="10" stroke-width="1.2"/></g><path d="m25.5663 22.5391 3.8047-1.8125" stroke="url(#Y)" stroke-linecap="round" stroke-miterlimit="10" stroke-width="1.2"/><g filter="url(#i)"><path d="m25.5663 22.7109 3.8047-1.8125" stroke="#ff8485" stroke-linecap="round" stroke-miterlimit="10" stroke-width=".3"/></g><g filter="url(#j)"><ellipse cx="29.6059" cy="20.5806" fill="#ffdd86" rx=".18384" ry=".165827" transform="matrix(.92223134 -.38663853 .38663853 .92223134 -5.654842 13.047307)"/></g><path d="m25.5636 24.6692 3.8016 1.8191" stroke="url(#Z)" stroke-linecap="round" stroke-miterlimit="10" stroke-width="1.2"/><g filter="url(#k)"><path d="m25.4984 24.5491 3.8016 1.8191" stroke="#ff8485" stroke-linecap="round" stroke-miterlimit="10" stroke-width=".3"/></g><g filter="url(#l)"><ellipse cx="29.5404" cy="26.3682" fill="#ffdd86" rx=".18384" ry=".165827" transform="matrix(.88049307 .47405901 -.47405901 .88049307 16.030365 -10.85271)"/></g><path d="m6.5281 24.681-3.80156 1.819" stroke="url(#aa)" stroke-linecap="round" stroke-miterlimit="10" stroke-width="1.2"/><g filter="url(#m)"><path d="m6.59334 24.5608-3.80155 1.8191" stroke="#ff8485" stroke-linecap="round" stroke-miterlimit="10" stroke-width=".3"/></g><g filter="url(#n)"><ellipse fill="#ffdd86" rx=".18384" ry=".165827" transform="matrix(-.942776 -.333427 -.333427 .942776 6.64614 24.5049)"/></g><path d="m6.53973 22.5243-3.81358-1.7938" stroke="url(#ab)" stroke-linecap="round" stroke-miterlimit="10" stroke-width="1.2"/><g filter="url(#o)"><path d="m6.67403 22.4988-3.81357-1.7937" stroke="#ff8485" stroke-linecap="round" stroke-miterlimit="10" stroke-width=".3"/></g><g filter="url(#p)"><ellipse fill="#ffdd86" rx=".18384" ry=".165827" transform="matrix(-.338111 -.941106 -.941106 .338111 6.75078 22.5043)"/></g><path d="m20.4179 23.0547c0 2.44-1.9819 4.3359-4.4219 4.3359s-4.3125-1.9428-4.3125-4.3828c0 0 1.8047 2.1328 4.3125 0 2.3516 2.0781 4.4219.0469 4.4219.0469z" fill="url(#ac)"/><g filter="url(#q)"><path d="m22.1024 10.1016h4.5851v14.1857h-4.5851z" fill="url(#ad)"/></g><path d="m25.8329 13.5034-2.8-2.6c-.32-.3-.32-.78 0-1.06996l3.0147-2.67718c.3828-.33594 1.1753-.22656 1.1753.60718v5.19996c0 .8335-.88 1.02-1.39.54z" fill="#ffb915"/><path d="m25.8329 13.5034-2.8-2.6c-.32-.3-.32-.78 0-1.06996l3.0147-2.67718c.3828-.33594 1.1753-.22656 1.1753.60718v5.19996c0 .8335-.88 1.02-1.39.54z" fill="url(#ae)"/><g filter="url(#r)"><path d="m26.6336 7.36719-3.625 3.12501 3.5469 2.8125z" fill="url(#af)"/></g><g filter="url(#s)"><path d="m23.7274 10.2891 2.5312 2.7343" stroke="url(#ag)" stroke-linecap="round" stroke-width=".5"/></g><g filter="url(#t)"><path d="m5.22321 7.49927v5.90773l3.46875-3.0894z" fill="#feb33e"/></g><g filter="url(#u)"><path d="m5.22321 7.72656v5.18754" stroke="#ffe7a3" stroke-linecap="round" stroke-width=".15"/></g><g filter="url(#v)"><ellipse cx="21.5391" cy="19.3672" fill="#715167" rx=".164062" ry=".226562"/></g><g filter="url(#w)"><path d="m18.9419 21.5238c-.1314.0282-.2652-.021-.3526-.1231-.8006-.9355-2.0781-2.7532-2.218-4.6819-.289-2.4922 2.5625-3.461 3.7579-1.7032.1023.1505.2302.3525.3277.5358.0784.1472.2769.219.425.1423.2318-.12.5215-.2534.716-.3109 1.6498-.4874 3.7422 1.4688 1.8672 3.7188-.7653 1.0522-3.2979 2.1599-4.5232 2.4222z" fill="url(#ah)"/></g><g filter="url(#x)"><path d="m11.7869 20.893c-.0817.1068-.2163.1561-.349.1344-1.1255-.1839-3.09746-.704-4.34098-1.9737-1.69113-1.5841-.25931-3.9688 1.63232-3.4432.15481.043.35416.1052.52703.1726.1554.0606.35391-.0134.41798-.1674.09068-.218.21021-.4718.30942-.6229.87203-1.3283 3.51433-1.1982 3.53553 1.5068.0881 1.1926-1.0246 3.4685-1.7323 4.3934z" fill="url(#ai)"/></g><path d="m19.9419 20.5238c-.1314.0282-.2652-.021-.3526-.1231-.8006-.9355-2.0781-2.7532-2.218-4.6819-.289-2.4922 2.5625-3.461 3.7579-1.7032.1023.1505.2302.3525.3277.5358.0784.1472.2769.219.425.1423.2318-.12.5215-.2534.716-.3109 1.6498-.4874 3.7422 1.4688 1.8672 3.7188-.7653 1.0522-3.2979 2.1599-4.5232 2.4222z" fill="url(#aj)"/><path d="m19.9419 20.5238c-.1314.0282-.2652-.021-.3526-.1231-.8006-.9355-2.0781-2.7532-2.218-4.6819-.289-2.4922 2.5625-3.461 3.7579-1.7032.1023.1505.2302.3525.3277.5358.0784.1472.2769.219.425.1423.2318-.12.5215-.2534.716-.3109 1.6498-.4874 3.7422 1.4688 1.8672 3.7188-.7653 1.0522-3.2979 2.1599-4.5232 2.4222z" fill="url(#al)"/><path d="m19.9419 20.5238c-.1314.0282-.2652-.021-.3526-.1231-.8006-.9355-2.0781-2.7532-2.218-4.6819-.289-2.4922 2.5625-3.461 3.7579-1.7032.1023.1505.2302.3525.3277.5358.0784.1472.2769.219.425.1423.2318-.12.5215-.2534.716-.3109 1.6498-.4874 3.7422 1.4688 1.8672 3.7188-.7653 1.0522-3.2979 2.1599-4.5232 2.4222z" fill="url(#an)"/><path d="m19.9419 20.5238c-.1314.0282-.2652-.021-.3526-.1231-.8006-.9355-2.0781-2.7532-2.218-4.6819-.289-2.4922 2.5625-3.461 3.7579-1.7032.1023.1505.2302.3525.3277.5358.0784.1472.2769.219.425.1423.2318-.12.5215-.2534.716-.3109 1.6498-.4874 3.7422 1.4688 1.8672 3.7188-.7653 1.0522-3.2979 2.1599-4.5232 2.4222z" fill="url(#ap)"/><g filter="url(#y)"><path d="m20.6135 18.0312.7657-2.6562c-.125-.5781-.5938-1.3438-1.0313-1.5781l-1.0156 1.1093z" fill="url(#ar)"/></g><g filter="url(#z)"><path d="m22.8792 16.6328 1.414-1.5156c.4125.3.5703.8125.5703 1.0547z" fill="url(#as)"/></g><g filter="url(#A)"><ellipse cx="23.1604" cy="14.6953" fill="url(#at)" rx=".382812" ry=".246094"/></g><g filter="url(#B)"><path d="m21.2773 15.3125-.6481 1.9219" stroke="url(#au)" stroke-linecap="round" stroke-width=".2"/></g><g filter="url(#C)"><path d="m21.8167 15.1719-.9844 2.7343 3.0312-2.7343c-1.0125-.5875-1.7864-.2448-2.0468 0z" fill="url(#aw)"/></g><g filter="url(#D)"><path d="m20.3401 13.7969-1.2266 1.2656-.7343-1.0156c.6718-.7735 1.7057-.4532 1.9609-.25z" fill="url(#ax)"/></g><path d="m12.0581 20.5289c.1314.0282.2652-.021.3526-.1231.8006-.9355 2.0781-2.7532 2.218-4.6819.289-2.4922-2.5625-3.4609-3.7579-1.7031-.1023.1505-.2302.3524-.3277.5357-.0784.1472-.2769.219-.425.1423-.23181-.12-.5215-.2534-.71601-.3108-1.64983-.4875-3.74218 1.4687-1.86718 3.7187.76527 1.0522 3.29789 2.16 4.52319 2.4222z" fill="url(#ay)"/><path d="m12.0581 20.5289c.1314.0282.2652-.021.3526-.1231.8006-.9355 2.0781-2.7532 2.218-4.6819.289-2.4922-2.5625-3.4609-3.7579-1.7031-.1023.1505-.2302.3524-.3277.5357-.0784.1472-.2769.219-.425.1423-.23181-.12-.5215-.2534-.71601-.3108-1.64983-.4875-3.74218 1.4687-1.86718 3.7187.76527 1.0522 3.29789 2.16 4.52319 2.4222z" fill="url(#az)"/><path d="m12.0581 20.5289c.1314.0282.2652-.021.3526-.1231.8006-.9355 2.0781-2.7532 2.218-4.6819.289-2.4922-2.5625-3.4609-3.7579-1.7031-.1023.1505-.2302.3524-.3277.5357-.0784.1472-.2769.219-.425.1423-.23181-.12-.5215-.2534-.71601-.3108-1.64983-.4875-3.74218 1.4687-1.86718 3.7187.76527 1.0522 3.29789 2.16 4.52319 2.4222z" fill="url(#aA)"/><path d="m12.0581 20.5289c.1314.0282.2652-.021.3526-.1231.8006-.9355 2.0781-2.7532 2.218-4.6819.289-2.4922-2.5625-3.4609-3.7579-1.7031-.1023.1505-.2302.3524-.3277.5357-.0784.1472-.2769.219-.425.1423-.23181-.12-.5215-.2534-.71601-.3108-1.64983-.4875-3.74218 1.4687-1.86718 3.7187.76527 1.0522 3.29789 2.16 4.52319 2.4222z" fill="url(#aB)"/><g filter="url(#E)"><ellipse fill="url(#aC)" rx=".382812" ry=".246094" transform="matrix(-.997701 -.0677696 -.0677696 .997701 12.5583 13.5306)"/></g><g filter="url(#F)"><path d="m12.762 14.9297.7187-1.1406c.3906.2656.6719.75.6719 1.3281l-1.1875.4219z" fill="url(#aD)"/></g><g filter="url(#G)"><path d="m10.4182 15.8203.8125 2.0469-2.73436-2.0469c.60937-1.2656 1.73436-.6094 1.92186 0z" fill="url(#aE)"/></g><g filter="url(#H)"><path d="m13.9807 15.5859c-.0625.5417-.45 2.0344-1.5 3.6719" stroke="url(#aF)" stroke-linecap="round" stroke-width=".25"/></g></svg>