<svg fill="none" height="32" viewBox="0 0 32 32" width="32" xmlns="http://www.w3.org/2000/svg" xmlns:xlink="http://www.w3.org/1999/xlink"><filter id="a" color-interpolation-filters="sRGB" filterUnits="userSpaceOnUse" height="14.5948" width="6.55583" x="9.21191" y="15.824"><feFlood flood-opacity="0" result="BackgroundImageFix"/><feBlend in="SourceGraphic" in2="BackgroundImageFix" mode="normal" result="shape"/><feGaussianBlur result="effect1_foregroundBlur_4002_2102" stdDeviation=".5"/></filter><filter id="b" color-interpolation-filters="sRGB" filterUnits="userSpaceOnUse" height="13.3618" width="3.94995" x="17.96" y="16.3015"><feFlood flood-opacity="0" result="BackgroundImageFix"/><feBlend in="SourceGraphic" in2="BackgroundImageFix" mode="normal" result="shape"/><feGaussianBlur result="effect1_foregroundBlur_4002_2102" stdDeviation=".375"/></filter><filter id="c" color-interpolation-filters="sRGB" filterUnits="userSpaceOnUse" height="14" width="2.8968" x="10.5032" y="16.0669"><feFlood flood-opacity="0" result="BackgroundImageFix"/><feBlend in="SourceGraphic" in2="BackgroundImageFix" mode="normal" result="shape"/><feColorMatrix in="SourceAlpha" result="hardAlpha" type="matrix" values="0 0 0 0 0 0 0 0 0 0 0 0 0 0 0 0 0 0 127 0"/><feOffset dx=".1" dy=".1"/><feGaussianBlur stdDeviation=".1"/><feComposite in2="hardAlpha" k2="-1" k3="1" operator="arithmetic"/><feColorMatrix type="matrix" values="0 0 0 0 0.403922 0 0 0 0 0.368627 0 0 0 0 0.494118 0 0 0 1 0"/><feBlend in2="shape" mode="normal" result="effect1_innerShadow_4002_2102"/></filter><filter id="d" color-interpolation-filters="sRGB" filterUnits="userSpaceOnUse" height="2.88284" width="2.73358" x="14.6245" y="18.204"><feFlood flood-opacity="0" result="BackgroundImageFix"/><feBlend in="SourceGraphic" in2="BackgroundImageFix" mode="normal" result="shape"/><feColorMatrix in="SourceAlpha" result="hardAlpha" type="matrix" values="0 0 0 0 0 0 0 0 0 0 0 0 0 0 0 0 0 0 127 0"/><feOffset dx=".1" dy="-.1"/><feGaussianBlur stdDeviation=".25"/><feComposite in2="hardAlpha" k2="-1" k3="1" operator="arithmetic"/><feColorMatrix type="matrix" values="0 0 0 0 0.156863 0 0 0 0 0.0980392 0 0 0 0 0.215686 0 0 0 1 0"/><feBlend in2="shape" mode="normal" result="effect1_innerShadow_4002_2102"/><feColorMatrix in="SourceAlpha" result="hardAlpha" type="matrix" values="0 0 0 0 0 0 0 0 0 0 0 0 0 0 0 0 0 0 127 0"/><feOffset dx="-.1" dy="-.1"/><feGaussianBlur stdDeviation=".25"/><feComposite in2="hardAlpha" k2="-1" k3="1" operator="arithmetic"/><feColorMatrix type="matrix" values="0 0 0 0 0.156863 0 0 0 0 0.0980392 0 0 0 0 0.215686 0 0 0 1 0"/><feBlend in2="effect1_innerShadow_4002_2102" mode="normal" result="effect2_innerShadow_4002_2102"/></filter><filter id="e" color-interpolation-filters="sRGB" filterUnits="userSpaceOnUse" height="14.05" width="2.90215" x="18.61" y="16.0168"><feFlood flood-opacity="0" result="BackgroundImageFix"/><feBlend in="SourceGraphic" in2="BackgroundImageFix" mode="normal" result="shape"/><feColorMatrix in="SourceAlpha" result="hardAlpha" type="matrix" values="0 0 0 0 0 0 0 0 0 0 0 0 0 0 0 0 0 0 127 0"/><feOffset dx="-.1" dy=".1"/><feGaussianBlur stdDeviation=".1"/><feComposite in2="hardAlpha" k2="-1" k3="1" operator="arithmetic"/><feColorMatrix type="matrix" values="0 0 0 0 0.439216 0 0 0 0 0.415686 0 0 0 0 0.584314 0 0 0 1 0"/><feBlend in2="shape" mode="normal" result="effect1_innerShadow_4002_2102"/></filter><filter id="f" color-interpolation-filters="sRGB" filterUnits="userSpaceOnUse" height="12.5417" width="10.9704" x="10.9219" y="4.68945"><feFlood flood-opacity="0" result="BackgroundImageFix"/><feBlend in="SourceGraphic" in2="BackgroundImageFix" mode="normal" result="shape"/><feColorMatrix in="SourceAlpha" result="hardAlpha" type="matrix" values="0 0 0 0 0 0 0 0 0 0 0 0 0 0 0 0 0 0 127 0"/><feOffset dx=".75"/><feGaussianBlur stdDeviation=".6"/><feComposite in2="hardAlpha" k2="-1" k3="1" operator="arithmetic"/><feColorMatrix type="matrix" values="0 0 0 0 0.843137 0 0 0 0 0.611765 0 0 0 0 0.498039 0 0 0 1 0"/><feBlend in2="shape" mode="normal" result="effect1_innerShadow_4002_2102"/><feColorMatrix in="SourceAlpha" result="hardAlpha" type="matrix" values="0 0 0 0 0 0 0 0 0 0 0 0 0 0 0 0 0 0 127 0"/><feOffset dy=".2"/><feGaussianBlur stdDeviation=".375"/><feComposite in2="hardAlpha" k2="-1" k3="1" operator="arithmetic"/><feColorMatrix type="matrix" values="0 0 0 0 0.776471 0 0 0 0 0.54902 0 0 0 0 0.423529 0 0 0 1 0"/><feBlend in2="effect1_innerShadow_4002_2102" mode="normal" result="effect2_innerShadow_4002_2102"/></filter><filter id="g" color-interpolation-filters="sRGB" filterUnits="userSpaceOnUse" height="4.82361" width="3.75435" x="13.8394" y="9.11255"><feFlood flood-opacity="0" result="BackgroundImageFix"/><feBlend in="SourceGraphic" in2="BackgroundImageFix" mode="normal" result="shape"/><feGaussianBlur result="effect1_foregroundBlur_4002_2102" stdDeviation=".5"/></filter><filter id="h" color-interpolation-filters="sRGB" filterUnits="userSpaceOnUse" height="3.10002" width="2.07727" x="14.9464" y="9.74033"><feFlood flood-opacity="0" result="BackgroundImageFix"/><feBlend in="SourceGraphic" in2="BackgroundImageFix" mode="normal" result="shape"/><feGaussianBlur result="effect1_foregroundBlur_4002_2102" stdDeviation=".05"/></filter><filter id="i" color-interpolation-filters="sRGB" filterUnits="userSpaceOnUse" height="1.57292" width="3.71845" x="14.1258" y="13.1607"><feFlood flood-opacity="0" result="BackgroundImageFix"/><feBlend in="SourceGraphic" in2="BackgroundImageFix" mode="normal" result="shape"/><feGaussianBlur result="effect1_foregroundBlur_4002_2102" stdDeviation=".05"/></filter><filter id="j" color-interpolation-filters="sRGB" filterUnits="userSpaceOnUse" height="8.35657" width="12.8727" x="9.54871" y="1.51318"><feFlood flood-opacity="0" result="BackgroundImageFix"/><feBlend in="SourceGraphic" in2="BackgroundImageFix" mode="normal" result="shape"/><feColorMatrix in="SourceAlpha" result="hardAlpha" type="matrix" values="0 0 0 0 0 0 0 0 0 0 0 0 0 0 0 0 0 0 127 0"/><feOffset dy="-.5"/><feGaussianBlur stdDeviation=".625"/><feComposite in2="hardAlpha" k2="-1" k3="1" operator="arithmetic"/><feColorMatrix type="matrix" values="0 0 0 0 0.913725 0 0 0 0 0.733333 0 0 0 0 0.592157 0 0 0 1 0"/><feBlend in2="shape" mode="normal" result="effect1_innerShadow_4002_2102"/><feColorMatrix in="SourceAlpha" result="hardAlpha" type="matrix" values="0 0 0 0 0 0 0 0 0 0 0 0 0 0 0 0 0 0 127 0"/><feOffset dy="-.2"/><feGaussianBlur stdDeviation=".2"/><feComposite in2="hardAlpha" k2="-1" k3="1" operator="arithmetic"/><feColorMatrix type="matrix" values="0 0 0 0 0.87451 0 0 0 0 0.678431 0 0 0 0 0.556863 0 0 0 1 0"/><feBlend in2="effect1_innerShadow_4002_2102" mode="normal" result="effect2_innerShadow_4002_2102"/></filter><filter id="k" color-interpolation-filters="sRGB" filterUnits="userSpaceOnUse" height="1.19048" width="2.33886" x="17.5743" y="7.17671"><feFlood flood-opacity="0" result="BackgroundImageFix"/><feBlend in="SourceGraphic" in2="BackgroundImageFix" mode="normal" result="shape"/><feColorMatrix in="SourceAlpha" result="hardAlpha" type="matrix" values="0 0 0 0 0 0 0 0 0 0 0 0 0 0 0 0 0 0 127 0"/><feOffset dx=".1" dy="-.2"/><feGaussianBlur stdDeviation=".125"/><feComposite in2="hardAlpha" k2="-1" k3="1" operator="arithmetic"/><feColorMatrix type="matrix" values="0 0 0 0 0.470588 0 0 0 0 0.270588 0 0 0 0 0.160784 0 0 0 1 0"/><feBlend in2="shape" mode="normal" result="effect1_innerShadow_4002_2102"/></filter><filter id="l" color-interpolation-filters="sRGB" filterUnits="userSpaceOnUse" height="1.17571" width="2.33888" x="12.318" y="7.19136"><feFlood flood-opacity="0" result="BackgroundImageFix"/><feBlend in="SourceGraphic" in2="BackgroundImageFix" mode="normal" result="shape"/><feColorMatrix in="SourceAlpha" result="hardAlpha" type="matrix" values="0 0 0 0 0 0 0 0 0 0 0 0 0 0 0 0 0 0 127 0"/><feOffset dx=".1" dy="-.2"/><feGaussianBlur stdDeviation=".125"/><feComposite in2="hardAlpha" k2="-1" k3="1" operator="arithmetic"/><feColorMatrix type="matrix" values="0 0 0 0 0.470588 0 0 0 0 0.270588 0 0 0 0 0.160784 0 0 0 1 0"/><feBlend in2="shape" mode="normal" result="effect1_innerShadow_4002_2102"/></filter><filter id="m" color-interpolation-filters="sRGB" filterUnits="userSpaceOnUse" height="5.99182" width="6.58437" x="9.9043" y="2.60205"><feFlood flood-opacity="0" result="BackgroundImageFix"/><feBlend in="SourceGraphic" in2="BackgroundImageFix" mode="normal" result="shape"/><feGaussianBlur result="effect1_foregroundBlur_4002_2102" stdDeviation=".125"/></filter><filter id="n" color-interpolation-filters="sRGB" filterUnits="userSpaceOnUse" height="5.73584" width="6.3615" x="15.8261" y="3.1311"><feFlood flood-opacity="0" result="BackgroundImageFix"/><feBlend in="SourceGraphic" in2="BackgroundImageFix" mode="normal" result="shape"/><feGaussianBlur result="effect1_foregroundBlur_4002_2102" stdDeviation=".125"/></filter><filter id="o" color-interpolation-filters="sRGB" filterUnits="userSpaceOnUse" height=".696338" width=".786838" x="17.433" y="9.50425"><feFlood flood-opacity="0" result="BackgroundImageFix"/><feBlend in="SourceGraphic" in2="BackgroundImageFix" mode="normal" result="shape"/><feGaussianBlur result="effect1_foregroundBlur_4002_2102" stdDeviation=".05"/></filter><filter id="p" color-interpolation-filters="sRGB" filterUnits="userSpaceOnUse" height=".913428" width=".891226" x="18.2729" y="9.5793"><feFlood flood-opacity="0" result="BackgroundImageFix"/><feBlend in="SourceGraphic" in2="BackgroundImageFix" mode="normal" result="shape"/><feGaussianBlur result="effect1_foregroundBlur_4002_2102" stdDeviation=".1"/></filter><filter id="q" color-interpolation-filters="sRGB" filterUnits="userSpaceOnUse" height="1.04026" width=".986334" x="13.8302" y="9.51606"><feFlood flood-opacity="0" result="BackgroundImageFix"/><feBlend in="SourceGraphic" in2="BackgroundImageFix" mode="normal" result="shape"/><feGaussianBlur result="effect1_foregroundBlur_4002_2102" stdDeviation=".1"/></filter><filter id="r" color-interpolation-filters="sRGB" filterUnits="userSpaceOnUse" height=".704517" width=".913074" x="13.0753" y="9.49631"><feFlood flood-opacity="0" result="BackgroundImageFix"/><feBlend in="SourceGraphic" in2="BackgroundImageFix" mode="normal" result="shape"/><feGaussianBlur result="effect1_foregroundBlur_4002_2102" stdDeviation=".05"/></filter><filter id="s" color-interpolation-filters="sRGB" filterUnits="userSpaceOnUse" height="2.37939" width="1.3289" x="9.95239" y="9.4126"><feFlood flood-opacity="0" result="BackgroundImageFix"/><feBlend in="SourceGraphic" in2="BackgroundImageFix" mode="normal" result="shape"/><feGaussianBlur result="effect1_foregroundBlur_4002_2102" stdDeviation=".125"/></filter><filter id="t" color-interpolation-filters="sRGB" filterUnits="userSpaceOnUse" height="2.40332" width="1.44653" x="20.697" y="9.39697"><feFlood flood-opacity="0" result="BackgroundImageFix"/><feBlend in="SourceGraphic" in2="BackgroundImageFix" mode="normal" result="shape"/><feGaussianBlur result="effect1_foregroundBlur_4002_2102" stdDeviation=".125"/></filter><filter id="u" color-interpolation-filters="sRGB" filterUnits="userSpaceOnUse" height="1.16016" width="2.40521" x="12.2368" y="7.26611"><feFlood flood-opacity="0" result="BackgroundImageFix"/><feBlend in="SourceGraphic" in2="BackgroundImageFix" mode="normal" result="shape"/><feGaussianBlur result="effect1_foregroundBlur_4002_2102" stdDeviation=".125"/></filter><filter id="v" color-interpolation-filters="sRGB" filterUnits="userSpaceOnUse" height="1.16016" width="2.40521" x="17.5159" y="7.21997"><feFlood flood-opacity="0" result="BackgroundImageFix"/><feBlend in="SourceGraphic" in2="BackgroundImageFix" mode="normal" result="shape"/><feGaussianBlur result="effect1_foregroundBlur_4002_2102" stdDeviation=".125"/></filter><linearGradient id="w" gradientUnits="userSpaceOnUse" x1="15.9999" x2="15.9999" y1="16.2883" y2="31.2258"><stop offset="0" stop-color="#534973"/><stop offset="1" stop-color="#584982"/></linearGradient><radialGradient id="x" cx="0" cy="0" gradientTransform="matrix(0 -16.4313 6.37009 0 22.9949 25.4696)" gradientUnits="userSpaceOnUse" r="1"><stop offset=".155797" stop-color="#7b74a6"/><stop offset="1" stop-color="#5f5490" stop-opacity="0"/></radialGradient><radialGradient id="y" cx="0" cy="0" gradientTransform="matrix(0 10.1215 -4.59696 0 16 23.0419)" gradientUnits="userSpaceOnUse" r="1"><stop offset=".397031" stop-color="#c6bbd1"/><stop offset="1" stop-color="#a89cb3"/></radialGradient><linearGradient id="z" gradientUnits="userSpaceOnUse" x1="18.9031" x2="17.0593" y1="25.2885" y2="25.2885"><stop offset="0" stop-color="#7a6c85"/><stop offset="1" stop-color="#c7bcd2" stop-opacity="0"/></linearGradient><linearGradient id="A" gradientUnits="userSpaceOnUse" x1="15.5906" x2="15.6687" y1="17.8353" y2="21.726"><stop offset="0" stop-color="#877f93"/><stop offset="1" stop-color="#877f93" stop-opacity="0"/></linearGradient><radialGradient id="B" cx="0" cy="0" gradientTransform="matrix(0 -10.3135 1.68433 0 25 29.9769)" gradientUnits="userSpaceOnUse" r="1"><stop offset="0" stop-color="#776d9f"/><stop offset="1" stop-color="#6d6193"/></radialGradient><linearGradient id="C" gradientUnits="userSpaceOnUse" x1="23" x2="23.7438" y1="29.4639" y2="29.4401"><stop offset=".275571" stop-color="#504176"/><stop offset="1" stop-color="#504176" stop-opacity="0"/></linearGradient><linearGradient id="D" gradientUnits="userSpaceOnUse" x1="11.9016" x2="11.9016" y1="16.0669" y2="29.9669"><stop offset="0" stop-color="#544a76"/><stop offset=".524033" stop-color="#5f5289"/></linearGradient><linearGradient id="E" gradientUnits="userSpaceOnUse" x1="13.6709" x2="13.0501" y1="22.5262" y2="22.5262"><stop offset="0" stop-color="#3e305b"/><stop offset="1" stop-color="#553a63" stop-opacity="0"/></linearGradient><radialGradient id="F" cx="0" cy="0" gradientTransform="matrix(-1.53126491 2.09374127 -2.90145657 -2.12199027 13.7156 16.351)" gradientUnits="userSpaceOnUse" r="1"><stop offset="0" stop-color="#3c2e57"/><stop offset="1" stop-color="#3c2e57" stop-opacity="0"/></radialGradient><linearGradient id="G" gradientUnits="userSpaceOnUse" x1="11.9016" x2="12.8388" y1="25.9429" y2="25.5414"><stop offset=".195813" stop-color="#55477c"/><stop offset="1" stop-color="#594c7d" stop-opacity="0"/></linearGradient><radialGradient id="H" cx="0" cy="0" gradientTransform="matrix(1.0937527 -.31250086 .15357602 .53751591 11.3953 19.7338)" gradientUnits="userSpaceOnUse" r="1"><stop offset=".241347" stop-color="#4b3b6d"/><stop offset="1" stop-color="#4b3b6d" stop-opacity="0"/></radialGradient><linearGradient id="I" gradientUnits="userSpaceOnUse" x1="15.9884" x2="15.9884" y1="18.9602" y2="20.9446"><stop offset=".00558659" stop-color="#4b375e"/><stop offset="1" stop-color="#483b55"/></linearGradient><linearGradient id="J" gradientUnits="userSpaceOnUse" x1="18.71" x2="20.111" y1="21.5737" y2="21.5737"><stop offset=".0932249" stop-color="#453d68"/><stop offset="1" stop-color="#625a91" stop-opacity="0"/></linearGradient><radialGradient id="K" cx="0" cy="0" gradientTransform="matrix(0 3.75 -4.3769 0 16 18.4915)" gradientUnits="userSpaceOnUse" r="1"><stop offset=".3625" stop-color="#cac3d3"/><stop offset="1" stop-color="#a093a3"/></radialGradient><radialGradient id="L" cx="0" cy="0" gradientTransform="matrix(0 -5.1875 6.81546 0 16 20.9885)" gradientUnits="userSpaceOnUse" r="1"><stop offset=".532569" stop-color="#837a8d" stop-opacity="0"/><stop offset=".875943" stop-color="#544a5f"/></radialGradient><linearGradient id="M" gradientUnits="userSpaceOnUse" x1="9.45187" x2="7.01987" y1="23.9842" y2="23.9842"><stop offset="0" stop-color="#41375c"/><stop offset="1" stop-color="#584a7e" stop-opacity="0"/></linearGradient><radialGradient id="N" cx="0" cy="0" gradientTransform="matrix(0 8.8125 -3.45478 0 15.9829 21.3822)" gradientUnits="userSpaceOnUse" r="1"><stop offset=".00558659" stop-color="#56406d"/><stop offset=".939716" stop-color="#3d3247"/></radialGradient><linearGradient id="O"><stop offset="0" stop-color="#2b1b3a"/><stop offset="1" stop-color="#2b1b3a" stop-opacity="0"/></linearGradient><linearGradient id="P" gradientUnits="userSpaceOnUse" x1="14.6062" x2="14.8992" xlink:href="#O" y1="24.847" y2="24.8861"/><linearGradient id="Q" gradientUnits="userSpaceOnUse" x1="17.4109" x2="17.0125" xlink:href="#O" y1="24.6635" y2="24.7103"/><radialGradient id="R" cx="0" cy="0" gradientTransform="matrix(-1.42102734 -1.24998586 2.39751906 -2.72558294 17.4504 17.8451)" gradientUnits="userSpaceOnUse" r="1"><stop offset="0" stop-color="#b68577"/><stop offset="1" stop-color="#ac7073"/></radialGradient><radialGradient id="S" cx="0" cy="0" gradientTransform="matrix(-.60934623 3.53446863 -4.19867016 -.7238553 21.444 11.6362)" gradientUnits="userSpaceOnUse" r="1"><stop offset=".28005" stop-color="#f7bf94"/><stop offset="1" stop-color="#da8f78"/></radialGradient><radialGradient id="T" cx="0" cy="0" gradientTransform="matrix(1.27386025 2.68181325 -1.21900931 .57902895 10.4371 11.9191)" gradientUnits="userSpaceOnUse" r="1"><stop offset="0" stop-color="#f8bf95"/><stop offset="1" stop-color="#dc998e"/></radialGradient><radialGradient id="U" cx="0" cy="0" gradientTransform="matrix(.17930061 1.19362832 -1.04706269 .15728428 11.2384 11.7144)" gradientUnits="userSpaceOnUse" r="1"><stop offset=".263377" stop-color="#d79b77"/><stop offset="1" stop-color="#d79b77" stop-opacity="0"/></radialGradient><radialGradient id="V" cx="0" cy="0" gradientTransform="matrix(-5.22785 0 0 -9.24802 18.7928 10.8603)" gradientUnits="userSpaceOnUse" r="1"><stop offset="0" stop-color="#ffc59f"/><stop offset="1" stop-color="#c8917d"/></radialGradient><linearGradient id="W" gradientUnits="userSpaceOnUse" x1="21.1423" x2="16.7896" y1="12.5458" y2="12.5458"><stop offset="0" stop-color="#f7c29d"/><stop offset="1" stop-color="#f7c29d" stop-opacity="0"/></linearGradient><radialGradient id="X" cx="0" cy="0" gradientTransform="matrix(0 7.3125 -10.0786 0 16.2318 9.87999)" gradientUnits="userSpaceOnUse" r="1"><stop offset=".645299" stop-color="#cc9089" stop-opacity="0"/><stop offset=".944444" stop-color="#b87387"/><stop offset="1" stop-color="#ad638b"/></radialGradient><radialGradient id="Y" cx="0" cy="0" gradientTransform="matrix(0 -1.34091 1.65937 0 18.4323 9.73997)" gradientUnits="userSpaceOnUse" r="1"><stop offset=".325" stop-color="#e4a38d"/><stop offset="1" stop-color="#e4a38d" stop-opacity="0"/></radialGradient><radialGradient id="Z" cx="0" cy="0" gradientTransform="matrix(-.05806444 -1.10340329 1.20075859 -.06318758 13.7469 9.60303)" gradientUnits="userSpaceOnUse" r="1"><stop offset=".377617" stop-color="#c2847c"/><stop offset="1" stop-color="#c2847c" stop-opacity="0"/></radialGradient><radialGradient id="aa" cx="0" cy="0" gradientTransform="matrix(1.20682 0 0 6.13397 11.1042 11.2449)" gradientUnits="userSpaceOnUse" r="1"><stop offset="0" stop-color="#dba085"/><stop offset="1" stop-color="#dba085" stop-opacity="0"/></radialGradient><radialGradient id="ab" cx="0" cy="0" gradientTransform="matrix(2.61476816 -3.65396692 .82763104 .59225038 10.1321 7.85913)" gradientUnits="userSpaceOnUse" r="1"><stop offset=".450932" stop-color="#b67459"/><stop offset="1" stop-color="#b67459" stop-opacity="0"/></radialGradient><radialGradient id="ac" cx="0" cy="0" gradientTransform="matrix(-2.41359931 -10.24297763 11.28289755 -2.65864036 15.8309 14.9324)" gradientUnits="userSpaceOnUse" r="1"><stop offset=".92388" stop-color="#c17f5f" stop-opacity="0"/><stop offset="1" stop-color="#c17f5f"/></radialGradient><radialGradient id="ad" cx="0" cy="0" gradientTransform="matrix(2.0448816 .72073834 -.43236389 1.22670449 17.9429 5.47902)" gradientUnits="userSpaceOnUse" r="1"><stop offset=".258114" stop-color="#c17f5f"/><stop offset="1" stop-color="#c17f5f" stop-opacity="0"/></radialGradient><linearGradient id="ae" gradientUnits="userSpaceOnUse" x1="15.985" x2="16.8398" y1="11.6891" y2="11.6891"><stop offset="0" stop-color="#e1aa8c"/><stop offset="1" stop-color="#fecaa8"/></linearGradient><linearGradient id="af" gradientUnits="userSpaceOnUse" x1="14.9123" x2="15.9864" y1="11.5336" y2="11.5928"><stop offset="0" stop-color="#d29879" stop-opacity=".915033"/><stop offset=".203125" stop-color="#d29879"/><stop offset="1" stop-color="#d29879" stop-opacity="0"/></linearGradient><linearGradient id="ag" gradientUnits="userSpaceOnUse" x1="15.985" x2="15.985" y1="12.0879" y2="12.9398"><stop offset="0" stop-color="#cb8685" stop-opacity="0"/><stop offset=".844655" stop-color="#cb8685"/></linearGradient><linearGradient id="ah" gradientUnits="userSpaceOnUse" x1="15.985" x2="15.985" y1="9.84033" y2="10.2597"><stop offset="0" stop-color="#e0a78c"/><stop offset="1" stop-color="#e0a78c" stop-opacity="0"/></linearGradient><linearGradient id="ai" gradientUnits="userSpaceOnUse" x1="16.1158" x2="16.1158" y1="12.762" y2="12.7033"><stop offset="0" stop-color="#c27b78"/><stop offset="1" stop-color="#c27b78" stop-opacity="0"/></linearGradient><radialGradient id="aj" cx="0" cy="0" gradientTransform="matrix(-1.83956499 1.83117228 -1.1638933 -1.16922771 17.0042 10.7841)" gradientUnits="userSpaceOnUse" r="1"><stop offset=".940127" stop-color="#c27b78" stop-opacity="0"/><stop offset="1" stop-color="#c27b78"/></radialGradient><radialGradient id="ak" cx="0" cy="0" gradientTransform="matrix(.34716212 -.61944602 1.80260846 1.01025329 14.8583 14.1495)" gradientUnits="userSpaceOnUse" r="1"><stop offset="0" stop-color="#d0978e"/><stop offset="1" stop-color="#d0978e" stop-opacity="0"/></radialGradient><radialGradient id="al" cx="0" cy="0" gradientTransform="matrix(0 -.720737 2.89971 0 15.9851 14.3998)" gradientUnits="userSpaceOnUse" r="1"><stop offset="0" stop-color="#89024e"/><stop offset="1" stop-color="#87004d"/></radialGradient><linearGradient id="am" gradientUnits="userSpaceOnUse" x1="21.3487" x2="11.2248" y1="5.19784" y2="5.19784"><stop offset="0" stop-color="#fff6b9"/><stop offset="1" stop-color="#e7c991"/></linearGradient><radialGradient id="an" cx="0" cy="0" gradientTransform="matrix(0 -3.63266 6.43635 0 10.7555 9.2785)" gradientUnits="userSpaceOnUse" r="1"><stop offset="0" stop-color="#e7b286"/><stop offset="1" stop-color="#e7b286" stop-opacity="0"/></radialGradient><radialGradient id="ao" cx="0" cy="0" gradientTransform="matrix(0 -3.63266 6.43635 0 20.8458 9.2785)" gradientUnits="userSpaceOnUse" r="1"><stop offset="0" stop-color="#f6cb9c"/><stop offset="1" stop-color="#f6cb9c" stop-opacity="0"/></radialGradient><radialGradient id="ap" cx="0" cy="0" gradientTransform="matrix(-3.25170126 -1.24033856 .66056137 -1.73174351 20.0916 3.0021)" gradientUnits="userSpaceOnUse" r="1"><stop offset="0" stop-color="#ffffc1"/><stop offset="1" stop-color="#ffffc1" stop-opacity="0"/></radialGradient><radialGradient id="aq" cx="0" cy="0" gradientTransform="matrix(.90511116 1.47499549 -3.41540177 2.09581539 15.0799 1.40978)" gradientUnits="userSpaceOnUse" r="1"><stop offset=".286771" stop-color="#ddca94"/><stop offset="1" stop-color="#ddca94" stop-opacity="0"/></radialGradient><radialGradient id="ar" cx="0" cy="0" gradientTransform="matrix(-3.80691818 1.37357785 -.38230097 -1.05956028 16.2387 2.85205)" gradientUnits="userSpaceOnUse" r="1"><stop offset="0" stop-color="#fffcbe"/><stop offset="1" stop-color="#fffcbe" stop-opacity="0"/></radialGradient><radialGradient id="as" cx="0" cy="0" gradientTransform="matrix(3.2181689 -5.09544282 5.6452307 3.56540276 10.5545 7.61145)" gradientUnits="userSpaceOnUse" r="1"><stop offset=".0926981" stop-color="#d5a088"/><stop offset=".233498" stop-color="#e4b99b"/><stop offset="1" stop-color="#e4b99b" stop-opacity="0"/></radialGradient><radialGradient id="at" cx="0" cy="0" gradientTransform="matrix(3.38579026 .80082864 -.44787764 1.89356335 19.6056 4.01234)" gradientUnits="userSpaceOnUse" r="1"><stop offset="0" stop-color="#ffffc7"/><stop offset="1" stop-color="#ffffc7" stop-opacity="0"/></radialGradient><radialGradient id="au" cx="0" cy="0" gradientTransform="matrix(-2.14860702 -3.70371035 2.06553244 -1.19826257 21.1141 8.61698)" gradientUnits="userSpaceOnUse" r="1"><stop offset="0" stop-color="#e3b593"/><stop offset="1" stop-color="#e4b78d" stop-opacity="0"/></radialGradient><radialGradient id="av" cx="0" cy="0" gradientTransform="matrix(-1.30736439 -2.20229035 1.57741193 -.93641249 20.494 8.3168)" gradientUnits="userSpaceOnUse" r="1"><stop offset=".0574152" stop-color="#dfb086"/><stop offset="1" stop-color="#dfb086" stop-opacity="0"/></radialGradient><radialGradient id="aw" cx="0" cy="0" gradientTransform="matrix(-4.79842778 1.15120344 -1.24449482 -5.18728344 20.7789 3.89555)" gradientUnits="userSpaceOnUse" r="1"><stop offset=".651546" stop-color="#ebcd93" stop-opacity="0"/><stop offset="1" stop-color="#ebcd93"/></radialGradient><radialGradient id="ax" cx="0" cy="0" gradientTransform="matrix(-.1173328 .3837304 -1.7543606 -.53642883 19.438 3.77042)" gradientUnits="userSpaceOnUse" r="1"><stop offset=".461072" stop-color="#ffed93"/><stop offset="1" stop-color="#ffed93" stop-opacity="0"/></radialGradient><radialGradient id="ay" cx="0" cy="0" gradientTransform="matrix(-1.99456828 3.7545565 -9.68190515 -5.14340933 19.4347 2.94821)" gradientUnits="userSpaceOnUse" r="1"><stop offset=".651289" stop-color="#e1b395" stop-opacity="0"/><stop offset="1" stop-color="#e1b395"/></radialGradient><linearGradient id="az"><stop offset=".80198" stop-color="#925c51"/><stop offset="1" stop-color="#694b43"/><stop offset="1" stop-color="#804d49"/><stop offset="1" stop-color="#85534d"/></linearGradient><radialGradient id="aA" cx="0" cy="0" gradientTransform="matrix(0 .81132 -1.2905 0 18.1672 9.94431)" gradientUnits="userSpaceOnUse" r="1" xlink:href="#az"/><linearGradient id="aB"><stop offset=".765532" stop-color="#ffe6e2" stop-opacity="0"/><stop offset=".966159" stop-color="#ffe6e2"/></linearGradient><radialGradient id="aC" cx="0" cy="0" gradientTransform="matrix(-.23191798 -.29885759 .41145535 -.31929553 17.9389 10.0282)" gradientUnits="userSpaceOnUse" r="1" xlink:href="#aB"/><linearGradient id="aD"><stop offset="0" stop-color="#b4948d"/><stop offset="1" stop-color="#b4948d" stop-opacity="0"/></linearGradient><linearGradient id="aE" gradientUnits="userSpaceOnUse" x1="18.9451" x2="18.6314" xlink:href="#aD" y1="9.99797" y2="10.1913"/><radialGradient id="aF" cx="0" cy="0" gradientTransform="matrix(0 .811362 -1.29056 0 13.8032 9.94409)" gradientUnits="userSpaceOnUse" r="1" xlink:href="#az"/><linearGradient id="aG" gradientUnits="userSpaceOnUse" x1="14.547" x2="14.2332" xlink:href="#aD" y1="9.99814" y2="10.1915"/><radialGradient id="aH" cx="0" cy="0" gradientTransform="matrix(-.00773582 -.49408444 .59390921 -.00929877 13.5167 10.1635)" gradientUnits="userSpaceOnUse" r="1" xlink:href="#aB"/><linearGradient id="aI" gradientUnits="userSpaceOnUse" x1="22.4214" x2="21.2146" y1="10.0251" y2="12.2013"><stop offset="0" stop-color="#f8c5a2"/><stop offset="1" stop-color="#e0a48c"/></linearGradient><radialGradient id="aJ" cx="0" cy="0" gradientTransform="matrix(.62855021 2.24327594 -2.14026321 .59968677 20.6028 9.95802)" gradientUnits="userSpaceOnUse" r="1"><stop offset=".856273" stop-color="#ce8d79" stop-opacity="0"/><stop offset="1" stop-color="#ce8d79"/></radialGradient><radialGradient id="aK" cx="0" cy="0" gradientTransform="matrix(.78778263 -1.08110421 .90617882 .66031741 20.9632 10.5028)" gradientUnits="userSpaceOnUse" r="1"><stop offset=".663731" stop-color="#e3a17b"/><stop offset="1" stop-color="#e3a17b" stop-opacity="0"/></radialGradient><linearGradient id="aL" gradientUnits="userSpaceOnUse" x1="10.1354" x2="11.5936" y1="10.729" y2="10.6017"><stop offset="0" stop-color="#c48874"/><stop offset="1" stop-color="#bd776c"/></linearGradient><radialGradient id="aM" cx="0" cy="0" gradientTransform="matrix(-1.67501354 -.24495521 .24081385 -1.64669475 11.0696 10.6017)" gradientUnits="userSpaceOnUse" r="1"><stop offset=".77507" stop-color="#dca187" stop-opacity="0"/><stop offset="1" stop-color="#c77937"/><stop offset="1" stop-color="#dca187"/></radialGradient><path d="m16 15.4768c-6.08 0-11 4.92-11 11v3.5h22v-3.5c0-6.07-4.93-11-11-11z" fill="url(#w)"/><path d="m16 15.4768c-6.08 0-11 4.92-11 11v3.5h22v-3.5c0-6.07-4.93-11-11-11z" fill="url(#x)"/><g filter="url(#a)"><path d="m13.4187 16.8255c-.5124 0-1.2955-.0292-1.7699.1662l-1.3801 2.7238c-.09.19.06.41.27.41h1.55c.24 0 .35.29.19.45l-1.78 1.3429c-.26.26-.36.65-.23 1l2.9128 6.5004 1.5862-1.1162-1.339-11.4771z" fill="#41355c"/></g><g filter="url(#b)"><path d="m20.9045 21.1582-1.1891-.828c-.1486-.1486-.0437-.3935.1661-.3935h.9181c.1836 0 .306-.1923.2273-.3584l-1.0754-2.2907c-.2099-.0875-.4284-.1661-.647-.2361h-.5945v11.8618l2.4043-6.8721c.1049-.3147.0262-.6557-.2098-.883z" fill="#463d68"/></g><path d="m18.71 16.0969h-5.42v13.89h5.42z" fill="url(#y)"/><path d="m18.71 16.0969h-5.42v13.89h5.42z" fill="url(#z)"/><path d="m18.71 16.0969h-5.42v13.89h5.42z" fill="url(#A)"/><path d="m23 17.9946v11.9823h4v-3.5c0-3.412-1.5577-6.4638-4-8.4823z" fill="url(#B)"/><path d="m23 17.9946v11.9823h4v-3.5c0-3.412-1.5577-6.4638-4-8.4823z" fill="url(#C)"/><g filter="url(#c)"><path d="m13.29 16.0669h-.85c-.18.06-.36.13-.53.2l-1.27 2.69c-.09.19.06.41.27.41h1.05c.24 0 .35.29.19.45l-1.36 1.33c-.26.26-.36.65-.23 1l2.73 7.82h.01v-13.9z" fill="url(#D)"/><path d="m13.29 16.0669h-.85c-.18.06-.36.13-.53.2l-1.27 2.69c-.09.19.06.41.27.41h1.05c.24 0 .35.29.19.45l-1.36 1.33c-.26.26-.36.65-.23 1l2.73 7.82h.01v-13.9z" fill="url(#E)"/><path d="m13.29 16.0669h-.85c-.18.06-.36.13-.53.2l-1.27 2.69c-.09.19.06.41.27.41h1.05c.24 0 .35.29.19.45l-1.36 1.33c-.26.26-.36.65-.23 1l2.73 7.82h.01v-13.9z" fill="url(#F)"/></g><path d="m13.29 16.0669h-.85c-.18.06-.36.13-.53.2l-1.27 2.69c-.09.19.06.41.27.41h1.05c.24 0 .35.29.19.45l-1.36 1.33c-.26.26-.36.65-.23 1l2.73 7.82h.01v-13.9z" fill="url(#G)"/><path d="m13.29 16.0669h-.85c-.18.06-.36.13-.53.2l-1.27 2.69c-.09.19.06.41.27.41h1.05c.24 0 .35.29.19.45l-1.36 1.33c-.26.26-.36.65-.23 1l2.73 7.82h.01v-13.9z" fill="url(#H)"/><g filter="url(#d)"><path d="m16.0106 18.304-1.2406 1.2042c-.0448.0435-.058.1101-.0331.1674l.5475 1.2607c.0397.0914.1298.1504.2293.1504h.9521c.0999 0 .1902-.0594.2297-.1512l.5503-1.2804c.0244-.0568.0115-.1227-.0325-.1661z" fill="url(#I)"/></g><g filter="url(#e)"><path d="m21.22 21.0968-1.36-1.33c-.17-.17-.05-.45.19-.45h1.05c.21 0 .35-.22.26-.41l-1.23-2.62c-.24-.1-.49-.19-.74-.27h-.68v13.95l2.75-7.86c.12-.36.03-.75-.24-1.01z" fill="#605890"/><path d="m21.22 21.0968-1.36-1.33c-.17-.17-.05-.45.19-.45h1.05c.21 0 .35-.22.26-.41l-1.23-2.62c-.24-.1-.49-.19-.74-.27h-.68v13.95l2.75-7.86c.12-.36.03-.75-.24-1.01z" fill="url(#J)"/></g><path d="m16 15.0337h-2.71v4.74c0 .31.36.49.61.29l2.1-1.3925 2.1 1.3925c.25.2.61.02.61-.29v-4.74z" fill="url(#K)"/><path d="m16 15.0337h-2.71v4.74c0 .31.36.49.61.29l2.1-1.3925 2.1 1.3925c.25.2.61.02.61-.29v-4.74z" fill="url(#L)"/><path d="m7.03187 29.9768h1.93823v-11.9641c-1.78268 1.4818-3.08884 3.5167-3.65643 5.8426-.20346.844-.30902 1.7254-.30371 2.6316l.01996 3.4899z" fill="url(#M)"/><path d="m15.5047 21.0869c-.1235 0-.2284.0901-.2471.2122l-1.3275 8.6678h4.11l-1.3178-8.6676c-.0185-.1221-.1236-.2124-.2471-.2124z" fill="url(#N)"/><path d="m15.5047 21.0869c-.1235 0-.2284.0901-.2471.2122l-1.3275 8.6678h4.11l-1.3178-8.6676c-.0185-.1221-.1236-.2124-.2471-.2124z" fill="url(#P)"/><path d="m15.5047 21.0869c-.1235 0-.2284.0901-.2471.2122l-1.3275 8.6678h4.11l-1.3178-8.6676c-.0185-.1221-.1236-.2124-.2471-.2124z" fill="url(#Q)"/><path d="m14.045 16.8665c.0209.2135.205.6909.7461 1.0546.2135.1435 1.2131.6286 1.1927.6189.1562-.0781.8073-.2985 1.2839-.6189.5411-.3637.7253-.8411.7461-1.0546l-1.9844-.9532z" fill="url(#R)"/><path d="m20.8464 12.1103c.3352-.0108.6492-.1245.9046-.3085v.931c0 .8931-.5321 1.6888-1.3409 2.019.1702-.3627.2873-.7578.3458-1.18z" fill="url(#S)"/><path d="m11.1238 12.1103c-.3352-.0108-.6492-.1245-.9046-.3085v.931c0 .8931.5321 1.6888 1.3409 2.019-.1702-.3627-.2873-.7578-.3458-1.18z" fill="url(#T)"/><path d="m11.1238 12.1103c-.3352-.0108-.6492-.1245-.9046-.3085v.931c0 .8931.5321 1.6888 1.3409 2.019-.1702-.3627-.2873-.7578-.3458-1.18z" fill="url(#U)"/><path d="m11.1238 12.1103c-.3352-.0108-.6492-.1245-.9046-.3085v.931c0 .8931.5321 1.6888 1.3409 2.019-.1702-.3627-.2873-.7578-.3458-1.18z" fill="url(#T)"/><path d="m11.1238 12.1103c-.3352-.0108-.6492-.1245-.9046-.3085v.931c0 .8931.5321 1.6888 1.3409 2.019-.1702-.3627-.2873-.7578-.3458-1.18z" fill="url(#U)"/><g filter="url(#f)"><path d="m11.1602 13.6252c.2572 1.9524 1.9187 3.4059 3.8857 3.4059h1.8865c1.967 0 3.6285-1.4535 3.8857-3.4059.118-1.8837.2367-3.75978.3242-5.64248-.0106-.767-.6153-1.39991-1.379-1.43209h-1.4002c-.9547 0-1.8192-.56318-2.2117-1.44281-.1008-.2521-.3447-.41837-.6152-.41837h-1.2729c-1.8458 0-3.3414 1.51254-3.3414 3.37908 0 1.86072.1162 3.69127.2383 5.55667z" fill="url(#V)"/></g><path d="m11.1602 13.6252c.2572 1.9524 1.9187 3.4059 3.8857 3.4059h1.8865c1.967 0 3.6285-1.4535 3.8857-3.4059.118-1.8837.2367-3.75978.3242-5.64248-.0106-.767-.6153-1.39991-1.379-1.43209h-1.4002c-.9547 0-1.8192-.56318-2.2117-1.44281-.1008-.2521-.3447-.41837-.6152-.41837h-1.2729c-1.8458 0-3.3414 1.51254-3.3414 3.37908 0 1.86072.1162 3.69127.2383 5.55667z" fill="url(#W)"/><path d="m11.1602 13.6252c.2572 1.9524 1.9187 3.4059 3.8857 3.4059h1.8865c1.967 0 3.6285-1.4535 3.8857-3.4059.118-1.8837.2367-3.75978.3242-5.64248-.0106-.767-.6153-1.39991-1.379-1.43209h-1.4002c-.9547 0-1.8192-.56318-2.2117-1.44281-.1008-.2521-.3447-.41837-.6152-.41837h-1.2729c-1.8458 0-3.3414 1.51254-3.3414 3.37908 0 1.86072.1162 3.69127.2383 5.55667z" fill="url(#X)"/><path d="m11.1602 13.6252c.2572 1.9524 1.9187 3.4059 3.8857 3.4059h1.8865c1.967 0 3.6285-1.4535 3.8857-3.4059.118-1.8837.2367-3.75978.3242-5.64248-.0106-.767-.6153-1.39991-1.379-1.43209h-1.4002c-.9547 0-1.8192-.56318-2.2117-1.44281-.1008-.2521-.3447-.41837-.6152-.41837h-1.2729c-1.8458 0-3.3414 1.51254-3.3414 3.37908 0 1.86072.1162 3.69127.2383 5.55667z" fill="url(#Y)"/><path d="m11.1602 13.6252c.2572 1.9524 1.9187 3.4059 3.8857 3.4059h1.8865c1.967 0 3.6285-1.4535 3.8857-3.4059.118-1.8837.2367-3.75978.3242-5.64248-.0106-.767-.6153-1.39991-1.379-1.43209h-1.4002c-.9547 0-1.8192-.56318-2.2117-1.44281-.1008-.2521-.3447-.41837-.6152-.41837h-1.2729c-1.8458 0-3.3414 1.51254-3.3414 3.37908 0 1.86072.1162 3.69127.2383 5.55667z" fill="url(#Z)"/><path d="m11.1602 13.6252c.2572 1.9524 1.9187 3.4059 3.8857 3.4059h1.8865c1.967 0 3.6285-1.4535 3.8857-3.4059.118-1.8837.2367-3.75978.3242-5.64248-.0106-.767-.6153-1.39991-1.379-1.43209h-1.4002c-.9547 0-1.8192-.56318-2.2117-1.44281-.1008-.2521-.3447-.41837-.6152-.41837h-1.2729c-1.8458 0-3.3414 1.51254-3.3414 3.37908 0 1.86072.1162 3.69127.2383 5.55667z" fill="url(#aa)"/><path d="m11.1602 13.6252c.2572 1.9524 1.9187 3.4059 3.8857 3.4059h1.8865c1.967 0 3.6285-1.4535 3.8857-3.4059.118-1.8837.2367-3.75978.3242-5.64248-.0106-.767-.6153-1.39991-1.379-1.43209h-1.4002c-.9547 0-1.8192-.56318-2.2117-1.44281-.1008-.2521-.3447-.41837-.6152-.41837h-1.2729c-1.8458 0-3.3414 1.51254-3.3414 3.37908 0 1.86072.1162 3.69127.2383 5.55667z" fill="url(#ab)"/><path d="m11.1602 13.6252c.2572 1.9524 1.9187 3.4059 3.8857 3.4059h1.8865c1.967 0 3.6285-1.4535 3.8857-3.4059.118-1.8837.2367-3.75978.3242-5.64248-.0106-.767-.6153-1.39991-1.379-1.43209h-1.4002c-.9547 0-1.8192-.56318-2.2117-1.44281-.1008-.2521-.3447-.41837-.6152-.41837h-1.2729c-1.8458 0-3.3414 1.51254-3.3414 3.37908 0 1.86072.1162 3.69127.2383 5.55667z" fill="url(#ac)"/><path d="m11.1602 13.6252c.2572 1.9524 1.9187 3.4059 3.8857 3.4059h1.8865c1.967 0 3.6285-1.4535 3.8857-3.4059.118-1.8837.2367-3.75978.3242-5.64248-.0106-.767-.6153-1.39991-1.379-1.43209h-1.4002c-.9547 0-1.8192-.56318-2.2117-1.44281-.1008-.2521-.3447-.41837-.6152-.41837h-1.2729c-1.8458 0-3.3414 1.51254-3.3414 3.37908 0 1.86072.1162 3.69127.2383 5.55667z" fill="url(#ad)"/><g filter="url(#g)"><path d="m15.5545 10.5242-.6919 1.6556c-.1014.3782.1419.7563.4865.7563h.7349c.3446 0 .5879-.3839.4865-.7563l-.4967-1.8383c-.1064-.40724-.4078-.2245-.5193.1827z" fill="#c48377"/></g><g filter="url(#h)"><path d="m15.6027 10.1458-.5315 1.8383c-.1085.3781.1519.7563.5206.7563h.7864c.3688 0 .6291-.384.5206-.7563l-.5314-1.8383c-.1139-.40728-.6454-.40728-.7647 0z" fill="url(#ae)"/><path d="m15.6027 10.1458-.5315 1.8383c-.1085.3781.1519.7563.5206.7563h.7864c.3688 0 .6291-.384.5206-.7563l-.5314-1.8383c-.1139-.40728-.6454-.40728-.7647 0z" fill="url(#af)"/><path d="m15.6027 10.1458-.5315 1.8383c-.1085.3781.1519.7563.5206.7563h.7864c.3688 0 .6291-.384.5206-.7563l-.5314-1.8383c-.1139-.40728-.6454-.40728-.7647 0z" fill="url(#ag)"/><path d="m15.6027 10.1458-.5315 1.8383c-.1085.3781.1519.7563.5206.7563h.7864c.3688 0 .6291-.384.5206-.7563l-.5314-1.8383c-.1139-.40728-.6454-.40728-.7647 0z" fill="url(#ah)"/></g><path d="m15.6027 10.1458-.5315 1.8383c-.1085.3781.1519.7563.5206.7563h.7864c.3688 0 .6291-.384.5206-.7563l-.5314-1.8383c-.1139-.40728-.6454-.40728-.7647 0z" fill="url(#ai)"/><path d="m15.6027 10.1458-.5315 1.8383c-.1085.3781.1519.7563.5206.7563h.7864c.3688 0 .6291-.384.5206-.7563l-.5314-1.8383c-.1139-.40728-.6454-.40728-.7647 0z" fill="url(#aj)"/><g filter="url(#i)"><path d="m14.6343 13.3621-.0007-.0003c-.1019-.0518-.2081-.0193-.271.0469-.0633.0666-.0891.175-.0231.2709.3485.5276.9551.879 1.6456.879.6906 0 1.2974-.3516 1.6458-.8795.0648-.0974.0409-.2056-.0237-.2726-.0637-.0661-.1699-.096-.2707-.0447l-.0007.0003c-.3898.2033-.8499.32-1.3507.32-.4959 0-.961-.1168-1.3508-.32z" stroke="url(#ak)" stroke-width=".15"/></g><path d="m15.9851 13.7571c-.5075 0-.9846-.1195-1.3855-.3285-.137-.0696-.2842.0846-.1979.209.3349.5076.9186.846 1.5834.846s1.2484-.3384 1.5833-.846c.0863-.1293-.0609-.2786-.1979-.209-.4009.209-.8729.3285-1.3854.3285z" fill="url(#al)"/><g filter="url(#j)"><path d="m20.8399 4.21763c.5145.177.9759.53637 1.2676 1.05127.4668.82064.3978 1.80218-.1061 2.52627-.175.25745-.2704.56318-.2704.87427v1.18804c-.1871-.13029-.4339-.2269-.6673-.26818l.0785-1.6064c-.0106-.767-.6152-1.39991-1.379-1.43209h-1.4002c-.9546 0-1.8192-.56318-2.2116-1.44281-.1008-.2521-.3448-.41837-.6153-.41837h-1.2729c-1.8457 0-3.3414 1.51254-3.3414 3.37909l.0307 1.53734c-.254.03732-.5193.12223-.7202.26368v-1.2003c0-.31109-.0954-.61682-.27045-.87427-.47734-.70263-.5622-1.64663-.14321-2.44581.29176-.55246.76376-.93864 1.29946-1.12636.5728-.20382 1.0607-.59 1.3843-1.11027.4137-.65973 1.1403-1.09955 1.973-1.09955.3235 0 .6311.06973.9175.18773.3819.16627.8115.16627 1.1934 0 .2811-.118.5887-.18773.9122-.18773.8433 0 1.5806.45591 1.9889 1.13173.3077.50954.7903.87963 1.3525 1.07272z" fill="url(#am)"/><path d="m20.8399 4.21763c.5145.177.9759.53637 1.2676 1.05127.4668.82064.3978 1.80218-.1061 2.52627-.175.25745-.2704.56318-.2704.87427v1.18804c-.1871-.13029-.4339-.2269-.6673-.26818l.0785-1.6064c-.0106-.767-.6152-1.39991-1.379-1.43209h-1.4002c-.9546 0-1.8192-.56318-2.2116-1.44281-.1008-.2521-.3448-.41837-.6153-.41837h-1.2729c-1.8457 0-3.3414 1.51254-3.3414 3.37909l.0307 1.53734c-.254.03732-.5193.12223-.7202.26368v-1.2003c0-.31109-.0954-.61682-.27045-.87427-.47734-.70263-.5622-1.64663-.14321-2.44581.29176-.55246.76376-.93864 1.29946-1.12636.5728-.20382 1.0607-.59 1.3843-1.11027.4137-.65973 1.1403-1.09955 1.973-1.09955.3235 0 .6311.06973.9175.18773.3819.16627.8115.16627 1.1934 0 .2811-.118.5887-.18773.9122-.18773.8433 0 1.5806.45591 1.9889 1.13173.3077.50954.7903.87963 1.3525 1.07272z" fill="url(#an)"/><path d="m20.8399 4.21763c.5145.177.9759.53637 1.2676 1.05127.4668.82064.3978 1.80218-.1061 2.52627-.175.25745-.2704.56318-.2704.87427v1.18804c-.1871-.13029-.4339-.2269-.6673-.26818l.0785-1.6064c-.0106-.767-.6152-1.39991-1.379-1.43209h-1.4002c-.9546 0-1.8192-.56318-2.2116-1.44281-.1008-.2521-.3448-.41837-.6153-.41837h-1.2729c-1.8457 0-3.3414 1.51254-3.3414 3.37909l.0307 1.53734c-.254.03732-.5193.12223-.7202.26368v-1.2003c0-.31109-.0954-.61682-.27045-.87427-.47734-.70263-.5622-1.64663-.14321-2.44581.29176-.55246.76376-.93864 1.29946-1.12636.5728-.20382 1.0607-.59 1.3843-1.11027.4137-.65973 1.1403-1.09955 1.973-1.09955.3235 0 .6311.06973.9175.18773.3819.16627.8115.16627 1.1934 0 .2811-.118.5887-.18773.9122-.18773.8433 0 1.5806.45591 1.9889 1.13173.3077.50954.7903.87963 1.3525 1.07272z" fill="url(#ao)"/><path d="m20.8399 4.21763c.5145.177.9759.53637 1.2676 1.05127.4668.82064.3978 1.80218-.1061 2.52627-.175.25745-.2704.56318-.2704.87427v1.18804c-.1871-.13029-.4339-.2269-.6673-.26818l.0785-1.6064c-.0106-.767-.6152-1.39991-1.379-1.43209h-1.4002c-.9546 0-1.8192-.56318-2.2116-1.44281-.1008-.2521-.3448-.41837-.6153-.41837h-1.2729c-1.8457 0-3.3414 1.51254-3.3414 3.37909l.0307 1.53734c-.254.03732-.5193.12223-.7202.26368v-1.2003c0-.31109-.0954-.61682-.27045-.87427-.47734-.70263-.5622-1.64663-.14321-2.44581.29176-.55246.76376-.93864 1.29946-1.12636.5728-.20382 1.0607-.59 1.3843-1.11027.4137-.65973 1.1403-1.09955 1.973-1.09955.3235 0 .6311.06973.9175.18773.3819.16627.8115.16627 1.1934 0 .2811-.118.5887-.18773.9122-.18773.8433 0 1.5806.45591 1.9889 1.13173.3077.50954.7903.87963 1.3525 1.07272z" fill="url(#ap)"/><path d="m20.8399 4.21763c.5145.177.9759.53637 1.2676 1.05127.4668.82064.3978 1.80218-.1061 2.52627-.175.25745-.2704.56318-.2704.87427v1.18804c-.1871-.13029-.4339-.2269-.6673-.26818l.0785-1.6064c-.0106-.767-.6152-1.39991-1.379-1.43209h-1.4002c-.9546 0-1.8192-.56318-2.2116-1.44281-.1008-.2521-.3448-.41837-.6153-.41837h-1.2729c-1.8457 0-3.3414 1.51254-3.3414 3.37909l.0307 1.53734c-.254.03732-.5193.12223-.7202.26368v-1.2003c0-.31109-.0954-.61682-.27045-.87427-.47734-.70263-.5622-1.64663-.14321-2.44581.29176-.55246.76376-.93864 1.29946-1.12636.5728-.20382 1.0607-.59 1.3843-1.11027.4137-.65973 1.1403-1.09955 1.973-1.09955.3235 0 .6311.06973.9175.18773.3819.16627.8115.16627 1.1934 0 .2811-.118.5887-.18773.9122-.18773.8433 0 1.5806.45591 1.9889 1.13173.3077.50954.7903.87963 1.3525 1.07272z" fill="url(#aq)"/></g><g filter="url(#k)"><path d="m19.718 7.88069c-.1752-.15258-.3789-.31427-.6875-.41141-.3042-.09578-.6853-.12151-1.2125-.05701-.152.0186-.2602.15692-.2416.30895s.1569.2602.309.2416c.4811-.05887.7759-.02828.9785.03551.1983.06242.3325.16356.4898.30061.1155.10059.2907.08852.3913-.02698s.0885-.29067-.027-.39127z" fill="#a06937"/></g><g filter="url(#l)"><path d="m12.5743 7.77155c.0901-.05394.2198-.12294.3835-.18732.3275-.12875.7954-.24056 1.3554-.17206.152.0186.2602.15692.2416.30895s-.1569.2602-.309.2416c-.4484-.05486-.8225.03447-1.085.13769-.1313.05161-.2336.10631-.3017.14707-.034.02034-.0592.03708-.0751.04804-.0079.00547-.0135.00949-.0166.01177l-.0027.00205c-.1209.09318-.2945.07122-.3883-.04936-.094-.1209-.0722-.29514.0487-.38917z" fill="#a06937"/></g><g filter="url(#m)"><path d="m16.2176 5.24479c-.0233-.0447-.0454-.09031-.0661-.13681-.1008-.25209-.3448-.41837-.6153-.41837h-1.2729c-1.8457 0-3.3414 1.51255-3.3414 3.37909v.27516c-.34-.25874-.7676-.80455-.7676-1.68781 0-1.07183.7817-1.61361 1.2804-1.9592.1408-.09756.259-.17949.3307-.25329.0304-.03135.0636-.06652.0996-.10477.3496-.37072.9724-1.03126 2.0599-1.31994.5314-.14107 1.0699-.1756 1.5077-.16503.4727.01141.8061.41968.8061.89253v1.48499z" fill="url(#ar)"/><path d="m16.2176 5.24479c-.0233-.0447-.0454-.09031-.0661-.13681-.1008-.25209-.3448-.41837-.6153-.41837h-1.2729c-1.8457 0-3.3414 1.51255-3.3414 3.37909v.27516c-.34-.25874-.7676-.80455-.7676-1.68781 0-1.07183.7817-1.61361 1.2804-1.9592.1408-.09756.259-.17949.3307-.25329.0304-.03135.0636-.06652.0996-.10477.3496-.37072.9724-1.03126 2.0599-1.31994.5314-.14107 1.0699-.1756 1.5077-.16503.4727.01141.8061.41968.8061.89253v1.48499z" fill="url(#as)"/></g><g filter="url(#n)"><path d="m21.1978 8.61698-.0292-.63119c-.0106-.76346-.6415-1.39344-1.4053-1.42548h-1.4002c-.8888 0-1.6995-.48595-2.1239-1.25965 0 0-.0585-.1357-.12-.36813-.2562-.96979.6709-1.71233 1.6557-1.52135.9734.18878 2.0822.5169 2.902 1.05163 1.7446 1.13786 1.4392 3.1885.5209 4.15417z" fill="url(#at)"/><path d="m21.1978 8.61698-.0292-.63119c-.0106-.76346-.6415-1.39344-1.4053-1.42548h-1.4002c-.8888 0-1.6995-.48595-2.1239-1.25965 0 0-.0585-.1357-.12-.36813-.2562-.96979.6709-1.71233 1.6557-1.52135.9734.18878 2.0822.5169 2.902 1.05163 1.7446 1.13786 1.4392 3.1885.5209 4.15417z" fill="url(#au)"/><path d="m21.1978 8.61698-.0292-.63119c-.0106-.76346-.6415-1.39344-1.4053-1.42548h-1.4002c-.8888 0-1.6995-.48595-2.1239-1.25965 0 0-.0585-.1357-.12-.36813-.2562-.96979.6709-1.71233 1.6557-1.52135.9734.18878 2.0822.5169 2.902 1.05163 1.7446 1.13786 1.4392 3.1885.5209 4.15417z" fill="url(#av)"/><path d="m21.1978 8.61698-.0292-.63119c-.0106-.76346-.6415-1.39344-1.4053-1.42548h-1.4002c-.8888 0-1.6995-.48595-2.1239-1.25965 0 0-.0585-.1357-.12-.36813-.2562-.96979.6709-1.71233 1.6557-1.52135.9734.18878 2.0822.5169 2.902 1.05163 1.7446 1.13786 1.4392 3.1885.5209 4.15417z" fill="url(#aw)"/><path d="m21.1978 8.61698-.0292-.63119c-.0106-.76346-.6415-1.39344-1.4053-1.42548h-1.4002c-.8888 0-1.6995-.48595-2.1239-1.25965 0 0-.0585-.1357-.12-.36813-.2562-.96979.6709-1.71233 1.6557-1.52135.9734.18878 2.0822.5169 2.902 1.05163 1.7446 1.13786 1.4392 3.1885.5209 4.15417z" fill="url(#ax)"/><path d="m21.1978 8.61698-.0292-.63119c-.0106-.76346-.6415-1.39344-1.4053-1.42548h-1.4002c-.8888 0-1.6995-.48595-2.1239-1.25965 0 0-.0585-.1357-.12-.36813-.2562-.96979.6709-1.71233 1.6557-1.52135.9734.18878 2.0822.5169 2.902 1.05163 1.7446 1.13786 1.4392 3.1885.5209 4.15417z" fill="url(#ay)"/></g><path d="m18.3761 9.19531c.6531 0 1.2048.45029 1.3549 1.05879.0446.1744-.0892.3407-.2677.3407h-2.2311c-.142 0-.2556-.1298-.2272-.2718.1257-.6409.6896-1.12769 1.3711-1.12769z" fill="#fff"/><path d="m18.1692 9.46729c.4949 0 .8925.4016.8925.89241 0 .0812-.0122.1623-.0325.2353h-1.724c-.0203-.0771-.0325-.1541-.0325-.2353 0-.49081.4016-.89241.8965-.89241z" fill="url(#aA)"/><path d="m17.6581 10.3595c0-.2839.2272-.51111.5111-.51111.284 0 .5111.22721.5111.51111 0 .0852-.0202.1663-.0567.2353h-.9047c-.0405-.069-.0608-.1501-.0608-.2353z" fill="#000"/><g filter="url(#o)"><path d="m18.1035 9.65572c.0636.08504-.0693.18871-.2204.3017-.1511.11298-.2632.19248-.3268.10748-.0636-.08507.0074-.2456.1585-.35859.1511-.11298.3251-.13563.3887-.05059z" fill="#c7a7a3"/><path d="m18.1035 9.65572c.0636.08504-.0693.18871-.2204.3017-.1511.11298-.2632.19248-.3268.10748-.0636-.08507.0074-.2456.1585-.35859.1511-.11298.3251-.13563.3887-.05059z" fill="url(#aC)"/></g><g filter="url(#p)"><path d="m18.9641 10.242c-.0329-.2307-.1679-.4046-.2313-.4627l-.2599.2852.1173.2282z" fill="url(#aE)"/></g><path d="m13.5942 9.19531c-.6531 0-1.2049.45031-1.355 1.05879-.0446.1745.0893.3408.2678.3408h2.2312c.142 0 .2556-.1298.2272-.2718-.1257-.64097-.6937-1.12779-1.3712-1.12779z" fill="#fff"/><path d="m13.8012 9.46704c-.4949 0-.8925.40162-.8925.89246 0 .0812.0122.1623.0324.2353h1.7242c.0203-.077.0324-.1541.0324-.2353-.004-.49084-.4016-.89246-.8965-.89246z" fill="url(#aF)"/><path d="m14.3122 10.3595c0-.2839-.2271-.51111-.5111-.51111s-.5112.22721-.5112.51111c0 .0852.0203.1664.0568.2353h.9047c.0365-.0689.0608-.1501.0608-.2353z" fill="#000"/><g filter="url(#q)"><path d="m14.6165 10.2549c0-.28845-.2345-.48073-.2979-.53884l-.2884.27891.1774.36133z" fill="url(#aG)"/></g><g filter="url(#r)"><ellipse cx="13.5318" cy="9.84853" fill="#c7a7a3" fill-opacity=".9" rx=".389623" ry=".197185" transform="matrix(.88365127 -.46814574 .46814574 .88365127 -3.03614 7.480719)"/><ellipse cx="13.5318" cy="9.84853" fill="url(#aH)" rx=".389623" ry=".197185" transform="matrix(.88365127 -.46814574 .46814574 .88365127 -3.03614 7.480719)"/></g><path d="m20.907 12.2013c.0658-1.0642.1292-2.1271.1846-3.19129.7555.1322 1.3298.79151 1.3298 1.58499 0 .8569-.6698 1.5573-1.5144 1.6063z" fill="url(#aI)"/><path d="m20.907 12.2013c.0658-1.0642.1292-2.1271.1846-3.19129.7555.1322 1.3298.79151 1.3298 1.58499 0 .8569-.6698 1.5573-1.5144 1.6063z" fill="url(#aJ)"/><path d="m20.907 12.2013c.0658-1.0642.1292-2.1271.1846-3.19129.7555.1322 1.3298.79151 1.3298 1.58499 0 .8569-.6698 1.5573-1.5144 1.6063z" fill="url(#aK)"/><path d="m10.9311 9.00171c-.7813.11017-1.38239.78151-1.38239 1.59329 0 .859.67319 1.5609 1.52089 1.6067-.0646-1.0686-.1178-2.1311-.1385-3.19999z" fill="url(#aL)"/><path d="m10.9311 9.00171c-.7813.11017-1.38239.78151-1.38239 1.59329 0 .859.67319 1.5609 1.52089 1.6067-.0646-1.0686-.1178-2.1311-.1385-3.19999z" fill="url(#aM)"/><g filter="url(#s)"><path d="m10.9479 9.6626c-.4267.09566-.7455.4767-.7455.9323 0 .4847.361.8852.8289.9471-.0347-.6269-.0639-1.2525-.0834-1.8794z" fill="#b57562"/></g><g filter="url(#t)"><path d="m20.947 11.5503c.0386-.6345.0758-1.2688.1106-1.90333.4713.0588.8359.46083.8359.94803 0 .5247-.4229.9506-.9465.9553z" fill="#e6aa8b"/></g><g filter="url(#u)"><path d="m12.6118 8.05132c.257-.18438.8976-.50871 1.6552-.38132" stroke="#b17847" stroke-linecap="round" stroke-width=".25"/></g><g filter="url(#v)"><path d="m19.5461 8.00517c-.257-.18437-.8975-.5087-1.6551-.38131" stroke="#b17847" stroke-linecap="round" stroke-width=".25"/></g></svg>