<svg enable-background="new 0 0 128 128" viewBox="0 0 32 32" xmlns="http://www.w3.org/2000/svg"><path d="m19.3892 4.95807h5.614v10.04193l-2.5031.5-3.1109-.5z" fill="#00f397"/><path d="m10.3872 20-1.47723 8.07c-.0506.2503-.09927.4395-.07114.663.02812.2236.23315.6248.23315.6248l15.67742.0254s.2117-.4011.2414-.626c.0296-.2249-.026-.4252-.0708-.6672l-2.1794-12.09.2594-.5-.4396-.5-.6904-3.83z" fill="#37c9cd"/><path d="m11.9999 12.08v-4.67l-1.5.94c-.0862.04617-.1872.05632-.2809.02821s-.1725-.09219-.21907-.17821l-1.81-3.33c-.05028-.09408-.0638-.20349-.03793-.30698s.08929-.19367.17793-.25302l3.15997-2c.2982-.19397.6444-.3013 1-.31h8.26l.75.31h.93l3.16 2c.0887.05935.1521.14953.178.25302.0258.10349.0123.2129-.038.30698l-1.68 3.33c-.0229.04527-.055.08532-.0941.11767-.0391.03236-.0845.05631-.1333.07038-.0487.01407-.0999.01795-.1502.01141-.0504-.00655-.0988-.02338-.1424-.04946l-1.53-.94v4.67z" fill="#ff8257"/><path d="m14.1801 2v.1c-.0195.77743.2636 1.53207.7897 2.1048s1.2541.91878 2.0303.9652c.7746-.0489 1.5-.39604 2.024-.9685.5239-.57246.8057-1.32569.786-2.1015 0 0 0-.07 0-.1z" fill="#8c5543"/><path d="m10.0632 19.8483c-.1024.5201.3559.0135.9369-.3483l11-7.8749s.715-5.13723.5-8.1251c0-.67457.1957-1.01545-.3086-1.32811-.25-.125-.5815-.17484-.8243-.17189 0 0-.3227 0-.7341 0-.3609 0-.133.09941-.133.5v1c0 2.1-2.5 4-2.5 4-1.6002 1.12264-4 3.5-6.5801 4.52z" fill="#6afcac"/><path d="m17.7099 7.24002s2.2914-1.36006 2.2914-3.46006v-1.15097c0-.40059.2708-.62899.6317-.62899h.3921v1.42819c0 2.20388-1.3034 3.62583-2.8649 4.72025-1.4131.99033-5.043 3.55076-6.918 4.88276l.1777-1.0112c.0229-.1412.0758-.2759.1551-.3949.0794-.119.1833-.2197.3049-.2951zm-7.6468 12.60828c-.10236.5201.5359.9535 1.1168.5917l11.1527-8.2605c.2198-.193.3946-.4318.5121-.6996.1174-.2678.1679-.5733.1679-.8557v-7.25039c0-.6385-.2783-.87365-.7827-1.18631-.0719-.03579-.1487-.06617-.2281-.0907v8.5274c0 .4855-.2579.7278-.6337 1.0298-.3007.2417-7.6619 5.5636-11.305 8.1943zm-.99118 9.5095c-.07188-.1075-.12881-.2238-.16958-.3457h16.03066c-.0427.1315-.1045.2566-.1836.3711-.129.1866-.3005.3399-.5003.4471-.1999.1072-.4224.1654-.6492.1697h-13.4c-.22497-.0121-.44405-.0764-.63985-.1878-.1958-.1115-.36293-.2671-.48813-.4544zm13.48948-14.3519.1843 1.0224h1.2655c.6631 0 .9946-.4698.9946-1.0224z" fill="#fcd53f"/></svg>