<svg fill="none" height="32" viewBox="0 0 32 32" width="32" xmlns="http://www.w3.org/2000/svg" xmlns:xlink="http://www.w3.org/1999/xlink"><filter id="a" color-interpolation-filters="sRGB" filterUnits="userSpaceOnUse" height="18.3572" width="3.90607" x="15.7789" y="12.5728"><feFlood flood-opacity="0" result="BackgroundImageFix"/><feBlend in="SourceGraphic" in2="BackgroundImageFix" mode="normal" result="shape"/><feGaussianBlur result="effect1_foregroundBlur_28327_7023" stdDeviation=".75"/></filter><filter id="b" color-interpolation-filters="sRGB" filterUnits="userSpaceOnUse" height="5.21997" width="7.02344" x="9.80255" y="6.46753"><feFlood flood-opacity="0" result="BackgroundImageFix"/><feBlend in="SourceGraphic" in2="BackgroundImageFix" mode="normal" result="shape"/><feGaussianBlur result="effect1_foregroundBlur_28327_7023" stdDeviation=".25"/></filter><filter id="c" color-interpolation-filters="sRGB" filterUnits="userSpaceOnUse" height="3.84106" width="3.75018" x="12.9818" y="8.62573"><feFlood flood-opacity="0" result="BackgroundImageFix"/><feBlend in="SourceGraphic" in2="BackgroundImageFix" mode="normal" result="shape"/><feGaussianBlur result="effect1_foregroundBlur_28327_7023" stdDeviation=".5"/></filter><filter id="d" color-interpolation-filters="sRGB" filterUnits="userSpaceOnUse" height="3.81909" width="3.81903" x="16.9523" y="10.6389"><feFlood flood-opacity="0" result="BackgroundImageFix"/><feBlend in="SourceGraphic" in2="BackgroundImageFix" mode="normal" result="shape"/><feGaussianBlur result="effect1_foregroundBlur_28327_7023" stdDeviation=".5"/></filter><filter id="e" color-interpolation-filters="sRGB" filterUnits="userSpaceOnUse" height="5.12744" width="6.95178" x="19.0892" y="6.70044"><feFlood flood-opacity="0" result="BackgroundImageFix"/><feBlend in="SourceGraphic" in2="BackgroundImageFix" mode="normal" result="shape"/><feGaussianBlur result="effect1_foregroundBlur_28327_7023" stdDeviation=".25"/></filter><filter id="f" color-interpolation-filters="sRGB" filterUnits="userSpaceOnUse" height="4.2915" width="5.05756" x="22.9186" y="2.29028"><feFlood flood-opacity="0" result="BackgroundImageFix"/><feBlend in="SourceGraphic" in2="BackgroundImageFix" mode="normal" result="shape"/><feGaussianBlur result="effect1_foregroundBlur_28327_7023" stdDeviation=".375"/></filter><filter id="g" color-interpolation-filters="sRGB" filterUnits="userSpaceOnUse" height="4.92627" width="5.54114" x="9.87573" y="2.12354"><feFlood flood-opacity="0" result="BackgroundImageFix"/><feBlend in="SourceGraphic" in2="BackgroundImageFix" mode="normal" result="shape"/><feGaussianBlur result="effect1_foregroundBlur_28327_7023" stdDeviation=".375"/></filter><linearGradient id="h" gradientUnits="userSpaceOnUse" x1="13.2024" x2="19.1693" y1="18.9815" y2="18.9815"><stop offset="0" stop-color="#734951"/><stop offset=".385417" stop-color="#924f67"/><stop offset="1" stop-color="#a97270"/></linearGradient><linearGradient id="i" gradientUnits="userSpaceOnUse" x1="17.7465" x2="17.5148" y1="10.1162" y2="16.6023"><stop offset="0" stop-color="#734951"/><stop offset="1" stop-color="#734951" stop-opacity="0"/></linearGradient><linearGradient id="j"><stop offset="0" stop-color="#4b2231"/><stop offset="1" stop-color="#4b2231" stop-opacity="0"/></linearGradient><radialGradient id="k" cx="0" cy="0" gradientTransform="matrix(2.46258676 4.6467997 -1.33678328 .70843269 16.5655 9.04051)" gradientUnits="userSpaceOnUse" r="1" xlink:href="#j"/><radialGradient id="l" cx="0" cy="0" gradientTransform="matrix(-3.96648418 4.047189 -.81332158 -.79710316 16.185 8.8692)" gradientUnits="userSpaceOnUse" r="1" xlink:href="#j"/><radialGradient id="m" cx="0" cy="0" gradientTransform="matrix(-1.99145565 3.7474343 -2.65927324 -1.4131868 16.5655 12.4453)" gradientUnits="userSpaceOnUse" r="1"><stop offset="0" stop-color="#6c3250"/><stop offset="1" stop-color="#6c3250" stop-opacity="0"/></radialGradient><linearGradient id="n" gradientUnits="userSpaceOnUse" x1="17.732" x2="20.1191" y1=".852532" y2="22.8705"><stop offset="0" stop-color="#ae7779" stop-opacity="0"/><stop offset="1" stop-color="#b68087"/></linearGradient><radialGradient id="o" cx="0" cy="0" gradientTransform="matrix(-.12893913 5.24251462 -12.18691457 -.29973596 12.3025 4.31785)" gradientUnits="userSpaceOnUse" r="1"><stop offset="0" stop-color="#9ed141"/><stop offset="1" stop-color="#799d4b"/></radialGradient><radialGradient id="p" cx="0" cy="0" gradientTransform="matrix(0 2.65232 -6.96779 0 11.0178 5.59752)" gradientUnits="userSpaceOnUse" r="1"><stop offset="0" stop-color="#9ac644"/><stop offset="1" stop-color="#9ac644" stop-opacity="0"/></radialGradient><linearGradient id="q" gradientUnits="userSpaceOnUse" x1="16.0539" x2="14.6091" y1="8.56966" y2="6.17544"><stop offset="0" stop-color="#5d9501"/><stop offset="1" stop-color="#5d9501" stop-opacity="0"/></linearGradient><linearGradient id="r" gradientUnits="userSpaceOnUse" x1="8.74739" x2="8.74739" y1="8.6935" y2="7.62023"><stop offset="0" stop-color="#9c99a6"/><stop offset="1" stop-color="#9c99a6" stop-opacity="0"/></linearGradient><radialGradient id="s" cx="0" cy="0" gradientTransform="matrix(-3.92604779 1.34303838 -.53635957 -1.56791744 9.3106 8.24985)" gradientUnits="userSpaceOnUse" r="1"><stop offset="0" stop-color="#66981b"/><stop offset="1" stop-color="#66981b" stop-opacity="0"/></radialGradient><radialGradient id="t" cx="0" cy="0" gradientTransform="matrix(-9.00636258 .56615887 -.46561704 -7.4069596 12.3213 7.14803)" gradientUnits="userSpaceOnUse" r="1"><stop offset=".746552" stop-color="#82ab5a" stop-opacity="0"/><stop offset=".984356" stop-color="#82ab5a"/></radialGradient><radialGradient id="u" cx="0" cy="0" gradientTransform="matrix(-14.6235 0 0 -15.2713 26.9179 6.10332)" gradientUnits="userSpaceOnUse" r="1"><stop offset="0" stop-color="#a3d350"/><stop offset="1" stop-color="#679e15"/></radialGradient><radialGradient id="v" cx="0" cy="0" gradientTransform="matrix(-8.34375 0 0 -4.67926 26.2088 5.34375)" gradientUnits="userSpaceOnUse" r="1"><stop offset="0" stop-color="#a3cf56"/><stop offset="1" stop-color="#a3cf56" stop-opacity="0"/></radialGradient><linearGradient id="w" gradientUnits="userSpaceOnUse" x1="24.959" x2="24.959" y1="9.09033" y2="7.65554"><stop offset="0" stop-color="#95a096"/><stop offset="1" stop-color="#95a096" stop-opacity="0"/></linearGradient><radialGradient id="x" cx="0" cy="0" gradientTransform="matrix(-4.12493918 7.56253282 -6.87037059 -3.74740335 13.8026 10.8126)" gradientUnits="userSpaceOnUse" r="1"><stop offset="0" stop-color="#65943f"/><stop offset="1" stop-color="#4c712c"/></radialGradient><radialGradient id="y" cx="0" cy="0" gradientTransform="matrix(-3.40238891 3.44204941 -1.03713872 -1.02518844 12.0947 11.9176)" gradientUnits="userSpaceOnUse" r="1"><stop offset="0" stop-color="#69785c"/><stop offset="1" stop-color="#69785c" stop-opacity="0"/></radialGradient><radialGradient id="z" cx="0" cy="0" gradientTransform="matrix(-1.84106319 1.91923937 -1.81594218 -1.74197359 13.2155 11.7371)" gradientUnits="userSpaceOnUse" r="1"><stop offset="0" stop-color="#4e5e45"/><stop offset="1" stop-color="#4e5e45" stop-opacity="0"/></radialGradient><linearGradient id="A" gradientUnits="userSpaceOnUse" x1="11.6544" x2="11.3041" y1="13.5684" y2="13.2482"><stop offset="0" stop-color="#617247"/><stop offset="1" stop-color="#617247" stop-opacity="0"/></linearGradient><linearGradient id="B" gradientUnits="userSpaceOnUse" x1="15.0213" x2="11.4276" y1="8.62496" y2="9.34371"><stop offset="0" stop-color="#7c9d5a"/><stop offset="1" stop-color="#7c9d5a" stop-opacity="0"/></linearGradient><radialGradient id="C" cx="0" cy="0" gradientTransform="matrix(-3.3021805 3.17753729 -5.52045015 -5.73699728 23.2349 9.70729)" gradientUnits="userSpaceOnUse" r="1"><stop offset="0" stop-color="#74a550"/><stop offset="1" stop-color="#517d2a"/></radialGradient><radialGradient id="D" cx="0" cy="0" gradientTransform="matrix(1.52647114 -1.68223546 6.92446465 6.28330322 20.4312 14.7851)" gradientUnits="userSpaceOnUse" r="1"><stop offset="0" stop-color="#576043"/><stop offset="1" stop-color="#576043" stop-opacity="0"/></radialGradient><radialGradient id="E" cx="0" cy="0" gradientTransform="matrix(13.0589349 7.6635006 -7.09552647 12.09108253 13.2661 7.65123)" gradientUnits="userSpaceOnUse" r="1"><stop offset=".756577" stop-color="#6c9543" stop-opacity="0"/><stop offset="1" stop-color="#6c9543"/></radialGradient><radialGradient id="F" cx="0" cy="0" gradientTransform="matrix(-.60746135 -2.58566151 1.30859164 -.30743345 19.3875 12.62)" gradientUnits="userSpaceOnUse" r="1"><stop offset="0" stop-color="#3e6a0c"/><stop offset="1" stop-color="#3e6a0c" stop-opacity="0"/></radialGradient><linearGradient id="G" gradientUnits="userSpaceOnUse" x1="19.5877" x2="20.4555" y1="13.4705" y2="12.6027"><stop offset="0" stop-color="#394b28"/><stop offset="1" stop-color="#394b28" stop-opacity="0"/></linearGradient><radialGradient id="H" cx="0" cy="0" gradientTransform="matrix(-1.92188087 2.24055519 -2.8273622 -2.42522627 18.7088 13.0095)" gradientUnits="userSpaceOnUse" r="1"><stop offset="0" stop-color="#b97056"/><stop offset="1" stop-color="#82582f"/></radialGradient><radialGradient id="I" cx="0" cy="0" gradientTransform="matrix(.25000029 -2.16568813 2.37772007 .27447659 17.8026 15.0095)" gradientUnits="userSpaceOnUse" r="1"><stop offset="0" stop-color="#b5547d"/><stop offset="1" stop-color="#b5547d" stop-opacity="0"/></radialGradient><linearGradient id="J"><stop offset="0" stop-color="#ad619b"/><stop offset="1" stop-color="#ad619b" stop-opacity="0"/></linearGradient><radialGradient id="K" cx="0" cy="0" gradientTransform="matrix(-.25781052 -.35937658 1.15998437 -.83215264 19.2166 14.8985)" gradientUnits="userSpaceOnUse" r="1" xlink:href="#J"/><radialGradient id="L" cx="0" cy="0" gradientTransform="matrix(.53125003 -.34374945 .56696897 .87622621 16.2244 14.2813)" gradientUnits="userSpaceOnUse" r="1" xlink:href="#J"/><radialGradient id="M" cx="0" cy="0" gradientTransform="matrix(3.74601529 -2.52167119 2.23978417 3.32726399 16.439 14.4044)" gradientUnits="userSpaceOnUse" r="1"><stop offset=".817127" stop-color="#ac794f" stop-opacity="0"/><stop offset="1" stop-color="#ac794f"/></radialGradient><radialGradient id="N" cx="0" cy="0" gradientTransform="matrix(0 1.59191 -.539148 0 16.185 12.0871)" gradientUnits="userSpaceOnUse" r="1"><stop offset="0" stop-color="#893e2f"/><stop offset="1" stop-color="#893e2f" stop-opacity="0"/></radialGradient><radialGradient id="O" cx="0" cy="0" gradientTransform="matrix(-1.92188087 2.24055519 -2.8273622 -2.42522627 14.7088 11.0095)" gradientUnits="userSpaceOnUse" r="1"><stop offset="0" stop-color="#aa674f"/><stop offset="1" stop-color="#82582f"/></radialGradient><radialGradient id="P" cx="0" cy="0" gradientTransform="matrix(.25000029 -2.16568813 2.37772007 .27447659 13.8026 13.0095)" gradientUnits="userSpaceOnUse" r="1"><stop offset="0" stop-color="#ac4d77"/><stop offset="1" stop-color="#ac4d77" stop-opacity="0"/></radialGradient><radialGradient id="Q" cx="0" cy="0" gradientTransform="matrix(.1250003 -.39062527 .89643194 .28685871 13.5526 13.0782)" gradientUnits="userSpaceOnUse" r="1" xlink:href="#J"/><radialGradient id="R" cx="0" cy="0" gradientTransform="matrix(3.74601529 -2.52167119 2.23978417 3.32726399 12.439 12.4044)" gradientUnits="userSpaceOnUse" r="1"><stop offset=".773245" stop-color="#ac794f" stop-opacity="0"/><stop offset="1" stop-color="#ac794f"/></radialGradient><linearGradient id="S"><stop offset="0" stop-color="#d79f87"/><stop offset="1" stop-color="#d79f87" stop-opacity="0"/></linearGradient><radialGradient id="T" cx="0" cy="0" gradientTransform="matrix(-2.20205763 1.31414877 -1.37721754 -2.30773902 15.2694 10.3322)" gradientUnits="userSpaceOnUse" r="1" xlink:href="#S"/><radialGradient id="U" cx="0" cy="0" gradientTransform="matrix(-2.34042483 1.27392222 -1.27392222 -2.34042483 19.3002 12.341)" gradientUnits="userSpaceOnUse" r="1" xlink:href="#S"/><radialGradient id="V" cx="0" cy="0" gradientTransform="matrix(-1.15266217 1.27724411 -3.83842124 -3.46402297 23.671 8.02492)" gradientUnits="userSpaceOnUse" r="1"><stop offset="0" stop-color="#80b35c"/><stop offset="1" stop-color="#80b35c" stop-opacity="0"/></radialGradient><radialGradient id="W" cx="0" cy="0" gradientTransform="matrix(-3.98643185 -.14777825 .02750388 -.74193839 27.5258 4.22433)" gradientUnits="userSpaceOnUse" r="1"><stop offset="0" stop-color="#c0ef77"/><stop offset="1" stop-color="#c0ef77" stop-opacity="0"/></radialGradient><radialGradient id="X" cx="0" cy="0" gradientTransform="matrix(-5.53349512 .70630499 -.24777442 -1.94117071 15.8238 4.2401)" gradientUnits="userSpaceOnUse" r="1"><stop offset="0" stop-color="#b8e172"/><stop offset="1" stop-color="#b8e172" stop-opacity="0"/></radialGradient><path d="m19.1693 7.96875h-5.9687v22.03115h5.9687z" fill="url(#h)"/><path d="m19.1693 7.96875h-5.9687v22.03115h5.9687z" fill="url(#i)"/><path d="m19.1693 7.96875h-5.9687v22.03115h5.9687z" fill="url(#k)"/><path d="m19.1693 7.96875h-5.9687v22.03115h5.9687z" fill="url(#l)"/><path d="m19.1693 7.96875h-5.9687v22.03115h5.9687z" fill="url(#m)"/><g filter="url(#a)"><path d="m17.2789 14.0728h.906066v15.3571h-.906066z" fill="url(#n)"/></g><path d="m10.21 2.08984c-3.23174 0-5.88523 2.49355-6.13998 5.66011-.02215.27525.20383.4999.47997.4999h11.32001c.2761 0 .5021-.22466.4801-.49992-.2542-3.17488-2.908-5.66009-6.1401-5.66009z" fill="url(#o)"/><path d="m10.21 2.08984c-3.23174 0-5.88523 2.49355-6.13998 5.66011-.02215.27525.20383.4999.47997.4999h11.32001c.2761 0 .5021-.22466.4801-.49992-.2542-3.17488-2.908-5.66009-6.1401-5.66009z" fill="url(#p)"/><path d="m10.21 2.08984c-3.23174 0-5.88523 2.49355-6.13998 5.66011-.02215.27525.20383.4999.47997.4999h11.32001c.2761 0 .5021-.22466.4801-.49992-.2542-3.17488-2.908-5.66009-6.1401-5.66009z" fill="url(#q)"/><path d="m10.21 2.08984c-3.23174 0-5.88523 2.49355-6.13998 5.66011-.02215.27525.20383.4999.47997.4999h11.32001c.2761 0 .5021-.22466.4801-.49992-.2542-3.17488-2.908-5.66009-6.1401-5.66009z" fill="url(#r)"/><path d="m10.21 2.08984c-3.23174 0-5.88523 2.49355-6.13998 5.66011-.02215.27525.20383.4999.47997.4999h11.32001c.2761 0 .5021-.22466.4801-.49992-.2542-3.17488-2.908-5.66009-6.1401-5.66009z" fill="url(#s)"/><path d="m10.21 2.08984c-3.23174 0-5.88523 2.49355-6.13998 5.66011-.02215.27525.20383.4999.47997.4999h11.32001c.2761 0 .5021-.22466.4801-.49992-.2542-3.17488-2.908-5.66009-6.1401-5.66009z" fill="url(#t)"/><path d="m22.16 2.08984c-3.2317 0-5.8852 2.49355-6.14 5.66011-.0221.27525.2039.4999.48.4999h11.32c.2761 0 .5021-.22466.4801-.49992-.2541-3.17488-2.9079-5.66009-6.1401-5.66009z" fill="url(#u)"/><path d="m22.16 2.08984c-3.2317 0-5.8852 2.49355-6.14 5.66011-.0221.27525.2039.4999.48.4999h11.32c.2761 0 .5021-.22466.4801-.49992-.2541-3.17488-2.9079-5.66009-6.1401-5.66009z" fill="url(#v)"/><path d="m22.16 2.08984c-3.2317 0-5.8852 2.49355-6.14 5.66011-.0221.27525.2039.4999.48.4999h11.32c.2761 0 .5021-.22466.4801-.49992-.2541-3.17488-2.9079-5.66009-6.1401-5.66009z" fill="url(#w)"/><path d="m7.92316 8.4626c-2.29097 2.291-2.40412 5.9194-.33944 8.3424.1791.2102.49773.2093.693.014l8.00288-8.00285c.1953-.19526.1962-.5139-.0141-.69283-2.4154-2.05482-6.0518-1.94173-8.34234.33928z" fill="url(#x)"/><path d="m7.92316 8.4626c-2.29097 2.291-2.40412 5.9194-.33944 8.3424.1791.2102.49773.2093.693.014l8.00288-8.00285c.1953-.19526.1962-.5139-.0141-.69283-2.4154-2.05482-6.0518-1.94173-8.34234.33928z" fill="url(#y)"/><path d="m7.92316 8.4626c-2.29097 2.291-2.40412 5.9194-.33944 8.3424.1791.2102.49773.2093.693.014l8.00288-8.00285c.1953-.19526.1962-.5139-.0141-.69283-2.4154-2.05482-6.0518-1.94173-8.34234.33928z" fill="url(#z)"/><path d="m7.92316 8.4626c-2.29097 2.291-2.40412 5.9194-.33944 8.3424.1791.2102.49773.2093.693.014l8.00288-8.00285c.1953-.19526.1962-.5139-.0141-.69283-2.4154-2.05482-6.0518-1.94173-8.34234.33928z" fill="url(#A)"/><g filter="url(#b)"><path d="m16.326 8.48433-2.8828 2.70317-3.1406-3.91411c2.525-.8125 4.8828.13282 6.0234 1.21094z" fill="url(#B)"/></g><path d="m24.5251 8.4701c-2.291-2.29098-5.9194-2.40412-8.3425-.33944-.2102.17909-.2092.49773-.014.69299l8.0029 8.00285c.1953.1953.5139.1962.6928-.0141 2.0549-2.4154 1.9418-6.0518-.3392-8.3423z" fill="url(#C)"/><path d="m24.5251 8.4701c-2.291-2.29098-5.9194-2.40412-8.3425-.33944-.2102.17909-.2092.49773-.014.69299l8.0029 8.00285c.1953.1953.5139.1962.6928-.0141 2.0549-2.4154 1.9418-6.0518-.3392-8.3423z" fill="url(#D)"/><path d="m24.5251 8.4701c-2.291-2.29098-5.9194-2.40412-8.3425-.33944-.2102.17909-.2092.49773-.014.69299l8.0029 8.00285c.1953.1953.5139.1962.6928-.0141 2.0549-2.4154 1.9418-6.0518-.3392-8.3423z" fill="url(#E)"/><path d="m24.5251 8.4701c-2.291-2.29098-5.9194-2.40412-8.3425-.33944-.2102.17909-.2092.49773-.014.69299l8.0029 8.00285c.1953.1953.5139.1962.6928-.0141 2.0549-2.4154 1.9418-6.0518-.3392-8.3423z" fill="url(#F)"/><path d="m24.5251 8.4701c-2.291-2.29098-5.9194-2.40412-8.3425-.33944-.2102.17909-.2092.49773-.014.69299l8.0029 8.00285c.1953.1953.5139.1962.6928-.0141 2.0549-2.4154 1.9418-6.0518-.3392-8.3423z" fill="url(#G)"/><path d="m18.185 15.0095c1.1046 0 2-.8954 2-2s-.8954-2-2-2-2 .8954-2 2 .8954 2 2 2z" fill="url(#H)"/><path d="m18.185 15.0095c1.1046 0 2-.8954 2-2s-.8954-2-2-2-2 .8954-2 2 .8954 2 2 2z" fill="url(#I)"/><path d="m18.185 15.0095c1.1046 0 2-.8954 2-2s-.8954-2-2-2-2 .8954-2 2 .8954 2 2 2z" fill="url(#K)"/><path d="m18.185 15.0095c1.1046 0 2-.8954 2-2s-.8954-2-2-2-2 .8954-2 2 .8954 2 2 2z" fill="url(#L)"/><path d="m18.185 15.0095c1.1046 0 2-.8954 2-2s-.8954-2-2-2-2 .8954-2 2 .8954 2 2 2z" fill="url(#M)"/><path d="m18.185 15.0095c1.1046 0 2-.8954 2-2s-.8954-2-2-2-2 .8954-2 2 .8954 2 2 2z" fill="url(#N)"/><path d="m14.185 13.0095c1.1046 0 2-.8954 2-2 0-1.10456-.8954-1.99998-2-1.99998s-2 .89542-2 1.99998c0 1.1046.8954 2 2 2z" fill="url(#O)"/><path d="m14.185 13.0095c1.1046 0 2-.8954 2-2 0-1.10456-.8954-1.99998-2-1.99998s-2 .89542-2 1.99998c0 1.1046.8954 2 2 2z" fill="url(#P)"/><path d="m14.185 13.0095c1.1046 0 2-.8954 2-2 0-1.10456-.8954-1.99998-2-1.99998s-2 .89542-2 1.99998c0 1.1046.8954 2 2 2z" fill="url(#Q)"/><path d="m14.185 13.0095c1.1046 0 2-.8954 2-2 0-1.10456-.8954-1.99998-2-1.99998s-2 .89542-2 1.99998c0 1.1046.8954 2 2 2z" fill="url(#R)"/><g filter="url(#c)"><ellipse cx="14.8568" cy="10.5462" fill="url(#T)" rx=".855744" ry=".938232" transform="matrix(.88049307 -.47405901 .47405901 .88049307 -3.224031 8.303344)"/></g><g filter="url(#d)"><circle cx="18.8618" cy="12.5484" fill="url(#U)" r=".909515"/></g><g filter="url(#e)"><path d="m19.8392 7.46418c1.0281-.12461 4.5483.56074 5.4517 3.61372" stroke="url(#V)" stroke-linecap="round" stroke-width=".5"/></g><g filter="url(#f)"><ellipse cx="25.4474" cy="4.43603" fill="url(#W)" rx="2.15467" ry=".683327" transform="matrix(.80347985 .59533195 -.59533195 .80347985 7.641837 -14.277881)"/></g><g filter="url(#g)"><ellipse cx="12.6463" cy="4.5867" fill="url(#X)" rx="2.27099" ry="1.36301" transform="matrix(.82076653 .57126378 -.57126378 .82076653 4.886856 -6.402283)"/></g></svg>