<svg enable-background="new 0 0 128 128" viewBox="0 0 128 128" xmlns="http://www.w3.org/2000/svg"><g transform="scale(4)"><path d="m2 14c0-1.6569 1.34315-3 3-3h2l1.5-1 1 1h7l1.5-1 1 1h2c1.6569 0 3 1.3431 3 3v13c0 1.6569-1.3431 3-3 3h-16c-1.65685 0-3-1.3431-3-3z" fill="#f9c23c"/><path d="m14.5 20.5002c.6072-.4561 1-1.1823 1-2.0002 0-1.3807-1.1193-2.5-2.5-2.5s-2.5 1.1193-2.5 2.5c0 .8179.3928 1.5441 1 2.0002v3.4998c0 .8284.6716 1.5 1.5 1.5s1.5-.6716 1.5-1.5z" fill="#433b6b"/><path d="m13 2c-3.31371 0-6 2.68629-6 6v3h2.5v-3c0-1.933 1.567-3.5 3.5-3.5s3.5 1.567 3.5 3.5v3h2.5v-3c0-3.31371-2.6863-6-6-6z" fill="#d3d3d3"/><path d="m20 22v-6h9v6c-.0008.5-.25 1-.25 1l-3.25 6s-.2938.5892-.6562.8631c.0557-.0528-.0686-.2863-.183-.5012-.083-.1558-.1608-.3018-.1608-.3619 0 .0583-.0797.204-.1648.3595-.1158.2115-.2414.4412-.1895.4933-.3576-.278-.6457-.8528-.6457-.8528l-3.25-6s-.25-.5-.25-1z" fill="#d3d3d3"/><path d="m19 15.25c0-.6904.5596-1.25 1.25-1.25h8.5c.6904 0 1.25.5596 1.25 1.25s-.5596 1.25-1.25 1.25h-8.5c-.6904 0-1.25-.5596-1.25-1.25z" fill="#00a6ed"/><path d="m25 22.9146c.5826-.2059 1-.7615 1-1.4146 0-.8284-.6716-1.5-1.5-1.5s-1.5.6716-1.5 1.5c0 .6531.4174 1.2087 1 1.4146v6.5854c0 .2761.2239.5.5.5s.5-.2239.5-.5z" fill="#636363"/></g></svg>