<svg fill="none" height="32" viewBox="0 0 32 32" width="32" xmlns="http://www.w3.org/2000/svg"><path d="m15.8402 23.93c.0597.0449.1175.092.1733.1412.057-.0492.1159-.0963.1767-.1412 1.8561-1.2922 4.0634-1.9849 6.325-1.9849s4.4689.6927 6.325 1.9849c.365.2747.6602.6315.8618 1.0415.2015.41.3037.8617.2982 1.3185v3.71h-28.00002v-3.68c-.00514-.4642.10006-.9229.30696-1.3384.20689-.4155.50955-.776.88304-1.0516 1.85608-1.2922 4.06341-1.9849 6.325-1.9849 2.26162 0 4.46892.6927 6.32502 1.9849z" fill="#321b41"/><path d="m10.6699 7.93003h-2.3c-.60928-.00449-1.21238.12238-1.76821.37199-.55582.2496-1.05133.61607-1.45275 1.07443-.40143.45837-.69936.99785-.87348 1.58175-.17413.5839-.22036 1.1985-.13556 1.8018l.0673 1.0216c-.81473.1307-1.43718.8368-1.43718 1.6884 0 .928.73926 1.6834 1.66101 1.7093l.09887 1.5007c.1282.9713.60414 1.8632 1.33963 2.5104.51951.4572 1.14363.7704 1.81065.9162v.9334c0 .4801.19069.9405.53013 1.2799s.79982.5301 1.27987.5301c.48004 0 .94042-.1907 1.27982-.5301.3395-.3394.5302-.7998.5302-1.2799v-.9229c.6856-.1409 1.3277-.4582 1.8601-.9267.7355-.6472 1.2114-1.5391 1.3396-2.5104l.0939-1.5025c.5997-.0324 1.1172-.3738 1.3962-.8678.2859.5062.8224.8522 1.441.8696l.0989 1.5007c.1282.9713.6041 1.8632 1.3396 2.5104.5195.4572 1.1437.7704 1.8107.9162v.9334c0 .4801.1907.9405.5301 1.2799.3395.3394.7998.5301 1.2799.5301.48 0 .9404-.1907 1.2798-.5301.3395-.3394.5302-.7998.5302-1.2799v-.9229c.6856-.1409 1.3277-.4582 1.8601-.9267.7355-.6472 1.2114-1.5391 1.3396-2.5104l.0939-1.5025c.9008-.0487 1.6162-.7946 1.6162-1.7075 0-.8401-.6057-1.5387-1.4043-1.6828l.0642-1.0272c.0811-.6003.0332-1.211-.1405-1.7913s-.4691-1.11694-.8666-1.57404c-.3975-.45711-.8878-.82419-1.4384-1.07675s-1.1488-.38479-1.7545-.38788h-2.3c-.6093-.00449-1.2124.12238-1.7682.37199-.5558.2496-1.0513.61607-1.4528 1.07443-.4014.45837-.6993.99785-.8734 1.58175-.1742.5839-.2204 1.1985-.1356 1.8018l.0673 1.0216c-.5228.0839-.9664.4046-1.2172.8487-.2455-.4347-.6758-.7513-1.1843-.8431l.0642-1.0272c.0811-.6003.0332-1.211-.1405-1.7913s-.4691-1.11694-.8666-1.57404c-.3975-.45711-.8878-.82419-1.4384-1.07675s-1.1488-.38479-1.7545-.38788z" fill="#533566"/></svg>