<svg enable-background="new 0 0 128 128" viewBox="0 0 32 32" xmlns="http://www.w3.org/2000/svg"><path d="m2 7c0-.55228.44772-1 1-1h26c.5523 0 1 .44772 1 1v18c0 .5523-.4477 1-1 1h-26c-.55229 0-1-.4477-1-1z" fill="#321b41"/><path d="m11.7071 10.7071c.181-.181.2929-.431.2929-.7071 0-.55228-.4477-1-1-1s-1 .44772-1 1c-.55228 0-1 .4477-1 1s.44772 1 1 1c.2761 0 .5261-.1119.7071-.2929l1.1161 1.1161c.0977.0977.2559.0977.3536 0l.6464-.6464c.0977-.0977.0977-.2559 0-.3536zm0 10.4822c.181.181.2929.431.2929.7072 0 .5522-.4477 1-1 1s-1-.4478-1-1c-.55228 0-1-.4478-1-1 0-.5523.44772-1 1-1 .2761 0 .5261.1119.7071.2928l1.1161-1.1161c.0977-.0976.2559-.0976.3536 0l.6464.6465c.0977.0976.0977.2559 0 .3535zm8.1893-11.1893c0 .2761.112.5261.2929.7071l-1.1161 1.1161c-.0976.0977-.0976.2559 0 .3536l.6465.6464c.0976.0977.2559.0977.3535 0l1.1161-1.1161c.181.181.431.2929.7071.2929.5523 0 1-.4477 1-1s-.4477-1-1-1c0-.55228-.4477-1-1-1-.5522 0-1 .44772-1 1zm.2929 11.1893c-.1809.181-.2929.431-.2929.7072 0 .5522.4478 1 1 1 .5523 0 1-.4478 1-1 .5523 0 1-.4478 1-1 0-.5523-.4477-1-1-1-.2761 0-.5261.1119-.7071.2928l-1.1161-1.1161c-.0976-.0976-.2559-.0976-.3535 0l-.6465.6465c-.0976.0976-.0976.2559 0 .3535zm-.4393-6.1893c0-1.933-1.6789-3.5-3.75-3.5s-3.75 1.567-3.75 3.5c0 .4417.0877.8643.2477 1.2535l-.2735.4102c-.5874.881-.1016 2.0769.9338 2.2987l.342.0733v.7143c0 .4142.3358.75.75.75s.75-.3358.75-.75v-.5h.25v.5c0 .4142.3358.75.75.75s.75-.3358.75-.75v-.5h.25v.5c0 .4142.3358.75.75.75s.75-.3358.75-.75v-.7143l.342-.0733c1.0354-.2218 1.5212-1.4177.9338-2.2987l-.2735-.4102c.16-.3892.2477-.8118.2477-1.2535zm-4.8197 1.5825c-.481.481-1.1841.5578-1.5704.1715-.3226-.3226-.2701-1.3009.0737-1.6446.3437-.3438 1.3965-.3692 1.6682-.0974.3864.3863.3096 1.0894-.1715 1.5705zm3.6989.1715c-.3863.3863-1.0895.3095-1.5705-.1715-.481-.4811-.5578-1.1842-.1715-1.5705.2718-.2718 1.3245-.2464 1.6683.0974.3437.3437.3962 1.322.0737 1.6446zm-2.8463.1259c.096-.168.3382-.168.4342 0l.5692.9961c.0952.1666-.0251.374-.2171.374h-1.1384c-.192 0-.3123-.2074-.2171-.374z" fill="#f3eef8"/></svg>