<svg fill="none" height="32" viewBox="0 0 32 32" width="32" xmlns="http://www.w3.org/2000/svg" xmlns:xlink="http://www.w3.org/1999/xlink"><filter id="a" color-interpolation-filters="sRGB" filterUnits="userSpaceOnUse" height="28.875" width="28.875" x="2.48657" y=".6875"><feFlood flood-opacity="0" result="BackgroundImageFix"/><feBlend in="SourceGraphic" in2="BackgroundImageFix" mode="normal" result="shape"/><feColorMatrix in="SourceAlpha" result="hardAlpha" type="matrix" values="0 0 0 0 0 0 0 0 0 0 0 0 0 0 0 0 0 0 127 0"/><feOffset dx="1" dy="-1"/><feGaussianBlur stdDeviation="1.5"/><feComposite in2="hardAlpha" k2="-1" k3="1" operator="arithmetic"/><feColorMatrix type="matrix" values="0 0 0 0 0.188235 0 0 0 0 0.470588 0 0 0 0 0.843137 0 0 0 1 0"/><feBlend in2="shape" mode="normal" result="effect1_innerShadow_18590_392"/><feColorMatrix in="SourceAlpha" result="hardAlpha" type="matrix" values="0 0 0 0 0 0 0 0 0 0 0 0 0 0 0 0 0 0 127 0"/><feOffset dy="-1"/><feGaussianBlur stdDeviation="1.5"/><feComposite in2="hardAlpha" k2="-1" k3="1" operator="arithmetic"/><feColorMatrix type="matrix" values="0 0 0 0 0.27451 0 0 0 0 0.34902 0 0 0 0 0.8 0 0 0 1 0"/><feBlend in2="effect1_innerShadow_18590_392" mode="normal" result="effect2_innerShadow_18590_392"/></filter><filter id="b" color-interpolation-filters="sRGB" filterUnits="userSpaceOnUse" height="28.375" width="5.5" x="25.9241" y="1.4375"><feFlood flood-opacity="0" result="BackgroundImageFix"/><feBlend in="SourceGraphic" in2="BackgroundImageFix" mode="normal" result="shape"/><feGaussianBlur result="effect1_foregroundBlur_18590_392" stdDeviation="1"/></filter><filter id="c" color-interpolation-filters="sRGB" filterUnits="userSpaceOnUse" height="5.5" width="27.2812" x="3.20044" y=".75"><feFlood flood-opacity="0" result="BackgroundImageFix"/><feBlend in="SourceGraphic" in2="BackgroundImageFix" mode="normal" result="shape"/><feGaussianBlur result="effect1_foregroundBlur_18590_392" stdDeviation="1"/></filter><filter id="d" color-interpolation-filters="sRGB" filterUnits="userSpaceOnUse" height="21" width="20.5" x="6.17407" y="5.125"><feFlood flood-opacity="0" result="BackgroundImageFix"/><feBlend in="SourceGraphic" in2="BackgroundImageFix" mode="normal" result="shape"/><feGaussianBlur result="effect1_foregroundBlur_18590_392" stdDeviation=".5"/></filter><filter id="e" color-interpolation-filters="sRGB" filterUnits="userSpaceOnUse" height="19.8" width="19.3" x="6.77407" y="5.725"><feFlood flood-opacity="0" result="BackgroundImageFix"/><feBlend in="SourceGraphic" in2="BackgroundImageFix" mode="normal" result="shape"/><feColorMatrix in="SourceAlpha" result="hardAlpha" type="matrix" values="0 0 0 0 0 0 0 0 0 0 0 0 0 0 0 0 0 0 127 0"/><feOffset dx="-.4" dy=".4"/><feGaussianBlur stdDeviation=".375"/><feComposite in2="hardAlpha" k2="-1" k3="1" operator="arithmetic"/><feColorMatrix type="matrix" values="0 0 0 0 0.901961 0 0 0 0 0.854902 0 0 0 0 0.980392 0 0 0 1 0"/><feBlend in2="shape" mode="normal" result="effect1_innerShadow_18590_392"/><feColorMatrix in="SourceAlpha" result="hardAlpha" type="matrix" values="0 0 0 0 0 0 0 0 0 0 0 0 0 0 0 0 0 0 127 0"/><feOffset dx=".4" dy="-.4"/><feGaussianBlur stdDeviation=".2"/><feComposite in2="hardAlpha" k2="-1" k3="1" operator="arithmetic"/><feColorMatrix type="matrix" values="0 0 0 0 1 0 0 0 0 0.988235 0 0 0 0 1 0 0 0 1 0"/><feBlend in2="effect1_innerShadow_18590_392" mode="normal" result="effect2_innerShadow_18590_392"/></filter><linearGradient id="f" gradientUnits="userSpaceOnUse" x1="16.4241" x2="16.4241" y1="5.26201" y2="38.5147"><stop offset="0" stop-color="#5cb7ff"/><stop offset="1" stop-color="#4878dd"/></linearGradient><radialGradient id="g" cx="0" cy="0" gradientTransform="matrix(-1.56248628 1.46876123 -1.71548166 -1.82495051 28.1428 3.78125)" gradientUnits="userSpaceOnUse" r="1"><stop offset="0" stop-color="#7bd7ff"/><stop offset="1" stop-color="#7bd7ff" stop-opacity="0"/></radialGradient><linearGradient id="h" gradientUnits="userSpaceOnUse" x1="29.1741" x2="29.1741" y1="4.1875" y2="27.0625"><stop offset="0" stop-color="#7fd9ff"/><stop offset="1" stop-color="#639df4"/></linearGradient><linearGradient id="i" gradientUnits="userSpaceOnUse" x1="28.8879" x2="3.35669" y1="3.75002" y2="3.75002"><stop offset="0" stop-color="#7dd8ff"/><stop offset="1" stop-color="#5db6ff"/></linearGradient><g filter="url(#a)"><rect fill="url(#f)" height="27.875" rx="3.6" width="27.875" x="2.48657" y="1.6875"/><rect fill="url(#g)" height="27.875" rx="3.6" width="27.875" x="2.48657" y="1.6875"/></g><g filter="url(#b)"><path d="m28.6741 4.1875v22.875" stroke="url(#h)" stroke-linecap="round" stroke-width="1.5"/></g><g filter="url(#c)"><path d="m5.95044 3.5h21.78126" stroke="url(#i)" stroke-linecap="round" stroke-width="1.5"/></g><g fill="#579fff" filter="url(#d)"><path d="m23.1741 8.125c0 1.10457-.8955 2-2 2-1.1046 0-2-.89543-2-2s.8954-2 2-2c1.1045 0 2 .89543 2 2z"/><path d="m17.1741 19.125c0 2.2091-1.7909 4-4 4-2.2092 0-4.00003-1.7909-4.00003-4 0-2.1591 1.71063-3.9186 3.85043-3.9973.0919-.0033.1768-.0532.2204-.1342l.7989-1.4836c.083-.1543-.0143-.3436-.189-.3578-.2201-.0179-.447-.0271-.6807-.0271-3.31374 0-6.00003 2.6863-6.00003 6s2.68629 6 6.00003 6c3.245 0 5.8883-2.576 5.9965-5.7947.004-.1191-.0806-.2221-.1975-.2455l-1.492-.2984c-.1614-.0323-.3095.0977-.3075.2623.0003.0253.0005.0507.0005.0763z"/><path d="m14.9641 11.082c.8633-.2616 1.2448-.2973 1.7962-.0466.0966.0439.2555.1595.4524.3598.0658.0669.1292.1364.189.2054.0291.0336.0318.0825.0071.1195l-2.1447 3.217c-.5988.8983-.0811 2.115.9799 2.3079l4.7512.8639c.066.012.2013.0647.3818.3484.1834.2882.3441.7132.4712 1.2415.2524 1.0502.314 2.2554.3256 2.9306.014.8066.6668 1.4956 1.5136 1.4956h.9839.0028c.5523 0 1-.4477 1-1s-.4477-1-1-1h-.4183c-.0536 0-.0977-.0421-.1001-.0957-.0347-.7579-.126-1.8125-.363-2.798-.1513-.6296-.3767-1.295-.7284-1.8477-.3545-.5571-.9032-1.0955-1.7113-1.2425l-3.8529-.7005c-.0708-.0129-.1052-.094-.0653-.1539l1.8895-2.8343c.3271-.4906.3527-1.167-.0342-1.6901-.1504-.2033-.3782-.4916-.6514-.76942-.261-.26544-.6238-.58415-1.0508-.77825-1.2262-.55737-2.1985-.35131-3.2038-.04666-.8042.24369-1.4361.73092-1.8439 1.11463-.2095.1971-.3744.3807-.4886.5171-.0574.0685-.1027.126-.1352.1686-.0163.0213-.0294.0389-.0393.0523l-.0064.0088c-.1235.1664-.1966.3725-.1966.5956 0 .5523.4477 1 1 1 .3376 0 .6362-.1673.8172-.4236.0029-.0039.0077-.0103.0142-.0188.0161-.0211.0429-.0553.0796-.099.0738-.0882.1845-.2117.3255-.3443.2929-.2756.6611-.5384 1.0535-.6573z"/></g><g fill="#fcf2ff" filter="url(#e)"><path d="m23.1741 8.125c0 1.10457-.8955 2-2 2-1.1046 0-2-.89543-2-2s.8954-2 2-2c1.1045 0 2 .89543 2 2z"/><path d="m17.1741 19.125c0 2.2091-1.7909 4-4 4-2.2092 0-4.00003-1.7909-4.00003-4 0-2.1591 1.71063-3.9186 3.85043-3.9973.0919-.0033.1768-.0532.2204-.1342l.7989-1.4836c.083-.1543-.0143-.3436-.189-.3578-.2201-.0179-.447-.0271-.6807-.0271-3.31374 0-6.00003 2.6863-6.00003 6s2.68629 6 6.00003 6c3.245 0 5.8883-2.576 5.9965-5.7947.004-.1191-.0806-.2221-.1975-.2455l-1.492-.2984c-.1614-.0323-.3095.0977-.3075.2623.0003.0253.0005.0507.0005.0763z"/><path d="m14.9641 11.082c.8633-.2616 1.2448-.2973 1.7962-.0466.0966.0439.2555.1595.4524.3598.0658.0669.1292.1364.189.2054.0291.0336.0318.0825.0071.1195l-2.1447 3.217c-.5988.8983-.0811 2.115.9799 2.3079l4.7512.8639c.066.012.2013.0647.3818.3484.1834.2882.3441.7132.4712 1.2415.2524 1.0502.314 2.2554.3256 2.9306.014.8066.6668 1.4956 1.5136 1.4956h.9839.0028c.5523 0 1-.4477 1-1s-.4477-1-1-1h-.4183c-.0536 0-.0977-.0421-.1001-.0957-.0347-.7579-.126-1.8125-.363-2.798-.1513-.6296-.3767-1.295-.7284-1.8477-.3545-.5571-.9032-1.0955-1.7113-1.2425l-3.8529-.7005c-.0708-.0129-.1052-.094-.0653-.1539l1.8895-2.8343c.3271-.4906.3527-1.167-.0342-1.6901-.1504-.2033-.3782-.4916-.6514-.76942-.261-.26544-.6238-.58415-1.0508-.77825-1.2262-.55737-2.1985-.35131-3.2038-.04666-.8042.24369-1.4361.73092-1.8439 1.11463-.2095.1971-.3744.3807-.4886.5171-.0574.0685-.1027.126-.1352.1686-.0163.0213-.0294.0389-.0393.0523l-.0064.0088c-.1235.1664-.1966.3725-.1966.5956 0 .5523.4477 1 1 1 .3376 0 .6362-.1673.8172-.4236.0029-.0039.0077-.0103.0142-.0188.0161-.0211.0429-.0553.0796-.099.0738-.0882.1845-.2117.3255-.3443.2929-.2756.6611-.5384 1.0535-.6573z"/></g></svg>