<svg enable-background="new 0 0 128 128" viewBox="0 0 32 32" xmlns="http://www.w3.org/2000/svg"><g fill="#321b41"><path d="m17.1137 2c1.4824 0 2.8951.64281 3.8701 1.76773.965 1.11488 1.4127 2.60138 1.2237 4.05776l-.3581 5.81541v.0402c-.1427 1.069-.6195 2.0242-1.3154 2.7628 3.8512 1.7113 6.5318 5.5676 6.5245 10.0561v3.5h-22.00003v-3.5c0-2.6123.91049-5.0104 2.43072-6.8962l.9405-2.2171 2.16231-.4327c.298-.171.6048-.3285.9195-.4716-.7158-.7438-1.2069-1.7137-1.352-2.8013v-.0301l-.37803-5.82551c-.15918-1.54677.28853-3.01319 1.27343-4.12806.9651-1.09479 2.328-1.69743 3.8204-1.69743z"/><path d="m2.34458 8.70542 1.00391-.1319.73266-.86356-.28263-.48997c-.12-.21-.38-.28-.58-.16l-1 .57c-.21.12-.28.38-.16.58z"/><path d="m5.0837 9.44803-.73609.85857-.99912.1375-.5039-.87269.65923-.86599 1.06912-.1319z"/><path d="m4.34761 12.1745.99888-.1364.73493-.8604-.50469-.8654-1.00379.1318-.72444.866z"/><path d="m7.07875 12.9067-.73023.7744-1.00203.2234-.49887-.864.59494-.866 1.13319-.1317z"/><path d="m8.07852 14.64-.3741 1h-1.3559l-.50202-.8695.62245-.866 1.1057-.1318z"/></g><path d="m2.34094 8.70752 1.732-1 .5.866-1.732 1z" fill="#533566"/><path d="m3.34473 10.4463 1.732-1.00001.5.86601-1.732 1z" fill="#533566"/><path d="m4.34375 12.1768 1.732-1 .5.866-1.732 1z" fill="#533566"/><path d="m5.34265 13.9067 1.732-1 .5.866-1.732 1z" fill="#533566"/><path d="m10.0985 14.7-.59719.3448 1.09789 1.9023c.2954-.1689.5993-.3247.9106-.4667.5948.6186 1.3452 1.0811 2.1813 1.325l2.4581 3.8216 2.3817-3.8892c.7671-.2624 1.4539-.711 2.0039-1.2949.5579.2506 1.09.5455 1.5937.877l-4.189 7.0903 3.5889 5.5797h-3.36l-8.1584-12.6775c-.95659.631-1.80902 1.4072-2.52565 2.2974l-1.475-2.5484-.62086.3586c-.14.08-.31.03-.39-.11l-.25-.43c-.08-.13-.03-.31.1-.39l4.71-2.72c.13-.08.31-.03.39.1l.25001.43c.08.15.03.32-.1.4z" fill="#533566"/><path d="m18.0285 6.35986h-1.88-1.88c-1.66 0-2.97 1.4-2.85 3.06l.1 1.44004c.06.82.74 1.46 1.57 1.46.31 0 .62-.09.88-.27l.82-.56c.82-.55 1.89-.55 2.71 0l.82.56c.26.18.57.27.88.27.83 0 1.51-.64 1.57-1.46l.1-1.44004c.12-1.66-1.19-3.06-2.84-3.06z" fill="#ffd7c2"/><path d="m12.3325 8.38389c.1015.13025.2889.15395.4192.05255l.0021-.00152c.0029-.0022.0084-.00613.0162-.01155.0156-.01083.0407-.02749.0745-.0478.0679-.0407.17-.09549.3013-.14735.2627-.10372.6374-.1941 1.0877-.14113.1641.0193.3127-.09806.3321-.26215.0193-.16408-.0981-.31275-.2622-.33205-.5697-.06703-1.045.04759-1.3773.17886-.1662.06565-.2978.13586-.3894.19078-.0458.02751-.0818.05131-.1074.06899-.0127.00885-.0229.01618-.0304.0217l-.0092.00688-.0031.00235-.0011.00089-.0009.0007c-.1304.10157-.1537.28954-.0521.41985z" fill="#212121"/><path d="m19.7604 7.96245.0018.00143c.1303.10157.1538.2897.0523.42001-.1013.12993-.2885.15348-.4188.05293l-.0025-.0019c-.003-.0022-.0084-.00613-.0162-.01155-.0157-.01083-.0407-.02749-.0746-.0478-.0678-.0407-.17-.09549-.3013-.14735-.2626-.10372-.6374-.1941-1.0876-.14113-.1641.0193-.3128-.09806-.3321-.26215-.0193-.16408.0981-.31275.2622-.33205.5697-.06703 1.0449.04759 1.3773.17886.1662.06565.2978.13586.3893.19078.0459.02751.0819.05131.1074.06899.0128.00885.023.01618.0305.0217l.0092.00688z" fill="#212121"/><path d="m12.2485 10.2201c.15-.61996.71-1.07996 1.38-1.07996.7 0 1.27.5 1.4 1.14996.03.15-.08.28-.23.28h-2.28c-.18 0-.31-.17-.27-.35z" fill="#fff"/><path d="m19.8985 10.2201c-.15-.61996-.71-1.07996-1.38-1.07996-.7 0-1.27.5-1.4 1.14996-.03.15.08.28.23.28h2.28c.18 0 .31-.17.27-.35z" fill="#fff"/><path d="m12.9285 10.3299c0-.49998.41-.90998.91-.90998.51 0 .92.41.91.90998 0 .08-.01.16-.03.24h-1.76c-.02-.08-.03-.16-.03-.24z" fill="#7d4533"/><path d="m19.2184 10.3299c0-.49998-.41-.90998-.91-.90998-.51 0-.91.41-.91.90998 0 .08.01.16.03.24h1.76c.02-.08.03-.16.03-.24z" fill="#7d4533"/><path d="m13.8385 9.81006c.29 0 .52.23004.52.52004 0 .09-.02.17-.06.24h-.92c-.04-.07-.06-.15-.06-.24 0-.29.23-.52004.52-.52004z"/><path d="m18.3085 9.81006c-.29 0-.52.23004-.52.52004 0 .09.02.17.06.24h.92c.04-.07.06-.15.06-.24 0-.29-.23-.52004-.52-.52004z"/><path d="m13.6885 9.97006c0 .08834-.0716.16004-.16.16004-.0883 0-.16-.0717-.16-.16004 0-.08837.0717-.16.16-.16.0884 0 .16.07163.16.16z" fill="#fff"/><path d="m18.1885 9.97006c0 .08834-.0716.16004-.16.16004-.0883 0-.16-.0717-.16-.16004 0-.08837.0717-.16.16-.16.0884 0 .16.07163.16.16z" fill="#fff"/></svg>