<svg fill="none" height="32" viewBox="0 0 32 32" width="32" xmlns="http://www.w3.org/2000/svg" xmlns:xlink="http://www.w3.org/1999/xlink"><filter id="a" color-interpolation-filters="sRGB" filterUnits="userSpaceOnUse" height="11.16" width="20.98" x="5.60303" y="20.1918"><feFlood flood-opacity="0" result="BackgroundImageFix"/><feBlend in="SourceGraphic" in2="BackgroundImageFix" mode="normal" result="shape"/><feColorMatrix in="SourceAlpha" result="hardAlpha" type="matrix" values="0 0 0 0 0 0 0 0 0 0 0 0 0 0 0 0 0 0 127 0"/><feOffset dx="1" dy="1"/><feGaussianBlur stdDeviation="1"/><feComposite in2="hardAlpha" k2="-1" k3="1" operator="arithmetic"/><feColorMatrix type="matrix" values="0 0 0 0 0.819608 0 0 0 0 0.423529 0 0 0 0 0.270588 0 0 0 1 0"/><feBlend in2="shape" mode="normal" result="effect1_innerShadow_4002_4106"/></filter><filter id="b" color-interpolation-filters="sRGB" filterUnits="userSpaceOnUse" height="15.6128" width="13.076" x="9.48669" y="5.71338"><feFlood flood-opacity="0" result="BackgroundImageFix"/><feBlend in="SourceGraphic" in2="BackgroundImageFix" mode="normal" result="shape"/><feColorMatrix in="SourceAlpha" result="hardAlpha" type="matrix" values="0 0 0 0 0 0 0 0 0 0 0 0 0 0 0 0 0 0 127 0"/><feOffset dx=".75"/><feGaussianBlur stdDeviation=".6"/><feComposite in2="hardAlpha" k2="-1" k3="1" operator="arithmetic"/><feColorMatrix type="matrix" values="0 0 0 0 0.823529 0 0 0 0 0.623529 0 0 0 0 0.313726 0 0 0 1 0"/><feBlend in2="shape" mode="normal" result="effect1_innerShadow_4002_4106"/><feColorMatrix in="SourceAlpha" result="hardAlpha" type="matrix" values="0 0 0 0 0 0 0 0 0 0 0 0 0 0 0 0 0 0 127 0"/><feOffset dy=".2"/><feGaussianBlur stdDeviation=".375"/><feComposite in2="hardAlpha" k2="-1" k3="1" operator="arithmetic"/><feColorMatrix type="matrix" values="0 0 0 0 0.980392 0 0 0 0 0.54902 0 0 0 0 0.0941176 0 0 0 1 0"/><feBlend in2="effect1_innerShadow_4002_4106" mode="normal" result="effect2_innerShadow_4002_4106"/></filter><filter id="c" color-interpolation-filters="sRGB" filterUnits="userSpaceOnUse" height="13.5023" width="12.2141" x="12.005" y="7.62061"><feFlood flood-opacity="0" result="BackgroundImageFix"/><feBlend in="SourceGraphic" in2="BackgroundImageFix" mode="normal" result="shape"/><feGaussianBlur result="effect1_foregroundBlur_4002_4106" stdDeviation=".625"/></filter><filter id="d" color-interpolation-filters="sRGB" filterUnits="userSpaceOnUse" height="9.97522" width="15.5248" x="7.83063" y="1.9856"><feFlood flood-opacity="0" result="BackgroundImageFix"/><feBlend in="SourceGraphic" in2="BackgroundImageFix" mode="normal" result="shape"/><feColorMatrix in="SourceAlpha" result="hardAlpha" type="matrix" values="0 0 0 0 0 0 0 0 0 0 0 0 0 0 0 0 0 0 127 0"/><feOffset dy="-.5"/><feGaussianBlur stdDeviation=".625"/><feComposite in2="hardAlpha" k2="-1" k3="1" operator="arithmetic"/><feColorMatrix type="matrix" values="0 0 0 0 0.945098 0 0 0 0 0.509804 0 0 0 0 0.0627451 0 0 0 1 0"/><feBlend in2="shape" mode="normal" result="effect1_innerShadow_4002_4106"/><feColorMatrix in="SourceAlpha" result="hardAlpha" type="matrix" values="0 0 0 0 0 0 0 0 0 0 0 0 0 0 0 0 0 0 127 0"/><feOffset dy="-.2"/><feGaussianBlur stdDeviation=".2"/><feComposite in2="hardAlpha" k2="-1" k3="1" operator="arithmetic"/><feColorMatrix type="matrix" values="0 0 0 0 0.862745 0 0 0 0 0.486275 0 0 0 0 0.0470588 0 0 0 1 0"/><feBlend in2="effect1_innerShadow_4002_4106" mode="normal" result="effect2_innerShadow_4002_4106"/></filter><filter id="e" color-interpolation-filters="sRGB" filterUnits="userSpaceOnUse" height="1.39446" width="2.80013" x="17.5096" y="9.12617"><feFlood flood-opacity="0" result="BackgroundImageFix"/><feBlend in="SourceGraphic" in2="BackgroundImageFix" mode="normal" result="shape"/><feColorMatrix in="SourceAlpha" result="hardAlpha" type="matrix" values="0 0 0 0 0 0 0 0 0 0 0 0 0 0 0 0 0 0 127 0"/><feOffset dx=".1" dy="-.2"/><feGaussianBlur stdDeviation=".125"/><feComposite in2="hardAlpha" k2="-1" k3="1" operator="arithmetic"/><feColorMatrix type="matrix" values="0 0 0 0 0.603922 0 0 0 0 0.243137 0 0 0 0 0.152941 0 0 0 1 0"/><feBlend in2="shape" mode="normal" result="effect1_innerShadow_4002_4106"/></filter><filter id="f" color-interpolation-filters="sRGB" filterUnits="userSpaceOnUse" height="1.37676" width="2.80013" x="11.1703" y="9.14387"><feFlood flood-opacity="0" result="BackgroundImageFix"/><feBlend in="SourceGraphic" in2="BackgroundImageFix" mode="normal" result="shape"/><feColorMatrix in="SourceAlpha" result="hardAlpha" type="matrix" values="0 0 0 0 0 0 0 0 0 0 0 0 0 0 0 0 0 0 127 0"/><feOffset dx=".1" dy="-.2"/><feGaussianBlur stdDeviation=".125"/><feComposite in2="hardAlpha" k2="-1" k3="1" operator="arithmetic"/><feColorMatrix type="matrix" values="0 0 0 0 0.603922 0 0 0 0 0.243137 0 0 0 0 0.152941 0 0 0 1 0"/><feBlend in2="shape" mode="normal" result="effect1_innerShadow_4002_4106"/></filter><filter id="g" color-interpolation-filters="sRGB" filterUnits="userSpaceOnUse" height="7.62329" width="8.33789" x="8.06091" y="2.99731"><feFlood flood-opacity="0" result="BackgroundImageFix"/><feBlend in="SourceGraphic" in2="BackgroundImageFix" mode="normal" result="shape"/><feGaussianBlur result="effect1_foregroundBlur_4002_4106" stdDeviation=".25"/></filter><filter id="h" color-interpolation-filters="sRGB" filterUnits="userSpaceOnUse" height="7.36755" width="8.12042" x="15.1514" y="3.5824"><feFlood flood-opacity="0" result="BackgroundImageFix"/><feBlend in="SourceGraphic" in2="BackgroundImageFix" mode="normal" result="shape"/><feGaussianBlur result="effect1_foregroundBlur_4002_4106" stdDeviation=".25"/></filter><filter id="i" color-interpolation-filters="sRGB" filterUnits="userSpaceOnUse" height="2.7666" width="1.49969" x="8.36908" y="11.4611"><feFlood flood-opacity="0" result="BackgroundImageFix"/><feBlend in="SourceGraphic" in2="BackgroundImageFix" mode="normal" result="shape"/><feGaussianBlur result="effect1_foregroundBlur_4002_4106" stdDeviation=".125"/></filter><filter id="j" color-interpolation-filters="sRGB" filterUnits="userSpaceOnUse" height="2.79553" width="1.64154" x="21.3271" y="11.4421"><feFlood flood-opacity="0" result="BackgroundImageFix"/><feBlend in="SourceGraphic" in2="BackgroundImageFix" mode="normal" result="shape"/><feGaussianBlur result="effect1_foregroundBlur_4002_4106" stdDeviation=".125"/></filter><filter id="k" color-interpolation-filters="sRGB" filterUnits="userSpaceOnUse" height="1.24475" width="2.74622" x="11.1498" y="9.27002"><feFlood flood-opacity="0" result="BackgroundImageFix"/><feBlend in="SourceGraphic" in2="BackgroundImageFix" mode="normal" result="shape"/><feGaussianBlur result="effect1_foregroundBlur_4002_4106" stdDeviation=".125"/></filter><filter id="l" color-interpolation-filters="sRGB" filterUnits="userSpaceOnUse" height="1.24475" width="2.74622" x="17.5165" y="9.21448"><feFlood flood-opacity="0" result="BackgroundImageFix"/><feBlend in="SourceGraphic" in2="BackgroundImageFix" mode="normal" result="shape"/><feGaussianBlur result="effect1_foregroundBlur_4002_4106" stdDeviation=".125"/></filter><filter id="m" color-interpolation-filters="sRGB" filterUnits="userSpaceOnUse" height="1.56169" width="3.4115" x="11.2438" y="12.3206"><feFlood flood-opacity="0" result="BackgroundImageFix"/><feBlend in="SourceGraphic" in2="BackgroundImageFix" mode="normal" result="shape"/><feColorMatrix in="SourceAlpha" result="hardAlpha" type="matrix" values="0 0 0 0 0 0 0 0 0 0 0 0 0 0 0 0 0 0 127 0"/><feOffset dy="-.2"/><feGaussianBlur stdDeviation=".2"/><feComposite in2="hardAlpha" k2="-1" k3="1" operator="arithmetic"/><feColorMatrix type="matrix" values="0 0 0 0 0.568627 0 0 0 0 0.207843 0 0 0 0 0.298039 0 0 0 1 0"/><feBlend in2="shape" mode="normal" result="effect1_innerShadow_4002_4106"/></filter><filter id="n" color-interpolation-filters="sRGB" filterUnits="userSpaceOnUse" height="12.7955" width="11.5474" x="13.3236" y="8.06885"><feFlood flood-opacity="0" result="BackgroundImageFix"/><feBlend in="SourceGraphic" in2="BackgroundImageFix" mode="normal" result="shape"/><feColorMatrix in="SourceAlpha" result="hardAlpha" type="matrix" values="0 0 0 0 0 0 0 0 0 0 0 0 0 0 0 0 0 0 127 0"/><feOffset dx=".25"/><feGaussianBlur stdDeviation=".75"/><feComposite in2="hardAlpha" k2="-1" k3="1" operator="arithmetic"/><feColorMatrix type="matrix" values="0 0 0 0 0.901961 0 0 0 0 0.592157 0 0 0 0 0.231373 0 0 0 1 0"/><feBlend in2="shape" mode="normal" result="effect1_innerShadow_4002_4106"/></filter><filter id="o" color-interpolation-filters="sRGB" filterUnits="userSpaceOnUse" height="7.90649" width="3.87512" x="16.9394" y="7.34863"><feFlood flood-opacity="0" result="BackgroundImageFix"/><feBlend in="SourceGraphic" in2="BackgroundImageFix" mode="normal" result="shape"/><feGaussianBlur result="effect1_foregroundBlur_4002_4106" stdDeviation=".5"/></filter><filter id="p" color-interpolation-filters="sRGB" filterUnits="userSpaceOnUse" height="7.00024" width="4.35962" x="14.7206" y="9.02051"><feFlood flood-opacity="0" result="BackgroundImageFix"/><feBlend in="SourceGraphic" in2="BackgroundImageFix" mode="normal" result="shape"/><feGaussianBlur result="effect1_foregroundBlur_4002_4106" stdDeviation=".5"/></filter><filter id="q" color-interpolation-filters="sRGB" filterUnits="userSpaceOnUse" height="5.71899" width="4.23462" x="13.0018" y="11.0986"><feFlood flood-opacity="0" result="BackgroundImageFix"/><feBlend in="SourceGraphic" in2="BackgroundImageFix" mode="normal" result="shape"/><feGaussianBlur result="effect1_foregroundBlur_4002_4106" stdDeviation=".5"/></filter><filter id="r" color-interpolation-filters="sRGB" filterUnits="userSpaceOnUse" height="8.90637" width="4.93762" x="20.2988" y="11.4111"><feFlood flood-opacity="0" result="BackgroundImageFix"/><feBlend in="SourceGraphic" in2="BackgroundImageFix" mode="normal" result="shape"/><feGaussianBlur result="effect1_foregroundBlur_4002_4106" stdDeviation=".5"/></filter><filter id="s" color-interpolation-filters="sRGB" filterUnits="userSpaceOnUse" height="11.4375" width="3.67188" x="19.4395" y="7.72375"><feFlood flood-opacity="0" result="BackgroundImageFix"/><feBlend in="SourceGraphic" in2="BackgroundImageFix" mode="normal" result="shape"/><feGaussianBlur result="effect1_foregroundBlur_4002_4106" stdDeviation=".5"/></filter><linearGradient id="t" gradientUnits="userSpaceOnUse" x1="20.2905" x2="5.91553" y1="27.4425" y2="30.3518"><stop offset="0" stop-color="#f84d1b"/><stop offset="1" stop-color="#e5571e"/></linearGradient><radialGradient id="u" cx="0" cy="0" gradientTransform="matrix(-4.99998845 1.68754094 -3.31861401 -9.83266916 20.978 26.755)" gradientUnits="userSpaceOnUse" r="1"><stop offset=".539907" stop-color="#ff5016"/><stop offset="1" stop-color="#ff5016" stop-opacity="0"/></radialGradient><radialGradient id="v" cx="0" cy="0" gradientTransform="matrix(0 3.93285 -3.98995 0 15.583 19.9471)" gradientUnits="userSpaceOnUse" r="1"><stop offset=".489655" stop-color="#f27231"/><stop offset="1" stop-color="#ffa335"/></radialGradient><radialGradient id="w" cx="0" cy="0" gradientTransform="matrix(-.9298663 3.82054993 -4.5385111 -1.1046076 22.284 14.2909)" gradientUnits="userSpaceOnUse" r="1"><stop offset=".0431525" stop-color="#ffc135"/><stop offset=".909006" stop-color="#e26839"/></radialGradient><radialGradient id="x" cx="0" cy="0" gradientTransform="matrix(.35375442 .48514863 -.41214193 .30052034 21.3845 14.6143)" gradientUnits="userSpaceOnUse" r="1"><stop offset="0" stop-color="#e18c2a"/><stop offset="1" stop-color="#e18c2a" stop-opacity="0"/></radialGradient><radialGradient id="y" cx="0" cy="0" gradientTransform="matrix(1.53630555 3.23433011 -1.47014759 .69831954 8.90195 14.4324)" gradientUnits="userSpaceOnUse" r="1"><stop offset="0" stop-color="#d57a26"/><stop offset="1" stop-color="#d06a3c"/></radialGradient><radialGradient id="z" cx="0" cy="0" gradientTransform="matrix(.38407577 1.20276538 -1.05507273 .33691348 9.70042 14.4223)" gradientUnits="userSpaceOnUse" r="1"><stop offset=".263377" stop-color="#be691e"/><stop offset=".977292" stop-color="#be691e" stop-opacity="0"/></radialGradient><radialGradient id="A" cx="0" cy="0" gradientTransform="matrix(-6.30491 0 0 -11.1533 18.9792 13.1556)" gradientUnits="userSpaceOnUse" r="1"><stop offset="0" stop-color="#ffe846"/><stop offset="1" stop-color="#f5a129"/></radialGradient><radialGradient id="B" cx="0" cy="0" gradientTransform="matrix(0 -4.08338 15.8848 0 15.3592 20.7961)" gradientUnits="userSpaceOnUse" r="1"><stop offset=".0824176" stop-color="#e27426"/><stop offset="1" stop-color="#ffa041" stop-opacity="0"/></radialGradient><radialGradient id="C" cx="0" cy="0" gradientTransform="matrix(-.48549882 7.3590625 -2.70549865 -.17848964 21.8127 12.8762)" gradientUnits="userSpaceOnUse" r="1"><stop offset=".389903" stop-color="#ffd930"/><stop offset="1" stop-color="#ffd930" stop-opacity="0"/></radialGradient><radialGradient id="D" cx="0" cy="0" gradientTransform="matrix(0 -1.70515 2.05291 0 13.0707 11.7319)" gradientUnits="userSpaceOnUse" r="1"><stop offset=".276316" stop-color="#f59632"/><stop offset="1" stop-color="#f59632" stop-opacity="0"/></radialGradient><radialGradient id="E" cx="0" cy="0" gradientTransform="matrix(0 -1.85154 2.4015 0 18.5944 11.2355)" gradientUnits="userSpaceOnUse" r="1"><stop offset=".178218" stop-color="#ffbe3a"/><stop offset="1" stop-color="#ffbe3a" stop-opacity="0"/></radialGradient><linearGradient id="F" gradientUnits="userSpaceOnUse" x1="15.6497" x2="15.6497" y1="21.1299" y2="20.666"><stop offset="0" stop-color="#fa6e5f"/><stop offset="1" stop-color="#fa6e5f" stop-opacity="0"/></linearGradient><linearGradient id="G" gradientUnits="userSpaceOnUse" x1="22.0617" x2="9.85208" y1="6.32636" y2="6.32636"><stop offset="0" stop-color="#ffe235"/><stop offset="1" stop-color="#d29935"/></linearGradient><radialGradient id="H" cx="0" cy="0" gradientTransform="matrix(0 -6.89722 12.2205 0 9.28607 11.2477)" gradientUnits="userSpaceOnUse" r="1"><stop offset=".314517" stop-color="#c98537"/><stop offset="1" stop-color="#c98537" stop-opacity="0"/></radialGradient><radialGradient id="I" cx="0" cy="0" gradientTransform="matrix(0 -4.38106 7.76238 0 21.4552 11.2477)" gradientUnits="userSpaceOnUse" r="1"><stop offset="0" stop-color="#ffb52a"/><stop offset="1" stop-color="#ffb52a" stop-opacity="0"/></radialGradient><radialGradient id="J" cx="0" cy="0" gradientTransform="matrix(-3.92161958 -1.49587418 .79665102 -2.08851939 20.5456 3.67825)" gradientUnits="userSpaceOnUse" r="1"><stop offset="0" stop-color="#ffe639"/><stop offset="1" stop-color="#ffe639" stop-opacity="0"/></radialGradient><radialGradient id="K" cx="0" cy="0" gradientTransform="matrix(1.0915874 1.77888261 -4.11904526 2.52759676 14.5014 1.75787)" gradientUnits="userSpaceOnUse" r="1"><stop offset=".286771" stop-color="#f3c130"/><stop offset="1" stop-color="#f3c130" stop-opacity="0"/></radialGradient><radialGradient id="L" cx="0" cy="0" gradientTransform="matrix(-4.5912272 1.65656515 -.46106091 -1.27784614 15.8988 3.49731)" gradientUnits="userSpaceOnUse" r="1"><stop offset="0" stop-color="#ffdd30"/><stop offset="1" stop-color="#ffdc2b" stop-opacity="0"/></radialGradient><radialGradient id="M" cx="0" cy="0" gradientTransform="matrix(3.88118447 -6.14521927 6.80827735 4.29995728 9.04355 9.23726)" gradientUnits="userSpaceOnUse" r="1"><stop offset=".0926981" stop-color="#d67227"/><stop offset=".233498" stop-color="#ef8a23"/><stop offset="1" stop-color="#ef8a23" stop-opacity="0"/></radialGradient><radialGradient id="N" cx="0" cy="0" gradientTransform="matrix(4.08333384 .96581609 -.54015037 2.28367939 19.9595 4.89658)" gradientUnits="userSpaceOnUse" r="1"><stop offset="0" stop-color="#ffeb3b"/><stop offset="1" stop-color="#ffeb3b" stop-opacity="0"/></radialGradient><radialGradient id="O" cx="0" cy="0" gradientTransform="matrix(-2.59126778 -4.46675693 2.49107049 -1.44512692 21.7788 10.4499)" gradientUnits="userSpaceOnUse" r="1"><stop offset="0" stop-color="#eb8f29"/><stop offset="1" stop-color="#eb8f29" stop-opacity="0"/></radialGradient><radialGradient id="P" cx="0" cy="0" gradientTransform="matrix(-1.57671277 -2.65601491 1.90239273 -1.12933361 21.0308 10.0879)" gradientUnits="userSpaceOnUse" r="1"><stop offset=".394122" stop-color="#e48421"/><stop offset="1" stop-color="#e48421" stop-opacity="0"/></radialGradient><radialGradient id="Q" cx="0" cy="0" gradientTransform="matrix(-5.7870152 1.38837805 -1.50089041 -6.25598744 21.3745 4.75574)" gradientUnits="userSpaceOnUse" r="1"><stop offset=".734853" stop-color="#f29415" stop-opacity="0"/><stop offset="1" stop-color="#f29415"/></radialGradient><radialGradient id="R" cx="0" cy="0" gradientTransform="matrix(-.14150593 .46278727 -2.11580169 -.64694625 19.7573 4.60483)" gradientUnits="userSpaceOnUse" r="1"><stop offset=".461072" stop-color="#ffce3c"/><stop offset="1" stop-color="#ffce3c" stop-opacity="0"/></radialGradient><linearGradient id="S" gradientUnits="userSpaceOnUse" x1="23.3553" x2="21.8999" y1="12.1481" y2="14.7727"><stop offset="0" stop-color="#ffe343"/><stop offset="1" stop-color="#ffc136"/></linearGradient><radialGradient id="T" cx="0" cy="0" gradientTransform="matrix(.7580445 2.70543698 -2.58120159 .72323461 21.162 12.0673)" gradientUnits="userSpaceOnUse" r="1"><stop offset=".856273" stop-color="#e1943d" stop-opacity="0"/><stop offset="1" stop-color="#e08f2e"/></radialGradient><radialGradient id="U" cx="0" cy="0" gradientTransform="matrix(.95008229 -1.30383424 1.09287151 .79635726 21.5966 12.7242)" gradientUnits="userSpaceOnUse" r="1"><stop offset=".663731" stop-color="#ffbd22"/><stop offset="1" stop-color="#ffbd22" stop-opacity="0"/></radialGradient><linearGradient id="V" gradientUnits="userSpaceOnUse" x1="8.53814" x2="10.2968" y1="12.9971" y2="12.8435"><stop offset="0" stop-color="#e39726"/><stop offset="1" stop-color="#d9851d"/></linearGradient><radialGradient id="W" cx="0" cy="0" gradientTransform="matrix(-.49793332 2.50373662 -2.46139583 -.48951275 9.24565 12.2694)" gradientUnits="userSpaceOnUse" r="1"><stop offset=".77507" stop-color="#c77937" stop-opacity="0"/><stop offset="1" stop-color="#c77937"/></radialGradient><linearGradient id="X"><stop offset="0" stop-color="#f69202"/><stop offset="1" stop-color="#f69202" stop-opacity="0"/></linearGradient><radialGradient id="Y" cx="0" cy="0" gradientTransform="matrix(1.00000125 2.48437316 -.40981934 .16495906 15.3457 12.1144)" gradientUnits="userSpaceOnUse" r="1" xlink:href="#X"/><radialGradient id="Z" cx="0" cy="0" gradientTransform="matrix(.98437707 3.84375319 -.6340604 .16238153 17.1738 9.95811)" gradientUnits="userSpaceOnUse" r="1" xlink:href="#X"/><radialGradient id="aa" cx="0" cy="0" gradientTransform="matrix(.65625337 4.37500458 -.54534 .08180134 19.4551 9.14561)" gradientUnits="userSpaceOnUse" r="1" xlink:href="#X"/><radialGradient id="ab" cx="0" cy="0" gradientTransform="matrix(-.56249885 3.89062784 -.4886642 -.07065005 22.7363 11.0831)" gradientUnits="userSpaceOnUse" r="1"><stop offset=".000772542" stop-color="#f69202"/><stop offset="1" stop-color="#f69202" stop-opacity="0"/></radialGradient><radialGradient id="ac" cx="0" cy="0" gradientTransform="matrix(-1.70544937 1.43749582 -1.70361617 -2.02117535 24.621 11.8487)" gradientUnits="userSpaceOnUse" r="1"><stop offset=".231564" stop-color="#ffe549"/><stop offset="1" stop-color="#ffe549" stop-opacity="0"/></radialGradient><radialGradient id="ad" cx="0" cy="0" gradientTransform="matrix(-3.96873854 1.06252945 -.45292066 -1.69174011 22.9395 19.9425)" gradientUnits="userSpaceOnUse" r="1"><stop offset="0" stop-color="#ff764c"/><stop offset="1" stop-color="#d54625"/></radialGradient><linearGradient id="ae" gradientUnits="userSpaceOnUse" x1="20.3145" x2="20.3965" y1="19.8448" y2="20.1378"><stop offset=".245455" stop-color="#d74a13"/><stop offset="1" stop-color="#d74a13" stop-opacity="0"/></linearGradient><linearGradient id="af" gradientUnits="userSpaceOnUse" x1="19.5645" x2="26.002" y1="28.5362" y2="27.1612"><stop offset="0" stop-color="#e5562d"/><stop offset="1" stop-color="#ff8040"/></linearGradient><radialGradient id="ag" cx="0" cy="0" gradientTransform="matrix(1.84374644 7.96875503 -4.36047689 1.00889207 23.1582 21.6925)" gradientUnits="userSpaceOnUse" r="1"><stop offset="0" stop-color="#ff9946"/><stop offset="1" stop-color="#ff9946" stop-opacity="0"/></radialGradient><linearGradient id="ah"><stop offset="0" stop-color="#ffe648"/><stop offset="1" stop-color="#ffe648" stop-opacity="0"/></linearGradient><linearGradient id="ai" gradientUnits="userSpaceOnUse" x1="18.789" x2="20.076" xlink:href="#ah" y1="9.00431" y2="17.9592"/><linearGradient id="aj" gradientUnits="userSpaceOnUse" x1="16.539" x2="17.3516" xlink:href="#ah" y1="10.8574" y2="14.5706"/><linearGradient id="ak" gradientUnits="userSpaceOnUse" x1="14.8203" x2="15.7773" xlink:href="#ah" y1="13.0917" y2="15.2201"/><linearGradient id="al" gradientUnits="userSpaceOnUse" x1="22.3846" x2="22.4298" xlink:href="#ah" y1="13.0644" y2="19.1291"/><linearGradient id="am" gradientUnits="userSpaceOnUse" x1="21.1426" x2="21.4082" xlink:href="#ah" y1="9.4425" y2="18.0988"/><g filter="url(#a)"><path d="m25.583 30.3518v-.39c0-5.39-4.47-9.77-9.99-9.77-5.52.01-9.98997 4.38-9.98997 9.77v.39z" fill="url(#t)"/><path d="m25.583 30.3518v-.39c0-5.39-4.47-9.77-9.99-9.77-5.52.01-9.98997 4.38-9.98997 9.77v.39z" fill="url(#u)"/></g><path d="m15.583 23.1925c-1.46 0-2.64-.9118-2.64-2.0399v-2.4109c0-1.1281 1.18-2.0399 2.64-2.0399s2.64.9118 2.64 2.0399v2.4109c0 1.1281-1.18 2.0399-2.64 2.0399z" fill="url(#v)"/><path d="m21.4559 14.663c.4043-.0131.7829-.1502 1.0909-.3721v1.1228c0 1.0771-.6417 2.0367-1.6171 2.435.2053-.4374.3465-.914.4171-1.4232z" fill="url(#w)"/><path d="m21.4559 14.663c.4043-.0131.7829-.1502 1.0909-.3721v1.1228c0 1.0771-.6417 2.0367-1.6171 2.435.2053-.4374.3465-.914.4171-1.4232z" fill="url(#x)"/><path d="m9.7301 14.663c-.40429-.0131-.78291-.1502-1.09094-.3721v1.1228c0 1.0771.64173 2.0367 1.61714 2.435-.2053-.4374-.34651-.914-.4171-1.4232z" fill="url(#y)"/><path d="m9.7301 14.663c-.40429-.0131-.78291-.1502-1.09094-.3721v1.1228c0 1.0771.64173 2.0367 1.61714 2.435-.2053-.4374-.34651-.914-.4171-1.4232z" fill="url(#z)"/><g filter="url(#b)"><path d="m9.77105 17.0186c.31025 2.3546 2.31405 4.1076 4.68625 4.1076h2.2752c2.3722 0 4.376-1.753 4.6863-4.1076.1423-2.2718.2884-5.0629.3939-7.33347-.0128-.92502-.742-1.68832-1.6631-1.72713h-1.6886c-1.1514 0-2.194-.67921-2.6674-1.74007-.1215-.30402-.4157-.50455-.742-.50455h-1.5351c-2.226 0-4.02981 1.82415-4.02981 4.07524 0 2.24408.13715 4.98028.28436 7.22998z" fill="url(#A)"/></g><path d="m9.77407 17.0223c.31023 2.3546 2.31403 4.1076 4.68623 4.1076h2.2753c2.3722 0 4.3759-1.753 4.6862-4.1076.1423-2.2717.2854-5.0666.3909-7.33717-.0128-.92502-.742-1.68832-1.6631-1.72713h-1.6886c-1.1514 0-2.194-.67921-2.6674-1.74007-.1215-.30402-.4157-.50455-.742-.50455h-1.5351c-2.226 0-4.02981 1.82415-4.02981 4.07524 0 2.24408.14017 4.98398.28738 7.23368z" fill="url(#B)"/><path d="m9.77407 17.0223c.31023 2.3546 2.31403 4.1076 4.68623 4.1076h2.2753c2.3722 0 4.3759-1.753 4.6862-4.1076.1423-2.2717.2854-5.0666.3909-7.33717-.0128-.92502-.742-1.68832-1.6631-1.72713h-1.6886c-1.1514 0-2.194-.67921-2.6674-1.74007-.1215-.30402-.4157-.50455-.742-.50455h-1.5351c-2.226 0-4.02981 1.82415-4.02981 4.07524 0 2.24408.14017 4.98398.28738 7.23368z" fill="url(#C)"/><path d="m9.77407 17.0223c.31023 2.3546 2.31403 4.1076 4.68623 4.1076h2.2753c2.3722 0 4.3759-1.753 4.6862-4.1076.1423-2.2717.2854-5.0666.3909-7.33717-.0128-.92502-.742-1.68832-1.6631-1.72713h-1.6886c-1.1514 0-2.194-.67921-2.6674-1.74007-.1215-.30402-.4157-.50455-.742-.50455h-1.5351c-2.226 0-4.02981 1.82415-4.02981 4.07524 0 2.24408.14017 4.98398.28738 7.23368z" fill="url(#D)"/><path d="m9.77407 17.0223c.31023 2.3546 2.31403 4.1076 4.68623 4.1076h2.2753c2.3722 0 4.3759-1.753 4.6862-4.1076.1423-2.2717.2854-5.0666.3909-7.33717-.0128-.92502-.742-1.68832-1.6631-1.72713h-1.6886c-1.1514 0-2.194-.67921-2.6674-1.74007-.1215-.30402-.4157-.50455-.742-.50455h-1.5351c-2.226 0-4.02981 1.82415-4.02981 4.07524 0 2.24408.14017 4.98398.28738 7.23368z" fill="url(#E)"/><path d="m9.77407 17.0223c.31023 2.3546 2.31403 4.1076 4.68623 4.1076h2.2753c2.3722 0 4.3759-1.753 4.6862-4.1076.1423-2.2717.2854-5.0666.3909-7.33717-.0128-.92502-.742-1.68832-1.6631-1.72713h-1.6886c-1.1514 0-2.194-.67921-2.6674-1.74007-.1215-.30402-.4157-.50455-.742-.50455h-1.5351c-2.226 0-4.02981 1.82415-4.02981 4.07524 0 2.24408.14017 4.98398.28738 7.23368z" fill="url(#F)"/><g filter="url(#c)"><path d="m17.3003 8.88785c.513-.0988 1.0089.23693 1.1077.74988l.3561 1.84867-.086-1.3827c-.0324-.52137.364-.97029.8854-1.0027.5213-.0324.9703.36398 1.0027.88535l.197 3.17015.3271-.6745c.2383-.4914.8298-.6966 1.3212-.4583s.6966.8298.4583 1.3212l-.8163 1.6833c-.1747.4201-.1827.8078-.1912 1.2183-.0078.3742-.0159.7673-.151 1.2215-.2364.7954-.7076 1.4331-.9136 1.6525l-2.6333.7524c-2.0287-.4971-2.6467-1.6525-2.9826-2.6199-.2687-.7738-.5508-1.3793-.6583-1.5853-.0001 0 0-.0001 0 0l-1.1619-2.2377c-.2407-.4636-.0601-1.0346.4035-1.2753.4636-.2408 1.0346-.0601 1.2753.4034l.1931.3718-.4627-1.3486c-.1695-.4941.0937-1.0321.5878-1.2016s1.032.0936 1.2015.5877l.4048 1.18-.4144-2.15189c-.0988-.51294.2369-1.00886.7498-1.10766z" fill="#ea723b"/></g><g filter="url(#d)"><path d="m21.4481 5.14421c.6204.21347 1.1769.64687 1.5287 1.26786.5629.9897.4798 2.17346-.1279 3.04673-.2111.3105-.3262.6792-.3262 1.0544v1.4328c-.2256-.1571-.5232-.2736-.8047-.3234l.0947-1.93739c-.0128-.92502-.742-1.68832-1.6631-1.72713h-1.6887c-1.1513 0-2.194-.67921-2.6673-1.74007-.1215-.30403-.4158-.50456-.742-.50456h-1.5352c-2.2259 0-4.02975 1.82416-4.02975 4.07525l.03694 1.8541c-.30629.045-.62625.1474-.86848.318v-1.4476c0-.3752-.11514-.7439-.32623-1.0544-.57568-.84739-.67802-1.98587-.1727-2.9497.35181-.66627.92109-1.13202 1.56714-1.35842.69078-.24581 1.27928-.71155 1.66948-1.33901.4989-.79564 1.3752-1.32607 2.3795-1.32607.3902 0 .7612.08409 1.1066.2264.4605.20053.9787.20053 1.4392 0 .339-.14231.71-.2264 1.1002-.2264 1.017 0 1.9061.54983 2.3987 1.36488.371.61452.9531 1.06086 1.6311 1.29373z" fill="url(#G)"/><path d="m21.4481 5.14421c.6204.21347 1.1769.64687 1.5287 1.26786.5629.9897.4798 2.17346-.1279 3.04673-.2111.3105-.3262.6792-.3262 1.0544v1.4328c-.2256-.1571-.5232-.2736-.8047-.3234l.0947-1.93739c-.0128-.92502-.742-1.68832-1.6631-1.72713h-1.6887c-1.1513 0-2.194-.67921-2.6673-1.74007-.1215-.30403-.4158-.50456-.742-.50456h-1.5352c-2.2259 0-4.02975 1.82416-4.02975 4.07525l.03694 1.8541c-.30629.045-.62625.1474-.86848.318v-1.4476c0-.3752-.11514-.7439-.32623-1.0544-.57568-.84739-.67802-1.98587-.1727-2.9497.35181-.66627.92109-1.13202 1.56714-1.35842.69078-.24581 1.27928-.71155 1.66948-1.33901.4989-.79564 1.3752-1.32607 2.3795-1.32607.3902 0 .7612.08409 1.1066.2264.4605.20053.9787.20053 1.4392 0 .339-.14231.71-.2264 1.1002-.2264 1.017 0 1.9061.54983 2.3987 1.36488.371.61452.9531 1.06086 1.6311 1.29373z" fill="url(#H)"/><path d="m21.4481 5.14421c.6204.21347 1.1769.64687 1.5287 1.26786.5629.9897.4798 2.17346-.1279 3.04673-.2111.3105-.3262.6792-.3262 1.0544v1.4328c-.2256-.1571-.5232-.2736-.8047-.3234l.0947-1.93739c-.0128-.92502-.742-1.68832-1.6631-1.72713h-1.6887c-1.1513 0-2.194-.67921-2.6673-1.74007-.1215-.30403-.4158-.50456-.742-.50456h-1.5352c-2.2259 0-4.02975 1.82416-4.02975 4.07525l.03694 1.8541c-.30629.045-.62625.1474-.86848.318v-1.4476c0-.3752-.11514-.7439-.32623-1.0544-.57568-.84739-.67802-1.98587-.1727-2.9497.35181-.66627.92109-1.13202 1.56714-1.35842.69078-.24581 1.27928-.71155 1.66948-1.33901.4989-.79564 1.3752-1.32607 2.3795-1.32607.3902 0 .7612.08409 1.1066.2264.4605.20053.9787.20053 1.4392 0 .339-.14231.71-.2264 1.1002-.2264 1.017 0 1.9061.54983 2.3987 1.36488.371.61452.9531 1.06086 1.6311 1.29373z" fill="url(#I)"/><path d="m21.4481 5.14421c.6204.21347 1.1769.64687 1.5287 1.26786.5629.9897.4798 2.17346-.1279 3.04673-.2111.3105-.3262.6792-.3262 1.0544v1.4328c-.2256-.1571-.5232-.2736-.8047-.3234l.0947-1.93739c-.0128-.92502-.742-1.68832-1.6631-1.72713h-1.6887c-1.1513 0-2.194-.67921-2.6673-1.74007-.1215-.30403-.4158-.50456-.742-.50456h-1.5352c-2.2259 0-4.02975 1.82416-4.02975 4.07525l.03694 1.8541c-.30629.045-.62625.1474-.86848.318v-1.4476c0-.3752-.11514-.7439-.32623-1.0544-.57568-.84739-.67802-1.98587-.1727-2.9497.35181-.66627.92109-1.13202 1.56714-1.35842.69078-.24581 1.27928-.71155 1.66948-1.33901.4989-.79564 1.3752-1.32607 2.3795-1.32607.3902 0 .7612.08409 1.1066.2264.4605.20053.9787.20053 1.4392 0 .339-.14231.71-.2264 1.1002-.2264 1.017 0 1.9061.54983 2.3987 1.36488.371.61452.9531 1.06086 1.6311 1.29373z" fill="url(#J)"/><path d="m21.4481 5.14421c.6204.21347 1.1769.64687 1.5287 1.26786.5629.9897.4798 2.17346-.1279 3.04673-.2111.3105-.3262.6792-.3262 1.0544v1.4328c-.2256-.1571-.5232-.2736-.8047-.3234l.0947-1.93739c-.0128-.92502-.742-1.68832-1.6631-1.72713h-1.6887c-1.1513 0-2.194-.67921-2.6673-1.74007-.1215-.30403-.4158-.50456-.742-.50456h-1.5352c-2.2259 0-4.02975 1.82416-4.02975 4.07525l.03694 1.8541c-.30629.045-.62625.1474-.86848.318v-1.4476c0-.3752-.11514-.7439-.32623-1.0544-.57568-.84739-.67802-1.98587-.1727-2.9497.35181-.66627.92109-1.13202 1.56714-1.35842.69078-.24581 1.27928-.71155 1.66948-1.33901.4989-.79564 1.3752-1.32607 2.3795-1.32607.3902 0 .7612.08409 1.1066.2264.4605.20053.9787.20053 1.4392 0 .339-.14231.71-.2264 1.1002-.2264 1.017 0 1.9061.54983 2.3987 1.36488.371.61452.9531 1.06086 1.6311 1.29373z" fill="url(#K)"/></g><g filter="url(#e)"><path d="m20.095 9.93399c-.2113-.18403-.457-.37902-.8292-.49618-.3669-.11551-.8265-.14654-1.4623-.06875-.1833.02243-.3138.18925-.2913.3726.0224.18335.1892.31384.3726.29134.5803-.07096.9358-.03407 1.1801.0429.2392.0752.401.1972.5907.3625.1393.1213.3506.1068.4719-.0325s.1068-.3506-.0325-.47191z" fill="#c05029"/></g><g filter="url(#f)"><path d="m11.4794 9.8024c.1087-.06506.2651-.14827.4626-.22592.3949-.15527.9593-.29012 1.6346-.2075.1833.02243.3138.18925.2914.3726-.0225.18335-.1893.31382-.3726.29132-.5408-.06611-.992.0416-1.3087.1661-.1582.0622-.2816.1282-.3638.1774-.0409.0245-.0714.0447-.0905.0579-.0096.0066-.0163.0115-.02.0142l-.0033.0025c-.1458.1124-.3552.0859-.4683-.0595-.1134-.1459-.0871-.356.0587-.4694z" fill="#c05029"/></g><g filter="url(#g)"><path d="m15.8734 6.38301c-.0281-.0539-.0547-.10892-.0798-.165-.1215-.30402-.4157-.50455-.742-.50455h-1.5351c-2.226 0-4.0298 1.82416-4.0298 4.07525v.33189c-.41005-.31209-.92579-.97034-.92579-2.03557 0-1.29266.94279-1.94606 1.54419-2.36284.1698-.11767.3123-.21647.3988-.30548.0367-.03781.0767-.08022.1202-.12635.4216-.4471 1.1727-1.24373 2.4842-1.59188.7104-.18857 1.4311-.21928 1.9855-.19308.4723.02234.805.43046.805.90331v1.95808z" fill="url(#L)"/><path d="m15.8734 6.38301c-.0281-.0539-.0547-.10892-.0798-.165-.1215-.30402-.4157-.50455-.742-.50455h-1.5351c-2.226 0-4.0298 1.82416-4.0298 4.07525v.33189c-.41005-.31209-.92579-.97034-.92579-2.03557 0-1.29266.94279-1.94606 1.54419-2.36284.1698-.11767.3123-.21647.3988-.30548.0367-.03781.0767-.08022.1202-.12635.4216-.4471 1.1727-1.24373 2.4842-1.59188.7104-.18857 1.4311-.21928 1.9855-.19308.4723.02234.805.43046.805.90331v1.95808z" fill="url(#M)"/></g><g filter="url(#h)"><path d="m21.8797 10.4499-.0352-.76124c-.0128-.92075-.7737-1.68053-1.6948-1.71916h-1.6887c-1.072 0-2.0497-.58607-2.5615-1.51917 0 0-.1317-.30523-.224-.79602-.1854-.98579.732-1.7166 1.7207-1.54755 1.2515.21398 2.7652.6221 3.8553 1.3331 2.104 1.37228 1.7356 3.84541.6282 5.01004z" fill="url(#N)"/><path d="m21.8797 10.4499-.0352-.76124c-.0128-.92075-.7737-1.68053-1.6948-1.71916h-1.6887c-1.072 0-2.0497-.58607-2.5615-1.51917 0 0-.1317-.30523-.224-.79602-.1854-.98579.732-1.7166 1.7207-1.54755 1.2515.21398 2.7652.6221 3.8553 1.3331 2.104 1.37228 1.7356 3.84541.6282 5.01004z" fill="url(#O)"/><path d="m21.8797 10.4499-.0352-.76124c-.0128-.92075-.7737-1.68053-1.6948-1.71916h-1.6887c-1.072 0-2.0497-.58607-2.5615-1.51917 0 0-.1317-.30523-.224-.79602-.1854-.98579.732-1.7166 1.7207-1.54755 1.2515.21398 2.7652.6221 3.8553 1.3331 2.104 1.37228 1.7356 3.84541.6282 5.01004z" fill="url(#P)"/><path d="m21.8797 10.4499-.0352-.76124c-.0128-.92075-.7737-1.68053-1.6948-1.71916h-1.6887c-1.072 0-2.0497-.58607-2.5615-1.51917 0 0-.1317-.30523-.224-.79602-.1854-.98579.732-1.7166 1.7207-1.54755 1.2515.21398 2.7652.6221 3.8553 1.3331 2.104 1.37228 1.7356 3.84541.6282 5.01004z" fill="url(#Q)"/><path d="m21.8797 10.4499-.0352-.76124c-.0128-.92075-.7737-1.68053-1.6948-1.71916h-1.6887c-1.072 0-2.0497-.58607-2.5615-1.51917 0 0-.1317-.30523-.224-.79602-.1854-.98579.732-1.7166 1.7207-1.54755 1.2515.21398 2.7652.6221 3.8553 1.3331 2.104 1.37228 1.7356 3.84541.6282 5.01004z" fill="url(#R)"/></g><path d="m21.5289 14.7727c.0793-1.2834.1558-2.5653.2226-3.8487.9112.1594 1.6038.9545 1.6038 1.9114 0 1.0335-.8078 1.8782-1.8264 1.9373z" fill="url(#S)"/><path d="m21.5289 14.7727c.0793-1.2834.1558-2.5653.2226-3.8487.9112.1594 1.6038.9545 1.6038 1.9114 0 1.0335-.8078 1.8782-1.8264 1.9373z" fill="url(#T)"/><path d="m21.5289 14.7727c.0793-1.2834.1558-2.5653.2226-3.8487.9112.1594 1.6038.9545 1.6038 1.9114 0 1.0335-.8078 1.8782-1.8264 1.9373z" fill="url(#U)"/><path d="m9.49783 10.9139c-.94231.1329-1.6672.9426-1.6672 1.9215 0 1.0361.81191 1.8825 1.83418 1.9378-.07785-1.2888-.14204-2.5701-.16698-3.8593z" fill="url(#V)"/><path d="m9.49783 10.9139c-.94231.1329-1.6672.9426-1.6672 1.9215 0 1.0361.81191 1.8825 1.83418 1.9378-.07785-1.2888-.14204-2.5701-.16698-3.8593z" fill="url(#W)"/><g filter="url(#i)"><path d="m9.51814 11.7111c-.51457.1153-.89906.5749-.89906 1.1243 0 .5846.43543 1.0676.99967 1.1422-.0418-.7559-.07707-1.5104-.10061-2.2665z" fill="#dd8224"/></g><g filter="url(#j)"><path d="m21.5771 13.9876c.0465-.7652.0914-1.5302.1334-2.2955.5683.0709 1.0081.5558 1.0081 1.1433 0 .6328-.5101 1.1465-1.1415 1.1522z" fill="#ffc837"/></g><g filter="url(#k)"><path d="m11.5248 10.1397c.31-.22233 1.0825-.61347 1.9962-.45984" stroke="#c96953" stroke-linecap="round" stroke-width=".25"/></g><g filter="url(#l)"><path d="m19.8877 10.0842c-.31-.22237-1.0825-.61352-1.9962-.45989" stroke="#c96953" stroke-linecap="round" stroke-width=".25"/></g><g filter="url(#m)"><path clip-rule="evenodd" d="m14.5168 12.5849c.1501.1092.1833.3194.0742.4695-.3689.5072-.9674.828-1.6415.828-.6664 0-1.2621-.3221-1.6385-.8241-.1114-.1484-.0813-.3591.0672-.4704.1485-.1114.3591-.0813.4705.0672.2557.3409.6561.5552 1.1008.5552.4562 0 .8538-.2156 1.0979-.5513.1092-.15.3193-.1832.4694-.0741z" fill="#a05043" fill-rule="evenodd"/></g><path d="m17.6427 17.8128c-.4406-.6705-1.1973-1.1207-2.0593-1.1207s-1.6187.4502-2.0593 1.1207c-.0958.1436.0383.3161.1916.2969h3.7259c.1532.0383.2969-.1437.2011-.2969z" fill="#8e323e"/><g filter="url(#n)"><path d="m18.0283 8.08891c.5965-.11491 1.1733.27554 1.2882.87209l.4141 2.15-.1-1.60808c-.0376-.60635.4233-1.12844 1.0297-1.16612.6063-.03769 1.1284.4233 1.1661 1.02964l.2292 3.68686.3804-.7845c.2771-.5714.965-.8101 1.5365-.5329.5715.2771.8101.965.533 1.5365l-.9493 1.9576c-.2032.4886-.2125.9395-.2224 1.4169-.0091.4352-.0186.8924-.1756 1.4206-.275.925-.8229 1.6667-1.0625 1.9219l-3.0625.875c-2.3594-.5782-3.0781-1.9219-3.4687-3.0469-.3125-.9-.6407-1.6042-.7657-1.8438 0 .0001.0001 0 0 0l-1.3512-2.6024c-.28-.5391-.0699-1.2032.4693-1.4831.5391-.28 1.2032-.0699 1.4831.4692l.2246.4323-.5381-1.5684c-.1971-.5746.1089-1.2003.6835-1.39741.5747-.19714 1.2003.10889 1.3974.68351l.4708 1.3723-.482-2.5026c-.1149-.59655.2755-1.17329.8721-1.28819z" fill="#ffca3d"/><path d="m18.0283 8.08891c.5965-.11491 1.1733.27554 1.2882.87209l.4141 2.15-.1-1.60808c-.0376-.60635.4233-1.12844 1.0297-1.16612.6063-.03769 1.1284.4233 1.1661 1.02964l.2292 3.68686.3804-.7845c.2771-.5714.965-.8101 1.5365-.5329.5715.2771.8101.965.533 1.5365l-.9493 1.9576c-.2032.4886-.2125.9395-.2224 1.4169-.0091.4352-.0186.8924-.1756 1.4206-.275.925-.8229 1.6667-1.0625 1.9219l-3.0625.875c-2.3594-.5782-3.0781-1.9219-3.4687-3.0469-.3125-.9-.6407-1.6042-.7657-1.8438 0 .0001.0001 0 0 0l-1.3512-2.6024c-.28-.5391-.0699-1.2032.4693-1.4831.5391-.28 1.2032-.0699 1.4831.4692l.2246.4323-.5381-1.5684c-.1971-.5746.1089-1.2003.6835-1.39741.5747-.19714 1.2003.10889 1.3974.68351l.4708 1.3723-.482-2.5026c-.1149-.59655.2755-1.17329.8721-1.28819z" fill="url(#Y)"/><path d="m18.0283 8.08891c.5965-.11491 1.1733.27554 1.2882.87209l.4141 2.15-.1-1.60808c-.0376-.60635.4233-1.12844 1.0297-1.16612.6063-.03769 1.1284.4233 1.1661 1.02964l.2292 3.68686.3804-.7845c.2771-.5714.965-.8101 1.5365-.5329.5715.2771.8101.965.533 1.5365l-.9493 1.9576c-.2032.4886-.2125.9395-.2224 1.4169-.0091.4352-.0186.8924-.1756 1.4206-.275.925-.8229 1.6667-1.0625 1.9219l-3.0625.875c-2.3594-.5782-3.0781-1.9219-3.4687-3.0469-.3125-.9-.6407-1.6042-.7657-1.8438 0 .0001.0001 0 0 0l-1.3512-2.6024c-.28-.5391-.0699-1.2032.4693-1.4831.5391-.28 1.2032-.0699 1.4831.4692l.2246.4323-.5381-1.5684c-.1971-.5746.1089-1.2003.6835-1.39741.5747-.19714 1.2003.10889 1.3974.68351l.4708 1.3723-.482-2.5026c-.1149-.59655.2755-1.17329.8721-1.28819z" fill="url(#Z)"/><path d="m18.0283 8.08891c.5965-.11491 1.1733.27554 1.2882.87209l.4141 2.15-.1-1.60808c-.0376-.60635.4233-1.12844 1.0297-1.16612.6063-.03769 1.1284.4233 1.1661 1.02964l.2292 3.68686.3804-.7845c.2771-.5714.965-.8101 1.5365-.5329.5715.2771.8101.965.533 1.5365l-.9493 1.9576c-.2032.4886-.2125.9395-.2224 1.4169-.0091.4352-.0186.8924-.1756 1.4206-.275.925-.8229 1.6667-1.0625 1.9219l-3.0625.875c-2.3594-.5782-3.0781-1.9219-3.4687-3.0469-.3125-.9-.6407-1.6042-.7657-1.8438 0 .0001.0001 0 0 0l-1.3512-2.6024c-.28-.5391-.0699-1.2032.4693-1.4831.5391-.28 1.2032-.0699 1.4831.4692l.2246.4323-.5381-1.5684c-.1971-.5746.1089-1.2003.6835-1.39741.5747-.19714 1.2003.10889 1.3974.68351l.4708 1.3723-.482-2.5026c-.1149-.59655.2755-1.17329.8721-1.28819z" fill="url(#aa)"/><path d="m18.0283 8.08891c.5965-.11491 1.1733.27554 1.2882.87209l.4141 2.15-.1-1.60808c-.0376-.60635.4233-1.12844 1.0297-1.16612.6063-.03769 1.1284.4233 1.1661 1.02964l.2292 3.68686.3804-.7845c.2771-.5714.965-.8101 1.5365-.5329.5715.2771.8101.965.533 1.5365l-.9493 1.9576c-.2032.4886-.2125.9395-.2224 1.4169-.0091.4352-.0186.8924-.1756 1.4206-.275.925-.8229 1.6667-1.0625 1.9219l-3.0625.875c-2.3594-.5782-3.0781-1.9219-3.4687-3.0469-.3125-.9-.6407-1.6042-.7657-1.8438 0 .0001.0001 0 0 0l-1.3512-2.6024c-.28-.5391-.0699-1.2032.4693-1.4831.5391-.28 1.2032-.0699 1.4831.4692l.2246.4323-.5381-1.5684c-.1971-.5746.1089-1.2003.6835-1.39741.5747-.19714 1.2003.10889 1.3974.68351l.4708 1.3723-.482-2.5026c-.1149-.59655.2755-1.17329.8721-1.28819z" fill="url(#ab)"/></g><path d="m18.0283 8.08891c.5965-.11491 1.1733.27554 1.2882.87209l.4141 2.15-.1-1.60808c-.0376-.60635.4233-1.12844 1.0297-1.16612.6063-.03769 1.1284.4233 1.1661 1.02964l.2292 3.68686.3804-.7845c.2771-.5714.965-.8101 1.5365-.5329.5715.2771.8101.965.533 1.5365l-.9493 1.9576c-.2032.4886-.2125.9395-.2224 1.4169-.0091.4352-.0186.8924-.1756 1.4206-.275.925-.8229 1.6667-1.0625 1.9219l-3.0625.875c-2.3594-.5782-3.0781-1.9219-3.4687-3.0469-.3125-.9-.6407-1.6042-.7657-1.8438 0 .0001.0001 0 0 0l-1.3512-2.6024c-.28-.5391-.0699-1.2032.4693-1.4831.5391-.28 1.2032-.0699 1.4831.4692l.2246.4323-.5381-1.5684c-.1971-.5746.1089-1.2003.6835-1.39741.5747-.19714 1.2003.10889 1.3974.68351l.4708 1.3723-.482-2.5026c-.1149-.59655.2755-1.17329.8721-1.28819z" fill="url(#ac)"/><path d="m17.7409 20.8474c-.0328-.1333.048-.2682.1811-.302l4.7333-1.2046c.1349-.0343.2719.0481.3047.1834l.2739 1.1306-5.2288 1.267z" fill="url(#ad)"/><path d="m17.7409 20.8474c-.0328-.1333.048-.2682.1811-.302l4.7333-1.2046c.1349-.0343.2719.0481.3047.1834l.2739 1.1306-5.2288 1.267z" fill="url(#ae)"/><path d="m17.177 22.9212c-.1396-.5371.185-1.0851.7231-1.221l5.3031-1.3386c.5328-.1345 1.0744.1861 1.2126.718l2.4143 9.2889h-7.7188z" fill="url(#af)"/><path d="m17.177 22.9212c-.1396-.5371.185-1.0851.7231-1.221l5.3031-1.3386c.5328-.1345 1.0744.1861 1.2126.718l2.4143 9.2889h-7.7188z" fill="url(#ag)"/><g filter="url(#o)"><path d="m18.4395 8.84875.875 4.90625" stroke="url(#ai)" stroke-linecap="round"/></g><g filter="url(#p)"><path d="m16.2207 10.5206 1.3594 4" stroke="url(#aj)" stroke-linecap="round"/></g><g filter="url(#q)"><path d="m14.502 12.5988 1.2343 2.7187" stroke="url(#ak)" stroke-linecap="round"/></g><g filter="url(#r)"><path d="m23.7363 12.9113-.9375 1.8906c-.1458.2708-.4218 1.0062-.3593 1.7812.0781.9688-.2657 1.8282-.6407 2.2344" stroke="url(#al)" stroke-linecap="round"/></g><g filter="url(#s)"><path d="m20.9395 9.22375.6718 8.43755" stroke="url(#am)" stroke-linecap="round"/></g></svg>