<svg fill="none" height="32" viewBox="0 0 32 32" width="32" xmlns="http://www.w3.org/2000/svg" xmlns:xlink="http://www.w3.org/1999/xlink"><filter id="a" color-interpolation-filters="sRGB" filterUnits="userSpaceOnUse" height="9.56465" width="5.32002" x="12.9129" y="9.98477"><feFlood flood-opacity="0" result="BackgroundImageFix"/><feBlend in="SourceGraphic" in2="BackgroundImageFix" mode="normal" result="shape"/><feGaussianBlur result="effect1_foregroundBlur_4002_1584" stdDeviation=".2"/></filter><filter id="b" color-interpolation-filters="sRGB" filterUnits="userSpaceOnUse" height="8.26758" width=".650024" x="23.6977" y="3.4585"><feFlood flood-opacity="0" result="BackgroundImageFix"/><feBlend in="SourceGraphic" in2="BackgroundImageFix" mode="normal" result="shape"/><feGaussianBlur result="effect1_foregroundBlur_4002_1584" stdDeviation=".125"/></filter><filter id="c" color-interpolation-filters="sRGB" filterUnits="userSpaceOnUse" height="6.73359" width="8.96406" x="11.1046" y="23.2807"><feFlood flood-opacity="0" result="BackgroundImageFix"/><feBlend in="SourceGraphic" in2="BackgroundImageFix" mode="normal" result="shape"/><feGaussianBlur result="effect1_foregroundBlur_4002_1584" stdDeviation=".075"/></filter><filter id="d" color-interpolation-filters="sRGB" filterUnits="userSpaceOnUse" height="2.39404" width="1.17169" x="12.2387" y="3.78564"><feFlood flood-opacity="0" result="BackgroundImageFix"/><feBlend in="SourceGraphic" in2="BackgroundImageFix" mode="normal" result="shape"/><feGaussianBlur result="effect1_foregroundBlur_4002_1584" stdDeviation=".125"/></filter><filter id="e" color-interpolation-filters="sRGB" filterUnits="userSpaceOnUse" height="3.36182" width="3.56182" x="9.0647" y="9.01025"><feFlood flood-opacity="0" result="BackgroundImageFix"/><feBlend in="SourceGraphic" in2="BackgroundImageFix" mode="normal" result="shape"/><feColorMatrix in="SourceAlpha" result="hardAlpha" type="matrix" values="0 0 0 0 0 0 0 0 0 0 0 0 0 0 0 0 0 0 127 0"/><feOffset dx=".2"/><feGaussianBlur stdDeviation=".15"/><feComposite in2="hardAlpha" k2="-1" k3="1" operator="arithmetic"/><feColorMatrix type="matrix" values="0 0 0 0 0.341176 0 0 0 0 0.270588 0 0 0 0 0.254902 0 0 0 1 0"/><feBlend in2="shape" mode="normal" result="effect1_innerShadow_4002_1584"/></filter><filter id="f" color-interpolation-filters="sRGB" filterUnits="userSpaceOnUse" height="3.00342" width="3.0036" x="9.2439" y="9.18945"><feFlood flood-opacity="0" result="BackgroundImageFix"/><feBlend in="SourceGraphic" in2="BackgroundImageFix" mode="normal" result="shape"/><feGaussianBlur result="effect1_foregroundBlur_4002_1584" stdDeviation=".25"/></filter><filter id="g" color-interpolation-filters="sRGB" filterUnits="userSpaceOnUse" height="3.61182" width="3.61182" x="18.6432" y="8.76025"><feFlood flood-opacity="0" result="BackgroundImageFix"/><feBlend in="SourceGraphic" in2="BackgroundImageFix" mode="normal" result="shape"/><feColorMatrix in="SourceAlpha" result="hardAlpha" type="matrix" values="0 0 0 0 0 0 0 0 0 0 0 0 0 0 0 0 0 0 127 0"/><feOffset dx=".25" dy="-.25"/><feGaussianBlur stdDeviation=".25"/><feComposite in2="hardAlpha" k2="-1" k3="1" operator="arithmetic"/><feColorMatrix type="matrix" values="0 0 0 0 0.243137 0 0 0 0 0.141176 0 0 0 0 0.223529 0 0 0 1 0"/><feBlend in2="shape" mode="normal" result="effect1_innerShadow_4002_1584"/></filter><filter id="h" color-interpolation-filters="sRGB" filterUnits="userSpaceOnUse" height="3.00342" width="3.0036" x="18.8223" y="9.18945"><feFlood flood-opacity="0" result="BackgroundImageFix"/><feBlend in="SourceGraphic" in2="BackgroundImageFix" mode="normal" result="shape"/><feGaussianBlur result="effect1_foregroundBlur_4002_1584" stdDeviation=".25"/></filter><filter id="i" color-interpolation-filters="sRGB" filterUnits="userSpaceOnUse" height="12.2104" width="10.4447" x="10.3326" y="5.02832"><feFlood flood-opacity="0" result="BackgroundImageFix"/><feBlend in="SourceGraphic" in2="BackgroundImageFix" mode="normal" result="shape"/><feColorMatrix in="SourceAlpha" result="hardAlpha" type="matrix" values="0 0 0 0 0 0 0 0 0 0 0 0 0 0 0 0 0 0 127 0"/><feOffset dy=".1"/><feGaussianBlur stdDeviation=".1"/><feComposite in2="hardAlpha" k2="-1" k3="1" operator="arithmetic"/><feColorMatrix type="matrix" values="0 0 0 0 0.109804 0 0 0 0 0.0509804 0 0 0 0 0.0509804 0 0 0 1 0"/><feBlend in2="shape" mode="normal" result="effect1_innerShadow_4002_1584"/></filter><filter id="j" color-interpolation-filters="sRGB" filterUnits="userSpaceOnUse" height="7.08789" width="8.27521" x="13.697" y="3.63574"><feFlood flood-opacity="0" result="BackgroundImageFix"/><feBlend in="SourceGraphic" in2="BackgroundImageFix" mode="normal" result="shape"/><feGaussianBlur result="effect1_foregroundBlur_4002_1584" stdDeviation="1"/></filter><filter id="k" color-interpolation-filters="sRGB" filterUnits="userSpaceOnUse" height="8.59863" width="12.6879" x="9.18213" y="1.53125"><feFlood flood-opacity="0" result="BackgroundImageFix"/><feBlend in="SourceGraphic" in2="BackgroundImageFix" mode="normal" result="shape"/><feColorMatrix in="SourceAlpha" result="hardAlpha" type="matrix" values="0 0 0 0 0 0 0 0 0 0 0 0 0 0 0 0 0 0 127 0"/><feOffset dy="-.5"/><feGaussianBlur stdDeviation=".375"/><feComposite in2="hardAlpha" k2="-1" k3="1" operator="arithmetic"/><feColorMatrix type="matrix" values="0 0 0 0 0.0392157 0 0 0 0 0.00784314 0 0 0 0 0.0196078 0 0 0 1 0"/><feBlend in2="shape" mode="normal" result="effect1_innerShadow_4002_1584"/></filter><filter id="l" color-interpolation-filters="sRGB" filterUnits="userSpaceOnUse" height="4.19971" width="3.27203" x="13.6494" y="9.53369"><feFlood flood-opacity="0" result="BackgroundImageFix"/><feBlend in="SourceGraphic" in2="BackgroundImageFix" mode="normal" result="shape"/><feGaussianBlur result="effect1_foregroundBlur_4002_1584" stdDeviation=".375"/></filter><filter id="m" color-interpolation-filters="sRGB" filterUnits="userSpaceOnUse" height="3.19971" width="2.38971" x="14.3312" y="9.86963"><feFlood flood-opacity="0" result="BackgroundImageFix"/><feBlend in="SourceGraphic" in2="BackgroundImageFix" mode="normal" result="shape"/><feGaussianBlur result="effect1_foregroundBlur_4002_1584" stdDeviation=".125"/></filter><filter id="n" color-interpolation-filters="sRGB" filterUnits="userSpaceOnUse" height="1.88291" width="2.99835" x="16.7163" y="7.01992"><feFlood flood-opacity="0" result="BackgroundImageFix"/><feBlend in="SourceGraphic" in2="BackgroundImageFix" mode="normal" result="shape"/><feColorMatrix in="SourceAlpha" result="hardAlpha" type="matrix" values="0 0 0 0 0 0 0 0 0 0 0 0 0 0 0 0 0 0 127 0"/><feOffset dx=".25" dy="-.4"/><feGaussianBlur stdDeviation=".3"/><feComposite in2="hardAlpha" k2="-1" k3="1" operator="arithmetic"/><feColorMatrix type="matrix" values="0 0 0 0 0.0431373 0 0 0 0 0.0196078 0 0 0 0 0.027451 0 0 0 1 0"/><feBlend in2="shape" mode="normal" result="effect1_innerShadow_4002_1584"/></filter><filter id="o" color-interpolation-filters="sRGB" filterUnits="userSpaceOnUse" height="1.88291" width="2.99854" x="11.5332" y="7.01992"><feFlood flood-opacity="0" result="BackgroundImageFix"/><feBlend in="SourceGraphic" in2="BackgroundImageFix" mode="normal" result="shape"/><feColorMatrix in="SourceAlpha" result="hardAlpha" type="matrix" values="0 0 0 0 0 0 0 0 0 0 0 0 0 0 0 0 0 0 127 0"/><feOffset dx=".25" dy="-.4"/><feGaussianBlur stdDeviation=".3"/><feComposite in2="hardAlpha" k2="-1" k3="1" operator="arithmetic"/><feColorMatrix type="matrix" values="0 0 0 0 0.0431373 0 0 0 0 0.0196078 0 0 0 0 0.027451 0 0 0 1 0"/><feBlend in2="shape" mode="normal" result="effect1_innerShadow_4002_1584"/></filter><filter id="p" color-interpolation-filters="sRGB" filterUnits="userSpaceOnUse" height=".699023" width=".790027" x="16.9814" y="9.56309"><feFlood flood-opacity="0" result="BackgroundImageFix"/><feBlend in="SourceGraphic" in2="BackgroundImageFix" mode="normal" result="shape"/><feGaussianBlur result="effect1_foregroundBlur_4002_1584" stdDeviation=".05"/></filter><filter id="q" color-interpolation-filters="sRGB" filterUnits="userSpaceOnUse" height=".916113" width=".893896" x="17.8276" y="9.63887"><feFlood flood-opacity="0" result="BackgroundImageFix"/><feBlend in="SourceGraphic" in2="BackgroundImageFix" mode="normal" result="shape"/><feGaussianBlur result="effect1_foregroundBlur_4002_1584" stdDeviation=".1"/></filter><filter id="r" color-interpolation-filters="sRGB" filterUnits="userSpaceOnUse" height="1.04355" width=".989539" x="13.3554" y="9.5749"><feFlood flood-opacity="0" result="BackgroundImageFix"/><feBlend in="SourceGraphic" in2="BackgroundImageFix" mode="normal" result="shape"/><feGaussianBlur result="effect1_foregroundBlur_4002_1584" stdDeviation=".1"/></filter><filter id="s" color-interpolation-filters="sRGB" filterUnits="userSpaceOnUse" height=".707324" width=".91698" x="12.5948" y="9.55479"><feFlood flood-opacity="0" result="BackgroundImageFix"/><feBlend in="SourceGraphic" in2="BackgroundImageFix" mode="normal" result="shape"/><feGaussianBlur result="effect1_foregroundBlur_4002_1584" stdDeviation=".05"/></filter><filter id="t" color-interpolation-filters="sRGB" filterUnits="userSpaceOnUse" height="1.33389" width="2.76211" x="16.748" y="7.32354"><feFlood flood-opacity="0" result="BackgroundImageFix"/><feBlend in="SourceGraphic" in2="BackgroundImageFix" mode="normal" result="shape"/><feGaussianBlur result="effect1_foregroundBlur_4002_1584" stdDeviation=".15"/></filter><filter id="u" color-interpolation-filters="sRGB" filterUnits="userSpaceOnUse" height="1.59121" width="3.04037" x="11.3927" y="7.28789"><feFlood flood-opacity="0" result="BackgroundImageFix"/><feBlend in="SourceGraphic" in2="BackgroundImageFix" mode="normal" result="shape"/><feGaussianBlur result="effect1_foregroundBlur_4002_1584" stdDeviation=".15"/></filter><filter id="v" color-interpolation-filters="sRGB" filterUnits="userSpaceOnUse" height="2.27979" width="1.00989" x="10.3271" y="5.47168"><feFlood flood-opacity="0" result="BackgroundImageFix"/><feBlend in="SourceGraphic" in2="BackgroundImageFix" mode="normal" result="shape"/><feGaussianBlur result="effect1_foregroundBlur_4002_1584" stdDeviation=".125"/></filter><filter id="w" color-interpolation-filters="sRGB" filterUnits="userSpaceOnUse" height="2.99287" width="12.1973" x="9.42163" y="3.09551"><feFlood flood-opacity="0" result="BackgroundImageFix"/><feBlend in="SourceGraphic" in2="BackgroundImageFix" mode="normal" result="shape"/><feColorMatrix in="SourceAlpha" result="hardAlpha" type="matrix" values="0 0 0 0 0 0 0 0 0 0 0 0 0 0 0 0 0 0 127 0"/><feOffset dy="-.05"/><feGaussianBlur stdDeviation=".025"/><feComposite in2="hardAlpha" k2="-1" k3="1" operator="arithmetic"/><feColorMatrix type="matrix" values="0 0 0 0 0.360784 0 0 0 0 0.337255 0 0 0 0 0.372549 0 0 0 1 0"/><feBlend in2="shape" mode="normal" result="effect1_innerShadow_4002_1584"/></filter><radialGradient id="x" cx="0" cy="0" gradientTransform="matrix(0 10.875 -3.65625 0 22.8884 23.1145)" gradientUnits="userSpaceOnUse" r="1"><stop offset="0" stop-color="#70647f"/><stop offset="1" stop-color="#70647f" stop-opacity="0"/></radialGradient><radialGradient id="y" cx="0" cy="0" gradientTransform="matrix(1.3125 0 0 7.0625 8.29462 21.4583)" gradientUnits="userSpaceOnUse" r="1"><stop offset="0" stop-color="#5d516a"/><stop offset="1" stop-color="#5d516a" stop-opacity="0"/></radialGradient><radialGradient id="z" cx="0" cy="0" gradientTransform="matrix(0 -4.71875 13.6527 0 15.5945 21.3486)" gradientUnits="userSpaceOnUse" r="1"><stop offset="0" stop-color="#47404d"/><stop offset="1" stop-color="#3b2d3a"/></radialGradient><radialGradient id="A" cx="0" cy="0" gradientTransform="matrix(0 5.9375 -7.54205 0 15.5867 16.8955)" gradientUnits="userSpaceOnUse" r="1"><stop offset=".931579" stop-color="#342542" stop-opacity="0"/><stop offset=".994737" stop-color="#342542"/></radialGradient><radialGradient id="B" cx="0" cy="0" gradientTransform="matrix(-5.88284414 4.02339399 -5.54695012 -8.11052635 15.1696 15.5518)" gradientUnits="userSpaceOnUse" r="1"><stop offset=".9281" stop-color="#6a656f" stop-opacity="0"/><stop offset="1" stop-color="#6a656f"/></radialGradient><radialGradient id="C" cx="0" cy="0" gradientTransform="matrix(6.76563207 4.6093725 -6.35480794 9.32758037 14.9196 15.3174)" gradientUnits="userSpaceOnUse" r="1"><stop offset=".933129" stop-color="#6a656f" stop-opacity="0"/><stop offset="1" stop-color="#615b67"/></radialGradient><radialGradient id="D" cx="0" cy="0" gradientTransform="matrix(0 -10.0625 10.6454 0 15.5867 23.6143)" gradientUnits="userSpaceOnUse" r="1"><stop offset=".506211" stop-color="#57525d" stop-opacity="0"/><stop offset="1" stop-color="#57525d"/></radialGradient><radialGradient id="E" cx="0" cy="0" gradientTransform="matrix(.34676108 4.20032073 -7.72893656 .63806899 14.9525 14.8124)" gradientUnits="userSpaceOnUse" r="1"><stop offset=".316364" stop-color="#1c1026"/><stop offset="1" stop-color="#1c1026" stop-opacity="0"/></radialGradient><radialGradient id="F" cx="0" cy="0" gradientTransform="matrix(-1.51562465 -.45312379 .95780409 -3.20369734 17.3391 17.8292)" gradientUnits="userSpaceOnUse" r="1"><stop offset="0" stop-color="#432c2b"/><stop offset="1" stop-color="#2e181b"/></radialGradient><linearGradient id="G" gradientUnits="userSpaceOnUse" x1="23.2768" x2="24.4629" y1="8.94181" y2="8.94181"><stop offset="0" stop-color="#33203c"/><stop offset="1" stop-color="#61546d"/></linearGradient><radialGradient id="H" cx="0" cy="0" gradientTransform="matrix(0 -2.33473 .180314 0 24.1618 11.668)" gradientUnits="userSpaceOnUse" r="1"><stop offset="0" stop-color="#70635d"/><stop offset="1" stop-color="#70635d" stop-opacity="0"/></radialGradient><radialGradient id="I" cx="0" cy="0" gradientTransform="matrix(-.81258514 1.10067484 -.98645849 -.72826368 24.42 12.0393)" gradientUnits="userSpaceOnUse" r="1"><stop offset="0" stop-color="#686071"/><stop offset=".661286" stop-color="#402a4c"/></radialGradient><radialGradient id="J" cx="0" cy="0" gradientTransform="matrix(.796356 -.08984374 .10537778 .93404651 23.0822 12.4308)" gradientUnits="userSpaceOnUse" r="1"><stop offset=".0866887" stop-color="#685352"/><stop offset="1" stop-color="#685352" stop-opacity="0"/></radialGradient><linearGradient id="K" gradientUnits="userSpaceOnUse" x1="24.5227" x2="24.5227" y1="3.7085" y2="11.476"><stop offset="0" stop-color="#60546c"/><stop offset="1" stop-color="#504b55"/></linearGradient><linearGradient id="L" gradientUnits="userSpaceOnUse" x1="25.071" x2="22.7519" y1="14.8059" y2="14.8059"><stop offset="0" stop-color="#f9b72a"/><stop offset=".89726" stop-color="#faac28"/></linearGradient><radialGradient id="M" cx="0" cy="0" gradientTransform="matrix(-1.09603598 .20650383 -1.03018811 -5.46780758 25.1822 14.6845)" gradientUnits="userSpaceOnUse" r="1"><stop offset=".285799" stop-color="#ffd93a"/><stop offset="1" stop-color="#ffd93a" stop-opacity="0"/></radialGradient><radialGradient id="N" cx="0" cy="0" gradientTransform="matrix(0 .398438 -1.38177 0 23.9197 13.1063)" gradientUnits="userSpaceOnUse" r="1"><stop offset=".16129" stop-color="#845d03"/><stop offset="1" stop-color="#eba429" stop-opacity="0"/></radialGradient><linearGradient id="O" gradientUnits="userSpaceOnUse" x1="22.8703" x2="23.7453" y1="14.4852" y2="14.6649"><stop offset="0" stop-color="#c57e10"/><stop offset="1" stop-color="#df8f14" stop-opacity="0"/></linearGradient><radialGradient id="P" cx="0" cy="0" gradientTransform="matrix(0 -1.3125 2.89043 0 23.9197 16.8954)" gradientUnits="userSpaceOnUse" r="1"><stop offset=".421677" stop-color="#a16739"/><stop offset="1" stop-color="#db9820" stop-opacity="0"/></radialGradient><radialGradient id="Q" cx="0" cy="0" gradientTransform="matrix(0 -16.3734 4.36464 0 4.59167 29.9952)" gradientUnits="userSpaceOnUse" r="1"><stop offset="0" stop-color="#766c83"/><stop offset=".441285" stop-color="#58496a"/><stop offset="1" stop-color="#4d4159"/></radialGradient><radialGradient id="R" cx="0" cy="0" gradientTransform="matrix(0 -10.5202 .824126 0 8.35712 29.9952)" gradientUnits="userSpaceOnUse" r="1"><stop offset=".285977" stop-color="#4f445b"/><stop offset="1" stop-color="#4f445b" stop-opacity="0"/></radialGradient><linearGradient id="S" gradientUnits="userSpaceOnUse" x1="8.50129" x2="8.07593" y1="28.0641" y2="28.0641"><stop offset=".444444" stop-color="#433850"/><stop offset="1" stop-color="#433850" stop-opacity="0"/></linearGradient><radialGradient id="T" cx="0" cy="0" gradientTransform="matrix(-1.88273609 -10.19308074 2.86286373 -.52879174 24.6989 29.9952)" gradientUnits="userSpaceOnUse" r="1"><stop offset="0" stop-color="#736782"/><stop offset="1" stop-color="#5f5070"/></radialGradient><radialGradient id="U" cx="0" cy="0" gradientTransform="matrix(.54361465 12.03342726 -.70276126 .03174751 22.6478 23.1568)" gradientUnits="userSpaceOnUse" r="1"><stop offset=".176695" stop-color="#3f2a51"/><stop offset="1" stop-color="#3f2a51" stop-opacity="0"/></radialGradient><linearGradient id="V" gradientUnits="userSpaceOnUse" x1="15.5867" x2="15.5867" y1="29.8643" y2="23.4307"><stop offset="0" stop-color="#3f3748"/><stop offset="1" stop-color="#3f3748" stop-opacity="0"/></linearGradient><linearGradient id="W" gradientUnits="userSpaceOnUse" x1="12.5387" x2="13.1104" y1="4.44606" y2="5.78294"><stop offset="0" stop-color="#faa719"/><stop offset="1" stop-color="#db6008"/></linearGradient><radialGradient id="X" cx="0" cy="0" gradientTransform="matrix(1.76689 0 0 3.09207 9.0647 10.6911)" gradientUnits="userSpaceOnUse" r="1"><stop offset=".350532" stop-color="#362324"/><stop offset="1" stop-color="#332423"/></radialGradient><linearGradient id="Y" gradientUnits="userSpaceOnUse" x1="10.7457" x2="10.1007" y1="10.9718" y2="10.9718"><stop offset="0" stop-color="#281920"/><stop offset="1" stop-color="#27161d"/></linearGradient><linearGradient id="Z" gradientUnits="userSpaceOnUse" x1="21.418" x2="20.5937" y1="9.59212" y2="12.1458"><stop offset="0" stop-color="#635251"/><stop offset="1" stop-color="#452a31"/></linearGradient><radialGradient id="aa" cx="0" cy="0" gradientTransform="matrix(.83236588 -.60609088 .691773 .95003614 20.6987 10.4245)" gradientUnits="userSpaceOnUse" r="1"><stop offset=".542503" stop-color="#40272a"/><stop offset="1" stop-color="#40272a" stop-opacity="0"/></radialGradient><radialGradient id="ab" cx="0" cy="0" gradientTransform="matrix(.82688667 -1.52087788 .89017826 .48398136 20.2824 11.5181)" gradientUnits="userSpaceOnUse" r="1"><stop offset=".754913" stop-color="#31191a" stop-opacity="0"/><stop offset=".915553" stop-color="#31191a"/></radialGradient><radialGradient id="ac" cx="0" cy="0" gradientTransform="matrix(.26106467 .25841447 -.33313217 .33654864 20.3241 10.6912)" gradientUnits="userSpaceOnUse" r="1"><stop offset="0" stop-color="#352123"/><stop offset="1" stop-color="#352123" stop-opacity="0"/></radialGradient><linearGradient id="ad" gradientUnits="userSpaceOnUse" x1="19.5896" x2="11.9004" y1="11.0835" y2="12.2293"><stop offset="0" stop-color="#533531"/><stop offset="1" stop-color="#3c2828"/></linearGradient><linearGradient id="ae" gradientUnits="userSpaceOnUse" x1="10.0932" x2="11.9875" y1="13.7979" y2="13.7304"><stop offset="0" stop-color="#564440"/><stop offset="1" stop-color="#564440" stop-opacity="0"/></linearGradient><radialGradient id="af" cx="0" cy="0" gradientTransform="matrix(0 6.76296 -9.18035 0 15.2223 10.491)" gradientUnits="userSpaceOnUse" r="1"><stop offset=".494956" stop-color="#2f1820" stop-opacity="0"/><stop offset="1" stop-color="#3d2138"/><stop offset="1" stop-color="#2f1820"/></radialGradient><radialGradient id="ag" cx="0" cy="0" gradientTransform="matrix(0 -1.31603 1.61973 0 17.8881 9.41114)" gradientUnits="userSpaceOnUse" r="1"><stop offset="0" stop-color="#412628"/><stop offset="1" stop-color="#412628" stop-opacity="0"/></radialGradient><radialGradient id="ah" cx="0" cy="0" gradientTransform="matrix(0 -1.40039 1.74152 0 13.2989 9.37739)" gradientUnits="userSpaceOnUse" r="1"><stop offset="0" stop-color="#351d26"/><stop offset="1" stop-color="#351d26" stop-opacity="0"/></radialGradient><radialGradient id="ai" cx="0" cy="0" gradientTransform="matrix(0 2.15555 -13.19 0 15.555 5.02832)" gradientUnits="userSpaceOnUse" r="1"><stop offset=".388697" stop-color="#291418"/><stop offset="1" stop-color="#291418" stop-opacity="0"/></radialGradient><linearGradient id="aj" gradientUnits="userSpaceOnUse" x1="16.128" x2="27.155" y1="8.32542" y2="4.61508"><stop offset=".221607" stop-color="#5e4d4c"/><stop offset="1" stop-color="#5e4d4c" stop-opacity="0"/></linearGradient><radialGradient id="ak" cx="0" cy="0" gradientTransform="matrix(.80328373 -2.97687462 1.10391569 .29788205 19.901 6.55704)" gradientUnits="userSpaceOnUse" r="1"><stop offset="0" stop-color="#464344"/><stop offset="1" stop-color="#464344" stop-opacity="0"/></radialGradient><radialGradient id="al" cx="0" cy="0" gradientTransform="matrix(3.85103808 .35439006 -.19055347 2.07068069 18.2472 4.7851)" gradientUnits="userSpaceOnUse" r="1"><stop offset=".12243" stop-color="#4a4648"/><stop offset="1" stop-color="#4a4648" stop-opacity="0"/></radialGradient><radialGradient id="am" cx="0" cy="0" gradientTransform="matrix(0 1.69068 -2.61838 0 15.5261 2.03125)" gradientUnits="userSpaceOnUse" r="1"><stop offset="0" stop-color="#423d3f"/><stop offset="1" stop-color="#423d3f" stop-opacity="0"/></radialGradient><radialGradient id="an" cx="0" cy="0" gradientTransform="matrix(3.09500644 -2.26809866 3.55336245 4.84885418 9.03304 8.89602)" gradientUnits="userSpaceOnUse" r="1"><stop offset="0" stop-color="#463c39"/><stop offset="1" stop-color="#463c39" stop-opacity="0"/></radialGradient><linearGradient id="ao" gradientUnits="userSpaceOnUse" x1="14.6559" x2="15.6005" y1="11.7471" y2="11.7471"><stop offset="0" stop-color="#3d2928"/><stop offset="1" stop-color="#3d2928" stop-opacity="0"/></linearGradient><linearGradient id="ap" gradientUnits="userSpaceOnUse" x1="16.4709" x2="15.4382" y1="12.0718" y2="12.057"><stop offset="0" stop-color="#624d4b"/><stop offset="1" stop-color="#624d4b" stop-opacity="0"/></linearGradient><linearGradient id="aq" gradientUnits="userSpaceOnUse" x1="15.7219" x2="15.7219" y1="12.8192" y2="12.2422"><stop offset="0" stop-color="#3f222f"/><stop offset="1" stop-color="#3f222f" stop-opacity="0"/></linearGradient><radialGradient id="ar" cx="0" cy="0" gradientTransform="matrix(0 .198249 -.636927 0 15.8555 12.3088)" gradientUnits="userSpaceOnUse" r="1"><stop offset="0" stop-color="#624e4d"/><stop offset="1" stop-color="#624e4d" stop-opacity="0"/></radialGradient><linearGradient id="as" gradientUnits="userSpaceOnUse" x1="15.6526" x2="15.6526" y1="12.8614" y2="12.6926"><stop offset="0" stop-color="#31171f"/><stop offset="1" stop-color="#31171f" stop-opacity="0"/></linearGradient><linearGradient id="at" gradientUnits="userSpaceOnUse" x1="14.4819" x2="14.9198" y1="14.4454" y2="13.7531"><stop offset="0" stop-color="#564848"/><stop offset=".663171" stop-color="#564848" stop-opacity="0"/></linearGradient><linearGradient id="au"><stop offset=".80198" stop-color="#7d574a"/><stop offset="1" stop-color="#694b43"/><stop offset="1" stop-color="#804d49"/><stop offset="1" stop-color="#664944"/></linearGradient><radialGradient id="av" cx="0" cy="0" gradientTransform="matrix(0 .816688 -1.29903 0 17.7199 10.0046)" gradientUnits="userSpaceOnUse" r="1" xlink:href="#au"/><linearGradient id="aw"><stop offset=".765532" stop-color="#ffe6e2" stop-opacity="0"/><stop offset=".966159" stop-color="#ffe6e2"/></linearGradient><radialGradient id="ax" cx="0" cy="0" gradientTransform="matrix(-.23318459 -.30048979 .41370218 -.32103911 17.4895 10.0892)" gradientUnits="userSpaceOnUse" r="1" xlink:href="#aw"/><linearGradient id="ay"><stop offset="0" stop-color="#b4948d"/><stop offset="1" stop-color="#b4948d" stop-opacity="0"/></linearGradient><linearGradient id="az" gradientUnits="userSpaceOnUse" x1="18.5024" x2="18.1869" xlink:href="#ay" y1="10.0587" y2="10.2531"/><radialGradient id="aA" cx="0" cy="0" gradientTransform="matrix(0 .81673 -1.2991 0 13.3268 10.0046)" gradientUnits="userSpaceOnUse" r="1" xlink:href="#au"/><linearGradient id="aB" gradientUnits="userSpaceOnUse" x1="14.0751" x2="13.7596" xlink:href="#ay" y1="10.0585" y2="10.2529"/><radialGradient id="aC" cx="0" cy="0" gradientTransform="matrix(-.00777806 -.49678211 .59715281 -.00934955 13.0381 10.2249)" gradientUnits="userSpaceOnUse" r="1" xlink:href="#aw"/><linearGradient id="aD"><stop offset="0" stop-color="#353435"/><stop offset="1" stop-color="#353435" stop-opacity="0"/></linearGradient><linearGradient id="aE" gradientUnits="userSpaceOnUse" x1="18.5188" x2="18.0957" xlink:href="#aD" y1="7.90435" y2="7.03983"/><linearGradient id="aF" gradientUnits="userSpaceOnUse" x1="13.1777" x2="11.9804" xlink:href="#aD" y1="7.77592" y2="7.27378"/><linearGradient id="aG" gradientUnits="userSpaceOnUse" x1="10.8321" x2="10.8321" y1="5.74729" y2="7.91909"><stop offset="0" stop-color="#3c393a"/><stop offset="1" stop-color="#3c393a" stop-opacity="0"/></linearGradient><radialGradient id="aH" cx="0" cy="0" gradientTransform="matrix(-.66314657 -3.60045887 3.96832128 -.7309009 18.0705 5.90459)" gradientUnits="userSpaceOnUse" r="1"><stop offset=".110042" stop-color="#595260"/><stop offset="1" stop-color="#372e41"/></radialGradient><radialGradient id="aI" cx="0" cy="0" gradientTransform="matrix(0 1.99254 -7.09028 0 15.4899 2.86646)" gradientUnits="userSpaceOnUse" r="1"><stop offset=".263158" stop-color="#160c20"/><stop offset="1" stop-color="#160c20" stop-opacity="0"/></radialGradient><linearGradient id="aJ" gradientUnits="userSpaceOnUse" x1="17.3571" x2="16.0758" y1="3.95801" y2="-.416992"><stop offset="0" stop-color="#3d294b"/><stop offset="1" stop-color="#433a4d"/></linearGradient><radialGradient id="aK" cx="0" cy="0" gradientTransform="matrix(0 .9375 -12.6875 0 21.3258 2.39551)" gradientUnits="userSpaceOnUse" r="1"><stop offset="0" stop-color="#696070"/><stop offset=".866667" stop-color="#696070" stop-opacity="0"/></radialGradient><radialGradient id="aL" cx="0" cy="0" gradientTransform="matrix(7.75 0 0 .875 6.35706 3.02051)" gradientUnits="userSpaceOnUse" r="1"><stop offset="0" stop-color="#75707b"/><stop offset=".935484" stop-color="#75707b" stop-opacity="0"/></radialGradient><path d="m15.5917 15.4951c-6.07003 0-11.00003 4.92-11.00003 11v3.5h21.99003v-3.5c0-6.08-4.92-11-10.99-11z" fill="#56436b"/><path d="m15.5917 15.4951c-6.07003 0-11.00003 4.92-11.00003 11v3.5h21.99003v-3.5c0-6.08-4.92-11-10.99-11z" fill="url(#x)"/><path d="m15.5917 15.4951c-6.07003 0-11.00003 4.92-11.00003 11v3.5h21.99003v-3.5c0-6.08-4.92-11-10.99-11z" fill="url(#y)"/><path d="m22.6076 18.0941c.0488-.0989.0247-.218-.0588-.2901-1.8559-1.6025-4.3465-2.4866-6.9543-2.4866-2.6076 0-5.113.8935-6.96965 2.487-.08369.0718-.10815.1909-.05958.2899 1.2752 2.5995 3.75543 4.6137 7.02923 4.6137s5.7299-2.0143 7.0131-4.6139z" fill="url(#z)"/><path d="m22.6076 18.0941c.0488-.0989.0247-.218-.0588-.2901-1.8559-1.6025-4.3465-2.4866-6.9543-2.4866-2.6076 0-5.113.8935-6.96965 2.487-.08369.0718-.10815.1909-.05958.2899 1.2752 2.5995 3.75543 4.6137 7.02923 4.6137s5.7299-2.0143 7.0131-4.6139z" fill="url(#A)"/><path d="m22.6076 18.0941c.0488-.0989.0247-.218-.0588-.2901-1.8559-1.6025-4.3465-2.4866-6.9543-2.4866-2.6076 0-5.113.8935-6.96965 2.487-.08369.0718-.10815.1909-.05958.2899 1.2752 2.5995 3.75543 4.6137 7.02923 4.6137s5.7299-2.0143 7.0131-4.6139z" fill="url(#B)"/><path d="m22.6076 18.0941c.0488-.0989.0247-.218-.0588-.2901-1.8559-1.6025-4.3465-2.4866-6.9543-2.4866-2.6076 0-5.113.8935-6.96965 2.487-.08369.0718-.10815.1909-.05958.2899 1.2752 2.5995 3.75543 4.6137 7.02923 4.6137s5.7299-2.0143 7.0131-4.6139z" fill="url(#C)"/><path d="m22.6076 18.0941c.0488-.0989.0247-.218-.0588-.2901-1.8559-1.6025-4.3465-2.4866-6.9543-2.4866-2.6076 0-5.113.8935-6.96965 2.487-.08369.0718-.10815.1909-.05958.2899 1.2752 2.5995 3.75543 4.6137 7.02923 4.6137s5.7299-2.0143 7.0131-4.6139z" fill="url(#D)"/><path d="m22.6076 18.0941c.0488-.0989.0247-.218-.0588-.2901-1.8559-1.6025-4.3465-2.4866-6.9543-2.4866-2.6076 0-5.113.8935-6.96965 2.487-.08369.0718-.10815.1909-.05958.2899 1.2752 2.5995 3.75543 4.6137 7.02923 4.6137s5.7299-2.0143 7.0131-4.6139z" fill="url(#E)"/><g filter="url(#a)"><path d="m15.2929 18.865c.0629.043.1698.08.28.0838.1103-.0038.2171-.0408.28-.0838 1.0169-.696 1.78-1.3892 1.78-2.5866v-3.6334c0-1.14-.92-2.06-2.06-2.06s-2.06.92-2.06 2.06v3.6334c0 1.1974.7632 1.8906 1.78 2.5866z" stroke="#1f0f21" stroke-width=".4"/></g><path d="m15.2929 18.865c.0629.043.1698.08.28.0838.1103-.0038.2171-.0408.28-.0838 1.0169-.696 1.78-1.3892 1.78-2.5866v-3.6334c0-1.14-.92-2.06-2.06-2.06s-2.06.92-2.06 2.06v3.6334c0 1.1974.7632 1.8906 1.78 2.5866z" fill="url(#F)"/><path d="m24.3198 11.668v-8.86282h-.8v8.86282z" fill="url(#G)"/><path d="m24.3198 11.668v-8.86282h-.8v8.86282z" fill="url(#H)"/><path d="m23.5192 11.644c-.2604.1421-.437.4184-.437.7359 0 .4626.375.8376.8376.8376s.8376-.375.8376-.8376c0-.3175-.1767-.5938-.4371-.7359z" fill="url(#I)"/><path d="m23.5192 11.644c-.2604.1421-.437.4184-.437.7359 0 .4626.375.8376.8376.8376s.8376-.375.8376-.8376c0-.3175-.1767-.5938-.4371-.7359z" fill="url(#J)"/><g filter="url(#b)"><path d="m24.0227 3.7085v7.7675" stroke="url(#K)" stroke-width=".15"/></g><path d="m23.066 13.6049-.5163 2.2385c-.0656.2844.1526.555.4444.5512h1.8631c.2894-.0039.5-.276.4312-.5571l-.5425-2.2392c-.0548-.2237-.2553-.381-.4856-.381h-.707c-.2329 0-.4349.1607-.4873.3876z" fill="url(#L)"/><path d="m23.066 13.6049-.5163 2.2385c-.0656.2844.1526.555.4444.5512h1.8631c.2894-.0039.5-.276.4312-.5571l-.5425-2.2392c-.0548-.2237-.2553-.381-.4856-.381h-.707c-.2329 0-.4349.1607-.4873.3876z" fill="url(#M)"/><path d="m23.066 13.6049-.5163 2.2385c-.0656.2844.1526.555.4444.5512h1.8631c.2894-.0039.5-.276.4312-.5571l-.5425-2.2392c-.0548-.2237-.2553-.381-.4856-.381h-.707c-.2329 0-.4349.1607-.4873.3876z" fill="url(#N)"/><path d="m23.066 13.6049-.5163 2.2385c-.0656.2844.1526.555.4444.5512h1.8631c.2894-.0039.5-.276.4312-.5571l-.5425-2.2392c-.0548-.2237-.2553-.381-.4856-.381h-.707c-.2329 0-.4349.1607-.4873.3876z" fill="url(#O)"/><path d="m23.066 13.6049-.5163 2.2385c-.0656.2844.1526.555.4444.5512h1.8631c.2894-.0039.5-.276.4312-.5571l-.5425-2.2392c-.0548-.2237-.2553-.381-.4856-.381h-.707c-.2329 0-.4349.1607-.4873.3876z" fill="url(#P)"/><path d="m8.35712 29.9952v-11.7862c-2.30703 2.0156-3.76545 4.9793-3.76545 8.2862v3.5z" fill="url(#Q)"/><path d="m8.35712 29.9952v-11.7862c-2.30703 2.0156-3.76545 4.9793-3.76545 8.2862v3.5z" fill="url(#R)"/><path d="m8.35712 29.9952v-11.7862c-2.30703 2.0156-3.76545 4.9793-3.76545 8.2862v3.5z" fill="url(#S)"/><path d="m22.8162 29.9952v-11.7862c2.307 2.0156 3.7655 4.9793 3.7655 8.2862v3.5z" fill="url(#T)"/><path d="m22.8162 29.9952v-11.7862c2.307 2.0156 3.7655 4.9793 3.7655 8.2862v3.5z" fill="url(#U)"/><g fill="url(#V)" filter="url(#c)"><path d="m11.2546 23.7712c0-.1881.1548-.3405.3457-.3405.191 0 .3457.1524.3457.3405v6.0931h-.6914z"/><path d="m15.241 23.7712c0-.1881.1547-.3405.3457-.3405.1909 0 .3457.1524.3457.3405v6.0931h-.6914z"/><path d="m19.2273 23.7712c0-.1881.1548-.3405.3457-.3405s.3457.1524.3457.3405v6.0931h-.6914z"/></g><g filter="url(#d)"><path d="m12.5387 4.08545c.0244.25506.2463 1.21375.5717 1.79424" stroke="url(#W)" stroke-linecap="round" stroke-width=".1"/></g><g filter="url(#e)"><circle cx="10.7456" cy="10.6911" fill="url(#X)" r="1.6809"/></g><g filter="url(#f)"><circle cx="10.7457" cy="10.6912" fill="url(#Y)" r="1.00179"/></g><g filter="url(#g)"><circle cx="20.3241" cy="10.6911" fill="url(#Z)" r="1.6809"/><circle cx="20.3241" cy="10.6911" fill="url(#aa)" r="1.6809"/></g><g filter="url(#h)"><circle cx="20.3241" cy="10.6912" fill="#463133" r="1.00179"/><circle cx="20.3241" cy="10.6912" fill="url(#ab)" r="1.00179"/><circle cx="20.3241" cy="10.6912" fill="url(#ac)" r="1.00179"/></g><g filter="url(#i)"><path d="m10.3913 10.0744c.0163.0011.0327.0017.0494.0017 0 0-.0541-.85923-.1081-1.44992 0-.2685.1081-.59069.3241-.75179l.162-.1611c.27-.2148.3781-.53699.3781-.85919v-.85919c0-.2685.162-.4833.432-.53699.6481-.1611 1.9983-.4296 3.9425-.4296 1.9443 0 3.2944.2685 3.9425.4296.2161.05369.4321.26849.4321.53699v.85919c0 .3222.162.64439.378.85919.5055.35423.4741.54907.4321.96659-.054.53699-.108 1.44992-.108 1.44992.0061 0 .0122-.0001.0182-.0003l-.2677 3.9856c-.1616 1.7817-1.5623 3.0235-3.2323 3.0235h-3.2324c-1.724 0-3.0708-1.2418-3.2324-3.0235z" fill="url(#ad)"/><path d="m10.3913 10.0744c.0163.0011.0327.0017.0494.0017 0 0-.0541-.85923-.1081-1.44992 0-.2685.1081-.59069.3241-.75179l.162-.1611c.27-.2148.3781-.53699.3781-.85919v-.85919c0-.2685.162-.4833.432-.53699.6481-.1611 1.9983-.4296 3.9425-.4296 1.9443 0 3.2944.2685 3.9425.4296.2161.05369.4321.26849.4321.53699v.85919c0 .3222.162.64439.378.85919.5055.35423.4741.54907.4321.96659-.054.53699-.108 1.44992-.108 1.44992.0061 0 .0122-.0001.0182-.0003l-.2677 3.9856c-.1616 1.7817-1.5623 3.0235-3.2323 3.0235h-3.2324c-1.724 0-3.0708-1.2418-3.2324-3.0235z" fill="url(#ae)"/><path d="m10.3913 10.0744c.0163.0011.0327.0017.0494.0017 0 0-.0541-.85923-.1081-1.44992 0-.2685.1081-.59069.3241-.75179l.162-.1611c.27-.2148.3781-.53699.3781-.85919v-.85919c0-.2685.162-.4833.432-.53699.6481-.1611 1.9983-.4296 3.9425-.4296 1.9443 0 3.2944.2685 3.9425.4296.2161.05369.4321.26849.4321.53699v.85919c0 .3222.162.64439.378.85919.5055.35423.4741.54907.4321.96659-.054.53699-.108 1.44992-.108 1.44992.0061 0 .0122-.0001.0182-.0003l-.2677 3.9856c-.1616 1.7817-1.5623 3.0235-3.2323 3.0235h-3.2324c-1.724 0-3.0708-1.2418-3.2324-3.0235z" fill="url(#af)"/><path d="m10.3913 10.0744c.0163.0011.0327.0017.0494.0017 0 0-.0541-.85923-.1081-1.44992 0-.2685.1081-.59069.3241-.75179l.162-.1611c.27-.2148.3781-.53699.3781-.85919v-.85919c0-.2685.162-.4833.432-.53699.6481-.1611 1.9983-.4296 3.9425-.4296 1.9443 0 3.2944.2685 3.9425.4296.2161.05369.4321.26849.4321.53699v.85919c0 .3222.162.64439.378.85919.5055.35423.4741.54907.4321.96659-.054.53699-.108 1.44992-.108 1.44992.0061 0 .0122-.0001.0182-.0003l-.2677 3.9856c-.1616 1.7817-1.5623 3.0235-3.2323 3.0235h-3.2324c-1.724 0-3.0708-1.2418-3.2324-3.0235z" fill="url(#ag)"/><path d="m10.3913 10.0744c.0163.0011.0327.0017.0494.0017 0 0-.0541-.85923-.1081-1.44992 0-.2685.1081-.59069.3241-.75179l.162-.1611c.27-.2148.3781-.53699.3781-.85919v-.85919c0-.2685.162-.4833.432-.53699.6481-.1611 1.9983-.4296 3.9425-.4296 1.9443 0 3.2944.2685 3.9425.4296.2161.05369.4321.26849.4321.53699v.85919c0 .3222.162.64439.378.85919.5055.35423.4741.54907.4321.96659-.054.53699-.108 1.44992-.108 1.44992.0061 0 .0122-.0001.0182-.0003l-.2677 3.9856c-.1616 1.7817-1.5623 3.0235-3.2323 3.0235h-3.2324c-1.724 0-3.0708-1.2418-3.2324-3.0235z" fill="url(#ah)"/><path d="m10.3913 10.0744c.0163.0011.0327.0017.0494.0017 0 0-.0541-.85923-.1081-1.44992 0-.2685.1081-.59069.3241-.75179l.162-.1611c.27-.2148.3781-.53699.3781-.85919v-.85919c0-.2685.162-.4833.432-.53699.6481-.1611 1.9983-.4296 3.9425-.4296 1.9443 0 3.2944.2685 3.9425.4296.2161.05369.4321.26849.4321.53699v.85919c0 .3222.162.64439.378.85919.5055.35423.4741.54907.4321.96659-.054.53699-.108 1.44992-.108 1.44992.0061 0 .0122-.0001.0182-.0003l-.2677 3.9856c-.1616 1.7817-1.5623 3.0235-3.2323 3.0235h-3.2324c-1.724 0-3.0708-1.2418-3.2324-3.0235z" fill="url(#ai)"/></g><g filter="url(#j)"><path d="m19.5167 5.63574-3.0986 1.03305c-.5275.17588-.8278.73127-.686 1.269.1355.51404.6325.84678 1.1594.77624l3.0807-.41248z" fill="url(#aj)"/></g><g filter="url(#k)"><path d="m20.378 4.16929.4321.2148c.756.37589 1.1881 1.23508 1.0261 2.14797l-.5941 3.06087c-.053.31611-.2619.52887-.5758.53677-.0061.0001-.0122.0002-.0183.0002 0 0 .054-.9129.108-1.44989.0439-.43607-.0322-.56909-.432-.96659-.216-.2148-.3781-.537-.3781-.85919v-.85919c0-.2685-.216-.4833-.432-.537-.6481-.16109-1.9983-.42959-3.9425-.42959-1.9443 0-3.2944.2685-3.9425.42959-.2701.0537-.4321.2685-.4321.537v.85919c0 .32219-.108.64439-.378.85919l-.1621.1611c-.216.16109-.324.48329-.324.75179.054.59069.108 1.44989.108 1.44989-.0166 0-.0331-.0006-.0494-.0017-.3017-.0206-.54743-.2296-.59867-.53527l-.59408-3.06087c-.10801-.85919.32405-1.71838 1.08015-2.09427l.432-.2148c.2701-.1611.5401-.3759.8102-.59069l.9721-1.02029c.5941-.537 1.4582-.69809 2.2143-.3222.54.1611 1.1341.1611 1.6742 0 .8101-.2685 1.7282-.0537 2.3763.537l.8101.80549c.216.26849.4861.42959.8101.59069z" fill="#21181b"/><path d="m20.378 4.16929.4321.2148c.756.37589 1.1881 1.23508 1.0261 2.14797l-.5941 3.06087c-.053.31611-.2619.52887-.5758.53677-.0061.0001-.0122.0002-.0183.0002 0 0 .054-.9129.108-1.44989.0439-.43607-.0322-.56909-.432-.96659-.216-.2148-.3781-.537-.3781-.85919v-.85919c0-.2685-.216-.4833-.432-.537-.6481-.16109-1.9983-.42959-3.9425-.42959-1.9443 0-3.2944.2685-3.9425.42959-.2701.0537-.4321.2685-.4321.537v.85919c0 .32219-.108.64439-.378.85919l-.1621.1611c-.216.16109-.324.48329-.324.75179.054.59069.108 1.44989.108 1.44989-.0166 0-.0331-.0006-.0494-.0017-.3017-.0206-.54743-.2296-.59867-.53527l-.59408-3.06087c-.10801-.85919.32405-1.71838 1.08015-2.09427l.432-.2148c.2701-.1611.5401-.3759.8102-.59069l.9721-1.02029c.5941-.537 1.4582-.69809 2.2143-.3222.54.1611 1.1341.1611 1.6742 0 .8101-.2685 1.7282-.0537 2.3763.537l.8101.80549c.216.26849.4861.42959.8101.59069z" fill="url(#ak)"/><path d="m20.378 4.16929.4321.2148c.756.37589 1.1881 1.23508 1.0261 2.14797l-.5941 3.06087c-.053.31611-.2619.52887-.5758.53677-.0061.0001-.0122.0002-.0183.0002 0 0 .054-.9129.108-1.44989.0439-.43607-.0322-.56909-.432-.96659-.216-.2148-.3781-.537-.3781-.85919v-.85919c0-.2685-.216-.4833-.432-.537-.6481-.16109-1.9983-.42959-3.9425-.42959-1.9443 0-3.2944.2685-3.9425.42959-.2701.0537-.4321.2685-.4321.537v.85919c0 .32219-.108.64439-.378.85919l-.1621.1611c-.216.16109-.324.48329-.324.75179.054.59069.108 1.44989.108 1.44989-.0166 0-.0331-.0006-.0494-.0017-.3017-.0206-.54743-.2296-.59867-.53527l-.59408-3.06087c-.10801-.85919.32405-1.71838 1.08015-2.09427l.432-.2148c.2701-.1611.5401-.3759.8102-.59069l.9721-1.02029c.5941-.537 1.4582-.69809 2.2143-.3222.54.1611 1.1341.1611 1.6742 0 .8101-.2685 1.7282-.0537 2.3763.537l.8101.80549c.216.26849.4861.42959.8101.59069z" fill="url(#al)"/><path d="m20.378 4.16929.4321.2148c.756.37589 1.1881 1.23508 1.0261 2.14797l-.5941 3.06087c-.053.31611-.2619.52887-.5758.53677-.0061.0001-.0122.0002-.0183.0002 0 0 .054-.9129.108-1.44989.0439-.43607-.0322-.56909-.432-.96659-.216-.2148-.3781-.537-.3781-.85919v-.85919c0-.2685-.216-.4833-.432-.537-.6481-.16109-1.9983-.42959-3.9425-.42959-1.9443 0-3.2944.2685-3.9425.42959-.2701.0537-.4321.2685-.4321.537v.85919c0 .32219-.108.64439-.378.85919l-.1621.1611c-.216.16109-.324.48329-.324.75179.054.59069.108 1.44989.108 1.44989-.0166 0-.0331-.0006-.0494-.0017-.3017-.0206-.54743-.2296-.59867-.53527l-.59408-3.06087c-.10801-.85919.32405-1.71838 1.08015-2.09427l.432-.2148c.2701-.1611.5401-.3759.8102-.59069l.9721-1.02029c.5941-.537 1.4582-.69809 2.2143-.3222.54.1611 1.1341.1611 1.6742 0 .8101-.2685 1.7282-.0537 2.3763.537l.8101.80549c.216.26849.4861.42959.8101.59069z" fill="url(#am)"/><path d="m20.378 4.16929.4321.2148c.756.37589 1.1881 1.23508 1.0261 2.14797l-.5941 3.06087c-.053.31611-.2619.52887-.5758.53677-.0061.0001-.0122.0002-.0183.0002 0 0 .054-.9129.108-1.44989.0439-.43607-.0322-.56909-.432-.96659-.216-.2148-.3781-.537-.3781-.85919v-.85919c0-.2685-.216-.4833-.432-.537-.6481-.16109-1.9983-.42959-3.9425-.42959-1.9443 0-3.2944.2685-3.9425.42959-.2701.0537-.4321.2685-.4321.537v.85919c0 .32219-.108.64439-.378.85919l-.1621.1611c-.216.16109-.324.48329-.324.75179.054.59069.108 1.44989.108 1.44989-.0166 0-.0331-.0006-.0494-.0017-.3017-.0206-.54743-.2296-.59867-.53527l-.59408-3.06087c-.10801-.85919.32405-1.71838 1.08015-2.09427l.432-.2148c.2701-.1611.5401-.3759.8102-.59069l.9721-1.02029c.5941-.537 1.4582-.69809 2.2143-.3222.54.1611 1.1341.1611 1.6742 0 .8101-.2685 1.7282-.0537 2.3763.537l.8101.80549c.216.26849.4861.42959.8101.59069z" fill="url(#an)"/></g><g filter="url(#l)"><path d="m15.2488 10.568-.826 1.7113c-.1023.352.1434.7039.4915.7039h.7423c.3481 0 .5938-.3574.4914-.7039l-.5017-1.7113c-.1075-.3791-.2849-.3791-.3975 0z" fill="#332024"/></g><g filter="url(#m)"><path d="m15.1412 10.4039-.535 1.7113c-.1092.352.1528.704.524.704h.7916c.3712 0 .6333-.3574.5241-.704l-.535-1.7113c-.1147-.379-.6496-.379-.7697 0z" fill="#4b3034"/><path d="m15.1412 10.4039-.535 1.7113c-.1092.352.1528.704.524.704h.7916c.3712 0 .6333-.3574.5241-.704l-.535-1.7113c-.1147-.379-.6496-.379-.7697 0z" fill="url(#ao)"/><path d="m15.1412 10.4039-.535 1.7113c-.1092.352.1528.704.524.704h.7916c.3712 0 .6333-.3574.5241-.704l-.535-1.7113c-.1147-.379-.6496-.379-.7697 0z" fill="url(#ap)"/><path d="m15.1412 10.4039-.535 1.7113c-.1092.352.1528.704.524.704h.7916c.3712 0 .6333-.3574.5241-.704l-.535-1.7113c-.1147-.379-.6496-.379-.7697 0z" fill="url(#aq)"/><path d="m15.1412 10.4039-.535 1.7113c-.1092.352.1528.704.524.704h.7916c.3712 0 .6333-.3574.5241-.704l-.535-1.7113c-.1147-.379-.6496-.379-.7697 0z" fill="url(#ar)"/></g><path d="m15.1412 10.4039-.535 1.7113c-.1092.352.1528.704.524.704h.7916c.3712 0 .6333-.3574.5241-.704l-.535-1.7113c-.1147-.379-.6496-.379-.7697 0z" fill="url(#as)"/><path d="m14.1545 13.4677c.3962.2065.8684.3249 1.3715.3249.5081 0 .9753-.1184 1.3715-.3249l.0004-.0003c.0905-.046.1855-.0193.2426.04.0577.0599.0789.1557.021.2426m-3.007-.2823 2.9653.2547m-2.9653-.2547-.0005-.0003c-.0912-.0464-.1862-.0175-.2428.0421-.0568.0598-.0792.1558-.0205.2409m.2638-.2827-.2224.2547m3.2294.0276c0 .0001-.0001.0001-.0001.0001l-.0416-.0277m.0417.0276s0 0 .0001-.0001l-.0418-.0275m.0417.0276c-.3462.5245-.9491.874-1.6355.874-.6863 0-1.2891-.3493-1.6353-.8736m3.2291-.028c-.3371.5109-.9246.8516-1.5938.8516s-1.2567-.3407-1.5939-.8516m-.0414.028c.0001.0001.0002.0003.0004.0005l.041-.0285m-.0414.028c-.0001-.0002-.0002-.0003-.0003-.0005l.0417-.0275" fill="#2a0219" stroke="url(#at)" stroke-width=".1"/><g filter="url(#n)"><path d="m19.2711 7.95242-.0013-.00102-.0018-.00155-.0046-.00368-.012-.0096c-.0094-.00736-.0215-.01659-.0362-.02738-.0294-.02154-.0695-.04939-.1198-.08086-.1002-.0628-.2425-.14103-.4226-.21221-.3614-.1429-.8776-.25802-1.5029-.15929-.2931.04629-.4932.32144-.4469.61458.0462.29314.3214.49325.6145.44697.4006-.06324.7213.0106.9402.09717.1102.04355.194.09017.2473.12355.0265.01661.045.02968.055.03703.0042.00305.0069.0051.008.00596.2279.18582.5635.15393.7523-.07255.1899-.22798.1588-.56713-.0692-.75712z" fill="#1e1e1e"/></g><g filter="url(#o)"><path d="m11.7266 7.95274.0007-.00065.0009-.00069.0019-.00155.0045-.00368.012-.0096c.0094-.00736.0215-.01659.0362-.02738.0294-.02154.0695-.04939.1198-.08086.1002-.0628.2425-.14103.4226-.21221.3614-.1429.8776-.25802 1.5029-.15929.2931.04629.4932.32144.447.61458-.0463.29314-.3215.49325-.6146.44697-.4005-.06324-.7212.0106-.9402.09717-.1102.04355-.1939.09017-.2472.12355-.0266.01661-.0451.02968-.0551.03703-.0042.00305-.0069.0051-.008.00596-.2279.18582-.5635.15393-.7522-.07255-.19-.22798-.1592-.56681.0688-.7568z" fill="#1e1e1e"/></g><path d="m17.93 9.25098c.6575 0 1.2128.45326 1.3639 1.06582.0449.1755-.0898.343-.2695.343h-2.2459c-.1429 0-.2573-.1307-.2287-.2736.1266-.64521.6942-1.13522 1.3802-1.13522z" fill="#fff"/><path d="m17.7219 9.52441c.4982 0 .8984.40426.8984.89839 0 .0816-.0123.1633-.0327.2368h-1.7355c-.0204-.0776-.0326-.1552-.0326-.2368 0-.49413.4042-.89839.9024-.89839z" fill="url(#av)"/><path d="m17.2074 10.4227c0-.2858.2287-.5145.5145-.5145.2859 0 .5145.2287.5145.5145 0 .0858-.0204.1674-.0571.2369h-.9107c-.0408-.0695-.0612-.1511-.0612-.2369z" fill="#000"/><g filter="url(#p)"><path d="m17.655 9.71463c.0639.0855-.0697.18974-.2216.30337-.152.1136-.2647.1935-.3286.108-.064-.0855.0074-.2469.1593-.3605.152-.1136.327-.13638.3909-.05087z" fill="#c7a7a3"/><path d="m17.655 9.71463c.0639.0855-.0697.18974-.2216.30337-.152.1136-.2647.1935-.3286.108-.064-.0855.0074-.2469.1593-.3605.152-.1136.327-.13638.3909-.05087z" fill="url(#ax)"/></g><g filter="url(#q)"><path d="m18.5215 10.3041c-.0331-.232-.1689-.40681-.2326-.46523l-.2613.28683.1179.2294z" fill="url(#az)"/></g><path d="m13.1167 9.25049c-.6575 0-1.2129.45328-1.364 1.06581-.0449.1756.0899.343.2695.343h2.2461c.1429 0 .2572-.1306.2286-.2736-.1266-.64517-.6983-1.13521-1.3802-1.13521z" fill="#fff"/><path d="m13.3248 9.52441c-.4982 0-.8984.40429-.8984.89839 0 .0817.0122.1634.0327.2369h1.7355c.0204-.0776.0327-.1552.0327-.2369-.0041-.4941-.4043-.89839-.9025-.89839z" fill="url(#aA)"/><path d="m13.8395 10.4227c0-.2858-.2287-.5145-.5145-.5145-.2859 0-.5146.2287-.5146.5145 0 .0858.0204.1675.0572.2369h.9106c.0368-.0694.0613-.1511.0613-.2369z" fill="#000"/><g filter="url(#r)"><path d="m14.145 10.3166c0-.2899-.2359-.48328-.2996-.5417l-.29.2804.1785.3633z" fill="url(#aB)"/></g><g filter="url(#s)"><ellipse cx="13.0532" cy="9.9083" fill="#c7a7a3" fill-opacity=".9" rx=".391751" ry=".198262" transform="matrix(.88365127 -.46814574 .46814574 .88365127 -3.119805 7.263618)"/><ellipse cx="13.0532" cy="9.9083" fill="url(#aC)" rx=".391751" ry=".198262" transform="matrix(.88365127 -.46814574 .46814574 .88365127 -3.119805 7.263618)"/></g><g filter="url(#t)"><path d="m17.198 7.80691c.433-.07578 1.2775-.05413 1.8621.40057" stroke="url(#aE)" stroke-linecap="round" stroke-width=".3"/></g><g filter="url(#u)"><path d="m11.9427 8.3292c.3294-.29113 1.0487-.59768 1.9404-.45555" stroke="url(#aF)" stroke-linecap="round" stroke-width=".5"/></g><g filter="url(#v)"><path d="m10.962 5.84668v.90369c-.0078.14963-.0708.48434-.2599.62609" stroke="url(#aG)" stroke-linecap="round" stroke-width=".25"/></g><g filter="url(#w)"><path d="m9.42163 5.20801 1.18547-1.95313 9.75-.10937 1.2618 2.01824c-4.664 1.60938-10.1074.77863-12.19727.04426z" fill="url(#aH)"/><path d="m9.42163 5.20801 1.18547-1.95313 9.75-.10937 1.2618 2.01824c-4.664 1.60938-10.1074.77863-12.19727.04426z" fill="url(#aI)"/></g><path d="m23.5295 3.60488h-15.96998c-.44 0-.8-.36-.8-.8s.36-.8.8-.8h15.95998c.44 0 .8.36.8.8.01.44-.35.8-.79.8z" fill="url(#aJ)"/><path d="m23.5295 3.60488h-15.96998c-.44 0-.8-.36-.8-.8s.36-.8.8-.8h15.95998c.44 0 .8.36.8.8.01.44-.35.8-.79.8z" fill="url(#aK)"/><path d="m23.5295 3.60488h-15.96998c-.44 0-.8-.36-.8-.8s.36-.8.8-.8h15.95998c.44 0 .8.36.8.8.01.44-.35.8-.79.8z" fill="url(#aL)"/></svg>