<svg fill="none" height="32" viewBox="0 0 32 32" width="32" xmlns="http://www.w3.org/2000/svg"><path d="m13.98 2.53998c-.54 1.14-.53 2.52.15 3.7.542.93554 1.4045 1.57136 2.37 1.84568.9655-.27432 1.828-.91014 2.37-1.84568.68-1.18.69-2.56.15-3.7-.14-.31.16-.63.47-.51.25.1.49.22.72.38 1.7 1.12 2.28 3.38 1.34 5.18-.9722 1.86175-3.1723 2.62162-5.05 1.85543-1.8777.76619-4.0779.00632-5.05-1.85543-.94-1.8-.36-4.06 1.34-5.18.23-.16.47-.28.72-.38.31-.12.61.2.47.51z" fill="#ffdea7"/><path d="m20.5 7.5-4-1.5h-4.81c-.47 0-.93.07-1.36.2-.48.14-1.2.64-1.33 1.2v15.07h16v-11.78c0-.2984-.0279-.5902-.0811-.87309z" fill="#d3d3d3"/><path d="m6.09 10h.96539c-.03072.1712-.04954.348-.05539.53v9.64l9-1.54v-4.51c0-2.58-1.28-4.98001-3.42-6.41001-.8479-.56773-1.8058-.71959-2.68565-.54812-.42018-1.8124-2.04504-3.16187-3.99435-3.16187h-3.28c-.34 0-.62.28-.62.62v1.29c0 2.26 1.83 4.09 4.09 4.09z" fill="#636363"/><path d="m22 10h3.91c2.26 0 4.09-1.83 4.09-4.09v-1.29c0-.34-.28-.62-.63-.62h-3.28c-1.6802 0-3.1227 1.01146-3.7523 2.45912-.6135-.29422-1.3012-.45912-2.0277-.45912h-4.31l2.38 2.38c.969.96903 2.2593 1.5387 3.62 1.61194z" fill="#636363"/><path d="m11 15c0 .55.45 1 1 1s1-.45 1-1v-1c0-.55-.45-1-1-1s-1 .45-1 1z" fill="#212121"/><path d="m20 16c.55 0 1-.45 1-1v-1c0-.55-.45-1-1-1s-1 .45-1 1v1c0 .55.45 1 1 1z" fill="#212121"/><g fill="#fbb8ab"><path d="m5.91 5.5c1.17 0 2.17.78 2.48 1.85-.34.34-.62.73-.85 1.15h-1.45c-1.43 0-2.59-1.16-2.59-2.59v-.2c0-.12.09-.21.21-.21z"/><path d="m26.09 5.5c-1.17 0-2.17.78-2.48 1.85.34.33.63.72.85 1.15h1.45c1.43 0 2.59-1.16 2.59-2.59v-.2c0-.12-.09-.21-.21-.21z"/><path d="m20.48 17c2.99-.01 5.48 2.41 5.52 5.42.04 3.08-2.44 5.58-5.5 5.58h-.3086l-4.2031.957-4.1758-.957h-.3125c-3.06001 0-5.54001-2.5-5.50001-5.58.04-3.03 2.58-5.48 5.61001-5.42z"/></g><path d="m13 22c.5523 0 1-.4477 1-1s-.4477-1-1-1-1 .4477-1 1 .4477 1 1 1z" fill="#ff8687"/><path d="m20.3044 28c-1.0363 1.2176-2.5802 1.99-4.3044 1.99-1.7243 0-3.2681-.7724-4.3044-1.99z" fill="#ff8687"/><path d="m20 21c0 .5523-.4477 1-1 1s-1-.4477-1-1 .4477-1 1-1 1 .4477 1 1z" fill="#ff8687"/></svg>