<svg fill="none" height="32" viewBox="0 0 32 32" width="32" xmlns="http://www.w3.org/2000/svg" xmlns:xlink="http://www.w3.org/1999/xlink"><filter id="a" color-interpolation-filters="sRGB" filterUnits="userSpaceOnUse" height="2.25" width="22.5" x="2" y="27.75"><feFlood flood-opacity="0" result="BackgroundImageFix"/><feBlend in="SourceGraphic" in2="BackgroundImageFix" mode="normal" result="shape"/><feColorMatrix in="SourceAlpha" result="hardAlpha" type="matrix" values="0 0 0 0 0 0 0 0 0 0 0 0 0 0 0 0 0 0 127 0"/><feOffset dx=".5" dy="-.25"/><feGaussianBlur stdDeviation=".375"/><feComposite in2="hardAlpha" k2="-1" k3="1" operator="arithmetic"/><feColorMatrix type="matrix" values="0 0 0 0 0.666667 0 0 0 0 0.235294 0 0 0 0 0.454902 0 0 0 1 0"/><feBlend in2="shape" mode="normal" result="effect1_innerShadow_18_12833"/></filter><filter id="b" color-interpolation-filters="sRGB" filterUnits="userSpaceOnUse" height="1.05" width="20.4927" x="2.98898" y="28.335"><feFlood flood-opacity="0" result="BackgroundImageFix"/><feBlend in="SourceGraphic" in2="BackgroundImageFix" mode="normal" result="shape"/><feGaussianBlur result="effect1_foregroundBlur_18_12833" stdDeviation=".2"/></filter><filter id="c" color-interpolation-filters="sRGB" filterUnits="userSpaceOnUse" height="12.2" width="20.6" x="8.7" y="6.78999"><feFlood flood-opacity="0" result="BackgroundImageFix"/><feBlend in="SourceGraphic" in2="BackgroundImageFix" mode="normal" result="shape"/><feColorMatrix in="SourceAlpha" result="hardAlpha" type="matrix" values="0 0 0 0 0 0 0 0 0 0 0 0 0 0 0 0 0 0 127 0"/><feOffset dx=".2" dy="-.3"/><feGaussianBlur stdDeviation=".1"/><feComposite in2="hardAlpha" k2="-1" k3="1" operator="arithmetic"/><feColorMatrix type="matrix" values="0 0 0 0 0.776471 0 0 0 0 0.356863 0 0 0 0 0.34902 0 0 0 1 0"/><feBlend in2="shape" mode="normal" result="effect1_innerShadow_18_12833"/><feColorMatrix in="SourceAlpha" result="hardAlpha" type="matrix" values="0 0 0 0 0 0 0 0 0 0 0 0 0 0 0 0 0 0 127 0"/><feOffset dx=".3"/><feGaussianBlur stdDeviation=".2"/><feComposite in2="hardAlpha" k2="-1" k3="1" operator="arithmetic"/><feColorMatrix type="matrix" values="0 0 0 0 0.776471 0 0 0 0 0.356863 0 0 0 0 0.34902 0 0 0 1 0"/><feBlend in2="effect1_innerShadow_18_12833" mode="normal" result="effect2_innerShadow_18_12833"/><feColorMatrix in="SourceAlpha" result="hardAlpha" type="matrix" values="0 0 0 0 0 0 0 0 0 0 0 0 0 0 0 0 0 0 127 0"/><feOffset dx="-.3"/><feGaussianBlur stdDeviation=".15"/><feComposite in2="hardAlpha" k2="-1" k3="1" operator="arithmetic"/><feColorMatrix type="matrix" values="0 0 0 0 1 0 0 0 0 0.631373 0 0 0 0 0.368627 0 0 0 1 0"/><feBlend in2="effect2_innerShadow_18_12833" mode="normal" result="effect3_innerShadow_18_12833"/></filter><filter id="d" color-interpolation-filters="sRGB" filterUnits="userSpaceOnUse" height="5.51428" width="4.84547" x="9.15454" y="11.9999"><feFlood flood-opacity="0" result="BackgroundImageFix"/><feBlend in="SourceGraphic" in2="BackgroundImageFix" mode="normal" result="shape"/><feColorMatrix in="SourceAlpha" result="hardAlpha" type="matrix" values="0 0 0 0 0 0 0 0 0 0 0 0 0 0 0 0 0 0 127 0"/><feOffset dx="-1.5" dy=".5"/><feGaussianBlur stdDeviation=".5"/><feComposite in2="hardAlpha" k2="-1" k3="1" operator="arithmetic"/><feColorMatrix type="matrix" values="0 0 0 0 0.196078 0 0 0 0 0.647059 0 0 0 0 0.878431 0 0 0 1 0"/><feBlend in2="shape" mode="normal" result="effect1_innerShadow_18_12833"/></filter><linearGradient id="e" gradientUnits="userSpaceOnUse" x1="2.625" x2="24" y1="30" y2="30"><stop offset="0" stop-color="#ee488d"/><stop offset="1" stop-color="#fe7e4c"/></linearGradient><linearGradient id="f" gradientUnits="userSpaceOnUse" x1="7" x2="8" y1="25.7775" y2="25.7775"><stop offset="0" stop-color="#a1899d"/><stop offset="1" stop-color="#e3cee2"/></linearGradient><linearGradient id="g" gradientUnits="userSpaceOnUse" x1="7.89358" x2="7.53824" y1="24.829" y2="25.7017"><stop offset="0" stop-color="#ac75a0"/><stop offset="1" stop-color="#ac75a0" stop-opacity="0"/></linearGradient><linearGradient id="h" gradientUnits="userSpaceOnUse" x1="23.3282" x2="1.53253" y1="28.86" y2="28.86"><stop offset="0" stop-color="#ff9e5b"/><stop offset="1" stop-color="#f65487"/></linearGradient><linearGradient id="i" gradientUnits="userSpaceOnUse" x1="16.3468" x2="16.9139" y1="26.1436" y2="25.5654"><stop offset="0" stop-color="#b686a7"/><stop offset="1" stop-color="#f7ebf3"/></linearGradient><linearGradient id="j" gradientUnits="userSpaceOnUse" x1="11.9981" x2="12.9981" y1="5.49299" y2="5.49299"><stop offset="0" stop-color="#ba6f5d"/><stop offset="1" stop-color="#ff9367"/></linearGradient><linearGradient id="k" gradientUnits="userSpaceOnUse" x1="12.2012" x2="11.7554" y1="7.98999" y2="7.98999"><stop offset="0" stop-color="#a2919d"/><stop offset="1" stop-color="#a2919d" stop-opacity="0"/></linearGradient><linearGradient id="l"><stop offset="0" stop-color="#cdbebe"/><stop offset="1" stop-color="#cdbebe" stop-opacity="0"/></linearGradient><linearGradient id="m" gradientUnits="userSpaceOnUse" x1="8.46875" x2="8.46875" xlink:href="#l" y1="8.98999" y2="8.64624"/><radialGradient id="n" cx="0" cy="0" gradientTransform="matrix(-8.5625 0 0 -3.625 11.375 7.98999)" gradientUnits="userSpaceOnUse" r="1"><stop offset=".937729" stop-color="#b8afc0" stop-opacity="0"/><stop offset="1" stop-color="#b8afc0"/></radialGradient><linearGradient id="o" gradientUnits="userSpaceOnUse" x1="19.0764" x2="19.0764" xlink:href="#l" y1="8.98999" y2="8.64624"/><linearGradient id="p" gradientUnits="userSpaceOnUse" x1="28.3731" x2="16.0625" y1="12.993" y2="12.993"><stop offset="0" stop-color="#fe834b"/><stop offset="1" stop-color="#ff8346"/></linearGradient><radialGradient id="q" cx="0" cy="0" gradientTransform="matrix(-11.12491553 7.12508073 -9.16083349 -14.30348689 16.1875 15.865)" gradientUnits="userSpaceOnUse" r="1"><stop offset="0" stop-color="#ff8e53"/><stop offset="1" stop-color="#da4b77"/></radialGradient><radialGradient id="r" cx="0" cy="0" gradientTransform="matrix(14.12495303 -10.31248395 13.25895005 18.16071158 4.625 24.5525)" gradientUnits="userSpaceOnUse" r="1"><stop offset=".633364" stop-color="#ffa260" stop-opacity="0"/><stop offset="1" stop-color="#ffa260"/></radialGradient><radialGradient id="s" cx="0" cy="0" gradientTransform="matrix(-12.99996145 6.18757862 -7.9554398 -16.71419745 15.6875 16.1775)" gradientUnits="userSpaceOnUse" r="1"><stop offset=".777141" stop-color="#a63c67" stop-opacity="0"/><stop offset=".97097" stop-color="#a63c67"/></radialGradient><linearGradient id="t" gradientUnits="userSpaceOnUse" x1="11.8594" x2="12.7813" y1="7.98999" y2="7.98999"><stop offset="0" stop-color="#a2919d"/><stop offset="1" stop-color="#f5ebf2"/></linearGradient><linearGradient id="u" gradientUnits="userSpaceOnUse" x1="10.875" x2="6" y1="16.5525" y2="20.0525"><stop offset=".480475" stop-color="#32a2ce"/><stop offset="1" stop-color="#32a2ce" stop-opacity="0"/></linearGradient><radialGradient id="v" cx="0" cy="0" gradientTransform="matrix(-4.81247532 6.37501973 -1.13692271 -.85825812 6.125 10.3025)" gradientUnits="userSpaceOnUse" r="1"><stop offset="0" stop-color="#51caf2"/><stop offset="1" stop-color="#51caf2" stop-opacity="0"/></radialGradient><radialGradient id="w" cx="0" cy="0" gradientTransform="matrix(-14.6094 0 0 -29.0865 17.8125 21.3025)" gradientUnits="userSpaceOnUse" r="1"><stop offset="0" stop-color="#ffbd4d"/><stop offset=".801516" stop-color="#ee9c48"/><stop offset=".961819" stop-color="#b8753b"/></radialGradient><linearGradient id="x" gradientUnits="userSpaceOnUse" x1="11" x2="14.0313" y1="10.6462" y2="10.6462"><stop offset="0" stop-color="#c98c34"/><stop offset=".170103" stop-color="#ffc748"/><stop offset=".82732" stop-color="#ffc748"/><stop offset="1" stop-color="#fee45d"/></linearGradient><linearGradient id="y" gradientUnits="userSpaceOnUse" x1="12.5156" x2="12.5156" y1="9.94312" y2="10.2869"><stop offset="0" stop-color="#fdd244"/><stop offset="1" stop-color="#fdd244" stop-opacity="0"/></linearGradient><g filter="url(#a)"><path d="m2 29c0-.55.45-1 1-1h20c.55 0 1 .45 1 1s-.45 1-1 1h-20c-.55 0-1-.44-1-1z" fill="url(#e)"/></g><path d="m7 23.66h1v4.3427c-.39844.3271-.83559.1367-.99439 0h-.00561z" fill="url(#f)"/><path d="m7 23.66h1v4.3427c-.39844.3271-.83559.1367-.99439 0h-.00561z" fill="url(#g)"/><g filter="url(#b)"><path d="m3.51398 28.86h19.44272" stroke="url(#h)" stroke-linecap="round" stroke-width=".25"/></g><path d="m14 23.7.71-.71 4.9228 5.0078c-.2187.2656-1.063.2149-1.3337.0078h-.0022l-.0078-.0078z" fill="url(#i)"/><path d="m13 5.48999c0-.28-.22-.5-.5-.5s-.5.22-.5.5v.5h1z" fill="url(#j)"/><path d="m12 8.98999h-8c-.55 0-1-.45-1-1s.45-1 1-1h8z" fill="#d7c8d3"/><path d="m12 8.98999h-8c-.55 0-1-.45-1-1s.45-1 1-1h8z" fill="url(#k)"/><path d="m12 8.98999h-8c-.55 0-1-.45-1-1s.45-1 1-1h8z" fill="url(#m)"/><path d="m12 8.98999h-8c-.55 0-1-.45-1-1s.45-1 1-1h8z" fill="url(#n)"/><path d="m13 6.98999h9c.55 0 1 .45 1 1s-.45 1-1 1h-9z" fill="#d7c8d3"/><path d="m13 6.98999h9c.55 0 1 .45 1 1s-.45 1-1 1h-9z" fill="url(#o)"/><g filter="url(#c)"><path clip-rule="evenodd" d="m27.39 7.26999c.18-.18.42-.28.67-.28.52 0 .94.43.94.94v3.06001 1.5c0 .83-.67 1.5-1.5 1.5h-4.5l-5 5v-5h-7.5c-.83 0-1.5-.67-1.5-1.5s.67-1.5 1.5-1.5h13.17zm.61 4.72001c0 .5523-.4477 1-1 1s-1-.4477-1-1 .4477-1 1-1 1 .4477 1 1z" fill="url(#p)" fill-rule="evenodd"/></g><path d="m12.9727 10.99h-4.01564c-.70273 0-1.3246.1-1.95706.29l-5 7.71c.49191 3.39 3.41328 6 6.95706 6h4.01564c3.8851 0 7.0273-3.13 7.0273-7 0-3.86-3.1523-7-7.0273-7z" fill="url(#q)"/><path d="m12.9727 10.99h-4.01564c-.70273 0-1.3246.1-1.95706.29l-5 7.71c.49191 3.39 3.41328 6 6.95706 6h4.01564c3.8851 0 7.0273-3.13 7.0273-7 0-3.86-3.1523-7-7.0273-7z" fill="url(#r)"/><path d="m12.9727 10.99h-4.01564c-.70273 0-1.3246.1-1.95706.29l-5 7.71c.49191 3.39 3.41328 6 6.95706 6h4.01564c3.8851 0 7.0273-3.13 7.0273-7 0-3.86-3.1523-7-7.0273-7z" fill="url(#s)"/><path d="m13 5.98999h-1v4h1z" fill="url(#t)"/><path d="m1.93001 17.99c0 .34.01999.67.06999 1h8.46c.66 0 1.06-.73.7-1.29l-4.16001-6.42c-2.89.86-5.06998 3.54-5.06998 6.71z" fill="#4ecaef"/><path d="m1.93001 17.99c0 .34.01999.67.06999 1h8.46c.66 0 1.06-.73.7-1.29l-4.16001-6.42c-2.89.86-5.06998 3.54-5.06998 6.71z" fill="url(#u)"/><path d="m1.93001 17.99c0 .34.01999.67.06999 1h8.46c.66 0 1.06-.73.7-1.29l-4.16001-6.42c-2.89.86-5.06998 3.54-5.06998 6.71z" fill="url(#v)"/><g filter="url(#d)"><path d="m10.29 13.28 2.18 3.35c.45.7 1.53.38 1.53-.45v-3.35c0-.46-.37-.83-.83-.83h-2.18c-.66-.01-1.06.73-.7 1.28z" fill="#51ceff"/></g><path d="m2.60693 20.99c.36.75.8451 1.43 1.4251 2h13.85797c.59-.57 1.0881-1.25 1.4381-2z" fill="url(#w)"/><path d="m11 10.4431c0-.2761.2239-.49998.5-.49998h2.0312c.2762 0 .5.22388.5.49998v.5469h-3.0312z" fill="url(#x)"/><path d="m11 10.4431c0-.2761.2239-.49998.5-.49998h2.0312c.2762 0 .5.22388.5.49998v.5469h-3.0312z" fill="url(#y)"/></svg>