<svg fill="none" height="32" viewBox="0 0 32 32" width="32" xmlns="http://www.w3.org/2000/svg" xmlns:xlink="http://www.w3.org/1999/xlink"><filter id="a" color-interpolation-filters="sRGB" filterUnits="userSpaceOnUse" height="9.59375" width="5.11987" x="6.62756" y="20.2969"><feFlood flood-opacity="0" result="BackgroundImageFix"/><feBlend in="SourceGraphic" in2="BackgroundImageFix" mode="normal" result="shape"/><feColorMatrix in="SourceAlpha" result="hardAlpha" type="matrix" values="0 0 0 0 0 0 0 0 0 0 0 0 0 0 0 0 0 0 127 0"/><feOffset dx=".5" dy="-.25"/><feGaussianBlur stdDeviation=".25"/><feComposite in2="hardAlpha" k2="-1" k3="1" operator="arithmetic"/><feColorMatrix type="matrix" values="0 0 0 0 0.458824 0 0 0 0 0.254902 0 0 0 0 0.286275 0 0 0 1 0"/><feBlend in2="shape" mode="normal" result="effect1_innerShadow_18_25742"/></filter><filter id="b" color-interpolation-filters="sRGB" filterUnits="userSpaceOnUse" height="9.59375" width="4.86987" x="20.7526" y="20.2969"><feFlood flood-opacity="0" result="BackgroundImageFix"/><feBlend in="SourceGraphic" in2="BackgroundImageFix" mode="normal" result="shape"/><feColorMatrix in="SourceAlpha" result="hardAlpha" type="matrix" values="0 0 0 0 0 0 0 0 0 0 0 0 0 0 0 0 0 0 127 0"/><feOffset dx=".25" dy="-.25"/><feGaussianBlur stdDeviation=".25"/><feComposite in2="hardAlpha" k2="-1" k3="1" operator="arithmetic"/><feColorMatrix type="matrix" values="0 0 0 0 0.458824 0 0 0 0 0.254902 0 0 0 0 0.286275 0 0 0 1 0"/><feBlend in2="shape" mode="normal" result="effect1_innerShadow_18_25742"/></filter><filter id="c" color-interpolation-filters="sRGB" filterUnits="userSpaceOnUse" height="9.21599" width="3.7564" x="21.8751" y="20.4226"><feFlood flood-opacity="0" result="BackgroundImageFix"/><feBlend in="SourceGraphic" in2="BackgroundImageFix" mode="normal" result="shape"/><feGaussianBlur result="effect1_foregroundBlur_18_25742" stdDeviation=".3"/></filter><filter id="d" color-interpolation-filters="sRGB" filterUnits="userSpaceOnUse" height="9.08147" width="4.19634" x="6.74729" y="20.8368"><feFlood flood-opacity="0" result="BackgroundImageFix"/><feBlend in="SourceGraphic" in2="BackgroundImageFix" mode="normal" result="shape"/><feGaussianBlur result="effect1_foregroundBlur_18_25742" stdDeviation=".3"/></filter><linearGradient id="e" gradientUnits="userSpaceOnUse" x1="11.3691" x2="12.6191" y1="11.5391" y2="11.5391"><stop offset="0" stop-color="#7d4240"/><stop offset="1" stop-color="#905b58"/></linearGradient><linearGradient id="f"><stop offset="0" stop-color="#6f4239"/><stop offset="1" stop-color="#6f4239" stop-opacity="0"/></linearGradient><linearGradient id="g" gradientUnits="userSpaceOnUse" x1="11.0566" x2="11.5879" xlink:href="#f" y1="12.7969" y2="12.7969"/><radialGradient id="h" cx="0" cy="0" gradientTransform="matrix(-.14062568 1.48437363 -3.66399424 -.34711723 12.291 8.67188)" gradientUnits="userSpaceOnUse" r="1"><stop offset=".252554" stop-color="#4c1d28"/><stop offset="1" stop-color="#7a4145" stop-opacity="0"/></radialGradient><linearGradient id="i" gradientUnits="userSpaceOnUse" x1="19.3066" x2="20.5566" y1="11.5391" y2="11.5391"><stop offset="0" stop-color="#7d4240"/><stop offset=".8125" stop-color="#905b58"/></linearGradient><linearGradient id="j" gradientUnits="userSpaceOnUse" x1="18.9941" x2="19.5254" xlink:href="#f" y1="12.7969" y2="12.7969"/><radialGradient id="k" cx="0" cy="0" gradientTransform="matrix(.32812465 1.59375311 -3.93397011 .80993259 19.7598 8.5625)" gradientUnits="userSpaceOnUse" r="1"><stop offset=".332503" stop-color="#4c1d28"/><stop offset="1" stop-color="#7a4145" stop-opacity="0"/></radialGradient><linearGradient id="l" gradientUnits="userSpaceOnUse" x1="16.0098" x2="16.0098" y1="2.90625" y2="9.20312"><stop offset="0" stop-color="#925253"/><stop offset="1" stop-color="#9d5c5a"/></linearGradient><linearGradient id="m"><stop offset="0" stop-color="#602e49"/><stop offset="1" stop-color="#3e1531"/></linearGradient><radialGradient id="n" cx="0" cy="0" gradientTransform="matrix(.3750049 -5.90624689 3.47247765 .22047777 11.8379 26.5)" gradientUnits="userSpaceOnUse" r="1" xlink:href="#m"/><linearGradient id="o"><stop offset="0" stop-color="#554344"/><stop offset="1" stop-color="#554344" stop-opacity="0"/></linearGradient><linearGradient id="p" gradientUnits="userSpaceOnUse" x1="10.9785" x2="11.8066" xlink:href="#o" y1="22.4531" y2="22.4844"/><radialGradient id="q" cx="0" cy="0" gradientTransform="matrix(-1.01158213 2.72471926 -4.39845235 -1.63297403 9.94909 20.5469)" gradientUnits="userSpaceOnUse" r="1"><stop offset=".388902" stop-color="#531c30"/><stop offset="1" stop-color="#804044" stop-opacity="0"/></radialGradient><radialGradient id="r" cx="0" cy="0" gradientTransform="matrix(-.3750049 -5.90624689 3.47247765 -.22047777 20.1426 26.5)" gradientUnits="userSpaceOnUse" r="1" xlink:href="#m"/><linearGradient id="s" gradientUnits="userSpaceOnUse" x1="21.002" x2="20.1738" xlink:href="#o" y1="22.4531" y2="22.4844"/><radialGradient id="t" cx="0" cy="0" gradientTransform="matrix(.84821722 2.01204642 -3.24799818 1.36925668 21.6268 20.7861)" gradientUnits="userSpaceOnUse" r="1"><stop offset=".282632" stop-color="#531c30"/><stop offset="1" stop-color="#804044" stop-opacity="0"/></radialGradient><linearGradient id="u" gradientUnits="userSpaceOnUse" x1="7.46375" x2="9.79132" y1="28.9321" y2="20.8248"><stop offset=".487259" stop-color="#9d6c67"/><stop offset="1" stop-color="#9d6c67" stop-opacity="0"/></linearGradient><linearGradient id="v" gradientUnits="userSpaceOnUse" x1="16" x2="16" y1="13.9844" y2="21.1563"><stop offset=".220044" stop-color="#8a4c40"/><stop offset=".877996" stop-color="#9b5c4c"/></linearGradient><linearGradient id="w" gradientUnits="userSpaceOnUse" x1="6.97534" x2="9.68164" y1="19.9703" y2="19.9703"><stop offset="0" stop-color="#825257"/><stop offset="1" stop-color="#825257" stop-opacity="0"/></linearGradient><linearGradient id="x" gradientUnits="userSpaceOnUse" x1="3.40039" x2="26.9316" y1="20.6262" y2="20.6262"><stop offset=".136122" stop-color="#af736c" stop-opacity="0"/><stop offset=".420601" stop-color="#af736c"/><stop offset=".805445" stop-color="#af736c"/><stop offset=".90073" stop-color="#af736c" stop-opacity="0"/></linearGradient><path d="m11.0566 7.86719h1.92969v7.34375h-1.92969z" fill="url(#e)"/><path d="m11.0566 7.86719h1.92969v7.34375h-1.92969z" fill="url(#g)"/><path d="m11.0566 7.86719h1.92969v7.34375h-1.92969z" fill="url(#h)"/><path d="m18.9941 7.86719h1.92969v7.34375h-1.92969z" fill="url(#i)"/><path d="m18.9941 7.86719h1.92969v7.34375h-1.92969z" fill="url(#j)"/><path d="m18.9941 7.86719h1.92969v7.34375h-1.92969z" fill="url(#k)"/><path d="m8.97852 4.65625c0-.9665.7835-1.75 1.74998-1.75h10.5625c.9665 0 1.75.7835 1.75 1.75v1.29687c0 1.79493-1.4551 3.25-3.25 3.25h-7.5625c-1.7949 0-3.24998-1.45507-3.24998-3.25z" fill="url(#l)"/><path d="m10.9785 20.1875h2.0703l-.5911 6.2675c-.0325.3444-.3216.6075-.6675.6075-.3644 0-.662-.291-.6703-.6552z" fill="url(#n)"/><path d="m10.9785 20.1875h2.0703l-.5911 6.2675c-.0325.3444-.3216.6075-.6675.6075-.3644 0-.662-.291-.6703-.6552z" fill="url(#p)"/><g filter="url(#a)"><path d="m8.23918 29.3366 3.00822-8.7897h-2.84371l-1.75803 8.3436c-.10859.5154.28463 1.0001.81134 1.0001.35188 0 .66543-.2221.78218-.554z" fill="#803f44"/><path d="m8.23918 29.3366 3.00822-8.7897h-2.84371l-1.75803 8.3436c-.10859.5154.28463 1.0001.81134 1.0001.35188 0 .66543-.2221.78218-.554z" fill="url(#q)"/></g><path d="m21.002 20.1875h-2.0704l.5912 6.2675c.0325.3444.3216.6075.6675.6075.3643 0 .662-.291.6703-.6552z" fill="url(#r)"/><path d="m21.002 20.1875h-2.0704l.5912 6.2675c.0325.3444.3216.6075.6675.6075.3643 0 .662-.291.6703-.6552z" fill="url(#s)"/><g filter="url(#b)"><path d="m23.7608 29.3366-3.0082-8.7897h2.8437l1.758 8.3436c.1086.5154-.2846 1.0001-.8113 1.0001-.3519 0-.6654-.2221-.7822-.554z" fill="#803f44"/><path d="m23.7608 29.3366-3.0082-8.7897h2.8437l1.758 8.3436c.1086.5154-.2846 1.0001-.8113 1.0001-.3519 0-.6654-.2221-.7822-.554z" fill="url(#t)"/></g><g filter="url(#c)"><path d="m22.475 21.0228.8088-.0002 1.7416 7.7128c.0297.1317-.0511.263-.1821.2958-.1319.0329-.2658-.0462-.3005-.1776z" fill="#9d6c67"/></g><g filter="url(#d)"><path d="m10.3436 21.437-.80876-.0002-2.17786 7.5649c-.03883.1348.04195.275.17812.3091.12631.0316.25552-.0399.29586-.1637z" fill="url(#u)"/></g><path d="m9.49991 14.6301c.28021-.4044.74099-.6457 1.23299-.6457h10.4338c.4806 0 .932.2302 1.2142.6191l2.2206 3.0609c1.0551 1.4544.0161 3.4919-1.7808 3.4919h-13.64156c-1.77499 0-2.81924-1.9939-1.80839-3.4529z" fill="url(#v)"/><path d="m6.98158 18.7853c-.0918 1.2025.83874 2.371 2.19763 2.371h13.64149c1.3625 0 2.2894-1.1715 2.1977-2.372-.0817 1.0771-.9599 2.0439-2.1977 2.0439h-13.64149c-1.23462 0-2.11572-.9646-2.19763-2.0429z" fill="#903f64"/><path d="m6.98158 18.7853c-.0918 1.2025.83874 2.371 2.19763 2.371h13.64149c1.3625 0 2.2894-1.1715 2.1977-2.372-.0817 1.0771-.9599 2.0439-2.1977 2.0439h-13.64149c-1.23462 0-2.11572-.9646-2.19763-2.0429z" fill="url(#w)"/><path d="m6.98157 18.7853c.08191 1.0783.96301 2.0429 2.19763 2.0429h13.6415c1.2378 0 2.1159-.9668 2.1977-2.0439" stroke="url(#x)" stroke-width=".1"/></svg>