<svg fill="none" height="32" viewBox="0 0 32 32" width="32" xmlns="http://www.w3.org/2000/svg" xmlns:xlink="http://www.w3.org/1999/xlink"><filter id="a" color-interpolation-filters="sRGB" filterUnits="userSpaceOnUse" height="16.349" width="14.1233" x="9.36304" y="5.49429"><feFlood flood-opacity="0" result="BackgroundImageFix"/><feBlend in="SourceGraphic" in2="BackgroundImageFix" mode="normal" result="shape"/><feColorMatrix in="SourceAlpha" result="hardAlpha" type="matrix" values="0 0 0 0 0 0 0 0 0 0 0 0 0 0 0 0 0 0 127 0"/><feOffset dx=".75"/><feGaussianBlur stdDeviation=".6"/><feComposite in2="hardAlpha" k2="-1" k3="1" operator="arithmetic"/><feColorMatrix type="matrix" values="0 0 0 0 0.843137 0 0 0 0 0.611765 0 0 0 0 0.498039 0 0 0 1 0"/><feBlend in2="shape" mode="normal" result="effect1_innerShadow_3987_21853"/><feColorMatrix in="SourceAlpha" result="hardAlpha" type="matrix" values="0 0 0 0 0 0 0 0 0 0 0 0 0 0 0 0 0 0 127 0"/><feOffset dy=".2"/><feGaussianBlur stdDeviation=".375"/><feComposite in2="hardAlpha" k2="-1" k3="1" operator="arithmetic"/><feColorMatrix type="matrix" values="0 0 0 0 0.776471 0 0 0 0 0.54902 0 0 0 0 0.423529 0 0 0 1 0"/><feBlend in2="effect1_innerShadow_3987_21853" mode="normal" result="effect2_innerShadow_3987_21853"/></filter><filter id="b" color-interpolation-filters="sRGB" filterUnits="userSpaceOnUse" height="5.69461" width="4.29553" x="13.4888" y="11.5903"><feFlood flood-opacity="0" result="BackgroundImageFix"/><feBlend in="SourceGraphic" in2="BackgroundImageFix" mode="normal" result="shape"/><feGaussianBlur result="effect1_foregroundBlur_3987_21853" stdDeviation=".5"/></filter><filter id="c" color-interpolation-filters="sRGB" filterUnits="userSpaceOnUse" height="3.99468" width="2.65636" x="14.6599" y="12.134"><feFlood flood-opacity="0" result="BackgroundImageFix"/><feBlend in="SourceGraphic" in2="BackgroundImageFix" mode="normal" result="shape"/><feGaussianBlur result="effect1_foregroundBlur_3987_21853" stdDeviation=".05"/></filter><filter id="d" color-interpolation-filters="sRGB" filterUnits="userSpaceOnUse" height="10.7802" width="16.8438" x="7.56628" y="1.49219"><feFlood flood-opacity="0" result="BackgroundImageFix"/><feBlend in="SourceGraphic" in2="BackgroundImageFix" mode="normal" result="shape"/><feColorMatrix in="SourceAlpha" result="hardAlpha" type="matrix" values="0 0 0 0 0 0 0 0 0 0 0 0 0 0 0 0 0 0 127 0"/><feOffset dy="-.5"/><feGaussianBlur stdDeviation=".625"/><feComposite in2="hardAlpha" k2="-1" k3="1" operator="arithmetic"/><feColorMatrix type="matrix" values="0 0 0 0 0.913725 0 0 0 0 0.733333 0 0 0 0 0.592157 0 0 0 1 0"/><feBlend in2="shape" mode="normal" result="effect1_innerShadow_3987_21853"/><feColorMatrix in="SourceAlpha" result="hardAlpha" type="matrix" values="0 0 0 0 0 0 0 0 0 0 0 0 0 0 0 0 0 0 127 0"/><feOffset dy="-.2"/><feGaussianBlur stdDeviation=".2"/><feComposite in2="hardAlpha" k2="-1" k3="1" operator="arithmetic"/><feColorMatrix type="matrix" values="0 0 0 0 0.87451 0 0 0 0 0.678431 0 0 0 0 0.556863 0 0 0 1 0"/><feBlend in2="effect1_innerShadow_3987_21853" mode="normal" result="effect2_innerShadow_3987_21853"/></filter><filter id="e" color-interpolation-filters="sRGB" filterUnits="userSpaceOnUse" height="8.18597" width="8.9613" x="7.85852" y="2.58984"><feFlood flood-opacity="0" result="BackgroundImageFix"/><feBlend in="SourceGraphic" in2="BackgroundImageFix" mode="normal" result="shape"/><feGaussianBlur result="effect1_foregroundBlur_3987_21853" stdDeviation=".25"/></filter><filter id="f" color-interpolation-filters="sRGB" filterUnits="userSpaceOnUse" height="7.92883" width="8.74298" x="15.5339" y="3.20438"><feFlood flood-opacity="0" result="BackgroundImageFix"/><feBlend in="SourceGraphic" in2="BackgroundImageFix" mode="normal" result="shape"/><feGaussianBlur result="effect1_foregroundBlur_3987_21853" stdDeviation=".25"/></filter><filter id="g" color-interpolation-filters="sRGB" filterUnits="userSpaceOnUse" height=".849414" width=".967883" x="17.9135" y="11.8252"><feFlood flood-opacity="0" result="BackgroundImageFix"/><feBlend in="SourceGraphic" in2="BackgroundImageFix" mode="normal" result="shape"/><feGaussianBlur result="effect1_foregroundBlur_3987_21853" stdDeviation=".05"/></filter><filter id="h" color-interpolation-filters="sRGB" filterUnits="userSpaceOnUse" height="1.07178" width="1.04276" x="19.0434" y="11.9543"><feFlood flood-opacity="0" result="BackgroundImageFix"/><feBlend in="SourceGraphic" in2="BackgroundImageFix" mode="normal" result="shape"/><feGaussianBlur result="effect1_foregroundBlur_3987_21853" stdDeviation=".1"/></filter><filter id="i" color-interpolation-filters="sRGB" filterUnits="userSpaceOnUse" height="1.23771" width="1.16721" x="13.2302" y="11.8713"><feFlood flood-opacity="0" result="BackgroundImageFix"/><feBlend in="SourceGraphic" in2="BackgroundImageFix" mode="normal" result="shape"/><feGaussianBlur result="effect1_foregroundBlur_3987_21853" stdDeviation=".1"/></filter><filter id="j" color-interpolation-filters="sRGB" filterUnits="userSpaceOnUse" height=".860126" width="1.13311" x="12.2115" y="11.8146"><feFlood flood-opacity="0" result="BackgroundImageFix"/><feBlend in="SourceGraphic" in2="BackgroundImageFix" mode="normal" result="shape"/><feGaussianBlur result="effect1_foregroundBlur_3987_21853" stdDeviation=".05"/></filter><filter id="k" color-interpolation-filters="sRGB" filterUnits="userSpaceOnUse" height="2.95911" width="1.58459" x="8.17163" y="11.7515"><feFlood flood-opacity="0" result="BackgroundImageFix"/><feBlend in="SourceGraphic" in2="BackgroundImageFix" mode="normal" result="shape"/><feGaussianBlur result="effect1_foregroundBlur_3987_21853" stdDeviation=".125"/></filter><filter id="l" color-interpolation-filters="sRGB" filterUnits="userSpaceOnUse" height="2.99051" width="1.73853" x="22.2307" y="11.7309"><feFlood flood-opacity="0" result="BackgroundImageFix"/><feBlend in="SourceGraphic" in2="BackgroundImageFix" mode="normal" result="shape"/><feGaussianBlur result="effect1_foregroundBlur_3987_21853" stdDeviation=".125"/></filter><filter id="m" color-interpolation-filters="sRGB" filterUnits="userSpaceOnUse" height="1.53811" width="2.93917" x="17.966" y="9.27411"><feFlood flood-opacity="0" result="BackgroundImageFix"/><feBlend in="SourceGraphic" in2="BackgroundImageFix" mode="normal" result="shape"/><feColorMatrix in="SourceAlpha" result="hardAlpha" type="matrix" values="0 0 0 0 0 0 0 0 0 0 0 0 0 0 0 0 0 0 127 0"/><feOffset dx=".1" dy="-.1"/><feGaussianBlur stdDeviation=".1"/><feComposite in2="hardAlpha" k2="-1" k3="1" operator="arithmetic"/><feColorMatrix type="matrix" values="0 0 0 0 0.517647 0 0 0 0 0.313726 0 0 0 0 0.219608 0 0 0 1 0"/><feBlend in2="shape" mode="normal" result="effect1_innerShadow_3987_21853"/></filter><filter id="n" color-interpolation-filters="sRGB" filterUnits="userSpaceOnUse" height="1.53811" width="2.93917" x="11.468" y="9.27411"><feFlood flood-opacity="0" result="BackgroundImageFix"/><feBlend in="SourceGraphic" in2="BackgroundImageFix" mode="normal" result="shape"/><feColorMatrix in="SourceAlpha" result="hardAlpha" type="matrix" values="0 0 0 0 0 0 0 0 0 0 0 0 0 0 0 0 0 0 127 0"/><feOffset dx=".1" dy="-.1"/><feGaussianBlur stdDeviation=".1"/><feComposite in2="hardAlpha" k2="-1" k3="1" operator="arithmetic"/><feColorMatrix type="matrix" values="0 0 0 0 0.517647 0 0 0 0 0.313726 0 0 0 0 0.219608 0 0 0 1 0"/><feBlend in2="shape" mode="normal" result="effect1_innerShadow_3987_21853"/></filter><filter id="o" color-interpolation-filters="sRGB" filterUnits="userSpaceOnUse" height="1.53809" width="2.93915" x="17.916" y="9.26163"><feFlood flood-opacity="0" result="BackgroundImageFix"/><feBlend in="SourceGraphic" in2="BackgroundImageFix" mode="normal" result="shape"/><feGaussianBlur result="effect1_foregroundBlur_3987_21853" stdDeviation=".125"/></filter><filter id="p" color-interpolation-filters="sRGB" filterUnits="userSpaceOnUse" height="1.53809" width="2.93915" x="11.418" y="9.26163"><feFlood flood-opacity="0" result="BackgroundImageFix"/><feBlend in="SourceGraphic" in2="BackgroundImageFix" mode="normal" result="shape"/><feGaussianBlur result="effect1_foregroundBlur_3987_21853" stdDeviation=".125"/></filter><radialGradient id="q" cx="0" cy="0" gradientTransform="matrix(22.48094706 13.37497053 -13.60260088 22.86355321 6.01904 19.125)" gradientUnits="userSpaceOnUse" r="1"><stop offset="0" stop-color="#e64d21"/><stop offset=".648852" stop-color="#ff5b22"/></radialGradient><radialGradient id="r" cx="0" cy="0" gradientTransform="matrix(-8.35573515 2.66504845 -4.86861441 -15.26458275 25.25 26.125)" gradientUnits="userSpaceOnUse" r="1"><stop offset=".24871" stop-color="#ff7c45"/><stop offset="1" stop-color="#ff7c45" stop-opacity="0"/></radialGradient><linearGradient id="s" gradientUnits="userSpaceOnUse" x1="16.5937" x2="16.625" y1="30.6562" y2="29.1562"><stop offset="0" stop-color="#c63925"/><stop offset="1" stop-color="#c63925" stop-opacity="0"/></linearGradient><linearGradient id="t" gradientUnits="userSpaceOnUse" x1="18.8125" x2="16.2941" y1="23.0625" y2="23.0625"><stop offset=".168402" stop-color="#f1a98c"/><stop offset="1" stop-color="#f1a98c" stop-opacity="0"/></linearGradient><radialGradient id="u" cx="0" cy="0" gradientTransform="matrix(.68750055 3.6250019 -7.58312567 1.4381794 14.875 20.25)" gradientUnits="userSpaceOnUse" r="1"><stop offset=".379444" stop-color="#c2736e"/><stop offset=".847422" stop-color="#c2736e" stop-opacity="0"/></radialGradient><radialGradient id="v" cx="0" cy="0" gradientTransform="matrix(-1.00886785 4.14514433 -4.92411451 -1.19845787 23.2476 14.8005)" gradientUnits="userSpaceOnUse" r="1"><stop offset=".28005" stop-color="#ffdcaf"/><stop offset="1" stop-color="#d89e98"/></radialGradient><radialGradient id="w" cx="0" cy="0" gradientTransform="matrix(.42767316 .36187783 -.46606258 .55080042 22.355 15.3331)" gradientUnits="userSpaceOnUse" r="1"><stop offset="0" stop-color="#e6b489"/><stop offset="1" stop-color="#e6b489" stop-opacity="0"/></radialGradient><radialGradient id="x" cx="0" cy="0" gradientTransform="matrix(1.66682884 3.50911621 -1.59505282 .75764947 8.7286 14.954)" gradientUnits="userSpaceOnUse" r="1"><stop offset="0" stop-color="#f8bf95"/><stop offset="1" stop-color="#dc998e"/></radialGradient><radialGradient id="y" cx="0" cy="0" gradientTransform="matrix(.23461252 1.56184716 -1.37006878 .20580457 9.77701 14.6861)" gradientUnits="userSpaceOnUse" r="1"><stop offset=".263377" stop-color="#d79b77"/><stop offset="1" stop-color="#d79b77" stop-opacity="0"/></radialGradient><radialGradient id="z" cx="0" cy="0" gradientTransform="matrix(-6.84058 0 0 -12.1009 19.662 13.5688)" gradientUnits="userSpaceOnUse" r="1"><stop offset="0" stop-color="#ffc59f"/><stop offset="1" stop-color="#c8917d"/></radialGradient><linearGradient id="A" gradientUnits="userSpaceOnUse" x1="22.7363" x2="17.0409" y1="15.7742" y2="15.7742"><stop offset="0" stop-color="#f7c29d"/><stop offset="1" stop-color="#f7c29d" stop-opacity="0"/></linearGradient><radialGradient id="B" cx="0" cy="0" gradientTransform="matrix(-1.49558696 16.96199259 -14.0465038 -1.23852005 18.0576 5.83106)" gradientUnits="userSpaceOnUse" r="1"><stop offset=".777698" stop-color="#b36e91" stop-opacity="0"/><stop offset="1" stop-color="#b36e91"/></radialGradient><radialGradient id="C" cx="0" cy="0" gradientTransform="matrix(0 -1.75456 2.17127 0 19.1903 12.1028)" gradientUnits="userSpaceOnUse" r="1"><stop offset=".325" stop-color="#e4a38d"/><stop offset="1" stop-color="#e4a38d" stop-opacity="0"/></radialGradient><radialGradient id="D" cx="0" cy="0" gradientTransform="matrix(-.07597623 -1.44378233 1.57117607 -.08268007 13.0595 11.9237)" gradientUnits="userSpaceOnUse" r="1"><stop offset=".377617" stop-color="#c2847c"/><stop offset="1" stop-color="#c2847c" stop-opacity="0"/></radialGradient><radialGradient id="E" cx="0" cy="0" gradientTransform="matrix(1.5791 0 0 8.02623 9.60167 14.072)" gradientUnits="userSpaceOnUse" r="1"><stop offset="0" stop-color="#dba085"/><stop offset="1" stop-color="#dba085" stop-opacity="0"/></radialGradient><radialGradient id="F" cx="0" cy="0" gradientTransform="matrix(3.42139512 -4.78117517 1.08294421 .77495174 8.32961 9.64177)" gradientUnits="userSpaceOnUse" r="1"><stop offset=".450932" stop-color="#b67459"/><stop offset="1" stop-color="#b67459" stop-opacity="0"/></radialGradient><radialGradient id="G" cx="0" cy="0" gradientTransform="matrix(-3.15817181 -13.40283913 14.76357299 -3.47880771 15.7865 18.8971)" gradientUnits="userSpaceOnUse" r="1"><stop offset=".92388" stop-color="#c17f5f" stop-opacity="0"/><stop offset="1" stop-color="#c17f5f"/></radialGradient><radialGradient id="H" cx="0" cy="0" gradientTransform="matrix(2.67570538 .9430783 -.56574593 1.60513652 18.5499 6.52743)" gradientUnits="userSpaceOnUse" r="1"><stop offset=".258114" stop-color="#c17f5f"/><stop offset="1" stop-color="#c17f5f" stop-opacity="0"/></radialGradient><linearGradient id="I" gradientUnits="userSpaceOnUse" x1="15.9881" x2="17.1066" y1="14.6531" y2="14.6531"><stop offset="0" stop-color="#e1aa8c"/><stop offset="1" stop-color="#fecaa8"/></linearGradient><linearGradient id="J" gradientUnits="userSpaceOnUse" x1="14.5844" x2="15.9899" y1="14.4496" y2="14.5271"><stop offset="0" stop-color="#d29879" stop-opacity=".915033"/><stop offset=".203125" stop-color="#d29879"/><stop offset="1" stop-color="#d29879" stop-opacity="0"/></linearGradient><linearGradient id="K" gradientUnits="userSpaceOnUse" x1="15.9881" x2="15.9881" y1="15.1749" y2="16.2896"><stop offset="0" stop-color="#cb8685" stop-opacity="0"/><stop offset=".844655" stop-color="#cb8685"/></linearGradient><linearGradient id="L" gradientUnits="userSpaceOnUse" x1="15.9881" x2="15.9881" y1="12.234" y2="12.7827"><stop offset="0" stop-color="#e0a78c"/><stop offset="1" stop-color="#e0a78c" stop-opacity="0"/></linearGradient><linearGradient id="M" gradientUnits="userSpaceOnUse" x1="16.1592" x2="16.1592" y1="16.0569" y2="15.9801"><stop offset="0" stop-color="#c27b78"/><stop offset="1" stop-color="#c27b78" stop-opacity="0"/></linearGradient><radialGradient id="N" cx="0" cy="0" gradientTransform="matrix(-2.40704551 2.39606375 -1.52294447 -1.52992451 17.3216 13.4689)" gradientUnits="userSpaceOnUse" r="1"><stop offset=".940127" stop-color="#c27b78" stop-opacity="0"/><stop offset="1" stop-color="#c27b78"/></radialGradient><linearGradient id="O" gradientUnits="userSpaceOnUse" x1="23.0064" x2="9.75948" y1="6.15927" y2="6.15927"><stop offset="0" stop-color="#fff6b9"/><stop offset="1" stop-color="#e7c991"/></linearGradient><radialGradient id="P" cx="0" cy="0" gradientTransform="matrix(0 -4.75329 8.42188 0 9.14539 11.4988)" gradientUnits="userSpaceOnUse" r="1"><stop offset="0" stop-color="#e7b286"/><stop offset="1" stop-color="#e7b286" stop-opacity="0"/></radialGradient><radialGradient id="Q" cx="0" cy="0" gradientTransform="matrix(0 -4.75329 8.42188 0 22.3484 11.4988)" gradientUnits="userSpaceOnUse" r="1"><stop offset="0" stop-color="#f6cb9c"/><stop offset="1" stop-color="#f6cb9c" stop-opacity="0"/></radialGradient><radialGradient id="R" cx="0" cy="0" gradientTransform="matrix(-4.25480349 -1.62296485 .86433767 -2.26596832 21.3615 3.28617)" gradientUnits="userSpaceOnUse" r="1"><stop offset="0" stop-color="#ffffc1"/><stop offset="1" stop-color="#ffffc1" stop-opacity="0"/></radialGradient><radialGradient id="S" cx="0" cy="0" gradientTransform="matrix(1.18432866 1.93001647 -4.46900895 2.74234727 14.8038 1.20264)" gradientUnits="userSpaceOnUse" r="1"><stop offset=".286771" stop-color="#ddca94"/><stop offset="1" stop-color="#ddca94" stop-opacity="0"/></radialGradient><radialGradient id="T" cx="0" cy="0" gradientTransform="matrix(-4.98130288 1.79730874 -.50023384 -1.38641527 16.3198 3.08984)" gradientUnits="userSpaceOnUse" r="1"><stop offset="0" stop-color="#fffcbe"/><stop offset="1" stop-color="#fffcbe" stop-opacity="0"/></radialGradient><radialGradient id="U" cx="0" cy="0" gradientTransform="matrix(4.21093542 -6.66732583 7.38671041 4.6652828 8.88216 9.31746)" gradientUnits="userSpaceOnUse" r="1"><stop offset=".0926981" stop-color="#d5a088"/><stop offset=".233498" stop-color="#e4b99b"/><stop offset="1" stop-color="#e4b99b" stop-opacity="0"/></radialGradient><radialGradient id="V" cx="0" cy="0" gradientTransform="matrix(4.43026152 1.04787362 -.58604275 2.47770586 20.7255 4.6081)" gradientUnits="userSpaceOnUse" r="1"><stop offset="0" stop-color="#ffffc7"/><stop offset="1" stop-color="#ffffc7" stop-opacity="0"/></radialGradient><radialGradient id="W" cx="0" cy="0" gradientTransform="matrix(-2.81142144 -4.84625183 2.70271504 -1.56790676 22.6994 10.6332)" gradientUnits="userSpaceOnUse" r="1"><stop offset="0" stop-color="#e3b593"/><stop offset="1" stop-color="#e4b78d" stop-opacity="0"/></radialGradient><radialGradient id="X" cx="0" cy="0" gradientTransform="matrix(-1.71067485 -2.88167763 2.06401894 -1.22528116 21.8879 10.2404)" gradientUnits="userSpaceOnUse" r="1"><stop offset=".0574152" stop-color="#dfb086"/><stop offset="1" stop-color="#dfb086" stop-opacity="0"/></radialGradient><radialGradient id="Y" cx="0" cy="0" gradientTransform="matrix(-6.27868341 1.50633546 -1.62840816 -6.78750488 22.2607 4.45528)" gradientUnits="userSpaceOnUse" r="1"><stop offset=".651546" stop-color="#ebcd93" stop-opacity="0"/><stop offset="1" stop-color="#ebcd93"/></radialGradient><radialGradient id="Z" cx="0" cy="0" gradientTransform="matrix(-.15352846 .50210628 -2.29556594 -.70191256 20.5062 4.29155)" gradientUnits="userSpaceOnUse" r="1"><stop offset=".461072" stop-color="#ffed93"/><stop offset="1" stop-color="#ffed93" stop-opacity="0"/></radialGradient><radialGradient id="aa" cx="0" cy="0" gradientTransform="matrix(-2.60986515 4.91278553 -12.66870397 -6.73011449 20.5019 3.2157)" gradientUnits="userSpaceOnUse" r="1"><stop offset=".651289" stop-color="#e1b395" stop-opacity="0"/><stop offset="1" stop-color="#e1b395"/></radialGradient><linearGradient id="ab"><stop offset=".80198" stop-color="#925c51"/><stop offset="1" stop-color="#694b43"/><stop offset="1" stop-color="#804d49"/><stop offset="1" stop-color="#85534d"/></linearGradient><radialGradient id="ac" cx="0" cy="0" gradientTransform="matrix(0 1.0616 -1.6886 0 18.8434 12.3699)" gradientUnits="userSpaceOnUse" r="1" xlink:href="#ab"/><linearGradient id="ad"><stop offset=".765532" stop-color="#ffe6e2" stop-opacity="0"/><stop offset=".966159" stop-color="#ffe6e2"/></linearGradient><radialGradient id="ae" cx="0" cy="0" gradientTransform="matrix(-.30346171 -.39105133 .53838419 -.41779422 18.5447 12.48)" gradientUnits="userSpaceOnUse" r="1" xlink:href="#ad"/><linearGradient id="af"><stop offset="0" stop-color="#b4948d"/><stop offset="1" stop-color="#b4948d" stop-opacity="0"/></linearGradient><linearGradient id="ag" gradientUnits="userSpaceOnUse" x1="19.8613" x2="19.4508" xlink:href="#af" y1="12.4404" y2="12.6934"/><radialGradient id="ah" cx="0" cy="0" gradientTransform="matrix(0 1.06166 -1.68868 0 13.1331 12.3699)" gradientUnits="userSpaceOnUse" r="1" xlink:href="#ab"/><linearGradient id="ai" gradientUnits="userSpaceOnUse" x1="14.1065" x2="13.6959" xlink:href="#af" y1="12.4404" y2="12.6934"/><radialGradient id="aj" cx="0" cy="0" gradientTransform="matrix(-.01012222 -.64650276 .77712275 -.01216732 12.7583 12.6567)" gradientUnits="userSpaceOnUse" r="1" xlink:href="#ad"/><linearGradient id="ak" gradientUnits="userSpaceOnUse" x1="24.4101" x2="22.831" y1="12.4757" y2="15.3232"><stop offset="0" stop-color="#f8c5a2"/><stop offset="1" stop-color="#e0a48c"/></linearGradient><radialGradient id="al" cx="0" cy="0" gradientTransform="matrix(.822449 2.9352946 -2.80050566 .78468208 22.0305 12.3879)" gradientUnits="userSpaceOnUse" r="1"><stop offset=".856273" stop-color="#ce8d79" stop-opacity="0"/><stop offset="1" stop-color="#ce8d79"/></radialGradient><radialGradient id="am" cx="0" cy="0" gradientTransform="matrix(1.03080516 -1.41461332 1.18572485 .86401795 22.502 13.1007)" gradientUnits="userSpaceOnUse" r="1"><stop offset=".663731" stop-color="#e3a17b"/><stop offset="1" stop-color="#e3a17b" stop-opacity="0"/></radialGradient><linearGradient id="an" gradientUnits="userSpaceOnUse" x1="8.3339" x2="10.242" y1="13.3968" y2="13.2302"><stop offset="0" stop-color="#c48874"/><stop offset="1" stop-color="#bd776c"/></linearGradient><radialGradient id="ao" cx="0" cy="0" gradientTransform="matrix(-2.19173735 -.32052128 .31510221 -2.1546815 9.55631 13.2302)" gradientUnits="userSpaceOnUse" r="1"><stop offset=".77507" stop-color="#dca187" stop-opacity="0"/><stop offset="1" stop-color="#c77937"/><stop offset="1" stop-color="#dca187"/></radialGradient><linearGradient id="ap"><stop offset="0" stop-color="#e7b19e"/><stop offset="1" stop-color="#e7b19e" stop-opacity="0"/></linearGradient><radialGradient id="aq" cx="0" cy="0" gradientTransform="matrix(.20312497 -.49669896 1.18463833 .48445767 16.9844 17.8836)" gradientUnits="userSpaceOnUse" r="1" xlink:href="#ap"/><radialGradient id="ar" cx="0" cy="0" gradientTransform="matrix(.28906263 -.31330903 .21444991 .19785404 14.4141 17.8836)" gradientUnits="userSpaceOnUse" r="1" xlink:href="#ap"/><path d="m26.019 30v-.3839c0-5.3051-4.4744-9.6161-10-9.6161-5.5255.0098-9.99996 4.311-9.99996 9.6161v.3839z" fill="url(#q)"/><path d="m26.019 30v-.3839c0-5.3051-4.4744-9.6161-10-9.6161-5.5255.0098-9.99996 4.311-9.99996 9.6161v.3839z" fill="url(#r)"/><path d="m26.019 30v-.3839c0-5.3051-4.4744-9.6161-10-9.6161-5.5255.0098-9.99996 4.311-9.99996 9.6161v.3839z" fill="url(#s)"/><path d="m16.019 24.5c-1.3825 0-2.5-1.194-2.5-2.6714v-3.1572c0-1.4774 1.1175-2.6714 2.5-2.6714 1.3826 0 2.5 1.194 2.5 2.6714v3.1572c0 1.4774-1.1174 2.6714-2.5 2.6714z" fill="#d69582"/><path d="m16.019 24.5c-1.3825 0-2.5-1.194-2.5-2.6714v-3.1572c0-1.4774 1.1175-2.6714 2.5-2.6714 1.3826 0 2.5 1.194 2.5 2.6714v3.1572c0 1.4774-1.1174 2.6714-2.5 2.6714z" fill="url(#t)"/><path d="m16.019 24.5c-1.3825 0-2.5-1.194-2.5-2.6714v-3.1572c0-1.4774 1.1175-2.6714 2.5-2.6714 1.3826 0 2.5 1.194 2.5 2.6714v3.1572c0 1.4774-1.1174 2.6714-2.5 2.6714z" fill="url(#u)"/><path d="m22.3491 15.2042c.4386-.0142.8494-.1629 1.1836-.4037v1.2182c0 1.1686-.6962 2.2098-1.7545 2.6418.2228-.4745.3759-.9916.4525-1.544z" fill="url(#v)"/><path d="m22.3491 15.2042c.4386-.0142.8494-.1629 1.1836-.4037v1.2182c0 1.1686-.6962 2.2098-1.7545 2.6418.2228-.4745.3759-.9916.4525-1.544z" fill="url(#w)"/><path d="m9.62711 15.2042c-.43864-.0142-.84943-.1629-1.18363-.4037v1.2182c0 1.1686.69626 2.2098 1.75452 2.6418-.22276-.4745-.37594-.9916-.45252-1.544z" fill="url(#x)"/><path d="m9.62711 15.2042c-.43864-.0142-.84943-.1629-1.18363-.4037v1.2182c0 1.1686.69626 2.2098 1.75452 2.6418-.22276-.4745-.37594-.9916-.45252-1.544z" fill="url(#y)"/><g filter="url(#a)"><path d="m9.67483 17.1867c.33657 2.5546 2.51067 4.4566 5.08437 4.4566h2.4686c2.5737 0 4.7478-1.902 5.0844-4.4566.1543-2.4648.3096-4.9197.4241-7.38321-.0139-1.00361-.805-1.83176-1.8044-1.87387h-1.8321c-1.2492 0-2.3804-.73691-2.894-1.88791-.1318-.32985-.4511-.54742-.805-.54742h-1.6656c-2.4151 0-4.37216 1.97914-4.37216 4.42148 0 2.43473.15208 4.83003.31179 7.27093z" fill="url(#z)"/></g><path d="m9.67483 17.1867c.33657 2.5546 2.51067 4.4566 5.08437 4.4566h2.4686c2.5737 0 4.7478-1.902 5.0844-4.4566.1543-2.4648.3096-4.9197.4241-7.38321-.0139-1.00361-.805-1.83176-1.8044-1.87387h-1.8321c-1.2492 0-2.3804-.73691-2.894-1.88791-.1318-.32985-.4511-.54742-.805-.54742h-1.6656c-2.4151 0-4.37216 1.97914-4.37216 4.42148 0 2.43473.15208 4.83003.31179 7.27093z" fill="url(#A)"/><path d="m9.67483 17.1867c.33657 2.5546 2.51067 4.4566 5.08437 4.4566h2.4686c2.5737 0 4.7478-1.902 5.0844-4.4566.1543-2.4648.3096-4.9197.4241-7.38321-.0139-1.00361-.805-1.83176-1.8044-1.87387h-1.8321c-1.2492 0-2.3804-.73691-2.894-1.88791-.1318-.32985-.4511-.54742-.805-.54742h-1.6656c-2.4151 0-4.37216 1.97914-4.37216 4.42148 0 2.43473.15208 4.83003.31179 7.27093z" fill="url(#B)"/><path d="m9.67483 17.1867c.33657 2.5546 2.51067 4.4566 5.08437 4.4566h2.4686c2.5737 0 4.7478-1.902 5.0844-4.4566.1543-2.4648.3096-4.9197.4241-7.38321-.0139-1.00361-.805-1.83176-1.8044-1.87387h-1.8321c-1.2492 0-2.3804-.73691-2.894-1.88791-.1318-.32985-.4511-.54742-.805-.54742h-1.6656c-2.4151 0-4.37216 1.97914-4.37216 4.42148 0 2.43473.15208 4.83003.31179 7.27093z" fill="url(#C)"/><path d="m9.67483 17.1867c.33657 2.5546 2.51067 4.4566 5.08437 4.4566h2.4686c2.5737 0 4.7478-1.902 5.0844-4.4566.1543-2.4648.3096-4.9197.4241-7.38321-.0139-1.00361-.805-1.83176-1.8044-1.87387h-1.8321c-1.2492 0-2.3804-.73691-2.894-1.88791-.1318-.32985-.4511-.54742-.805-.54742h-1.6656c-2.4151 0-4.37216 1.97914-4.37216 4.42148 0 2.43473.15208 4.83003.31179 7.27093z" fill="url(#D)"/><path d="m9.67483 17.1867c.33657 2.5546 2.51067 4.4566 5.08437 4.4566h2.4686c2.5737 0 4.7478-1.902 5.0844-4.4566.1543-2.4648.3096-4.9197.4241-7.38321-.0139-1.00361-.805-1.83176-1.8044-1.87387h-1.8321c-1.2492 0-2.3804-.73691-2.894-1.88791-.1318-.32985-.4511-.54742-.805-.54742h-1.6656c-2.4151 0-4.37216 1.97914-4.37216 4.42148 0 2.43473.15208 4.83003.31179 7.27093z" fill="url(#E)"/><path d="m9.67483 17.1867c.33657 2.5546 2.51067 4.4566 5.08437 4.4566h2.4686c2.5737 0 4.7478-1.902 5.0844-4.4566.1543-2.4648.3096-4.9197.4241-7.38321-.0139-1.00361-.805-1.83176-1.8044-1.87387h-1.8321c-1.2492 0-2.3804-.73691-2.894-1.88791-.1318-.32985-.4511-.54742-.805-.54742h-1.6656c-2.4151 0-4.37216 1.97914-4.37216 4.42148 0 2.43473.15208 4.83003.31179 7.27093z" fill="url(#F)"/><path d="m9.67483 17.1867c.33657 2.5546 2.51067 4.4566 5.08437 4.4566h2.4686c2.5737 0 4.7478-1.902 5.0844-4.4566.1543-2.4648.3096-4.9197.4241-7.38321-.0139-1.00361-.805-1.83176-1.8044-1.87387h-1.8321c-1.2492 0-2.3804-.73691-2.894-1.88791-.1318-.32985-.4511-.54742-.805-.54742h-1.6656c-2.4151 0-4.37216 1.97914-4.37216 4.42148 0 2.43473.15208 4.83003.31179 7.27093z" fill="url(#G)"/><path d="m9.67483 17.1867c.33657 2.5546 2.51067 4.4566 5.08437 4.4566h2.4686c2.5737 0 4.7478-1.902 5.0844-4.4566.1543-2.4648.3096-4.9197.4241-7.38321-.0139-1.00361-.805-1.83176-1.8044-1.87387h-1.8321c-1.2492 0-2.3804-.73691-2.894-1.88791-.1318-.32985-.4511-.54742-.805-.54742h-1.6656c-2.4151 0-4.37216 1.97914-4.37216 4.42148 0 2.43473.15208 4.83003.31179 7.27093z" fill="url(#H)"/><g filter="url(#b)"><path d="m15.4245 13.129-.9054 2.1663c-.1326.4948.1857.9896.6367.9896h.9615c.451 0 .7693-.5024.6367-.9896l-.6499-2.4055c-.1393-.5328-.5337-.2937-.6796.2392z" fill="#c48377"/></g><g filter="url(#c)"><path d="m15.4878 12.6336-.6954 2.4055c-.142.4948.1987.9896.6812.9896h1.029c.4825 0 .8231-.5024.6812-.9896l-.6954-2.4055c-.1491-.5328-.8445-.5328-1.0006 0z" fill="url(#I)"/><path d="m15.4878 12.6336-.6954 2.4055c-.142.4948.1987.9896.6812.9896h1.029c.4825 0 .8231-.5024.6812-.9896l-.6954-2.4055c-.1491-.5328-.8445-.5328-1.0006 0z" fill="url(#J)"/><path d="m15.4878 12.6336-.6954 2.4055c-.142.4948.1987.9896.6812.9896h1.029c.4825 0 .8231-.5024.6812-.9896l-.6954-2.4055c-.1491-.5328-.8445-.5328-1.0006 0z" fill="url(#K)"/><path d="m15.4878 12.6336-.6954 2.4055c-.142.4948.1987.9896.6812.9896h1.029c.4825 0 .8231-.5024.6812-.9896l-.6954-2.4055c-.1491-.5328-.8445-.5328-1.0006 0z" fill="url(#L)"/></g><path d="m15.4878 12.6336-.6954 2.4055c-.142.4948.1987.9896.6812.9896h1.029c.4825 0 .8231-.5024.6812-.9896l-.6954-2.4055c-.1491-.5328-.8445-.5328-1.0006 0z" fill="url(#M)"/><path d="m15.4878 12.6336-.6954 2.4055c-.142.4948.1987.9896.6812.9896h1.029c.4825 0 .8231-.5024.6812-.9896l-.6954-2.4055c-.1491-.5328-.8445-.5328-1.0006 0z" fill="url(#N)"/><g filter="url(#d)"><path d="m22.3407 4.87668c.6732.2316 1.2769.70183 1.6586 1.37558.6108 1.07379.5205 2.35812-.1388 3.30559-.229.33687-.3539.73695-.3539 1.14395v1.5546c-.2448-.1705-.5676-.2969-.873-.351l.1027-2.10192c-.0139-1.0036-.8051-1.83175-1.8044-1.87386h-1.8322c-1.2491 0-2.3804-.73692-2.8939-1.88791-.1319-.32986-.4511-.54742-.805-.54742h-1.6656c-2.4151 0-4.3722 1.97914-4.3722 4.42149l.04009 2.01162c-.33231.0488-.67947.1599-.94228.345v-1.5706c0-.407-.12492-.80708-.35394-1.14395-.62459-.91939-.73563-2.1546-.18738-3.20032.3817-.72288.99936-1.22819 1.70029-1.47383.74952-.26669 1.38802-.77201 1.81132-1.45277.5413-.86325 1.4921-1.43874 2.5817-1.43874.4233 0 .8258.09123 1.2006.24564.4996.21756 1.0618.21756 1.5615 0 .3678-.15441.7703-.24564 1.1936-.24564 1.1035 0 2.0681.59655 2.6025 1.48085.4025.66673 1.0341 1.15099 1.7697 1.40364z" fill="url(#O)"/><path d="m22.3407 4.87668c.6732.2316 1.2769.70183 1.6586 1.37558.6108 1.07379.5205 2.35812-.1388 3.30559-.229.33687-.3539.73695-.3539 1.14395v1.5546c-.2448-.1705-.5676-.2969-.873-.351l.1027-2.10192c-.0139-1.0036-.8051-1.83175-1.8044-1.87386h-1.8322c-1.2491 0-2.3804-.73692-2.8939-1.88791-.1319-.32986-.4511-.54742-.805-.54742h-1.6656c-2.4151 0-4.3722 1.97914-4.3722 4.42149l.04009 2.01162c-.33231.0488-.67947.1599-.94228.345v-1.5706c0-.407-.12492-.80708-.35394-1.14395-.62459-.91939-.73563-2.1546-.18738-3.20032.3817-.72288.99936-1.22819 1.70029-1.47383.74952-.26669 1.38802-.77201 1.81132-1.45277.5413-.86325 1.4921-1.43874 2.5817-1.43874.4233 0 .8258.09123 1.2006.24564.4996.21756 1.0618.21756 1.5615 0 .3678-.15441.7703-.24564 1.1936-.24564 1.1035 0 2.0681.59655 2.6025 1.48085.4025.66673 1.0341 1.15099 1.7697 1.40364z" fill="url(#P)"/><path d="m22.3407 4.87668c.6732.2316 1.2769.70183 1.6586 1.37558.6108 1.07379.5205 2.35812-.1388 3.30559-.229.33687-.3539.73695-.3539 1.14395v1.5546c-.2448-.1705-.5676-.2969-.873-.351l.1027-2.10192c-.0139-1.0036-.8051-1.83175-1.8044-1.87386h-1.8322c-1.2491 0-2.3804-.73692-2.8939-1.88791-.1319-.32986-.4511-.54742-.805-.54742h-1.6656c-2.4151 0-4.3722 1.97914-4.3722 4.42149l.04009 2.01162c-.33231.0488-.67947.1599-.94228.345v-1.5706c0-.407-.12492-.80708-.35394-1.14395-.62459-.91939-.73563-2.1546-.18738-3.20032.3817-.72288.99936-1.22819 1.70029-1.47383.74952-.26669 1.38802-.77201 1.81132-1.45277.5413-.86325 1.4921-1.43874 2.5817-1.43874.4233 0 .8258.09123 1.2006.24564.4996.21756 1.0618.21756 1.5615 0 .3678-.15441.7703-.24564 1.1936-.24564 1.1035 0 2.0681.59655 2.6025 1.48085.4025.66673 1.0341 1.15099 1.7697 1.40364z" fill="url(#Q)"/><path d="m22.3407 4.87668c.6732.2316 1.2769.70183 1.6586 1.37558.6108 1.07379.5205 2.35812-.1388 3.30559-.229.33687-.3539.73695-.3539 1.14395v1.5546c-.2448-.1705-.5676-.2969-.873-.351l.1027-2.10192c-.0139-1.0036-.8051-1.83175-1.8044-1.87386h-1.8322c-1.2491 0-2.3804-.73692-2.8939-1.88791-.1319-.32986-.4511-.54742-.805-.54742h-1.6656c-2.4151 0-4.3722 1.97914-4.3722 4.42149l.04009 2.01162c-.33231.0488-.67947.1599-.94228.345v-1.5706c0-.407-.12492-.80708-.35394-1.14395-.62459-.91939-.73563-2.1546-.18738-3.20032.3817-.72288.99936-1.22819 1.70029-1.47383.74952-.26669 1.38802-.77201 1.81132-1.45277.5413-.86325 1.4921-1.43874 2.5817-1.43874.4233 0 .8258.09123 1.2006.24564.4996.21756 1.0618.21756 1.5615 0 .3678-.15441.7703-.24564 1.1936-.24564 1.1035 0 2.0681.59655 2.6025 1.48085.4025.66673 1.0341 1.15099 1.7697 1.40364z" fill="url(#R)"/><path d="m22.3407 4.87668c.6732.2316 1.2769.70183 1.6586 1.37558.6108 1.07379.5205 2.35812-.1388 3.30559-.229.33687-.3539.73695-.3539 1.14395v1.5546c-.2448-.1705-.5676-.2969-.873-.351l.1027-2.10192c-.0139-1.0036-.8051-1.83175-1.8044-1.87386h-1.8322c-1.2491 0-2.3804-.73692-2.8939-1.88791-.1319-.32986-.4511-.54742-.805-.54742h-1.6656c-2.4151 0-4.3722 1.97914-4.3722 4.42149l.04009 2.01162c-.33231.0488-.67947.1599-.94228.345v-1.5706c0-.407-.12492-.80708-.35394-1.14395-.62459-.91939-.73563-2.1546-.18738-3.20032.3817-.72288.99936-1.22819 1.70029-1.47383.74952-.26669 1.38802-.77201 1.81132-1.45277.5413-.86325 1.4921-1.43874 2.5817-1.43874.4233 0 .8258.09123 1.2006.24564.4996.21756 1.0618.21756 1.5615 0 .3678-.15441.7703-.24564 1.1936-.24564 1.1035 0 2.0681.59655 2.6025 1.48085.4025.66673 1.0341 1.15099 1.7697 1.40364z" fill="url(#S)"/></g><g filter="url(#e)"><path d="m16.2923 6.22071c-.0305-.05848-.0594-.11817-.0866-.17901-.1318-.32986-.4511-.54743-.805-.54743h-1.6656c-2.4151 0-4.37214 1.97915-4.37214 4.42149v.36004c-.44488-.33855-1.00444-1.05273-1.00444-2.20847 0-1.40248 1.02289-2.11139 1.67538-2.56359.1842-.12766.3389-.23486.4327-.33143.0398-.04102.0832-.08704.1304-.13709.4574-.48508 1.2723-1.34939 2.6953-1.72712.8005-.21249 1.6131-.24023 2.223-.20591.4721.02656.8045.4347.8045.90755v2.19338z" fill="url(#T)"/><path d="m16.2923 6.22071c-.0305-.05848-.0594-.11817-.0866-.17901-.1318-.32986-.4511-.54743-.805-.54743h-1.6656c-2.4151 0-4.37214 1.97915-4.37214 4.42149v.36004c-.44488-.33855-1.00444-1.05273-1.00444-2.20847 0-1.40248 1.02289-2.11139 1.67538-2.56359.1842-.12766.3389-.23486.4327-.33143.0398-.04102.0832-.08704.1304-.13709.4574-.48508 1.2723-1.34939 2.6953-1.72712.8005-.21249 1.6131-.24023 2.223-.20591.4721.02656.8045.4347.8045.90755v2.19338z" fill="url(#U)"/></g><g filter="url(#f)"><path d="m22.8089 10.6332-.0382-.82589c-.0139-.99897-.8394-1.8233-1.8388-1.86522h-1.8321c-1.1631 0-2.2239-.63587-2.7791-1.64824 0 0-.1696-.39279-.2688-1.01064-.1589-.9904.7557-1.71731 1.7458-1.5565 1.3847.22489 3.104.6714 4.3296 1.47082 2.2827 1.48887 1.8831 4.17212.6816 5.43567z" fill="url(#V)"/><path d="m22.8089 10.6332-.0382-.82589c-.0139-.99897-.8394-1.8233-1.8388-1.86522h-1.8321c-1.1631 0-2.2239-.63587-2.7791-1.64824 0 0-.1696-.39279-.2688-1.01064-.1589-.9904.7557-1.71731 1.7458-1.5565 1.3847.22489 3.104.6714 4.3296 1.47082 2.2827 1.48887 1.8831 4.17212.6816 5.43567z" fill="url(#W)"/><path d="m22.8089 10.6332-.0382-.82589c-.0139-.99897-.8394-1.8233-1.8388-1.86522h-1.8321c-1.1631 0-2.2239-.63587-2.7791-1.64824 0 0-.1696-.39279-.2688-1.01064-.1589-.9904.7557-1.71731 1.7458-1.5565 1.3847.22489 3.104.6714 4.3296 1.47082 2.2827 1.48887 1.8831 4.17212.6816 5.43567z" fill="url(#X)"/><path d="m22.8089 10.6332-.0382-.82589c-.0139-.99897-.8394-1.8233-1.8388-1.86522h-1.8321c-1.1631 0-2.2239-.63587-2.7791-1.64824 0 0-.1696-.39279-.2688-1.01064-.1589-.9904.7557-1.71731 1.7458-1.5565 1.3847.22489 3.104.6714 4.3296 1.47082 2.2827 1.48887 1.8831 4.17212.6816 5.43567z" fill="url(#Y)"/><path d="m22.8089 10.6332-.0382-.82589c-.0139-.99897-.8394-1.8233-1.8388-1.86522h-1.8321c-1.1631 0-2.2239-.63587-2.7791-1.64824 0 0-.1696-.39279-.2688-1.01064-.1589-.9904.7557-1.71731 1.7458-1.5565 1.3847.22489 3.104.6714 4.3296 1.47082 2.2827 1.48887 1.8831 4.17212.6816 5.43567z" fill="url(#Z)"/><path d="m22.8089 10.6332-.0382-.82589c-.0139-.99897-.8394-1.8233-1.8388-1.86522h-1.8321c-1.1631 0-2.2239-.63587-2.7791-1.64824 0 0-.1696-.39279-.2688-1.01064-.1589-.9904.7557-1.71731 1.7458-1.5565 1.3847.22489 3.104.6714 4.3296 1.47082 2.2827 1.48887 1.8831 4.17212.6816 5.43567z" fill="url(#aa)"/></g><path d="m19.1167 11.3901c.8546 0 1.5765.5892 1.7729 1.3854.0584.2282-.1168.4459-.3503.4459h-2.9194c-.1858 0-.3344-.1699-.2973-.3557.1646-.8386.9024-1.4756 1.7941-1.4756z" fill="#fff"/><path d="m18.846 11.7457c.6476 0 1.1678.5255 1.1678 1.1678 0 .1062-.0159.2123-.0425.3079h-2.2559c-.0265-.1009-.0424-.2017-.0424-.3079 0-.6423.5255-1.1678 1.173-1.1678z" fill="url(#ac)"/><path d="m18.1772 12.9135c0-.3716.2973-.6688.6689-.6688.3715 0 .6688.2972.6688.6688 0 .1115-.0266.2176-.0743.3079h-1.1837c-.0531-.0903-.0797-.1964-.0797-.3079z" fill="#000"/><g filter="url(#g)"><path d="m18.7601 11.9926c.0832.1113-.0907.2469-.2884.3948-.1977.1478-.3444.2518-.4276.1406-.0832-.1113.0096-.3214.2074-.4692.1977-.1478.4254-.1775.5086-.0662z" fill="#c7a7a3"/><path d="m18.7601 11.9926c.0832.1113-.0907.2469-.2884.3948-.1977.1478-.3444.2518-.4276.1406-.0832-.1113.0096-.3214.2074-.4692.1977-.1478.4254-.1775.5086-.0662z" fill="url(#ae)"/></g><g filter="url(#h)"><path d="m19.8862 12.7597c-.0432-.3019-.2198-.5294-.3027-.6054l-.3401.3732.1534.2986z" fill="url(#ag)"/></g><path d="m12.8596 11.39c-.8546 0-1.5766.5892-1.773 1.3855-.0584.2282.1168.4459.3504.4459h2.9195c.1858 0 .3345-.1699.2973-.3557-.1646-.8387-.9077-1.4757-1.7942-1.4757z" fill="#fff"/><path d="m13.1305 11.7457c-.6476 0-1.1679.5255-1.1679 1.1678 0 .1062.016.2123.0425.3079h2.256c.0266-.1009.0425-.2017.0425-.3079-.0053-.6423-.5255-1.1678-1.1731-1.1678z" fill="url(#ah)"/><path d="m13.7992 12.9135c0-.3716-.2972-.6689-.6688-.6689s-.6689.2973-.6689.6689c0 .1114.0266.2176.0744.3079h1.1837c.0478-.0903.0796-.1965.0796-.3079z" fill="#000"/><g filter="url(#i)"><path d="m14.1974 12.7763c0-.3774-.3069-.629-.3898-.705l-.3774.3649.2322.4728z" fill="url(#ai)"/></g><g filter="url(#j)"><ellipse cx="12.7781" cy="12.2446" fill="#c7a7a3" fill-opacity=".9" rx=".509817" ry=".258014" transform="matrix(.88365127 -.46814574 .46814574 .88365127 -4.245542 7.406657)"/><ellipse cx="12.7781" cy="12.2446" fill="url(#aj)" rx=".509817" ry=".258014" transform="matrix(.88365127 -.46814574 .46814574 .88365127 -4.245542 7.406657)"/></g><path d="m22.4285 15.3232c.0861-1.3925.1691-2.7833.2415-4.1757.9886.1729 1.7401 1.0356 1.7401 2.0738 0 1.1213-.8765 2.0378-1.9816 2.1019z" fill="url(#ak)"/><path d="m22.4285 15.3232c.0861-1.3925.1691-2.7833.2415-4.1757.9886.1729 1.7401 1.0356 1.7401 2.0738 0 1.1213-.8765 2.0378-1.9816 2.1019z" fill="url(#al)"/><path d="m22.4285 15.3232c.0861-1.3925.1691-2.7833.2415-4.1757.9886.1729 1.7401 1.0356 1.7401 2.0738 0 1.1213-.8765 2.0378-1.9816 2.1019z" fill="url(#am)"/><path d="m9.37513 11.1366c-1.02237.1442-1.80885 1.0226-1.80885 2.0848 0 1.124.8809 2.0424 1.99003 2.1023-.08447-1.3982-.15412-2.7884-.18118-4.1871z" fill="url(#an)"/><path d="m9.37513 11.1366c-1.02237.1442-1.80885 1.0226-1.80885 2.0848 0 1.124.8809 2.0424 1.99003 2.1023-.08447-1.3982-.15412-2.7884-.18118-4.1871z" fill="url(#ao)"/><g filter="url(#k)"><path d="m9.39708 12.0015c-.55829.1252-.97545.6238-.97545 1.2199 0 .6343.47242 1.1583 1.08461 1.2392-.04536-.8201-.08362-1.6387-.10916-2.4591z" fill="#b57562"/></g><g filter="url(#l)"><path d="m22.4807 14.4714c.0504-.8303.0992-1.6602.1448-2.4905.6166.0769 1.0937.603 1.0937 1.2404 0 .6866-.5534 1.2439-1.2385 1.2501z" fill="#e6aa8b"/></g><path d="m14.8698 17.8721c.6442-.4422 1.5989-.443 2.2501.0007.1597.1089.3774.0676.4863-.0921s.0676-.3775-.0921-.4863c-.8881-.6052-2.1568-.6061-3.0405.0007-.1593.1094-.1998.3272-.0904.4866s.3273.1998.4866.0904z" fill="#87004d"/><path d="m14.8698 17.8721c.6442-.4422 1.5989-.443 2.2501.0007.1597.1089.3774.0676.4863-.0921s.0676-.3775-.0921-.4863c-.8881-.6052-2.1568-.6061-3.0405.0007-.1593.1094-.1998.3272-.0904.4866s.3273.1998.4866.0904z" stroke="url(#aq)" stroke-linecap="round" stroke-linejoin="round" stroke-width=".1"/><path d="m14.8698 17.8721c.6442-.4422 1.5989-.443 2.2501.0007.1597.1089.3774.0676.4863-.0921s.0676-.3775-.0921-.4863c-.8881-.6052-2.1568-.6061-3.0405.0007-.1593.1094-.1998.3272-.0904.4866s.3273.1998.4866.0904z" stroke="url(#ar)" stroke-linecap="round" stroke-linejoin="round" stroke-width=".1"/><g filter="url(#m)"><path d="m18.291 9.69913c.3041.32687 1.0775.85517 2.1892.78107" stroke="#a26b3a" stroke-linecap="round" stroke-width=".65"/></g><g filter="url(#n)"><path d="m13.9822 9.69913c-.3041.32687-1.0775.85517-2.1892.78107" stroke="#a26b3a" stroke-linecap="round" stroke-width=".65"/></g><g filter="url(#o)"><path d="m18.291 9.63663c.3041.32685 1.0775.85517 2.1892.78107" stroke="#b17847" stroke-linecap="round" stroke-width=".25"/></g><g filter="url(#p)"><path d="m13.9822 9.63663c-.3041.32685-1.0775.85517-2.1892.78107" stroke="#b17847" stroke-linecap="round" stroke-width=".25"/></g></svg>