<svg fill="none" height="32" viewBox="0 0 32 32" width="32" xmlns="http://www.w3.org/2000/svg" xmlns:xlink="http://www.w3.org/1999/xlink"><filter id="a" color-interpolation-filters="sRGB" filterUnits="userSpaceOnUse" height="17.2954" width="16.1003" x="7.54541" y="12.7153"><feFlood flood-opacity="0" result="BackgroundImageFix"/><feBlend in="SourceGraphic" in2="BackgroundImageFix" mode="normal" result="shape"/><feColorMatrix in="SourceAlpha" result="hardAlpha" type="matrix" values="0 0 0 0 0 0 0 0 0 0 0 0 0 0 0 0 0 0 127 0"/><feOffset dx="1.25"/><feGaussianBlur stdDeviation="1"/><feComposite in2="hardAlpha" k2="-1" k3="1" operator="arithmetic"/><feColorMatrix type="matrix" values="0 0 0 0 0.737772 0 0 0 0 0.308243 0 0 0 0 0.219096 0 0 0 1 0"/><feBlend in2="shape" mode="normal" result="effect1_innerShadow_13929_4521"/></filter><filter id="b" color-interpolation-filters="sRGB" filterUnits="userSpaceOnUse" height="15.1094" width="15.6904" x="7.22754" y="14.9346"><feFlood flood-opacity="0" result="BackgroundImageFix"/><feBlend in="SourceGraphic" in2="BackgroundImageFix" mode="normal" result="shape"/><feGaussianBlur result="effect1_foregroundBlur_13929_4521" stdDeviation=".5"/></filter><filter id="c" color-interpolation-filters="sRGB" filterUnits="userSpaceOnUse" height="14.0711" width="16.5426" x="6.15723" y="15.5158"><feFlood flood-opacity="0" result="BackgroundImageFix"/><feBlend in="SourceGraphic" in2="BackgroundImageFix" mode="normal" result="shape"/><feColorMatrix in="SourceAlpha" result="hardAlpha" type="matrix" values="0 0 0 0 0 0 0 0 0 0 0 0 0 0 0 0 0 0 127 0"/><feOffset dy="-.2"/><feGaussianBlur stdDeviation=".375"/><feComposite in2="hardAlpha" k2="-1" k3="1" operator="arithmetic"/><feColorMatrix type="matrix" values="0 0 0 0 0.266667 0 0 0 0 0.14902 0 0 0 0 0.215686 0 0 0 1 0"/><feBlend in2="shape" mode="normal" result="effect1_innerShadow_13929_4521"/></filter><filter id="d" color-interpolation-filters="sRGB" filterUnits="userSpaceOnUse" height="5.28311" width="4.45121" x="18.4463" y="15.6158"><feFlood flood-opacity="0" result="BackgroundImageFix"/><feBlend in="SourceGraphic" in2="BackgroundImageFix" mode="normal" result="shape"/><feColorMatrix in="SourceAlpha" result="hardAlpha" type="matrix" values="0 0 0 0 0 0 0 0 0 0 0 0 0 0 0 0 0 0 127 0"/><feOffset dx=".1" dy="-.1"/><feGaussianBlur stdDeviation=".25"/><feComposite in2="hardAlpha" k2="-1" k3="1" operator="arithmetic"/><feColorMatrix type="matrix" values="0 0 0 0 0.894118 0 0 0 0 0.262745 0 0 0 0 0.027451 0 0 0 1 0"/><feBlend in2="shape" mode="normal" result="effect1_innerShadow_13929_4521"/></filter><filter id="e" color-interpolation-filters="sRGB" filterUnits="userSpaceOnUse" height=".299609" width="1.54219" x="6.79629" y="26.7257"><feFlood flood-opacity="0" result="BackgroundImageFix"/><feBlend in="SourceGraphic" in2="BackgroundImageFix" mode="normal" result="shape"/><feGaussianBlur result="effect1_foregroundBlur_13929_4521" stdDeviation=".05"/></filter><filter id="f" color-interpolation-filters="sRGB" filterUnits="userSpaceOnUse" height=".299609" width="1.54219" x="6.4291" y="27.6632"><feFlood flood-opacity="0" result="BackgroundImageFix"/><feBlend in="SourceGraphic" in2="BackgroundImageFix" mode="normal" result="shape"/><feGaussianBlur result="effect1_foregroundBlur_13929_4521" stdDeviation=".05"/></filter><filter id="g" color-interpolation-filters="sRGB" filterUnits="userSpaceOnUse" height=".299609" width="1.54219" x="6.6166" y="28.5616"><feFlood flood-opacity="0" result="BackgroundImageFix"/><feBlend in="SourceGraphic" in2="BackgroundImageFix" mode="normal" result="shape"/><feGaussianBlur result="effect1_foregroundBlur_13929_4521" stdDeviation=".05"/></filter><filter id="h" color-interpolation-filters="sRGB" filterUnits="userSpaceOnUse" height="10.9856" width="9.93185" x="14.0214" y="4.43262"><feFlood flood-opacity="0" result="BackgroundImageFix"/><feBlend in="SourceGraphic" in2="BackgroundImageFix" mode="normal" result="shape"/><feColorMatrix in="SourceAlpha" result="hardAlpha" type="matrix" values="0 0 0 0 0 0 0 0 0 0 0 0 0 0 0 0 0 0 127 0"/><feOffset dx="1"/><feGaussianBlur stdDeviation=".5"/><feComposite in2="hardAlpha" k2="-1" k3="1" operator="arithmetic"/><feColorMatrix type="matrix" values="0 0 0 0 0.333333 0 0 0 0 0.270588 0 0 0 0 0.258824 0 0 0 1 0"/><feBlend in2="shape" mode="normal" result="effect1_innerShadow_13929_4521"/><feColorMatrix in="SourceAlpha" result="hardAlpha" type="matrix" values="0 0 0 0 0 0 0 0 0 0 0 0 0 0 0 0 0 0 127 0"/><feOffset dy=".2"/><feGaussianBlur stdDeviation=".375"/><feComposite in2="hardAlpha" k2="-1" k3="1" operator="arithmetic"/><feColorMatrix type="matrix" values="0 0 0 0 0.145098 0 0 0 0 0.0705882 0 0 0 0 0.0745098 0 0 0 1 0"/><feBlend in2="effect1_innerShadow_13929_4521" mode="normal" result="effect2_innerShadow_13929_4521"/></filter><filter id="i" color-interpolation-filters="sRGB" filterUnits="userSpaceOnUse" height="4.53467" width="3.52652" x="16.5592" y="8.10547"><feFlood flood-opacity="0" result="BackgroundImageFix"/><feBlend in="SourceGraphic" in2="BackgroundImageFix" mode="normal" result="shape"/><feGaussianBlur result="effect1_foregroundBlur_13929_4521" stdDeviation=".5"/></filter><filter id="j" color-interpolation-filters="sRGB" filterUnits="userSpaceOnUse" height="2.93467" width="2.04059" x="17.4261" y="8.73408"><feFlood flood-opacity="0" result="BackgroundImageFix"/><feBlend in="SourceGraphic" in2="BackgroundImageFix" mode="normal" result="shape"/><feGaussianBlur result="effect1_foregroundBlur_13929_4521" stdDeviation=".1"/></filter><filter id="k" color-interpolation-filters="sRGB" filterUnits="userSpaceOnUse" height="1.4373" width="3.31272" x="16.7899" y="11.8048"><feFlood flood-opacity="0" result="BackgroundImageFix"/><feBlend in="SourceGraphic" in2="BackgroundImageFix" mode="normal" result="shape"/><feGaussianBlur result="effect1_foregroundBlur_13929_4521" stdDeviation=".05"/></filter><filter id="l" color-interpolation-filters="sRGB" filterUnits="userSpaceOnUse" height="7.36621" width="11.2498" x="12.8215" y="1.59375"><feFlood flood-opacity="0" result="BackgroundImageFix"/><feBlend in="SourceGraphic" in2="BackgroundImageFix" mode="normal" result="shape"/><feColorMatrix in="SourceAlpha" result="hardAlpha" type="matrix" values="0 0 0 0 0 0 0 0 0 0 0 0 0 0 0 0 0 0 127 0"/><feOffset dy="-.5"/><feGaussianBlur stdDeviation=".625"/><feComposite in2="hardAlpha" k2="-1" k3="1" operator="arithmetic"/><feColorMatrix type="matrix" values="0 0 0 0 0.137255 0 0 0 0 0.0901961 0 0 0 0 0.145098 0 0 0 1 0"/><feBlend in2="shape" mode="normal" result="effect1_innerShadow_13929_4521"/><feColorMatrix in="SourceAlpha" result="hardAlpha" type="matrix" values="0 0 0 0 0 0 0 0 0 0 0 0 0 0 0 0 0 0 127 0"/><feOffset dy="-.2"/><feGaussianBlur stdDeviation=".2"/><feComposite in2="hardAlpha" k2="-1" k3="1" operator="arithmetic"/><feColorMatrix type="matrix" values="0 0 0 0 0.0784314 0 0 0 0 0.0352941 0 0 0 0 0.0470588 0 0 0 1 0"/><feBlend in2="effect1_innerShadow_13929_4521" mode="normal" result="effect2_innerShadow_13929_4521"/></filter><filter id="m" color-interpolation-filters="sRGB" filterUnits="userSpaceOnUse" height="1.06572" width="2.0566" x="19.8353" y="6.58125"><feFlood flood-opacity="0" result="BackgroundImageFix"/><feBlend in="SourceGraphic" in2="BackgroundImageFix" mode="normal" result="shape"/><feColorMatrix in="SourceAlpha" result="hardAlpha" type="matrix" values="0 0 0 0 0 0 0 0 0 0 0 0 0 0 0 0 0 0 127 0"/><feOffset dx=".1" dy="-.2"/><feGaussianBlur stdDeviation=".125"/><feComposite in2="hardAlpha" k2="-1" k3="1" operator="arithmetic"/><feColorMatrix type="matrix" values="0 0 0 0 0.0588235 0 0 0 0 0.054902 0 0 0 0 0.0588235 0 0 0 1 0"/><feBlend in2="shape" mode="normal" result="effect1_innerShadow_13929_4521"/></filter><filter id="n" color-interpolation-filters="sRGB" filterUnits="userSpaceOnUse" height="1.05254" width="2.0566" x="15.2415" y="6.59395"><feFlood flood-opacity="0" result="BackgroundImageFix"/><feBlend in="SourceGraphic" in2="BackgroundImageFix" mode="normal" result="shape"/><feColorMatrix in="SourceAlpha" result="hardAlpha" type="matrix" values="0 0 0 0 0 0 0 0 0 0 0 0 0 0 0 0 0 0 127 0"/><feOffset dx=".1" dy="-.2"/><feGaussianBlur stdDeviation=".125"/><feComposite in2="hardAlpha" k2="-1" k3="1" operator="arithmetic"/><feColorMatrix type="matrix" values="0 0 0 0 0.0588235 0 0 0 0 0.054902 0 0 0 0 0.0588235 0 0 0 1 0"/><feBlend in2="shape" mode="normal" result="effect1_innerShadow_13929_4521"/></filter><filter id="o" color-interpolation-filters="sRGB" filterUnits="userSpaceOnUse" height="5.29932" width="5.96728" x="13.1006" y="2.57715"><feFlood flood-opacity="0" result="BackgroundImageFix"/><feBlend in="SourceGraphic" in2="BackgroundImageFix" mode="normal" result="shape"/><feColorMatrix in="SourceAlpha" result="hardAlpha" type="matrix" values="0 0 0 0 0 0 0 0 0 0 0 0 0 0 0 0 0 0 127 0"/><feOffset dx=".4" dy=".2"/><feGaussianBlur stdDeviation=".2"/><feComposite in2="hardAlpha" k2="-1" k3="1" operator="arithmetic"/><feColorMatrix type="matrix" values="0 0 0 0 0.286275 0 0 0 0 0.243137 0 0 0 0 0.227451 0 0 0 1 0"/><feBlend in2="shape" mode="normal" result="effect1_innerShadow_13929_4521"/><feGaussianBlur result="effect2_foregroundBlur_13929_4521" stdDeviation=".125"/></filter><filter id="p" color-interpolation-filters="sRGB" filterUnits="userSpaceOnUse" height="5.04053" width="5.58635" x="18.312" y="2.98242"><feFlood flood-opacity="0" result="BackgroundImageFix"/><feBlend in="SourceGraphic" in2="BackgroundImageFix" mode="normal" result="shape"/><feColorMatrix in="SourceAlpha" result="hardAlpha" type="matrix" values="0 0 0 0 0 0 0 0 0 0 0 0 0 0 0 0 0 0 127 0"/><feOffset dx="-.1" dy=".2"/><feComposite in2="hardAlpha" k2="-1" k3="1" operator="arithmetic"/><feColorMatrix type="matrix" values="0 0 0 0 0.329412 0 0 0 0 0.305882 0 0 0 0 0.313726 0 0 0 1 0"/><feBlend in2="shape" mode="normal" result="effect1_innerShadow_13929_4521"/><feGaussianBlur result="effect2_foregroundBlur_13929_4521" stdDeviation=".125"/></filter><filter id="q" color-interpolation-filters="sRGB" filterUnits="userSpaceOnUse" height=".633594" width=".712833" x="19.699" y="8.62803"><feFlood flood-opacity="0" result="BackgroundImageFix"/><feBlend in="SourceGraphic" in2="BackgroundImageFix" mode="normal" result="shape"/><feGaussianBlur result="effect1_foregroundBlur_13929_4521" stdDeviation=".05"/></filter><filter id="r" color-interpolation-filters="sRGB" filterUnits="userSpaceOnUse" height=".84873" width=".829291" x="20.4205" y="8.68086"><feFlood flood-opacity="0" result="BackgroundImageFix"/><feBlend in="SourceGraphic" in2="BackgroundImageFix" mode="normal" result="shape"/><feGaussianBlur result="effect1_foregroundBlur_13929_4521" stdDeviation=".1"/></filter><filter id="s" color-interpolation-filters="sRGB" filterUnits="userSpaceOnUse" height=".95957" width=".912405" x="16.5379" y="8.62568"><feFlood flood-opacity="0" result="BackgroundImageFix"/><feBlend in="SourceGraphic" in2="BackgroundImageFix" mode="normal" result="shape"/><feGaussianBlur result="effect1_foregroundBlur_13929_4521" stdDeviation=".1"/></filter><filter id="t" color-interpolation-filters="sRGB" filterUnits="userSpaceOnUse" height=".640918" width=".823184" x="15.8907" y="8.6207"><feFlood flood-opacity="0" result="BackgroundImageFix"/><feBlend in="SourceGraphic" in2="BackgroundImageFix" mode="normal" result="shape"/><feGaussianBlur result="effect1_foregroundBlur_13929_4521" stdDeviation=".05"/></filter><filter id="u" color-interpolation-filters="sRGB" filterUnits="userSpaceOnUse" height="2.14258" width="1.2244" x="13.1006" y="8.52832"><feFlood flood-opacity="0" result="BackgroundImageFix"/><feBlend in="SourceGraphic" in2="BackgroundImageFix" mode="normal" result="shape"/><feGaussianBlur result="effect1_foregroundBlur_13929_4521" stdDeviation=".125"/></filter><filter id="v" color-interpolation-filters="sRGB" filterUnits="userSpaceOnUse" height="2.66357" width="1.82719" x="22.2662" y="8.26221"><feFlood flood-opacity="0" result="BackgroundImageFix"/><feBlend in="SourceGraphic" in2="BackgroundImageFix" mode="normal" result="shape"/><feGaussianBlur result="effect1_foregroundBlur_13929_4521" stdDeviation=".25"/></filter><filter id="w" color-interpolation-filters="sRGB" filterUnits="userSpaceOnUse" height=".958594" width="2.04653" x="15.1985" y="6.71211"><feFlood flood-opacity="0" result="BackgroundImageFix"/><feBlend in="SourceGraphic" in2="BackgroundImageFix" mode="normal" result="shape"/><feGaussianBlur result="effect1_foregroundBlur_13929_4521" stdDeviation=".1"/></filter><filter id="x" color-interpolation-filters="sRGB" filterUnits="userSpaceOnUse" height=".958594" width="2.04653" x="19.8118" y="6.67207"><feFlood flood-opacity="0" result="BackgroundImageFix"/><feBlend in="SourceGraphic" in2="BackgroundImageFix" mode="normal" result="shape"/><feGaussianBlur result="effect1_foregroundBlur_13929_4521" stdDeviation=".1"/></filter><filter id="y" color-interpolation-filters="sRGB" filterUnits="userSpaceOnUse" height="2.81543" width="4.79102" x="19.1202" y="3.33789"><feFlood flood-opacity="0" result="BackgroundImageFix"/><feBlend in="SourceGraphic" in2="BackgroundImageFix" mode="normal" result="shape"/><feGaussianBlur result="effect1_foregroundBlur_13929_4521" stdDeviation=".375"/></filter><radialGradient id="z" cx="0" cy="0" gradientTransform="matrix(0 -2.2441 14.467 0 14.9705 30.0107)" gradientUnits="userSpaceOnUse" r="1"><stop offset="0" stop-color="#d7454a"/><stop offset="1" stop-color="#fc5428" stop-opacity="0"/></radialGradient><radialGradient id="A" cx="0" cy="0" gradientTransform="matrix(-.3632722 -1.99341977 2.97246557 -.54168927 20.9971 16.0725)" gradientUnits="userSpaceOnUse" r="1"><stop offset="0" stop-color="#ff7a45"/><stop offset="1" stop-color="#ff7a45" stop-opacity="0"/></radialGradient><radialGradient id="B" cx="0" cy="0" gradientTransform="matrix(0 7.0625 -2.6875 0 20.6338 22.0478)" gradientUnits="userSpaceOnUse" r="1"><stop offset="0" stop-color="#ff7634"/><stop offset="1" stop-color="#ff7634" stop-opacity="0"/></radialGradient><radialGradient id="C" cx="0" cy="0" gradientTransform="matrix(-6.71876665 2.87494886 -1.00684305 -2.35299611 19.1338 13.1728)" gradientUnits="userSpaceOnUse" r="1"><stop offset=".448777" stop-color="#ee3404"/><stop offset="1" stop-color="#ee3404" stop-opacity="0"/></radialGradient><linearGradient id="D" gradientUnits="userSpaceOnUse" x1="20.0713" x2="7.41504" y1="21.11" y2="30.8912"><stop offset="0" stop-color="#503639"/><stop offset="1" stop-color="#472d2f"/></linearGradient><linearGradient id="E" gradientUnits="userSpaceOnUse" x1="6.41504" x2="9.04004" y1="27.985" y2="27.7975"><stop offset="0" stop-color="#584440"/><stop offset="1" stop-color="#422e2c" stop-opacity="0"/></linearGradient><linearGradient id="F" gradientUnits="userSpaceOnUse" x1="19.7275" x2="18.79" y1="19.0162" y2="20.8287"><stop offset="0" stop-color="#392325"/><stop offset="1" stop-color="#392325" stop-opacity="0"/></linearGradient><radialGradient id="G" cx="0" cy="0" gradientTransform="matrix(-1.83129244 3.87045684 -2.96919757 -1.40486492 22.4532 17.0286)" gradientUnits="userSpaceOnUse" r="1"><stop offset=".425418" stop-color="#ff6420"/><stop offset="1" stop-color="#ec541d"/></radialGradient><radialGradient id="H" cx="0" cy="0" gradientTransform="matrix(-1.2624475 2.30399786 -1.44919817 -.79407044 22.2638 16.6814)" gradientUnits="userSpaceOnUse" r="1"><stop offset="0" stop-color="#ff8147"/><stop offset="1" stop-color="#ff5d1d" stop-opacity="0"/></radialGradient><linearGradient id="I"><stop offset="0" stop-color="#3b2a27"/><stop offset="1" stop-color="#3b2a27" stop-opacity="0"/></linearGradient><linearGradient id="J" gradientUnits="userSpaceOnUse" x1="6.94629" x2="8.39941" xlink:href="#I" y1="26.8755" y2="26.8755"/><linearGradient id="K" gradientUnits="userSpaceOnUse" x1="6.5791" x2="8.03223" xlink:href="#I" y1="27.813" y2="27.813"/><linearGradient id="L" gradientUnits="userSpaceOnUse" x1="6.7666" x2="8.21973" xlink:href="#I" y1="28.7114" y2="28.7114"/><radialGradient id="M" cx="0" cy="0" gradientTransform="matrix(.65437521 1.76492473 -2.09659178 .77734629 22.6003 10.6484)" gradientUnits="userSpaceOnUse" r="1"><stop offset=".214643" stop-color="#3c3b3c"/><stop offset="1" stop-color="#221c27"/></radialGradient><radialGradient id="N" cx="0" cy="0" gradientTransform="matrix(1.29031458 .40552773 -1.25108125 3.98071025 13.1537 11.077)" gradientUnits="userSpaceOnUse" r="1"><stop offset="0" stop-color="#463c39"/><stop offset=".745836" stop-color="#1b141e"/></radialGradient><radialGradient id="O" cx="0" cy="0" gradientTransform="matrix(-4.56875 0 0 -8.08207 20.9 9.82547)" gradientUnits="userSpaceOnUse" r="1"><stop offset="0" stop-color="#563b38"/><stop offset="1" stop-color="#3c2828"/></radialGradient><linearGradient id="P" gradientUnits="userSpaceOnUse" x1="22.9532" x2="19.1493" y1="11.2984" y2="11.2984"><stop offset="0" stop-color="#563b38"/><stop offset="1" stop-color="#563b38" stop-opacity="0"/></linearGradient><radialGradient id="Q" cx="0" cy="0" gradientTransform="matrix(-.89335 10.8572088 -8.99106531 -.73980047 19.8283 4.65754)" gradientUnits="userSpaceOnUse" r="1"><stop offset=".767031" stop-color="#432742" stop-opacity="0"/><stop offset=".99662" stop-color="#432742"/></radialGradient><radialGradient id="R" cx="0" cy="0" gradientTransform="matrix(0 -1.00357 1.24192 0 20.5849 8.67811)" gradientUnits="userSpaceOnUse" r="1"><stop offset=".325" stop-color="#432728"/><stop offset="1" stop-color="#432728" stop-opacity="0"/></radialGradient><radialGradient id="S" cx="0" cy="0" gradientTransform="matrix(.003435 -.95631683 1.04070329 .00373811 16.436 8.71874)" gradientUnits="userSpaceOnUse" r="1"><stop offset=".377617" stop-color="#361e27"/><stop offset="1" stop-color="#361e27" stop-opacity="0"/></radialGradient><radialGradient id="T" cx="0" cy="0" gradientTransform="matrix(-7.42485159 .4686933 -1.19727484 -18.96674862 21.4462 10.6889)" gradientUnits="userSpaceOnUse" r="1"><stop offset=".835902" stop-color="#564440" stop-opacity="0"/><stop offset="1" stop-color="#564440"/></radialGradient><radialGradient id="U" cx="0" cy="0" gradientTransform="matrix(3.55949382 -2.31440742 .84723765 1.30302779 13.6681 6.04548)" gradientUnits="userSpaceOnUse" r="1"><stop offset=".379603" stop-color="#231112"/><stop offset="1" stop-color="#231112" stop-opacity="0"/></radialGradient><radialGradient id="V" cx="0" cy="0" gradientTransform="matrix(-.20507199 2.18256698 -.87246626 -.08197613 23.2919 7.27593)" gradientUnits="userSpaceOnUse" r="1"><stop offset=".244676" stop-color="#6b5b59"/><stop offset="1" stop-color="#6b5b59" stop-opacity="0"/></radialGradient><radialGradient id="W" cx="0" cy="0" gradientTransform="matrix(-1.52339332 2.51948843 -2.08004297 -1.25768531 20.5673 5.47421)" gradientUnits="userSpaceOnUse" r="1"><stop offset=".0780198" stop-color="#534445"/><stop offset="1" stop-color="#534445" stop-opacity="0"/></radialGradient><linearGradient id="X" gradientUnits="userSpaceOnUse" x1="18.4873" x2="18.4873" y1="15.2893" y2="14.7297"><stop offset="0" stop-color="#49201f"/><stop offset="1" stop-color="#49201f" stop-opacity="0"/></linearGradient><linearGradient id="Y" gradientUnits="userSpaceOnUse" x1="19.1789" x2="18.4464" y1="10.4153" y2="10.4458"><stop offset=".360477" stop-color="#66514e"/><stop offset="1" stop-color="#66514e" stop-opacity="0"/></linearGradient><radialGradient id="Z" cx="0" cy="0" gradientTransform="matrix(0 .213328 -.670458 0 18.8539 11.0147)" gradientUnits="userSpaceOnUse" r="1"><stop offset="0" stop-color="#685554"/><stop offset="1" stop-color="#685554" stop-opacity="0"/></radialGradient><linearGradient id="aa" gradientUnits="userSpaceOnUse" x1="18.4464" x2="18.4464" y1="11.4108" y2="11.0045"><stop offset="0" stop-color="#3e2230"/><stop offset="1" stop-color="#3e2230" stop-opacity="0"/></linearGradient><radialGradient id="ab" cx="0" cy="0" gradientTransform="matrix(-1.32936459 .60950086 -.97951998 -2.13640251 18.9555 10.5169)" gradientUnits="userSpaceOnUse" r="1"><stop offset=".714105" stop-color="#3e2b29" stop-opacity="0"/><stop offset="1" stop-color="#3f2c2a"/></radialGradient><linearGradient id="ac" gradientUnits="userSpaceOnUse" x1="18.4464" x2="18.4464" y1="8.82873" y2="9.52452"><stop offset="0" stop-color="#4b302a"/><stop offset="1" stop-color="#4b302a" stop-opacity="0"/></linearGradient><linearGradient id="ad" gradientUnits="userSpaceOnUse" x1="17.396" x2="17.6743" y1="12.784" y2="12.0547"><stop offset="0" stop-color="#584a4a"/><stop offset="1" stop-color="#40222d" stop-opacity="0"/></linearGradient><radialGradient id="ae" cx="0" cy="0" gradientTransform="matrix(0 -.62987 2.53413 0 18.4463 12.9189)" gradientUnits="userSpaceOnUse" r="1"><stop offset="0" stop-color="#290018"/><stop offset="1" stop-color="#290017"/></radialGradient><linearGradient id="af" gradientUnits="userSpaceOnUse" x1="24.4346" x2="14.2863" y1="4.87689" y2="4.87689"><stop offset="0" stop-color="#443d40"/><stop offset="1" stop-color="#272127"/></linearGradient><radialGradient id="ag" cx="0" cy="0" gradientTransform="matrix(0 -3.05989 7.73812 0 13.8762 7.298)" gradientUnits="userSpaceOnUse" r="1"><stop offset=".535851" stop-color="#3e3433"/><stop offset="1" stop-color="#3e3433" stop-opacity="0"/></radialGradient><radialGradient id="ah" cx="0" cy="0" gradientTransform="matrix(.09966322 -2.19576937 3.8904746 .17658377 22.6944 8.44308)" gradientUnits="userSpaceOnUse" r="1"><stop offset="0" stop-color="#4f4d4d"/><stop offset="1" stop-color="#4f4d4d" stop-opacity="0"/></radialGradient><radialGradient id="ai" cx="0" cy="0" gradientTransform="matrix(-2.06144038 -1.35581349 .99523438 -1.51319954 22.0352 2.95799)" gradientUnits="userSpaceOnUse" r="1"><stop offset="0" stop-color="#5e5a5b"/><stop offset="1" stop-color="#5e5a5b" stop-opacity="0"/></radialGradient><radialGradient id="aj" cx="0" cy="0" gradientTransform="matrix(.79099945 1.28903574 -2.98479984 1.8315823 17.6554 1.56642)" gradientUnits="userSpaceOnUse" r="1"><stop offset=".286771" stop-color="#484646"/><stop offset="1" stop-color="#484646" stop-opacity="0"/></radialGradient><radialGradient id="ak" cx="0" cy="0" gradientTransform="matrix(-1.92362 0 0 -.71393 18.6679 3.54108)" gradientUnits="userSpaceOnUse" r="1"><stop offset="0" stop-color="#423c3f"/><stop offset="1" stop-color="#423c3f" stop-opacity="0"/></radialGradient><radialGradient id="al" cx="0" cy="0" gradientTransform="matrix(2.81243618 -4.45303158 4.93350625 3.11589335 13.7003 6.9865)" gradientUnits="userSpaceOnUse" r="1"><stop offset=".0926981" stop-color="#0b0306"/><stop offset=".311222" stop-color="#1c0c20"/><stop offset="1" stop-color="#1c0c20" stop-opacity="0"/></radialGradient><radialGradient id="am" cx="0" cy="0" gradientTransform="matrix(2.83869513 .33179554 -.13891664 1.18850904 19.9737 5.58362)" gradientUnits="userSpaceOnUse" r="1"><stop offset="0" stop-color="#200e25"/><stop offset="1" stop-color="#200e25" stop-opacity="0"/></radialGradient><linearGradient id="an"><stop offset=".80198" stop-color="#7d574a"/><stop offset="1" stop-color="#694b43"/><stop offset="1" stop-color="#804d49"/><stop offset="1" stop-color="#664842"/></linearGradient><radialGradient id="ao" cx="0" cy="0" gradientTransform="matrix(0 .709032 -1.1278 0 20.3532 9.02479)" gradientUnits="userSpaceOnUse" r="1" xlink:href="#an"/><linearGradient id="ap"><stop offset=".765532" stop-color="#ffe6e2" stop-opacity="0"/><stop offset=".966159" stop-color="#ffe6e2"/></linearGradient><radialGradient id="aq" cx="0" cy="0" gradientTransform="matrix(-.20267871 -.26117885 .35958062 -.27903996 20.1538 9.09862)" gradientUnits="userSpaceOnUse" r="1" xlink:href="#ap"/><linearGradient id="ar"><stop offset="0" stop-color="#b4948d"/><stop offset="1" stop-color="#b4948d" stop-opacity="0"/></linearGradient><linearGradient id="as" gradientUnits="userSpaceOnUse" x1="21.0332" x2="20.759" xlink:href="#ar" y1="9.07197" y2="9.24091"/><radialGradient id="at" cx="0" cy="0" gradientTransform="matrix(0 .709069 -1.12785 0 16.5394 9.02481)" gradientUnits="userSpaceOnUse" r="1" xlink:href="#an"/><linearGradient id="au" gradientUnits="userSpaceOnUse" x1="17.1896" x2="16.9154" xlink:href="#ar" y1="9.0722" y2="9.24115"/><radialGradient id="av" cx="0" cy="0" gradientTransform="matrix(-.00676052 -.43179208 .51903139 -.00812641 16.2891 9.21633)" gradientUnits="userSpaceOnUse" r="1" xlink:href="#ap"/><linearGradient id="aw" gradientUnits="userSpaceOnUse" x1="24.0712" x2="23.0165" y1="9.09558" y2="10.9974"><stop offset="0" stop-color="#62504f"/><stop offset="1" stop-color="#492f32"/></linearGradient><radialGradient id="ax" cx="0" cy="0" gradientTransform="matrix(.54930659 1.96045795 -1.87042533 .52408008 22.4819 9.03699)" gradientUnits="userSpaceOnUse" r="1"><stop offset=".856273" stop-color="#301924" stop-opacity="0"/><stop offset="1" stop-color="#301924"/></radialGradient><radialGradient id="ay" cx="0" cy="0" gradientTransform="matrix(.68846176 -.94480239 .7919334 .57706868 22.7968 9.51305)" gradientUnits="userSpaceOnUse" r="1"><stop offset=".663731" stop-color="#351b1e"/><stop offset="1" stop-color="#351b1e" stop-opacity="0"/></radialGradient><radialGradient id="az" cx="0" cy="0" gradientTransform="matrix(.51299062 -1.35495057 1.81040085 .68542623 22.8964 9.66374)" gradientUnits="userSpaceOnUse" r="1"><stop offset=".803247" stop-color="#361c1e" stop-opacity="0"/><stop offset=".965916" stop-color="#361c1e"/></radialGradient><linearGradient id="aA" gradientUnits="userSpaceOnUse" x1="13.3342" x2="14.6086" y1="9.71073" y2="9.59943"><stop offset="0" stop-color="#372425"/><stop offset="1" stop-color="#281919"/></linearGradient><radialGradient id="aB" cx="0" cy="0" gradientTransform="matrix(-.36081865 1.81428882 -1.78360965 -.35471729 13.8469 9.1834)" gradientUnits="userSpaceOnUse" r="1"><stop offset=".77507" stop-color="#301929" stop-opacity="0"/><stop offset="1" stop-color="#301929"/></radialGradient><radialGradient id="aC" cx="0" cy="0" gradientTransform="matrix(-.80093417 .13748175 -.06063727 -.35325753 14.1515 9.59953)" gradientUnits="userSpaceOnUse" r="1"><stop offset="0" stop-color="#2c1d22"/><stop offset="1" stop-color="#271416"/></radialGradient><linearGradient id="aD" gradientUnits="userSpaceOnUse" x1="23.1798" x2="23.1798" y1="8.76221" y2="10.4256"><stop offset="0" stop-color="#4c3838"/><stop offset="1" stop-color="#3e2724"/></linearGradient><g filter="url(#a)"><path d="m16.8556 12.8061c-2.2041.6753-3.8859 3.2471-3.8859 5.6089v.7171c0 .241-.1726.4458-.4065.5034-2.86916.7055-5.01779 3.1066-5.01779 6.1486v1.2149c0 1.6567 1.34473 3 3.00359 3l10.1634.0117c.9676 0 1.6833-.7832 1.6833-1.75v-12.2334c0-1.2954-.8453-2.2378-2.0375-2.4868-.1537-.0323-.3086-.063-.4619-.0987-.2633-.061-.5222-.1362-.7636-.2563l-.0587-.0293c-.6944-.3462-1.4764-.5777-2.2184-.3501z" fill="#ff6428"/><path d="m16.8556 12.8061c-2.2041.6753-3.8859 3.2471-3.8859 5.6089v.7171c0 .241-.1726.4458-.4065.5034-2.86916.7055-5.01779 3.1066-5.01779 6.1486v1.2149c0 1.6567 1.34473 3 3.00359 3l10.1634.0117c.9676 0 1.6833-.7832 1.6833-1.75v-12.2334c0-1.2954-.8453-2.2378-2.0375-2.4868-.1537-.0323-.3086-.063-.4619-.0987-.2633-.061-.5222-.1362-.7636-.2563l-.0587-.0293c-.6944-.3462-1.4764-.5777-2.2184-.3501z" fill="url(#z)"/><path d="m16.8556 12.8061c-2.2041.6753-3.8859 3.2471-3.8859 5.6089v.7171c0 .241-.1726.4458-.4065.5034-2.86916.7055-5.01779 3.1066-5.01779 6.1486v1.2149c0 1.6567 1.34473 3 3.00359 3l10.1634.0117c.9676 0 1.6833-.7832 1.6833-1.75v-12.2334c0-1.2954-.8453-2.2378-2.0375-2.4868-.1537-.0323-.3086-.063-.4619-.0987-.2633-.061-.5222-.1362-.7636-.2563l-.0587-.0293c-.6944-.3462-1.4764-.5777-2.2184-.3501z" fill="url(#A)"/><path d="m16.8556 12.8061c-2.2041.6753-3.8859 3.2471-3.8859 5.6089v.7171c0 .241-.1726.4458-.4065.5034-2.86916.7055-5.01779 3.1066-5.01779 6.1486v1.2149c0 1.6567 1.34473 3 3.00359 3l10.1634.0117c.9676 0 1.6833-.7832 1.6833-1.75v-12.2334c0-1.2954-.8453-2.2378-2.0375-2.4868-.1537-.0323-.3086-.063-.4619-.0987-.2633-.061-.5222-.1362-.7636-.2563l-.0587-.0293c-.6944-.3462-1.4764-.5777-2.2184-.3501z" fill="url(#B)"/><path d="m16.8556 12.8061c-2.2041.6753-3.8859 3.2471-3.8859 5.6089v.7171c0 .241-.1726.4458-.4065.5034-2.86916.7055-5.01779 3.1066-5.01779 6.1486v1.2149c0 1.6567 1.34473 3 3.00359 3l10.1634.0117c.9676 0 1.6833-.7832 1.6833-1.75v-12.2334c0-1.2954-.8453-2.2378-2.0375-2.4868-.1537-.0323-.3086-.063-.4619-.0987-.2633-.061-.5222-.1362-.7636-.2563l-.0587-.0293c-.6944-.3462-1.4764-.5777-2.2184-.3501z" fill="url(#C)"/></g><g filter="url(#b)"><path d="m10.4691 29.0438c.1526-.0186.3001-.0384.4402-.0588 1.8866-.2245 3.5079-.3216 5.7386-2.2981 1.3251-1.174 2.4338-2.8959 3.2706-4.433.8534-1.5676 1.5028-3.0927 1.8679-3.9791.3498-.8491-.0224-1.835-.8311-2.2022-.8088-.3672-1.748.0235-2.0978.8726-.3493.848-.9437 2.2399-1.7095 3.6464-.7823 1.437-1.6436 2.7921-2.5338 3.5809-1.3658 1.2101-2.8565 1.7749-4.1451 2.0156-.51567.0964-1.13539-.2345-1.70441-.9473-.12384-.1551-.31168-.2384-.4939-.2158-.02856.2479-.04325.501-.04325.7588v1.2148c0 1.1636 1.31802 1.5476 2.24156 2.0452z" fill="#e23405"/></g><g filter="url(#c)"><path d="m21.6893 15.8538c.8491.3672 1.2397 1.3532.8726 2.2023-.3833.8863-1.0651 2.4114-1.961 3.979-.8786 1.5372-2.0425 3.259-3.4336 4.4331-2.3418 1.9764-4.7644 2.6984-6.7449 2.9229-.92924.1291-2.16929.2319-3.10898.1837-.45703-.0234-.73542-.2315-.78518-.4765-.03246-.1599.0133-.2865.06178-.3656-.21042-.0686-.36248-.2664-.36248-.4997 0-.1605.07197-.3042.1854-.4005-.15318-.0918-.25571-.2594-.25571-.451 0-.2902.23522-.5254.52539-.5254h.18056c-.15539-.0858-.26064-.2513-.26064-.4414 0-.2783.22561-.5039.50391-.5039h1.09708c-.11176-.1283-.19542-.2849-.25739-.4305-.10047-.2361.02416-.5062.25323-.6218.23648-.1194.52178-.0394.69193.1636.59738.7128 1.248 1.0436 1.7893.9473 1.3528-.2408 2.9178-.8056 4.3516-2.0157.9347-.7888 1.8389-2.1439 2.6602-3.5809.8038-1.4064 1.4279-2.7983 1.7946-3.6464.3672-.8491 1.3532-1.2397 2.2023-.8726z" fill="url(#D)"/><path d="m21.6893 15.8538c.8491.3672 1.2397 1.3532.8726 2.2023-.3833.8863-1.0651 2.4114-1.961 3.979-.8786 1.5372-2.0425 3.259-3.4336 4.4331-2.3418 1.9764-4.7644 2.6984-6.7449 2.9229-.92924.1291-2.16929.2319-3.10898.1837-.45703-.0234-.73542-.2315-.78518-.4765-.03246-.1599.0133-.2865.06178-.3656-.21042-.0686-.36248-.2664-.36248-.4997 0-.1605.07197-.3042.1854-.4005-.15318-.0918-.25571-.2594-.25571-.451 0-.2902.23522-.5254.52539-.5254h.18056c-.15539-.0858-.26064-.2513-.26064-.4414 0-.2783.22561-.5039.50391-.5039h1.09708c-.11176-.1283-.19542-.2849-.25739-.4305-.10047-.2361.02416-.5062.25323-.6218.23648-.1194.52178-.0394.69193.1636.59738.7128 1.248 1.0436 1.7893.9473 1.3528-.2408 2.9178-.8056 4.3516-2.0157.9347-.7888 1.8389-2.1439 2.6602-3.5809.8038-1.4064 1.4279-2.7983 1.7946-3.6464.3672-.8491 1.3532-1.2397 2.2023-.8726z" fill="url(#E)"/><path d="m21.6893 15.8538c.8491.3672 1.2397 1.3532.8726 2.2023-.3833.8863-1.0651 2.4114-1.961 3.979-.8786 1.5372-2.0425 3.259-3.4336 4.4331-2.3418 1.9764-4.7644 2.6984-6.7449 2.9229-.92924.1291-2.16929.2319-3.10898.1837-.45703-.0234-.73542-.2315-.78518-.4765-.03246-.1599.0133-.2865.06178-.3656-.21042-.0686-.36248-.2664-.36248-.4997 0-.1605.07197-.3042.1854-.4005-.15318-.0918-.25571-.2594-.25571-.451 0-.2902.23522-.5254.52539-.5254h.18056c-.15539-.0858-.26064-.2513-.26064-.4414 0-.2783.22561-.5039.50391-.5039h1.09708c-.11176-.1283-.19542-.2849-.25739-.4305-.10047-.2361.02416-.5062.25323-.6218.23648-.1194.52178-.0394.69193.1636.59738.7128 1.248 1.0436 1.7893.9473 1.3528-.2408 2.9178-.8056 4.3516-2.0157.9347-.7888 1.8389-2.1439 2.6602-3.5809.8038-1.4064 1.4279-2.7983 1.7946-3.6464.3672-.8491 1.3532-1.2397 2.2023-.8726z" fill="url(#F)"/></g><g filter="url(#d)"><path d="m22.665 18.3873c.3907-1.0898-.1266-2.1663-.9757-2.5335-.8491-.3671-1.8351.0235-2.2023.8726-.2662.6157-.5329 1.241-1.0407 2.2273l3.0469 1.9454c.5666-1.0984.924-1.8203 1.1718-2.5118z" fill="url(#G)"/><path d="m22.665 18.3873c.3907-1.0898-.1266-2.1663-.9757-2.5335-.8491-.3671-1.8351.0235-2.2023.8726-.2662.6157-.5329 1.241-1.0407 2.2273l3.0469 1.9454c.5666-1.0984.924-1.8203 1.1718-2.5118z" fill="url(#H)"/></g><g filter="url(#e)"><path d="m6.94629 26.8755h1.24219" stroke="url(#J)" stroke-linecap="round" stroke-width=".1"/></g><g filter="url(#f)"><path d="m6.5791 27.813h1.24219" stroke="url(#K)" stroke-linecap="round" stroke-width=".1"/></g><g filter="url(#g)"><path d="m6.7666 28.7114h1.24219" stroke="url(#L)" stroke-linecap="round" stroke-width=".1"/></g><path d="m22.6947 10.9181c.293-.0095.5673-.1088.7905-.2697v.8137c0 .7805-.465 1.4759-1.1718 1.7644.1488-.3169.2511-.6622.3022-1.0312z" fill="url(#M)"/><path d="m14.1981 10.9181c-.2929-.0095-.5673-.1088-.7905-.2697v.8137c0 .7805.465 1.4759 1.1718 1.7644-.1488-.3169-.2511-.6622-.3022-1.0312z" fill="url(#N)"/><g filter="url(#h)"><path d="m14.2296 12.2418c.2248 1.7062 1.6768 2.9765 3.3958 2.9765h1.6487c1.719 0 3.171-1.2703 3.3958-2.9765.1031-1.6462.2068-3.28578.2833-4.93112-.0093-.6703-.5377-1.22341-1.2051-1.25153h-1.2237c-.8343 0-1.5898-.49218-1.9328-1.26092-.0881-.2203-.3013-.36561-.5377-.36561h-1.1124c-1.613 0-2.9201 1.32184-2.9201 2.95305 0 1.62614.1015 3.22593.2082 4.85613z" fill="url(#O)"/></g><path d="m14.2296 12.2418c.2248 1.7062 1.6768 2.9765 3.3958 2.9765h1.6487c1.719 0 3.171-1.2703 3.3958-2.9765.1031-1.6462.2068-3.28578.2833-4.93112-.0093-.6703-.5377-1.22341-1.2051-1.25153h-1.2237c-.8343 0-1.5898-.49218-1.9328-1.26092-.0881-.2203-.3013-.36561-.5377-.36561h-1.1124c-1.613 0-2.9201 1.32184-2.9201 2.95305 0 1.62614.1015 3.22593.2082 4.85613z" fill="url(#P)"/><path d="m14.2296 12.2418c.2248 1.7062 1.6768 2.9765 3.3958 2.9765h1.6487c1.719 0 3.171-1.2703 3.3958-2.9765.1031-1.6462.2068-3.28578.2833-4.93112-.0093-.6703-.5377-1.22341-1.2051-1.25153h-1.2237c-.8343 0-1.5898-.49218-1.9328-1.26092-.0881-.2203-.3013-.36561-.5377-.36561h-1.1124c-1.613 0-2.9201 1.32184-2.9201 2.95305 0 1.62614.1015 3.22593.2082 4.85613z" fill="url(#Q)"/><path d="m14.2296 12.2418c.2248 1.7062 1.6768 2.9765 3.3958 2.9765h1.6487c1.719 0 3.171-1.2703 3.3958-2.9765.1031-1.6462.2068-3.28578.2833-4.93112-.0093-.6703-.5377-1.22341-1.2051-1.25153h-1.2237c-.8343 0-1.5898-.49218-1.9328-1.26092-.0881-.2203-.3013-.36561-.5377-.36561h-1.1124c-1.613 0-2.9201 1.32184-2.9201 2.95305 0 1.62614.1015 3.22593.2082 4.85613z" fill="url(#R)"/><path d="m14.2296 12.2418c.2248 1.7062 1.6768 2.9765 3.3958 2.9765h1.6487c1.719 0 3.171-1.2703 3.3958-2.9765.1031-1.6462.2068-3.28578.2833-4.93112-.0093-.6703-.5377-1.22341-1.2051-1.25153h-1.2237c-.8343 0-1.5898-.49218-1.9328-1.26092-.0881-.2203-.3013-.36561-.5377-.36561h-1.1124c-1.613 0-2.9201 1.32184-2.9201 2.95305 0 1.62614.1015 3.22593.2082 4.85613z" fill="url(#S)"/><path d="m14.2296 12.2418c.2248 1.7062 1.6768 2.9765 3.3958 2.9765h1.6487c1.719 0 3.171-1.2703 3.3958-2.9765.1031-1.6462.2068-3.28578.2833-4.93112-.0093-.6703-.5377-1.22341-1.2051-1.25153h-1.2237c-.8343 0-1.5898-.49218-1.9328-1.26092-.0881-.2203-.3013-.36561-.5377-.36561h-1.1124c-1.613 0-2.9201 1.32184-2.9201 2.95305 0 1.62614.1015 3.22593.2082 4.85613z" fill="url(#T)"/><path d="m14.2296 12.2418c.2248 1.7062 1.6768 2.9765 3.3958 2.9765h1.6487c1.719 0 3.171-1.2703 3.3958-2.9765.1031-1.6462.2068-3.28578.2833-4.93112-.0093-.6703-.5377-1.22341-1.2051-1.25153h-1.2237c-.8343 0-1.5898-.49218-1.9328-1.26092-.0881-.2203-.3013-.36561-.5377-.36561h-1.1124c-1.613 0-2.9201 1.32184-2.9201 2.95305 0 1.62614.1015 3.22593.2082 4.85613z" fill="url(#U)"/><path d="m14.2296 12.2418c.2248 1.7062 1.6768 2.9765 3.3958 2.9765h1.6487c1.719 0 3.171-1.2703 3.3958-2.9765.1031-1.6462.2068-3.28578.2833-4.93112-.0093-.6703-.5377-1.22341-1.2051-1.25153h-1.2237c-.8343 0-1.5898-.49218-1.9328-1.26092-.0881-.2203-.3013-.36561-.5377-.36561h-1.1124c-1.613 0-2.9201 1.32184-2.9201 2.95305 0 1.62614.1015 3.22593.2082 4.85613z" fill="url(#V)"/><path d="m14.2296 12.2418c.2248 1.7062 1.6768 2.9765 3.3958 2.9765h1.6487c1.719 0 3.171-1.2703 3.3958-2.9765.1031-1.6462.2068-3.28578.2833-4.93112-.0093-.6703-.5377-1.22341-1.2051-1.25153h-1.2237c-.8343 0-1.5898-.49218-1.9328-1.26092-.0881-.2203-.3013-.36561-.5377-.36561h-1.1124c-1.613 0-2.9201 1.32184-2.9201 2.95305 0 1.62614.1015 3.22593.2082 4.85613z" fill="url(#W)"/><path d="m14.2296 12.2418c.2248 1.7062 1.6768 2.9765 3.3958 2.9765h1.6487c1.719 0 3.171-1.2703 3.3958-2.9765.1031-1.6462.2068-3.28578.2833-4.93112-.0093-.6703-.5377-1.22341-1.2051-1.25153h-1.2237c-.8343 0-1.5898-.49218-1.9328-1.26092-.0881-.2203-.3013-.36561-.5377-.36561h-1.1124c-1.613 0-2.9201 1.32184-2.9201 2.95305 0 1.62614.1015 3.22593.2082 4.85613z" fill="url(#X)"/><g filter="url(#i)"><path d="m18.0957 9.37238-.5163 1.60662c-.0882.3304.1235.6609.4233.6609h.6395c.2999 0 .5115-.3356.4233-.6609l-.4321-1.60662c-.0926-.35588-.4407-.35588-.5377 0z" fill="#331e24"/></g><g filter="url(#j)"><path d="m18.1123 9.201-.4645 1.6066c-.0948.3304.1327.6609.455.6609h.6872c.3223 0 .5498-.3355.455-.6609l-.4645-1.6066c-.0995-.35589-.564-.35589-.6682 0z" fill="#402929"/><path d="m18.1123 9.201-.4645 1.6066c-.0948.3304.1327.6609.455.6609h.6872c.3223 0 .5498-.3355.455-.6609l-.4645-1.6066c-.0995-.35589-.564-.35589-.6682 0z" fill="url(#Y)"/><path d="m18.1123 9.201-.4645 1.6066c-.0948.3304.1327.6609.455.6609h.6872c.3223 0 .5498-.3355.455-.6609l-.4645-1.6066c-.0995-.35589-.564-.35589-.6682 0z" fill="url(#Z)"/><path d="m18.1123 9.201-.4645 1.6066c-.0948.3304.1327.6609.455.6609h.6872c.3223 0 .5498-.3355.455-.6609l-.4645-1.6066c-.0995-.35589-.564-.35589-.6682 0z" fill="url(#aa)"/><path d="m18.1123 9.201-.4645 1.6066c-.0948.3304.1327.6609.455.6609h.6872c.3223 0 .5498-.3355.455-.6609l-.4645-1.6066c-.0995-.35589-.564-.35589-.6682 0z" fill="url(#ab)"/><path d="m18.1123 9.201-.4645 1.6066c-.0948.3304.1327.6609.455.6609h.6872c.3223 0 .5498-.3355.455-.6609l-.4645-1.6066c-.0995-.35589-.564-.35589-.6682 0z" fill="url(#ac)"/></g><g filter="url(#k)"><path d="m17.2702 12.0037c.3392.1769.7442.2785 1.1761.2785.4362 0 .8367-.1016 1.1761-.2785l.0006-.0004c.0922-.0468.1895-.0195.2477.041.0592.0614.0812.1608.0218.25m-2.6223-.2906 2.5598.2491m-2.5598-.2491-.0007-.0004c-.0933-.0474-.1906-.0175-.248.043-.0579.0608-.0817.1604-.0211.2485m.2698-.2911-.2077.2491m2.83.0415s-.0001.0001-.0001.0002l-.0624-.0417m.0625.0415c0-.0001.0001-.0001.0001-.0001l-.0626-.0414m.0625.0415c-.3062.4639-.8394.7729-1.4462.7729-.6067 0-1.1397-.3087-1.4459-.7724m2.8296-.042c-.2927.4436-.8027.7394-1.3837.7394s-1.0911-.2958-1.3838-.7394m-.0621.042c.0001.0003.0003.0005.0005.0008l.0616-.0428m-.0621.042c-.0002-.0002-.0003-.0004-.0005-.0006l.0626-.0414" stroke="url(#ad)" stroke-width=".15"/></g><path d="m18.4463 12.3572c-.4435 0-.8604-.1044-1.2108-.287-.1198-.0609-.2484.0739-.173.1826.2927.4436.8028.7394 1.3838.7394s1.091-.2958 1.3837-.7394c.0754-.113-.0532-.2435-.173-.1826-.3503.1826-.7628.287-1.2107.287z" fill="url(#ae)"/><g filter="url(#l)"><path d="m22.6892 4.02027c.4496.15469.8529.46874 1.1078.91873.4079.71718.3476 1.57497-.0927 2.20777-.153.22499-.2364.49218-.2364.76405v1.03825c-.1635-.11387-.3791-.19829-.5831-.23437l.0686-1.40387c-.0093-.6703-.5377-1.22341-1.2051-1.25154h-1.2237c-.8343 0-1.5898-.49218-1.9328-1.26091-.0881-.22031-.3013-.36562-.5377-.36562h-1.1124c-1.6131 0-2.9202 1.32185-2.9202 2.95307l.0268 1.34352c-.2219.03262-.4538.10681-.6293.23043v-1.04896c0-.27187-.0835-.53906-.2364-.76405-.4172-.61405-.4913-1.43903-.1252-2.13746.255-.4828.6675-.82029 1.1356-.98435.5006-.17812.9271-.51561 1.2098-.97029.3615-.57655.9966-.96092 1.7243-.96092.2827 0 .5515.06094.8018.16406.3338.14531.7092.14531 1.0429 0 .2457-.10312.5145-.16406.7973-.16406.737 0 1.3812.39843 1.7381.98904.2689.4453.6907.76874 1.182.93748z" fill="url(#af)"/><path d="m22.6892 4.02027c.4496.15469.8529.46874 1.1078.91873.4079.71718.3476 1.57497-.0927 2.20777-.153.22499-.2364.49218-.2364.76405v1.03825c-.1635-.11387-.3791-.19829-.5831-.23437l.0686-1.40387c-.0093-.6703-.5377-1.22341-1.2051-1.25154h-1.2237c-.8343 0-1.5898-.49218-1.9328-1.26091-.0881-.22031-.3013-.36562-.5377-.36562h-1.1124c-1.6131 0-2.9202 1.32185-2.9202 2.95307l.0268 1.34352c-.2219.03262-.4538.10681-.6293.23043v-1.04896c0-.27187-.0835-.53906-.2364-.76405-.4172-.61405-.4913-1.43903-.1252-2.13746.255-.4828.6675-.82029 1.1356-.98435.5006-.17812.9271-.51561 1.2098-.97029.3615-.57655.9966-.96092 1.7243-.96092.2827 0 .5515.06094.8018.16406.3338.14531.7092.14531 1.0429 0 .2457-.10312.5145-.16406.7973-.16406.737 0 1.3812.39843 1.7381.98904.2689.4453.6907.76874 1.182.93748z" fill="url(#ag)"/><path d="m22.6892 4.02027c.4496.15469.8529.46874 1.1078.91873.4079.71718.3476 1.57497-.0927 2.20777-.153.22499-.2364.49218-.2364.76405v1.03825c-.1635-.11387-.3791-.19829-.5831-.23437l.0686-1.40387c-.0093-.6703-.5377-1.22341-1.2051-1.25154h-1.2237c-.8343 0-1.5898-.49218-1.9328-1.26091-.0881-.22031-.3013-.36562-.5377-.36562h-1.1124c-1.6131 0-2.9202 1.32185-2.9202 2.95307l.0268 1.34352c-.2219.03262-.4538.10681-.6293.23043v-1.04896c0-.27187-.0835-.53906-.2364-.76405-.4172-.61405-.4913-1.43903-.1252-2.13746.255-.4828.6675-.82029 1.1356-.98435.5006-.17812.9271-.51561 1.2098-.97029.3615-.57655.9966-.96092 1.7243-.96092.2827 0 .5515.06094.8018.16406.3338.14531.7092.14531 1.0429 0 .2457-.10312.5145-.16406.7973-.16406.737 0 1.3812.39843 1.7381.98904.2689.4453.6907.76874 1.182.93748z" fill="url(#ah)"/><path d="m22.6892 4.02027c.4496.15469.8529.46874 1.1078.91873.4079.71718.3476 1.57497-.0927 2.20777-.153.22499-.2364.49218-.2364.76405v1.03825c-.1635-.11387-.3791-.19829-.5831-.23437l.0686-1.40387c-.0093-.6703-.5377-1.22341-1.2051-1.25154h-1.2237c-.8343 0-1.5898-.49218-1.9328-1.26091-.0881-.22031-.3013-.36562-.5377-.36562h-1.1124c-1.6131 0-2.9202 1.32185-2.9202 2.95307l.0268 1.34352c-.2219.03262-.4538.10681-.6293.23043v-1.04896c0-.27187-.0835-.53906-.2364-.76405-.4172-.61405-.4913-1.43903-.1252-2.13746.255-.4828.6675-.82029 1.1356-.98435.5006-.17812.9271-.51561 1.2098-.97029.3615-.57655.9966-.96092 1.7243-.96092.2827 0 .5515.06094.8018.16406.3338.14531.7092.14531 1.0429 0 .2457-.10312.5145-.16406.7973-.16406.737 0 1.3812.39843 1.7381.98904.2689.4453.6907.76874 1.182.93748z" fill="url(#ai)"/><path d="m22.6892 4.02027c.4496.15469.8529.46874 1.1078.91873.4079.71718.3476 1.57497-.0927 2.20777-.153.22499-.2364.49218-.2364.76405v1.03825c-.1635-.11387-.3791-.19829-.5831-.23437l.0686-1.40387c-.0093-.6703-.5377-1.22341-1.2051-1.25154h-1.2237c-.8343 0-1.5898-.49218-1.9328-1.26091-.0881-.22031-.3013-.36562-.5377-.36562h-1.1124c-1.6131 0-2.9202 1.32185-2.9202 2.95307l.0268 1.34352c-.2219.03262-.4538.10681-.6293.23043v-1.04896c0-.27187-.0835-.53906-.2364-.76405-.4172-.61405-.4913-1.43903-.1252-2.13746.255-.4828.6675-.82029 1.1356-.98435.5006-.17812.9271-.51561 1.2098-.97029.3615-.57655.9966-.96092 1.7243-.96092.2827 0 .5515.06094.8018.16406.3338.14531.7092.14531 1.0429 0 .2457-.10312.5145-.16406.7973-.16406.737 0 1.3812.39843 1.7381.98904.2689.4453.6907.76874 1.182.93748z" fill="url(#aj)"/></g><g filter="url(#m)"><path d="m21.7087 7.22169c-.1531-.13335-.3311-.27464-.6008-.35954-.2659-.0837-.5989-.10619-1.0596-.04982-.1329.01625-.2274.13713-.2112.27.0163.13286.1372.22739.27.21113.4206-.05144.6782-.02471.8552.03104.1733.05455.2906.14294.4281.26271.1009.08791.254.07736.3419-.02358.0879-.10093.0774-.25402-.0236-.34194z" fill="#202020"/></g><g filter="url(#n)"><path d="m15.4654 7.12621c.0788-.04714.1921-.10744.3352-.16371.2862-.11252.6951-.21023 1.1845-.15036.1329.01625.2274.13713.2111.27-.0162.13286-.1371.22739-.27.21113-.3918-.04794-.7188.03012-.9482.12034-.1147.0451-.2041.0929-.2637.12852-.0297.01777-.0517.03241-.0656.04198-.0069.00479-.0118.0083-.0145.01029l-.0024.00179c-.1056.08144-.2573.06225-.3393-.04313-.0822-.10566-.0631-.25793.0425-.34011z" fill="#202020"/></g><g filter="url(#o)"><path d="m18.6495 4.91822c-.0204-.03906-.0397-.07893-.0578-.11956-.0881-.22031-.3013-.36562-.5377-.36562h-1.1124c-1.6131 0-2.9202 1.32185-2.9202 2.95306v.24048c-.2971-.22613-.6708-.70312-.6708-1.47502 0-.9367.6832-1.41018 1.1189-1.71219.1231-.08527.2264-.15687.289-.22136.0267-.0274.0556-.05814.0871-.09156.3055-.32399.8498-.90125 1.8002-1.15353.4238-.11251.8528-.14747 1.2153-.14571.4728.0023.8068.41092.8068.88377v1.19549z" fill="#23181c"/><path d="m18.6495 4.91822c-.0204-.03906-.0397-.07893-.0578-.11956-.0881-.22031-.3013-.36562-.5377-.36562h-1.1124c-1.6131 0-2.9202 1.32185-2.9202 2.95306v.24048c-.2971-.22613-.6708-.70312-.6708-1.47502 0-.9367.6832-1.41018 1.1189-1.71219.1231-.08527.2264-.15687.289-.22136.0267-.0274.0556-.05814.0871-.09156.3055-.32399.8498-.90125 1.8002-1.15353.4238-.11251.8528-.14747 1.2153-.14571.4728.0023.8068.41092.8068.88377v1.19549z" fill="url(#ak)"/><path d="m18.6495 4.91822c-.0204-.03906-.0397-.07893-.0578-.11956-.0881-.22031-.3013-.36562-.5377-.36562h-1.1124c-1.6131 0-2.9202 1.32185-2.9202 2.95306v.24048c-.2971-.22613-.6708-.70312-.6708-1.47502 0-.9367.6832-1.41018 1.1189-1.71219.1231-.08527.2264-.15687.289-.22136.0267-.0274.0556-.05814.0871-.09156.3055-.32399.8498-.90125 1.8002-1.15353.4238-.11251.8528-.14747 1.2153-.14571.4728.0023.8068.41092.8068.88377v1.19549z" fill="url(#al)"/></g><g filter="url(#p)"><path d="m23.0018 7.77274-.0255-.55162c-.0093-.6672-.5606-1.21776-1.2281-1.24576h-1.2237c-.7768 0-1.4853-.42469-1.8561-1.10084 0 0-.0168-.03892-.0412-.11035-.3248-.94905.6192-1.70674 1.6-1.4967.795.17025 1.6632.4468 2.3194.87483 1.5246.9944 1.2577 2.78651.4552 3.63044z" fill="#1f151b"/><path d="m23.0018 7.77274-.0255-.55162c-.0093-.6672-.5606-1.21776-1.2281-1.24576h-1.2237c-.7768 0-1.4853-.42469-1.8561-1.10084 0 0-.0168-.03892-.0412-.11035-.3248-.94905.6192-1.70674 1.6-1.4967.795.17025 1.6632.4468 2.3194.87483 1.5246.9944 1.2577 2.78651.4552 3.63044z" fill="url(#am)"/></g><path d="m20.536 8.37061c.5707 0 1.0529.39351 1.184.92528.039.15244-.078.2978-.2339.2978h-1.9499c-.1241 0-.2233-.11345-.1985-.23753.1099-.56014.6027-.98555 1.1983-.98555z" fill="#fff"/><path d="m20.355 8.60791c.4325 0 .7799.35097.7799.77994 0 .0709-.0106.1418-.0283.20562h-1.5067c-.0177-.06736-.0284-.13472-.0284-.20562 0-.42897.351-.77994.7835-.77994z" fill="url(#ao)"/><path d="m19.9084 9.3881c0-.24816.1986-.44669.4467-.44669.2482 0 .4467.19853.4467.44669 0 .07445-.0177.14535-.0496.20562h-.7906c-.0354-.06027-.0532-.13117-.0532-.20562z" fill="#000"/><g filter="url(#q)"><path d="m20.2976 8.77309c.0556.07432-.0606.16493-.1926.26367-.1321.09874-.2301.16822-.2856.0939-.0556-.07432.0064-.21461.1385-.31335.132-.09874.2841-.11854.3397-.04422z" fill="#c7a7a3"/><path d="m20.2976 8.77309c.0556.07432-.0606.16493-.1926.26367-.1321.09874-.2301.16822-.2856.0939-.0556-.07432.0064-.21461.1385-.31335.132-.09874.2841-.11854.3397-.04422z" fill="url(#aq)"/></g><g filter="url(#r)"><path d="m21.0498 9.28523c-.0288-.20163-.1468-.35359-.2022-.40437l-.2271.24927.1025.19941z" fill="url(#as)"/></g><path d="m16.357 8.37061c-.5708 0-1.053.39353-1.1842.92533-.039.15245.078.29781.234.29781h1.95c.1241 0 .2233-.11345.1985-.23754-.1099-.56016-.6062-.9856-1.1983-.9856z" fill="#fff"/><path d="m16.5377 8.60791c-.4326 0-.78.35099-.78.77998 0 .0709.0106.14181.0284.20563h1.5067c.0178-.06737.0284-.13473.0284-.20563-.0036-.42899-.351-.77998-.7835-.77998z" fill="url(#at)"/><path d="m16.9845 9.38812c0-.24817-.1985-.44671-.4467-.44671s-.4467.19854-.4467.44671c0 .07445.0177.14536.0496.20563h.7906c.0319-.06027.0532-.13118.0532-.20563z" fill="#000"/><g filter="url(#s)"><path d="m17.2503 9.29655c0-.25205-.2049-.42009-.2603-.47087l-.2521.24375.1551.31575z" fill="url(#au)"/></g><g filter="url(#t)"><ellipse cx="16.3023" cy="8.94111" fill="#c7a7a3" fill-opacity=".9" rx=".340501" ry=".172325" transform="matrix(.88365127 -.46814574 .46814574 .88365127 -2.288991 8.672139)"/><ellipse cx="16.3023" cy="8.94111" fill="url(#av)" rx=".340501" ry=".172325" transform="matrix(.88365127 -.46814574 .46814574 .88365127 -2.288991 8.672139)"/></g><path d="m22.7477 10.9974c.0575-.93.1129-1.85888.1613-2.7889.6603.11553 1.1622.69172 1.1622 1.38512 0 .74888-.5854 1.36098-1.3235 1.40378z" fill="url(#aw)"/><path d="m22.7477 10.9974c.0575-.93.1129-1.85888.1613-2.7889.6603.11553 1.1622.69172 1.1622 1.38512 0 .74888-.5854 1.36098-1.3235 1.40378z" fill="url(#ax)"/><path d="m22.7477 10.9974c.0575-.93.1129-1.85888.1613-2.7889.6603.11553 1.1622.69172 1.1622 1.38512 0 .74888-.5854 1.36098-1.3235 1.40378z" fill="url(#ay)"/><path d="m22.7477 10.9974c.0575-.93.1129-1.85888.1613-2.7889.6603.11553 1.1622.69172 1.1622 1.38512 0 .74888-.5854 1.36098-1.3235 1.40378z" fill="url(#az)"/><path d="m14.0296 8.20117c-.6828.09628-1.2081.68299-1.2081 1.39238 0 .75075.5884 1.36415 1.3291 1.40415-.0564-.9339-.1029-1.86239-.121-2.79653z" fill="url(#aA)"/><path d="m14.0296 8.20117c-.6828.09628-1.2081.68299-1.2081 1.39238 0 .75075.5884 1.36415 1.3291 1.40415-.0564-.9339-.1029-1.86239-.121-2.79653z" fill="url(#aB)"/><g filter="url(#u)"><path d="m14.0021 8.77832c-.3729.0836-.6515.41662-.6515.81472 0 .42366.3155.77356.7244.82766-.0303-.54775-.0559-1.09449-.0729-1.64238z" fill="url(#aC)"/></g><g filter="url(#v)"><path d="m22.7662 10.4256c.0337-.55455.0663-1.10885.0967-1.66339.4118.05138.7305.40271.7305.82847 0 .45852-.3696.83072-.8272.83492z" fill="url(#aD)"/></g><g filter="url(#w)"><path d="m15.4985 7.37069c.2246-.16113.7844-.44456 1.4465-.33324" stroke="#353535" stroke-linecap="round" stroke-width=".2"/></g><g filter="url(#x)"><path d="m21.5583 7.33065c-.2246-.16113-.7844-.44456-1.4465-.33324" stroke="#353535" stroke-linecap="round" stroke-width=".2"/></g><g filter="url(#y)"><path d="m22.1106 4.93297h-1.8186c-.233 0-.4218-.18883-.4218-.42178 0-.25984.2326-.45908.4892-.41819.4718.07519 1.0984.18001 1.518.28404.9487.23522 1.2106.69707 1.2838 1.02637-.3387-.41398-.8415-.48612-1.0506-.47044z" fill="#504a4c"/></g></svg>