<svg fill="none" height="32" viewBox="0 0 32 32" width="32" xmlns="http://www.w3.org/2000/svg" xmlns:xlink="http://www.w3.org/1999/xlink"><filter id="a" color-interpolation-filters="sRGB" filterUnits="userSpaceOnUse" height="8.47092" width="20.9328" x="5.6" y="21.529"><feFlood flood-opacity="0" result="BackgroundImageFix"/><feBlend in="SourceGraphic" in2="BackgroundImageFix" mode="normal" result="shape"/><feColorMatrix in="SourceAlpha" result="hardAlpha" type="matrix" values="0 0 0 0 0 0 0 0 0 0 0 0 0 0 0 0 0 0 127 0"/><feOffset dx=".4"/><feGaussianBlur stdDeviation=".4"/><feComposite in2="hardAlpha" k2="-1" k3="1" operator="arithmetic"/><feColorMatrix type="matrix" values="0 0 0 0 0.258824 0 0 0 0 0.247059 0 0 0 0 0.278431 0 0 0 1 0"/><feBlend in2="shape" mode="normal" result="effect1_innerShadow_18_9266"/><feColorMatrix in="SourceAlpha" result="hardAlpha" type="matrix" values="0 0 0 0 0 0 0 0 0 0 0 0 0 0 0 0 0 0 127 0"/><feOffset dx="-.4"/><feGaussianBlur stdDeviation=".4"/><feComposite in2="hardAlpha" k2="-1" k3="1" operator="arithmetic"/><feColorMatrix type="matrix" values="0 0 0 0 0.258824 0 0 0 0 0.247059 0 0 0 0 0.278431 0 0 0 1 0"/><feBlend in2="effect1_innerShadow_18_9266" mode="normal" result="effect2_innerShadow_18_9266"/><feColorMatrix in="SourceAlpha" result="hardAlpha" type="matrix" values="0 0 0 0 0 0 0 0 0 0 0 0 0 0 0 0 0 0 127 0"/><feOffset dy="-.15"/><feGaussianBlur stdDeviation=".2"/><feComposite in2="hardAlpha" k2="-1" k3="1" operator="arithmetic"/><feColorMatrix type="matrix" values="0 0 0 0 0.345098 0 0 0 0 0.12549 0 0 0 0 0.572549 0 0 0 1 0"/><feBlend in2="effect2_innerShadow_18_9266" mode="normal" result="effect3_innerShadow_18_9266"/></filter><filter id="b" color-interpolation-filters="sRGB" filterUnits="userSpaceOnUse" height="12.5481" width="13.5864" x="9.27332" y="4.18604"><feFlood flood-opacity="0" result="BackgroundImageFix"/><feBlend in="SourceGraphic" in2="BackgroundImageFix" mode="normal" result="shape"/><feColorMatrix in="SourceAlpha" result="hardAlpha" type="matrix" values="0 0 0 0 0 0 0 0 0 0 0 0 0 0 0 0 0 0 127 0"/><feOffset dx="-.75"/><feGaussianBlur stdDeviation=".6"/><feComposite in2="hardAlpha" k2="-1" k3="1" operator="arithmetic"/><feColorMatrix type="matrix" values="0 0 0 0 0.164706 0 0 0 0 0.533333 0 0 0 0 0.713726 0 0 0 1 0"/><feBlend in2="shape" mode="normal" result="effect1_innerShadow_18_9266"/><feColorMatrix in="SourceAlpha" result="hardAlpha" type="matrix" values="0 0 0 0 0 0 0 0 0 0 0 0 0 0 0 0 0 0 127 0"/><feOffset dy=".5"/><feGaussianBlur stdDeviation=".625"/><feComposite in2="hardAlpha" k2="-1" k3="1" operator="arithmetic"/><feColorMatrix type="matrix" values="0 0 0 0 0.247059 0 0 0 0 0.737255 0 0 0 0 1 0 0 0 1 0"/><feBlend in2="effect1_innerShadow_18_9266" mode="normal" result="effect2_innerShadow_18_9266"/><feColorMatrix in="SourceAlpha" result="hardAlpha" type="matrix" values="0 0 0 0 0 0 0 0 0 0 0 0 0 0 0 0 0 0 127 0"/><feOffset dx=".75"/><feGaussianBlur stdDeviation=".6"/><feComposite in2="hardAlpha" k2="-1" k3="1" operator="arithmetic"/><feColorMatrix type="matrix" values="0 0 0 0 0.466667 0 0 0 0 1 0 0 0 0 1 0 0 0 1 0"/><feBlend in2="effect2_innerShadow_18_9266" mode="normal" result="effect3_innerShadow_18_9266"/></filter><filter id="c" color-interpolation-filters="sRGB" filterUnits="userSpaceOnUse" height=".899805" width="3.73892" x="14.0701" y="18.1436"><feFlood flood-opacity="0" result="BackgroundImageFix"/><feBlend in="SourceGraphic" in2="BackgroundImageFix" mode="normal" result="shape"/><feGaussianBlur result="effect1_foregroundBlur_18_9266" stdDeviation=".15"/></filter><filter id="d" color-interpolation-filters="sRGB" filterUnits="userSpaceOnUse" height="2" width="19.842" x="6.22449" y="27.9468"><feFlood flood-opacity="0" result="BackgroundImageFix"/><feBlend in="SourceGraphic" in2="BackgroundImageFix" mode="normal" result="shape"/><feGaussianBlur result="effect1_foregroundBlur_18_9266" stdDeviation=".375"/></filter><linearGradient id="e" gradientUnits="userSpaceOnUse" x1="16.0664" x2="16.0664" y1="22.989" y2="29.9999"><stop offset=".605085" stop-color="#0c0e1c"/><stop offset="1" stop-color="#56228e"/></linearGradient><radialGradient id="f" cx="0" cy="0" gradientTransform="matrix(-14.52152642 19.24973751 -14.49398387 -10.93390336 23.4695 5.22035)" gradientUnits="userSpaceOnUse" r="1"><stop offset=".0326063" stop-color="#b9b9ba"/><stop offset="1" stop-color="#706e72"/></radialGradient><linearGradient id="g" gradientUnits="userSpaceOnUse" x1="7.06653" x2="14.0005" y1="17.5469" y2="16.3404"><stop offset=".641958" stop-color="#6c6672"/><stop offset="1" stop-color="#665f70" stop-opacity="0"/></linearGradient><radialGradient id="h" cx="0" cy="0" gradientTransform="matrix(0 -7.47191 6.30543 0 16.0665 25.1877)" gradientUnits="userSpaceOnUse" r="1"><stop offset="0" stop-color="#7e6695"/><stop offset="1" stop-color="#7e6695" stop-opacity="0"/></radialGradient><linearGradient id="i" gradientUnits="userSpaceOnUse" x1="25.0666" x2="23.64" y1="8.80851" y2="16.0622"><stop offset="0" stop-color="#67a4f4"/><stop offset="1" stop-color="#5783e8"/></linearGradient><linearGradient id="j" gradientUnits="userSpaceOnUse" x1="7.06628" x2="9.91934" y1="14.5496" y2="14.5496"><stop offset="0" stop-color="#505f9a"/><stop offset="1" stop-color="#354c9d"/></linearGradient><radialGradient id="k" cx="0" cy="0" gradientTransform="matrix(1.72807078 -1.77889543 1.4049491 1.36480844 19.2447 19.971)" gradientUnits="userSpaceOnUse" r="1"><stop offset="0" stop-color="#ffc51c"/><stop offset="1" stop-color="#ff9f10"/></radialGradient><radialGradient id="l" cx="0" cy="0" gradientTransform="matrix(1.72807078 -1.77889543 1.4049491 1.36480844 10.3462 19.971)" gradientUnits="userSpaceOnUse" r="1"><stop offset="0" stop-color="#cc7c0c"/><stop offset="1" stop-color="#ca7b0d"/></radialGradient><linearGradient id="m" gradientUnits="userSpaceOnUse" x1="15.0056" x2="18.3194" y1="18.9189" y2="19.0544"><stop offset="0" stop-color="#2d1743"/><stop offset="1" stop-color="#0a080d"/></linearGradient><linearGradient id="n" gradientUnits="userSpaceOnUse" x1="16.0665" x2="16.0665" y1="6.87466" y2="16.9372"><stop offset="0" stop-color="#5ae8ff"/><stop offset="1" stop-color="#3ca0db"/></linearGradient><radialGradient id="o" cx="0" cy="0" gradientTransform="matrix(0 -6.67516 10.0439 0 16.6377 24.9228)" gradientUnits="userSpaceOnUse" r="1"><stop offset=".584112" stop-color="#4656fd"/><stop offset="1" stop-color="#5958b5"/></radialGradient><linearGradient id="p" gradientUnits="userSpaceOnUse" x1="25.0665" x2="21.8157" y1="18.4348" y2="24.4861"><stop offset="0" stop-color="#6082e1"/><stop offset="1" stop-color="#6082e1" stop-opacity="0"/></linearGradient><linearGradient id="q" gradientUnits="userSpaceOnUse" x1="14.4251" x2="17.359" y1="18.7518" y2="18.7518"><stop offset="0" stop-color="#3e2f4f"/><stop offset="1" stop-color="#3e2f4f" stop-opacity="0"/></linearGradient><linearGradient id="r" gradientUnits="userSpaceOnUse" x1="6.62746" x2="25.0665" y1="29.1051" y2="29.1051"><stop offset="0" stop-color="#513472"/><stop offset=".494792" stop-color="#644985" stop-opacity="0"/><stop offset="1" stop-color="#644985"/></linearGradient><g filter="url(#a)"><path clip-rule="evenodd" d="m10.2603 22.0936-3.65874 5.6407c-.25186.3532-.60156.7875-.60156 1.2187 0 .7186.66363 1.0469 1.39551 1.0469h17.51859c.5898 0 1.2187-.3439 1.2187-1.0625 0-.4521-.3121-.8378-.5625-1.1875l-3.6767-5.6563c.7877-.8311-11.811-.1874-11.6333 0zm13.2085 5.9427-.4207-.5737c-.188-.2563-.49-.4081-.8116-.4081h-12.3402c-.32162 0-.62361.1518-.81154.4081l-.4207.5737zm-13.2085-2.461c-.1544.2463-.28773.4364-.3351.5007h12.2739c-.0321-.0511-.1382-.2134-.3055-.4534-.209-.2999-.402-.5367-.9406-.5367h-9.7199c-.2895 0-.7799.1816-.9728.4894z" fill="url(#e)" fill-rule="evenodd"/></g><path d="m14.6665 2.12476h2.8c4.1974 0 7.6 3.40263 7.6 7.6v7.30624c0 1.6172-.4265 3.1348-1.1732 4.4464-.3654.5787-1.1289 1.5772-2.1151 2.1864-.0775.0479-.1498.1036-.2153.1668-.5534.534-1.5508 1.2741-2.6799 1.7509-.886.2917-1.8328.4495-2.8165.4495-.9836 0-1.9304-.1578-2.8164-.4495-1.1292-.4768-2.1266-1.2169-2.6799-1.7509-.0656-.0632-.1378-.1189-.2153-.1668-.98619-.6092-1.74979-1.6077-2.11512-2.1865-.74671-1.3115-1.17325-2.8291-1.17325-4.4463v-7.30624c0-4.19737 3.40267-7.6 7.59997-7.6z" fill="url(#f)"/><path d="m14.6665 2.12476h2.8c4.1974 0 7.6 3.40263 7.6 7.6v7.30624c0 1.6172-.4265 3.1348-1.1732 4.4464-.3654.5787-1.1289 1.5772-2.1151 2.1864-.0775.0479-.1498.1036-.2153.1668-.5534.534-1.5508 1.2741-2.6799 1.7509-.886.2917-1.8328.4495-2.8165.4495-.9836 0-1.9304-.1578-2.8164-.4495-1.1292-.4768-2.1266-1.2169-2.6799-1.7509-.0656-.0632-.1378-.1189-.2153-.1668-.98619-.6092-1.74979-1.6077-2.11512-2.1865-.74671-1.3115-1.17325-2.8291-1.17325-4.4463v-7.30624c0-4.19737 3.40267-7.6 7.59997-7.6z" fill="url(#g)"/><path d="m14.6665 2.12476h2.8c4.1974 0 7.6 3.40263 7.6 7.6v7.30624c0 1.6172-.4265 3.1348-1.1732 4.4464-.3654.5787-1.1289 1.5772-2.1151 2.1864-.0775.0479-.1498.1036-.2153.1668-.5534.534-1.5508 1.2741-2.6799 1.7509-.886.2917-1.8328.4495-2.8165.4495-.9836 0-1.9304-.1578-2.8164-.4495-1.1292-.4768-2.1266-1.2169-2.6799-1.7509-.0656-.0632-.1378-.1189-.2153-.1668-.98619-.6092-1.74979-1.6077-2.11512-2.1865-.74671-1.3115-1.17325-2.8291-1.17325-4.4463v-7.30624c0-4.19737 3.40267-7.6 7.59997-7.6z" fill="url(#h)"/><path d="m24.8969 8.12036c.1112.5172.1697 1.05394.1697 1.60434v6.3375h-1.2513c-1.1592 0-1.9337-1.1944-1.4608-2.2528z" fill="url(#i)"/><path d="m7.23594 8.12036c-.11114.5172-.16966 1.05395-.16966 1.60436v6.33748h1.25125c1.15926 0 1.93377-1.1944 1.46077-2.2528z" fill="url(#j)"/><circle cx="20.5157" cy="18.5935" fill="url(#k)" r="1.51172"/><circle cx="11.6173" cy="18.5935" fill="url(#l)" r="1.51172"/><path d="m14.047 18.5935c0-.2546.2064-.4609.4609-.4609h3.1172c.2546 0 .461.2063.461.4609s-.2064.4609-.461.4609h-3.1172c-.2545 0-.4609-.2063-.4609-.4609z" fill="url(#m)"/><g filter="url(#b)"><path d="m15.2186 16.234h1.5c.9414 0 2.2266-.25 3.0938-1.1953 1.5089-1.6448 1.9687-3.9453 2.2422-5.85154.25-2.03906-.3594-3.32812-1.6563-4.1875-1.0375-.6875-2.4427-.82812-3.0156-.8125h-2.8419c-.5475-.01562-1.8904.125-2.882.8125-1.2394.85938-1.82176 2.14844-1.5828 4.1875.2613 1.90624.7007 4.20674 2.1428 5.85154.8287.9453 2.1001 1.1953 2.9998 1.1953z" fill="url(#n)"/></g><path d="m25.0665 16.8059v.225c0 1.6172-.4265 3.1348-1.1732 4.4464-.3653.5788-1.1289 1.5773-2.1151 2.1864-.0775.0479-.1498.1036-.2153.1668-.5534.5341-1.5508 1.2741-2.6799 1.751-.886.2916-1.8328.4494-2.8165.4494-.9836 0-1.9304-.1578-2.8164-.4494-1.1292-.4769-2.1266-1.2169-2.6799-1.7509-.0656-.0633-.1378-.119-.2153-.1669-.98619-.6091-1.7498-1.6077-2.11512-2.1864-.74671-1.3116-1.17325-2.8292-1.17325-4.4464v-.225c.54968 2.7876 2.9024 7.2875 8.99997 7.2875 6.0976.0001 8.4503-4.4999 9-7.2875z" fill="url(#o)"/><path d="m25.0665 16.8059v.225c0 1.6172-.4265 3.1348-1.1732 4.4464-.3653.5788-1.1289 1.5773-2.1151 2.1864-.0775.0479-.1498.1036-.2153.1668-.5534.5341-1.5508 1.2741-2.6799 1.751-.886.2916-1.8328.4494-2.8165.4494-.9836 0-1.9304-.1578-2.8164-.4494-1.1292-.4769-2.1266-1.2169-2.6799-1.7509-.0656-.0633-.1378-.119-.2153-.1669-.98619-.6091-1.7498-1.6077-2.11512-2.1864-.74671-1.3116-1.17325-2.8292-1.17325-4.4464v-.225c.54968 2.7876 2.9024 7.2875 8.99997 7.2875 6.0976.0001 8.4503-4.4999 9-7.2875z" fill="url(#p)"/><g filter="url(#c)"><path d="m14.5201 18.5935h2.8389" stroke="url(#q)" stroke-linecap="round" stroke-width=".3"/></g><g filter="url(#d)"><path d="m7.22449 28.9468h17.84201" stroke="url(#r)" stroke-linecap="round" stroke-width=".5"/></g></svg>