<svg enable-background="new 0 0 128 128" viewBox="0 0 32 32" xmlns="http://www.w3.org/2000/svg"><path d="m18 14-6.5 9-8.99997 6.5c-1.36677-1.3669 1.99999-7 4.02513-8.9749l9.00004-9z" fill="#d3d3d3"/><path d="m2.50003 29.5c1.36684 1.3668 6.99995-2 8.97487-4.0251l9-9-2.4749-2.4749z" fill="#9b9b9b"/><path d="m26.4749 10.4748-4 4c-1.3669 1.3669-3.5829 1.3669-4.9498 0-1.3668-1.3668-1.3668-3.5829 0-4.94972l4-4c.8173-.81723 1.9235-1.17515 2.9849-1.01512l2.49-.00996.49 2.99c.163 1.06382-.1958 2.16548-1.0151 2.9848z" fill="#7d4533"/><path d="m30 4.75c0 1.43802-1.1038 2.61825-2.5103 2.7397l-2.9794-2.9794c.1214-1.40654 1.3016-2.5103 2.7397-2.5103 1.5187 0 2.75 1.23122 2.75 2.75z" fill="#f9c23c"/><path d="m16.5 10.25c0 .1953-.0204.3858-.0591.5696l4.7395 4.7395c.1838-.0387.3743-.0591.5696-.0591 1.5188 0 2.75 1.2312 2.75 2.75s-1.2312 2.75-2.75 2.75-2.75-1.2312-2.75-2.75c0-.1953.0204-.3858.0591-.5696l-4.7395-4.7395c-.1838.0387-.3743.0591-.5696.0591-1.5188 0-2.75-1.2312-2.75-2.75 0-1.51878 1.2312-2.75 2.75-2.75s2.75 1.23122 2.75 2.75z" fill="#f9c23c"/><g fill="#f70a8d"><path d="m13.75 12c.9665 0 1.75-.7835 1.75-1.75s-.7835-1.75-1.75-1.75-1.75.7835-1.75 1.75.7835 1.75 1.75 1.75z"/><path d="m21.75 20c.9665 0 1.75-.7835 1.75-1.75s-.7835-1.75-1.75-1.75-1.75.7835-1.75 1.75.7835 1.75 1.75 1.75z"/></g></svg>