<svg enable-background="new 0 0 128 128" viewBox="0 0 128 128" xmlns="http://www.w3.org/2000/svg"><g transform="scale(4)"><path d="m4.5 1c-1.38071 0-2.5 1.11929-2.5 2.5v23c0 1.3807 1.11929 2.5 2.5 2.5h2.5v.5c0 .8284.67157 1.5 1.5 1.5h17c.8284 0 1.5-.6716 1.5-1.5v-23c0-.82843-.6716-1.5-1.5-1.5h-4.5858l-3.2678-3.26777c-.4688-.46884-1.1047-.73223-1.7677-.73223z" fill="#b4acbc"/><path d="m3 3.5c0-.82843.67157-1.5 1.5-1.5h11.3787c.3978 0 .7793.15804 1.0606.43934l5.6214 5.62132c.2813.2813.4393.66284.4393 1.06066v17.37868c0 .8284-.6716 1.5-1.5 1.5h-17c-.82843 0-1.5-.6716-1.5-1.5z" fill="#f3eef8"/><path d="m6.5 11c-.27614 0-.5.2239-.5.5s.22386.5.5.5h13c.2761 0 .5-.2239.5-.5s-.2239-.5-.5-.5zm0 3c-.27614 0-.5.2239-.5.5s.22386.5.5.5h13c.2761 0 .5-.2239.5-.5s-.2239-.5-.5-.5zm-.5 3.5c0-.2761.22386-.5.5-.5h13c.2761 0 .5.2239.5.5s-.2239.5-.5.5h-13c-.27614 0-.5-.2239-.5-.5zm.5 2.5c-.27614 0-.5.2239-.5.5s.22386.5.5.5h8c.2761 0 .5-.2239.5-.5s-.2239-.5-.5-.5z" fill="#998ea4"/><path d="m16 2.00488c.3534.02867.6868.18186.9393.43443l5.6214 5.62132c.2525.25257.4057.58593.4344.93934h-5.4951c-.8284 0-1.5-.67157-1.5-1.5z" fill="#cdc4d6"/><path d="m22.3606 13.1177c.0901-.076.2042-.1177.3222-.1177h2.8174c.2761 0 .5.2239.5.5v2c0 .2761-.2239.5-.5.5h-2.8174c-.118 0-.2321-.0417-.3222-.1177l-1.1867-1c-.2371-.1997-.2371-.5649 0-.7646z" fill="#f70a8d"/><path d="m25.3606 20.1177c.0901-.076.2042-.1177.3222-.1177h2.8174c.2761 0 .5.2239.5.5v2c0 .2761-.2239.5-.5.5h-2.8174c-.118 0-.2321-.0417-.3222-.1177l-1.1867-1c-.2371-.1997-.2371-.5649 0-.7646z" fill="#f9c23c"/></g></svg>