<svg fill="none" height="32" viewBox="0 0 32 32" width="32" xmlns="http://www.w3.org/2000/svg" xmlns:xlink="http://www.w3.org/1999/xlink"><filter id="a" color-interpolation-filters="sRGB" filterUnits="userSpaceOnUse" height="16.1224" width="15.6224" x="7.28796" y="2.45215"><feFlood flood-opacity="0" result="BackgroundImageFix"/><feBlend in="SourceGraphic" in2="BackgroundImageFix" mode="normal" result="shape"/><feColorMatrix in="SourceAlpha" result="hardAlpha" type="matrix" values="0 0 0 0 0 0 0 0 0 0 0 0 0 0 0 0 0 0 127 0"/><feOffset dx=".25" dy="-.75"/><feGaussianBlur stdDeviation=".75"/><feComposite in2="hardAlpha" k2="-1" k3="1" operator="arithmetic"/><feColorMatrix type="matrix" values="0 0 0 0 0.121569 0 0 0 0 0.0705882 0 0 0 0 0.164706 0 0 0 1 0"/><feBlend in2="shape" mode="normal" result="effect1_innerShadow_4002_2316"/></filter><filter id="b" color-interpolation-filters="sRGB" filterUnits="userSpaceOnUse" height="4.73999" width="5.51311" x="12.7396" y="24.0476"><feFlood flood-opacity="0" result="BackgroundImageFix"/><feBlend in="SourceGraphic" in2="BackgroundImageFix" mode="normal" result="shape"/><feColorMatrix in="SourceAlpha" result="hardAlpha" type="matrix" values="0 0 0 0 0 0 0 0 0 0 0 0 0 0 0 0 0 0 127 0"/><feOffset dx=".2"/><feGaussianBlur stdDeviation=".15"/><feComposite in2="hardAlpha" k2="-1" k3="1" operator="arithmetic"/><feColorMatrix type="matrix" values="0 0 0 0 0.976471 0 0 0 0 0.780392 0 0 0 0 0.866667 0 0 0 1 0"/><feBlend in2="shape" mode="normal" result="effect1_innerShadow_4002_2316"/></filter><filter id="c" color-interpolation-filters="sRGB" filterUnits="userSpaceOnUse" height="5.42661" width="5.22126" x="12.379" y="15.3291"><feFlood flood-opacity="0" result="BackgroundImageFix"/><feBlend in="SourceGraphic" in2="BackgroundImageFix" mode="normal" result="shape"/><feGaussianBlur result="effect1_foregroundBlur_4002_2316" stdDeviation=".1"/></filter><filter id="d" color-interpolation-filters="sRGB" filterUnits="userSpaceOnUse" height="1.22798" width="6.10153" x="22.683" y="16.7579"><feFlood flood-opacity="0" result="BackgroundImageFix"/><feBlend in="SourceGraphic" in2="BackgroundImageFix" mode="normal" result="shape"/><feColorMatrix in="SourceAlpha" result="hardAlpha" type="matrix" values="0 0 0 0 0 0 0 0 0 0 0 0 0 0 0 0 0 0 127 0"/><feOffset dx=".1" dy="-.05"/><feGaussianBlur stdDeviation=".1"/><feComposite in2="hardAlpha" k2="-1" k3="1" operator="arithmetic"/><feColorMatrix type="matrix" values="0 0 0 0 0.647059 0 0 0 0 0.47451 0 0 0 0 0.54902 0 0 0 1 0"/><feBlend in2="shape" mode="normal" result="effect1_innerShadow_4002_2316"/></filter><filter id="e" color-interpolation-filters="sRGB" filterUnits="userSpaceOnUse" height="1.07485" width="1.07488" x="25.0905" y="20.8909"><feFlood flood-opacity="0" result="BackgroundImageFix"/><feBlend in="SourceGraphic" in2="BackgroundImageFix" mode="normal" result="shape"/><feColorMatrix in="SourceAlpha" result="hardAlpha" type="matrix" values="0 0 0 0 0 0 0 0 0 0 0 0 0 0 0 0 0 0 127 0"/><feOffset dx=".05" dy="-.05"/><feGaussianBlur stdDeviation=".025"/><feComposite in2="hardAlpha" k2="-1" k3="1" operator="arithmetic"/><feColorMatrix type="matrix" values="0 0 0 0 0.694118 0 0 0 0 0.560784 0 0 0 0 0.764706 0 0 0 1 0"/><feBlend in2="shape" mode="normal" result="effect1_innerShadow_4002_2316"/><feColorMatrix in="SourceAlpha" result="hardAlpha" type="matrix" values="0 0 0 0 0 0 0 0 0 0 0 0 0 0 0 0 0 0 127 0"/><feOffset dx="-.05" dy=".05"/><feGaussianBlur stdDeviation=".025"/><feComposite in2="hardAlpha" k2="-1" k3="1" operator="arithmetic"/><feColorMatrix type="matrix" values="0 0 0 0 0.917647 0 0 0 0 0.87451 0 0 0 0 0.976471 0 0 0 1 0"/><feBlend in2="effect1_innerShadow_4002_2316" mode="normal" result="effect2_innerShadow_4002_2316"/></filter><filter id="f" color-interpolation-filters="sRGB" filterUnits="userSpaceOnUse" height="6.07554" width="5.36918" x="23.0196" y="22.7221"><feFlood flood-opacity="0" result="BackgroundImageFix"/><feBlend in="SourceGraphic" in2="BackgroundImageFix" mode="normal" result="shape"/><feColorMatrix in="SourceAlpha" result="hardAlpha" type="matrix" values="0 0 0 0 0 0 0 0 0 0 0 0 0 0 0 0 0 0 127 0"/><feOffset dx=".15" dy="-.15"/><feGaussianBlur stdDeviation=".5"/><feComposite in2="hardAlpha" k2="-1" k3="1" operator="arithmetic"/><feColorMatrix type="matrix" values="0 0 0 0 0.341176 0 0 0 0 0.211765 0 0 0 0 0.219608 0 0 0 1 0"/><feBlend in2="shape" mode="normal" result="effect1_innerShadow_4002_2316"/></filter><filter id="g" color-interpolation-filters="sRGB" filterUnits="userSpaceOnUse" height=".300098" width="2.31896" x="23.4844" y="24.243"><feFlood flood-opacity="0" result="BackgroundImageFix"/><feBlend in="SourceGraphic" in2="BackgroundImageFix" mode="normal" result="shape"/><feGaussianBlur result="effect1_foregroundBlur_4002_2316" stdDeviation=".05"/></filter><filter id="h" color-interpolation-filters="sRGB" filterUnits="userSpaceOnUse" height=".300098" width="2.31896" x="23.4844" y="25.6849"><feFlood flood-opacity="0" result="BackgroundImageFix"/><feBlend in="SourceGraphic" in2="BackgroundImageFix" mode="normal" result="shape"/><feGaussianBlur result="effect1_foregroundBlur_4002_2316" stdDeviation=".05"/></filter><filter id="i" color-interpolation-filters="sRGB" filterUnits="userSpaceOnUse" height=".300098" width="2.31896" x="23.4844" y="27.1151"><feFlood flood-opacity="0" result="BackgroundImageFix"/><feBlend in="SourceGraphic" in2="BackgroundImageFix" mode="normal" result="shape"/><feGaussianBlur result="effect1_foregroundBlur_4002_2316" stdDeviation=".05"/></filter><filter id="j" color-interpolation-filters="sRGB" filterUnits="userSpaceOnUse" height="3.29407" width="3.4441" x="8.53088" y="10.2844"><feFlood flood-opacity="0" result="BackgroundImageFix"/><feBlend in="SourceGraphic" in2="BackgroundImageFix" mode="normal" result="shape"/><feColorMatrix in="SourceAlpha" result="hardAlpha" type="matrix" values="0 0 0 0 0 0 0 0 0 0 0 0 0 0 0 0 0 0 127 0"/><feOffset dx=".15"/><feGaussianBlur stdDeviation=".25"/><feComposite in2="hardAlpha" k2="-1" k3="1" operator="arithmetic"/><feColorMatrix type="matrix" values="0 0 0 0 0.509804 0 0 0 0 0.376471 0 0 0 0 0.34902 0 0 0 1 0"/><feBlend in2="shape" mode="normal" result="effect1_innerShadow_4002_2316"/></filter><filter id="k" color-interpolation-filters="sRGB" filterUnits="userSpaceOnUse" height="3.54407" width="3.2941" x="18.2682" y="10.0344"><feFlood flood-opacity="0" result="BackgroundImageFix"/><feBlend in="SourceGraphic" in2="BackgroundImageFix" mode="normal" result="shape"/><feColorMatrix in="SourceAlpha" result="hardAlpha" type="matrix" values="0 0 0 0 0 0 0 0 0 0 0 0 0 0 0 0 0 0 127 0"/><feOffset dy="-.25"/><feGaussianBlur stdDeviation=".25"/><feComposite in2="hardAlpha" k2="-1" k3="1" operator="arithmetic"/><feColorMatrix type="matrix" values="0 0 0 0 0.431373 0 0 0 0 0.243137 0 0 0 0 0.282353 0 0 0 1 0"/><feBlend in2="shape" mode="normal" result="effect1_innerShadow_4002_2316"/></filter><filter id="l" color-interpolation-filters="sRGB" filterUnits="userSpaceOnUse" height="3.19885" width="3.19888" x="18.3158" y="10.332"><feFlood flood-opacity="0" result="BackgroundImageFix"/><feBlend in="SourceGraphic" in2="BackgroundImageFix" mode="normal" result="shape"/><feGaussianBlur result="effect1_foregroundBlur_4002_2316" stdDeviation=".25"/></filter><filter id="m" color-interpolation-filters="sRGB" filterUnits="userSpaceOnUse" height="2.69885" width="2.69888" x="8.84827" y="10.582"><feFlood flood-opacity="0" result="BackgroundImageFix"/><feBlend in="SourceGraphic" in2="BackgroundImageFix" mode="normal" result="shape"/><feGaussianBlur result="effect1_foregroundBlur_4002_2316" stdDeviation=".125"/></filter><filter id="n" color-interpolation-filters="sRGB" filterUnits="userSpaceOnUse" height="11.2334" width="10.4313" x="9.75842" y="6.90894"><feFlood flood-opacity="0" result="BackgroundImageFix"/><feBlend in="SourceGraphic" in2="BackgroundImageFix" mode="normal" result="shape"/><feColorMatrix in="SourceAlpha" result="hardAlpha" type="matrix" values="0 0 0 0 0 0 0 0 0 0 0 0 0 0 0 0 0 0 127 0"/><feOffset dy=".1"/><feGaussianBlur stdDeviation=".1"/><feComposite in2="hardAlpha" k2="-1" k3="1" operator="arithmetic"/><feColorMatrix type="matrix" values="0 0 0 0 0.407843 0 0 0 0 0.223529 0 0 0 0 0.25098 0 0 0 1 0"/><feBlend in2="shape" mode="normal" result="effect1_innerShadow_4002_2316"/></filter><filter id="o" color-interpolation-filters="sRGB" filterUnits="userSpaceOnUse" height="3.74512" width="2.92154" x="13.347" y="10.9146"><feFlood flood-opacity="0" result="BackgroundImageFix"/><feBlend in="SourceGraphic" in2="BackgroundImageFix" mode="normal" result="shape"/><feGaussianBlur result="effect1_foregroundBlur_4002_2316" stdDeviation=".25"/></filter><filter id="p" color-interpolation-filters="sRGB" filterUnits="userSpaceOnUse" height="3.24512" width="2.42154" x="13.7633" y="11.0227"><feFlood flood-opacity="0" result="BackgroundImageFix"/><feBlend in="SourceGraphic" in2="BackgroundImageFix" mode="normal" result="shape"/><feGaussianBlur result="effect1_foregroundBlur_4002_2316" stdDeviation=".125"/></filter><filter id="q" color-interpolation-filters="sRGB" filterUnits="userSpaceOnUse" height="1.3158" width="3.06749" x="15.9431" y="10.4939"><feFlood flood-opacity="0" result="BackgroundImageFix"/><feBlend in="SourceGraphic" in2="BackgroundImageFix" mode="normal" result="shape"/><feColorMatrix in="SourceAlpha" result="hardAlpha" type="matrix" values="0 0 0 0 0 0 0 0 0 0 0 0 0 0 0 0 0 0 127 0"/><feOffset dx="-.2"/><feGaussianBlur stdDeviation=".2"/><feComposite in2="hardAlpha" k2="-1" k3="1" operator="arithmetic"/><feColorMatrix type="matrix" values="0 0 0 0 0.0941176 0 0 0 0 0.0666667 0 0 0 0 0.117647 0 0 0 1 0"/><feBlend in2="shape" mode="normal" result="effect1_innerShadow_4002_2316"/></filter><filter id="r" color-interpolation-filters="sRGB" filterUnits="userSpaceOnUse" height="1.3158" width="3.06749" x="10.9377" y="10.4939"><feFlood flood-opacity="0" result="BackgroundImageFix"/><feBlend in="SourceGraphic" in2="BackgroundImageFix" mode="normal" result="shape"/><feColorMatrix in="SourceAlpha" result="hardAlpha" type="matrix" values="0 0 0 0 0 0 0 0 0 0 0 0 0 0 0 0 0 0 127 0"/><feOffset dx=".2"/><feGaussianBlur stdDeviation=".125"/><feComposite in2="hardAlpha" k2="-1" k3="1" operator="arithmetic"/><feColorMatrix type="matrix" values="0 0 0 0 0.0862745 0 0 0 0 0.054902 0 0 0 0 0.113725 0 0 0 1 0"/><feBlend in2="shape" mode="normal" result="effect1_innerShadow_4002_2316"/></filter><filter id="s" color-interpolation-filters="sRGB" filterUnits="userSpaceOnUse" height="1.11199" width="2.50591" x="11.076" y="9.04146"><feFlood flood-opacity="0" result="BackgroundImageFix"/><feBlend in="SourceGraphic" in2="BackgroundImageFix" mode="normal" result="shape"/><feColorMatrix in="SourceAlpha" result="hardAlpha" type="matrix" values="0 0 0 0 0 0 0 0 0 0 0 0 0 0 0 0 0 0 127 0"/><feOffset dx=".2" dy="-.2"/><feGaussianBlur stdDeviation=".15"/><feComposite in2="hardAlpha" k2="-1" k3="1" operator="arithmetic"/><feColorMatrix type="matrix" values="0 0 0 0 0.164706 0 0 0 0 0.0901961 0 0 0 0 0.109804 0 0 0 1 0"/><feBlend in2="shape" mode="normal" result="effect1_innerShadow_4002_2316"/></filter><filter id="t" color-interpolation-filters="sRGB" filterUnits="userSpaceOnUse" height="1.11211" width="2.50591" x="16.6212" y="9.04146"><feFlood flood-opacity="0" result="BackgroundImageFix"/><feBlend in="SourceGraphic" in2="BackgroundImageFix" mode="normal" result="shape"/><feColorMatrix in="SourceAlpha" result="hardAlpha" type="matrix" values="0 0 0 0 0 0 0 0 0 0 0 0 0 0 0 0 0 0 127 0"/><feOffset dx=".2" dy="-.2"/><feGaussianBlur stdDeviation=".15"/><feComposite in2="hardAlpha" k2="-1" k3="1" operator="arithmetic"/><feColorMatrix type="matrix" values="0 0 0 0 0.164706 0 0 0 0 0.0901961 0 0 0 0 0.109804 0 0 0 1 0"/><feBlend in2="shape" mode="normal" result="effect1_innerShadow_4002_2316"/></filter><filter id="u" color-interpolation-filters="sRGB" filterUnits="userSpaceOnUse" height=".707935" width=".800647" x="16.4585" y="10.8725"><feFlood flood-opacity="0" result="BackgroundImageFix"/><feBlend in="SourceGraphic" in2="BackgroundImageFix" mode="normal" result="shape"/><feGaussianBlur result="effect1_foregroundBlur_4002_2316" stdDeviation=".05"/></filter><filter id="v" color-interpolation-filters="sRGB" filterUnits="userSpaceOnUse" height=".925513" width=".902808" x="17.3206" y="10.9516"><feFlood flood-opacity="0" result="BackgroundImageFix"/><feBlend in="SourceGraphic" in2="BackgroundImageFix" mode="normal" result="shape"/><feGaussianBlur result="effect1_foregroundBlur_4002_2316" stdDeviation=".1"/></filter><filter id="w" color-interpolation-filters="sRGB" filterUnits="userSpaceOnUse" height="1.05527" width="1.00013" x="12.7729" y="10.8869"><feFlood flood-opacity="0" result="BackgroundImageFix"/><feBlend in="SourceGraphic" in2="BackgroundImageFix" mode="normal" result="shape"/><feGaussianBlur result="effect1_foregroundBlur_4002_2316" stdDeviation=".1"/></filter><filter id="x" color-interpolation-filters="sRGB" filterUnits="userSpaceOnUse" height=".716357" width=".929858" x="11.9979" y="10.8642"><feFlood flood-opacity="0" result="BackgroundImageFix"/><feBlend in="SourceGraphic" in2="BackgroundImageFix" mode="normal" result="shape"/><feGaussianBlur result="effect1_foregroundBlur_4002_2316" stdDeviation=".05"/></filter><filter id="y" color-interpolation-filters="sRGB" filterUnits="userSpaceOnUse" height=".98667" width="2.29999" x="16.6593" y="9.16877"><feFlood flood-opacity="0" result="BackgroundImageFix"/><feBlend in="SourceGraphic" in2="BackgroundImageFix" mode="normal" result="shape"/><feGaussianBlur result="effect1_foregroundBlur_4002_2316" stdDeviation=".1"/></filter><filter id="z" color-interpolation-filters="sRGB" filterUnits="userSpaceOnUse" height=".98667" width="2.29999" x="11.079" y="9.16877"><feFlood flood-opacity="0" result="BackgroundImageFix"/><feBlend in="SourceGraphic" in2="BackgroundImageFix" mode="normal" result="shape"/><feGaussianBlur result="effect1_foregroundBlur_4002_2316" stdDeviation=".1"/></filter><filter id="A" color-interpolation-filters="sRGB" filterUnits="userSpaceOnUse" height="4.70103" width="4.39228" x="8.47927" y="4.83535"><feFlood flood-opacity="0" result="BackgroundImageFix"/><feBlend in="SourceGraphic" in2="BackgroundImageFix" mode="normal" result="shape"/><feColorMatrix in="SourceAlpha" result="hardAlpha" type="matrix" values="0 0 0 0 0 0 0 0 0 0 0 0 0 0 0 0 0 0 127 0"/><feOffset dx=".5" dy=".5"/><feGaussianBlur stdDeviation=".5"/><feComposite in2="hardAlpha" k2="-1" k3="1" operator="arithmetic"/><feColorMatrix type="matrix" values="0 0 0 0 0.294118 0 0 0 0 0.262745 0 0 0 0 0.262745 0 0 0 1 0"/><feBlend in2="shape" mode="normal" result="effect1_innerShadow_4002_2316"/><feGaussianBlur result="effect2_foregroundBlur_4002_2316" stdDeviation=".2"/></filter><filter id="B" color-interpolation-filters="sRGB" filterUnits="userSpaceOnUse" height="5.90662" width="8.96116" x="11.736" y="3.67065"><feFlood flood-opacity="0" result="BackgroundImageFix"/><feBlend in="SourceGraphic" in2="BackgroundImageFix" mode="normal" result="shape"/><feColorMatrix in="SourceAlpha" result="hardAlpha" type="matrix" values="0 0 0 0 0 0 0 0 0 0 0 0 0 0 0 0 0 0 127 0"/><feOffset dx="-.3" dy=".2"/><feGaussianBlur stdDeviation=".4"/><feComposite in2="hardAlpha" k2="-1" k3="1" operator="arithmetic"/><feColorMatrix type="matrix" values="0 0 0 0 0.345098 0 0 0 0 0.329412 0 0 0 0 0.333333 0 0 0 1 0"/><feBlend in2="shape" mode="normal" result="effect1_innerShadow_4002_2316"/><feGaussianBlur result="effect2_foregroundBlur_4002_2316" stdDeviation=".125"/></filter><filter id="C" color-interpolation-filters="sRGB" filterUnits="userSpaceOnUse" height="2.34995" width="1.15763" x="11.7148" y="4.93538"><feFlood flood-opacity="0" result="BackgroundImageFix"/><feBlend in="SourceGraphic" in2="BackgroundImageFix" mode="normal" result="shape"/><feGaussianBlur result="effect1_foregroundBlur_4002_2316" stdDeviation=".1"/></filter><filter id="D" color-interpolation-filters="sRGB" filterUnits="userSpaceOnUse" height="3.91614" width="7.0434" x="14.1464" y="5.52319"><feFlood flood-opacity="0" result="BackgroundImageFix"/><feBlend in="SourceGraphic" in2="BackgroundImageFix" mode="normal" result="shape"/><feGaussianBlur result="effect1_foregroundBlur_4002_2316" stdDeviation=".5"/></filter><linearGradient id="E" gradientUnits="userSpaceOnUse" x1="19.7781" x2="12.8125" y1="4.81489" y2="17.7167"><stop offset="0" stop-color="#45363a"/><stop offset="1" stop-color="#1c151f"/></linearGradient><radialGradient id="F" cx="0" cy="0" gradientTransform="matrix(-.61763775 4.6666246 -5.82956317 -.77155516 14.6654 14.4913)" gradientUnits="userSpaceOnUse" r="1"><stop offset=".590551" stop-color="#171418"/><stop offset="1" stop-color="#171418" stop-opacity="0"/></radialGradient><radialGradient id="G" cx="0" cy="0" gradientTransform="matrix(-2.95103187 1.99019639 -2.61495709 -3.8774172 11.7831 14.7658)" gradientUnits="userSpaceOnUse" r="1"><stop offset=".258378" stop-color="#181518"/><stop offset="1" stop-color="#181518" stop-opacity="0"/></radialGradient><radialGradient id="H" cx="0" cy="0" gradientTransform="matrix(-1.33821384 1.74999452 -1.34375005 -1.02756031 10.016 12.158)" gradientUnits="userSpaceOnUse" r="1"><stop offset=".333546" stop-color="#040101"/><stop offset="1" stop-color="#040101" stop-opacity="0"/></radialGradient><radialGradient id="I" cx="0" cy="0" gradientTransform="matrix(-1.32108392 2.16173685 -1.52275117 -.93058602 10.4791 10.082)" gradientUnits="userSpaceOnUse" r="1"><stop offset=".320588" stop-color="#040002"/><stop offset="1" stop-color="#040002" stop-opacity="0"/></radialGradient><radialGradient id="J" cx="0" cy="0" gradientTransform="matrix(1.40685109 2.67644359 -3.71531622 1.95292615 11.3713 3.68255)" gradientUnits="userSpaceOnUse" r="1"><stop offset="0" stop-color="#474445"/><stop offset="1" stop-color="#474445" stop-opacity="0"/></radialGradient><radialGradient id="K" cx="0" cy="0" gradientTransform="matrix(-1.47538336 1.47548637 -2.06196706 -2.06182311 20.9447 5.80998)" gradientUnits="userSpaceOnUse" r="1"><stop offset="0" stop-color="#4a4446"/><stop offset="1" stop-color="#4a4446" stop-opacity="0"/></radialGradient><radialGradient id="L" cx="0" cy="0" gradientTransform="matrix(-1.88715051 .54901804 -1.14493779 -3.93551715 22.6604 11.0599)" gradientUnits="userSpaceOnUse" r="1"><stop offset="0" stop-color="#3b3638"/><stop offset="1" stop-color="#3b3638" stop-opacity="0"/></radialGradient><radialGradient id="M" cx="0" cy="0" gradientTransform="matrix(-2.88223535 .72059927 -.9179391 -3.67155038 22.0427 14.5599)" gradientUnits="userSpaceOnUse" r="1"><stop offset="0" stop-color="#464444"/><stop offset="1" stop-color="#464444" stop-opacity="0"/></radialGradient><radialGradient id="N" cx="0" cy="0" gradientTransform="matrix(-.92577857 -2.71278141 2.1456564 -.7322384 19.8184 8.56851)" gradientUnits="userSpaceOnUse" r="1"><stop offset="0" stop-color="#575455"/><stop offset="1" stop-color="#575455" stop-opacity="0"/></radialGradient><radialGradient id="O" cx="0" cy="0" gradientTransform="matrix(1.53939426 .16147442 -.26163543 2.49426544 8.68741 11.0229)" gradientUnits="userSpaceOnUse" r="1"><stop offset="0" stop-color="#413733"/><stop offset="1" stop-color="#413733" stop-opacity="0"/></radialGradient><linearGradient id="P" gradientUnits="userSpaceOnUse" x1="16.7935" x2="15.3962" y1="26.4176" y2="26.1151"><stop offset="0" stop-color="#c296bf"/><stop offset="1" stop-color="#e7c1f5" stop-opacity="0"/></linearGradient><radialGradient id="Q" cx="0" cy="0" gradientTransform="matrix(3.12499837 1.00000119 -2.08206946 6.50645596 3.59961 25.8963)" gradientUnits="userSpaceOnUse" r="1"><stop offset=".175617" stop-color="#675890"/><stop offset="1" stop-color="#58497e"/></radialGradient><linearGradient id="R" gradientUnits="userSpaceOnUse" x1="7.09088" x2="5.91916" y1="26.217" y2="26.217"><stop offset="0" stop-color="#504665"/><stop offset="1" stop-color="#504665" stop-opacity="0"/></linearGradient><radialGradient id="S" cx="0" cy="0" gradientTransform="matrix(-1.90566484 5.1549993 -3.51208457 -1.29832337 24.511 22.2285)" gradientUnits="userSpaceOnUse" r="1"><stop offset="0" stop-color="#746b8d"/><stop offset="1" stop-color="#4d396f"/></radialGradient><linearGradient id="T" gradientUnits="userSpaceOnUse" x1="23.0197" x2="23.6622" y1="26.3025" y2="26.2712"><stop offset=".478057" stop-color="#604e83"/><stop offset="1" stop-color="#604e83" stop-opacity="0"/></linearGradient><linearGradient id="U" gradientUnits="userSpaceOnUse" x1="23.2871" x2="21.5059" y1="26.3338" y2="26.3338"><stop offset="0" stop-color="#7c739f"/><stop offset="1" stop-color="#5f4b8a"/></linearGradient><linearGradient id="V" gradientUnits="userSpaceOnUse" x1="22.6621" x2="18.2871" y1="16.2878" y2="28.7978"><stop offset="0" stop-color="#8866b4"/><stop offset="1" stop-color="#7f54c6"/></linearGradient><linearGradient id="W" gradientUnits="userSpaceOnUse" x1="17.3778" x2="17.8466" y1="23.0559" y2="23.1418"><stop offset="0" stop-color="#8e5280"/><stop offset="1" stop-color="#845ebf" stop-opacity="0"/></linearGradient><linearGradient id="X" gradientUnits="userSpaceOnUse" x1="23.3934" x2="22.7216" y1="20.6418" y2="20.3606"><stop offset=".258439" stop-color="#876bc0"/><stop offset="1" stop-color="#8263bd" stop-opacity="0"/></linearGradient><radialGradient id="Y" cx="0" cy="0" gradientTransform="matrix(1.81249888 1.78124962 -1.64553523 1.67440359 22.7216 21.2668)" gradientUnits="userSpaceOnUse" r="1"><stop offset="0" stop-color="#7955b5"/><stop offset="1" stop-color="#7955b5" stop-opacity="0"/></radialGradient><linearGradient id="Z" gradientUnits="userSpaceOnUse" x1="8.84656" x2="11.7871" y1="16.8091" y2="29.1777"><stop offset="0" stop-color="#7c5aad"/><stop offset="1" stop-color="#9266df"/></linearGradient><linearGradient id="aa" gradientUnits="userSpaceOnUse" x1="13.2997" x2="12.7528" y1="25.8762" y2="25.9856"><stop offset="0" stop-color="#6e3c78"/><stop offset="1" stop-color="#825db9" stop-opacity="0"/></linearGradient><radialGradient id="ab" cx="0" cy="0" gradientTransform="matrix(-3.0312184 3.98899932 -4.31665265 -3.28020035 11.3466 16.8091)" gradientUnits="userSpaceOnUse" r="1"><stop offset=".0544742" stop-color="#6c3b70"/><stop offset="1" stop-color="#815eb7" stop-opacity="0"/></radialGradient><linearGradient id="ac" gradientUnits="userSpaceOnUse" x1="8.00586" x2="10.2871" y1="28.1465" y2="26.9902"><stop offset="0" stop-color="#665395"/><stop offset="1" stop-color="#5d4c7d"/></linearGradient><linearGradient id="ad" gradientUnits="userSpaceOnUse" x1="9.76886" x2="8.9046" y1="26.1655" y2="26.6801"><stop offset="0" stop-color="#55447c"/><stop offset="1" stop-color="#55447c" stop-opacity="0"/></linearGradient><radialGradient id="ae" cx="0" cy="0" gradientTransform="matrix(0 8.19791 -5.21858 0 14.9896 21.0875)" gradientUnits="userSpaceOnUse" r="1"><stop offset="0" stop-color="#825b56"/><stop offset="1" stop-color="#563335"/></radialGradient><radialGradient id="af" cx="0" cy="0" gradientTransform="matrix(0 -7.03341 12.2744 0 14.9896 24.4875)" gradientUnits="userSpaceOnUse" r="1"><stop offset=".688984" stop-color="#422522" stop-opacity="0"/><stop offset="1" stop-color="#422522"/></radialGradient><linearGradient id="ag" gradientUnits="userSpaceOnUse" x1="17.7517" x2="16.4317" y1="22.6821" y2="22.5225"><stop offset=".0612722" stop-color="#583136"/><stop offset="1" stop-color="#725150" stop-opacity="0"/></linearGradient><radialGradient id="ah" cx="0" cy="0" gradientTransform="matrix(-1.65976892 -1.67741729 1.60528162 -1.58839221 16.1449 20.016)" gradientUnits="userSpaceOnUse" r="1"><stop offset="0" stop-color="#7e5c5b"/><stop offset="1" stop-color="#7e5c5b" stop-opacity="0"/></radialGradient><radialGradient id="ai" cx="0" cy="0" gradientTransform="matrix(0 2.44554 -3.83658 0 14.9896 17.603)" gradientUnits="userSpaceOnUse" r="1"><stop offset="0" stop-color="#713c53"/><stop offset=".736253" stop-color="#74464f"/></radialGradient><radialGradient id="aj" cx="0" cy="0" gradientTransform="matrix(0 2.08555 -.865645 0 13.0872 17.5021)" gradientUnits="userSpaceOnUse" r="1"><stop offset=".434829" stop-color="#734a4e"/><stop offset="1" stop-color="#734a4e" stop-opacity="0"/></radialGradient><radialGradient id="ak" cx="0" cy="0" gradientTransform="matrix(0 1.875 -.46875 0 17.1591 17.4402)" gradientUnits="userSpaceOnUse" r="1"><stop offset="0" stop-color="#70504c"/><stop offset="1" stop-color="#70504c" stop-opacity="0"/></radialGradient><radialGradient id="al" cx="0" cy="0" gradientTransform="matrix(0 2.92907 -4.23791 0 14.9896 18.0424)" gradientUnits="userSpaceOnUse" r="1"><stop offset=".622331" stop-color="#66383f" stop-opacity="0"/><stop offset="1" stop-color="#66383f"/></radialGradient><radialGradient id="am" cx="0" cy="0" gradientTransform="matrix(-1.76808106 1.45293842 -1.4274094 -1.73701479 28.2388 21.8131)" gradientUnits="userSpaceOnUse" r="1"><stop offset=".354329" stop-color="#8b655b"/><stop offset="1" stop-color="#673a32"/></radialGradient><radialGradient id="an" cx="0" cy="0" gradientTransform="matrix(.84335165 -.64208504 .33530825 .44041326 27.9781 21.6443)" gradientUnits="userSpaceOnUse" r="1"><stop offset=".131677" stop-color="#997c73"/><stop offset="1" stop-color="#997c73" stop-opacity="0"/></radialGradient><linearGradient id="ao" gradientUnits="userSpaceOnUse" x1="25.631" x2="25.631" y1="15.9839" y2="20.0404"><stop offset=".312923" stop-color="#453357"/><stop offset=".562033" stop-color="#562d79"/></linearGradient><radialGradient id="ap" cx="0" cy="0" gradientTransform="matrix(-3.57005868 2.15793357 -2.15793357 -3.57005868 27.1105 16.8566)" gradientUnits="userSpaceOnUse" r="1"><stop offset=".83785" stop-color="#473558" stop-opacity="0"/><stop offset="1" stop-color="#673d45"/></radialGradient><radialGradient id="aq" cx="0" cy="0" gradientTransform="matrix(1.26513913 1.2482719 -2.90348287 2.94271607 23.7339 15.4927)" gradientUnits="userSpaceOnUse" r="1"><stop offset="0" stop-color="#7b5e40"/><stop offset="1" stop-color="#463358" stop-opacity="0"/></radialGradient><radialGradient id="ar" cx="0" cy="0" gradientTransform="matrix(0 -1.37479 2.10625 0 26.8039 16.8506)" gradientUnits="userSpaceOnUse" r="1"><stop offset="0" stop-color="#7d718c"/><stop offset="1" stop-color="#7d718c" stop-opacity="0"/></radialGradient><linearGradient id="as" gradientUnits="userSpaceOnUse" x1="25.8255" x2="25.6837" y1="16.9201" y2="18.1233"><stop offset=".120322" stop-color="#bfbac7"/><stop offset="1" stop-color="#aa7bd1"/></linearGradient><radialGradient id="at" cx="0" cy="0" gradientTransform="matrix(0 .440797 -2.66861 0 27.3981 17.2417)" gradientUnits="userSpaceOnUse" r="1"><stop offset="0" stop-color="#eae5f7"/><stop offset="1" stop-color="#c1bcc8" stop-opacity="0"/></radialGradient><linearGradient id="au" gradientUnits="userSpaceOnUse" x1="23.1279" x2="23.2548" y1="16.8567" y2="17.2931"><stop offset="0" stop-color="#b19a83"/><stop offset="1" stop-color="#b19a83" stop-opacity="0"/></linearGradient><linearGradient id="av" gradientUnits="userSpaceOnUse" x1="26.8282" x2="24.5406" y1="21.4269" y2="21.4269"><stop offset="0" stop-color="#d9cbea"/><stop offset="1" stop-color="#a78bc1"/></linearGradient><linearGradient id="aw" gradientUnits="userSpaceOnUse" x1="24.3577" x2="24.7389" y1="21.2693" y2="21.2413"><stop offset="0" stop-color="#a0768f"/><stop offset="1" stop-color="#ad93c6" stop-opacity="0"/></linearGradient><linearGradient id="ax" gradientUnits="userSpaceOnUse" x1="26.9757" x2="26.7139" y1="21.1409" y2="21.1171"><stop offset="0" stop-color="#cbc6d6"/><stop offset="1" stop-color="#d3c3e5" stop-opacity="0"/></linearGradient><radialGradient id="ay" cx="0" cy="0" gradientTransform="matrix(-.49980758 .66244881 -.66244881 -.49980758 25.8729 21.1131)" gradientUnits="userSpaceOnUse" r="1"><stop offset="0" stop-color="#d2bfe7"/><stop offset="1" stop-color="#c0a6d9"/></radialGradient><linearGradient id="az" gradientUnits="userSpaceOnUse" x1="27.8884" x2="23.0197" y1="26.674" y2="26.674"><stop offset=".145558" stop-color="#976c5f"/><stop offset=".861163" stop-color="#744950"/></linearGradient><radialGradient id="aA" cx="0" cy="0" gradientTransform="matrix(0 .878707 -1.6371 0 25.9655 23.6512)" gradientUnits="userSpaceOnUse" r="1"><stop offset=".106061" stop-color="#947068"/><stop offset="1" stop-color="#986e66" stop-opacity="0"/></radialGradient><linearGradient id="aB"><stop offset=".109091" stop-color="#947068"/><stop offset="1" stop-color="#986e66" stop-opacity="0"/></linearGradient><radialGradient id="aC" cx="0" cy="0" gradientTransform="matrix(0 .941919 -1.75486 0 25.9655 25.07)" gradientUnits="userSpaceOnUse" r="1" xlink:href="#aB"/><radialGradient id="aD" cx="0" cy="0" gradientTransform="matrix(0 .787787 -1.4677 0 25.9655 26.4401)" gradientUnits="userSpaceOnUse" r="1" xlink:href="#aB"/><radialGradient id="aE" cx="0" cy="0" gradientTransform="matrix(0 .876159 -2.08784 0 25.9655 27.9214)" gradientUnits="userSpaceOnUse" r="1"><stop offset=".186046" stop-color="#947068"/><stop offset="1" stop-color="#986e66" stop-opacity="0"/></radialGradient><linearGradient id="aF"><stop offset="0" stop-color="#664139"/><stop offset="1" stop-color="#7a4b42" stop-opacity="0"/></linearGradient><linearGradient id="aG" gradientUnits="userSpaceOnUse" x1="23.6344" x2="25.5549" xlink:href="#aF" y1="24.4712" y2="24.4712"/><linearGradient id="aH" gradientUnits="userSpaceOnUse" x1="23.6344" x2="25.5549" xlink:href="#aF" y1="25.9131" y2="25.9131"/><linearGradient id="aI" gradientUnits="userSpaceOnUse" x1="23.6344" x2="25.5549" xlink:href="#aF" y1="27.3433" y2="27.3433"/><linearGradient id="aJ"><stop offset=".00558659" stop-color="#ccc"/><stop offset="1" stop-color="#e6e6e6"/></linearGradient><linearGradient id="aK" gradientUnits="userSpaceOnUse" x1="7.63535" x2="22.3505" xlink:href="#aJ" y1="16.8545" y2="16.8545"/><linearGradient id="aL" gradientUnits="userSpaceOnUse" x1="7.63529" x2="22.3504" xlink:href="#aJ" y1="16.8235" y2="16.8235"/><linearGradient id="aM" gradientUnits="userSpaceOnUse" x1="8.58323" x2="9.85282" y1="12.0207" y2="12.0207"><stop offset="0" stop-color="#6a4745"/><stop offset="1" stop-color="#533335"/></linearGradient><radialGradient id="aN" cx="0" cy="0" gradientTransform="matrix(2.54776892 -1.15807921 1.41396298 3.11071203 19.109 12.381)" gradientUnits="userSpaceOnUse" r="1"><stop offset=".63975" stop-color="#875e5e"/><stop offset=".94391" stop-color="#9d7e72"/></radialGradient><radialGradient id="aO" cx="0" cy="0" gradientTransform="matrix(1.34680357 .75489791 -.21342096 .38076158 20.164 10.2107)" gradientUnits="userSpaceOnUse" r="1"><stop offset="0" stop-color="#755041"/><stop offset="1" stop-color="#755041" stop-opacity="0"/></radialGradient><radialGradient id="aP" cx="0" cy="0" gradientTransform="matrix(1.54551011 -.11496326 .08986952 1.20816212 19.4692 12.0464)" gradientUnits="userSpaceOnUse" r="1"><stop offset=".719132" stop-color="#7d4d48" stop-opacity="0"/><stop offset="1" stop-color="#7d4d48"/></radialGradient><radialGradient id="aQ" cx="0" cy="0" gradientTransform="matrix(-1.08087 0 0 -1.08087 10.2646 11.9315)" gradientUnits="userSpaceOnUse" r="1"><stop offset=".722222" stop-color="#5a3638" stop-opacity="0"/><stop offset="1" stop-color="#5a3638"/></radialGradient><radialGradient id="aR" cx="0" cy="0" gradientTransform="matrix(-6.65699465 3.06976189 -4.10882664 -8.91027968 17.9008 11.3813)" gradientUnits="userSpaceOnUse" r="1"><stop offset="0" stop-color="#996b5e"/><stop offset="1" stop-color="#764e4c"/></radialGradient><radialGradient id="aS" cx="0" cy="0" gradientTransform="matrix(-2.23171362 .98202399 -.68386684 -1.55413204 16.9914 12.2554)" gradientUnits="userSpaceOnUse" r="1"><stop offset="0" stop-color="#986b5a"/><stop offset="1" stop-color="#986b5a" stop-opacity="0"/></radialGradient><radialGradient id="aT" cx="0" cy="0" gradientTransform="matrix(1.31956206 -4.02103833 5.10194382 1.67427687 12.761 18.0423)" gradientUnits="userSpaceOnUse" r="1"><stop offset="0" stop-color="#743f5a"/><stop offset="1" stop-color="#743f5a" stop-opacity="0"/></radialGradient><radialGradient id="aU" cx="0" cy="0" gradientTransform="matrix(0 7.38342 -9.22918 0 14.9741 10.6589)" gradientUnits="userSpaceOnUse" r="1"><stop offset=".617938" stop-color="#7f495f" stop-opacity="0"/><stop offset="1" stop-color="#753f56"/></radialGradient><radialGradient id="aV" cx="0" cy="0" gradientTransform="matrix(-7.06857095 1.38718285 -2.38829464 -12.16986658 16.827 13.1531)" gradientUnits="userSpaceOnUse" r="1"><stop offset=".794964" stop-color="#805c54" stop-opacity="0"/><stop offset="1" stop-color="#805c54"/></radialGradient><radialGradient id="aW" cx="0" cy="0" gradientTransform="matrix(0 -1.17792 1.44563 0 17.3297 10.953)" gradientUnits="userSpaceOnUse" r="1"><stop offset="0" stop-color="#875555"/><stop offset="1" stop-color="#875555" stop-opacity="0"/></radialGradient><radialGradient id="aX" cx="0" cy="0" gradientTransform="matrix(0 -1.34348 1.53971 0 12.8486 10.719)" gradientUnits="userSpaceOnUse" r="1"><stop offset="0" stop-color="#714350"/><stop offset="1" stop-color="#714350" stop-opacity="0"/></radialGradient><radialGradient id="aY" cx="0" cy="0" gradientTransform="matrix(-.89068569 3.30286144 -2.6428395 -.71269696 16.3899 8.58242)" gradientUnits="userSpaceOnUse" r="1"><stop offset="0" stop-color="#815a5b"/><stop offset="1" stop-color="#815a5b" stop-opacity="0"/></radialGradient><radialGradient id="aZ" cx="0" cy="0" gradientTransform="matrix(-1.3156 0 0 -6.59762 20.1897 12.4756)" gradientUnits="userSpaceOnUse" r="1"><stop offset="0" stop-color="#986f60"/><stop offset="1" stop-color="#986f60" stop-opacity="0"/></radialGradient><radialGradient id="a0" cx="0" cy="0" gradientTransform="matrix(-.81567289 -1.32746615 1.41055419 -.86672705 18.6955 17.2615)" gradientUnits="userSpaceOnUse" r="1"><stop offset="0" stop-color="#836462"/><stop offset="1" stop-color="#836462" stop-opacity="0"/></radialGradient><radialGradient id="a1" cx="0" cy="0" gradientTransform="matrix(1.79127977 -1.59935696 1.89902409 2.12690696 10.8426 17.2455)" gradientUnits="userSpaceOnUse" r="1"><stop offset="0" stop-color="#6e494b"/><stop offset="1" stop-color="#6e494b" stop-opacity="0"/></radialGradient><radialGradient id="a2" cx="0" cy="0" gradientTransform="matrix(-.46628863 -2.09222952 .64480641 -.14370598 15.777 13.2196)" gradientUnits="userSpaceOnUse" r="1"><stop offset=".0168227" stop-color="#a07a6f"/><stop offset="1" stop-color="#a07a6f" stop-opacity="0"/></radialGradient><linearGradient id="a3" gradientUnits="userSpaceOnUse" x1="14.0133" x2="14.9741" y1="13.2942" y2="13.2942"><stop offset="0" stop-color="#744c45"/><stop offset="1" stop-color="#744c45" stop-opacity="0"/></linearGradient><linearGradient id="a4" gradientUnits="userSpaceOnUse" x1="14.9741" x2="14.9741" y1="14.112" y2="13.4873"><stop offset="0" stop-color="#7c455c"/><stop offset="1" stop-color="#7c455c" stop-opacity="0"/></linearGradient><radialGradient id="a5" cx="0" cy="0" gradientTransform="matrix(-.797787 0 0 -.223038 15.5317 13.4362)" gradientUnits="userSpaceOnUse" r="1"><stop offset="0" stop-color="#a07a6f"/><stop offset="1" stop-color="#a07a6f" stop-opacity="0"/></radialGradient><linearGradient id="a6" gradientUnits="userSpaceOnUse" x1="15.0542" x2="15.0542" y1="14.0852" y2="13.9424"><stop offset="0" stop-color="#693b40"/><stop offset="1" stop-color="#693b40" stop-opacity="0"/></linearGradient><radialGradient id="a7" cx="0" cy="0" gradientTransform="matrix(-1.40355449 .96359067 -1.15809281 -1.68686394 15.3601 12.8271)" gradientUnits="userSpaceOnUse" r="1"><stop offset=".777645" stop-color="#693b40" stop-opacity="0"/><stop offset="1" stop-color="#693b40"/></radialGradient><radialGradient id="a8" cx="0" cy="0" gradientTransform="matrix(-6.46873601 2.3750335 -2.07440097 -5.64992126 15.0654 10.5792)" gradientUnits="userSpaceOnUse" r="1"><stop offset="0" stop-color="#f32f73"/><stop offset="1" stop-color="#bc2f50"/><stop offset="1" stop-color="#c93859"/></radialGradient><radialGradient id="a9" cx="0" cy="0" gradientTransform="matrix(-.43749648 .50115838 -1.91938172 -1.67556361 13.4247 7.65729)" gradientUnits="userSpaceOnUse" r="1"><stop offset=".202966" stop-color="#860c4f"/><stop offset="1" stop-color="#860c4f" stop-opacity="0"/></radialGradient><linearGradient id="ba" gradientUnits="userSpaceOnUse" x1="13.8846" x2="14.3565" y1="15.555" y2="14.8258"><stop offset="0" stop-color="#865e63"/><stop offset=".663171" stop-color="#865e63" stop-opacity="0"/></linearGradient><linearGradient id="bb"><stop offset=".80198" stop-color="#7d574a"/><stop offset="1" stop-color="#694b43"/><stop offset="1" stop-color="#804d49"/><stop offset="1" stop-color="#664944"/></linearGradient><radialGradient id="bc" cx="0" cy="0" gradientTransform="matrix(0 .830455 -1.32093 0 17.2077 11.3203)" gradientUnits="userSpaceOnUse" r="1" xlink:href="#bb"/><linearGradient id="bd"><stop offset=".765532" stop-color="#ffe6e2" stop-opacity="0"/><stop offset=".966159" stop-color="#ffe6e2"/></linearGradient><radialGradient id="be" cx="0" cy="0" gradientTransform="matrix(-.23738781 -.30590621 .42115925 -.3268259 16.974 11.4065)" gradientUnits="userSpaceOnUse" r="1" xlink:href="#bd"/><linearGradient id="bf"><stop offset="0" stop-color="#b4948d"/><stop offset="1" stop-color="#b4948d" stop-opacity="0"/></linearGradient><linearGradient id="bg" gradientUnits="userSpaceOnUse" x1="18.004" x2="17.6828" xlink:href="#bf" y1="11.3754" y2="11.5733"/><radialGradient id="bh" cx="0" cy="0" gradientTransform="matrix(0 .83046 -1.32094 0 12.7407 11.3203)" gradientUnits="userSpaceOnUse" r="1" xlink:href="#bb"/><linearGradient id="bi" gradientUnits="userSpaceOnUse" x1="13.5019" x2="13.1808" xlink:href="#bf" y1="11.3756" y2="11.5735"/><radialGradient id="bj" cx="0" cy="0" gradientTransform="matrix(-.00791791 -.50571402 .6078895 -.00951765 12.4474 11.5447)" gradientUnits="userSpaceOnUse" r="1" xlink:href="#bd"/><radialGradient id="bk" cx="0" cy="0" gradientTransform="matrix(1.29180054 -2.82043155 1.44285968 .66085168 9.18256 9.14981)" gradientUnits="userSpaceOnUse" r="1"><stop offset="0" stop-color="#433838"/><stop offset="1" stop-color="#433838" stop-opacity="0"/></radialGradient><radialGradient id="bl" cx="0" cy="0" gradientTransform="matrix(-2.16177563 4.49504989 -7.34913522 -3.53437266 16.93 3.81997)" gradientUnits="userSpaceOnUse" r="1"><stop offset=".639192" stop-color="#1f0d24" stop-opacity="0"/><stop offset="1" stop-color="#1f0d24"/></radialGradient><radialGradient id="bm" cx="0" cy="0" gradientTransform="matrix(-.21529777 1.3994456 -3.01083767 -.46320245 15.1894 4.19809)" gradientUnits="userSpaceOnUse" r="1"><stop offset="0" stop-color="#4c4749"/><stop offset="1" stop-color="#4c4749" stop-opacity="0"/></radialGradient><linearGradient id="bn" gradientUnits="userSpaceOnUse" x1="12.0148" x2="12.5724" y1="5.58706" y2="6.89097"><stop offset="0" stop-color="#1a1316"/><stop offset="1" stop-color="#24182d"/></linearGradient><g clip-rule="evenodd" fill-rule="evenodd" filter="url(#a)"><path d="m22.3289 13.3745c.2175-.4455.3315-.9427.3315-1.4606 0-.4784-.0984-.9272-.2749-1.3363h.0054c-.0823-.1853-.1749-.3603-.2878-.5251l-.0021-.0032c-.3522-.53866-.5386-1.17055-.5386-1.81279v-.01036c0-1.86458-1.5124-3.37696-3.377-3.37696-.1865 0-.3626-.08287-.4662-.23825-.6111-.84942-1.616-1.40879-2.7451-1.40879s-2.1339.55937-2.7451 1.40879c-.1036.14502-.2797.23825-.4662.23825-.0291 0-.0581.00037-.087.00111-1.82437.04619-3.28991 1.54037-3.28991 3.37585v.01036c0 .64224-.18646 1.27413-.53866 1.81279l-.00235.0038c-.3507.5378-.55692 1.1684-.55692 1.8608 0 .5283.12431 1.0151.33148 1.4606.07252.145.07252.3211 0 .4661-.20717.4351-.33148.9219-.33148 1.4399 0 1.8231 1.47095 3.2941 3.29414 3.2941h8.7842c1.8231 0 3.2941-1.471 3.2941-3.2941 0-.518-.1243-1.0048-.3315-1.4399-.0725-.145-.0725-.3211 0-.4661zm-12.54938-2.7355h-.0126l1.22698 2.4111c.1262 2.8686 1.2457 0 3.9802 0 2.7344 0 3.9268 3.193 4.053.3244l1.1627-3.2726c-.055-1.27419-.9783-1.36363-1.1627-1.36363h-3.2959c-1.3016 0-2.5297-.63706-3.2645-1.71276-.126-.17754-.3884-.14621-.4724.05222l-.0839.19843c-.231.5744-.6718 1.01303-1.2177 1.26368-.0157.00522-.0341.01306-.0524.02089-.0184.00783-.0368.01567-.0525.02089-.2415.12532-.80828.50129-.82927 1.47258l.0105.3133z" fill="url(#E)"/><path d="m22.3289 13.3745c.2175-.4455.3315-.9427.3315-1.4606 0-.4784-.0984-.9272-.2749-1.3363h.0054c-.0823-.1853-.1749-.3603-.2878-.5251l-.0021-.0032c-.3522-.53866-.5386-1.17055-.5386-1.81279v-.01036c0-1.86458-1.5124-3.37696-3.377-3.37696-.1865 0-.3626-.08287-.4662-.23825-.6111-.84942-1.616-1.40879-2.7451-1.40879s-2.1339.55937-2.7451 1.40879c-.1036.14502-.2797.23825-.4662.23825-.0291 0-.0581.00037-.087.00111-1.82437.04619-3.28991 1.54037-3.28991 3.37585v.01036c0 .64224-.18646 1.27413-.53866 1.81279l-.00235.0038c-.3507.5378-.55692 1.1684-.55692 1.8608 0 .5283.12431 1.0151.33148 1.4606.07252.145.07252.3211 0 .4661-.20717.4351-.33148.9219-.33148 1.4399 0 1.8231 1.47095 3.2941 3.29414 3.2941h8.7842c1.8231 0 3.2941-1.471 3.2941-3.2941 0-.518-.1243-1.0048-.3315-1.4399-.0725-.145-.0725-.3211 0-.4661zm-12.54938-2.7355h-.0126l1.22698 2.4111c.1262 2.8686 1.2457 0 3.9802 0 2.7344 0 3.9268 3.193 4.053.3244l1.1627-3.2726c-.055-1.27419-.9783-1.36363-1.1627-1.36363h-3.2959c-1.3016 0-2.5297-.63706-3.2645-1.71276-.126-.17754-.3884-.14621-.4724.05222l-.0839.19843c-.231.5744-.6718 1.01303-1.2177 1.26368-.0157.00522-.0341.01306-.0524.02089-.0184.00783-.0368.01567-.0525.02089-.2415.12532-.80828.50129-.82927 1.47258l.0105.3133z" fill="url(#F)"/><path d="m22.3289 13.3745c.2175-.4455.3315-.9427.3315-1.4606 0-.4784-.0984-.9272-.2749-1.3363h.0054c-.0823-.1853-.1749-.3603-.2878-.5251l-.0021-.0032c-.3522-.53866-.5386-1.17055-.5386-1.81279v-.01036c0-1.86458-1.5124-3.37696-3.377-3.37696-.1865 0-.3626-.08287-.4662-.23825-.6111-.84942-1.616-1.40879-2.7451-1.40879s-2.1339.55937-2.7451 1.40879c-.1036.14502-.2797.23825-.4662.23825-.0291 0-.0581.00037-.087.00111-1.82437.04619-3.28991 1.54037-3.28991 3.37585v.01036c0 .64224-.18646 1.27413-.53866 1.81279l-.00235.0038c-.3507.5378-.55692 1.1684-.55692 1.8608 0 .5283.12431 1.0151.33148 1.4606.07252.145.07252.3211 0 .4661-.20717.4351-.33148.9219-.33148 1.4399 0 1.8231 1.47095 3.2941 3.29414 3.2941h8.7842c1.8231 0 3.2941-1.471 3.2941-3.2941 0-.518-.1243-1.0048-.3315-1.4399-.0725-.145-.0725-.3211 0-.4661zm-12.54938-2.7355h-.0126l1.22698 2.4111c.1262 2.8686 1.2457 0 3.9802 0 2.7344 0 3.9268 3.193 4.053.3244l1.1627-3.2726c-.055-1.27419-.9783-1.36363-1.1627-1.36363h-3.2959c-1.3016 0-2.5297-.63706-3.2645-1.71276-.126-.17754-.3884-.14621-.4724.05222l-.0839.19843c-.231.5744-.6718 1.01303-1.2177 1.26368-.0157.00522-.0341.01306-.0524.02089-.0184.00783-.0368.01567-.0525.02089-.2415.12532-.80828.50129-.82927 1.47258l.0105.3133z" fill="url(#G)"/><path d="m22.3289 13.3745c.2175-.4455.3315-.9427.3315-1.4606 0-.4784-.0984-.9272-.2749-1.3363h.0054c-.0823-.1853-.1749-.3603-.2878-.5251l-.0021-.0032c-.3522-.53866-.5386-1.17055-.5386-1.81279v-.01036c0-1.86458-1.5124-3.37696-3.377-3.37696-.1865 0-.3626-.08287-.4662-.23825-.6111-.84942-1.616-1.40879-2.7451-1.40879s-2.1339.55937-2.7451 1.40879c-.1036.14502-.2797.23825-.4662.23825-.0291 0-.0581.00037-.087.00111-1.82437.04619-3.28991 1.54037-3.28991 3.37585v.01036c0 .64224-.18646 1.27413-.53866 1.81279l-.00235.0038c-.3507.5378-.55692 1.1684-.55692 1.8608 0 .5283.12431 1.0151.33148 1.4606.07252.145.07252.3211 0 .4661-.20717.4351-.33148.9219-.33148 1.4399 0 1.8231 1.47095 3.2941 3.29414 3.2941h8.7842c1.8231 0 3.2941-1.471 3.2941-3.2941 0-.518-.1243-1.0048-.3315-1.4399-.0725-.145-.0725-.3211 0-.4661zm-12.54938-2.7355h-.0126l1.22698 2.4111c.1262 2.8686 1.2457 0 3.9802 0 2.7344 0 3.9268 3.193 4.053.3244l1.1627-3.2726c-.055-1.27419-.9783-1.36363-1.1627-1.36363h-3.2959c-1.3016 0-2.5297-.63706-3.2645-1.71276-.126-.17754-.3884-.14621-.4724.05222l-.0839.19843c-.231.5744-.6718 1.01303-1.2177 1.26368-.0157.00522-.0341.01306-.0524.02089-.0184.00783-.0368.01567-.0525.02089-.2415.12532-.80828.50129-.82927 1.47258l.0105.3133z" fill="url(#H)"/><path d="m22.3289 13.3745c.2175-.4455.3315-.9427.3315-1.4606 0-.4784-.0984-.9272-.2749-1.3363h.0054c-.0823-.1853-.1749-.3603-.2878-.5251l-.0021-.0032c-.3522-.53866-.5386-1.17055-.5386-1.81279v-.01036c0-1.86458-1.5124-3.37696-3.377-3.37696-.1865 0-.3626-.08287-.4662-.23825-.6111-.84942-1.616-1.40879-2.7451-1.40879s-2.1339.55937-2.7451 1.40879c-.1036.14502-.2797.23825-.4662.23825-.0291 0-.0581.00037-.087.00111-1.82437.04619-3.28991 1.54037-3.28991 3.37585v.01036c0 .64224-.18646 1.27413-.53866 1.81279l-.00235.0038c-.3507.5378-.55692 1.1684-.55692 1.8608 0 .5283.12431 1.0151.33148 1.4606.07252.145.07252.3211 0 .4661-.20717.4351-.33148.9219-.33148 1.4399 0 1.8231 1.47095 3.2941 3.29414 3.2941h8.7842c1.8231 0 3.2941-1.471 3.2941-3.2941 0-.518-.1243-1.0048-.3315-1.4399-.0725-.145-.0725-.3211 0-.4661zm-12.54938-2.7355h-.0126l1.22698 2.4111c.1262 2.8686 1.2457 0 3.9802 0 2.7344 0 3.9268 3.193 4.053.3244l1.1627-3.2726c-.055-1.27419-.9783-1.36363-1.1627-1.36363h-3.2959c-1.3016 0-2.5297-.63706-3.2645-1.71276-.126-.17754-.3884-.14621-.4724.05222l-.0839.19843c-.231.5744-.6718 1.01303-1.2177 1.26368-.0157.00522-.0341.01306-.0524.02089-.0184.00783-.0368.01567-.0525.02089-.2415.12532-.80828.50129-.82927 1.47258l.0105.3133z" fill="url(#I)"/><path d="m22.3289 13.3745c.2175-.4455.3315-.9427.3315-1.4606 0-.4784-.0984-.9272-.2749-1.3363h.0054c-.0823-.1853-.1749-.3603-.2878-.5251l-.0021-.0032c-.3522-.53866-.5386-1.17055-.5386-1.81279v-.01036c0-1.86458-1.5124-3.37696-3.377-3.37696-.1865 0-.3626-.08287-.4662-.23825-.6111-.84942-1.616-1.40879-2.7451-1.40879s-2.1339.55937-2.7451 1.40879c-.1036.14502-.2797.23825-.4662.23825-.0291 0-.0581.00037-.087.00111-1.82437.04619-3.28991 1.54037-3.28991 3.37585v.01036c0 .64224-.18646 1.27413-.53866 1.81279l-.00235.0038c-.3507.5378-.55692 1.1684-.55692 1.8608 0 .5283.12431 1.0151.33148 1.4606.07252.145.07252.3211 0 .4661-.20717.4351-.33148.9219-.33148 1.4399 0 1.8231 1.47095 3.2941 3.29414 3.2941h8.7842c1.8231 0 3.2941-1.471 3.2941-3.2941 0-.518-.1243-1.0048-.3315-1.4399-.0725-.145-.0725-.3211 0-.4661zm-12.54938-2.7355h-.0126l1.22698 2.4111c.1262 2.8686 1.2457 0 3.9802 0 2.7344 0 3.9268 3.193 4.053.3244l1.1627-3.2726c-.055-1.27419-.9783-1.36363-1.1627-1.36363h-3.2959c-1.3016 0-2.5297-.63706-3.2645-1.71276-.126-.17754-.3884-.14621-.4724.05222l-.0839.19843c-.231.5744-.6718 1.01303-1.2177 1.26368-.0157.00522-.0341.01306-.0524.02089-.0184.00783-.0368.01567-.0525.02089-.2415.12532-.80828.50129-.82927 1.47258l.0105.3133z" fill="url(#J)"/><path d="m22.3289 13.3745c.2175-.4455.3315-.9427.3315-1.4606 0-.4784-.0984-.9272-.2749-1.3363h.0054c-.0823-.1853-.1749-.3603-.2878-.5251l-.0021-.0032c-.3522-.53866-.5386-1.17055-.5386-1.81279v-.01036c0-1.86458-1.5124-3.37696-3.377-3.37696-.1865 0-.3626-.08287-.4662-.23825-.6111-.84942-1.616-1.40879-2.7451-1.40879s-2.1339.55937-2.7451 1.40879c-.1036.14502-.2797.23825-.4662.23825-.0291 0-.0581.00037-.087.00111-1.82437.04619-3.28991 1.54037-3.28991 3.37585v.01036c0 .64224-.18646 1.27413-.53866 1.81279l-.00235.0038c-.3507.5378-.55692 1.1684-.55692 1.8608 0 .5283.12431 1.0151.33148 1.4606.07252.145.07252.3211 0 .4661-.20717.4351-.33148.9219-.33148 1.4399 0 1.8231 1.47095 3.2941 3.29414 3.2941h8.7842c1.8231 0 3.2941-1.471 3.2941-3.2941 0-.518-.1243-1.0048-.3315-1.4399-.0725-.145-.0725-.3211 0-.4661zm-12.54938-2.7355h-.0126l1.22698 2.4111c.1262 2.8686 1.2457 0 3.9802 0 2.7344 0 3.9268 3.193 4.053.3244l1.1627-3.2726c-.055-1.27419-.9783-1.36363-1.1627-1.36363h-3.2959c-1.3016 0-2.5297-.63706-3.2645-1.71276-.126-.17754-.3884-.14621-.4724.05222l-.0839.19843c-.231.5744-.6718 1.01303-1.2177 1.26368-.0157.00522-.0341.01306-.0524.02089-.0184.00783-.0368.01567-.0525.02089-.2415.12532-.80828.50129-.82927 1.47258l.0105.3133z" fill="url(#K)"/><path d="m22.3289 13.3745c.2175-.4455.3315-.9427.3315-1.4606 0-.4784-.0984-.9272-.2749-1.3363h.0054c-.0823-.1853-.1749-.3603-.2878-.5251l-.0021-.0032c-.3522-.53866-.5386-1.17055-.5386-1.81279v-.01036c0-1.86458-1.5124-3.37696-3.377-3.37696-.1865 0-.3626-.08287-.4662-.23825-.6111-.84942-1.616-1.40879-2.7451-1.40879s-2.1339.55937-2.7451 1.40879c-.1036.14502-.2797.23825-.4662.23825-.0291 0-.0581.00037-.087.00111-1.82437.04619-3.28991 1.54037-3.28991 3.37585v.01036c0 .64224-.18646 1.27413-.53866 1.81279l-.00235.0038c-.3507.5378-.55692 1.1684-.55692 1.8608 0 .5283.12431 1.0151.33148 1.4606.07252.145.07252.3211 0 .4661-.20717.4351-.33148.9219-.33148 1.4399 0 1.8231 1.47095 3.2941 3.29414 3.2941h8.7842c1.8231 0 3.2941-1.471 3.2941-3.2941 0-.518-.1243-1.0048-.3315-1.4399-.0725-.145-.0725-.3211 0-.4661zm-12.54938-2.7355h-.0126l1.22698 2.4111c.1262 2.8686 1.2457 0 3.9802 0 2.7344 0 3.9268 3.193 4.053.3244l1.1627-3.2726c-.055-1.27419-.9783-1.36363-1.1627-1.36363h-3.2959c-1.3016 0-2.5297-.63706-3.2645-1.71276-.126-.17754-.3884-.14621-.4724.05222l-.0839.19843c-.231.5744-.6718 1.01303-1.2177 1.26368-.0157.00522-.0341.01306-.0524.02089-.0184.00783-.0368.01567-.0525.02089-.2415.12532-.80828.50129-.82927 1.47258l.0105.3133z" fill="url(#L)"/><path d="m22.3289 13.3745c.2175-.4455.3315-.9427.3315-1.4606 0-.4784-.0984-.9272-.2749-1.3363h.0054c-.0823-.1853-.1749-.3603-.2878-.5251l-.0021-.0032c-.3522-.53866-.5386-1.17055-.5386-1.81279v-.01036c0-1.86458-1.5124-3.37696-3.377-3.37696-.1865 0-.3626-.08287-.4662-.23825-.6111-.84942-1.616-1.40879-2.7451-1.40879s-2.1339.55937-2.7451 1.40879c-.1036.14502-.2797.23825-.4662.23825-.0291 0-.0581.00037-.087.00111-1.82437.04619-3.28991 1.54037-3.28991 3.37585v.01036c0 .64224-.18646 1.27413-.53866 1.81279l-.00235.0038c-.3507.5378-.55692 1.1684-.55692 1.8608 0 .5283.12431 1.0151.33148 1.4606.07252.145.07252.3211 0 .4661-.20717.4351-.33148.9219-.33148 1.4399 0 1.8231 1.47095 3.2941 3.29414 3.2941h8.7842c1.8231 0 3.2941-1.471 3.2941-3.2941 0-.518-.1243-1.0048-.3315-1.4399-.0725-.145-.0725-.3211 0-.4661zm-12.54938-2.7355h-.0126l1.22698 2.4111c.1262 2.8686 1.2457 0 3.9802 0 2.7344 0 3.9268 3.193 4.053.3244l1.1627-3.2726c-.055-1.27419-.9783-1.36363-1.1627-1.36363h-3.2959c-1.3016 0-2.5297-.63706-3.2645-1.71276-.126-.17754-.3884-.14621-.4724.05222l-.0839.19843c-.231.5744-.6718 1.01303-1.2177 1.26368-.0157.00522-.0341.01306-.0524.02089-.0184.00783-.0368.01567-.0525.02089-.2415.12532-.80828.50129-.82927 1.47258l.0105.3133z" fill="url(#M)"/><path d="m22.3289 13.3745c.2175-.4455.3315-.9427.3315-1.4606 0-.4784-.0984-.9272-.2749-1.3363h.0054c-.0823-.1853-.1749-.3603-.2878-.5251l-.0021-.0032c-.3522-.53866-.5386-1.17055-.5386-1.81279v-.01036c0-1.86458-1.5124-3.37696-3.377-3.37696-.1865 0-.3626-.08287-.4662-.23825-.6111-.84942-1.616-1.40879-2.7451-1.40879s-2.1339.55937-2.7451 1.40879c-.1036.14502-.2797.23825-.4662.23825-.0291 0-.0581.00037-.087.00111-1.82437.04619-3.28991 1.54037-3.28991 3.37585v.01036c0 .64224-.18646 1.27413-.53866 1.81279l-.00235.0038c-.3507.5378-.55692 1.1684-.55692 1.8608 0 .5283.12431 1.0151.33148 1.4606.07252.145.07252.3211 0 .4661-.20717.4351-.33148.9219-.33148 1.4399 0 1.8231 1.47095 3.2941 3.29414 3.2941h8.7842c1.8231 0 3.2941-1.471 3.2941-3.2941 0-.518-.1243-1.0048-.3315-1.4399-.0725-.145-.0725-.3211 0-.4661zm-12.54938-2.7355h-.0126l1.22698 2.4111c.1262 2.8686 1.2457 0 3.9802 0 2.7344 0 3.9268 3.193 4.053.3244l1.1627-3.2726c-.055-1.27419-.9783-1.36363-1.1627-1.36363h-3.2959c-1.3016 0-2.5297-.63706-3.2645-1.71276-.126-.17754-.3884-.14621-.4724.05222l-.0839.19843c-.231.5744-.6718 1.01303-1.2177 1.26368-.0157.00522-.0341.01306-.0524.02089-.0184.00783-.0368.01567-.0525.02089-.2415.12532-.80828.50129-.82927 1.47258l.0105.3133z" fill="url(#N)"/><path d="m22.3289 13.3745c.2175-.4455.3315-.9427.3315-1.4606 0-.4784-.0984-.9272-.2749-1.3363h.0054c-.0823-.1853-.1749-.3603-.2878-.5251l-.0021-.0032c-.3522-.53866-.5386-1.17055-.5386-1.81279v-.01036c0-1.86458-1.5124-3.37696-3.377-3.37696-.1865 0-.3626-.08287-.4662-.23825-.6111-.84942-1.616-1.40879-2.7451-1.40879s-2.1339.55937-2.7451 1.40879c-.1036.14502-.2797.23825-.4662.23825-.0291 0-.0581.00037-.087.00111-1.82437.04619-3.28991 1.54037-3.28991 3.37585v.01036c0 .64224-.18646 1.27413-.53866 1.81279l-.00235.0038c-.3507.5378-.55692 1.1684-.55692 1.8608 0 .5283.12431 1.0151.33148 1.4606.07252.145.07252.3211 0 .4661-.20717.4351-.33148.9219-.33148 1.4399 0 1.8231 1.47095 3.2941 3.29414 3.2941h8.7842c1.8231 0 3.2941-1.471 3.2941-3.2941 0-.518-.1243-1.0048-.3315-1.4399-.0725-.145-.0725-.3211 0-.4661zm-12.54938-2.7355h-.0126l1.22698 2.4111c.1262 2.8686 1.2457 0 3.9802 0 2.7344 0 3.9268 3.193 4.053.3244l1.1627-3.2726c-.055-1.27419-.9783-1.36363-1.1627-1.36363h-3.2959c-1.3016 0-2.5297-.63706-3.2645-1.71276-.126-.17754-.3884-.14621-.4724.05222l-.0839.19843c-.231.5744-.6718 1.01303-1.2177 1.26368-.0157.00522-.0341.01306-.0524.02089-.0184.00783-.0368.01567-.0525.02089-.2415.12532-.80828.50129-.82927 1.47258l.0105.3133z" fill="url(#O)"/></g><g filter="url(#b)"><path d="m12.7396 24.0476v4.74h5.3131l-.8031-4.69c-.68.25-1.42.38-2.19.38-.81.01-1.6-.15-2.32-.43z" fill="#e7c1f2"/><path d="m12.7396 24.0476v4.74h5.3131l-.8031-4.69c-.68.25-1.42.38-2.19.38-.81.01-1.6-.15-2.32-.43z" fill="url(#P)"/></g><path d="m6.96961 28.7874v-7.93c-1.44 1.35-2.56 3.07-3.18 5.04l-.03.09c-.29.91-.51 1.85-.66 2.8z" fill="url(#Q)"/><path d="m6.96961 28.7874v-7.93c-1.44 1.35-2.56 3.07-3.18 5.04l-.03.09c-.29.91-.51 1.85-.66 2.8z" fill="url(#R)"/><path d="m26.9097 28.7874c-.14-.96-.36-1.91-.65-2.84-.63-2.01-1.76-3.76-3.24-5.13v7.97z" fill="url(#S)"/><path d="m26.9097 28.7874c-.14-.96-.36-1.91-.65-2.84-.63-2.01-1.76-3.76-3.24-5.13v7.97z" fill="url(#T)"/><path d="m23.0196 28.7876v-7.3022l-3.52 7.3022z" fill="url(#U)"/><path d="m24.205 16.8013-4.7789.0211c-.4794.0022-.8899.3442-.9784.8154l-2.0961 11.16h3.148l5.3254-11.0165c.22-.46-.12-.98-.62-.98z" fill="url(#V)"/><path d="m24.205 16.8013-4.7789.0211c-.4794.0022-.8899.3442-.9784.8154l-2.0961 11.16h3.148l5.3254-11.0165c.22-.46-.12-.98-.62-.98z" fill="url(#W)"/><path d="m24.205 16.8013-4.7789.0211c-.4794.0022-.8899.3442-.9784.8154l-2.0961 11.16h3.148l5.3254-11.0165c.22-.46-.12-.98-.62-.98z" fill="url(#X)"/><path d="m24.205 16.8013-4.7789.0211c-.4794.0022-.8899.3442-.9784.8154l-2.0961 11.16h3.148l5.3254-11.0165c.22-.46-.12-.98-.62-.98z" fill="url(#Y)"/><path d="m5.29674 16.8091h5.25616c.4812 0 .8942.3427.9829.8157l2.0952 11.173h-2.79l-5.8802-11.5285c-.08572-.125-.07005-.4602.33594-.4602z" fill="url(#Z)"/><path d="m5.29674 16.8091h5.25616c.4812 0 .8942.3427.9829.8157l2.0952 11.173h-2.79l-5.8802-11.5285c-.08572-.125-.07005-.4602.33594-.4602z" fill="url(#aa)"/><path d="m5.29674 16.8091h5.25616c.4812 0 .8942.3427.9829.8157l2.0952 11.173h-2.79l-5.8802-11.5285c-.08572-.125-.07005-.4602.33594-.4602z" fill="url(#ab)"/><path d="m6.9696 28.7878h3.87l-3.87-7.5959z" fill="url(#ac)"/><path d="m6.9696 28.7878h3.87l-3.87-7.5959z" fill="url(#ad)"/><path d="m15.0096 17.6875c-1.16 0-2.2976.1715-3.3776.4915l1.0976 5.8685c.72.28 1.5.44 2.32.44.77 0 1.51-.14 2.19-.38l1.11-5.92c-1.05-.33-2.18-.5-3.34-.5z" fill="url(#ae)"/><path d="m15.0096 17.6875c-1.16 0-2.2976.1715-3.3776.4915l1.0976 5.8685c.72.28 1.5.44 2.32.44.77 0 1.51-.14 2.19-.38l1.11-5.92c-1.05-.33-2.18-.5-3.34-.5z" fill="url(#af)"/><path d="m15.0096 17.6875c-1.16 0-2.2976.1715-3.3776.4915l1.0976 5.8685c.72.28 1.5.44 2.32.44.77 0 1.51-.14 2.19-.38l1.11-5.92c-1.05-.33-2.18-.5-3.34-.5z" fill="url(#ag)"/><g filter="url(#c)"><path d="m12.704 15.6541h4.5712v2.7992c0 1.2623-1.0233 1.9774-2.2856 1.9774s-2.2856-.7151-2.2856-1.9774z" stroke="url(#ah)" stroke-width=".25"/></g><path d="m12.704 15.6541h4.5712v2.7992c0 1.2623-1.0233 1.9774-2.2856 1.9774s-2.2856-.7151-2.2856-1.9774z" fill="url(#ai)"/><path d="m12.704 15.6541h4.5712v2.7992c0 1.2623-1.0233 1.9774-2.2856 1.9774s-2.2856-.7151-2.2856-1.9774z" fill="url(#aj)"/><path d="m12.704 15.6541h4.5712v2.7992c0 1.2623-1.0233 1.9774-2.2856 1.9774s-2.2856-.7151-2.2856-1.9774z" fill="url(#ak)"/><path d="m12.704 15.6541h4.5712v2.7992c0 1.2623-1.0233 1.9774-2.2856 1.9774s-2.2856-.7151-2.2856-1.9774z" fill="url(#al)"/><path d="m27.1688 21.1121c.59 0 1.07.48 1.07 1.07v2.45h-2.14v-2.45c0-.59.48-1.07 1.07-1.07z" fill="url(#am)"/><path d="m27.1688 21.1121c.59 0 1.07.48 1.07 1.07v2.45h-2.14v-2.45c0-.59.48-1.07 1.07-1.07z" fill="url(#an)"/><path d="m25.6584 19.9862c1.3796 0 2.4981-1.1184 2.4981-2.4981s-1.1185-2.4981-2.4981-2.4981c-1.3797 0-2.4981 1.1184-2.4981 2.4981s1.1184 2.4981 2.4981 2.4981z" fill="url(#ao)"/><path d="m25.6584 19.9862c1.3796 0 2.4981-1.1184 2.4981-2.4981s-1.1185-2.4981-2.4981-2.4981c-1.3797 0-2.4981 1.1184-2.4981 2.4981s1.1184 2.4981 2.4981 2.4981z" fill="url(#ap)"/><path d="m25.6584 19.9862c1.3796 0 2.4981-1.1184 2.4981-2.4981s-1.1185-2.4981-2.4981-2.4981c-1.3797 0-2.4981 1.1184-2.4981 2.4981s1.1184 2.4981 2.4981 2.4981z" fill="url(#aq)"/><path d="m25.6584 19.9862c1.3796 0 2.4981-1.1184 2.4981-2.4981s-1.1185-2.4981-2.4981-2.4981c-1.3797 0-2.4981 1.1184-2.4981 2.4981s1.1184 2.4981 2.4981 2.4981z" fill="url(#ar)"/><g filter="url(#d)"><path d="m28.1057 16.8282-4.8439-.0203c-.3249 0-.5788.2538-.5788.5788 0 .3249.2539.5788.5788.5788l4.8439.0203c.3249 0 .5788-.2538.5788-.5788 0-.3148-.264-.5788-.5788-.5788z" fill="url(#as)"/><path d="m28.1057 16.8282-4.8439-.0203c-.3249 0-.5788.2538-.5788.5788 0 .3249.2539.5788.5788.5788l4.8439.0203c.3249 0 .5788-.2538.5788-.5788 0-.3148-.264-.5788-.5788-.5788z" fill="url(#at)"/><path d="m28.1057 16.8282-4.8439-.0203c-.3249 0-.5788.2538-.5788.5788 0 .3249.2539.5788.5788.5788l4.8439.0203c.3249 0 .5788-.2538.5788-.5788 0-.3148-.264-.5788-.5788-.5788z" fill="url(#au)"/></g><path d="m25.6178 26.6276c-.4062 0-.7413-.3046-.7819-.7108l-.6703-6.428 2.9754.0101-.7311 6.4281c-.0508.4062-.3961.7006-.7921.7006z" fill="url(#av)"/><path d="m25.6178 26.6276c-.4062 0-.7413-.3046-.7819-.7108l-.6703-6.428 2.9754.0101-.7311 6.4281c-.0508.4062-.3961.7006-.7921.7006z" fill="url(#aw)"/><path d="m25.6178 26.6276c-.4062 0-.7413-.3046-.7819-.7108l-.6703-6.428 2.9754.0101-.7311 6.4281c-.0508.4062-.3961.7006-.7921.7006z" fill="url(#ax)"/><g filter="url(#e)"><path d="m25.6279 21.9158c.2692 0 .4875-.2182.4875-.4874 0-.2693-.2183-.4875-.4875-.4875s-.4874.2182-.4874.4875c0 .2692.2182.4874.4874.4874z" fill="url(#ay)"/></g><g filter="url(#f)"><path d="m23.0196 23.6742c0-.4398.3655-.8021.8164-.8021h3.0545c.7446 0 1.3483.5888 1.3483 1.3152v3.5142c0 .6054-.5031 1.0961-1.1236 1.0961h-3.2792c-.4509 0-.8164-.3623-.8164-.8021 0-.3143.1867-.589.4577-.7203-.271-.1312-.4577-.4059-.4577-.7202 0-.3142.1867-.5889.4577-.7202-.271-.1312-.4577-.4059-.4577-.7202 0-.3142.1867-.589.4577-.7202-.271-.1312-.4577-.4059-.4577-.7202z" fill="url(#az)"/><path d="m23.0196 23.6742c0-.4398.3655-.8021.8164-.8021h3.0545c.7446 0 1.3483.5888 1.3483 1.3152v3.5142c0 .6054-.5031 1.0961-1.1236 1.0961h-3.2792c-.4509 0-.8164-.3623-.8164-.8021 0-.3143.1867-.589.4577-.7203-.271-.1312-.4577-.4059-.4577-.7202 0-.3142.1867-.5889.4577-.7202-.271-.1312-.4577-.4059-.4577-.7202 0-.3142.1867-.589.4577-.7202-.271-.1312-.4577-.4059-.4577-.7202z" fill="url(#aA)"/><path d="m23.0196 23.6742c0-.4398.3655-.8021.8164-.8021h3.0545c.7446 0 1.3483.5888 1.3483 1.3152v3.5142c0 .6054-.5031 1.0961-1.1236 1.0961h-3.2792c-.4509 0-.8164-.3623-.8164-.8021 0-.3143.1867-.589.4577-.7203-.271-.1312-.4577-.4059-.4577-.7202 0-.3142.1867-.5889.4577-.7202-.271-.1312-.4577-.4059-.4577-.7202 0-.3142.1867-.589.4577-.7202-.271-.1312-.4577-.4059-.4577-.7202z" fill="url(#aC)"/><path d="m23.0196 23.6742c0-.4398.3655-.8021.8164-.8021h3.0545c.7446 0 1.3483.5888 1.3483 1.3152v3.5142c0 .6054-.5031 1.0961-1.1236 1.0961h-3.2792c-.4509 0-.8164-.3623-.8164-.8021 0-.3143.1867-.589.4577-.7203-.271-.1312-.4577-.4059-.4577-.7202 0-.3142.1867-.5889.4577-.7202-.271-.1312-.4577-.4059-.4577-.7202 0-.3142.1867-.589.4577-.7202-.271-.1312-.4577-.4059-.4577-.7202z" fill="url(#aD)"/><path d="m23.0196 23.6742c0-.4398.3655-.8021.8164-.8021h3.0545c.7446 0 1.3483.5888 1.3483 1.3152v3.5142c0 .6054-.5031 1.0961-1.1236 1.0961h-3.2792c-.4509 0-.8164-.3623-.8164-.8021 0-.3143.1867-.589.4577-.7203-.271-.1312-.4577-.4059-.4577-.7202 0-.3142.1867-.5889.4577-.7202-.271-.1312-.4577-.4059-.4577-.7202 0-.3142.1867-.589.4577-.7202-.271-.1312-.4577-.4059-.4577-.7202z" fill="url(#aE)"/></g><g filter="url(#g)"><path d="m23.6344 24.3931h2.019" stroke="url(#aG)" stroke-linecap="round" stroke-width=".1"/></g><g filter="url(#h)"><path d="m23.6344 25.835h2.019" stroke="url(#aH)" stroke-linecap="round" stroke-width=".1"/></g><g filter="url(#i)"><path d="m23.6344 27.2651h2.019" stroke="url(#aI)" stroke-linecap="round" stroke-width=".1"/></g><path d="m15.3529 16.8242c.2559.0103.522.0307.7882.0512-.2662-.0205-.5221-.0409-.7882-.0512z" fill="url(#aK)"/><path d="m15.0151 16.8242c-.0103 0-.0205 0-.041 0 .1024 0 .1945 0 .2969.0103-.0819-.0103-.174-.0103-.2559-.0103z" fill="url(#aL)"/><g filter="url(#j)"><path d="m10.1779 13.5785c.9097 0 1.6471-.7374 1.6471-1.647 0-.9097-.7374-1.6471-1.6471-1.6471-.90961 0-1.64702.7374-1.64702 1.6471 0 .9096.73741 1.647 1.64702 1.647z" fill="url(#aM)"/></g><g filter="url(#k)"><path d="m19.9152 13.5785c.9097 0 1.6471-.7374 1.6471-1.647 0-.9097-.7374-1.6471-1.6471-1.6471-.9096 0-1.647.7374-1.647 1.6471 0 .9096.7374 1.647 1.647 1.647z" fill="url(#aN)"/><path d="m19.9152 13.5785c.9097 0 1.6471-.7374 1.6471-1.647 0-.9097-.7374-1.6471-1.6471-1.6471-.9096 0-1.647.7374-1.647 1.6471 0 .9096.7374 1.647 1.647 1.647z" fill="url(#aO)"/></g><g filter="url(#l)"><path d="m19.9152 13.0309c.6073 0 1.0995-.4922 1.0995-1.0994s-.4922-1.0995-1.0995-1.0995c-.6072 0-1.0994.4923-1.0994 1.0995s.4922 1.0994 1.0994 1.0994z" fill="#845f59"/><path d="m19.9152 13.0309c.6073 0 1.0995-.4922 1.0995-1.0994s-.4922-1.0995-1.0995-1.0995c-.6072 0-1.0994.4923-1.0994 1.0995s.4922 1.0994 1.0994 1.0994z" fill="url(#aP)"/></g><g filter="url(#m)"><path d="m10.1977 13.0309c.6072 0 1.0995-.4922 1.0995-1.0994s-.4923-1.0995-1.0995-1.0995c-.60719 0-1.09943.4923-1.09943 1.0995s.49224 1.0994 1.09943 1.0994z" fill="#5f3c45"/><path d="m10.1977 13.0309c.6072 0 1.0995-.4922 1.0995-1.0994s-.4923-1.0995-1.0995-1.0995c-.60719 0-1.09943.4923-1.09943 1.0995s.49224 1.0994 1.09943 1.0994z" fill="url(#aQ)"/></g><g filter="url(#n)"><path d="m9.76681 10.6391h.01261l-.0105-.2716-.0105-.3133c.021-.97125.58778-1.34722.82928-1.47254.0157-.00522.0341-.01306.0524-.02089.0184-.00783.0368-.01566.0525-.02089.5459-.25064.9867-.68928 1.2177-1.26368l.0839-.19843c.084-.19843.3464-.22976.4724-.05222.7348 1.0757 1.9629 1.71276 3.2645 1.71276h3.2959c.1843 0 1.1077.08944 1.1627 1.36359l-.1216 3.1456c-.1262 2.8686-2.3663 4.7948-5.1008 4.7948-2.7344 0-4.97454-1.9262-5.10075-4.7948z" fill="url(#aR)"/><path d="m9.76681 10.6391h.01261l-.0105-.2716-.0105-.3133c.021-.97125.58778-1.34722.82928-1.47254.0157-.00522.0341-.01306.0524-.02089.0184-.00783.0368-.01566.0525-.02089.5459-.25064.9867-.68928 1.2177-1.26368l.0839-.19843c.084-.19843.3464-.22976.4724-.05222.7348 1.0757 1.9629 1.71276 3.2645 1.71276h3.2959c.1843 0 1.1077.08944 1.1627 1.36359l-.1216 3.1456c-.1262 2.8686-2.3663 4.7948-5.1008 4.7948-2.7344 0-4.97454-1.9262-5.10075-4.7948z" fill="url(#aS)"/><path d="m9.76681 10.6391h.01261l-.0105-.2716-.0105-.3133c.021-.97125.58778-1.34722.82928-1.47254.0157-.00522.0341-.01306.0524-.02089.0184-.00783.0368-.01566.0525-.02089.5459-.25064.9867-.68928 1.2177-1.26368l.0839-.19843c.084-.19843.3464-.22976.4724-.05222.7348 1.0757 1.9629 1.71276 3.2645 1.71276h3.2959c.1843 0 1.1077.08944 1.1627 1.36359l-.1216 3.1456c-.1262 2.8686-2.3663 4.7948-5.1008 4.7948-2.7344 0-4.97454-1.9262-5.10075-4.7948z" fill="url(#aT)"/><path d="m9.76681 10.6391h.01261l-.0105-.2716-.0105-.3133c.021-.97125.58778-1.34722.82928-1.47254.0157-.00522.0341-.01306.0524-.02089.0184-.00783.0368-.01566.0525-.02089.5459-.25064.9867-.68928 1.2177-1.26368l.0839-.19843c.084-.19843.3464-.22976.4724-.05222.7348 1.0757 1.9629 1.71276 3.2645 1.71276h3.2959c.1843 0 1.1077.08944 1.1627 1.36359l-.1216 3.1456c-.1262 2.8686-2.3663 4.7948-5.1008 4.7948-2.7344 0-4.97454-1.9262-5.10075-4.7948z" fill="url(#aU)"/><path d="m9.76681 10.6391h.01261l-.0105-.2716-.0105-.3133c.021-.97125.58778-1.34722.82928-1.47254.0157-.00522.0341-.01306.0524-.02089.0184-.00783.0368-.01566.0525-.02089.5459-.25064.9867-.68928 1.2177-1.26368l.0839-.19843c.084-.19843.3464-.22976.4724-.05222.7348 1.0757 1.9629 1.71276 3.2645 1.71276h3.2959c.1843 0 1.1077.08944 1.1627 1.36359l-.1216 3.1456c-.1262 2.8686-2.3663 4.7948-5.1008 4.7948-2.7344 0-4.97454-1.9262-5.10075-4.7948z" fill="url(#aV)"/><path d="m9.76681 10.6391h.01261l-.0105-.2716-.0105-.3133c.021-.97125.58778-1.34722.82928-1.47254.0157-.00522.0341-.01306.0524-.02089.0184-.00783.0368-.01566.0525-.02089.5459-.25064.9867-.68928 1.2177-1.26368l.0839-.19843c.084-.19843.3464-.22976.4724-.05222.7348 1.0757 1.9629 1.71276 3.2645 1.71276h3.2959c.1843 0 1.1077.08944 1.1627 1.36359l-.1216 3.1456c-.1262 2.8686-2.3663 4.7948-5.1008 4.7948-2.7344 0-4.97454-1.9262-5.10075-4.7948z" fill="url(#aW)"/><path d="m9.76681 10.6391h.01261l-.0105-.2716-.0105-.3133c.021-.97125.58778-1.34722.82928-1.47254.0157-.00522.0341-.01306.0524-.02089.0184-.00783.0368-.01566.0525-.02089.5459-.25064.9867-.68928 1.2177-1.26368l.0839-.19843c.084-.19843.3464-.22976.4724-.05222.7348 1.0757 1.9629 1.71276 3.2645 1.71276h3.2959c.1843 0 1.1077.08944 1.1627 1.36359l-.1216 3.1456c-.1262 2.8686-2.3663 4.7948-5.1008 4.7948-2.7344 0-4.97454-1.9262-5.10075-4.7948z" fill="url(#aX)"/><path d="m9.76681 10.6391h.01261l-.0105-.2716-.0105-.3133c.021-.97125.58778-1.34722.82928-1.47254.0157-.00522.0341-.01306.0524-.02089.0184-.00783.0368-.01566.0525-.02089.5459-.25064.9867-.68928 1.2177-1.26368l.0839-.19843c.084-.19843.3464-.22976.4724-.05222.7348 1.0757 1.9629 1.71276 3.2645 1.71276h3.2959c.1843 0 1.1077.08944 1.1627 1.36359l-.1216 3.1456c-.1262 2.8686-2.3663 4.7948-5.1008 4.7948-2.7344 0-4.97454-1.9262-5.10075-4.7948z" fill="url(#aY)"/></g><path d="m9.76681 10.6391h.01261l-.0105-.2716-.0105-.3133c.021-.97125.58778-1.34722.82928-1.47254.0157-.00522.0341-.01306.0524-.02089.0184-.00783.0368-.01566.0525-.02089.5459-.25064.9867-.68928 1.2177-1.26368l.0839-.19843c.084-.19843.3464-.22976.4724-.05222.7348 1.0757 1.9629 1.71276 3.2645 1.71276h3.2959c.1843 0 1.1077.08944 1.1627 1.36359l-.1216 3.1456c-.1262 2.8686-2.3663 4.7948-5.1008 4.7948-2.7344 0-4.97454-1.9262-5.10075-4.7948z" fill="url(#aZ)"/><path d="m9.76681 10.6391h.01261l-.0105-.2716-.0105-.3133c.021-.97125.58778-1.34722.82928-1.47254.0157-.00522.0341-.01306.0524-.02089.0184-.00783.0368-.01566.0525-.02089.5459-.25064.9867-.68928 1.2177-1.26368l.0839-.19843c.084-.19843.3464-.22976.4724-.05222.7348 1.0757 1.9629 1.71276 3.2645 1.71276h3.2959c.1843 0 1.1077.08944 1.1627 1.36359l-.1216 3.1456c-.1262 2.8686-2.3663 4.7948-5.1008 4.7948-2.7344 0-4.97454-1.9262-5.10075-4.7948z" fill="url(#a0)"/><path d="m9.76681 10.6391h.01261l-.0105-.2716-.0105-.3133c.021-.97125.58778-1.34722.82928-1.47254.0157-.00522.0341-.01306.0524-.02089.0184-.00783.0368-.01566.0525-.02089.5459-.25064.9867-.68928 1.2177-1.26368l.0839-.19843c.084-.19843.3464-.22976.4724-.05222.7348 1.0757 1.9629 1.71276 3.2645 1.71276h3.2959c.1843 0 1.1077.08944 1.1627 1.36359l-.1216 3.1456c-.1262 2.8686-2.3663 4.7948-5.1008 4.7948-2.7344 0-4.97454-1.9262-5.10075-4.7948z" fill="url(#a1)"/><g filter="url(#o)"><path d="m14.5722 11.7037-.6997 1.7401c-.1111.3579.1554.7158.5329.7158h.8049c.3775 0 .6439-.3634.5329-.7158l-.544-1.7401c-.1166-.3855-.5049-.3855-.627 0z" fill="#70404a"/></g><g filter="url(#p)"><path d="m14.5827 11.5618-.544 1.7401c-.111.3579.1554.7159.5329.7159h.8049c.3775 0 .644-.3635.5329-.7159l-.544-1.7401c-.1165-.3855-.6605-.3855-.7827 0z" fill="#8a6058"/><path d="m14.5827 11.5618-.544 1.7401c-.111.3579.1554.7159.5329.7159h.8049c.3775 0 .644-.3635.5329-.7159l-.544-1.7401c-.1165-.3855-.6605-.3855-.7827 0z" fill="url(#a2)"/><path d="m14.5827 11.5618-.544 1.7401c-.111.3579.1554.7159.5329.7159h.8049c.3775 0 .644-.3635.5329-.7159l-.544-1.7401c-.1165-.3855-.6605-.3855-.7827 0z" fill="url(#a3)"/><path d="m14.5827 11.5618-.544 1.7401c-.111.3579.1554.7159.5329.7159h.8049c.3775 0 .644-.3635.5329-.7159l-.544-1.7401c-.1165-.3855-.6605-.3855-.7827 0z" fill="url(#a4)"/><path d="m14.5827 11.5618-.544 1.7401c-.111.3579.1554.7159.5329.7159h.8049c.3775 0 .644-.3635.5329-.7159l-.544-1.7401c-.1165-.3855-.6605-.3855-.7827 0z" fill="url(#a5)"/></g><path d="m14.5827 11.5618-.544 1.7401c-.111.3579.1554.7159.5329.7159h.8049c.3775 0 .644-.3635.5329-.7159l-.544-1.7401c-.1165-.3855-.6605-.3855-.7827 0z" fill="url(#a6)"/><path d="m14.5827 11.5618-.544 1.7401c-.111.3579.1554.7159.5329.7159h.8049c.3775 0 .644-.3635.5329-.7159l-.544-1.7401c-.1165-.3855-.6605-.3855-.7827 0z" fill="url(#a7)"/><path d="m13.9878 8.32894c-.5974-.29422-1.1196-.73828-1.5056-1.30339-.1233-.17379-.3773-.14744-.4668.03986l-1.9059 5.61089h1.8949l-.5222 2.9208 3.9207-5.5043h-2.0203z" fill="url(#a8)"/><path d="m13.9878 8.32894c-.5974-.29422-1.1196-.73828-1.5056-1.30339-.1233-.17379-.3773-.14744-.4668.03986l-1.9059 5.61089h1.8949l-.5222 2.9208 3.9207-5.5043h-2.0203z" fill="url(#a9)"/><path d="m13.5425 14.5147c.4136.2206.9065.347 1.4316.347.5303 0 1.0179-.1264 1.4316-.347l.0005-.0002c.0939-.0489.1924-.0204.2513.0422.0593.0629.0808.163.0216.2539m-3.1366-.2959 3.0946.2687m-3.0946-.2687-.0005-.0002c-.0947-.0493-.1932-.0184-.2516.0444-.0584.0629-.081.1631-.021.252m.2731-.2962-.2314.2687m3.368.0272c-.0001 0-.0001.0001-.0001.0001l-.0419-.0273m.042.0272v-.0001l-.042-.0271m.042.0272c-.3606.5588-.989.9316-1.705.9316-.7159 0-1.3441-.3726-1.7047-.9313m3.3677-.0275c-.3518.5453-.9648.9088-1.663.9088-.6983 0-1.3112-.3635-1.663-.9088m-.0417.0275c.0001.0002.0002.0004.0003.0005l.0414-.028m-.0417.0275c-.0001-.0001-.0002-.0003-.0003-.0004l.042-.0271" fill="#88014f" stroke="url(#ba)" stroke-width=".1"/><g filter="url(#q)"><path d="m16.1431 11.3491c.2717-.4778.6847-.8552 1.5737-.8552.3892 0 .7645.1078 1.0981.3774.2751.2224.2383.5069.0252.6134l-.5691.325c-.6673-.2157-1.405-.2449-2.1279-.4606z" fill="#2d2b2e"/></g><g filter="url(#r)"><path d="m13.8052 11.3491c-.2717-.4778-.6847-.8552-1.5736-.8552-.3892 0-.7645.1078-1.0981.3774-.2752.2224-.2383.5069-.0252.6134l.5691.325c.6672-.2157 1.405-.2449 2.1278-.4606z" fill="#272528"/></g><g filter="url(#s)"><path d="m11.4963 10.1118-.0045.0026c-.0002.0001-.0003.0002-.0004.0002-.13.0776-.2983.0354-.3762-.0944-.078-.12998-.0357-.29869.0943-.37669l.0006-.00035.001-.00063.003-.00178.0097-.00558c.008-.00457.0191-.01081.0332-.01844.0281-.01525.0682-.03609.1187-.06017.1009-.04807.2446-.10964.4198-.16555.3479-.11103.8344-.20444 1.3596-.11176.1493.02635.249.16874.2226.31804-.0263.1493-.1687.24897-.318.22262-.4081-.07202-.8001-.00072-1.0973.09412-.1473.04703-.2678.09867-.3505.13817-.0412.0196-.0728.0361-.0934.0472-.0102.0056-.0177.0098-.0222.0124z" fill="#352827"/></g><g filter="url(#t)"><path clip-rule="evenodd" d="m18.7937 9.64351c.0001.00005.0001.00009-.1411.23548l.1411-.23548c.13.078.1723.24671.0943.37669-.0779.1298-.2462.1721-.3761.0945-.0001-.0001-.0002-.0002-.0005-.0003l-.0045-.0026c-.0045-.0026-.012-.0068-.0223-.0124-.0205-.0111-.0521-.0276-.0934-.0472-.0827-.0395-.2031-.09114-.3505-.13817-.2972-.09484-.6891-.16614-1.0972-.09412-.1493.02635-.2917-.07332-.3181-.22262-.0263-.1493.0734-.29169.2227-.31804.5251-.09268 1.0116.00073 1.3596.11176.1751.05591.3189.11748.4198.16555.0505.02408.0905.04492.1187.06017.0141.00763.0252.01387.0332.01844l.0096.00558.003.00178.0011.00063z" fill="#352827" fill-rule="evenodd"/></g><path d="m17.4215 10.554c.6685 0 1.2332.4609 1.3869 1.0837.0456.1785-.0914.3488-.2741.3488h-2.2837c-.1454 0-.2616-.1329-.2326-.2782.1288-.6561.7059-1.1543 1.4035-1.1543z" fill="#fff"/><path d="m17.2098 10.832c.5065 0 .9135.4111.9135.9135 0 .0831-.0125.1661-.0333.2409h-1.7647c-.0207-.0789-.0332-.1578-.0332-.2409 0-.5024.4111-.9135.9177-.9135z" fill="url(#bc)"/><path d="m16.6865 11.7456c0-.2907.2326-.5232.5232-.5232.2907 0 .5232.2325.5232.5232 0 .0872-.0208.1702-.0581.2408h-.926c-.0415-.0706-.0623-.1536-.0623-.2408z" fill="#000"/><g filter="url(#u)"><path d="m17.1425 11.0252c.065.087-.071.1932-.2257.3088-.1546.1157-.2694.197-.3345.11-.0651-.0871.0076-.2514.1622-.367.1547-.1157.3329-.1389.398-.0518z" fill="#c7a7a3"/><path d="m17.1425 11.0252c.065.087-.071.1932-.2257.3088-.1546.1157-.2694.197-.3345.11-.0651-.0871.0076-.2514.1622-.367.1547-.1157.3329-.1389.398-.0518z" fill="url(#be)"/></g><g filter="url(#v)"><path d="m18.0234 11.6252c-.0337-.2361-.1719-.4141-.2368-.4736l-.266.292.1201.2335z" fill="url(#bg)"/></g><path d="m12.5267 10.554c-.6685 0-1.2332.4609-1.3869 1.0837-.0456.1786.0914.3488.2741.3488h2.2838c.1453 0 .2615-.1329.2325-.2782-.1287-.6561-.7101-1.1543-1.4035-1.1543z" fill="#fff"/><path d="m12.7386 10.832c-.5066 0-.9135.4111-.9135.9135 0 .0831.0124.1661.0332.2409h1.7647c.0208-.0789.0332-.1578.0332-.2409-.0041-.5024-.411-.9135-.9176-.9135z" fill="url(#bh)"/><path d="m13.2616 11.7456c0-.2907-.2325-.5232-.5232-.5232s-.5232.2325-.5232.5232c0 .0872.0208.1702.0581.2408h.926c.0374-.0706.0623-.1536.0623-.2408z" fill="#000"/><g filter="url(#w)"><path d="m13.573 11.6384c0-.2952-.24-.492-.3049-.5515l-.2952.2855.1817.3698z" fill="url(#bi)"/></g><g filter="url(#x)"><ellipse cx="12.4629" cy="11.2224" fill="#c7a7a3" fill-opacity=".9" rx=".398794" ry=".201827" transform="matrix(.88365127 -.46814574 .46814574 .88365127 -3.803676 7.140166)"/><ellipse cx="12.4629" cy="11.2224" fill="url(#bj)" rx=".398794" ry=".201827" transform="matrix(.88365127 -.46814574 .46814574 .88365127 -3.803676 7.140166)"/></g><g filter="url(#y)"><path d="m16.9594 9.5029c.3301-.08031 1.1511-.04016 1.6999.35248" stroke="#473c3c" stroke-linecap="round" stroke-width=".2"/></g><g filter="url(#z)"><path d="m13.079 9.5029c-.3302-.08031-1.1512-.04016-1.7.35248" stroke="#473c3c" stroke-linecap="round" stroke-width=".2"/></g><g filter="url(#A)"><path d="m9.78541 5.8019c.57909-.61337 1.67489-.61435 2.18109-.52285l.4051 1.32107c-.2588-.04003-.4894.05147-.6835.2402-.459 1.29018-2.03632 2.00161-2.7676 2.19606-.15188-1.52695.11135-2.43626.86491-3.23448z" fill="#2a191e"/><path d="m9.78541 5.8019c.57909-.61337 1.67489-.61435 2.18109-.52285l.4051 1.32107c-.2588-.04003-.4894.05147-.6835.2402-.459 1.29018-2.03632 2.00161-2.7676 2.19606-.15188-1.52695.11135-2.43626.86491-3.23448z" fill="url(#bk)"/></g><g filter="url(#B)"><path d="m14.3565 3.95722c-1.1593-.25597-2.2004.90073-2.3205 1.32965 1.0766 3.62864 3.8006 3.42988 6.4896 3.1311 1.6097-.17885 1.7843.55473 1.9216.9093 0-4.02548-3.4231-4.78116-6.0614-5.36358z" fill="#2f1920"/><path d="m14.3565 3.95722c-1.1593-.25597-2.2004.90073-2.3205 1.32965 1.0766 3.62864 3.8006 3.42988 6.4896 3.1311 1.6097-.17885 1.7843.55473 1.9216.9093 0-4.02548-3.4231-4.78116-6.0614-5.36358z" fill="url(#bl)"/><path d="m14.3565 3.95722c-1.1593-.25597-2.2004.90073-2.3205 1.32965 1.0766 3.62864 3.8006 3.42988 6.4896 3.1311 1.6097-.17885 1.7843.55473 1.9216.9093 0-4.02548-3.4231-4.78116-6.0614-5.36358z" fill="url(#bm)"/></g><g filter="url(#C)"><path d="m12.0148 5.23535c.0238.24877.2402 1.18381.5576 1.74999" stroke="url(#bn)" stroke-linecap="round" stroke-width=".2"/></g><g filter="url(#D)"><path d="m17.4372 7.65196-1.459.26838c-.4328.07961-.8318-.2527-.8318-.69276 0-.38902.3148-.70439.7039-.70439h2.3959c1.4171 0 1.8862 1.42816 1.9436 1.91617-.7441-.67822-1.7624-.96954-2.7526-.7874z" fill="#47383d"/></g></svg>