<svg fill="none" height="32" viewBox="0 0 32 32" width="32" xmlns="http://www.w3.org/2000/svg"><path d="m16 30c7.732 0 14-6.268 14-14 0-7.73199-6.268-14-14-14-7.73199 0-14 6.26801-14 14 0 7.732 6.26801 14 14 14z" fill="#1345b7"/><path d="m16.2 23.8c4.2415 0 7.68-3.4385 7.68-7.68s-3.4385-7.68-7.68-7.68c-4.2416 0-7.68001 3.4385-7.68001 7.68s3.43841 7.68 7.68001 7.68z" fill="#fff"/><path d="m16.2 23.8c4.2415 0 7.68-3.4385 7.68-7.68s-3.4385-7.68-7.68-7.68c-4.2416 0-7.68001 3.4385-7.68001 7.68s3.43841 7.68 7.68001 7.68z" fill="#fff"/><path d="m16.2 21.24c2.8277 0 5.12-2.2923 5.12-5.12s-2.2923-5.12-5.12-5.12-5.12 2.2923-5.12 5.12 2.2923 5.12 5.12 5.12z" fill="#26c9fc"/><path d="m16.2 18.68c1.4138 0 2.56-1.1462 2.56-2.56 0-1.4139-1.1462-2.56-2.56-2.56-1.4139 0-2.56 1.1461-2.56 2.56 0 1.4138 1.1461 2.56 2.56 2.56z" fill="#212121"/></svg>