<svg fill="none" height="32" viewBox="0 0 32 32" width="32" xmlns="http://www.w3.org/2000/svg" xmlns:xlink="http://www.w3.org/1999/xlink"><filter id="a" color-interpolation-filters="sRGB" filterUnits="userSpaceOnUse" height="6.03286" width="6.03286" x="22.0171" y="15.8854"><feFlood flood-opacity="0" result="BackgroundImageFix"/><feBlend in="SourceGraphic" in2="BackgroundImageFix" mode="normal" result="shape"/><feColorMatrix in="SourceAlpha" result="hardAlpha" type="matrix" values="0 0 0 0 0 0 0 0 0 0 0 0 0 0 0 0 0 0 127 0"/><feOffset dx=".1" dy="-.1"/><feGaussianBlur stdDeviation=".15"/><feComposite in2="hardAlpha" k2="-1" k3="1" operator="arithmetic"/><feColorMatrix type="matrix" values="0 0 0 0 0.486275 0 0 0 0 0.290196 0 0 0 0 0.396078 0 0 0 1 0"/><feBlend in2="shape" mode="normal" result="effect1_innerShadow_3987_24205"/></filter><filter id="b" color-interpolation-filters="sRGB" filterUnits="userSpaceOnUse" height="5.93286" width="6.03286" x="3.94458" y="15.9854"><feFlood flood-opacity="0" result="BackgroundImageFix"/><feBlend in="SourceGraphic" in2="BackgroundImageFix" mode="normal" result="shape"/><feColorMatrix in="SourceAlpha" result="hardAlpha" type="matrix" values="0 0 0 0 0 0 0 0 0 0 0 0 0 0 0 0 0 0 127 0"/><feOffset dx=".1"/><feGaussianBlur stdDeviation=".15"/><feComposite in2="hardAlpha" k2="-1" k3="1" operator="arithmetic"/><feColorMatrix type="matrix" values="0 0 0 0 0.513726 0 0 0 0 0.372549 0 0 0 0 0.345098 0 0 0 1 0"/><feBlend in2="shape" mode="normal" result="effect1_innerShadow_3987_24205"/></filter><filter id="c" color-interpolation-filters="sRGB" filterUnits="userSpaceOnUse" height="4.29688" width="8.32227" x="15.8687" y="19.1407"><feFlood flood-opacity="0" result="BackgroundImageFix"/><feBlend in="SourceGraphic" in2="BackgroundImageFix" mode="normal" result="shape"/><feGaussianBlur result="effect1_foregroundBlur_3987_24205" stdDeviation=".375"/></filter><filter id="d" color-interpolation-filters="sRGB" filterUnits="userSpaceOnUse" height="4.29688" width="8.32227" x="6.9624" y="19.1407"><feFlood flood-opacity="0" result="BackgroundImageFix"/><feBlend in="SourceGraphic" in2="BackgroundImageFix" mode="normal" result="shape"/><feGaussianBlur result="effect1_foregroundBlur_3987_24205" stdDeviation=".375"/></filter><filter id="e" color-interpolation-filters="sRGB" filterUnits="userSpaceOnUse" height="5.93628" width="4.31226" x="13.4207" y="17.2513"><feFlood flood-opacity="0" result="BackgroundImageFix"/><feBlend in="SourceGraphic" in2="BackgroundImageFix" mode="normal" result="shape"/><feGaussianBlur result="effect1_foregroundBlur_3987_24205" stdDeviation=".25"/></filter><filter id="f" color-interpolation-filters="sRGB" filterUnits="userSpaceOnUse" height="4.77783" width="3.55535" x="14.2195" y="17.6549"><feFlood flood-opacity="0" result="BackgroundImageFix"/><feBlend in="SourceGraphic" in2="BackgroundImageFix" mode="normal" result="shape"/><feColorMatrix in="SourceAlpha" result="hardAlpha" type="matrix" values="0 0 0 0 0 0 0 0 0 0 0 0 0 0 0 0 0 0 127 0"/><feOffset dx=".1"/><feGaussianBlur stdDeviation=".1"/><feComposite in2="hardAlpha" k2="-1" k3="1" operator="arithmetic"/><feColorMatrix type="matrix" values="0 0 0 0 0.423529 0 0 0 0 0.278431 0 0 0 0 0.27451 0 0 0 1 0"/><feBlend in2="shape" mode="normal" result="effect1_innerShadow_3987_24205"/></filter><filter id="g" color-interpolation-filters="sRGB" filterUnits="userSpaceOnUse" height="2.47234" width="6.47824" x="12.7081" y="23.3275"><feFlood flood-opacity="0" result="BackgroundImageFix"/><feBlend in="SourceGraphic" in2="BackgroundImageFix" mode="normal" result="shape"/><feGaussianBlur result="effect1_foregroundBlur_3987_24205" stdDeviation=".05"/></filter><filter id="h" color-interpolation-filters="sRGB" filterUnits="userSpaceOnUse" height="2.36597" width="5.35633" x="18.049" y="16.2251"><feFlood flood-opacity="0" result="BackgroundImageFix"/><feBlend in="SourceGraphic" in2="BackgroundImageFix" mode="normal" result="shape"/><feColorMatrix in="SourceAlpha" result="hardAlpha" type="matrix" values="0 0 0 0 0 0 0 0 0 0 0 0 0 0 0 0 0 0 127 0"/><feOffset dx=".2"/><feGaussianBlur stdDeviation=".125"/><feComposite in2="hardAlpha" k2="-1" k3="1" operator="arithmetic"/><feColorMatrix type="matrix" values="0 0 0 0 0.0901961 0 0 0 0 0.0588235 0 0 0 0 0.117647 0 0 0 1 0"/><feBlend in2="shape" mode="normal" result="effect1_innerShadow_3987_24205"/></filter><filter id="i" color-interpolation-filters="sRGB" filterUnits="userSpaceOnUse" height="2.36597" width="5.35633" x="8.6958" y="16.2251"><feFlood flood-opacity="0" result="BackgroundImageFix"/><feBlend in="SourceGraphic" in2="BackgroundImageFix" mode="normal" result="shape"/><feColorMatrix in="SourceAlpha" result="hardAlpha" type="matrix" values="0 0 0 0 0 0 0 0 0 0 0 0 0 0 0 0 0 0 127 0"/><feOffset dx=".2"/><feGaussianBlur stdDeviation=".125"/><feComposite in2="hardAlpha" k2="-1" k3="1" operator="arithmetic"/><feColorMatrix type="matrix" values="0 0 0 0 0.0901961 0 0 0 0 0.0588235 0 0 0 0 0.117647 0 0 0 1 0"/><feBlend in2="shape" mode="normal" result="effect1_innerShadow_3987_24205"/></filter><filter id="j" color-interpolation-filters="sRGB" filterUnits="userSpaceOnUse" height="1.11211" width="1.27841" x="18.6957" y="16.9867"><feFlood flood-opacity="0" result="BackgroundImageFix"/><feBlend in="SourceGraphic" in2="BackgroundImageFix" mode="normal" result="shape"/><feGaussianBlur result="effect1_foregroundBlur_3987_24205" stdDeviation=".05"/></filter><filter id="k" color-interpolation-filters="sRGB" filterUnits="userSpaceOnUse" height="1.34348" width="1.30273" x="20.3261" y="17.2081"><feFlood flood-opacity="0" result="BackgroundImageFix"/><feBlend in="SourceGraphic" in2="BackgroundImageFix" mode="normal" result="shape"/><feGaussianBlur result="effect1_foregroundBlur_3987_24205" stdDeviation=".1"/></filter><filter id="l" color-interpolation-filters="sRGB" filterUnits="userSpaceOnUse" height="1.57651" width="1.47745" x="12.1552" y="17.0914"><feFlood flood-opacity="0" result="BackgroundImageFix"/><feBlend in="SourceGraphic" in2="BackgroundImageFix" mode="normal" result="shape"/><feGaussianBlur result="effect1_foregroundBlur_3987_24205" stdDeviation=".1"/></filter><filter id="m" color-interpolation-filters="sRGB" filterUnits="userSpaceOnUse" height="1.12773" width="1.5114" x="10.6815" y="16.9714"><feFlood flood-opacity="0" result="BackgroundImageFix"/><feBlend in="SourceGraphic" in2="BackgroundImageFix" mode="normal" result="shape"/><feGaussianBlur result="effect1_foregroundBlur_3987_24205" stdDeviation=".05"/></filter><filter id="n" color-interpolation-filters="sRGB" filterUnits="userSpaceOnUse" height="17.7867" width="25.1206" x="3.51465" y="3.50232"><feFlood flood-opacity="0" result="BackgroundImageFix"/><feBlend in="SourceGraphic" in2="BackgroundImageFix" mode="normal" result="shape"/><feColorMatrix in="SourceAlpha" result="hardAlpha" type="matrix" values="0 0 0 0 0 0 0 0 0 0 0 0 0 0 0 0 0 0 127 0"/><feOffset dx=".15" dy="-.25"/><feGaussianBlur stdDeviation=".5"/><feComposite in2="hardAlpha" k2="-1" k3="1" operator="arithmetic"/><feColorMatrix type="matrix" values="0 0 0 0 0.658824 0 0 0 0 0.615686 0 0 0 0 0.67451 0 0 0 1 0"/><feBlend in2="shape" mode="normal" result="effect1_innerShadow_3987_24205"/></filter><filter id="o" color-interpolation-filters="sRGB" filterUnits="userSpaceOnUse" height="1.95063" width="4.25058" x="8.89331" y="13.4352"><feFlood flood-opacity="0" result="BackgroundImageFix"/><feBlend in="SourceGraphic" in2="BackgroundImageFix" mode="normal" result="shape"/><feColorMatrix in="SourceAlpha" result="hardAlpha" type="matrix" values="0 0 0 0 0 0 0 0 0 0 0 0 0 0 0 0 0 0 127 0"/><feOffset dy="-.3"/><feGaussianBlur stdDeviation=".2"/><feComposite in2="hardAlpha" k2="-1" k3="1" operator="arithmetic"/><feColorMatrix type="matrix" values="0 0 0 0 0.482353 0 0 0 0 0.415686 0 0 0 0 0.556863 0 0 0 1 0"/><feBlend in2="shape" mode="normal" result="effect1_innerShadow_3987_24205"/><feColorMatrix in="SourceAlpha" result="hardAlpha" type="matrix" values="0 0 0 0 0 0 0 0 0 0 0 0 0 0 0 0 0 0 127 0"/><feOffset dy="-.05"/><feGaussianBlur stdDeviation=".125"/><feComposite in2="hardAlpha" k2="-1" k3="1" operator="arithmetic"/><feColorMatrix type="matrix" values="0 0 0 0 0.415686 0 0 0 0 0.32549 0 0 0 0 0.462745 0 0 0 1 0"/><feBlend in2="effect1_innerShadow_3987_24205" mode="normal" result="effect2_innerShadow_3987_24205"/></filter><filter id="p" color-interpolation-filters="sRGB" filterUnits="userSpaceOnUse" height="1.95063" width="4.25058" x="18.8207" y="13.4352"><feFlood flood-opacity="0" result="BackgroundImageFix"/><feBlend in="SourceGraphic" in2="BackgroundImageFix" mode="normal" result="shape"/><feColorMatrix in="SourceAlpha" result="hardAlpha" type="matrix" values="0 0 0 0 0 0 0 0 0 0 0 0 0 0 0 0 0 0 127 0"/><feOffset dy="-.3"/><feGaussianBlur stdDeviation=".2"/><feComposite in2="hardAlpha" k2="-1" k3="1" operator="arithmetic"/><feColorMatrix type="matrix" values="0 0 0 0 0.482353 0 0 0 0 0.415686 0 0 0 0 0.556863 0 0 0 1 0"/><feBlend in2="shape" mode="normal" result="effect1_innerShadow_3987_24205"/><feColorMatrix in="SourceAlpha" result="hardAlpha" type="matrix" values="0 0 0 0 0 0 0 0 0 0 0 0 0 0 0 0 0 0 127 0"/><feOffset dy="-.05"/><feGaussianBlur stdDeviation=".125"/><feComposite in2="hardAlpha" k2="-1" k3="1" operator="arithmetic"/><feColorMatrix type="matrix" values="0 0 0 0 0.415686 0 0 0 0 0.32549 0 0 0 0 0.462745 0 0 0 1 0"/><feBlend in2="effect1_innerShadow_3987_24205" mode="normal" result="effect2_innerShadow_3987_24205"/></filter><filter id="q" color-interpolation-filters="sRGB" filterUnits="userSpaceOnUse" height=".9" width="2.76953" x="6.49463" y="18.7747"><feFlood flood-opacity="0" result="BackgroundImageFix"/><feBlend in="SourceGraphic" in2="BackgroundImageFix" mode="normal" result="shape"/><feColorMatrix in="SourceAlpha" result="hardAlpha" type="matrix" values="0 0 0 0 0 0 0 0 0 0 0 0 0 0 0 0 0 0 127 0"/><feOffset dy="-.15"/><feGaussianBlur stdDeviation=".225"/><feComposite in2="hardAlpha" k2="-1" k3="1" operator="arithmetic"/><feColorMatrix type="matrix" values="0 0 0 0 0.466667 0 0 0 0 0.392157 0 0 0 0 0.541176 0 0 0 1 0"/><feBlend in2="shape" mode="normal" result="effect1_innerShadow_3987_24205"/></filter><filter id="r" color-interpolation-filters="sRGB" filterUnits="userSpaceOnUse" height=".9" width="2.96953" x="22.7876" y="18.7747"><feFlood flood-opacity="0" result="BackgroundImageFix"/><feBlend in="SourceGraphic" in2="BackgroundImageFix" mode="normal" result="shape"/><feColorMatrix in="SourceAlpha" result="hardAlpha" type="matrix" values="0 0 0 0 0 0 0 0 0 0 0 0 0 0 0 0 0 0 127 0"/><feOffset dx=".2" dy="-.15"/><feGaussianBlur stdDeviation=".2"/><feComposite in2="hardAlpha" k2="-1" k3="1" operator="arithmetic"/><feColorMatrix type="matrix" values="0 0 0 0 0.490196 0 0 0 0 0.435294 0 0 0 0 0.572549 0 0 0 1 0"/><feBlend in2="shape" mode="normal" result="effect1_innerShadow_3987_24205"/></filter><filter id="s" color-interpolation-filters="sRGB" filterUnits="userSpaceOnUse" height="1.92466" width="3.46641" x="14.2649" y="17.4767"><feFlood flood-opacity="0" result="BackgroundImageFix"/><feBlend in="SourceGraphic" in2="BackgroundImageFix" mode="normal" result="shape"/><feColorMatrix in="SourceAlpha" result="hardAlpha" type="matrix" values="0 0 0 0 0 0 0 0 0 0 0 0 0 0 0 0 0 0 127 0"/><feOffset dx=".05" dy="-.15"/><feGaussianBlur stdDeviation=".125"/><feComposite in2="hardAlpha" k2="-1" k3="1" operator="arithmetic"/><feColorMatrix type="matrix" values="0 0 0 0 0.439216 0 0 0 0 0.447059 0 0 0 0 0.478431 0 0 0 1 0"/><feBlend in2="shape" mode="normal" result="effect1_innerShadow_3987_24205"/></filter><filter id="t" color-interpolation-filters="sRGB" filterUnits="userSpaceOnUse" height="2.83687" width="6.86227" x="16.9566" y="18.8891"><feFlood flood-opacity="0" result="BackgroundImageFix"/><feBlend in="SourceGraphic" in2="BackgroundImageFix" mode="normal" result="shape"/><feColorMatrix in="SourceAlpha" result="hardAlpha" type="matrix" values="0 0 0 0 0 0 0 0 0 0 0 0 0 0 0 0 0 0 127 0"/><feOffset dx=".02" dy="-.02"/><feGaussianBlur stdDeviation=".01"/><feComposite in2="hardAlpha" k2="-1" k3="1" operator="arithmetic"/><feColorMatrix type="matrix" values="0 0 0 0 0.6 0 0 0 0 0.776471 0 0 0 0 0.992157 0 0 0 1 0"/><feBlend in2="shape" mode="normal" result="effect1_innerShadow_3987_24205"/><feColorMatrix in="SourceAlpha" result="hardAlpha" type="matrix" values="0 0 0 0 0 0 0 0 0 0 0 0 0 0 0 0 0 0 127 0"/><feOffset dx="-.02" dy=".02"/><feGaussianBlur stdDeviation=".01"/><feComposite in2="hardAlpha" k2="-1" k3="1" operator="arithmetic"/><feColorMatrix type="matrix" values="0 0 0 0 0.654902 0 0 0 0 0.937255 0 0 0 0 1 0 0 0 1 0"/><feBlend in2="effect1_innerShadow_3987_24205" mode="normal" result="effect2_innerShadow_3987_24205"/></filter><filter id="u" color-interpolation-filters="sRGB" filterUnits="userSpaceOnUse" height="2.83687" width="6.86227" x="8.05031" y="18.8891"><feFlood flood-opacity="0" result="BackgroundImageFix"/><feBlend in="SourceGraphic" in2="BackgroundImageFix" mode="normal" result="shape"/><feColorMatrix in="SourceAlpha" result="hardAlpha" type="matrix" values="0 0 0 0 0 0 0 0 0 0 0 0 0 0 0 0 0 0 127 0"/><feOffset dx=".02" dy="-.02"/><feGaussianBlur stdDeviation=".01"/><feComposite in2="hardAlpha" k2="-1" k3="1" operator="arithmetic"/><feColorMatrix type="matrix" values="0 0 0 0 0.6 0 0 0 0 0.776471 0 0 0 0 0.992157 0 0 0 1 0"/><feBlend in2="shape" mode="normal" result="effect1_innerShadow_3987_24205"/><feColorMatrix in="SourceAlpha" result="hardAlpha" type="matrix" values="0 0 0 0 0 0 0 0 0 0 0 0 0 0 0 0 0 0 127 0"/><feOffset dx="-.02" dy=".02"/><feGaussianBlur stdDeviation=".01"/><feComposite in2="hardAlpha" k2="-1" k3="1" operator="arithmetic"/><feColorMatrix type="matrix" values="0 0 0 0 0.654902 0 0 0 0 0.937255 0 0 0 0 1 0 0 0 1 0"/><feBlend in2="effect1_innerShadow_3987_24205" mode="normal" result="effect2_innerShadow_3987_24205"/></filter><filter id="v" color-interpolation-filters="sRGB" filterUnits="userSpaceOnUse" height="1.34595" width="3.89066" x="9.03758" y="13.821"><feFlood flood-opacity="0" result="BackgroundImageFix"/><feBlend in="SourceGraphic" in2="BackgroundImageFix" mode="normal" result="shape"/><feGaussianBlur result="effect1_foregroundBlur_3987_24205" stdDeviation=".125"/></filter><filter id="w" color-interpolation-filters="sRGB" filterUnits="userSpaceOnUse" height="1.34595" width="3.89066" x="19.0322" y="13.7455"><feFlood flood-opacity="0" result="BackgroundImageFix"/><feBlend in="SourceGraphic" in2="BackgroundImageFix" mode="normal" result="shape"/><feGaussianBlur result="effect1_foregroundBlur_3987_24205" stdDeviation=".125"/></filter><filter id="x" color-interpolation-filters="sRGB" filterUnits="userSpaceOnUse" height="9.22729" width="6.3893" x="3.95898" y="6.90723"><feFlood flood-opacity="0" result="BackgroundImageFix"/><feBlend in="SourceGraphic" in2="BackgroundImageFix" mode="normal" result="shape"/><feGaussianBlur result="effect1_foregroundBlur_3987_24205" stdDeviation=".25"/></filter><filter id="y" color-interpolation-filters="sRGB" filterUnits="userSpaceOnUse" height="8.96826" width="6.53835" x="21.5461" y="6.90723"><feFlood flood-opacity="0" result="BackgroundImageFix"/><feBlend in="SourceGraphic" in2="BackgroundImageFix" mode="normal" result="shape"/><feGaussianBlur result="effect1_foregroundBlur_3987_24205" stdDeviation=".25"/></filter><filter id="z" color-interpolation-filters="sRGB" filterUnits="userSpaceOnUse" height="9.35303" width="5.60938" x="6.82471" y="4.67322"><feFlood flood-opacity="0" result="BackgroundImageFix"/><feBlend in="SourceGraphic" in2="BackgroundImageFix" mode="normal" result="shape"/><feGaussianBlur result="effect1_foregroundBlur_3987_24205" stdDeviation=".25"/></filter><filter id="A" color-interpolation-filters="sRGB" filterUnits="userSpaceOnUse" height="9.35303" width="5.60938" x="19.8372" y="4.67322"><feFlood flood-opacity="0" result="BackgroundImageFix"/><feBlend in="SourceGraphic" in2="BackgroundImageFix" mode="normal" result="shape"/><feGaussianBlur result="effect1_foregroundBlur_3987_24205" stdDeviation=".25"/></filter><filter id="B" color-interpolation-filters="sRGB" filterUnits="userSpaceOnUse" height="9.59185" width="6.20011" x="9.97666" y="3.41062"><feFlood flood-opacity="0" result="BackgroundImageFix"/><feBlend in="SourceGraphic" in2="BackgroundImageFix" mode="normal" result="shape"/><feGaussianBlur result="effect1_foregroundBlur_3987_24205" stdDeviation=".3"/></filter><filter id="C" color-interpolation-filters="sRGB" filterUnits="userSpaceOnUse" height="9.59185" width="6.20011" x="15.7046" y="3.41062"><feFlood flood-opacity="0" result="BackgroundImageFix"/><feBlend in="SourceGraphic" in2="BackgroundImageFix" mode="normal" result="shape"/><feGaussianBlur result="effect1_foregroundBlur_3987_24205" stdDeviation=".3"/></filter><radialGradient id="D" cx="0" cy="0" gradientTransform="matrix(-15.1875 0 0 -10.125 21.3813 6.29187)" gradientUnits="userSpaceOnUse" r="1"><stop offset=".697531" stop-color="#a33337" stop-opacity="0"/><stop offset="1" stop-color="#a33337"/></radialGradient><radialGradient id="E" cx="0" cy="0" gradientTransform="matrix(-6.68749543 4.68750684 -5.60964056 -8.00307005 25.4751 4.22937)" gradientUnits="userSpaceOnUse" r="1"><stop offset="0" stop-color="#ff4f58"/><stop offset="1" stop-color="#ff4f58" stop-opacity="0"/></radialGradient><radialGradient id="F" cx="0" cy="0" gradientTransform="matrix(-1.96877496 4.09373737 -3.59523965 -1.72903564 27.3813 18.0106)" gradientUnits="userSpaceOnUse" r="1"><stop offset="0" stop-color="#9f7b6e"/><stop offset="1" stop-color="#7c4d58"/></radialGradient><radialGradient id="G" cx="0" cy="0" gradientTransform="matrix(2.53125342 2.96643124 -2.96643124 2.53125342 4.63135 18.9518)" gradientUnits="userSpaceOnUse" r="1"><stop offset="0" stop-color="#694141"/><stop offset="1" stop-color="#68364c"/></radialGradient><radialGradient id="H" cx="0" cy="0" gradientTransform="matrix(-12.04860237 7.18012858 -9.61043148 -16.12676796 21.2876 16.2919)" gradientUnits="userSpaceOnUse" r="1"><stop offset="0" stop-color="#9b7163"/><stop offset=".714024" stop-color="#794e51"/></radialGradient><radialGradient id="I" cx="0" cy="0" gradientTransform="matrix(-5.90625151 5.87499696 -4.41427146 -4.43775506 11.4033 10.7259)" gradientUnits="userSpaceOnUse" r="1"><stop offset=".204594" stop-color="#724c4b"/><stop offset="1" stop-color="#724c4b" stop-opacity="0"/></radialGradient><radialGradient id="J" cx="0" cy="0" gradientTransform="matrix(2.18786047 -8.64152022 22.15340913 5.60880109 13.7471 29.9299)" gradientUnits="userSpaceOnUse" r="1"><stop offset="0" stop-color="#7a3f6a"/><stop offset="1" stop-color="#794559" stop-opacity="0"/></radialGradient><radialGradient id="K" cx="0" cy="0" gradientTransform="matrix(0 13.0727 -13.4885 0 15.9349 17.5384)" gradientUnits="userSpaceOnUse" r="1"><stop offset=".891647" stop-color="#793f69" stop-opacity="0"/><stop offset=".959698" stop-color="#8a5788"/></radialGradient><linearGradient id="L" gradientUnits="userSpaceOnUse" x1="6.76172" x2="9.8741" y1="20.0456" y2="20.2325"><stop offset=".211467" stop-color="#7c5b55"/><stop offset="1" stop-color="#7c5b55" stop-opacity="0"/></linearGradient><radialGradient id="M" cx="0" cy="0" gradientTransform="matrix(-1.08389181 -2.91527591 2.89207742 -1.07526667 12.0793 17.392)" gradientUnits="userSpaceOnUse" r="1"><stop offset=".257294" stop-color="#6e414d"/><stop offset="1" stop-color="#6e414d" stop-opacity="0"/></radialGradient><radialGradient id="N" cx="0" cy="0" gradientTransform="matrix(.11107957 5.48437522 -.22773529 .00461251 24.9971 16.3665)" gradientUnits="userSpaceOnUse" r="1"><stop offset=".570778" stop-color="#6b3c2f"/><stop offset="1" stop-color="#6b3c2f" stop-opacity="0"/></radialGradient><radialGradient id="O" cx="0" cy="0" gradientTransform="matrix(1.28124972 -2.90624577 2.90512029 1.28075354 20.4971 17.6321)" gradientUnits="userSpaceOnUse" r="1"><stop offset=".19808" stop-color="#875555"/><stop offset="1" stop-color="#875555" stop-opacity="0"/></radialGradient><radialGradient id="P" cx="0" cy="0" gradientTransform="matrix(-.1250003 5.23437767 -1.43407114 -.03424654 6.3252 14.6321)" gradientUnits="userSpaceOnUse" r="1"><stop offset=".441998" stop-color="#603a3a"/><stop offset="1" stop-color="#603a3a" stop-opacity="0"/></radialGradient><radialGradient id="Q" cx="0" cy="0" gradientTransform="matrix(5.81250111 3.03125276 -1.02207786 1.95985923 21.5283 12.2884)" gradientUnits="userSpaceOnUse" r="1"><stop offset=".174103" stop-color="#754341"/><stop offset="1" stop-color="#754341" stop-opacity="0"/></radialGradient><radialGradient id="R" cx="0" cy="0" gradientTransform="matrix(5.1874957 1.28124868 -1.21262295 4.90964511 17.7876 21.0732)" gradientUnits="userSpaceOnUse" r="1"><stop offset=".0847239" stop-color="#6b3d44"/><stop offset="1" stop-color="#6b3d44" stop-opacity="0"/></radialGradient><radialGradient id="S" cx="0" cy="0" gradientTransform="matrix(-.59377211 3.03124215 -4.48458187 -.87845824 11.3813 20.6982)" gradientUnits="userSpaceOnUse" r="1"><stop offset=".273973" stop-color="#673e46"/><stop offset="1" stop-color="#673e46" stop-opacity="0"/></radialGradient><linearGradient id="T" gradientUnits="userSpaceOnUse" x1="14.3756" x2="15.3049" y1="21.0884" y2="22.4863"><stop offset="0" stop-color="#663d40"/><stop offset="1" stop-color="#763f53"/></linearGradient><linearGradient id="U" gradientUnits="userSpaceOnUse" x1="17.6748" x2="15.9471" y1="20.9807" y2="21.0744"><stop offset=".282355" stop-color="#917470"/><stop offset="1" stop-color="#917470" stop-opacity="0"/></linearGradient><radialGradient id="V" cx="0" cy="0" gradientTransform="matrix(0 -1.20313 4.95336 0 15.9471 22.2728)" gradientUnits="userSpaceOnUse" r="1"><stop offset="0" stop-color="#78415c"/><stop offset="1" stop-color="#805f56" stop-opacity="0"/></radialGradient><radialGradient id="W" cx="0" cy="0" gradientTransform="matrix(.96093745 1.53906438 -.79746814 .49791095 17.5205 19.9729)" gradientUnits="userSpaceOnUse" r="1"><stop offset=".339464" stop-color="#6e4944"/><stop offset="1" stop-color="#765651" stop-opacity="0"/></radialGradient><radialGradient id="X" cx="0" cy="0" gradientTransform="matrix(-.859375 0 0 -.473503 16.8877 21.2619)" gradientUnits="userSpaceOnUse" r="1"><stop offset="0" stop-color="#92736f"/><stop offset="1" stop-color="#92736f" stop-opacity="0"/></radialGradient><linearGradient id="Y" gradientUnits="userSpaceOnUse" x1="14.3495" x2="15.1441" y1="20.0438" y2="20.3312"><stop offset="0" stop-color="#684540"/><stop offset="1" stop-color="#684540" stop-opacity="0"/></linearGradient><radialGradient id="Z" cx="0" cy="0" gradientTransform="matrix(.00001865 -2.67187 2.46699 .00001722 15.9471 20.8244)" gradientUnits="userSpaceOnUse" r="1"><stop offset=".727367" stop-color="#734744" stop-opacity="0"/><stop offset="1" stop-color="#734744"/></radialGradient><linearGradient id="aa" gradientUnits="userSpaceOnUse" x1="14.6054" x2="15.4383" y1="25.4765" y2="23.8722"><stop offset="0" stop-color="#865f66"/><stop offset="1" stop-color="#865f66" stop-opacity="0"/></linearGradient><linearGradient id="ab"><stop offset=".556862" stop-color="#825c4f"/><stop offset="1" stop-color="#714c43"/></linearGradient><radialGradient id="ac" cx="0" cy="0" gradientTransform="matrix(-1.23438516 1.98435766 -2.08902858 -1.29949653 20.7886 17.2463)" gradientUnits="userSpaceOnUse" r="1" xlink:href="#ab"/><linearGradient id="ad"><stop offset=".765532" stop-color="#ffe6e2" stop-opacity="0"/><stop offset=".966159" stop-color="#ffe6e2"/></linearGradient><radialGradient id="ae" cx="0" cy="0" gradientTransform="matrix(-.42619576 -.54921071 .75613133 -.58676927 19.5417 17.8659)" gradientUnits="userSpaceOnUse" r="1" xlink:href="#ad"/><linearGradient id="af"><stop offset="0" stop-color="#b4948d"/><stop offset="1" stop-color="#b4948d" stop-opacity="0"/></linearGradient><linearGradient id="ag" gradientUnits="userSpaceOnUse" x1="21.3939" x2="20.8173" xlink:href="#af" y1="17.8099" y2="18.1652"/><radialGradient id="ah" cx="0" cy="0" gradientTransform="matrix(-1.23439044 1.98436615 -2.08903708 -1.29950181 12.7627 17.2463)" gradientUnits="userSpaceOnUse" r="1" xlink:href="#ab"/><linearGradient id="ai" gradientUnits="userSpaceOnUse" x1="13.305" x2="12.7284" xlink:href="#af" y1="17.8097" y2="18.165"/><radialGradient id="aj" cx="0" cy="0" gradientTransform="matrix(-.01422659 -.90864763 1.09223613 -.01710101 11.4094 18.1145)" gradientUnits="userSpaceOnUse" r="1" xlink:href="#ad"/><linearGradient id="ak" gradientUnits="userSpaceOnUse" x1="26.2876" x2="10.4751" y1="14.6669" y2="14.6669"><stop offset="0" stop-color="#f8f7fa"/><stop offset="1" stop-color="#bab9bc"/></linearGradient><radialGradient id="al" cx="0" cy="0" gradientTransform="matrix(-.10759764 1.9098715 -2.19009715 -.12338489 10.615 4.84616)" gradientUnits="userSpaceOnUse" r="1"><stop offset="0" stop-color="#c3c2c2"/><stop offset="1" stop-color="#c3c2c2" stop-opacity="0"/></radialGradient><radialGradient id="am" cx="0" cy="0" gradientTransform="matrix(-2.23266 0 0 -5.95693 7.09113 18.7801)" gradientUnits="userSpaceOnUse" r="1"><stop offset=".09396" stop-color="#d2cdd5"/><stop offset=".807794" stop-color="#bbb9bd" stop-opacity="0"/></radialGradient><radialGradient id="an" cx="0" cy="0" gradientTransform="matrix(-2.59373398 4.68751307 -1.3602053 -.75264018 25.9438 15.1669)" gradientUnits="userSpaceOnUse" r="1"><stop offset="0" stop-color="#d7d3db"/><stop offset="1" stop-color="#faf9fc" stop-opacity="0"/></radialGradient><radialGradient id="ao" cx="0" cy="0" gradientTransform="matrix(-.45312704 .50781082 -.26209615 -.23387223 8.27197 19.4091)" gradientUnits="userSpaceOnUse" r="1"><stop offset=".231256" stop-color="#6f7587"/><stop offset="1" stop-color="#8d889f" stop-opacity="0"/></radialGradient><linearGradient id="ap" gradientUnits="userSpaceOnUse" x1="7.87939" x2="7.87939" y1="18.8973" y2="19.12"><stop offset="0" stop-color="#b4b3b5"/><stop offset="1" stop-color="#b4b3b5" stop-opacity="0"/></linearGradient><radialGradient id="aq" cx="0" cy="0" gradientTransform="matrix(.533691 0 0 .679688 6.49463 19.3282)" gradientUnits="userSpaceOnUse" r="1"><stop offset="0" stop-color="#828084"/><stop offset="1" stop-color="#828084" stop-opacity="0"/></radialGradient><radialGradient id="ar" cx="0" cy="0" gradientTransform="matrix(-.43382577 .09523991 -.13809945 -.62905455 25.4847 19.2044)" gradientUnits="userSpaceOnUse" r="1"><stop offset="0" stop-color="#e4e3e5"/><stop offset="1" stop-color="#e4e3e5" stop-opacity="0"/></radialGradient><linearGradient id="as" gradientUnits="userSpaceOnUse" x1="24.1724" x2="24.1724" y1="18.9247" y2="19.1239"><stop offset="0" stop-color="#c6c5c6"/><stop offset="1" stop-color="#c7c6ca" stop-opacity="0"/></linearGradient><radialGradient id="at" cx="0" cy="0" gradientTransform="matrix(-.80005099 -1.45312388 .28897176 -.15910009 17.6814 18.9794)" gradientUnits="userSpaceOnUse" r="1"><stop offset="0" stop-color="#d8dfe2"/><stop offset="1" stop-color="#d8dfe2" stop-opacity="0"/></radialGradient><radialGradient id="au" cx="0" cy="0" gradientTransform="matrix(.57812627 -1.10937865 .29816336 .15538073 14.6782 19.1357)" gradientUnits="userSpaceOnUse" r="1"><stop offset="0" stop-color="#c9d2d8"/><stop offset="1" stop-color="#c9d2d8" stop-opacity="0"/></radialGradient><radialGradient id="av" cx="0" cy="0" gradientTransform="matrix(-1.96021105 -1.01230367 1.01680041 -1.96891848 16.2251 19.5263)" gradientUnits="userSpaceOnUse" r="1"><stop offset=".770234" stop-color="#9ca7ab" stop-opacity="0"/><stop offset=".93661" stop-color="#7a8488"/></radialGradient><linearGradient id="aw" gradientUnits="userSpaceOnUse" x1="21.3501" x2="21.3501" y1="21.7059" y2="20.3075"><stop offset=".00558682" stop-color="#80cce7"/><stop offset="1" stop-color="#80cce7" stop-opacity="0"/></linearGradient><linearGradient id="ax" gradientUnits="userSpaceOnUse" x1="18.7954" x2="20.686" y1="19.9169" y2="20.6512"><stop offset="0" stop-color="#b8e1ee" stop-opacity="0"/><stop offset=".141217" stop-color="#b8e1ee"/><stop offset=".867596" stop-color="#b8e1ee"/><stop offset="1" stop-color="#b8e1ee" stop-opacity="0"/></linearGradient><linearGradient id="ay" gradientUnits="userSpaceOnUse" x1="12.6548" x2="10.6548" y1="20.6434" y2="19.7997"><stop offset="0" stop-color="#b7e0ed" stop-opacity="0"/><stop offset=".141217" stop-color="#b7e0ed"/><stop offset=".867596" stop-color="#b7e0ed"/><stop offset="1" stop-color="#b7e0ed" stop-opacity="0"/></linearGradient><linearGradient id="az"><stop offset=".166368" stop-color="#97949a"/><stop offset="1" stop-color="#97949a" stop-opacity="0"/></linearGradient><linearGradient id="aA" gradientUnits="userSpaceOnUse" x1="12.5532" x2="9.15353" xlink:href="#az" y1="14.196" y2="15.0988"/><linearGradient id="aB" gradientUnits="userSpaceOnUse" x1="22.5479" x2="18.3989" xlink:href="#az" y1="14.7164" y2="14.4184"/><radialGradient id="aC" cx="0" cy="0" gradientTransform="matrix(-2.63618912 -5.40116007 1.4488024 -.70712904 8.00571 12.8084)" gradientUnits="userSpaceOnUse" r="1"><stop offset="0" stop-color="#b8b5bb"/><stop offset="1" stop-color="#b8b5bb" stop-opacity="0"/></radialGradient><radialGradient id="aD" cx="0" cy="0" gradientTransform="matrix(.55306452 6.509688 -3.32228105 .28226173 6.55314 8.26238)" gradientUnits="userSpaceOnUse" r="1"><stop offset=".504942" stop-color="#b0a7b6" stop-opacity="0"/><stop offset="1" stop-color="#b0a7b6"/></radialGradient><radialGradient id="aE" cx="0" cy="0" gradientTransform="matrix(5.5438804 1.1689054 -2.00195245 9.494853 22.6812 11.4355)" gradientUnits="userSpaceOnUse" r="1"><stop offset=".538726" stop-color="#dbd9dd" stop-opacity="0"/><stop offset=".932441" stop-color="#dbd9dd"/></radialGradient><radialGradient id="aF" cx="0" cy="0" gradientTransform="matrix(-1.93356392 -6.50175834 2.08630645 -.6204486 10.6445 11.675)" gradientUnits="userSpaceOnUse" r="1"><stop offset=".233436" stop-color="#c9c2d1"/><stop offset="1" stop-color="#c9c2d1" stop-opacity="0"/></radialGradient><radialGradient id="aG" cx="0" cy="0" gradientTransform="matrix(-3.09345131 .99528344 -1.78071823 -5.53466971 10.8571 9.17693)" gradientUnits="userSpaceOnUse" r="1"><stop offset=".586885" stop-color="#b4b0b8" stop-opacity="0"/><stop offset="1" stop-color="#b4b0b8"/></radialGradient><radialGradient id="aH" cx="0" cy="0" gradientTransform="matrix(0 5.39841 -3.90671 0 9.62939 8.12785)" gradientUnits="userSpaceOnUse" r="1"><stop offset=".81719" stop-color="#b39cb2" stop-opacity="0"/><stop offset="1" stop-color="#b39cb2"/></radialGradient><radialGradient id="aI" cx="0" cy="0" gradientTransform="matrix(4.6562476 2.93749852 -3.27422122 5.18998891 20.8813 8.29189)" gradientUnits="userSpaceOnUse" r="1"><stop offset=".593711" stop-color="#d1cbd8" stop-opacity="0"/><stop offset="1" stop-color="#d1cbd8"/></radialGradient><radialGradient id="aJ" cx="0" cy="0" gradientTransform="matrix(0 -8.34375 4.69757 0 15.8188 8.57319)" gradientUnits="userSpaceOnUse" r="1"><stop offset=".356863" stop-color="#f0edf4"/><stop offset="1" stop-color="#f0edf4" stop-opacity="0"/></radialGradient><linearGradient id="aK" gradientUnits="userSpaceOnUse" x1="10.2876" x2="13.0735" y1="8.29122" y2="8.29122"><stop offset="0" stop-color="#b6b4b8"/><stop offset="1" stop-color="#d9d6dc" stop-opacity="0"/></linearGradient><radialGradient id="aL" cx="0" cy="0" gradientTransform="matrix(-2.03126732 5.68749336 -4.70512578 -1.68041836 13.6626 5.76069)" gradientUnits="userSpaceOnUse" r="1"><stop offset=".544376" stop-color="#b7a9bb" stop-opacity="0"/><stop offset="1" stop-color="#b7a9bb"/></radialGradient><radialGradient id="aM" cx="0" cy="0" gradientTransform="matrix(0 -7.78125 3.21875 0 19.8472 8.88569)" gradientUnits="userSpaceOnUse" r="1"><stop offset="0" stop-color="#f7f5f9"/><stop offset="1" stop-color="#f7f5f9" stop-opacity="0"/></radialGradient><radialGradient id="aN" cx="0" cy="0" gradientTransform="matrix(-3.25000843 2.24999296 -3.86673657 -5.58531814 19.7563 7.38569)" gradientUnits="userSpaceOnUse" r="1"><stop offset=".520777" stop-color="#ccc9d0" stop-opacity="0"/><stop offset="1" stop-color="#ccc9d0"/></radialGradient><path d="m6.0376 7.47937c0-3.03757 2.46243-5.5 5.5-5.5h8.9062c3.0376 0 5.5 2.46243 5.5 5.5v3.12503h-19.9062z" fill="#f53742"/><path d="m6.0376 7.47937c0-3.03757 2.46243-5.5 5.5-5.5h8.9062c3.0376 0 5.5 2.46243 5.5 5.5v3.12503h-19.9062z" fill="url(#D)"/><path d="m6.0376 7.47937c0-3.03757 2.46243-5.5 5.5-5.5h8.9062c3.0376 0 5.5 2.46243 5.5 5.5v3.12503h-19.9062z" fill="url(#E)"/><g filter="url(#a)"><path d="m24.9835 21.9182c1.6383 0 2.9665-1.3281 2.9665-2.9664s-1.3282-2.9664-2.9665-2.9664-2.9664 1.3281-2.9664 2.9664 1.3281 2.9664 2.9664 2.9664z" fill="url(#F)"/></g><g filter="url(#b)"><path d="m6.91101 21.9182c1.63832 0 2.96643-1.3281 2.96643-2.9664s-1.32811-2.9664-2.96643-2.9664c-1.63831 0-2.96643 1.3281-2.96643 2.9664s1.32812 2.9664 2.96643 2.9664z" fill="url(#G)"/></g><path d="m6.77539 21.2818.00395.1166c.22694 5.1584 4.25516 8.6222 9.17226 8.6222 4.9172 0 8.9454-3.4638 9.1724-8.6222l.0042-.111c-.0415-.008-.0734-.044-.076-.0885-.0471-.811-.1154-2.7563-.1516-3.9695 0-1.6875-.0505-2.4063-1.8708-3.2188-.237-.0969-.4182-.1675-.5686-.2261-.4617-.1799-.6327-.2465-1.2361-.6137-.2422-.1474-.4946-.2419-.8036-.3577l-.015-.0056c-.0923-.0345-.213-.0707-.3559-.1135-.9067-.2717-2.9293-1.0456-3.8643-3.15619-.0755-.17049-.3386-.17963-.4236-.01366-1.0766 2.10225-3.0062 2.90185-3.887 3.17805-.1264.0396-.2345.0735-.3199.1053-.3172.1183-.5093.2347-.7565.3845-.3181.1927-.87104.5061-1.63666.7952-1.25782.5547-2.06894 1.5226-2.12053 3.2422-.0364 1.2132-.14723 3.155-.19784 3.9656-.00261.0419-.03093.0762-.06888.0868z" fill="url(#H)"/><path d="m6.77539 21.2818.00395.1166c.22694 5.1584 4.25516 8.6222 9.17226 8.6222 4.9172 0 8.9454-3.4638 9.1724-8.6222l.0042-.111c-.0415-.008-.0734-.044-.076-.0885-.0471-.811-.1154-2.7563-.1516-3.9695 0-1.6875-.0505-2.4063-1.8708-3.2188-.237-.0969-.4182-.1675-.5686-.2261-.4617-.1799-.6327-.2465-1.2361-.6137-.2422-.1474-.4946-.2419-.8036-.3577l-.015-.0056c-.0923-.0345-.213-.0707-.3559-.1135-.9067-.2717-2.9293-1.0456-3.8643-3.15619-.0755-.17049-.3386-.17963-.4236-.01366-1.0766 2.10225-3.0062 2.90185-3.887 3.17805-.1264.0396-.2345.0735-.3199.1053-.3172.1183-.5093.2347-.7565.3845-.3181.1927-.87104.5061-1.63666.7952-1.25782.5547-2.06894 1.5226-2.12053 3.2422-.0364 1.2132-.14723 3.155-.19784 3.9656-.00261.0419-.03093.0762-.06888.0868z" fill="url(#I)"/><path d="m6.77539 21.2818.00395.1166c.22694 5.1584 4.25516 8.6222 9.17226 8.6222 4.9172 0 8.9454-3.4638 9.1724-8.6222l.0042-.111c-.0415-.008-.0734-.044-.076-.0885-.0471-.811-.1154-2.7563-.1516-3.9695 0-1.6875-.0505-2.4063-1.8708-3.2188-.237-.0969-.4182-.1675-.5686-.2261-.4617-.1799-.6327-.2465-1.2361-.6137-.2422-.1474-.4946-.2419-.8036-.3577l-.015-.0056c-.0923-.0345-.213-.0707-.3559-.1135-.9067-.2717-2.9293-1.0456-3.8643-3.15619-.0755-.17049-.3386-.17963-.4236-.01366-1.0766 2.10225-3.0062 2.90185-3.887 3.17805-.1264.0396-.2345.0735-.3199.1053-.3172.1183-.5093.2347-.7565.3845-.3181.1927-.87104.5061-1.63666.7952-1.25782.5547-2.06894 1.5226-2.12053 3.2422-.0364 1.2132-.14723 3.155-.19784 3.9656-.00261.0419-.03093.0762-.06888.0868z" fill="url(#J)"/><path d="m6.77539 21.2818.00395.1166c.22694 5.1584 4.25516 8.6222 9.17226 8.6222 4.9172 0 8.9454-3.4638 9.1724-8.6222l.0042-.111c-.0415-.008-.0734-.044-.076-.0885-.0471-.811-.1154-2.7563-.1516-3.9695 0-1.6875-.0505-2.4063-1.8708-3.2188-.237-.0969-.4182-.1675-.5686-.2261-.4617-.1799-.6327-.2465-1.2361-.6137-.2422-.1474-.4946-.2419-.8036-.3577l-.015-.0056c-.0923-.0345-.213-.0707-.3559-.1135-.9067-.2717-2.9293-1.0456-3.8643-3.15619-.0755-.17049-.3386-.17963-.4236-.01366-1.0766 2.10225-3.0062 2.90185-3.887 3.17805-.1264.0396-.2345.0735-.3199.1053-.3172.1183-.5093.2347-.7565.3845-.3181.1927-.87104.5061-1.63666.7952-1.25782.5547-2.06894 1.5226-2.12053 3.2422-.0364 1.2132-.14723 3.155-.19784 3.9656-.00261.0419-.03093.0762-.06888.0868z" fill="url(#K)"/><path d="m6.77539 21.2818.00395.1166c.22694 5.1584 4.25516 8.6222 9.17226 8.6222 4.9172 0 8.9454-3.4638 9.1724-8.6222l.0042-.111c-.0415-.008-.0734-.044-.076-.0885-.0471-.811-.1154-2.7563-.1516-3.9695 0-1.6875-.0505-2.4063-1.8708-3.2188-.237-.0969-.4182-.1675-.5686-.2261-.4617-.1799-.6327-.2465-1.2361-.6137-.2422-.1474-.4946-.2419-.8036-.3577l-.015-.0056c-.0923-.0345-.213-.0707-.3559-.1135-.9067-.2717-2.9293-1.0456-3.8643-3.15619-.0755-.17049-.3386-.17963-.4236-.01366-1.0766 2.10225-3.0062 2.90185-3.887 3.17805-.1264.0396-.2345.0735-.3199.1053-.3172.1183-.5093.2347-.7565.3845-.3181.1927-.87104.5061-1.63666.7952-1.25782.5547-2.06894 1.5226-2.12053 3.2422-.0364 1.2132-.14723 3.155-.19784 3.9656-.00261.0419-.03093.0762-.06888.0868z" fill="url(#L)"/><path d="m6.77539 21.2818.00395.1166c.22694 5.1584 4.25516 8.6222 9.17226 8.6222 4.9172 0 8.9454-3.4638 9.1724-8.6222l.0042-.111c-.0415-.008-.0734-.044-.076-.0885-.0471-.811-.1154-2.7563-.1516-3.9695 0-1.6875-.0505-2.4063-1.8708-3.2188-.237-.0969-.4182-.1675-.5686-.2261-.4617-.1799-.6327-.2465-1.2361-.6137-.2422-.1474-.4946-.2419-.8036-.3577l-.015-.0056c-.0923-.0345-.213-.0707-.3559-.1135-.9067-.2717-2.9293-1.0456-3.8643-3.15619-.0755-.17049-.3386-.17963-.4236-.01366-1.0766 2.10225-3.0062 2.90185-3.887 3.17805-.1264.0396-.2345.0735-.3199.1053-.3172.1183-.5093.2347-.7565.3845-.3181.1927-.87104.5061-1.63666.7952-1.25782.5547-2.06894 1.5226-2.12053 3.2422-.0364 1.2132-.14723 3.155-.19784 3.9656-.00261.0419-.03093.0762-.06888.0868z" fill="url(#M)"/><path d="m6.77539 21.2818.00395.1166c.22694 5.1584 4.25516 8.6222 9.17226 8.6222 4.9172 0 8.9454-3.4638 9.1724-8.6222l.0042-.111c-.0415-.008-.0734-.044-.076-.0885-.0471-.811-.1154-2.7563-.1516-3.9695 0-1.6875-.0505-2.4063-1.8708-3.2188-.237-.0969-.4182-.1675-.5686-.2261-.4617-.1799-.6327-.2465-1.2361-.6137-.2422-.1474-.4946-.2419-.8036-.3577l-.015-.0056c-.0923-.0345-.213-.0707-.3559-.1135-.9067-.2717-2.9293-1.0456-3.8643-3.15619-.0755-.17049-.3386-.17963-.4236-.01366-1.0766 2.10225-3.0062 2.90185-3.887 3.17805-.1264.0396-.2345.0735-.3199.1053-.3172.1183-.5093.2347-.7565.3845-.3181.1927-.87104.5061-1.63666.7952-1.25782.5547-2.06894 1.5226-2.12053 3.2422-.0364 1.2132-.14723 3.155-.19784 3.9656-.00261.0419-.03093.0762-.06888.0868z" fill="url(#N)"/><path d="m6.77539 21.2818.00395.1166c.22694 5.1584 4.25516 8.6222 9.17226 8.6222 4.9172 0 8.9454-3.4638 9.1724-8.6222l.0042-.111c-.0415-.008-.0734-.044-.076-.0885-.0471-.811-.1154-2.7563-.1516-3.9695 0-1.6875-.0505-2.4063-1.8708-3.2188-.237-.0969-.4182-.1675-.5686-.2261-.4617-.1799-.6327-.2465-1.2361-.6137-.2422-.1474-.4946-.2419-.8036-.3577l-.015-.0056c-.0923-.0345-.213-.0707-.3559-.1135-.9067-.2717-2.9293-1.0456-3.8643-3.15619-.0755-.17049-.3386-.17963-.4236-.01366-1.0766 2.10225-3.0062 2.90185-3.887 3.17805-.1264.0396-.2345.0735-.3199.1053-.3172.1183-.5093.2347-.7565.3845-.3181.1927-.87104.5061-1.63666.7952-1.25782.5547-2.06894 1.5226-2.12053 3.2422-.0364 1.2132-.14723 3.155-.19784 3.9656-.00261.0419-.03093.0762-.06888.0868z" fill="url(#O)"/><path d="m6.77539 21.2818.00395.1166c.22694 5.1584 4.25516 8.6222 9.17226 8.6222 4.9172 0 8.9454-3.4638 9.1724-8.6222l.0042-.111c-.0415-.008-.0734-.044-.076-.0885-.0471-.811-.1154-2.7563-.1516-3.9695 0-1.6875-.0505-2.4063-1.8708-3.2188-.237-.0969-.4182-.1675-.5686-.2261-.4617-.1799-.6327-.2465-1.2361-.6137-.2422-.1474-.4946-.2419-.8036-.3577l-.015-.0056c-.0923-.0345-.213-.0707-.3559-.1135-.9067-.2717-2.9293-1.0456-3.8643-3.15619-.0755-.17049-.3386-.17963-.4236-.01366-1.0766 2.10225-3.0062 2.90185-3.887 3.17805-.1264.0396-.2345.0735-.3199.1053-.3172.1183-.5093.2347-.7565.3845-.3181.1927-.87104.5061-1.63666.7952-1.25782.5547-2.06894 1.5226-2.12053 3.2422-.0364 1.2132-.14723 3.155-.19784 3.9656-.00261.0419-.03093.0762-.06888.0868z" fill="url(#P)"/><path d="m6.77539 21.2818.00395.1166c.22694 5.1584 4.25516 8.6222 9.17226 8.6222 4.9172 0 8.9454-3.4638 9.1724-8.6222l.0042-.111c-.0415-.008-.0734-.044-.076-.0885-.0471-.811-.1154-2.7563-.1516-3.9695 0-1.6875-.0505-2.4063-1.8708-3.2188-.237-.0969-.4182-.1675-.5686-.2261-.4617-.1799-.6327-.2465-1.2361-.6137-.2422-.1474-.4946-.2419-.8036-.3577l-.015-.0056c-.0923-.0345-.213-.0707-.3559-.1135-.9067-.2717-2.9293-1.0456-3.8643-3.15619-.0755-.17049-.3386-.17963-.4236-.01366-1.0766 2.10225-3.0062 2.90185-3.887 3.17805-.1264.0396-.2345.0735-.3199.1053-.3172.1183-.5093.2347-.7565.3845-.3181.1927-.87104.5061-1.63666.7952-1.25782.5547-2.06894 1.5226-2.12053 3.2422-.0364 1.2132-.14723 3.155-.19784 3.9656-.00261.0419-.03093.0762-.06888.0868z" fill="url(#Q)"/><g filter="url(#c)"><path d="m22.7348 19.8907h-5.7343c-.2323 0-.4181.1987-.3758.4272.3184 1.7223 1.7178 2.35 2.4614 2.3697l1.9217-.0429c1.4257-.0469 2.0731-.9856 2.3906-1.875.1699-.4759-.1937-.879-.6636-.879z" fill="url(#R)"/></g><g filter="url(#d)"><path d="m8.41853 19.8907h5.73427c.2323 0 .4181.1987.3758.4272-.3184 1.7223-1.7178 2.35-2.4613 2.3697l-1.9218-.0429c-1.42566-.0469-2.07313-.9856-2.39062-1.875-.16986-.4759.19371-.879.66365-.879z" fill="url(#S)"/></g><g filter="url(#e)"><path d="m15.1706 18.2712-1.2061 3.1291c-.1914.6436.2679 1.2873.9186 1.2873h1.3874c.6507 0 1.11-.6536.9186-1.2873l-.9377-3.1291c-.201-.6931-.8703-.6931-1.0808 0z" fill="url(#T)"/></g><g filter="url(#f)"><path d="m15.2434 18.1748-.9782 2.9707c-.1997.6436.2795 1.2873.9583 1.2873h1.4474c.6787 0 1.1579-.6536.9582-1.2873l-.9782-2.9707c-.2096-.6932-1.1879-.6932-1.4075 0z" fill="#7f5e55"/><path d="m15.2434 18.1748-.9782 2.9707c-.1997.6436.2795 1.2873.9583 1.2873h1.4474c.6787 0 1.1579-.6536.9582-1.2873l-.9782-2.9707c-.2096-.6932-1.1879-.6932-1.4075 0z" fill="url(#U)"/><path d="m15.2434 18.1748-.9782 2.9707c-.1997.6436.2795 1.2873.9583 1.2873h1.4474c.6787 0 1.1579-.6536.9582-1.2873l-.9782-2.9707c-.2096-.6932-1.1879-.6932-1.4075 0z" fill="url(#V)"/><path d="m15.2434 18.1748-.9782 2.9707c-.1997.6436.2795 1.2873.9583 1.2873h1.4474c.6787 0 1.1579-.6536.9582-1.2873l-.9782-2.9707c-.2096-.6932-1.1879-.6932-1.4075 0z" fill="url(#W)"/><path d="m15.2434 18.1748-.9782 2.9707c-.1997.6436.2795 1.2873.9583 1.2873h1.4474c.6787 0 1.1579-.6536.9582-1.2873l-.9782-2.9707c-.2096-.6932-1.1879-.6932-1.4075 0z" fill="url(#X)"/><path d="m15.2434 18.1748-.9782 2.9707c-.1997.6436.2795 1.2873.9583 1.2873h1.4474c.6787 0 1.1579-.6536.9582-1.2873l-.9782-2.9707c-.2096-.6932-1.1879-.6932-1.4075 0z" fill="url(#Y)"/><path d="m15.2434 18.1748-.9782 2.9707c-.1997.6436.2795 1.2873.9583 1.2873h1.4474c.6787 0 1.1579-.6536.9582-1.2873l-.9782-2.9707c-.2096-.6932-1.1879-.6932-1.4075 0z" fill="url(#Z)"/></g><g filter="url(#g)"><path d="m15.9472 24.1963c-.9584 0-1.8594-.2307-2.6166-.6344-.2588-.1346-.5367.1634-.3738.4037.6326.9806 1.7348 1.6343 2.9904 1.6343s2.3579-.6537 2.9905-1.6343c.1629-.2499-.115-.5383-.3738-.4037-.7572.4037-1.6486.6344-2.6167.6344z" stroke="url(#aa)" stroke-width=".2"/></g><path d="m15.9472 24.1963c-.9584 0-1.8594-.2307-2.6166-.6344-.2588-.1346-.5367.1634-.3738.4037.6326.9806 1.7348 1.6343 2.9904 1.6343s2.3579-.6537 2.9905-1.6343c.1629-.2499-.115-.5383-.3738-.4037-.7572.4037-1.6486.6344-2.6167.6344z" fill="#89014f"/><g filter="url(#h)"><path d="m18.049 17.763c.4885-.8592 1.2312-1.5379 2.8297-1.5379.6999 0 1.3748.1939 1.9747.6787.4948.3998.4285.9114.0453 1.103l-1.0235.5843c-1.1997-.3878-2.5264-.4403-3.8262-.8281z" fill="#252328"/></g><g filter="url(#i)"><path d="m13.8521 17.763c-.4885-.8592-1.2312-1.5379-2.8297-1.5379-.6999 0-1.37474.1939-1.97463.6787-.4948.3998-.42854.9114-.04536 1.103l1.02349.5843c1.1998-.3878 2.5265-.4403 3.8262-.8281z" fill="#252328"/></g><path d="m20.3482 16.3331c1.2021 0 2.2176.8288 2.4939 1.9488.0821.3211-.1643.6272-.4928.6272h-4.1067c-.2613 0-.4704-.2389-.4181-.5002.2314-1.1798 1.2693-2.0758 2.5237-2.0758z" fill="#fff"/><path d="m19.967 16.8334c.911 0 1.6427.7392 1.6427 1.6426 0 .1494-.0224.2987-.0597.4331h-3.1734c-.0373-.1419-.0597-.2837-.0597-.4331 0-.9034.7392-1.6426 1.6501-1.6426z" fill="url(#ac)"/><path d="m19.0264 18.476c0-.5227.4181-.9408.9408-.9408.5226 0 .9408.4181.9408.9408 0 .1568-.0374.3061-.1046.433h-1.665c-.0747-.1269-.112-.2762-.112-.433z" fill="#000"/><g filter="url(#j)"><path d="m19.8442 17.1813c.1168.1563-.1274.3468-.4051.5545-.2777.2076-.4837.3537-.6006.1974-.1168-.1562.0136-.4512.2913-.6589.2777-.2076.5975-.2492.7144-.093z" fill="#c7a7a3"/><path d="m19.8442 17.1813c.1168.1563-.1274.3468-.4051.5545-.2777.2076-.4837.3537-.6006.1974-.1168-.1562.0136-.4512.2913-.6589.2777-.2076.5975-.2492.7144-.093z" fill="url(#ae)"/></g><g filter="url(#k)"><path d="m21.4289 18.2584c-.0606-.424-.3087-.7435-.4252-.8503l-.4776.5241.2155.4194z" fill="url(#ag)"/></g><path d="m11.5528 16.3331c-1.2022 0-2.21764.8288-2.49391 1.9488-.08214.3211.16427.6272.4928.6272h4.10671c.2613 0 .4704-.2389.4181-.5002-.2315-1.1798-1.2768-2.0758-2.5237-2.0758z" fill="#fff"/><path d="m11.9337 16.8334c-.9109 0-1.6427.7392-1.6427 1.6427 0 .1493.0224.2986.0597.433h3.1734c.0373-.1418.0597-.2837.0597-.433-.0074-.9035-.7392-1.6427-1.6501-1.6427z" fill="url(#ah)"/><path d="m12.8748 18.4761c0-.5227-.4182-.9408-.9408-.9408-.5227 0-.9408.4181-.9408.9408 0 .1568.0373.3061.1045.4331h1.6651c.0672-.127.112-.2763.112-.4331z" fill="#000"/><g filter="url(#l)"><path d="m13.4327 18.2815c0-.53-.431-.8833-.5475-.9901l-.53.5125.3262.664z" fill="url(#ai)"/></g><g filter="url(#m)"><ellipse cx="11.4372" cy="17.5353" fill="#c7a7a3" fill-opacity=".9" rx=".716537" ry=".362634" transform="matrix(.88365127 -.46814574 .46814574 .88365127 -6.878372 7.394486)"/><ellipse cx="11.4372" cy="17.5353" fill="url(#aj)" rx=".716537" ry=".362634" transform="matrix(.88365127 -.46814574 .46814574 .88365127 -6.878372 7.394486)"/></g><g filter="url(#n)"><path d="m6.74431 21.285c.05266.0034.09664-.0373.09993-.09.05061-.8106.16143-2.7523.19783-3.9656.05159-1.7195.86272-2.6875 2.12053-3.2422.76562-.289 1.3186-.6025 1.6366-.7952.2472-.1497.4394-.2662.7566-.3845.0854-.0318.1934-.0657.3198-.1053.8809-.2762 2.8105-1.0758 3.8871-3.17802.085-.16597.3481-.15683.4236.01365.9349 2.11057 2.9576 2.88447 3.8642 3.15617.143.0428.2637.079.3559.1135.3159.1183.5726.2136.8187.3633.7999.4868.8398.4453 1.8047.8399 1.8203.8125 1.8707 1.5312 1.8707 3.2187.0363 1.2133.1046 3.1586.1517 3.9695.0031.0527.047.0934.0997.09 1.2235-.0799 1.9117-1.7053 2.1058-2.5282l.7857-2.9688c.4004-1.5859.549-2.4193.3614-3.0979-.1728-.625-.6546-1.3135-.8327-1.5271 0-.0725.022-.2072.0507-.3829.0949-.5816.127-1.36219-.1868-2.0702-.5028-1.05-1.2578-1.3125-1.7812-1.46094-.4766-.07031-.7642-.25625-1.0156-.78125-.9919-1.79319-2.2344-1.69531-2.8047-1.69531-.4615.05473-.7735.05473-1.2891-.29688-1.3125-1.09375-2.6375-.70313-3.4232-.32813-.6286.3-1.0162.34375-1.1315.32813-.1157.01562-.505-.02813-1.1363-.32813-.7892-.375-2.059-.79685-3.4496.32813-.461.39844-.7021.39601-1.1898.33842-.39268-.04637-1.97025-.17846-2.96646 1.61472-.25253.525-.71693.61977-.94841.62498-.43666.03125-1.43623.35625-1.94128 1.40625-.31516.70802-.22529 1.74641-.12995 2.32801.0288.1757.05089.3104.05089.3829-.17884.2136-.52887.875-.70243 1.5-.18845.6786.08716 2.3412.30812 3.1172l.78918 2.9688c.19489.8229.84272 2.4449 2.06965 2.5243z" fill="url(#ak)"/><path d="m6.74431 21.285c.05266.0034.09664-.0373.09993-.09.05061-.8106.16143-2.7523.19783-3.9656.05159-1.7195.86272-2.6875 2.12053-3.2422.76562-.289 1.3186-.6025 1.6366-.7952.2472-.1497.4394-.2662.7566-.3845.0854-.0318.1934-.0657.3198-.1053.8809-.2762 2.8105-1.0758 3.8871-3.17802.085-.16597.3481-.15683.4236.01365.9349 2.11057 2.9576 2.88447 3.8642 3.15617.143.0428.2637.079.3559.1135.3159.1183.5726.2136.8187.3633.7999.4868.8398.4453 1.8047.8399 1.8203.8125 1.8707 1.5312 1.8707 3.2187.0363 1.2133.1046 3.1586.1517 3.9695.0031.0527.047.0934.0997.09 1.2235-.0799 1.9117-1.7053 2.1058-2.5282l.7857-2.9688c.4004-1.5859.549-2.4193.3614-3.0979-.1728-.625-.6546-1.3135-.8327-1.5271 0-.0725.022-.2072.0507-.3829.0949-.5816.127-1.36219-.1868-2.0702-.5028-1.05-1.2578-1.3125-1.7812-1.46094-.4766-.07031-.7642-.25625-1.0156-.78125-.9919-1.79319-2.2344-1.69531-2.8047-1.69531-.4615.05473-.7735.05473-1.2891-.29688-1.3125-1.09375-2.6375-.70313-3.4232-.32813-.6286.3-1.0162.34375-1.1315.32813-.1157.01562-.505-.02813-1.1363-.32813-.7892-.375-2.059-.79685-3.4496.32813-.461.39844-.7021.39601-1.1898.33842-.39268-.04637-1.97025-.17846-2.96646 1.61472-.25253.525-.71693.61977-.94841.62498-.43666.03125-1.43623.35625-1.94128 1.40625-.31516.70802-.22529 1.74641-.12995 2.32801.0288.1757.05089.3104.05089.3829-.17884.2136-.52887.875-.70243 1.5-.18845.6786.08716 2.3412.30812 3.1172l.78918 2.9688c.19489.8229.84272 2.4449 2.06965 2.5243z" fill="url(#al)"/><path d="m6.74431 21.285c.05266.0034.09664-.0373.09993-.09.05061-.8106.16143-2.7523.19783-3.9656.05159-1.7195.86272-2.6875 2.12053-3.2422.76562-.289 1.3186-.6025 1.6366-.7952.2472-.1497.4394-.2662.7566-.3845.0854-.0318.1934-.0657.3198-.1053.8809-.2762 2.8105-1.0758 3.8871-3.17802.085-.16597.3481-.15683.4236.01365.9349 2.11057 2.9576 2.88447 3.8642 3.15617.143.0428.2637.079.3559.1135.3159.1183.5726.2136.8187.3633.7999.4868.8398.4453 1.8047.8399 1.8203.8125 1.8707 1.5312 1.8707 3.2187.0363 1.2133.1046 3.1586.1517 3.9695.0031.0527.047.0934.0997.09 1.2235-.0799 1.9117-1.7053 2.1058-2.5282l.7857-2.9688c.4004-1.5859.549-2.4193.3614-3.0979-.1728-.625-.6546-1.3135-.8327-1.5271 0-.0725.022-.2072.0507-.3829.0949-.5816.127-1.36219-.1868-2.0702-.5028-1.05-1.2578-1.3125-1.7812-1.46094-.4766-.07031-.7642-.25625-1.0156-.78125-.9919-1.79319-2.2344-1.69531-2.8047-1.69531-.4615.05473-.7735.05473-1.2891-.29688-1.3125-1.09375-2.6375-.70313-3.4232-.32813-.6286.3-1.0162.34375-1.1315.32813-.1157.01562-.505-.02813-1.1363-.32813-.7892-.375-2.059-.79685-3.4496.32813-.461.39844-.7021.39601-1.1898.33842-.39268-.04637-1.97025-.17846-2.96646 1.61472-.25253.525-.71693.61977-.94841.62498-.43666.03125-1.43623.35625-1.94128 1.40625-.31516.70802-.22529 1.74641-.12995 2.32801.0288.1757.05089.3104.05089.3829-.17884.2136-.52887.875-.70243 1.5-.18845.6786.08716 2.3412.30812 3.1172l.78918 2.9688c.19489.8229.84272 2.4449 2.06965 2.5243z" fill="url(#am)"/><path d="m6.74431 21.285c.05266.0034.09664-.0373.09993-.09.05061-.8106.16143-2.7523.19783-3.9656.05159-1.7195.86272-2.6875 2.12053-3.2422.76562-.289 1.3186-.6025 1.6366-.7952.2472-.1497.4394-.2662.7566-.3845.0854-.0318.1934-.0657.3198-.1053.8809-.2762 2.8105-1.0758 3.8871-3.17802.085-.16597.3481-.15683.4236.01365.9349 2.11057 2.9576 2.88447 3.8642 3.15617.143.0428.2637.079.3559.1135.3159.1183.5726.2136.8187.3633.7999.4868.8398.4453 1.8047.8399 1.8203.8125 1.8707 1.5312 1.8707 3.2187.0363 1.2133.1046 3.1586.1517 3.9695.0031.0527.047.0934.0997.09 1.2235-.0799 1.9117-1.7053 2.1058-2.5282l.7857-2.9688c.4004-1.5859.549-2.4193.3614-3.0979-.1728-.625-.6546-1.3135-.8327-1.5271 0-.0725.022-.2072.0507-.3829.0949-.5816.127-1.36219-.1868-2.0702-.5028-1.05-1.2578-1.3125-1.7812-1.46094-.4766-.07031-.7642-.25625-1.0156-.78125-.9919-1.79319-2.2344-1.69531-2.8047-1.69531-.4615.05473-.7735.05473-1.2891-.29688-1.3125-1.09375-2.6375-.70313-3.4232-.32813-.6286.3-1.0162.34375-1.1315.32813-.1157.01562-.505-.02813-1.1363-.32813-.7892-.375-2.059-.79685-3.4496.32813-.461.39844-.7021.39601-1.1898.33842-.39268-.04637-1.97025-.17846-2.96646 1.61472-.25253.525-.71693.61977-.94841.62498-.43666.03125-1.43623.35625-1.94128 1.40625-.31516.70802-.22529 1.74641-.12995 2.32801.0288.1757.05089.3104.05089.3829-.17884.2136-.52887.875-.70243 1.5-.18845.6786.08716 2.3412.30812 3.1172l.78918 2.9688c.19489.8229.84272 2.4449 2.06965 2.5243z" fill="url(#an)"/></g><g filter="url(#o)"><path clip-rule="evenodd" d="m12.5548 14.815c-1.5109-.2734-2.56065.2241-2.84384.457-.21326.1755-.52835.1448-.70378-.0685-.17542-.2132-.14475-.5283.06851-.7038.52613-.4328 1.87841-.9906 3.65711-.6688.2718.0492.4522.3093.403.5811-.0492.2717-.3093.4521-.581.403z" fill="#87838b" fill-rule="evenodd"/></g><g filter="url(#p)"><path clip-rule="evenodd" d="m19.4098 14.815c1.5109-.2734 2.5606.2241 2.8438.457.2133.1755.5284.1448.7038-.0685.1754-.2132.1448-.5283-.0685-.7038-.5261-.4328-1.8784-.9906-3.6571-.6688-.2718.0492-.4522.3093-.403.5811.0492.2717.3093.4521.581.403z" fill="#87838b" fill-rule="evenodd"/></g><g clip-rule="evenodd" fill-rule="evenodd" filter="url(#q)"><path d="m6.49463 19.2997c0-.2071.16789-.375.375-.375h2.01953c.20711 0 .375.1679.375.375s-.16789.375-.375.375h-2.01953c-.20711 0-.375-.1679-.375-.375z" fill="#c2c0c6"/><path d="m6.49463 19.2997c0-.2071.16789-.375.375-.375h2.01953c.20711 0 .375.1679.375.375s-.16789.375-.375.375h-2.01953c-.20711 0-.375-.1679-.375-.375z" fill="url(#ao)"/><path d="m6.49463 19.2997c0-.2071.16789-.375.375-.375h2.01953c.20711 0 .375.1679.375.375s-.16789.375-.375.375h-2.01953c-.20711 0-.375-.1679-.375-.375z" fill="url(#ap)"/><path d="m6.49463 19.2997c0-.2071.16789-.375.375-.375h2.01953c.20711 0 .375.1679.375.375s-.16789.375-.375.375h-2.01953c-.20711 0-.375-.1679-.375-.375z" fill="url(#aq)"/></g><g clip-rule="evenodd" fill-rule="evenodd" filter="url(#r)"><path d="m22.7876 19.2997c0-.2071.1679-.375.375-.375h2.0195c.2071 0 .375.1679.375.375s-.1679.375-.375.375h-2.0195c-.2071 0-.375-.1679-.375-.375z" fill="#c7c7cd"/><path d="m22.7876 19.2997c0-.2071.1679-.375.375-.375h2.0195c.2071 0 .375.1679.375.375s-.1679.375-.375.375h-2.0195c-.2071 0-.375-.1679-.375-.375z" fill="url(#ar)"/><path d="m22.7876 19.2997c0-.2071.1679-.375.375-.375h2.0195c.2071 0 .375.1679.375.375s-.1679.375-.375.375h-2.0195c-.2071 0-.375-.1679-.375-.375z" fill="url(#as)"/></g><g filter="url(#s)"><path d="m17.68 19.4013c.0009-.022.0013-.0441.0013-.0664 0-.9434-.7648-1.7082-1.7082-1.7082s-1.7082.7648-1.7082 1.7082c0 .0223.0004.0444.0013.0664h.5506c-.0013-.022-.0019-.0441-.0019-.0664 0-.6396.5185-1.1582 1.1582-1.1582s1.1582.5186 1.1582 1.1582c0 .0223-.0006.0444-.0019.0664z" fill="#cdcad1"/><path d="m17.68 19.4013c.0009-.022.0013-.0441.0013-.0664 0-.9434-.7648-1.7082-1.7082-1.7082s-1.7082.7648-1.7082 1.7082c0 .0223.0004.0444.0013.0664h.5506c-.0013-.022-.0019-.0441-.0019-.0664 0-.6396.5185-1.1582 1.1582-1.1582s1.1582.5186 1.1582 1.1582c0 .0223-.0006.0444-.0019.0664z" fill="url(#at)"/><path d="m17.68 19.4013c.0009-.022.0013-.0441.0013-.0664 0-.9434-.7648-1.7082-1.7082-1.7082s-1.7082.7648-1.7082 1.7082c0 .0223.0004.0444.0013.0664h.5506c-.0013-.022-.0019-.0441-.0019-.0664 0-.6396.5185-1.1582 1.1582-1.1582s1.1582.5186 1.1582 1.1582c0 .0223-.0006.0444-.0019.0664z" fill="url(#au)"/></g><path d="m17.68 19.4013c.0009-.022.0013-.0441.0013-.0664 0-.9434-.7648-1.7082-1.7082-1.7082s-1.7082.7648-1.7082 1.7082c0 .0223.0004.0444.0013.0664h.5506c-.0013-.022-.0019-.0441-.0019-.0664 0-.6396.5185-1.1582 1.1582-1.1582s1.1582.5186 1.1582 1.1582c0 .0223-.0006.0444-.0019.0664z" fill="url(#av)"/><g filter="url(#t)"><path d="m23.0927 18.9091h-5.7343c-.2323 0-.4181.1986-.3758.4271.3184 1.7223 1.7178 2.35 2.4614 2.3697l1.9217-.0429c1.4257-.0469 2.0732-.9855 2.3906-1.875.1699-.4759-.1937-.8789-.6636-.8789z" fill="#85dbf1"/><path d="m23.0927 18.9091h-5.7343c-.2323 0-.4181.1986-.3758.4271.3184 1.7223 1.7178 2.35 2.4614 2.3697l1.9217-.0429c1.4257-.0469 2.0732-.9855 2.3906-1.875.1699-.4759-.1937-.8789-.6636-.8789z" fill="url(#aw)"/><path d="m23.0927 18.9091h-5.7343c-.2323 0-.4181.1986-.3758.4271.3184 1.7223 1.7178 2.35 2.4614 2.3697l1.9217-.0429c1.4257-.0469 2.0732-.9855 2.3906-1.875.1699-.4759-.1937-.8789-.6636-.8789z" fill="url(#ax)"/></g><g filter="url(#u)"><path d="m8.77644 18.9091h5.73426c.2324 0 .4181.1986.3759.4271-.3185 1.7223-1.7178 2.35-2.4614 2.3697l-1.9218-.0429c-1.42565-.0469-2.07312-.9855-2.39061-1.875-.16986-.4759.19371-.8789.66365-.8789z" fill="#85d7ed"/><path d="m8.77644 18.9091h5.73426c.2324 0 .4181.1986.3759.4271-.3185 1.7223-1.7178 2.35-2.4614 2.3697l-1.9218-.0429c-1.42565-.0469-2.07312-.9855-2.39061-1.875-.16986-.4759.19371-.8789.66365-.8789z" fill="url(#ay)"/></g><g filter="url(#v)"><path d="m9.4126 14.7919c.35416-.2552 1.4781-.725 3.1406-.5625" stroke="url(#aA)" stroke-linecap="round" stroke-width=".25"/></g><g filter="url(#w)"><path d="m22.5479 14.7164c-.3542-.2552-1.4782-.725-3.1407-.5625" stroke="url(#aB)" stroke-linecap="round" stroke-width=".25"/></g><g filter="url(#x)"><path d="m5.53109 7.83198c.96843-.55951 1.94567-.44832 2.31324-.32279l1.85605 5.03021c.12553.278.44992.7561-.59179 1.2105-1.09961.4796-1.70408 1.3018-1.93727 1.7674-.04946.0987-.16517.1523-.25728.0914-.8429-.5579-1.76283-2.8352-2.18998-4.0915-.4573-1.345-.4035-2.98583.80703-3.68522z" fill="url(#aC)"/><path d="m5.53109 7.83198c.96843-.55951 1.94567-.44832 2.31324-.32279l1.85605 5.03021c.12553.278.44992.7561-.59179 1.2105-1.09961.4796-1.70408 1.3018-1.93727 1.7674-.04946.0987-.16517.1523-.25728.0914-.8429-.5579-1.76283-2.8352-2.18998-4.0915-.4573-1.345-.4035-2.98583.80703-3.68522z" fill="url(#aD)"/></g><g filter="url(#y)"><path d="m26.48 7.83198c-.9977-.55951-2.0044-.44832-2.3831-.32279l-1.9121 5.03021c-.1293.278-.4357.6543.6735 1.0181 1.0994.3606 1.9465 1.0167 2.1793 1.6622.0436.121.1741.201.2799.1278.8257-.5717 1.5612-2.5949 1.9939-3.8303.4711-1.345.4157-2.98583-.8314-3.68522z" fill="url(#aE)"/></g><g filter="url(#z)"><path d="m8.52783 5.57313c.67941-.50956 1.79167-.4375 2.29687-.29687l1.1094 6.60934c-.9625 1.0875-2.06773 1.5105-2.48439 1.6407-1.625-.8594-2.125-3.56254-2.125-5.07817 0-1.51562.29687-2.19531 1.20312-2.875z" fill="url(#aF)"/><path d="m8.52783 5.57313c.67941-.50956 1.79167-.4375 2.29687-.29687l1.1094 6.60934c-.9625 1.0875-2.06773 1.5105-2.48439 1.6407-1.625-.8594-2.125-3.56254-2.125-5.07817 0-1.51562.29687-2.19531 1.20312-2.875z" fill="url(#aG)"/><path d="m8.52783 5.57313c.67941-.50956 1.79167-.4375 2.29687-.29687l1.1094 6.60934c-.9625 1.0875-2.06773 1.5105-2.48439 1.6407-1.625-.8594-2.125-3.56254-2.125-5.07817 0-1.51562.29687-2.19531 1.20312-2.875z" fill="url(#aH)"/></g><g filter="url(#A)"><path d="m23.7434 5.57313c-.6794-.50956-1.7917-.4375-2.2969-.29687l-1.1093 6.60934c.9625 1.0875 2.0677 1.5105 2.4843 1.6407 1.625-.8594 2.125-3.56254 2.125-5.07817 0-1.51562-.2968-2.19531-1.2031-2.875z" fill="url(#aI)"/></g><g filter="url(#B)"><path d="m10.5767 9.10444v-3.92188c.8594-.17187 1.0469-.78906 2.3829-1.125 1.0859-.1953 1.5937.25782 2.6172.64063v4.625c-.6632 1.64711-2.3651 2.61861-3.4691 3.02781-.3085.1144-.6606.0384-.8487-.2316-.6043-.8675-.6824-2.19822-.6823-3.01496z" fill="url(#aJ)"/><path d="m10.5767 9.10444v-3.92188c.8594-.17187 1.0469-.78906 2.3829-1.125 1.0859-.1953 1.5937.25782 2.6172.64063v4.625c-.6632 1.64711-2.3651 2.61861-3.4691 3.02781-.3085.1144-.6606.0384-.8487-.2316-.6043-.8675-.6824-2.19822-.6823-3.01496z" fill="url(#aK)"/><path d="m10.5767 9.10444v-3.92188c.8594-.17187 1.0469-.78906 2.3829-1.125 1.0859-.1953 1.5937.25782 2.6172.64063v4.625c-.6632 1.64711-2.3651 2.61861-3.4691 3.02781-.3085.1144-.6606.0384-.8487-.2316-.6043-.8675-.6824-2.19822-.6823-3.01496z" fill="url(#aL)"/></g><g filter="url(#C)"><path d="m21.3047 9.10444v-3.92188c-.8595-.17187-1.047-.78906-2.3829-1.125-1.086-.1953-1.5938.25782-2.6172.64063v4.625c.6631 1.64711 2.3651 2.61861 3.4691 3.02781.3085.1144.6605.0384.8486-.2316.6044-.8675.6825-2.19822.6824-3.01496z" fill="url(#aM)"/><path d="m21.3047 9.10444v-3.92188c-.8595-.17187-1.047-.78906-2.3829-1.125-1.086-.1953-1.5938.25782-2.6172.64063v4.625c.6631 1.64711 2.3651 2.61861 3.4691 3.02781.3085.1144.6605.0384.8486-.2316.6044-.8675.6825-2.19822.6824-3.01496z" fill="url(#aN)"/></g></svg>