<svg fill="none" height="32" viewBox="0 0 32 32" width="32" xmlns="http://www.w3.org/2000/svg" xmlns:xlink="http://www.w3.org/1999/xlink"><filter id="a" color-interpolation-filters="sRGB" filterUnits="userSpaceOnUse" height="23.3348" width="22.8459" x="3.47992" y="3.41516"><feFlood flood-opacity="0" result="BackgroundImageFix"/><feBlend in="SourceGraphic" in2="BackgroundImageFix" mode="normal" result="shape"/><feGaussianBlur result="effect1_foregroundBlur_18_28941" stdDeviation="1"/></filter><filter id="b" color-interpolation-filters="sRGB" filterUnits="userSpaceOnUse" height="6.0321" width="3.31207" x="7.87543" y="22.5"><feFlood flood-opacity="0" result="BackgroundImageFix"/><feBlend in="SourceGraphic" in2="BackgroundImageFix" mode="normal" result="shape"/><feGaussianBlur result="effect1_foregroundBlur_18_28941" stdDeviation=".375"/></filter><filter id="c" color-interpolation-filters="sRGB" filterUnits="userSpaceOnUse" height="12.1114" width="12.6048" x="9.68265" y="17.7918"><feFlood flood-opacity="0" result="BackgroundImageFix"/><feBlend in="SourceGraphic" in2="BackgroundImageFix" mode="normal" result="shape"/><feGaussianBlur result="effect1_foregroundBlur_18_28941" stdDeviation=".05"/></filter><linearGradient id="d" gradientUnits="userSpaceOnUse" x1="6.375" x2="11.125" y1="12.9375" y2="15.4763"><stop offset="0" stop-color="#8c8b8b"/><stop offset="1" stop-color="#929090" stop-opacity="0"/></linearGradient><linearGradient id="e" gradientUnits="userSpaceOnUse" x1="25.125" x2="20.1875" y1="11.75" y2="14.625"><stop offset=".202226" stop-color="#faf8fb"/><stop offset="1" stop-color="#f8f7f8" stop-opacity="0"/></linearGradient><linearGradient id="f" gradientUnits="userSpaceOnUse" x1="8.5" x2="8.5" y1="29.9375" y2="23.3125"><stop offset=".273585" stop-color="#8469a9"/><stop offset="1" stop-color="#866ba9" stop-opacity="0"/></linearGradient><linearGradient id="g" gradientUnits="userSpaceOnUse" x1="21.7287" x2="10.2479" y1="17.476" y2="28.9568"><stop offset=".242369" stop-color="#7a77be"/><stop offset=".60983" stop-color="#523e72"/><stop offset="1" stop-color="#483054"/></linearGradient><linearGradient id="h" gradientUnits="userSpaceOnUse" x1="21.5427" x2="10.4337" y1="17.6824" y2="28.7914"><stop offset="0" stop-color="#5e669c"/><stop offset="1" stop-color="#513468"/></linearGradient><path d="m10.7051 6.0525-6.79002 11.76c-2.6 4.51.65 10.14 5.85 10.14h12.45002c5.2 0 8.46-5.63 5.85-10.14l-6.79-11.76c-2.35-4.07-8.22-4.07-10.57 0z" fill="#d5cede"/><path d="m10.7051 6.0525-6.79002 11.76c-2.6 4.51.65 10.14 5.85 10.14h12.45002c5.2 0 8.46-5.63 5.85-10.14l-6.79-11.76c-2.35-4.07-8.22-4.07-10.57 0z" fill="url(#d)"/><path d="m10.7051 6.0525-6.79002 11.76c-2.6 4.51.65 10.14 5.85 10.14h12.45002c5.2 0 8.46-5.63 5.85-10.14l-6.79-11.76c-2.35-4.07-8.22-4.07-10.57 0z" fill="url(#e)"/><path d="m10.7051 6.0525-6.79002 11.76c-2.6 4.51.65 10.14 5.85 10.14h12.45002c5.2 0 8.46-5.63 5.85-10.14l-6.79-11.76c-2.35-4.07-8.22-4.07-10.57 0z" fill="url(#f)"/><g filter="url(#a)"><path d="m11.586 7.62497-5.52346 10.06253c-1.88223 3.265 1.07848 7.0625 4.84296 7.0625h9.0129c3.7645 0 5.5336-4.8732 3.6441-8.1381l-4.9155-8.98693c-1.7013-2.94641-5.3598-2.94641-7.061 0z" fill="#d5cedf"/></g><g filter="url(#b)"><path d="m8.65625 27.3125c.25-.4 1.01043-2.9271 1.31252-4.0625l.46873 4.5312c-.69792.0105-2.03125-.0687-1.78125-.4687z" fill="#846aa7"/></g><path d="m21.6251 17.6925h-11.28c-.43003 0-.77003.34-.77003.77v8.61c0 1.62 1.31003 2.93 2.93003 2.93h6.96c1.62 0 2.93-1.31 2.93-2.93v-8.61c0-.42-.34-.77-.77-.77z" fill="url(#g)"/><g filter="url(#c)"><path d="m21.4424 17.8918h-10.9147c-.4161 0-.74505.329-.74505.7451v8.3312c0 1.5675 1.26755 2.8351 2.83515 2.8351h6.7346c1.5675 0 2.8351-1.2676 2.8351-2.8351v-8.3312c0-.4064-.329-.7451-.7451-.7451z" fill="url(#h)"/></g><path d="m12.0551 14.8924.81 1.81c.18.4.65.58 1.05.4s.58-.65.4-1.05l-.81-1.81c-.18-.4-.65-.58-1.05-.4s-.58.65-.4 1.05z" fill="#beb8c6"/><path d="m7.92504 15.6125-1.76.92c-.39.2-.54.68-.34 1.07s.68.54 1.07.34l1.76-.92c.39-.2.54-.68.34-1.07-.21-.39-.69-.54-1.07-.34z" fill="#aca8b2"/><path d="m26.465 18.6725-1.5999-1.18c-.35-.26-.85-.19-1.11.17-.26.35-.19.85.17 1.11l1.6 1.18c.35.26.8499.19 1.1099-.17.25-.35.18-.85-.17-1.11z" fill="#d0ccd6"/><path d="m23.0451 12.5825-.92-1.76c-.2-.39-.68-.54-1.07-.34s-.54.68-.34 1.07l.92 1.76c.2.39.68.54 1.07.34s.54-.68.34-1.07z" fill="#d4d1d9"/><path d="m11.7551 8.72254-1.18 1.59996c-.26.34-.19.84.16 1.1.36.26.85.19 1.11-.16l1.18-1.59996c.26-.35.19-.85-.17-1.11-.34-.26-.84-.19-1.1.17z" fill="#b1acb6"/><path d="m15.0851 6.4225 1.6 1.18c.35.26.85.19 1.11-.17.26-.35.19-.85-.17-1.11l-1.6-1.18c-.35-.26-.85-.19-1.11.17-.26.35-.19.85.17 1.11z" fill="#c5c1c9"/><path d="m18.2451 16.8925 1.98-.14c.44-.03.77-.41.73-.85-.03-.44-.41-.77-.85-.73l-1.98.14c-.44.03-.77.41-.73.85.03.43.41.76.85.73z" fill="#bfb9c7"/><path d="m24.635 24.6425 1.46-1.35c.32-.3.34-.8.04-1.12s-.8-.34-1.12-.04l-1.46 1.35c-.32.3-.34.8-.04 1.12.29.32.8.34 1.12.04z" fill="#bfb7ca"/><path d="m8.48504 22.8225-1-1.72c-.22-.38-.7-.51-1.08-.29s-.51.7-.29 1.08l.99 1.72c.22.38.7.51 1.08.29s.51-.7.3-1.08z" fill="#b2abbd"/><path d="m17.6951 11.3925-1.82-.78c-.4-.17-.87.01-1.04.42-.17.4.01.87.42 1.04l1.82.78c.4.17.87-.01 1.04-.42.17-.4-.02-.86-.42-1.04z" fill="#beb9c6"/></svg>