<svg fill="none" height="32" viewBox="0 0 32 32" width="32" xmlns="http://www.w3.org/2000/svg" xmlns:xlink="http://www.w3.org/1999/xlink"><filter id="a" color-interpolation-filters="sRGB" filterUnits="userSpaceOnUse" height="15.9619" width="15.4619" x="8.3252" y="1.29565"><feFlood flood-opacity="0" result="BackgroundImageFix"/><feBlend in="SourceGraphic" in2="BackgroundImageFix" mode="normal" result="shape"/><feColorMatrix in="SourceAlpha" result="hardAlpha" type="matrix" values="0 0 0 0 0 0 0 0 0 0 0 0 0 0 0 0 0 0 127 0"/><feOffset dx=".25" dy="-.75"/><feGaussianBlur stdDeviation=".75"/><feComposite in2="hardAlpha" k2="-1" k3="1" operator="arithmetic"/><feColorMatrix type="matrix" values="0 0 0 0 0.886275 0 0 0 0 0.698039 0 0 0 0 0.607843 0 0 0 1 0"/><feBlend in2="shape" mode="normal" result="effect1_innerShadow_4002_789"/></filter><filter id="b" color-interpolation-filters="sRGB" filterUnits="userSpaceOnUse" height="12.0391" width="6.90628" x="12.2925" y="15.4153"><feFlood flood-opacity="0" result="BackgroundImageFix"/><feBlend in="SourceGraphic" in2="BackgroundImageFix" mode="normal" result="shape"/><feColorMatrix in="SourceAlpha" result="hardAlpha" type="matrix" values="0 0 0 0 0 0 0 0 0 0 0 0 0 0 0 0 0 0 127 0"/><feOffset dx="-.25"/><feGaussianBlur stdDeviation=".5"/><feComposite in2="hardAlpha" k2="-1" k3="1" operator="arithmetic"/><feColorMatrix type="matrix" values="0 0 0 0 0.741176 0 0 0 0 0.458824 0 0 0 0 0.321569 0 0 0 1 0"/><feBlend in2="shape" mode="normal" result="effect1_innerShadow_4002_789"/></filter><filter id="c" color-interpolation-filters="sRGB" filterUnits="userSpaceOnUse" height="1.97661" width="3.07552" x="15.2445" y="17.2748"><feFlood flood-opacity="0" result="BackgroundImageFix"/><feBlend in="SourceGraphic" in2="BackgroundImageFix" mode="normal" result="shape"/><feGaussianBlur result="effect1_foregroundBlur_4002_789" stdDeviation=".3"/></filter><filter id="d" color-interpolation-filters="sRGB" filterUnits="userSpaceOnUse" height="3.50964" width="3.4097" x="9.55542" y="9.05396"><feFlood flood-opacity="0" result="BackgroundImageFix"/><feBlend in="SourceGraphic" in2="BackgroundImageFix" mode="normal" result="shape"/><feColorMatrix in="SourceAlpha" result="hardAlpha" type="matrix" values="0 0 0 0 0 0 0 0 0 0 0 0 0 0 0 0 0 0 127 0"/><feOffset dx=".15" dy=".25"/><feGaussianBlur stdDeviation=".25"/><feComposite in2="hardAlpha" k2="-1" k3="1" operator="arithmetic"/><feColorMatrix type="matrix" values="0 0 0 0 0.858824 0 0 0 0 0.635294 0 0 0 0 0.533333 0 0 0 1 0"/><feBlend in2="shape" mode="normal" result="effect1_innerShadow_4002_789"/></filter><filter id="e" color-interpolation-filters="sRGB" filterUnits="userSpaceOnUse" height="3.50964" width="3.2597" x="19.1909" y="8.80396"><feFlood flood-opacity="0" result="BackgroundImageFix"/><feBlend in="SourceGraphic" in2="BackgroundImageFix" mode="normal" result="shape"/><feColorMatrix in="SourceAlpha" result="hardAlpha" type="matrix" values="0 0 0 0 0 0 0 0 0 0 0 0 0 0 0 0 0 0 127 0"/><feOffset dy="-.25"/><feGaussianBlur stdDeviation=".25"/><feComposite in2="hardAlpha" k2="-1" k3="1" operator="arithmetic"/><feColorMatrix type="matrix" values="0 0 0 0 0.827451 0 0 0 0 0.568627 0 0 0 0 0.505882 0 0 0 1 0"/><feBlend in2="shape" mode="normal" result="effect1_innerShadow_4002_789"/></filter><filter id="f" color-interpolation-filters="sRGB" filterUnits="userSpaceOnUse" height="3.1759" width="3.17593" x="19.2327" y="9.0957"><feFlood flood-opacity="0" result="BackgroundImageFix"/><feBlend in="SourceGraphic" in2="BackgroundImageFix" mode="normal" result="shape"/><feGaussianBlur result="effect1_foregroundBlur_4002_789" stdDeviation=".25"/></filter><filter id="g" color-interpolation-filters="sRGB" filterUnits="userSpaceOnUse" height="2.9759" width="2.97593" x="9.71646" y="9.1957"><feFlood flood-opacity="0" result="BackgroundImageFix"/><feBlend in="SourceGraphic" in2="BackgroundImageFix" mode="normal" result="shape"/><feGaussianBlur result="effect1_foregroundBlur_4002_789" stdDeviation=".2"/></filter><filter id="h" color-interpolation-filters="sRGB" filterUnits="userSpaceOnUse" height="11.2671" width="10.3224" x="10.77" y="5.71362"><feFlood flood-opacity="0" result="BackgroundImageFix"/><feBlend in="SourceGraphic" in2="BackgroundImageFix" mode="normal" result="shape"/><feColorMatrix in="SourceAlpha" result="hardAlpha" type="matrix" values="0 0 0 0 0 0 0 0 0 0 0 0 0 0 0 0 0 0 127 0"/><feOffset dy=".25"/><feGaussianBlur stdDeviation=".125"/><feComposite in2="hardAlpha" k2="-1" k3="1" operator="arithmetic"/><feColorMatrix type="matrix" values="0 0 0 0 0.745098 0 0 0 0 0.486275 0 0 0 0 0.384314 0 0 0 1 0"/><feBlend in2="shape" mode="normal" result="effect1_innerShadow_4002_789"/></filter><filter id="i" color-interpolation-filters="sRGB" filterUnits="userSpaceOnUse" height="3.71643" width="2.90149" x="14.3162" y="9.67212"><feFlood flood-opacity="0" result="BackgroundImageFix"/><feBlend in="SourceGraphic" in2="BackgroundImageFix" mode="normal" result="shape"/><feGaussianBlur result="effect1_foregroundBlur_4002_789" stdDeviation=".25"/></filter><filter id="j" color-interpolation-filters="sRGB" filterUnits="userSpaceOnUse" height="3.21643" width="2.40149" x="14.7305" y="9.78174"><feFlood flood-opacity="0" result="BackgroundImageFix"/><feBlend in="SourceGraphic" in2="BackgroundImageFix" mode="normal" result="shape"/><feGaussianBlur result="effect1_foregroundBlur_4002_789" stdDeviation=".125"/></filter><filter id="k" color-interpolation-filters="sRGB" filterUnits="userSpaceOnUse" height="1.54045" width="3.74495" x="14.0587" y="13.0648"><feFlood flood-opacity="0" result="BackgroundImageFix"/><feBlend in="SourceGraphic" in2="BackgroundImageFix" mode="normal" result="shape"/><feGaussianBlur result="effect1_foregroundBlur_4002_789" stdDeviation=".05"/></filter><filter id="l" color-interpolation-filters="sRGB" filterUnits="userSpaceOnUse" height="1.302" width="3.03752" x="16.888" y="9.26099"><feFlood flood-opacity="0" result="BackgroundImageFix"/><feBlend in="SourceGraphic" in2="BackgroundImageFix" mode="normal" result="shape"/><feColorMatrix in="SourceAlpha" result="hardAlpha" type="matrix" values="0 0 0 0 0 0 0 0 0 0 0 0 0 0 0 0 0 0 127 0"/><feOffset dx="-.2"/><feGaussianBlur stdDeviation=".2"/><feComposite in2="hardAlpha" k2="-1" k3="1" operator="arithmetic"/><feColorMatrix type="matrix" values="0 0 0 0 0.141176 0 0 0 0 0.0862745 0 0 0 0 0.176471 0 0 0 1 0"/><feBlend in2="shape" mode="normal" result="effect1_innerShadow_4002_789"/></filter><filter id="m" color-interpolation-filters="sRGB" filterUnits="userSpaceOnUse" height="1.302" width="3.03752" x="11.937" y="9.26099"><feFlood flood-opacity="0" result="BackgroundImageFix"/><feBlend in="SourceGraphic" in2="BackgroundImageFix" mode="normal" result="shape"/><feColorMatrix in="SourceAlpha" result="hardAlpha" type="matrix" values="0 0 0 0 0 0 0 0 0 0 0 0 0 0 0 0 0 0 127 0"/><feOffset dx=".2"/><feGaussianBlur stdDeviation=".125"/><feComposite in2="hardAlpha" k2="-1" k3="1" operator="arithmetic"/><feColorMatrix type="matrix" values="0 0 0 0 0.133333 0 0 0 0 0.0784314 0 0 0 0 0.168627 0 0 0 1 0"/><feBlend in2="shape" mode="normal" result="effect1_innerShadow_4002_789"/></filter><filter id="n" color-interpolation-filters="sRGB" filterUnits="userSpaceOnUse" height="1.10247" width="2.48183" x="12.074" y="7.82173"><feFlood flood-opacity="0" result="BackgroundImageFix"/><feBlend in="SourceGraphic" in2="BackgroundImageFix" mode="normal" result="shape"/><feColorMatrix in="SourceAlpha" result="hardAlpha" type="matrix" values="0 0 0 0 0 0 0 0 0 0 0 0 0 0 0 0 0 0 127 0"/><feOffset dx=".2" dy="-.2"/><feGaussianBlur stdDeviation=".15"/><feComposite in2="hardAlpha" k2="-1" k3="1" operator="arithmetic"/><feColorMatrix type="matrix" values="0 0 0 0 0.47451 0 0 0 0 0.262745 0 0 0 0 0.164706 0 0 0 1 0"/><feBlend in2="shape" mode="normal" result="effect1_innerShadow_4002_789"/></filter><filter id="o" color-interpolation-filters="sRGB" filterUnits="userSpaceOnUse" height="1.10259" width="2.48183" x="17.561" y="7.82173"><feFlood flood-opacity="0" result="BackgroundImageFix"/><feBlend in="SourceGraphic" in2="BackgroundImageFix" mode="normal" result="shape"/><feColorMatrix in="SourceAlpha" result="hardAlpha" type="matrix" values="0 0 0 0 0 0 0 0 0 0 0 0 0 0 0 0 0 0 127 0"/><feOffset dx=".2" dy="-.2"/><feGaussianBlur stdDeviation=".15"/><feComposite in2="hardAlpha" k2="-1" k3="1" operator="arithmetic"/><feColorMatrix type="matrix" values="0 0 0 0 0.47451 0 0 0 0 0.262745 0 0 0 0 0.164706 0 0 0 1 0"/><feBlend in2="shape" mode="normal" result="effect1_innerShadow_4002_789"/></filter><filter id="p" color-interpolation-filters="sRGB" filterUnits="userSpaceOnUse" height=".702808" width=".794421" x="17.399" y="9.63474"><feFlood flood-opacity="0" result="BackgroundImageFix"/><feBlend in="SourceGraphic" in2="BackgroundImageFix" mode="normal" result="shape"/><feGaussianBlur result="effect1_foregroundBlur_4002_789" stdDeviation=".05"/></filter><filter id="q" color-interpolation-filters="sRGB" filterUnits="userSpaceOnUse" height=".92002" width=".897559" x="18.2509" y="9.71211"><feFlood flood-opacity="0" result="BackgroundImageFix"/><feBlend in="SourceGraphic" in2="BackgroundImageFix" mode="normal" result="shape"/><feGaussianBlur result="effect1_foregroundBlur_4002_789" stdDeviation=".1"/></filter><filter id="r" color-interpolation-filters="sRGB" filterUnits="userSpaceOnUse" height="1.04844" width=".993872" x="13.7509" y="9.6479"><feFlood flood-opacity="0" result="BackgroundImageFix"/><feBlend in="SourceGraphic" in2="BackgroundImageFix" mode="normal" result="shape"/><feGaussianBlur result="effect1_foregroundBlur_4002_789" stdDeviation=".1"/></filter><filter id="s" color-interpolation-filters="sRGB" filterUnits="userSpaceOnUse" height=".710986" width=".92226" x="12.9852" y="9.62644"><feFlood flood-opacity="0" result="BackgroundImageFix"/><feBlend in="SourceGraphic" in2="BackgroundImageFix" mode="normal" result="shape"/><feGaussianBlur result="effect1_foregroundBlur_4002_789" stdDeviation=".05"/></filter><filter id="t" color-interpolation-filters="sRGB" filterUnits="userSpaceOnUse" height=".98252" width="2.28223" x="17.5957" y="7.94685"><feFlood flood-opacity="0" result="BackgroundImageFix"/><feBlend in="SourceGraphic" in2="BackgroundImageFix" mode="normal" result="shape"/><feGaussianBlur result="effect1_foregroundBlur_4002_789" stdDeviation=".1"/></filter><filter id="u" color-interpolation-filters="sRGB" filterUnits="userSpaceOnUse" height=".98252" width="2.28223" x="12.0737" y="7.94685"><feFlood flood-opacity="0" result="BackgroundImageFix"/><feBlend in="SourceGraphic" in2="BackgroundImageFix" mode="normal" result="shape"/><feGaussianBlur result="effect1_foregroundBlur_4002_789" stdDeviation=".1"/></filter><filter id="v" color-interpolation-filters="sRGB" filterUnits="userSpaceOnUse" height="5.30469" width="4.32956" x="9.59741" y="3.57349"><feFlood flood-opacity="0" result="BackgroundImageFix"/><feBlend in="SourceGraphic" in2="BackgroundImageFix" mode="normal" result="shape"/><feGaussianBlur result="effect1_foregroundBlur_4002_789" stdDeviation=".25"/></filter><filter id="w" color-interpolation-filters="sRGB" filterUnits="userSpaceOnUse" height="5.84827" width="9.02274" x="12.5745" y="2.5083"><feFlood flood-opacity="0" result="BackgroundImageFix"/><feBlend in="SourceGraphic" in2="BackgroundImageFix" mode="normal" result="shape"/><feGaussianBlur result="effect1_foregroundBlur_4002_789" stdDeviation=".125"/></filter><filter id="x" color-interpolation-filters="sRGB" filterUnits="userSpaceOnUse" height="2.33176" width="1.1518" x="12.7027" y="3.7574"><feFlood flood-opacity="0" result="BackgroundImageFix"/><feBlend in="SourceGraphic" in2="BackgroundImageFix" mode="normal" result="shape"/><feGaussianBlur result="effect1_foregroundBlur_4002_789" stdDeviation=".1"/></filter><radialGradient id="y" cx="0" cy="0" gradientTransform="matrix(3.59374967 -2.43749894 2.72822053 4.02237781 6.87695 17.3293)" gradientUnits="userSpaceOnUse" r="1"><stop offset="0" stop-color="#e1dae6"/><stop offset="1" stop-color="#e6dee6"/></radialGradient><radialGradient id="z" cx="0" cy="0" gradientTransform="matrix(-.01562407 -1.76562087 2.48224282 -.02196549 8.5957 17.8293)" gradientUnits="userSpaceOnUse" r="1"><stop offset=".384246" stop-color="#dad4de"/><stop offset="1" stop-color="#dad4de" stop-opacity="0"/></radialGradient><radialGradient id="A" cx="0" cy="0" gradientTransform="matrix(-5.47137677 9.4622042 -7.02132915 -4.05997761 10.4606 19.2684)" gradientUnits="userSpaceOnUse" r="1"><stop offset="0" stop-color="#e0d6e3"/><stop offset="1" stop-color="#d5c4df"/></radialGradient><radialGradient id="B" cx="0" cy="0" gradientTransform="matrix(3.34717512 3.28281235 -3.28281235 3.34717512 .404177 1.46024)" gradientUnits="userSpaceOnUse" r="1"><stop offset="0" stop-color="#fbf7ff"/><stop offset=".835815" stop-color="#f2e8f1"/></radialGradient><radialGradient id="C" cx="0" cy="0" gradientTransform="matrix(-.03125 -1.59375366 5.11384705 -.10027127 2.31641 5.3125)" gradientUnits="userSpaceOnUse" r="1"><stop offset=".201384" stop-color="#e8dee9"/><stop offset="1" stop-color="#e8dee9" stop-opacity="0"/></radialGradient><radialGradient id="D" cx="0" cy="0" gradientTransform="matrix(4.95234817 7.33804106 -10.65665159 7.19203511 1.35234 1.23915)" gradientUnits="userSpaceOnUse" r="1"><stop offset=".192089" stop-color="#f3ebfe"/><stop offset=".819302" stop-color="#dac9f0"/></radialGradient><linearGradient id="E" gradientUnits="userSpaceOnUse" x1="20.685" x2="13.7921" y1="3.64156" y2="16.4087"><stop offset="0" stop-color="#ffffbe"/><stop offset="1" stop-color="#e5ae90"/></linearGradient><radialGradient id="F" cx="0" cy="0" gradientTransform="matrix(1.76566517 -3.66715954 8.36137135 4.0258358 20.6849 16.5785)" gradientUnits="userSpaceOnUse" r="1"><stop offset="0" stop-color="#f9bfa4"/><stop offset="1" stop-color="#ffc3a8" stop-opacity="0"/></radialGradient><radialGradient id="G" cx="0" cy="0" gradientTransform="matrix(-1.91279441 5.53193804 -5.17824482 -1.79049687 15.252 12.4699)" gradientUnits="userSpaceOnUse" r="1"><stop offset=".619534" stop-color="#c7897d"/><stop offset="1" stop-color="#c7897d" stop-opacity="0"/></radialGradient><radialGradient id="H" cx="0" cy="0" gradientTransform="matrix(-3.19177102 2.47873711 -3.05119405 -3.92890101 12.7734 13.4886)" gradientUnits="userSpaceOnUse" r="1"><stop offset=".205322" stop-color="#cf987b"/><stop offset="1" stop-color="#cf987b" stop-opacity="0"/></radialGradient><radialGradient id="I" cx="0" cy="0" gradientTransform="matrix(-1.035706 1.47705552 -1.34258049 -.9414126 11.0247 10.908)" gradientUnits="userSpaceOnUse" r="1"><stop offset=".333546" stop-color="#c58e72"/><stop offset="1" stop-color="#c58e72" stop-opacity="0"/></radialGradient><radialGradient id="J" cx="0" cy="0" gradientTransform="matrix(-2.35988758 -.52628662 .77364477 -3.46905016 11.5679 9.39696)" gradientUnits="userSpaceOnUse" r="1"><stop offset=".225789" stop-color="#c49070"/><stop offset="1" stop-color="#c49070" stop-opacity="0"/></radialGradient><radialGradient id="K" cx="0" cy="0" gradientTransform="matrix(2.19018917 3.20876004 -5.59972394 3.82217884 12.0433 3.01339)" gradientUnits="userSpaceOnUse" r="1"><stop offset="0" stop-color="#dcc893"/><stop offset="1" stop-color="#dcc893" stop-opacity="0"/></radialGradient><radialGradient id="L" cx="0" cy="0" gradientTransform="matrix(-1.12051083 1.2223946 -1.70827848 -1.56589741 21.4999 4.86395)" gradientUnits="userSpaceOnUse" r="1"><stop offset="0" stop-color="#ffffbf"/><stop offset="1" stop-color="#ffffbf" stop-opacity="0"/></radialGradient><radialGradient id="M" cx="0" cy="0" gradientTransform="matrix(-1.86744738 .54328592 -1.18211835 -4.06331862 23.5371 9.8214)" gradientUnits="userSpaceOnUse" r="1"><stop offset="0" stop-color="#fffabe"/><stop offset="1" stop-color="#fffabe" stop-opacity="0"/></radialGradient><radialGradient id="N" cx="0" cy="0" gradientTransform="matrix(-3.19179353 1.35819021 -2.16400863 -5.0854944 23.2655 12.6397)" gradientUnits="userSpaceOnUse" r="1"><stop offset="0" stop-color="#fff4bc"/><stop offset="1" stop-color="#fff4bc" stop-opacity="0"/></radialGradient><radialGradient id="O" cx="0" cy="0" gradientTransform="matrix(-1.35938662 5.78124889 -6.81223108 -1.60180887 23.0957 22.5793)" gradientUnits="userSpaceOnUse" r="1"><stop offset="0" stop-color="#9279d5"/><stop offset="1" stop-color="#8067c6"/></radialGradient><linearGradient id="P" gradientUnits="userSpaceOnUse" x1="24.1582" x2="24.1895" y1="30.3293" y2="26.6731"><stop offset=".078159" stop-color="#704cc0"/><stop offset="1" stop-color="#7e64c5" stop-opacity="0"/></linearGradient><linearGradient id="Q" gradientUnits="userSpaceOnUse" x1="18.1205" x2="19.4722" y1="27.7651" y2="28.1513"><stop offset="0" stop-color="#6b47bb"/><stop offset="1" stop-color="#6b47bb" stop-opacity="0"/></linearGradient><radialGradient id="R" cx="0" cy="0" gradientTransform="matrix(6.87460228 8.07186288 -11.19703945 9.53623644 6.41827 22.3195)" gradientUnits="userSpaceOnUse" r="1"><stop offset="0" stop-color="#7a67ab"/><stop offset="1" stop-color="#7353bf"/></radialGradient><linearGradient id="S" gradientUnits="userSpaceOnUse" x1="13.6582" x2="12.1582" y1="28.7356" y2="29.2668"><stop offset="0" stop-color="#5e40aa"/><stop offset="1" stop-color="#5e40aa" stop-opacity="0"/></linearGradient><radialGradient id="T" cx="0" cy="0" gradientTransform="matrix(-3.18748607 3.03126743 -6.31538914 -6.64085744 13.752 16.3918)" gradientUnits="userSpaceOnUse" r="1"><stop offset=".208029" stop-color="#4f3466"/><stop offset="1" stop-color="#6d4f8c" stop-opacity="0"/></radialGradient><linearGradient id="U" gradientUnits="userSpaceOnUse" x1="12.3145" x2="13.6895" y1="27.3918" y2="26.8293"><stop offset=".223009" stop-color="#775cbc"/><stop offset="1" stop-color="#795cc2" stop-opacity="0"/></linearGradient><radialGradient id="V" cx="0" cy="0" gradientTransform="matrix(-4.82763615 -11.66358039 1.58185322 -.65473993 15.9577 28.9623)" gradientUnits="userSpaceOnUse" r="1"><stop offset="0" stop-color="#8870c8"/><stop offset="1" stop-color="#8870c8" stop-opacity="0"/></radialGradient><linearGradient id="W" gradientUnits="userSpaceOnUse" x1="15.627" x2="14.2207" y1="30.1731" y2="29.4856"><stop offset=".208449" stop-color="#6349aa"/><stop offset="1" stop-color="#7c60c4" stop-opacity="0"/></linearGradient><radialGradient id="X" cx="0" cy="0" gradientTransform="matrix(-1.3728179 -3.15500599 .92095358 -.40072873 16.3457 27.5793)" gradientUnits="userSpaceOnUse" r="1"><stop offset="0" stop-color="#442d6d"/><stop offset="1" stop-color="#7c5fac" stop-opacity="0"/></radialGradient><radialGradient id="Y" cx="0" cy="0" gradientTransform="matrix(-1.15862601 -1.17795667 1.62431647 -1.59766089 14.3356 18.5153)" gradientUnits="userSpaceOnUse" r="1"><stop offset=".328097" stop-color="#342554"/><stop offset="1" stop-color="#614279" stop-opacity="0"/></radialGradient><linearGradient id="Z" gradientUnits="userSpaceOnUse" x1="16.002" x2="18.0332" y1="24.8293" y2="25.7356"><stop offset="0" stop-color="#684c87"/><stop offset="1" stop-color="#684c87" stop-opacity="0"/></linearGradient><radialGradient id="aa" cx="0" cy="0" gradientTransform="matrix(2.01562886 -.67187829 .83418262 2.50254041 17.502 18.3293)" gradientUnits="userSpaceOnUse" r="1"><stop offset=".285033" stop-color="#2c1c48"/><stop offset="1" stop-color="#593d6e" stop-opacity="0"/></radialGradient><radialGradient id="ab" cx="0" cy="0" gradientTransform="matrix(-4.21880871 11.06244915 -1.87761519 -.71605295 20.4707 22.4856)" gradientUnits="userSpaceOnUse" r="1"><stop offset="0" stop-color="#9078d3"/><stop offset="1" stop-color="#7b63b3" stop-opacity="0"/></radialGradient><linearGradient id="ac" gradientUnits="userSpaceOnUse" x1="16.3665" x2="16.3665" y1="24.913" y2="14.427"><stop offset="0" stop-color="#dea48a"/><stop offset="1" stop-color="#e6ae8a"/></linearGradient><radialGradient id="ad" cx="0" cy="0" gradientTransform="matrix(1.81250299 1.92624887 -2.40786207 2.26567671 13.1582 16.172)" gradientUnits="userSpaceOnUse" r="1"><stop offset=".0471238" stop-color="#ab5e45"/><stop offset="1" stop-color="#c38266" stop-opacity="0"/></radialGradient><radialGradient id="ae" cx="0" cy="0" gradientTransform="matrix(0 3.31547 -.763068 0 16.6401 15.0897)" gradientUnits="userSpaceOnUse" r="1"><stop offset="0" stop-color="#e2aa93"/><stop offset="1" stop-color="#e2aa93" stop-opacity="0"/></radialGradient><linearGradient id="af"><stop offset=".00558659" stop-color="#ccc"/><stop offset="1" stop-color="#e6e6e6"/></linearGradient><linearGradient id="ag" gradientUnits="userSpaceOnUse" x1="8.67712" x2="23.1913" xlink:href="#af" y1="15.5609" y2="15.5609"/><linearGradient id="ah" gradientUnits="userSpaceOnUse" x1="8.67714" x2="23.1914" xlink:href="#af" y1="15.5303" y2="15.5303"/><linearGradient id="ai" gradientUnits="userSpaceOnUse" x1="9.55542" x2="12.5529" y1="10.7721" y2="10.7721"><stop offset="0" stop-color="#c48b78"/><stop offset="1" stop-color="#b47860"/></linearGradient><radialGradient id="aj" cx="0" cy="0" gradientTransform="matrix(2.52116802 -1.14598786 1.39919846 3.07823017 20.0229 11.1286)" gradientUnits="userSpaceOnUse" r="1"><stop offset=".572298" stop-color="#e1a792"/><stop offset=".904617" stop-color="#f6c3a3"/></radialGradient><radialGradient id="ak" cx="0" cy="0" gradientTransform="matrix(1.01016742 .28861934 -.15173841 .53108428 21.0585 8.87911)" gradientUnits="userSpaceOnUse" r="1"><stop offset="0" stop-color="#d59566"/><stop offset="1" stop-color="#d59566" stop-opacity="0"/></radialGradient><radialGradient id="al" cx="0" cy="0" gradientTransform="matrix(1.2393644 -.45839579 .45839579 1.2393644 20.583 10.9248)" gradientUnits="userSpaceOnUse" r="1"><stop offset=".71002" stop-color="#e3a280" stop-opacity="0"/><stop offset="1" stop-color="#e3a280"/></radialGradient><radialGradient id="am" cx="0" cy="0" gradientTransform="matrix(-1.23256 0 0 -1.17902 11.2044 10.6837)" gradientUnits="userSpaceOnUse" r="1"><stop offset=".572999" stop-color="#b0725a" stop-opacity="0"/><stop offset="1" stop-color="#b0725a"/></radialGradient><radialGradient id="an" cx="0" cy="0" gradientTransform="matrix(-6.58748873 3.03771039 -4.0659252 -8.8172449 18.8274 10.1393)" gradientUnits="userSpaceOnUse" r="1"><stop offset="0" stop-color="#ffc59d"/><stop offset="1" stop-color="#d39b88"/></radialGradient><radialGradient id="ao" cx="0" cy="0" gradientTransform="matrix(-2.13695939 1.13031594 -.95899276 -1.81305819 17.856 10.8458)" gradientUnits="userSpaceOnUse" r="1"><stop offset="0" stop-color="#ffc89e"/><stop offset="1" stop-color="#ffc89e" stop-opacity="0"/></radialGradient><radialGradient id="ap" cx="0" cy="0" gradientTransform="matrix(.84772431 -4.09732307 5.1987461 1.07560556 13.7234 17.0094)" gradientUnits="userSpaceOnUse" r="1"><stop offset="0" stop-color="#b97783"/><stop offset="1" stop-color="#b97783" stop-opacity="0"/></radialGradient><radialGradient id="aq" cx="0" cy="0" gradientTransform="matrix(0 7.53347 -10.2121 0 15.9312 9.84839)" gradientUnits="userSpaceOnUse" r="1"><stop offset=".684444" stop-color="#bd8381" stop-opacity="0"/><stop offset="1" stop-color="#a46e69"/></radialGradient><radialGradient id="ar" cx="0" cy="0" gradientTransform="matrix(-5.80634059 .78092075 -1.34449978 -9.99669131 16.5764 12.5038)" gradientUnits="userSpaceOnUse" r="1"><stop offset=".813118" stop-color="#e3ab91" stop-opacity="0"/><stop offset="1" stop-color="#e3ab91"/></radialGradient><radialGradient id="as" cx="0" cy="0" gradientTransform="matrix(0 -1.16562 1.67571 0 18.2622 9.71546)" gradientUnits="userSpaceOnUse" r="1"><stop offset=".258747" stop-color="#e3a48e"/><stop offset="1" stop-color="#e3a48e" stop-opacity="0"/></radialGradient><radialGradient id="at" cx="0" cy="0" gradientTransform="matrix(0 -1.37755 1.57876 0 13.9883 9.80377)" gradientUnits="userSpaceOnUse" r="1"><stop offset="0" stop-color="#c2847a"/><stop offset="1" stop-color="#c2847a" stop-opacity="0"/></radialGradient><radialGradient id="au" cx="0" cy="0" gradientTransform="matrix(-1.36433 0 0 -4.49142 21.0924 11.2222)" gradientUnits="userSpaceOnUse" r="1"><stop offset="0" stop-color="#f4c099"/><stop offset="1" stop-color="#f4c099" stop-opacity="0"/></radialGradient><radialGradient id="av" cx="0" cy="0" gradientTransform="matrix(1.17116715 4.27318269 -8.83032351 2.42015978 13.3989 4.5623)" gradientUnits="userSpaceOnUse" r="1"><stop offset="0" stop-color="#be7c5a"/><stop offset="1" stop-color="#be7c5a" stop-opacity="0"/></radialGradient><radialGradient id="aw" cx="0" cy="0" gradientTransform="matrix(-.70645737 -2.48135277 1.41985592 -.40424227 16.7257 11.9583)" gradientUnits="userSpaceOnUse" r="1"><stop offset=".0168227" stop-color="#fdc9a8"/><stop offset="1" stop-color="#fdc9a8" stop-opacity="0"/></radialGradient><linearGradient id="ax" gradientUnits="userSpaceOnUse" x1="14.8713" x2="15.7367" y1="11.976" y2="12.0819"><stop offset="0" stop-color="#d1987a"/><stop offset="1" stop-color="#d1987a" stop-opacity="0"/></linearGradient><linearGradient id="ay" gradientUnits="userSpaceOnUse" x1="15.9312" x2="15.9312" y1="12.8413" y2="12.2232"><stop offset="0" stop-color="#c57f82"/><stop offset="1" stop-color="#c57f82" stop-opacity="0"/></linearGradient><linearGradient id="az" gradientUnits="userSpaceOnUse" x1="15.1927" x2="15.6511" y1="14.3374" y2="13.4545"><stop offset="0" stop-color="#d8a29e"/><stop offset="1" stop-color="#d8a29e" stop-opacity="0"/></linearGradient><linearGradient id="aA"><stop offset=".80198" stop-color="#925c51"/><stop offset="1" stop-color="#694b43"/><stop offset="1" stop-color="#804d49"/><stop offset="1" stop-color="#85534d"/></linearGradient><radialGradient id="aB" cx="0" cy="0" gradientTransform="matrix(0 .821784 -1.30714 0 18.1414 10.0791)" gradientUnits="userSpaceOnUse" r="1" xlink:href="#aA"/><linearGradient id="aC"><stop offset=".765532" stop-color="#ffe6e2" stop-opacity="0"/><stop offset=".966159" stop-color="#ffe6e2"/></linearGradient><radialGradient id="aD" cx="0" cy="0" gradientTransform="matrix(-.23490916 -.30271213 .41676196 -.32341354 17.9102 10.1642)" gradientUnits="userSpaceOnUse" r="1" xlink:href="#aC"/><linearGradient id="aE"><stop offset="0" stop-color="#b4948d"/><stop offset="1" stop-color="#b4948d" stop-opacity="0"/></linearGradient><linearGradient id="aF" gradientUnits="userSpaceOnUse" x1="18.9292" x2="18.6114" xlink:href="#aE" y1="10.1336" y2="10.3294"/><radialGradient id="aG" cx="0" cy="0" gradientTransform="matrix(0 .821789 -1.30715 0 13.721 10.0789)" gradientUnits="userSpaceOnUse" r="1" xlink:href="#aA"/><linearGradient id="aH" gradientUnits="userSpaceOnUse" x1="14.4744" x2="14.1566" xlink:href="#aE" y1="10.1336" y2="10.3294"/><radialGradient id="aI" cx="0" cy="0" gradientTransform="matrix(-.00783523 -.50043367 .60154227 -.00941828 13.4311 10.3009)" gradientUnits="userSpaceOnUse" r="1" xlink:href="#aC"/><radialGradient id="aJ" cx="0" cy="0" gradientTransform="matrix(1.95982939 2.71641103 -5.39751262 3.89418382 9.89658 4.35455)" gradientUnits="userSpaceOnUse" r="1"><stop offset=".403078" stop-color="#daa88f" stop-opacity="0"/><stop offset="1" stop-color="#daa88f"/></radialGradient><radialGradient id="aK" cx="0" cy="0" gradientTransform="matrix(-1.90157023 2.5126854 -1.97060075 -1.49132706 13.1807 4.59223)" gradientUnits="userSpaceOnUse" r="1"><stop offset="0" stop-color="#fee2a9"/><stop offset="1" stop-color="#fee2a9" stop-opacity="0"/></radialGradient><radialGradient id="aL" cx="0" cy="0" gradientTransform="matrix(-2.13920377 4.44811549 -6.32503174 -3.04185711 17.8668 2.65673)" gradientUnits="userSpaceOnUse" r="1"><stop offset=".595085" stop-color="#f0c6a3" stop-opacity="0"/><stop offset="1" stop-color="#f0c6a3"/></radialGradient><radialGradient id="aM" cx="0" cy="0" gradientTransform="matrix(-.867849 3.2486068 -5.79884424 -1.54913213 18.2743 3.84515)" gradientUnits="userSpaceOnUse" r="1"><stop offset="0" stop-color="#ffffc0"/><stop offset="1" stop-color="#ffffc0" stop-opacity="0"/></radialGradient><radialGradient id="aN" cx="0" cy="0" gradientTransform="matrix(-3.54838574 -6.38357822 5.71421807 -3.17631416 17.2386 9.37984)" gradientUnits="userSpaceOnUse" r="1"><stop offset=".891192" stop-color="#dac493" stop-opacity="0"/><stop offset=".979491" stop-color="#dac493"/></radialGradient><linearGradient id="aO" gradientUnits="userSpaceOnUse" x1="13.0027" x2="13.5545" y1="4.40541" y2="5.69571"><stop offset="0" stop-color="#ebce91"/><stop offset="1" stop-color="#e6bd9f"/></linearGradient><circle cx="10.6738" cy="16.1653" fill="url(#y)" r="4.08594"/><circle cx="10.6738" cy="16.1653" fill="url(#z)" r="4.08594"/><circle cx="8.27539" cy="23.3684" fill="url(#A)" r="6.30469"/><circle fill="url(#B)" r="4.08594" transform="matrix(-1 0 0 1 21.3262 16.1653)"/><circle fill="url(#C)" r="4.08594" transform="matrix(-1 0 0 1 21.3262 16.1653)"/><circle fill="url(#D)" r="6.30469" transform="matrix(-1 0 0 1 23.7246 23.3684)"/><g clip-rule="evenodd" fill-rule="evenodd" filter="url(#a)"><path d="m23.2091 12.1118c.2152-.4408.328-.9328.328-1.4454 0-.4733-.0974-.91746-.272-1.32231h.0054c-.0815-.18332-.1731-.35653-.2849-.51961l-.002-.00317c-.3485-.53303-.5331-1.15832-.5331-1.79386v-.01025c0-1.84511-1.4965-3.3417-3.3417-3.3417-.1845 0-.3587-.082-.4612-.23576-.6048-.84055-1.5992-1.39409-2.7166-1.39409-1.1173 0-2.1116.55354-2.7164 1.39409-.1025.14351-.2767.23576-.4612.23576-.0288 0-.0575.00037-.0862.00109-1.8053.04571-3.25554 1.5243-3.25554 3.34061v.01025c0 .63554-.18452 1.26083-.53304 1.79386l-.00232.00372c-.34704.53222-.5511 1.1562-.5511 1.84137 0 .5228.123 1.0046.32801 1.4454.07176.1435.07176.3177 0 .4612-.20501.4306-.32801.9123-.32801 1.4249 0 1.8041 1.45558 3.2597 3.2597 3.2597h8.6925c1.8041 0 3.2597-1.4556 3.2597-3.2597 0-.5126-.123-.9943-.328-1.4249-.0718-.1435-.0718-.3177 0-.4612zm-12.4184-2.70692h-.0124l1.2141 2.38592c.1249 2.8387 1.2327 0 3.9386 0s3.8859 3.1596 4.0108.321l1.1505-3.23843c-.0544-1.26089-.9681-1.34939-1.1505-1.34939h-3.2616c-1.288 0-2.5033-.63042-3.2304-1.69489-.1246-.17568-.3843-.14468-.4674.05168l-.0831.19636c-.2285.5684-.6647 1.00246-1.2049 1.25049-.0156.00516-.0337.01292-.0519.02067s-.0364.0155-.0519.02067c-.239.12401-.7999.49606-.8206 1.45718l.0104.31004z" fill="url(#E)"/><path d="m23.2091 12.1118c.2152-.4408.328-.9328.328-1.4454 0-.4733-.0974-.91746-.272-1.32231h.0054c-.0815-.18332-.1731-.35653-.2849-.51961l-.002-.00317c-.3485-.53303-.5331-1.15832-.5331-1.79386v-.01025c0-1.84511-1.4965-3.3417-3.3417-3.3417-.1845 0-.3587-.082-.4612-.23576-.6048-.84055-1.5992-1.39409-2.7166-1.39409-1.1173 0-2.1116.55354-2.7164 1.39409-.1025.14351-.2767.23576-.4612.23576-.0288 0-.0575.00037-.0862.00109-1.8053.04571-3.25554 1.5243-3.25554 3.34061v.01025c0 .63554-.18452 1.26083-.53304 1.79386l-.00232.00372c-.34704.53222-.5511 1.1562-.5511 1.84137 0 .5228.123 1.0046.32801 1.4454.07176.1435.07176.3177 0 .4612-.20501.4306-.32801.9123-.32801 1.4249 0 1.8041 1.45558 3.2597 3.2597 3.2597h8.6925c1.8041 0 3.2597-1.4556 3.2597-3.2597 0-.5126-.123-.9943-.328-1.4249-.0718-.1435-.0718-.3177 0-.4612zm-12.4184-2.70692h-.0124l1.2141 2.38592c.1249 2.8387 1.2327 0 3.9386 0s3.8859 3.1596 4.0108.321l1.1505-3.23843c-.0544-1.26089-.9681-1.34939-1.1505-1.34939h-3.2616c-1.288 0-2.5033-.63042-3.2304-1.69489-.1246-.17568-.3843-.14468-.4674.05168l-.0831.19636c-.2285.5684-.6647 1.00246-1.2049 1.25049-.0156.00516-.0337.01292-.0519.02067s-.0364.0155-.0519.02067c-.239.12401-.7999.49606-.8206 1.45718l.0104.31004z" fill="url(#F)"/><path d="m23.2091 12.1118c.2152-.4408.328-.9328.328-1.4454 0-.4733-.0974-.91746-.272-1.32231h.0054c-.0815-.18332-.1731-.35653-.2849-.51961l-.002-.00317c-.3485-.53303-.5331-1.15832-.5331-1.79386v-.01025c0-1.84511-1.4965-3.3417-3.3417-3.3417-.1845 0-.3587-.082-.4612-.23576-.6048-.84055-1.5992-1.39409-2.7166-1.39409-1.1173 0-2.1116.55354-2.7164 1.39409-.1025.14351-.2767.23576-.4612.23576-.0288 0-.0575.00037-.0862.00109-1.8053.04571-3.25554 1.5243-3.25554 3.34061v.01025c0 .63554-.18452 1.26083-.53304 1.79386l-.00232.00372c-.34704.53222-.5511 1.1562-.5511 1.84137 0 .5228.123 1.0046.32801 1.4454.07176.1435.07176.3177 0 .4612-.20501.4306-.32801.9123-.32801 1.4249 0 1.8041 1.45558 3.2597 3.2597 3.2597h8.6925c1.8041 0 3.2597-1.4556 3.2597-3.2597 0-.5126-.123-.9943-.328-1.4249-.0718-.1435-.0718-.3177 0-.4612zm-12.4184-2.70692h-.0124l1.2141 2.38592c.1249 2.8387 1.2327 0 3.9386 0s3.8859 3.1596 4.0108.321l1.1505-3.23843c-.0544-1.26089-.9681-1.34939-1.1505-1.34939h-3.2616c-1.288 0-2.5033-.63042-3.2304-1.69489-.1246-.17568-.3843-.14468-.4674.05168l-.0831.19636c-.2285.5684-.6647 1.00246-1.2049 1.25049-.0156.00516-.0337.01292-.0519.02067s-.0364.0155-.0519.02067c-.239.12401-.7999.49606-.8206 1.45718l.0104.31004z" fill="url(#G)"/><path d="m23.2091 12.1118c.2152-.4408.328-.9328.328-1.4454 0-.4733-.0974-.91746-.272-1.32231h.0054c-.0815-.18332-.1731-.35653-.2849-.51961l-.002-.00317c-.3485-.53303-.5331-1.15832-.5331-1.79386v-.01025c0-1.84511-1.4965-3.3417-3.3417-3.3417-.1845 0-.3587-.082-.4612-.23576-.6048-.84055-1.5992-1.39409-2.7166-1.39409-1.1173 0-2.1116.55354-2.7164 1.39409-.1025.14351-.2767.23576-.4612.23576-.0288 0-.0575.00037-.0862.00109-1.8053.04571-3.25554 1.5243-3.25554 3.34061v.01025c0 .63554-.18452 1.26083-.53304 1.79386l-.00232.00372c-.34704.53222-.5511 1.1562-.5511 1.84137 0 .5228.123 1.0046.32801 1.4454.07176.1435.07176.3177 0 .4612-.20501.4306-.32801.9123-.32801 1.4249 0 1.8041 1.45558 3.2597 3.2597 3.2597h8.6925c1.8041 0 3.2597-1.4556 3.2597-3.2597 0-.5126-.123-.9943-.328-1.4249-.0718-.1435-.0718-.3177 0-.4612zm-12.4184-2.70692h-.0124l1.2141 2.38592c.1249 2.8387 1.2327 0 3.9386 0s3.8859 3.1596 4.0108.321l1.1505-3.23843c-.0544-1.26089-.9681-1.34939-1.1505-1.34939h-3.2616c-1.288 0-2.5033-.63042-3.2304-1.69489-.1246-.17568-.3843-.14468-.4674.05168l-.0831.19636c-.2285.5684-.6647 1.00246-1.2049 1.25049-.0156.00516-.0337.01292-.0519.02067s-.0364.0155-.0519.02067c-.239.12401-.7999.49606-.8206 1.45718l.0104.31004z" fill="url(#H)"/><path d="m23.2091 12.1118c.2152-.4408.328-.9328.328-1.4454 0-.4733-.0974-.91746-.272-1.32231h.0054c-.0815-.18332-.1731-.35653-.2849-.51961l-.002-.00317c-.3485-.53303-.5331-1.15832-.5331-1.79386v-.01025c0-1.84511-1.4965-3.3417-3.3417-3.3417-.1845 0-.3587-.082-.4612-.23576-.6048-.84055-1.5992-1.39409-2.7166-1.39409-1.1173 0-2.1116.55354-2.7164 1.39409-.1025.14351-.2767.23576-.4612.23576-.0288 0-.0575.00037-.0862.00109-1.8053.04571-3.25554 1.5243-3.25554 3.34061v.01025c0 .63554-.18452 1.26083-.53304 1.79386l-.00232.00372c-.34704.53222-.5511 1.1562-.5511 1.84137 0 .5228.123 1.0046.32801 1.4454.07176.1435.07176.3177 0 .4612-.20501.4306-.32801.9123-.32801 1.4249 0 1.8041 1.45558 3.2597 3.2597 3.2597h8.6925c1.8041 0 3.2597-1.4556 3.2597-3.2597 0-.5126-.123-.9943-.328-1.4249-.0718-.1435-.0718-.3177 0-.4612zm-12.4184-2.70692h-.0124l1.2141 2.38592c.1249 2.8387 1.2327 0 3.9386 0s3.8859 3.1596 4.0108.321l1.1505-3.23843c-.0544-1.26089-.9681-1.34939-1.1505-1.34939h-3.2616c-1.288 0-2.5033-.63042-3.2304-1.69489-.1246-.17568-.3843-.14468-.4674.05168l-.0831.19636c-.2285.5684-.6647 1.00246-1.2049 1.25049-.0156.00516-.0337.01292-.0519.02067s-.0364.0155-.0519.02067c-.239.12401-.7999.49606-.8206 1.45718l.0104.31004z" fill="url(#I)"/><path d="m23.2091 12.1118c.2152-.4408.328-.9328.328-1.4454 0-.4733-.0974-.91746-.272-1.32231h.0054c-.0815-.18332-.1731-.35653-.2849-.51961l-.002-.00317c-.3485-.53303-.5331-1.15832-.5331-1.79386v-.01025c0-1.84511-1.4965-3.3417-3.3417-3.3417-.1845 0-.3587-.082-.4612-.23576-.6048-.84055-1.5992-1.39409-2.7166-1.39409-1.1173 0-2.1116.55354-2.7164 1.39409-.1025.14351-.2767.23576-.4612.23576-.0288 0-.0575.00037-.0862.00109-1.8053.04571-3.25554 1.5243-3.25554 3.34061v.01025c0 .63554-.18452 1.26083-.53304 1.79386l-.00232.00372c-.34704.53222-.5511 1.1562-.5511 1.84137 0 .5228.123 1.0046.32801 1.4454.07176.1435.07176.3177 0 .4612-.20501.4306-.32801.9123-.32801 1.4249 0 1.8041 1.45558 3.2597 3.2597 3.2597h8.6925c1.8041 0 3.2597-1.4556 3.2597-3.2597 0-.5126-.123-.9943-.328-1.4249-.0718-.1435-.0718-.3177 0-.4612zm-12.4184-2.70692h-.0124l1.2141 2.38592c.1249 2.8387 1.2327 0 3.9386 0s3.8859 3.1596 4.0108.321l1.1505-3.23843c-.0544-1.26089-.9681-1.34939-1.1505-1.34939h-3.2616c-1.288 0-2.5033-.63042-3.2304-1.69489-.1246-.17568-.3843-.14468-.4674.05168l-.0831.19636c-.2285.5684-.6647 1.00246-1.2049 1.25049-.0156.00516-.0337.01292-.0519.02067s-.0364.0155-.0519.02067c-.239.12401-.7999.49606-.8206 1.45718l.0104.31004z" fill="url(#J)"/><path d="m23.2091 12.1118c.2152-.4408.328-.9328.328-1.4454 0-.4733-.0974-.91746-.272-1.32231h.0054c-.0815-.18332-.1731-.35653-.2849-.51961l-.002-.00317c-.3485-.53303-.5331-1.15832-.5331-1.79386v-.01025c0-1.84511-1.4965-3.3417-3.3417-3.3417-.1845 0-.3587-.082-.4612-.23576-.6048-.84055-1.5992-1.39409-2.7166-1.39409-1.1173 0-2.1116.55354-2.7164 1.39409-.1025.14351-.2767.23576-.4612.23576-.0288 0-.0575.00037-.0862.00109-1.8053.04571-3.25554 1.5243-3.25554 3.34061v.01025c0 .63554-.18452 1.26083-.53304 1.79386l-.00232.00372c-.34704.53222-.5511 1.1562-.5511 1.84137 0 .5228.123 1.0046.32801 1.4454.07176.1435.07176.3177 0 .4612-.20501.4306-.32801.9123-.32801 1.4249 0 1.8041 1.45558 3.2597 3.2597 3.2597h8.6925c1.8041 0 3.2597-1.4556 3.2597-3.2597 0-.5126-.123-.9943-.328-1.4249-.0718-.1435-.0718-.3177 0-.4612zm-12.4184-2.70692h-.0124l1.2141 2.38592c.1249 2.8387 1.2327 0 3.9386 0s3.8859 3.1596 4.0108.321l1.1505-3.23843c-.0544-1.26089-.9681-1.34939-1.1505-1.34939h-3.2616c-1.288 0-2.5033-.63042-3.2304-1.69489-.1246-.17568-.3843-.14468-.4674.05168l-.0831.19636c-.2285.5684-.6647 1.00246-1.2049 1.25049-.0156.00516-.0337.01292-.0519.02067s-.0364.0155-.0519.02067c-.239.12401-.7999.49606-.8206 1.45718l.0104.31004z" fill="url(#K)"/><path d="m23.2091 12.1118c.2152-.4408.328-.9328.328-1.4454 0-.4733-.0974-.91746-.272-1.32231h.0054c-.0815-.18332-.1731-.35653-.2849-.51961l-.002-.00317c-.3485-.53303-.5331-1.15832-.5331-1.79386v-.01025c0-1.84511-1.4965-3.3417-3.3417-3.3417-.1845 0-.3587-.082-.4612-.23576-.6048-.84055-1.5992-1.39409-2.7166-1.39409-1.1173 0-2.1116.55354-2.7164 1.39409-.1025.14351-.2767.23576-.4612.23576-.0288 0-.0575.00037-.0862.00109-1.8053.04571-3.25554 1.5243-3.25554 3.34061v.01025c0 .63554-.18452 1.26083-.53304 1.79386l-.00232.00372c-.34704.53222-.5511 1.1562-.5511 1.84137 0 .5228.123 1.0046.32801 1.4454.07176.1435.07176.3177 0 .4612-.20501.4306-.32801.9123-.32801 1.4249 0 1.8041 1.45558 3.2597 3.2597 3.2597h8.6925c1.8041 0 3.2597-1.4556 3.2597-3.2597 0-.5126-.123-.9943-.328-1.4249-.0718-.1435-.0718-.3177 0-.4612zm-12.4184-2.70692h-.0124l1.2141 2.38592c.1249 2.8387 1.2327 0 3.9386 0s3.8859 3.1596 4.0108.321l1.1505-3.23843c-.0544-1.26089-.9681-1.34939-1.1505-1.34939h-3.2616c-1.288 0-2.5033-.63042-3.2304-1.69489-.1246-.17568-.3843-.14468-.4674.05168l-.0831.19636c-.2285.5684-.6647 1.00246-1.2049 1.25049-.0156.00516-.0337.01292-.0519.02067s-.0364.0155-.0519.02067c-.239.12401-.7999.49606-.8206 1.45718l.0104.31004z" fill="url(#L)"/><path d="m23.2091 12.1118c.2152-.4408.328-.9328.328-1.4454 0-.4733-.0974-.91746-.272-1.32231h.0054c-.0815-.18332-.1731-.35653-.2849-.51961l-.002-.00317c-.3485-.53303-.5331-1.15832-.5331-1.79386v-.01025c0-1.84511-1.4965-3.3417-3.3417-3.3417-.1845 0-.3587-.082-.4612-.23576-.6048-.84055-1.5992-1.39409-2.7166-1.39409-1.1173 0-2.1116.55354-2.7164 1.39409-.1025.14351-.2767.23576-.4612.23576-.0288 0-.0575.00037-.0862.00109-1.8053.04571-3.25554 1.5243-3.25554 3.34061v.01025c0 .63554-.18452 1.26083-.53304 1.79386l-.00232.00372c-.34704.53222-.5511 1.1562-.5511 1.84137 0 .5228.123 1.0046.32801 1.4454.07176.1435.07176.3177 0 .4612-.20501.4306-.32801.9123-.32801 1.4249 0 1.8041 1.45558 3.2597 3.2597 3.2597h8.6925c1.8041 0 3.2597-1.4556 3.2597-3.2597 0-.5126-.123-.9943-.328-1.4249-.0718-.1435-.0718-.3177 0-.4612zm-12.4184-2.70692h-.0124l1.2141 2.38592c.1249 2.8387 1.2327 0 3.9386 0s3.8859 3.1596 4.0108.321l1.1505-3.23843c-.0544-1.26089-.9681-1.34939-1.1505-1.34939h-3.2616c-1.288 0-2.5033-.63042-3.2304-1.69489-.1246-.17568-.3843-.14468-.4674.05168l-.0831.19636c-.2285.5684-.6647 1.00246-1.2049 1.25049-.0156.00516-.0337.01292-.0519.02067s-.0364.0155-.0519.02067c-.239.12401-.7999.49606-.8206 1.45718l.0104.31004z" fill="url(#M)"/><path d="m23.2091 12.1118c.2152-.4408.328-.9328.328-1.4454 0-.4733-.0974-.91746-.272-1.32231h.0054c-.0815-.18332-.1731-.35653-.2849-.51961l-.002-.00317c-.3485-.53303-.5331-1.15832-.5331-1.79386v-.01025c0-1.84511-1.4965-3.3417-3.3417-3.3417-.1845 0-.3587-.082-.4612-.23576-.6048-.84055-1.5992-1.39409-2.7166-1.39409-1.1173 0-2.1116.55354-2.7164 1.39409-.1025.14351-.2767.23576-.4612.23576-.0288 0-.0575.00037-.0862.00109-1.8053.04571-3.25554 1.5243-3.25554 3.34061v.01025c0 .63554-.18452 1.26083-.53304 1.79386l-.00232.00372c-.34704.53222-.5511 1.1562-.5511 1.84137 0 .5228.123 1.0046.32801 1.4454.07176.1435.07176.3177 0 .4612-.20501.4306-.32801.9123-.32801 1.4249 0 1.8041 1.45558 3.2597 3.2597 3.2597h8.6925c1.8041 0 3.2597-1.4556 3.2597-3.2597 0-.5126-.123-.9943-.328-1.4249-.0718-.1435-.0718-.3177 0-.4612zm-12.4184-2.70692h-.0124l1.2141 2.38592c.1249 2.8387 1.2327 0 3.9386 0s3.8859 3.1596 4.0108.321l1.1505-3.23843c-.0544-1.26089-.9681-1.34939-1.1505-1.34939h-3.2616c-1.288 0-2.5033-.63042-3.2304-1.69489-.1246-.17568-.3843-.14468-.4674.05168l-.0831.19636c-.2285.5684-.6647 1.00246-1.2049 1.25049-.0156.00516-.0337.01292-.0519.02067s-.0364.0155-.0519.02067c-.239.12401-.7999.49606-.8206 1.45718l.0104.31004z" fill="url(#N)"/></g><path d="m26.9473 29.9387c0-7.9609-4.6172-9.875-5.375-10.3828l-5.0469 10.3828z" fill="url(#O)"/><path d="m26.9473 29.9387c0-7.9609-4.6172-9.875-5.375-10.3828l-5.0469 10.3828z" fill="url(#P)"/><path d="m26.9473 29.9387c0-7.9609-4.6172-9.875-5.375-10.3828l-5.0469 10.3828z" fill="url(#Q)"/><path d="m5.0957 29.9387c0-7.9609 4.61719-9.875 5.375-10.3828l5.0469 10.3828z" fill="url(#R)"/><path d="m5.0957 29.9387c0-7.9609 4.61719-9.875 5.375-10.3828l5.0469 10.3828z" fill="url(#S)"/><path d="m9.90021 17.3528c.64079-1.3125 1.82049-1.75 2.59389-1.75h2.609v2.875h-2.4687c-.1688.3031-.0026.8502.1015 1.0859l4.3168 10.3906h-3.1757c-1.0677-2.5833-3.2924-7.8171-3.6799-8.7421-.42038-1.0039-.89048-2.4766-.29689-3.8594z" fill="#795cc2"/><path d="m9.90021 17.3528c.64079-1.3125 1.82049-1.75 2.59389-1.75h2.609v2.875h-2.4687c-.1688.3031-.0026.8502.1015 1.0859l4.3168 10.3906h-3.1757c-1.0677-2.5833-3.2924-7.8171-3.6799-8.7421-.42038-1.0039-.89048-2.4766-.29689-3.8594z" fill="url(#T)"/><path d="m9.90021 17.3528c.64079-1.3125 1.82049-1.75 2.59389-1.75h2.609v2.875h-2.4687c-.1688.3031-.0026.8502.1015 1.0859l4.3168 10.3906h-3.1757c-1.0677-2.5833-3.2924-7.8171-3.6799-8.7421-.42038-1.0039-.89048-2.4766-.29689-3.8594z" fill="url(#U)"/><path d="m9.90021 17.3528c.64079-1.3125 1.82049-1.75 2.59389-1.75h2.609v2.875h-2.4687c-.1688.3031-.0026.8502.1015 1.0859l4.3168 10.3906h-3.1757c-1.0677-2.5833-3.2924-7.8171-3.6799-8.7421-.42038-1.0039-.89048-2.4766-.29689-3.8594z" fill="url(#V)"/><path d="m9.90021 17.3528c.64079-1.3125 1.82049-1.75 2.59389-1.75h2.609v2.875h-2.4687c-.1688.3031-.0026.8502.1015 1.0859l4.3168 10.3906h-3.1757c-1.0677-2.5833-3.2924-7.8171-3.6799-8.7421-.42038-1.0039-.89048-2.4766-.29689-3.8594z" fill="url(#W)"/><path d="m9.90021 17.3528c.64079-1.3125 1.82049-1.75 2.59389-1.75h2.609v2.875h-2.4687c-.1688.3031-.0026.8502.1015 1.0859l4.3168 10.3906h-3.1757c-1.0677-2.5833-3.2924-7.8171-3.6799-8.7421-.42038-1.0039-.89048-2.4766-.29689-3.8594z" fill="url(#X)"/><path d="m9.90021 17.3528c.64079-1.3125 1.82049-1.75 2.59389-1.75h2.609v2.875h-2.4687c-.1688.3031-.0026.8502.1015 1.0859l4.3168 10.3906h-3.1757c-1.0677-2.5833-3.2924-7.8171-3.6799-8.7421-.42038-1.0039-.89048-2.4766-.29689-3.8594z" fill="url(#Y)"/><path d="m21.8193 17.3528c-.6408-1.3125-1.8205-1.75-2.5939-1.75h-2.6091l.0001 2.875h2.4687c.1688.3031.0026.8502-.1016 1.0859l-3.9386 10.3906h3.1758c1.0677-2.5833 2.9953-7.8171 3.3828-8.7421.4204-1.0039.8094-2.4766.2158-3.8594z" fill="#7a60bc"/><path d="m21.8193 17.3528c-.6408-1.3125-1.8205-1.75-2.5939-1.75h-2.6091l.0001 2.875h2.4687c.1688.3031.0026.8502-.1016 1.0859l-3.9386 10.3906h3.1758c1.0677-2.5833 2.9953-7.8171 3.3828-8.7421.4204-1.0039.8094-2.4766.2158-3.8594z" fill="url(#Z)"/><path d="m21.8193 17.3528c-.6408-1.3125-1.8205-1.75-2.5939-1.75h-2.6091l.0001 2.875h2.4687c.1688.3031.0026.8502-.1016 1.0859l-3.9386 10.3906h3.1758c1.0677-2.5833 2.9953-7.8171 3.3828-8.7421.4204-1.0039.8094-2.4766.2158-3.8594z" fill="url(#aa)"/><path d="m21.8193 17.3528c-.6408-1.3125-1.8205-1.75-2.5939-1.75h-2.6091l.0001 2.875h2.4687c.1688.3031.0026.8502-.1016 1.0859l-3.9386 10.3906h3.1758c1.0677-2.5833 2.9953-7.8171 3.3828-8.7421.4204-1.0039.8094-2.4766.2158-3.8594z" fill="url(#ab)"/><g filter="url(#b)"><path d="m14.0097 15.4153h4v1.9889c.0107.1747.0452.3737.1524.5306.1418.2077.3047.2852.4453.332l.4648.1641c.0756.0677.2204.4781.0392.9844-.1808.5049-2.0427 5.51-3.0938 8.0192v.0198c-.0014-.0033-.0029-.0066-.0042-.0099-.0013.0033-.0028.0067-.0041.0099v-.0197c-1.0522-2.5093-3.1859-7.5144-3.3667-8.0193-.1813-.5063-.0755-.8698 0-.9375l.6796-.1914c.2188-.0625.3739-.14.5157-.3477.1129-.1652.1582-.3892.1718-.5721z" fill="url(#ac)"/><path d="m14.0097 15.4153h4v1.9889c.0107.1747.0452.3737.1524.5306.1418.2077.3047.2852.4453.332l.4648.1641c.0756.0677.2204.4781.0392.9844-.1808.5049-2.0427 5.51-3.0938 8.0192v.0198c-.0014-.0033-.0029-.0066-.0042-.0099-.0013.0033-.0028.0067-.0041.0099v-.0197c-1.0522-2.5093-3.1859-7.5144-3.3667-8.0193-.1813-.5063-.0755-.8698 0-.9375l.6796-.1914c.2188-.0625.3739-.14.5157-.3477.1129-.1652.1582-.3892.1718-.5721z" fill="url(#ad)"/><path d="m14.0097 15.4153h4v1.9889c.0107.1747.0452.3737.1524.5306.1418.2077.3047.2852.4453.332l.4648.1641c.0756.0677.2204.4781.0392.9844-.1808.5049-2.0427 5.51-3.0938 8.0192v.0198c-.0014-.0033-.0029-.0066-.0042-.0099-.0013.0033-.0028.0067-.0041.0099v-.0197c-1.0522-2.5093-3.1859-7.5144-3.3667-8.0193-.1813-.5063-.0755-.8698 0-.9375l.6796-.1914c.2188-.0625.3739-.14.5157-.3477.1129-.1652.1582-.3892.1718-.5721z" fill="url(#ae)"/></g><path d="m1.9707 24.0168h3.29688c3.27919 0 5.93752 2.6584 5.93752 5.9375h-9.2344z" fill="#e8d6ff" opacity=".5"/><path d="m30.0293 24.0168h-3.2969c-3.2792 0-5.9375 2.6584-5.9375 5.9375h9.2344z" fill="#e8d6ff" opacity=".5"/><g filter="url(#c)"><path d="m16.1445 18.3376c.19.0272.7109.0326 1.2754-.1628" stroke="#e7b39a" stroke-linecap="round" stroke-width=".6"/></g><path d="m16.2893 15.531c.2524.0101.5149.0303.7774.0505-.2625-.0202-.5149-.0404-.7774-.0505z" fill="url(#ag)"/><path d="m15.9562 15.531c-.0101 0-.0202 0-.0404 0 .1009 0 .1918 0 .2928.0101-.0808-.0101-.1717-.0101-.2524-.0101z" fill="url(#ah)"/><g filter="url(#d)"><path d="m11.1853 12.3137c.9001 0 1.6298-.7298 1.6298-1.6299 0-.90014-.7297-1.62984-1.6298-1.62984-.9002 0-1.62988.7297-1.62988 1.62984 0 .9001.72968 1.6299 1.62988 1.6299z" fill="url(#ai)"/></g><g filter="url(#e)"><path d="m20.8208 12.3137c.9001 0 1.6298-.7298 1.6298-1.6299 0-.90014-.7297-1.62984-1.6298-1.62984-.9002 0-1.6299.7297-1.6299 1.62984 0 .9001.7297 1.6299 1.6299 1.6299z" fill="url(#aj)"/><path d="m20.8208 12.3137c.9001 0 1.6298-.7298 1.6298-1.6299 0-.90014-.7297-1.62984-1.6298-1.62984-.9002 0-1.6299.7297-1.6299 1.62984 0 .9001.7297 1.6299 1.6299 1.6299z" fill="url(#ak)"/></g><g filter="url(#f)"><path d="m20.8206 11.7716c.6009 0 1.088-.4871 1.088-1.0879 0-.6009-.4871-1.088-1.088-1.088-.6008 0-1.0879.4871-1.0879 1.088 0 .6008.4871 1.0879 1.0879 1.0879z" fill="#e5aa8b"/><path d="m20.8206 11.7716c.6009 0 1.088-.4871 1.088-1.0879 0-.6009-.4871-1.088-1.088-1.088-.6008 0-1.0879.4871-1.0879 1.088 0 .6008.4871 1.0879 1.0879 1.0879z" fill="url(#al)"/></g><g filter="url(#g)"><path d="m11.2044 11.7716c.6009 0 1.088-.4871 1.088-1.0879 0-.6009-.4871-1.088-1.088-1.088-.6008 0-1.0879.4871-1.0879 1.088 0 .6008.4871 1.0879 1.0879 1.0879z" fill="#b47a6c"/><path d="m11.2044 11.7716c.6009 0 1.088-.4871 1.088-1.0879 0-.6009-.4871-1.088-1.088-1.088-.6008 0-1.0879.4871-1.0879 1.088 0 .6008.4871 1.0879 1.0879 1.0879z" fill="url(#am)"/></g><g filter="url(#h)"><path d="m10.7804 9.1361-.0104-.31004c.0208-.96112.5817-1.33316.8206-1.45718.0156-.00517.0338-.01292.0519-.02067.0182-.00775.0364-.0155.052-.02067.5401-.24803.9764-.68208 1.2049-1.25049l.0831-.19636c.0831-.19636.3428-.22736.4674-.05167.7271 1.06447 1.9424 1.69488 3.2304 1.69488h3.2616c.1823 0 1.0961.0885 1.1505 1.3494l-.1203 3.1127c-.1249 2.8387-2.3416 4.7448-5.0475 4.7448s-4.9227-1.9061-5.0476-4.7448z" fill="url(#an)"/><path d="m10.7804 9.1361-.0104-.31004c.0208-.96112.5817-1.33316.8206-1.45718.0156-.00517.0338-.01292.0519-.02067.0182-.00775.0364-.0155.052-.02067.5401-.24803.9764-.68208 1.2049-1.25049l.0831-.19636c.0831-.19636.3428-.22736.4674-.05167.7271 1.06447 1.9424 1.69488 3.2304 1.69488h3.2616c.1823 0 1.0961.0885 1.1505 1.3494l-.1203 3.1127c-.1249 2.8387-2.3416 4.7448-5.0475 4.7448s-4.9227-1.9061-5.0476-4.7448z" fill="url(#ao)"/><path d="m10.7804 9.1361-.0104-.31004c.0208-.96112.5817-1.33316.8206-1.45718.0156-.00517.0338-.01292.0519-.02067.0182-.00775.0364-.0155.052-.02067.5401-.24803.9764-.68208 1.2049-1.25049l.0831-.19636c.0831-.19636.3428-.22736.4674-.05167.7271 1.06447 1.9424 1.69488 3.2304 1.69488h3.2616c.1823 0 1.0961.0885 1.1505 1.3494l-.1203 3.1127c-.1249 2.8387-2.3416 4.7448-5.0475 4.7448s-4.9227-1.9061-5.0476-4.7448z" fill="url(#ap)"/><path d="m10.7804 9.1361-.0104-.31004c.0208-.96112.5817-1.33316.8206-1.45718.0156-.00517.0338-.01292.0519-.02067.0182-.00775.0364-.0155.052-.02067.5401-.24803.9764-.68208 1.2049-1.25049l.0831-.19636c.0831-.19636.3428-.22736.4674-.05167.7271 1.06447 1.9424 1.69488 3.2304 1.69488h3.2616c.1823 0 1.0961.0885 1.1505 1.3494l-.1203 3.1127c-.1249 2.8387-2.3416 4.7448-5.0475 4.7448s-4.9227-1.9061-5.0476-4.7448z" fill="url(#aq)"/><path d="m10.7804 9.1361-.0104-.31004c.0208-.96112.5817-1.33316.8206-1.45718.0156-.00517.0338-.01292.0519-.02067.0182-.00775.0364-.0155.052-.02067.5401-.24803.9764-.68208 1.2049-1.25049l.0831-.19636c.0831-.19636.3428-.22736.4674-.05167.7271 1.06447 1.9424 1.69488 3.2304 1.69488h3.2616c.1823 0 1.0961.0885 1.1505 1.3494l-.1203 3.1127c-.1249 2.8387-2.3416 4.7448-5.0475 4.7448s-4.9227-1.9061-5.0476-4.7448z" fill="url(#ar)"/><path d="m10.7804 9.1361-.0104-.31004c.0208-.96112.5817-1.33316.8206-1.45718.0156-.00517.0338-.01292.0519-.02067.0182-.00775.0364-.0155.052-.02067.5401-.24803.9764-.68208 1.2049-1.25049l.0831-.19636c.0831-.19636.3428-.22736.4674-.05167.7271 1.06447 1.9424 1.69488 3.2304 1.69488h3.2616c.1823 0 1.0961.0885 1.1505 1.3494l-.1203 3.1127c-.1249 2.8387-2.3416 4.7448-5.0475 4.7448s-4.9227-1.9061-5.0476-4.7448z" fill="url(#as)"/><path d="m10.7804 9.1361-.0104-.31004c.0208-.96112.5817-1.33316.8206-1.45718.0156-.00517.0338-.01292.0519-.02067.0182-.00775.0364-.0155.052-.02067.5401-.24803.9764-.68208 1.2049-1.25049l.0831-.19636c.0831-.19636.3428-.22736.4674-.05167.7271 1.06447 1.9424 1.69488 3.2304 1.69488h3.2616c.1823 0 1.0961.0885 1.1505 1.3494l-.1203 3.1127c-.1249 2.8387-2.3416 4.7448-5.0475 4.7448s-4.9227-1.9061-5.0476-4.7448z" fill="url(#at)"/></g><path d="m10.7783 9.4048h.0125l-.0104-.2687-.0104-.31004c.0208-.96112.5817-1.33316.8206-1.45718.0156-.00517.0338-.01292.0519-.02067.0182-.00775.0364-.0155.052-.02067.5401-.24803.9764-.68208 1.2049-1.25049l.0831-.19636c.0831-.19636.3428-.22736.4674-.05167.7271 1.06447 1.9424 1.69488 3.2304 1.69488h3.2616c.1823 0 1.0961.0885 1.1505 1.3494l-.1203 3.1127c-.1249 2.8387-2.3416 4.7448-5.0475 4.7448s-4.9227-1.9061-5.0476-4.7448z" fill="url(#au)"/><path d="m10.7783 9.4048h.0125l-.0104-.2687-.0104-.31004c.0208-.96112.5817-1.33316.8206-1.45718.0156-.00517.0338-.01292.0519-.02067.0182-.00775.0364-.0155.052-.02067.5401-.24803.9764-.68208 1.2049-1.25049l.0831-.19636c.0831-.19636.3428-.22736.4674-.05167.7271 1.06447 1.9424 1.69488 3.2304 1.69488h3.2616c.1823 0 1.0961.0885 1.1505 1.3494l-.1203 3.1127c-.1249 2.8387-2.3416 4.7448-5.0475 4.7448s-4.9227-1.9061-5.0476-4.7448z" fill="url(#av)"/><g filter="url(#i)"><path d="m15.5337 10.4582-.6924 1.7219c-.1099.3542.1538.7084.5274.7084h.7965c.3735 0 .6372-.3596.5273-.7084l-.5383-1.7219c-.1154-.3814-.4996-.3814-.6205 0z" fill="#c28178"/></g><g filter="url(#j)"><path d="m15.5439 10.3178-.5383 1.722c-.1098.3542.1538.7084.5274.7084h.7965c.3735 0 .6372-.3597.5273-.7084l-.5383-1.722c-.1154-.38142-.6537-.38142-.7746 0z" fill="#efb696"/><path d="m15.5439 10.3178-.5383 1.722c-.1098.3542.1538.7084.5274.7084h.7965c.3735 0 .6372-.3597.5273-.7084l-.5383-1.722c-.1154-.38142-.6537-.38142-.7746 0z" fill="url(#aw)"/><path d="m15.5439 10.3178-.5383 1.722c-.1098.3542.1538.7084.5274.7084h.7965c.3735 0 .6372-.3597.5273-.7084l-.5383-1.722c-.1154-.38142-.6537-.38142-.7746 0z" fill="url(#ax)"/><path d="m15.5439 10.3178-.5383 1.722c-.1098.3542.1538.7084.5274.7084h.7965c.3735 0 .6372-.3597.5273-.7084l-.5383-1.722c-.1154-.38142-.6537-.38142-.7746 0z" fill="url(#ay)"/></g><g filter="url(#k)"><path d="m15.9312 13.6329c-.5275 0-1.0233-.127-1.44-.3491-.1424-.0741-.2953.0899-.2057.2221.3481.5396.9547.8994 1.6457.8994.6909 0 1.2975-.3598 1.6456-.8994.0897-.1375-.0633-.2962-.2057-.2221-.4167.2221-.9072.3491-1.4399.3491z" stroke="url(#az)" stroke-width=".2"/></g><path d="m15.9312 13.6329c-.5275 0-1.0233-.127-1.44-.3491-.1424-.0741-.2953.0899-.2057.2221.3481.5396.9547.8994 1.6457.8994.6909 0 1.2975-.3598 1.6456-.8994.0897-.1375-.0633-.2962-.2057-.2221-.4167.2221-.9072.3491-1.4399.3491z" fill="#88014e"/><g filter="url(#l)"><path d="m17.088 10.1073c.2688-.47284.6775-.84631 1.5572-.84631.3851 0 .7565.1067 1.0866.37347.2723.22004.2359.50154.025.60704l-.5632.3215c-.6603-.2134-1.3903-.2423-2.1056-.4557z" fill="#635d5f"/></g><g filter="url(#m)"><path d="m14.7746 10.1073c-.2689-.47284-.6776-.84631-1.5572-.84631-.3852 0-.7566.1067-1.0867.37347-.2723.22004-.2358.50154-.025.60704l.5633.3215c.6602-.2134 1.3903-.2423 2.1056-.4557z" fill="#635d5f"/></g><g filter="url(#n)"><path d="m12.4898 8.88298-.0044.00256c-.0002.00008-.0003.00017-.0004.00025-.1286.07673-.2952.03503-.3723-.09342-.0772-.12865-.0353-.2956.0933-.37279l.0006-.00035.001-.00062.003-.00176.0096-.00551c.0079-.00453.0189-.01071.0328-.01826.0279-.01509.0675-.0357.1175-.05954.0998-.04757.2421-.10849.4154-.16382.3443-.10987.8257-.2023 1.3454-.11059.1478.02607.2464.16698.2203.31472-.026.14774-.1669.24637-.3147.2203-.4039-.07128-.7917-.00072-1.0858.09314-.1458.04653-.265.09766-.3468.13668-.0409.01946-.0721.03577-.0925.04678-.0101.0055-.0175.00967-.022.01223z" fill="#9f6836"/></g><g filter="url(#o)"><path clip-rule="evenodd" d="m19.7108 8.41958c.0001.00005.0002.0001-.1396.23303l.1396-.23303c.1287.07719.1705.24414.0934.37279-.0771.12847-.2436.17024-.3722.09348-.0001-.00005-.0003-.00014-.0005-.00028l-.0045-.00259c-.0045-.00256-.0119-.00673-.022-.01223-.0203-.01101-.0516-.02732-.0924-.04678-.0819-.03902-.2011-.09015-.3469-.13668-.2941-.09386-.6819-.16442-1.0858-.09314-.1477.02607-.2886-.07256-.3147-.2203s.0726-.28865.2203-.31472c.5197-.09171 1.0011.00072 1.3454.11059.1734.05533.3156.11625.4154.16382.05.02384.0897.04445.1175.05954.014.00755.025.01373.0329.01826l.0095.00551.003.00176.001.00062z" fill="#9f6836" fill-rule="evenodd"/></g><path d="m18.353 9.32056c.6615 0 1.2203.45609 1.3723 1.07244.0452.1767-.0903.3451-.2711.3451h-2.2599c-.1439 0-.2589-.1315-.2301-.2753.1273-.64917.6985-1.14224 1.3888-1.14224z" fill="#fff"/><path d="m18.1434 9.59595c.5013 0 .904.40675.904.90395 0 .0822-.0123.1644-.0329.2383h-1.7463c-.0205-.078-.0328-.1561-.0328-.2383 0-.4972.4067-.90395.908-.90395z" fill="url(#aB)"/><path d="m17.6257 10.4999c0-.2876.2301-.51772.5178-.51772.2876 0 .5177.23012.5177.51772 0 .0863-.0206.1685-.0575.2383h-.9163c-.0411-.0698-.0617-.152-.0617-.2383z" fill="#000"/><g filter="url(#p)"><path d="m18.0769 9.78695c.0644.08614-.0702.19115-.2233.30555-.153.1145-.2666.195-.331.1089-.0644-.0862.0075-.24876.1606-.3632.153-.11444.3293-.13739.3937-.05125z" fill="#c7a7a3"/><path d="m18.0769 9.78695c.0644.08614-.0702.19115-.2233.30555-.153.1145-.2666.195-.331.1089-.0644-.0862.0075-.24876.1606-.3632.153-.11444.3293-.13739.3937-.05125z" fill="url(#aD)"/></g><g filter="url(#q)"><path d="m18.9485 10.3808c-.0334-.2337-.1701-.40984-.2343-.46869l-.2633.28889.1188.2311z" fill="url(#aF)"/></g><path d="m13.5093 9.32056c-.6615 0-1.2203.45609-1.3724 1.07244-.0452.1767.0904.3451.2712.3451h2.2599c.1439 0 .2589-.1314.2301-.2753-.1273-.64917-.7026-1.14224-1.3888-1.14224z" fill="#fff"/><path d="m13.7189 9.5957c-.5013 0-.904.4068-.904.904 0 .0822.0124.1643.0329.2383h1.7463c.0206-.0781.0329-.1561.0329-.2383-.0041-.4972-.4068-.904-.9081-.904z" fill="url(#aG)"/><path d="m14.2366 10.4999c0-.2876-.2301-.51772-.5177-.51772s-.5177.23012-.5177.51772c0 .0863.0205.1685.0575.2383h.9163c.037-.0698.0616-.152.0616-.2383z" fill="#000"/><g filter="url(#r)"><path d="m14.5448 10.3936c0-.2921-.2375-.48685-.3018-.5457l-.2921.2825.1798.3659z" fill="url(#aH)"/></g><g filter="url(#s)"><ellipse cx="13.4464" cy="9.98197" fill="#c7a7a3" fill-opacity=".9" rx=".39463" ry=".199719" transform="matrix(.88365127 -.46814574 .46814574 .88365127 -3.108545 7.456265)"/><ellipse cx="13.4464" cy="9.98197" fill="url(#aI)" rx=".39463" ry=".199719" transform="matrix(.88365127 -.46814574 .46814574 .88365127 -3.108545 7.456265)"/></g><g filter="url(#t)"><path d="m17.8958 8.28062c.3267-.07947 1.1391-.03974 1.6821.3488" stroke="#a57045" stroke-linecap="round" stroke-width=".2"/></g><g filter="url(#u)"><path d="m14.0559 8.28062c-.3267-.07947-1.1391-.03974-1.6822.3488" stroke="#a57045" stroke-linecap="round" stroke-width=".2"/></g><g filter="url(#v)"><path d="m10.9737 4.59223c.6291-.56026 1.5365-.56592 2.0458-.47537l.4075 1.30727c-.2604-.03961-.4924.05093-.6876.23769-.4585 1.69776-2.1903 1.44309-2.5298 2.71641-.1528-1.511-.32246-2.81828.7641-3.786z" fill="url(#aJ)"/><path d="m10.9737 4.59223c.6291-.56026 1.5365-.56592 2.0458-.47537l.4075 1.30727c-.2604-.03961-.4924.05093-.6876.23769-.4585 1.69776-2.1903 1.44309-2.5298 2.71641-.1528-1.511-.32246-2.81828.7641-3.786z" fill="url(#aK)"/></g><g filter="url(#w)"><path d="m15.3202 2.79254c-1.1473-.25329-2.3769.96773-2.4957 1.39217 1.5619 3.66715 3.9603 3.31766 6.6212 3.02201 1.5929-.17699 1.7657.54894 1.9015.89981-.4414-4.10858-3.4125-4.73674-6.027-5.31399z" fill="url(#aL)"/><path d="m15.3202 2.79254c-1.1473-.25329-2.3769.96773-2.4957 1.39217 1.5619 3.66715 3.9603 3.31766 6.6212 3.02201 1.5929-.17699 1.7657.54894 1.9015.89981-.4414-4.10858-3.4125-4.73674-6.027-5.31399z" fill="url(#aM)"/><path d="m15.3202 2.79254c-1.1473-.25329-2.3769.96773-2.4957 1.39217 1.5619 3.66715 3.9603 3.31766 6.6212 3.02201 1.5929-.17699 1.7657.54894 1.9015.89981-.4414-4.10858-3.4125-4.73674-6.027-5.31399z" fill="url(#aN)"/></g><g filter="url(#x)"><path d="m13.0027 4.05737c.0236.24618.2377 1.17146.5518 1.73172" stroke="url(#aO)" stroke-linecap="round" stroke-width=".2"/></g></svg>