<svg fill="none" height="32" viewBox="0 0 32 32" width="32" xmlns="http://www.w3.org/2000/svg" xmlns:xlink="http://www.w3.org/1999/xlink"><filter id="a" color-interpolation-filters="sRGB" filterUnits="userSpaceOnUse" height="2.20146" width="2.06454" x="25.4777" y="24.7484"><feFlood flood-opacity="0" result="BackgroundImageFix"/><feBlend in="SourceGraphic" in2="BackgroundImageFix" mode="normal" result="shape"/><feColorMatrix in="SourceAlpha" result="hardAlpha" type="matrix" values="0 0 0 0 0 0 0 0 0 0 0 0 0 0 0 0 0 0 127 0"/><feOffset dx="-.1" dy=".2"/><feGaussianBlur stdDeviation=".2"/><feComposite in2="hardAlpha" k2="-1" k3="1" operator="arithmetic"/><feColorMatrix type="matrix" values="0 0 0 0 0.756863 0 0 0 0 0.611765 0 0 0 0 0.521569 0 0 0 1 0"/><feBlend in2="shape" mode="normal" result="effect1_innerShadow_3987_23561"/></filter><filter id="b" color-interpolation-filters="sRGB" filterUnits="userSpaceOnUse" height="2.20562" width="2.06887" x="25.5148" y="25.2284"><feFlood flood-opacity="0" result="BackgroundImageFix"/><feBlend in="SourceGraphic" in2="BackgroundImageFix" mode="normal" result="shape"/><feColorMatrix in="SourceAlpha" result="hardAlpha" type="matrix" values="0 0 0 0 0 0 0 0 0 0 0 0 0 0 0 0 0 0 127 0"/><feOffset dx="-.1" dy=".2"/><feGaussianBlur stdDeviation=".2"/><feComposite in2="hardAlpha" k2="-1" k3="1" operator="arithmetic"/><feColorMatrix type="matrix" values="0 0 0 0 0.756863 0 0 0 0 0.611765 0 0 0 0 0.521569 0 0 0 1 0"/><feBlend in2="shape" mode="normal" result="effect1_innerShadow_3987_23561"/></filter><filter id="c" color-interpolation-filters="sRGB" filterUnits="userSpaceOnUse" height="1.92937" width="1.80142" x="25.239" y="25.5829"><feFlood flood-opacity="0" result="BackgroundImageFix"/><feBlend in="SourceGraphic" in2="BackgroundImageFix" mode="normal" result="shape"/><feColorMatrix in="SourceAlpha" result="hardAlpha" type="matrix" values="0 0 0 0 0 0 0 0 0 0 0 0 0 0 0 0 0 0 127 0"/><feOffset dx="-.1" dy=".2"/><feGaussianBlur stdDeviation=".2"/><feComposite in2="hardAlpha" k2="-1" k3="1" operator="arithmetic"/><feColorMatrix type="matrix" values="0 0 0 0 0.756863 0 0 0 0 0.611765 0 0 0 0 0.521569 0 0 0 1 0"/><feBlend in2="shape" mode="normal" result="effect1_innerShadow_3987_23561"/></filter><filter id="d" color-interpolation-filters="sRGB" filterUnits="userSpaceOnUse" height="1.52361" width="1.40521" x="24.915" y="26.0938"><feFlood flood-opacity="0" result="BackgroundImageFix"/><feBlend in="SourceGraphic" in2="BackgroundImageFix" mode="normal" result="shape"/><feColorMatrix in="SourceAlpha" result="hardAlpha" type="matrix" values="0 0 0 0 0 0 0 0 0 0 0 0 0 0 0 0 0 0 127 0"/><feOffset dx="-.1" dy=".2"/><feGaussianBlur stdDeviation=".2"/><feComposite in2="hardAlpha" k2="-1" k3="1" operator="arithmetic"/><feColorMatrix type="matrix" values="0 0 0 0 0.737255 0 0 0 0 0.592157 0 0 0 0 0.521569 0 0 0 1 0"/><feBlend in2="shape" mode="normal" result="effect1_innerShadow_3987_23561"/></filter><filter id="e" color-interpolation-filters="sRGB" filterUnits="userSpaceOnUse" height="8.38281" width="8.77031" x="13.223" y="13.6406"><feFlood flood-opacity="0" result="BackgroundImageFix"/><feBlend in="SourceGraphic" in2="BackgroundImageFix" mode="normal" result="shape"/><feColorMatrix in="SourceAlpha" result="hardAlpha" type="matrix" values="0 0 0 0 0 0 0 0 0 0 0 0 0 0 0 0 0 0 127 0"/><feOffset dx="-.2"/><feGaussianBlur stdDeviation=".3"/><feComposite in2="hardAlpha" k2="-1" k3="1" operator="arithmetic"/><feColorMatrix type="matrix" values="0 0 0 0 0.529412 0 0 0 0 0.462745 0 0 0 0 0.67451 0 0 0 1 0"/><feBlend in2="shape" mode="normal" result="effect1_innerShadow_3987_23561"/></filter><filter id="f" color-interpolation-filters="sRGB" filterUnits="userSpaceOnUse" height="7.24158" width="7.32861" x="20.7472" y="3.59827"><feFlood flood-opacity="0" result="BackgroundImageFix"/><feBlend in="SourceGraphic" in2="BackgroundImageFix" mode="normal" result="shape"/><feColorMatrix in="SourceAlpha" result="hardAlpha" type="matrix" values="0 0 0 0 0 0 0 0 0 0 0 0 0 0 0 0 0 0 127 0"/><feOffset dx=".5" dy=".25"/><feGaussianBlur stdDeviation=".5"/><feComposite in2="hardAlpha" k2="-1" k3="1" operator="arithmetic"/><feColorMatrix type="matrix" values="0 0 0 0 0.572549 0 0 0 0 0.45098 0 0 0 0 0.372549 0 0 0 1 0"/><feBlend in2="shape" mode="normal" result="effect1_innerShadow_3987_23561"/></filter><filter id="g" color-interpolation-filters="sRGB" filterUnits="userSpaceOnUse" height="2.8125" width="4.78973" x="25.6652" y="2.0625"><feFlood flood-opacity="0" result="BackgroundImageFix"/><feBlend in="SourceGraphic" in2="BackgroundImageFix" mode="normal" result="shape"/><feColorMatrix in="SourceAlpha" result="hardAlpha" type="matrix" values="0 0 0 0 0 0 0 0 0 0 0 0 0 0 0 0 0 0 127 0"/><feOffset dx="-.25" dy=".5"/><feGaussianBlur stdDeviation=".5"/><feComposite in2="hardAlpha" k2="-1" k3="1" operator="arithmetic"/><feColorMatrix type="matrix" values="0 0 0 0 0 0 0 0 0 0 0 0 0 0 0 0 0 0 0.25 0"/><feBlend in2="shape" mode="normal" result="effect1_innerShadow_3987_23561"/></filter><filter id="h" color-interpolation-filters="sRGB" filterUnits="userSpaceOnUse" height="6.22876" width="6.42876" x="14.3184" y="19.865"><feFlood flood-opacity="0" result="BackgroundImageFix"/><feBlend in="SourceGraphic" in2="BackgroundImageFix" mode="normal" result="shape"/><feColorMatrix in="SourceAlpha" result="hardAlpha" type="matrix" values="0 0 0 0 0 0 0 0 0 0 0 0 0 0 0 0 0 0 127 0"/><feOffset dx="-.2"/><feGaussianBlur stdDeviation=".25"/><feComposite in2="hardAlpha" k2="-1" k3="1" operator="arithmetic"/><feColorMatrix type="matrix" values="0 0 0 0 0.329412 0 0 0 0 0.25098 0 0 0 0 0.243137 0 0 0 1 0"/><feBlend in2="shape" mode="normal" result="effect1_innerShadow_3987_23561"/></filter><filter id="i" color-interpolation-filters="sRGB" filterUnits="userSpaceOnUse" height="1.09099" width="1.09096" x="15.0853" y="22.0112"><feFlood flood-opacity="0" result="BackgroundImageFix"/><feBlend in="SourceGraphic" in2="BackgroundImageFix" mode="normal" result="shape"/><feGaussianBlur result="effect1_foregroundBlur_3987_23561" stdDeviation=".05"/></filter><filter id="j" color-interpolation-filters="sRGB" filterUnits="userSpaceOnUse" height="1.09099" width="1.09096" x="19.0228" y="22.0112"><feFlood flood-opacity="0" result="BackgroundImageFix"/><feBlend in="SourceGraphic" in2="BackgroundImageFix" mode="normal" result="shape"/><feGaussianBlur result="effect1_foregroundBlur_3987_23561" stdDeviation=".05"/></filter><filter id="k" color-interpolation-filters="sRGB" filterUnits="userSpaceOnUse" height="1.3123" width=".978595" x="17.1435" y="21.6114"><feFlood flood-opacity="0" result="BackgroundImageFix"/><feBlend in="SourceGraphic" in2="BackgroundImageFix" mode="normal" result="shape"/><feGaussianBlur result="effect1_foregroundBlur_3987_23561" stdDeviation=".05"/></filter><filter id="l" color-interpolation-filters="sRGB" filterUnits="userSpaceOnUse" height=".533081" width="1.36187" x="15.7972" y="22.6061"><feFlood flood-opacity="0" result="BackgroundImageFix"/><feBlend in="SourceGraphic" in2="BackgroundImageFix" mode="normal" result="shape"/><feColorMatrix in="SourceAlpha" result="hardAlpha" type="matrix" values="0 0 0 0 0 0 0 0 0 0 0 0 0 0 0 0 0 0 127 0"/><feOffset dx="-.2"/><feGaussianBlur stdDeviation=".2"/><feComposite in2="hardAlpha" k2="-1" k3="1" operator="arithmetic"/><feColorMatrix type="matrix" values="0 0 0 0 0.141176 0 0 0 0 0.0862745 0 0 0 0 0.176471 0 0 0 1 0"/><feBlend in2="shape" mode="normal" result="effect1_innerShadow_3987_23561"/></filter><filter id="m" color-interpolation-filters="sRGB" filterUnits="userSpaceOnUse" height=".533081" width="1.36187" x="17.9063" y="22.6061"><feFlood flood-opacity="0" result="BackgroundImageFix"/><feBlend in="SourceGraphic" in2="BackgroundImageFix" mode="normal" result="shape"/><feColorMatrix in="SourceAlpha" result="hardAlpha" type="matrix" values="0 0 0 0 0 0 0 0 0 0 0 0 0 0 0 0 0 0 127 0"/><feOffset dx="-.2"/><feGaussianBlur stdDeviation=".2"/><feComposite in2="hardAlpha" k2="-1" k3="1" operator="arithmetic"/><feColorMatrix type="matrix" values="0 0 0 0 0.141176 0 0 0 0 0.0862745 0 0 0 0 0.176471 0 0 0 1 0"/><feBlend in2="shape" mode="normal" result="effect1_innerShadow_3987_23561"/></filter><filter id="n" color-interpolation-filters="sRGB" filterUnits="userSpaceOnUse" height=".569507" width="1.03433" x="18.2777" y="23.0772"><feFlood flood-opacity="0" result="BackgroundImageFix"/><feBlend in="SourceGraphic" in2="BackgroundImageFix" mode="normal" result="shape"/><feColorMatrix in="SourceAlpha" result="hardAlpha" type="matrix" values="0 0 0 0 0 0 0 0 0 0 0 0 0 0 0 0 0 0 127 0"/><feOffset dx=".1" dy="-.2"/><feGaussianBlur stdDeviation=".125"/><feComposite in2="hardAlpha" k2="-1" k3="1" operator="arithmetic"/><feColorMatrix type="matrix" values="0 0 0 0 0.0588235 0 0 0 0 0.054902 0 0 0 0 0.0588235 0 0 0 1 0"/><feBlend in2="shape" mode="normal" result="effect1_innerShadow_3987_23561"/></filter><filter id="o" color-interpolation-filters="sRGB" filterUnits="userSpaceOnUse" height=".569629" width="1.03433" x="16.0311" y="23.0771"><feFlood flood-opacity="0" result="BackgroundImageFix"/><feBlend in="SourceGraphic" in2="BackgroundImageFix" mode="normal" result="shape"/><feColorMatrix in="SourceAlpha" result="hardAlpha" type="matrix" values="0 0 0 0 0 0 0 0 0 0 0 0 0 0 0 0 0 0 127 0"/><feOffset dx=".1" dy="-.2"/><feGaussianBlur stdDeviation=".125"/><feComposite in2="hardAlpha" k2="-1" k3="1" operator="arithmetic"/><feColorMatrix type="matrix" values="0 0 0 0 0.0588235 0 0 0 0 0.054902 0 0 0 0 0.0588235 0 0 0 1 0"/><feBlend in2="shape" mode="normal" result="effect1_innerShadow_3987_23561"/></filter><filter id="p" color-interpolation-filters="sRGB" filterUnits="userSpaceOnUse" height=".305688" width=".343195" x="16.6977" y="22.6895"><feFlood flood-opacity="0" result="BackgroundImageFix"/><feBlend in="SourceGraphic" in2="BackgroundImageFix" mode="normal" result="shape"/><feGaussianBlur result="effect1_foregroundBlur_3987_23561" stdDeviation=".025"/></filter><filter id="q" color-interpolation-filters="sRGB" filterUnits="userSpaceOnUse" height=".312769" width=".303583" x="16.3476" y="22.6098"><feFlood flood-opacity="0" result="BackgroundImageFix"/><feBlend in="SourceGraphic" in2="BackgroundImageFix" mode="normal" result="shape"/><feGaussianBlur result="effect1_foregroundBlur_3987_23561" stdDeviation=".025"/></filter><filter id="r" color-interpolation-filters="sRGB" filterUnits="userSpaceOnUse" height=".365259" width=".342981" x="18.1505" y="22.5837"><feFlood flood-opacity="0" result="BackgroundImageFix"/><feBlend in="SourceGraphic" in2="BackgroundImageFix" mode="normal" result="shape"/><feGaussianBlur result="effect1_foregroundBlur_3987_23561" stdDeviation=".025"/></filter><filter id="s" color-interpolation-filters="sRGB" filterUnits="userSpaceOnUse" height=".309106" width=".395502" x="18.4525" y="22.6894"><feFlood flood-opacity="0" result="BackgroundImageFix"/><feBlend in="SourceGraphic" in2="BackgroundImageFix" mode="normal" result="shape"/><feGaussianBlur result="effect1_foregroundBlur_3987_23561" stdDeviation=".025"/></filter><filter id="t" color-interpolation-filters="sRGB" filterUnits="userSpaceOnUse" height=".456714" width=".988818" x="15.9894" y="23.248"><feFlood flood-opacity="0" result="BackgroundImageFix"/><feBlend in="SourceGraphic" in2="BackgroundImageFix" mode="normal" result="shape"/><feGaussianBlur result="effect1_foregroundBlur_3987_23561" stdDeviation=".05"/></filter><filter id="u" color-interpolation-filters="sRGB" filterUnits="userSpaceOnUse" height=".456714" width=".988818" x="18.2505" y="23.248"><feFlood flood-opacity="0" result="BackgroundImageFix"/><feBlend in="SourceGraphic" in2="BackgroundImageFix" mode="normal" result="shape"/><feGaussianBlur result="effect1_foregroundBlur_3987_23561" stdDeviation=".05"/></filter><filter id="v" color-interpolation-filters="sRGB" filterUnits="userSpaceOnUse" height="2.04016" width="1.94556" x="18.4081" y="23.4733"><feFlood flood-opacity="0" result="BackgroundImageFix"/><feBlend in="SourceGraphic" in2="BackgroundImageFix" mode="normal" result="shape"/><feGaussianBlur result="effect1_foregroundBlur_3987_23561" stdDeviation=".125"/></filter><filter id="w" color-interpolation-filters="sRGB" filterUnits="userSpaceOnUse" height="6.79458" width="5.93777" x="21.1926" y="3.6967"><feFlood flood-opacity="0" result="BackgroundImageFix"/><feBlend in="SourceGraphic" in2="BackgroundImageFix" mode="normal" result="shape"/><feGaussianBlur result="effect1_foregroundBlur_3987_23561" stdDeviation=".15"/></filter><filter id="x" color-interpolation-filters="sRGB" filterUnits="userSpaceOnUse" height="2.74875" width="4.11118" x="14.9937" y="23.253"><feFlood flood-opacity="0" result="BackgroundImageFix"/><feBlend in="SourceGraphic" in2="BackgroundImageFix" mode="normal" result="shape"/><feGaussianBlur result="effect1_foregroundBlur_3987_23561" stdDeviation=".1"/></filter><filter id="y" color-interpolation-filters="sRGB" filterUnits="userSpaceOnUse" height="6.16235" width="10.596" x="12.5604" y="7.90112"><feFlood flood-opacity="0" result="BackgroundImageFix"/><feBlend in="SourceGraphic" in2="BackgroundImageFix" mode="normal" result="shape"/><feColorMatrix in="SourceAlpha" result="hardAlpha" type="matrix" values="0 0 0 0 0 0 0 0 0 0 0 0 0 0 0 0 0 0 127 0"/><feOffset dy="-.5"/><feGaussianBlur stdDeviation=".5"/><feComposite in2="hardAlpha" k2="-1" k3="1" operator="arithmetic"/><feColorMatrix type="matrix" values="0 0 0 0 0.560784 0 0 0 0 0.556863 0 0 0 0 0.560784 0 0 0 1 0"/><feBlend in2="shape" mode="normal" result="effect1_innerShadow_3987_23561"/></filter><linearGradient id="z" gradientUnits="userSpaceOnUse" x1="26.2755" x2="25.7247" y1="27.9512" y2="27.9512"><stop offset="0" stop-color="#a0726e"/><stop offset="1" stop-color="#874f58"/></linearGradient><linearGradient id="A"><stop offset="0" stop-color="#c89e8b"/><stop offset="1" stop-color="#aa797d" stop-opacity="0"/></linearGradient><linearGradient id="B" gradientUnits="userSpaceOnUse" x1=".196465" x2=".199925" xlink:href="#A" y1=".544743" y2="1.06507"/><linearGradient id="C" gradientUnits="userSpaceOnUse" x1=".200566" x2=".203955" xlink:href="#A" y1=".544743" y2="1.06507"/><linearGradient id="D" gradientUnits="userSpaceOnUse" x1=".211424" x2=".2137" xlink:href="#A" y1=".458272" y2=".896013"/><linearGradient id="E" gradientUnits="userSpaceOnUse" x1="26.5153" x2="29.1409" y1="28.2189" y2="28.4318"><stop offset=".143802" stop-color="#cda48e"/><stop offset="1" stop-color="#a47074"/></linearGradient><linearGradient id="F" gradientUnits="userSpaceOnUse" x1="29.0423" x2="27.833" y1="28.7575" y2="28.6716"><stop offset="0" stop-color="#8b5571"/><stop offset="1" stop-color="#935b69" stop-opacity="0"/></linearGradient><radialGradient id="G" cx="0" cy="0" gradientTransform="matrix(0 -2.36263 1.84678 0 20.1777 24.3367)" gradientUnits="userSpaceOnUse" r="1"><stop offset=".376329" stop-color="#9f7d6c"/><stop offset="1" stop-color="#947059"/></radialGradient><radialGradient id="H" cx="0" cy="0" gradientTransform="matrix(-.39062606 .17333823 -.34547263 -.77853922 15.0841 29.4687)" gradientUnits="userSpaceOnUse" r="1"><stop offset="0" stop-color="#a57e6a"/><stop offset="1" stop-color="#946a53"/></radialGradient><radialGradient id="I" cx="0" cy="0" gradientTransform="matrix(-1.48865 0 0 -3.771 15.4855 28)" gradientUnits="userSpaceOnUse" r="1"><stop offset=".246384" stop-color="#be9185"/><stop offset="1" stop-color="#a57670" stop-opacity="0"/></radialGradient><radialGradient id="J" cx="0" cy="0" gradientTransform="matrix(-1.91895 0 0 -4.67725 15.6574 24.0312)" gradientUnits="userSpaceOnUse" r="1"><stop offset=".413741" stop-color="#754452"/><stop offset="1" stop-color="#916365" stop-opacity="0"/></radialGradient><radialGradient id="K" cx="0" cy="0" gradientTransform="matrix(0 -1 3.83881 0 14.069 30.0312)" gradientUnits="userSpaceOnUse" r="1"><stop offset=".108521" stop-color="#9d5d89"/><stop offset="1" stop-color="#a66c7d" stop-opacity="0"/></radialGradient><radialGradient id="L" cx="0" cy="0" gradientTransform="matrix(0 -3.76709 .334406 0 13.629 25.9805)" gradientUnits="userSpaceOnUse" r="1"><stop offset="0" stop-color="#af8374"/><stop offset="1" stop-color="#af8374" stop-opacity="0"/></radialGradient><radialGradient id="M" cx="0" cy="0" gradientTransform="matrix(-4.96875 0 0 -7.09375 20.7174 18.3437)" gradientUnits="userSpaceOnUse" r="1"><stop offset="0" stop-color="#917bc9"/><stop offset="1" stop-color="#785ca8"/></radialGradient><radialGradient id="N" cx="0" cy="0" gradientTransform="matrix(.88699481 1.62136507 -1.09518665 .59914013 20.8929 19.1286)" gradientUnits="userSpaceOnUse" r="1"><stop offset="0" stop-color="#a28cdb"/><stop offset="1" stop-color="#8a72c0" stop-opacity="0"/></radialGradient><radialGradient id="O" cx="0" cy="0" gradientTransform="matrix(.91933224 -.98619436 1.89871528 1.76998596 19.8733 21.7529)" gradientUnits="userSpaceOnUse" r="1"><stop offset=".262373" stop-color="#683e86"/><stop offset="1" stop-color="#683e86" stop-opacity="0"/></radialGradient><linearGradient id="P" gradientUnits="userSpaceOnUse" x1="14.0299" x2="18.8424" y1="13.4375" y2="15.0938"><stop offset=".28754" stop-color="#665790"/><stop offset="1" stop-color="#755eac" stop-opacity="0"/></linearGradient><linearGradient id="Q" gradientUnits="userSpaceOnUse" x1="8.96204" x2="8.96204" y1="14.0391" y2="12.5205"><stop offset="0" stop-color="#975b7b"/><stop offset="1" stop-color="#ae8177" stop-opacity="0"/></linearGradient><radialGradient id="R" cx="0" cy="0" gradientTransform="matrix(-1.46875 0 0 -4.625 13.0509 12.4893)" gradientUnits="userSpaceOnUse" r="1"><stop offset="0" stop-color="#946f62"/><stop offset="1" stop-color="#9c6f76" stop-opacity="0"/></radialGradient><linearGradient id="S" gradientUnits="userSpaceOnUse" x1="8.1134" x2="8.19153" y1="11.833" y2="12.3486"><stop offset="0" stop-color="#a0846d"/><stop offset="1" stop-color="#ae886e" stop-opacity="0"/></linearGradient><radialGradient id="T" cx="0" cy="0" gradientTransform="matrix(-1.0625082 1.1562383 -1.11869327 -1.02800674 30.1862 2.0625)" gradientUnits="userSpaceOnUse" r="1"><stop offset="0" stop-color="#686995"/><stop offset="1" stop-color="#686995" stop-opacity="0"/></radialGradient><linearGradient id="U" gradientUnits="userSpaceOnUse" x1="27.4362" x2="27.4362" y1="2.0625" y2="2.21094"><stop offset="0" stop-color="#444570"/><stop offset="1" stop-color="#444570" stop-opacity="0"/></linearGradient><linearGradient id="V" gradientUnits="userSpaceOnUse" x1="25.9152" x2="26.5924" y1="2.53125" y2="2.53125"><stop offset="0" stop-color="#5f5e7a"/><stop offset="1" stop-color="#41406b" stop-opacity="0"/></linearGradient><linearGradient id="W" gradientUnits="userSpaceOnUse" x1="5.46741" x2="4.81116" y1="11.8124" y2="12.3906"><stop offset="0" stop-color="#686897"/><stop offset="1" stop-color="#514f87"/></linearGradient><linearGradient id="X" gradientUnits="userSpaceOnUse" x1="3.10022" x2="3.25647" y1="12.5781" y2="12.7656"><stop offset=".069671" stop-color="#424272"/><stop offset="1" stop-color="#424272" stop-opacity="0"/></linearGradient><radialGradient id="Y" cx="0" cy="0" gradientTransform="matrix(.4374992 2.10937756 -6.63005703 1.37511875 3.18616 12.2812)" gradientUnits="userSpaceOnUse" r="1"><stop offset=".550161" stop-color="#403178" stop-opacity="0"/><stop offset="1" stop-color="#403178"/></radialGradient><radialGradient id="Z" cx="0" cy="0" gradientTransform="matrix(-1.54270138 -4.84325972 12.50829075 -3.98420868 17.7677 25.9995)" gradientUnits="userSpaceOnUse" r="1"><stop offset="0" stop-color="#542b43"/><stop offset=".890538" stop-color="#332627"/></radialGradient><radialGradient id="aa" cx="0" cy="0" gradientTransform="matrix(.89270349 -.94432766 1.23972755 1.17195456 18.6832 22.8337)" gradientUnits="userSpaceOnUse" r="1"><stop offset=".684668" stop-color="#be9782" stop-opacity="0"/><stop offset=".887149" stop-color="#be9782"/></radialGradient><radialGradient id="ab" cx="0" cy="0" gradientTransform="matrix(-1.6375 0 0 -.869435 16.514 22.5568)" gradientUnits="userSpaceOnUse" r="1"><stop offset=".726641" stop-color="#8b6060"/><stop offset="1" stop-color="#997267"/></radialGradient><radialGradient id="ac" cx="0" cy="0" gradientTransform="matrix(-2.70323 0 0 -3.19165 18.8021 22.028)" gradientUnits="userSpaceOnUse" r="1"><stop offset=".0402227" stop-color="#cda18b"/><stop offset=".833184" stop-color="#a2766a"/></radialGradient><radialGradient id="ad" cx="0" cy="0" gradientTransform="matrix(0 -.947299 1.16477 0 18.6152 22.5634)" gradientUnits="userSpaceOnUse" r="1"><stop offset="0" stop-color="#b8817b"/><stop offset="1" stop-color="#b8817b" stop-opacity="0"/></radialGradient><linearGradient id="ae" gradientUnits="userSpaceOnUse" x1="15.711" x2="16.4877" y1="22.3362" y2="22.3362"><stop offset="0" stop-color="#ab8071"/><stop offset="1" stop-color="#ab8071" stop-opacity="0"/></linearGradient><linearGradient id="af" gradientUnits="userSpaceOnUse" x1="17.9287" x2="17.3994" y1="22.2676" y2="22.2676"><stop offset="0" stop-color="#b37f7f"/><stop offset="1" stop-color="#a8806b"/></linearGradient><radialGradient id="ag" cx="0" cy="0" gradientTransform="matrix(-.470914 0 0 -.142595 17.9404 21.854)" gradientUnits="userSpaceOnUse" r="1"><stop offset="0" stop-color="#d1a690"/><stop offset="1" stop-color="#d1a690" stop-opacity="0"/></radialGradient><linearGradient id="ah"><stop offset=".80198" stop-color="#925c51"/><stop offset="1" stop-color="#694b43"/><stop offset="1" stop-color="#804d49"/><stop offset="1" stop-color="#85534d"/></linearGradient><radialGradient id="ai" cx="0" cy="0" gradientTransform="matrix(0 -.336493 .535229 0 16.7278 22.8044)" gradientUnits="userSpaceOnUse" r="1" xlink:href="#ah"/><linearGradient id="aj"><stop offset=".765532" stop-color="#ffe6e2" stop-opacity="0"/><stop offset=".966159" stop-color="#ffe6e2"/></linearGradient><radialGradient id="ak" cx="0" cy="0" gradientTransform="matrix(.09610911 .12385044 -.1705127 .13231946 16.8227 22.7695)" gradientUnits="userSpaceOnUse" r="1" xlink:href="#aj"/><linearGradient id="al"><stop offset="0" stop-color="#b4948d"/><stop offset="1" stop-color="#b4948d" stop-opacity="0"/></linearGradient><linearGradient id="am" gradientUnits="userSpaceOnUse" x1="16.4055" x2="16.5355" xlink:href="#al" y1="22.7819" y2="22.7018"/><radialGradient id="an" cx="0" cy="0" gradientTransform="matrix(0 -.336495 .535233 0 18.5378 22.8044)" gradientUnits="userSpaceOnUse" r="1" xlink:href="#ah"/><linearGradient id="ao" gradientUnits="userSpaceOnUse" x1="18.2293" x2="18.3593" xlink:href="#al" y1="22.782" y2="22.7019"/><radialGradient id="ap" cx="0" cy="0" gradientTransform="matrix(-.00320568 -.20474591 .24611284 -.00385336 18.644 22.9745)" gradientUnits="userSpaceOnUse" r="1" xlink:href="#aj"/><radialGradient id="aq" cx="0" cy="0" gradientTransform="matrix(1.24682555 -1.33837677 .45013744 .41934594 19.2906 24.6978)" gradientUnits="userSpaceOnUse" r="1"><stop offset=".0323395" stop-color="#6a4d4d"/><stop offset="1" stop-color="#614542" stop-opacity="0"/></radialGradient><radialGradient id="ar" cx="0" cy="0" gradientTransform="matrix(1.21874908 -1.31249917 3.15359896 2.92834152 17.2125 25.3539)" gradientUnits="userSpaceOnUse" r="1"><stop offset=".425659" stop-color="#684b4c" stop-opacity="0"/><stop offset=".874886" stop-color="#684b4c"/></radialGradient><radialGradient id="as" cx="0" cy="0" gradientTransform="matrix(.93750271 -.68750104 1.08629268 1.48131024 15.3375 24.4789)" gradientUnits="userSpaceOnUse" r="1"><stop offset="0" stop-color="#644a49"/><stop offset="1" stop-color="#644a49" stop-opacity="0"/></radialGradient><linearGradient id="at" gradientUnits="userSpaceOnUse" x1="12.8761" x2="13.3448" y1="14.4688" y2="11.7813"><stop offset=".263716" stop-color="#836591"/><stop offset="1" stop-color="#9e93a6" stop-opacity="0"/></linearGradient><linearGradient id="au" gradientUnits="userSpaceOnUse" x1="21.7198" x2="20.8448" y1="12.875" y2="12.4375"><stop offset="0" stop-color="#9d94a4"/><stop offset="1" stop-color="#9d94a4" stop-opacity="0"/></linearGradient><rect fill="url(#z)" height="1.64844" rx=".404297" transform="matrix(-1 0 0 -1 50.8068 54.5434)" width=".808594" x="25.4034" y="27.2717"/><g filter="url(#a)"><rect fill="#ab787c" height="2.52105" rx=".34228" transform="matrix(-.717106 .696965 .696965 .717106 25.9269 24.6067)" width=".68456"/><rect fill="url(#B)" height="2.52105" rx=".34228" transform="matrix(-.717106 .696965 .696965 .717106 25.9269 24.6067)" width=".68456"/></g><g filter="url(#b)"><rect fill="#ab787c" height="2.52105" rx=".349425" transform="matrix(-.717106 .696965 .696965 .717106 25.9713 25.0837)" width=".69885"/><rect fill="url(#C)" height="2.52105" rx=".349425" transform="matrix(-.717106 .696965 .696965 .717106 25.9713 25.0837)" width=".69885"/></g><g filter="url(#c)"><rect fill="#ab787c" height="2.12086" rx=".368342" transform="matrix(-.717106 .696965 .696965 .717106 25.7147 25.4304)" width=".736684"/><rect fill="url(#D)" height="2.12086" rx=".368342" transform="matrix(-.717106 .696965 .696965 .717106 25.7147 25.4304)" width=".736684"/></g><g filter="url(#d)"><rect fill="#a26c74" height="1.58363" rx=".332401" transform="matrix(-.717106 .696965 .696965 .717106 25.3541 25.9561)" width=".664802"/></g><path d="m26.6324 25.3359h2.01381v7.06996h-2.01381z" fill="url(#E)" transform="matrix(-.71710526 .69696488 -.69696488 -.71710526 63.388867 24.94256)"/><path d="m26.6324 25.3359h2.01381v7.06996h-2.01381z" fill="url(#F)" transform="matrix(-.71710526 .69696488 -.69696488 -.71710526 63.388867 24.94256)"/><path d="m18.7955 21.6697h2.76441v3.29467h-2.76441z" fill="url(#G)" transform="matrix(-1 0 0 -1 37.591 43.3394)"/><rect fill="url(#H)" height=".5625" rx=".28125" transform="matrix(-1 0 0 -1 27.7756 58.375)" width="1.12109" x="13.8878" y="29.1875"/><path d="m14.8196 29.8507c-.296.0299-.9545.0868-1.5802.0868-.6524 0-.7292-.3451-.7305-.5195-.0091-.1146.0563-.368.3906-.4649.1207-.0349.2593-.0723.3962-.1079.0886-.0231.1507-.1028.1507-.1943v-6.6275h2.0391v7.1282c0 .34-.2424.6234-.5639.6867l.0014.0015c-.0077.0009-.0161.0018-.0252.0028-.0256.0041-.0517.0069-.0782.0081z" fill="#ab7b75"/><path d="m14.8196 29.8507c-.296.0299-.9545.0868-1.5802.0868-.6524 0-.7292-.3451-.7305-.5195-.0091-.1146.0563-.368.3906-.4649.1207-.0349.2593-.0723.3962-.1079.0886-.0231.1507-.1028.1507-.1943v-6.6275h2.0391v7.1282c0 .34-.2424.6234-.5639.6867l.0014.0015c-.0077.0009-.0161.0018-.0252.0028-.0256.0041-.0517.0069-.0782.0081z" fill="url(#I)"/><path d="m14.8196 29.8507c-.296.0299-.9545.0868-1.5802.0868-.6524 0-.7292-.3451-.7305-.5195-.0091-.1146.0563-.368.3906-.4649.1207-.0349.2593-.0723.3962-.1079.0886-.0231.1507-.1028.1507-.1943v-6.6275h2.0391v7.1282c0 .34-.2424.6234-.5639.6867l.0014.0015c-.0077.0009-.0161.0018-.0252.0028-.0256.0041-.0517.0069-.0782.0081z" fill="url(#J)"/><path d="m14.8196 29.8507c-.296.0299-.9545.0868-1.5802.0868-.6524 0-.7292-.3451-.7305-.5195-.0091-.1146.0563-.368.3906-.4649.1207-.0349.2593-.0723.3962-.1079.0886-.0231.1507-.1028.1507-.1943v-6.6275h2.0391v7.1282c0 .34-.2424.6234-.5639.6867l.0014.0015c-.0077.0009-.0161.0018-.0252.0028-.0256.0041-.0517.0069-.0782.0081z" fill="url(#K)"/><path d="m14.8196 29.8507c-.296.0299-.9545.0868-1.5802.0868-.6524 0-.7292-.3451-.7305-.5195-.0091-.1146.0563-.368.3906-.4649.1207-.0349.2593-.0723.3962-.1079.0886-.0231.1507-.1028.1507-.1943v-6.6275h2.0391v7.1282c0 .34-.2424.6234-.5639.6867l.0014.0015c-.0077.0009-.0161.0018-.0252.0028-.0256.0041-.0517.0069-.0782.0081z" fill="url(#L)"/><g filter="url(#e)"><path d="m20.693 18.2055c.526.6644 1.0564 1.5695 1.3003 2.2789l-1.5781 1.4297-1.8204-1.4297-.8255-1.6689c-.1086-.2195-.4201-.2235-.5343-.0069l-1.6948 3.2148h-2.1172c.0837-1.569.5512-3.0301.8803-3.75.0691-.1512.1119-.3136.1119-.4799v-4.1529h6.1875v4.3094c0 .0929.0326.1826.0903.2555z" fill="url(#M)"/><path d="m20.693 18.2055c.526.6644 1.0564 1.5695 1.3003 2.2789l-1.5781 1.4297-1.8204-1.4297-.8255-1.6689c-.1086-.2195-.4201-.2235-.5343-.0069l-1.6948 3.2148h-2.1172c.0837-1.569.5512-3.0301.8803-3.75.0691-.1512.1119-.3136.1119-.4799v-4.1529h6.1875v4.3094c0 .0929.0326.1826.0903.2555z" fill="url(#N)"/><path d="m20.693 18.2055c.526.6644 1.0564 1.5695 1.3003 2.2789l-1.5781 1.4297-1.8204-1.4297-.8255-1.6689c-.1086-.2195-.4201-.2235-.5343-.0069l-1.6948 3.2148h-2.1172c.0837-1.569.5512-3.0301.8803-3.75.0691-.1512.1119-.3136.1119-.4799v-4.1529h6.1875v4.3094c0 .0929.0326.1826.0903.2555z" fill="url(#O)"/><path d="m20.693 18.2055c.526.6644 1.0564 1.5695 1.3003 2.2789l-1.5781 1.4297-1.8204-1.4297-.8255-1.6689c-.1086-.2195-.4201-.2235-.5343-.0069l-1.6948 3.2148h-2.1172c.0837-1.569.5512-3.0301.8803-3.75.0691-.1512.1119-.3136.1119-.4799v-4.1529h6.1875v4.3094c0 .0929.0326.1826.0903.2555z" fill="url(#P)"/></g><g filter="url(#f)"><path d="m23.1183 10.5898 4.4575-6.24397-1.6351-.74751-5.1935 4.83527z" fill="#b7887a"/></g><path d="m12.7667 14.0391-7.60935-.1407.625-1.5703 6.84375-.9844z" fill="#ae896f"/><path d="m12.7667 14.0391-7.60935-.1407.625-1.5703 6.84375-.9844z" fill="url(#Q)"/><path d="m12.7667 14.0391-7.60935-.1407.625-1.5703 6.84375-.9844z" fill="url(#R)"/><path d="m12.7667 14.0391-7.60935-.1407.625-1.5703 6.84375-.9844z" fill="url(#S)"/><g filter="url(#g)"><path d="m27.548 4.375-1.6328-.77344v-1.28906c0-.13807.112-.25.25-.25h3.9716c.1515 0 .3011.08531.3153.23616.0264.28137-.1248.62097-.5994.95134-.543.35156-1.6993.84375-2.3047 1.125z" fill="#504e84"/><path d="m27.548 4.375-1.6328-.77344v-1.28906c0-.13807.112-.25.25-.25h3.9716c.1515 0 .3011.08531.3153.23616.0264.28137-.1248.62097-.5994.95134-.543.35156-1.6993.84375-2.3047 1.125z" fill="url(#T)"/></g><path d="m27.548 4.375-1.6328-.77344v-1.28906c0-.13807.112-.25.25-.25h3.9716c.1515 0 .3011.08531.3153.23616.0264.28137-.1248.62097-.5994.95134-.543.35156-1.6993.84375-2.3047 1.125z" fill="url(#U)"/><path d="m27.548 4.375-1.6328-.77344v-1.28906c0-.13807.112-.25.25-.25h3.9716c.1515 0 .3011.08531.3153.23616.0264.28137-.1248.62097-.5994.95134-.543.35156-1.6993.84375-2.3047 1.125z" fill="url(#V)"/><path d="m4.69808 11.2939c.10373-.0856.25657-.0738.34593.0267l.87506.984-.73438 1.5899-1.17578.3359c-.30469.099-1.05859.3023-1.63672.3242-.39655.015-.63994-.1841-.77809-.3696-.0919-.1233-.04714-.291.07152-.3889z" fill="url(#W)"/><path d="m4.69808 11.2939c.10373-.0856.25657-.0738.34593.0267l.87506.984-.73438 1.5899-1.17578.3359c-.30469.099-1.05859.3023-1.63672.3242-.39655.015-.63994-.1841-.77809-.3696-.0919-.1233-.04714-.291.07152-.3889z" fill="url(#X)"/><path d="m4.69808 11.2939c.10373-.0856.25657-.0738.34593.0267l.87506.984-.73438 1.5899-1.17578.3359c-.30469.099-1.05859.3023-1.63672.3242-.39655.015-.63994-.1841-.77809-.3696-.0919-.1233-.04714-.291.07152-.3889z" fill="url(#Y)"/><g filter="url(#h)"><path clip-rule="evenodd" d="m14.6527 21.972c-.0881.1805-.1343.382-.1343.5918 0 .1939.0399.3757.1114.5415h-.0022c.0334.0751.0709.146.1166.2128l.0009.0012c.1427.2183.2182.4743.2182.7346v.0042c0 .7555.6128 1.3683 1.3684 1.3683.0755 0 .1469.0336.1888.0965.2477.3442.6549.5708 1.1124.5708s.8646-.2266 1.1122-.5708c.042-.0587.1134-.0965.1889-.0965.0118 0 .0236-.0002.0353-.0005.7392-.0187 1.333-.6241 1.333-1.3678v-.0042c0-.2603.0756-.5163.2183-.7346l.0009-.0015c.1421-.2179.2257-.4734.2257-.754 0-.3685-.1238-.5404-.2878-.6888l-.0442.0391-.9171-.7203-.7475-.5297v.115h-2.5544l.4819-.9141h-.8249c-.7388 0-1.3348.596-1.3348 1.3347 0 .2099.0504.4072.1343.5834.0294.0588.0294.1302 0 .1889zm5.0849 1.1084h.0051l-.4971-.977c-.0293-.6656-.1906-.5689-.5311-.3646-.2542.1524-.6081.3646-1.0816.3646-.4927 0-.8618-.2557-1.1243-.4377-.328-.2272-.4896-.3392-.518.3063l-.4711 1.326c.0223.5163.3964.5526.4711.5526h1.3355c.5274 0 1.025.2581 1.3227.694.0511.0719.1574.0592.1914-.0212l.034-.0804c.0936-.2327.2722-.4105.4934-.512.0064-.0022.0138-.0053.0213-.0085.0074-.0032.0149-.0063.0212-.0085.0979-.0507.3275-.2031.336-.5966l-.0042-.127z" fill="url(#Z)" fill-rule="evenodd"/></g><path d="m19.5759 21.8894c-.3686 0-.6673.2988-.6673.6674 0 .3685.2987.6673.6673.6673s.6674-.2988.6674-.6673c0-.3686-.2988-.6674-.6674-.6674z" fill="#aa8076"/><path d="m19.5759 21.8894c-.3686 0-.6673.2988-.6673.6674 0 .3685.2987.6673.6673.6673s.6674-.2988.6674-.6673c0-.3686-.2988-.6674-.6674-.6674z" fill="url(#aa)"/><path d="m15.6306 21.8894c-.3686 0-.6674.2988-.6674.6674 0 .3685.2988.6673.6674.6673s.6674-.2988.6674-.6673c0-.3686-.2988-.6674-.6674-.6674z" fill="url(#ab)"/><g filter="url(#i)"><path d="m15.6308 22.1112c-.246 0-.4455.1995-.4455.4455s.1995.4455.4455.4455.4455-.1995.4455-.4455-.1995-.4455-.4455-.4455z" fill="#80544d"/></g><g filter="url(#j)"><path d="m19.5683 22.1112c-.246 0-.4455.1995-.4455.4455s.1995.4455.4455.4455.4455-.1995.4455-.4455-.1995-.4455-.4455-.4455z" fill="#a77a69"/></g><path d="m19.7428 23.0804h-.0051l.0043.11.0042.127c-.0085.3935-.2382.5458-.336.5966-.0064.0021-.0138.0053-.0213.0085-.0074.0032-.0148.0063-.0212.0085-.2212.1015-.3998.2792-.4934.512l-.034.0804c-.034.0804-.1404.0931-.1914.0211-.2977-.4358-.7953-.694-1.3227-.694h-1.3355c-.0747 0-.4489-.0362-.4711-.5525l.0492-1.2745c.0511-1.1624.9588-1.9429 2.0668-1.9429s2.0157.7805 2.0668 1.9429z" fill="url(#ac)"/><path d="m19.7428 23.0804h-.0051l.0043.11.0042.127c-.0085.3935-.2382.5458-.336.5966-.0064.0021-.0138.0053-.0213.0085-.0074.0032-.0148.0063-.0212.0085-.2212.1015-.3998.2792-.4934.512l-.034.0804c-.034.0804-.1404.0931-.1914.0211-.2977-.4358-.7953-.694-1.3227-.694h-1.3355c-.0747 0-.4489-.0362-.4711-.5525l.0492-1.2745c.0511-1.1624.9588-1.9429 2.0668-1.9429s2.0157.7805 2.0668 1.9429z" fill="url(#ad)"/><path d="m19.7428 23.0804h-.0051l.0043.11.0042.127c-.0085.3935-.2382.5458-.336.5966-.0064.0021-.0138.0053-.0213.0085-.0074.0032-.0148.0063-.0212.0085-.2212.1015-.3998.2792-.4934.512l-.034.0804c-.034.0804-.1404.0931-.1914.0211-.2977-.4358-.7953-.694-1.3227-.694h-1.3355c-.0747 0-.4489-.0362-.4711-.5525l.0492-1.2745c.0511-1.1624.9588-1.9429 2.0668-1.9429s2.0157.7805 2.0668 1.9429z" fill="url(#ae)"/><g filter="url(#k)"><path d="m17.7914 22.7066.2204-.7051c.045-.145-.063-.29-.2159-.29h-.3262c-.1529 0-.2609.1472-.2159.29l.2204.7051c.0473.1562.2677.1562.3172 0z" fill="url(#af)"/><path d="m17.7914 22.7066.2204-.7051c.045-.145-.063-.29-.2159-.29h-.3262c-.1529 0-.2609.1472-.2159.29l.2204.7051c.0473.1562.2677.1562.3172 0z" fill="url(#ag)"/></g><path d="m17.6327 21.3491c.216 0 .419.052.5896.1429.0583.0304.121-.0368.0843-.0909-.1426-.221-.391-.3683-.6739-.3683s-.5313.1473-.6738.3683c-.0367.0563.0259.1213.0842.0909.1706-.0909.3715-.1429.5896-.1429z" fill="#87004d"/><g filter="url(#l)"><path d="m17.1591 22.7926c-.1101.1936-.2775.3466-.6376.3466-.1578 0-.3098-.0437-.445-.153-.1115-.0901-.0966-.2053-.0102-.2485l.2306-.1317c.2703.0874.5693.0992.8622.1866z" fill="#232026"/></g><g filter="url(#m)"><path d="m18.1063 22.7926c.1101.1936.2774.3466.6376.3466.1577 0 .3098-.0437.445-.153.1115-.0901.0965-.2053.0102-.2485l-.2306-.1317c-.2704.0874-.5693.0992-.8622.1866z" fill="#232026"/></g><g filter="url(#n)"><path d="m19.0418 23.2941.0018-.0011s.0001 0 .0002-.0001c.0526-.0314.1208-.0143.1524.0383.0316.0527.0144.121-.0382.1526l-.0003.0002-.0004.0002-.0012.0007-.0039.0023-.0135.0075c-.0114.0062-.0276.0146-.0481.0244-.0408.0194-.0991.0444-.1701.067-.141.045-.3381.0829-.5509.0453-.0605-.0107-.1009-.0684-.0902-.1289.0107-.0604.0684-.1008.1289-.0902.1654.0292.3242.0003.4446-.0381.0597-.019.1085-.04.142-.056.0167-.0079.0295-.0146.0378-.0191z" fill="#492f2e"/></g><g filter="url(#o)"><path clip-rule="evenodd" d="m16.0852 23.4838s-.0001 0 .0571-.0954l-.0571.0954c-.0527-.0316-.0698-.0999-.0382-.1526.0315-.0526.0997-.0697.1524-.0383 0 0 .0001.0001.0002.0001l.0018.0011c.0018.001.0049.0027.009.005.0083.0045.0211.0112.0379.0191.0335.016.0823.037.142.056.1204.0384.2792.0673.4446.0381.0605-.0106.1182.0298.1288.0902.0107.0605-.0297.1182-.0902.1289-.2128.0376-.4099-.0003-.5509-.0453-.0709-.0226-.1292-.0476-.1701-.067-.0204-.0098-.0367-.0182-.0481-.0244-.0057-.0031-.0102-.0057-.0134-.0075l-.0039-.0023-.0012-.0007-.0005-.0002z" fill="#492f2e" fill-rule="evenodd"/></g><path d="m16.6411 23.115c-.2709 0-.4997-.1868-.562-.4391-.0185-.0724.037-.1414.1111-.1414h.9253c.0589 0 .106.0539.0942.1128-.0521.2658-.286.4677-.5686.4677z" fill="#fff"/><path d="m16.7269 23.0022c-.2052 0-.3701-.1666-.3701-.3701 0-.0337.005-.0673.0134-.0976h.7151c.0084.0319.0135.0639.0135.0976 0 .2035-.1666.3701-.3719.3701z" fill="url(#ai)"/><path d="m16.9391 22.632c0 .1178-.0942.212-.212.212s-.212-.0942-.212-.212c0-.0353.0084-.069.0236-.0976h.3751c.0169.0286.0253.0623.0253.0976z" fill="#000"/><g filter="url(#p)"><path d="m16.7544 22.9239c-.0263-.0353.0288-.0782.0914-.1251.0626-.0468.1091-.0797.1354-.0445.0264.0352-.003.1018-.0657.1486-.0626.0468-.1347.0562-.1611.021z" fill="#c7a7a3"/><path d="m16.7544 22.9239c-.0263-.0353.0288-.0782.0914-.1251.0626-.0468.1091-.0797.1354-.0445.0264.0352-.003.1018-.0657.1486-.0626.0468-.1347.0562-.1611.021z" fill="url(#ak)"/></g><g filter="url(#q)"><path d="m16.3976 22.6808c.0137.0956.0696.1677.0959.1918l.1077-.1182-.0486-.0946z" fill="url(#am)"/></g><path d="m18.6245 23.115c.2709 0 .4997-.1868.562-.4391.0185-.0724-.037-.1414-.1111-.1414h-.9253c-.0589 0-.106.0539-.0942.1128.0521.2658.2877.4677.5686.4677z" fill="#fff"/><path d="m18.5387 23.0022c.2052 0 .3701-.1666.3701-.3701 0-.0337-.005-.0673-.0134-.0976h-.7151c-.0084.0319-.0135.0639-.0135.0976.0017.2035.1666.3701.3719.3701z" fill="url(#an)"/><path d="m18.3266 22.632c0 .1178.0942.212.212.212s.212-.0942.212-.212c0-.0353-.0084-.069-.0235-.0976h-.3752c-.0152.0286-.0253.0623-.0253.0976z" fill="#000"/><g filter="url(#r)"><path d="m18.2005 22.6757c0 .1195.0972.1991.1235.2232l.1195-.1156-.0736-.1497z" fill="url(#ao)"/></g><g filter="url(#s)"><ellipse cx="18.6503" cy="22.844" fill="#c7a7a3" fill-opacity=".9" rx=".161457" ry=".081712" transform="matrix(-.88365127 .46814574 -.46814574 -.88365127 45.824983 34.299071)"/><ellipse cx="18.6503" cy="22.844" fill="url(#ap)" rx=".161457" ry=".081712" transform="matrix(-.88365127 .46814574 -.46814574 -.88365127 45.824983 34.299071)"/></g><g filter="url(#t)"><path d="m16.8282 23.5408c-.1337.0326-.4664.0163-.6888-.1428" stroke="#4f363b" stroke-linecap="round" stroke-width=".1"/></g><g filter="url(#u)"><path d="m18.4005 23.5408c.1338.0326.4664.0163.6888-.1428" stroke="#4f363b" stroke-linecap="round" stroke-width=".1"/></g><g filter="url(#v)"><path d="m19.6626 25.051c-.2576.2294-.6291.2317-.8377.1947l-.1668-.5353c.1066.0162.2016-.0209.2815-.0973.1891-.5228.8389-.8111 1.1401-.8899.0626.6187.0278.9316-.4171 1.3278z" fill="url(#aq)"/></g><g filter="url(#w)" opacity=".4"><path d="m26.7162 4.09399-5.1094 6.00001" stroke="#b58c7b" stroke-width=".3"/></g><g filter="url(#x)"><path d="m17.883 25.7877c.4698.1038.9732-.3962 1.0219-.57-.2769-1.2585-1.1975-1.3235-2.6768-1.2232-.7093.0481-.9788-.3978-1.0344-.5415.1808 1.6823 1.6187 2.0984 2.6893 2.3347z" fill="url(#ar)"/><path d="m17.883 25.7877c.4698.1038.9732-.3962 1.0219-.57-.2769-1.2585-1.1975-1.3235-2.6768-1.2232-.7093.0481-.9788-.3978-1.0344-.5415.1808 1.6823 1.6187 2.0984 2.6893 2.3347z" fill="url(#as)"/></g><g filter="url(#y)"><path d="m20.6149 14.0635 2.5415-3.4946-2.3735-2.1678c-.1401.13393-.5045.49149-.8409.85029-1.1867 1.14931-2.7658 1.42961-3.7749 1.57911l-3.6068.4952v2.7378z" fill="#a59dae"/><path d="m20.6149 14.0635 2.5415-3.4946-2.3735-2.1678c-.1401.13393-.5045.49149-.8409.85029-1.1867 1.14931-2.7658 1.42961-3.7749 1.57911l-3.6068.4952v2.7378z" fill="url(#at)"/><path d="m20.6149 14.0635 2.5415-3.4946-2.3735-2.1678c-.1401.13393-.5045.49149-.8409.85029-1.1867 1.14931-2.7658 1.42961-3.7749 1.57911l-3.6068.4952v2.7378z" fill="url(#au)"/></g></svg>