<svg enable-background="new 0 0 128 128" viewBox="0 0 128 128" xmlns="http://www.w3.org/2000/svg"><g transform="scale(4)"><path d="m17.2308 5.84615-.1539.15385v2.07692h-2.0769l-2.4231 2.42308-.0769 2-2 .0769-2.42308 2.4231-.07692 2-1.99609.0781-.15776.1527c-2.46153 2.4615-2.46153 6.4615 0 8.923 2.46154 2.4616 6.46155 2.4616 8.92305 0l11.3846-11.3846c2.4616-2.4615 2.4616-6.46151 0-8.92305-2.4615-2.46153-6.4529-2.46153-8.923 0z" fill="#f3ad61"/><g fill="#fff3d7"><path d="m5.97412 17.1029 4.43858 4.4385c.6114.6114 1.5949.6114 2.2063 0 .6113-.6025.6113-1.5949 0-2.2063l-4.43859-4.4385z"/><path d="m10.4354 12.6416 4.443 4.443c.6114.6114 1.5949.6114 2.2063 0 .6025-.6114.6025-1.5949 0-2.2063l-4.443-4.443z"/><path d="m14.8967 8.18029 4.4386 4.43851c.6114.6114 1.5949.6114 2.2063 0s.6114-1.5949 0-2.2063l-4.4386-4.4385z"/></g></g></svg>