<svg fill="none" height="32" viewBox="0 0 32 32" width="32" xmlns="http://www.w3.org/2000/svg" xmlns:xlink="http://www.w3.org/1999/xlink"><filter id="a" color-interpolation-filters="sRGB" filterUnits="userSpaceOnUse" height="15.7682" width="15.2681" x="8.47595" y="1.66931"><feFlood flood-opacity="0" result="BackgroundImageFix"/><feBlend in="SourceGraphic" in2="BackgroundImageFix" mode="normal" result="shape"/><feColorMatrix in="SourceAlpha" result="hardAlpha" type="matrix" values="0 0 0 0 0 0 0 0 0 0 0 0 0 0 0 0 0 0 127 0"/><feOffset dx=".25" dy="-.75"/><feGaussianBlur stdDeviation=".75"/><feComposite in2="hardAlpha" k2="-1" k3="1" operator="arithmetic"/><feColorMatrix type="matrix" values="0 0 0 0 0.262745 0 0 0 0 0.133333 0 0 0 0 0.184314 0 0 0 1 0"/><feBlend in2="shape" mode="normal" result="effect1_innerShadow_4002_2100"/></filter><filter id="b" color-interpolation-filters="sRGB" filterUnits="userSpaceOnUse" height="14.5948" width="6.55582" x="9.21191" y="15.4178"><feFlood flood-opacity="0" result="BackgroundImageFix"/><feBlend in="SourceGraphic" in2="BackgroundImageFix" mode="normal" result="shape"/><feGaussianBlur result="effect1_foregroundBlur_4002_2100" stdDeviation=".5"/></filter><filter id="c" color-interpolation-filters="sRGB" filterUnits="userSpaceOnUse" height="13.3618" width="3.94995" x="17.96" y="15.8954"><feFlood flood-opacity="0" result="BackgroundImageFix"/><feBlend in="SourceGraphic" in2="BackgroundImageFix" mode="normal" result="shape"/><feGaussianBlur result="effect1_foregroundBlur_4002_2100" stdDeviation=".375"/></filter><filter id="d" color-interpolation-filters="sRGB" filterUnits="userSpaceOnUse" height="14" width="2.89681" x="10.5032" y="15.6606"><feFlood flood-opacity="0" result="BackgroundImageFix"/><feBlend in="SourceGraphic" in2="BackgroundImageFix" mode="normal" result="shape"/><feColorMatrix in="SourceAlpha" result="hardAlpha" type="matrix" values="0 0 0 0 0 0 0 0 0 0 0 0 0 0 0 0 0 0 127 0"/><feOffset dx=".1" dy=".1"/><feGaussianBlur stdDeviation=".1"/><feComposite in2="hardAlpha" k2="-1" k3="1" operator="arithmetic"/><feColorMatrix type="matrix" values="0 0 0 0 0.403922 0 0 0 0 0.368627 0 0 0 0 0.494118 0 0 0 1 0"/><feBlend in2="shape" mode="normal" result="effect1_innerShadow_4002_2100"/></filter><filter id="e" color-interpolation-filters="sRGB" filterUnits="userSpaceOnUse" height="2.88284" width="2.73357" x="14.6245" y="17.7978"><feFlood flood-opacity="0" result="BackgroundImageFix"/><feBlend in="SourceGraphic" in2="BackgroundImageFix" mode="normal" result="shape"/><feColorMatrix in="SourceAlpha" result="hardAlpha" type="matrix" values="0 0 0 0 0 0 0 0 0 0 0 0 0 0 0 0 0 0 127 0"/><feOffset dx=".1" dy="-.1"/><feGaussianBlur stdDeviation=".25"/><feComposite in2="hardAlpha" k2="-1" k3="1" operator="arithmetic"/><feColorMatrix type="matrix" values="0 0 0 0 0.156863 0 0 0 0 0.0980392 0 0 0 0 0.215686 0 0 0 1 0"/><feBlend in2="shape" mode="normal" result="effect1_innerShadow_4002_2100"/><feColorMatrix in="SourceAlpha" result="hardAlpha" type="matrix" values="0 0 0 0 0 0 0 0 0 0 0 0 0 0 0 0 0 0 127 0"/><feOffset dx="-.1" dy="-.1"/><feGaussianBlur stdDeviation=".25"/><feComposite in2="hardAlpha" k2="-1" k3="1" operator="arithmetic"/><feColorMatrix type="matrix" values="0 0 0 0 0.156863 0 0 0 0 0.0980392 0 0 0 0 0.215686 0 0 0 1 0"/><feBlend in2="effect1_innerShadow_4002_2100" mode="normal" result="effect2_innerShadow_4002_2100"/></filter><filter id="f" color-interpolation-filters="sRGB" filterUnits="userSpaceOnUse" height="14.05" width="2.90215" x="18.61" y="15.6107"><feFlood flood-opacity="0" result="BackgroundImageFix"/><feBlend in="SourceGraphic" in2="BackgroundImageFix" mode="normal" result="shape"/><feColorMatrix in="SourceAlpha" result="hardAlpha" type="matrix" values="0 0 0 0 0 0 0 0 0 0 0 0 0 0 0 0 0 0 127 0"/><feOffset dx="-.1" dy=".1"/><feGaussianBlur stdDeviation=".1"/><feComposite in2="hardAlpha" k2="-1" k3="1" operator="arithmetic"/><feColorMatrix type="matrix" values="0 0 0 0 0.439216 0 0 0 0 0.415686 0 0 0 0 0.584314 0 0 0 1 0"/><feBlend in2="shape" mode="normal" result="effect1_innerShadow_4002_2100"/></filter><filter id="g" color-interpolation-filters="sRGB" filterUnits="userSpaceOnUse" height="3.21814" width="3.36817" x="9.69031" y="9.33838"><feFlood flood-opacity="0" result="BackgroundImageFix"/><feBlend in="SourceGraphic" in2="BackgroundImageFix" mode="normal" result="shape"/><feColorMatrix in="SourceAlpha" result="hardAlpha" type="matrix" values="0 0 0 0 0 0 0 0 0 0 0 0 0 0 0 0 0 0 127 0"/><feOffset dx=".15"/><feGaussianBlur stdDeviation=".25"/><feComposite in2="hardAlpha" k2="-1" k3="1" operator="arithmetic"/><feColorMatrix type="matrix" values="0 0 0 0 0.607843 0 0 0 0 0.458824 0 0 0 0 0.403922 0 0 0 1 0"/><feBlend in2="shape" mode="normal" result="effect1_innerShadow_4002_2100"/></filter><filter id="h" color-interpolation-filters="sRGB" filterUnits="userSpaceOnUse" height="3.46814" width="3.21817" x="19.2031" y="9.08838"><feFlood flood-opacity="0" result="BackgroundImageFix"/><feBlend in="SourceGraphic" in2="BackgroundImageFix" mode="normal" result="shape"/><feColorMatrix in="SourceAlpha" result="hardAlpha" type="matrix" values="0 0 0 0 0 0 0 0 0 0 0 0 0 0 0 0 0 0 127 0"/><feOffset dy="-.25"/><feGaussianBlur stdDeviation=".25"/><feComposite in2="hardAlpha" k2="-1" k3="1" operator="arithmetic"/><feColorMatrix type="matrix" values="0 0 0 0 0.556863 0 0 0 0 0.34902 0 0 0 0 0.384314 0 0 0 1 0"/><feBlend in2="shape" mode="normal" result="effect1_innerShadow_4002_2100"/></filter><filter id="i" color-interpolation-filters="sRGB" filterUnits="userSpaceOnUse" height="3.14819" width="3.14822" x="19.2382" y="9.37329"><feFlood flood-opacity="0" result="BackgroundImageFix"/><feBlend in="SourceGraphic" in2="BackgroundImageFix" mode="normal" result="shape"/><feGaussianBlur result="effect1_foregroundBlur_4002_2100" stdDeviation=".25"/></filter><filter id="j" color-interpolation-filters="sRGB" filterUnits="userSpaceOnUse" height="2.84819" width="2.84822" x="9.89451" y="9.52329"><feFlood flood-opacity="0" result="BackgroundImageFix"/><feBlend in="SourceGraphic" in2="BackgroundImageFix" mode="normal" result="shape"/><feGaussianBlur result="effect1_foregroundBlur_4002_2100" stdDeviation=".175"/></filter><filter id="k" color-interpolation-filters="sRGB" filterUnits="userSpaceOnUse" height="11.1268" width="10.1909" x="10.8895" y="6.04053"><feFlood flood-opacity="0" result="BackgroundImageFix"/><feBlend in="SourceGraphic" in2="BackgroundImageFix" mode="normal" result="shape"/><feColorMatrix in="SourceAlpha" result="hardAlpha" type="matrix" values="0 0 0 0 0 0 0 0 0 0 0 0 0 0 0 0 0 0 127 0"/><feOffset dy=".25"/><feGaussianBlur stdDeviation=".15"/><feComposite in2="hardAlpha" k2="-1" k3="1" operator="arithmetic"/><feColorMatrix type="matrix" values="0 0 0 0 0.407843 0 0 0 0 0.223529 0 0 0 0 0.25098 0 0 0 1 0"/><feBlend in2="shape" mode="normal" result="effect1_innerShadow_4002_2100"/></filter><filter id="l" color-interpolation-filters="sRGB" filterUnits="userSpaceOnUse" height="3.68176" width="2.87726" x="14.384" y="9.94226"><feFlood flood-opacity="0" result="BackgroundImageFix"/><feBlend in="SourceGraphic" in2="BackgroundImageFix" mode="normal" result="shape"/><feGaussianBlur result="effect1_foregroundBlur_4002_2100" stdDeviation=".25"/></filter><filter id="m" color-interpolation-filters="sRGB" filterUnits="userSpaceOnUse" height="3.18176" width="2.37726" x="14.7964" y="10.0538"><feFlood flood-opacity="0" result="BackgroundImageFix"/><feBlend in="SourceGraphic" in2="BackgroundImageFix" mode="normal" result="shape"/><feGaussianBlur result="effect1_foregroundBlur_4002_2100" stdDeviation=".125"/></filter><filter id="n" color-interpolation-filters="sRGB" filterUnits="userSpaceOnUse" height="1.2854" width="3.00139" x="16.9271" y="9.54285"><feFlood flood-opacity="0" result="BackgroundImageFix"/><feBlend in="SourceGraphic" in2="BackgroundImageFix" mode="normal" result="shape"/><feColorMatrix in="SourceAlpha" result="hardAlpha" type="matrix" values="0 0 0 0 0 0 0 0 0 0 0 0 0 0 0 0 0 0 127 0"/><feOffset dx="-.2"/><feGaussianBlur stdDeviation=".2"/><feComposite in2="hardAlpha" k2="-1" k3="1" operator="arithmetic"/><feColorMatrix type="matrix" values="0 0 0 0 0.117647 0 0 0 0 0.0705882 0 0 0 0 0.156863 0 0 0 1 0"/><feBlend in2="shape" mode="normal" result="effect1_innerShadow_4002_2100"/></filter><filter id="o" color-interpolation-filters="sRGB" filterUnits="userSpaceOnUse" height="1.2854" width="3.00139" x="12.0417" y="9.54285"><feFlood flood-opacity="0" result="BackgroundImageFix"/><feBlend in="SourceGraphic" in2="BackgroundImageFix" mode="normal" result="shape"/><feColorMatrix in="SourceAlpha" result="hardAlpha" type="matrix" values="0 0 0 0 0 0 0 0 0 0 0 0 0 0 0 0 0 0 127 0"/><feOffset dx=".2"/><feGaussianBlur stdDeviation=".125"/><feComposite in2="hardAlpha" k2="-1" k3="1" operator="arithmetic"/><feColorMatrix type="matrix" values="0 0 0 0 0.0862745 0 0 0 0 0.054902 0 0 0 0 0.113725 0 0 0 1 0"/><feBlend in2="shape" mode="normal" result="effect1_innerShadow_4002_2100"/></filter><filter id="p" color-interpolation-filters="sRGB" filterUnits="userSpaceOnUse" height="1.09099" width="2.45278" x="12.1769" y="8.11921"><feFlood flood-opacity="0" result="BackgroundImageFix"/><feBlend in="SourceGraphic" in2="BackgroundImageFix" mode="normal" result="shape"/><feColorMatrix in="SourceAlpha" result="hardAlpha" type="matrix" values="0 0 0 0 0 0 0 0 0 0 0 0 0 0 0 0 0 0 127 0"/><feOffset dx=".2" dy="-.2"/><feGaussianBlur stdDeviation=".15"/><feComposite in2="hardAlpha" k2="-1" k3="1" operator="arithmetic"/><feColorMatrix type="matrix" values="0 0 0 0 0.211765 0 0 0 0 0.121569 0 0 0 0 0.12549 0 0 0 1 0"/><feBlend in2="shape" mode="normal" result="effect1_innerShadow_4002_2100"/></filter><filter id="q" color-interpolation-filters="sRGB" filterUnits="userSpaceOnUse" height="1.09111" width="2.45278" x="17.5941" y="8.11921"><feFlood flood-opacity="0" result="BackgroundImageFix"/><feBlend in="SourceGraphic" in2="BackgroundImageFix" mode="normal" result="shape"/><feColorMatrix in="SourceAlpha" result="hardAlpha" type="matrix" values="0 0 0 0 0 0 0 0 0 0 0 0 0 0 0 0 0 0 127 0"/><feOffset dx=".2" dy="-.2"/><feGaussianBlur stdDeviation=".15"/><feComposite in2="hardAlpha" k2="-1" k3="1" operator="arithmetic"/><feColorMatrix type="matrix" values="0 0 0 0 0.211765 0 0 0 0 0.121569 0 0 0 0 0.12549 0 0 0 1 0"/><feBlend in2="shape" mode="normal" result="effect1_innerShadow_4002_2100"/></filter><filter id="r" color-interpolation-filters="sRGB" filterUnits="userSpaceOnUse" height=".696338" width=".786823" x="17.4329" y="9.9105"><feFlood flood-opacity="0" result="BackgroundImageFix"/><feBlend in="SourceGraphic" in2="BackgroundImageFix" mode="normal" result="shape"/><feGaussianBlur result="effect1_foregroundBlur_4002_2100" stdDeviation=".05"/></filter><filter id="s" color-interpolation-filters="sRGB" filterUnits="userSpaceOnUse" height=".913428" width=".891241" x="18.2728" y="9.98555"><feFlood flood-opacity="0" result="BackgroundImageFix"/><feBlend in="SourceGraphic" in2="BackgroundImageFix" mode="normal" result="shape"/><feGaussianBlur result="effect1_foregroundBlur_4002_2100" stdDeviation=".1"/></filter><filter id="t" color-interpolation-filters="sRGB" filterUnits="userSpaceOnUse" height="1.04014" width=".986304" x="13.8299" y="9.92219"><feFlood flood-opacity="0" result="BackgroundImageFix"/><feBlend in="SourceGraphic" in2="BackgroundImageFix" mode="normal" result="shape"/><feGaussianBlur result="effect1_foregroundBlur_4002_2100" stdDeviation=".1"/></filter><filter id="u" color-interpolation-filters="sRGB" filterUnits="userSpaceOnUse" height=".704517" width=".913043" x="13.0751" y="9.90244"><feFlood flood-opacity="0" result="BackgroundImageFix"/><feBlend in="SourceGraphic" in2="BackgroundImageFix" mode="normal" result="shape"/><feGaussianBlur result="effect1_foregroundBlur_4002_2100" stdDeviation=".05"/></filter><filter id="v" color-interpolation-filters="sRGB" filterUnits="userSpaceOnUse" height="1.37776" width="2.66081" x="17.4245" y="8.04141"><feFlood flood-opacity="0" result="BackgroundImageFix"/><feBlend in="SourceGraphic" in2="BackgroundImageFix" mode="normal" result="shape"/><feGaussianBlur result="effect1_foregroundBlur_4002_2100" stdDeviation=".2"/></filter><filter id="w" color-interpolation-filters="sRGB" filterUnits="userSpaceOnUse" height="1.37776" width="2.66081" x="11.9729" y="8.04141"><feFlood flood-opacity="0" result="BackgroundImageFix"/><feBlend in="SourceGraphic" in2="BackgroundImageFix" mode="normal" result="shape"/><feGaussianBlur result="effect1_foregroundBlur_4002_2100" stdDeviation=".2"/></filter><filter id="x" color-interpolation-filters="sRGB" filterUnits="userSpaceOnUse" height="4.61338" width="4.3118" x="9.63064" y="4.00564"><feFlood flood-opacity="0" result="BackgroundImageFix"/><feBlend in="SourceGraphic" in2="BackgroundImageFix" mode="normal" result="shape"/><feColorMatrix in="SourceAlpha" result="hardAlpha" type="matrix" values="0 0 0 0 0 0 0 0 0 0 0 0 0 0 0 0 0 0 127 0"/><feOffset dx=".5" dy=".5"/><feGaussianBlur stdDeviation=".5"/><feComposite in2="hardAlpha" k2="-1" k3="1" operator="arithmetic"/><feColorMatrix type="matrix" values="0 0 0 0 0.345098 0 0 0 0 0.286275 0 0 0 0 0.27451 0 0 0 1 0"/><feBlend in2="shape" mode="normal" result="effect1_innerShadow_4002_2100"/><feGaussianBlur result="effect2_foregroundBlur_4002_2100" stdDeviation=".2"/></filter><filter id="y" color-interpolation-filters="sRGB" filterUnits="userSpaceOnUse" height="5.78198" width="8.76732" x="12.8146" y="2.87109"><feFlood flood-opacity="0" result="BackgroundImageFix"/><feBlend in="SourceGraphic" in2="BackgroundImageFix" mode="normal" result="shape"/><feColorMatrix in="SourceAlpha" result="hardAlpha" type="matrix" values="0 0 0 0 0 0 0 0 0 0 0 0 0 0 0 0 0 0 127 0"/><feOffset dx="-.3" dy=".2"/><feGaussianBlur stdDeviation=".4"/><feComposite in2="hardAlpha" k2="-1" k3="1" operator="arithmetic"/><feColorMatrix type="matrix" values="0 0 0 0 0.415686 0 0 0 0 0.317647 0 0 0 0 0.305882 0 0 0 1 0"/><feBlend in2="shape" mode="normal" result="effect1_innerShadow_4002_2100"/><feGaussianBlur result="effect2_foregroundBlur_4002_2100" stdDeviation=".125"/></filter><filter id="z" color-interpolation-filters="sRGB" filterUnits="userSpaceOnUse" height="2.30967" width="1.14478" x="12.7937" y="4.10554"><feFlood flood-opacity="0" result="BackgroundImageFix"/><feBlend in="SourceGraphic" in2="BackgroundImageFix" mode="normal" result="shape"/><feGaussianBlur result="effect1_foregroundBlur_4002_2100" stdDeviation=".1"/></filter><filter id="A" color-interpolation-filters="sRGB" filterUnits="userSpaceOnUse" height="3.37195" width="6.42719" x="15.4033" y="4.9137"><feFlood flood-opacity="0" result="BackgroundImageFix"/><feBlend in="SourceGraphic" in2="BackgroundImageFix" mode="normal" result="shape"/><feGaussianBlur result="effect1_foregroundBlur_4002_2100" stdDeviation=".375"/></filter><linearGradient id="B" gradientUnits="userSpaceOnUse" x1="20.6783" x2="14.5435" y1="3.99489" y2="14.7556"><stop offset="0" stop-color="#6d524e"/><stop offset="1" stop-color="#2c1c24"/></linearGradient><radialGradient id="C" cx="0" cy="0" gradientTransform="matrix(-.603403 4.55907251 -5.69521476 -.75377386 15.6834 13.4483)" gradientUnits="userSpaceOnUse" r="1"><stop offset=".590551" stop-color="#261326"/><stop offset="1" stop-color="#261326" stop-opacity="0"/></radialGradient><radialGradient id="D" cx="0" cy="0" gradientTransform="matrix(-2.88301442 1.94432495 -2.55469352 -3.78805932 12.8675 13.7165)" gradientUnits="userSpaceOnUse" r="1"><stop offset=".258378" stop-color="#25131c"/><stop offset="1" stop-color="#25131c" stop-opacity="0"/></radialGradient><radialGradient id="E" cx="0" cy="0" gradientTransform="matrix(-1.30737385 1.70966478 -1.31278583 -1.0038821 11.1411 11.1687)" gradientUnits="userSpaceOnUse" r="1"><stop offset=".333546" stop-color="#27141e"/><stop offset="1" stop-color="#27141e" stop-opacity="0"/></radialGradient><radialGradient id="F" cx="0" cy="0" gradientTransform="matrix(-1.29063607 2.11191395 -1.48765585 -.90913851 11.5936 9.14061)" gradientUnits="userSpaceOnUse" r="1"><stop offset=".320588" stop-color="#230c14"/><stop offset="1" stop-color="#230c14" stop-opacity="0"/></radialGradient><radialGradient id="G" cx="0" cy="0" gradientTransform="matrix(1.37443043 2.61476537 -3.62969432 1.90791969 12.4651 2.88864)" gradientUnits="userSpaceOnUse" r="1"><stop offset="0" stop-color="#554543"/><stop offset="1" stop-color="#554543" stop-opacity="0"/></radialGradient><radialGradient id="H" cx="0" cy="0" gradientTransform="matrix(-1.44137979 1.44148042 -2.01444783 -2.0143072 21.818 4.96705)" gradientUnits="userSpaceOnUse" r="1"><stop offset="0" stop-color="#6e5350"/><stop offset="1" stop-color="#6e5350" stop-opacity="0"/></radialGradient><radialGradient id="I" cx="0" cy="0" gradientTransform="matrix(-1.84366344 .5363666 -1.11855104 -3.84481747 23.4941 10.096)" gradientUnits="userSpaceOnUse" r="1"><stop offset="0" stop-color="#604947"/><stop offset="1" stop-color="#604947" stop-opacity="0"/></radialGradient><radialGradient id="J" cx="0" cy="0" gradientTransform="matrix(-2.81580991 .70399198 -.8967816 -3.58692513 22.8907 13.5153)" gradientUnits="userSpaceOnUse" r="1"><stop offset="0" stop-color="#564544"/><stop offset="1" stop-color="#564544" stop-opacity="0"/></radialGradient><radialGradient id="K" cx="0" cy="0" gradientTransform="matrix(-.90444277 -2.65026176 2.09620663 -.7153629 20.7176 7.662)" gradientUnits="userSpaceOnUse" r="1"><stop offset="0" stop-color="#5f4846"/><stop offset="1" stop-color="#5f4846" stop-opacity="0"/></radialGradient><radialGradient id="L" cx="0" cy="0" gradientTransform="matrix(1.50391889 .15775324 -.25560559 2.43678083 9.84315 10.0599)" gradientUnits="userSpaceOnUse" r="1"><stop offset="0" stop-color="#56413d"/><stop offset="1" stop-color="#56413d" stop-opacity="0"/></radialGradient><radialGradient id="M" cx="0" cy="0" gradientTransform="matrix(-.83805087 -3.70425259 1.33694154 -.30246993 21.0972 9.40878)" gradientUnits="userSpaceOnUse" r="1"><stop offset="0" stop-color="#3e2125"/><stop offset="1" stop-color="#3e2125" stop-opacity="0"/></radialGradient><linearGradient id="N" gradientUnits="userSpaceOnUse" x1="15.9999" x2="15.9999" y1="15.8822" y2="30.8197"><stop offset="0" stop-color="#534973"/><stop offset="1" stop-color="#584982"/></linearGradient><radialGradient id="O" cx="0" cy="0" gradientTransform="matrix(0 -16.4313 6.37009 0 22.9949 25.0635)" gradientUnits="userSpaceOnUse" r="1"><stop offset=".155797" stop-color="#7b74a6"/><stop offset="1" stop-color="#5f5490" stop-opacity="0"/></radialGradient><radialGradient id="P" cx="0" cy="0" gradientTransform="matrix(0 10.1215 -4.59696 0 16 22.6357)" gradientUnits="userSpaceOnUse" r="1"><stop offset=".397031" stop-color="#c6bbd1"/><stop offset="1" stop-color="#a89cb3"/></radialGradient><linearGradient id="Q" gradientUnits="userSpaceOnUse" x1="18.9031" x2="17.0593" y1="24.8822" y2="24.8822"><stop offset="0" stop-color="#7a6c85"/><stop offset="1" stop-color="#c7bcd2" stop-opacity="0"/></linearGradient><linearGradient id="R" gradientUnits="userSpaceOnUse" x1="15.5906" x2="15.6687" y1="17.4291" y2="21.3197"><stop offset="0" stop-color="#877f93"/><stop offset="1" stop-color="#877f93" stop-opacity="0"/></linearGradient><radialGradient id="S" cx="0" cy="0" gradientTransform="matrix(0 -10.3135 1.68433 0 25 29.5706)" gradientUnits="userSpaceOnUse" r="1"><stop offset="0" stop-color="#776d9f"/><stop offset="1" stop-color="#6d6193"/></radialGradient><linearGradient id="T" gradientUnits="userSpaceOnUse" x1="23" x2="23.7438" y1="29.0576" y2="29.0338"><stop offset=".275571" stop-color="#504176"/><stop offset="1" stop-color="#504176" stop-opacity="0"/></linearGradient><linearGradient id="U" gradientUnits="userSpaceOnUse" x1="11.9016" x2="11.9016" y1="15.6606" y2="29.5606"><stop offset="0" stop-color="#544a76"/><stop offset=".524033" stop-color="#5f5289"/></linearGradient><linearGradient id="V" gradientUnits="userSpaceOnUse" x1="13.6709" x2="13.0501" y1="22.12" y2="22.12"><stop offset="0" stop-color="#3e305b"/><stop offset="1" stop-color="#553a63" stop-opacity="0"/></linearGradient><radialGradient id="W" cx="0" cy="0" gradientTransform="matrix(-1.53126491 2.09374127 -2.90145657 -2.12199027 13.7156 15.9447)" gradientUnits="userSpaceOnUse" r="1"><stop offset="0" stop-color="#3c2e57"/><stop offset="1" stop-color="#3c2e57" stop-opacity="0"/></radialGradient><linearGradient id="X" gradientUnits="userSpaceOnUse" x1="11.9016" x2="12.8388" y1="25.5367" y2="25.1352"><stop offset=".195813" stop-color="#55477c"/><stop offset="1" stop-color="#594c7d" stop-opacity="0"/></linearGradient><radialGradient id="Y" cx="0" cy="0" gradientTransform="matrix(1.0937527 -.31250086 .15357602 .53751591 11.3953 19.3275)" gradientUnits="userSpaceOnUse" r="1"><stop offset=".241347" stop-color="#4b3b6d"/><stop offset="1" stop-color="#4b3b6d" stop-opacity="0"/></radialGradient><linearGradient id="Z" gradientUnits="userSpaceOnUse" x1="15.9884" x2="15.9884" y1="18.5541" y2="20.5385"><stop offset=".00558659" stop-color="#4b375e"/><stop offset="1" stop-color="#483b55"/></linearGradient><linearGradient id="aa" gradientUnits="userSpaceOnUse" x1="18.71" x2="20.111" y1="21.1675" y2="21.1675"><stop offset=".0932249" stop-color="#453d68"/><stop offset="1" stop-color="#625a91" stop-opacity="0"/></linearGradient><radialGradient id="ab" cx="0" cy="0" gradientTransform="matrix(0 3.75 -4.3769 0 15.9999 18.0853)" gradientUnits="userSpaceOnUse" r="1"><stop offset=".3625" stop-color="#cac3d3"/><stop offset="1" stop-color="#a093a3"/></radialGradient><radialGradient id="ac" cx="0" cy="0" gradientTransform="matrix(0 -5.1875 6.81546 0 15.9999 20.5824)" gradientUnits="userSpaceOnUse" r="1"><stop offset=".532569" stop-color="#837a8d" stop-opacity="0"/><stop offset=".875943" stop-color="#544a5f"/></radialGradient><linearGradient id="ad" gradientUnits="userSpaceOnUse" x1="9.45187" x2="7.01987" y1="23.578" y2="23.578"><stop offset="0" stop-color="#41375c"/><stop offset="1" stop-color="#584a7e" stop-opacity="0"/></linearGradient><radialGradient id="ae" cx="0" cy="0" gradientTransform="matrix(0 8.8125 -3.45478 0 15.9829 20.976)" gradientUnits="userSpaceOnUse" r="1"><stop offset=".00558659" stop-color="#56406d"/><stop offset=".939716" stop-color="#3d3247"/></radialGradient><linearGradient id="af"><stop offset="0" stop-color="#2b1b3a"/><stop offset="1" stop-color="#2b1b3a" stop-opacity="0"/></linearGradient><linearGradient id="ag" gradientUnits="userSpaceOnUse" x1="14.6062" x2="14.8992" xlink:href="#af" y1="24.4408" y2="24.4799"/><linearGradient id="ah" gradientUnits="userSpaceOnUse" x1="17.4109" x2="17.0125" xlink:href="#af" y1="24.2572" y2="24.3041"/><radialGradient id="ai" cx="0" cy="0" gradientTransform="matrix(0 1.3026 -2.71576 0 16.0294 16.8314)" gradientUnits="userSpaceOnUse" r="1"><stop offset="0" stop-color="#815356"/><stop offset="1" stop-color="#865d57"/></radialGradient><linearGradient id="aj"><stop offset=".00558659" stop-color="#ccc"/><stop offset="1" stop-color="#e6e6e6"/></linearGradient><linearGradient id="ak" gradientUnits="userSpaceOnUse" x1="8.86228" x2="23.2383" xlink:href="#aj" y1="15.8996" y2="15.8996"/><linearGradient id="al" gradientUnits="userSpaceOnUse" x1="8.86228" x2="23.2383" xlink:href="#aj" y1="15.8693" y2="15.8693"/><linearGradient id="am" gradientUnits="userSpaceOnUse" x1="9.69031" x2="11.5477" y1="11.0346" y2="11.0346"><stop offset="0" stop-color="#8d645f"/><stop offset="1" stop-color="#604138"/></linearGradient><radialGradient id="an" cx="0" cy="0" gradientTransform="matrix(-.65369806 -1.20346111 1.36368065 -.74072638 10.9064 12.5566)" gradientUnits="userSpaceOnUse" r="1"><stop offset="0" stop-color="#814e62"/><stop offset="1" stop-color="#814e62" stop-opacity="0"/></radialGradient><radialGradient id="ao" cx="0" cy="0" gradientTransform="matrix(2.4890503 -1.13138887 1.38137594 3.0390207 20.0245 11.3866)" gradientUnits="userSpaceOnUse" r="1"><stop offset=".63975" stop-color="#b28279"/><stop offset="1" stop-color="#cca58b"/></radialGradient><radialGradient id="ap" cx="0" cy="0" gradientTransform="matrix(1.20681 0 0 .519601 20.9295 9.24116)" gradientUnits="userSpaceOnUse" r="1"><stop offset="0" stop-color="#906d53"/><stop offset="1" stop-color="#906d53" stop-opacity="0"/></radialGradient><radialGradient id="aq" cx="0" cy="0" gradientTransform="matrix(1.50988852 -.11231354 .08779841 1.18031905 20.3765 11.0597)" gradientUnits="userSpaceOnUse" r="1"><stop offset=".719132" stop-color="#a26d62" stop-opacity="0"/><stop offset="1" stop-color="#a26d62"/></radialGradient><radialGradient id="ar" cx="0" cy="0" gradientTransform="matrix(-1.05596 0 0 -1.05596 11.384 10.9474)" gradientUnits="userSpaceOnUse" r="1"><stop offset=".722222" stop-color="#6c4640" stop-opacity="0"/><stop offset="1" stop-color="#6c4640"/></radialGradient><radialGradient id="as" cx="0" cy="0" gradientTransform="matrix(-6.50358035 2.99901745 -4.01413361 -8.70493118 18.8442 10.4099)" gradientUnits="userSpaceOnUse" r="1"><stop offset="0" stop-color="#c79980"/><stop offset="1" stop-color="#946568"/></radialGradient><radialGradient id="at" cx="0" cy="0" gradientTransform="matrix(-2.18028266 .95939275 -.66810674 -1.51831617 17.9558 11.2638)" gradientUnits="userSpaceOnUse" r="1"><stop offset="0" stop-color="#c4967a"/><stop offset="1" stop-color="#c4967a" stop-opacity="0"/></radialGradient><radialGradient id="au" cx="0" cy="0" gradientTransform="matrix(1.28914866 -3.92836106 4.9843632 1.63569109 13.8229 16.9173)" gradientUnits="userSpaceOnUse" r="1"><stop offset="0" stop-color="#945a73"/><stop offset="1" stop-color="#945a73" stop-opacity="0"/></radialGradient><radialGradient id="av" cx="0" cy="0" gradientTransform="matrix(-1.28467914 7.37318771 -9.21639843 -1.6058339 17.0079 9.99359)" gradientUnits="userSpaceOnUse" r="1"><stop offset=".636944" stop-color="#8d5e67" stop-opacity="0"/><stop offset=".954878" stop-color="#764c51"/></radialGradient><radialGradient id="aw" cx="0" cy="0" gradientTransform="matrix(-6.90566823 1.35521374 -2.33325718 -11.88941602 17.7952 12.1408)" gradientUnits="userSpaceOnUse" r="1"><stop offset=".794964" stop-color="#9a7267" stop-opacity="0"/><stop offset="1" stop-color="#9a7267"/></radialGradient><radialGradient id="ax" cx="0" cy="0" gradientTransform="matrix(0 -1.15077 1.41231 0 18.2863 9.99139)" gradientUnits="userSpaceOnUse" r="1"><stop offset="0" stop-color="#ae7b75"/><stop offset="1" stop-color="#ae7b75" stop-opacity="0"/></radialGradient><radialGradient id="ay" cx="0" cy="0" gradientTransform="matrix(0 -1.31251 1.50423 0 13.9085 9.76283)" gradientUnits="userSpaceOnUse" r="1"><stop offset="0" stop-color="#8f5c65"/><stop offset="1" stop-color="#8f5c65" stop-opacity="0"/></radialGradient><radialGradient id="az" cx="0" cy="0" gradientTransform="matrix(-.87015814 3.22674072 -2.58192553 -.69627024 17.3682 7.67545)" gradientUnits="userSpaceOnUse" r="1"><stop offset="0" stop-color="#ab8179"/><stop offset="1" stop-color="#ab8179" stop-opacity="0"/></radialGradient><radialGradient id="aA" cx="0" cy="0" gradientTransform="matrix(-1.28528 0 0 -6.44557 21.0804 11.4789)" gradientUnits="userSpaceOnUse" r="1"><stop offset="0" stop-color="#c0967a"/><stop offset="1" stop-color="#c0967a" stop-opacity="0"/></radialGradient><radialGradient id="aB" cx="0" cy="0" gradientTransform="matrix(-.45554265 -2.04401248 .62994599 -.14039409 16.7694 12.2059)" gradientUnits="userSpaceOnUse" r="1"><stop offset=".0168227" stop-color="#cda38b"/><stop offset="1" stop-color="#cda38b" stop-opacity="0"/></radialGradient><linearGradient id="aC" gradientUnits="userSpaceOnUse" x1="15.0464" x2="15.985" y1="12.2787" y2="12.2787"><stop offset="0" stop-color="#875f54"/><stop offset="1" stop-color="#875f54" stop-opacity="0"/></linearGradient><linearGradient id="aD" gradientUnits="userSpaceOnUse" x1="15.985" x2="15.985" y1="12.9856" y2="12.3588"><stop offset="0" stop-color="#995c76"/><stop offset="1" stop-color="#995c76" stop-opacity="0"/></linearGradient><radialGradient id="aE" cx="0" cy="0" gradientTransform="matrix(-.779401 0 0 -.217897 16.5298 12.4174)" gradientUnits="userSpaceOnUse" r="1"><stop offset="0" stop-color="#ca9f8c"/><stop offset="1" stop-color="#ca9f8c" stop-opacity="0"/></radialGradient><linearGradient id="aF" gradientUnits="userSpaceOnUse" x1="16.0632" x2="16.0632" y1="13.0515" y2="12.912"><stop offset="0" stop-color="#8f5269"/><stop offset="1" stop-color="#8f5269" stop-opacity="0"/></linearGradient><radialGradient id="aG" cx="0" cy="0" gradientTransform="matrix(-1.37121278 .94138693 -1.13140076 -1.64798463 16.3621 11.8224)" gradientUnits="userSpaceOnUse" r="1"><stop offset=".777645" stop-color="#815553" stop-opacity="0"/><stop offset="1" stop-color="#693b40"/><stop offset="1" stop-color="#815553"/></radialGradient><linearGradient id="aH" gradientUnits="userSpaceOnUse" x1="14.9206" x2="15.3815" y1="14.4874" y2="13.775"><stop offset="0" stop-color="#a87d7b"/><stop offset=".663171" stop-color="#a87d7b" stop-opacity="0"/></linearGradient><linearGradient id="aI"><stop offset=".80198" stop-color="#7d574a"/><stop offset="1" stop-color="#694b43"/><stop offset="1" stop-color="#804d49"/><stop offset="1" stop-color="#664944"/></linearGradient><radialGradient id="aJ" cx="0" cy="0" gradientTransform="matrix(0 .811316 -1.29049 0 18.1671 10.3503)" gradientUnits="userSpaceOnUse" r="1" xlink:href="#aI"/><linearGradient id="aK"><stop offset=".765532" stop-color="#ffe6e2" stop-opacity="0"/><stop offset=".966159" stop-color="#ffe6e2"/></linearGradient><radialGradient id="aL" cx="0" cy="0" gradientTransform="matrix(-.23191676 -.29885601 .41145298 -.31929369 17.9388 10.4345)" gradientUnits="userSpaceOnUse" r="1" xlink:href="#aK"/><linearGradient id="aM"><stop offset="0" stop-color="#b4948d"/><stop offset="1" stop-color="#b4948d" stop-opacity="0"/></linearGradient><linearGradient id="aN" gradientUnits="userSpaceOnUse" x1="18.945" x2="18.6312" xlink:href="#aM" y1="10.4042" y2="10.5975"/><radialGradient id="aO" cx="0" cy="0" gradientTransform="matrix(0 .811321 -1.2905 0 13.8029 10.3503)" gradientUnits="userSpaceOnUse" r="1" xlink:href="#aI"/><linearGradient id="aP" gradientUnits="userSpaceOnUse" x1="14.5467" x2="14.233" xlink:href="#aM" y1="10.4043" y2="10.5976"/><radialGradient id="aQ" cx="0" cy="0" gradientTransform="matrix(-.00773543 -.49405945 .59387921 -.0092983 13.5166 10.5696)" gradientUnits="userSpaceOnUse" r="1" xlink:href="#aK"/><radialGradient id="aR" cx="0" cy="0" gradientTransform="matrix(1.26202682 -2.75542559 1.40961118 .64562336 10.3269 8.22989)" gradientUnits="userSpaceOnUse" r="1"><stop offset="0" stop-color="#5c4643"/><stop offset="1" stop-color="#5c4643" stop-opacity="0"/></radialGradient><radialGradient id="aS" cx="0" cy="0" gradientTransform="matrix(1.14952278 -1.97523647 1.06043487 .61713828 12.0346 7.24945)" gradientUnits="userSpaceOnUse" r="1"><stop offset="0" stop-color="#4b2839"/><stop offset="1" stop-color="#4b2839" stop-opacity="0"/></radialGradient><radialGradient id="aT" cx="0" cy="0" gradientTransform="matrix(-2.11195111 4.39144816 -7.17976405 -3.45291806 17.8959 3.02273)" gradientUnits="userSpaceOnUse" r="1"><stop offset=".639192" stop-color="#442534" stop-opacity="0"/><stop offset="1" stop-color="#442534"/></radialGradient><radialGradient id="aU" cx="0" cy="0" gradientTransform="matrix(-.21033618 1.36719503 -2.94145397 -.45252811 16.1953 3.39214)" gradientUnits="userSpaceOnUse" r="1"><stop offset="0" stop-color="#634945"/><stop offset="1" stop-color="#4c4749" stop-opacity="0"/><stop offset="1" stop-color="#634945" stop-opacity="0"/></radialGradient><linearGradient id="aV" gradientUnits="userSpaceOnUse" x1="12.8764" x2="13.3661" y1="3.99516" y2="5.26034"><stop offset="0" stop-color="#361f1f"/><stop offset="1" stop-color="#452531"/></linearGradient><g clip-rule="evenodd" fill-rule="evenodd" filter="url(#a)"><path d="m23.1702 12.3572c.2126-.4352.3239-.9209.3239-1.4269 0-.4674-.0962-.9058-.2686-1.30552h.0054c-.0805-.18099-.1709-.35199-.2813-.513l-.002-.00312c-.3441-.52625-.5262-1.14357-.5262-1.77101v-.01012c0-1.82161-1.4776-3.29913-3.2992-3.29913-.1821 0-.3542-.08096-.4554-.23276-.5971-.82985-1.5788-1.37633-2.6819-1.37633s-2.0847.54648-2.6818 1.37633c-.1012.14168-.2732.23276-.4554.23276-.0284 0-.0568.00036-.085.00108-1.7824.04512-3.21413 1.50487-3.21413 3.29805v.01012c0 .62744-.18216 1.24476-.52624 1.77101l-.00229.00367c-.34263.52544-.54409 1.14147-.54409 1.81797 0 .5161.12144.9917.32384 1.4269.07084.1417.07084.3137 0 .4554-.2024.425-.32384.9007-.32384 1.4067 0 1.7811 1.43705 3.2181 3.21815 3.2181h8.5818c1.7811 0 3.2182-1.437 3.2182-3.2181 0-.506-.1215-.9817-.3239-1.4067-.0708-.1417-.0708-.3137 0-.4554zm-12.2601-2.67241h-.0123l1.1987 2.35551c.1233 2.8025 1.217 0 3.8884 0s3.8364 3.1194 3.9597.3169l1.1359-3.19715c-.0537-1.24483-.9559-1.3322-1.1359-1.3322h-3.22c-1.2716 0-2.4714-.62238-3.1893-1.67329-.123-.17345-.3794-.14284-.4614.05101l-.0821.19386c-.2256.56116-.6563.98969-1.1895 1.23456-.0154.0051-.0334.01275-.0513.02041-.018.00765-.0359.0153-.0513.0204-.2358.12244-.7896.48975-.8101 1.43862l.0102.30609z" fill="url(#B)"/><path d="m23.1702 12.3572c.2126-.4352.3239-.9209.3239-1.4269 0-.4674-.0962-.9058-.2686-1.30552h.0054c-.0805-.18099-.1709-.35199-.2813-.513l-.002-.00312c-.3441-.52625-.5262-1.14357-.5262-1.77101v-.01012c0-1.82161-1.4776-3.29913-3.2992-3.29913-.1821 0-.3542-.08096-.4554-.23276-.5971-.82985-1.5788-1.37633-2.6819-1.37633s-2.0847.54648-2.6818 1.37633c-.1012.14168-.2732.23276-.4554.23276-.0284 0-.0568.00036-.085.00108-1.7824.04512-3.21413 1.50487-3.21413 3.29805v.01012c0 .62744-.18216 1.24476-.52624 1.77101l-.00229.00367c-.34263.52544-.54409 1.14147-.54409 1.81797 0 .5161.12144.9917.32384 1.4269.07084.1417.07084.3137 0 .4554-.2024.425-.32384.9007-.32384 1.4067 0 1.7811 1.43705 3.2181 3.21815 3.2181h8.5818c1.7811 0 3.2182-1.437 3.2182-3.2181 0-.506-.1215-.9817-.3239-1.4067-.0708-.1417-.0708-.3137 0-.4554zm-12.2601-2.67241h-.0123l1.1987 2.35551c.1233 2.8025 1.217 0 3.8884 0s3.8364 3.1194 3.9597.3169l1.1359-3.19715c-.0537-1.24483-.9559-1.3322-1.1359-1.3322h-3.22c-1.2716 0-2.4714-.62238-3.1893-1.67329-.123-.17345-.3794-.14284-.4614.05101l-.0821.19386c-.2256.56116-.6563.98969-1.1895 1.23456-.0154.0051-.0334.01275-.0513.02041-.018.00765-.0359.0153-.0513.0204-.2358.12244-.7896.48975-.8101 1.43862l.0102.30609z" fill="url(#C)"/><path d="m23.1702 12.3572c.2126-.4352.3239-.9209.3239-1.4269 0-.4674-.0962-.9058-.2686-1.30552h.0054c-.0805-.18099-.1709-.35199-.2813-.513l-.002-.00312c-.3441-.52625-.5262-1.14357-.5262-1.77101v-.01012c0-1.82161-1.4776-3.29913-3.2992-3.29913-.1821 0-.3542-.08096-.4554-.23276-.5971-.82985-1.5788-1.37633-2.6819-1.37633s-2.0847.54648-2.6818 1.37633c-.1012.14168-.2732.23276-.4554.23276-.0284 0-.0568.00036-.085.00108-1.7824.04512-3.21413 1.50487-3.21413 3.29805v.01012c0 .62744-.18216 1.24476-.52624 1.77101l-.00229.00367c-.34263.52544-.54409 1.14147-.54409 1.81797 0 .5161.12144.9917.32384 1.4269.07084.1417.07084.3137 0 .4554-.2024.425-.32384.9007-.32384 1.4067 0 1.7811 1.43705 3.2181 3.21815 3.2181h8.5818c1.7811 0 3.2182-1.437 3.2182-3.2181 0-.506-.1215-.9817-.3239-1.4067-.0708-.1417-.0708-.3137 0-.4554zm-12.2601-2.67241h-.0123l1.1987 2.35551c.1233 2.8025 1.217 0 3.8884 0s3.8364 3.1194 3.9597.3169l1.1359-3.19715c-.0537-1.24483-.9559-1.3322-1.1359-1.3322h-3.22c-1.2716 0-2.4714-.62238-3.1893-1.67329-.123-.17345-.3794-.14284-.4614.05101l-.0821.19386c-.2256.56116-.6563.98969-1.1895 1.23456-.0154.0051-.0334.01275-.0513.02041-.018.00765-.0359.0153-.0513.0204-.2358.12244-.7896.48975-.8101 1.43862l.0102.30609z" fill="url(#D)"/><path d="m23.1702 12.3572c.2126-.4352.3239-.9209.3239-1.4269 0-.4674-.0962-.9058-.2686-1.30552h.0054c-.0805-.18099-.1709-.35199-.2813-.513l-.002-.00312c-.3441-.52625-.5262-1.14357-.5262-1.77101v-.01012c0-1.82161-1.4776-3.29913-3.2992-3.29913-.1821 0-.3542-.08096-.4554-.23276-.5971-.82985-1.5788-1.37633-2.6819-1.37633s-2.0847.54648-2.6818 1.37633c-.1012.14168-.2732.23276-.4554.23276-.0284 0-.0568.00036-.085.00108-1.7824.04512-3.21413 1.50487-3.21413 3.29805v.01012c0 .62744-.18216 1.24476-.52624 1.77101l-.00229.00367c-.34263.52544-.54409 1.14147-.54409 1.81797 0 .5161.12144.9917.32384 1.4269.07084.1417.07084.3137 0 .4554-.2024.425-.32384.9007-.32384 1.4067 0 1.7811 1.43705 3.2181 3.21815 3.2181h8.5818c1.7811 0 3.2182-1.437 3.2182-3.2181 0-.506-.1215-.9817-.3239-1.4067-.0708-.1417-.0708-.3137 0-.4554zm-12.2601-2.67241h-.0123l1.1987 2.35551c.1233 2.8025 1.217 0 3.8884 0s3.8364 3.1194 3.9597.3169l1.1359-3.19715c-.0537-1.24483-.9559-1.3322-1.1359-1.3322h-3.22c-1.2716 0-2.4714-.62238-3.1893-1.67329-.123-.17345-.3794-.14284-.4614.05101l-.0821.19386c-.2256.56116-.6563.98969-1.1895 1.23456-.0154.0051-.0334.01275-.0513.02041-.018.00765-.0359.0153-.0513.0204-.2358.12244-.7896.48975-.8101 1.43862l.0102.30609z" fill="url(#E)"/><path d="m23.1702 12.3572c.2126-.4352.3239-.9209.3239-1.4269 0-.4674-.0962-.9058-.2686-1.30552h.0054c-.0805-.18099-.1709-.35199-.2813-.513l-.002-.00312c-.3441-.52625-.5262-1.14357-.5262-1.77101v-.01012c0-1.82161-1.4776-3.29913-3.2992-3.29913-.1821 0-.3542-.08096-.4554-.23276-.5971-.82985-1.5788-1.37633-2.6819-1.37633s-2.0847.54648-2.6818 1.37633c-.1012.14168-.2732.23276-.4554.23276-.0284 0-.0568.00036-.085.00108-1.7824.04512-3.21413 1.50487-3.21413 3.29805v.01012c0 .62744-.18216 1.24476-.52624 1.77101l-.00229.00367c-.34263.52544-.54409 1.14147-.54409 1.81797 0 .5161.12144.9917.32384 1.4269.07084.1417.07084.3137 0 .4554-.2024.425-.32384.9007-.32384 1.4067 0 1.7811 1.43705 3.2181 3.21815 3.2181h8.5818c1.7811 0 3.2182-1.437 3.2182-3.2181 0-.506-.1215-.9817-.3239-1.4067-.0708-.1417-.0708-.3137 0-.4554zm-12.2601-2.67241h-.0123l1.1987 2.35551c.1233 2.8025 1.217 0 3.8884 0s3.8364 3.1194 3.9597.3169l1.1359-3.19715c-.0537-1.24483-.9559-1.3322-1.1359-1.3322h-3.22c-1.2716 0-2.4714-.62238-3.1893-1.67329-.123-.17345-.3794-.14284-.4614.05101l-.0821.19386c-.2256.56116-.6563.98969-1.1895 1.23456-.0154.0051-.0334.01275-.0513.02041-.018.00765-.0359.0153-.0513.0204-.2358.12244-.7896.48975-.8101 1.43862l.0102.30609z" fill="url(#F)"/><path d="m23.1702 12.3572c.2126-.4352.3239-.9209.3239-1.4269 0-.4674-.0962-.9058-.2686-1.30552h.0054c-.0805-.18099-.1709-.35199-.2813-.513l-.002-.00312c-.3441-.52625-.5262-1.14357-.5262-1.77101v-.01012c0-1.82161-1.4776-3.29913-3.2992-3.29913-.1821 0-.3542-.08096-.4554-.23276-.5971-.82985-1.5788-1.37633-2.6819-1.37633s-2.0847.54648-2.6818 1.37633c-.1012.14168-.2732.23276-.4554.23276-.0284 0-.0568.00036-.085.00108-1.7824.04512-3.21413 1.50487-3.21413 3.29805v.01012c0 .62744-.18216 1.24476-.52624 1.77101l-.00229.00367c-.34263.52544-.54409 1.14147-.54409 1.81797 0 .5161.12144.9917.32384 1.4269.07084.1417.07084.3137 0 .4554-.2024.425-.32384.9007-.32384 1.4067 0 1.7811 1.43705 3.2181 3.21815 3.2181h8.5818c1.7811 0 3.2182-1.437 3.2182-3.2181 0-.506-.1215-.9817-.3239-1.4067-.0708-.1417-.0708-.3137 0-.4554zm-12.2601-2.67241h-.0123l1.1987 2.35551c.1233 2.8025 1.217 0 3.8884 0s3.8364 3.1194 3.9597.3169l1.1359-3.19715c-.0537-1.24483-.9559-1.3322-1.1359-1.3322h-3.22c-1.2716 0-2.4714-.62238-3.1893-1.67329-.123-.17345-.3794-.14284-.4614.05101l-.0821.19386c-.2256.56116-.6563.98969-1.1895 1.23456-.0154.0051-.0334.01275-.0513.02041-.018.00765-.0359.0153-.0513.0204-.2358.12244-.7896.48975-.8101 1.43862l.0102.30609z" fill="url(#G)"/><path d="m23.1702 12.3572c.2126-.4352.3239-.9209.3239-1.4269 0-.4674-.0962-.9058-.2686-1.30552h.0054c-.0805-.18099-.1709-.35199-.2813-.513l-.002-.00312c-.3441-.52625-.5262-1.14357-.5262-1.77101v-.01012c0-1.82161-1.4776-3.29913-3.2992-3.29913-.1821 0-.3542-.08096-.4554-.23276-.5971-.82985-1.5788-1.37633-2.6819-1.37633s-2.0847.54648-2.6818 1.37633c-.1012.14168-.2732.23276-.4554.23276-.0284 0-.0568.00036-.085.00108-1.7824.04512-3.21413 1.50487-3.21413 3.29805v.01012c0 .62744-.18216 1.24476-.52624 1.77101l-.00229.00367c-.34263.52544-.54409 1.14147-.54409 1.81797 0 .5161.12144.9917.32384 1.4269.07084.1417.07084.3137 0 .4554-.2024.425-.32384.9007-.32384 1.4067 0 1.7811 1.43705 3.2181 3.21815 3.2181h8.5818c1.7811 0 3.2182-1.437 3.2182-3.2181 0-.506-.1215-.9817-.3239-1.4067-.0708-.1417-.0708-.3137 0-.4554zm-12.2601-2.67241h-.0123l1.1987 2.35551c.1233 2.8025 1.217 0 3.8884 0s3.8364 3.1194 3.9597.3169l1.1359-3.19715c-.0537-1.24483-.9559-1.3322-1.1359-1.3322h-3.22c-1.2716 0-2.4714-.62238-3.1893-1.67329-.123-.17345-.3794-.14284-.4614.05101l-.0821.19386c-.2256.56116-.6563.98969-1.1895 1.23456-.0154.0051-.0334.01275-.0513.02041-.018.00765-.0359.0153-.0513.0204-.2358.12244-.7896.48975-.8101 1.43862l.0102.30609z" fill="url(#H)"/><path d="m23.1702 12.3572c.2126-.4352.3239-.9209.3239-1.4269 0-.4674-.0962-.9058-.2686-1.30552h.0054c-.0805-.18099-.1709-.35199-.2813-.513l-.002-.00312c-.3441-.52625-.5262-1.14357-.5262-1.77101v-.01012c0-1.82161-1.4776-3.29913-3.2992-3.29913-.1821 0-.3542-.08096-.4554-.23276-.5971-.82985-1.5788-1.37633-2.6819-1.37633s-2.0847.54648-2.6818 1.37633c-.1012.14168-.2732.23276-.4554.23276-.0284 0-.0568.00036-.085.00108-1.7824.04512-3.21413 1.50487-3.21413 3.29805v.01012c0 .62744-.18216 1.24476-.52624 1.77101l-.00229.00367c-.34263.52544-.54409 1.14147-.54409 1.81797 0 .5161.12144.9917.32384 1.4269.07084.1417.07084.3137 0 .4554-.2024.425-.32384.9007-.32384 1.4067 0 1.7811 1.43705 3.2181 3.21815 3.2181h8.5818c1.7811 0 3.2182-1.437 3.2182-3.2181 0-.506-.1215-.9817-.3239-1.4067-.0708-.1417-.0708-.3137 0-.4554zm-12.2601-2.67241h-.0123l1.1987 2.35551c.1233 2.8025 1.217 0 3.8884 0s3.8364 3.1194 3.9597.3169l1.1359-3.19715c-.0537-1.24483-.9559-1.3322-1.1359-1.3322h-3.22c-1.2716 0-2.4714-.62238-3.1893-1.67329-.123-.17345-.3794-.14284-.4614.05101l-.0821.19386c-.2256.56116-.6563.98969-1.1895 1.23456-.0154.0051-.0334.01275-.0513.02041-.018.00765-.0359.0153-.0513.0204-.2358.12244-.7896.48975-.8101 1.43862l.0102.30609z" fill="url(#I)"/><path d="m23.1702 12.3572c.2126-.4352.3239-.9209.3239-1.4269 0-.4674-.0962-.9058-.2686-1.30552h.0054c-.0805-.18099-.1709-.35199-.2813-.513l-.002-.00312c-.3441-.52625-.5262-1.14357-.5262-1.77101v-.01012c0-1.82161-1.4776-3.29913-3.2992-3.29913-.1821 0-.3542-.08096-.4554-.23276-.5971-.82985-1.5788-1.37633-2.6819-1.37633s-2.0847.54648-2.6818 1.37633c-.1012.14168-.2732.23276-.4554.23276-.0284 0-.0568.00036-.085.00108-1.7824.04512-3.21413 1.50487-3.21413 3.29805v.01012c0 .62744-.18216 1.24476-.52624 1.77101l-.00229.00367c-.34263.52544-.54409 1.14147-.54409 1.81797 0 .5161.12144.9917.32384 1.4269.07084.1417.07084.3137 0 .4554-.2024.425-.32384.9007-.32384 1.4067 0 1.7811 1.43705 3.2181 3.21815 3.2181h8.5818c1.7811 0 3.2182-1.437 3.2182-3.2181 0-.506-.1215-.9817-.3239-1.4067-.0708-.1417-.0708-.3137 0-.4554zm-12.2601-2.67241h-.0123l1.1987 2.35551c.1233 2.8025 1.217 0 3.8884 0s3.8364 3.1194 3.9597.3169l1.1359-3.19715c-.0537-1.24483-.9559-1.3322-1.1359-1.3322h-3.22c-1.2716 0-2.4714-.62238-3.1893-1.67329-.123-.17345-.3794-.14284-.4614.05101l-.0821.19386c-.2256.56116-.6563.98969-1.1895 1.23456-.0154.0051-.0334.01275-.0513.02041-.018.00765-.0359.0153-.0513.0204-.2358.12244-.7896.48975-.8101 1.43862l.0102.30609z" fill="url(#J)"/><path d="m23.1702 12.3572c.2126-.4352.3239-.9209.3239-1.4269 0-.4674-.0962-.9058-.2686-1.30552h.0054c-.0805-.18099-.1709-.35199-.2813-.513l-.002-.00312c-.3441-.52625-.5262-1.14357-.5262-1.77101v-.01012c0-1.82161-1.4776-3.29913-3.2992-3.29913-.1821 0-.3542-.08096-.4554-.23276-.5971-.82985-1.5788-1.37633-2.6819-1.37633s-2.0847.54648-2.6818 1.37633c-.1012.14168-.2732.23276-.4554.23276-.0284 0-.0568.00036-.085.00108-1.7824.04512-3.21413 1.50487-3.21413 3.29805v.01012c0 .62744-.18216 1.24476-.52624 1.77101l-.00229.00367c-.34263.52544-.54409 1.14147-.54409 1.81797 0 .5161.12144.9917.32384 1.4269.07084.1417.07084.3137 0 .4554-.2024.425-.32384.9007-.32384 1.4067 0 1.7811 1.43705 3.2181 3.21815 3.2181h8.5818c1.7811 0 3.2182-1.437 3.2182-3.2181 0-.506-.1215-.9817-.3239-1.4067-.0708-.1417-.0708-.3137 0-.4554zm-12.2601-2.67241h-.0123l1.1987 2.35551c.1233 2.8025 1.217 0 3.8884 0s3.8364 3.1194 3.9597.3169l1.1359-3.19715c-.0537-1.24483-.9559-1.3322-1.1359-1.3322h-3.22c-1.2716 0-2.4714-.62238-3.1893-1.67329-.123-.17345-.3794-.14284-.4614.05101l-.0821.19386c-.2256.56116-.6563.98969-1.1895 1.23456-.0154.0051-.0334.01275-.0513.02041-.018.00765-.0359.0153-.0513.0204-.2358.12244-.7896.48975-.8101 1.43862l.0102.30609z" fill="url(#K)"/><path d="m23.1702 12.3572c.2126-.4352.3239-.9209.3239-1.4269 0-.4674-.0962-.9058-.2686-1.30552h.0054c-.0805-.18099-.1709-.35199-.2813-.513l-.002-.00312c-.3441-.52625-.5262-1.14357-.5262-1.77101v-.01012c0-1.82161-1.4776-3.29913-3.2992-3.29913-.1821 0-.3542-.08096-.4554-.23276-.5971-.82985-1.5788-1.37633-2.6819-1.37633s-2.0847.54648-2.6818 1.37633c-.1012.14168-.2732.23276-.4554.23276-.0284 0-.0568.00036-.085.00108-1.7824.04512-3.21413 1.50487-3.21413 3.29805v.01012c0 .62744-.18216 1.24476-.52624 1.77101l-.00229.00367c-.34263.52544-.54409 1.14147-.54409 1.81797 0 .5161.12144.9917.32384 1.4269.07084.1417.07084.3137 0 .4554-.2024.425-.32384.9007-.32384 1.4067 0 1.7811 1.43705 3.2181 3.21815 3.2181h8.5818c1.7811 0 3.2182-1.437 3.2182-3.2181 0-.506-.1215-.9817-.3239-1.4067-.0708-.1417-.0708-.3137 0-.4554zm-12.2601-2.67241h-.0123l1.1987 2.35551c.1233 2.8025 1.217 0 3.8884 0s3.8364 3.1194 3.9597.3169l1.1359-3.19715c-.0537-1.24483-.9559-1.3322-1.1359-1.3322h-3.22c-1.2716 0-2.4714-.62238-3.1893-1.67329-.123-.17345-.3794-.14284-.4614.05101l-.0821.19386c-.2256.56116-.6563.98969-1.1895 1.23456-.0154.0051-.0334.01275-.0513.02041-.018.00765-.0359.0153-.0513.0204-.2358.12244-.7896.48975-.8101 1.43862l.0102.30609z" fill="url(#L)"/><path d="m23.1702 12.3572c.2126-.4352.3239-.9209.3239-1.4269 0-.4674-.0962-.9058-.2686-1.30552h.0054c-.0805-.18099-.1709-.35199-.2813-.513l-.002-.00312c-.3441-.52625-.5262-1.14357-.5262-1.77101v-.01012c0-1.82161-1.4776-3.29913-3.2992-3.29913-.1821 0-.3542-.08096-.4554-.23276-.5971-.82985-1.5788-1.37633-2.6819-1.37633s-2.0847.54648-2.6818 1.37633c-.1012.14168-.2732.23276-.4554.23276-.0284 0-.0568.00036-.085.00108-1.7824.04512-3.21413 1.50487-3.21413 3.29805v.01012c0 .62744-.18216 1.24476-.52624 1.77101l-.00229.00367c-.34263.52544-.54409 1.14147-.54409 1.81797 0 .5161.12144.9917.32384 1.4269.07084.1417.07084.3137 0 .4554-.2024.425-.32384.9007-.32384 1.4067 0 1.7811 1.43705 3.2181 3.21815 3.2181h8.5818c1.7811 0 3.2182-1.437 3.2182-3.2181 0-.506-.1215-.9817-.3239-1.4067-.0708-.1417-.0708-.3137 0-.4554zm-12.2601-2.67241h-.0123l1.1987 2.35551c.1233 2.8025 1.217 0 3.8884 0s3.8364 3.1194 3.9597.3169l1.1359-3.19715c-.0537-1.24483-.9559-1.3322-1.1359-1.3322h-3.22c-1.2716 0-2.4714-.62238-3.1893-1.67329-.123-.17345-.3794-.14284-.4614.05101l-.0821.19386c-.2256.56116-.6563.98969-1.1895 1.23456-.0154.0051-.0334.01275-.0513.02041-.018.00765-.0359.0153-.0513.0204-.2358.12244-.7896.48975-.8101 1.43862l.0102.30609z" fill="url(#M)"/></g><path d="m16 15.0707c-6.08 0-11 4.92-11 11v3.5h22v-3.5c0-6.07-4.93-11-11-11z" fill="url(#N)"/><path d="m16 15.0707c-6.08 0-11 4.92-11 11v3.5h22v-3.5c0-6.07-4.93-11-11-11z" fill="url(#O)"/><g filter="url(#b)"><path d="m13.4187 16.4194c-.5124 0-1.2955-.0292-1.7699.1661l-1.3801 2.7239c-.09.19.06.41.27.41h1.55c.24 0 .35.29.19.45l-1.78 1.3428c-.26.26-.36.65-.23 1l2.9128 6.5005 1.5862-1.1162-1.339-11.4771z" fill="#41355c"/></g><g filter="url(#c)"><path d="m20.9045 20.752-1.1891-.8279c-.1486-.1487-.0437-.3935.1661-.3935h.9181c.1836 0 .306-.1923.2273-.3585l-1.0754-2.2907c-.2099-.0874-.4284-.1661-.647-.236h-.5945v11.8618l2.4043-6.8721c.1049-.3148.0262-.6557-.2098-.8831z" fill="#463d68"/></g><path d="m18.71 15.6907h-5.42v13.89h5.42z" fill="url(#P)"/><path d="m18.71 15.6907h-5.42v13.89h5.42z" fill="url(#Q)"/><path d="m18.71 15.6907h-5.42v13.89h5.42z" fill="url(#R)"/><path d="m23 17.5884v11.9822h4v-3.5c0-3.412-1.5577-6.4638-4-8.4822z" fill="url(#S)"/><path d="m23 17.5884v11.9822h4v-3.5c0-3.412-1.5577-6.4638-4-8.4822z" fill="url(#T)"/><g filter="url(#d)"><path d="m13.29 15.6606h-.85c-.18.06-.36.13-.53.2l-1.27 2.69c-.09.19.06.41.27.41h1.05c.24 0 .35.29.19.45l-1.36 1.33c-.26.26-.36.65-.23 1l2.73 7.82h.01v-13.9z" fill="url(#U)"/><path d="m13.29 15.6606h-.85c-.18.06-.36.13-.53.2l-1.27 2.69c-.09.19.06.41.27.41h1.05c.24 0 .35.29.19.45l-1.36 1.33c-.26.26-.36.65-.23 1l2.73 7.82h.01v-13.9z" fill="url(#V)"/><path d="m13.29 15.6606h-.85c-.18.06-.36.13-.53.2l-1.27 2.69c-.09.19.06.41.27.41h1.05c.24 0 .35.29.19.45l-1.36 1.33c-.26.26-.36.65-.23 1l2.73 7.82h.01v-13.9z" fill="url(#W)"/></g><path d="m13.29 15.6606h-.85c-.18.06-.36.13-.53.2l-1.27 2.69c-.09.19.06.41.27.41h1.05c.24 0 .35.29.19.45l-1.36 1.33c-.26.26-.36.65-.23 1l2.73 7.82h.01v-13.9z" fill="url(#X)"/><path d="m13.29 15.6606h-.85c-.18.06-.36.13-.53.2l-1.27 2.69c-.09.19.06.41.27.41h1.05c.24 0 .35.29.19.45l-1.36 1.33c-.26.26-.36.65-.23 1l2.73 7.82h.01v-13.9z" fill="url(#Y)"/><g filter="url(#e)"><path d="m16.0106 17.8978-1.2406 1.2043c-.0448.0434-.058.1101-.0331.1674l.5475 1.2607c.0397.0913.1298.1504.2293.1504h.9521c.0999 0 .1902-.0595.2297-.1513l.5503-1.2804c.0244-.0567.0115-.1227-.0325-.166z" fill="url(#Z)"/></g><g filter="url(#f)"><path d="m21.22 20.6907-1.36-1.33c-.17-.17-.05-.45.19-.45h1.05c.21 0 .35-.22.26-.41l-1.23-2.62c-.24-.1-.49-.19-.74-.27h-.68v13.95l2.75-7.86c.12-.36.03-.75-.24-1.01z" fill="#605890"/><path d="m21.22 20.6907-1.36-1.33c-.17-.17-.05-.45.19-.45h1.05c.21 0 .35-.22.26-.41l-1.23-2.62c-.24-.1-.49-.19-.74-.27h-.68v13.95l2.75-7.86c.12-.36.03-.75-.24-1.01z" fill="url(#aa)"/></g><path d="m15.9999 14.6276h-2.71v4.74c0 .31.36.49.61.29l2.1-1.3926 2.1 1.3926c.25.2.61.02.61-.29v-4.74z" fill="url(#ab)"/><path d="m15.9999 14.6276h-2.71v4.74c0 .31.36.49.61.29l2.1-1.3926 2.1 1.3926c.25.2.61.02.61-.29v-4.74z" fill="url(#ac)"/><path d="m7.03187 29.5707h1.93823v-11.9641c-1.78268 1.4818-3.08884 3.5166-3.65643 5.8426-.20346.844-.30902 1.7254-.30371 2.6315l.01996 3.49z" fill="url(#ad)"/><path d="m15.5047 20.6807c-.1235 0-.2284.0901-.2471.2121l-1.3275 8.6679h4.11l-1.3178-8.6676c-.0185-.1222-.1236-.2124-.2471-.2124z" fill="url(#ae)"/><path d="m15.5047 20.6807c-.1235 0-.2284.0901-.2471.2121l-1.3275 8.6679h4.11l-1.3178-8.6676c-.0185-.1222-.1236-.2124-.2471-.2124z" fill="url(#ag)"/><path d="m15.5047 20.6807c-.1235 0-.2284.0901-.2471.2121l-1.3275 8.6679h4.11l-1.3178-8.6676c-.0185-.1222-.1236-.2124-.2471-.2124z" fill="url(#ah)"/><path d="m14.045 16.4603c.0209.2136.205.691.7461 1.0547.2135.1435 1.2131.6286 1.1927.6189.1562-.0782.8073-.2986 1.2839-.6189.5411-.3637.7253-.8411.7461-1.0547l-1.9844-.9531z" fill="url(#ai)"/><path d="m16.402 15.87c.25.01.51.03.77.05-.26-.02-.51-.04-.77-.05z" fill="url(#ak)"/><path d="m16.072 15.87c-.01 0-.02 0-.04 0 .1 0 .19 0 .29.01-.08-.01-.17-.01-.25-.01z" fill="url(#al)"/><g filter="url(#g)"><path d="m11.2994 12.5566c.8887 0 1.6091-.7205 1.6091-1.6091 0-.8887-.7204-1.60912-1.6091-1.60912s-1.60909.72042-1.60909 1.60912c0 .8886.72039 1.6091 1.60909 1.6091z" fill="url(#am)"/></g><path d="m11.2994 12.5566c.8887 0 1.6091-.7205 1.6091-1.6091 0-.8887-.7204-1.60912-1.6091-1.60912s-1.60909.72042-1.60909 1.60912c0 .8886.72039 1.6091 1.60909 1.6091z" fill="url(#an)"/><g filter="url(#h)"><path d="m20.8122 12.5566c.8887 0 1.6091-.7205 1.6091-1.6091 0-.8887-.7204-1.60912-1.6091-1.60912s-1.6091.72042-1.6091 1.60912c0 .8886.7204 1.6091 1.6091 1.6091z" fill="url(#ao)"/><path d="m20.8122 12.5566c.8887 0 1.6091-.7205 1.6091-1.6091 0-.8887-.7204-1.60912-1.6091-1.60912s-1.6091.72042-1.6091 1.60912c0 .8886.7204 1.6091 1.6091 1.6091z" fill="url(#ap)"/></g><g filter="url(#i)"><path d="m20.8123 12.0215c.5932 0 1.0741-.4809 1.0741-1.0741s-.4809-1.07411-1.0741-1.07411-1.0741.48091-1.0741 1.07411.4809 1.0741 1.0741 1.0741z" fill="#b38574"/><path d="m20.8123 12.0215c.5932 0 1.0741-.4809 1.0741-1.0741s-.4809-1.07411-1.0741-1.07411-1.0741.48091-1.0741 1.07411.4809 1.0741 1.0741 1.0741z" fill="url(#aq)"/></g><g filter="url(#j)"><path d="m11.3186 12.0215c.5932 0 1.0741-.4809 1.0741-1.0741s-.4809-1.07411-1.0741-1.07411-1.0741.48091-1.0741 1.07411.4809 1.0741 1.0741 1.0741z" fill="#7e555a"/><path d="m11.3186 12.0215c.5932 0 1.0741-.4809 1.0741-1.0741s-.4809-1.07411-1.0741-1.07411-1.0741.48091-1.0741 1.07411.4809 1.0741 1.0741 1.0741z" fill="url(#ar)"/></g><g filter="url(#k)"><path d="m10.8977 9.68469h.0123l-.0102-.26528-.0103-.30609c.0205-.94888.5743-1.31618.8102-1.43862.0153-.0051.0333-.01275.0512-.02041.018-.00765.0359-.0153.0513-.0204.5333-.24487.964-.6734 1.1896-1.23456l.082-.19386c.082-.19386.3384-.22447.4615-.05102.7178 1.05091 1.9176 1.67329 3.1892 1.67329h3.22c.1801 0 1.0822.08738 1.1359 1.33221l-.1188 3.07305c-.1233 2.8025-2.3118 4.6843-4.9832 4.6843s-4.8599-1.8818-4.9832-4.6843z" fill="url(#as)"/><path d="m10.8977 9.68469h.0123l-.0102-.26528-.0103-.30609c.0205-.94888.5743-1.31618.8102-1.43862.0153-.0051.0333-.01275.0512-.02041.018-.00765.0359-.0153.0513-.0204.5333-.24487.964-.6734 1.1896-1.23456l.082-.19386c.082-.19386.3384-.22447.4615-.05102.7178 1.05091 1.9176 1.67329 3.1892 1.67329h3.22c.1801 0 1.0822.08738 1.1359 1.33221l-.1188 3.07305c-.1233 2.8025-2.3118 4.6843-4.9832 4.6843s-4.8599-1.8818-4.9832-4.6843z" fill="url(#at)"/><path d="m10.8977 9.68469h.0123l-.0102-.26528-.0103-.30609c.0205-.94888.5743-1.31618.8102-1.43862.0153-.0051.0333-.01275.0512-.02041.018-.00765.0359-.0153.0513-.0204.5333-.24487.964-.6734 1.1896-1.23456l.082-.19386c.082-.19386.3384-.22447.4615-.05102.7178 1.05091 1.9176 1.67329 3.1892 1.67329h3.22c.1801 0 1.0822.08738 1.1359 1.33221l-.1188 3.07305c-.1233 2.8025-2.3118 4.6843-4.9832 4.6843s-4.8599-1.8818-4.9832-4.6843z" fill="url(#au)"/><path d="m10.8977 9.68469h.0123l-.0102-.26528-.0103-.30609c.0205-.94888.5743-1.31618.8102-1.43862.0153-.0051.0333-.01275.0512-.02041.018-.00765.0359-.0153.0513-.0204.5333-.24487.964-.6734 1.1896-1.23456l.082-.19386c.082-.19386.3384-.22447.4615-.05102.7178 1.05091 1.9176 1.67329 3.1892 1.67329h3.22c.1801 0 1.0822.08738 1.1359 1.33221l-.1188 3.07305c-.1233 2.8025-2.3118 4.6843-4.9832 4.6843s-4.8599-1.8818-4.9832-4.6843z" fill="url(#av)"/><path d="m10.8977 9.68469h.0123l-.0102-.26528-.0103-.30609c.0205-.94888.5743-1.31618.8102-1.43862.0153-.0051.0333-.01275.0512-.02041.018-.00765.0359-.0153.0513-.0204.5333-.24487.964-.6734 1.1896-1.23456l.082-.19386c.082-.19386.3384-.22447.4615-.05102.7178 1.05091 1.9176 1.67329 3.1892 1.67329h3.22c.1801 0 1.0822.08738 1.1359 1.33221l-.1188 3.07305c-.1233 2.8025-2.3118 4.6843-4.9832 4.6843s-4.8599-1.8818-4.9832-4.6843z" fill="url(#aw)"/><path d="m10.8977 9.68469h.0123l-.0102-.26528-.0103-.30609c.0205-.94888.5743-1.31618.8102-1.43862.0153-.0051.0333-.01275.0512-.02041.018-.00765.0359-.0153.0513-.0204.5333-.24487.964-.6734 1.1896-1.23456l.082-.19386c.082-.19386.3384-.22447.4615-.05102.7178 1.05091 1.9176 1.67329 3.1892 1.67329h3.22c.1801 0 1.0822.08738 1.1359 1.33221l-.1188 3.07305c-.1233 2.8025-2.3118 4.6843-4.9832 4.6843s-4.8599-1.8818-4.9832-4.6843z" fill="url(#ax)"/><path d="m10.8977 9.68469h.0123l-.0102-.26528-.0103-.30609c.0205-.94888.5743-1.31618.8102-1.43862.0153-.0051.0333-.01275.0512-.02041.018-.00765.0359-.0153.0513-.0204.5333-.24487.964-.6734 1.1896-1.23456l.082-.19386c.082-.19386.3384-.22447.4615-.05102.7178 1.05091 1.9176 1.67329 3.1892 1.67329h3.22c.1801 0 1.0822.08738 1.1359 1.33221l-.1188 3.07305c-.1233 2.8025-2.3118 4.6843-4.9832 4.6843s-4.8599-1.8818-4.9832-4.6843z" fill="url(#ay)"/><path d="m10.8977 9.68469h.0123l-.0102-.26528-.0103-.30609c.0205-.94888.5743-1.31618.8102-1.43862.0153-.0051.0333-.01275.0512-.02041.018-.00765.0359-.0153.0513-.0204.5333-.24487.964-.6734 1.1896-1.23456l.082-.19386c.082-.19386.3384-.22447.4615-.05102.7178 1.05091 1.9176 1.67329 3.1892 1.67329h3.22c.1801 0 1.0822.08738 1.1359 1.33221l-.1188 3.07305c-.1233 2.8025-2.3118 4.6843-4.9832 4.6843s-4.8599-1.8818-4.9832-4.6843z" fill="url(#az)"/></g><path d="m10.8977 9.68469h.0123l-.0102-.26528-.0103-.30609c.0205-.94888.5743-1.31618.8102-1.43862.0153-.0051.0333-.01275.0512-.02041.018-.00765.0359-.0153.0513-.0204.5333-.24487.964-.6734 1.1896-1.23456l.082-.19386c.082-.19386.3384-.22447.4615-.05102.7178 1.05091 1.9176 1.67329 3.1892 1.67329h3.22c.1801 0 1.0822.08738 1.1359 1.33221l-.1188 3.07305c-.1233 2.8025-2.3118 4.6843-4.9832 4.6843s-4.8599-1.8818-4.9832-4.6843z" fill="url(#aA)"/><g filter="url(#l)"><path d="m15.5924 10.7247-.6835 1.7c-.1085.3497.1518.6994.5206.6994h.7863c.3688 0 .6291-.3551.5207-.6994l-.5315-1.7c-.1139-.3766-.4933-.3766-.6126 0z" fill="#88555f"/></g><g filter="url(#m)"><path d="m15.6027 10.5863-.5315 1.7c-.1085.3497.1519.6993.5206.6993h.7864c.3688 0 .6291-.355.5206-.6993l-.5314-1.7c-.1139-.3766-.6454-.3766-.7647 0z" fill="#b38578"/><path d="m15.6027 10.5863-.5315 1.7c-.1085.3497.1519.6993.5206.6993h.7864c.3688 0 .6291-.355.5206-.6993l-.5314-1.7c-.1139-.3766-.6454-.3766-.7647 0z" fill="url(#aB)"/><path d="m15.6027 10.5863-.5315 1.7c-.1085.3497.1519.6993.5206.6993h.7864c.3688 0 .6291-.355.5206-.6993l-.5314-1.7c-.1139-.3766-.6454-.3766-.7647 0z" fill="url(#aC)"/><path d="m15.6027 10.5863-.5315 1.7c-.1085.3497.1519.6993.5206.6993h.7864c.3688 0 .6291-.355.5206-.6993l-.5314-1.7c-.1139-.3766-.6454-.3766-.7647 0z" fill="url(#aD)"/><path d="m15.6027 10.5863-.5315 1.7c-.1085.3497.1519.6993.5206.6993h.7864c.3688 0 .6291-.355.5206-.6993l-.5314-1.7c-.1139-.3766-.6454-.3766-.7647 0z" fill="url(#aE)"/></g><path d="m15.6027 10.5863-.5315 1.7c-.1085.3497.1519.6993.5206.6993h.7864c.3688 0 .6291-.355.5206-.6993l-.5314-1.7c-.1139-.3766-.6454-.3766-.7647 0z" fill="url(#aF)"/><path d="m15.6027 10.5863-.5315 1.7c-.1085.3497.1519.6993.5206.6993h.7864c.3688 0 .6291-.355.5206-.6993l-.5314-1.7c-.1139-.3766-.6454-.3766-.7647 0z" fill="url(#aG)"/><path d="m17.6516 13.7608c.0581-.0893.0371-.1876-.0212-.2495-.0578-.0614-.1546-.0895-.2469-.0414l-.0005.0002c-.4039.2154-.8801.3388-1.3981.3388-.5127 0-.9941-.1234-1.398-.3388l-.0005-.0002c-.093-.0484-.1898-.0181-.2472.0436-.0574.0618-.0796.1602-.0207.2476m3.3331-.0003s-.0001.0001-.0001.0001l-.0419-.0273.042.0271zm0 0c-.3525.5462-.9667.9107-1.6667.9107-.6997 0-1.3139-.3643-1.6664-.9104m0 0c.0002.0002.0003.0004.0004.0005l.0414-.028m-.0418.0275c-.0001-.0001-.0002-.0003-.0003-.0004l.0421-.0271m0 0c.3436.5327.9425.8879 1.6246.8879.6822 0 1.281-.3552 1.6247-.8879.0886-.1358-.0625-.2925-.2031-.2194-.4113.2194-.8956.3447-1.4216.3447-.5207 0-1.0102-.1253-1.4216-.3447-.1406-.0731-.2916.0888-.203.2194z" fill="#88024e" stroke="url(#aH)" stroke-width=".1"/><g filter="url(#n)"><path d="m17.1271 10.3784c.2654-.46684.6689-.83555 1.5373-.83555.3803 0 .7469.10534 1.0728.36871.2689.21724.2329.49514.0247.59924l-.5561.3175c-.6518-.2107-1.3726-.2393-2.0787-.4499z" fill="#2f2c32"/></g><g filter="url(#o)"><path d="m14.8431 10.3784c-.2654-.46684-.6689-.83555-1.5373-.83555-.3803 0-.7469.10534-1.0728.36871-.2689.21724-.2329.49514-.0247.59924l.5561.3175c.6518-.2107 1.3726-.2393 2.0787-.4499z" fill="#27232a"/></g><g filter="url(#p)"><path d="m12.5874 9.16949-.0044.00253c-.0001.00008-.0002.00016-.0004.00024-.1269.07577-.2914.0346-.3675-.09222-.0762-.12701-.0349-.29184.0921-.36804l.0006-.00034.001-.00062.003-.00174.0094-.00544c.0078-.00447.0187-.01057.0324-.01802.0275-.0149.0667-.03525.116-.05878.0986-.04697.239-.10711.4102-.16174.3399-.10847.8151-.19972 1.3282-.10918.1459.02574.2433.16485.2175.31071-.0257.14585-.1648.24323-.3107.21749-.3987-.07037-.7816-.00071-1.072.09195-.1439.04595-.2616.09643-.3424.13494-.0403.01922-.0712.03532-.0912.04619-.01.00543-.0174.00954-.0218.01207z" fill="#432a28"/></g><g filter="url(#q)"><path clip-rule="evenodd" d="m19.7165 8.712c.0001.00005.0002.00009-.1378.23006l.1378-.23006c.127.0762.1684.24103.0922.36803-.0761.12684-.2405.16808-.3675.0923 0-.00005-.0002-.00014-.0004-.00028l-.0045-.00256c-.0044-.00253-.0117-.00664-.0217-.01207-.0201-.01087-.0509-.02697-.0912-.04619-.0809-.03851-.1985-.08899-.3425-.13494-.2903-.09266-.6732-.16232-1.072-.09195-.1458.02574-.2849-.07164-.3107-.21749-.0257-.14586.0717-.28497.2175-.31071.5131-.09054.9884.00071 1.3283.10918.1711.05463.3116.11477.4101.16174.0494.02353.0885.04388.116.05878.0138.00745.0246.01355.0325.01802l.0094.00544.0029.00174.001.00062z" fill="#432a28" fill-rule="evenodd"/></g><path d="m18.376 9.60156c.6531 0 1.2048.45024 1.3549 1.05874.0446.1745-.0893.3408-.2677.3408h-2.2312c-.1419 0-.2555-.1298-.2271-.2718.1257-.6409.6896-1.12774 1.3711-1.12774z" fill="#fff"/><path d="m18.1691 9.87329c.4949 0 .8924.40161.8924.89241 0 .0812-.0121.1623-.0324.2353h-1.7241c-.0202-.0771-.0324-.1541-.0324-.2353 0-.4908.4016-.89241.8965-.89241z" fill="url(#aJ)"/><path d="m17.658 10.7658c0-.284.2271-.5112.5111-.5112.2839 0 .5111.2272.5111.5112 0 .0852-.0203.1663-.0568.2352h-.9046c-.0406-.0689-.0608-.15-.0608-.2352z" fill="#000"/><g filter="url(#r)"><path d="m18.1034 10.062c.0636.085-.0693.1887-.2204.3017s-.2633.1925-.3268.1074c-.0636-.085.0073-.2456.1585-.3585.1511-.11302.3251-.13567.3887-.0506z" fill="#c7a7a3"/><path d="m18.1034 10.062c.0636.085-.0693.1887-.2204.3017s-.2633.1925-.3268.1074c-.0636-.085.0073-.2456.1585-.3585.1511-.11302.3251-.13567.3887-.0506z" fill="url(#aL)"/></g><g filter="url(#s)"><path d="m18.964 10.6483c-.033-.2308-.168-.4047-.2313-.4628l-.2599.2853.1172.2282z" fill="url(#aN)"/></g><path d="m13.594 9.60156c-.6531 0-1.2048.45024-1.3549 1.05874-.0446.1745.0893.3408.2678.3408h2.2311c.142 0 .2556-.1298.2272-.2718-.1258-.6409-.6937-1.12774-1.3712-1.12774z" fill="#fff"/><path d="m13.8009 9.87329c-.4949 0-.8925.40161-.8925.89241 0 .0812.0122.1623.0325.2353h1.7241c.0202-.077.0324-.1541.0324-.2353-.004-.4908-.4016-.89241-.8965-.89241z" fill="url(#aO)"/><path d="m14.3121 10.7658c0-.284-.2272-.5112-.5112-.5112-.2839 0-.5111.2272-.5111.5112 0 .0852.0203.1663.0568.2353h.9046c.0365-.069.0609-.1501.0609-.2353z" fill="#000"/><g filter="url(#t)"><path d="m14.6162 10.661c0-.2884-.2345-.4807-.2979-.5388l-.2884.2789.1775.3613z" fill="url(#aP)"/></g><g filter="url(#u)"><ellipse cx="13.5317" cy="10.2547" fill="#c7a7a3" fill-opacity=".9" rx=".389603" ry=".197175" transform="matrix(.88365127 -.46814574 .46814574 .88365127 -3.226298 7.527929)"/><ellipse cx="13.5317" cy="10.2547" fill="url(#aQ)" rx=".389603" ry=".197175" transform="matrix(.88365127 -.46814574 .46814574 .88365127 -3.226298 7.527929)"/></g><g filter="url(#v)"><path d="m17.9246 8.57475c.3225-.07847 1.1246-.03923 1.6607.34436" stroke="#5b4545" stroke-linecap="round" stroke-width=".2"/></g><g filter="url(#w)"><path d="m14.1337 8.57475c-.3226-.07847-1.1246-.03923-1.6608.34436" stroke="#5b4545" stroke-linecap="round" stroke-width=".2"/></g><g filter="url(#x)"><path d="m10.9159 4.95913c.5657-.59924 1.6363-.60019 2.1309-.5108l.3956 1.29062c-.2528-.03911-.2954-.0015-.485.18288-.1376 1.09286-1.3762 1.75667-2.8865 2.19723-.14836-1.49175.1088-2.38011.845-3.15993z" fill="#49302e"/><path d="m10.9159 4.95913c.5657-.59924 1.6363-.60019 2.1309-.5108l.3956 1.29062c-.2528-.03911-.2954-.0015-.485.18288-.1376 1.09286-1.3762 1.75667-2.8865 2.19723-.14836-1.49175.1088-2.38011.845-3.15993z" fill="url(#aR)"/><path d="m10.9159 4.95913c.5657-.59924 1.6363-.60019 2.1309-.5108l.3956 1.29062c-.2528-.03911-.2954-.0015-.485.18288-.1376 1.09286-1.3762 1.75667-2.8865 2.19723-.14836-1.49175.1088-2.38011.845-3.15993z" fill="url(#aS)"/></g><g filter="url(#y)"><path d="m15.3817 3.15682c-1.1327-.25007-2.1497.87997-2.2671 1.299 1.0518 3.54502 3.713 3.35083 6.3401 3.05894 1.5726-.17473 1.7431.54195 1.8772.88835 0-3.93271-3.3441-4.67097-5.9216-5.23997z" fill="#553836"/><path d="m15.3817 3.15682c-1.1327-.25007-2.1497.87997-2.2671 1.299 1.0518 3.54502 3.713 3.35083 6.3401 3.05894 1.5726-.17473 1.7431.54195 1.8772.88835 0-3.93271-3.3441-4.67097-5.9216-5.23997z" fill="url(#aT)"/><path d="m15.3817 3.15682c-1.1327-.25007-2.1497.87997-2.2671 1.299 1.0518 3.54502 3.713 3.35083 6.3401 3.05894 1.5726-.17473 1.7431.54195 1.8772.88835 0-3.93271-3.3441-4.67097-5.9216-5.23997z" fill="url(#aU)"/></g><g filter="url(#z)"><path d="m13.0938 4.40552c.0232.24304.2346 1.15653.5447 1.70965" stroke="url(#aV)" stroke-linecap="round" stroke-width=".2"/></g><g filter="url(#A)"><path d="m18.3914 6.76644-1.4254.26221c-.4229.07777-.8127-.24688-.8127-.6768 0-.38006.3076-.68815.6877-.68815h2.3408c1.3844 0 1.8426 1.39524 1.8987 1.872-.7269-.66259-1.7218-.94719-2.6891-.76926z" fill="#664a4a"/></g></svg>