<svg enable-background="new 0 0 128 128" viewBox="0 0 128 128" xmlns="http://www.w3.org/2000/svg"><g fill="#00d26a" transform="scale(4)"><path d="m22 9.01001h.53c.28 0 .5-.22.5-.5s.22-.5.5-.5h1.26c.13 0 .26.04999.35.14999l.68.68c.11.11.26.16.41.14l.47-.04999c.16-.02.3-.11001.38-.26001l.77-1.4c.09-.16.26-.25999.44-.25999h1.2c.28 0 .5-.22.5-.5v-1.29001c0-.13-.05-.25999-.15-.34999l-.71-.71001c-.09-.09-.22-.14999-.35-.14999h-1.63c-.74 0-1.45-.29001-1.98-.82001l-1.04-1.03999c-.09-.09-.22-.15001-.35-.15001h-1.36c-.28 0-.5.22-.5.5v1c0 .28.22.5.5.5h.07c.28 0 .5.22.5.5v1c0 .28-.22.5-.5.5h-.1c-.78 0-1.4.63001-1.4 1.40001v.59c.01.57.46 1.02 1.01 1.02z"/><path d="m7.11999 22.3201-.57001.8499c-.24.36.02001.85.45001.85h6.37001c.34 0 .61.27.61.61v.0201c0 .76.61 1.3699 1.37 1.3699h.13c.83 0 1.5-.67 1.5-1.5 0-.29.21-.54.49-.6l3.56-.7099c.62-.1201 1.19-.4301 1.63-.8801l.14-.14c.12-.12.27-.1799.44-.1799h.02c.46 0 .91-.1801 1.24-.5101.31-.31.49-.73.49-1.17v-4.2099c0-.07.01-.13.03-.19l.87-2.6201c.06-.18.03-.38-.07-.53l-1.47-2.2c-.21-.31-.62-.3999-.93-.2099l-.96.59c-.29.18-.47.4999-.47.8399v3.4901c0 .34-.27.61-.61.61-.24 0-.45.1399-.55.3499l-.67 1.42c-.1.21-.32.35-.55.35-.34 0-.61-.27-.61-.61v-.07c0-.34-.27-.61-.61-.61h-.78c-.34 0-.61.27-.61.61v.58c0 .13-.04.25-.11.35l-.42.59c-.96 1.35-2.51 2.1501-4.16 2.1501h-2.74001c-.99.01-1.9.5-2.45 1.31z"/><path d="m2.98999 27.52v2c0 .28.22.5.5.5h.43001c1.22 0 2.27999-.83 2.56999-2.01l.43001-1.72c.04-.17-.01001-.35-.13001-.47l-1.64999-1.65c-.09-.09-.22001-.15-.35001-.15h-1.47999c-.19 0-.36.11-.45.28l-.81001 1.62c-.03.07-.04999.15-.04999.22v.38c0 .28.22.5.5.5.27 0 .48999.22.48999.5z"/><path d="m12.42 25.02c.32 0 .58.26.58.58 0 .25-.16.47-.39.55l-2.21.74c-.24.08-.4.3-.4.55 0 .32-.26.58-.58.58h-.84001c-.32 0-.57999-.26-.57999-.58v-.54c0-.54.30999-1.03.78999-1.27l1.09-.55c.08-.04.17001-.06.26001-.06z"/><path d="m19.71 16.02c-.39 0-.71-.32-.71-.71 0-.19.07-.37.21-.5l.59-.59c.13-.14.31-.21.5-.21.39 0 .71.32.71.71 0 .19-.08.37-.21.5l-.59.59c-.13.14-.31.21-.5.21z"/></g></svg>