<svg fill="none" height="32" viewBox="0 0 32 32" width="32" xmlns="http://www.w3.org/2000/svg" xmlns:xlink="http://www.w3.org/1999/xlink"><filter id="a" color-interpolation-filters="sRGB" filterUnits="userSpaceOnUse" height="15.7681" width="15.2681" x="7.12146" y="3.78674"><feFlood flood-opacity="0" result="BackgroundImageFix"/><feBlend in="SourceGraphic" in2="BackgroundImageFix" mode="normal" result="shape"/><feColorMatrix in="SourceAlpha" result="hardAlpha" type="matrix" values="0 0 0 0 0 0 0 0 0 0 0 0 0 0 0 0 0 0 127 0"/><feOffset dx=".25" dy="-.75"/><feGaussianBlur stdDeviation=".75"/><feComposite in2="hardAlpha" k2="-1" k3="1" operator="arithmetic"/><feColorMatrix type="matrix" values="0 0 0 0 0.121569 0 0 0 0 0.0705882 0 0 0 0 0.164706 0 0 0 1 0"/><feBlend in2="shape" mode="normal" result="effect1_innerShadow_4002_37"/></filter><filter id="b" color-interpolation-filters="sRGB" filterUnits="userSpaceOnUse" height="3.21814" width="3.36817" x="8.33582" y="11.4558"><feFlood flood-opacity="0" result="BackgroundImageFix"/><feBlend in="SourceGraphic" in2="BackgroundImageFix" mode="normal" result="shape"/><feColorMatrix in="SourceAlpha" result="hardAlpha" type="matrix" values="0 0 0 0 0 0 0 0 0 0 0 0 0 0 0 0 0 0 127 0"/><feOffset dx=".15"/><feGaussianBlur stdDeviation=".25"/><feComposite in2="hardAlpha" k2="-1" k3="1" operator="arithmetic"/><feColorMatrix type="matrix" values="0 0 0 0 0.894118 0 0 0 0 0.682353 0 0 0 0 0.6 0 0 0 1 0"/><feBlend in2="shape" mode="normal" result="effect1_innerShadow_4002_37"/></filter><filter id="c" color-interpolation-filters="sRGB" filterUnits="userSpaceOnUse" height="3.46814" width="3.21817" x="17.8488" y="11.2058"><feFlood flood-opacity="0" result="BackgroundImageFix"/><feBlend in="SourceGraphic" in2="BackgroundImageFix" mode="normal" result="shape"/><feColorMatrix in="SourceAlpha" result="hardAlpha" type="matrix" values="0 0 0 0 0 0 0 0 0 0 0 0 0 0 0 0 0 0 127 0"/><feOffset dy="-.25"/><feGaussianBlur stdDeviation=".25"/><feComposite in2="hardAlpha" k2="-1" k3="1" operator="arithmetic"/><feColorMatrix type="matrix" values="0 0 0 0 0.784314 0 0 0 0 0.572549 0 0 0 0 0.513726 0 0 0 1 0"/><feBlend in2="shape" mode="normal" result="effect1_innerShadow_4002_37"/></filter><filter id="d" color-interpolation-filters="sRGB" filterUnits="userSpaceOnUse" height="3.14819" width="3.14822" x="17.8837" y="11.4908"><feFlood flood-opacity="0" result="BackgroundImageFix"/><feBlend in="SourceGraphic" in2="BackgroundImageFix" mode="normal" result="shape"/><feGaussianBlur result="effect1_foregroundBlur_4002_37" stdDeviation=".25"/></filter><filter id="e" color-interpolation-filters="sRGB" filterUnits="userSpaceOnUse" height="2.94819" width="2.94822" x="8.49001" y="11.5908"><feFlood flood-opacity="0" result="BackgroundImageFix"/><feBlend in="SourceGraphic" in2="BackgroundImageFix" mode="normal" result="shape"/><feGaussianBlur result="effect1_foregroundBlur_4002_37" stdDeviation=".2"/></filter><filter id="f" color-interpolation-filters="sRGB" filterUnits="userSpaceOnUse" height="11.2768" width="10.1909" x="9.53528" y="8.15808"><feFlood flood-opacity="0" result="BackgroundImageFix"/><feBlend in="SourceGraphic" in2="BackgroundImageFix" mode="normal" result="shape"/><feColorMatrix in="SourceAlpha" result="hardAlpha" type="matrix" values="0 0 0 0 0 0 0 0 0 0 0 0 0 0 0 0 0 0 127 0"/><feOffset dy=".4"/><feGaussianBlur stdDeviation=".3"/><feComposite in2="hardAlpha" k2="-1" k3="1" operator="arithmetic"/><feColorMatrix type="matrix" values="0 0 0 0 0.807843 0 0 0 0 0.592157 0 0 0 0 0.52549 0 0 0 1 0"/><feBlend in2="shape" mode="normal" result="effect1_innerShadow_4002_37"/></filter><filter id="g" color-interpolation-filters="sRGB" filterUnits="userSpaceOnUse" height="3.68176" width="2.87726" x="13.0297" y="12.0598"><feFlood flood-opacity="0" result="BackgroundImageFix"/><feBlend in="SourceGraphic" in2="BackgroundImageFix" mode="normal" result="shape"/><feGaussianBlur result="effect1_foregroundBlur_4002_37" stdDeviation=".25"/></filter><filter id="h" color-interpolation-filters="sRGB" filterUnits="userSpaceOnUse" height="2.88176" width="2.07726" x="13.592" y="12.3213"><feFlood flood-opacity="0" result="BackgroundImageFix"/><feBlend in="SourceGraphic" in2="BackgroundImageFix" mode="normal" result="shape"/><feGaussianBlur result="effect1_foregroundBlur_4002_37" stdDeviation=".05"/></filter><filter id="i" color-interpolation-filters="sRGB" filterUnits="userSpaceOnUse" height="1.52593" width="3.70232" x="12.7795" y="15.4131"><feFlood flood-opacity="0" result="BackgroundImageFix"/><feBlend in="SourceGraphic" in2="BackgroundImageFix" mode="normal" result="shape"/><feGaussianBlur result="effect1_foregroundBlur_4002_37" stdDeviation=".05"/></filter><filter id="j" color-interpolation-filters="sRGB" filterUnits="userSpaceOnUse" height="1.2854" width="3.00139" x="15.5727" y="11.6604"><feFlood flood-opacity="0" result="BackgroundImageFix"/><feBlend in="SourceGraphic" in2="BackgroundImageFix" mode="normal" result="shape"/><feColorMatrix in="SourceAlpha" result="hardAlpha" type="matrix" values="0 0 0 0 0 0 0 0 0 0 0 0 0 0 0 0 0 0 127 0"/><feOffset dx="-.2"/><feGaussianBlur stdDeviation=".2"/><feComposite in2="hardAlpha" k2="-1" k3="1" operator="arithmetic"/><feColorMatrix type="matrix" values="0 0 0 0 0.0941176 0 0 0 0 0.0666667 0 0 0 0 0.117647 0 0 0 1 0"/><feBlend in2="shape" mode="normal" result="effect1_innerShadow_4002_37"/></filter><filter id="k" color-interpolation-filters="sRGB" filterUnits="userSpaceOnUse" height="1.2854" width="3.00139" x="10.6874" y="11.6604"><feFlood flood-opacity="0" result="BackgroundImageFix"/><feBlend in="SourceGraphic" in2="BackgroundImageFix" mode="normal" result="shape"/><feColorMatrix in="SourceAlpha" result="hardAlpha" type="matrix" values="0 0 0 0 0 0 0 0 0 0 0 0 0 0 0 0 0 0 127 0"/><feOffset dx=".2"/><feGaussianBlur stdDeviation=".125"/><feComposite in2="hardAlpha" k2="-1" k3="1" operator="arithmetic"/><feColorMatrix type="matrix" values="0 0 0 0 0.0862745 0 0 0 0 0.054902 0 0 0 0 0.113725 0 0 0 1 0"/><feBlend in2="shape" mode="normal" result="effect1_innerShadow_4002_37"/></filter><filter id="l" color-interpolation-filters="sRGB" filterUnits="userSpaceOnUse" height="1.09099" width="2.45278" x="10.8226" y="10.2368"><feFlood flood-opacity="0" result="BackgroundImageFix"/><feBlend in="SourceGraphic" in2="BackgroundImageFix" mode="normal" result="shape"/><feColorMatrix in="SourceAlpha" result="hardAlpha" type="matrix" values="0 0 0 0 0 0 0 0 0 0 0 0 0 0 0 0 0 0 127 0"/><feOffset dx=".2" dy="-.2"/><feGaussianBlur stdDeviation=".15"/><feComposite in2="hardAlpha" k2="-1" k3="1" operator="arithmetic"/><feColorMatrix type="matrix" values="0 0 0 0 0.0431373 0 0 0 0 0.0235294 0 0 0 0 0.0313726 0 0 0 1 0"/><feBlend in2="shape" mode="normal" result="effect1_innerShadow_4002_37"/></filter><filter id="m" color-interpolation-filters="sRGB" filterUnits="userSpaceOnUse" height="1.09111" width="2.45278" x="16.2396" y="10.2368"><feFlood flood-opacity="0" result="BackgroundImageFix"/><feBlend in="SourceGraphic" in2="BackgroundImageFix" mode="normal" result="shape"/><feColorMatrix in="SourceAlpha" result="hardAlpha" type="matrix" values="0 0 0 0 0 0 0 0 0 0 0 0 0 0 0 0 0 0 127 0"/><feOffset dx=".2" dy="-.2"/><feGaussianBlur stdDeviation=".15"/><feComposite in2="hardAlpha" k2="-1" k3="1" operator="arithmetic"/><feColorMatrix type="matrix" values="0 0 0 0 0.0431373 0 0 0 0 0.0235294 0 0 0 0 0.0313726 0 0 0 1 0"/><feBlend in2="shape" mode="normal" result="effect1_innerShadow_4002_37"/></filter><filter id="n" color-interpolation-filters="sRGB" filterUnits="userSpaceOnUse" height=".696338" width=".786823" x="16.0786" y="12.0281"><feFlood flood-opacity="0" result="BackgroundImageFix"/><feBlend in="SourceGraphic" in2="BackgroundImageFix" mode="normal" result="shape"/><feGaussianBlur result="effect1_foregroundBlur_4002_37" stdDeviation=".05"/></filter><filter id="o" color-interpolation-filters="sRGB" filterUnits="userSpaceOnUse" height=".913428" width=".891241" x="16.9185" y="12.1031"><feFlood flood-opacity="0" result="BackgroundImageFix"/><feBlend in="SourceGraphic" in2="BackgroundImageFix" mode="normal" result="shape"/><feGaussianBlur result="effect1_foregroundBlur_4002_37" stdDeviation=".1"/></filter><filter id="p" color-interpolation-filters="sRGB" filterUnits="userSpaceOnUse" height="1.04014" width=".986304" x="12.4757" y="12.0396"><feFlood flood-opacity="0" result="BackgroundImageFix"/><feBlend in="SourceGraphic" in2="BackgroundImageFix" mode="normal" result="shape"/><feGaussianBlur result="effect1_foregroundBlur_4002_37" stdDeviation=".1"/></filter><filter id="q" color-interpolation-filters="sRGB" filterUnits="userSpaceOnUse" height=".704517" width=".913043" x="11.7206" y="12.0199"><feFlood flood-opacity="0" result="BackgroundImageFix"/><feBlend in="SourceGraphic" in2="BackgroundImageFix" mode="normal" result="shape"/><feGaussianBlur result="effect1_foregroundBlur_4002_37" stdDeviation=".05"/></filter><filter id="r" color-interpolation-filters="sRGB" filterUnits="userSpaceOnUse" height=".977759" width="2.26081" x="16.2702" y="10.359"><feFlood flood-opacity="0" result="BackgroundImageFix"/><feBlend in="SourceGraphic" in2="BackgroundImageFix" mode="normal" result="shape"/><feGaussianBlur result="effect1_foregroundBlur_4002_37" stdDeviation=".1"/></filter><filter id="s" color-interpolation-filters="sRGB" filterUnits="userSpaceOnUse" height=".977759" width="2.26081" x="10.8184" y="10.359"><feFlood flood-opacity="0" result="BackgroundImageFix"/><feBlend in="SourceGraphic" in2="BackgroundImageFix" mode="normal" result="shape"/><feGaussianBlur result="effect1_foregroundBlur_4002_37" stdDeviation=".1"/></filter><filter id="t" color-interpolation-filters="sRGB" filterUnits="userSpaceOnUse" height="4.51338" width="4.2118" x="8.37615" y="6.22307"><feFlood flood-opacity="0" result="BackgroundImageFix"/><feBlend in="SourceGraphic" in2="BackgroundImageFix" mode="normal" result="shape"/><feColorMatrix in="SourceAlpha" result="hardAlpha" type="matrix" values="0 0 0 0 0 0 0 0 0 0 0 0 0 0 0 0 0 0 127 0"/><feOffset dx=".5" dy=".5"/><feGaussianBlur stdDeviation=".5"/><feComposite in2="hardAlpha" k2="-1" k3="1" operator="arithmetic"/><feColorMatrix type="matrix" values="0 0 0 0 0.352941 0 0 0 0 0.341176 0 0 0 0 0.341176 0 0 0 1 0"/><feBlend in2="shape" mode="normal" result="effect1_innerShadow_4002_37"/><feGaussianBlur result="effect2_foregroundBlur_4002_37" stdDeviation=".15"/></filter><filter id="u" color-interpolation-filters="sRGB" filterUnits="userSpaceOnUse" height="5.78198" width="8.76732" x="11.4601" y="4.98853"><feFlood flood-opacity="0" result="BackgroundImageFix"/><feBlend in="SourceGraphic" in2="BackgroundImageFix" mode="normal" result="shape"/><feColorMatrix in="SourceAlpha" result="hardAlpha" type="matrix" values="0 0 0 0 0 0 0 0 0 0 0 0 0 0 0 0 0 0 127 0"/><feOffset dx="-.3" dy=".2"/><feGaussianBlur stdDeviation=".4"/><feComposite in2="hardAlpha" k2="-1" k3="1" operator="arithmetic"/><feColorMatrix type="matrix" values="0 0 0 0 0.345098 0 0 0 0 0.329412 0 0 0 0 0.333333 0 0 0 1 0"/><feBlend in2="shape" mode="normal" result="effect1_innerShadow_4002_37"/><feGaussianBlur result="effect2_foregroundBlur_4002_37" stdDeviation=".125"/></filter><filter id="v" color-interpolation-filters="sRGB" filterUnits="userSpaceOnUse" height="2.30967" width="1.14475" x="11.4394" y="6.22297"><feFlood flood-opacity="0" result="BackgroundImageFix"/><feBlend in="SourceGraphic" in2="BackgroundImageFix" mode="normal" result="shape"/><feGaussianBlur result="effect1_foregroundBlur_4002_37" stdDeviation=".1"/></filter><filter id="w" color-interpolation-filters="sRGB" filterUnits="userSpaceOnUse" height="3.37195" width="6.42715" x="14.049" y="7.03125"><feFlood flood-opacity="0" result="BackgroundImageFix"/><feBlend in="SourceGraphic" in2="BackgroundImageFix" mode="normal" result="shape"/><feGaussianBlur result="effect1_foregroundBlur_4002_37" stdDeviation=".375"/></filter><filter id="x" color-interpolation-filters="sRGB" filterUnits="userSpaceOnUse" height=".726221" width=".726221" x="23.4178" y="6.58677"><feFlood flood-opacity="0" result="BackgroundImageFix"/><feBlend in="SourceGraphic" in2="BackgroundImageFix" mode="normal" result="shape"/><feColorMatrix in="SourceAlpha" result="hardAlpha" type="matrix" values="0 0 0 0 0 0 0 0 0 0 0 0 0 0 0 0 0 0 127 0"/><feOffset dx=".1" dy="-.1"/><feGaussianBlur stdDeviation=".1"/><feComposite in2="hardAlpha" k2="-1" k3="1" operator="arithmetic"/><feColorMatrix type="matrix" values="0 0 0 0 0.52549 0 0 0 0 0.388235 0 0 0 0 0.501961 0 0 0 1 0"/><feBlend in2="shape" mode="normal" result="effect1_innerShadow_4002_37"/></filter><filter id="y" color-interpolation-filters="sRGB" filterUnits="userSpaceOnUse" height="4.38682" width="3.83359" x="20.9604" y="7.38823"><feFlood flood-opacity="0" result="BackgroundImageFix"/><feBlend in="SourceGraphic" in2="BackgroundImageFix" mode="normal" result="shape"/><feColorMatrix in="SourceAlpha" result="hardAlpha" type="matrix" values="0 0 0 0 0 0 0 0 0 0 0 0 0 0 0 0 0 0 127 0"/><feOffset dx=".05" dy="-.05"/><feGaussianBlur stdDeviation=".1"/><feComposite in2="hardAlpha" k2="-1" k3="1" operator="arithmetic"/><feColorMatrix type="matrix" values="0 0 0 0 0.945098 0 0 0 0 0.45098 0 0 0 0 0.333333 0 0 0 1 0"/><feBlend in2="shape" mode="normal" result="effect1_innerShadow_4002_37"/><feColorMatrix in="SourceAlpha" result="hardAlpha" type="matrix" values="0 0 0 0 0 0 0 0 0 0 0 0 0 0 0 0 0 0 127 0"/><feOffset dx="-.1" dy=".1"/><feGaussianBlur stdDeviation=".1"/><feComposite in2="hardAlpha" k2="-1" k3="1" operator="arithmetic"/><feColorMatrix type="matrix" values="0 0 0 0 1 0 0 0 0 0.282353 0 0 0 0 0.435294 0 0 0 1 0"/><feBlend in2="effect1_innerShadow_4002_37" mode="normal" result="effect2_innerShadow_4002_37"/></filter><filter id="z" color-interpolation-filters="sRGB" filterUnits="userSpaceOnUse" height="3.7342" width="4.28349" x="24.1578" y="5.91143"><feFlood flood-opacity="0" result="BackgroundImageFix"/><feBlend in="SourceGraphic" in2="BackgroundImageFix" mode="normal" result="shape"/><feColorMatrix in="SourceAlpha" result="hardAlpha" type="matrix" values="0 0 0 0 0 0 0 0 0 0 0 0 0 0 0 0 0 0 127 0"/><feOffset dx=".05" dy="-.05"/><feGaussianBlur stdDeviation=".05"/><feComposite in2="hardAlpha" k2="-1" k3="1" operator="arithmetic"/><feColorMatrix type="matrix" values="0 0 0 0 0.882353 0 0 0 0 0.203922 0 0 0 0 0.435294 0 0 0 1 0"/><feBlend in2="shape" mode="normal" result="effect1_innerShadow_4002_37"/></filter><filter id="A" color-interpolation-filters="sRGB" filterUnits="userSpaceOnUse" height="3.84287" width="3.84284" x="24.6293" y="5.88203"><feFlood flood-opacity="0" result="BackgroundImageFix"/><feBlend in="SourceGraphic" in2="BackgroundImageFix" mode="normal" result="shape"/><feGaussianBlur result="effect1_foregroundBlur_4002_37" stdDeviation=".1"/></filter><filter id="B" color-interpolation-filters="sRGB" filterUnits="userSpaceOnUse" height="2.73435" width="2.73432" x="25.1835" y="6.43635"><feFlood flood-opacity="0" result="BackgroundImageFix"/><feBlend in="SourceGraphic" in2="BackgroundImageFix" mode="normal" result="shape"/><feGaussianBlur result="effect1_foregroundBlur_4002_37" stdDeviation=".1"/></filter><filter id="C" color-interpolation-filters="sRGB" filterUnits="userSpaceOnUse" height="2.73435" width="2.73432" x="21.535" y="8.45002"><feFlood flood-opacity="0" result="BackgroundImageFix"/><feBlend in="SourceGraphic" in2="BackgroundImageFix" mode="normal" result="shape"/><feGaussianBlur result="effect1_foregroundBlur_4002_37" stdDeviation=".1"/></filter><filter id="D" color-interpolation-filters="sRGB" filterUnits="userSpaceOnUse" height="3.80491" width="3.80485" x="20.9996" y="7.91475"><feFlood flood-opacity="0" result="BackgroundImageFix"/><feBlend in="SourceGraphic" in2="BackgroundImageFix" mode="normal" result="shape"/><feGaussianBlur result="effect1_foregroundBlur_4002_37" stdDeviation=".1"/></filter><linearGradient id="E" gradientUnits="userSpaceOnUse" x1="19.3238" x2="12.5187" y1="6.11232" y2="18.7168"><stop offset="0" stop-color="#393134"/><stop offset="1" stop-color="#1a1718"/></linearGradient><radialGradient id="F" cx="0" cy="0" gradientTransform="matrix(-.603403 4.55907251 -5.69520485 -.75377255 14.3289 15.5657)" gradientUnits="userSpaceOnUse" r="1"><stop offset=".590551" stop-color="#171418"/><stop offset="1" stop-color="#171418" stop-opacity="0"/></radialGradient><radialGradient id="G" cx="0" cy="0" gradientTransform="matrix(-2.88301442 1.94432495 -2.55469352 -3.78805932 11.513 15.8339)" gradientUnits="userSpaceOnUse" r="1"><stop offset=".258378" stop-color="#181518"/><stop offset="1" stop-color="#181518" stop-opacity="0"/></radialGradient><radialGradient id="H" cx="0" cy="0" gradientTransform="matrix(-1.30737385 1.70966478 -1.31278583 -1.0038821 9.78659 13.2862)" gradientUnits="userSpaceOnUse" r="1"><stop offset=".333546" stop-color="#040101"/><stop offset="1" stop-color="#040101" stop-opacity="0"/></radialGradient><radialGradient id="I" cx="0" cy="0" gradientTransform="matrix(-1.29063607 2.11191395 -1.48765585 -.90913851 10.2391 11.258)" gradientUnits="userSpaceOnUse" r="1"><stop offset=".320588" stop-color="#040002"/><stop offset="1" stop-color="#040002" stop-opacity="0"/></radialGradient><radialGradient id="J" cx="0" cy="0" gradientTransform="matrix(1.37443043 2.61476537 -3.62968546 1.90791503 11.1106 5.00607)" gradientUnits="userSpaceOnUse" r="1"><stop offset="0" stop-color="#474445"/><stop offset="1" stop-color="#474445" stop-opacity="0"/></radialGradient><radialGradient id="K" cx="0" cy="0" gradientTransform="matrix(-1.44137979 1.44148042 -2.01444783 -2.0143072 20.4635 7.08448)" gradientUnits="userSpaceOnUse" r="1"><stop offset="0" stop-color="#4a4446"/><stop offset="1" stop-color="#4a4446" stop-opacity="0"/></radialGradient><radialGradient id="L" cx="0" cy="0" gradientTransform="matrix(-1.84366344 .5363666 -1.11854825 -3.84480787 22.1396 12.2134)" gradientUnits="userSpaceOnUse" r="1"><stop offset="0" stop-color="#3b3638"/><stop offset="1" stop-color="#3b3638" stop-opacity="0"/></radialGradient><radialGradient id="M" cx="0" cy="0" gradientTransform="matrix(-2.81580991 .70399198 -.8967816 -3.58692513 21.5362 15.6327)" gradientUnits="userSpaceOnUse" r="1"><stop offset="0" stop-color="#464444"/><stop offset="1" stop-color="#464444" stop-opacity="0"/></radialGradient><radialGradient id="N" cx="0" cy="0" gradientTransform="matrix(-.90444277 -2.65026176 2.09620663 -.7153629 19.3631 9.77943)" gradientUnits="userSpaceOnUse" r="1"><stop offset="0" stop-color="#575455"/><stop offset="1" stop-color="#575455" stop-opacity="0"/></radialGradient><radialGradient id="O" cx="0" cy="0" gradientTransform="matrix(1.50391889 .15775324 -.25560559 2.43678083 8.48866 12.1773)" gradientUnits="userSpaceOnUse" r="1"><stop offset="0" stop-color="#413733"/><stop offset="1" stop-color="#413733" stop-opacity="0"/></radialGradient><radialGradient id="P" cx="0" cy="0" gradientTransform="matrix(-13.54958476 6.58780201 -7.58474806 -15.60007216 21.8752 22.7684)" gradientUnits="userSpaceOnUse" r="1"><stop offset="0" stop-color="#a46ee0"/><stop offset="1" stop-color="#8956cf"/></radialGradient><radialGradient id="Q" cx="0" cy="0" gradientTransform="matrix(-7.90626867 -10.81244208 15.55864138 -11.37678223 17.4758 29.8612)" gradientUnits="userSpaceOnUse" r="1"><stop offset=".895291" stop-color="#845b99" stop-opacity="0"/><stop offset="1" stop-color="#845b99"/></radialGradient><radialGradient id="R" cx="0" cy="0" gradientTransform="matrix(-5.81248992 1.18753065 -.34097048 -1.6689148 13.4009 18.5476)" gradientUnits="userSpaceOnUse" r="1"><stop offset="0" stop-color="#412558"/><stop offset="1" stop-color="#643a7c" stop-opacity="0"/></radialGradient><radialGradient id="S" cx="0" cy="0" gradientTransform="matrix(-3.93377 0 0 -19.371 21.5534 29.3562)" gradientUnits="userSpaceOnUse" r="1"><stop offset=".13253" stop-color="#ae81f2"/><stop offset="1" stop-color="#a46bd8" stop-opacity="0"/></radialGradient><radialGradient id="T" cx="0" cy="0" gradientTransform="matrix(1.5 0 0 23.8126 7.43213 29.3562)" gradientUnits="userSpaceOnUse" r="1"><stop offset="0" stop-color="#8654d1"/><stop offset="1" stop-color="#9860d3" stop-opacity="0"/></radialGradient><radialGradient id="U" cx="0" cy="0" gradientTransform="matrix(3.25185 0 0 9.13279 21.5844 28.5774)" gradientUnits="userSpaceOnUse" r="1"><stop offset=".576219" stop-color="#a677eb"/><stop offset="1" stop-color="#9775dd"/></radialGradient><radialGradient id="V" cx="0" cy="0" gradientTransform="matrix(.870059 0 0 11.9715 21.5844 29.3562)" gradientUnits="userSpaceOnUse" r="1"><stop offset="0" stop-color="#8752d9"/><stop offset="1" stop-color="#8752d9" stop-opacity="0"/></radialGradient><radialGradient id="W" cx="0" cy="0" gradientTransform="matrix(-3.70862 0 0 -8.85437 7.31738 29.3562)" gradientUnits="userSpaceOnUse" r="1"><stop offset=".614241" stop-color="#8052c3" stop-opacity="0"/><stop offset="1" stop-color="#8267b6"/></radialGradient><radialGradient id="X" cx="0" cy="0" gradientTransform="matrix(-.846301 0 0 -10.457 7.31738 29.3562)" gradientUnits="userSpaceOnUse" r="1"><stop offset=".110572" stop-color="#9a6fdb"/><stop offset="1" stop-color="#9a6fdb" stop-opacity="0"/></radialGradient><radialGradient id="Y" cx="0" cy="0" gradientTransform="matrix(.56250029 1.74999975 -3.03540959 .97566802 13.7081 18.6469)" gradientUnits="userSpaceOnUse" r="1"><stop offset=".243234" stop-color="#c7868a"/><stop offset="1" stop-color="#c7868a" stop-opacity="0"/></radialGradient><radialGradient id="Z" cx="0" cy="0" gradientTransform="matrix(-2.96740856 2.28562479 -.98994456 -1.28523718 17.5981 19.5175)" gradientUnits="userSpaceOnUse" r="1"><stop offset=".285185" stop-color="#fec2b9"/><stop offset="1" stop-color="#fec2b9" stop-opacity="0"/></radialGradient><linearGradient id="aa"><stop offset=".00558659" stop-color="#ccc"/><stop offset="1" stop-color="#e6e6e6"/></linearGradient><linearGradient id="ab" gradientUnits="userSpaceOnUse" x1="7.44602" x2="21.822" xlink:href="#aa" y1="17.711" y2="17.711"/><linearGradient id="ac" gradientUnits="userSpaceOnUse" x1="7.4459" x2="21.8219" xlink:href="#aa" y1="17.6807" y2="17.6807"/><linearGradient id="ad" gradientUnits="userSpaceOnUse" x1="8.33582" x2="11.2951" y1="13.1521" y2="13.1521"><stop offset="0" stop-color="#cc9987"/><stop offset="1" stop-color="#ac7864"/></linearGradient><radialGradient id="ae" cx="0" cy="0" gradientTransform="matrix(1.82698404 -2.03650014 2.4864728 2.2306633 19.1394 14.0404)" gradientUnits="userSpaceOnUse" r="1"><stop offset=".444268" stop-color="#e5b1a5"/><stop offset=".94391" stop-color="#ffd8c1"/></radialGradient><radialGradient id="af" cx="0" cy="0" gradientTransform="matrix(1.31575785 .73749645 -.2085022 .37198608 19.7009 11.3838)" gradientUnits="userSpaceOnUse" r="1"><stop offset="0" stop-color="#dba98b"/><stop offset="1" stop-color="#dba98b" stop-opacity="0"/></radialGradient><radialGradient id="ag" cx="0" cy="0" gradientTransform="matrix(1.50988852 -.11231354 .08779841 1.18031905 19.022 13.1773)" gradientUnits="userSpaceOnUse" r="1"><stop offset=".719132" stop-color="#f4b89e" stop-opacity="0"/><stop offset="1" stop-color="#f5b99d"/></radialGradient><radialGradient id="ah" cx="0" cy="0" gradientTransform="matrix(-1.20681 0 0 -.952028 10.0295 13.065)" gradientUnits="userSpaceOnUse" r="1"><stop offset=".666667" stop-color="#bc8272" stop-opacity="0"/><stop offset="1" stop-color="#bc8272"/></radialGradient><radialGradient id="ai" cx="0" cy="0" gradientTransform="matrix(-6.50357127 2.99901326 -4.01412942 -8.70492209 17.49 12.5274)" gradientUnits="userSpaceOnUse" r="1"><stop offset="0" stop-color="#ffd7bf"/><stop offset="1" stop-color="#d59f97"/></radialGradient><radialGradient id="aj" cx="0" cy="0" gradientTransform="matrix(-3.46116433 .45112398 -.49796128 -3.82051483 17.8824 13.8896)" gradientUnits="userSpaceOnUse" r="1"><stop offset="0" stop-color="#ffdebf"/><stop offset="1" stop-color="#ffdebf" stop-opacity="0"/></radialGradient><radialGradient id="ak" cx="0" cy="0" gradientTransform="matrix(1.30738001 -3.78805637 4.80633544 1.65882085 12.2506 19.8566)" gradientUnits="userSpaceOnUse" r="1"><stop offset="0" stop-color="#b87c92"/><stop offset="1" stop-color="#b87c92" stop-opacity="0"/></radialGradient><radialGradient id="al" cx="0" cy="0" gradientTransform="matrix(0 6.72467 -7.78405 0 14.6307 12.3102)" gradientUnits="userSpaceOnUse" r="1"><stop offset=".566942" stop-color="#cc9299" stop-opacity="0"/><stop offset="1" stop-color="#be7c90"/></radialGradient><radialGradient id="am" cx="0" cy="0" gradientTransform="matrix(-6.90565842 1.35521182 -2.33325718 -11.88941602 16.4409 14.2583)" gradientUnits="userSpaceOnUse" r="1"><stop offset=".794964" stop-color="#e2a895" stop-opacity="0"/><stop offset="1" stop-color="#e2a895"/></radialGradient><radialGradient id="an" cx="0" cy="0" gradientTransform="matrix(0 -1.15077 1.41231 0 16.932 12.1089)" gradientUnits="userSpaceOnUse" r="1"><stop offset="0" stop-color="#f6baa9"/><stop offset="1" stop-color="#f6baa9" stop-opacity="0"/></radialGradient><radialGradient id="ao" cx="0" cy="0" gradientTransform="matrix(0 -1.31251 1.50423 0 12.5542 11.8804)" gradientUnits="userSpaceOnUse" r="1"><stop offset="0" stop-color="#d09790"/><stop offset="1" stop-color="#d09790" stop-opacity="0"/></radialGradient><radialGradient id="ap" cx="0" cy="0" gradientTransform="matrix(-1.28528 0 0 -6.44557 19.7261 13.5965)" gradientUnits="userSpaceOnUse" r="1"><stop offset="0" stop-color="#ffd8bc"/><stop offset="1" stop-color="#ffd8bc" stop-opacity="0"/></radialGradient><radialGradient id="aq" cx="0" cy="0" gradientTransform="matrix(1.31250349 4.0000004 -6.96848161 2.28653889 12.446 6.52896)" gradientUnits="userSpaceOnUse" r="1"><stop offset="0" stop-color="#a47463"/><stop offset="1" stop-color="#a47463" stop-opacity="0"/></radialGradient><radialGradient id="ar" cx="0" cy="0" gradientTransform="matrix(-.45554265 -2.04401248 .62994599 -.14039409 15.415 14.3233)" gradientUnits="userSpaceOnUse" r="1"><stop offset=".0168227" stop-color="#ffdcc5"/><stop offset="1" stop-color="#ffdcc5" stop-opacity="0"/></radialGradient><linearGradient id="as" gradientUnits="userSpaceOnUse" x1="13.692" x2="14.6306" y1="14.3961" y2="14.3961"><stop offset="0" stop-color="#dfa791"/><stop offset="1" stop-color="#dfa791" stop-opacity="0"/></linearGradient><linearGradient id="at" gradientUnits="userSpaceOnUse" x1="14.6306" x2="14.6306" y1="15.1951" y2="14.5848"><stop offset="0" stop-color="#d29394"/><stop offset="1" stop-color="#d29394" stop-opacity="0"/></linearGradient><radialGradient id="au" cx="0" cy="0" gradientTransform="matrix(-.7794 0 0 -.217897 15.1754 14.5349)" gradientUnits="userSpaceOnUse" r="1"><stop offset="0" stop-color="#ffd6c2"/><stop offset="1" stop-color="#ffd6c2" stop-opacity="0"/></radialGradient><linearGradient id="av" gradientUnits="userSpaceOnUse" x1="13.5664" x2="14.0273" y1="16.6049" y2="15.8926"><stop offset="0" stop-color="#eabbab"/><stop offset=".663171" stop-color="#eabbab" stop-opacity="0"/></linearGradient><linearGradient id="aw"><stop offset=".80198" stop-color="#7d574a"/><stop offset="1" stop-color="#694b43"/><stop offset="1" stop-color="#804d49"/><stop offset="1" stop-color="#664944"/></linearGradient><radialGradient id="ax" cx="0" cy="0" gradientTransform="matrix(0 .811316 -1.29049 0 16.8128 12.4679)" gradientUnits="userSpaceOnUse" r="1" xlink:href="#aw"/><linearGradient id="ay"><stop offset=".765532" stop-color="#ffe6e2" stop-opacity="0"/><stop offset=".966159" stop-color="#ffe6e2"/></linearGradient><radialGradient id="az" cx="0" cy="0" gradientTransform="matrix(-.23191676 -.29885601 .41145298 -.31929369 16.5846 12.552)" gradientUnits="userSpaceOnUse" r="1" xlink:href="#ay"/><linearGradient id="aA"><stop offset="0" stop-color="#b4948d"/><stop offset="1" stop-color="#b4948d" stop-opacity="0"/></linearGradient><linearGradient id="aB" gradientUnits="userSpaceOnUse" x1="17.5907" x2="17.277" xlink:href="#aA" y1="12.5218" y2="12.7151"/><radialGradient id="aC" cx="0" cy="0" gradientTransform="matrix(0 .81132 -1.2905 0 12.4486 12.4679)" gradientUnits="userSpaceOnUse" r="1" xlink:href="#aw"/><linearGradient id="aD" gradientUnits="userSpaceOnUse" x1="13.1925" x2="12.8787" xlink:href="#aA" y1="12.5217" y2="12.715"/><radialGradient id="aE" cx="0" cy="0" gradientTransform="matrix(-.00773543 -.49405945 .59387921 -.0092983 12.1621 12.687)" gradientUnits="userSpaceOnUse" r="1" xlink:href="#ay"/><radialGradient id="aF" cx="0" cy="0" gradientTransform="matrix(1.26202682 -2.75542559 1.40961118 .64562336 8.97244 10.3473)" gradientUnits="userSpaceOnUse" r="1"><stop offset="0" stop-color="#433838"/><stop offset="1" stop-color="#433838" stop-opacity="0"/></radialGradient><radialGradient id="aG" cx="0" cy="0" gradientTransform="matrix(-2.11195111 4.39144816 -7.17976405 -3.45291806 16.5414 5.14016)" gradientUnits="userSpaceOnUse" r="1"><stop offset=".639192" stop-color="#1f0d24" stop-opacity="0"/><stop offset="1" stop-color="#1f0d24"/></radialGradient><radialGradient id="aH" cx="0" cy="0" gradientTransform="matrix(-.21033618 1.36719503 -2.94144408 -.45252659 14.8408 5.50957)" gradientUnits="userSpaceOnUse" r="1"><stop offset="0" stop-color="#4c4749"/><stop offset="1" stop-color="#4c4749" stop-opacity="0"/></radialGradient><linearGradient id="aI" gradientUnits="userSpaceOnUse" x1="11.7394" x2="12.2841" y1="6.86656" y2="8.14041"><stop offset="0" stop-color="#1a1316"/><stop offset="1" stop-color="#24182d"/></linearGradient><radialGradient id="aJ" cx="0" cy="0" gradientTransform="matrix(-6.2187489 1.75000257 -2.17983375 -7.74618219 23.4633 6.20385)" gradientUnits="userSpaceOnUse" r="1"><stop offset="0" stop-color="#1f1021"/><stop offset=".686883" stop-color="#332a2e"/><stop offset=".843387" stop-color="#332a2e" stop-opacity="0"/></radialGradient><linearGradient id="aK"><stop offset="0" stop-color="#9b8299"/><stop offset="1" stop-color="#d9b4c8"/></linearGradient><linearGradient id="aL" gradientUnits="userSpaceOnUse" x1="24.9411" x2="23.7497" xlink:href="#aK" y1="5.04919" y2="4.7043"/><linearGradient id="aM" gradientUnits="userSpaceOnUse" x1="23.7928" x2="23.8671" y1="6.54225" y2="6.25318"><stop offset=".159984" stop-color="#a28b95"/><stop offset="1" stop-color="#c0a0b5" stop-opacity="0"/></linearGradient><linearGradient id="aN" gradientUnits="userSpaceOnUse" x1="22.8788" x2="23.1444" xlink:href="#aK" y1="7.39776" y2="6.10089"/><linearGradient id="aO" gradientUnits="userSpaceOnUse" x1="24.2901" x2="24.092" y1="7.47964" y2="7.42415"><stop offset="0" stop-color="#93768e"/><stop offset="1" stop-color="#a2889f" stop-opacity="0"/></linearGradient><radialGradient id="aP" cx="0" cy="0" gradientTransform="matrix(-.339844 .27343696 -.27343696 -.339844 23.9061 6.90552)" gradientUnits="userSpaceOnUse" r="1"><stop offset=".168418" stop-color="#ebdbe4"/><stop offset="1" stop-color="#c7b1b5"/></radialGradient><radialGradient id="aQ" cx="0" cy="0" gradientTransform="matrix(.19921901 -.48437543 1.17186442 .4819767 23.5858 7.34692)" gradientUnits="userSpaceOnUse" r="1"><stop offset=".147238" stop-color="#996e9f"/><stop offset="1" stop-color="#c8b3b7" stop-opacity="0"/></radialGradient><radialGradient id="aR" cx="0" cy="0" gradientTransform="matrix(.43750001 .04687497 -.05919957 .55252965 23.3788 6.91333)" gradientUnits="userSpaceOnUse" r="1"><stop offset=".180922" stop-color="#a4888c"/><stop offset="1" stop-color="#a4888c" stop-opacity="0"/></radialGradient><linearGradient id="aS"><stop offset=".205451" stop-color="#ff7046"/><stop offset="1" stop-color="#ff2d78"/></linearGradient><radialGradient id="aT" cx="0" cy="0" gradientTransform="matrix(2.20247007 -1.6171887 2.56784184 3.49717681 21.3886 10.0962)" gradientUnits="userSpaceOnUse" r="1" xlink:href="#aS"/><linearGradient id="aU" gradientUnits="userSpaceOnUse" x1="23.6288" x2="23.5702" y1="7.56954" y2="7.7961"><stop offset=".20895" stop-color="#b71143"/><stop offset="1" stop-color="#ff3178" stop-opacity="0"/></linearGradient><radialGradient id="aV" cx="0" cy="0" gradientTransform="matrix(2.53125362 -1.40625177 1.98702722 3.5766496 24.535 8.27269)" gradientUnits="userSpaceOnUse" r="1" xlink:href="#aS"/><linearGradient id="aW" gradientUnits="userSpaceOnUse" x1="24.8793" x2="28.0691" y1="8.17206" y2="6.69959"><stop offset=".616109" stop-color="#ff4f4f"/><stop offset=".899841" stop-color="#ff6792"/></linearGradient><linearGradient id="aX" gradientUnits="userSpaceOnUse" x1="25.4335" x2="27.5655" y1="8.0499" y2="7.06572"><stop offset=".247155" stop-color="#ff7e7a"/><stop offset=".669356" stop-color="#ff7e7a" stop-opacity="0"/></linearGradient><linearGradient id="aY" gradientUnits="userSpaceOnUse" x1="21.785" x2="23.9171" y1="10.0636" y2="9.07939"><stop offset=".247155" stop-color="#ff9266"/><stop offset=".669356" stop-color="#ff9266" stop-opacity="0"/></linearGradient><linearGradient id="aZ" gradientUnits="userSpaceOnUse" x1="24.5544" x2="22.902" y1="9.27631" y2="9.81723"><stop offset="0" stop-color="#ff5c88"/><stop offset="1" stop-color="#ff5185" stop-opacity="0"/></linearGradient><g clip-rule="evenodd" fill-rule="evenodd" filter="url(#a)"><path d="m21.8157 14.4746c.2126-.4351.3239-.9209.3239-1.4269 0-.4673-.0962-.9058-.2686-1.3055h.0054c-.0805-.181-.1709-.352-.2813-.513l-.002-.0031c-.3441-.5263-.5262-1.1436-.5262-1.77102v-.01012c0-1.82161-1.4776-3.29913-3.2992-3.29913-.1821 0-.3542-.08096-.4554-.23276-.5971-.82985-1.5788-1.37633-2.6819-1.37633s-2.0847.54648-2.6818 1.37633c-.1012.14168-.2732.23276-.4554.23276-.0284 0-.0568.00036-.085.00108-1.78235.04512-3.21412 1.50487-3.21412 3.29805v.01012c0 .62742-.18216 1.24472-.52624 1.77102l-.0023.0037c-.34262.5254-.54408 1.1414-.54408 1.8179 0 .5161.12144.9918.32384 1.4269.07084.1417.07084.3137 0 .4554-.2024.4251-.32384.9007-.32384 1.4067 0 1.7811 1.43704 3.2182 3.21814 3.2182h8.5818c1.7811 0 3.2182-1.4371 3.2182-3.2182 0-.506-.1215-.9816-.3239-1.4067-.0708-.1417-.0708-.3137 0-.4554zm-12.2601-2.6724h-.01232l1.19872 2.3555c.1233 2.8026 1.217 0 3.8884 0s3.8364 3.1194 3.9597.3169l1.1359-3.1971c-.0537-1.2449-.9559-1.33222-1.1359-1.33222h-3.22c-1.2716 0-2.4714-.62239-3.1893-1.67329-.123-.17345-.3794-.14285-.4614.05101l-.0821.19386c-.2256.56116-.6563.98969-1.1895 1.23456-.0154.0051-.0334.01275-.0513.02041-.018.00765-.0359.0153-.0513.0204-.2358.12244-.7896.48977-.81011 1.43867l.01025.306z" fill="url(#E)"/><path d="m21.8157 14.4746c.2126-.4351.3239-.9209.3239-1.4269 0-.4673-.0962-.9058-.2686-1.3055h.0054c-.0805-.181-.1709-.352-.2813-.513l-.002-.0031c-.3441-.5263-.5262-1.1436-.5262-1.77102v-.01012c0-1.82161-1.4776-3.29913-3.2992-3.29913-.1821 0-.3542-.08096-.4554-.23276-.5971-.82985-1.5788-1.37633-2.6819-1.37633s-2.0847.54648-2.6818 1.37633c-.1012.14168-.2732.23276-.4554.23276-.0284 0-.0568.00036-.085.00108-1.78235.04512-3.21412 1.50487-3.21412 3.29805v.01012c0 .62742-.18216 1.24472-.52624 1.77102l-.0023.0037c-.34262.5254-.54408 1.1414-.54408 1.8179 0 .5161.12144.9918.32384 1.4269.07084.1417.07084.3137 0 .4554-.2024.4251-.32384.9007-.32384 1.4067 0 1.7811 1.43704 3.2182 3.21814 3.2182h8.5818c1.7811 0 3.2182-1.4371 3.2182-3.2182 0-.506-.1215-.9816-.3239-1.4067-.0708-.1417-.0708-.3137 0-.4554zm-12.2601-2.6724h-.01232l1.19872 2.3555c.1233 2.8026 1.217 0 3.8884 0s3.8364 3.1194 3.9597.3169l1.1359-3.1971c-.0537-1.2449-.9559-1.33222-1.1359-1.33222h-3.22c-1.2716 0-2.4714-.62239-3.1893-1.67329-.123-.17345-.3794-.14285-.4614.05101l-.0821.19386c-.2256.56116-.6563.98969-1.1895 1.23456-.0154.0051-.0334.01275-.0513.02041-.018.00765-.0359.0153-.0513.0204-.2358.12244-.7896.48977-.81011 1.43867l.01025.306z" fill="url(#F)"/><path d="m21.8157 14.4746c.2126-.4351.3239-.9209.3239-1.4269 0-.4673-.0962-.9058-.2686-1.3055h.0054c-.0805-.181-.1709-.352-.2813-.513l-.002-.0031c-.3441-.5263-.5262-1.1436-.5262-1.77102v-.01012c0-1.82161-1.4776-3.29913-3.2992-3.29913-.1821 0-.3542-.08096-.4554-.23276-.5971-.82985-1.5788-1.37633-2.6819-1.37633s-2.0847.54648-2.6818 1.37633c-.1012.14168-.2732.23276-.4554.23276-.0284 0-.0568.00036-.085.00108-1.78235.04512-3.21412 1.50487-3.21412 3.29805v.01012c0 .62742-.18216 1.24472-.52624 1.77102l-.0023.0037c-.34262.5254-.54408 1.1414-.54408 1.8179 0 .5161.12144.9918.32384 1.4269.07084.1417.07084.3137 0 .4554-.2024.4251-.32384.9007-.32384 1.4067 0 1.7811 1.43704 3.2182 3.21814 3.2182h8.5818c1.7811 0 3.2182-1.4371 3.2182-3.2182 0-.506-.1215-.9816-.3239-1.4067-.0708-.1417-.0708-.3137 0-.4554zm-12.2601-2.6724h-.01232l1.19872 2.3555c.1233 2.8026 1.217 0 3.8884 0s3.8364 3.1194 3.9597.3169l1.1359-3.1971c-.0537-1.2449-.9559-1.33222-1.1359-1.33222h-3.22c-1.2716 0-2.4714-.62239-3.1893-1.67329-.123-.17345-.3794-.14285-.4614.05101l-.0821.19386c-.2256.56116-.6563.98969-1.1895 1.23456-.0154.0051-.0334.01275-.0513.02041-.018.00765-.0359.0153-.0513.0204-.2358.12244-.7896.48977-.81011 1.43867l.01025.306z" fill="url(#G)"/><path d="m21.8157 14.4746c.2126-.4351.3239-.9209.3239-1.4269 0-.4673-.0962-.9058-.2686-1.3055h.0054c-.0805-.181-.1709-.352-.2813-.513l-.002-.0031c-.3441-.5263-.5262-1.1436-.5262-1.77102v-.01012c0-1.82161-1.4776-3.29913-3.2992-3.29913-.1821 0-.3542-.08096-.4554-.23276-.5971-.82985-1.5788-1.37633-2.6819-1.37633s-2.0847.54648-2.6818 1.37633c-.1012.14168-.2732.23276-.4554.23276-.0284 0-.0568.00036-.085.00108-1.78235.04512-3.21412 1.50487-3.21412 3.29805v.01012c0 .62742-.18216 1.24472-.52624 1.77102l-.0023.0037c-.34262.5254-.54408 1.1414-.54408 1.8179 0 .5161.12144.9918.32384 1.4269.07084.1417.07084.3137 0 .4554-.2024.4251-.32384.9007-.32384 1.4067 0 1.7811 1.43704 3.2182 3.21814 3.2182h8.5818c1.7811 0 3.2182-1.4371 3.2182-3.2182 0-.506-.1215-.9816-.3239-1.4067-.0708-.1417-.0708-.3137 0-.4554zm-12.2601-2.6724h-.01232l1.19872 2.3555c.1233 2.8026 1.217 0 3.8884 0s3.8364 3.1194 3.9597.3169l1.1359-3.1971c-.0537-1.2449-.9559-1.33222-1.1359-1.33222h-3.22c-1.2716 0-2.4714-.62239-3.1893-1.67329-.123-.17345-.3794-.14285-.4614.05101l-.0821.19386c-.2256.56116-.6563.98969-1.1895 1.23456-.0154.0051-.0334.01275-.0513.02041-.018.00765-.0359.0153-.0513.0204-.2358.12244-.7896.48977-.81011 1.43867l.01025.306z" fill="url(#H)"/><path d="m21.8157 14.4746c.2126-.4351.3239-.9209.3239-1.4269 0-.4673-.0962-.9058-.2686-1.3055h.0054c-.0805-.181-.1709-.352-.2813-.513l-.002-.0031c-.3441-.5263-.5262-1.1436-.5262-1.77102v-.01012c0-1.82161-1.4776-3.29913-3.2992-3.29913-.1821 0-.3542-.08096-.4554-.23276-.5971-.82985-1.5788-1.37633-2.6819-1.37633s-2.0847.54648-2.6818 1.37633c-.1012.14168-.2732.23276-.4554.23276-.0284 0-.0568.00036-.085.00108-1.78235.04512-3.21412 1.50487-3.21412 3.29805v.01012c0 .62742-.18216 1.24472-.52624 1.77102l-.0023.0037c-.34262.5254-.54408 1.1414-.54408 1.8179 0 .5161.12144.9918.32384 1.4269.07084.1417.07084.3137 0 .4554-.2024.4251-.32384.9007-.32384 1.4067 0 1.7811 1.43704 3.2182 3.21814 3.2182h8.5818c1.7811 0 3.2182-1.4371 3.2182-3.2182 0-.506-.1215-.9816-.3239-1.4067-.0708-.1417-.0708-.3137 0-.4554zm-12.2601-2.6724h-.01232l1.19872 2.3555c.1233 2.8026 1.217 0 3.8884 0s3.8364 3.1194 3.9597.3169l1.1359-3.1971c-.0537-1.2449-.9559-1.33222-1.1359-1.33222h-3.22c-1.2716 0-2.4714-.62239-3.1893-1.67329-.123-.17345-.3794-.14285-.4614.05101l-.0821.19386c-.2256.56116-.6563.98969-1.1895 1.23456-.0154.0051-.0334.01275-.0513.02041-.018.00765-.0359.0153-.0513.0204-.2358.12244-.7896.48977-.81011 1.43867l.01025.306z" fill="url(#I)"/><path d="m21.8157 14.4746c.2126-.4351.3239-.9209.3239-1.4269 0-.4673-.0962-.9058-.2686-1.3055h.0054c-.0805-.181-.1709-.352-.2813-.513l-.002-.0031c-.3441-.5263-.5262-1.1436-.5262-1.77102v-.01012c0-1.82161-1.4776-3.29913-3.2992-3.29913-.1821 0-.3542-.08096-.4554-.23276-.5971-.82985-1.5788-1.37633-2.6819-1.37633s-2.0847.54648-2.6818 1.37633c-.1012.14168-.2732.23276-.4554.23276-.0284 0-.0568.00036-.085.00108-1.78235.04512-3.21412 1.50487-3.21412 3.29805v.01012c0 .62742-.18216 1.24472-.52624 1.77102l-.0023.0037c-.34262.5254-.54408 1.1414-.54408 1.8179 0 .5161.12144.9918.32384 1.4269.07084.1417.07084.3137 0 .4554-.2024.4251-.32384.9007-.32384 1.4067 0 1.7811 1.43704 3.2182 3.21814 3.2182h8.5818c1.7811 0 3.2182-1.4371 3.2182-3.2182 0-.506-.1215-.9816-.3239-1.4067-.0708-.1417-.0708-.3137 0-.4554zm-12.2601-2.6724h-.01232l1.19872 2.3555c.1233 2.8026 1.217 0 3.8884 0s3.8364 3.1194 3.9597.3169l1.1359-3.1971c-.0537-1.2449-.9559-1.33222-1.1359-1.33222h-3.22c-1.2716 0-2.4714-.62239-3.1893-1.67329-.123-.17345-.3794-.14285-.4614.05101l-.0821.19386c-.2256.56116-.6563.98969-1.1895 1.23456-.0154.0051-.0334.01275-.0513.02041-.018.00765-.0359.0153-.0513.0204-.2358.12244-.7896.48977-.81011 1.43867l.01025.306z" fill="url(#J)"/><path d="m21.8157 14.4746c.2126-.4351.3239-.9209.3239-1.4269 0-.4673-.0962-.9058-.2686-1.3055h.0054c-.0805-.181-.1709-.352-.2813-.513l-.002-.0031c-.3441-.5263-.5262-1.1436-.5262-1.77102v-.01012c0-1.82161-1.4776-3.29913-3.2992-3.29913-.1821 0-.3542-.08096-.4554-.23276-.5971-.82985-1.5788-1.37633-2.6819-1.37633s-2.0847.54648-2.6818 1.37633c-.1012.14168-.2732.23276-.4554.23276-.0284 0-.0568.00036-.085.00108-1.78235.04512-3.21412 1.50487-3.21412 3.29805v.01012c0 .62742-.18216 1.24472-.52624 1.77102l-.0023.0037c-.34262.5254-.54408 1.1414-.54408 1.8179 0 .5161.12144.9918.32384 1.4269.07084.1417.07084.3137 0 .4554-.2024.4251-.32384.9007-.32384 1.4067 0 1.7811 1.43704 3.2182 3.21814 3.2182h8.5818c1.7811 0 3.2182-1.4371 3.2182-3.2182 0-.506-.1215-.9816-.3239-1.4067-.0708-.1417-.0708-.3137 0-.4554zm-12.2601-2.6724h-.01232l1.19872 2.3555c.1233 2.8026 1.217 0 3.8884 0s3.8364 3.1194 3.9597.3169l1.1359-3.1971c-.0537-1.2449-.9559-1.33222-1.1359-1.33222h-3.22c-1.2716 0-2.4714-.62239-3.1893-1.67329-.123-.17345-.3794-.14285-.4614.05101l-.0821.19386c-.2256.56116-.6563.98969-1.1895 1.23456-.0154.0051-.0334.01275-.0513.02041-.018.00765-.0359.0153-.0513.0204-.2358.12244-.7896.48977-.81011 1.43867l.01025.306z" fill="url(#K)"/><path d="m21.8157 14.4746c.2126-.4351.3239-.9209.3239-1.4269 0-.4673-.0962-.9058-.2686-1.3055h.0054c-.0805-.181-.1709-.352-.2813-.513l-.002-.0031c-.3441-.5263-.5262-1.1436-.5262-1.77102v-.01012c0-1.82161-1.4776-3.29913-3.2992-3.29913-.1821 0-.3542-.08096-.4554-.23276-.5971-.82985-1.5788-1.37633-2.6819-1.37633s-2.0847.54648-2.6818 1.37633c-.1012.14168-.2732.23276-.4554.23276-.0284 0-.0568.00036-.085.00108-1.78235.04512-3.21412 1.50487-3.21412 3.29805v.01012c0 .62742-.18216 1.24472-.52624 1.77102l-.0023.0037c-.34262.5254-.54408 1.1414-.54408 1.8179 0 .5161.12144.9918.32384 1.4269.07084.1417.07084.3137 0 .4554-.2024.4251-.32384.9007-.32384 1.4067 0 1.7811 1.43704 3.2182 3.21814 3.2182h8.5818c1.7811 0 3.2182-1.4371 3.2182-3.2182 0-.506-.1215-.9816-.3239-1.4067-.0708-.1417-.0708-.3137 0-.4554zm-12.2601-2.6724h-.01232l1.19872 2.3555c.1233 2.8026 1.217 0 3.8884 0s3.8364 3.1194 3.9597.3169l1.1359-3.1971c-.0537-1.2449-.9559-1.33222-1.1359-1.33222h-3.22c-1.2716 0-2.4714-.62239-3.1893-1.67329-.123-.17345-.3794-.14285-.4614.05101l-.0821.19386c-.2256.56116-.6563.98969-1.1895 1.23456-.0154.0051-.0334.01275-.0513.02041-.018.00765-.0359.0153-.0513.0204-.2358.12244-.7896.48977-.81011 1.43867l.01025.306z" fill="url(#L)"/><path d="m21.8157 14.4746c.2126-.4351.3239-.9209.3239-1.4269 0-.4673-.0962-.9058-.2686-1.3055h.0054c-.0805-.181-.1709-.352-.2813-.513l-.002-.0031c-.3441-.5263-.5262-1.1436-.5262-1.77102v-.01012c0-1.82161-1.4776-3.29913-3.2992-3.29913-.1821 0-.3542-.08096-.4554-.23276-.5971-.82985-1.5788-1.37633-2.6819-1.37633s-2.0847.54648-2.6818 1.37633c-.1012.14168-.2732.23276-.4554.23276-.0284 0-.0568.00036-.085.00108-1.78235.04512-3.21412 1.50487-3.21412 3.29805v.01012c0 .62742-.18216 1.24472-.52624 1.77102l-.0023.0037c-.34262.5254-.54408 1.1414-.54408 1.8179 0 .5161.12144.9918.32384 1.4269.07084.1417.07084.3137 0 .4554-.2024.4251-.32384.9007-.32384 1.4067 0 1.7811 1.43704 3.2182 3.21814 3.2182h8.5818c1.7811 0 3.2182-1.4371 3.2182-3.2182 0-.506-.1215-.9816-.3239-1.4067-.0708-.1417-.0708-.3137 0-.4554zm-12.2601-2.6724h-.01232l1.19872 2.3555c.1233 2.8026 1.217 0 3.8884 0s3.8364 3.1194 3.9597.3169l1.1359-3.1971c-.0537-1.2449-.9559-1.33222-1.1359-1.33222h-3.22c-1.2716 0-2.4714-.62239-3.1893-1.67329-.123-.17345-.3794-.14285-.4614.05101l-.0821.19386c-.2256.56116-.6563.98969-1.1895 1.23456-.0154.0051-.0334.01275-.0513.02041-.018.00765-.0359.0153-.0513.0204-.2358.12244-.7896.48977-.81011 1.43867l.01025.306z" fill="url(#M)"/><path d="m21.8157 14.4746c.2126-.4351.3239-.9209.3239-1.4269 0-.4673-.0962-.9058-.2686-1.3055h.0054c-.0805-.181-.1709-.352-.2813-.513l-.002-.0031c-.3441-.5263-.5262-1.1436-.5262-1.77102v-.01012c0-1.82161-1.4776-3.29913-3.2992-3.29913-.1821 0-.3542-.08096-.4554-.23276-.5971-.82985-1.5788-1.37633-2.6819-1.37633s-2.0847.54648-2.6818 1.37633c-.1012.14168-.2732.23276-.4554.23276-.0284 0-.0568.00036-.085.00108-1.78235.04512-3.21412 1.50487-3.21412 3.29805v.01012c0 .62742-.18216 1.24472-.52624 1.77102l-.0023.0037c-.34262.5254-.54408 1.1414-.54408 1.8179 0 .5161.12144.9918.32384 1.4269.07084.1417.07084.3137 0 .4554-.2024.4251-.32384.9007-.32384 1.4067 0 1.7811 1.43704 3.2182 3.21814 3.2182h8.5818c1.7811 0 3.2182-1.4371 3.2182-3.2182 0-.506-.1215-.9816-.3239-1.4067-.0708-.1417-.0708-.3137 0-.4554zm-12.2601-2.6724h-.01232l1.19872 2.3555c.1233 2.8026 1.217 0 3.8884 0s3.8364 3.1194 3.9597.3169l1.1359-3.1971c-.0537-1.2449-.9559-1.33222-1.1359-1.33222h-3.22c-1.2716 0-2.4714-.62239-3.1893-1.67329-.123-.17345-.3794-.14285-.4614.05101l-.0821.19386c-.2256.56116-.6563.98969-1.1895 1.23456-.0154.0051-.0334.01275-.0513.02041-.018.00765-.0359.0153-.0513.0204-.2358.12244-.7896.48977-.81011 1.43867l.01025.306z" fill="url(#N)"/><path d="m21.8157 14.4746c.2126-.4351.3239-.9209.3239-1.4269 0-.4673-.0962-.9058-.2686-1.3055h.0054c-.0805-.181-.1709-.352-.2813-.513l-.002-.0031c-.3441-.5263-.5262-1.1436-.5262-1.77102v-.01012c0-1.82161-1.4776-3.29913-3.2992-3.29913-.1821 0-.3542-.08096-.4554-.23276-.5971-.82985-1.5788-1.37633-2.6819-1.37633s-2.0847.54648-2.6818 1.37633c-.1012.14168-.2732.23276-.4554.23276-.0284 0-.0568.00036-.085.00108-1.78235.04512-3.21412 1.50487-3.21412 3.29805v.01012c0 .62742-.18216 1.24472-.52624 1.77102l-.0023.0037c-.34262.5254-.54408 1.1414-.54408 1.8179 0 .5161.12144.9918.32384 1.4269.07084.1417.07084.3137 0 .4554-.2024.4251-.32384.9007-.32384 1.4067 0 1.7811 1.43704 3.2182 3.21814 3.2182h8.5818c1.7811 0 3.2182-1.4371 3.2182-3.2182 0-.506-.1215-.9816-.3239-1.4067-.0708-.1417-.0708-.3137 0-.4554zm-12.2601-2.6724h-.01232l1.19872 2.3555c.1233 2.8026 1.217 0 3.8884 0s3.8364 3.1194 3.9597.3169l1.1359-3.1971c-.0537-1.2449-.9559-1.33222-1.1359-1.33222h-3.22c-1.2716 0-2.4714-.62239-3.1893-1.67329-.123-.17345-.3794-.14285-.4614.05101l-.0821.19386c-.2256.56116-.6563.98969-1.1895 1.23456-.0154.0051-.0334.01275-.0513.02041-.018.00765-.0359.0153-.0513.0204-.2358.12244-.7896.48977-.81011 1.43867l.01025.306z" fill="url(#O)"/></g><path d="m3.60876 28.8928c0-5.9155 4.85417-10.7109 10.84214-10.7109 5.9879 0 10.8421 4.7954 10.8421 10.7109v.4634h-21.68424z" fill="url(#P)"/><path d="m3.60876 28.8928c0-5.9155 4.85417-10.7109 10.84214-10.7109 5.9879 0 10.8421 4.7954 10.8421 10.7109v.4634h-21.68424z" fill="url(#Q)"/><path d="m3.60876 28.8928c0-5.9155 4.85417-10.7109 10.84214-10.7109 5.9879 0 10.8421 4.7954 10.8421 10.7109v.4634h-21.68424z" fill="url(#R)"/><path d="m3.60876 28.8928c0-5.9155 4.85417-10.7109 10.84214-10.7109 5.9879 0 10.8421 4.7954 10.8421 10.7109v.4634h-21.68424z" fill="url(#S)"/><path d="m3.60876 28.8928c0-5.9155 4.85417-10.7109 10.84214-10.7109 5.9879 0 10.8421 4.7954 10.8421 10.7109v.4634h-21.68424z" fill="url(#T)"/><path d="m21.5844 29.3562h3.7086v-.4634c0-3.2171-1.4357-6.1029-3.7086-8.0663z" fill="url(#U)"/><path d="m21.5844 29.3562h3.7086v-.4634c0-3.2171-1.4357-6.1029-3.7086-8.0663z" fill="url(#V)"/><path d="m7.31738 20.8265c-2.27295 1.9634-3.70862 4.8492-3.70862 8.0663v.4634h3.70862z" fill="#955ece"/><path d="m7.31738 20.8265c-2.27295 1.9634-3.70862 4.8492-3.70862 8.0663v.4634h3.70862z" fill="url(#W)"/><path d="m7.31738 20.8265c-2.27295 1.9634-3.70862 4.8492-3.70862 8.0663v.4634h3.70862z" fill="url(#X)"/><path d="m12.6385 17.6312h3.9844v1.3828c0 1.1003-.8919 1.8125-1.9922 1.8125-1.1002 0-1.9922-.7122-1.9922-1.8125z" fill="#f0aba4"/><path d="m12.6385 17.6312h3.9844v1.3828c0 1.1003-.8919 1.8125-1.9922 1.8125-1.1002 0-1.9922-.7122-1.9922-1.8125z" fill="url(#Y)"/><path d="m12.6385 17.6312h3.9844v1.3828c0 1.1003-.8919 1.8125-1.9922 1.8125-1.1002 0-1.9922-.7122-1.9922-1.8125z" fill="url(#Z)"/><path d="m14.9857 17.6814c.25.01.51.03.77.05-.26-.02-.51-.04-.77-.05z" fill="url(#ab)"/><path d="m14.6556 17.6814c-.01 0-.02 0-.04 0 .1 0 .19 0 .29.01-.08-.01-.17-.01-.25-.01z" fill="url(#ac)"/><g filter="url(#b)"><path d="m9.9449 14.674c.8887 0 1.6091-.7204 1.6091-1.6091s-.7204-1.6091-1.6091-1.6091c-.88867 0-1.60908.7204-1.60908 1.6091s.72041 1.6091 1.60908 1.6091z" fill="url(#ad)"/></g><g filter="url(#c)"><path d="m19.4578 14.674c.8887 0 1.6091-.7204 1.6091-1.6091s-.7204-1.6091-1.6091-1.6091c-.8886 0-1.609.7204-1.609 1.6091s.7204 1.6091 1.609 1.6091z" fill="url(#ae)"/><path d="m19.4578 14.674c.8887 0 1.6091-.7204 1.6091-1.6091s-.7204-1.6091-1.6091-1.6091c-.8886 0-1.609.7204-1.609 1.6091s.7204 1.6091 1.609 1.6091z" fill="url(#af)"/></g><g filter="url(#d)"><path d="m19.4578 14.1391c.5932 0 1.0741-.4809 1.0741-1.0741 0-.5933-.4809-1.0742-1.0741-1.0742s-1.0741.4809-1.0741 1.0742c0 .5932.4809 1.0741 1.0741 1.0741z" fill="#f6bca5"/><path d="m19.4578 14.1391c.5932 0 1.0741-.4809 1.0741-1.0741 0-.5933-.4809-1.0742-1.0741-1.0742s-1.0741.4809-1.0741 1.0742c0 .5932.4809 1.0741 1.0741 1.0741z" fill="url(#ag)"/></g><g filter="url(#e)"><path d="m9.96412 14.1391c.59318 0 1.07408-.4809 1.07408-1.0741 0-.5933-.4809-1.0742-1.07408-1.0742-.59321 0-1.07411.4809-1.07411 1.0742 0 .5932.4809 1.0741 1.07411 1.0741z" fill="#c58c80"/><path d="m9.96412 14.1391c.59318 0 1.07408-.4809 1.07408-1.0741 0-.5933-.4809-1.0742-1.07408-1.0742-.59321 0-1.07411.4809-1.07411 1.0742 0 .5932.4809 1.0741 1.07411 1.0741z" fill="url(#ah)"/></g><g filter="url(#f)"><path d="m9.54348 11.8022h.01231l-.01026-.2652-.01025-.3061c.02051-.9489.57422-1.31621.81012-1.43865.0154-.0051.0333-.01275.0513-.0204.0179-.00766.0359-.01531.0513-.02041.5332-.24487.9639-.6734 1.1895-1.23456l.0821-.19386c.082-.19385.3384-.22446.4614-.05101.7179 1.0509 1.9177 1.67329 3.1893 1.67329h3.22c.18 0 1.0821.0874 1.1358 1.3322l-.1187 3.073c-.1233 2.8025-2.3118 4.6844-4.9832 4.6844-2.6715 0-4.85999-1.8819-4.98328-4.6844z" fill="url(#ai)"/><path d="m9.54348 11.8022h.01231l-.01026-.2652-.01025-.3061c.02051-.9489.57422-1.31621.81012-1.43865.0154-.0051.0333-.01275.0513-.0204.0179-.00766.0359-.01531.0513-.02041.5332-.24487.9639-.6734 1.1895-1.23456l.0821-.19386c.082-.19385.3384-.22446.4614-.05101.7179 1.0509 1.9177 1.67329 3.1893 1.67329h3.22c.18 0 1.0821.0874 1.1358 1.3322l-.1187 3.073c-.1233 2.8025-2.3118 4.6844-4.9832 4.6844-2.6715 0-4.85999-1.8819-4.98328-4.6844z" fill="url(#aj)"/><path d="m9.54348 11.8022h.01231l-.01026-.2652-.01025-.3061c.02051-.9489.57422-1.31621.81012-1.43865.0154-.0051.0333-.01275.0513-.0204.0179-.00766.0359-.01531.0513-.02041.5332-.24487.9639-.6734 1.1895-1.23456l.0821-.19386c.082-.19385.3384-.22446.4614-.05101.7179 1.0509 1.9177 1.67329 3.1893 1.67329h3.22c.18 0 1.0821.0874 1.1358 1.3322l-.1187 3.073c-.1233 2.8025-2.3118 4.6844-4.9832 4.6844-2.6715 0-4.85999-1.8819-4.98328-4.6844z" fill="url(#ak)"/><path d="m9.54348 11.8022h.01231l-.01026-.2652-.01025-.3061c.02051-.9489.57422-1.31621.81012-1.43865.0154-.0051.0333-.01275.0513-.0204.0179-.00766.0359-.01531.0513-.02041.5332-.24487.9639-.6734 1.1895-1.23456l.0821-.19386c.082-.19385.3384-.22446.4614-.05101.7179 1.0509 1.9177 1.67329 3.1893 1.67329h3.22c.18 0 1.0821.0874 1.1358 1.3322l-.1187 3.073c-.1233 2.8025-2.3118 4.6844-4.9832 4.6844-2.6715 0-4.85999-1.8819-4.98328-4.6844z" fill="url(#al)"/><path d="m9.54348 11.8022h.01231l-.01026-.2652-.01025-.3061c.02051-.9489.57422-1.31621.81012-1.43865.0154-.0051.0333-.01275.0513-.0204.0179-.00766.0359-.01531.0513-.02041.5332-.24487.9639-.6734 1.1895-1.23456l.0821-.19386c.082-.19385.3384-.22446.4614-.05101.7179 1.0509 1.9177 1.67329 3.1893 1.67329h3.22c.18 0 1.0821.0874 1.1358 1.3322l-.1187 3.073c-.1233 2.8025-2.3118 4.6844-4.9832 4.6844-2.6715 0-4.85999-1.8819-4.98328-4.6844z" fill="url(#am)"/><path d="m9.54348 11.8022h.01231l-.01026-.2652-.01025-.3061c.02051-.9489.57422-1.31621.81012-1.43865.0154-.0051.0333-.01275.0513-.0204.0179-.00766.0359-.01531.0513-.02041.5332-.24487.9639-.6734 1.1895-1.23456l.0821-.19386c.082-.19385.3384-.22446.4614-.05101.7179 1.0509 1.9177 1.67329 3.1893 1.67329h3.22c.18 0 1.0821.0874 1.1358 1.3322l-.1187 3.073c-.1233 2.8025-2.3118 4.6844-4.9832 4.6844-2.6715 0-4.85999-1.8819-4.98328-4.6844z" fill="url(#an)"/><path d="m9.54348 11.8022h.01231l-.01026-.2652-.01025-.3061c.02051-.9489.57422-1.31621.81012-1.43865.0154-.0051.0333-.01275.0513-.0204.0179-.00766.0359-.01531.0513-.02041.5332-.24487.9639-.6734 1.1895-1.23456l.0821-.19386c.082-.19385.3384-.22446.4614-.05101.7179 1.0509 1.9177 1.67329 3.1893 1.67329h3.22c.18 0 1.0821.0874 1.1358 1.3322l-.1187 3.073c-.1233 2.8025-2.3118 4.6844-4.9832 4.6844-2.6715 0-4.85999-1.8819-4.98328-4.6844z" fill="url(#ao)"/></g><path d="m9.54348 11.8022h.01231l-.01026-.2652-.01025-.3061c.02051-.9489.57422-1.31621.81012-1.43865.0154-.0051.0333-.01275.0513-.0204.0179-.00766.0359-.01531.0513-.02041.5332-.24487.9639-.6734 1.1895-1.23456l.0821-.19386c.082-.19385.3384-.22446.4614-.05101.7179 1.0509 1.9177 1.67329 3.1893 1.67329h3.22c.18 0 1.0821.0874 1.1358 1.3322l-.1187 3.073c-.1233 2.8025-2.3118 4.6844-4.9832 4.6844-2.6715 0-4.85999-1.8819-4.98328-4.6844z" fill="url(#ap)"/><path d="m9.54348 11.8022h.01231l-.01026-.2652-.01025-.3061c.02051-.9489.57422-1.31621.81012-1.43865.0154-.0051.0333-.01275.0513-.0204.0179-.00766.0359-.01531.0513-.02041.5332-.24487.9639-.6734 1.1895-1.23456l.0821-.19386c.082-.19385.3384-.22446.4614-.05101.7179 1.0509 1.9177 1.67329 3.1893 1.67329h3.22c.18 0 1.0821.0874 1.1358 1.3322l-.1187 3.073c-.1233 2.8025-2.3118 4.6844-4.9832 4.6844-2.6715 0-4.85999-1.8819-4.98328-4.6844z" fill="url(#aq)"/><g filter="url(#g)"><path d="m14.2381 12.8423-.6836 1.7c-.1085.3496.1518.6993.5206.6993h.7864c.3688 0 .6291-.355.5206-.6993l-.5315-1.7c-.1139-.3766-.4932-.3766-.6125 0z" fill="#d19590"/></g><g filter="url(#h)"><path d="m14.2483 12.7037-.5315 1.7c-.1084.3497.1519.6994.5207.6994h.7863c.3688 0 .6291-.3551.5207-.6994l-.5315-1.7c-.1139-.3766-.6454-.3766-.7647 0z" fill="#f1c4b2"/><path d="m14.2483 12.7037-.5315 1.7c-.1084.3497.1519.6994.5207.6994h.7863c.3688 0 .6291-.3551.5207-.6994l-.5315-1.7c-.1139-.3766-.6454-.3766-.7647 0z" fill="url(#ar)"/><path d="m14.2483 12.7037-.5315 1.7c-.1084.3497.1519.6994.5207.6994h.7863c.3688 0 .6291-.3551.5207-.6994l-.5315-1.7c-.1139-.3766-.6454-.3766-.7647 0z" fill="url(#as)"/><path d="m14.2483 12.7037-.5315 1.7c-.1084.3497.1519.6994.5207.6994h.7863c.3688 0 .6291-.3551.5207-.6994l-.5315-1.7c-.1139-.3766-.6454-.3766-.7647 0z" fill="url(#at)"/><path d="m14.2483 12.7037-.5315 1.7c-.1084.3497.1519.6994.5207.6994h.7863c.3688 0 .6291-.3551.5207-.6994l-.5315-1.7c-.1139-.3766-.6454-.3766-.7647 0z" fill="url(#au)"/></g><g filter="url(#i)"><path d="m14.6307 15.9765c-.5207 0-1.0102-.1254-1.4216-.3447-.1406-.0731-.2916.0888-.2031.2193.3437.5328.9425.8879 1.6247.8879s1.281-.3551 1.6247-.8879c.0885-.1358-.0625-.2924-.2031-.2193-.4114.2193-.8957.3447-1.4216.3447z" stroke="url(#av)" stroke-width=".2"/></g><path d="m14.6307 15.9765c-.5207 0-1.0102-.1254-1.4216-.3447-.1406-.0731-.2916.0888-.2031.2193.3437.5328.9425.8879 1.6247.8879s1.281-.3551 1.6247-.8879c.0885-.1358-.0625-.2924-.2031-.2193-.4114.2193-.8957.3447-1.4216.3447z" fill="#88024e"/><g filter="url(#j)"><path d="m15.7727 12.4959c.2654-.4668.6689-.8355 1.5374-.8355.3802 0 .7469.1053 1.0728.3687.2688.2173.2328.4952.0246.5993l-.556.3174c-.6519-.2107-1.3726-.2392-2.0788-.4499z" fill="#2d2b2e"/></g><g filter="url(#k)"><path d="m13.4888 12.4959c-.2654-.4668-.6689-.8355-1.5374-.8355-.3802 0-.7469.1053-1.0728.3687-.2688.2173-.2328.4952-.0246.5993l.556.3174c.6518-.2107 1.3726-.2392 2.0788-.4499z" fill="#272528"/></g><g filter="url(#l)"><path d="m11.2332 11.287-.0044.0026c-.0001.0001-.0003.0001-.0004.0002-.1269.0758-.2915.0346-.3676-.0922-.0762-.127-.0348-.2918.0922-.368l.0006-.0004.001-.0006.0029-.0017.0095-.0055c.0078-.0045.0186-.0106.0324-.018.0275-.0149.0666-.0353.116-.0588.0985-.047.239-.1071.4101-.1617.3399-.1085.8152-.1998 1.3283-.1092.1458.0257.2432.1648.2175.3107-.0258.1459-.1649.2432-.3107.2175-.3988-.0704-.7817-.0007-1.072.0919-.144.046-.2616.0965-.3424.135-.0404.0192-.0712.0353-.0913.0462-.01.0054-.0173.0095-.0217.012z" fill="#1e1e1e"/></g><g filter="url(#m)"><path clip-rule="evenodd" d="m18.362 10.8296c.0001 0 .0002 0-.1378.23l.1378-.23c.127.0762.1684.241.0922.368-.0761.1268-.2405.1681-.3675.0923 0-.0001-.0002-.0002-.0004-.0003l-.0045-.0026c-.0044-.0025-.0117-.0066-.0217-.012-.0201-.0109-.0509-.027-.0912-.0462-.0808-.0385-.1985-.089-.3425-.135-.2903-.0926-.6732-.1623-1.0719-.0919-.1459.0257-.285-.0716-.3108-.2175-.0257-.1459.0717-.285.2175-.3107.5131-.0906.9884.0007 1.3283.1092.1712.0546.3116.1147.4101.1617.0494.0235.0885.0439.116.0588.0138.0074.0246.0135.0325.018l.0094.0055.0029.0017.0011.0006z" fill="#1e1e1e" fill-rule="evenodd"/></g><path d="m17.0216 11.719c.6531 0 1.2048.4503 1.3549 1.0588.0446.1744-.0892.3407-.2677.3407h-2.2311c-.142 0-.2556-.1298-.2272-.2718.1258-.6409.6896-1.1277 1.3711-1.1277z" fill="#fff"/><path d="m16.8148 11.9908c.4949 0 .8925.4016.8925.8925 0 .0811-.0122.1623-.0325.2353h-1.724c-.0203-.0771-.0325-.1542-.0325-.2353 0-.4909.4016-.8925.8965-.8925z" fill="url(#ax)"/><path d="m16.3036 12.8833c0-.2839.2272-.5111.5111-.5111.284 0 .5111.2272.5111.5111 0 .0852-.0202.1663-.0567.2353h-.9047c-.0405-.069-.0608-.1501-.0608-.2353z" fill="#000"/><g filter="url(#n)"><path d="m16.7491 12.1795c.0636.0851-.0693.1887-.2204.3017s-.2632.1925-.3268.1075c-.0636-.0851.0074-.2456.1585-.3586s.3252-.1356.3887-.0506z" fill="#c7a7a3"/><path d="m16.7491 12.1795c.0636.0851-.0693.1887-.2204.3017s-.2632.1925-.3268.1075c-.0636-.0851.0074-.2456.1585-.3586s.3252-.1356.3887-.0506z" fill="url(#az)"/></g><g filter="url(#o)"><path d="m17.6098 12.7658c-.033-.2307-.168-.4046-.2314-.4627l-.2599.2852.1173.2282z" fill="url(#aB)"/></g><path d="m12.2397 11.719c-.6532 0-1.2049.4503-1.355 1.0588-.0446.1744.0893.3407.2678.3407h2.2311c.142 0 .2556-.1298.2272-.2718-.1258-.6409-.6937-1.1277-1.3711-1.1277z" fill="#fff"/><path d="m12.4465 11.9908c-.4949 0-.8924.4016-.8924.8925 0 .0811.0121.1623.0324.2353h1.7241c.0203-.0771.0324-.1542.0324-.2353-.004-.4909-.4016-.8925-.8965-.8925z" fill="url(#aC)"/><path d="m12.9577 12.8833c0-.2839-.2272-.5111-.5111-.5111-.284 0-.5112.2272-.5112.5111 0 .0852.0203.1663.0568.2353h.9046c.0365-.069.0609-.1501.0609-.2353z" fill="#000"/><g filter="url(#p)"><path d="m13.262 12.7784c0-.2884-.2346-.4807-.2979-.5388l-.2884.2789.1774.3613z" fill="url(#aD)"/></g><g filter="url(#q)"><ellipse cx="12.1772" cy="12.3721" fill="#c7a7a3" fill-opacity=".9" rx=".389603" ry=".197175" transform="matrix(.88365127 -.46814574 .46814574 .88365127 -4.375144 7.140183)"/><ellipse cx="12.1772" cy="12.3721" fill="url(#aE)" rx=".389603" ry=".197175" transform="matrix(.88365127 -.46814574 .46814574 .88365127 -4.375144 7.140183)"/></g><g filter="url(#r)"><path d="m16.5702 10.6923c.3225-.0785 1.1246-.0392 1.6608.3444" stroke="#323233" stroke-linecap="round" stroke-width=".2"/></g><g filter="url(#s)"><path d="m12.7792 10.6923c-.3226-.0785-1.1246-.0392-1.6608.3444" stroke="#323233" stroke-linecap="round" stroke-width=".2"/></g><g filter="url(#t)"><path d="m9.5614 7.07656c.5657-.59923 1.6363-.60019 2.1309-.51079l.3956 1.29062c-.2527-.03911-.4781.05028-.6677.23466-.4484 1.26045-1.98935 1.95545-2.70377 2.14545-.14838-1.49176.10878-2.38011.84497-3.15994z" fill="#232121"/><path d="m9.5614 7.07656c.5657-.59923 1.6363-.60019 2.1309-.51079l.3956 1.29062c-.2527-.03911-.4781.05028-.6677.23466-.4484 1.26045-1.98935 1.95545-2.70377 2.14545-.14838-1.49176.10878-2.38011.84497-3.15994z" fill="url(#aF)"/></g><g filter="url(#u)"><path d="m14.0272 5.27425c-1.1327-.25007-2.1497.87997-2.2671 1.299 1.0518 3.54505 3.713 3.35083 6.3401 3.05894 1.5726-.17473 1.7432.54191 1.8772.88831 0-3.93267-3.3441-4.67093-5.9216-5.23993z" fill="#2a2a2a"/><path d="m14.0272 5.27425c-1.1327-.25007-2.1497.87997-2.2671 1.299 1.0518 3.54505 3.713 3.35083 6.3401 3.05894 1.5726-.17473 1.7432.54191 1.8772.88831 0-3.93267-3.3441-4.67093-5.9216-5.23993z" fill="url(#aG)"/><path d="m14.0272 5.27425c-1.1327-.25007-2.1497.87997-2.2671 1.299 1.0518 3.54505 3.713 3.35083 6.3401 3.05894 1.5726-.17473 1.7432.54191 1.8772.88831 0-3.93267-3.3441-4.67093-5.9216-5.23993z" fill="url(#aH)"/></g><g filter="url(#v)"><path d="m11.7394 6.52295c.0233.24304.2346 1.15653.5447 1.70965" stroke="url(#aI)" stroke-linecap="round" stroke-width=".2"/></g><g filter="url(#w)"><path d="m17.037 8.884-1.4254.2622c-.4228.07778-.8126-.24688-.8126-.6768 0-.38005.3076-.68815.6876-.68815h2.3408c1.3844 0 1.8426 1.39524 1.8987 1.87201-.7269-.6626-1.7218-.9472-2.6891-.76926z" fill="#4b4648"/></g><path d="m20.7103 6.64916c-1.2625.4625-2.1015.41406-2.6484.17188l-1.1719 2.85156c1.2891.05469 3.8008-.33203 5.5625-2.38281.8433-.98168.9961-1.91016.6563-2.58594-.0612-.12172-.1823-.17224-.2696-.14844-.0859.02344-.1594.10841-.1875.20703-.1613.56655-.538 1.37261-1.9414 1.88672z" fill="url(#aJ)"/><path d="m24.3344 2.6438-1.3882 4.83094 1.1865.34485 1.0716-3.72901c.175-.60912-.1758-1.24504-.7843-1.42192z" fill="url(#aL)"/><path d="m24.3344 2.6438-1.3882 4.83094 1.1865.34485 1.0716-3.72901c.175-.60912-.1758-1.24504-.7843-1.42192z" fill="url(#aM)"/><path d="m19.686 5.22083 5.4193 1.53608-.337 1.18876-4.3128-1.22248c-.6111-.1732-.966-.80897-.7928-1.42002z" fill="url(#aN)"/><path d="m19.686 5.22083 5.4193 1.53608-.337 1.18876-4.3128-1.22248c-.6111-.1732-.966-.80897-.7928-1.42002z" fill="url(#aO)"/><g filter="url(#x)"><circle cx="23.731" cy="6.99988" fill="url(#aP)" r=".31311"/><circle cx="23.731" cy="6.99988" fill="url(#aQ)" r=".31311"/><circle cx="23.731" cy="6.99988" fill="url(#aR)" r=".31311"/></g><g filter="url(#y)"><path clip-rule="evenodd" d="m23.0051 7.44225c-.0531-.01545-.1085.015-.124.06803l-.1041.35701c-.023.07915-.0926.13501-.174.1483-.8749.14293-1.5426.9023-1.5426 1.81762 0 1.01719.8246 1.84179 1.8418 1.84179s1.8418-.8246 1.8418-1.84179c0-.55163-.2425-1.04663-.6267-1.38418-.0625-.05484-.0917-.13991-.0684-.21968l.1017-.34905c.0154-.05303-.015-.10854-.0681-.12399zm.7409 2.39096c0 .46599-.3778.84379-.8438.84379-.4659 0-.8437-.3778-.8437-.84379s.3778-.84375.8437-.84375c.466 0 .8438.37776.8438.84375z" fill="url(#aT)" fill-rule="evenodd"/></g><path clip-rule="evenodd" d="m23.0051 7.44225c-.0531-.01545-.1085.015-.124.06803l-.1041.35701c-.023.07915-.0926.13501-.174.1483-.8749.14293-1.5426.9023-1.5426 1.81762 0 1.01719.8246 1.84179 1.8418 1.84179s1.8418-.8246 1.8418-1.84179c0-.55163-.2425-1.04663-.6267-1.38418-.0625-.05484-.0917-.13991-.0684-.21968l.1017-.34905c.0154-.05303-.015-.10854-.0681-.12399zm.7409 2.39096c0 .46599-.3778.84379-.8438.84379-.4659 0-.8437-.3778-.8437-.84379s.3778-.84375.8437-.84375c.466 0 .8438.37776.8438.84375z" fill="url(#aU)" fill-rule="evenodd"/><g filter="url(#z)"><path clip-rule="evenodd" d="m24.4495 6.65527c.0142-.05344.069-.08513.1224-.07098l.3594.09553c.0796.02118.1634-.00949.2169-.07227.5747-.67498 1.5699-.8538 2.3534-.38051.8707.52597 1.1501 1.65815.6241 2.52882s-1.6582 1.15008-2.5288.62411c-.4722-.28524-.7705-.74877-.8607-1.2522-.0147-.08178-.0724-.15077-.1527-.17212l-.3514-.09339c-.0533-.01425-.0851-.06897-.0709-.12242zm1.6635 1.87043c.3988.24096.9175.11291 1.1584-.28591.241-.39882.113-.91753-.2859-1.15848-.3988-.24095-.9175-.11291-1.1585.28591-.2409.39882-.1129.91753.286 1.15848z" fill="url(#aV)" fill-rule="evenodd"/></g><g filter="url(#A)"><circle cx="26.5507" cy="7.80351" r="1.67143" stroke="url(#aW)" stroke-width=".1"/></g><g filter="url(#B)"><circle cx="26.5506" cy="7.80357" r="1.11716" stroke="url(#aX)" stroke-width=".1"/></g><g filter="url(#C)"><circle cx="22.9022" cy="9.81724" r="1.11716" stroke="url(#aY)" stroke-width=".1"/></g><g filter="url(#D)"><circle cx="22.9021" cy="9.81723" r="1.65243" stroke="url(#aZ)" stroke-width=".1"/></g></svg>