<svg enable-background="new 0 0 128 128" viewBox="0 0 128 128" xmlns="http://www.w3.org/2000/svg"><g transform="scale(4)"><path clip-rule="evenodd" d="m25.3856 7.69998-.29.5-1.55-.89999-1.19 2.04999 1.55.90002-.29.5-1.55-.90002-1.19 2.05002.73.42-.29.5-.73-.42-.2.34-.5-.29.2-.34-1.68-.97-1.19 2.05 2.1 1.21-.29.5-2.1-1.21-1.54 2.67-.5-.29 1.54-2.67-2.1-1.21.29-.5 2.1 1.21 1.19-2.05-1.68-.97-.2.34-.5-.29001.2-.33999-.73-.42002.29-.5.73.42002 1.19-2.05002-1.55-.9.29-.5 1.55.9 1.19-2.04999-1.55-.89999.29-.5 1.55.89999 1.15-1.98999.5.28998-1.15 1.99002 1.68.97 1.32-2.28.5.28998-1.32 2.28 1.68.97 1.15-1.98999.5.29001-1.15 1.98999zm-4.53-1.94998-1.68-.97-1.19 2.04999 1.68.97zm-3.15 1.59-1.19 2.04998 1.68.97002 1.19-2.05zm.99 3.31 1.68.97 1.19-2.05002-1.68-.97zm1.48-2.55002 1.68.97 1.19-2.04999-1.68-.97z" fill="#d3d3d3" fill-rule="evenodd"/><path d="m7.15896 27.6066c-.33.59-.13002 1.33.44998 1.67.58.33 1.33002.13 1.67002-.45l6.69004-11.58-2.12-1.22z" fill="#d3d3d3"/><g clip-rule="evenodd" fill-rule="evenodd"><path d="m7.15896 27.6066c-.33.59-.13002 1.33.44998 1.67.58.33 1.33002.13 1.67002-.45l.85504-1.4801-2.11866-1.2223z" fill="#533566"/><path d="m14.686 16.5083 1.283.7383-1.5295 2.6474-2.1237-1.2136 1.4762-2.5552z" fill="#0074ba"/><path d="m15.3829 4.30991c1.5268-2.67196 4.9354-3.670126 7.664-2.23288l.0018.00097c2.8903 1.53477 3.926 5.14554 2.2985 7.9538-.8548 1.4948-2.2929 2.4481-3.86 2.7512-.5197.1062-.9629.4208-1.2195.868l-1.3606 2.361-.0006.0009c-.8714 1.5065-2.8028 2.0323-4.3139 1.1581-1.5063-.8714-2.0321-2.8025-1.1583-4.3135.0001-.0002-.0001.0002 0 0l1.3592-2.3585c0-.0002-.0001.0001 0 0 .2606-.4546.3116-.9964.1419-1.48333l-.001-.00274c-.5163-1.50402-.4038-3.21152.4485-4.70302zm7.0805-1.12741c-2.1313-1.12206-4.8022-.34017-5.9952 1.74758-.6675 1.16808-.7551 2.50005-.3519 3.67573.2896.83254.2003 1.75029-.2386 2.51519l-1.3611 2.362c-.5258.9088-.2116 2.0775.7019 2.606.9087.5257 2.077.2117 2.6057-.7014.0001-.0002-.0001.0002 0 0l1.3593-2.3587c.0001-.0001-.0001.0002 0 0 .4429-.7716 1.1988-1.2972 2.0578-1.4714l.0059-.0012c1.231-.2375 2.351-.9832 3.0157-2.14639l.002-.00349c1.2709-2.19115.4669-5.01873-1.8015-6.22392z" fill="#00a6ed"/></g><path d="m17.5 26.5c1.3807 0 2.5-1.1193 2.5-2.5s-1.1193-2.5-2.5-2.5-2.5 1.1193-2.5 2.5 1.1193 2.5 2.5 2.5z" fill="#ff6723"/></g></svg>