<svg enable-background="new 0 0 128 128" viewBox="0 0 128 128" xmlns="http://www.w3.org/2000/svg"><g transform="scale(4)"><path d="m9.17079 12.26c-.03 0-.07-.01-.1-.03l-6.97-4.09003c-.1-.05-.13-.17-.07-.27.05-.09.17-.12.26-.07l6.97 4.09003c.09.05.12.17.07.27-.03.06-.1.1-.16.1z" fill="#636363"/><path d="m25.0909 3.57014.1746.14271c.1219-.1341.3212-.14796.4653-.03273 0 0 .13.11.37.31.29.23.45.58.46.94l.03 2.15c0 2.61-2.12 4.72998-4.73 4.72998h-1.57v-2.08998h1.57c1.45 0 2.63-1.18 2.63-2.63l-.01-.54c-.1-.06-.2-.13-.29-.2l-.33-.28c-.18-.15-.21-.43-.06-.61s.43-.21.61-.06l.22.19c.04.04.11.01.11-.05l-.01-.18.0058-.00479-.6358-.52521c-.15-.12-.17-.33-.05-.48.0309-.03858.0677-.06855.1079-.08976-.1104-.12285-.1154-.30567-.0078-.44021.1004-.12549.2638-.15999.4024-.09765.0129-.03588.0321-.07048.0576-.10236.12-.15.33-.17.48-.05zm-6.4677 8.05806c.2917-.4984.1241-1.1389-.3744-1.4306-.4984-.29166-1.1389-.124-1.4306.3744l-.7886 1.3477-.0006.001c-.7381 1.2528-2.3482 1.6752-3.6098.9371h-.0001l-.0002-.0002-1.3997-.8198c-.4983-.2918-1.13889-.1245-1.43075.3738-.29187.4983-.12452 1.1389.37379 1.4308l1.39996.82.0004.0002c2.258 1.3214 5.1471.5642 6.4693-1.6821l.0013-.0023zm.3975 6.7219 3.04-2.27 5.46 11.08-2.43.56zm0 0-2.82-2.25-5.49 3.98c-.33.23-.49.63-.4 1.02l1.5 6.73h2.28l-.99-6z" fill="#9b9b9b"/><path d="m11.5108 11.42-.64-.38c-.83-.48-1.90005-.21-2.38005.62-.49.83-.21 1.9.62 2.38l.64.38c.17.1.39005.04.48005-.13l1.4-2.39c.11-.16.05-.38-.12-.48z" fill="#e6e6e6"/><path d="m25.0907 27.72-1.84-2.85 2.49-1.33 2.07 4.18zm-13.2799.1101-.76-3.39h2.48l.56 3.39z" fill="#d3d3d3"/><path d="m22.0707 16.1099c0-.04 0-.07 0-.11v-3.65c0-1.62-1.32-2.93999-2.94-2.93999s-2.94 1.31999-2.94 2.93999v3.66.1l1.89 1.83c.58.57 1.51.56 2.09-.01l1.88-1.84z" fill="#d3d3d3"/><path d="m19.4006 11.5401c-.99.29-1.99-.45-1.99-1.48v-1.05l3.09-.66v1.71c.01.68-.44 1.28-1.1 1.48z" fill="#e6e6e6"/><path d="m18.1908 3c-1.43 0-2.59 1.16-2.59 2.59v1.61c0 1.43 1.16 2.59 2.59 2.59s2.59-1.16 2.59-2.59v-1.61c0-1.43-1.16-2.59-2.59-2.59z" fill="#d3d3d3"/><path d="m18.8807 6.22v2.00001c0 .64-.32 1.21-.8 1.55-.76-.03-1.44-.4-1.89-.95-.29-.45-.46-.98-.46-1.55v-1.77c0-.57.17-1.1.46-1.53.45-.56 1.13-.93 1.89-.96.48.34.8.91.8 1.55v1.12999h1.9v.53z" fill="#e6e6e6"/><path d="m18.4708 8.04988v-3.32c0-.72-.45-1.34-1.08-1.6-1.03.34-1.78 1.31-1.78 2.46v1.61c0 1.15.75 2.12 1.78 2.46.63-.27 1.08-.88 1.08-1.61z" fill="#321b41"/><path d="m14.0907 29.1699v-1.45l-2.43-.55-2.25998 1.57c-.31.21-.16.7.22.7h4.19998c.15 0 .27-.12.27-.27zm11.0001 0v-1.45l2.43-.55 2.26 1.57c.31.21.16.7-.22.7h-4.2c-.15 0-.27-.12-.27-.27z" fill="#433b6b"/></g></svg>