<svg enable-background="new 0 0 128 128" viewBox="0 0 32 32" xmlns="http://www.w3.org/2000/svg"><path d="m2 10c0-1.10457.89543-2 2-2h11 2 2 9c1.1046 0 2 .89543 2 2v14c0 1.1046-.8954 2-2 2h-24c-1.10457 0-2-.8954-2-2z" fill="#83cbff"/><path d="m3 10.5c0-.82843.67157-1.5 1.5-1.5h23c.8284 0 1.5.67157 1.5 1.5v13c0 .8284-.6716 1.5-1.5 1.5h-23c-.82843 0-1.5-.6716-1.5-1.5zm1.5-.5c-.27614 0-.5.2239-.5.5v13c0 .2761.22386.5.5.5h23c.2761 0 .5-.2239.5-.5v-13c0-.2761-.2239-.5-.5-.5zm-2.5 18c0 1.1046.89543 2 2 2h11l2-1 2 1h9c1.1046 0 2-.8954 2-2v-4c0 1.1046-.8954 2-2 2h-24c-1.10457 0-2-.8954-2-2zm24-11c0 2.4853-2.0147 4.5-4.5 4.5s-4.5-2.0147-4.5-4.5 2.0147-4.5 4.5-4.5 4.5 2.0147 4.5 4.5z" fill="#0074ba"/><path d="m19 8h-4v19h4z" fill="#fff478"/><path d="m19 26h-4v4h4z" fill="#f3ad61"/><path d="m11.22 13.5c-1.1279 0-2.07573.8856-2.20499 2h2.48499c.2761 0 .5.2239.5.5s-.2239.5-.5.5h-2.5v1.0101h2.5c.2761 0 .5.2239.5.5 0 .2762-.2239.5-.5.5h-2.49347c.08705 1.1273 1.03357 1.9899 2.21347 1.9899h1.28c.2761 0 .5.2239.5.5s-.2239.5-.5.5h-1.28c-1.70524 0-3.12661-1.2833-3.21558-2.9899h-1.50442c-.27614 0-.5-.2238-.5-.5 0-.2761.22386-.5.5-.5h1.5v-1.0101h-1.5c-.27614 0-.5-.2239-.5-.5s.22386-.5.5-.5h1.5104c.13239-1.6507 1.51236-3 3.2096-3h1.28c.2761 0 .5.2239.5.5s-.2239.5-.5.5z" fill="#fff"/></svg>