<svg fill="none" height="32" viewBox="0 0 32 32" width="32" xmlns="http://www.w3.org/2000/svg" xmlns:xlink="http://www.w3.org/1999/xlink"><linearGradient id="a" gradientUnits="userSpaceOnUse" x1="12.6518" x2="10.4598" y1="5.19896" y2="15.7206"><stop offset="0" stop-color="#bee4ff"/><stop offset=".110768" stop-color="#c0ebff"/><stop offset="1" stop-color="#c8f2ff"/></linearGradient><linearGradient id="b" gradientUnits="userSpaceOnUse" x1="12.6518" x2="11.9629" y1="4.51004" y2="9.89613"><stop offset=".0909937" stop-color="#b9cef1"/><stop offset=".218039" stop-color="#b9d2fb" stop-opacity="0"/></linearGradient><linearGradient id="c" gradientUnits="userSpaceOnUse" x1="9.33245" x2="11.6201" y1="16.9732" y2="11.4579"><stop offset=".0519634" stop-color="#c3d5fa"/><stop offset=".351155" stop-color="#c1e9ff" stop-opacity="0"/></linearGradient><linearGradient id="d"><stop offset=".0519634" stop-color="#c3d5fa"/><stop offset=".145423" stop-color="#c1e9ff" stop-opacity="0"/></linearGradient><linearGradient id="e" gradientUnits="userSpaceOnUse" x1="2.56852" x2="11.6201" xlink:href="#d" y1="8.70618" y2="11.4579"/><linearGradient id="f" gradientUnits="userSpaceOnUse" x1="20.7309" x2="11.6201" xlink:href="#d" y1="13.5286" y2="11.4579"/><linearGradient id="g"><stop offset="0" stop-color="#d5ffff"/><stop offset="1" stop-color="#d5ffff" stop-opacity="0"/></linearGradient><radialGradient id="h" cx="0" cy="0" gradientTransform="matrix(-.62628893 -.18788377 1.59700801 -5.32344247 20.543 10.4598)" gradientUnits="userSpaceOnUse" r="1" xlink:href="#g"/><radialGradient id="i" cx="0" cy="0" gradientTransform="matrix(.40708811 .12525843 -.79166171 2.57288921 3.28876 10.7103)" gradientUnits="userSpaceOnUse" r="1" xlink:href="#g"/><linearGradient id="j" gradientUnits="userSpaceOnUse" x1="20.3284" x2="3.44533" y1="8.39303" y2="5.90274"><stop offset=".40954" stop-color="#fff"/><stop offset=".851872" stop-color="#fff" stop-opacity="0"/></linearGradient><linearGradient id="k" gradientUnits="userSpaceOnUse" x1="21.9917" x2="21.9917" y1="26.9938" y2="30"><stop offset="0" stop-color="#48a3df"/><stop offset=".322917" stop-color="#47a8f4"/><stop offset=".604168" stop-color="#3e97f3"/><stop offset="1" stop-color="#5980f1"/></linearGradient><radialGradient id="l" cx="0" cy="0" gradientTransform="matrix(0 .970748 -1.14063 0 28.8727 28.0585)" gradientUnits="userSpaceOnUse" r="1"><stop offset="0" stop-color="#5eb5f9"/><stop offset="1" stop-color="#54b2f6" stop-opacity="0"/></radialGradient><radialGradient id="m" cx="0" cy="0" gradientTransform="matrix(0 .673261 -.830355 0 23.7528 26.6807)" gradientUnits="userSpaceOnUse" r="1"><stop offset=".335675" stop-color="#4fb8f3"/><stop offset="1" stop-color="#56c3f7" stop-opacity="0"/></radialGradient><radialGradient id="n" cx="0" cy="0" gradientTransform="matrix(2.0667631 13.5278321 -12.54246563 1.9162202 15.4075 26.8686)" gradientUnits="userSpaceOnUse" r="1"><stop offset=".596984" stop-color="#4ebaff"/><stop offset=".654411" stop-color="#60d7ff"/><stop offset=".917866" stop-color="#66cbff"/></radialGradient><radialGradient id="o" cx="0" cy="0" gradientTransform="matrix(.68891852 -2.00412751 2.92012905 1.00379391 22.6098 27.6827)" gradientUnits="userSpaceOnUse" r="1"><stop offset=".33432" stop-color="#41a3ec"/><stop offset="1" stop-color="#44a2ea" stop-opacity="0"/></radialGradient><linearGradient id="p" gradientUnits="userSpaceOnUse" x1="14.2801" x2="13.5885" y1="15.9398" y2="17.5995"><stop offset="0" stop-color="#93d6ff"/><stop offset=".447424" stop-color="#9adfff"/><stop offset="1" stop-color="#99c9ff"/></linearGradient><linearGradient id="q"><stop offset="0" stop-color="#76d5ff"/><stop offset=".571923" stop-color="#5abdff"/><stop offset="1" stop-color="#83c4ff"/></linearGradient><radialGradient id="r" cx="0" cy="0" gradientTransform="matrix(-1.44047356 1.9586734 -1.9586734 -1.44047356 19.7289 23.925)" gradientUnits="userSpaceOnUse" r="1" xlink:href="#q"/><linearGradient id="s"><stop offset="0" stop-color="#73d3ff"/><stop offset="1" stop-color="#73d4ff" stop-opacity="0"/></linearGradient><radialGradient id="t" cx="0" cy="0" gradientTransform="matrix(-.03131494 .68891865 -.68891865 -.03131494 19.541 24.0816)" gradientUnits="userSpaceOnUse" r="1" xlink:href="#s"/><radialGradient id="u" cx="0" cy="0" gradientTransform="matrix(-1.10997981 1.50928694 -1.50928694 -1.10997981 26.5435 24.1067)" gradientUnits="userSpaceOnUse" r="1" xlink:href="#q"/><radialGradient id="v" cx="0" cy="0" gradientTransform="matrix(-.02413021 .53085686 -.53085686 -.02413021 26.3987 24.2273)" gradientUnits="userSpaceOnUse" r="1" xlink:href="#s"/><path d="m4.17048 4.80693c.14075-.52908.65035-.87315 1.19369-.80595l15.88493 1.96455c.4711.05827.7824.51904.6606.97785l-3.3737 12.70562c-.147.5538-.7513.8481-1.278.6224l-14.66951-6.2869c-.44302-.1899-.67963-.6761-.55572-1.1419z" fill="url(#a)"/><path d="m4.17048 4.80693c.14075-.52908.65035-.87315 1.19369-.80595l15.88493 1.96455c.4711.05827.7824.51904.6606.97785l-3.3737 12.70562c-.147.5538-.7513.8481-1.278.6224l-14.66951-6.2869c-.44302-.1899-.67963-.6761-.55572-1.1419z" fill="url(#b)"/><path d="m4.17048 4.80693c.14075-.52908.65035-.87315 1.19369-.80595l15.88493 1.96455c.4711.05827.7824.51904.6606.97785l-3.3737 12.70562c-.147.5538-.7513.8481-1.278.6224l-14.66951-6.2869c-.44302-.1899-.67963-.6761-.55572-1.1419z" fill="url(#c)"/><path d="m4.17048 4.80693c.14075-.52908.65035-.87315 1.19369-.80595l15.88493 1.96455c.4711.05827.7824.51904.6606.97785l-3.3737 12.70562c-.147.5538-.7513.8481-1.278.6224l-14.66951-6.2869c-.44302-.1899-.67963-.6761-.55572-1.1419z" fill="url(#e)"/><path d="m4.17048 4.80693c.14075-.52908.65035-.87315 1.19369-.80595l15.88493 1.96455c.4711.05827.7824.51904.6606.97785l-3.3737 12.70562c-.147.5538-.7513.8481-1.278.6224l-14.66951-6.2869c-.44302-.1899-.67963-.6761-.55572-1.1419z" fill="url(#f)"/><path d="m4.17048 4.80693c.14075-.52908.65035-.87315 1.19369-.80595l15.88493 1.96455c.4711.05827.7824.51904.6606.97785l-3.3737 12.70562c-.147.5538-.7513.8481-1.278.6224l-14.66951-6.2869c-.44302-.1899-.67963-.6761-.55572-1.1419z" fill="url(#h)"/><path d="m4.17048 4.80693c.14075-.52908.65035-.87315 1.19369-.80595l15.88493 1.96455c.4711.05827.7824.51904.6606.97785l-3.3737 12.70562c-.147.5538-.7513.8481-1.278.6224l-14.66951-6.2869c-.44302-.1899-.67963-.6761-.55572-1.1419z" fill="url(#i)"/><path d="m19.7747 7.60232c.3446.04265.5905.36535.5492.72076-.0414.35541-.3543.60896-.699.56631l-13.91344-1.72172.32869-1.26493z" fill="url(#j)"/><path d="m23.9765 26.5232c.0463.3312.3263.5827.6607.5827h3.8632c.8282 0 1.4996.6757 1.4996 1.5093s-.6714 1.3848-1.4996 1.3848h-13.0174c-.8282 0-1.4996-.5512-1.4996-1.3848s.6714-1.5093 1.4996-1.5093h6.4785c.262 0 .466-.2288.4291-.4881-.2658-1.8676 1.2744-2.3245 1.5859-.0946z" fill="url(#k)"/><path d="m23.9765 26.5232c.0463.3312.3263.5827.6607.5827h3.8632c.8282 0 1.4996.6757 1.4996 1.5093s-.6714 1.3848-1.4996 1.3848h-13.0174c-.8282 0-1.4996-.5512-1.4996-1.3848s.6714-1.5093 1.4996-1.5093h6.4785c.262 0 .466-.2288.4291-.4881-.2658-1.8676 1.2744-2.3245 1.5859-.0946z" fill="url(#l)"/><path d="m23.9765 26.5232c.0463.3312.3263.5827.6607.5827h3.8632c.8282 0 1.4996.6757 1.4996 1.5093s-.6714 1.3848-1.4996 1.3848h-13.0174c-.8282 0-1.4996-.5512-1.4996-1.3848s.6714-1.5093 1.4996-1.5093h6.4785c.262 0 .466-.2288.4291-.4881-.2658-1.8676 1.2744-2.3245 1.5859-.0946z" fill="url(#m)"/><path d="m8.32575 14.579c.15657-.3865.59476-.572.9787-.4144l7.73655 3.2159c4.8863 2.1472 6.3971 5.2888 6.9355 9.1427.1327.9496-1.4505 1.0462-1.5859.0946-.4714-3.3115-1.839-5.9479-5.8245-7.7188l-7.82862-3.335c-.38395-.1576-.56829-.5986-.41173-.985z" fill="#45baff"/><path d="m8.32575 14.579c.15657-.3865.59476-.572.9787-.4144l7.73655 3.2159c4.8863 2.1472 6.3971 5.2888 6.9355 9.1427.1327.9496-1.4505 1.0462-1.5859.0946-.4714-3.3115-1.839-5.9479-5.8245-7.7188l-7.82862-3.335c-.38395-.1576-.56829-.5986-.41173-.985z" fill="url(#n)"/><path d="m8.32575 14.579c.15657-.3865.59476-.572.9787-.4144l7.73655 3.2159c4.8863 2.1472 6.3971 5.2888 6.9355 9.1427.1327.9496-1.4505 1.0462-1.5859.0946-.4714-3.3115-1.839-5.9479-5.8245-7.7188l-7.82862-3.335c-.38395-.1576-.56829-.5986-.41173-.985z" fill="url(#o)"/><path d="m8.32575 14.579c.15657-.3865.59476-.572.9787-.4144l7.73655 3.2159c.6864.3016 1.3062.6228 1.866.9629l-.4778 1.5652c-.5468-.3624-1.1648-.6993-1.8631-1.0096l-7.82862-3.335c-.38395-.1576-.56829-.5986-.41173-.985z" fill="url(#p)"/><circle cx="19.0802" cy="24.5287" fill="url(#r)" r="1.35499"/><circle cx="19.0802" cy="24.5287" fill="url(#t)" r="1.35499"/><circle cx="26.0436" cy="24.5719" fill="url(#u)" r="1.04411"/><circle cx="26.0436" cy="24.5719" fill="url(#v)" r="1.04411"/></svg>