<svg enable-background="new 0 0 128 128" viewBox="0 0 32 32" xmlns="http://www.w3.org/2000/svg"><path d="m14.9998 5.5 1.6149-.51248.0515-.05114c.443-.44532.443-1.15573.0106-1.60106-.4325-.44533-1.1496-.4453-1.5926-.01058l-1.0627 1.05544zm13.6592 12.4364-.6786.6753-.9806-1.1117.4426-1.4149c.4105-.1688.9003-.087 1.2271.2502.4421.4347.4421 1.1558-.0105 1.6011z" fill="#9b9b9b"/><path d="m14.1209 28.8751-1.3486-5.5544c1.7382-1.0127 3.3565-2.2158 4.825-3.6094l3.4278-3.2548 3.4425-1.5505 1.9434-3.5634 2.2948-2.17881c1.6882-1.60419 1.7282-4.28118.0999-5.93549-1.6383-1.65431-4.3056-1.63425-5.9239.04011l-2.5216 2.62368-4.0995 1.72645-1.0373 3.61826-2.9606 3.0804c-1.3985 1.4638-2.62726 3.078-3.6462 4.8125l-5.52429-1.4036c-.30967-.0802-.62934.01-.85911.2306-.43954.4411-.19978.9926.23976 1.4538l9.94974 10.0863c.4894.5213 1.0089.6918 1.4485.2506.2397-.2406.3296-.5614.2497-.8723z" fill="#cdc4d6"/><path d="m27.7929 5.76988-1.5396-1.5518c-.2825-.28916-.7503-.28914-1.0328-.00962-.2923.27951-.2923.74216-.0098 1.02167l1.5396 1.55178c.2826.28915.7503.28916 1.0328.00965.2826-.27952.2924-.73252.0098-1.02168z" fill="#00a6ed"/><path d="m15.2156 11.2449 5.1661-5.3752-12.03544-2.8187c-.46-.11-.95001-.04-1.37001.19-1.3.73-1.3 2.59001-.01 3.32001zm11.2137.0804-5.4208 5.147 4.4515 8.2277c.7 1.31 2.57 1.34 3.32.06.24-.41.32-.89.22-1.36zm-18.27287 10.9898c.41975-.4217 1.1066-.4217 1.52634.0095.42933.4217.41973 1.1117-.00954 1.5333l-2.83327 2.827c-.41974.4217-1.10659.4217-1.52634-.0095-.41974-.4217-.41974-1.1117.00955-1.5333z" fill="#0084ce"/></svg>