<svg fill="none" height="32" viewBox="0 0 32 32" width="32" xmlns="http://www.w3.org/2000/svg" xmlns:xlink="http://www.w3.org/1999/xlink"><filter id="a" color-interpolation-filters="sRGB" filterUnits="userSpaceOnUse" height="20.5884" width="12.8348" x="14.0233" y="2.771"><feFlood flood-opacity="0" result="BackgroundImageFix"/><feBlend in="SourceGraphic" in2="BackgroundImageFix" mode="normal" result="shape"/><feGaussianBlur result="effect1_foregroundBlur_18_26124" stdDeviation=".375"/></filter><filter id="b" color-interpolation-filters="sRGB" filterUnits="userSpaceOnUse" height="10.0623" width="14.2417" x="4.26733" y="19.547"><feFlood flood-opacity="0" result="BackgroundImageFix"/><feBlend in="SourceGraphic" in2="BackgroundImageFix" mode="normal" result="shape"/><feColorMatrix in="SourceAlpha" result="hardAlpha" type="matrix" values="0 0 0 0 0 0 0 0 0 0 0 0 0 0 0 0 0 0 127 0"/><feOffset dx="1"/><feGaussianBlur stdDeviation=".75"/><feComposite in2="hardAlpha" k2="-1" k3="1" operator="arithmetic"/><feColorMatrix type="matrix" values="0 0 0 0 0.756863 0 0 0 0 0.517647 0 0 0 0 0.298039 0 0 0 1 0"/><feBlend in2="shape" mode="normal" result="effect1_innerShadow_18_26124"/><feColorMatrix in="SourceAlpha" result="hardAlpha" type="matrix" values="0 0 0 0 0 0 0 0 0 0 0 0 0 0 0 0 0 0 127 0"/><feOffset dy="-.5"/><feGaussianBlur stdDeviation=".75"/><feComposite in2="hardAlpha" k2="-1" k3="1" operator="arithmetic"/><feColorMatrix type="matrix" values="0 0 0 0 1 0 0 0 0 0.427451 0 0 0 0 0.529412 0 0 0 1 0"/><feBlend in2="effect1_innerShadow_18_26124" mode="normal" result="effect2_innerShadow_18_26124"/></filter><linearGradient id="c" gradientUnits="userSpaceOnUse" x1="15.4387" x2="17.7825" y1="18.0625" y2="19.4375"><stop offset=".142375" stop-color="#6e4240"/><stop offset="1" stop-color="#834953" stop-opacity="0"/></linearGradient><radialGradient id="d" cx="0" cy="0" gradientTransform="matrix(-2.13812193 2.44623093 -3.62306366 -3.16672959 27.7956 2.0494)" gradientUnits="userSpaceOnUse" r="1"><stop offset="0" stop-color="#a57667"/><stop offset="1" stop-color="#a57667" stop-opacity="0"/></radialGradient><radialGradient id="e" cx="0" cy="0" gradientTransform="matrix(1.11519335 -.47965296 .2980212 .69289943 26.6564 2.98472)" gradientUnits="userSpaceOnUse" r="1"><stop offset=".0710945" stop-color="#bb8b86"/><stop offset="1" stop-color="#bb8b86" stop-opacity="0"/></radialGradient><linearGradient id="f" gradientUnits="userSpaceOnUse" x1="7.43872" x2="15.8762" y1="29.0625" y2="21.25"><stop offset="0" stop-color="#f58c43"/><stop offset="1" stop-color="#fdad47"/></linearGradient><radialGradient id="g" cx="0" cy="0" gradientTransform="matrix(-1.12499129 1.84375514 -3.04092789 -1.8554619 16.1575 22.3437)" gradientUnits="userSpaceOnUse" r="1"><stop offset="0" stop-color="#ffd46f"/><stop offset="1" stop-color="#ffd46f" stop-opacity="0"/></radialGradient><linearGradient id="h" gradientUnits="userSpaceOnUse" x1="6.43872" x2="10.6262" y1="29.125" y2="26.75"><stop offset="0" stop-color="#ff8655"/><stop offset="1" stop-color="#ff8655" stop-opacity="0"/></linearGradient><radialGradient id="i" cx="0" cy="0" gradientTransform="matrix(-1.7187283 2.71875933 -3.47063663 -2.1940454 13.72 25.8125)" gradientUnits="userSpaceOnUse" r="1"><stop offset="0" stop-color="#ffa565"/><stop offset="1" stop-color="#ffa565" stop-opacity="0"/></radialGradient><linearGradient id="j"><stop offset="0" stop-color="#ff1951"/><stop offset=".718449" stop-color="#dc1e43"/><stop offset="1" stop-color="#b2424f"/></linearGradient><linearGradient id="k" gradientUnits="userSpaceOnUse" x1="15.3137" x2="10.4856" xlink:href="#j" y1="24.125" y2="21.472"/><linearGradient id="l"><stop offset=".242816" stop-color="#ff516d"/><stop offset="1" stop-color="#ff516d" stop-opacity="0"/></linearGradient><radialGradient id="m" cx="0" cy="0" gradientTransform="matrix(-.09855284 .18342343 -2.59954176 -1.3967257 15.0963 23.5238)" gradientUnits="userSpaceOnUse" r="1" xlink:href="#l"/><linearGradient id="n" gradientUnits="userSpaceOnUse" x1="14.7347" x2="9.28962" xlink:href="#j" y1="25.7382" y2="22.8508"/><radialGradient id="o" cx="0" cy="0" gradientTransform="matrix(-.1093766 .21093677 -2.93008472 -1.51933074 14.4934 25.0469)" gradientUnits="userSpaceOnUse" r="1" xlink:href="#l"/><linearGradient id="p" gradientUnits="userSpaceOnUse" x1="16.5844" x2="16.6106" y1="18.6825" y2="19.8848"><stop offset="0" stop-color="#aa9fb9"/><stop offset="1" stop-color="#b69bcc"/></linearGradient><radialGradient id="q" cx="0" cy="0" gradientTransform="matrix(-3.18292186 .86203728 -.52561272 -1.94073303 17.7628 18.6616)" gradientUnits="userSpaceOnUse" r="1"><stop offset=".477916" stop-color="#9b8dac" stop-opacity="0"/><stop offset=".96585" stop-color="#7e7785"/></radialGradient><radialGradient id="r" cx="0" cy="0" gradientTransform="matrix(-.00350986 .65017153 -1.93386182 -.01043967 17.438 18.8491)" gradientUnits="userSpaceOnUse" r="1"><stop offset=".15196" stop-color="#c3b6d4"/><stop offset="1" stop-color="#c3b6d4" stop-opacity="0"/></radialGradient><g stroke-width="2.75"><path d="m25.6575 3.5-10.7969 18.7344" stroke="#9f6261" stroke-linecap="round"/><path d="m25.6575 3.5-10.7969 18.7344" stroke="url(#c)" stroke-linecap="round"/><path d="m25.6575 3.5-10.7969 18.7344" stroke="url(#d)" stroke-linecap="round"/><path d="m25.6575 3.5-10.7969 18.7344" stroke="url(#e)" stroke-linecap="round"/></g><g filter="url(#a)"><path d="m25.7331 3.89606-10.5847 18.33834" stroke="#96596b" stroke-linecap="round" stroke-width=".75"/></g><g filter="url(#b)"><path d="m9.70374 23.3281-5.14021 4.8047c-.59359.6015-.22722 1.4765.49991 1.4765h7.51586c2.4297-.1172 3.7735-1.1953 4.2692-2.9809l.5433-2.0894c.3985-1.9297-.2403-3.241-1.5859-4.0156-1.4327-.8247-3.2096-.5679-4.2858.6869z" fill="url(#f)"/><path d="m9.70374 23.3281-5.14021 4.8047c-.59359.6015-.22722 1.4765.49991 1.4765h7.51586c2.4297-.1172 3.7735-1.1953 4.2692-2.9809l.5433-2.0894c.3985-1.9297-.2403-3.241-1.5859-4.0156-1.4327-.8247-3.2096-.5679-4.2858.6869z" fill="url(#g)"/><path d="m9.70374 23.3281-5.14021 4.8047c-.59359.6015-.22722 1.4765.49991 1.4765h7.51586c2.4297-.1172 3.7735-1.1953 4.2692-2.9809l.5433-2.0894c.3985-1.9297-.2403-3.241-1.5859-4.0156-1.4327-.8247-3.2096-.5679-4.2858.6869z" fill="url(#h)"/><path d="m9.70374 23.3281-5.14021 4.8047c-.59359.6015-.22722 1.4765.49991 1.4765h7.51586c2.4297-.1172 3.7735-1.1953 4.2692-2.9809l.5433-2.0894c.3985-1.9297-.2403-3.241-1.5859-4.0156-1.4327-.8247-3.2096-.5679-4.2858.6869z" fill="url(#i)"/></g><path d="m11.2668 21.5469 6.0469 3.2813" stroke="url(#k)" stroke-linecap="round" stroke-width=".6"/><path d="m11.2668 21.5469 6.0469 3.2813" stroke="url(#m)" stroke-linecap="round" stroke-width=".6"/><path d="m10.2434 22.7734 6.7109 3.7735" stroke="url(#n)" stroke-linecap="round" stroke-width=".6"/><path d="m10.2434 22.7734 6.7109 3.7735" stroke="url(#o)" stroke-linecap="round" stroke-width=".6"/><rect fill="url(#p)" height="1.31895" rx=".659474" transform="matrix(.8660254 .5 -.5 .8660254 11.308399 -4.83852)" width="3.80279" x="14.683" y="18.6825"/><rect fill="url(#q)" height="1.31895" rx=".659474" transform="matrix(.8660254 .5 -.5 .8660254 11.308399 -4.83852)" width="3.80279" x="14.683" y="18.6825"/><rect fill="url(#r)" height="1.31895" rx=".659474" transform="matrix(.8660254 .5 -.5 .8660254 11.308399 -4.83852)" width="3.80279" x="14.683" y="18.6825"/></svg>