<svg fill="none" height="32" viewBox="0 0 32 32" width="32" xmlns="http://www.w3.org/2000/svg" xmlns:xlink="http://www.w3.org/1999/xlink"><filter id="a" color-interpolation-filters="sRGB" filterUnits="userSpaceOnUse" height="11.5571" width="7.14667" x="9.05511" y="15.8677"><feFlood flood-opacity="0" result="BackgroundImageFix"/><feBlend in="SourceGraphic" in2="BackgroundImageFix" mode="normal" result="shape"/><feGaussianBlur result="effect1_foregroundBlur_3987_24155" stdDeviation=".5"/></filter><filter id="b" color-interpolation-filters="sRGB" filterUnits="userSpaceOnUse" height="11.5571" width="7.14667" x="15.9492" y="15.8677"><feFlood flood-opacity="0" result="BackgroundImageFix"/><feBlend in="SourceGraphic" in2="BackgroundImageFix" mode="normal" result="shape"/><feGaussianBlur result="effect1_foregroundBlur_3987_24155" stdDeviation=".5"/></filter><filter id="c" color-interpolation-filters="sRGB" filterUnits="userSpaceOnUse" height="3.69873" width="3.69879" x="17.0205" y="24.0796"><feFlood flood-opacity="0" result="BackgroundImageFix"/><feBlend in="SourceGraphic" in2="BackgroundImageFix" mode="normal" result="shape"/><feGaussianBlur result="effect1_foregroundBlur_3987_24155" stdDeviation=".375"/></filter><filter id="d" color-interpolation-filters="sRGB" filterUnits="userSpaceOnUse" height="1.41992" width="1.41998" x="18.9905" y="24.8296"><feFlood flood-opacity="0" result="BackgroundImageFix"/><feBlend in="SourceGraphic" in2="BackgroundImageFix" mode="normal" result="shape"/><feColorMatrix in="SourceAlpha" result="hardAlpha" type="matrix" values="0 0 0 0 0 0 0 0 0 0 0 0 0 0 0 0 0 0 127 0"/><feOffset/><feGaussianBlur stdDeviation=".1"/><feComposite in2="hardAlpha" k2="-1" k3="1" operator="arithmetic"/><feColorMatrix type="matrix" values="0 0 0 0 0.14902 0 0 0 0 0.411765 0 0 0 0 0.721569 0 0 0 1 0"/><feBlend in2="shape" mode="normal" result="effect1_innerShadow_3987_24155"/></filter><filter id="e" color-interpolation-filters="sRGB" filterUnits="userSpaceOnUse" height="7.17119" width="5.38123" x="9.53992" y="19.7492"><feFlood flood-opacity="0" result="BackgroundImageFix"/><feBlend in="SourceGraphic" in2="BackgroundImageFix" mode="normal" result="shape"/><feColorMatrix in="SourceAlpha" result="hardAlpha" type="matrix" values="0 0 0 0 0 0 0 0 0 0 0 0 0 0 0 0 0 0 127 0"/><feOffset dy="-.2"/><feGaussianBlur stdDeviation=".1"/><feComposite in2="hardAlpha" k2="-1" k3="1" operator="arithmetic"/><feColorMatrix type="matrix" values="0 0 0 0 0.333333 0 0 0 0 0.239216 0 0 0 0 0.501961 0 0 0 1 0"/><feBlend in2="shape" mode="normal" result="effect1_innerShadow_3987_24155"/></filter><filter id="f" color-interpolation-filters="sRGB" filterUnits="userSpaceOnUse" height="6.89004" width="5.30001" x="9.60594" y="19.9231"><feFlood flood-opacity="0" result="BackgroundImageFix"/><feBlend in="SourceGraphic" in2="BackgroundImageFix" mode="normal" result="shape"/><feGaussianBlur result="effect1_foregroundBlur_3987_24155" stdDeviation=".15"/></filter><filter id="g" color-interpolation-filters="sRGB" filterUnits="userSpaceOnUse" height="3.33887" width="3.53862" x="9.59998" y="9.11816"><feFlood flood-opacity="0" result="BackgroundImageFix"/><feBlend in="SourceGraphic" in2="BackgroundImageFix" mode="normal" result="shape"/><feColorMatrix in="SourceAlpha" result="hardAlpha" type="matrix" values="0 0 0 0 0 0 0 0 0 0 0 0 0 0 0 0 0 0 127 0"/><feOffset dx=".2"/><feGaussianBlur stdDeviation=".2"/><feComposite in2="hardAlpha" k2="-1" k3="1" operator="arithmetic"/><feColorMatrix type="matrix" values="0 0 0 0 0.866667 0 0 0 0 0.643137 0 0 0 0 0.533333 0 0 0 1 0"/><feBlend in2="shape" mode="normal" result="effect1_innerShadow_3987_24155"/></filter><filter id="h" color-interpolation-filters="sRGB" filterUnits="userSpaceOnUse" height="2.98975" width="2.98975" x="9.77441" y="9.29248"><feFlood flood-opacity="0" result="BackgroundImageFix"/><feBlend in="SourceGraphic" in2="BackgroundImageFix" mode="normal" result="shape"/><feGaussianBlur result="effect1_foregroundBlur_3987_24155" stdDeviation=".25"/></filter><filter id="i" color-interpolation-filters="sRGB" filterUnits="userSpaceOnUse" height="3.58887" width="3.58862" x="19.1125" y="8.86816"><feFlood flood-opacity="0" result="BackgroundImageFix"/><feBlend in="SourceGraphic" in2="BackgroundImageFix" mode="normal" result="shape"/><feColorMatrix in="SourceAlpha" result="hardAlpha" type="matrix" values="0 0 0 0 0 0 0 0 0 0 0 0 0 0 0 0 0 0 127 0"/><feOffset dx=".25" dy="-.25"/><feGaussianBlur stdDeviation=".25"/><feComposite in2="hardAlpha" k2="-1" k3="1" operator="arithmetic"/><feColorMatrix type="matrix" values="0 0 0 0 0.768627 0 0 0 0 0.529412 0 0 0 0 0.505882 0 0 0 1 0"/><feBlend in2="shape" mode="normal" result="effect1_innerShadow_3987_24155"/></filter><filter id="j" color-interpolation-filters="sRGB" filterUnits="userSpaceOnUse" height="2.98975" width="2.98975" x="19.2869" y="9.29248"><feFlood flood-opacity="0" result="BackgroundImageFix"/><feBlend in="SourceGraphic" in2="BackgroundImageFix" mode="normal" result="shape"/><feGaussianBlur result="effect1_foregroundBlur_3987_24155" stdDeviation=".25"/></filter><filter id="k" color-interpolation-filters="sRGB" filterUnits="userSpaceOnUse" height="12.1769" width="10.3727" x="10.8592" y="5.16357"><feFlood flood-opacity="0" result="BackgroundImageFix"/><feBlend in="SourceGraphic" in2="BackgroundImageFix" mode="normal" result="shape"/><feColorMatrix in="SourceAlpha" result="hardAlpha" type="matrix" values="0 0 0 0 0 0 0 0 0 0 0 0 0 0 0 0 0 0 127 0"/><feOffset dy=".15"/><feGaussianBlur stdDeviation=".15"/><feComposite in2="hardAlpha" k2="-1" k3="1" operator="arithmetic"/><feColorMatrix type="matrix" values="0 0 0 0 0.752941 0 0 0 0 0.501961 0 0 0 0 0.34902 0 0 0 1 0"/><feBlend in2="shape" mode="normal" result="effect1_innerShadow_3987_24155"/></filter><filter id="l" color-interpolation-filters="sRGB" filterUnits="userSpaceOnUse" height="8.54297" width="12.6005" x="9.71649" y="1.68701"><feFlood flood-opacity="0" result="BackgroundImageFix"/><feBlend in="SourceGraphic" in2="BackgroundImageFix" mode="normal" result="shape"/><feColorMatrix in="SourceAlpha" result="hardAlpha" type="matrix" values="0 0 0 0 0 0 0 0 0 0 0 0 0 0 0 0 0 0 127 0"/><feOffset dy="-.5"/><feGaussianBlur stdDeviation=".375"/><feComposite in2="hardAlpha" k2="-1" k3="1" operator="arithmetic"/><feColorMatrix type="matrix" values="0 0 0 0 0.858824 0 0 0 0 0.690196 0 0 0 0 0.533333 0 0 0 1 0"/><feBlend in2="shape" mode="normal" result="effect1_innerShadow_3987_24155"/></filter><filter id="m" color-interpolation-filters="sRGB" filterUnits="userSpaceOnUse" height="4.18115" width="3.25983" x="14.1479" y="9.63281"><feFlood flood-opacity="0" result="BackgroundImageFix"/><feBlend in="SourceGraphic" in2="BackgroundImageFix" mode="normal" result="shape"/><feGaussianBlur result="effect1_foregroundBlur_3987_24155" stdDeviation=".375"/></filter><filter id="n" color-interpolation-filters="sRGB" filterUnits="userSpaceOnUse" height="3.18115" width="2.37665" x="14.8285" y="9.96973"><feFlood flood-opacity="0" result="BackgroundImageFix"/><feBlend in="SourceGraphic" in2="BackgroundImageFix" mode="normal" result="shape"/><feGaussianBlur result="effect1_foregroundBlur_3987_24155" stdDeviation=".125"/></filter><filter id="o" color-interpolation-filters="sRGB" filterUnits="userSpaceOnUse" height="1.87266" width="2.97943" x="17.1989" y="7.13906"><feFlood flood-opacity="0" result="BackgroundImageFix"/><feBlend in="SourceGraphic" in2="BackgroundImageFix" mode="normal" result="shape"/><feColorMatrix in="SourceAlpha" result="hardAlpha" type="matrix" values="0 0 0 0 0 0 0 0 0 0 0 0 0 0 0 0 0 0 127 0"/><feOffset dx=".25" dy="-.4"/><feGaussianBlur stdDeviation=".3"/><feComposite in2="hardAlpha" k2="-1" k3="1" operator="arithmetic"/><feColorMatrix type="matrix" values="0 0 0 0 0.47451 0 0 0 0 0.262745 0 0 0 0 0.168627 0 0 0 1 0"/><feBlend in2="shape" mode="normal" result="effect1_innerShadow_3987_24155"/></filter><filter id="p" color-interpolation-filters="sRGB" filterUnits="userSpaceOnUse" height="1.87266" width="2.97955" x="12.0515" y="7.13906"><feFlood flood-opacity="0" result="BackgroundImageFix"/><feBlend in="SourceGraphic" in2="BackgroundImageFix" mode="normal" result="shape"/><feColorMatrix in="SourceAlpha" result="hardAlpha" type="matrix" values="0 0 0 0 0 0 0 0 0 0 0 0 0 0 0 0 0 0 127 0"/><feOffset dx=".25" dy="-.4"/><feGaussianBlur stdDeviation=".3"/><feComposite in2="hardAlpha" k2="-1" k3="1" operator="arithmetic"/><feColorMatrix type="matrix" values="0 0 0 0 0.47451 0 0 0 0 0.262745 0 0 0 0 0.168627 0 0 0 1 0"/><feBlend in2="shape" mode="normal" result="effect1_innerShadow_3987_24155"/></filter><filter id="q" color-interpolation-filters="sRGB" filterUnits="userSpaceOnUse" height=".696094" width=".786609" x="17.4616" y="9.66562"><feFlood flood-opacity="0" result="BackgroundImageFix"/><feBlend in="SourceGraphic" in2="BackgroundImageFix" mode="normal" result="shape"/><feGaussianBlur result="effect1_foregroundBlur_3987_24155" stdDeviation=".05"/></filter><filter id="r" color-interpolation-filters="sRGB" filterUnits="userSpaceOnUse" height=".913184" width=".891089" x="18.3012" y="9.74092"><feFlood flood-opacity="0" result="BackgroundImageFix"/><feBlend in="SourceGraphic" in2="BackgroundImageFix" mode="normal" result="shape"/><feGaussianBlur result="effect1_foregroundBlur_3987_24155" stdDeviation=".1"/></filter><filter id="s" color-interpolation-filters="sRGB" filterUnits="userSpaceOnUse" height="1.04014" width=".986121" x="13.8598" y="9.67744"><feFlood flood-opacity="0" result="BackgroundImageFix"/><feBlend in="SourceGraphic" in2="BackgroundImageFix" mode="normal" result="shape"/><feGaussianBlur result="effect1_foregroundBlur_3987_24155" stdDeviation=".1"/></filter><filter id="t" color-interpolation-filters="sRGB" filterUnits="userSpaceOnUse" height=".704395" width=".912891" x="13.1051" y="9.65781"><feFlood flood-opacity="0" result="BackgroundImageFix"/><feBlend in="SourceGraphic" in2="BackgroundImageFix" mode="normal" result="shape"/><feGaussianBlur result="effect1_foregroundBlur_3987_24155" stdDeviation=".05"/></filter><filter id="u" color-interpolation-filters="sRGB" filterUnits="userSpaceOnUse" height="1.68115" width="3.09924" x="17.0522" y="7.26514"><feFlood flood-opacity="0" result="BackgroundImageFix"/><feBlend in="SourceGraphic" in2="BackgroundImageFix" mode="normal" result="shape"/><feGaussianBlur result="effect1_foregroundBlur_3987_24155" stdDeviation=".25"/></filter><filter id="v" color-interpolation-filters="sRGB" filterUnits="userSpaceOnUse" height="1.73828" width="3.177" x="11.8333" y="7.32861"><feFlood flood-opacity="0" result="BackgroundImageFix"/><feBlend in="SourceGraphic" in2="BackgroundImageFix" mode="normal" result="shape"/><feGaussianBlur result="effect1_foregroundBlur_3987_24155" stdDeviation=".25"/></filter><radialGradient id="w" cx="0" cy="0" gradientTransform="matrix(-10.8 0 0 -20.6925 23.2206 24.0007)" gradientUnits="userSpaceOnUse" r="1"><stop offset="0" stop-color="#efeafb"/><stop offset="1" stop-color="#d4cae9"/></radialGradient><linearGradient id="x" gradientUnits="userSpaceOnUse" x1="23.3346" x2="23.0221" y1="24.6804" y2="24.6805"><stop offset=".224619" stop-color="#d4ccdc"/><stop offset="1" stop-color="#d4ccdc" stop-opacity="0"/></linearGradient><linearGradient id="y" gradientUnits="userSpaceOnUse" x1="8.75647" x2="9.09241" y1="24.6805" y2="24.6804"><stop offset=".382979" stop-color="#b7afc3"/><stop offset="1" stop-color="#b7afc3" stop-opacity="0"/></linearGradient><linearGradient id="z"><stop offset="0" stop-color="#c8b7de"/><stop offset="1" stop-color="#c8b7de" stop-opacity="0"/></linearGradient><linearGradient id="A" gradientUnits="userSpaceOnUse" x1="16.2018" x2="16.2018" xlink:href="#z" y1="31.032" y2="29.2195"/><radialGradient id="B" cx="0" cy="0" gradientTransform="matrix(-8.59365991 -14.18758368 13.98333133 -8.4699408 22.108 28.8757)" gradientUnits="userSpaceOnUse" r="1"><stop offset=".587422" stop-color="#bebac5" stop-opacity="0"/><stop offset="1" stop-color="#bebac5"/></radialGradient><radialGradient id="C" cx="0" cy="0" gradientTransform="matrix(.81249992 3.56250105 -3.94168427 .89898027 18.0768 24.5632)" gradientUnits="userSpaceOnUse" r="1"><stop offset="0" stop-color="#b2a6c7"/><stop offset="1" stop-color="#b2a6c7" stop-opacity="0"/></radialGradient><radialGradient id="D" cx="0" cy="0" gradientTransform="matrix(0 -7.97501 .960268 0 15.9915 30.0695)" gradientUnits="userSpaceOnUse" r="1"><stop offset="0" stop-color="#b1909e"/><stop offset="1" stop-color="#b1909e" stop-opacity="0"/></radialGradient><linearGradient id="E"><stop offset=".00558659" stop-color="#ccc"/><stop offset="1" stop-color="#e6e6e6"/></linearGradient><linearGradient id="F" gradientUnits="userSpaceOnUse" x1="8.8408" x2="23.2168" xlink:href="#E" y1="15.5091" y2="15.5091"/><linearGradient id="G" gradientUnits="userSpaceOnUse" x1="8.8408" x2="23.2168" xlink:href="#E" y1="15.4788" y2="15.4788"/><radialGradient id="H" cx="0" cy="0" gradientTransform="matrix(3.44347919 .31250008 -.8676077 9.56028248 5.35805 24.7823)" gradientUnits="userSpaceOnUse" r="1"><stop offset="0" stop-color="#d3d0d5"/><stop offset="1" stop-color="#c8bfd6"/></radialGradient><radialGradient id="I" cx="0" cy="0" gradientTransform="matrix(-2.06250863 6.35001143 -7.11172899 -2.30991749 9.5143 17.8448)" gradientUnits="userSpaceOnUse" r="1"><stop offset="0" stop-color="#c4c3c3"/><stop offset="1" stop-color="#c4c3c3" stop-opacity="0"/></radialGradient><linearGradient id="J" gradientUnits="userSpaceOnUse" x1="7.02019" x2="7.02019" xlink:href="#z" y1="30.845" y2="29.3853"/><radialGradient id="K" cx="0" cy="0" gradientTransform="matrix(-3.07502303 1.40623281 -3.71957105 -8.13362238 26.2565 22.032)" gradientUnits="userSpaceOnUse" r="1"><stop offset="0" stop-color="#fcf9ff"/><stop offset="1" stop-color="#e6ddf3"/></radialGradient><radialGradient id="L" cx="0" cy="0" gradientTransform="matrix(0 11 -8.46398 0 24.569 20.407)" gradientUnits="userSpaceOnUse" r="1"><stop offset=".78098" stop-color="#d1c0e3" stop-opacity="0"/><stop offset=".974432" stop-color="#d1c0e3"/></radialGradient><linearGradient id="M" gradientUnits="userSpaceOnUse" x1="22.6917" x2="23.4701" y1="25.7185" y2="25.7185"><stop offset=".642857" stop-color="#d4ccdc"/><stop offset="1" stop-color="#d4ccdc" stop-opacity="0"/></linearGradient><radialGradient id="N" cx="0" cy="0" gradientTransform="matrix(0 5.65625 -3.01125 0 16.0256 18.6257)" gradientUnits="userSpaceOnUse" r="1"><stop offset=".39779" stop-color="#3272ac"/><stop offset="1" stop-color="#0a4b92"/></radialGradient><radialGradient id="O" cx="0" cy="0" gradientTransform="matrix(0 -6.53125 2.8605 0 16.3893 30.5632)" gradientUnits="userSpaceOnUse" r="1"><stop offset=".344498" stop-color="#3865b8"/><stop offset="1" stop-color="#3865b8" stop-opacity="0"/></radialGradient><linearGradient id="P" gradientUnits="userSpaceOnUse" x1="16.2018" x2="23.8268" y1="27.0636" y2="19.4699"><stop offset="0" stop-color="#ad9ec2"/><stop offset="1" stop-color="#d3cfda"/></linearGradient><linearGradient id="Q" gradientUnits="userSpaceOnUse" x1="21.9156" x2="16.8004" y1="18.459" y2="23.9772"><stop offset="0" stop-color="#fdf6f9"/><stop offset="1" stop-color="#bdb2d2"/></linearGradient><linearGradient id="R" gradientUnits="userSpaceOnUse" x1="20.07" x2="19.9124" y1="15.7402" y2="17.8025"><stop offset="0" stop-color="#edd8ce"/><stop offset="1" stop-color="#edd8ce" stop-opacity="0"/></linearGradient><linearGradient id="S" gradientUnits="userSpaceOnUse" x1="17.608" x2="18.7643" y1="18.9852" y2="19.4696"><stop offset="0" stop-color="#b49089"/><stop offset="1" stop-color="#ded4e6" stop-opacity="0"/></linearGradient><radialGradient id="T" cx="0" cy="0" gradientTransform="matrix(0 6.1875 -.845588 0 19.1641 18.1884)" gradientUnits="userSpaceOnUse" r="1"><stop offset="0" stop-color="#aa98a1"/><stop offset="1" stop-color="#dad1e4" stop-opacity="0"/></radialGradient><radialGradient id="U" cx="0" cy="0" gradientTransform="matrix(2.6921125 -3.05148653 1.04220329 .91946285 16.472 26.6305)" gradientUnits="userSpaceOnUse" r="1"><stop offset="0" stop-color="#b7a3cf"/><stop offset="1" stop-color="#b7a3cf" stop-opacity="0"/></radialGradient><radialGradient id="V" cx="0" cy="0" gradientTransform="matrix(0 -4.84375 .553272 0 19.1641 24.9384)" gradientUnits="userSpaceOnUse" r="1"><stop offset="0" stop-color="#a298b4"/><stop offset="1" stop-color="#a298b4" stop-opacity="0"/></radialGradient><radialGradient id="W" cx="0" cy="0" gradientTransform="matrix(-3.03125804 1.1815334 -2.31983505 -5.95160379 14.5143 19.9071)" gradientUnits="userSpaceOnUse" r="1"><stop offset=".0876876" stop-color="#efe1e3"/><stop offset="1" stop-color="#bdb0d0"/></radialGradient><radialGradient id="X" cx="0" cy="0" gradientTransform="matrix(3.46106442 -9.38813436 7.62182375 2.8098898 10.1552 24.9929)" gradientUnits="userSpaceOnUse" r="1"><stop offset=".691424" stop-color="#b3a299" stop-opacity="0"/><stop offset="1" stop-color="#b3a299"/></radialGradient><linearGradient id="Y" gradientUnits="userSpaceOnUse" x1="12.2956" x2="12.6237" y1="23.2821" y2="22.9227"><stop offset="0" stop-color="#b2a6c6"/><stop offset="1" stop-color="#b2a6c6" stop-opacity="0"/></linearGradient><radialGradient id="Z" cx="0" cy="0" gradientTransform="matrix(.39062211 -2.76562007 2.11885944 .29927225 10.3268 19.5634)" gradientUnits="userSpaceOnUse" r="1"><stop offset="0" stop-color="#cbc5cf"/><stop offset="1" stop-color="#bdb1ad" stop-opacity="0"/></radialGradient><radialGradient id="aa" cx="0" cy="0" gradientTransform="matrix(-.43750807 2.20311861 -.67639765 -.13432297 12.1237 18.3915)" gradientUnits="userSpaceOnUse" r="1"><stop offset=".438596" stop-color="#ada5ab"/><stop offset="1" stop-color="#ada5ab" stop-opacity="0"/></radialGradient><radialGradient id="ab" cx="0" cy="0" gradientTransform="matrix(1.82812251 2.12499836 -.73855093 .63537064 12.4674 21.4071)" gradientUnits="userSpaceOnUse" r="1"><stop offset="0" stop-color="#b5a9bf"/><stop offset="1" stop-color="#b5a9bf" stop-opacity="0"/></radialGradient><radialGradient id="ac" cx="0" cy="0" gradientTransform="matrix(0 -2.72628 3.2225 0 16.0105 18.7896)" gradientUnits="userSpaceOnUse" r="1"><stop offset=".243474" stop-color="#a77d70"/><stop offset=".577238" stop-color="#91675a"/><stop offset="1" stop-color="#7b5047"/></radialGradient><linearGradient id="ad" gradientUnits="userSpaceOnUse" x1="20.3346" x2="19.6627" y1="23.7509" y2="23.7665"><stop offset=".293513" stop-color="#746992"/><stop offset="1" stop-color="#746992" stop-opacity="0"/></linearGradient><radialGradient id="ae" cx="0" cy="0" gradientTransform="matrix(0 1.78125 -1.30438 0 18.5299 16.454)" gradientUnits="userSpaceOnUse" r="1"><stop offset=".122807" stop-color="#552e54"/><stop offset="1" stop-color="#552e54" stop-opacity="0"/></radialGradient><radialGradient id="af" cx="0" cy="0" gradientTransform="matrix(0 -3.14062 .59375 0 12.608 20.1102)" gradientUnits="userSpaceOnUse" r="1"><stop offset="0" stop-color="#716687"/><stop offset="1" stop-color="#716687" stop-opacity="0"/></radialGradient><radialGradient id="ag" cx="0" cy="0" gradientTransform="matrix(-.78125189 1.53124447 -1.63599794 -.83469785 13.5299 16.1884)" gradientUnits="userSpaceOnUse" r="1"><stop offset=".144745" stop-color="#4a2657"/><stop offset="1" stop-color="#4a2657" stop-opacity="0"/></radialGradient><radialGradient id="ah" cx="0" cy="0" gradientTransform="matrix(-1.00455725 1.61753623 -1.45410823 -.90306166 20.1905 24.9885)" gradientUnits="userSpaceOnUse" r="1"><stop offset=".213098" stop-color="#49a3e6"/><stop offset="1" stop-color="#2b86dd"/></radialGradient><radialGradient id="ai" cx="0" cy="0" gradientTransform="matrix(.78647952 -.78647952 .51957287 .51957287 19.2737 25.9776)" gradientUnits="userSpaceOnUse" r="1"><stop offset=".20362" stop-color="#4c7bbf"/><stop offset="1" stop-color="#2c6dbd"/></radialGradient><linearGradient id="aj" gradientUnits="userSpaceOnUse" x1="12.2305" x2="12.2305" y1="19.9492" y2="28.5323"><stop offset="0" stop-color="#5d4f77"/><stop offset="1" stop-color="#553c83"/></linearGradient><linearGradient id="ak"><stop offset="0" stop-color="#3a97db"/><stop offset="1" stop-color="#49a3e2"/></linearGradient><linearGradient id="al" gradientUnits="userSpaceOnUse" x1="9.53992" x2="10.434" xlink:href="#ak" y1="25.3484" y2="25.3484"/><radialGradient id="am" cx="0" cy="0" gradientTransform="matrix(0 3.5 -.280742 0 10.1552 23.6414)" gradientUnits="userSpaceOnUse" r="1"><stop offset=".441964" stop-color="#46a4e7"/><stop offset="1" stop-color="#46a4e7" stop-opacity="0"/></radialGradient><linearGradient id="an" gradientUnits="userSpaceOnUse" x1="13.9128" x2="14.5846" xlink:href="#ak" y1="25.3586" y2="25.3586"/><linearGradient id="ao" gradientUnits="userSpaceOnUse" x1="14.9753" x2="14.7331" y1="24.8761" y2="24.8761"><stop offset="0" stop-color="#3d9ad9"/><stop offset="1" stop-color="#3d9ad9" stop-opacity="0"/></linearGradient><radialGradient id="ap" cx="0" cy="0" gradientTransform="matrix(1.75471 0 0 3.07076 9.59998 10.7875)" gradientUnits="userSpaceOnUse" r="1"><stop offset=".350532" stop-color="#c28775"/><stop offset="1" stop-color="#ba7867"/></radialGradient><linearGradient id="aq" gradientUnits="userSpaceOnUse" x1="11.2693" x2="10.6288" y1="11.066" y2="11.066"><stop offset="0" stop-color="#af6f5d"/><stop offset="1" stop-color="#b87862"/></linearGradient><linearGradient id="ar" gradientUnits="userSpaceOnUse" x1="21.8681" x2="21.0495" y1="9.69602" y2="12.2321"><stop offset="0" stop-color="#f5c8a5"/><stop offset="1" stop-color="#dca189"/></linearGradient><radialGradient id="as" cx="0" cy="0" gradientTransform="matrix(.82663435 -.60191744 .68701092 .94349621 21.1539 10.5227)" gradientUnits="userSpaceOnUse" r="1"><stop offset=".542503" stop-color="#e3ab88"/><stop offset="1" stop-color="#e3ab88" stop-opacity="0"/></radialGradient><radialGradient id="at" cx="0" cy="0" gradientTransform="matrix(.82119299 -1.5104056 .88404601 .48064731 20.7405 11.6086)" gradientUnits="userSpaceOnUse" r="1"><stop offset=".689542" stop-color="#d79a76" stop-opacity="0"/><stop offset="1" stop-color="#d79a76"/></radialGradient><radialGradient id="au" cx="0" cy="0" gradientTransform="matrix(.25926587 .25663394 -.33083738 .33423032 20.7818 10.7874)" gradientUnits="userSpaceOnUse" r="1"><stop offset="0" stop-color="#cb8e6d"/><stop offset="1" stop-color="#cb8e6d" stop-opacity="0"/></radialGradient><linearGradient id="av" gradientUnits="userSpaceOnUse" x1="20.0524" x2="12.4162" y1="11.177" y2="12.3149"><stop offset="0" stop-color="#fac39e"/><stop offset="1" stop-color="#c9917c"/></linearGradient><radialGradient id="aw" cx="0" cy="0" gradientTransform="matrix(0 10.6693 -10.1935 0 16.4876 7.446)" gradientUnits="userSpaceOnUse" r="1"><stop offset=".618379" stop-color="#c88d87" stop-opacity="0"/><stop offset="1" stop-color="#9f6e75"/></radialGradient><linearGradient id="ax" gradientUnits="userSpaceOnUse" x1="10.6214" x2="12.9337" y1="13.8728" y2="13.5712"><stop offset="0" stop-color="#d99e84"/><stop offset="1" stop-color="#d99e84" stop-opacity="0"/></linearGradient><radialGradient id="ay" cx="0" cy="0" gradientTransform="matrix(0 -1.30697 1.60857 0 18.3626 9.5162)" gradientUnits="userSpaceOnUse" r="1"><stop offset="0" stop-color="#e2a18c"/><stop offset="1" stop-color="#e2a18c" stop-opacity="0"/></radialGradient><radialGradient id="az" cx="0" cy="0" gradientTransform="matrix(0 -1.39075 1.72952 0 13.805 9.48269)" gradientUnits="userSpaceOnUse" r="1"><stop offset="0" stop-color="#c2837a"/><stop offset="1" stop-color="#c2837a" stop-opacity="0"/></radialGradient><radialGradient id="aA" cx="0" cy="0" gradientTransform="matrix(-3.43631419 4.42895216 -7.53182594 -5.84375704 19.7087 3.07514)" gradientUnits="userSpaceOnUse" r="1"><stop offset="0" stop-color="#ffffc2"/><stop offset="1" stop-color="#ffffc2" stop-opacity="0"/></radialGradient><linearGradient id="aB" gradientUnits="userSpaceOnUse" x1="11.1562" x2="14.0579" y1="10.5204" y2="5.36599"><stop offset="0" stop-color="#e8ad8e"/><stop offset="1" stop-color="#e8ad8e" stop-opacity="0"/></linearGradient><radialGradient id="aC" cx="0" cy="0" gradientTransform="matrix(-.06681666 -1.86131111 .91413419 -.03281525 11.8243 7.33231)" gradientUnits="userSpaceOnUse" r="1"><stop offset=".227435" stop-color="#eec19c"/><stop offset="1" stop-color="#eec19c" stop-opacity="0"/></radialGradient><radialGradient id="aD" cx="0" cy="0" gradientTransform="matrix(.85906781 -1.96630982 1.60367815 .70063642 20.2432 9.05044)" gradientUnits="userSpaceOnUse" r="1"><stop offset=".478737" stop-color="#e3ab85"/><stop offset="1" stop-color="#e3ab85" stop-opacity="0"/></radialGradient><radialGradient id="aE" cx="0" cy="0" gradientTransform="matrix(.99270266 1.23176044 -1.08755324 .87648292 15.2415 2.18701)" gradientUnits="userSpaceOnUse" r="1"><stop offset="0" stop-color="#fbecaf"/><stop offset="1" stop-color="#fbecaf" stop-opacity="0"/></radialGradient><radialGradient id="aF" cx="0" cy="0" gradientTransform="matrix(.18135793 .78313383 -1.28747767 .29815375 16.7115 2.18701)" gradientUnits="userSpaceOnUse" r="1"><stop offset=".207744" stop-color="#e1d19f"/><stop offset="1" stop-color="#e1d19f" stop-opacity="0"/></radialGradient><radialGradient id="aG" cx="0" cy="0" gradientTransform="matrix(.72543835 .89725295 -2.01040713 1.6254351 11.6716 3.91512)" gradientUnits="userSpaceOnUse" r="1"><stop offset="0" stop-color="#dcc291"/><stop offset="1" stop-color="#dcc291" stop-opacity="0"/></radialGradient><linearGradient id="aH" gradientUnits="userSpaceOnUse" x1="15.1527" x2="16.0908" y1="11.836" y2="11.836"><stop offset="0" stop-color="#cb9173"/><stop offset="1" stop-color="#cb9173" stop-opacity="0"/></linearGradient><linearGradient id="aI" gradientUnits="userSpaceOnUse" x1="16.9552" x2="15.9296" y1="12.1584" y2="12.1438"><stop offset="0" stop-color="#fec8a4"/><stop offset="1" stop-color="#fec8a4" stop-opacity="0"/></linearGradient><linearGradient id="aJ" gradientUnits="userSpaceOnUse" x1="16.2113" x2="16.2113" y1="12.9007" y2="12.3277"><stop offset="0" stop-color="#c98583"/><stop offset="1" stop-color="#c98583" stop-opacity="0"/></linearGradient><linearGradient id="aK" gradientUnits="userSpaceOnUse" x1="16.1425" x2="16.1425" y1="12.9426" y2="12.775"><stop offset="0" stop-color="#c27b77"/><stop offset="1" stop-color="#c27b77" stop-opacity="0"/></linearGradient><linearGradient id="aL" gradientUnits="userSpaceOnUse" x1="14.9798" x2="15.4148" y1="14.516" y2="13.8285"><stop offset="0" stop-color="#d79e8e"/><stop offset=".663171" stop-color="#d79e8e" stop-opacity="0"/></linearGradient><linearGradient id="aM"><stop offset=".75" stop-color="#925c51"/><stop offset="1" stop-color="#694b43"/><stop offset="1" stop-color="#804d49"/><stop offset="1" stop-color="#85534d"/></linearGradient><radialGradient id="aN" cx="0" cy="0" gradientTransform="matrix(0 .903078 -1.06858 0 18.1955 10.4393)" gradientUnits="userSpaceOnUse" r="1" xlink:href="#aM"/><linearGradient id="aO"><stop offset=".765532" stop-color="#ffe6e2" stop-opacity="0"/><stop offset=".966159" stop-color="#ffe6e2"/></linearGradient><radialGradient id="aP" cx="0" cy="0" gradientTransform="matrix(-.2318438 -.298762 .4113242 -.31919376 17.9674 10.1895)" gradientUnits="userSpaceOnUse" r="1" xlink:href="#aO"/><linearGradient id="aQ"><stop offset="0" stop-color="#b4948d"/><stop offset="1" stop-color="#b4948d" stop-opacity="0"/></linearGradient><linearGradient id="aR" gradientUnits="userSpaceOnUse" x1="18.9732" x2="18.6596" xlink:href="#aQ" y1="10.1595" y2="10.3528"/><radialGradient id="aS" cx="0" cy="0" gradientTransform="matrix(0 .903123 -1.06863 0 13.8328 10.4393)" gradientUnits="userSpaceOnUse" r="1" xlink:href="#aM"/><linearGradient id="aT" gradientUnits="userSpaceOnUse" x1="14.5764" x2="14.2628" xlink:href="#aQ" y1="10.1594" y2="10.3527"/><radialGradient id="aU" cx="0" cy="0" gradientTransform="matrix(-.00773335 -.49392646 .59372023 -.00929581 13.5465 10.3247)" gradientUnits="userSpaceOnUse" r="1" xlink:href="#aO"/><linearGradient id="aV"><stop offset="0" stop-color="#a57146"/><stop offset="1" stop-color="#a57146" stop-opacity="0"/></linearGradient><linearGradient id="aW" gradientUnits="userSpaceOnUse" x1="18.9889" x2="18.5688" xlink:href="#aV" y1="8.02015" y2="7.16158"/><linearGradient id="aX" gradientUnits="userSpaceOnUse" x1="13.6847" x2="12.4956" xlink:href="#aV" y1="7.89241" y2="7.39372"/><path d="m16.0115 15.4795c-2.74 0-5.3 1.06-7.20999 2.84v11.75h14.37999v-11.78c-1.91-1.77-4.45-2.81-7.17-2.81z" fill="url(#w)"/><path d="m16.0115 15.4795c-2.74 0-5.3 1.06-7.20999 2.84v11.75h14.37999v-11.78c-1.91-1.77-4.45-2.81-7.17-2.81z" fill="url(#x)"/><path d="m16.0115 15.4795c-2.74 0-5.3 1.06-7.20999 2.84v11.75h14.37999v-11.78c-1.91-1.77-4.45-2.81-7.17-2.81z" fill="url(#y)"/><path d="m16.0115 15.4795c-2.74 0-5.3 1.06-7.20999 2.84v11.75h14.37999v-11.78c-1.91-1.77-4.45-2.81-7.17-2.81z" fill="url(#A)"/><path d="m16.0115 15.4795c-2.74 0-5.3 1.06-7.20999 2.84v11.75h14.37999v-11.78c-1.91-1.77-4.45-2.81-7.17-2.81z" fill="url(#B)"/><path d="m16.0115 15.4795c-2.74 0-5.3 1.06-7.20999 2.84v11.75h14.37999v-11.78c-1.91-1.77-4.45-2.81-7.17-2.81z" fill="url(#C)"/><path d="m16.0115 15.4795c-2.74 0-5.3 1.06-7.20999 2.84v11.75h14.37999v-11.78c-1.91-1.77-4.45-2.81-7.17-2.81z" fill="url(#D)"/><path d="m16.3805 15.4795c.25.01.51.03.77.05-.26-.02-.51-.04-.77-.05z" fill="url(#F)"/><path d="m16.0505 15.4795c-.01 0-.02 0-.04 0 .1 0 .19 0 .29.01-.08-.01-.17-.01-.25-.01z" fill="url(#G)"/><path d="m5.95153 22.8398-.03.08c-.52 1.65-.79 3.36-.79 5.09v2.06h3.67v-11.75c-1.29 1.21-2.29 2.75-2.85 4.52z" fill="url(#H)"/><path d="m5.95153 22.8398-.03.08c-.52 1.65-.79 3.36-.79 5.09v2.06h3.67v-11.75c-1.29 1.21-2.29 2.75-2.85 4.52z" fill="url(#I)"/><path d="m5.95153 22.8398-.03.08c-.52 1.65-.79 3.36-.79 5.09v2.06h3.67v-11.75c-1.29 1.21-2.29 2.75-2.85 4.52z" fill="url(#J)"/><path d="m26.8515 28.0396c.01-1.75-.25-3.49-.77-5.16-.56-1.8-1.58-3.37-2.9-4.59v11.78h3.65z" fill="url(#K)"/><path d="m26.8515 28.0396c.01-1.75-.25-3.49-.77-5.16-.56-1.8-1.58-3.37-2.9-4.59v11.78h3.65z" fill="url(#L)"/><path d="m26.8515 28.0396c.01-1.75-.25-3.49-.77-5.16-.56-1.8-1.58-3.37-2.9-4.59v11.78h3.65z" fill="url(#M)"/><path d="m16.5182 22.5837c0-.04-.01-.2031 0-.2431l2.6624-6.2911c.01-.03.03-.06.04-.08-1.01-.32-2.08-.49-3.18-.49-1.11 0-2.19.18-3.21.5.01.02.03.05.04.07l2.6398 6.3614c.01.03.0547.0498.0547.0898l.0555 3.5988h.01v3.97h.79v-3.97l.0781-3.4152z" fill="url(#N)"/><path d="m16.5182 22.5837c0-.04-.01-.2031 0-.2431l2.6624-6.2911c.01-.03.03-.06.04-.08-1.01-.32-2.08-.49-3.18-.49-1.11 0-2.19.18-3.21.5.01.02.03.05.04.07l2.6398 6.3614c.01.03.0547.0498.0547.0898l.0555 3.5988h.01v3.97h.79v-3.97l.0781-3.4152z" fill="url(#O)"/><path d="m16.3805 15.4795c.25.01.51.03.77.05-.26-.02-.51-.04-.77-.05z" fill="url(#F)"/><path d="m16.0505 15.4795c-.01 0-.02 0-.04 0 .1 0 .19 0 .29.01-.08-.01-.17-.01-.25-.01z" fill="url(#G)"/><g filter="url(#a)"><path d="m10.2321 20.2241.7324.1298c.1669.0278.2318.2318.1206.3523l-.7047.7696c-.0742.0834-.0742.2132.0093.2967l4.5061 4.5988c.1113.1113.306.0371.306-.1205v-3.3286c0-.0371-.0093-.0649-.0186-.102l-2.5405-5.8876c-.0092-.0278-.0185-.0464-.037-.0649-.8438.2689-1.6412.649-2.3644 1.1219l-.1854 2.0027c-.0093.1113.0649.2132.1762.2318z" fill="#a49ea5"/></g><g filter="url(#b)"><path d="m21.9189 20.2241-.7325.1298c-.1669.0278-.2318.2318-.1205.3523l.7046.7696c.0742.0834.0742.2132-.0092.2967l-4.5062 4.5988c-.1112.1113-.3059.0371-.3059-.1205v-3.3286c0-.0371.0092-.0649.0185-.102l2.5405-5.8876c.0093-.0278.0185-.0464.0371-.0649.8437.2689 1.6411.649 2.3643 1.1219l.1854 2.0027c.0093.1113-.0649.2132-.1761.2318z" fill="url(#P)"/></g><path d="m16.6749 21.7609c-.2622.5156-.2622.9414-.2622 1.3056v2.9912c0 .17.2082.26.3272.13l4.8179-4.96c.0893-.09.0893-.23.0099-.32l-.7534-.83c-.1189-.13-.0496-.35.1289-.38l.7832-.14c.1189-.02.1982-.13.1883-.25l-.1873-2.0593c-.0069-.0762-.0483-.1452-.1129-.1862-.7542-.4789-1.5629-.857-2.426-1.1345-.0198.03-.0297.05-.0397.08z" fill="url(#Q)"/><path d="m16.6749 21.7609c-.2622.5156-.2622.9414-.2622 1.3056v2.9912c0 .17.2082.26.3272.13l4.8179-4.96c.0893-.09.0893-.23.0099-.32l-.7534-.83c-.1189-.13-.0496-.35.1289-.38l.7832-.14c.1189-.02.1982-.13.1883-.25l-.1873-2.0593c-.0069-.0762-.0483-.1452-.1129-.1862-.7542-.4789-1.5629-.857-2.426-1.1345-.0198.03-.0297.05-.0397.08z" fill="url(#R)"/><path d="m16.6749 21.7609c-.2622.5156-.2622.9414-.2622 1.3056v2.9912c0 .17.2082.26.3272.13l4.8179-4.96c.0893-.09.0893-.23.0099-.32l-.7534-.83c-.1189-.13-.0496-.35.1289-.38l.7832-.14c.1189-.02.1982-.13.1883-.25l-.1873-2.0593c-.0069-.0762-.0483-.1452-.1129-.1862-.7542-.4789-1.5629-.857-2.426-1.1345-.0198.03-.0297.05-.0397.08z" fill="url(#S)"/><path d="m16.6749 21.7609c-.2622.5156-.2622.9414-.2622 1.3056v2.9912c0 .17.2082.26.3272.13l4.8179-4.96c.0893-.09.0893-.23.0099-.32l-.7534-.83c-.1189-.13-.0496-.35.1289-.38l.7832-.14c.1189-.02.1982-.13.1883-.25l-.1873-2.0593c-.0069-.0762-.0483-.1452-.1129-.1862-.7542-.4789-1.5629-.857-2.426-1.1345-.0198.03-.0297.05-.0397.08z" fill="url(#T)"/><path d="m16.6749 21.7609c-.2622.5156-.2622.9414-.2622 1.3056v2.9912c0 .17.2082.26.3272.13l4.8179-4.96c.0893-.09.0893-.23.0099-.32l-.7534-.83c-.1189-.13-.0496-.35.1289-.38l.7832-.14c.1189-.02.1982-.13.1883-.25l-.1873-2.0593c-.0069-.0762-.0483-.1452-.1129-.1862-.7542-.4789-1.5629-.857-2.426-1.1345-.0198.03-.0297.05-.0397.08z" fill="url(#U)"/><path d="m16.6749 21.7609c-.2622.5156-.2622.9414-.2622 1.3056v2.9912c0 .17.2082.26.3272.13l4.8179-4.96c.0893-.09.0893-.23.0099-.32l-.7534-.83c-.1189-.13-.0496-.35.1289-.38l.7832-.14c.1189-.02.1982-.13.1883-.25l-.1873-2.0593c-.0069-.0762-.0483-.1452-.1129-.1862-.7542-.4789-1.5629-.857-2.426-1.1345-.0198.03-.0297.05-.0397.08z" fill="url(#V)"/><path d="m15.3959 21.7609c.2622.5156.2622.9414.2622 1.3056v2.9912c0 .17-.2082.26-.3272.13l-4.8179-4.96c-.0893-.09-.0893-.23-.0099-.32l.7534-.83c.1189-.13.0496-.35-.1289-.38l-.7832-.14c-.1189-.02-.1982-.13-.1883-.25l.1873-2.0593c.0069-.0762.0483-.1452.1129-.1862.7542-.4789 1.5629-.857 2.426-1.1345.0198.03.0297.05.0397.08z" fill="url(#W)"/><path d="m15.3959 21.7609c.2622.5156.2622.9414.2622 1.3056v2.9912c0 .17-.2082.26-.3272.13l-4.8179-4.96c-.0893-.09-.0893-.23-.0099-.32l.7534-.83c.1189-.13.0496-.35-.1289-.38l-.7832-.14c-.1189-.02-.1982-.13-.1883-.25l.1873-2.0593c.0069-.0762.0483-.1452.1129-.1862.7542-.4789 1.5629-.857 2.426-1.1345.0198.03.0297.05.0397.08z" fill="url(#X)"/><path d="m15.3959 21.7609c.2622.5156.2622.9414.2622 1.3056v2.9912c0 .17-.2082.26-.3272.13l-4.8179-4.96c-.0893-.09-.0893-.23-.0099-.32l.7534-.83c.1189-.13.0496-.35-.1289-.38l-.7832-.14c-.1189-.02-.1982-.13-.1883-.25l.1873-2.0593c.0069-.0762.0483-.1452.1129-.1862.7542-.4789 1.5629-.857 2.426-1.1345.0198.03.0297.05.0397.08z" fill="url(#Y)"/><path d="m15.3959 21.7609c.2622.5156.2622.9414.2622 1.3056v2.9912c0 .17-.2082.26-.3272.13l-4.8179-4.96c-.0893-.09-.0893-.23-.0099-.32l.7534-.83c.1189-.13.0496-.35-.1289-.38l-.7832-.14c-.1189-.02-.1982-.13-.1883-.25l.1873-2.0593c.0069-.0762.0483-.1452.1129-.1862.7542-.4789 1.5629-.857 2.426-1.1345.0198.03.0297.05.0397.08z" fill="url(#Z)"/><path d="m15.3959 21.7609c.2622.5156.2622.9414.2622 1.3056v2.9912c0 .17-.2082.26-.3272.13l-4.8179-4.96c-.0893-.09-.0893-.23-.0099-.32l.7534-.83c.1189-.13.0496-.35-.1289-.38l-.7832-.14c-.1189-.02-.1982-.13-.1883-.25l.1873-2.0593c.0069-.0762.0483-.1452.1129-.1862.7542-.4789 1.5629-.857 2.426-1.1345.0198.03.0297.05.0397.08z" fill="url(#aa)"/><path d="m15.3959 21.7609c.2622.5156.2622.9414.2622 1.3056v2.9912c0 .17-.2082.26-.3272.13l-4.8179-4.96c-.0893-.09-.0893-.23-.0099-.32l.7534-.83c.1189-.13.0496-.35-.1289-.38l-.7832-.14c-.1189-.02-.1982-.13-.1883-.25l.1873-2.0593c.0069-.0762.0483-.1452.1129-.1862.7542-.4789 1.5629-.857 2.426-1.1345.0198.03.0297.05.0397.08z" fill="url(#ab)"/><path d="m16.0105 18.7896c-1.16 0-2.1-.94-2.1-2.1v-1.38h4.2v1.38c0 1.16-.94 2.1-2.1 2.1z" fill="url(#ac)"/><g clip-rule="evenodd" fill-rule="evenodd"><path d="m15.9605 15.1902c-1.789 0-3.2394 1.4503-3.2394 3.2394v2.15h-.9812v-2.15c0-2.331 1.8897-4.2206 4.2206-4.2206 2.331 0 4.2206 1.8896 4.2206 4.2206v7.12h-.9812v-7.12c0-1.7891-1.4503-3.2394-3.2394-3.2394z" fill="#5a4b7e"/><path d="m15.9605 15.1902c-1.789 0-3.2394 1.4503-3.2394 3.2394v2.15h-.9812v-2.15c0-2.331 1.8897-4.2206 4.2206-4.2206 2.331 0 4.2206 1.8896 4.2206 4.2206v7.12h-.9812v-7.12c0-1.7891-1.4503-3.2394-3.2394-3.2394z" fill="url(#ad)"/><path d="m15.9605 15.1902c-1.789 0-3.2394 1.4503-3.2394 3.2394v2.15h-.9812v-2.15c0-2.331 1.8897-4.2206 4.2206-4.2206 2.331 0 4.2206 1.8896 4.2206 4.2206v7.12h-.9812v-7.12c0-1.7891-1.4503-3.2394-3.2394-3.2394z" fill="url(#ae)"/><path d="m15.9605 15.1902c-1.789 0-3.2394 1.4503-3.2394 3.2394v2.15h-.9812v-2.15c0-2.331 1.8897-4.2206 4.2206-4.2206 2.331 0 4.2206 1.8896 4.2206 4.2206v7.12h-.9812v-7.12c0-1.7891-1.4503-3.2394-3.2394-3.2394z" fill="url(#af)"/><path d="m15.9605 15.1902c-1.789 0-3.2394 1.4503-3.2394 3.2394v2.15h-.9812v-2.15c0-2.331 1.8897-4.2206 4.2206-4.2206 2.331 0 4.2206 1.8896 4.2206 4.2206v7.12h-.9812v-7.12c0-1.7891-1.4503-3.2394-3.2394-3.2394z" fill="url(#ag)"/></g><g filter="url(#c)"><path d="m18.8699 27.0284c.6072 0 1.0994-.4923 1.0994-1.0994 0-.6072-.4922-1.0994-1.0994-1.0994s-1.0994.4922-1.0994 1.0994c0 .6071.4922 1.0994 1.0994 1.0994z" fill="#afa3c5"/></g><path d="m19.7006 26.7998c.6958 0 1.26-.5641 1.26-1.26s-.5642-1.26-1.26-1.26c-.6959 0-1.26.5641-1.26 1.26s.5641 1.26 1.26 1.26z" fill="url(#ah)"/><g filter="url(#d)"><path d="m19.7005 26.2496c.3921 0 .71-.3179.71-.71s-.3179-.71-.71-.71-.71.3179-.71.71.3179.71.71.71z" fill="url(#ai)"/></g><g filter="url(#e)"><path clip-rule="evenodd" d="m12.2305 20.9304c-.9405 0-1.7094.7618-1.7094 1.7094v3.2994h.6694c.271 0 .4906.2197.4906.4906 0 .271-.2196.4906-.4906.4906h-1c-.36093 0-.65058-.2896-.65058-.6506v-3.63c0-1.4924 1.21108-2.6906 2.69058-2.6906 1.4924 0 2.6906 1.2111 2.6906 2.6906v3.63c0 .361-.2896.6506-.6506.6506h-.93c-.2709 0-.4906-.2196-.4906-.4906 0-.2709.2197-.4906.4906-.4906h.5994v-3.2994c0-.9405-.7618-1.7094-1.7094-1.7094z" fill="url(#aj)" fill-rule="evenodd"/></g><g filter="url(#f)"><path d="m11.216 26.363h-1c-.09 0-.16-.07-.16-.16v-3.63c0-1.22.99-2.2 2.2-2.2 1.22 0 2.2.99 2.2 2.2v3.63c0 .09-.07.16-.16.16h-.93" stroke="#6a5d85" stroke-linecap="round" stroke-linejoin="round" stroke-miterlimit="10" stroke-width=".3"/></g><path clip-rule="evenodd" d="m9.53992 26.2596v-2.47h.98118v2.1394h.2494v.9812h-.58c-.36093 0-.65058-.2897-.65058-.6506z" fill="url(#al)" fill-rule="evenodd"/><path clip-rule="evenodd" d="m9.53992 26.2596v-2.47h.98118v2.1394h.2494v.9812h-.58c-.36093 0-.65058-.2897-.65058-.6506z" fill="url(#am)" fill-rule="evenodd"/><path clip-rule="evenodd" d="m14.9212 23.7998v2.47c0 .361-.2897.6506-.6506.6506h-.58v-.9812h.2494v-2.1394z" fill="url(#an)" fill-rule="evenodd"/><path clip-rule="evenodd" d="m14.9212 23.7998v2.47c0 .361-.2897.6506-.6506.6506h-.58v-.9812h.2494v-2.1394z" fill="url(#ao)" fill-rule="evenodd"/><g filter="url(#g)"><circle cx="11.2693" cy="10.7875" fill="url(#ap)" r="1.66932"/></g><g filter="url(#h)"><circle cx="11.2693" cy="10.7874" fill="url(#aq)" r=".994887"/></g><g filter="url(#i)"><circle cx="20.7818" cy="10.7875" fill="url(#ar)" r="1.66932"/><circle cx="20.7818" cy="10.7875" fill="url(#as)" r="1.66932"/></g><g filter="url(#j)"><circle cx="20.7818" cy="10.7874" fill="#d79e81" r=".994887"/><circle cx="20.7818" cy="10.7874" fill="url(#at)" r=".994887"/><circle cx="20.7818" cy="10.7874" fill="url(#au)" r=".994887"/></g><g filter="url(#k)"><path d="m10.9174 10.1749c.0162.0011.0326.0016.0491.0016 0 0-.0537-.85323-.1073-1.43985 0-.26665.1073-.58663.3218-.74662l.1609-.15998c.2682-.21332.3755-.5333.3755-.85327v-.85328c0-.26664.1609-.47996.429-.53329.6436-.15999 1.9845-.42664 3.9154-.42664 1.9308 0 3.2717.26665 3.9153.42664.2146.05333.4291.26665.4291.53329v.85328c0 .31997.1609.63995.3755.85327.502.35179.4707.54528.429.95993-.0536.53329-.1072 1.43992-.1072 1.43992.006 0 .0121-.0001.0181-.0003l-.2659 3.9582c-.1605 1.7694-1.5515 3.0026-3.2101 3.0026h-3.2101c-1.712 0-3.0496-1.2332-3.2101-3.0026z" fill="url(#av)"/><path d="m10.9174 10.1749c.0162.0011.0326.0016.0491.0016 0 0-.0537-.85323-.1073-1.43985 0-.26665.1073-.58663.3218-.74662l.1609-.15998c.2682-.21332.3755-.5333.3755-.85327v-.85328c0-.26664.1609-.47996.429-.53329.6436-.15999 1.9845-.42664 3.9154-.42664 1.9308 0 3.2717.26665 3.9153.42664.2146.05333.4291.26665.4291.53329v.85328c0 .31997.1609.63995.3755.85327.502.35179.4707.54528.429.95993-.0536.53329-.1072 1.43992-.1072 1.43992.006 0 .0121-.0001.0181-.0003l-.2659 3.9582c-.1605 1.7694-1.5515 3.0026-3.2101 3.0026h-3.2101c-1.712 0-3.0496-1.2332-3.2101-3.0026z" fill="url(#aw)"/><path d="m10.9174 10.1749c.0162.0011.0326.0016.0491.0016 0 0-.0537-.85323-.1073-1.43985 0-.26665.1073-.58663.3218-.74662l.1609-.15998c.2682-.21332.3755-.5333.3755-.85327v-.85328c0-.26664.1609-.47996.429-.53329.6436-.15999 1.9845-.42664 3.9154-.42664 1.9308 0 3.2717.26665 3.9153.42664.2146.05333.4291.26665.4291.53329v.85328c0 .31997.1609.63995.3755.85327.502.35179.4707.54528.429.95993-.0536.53329-.1072 1.43992-.1072 1.43992.006 0 .0121-.0001.0181-.0003l-.2659 3.9582c-.1605 1.7694-1.5515 3.0026-3.2101 3.0026h-3.2101c-1.712 0-3.0496-1.2332-3.2101-3.0026z" fill="url(#ax)"/><path d="m10.9174 10.1749c.0162.0011.0326.0016.0491.0016 0 0-.0537-.85323-.1073-1.43985 0-.26665.1073-.58663.3218-.74662l.1609-.15998c.2682-.21332.3755-.5333.3755-.85327v-.85328c0-.26664.1609-.47996.429-.53329.6436-.15999 1.9845-.42664 3.9154-.42664 1.9308 0 3.2717.26665 3.9153.42664.2146.05333.4291.26665.4291.53329v.85328c0 .31997.1609.63995.3755.85327.502.35179.4707.54528.429.95993-.0536.53329-.1072 1.43992-.1072 1.43992.006 0 .0121-.0001.0181-.0003l-.2659 3.9582c-.1605 1.7694-1.5515 3.0026-3.2101 3.0026h-3.2101c-1.712 0-3.0496-1.2332-3.2101-3.0026z" fill="url(#ay)"/><path d="m10.9174 10.1749c.0162.0011.0326.0016.0491.0016 0 0-.0537-.85323-.1073-1.43985 0-.26665.1073-.58663.3218-.74662l.1609-.15998c.2682-.21332.3755-.5333.3755-.85327v-.85328c0-.26664.1609-.47996.429-.53329.6436-.15999 1.9845-.42664 3.9154-.42664 1.9308 0 3.2717.26665 3.9153.42664.2146.05333.4291.26665.4291.53329v.85328c0 .31997.1609.63995.3755.85327.502.35179.4707.54528.429.95993-.0536.53329-.1072 1.43992-.1072 1.43992.006 0 .0121-.0001.0181-.0003l-.2659 3.9582c-.1605 1.7694-1.5515 3.0026-3.2101 3.0026h-3.2101c-1.712 0-3.0496-1.2332-3.2101-3.0026z" fill="url(#az)"/></g><g filter="url(#l)"><path d="m20.8352 4.31032.4291.21332c.7509.37331 1.18 1.22658 1.0191 2.13318l-.59 3.03977c-.0526.31391-.2601.52521-.5719.53311-.006.0001-.012.0002-.0181.0002 0 0 .0536-.90664.1073-1.43994.0435-.43306-.0321-.56516-.4291-.95993-.2145-.21331-.3754-.53329-.3754-.85327v-.85327c0-.26664-.2146-.47996-.4291-.53329-.6436-.15999-1.9845-.42664-3.9154-.42664-1.9308 0-3.2717.26665-3.9153.42664-.2682.05333-.4291.26665-.4291.53329v.85327c0 .31998-.1073.63996-.3754.85327l-.161.15999c-.2145.15999-.3218.47997-.3218.74662.0537.58662.1073 1.43986.1073 1.43986-.0165 0-.0328-.0005-.049-.0016-.2997-.0205-.5437-.22806-.5946-.53164l-.59-3.03977c-.10727-.85327.3218-1.70654 1.0727-2.07985l.4291-.21332c.2682-.15999.5363-.3733.8045-.58662l.9654-1.01326c.59-.5333 1.4482-.69328 2.1991-.31998.5363.15999 1.1263.15999 1.6626 0 .8046-.26665 1.7164-.05333 2.36.5333l.8045.79994c.2145.26664.4827.42663.8045.58662z" fill="#ebcc94"/><path d="m20.8352 4.31032.4291.21332c.7509.37331 1.18 1.22658 1.0191 2.13318l-.59 3.03977c-.0526.31391-.2601.52521-.5719.53311-.006.0001-.012.0002-.0181.0002 0 0 .0536-.90664.1073-1.43994.0435-.43306-.0321-.56516-.4291-.95993-.2145-.21331-.3754-.53329-.3754-.85327v-.85327c0-.26664-.2146-.47996-.4291-.53329-.6436-.15999-1.9845-.42664-3.9154-.42664-1.9308 0-3.2717.26665-3.9153.42664-.2682.05333-.4291.26665-.4291.53329v.85327c0 .31998-.1073.63996-.3754.85327l-.161.15999c-.2145.15999-.3218.47997-.3218.74662.0537.58662.1073 1.43986.1073 1.43986-.0165 0-.0328-.0005-.049-.0016-.2997-.0205-.5437-.22806-.5946-.53164l-.59-3.03977c-.10727-.85327.3218-1.70654 1.0727-2.07985l.4291-.21332c.2682-.15999.5363-.3733.8045-.58662l.9654-1.01326c.59-.5333 1.4482-.69328 2.1991-.31998.5363.15999 1.1263.15999 1.6626 0 .8046-.26665 1.7164-.05333 2.36.5333l.8045.79994c.2145.26664.4827.42663.8045.58662z" fill="url(#aA)"/><path d="m20.8352 4.31032.4291.21332c.7509.37331 1.18 1.22658 1.0191 2.13318l-.59 3.03977c-.0526.31391-.2601.52521-.5719.53311-.006.0001-.012.0002-.0181.0002 0 0 .0536-.90664.1073-1.43994.0435-.43306-.0321-.56516-.4291-.95993-.2145-.21331-.3754-.53329-.3754-.85327v-.85327c0-.26664-.2146-.47996-.4291-.53329-.6436-.15999-1.9845-.42664-3.9154-.42664-1.9308 0-3.2717.26665-3.9153.42664-.2682.05333-.4291.26665-.4291.53329v.85327c0 .31998-.1073.63996-.3754.85327l-.161.15999c-.2145.15999-.3218.47997-.3218.74662.0537.58662.1073 1.43986.1073 1.43986-.0165 0-.0328-.0005-.049-.0016-.2997-.0205-.5437-.22806-.5946-.53164l-.59-3.03977c-.10727-.85327.3218-1.70654 1.0727-2.07985l.4291-.21332c.2682-.15999.5363-.3733.8045-.58662l.9654-1.01326c.59-.5333 1.4482-.69328 2.1991-.31998.5363.15999 1.1263.15999 1.6626 0 .8046-.26665 1.7164-.05333 2.36.5333l.8045.79994c.2145.26664.4827.42663.8045.58662z" fill="url(#aB)"/><path d="m20.8352 4.31032.4291.21332c.7509.37331 1.18 1.22658 1.0191 2.13318l-.59 3.03977c-.0526.31391-.2601.52521-.5719.53311-.006.0001-.012.0002-.0181.0002 0 0 .0536-.90664.1073-1.43994.0435-.43306-.0321-.56516-.4291-.95993-.2145-.21331-.3754-.53329-.3754-.85327v-.85327c0-.26664-.2146-.47996-.4291-.53329-.6436-.15999-1.9845-.42664-3.9154-.42664-1.9308 0-3.2717.26665-3.9153.42664-.2682.05333-.4291.26665-.4291.53329v.85327c0 .31998-.1073.63996-.3754.85327l-.161.15999c-.2145.15999-.3218.47997-.3218.74662.0537.58662.1073 1.43986.1073 1.43986-.0165 0-.0328-.0005-.049-.0016-.2997-.0205-.5437-.22806-.5946-.53164l-.59-3.03977c-.10727-.85327.3218-1.70654 1.0727-2.07985l.4291-.21332c.2682-.15999.5363-.3733.8045-.58662l.9654-1.01326c.59-.5333 1.4482-.69328 2.1991-.31998.5363.15999 1.1263.15999 1.6626 0 .8046-.26665 1.7164-.05333 2.36.5333l.8045.79994c.2145.26664.4827.42663.8045.58662z" fill="url(#aC)"/><path d="m20.8352 4.31032.4291.21332c.7509.37331 1.18 1.22658 1.0191 2.13318l-.59 3.03977c-.0526.31391-.2601.52521-.5719.53311-.006.0001-.012.0002-.0181.0002 0 0 .0536-.90664.1073-1.43994.0435-.43306-.0321-.56516-.4291-.95993-.2145-.21331-.3754-.53329-.3754-.85327v-.85327c0-.26664-.2146-.47996-.4291-.53329-.6436-.15999-1.9845-.42664-3.9154-.42664-1.9308 0-3.2717.26665-3.9153.42664-.2682.05333-.4291.26665-.4291.53329v.85327c0 .31998-.1073.63996-.3754.85327l-.161.15999c-.2145.15999-.3218.47997-.3218.74662.0537.58662.1073 1.43986.1073 1.43986-.0165 0-.0328-.0005-.049-.0016-.2997-.0205-.5437-.22806-.5946-.53164l-.59-3.03977c-.10727-.85327.3218-1.70654 1.0727-2.07985l.4291-.21332c.2682-.15999.5363-.3733.8045-.58662l.9654-1.01326c.59-.5333 1.4482-.69328 2.1991-.31998.5363.15999 1.1263.15999 1.6626 0 .8046-.26665 1.7164-.05333 2.36.5333l.8045.79994c.2145.26664.4827.42663.8045.58662z" fill="url(#aD)"/><path d="m20.8352 4.31032.4291.21332c.7509.37331 1.18 1.22658 1.0191 2.13318l-.59 3.03977c-.0526.31391-.2601.52521-.5719.53311-.006.0001-.012.0002-.0181.0002 0 0 .0536-.90664.1073-1.43994.0435-.43306-.0321-.56516-.4291-.95993-.2145-.21331-.3754-.53329-.3754-.85327v-.85327c0-.26664-.2146-.47996-.4291-.53329-.6436-.15999-1.9845-.42664-3.9154-.42664-1.9308 0-3.2717.26665-3.9153.42664-.2682.05333-.4291.26665-.4291.53329v.85327c0 .31998-.1073.63996-.3754.85327l-.161.15999c-.2145.15999-.3218.47997-.3218.74662.0537.58662.1073 1.43986.1073 1.43986-.0165 0-.0328-.0005-.049-.0016-.2997-.0205-.5437-.22806-.5946-.53164l-.59-3.03977c-.10727-.85327.3218-1.70654 1.0727-2.07985l.4291-.21332c.2682-.15999.5363-.3733.8045-.58662l.9654-1.01326c.59-.5333 1.4482-.69328 2.1991-.31998.5363.15999 1.1263.15999 1.6626 0 .8046-.26665 1.7164-.05333 2.36.5333l.8045.79994c.2145.26664.4827.42663.8045.58662z" fill="url(#aE)"/></g><path d="m20.8352 4.31032.4291.21332c.7509.37331 1.18 1.22658 1.0191 2.13318l-.59 3.03977c-.0526.31391-.2601.52521-.5719.53311-.006.0001-.012.0002-.0181.0002 0 0 .0536-.90664.1073-1.43994.0435-.43306-.0321-.56516-.4291-.95993-.2145-.21331-.3754-.53329-.3754-.85327v-.85327c0-.26664-.2146-.47996-.4291-.53329-.6436-.15999-1.9845-.42664-3.9154-.42664-1.9308 0-3.2717.26665-3.9153.42664-.2682.05333-.4291.26665-.4291.53329v.85327c0 .31998-.1073.63996-.3754.85327l-.161.15999c-.2145.15999-.3218.47997-.3218.74662.0537.58662.1073 1.43986.1073 1.43986-.0165 0-.0328-.0005-.049-.0016-.2997-.0205-.5437-.22806-.5946-.53164l-.59-3.03977c-.10727-.85327.3218-1.70654 1.0727-2.07985l.4291-.21332c.2682-.15999.5363-.3733.8045-.58662l.9654-1.01326c.59-.5333 1.4482-.69328 2.1991-.31998.5363.15999 1.1263.15999 1.6626 0 .8046-.26665 1.7164-.05333 2.36.5333l.8045.79994c.2145.26664.4827.42663.8045.58662z" fill="url(#aF)"/><path d="m20.8352 4.31032.4291.21332c.7509.37331 1.18 1.22658 1.0191 2.13318l-.59 3.03977c-.0526.31391-.2601.52521-.5719.53311-.006.0001-.012.0002-.0181.0002 0 0 .0536-.90664.1073-1.43994.0435-.43306-.0321-.56516-.4291-.95993-.2145-.21331-.3754-.53329-.3754-.85327v-.85327c0-.26664-.2146-.47996-.4291-.53329-.6436-.15999-1.9845-.42664-3.9154-.42664-1.9308 0-3.2717.26665-3.9153.42664-.2682.05333-.4291.26665-.4291.53329v.85327c0 .31998-.1073.63996-.3754.85327l-.161.15999c-.2145.15999-.3218.47997-.3218.74662.0537.58662.1073 1.43986.1073 1.43986-.0165 0-.0328-.0005-.049-.0016-.2997-.0205-.5437-.22806-.5946-.53164l-.59-3.03977c-.10727-.85327.3218-1.70654 1.0727-2.07985l.4291-.21332c.2682-.15999.5363-.3733.8045-.58662l.9654-1.01326c.59-.5333 1.4482-.69328 2.1991-.31998.5363.15999 1.1263.15999 1.6626 0 .8046-.26665 1.7164-.05333 2.36.5333l.8045.79994c.2145.26664.4827.42663.8045.58662z" fill="url(#aG)"/><g filter="url(#m)"><path d="m15.7415 10.6652-.8203 1.6994c-.1017.3496.1424.6992.4881.6992h.7371c.3457 0 .5898-.355.4881-.6992l-.4982-1.6994c-.1068-.3765-.283-.3765-.3948 0z" fill="#c68378"/></g><g filter="url(#n)"><path d="m15.6346 10.5021-.5313 1.6994c-.1084.3496.1518.6992.5205.6992h.7861c.3686 0 .6289-.355.5204-.6992l-.5313-1.6994c-.1138-.3765-.6451-.3765-.7644 0z" fill="#e4ac8f"/><path d="m15.6346 10.5021-.5313 1.6994c-.1084.3496.1518.6992.5205.6992h.7861c.3686 0 .6289-.355.5204-.6992l-.5313-1.6994c-.1138-.3765-.6451-.3765-.7644 0z" fill="url(#aH)"/><path d="m15.6346 10.5021-.5313 1.6994c-.1084.3496.1518.6992.5205.6992h.7861c.3686 0 .6289-.355.5204-.6992l-.5313-1.6994c-.1138-.3765-.6451-.3765-.7644 0z" fill="url(#aI)"/><path d="m15.6346 10.5021-.5313 1.6994c-.1084.3496.1518.6992.5205.6992h.7861c.3686 0 .6289-.355.5204-.6992l-.5313-1.6994c-.1138-.3765-.6451-.3765-.7644 0z" fill="url(#aJ)"/></g><path d="m15.6346 10.5021-.5313 1.6994c-.1084.3496.1518.6992.5205.6992h.7861c.3686 0 .6289-.355.5204-.6992l-.5313-1.6994c-.1138-.3765-.6451-.3765-.7644 0z" fill="url(#aK)"/><path d="m14.6549 13.5447c.3934.2051.8623.3227 1.3619.3227.5046 0 .9684-.1176 1.3619-.3227l.0004-.0002c.0901-.0458.1845-.0193.2413.0397.0575.0596.0785.155.0209.2414m-2.9864-.2809 2.9447.2533m-2.9447-.2533-.0005-.0002c-.0907-.0462-.1852-.0175-.2415.0418-.0565.0595-.0788.155-.0204.2397m.2624-.2813-.221.2533m3.2074.0276s0 .0001-.0001.0001l-.0416-.0277m.0417.0276s0-.0001.0001-.0001l-.0418-.0275m.0417.0276c-.3438.521-.9427.8681-1.6245.8681-.6817 0-1.2804-.347-1.6243-.8677m3.2071-.028c-.3348.5074-.9182.8457-1.5828.8457s-1.248-.3383-1.5829-.8457m-.0414.028c.0001.0001.0002.0003.0003.0005l.0411-.0285m-.0414.028c-.0001-.0002-.0002-.0003-.0003-.0005l.0417-.0275" fill="#88024e" stroke="url(#aL)" stroke-width=".1"/><g filter="url(#o)"><path d="m19.736 8.0679-.0012-.00102-.0019-.00154-.0045-.00365-.0119-.00954c-.0094-.00731-.0214-.01648-.036-.02719-.0292-.02139-.069-.04905-.1189-.08031-.0996-.06236-.2409-.14005-.4197-.21074-.359-.14191-.8715-.25624-1.4926-.15819-.2911.04597-.4898.31923-.4438.61034.0459.29112.3192.48986.6103.44389.3978-.0628.7163.01053.9337.0965.1094.04326.1926.08956.2455.1227.0264.0165.0448.02947.0548.03677.0041.00304.0067.00507.0079.00593.2263.18454.5596.15286.747-.07205.1887-.22641.1577-.56323-.0687-.7519z" fill="#9a6634"/></g><g filter="url(#p)"><path d="m12.2435 8.06821.0008-.00064.0009-.00069.0018-.00154.0045-.00365.012-.00954c.0093-.00731.0213-.01648.0359-.02719.0292-.02139.069-.04905.1189-.08031.0996-.06236.2409-.14005.4197-.21074.359-.14191.8716-.25624 1.4926-.15819.2911.04597.4898.31923.4439.61034-.046.29112-.3192.48986-.6104.44389-.3977-.0628-.7162.01053-.9337.0965-.1094.04326-.1926.08956-.2455.1227-.0263.0165-.0447.02948-.0547.03677-.0042.00304-.0068.00507-.0079.00593-.2264.18454-.5597.15286-.7471-.07205-.1887-.22641-.1581-.56291.0683-.75159z" fill="#9a6634"/></g><path d="m18.4044 9.35693c.6529 0 1.2044.45014 1.3544 1.05847.0447.1743-.0892.3406-.2676.3406h-2.2304c-.142 0-.2555-.1298-.2271-.2717.1257-.64073.6894-1.12737 1.3707-1.12737z" fill="#fff"/><path d="m18.1975 9.62891c.4947 0 .8922.40149.8922.89219 0 .0811-.0122.1622-.0325.2352h-1.7235c-.0203-.0771-.0324-.1541-.0324-.2352 0-.4907.4014-.89219.8962-.89219z" fill="url(#aN)"/><path d="m17.6866 10.5207c0-.2838.2271-.5109.511-.5109.2838 0 .5109.2271.5109.5109 0 .0852-.0203.1663-.0568.2352h-.9043c-.0405-.0689-.0608-.15-.0608-.2352z" fill="#000"/><g filter="url(#q)"><path d="m18.1319 9.81718c.0636.08501-.0693.18862-.2203.30162-.1511.1129-.2632.1924-.3267.1074-.0636-.085.0074-.2455.1584-.35844.1511-.11295.3251-.1356.3886-.05058z" fill="#c7a7a3"/><path d="m18.1319 9.81718c.0636.08501-.0693.18862-.2203.30162-.1511.1129-.2632.1924-.3267.1074-.0636-.085.0074-.2455.1584-.35844.1511-.11295.3251-.1356.3886-.05058z" fill="url(#aP)"/></g><g filter="url(#r)"><path d="m18.9922 10.4035c-.0329-.2307-.1679-.4045-.2312-.46258l-.2598.28518.1172.2281z" fill="url(#aR)"/></g><path d="m13.624 9.35693c-.6529 0-1.2045.45017-1.3546 1.05847-.0446.1744.0893.3407.2677.3407h2.2305c.142 0 .2555-.1298.2272-.2717-.1258-.6408-.6935-1.12747-1.3708-1.12747z" fill="#fff"/><path d="m13.8308 9.62891c-.4948 0-.8922.40149-.8922.89219 0 .0811.0122.1622.0324.2352h1.7236c.0203-.077.0325-.1541.0325-.2352-.0041-.4907-.4015-.89219-.8963-.89219z" fill="url(#aS)"/><path d="m14.3418 10.5208c0-.2839-.2271-.511-.511-.511s-.511.2271-.511.511c0 .0851.0203.1662.0568.2352h.9044c.0365-.069.0608-.1501.0608-.2352z" fill="#000"/><g filter="url(#s)"><path d="m14.6459 10.4161c0-.2884-.2345-.48057-.2978-.53866l-.2883.27886.1774.3612z" fill="url(#aT)"/></g><g filter="url(#t)"><ellipse cx="13.5616" cy="10.0099" fill="#c7a7a3" fill-opacity=".9" rx=".389499" ry=".197122" transform="matrix(.88365127 -.46814574 .46814574 .88365127 -3.108217 7.513445)"/><ellipse cx="13.5616" cy="10.0099" fill="url(#aU)" rx=".389499" ry=".197122" transform="matrix(.88365127 -.46814574 .46814574 .88365127 -3.108217 7.513445)"/></g><g filter="url(#u)"><path d="m17.6772 7.92338c.4301-.07526 1.2687-.05376 1.8493.39781" stroke="url(#aW)" stroke-linecap="round" stroke-width=".25"/></g><g filter="url(#v)"><path d="m12.4582 8.44187c.3272-.28912 1.0415-.59356 1.927-.45241" stroke="url(#aX)" stroke-linecap="round" stroke-width=".25"/></g></svg>