<svg fill="none" height="32" viewBox="0 0 32 32" width="32" xmlns="http://www.w3.org/2000/svg" xmlns:xlink="http://www.w3.org/1999/xlink"><filter id="a" color-interpolation-filters="sRGB" filterUnits="userSpaceOnUse" height="14.6997" width="28.5555" x="2.20258" y="8.6002"><feFlood flood-opacity="0" result="BackgroundImageFix"/><feBlend in="SourceGraphic" in2="BackgroundImageFix" mode="normal" result="shape"/><feColorMatrix in="SourceAlpha" result="hardAlpha" type="matrix" values="0 0 0 0 0 0 0 0 0 0 0 0 0 0 0 0 0 0 127 0"/><feOffset dx=".6" dy="-.6"/><feGaussianBlur stdDeviation=".75"/><feComposite in2="hardAlpha" k2="-1" k3="1" operator="arithmetic"/><feColorMatrix type="matrix" values="0 0 0 0 0.231373 0 0 0 0 0.376471 0 0 0 0 0.819608 0 0 0 1 0"/><feBlend in2="shape" mode="normal" result="effect1_innerShadow_18590_1754"/></filter><filter id="b" color-interpolation-filters="sRGB" filterUnits="userSpaceOnUse" height="13.1982" width="26.8956" x="2.67466" y="9.59106"><feFlood flood-opacity="0" result="BackgroundImageFix"/><feBlend in="SourceGraphic" in2="BackgroundImageFix" mode="normal" result="shape"/><feGaussianBlur result="effect1_foregroundBlur_18590_1754" stdDeviation=".375"/></filter><filter id="c" color-interpolation-filters="sRGB" filterUnits="userSpaceOnUse" height="13.4482" width="27.1456" x="2.90369" y="9.46606"><feFlood flood-opacity="0" result="BackgroundImageFix"/><feBlend in="SourceGraphic" in2="BackgroundImageFix" mode="normal" result="shape"/><feGaussianBlur result="effect1_foregroundBlur_18590_1754" stdDeviation=".375"/></filter><linearGradient id="d" gradientUnits="userSpaceOnUse" x1="9.40255" x2="32.3635" y1="15.3887" y2="15.3887"><stop offset="0" stop-color="#3a8fee"/><stop offset="1" stop-color="#5db7ff"/></linearGradient><linearGradient id="e" gradientUnits="userSpaceOnUse" x1="27.8623" x2="22.2991" y1="10.5911" y2="17.2093"><stop offset="0" stop-color="#79d8ff"/><stop offset="1" stop-color="#79d8ff" stop-opacity="0"/></linearGradient><g filter="url(#a)"><path d="m23.4846 9.20991c-2.34-.12-4.42.87999-5.78 2.52999 0 0-1.53 1.98-1.53 1.97 0 0-1.93 2.53-1.92 2.53l-1.66 2.18-.13.17c-.95 1.27-2.62997 1.98-4.39997 1.46-1.34-.4-2.39-1.52-2.69-2.88-.59-2.59 1.38-4.9 3.87-4.9 1.20997 0 2.10997.51 2.72997 1.05.66.58 1.67.49 2.21-.21.47-.61.41-1.49-.15-2.01-3.16-2.89999-9.13997-2.23999-11.04997 1.79-2.479996 5.23 1.3 10.39 6.26 10.39 2.17997 0 4.12997-.97 5.41997-2.53l.43-.56s1.09-1.43 1.09-1.42c0 0 1.93-2.53 1.92-2.53l1.69-2.21c.04-.05.08-.1.12-.15.87-1.18 2.37-1.85 4.02-1.53 1.46.29 2.67 1.43 3.03 2.88.66 2.63-1.32 5-3.85 5-1.19 0-2.09-.51-2.71-1.06-.66-.58-1.68-.48-2.21.22-.49.64-.4 1.53.2 2.07.93.83 2.52 1.84 4.72 1.84 4.2 0 7.55-3.69 6.98-8-.44-3.32-3.28-5.91999-6.61-6.08999z" fill="url(#d)"/></g><g filter="url(#b)"><path d="m12.8923 12.0254c-1.3402-1.2138-3.25207-1.9016-6.04377-.8092-3.48963 1.3655-3.81832 5.8414-2.35165 8.1678 1.46666 2.3265 5.76552 3.9449 9.20462 0 2.7512-3.1558 4.5854-5.5632 5.1586-6.3724.9103-1.2306 3.5099-3.34804 6.6253-1.9724 3.8942 1.7195 3.4558 6.622 2.1747 8.3448-1.4667 1.9724-5.007 3.8943-8.1425.7081" stroke="#70b0ff" stroke-linecap="round" stroke-width=".5"/></g><g filter="url(#c)"><path d="m13.2463 12.0254c-1.3402-1.2138-3.25206-1.9016-6.04377-.8092-3.48963 1.3655-3.81832 5.8414-2.35165 8.1678 1.46667 2.3265 5.76552 3.9449 9.20462 0 2.7513-3.1558 4.5854-5.5632 5.1586-6.3724.9104-1.2306 3.5099-3.34804 6.6253-1.9724 3.8942 1.7195 3.4558 6.622 2.1747 8.3448-1.4667 1.9724-5.007 3.8943-8.1425.7081" stroke="url(#e)" stroke-linecap="round" stroke-width=".75"/></g></svg>