<svg fill="none" height="32" viewBox="0 0 32 32" width="32" xmlns="http://www.w3.org/2000/svg" xmlns:xlink="http://www.w3.org/1999/xlink"><filter id="a" color-interpolation-filters="sRGB" filterUnits="userSpaceOnUse" height="6.9" width="6.5" x="3.2146" y="14.1"><feFlood flood-opacity="0" result="BackgroundImageFix"/><feBlend in="SourceGraphic" in2="BackgroundImageFix" mode="normal" result="shape"/><feColorMatrix in="SourceAlpha" result="hardAlpha" type="matrix" values="0 0 0 0 0 0 0 0 0 0 0 0 0 0 0 0 0 0 127 0"/><feOffset dy="-.4"/><feGaussianBlur stdDeviation=".2"/><feComposite in2="hardAlpha" k2="-1" k3="1" operator="arithmetic"/><feColorMatrix type="matrix" values="0 0 0 0 0.776471 0 0 0 0 0.486275 0 0 0 0 0.239216 0 0 0 1 0"/><feBlend in2="shape" mode="normal" result="effect1_innerShadow_4002_3627"/></filter><filter id="b" color-interpolation-filters="sRGB" filterUnits="userSpaceOnUse" height="6.75" width="6.7" x="22.2146" y="14.25"><feFlood flood-opacity="0" result="BackgroundImageFix"/><feBlend in="SourceGraphic" in2="BackgroundImageFix" mode="normal" result="shape"/><feColorMatrix in="SourceAlpha" result="hardAlpha" type="matrix" values="0 0 0 0 0 0 0 0 0 0 0 0 0 0 0 0 0 0 127 0"/><feOffset dx=".2" dy="-.25"/><feGaussianBlur stdDeviation=".25"/><feComposite in2="hardAlpha" k2="-1" k3="1" operator="arithmetic"/><feColorMatrix type="matrix" values="0 0 0 0 0.913725 0 0 0 0 0.607843 0 0 0 0 0.262745 0 0 0 1 0"/><feBlend in2="shape" mode="normal" result="effect1_innerShadow_4002_3627"/></filter><filter id="c" color-interpolation-filters="sRGB" filterUnits="userSpaceOnUse" height="5.05856" width="5.05856" x="22.9353" y="15.2207"><feFlood flood-opacity="0" result="BackgroundImageFix"/><feBlend in="SourceGraphic" in2="BackgroundImageFix" mode="normal" result="shape"/><feGaussianBlur result="effect1_foregroundBlur_4002_3627" stdDeviation=".25"/></filter><filter id="d" color-interpolation-filters="sRGB" filterUnits="userSpaceOnUse" height="5.05856" width="5.05856" x="3.9353" y="15.2207"><feFlood flood-opacity="0" result="BackgroundImageFix"/><feBlend in="SourceGraphic" in2="BackgroundImageFix" mode="normal" result="shape"/><feGaussianBlur result="effect1_foregroundBlur_4002_3627" stdDeviation=".25"/></filter><filter id="e" color-interpolation-filters="sRGB" filterUnits="userSpaceOnUse" height="9.58165" width="8.69877" x="21.9833" y="20.42"><feFlood flood-opacity="0" result="BackgroundImageFix"/><feBlend in="SourceGraphic" in2="BackgroundImageFix" mode="normal" result="shape"/><feColorMatrix in="SourceAlpha" result="hardAlpha" type="matrix" values="0 0 0 0 0 0 0 0 0 0 0 0 0 0 0 0 0 0 127 0"/><feOffset dx=".65" dy="-.8"/><feGaussianBlur stdDeviation=".75"/><feComposite in2="hardAlpha" k2="-1" k3="1" operator="arithmetic"/><feColorMatrix type="matrix" values="0 0 0 0 0.870588 0 0 0 0 0.403922 0 0 0 0 0.168627 0 0 0 1 0"/><feBlend in2="shape" mode="normal" result="effect1_innerShadow_4002_3627"/></filter><filter id="f" color-interpolation-filters="sRGB" filterUnits="userSpaceOnUse" height="9.53165" width="8.29877" x="1.7146" y="20.47"><feFlood flood-opacity="0" result="BackgroundImageFix"/><feBlend in="SourceGraphic" in2="BackgroundImageFix" mode="normal" result="shape"/><feColorMatrix in="SourceAlpha" result="hardAlpha" type="matrix" values="0 0 0 0 0 0 0 0 0 0 0 0 0 0 0 0 0 0 127 0"/><feOffset dx="-.25" dy="-.75"/><feGaussianBlur stdDeviation=".5"/><feComposite in2="hardAlpha" k2="-1" k3="1" operator="arithmetic"/><feColorMatrix type="matrix" values="0 0 0 0 0.803922 0 0 0 0 0.423529 0 0 0 0 0.286275 0 0 0 1 0"/><feBlend in2="shape" mode="normal" result="effect1_innerShadow_4002_3627"/></filter><filter id="g" color-interpolation-filters="sRGB" filterUnits="userSpaceOnUse" height="22.5425" width="20.3323" x="5.80743" y="7.85748"><feFlood flood-opacity="0" result="BackgroundImageFix"/><feBlend in="SourceGraphic" in2="BackgroundImageFix" mode="normal" result="shape"/><feColorMatrix in="SourceAlpha" result="hardAlpha" type="matrix" values="0 0 0 0 0 0 0 0 0 0 0 0 0 0 0 0 0 0 127 0"/><feOffset dy=".4"/><feGaussianBlur stdDeviation=".3"/><feComposite in2="hardAlpha" k2="-1" k3="1" operator="arithmetic"/><feColorMatrix type="matrix" values="0 0 0 0 0.886275 0 0 0 0 0.517647 0 0 0 0 0.152941 0 0 0 1 0"/><feBlend in2="shape" mode="normal" result="effect1_innerShadow_4002_3627"/></filter><filter id="h" color-interpolation-filters="sRGB" filterUnits="userSpaceOnUse" height="1.55382" width="3.72985" x="9.02505" y="13.087"><feFlood flood-opacity="0" result="BackgroundImageFix"/><feBlend in="SourceGraphic" in2="BackgroundImageFix" mode="normal" result="shape"/><feColorMatrix in="SourceAlpha" result="hardAlpha" type="matrix" values="0 0 0 0 0 0 0 0 0 0 0 0 0 0 0 0 0 0 127 0"/><feOffset dx=".2" dy="-.2"/><feGaussianBlur stdDeviation=".1"/><feComposite in2="hardAlpha" k2="-1" k3="1" operator="arithmetic"/><feColorMatrix type="matrix" values="0 0 0 0 0.698039 0 0 0 0 0.247059 0 0 0 0 0.109804 0 0 0 1 0"/><feBlend in2="shape" mode="normal" result="effect1_innerShadow_4002_3627"/></filter><filter id="i" color-interpolation-filters="sRGB" filterUnits="userSpaceOnUse" height="1.75375" width="3.92975" x="8.82513" y="13.0869"><feFlood flood-opacity="0" result="BackgroundImageFix"/><feBlend in="SourceGraphic" in2="BackgroundImageFix" mode="normal" result="shape"/><feGaussianBlur result="effect1_foregroundBlur_4002_3627" stdDeviation=".25"/></filter><filter id="j" color-interpolation-filters="sRGB" filterUnits="userSpaceOnUse" height="1.59188" width="3.77019" x="19.3339" y="13.0679"><feFlood flood-opacity="0" result="BackgroundImageFix"/><feBlend in="SourceGraphic" in2="BackgroundImageFix" mode="normal" result="shape"/><feColorMatrix in="SourceAlpha" result="hardAlpha" type="matrix" values="0 0 0 0 0 0 0 0 0 0 0 0 0 0 0 0 0 0 127 0"/><feOffset dx=".2" dy="-.2"/><feGaussianBlur stdDeviation=".1"/><feComposite in2="hardAlpha" k2="-1" k3="1" operator="arithmetic"/><feColorMatrix type="matrix" values="0 0 0 0 0.698039 0 0 0 0 0.247059 0 0 0 0 0.109804 0 0 0 1 0"/><feBlend in2="shape" mode="normal" result="effect1_innerShadow_4002_3627"/></filter><filter id="k" color-interpolation-filters="sRGB" filterUnits="userSpaceOnUse" height="1.79178" width="3.97009" x="19.1339" y="13.0679"><feFlood flood-opacity="0" result="BackgroundImageFix"/><feBlend in="SourceGraphic" in2="BackgroundImageFix" mode="normal" result="shape"/><feGaussianBlur result="effect1_foregroundBlur_4002_3627" stdDeviation=".25"/></filter><filter id="l" color-interpolation-filters="sRGB" filterUnits="userSpaceOnUse" height="12.119" width="7.56" x="3.49335" y="3.5"><feFlood flood-opacity="0" result="BackgroundImageFix"/><feBlend in="SourceGraphic" in2="BackgroundImageFix" mode="normal" result="shape"/><feColorMatrix in="SourceAlpha" result="hardAlpha" type="matrix" values="0 0 0 0 0 0 0 0 0 0 0 0 0 0 0 0 0 0 127 0"/><feOffset dx="-.5" dy="-.5"/><feGaussianBlur stdDeviation=".5"/><feComposite in2="hardAlpha" k2="-1" k3="1" operator="arithmetic"/><feColorMatrix type="matrix" values="0 0 0 0 0.827451 0 0 0 0 0.45098 0 0 0 0 0.0823529 0 0 0 1 0"/><feBlend in2="shape" mode="normal" result="effect1_innerShadow_4002_3627"/></filter><filter id="m" color-interpolation-filters="sRGB" filterUnits="userSpaceOnUse" height="5.7767" width="4.72769" x="13.3373" y="16.9107"><feFlood flood-opacity="0" result="BackgroundImageFix"/><feBlend in="SourceGraphic" in2="BackgroundImageFix" mode="normal" result="shape"/><feGaussianBlur result="effect1_foregroundBlur_4002_3627" stdDeviation=".375"/></filter><filter id="n" color-interpolation-filters="sRGB" filterUnits="userSpaceOnUse" height="5.13138" width="3.99673" x="13.9662" y="17.1186"><feFlood flood-opacity="0" result="BackgroundImageFix"/><feBlend in="SourceGraphic" in2="BackgroundImageFix" mode="normal" result="shape"/><feGaussianBlur result="effect1_foregroundBlur_4002_3627" stdDeviation=".125"/></filter><filter id="o" color-interpolation-filters="sRGB" filterUnits="userSpaceOnUse" height="14.4707" width="18.74" x="10.0134" y="1.25"><feFlood flood-opacity="0" result="BackgroundImageFix"/><feBlend in="SourceGraphic" in2="BackgroundImageFix" mode="normal" result="shape"/><feColorMatrix in="SourceAlpha" result="hardAlpha" type="matrix" values="0 0 0 0 0 0 0 0 0 0 0 0 0 0 0 0 0 0 127 0"/><feOffset dx=".75" dy="-.75"/><feGaussianBlur stdDeviation=".625"/><feComposite in2="hardAlpha" k2="-1" k3="1" operator="arithmetic"/><feColorMatrix type="matrix" values="0 0 0 0 0.921569 0 0 0 0 0.533333 0 0 0 0 0.152941 0 0 0 1 0"/><feBlend in2="shape" mode="normal" result="effect1_innerShadow_4002_3627"/></filter><filter id="p" color-interpolation-filters="sRGB" filterUnits="userSpaceOnUse" height="1.30345" width="1.50472" x="18.7966" y="16.9177"><feFlood flood-opacity="0" result="BackgroundImageFix"/><feBlend in="SourceGraphic" in2="BackgroundImageFix" mode="normal" result="shape"/><feGaussianBlur result="effect1_foregroundBlur_4002_3627" stdDeviation=".05"/></filter><filter id="q" color-interpolation-filters="sRGB" filterUnits="userSpaceOnUse" height="1.54148" width="1.49216" x="20.7864" y="17.2069"><feFlood flood-opacity="0" result="BackgroundImageFix"/><feBlend in="SourceGraphic" in2="BackgroundImageFix" mode="normal" result="shape"/><feGaussianBlur result="effect1_foregroundBlur_4002_3627" stdDeviation=".1"/></filter><filter id="r" color-interpolation-filters="sRGB" filterUnits="userSpaceOnUse" height="1.82065" width="1.70109" x="11.9572" y="17.0853"><feFlood flood-opacity="0" result="BackgroundImageFix"/><feBlend in="SourceGraphic" in2="BackgroundImageFix" mode="normal" result="shape"/><feGaussianBlur result="effect1_foregroundBlur_4002_3627" stdDeviation=".1"/></filter><filter id="s" color-interpolation-filters="sRGB" filterUnits="userSpaceOnUse" height="1.31951" width="1.78231" x="10.1603" y="16.9196"><feFlood flood-opacity="0" result="BackgroundImageFix"/><feBlend in="SourceGraphic" in2="BackgroundImageFix" mode="normal" result="shape"/><feGaussianBlur result="effect1_foregroundBlur_4002_3627" stdDeviation=".05"/></filter><filter id="t" color-interpolation-filters="sRGB" filterUnits="userSpaceOnUse" height="13.5264" width="19.3183" x="9.61163" y=".875031"><feFlood flood-opacity="0" result="BackgroundImageFix"/><feBlend in="SourceGraphic" in2="BackgroundImageFix" mode="normal" result="shape"/><feGaussianBlur result="effect1_foregroundBlur_4002_3627" stdDeviation="1"/></filter><linearGradient id="u" gradientUnits="userSpaceOnUse" x1="4.14865" x2="6.69131" y1="18.7106" y2="18.7106"><stop offset="0" stop-color="#e9962c"/><stop offset="1" stop-color="#d28014"/></linearGradient><radialGradient id="v" cx="0" cy="0" gradientTransform="matrix(3.40625067 -3.59374549 2.88239506 2.7320132 24.8987 19.2188)" gradientUnits="userSpaceOnUse" r="1"><stop offset=".573409" stop-color="#ffbb21"/><stop offset=".954871" stop-color="#ffe448"/></radialGradient><radialGradient id="w" cx="0" cy="0" gradientTransform="matrix(1.28566056 -2.94636243 2.29505836 1.00146064 25.4646 18.9988)" gradientUnits="userSpaceOnUse" r="1"><stop offset="0" stop-color="#ffc832"/><stop offset="1" stop-color="#ffba24"/></radialGradient><radialGradient id="x" cx="24.7424" cy="17.75" gradientUnits="userSpaceOnUse" r="2.89063"><stop offset=".733391" stop-color="#ffa620" stop-opacity="0"/><stop offset="1" stop-color="#ffa620"/></radialGradient><linearGradient id="y" gradientUnits="userSpaceOnUse" x1="4.61737" x2="6.17987" y1="17.75" y2="17.75"><stop offset="0" stop-color="#e18524"/><stop offset="1" stop-color="#d17a20"/></linearGradient><linearGradient id="z" gradientUnits="userSpaceOnUse" x1="27.8986" x2="26.8361" y1="24.1094" y2="25.75"><stop offset="0" stop-color="#ffc433"/><stop offset="1" stop-color="#ffc433" stop-opacity="0"/></linearGradient><radialGradient id="A" cx="0" cy="0" gradientTransform="matrix(-2.56250284 1.21873949 -2.78203887 -5.84947201 8.1174 26)" gradientUnits="userSpaceOnUse" r="1"><stop offset="0" stop-color="#e46424"/><stop offset="1" stop-color="#e46424" stop-opacity="0"/></radialGradient><linearGradient id="B" gradientUnits="userSpaceOnUse" x1="3.96115" x2="4.96115" y1="23.7813" y2="25.2188"><stop offset="0" stop-color="#d08233"/><stop offset="1" stop-color="#d08233" stop-opacity="0"/></linearGradient><radialGradient id="C" cx="0" cy="0" gradientTransform="matrix(-7.08326109 11.36425507 -11.90212863 -7.41851394 21.0757 17.0109)" gradientUnits="userSpaceOnUse" r="1"><stop offset=".102798" stop-color="#ffe430"/><stop offset="1" stop-color="#f49938"/></radialGradient><radialGradient id="D" cx="0" cy="0" gradientTransform="matrix(-1.40280036 16.81247804 -15.81374855 -1.31946832 17.3674 14.375)" gradientUnits="userSpaceOnUse" r="1"><stop offset=".761538" stop-color="#d67764" stop-opacity="0"/><stop offset="1" stop-color="#d67764"/></radialGradient><linearGradient id="E" gradientUnits="userSpaceOnUse" x1="5.71457" x2="7.42987" y1="18.7188" y2="18.6563"><stop offset="0" stop-color="#d39e45"/><stop offset="1" stop-color="#d39e45" stop-opacity="0"/></linearGradient><radialGradient id="F" cx="0" cy="0" gradientTransform="matrix(-2.16825 0 0 -11.9901 26.1397 18.9288)" gradientUnits="userSpaceOnUse" r="1"><stop offset="0" stop-color="#ffdb3c"/><stop offset="1" stop-color="#ffdb3c" stop-opacity="0"/></radialGradient><radialGradient id="G" cx="0" cy="0" gradientTransform="matrix(0 -2.86429 3.55676 0 21.0127 17.4201)" gradientUnits="userSpaceOnUse" r="1"><stop offset=".296703" stop-color="#ffbc27"/><stop offset="1" stop-color="#ffbc27" stop-opacity="0"/></radialGradient><radialGradient id="H" cx="0" cy="0" gradientTransform="matrix(0 -2.92724 3.10574 0 11.9477 17.3256)" gradientUnits="userSpaceOnUse" r="1"><stop offset=".146341" stop-color="#ed9227"/><stop offset="1" stop-color="#ed9227" stop-opacity="0"/></radialGradient><linearGradient id="I"><stop offset="0" stop-color="#d26f5b"/><stop offset="1" stop-color="#d26f5b" stop-opacity="0"/></linearGradient><linearGradient id="J" gradientUnits="userSpaceOnUse" x1="12.0049" x2="9.35909" xlink:href="#I" y1="14.0906" y2="14.0906"/><linearGradient id="K" gradientUnits="userSpaceOnUse" x1="22.354" x2="19.6643" xlink:href="#I" y1="14.1097" y2="14.1097"/><radialGradient id="L" cx="0" cy="0" gradientTransform="matrix(-4.49999213 -2.12502296 3.54684046 -7.51086196 9.80487 10.375)" gradientUnits="userSpaceOnUse" r="1"><stop offset="0" stop-color="#e6a523"/><stop offset="1" stop-color="#cc923e"/></radialGradient><radialGradient id="M" cx="0" cy="0" gradientTransform="matrix(-3.68754238 6.30642898 -4.64828086 -2.71797759 10.0549 9.31253)" gradientUnits="userSpaceOnUse" r="1"><stop offset=".533911" stop-color="#e88e26"/><stop offset="1" stop-color="#e88e26" stop-opacity="0"/></radialGradient><radialGradient id="N" cx="0" cy="0" gradientTransform="matrix(-1.28150256 3.78125472 -2.14139235 -.72573788 8.80487 9.50003)" gradientUnits="userSpaceOnUse" r="1"><stop offset="0" stop-color="#ffc12e"/><stop offset="1" stop-color="#ffc12e" stop-opacity="0"/></radialGradient><radialGradient id="O" cx="0" cy="0" gradientTransform="matrix(-.86559698 -3.55675619 1.79610567 -.4371128 17.519 20.5991)" gradientUnits="userSpaceOnUse" r="1"><stop offset="0" stop-color="#ffe73d"/><stop offset="1" stop-color="#ffe73d" stop-opacity="0"/></radialGradient><linearGradient id="P" gradientUnits="userSpaceOnUse" x1="14.0566" x2="15.4573" y1="20.127" y2="20.1899"><stop offset="0" stop-color="#f39d1d"/><stop offset="1" stop-color="#f39d1d" stop-opacity="0"/></linearGradient><linearGradient id="Q" gradientUnits="userSpaceOnUse" x1="15.7878" x2="15.7878" y1="22.2988" y2="20.5361"><stop offset="0" stop-color="#df7f35"/><stop offset="1" stop-color="#df7f35" stop-opacity="0"/></linearGradient><radialGradient id="R" cx="0" cy="0" gradientTransform="matrix(-5.68753037 8.37491942 -12.41636652 -8.43213625 25.3674 4.68753)" gradientUnits="userSpaceOnUse" r="1"><stop offset="0" stop-color="#ffe43a"/><stop offset="1" stop-color="#ffe43a" stop-opacity="0"/></radialGradient><linearGradient id="S"><stop offset=".80198" stop-color="#925c51"/><stop offset="1" stop-color="#694b43"/><stop offset="1" stop-color="#804d49"/><stop offset="1" stop-color="#85534d"/></linearGradient><radialGradient id="T" cx="0" cy="0" gradientTransform="matrix(0 1.80382 -2.86918 0 20.3066 17.7733)" gradientUnits="userSpaceOnUse" r="1" xlink:href="#S"/><linearGradient id="U"><stop offset=".765532" stop-color="#ffe6e2" stop-opacity="0"/><stop offset=".966159" stop-color="#ffe6e2"/></linearGradient><radialGradient id="V" cx="0" cy="0" gradientTransform="matrix(-.51562649 -.66445427 .91479553 -.70989507 19.7992 17.9603)" gradientUnits="userSpaceOnUse" r="1" xlink:href="#U"/><linearGradient id="W"><stop offset="0" stop-color="#b4948d"/><stop offset="1" stop-color="#b4948d" stop-opacity="0"/></linearGradient><linearGradient id="X" gradientUnits="userSpaceOnUse" x1="22.0363" x2="21.3387" xlink:href="#W" y1="17.893" y2="18.3229"/><radialGradient id="Y" cx="0" cy="0" gradientTransform="matrix(0 1.80042 -2.86377 0 11.6535 17.7917)" gradientUnits="userSpaceOnUse" r="1" xlink:href="#S"/><linearGradient id="Z" gradientUnits="userSpaceOnUse" x1="13.3041" x2="12.6078" xlink:href="#W" y1="17.9113" y2="18.3403"/><radialGradient id="aa" cx="0" cy="0" gradientTransform="matrix(-.01716582 -1.09637563 1.31788848 -.02063403 11.018 18.2782)" gradientUnits="userSpaceOnUse" r="1" xlink:href="#U"/><radialGradient id="ab" cx="0" cy="0" gradientTransform="matrix(14.60734906 6.27089034 -3.44849067 8.03287957 18.3336 6.55998)" gradientUnits="userSpaceOnUse" r="1"><stop offset="0" stop-color="#ffea3a"/><stop offset="1" stop-color="#ffea3a" stop-opacity="0"/></radialGradient><g filter="url(#a)"><path d="m6.4646 21c1.79492 0 3.25-1.4551 3.25-3.25s-1.45508-3.25-3.25-3.25c-1.79493 0-3.25 1.4551-3.25 3.25s1.45507 3.25 3.25 3.25z" fill="url(#u)"/></g><g filter="url(#b)"><path d="m25.4646 21c1.7949 0 3.25-1.4551 3.25-3.25s-1.4551-3.25-3.25-3.25-3.25 1.4551-3.25 3.25 1.4551 3.25 3.25 3.25z" fill="url(#v)"/></g><g filter="url(#c)"><path d="m25.4646 19.7793c1.1207 0 2.0293-.9085 2.0293-2.0293 0-1.1207-.9086-2.0293-2.0293-2.0293-1.1208 0-2.0293.9086-2.0293 2.0293 0 1.1208.9085 2.0293 2.0293 2.0293z" fill="url(#w)"/><path d="m25.4646 19.7793c1.1207 0 2.0293-.9085 2.0293-2.0293 0-1.1207-.9086-2.0293-2.0293-2.0293-1.1208 0-2.0293.9086-2.0293 2.0293 0 1.1208.9085 2.0293 2.0293 2.0293z" fill="url(#x)"/></g><g filter="url(#d)"><path d="m6.46458 19.7793c1.12075 0 2.02929-.9085 2.02929-2.0293 0-1.1207-.90854-2.0293-2.02929-2.0293-1.12074 0-2.02928.9086-2.02928 2.0293 0 1.1208.90854 2.0293 2.02928 2.0293z" fill="url(#y)"/></g><g filter="url(#e)"><path d="m23.5933 21.22 6 4.03c.55.37.59 1.17.08 1.6l-3.19 2.81c-.72.64-1.85.34-2.18-.56l-2.32-6.49z" fill="#ffa12f"/><path d="m23.5933 21.22 6 4.03c.55.37.59 1.17.08 1.6l-3.19 2.81c-.72.64-1.85.34-2.18-.56l-2.32-6.49z" fill="url(#z)"/></g><g filter="url(#f)"><path d="m8.40337 21.22-6 4.03c-.55.37-.59 1.17-.08 1.6l3.19 2.81c.72.64 1.85.34 2.18-.56l2.32003-6.49z" fill="#fe8828"/><path d="m8.40337 21.22-6 4.03c-.55.37-.59 1.17-.08 1.6l3.19 2.81c.72.64 1.85.34 2.18-.56l2.32003-6.49z" fill="url(#A)"/><path d="m8.40337 21.22-6 4.03c-.55.37-.59 1.17-.08 1.6l3.19 2.81c.72.64 1.85.34 2.18-.56l2.32003-6.49z" fill="url(#B)"/></g><g filter="url(#g)"><path d="m18.8233 13c-3.601-.6071-6.5816-2.3808-7.9699-5.14252-.3833 2.31562-1.45609 4.53302-4.32197 5.76752-.33352.1437-.66845.3222-.724.9078l.19278 5.6822c.23917 5.859 4.62349 9.785 9.96439 9.785 5.3309 0 9.7252-3.926 9.9643-9.785l.2105-6.2039c.0084-.2482-.1663-.4655-.4125-.4982-.8492-.1128-1.9757-.1709-3.1565-.2317-1.28-.066-2.6238-.1353-3.7471-.2812z" fill="url(#C)"/><path d="m18.8233 13c-3.601-.6071-6.5816-2.3808-7.9699-5.14252-.3833 2.31562-1.45609 4.53302-4.32197 5.76752-.33352.1437-.66845.3222-.724.9078l.19278 5.6822c.23917 5.859 4.62349 9.785 9.96439 9.785 5.3309 0 9.7252-3.926 9.9643-9.785l.2105-6.2039c.0084-.2482-.1663-.4655-.4125-.4982-.8492-.1128-1.9757-.1709-3.1565-.2317-1.28-.066-2.6238-.1353-3.7471-.2812z" fill="url(#D)"/><path d="m18.8233 13c-3.601-.6071-6.5816-2.3808-7.9699-5.14252-.3833 2.31562-1.45609 4.53302-4.32197 5.76752-.33352.1437-.66845.3222-.724.9078l.19278 5.6822c.23917 5.859 4.62349 9.785 9.96439 9.785 5.3309 0 9.7252-3.926 9.9643-9.785l.2105-6.2039c.0084-.2482-.1663-.4655-.4125-.4982-.8492-.1128-1.9757-.1709-3.1565-.2317-1.28-.066-2.6238-.1353-3.7471-.2812z" fill="url(#E)"/></g><path d="m18.8233 13c-3.601-.6071-6.5816-2.3808-7.9699-5.14252-.3833 2.31562-1.45609 4.53302-4.32197 5.76752-.33352.1437-.66845.3222-.724.9078l.19278 5.6822c.23917 5.859 4.62349 9.785 9.96439 9.785 5.3309 0 9.7252-3.926 9.9643-9.785l.2105-6.2039c.0084-.2482-.1663-.4655-.4125-.4982-.8492-.1128-1.9757-.1709-3.1565-.2317-1.28-.066-2.6238-.1353-3.7471-.2812z" fill="url(#F)"/><path d="m18.8233 13c-3.601-.6071-6.5816-2.3808-7.9699-5.14252-.3833 2.31562-1.45609 4.53302-4.32197 5.76752-.33352.1437-.66845.3222-.724.9078l.19278 5.6822c.23917 5.859 4.62349 9.785 9.96439 9.785 5.3309 0 9.7252-3.926 9.9643-9.785l.2105-6.2039c.0084-.2482-.1663-.4655-.4125-.4982-.8492-.1128-1.9757-.1709-3.1565-.2317-1.28-.066-2.6238-.1353-3.7471-.2812z" fill="url(#G)"/><path d="m18.8233 13c-3.601-.6071-6.5816-2.3808-7.9699-5.14252-.3833 2.31562-1.45609 4.53302-4.32197 5.76752-.33352.1437-.66845.3222-.724.9078l.19278 5.6822c.23917 5.859 4.62349 9.785 9.96439 9.785 5.3309 0 9.7252-3.926 9.9643-9.785l.2105-6.2039c.0084-.2482-.1663-.4655-.4125-.4982-.8492-.1128-1.9757-.1709-3.1565-.2317-1.28-.066-2.6238-.1353-3.7471-.2812z" fill="url(#H)"/><path d="m15.9782 23.3729c-1.1084 0-2.1368-.271-3.0155-.7328-.2996-.1606-.6191.1807-.4294.4718.7289 1.1343 1.9971 1.8871 3.4449 1.8871 1.4479 0 2.716-.7528 3.4449-1.8871.1797-.281-.1298-.6223-.4294-.4718-.8787.4718-1.9071.7328-3.0155.7328z" fill="#89014f"/><g filter="url(#h)"><path d="m9.5752 14.0906c.59-.21 1.3697-.3156 2.4297-.2156" stroke="#be4622" stroke-linecap="round" stroke-linejoin="round" stroke-miterlimit="10" stroke-width="1.1"/></g><g filter="url(#i)"><path d="m9.5752 14.0906c.59-.21 1.3697-.3156 2.4297-.2156" stroke="url(#J)" stroke-linecap="round" stroke-linejoin="round" stroke-miterlimit="10" stroke-width=".5"/></g><g filter="url(#j)"><path d="m22.354 14.1097c-.59-.21-1.41-.36-2.47-.26" stroke="#be4622" stroke-linecap="round" stroke-linejoin="round" stroke-miterlimit="10" stroke-width="1.1"/></g><g filter="url(#k)"><path d="m22.354 14.1097c-.59-.21-1.41-.36-2.47-.26" stroke="url(#K)" stroke-linecap="round" stroke-linejoin="round" stroke-miterlimit="10" stroke-width=".5"/></g><g filter="url(#l)"><path d="m3.99335 11.06c0-3.9 3.16-7.06 7.05995-7.06v.97c0 3.18-.4594 6.905-4.52187 8.655-.33911.1461-.67968.3282-.72656.9375-.60156.1407-1.29045.4769-1.79418 1.0565-.01152-.1623-.01734-.3253-.01734-.489z" fill="url(#L)"/></g><path d="m3.99335 11.06c0-3.9 3.16-7.06 7.05995-7.06v.97c0 3.18-.4594 6.905-4.52187 8.655-.33911.1461-.67968.3282-.72656.9375-.60156.1407-1.29045.4769-1.79418 1.0565-.01152-.1623-.01734-.3253-.01734-.489z" fill="url(#M)"/><path d="m3.99335 11.06c0-3.9 3.16-7.06 7.05995-7.06v.97c0 3.18-.4594 6.905-4.52187 8.655-.33911.1461-.67968.3282-.72656.9375-.60156.1407-1.29045.4769-1.79418 1.0565-.01152-.1623-.01734-.3253-.01734-.489z" fill="url(#N)"/><g filter="url(#m)"><path d="m17.2976 20.6798c.043.1868.0083.3937-.1277.5654-.3612.4611-.9396.7355-1.5572.6865-.6177-.0489-1.1456-.4109-1.4389-.9239-.1409-.251-.0996-.5345.0515-.735l1.2718-2.3635c.0888-.165.2666-.2619.4534-.2471.1867.0148.3471.1385.4088.3154l.9088 2.6062c.006.0155.0115.0312.0164.0472l.0171.0491z" fill="#ed8e24"/></g><g filter="url(#n)"><path d="m17.679 20.5064c.0623.1978.0425.4238-.0894.6205-.35.5279-.95.8731-1.62.8731s-1.27-.3452-1.63-.8731c-.1734-.2585-.153-.5676-.0073-.7967l1.1691-2.6565c.0816-.1854.2651-.3051.4676-.3051.2026 0 .386.1197.4677.3051l1.2022 2.7318c.0079.0162.0152.0327.0218.0495l.0227.0514z" fill="#fccc33"/><path d="m17.679 20.5064c.0623.1978.0425.4238-.0894.6205-.35.5279-.95.8731-1.62.8731s-1.27-.3452-1.63-.8731c-.1734-.2585-.153-.5676-.0073-.7967l1.1691-2.6565c.0816-.1854.2651-.3051.4676-.3051.2026 0 .386.1197.4677.3051l1.2022 2.7318c.0079.0162.0152.0327.0218.0495l.0227.0514z" fill="url(#O)"/><path d="m17.679 20.5064c.0623.1978.0425.4238-.0894.6205-.35.5279-.95.8731-1.62.8731s-1.27-.3452-1.63-.8731c-.1734-.2585-.153-.5676-.0073-.7967l1.1691-2.6565c.0816-.1854.2651-.3051.4676-.3051.2026 0 .386.1197.4677.3051l1.2022 2.7318c.0079.0162.0152.0327.0218.0495l.0227.0514z" fill="url(#P)"/><path d="m17.679 20.5064c.0623.1978.0425.4238-.0894.6205-.35.5279-.95.8731-1.62.8731s-1.27-.3452-1.63-.8731c-.1734-.2585-.153-.5676-.0073-.7967l1.1691-2.6565c.0816-.1854.2651-.3051.4676-.3051.2026 0 .386.1197.4677.3051l1.2022 2.7318c.0079.0162.0152.0327.0218.0495l.0227.0514z" fill="url(#Q)"/></g><g filter="url(#o)"><path d="m18.8234 13c-5.0041-.8437-8.81-3.94-8.81-8.81 0-1.21.98-2.19 2.18-2.19h5.81c5.52 0 10 4.48 10 10v3.7207c-.4653-.5813-1.1261-.9994-1.8828-1.1545l.0188-.5551c.0085-.2482-.1663-.4655-.4125-.4982-.8492-.1128-1.9757-.1709-3.1564-.2318-1.2801-.066-2.6238-.1352-3.7471-.2811z" fill="#f7bd38"/><path d="m18.8234 13c-5.0041-.8437-8.81-3.94-8.81-8.81 0-1.21.98-2.19 2.18-2.19h5.81c5.52 0 10 4.48 10 10v3.7207c-.4653-.5813-1.1261-.9994-1.8828-1.1545l.0188-.5551c.0085-.2482-.1663-.4655-.4125-.4982-.8492-.1128-1.9757-.1709-3.1564-.2318-1.2801-.066-2.6238-.1352-3.7471-.2811z" fill="url(#R)"/></g><path d="m20.7711 16.1084c1.4521 0 2.6787 1.0011 3.0124 2.354.0992.3878-.1984.7576-.5952.7576h-4.9605c-.3157 0-.5682-.2886-.5051-.6043.2796-1.425 1.5332-2.5073 3.0484-2.5073z" fill="#fff"/><path d="m20.3112 16.7127c1.1003 0 1.9842.8929 1.9842 1.9842 0 .1804-.0271.3607-.0722.5231h-3.8331c-.0451-.1714-.0722-.3427-.0722-.5231 0-1.0913.8929-1.9842 1.9933-1.9842z" fill="url(#T)"/><path d="m19.1747 18.6969c0-.6313.5051-1.1364 1.1364-1.1364s1.1364.5051 1.1364 1.1364c0 .1894-.0451.3698-.1263.5231h-2.0112c-.0902-.1533-.1353-.3337-.1353-.5231z" fill="#000"/><g filter="url(#p)"><path d="m20.1651 17.1321c.1414.1891-.1541.4196-.49.6708-.336.2512-.5853.428-.7266.2389-.1414-.1891.0164-.546.3523-.7972.336-.2512.723-.3015.8643-.1125z" fill="#c7a7a3"/><path d="m20.1651 17.1321c.1414.1891-.1541.4196-.49.6708-.336.2512-.5853.428-.7266.2389-.1414-.1891.0164-.546.3523-.7972.336-.2512.723-.3015.8643-.1125z" fill="url(#V)"/></g><g filter="url(#q)"><path d="m22.0785 18.4356c-.0732-.513-.3734-.8996-.5143-1.0287l-.5778.6341.2607.5073z" fill="url(#X)"/></g><path d="m11.1899 16.13c-1.44934 0-2.67363.9992-3.00671 2.3496-.09902.387.19805.7561.59414.7561h4.95117c.3151 0 .5671-.288.5041-.6031-.2791-1.4223-1.5394-2.5026-3.0427-2.5026z" fill="#fff"/><path d="m11.649 16.7331c-1.0983 0-1.98048.8912-1.98048 1.9805 0 .18.027.3601.07201.5221h3.82587c.045-.171.072-.3421.072-.5221-.009-1.0893-.8912-1.9805-1.9894-1.9805z" fill="url(#Y)"/><path d="m12.7832 18.7136c0-.6302-.5041-1.1343-1.1342-1.1343-.6302 0-1.1343.5041-1.1343 1.1343 0 .189.045.3691.126.5221h2.0075c.081-.153.135-.3331.135-.5221z" fill="#000"/><g filter="url(#r)"><path d="m13.4583 18.4809c0-.64-.5204-1.0666-.6611-1.1956l-.64.6189.3939.8018z" fill="url(#Z)"/></g><g filter="url(#s)"><ellipse cx="11.0515" cy="17.5793" fill="#c7a7a3" fill-opacity=".9" rx=".864577" ry=".437556" transform="matrix(.88365127 -.46814574 .46814574 .88365127 -6.943846 7.219042)"/><ellipse cx="11.0515" cy="17.5793" fill="url(#aa)" rx=".864577" ry=".437556" transform="matrix(.88365127 -.46814574 .46814574 .88365127 -6.943846 7.219042)"/></g><g filter="url(#t)"><path d="m26.9299 12.3137c-10.8437.8328-15.3183-4.41089-15.3183-9.43867h6.2049c7.2907 0 9.1134 6.29244 9.1134 9.43867z" fill="url(#ab)"/></g></svg>