<svg fill="none" height="32" viewBox="0 0 32 32" width="32" xmlns="http://www.w3.org/2000/svg" xmlns:xlink="http://www.w3.org/1999/xlink"><filter id="a" color-interpolation-filters="sRGB" filterUnits="userSpaceOnUse" height="9.59375" width="6.65625" x="23.8127" y="4.6875"><feFlood flood-opacity="0" result="BackgroundImageFix"/><feBlend in="SourceGraphic" in2="BackgroundImageFix" mode="normal" result="shape"/><feGaussianBlur result="effect1_foregroundBlur_3987_22603" stdDeviation=".5"/></filter><filter id="b" color-interpolation-filters="sRGB" filterUnits="userSpaceOnUse" height="12.7749" width="6.29635" x="16.9788" y="15.2253"><feFlood flood-opacity="0" result="BackgroundImageFix"/><feBlend in="SourceGraphic" in2="BackgroundImageFix" mode="normal" result="shape"/><feColorMatrix in="SourceAlpha" result="hardAlpha" type="matrix" values="0 0 0 0 0 0 0 0 0 0 0 0 0 0 0 0 0 0 127 0"/><feOffset dx=".15"/><feGaussianBlur stdDeviation=".125"/><feComposite in2="hardAlpha" k2="-1" k3="1" operator="arithmetic"/><feColorMatrix type="matrix" values="0 0 0 0 0.533333 0 0 0 0 0.415686 0 0 0 0 0.392157 0 0 0 1 0"/><feBlend in2="shape" mode="normal" result="effect1_innerShadow_3987_22603"/></filter><filter id="c" color-interpolation-filters="sRGB" filterUnits="userSpaceOnUse" height="7.52979" width="10.1453" x="2.99341" y="15.999"><feFlood flood-opacity="0" result="BackgroundImageFix"/><feBlend in="SourceGraphic" in2="BackgroundImageFix" mode="normal" result="shape"/><feColorMatrix in="SourceAlpha" result="hardAlpha" type="matrix" values="0 0 0 0 0 0 0 0 0 0 0 0 0 0 0 0 0 0 127 0"/><feOffset dx=".15"/><feGaussianBlur stdDeviation=".125"/><feComposite in2="hardAlpha" k2="-1" k3="1" operator="arithmetic"/><feColorMatrix type="matrix" values="0 0 0 0 0.533333 0 0 0 0 0.415686 0 0 0 0 0.392157 0 0 0 1 0"/><feBlend in2="shape" mode="normal" result="effect1_innerShadow_3987_22603"/></filter><filter id="d" color-interpolation-filters="sRGB" filterUnits="userSpaceOnUse" height="6.41865" width="4.88749" x="3.55113" y="16.5546"><feFlood flood-opacity="0" result="BackgroundImageFix"/><feBlend in="SourceGraphic" in2="BackgroundImageFix" mode="normal" result="shape"/><feGaussianBlur result="effect1_foregroundBlur_3987_22603" stdDeviation=".2"/></filter><filter id="e" color-interpolation-filters="sRGB" filterUnits="userSpaceOnUse" height="28.2502" width="25.9631" x="2.00024" y="2"><feFlood flood-opacity="0" result="BackgroundImageFix"/><feBlend in="SourceGraphic" in2="BackgroundImageFix" mode="normal" result="shape"/><feColorMatrix in="SourceAlpha" result="hardAlpha" type="matrix" values="0 0 0 0 0 0 0 0 0 0 0 0 0 0 0 0 0 0 127 0"/><feOffset dy=".25"/><feGaussianBlur stdDeviation=".375"/><feComposite in2="hardAlpha" k2="-1" k3="1" operator="arithmetic"/><feColorMatrix type="matrix" values="0 0 0 0 0.423529 0 0 0 0 0.262745 0 0 0 0 0.231373 0 0 0 1 0"/><feBlend in2="shape" mode="normal" result="effect1_innerShadow_3987_22603"/></filter><filter id="f" color-interpolation-filters="sRGB" filterUnits="userSpaceOnUse" height="28.2502" width="25.9631" x="2.00024" y="2"><feFlood flood-opacity="0" result="BackgroundImageFix"/><feBlend in="SourceGraphic" in2="BackgroundImageFix" mode="normal" result="shape"/><feColorMatrix in="SourceAlpha" result="hardAlpha" type="matrix" values="0 0 0 0 0 0 0 0 0 0 0 0 0 0 0 0 0 0 127 0"/><feOffset dy=".25"/><feGaussianBlur stdDeviation=".375"/><feComposite in2="hardAlpha" k2="-1" k3="1" operator="arithmetic"/><feColorMatrix type="matrix" values="0 0 0 0 0.423529 0 0 0 0 0.262745 0 0 0 0 0.231373 0 0 0 1 0"/><feBlend in2="shape" mode="normal" result="effect1_innerShadow_3987_22603"/></filter><filter id="g" color-interpolation-filters="sRGB" filterUnits="userSpaceOnUse" height="7.8125" width="5.60938" x="16.9846" y="20.625"><feFlood flood-opacity="0" result="BackgroundImageFix"/><feBlend in="SourceGraphic" in2="BackgroundImageFix" mode="normal" result="shape"/><feGaussianBlur result="effect1_foregroundBlur_3987_22603" stdDeviation=".5"/></filter><filter id="h" color-interpolation-filters="sRGB" filterUnits="userSpaceOnUse" height="7.8085" width="4.95059" x="16.9114" y="6.6875"><feFlood flood-opacity="0" result="BackgroundImageFix"/><feBlend in="SourceGraphic" in2="BackgroundImageFix" mode="normal" result="shape"/><feColorMatrix in="SourceAlpha" result="hardAlpha" type="matrix" values="0 0 0 0 0 0 0 0 0 0 0 0 0 0 0 0 0 0 127 0"/><feOffset dx=".1" dy=".1"/><feGaussianBlur stdDeviation=".1"/><feComposite in2="hardAlpha" k2="-1" k3="1" operator="arithmetic"/><feColorMatrix type="matrix" values="0 0 0 0 0.407843 0 0 0 0 0.380392 0 0 0 0 0.443137 0 0 0 1 0"/><feBlend in2="shape" mode="normal" result="effect1_innerShadow_3987_22603"/></filter><filter id="i" color-interpolation-filters="sRGB" filterUnits="userSpaceOnUse" height="13.5156" width="8.63173" x="5.89087" y="1.45312"><feFlood flood-opacity="0" result="BackgroundImageFix"/><feBlend in="SourceGraphic" in2="BackgroundImageFix" mode="normal" result="shape"/><feGaussianBlur result="effect1_foregroundBlur_3987_22603" stdDeviation=".5"/></filter><filter id="j" color-interpolation-filters="sRGB" filterUnits="userSpaceOnUse" height="15.783" width="9.0625" x="20.1252" y="10.7483"><feFlood flood-opacity="0" result="BackgroundImageFix"/><feBlend in="SourceGraphic" in2="BackgroundImageFix" mode="normal" result="shape"/><feGaussianBlur result="effect1_foregroundBlur_3987_22603" stdDeviation="1"/></filter><filter id="k" color-interpolation-filters="sRGB" filterUnits="userSpaceOnUse" height="14.0598" width="5.63476" x="22.4905" y="16.2812"><feFlood flood-opacity="0" result="BackgroundImageFix"/><feBlend in="SourceGraphic" in2="BackgroundImageFix" mode="normal" result="shape"/><feGaussianBlur result="effect1_foregroundBlur_3987_22603" stdDeviation=".5"/></filter><filter id="l" color-interpolation-filters="sRGB" filterUnits="userSpaceOnUse" height="3.46875" width="2.59375" x="6.54712" y="2.20312"><feFlood flood-opacity="0" result="BackgroundImageFix"/><feBlend in="SourceGraphic" in2="BackgroundImageFix" mode="normal" result="shape"/><feGaussianBlur result="effect1_foregroundBlur_3987_22603" stdDeviation=".125"/></filter><filter id="m" color-interpolation-filters="sRGB" filterUnits="userSpaceOnUse" height="6.38525" width="4.56447" x="7.43578" y="19.2224"><feFlood flood-opacity="0" result="BackgroundImageFix"/><feBlend in="SourceGraphic" in2="BackgroundImageFix" mode="normal" result="shape"/><feGaussianBlur result="effect1_foregroundBlur_3987_22603" stdDeviation=".25"/></filter><filter id="n" color-interpolation-filters="sRGB" filterUnits="userSpaceOnUse" height="3.28247" width="1.13002" x="6.95924" y="20.3535"><feFlood flood-opacity="0" result="BackgroundImageFix"/><feBlend in="SourceGraphic" in2="BackgroundImageFix" mode="normal" result="shape"/><feGaussianBlur result="effect1_foregroundBlur_3987_22603" stdDeviation=".125"/></filter><filter id="o" color-interpolation-filters="sRGB" filterUnits="userSpaceOnUse" height="13.3438" width="5.03125" x="5.89087" y="6.2959"><feFlood flood-opacity="0" result="BackgroundImageFix"/><feBlend in="SourceGraphic" in2="BackgroundImageFix" mode="normal" result="shape"/><feGaussianBlur result="effect1_foregroundBlur_3987_22603" stdDeviation=".5"/></filter><filter id="p" color-interpolation-filters="sRGB" filterUnits="userSpaceOnUse" height="3.56592" width="6.62878" x="9.25024" y="9.88281"><feFlood flood-opacity="0" result="BackgroundImageFix"/><feBlend in="SourceGraphic" in2="BackgroundImageFix" mode="normal" result="shape"/><feGaussianBlur result="effect1_foregroundBlur_3987_22603" stdDeviation=".5"/></filter><filter id="q" color-interpolation-filters="sRGB" filterUnits="userSpaceOnUse" height="7.75974" width="1.07297" x="8.13968" y="3.04272"><feFlood flood-opacity="0" result="BackgroundImageFix"/><feBlend in="SourceGraphic" in2="BackgroundImageFix" mode="normal" result="shape"/><feColorMatrix in="SourceAlpha" result="hardAlpha" type="matrix" values="0 0 0 0 0 0 0 0 0 0 0 0 0 0 0 0 0 0 127 0"/><feOffset dx="-.03" dy=".03"/><feGaussianBlur stdDeviation=".03"/><feComposite in2="hardAlpha" k2="-1" k3="1" operator="arithmetic"/><feColorMatrix type="matrix" values="0 0 0 0 0.345098 0 0 0 0 0.870588 0 0 0 0 0.560784 0 0 0 1 0"/><feBlend in2="shape" mode="normal" result="effect1_innerShadow_3987_22603"/></filter><filter id="r" color-interpolation-filters="sRGB" filterUnits="userSpaceOnUse" height="5.8049" width="9.04633" x="3.2095" y="5.89062"><feFlood flood-opacity="0" result="BackgroundImageFix"/><feBlend in="SourceGraphic" in2="BackgroundImageFix" mode="normal" result="shape"/><feColorMatrix in="SourceAlpha" result="hardAlpha" type="matrix" values="0 0 0 0 0 0 0 0 0 0 0 0 0 0 0 0 0 0 127 0"/><feOffset dx="-.03" dy=".03"/><feGaussianBlur stdDeviation=".03"/><feComposite in2="hardAlpha" k2="-1" k3="1" operator="arithmetic"/><feColorMatrix type="matrix" values="0 0 0 0 0.345098 0 0 0 0 0.870588 0 0 0 0 0.560784 0 0 0 1 0"/><feBlend in2="shape" mode="normal" result="effect1_innerShadow_3987_22603"/></filter><filter id="s" color-interpolation-filters="sRGB" filterUnits="userSpaceOnUse" height="6.8125" width="10.0844" x="14.0619" y="11.2969"><feFlood flood-opacity="0" result="BackgroundImageFix"/><feBlend in="SourceGraphic" in2="BackgroundImageFix" mode="normal" result="shape"/><feColorMatrix in="SourceAlpha" result="hardAlpha" type="matrix" values="0 0 0 0 0 0 0 0 0 0 0 0 0 0 0 0 0 0 127 0"/><feOffset dx="-.1"/><feGaussianBlur stdDeviation=".15"/><feComposite in2="hardAlpha" k2="-1" k3="1" operator="arithmetic"/><feColorMatrix type="matrix" values="0 0 0 0 0.337255 0 0 0 0 0.862745 0 0 0 0 0.564706 0 0 0 1 0"/><feBlend in2="shape" mode="normal" result="effect1_innerShadow_3987_22603"/></filter><filter id="t" color-interpolation-filters="sRGB" filterUnits="userSpaceOnUse" height="5.96553" width="4.39834" x="16.9113" y="11.3439"><feFlood flood-opacity="0" result="BackgroundImageFix"/><feBlend in="SourceGraphic" in2="BackgroundImageFix" mode="normal" result="shape"/><feGaussianBlur result="effect1_foregroundBlur_3987_22603" stdDeviation=".325"/></filter><filter id="u" color-interpolation-filters="sRGB" filterUnits="userSpaceOnUse" height="10.2977" width="5.8696" x="17.8986" y="6.21753"><feFlood flood-opacity="0" result="BackgroundImageFix"/><feBlend in="SourceGraphic" in2="BackgroundImageFix" mode="normal" result="shape"/><feColorMatrix in="SourceAlpha" result="hardAlpha" type="matrix" values="0 0 0 0 0 0 0 0 0 0 0 0 0 0 0 0 0 0 127 0"/><feOffset dx="-.15" dy=".15"/><feGaussianBlur stdDeviation=".3"/><feComposite in2="hardAlpha" k2="-1" k3="1" operator="arithmetic"/><feColorMatrix type="matrix" values="0 0 0 0 0.784314 0 0 0 0 0.780392 0 0 0 0 0.780392 0 0 0 1 0"/><feBlend in2="shape" mode="normal" result="effect1_innerShadow_3987_22603"/><feColorMatrix in="SourceAlpha" result="hardAlpha" type="matrix" values="0 0 0 0 0 0 0 0 0 0 0 0 0 0 0 0 0 0 127 0"/><feOffset dx=".2"/><feGaussianBlur stdDeviation=".2"/><feComposite in2="hardAlpha" k2="-1" k3="1" operator="arithmetic"/><feColorMatrix type="matrix" values="0 0 0 0 0.486275 0 0 0 0 0.47451 0 0 0 0 0.541176 0 0 0 1 0"/><feBlend in2="effect1_innerShadow_3987_22603" mode="normal" result="effect2_innerShadow_3987_22603"/></filter><filter id="v" color-interpolation-filters="sRGB" filterUnits="userSpaceOnUse" height="2.86157" width="2.50377" x="18.0491" y="13.5034"><feFlood flood-opacity="0" result="BackgroundImageFix"/><feBlend in="SourceGraphic" in2="BackgroundImageFix" mode="normal" result="shape"/><feColorMatrix in="SourceAlpha" result="hardAlpha" type="matrix" values="0 0 0 0 0 0 0 0 0 0 0 0 0 0 0 0 0 0 127 0"/><feOffset dx=".2"/><feGaussianBlur stdDeviation=".1"/><feComposite in2="hardAlpha" k2="-1" k3="1" operator="arithmetic"/><feColorMatrix type="matrix" values="0 0 0 0 0.152941 0 0 0 0 0.243137 0 0 0 0 0.196078 0 0 0 1 0"/><feBlend in2="shape" mode="normal" result="effect1_innerShadow_3987_22603"/></filter><filter id="w" color-interpolation-filters="sRGB" filterUnits="userSpaceOnUse" height="6.22549" width="9.64832" x="10.5168" y="5.86753"><feFlood flood-opacity="0" result="BackgroundImageFix"/><feBlend in="SourceGraphic" in2="BackgroundImageFix" mode="normal" result="shape"/><feColorMatrix in="SourceAlpha" result="hardAlpha" type="matrix" values="0 0 0 0 0 0 0 0 0 0 0 0 0 0 0 0 0 0 127 0"/><feOffset dx=".25" dy="-.35"/><feGaussianBlur stdDeviation=".3"/><feComposite in2="hardAlpha" k2="-1" k3="1" operator="arithmetic"/><feColorMatrix type="matrix" values="0 0 0 0 0.294118 0 0 0 0 0.223529 0 0 0 0 0.517647 0 0 0 1 0"/><feBlend in2="shape" mode="normal" result="effect1_innerShadow_3987_22603"/></filter><filter id="x" color-interpolation-filters="sRGB" filterUnits="userSpaceOnUse" height="2.01641" width="1.8263" x="10.5081" y="10.0764"><feFlood flood-opacity="0" result="BackgroundImageFix"/><feBlend in="SourceGraphic" in2="BackgroundImageFix" mode="normal" result="shape"/><feColorMatrix in="SourceAlpha" result="hardAlpha" type="matrix" values="0 0 0 0 0 0 0 0 0 0 0 0 0 0 0 0 0 0 127 0"/><feOffset dx=".1" dy="-.2"/><feGaussianBlur stdDeviation=".3"/><feComposite in2="hardAlpha" k2="-1" k3="1" operator="arithmetic"/><feColorMatrix type="matrix" values="0 0 0 0 0.564706 0 0 0 0 0.34902 0 0 0 0 0.396078 0 0 0 1 0"/><feBlend in2="shape" mode="normal" result="effect1_innerShadow_3987_22603"/></filter><filter id="y" color-interpolation-filters="sRGB" filterUnits="userSpaceOnUse" height="4.66431" width="4.25867" x="12.1042" y="2.72021"><feFlood flood-opacity="0" result="BackgroundImageFix"/><feBlend in="SourceGraphic" in2="BackgroundImageFix" mode="normal" result="shape"/><feColorMatrix in="SourceAlpha" result="hardAlpha" type="matrix" values="0 0 0 0 0 0 0 0 0 0 0 0 0 0 0 0 0 0 127 0"/><feOffset dx="-.25" dy="-.25"/><feGaussianBlur stdDeviation=".25"/><feComposite in2="hardAlpha" k2="-1" k3="1" operator="arithmetic"/><feColorMatrix type="matrix" values="0 0 0 0 0.592157 0 0 0 0 0.356863 0 0 0 0 0.458824 0 0 0 1 0"/><feBlend in2="shape" mode="normal" result="effect1_innerShadow_3987_22603"/></filter><filter id="z" color-interpolation-filters="sRGB" filterUnits="userSpaceOnUse" height="3.38193" width="4.06009" x="12.9865" y="3.05361"><feFlood flood-opacity="0" result="BackgroundImageFix"/><feBlend in="SourceGraphic" in2="BackgroundImageFix" mode="normal" result="shape"/><feColorMatrix in="SourceAlpha" result="hardAlpha" type="matrix" values="0 0 0 0 0 0 0 0 0 0 0 0 0 0 0 0 0 0 127 0"/><feOffset dx="-.15"/><feGaussianBlur stdDeviation=".15"/><feComposite in2="hardAlpha" k2="-1" k3="1" operator="arithmetic"/><feColorMatrix type="matrix" values="0 0 0 0 0.384314 0 0 0 0 0.286275 0 0 0 0 0.286275 0 0 0 1 0"/><feBlend in2="shape" mode="normal" result="effect1_innerShadow_3987_22603"/><feColorMatrix in="SourceAlpha" result="hardAlpha" type="matrix" values="0 0 0 0 0 0 0 0 0 0 0 0 0 0 0 0 0 0 127 0"/><feOffset dx=".15" dy="-.15"/><feGaussianBlur stdDeviation=".15"/><feComposite in2="hardAlpha" k2="-1" k3="1" operator="arithmetic"/><feColorMatrix type="matrix" values="0 0 0 0 0.164706 0 0 0 0 0.0901961 0 0 0 0 0.101961 0 0 0 1 0"/><feBlend in2="effect1_innerShadow_3987_22603" mode="normal" result="effect2_innerShadow_3987_22603"/></filter><radialGradient id="A" cx="0" cy="0" gradientTransform="matrix(2.31249727 1.32812347 -1.34622689 2.34401851 26.594 9.48437)" gradientUnits="userSpaceOnUse" r="1"><stop offset="0" stop-color="#535254" stop-opacity="0"/><stop offset="1" stop-color="#535254"/></radialGradient><linearGradient id="B" gradientUnits="userSpaceOnUse" x1="1.74279" x2="6.06669" y1="9.53418" y2="6.04317"><stop offset=".00558659" stop-color="#dc872a"/><stop offset="1" stop-color="#ffdea7"/></linearGradient><radialGradient id="C" cx="0" cy="0" gradientTransform="matrix(-3.22038047 2.17372819 -4.08888155 -6.05768209 17.8665 6.90558)" gradientUnits="userSpaceOnUse" r="1"><stop offset="0" stop-color="#535253"/><stop offset="1" stop-color="#363335"/></radialGradient><radialGradient id="D" cx="0" cy="0" gradientTransform="matrix(4.21876328 9.53127141 -10.1300392 4.48379189 11.0628 2.65631)" gradientUnits="userSpaceOnUse" r="1"><stop offset=".794641" stop-color="#1e1818" stop-opacity="0"/><stop offset="1" stop-color="#1e1818"/></radialGradient><linearGradient id="E" gradientUnits="userSpaceOnUse" x1="14.3845" x2="11.5063" y1="7.52952" y2="9.24034"><stop offset=".515683" stop-color="#1e1818" stop-opacity="0"/><stop offset="1" stop-color="#1e1818"/></linearGradient><linearGradient id="F"><stop offset="0" stop-color="#5a5a5b"/><stop offset="1" stop-color="#5a5a5b" stop-opacity="0"/></linearGradient><radialGradient id="G" cx="0" cy="0" gradientTransform="matrix(-1.51142573 1.89658688 -1.12443686 -.89608487 13.6211 4.3066)" gradientUnits="userSpaceOnUse" r="1" xlink:href="#F"/><radialGradient id="H" cx="0" cy="0" gradientTransform="matrix(-2.52563824 2.11911188 -.89938957 -1.07192674 16.0103 7.09969)" gradientUnits="userSpaceOnUse" r="1" xlink:href="#F"/><radialGradient id="I" cx="0" cy="0" gradientTransform="matrix(-2.34374937 1.64062333 -.26724249 -.38177528 17.9378 7.89069)" gradientUnits="userSpaceOnUse" r="1"><stop offset=".0311178" stop-color="#5a5a5b"/><stop offset=".893168" stop-color="#5a5a5b" stop-opacity="0"/></radialGradient><radialGradient id="J" cx="0" cy="0" gradientTransform="matrix(-2.32810923 2.53126771 -.41231967 -.37922707 14.0628 2.79694)" gradientUnits="userSpaceOnUse" r="1" xlink:href="#F"/><linearGradient id="K"><stop offset="0" stop-color="#343435"/><stop offset="1" stop-color="#343435" stop-opacity="0"/></linearGradient><radialGradient id="L" cx="0" cy="0" gradientTransform="matrix(-2.16972406 .91893809 -.40706192 -.96112247 14.7763 4.89428)" gradientUnits="userSpaceOnUse" r="1" xlink:href="#K"/><radialGradient id="M" cx="0" cy="0" gradientTransform="matrix(-.82339412 .76562722 -.34492754 -.37095247 13.43 4.72662)" gradientUnits="userSpaceOnUse" r="1" xlink:href="#K"/><radialGradient id="N" cx="0" cy="0" gradientTransform="matrix(-2.35937235 1.21875388 -.54907167 -1.06294186 16.4222 7.87506)" gradientUnits="userSpaceOnUse" r="1" xlink:href="#K"/><radialGradient id="O" cx="0" cy="0" gradientTransform="matrix(-1.40624097 1.42188831 -.68018167 -.67269654 15.3753 7.37506)" gradientUnits="userSpaceOnUse" r="1" xlink:href="#K"/><radialGradient id="P" cx="0" cy="0" gradientTransform="matrix(1.89151051 -1.62855887 .98903633 1.14872888 3.88692 4.6288)" gradientUnits="userSpaceOnUse" r="1"><stop offset="0" stop-color="#2b292d"/><stop offset="1" stop-color="#1f1818"/></radialGradient><radialGradient id="Q" cx="0" cy="0" gradientTransform="matrix(-1.86009501 -.80150685 .96608756 -2.24204527 5.66735 5.00774)" gradientUnits="userSpaceOnUse" r="1"><stop offset=".840498" stop-color="#4a494a" stop-opacity="0"/><stop offset="1" stop-color="#4a494a"/></radialGradient><linearGradient id="R" gradientUnits="userSpaceOnUse" x1="20.9064" x2="15.6704" y1="19.4376" y2="21.5383"><stop offset="0" stop-color="#522a34"/><stop offset="1" stop-color="#805655"/></linearGradient><radialGradient id="S" cx="0" cy="0" gradientTransform="matrix(0 -.851562 2.14227 0 17.9822 28.1407)" gradientUnits="userSpaceOnUse" r="1"><stop offset="0" stop-color="#794562"/><stop offset="1" stop-color="#784d65" stop-opacity="0"/></radialGradient><linearGradient id="T" gradientUnits="userSpaceOnUse" x1="7.99107" x2="2.99341" y1="16.9688" y2="22.0001"><stop offset="0" stop-color="#5a3933"/><stop offset="1" stop-color="#805655"/></linearGradient><radialGradient id="U" cx="0" cy="0" gradientTransform="matrix(-.71875283 -.71875283 1.42015326 -1.42015326 5.34393 23.1251)" gradientUnits="userSpaceOnUse" r="1"><stop offset="0" stop-color="#784d65"/><stop offset="1" stop-color="#784d65" stop-opacity="0"/></radialGradient><radialGradient id="V" cx="0" cy="0" gradientTransform="matrix(-1.5703092 -1.52343703 1.11774375 -1.15213379 6.79706 18.7813)" gradientUnits="userSpaceOnUse" r="1"><stop offset="0" stop-color="#5f3553"/><stop offset="1" stop-color="#5f3553" stop-opacity="0"/></radialGradient><linearGradient id="W" gradientUnits="userSpaceOnUse" x1="4.74487" x2="8.30737" y1="19.7639" y2="17.4358"><stop offset="0" stop-color="#876363"/><stop offset="1" stop-color="#876363" stop-opacity="0"/></linearGradient><linearGradient id="X" gradientUnits="userSpaceOnUse" x1="8.55785" x2="21.2456" y1="1.98081" y2="26.3704"><stop offset="0" stop-color="#925f52"/><stop offset="1" stop-color="#8a525a"/></linearGradient><radialGradient id="Y" cx="0" cy="0" gradientTransform="matrix(-1.87505201 -6.3749879 8.62478104 -2.53677548 9.43774 26)" gradientUnits="userSpaceOnUse" r="1"><stop offset="0" stop-color="#6a433b"/><stop offset="1" stop-color="#6a433b" stop-opacity="0"/></radialGradient><linearGradient id="Z"><stop offset="0" stop-color="#733b61"/><stop offset="1" stop-color="#643655" stop-opacity="0"/></linearGradient><radialGradient id="aa" cx="0" cy="0" gradientTransform="matrix(0 -1.875 6.53125 0 16.2815 21.25)" gradientUnits="userSpaceOnUse" r="1" xlink:href="#Z"/><radialGradient id="ab" cx="0" cy="0" gradientTransform="matrix(1.09374944 -2.09375153 4.79589308 2.50531417 21.4065 22.5938)" gradientUnits="userSpaceOnUse" r="1" xlink:href="#Z"/><radialGradient id="ac" cx="0" cy="0" gradientTransform="matrix(4.8124939 -1.43750241 3.10116546 10.38213205 5.87524 13.75)" gradientUnits="userSpaceOnUse" r="1"><stop offset="0" stop-color="#855f53"/><stop offset="1" stop-color="#855f53" stop-opacity="0"/></radialGradient><radialGradient id="ad" cx="0" cy="0" gradientTransform="matrix(2.59375372 -1.51562479 .69874606 1.19579411 4.96899 8.76563)" gradientUnits="userSpaceOnUse" r="1"><stop offset="0" stop-color="#6f3e55"/><stop offset="1" stop-color="#6f3e55" stop-opacity="0"/></radialGradient><radialGradient id="ae" cx="0" cy="0" gradientTransform="matrix(.67187469 .4296884 -1.30181912 2.03556652 6.00024 2.78906)" gradientUnits="userSpaceOnUse" r="1"><stop offset="0" stop-color="#926c60"/><stop offset="1" stop-color="#926c60" stop-opacity="0"/></radialGradient><radialGradient id="af" cx="0" cy="0" gradientTransform="matrix(.57812311 -1.42187284 6.45398597 2.62414357 9.73462 25.8281)" gradientUnits="userSpaceOnUse" r="1"><stop offset="0" stop-color="#633456"/><stop offset="1" stop-color="#633456" stop-opacity="0"/></radialGradient><radialGradient id="ag" cx="0" cy="0" gradientTransform="matrix(-.32031709 .53124725 -1.9945579 -1.20262457 10.8831 23.7344)" gradientUnits="userSpaceOnUse" r="1"><stop offset="0" stop-color="#6a463f"/><stop offset="1" stop-color="#6a463f" stop-opacity="0"/></radialGradient><radialGradient id="ah" cx="0" cy="0" gradientTransform="matrix(1.06250151 -.67187506 .27910946 .44138299 8.26587 19.4062)" gradientUnits="userSpaceOnUse" r="1"><stop offset="0" stop-color="#97716c"/><stop offset="1" stop-color="#97716c" stop-opacity="0"/></radialGradient><linearGradient id="ai" gradientUnits="userSpaceOnUse" x1="2.89087" x2="3.60834" y1="8.0469" y2="9.68859"><stop offset=".00558659" stop-color="#d09e6c"/><stop offset="1" stop-color="#c47c8f"/></linearGradient><radialGradient id="aj" cx="0" cy="0" gradientTransform="matrix(1.44220405 -.80985351 .22470971 .40016774 2.40582 8.52273)" gradientUnits="userSpaceOnUse" r="1"><stop offset="0" stop-color="#d7aa87"/><stop offset="1" stop-color="#d7aa87" stop-opacity="0"/></radialGradient><radialGradient id="ak" cx="0" cy="0" gradientTransform="matrix(-.40625364 .56249786 -.50148884 -.36219101 6.14331 5.85083)" gradientUnits="userSpaceOnUse" r="1"><stop offset=".00558659" stop-color="#433437"/><stop offset="1" stop-color="#3b2838"/></radialGradient><radialGradient id="al" cx="0" cy="0" gradientTransform="matrix(-.22817824 .20597963 -.18121225 -.20074165 6.18173 5.88672)" gradientUnits="userSpaceOnUse" r="1"><stop offset="0" stop-color="#5c5051"/><stop offset="1" stop-color="#5c5051" stop-opacity="0"/></radialGradient><linearGradient id="am" gradientUnits="userSpaceOnUse" x1="5.89658" x2="5.55283" y1="5.61899" y2="5.40024"><stop offset="0" stop-color="#5c5051" stop-opacity="0"/><stop offset="1" stop-color="#5c5051"/></linearGradient><linearGradient id="an" gradientUnits="userSpaceOnUse" x1="18.15" x2="21.5486" y1="27.0313" y2="21.6743"><stop offset="0" stop-color="#82585e"/><stop offset="1" stop-color="#82585e" stop-opacity="0"/></linearGradient><linearGradient id="ao" gradientUnits="userSpaceOnUse" x1="7.90117" x2="14.2318" y1="3.63002" y2="13.9687"><stop offset="0" stop-color="#ab8073"/><stop offset="1" stop-color="#ab8073" stop-opacity="0"/></linearGradient><linearGradient id="ap" gradientUnits="userSpaceOnUse" x1="28.9377" x2="25.719" y1="12.7483" y2="24.7813"><stop offset="0" stop-color="#a47c71"/><stop offset="1" stop-color="#a47c71" stop-opacity="0"/></linearGradient><linearGradient id="aq" gradientUnits="userSpaceOnUse" x1="27.5002" x2="21.2815" y1="19.1875" y2="33.0625"><stop offset="0" stop-color="#a47c71" stop-opacity="0"/><stop offset=".239156" stop-color="#a47c71"/><stop offset="1" stop-color="#a47c71" stop-opacity="0"/></linearGradient><linearGradient id="ar" gradientUnits="userSpaceOnUse" x1="7.37524" x2="8.89087" y1="2.75" y2="5.625"><stop offset="0" stop-color="#9f7667"/><stop offset="1" stop-color="#9f7667" stop-opacity="0"/></linearGradient><linearGradient id="as"><stop offset="0" stop-color="#8b6c67"/><stop offset="1" stop-color="#8b6c67" stop-opacity="0"/></linearGradient><linearGradient id="at" gradientUnits="userSpaceOnUse" x1="9.37524" x2="10.1565" xlink:href="#as" y1="24.2189" y2="17.7814"/><linearGradient id="au" gradientUnits="userSpaceOnUse" x1="7.01581" x2="8.01139" xlink:href="#as" y1="21.8437" y2="21.9826"/><linearGradient id="av" gradientUnits="userSpaceOnUse" x1="8.69116" x2="8.69116" y1="3.63184" y2="10.7725"><stop offset="0" stop-color="#3dc581"/><stop offset="1" stop-color="#4cbf8d"/></linearGradient><linearGradient id="aw" gradientUnits="userSpaceOnUse" x1="3.6106" x2="9.2981" y1="6.53125" y2="12.4063"><stop offset="0" stop-color="#38b77c"/><stop offset="1" stop-color="#47b788"/></linearGradient><radialGradient id="ax" cx="0" cy="0" gradientTransform="matrix(-1.8125 0 0 -1.72813 11.0481 11.6656)" gradientUnits="userSpaceOnUse" r="1"><stop offset=".288461" stop-color="#368666"/><stop offset="1" stop-color="#46b988" stop-opacity="0"/></radialGradient><linearGradient id="ay" gradientUnits="userSpaceOnUse" x1="23.9541" x2="14.1619" y1="14.9687" y2="14.9687"><stop offset="0" stop-color="#3fc284"/><stop offset="1" stop-color="#42bc88"/></linearGradient><radialGradient id="az" cx="0" cy="0" gradientTransform="matrix(0 5.37791 -5.97427 0 19.1541 11.8721)" gradientUnits="userSpaceOnUse" r="1"><stop offset="0" stop-color="#3da97e"/><stop offset="1" stop-color="#3da97e" stop-opacity="0"/></radialGradient><linearGradient id="aA" gradientUnits="userSpaceOnUse" x1="16.0479" x2="15.0479" y1="6.31244" y2="7.32806"><stop offset="0" stop-color="#643543"/><stop offset="1" stop-color="#916868"/></linearGradient><radialGradient id="aB" cx="0" cy="0" gradientTransform="matrix(4.48913613 -2.99999821 2.49439315 3.73255903 19.0791 10.3126)" gradientUnits="userSpaceOnUse" r="1"><stop offset=".598909" stop-color="#d6c8e3" stop-opacity="0"/><stop offset=".846088" stop-color="#f5f0fb"/></radialGradient><radialGradient id="aC" cx="0" cy="0" gradientTransform="matrix(1.4375 0 0 3.70312 19.7041 8.00011)" gradientUnits="userSpaceOnUse" r="1"><stop offset=".282982" stop-color="#d6c8e5"/><stop offset="1" stop-color="#d6c8e5" stop-opacity="0"/></radialGradient><linearGradient id="aD" gradientUnits="userSpaceOnUse" x1="20.1106" x2="19.2009" y1="15.3437" y2="15.3437"><stop offset="0" stop-color="#45424a"/><stop offset="1" stop-color="#32253e"/></linearGradient><radialGradient id="aE" cx="0" cy="0" gradientTransform="matrix(0 -.546875 2.1875 0 19.2903 16.4062)" gradientUnits="userSpaceOnUse" r="1"><stop offset=".171428" stop-color="#2f293f"/><stop offset="1" stop-color="#2f293f" stop-opacity="0"/></radialGradient><linearGradient id="aF" gradientUnits="userSpaceOnUse" x1="18.8918" x2="12.0793" y1="7.12511" y2="12.7501"><stop offset="0" stop-color="#7764b3"/><stop offset="1" stop-color="#7a63b7"/></linearGradient><linearGradient id="aG" gradientUnits="userSpaceOnUse" x1="18.7356" x2="18.7356" y1="5.87511" y2="7.34386"><stop offset=".106383" stop-color="#7468a1"/><stop offset="1" stop-color="#7468a1" stop-opacity="0"/></linearGradient><radialGradient id="aH" cx="0" cy="0" gradientTransform="matrix(.5625 0 0 1.14821 10.6478 11.1846)" gradientUnits="userSpaceOnUse" r="1"><stop offset="0" stop-color="#a17f72"/><stop offset="1" stop-color="#a17f72" stop-opacity="0"/></radialGradient><linearGradient id="aI" gradientUnits="userSpaceOnUse" x1="12.8291" x2="15.6104" y1="5.59382" y2="5.59382"><stop offset="0" stop-color="#9e776c"/><stop offset="1" stop-color="#96726e"/></linearGradient><radialGradient id="aJ" cx="0" cy="0" gradientTransform="matrix(0 -3.98438 .812733 0 13.2257 6.61056)" gradientUnits="userSpaceOnUse" r="1"><stop offset="0" stop-color="#a77b70"/><stop offset="1" stop-color="#a77b70" stop-opacity="0"/></radialGradient><radialGradient id="aK" cx="0" cy="0" gradientTransform="matrix(0 .734375 -2.1875 0 15.595 3.96878)" gradientUnits="userSpaceOnUse" r="1"><stop offset="0" stop-color="#341b2b"/><stop offset="1" stop-color="#341b2b" stop-opacity="0"/></radialGradient><radialGradient id="aL" cx="0" cy="0" gradientTransform="matrix(-.45312353 .60937556 -.50662331 -.37671833 15.509 4.92963)" gradientUnits="userSpaceOnUse" r="1"><stop offset="0" stop-color="#987868"/><stop offset="1" stop-color="#946571"/></radialGradient><radialGradient id="aM" cx="0" cy="0" gradientTransform="matrix(.22546369 -.00781249 .00644395 .18596839 15.4681 4.91512)" gradientUnits="userSpaceOnUse" r="1"><stop offset="0" stop-color="#b59789"/><stop offset="1" stop-color="#b59789" stop-opacity="0"/></radialGradient><radialGradient id="aN" cx="0" cy="0" gradientTransform="matrix(0 2.03349 -.609375 0 15.4387 5.48238)" gradientUnits="userSpaceOnUse" r="1"><stop offset="0" stop-color="#8e77c8"/><stop offset="1" stop-color="#6544a7"/></radialGradient><linearGradient id="aO" gradientUnits="userSpaceOnUse" x1="14.9225" x2="14.9225" y1="4.09386" y2="4.65636"><stop offset="0" stop-color="#4e3886"/><stop offset="1" stop-color="#4e3886" stop-opacity="0"/></linearGradient><radialGradient id="aP" cx="0" cy="0" gradientTransform="matrix(0 .762702 -.352173 0 15.2747 5.02355)" gradientUnits="userSpaceOnUse" r="1"><stop offset=".358511" stop-color="#603c71"/><stop offset="1" stop-color="#603c71" stop-opacity="0"/></radialGradient><radialGradient id="aQ" cx="0" cy="0" gradientTransform="matrix(-2.34375 0 0 -1.45351 16.0481 4.18798)" gradientUnits="userSpaceOnUse" r="1"><stop offset="0" stop-color="#9684cd"/><stop offset="1" stop-color="#6e5ca2"/></radialGradient><linearGradient id="aR" gradientUnits="userSpaceOnUse" x1="15.4387" x2="15.4387" y1="4.18798" y2="3.96104"><stop offset=".104224" stop-color="#6c4ba9"/><stop offset="1" stop-color="#6c4ba9" stop-opacity="0"/></linearGradient><radialGradient id="aS" cx="0" cy="0" gradientTransform="matrix(.518555 0 0 .40625 12.0608 3.70323)" gradientUnits="userSpaceOnUse" r="1"><stop offset="0" stop-color="#7668a3"/><stop offset="1" stop-color="#7668a3" stop-opacity="0"/></radialGradient><path d="m28.0026 6.64764v-1.1625c0-.26813.2172-.48563.4849-.48563.8351 0 1.5123.67813 1.5123 1.51438v1.98875c0 1.38062-1.1178 2.49996-2.4965 2.49996h-1.154c-.1966 0-.3558.1594-.3558.3563v4.6412h-1.9972v-6.49621c0-1.38063 1.1178-2.5 2.4965-2.5h1.154c.1966 0 .3558-.15938.3558-.35625z" fill="#292727"/><g filter="url(#a)"><path d="m28.719 5.6875v1.875h-1.9063c-1.1045 0-2 .89543-2 2v3.7187h.6094v-2.9374h2.0469c1.1045 0 2-.89548 2-2.00005v-1.53125c0-.49201-.2958-.93577-.75-1.125z" fill="url(#A)"/></g><path d="m2.99844 6.91846c-.3364.3625-.73896.77875-.73896.77875-.21969.25687-.30956.60625-.23155.94625.15478.675.83882 1.0075 1.48042.74875l.76892-.31063z" fill="url(#B)"/><path d="m7.59644 5.14149c0 .08285.06715.15.15.15h1.08995c.08284 0 .15.06716.15.15v2.92121c0 .08285.06716.15.15.15h1.69911c.0828 0 .15.06716.15.15v3.6156c0 .0828.0671.15.15.15h2.475c2.2132 0 4.0069-1.7963 4.0063-4.0125 0-.2275-.1842-.4125-.412-.4125h-2.0243c-.1486 0-.2166-.20726-.1089-.30963.5907-.56149.9271-1.36408.9268-2.25534 0-.24063-.1948-.43625-.4357-.43625h-2.1523c-.1501 0-.2238-.2207-.1239-.33265.2944-.32973.4735-.76501.4738-1.24231 0-.23563-.191-.42688-.4263-.42688h-5.58756c-.08285 0-.15.06716-.15.15z" fill="url(#C)"/><path d="m7.59644 5.14149c0 .08285.06715.15.15.15h1.08995c.08284 0 .15.06716.15.15v2.92121c0 .08285.06716.15.15.15h1.69911c.0828 0 .15.06716.15.15v3.6156c0 .0828.0671.15.15.15h2.475c2.2132 0 4.0069-1.7963 4.0063-4.0125 0-.2275-.1842-.4125-.412-.4125h-2.0243c-.1486 0-.2166-.20726-.1089-.30963.5907-.56149.9271-1.36408.9268-2.25534 0-.24063-.1948-.43625-.4357-.43625h-2.1523c-.1501 0-.2238-.2207-.1239-.33265.2944-.32973.4735-.76501.4738-1.24231 0-.23563-.191-.42688-.4263-.42688h-5.58756c-.08285 0-.15.06716-.15.15z" fill="url(#D)"/><path d="m7.59644 5.14149c0 .08285.06715.15.15.15h1.08995c.08284 0 .15.06716.15.15v2.92121c0 .08285.06716.15.15.15h1.69911c.0828 0 .15.06716.15.15v3.6156c0 .0828.0671.15.15.15h2.475c2.2132 0 4.0069-1.7963 4.0063-4.0125 0-.2275-.1842-.4125-.412-.4125h-2.0243c-.1486 0-.2166-.20726-.1089-.30963.5907-.56149.9271-1.36408.9268-2.25534 0-.24063-.1948-.43625-.4357-.43625h-2.1523c-.1501 0-.2238-.2207-.1239-.33265.2944-.32973.4735-.76501.4738-1.24231 0-.23563-.191-.42688-.4263-.42688h-5.58756c-.08285 0-.15.06716-.15.15z" fill="url(#E)"/><path d="m7.59644 5.14149c0 .08285.06715.15.15.15h1.08995c.08284 0 .15.06716.15.15v2.92121c0 .08285.06716.15.15.15h1.69911c.0828 0 .15.06716.15.15v3.6156c0 .0828.0671.15.15.15h2.475c2.2132 0 4.0069-1.7963 4.0063-4.0125 0-.2275-.1842-.4125-.412-.4125h-2.0243c-.1486 0-.2166-.20726-.1089-.30963.5907-.56149.9271-1.36408.9268-2.25534 0-.24063-.1948-.43625-.4357-.43625h-2.1523c-.1501 0-.2238-.2207-.1239-.33265.2944-.32973.4735-.76501.4738-1.24231 0-.23563-.191-.42688-.4263-.42688h-5.58756c-.08285 0-.15.06716-.15.15z" fill="url(#G)"/><path d="m7.59644 5.14149c0 .08285.06715.15.15.15h1.08995c.08284 0 .15.06716.15.15v2.92121c0 .08285.06716.15.15.15h1.69911c.0828 0 .15.06716.15.15v3.6156c0 .0828.0671.15.15.15h2.475c2.2132 0 4.0069-1.7963 4.0063-4.0125 0-.2275-.1842-.4125-.412-.4125h-2.0243c-.1486 0-.2166-.20726-.1089-.30963.5907-.56149.9271-1.36408.9268-2.25534 0-.24063-.1948-.43625-.4357-.43625h-2.1523c-.1501 0-.2238-.2207-.1239-.33265.2944-.32973.4735-.76501.4738-1.24231 0-.23563-.191-.42688-.4263-.42688h-5.58756c-.08285 0-.15.06716-.15.15z" fill="url(#H)"/><path d="m7.59644 5.14149c0 .08285.06715.15.15.15h1.08995c.08284 0 .15.06716.15.15v2.92121c0 .08285.06716.15.15.15h1.69911c.0828 0 .15.06716.15.15v3.6156c0 .0828.0671.15.15.15h2.475c2.2132 0 4.0069-1.7963 4.0063-4.0125 0-.2275-.1842-.4125-.412-.4125h-2.0243c-.1486 0-.2166-.20726-.1089-.30963.5907-.56149.9271-1.36408.9268-2.25534 0-.24063-.1948-.43625-.4357-.43625h-2.1523c-.1501 0-.2238-.2207-.1239-.33265.2944-.32973.4735-.76501.4738-1.24231 0-.23563-.191-.42688-.4263-.42688h-5.58756c-.08285 0-.15.06716-.15.15z" fill="url(#I)"/><path d="m7.59644 5.14149c0 .08285.06715.15.15.15h1.08995c.08284 0 .15.06716.15.15v2.92121c0 .08285.06716.15.15.15h1.69911c.0828 0 .15.06716.15.15v3.6156c0 .0828.0671.15.15.15h2.475c2.2132 0 4.0069-1.7963 4.0063-4.0125 0-.2275-.1842-.4125-.412-.4125h-2.0243c-.1486 0-.2166-.20726-.1089-.30963.5907-.56149.9271-1.36408.9268-2.25534 0-.24063-.1948-.43625-.4357-.43625h-2.1523c-.1501 0-.2238-.2207-.1239-.33265.2944-.32973.4735-.76501.4738-1.24231 0-.23563-.191-.42688-.4263-.42688h-5.58756c-.08285 0-.15.06716-.15.15z" fill="url(#J)"/><path d="m7.59644 5.14149c0 .08285.06715.15.15.15h1.08995c.08284 0 .15.06716.15.15v2.92121c0 .08285.06716.15.15.15h1.69911c.0828 0 .15.06716.15.15v3.6156c0 .0828.0671.15.15.15h2.475c2.2132 0 4.0069-1.7963 4.0063-4.0125 0-.2275-.1842-.4125-.412-.4125h-2.0243c-.1486 0-.2166-.20726-.1089-.30963.5907-.56149.9271-1.36408.9268-2.25534 0-.24063-.1948-.43625-.4357-.43625h-2.1523c-.1501 0-.2238-.2207-.1239-.33265.2944-.32973.4735-.76501.4738-1.24231 0-.23563-.191-.42688-.4263-.42688h-5.58756c-.08285 0-.15.06716-.15.15z" fill="url(#L)"/><path d="m7.59644 5.14149c0 .08285.06715.15.15.15h1.08995c.08284 0 .15.06716.15.15v2.92121c0 .08285.06716.15.15.15h1.69911c.0828 0 .15.06716.15.15v3.6156c0 .0828.0671.15.15.15h2.475c2.2132 0 4.0069-1.7963 4.0063-4.0125 0-.2275-.1842-.4125-.412-.4125h-2.0243c-.1486 0-.2166-.20726-.1089-.30963.5907-.56149.9271-1.36408.9268-2.25534 0-.24063-.1948-.43625-.4357-.43625h-2.1523c-.1501 0-.2238-.2207-.1239-.33265.2944-.32973.4735-.76501.4738-1.24231 0-.23563-.191-.42688-.4263-.42688h-5.58756c-.08285 0-.15.06716-.15.15z" fill="url(#M)"/><path d="m7.59644 5.14149c0 .08285.06715.15.15.15h1.08995c.08284 0 .15.06716.15.15v2.92121c0 .08285.06716.15.15.15h1.69911c.0828 0 .15.06716.15.15v3.6156c0 .0828.0671.15.15.15h2.475c2.2132 0 4.0069-1.7963 4.0063-4.0125 0-.2275-.1842-.4125-.412-.4125h-2.0243c-.1486 0-.2166-.20726-.1089-.30963.5907-.56149.9271-1.36408.9268-2.25534 0-.24063-.1948-.43625-.4357-.43625h-2.1523c-.1501 0-.2238-.2207-.1239-.33265.2944-.32973.4735-.76501.4738-1.24231 0-.23563-.191-.42688-.4263-.42688h-5.58756c-.08285 0-.15.06716-.15.15z" fill="url(#N)"/><path d="m7.59644 5.14149c0 .08285.06715.15.15.15h1.08995c.08284 0 .15.06716.15.15v2.92121c0 .08285.06716.15.15.15h1.69911c.0828 0 .15.06716.15.15v3.6156c0 .0828.0671.15.15.15h2.475c2.2132 0 4.0069-1.7963 4.0063-4.0125 0-.2275-.1842-.4125-.412-.4125h-2.0243c-.1486 0-.2166-.20726-.1089-.30963.5907-.56149.9271-1.36408.9268-2.25534 0-.24063-.1948-.43625-.4357-.43625h-2.1523c-.1501 0-.2238-.2207-.1239-.33265.2944-.32973.4735-.76501.4738-1.24231 0-.23563-.191-.42688-.4263-.42688h-5.58756c-.08285 0-.15.06716-.15.15z" fill="url(#O)"/><path d="m5.69847 3.00024c-1.01108 0-1.8474.75-1.98471 1.72438-.02122.14875.09112.28312.24154.28312h1.50663c1.10719 0 2.00467-.89875 2.00467-2.0075z" fill="url(#P)"/><path d="m5.69847 3.00024c-1.01108 0-1.8474.75-1.98471 1.72438-.02122.14875.09112.28312.24154.28312h1.50663c1.10719 0 2.00467-.89875 2.00467-2.0075z" fill="url(#Q)"/><g filter="url(#b)"><path d="m18.976 15.3866v7.7881c0 .2538-.1012.4969-.2809.6763l-.8819.8781c-.538.5387-.8344 1.2556-.8344 2.0175v.9375c0 .1744.141.3162.3158.3162h1.3662c.1741 0 .3158-.1412.3158-.3162v-.9375c0-.2263.0898-.4431.2496-.6038l3.8746-3.88.0243-.0087v-7.0288z" fill="url(#R)"/><path d="m18.976 15.3866v7.7881c0 .2538-.1012.4969-.2809.6763l-.8819.8781c-.538.5387-.8344 1.2556-.8344 2.0175v.9375c0 .1744.141.3162.3158.3162h1.3662c.1741 0 .3158-.1412.3158-.3162v-.9375c0-.2263.0898-.4431.2496-.6038l3.8746-3.88.0243-.0087v-7.0288z" fill="url(#S)"/></g><g filter="url(#c)"><path d="m4.75281 23.4171c-.14854.1488-.38945.1488-.53799 0l-.39195-.3918c-.53488-.5357-.82946-1.2475-.82946-2.005v-2.3588c0-1.4706 1.1902-2.6625 2.65876-2.6625h7.33653v2h-7.33653c-.36511 0-.66157.2963-.66157.6625v2.3588c0 .2212.088.4337.24403.5906l.39133.3919c.14854.1487.14854.39 0 .5387z" fill="url(#T)"/><path d="m4.75281 23.4171c-.14854.1488-.38945.1488-.53799 0l-.39195-.3918c-.53488-.5357-.82946-1.2475-.82946-2.005v-2.3588c0-1.4706 1.1902-2.6625 2.65876-2.6625h7.33653v2h-7.33653c-.36511 0-.66157.2963-.66157.6625v2.3588c0 .2212.088.4337.24403.5906l.39133.3919c.14854.1487.14854.39 0 .5387z" fill="url(#U)"/><path d="m4.75281 23.4171c-.14854.1488-.38945.1488-.53799 0l-.39195-.3918c-.53488-.5357-.82946-1.2475-.82946-2.005v-2.3588c0-1.4706 1.1902-2.6625 2.65876-2.6625h7.33653v2h-7.33653c-.36511 0-.66157.2963-.66157.6625v2.3588c0 .2212.088.4337.24403.5906l.39133.3919c.14854.1487.14854.39 0 .5387z" fill="url(#V)"/></g><g filter="url(#d)"><path d="m4.90112 22.3733-.19415-.2027c-.35671-.3723-.55585-.868-.55585-1.3836v-2.3825c0-.6903.55965-1.25 1.25-1.25h2.4375" stroke="url(#W)" stroke-linecap="round" stroke-width=".4"/></g><g filter="url(#e)"><path d="m23.0503 12.0002h-7.0395c-1.2514 0-2.4047-.6794-3.012-1.775l-3.03823-5.47687c-.27275-.49188-.64472-.82813-1.11157-1.195h.00063l-2.01654-1.51063c-.17912-.11437-.41442.01438-.41442.2275v.83c0 .07188-.02684.14125-.07614.19438l-4.05867 4.39875c-.2303.24937-.33141.5975-.26213.93937.1398.6875.81947 1.02813 1.46918.76563l2.39476-.96625c.17912-.0725.37822.04312.40506.235l1.10968 8.04442c.12545.9112.49306 1.7356 1.03168 2.4131.08301.1044.07552.2544-.01872.3487l-.6416.6425c-.50304.5038-.78016 1.1744-.77891 1.8875.00125.7182.30458 1.4025.81136 1.9107l1.24513 1.2556c.53487.5356 1.24575.8306 2.00215.8306h.4563c.264 0 .478-.2144.478-.4787v-1.0425c0-.2644-.214-.4788-.478-.4788h-.4563c-.2209 0-.4331-.0881-.5898-.2444l-1.26256-1.2737c-.12171-.1219-.20097-.2831-.20846-.455-.00749-.1875.06179-.365.19285-.4969l.87937-.8806c.0755-.0756.1891-.0975.2871-.0556.6048.2618 1.2695.4062 1.9648.4062h.6696 2.3486 4.9861c.4244 0 .8376.1381 1.1771.3931l2.5127 1.8869c.6036.4531.9587 1.1644.9587 1.92 0 .5194-.1679 1.0244-.4793 1.44l-2.2388 2.9888c-.1142.1531-.0056.3712.1854.3712h1.217c.2004 0 .3901-.0912.5149-.2481l3.2342-4.0481c.3639-.4557.5624-1.0213.5624-1.6044v-3.0994-4.08c0-2.7175-2.1994-4.92-4.9131-4.92z" fill="url(#X)"/><path d="m23.0503 12.0002h-7.0395c-1.2514 0-2.4047-.6794-3.012-1.775l-3.03823-5.47687c-.27275-.49188-.64472-.82813-1.11157-1.195h.00063l-2.01654-1.51063c-.17912-.11437-.41442.01438-.41442.2275v.83c0 .07188-.02684.14125-.07614.19438l-4.05867 4.39875c-.2303.24937-.33141.5975-.26213.93937.1398.6875.81947 1.02813 1.46918.76563l2.39476-.96625c.17912-.0725.37822.04312.40506.235l1.10968 8.04442c.12545.9112.49306 1.7356 1.03168 2.4131.08301.1044.07552.2544-.01872.3487l-.6416.6425c-.50304.5038-.78016 1.1744-.77891 1.8875.00125.7182.30458 1.4025.81136 1.9107l1.24513 1.2556c.53487.5356 1.24575.8306 2.00215.8306h.4563c.264 0 .478-.2144.478-.4787v-1.0425c0-.2644-.214-.4788-.478-.4788h-.4563c-.2209 0-.4331-.0881-.5898-.2444l-1.26256-1.2737c-.12171-.1219-.20097-.2831-.20846-.455-.00749-.1875.06179-.365.19285-.4969l.87937-.8806c.0755-.0756.1891-.0975.2871-.0556.6048.2618 1.2695.4062 1.9648.4062h.6696 2.3486 4.9861c.4244 0 .8376.1381 1.1771.3931l2.5127 1.8869c.6036.4531.9587 1.1644.9587 1.92 0 .5194-.1679 1.0244-.4793 1.44l-2.2388 2.9888c-.1142.1531-.0056.3712.1854.3712h1.217c.2004 0 .3901-.0912.5149-.2481l3.2342-4.0481c.3639-.4557.5624-1.0213.5624-1.6044v-3.0994-4.08c0-2.7175-2.1994-4.92-4.9131-4.92z" fill="url(#Y)"/><path d="m23.0503 12.0002h-7.0395c-1.2514 0-2.4047-.6794-3.012-1.775l-3.03823-5.47687c-.27275-.49188-.64472-.82813-1.11157-1.195h.00063l-2.01654-1.51063c-.17912-.11437-.41442.01438-.41442.2275v.83c0 .07188-.02684.14125-.07614.19438l-4.05867 4.39875c-.2303.24937-.33141.5975-.26213.93937.1398.6875.81947 1.02813 1.46918.76563l2.39476-.96625c.17912-.0725.37822.04312.40506.235l1.10968 8.04442c.12545.9112.49306 1.7356 1.03168 2.4131.08301.1044.07552.2544-.01872.3487l-.6416.6425c-.50304.5038-.78016 1.1744-.77891 1.8875.00125.7182.30458 1.4025.81136 1.9107l1.24513 1.2556c.53487.5356 1.24575.8306 2.00215.8306h.4563c.264 0 .478-.2144.478-.4787v-1.0425c0-.2644-.214-.4788-.478-.4788h-.4563c-.2209 0-.4331-.0881-.5898-.2444l-1.26256-1.2737c-.12171-.1219-.20097-.2831-.20846-.455-.00749-.1875.06179-.365.19285-.4969l.87937-.8806c.0755-.0756.1891-.0975.2871-.0556.6048.2618 1.2695.4062 1.9648.4062h.6696 2.3486 4.9861c.4244 0 .8376.1381 1.1771.3931l2.5127 1.8869c.6036.4531.9587 1.1644.9587 1.92 0 .5194-.1679 1.0244-.4793 1.44l-2.2388 2.9888c-.1142.1531-.0056.3712.1854.3712h1.217c.2004 0 .3901-.0912.5149-.2481l3.2342-4.0481c.3639-.4557.5624-1.0213.5624-1.6044v-3.0994-4.08c0-2.7175-2.1994-4.92-4.9131-4.92z" fill="url(#aa)"/><path d="m23.0503 12.0002h-7.0395c-1.2514 0-2.4047-.6794-3.012-1.775l-3.03823-5.47687c-.27275-.49188-.64472-.82813-1.11157-1.195h.00063l-2.01654-1.51063c-.17912-.11437-.41442.01438-.41442.2275v.83c0 .07188-.02684.14125-.07614.19438l-4.05867 4.39875c-.2303.24937-.33141.5975-.26213.93937.1398.6875.81947 1.02813 1.46918.76563l2.39476-.96625c.17912-.0725.37822.04312.40506.235l1.10968 8.04442c.12545.9112.49306 1.7356 1.03168 2.4131.08301.1044.07552.2544-.01872.3487l-.6416.6425c-.50304.5038-.78016 1.1744-.77891 1.8875.00125.7182.30458 1.4025.81136 1.9107l1.24513 1.2556c.53487.5356 1.24575.8306 2.00215.8306h.4563c.264 0 .478-.2144.478-.4787v-1.0425c0-.2644-.214-.4788-.478-.4788h-.4563c-.2209 0-.4331-.0881-.5898-.2444l-1.26256-1.2737c-.12171-.1219-.20097-.2831-.20846-.455-.00749-.1875.06179-.365.19285-.4969l.87937-.8806c.0755-.0756.1891-.0975.2871-.0556.6048.2618 1.2695.4062 1.9648.4062h.6696 2.3486 4.9861c.4244 0 .8376.1381 1.1771.3931l2.5127 1.8869c.6036.4531.9587 1.1644.9587 1.92 0 .5194-.1679 1.0244-.4793 1.44l-2.2388 2.9888c-.1142.1531-.0056.3712.1854.3712h1.217c.2004 0 .3901-.0912.5149-.2481l3.2342-4.0481c.3639-.4557.5624-1.0213.5624-1.6044v-3.0994-4.08c0-2.7175-2.1994-4.92-4.9131-4.92z" fill="url(#ab)"/><path d="m23.0503 12.0002h-7.0395c-1.2514 0-2.4047-.6794-3.012-1.775l-3.03823-5.47687c-.27275-.49188-.64472-.82813-1.11157-1.195h.00063l-2.01654-1.51063c-.17912-.11437-.41442.01438-.41442.2275v.83c0 .07188-.02684.14125-.07614.19438l-4.05867 4.39875c-.2303.24937-.33141.5975-.26213.93937.1398.6875.81947 1.02813 1.46918.76563l2.39476-.96625c.17912-.0725.37822.04312.40506.235l1.10968 8.04442c.12545.9112.49306 1.7356 1.03168 2.4131.08301.1044.07552.2544-.01872.3487l-.6416.6425c-.50304.5038-.78016 1.1744-.77891 1.8875.00125.7182.30458 1.4025.81136 1.9107l1.24513 1.2556c.53487.5356 1.24575.8306 2.00215.8306h.4563c.264 0 .478-.2144.478-.4787v-1.0425c0-.2644-.214-.4788-.478-.4788h-.4563c-.2209 0-.4331-.0881-.5898-.2444l-1.26256-1.2737c-.12171-.1219-.20097-.2831-.20846-.455-.00749-.1875.06179-.365.19285-.4969l.87937-.8806c.0755-.0756.1891-.0975.2871-.0556.6048.2618 1.2695.4062 1.9648.4062h.6696 2.3486 4.9861c.4244 0 .8376.1381 1.1771.3931l2.5127 1.8869c.6036.4531.9587 1.1644.9587 1.92 0 .5194-.1679 1.0244-.4793 1.44l-2.2388 2.9888c-.1142.1531-.0056.3712.1854.3712h1.217c.2004 0 .3901-.0912.5149-.2481l3.2342-4.0481c.3639-.4557.5624-1.0213.5624-1.6044v-3.0994-4.08c0-2.7175-2.1994-4.92-4.9131-4.92z" fill="url(#ac)"/><path d="m23.0503 12.0002h-7.0395c-1.2514 0-2.4047-.6794-3.012-1.775l-3.03823-5.47687c-.27275-.49188-.64472-.82813-1.11157-1.195h.00063l-2.01654-1.51063c-.17912-.11437-.41442.01438-.41442.2275v.83c0 .07188-.02684.14125-.07614.19438l-4.05867 4.39875c-.2303.24937-.33141.5975-.26213.93937.1398.6875.81947 1.02813 1.46918.76563l2.39476-.96625c.17912-.0725.37822.04312.40506.235l1.10968 8.04442c.12545.9112.49306 1.7356 1.03168 2.4131.08301.1044.07552.2544-.01872.3487l-.6416.6425c-.50304.5038-.78016 1.1744-.77891 1.8875.00125.7182.30458 1.4025.81136 1.9107l1.24513 1.2556c.53487.5356 1.24575.8306 2.00215.8306h.4563c.264 0 .478-.2144.478-.4787v-1.0425c0-.2644-.214-.4788-.478-.4788h-.4563c-.2209 0-.4331-.0881-.5898-.2444l-1.26256-1.2737c-.12171-.1219-.20097-.2831-.20846-.455-.00749-.1875.06179-.365.19285-.4969l.87937-.8806c.0755-.0756.1891-.0975.2871-.0556.6048.2618 1.2695.4062 1.9648.4062h.6696 2.3486 4.9861c.4244 0 .8376.1381 1.1771.3931l2.5127 1.8869c.6036.4531.9587 1.1644.9587 1.92 0 .5194-.1679 1.0244-.4793 1.44l-2.2388 2.9888c-.1142.1531-.0056.3712.1854.3712h1.217c.2004 0 .3901-.0912.5149-.2481l3.2342-4.0481c.3639-.4557.5624-1.0213.5624-1.6044v-3.0994-4.08c0-2.7175-2.1994-4.92-4.9131-4.92z" fill="url(#ad)"/><path d="m23.0503 12.0002h-7.0395c-1.2514 0-2.4047-.6794-3.012-1.775l-3.03823-5.47687c-.27275-.49188-.64472-.82813-1.11157-1.195h.00063l-2.01654-1.51063c-.17912-.11437-.41442.01438-.41442.2275v.83c0 .07188-.02684.14125-.07614.19438l-4.05867 4.39875c-.2303.24937-.33141.5975-.26213.93937.1398.6875.81947 1.02813 1.46918.76563l2.39476-.96625c.17912-.0725.37822.04312.40506.235l1.10968 8.04442c.12545.9112.49306 1.7356 1.03168 2.4131.08301.1044.07552.2544-.01872.3487l-.6416.6425c-.50304.5038-.78016 1.1744-.77891 1.8875.00125.7182.30458 1.4025.81136 1.9107l1.24513 1.2556c.53487.5356 1.24575.8306 2.00215.8306h.4563c.264 0 .478-.2144.478-.4787v-1.0425c0-.2644-.214-.4788-.478-.4788h-.4563c-.2209 0-.4331-.0881-.5898-.2444l-1.26256-1.2737c-.12171-.1219-.20097-.2831-.20846-.455-.00749-.1875.06179-.365.19285-.4969l.87937-.8806c.0755-.0756.1891-.0975.2871-.0556.6048.2618 1.2695.4062 1.9648.4062h.6696 2.3486 4.9861c.4244 0 .8376.1381 1.1771.3931l2.5127 1.8869c.6036.4531.9587 1.1644.9587 1.92 0 .5194-.1679 1.0244-.4793 1.44l-2.2388 2.9888c-.1142.1531-.0056.3712.1854.3712h1.217c.2004 0 .3901-.0912.5149-.2481l3.2342-4.0481c.3639-.4557.5624-1.0213.5624-1.6044v-3.0994-4.08c0-2.7175-2.1994-4.92-4.9131-4.92z" fill="url(#ae)"/><path d="m23.0503 12.0002h-7.0395c-1.2514 0-2.4047-.6794-3.012-1.775l-3.03823-5.47687c-.27275-.49188-.64472-.82813-1.11157-1.195h.00063l-2.01654-1.51063c-.17912-.11437-.41442.01438-.41442.2275v.83c0 .07188-.02684.14125-.07614.19438l-4.05867 4.39875c-.2303.24937-.33141.5975-.26213.93937.1398.6875.81947 1.02813 1.46918.76563l2.39476-.96625c.17912-.0725.37822.04312.40506.235l1.10968 8.04442c.12545.9112.49306 1.7356 1.03168 2.4131.08301.1044.07552.2544-.01872.3487l-.6416.6425c-.50304.5038-.78016 1.1744-.77891 1.8875.00125.7182.30458 1.4025.81136 1.9107l1.24513 1.2556c.53487.5356 1.24575.8306 2.00215.8306h.4563c.264 0 .478-.2144.478-.4787v-1.0425c0-.2644-.214-.4788-.478-.4788h-.4563c-.2209 0-.4331-.0881-.5898-.2444l-1.26256-1.2737c-.12171-.1219-.20097-.2831-.20846-.455-.00749-.1875.06179-.365.19285-.4969l.87937-.8806c.0755-.0756.1891-.0975.2871-.0556.6048.2618 1.2695.4062 1.9648.4062h.6696 2.3486 4.9861c.4244 0 .8376.1381 1.1771.3931l2.5127 1.8869c.6036.4531.9587 1.1644.9587 1.92 0 .5194-.1679 1.0244-.4793 1.44l-2.2388 2.9888c-.1142.1531-.0056.3712.1854.3712h1.217c.2004 0 .3901-.0912.5149-.2481l3.2342-4.0481c.3639-.4557.5624-1.0213.5624-1.6044v-3.0994-4.08c0-2.7175-2.1994-4.92-4.9131-4.92z" fill="url(#af)"/><path d="m23.0503 12.0002h-7.0395c-1.2514 0-2.4047-.6794-3.012-1.775l-3.03823-5.47687c-.27275-.49188-.64472-.82813-1.11157-1.195h.00063l-2.01654-1.51063c-.17912-.11437-.41442.01438-.41442.2275v.83c0 .07188-.02684.14125-.07614.19438l-4.05867 4.39875c-.2303.24937-.33141.5975-.26213.93937.1398.6875.81947 1.02813 1.46918.76563l2.39476-.96625c.17912-.0725.37822.04312.40506.235l1.10968 8.04442c.12545.9112.49306 1.7356 1.03168 2.4131.08301.1044.07552.2544-.01872.3487l-.6416.6425c-.50304.5038-.78016 1.1744-.77891 1.8875.00125.7182.30458 1.4025.81136 1.9107l1.24513 1.2556c.53487.5356 1.24575.8306 2.00215.8306h.4563c.264 0 .478-.2144.478-.4787v-1.0425c0-.2644-.214-.4788-.478-.4788h-.4563c-.2209 0-.4331-.0881-.5898-.2444l-1.26256-1.2737c-.12171-.1219-.20097-.2831-.20846-.455-.00749-.1875.06179-.365.19285-.4969l.87937-.8806c.0755-.0756.1891-.0975.2871-.0556.6048.2618 1.2695.4062 1.9648.4062h.6696 2.3486 4.9861c.4244 0 .8376.1381 1.1771.3931l2.5127 1.8869c.6036.4531.9587 1.1644.9587 1.92 0 .5194-.1679 1.0244-.4793 1.44l-2.2388 2.9888c-.1142.1531-.0056.3712.1854.3712h1.217c.2004 0 .3901-.0912.5149-.2481l3.2342-4.0481c.3639-.4557.5624-1.0213.5624-1.6044v-3.0994-4.08c0-2.7175-2.1994-4.92-4.9131-4.92z" fill="url(#ag)"/><path d="m23.0503 12.0002h-7.0395c-1.2514 0-2.4047-.6794-3.012-1.775l-3.03823-5.47687c-.27275-.49188-.64472-.82813-1.11157-1.195h.00063l-2.01654-1.51063c-.17912-.11437-.41442.01438-.41442.2275v.83c0 .07188-.02684.14125-.07614.19438l-4.05867 4.39875c-.2303.24937-.33141.5975-.26213.93937.1398.6875.81947 1.02813 1.46918.76563l2.39476-.96625c.17912-.0725.37822.04312.40506.235l1.10968 8.04442c.12545.9112.49306 1.7356 1.03168 2.4131.08301.1044.07552.2544-.01872.3487l-.6416.6425c-.50304.5038-.78016 1.1744-.77891 1.8875.00125.7182.30458 1.4025.81136 1.9107l1.24513 1.2556c.53487.5356 1.24575.8306 2.00215.8306h.4563c.264 0 .478-.2144.478-.4787v-1.0425c0-.2644-.214-.4788-.478-.4788h-.4563c-.2209 0-.4331-.0881-.5898-.2444l-1.26256-1.2737c-.12171-.1219-.20097-.2831-.20846-.455-.00749-.1875.06179-.365.19285-.4969l.87937-.8806c.0755-.0756.1891-.0975.2871-.0556.6048.2618 1.2695.4062 1.9648.4062h.6696 2.3486 4.9861c.4244 0 .8376.1381 1.1771.3931l2.5127 1.8869c.6036.4531.9587 1.1644.9587 1.92 0 .5194-.1679 1.0244-.4793 1.44l-2.2388 2.9888c-.1142.1531-.0056.3712.1854.3712h1.217c.2004 0 .3901-.0912.5149-.2481l3.2342-4.0481c.3639-.4557.5624-1.0213.5624-1.6044v-3.0994-4.08c0-2.7175-2.1994-4.92-4.9131-4.92z" fill="url(#ah)"/></g><g filter="url(#f)"><path d="m23.0503 12.0002h-7.0395c-1.2514 0-2.4047-.6794-3.012-1.775l-3.03823-5.47687c-.27275-.49188-.64472-.82813-1.11157-1.195h.00063l-2.01654-1.51063c-.17912-.11437-.41442.01438-.41442.2275v.83c0 .07188-.02684.14125-.07614.19438l-4.05867 4.39875c-.2303.24937-.33141.5975-.26213.93937.1398.6875.81947 1.02813 1.46918.76563l2.39476-.96625c.17912-.0725.37822.04312.40506.235l1.10968 8.04442c.12545.9112.49306 1.7356 1.03168 2.4131.08301.1044.07552.2544-.01872.3487l-.6416.6425c-.50304.5038-.78016 1.1744-.77891 1.8875.00125.7182.30458 1.4025.81136 1.9107l1.24513 1.2556c.53487.5356 1.24575.8306 2.00215.8306h.4563c.264 0 .478-.2144.478-.4787v-1.0425c0-.2644-.214-.4788-.478-.4788h-.4563c-.2209 0-.4331-.0881-.5898-.2444l-1.26256-1.2737c-.12171-.1219-.20097-.2831-.20846-.455-.00749-.1875.06179-.365.19285-.4969l.87937-.8806c.0755-.0756.1891-.0975.2871-.0556.6048.2618 1.2695.4062 1.9648.4062h.6696 2.3486 4.9861c.4244 0 .8376.1381 1.1771.3931l2.5127 1.8869c.6036.4531.9587 1.1644.9587 1.92 0 .5194-.1679 1.0244-.4793 1.44l-2.2388 2.9888c-.1142.1531-.0056.3712.1854.3712h1.217c.2004 0 .3901-.0912.5149-.2481l3.2342-4.0481c.3639-.4557.5624-1.0213.5624-1.6044v-3.0994-4.08c0-2.7175-2.1994-4.92-4.9131-4.92z" fill="url(#X)"/><path d="m23.0503 12.0002h-7.0395c-1.2514 0-2.4047-.6794-3.012-1.775l-3.03823-5.47687c-.27275-.49188-.64472-.82813-1.11157-1.195h.00063l-2.01654-1.51063c-.17912-.11437-.41442.01438-.41442.2275v.83c0 .07188-.02684.14125-.07614.19438l-4.05867 4.39875c-.2303.24937-.33141.5975-.26213.93937.1398.6875.81947 1.02813 1.46918.76563l2.39476-.96625c.17912-.0725.37822.04312.40506.235l1.10968 8.04442c.12545.9112.49306 1.7356 1.03168 2.4131.08301.1044.07552.2544-.01872.3487l-.6416.6425c-.50304.5038-.78016 1.1744-.77891 1.8875.00125.7182.30458 1.4025.81136 1.9107l1.24513 1.2556c.53487.5356 1.24575.8306 2.00215.8306h.4563c.264 0 .478-.2144.478-.4787v-1.0425c0-.2644-.214-.4788-.478-.4788h-.4563c-.2209 0-.4331-.0881-.5898-.2444l-1.26256-1.2737c-.12171-.1219-.20097-.2831-.20846-.455-.00749-.1875.06179-.365.19285-.4969l.87937-.8806c.0755-.0756.1891-.0975.2871-.0556.6048.2618 1.2695.4062 1.9648.4062h.6696 2.3486 4.9861c.4244 0 .8376.1381 1.1771.3931l2.5127 1.8869c.6036.4531.9587 1.1644.9587 1.92 0 .5194-.1679 1.0244-.4793 1.44l-2.2388 2.9888c-.1142.1531-.0056.3712.1854.3712h1.217c.2004 0 .3901-.0912.5149-.2481l3.2342-4.0481c.3639-.4557.5624-1.0213.5624-1.6044v-3.0994-4.08c0-2.7175-2.1994-4.92-4.9131-4.92z" fill="url(#Y)"/><path d="m23.0503 12.0002h-7.0395c-1.2514 0-2.4047-.6794-3.012-1.775l-3.03823-5.47687c-.27275-.49188-.64472-.82813-1.11157-1.195h.00063l-2.01654-1.51063c-.17912-.11437-.41442.01438-.41442.2275v.83c0 .07188-.02684.14125-.07614.19438l-4.05867 4.39875c-.2303.24937-.33141.5975-.26213.93937.1398.6875.81947 1.02813 1.46918.76563l2.39476-.96625c.17912-.0725.37822.04312.40506.235l1.10968 8.04442c.12545.9112.49306 1.7356 1.03168 2.4131.08301.1044.07552.2544-.01872.3487l-.6416.6425c-.50304.5038-.78016 1.1744-.77891 1.8875.00125.7182.30458 1.4025.81136 1.9107l1.24513 1.2556c.53487.5356 1.24575.8306 2.00215.8306h.4563c.264 0 .478-.2144.478-.4787v-1.0425c0-.2644-.214-.4788-.478-.4788h-.4563c-.2209 0-.4331-.0881-.5898-.2444l-1.26256-1.2737c-.12171-.1219-.20097-.2831-.20846-.455-.00749-.1875.06179-.365.19285-.4969l.87937-.8806c.0755-.0756.1891-.0975.2871-.0556.6048.2618 1.2695.4062 1.9648.4062h.6696 2.3486 4.9861c.4244 0 .8376.1381 1.1771.3931l2.5127 1.8869c.6036.4531.9587 1.1644.9587 1.92 0 .5194-.1679 1.0244-.4793 1.44l-2.2388 2.9888c-.1142.1531-.0056.3712.1854.3712h1.217c.2004 0 .3901-.0912.5149-.2481l3.2342-4.0481c.3639-.4557.5624-1.0213.5624-1.6044v-3.0994-4.08c0-2.7175-2.1994-4.92-4.9131-4.92z" fill="url(#aa)"/><path d="m23.0503 12.0002h-7.0395c-1.2514 0-2.4047-.6794-3.012-1.775l-3.03823-5.47687c-.27275-.49188-.64472-.82813-1.11157-1.195h.00063l-2.01654-1.51063c-.17912-.11437-.41442.01438-.41442.2275v.83c0 .07188-.02684.14125-.07614.19438l-4.05867 4.39875c-.2303.24937-.33141.5975-.26213.93937.1398.6875.81947 1.02813 1.46918.76563l2.39476-.96625c.17912-.0725.37822.04312.40506.235l1.10968 8.04442c.12545.9112.49306 1.7356 1.03168 2.4131.08301.1044.07552.2544-.01872.3487l-.6416.6425c-.50304.5038-.78016 1.1744-.77891 1.8875.00125.7182.30458 1.4025.81136 1.9107l1.24513 1.2556c.53487.5356 1.24575.8306 2.00215.8306h.4563c.264 0 .478-.2144.478-.4787v-1.0425c0-.2644-.214-.4788-.478-.4788h-.4563c-.2209 0-.4331-.0881-.5898-.2444l-1.26256-1.2737c-.12171-.1219-.20097-.2831-.20846-.455-.00749-.1875.06179-.365.19285-.4969l.87937-.8806c.0755-.0756.1891-.0975.2871-.0556.6048.2618 1.2695.4062 1.9648.4062h.6696 2.3486 4.9861c.4244 0 .8376.1381 1.1771.3931l2.5127 1.8869c.6036.4531.9587 1.1644.9587 1.92 0 .5194-.1679 1.0244-.4793 1.44l-2.2388 2.9888c-.1142.1531-.0056.3712.1854.3712h1.217c.2004 0 .3901-.0912.5149-.2481l3.2342-4.0481c.3639-.4557.5624-1.0213.5624-1.6044v-3.0994-4.08c0-2.7175-2.1994-4.92-4.9131-4.92z" fill="url(#ab)"/><path d="m23.0503 12.0002h-7.0395c-1.2514 0-2.4047-.6794-3.012-1.775l-3.03823-5.47687c-.27275-.49188-.64472-.82813-1.11157-1.195h.00063l-2.01654-1.51063c-.17912-.11437-.41442.01438-.41442.2275v.83c0 .07188-.02684.14125-.07614.19438l-4.05867 4.39875c-.2303.24937-.33141.5975-.26213.93937.1398.6875.81947 1.02813 1.46918.76563l2.39476-.96625c.17912-.0725.37822.04312.40506.235l1.10968 8.04442c.12545.9112.49306 1.7356 1.03168 2.4131.08301.1044.07552.2544-.01872.3487l-.6416.6425c-.50304.5038-.78016 1.1744-.77891 1.8875.00125.7182.30458 1.4025.81136 1.9107l1.24513 1.2556c.53487.5356 1.24575.8306 2.00215.8306h.4563c.264 0 .478-.2144.478-.4787v-1.0425c0-.2644-.214-.4788-.478-.4788h-.4563c-.2209 0-.4331-.0881-.5898-.2444l-1.26256-1.2737c-.12171-.1219-.20097-.2831-.20846-.455-.00749-.1875.06179-.365.19285-.4969l.87937-.8806c.0755-.0756.1891-.0975.2871-.0556.6048.2618 1.2695.4062 1.9648.4062h.6696 2.3486 4.9861c.4244 0 .8376.1381 1.1771.3931l2.5127 1.8869c.6036.4531.9587 1.1644.9587 1.92 0 .5194-.1679 1.0244-.4793 1.44l-2.2388 2.9888c-.1142.1531-.0056.3712.1854.3712h1.217c.2004 0 .3901-.0912.5149-.2481l3.2342-4.0481c.3639-.4557.5624-1.0213.5624-1.6044v-3.0994-4.08c0-2.7175-2.1994-4.92-4.9131-4.92z" fill="url(#ac)"/><path d="m23.0503 12.0002h-7.0395c-1.2514 0-2.4047-.6794-3.012-1.775l-3.03823-5.47687c-.27275-.49188-.64472-.82813-1.11157-1.195h.00063l-2.01654-1.51063c-.17912-.11437-.41442.01438-.41442.2275v.83c0 .07188-.02684.14125-.07614.19438l-4.05867 4.39875c-.2303.24937-.33141.5975-.26213.93937.1398.6875.81947 1.02813 1.46918.76563l2.39476-.96625c.17912-.0725.37822.04312.40506.235l1.10968 8.04442c.12545.9112.49306 1.7356 1.03168 2.4131.08301.1044.07552.2544-.01872.3487l-.6416.6425c-.50304.5038-.78016 1.1744-.77891 1.8875.00125.7182.30458 1.4025.81136 1.9107l1.24513 1.2556c.53487.5356 1.24575.8306 2.00215.8306h.4563c.264 0 .478-.2144.478-.4787v-1.0425c0-.2644-.214-.4788-.478-.4788h-.4563c-.2209 0-.4331-.0881-.5898-.2444l-1.26256-1.2737c-.12171-.1219-.20097-.2831-.20846-.455-.00749-.1875.06179-.365.19285-.4969l.87937-.8806c.0755-.0756.1891-.0975.2871-.0556.6048.2618 1.2695.4062 1.9648.4062h.6696 2.3486 4.9861c.4244 0 .8376.1381 1.1771.3931l2.5127 1.8869c.6036.4531.9587 1.1644.9587 1.92 0 .5194-.1679 1.0244-.4793 1.44l-2.2388 2.9888c-.1142.1531-.0056.3712.1854.3712h1.217c.2004 0 .3901-.0912.5149-.2481l3.2342-4.0481c.3639-.4557.5624-1.0213.5624-1.6044v-3.0994-4.08c0-2.7175-2.1994-4.92-4.9131-4.92z" fill="url(#ad)"/><path d="m23.0503 12.0002h-7.0395c-1.2514 0-2.4047-.6794-3.012-1.775l-3.03823-5.47687c-.27275-.49188-.64472-.82813-1.11157-1.195h.00063l-2.01654-1.51063c-.17912-.11437-.41442.01438-.41442.2275v.83c0 .07188-.02684.14125-.07614.19438l-4.05867 4.39875c-.2303.24937-.33141.5975-.26213.93937.1398.6875.81947 1.02813 1.46918.76563l2.39476-.96625c.17912-.0725.37822.04312.40506.235l1.10968 8.04442c.12545.9112.49306 1.7356 1.03168 2.4131.08301.1044.07552.2544-.01872.3487l-.6416.6425c-.50304.5038-.78016 1.1744-.77891 1.8875.00125.7182.30458 1.4025.81136 1.9107l1.24513 1.2556c.53487.5356 1.24575.8306 2.00215.8306h.4563c.264 0 .478-.2144.478-.4787v-1.0425c0-.2644-.214-.4788-.478-.4788h-.4563c-.2209 0-.4331-.0881-.5898-.2444l-1.26256-1.2737c-.12171-.1219-.20097-.2831-.20846-.455-.00749-.1875.06179-.365.19285-.4969l.87937-.8806c.0755-.0756.1891-.0975.2871-.0556.6048.2618 1.2695.4062 1.9648.4062h.6696 2.3486 4.9861c.4244 0 .8376.1381 1.1771.3931l2.5127 1.8869c.6036.4531.9587 1.1644.9587 1.92 0 .5194-.1679 1.0244-.4793 1.44l-2.2388 2.9888c-.1142.1531-.0056.3712.1854.3712h1.217c.2004 0 .3901-.0912.5149-.2481l3.2342-4.0481c.3639-.4557.5624-1.0213.5624-1.6044v-3.0994-4.08c0-2.7175-2.1994-4.92-4.9131-4.92z" fill="url(#ae)"/><path d="m23.0503 12.0002h-7.0395c-1.2514 0-2.4047-.6794-3.012-1.775l-3.03823-5.47687c-.27275-.49188-.64472-.82813-1.11157-1.195h.00063l-2.01654-1.51063c-.17912-.11437-.41442.01438-.41442.2275v.83c0 .07188-.02684.14125-.07614.19438l-4.05867 4.39875c-.2303.24937-.33141.5975-.26213.93937.1398.6875.81947 1.02813 1.46918.76563l2.39476-.96625c.17912-.0725.37822.04312.40506.235l1.10968 8.04442c.12545.9112.49306 1.7356 1.03168 2.4131.08301.1044.07552.2544-.01872.3487l-.6416.6425c-.50304.5038-.78016 1.1744-.77891 1.8875.00125.7182.30458 1.4025.81136 1.9107l1.24513 1.2556c.53487.5356 1.24575.8306 2.00215.8306h.4563c.264 0 .478-.2144.478-.4787v-1.0425c0-.2644-.214-.4788-.478-.4788h-.4563c-.2209 0-.4331-.0881-.5898-.2444l-1.26256-1.2737c-.12171-.1219-.20097-.2831-.20846-.455-.00749-.1875.06179-.365.19285-.4969l.87937-.8806c.0755-.0756.1891-.0975.2871-.0556.6048.2618 1.2695.4062 1.9648.4062h.6696 2.3486 4.9861c.4244 0 .8376.1381 1.1771.3931l2.5127 1.8869c.6036.4531.9587 1.1644.9587 1.92 0 .5194-.1679 1.0244-.4793 1.44l-2.2388 2.9888c-.1142.1531-.0056.3712.1854.3712h1.217c.2004 0 .3901-.0912.5149-.2481l3.2342-4.0481c.3639-.4557.5624-1.0213.5624-1.6044v-3.0994-4.08c0-2.7175-2.1994-4.92-4.9131-4.92z" fill="url(#af)"/><path d="m23.0503 12.0002h-7.0395c-1.2514 0-2.4047-.6794-3.012-1.775l-3.03823-5.47687c-.27275-.49188-.64472-.82813-1.11157-1.195h.00063l-2.01654-1.51063c-.17912-.11437-.41442.01438-.41442.2275v.83c0 .07188-.02684.14125-.07614.19438l-4.05867 4.39875c-.2303.24937-.33141.5975-.26213.93937.1398.6875.81947 1.02813 1.46918.76563l2.39476-.96625c.17912-.0725.37822.04312.40506.235l1.10968 8.04442c.12545.9112.49306 1.7356 1.03168 2.4131.08301.1044.07552.2544-.01872.3487l-.6416.6425c-.50304.5038-.78016 1.1744-.77891 1.8875.00125.7182.30458 1.4025.81136 1.9107l1.24513 1.2556c.53487.5356 1.24575.8306 2.00215.8306h.4563c.264 0 .478-.2144.478-.4787v-1.0425c0-.2644-.214-.4788-.478-.4788h-.4563c-.2209 0-.4331-.0881-.5898-.2444l-1.26256-1.2737c-.12171-.1219-.20097-.2831-.20846-.455-.00749-.1875.06179-.365.19285-.4969l.87937-.8806c.0755-.0756.1891-.0975.2871-.0556.6048.2618 1.2695.4062 1.9648.4062h.6696 2.3486 4.9861c.4244 0 .8376.1381 1.1771.3931l2.5127 1.8869c.6036.4531.9587 1.1644.9587 1.92 0 .5194-.1679 1.0244-.4793 1.44l-2.2388 2.9888c-.1142.1531-.0056.3712.1854.3712h1.217c.2004 0 .3901-.0912.5149-.2481l3.2342-4.0481c.3639-.4557.5624-1.0213.5624-1.6044v-3.0994-4.08c0-2.7175-2.1994-4.92-4.9131-4.92z" fill="url(#ag)"/><path d="m23.0503 12.0002h-7.0395c-1.2514 0-2.4047-.6794-3.012-1.775l-3.03823-5.47687c-.27275-.49188-.64472-.82813-1.11157-1.195h.00063l-2.01654-1.51063c-.17912-.11437-.41442.01438-.41442.2275v.83c0 .07188-.02684.14125-.07614.19438l-4.05867 4.39875c-.2303.24937-.33141.5975-.26213.93937.1398.6875.81947 1.02813 1.46918.76563l2.39476-.96625c.17912-.0725.37822.04312.40506.235l1.10968 8.04442c.12545.9112.49306 1.7356 1.03168 2.4131.08301.1044.07552.2544-.01872.3487l-.6416.6425c-.50304.5038-.78016 1.1744-.77891 1.8875.00125.7182.30458 1.4025.81136 1.9107l1.24513 1.2556c.53487.5356 1.24575.8306 2.00215.8306h.4563c.264 0 .478-.2144.478-.4787v-1.0425c0-.2644-.214-.4788-.478-.4788h-.4563c-.2209 0-.4331-.0881-.5898-.2444l-1.26256-1.2737c-.12171-.1219-.20097-.2831-.20846-.455-.00749-.1875.06179-.365.19285-.4969l.87937-.8806c.0755-.0756.1891-.0975.2871-.0556.6048.2618 1.2695.4062 1.9648.4062h.6696 2.3486 4.9861c.4244 0 .8376.1381 1.1771.3931l2.5127 1.8869c.6036.4531.9587 1.1644.9587 1.92 0 .5194-.1679 1.0244-.4793 1.44l-2.2388 2.9888c-.1142.1531-.0056.3712.1854.3712h1.217c.2004 0 .3901-.0912.5149-.2481l3.2342-4.0481c.3639-.4557.5624-1.0213.5624-1.6044v-3.0994-4.08c0-2.7175-2.1994-4.92-4.9131-4.92z" fill="url(#ah)"/></g><path d="m4.19653 9.11366-1.25873-2.12904-.65393.70874c-.23028.24937-.33142.5975-.26214.93937.13983.6875.81945 1.02813 1.46917.76563z" fill="url(#ai)"/><path d="m4.19653 9.11366-1.25873-2.12904-.65393.70874c-.23028.24937-.33142.5975-.26214.93937.13983.6875.81945 1.02813 1.46917.76563z" fill="url(#aj)"/><circle cx="5.99487" cy="6.01172" fill="url(#ak)" r=".5"/><circle cx="5.99487" cy="6.01172" fill="url(#al)" r=".5"/><circle cx="5.99487" cy="6.01172" fill="url(#am)" r=".5"/><g filter="url(#g)"><path d="m17.9846 26.6221v.8154h.3806v-.8202c0-.2744.1128-.5367.3119-.7256l2.9169-2.7667-1.9373-1.5v1.4716c0 .4438-.1475.875-.4195 1.2257l-.833 1.0742c-.272.3507-.4196.7818-.4196 1.2256z" fill="url(#an)"/></g><g filter="url(#h)"><path d="m21.762 8.16542c0-1.24817-1.0148-1.47792-2.2528-1.47792h-1.4004v3.4872l-.5378.5378c-.4262.4262-.6596.9945-.6596 1.6033v2.0803h1.8063l.6596-1.8839c0-.1217.0507-.2334.1319-.3247l1.4612-2.30712c.0914-.07104.1726-.15222.2436-.24355.345-.39576.548-.90314.548-1.47141z" fill="#524361"/></g><g filter="url(#i)"><path d="m11.3752 13.9688-4.48433-11.51568 2.47373 2.52902c.21417.21895.39354.4694.53188.74265l3.62612 7.16211z" fill="url(#ao)"/></g><g filter="url(#j)"><path d="m27.1877 16.8751c0-3.1563-2.2343-4.5156-5.0625-4.0313v.7813l1.0501.6513c.8821.5471 1.4187 1.5114 1.4187 2.5494v4.9868l2.5937 2.7187z" fill="url(#ap)"/></g><g filter="url(#k)"><path d="m23.6877 29.1875 2.5546-3.2809c.4102-.5268.6329-1.1754.6329-1.8431v-6.7823" stroke="url(#aq)" stroke-width=".5"/></g><g filter="url(#l)"><path d="m7.98462 5.42188-1.1875-2.96876 2.09375 1.78126z" fill="url(#ar)"/></g><g filter="url(#m)"><path d="m9.56274 19.8889-.99586 1.1154c-.53517.5994-.50296 1.514.07303 2.0743l1.53799 1.4959c.1866.1816.4368.2832.6972.2832h.6251" stroke="url(#at)" stroke-width=".5"/></g><g filter="url(#n)"><path d="m7.73454 20.6719c-.30208.4635-.725 1.6406 0 2.6406" stroke="url(#au)" stroke-width=".25"/></g><g filter="url(#o)"><path d="m7.98462 15.9834-1.09375-7.75.84375-.9375c.14583 1.15625.725 4.575 1 6.875s.78125 3.1562 1.1875 3.875l-.875.5937c-.525-.725-.92708-2.0729-1.0625-2.6562z" fill="#966d67"/></g><g filter="url(#p)"><path d="m10.2502 11.6657c0-.4324.3106-.7829.6938-.7829h3.935v1.5658h-3.935c-.3832 0-.6938-.3505-.6938-.7829z" fill="#69303b"/></g><g filter="url(#q)"><path d="m8.16968 3.04273v7.72977h1.04297v-6.9052c-.14282-.13228-.29804-.25991-.46545-.39148z" fill="url(#av)"/></g><g clip-rule="evenodd" fill-rule="evenodd" filter="url(#r)"><path d="m7.01346 10.9719-3.77396-4.31174.70313-.76954 3.86204 4.39098c.18516.2122.45304.334.73469.334h3.71644v1.05h-3.71644c-.58496 0-1.14134-.2529-1.5259-.6937z" fill="url(#aw)"/><path d="m7.01346 10.9719-3.77396-4.31174.70313-.76954 3.86204 4.39098c.18516.2122.45304.334.73469.334h3.71644v1.05h-3.71644c-.58496 0-1.14134-.2529-1.5259-.6937z" fill="url(#ax)"/></g><g filter="url(#s)"><path d="m14.1619 11.2969 1.1426.3683c.4956.1597 1.0131.241 1.5339.241h7.2078c.0553 0 .1.0448.1.1001v5.1031c0 .5523-.4477 1-1 1h-7.9843c-.5523 0-1-.4477-1-1z" fill="url(#ay)"/><path d="m14.1619 11.2969 1.1426.3683c.4956.1597 1.0131.241 1.5339.241h7.2078c.0553 0 .1.0448.1.1001v5.1031c0 .5523-.4477 1-1 1h-7.9843c-.5523 0-1-.4477-1-1z" fill="url(#az)"/></g><g filter="url(#t)"><path d="m20.6596 11.9939h-2.4545c-.1532.3113-.1463.5688-.1463.9209v1.7353c0 .345-.071.69-.2029 1.0148l-.2741.6393c-.071.1725.0508.3551.2334.3551h1.7962c.1421 0 .2537-.1116.2537-.2537v-3.4806c0-.1218.0507-.2334.1319-.3247z" fill="#338469"/></g><path d="m15.937 5.9231.7814 1.52215-1.5628.81181-.7813-1.55259z" fill="url(#aA)"/><g filter="url(#u)"><path d="m23.5678 8.41958c-.0304-1.23802-1.0655-2.20205-2.3035-2.20205h-1.3598v4.26207l-.6988.5378c-.4262.4262-.6596 1.0046-.6596 1.6033v1.7353c0 .345-.0711.69-.203 1.0147l-.274.6393c-.071.1725.0507.3552.2334.3552h1.7962c.142 0 .2537-.1116.2537-.2537v-3.4806c0-.1218.0507-.2334.1319-.3248l2.2819-2.1107c.0913-.071.1725-.1522.2435-.24353.3653-.41605.5683-.94373.5581-1.53229z" fill="#d5c7e4"/><path d="m23.5678 8.41958c-.0304-1.23802-1.0655-2.20205-2.3035-2.20205h-1.3598v4.26207l-.6988.5378c-.4262.4262-.6596 1.0046-.6596 1.6033v1.7353c0 .345-.0711.69-.203 1.0147l-.274.6393c-.071.1725.0507.3552.2334.3552h1.7962c.142 0 .2537-.1116.2537-.2537v-3.4806c0-.1218.0507-.2334.1319-.3248l2.2819-2.1107c.0913-.071.1725-.1522.2435-.24353.3653-.41605.5683-.94373.5581-1.53229z" fill="url(#aB)"/></g><path d="m23.5678 8.41958c-.0304-1.23802-1.0655-2.20205-2.3035-2.20205h-1.3598v4.26207l-.6988.5378c-.4262.4262-.6596 1.0046-.6596 1.6033v1.7353c0 .345-.0711.69-.203 1.0147l-.274.6393c-.071.1725.0507.3552.2334.3552h1.7962c.142 0 .2537-.1116.2537-.2537v-3.4806c0-.1218.0507-.2334.1319-.3248l2.2819-2.1107c.0913-.071.1725-.1522.2435-.24353.3653-.41605.5683-.94373.5581-1.53229z" fill="url(#aC)"/><g filter="url(#v)"><path d="m18.5466 13.5034v.8524c0 .345-.0711.6901-.203 1.0148l-.274.6393c-.071.1725.0508.3552.2334.3552h1.7961c.1421 0 .2537-.1117.2537-.2537v-2.608z" fill="url(#aD)"/><path d="m18.5466 13.5034v.8524c0 .345-.0711.6901-.203 1.0148l-.274.6393c-.071.1725.0508.3552.2334.3552h1.7961c.1421 0 .2537-.1117.2537-.2537v-2.608z" fill="url(#aE)"/></g><g filter="url(#w)"><path d="m16.5461 6.21753h3.3691v4.05907h-3.7039c-.132 0-.2537.0913-.3146.2131l-.274.5683c-.2841.5885-.893 1.035-1.5424 1.035h-2.6689c-.5074 0-.9234-.4363-.893-.9538.0305-.4871.4465-.8626.9336-.8626h2.5775l1.6947-3.55169c.1522-.32472.4871-.50738.8219-.50738z" fill="url(#aF)"/><path d="m16.5461 6.21753h3.3691v4.05907h-3.7039c-.132 0-.2537.0913-.3146.2131l-.274.5683c-.2841.5885-.893 1.035-1.5424 1.035h-2.6689c-.5074 0-.9234-.4363-.893-.9538.0305-.4871.4465-.8626.9336-.8626h2.5775l1.6947-3.55169c.1522-.32472.4871-.50738.8219-.50738z" fill="url(#aG)"/></g><g filter="url(#x)"><path d="m12.2344 10.2764h-.8232c-.4972 0-.9031.4082-.9031.9082s.4059.9082.9031.9082h.8232z" fill="#b28a7a"/><path d="m12.2344 10.2764h-.8232c-.4972 0-.9031.4082-.9031.9082s.4059.9082.9031.9082h.8232z" fill="url(#aH)"/></g><g filter="url(#y)"><path d="m14.9828 2.97021h-.893c-.7509 0-1.3699.61901-1.3699 1.36994v.38561c0 .12178-.0304.24355-.0913.34502-.1827.31458-.2639.33488-.274.48709-.0102.24355.2131.30443.3146.31458.0304 0 .0507.03044.0608.06089.0203.8524.1827 1.45111 1.1975 1.45111.619 0 1.5932-.31457 1.8773-1.03506l.2638-.98432.2943-1.02492c-.0101-.75093-.619-1.36994-1.3801-1.36994z" fill="url(#aI)"/><path d="m14.9828 2.97021h-.893c-.7509 0-1.3699.61901-1.3699 1.36994v.38561c0 .12178-.0304.24355-.0913.34502-.1827.31458-.2639.33488-.274.48709-.0102.24355.2131.30443.3146.31458.0304 0 .0507.03044.0608.06089.0203.8524.1827 1.45111 1.1975 1.45111.619 0 1.5932-.31457 1.8773-1.03506l.2638-.98432.2943-1.02492c-.0101-.75093-.619-1.36994-1.3801-1.36994z" fill="url(#aJ)"/></g><g filter="url(#z)"><path d="m16.3533 5.68979s.7509-.50738.4871-1.63377c-.1827-.01015-.1522.04059-.3146-.05074-.5175-.27399-1.0452-.53783-1.5627-.80167-.0508.0203-.0914.03045-.1421.04059-.5683.12178-1.1264.27399-1.6845.4465.1928.09133.4668.14207.8321.14207 1.1568 0 1.1441.73869 1.1441.73869s.4897-.16027.4897 1.27055c0 .74078.5581.57842.8219.57842.4364.01014.5074-.73064-.071-.73064z" fill="#4d3339"/><path d="m16.3533 5.68979s.7509-.50738.4871-1.63377c-.1827-.01015-.1522.04059-.3146-.05074-.5175-.27399-1.0452-.53783-1.5627-.80167-.0508.0203-.0914.03045-.1421.04059-.5683.12178-1.1264.27399-1.6845.4465.1928.09133.4668.14207.8321.14207 1.1568 0 1.1441.73869 1.1441.73869s.4897-.16027.4897 1.27055c0 .74078.5581.57842.8219.57842.4364.01014.5074-.73064-.071-.73064z" fill="url(#aK)"/></g><path d="m15.1355 4.54297c.3044 0 .5581.25369.5581.55812s-.2537.55812-.5581.55812z" fill="url(#aL)"/><path d="m15.1355 4.54297c.3044 0 .5581.25369.5581.55812s-.2537.55812-.5581.55812z" fill="url(#aM)"/><path d="m13.0611 5.12154c-.0488 0-.0877-.05074-.0975-.11163 0 0 0 0 0-.01015 0-.25369.2047-.39576.4093-.39576.1949 0 .4093.14207.4093.39576v.01015c0 .06089-.039.11163-.0974.11163z" fill="#fff"/><path d="m12.9839 5.12199c-.0101-.04064-.0203-.07112-.0203-.12192 0-.18288.1118-.33528.2642-.33528.1422 0 .2641.1524.2641.33528 0 .04064-.0101.08128-.0203.12192z" fill="#58403c"/><path d="m13.0654 5.12146c-.0203-.04059-.0305-.08118-.0305-.12177 0-.10148.071-.19281.1522-.19281s.1522.08119.1522.19281c0 .04059-.0101.08118-.0304.12177z" fill="#292929"/><path d="m13.356 5.01637c.0274-.00556.0421-.0467.0329-.09189s-.0388-.07732-.0662-.07176c-.0273.00557-.0421.04671-.0329.0919s.0388.07731.0662.07175z" fill="#fff"/><path d="m13.815 4.25191c.0433.03247.0521.09394.0197.13724-.0325.04326-.0938.05205-.1371.01968l-.0009-.00062-.0061-.00417c-.0057-.00387-.0149-.00975-.0272-.0169-.0247-.01432-.0616-.03353-.1088-.05171-.0944-.03641-.2281-.06807-.3866-.04996-.0538.00615-.1024-.03246-.1085-.08623-.0062-.05377.0324-.10234.0862-.10848.1971-.02253.3631.01693.4795.0618.0582.02246.1045.04643.1366.06512.0162.00937.0288.01745.0378.02343l.0106.0073.0031.00228zm-.1174.15692c0 .00004.0001.00005 0 0z" fill="#482e33"/><path d="m15.2168 4.18799h-.5886v2.90191c0 .16254.1319.29461.2943.29461.1623 0 .2943-.13207.2943-.29461z" fill="url(#aN)"/><path d="m15.2168 4.18799h-.5886v2.90191c0 .16254.1319.29461.2943.29461.1623 0 .2943-.13207.2943-.29461z" fill="url(#aO)"/><path d="m15.2168 4.18799h-.5886v2.90191c0 .16254.1319.29461.2943.29461.1623 0 .2943-.13207.2943-.29461z" fill="url(#aP)"/><path d="m17.0332 3.8734c.0405.16237-.0812.31458-.2436.31458h-4.333c-.2233 0-.3958-.18266-.3958-.39576 0-.22325.1826-.39576.3958-.39576.2029 0 .3957-.10147.5175-.27398.4059-.57842 1.0858-.96403 1.857-.96403 1.0655 0 1.9585.73063 2.2021 1.71495z" fill="url(#aQ)"/><path d="m17.0332 3.8734c.0405.16237-.0812.31458-.2436.31458h-4.333c-.2233 0-.3958-.18266-.3958-.39576 0-.22325.1826-.39576.3958-.39576.2029 0 .3957-.10147.5175-.27398.4059-.57842 1.0858-.96403 1.857-.96403 1.0655 0 1.9585.73063 2.2021 1.71495z" fill="url(#aR)"/><path d="m17.0332 3.8734c.0405.16237-.0812.31458-.2436.31458h-4.333c-.2233 0-.3958-.18266-.3958-.39576 0-.22325.1826-.39576.3958-.39576.2029 0 .3957-.10147.5175-.27398.4059-.57842 1.0858-.96403 1.857-.96403 1.0655 0 1.9585.73063 2.2021 1.71495z" fill="url(#aS)"/><path clip-rule="evenodd" d="m13.62 5.85421c.0308.02771.0333.07514.0056.10592-.0803.08929-.1804.14585-.2702.18007-.0892.03398-.1735.04789-.2269.04789-.0415 0-.075-.03358-.075-.075s.0335-.075.075-.075c.0324 0 .0986-.00953.1735-.03806.0742-.02827.1519-.07327.2121-.14024.0277-.03079.0752-.03328.1059-.00558z" fill="#86004d" fill-rule="evenodd"/></svg>