<svg fill="none" height="32" viewBox="0 0 32 32" width="32" xmlns="http://www.w3.org/2000/svg" xmlns:xlink="http://www.w3.org/1999/xlink"><linearGradient id="a" gradientUnits="userSpaceOnUse" x1="16" x2="16" y1="3" y2="31.7233"><stop offset="0" stop-color="#a66150"/><stop offset=".750104" stop-color="#a66150"/><stop offset=".906704" stop-color="#883854"/><stop offset=".976674" stop-color="#6a2b4c"/></linearGradient><radialGradient id="b" cx="0" cy="0" gradientTransform="matrix(0 1.93279 -1.99692 0 16 19.316)" gradientUnits="userSpaceOnUse" r="1"><stop offset="0" stop-color="#822079"/><stop offset="1" stop-color="#b20597" stop-opacity="0"/></radialGradient><linearGradient id="c" gradientUnits="userSpaceOnUse" x1=".835954" x2="16" y1="15.7554" y2="31.0687"><stop offset="0" stop-color="#7c574f"/><stop offset=".277322" stop-color="#7c574f" stop-opacity="0"/></linearGradient><radialGradient id="d" cx="0" cy="0" gradientTransform="matrix(.55795745 .55795745 -.66056996 .66056996 25.8598 18.3842)" gradientUnits="userSpaceOnUse" r="1"><stop offset="0" stop-color="#d9d9d9" stop-opacity=".54"/><stop offset=".523361" stop-color="#d9d9d9" stop-opacity=".180621"/><stop offset=".950459" stop-color="#d9d9d9" stop-opacity="0"/><stop offset="1" stop-color="#d9d9d9" stop-opacity="0"/></radialGradient><radialGradient id="e" cx="0" cy="0" gradientTransform="matrix(1.47035367 4.97786528 -13.62140228 4.02346745 22.7008 12.5508)" gradientUnits="userSpaceOnUse" r="1"><stop offset="0" stop-color="#dd978a" stop-opacity=".74"/><stop offset=".358065" stop-color="#dd978a" stop-opacity=".414208"/><stop offset=".616525" stop-color="#dd978a" stop-opacity="0"/></radialGradient><radialGradient id="f" cx="0" cy="0" gradientTransform="matrix(4.5300965 -.2552165 .6100631 10.82862875 9.89344 15.7357)" gradientUnits="userSpaceOnUse" r="1"><stop offset="0" stop-color="#754238"/><stop offset="1" stop-color="#7b4a40" stop-opacity="0"/></radialGradient><radialGradient id="g" cx="0" cy="0" gradientTransform="matrix(1.16215038 5.25810151 -16.89105303 3.73327592 23.6489 23.2035)" gradientUnits="userSpaceOnUse" r="1"><stop offset="0" stop-color="#f7b8ac" stop-opacity=".58"/><stop offset=".817924" stop-color="#e09b8e" stop-opacity=".079376"/><stop offset="1" stop-color="#dd978a" stop-opacity="0"/></radialGradient><linearGradient id="h"><stop offset=".529939" stop-color="#57292c"/><stop offset=".90777" stop-color="#57292c" stop-opacity=".088199"/><stop offset="1" stop-color="#57292c" stop-opacity="0"/></linearGradient><radialGradient id="i" cx="0" cy="0" gradientTransform="matrix(-5.56339 0 0 -5.74798 20.8891 19.882)" gradientUnits="userSpaceOnUse" r="1" xlink:href="#h"/><radialGradient id="j" cx="0" cy="0" gradientTransform="matrix(-5.22533 0 0 -5.39871 10.0542 19.882)" gradientUnits="userSpaceOnUse" r="1" xlink:href="#h"/><radialGradient id="k" cx="0" cy="0" gradientTransform="matrix(-1.22293181 -.9626981 .29389326 -.37333761 12.6286 11.413)" gradientUnits="userSpaceOnUse" r="1"><stop offset="0" stop-color="#c29186"/><stop offset=".347247" stop-color="#bc897e" stop-opacity=".729175"/><stop offset=".826943" stop-color="#ad776b" stop-opacity=".134854"/><stop offset="1" stop-color="#aa7367" stop-opacity="0"/></radialGradient><radialGradient id="l" cx="0" cy="0" gradientTransform="matrix(.55121636 .848481 -1.85573824 1.20558183 20.4413 10.4383)" gradientUnits="userSpaceOnUse" r="1"><stop offset=".122629" stop-color="#622c27"/><stop offset=".388556" stop-color="#6c3730" stop-opacity=".78712"/><stop offset="1" stop-color="#916053" stop-opacity="0"/></radialGradient><radialGradient id="m" cx="0" cy="0" gradientTransform="matrix(.83760309 2.52737944 -5.77955224 1.91541119 16.2276 9.78301)" gradientUnits="userSpaceOnUse" r="1"><stop offset="0" stop-color="#dd978a" stop-opacity=".78"/><stop offset=".656425" stop-color="#dd978a" stop-opacity=".199397"/><stop offset="1" stop-color="#dd978a" stop-opacity="0"/></radialGradient><radialGradient id="n" cx="0" cy="0" gradientTransform="matrix(2.06680869 1.18841491 -2.71764946 4.72634724 19.3177 8.7806)" gradientUnits="userSpaceOnUse" r="1"><stop offset="0" stop-color="#dd978a" stop-opacity=".78"/><stop offset=".656425" stop-color="#dd978a" stop-opacity=".199397"/><stop offset=".867912" stop-color="#dd978a" stop-opacity=".050755"/><stop offset="1" stop-color="#dd978a" stop-opacity="0"/></radialGradient><radialGradient id="o" cx="0" cy="0" gradientTransform="matrix(2.12497073 -1.22776248 2.19051765 3.79127556 5.28299 26.728)" gradientUnits="userSpaceOnUse" r="1"><stop offset="0" stop-color="#774e46" stop-opacity=".47"/><stop offset=".331235" stop-color="#774e46" stop-opacity=".575871"/><stop offset="1" stop-color="#774e46" stop-opacity="0"/></radialGradient><radialGradient id="p" cx="0" cy="0" gradientTransform="matrix(2.16720743 .04072292 -.09431582 5.01933396 3.81912 22.9503)" gradientUnits="userSpaceOnUse" r="1"><stop offset="0" stop-color="#774e46" stop-opacity=".37"/><stop offset=".225486" stop-color="#774e46" stop-opacity=".46"/><stop offset="1" stop-color="#774e46" stop-opacity="0"/></radialGradient><radialGradient id="q" cx="0" cy="0" gradientTransform="matrix(-.44850113 1.45183269 -5.46914975 -1.68953343 14.5544 12.6696)" gradientUnits="userSpaceOnUse" r="1"><stop offset="0" stop-color="#b07366"/><stop offset=".734468" stop-color="#ad7367" stop-opacity=".185385"/><stop offset="1" stop-color="#ac7367" stop-opacity="0"/></radialGradient><linearGradient id="r"><stop offset="0" stop-color="#c47e70"/><stop offset=".704725" stop-color="#c47e70" stop-opacity=".19827"/><stop offset="1" stop-color="#c47e70" stop-opacity="0"/></linearGradient><radialGradient id="s" cx="0" cy="0" gradientTransform="matrix(.11823056 1.22170244 -4.60174153 .44533468 18.0394 12.6633)" gradientUnits="userSpaceOnUse" r="1" xlink:href="#r"/><radialGradient id="t" cx="0" cy="0" gradientTransform="matrix(.33398038 .83495559 -3.14500364 1.25799449 19.7407 12.113)" gradientUnits="userSpaceOnUse" r="1" xlink:href="#r"/><radialGradient id="u" cx="0" cy="0" gradientTransform="matrix(-8.80632017 7.20121869 -3.29837567 -4.03356063 16.5921 7.64106)" gradientUnits="userSpaceOnUse" r="1"><stop offset=".407685" stop-color="#905243" stop-opacity="0"/><stop offset="1" stop-color="#6c3e31"/></radialGradient><linearGradient id="v" gradientUnits="userSpaceOnUse" x1="17.913" x2="17.4982" y1="12.0678" y2="10.4362"><stop offset="0" stop-color="#220404"/><stop offset="1" stop-color="#390808" stop-opacity="0"/></linearGradient><radialGradient id="w" cx="0" cy="0" gradientTransform="matrix(2.92003622 5.21030234 -7.8177216 4.38132546 17.0628 5.76865)" gradientUnits="userSpaceOnUse" r="1"><stop offset=".652349" stop-color="#965b4f" stop-opacity="0"/><stop offset="1" stop-color="#653120"/></radialGradient><linearGradient id="x" gradientUnits="userSpaceOnUse" x1="16.0781" x2="16.0781" y1="29.7249" y2="24.5374"><stop offset="0" stop-color="#db0c8a"/><stop offset="1" stop-color="#8a077d"/></linearGradient><linearGradient id="y" gradientUnits="userSpaceOnUse" x1="18.4336" x2="17.7975" y1="16.3365" y2="22.1802"><stop offset="0" stop-color="#553b3e"/><stop offset="1" stop-color="#3d2432"/></linearGradient><path d="m21.5722 6.65937c.1253 1.05846-.0632 1.73503-.3089 2.13372 2.0286.56016 3.8783 1.97371 4.7425 3.82051.6249 1.531.6602 3.3581.192 5.0264 2.4834 1.2067 4.3022 3.9067 4.3022 6.7886 0 3.7219-2.723 6.3992-6.5743 6.6247v.0154h-15.39586v-.0034c-4.76929-.1162-7.02985-3.3167-7.02984-7.042.00001-2.494 2.14893-5.4705 4.54851-6.4912-.00117-.2187.02061-.3856.05676-.5115-.92892-1.879.02089-3.7796.61777-4.5005.07971-.1018.15463-.1995.22696-.2932l.00989-.0132c.83088-1.0828 1.33151-1.7353 4.89511-3.27862 3.8869-1.6834 5.2686-3.33563 5.8-4.00587.1463-.18461.2811-.42475.4202-.67243.3662-.65222.7625-1.35778 1.4777-1.24478.9869.15587 1.7612 1.46519 2.0193 3.64737z" fill="url(#a)"/><path d="m21.5722 6.65937c.1253 1.05846-.0632 1.73503-.3089 2.13372 2.0286.56016 3.8783 1.97371 4.7425 3.82051.6249 1.531.6602 3.3581.192 5.0264 2.4834 1.2067 4.3022 3.9067 4.3022 6.7886 0 3.7219-2.723 6.3992-6.5743 6.6247v.0154h-15.39586v-.0034c-4.76929-.1162-7.02985-3.3167-7.02984-7.042.00001-2.494 2.14893-5.4705 4.54851-6.4912-.00117-.2187.02061-.3856.05676-.5115-.92892-1.879.02089-3.7796.61777-4.5005.07971-.1018.15463-.1995.22696-.2932l.00989-.0132c.83088-1.0828 1.33151-1.7353 4.89511-3.27862 3.8869-1.6834 5.2686-3.33563 5.8-4.00587.1463-.18461.2811-.42475.4202-.67243.3662-.65222.7625-1.35778 1.4777-1.24478.9869.15587 1.7612 1.46519 2.0193 3.64737z" fill="url(#b)" fill-opacity=".3"/><path d="m21.5722 6.65937c.1253 1.05846-.0632 1.73503-.3089 2.13372 2.0286.56016 3.8783 1.97371 4.7425 3.82051.6249 1.531.6602 3.3581.192 5.0264 2.4834 1.2067 4.3022 3.9067 4.3022 6.7886 0 3.7219-2.723 6.3992-6.5743 6.6247v.0154h-15.39586v-.0034c-4.76929-.1162-7.02985-3.3167-7.02984-7.042.00001-2.494 2.14893-5.4705 4.54851-6.4912-.00117-.2187.02061-.3856.05676-.5115-.92892-1.879.02089-3.7796.61777-4.5005.07971-.1018.15463-.1995.22696-.2932l.00989-.0132c.83088-1.0828 1.33151-1.7353 4.89511-3.27862 3.8869-1.6834 5.2686-3.33563 5.8-4.00587.1463-.18461.2811-.42475.4202-.67243.3662-.65222.7625-1.35778 1.4777-1.24478.9869.15587 1.7612 1.46519 2.0193 3.64737z" fill="url(#c)"/><path d="m21.5722 6.65937c.1253 1.05846-.0632 1.73503-.3089 2.13372 2.0286.56016 3.8783 1.97371 4.7425 3.82051.6249 1.531.6602 3.3581.192 5.0264 2.4834 1.2067 4.3022 3.9067 4.3022 6.7886 0 3.7219-2.723 6.3992-6.5743 6.6247v.0154h-15.39586v-.0034c-4.76929-.1162-7.02985-3.3167-7.02984-7.042.00001-2.494 2.14893-5.4705 4.54851-6.4912-.00117-.2187.02061-.3856.05676-.5115-.92892-1.879.02089-3.7796.61777-4.5005.07971-.1018.15463-.1995.22696-.2932l.00989-.0132c.83088-1.0828 1.33151-1.7353 4.89511-3.27862 3.8869-1.6834 5.2686-3.33563 5.8-4.00587.1463-.18461.2811-.42475.4202-.67243.3662-.65222.7625-1.35778 1.4777-1.24478.9869.15587 1.7612 1.46519 2.0193 3.64737z" fill="url(#d)"/><path d="m21.5722 6.65937c.1253 1.05846-.0632 1.73503-.3089 2.13372 2.0286.56016 3.8783 1.97371 4.7425 3.82051.6249 1.531.6602 3.3581.192 5.0264 2.4834 1.2067 4.3022 3.9067 4.3022 6.7886 0 3.7219-2.723 6.3992-6.5743 6.6247v.0154h-15.39586v-.0034c-4.76929-.1162-7.02985-3.3167-7.02984-7.042.00001-2.494 2.14893-5.4705 4.54851-6.4912-.00117-.2187.02061-.3856.05676-.5115-.92892-1.879.02089-3.7796.61777-4.5005.07971-.1018.15463-.1995.22696-.2932l.00989-.0132c.83088-1.0828 1.33151-1.7353 4.89511-3.27862 3.8869-1.6834 5.2686-3.33563 5.8-4.00587.1463-.18461.2811-.42475.4202-.67243.3662-.65222.7625-1.35778 1.4777-1.24478.9869.15587 1.7612 1.46519 2.0193 3.64737z" fill="url(#e)" fill-opacity=".8"/><path d="m21.5722 6.65937c.1253 1.05846-.0632 1.73503-.3089 2.13372 2.0286.56016 3.8783 1.97371 4.7425 3.82051.6249 1.531.6602 3.3581.192 5.0264 2.4834 1.2067 4.3022 3.9067 4.3022 6.7886 0 3.7219-2.723 6.3992-6.5743 6.6247v.0154h-15.39586v-.0034c-4.76929-.1162-7.02985-3.3167-7.02984-7.042.00001-2.494 2.14893-5.4705 4.54851-6.4912-.00117-.2187.02061-.3856.05676-.5115-.92892-1.879.02089-3.7796.61777-4.5005.07971-.1018.15463-.1995.22696-.2932l.00989-.0132c.83088-1.0828 1.33151-1.7353 4.89511-3.27862 3.8869-1.6834 5.2686-3.33563 5.8-4.00587.1463-.18461.2811-.42475.4202-.67243.3662-.65222.7625-1.35778 1.4777-1.24478.9869.15587 1.7612 1.46519 2.0193 3.64737z" fill="url(#f)"/><path d="m21.5722 6.65937c.1253 1.05846-.0632 1.73503-.3089 2.13372 2.0286.56016 3.8783 1.97371 4.7425 3.82051.6249 1.531.6602 3.3581.192 5.0264 2.4834 1.2067 4.3022 3.9067 4.3022 6.7886 0 3.7219-2.723 6.3992-6.5743 6.6247v.0154h-15.39586v-.0034c-4.76929-.1162-7.02985-3.3167-7.02984-7.042.00001-2.494 2.14893-5.4705 4.54851-6.4912-.00117-.2187.02061-.3856.05676-.5115-.92892-1.879.02089-3.7796.61777-4.5005.07971-.1018.15463-.1995.22696-.2932l.00989-.0132c.83088-1.0828 1.33151-1.7353 4.89511-3.27862 3.8869-1.6834 5.2686-3.33563 5.8-4.00587.1463-.18461.2811-.42475.4202-.67243.3662-.65222.7625-1.35778 1.4777-1.24478.9869.15587 1.7612 1.46519 2.0193 3.64737z" fill="url(#g)"/><path d="m21.5722 6.65937c.1253 1.05846-.0632 1.73503-.3089 2.13372 2.0286.56016 3.8783 1.97371 4.7425 3.82051.6249 1.531.6602 3.3581.192 5.0264 2.4834 1.2067 4.3022 3.9067 4.3022 6.7886 0 3.7219-2.723 6.3992-6.5743 6.6247v.0154h-15.39586v-.0034c-4.76929-.1162-7.02985-3.3167-7.02984-7.042.00001-2.494 2.14893-5.4705 4.54851-6.4912-.00117-.2187.02061-.3856.05676-.5115-.92892-1.879.02089-3.7796.61777-4.5005.07971-.1018.15463-.1995.22696-.2932l.00989-.0132c.83088-1.0828 1.33151-1.7353 4.89511-3.27862 3.8869-1.6834 5.2686-3.33563 5.8-4.00587.1463-.18461.2811-.42475.4202-.67243.3662-.65222.7625-1.35778 1.4777-1.24478.9869.15587 1.7612 1.46519 2.0193 3.64737z" fill="url(#i)"/><path d="m21.5722 6.65937c.1253 1.05846-.0632 1.73503-.3089 2.13372 2.0286.56016 3.8783 1.97371 4.7425 3.82051.6249 1.531.6602 3.3581.192 5.0264 2.4834 1.2067 4.3022 3.9067 4.3022 6.7886 0 3.7219-2.723 6.3992-6.5743 6.6247v.0154h-15.39586v-.0034c-4.76929-.1162-7.02985-3.3167-7.02984-7.042.00001-2.494 2.14893-5.4705 4.54851-6.4912-.00117-.2187.02061-.3856.05676-.5115-.92892-1.879.02089-3.7796.61777-4.5005.07971-.1018.15463-.1995.22696-.2932l.00989-.0132c.83088-1.0828 1.33151-1.7353 4.89511-3.27862 3.8869-1.6834 5.2686-3.33563 5.8-4.00587.1463-.18461.2811-.42475.4202-.67243.3662-.65222.7625-1.35778 1.4777-1.24478.9869.15587 1.7612 1.46519 2.0193 3.64737z" fill="url(#j)"/><path d="m21.5722 6.65937c.1253 1.05846-.0632 1.73503-.3089 2.13372 2.0286.56016 3.8783 1.97371 4.7425 3.82051.6249 1.531.6602 3.3581.192 5.0264 2.4834 1.2067 4.3022 3.9067 4.3022 6.7886 0 3.7219-2.723 6.3992-6.5743 6.6247v.0154h-15.39586v-.0034c-4.76929-.1162-7.02985-3.3167-7.02984-7.042.00001-2.494 2.14893-5.4705 4.54851-6.4912-.00117-.2187.02061-.3856.05676-.5115-.92892-1.879.02089-3.7796.61777-4.5005.07971-.1018.15463-.1995.22696-.2932l.00989-.0132c.83088-1.0828 1.33151-1.7353 4.89511-3.27862 3.8869-1.6834 5.2686-3.33563 5.8-4.00587.1463-.18461.2811-.42475.4202-.67243.3662-.65222.7625-1.35778 1.4777-1.24478.9869.15587 1.7612 1.46519 2.0193 3.64737z" fill="url(#k)"/><path d="m21.5722 6.65937c.1253 1.05846-.0632 1.73503-.3089 2.13372 2.0286.56016 3.8783 1.97371 4.7425 3.82051.6249 1.531.6602 3.3581.192 5.0264 2.4834 1.2067 4.3022 3.9067 4.3022 6.7886 0 3.7219-2.723 6.3992-6.5743 6.6247v.0154h-15.39586v-.0034c-4.76929-.1162-7.02985-3.3167-7.02984-7.042.00001-2.494 2.14893-5.4705 4.54851-6.4912-.00117-.2187.02061-.3856.05676-.5115-.92892-1.879.02089-3.7796.61777-4.5005.07971-.1018.15463-.1995.22696-.2932l.00989-.0132c.83088-1.0828 1.33151-1.7353 4.89511-3.27862 3.8869-1.6834 5.2686-3.33563 5.8-4.00587.1463-.18461.2811-.42475.4202-.67243.3662-.65222.7625-1.35778 1.4777-1.24478.9869.15587 1.7612 1.46519 2.0193 3.64737z" fill="url(#l)"/><path d="m21.5722 6.65937c.1253 1.05846-.0632 1.73503-.3089 2.13372 2.0286.56016 3.8783 1.97371 4.7425 3.82051.6249 1.531.6602 3.3581.192 5.0264 2.4834 1.2067 4.3022 3.9067 4.3022 6.7886 0 3.7219-2.723 6.3992-6.5743 6.6247v.0154h-15.39586v-.0034c-4.76929-.1162-7.02985-3.3167-7.02984-7.042.00001-2.494 2.14893-5.4705 4.54851-6.4912-.00117-.2187.02061-.3856.05676-.5115-.92892-1.879.02089-3.7796.61777-4.5005.07971-.1018.15463-.1995.22696-.2932l.00989-.0132c.83088-1.0828 1.33151-1.7353 4.89511-3.27862 3.8869-1.6834 5.2686-3.33563 5.8-4.00587.1463-.18461.2811-.42475.4202-.67243.3662-.65222.7625-1.35778 1.4777-1.24478.9869.15587 1.7612 1.46519 2.0193 3.64737z" fill="url(#m)"/><path d="m21.5722 6.65937c.1253 1.05846-.0632 1.73503-.3089 2.13372 2.0286.56016 3.8783 1.97371 4.7425 3.82051.6249 1.531.6602 3.3581.192 5.0264 2.4834 1.2067 4.3022 3.9067 4.3022 6.7886 0 3.7219-2.723 6.3992-6.5743 6.6247v.0154h-15.39586v-.0034c-4.76929-.1162-7.02985-3.3167-7.02984-7.042.00001-2.494 2.14893-5.4705 4.54851-6.4912-.00117-.2187.02061-.3856.05676-.5115-.92892-1.879.02089-3.7796.61777-4.5005.07971-.1018.15463-.1995.22696-.2932l.00989-.0132c.83088-1.0828 1.33151-1.7353 4.89511-3.27862 3.8869-1.6834 5.2686-3.33563 5.8-4.00587.1463-.18461.2811-.42475.4202-.67243.3662-.65222.7625-1.35778 1.4777-1.24478.9869.15587 1.7612 1.46519 2.0193 3.64737z" fill="url(#n)"/><path d="m21.5722 6.65937c.1253 1.05846-.0632 1.73503-.3089 2.13372 2.0286.56016 3.8783 1.97371 4.7425 3.82051.6249 1.531.6602 3.3581.192 5.0264 2.4834 1.2067 4.3022 3.9067 4.3022 6.7886 0 3.7219-2.723 6.3992-6.5743 6.6247v.0154h-15.39586v-.0034c-4.76929-.1162-7.02985-3.3167-7.02984-7.042.00001-2.494 2.14893-5.4705 4.54851-6.4912-.00117-.2187.02061-.3856.05676-.5115-.92892-1.879.02089-3.7796.61777-4.5005.07971-.1018.15463-.1995.22696-.2932l.00989-.0132c.83088-1.0828 1.33151-1.7353 4.89511-3.27862 3.8869-1.6834 5.2686-3.33563 5.8-4.00587.1463-.18461.2811-.42475.4202-.67243.3662-.65222.7625-1.35778 1.4777-1.24478.9869.15587 1.7612 1.46519 2.0193 3.64737z" fill="url(#o)"/><path d="m21.5722 6.65937c.1253 1.05846-.0632 1.73503-.3089 2.13372 2.0286.56016 3.8783 1.97371 4.7425 3.82051.6249 1.531.6602 3.3581.192 5.0264 2.4834 1.2067 4.3022 3.9067 4.3022 6.7886 0 3.7219-2.723 6.3992-6.5743 6.6247v.0154h-15.39586v-.0034c-4.76929-.1162-7.02985-3.3167-7.02984-7.042.00001-2.494 2.14893-5.4705 4.54851-6.4912-.00117-.2187.02061-.3856.05676-.5115-.92892-1.879.02089-3.7796.61777-4.5005.07971-.1018.15463-.1995.22696-.2932l.00989-.0132c.83088-1.0828 1.33151-1.7353 4.89511-3.27862 3.8869-1.6834 5.2686-3.33563 5.8-4.00587.1463-.18461.2811-.42475.4202-.67243.3662-.65222.7625-1.35778 1.4777-1.24478.9869.15587 1.7612 1.46519 2.0193 3.64737z" fill="url(#p)"/><path d="m21.5722 6.65937c.1253 1.05846-.0632 1.73503-.3089 2.13372 2.0286.56016 3.8783 1.97371 4.7425 3.82051.6249 1.531.6602 3.3581.192 5.0264 2.4834 1.2067 4.3022 3.9067 4.3022 6.7886 0 3.7219-2.723 6.3992-6.5743 6.6247v.0154h-15.39586v-.0034c-4.76929-.1162-7.02985-3.3167-7.02984-7.042.00001-2.494 2.14893-5.4705 4.54851-6.4912-.00117-.2187.02061-.3856.05676-.5115-.92892-1.879.02089-3.7796.61777-4.5005.07971-.1018.15463-.1995.22696-.2932l.00989-.0132c.83088-1.0828 1.33151-1.7353 4.89511-3.27862 3.8869-1.6834 5.2686-3.33563 5.8-4.00587.1463-.18461.2811-.42475.4202-.67243.3662-.65222.7625-1.35778 1.4777-1.24478.9869.15587 1.7612 1.46519 2.0193 3.64737z" fill="url(#q)"/><path d="m21.5722 6.65937c.1253 1.05846-.0632 1.73503-.3089 2.13372 2.0286.56016 3.8783 1.97371 4.7425 3.82051.6249 1.531.6602 3.3581.192 5.0264 2.4834 1.2067 4.3022 3.9067 4.3022 6.7886 0 3.7219-2.723 6.3992-6.5743 6.6247v.0154h-15.39586v-.0034c-4.76929-.1162-7.02985-3.3167-7.02984-7.042.00001-2.494 2.14893-5.4705 4.54851-6.4912-.00117-.2187.02061-.3856.05676-.5115-.92892-1.879.02089-3.7796.61777-4.5005.07971-.1018.15463-.1995.22696-.2932l.00989-.0132c.83088-1.0828 1.33151-1.7353 4.89511-3.27862 3.8869-1.6834 5.2686-3.33563 5.8-4.00587.1463-.18461.2811-.42475.4202-.67243.3662-.65222.7625-1.35778 1.4777-1.24478.9869.15587 1.7612 1.46519 2.0193 3.64737z" fill="url(#s)"/><path d="m21.5722 6.65937c.1253 1.05846-.0632 1.73503-.3089 2.13372 2.0286.56016 3.8783 1.97371 4.7425 3.82051.6249 1.531.6602 3.3581.192 5.0264 2.4834 1.2067 4.3022 3.9067 4.3022 6.7886 0 3.7219-2.723 6.3992-6.5743 6.6247v.0154h-15.39586v-.0034c-4.76929-.1162-7.02985-3.3167-7.02984-7.042.00001-2.494 2.14893-5.4705 4.54851-6.4912-.00117-.2187.02061-.3856.05676-.5115-.92892-1.879.02089-3.7796.61777-4.5005.07971-.1018.15463-.1995.22696-.2932l.00989-.0132c.83088-1.0828 1.33151-1.7353 4.89511-3.27862 3.8869-1.6834 5.2686-3.33563 5.8-4.00587.1463-.18461.2811-.42475.4202-.67243.3662-.65222.7625-1.35778 1.4777-1.24478.9869.15587 1.7612 1.46519 2.0193 3.64737z" fill="url(#t)"/><path d="m20.2246 10.9105c-.2125.5455-4.5397 1.7808-6.1795 1.2976-1.595-.2616-1.2499-1.4649-.1364-2.87043 1.6398-2.06986 4.9458-4.57847 6.1755-5.16478.9617-.45865 1.3869 1.81522 1.3931 1.85105.1898 1.09502.1822 1.72629-.0342 2.38869-.1836.56204-.8578 1.83157-1.2185 2.49787z" fill="url(#u)"/><path d="m20.2246 10.9105c-.2125.5455-4.5397 1.7808-6.1795 1.2976-1.595-.2616-1.2499-1.4649-.1364-2.87043 1.6398-2.06986 4.9458-4.57847 6.1755-5.16478.9617-.45865 1.3869 1.81522 1.3931 1.85105.1898 1.09502.1822 1.72629-.0342 2.38869-.1836.56204-.8578 1.83157-1.2185 2.49787z" fill="url(#v)" fill-opacity=".4"/><path d="m20.2246 10.9105c-.2125.5455-4.5397 1.7808-6.1795 1.2976-1.595-.2616-1.2499-1.4649-.1364-2.87043 1.6398-2.06986 4.9458-4.57847 6.1755-5.16478.9617-.45865 1.3869 1.81522 1.3931 1.85105.1898 1.09502.1822 1.72629-.0342 2.38869-.1836.56204-.8578 1.83157-1.2185 2.49787z" fill="url(#w)"/><path d="m12.125 25.1589h7.9062c0 2.3788-1.7698 3.9185-3.9531 3.9185-2.1832 0-3.9531-1.4766-3.9531-3.9185z" fill="url(#x)"/><g clip-rule="evenodd" fill-rule="evenodd"><path d="m15.0849 19.6188c0 2.4771-2.0081 4.4851-4.4851 4.4851-2.47703 0-4.48505-2.008-4.48505-4.4851 0-2.477 2.00802-4.485 4.48505-4.485 2.477 0 4.4851 2.008 4.4851 4.485zm10.8989 0c0 2.4771-2.008 4.4851-4.4851 4.4851-2.477 0-4.485-2.008-4.485-4.4851 0-2.477 2.008-4.485 4.485-4.485 2.4771 0 4.4851 2.008 4.4851 4.485z" fill="#fff"/><path d="m11.5147 22.1312c1.3716 0 2.4834-1.1119 2.4834-2.4835 0-1.3715-1.1118-2.4834-2.4834-2.4834s-2.48345 1.1119-2.48345 2.4834c0 1.3716 1.11185 2.4835 2.48345 2.4835zm9.0113 0c1.3716 0 2.4834-1.1119 2.4834-2.4835 0-1.3715-1.1118-2.4834-2.4834-2.4834s-2.4834 1.1119-2.4834 2.4834c0 1.3716 1.1118 2.4835 2.4834 2.4835z" fill="url(#y)"/></g></svg>