<svg fill="none" height="32" viewBox="0 0 32 32" width="32" xmlns="http://www.w3.org/2000/svg" xmlns:xlink="http://www.w3.org/1999/xlink"><filter id="a" color-interpolation-filters="sRGB" filterUnits="userSpaceOnUse" height="17.9696" width="5.97766" x="12.0424" y="8.03699"><feFlood flood-opacity="0" result="BackgroundImageFix"/><feBlend in="SourceGraphic" in2="BackgroundImageFix" mode="normal" result="shape"/><feGaussianBlur result="effect1_foregroundBlur_18_13495" stdDeviation=".5"/></filter><filter id="b" color-interpolation-filters="sRGB" filterUnits="userSpaceOnUse" height="9.99536" width="2.6" x="15.0288" y="15.0112"><feFlood flood-opacity="0" result="BackgroundImageFix"/><feBlend in="SourceGraphic" in2="BackgroundImageFix" mode="normal" result="shape"/><feColorMatrix in="SourceAlpha" result="hardAlpha" type="matrix" values="0 0 0 0 0 0 0 0 0 0 0 0 0 0 0 0 0 0 127 0"/><feOffset dx=".6"/><feGaussianBlur stdDeviation=".425"/><feComposite in2="hardAlpha" k2="-1" k3="1" operator="arithmetic"/><feColorMatrix type="matrix" values="0 0 0 0 0.635294 0 0 0 0 0.227451 0 0 0 0 0.403922 0 0 0 1 0"/><feBlend in2="shape" mode="normal" result="effect1_innerShadow_18_13495"/></filter><filter id="c" color-interpolation-filters="sRGB" filterUnits="userSpaceOnUse" height="28.8" width="28.8" x="1.6" y="1.6"><feFlood flood-opacity="0" result="BackgroundImageFix"/><feBlend in="SourceGraphic" in2="BackgroundImageFix" mode="normal" result="shape"/><feColorMatrix in="SourceAlpha" result="hardAlpha" type="matrix" values="0 0 0 0 0 0 0 0 0 0 0 0 0 0 0 0 0 0 127 0"/><feOffset dx=".4" dy="-.4"/><feGaussianBlur stdDeviation=".3"/><feComposite in2="hardAlpha" k2="-1" k3="1" operator="arithmetic"/><feColorMatrix type="matrix" values="0 0 0 0 0.282353 0 0 0 0 0.254902 0 0 0 0 0.313726 0 0 0 1 0"/><feBlend in2="shape" mode="normal" result="effect1_innerShadow_18_13495"/><feColorMatrix in="SourceAlpha" result="hardAlpha" type="matrix" values="0 0 0 0 0 0 0 0 0 0 0 0 0 0 0 0 0 0 127 0"/><feOffset dx="-.4" dy=".4"/><feGaussianBlur stdDeviation=".3"/><feComposite in2="hardAlpha" k2="-1" k3="1" operator="arithmetic"/><feColorMatrix type="matrix" values="0 0 0 0 0.533333 0 0 0 0 0.533333 0 0 0 0 0.533333 0 0 0 1 0"/><feBlend in2="effect1_innerShadow_18_13495" mode="normal" result="effect2_innerShadow_18_13495"/></filter><radialGradient id="d" cx="0" cy="0" gradientTransform="matrix(17.50491717 -18.26186864 18.26186864 17.50491717 9.57405 24.4982)" gradientUnits="userSpaceOnUse" r="1"><stop offset=".598155" stop-color="#dddadf"/><stop offset="1" stop-color="#bdbabf"/></radialGradient><linearGradient id="e" gradientUnits="userSpaceOnUse" x1="16.0288" x2="16.0288" y1="9.03699" y2="14.8484"><stop offset="0" stop-color="#32183d"/><stop offset="1" stop-color="#2c3a65"/></linearGradient><linearGradient id="f" gradientUnits="userSpaceOnUse" x1="15.0288" x2="16.0288" y1="12.0672" y2="12.0672"><stop offset="0" stop-color="#2e2840"/><stop offset="1" stop-color="#2e2840" stop-opacity="0"/></linearGradient><radialGradient id="g" cx="0" cy="0" gradientTransform="matrix(0 5.73026 -.815281 0 16.6382 9.42938)" gradientUnits="userSpaceOnUse" r="1"><stop offset="0" stop-color="#50375f"/><stop offset="1" stop-color="#50375f" stop-opacity="0"/></radialGradient><linearGradient id="h" gradientUnits="userSpaceOnUse" x1="16.0288" x2="16.0288" y1="9.03699" y2="9.75465"><stop offset="0" stop-color="#3e1846"/><stop offset="1" stop-color="#3e1846" stop-opacity="0"/></linearGradient><linearGradient id="i" gradientUnits="userSpaceOnUse" x1="16.0288" x2="16.0288" y1="15.0112" y2="25.0066"><stop offset="0" stop-color="#f74093"/><stop offset="1" stop-color="#f83f4c"/></linearGradient><radialGradient id="j" cx="0" cy="0" gradientTransform="matrix(0 2.48477 -1.20957 0 16.0288 17.1054)" gradientUnits="userSpaceOnUse" r="1"><stop offset=".115385" stop-color="#911a57"/><stop offset="1" stop-color="#911a57" stop-opacity="0"/></radialGradient><linearGradient id="k" gradientUnits="userSpaceOnUse" x1="24.5108" x2="4.28379" y1="4.01349" y2="28.5336"><stop offset="0" stop-color="#6d6b70"/><stop offset="1" stop-color="#706c74"/></linearGradient><radialGradient id="l" cx="0" cy="0" gradientTransform="matrix(-2.36657524 2.44732449 -2.44732449 -2.36657524 17.111 15.5527)" gradientUnits="userSpaceOnUse" r="1"><stop offset="0" stop-color="#c9c6cc"/><stop offset="1" stop-color="#928e95"/></radialGradient><radialGradient id="m" cx="0" cy="0" gradientTransform="matrix(-2.18751143 1.87499028 -1.87499028 -2.18751143 16.5937 15.5047)" gradientUnits="userSpaceOnUse" r="1"><stop offset=".527069" stop-color="#776f7f" stop-opacity="0"/><stop offset="1" stop-color="#776f7f"/></radialGradient><path d="m30 16c0 7.732-6.268 14-14 14-7.73199 0-14-6.268-14-14 0-7.73199 6.26801-14 14-14 7.732 0 14 6.26801 14 14z" fill="url(#d)"/><g filter="url(#a)"><path d="m15.0288 9.03699c.5523 0 1 .44771 1 1.00001v4.2533c.5927.3443.9912.986.9912 1.7209 0 .7348-.3985 1.3765-.9912 1.7209v6.2745c0 .5523-.4477 1-1 1s-1-.4477-1-1v-6.2773c-.5901-.345-.9864-.9853-.9864-1.7181 0-.7329.3963-1.3732.9864-1.7182v-4.256c0-.5523.4477-1.00001 1-1.00001z" fill="#cccbcc"/></g><g clip-rule="evenodd" fill-rule="evenodd"><path d="m16.0288 9.03699c.5523 0 1 .44771 1 1.00001v5.9672c0 .5522-.4477 1-1 1s-1-.4478-1-1v-5.9672c0-.5523.4477-1.00001 1-1.00001z" fill="url(#e)"/><path d="m16.0288 9.03699c.5523 0 1 .44771 1 1.00001v5.9672c0 .5522-.4477 1-1 1s-1-.4478-1-1v-5.9672c0-.5523.4477-1.00001 1-1.00001z" fill="url(#f)"/><path d="m16.0288 9.03699c.5523 0 1 .44771 1 1.00001v5.9672c0 .5522-.4477 1-1 1s-1-.4478-1-1v-5.9672c0-.5523.4477-1.00001 1-1.00001z" fill="url(#g)"/><path d="m16.0288 9.03699c.5523 0 1 .44771 1 1.00001v5.9672c0 .5522-.4477 1-1 1s-1-.4478-1-1v-5.9672c0-.5523.4477-1.00001 1-1.00001z" fill="url(#h)"/><g filter="url(#b)"><path d="m16.0288 15.0112c.5523 0 1 .4477 1 1v7.9954c0 .5523-.4477 1-1 1s-1-.4477-1-1v-7.9954c0-.5523.4477-1 1-1z" fill="url(#i)"/><path d="m16.0288 15.0112c.5523 0 1 .4477 1 1v7.9954c0 .5523-.4477 1-1 1s-1-.4477-1-1v-7.9954c0-.5523.4477-1 1-1z" fill="url(#j)"/></g></g><g filter="url(#c)"><path clip-rule="evenodd" d="m16 27c6.0751 0 11-4.9249 11-11 0-6.07513-4.9249-11-11-11-6.07513 0-11 4.92487-11 11 0 6.0751 4.92487 11 11 11zm0 3c7.732 0 14-6.268 14-14 0-7.73199-6.268-14-14-14-7.73199 0-14 6.26801-14 14 0 7.732 6.26801 14 14 14z" fill="url(#k)" fill-rule="evenodd"/></g><path d="m18.02 16.0112c0 1.0984-.8904 1.9888-1.9888 1.9888s-1.9888-.8904-1.9888-1.9888.8904-1.9889 1.9888-1.9889 1.9888.8905 1.9888 1.9889z" fill="url(#l)"/><path d="m18.02 16.0112c0 1.0984-.8904 1.9888-1.9888 1.9888s-1.9888-.8904-1.9888-1.9888.8904-1.9889 1.9888-1.9889 1.9888.8905 1.9888 1.9889z" fill="url(#m)"/></svg>