<svg enable-background="new 0 0 128 128" viewBox="0 0 32 32" xmlns="http://www.w3.org/2000/svg"><path d="m25.3101 6.72423-.7612-.38593c-.571-.28945-1.0468-.5789-1.4274-1.06132l-1.4274-1.44724c-1.1419-1.06132-2.7595-1.44725-4.1869-.96483-.9516.28945-1.9983.28945-2.9499 0-1.3322-.67539-2.8547-.38594-3.9015.5789l-1.71281 1.83317c-.47579.38594-.95158.77187-1.42737 1.06132l-.76126.38593c-1.33221.67538-2.09347 2.21911-1.90315 3.76287l1.04673 5.4995c.09516.5789.11345 2.0134.11345 2.0134h19.97731s-.0125-1.338.0827-1.9169l1.0467-5.4995c.2855-1.64026-.4757-3.18399-1.808-3.85937z" fill="#f3eef8"/><path clip-rule="evenodd" d="m26.5 17.6654c-.0013.2015 0 .3346 0 .3346h-21s-.01923-1.4787-.11926-2.0755l-1.10032-5.6692c-.20006-1.59135.60018-3.18271 2.00059-3.87892l.80023-.39784c.50015-.29838 1.0003-.69622 1.50044-1.09406l1.80052-1.88973c1.1003-.9946 2.7008-1.29298 4.1012-.59676 1.0003.29838 2.1006.29838 3.1009 0 1.5005-.4973 3.201-.09946 4.4013.9946l1.5005 1.49189c.4001.4973.9002.79568 1.5004 1.09406l.8002.39784c1.4004.69621 2.2007 2.28757 1.9006 3.97842l-1.1003 5.6692c-.069.4113-.0842 1.1945-.087 1.6414zm-.9882-.6654c.0118-.3781.0357-.8239.0889-1.1414l.0021-.0126 1.1012-5.6734c.2234-1.27638-.384-2.41433-1.3624-2.90078l-.8003-.39784c-.617-.30677-1.2633-.6734-1.7968-1.31662l-1.4476-1.4394c-.9492-.85554-2.2682-1.1452-3.398-.77075l-.0143.00475-.0144.00431c-1.1868.35401-2.4858.35401-3.6726 0l-.0824-.02457-.077-.03827c-.9948-.49457-2.1428-.30068-2.9596.42014l-1.82047 1.91062-.08089.06434c-.48109.38272-1.02544.81577-1.58366 1.14879l-.03288.01962-.83452.41488c-.98391.48916-1.59407 1.63817-1.45726 2.82808l1.09595 5.6466.00211.0127c.05545.3308.08608.8288.10408 1.2408z" fill="#e1d8ec" fill-rule="evenodd"/><path d="m25.6218 15.0645c-.0743.9248-.1352 1.954-.1352 1.954.6002 0 1.0003-.3978 1.1004-.9946l.0982-.5062c.7936.5398 1.3148 1.4502 1.3148 2.4823 0 1.6569-1.3431 3-3 3s-3-1.3431-3-3 1.3431-3 3-3c.2132 0 .4212.0222.6218.0645z" fill="#fdbb11"/><path d="m5.30332 15.5255.07742.3989c.10003.5968.60018.9946 1.20036.9946 0 0-.05896-.9378-.13161-1.8686.17846-.0331.36246-.0504.55051-.0504 1.65685 0 3 1.3431 3 3s-1.34315 3-3 3-3-1.3431-3-3c0-1.0271.5162-1.9337 1.30332-2.4745z" fill="#fdbb11"/><path d="m6.48943 16.9159c.03021.0021.06072.0031.09149.0031 0 0-.10003-1.5913-.20006-2.6854 0-.4973.20006-1.094.60018-1.3924l.30008-.2984c.50015-.3978.70021-.9946.70021-1.5913v-1.5914c0-.4973.30009-.89514.80023-.9946 1.20036-.29838 3.70104-.79568 7.30214-.79568s6.1018.4973 7.3021.79568c.4002.09946.8003.4973.8003.9946v1.5914c0 .5967.3001 1.1935.7002 1.5913l.2.3978c.4002.3979.6002.8952.6002 1.3925-.1.9946-.2 2.6854-.2 2.6854.0113 0 .0225-.0002.0337-.0004l-.4958 7.3819c-.2993 3.3-2.8936 5.6-5.9868 5.6h-5.9869c-3.19297 0-5.68749-2.3-5.98683-5.6z" fill="#ffc83d"/><path d="m15.2872 17.5266-.9909 3.1695c-.2022.6519.2831 1.3039.9706 1.3039h1.4662c.6875 0 1.1728-.662.9706-1.3039l-.9909-3.1695c-.2123-.7021-1.2032-.7021-1.4256 0z" fill="#ed9200"/><path d="m16 23.8954c-.9462 0-1.8356-.2227-2.583-.6123-.2555-.1299-.5299.1577-.369.3896.6244.9464 1.7125 1.5773 2.952 1.5773s2.3276-.6309 2.952-1.5773c.1609-.2412-.1135-.5195-.369-.3896-.7474.3896-1.6274.6123-2.583.6123z" fill="#990839"/><path d="m9.01481 17.3673c.28632-1.127 1.31309-1.9673 2.52749-1.9673 1.2638 0 2.3202.8996 2.5571 2.0958.0494.267-.1579.5042-.4245.5042h-4.15656c-.33568 0-.58251-.3064-.50353-.6327z" fill="#fff"/><path d="m22.9852 17.3673c-.2863-1.127-1.3131-1.9673-2.5275-1.9673-1.2736 0-2.3202.8996-2.5571 2.0958-.0494.267.1579.5042.4245.5042h4.1566c.3356 0 .5825-.3064.5035-.6327z" fill="#fff"/><path d="m10.2588 17.5568c0-.9257.7503-1.6643 1.6685-1.6643s1.6587.7386 1.6587 1.6643c0 .1576-.0197.3054-.0592.4432h-3.2088c-.0395-.1477-.0592-.2856-.0592-.4432z" fill="#7d4533"/><path d="m21.7412 17.5568c0-.9257-.7504-1.6643-1.6686-1.6643-.9181 0-1.6685.7386-1.6586 1.6643 0 .1576.0197.3054.0592.4432h3.2088c.0394-.1477.0592-.2856.0592-.4432z" fill="#7d4533"/><path d="m11.9273 16.6113c.5233 0 .9478.4235.9478.9455 0 .1576-.0395.3053-.1086.4432h-1.6784c-.0691-.1379-.1086-.2856-.1086-.4432 0-.522.4245-.9455.9478-.9455z"/><path d="m20.0627 16.6113c-.5233 0-.9478.4235-.9478.9455 0 .1576.0395.3053.1086.4432h1.6784c.0691-.1379.1086-.2856.1086-.4432 0-.522-.4245-.9455-.9478-.9455z"/><path d="m11.651 16.92c0 .1657-.1326.3-.2962.3s-.2962-.1343-.2962-.3.1326-.3.2962-.3.2962.1343.2962.3z" fill="#fff"/><path d="m19.8456 16.92c0 .1657-.1326.3-.2962.3s-.2962-.1343-.2962-.3.1326-.3.2962-.3.2962.1343.2962.3z" fill="#fff"/><g fill="#f3eef8"><path d="m8.96262 12.9869.00145-.0012.00156-.0013.00347-.0029.00837-.0068.02236-.0178c.01739-.0136.03977-.0307.06703-.0507.05446-.0399.12871-.0915.22178-.1498.18568-.1163.44927-.2612.78276-.393.6694-.2647 1.6254-.4779 2.7836-.295.5429.0857.9136.5953.8278 1.1383-.0857.5429-.5953.9135-1.1383.8278-.7418-.1171-1.3358.0197-1.7413.18-.2041.0807-.3592.167-.4579.2288-.0492.0308-.0835.055-.1021.0686-.0077.0057-.0126.0094-.0147.0111-.42216.3441-1.04375.285-1.39331-.1344-.35188-.4223-.29483-1.0498.12743-1.4017z"/><path d="m22.9362 12.9863-.0023-.0019-.0034-.0029-.0084-.0068-.0224-.0178c-.0173-.0136-.0397-.0307-.067-.0507-.0545-.0399-.1287-.0915-.2218-.1498-.1857-.1163-.4492-.2612-.7827-.393-.6694-.2647-1.6254-.4779-2.7836-.295-.543.0857-.9136.5953-.8279 1.1383.0858.5429.5954.9135 1.1383.8278.7418-.1171 1.3359.0197 1.7414.18.204.0807.3592.167.4579.2288.0491.0308.0835.055.102.0686.0078.0057.0127.0094.0148.0111.4221.3441 1.0437.285 1.3933-.1344.3519-.4223.2941-1.0504-.1282-1.4023z"/></g></svg>