<svg fill="none" height="32" viewBox="0 0 32 32" width="32" xmlns="http://www.w3.org/2000/svg" xmlns:xlink="http://www.w3.org/1999/xlink"><filter id="a" color-interpolation-filters="sRGB" filterUnits="userSpaceOnUse" height="9.76172" width="28.3063" x="1.84687" y="13.0779"><feFlood flood-opacity="0" result="BackgroundImageFix"/><feBlend in="SourceGraphic" in2="BackgroundImageFix" mode="normal" result="shape"/><feColorMatrix in="SourceAlpha" result="hardAlpha" type="matrix" values="0 0 0 0 0 0 0 0 0 0 0 0 0 0 0 0 0 0 127 0"/><feOffset dx="-.2"/><feGaussianBlur stdDeviation=".5"/><feComposite in2="hardAlpha" k2="-1" k3="1" operator="arithmetic"/><feColorMatrix type="matrix" values="0 0 0 0 0.32549 0 0 0 0 0.729412 0 0 0 0 1 0 0 0 1 0"/><feBlend in2="shape" mode="normal" result="effect1_innerShadow_3987_23154"/><feColorMatrix in="SourceAlpha" result="hardAlpha" type="matrix" values="0 0 0 0 0 0 0 0 0 0 0 0 0 0 0 0 0 0 127 0"/><feOffset dx=".2"/><feGaussianBlur stdDeviation=".5"/><feComposite in2="hardAlpha" k2="-1" k3="1" operator="arithmetic"/><feColorMatrix type="matrix" values="0 0 0 0 0.247059 0 0 0 0 0.584314 0 0 0 0 0.854902 0 0 0 1 0"/><feBlend in2="effect1_innerShadow_3987_23154" mode="normal" result="effect2_innerShadow_3987_23154"/></filter><filter id="b" color-interpolation-filters="sRGB" filterUnits="userSpaceOnUse" height="7.12344" width="7.38131" x="14.4835" y="10.0543"><feFlood flood-opacity="0" result="BackgroundImageFix"/><feBlend in="SourceGraphic" in2="BackgroundImageFix" mode="normal" result="shape"/><feColorMatrix in="SourceAlpha" result="hardAlpha" type="matrix" values="0 0 0 0 0 0 0 0 0 0 0 0 0 0 0 0 0 0 127 0"/><feOffset dx="-.1" dy=".1"/><feGaussianBlur stdDeviation=".25"/><feComposite in2="hardAlpha" k2="-1" k3="1" operator="arithmetic"/><feColorMatrix type="matrix" values="0 0 0 0 0.105882 0 0 0 0 0.0666667 0 0 0 0 0.0823529 0 0 0 1 0"/><feBlend in2="shape" mode="normal" result="effect1_innerShadow_3987_23154"/></filter><filter id="c" color-interpolation-filters="sRGB" filterUnits="userSpaceOnUse" height="17.8047" width="19.1284" x="10.6094" y="2.74976"><feFlood flood-opacity="0" result="BackgroundImageFix"/><feBlend in="SourceGraphic" in2="BackgroundImageFix" mode="normal" result="shape"/><feColorMatrix in="SourceAlpha" result="hardAlpha" type="matrix" values="0 0 0 0 0 0 0 0 0 0 0 0 0 0 0 0 0 0 127 0"/><feOffset dx="1.25" dy="-1.25"/><feGaussianBlur stdDeviation="1"/><feComposite in2="hardAlpha" k2="-1" k3="1" operator="arithmetic"/><feColorMatrix type="matrix" values="0 0 0 0 0.411765 0 0 0 0 0.25098 0 0 0 0 0.262745 0 0 0 1 0"/><feBlend in2="shape" mode="normal" result="effect1_innerShadow_3987_23154"/><feColorMatrix in="SourceAlpha" result="hardAlpha" type="matrix" values="0 0 0 0 0 0 0 0 0 0 0 0 0 0 0 0 0 0 127 0"/><feOffset dx=".25" dy="-.5"/><feGaussianBlur stdDeviation=".5"/><feComposite in2="hardAlpha" k2="-1" k3="1" operator="arithmetic"/><feColorMatrix type="matrix" values="0 0 0 0 0.396078 0 0 0 0 0.235294 0 0 0 0 0.235294 0 0 0 1 0"/><feBlend in2="effect1_innerShadow_3987_23154" mode="normal" result="effect2_innerShadow_3987_23154"/></filter><filter id="d" color-interpolation-filters="sRGB" filterUnits="userSpaceOnUse" height="2.0533" width="2.0533" x="16.7587" y="11.8375"><feFlood flood-opacity="0" result="BackgroundImageFix"/><feBlend in="SourceGraphic" in2="BackgroundImageFix" mode="normal" result="shape"/><feGaussianBlur result="effect1_foregroundBlur_3987_23154" stdDeviation=".075"/></filter><filter id="e" color-interpolation-filters="sRGB" filterUnits="userSpaceOnUse" height="2.04438" width="2.04438" x="11.1789" y="17.4307"><feFlood flood-opacity="0" result="BackgroundImageFix"/><feBlend in="SourceGraphic" in2="BackgroundImageFix" mode="normal" result="shape"/><feGaussianBlur result="effect1_foregroundBlur_3987_23154" stdDeviation=".1"/></filter><filter id="f" color-interpolation-filters="sRGB" filterUnits="userSpaceOnUse" height="9.28809" width="9.2913" x="10.356" y="10.9219"><feFlood flood-opacity="0" result="BackgroundImageFix"/><feBlend in="SourceGraphic" in2="BackgroundImageFix" mode="normal" result="shape"/><feColorMatrix in="SourceAlpha" result="hardAlpha" type="matrix" values="0 0 0 0 0 0 0 0 0 0 0 0 0 0 0 0 0 0 127 0"/><feOffset dx=".15" dy="-.15"/><feGaussianBlur stdDeviation=".3"/><feComposite in2="hardAlpha" k2="-1" k3="1" operator="arithmetic"/><feColorMatrix type="matrix" values="0 0 0 0 0.376471 0 0 0 0 0.266667 0 0 0 0 0.47451 0 0 0 1 0"/><feBlend in2="shape" mode="normal" result="effect1_innerShadow_3987_23154"/></filter><filter id="g" color-interpolation-filters="sRGB" filterUnits="userSpaceOnUse" height="9.22436" width="9.22326" x="7.63242" y="8.41943"><feFlood flood-opacity="0" result="BackgroundImageFix"/><feBlend in="SourceGraphic" in2="BackgroundImageFix" mode="normal" result="shape"/><feColorMatrix in="SourceAlpha" result="hardAlpha" type="matrix" values="0 0 0 0 0 0 0 0 0 0 0 0 0 0 0 0 0 0 127 0"/><feOffset dx="-.1" dy=".1"/><feGaussianBlur stdDeviation=".25"/><feComposite in2="hardAlpha" k2="-1" k3="1" operator="arithmetic"/><feColorMatrix type="matrix" values="0 0 0 0 0.662745 0 0 0 0 0.466667 0 0 0 0 0.666667 0 0 0 1 0"/><feBlend in2="shape" mode="normal" result="effect1_innerShadow_3987_23154"/></filter><filter id="h" color-interpolation-filters="sRGB" filterUnits="userSpaceOnUse" height="9.76172" width="28.3063" x="1.84687" y="20.1404"><feFlood flood-opacity="0" result="BackgroundImageFix"/><feBlend in="SourceGraphic" in2="BackgroundImageFix" mode="normal" result="shape"/><feColorMatrix in="SourceAlpha" result="hardAlpha" type="matrix" values="0 0 0 0 0 0 0 0 0 0 0 0 0 0 0 0 0 0 127 0"/><feOffset dx="-.2"/><feGaussianBlur stdDeviation=".15"/><feComposite in2="hardAlpha" k2="-1" k3="1" operator="arithmetic"/><feColorMatrix type="matrix" values="0 0 0 0 0.301961 0 0 0 0 0.580392 0 0 0 0 0.87451 0 0 0 1 0"/><feBlend in2="shape" mode="normal" result="effect1_innerShadow_3987_23154"/><feColorMatrix in="SourceAlpha" result="hardAlpha" type="matrix" values="0 0 0 0 0 0 0 0 0 0 0 0 0 0 0 0 0 0 127 0"/><feOffset dx=".2"/><feGaussianBlur stdDeviation=".15"/><feComposite in2="hardAlpha" k2="-1" k3="1" operator="arithmetic"/><feColorMatrix type="matrix" values="0 0 0 0 0.207843 0 0 0 0 0.482353 0 0 0 0 0.772549 0 0 0 1 0"/><feBlend in2="effect1_innerShadow_3987_23154" mode="normal" result="effect2_innerShadow_3987_23154"/></filter><filter id="i" color-interpolation-filters="sRGB" filterUnits="userSpaceOnUse" height="2.2172" width="2.2172" x="15.8875" y="16.524"><feFlood flood-opacity="0" result="BackgroundImageFix"/><feBlend in="SourceGraphic" in2="BackgroundImageFix" mode="normal" result="shape"/><feGaussianBlur result="effect1_foregroundBlur_3987_23154" stdDeviation=".1"/></filter><filter id="j" color-interpolation-filters="sRGB" filterUnits="userSpaceOnUse" height="2.85771" width="2.80272" x="13.9457" y="14.9669"><feFlood flood-opacity="0" result="BackgroundImageFix"/><feBlend in="SourceGraphic" in2="BackgroundImageFix" mode="normal" result="shape"/><feGaussianBlur result="effect1_foregroundBlur_3987_23154" stdDeviation=".2"/></filter><filter id="k" color-interpolation-filters="sRGB" filterUnits="userSpaceOnUse" height="2.45771" width="2.20272" x="14.3385" y="14.8169"><feFlood flood-opacity="0" result="BackgroundImageFix"/><feBlend in="SourceGraphic" in2="BackgroundImageFix" mode="normal" result="shape"/><feColorMatrix in="SourceAlpha" result="hardAlpha" type="matrix" values="0 0 0 0 0 0 0 0 0 0 0 0 0 0 0 0 0 0 127 0"/><feOffset dx=".1" dy="-.3"/><feGaussianBlur stdDeviation=".3"/><feComposite in2="hardAlpha" k2="-1" k3="1" operator="arithmetic"/><feColorMatrix type="matrix" values="0 0 0 0 0.439216 0 0 0 0 0.262745 0 0 0 0 0.309804 0 0 0 1 0"/><feBlend in2="shape" mode="normal" result="effect1_innerShadow_3987_23154"/><feGaussianBlur result="effect2_foregroundBlur_3987_23154" stdDeviation=".05"/></filter><filter id="l" color-interpolation-filters="sRGB" filterUnits="userSpaceOnUse" height="2.2188" width="2.23031" x="14.6983" y="12.6633"><feFlood flood-opacity="0" result="BackgroundImageFix"/><feBlend in="SourceGraphic" in2="BackgroundImageFix" mode="normal" result="shape"/><feColorMatrix in="SourceAlpha" result="hardAlpha" type="matrix" values="0 0 0 0 0 0 0 0 0 0 0 0 0 0 0 0 0 0 127 0"/><feOffset/><feGaussianBlur stdDeviation=".075"/><feComposite in2="hardAlpha" k2="-1" k3="1" operator="arithmetic"/><feColorMatrix type="matrix" values="0 0 0 0 0.0745098 0 0 0 0 0.407843 0 0 0 0 0.756863 0 0 0 1 0"/><feBlend in2="shape" mode="normal" result="effect1_innerShadow_3987_23154"/><feColorMatrix in="SourceAlpha" result="hardAlpha" type="matrix" values="0 0 0 0 0 0 0 0 0 0 0 0 0 0 0 0 0 0 127 0"/><feOffset dx="-.1" dy=".1"/><feGaussianBlur stdDeviation=".1"/><feComposite in2="hardAlpha" k2="-1" k3="1" operator="arithmetic"/><feColorMatrix type="matrix" values="0 0 0 0 0.32549 0 0 0 0 0.631373 0 0 0 0 0.882353 0 0 0 1 0"/><feBlend in2="effect1_innerShadow_3987_23154" mode="normal" result="effect2_innerShadow_3987_23154"/></filter><filter id="m" color-interpolation-filters="sRGB" filterUnits="userSpaceOnUse" height="2.2188" width="2.23031" x="11.9093" y="15.4211"><feFlood flood-opacity="0" result="BackgroundImageFix"/><feBlend in="SourceGraphic" in2="BackgroundImageFix" mode="normal" result="shape"/><feColorMatrix in="SourceAlpha" result="hardAlpha" type="matrix" values="0 0 0 0 0 0 0 0 0 0 0 0 0 0 0 0 0 0 127 0"/><feOffset/><feGaussianBlur stdDeviation=".075"/><feComposite in2="hardAlpha" k2="-1" k3="1" operator="arithmetic"/><feColorMatrix type="matrix" values="0 0 0 0 0.0745098 0 0 0 0 0.407843 0 0 0 0 0.756863 0 0 0 1 0"/><feBlend in2="shape" mode="normal" result="effect1_innerShadow_3987_23154"/><feColorMatrix in="SourceAlpha" result="hardAlpha" type="matrix" values="0 0 0 0 0 0 0 0 0 0 0 0 0 0 0 0 0 0 127 0"/><feOffset dx="-.1" dy=".1"/><feGaussianBlur stdDeviation=".05"/><feComposite in2="hardAlpha" k2="-1" k3="1" operator="arithmetic"/><feColorMatrix type="matrix" values="0 0 0 0 0.282353 0 0 0 0 0.564706 0 0 0 0 0.854902 0 0 0 1 0"/><feBlend in2="effect1_innerShadow_3987_23154" mode="normal" result="effect2_innerShadow_3987_23154"/></filter><filter id="n" color-interpolation-filters="sRGB" filterUnits="userSpaceOnUse" height="3.31879" width="4.33286" x="7.67725" y="6.22634"><feFlood flood-opacity="0" result="BackgroundImageFix"/><feBlend in="SourceGraphic" in2="BackgroundImageFix" mode="normal" result="shape"/><feColorMatrix in="SourceAlpha" result="hardAlpha" type="matrix" values="0 0 0 0 0 0 0 0 0 0 0 0 0 0 0 0 0 0 127 0"/><feOffset dy="-.4"/><feGaussianBlur stdDeviation=".25"/><feComposite in2="hardAlpha" k2="-1" k3="1" operator="arithmetic"/><feColorMatrix type="matrix" values="0 0 0 0 0.458824 0 0 0 0 0.270588 0 0 0 0 0.258824 0 0 0 1 0"/><feBlend in2="shape" mode="normal" result="effect1_innerShadow_3987_23154"/></filter><filter id="o" color-interpolation-filters="sRGB" filterUnits="userSpaceOnUse" height="2.87449" width="2.87248" x="14.4538" y="12.2486"><feFlood flood-opacity="0" result="BackgroundImageFix"/><feBlend in="SourceGraphic" in2="BackgroundImageFix" mode="normal" result="shape"/><feGaussianBlur result="effect1_foregroundBlur_3987_23154" stdDeviation=".075"/></filter><filter id="p" color-interpolation-filters="sRGB" filterUnits="userSpaceOnUse" height="2.87449" width="2.87248" x="11.6735" y="15.0433"><feFlood flood-opacity="0" result="BackgroundImageFix"/><feBlend in="SourceGraphic" in2="BackgroundImageFix" mode="normal" result="shape"/><feGaussianBlur result="effect1_foregroundBlur_3987_23154" stdDeviation=".075"/></filter><filter id="q" color-interpolation-filters="sRGB" filterUnits="userSpaceOnUse" height="13.3233" width="10.3707" x="17.0852" y="5.66011"><feFlood flood-opacity="0" result="BackgroundImageFix"/><feBlend in="SourceGraphic" in2="BackgroundImageFix" mode="normal" result="shape"/><feGaussianBlur result="effect1_foregroundBlur_3987_23154" stdDeviation=".35"/></filter><linearGradient id="r" gradientUnits="userSpaceOnUse" x1="26.8332" x2="2.04687" y1="17.4937" y2="17.4937"><stop offset="0" stop-color="#40aafe"/><stop offset="1" stop-color="#3ea5fe"/></linearGradient><radialGradient id="s" cx="0" cy="0" gradientTransform="matrix(2.09228509 4.61475027 -4.78417937 2.16910268 17.2705 11.9397)" gradientUnits="userSpaceOnUse" r="1"><stop offset=".255227" stop-color="#3e393b"/><stop offset=".769429" stop-color="#100b13"/><stop offset="1" stop-color="#010000"/></radialGradient><radialGradient id="t" cx="0" cy="0" gradientTransform="matrix(4.25000097 -.4374999 .72192512 7.01299003 9.73779 18.6482)" gradientUnits="userSpaceOnUse" r="1"><stop offset="0" stop-color="#313a5a"/><stop offset="1" stop-color="#060311"/></radialGradient><radialGradient id="u" cx="0" cy="0" gradientTransform="matrix(-.56249573 .96875766 -1.05871336 -.61472726 10.9253 17.1169)" gradientUnits="userSpaceOnUse" r="1"><stop offset="0" stop-color="#020102"/><stop offset="1" stop-color="#020102" stop-opacity="0"/></radialGradient><radialGradient id="v" cx="0" cy="0" gradientTransform="matrix(-2.5540699 -7.26643475 11.24867492 -3.95378242 24.7637 23.1859)" gradientUnits="userSpaceOnUse" r="1"><stop offset="0" stop-color="#946f6a"/><stop offset="1" stop-color="#764e4a"/></radialGradient><radialGradient id="w" cx="0" cy="0" gradientTransform="matrix(5.40624397 1.93805788 -3.9203361 10.93584127 16.6406 18.6233)" gradientUnits="userSpaceOnUse" r="1"><stop offset="0" stop-color="#553438"/><stop offset="1" stop-color="#7a5249" stop-opacity="0"/></radialGradient><radialGradient id="x" cx="0" cy="0" gradientTransform="matrix(-.2031244 .59392044 -4.82722926 -1.65094177 22.0313 15.8413)" gradientUnits="userSpaceOnUse" r="1"><stop offset=".185988" stop-color="#5d4239"/><stop offset="1" stop-color="#5d4239" stop-opacity="0"/></radialGradient><radialGradient id="y" cx="0" cy="0" gradientTransform="matrix(-6.6874983 -.25001147 .39175562 -10.47897968 26.4565 21.1482)" gradientUnits="userSpaceOnUse" r="1"><stop offset=".358773" stop-color="#a882f8"/><stop offset="1" stop-color="#8f69d4"/></radialGradient><radialGradient id="z" cx="0" cy="0" gradientTransform="matrix(-13.40775296 -3.97894019 3.02543639 -10.19475082 27.4268 23.2522)" gradientUnits="userSpaceOnUse" r="1"><stop offset=".636103" stop-color="#553c7c" stop-opacity="0"/><stop offset="1" stop-color="#3c2369"/></radialGradient><radialGradient id="A" cx="0" cy="0" gradientTransform="matrix(-1.01561985 .9218773 -.51070626 -.56263823 18.6541 12.2054)" gradientUnits="userSpaceOnUse" r="1"><stop offset=".0106325" stop-color="#94776d"/><stop offset="1" stop-color="#76554d"/></radialGradient><radialGradient id="B" cx="0" cy="0" gradientTransform="matrix(.32031265 -.3046876 .39565623 .41594635 17.9121 12.7937)" gradientUnits="userSpaceOnUse" r="1"><stop offset="0" stop-color="#806258"/><stop offset="1" stop-color="#754c40"/></radialGradient><linearGradient id="C" gradientUnits="userSpaceOnUse" x1="19.1143" x2="14.8039" y1="14.5125" y2="19.7152"><stop offset="0" stop-color="#9d7464"/><stop offset=".907489" stop-color="#633f4c"/></linearGradient><radialGradient id="D" cx="0" cy="0" gradientTransform="matrix(1.50791687 4.7883288 -5.54272559 1.74548778 15.5698 15.4217)" gradientUnits="userSpaceOnUse" r="1"><stop offset=".54479" stop-color="#825458" stop-opacity="0"/><stop offset="1" stop-color="#5b2c42"/></radialGradient><radialGradient id="E" cx="0" cy="0" gradientTransform="matrix(1.53124789 1.53473684 -1.57213578 1.56856181 15.7705 14.1062)" gradientUnits="userSpaceOnUse" r="1"><stop offset=".276993" stop-color="#623838"/><stop offset=".913185" stop-color="#7a564e" stop-opacity="0"/></radialGradient><radialGradient id="F" cx="0" cy="0" gradientTransform="matrix(1.28125098 1.46875145 -1.21228926 1.0575287 13.458 16.3562)" gradientUnits="userSpaceOnUse" r="1"><stop offset=".422247" stop-color="#5c3440"/><stop offset="1" stop-color="#5c3440" stop-opacity="0"/></radialGradient><radialGradient id="G" cx="0" cy="0" gradientTransform="matrix(-4.31253655 4.18746592 -3.07382427 -3.16563281 15.0815 12.0857)" gradientUnits="userSpaceOnUse" r="1"><stop offset="0" stop-color="#a783e1"/><stop offset="1" stop-color="#8258c3"/></radialGradient><radialGradient id="H" cx="0" cy="0" gradientTransform="matrix(-6.74997637 6.48431151 -4.04701223 -4.21281995 15.144 11.0857)" gradientUnits="userSpaceOnUse" r="1"><stop offset=".489326" stop-color="#7047b3" stop-opacity="0"/><stop offset="1" stop-color="#7047b3"/></radialGradient><linearGradient id="I" gradientUnits="userSpaceOnUse" x1="26.8332" x2="2.04687" y1="24.5562" y2="24.5562"><stop offset="0" stop-color="#3f90f0"/><stop offset="1" stop-color="#4184e7"/></linearGradient><linearGradient id="J" gradientUnits="userSpaceOnUse" x1="17.2188" x2="16.9961" y1="18.5623" y2="17.6326"><stop offset="0" stop-color="#886c6b"/><stop offset="1" stop-color="#8c5961" stop-opacity="0"/></linearGradient><radialGradient id="K" cx="0" cy="0" gradientTransform="matrix(-.60937617 .60640545 -.15727506 -.15804554 16.3418 16.1458)" gradientUnits="userSpaceOnUse" r="1"><stop offset=".253595" stop-color="#98766e"/><stop offset="1" stop-color="#98766e" stop-opacity="0"/></radialGradient><linearGradient id="L" gradientUnits="userSpaceOnUse" x1="14.9453" x2="14.9544" y1="14.6007" y2="15.5505"><stop offset="0" stop-color="#52475d"/><stop offset="1" stop-color="#413251"/></linearGradient><radialGradient id="M" cx="0" cy="0" gradientTransform="matrix(-.00307288 .28729857 -.60399645 -.00646022 14.9323 14.3798)" gradientUnits="userSpaceOnUse" r="1"><stop offset=".648798" stop-color="#453b50"/><stop offset="1" stop-color="#453b50" stop-opacity="0"/></radialGradient><linearGradient id="N" gradientUnits="userSpaceOnUse" x1="16.3337" x2="17.49" y1="12.3225" y2="12.1116"><stop offset="0" stop-color="#574c62"/><stop offset="1" stop-color="#4c4055"/></linearGradient><linearGradient id="O" gradientUnits="userSpaceOnUse" x1="16.7341" x2="16.8474" y1="11.6248" y2="11.7029"><stop offset=".354464" stop-color="#403044"/><stop offset="1" stop-color="#403044" stop-opacity="0"/></linearGradient><linearGradient id="P" gradientUnits="userSpaceOnUse" x1="17.3826" x2="17.3005" y1="12.0427" y2="11.9875"><stop offset="0" stop-color="#574e60"/><stop offset="1" stop-color="#574e60" stop-opacity="0"/></linearGradient><radialGradient id="Q" cx="0" cy="0" gradientTransform="matrix(-.46093869 .29687257 -.34413129 -.53431486 11.9509 17.1819)" gradientUnits="userSpaceOnUse" r="1"><stop offset=".214213" stop-color="#483e5b"/><stop offset="1" stop-color="#483e5b" stop-opacity="0"/></radialGradient><linearGradient id="R" gradientUnits="userSpaceOnUse" x1="11.4216" x2="11.3044" y1="17.9685" y2="17.7849"><stop offset=".14535" stop-color="#443873"/><stop offset="1" stop-color="#443873" stop-opacity="0"/></linearGradient><linearGradient id="S" gradientUnits="userSpaceOnUse" x1="10.9841" x2="11.0271" y1="17.3396" y2="17.4099"><stop offset="0" stop-color="#504b5b"/><stop offset="1" stop-color="#504b5b" stop-opacity="0"/></linearGradient><linearGradient id="T" gradientUnits="userSpaceOnUse" x1="16.7654" x2="15.2185" y1="13.0935" y2="14.6092"><stop offset="0" stop-color="#489be1"/><stop offset="1" stop-color="#4799ea"/></linearGradient><linearGradient id="U" gradientUnits="userSpaceOnUse" x1="13.9763" x2="12.4294" y1="15.8514" y2="17.367"><stop offset="0" stop-color="#3387e0"/><stop offset="1" stop-color="#2f81cb"/></linearGradient><linearGradient id="V" gradientUnits="userSpaceOnUse" x1="8.20458" x2="11.2297" y1="4.78343" y2="4.46601"><stop offset="0" stop-color="#6e4e42"/><stop offset="1" stop-color="#765148"/></linearGradient><linearGradient id="W"><stop offset=".401716" stop-color="#683859"/><stop offset="1" stop-color="#6d4c45" stop-opacity="0"/></linearGradient><radialGradient id="X" cx="0" cy="0" gradientTransform="matrix(-2.87599202 1.88292855 -.87731965 -1.34002127 8.84179 6.84285)" gradientUnits="userSpaceOnUse" r="1" xlink:href="#W"/><radialGradient id="Y" cx="0" cy="0" gradientTransform="matrix(-2.76026892 2.13307046 -1.0493223 -1.35786032 8.58009 7.96531)" gradientUnits="userSpaceOnUse" r="1" xlink:href="#W"/><radialGradient id="Z" cx="0" cy="0" gradientTransform="matrix(-2.68384279 1.90625051 -.91499075 -1.28823117 9.10547 8.40604)" gradientUnits="userSpaceOnUse" r="1" xlink:href="#W"/><linearGradient id="aa" gradientUnits="userSpaceOnUse" x1="14.2626" x2="12.1199" y1="15.5541" y2="17.5999"><stop offset=".0958508" stop-color="#5f5669"/><stop offset=".321845" stop-color="#5f5669" stop-opacity="0"/><stop offset=".767942" stop-color="#5f5669"/></linearGradient><radialGradient id="ab" cx="0" cy="0" gradientTransform="matrix(5.37988436 .41904996 -.39312036 5.04699269 10.6094 4.81215)" gradientUnits="userSpaceOnUse" r="1"><stop offset=".344293" stop-color="#765148"/><stop offset="1" stop-color="#765148" stop-opacity="0"/></radialGradient><g filter="url(#a)"><path d="m3.92188 13.0779c-.97501 0-1.65626.4896-1.875.7344v9.0273h27.90622v-8.8711l-.0035-.0031c-.6229-.5451-1.0143-.8875-2.1996-.8875-.9057 0-1.6696.6697-2.0501 1.0033l-.0007.0006c-.2604.2239-.9383.6367-1.8633.6367s-1.4687-.4062-2.0703-.9062c-.2691-.2237-.9515-.7344-1.914-.7344s-1.8568.6666-2.1641 1c-.2448.2239-.7187.6406-1.8711.6406-.793 0-1.3953-.3507-1.6133-.5625-.3698-.3594-1.1328-1.0781-2.3125-1.0781-.975 0-1.539.4687-1.90622.7812-.36719.3125-1.00625.8907-2.09376.8907-.98454 0-1.58445-.5001-1.91424-.7749l-.00763-.0064c-.27604-.2969-1.07188-.8906-2.04687-.8906z" fill="url(#r)"/></g><g filter="url(#b)"><path d="m17.4272 10.3981c-.3187-.0688-.5703-.2578-.6562-.3438l-2.1875 1.5469c1.3073 1.8281 3.9359 5.4828 3.9922 5.4766l.0003-.0001c.0768-.0085 2.3988-.2665 2.8512-.8828.4532-.6171.5391-1.5937.3282-2.3203-.211-.7265-.6563-.9765-1.2266-1.1328-.5703-.1562-.7969-.5547-.8672-.6953s-.1875-.4375-.6797-.9141c-.4922-.4765-1.1562-.6484-1.5547-.7343z" fill="url(#s)"/></g><path d="m9.65381 18.1012c-.13281-.4023-.3099-.6354-.40625-.7344l1.09374-1.1328 4.8828 3.7266-1.3906 1.7422c-.1563-.2422-.6797-.5157-2.3359-1.211-1.65629-.6953-1.70182-1.9605-1.84379-2.3906z" fill="url(#t)"/><path d="m9.65381 18.1012c-.13281-.4023-.3099-.6354-.40625-.7344l1.09374-1.1328 4.8828 3.7266-1.3906 1.7422c-.1563-.2422-.6797-.5157-2.3359-1.211-1.65629-.6953-1.70182-1.9605-1.84379-2.3906z" fill="url(#u)"/><g filter="url(#c)"><path d="m10.6094 7.99976h4.8282c1.5349 0 2.9345.87835 3.602 2.26054l4.3857 9.6066 5.0625.6875-5.8462-12.0335c-1.335-2.76444-4.1341-4.52114-7.204-4.52114h-4.8282z" fill="#876253"/></g><path d="m17.3125 17.4998c-1.6875 1.15-3.224 3.25-3.7813 4.1562 3.25 2.1625 7.9271 2.1719 9.8594 1.9063l6.5313-2.2656c-.7657-1.3047-2.0365-2.5209-2.5313-3l-5.6372-2.3672c-1.4687-.0625-2.3315.1328-4.4409 1.5703z" fill="url(#v)"/><path d="m17.3125 17.4998c-1.6875 1.15-3.224 3.25-3.7813 4.1562 3.25 2.1625 7.9271 2.1719 9.8594 1.9063l6.5313-2.2656c-.7657-1.3047-2.0365-2.5209-2.5313-3l-5.6372-2.3672c-1.4687-.0625-2.3315.1328-4.4409 1.5703z" fill="url(#w)"/><path d="m17.3125 17.4998c-1.6875 1.15-3.224 3.25-3.7813 4.1562 3.25 2.1625 7.9271 2.1719 9.8594 1.9063l6.5313-2.2656c-.7657-1.3047-2.0365-2.5209-2.5313-3l-5.6372-2.3672c-1.4687-.0625-2.3315.1328-4.4409 1.5703z" fill="url(#x)"/><path d="m15.1641 19.8943c.3593.5938 1.1484 1.8211 2.2734 1.9961 1.4063.2188 3.7422-.7891 3.7891-2.5312.0789-1.5568-.8449-2.4056-1.7935-3.086.8164-.359 1.574-.3759 2.3257-.359.8988.8015 2.7053 2.3405 3.8584 3.07.8497.5375 1.741.2868 2.3751-.0938.5936.6048 1.388 1.4834 1.9296 2.4063l-6.5313 2.2656c-1.9323.2656-6.6094.2562-9.8594-1.9063.267-.4341.7588-1.1423 1.3842-1.8887.0822.038.1652.0803.2487.127z" fill="url(#y)"/><path d="m15.1641 19.8943c.3593.5938 1.1484 1.8211 2.2734 1.9961 1.4063.2188 3.7422-.7891 3.7891-2.5312.0789-1.5568-.8449-2.4056-1.7935-3.086.8164-.359 1.574-.3759 2.3257-.359.8988.8015 2.7053 2.3405 3.8584 3.07.8497.5375 1.741.2868 2.3751-.0938.5936.6048 1.388 1.4834 1.9296 2.4063l-6.5313 2.2656c-1.9323.2656-6.6094.2562-9.8594-1.9063.267-.4341.7588-1.1423 1.3842-1.8887.0822.038.1652.0803.2487.127z" fill="url(#z)"/><circle cx="17.785" cy="12.8642" fill="url(#A)" r="1.29573"/><g filter="url(#d)"><circle cx="17.7853" cy="12.8642" fill="url(#B)" r=".876654"/></g><circle cx="12.201" cy="18.4528" fill="#5d2f4e" r="1.29573"/><g filter="url(#e)"><circle cx="12.2011" cy="18.4529" fill="#552b3a" r=".822186"/></g><g filter="url(#f)"><path d="m10.5754 17.195c-.3125-.325-.224-.75-.1407-.9219l5.2814-5.1719c.4375-.1125.6601.125.789.2657l1.8159 1.8538c1.5058 1.5373 1.5742 3.9747.157 5.594-1.4898 1.7024-4.0674 1.8761-5.7466.3603-1.0722-.968-2.0012-1.819-2.156-1.98z" fill="url(#C)"/><path d="m10.5754 17.195c-.3125-.325-.224-.75-.1407-.9219l5.2814-5.1719c.4375-.1125.6601.125.789.2657l1.8159 1.8538c1.5058 1.5373 1.5742 3.9747.157 5.594-1.4898 1.7024-4.0674 1.8761-5.7466.3603-1.0722-.968-2.0012-1.819-2.156-1.98z" fill="url(#D)"/><path d="m10.5754 17.195c-.3125-.325-.224-.75-.1407-.9219l5.2814-5.1719c.4375-.1125.6601.125.789.2657l1.8159 1.8538c1.5058 1.5373 1.5742 3.9747.157 5.594-1.4898 1.7024-4.0674 1.8761-5.7466.3603-1.0722-.968-2.0012-1.819-2.156-1.98z" fill="url(#E)"/><path d="m10.5754 17.195c-.3125-.325-.224-.75-.1407-.9219l5.2814-5.1719c.4375-.1125.6601.125.789.2657l1.8159 1.8538c1.5058 1.5373 1.5742 3.9747.157 5.594-1.4898 1.7024-4.0674 1.8761-5.7466.3603-1.0722-.968-2.0012-1.819-2.156-1.98z" fill="url(#F)"/></g><g filter="url(#g)"><path d="m16.8266 10.1084-7.37528 7.406c-.03248.0327-.08291.0392-.12138.014-.57751-.3795-1.49849-1.3743-1.5827-2.6615-.10937-1.6719.36729-2.712 2.07813-4.5156 1.86743-1.9688 3.51563-2.0938 4.96873-1.82817 1.0515.1922 1.7801 1.03787 2.0474 1.46625.0238.03822.0169.08712-.0149.11902z" fill="url(#G)"/><path d="m16.8266 10.1084-7.37528 7.406c-.03248.0327-.08291.0392-.12138.014-.57751-.3795-1.49849-1.3743-1.5827-2.6615-.10937-1.6719.36729-2.712 2.07813-4.5156 1.86743-1.9688 3.51563-2.0938 4.96873-1.82817 1.0515.1922 1.7801 1.03787 2.0474 1.46625.0238.03822.0169.08712-.0149.11902z" fill="url(#H)"/></g><g filter="url(#h)"><path d="m3.92188 20.1404c-.97501 0-1.65626.4896-1.875.7344v9.0273h27.90622v-8.8711l-.0035-.0031c-.6229-.5451-1.0143-.8875-2.1996-.8875-.9057 0-1.6696.6697-2.0501 1.0033l-.0007.0006c-.2604.2239-.9383.6367-1.8633.6367s-1.4687-.4062-2.0703-.9062c-.2691-.2237-.9515-.7344-1.914-.7344s-1.8568.6666-2.1641 1c-.2448.2239-.7187.6406-1.8711.6406-.793 0-1.3953-.3507-1.6133-.5625-.3698-.3594-1.1328-1.0781-2.3125-1.0781-.975 0-1.539.4687-1.90622.7812-.36719.3125-1.00625.8907-2.09376.8907-.98454 0-1.58445-.5001-1.91424-.7749l-.00763-.0064c-.27604-.2969-1.07188-.8906-2.04687-.8906z" fill="url(#I)"/></g><g filter="url(#i)"><circle cx="16.9961" cy="17.6326" r=".808594" stroke="url(#J)" stroke-width=".2"/></g><circle cx="16.9961" cy="17.6326" fill="#87014e" r=".808594"/><g filter="url(#j)"><path d="m15.1266 17.204-.7809-1.5558.2891-.2813 1.5102.8523c.2316.1308.2735.4469.084.6335l-.4643.457c-.1935.1904-.5164.1369-.6381-.1057z" fill="#6d4248"/></g><g filter="url(#k)"><path d="m15.2193 16.954-.7808-1.5558.289-.2813 1.5103.8523c.2316.1308.2735.4469.0839.6335l-.4643.457c-.1934.1904-.5163.1369-.6381-.1057z" fill="#7d5650"/><path d="m15.2193 16.954-.7808-1.5558.289-.2813 1.5103.8523c.2316.1308.2735.4469.0839.6335l-.4643.457c-.1934.1904-.5163.1369-.6381-.1057z" fill="url(#K)"/></g><path d="m14.5757 14.427h.757516v1.12348h-.757516z" fill="url(#L)" transform="matrix(.70104743 .71311465 -.71311465 .70104743 14.645548 -6.081156)"/><path d="m14.5757 14.427h.757516v1.12348h-.757516z" fill="url(#M)" transform="matrix(.70104743 .71311465 -.71311465 .70104743 14.645548 -6.081156)"/><path d="m17.0645 11.1849c.031-.0457.0932-.0577.1389-.0267l.4394.2978c.0457.031.0576.0932.0266.1389l-.8399 1.2392-.6049-.41z" fill="url(#N)"/><path d="m17.0645 11.1849c.031-.0457.0932-.0577.1389-.0267l.4394.2978c.0457.031.0576.0932.0266.1389l-.8399 1.2392-.6049-.41z" fill="url(#O)"/><path d="m17.0645 11.1849c.031-.0457.0932-.0577.1389-.0267l.4394.2978c.0457.031.0576.0932.0266.1389l-.8399 1.2392-.6049-.41z" fill="url(#P)"/><path d="m10.9251 18.2579c-.0463.0301-.1082.0171-.1384-.0292l-.2899-.4446c-.0302-.0462-.0172-.1082.0291-.1384l1.2539-.8177.3992.6121z" fill="#4e496a"/><path d="m10.9251 18.2579c-.0463.0301-.1082.0171-.1384-.0292l-.2899-.4446c-.0302-.0462-.0172-.1082.0291-.1384l1.2539-.8177.3992.6121z" fill="url(#Q)"/><path d="m10.9251 18.2579c-.0463.0301-.1082.0171-.1384-.0292l-.2899-.4446c-.0302-.0462-.0172-.1082.0291-.1384l1.2539-.8177.3992.6121z" fill="url(#R)"/><path d="m10.9251 18.2579c-.0463.0301-.1082.0171-.1384-.0292l-.2899-.4446c-.0302-.0462-.0172-.1082.0291-.1384l1.2539-.8177.3992.6121z" fill="url(#S)"/><g filter="url(#l)"><path d="m15.5334 12.897c.3246-.3169.8446-.3107 1.1615.0139.317.3246.3108.8446-.0138 1.1615l-.4875.476c-.3246.317-.8446.3108-1.1616-.0138-.3169-.3246-.3107-.8447.0139-1.1616z" fill="url(#T)"/></g><path clip-rule="evenodd" d="m16.9327 14.33-.4875.476c-.4668.4559-1.2148.4469-1.6706-.0199-.4558-.4669-.4469-1.2148.0199-1.6706l.4875-.476c.4669-.4559 1.2148-.4469 1.6707.0199.4558.4668.4469 1.2148-.02 1.6706zm-.2376-1.4191c-.3169-.3246-.837-.3308-1.1616-.0139l-.4875.476c-.3245.317-.3308.837-.0138 1.1616.3169.3246.8369.3308 1.1615.0139l.4875-.4761c.3246-.3169.3308-.8369.0139-1.1615z" fill="#412e4c" fill-rule="evenodd"/><g filter="url(#m)"><path d="m12.7443 15.6548c.3246-.3169.8447-.3107 1.1616.0139s.3107.8446-.0139 1.1615l-.4875.476c-.3246.317-.8446.3108-1.1615-.0138-.317-.3246-.3107-.8446.0138-1.1616z" fill="url(#U)"/></g><g clip-rule="evenodd" fill-rule="evenodd"><path d="m14.1437 17.0878-.4875.476c-.4669.4559-1.2149.4469-1.6707-.0199s-.4469-1.2148.02-1.6706l.4875-.476c.4668-.4559 1.2148-.4469 1.6706.0199.4558.4669.4469 1.2148-.0199 1.6706zm-.2377-1.4191c-.3169-.3246-.8369-.3308-1.1615-.0139l-.4875.476c-.3246.317-.3308.837-.0139 1.1616s.837.3308 1.1616.0139l.4875-.476c.3245-.317.3307-.837.0138-1.1616z" fill="#412e4c"/><path d="m9.93604 5.38971c-.55756.04281-1.03749.10055-1.26255.1572-.35483.0893-.71486-.12594-.80417-.48076s.12593-.71486.48075-.80417c.96424-.2427 2.03903-.26222 3.02893-.26222.3659 0 .6625.29661.6625.6625 0 .36588-.2966.6625-.6625.6625-.3455 0-.9011.02334-1.44296.06495z" fill="url(#V)"/><path d="m11.2658 4.88448c.0291.36473-.2429.684-.6077.71311-1.39492.11134-2.48782 1.07662-3.03671 1.86324-.20937.30006-.62235.37358-.92241.1642-.30006-.20937-.37358-.62235-.1642-.92241.67767-.97119 2.08477-2.27154 4.01792-2.42583.3647-.02911.684.24297.7131.60769z" fill="#775248"/><path d="m11.2658 4.88448c.0291.36473-.2429.684-.6077.71311-1.39492.11134-2.48782 1.07662-3.03671 1.86324-.20937.30006-.62235.37358-.92241.1642-.30006-.20937-.37358-.62235-.1642-.92241.67767-.97119 2.08477-2.27154 4.01792-2.42583.3647-.02911.684.24297.7131.60769z" fill="url(#X)"/><path d="m10.9065 5.66573c.0291.36473-.243.684-.6077.71311-.63844.05096-1.18534.35909-1.66325.80321-.48185.44778-.8613 1.00439-1.15607 1.48712-.19068.31228-.59841.41084-.91068.22016-.31228-.19068-.41084-.59841-.22016-.91068.3146-.51521.76913-1.19493 1.38494-1.7672.61975-.57593 1.43418-1.07155 2.45982-1.15341.3647-.02911.684.24297.7131.60769z" fill="#775248"/><path d="m10.9065 5.66573c.0291.36473-.243.684-.6077.71311-.63844.05096-1.18534.35909-1.66325.80321-.48185.44778-.8613 1.00439-1.15607 1.48712-.19068.31228-.59841.41084-.91068.22016-.31228-.19068-.41084-.59841-.22016-.91068.3146-.51521.76913-1.19493 1.38494-1.7672.61975-.57593 1.43418-1.07155 2.45982-1.15341.3647-.02911.684.24297.7131.60769z" fill="url(#Y)"/><path d="m11.3689 6.44065c.0154.36556-.2684.6744-.634.6898-1.18378.04989-2.09787.94115-2.66558 1.87085-.19068.31228-.5984.41084-.91068.22016-.31227-.19068-.41084-.59841-.22016-.91068.65105-1.06619 1.89321-2.4263 3.74062-2.50415.3656-.01541.6744.26845.6898.63402z" fill="#775248"/><path d="m11.3689 6.44065c.0154.36556-.2684.6744-.634.6898-1.18378.04989-2.09787.94115-2.66558 1.87085-.19068.31228-.5984.41084-.91068.22016-.31227-.19068-.41084-.59841-.22016-.91068.65105-1.06619 1.89321-2.4263 3.74062-2.50415.3656-.01541.6744.26845.6898.63402z" fill="url(#Z)"/></g><g filter="url(#n)"><path clip-rule="evenodd" d="m11.3476 7.95134c-.5846 0-1.2195.2273-1.65872.52597-.30924.21028-.6678.60254-.82051.80466-.22057.29193-.63603.34978-.92796.12921s-.34978-.63603-.12921-.92796c.20145-.26664.6606-.78062 1.13262-1.10159.62923-.42788 1.51968-.75529 2.40378-.75529.3659 0 .6625.29661.6625.6625s-.2966.6625-.6625.6625z" fill="#724d47" fill-rule="evenodd"/></g><g filter="url(#o)"><path clip-rule="evenodd" d="m16.8502 12.7481c-.3636-.3724-1-.4089-1.3724-.0453l-.5594.5462c-.3725.3637-.3399.9898.0237 1.3622.3637.3725.9763.4312 1.3488.0675l.5593-.5462c.3725-.3636.3637-1.0119 0-1.3844z" fill-rule="evenodd" stroke="#5c4c6d" stroke-width=".1"/></g><g filter="url(#p)"><path clip-rule="evenodd" d="m14.07 15.5428c-.3637-.3724-1.0001-.4089-1.3725-.0453l-.5594.5462c-.3724.3637-.3399.9898.0237 1.3622.3637.3725.9763.4312 1.3488.0675l.5594-.5462c.3724-.3636.3636-1.0119 0-1.3844z" fill-rule="evenodd" stroke="url(#aa)" stroke-width=".1"/></g><path d="m10.6094 7.99976h4.8282c1.5349 0 2.9345.87835 3.602 2.26054l2.7346 5.6627 5.6008 2.3893-4.7334-9.7914c-1.335-2.76444-4.1341-4.52114-7.204-4.52114h-4.8282z" fill="url(#ab)"/><g filter="url(#q)"><path d="m20.2227 8.40843c-.675-1.475-1.9063-1.96875-2.4375-2.03125 1.4687-.15625 2.6718.78905 3.1562 1.65624l5.8145 10.24998-2.5332-1.2812c-1.0521-2.25-3.325-7.11877-4-8.59377z" fill="#9c766f"/></g></svg>