<svg fill="none" height="32" viewBox="0 0 32 32" width="32" xmlns="http://www.w3.org/2000/svg" xmlns:xlink="http://www.w3.org/1999/xlink"><filter id="a" color-interpolation-filters="sRGB" filterUnits="userSpaceOnUse" height="16.4983" width="15.9982" x="8.54724" y="1.25488"><feFlood flood-opacity="0" result="BackgroundImageFix"/><feBlend in="SourceGraphic" in2="BackgroundImageFix" mode="normal" result="shape"/><feColorMatrix in="SourceAlpha" result="hardAlpha" type="matrix" values="0 0 0 0 0 0 0 0 0 0 0 0 0 0 0 0 0 0 127 0"/><feOffset dx=".25" dy="-.75"/><feGaussianBlur stdDeviation=".75"/><feComposite in2="hardAlpha" k2="-1" k3="1" operator="arithmetic"/><feColorMatrix type="matrix" values="0 0 0 0 0.121569 0 0 0 0 0.0705882 0 0 0 0 0.164706 0 0 0 1 0"/><feBlend in2="shape" mode="normal" result="effect1_innerShadow_4002_1595"/></filter><filter id="b" color-interpolation-filters="sRGB" filterUnits="userSpaceOnUse" height="9.56416" width="5.32002" x="13.7613" y="9.98501"><feFlood flood-opacity="0" result="BackgroundImageFix"/><feBlend in="SourceGraphic" in2="BackgroundImageFix" mode="normal" result="shape"/><feGaussianBlur result="effect1_foregroundBlur_4002_1595" stdDeviation=".2"/></filter><filter id="c" color-interpolation-filters="sRGB" filterUnits="userSpaceOnUse" height="8.26758" width=".650024" x="24.5461" y="3.4585"><feFlood flood-opacity="0" result="BackgroundImageFix"/><feBlend in="SourceGraphic" in2="BackgroundImageFix" mode="normal" result="shape"/><feGaussianBlur result="effect1_foregroundBlur_4002_1595" stdDeviation=".125"/></filter><filter id="d" color-interpolation-filters="sRGB" filterUnits="userSpaceOnUse" height="6.73359" width="8.96406" x="11.953" y="23.2809"><feFlood flood-opacity="0" result="BackgroundImageFix"/><feBlend in="SourceGraphic" in2="BackgroundImageFix" mode="normal" result="shape"/><feGaussianBlur result="effect1_foregroundBlur_4002_1595" stdDeviation=".075"/></filter><filter id="e" color-interpolation-filters="sRGB" filterUnits="userSpaceOnUse" height="2.39429" width="1.17172" x="13.0871" y="3.78564"><feFlood flood-opacity="0" result="BackgroundImageFix"/><feBlend in="SourceGraphic" in2="BackgroundImageFix" mode="normal" result="shape"/><feGaussianBlur result="effect1_foregroundBlur_4002_1595" stdDeviation=".125"/></filter><filter id="f" color-interpolation-filters="sRGB" filterUnits="userSpaceOnUse" height="2.39292" width="1.17124" x="13.0895" y="3.78779"><feFlood flood-opacity="0" result="BackgroundImageFix"/><feBlend in="SourceGraphic" in2="BackgroundImageFix" mode="normal" result="shape"/><feGaussianBlur result="effect1_foregroundBlur_4002_1595" stdDeviation=".1"/></filter><filter id="g" color-interpolation-filters="sRGB" filterUnits="userSpaceOnUse" height="3.37451" width="3.52463" x="9.82056" y="9.2605"><feFlood flood-opacity="0" result="BackgroundImageFix"/><feBlend in="SourceGraphic" in2="BackgroundImageFix" mode="normal" result="shape"/><feColorMatrix in="SourceAlpha" result="hardAlpha" type="matrix" values="0 0 0 0 0 0 0 0 0 0 0 0 0 0 0 0 0 0 127 0"/><feOffset dx=".15"/><feGaussianBlur stdDeviation=".25"/><feComposite in2="hardAlpha" k2="-1" k3="1" operator="arithmetic"/><feColorMatrix type="matrix" values="0 0 0 0 0.894118 0 0 0 0 0.682353 0 0 0 0 0.6 0 0 0 1 0"/><feBlend in2="shape" mode="normal" result="effect1_innerShadow_4002_1595"/></filter><filter id="h" color-interpolation-filters="sRGB" filterUnits="userSpaceOnUse" height="3.62451" width="3.37463" x="19.796" y="9.0105"><feFlood flood-opacity="0" result="BackgroundImageFix"/><feBlend in="SourceGraphic" in2="BackgroundImageFix" mode="normal" result="shape"/><feColorMatrix in="SourceAlpha" result="hardAlpha" type="matrix" values="0 0 0 0 0 0 0 0 0 0 0 0 0 0 0 0 0 0 127 0"/><feOffset dy="-.25"/><feGaussianBlur stdDeviation=".25"/><feComposite in2="hardAlpha" k2="-1" k3="1" operator="arithmetic"/><feColorMatrix type="matrix" values="0 0 0 0 0.784314 0 0 0 0 0.572549 0 0 0 0 0.513726 0 0 0 1 0"/><feBlend in2="shape" mode="normal" result="effect1_innerShadow_4002_1595"/></filter><filter id="i" color-interpolation-filters="sRGB" filterUnits="userSpaceOnUse" height="3.25269" width="3.25266" x="19.8569" y="9.32153"><feFlood flood-opacity="0" result="BackgroundImageFix"/><feBlend in="SourceGraphic" in2="BackgroundImageFix" mode="normal" result="shape"/><feGaussianBlur result="effect1_foregroundBlur_4002_1595" stdDeviation=".25"/></filter><filter id="j" color-interpolation-filters="sRGB" filterUnits="userSpaceOnUse" height="3.05269" width="3.05266" x="10.0019" y="9.42153"><feFlood flood-opacity="0" result="BackgroundImageFix"/><feBlend in="SourceGraphic" in2="BackgroundImageFix" mode="normal" result="shape"/><feGaussianBlur result="effect1_foregroundBlur_4002_1595" stdDeviation=".2"/></filter><filter id="k" color-interpolation-filters="sRGB" filterUnits="userSpaceOnUse" height="11.5055" width="10.6863" x="11.0782" y="5.80225"><feFlood flood-opacity="0" result="BackgroundImageFix"/><feBlend in="SourceGraphic" in2="BackgroundImageFix" mode="normal" result="shape"/><feColorMatrix in="SourceAlpha" result="hardAlpha" type="matrix" values="0 0 0 0 0 0 0 0 0 0 0 0 0 0 0 0 0 0 127 0"/><feOffset dy=".1"/><feGaussianBlur stdDeviation=".1"/><feComposite in2="hardAlpha" k2="-1" k3="1" operator="arithmetic"/><feColorMatrix type="matrix" values="0 0 0 0 0.807843 0 0 0 0 0.592157 0 0 0 0 0.52549 0 0 0 1 0"/><feBlend in2="shape" mode="normal" result="effect1_innerShadow_4002_1595"/></filter><filter id="l" color-interpolation-filters="sRGB" filterUnits="userSpaceOnUse" height="3.81226" width="2.96854" x="14.7668" y="9.91797"><feFlood flood-opacity="0" result="BackgroundImageFix"/><feBlend in="SourceGraphic" in2="BackgroundImageFix" mode="normal" result="shape"/><feGaussianBlur result="effect1_foregroundBlur_4002_1595" stdDeviation=".25"/></filter><filter id="m" color-interpolation-filters="sRGB" filterUnits="userSpaceOnUse" height="3.31226" width="2.46854" x="15.1871" y="10.0229"><feFlood flood-opacity="0" result="BackgroundImageFix"/><feBlend in="SourceGraphic" in2="BackgroundImageFix" mode="normal" result="shape"/><feGaussianBlur result="effect1_foregroundBlur_4002_1595" stdDeviation=".125"/></filter><filter id="n" color-interpolation-filters="sRGB" filterUnits="userSpaceOnUse" height="1.3479" width="3.13759" x="17.4189" y="9.47485"><feFlood flood-opacity="0" result="BackgroundImageFix"/><feBlend in="SourceGraphic" in2="BackgroundImageFix" mode="normal" result="shape"/><feColorMatrix in="SourceAlpha" result="hardAlpha" type="matrix" values="0 0 0 0 0 0 0 0 0 0 0 0 0 0 0 0 0 0 127 0"/><feOffset dx="-.2"/><feGaussianBlur stdDeviation=".2"/><feComposite in2="hardAlpha" k2="-1" k3="1" operator="arithmetic"/><feColorMatrix type="matrix" values="0 0 0 0 0.0941176 0 0 0 0 0.0666667 0 0 0 0 0.117647 0 0 0 1 0"/><feBlend in2="shape" mode="normal" result="effect1_innerShadow_4002_1595"/></filter><filter id="o" color-interpolation-filters="sRGB" filterUnits="userSpaceOnUse" height="1.3479" width="3.13759" x="12.2864" y="9.47485"><feFlood flood-opacity="0" result="BackgroundImageFix"/><feBlend in="SourceGraphic" in2="BackgroundImageFix" mode="normal" result="shape"/><feColorMatrix in="SourceAlpha" result="hardAlpha" type="matrix" values="0 0 0 0 0 0 0 0 0 0 0 0 0 0 0 0 0 0 127 0"/><feOffset dx=".2"/><feGaussianBlur stdDeviation=".125"/><feComposite in2="hardAlpha" k2="-1" k3="1" operator="arithmetic"/><feColorMatrix type="matrix" values="0 0 0 0 0.0862745 0 0 0 0 0.054902 0 0 0 0 0.113725 0 0 0 1 0"/><feBlend in2="shape" mode="normal" result="effect1_innerShadow_4002_1595"/></filter><filter id="p" color-interpolation-filters="sRGB" filterUnits="userSpaceOnUse" height="1.13433" width="2.56227" x="12.4281" y="7.99189"><feFlood flood-opacity="0" result="BackgroundImageFix"/><feBlend in="SourceGraphic" in2="BackgroundImageFix" mode="normal" result="shape"/><feColorMatrix in="SourceAlpha" result="hardAlpha" type="matrix" values="0 0 0 0 0 0 0 0 0 0 0 0 0 0 0 0 0 0 127 0"/><feOffset dx=".2" dy="-.2"/><feGaussianBlur stdDeviation=".15"/><feComposite in2="hardAlpha" k2="-1" k3="1" operator="arithmetic"/><feColorMatrix type="matrix" values="0 0 0 0 0.0431373 0 0 0 0 0.0235294 0 0 0 0 0.0313726 0 0 0 1 0"/><feBlend in2="shape" mode="normal" result="effect1_innerShadow_4002_1595"/></filter><filter id="q" color-interpolation-filters="sRGB" filterUnits="userSpaceOnUse" height="1.13433" width="2.56227" x="18.1086" y="7.99189"><feFlood flood-opacity="0" result="BackgroundImageFix"/><feBlend in="SourceGraphic" in2="BackgroundImageFix" mode="normal" result="shape"/><feColorMatrix in="SourceAlpha" result="hardAlpha" type="matrix" values="0 0 0 0 0 0 0 0 0 0 0 0 0 0 0 0 0 0 127 0"/><feOffset dx=".2" dy="-.2"/><feGaussianBlur stdDeviation=".15"/><feComposite in2="hardAlpha" k2="-1" k3="1" operator="arithmetic"/><feColorMatrix type="matrix" values="0 0 0 0 0.0431373 0 0 0 0 0.0235294 0 0 0 0 0.0313726 0 0 0 1 0"/><feBlend in2="shape" mode="normal" result="effect1_innerShadow_4002_1595"/></filter><filter id="r" color-interpolation-filters="sRGB" filterUnits="userSpaceOnUse" height=".720508" width=".815356" x="17.9445" y="9.86533"><feFlood flood-opacity="0" result="BackgroundImageFix"/><feBlend in="SourceGraphic" in2="BackgroundImageFix" mode="normal" result="shape"/><feGaussianBlur result="effect1_foregroundBlur_4002_1595" stdDeviation=".05"/></filter><filter id="s" color-interpolation-filters="sRGB" filterUnits="userSpaceOnUse" height=".93833" width=".915106" x="18.83" y="9.94893"><feFlood flood-opacity="0" result="BackgroundImageFix"/><feBlend in="SourceGraphic" in2="BackgroundImageFix" mode="normal" result="shape"/><feGaussianBlur result="effect1_foregroundBlur_4002_1595" stdDeviation=".1"/></filter><filter id="t" color-interpolation-filters="sRGB" filterUnits="userSpaceOnUse" height="1.07139" width="1.01481" x="14.1712" y="9.88228"><feFlood flood-opacity="0" result="BackgroundImageFix"/><feBlend in="SourceGraphic" in2="BackgroundImageFix" mode="normal" result="shape"/><feGaussianBlur result="effect1_foregroundBlur_4002_1595" stdDeviation=".1"/></filter><filter id="u" color-interpolation-filters="sRGB" filterUnits="userSpaceOnUse" height=".728809" width=".947711" x="13.3748" y="9.85679"><feFlood flood-opacity="0" result="BackgroundImageFix"/><feBlend in="SourceGraphic" in2="BackgroundImageFix" mode="normal" result="shape"/><feGaussianBlur result="effect1_foregroundBlur_4002_1595" stdDeviation=".05"/></filter><filter id="v" color-interpolation-filters="sRGB" filterUnits="userSpaceOnUse" height=".996191" width="2.34156" x="18.1552" y="8.12471"><feFlood flood-opacity="0" result="BackgroundImageFix"/><feBlend in="SourceGraphic" in2="BackgroundImageFix" mode="normal" result="shape"/><feGaussianBlur result="effect1_foregroundBlur_4002_1595" stdDeviation=".1"/></filter><filter id="w" color-interpolation-filters="sRGB" filterUnits="userSpaceOnUse" height=".996191" width="2.34156" x="12.4385" y="8.12471"><feFlood flood-opacity="0" result="BackgroundImageFix"/><feBlend in="SourceGraphic" in2="BackgroundImageFix" mode="normal" result="shape"/><feGaussianBlur result="effect1_foregroundBlur_4002_1595" stdDeviation=".1"/></filter><filter id="x" color-interpolation-filters="sRGB" filterUnits="userSpaceOnUse" height="4.69404" width="4.37767" x="9.87749" y="3.78789"><feFlood flood-opacity="0" result="BackgroundImageFix"/><feBlend in="SourceGraphic" in2="BackgroundImageFix" mode="normal" result="shape"/><feColorMatrix in="SourceAlpha" result="hardAlpha" type="matrix" values="0 0 0 0 0 0 0 0 0 0 0 0 0 0 0 0 0 0 127 0"/><feOffset dx=".5" dy=".5"/><feGaussianBlur stdDeviation=".5"/><feComposite in2="hardAlpha" k2="-1" k3="1" operator="arithmetic"/><feColorMatrix type="matrix" values="0 0 0 0 0.352941 0 0 0 0 0.341176 0 0 0 0 0.341176 0 0 0 1 0"/><feBlend in2="shape" mode="normal" result="effect1_innerShadow_4002_1595"/><feGaussianBlur result="effect2_foregroundBlur_4002_1595" stdDeviation=".15"/></filter><filter id="y" color-interpolation-filters="sRGB" filterUnits="userSpaceOnUse" height="6.03882" width="9.16679" x="13.1115" y="2.49072"><feFlood flood-opacity="0" result="BackgroundImageFix"/><feBlend in="SourceGraphic" in2="BackgroundImageFix" mode="normal" result="shape"/><feColorMatrix in="SourceAlpha" result="hardAlpha" type="matrix" values="0 0 0 0 0 0 0 0 0 0 0 0 0 0 0 0 0 0 127 0"/><feOffset dx="-.3" dy=".2"/><feGaussianBlur stdDeviation=".4"/><feComposite in2="hardAlpha" k2="-1" k3="1" operator="arithmetic"/><feColorMatrix type="matrix" values="0 0 0 0 0.345098 0 0 0 0 0.329412 0 0 0 0 0.333333 0 0 0 1 0"/><feBlend in2="shape" mode="normal" result="effect1_innerShadow_4002_1595"/><feGaussianBlur result="effect2_foregroundBlur_4002_1595" stdDeviation=".125"/></filter><filter id="z" color-interpolation-filters="sRGB" filterUnits="userSpaceOnUse" height="2.39292" width="1.17124" x="13.0895" y="3.78779"><feFlood flood-opacity="0" result="BackgroundImageFix"/><feBlend in="SourceGraphic" in2="BackgroundImageFix" mode="normal" result="shape"/><feGaussianBlur result="effect1_foregroundBlur_4002_1595" stdDeviation=".1"/></filter><filter id="A" color-interpolation-filters="sRGB" filterUnits="userSpaceOnUse" height="3.96313" width="7.16672" x="15.5978" y="4.40723"><feFlood flood-opacity="0" result="BackgroundImageFix"/><feBlend in="SourceGraphic" in2="BackgroundImageFix" mode="normal" result="shape"/><feGaussianBlur result="effect1_foregroundBlur_4002_1595" stdDeviation=".5"/></filter><filter id="B" color-interpolation-filters="sRGB" filterUnits="userSpaceOnUse" height="3.03486" width="12.3633" x="10.2015" y="3.09551"><feFlood flood-opacity="0" result="BackgroundImageFix"/><feBlend in="SourceGraphic" in2="BackgroundImageFix" mode="normal" result="shape"/><feColorMatrix in="SourceAlpha" result="hardAlpha" type="matrix" values="0 0 0 0 0 0 0 0 0 0 0 0 0 0 0 0 0 0 127 0"/><feOffset dy="-.05"/><feGaussianBlur stdDeviation=".025"/><feComposite in2="hardAlpha" k2="-1" k3="1" operator="arithmetic"/><feColorMatrix type="matrix" values="0 0 0 0 0.360784 0 0 0 0 0.337255 0 0 0 0 0.372549 0 0 0 1 0"/><feBlend in2="shape" mode="normal" result="effect1_innerShadow_4002_1595"/></filter><linearGradient id="C" gradientUnits="userSpaceOnUse" x1="21.3428" x2="14.2069" y1="3.65706" y2="16.8743"><stop offset="0" stop-color="#393134"/><stop offset="1" stop-color="#1a1718"/></linearGradient><radialGradient id="D" cx="0" cy="0" gradientTransform="matrix(-.63273847 4.78071964 -5.97208035 -.79041761 16.1051 13.57)" gradientUnits="userSpaceOnUse" r="1"><stop offset=".590551" stop-color="#171418"/><stop offset="1" stop-color="#171418" stop-opacity="0"/></radialGradient><radialGradient id="E" cx="0" cy="0" gradientTransform="matrix(-3.02317811 2.03885232 -2.67888859 -3.97221382 13.1523 13.8512)" gradientUnits="userSpaceOnUse" r="1"><stop offset=".258378" stop-color="#181518"/><stop offset="1" stop-color="#181518" stop-opacity="0"/></radialGradient><radialGradient id="F" cx="0" cy="0" gradientTransform="matrix(-1.37093084 1.79277884 -1.37660485 -1.05268424 11.3419 11.1797)" gradientUnits="userSpaceOnUse" r="1"><stop offset=".333546" stop-color="#040101"/><stop offset="1" stop-color="#040101" stop-opacity="0"/></radialGradient><radialGradient id="G" cx="0" cy="0" gradientTransform="matrix(-1.35338293 2.21458888 -1.55997969 -.95333716 11.8164 9.05294)" gradientUnits="userSpaceOnUse" r="1"><stop offset=".320588" stop-color="#040002"/><stop offset="1" stop-color="#040002" stop-opacity="0"/></radialGradient><radialGradient id="H" cx="0" cy="0" gradientTransform="matrix(1.44124919 2.74188376 -3.80615174 2.00067312 12.7304 2.49703)" gradientUnits="userSpaceOnUse" r="1"><stop offset="0" stop-color="#474445"/><stop offset="1" stop-color="#474445" stop-opacity="0"/></radialGradient><radialGradient id="I" cx="0" cy="0" gradientTransform="matrix(-1.51145162 1.51155714 -2.11237846 -2.112231 22.5379 4.67647)" gradientUnits="userSpaceOnUse" r="1"><stop offset="0" stop-color="#4a4446"/><stop offset="1" stop-color="#4a4446" stop-opacity="0"/></radialGradient><radialGradient id="J" cx="0" cy="0" gradientTransform="matrix(-1.9332877 .56244048 -1.17292796 -4.03172832 24.2955 10.0548)" gradientUnits="userSpaceOnUse" r="1"><stop offset="0" stop-color="#3b3638"/><stop offset="1" stop-color="#3b3638" stop-opacity="0"/></radialGradient><radialGradient id="K" cx="0" cy="0" gradientTransform="matrix(-2.95270626 .73821799 -.94037969 -3.76130767 23.6627 13.6403)" gradientUnits="userSpaceOnUse" r="1"><stop offset="0" stop-color="#464444"/><stop offset="1" stop-color="#464444" stop-opacity="0"/></radialGradient><radialGradient id="L" cx="0" cy="0" gradientTransform="matrix(-.94841273 -2.77910563 2.19811575 -.75014096 21.384 7.50245)" gradientUnits="userSpaceOnUse" r="1"><stop offset="0" stop-color="#575455"/><stop offset="1" stop-color="#575455" stop-opacity="0"/></radialGradient><radialGradient id="M" cx="0" cy="0" gradientTransform="matrix(1.57702778 .16542198 -.26803248 2.55525085 9.9809 10.0169)" gradientUnits="userSpaceOnUse" r="1"><stop offset="0" stop-color="#413733"/><stop offset="1" stop-color="#413733" stop-opacity="0"/></radialGradient><radialGradient id="N" cx="0" cy="0" gradientTransform="matrix(0 10.875 -3.65625 0 23.7368 23.1145)" gradientUnits="userSpaceOnUse" r="1"><stop offset="0" stop-color="#70647f"/><stop offset="1" stop-color="#70647f" stop-opacity="0"/></radialGradient><radialGradient id="O" cx="0" cy="0" gradientTransform="matrix(1.3125 0 0 7.0625 9.14301 21.4583)" gradientUnits="userSpaceOnUse" r="1"><stop offset="0" stop-color="#5d516a"/><stop offset="1" stop-color="#5d516a" stop-opacity="0"/></radialGradient><radialGradient id="P" cx="0" cy="0" gradientTransform="matrix(0 -4.71875 13.6527 0 16.4429 21.3489)" gradientUnits="userSpaceOnUse" r="1"><stop offset="0" stop-color="#47404d"/><stop offset="1" stop-color="#3b2d3a"/></radialGradient><radialGradient id="Q" cx="0" cy="0" gradientTransform="matrix(0 5.9375 -7.54205 0 16.4351 16.8958)" gradientUnits="userSpaceOnUse" r="1"><stop offset=".931579" stop-color="#342542" stop-opacity="0"/><stop offset=".994737" stop-color="#342542"/></radialGradient><radialGradient id="R" cx="0" cy="0" gradientTransform="matrix(-5.88284414 4.02339399 -5.54695012 -8.11052635 16.018 15.552)" gradientUnits="userSpaceOnUse" r="1"><stop offset=".9281" stop-color="#6a656f" stop-opacity="0"/><stop offset="1" stop-color="#6a656f"/></radialGradient><radialGradient id="S" cx="0" cy="0" gradientTransform="matrix(6.76563207 4.6093725 -6.35480794 9.32758037 15.768 15.3176)" gradientUnits="userSpaceOnUse" r="1"><stop offset=".933129" stop-color="#6a656f" stop-opacity="0"/><stop offset="1" stop-color="#615b67"/></radialGradient><radialGradient id="T" cx="0" cy="0" gradientTransform="matrix(1.65375673 -9.51136984 14.61768915 2.54160045 14.7813 23.0634)" gradientUnits="userSpaceOnUse" r="1"><stop offset=".506211" stop-color="#57525d" stop-opacity="0"/><stop offset="1" stop-color="#57525d"/></radialGradient><radialGradient id="U" cx="0" cy="0" gradientTransform="matrix(-.12499746 4.63706558 -7.30354698 -.19687555 14.6875 14.3759)" gradientUnits="userSpaceOnUse" r="1"><stop offset=".436144" stop-color="#1c0e20"/><stop offset="1" stop-color="#1c0e20" stop-opacity="0"/></radialGradient><radialGradient id="V" cx="0" cy="0" gradientTransform="matrix(-2.96875167 -1.42187784 1.1971637 -2.49956897 17.7387 18.2195)" gradientUnits="userSpaceOnUse" r="1"><stop offset="0" stop-color="#cd9e8e"/><stop offset="1" stop-color="#a56d67"/><stop offset="1" stop-color="#b78273"/></radialGradient><radialGradient id="W" cx="0" cy="0" gradientTransform="matrix(0 .9375 -2.06 0 16.4213 16.9851)" gradientUnits="userSpaceOnUse" r="1"><stop offset="0" stop-color="#b0797e"/><stop offset="1" stop-color="#b0797e" stop-opacity="0"/></radialGradient><radialGradient id="X" cx="0" cy="0" gradientTransform="matrix(0 4.5407 -4.26182 0 16.4213 14.5436)" gradientUnits="userSpaceOnUse" r="1"><stop offset=".809859" stop-color="#b5836a" stop-opacity="0"/><stop offset="1" stop-color="#b5836a"/></radialGradient><linearGradient id="Y" gradientUnits="userSpaceOnUse" x1="24.1252" x2="25.3113" y1="8.94181" y2="8.94181"><stop offset="0" stop-color="#33203c"/><stop offset="1" stop-color="#61546d"/></linearGradient><radialGradient id="Z" cx="0" cy="0" gradientTransform="matrix(0 -2.33473 .180314 0 25.0102 11.668)" gradientUnits="userSpaceOnUse" r="1"><stop offset="0" stop-color="#70635d"/><stop offset="1" stop-color="#70635d" stop-opacity="0"/></radialGradient><radialGradient id="aa" cx="0" cy="0" gradientTransform="matrix(-.81258514 1.10067484 -.98645849 -.72826368 25.2684 12.0393)" gradientUnits="userSpaceOnUse" r="1"><stop offset="0" stop-color="#686071"/><stop offset=".661286" stop-color="#402a4c"/></radialGradient><radialGradient id="ab" cx="0" cy="0" gradientTransform="matrix(.796356 -.08984374 .10537778 .93404651 23.9305 12.4308)" gradientUnits="userSpaceOnUse" r="1"><stop offset=".0866887" stop-color="#685352"/><stop offset="1" stop-color="#685352" stop-opacity="0"/></radialGradient><linearGradient id="ac" gradientUnits="userSpaceOnUse" x1="25.3711" x2="25.3711" y1="3.7085" y2="11.476"><stop offset="0" stop-color="#60546c"/><stop offset="1" stop-color="#504b55"/></linearGradient><linearGradient id="ad" gradientUnits="userSpaceOnUse" x1="25.9194" x2="23.6003" y1="14.8062" y2="14.8062"><stop offset="0" stop-color="#f9b72a"/><stop offset=".89726" stop-color="#faac28"/></linearGradient><radialGradient id="ae" cx="0" cy="0" gradientTransform="matrix(-1.09603598 .20650383 -1.03018811 -5.46780758 26.0306 14.6848)" gradientUnits="userSpaceOnUse" r="1"><stop offset=".285799" stop-color="#ffd93a"/><stop offset="1" stop-color="#ffd93a" stop-opacity="0"/></radialGradient><radialGradient id="af" cx="0" cy="0" gradientTransform="matrix(0 .398438 -1.38177 0 24.7681 13.1066)" gradientUnits="userSpaceOnUse" r="1"><stop offset=".16129" stop-color="#845d03"/><stop offset="1" stop-color="#eba429" stop-opacity="0"/></radialGradient><linearGradient id="ag" gradientUnits="userSpaceOnUse" x1="23.7187" x2="24.5937" y1="14.4854" y2="14.6651"><stop offset="0" stop-color="#c57e10"/><stop offset="1" stop-color="#df8f14" stop-opacity="0"/></linearGradient><radialGradient id="ah" cx="0" cy="0" gradientTransform="matrix(0 -1.3125 2.89043 0 24.7681 16.8956)" gradientUnits="userSpaceOnUse" r="1"><stop offset=".421677" stop-color="#a16739"/><stop offset="1" stop-color="#db9820" stop-opacity="0"/></radialGradient><radialGradient id="ai" cx="0" cy="0" gradientTransform="matrix(0 -16.3734 4.36464 0 5.44006 29.995)" gradientUnits="userSpaceOnUse" r="1"><stop offset="0" stop-color="#766c83"/><stop offset=".441285" stop-color="#58496a"/><stop offset="1" stop-color="#4d4159"/></radialGradient><radialGradient id="aj" cx="0" cy="0" gradientTransform="matrix(0 -10.5202 .824126 0 9.2055 29.995)" gradientUnits="userSpaceOnUse" r="1"><stop offset=".285977" stop-color="#4f445b"/><stop offset="1" stop-color="#4f445b" stop-opacity="0"/></radialGradient><linearGradient id="ak" gradientUnits="userSpaceOnUse" x1="9.34968" x2="8.92432" y1="28.0638" y2="28.0638"><stop offset=".444444" stop-color="#433850"/><stop offset="1" stop-color="#433850" stop-opacity="0"/></linearGradient><radialGradient id="al" cx="0" cy="0" gradientTransform="matrix(-1.88273609 -10.19308074 2.86286373 -.52879174 25.5473 29.995)" gradientUnits="userSpaceOnUse" r="1"><stop offset="0" stop-color="#736782"/><stop offset="1" stop-color="#5f5070"/></radialGradient><radialGradient id="am" cx="0" cy="0" gradientTransform="matrix(.54361465 12.03342726 -.70276126 .03174751 23.4962 23.1565)" gradientUnits="userSpaceOnUse" r="1"><stop offset=".176695" stop-color="#3f2a51"/><stop offset="1" stop-color="#3f2a51" stop-opacity="0"/></radialGradient><linearGradient id="an" gradientUnits="userSpaceOnUse" x1="16.4351" x2="16.4351" y1="29.8645" y2="23.4309"><stop offset="0" stop-color="#3f3748"/><stop offset="1" stop-color="#3f3748" stop-opacity="0"/></linearGradient><linearGradient id="ao" gradientUnits="userSpaceOnUse" x1="13.3871" x2="13.9588" y1="4.4463" y2="5.78318"><stop offset="0" stop-color="#faa719"/><stop offset="1" stop-color="#db6008"/></linearGradient><linearGradient id="ap" gradientUnits="userSpaceOnUse" x1="13.3895" x2="13.9608" y1="4.4482" y2="5.78399"><stop offset="0" stop-color="#ebce91"/><stop offset="1" stop-color="#e6bd9f"/></linearGradient><linearGradient id="aq" gradientUnits="userSpaceOnUse" x1="9.82056" x2="12.9237" y1="11.0392" y2="11.0392"><stop offset="0" stop-color="#cc9987"/><stop offset="1" stop-color="#ac7864"/></linearGradient><radialGradient id="ar" cx="0" cy="0" gradientTransform="matrix(1.91579869 -2.13549994 2.60734932 2.33910398 21.1494 11.9708)" gradientUnits="userSpaceOnUse" r="1"><stop offset=".444268" stop-color="#e5b1a5"/><stop offset=".94391" stop-color="#ffd8c1"/></radialGradient><radialGradient id="as" cx="0" cy="0" gradientTransform="matrix(1.37972478 .7733506 -.21863847 .39007006 21.7382 9.18493)" gradientUnits="userSpaceOnUse" r="1"><stop offset="0" stop-color="#dba98b"/><stop offset="1" stop-color="#dba98b" stop-opacity="0"/></radialGradient><radialGradient id="at" cx="0" cy="0" gradientTransform="matrix(1.58329572 -.11777395 .09206675 1.23770052 21.0263 11.0656)" gradientUnits="userSpaceOnUse" r="1"><stop offset=".719132" stop-color="#f4b89e" stop-opacity="0"/><stop offset="1" stop-color="#f5b99d"/></radialGradient><radialGradient id="au" cx="0" cy="0" gradientTransform="matrix(-1.26548 0 0 -.998312 11.5967 10.9479)" gradientUnits="userSpaceOnUse" r="1"><stop offset=".666667" stop-color="#bc8272" stop-opacity="0"/><stop offset="1" stop-color="#bc8272"/></radialGradient><radialGradient id="av" cx="0" cy="0" gradientTransform="matrix(-6.8197533 3.14481532 -4.20928173 -9.12812362 19.4197 10.384)" gradientUnits="userSpaceOnUse" r="1"><stop offset="0" stop-color="#ffd7bf"/><stop offset="1" stop-color="#d59f97"/></radialGradient><radialGradient id="aw" cx="0" cy="0" gradientTransform="matrix(-3.62943108 .47305566 -.52216898 -4.00624387 19.8312 11.8124)" gradientUnits="userSpaceOnUse" r="1"><stop offset="0" stop-color="#ffdebf"/><stop offset="1" stop-color="#ffdebf" stop-opacity="0"/></radialGradient><radialGradient id="ax" cx="0" cy="0" gradientTransform="matrix(1.37093964 -3.97221664 5.04000025 1.73946609 13.9256 18.0695)" gradientUnits="userSpaceOnUse" r="1"><stop offset="0" stop-color="#b87c92"/><stop offset="1" stop-color="#b87c92" stop-opacity="0"/></radialGradient><radialGradient id="ay" cx="0" cy="0" gradientTransform="matrix(-.95321525 6.99367888 -8.09544236 -1.10338196 16.9879 10.5485)" gradientUnits="userSpaceOnUse" r="1"><stop offset=".672531" stop-color="#b47896" stop-opacity="0"/><stop offset="1" stop-color="#b47896"/></radialGradient><radialGradient id="az" cx="0" cy="0" gradientTransform="matrix(-7.24138463 1.42109694 -2.44668288 -12.46739146 18.3196 12.1991)" gradientUnits="userSpaceOnUse" r="1"><stop offset=".794964" stop-color="#e2a895" stop-opacity="0"/><stop offset="1" stop-color="#e2a895"/></radialGradient><radialGradient id="aA" cx="0" cy="0" gradientTransform="matrix(0 -1.20672 1.48097 0 18.8346 9.94518)" gradientUnits="userSpaceOnUse" r="1"><stop offset="0" stop-color="#f6baa9"/><stop offset="1" stop-color="#f6baa9" stop-opacity="0"/></radialGradient><radialGradient id="aB" cx="0" cy="0" gradientTransform="matrix(0 -1.37632 1.57736 0 14.244 9.70551)" gradientUnits="userSpaceOnUse" r="1"><stop offset="0" stop-color="#d09790"/><stop offset="1" stop-color="#d09790" stop-opacity="0"/></radialGradient><radialGradient id="aC" cx="0" cy="0" gradientTransform="matrix(-1.34777 0 0 -6.75892 21.7646 11.505)" gradientUnits="userSpaceOnUse" r="1"><stop offset="0" stop-color="#ffd8bc"/><stop offset="1" stop-color="#ffd8bc" stop-opacity="0"/></radialGradient><radialGradient id="aD" cx="0" cy="0" gradientTransform="matrix(-.47768938 -2.1433845 .66057065 -.14721931 17.2439 12.2674)" gradientUnits="userSpaceOnUse" r="1"><stop offset=".0168227" stop-color="#ffdcc5"/><stop offset="1" stop-color="#ffdcc5" stop-opacity="0"/></radialGradient><linearGradient id="aE" gradientUnits="userSpaceOnUse" x1="15.4371" x2="16.4214" y1="12.3438" y2="12.3438"><stop offset="0" stop-color="#dfa791"/><stop offset="1" stop-color="#dfa791" stop-opacity="0"/></linearGradient><linearGradient id="aF" gradientUnits="userSpaceOnUse" x1="16.4214" x2="16.4214" y1="13.1816" y2="12.5417"><stop offset="0" stop-color="#d29394"/><stop offset="1" stop-color="#d29394" stop-opacity="0"/></linearGradient><radialGradient id="aG" cx="0" cy="0" gradientTransform="matrix(-.817291 0 0 -.22849 16.9926 12.4893)" gradientUnits="userSpaceOnUse" r="1"><stop offset="0" stop-color="#ffd6c2"/><stop offset="1" stop-color="#ffd6c2" stop-opacity="0"/></radialGradient><linearGradient id="aH" gradientUnits="userSpaceOnUse" x1="16.5034" x2="16.5034" y1="13.1542" y2="13.0079"><stop offset="0" stop-color="#cc8c8d"/><stop offset="1" stop-color="#cc8c8d" stop-opacity="0"/></linearGradient><radialGradient id="aI" cx="0" cy="0" gradientTransform="matrix(-1.4378748 .9871528 -1.18640358 -1.72810107 16.8169 11.8654)" gradientUnits="userSpaceOnUse" r="1"><stop offset=".777645" stop-color="#cc8c8d" stop-opacity="0"/><stop offset="1" stop-color="#cc8c8d"/></radialGradient><linearGradient id="aJ" gradientUnits="userSpaceOnUse" x1="15.3052" x2="15.7886" y1="14.6599" y2="13.9129"><stop offset="0" stop-color="#d9a4a4"/><stop offset=".663171" stop-color="#d9a4a4" stop-opacity="0"/></linearGradient><linearGradient id="aK"><stop offset=".80198" stop-color="#7d574a"/><stop offset="1" stop-color="#694b43"/><stop offset="1" stop-color="#804d49"/><stop offset="1" stop-color="#664944"/></linearGradient><radialGradient id="aL" cx="0" cy="0" gradientTransform="matrix(0 .850758 -1.35323 0 18.7094 10.3217)" gradientUnits="userSpaceOnUse" r="1" xlink:href="#aK"/><linearGradient id="aM"><stop offset=".765532" stop-color="#ffe6e2" stop-opacity="0"/><stop offset=".966159" stop-color="#ffe6e2"/></linearGradient><radialGradient id="aN" cx="0" cy="0" gradientTransform="matrix(-.24319116 -.3133846 .43145566 -.33481607 18.4702 10.4099)" gradientUnits="userSpaceOnUse" r="1" xlink:href="#aM"/><linearGradient id="aO"><stop offset="0" stop-color="#b4948d"/><stop offset="1" stop-color="#b4948d" stop-opacity="0"/></linearGradient><linearGradient id="aP" gradientUnits="userSpaceOnUse" x1="19.5252" x2="19.1962" xlink:href="#aO" y1="10.3782" y2="10.581"/><radialGradient id="aQ" cx="0" cy="0" gradientTransform="matrix(0 .850763 -1.35323 0 14.1332 10.3217)" gradientUnits="userSpaceOnUse" r="1" xlink:href="#aK"/><linearGradient id="aR" gradientUnits="userSpaceOnUse" x1="14.9132" x2="14.5841" xlink:href="#aO" y1="10.378" y2="10.5808"/><radialGradient id="aS" cx="0" cy="0" gradientTransform="matrix(-.00811149 -.5180785 .62275067 -.00975033 13.8328 10.5514)" gradientUnits="userSpaceOnUse" r="1" xlink:href="#aM"/><radialGradient id="aT" cx="0" cy="0" gradientTransform="matrix(1.32338151 -2.88938334 1.47813565 .67700861 10.4882 8.09805)" gradientUnits="userSpaceOnUse" r="1"><stop offset="0" stop-color="#433838"/><stop offset="1" stop-color="#433838" stop-opacity="0"/></radialGradient><radialGradient id="aU" cx="0" cy="0" gradientTransform="matrix(-2.21462533 4.60494198 -7.52880708 -3.6207811 18.4252 2.63758)" gradientUnits="userSpaceOnUse" r="1"><stop offset=".639192" stop-color="#1f0d24" stop-opacity="0"/><stop offset="1" stop-color="#1f0d24"/></radialGradient><radialGradient id="aV" cx="0" cy="0" gradientTransform="matrix(-.22056195 1.43366304 -3.08445161 -.47452759 16.642 3.02494)" gradientUnits="userSpaceOnUse" r="1"><stop offset="0" stop-color="#4c4749"/><stop offset="1" stop-color="#4c4749" stop-opacity="0"/></radialGradient><linearGradient id="aW" gradientUnits="userSpaceOnUse" x1="13.3895" x2="13.9608" y1="4.4482" y2="5.78399"><stop offset="0" stop-color="#1a1316"/><stop offset="1" stop-color="#24182d"/></linearGradient><radialGradient id="aX" cx="0" cy="0" gradientTransform="matrix(-.67220826 -3.65216273 4.02251178 -.74037382 18.9681 5.94421)" gradientUnits="userSpaceOnUse" r="1"><stop offset=".110042" stop-color="#595260"/><stop offset="1" stop-color="#372e41"/></radialGradient><radialGradient id="aY" cx="0" cy="0" gradientTransform="matrix(0 2.02116 -7.18676 0 16.3524 2.86245)" gradientUnits="userSpaceOnUse" r="1"><stop offset=".263158" stop-color="#160c20"/><stop offset="1" stop-color="#160c20" stop-opacity="0"/></radialGradient><linearGradient id="aZ" gradientUnits="userSpaceOnUse" x1="18.2054" x2="16.9242" y1="3.95801" y2="-.416992"><stop offset="0" stop-color="#3d294b"/><stop offset="1" stop-color="#433a4d"/></linearGradient><radialGradient id="a0" cx="0" cy="0" gradientTransform="matrix(0 .9375 -12.6875 0 22.1742 2.39551)" gradientUnits="userSpaceOnUse" r="1"><stop offset="0" stop-color="#696070"/><stop offset=".866667" stop-color="#696070" stop-opacity="0"/></radialGradient><radialGradient id="a1" cx="0" cy="0" gradientTransform="matrix(7.75 0 0 .875 7.20544 3.02051)" gradientUnits="userSpaceOnUse" r="1"><stop offset="0" stop-color="#75707b"/><stop offset=".935484" stop-color="#75707b" stop-opacity="0"/></radialGradient><g clip-rule="evenodd" fill-rule="evenodd" filter="url(#a)"><path d="m23.9559 12.4259c.2229-.4563.3396-.9657.3396-1.4963 0-.49-.1008-.94983-.2816-1.36896h.0056c-.0844-.18978-.1792-.3691-.2949-.53793l-.0022-.00328c-.3608-.55183-.5518-1.19916-.5518-1.8571v-.01062c0-1.91016-1.5493-3.45952-3.4595-3.45952-.191 0-.3714-.08489-.4776-.24407-.6261-.87019-1.6555-1.44324-2.8122-1.44324-1.1568 0-2.1861.57305-2.8122 1.44324-.1062.14857-.2866.24407-.4776.24407-.0298.00001-.0595.00038-.0891.00113-1.869.04732-3.37039 1.57804-3.37039 3.45839v.01062c0 .65794-.19102 1.30527-.55183 1.8571l-.0024.00385c-.35928.55098-.57054 1.19692-.57054 1.90632 0 .5412.12735 1.04.33959 1.4963.07428.1486.07428.329 0 .4775-.21224.4457-.33959.9445-.33959 1.4751 0 1.8677 1.50686 3.3746 3.37466 3.3746h8.999c1.8677 0 3.3746-1.5069 3.3746-3.3746 0-.5306-.1274-1.0294-.3396-1.4751-.0743-.1485-.0743-.3289 0-.4775zm-12.8562-2.80233h-.0129l1.257 2.47003c.1293 2.9388 1.2762 0 4.0775 0s4.0228 3.271 4.1521.3323l1.1911-3.35257c-.0563-1.30535-1.0023-1.39698-1.1911-1.39698h-3.3765c-1.3334 0-2.5916-.65264-3.3443-1.75463-.1291-.18189-.3979-.14979-.4839.05349l-.0861.20328c-.2365.58845-.6882 1.03781-1.2473 1.29458-.0162.00535-.035.01338-.0538.0214-.0188.00803-.0376.01605-.0538.0214-.2473.12839-.828.51355-.8495 1.50856l.0108.32097z" fill="url(#C)"/><path d="m23.9559 12.4259c.2229-.4563.3396-.9657.3396-1.4963 0-.49-.1008-.94983-.2816-1.36896h.0056c-.0844-.18978-.1792-.3691-.2949-.53793l-.0022-.00328c-.3608-.55183-.5518-1.19916-.5518-1.8571v-.01062c0-1.91016-1.5493-3.45952-3.4595-3.45952-.191 0-.3714-.08489-.4776-.24407-.6261-.87019-1.6555-1.44324-2.8122-1.44324-1.1568 0-2.1861.57305-2.8122 1.44324-.1062.14857-.2866.24407-.4776.24407-.0298.00001-.0595.00038-.0891.00113-1.869.04732-3.37039 1.57804-3.37039 3.45839v.01062c0 .65794-.19102 1.30527-.55183 1.8571l-.0024.00385c-.35928.55098-.57054 1.19692-.57054 1.90632 0 .5412.12735 1.04.33959 1.4963.07428.1486.07428.329 0 .4775-.21224.4457-.33959.9445-.33959 1.4751 0 1.8677 1.50686 3.3746 3.37466 3.3746h8.999c1.8677 0 3.3746-1.5069 3.3746-3.3746 0-.5306-.1274-1.0294-.3396-1.4751-.0743-.1485-.0743-.3289 0-.4775zm-12.8562-2.80233h-.0129l1.257 2.47003c.1293 2.9388 1.2762 0 4.0775 0s4.0228 3.271 4.1521.3323l1.1911-3.35257c-.0563-1.30535-1.0023-1.39698-1.1911-1.39698h-3.3765c-1.3334 0-2.5916-.65264-3.3443-1.75463-.1291-.18189-.3979-.14979-.4839.05349l-.0861.20328c-.2365.58845-.6882 1.03781-1.2473 1.29458-.0162.00535-.035.01338-.0538.0214-.0188.00803-.0376.01605-.0538.0214-.2473.12839-.828.51355-.8495 1.50856l.0108.32097z" fill="url(#D)"/><path d="m23.9559 12.4259c.2229-.4563.3396-.9657.3396-1.4963 0-.49-.1008-.94983-.2816-1.36896h.0056c-.0844-.18978-.1792-.3691-.2949-.53793l-.0022-.00328c-.3608-.55183-.5518-1.19916-.5518-1.8571v-.01062c0-1.91016-1.5493-3.45952-3.4595-3.45952-.191 0-.3714-.08489-.4776-.24407-.6261-.87019-1.6555-1.44324-2.8122-1.44324-1.1568 0-2.1861.57305-2.8122 1.44324-.1062.14857-.2866.24407-.4776.24407-.0298.00001-.0595.00038-.0891.00113-1.869.04732-3.37039 1.57804-3.37039 3.45839v.01062c0 .65794-.19102 1.30527-.55183 1.8571l-.0024.00385c-.35928.55098-.57054 1.19692-.57054 1.90632 0 .5412.12735 1.04.33959 1.4963.07428.1486.07428.329 0 .4775-.21224.4457-.33959.9445-.33959 1.4751 0 1.8677 1.50686 3.3746 3.37466 3.3746h8.999c1.8677 0 3.3746-1.5069 3.3746-3.3746 0-.5306-.1274-1.0294-.3396-1.4751-.0743-.1485-.0743-.3289 0-.4775zm-12.8562-2.80233h-.0129l1.257 2.47003c.1293 2.9388 1.2762 0 4.0775 0s4.0228 3.271 4.1521.3323l1.1911-3.35257c-.0563-1.30535-1.0023-1.39698-1.1911-1.39698h-3.3765c-1.3334 0-2.5916-.65264-3.3443-1.75463-.1291-.18189-.3979-.14979-.4839.05349l-.0861.20328c-.2365.58845-.6882 1.03781-1.2473 1.29458-.0162.00535-.035.01338-.0538.0214-.0188.00803-.0376.01605-.0538.0214-.2473.12839-.828.51355-.8495 1.50856l.0108.32097z" fill="url(#E)"/><path d="m23.9559 12.4259c.2229-.4563.3396-.9657.3396-1.4963 0-.49-.1008-.94983-.2816-1.36896h.0056c-.0844-.18978-.1792-.3691-.2949-.53793l-.0022-.00328c-.3608-.55183-.5518-1.19916-.5518-1.8571v-.01062c0-1.91016-1.5493-3.45952-3.4595-3.45952-.191 0-.3714-.08489-.4776-.24407-.6261-.87019-1.6555-1.44324-2.8122-1.44324-1.1568 0-2.1861.57305-2.8122 1.44324-.1062.14857-.2866.24407-.4776.24407-.0298.00001-.0595.00038-.0891.00113-1.869.04732-3.37039 1.57804-3.37039 3.45839v.01062c0 .65794-.19102 1.30527-.55183 1.8571l-.0024.00385c-.35928.55098-.57054 1.19692-.57054 1.90632 0 .5412.12735 1.04.33959 1.4963.07428.1486.07428.329 0 .4775-.21224.4457-.33959.9445-.33959 1.4751 0 1.8677 1.50686 3.3746 3.37466 3.3746h8.999c1.8677 0 3.3746-1.5069 3.3746-3.3746 0-.5306-.1274-1.0294-.3396-1.4751-.0743-.1485-.0743-.3289 0-.4775zm-12.8562-2.80233h-.0129l1.257 2.47003c.1293 2.9388 1.2762 0 4.0775 0s4.0228 3.271 4.1521.3323l1.1911-3.35257c-.0563-1.30535-1.0023-1.39698-1.1911-1.39698h-3.3765c-1.3334 0-2.5916-.65264-3.3443-1.75463-.1291-.18189-.3979-.14979-.4839.05349l-.0861.20328c-.2365.58845-.6882 1.03781-1.2473 1.29458-.0162.00535-.035.01338-.0538.0214-.0188.00803-.0376.01605-.0538.0214-.2473.12839-.828.51355-.8495 1.50856l.0108.32097z" fill="url(#F)"/><path d="m23.9559 12.4259c.2229-.4563.3396-.9657.3396-1.4963 0-.49-.1008-.94983-.2816-1.36896h.0056c-.0844-.18978-.1792-.3691-.2949-.53793l-.0022-.00328c-.3608-.55183-.5518-1.19916-.5518-1.8571v-.01062c0-1.91016-1.5493-3.45952-3.4595-3.45952-.191 0-.3714-.08489-.4776-.24407-.6261-.87019-1.6555-1.44324-2.8122-1.44324-1.1568 0-2.1861.57305-2.8122 1.44324-.1062.14857-.2866.24407-.4776.24407-.0298.00001-.0595.00038-.0891.00113-1.869.04732-3.37039 1.57804-3.37039 3.45839v.01062c0 .65794-.19102 1.30527-.55183 1.8571l-.0024.00385c-.35928.55098-.57054 1.19692-.57054 1.90632 0 .5412.12735 1.04.33959 1.4963.07428.1486.07428.329 0 .4775-.21224.4457-.33959.9445-.33959 1.4751 0 1.8677 1.50686 3.3746 3.37466 3.3746h8.999c1.8677 0 3.3746-1.5069 3.3746-3.3746 0-.5306-.1274-1.0294-.3396-1.4751-.0743-.1485-.0743-.3289 0-.4775zm-12.8562-2.80233h-.0129l1.257 2.47003c.1293 2.9388 1.2762 0 4.0775 0s4.0228 3.271 4.1521.3323l1.1911-3.35257c-.0563-1.30535-1.0023-1.39698-1.1911-1.39698h-3.3765c-1.3334 0-2.5916-.65264-3.3443-1.75463-.1291-.18189-.3979-.14979-.4839.05349l-.0861.20328c-.2365.58845-.6882 1.03781-1.2473 1.29458-.0162.00535-.035.01338-.0538.0214-.0188.00803-.0376.01605-.0538.0214-.2473.12839-.828.51355-.8495 1.50856l.0108.32097z" fill="url(#G)"/><path d="m23.9559 12.4259c.2229-.4563.3396-.9657.3396-1.4963 0-.49-.1008-.94983-.2816-1.36896h.0056c-.0844-.18978-.1792-.3691-.2949-.53793l-.0022-.00328c-.3608-.55183-.5518-1.19916-.5518-1.8571v-.01062c0-1.91016-1.5493-3.45952-3.4595-3.45952-.191 0-.3714-.08489-.4776-.24407-.6261-.87019-1.6555-1.44324-2.8122-1.44324-1.1568 0-2.1861.57305-2.8122 1.44324-.1062.14857-.2866.24407-.4776.24407-.0298.00001-.0595.00038-.0891.00113-1.869.04732-3.37039 1.57804-3.37039 3.45839v.01062c0 .65794-.19102 1.30527-.55183 1.8571l-.0024.00385c-.35928.55098-.57054 1.19692-.57054 1.90632 0 .5412.12735 1.04.33959 1.4963.07428.1486.07428.329 0 .4775-.21224.4457-.33959.9445-.33959 1.4751 0 1.8677 1.50686 3.3746 3.37466 3.3746h8.999c1.8677 0 3.3746-1.5069 3.3746-3.3746 0-.5306-.1274-1.0294-.3396-1.4751-.0743-.1485-.0743-.3289 0-.4775zm-12.8562-2.80233h-.0129l1.257 2.47003c.1293 2.9388 1.2762 0 4.0775 0s4.0228 3.271 4.1521.3323l1.1911-3.35257c-.0563-1.30535-1.0023-1.39698-1.1911-1.39698h-3.3765c-1.3334 0-2.5916-.65264-3.3443-1.75463-.1291-.18189-.3979-.14979-.4839.05349l-.0861.20328c-.2365.58845-.6882 1.03781-1.2473 1.29458-.0162.00535-.035.01338-.0538.0214-.0188.00803-.0376.01605-.0538.0214-.2473.12839-.828.51355-.8495 1.50856l.0108.32097z" fill="url(#H)"/><path d="m23.9559 12.4259c.2229-.4563.3396-.9657.3396-1.4963 0-.49-.1008-.94983-.2816-1.36896h.0056c-.0844-.18978-.1792-.3691-.2949-.53793l-.0022-.00328c-.3608-.55183-.5518-1.19916-.5518-1.8571v-.01062c0-1.91016-1.5493-3.45952-3.4595-3.45952-.191 0-.3714-.08489-.4776-.24407-.6261-.87019-1.6555-1.44324-2.8122-1.44324-1.1568 0-2.1861.57305-2.8122 1.44324-.1062.14857-.2866.24407-.4776.24407-.0298.00001-.0595.00038-.0891.00113-1.869.04732-3.37039 1.57804-3.37039 3.45839v.01062c0 .65794-.19102 1.30527-.55183 1.8571l-.0024.00385c-.35928.55098-.57054 1.19692-.57054 1.90632 0 .5412.12735 1.04.33959 1.4963.07428.1486.07428.329 0 .4775-.21224.4457-.33959.9445-.33959 1.4751 0 1.8677 1.50686 3.3746 3.37466 3.3746h8.999c1.8677 0 3.3746-1.5069 3.3746-3.3746 0-.5306-.1274-1.0294-.3396-1.4751-.0743-.1485-.0743-.3289 0-.4775zm-12.8562-2.80233h-.0129l1.257 2.47003c.1293 2.9388 1.2762 0 4.0775 0s4.0228 3.271 4.1521.3323l1.1911-3.35257c-.0563-1.30535-1.0023-1.39698-1.1911-1.39698h-3.3765c-1.3334 0-2.5916-.65264-3.3443-1.75463-.1291-.18189-.3979-.14979-.4839.05349l-.0861.20328c-.2365.58845-.6882 1.03781-1.2473 1.29458-.0162.00535-.035.01338-.0538.0214-.0188.00803-.0376.01605-.0538.0214-.2473.12839-.828.51355-.8495 1.50856l.0108.32097z" fill="url(#I)"/><path d="m23.9559 12.4259c.2229-.4563.3396-.9657.3396-1.4963 0-.49-.1008-.94983-.2816-1.36896h.0056c-.0844-.18978-.1792-.3691-.2949-.53793l-.0022-.00328c-.3608-.55183-.5518-1.19916-.5518-1.8571v-.01062c0-1.91016-1.5493-3.45952-3.4595-3.45952-.191 0-.3714-.08489-.4776-.24407-.6261-.87019-1.6555-1.44324-2.8122-1.44324-1.1568 0-2.1861.57305-2.8122 1.44324-.1062.14857-.2866.24407-.4776.24407-.0298.00001-.0595.00038-.0891.00113-1.869.04732-3.37039 1.57804-3.37039 3.45839v.01062c0 .65794-.19102 1.30527-.55183 1.8571l-.0024.00385c-.35928.55098-.57054 1.19692-.57054 1.90632 0 .5412.12735 1.04.33959 1.4963.07428.1486.07428.329 0 .4775-.21224.4457-.33959.9445-.33959 1.4751 0 1.8677 1.50686 3.3746 3.37466 3.3746h8.999c1.8677 0 3.3746-1.5069 3.3746-3.3746 0-.5306-.1274-1.0294-.3396-1.4751-.0743-.1485-.0743-.3289 0-.4775zm-12.8562-2.80233h-.0129l1.257 2.47003c.1293 2.9388 1.2762 0 4.0775 0s4.0228 3.271 4.1521.3323l1.1911-3.35257c-.0563-1.30535-1.0023-1.39698-1.1911-1.39698h-3.3765c-1.3334 0-2.5916-.65264-3.3443-1.75463-.1291-.18189-.3979-.14979-.4839.05349l-.0861.20328c-.2365.58845-.6882 1.03781-1.2473 1.29458-.0162.00535-.035.01338-.0538.0214-.0188.00803-.0376.01605-.0538.0214-.2473.12839-.828.51355-.8495 1.50856l.0108.32097z" fill="url(#J)"/><path d="m23.9559 12.4259c.2229-.4563.3396-.9657.3396-1.4963 0-.49-.1008-.94983-.2816-1.36896h.0056c-.0844-.18978-.1792-.3691-.2949-.53793l-.0022-.00328c-.3608-.55183-.5518-1.19916-.5518-1.8571v-.01062c0-1.91016-1.5493-3.45952-3.4595-3.45952-.191 0-.3714-.08489-.4776-.24407-.6261-.87019-1.6555-1.44324-2.8122-1.44324-1.1568 0-2.1861.57305-2.8122 1.44324-.1062.14857-.2866.24407-.4776.24407-.0298.00001-.0595.00038-.0891.00113-1.869.04732-3.37039 1.57804-3.37039 3.45839v.01062c0 .65794-.19102 1.30527-.55183 1.8571l-.0024.00385c-.35928.55098-.57054 1.19692-.57054 1.90632 0 .5412.12735 1.04.33959 1.4963.07428.1486.07428.329 0 .4775-.21224.4457-.33959.9445-.33959 1.4751 0 1.8677 1.50686 3.3746 3.37466 3.3746h8.999c1.8677 0 3.3746-1.5069 3.3746-3.3746 0-.5306-.1274-1.0294-.3396-1.4751-.0743-.1485-.0743-.3289 0-.4775zm-12.8562-2.80233h-.0129l1.257 2.47003c.1293 2.9388 1.2762 0 4.0775 0s4.0228 3.271 4.1521.3323l1.1911-3.35257c-.0563-1.30535-1.0023-1.39698-1.1911-1.39698h-3.3765c-1.3334 0-2.5916-.65264-3.3443-1.75463-.1291-.18189-.3979-.14979-.4839.05349l-.0861.20328c-.2365.58845-.6882 1.03781-1.2473 1.29458-.0162.00535-.035.01338-.0538.0214-.0188.00803-.0376.01605-.0538.0214-.2473.12839-.828.51355-.8495 1.50856l.0108.32097z" fill="url(#K)"/><path d="m23.9559 12.4259c.2229-.4563.3396-.9657.3396-1.4963 0-.49-.1008-.94983-.2816-1.36896h.0056c-.0844-.18978-.1792-.3691-.2949-.53793l-.0022-.00328c-.3608-.55183-.5518-1.19916-.5518-1.8571v-.01062c0-1.91016-1.5493-3.45952-3.4595-3.45952-.191 0-.3714-.08489-.4776-.24407-.6261-.87019-1.6555-1.44324-2.8122-1.44324-1.1568 0-2.1861.57305-2.8122 1.44324-.1062.14857-.2866.24407-.4776.24407-.0298.00001-.0595.00038-.0891.00113-1.869.04732-3.37039 1.57804-3.37039 3.45839v.01062c0 .65794-.19102 1.30527-.55183 1.8571l-.0024.00385c-.35928.55098-.57054 1.19692-.57054 1.90632 0 .5412.12735 1.04.33959 1.4963.07428.1486.07428.329 0 .4775-.21224.4457-.33959.9445-.33959 1.4751 0 1.8677 1.50686 3.3746 3.37466 3.3746h8.999c1.8677 0 3.3746-1.5069 3.3746-3.3746 0-.5306-.1274-1.0294-.3396-1.4751-.0743-.1485-.0743-.3289 0-.4775zm-12.8562-2.80233h-.0129l1.257 2.47003c.1293 2.9388 1.2762 0 4.0775 0s4.0228 3.271 4.1521.3323l1.1911-3.35257c-.0563-1.30535-1.0023-1.39698-1.1911-1.39698h-3.3765c-1.3334 0-2.5916-.65264-3.3443-1.75463-.1291-.18189-.3979-.14979-.4839.05349l-.0861.20328c-.2365.58845-.6882 1.03781-1.2473 1.29458-.0162.00535-.035.01338-.0538.0214-.0188.00803-.0376.01605-.0538.0214-.2473.12839-.828.51355-.8495 1.50856l.0108.32097z" fill="url(#L)"/><path d="m23.9559 12.4259c.2229-.4563.3396-.9657.3396-1.4963 0-.49-.1008-.94983-.2816-1.36896h.0056c-.0844-.18978-.1792-.3691-.2949-.53793l-.0022-.00328c-.3608-.55183-.5518-1.19916-.5518-1.8571v-.01062c0-1.91016-1.5493-3.45952-3.4595-3.45952-.191 0-.3714-.08489-.4776-.24407-.6261-.87019-1.6555-1.44324-2.8122-1.44324-1.1568 0-2.1861.57305-2.8122 1.44324-.1062.14857-.2866.24407-.4776.24407-.0298.00001-.0595.00038-.0891.00113-1.869.04732-3.37039 1.57804-3.37039 3.45839v.01062c0 .65794-.19102 1.30527-.55183 1.8571l-.0024.00385c-.35928.55098-.57054 1.19692-.57054 1.90632 0 .5412.12735 1.04.33959 1.4963.07428.1486.07428.329 0 .4775-.21224.4457-.33959.9445-.33959 1.4751 0 1.8677 1.50686 3.3746 3.37466 3.3746h8.999c1.8677 0 3.3746-1.5069 3.3746-3.3746 0-.5306-.1274-1.0294-.3396-1.4751-.0743-.1485-.0743-.3289 0-.4775zm-12.8562-2.80233h-.0129l1.257 2.47003c.1293 2.9388 1.2762 0 4.0775 0s4.0228 3.271 4.1521.3323l1.1911-3.35257c-.0563-1.30535-1.0023-1.39698-1.1911-1.39698h-3.3765c-1.3334 0-2.5916-.65264-3.3443-1.75463-.1291-.18189-.3979-.14979-.4839.05349l-.0861.20328c-.2365.58845-.6882 1.03781-1.2473 1.29458-.0162.00535-.035.01338-.0538.0214-.0188.00803-.0376.01605-.0538.0214-.2473.12839-.828.51355-.8495 1.50856l.0108.32097z" fill="url(#M)"/></g><path d="m16.4401 15.4951c-6.07 0-11.00004 4.92-11.00004 11v3.5h21.99004v-3.5c0-6.08-4.92-11-10.99-11z" fill="#56436b"/><path d="m16.4401 15.4951c-6.07 0-11.00004 4.92-11.00004 11v3.5h21.99004v-3.5c0-6.08-4.92-11-10.99-11z" fill="url(#N)"/><path d="m16.4401 15.4951c-6.07 0-11.00004 4.92-11.00004 11v3.5h21.99004v-3.5c0-6.08-4.92-11-10.99-11z" fill="url(#O)"/><path d="m23.456 18.0944c.0488-.0989.0247-.2181-.0588-.2902-1.8559-1.6024-4.3466-2.4866-6.9543-2.4866s-5.113.8936-6.96966 2.487c-.08369.0719-.10816.191-.05959.29 1.27525 2.5995 3.75545 4.6137 7.02925 4.6137s5.7299-2.0143 7.0131-4.6139z" fill="url(#P)"/><path d="m23.456 18.0944c.0488-.0989.0247-.2181-.0588-.2902-1.8559-1.6024-4.3466-2.4866-6.9543-2.4866s-5.113.8936-6.96966 2.487c-.08369.0719-.10816.191-.05959.29 1.27525 2.5995 3.75545 4.6137 7.02925 4.6137s5.7299-2.0143 7.0131-4.6139z" fill="url(#Q)"/><path d="m23.456 18.0944c.0488-.0989.0247-.2181-.0588-.2902-1.8559-1.6024-4.3466-2.4866-6.9543-2.4866s-5.113.8936-6.96966 2.487c-.08369.0719-.10816.191-.05959.29 1.27525 2.5995 3.75545 4.6137 7.02925 4.6137s5.7299-2.0143 7.0131-4.6139z" fill="url(#R)"/><path d="m23.456 18.0944c.0488-.0989.0247-.2181-.0588-.2902-1.8559-1.6024-4.3466-2.4866-6.9543-2.4866s-5.113.8936-6.96966 2.487c-.08369.0719-.10816.191-.05959.29 1.27525 2.5995 3.75545 4.6137 7.02925 4.6137s5.7299-2.0143 7.0131-4.6139z" fill="url(#S)"/><path d="m23.456 18.0944c.0488-.0989.0247-.2181-.0588-.2902-1.8559-1.6024-4.3466-2.4866-6.9543-2.4866s-5.113.8936-6.96966 2.487c-.08369.0719-.10816.191-.05959.29 1.27525 2.5995 3.75545 4.6137 7.02925 4.6137s5.7299-2.0143 7.0131-4.6139z" fill="url(#T)"/><path d="m23.456 18.0944c.0488-.0989.0247-.2181-.0588-.2902-1.8559-1.6024-4.3466-2.4866-6.9543-2.4866s-5.113.8936-6.96966 2.487c-.08369.0719-.10816.191-.05959.29 1.27525 2.5995 3.75545 4.6137 7.02925 4.6137s5.7299-2.0143 7.0131-4.6139z" fill="url(#U)"/><g filter="url(#b)"><path d="m16.1413 18.865c.0629.043.1698.08.28.0838.1103-.0038.2171-.0408.28-.0838 1.0169-.696 1.78-1.3892 1.78-2.5866v-3.6334c0-1.14-.92-2.06-2.06-2.06s-2.06.92-2.06 2.06v3.6334c0 1.1974.7632 1.8906 1.78 2.5866z" stroke="#1f0f21" stroke-width=".4"/></g><path d="m16.1413 18.865c.0629.043.1698.08.28.0838.1103-.0038.2171-.0408.28-.0838 1.0169-.696 1.78-1.3892 1.78-2.5866v-3.6334c0-1.14-.92-2.06-2.06-2.06s-2.06.92-2.06 2.06v3.6334c0 1.1974.7632 1.8906 1.78 2.5866z" fill="url(#V)"/><path d="m16.1413 18.865c.0629.043.1698.08.28.0838.1103-.0038.2171-.0408.28-.0838 1.0169-.696 1.78-1.3892 1.78-2.5866v-3.6334c0-1.14-.92-2.06-2.06-2.06s-2.06.92-2.06 2.06v3.6334c0 1.1974.7632 1.8906 1.78 2.5866z" fill="url(#W)"/><path d="m16.1413 18.865c.0629.043.1698.08.28.0838.1103-.0038.2171-.0408.28-.0838 1.0169-.696 1.78-1.3892 1.78-2.5866v-3.6334c0-1.14-.92-2.06-2.06-2.06s-2.06.92-2.06 2.06v3.6334c0 1.1974.7632 1.8906 1.78 2.5866z" fill="url(#X)"/><path d="m25.1682 11.668v-8.86282h-.8v8.86282z" fill="url(#Y)"/><path d="m25.1682 11.668v-8.86282h-.8v8.86282z" fill="url(#Z)"/><path d="m24.3676 11.644c-.2604.1421-.4371.4184-.4371.7359 0 .4626.3751.8376.8377.8376s.8376-.375.8376-.8376c0-.3175-.1767-.5938-.4371-.7359z" fill="url(#aa)"/><path d="m24.3676 11.644c-.2604.1421-.4371.4184-.4371.7359 0 .4626.3751.8376.8377.8376s.8376-.375.8376-.8376c0-.3175-.1767-.5938-.4371-.7359z" fill="url(#ab)"/><g filter="url(#c)"><path d="m24.8711 3.7085v7.7675" stroke="url(#ac)" stroke-width=".15"/></g><path d="m23.9144 13.6051-.5163 2.2386c-.0656.2843.1526.555.4444.5511h1.8631c.2894-.0038.5-.2759.4312-.557l-.5425-2.2392c-.0548-.2237-.2553-.3811-.4856-.3811h-.7071c-.2328 0-.4348.1608-.4872.3876z" fill="url(#ad)"/><path d="m23.9144 13.6051-.5163 2.2386c-.0656.2843.1526.555.4444.5511h1.8631c.2894-.0038.5-.2759.4312-.557l-.5425-2.2392c-.0548-.2237-.2553-.3811-.4856-.3811h-.7071c-.2328 0-.4348.1608-.4872.3876z" fill="url(#ae)"/><path d="m23.9144 13.6051-.5163 2.2386c-.0656.2843.1526.555.4444.5511h1.8631c.2894-.0038.5-.2759.4312-.557l-.5425-2.2392c-.0548-.2237-.2553-.3811-.4856-.3811h-.7071c-.2328 0-.4348.1608-.4872.3876z" fill="url(#af)"/><path d="m23.9144 13.6051-.5163 2.2386c-.0656.2843.1526.555.4444.5511h1.8631c.2894-.0038.5-.2759.4312-.557l-.5425-2.2392c-.0548-.2237-.2553-.3811-.4856-.3811h-.7071c-.2328 0-.4348.1608-.4872.3876z" fill="url(#ag)"/><path d="m23.9144 13.6051-.5163 2.2386c-.0656.2843.1526.555.4444.5511h1.8631c.2894-.0038.5-.2759.4312-.557l-.5425-2.2392c-.0548-.2237-.2553-.3811-.4856-.3811h-.7071c-.2328 0-.4348.1608-.4872.3876z" fill="url(#ah)"/><path d="m9.20551 29.995v-11.7863c-2.30703 2.0156-3.76545 4.9794-3.76545 8.2863v3.5z" fill="url(#ai)"/><path d="m9.20551 29.995v-11.7863c-2.30703 2.0156-3.76545 4.9794-3.76545 8.2863v3.5z" fill="url(#aj)"/><path d="m9.20551 29.995v-11.7863c-2.30703 2.0156-3.76545 4.9794-3.76545 8.2863v3.5z" fill="url(#ak)"/><path d="m23.6646 29.995v-11.7863c2.307 2.0156 3.7655 4.9794 3.7655 8.2863v3.5z" fill="url(#al)"/><path d="m23.6646 29.995v-11.7863c2.307 2.0156 3.7655 4.9794 3.7655 8.2863v3.5z" fill="url(#am)"/><g fill="url(#an)" filter="url(#d)"><path d="m12.103 23.7714c0-.188.1548-.3405.3457-.3405.191 0 .3457.1525.3457.3405v6.0931h-.6914z"/><path d="m16.0894 23.7714c0-.188.1547-.3405.3457-.3405.1909 0 .3457.1525.3457.3405v6.0931h-.6914z"/><path d="m20.0757 23.7714c0-.188.1548-.3405.3457-.3405s.3457.1525.3457.3405v6.0931h-.6914z"/></g><g filter="url(#e)"><path d="m13.3871 4.08569c.0244.25507.2463 1.21375.5717 1.79424" stroke="url(#ao)" stroke-linecap="round" stroke-width=".1"/></g><g filter="url(#f)"><path d="m13.3895 4.08789c.0244.25485.2461 1.21276.5713 1.79277" stroke="url(#ap)" stroke-linecap="round" stroke-width=".2"/></g><g filter="url(#g)"><path d="m11.5079 12.6351c.9318 0 1.6873-.7554 1.6873-1.6873s-.7555-1.6873-1.6873-1.6873c-.9319 0-1.68734.7554-1.68734 1.6873s.75544 1.6873 1.68734 1.6873z" fill="url(#aq)"/></g><g filter="url(#h)"><path d="m21.4833 12.6351c.9319 0 1.6873-.7554 1.6873-1.6873s-.7554-1.6873-1.6873-1.6873c-.9318 0-1.6873.7554-1.6873 1.6873s.7555 1.6873 1.6873 1.6873z" fill="url(#ar)"/><path d="m21.4833 12.6351c.9319 0 1.6873-.7554 1.6873-1.6873s-.7554-1.6873-1.6873-1.6873c-.9318 0-1.6873.7554-1.6873 1.6873s.7555 1.6873 1.6873 1.6873z" fill="url(#as)"/></g><g filter="url(#i)"><path d="m21.4833 12.0742c.622 0 1.1263-.5043 1.1263-1.1263 0-.6221-.5043-1.12637-1.1263-1.12637-.6221 0-1.1264.50427-1.1264 1.12637 0 .622.5043 1.1263 1.1264 1.1263z" fill="#f6bca5"/><path d="m21.4833 12.0742c.622 0 1.1263-.5043 1.1263-1.1263 0-.6221-.5043-1.12637-1.1263-1.12637-.6221 0-1.1264.50427-1.1264 1.12637 0 .622.5043 1.1263 1.1264 1.1263z" fill="url(#at)"/></g><g filter="url(#j)"><path d="m11.5282 12.0742c.622 0 1.1263-.5043 1.1263-1.1263 0-.6221-.5043-1.12637-1.1263-1.12637-.6221 0-1.1263.50427-1.1263 1.12637 0 .622.5042 1.1263 1.1263 1.1263z" fill="#c58c80"/><path d="m11.5282 12.0742c.622 0 1.1263-.5043 1.1263-1.1263 0-.6221-.5043-1.12637-1.1263-1.12637-.6221 0-1.1263.50427-1.1263 1.12637 0 .622.5042 1.1263 1.1263 1.1263z" fill="url(#au)"/></g><g filter="url(#k)"><path d="m11.0868 9.62357h.013l-.0108-.27818-.0108-.32097c.0216-.995.6022-1.38017.8496-1.50856.0161-.00535.0349-.01337.0537-.02139.0188-.00803.0377-.01605.0538-.0214.5592-.25678 1.0108-.70614 1.2474-1.29458l.086-.20328c.086-.20329.3549-.23538.4839-.0535.7527 1.102 2.0109 1.75464 3.3443 1.75464h3.3766c.1888 0 1.1347.09162 1.1911 1.39697l-.1246 3.22248c-.1293 2.9387-2.4242 4.912-5.2255 4.912s-5.0962-1.9733-5.2255-4.912z" fill="url(#av)"/><path d="m11.0868 9.62357h.013l-.0108-.27818-.0108-.32097c.0216-.995.6022-1.38017.8496-1.50856.0161-.00535.0349-.01337.0537-.02139.0188-.00803.0377-.01605.0538-.0214.5592-.25678 1.0108-.70614 1.2474-1.29458l.086-.20328c.086-.20329.3549-.23538.4839-.0535.7527 1.102 2.0109 1.75464 3.3443 1.75464h3.3766c.1888 0 1.1347.09162 1.1911 1.39697l-.1246 3.22248c-.1293 2.9387-2.4242 4.912-5.2255 4.912s-5.0962-1.9733-5.2255-4.912z" fill="url(#aw)"/><path d="m11.0868 9.62357h.013l-.0108-.27818-.0108-.32097c.0216-.995.6022-1.38017.8496-1.50856.0161-.00535.0349-.01337.0537-.02139.0188-.00803.0377-.01605.0538-.0214.5592-.25678 1.0108-.70614 1.2474-1.29458l.086-.20328c.086-.20329.3549-.23538.4839-.0535.7527 1.102 2.0109 1.75464 3.3443 1.75464h3.3766c.1888 0 1.1347.09162 1.1911 1.39697l-.1246 3.22248c-.1293 2.9387-2.4242 4.912-5.2255 4.912s-5.0962-1.9733-5.2255-4.912z" fill="url(#ax)"/><path d="m11.0868 9.62357h.013l-.0108-.27818-.0108-.32097c.0216-.995.6022-1.38017.8496-1.50856.0161-.00535.0349-.01337.0537-.02139.0188-.00803.0377-.01605.0538-.0214.5592-.25678 1.0108-.70614 1.2474-1.29458l.086-.20328c.086-.20329.3549-.23538.4839-.0535.7527 1.102 2.0109 1.75464 3.3443 1.75464h3.3766c.1888 0 1.1347.09162 1.1911 1.39697l-.1246 3.22248c-.1293 2.9387-2.4242 4.912-5.2255 4.912s-5.0962-1.9733-5.2255-4.912z" fill="url(#ay)"/><path d="m11.0868 9.62357h.013l-.0108-.27818-.0108-.32097c.0216-.995.6022-1.38017.8496-1.50856.0161-.00535.0349-.01337.0537-.02139.0188-.00803.0377-.01605.0538-.0214.5592-.25678 1.0108-.70614 1.2474-1.29458l.086-.20328c.086-.20329.3549-.23538.4839-.0535.7527 1.102 2.0109 1.75464 3.3443 1.75464h3.3766c.1888 0 1.1347.09162 1.1911 1.39697l-.1246 3.22248c-.1293 2.9387-2.4242 4.912-5.2255 4.912s-5.0962-1.9733-5.2255-4.912z" fill="url(#az)"/><path d="m11.0868 9.62357h.013l-.0108-.27818-.0108-.32097c.0216-.995.6022-1.38017.8496-1.50856.0161-.00535.0349-.01337.0537-.02139.0188-.00803.0377-.01605.0538-.0214.5592-.25678 1.0108-.70614 1.2474-1.29458l.086-.20328c.086-.20329.3549-.23538.4839-.0535.7527 1.102 2.0109 1.75464 3.3443 1.75464h3.3766c.1888 0 1.1347.09162 1.1911 1.39697l-.1246 3.22248c-.1293 2.9387-2.4242 4.912-5.2255 4.912s-5.0962-1.9733-5.2255-4.912z" fill="url(#aA)"/><path d="m11.0868 9.62357h.013l-.0108-.27818-.0108-.32097c.0216-.995.6022-1.38017.8496-1.50856.0161-.00535.0349-.01337.0537-.02139.0188-.00803.0377-.01605.0538-.0214.5592-.25678 1.0108-.70614 1.2474-1.29458l.086-.20328c.086-.20329.3549-.23538.4839-.0535.7527 1.102 2.0109 1.75464 3.3443 1.75464h3.3766c.1888 0 1.1347.09162 1.1911 1.39697l-.1246 3.22248c-.1293 2.9387-2.4242 4.912-5.2255 4.912s-5.0962-1.9733-5.2255-4.912z" fill="url(#aB)"/></g><path d="m11.0868 9.62357h.013l-.0108-.27818-.0108-.32097c.0216-.995.6022-1.38017.8496-1.50856.0161-.00535.0349-.01337.0537-.02139.0188-.00803.0377-.01605.0538-.0214.5592-.25678 1.0108-.70614 1.2474-1.29458l.086-.20328c.086-.20329.3549-.23538.4839-.0535.7527 1.102 2.0109 1.75464 3.3443 1.75464h3.3766c.1888 0 1.1347.09162 1.1911 1.39697l-.1246 3.22248c-.1293 2.9387-2.4242 4.912-5.2255 4.912s-5.0962-1.9733-5.2255-4.912z" fill="url(#aC)"/><g filter="url(#l)"><path d="m16.0097 10.7141-.7168 1.7827c-.1138.3667.1592.7334.5459.7334h.8246c.3867 0 .6597-.3724.5459-.7334l-.5573-1.7827c-.1194-.3949-.5172-.3949-.6423 0z" fill="#d19590"/></g><g filter="url(#m)"><path d="m16.0205 10.5691-.5573 1.7827c-.1138.3667.1592.7333.5459.7333h.8246c.3867 0 .6597-.3723.5459-.7333l-.5573-1.7827c-.1194-.3949-.6767-.3949-.8018 0z" fill="#f1c4b2"/><path d="m16.0205 10.5691-.5573 1.7827c-.1138.3667.1592.7333.5459.7333h.8246c.3867 0 .6597-.3723.5459-.7333l-.5573-1.7827c-.1194-.3949-.6767-.3949-.8018 0z" fill="url(#aD)"/><path d="m16.0205 10.5691-.5573 1.7827c-.1138.3667.1592.7333.5459.7333h.8246c.3867 0 .6597-.3723.5459-.7333l-.5573-1.7827c-.1194-.3949-.6767-.3949-.8018 0z" fill="url(#aE)"/><path d="m16.0205 10.5691-.5573 1.7827c-.1138.3667.1592.7333.5459.7333h.8246c.3867 0 .6597-.3723.5459-.7333l-.5573-1.7827c-.1194-.3949-.6767-.3949-.8018 0z" fill="url(#aF)"/><path d="m16.0205 10.5691-.5573 1.7827c-.1138.3667.1592.7333.5459.7333h.8246c.3867 0 .6597-.3723.5459-.7333l-.5573-1.7827c-.1194-.3949-.6767-.3949-.8018 0z" fill="url(#aG)"/></g><path d="m16.0205 10.5691-.5573 1.7827c-.1138.3667.1592.7333.5459.7333h.8246c.3867 0 .6597-.3723.5459-.7333l-.5573-1.7827c-.1194-.3949-.6767-.3949-.8018 0z" fill="url(#aH)"/><path d="m16.0205 10.5691-.5573 1.7827c-.1138.3667.1592.7333.5459.7333h.8246c.3867 0 .6597-.3723.5459-.7333l-.5573-1.7827c-.1194-.3949-.6767-.3949-.8018 0z" fill="url(#aI)"/><path d="m14.9541 13.5953c.4239.226.9291.3556 1.4672.3556.5435 0 1.0432-.1296 1.4672-.3556l.0004-.0003c.0958-.0498.1961-.0207.2561.043.0604.0641.0822.166.0219.2586m-3.2128-.3013 3.1709.2741m-3.1709-.2741-.0004-.0003c-.0965-.0501-.1969-.0187-.2563.0453-.0596.0641-.0826.1661-.0215.2567m.2782-.3017-.2365.2741m3.4493.0272c0 .0001 0 .0001-.0001.0001l-.0418-.0273m.0419.0272s.0001 0 .0001-.0001l-.042-.0271m.0419.0272c-.3692.5722-1.0125.9539-1.7456.9539-.7329 0-1.3762-.3816-1.7454-.9535m3.4491-.0276c-.3604.5586-.9884.9311-1.7037.9311s-1.3433-.3725-1.7037-.9311m-.0417.0276c.0001.0001.0002.0003.0003.0005l.0414-.0281m-.0417.0276c-.0001-.0002-.0002-.0003-.0003-.0005l.042-.0271" fill="#88024e" stroke="url(#aJ)" stroke-width=".1"/><g filter="url(#n)"><path d="m17.6189 10.351c.2784-.48951.7014-.87615 1.6121-.87615.3988 0 .7832.11047 1.125.38664.2819.22781.2441.51921.0258.62841l-.583.3329c-.6836-.221-1.4394-.2509-2.1799-.4718z" fill="#2d2b2e"/></g><g filter="url(#o)"><path d="m15.224 10.351c-.2784-.48951-.7015-.87615-1.6121-.87615-.3988 0-.7832.11047-1.125.38664-.2819.22781-.2441.51921-.0258.62841l.583.3329c.6836-.221 1.4394-.2509 2.1799-.4718z" fill="#272528"/></g><g filter="url(#p)"><path d="m12.8586 9.08351-.0046.00265c-.0001.00008-.0003.00016-.0004.00024-.1331.07946-.3056.0363-.3854-.0967-.0799-.13318-.0366-.30602.0966-.38592l.0006-.00036.0011-.00065.0031-.00182.0098-.00571c.0082-.00468.0196-.01108.0341-.0189.0288-.01562.0698-.03696.1216-.06164.1033-.04925.2506-.11231.4301-.16959.3564-.11375.8548-.20944 1.3928-.11449.1529.02699.255.17286.2281.32581-.027.15295-.1729.25506-.3259.22806-.4181-.07378-.8196-.00074-1.124.09643-.151.04817-.2744.10111-.3591.1415-.0423.02014-.0746.03703-.0957.04843-.0105.0057-.0182.01001-.0228.01266z" fill="#1e1e1e"/></g><g filter="url(#q)"><path clip-rule="evenodd" d="m20.3342 8.60378c.0001.00005.0002.00009-.1445.24124l.1445-.24124c.1332.0799.1766.25274.0967.38592-.0798.133-.2522.17625-.3853.09679-.0001-.00006-.0003-.00016-.0005-.0003l-.0047-.00268c-.0046-.00265-.0123-.00696-.0228-.01266-.021-.0114-.0534-.02829-.0957-.04843-.0847-.04039-.2081-.09333-.359-.1415-.3045-.09717-.706-.17021-1.1241-.09643-.153.027-.2988-.07511-.3258-.22806s.0751-.29882.228-.32581c.5381-.09495 1.0365.00074 1.3929.11449.1794.05728.3267.12034.43.16959.0518.02468.0928.04602.1217.06164.0144.00782.0258.01422.034.0189l.0098.00571.0031.00182.0011.00065z" fill="#1e1e1e" fill-rule="evenodd"/></g><path d="m18.9286 9.53638c.6848 0 1.2634.47212 1.4207 1.11022.0468.1829-.0935.3573-.2807.3573h-2.3396c-.1489 0-.268-.1361-.2382-.285.1319-.6721.7231-1.18252 1.4378-1.18252z" fill="#fff"/><path d="m18.7116 9.82153c.5189 0 .9358.42117.9358.93587 0 .085-.0128.1701-.034.2467h-1.8079c-.0213-.0808-.034-.1617-.034-.2467 0-.5147.4211-.93587.9401-.93587z" fill="url(#aL)"/><path d="m18.1757 10.7572c0-.2978.2382-.536.5359-.536.2978 0 .536.2382.536.536 0 .0893-.0213.1744-.0595.2467h-.9486c-.0426-.0723-.0638-.1574-.0638-.2467z" fill="#000"/><g filter="url(#r)"><path d="m18.6428 10.0193c.0667.0892-.0727.1979-.2311.3164-.1585.1184-.2761.2018-.3427.1126-.0667-.0891.0077-.2575.1662-.376.1584-.11843.3409-.14218.4076-.053z" fill="#c7a7a3"/><path d="m18.6428 10.0193c.0667.0892-.0727.1979-.2311.3164-.1585.1184-.2761.2018-.3427.1126-.0667-.0891.0077-.2575.1662-.376.1584-.11843.3409-.14218.4076-.053z" fill="url(#aN)"/></g><g filter="url(#s)"><path d="m19.5451 10.6341c-.0345-.2419-.1761-.4242-.2426-.4852l-.2725.2991.123.2393z" fill="url(#aP)"/></g><path d="m13.9141 9.53638c-.6849 0-1.2634.47222-1.4208 1.11022-.0468.1829.0936.3573.2808.3573h2.3396c.1489 0 .268-.1361.2382-.285-.1319-.6721-.7274-1.18252-1.4378-1.18252z" fill="#fff"/><path d="m14.131 9.82153c-.5189 0-.9358.42117-.9358.93587 0 .085.0128.1701.034.2467h1.8079c.0213-.0808.034-.1617.034-.2467-.0042-.5147-.4211-.93587-.9401-.93587z" fill="url(#aQ)"/><path d="m14.6671 10.7572c0-.2978-.2383-.536-.536-.536-.2978 0-.536.2382-.536.536 0 .0893.0213.1744.0595.2467h.9486c.0383-.0723.0639-.1574.0639-.2467z" fill="#000"/><g filter="url(#t)"><path d="m14.986 10.6472c0-.3024-.2459-.504-.3124-.5649l-.3024.2924.1861.3789z" fill="url(#aR)"/></g><g filter="url(#u)"><ellipse cx="13.8487" cy="10.2212" fill="#c7a7a3" fill-opacity=".9" rx=".408544" ry=".206761" transform="matrix(.88365127 -.46814574 .46814574 .88365127 -3.173733 7.672434)"/><ellipse cx="13.8487" cy="10.2212" fill="url(#aS)" rx=".408544" ry=".206761" transform="matrix(.88365127 -.46814574 .46814574 .88365127 -3.173733 7.672434)"/></g><g filter="url(#v)"><path d="m18.4552 8.45979c.3382-.08228 1.1793-.04114 1.7415.3611" stroke="#323233" stroke-linecap="round" stroke-width=".2"/></g><g filter="url(#w)"><path d="m14.48 8.45979c-.3383-.08228-1.1793-.04114-1.7415.3611" stroke="#323233" stroke-linecap="round" stroke-width=".2"/></g><g filter="url(#x)"><path d="m11.1058 4.66829c.5932-.62837 1.7158-.62937 2.2344-.53563l.415 1.35336c-.2651-.04101-.5014.05273-.7002.24607-.4702 1.32173-2.0861 2.05056-2.8353 2.24975-.1556-1.56428.1141-2.49582.8861-3.31355z" fill="#232121"/><path d="m11.1058 4.66829c.5932-.62837 1.7158-.62937 2.2344-.53563l.415 1.35336c-.2651-.04101-.5014.05273-.7002.24607-.4702 1.32173-2.0861 2.05056-2.8353 2.24975-.1556-1.56428.1141-2.49582.8861-3.31355z" fill="url(#aT)"/></g><g filter="url(#y)"><path d="m15.7888 2.77818c-1.1878-.26222-2.2543.92275-2.3773 1.36216 1.1029 3.71736 3.8935 3.51373 6.6483 3.20765 1.649-.18323 1.8279.56829 1.9685.93153 0-4.12389-3.5068-4.89805-6.2095-5.49471z" fill="#2a2a2a"/><path d="m15.7888 2.77818c-1.1878-.26222-2.2543.92275-2.3773 1.36216 1.1029 3.71736 3.8935 3.51373 6.6483 3.20765 1.649-.18323 1.8279.56829 1.9685.93153 0-4.12389-3.5068-4.89805-6.2095-5.49471z" fill="url(#aU)"/><path d="m15.7888 2.77818c-1.1878-.26222-2.2543.92275-2.3773 1.36216 1.1029 3.71736 3.8935 3.51373 6.6483 3.20765 1.649-.18323 1.8279.56829 1.9685.93153 0-4.12389-3.5068-4.89805-6.2095-5.49471z" fill="url(#aV)"/></g><g filter="url(#z)"><path d="m13.3895 4.08789c.0244.25485.2461 1.21276.5713 1.79277" stroke="url(#aW)" stroke-linecap="round" stroke-width=".2"/></g><g filter="url(#A)"><path d="m18.9446 6.56358-1.4947.27495c-.4433.08156-.8521-.25888-.8521-.7097 0-.39853.3226-.7216.7211-.7216h2.4545c1.4517 0 1.9323 1.46307 1.9911 1.96301-.7622-.6948-1.8055-.99324-2.8199-.80666z" fill="#4b4648"/></g><g filter="url(#B)"><path d="m10.2015 5.24707 1.2539-1.99219 9.75-.10937 1.3594 2.0625c-4.664 1.60937-10.2734.77344-12.3633.03906z" fill="url(#aX)"/><path d="m10.2015 5.24707 1.2539-1.99219 9.75-.10937 1.3594 2.0625c-4.664 1.60937-10.2734.77344-12.3633.03906z" fill="url(#aY)"/></g><path d="m24.3779 3.60488h-15.96999c-.44 0-.8-.36-.8-.8s.36-.8.8-.8h15.95999c.44 0 .8.36.8.8.01.44-.35.8-.79.8z" fill="url(#aZ)"/><path d="m24.3779 3.60488h-15.96999c-.44 0-.8-.36-.8-.8s.36-.8.8-.8h15.95999c.44 0 .8.36.8.8.01.44-.35.8-.79.8z" fill="url(#a0)"/><path d="m24.3779 3.60488h-15.96999c-.44 0-.8-.36-.8-.8s.36-.8.8-.8h15.95999c.44 0 .8.36.8.8.01.44-.35.8-.79.8z" fill="url(#a1)"/></svg>