<svg fill="none" height="32" viewBox="0 0 32 32" width="32" xmlns="http://www.w3.org/2000/svg" xmlns:xlink="http://www.w3.org/1999/xlink"><filter id="a" color-interpolation-filters="sRGB" filterUnits="userSpaceOnUse" height="8.15625" width="5.86133" x="21.0156" y="14.9062"><feFlood flood-opacity="0" result="BackgroundImageFix"/><feBlend in="SourceGraphic" in2="BackgroundImageFix" mode="normal" result="shape"/><feColorMatrix in="SourceAlpha" result="hardAlpha" type="matrix" values="0 0 0 0 0 0 0 0 0 0 0 0 0 0 0 0 0 0 127 0"/><feOffset dx="-.02" dy="-.02"/><feComposite in2="hardAlpha" k2="-1" k3="1" operator="arithmetic"/><feColorMatrix type="matrix" values="0 0 0 0 0.866667 0 0 0 0 0.854902 0 0 0 0 0.886275 0 0 0 1 0"/><feBlend in2="shape" mode="normal" result="effect1_innerShadow_18_20365"/></filter><filter id="b" color-interpolation-filters="sRGB" filterUnits="userSpaceOnUse" height="8.15625" width="5.86133" x="5.12305" y="14.9062"><feFlood flood-opacity="0" result="BackgroundImageFix"/><feBlend in="SourceGraphic" in2="BackgroundImageFix" mode="normal" result="shape"/><feColorMatrix in="SourceAlpha" result="hardAlpha" type="matrix" values="0 0 0 0 0 0 0 0 0 0 0 0 0 0 0 0 0 0 127 0"/><feOffset dx=".02" dy="-.02"/><feComposite in2="hardAlpha" k2="-1" k3="1" operator="arithmetic"/><feColorMatrix type="matrix" values="0 0 0 0 0.866667 0 0 0 0 0.854902 0 0 0 0 0.886275 0 0 0 1 0"/><feBlend in2="shape" mode="normal" result="effect1_innerShadow_18_20365"/></filter><filter id="c" color-interpolation-filters="sRGB" filterUnits="userSpaceOnUse" height="3.13281" width="1.69141" x="21.0156" y="17.4375"><feFlood flood-opacity="0" result="BackgroundImageFix"/><feBlend in="SourceGraphic" in2="BackgroundImageFix" mode="normal" result="shape"/><feColorMatrix in="SourceAlpha" result="hardAlpha" type="matrix" values="0 0 0 0 0 0 0 0 0 0 0 0 0 0 0 0 0 0 127 0"/><feOffset dx="-.02" dy="-.02"/><feComposite in2="hardAlpha" k2="-1" k3="1" operator="arithmetic"/><feColorMatrix type="matrix" values="0 0 0 0 0.66741 0 0 0 0 0.636158 0 0 0 0 0.69085 0 0 0 1 0"/><feBlend in2="shape" mode="normal" result="effect1_innerShadow_18_20365"/></filter><filter id="d" color-interpolation-filters="sRGB" filterUnits="userSpaceOnUse" height="3.13281" width="1.69141" x="9.29297" y="17.4375"><feFlood flood-opacity="0" result="BackgroundImageFix"/><feBlend in="SourceGraphic" in2="BackgroundImageFix" mode="normal" result="shape"/><feColorMatrix in="SourceAlpha" result="hardAlpha" type="matrix" values="0 0 0 0 0 0 0 0 0 0 0 0 0 0 0 0 0 0 127 0"/><feOffset dx=".02" dy="-.02"/><feComposite in2="hardAlpha" k2="-1" k3="1" operator="arithmetic"/><feColorMatrix type="matrix" values="0 0 0 0 0.66741 0 0 0 0 0.636158 0 0 0 0 0.69085 0 0 0 1 0"/><feBlend in2="shape" mode="normal" result="effect1_innerShadow_18_20365"/></filter><filter id="e" color-interpolation-filters="sRGB" filterUnits="userSpaceOnUse" height="2.42627" width="3.39934" x="14.3049" y="11.3472"><feFlood flood-opacity="0" result="BackgroundImageFix"/><feBlend in="SourceGraphic" in2="BackgroundImageFix" mode="normal" result="shape"/><feColorMatrix in="SourceAlpha" result="hardAlpha" type="matrix" values="0 0 0 0 0 0 0 0 0 0 0 0 0 0 0 0 0 0 127 0"/><feOffset dx="-.1"/><feGaussianBlur stdDeviation=".05"/><feComposite in2="hardAlpha" k2="-1" k3="1" operator="arithmetic"/><feColorMatrix type="matrix" values="0 0 0 0 0.152941 0 0 0 0 0.117647 0 0 0 0 0.196078 0 0 0 1 0"/><feBlend in2="shape" mode="normal" result="effect1_innerShadow_18_20365"/><feColorMatrix in="SourceAlpha" result="hardAlpha" type="matrix" values="0 0 0 0 0 0 0 0 0 0 0 0 0 0 0 0 0 0 127 0"/><feOffset dx=".1"/><feGaussianBlur stdDeviation=".05"/><feComposite in2="hardAlpha" k2="-1" k3="1" operator="arithmetic"/><feColorMatrix type="matrix" values="0 0 0 0 0.262745 0 0 0 0 0.211765 0 0 0 0 0.321569 0 0 0 1 0"/><feBlend in2="effect1_innerShadow_18_20365" mode="normal" result="effect2_innerShadow_18_20365"/></filter><linearGradient id="f" gradientUnits="userSpaceOnUse" x1="16" x2="16" y1="26.8125" y2="29.9531"><stop offset="0" stop-color="#302243"/><stop offset="1" stop-color="#2f2243"/></linearGradient><linearGradient id="g" gradientUnits="userSpaceOnUse" x1="16" x2="16" y1="9.96875" y2="26.875"><stop offset="0" stop-color="#635ea6"/><stop offset=".974122" stop-color="#553e71"/></linearGradient><linearGradient id="h" gradientUnits="userSpaceOnUse" x1="16" x2="16" y1="16.1563" y2="23.0625"><stop offset="0" stop-color="#dfdbe3"/><stop offset="1" stop-color="#dfdbe5"/></linearGradient><linearGradient id="i"><stop offset="0" stop-color="#b1aeb4"/><stop offset="1" stop-color="#b0adb4"/></linearGradient><linearGradient id="j" gradientUnits="userSpaceOnUse" x1="15.6562" x2="18.5547" xlink:href="#i" y1="18.5195" y2="18.5195"/><linearGradient id="k" gradientUnits="userSpaceOnUse" x1="15.6562" x2="18.5547" xlink:href="#i" y1="20.4805" y2="20.4805"/><radialGradient id="l" cx="0" cy="0" gradientTransform="matrix(4.4375 0 0 6.69528 24.5937 19.9063)" gradientUnits="userSpaceOnUse" r="1"><stop offset=".651408" stop-color="#3b2b52"/><stop offset="1" stop-color="#100523"/></radialGradient><radialGradient id="m" cx="0" cy="0" gradientTransform="matrix(.39119099 -8.44331263 12.73923428 .5902273 5.31194 22.8559)" gradientUnits="userSpaceOnUse" r="1"><stop offset="0" stop-color="#3b2b52"/><stop offset=".687838" stop-color="#38294f"/><stop offset="1" stop-color="#100523"/></radialGradient><radialGradient id="n" cx="0" cy="0" gradientTransform="matrix(-3.25996018 2.02118218 -2.44735095 -3.94732683 8.14811 20.3457)" gradientUnits="userSpaceOnUse" r="1"><stop offset=".520009" stop-color="#1a0f2a"/><stop offset="1" stop-color="#1a0f2a" stop-opacity="0"/></radialGradient><linearGradient id="o"><stop offset="0" stop-color="#d4d0d8"/><stop offset="1" stop-color="#d6d2da"/></linearGradient><radialGradient id="p" cx="0" cy="0" gradientTransform="matrix(-3.31253224 5.74998252 -4.1321127 -2.38048663 26.2499 17.3125)" gradientUnits="userSpaceOnUse" r="1" xlink:href="#o"/><linearGradient id="q"><stop offset=".12963" stop-color="#746882"/><stop offset="1" stop-color="#d7d3db" stop-opacity="0"/></linearGradient><linearGradient id="r" gradientUnits="userSpaceOnUse" x1="23.9463" x2="23.9463" xlink:href="#q" y1="14.7344" y2="15.8281"/><radialGradient id="s" cx="0" cy="0" gradientTransform="matrix(3.31250213 5.74999986 -4.13212516 2.380465 5.75006 17.3125)" gradientUnits="userSpaceOnUse" r="1" xlink:href="#o"/><linearGradient id="t" gradientUnits="userSpaceOnUse" x1="8.05371" x2="8.05371" xlink:href="#q" y1="14.7344" y2="15.8281"/><linearGradient id="u"><stop offset="0" stop-color="#53416e"/><stop offset="1" stop-color="#402b5d"/></linearGradient><linearGradient id="v" gradientUnits="userSpaceOnUse" x1="22.3124" x2="20.5468" xlink:href="#u" y1="18.9844" y2="18.9844"/><linearGradient id="w"><stop offset=".825243" stop-color="#4d3968" stop-opacity="0"/><stop offset=".977205" stop-color="#291745"/></linearGradient><radialGradient id="x" cx="0" cy="0" gradientTransform="matrix(2.51794593 -4.54111142 3.84750895 2.13335869 20.3336 20.2147)" gradientUnits="userSpaceOnUse" r="1" xlink:href="#w"/><radialGradient id="y" cx="0" cy="0" gradientTransform="matrix(0 1.27139 -1.45069 0 21.302 19.7916)" gradientUnits="userSpaceOnUse" r="1"><stop offset="0" stop-color="#493466"/><stop offset="1" stop-color="#493466" stop-opacity="0"/></radialGradient><linearGradient id="z" gradientUnits="userSpaceOnUse" x1="8.8653" x2="12.4187" xlink:href="#u" y1="18.9844" y2="18.9844"/><radialGradient id="A" cx="0" cy="0" gradientTransform="matrix(-2.51791423 -4.541129 3.84752384 -2.13333183 11.6664 20.2147)" gradientUnits="userSpaceOnUse" r="1" xlink:href="#w"/><radialGradient id="B" cx="0" cy="0" gradientTransform="matrix(0 1.82558 -1.98125 0 10.7724 19.3841)" gradientUnits="userSpaceOnUse" r="1"><stop offset=".459677" stop-color="#2e2043"/><stop offset="1" stop-color="#4a3666" stop-opacity="0"/></radialGradient><linearGradient id="C"><stop offset="0" stop-color="#676072"/><stop offset="1" stop-color="#8f8996"/></linearGradient><linearGradient id="D" gradientUnits="userSpaceOnUse" x1="21.0156" x2="22.3014" xlink:href="#C" y1="20.7695" y2="20.7695"/><linearGradient id="E" gradientUnits="userSpaceOnUse" x1="10.9844" x2="8.4741" xlink:href="#C" y1="20.7695" y2="19.0091"/><linearGradient id="F" gradientUnits="userSpaceOnUse" x1="10.9844" x2="10.1387" y1="19.71" y2="19.7263"><stop offset="0" stop-color="#67636c"/><stop offset="1" stop-color="#9b999f" stop-opacity="0"/></linearGradient><linearGradient id="G" gradientUnits="userSpaceOnUse" x1="25.4062" x2="26.877" y1="23.0625" y2="20.0625"><stop offset="0" stop-color="#a9a6ae"/><stop offset="1" stop-color="#8d8a92"/></linearGradient><linearGradient id="H" gradientUnits="userSpaceOnUse" x1="6.07957" x2="6.07957" y1="19.2031" y2="23.0625"><stop offset="0" stop-color="#544d61"/><stop offset="1" stop-color="#67626e"/></linearGradient><linearGradient id="I" gradientUnits="userSpaceOnUse" x1="14.7344" x2="15.9063" y1="12.5603" y2="13.5157"><stop offset="0" stop-color="#676198"/><stop offset="1" stop-color="#676198" stop-opacity="0"/></linearGradient><rect fill="url(#f)" height="16.9062" rx="3" width="28.125" x="1.9375" y="13.0469"/><rect fill="url(#g)" height="16.9062" rx="3" width="28.125" x="1.9375" y="9.96875"/><rect fill="url(#h)" height="8.15625" rx="1" width="8.1875" x="11.9062" y="14.9062"/><path d="m20.0938 16.4688h-8.1876v-.5626c0-.5522.4478-1 1-1h6.1876c.5522 0 1 .4478 1 1z" fill="#f13861"/><rect fill="url(#j)" height=".929688" rx=".464844" width="5.10938" x="13.4453" y="18.0547"/><rect fill="#58bad0" fill-opacity=".55" height=".929688" rx=".464844" width="5.10938" x="13.4453" y="20.0156"/><rect fill="#b0adb4" height=".929688" rx=".464844" width="5.10938" x="13.4453" y="20.0156"/><rect fill="url(#k)" height=".929688" rx=".464844" width="5.10938" x="13.4453" y="20.0156"/><rect fill="#473a5a" height="8.15625" rx="1" width="6.95312" x="21.0156" y="14.8516"/><rect fill="#473a5a" height="8.15625" rx="1" width="6.95312" x="4.03125" y="14.8516"/><rect fill="url(#l)" height="8.15625" rx="1" width="6.95312" x="21.0156" y="14.9062"/><path d="m10.9844 15.9063c0-.5523-.4477-1.0001-1.00002-1.0001h-4.95313c-.55228 0-1 .4478-1 1v6.1563c0 .5523.44772 1 1 1h4.95313c.55232 0 1.00002-.4477 1.00002-1z" fill="url(#m)"/><path d="m10.9844 15.9063c0-.5523-.4477-1.0001-1.00002-1.0001h-4.95313c-.55228 0-1 .4478-1 1v6.1563c0 .5523.44772 1 1 1h4.95313c.55232 0 1.00002-.4477 1.00002-1z" fill="url(#n)"/><g filter="url(#a)"><path d="m24.9638 23.0625c1.169-.9727 1.9132-2.4385 1.9132-4.0781s-.7442-3.1055-1.9132-4.0782h-2.9482c-.5523 0-1 .4478-1 1v6.1563c0 .5523.4477 1 1 1z" fill="url(#p)"/><path d="m24.9638 23.0625c1.169-.9727 1.9132-2.4385 1.9132-4.0781s-.7442-3.1055-1.9132-4.0782h-2.9482c-.5523 0-1 .4478-1 1v6.1563c0 .5523.4477 1 1 1z" fill="url(#r)"/></g><g filter="url(#b)"><path d="m7.03619 23.0625c-1.16897-.9727-1.91314-2.4385-1.91314-4.0781s.74417-3.1055 1.91314-4.0782h2.94819c.55232 0 1.00002.4478 1.00002 1v6.1563c0 .5523-.4477 1-1.00002 1z" fill="url(#s)"/><path d="m7.03619 23.0625c-1.16897-.9727-1.91314-2.4385-1.91314-4.0781s.74417-3.1055 1.91314-4.0782h2.94819c.55232 0 1.00002.4478 1.00002 1v6.1563c0 .5523-.4477 1-1.00002 1z" fill="url(#t)"/></g><path d="m21.1869 15.3464c-.1081.1598-.1713.3525-.1713.5599v6.1562c0 .2075.0632.4001.1713.5599 1.9458-.0736 3.5006-1.6742 3.5006-3.638 0-1.9637-1.5548-3.5644-3.5006-3.638z" fill="url(#v)"/><path d="m21.1869 15.3464c-.1081.1598-.1713.3525-.1713.5599v6.1562c0 .2075.0632.4001.1713.5599 1.9458-.0736 3.5006-1.6742 3.5006-3.638 0-1.9637-1.5548-3.5644-3.5006-3.638z" fill="url(#x)"/><path d="m21.1869 15.3464c-.1081.1598-.1713.3525-.1713.5599v6.1562c0 .2075.0632.4001.1713.5599 1.9458-.0736 3.5006-1.6742 3.5006-3.638 0-1.9637-1.5548-3.5644-3.5006-3.638z" fill="url(#y)"/><path d="m10.8131 15.3464c.1081.1598.1713.3525.1713.5599v6.1562c0 .2075-.0632.4001-.1713.5599-1.94576-.0736-3.5006-1.6742-3.5006-3.638 0-1.9637 1.55484-3.5644 3.5006-3.638z" fill="url(#z)"/><path d="m10.8131 15.3464c.1081.1598.1713.3525.1713.5599v6.1562c0 .2075-.0632.4001-.1713.5599-1.94576-.0736-3.5006-1.6742-3.5006-3.638 0-1.9637 1.55484-3.5644 3.5006-3.638z" fill="url(#A)"/><path d="m10.8131 15.3464c.1081.1598.1713.3525.1713.5599v6.1562c0 .2075-.0632.4001-.1713.5599-1.94576-.0736-3.5006-1.6742-3.5006-3.638 0-1.9637 1.55484-3.5644 3.5006-3.638z" fill="url(#B)"/><path d="m21.0156 20.7646v-3.123c.0413-.0032.0829-.0049.125-.0049.8651 0 1.5664.7013 1.5664 1.5664s-.7013 1.5664-1.5664 1.5664c-.0421 0-.0837-.0016-.125-.0049z" fill="url(#D)"/><path d="m10.9844 20.7646v-3.123c-.0413-.0032-.0829-.0049-.125-.0049-.86514 0-1.56643.7013-1.56643 1.5664s.70129 1.5664 1.56643 1.5664c.0421 0 .0837-.0016.125-.0049z" fill="url(#E)"/><g filter="url(#c)"><path d="m21.0156 20.5654v-3.123c.0413-.0033.0829-.0049.125-.0049.8651 0 1.5664.7013 1.5664 1.5664s-.7013 1.5664-1.5664 1.5664c-.0421 0-.0837-.0016-.125-.0049z" fill="#9a989e"/></g><g filter="url(#d)"><path d="m10.9844 20.5654v-3.123c-.0413-.0033-.0829-.0049-.125-.0049-.86514 0-1.56643.7013-1.56643 1.5664s.70129 1.5664 1.56643 1.5664c.0421 0 .0837-.0016.125-.0049z" fill="#9a989e"/><path d="m10.9844 20.5654v-3.123c-.0413-.0033-.0829-.0049-.125-.0049-.86514 0-1.56643.7013-1.56643 1.5664s.70129 1.5664 1.56643 1.5664c.0421 0 .0837-.0016.125-.0049z" fill="url(#F)"/></g><path d="m25.4297 23.0625h-.4658c1.1167-.9293 1.8457-2.3085 1.9087-3.8594.0029.0726.0044.1455.0044.2187 0 1.4097-.5501 2.6909-1.4473 3.6407z" fill="url(#G)"/><path d="m6.57025 23.0625h.46588c-1.11673-.9293-1.84576-2.3085-1.90869-3.8594-.00293.0726-.00442.1455-.00442.2187 0 1.4097.55005 2.6909 1.44723 3.6407z" fill="url(#H)"/><g filter="url(#e)"><path d="m15.7603 11.4771-1.3109 1.9047c-.1142.1658.0046.3917.2059.3917h2.6985c.2012 0 .3199-.2254.2063-.3913l-1.3052-1.9046c-.119-.1737-.3752-.174-.4946-.0005z" fill="#504060"/></g><path d="m15.7397 11.4629-1.3109 1.9047c-.1256.1824.005.4309.2265.4309h2.6985c.2213 0 .3519-.248.2269-.4305l-1.3051-1.9045c-.129-.1882-.4065-.1885-.5359-.0006z" stroke="url(#I)" stroke-width=".05"/></svg>