<svg fill="none" height="32" viewBox="0 0 32 32" width="32" xmlns="http://www.w3.org/2000/svg" xmlns:xlink="http://www.w3.org/1999/xlink"><filter id="a" color-interpolation-filters="sRGB" filterUnits="userSpaceOnUse" height="27.8699" width="28.9375" x="2.07959" y="3.05981"><feFlood flood-opacity="0" result="BackgroundImageFix"/><feBlend in="SourceGraphic" in2="BackgroundImageFix" mode="normal" result="shape"/><feColorMatrix in="SourceAlpha" result="hardAlpha" type="matrix" values="0 0 0 0 0 0 0 0 0 0 0 0 0 0 0 0 0 0 127 0"/><feOffset dx="1" dy="1"/><feGaussianBlur stdDeviation="1"/><feComposite in2="hardAlpha" k2="-1" k3="1" operator="arithmetic"/><feColorMatrix type="matrix" values="0 0 0 0 0.219608 0 0 0 0 0.658824 0 0 0 0 0.352941 0 0 0 1 0"/><feBlend in2="shape" mode="normal" result="effect1_innerShadow_3987_23481"/></filter><filter id="b" color-interpolation-filters="sRGB" filterUnits="userSpaceOnUse" height="5.19794" width="8.37775" x="17.8196" y="3.05981"><feFlood flood-opacity="0" result="BackgroundImageFix"/><feBlend in="SourceGraphic" in2="BackgroundImageFix" mode="normal" result="shape"/><feColorMatrix in="SourceAlpha" result="hardAlpha" type="matrix" values="0 0 0 0 0 0 0 0 0 0 0 0 0 0 0 0 0 0 127 0"/><feOffset dx=".25" dy=".5"/><feGaussianBlur stdDeviation=".375"/><feComposite in2="hardAlpha" k2="-1" k3="1" operator="arithmetic"/><feColorMatrix type="matrix" values="0 0 0 0 0.705882 0 0 0 0 0.705882 0 0 0 0 0.709804 0 0 0 1 0"/><feBlend in2="shape" mode="normal" result="effect1_innerShadow_3987_23481"/></filter><filter id="c" color-interpolation-filters="sRGB" filterUnits="userSpaceOnUse" height="3.38811" width="27.9219" x="2.09521" y="26.7573"><feFlood flood-opacity="0" result="BackgroundImageFix"/><feBlend in="SourceGraphic" in2="BackgroundImageFix" mode="normal" result="shape"/><feColorMatrix in="SourceAlpha" result="hardAlpha" type="matrix" values="0 0 0 0 0 0 0 0 0 0 0 0 0 0 0 0 0 0 127 0"/><feOffset dy=".2"/><feGaussianBlur stdDeviation=".5"/><feComposite in2="hardAlpha" k2="-1" k3="1" operator="arithmetic"/><feColorMatrix type="matrix" values="0 0 0 0 0.47451 0 0 0 0 0.258824 0 0 0 0 0.25098 0 0 0 1 0"/><feBlend in2="shape" mode="normal" result="effect1_innerShadow_3987_23481"/></filter><filter id="d" color-interpolation-filters="sRGB" filterUnits="userSpaceOnUse" height="9.9375" width="9.9375" x="2.10376" y="20.0078"><feFlood flood-opacity="0" result="BackgroundImageFix"/><feBlend in="SourceGraphic" in2="BackgroundImageFix" mode="normal" result="shape"/><feColorMatrix in="SourceAlpha" result="hardAlpha" type="matrix" values="0 0 0 0 0 0 0 0 0 0 0 0 0 0 0 0 0 0 127 0"/><feOffset/><feGaussianBlur stdDeviation=".25"/><feComposite in2="hardAlpha" k2="-1" k3="1" operator="arithmetic"/><feColorMatrix type="matrix" values="0 0 0 0 0.227451 0 0 0 0 0.156863 0 0 0 0 0.27451 0 0 0 1 0"/><feBlend in2="shape" mode="normal" result="effect1_innerShadow_3987_23481"/></filter><filter id="e" color-interpolation-filters="sRGB" filterUnits="userSpaceOnUse" height="10.4094" width="10.4094" x="1.86782" y="19.7719"><feFlood flood-opacity="0" result="BackgroundImageFix"/><feBlend in="SourceGraphic" in2="BackgroundImageFix" mode="normal" result="shape"/><feGaussianBlur result="effect1_foregroundBlur_3987_23481" stdDeviation=".25"/></filter><filter id="f" color-interpolation-filters="sRGB" filterUnits="userSpaceOnUse" height="10.0375" width="10.0375" x="20.0491" y="19.9078"><feFlood flood-opacity="0" result="BackgroundImageFix"/><feBlend in="SourceGraphic" in2="BackgroundImageFix" mode="normal" result="shape"/><feColorMatrix in="SourceAlpha" result="hardAlpha" type="matrix" values="0 0 0 0 0 0 0 0 0 0 0 0 0 0 0 0 0 0 127 0"/><feOffset dx=".1" dy="-.1"/><feGaussianBlur stdDeviation=".2"/><feComposite in2="hardAlpha" k2="-1" k3="1" operator="arithmetic"/><feColorMatrix type="matrix" values="0 0 0 0 0.152941 0 0 0 0 0.0862745 0 0 0 0 0.164706 0 0 0 1 0"/><feBlend in2="shape" mode="normal" result="effect1_innerShadow_3987_23481"/></filter><filter id="g" color-interpolation-filters="sRGB" filterUnits="userSpaceOnUse" height="4.07656" width="9.1875" x="16.6819" y="22.8633"><feFlood flood-opacity="0" result="BackgroundImageFix"/><feBlend in="SourceGraphic" in2="BackgroundImageFix" mode="normal" result="shape"/><feColorMatrix in="SourceAlpha" result="hardAlpha" type="matrix" values="0 0 0 0 0 0 0 0 0 0 0 0 0 0 0 0 0 0 127 0"/><feOffset dx=".25" dy="-.25"/><feGaussianBlur stdDeviation=".25"/><feComposite in2="hardAlpha" k2="-1" k3="1" operator="arithmetic"/><feColorMatrix type="matrix" values="0 0 0 0 0.701961 0 0 0 0 0.341176 0 0 0 0 0.254902 0 0 0 1 0"/><feBlend in2="shape" mode="normal" result="effect1_innerShadow_3987_23481"/><feColorMatrix in="SourceAlpha" result="hardAlpha" type="matrix" values="0 0 0 0 0 0 0 0 0 0 0 0 0 0 0 0 0 0 127 0"/><feOffset dx=".25" dy=".1"/><feGaussianBlur stdDeviation=".25"/><feComposite in2="hardAlpha" k2="-1" k3="1" operator="arithmetic"/><feColorMatrix type="matrix" values="0 0 0 0 0.894118 0 0 0 0 0.490196 0 0 0 0 0.196078 0 0 0 1 0"/><feBlend in2="effect1_innerShadow_3987_23481" mode="normal" result="effect2_innerShadow_3987_23481"/></filter><filter id="h" color-interpolation-filters="sRGB" filterUnits="userSpaceOnUse" height="2.18125" width="4.03447" x="13.5444" y="23.0758"><feFlood flood-opacity="0" result="BackgroundImageFix"/><feBlend in="SourceGraphic" in2="BackgroundImageFix" mode="normal" result="shape"/><feColorMatrix in="SourceAlpha" result="hardAlpha" type="matrix" values="0 0 0 0 0 0 0 0 0 0 0 0 0 0 0 0 0 0 127 0"/><feOffset dx=".1" dy="-.15"/><feGaussianBlur stdDeviation=".125"/><feComposite in2="hardAlpha" k2="-1" k3="1" operator="arithmetic"/><feColorMatrix type="matrix" values="0 0 0 0 0.27451 0 0 0 0 0.188235 0 0 0 0 0.52549 0 0 0 1 0"/><feBlend in2="shape" mode="normal" result="effect1_innerShadow_3987_23481"/></filter><filter id="i" color-interpolation-filters="sRGB" filterUnits="userSpaceOnUse" height="8.62047" width="3.57217" x="15.2175" y="15.4858"><feFlood flood-opacity="0" result="BackgroundImageFix"/><feBlend in="SourceGraphic" in2="BackgroundImageFix" mode="normal" result="shape"/><feColorMatrix in="SourceAlpha" result="hardAlpha" type="matrix" values="0 0 0 0 0 0 0 0 0 0 0 0 0 0 0 0 0 0 127 0"/><feOffset dx=".1" dy=".2"/><feGaussianBlur stdDeviation=".1"/><feComposite in2="hardAlpha" k2="-1" k3="1" operator="arithmetic"/><feColorMatrix type="matrix" values="0 0 0 0 0.333333 0 0 0 0 0.262745 0 0 0 0 0.254902 0 0 0 1 0"/><feBlend in2="shape" mode="normal" result="effect1_innerShadow_3987_23481"/></filter><filter id="j" color-interpolation-filters="sRGB" filterUnits="userSpaceOnUse" height="7.67023" width="6.66827" x="16.5959" y="10.3516"><feFlood flood-opacity="0" result="BackgroundImageFix"/><feBlend in="SourceGraphic" in2="BackgroundImageFix" mode="normal" result="shape"/><feColorMatrix in="SourceAlpha" result="hardAlpha" type="matrix" values="0 0 0 0 0 0 0 0 0 0 0 0 0 0 0 0 0 0 127 0"/><feOffset dx=".25" dy="-.25"/><feGaussianBlur stdDeviation=".625"/><feComposite in2="hardAlpha" k2="-1" k3="1" operator="arithmetic"/><feColorMatrix type="matrix" values="0 0 0 0 0.482353 0 0 0 0 0.360784 0 0 0 0 0.556863 0 0 0 1 0"/><feBlend in2="shape" mode="normal" result="effect1_innerShadow_3987_23481"/></filter><filter id="k" color-interpolation-filters="sRGB" filterUnits="userSpaceOnUse" height="5.86945" width="7.97131" x="15.0544" y="7.25562"><feFlood flood-opacity="0" result="BackgroundImageFix"/><feBlend in="SourceGraphic" in2="BackgroundImageFix" mode="normal" result="shape"/><feColorMatrix in="SourceAlpha" result="hardAlpha" type="matrix" values="0 0 0 0 0 0 0 0 0 0 0 0 0 0 0 0 0 0 127 0"/><feOffset dx="1"/><feGaussianBlur stdDeviation=".75"/><feComposite in2="hardAlpha" k2="-1" k3="1" operator="arithmetic"/><feColorMatrix type="matrix" values="0 0 0 0 0.85098 0 0 0 0 0.286275 0 0 0 0 0.317647 0 0 0 1 0"/><feBlend in2="shape" mode="normal" result="effect1_innerShadow_3987_23481"/></filter><filter id="l" color-interpolation-filters="sRGB" filterUnits="userSpaceOnUse" height="4.2594" width="6.00464" x="6.95068" y="11.0344"><feFlood flood-opacity="0" result="BackgroundImageFix"/><feBlend in="SourceGraphic" in2="BackgroundImageFix" mode="normal" result="shape"/><feColorMatrix in="SourceAlpha" result="hardAlpha" type="matrix" values="0 0 0 0 0 0 0 0 0 0 0 0 0 0 0 0 0 0 127 0"/><feOffset dx="-.25"/><feGaussianBlur stdDeviation=".5"/><feComposite in2="hardAlpha" k2="-1" k3="1" operator="arithmetic"/><feColorMatrix type="matrix" values="0 0 0 0 0.576471 0 0 0 0 0.505882 0 0 0 0 0.529412 0 0 0 1 0"/><feBlend in2="shape" mode="normal" result="effect1_innerShadow_3987_23481"/></filter><filter id="m" color-interpolation-filters="sRGB" filterUnits="userSpaceOnUse" height="2.91486" width="3.13672" x="6.95142" y="12.6289"><feFlood flood-opacity="0" result="BackgroundImageFix"/><feBlend in="SourceGraphic" in2="BackgroundImageFix" mode="normal" result="shape"/><feColorMatrix in="SourceAlpha" result="hardAlpha" type="matrix" values="0 0 0 0 0 0 0 0 0 0 0 0 0 0 0 0 0 0 127 0"/><feOffset dx="-.25" dy=".25"/><feGaussianBlur stdDeviation=".25"/><feComposite in2="hardAlpha" k2="-1" k3="1" operator="arithmetic"/><feColorMatrix type="matrix" values="0 0 0 0 0.164706 0 0 0 0 0.117647 0 0 0 0 0.231373 0 0 0 1 0"/><feBlend in2="shape" mode="normal" result="effect1_innerShadow_3987_23481"/></filter><filter id="n" color-interpolation-filters="sRGB" filterUnits="userSpaceOnUse" height="6.93665" width="10.2718" x="7.82767" y="7.59058"><feFlood flood-opacity="0" result="BackgroundImageFix"/><feBlend in="SourceGraphic" in2="BackgroundImageFix" mode="normal" result="shape"/><feColorMatrix in="SourceAlpha" result="hardAlpha" type="matrix" values="0 0 0 0 0 0 0 0 0 0 0 0 0 0 0 0 0 0 127 0"/><feOffset dx=".5" dy="-.5"/><feGaussianBlur stdDeviation=".375"/><feComposite in2="hardAlpha" k2="-1" k3="1" operator="arithmetic"/><feColorMatrix type="matrix" values="0 0 0 0 0.25098 0 0 0 0 0.12549 0 0 0 0 0.203922 0 0 0 1 0"/><feBlend in2="shape" mode="normal" result="effect1_innerShadow_3987_23481"/></filter><filter id="o" color-interpolation-filters="sRGB" filterUnits="userSpaceOnUse" height="6.37188" width="5.49573" x="17.742" y="10.7755"><feFlood flood-opacity="0" result="BackgroundImageFix"/><feBlend in="SourceGraphic" in2="BackgroundImageFix" mode="normal" result="shape"/><feGaussianBlur result="effect1_foregroundBlur_3987_23481" stdDeviation=".3"/></filter><filter id="p" color-interpolation-filters="sRGB" filterUnits="userSpaceOnUse" height="2.96935" width="2.96935" x="7.75571" y="11.9393"><feFlood flood-opacity="0" result="BackgroundImageFix"/><feBlend in="SourceGraphic" in2="BackgroundImageFix" mode="normal" result="shape"/><feGaussianBlur result="effect1_foregroundBlur_3987_23481" stdDeviation=".3"/></filter><filter id="q" color-interpolation-filters="sRGB" filterUnits="userSpaceOnUse" height="5.3151" width="5.82595" x="10.0692" y="4.37128"><feFlood flood-opacity="0" result="BackgroundImageFix"/><feBlend in="SourceGraphic" in2="BackgroundImageFix" mode="normal" result="shape"/><feColorMatrix in="SourceAlpha" result="hardAlpha" type="matrix" values="0 0 0 0 0 0 0 0 0 0 0 0 0 0 0 0 0 0 127 0"/><feOffset dx="-.25" dy="-.25"/><feGaussianBlur stdDeviation=".25"/><feComposite in2="hardAlpha" k2="-1" k3="1" operator="arithmetic"/><feColorMatrix type="matrix" values="0 0 0 0 0.278431 0 0 0 0 0.0980392 0 0 0 0 0.145098 0 0 0 1 0"/><feBlend in2="shape" mode="normal" result="effect1_innerShadow_3987_23481"/><feColorMatrix in="SourceAlpha" result="hardAlpha" type="matrix" values="0 0 0 0 0 0 0 0 0 0 0 0 0 0 0 0 0 0 127 0"/><feOffset dx=".25" dy=".15"/><feGaussianBlur stdDeviation=".15"/><feComposite in2="hardAlpha" k2="-1" k3="1" operator="arithmetic"/><feColorMatrix type="matrix" values="0 0 0 0 0.352941 0 0 0 0 0.278431 0 0 0 0 0.270588 0 0 0 1 0"/><feBlend in2="effect1_innerShadow_3987_23481" mode="normal" result="effect2_innerShadow_3987_23481"/></filter><filter id="r" color-interpolation-filters="sRGB" filterUnits="userSpaceOnUse" height="2.54397" width="2.75989" x="13.4214" y="4.0911"><feFlood flood-opacity="0" result="BackgroundImageFix"/><feBlend in="SourceGraphic" in2="BackgroundImageFix" mode="normal" result="shape"/><feColorMatrix in="SourceAlpha" result="hardAlpha" type="matrix" values="0 0 0 0 0 0 0 0 0 0 0 0 0 0 0 0 0 0 127 0"/><feOffset dx=".15" dy="-.1"/><feGaussianBlur stdDeviation=".15"/><feComposite in2="hardAlpha" k2="-1" k3="1" operator="arithmetic"/><feColorMatrix type="matrix" values="0 0 0 0 0.0431373 0 0 0 0 0.0156863 0 0 0 0 0.0196078 0 0 0 1 0"/><feBlend in2="shape" mode="normal" result="effect1_innerShadow_3987_23481"/></filter><filter id="s" color-interpolation-filters="sRGB" filterUnits="userSpaceOnUse" height="5.04703" width="5.95261" x="9.29492" y="1.80007"><feFlood flood-opacity="0" result="BackgroundImageFix"/><feBlend in="SourceGraphic" in2="BackgroundImageFix" mode="normal" result="shape"/><feColorMatrix in="SourceAlpha" result="hardAlpha" type="matrix" values="0 0 0 0 0 0 0 0 0 0 0 0 0 0 0 0 0 0 127 0"/><feOffset dy="-.15"/><feGaussianBlur stdDeviation=".3"/><feComposite in2="hardAlpha" k2="-1" k3="1" operator="arithmetic"/><feColorMatrix type="matrix" values="0 0 0 0 0.305882 0 0 0 0 0.556863 0 0 0 0 0.882353 0 0 0 1 0"/><feBlend in2="shape" mode="normal" result="effect1_innerShadow_3987_23481"/></filter><filter id="t" color-interpolation-filters="sRGB" filterUnits="userSpaceOnUse" height="1.36353" width="2.01711" x="11.2592" y="3.96222"><feFlood flood-opacity="0" result="BackgroundImageFix"/><feBlend in="SourceGraphic" in2="BackgroundImageFix" mode="normal" result="shape"/><feColorMatrix in="SourceAlpha" result="hardAlpha" type="matrix" values="0 0 0 0 0 0 0 0 0 0 0 0 0 0 0 0 0 0 127 0"/><feOffset/><feGaussianBlur stdDeviation=".25"/><feComposite in2="hardAlpha" k2="-1" k3="1" operator="arithmetic"/><feColorMatrix type="matrix" values="0 0 0 0 0.137255 0 0 0 0 0.482353 0 0 0 0 0.796078 0 0 0 1 0"/><feBlend in2="shape" mode="normal" result="effect1_innerShadow_3987_23481"/></filter><linearGradient id="u" gradientUnits="userSpaceOnUse" x1="9.69877" x2="28.0034" y1="21.0037" y2="8.81407"><stop offset="0" stop-color="#37c173"/><stop offset="1" stop-color="#36c571"/></linearGradient><linearGradient id="v" gradientUnits="userSpaceOnUse" x1="29.4114" x2="25.9516" y1="11.9922" y2="14.406"><stop offset=".163861" stop-color="#4cdd80"/><stop offset="1" stop-color="#36c871" stop-opacity="0"/></linearGradient><linearGradient id="w" gradientUnits="userSpaceOnUse" x1="21.2045" x2="24.9459" y1="7.00372" y2="4.91177"><stop offset="0" stop-color="#d7cfdf"/><stop offset="1" stop-color="#e2dce7"/></linearGradient><radialGradient id="x" cx="0" cy="0" gradientTransform="matrix(-3.22339976 1.83628404 -4.14127775 -7.2695691 25.1068 5.40879)" gradientUnits="userSpaceOnUse" r="1"><stop offset=".190301" stop-color="#ebeaed"/><stop offset="1" stop-color="#d9d1df" stop-opacity="0"/></radialGradient><radialGradient id="y" cx="0" cy="0" gradientTransform="matrix(4.42528675 4.18324972 -2.33904521 2.47437912 19.7965 26.7573)" gradientUnits="userSpaceOnUse" r="1"><stop offset="0" stop-color="#8a4c56"/><stop offset="1" stop-color="#8a4c56" stop-opacity="0"/></radialGradient><radialGradient id="z" cx="0" cy="0" gradientTransform="matrix(-5.87497859 7.81251861 -7.54119471 -5.67094425 10.3147 21.0625)" gradientUnits="userSpaceOnUse" r="1"><stop offset="0" stop-color="#32295b"/><stop offset="1" stop-color="#3c2150"/></radialGradient><linearGradient id="A" gradientUnits="userSpaceOnUse" x1="9.28345" x2="3.2522" y1="21.3125" y2="28.3437"><stop offset="0" stop-color="#302a5b"/><stop offset="1" stop-color="#302a5b" stop-opacity="0"/></linearGradient><linearGradient id="B" gradientUnits="userSpaceOnUse" x1="17.7522" x2="18.7209" y1="20.5156" y2="19.5098"><stop offset=".573276" stop-color="#381a27"/><stop offset="1" stop-color="#4a3939"/></linearGradient><linearGradient id="C" gradientUnits="userSpaceOnUse" x1="22.2678" x2="17.6741" y1="22.0838" y2="21.6249"><stop offset=".890666" stop-color="#615f76" stop-opacity="0"/><stop offset="1" stop-color="#615f76"/></linearGradient><radialGradient id="D" cx="0" cy="0" gradientTransform="matrix(-1.53126999 2.45311583 -.44454279 -.27748997 20.3459 20.9531)" gradientUnits="userSpaceOnUse" r="1"><stop offset="0" stop-color="#5d5c7e"/><stop offset="1" stop-color="#5d5c7e" stop-opacity="0"/></radialGradient><linearGradient id="E" gradientUnits="userSpaceOnUse" x1="11.5491" x2="10.6741" y1="14.9061" y2="14.6249"><stop offset="0" stop-color="#bfa8c7"/><stop offset="1" stop-color="#908590"/></linearGradient><radialGradient id="F" cx="0" cy="0" gradientTransform="matrix(1.07812374 -2.67187294 .30151132 .12166241 10.6272 16.5936)" gradientUnits="userSpaceOnUse" r="1"><stop offset="0" stop-color="#baa3b9"/><stop offset="1" stop-color="#baa3b9" stop-opacity="0"/></radialGradient><linearGradient id="G" gradientUnits="userSpaceOnUse" x1="9.78345" x2="8.5022" y1="19.8595" y2="19.3751"><stop offset=".146259" stop-color="#d4385b"/><stop offset="1" stop-color="#973c50"/></linearGradient><radialGradient id="H" cx="0" cy="0" gradientTransform="matrix(6.71875315 4.82812728 -1.31598798 1.83131012 10.2209 18.5156)" gradientUnits="userSpaceOnUse" r="1"><stop offset="0" stop-color="#ce3d5e"/><stop offset="1" stop-color="#932145"/></radialGradient><linearGradient id="I" gradientUnits="userSpaceOnUse" x1="13.0022" x2="13.3928" y1="21.9062" y2="21.4062"><stop offset="0" stop-color="#96275e"/><stop offset="1" stop-color="#96275e" stop-opacity="0"/><stop offset="1" stop-color="#9c2649" stop-opacity="0"/></linearGradient><radialGradient id="J" cx="0" cy="0" gradientTransform="matrix(-6.86715328 7.00003073 -6.75692924 -6.62866645 29.2522 21.875)" gradientUnits="userSpaceOnUse" r="1"><stop offset=".427322" stop-color="#373c67"/><stop offset="1" stop-color="#38144f"/></radialGradient><linearGradient id="K" gradientUnits="userSpaceOnUse" x1="20.0491" x2="27.8039" y1="27.4174" y2="24.9766"><stop offset="0" stop-color="#352542"/><stop offset="1" stop-color="#352542" stop-opacity="0"/></linearGradient><linearGradient id="L" gradientUnits="userSpaceOnUse" x1="23.8303" x2="22.7678" y1="21.8438" y2="22.5938"><stop offset="0" stop-color="#fd5a60"/><stop offset="1" stop-color="#af253c"/></linearGradient><linearGradient id="M" gradientUnits="userSpaceOnUse" x1="19.6272" x2="18.6116" y1="20.6173" y2="20.4688"><stop offset="0" stop-color="#e5435f"/><stop offset="1" stop-color="#a62f2f"/></linearGradient><radialGradient id="N" cx="0" cy="0" gradientTransform="matrix(-1.0937525 4.48437198 -.42827913 -.10445863 20.1584 17.4219)" gradientUnits="userSpaceOnUse" r="1"><stop offset="0" stop-color="#e44354"/><stop offset="1" stop-color="#e44354" stop-opacity="0"/></radialGradient><radialGradient id="O" cx="0" cy="0" gradientTransform="matrix(-.03125031 -1.06250053 1.65481439 -.04867146 18.5022 23.7501)" gradientUnits="userSpaceOnUse" r="1"><stop offset="0" stop-color="#ac2735"/><stop offset="1" stop-color="#ac2735" stop-opacity="0"/></radialGradient><radialGradient id="P" cx="0" cy="0" gradientTransform="matrix(2.18359331 .43749824 -.55377075 2.76391991 13.2874 16.75)" gradientUnits="userSpaceOnUse" r="1"><stop offset=".114285" stop-color="#4d3938"/><stop offset="1" stop-color="#2f1b1b"/></radialGradient><radialGradient id="Q" cx="0" cy="0" gradientTransform="matrix(1.21875062 .45312581 -.35000106 .94138095 15.7834 17.1563)" gradientUnits="userSpaceOnUse" r="1"><stop offset=".345681" stop-color="#291618"/><stop offset="1" stop-color="#291618" stop-opacity="0"/></radialGradient><linearGradient id="R" gradientUnits="userSpaceOnUse" x1="14.5647" x2="14.9866" y1="14.875" y2="15.5625"><stop offset="0" stop-color="#41302f"/><stop offset="1" stop-color="#41302f" stop-opacity="0"/></linearGradient><radialGradient id="S" cx="0" cy="0" gradientTransform="matrix(-2.31251357 1.68748882 -.72630839 -.99532394 18.5022 13.8437)" gradientUnits="userSpaceOnUse" r="1"><stop offset=".254766" stop-color="#4f414e"/><stop offset="1" stop-color="#564a5a"/></radialGradient><linearGradient id="T" gradientUnits="userSpaceOnUse" x1="16.635" x2="17.0022" y1="13.7422" y2="14.2734"><stop offset="0" stop-color="#72696b"/><stop offset="1" stop-color="#72696b" stop-opacity="0"/></linearGradient><linearGradient id="U" gradientUnits="userSpaceOnUse" x1="25.3459" x2="16.6819" y1="24.9766" y2="24.9766"><stop offset="0" stop-color="#f7b14e"/><stop offset="1" stop-color="#e8774d"/></linearGradient><radialGradient id="V" cx="0" cy="0" gradientTransform="matrix(-.867187 0 0 -.96875 25.6194 24.8125)" gradientUnits="userSpaceOnUse" r="1"><stop offset="0" stop-color="#ffd359"/><stop offset="1" stop-color="#ffd359" stop-opacity="0"/></radialGradient><radialGradient id="W" cx="0" cy="0" gradientTransform="matrix(1.56250158 -.65625048 .66796813 1.59040076 17.7209 25.1719)" gradientUnits="userSpaceOnUse" r="1"><stop offset=".470418" stop-color="#d8cfe2"/><stop offset="1" stop-color="#c5bfcb"/></radialGradient><radialGradient id="X" cx="0" cy="0" gradientTransform="matrix(-1.56250016 .85938242 -.85938242 -1.56250016 18.9241 24.7031)" gradientUnits="userSpaceOnUse" r="1"><stop offset=".632246" stop-color="#e2dfe5" stop-opacity="0"/><stop offset="1" stop-color="#e2dfe5"/></radialGradient><linearGradient id="Y" gradientUnits="userSpaceOnUse" x1="17.479" x2="16.7209" y1="24.8438" y2="24.8438"><stop offset="0" stop-color="#605c92"/><stop offset="1" stop-color="#605c92" stop-opacity="0"/></linearGradient><radialGradient id="Z" cx="0" cy="0" gradientTransform="matrix(-1.10939185 -1.99999616 6.41983308 -3.56106207 16.2991 25.5156)" gradientUnits="userSpaceOnUse" r="1"><stop offset=".300652" stop-color="#5c4f86" stop-opacity="0"/><stop offset=".942972" stop-color="#493b63"/></radialGradient><linearGradient id="aa" gradientUnits="userSpaceOnUse" x1="15.565" x2="13.9603" y1="9.37521" y2="9.30544"><stop offset="0" stop-color="#513b37"/><stop offset="1" stop-color="#2f191c"/></linearGradient><radialGradient id="ab" cx="0" cy="0" gradientTransform="matrix(.03131881 1.42110493 -.52543542 .01157973 14.9788 8.89696)" gradientUnits="userSpaceOnUse" r="1"><stop offset=".180159" stop-color="#544241"/><stop offset="1" stop-color="#544241" stop-opacity="0"/></radialGradient><radialGradient id="ac" cx="0" cy="0" gradientTransform="matrix(-.74999348 -8.78125028 2.5288134 -.21598218 17.9397 23.9063)" gradientUnits="userSpaceOnUse" r="1"><stop offset=".122469" stop-color="#513938"/><stop offset="1" stop-color="#442d2c"/></radialGradient><radialGradient id="ad" cx="0" cy="0" gradientTransform="matrix(-1.68750309 .06249727 -.11168168 -3.01554262 18.8459 17.6251)" gradientUnits="userSpaceOnUse" r="1"><stop offset=".284247" stop-color="#3f202e"/><stop offset="1" stop-color="#3f202e" stop-opacity="0"/></radialGradient><radialGradient id="ae" cx="0" cy="0" gradientTransform="matrix(5.12499803 -4.92969106 2.61319214 2.71672289 16.8147 15.5312)" gradientUnits="userSpaceOnUse" r="1"><stop offset=".148384" stop-color="#726b71"/><stop offset="1" stop-color="#a3a1a2"/></radialGradient><radialGradient id="af" cx="0" cy="0" gradientTransform="matrix(2.59374628 -.09374984 .01804196 .49916105 18.2366 13.8125)" gradientUnits="userSpaceOnUse" r="1"><stop offset=".219629" stop-color="#736e75"/><stop offset="1" stop-color="#736e75" stop-opacity="0"/></radialGradient><radialGradient id="ag" cx="0" cy="0" gradientTransform="matrix(-3.49999043 -4.06251234 1.7090785 -1.47242836 21.1272 11.5)" gradientUnits="userSpaceOnUse" r="1"><stop offset="0" stop-color="#ff8e59"/><stop offset="1" stop-color="#ff6030"/></radialGradient><radialGradient id="ah" cx="0" cy="0" gradientTransform="matrix(3.25232 0 0 1.29925 10.078 12.9375)" gradientUnits="userSpaceOnUse" r="1"><stop offset=".25377" stop-color="#8c5ea8"/><stop offset="1" stop-color="#8c5ea8" stop-opacity="0"/></radialGradient><radialGradient id="ai" cx="0" cy="0" gradientTransform="matrix(-1.03442913 .40624249 -.45267741 -1.15266796 17.5991 8.75006)" gradientUnits="userSpaceOnUse" r="1"><stop offset="0" stop-color="#604f4d"/><stop offset="1" stop-color="#604f4d" stop-opacity="0"/></radialGradient><linearGradient id="aj"><stop offset=".511668" stop-color="#3c212e"/><stop offset="1" stop-color="#492f31"/></linearGradient><radialGradient id="ak" cx="0" cy="0" gradientTransform="matrix(1.68979397 -1.43022763 1.27507919 1.50648825 7.41094 14.0124)" gradientUnits="userSpaceOnUse" r="1" xlink:href="#aj"/><linearGradient id="al"><stop offset=".679691" stop-color="#584744" stop-opacity="0"/><stop offset="1" stop-color="#584744"/></linearGradient><radialGradient id="am" cx="0" cy="0" gradientTransform="matrix(-1.31056149 -.2410769 .37304097 -2.02795512 8.44125 13.8778)" gradientUnits="userSpaceOnUse" r="1" xlink:href="#al"/><radialGradient id="an" cx="0" cy="0" gradientTransform="matrix(5.49999736 -1.43750185 2.00474707 7.67032308 17.3772 14.6876)" gradientUnits="userSpaceOnUse" r="1"><stop offset=".624989" stop-color="#afa6a9" stop-opacity="0"/><stop offset=".90475" stop-color="#afa6a9"/></radialGradient><radialGradient id="ao" cx="0" cy="0" gradientTransform="matrix(1.09826207 -1.28234694 1.06577046 .91277582 7.63614 14.5087)" gradientUnits="userSpaceOnUse" r="1" xlink:href="#aj"/><radialGradient id="ap" cx="0" cy="0" gradientTransform="matrix(-.81595845 -.17382436 .37209174 -1.74665622 8.28621 14.3649)" gradientUnits="userSpaceOnUse" r="1" xlink:href="#al"/><radialGradient id="aq" cx="0" cy="0" gradientTransform="matrix(.8593763 -1.30714651 1.07140993 .70439257 8.19971 14.9219)" gradientUnits="userSpaceOnUse" r="1" xlink:href="#aj"/><radialGradient id="ar" cx="0" cy="0" gradientTransform="matrix(-.74999978 -.07812679 .17331623 -1.66379726 8.76929 14.7212)" gradientUnits="userSpaceOnUse" r="1" xlink:href="#al"/><radialGradient id="as" cx="0" cy="0" gradientTransform="matrix(.69057117 .33471735 -.42105706 .86870271 10.7726 7.79891)" gradientUnits="userSpaceOnUse" r="1"><stop offset=".514962" stop-color="#463736"/><stop offset="1" stop-color="#483637"/></radialGradient><radialGradient id="at" cx="0" cy="0" gradientTransform="matrix(3.12631796 -1.1402292 1.18260026 3.24249235 11.549 7.79766)" gradientUnits="userSpaceOnUse" r="1"><stop offset=".164144" stop-color="#402e2d"/><stop offset="1" stop-color="#41292d"/></radialGradient><radialGradient id="au" cx="0" cy="0" gradientTransform="matrix(1.09637802 1.5731009 -1.26937897 .88469799 13.0767 5.02477)" gradientUnits="userSpaceOnUse" r="1"><stop offset="0" stop-color="#2b1a25"/><stop offset="1" stop-color="#2b1a25" stop-opacity="0"/></radialGradient><radialGradient id="av" cx="0" cy="0" gradientTransform="matrix(.15624958 1.7812501 -1.56042804 .13687928 14.4155 5.69777)" gradientUnits="userSpaceOnUse" r="1"><stop offset="0" stop-color="#5a4c4c"/><stop offset="1" stop-color="#5a4c4c" stop-opacity="0"/></radialGradient><radialGradient id="aw" cx="0" cy="0" gradientTransform="matrix(-1.04811789 .47679351 -.15146611 -.33296246 15.2784 5.73686)" gradientUnits="userSpaceOnUse" r="1"><stop offset=".196564" stop-color="#3e3c3d"/><stop offset="1" stop-color="#1d191c" stop-opacity="0"/></radialGradient><linearGradient id="ax" gradientUnits="userSpaceOnUse" x1="11.141" x2="11.3816" y1="7.16222" y2="7.02061"><stop offset=".242014" stop-color="#5f5451"/><stop offset=".667004" stop-color="#383838"/></linearGradient><radialGradient id="ay" cx="0" cy="0" gradientTransform="matrix(.10569249 .95582114 -.95582114 .10569249 13.4846 5.56212)" gradientUnits="userSpaceOnUse" r="1"><stop offset=".392003" stop-color="#402d2f"/><stop offset="1" stop-color="#2e1018"/></radialGradient><radialGradient id="az" cx="0" cy="0" gradientTransform="matrix(-.4597409 -.44703166 .34251829 -.35225619 14.018 6.15959)" gradientUnits="userSpaceOnUse" r="1"><stop offset="0" stop-color="#605251"/><stop offset="1" stop-color="#605251" stop-opacity="0"/></radialGradient><linearGradient id="aA" gradientUnits="userSpaceOnUse" x1="13.7971" x2="13.3743" y1="6.55821" y2="6.77204"><stop offset="0" stop-color="#37234c"/><stop offset="1" stop-color="#37234c" stop-opacity="0"/></linearGradient><linearGradient id="aB" gradientUnits="userSpaceOnUse" x1="13.6367" x2="14.1672" y1="8.3801" y2="8.06526"><stop offset=".324467" stop-color="#72687c"/><stop offset="1" stop-color="#72687c" stop-opacity="0"/></linearGradient><radialGradient id="aC" cx="0" cy="0" gradientTransform="matrix(.19006679 -.08661242 .50768392 1.11408798 13.4269 6.36856)" gradientUnits="userSpaceOnUse" r="1"><stop offset="0" stop-color="#564975"/><stop offset="1" stop-color="#4d3a6e" stop-opacity="0"/></radialGradient><radialGradient id="aD" cx="0" cy="0" gradientTransform="matrix(.98871364 2.17456093 -2.55588605 1.16209179 11.9275 3.1811)" gradientUnits="userSpaceOnUse" r="1"><stop offset=".0445853" stop-color="#4fbdff"/><stop offset=".918703" stop-color="#52abe4"/></radialGradient><radialGradient id="aE" cx="0" cy="0" gradientTransform="matrix(-.29129304 -.62119478 1.59299423 -.74699296 12.4181 4.95079)" gradientUnits="userSpaceOnUse" r="1"><stop offset=".217657" stop-color="#4b89d0"/><stop offset="1" stop-color="#337bcd"/></radialGradient><g filter="url(#a)"><path d="m3.94678 16.711-1.86719 1.9375v11.2812h27.93751v-16.5312l-6.1401-9.30541c-.9098-1.37874-2.9331-1.37747-3.8411.00241l-8.9157 13.5489c-.1578.2398-.4847.2978-.7154.1269l-2.04787-1.5174c-1.31971-.9796-3.19922-.8007-4.41015.4571z" fill="url(#u)"/><path d="m3.94678 16.711-1.86719 1.9375v11.2812h27.93751v-16.5312l-6.1401-9.30541c-.9098-1.37874-2.9331-1.37747-3.8411.00241l-8.9157 13.5489c-.1578.2398-.4847.2978-.7154.1269l-2.04787-1.5174c-1.31971-.9796-3.19922-.8007-4.41015.4571z" fill="url(#v)"/></g><g filter="url(#b)"><path d="m17.8196 7.46349 2.2471-1.31479c.1695-.09917.3859-.06063.5107.09097l1.0702 1.29953c.24.29143.6864.29143.9264 0l1.0675-1.29637c.126-.15298.345-.19064.5149-.08855l1.7909 1.07652-2.0704-3.13771c-.9097-1.37874-2.933-1.37747-3.841.00241z" fill="url(#w)"/></g><path d="m17.8196 7.46349 2.2471-1.31479c.1695-.09917.3859-.06063.5107.09097l1.0702 1.29953c.24.29143.6864.29143.9264 0l1.0675-1.29637c.126-.15298.345-.19064.5149-.08855l1.7909 1.07652-2.0704-3.13771c-.9097-1.37874-2.933-1.37747-3.841.00241z" fill="url(#x)"/><g filter="url(#c)"><path d="m5.71164 27.1155-3.61643 2.1581v.6718h27.92189v-.6718l-3.5316-2.1505c-.7427-.4522-1.6718-.4674-2.4288-.0397l-.8177.462c-.5654.3195-1.2507.3445-1.8379.0672l-1.3183-.6226c-.6236-.2945-1.3478-.2868-1.965.021l-1.1765.5868c-.5754.2869-1.2537.2798-1.8229-.0193l-1.1258-.5916c-.5553-.2918-1.2153-.3062-1.7828-.0388l-1.4205.6692c-.5828.2747-1.26229.2517-1.82524-.0618l-.85514-.476c-.74828-.4166-1.66185-.4029-2.39728.036z" fill="#97595f"/><path d="m5.71164 27.1155-3.61643 2.1581v.6718h27.92189v-.6718l-3.5316-2.1505c-.7427-.4522-1.6718-.4674-2.4288-.0397l-.8177.462c-.5654.3195-1.2507.3445-1.8379.0672l-1.3183-.6226c-.6236-.2945-1.3478-.2868-1.965.021l-1.1765.5868c-.5754.2869-1.2537.2798-1.8229-.0193l-1.1258-.5916c-.5553-.2918-1.2153-.3062-1.7828-.0388l-1.4205.6692c-.5828.2747-1.26229.2517-1.82524-.0618l-.85514-.476c-.74828-.4166-1.66185-.4029-2.39728.036z" fill="url(#y)"/></g><g filter="url(#d)"><path clip-rule="evenodd" d="m7.07251 21.0078c-2.19188 0-3.96875 1.7769-3.96875 3.9688 0 2.1918 1.77687 3.9687 3.96875 3.9687s3.96879-1.7769 3.96879-3.9687c0-2.1919-1.77691-3.9688-3.96879-3.9688zm-4.96875 3.9688c0-2.7442 2.22458-4.9688 4.96875-4.9688 2.74416 0 4.96879 2.2246 4.96879 4.9688 0 2.7441-2.22463 4.9687-4.96879 4.9687-2.74417 0-4.96875-2.2246-4.96875-4.9687z" fill="url(#z)" fill-rule="evenodd"/></g><g filter="url(#e)"><circle cx="7.0725" cy="24.9766" r="4.55468" stroke="url(#A)" stroke-width=".3"/></g><path d="m19.2036 20.1328-1.8264-1.9883-.4236 2.0586 1.001.7056z" fill="url(#B)"/><path d="m17.8981 20.8659-.3005 1.9807c-.0662.4758-.0394.8872.3648 1.1669.1015.0702.2373.031.3065-.0712l1.9637-2.9017c.0619-.0915.0379-.2158-.0536-.2777l-.9519-.6442z" fill="#413354"/><path d="m17.8981 20.8659-.3005 1.9807c-.0662.4758-.0394.8872.3648 1.1669.1015.0702.2373.031.3065-.0712l1.9637-2.9017c.0619-.0915.0379-.2158-.0536-.2777l-.9519-.6442z" fill="url(#C)"/><path d="m17.8981 20.8659-.3005 1.9807c-.0662.4758-.0394.8872.3648 1.1669.1015.0702.2373.031.3065-.0712l1.9637-2.9017c.0619-.0915.0379-.2158-.0536-.2777l-.9519-.6442z" fill="url(#D)"/><g clip-rule="evenodd" fill-rule="evenodd"><path d="m12.5048 11.6001c.2553.1053.3769.3976.2716.6529l-2.5398 6.2469c-.1053.2553-.39759.3769-.65288.2716s-.3769-.3975-.27163-.6528l2.53981-6.2469c.1053-.2553.3976-.3769.6529-.2717z" fill="url(#E)"/><path d="m12.5048 11.6001c.2553.1053.3769.3976.2716.6529l-2.5398 6.2469c-.1053.2553-.39759.3769-.65288.2716s-.3769-.3975-.27163-.6528l2.53981-6.2469c.1053-.2553.3976-.3769.6529-.2717z" fill="url(#F)"/><path d="m10.5708 16.3352c.2809.1155.4151.4368.2996.7178l-3.28911 8c-.1155.2809-.43688.415-.71782.2995s-.41505-.4369-.29955-.7178l3.28906-8c.11551-.2809.43692-.415.71782-.2995z" fill="url(#G)"/><path d="m9.64674 18.5625c.10169-.222.43086-.4655.67266-.2817l6.25 4.75c.2418.1838.2889.5289.1051.7707s-.5289.2889-.7707.1051l-6.08112-4.6098c-.24184-.1838-.30484-.4531-.17594-.7343z" fill="url(#H)"/><path d="m9.64674 18.5625c.10169-.222.43086-.4655.67266-.2817l6.25 4.75c.2418.1838.2889.5289.1051.7707s-.5289.2889-.7707.1051l-6.08112-4.6098c-.24184-.1838-.30484-.4531-.17594-.7343z" fill="url(#I)"/><g filter="url(#f)"><path d="m25.0178 21.0078c-2.1919 0-3.9687 1.7769-3.9687 3.9688 0 2.1918 1.7768 3.9687 3.9687 3.9687s3.9688-1.7769 3.9688-3.9687c0-2.1919-1.7769-3.9688-3.9688-3.9688zm-4.9687 3.9688c0-2.7442 2.2246-4.9688 4.9687-4.9688 2.7442 0 4.9688 2.2246 4.9688 4.9688 0 2.7441-2.2246 4.9687-4.9688 4.9687-2.7441 0-4.9687-2.2246-4.9687-4.9687z" fill="url(#J)"/><path d="m25.0178 21.0078c-2.1919 0-3.9687 1.7769-3.9687 3.9688 0 2.1918 1.7768 3.9687 3.9687 3.9687s3.9688-1.7769 3.9688-3.9687c0-2.1919-1.7769-3.9688-3.9688-3.9688zm-4.9687 3.9688c0-2.7442 2.2246-4.9688 4.9687-4.9688 2.7442 0 4.9688 2.2246 4.9688 4.9688 0 2.7441-2.2246 4.9687-4.9688 4.9687-2.7441 0-4.9687-2.2246-4.9687-4.9687z" fill="url(#K)"/></g><path d="m19.7555 16.6208c-.2569.1622-.3337.5018-.1716.7587l4.7188 7.4766c.1621.2568.5018.3337.7586.1715.2569-.1621.3337-.5018.1716-.7586l-4.7187-7.4766c-.1622-.2569-.5018-.3337-.7587-.1716z" fill="url(#L)"/><path d="m20.0595 16.5414c.2964.0661.4832.36.4171.6565l-1.5781 7.0781c-.0661.2965-.3601.4832-.6565.4171-.2965-.0661-.4833-.36-.4172-.6565l1.5781-7.0781c.0661-.2965.3601-.4832.6566-.4171z" fill="url(#M)"/><path d="m20.0595 16.5414c.2964.0661.4832.36.4171.6565l-1.5781 7.0781c-.0661.2965-.3601.4832-.6565.4171-.2965-.0661-.4833-.36-.4172-.6565l1.5781-7.0781c.0661-.2965.3601-.4832.6566-.4171z" fill="url(#N)"/><path d="m20.0595 16.5414c.2964.0661.4832.36.4171.6565l-1.5781 7.0781c-.0661.2965-.3601.4832-.6565.4171-.2965-.0661-.4833-.36-.4172-.6565l1.5781-7.0781c.0661-.2965.3601-.4832.6566-.4171z" fill="url(#O)"/></g><path d="m14.0145 15.4453 1.3399-.8359 1.039 1.039-.7657 3.5313c-.513-.3802-1.5686-1.161-1.6874-1.2422-.1484-.1016-.6608-.543-.6529-1.2383.0079-.7111.4771-1.0716.7271-1.2539z" fill="url(#P)"/><path d="m14.0145 15.4453 1.3399-.8359 1.039 1.039-.7657 3.5313c-.513-.3802-1.5686-1.161-1.6874-1.2422-.1484-.1016-.6608-.543-.6529-1.2383.0079-.7111.4771-1.0716.7271-1.2539z" fill="url(#Q)"/><path d="m14.0145 15.4453 1.3399-.8359 1.039 1.039-.7657 3.5313c-.513-.3802-1.5686-1.161-1.6874-1.2422-.1484-.1016-.6608-.543-.6529-1.2383.0079-.7111.4771-1.0716.7271-1.2539z" fill="url(#R)"/><path d="m15.2952 14.6445 2.6406-1.6093 1.207.6289-2.7265 2.4765c-.2688-.2312-.8399-1.0508-1.1211-1.4961z" fill="url(#S)"/><path d="m15.2952 14.6445 2.6406-1.6093 1.207.6289-2.7265 2.4765c-.2688-.2312-.8399-1.0508-1.1211-1.4961z" fill="url(#T)"/><g filter="url(#g)"><path d="m18.9293 26.8002c-.124.026-.2525.0396-.3841.0396-1.0291 0-1.8633-.8342-1.8633-1.8632 0-1.0291.8342-1.8633 1.8633-1.8633.1381 0 .2727.015.4023.0435l5.8984.9057c.4389.0727.7735.4547.7735.9141 0 .489-.3792.8894-.8595.9234z" fill="url(#U)"/><path d="m18.9293 26.8002c-.124.026-.2525.0396-.3841.0396-1.0291 0-1.8633-.8342-1.8633-1.8632 0-1.0291.8342-1.8633 1.8633-1.8633.1381 0 .2727.015.4023.0435l5.8984.9057c.4389.0727.7735.4547.7735.9141 0 .489-.3792.8894-.8595.9234z" fill="url(#V)"/></g><circle cx="18.3889" cy="24.9766" fill="url(#W)" r="1.02734"/><circle cx="18.3889" cy="24.9766" fill="url(#X)" r="1.02734"/><g filter="url(#h)"><path d="m16.1152 23.2258-1.8088.8613c-.4312.2118-.7568.4646-.762.9561-.0012.1234.1074.2139.2308.2139h3.5037c.1105 0 .2-.0895.2-.2v-1.1494z" fill="#5b4e85"/><path d="m16.1152 23.2258-1.8088.8613c-.4312.2118-.7568.4646-.762.9561-.0012.1234.1074.2139.2308.2139h3.5037c.1105 0 .2-.0895.2-.2v-1.1494z" fill="url(#Y)"/><path d="m16.1152 23.2258-1.8088.8613c-.4312.2118-.7568.4646-.762.9561-.0012.1234.1074.2139.2308.2139h3.5037c.1105 0 .2-.0895.2-.2v-1.1494z" fill="url(#Z)"/></g><path d="m13.5544 7.91284h2.15415v2.66825h-2.15415z" fill="url(#aa)" transform="matrix(.56788972 -.82310465 .82310465 .56788972 -.6561 14.575909)"/><path d="m13.5544 7.91284h2.15415v2.66825h-2.15415z" fill="url(#ab)" transform="matrix(.56788972 -.82310465 .82310465 .56788972 -.6561 14.575909)"/><g filter="url(#i)"><path d="m16.0963 16.0001.5532-.5143 2.0402 1.9166c-.2734.1537-.8871.4633-1.0308.582-.1098.0907-.1098.2344-.1098.3282l-.0465 5.5937-1.4063-.6719c-.138-.7942-.4196-2.7082-.7692-4.3007-.3952-1.8008.376-2.5925.7692-2.9336z" fill="url(#ac)"/><path d="m16.0963 16.0001.5532-.5143 2.0402 1.9166c-.2734.1537-.8871.4633-1.0308.582-.1098.0907-.1098.2344-.1098.3282l-.0465 5.5937-1.4063-.6719c-.138-.7942-.4196-2.7082-.7692-4.3007-.3952-1.8008.376-2.5925.7692-2.9336z" fill="url(#ad)"/></g><g filter="url(#j)"><path d="m18.3801 13.7774-.6357-.6993 4.0312-2.4765c1.4219 1.8672 1.5 3.2109.836 4.2734-.6641 1.0625-1.5821 2.0508-2.6172 2.9453-.2714.2346-.8027.3617-1.3594-.1797-.707-.6875-1.5781-1.5781-2.0391-2.1133l1.7773-1.6085c.041-.0371.0441-.1005.0069-.1414z" fill="url(#ae)"/><path d="m18.3801 13.7774-.6357-.6993 4.0312-2.4765c1.4219 1.8672 1.5 3.2109.836 4.2734-.6641 1.0625-1.5821 2.0508-2.6172 2.9453-.2714.2346-.8027.3617-1.3594-.1797-.707-.6875-1.5781-1.5781-2.0391-2.1133l1.7773-1.6085c.041-.0371.0441-.1005.0069-.1414z" fill="url(#af)"/></g><g filter="url(#k)"><path d="m16.1116 11.1563c.664.625 1.3633 1.5859 1.6718 1.9687l4.2423-2.1796c-.5859-.9766-2.0703-2.53129-3.539-3.35942-1.7188-.8125-2.6724 0-3.3052 1.07032-.4136.85156.2582 1.7812.9301 2.5z" fill="url(#ag)"/></g><g filter="url(#l)"><path d="m12.9553 11.6094c0-.3175-.2574-.575-.575-.575h-3.04993c-1.17619 0-2.12969.9535-2.12969 2.1297s.9535 2.1297 2.12969 2.1297h.18276c.31757 0 .57497-.2574.57497-.575s-.2574-.575-.57497-.575h-.18276c-.54107 0-.97969-.4386-.97969-.9797s.43862-.9797.97969-.9797h3.04993c.3176 0 .575-.2574.575-.575z" fill="#c0b9bc"/><path d="m12.9553 11.6094c0-.3175-.2574-.575-.575-.575h-3.04993c-1.17619 0-2.12969.9535-2.12969 2.1297s.9535 2.1297 2.12969 2.1297h.18276c.31757 0 .57497-.2574.57497-.575s-.2574-.575-.57497-.575h-.18276c-.54107 0-.97969-.4386-.97969-.9797s.43862-.9797.97969-.9797h3.04993c.3176 0 .575-.2574.575-.575z" fill="url(#ah)"/></g><g filter="url(#m)"><path clip-rule="evenodd" d="m8.34985 13.2227v-.0215c0-.3161-.2561-.5723-.57226-.5723s-.57227.2562-.57227.5723v.0215h-.0039c.031 1.1491.97241 2.0711 2.1289 2.0711h.18286c.31763 0 .57492-.2575.57492-.575 0-.3176-.25729-.5751-.57492-.5751h-.18286c-.52124 0-.94775-.4073-.97803-.921z" fill="#2b174f" fill-rule="evenodd"/></g><g clip-rule="evenodd" fill-rule="evenodd" filter="url(#n)"><path d="m17.142 8.27395c.4787.32733.6014.98073.2741 1.45942-.7828 1.14463-3.1516 4.30283-7.93267 4.78793-.57694.0585-1.59458-.3193-1.65311-.8962-.05853-.577.86422-1.1346 1.44115-1.1931 3.84393-.39 5.74073-2.90363 6.41113-3.88401.3273-.47868.9807-.60138 1.4594-.27404z" fill="#492f33"/><path d="m17.142 8.27395c.4787.32733.6014.98073.2741 1.45942-.7828 1.14463-3.1516 4.30283-7.93267 4.78793-.57694.0585-1.59458-.3193-1.65311-.8962-.05853-.577.86422-1.1346 1.44115-1.1931 3.84393-.39 5.74073-2.90363 6.41113-3.88401.3273-.47868.9807-.60138 1.4594-.27404z" fill="url(#ai)"/></g><path clip-rule="evenodd" d="m9.33658 12.9218c0 .1933-.1567.35-.35.35-.17295 0-.43539.0424-.66246.1496-.22597.1066-.36989.2525-.41531.4388-.04579.1878-.23516.3029-.42295.2571-.1878-.0458-.30291-.2352-.25712-.423.11367-.4661.46185-.7479.79661-.9059.33367-.1575.70059-.2166.96123-.2166.1933 0 .35.1567.35.35z" fill="url(#ak)" fill-rule="evenodd"/><path clip-rule="evenodd" d="m9.33658 12.9218c0 .1933-.1567.35-.35.35-.17295 0-.43539.0424-.66246.1496-.22597.1066-.36989.2525-.41531.4388-.04579.1878-.23516.3029-.42295.2571-.1878-.0458-.30291-.2352-.25712-.423.11367-.4661.46185-.7479.79661-.9059.33367-.1575.70059-.2166.96123-.2166.1933 0 .35.1567.35.35z" fill="url(#am)" fill-rule="evenodd"/><g filter="url(#o)"><path d="m21.006 12.8952-.5233-.8635 1.125-.6562c.9687 1.3125 1.3437 2.2969.7343 2.875-.4875.4625-2.8698 1.7239-4 2.2969l2.503-2.4141c.3364-.3244.4032-.8384.161-1.2381z" fill="url(#an)"/></g><path clip-rule="evenodd" d="m8.85143 13.4482c.05881.1842-.04279.3811-.22693.4399-.28844.0922-.37727.3293-.40574.4574-.04194.1887-.22891.3077-.41761.2657-.18869-.0419-.30766-.2289-.26572-.4176.04967-.2234.23499-.7675.87611-.9723.18414-.0588.38108.0428.43989.2269z" fill="url(#ao)" fill-rule="evenodd"/><path clip-rule="evenodd" d="m8.85143 13.4482c.05881.1842-.04279.3811-.22693.4399-.28844.0922-.37727.3293-.40574.4574-.04194.1887-.22891.3077-.41761.2657-.18869-.0419-.30766-.2289-.26572-.4176.04967-.2234.23499-.7675.87611-.9723.18414-.0588.38108.0428.43989.2269z" fill="url(#ap)" fill-rule="evenodd"/><path clip-rule="evenodd" d="m8.85143 13.4482c.05881.1842-.04279.3811-.22693.4399-.28844.0922-.37727.3293-.40574.4574-.04194.1887-.22891.3077-.41761.2657-.18869-.0419-.30766-.2289-.26572-.4176.04967-.2234.23499-.7675.87611-.9723.18414-.0588.38108.0428.43989.2269z" fill="url(#ap)" fill-rule="evenodd"/><path clip-rule="evenodd" d="m9.14502 13.707c.06659.0804.11328.2422 0 .4024-.15152.1256-.34264.3889-.37247.5935-.02789.1912-.20556.3237-.39684.2958s-.32372-.2056-.29583-.3968c.01875-.1286.07671-.2847.15467-.4289.07977-.1475.19659-.3126.3539-.443.14882-.1233.4332-.1718.55657-.023z" fill="url(#aq)" fill-rule="evenodd"/><path clip-rule="evenodd" d="m9.14502 13.707c.06659.0804.11328.2422 0 .4024-.15152.1256-.34264.3889-.37247.5935-.02789.1912-.20556.3237-.39684.2958s-.32372-.2056-.29583-.3968c.01875-.1286.07671-.2847.15467-.4289.07977-.1475.19659-.3126.3539-.443.14882-.1233.4332-.1718.55657-.023z" fill="url(#ar)" fill-rule="evenodd"/><g filter="url(#p)"><circle cx="9.24039" cy="13.424" fill="#493030" r=".884675"/></g><path d="m10.8289 8.37816c-.2032-.1393-.2072-.29956-.1417-.65593.0478-.26038-.0162-.45457-.0638-.53751l.8175.99474c-.1082.2233-.4089.338-.612.1987z" fill="url(#as)"/><g filter="url(#q)"><path d="m12.0136 9.13588c-.784-.74241-1.4338-1.9375-1.6944-2.40424l3.4637-2.11035 1.8622 1.67873c-.0738.34208-.3633 1.20474-.9299 1.91874-.7083.8925-1.6728 1.89124-2.7016.91712z" fill="url(#at)"/><path d="m12.0136 9.13588c-.784-.74241-1.4338-1.9375-1.6944-2.40424l3.4637-2.11035 1.8622 1.67873c-.0738.34208-.3633 1.20474-.9299 1.91874-.7083.8925-1.6728 1.89124-2.7016.91712z" fill="url(#au)"/><path d="m12.0136 9.13588c-.784-.74241-1.4338-1.9375-1.6944-2.40424l3.4637-2.11035 1.8622 1.67873c-.0738.34208-.3633 1.20474-.9299 1.91874-.7083.8925-1.6728 1.89124-2.7016.91712z" fill="url(#av)"/></g><path clip-rule="evenodd" d="m11.9037 8.60475c-.0334-.05574-.0153-.12799.0405-.16136.1023-.06129.2374-.21241.3103-.53.0145-.06332.0776-.10288.1409-.08836.0633.01453.1029.07764.0884.14097-.0832.36255-.2478.57685-.4188.67925-.0557.03337-.128.01524-.1613-.0405z" fill="#290017" fill-rule="evenodd"/><g filter="url(#r)"><path d="m14.6182 6.32336-1.1968-1.21841 1.7706-.91384c.2162.36521.2227 1.05775.1806 1.31311.4222-.10181.6337.22031.6567.41527.0229.19496-.1489.59175-.6039.69808-.3639.08506-.6898-.1607-.8072-.29421z" fill="#1b131d"/><path d="m14.6182 6.32336-1.1968-1.21841 1.7706-.91384c.2162.36521.2227 1.05775.1806 1.31311.4222-.10181.6337.22031.6567.41527.0229.19496-.1489.59175-.6039.69808-.3639.08506-.6898-.1607-.8072-.29421z" fill="url(#aw)"/></g><path d="m11.0097 6.69806c-.0698.22951.0674.45864.1408.57431l.8905-.52944c-.5299-.59419-.9364-.35669-1.0313-.04487z" fill="#fff"/><path d="m11.65 6.97515c-.0093-.01625-.0191-.03246-.0295-.04857-.161-.24968-.4007-.38172-.5352-.29493-.1346.08679-.1131.35955.048.60922.0065.01008.0131.01997.0199.02966z" fill="#634c48"/><path d="m11.4592 7.08855c-.0123-.03066-.0284-.062-.0482-.09275-.0896-.13883-.2213-.21326-.2942-.16623s-.0594.1977.0301.33654c.0177.02736.037.05222.0571.07414z" fill="url(#ax)"/><circle cx="11.1249" cy="6.80729" fill="#dfdfdf" r=".084928" transform="matrix(.43613127 -.89988306 .89988306 .43613127 .147218 13.849527)"/><circle cx="13.4846" cy="5.74823" fill="url(#ay)" r=".657127" transform="matrix(.43613127 -.89988306 .89988306 .43613127 2.43081 15.37581)"/><circle cx="13.4846" cy="5.74823" fill="url(#az)" r=".657127" transform="matrix(.43613127 -.89988306 .89988306 .43613127 2.43081 15.37581)"/><path clip-rule="evenodd" d="m12.7209 5.03096c.1479-.06705.3222-.00148.3893.14646l1.5127 3.33751c.0671.14794.0015.32222-.1464.38928-.148.06706-.3222.00149-.3893-.14645l-1.5128-3.33751c-.067-.14794-.0015-.32223.1465-.38929z" fill="#4d3771" fill-rule="evenodd"/><path clip-rule="evenodd" d="m12.7209 5.03096c.1479-.06705.3222-.00148.3893.14646l1.5127 3.33751c.0671.14794.0015.32222-.1464.38928-.148.06706-.3222.00149-.3893-.14645l-1.5128-3.33751c-.067-.14794-.0015-.32223.1465-.38929z" fill="url(#aA)" fill-rule="evenodd"/><path clip-rule="evenodd" d="m12.7209 5.03096c.1479-.06705.3222-.00148.3893.14646l1.5127 3.33751c.0671.14794.0015.32222-.1464.38928-.148.06706-.3222.00149-.3893-.14645l-1.5128-3.33751c-.067-.14794-.0015-.32223.1465-.38929z" fill="url(#aB)" fill-rule="evenodd"/><path clip-rule="evenodd" d="m12.7209 5.03096c.1479-.06705.3222-.00148.3893.14646l1.5127 3.33751c.0671.14794.0015.32222-.1464.38928-.148.06706-.3222.00149-.3893-.14645l-1.5128-3.33751c-.067-.14794-.0015-.32223.1465-.38929z" fill="url(#aC)" fill-rule="evenodd"/><g filter="url(#s)"><path d="m15.0938 4.35621-4.7152 2.45828c-.1191.0621-.2646.03484-.3405-.07601-.16553-.24177-.39704-.65025-.5811-1.13725-.54817-1.45039.45907-2.27295.591-2.39959.191-.18322.7177-.63777 1.8531-1.06284 1.3323-.49881 2.1837.08812 2.6015.63787.2628.34574.5506.8652.7184 1.21565.065.13567.0062.29435-.1272.36389z" fill="url(#aD)"/></g><g filter="url(#t)"><path d="m11.2967 5.12934c-.0877-.17544-.0165-.38874.1589-.47644l1.3067-.65316c.1754-.08769.3887-.01656.4764.15888.0877.17543.0166.38874-.1589.47643l-1.3067.65316c-.1754.08769-.3887.01656-.4764-.15887z" fill="url(#aE)"/></g></svg>