<svg fill="none" height="32" viewBox="0 0 32 32" width="32" xmlns="http://www.w3.org/2000/svg" xmlns:xlink="http://www.w3.org/1999/xlink"><filter id="a" color-interpolation-filters="sRGB" filterUnits="userSpaceOnUse" height="23.0563" width="27.9846" x="1.99402" y="3.83203"><feFlood flood-opacity="0" result="BackgroundImageFix"/><feBlend in="SourceGraphic" in2="BackgroundImageFix" mode="normal" result="shape"/><feColorMatrix in="SourceAlpha" result="hardAlpha" type="matrix" values="0 0 0 0 0 0 0 0 0 0 0 0 0 0 0 0 0 0 127 0"/><feOffset/><feGaussianBlur stdDeviation=".75"/><feComposite in2="hardAlpha" k2="-1" k3="1" operator="arithmetic"/><feColorMatrix type="matrix" values="0 0 0 0 0.85098 0 0 0 0 0.678431 0 0 0 0 0.572549 0 0 0 1 0"/><feBlend in2="shape" mode="normal" result="effect1_innerShadow_20020_5753"/></filter><filter id="b" color-interpolation-filters="sRGB" filterUnits="userSpaceOnUse" height="15.2661" width="6.04433" x="3.42551" y="9.46747"><feFlood flood-opacity="0" result="BackgroundImageFix"/><feBlend in="SourceGraphic" in2="BackgroundImageFix" mode="normal" result="shape"/><feGaussianBlur result="effect1_foregroundBlur_20020_5753" stdDeviation=".75"/></filter><filter id="c" color-interpolation-filters="sRGB" filterUnits="userSpaceOnUse" height="17.4671" width="6.04433" x="10.238" y="7.26648"><feFlood flood-opacity="0" result="BackgroundImageFix"/><feBlend in="SourceGraphic" in2="BackgroundImageFix" mode="normal" result="shape"/><feGaussianBlur result="effect1_foregroundBlur_20020_5753" stdDeviation=".75"/></filter><filter id="d" color-interpolation-filters="sRGB" filterUnits="userSpaceOnUse" height="22.3124" width="6.04433" x="17.8921" y="3.73526"><feFlood flood-opacity="0" result="BackgroundImageFix"/><feBlend in="SourceGraphic" in2="BackgroundImageFix" mode="normal" result="shape"/><feGaussianBlur result="effect1_foregroundBlur_20020_5753" stdDeviation=".75"/></filter><filter id="e" color-interpolation-filters="sRGB" filterUnits="userSpaceOnUse" height="20.2812" width="5.61346" x="24.8745" y="5.76648"><feFlood flood-opacity="0" result="BackgroundImageFix"/><feBlend in="SourceGraphic" in2="BackgroundImageFix" mode="normal" result="shape"/><feGaussianBlur result="effect1_foregroundBlur_20020_5753" stdDeviation=".75"/></filter><linearGradient id="f" gradientUnits="userSpaceOnUse" x1="36.1134" x2="34.5558" y1="24.7505" y2="24.7946"><stop offset="0" stop-color="#ba8296"/><stop offset="1" stop-color="#ba8296" stop-opacity="0"/></linearGradient><radialGradient id="g" cx="0" cy="0" gradientTransform="matrix(.73269256 -1.64427176 3.72132113 1.65823216 31.5165 33.627)" gradientUnits="userSpaceOnUse" r="1"><stop offset="0" stop-color="#e3a395"/><stop offset="1" stop-color="#e3a395" stop-opacity="0"/></radialGradient><linearGradient id="h" gradientUnits="userSpaceOnUse" x1="30.3484" x2="7.44803" y1="7.86429" y2="16.6028"><stop offset="0" stop-color="#ffd9ba"/><stop offset="1" stop-color="#e2b098"/></linearGradient><linearGradient id="i" gradientUnits="userSpaceOnUse" x1="10.1177" x2="10.1177" y1="24.8914" y2="16.8968"><stop offset="0" stop-color="#d7a199"/><stop offset="1" stop-color="#d7a199" stop-opacity="0"/></linearGradient><linearGradient id="j" gradientUnits="userSpaceOnUse" x1="8.96375" x2="7.63862" y1="17.9294" y2="17.9294"><stop offset="0" stop-color="#ce886e"/><stop offset="1" stop-color="#ce886e" stop-opacity="0"/></linearGradient><radialGradient id="k" cx="0" cy="0" gradientTransform="matrix(0 14.3638 -10.4214 0 5.9273 10.9675)" gradientUnits="userSpaceOnUse" r="1"><stop offset=".800333" stop-color="#b97d94" stop-opacity="0"/><stop offset="1" stop-color="#b97d94"/></radialGradient><linearGradient id="l" gradientUnits="userSpaceOnUse" x1="17.1957" x2="17.1957" y1="28.1725" y2="17.1635"><stop offset="0" stop-color="#d29b99"/><stop offset="1" stop-color="#d29b99" stop-opacity="0"/></linearGradient><linearGradient id="m" gradientUnits="userSpaceOnUse" x1="16" x2="14.6269" y1="17.1635" y2="17.1635"><stop offset="0" stop-color="#e19c82"/><stop offset="1" stop-color="#e19c82" stop-opacity="0"/></linearGradient><linearGradient id="n" gradientUnits="userSpaceOnUse" x1="12.9588" x2="12.9588" y1="8.42343" y2="14.4914"><stop offset="0" stop-color="#ebbda3"/><stop offset="1" stop-color="#ebbda3" stop-opacity="0"/></linearGradient><linearGradient id="o" gradientUnits="userSpaceOnUse" x1="8.1875" x2="10.5" y1="21.0625" y2="20.9375"><stop offset="0" stop-color="#ca9082"/><stop offset="1" stop-color="#ca9082" stop-opacity="0"/></linearGradient><radialGradient id="p" cx="0" cy="0" gradientTransform="matrix(0 18.0323 -10.7984 0 12.8537 8.42343)" gradientUnits="userSpaceOnUse" r="1"><stop offset=".788621" stop-color="#b97d96" stop-opacity="0"/><stop offset="1" stop-color="#b97d96"/></radialGradient><linearGradient id="q" gradientUnits="userSpaceOnUse" x1="14.7092" x2="19.3921" y1="21.1625" y2="20.829"><stop offset="0" stop-color="#d69683"/><stop offset="1" stop-color="#d69683" stop-opacity="0"/></linearGradient><radialGradient id="r" cx="0" cy="0" gradientTransform="matrix(0 18.7599 -10.2377 0 19.8849 8.42343)" gradientUnits="userSpaceOnUse" r="1"><stop offset=".847454" stop-color="#ba7c94" stop-opacity="0"/><stop offset="1" stop-color="#ba7c94"/></radialGradient><linearGradient id="s" gradientUnits="userSpaceOnUse" x1="19.3921" x2="19.3921" y1="7.56249" y2="14.454"><stop offset="0" stop-color="#f2c7ab"/><stop offset="1" stop-color="#f2c7ab" stop-opacity="0"/></linearGradient><linearGradient id="t" gradientUnits="userSpaceOnUse" x1="22.7705" x2="26.8635" y1="21.3112" y2="20.4996"><stop offset="0" stop-color="#eba38b"/><stop offset="1" stop-color="#eba38b" stop-opacity="0"/></linearGradient><radialGradient id="u" cx="0" cy="0" gradientTransform="matrix(0 18.4405 -10.0039 0 26.8383 8.42343)" gradientUnits="userSpaceOnUse" r="1"><stop offset=".831226" stop-color="#bc7b92" stop-opacity="0"/><stop offset="1" stop-color="#b56e8c"/><stop offset="1" stop-color="#bc7b92"/></radialGradient><linearGradient id="v" gradientUnits="userSpaceOnUse" x1="1.99402" x2="4.23801" y1="16.0165" y2="16.0165"><stop offset="0" stop-color="#e0a893"/><stop offset="1" stop-color="#e0a893" stop-opacity="0"/></linearGradient><radialGradient id="w" cx="0" cy="0" gradientTransform="matrix(-2.41485281 3.40557512 -4.95104839 -3.51072952 29.1378 5.98437)" gradientUnits="userSpaceOnUse" r="1"><stop offset="0" stop-color="#ffe4c4"/><stop offset="1" stop-color="#ffe4c4" stop-opacity="0"/></radialGradient><radialGradient id="x" cx="0" cy="0" gradientTransform="matrix(9.47030609 10.37916388 -21.20347409 19.34677901 6.51605 5.74587)" gradientUnits="userSpaceOnUse" r="1"><stop offset="0" stop-color="#deae92"/><stop offset="1" stop-color="#deae92" stop-opacity="0"/></radialGradient><linearGradient id="y" gradientUnits="userSpaceOnUse" x1="6.44767" x2="6.44767" y1="10.9675" y2="26.0489"><stop offset="0" stop-color="#fdcab7"/><stop offset="1" stop-color="#fdcab7" stop-opacity="0"/></linearGradient><linearGradient id="z" gradientUnits="userSpaceOnUse" x1="13.2602" x2="13.2602" y1="8.76648" y2="26.5541"><stop offset="0" stop-color="#ffd4bd"/><stop offset="1" stop-color="#ffd4bd" stop-opacity="0"/></linearGradient><linearGradient id="A" gradientUnits="userSpaceOnUse" x1="20.9143" x2="20.9143" y1="5.23526" y2="28.9804"><stop offset="0" stop-color="#ffe7cb"/><stop offset="1" stop-color="#ffe7cb" stop-opacity="0"/></linearGradient><linearGradient id="B" gradientUnits="userSpaceOnUse" x1="27.6813" x2="27.6813" y1="7.26648" y2="28.5142"><stop offset="0" stop-color="#ffe7ca"/><stop offset="1" stop-color="#ffe7ca" stop-opacity="0"/></linearGradient><g transform="matrix(.33104146 .94361621 -.94361621 .33104146 35.150669 -15.047856)"><rect fill="#be7e87" height="16.2787" rx="3.82976" width="7.65951" x="28.1884" y="17.2674"/><rect fill="url(#f)" height="16.2787" rx="3.82976" width="7.65951" x="28.1884" y="17.2674"/><rect fill="url(#g)" height="16.2787" rx="3.82976" width="7.65951" x="28.1884" y="17.2674"/></g><g filter="url(#a)"><path d="m1.99402 12.7114v8.3503c0 2.1151 1.71464 3.8297 3.82976 3.8297 1.29934 0 2.44755-.6471 3.13997-1.6365.49783 1.5371 1.94115 2.6487 3.64415 2.6487 1.3032 0 2.4543-.6509 3.1461-1.6453.5034 1.5275 1.942 2.6301 3.6381 2.6301 1.6863 0 3.118-1.0899 3.6292-2.6037.6937.9795 1.836 1.6189 3.1276 1.6189 2.1151 0 3.8297-1.7147 3.8297-3.8298v-9.8206-.0109-2.88264c0-2.42953-2.033-4.36466-4.4596-4.24483l-1.6333.08066c-1.0837.05351-2.1587-.21672-3.0883-.77627-1.1808-.71079-2.6397-.78061-3.883-.18581l-1.2976.62079c-.8084.38676-1.6932.58751-2.5894.58751h-1.3959c-.8738 0-1.72348.28609-2.4193.81454l-1.64909 1.25245c-.36896.28021-.79584.56595-1.22745.73435l-1.77343.74218c-1.70289.69073-2.56821 2.07817-2.56821 3.72617z" fill="url(#h)"/></g><path d="m8.77817 13.0792c0-.4648-.1495-.9305-.50685-1.2277-.66366-.552-1.51683-.884-2.44754-.884-2.11512 0-3.82976 1.7146-3.82976 3.8297v6.2644c0 2.1151 1.71464 3.8298 3.82976 3.8298 1.29934 0 2.44755-.6471 3.13997-1.6366-.12049-.372-.18558-.7689-.18558-1.181z" fill="url(#i)"/><path d="m8.77817 13.0792c0-.4648-.1495-.9305-.50685-1.2277-.66366-.552-1.51683-.884-2.44754-.884-2.11512 0-3.82976 1.7146-3.82976 3.8297v6.2644c0 2.1151 1.71464 3.8298 3.82976 3.8298 1.29934 0 2.44755-.6471 3.13997-1.6366-.12049-.372-.18558-.7689-.18558-1.181z" fill="url(#j)"/><path d="m8.77817 13.0792c0-.4648-.1495-.9305-.50685-1.2277-.66366-.552-1.51683-.884-2.44754-.884-2.11512 0-3.82976 1.7146-3.82976 3.8297v6.2644c0 2.1151 1.71464 3.8298 3.82976 3.8298 1.29934 0 2.44755-.6471 3.13997-1.6366-.12049-.372-.18558-.7689-.18558-1.181z" fill="url(#k)"/><path d="m12.6079 8.42343c-2.1151 0-3.82973 1.71467-3.82973 3.82977v9.8206c0 2.1151 1.71463 3.8297 3.82973 3.8297 1.3032 0 2.4543-.6508 3.1461-1.6452-.1244-.3774-.1917-.7807-.1917-1.1997v-10.8054c0-.6424.1582-1.2479.4377-1.7796-.6408-1.21889-1.9194-2.05017-3.3921-2.05017z" fill="url(#l)"/><path d="m12.6079 8.42343c-2.1151 0-3.82973 1.71467-3.82973 3.82977v9.8206c0 2.1151 1.71463 3.8297 3.82973 3.8297 1.3032 0 2.4543-.6508 3.1461-1.6452-.1244-.3774-.1917-.7807-.1917-1.1997v-10.8054c0-.6424.1582-1.2479.4377-1.7796-.6408-1.21889-1.9194-2.05017-3.3921-2.05017z" fill="url(#m)"/><path d="m12.6079 8.42343c-2.1151 0-3.82973 1.71467-3.82973 3.82977v9.8206c0 2.1151 1.71463 3.8297 3.82973 3.8297 1.3032 0 2.4543-.6508 3.1461-1.6452-.1244-.3774-.1917-.7807-.1917-1.1997v-10.8054c0-.6424.1582-1.2479.4377-1.7796-.6408-1.21889-1.9194-2.05017-3.3921-2.05017z" fill="url(#n)"/><path d="m12.6079 8.42343c-2.1151 0-3.82973 1.71467-3.82973 3.82977v9.8206c0 2.1151 1.71463 3.8297 3.82973 3.8297 1.3032 0 2.4543-.6508 3.1461-1.6452-.1244-.3774-.1917-.7807-.1917-1.1997v-10.8054c0-.6424.1582-1.2479.4377-1.7796-.6408-1.21889-1.9194-2.05017-3.3921-2.05017z" fill="url(#o)"/><path d="m12.6079 8.42343c-2.1151 0-3.82973 1.71467-3.82973 3.82977v9.8206c0 2.1151 1.71463 3.8297 3.82973 3.8297 1.3032 0 2.4543-.6508 3.1461-1.6452-.1244-.3774-.1917-.7807-.1917-1.1997v-10.8054c0-.6424.1582-1.2479.4377-1.7796-.6408-1.21889-1.9194-2.05017-3.3921-2.05017z" fill="url(#p)"/><rect fill="url(#q)" height="18.4649" rx="3.82976" width="7.65951" x="15.5623" y="8.42343"/><rect fill="url(#r)" height="18.4649" rx="3.82976" width="7.65951" x="15.5623" y="8.42343"/><rect fill="url(#s)" height="18.4649" rx="3.82976" width="7.65951" x="15.5623" y="8.42343"/><path d="m23.0214 24.2847c.6936.9795 1.8359 1.6188 3.1275 1.6188 2.1151 0 3.8297-1.7146 3.8297-3.8297v-9.8206c0-2.1151-1.7146-3.82977-3.8297-3.82977-.7876 0-1.5197.23775-2.1284.64539-.9757.65346-.7987 2.00998-.7987 3.18438v10.8054c0 .4288-.0704.8412-.2004 1.2261z" fill="url(#t)"/><path d="m23.0214 24.2847c.6936.9795 1.8359 1.6188 3.1275 1.6188 2.1151 0 3.8297-1.7146 3.8297-3.8297v-9.8206c0-2.1151-1.7146-3.82977-3.8297-3.82977-.7876 0-1.5197.23775-2.1284.64539-.9757.65346-.7987 2.00998-.7987 3.18438v10.8054c0 .4288-.0704.8412-.2004 1.2261z" fill="url(#u)"/><path d="m1.99402 12.7114v8.3503c0 2.1151 1.71464 3.8297 3.82976 3.8297 1.29934 0 2.44755-.6471 3.13997-1.6365.49783 1.5371 1.94115 2.6487 3.64415 2.6487 1.3032 0 2.4543-.6509 3.1461-1.6453.5034 1.5275 1.942 2.6301 3.6381 2.6301 1.6863 0 3.118-1.0899 3.6292-2.6037.6937.9795 1.836 1.6189 3.1276 1.6189 2.1151 0 3.8297-1.7147 3.8297-3.8298v-9.8206-.0109-2.88264c0-2.42953-2.033-4.36466-4.4596-4.24483l-1.6333.08066c-1.0837.05351-2.1587-.21672-3.0883-.77627-1.1808-.71079-2.6397-.78061-3.883-.18581l-1.2976.62079c-.8084.38676-1.6932.58751-2.5894.58751h-1.3959c-.8738 0-1.72348.28609-2.4193.81454l-1.64909 1.25245c-.36896.28021-.79584.56595-1.22745.73435l-1.77343.74218c-1.70289.69073-2.56821 2.07817-2.56821 3.72617z" fill="url(#v)"/><path d="m1.99402 12.7114v8.3503c0 2.1151 1.71464 3.8297 3.82976 3.8297 1.29934 0 2.44755-.6471 3.13997-1.6365.49783 1.5371 1.94115 2.6487 3.64415 2.6487 1.3032 0 2.4543-.6509 3.1461-1.6453.5034 1.5275 1.942 2.6301 3.6381 2.6301 1.6863 0 3.118-1.0899 3.6292-2.6037.6937.9795 1.836 1.6189 3.1276 1.6189 2.1151 0 3.8297-1.7147 3.8297-3.8298v-9.8206-.0109-2.88264c0-2.42953-2.033-4.36466-4.4596-4.24483l-1.6333.08066c-1.0837.05351-2.1587-.21672-3.0883-.77627-1.1808-.71079-2.6397-.78061-3.883-.18581l-1.2976.62079c-.8084.38676-1.6932.58751-2.5894.58751h-1.3959c-.8738 0-1.72348.28609-2.4193.81454l-1.64909 1.25245c-.36896.28021-.79584.56595-1.22745.73435l-1.77343.74218c-1.70289.69073-2.56821 2.07817-2.56821 3.72617z" fill="url(#w)"/><path d="m1.99402 12.7114v8.3503c0 2.1151 1.71464 3.8297 3.82976 3.8297 1.29934 0 2.44755-.6471 3.13997-1.6365.49783 1.5371 1.94115 2.6487 3.64415 2.6487 1.3032 0 2.4543-.6509 3.1461-1.6453.5034 1.5275 1.942 2.6301 3.6381 2.6301 1.6863 0 3.118-1.0899 3.6292-2.6037.6937.9795 1.836 1.6189 3.1276 1.6189 2.1151 0 3.8297-1.7147 3.8297-3.8298v-9.8206-.0109-2.88264c0-2.42953-2.033-4.36466-4.4596-4.24483l-1.6333.08066c-1.0837.05351-2.1587-.21672-3.0883-.77627-1.1808-.71079-2.6397-.78061-3.883-.18581l-1.2976.62079c-.8084.38676-1.6932.58751-2.5894.58751h-1.3959c-.8738 0-1.72348.28609-2.4193.81454l-1.64909 1.25245c-.36896.28021-.79584.56595-1.22745.73435l-1.77343.74218c-1.70289.69073-2.56821 2.07817-2.56821 3.72617z" fill="url(#x)"/><g filter="url(#b)"><path d="m4.92551 10.9675c1.78521.4272 3.04433 2.0231 3.04433 3.8588v6.8851c0 .8406-.6815 1.5221-1.52217 1.5221-.84067 0-1.52216-.6815-1.52216-1.5221z" fill="url(#y)"/></g><g filter="url(#c)"><path d="m11.738 8.76648.1308.03693c1.7234.4864 2.9135 2.05889 2.9135 3.84959v9.0584c0 .8407-.6815 1.5222-1.5221 1.5222-.8407 0-1.5222-.6815-1.5222-1.5222z" fill="url(#z)"/></g><g filter="url(#d)"><path d="m19.3921 5.23526.4546.17129c1.5582.58707 2.5897 2.07802 2.5897 3.74313v13.87582c0 .8407-.6815 1.5222-1.5221 1.5222-.8407 0-1.5222-.6815-1.5222-1.5222z" fill="url(#A)"/></g><g filter="url(#e)"><path d="m26.3745 7.26648.0757.0297c1.5309.60125 2.5378 2.07838 2.5378 3.72322v12.2216c0 .7217-.585 1.3067-1.3067 1.3067-.7217 0-1.3068-.585-1.3068-1.3067z" fill="url(#B)"/></g></svg>