<svg fill="none" height="32" viewBox="0 0 32 32" width="32" xmlns="http://www.w3.org/2000/svg"><path clip-rule="evenodd" d="m16 8.05051c.6353-.64828 1.5207-1.05051 2.5-1.05051h8c.7428 0 1.3892.40449 1.734 1.00326.0696.12076.0956.26037.0956.39971v2.29423l.6704 14.8028c0 1.3807-1.1193 2.5-2.5 2.5h-21c-1.38071 0-2.5-1.1193-2.5-2.5l.67038-14.8028v-2.29422c0-.13935.02605-.27896.09559-.39971.34485-.59876.99127-1.00327 1.73403-1.00327h8c.9793 0 1.8647.40223 2.5 1.05051z" fill="#b4acbc" fill-rule="evenodd"/><path d="m17.7324 30h10.7665c.8306 0 1.5011-.6779 1.5011-1.5052v-1.0534c0-.8274-.6705-2.4414-1.5011-2.4414h-24.99783c-.83059 0-1.50107 1.614-1.50107 2.4414v1.0633c0 .8274.67048 1.4953 1.50107 1.4953h10.76653c.3458.5978.9921 1 1.7324 1s1.3866-.4022 1.7324-1z" fill="#0074ba"/><path clip-rule="evenodd" d="m3.50107 10h10.49893v1h4v-1h10.4989c.8306 0 1.5011.6679 1.5011 1.4953v15.9995c0 .8273-.6705 1.5052-1.5011 1.5052h-10.7665c-.3458.5978-.9921 1-1.7324 1s-1.3866-.4022-1.7324-1h-10.76653c-.83059 0-1.50107-.6679-1.50107-1.4953v-16.0094c0-.8274.67048-1.4953 1.50107-1.4953zm13.99893 17.5c0 .8284-.6716 1.5-1.5 1.5s-1.5-.6716-1.5-1.5.6716-1.5 1.5-1.5 1.5.6716 1.5 1.5z" fill="#00a6ed" fill-rule="evenodd"/><path d="m13 8h-7.19722c-.50153 0-.96988.25065-1.24808.66795l-1.5547 2.33205v14.5c0 .8284.67157 1.5 1.5 1.5h23c.8284 0 1.5-.6716 1.5-1.5v-14.5l-1.5547-2.33205c-.2782-.4173-.7465-.66795-1.2481-.66795h-7.1972v3h-6z" fill="#b4acbc"/><g fill="#f3eef8"><path d="m5.5 8h8c1.3807 0 2.5 1.11929 2.5 2.5v16.5l-.4472-.8944c-.3388-.6776-1.0313-1.1056-1.7889-1.1056h-8.2639c-.55228 0-1-.4477-1-1v-15c0-.55228.44772-1 1-1z"/><path d="m18.5 8h8c.5523 0 1 .44772 1 1v15c0 .5523-.4477 1-1 1h-8.2639c-.7201 0-1.3815.3867-1.7361 1.007v-17.00724c.4561-.60709 1.1822-.99976 2-.99976z"/></g></svg>