<svg fill="none" height="32" viewBox="0 0 32 32" width="32" xmlns="http://www.w3.org/2000/svg" xmlns:xlink="http://www.w3.org/1999/xlink"><filter id="a" color-interpolation-filters="sRGB" filterUnits="userSpaceOnUse" height="18.3838" width="18.3837" x="2.03125" y="2.03125"><feFlood flood-opacity="0" result="BackgroundImageFix"/><feBlend in="SourceGraphic" in2="BackgroundImageFix" mode="normal" result="shape"/><feGaussianBlur result="effect1_foregroundBlur_18_28802" stdDeviation=".125"/></filter><linearGradient id="b" gradientUnits="userSpaceOnUse" x1="25.5" x2="14.3125" y1="12.8125" y2="26.25"><stop offset="0" stop-color="#ff8c68"/><stop offset=".311693" stop-color="#ff715b"/><stop offset=".638451" stop-color="#fc5465"/><stop offset="1" stop-color="#c94367"/></linearGradient><radialGradient id="c" cx="0" cy="0" gradientTransform="matrix(-2.18754748 5.81248194 -21.32896822 -8.02723021 22.6875 29.25)" gradientUnits="userSpaceOnUse" r="1"><stop offset="0" stop-color="#c14b8f"/><stop offset="1" stop-color="#c14389" stop-opacity="0"/></radialGradient><linearGradient id="d" gradientUnits="userSpaceOnUse" x1="2.4375" x2="20.125" y1="8.5625" y2="13"><stop offset="0" stop-color="#ec7934"/><stop offset="1" stop-color="#ff995d"/></linearGradient><linearGradient id="e" gradientUnits="userSpaceOnUse" x1="13.3125" x2="20.25" y1="25.7734" y2="21"><stop offset="0" stop-color="#a14070"/><stop offset="1" stop-color="#c6275c"/></linearGradient><linearGradient id="f" gradientUnits="userSpaceOnUse" x1="23.8772" x2="22.5" y1="9.8125" y2="15.625"><stop offset="0" stop-color="#c25c73"/><stop offset="1" stop-color="#bc3f62"/></linearGradient><linearGradient id="g" gradientUnits="userSpaceOnUse" x1="25.5" x2="28.75" y1="24.25" y2="20.4375"><stop offset="0" stop-color="#c5365f"/><stop offset="1" stop-color="#d45871"/></linearGradient><path d="m29.9 25.2301-1.9-6.44c-1.86-6.31-5.96-11.71001-11.54-15.20001l-12.81999 12.82001c3.49 5.57 8.89999 9.68 15.19999 11.54l6.44 1.9c1.31.39 2.72.03 3.68-.94.97-.96 1.33-2.37.94-3.68z" fill="url(#b)"/><path d="m29.9 25.2301-1.9-6.44c-1.86-6.31-5.96-11.71001-11.54-15.20001l-12.81999 12.82001c3.49 5.57 8.89999 9.68 15.19999 11.54l6.44 1.9c1.31.39 2.72.03 3.68-.94.97-.96 1.33-2.37.94-3.68z" fill="url(#c)"/><path d="m11.27 20.54c5.1197 0 9.27-4.1503 9.27-9.27 0-5.11968-4.1503-9.27-9.27-9.27-5.11968 0-9.27 4.15032-9.27 9.27 0 5.1197 4.15032 9.27 9.27 9.27z" fill="url(#d)"/><g filter="url(#a)"><path d="m11.2231 20.165c4.9385 0 8.9419-4.0034 8.9419-8.9419 0-4.93844-4.0034-8.94185-8.9419-8.94185-4.93844 0-8.94185 4.00341-8.94185 8.94185 0 4.9385 4.00341 8.9419 8.94185 8.9419z" fill="#ff8741"/></g><path d="m13.6016 25.7734c1.4921-.1952 2.6864-.5917 3.8099-1.138 1.6891-.8214 2.9367-1.9378 3.536-3.0155.1122-.2019.0387-.456-.1642-.5676-.2028-.1117-.4583-.0386-.5705.1632-.4921.8851-1.5848 1.8986-3.1699 2.6695-1.3532.658-2.8687 1.0401-4.8026 1.1024.4337.242.8652.5466 1.3613.786z" fill="url(#e)"/><path d="m23.0144 9.35388c.3254.39405.581.69642.847 1.10702.0016.4084.0347 1.0614 0 1.497-.1113 1.3948-.3123 2.7101-1.094 3.8586-.13.1909-.391.2409-.583.1116-.1919-.1293-.2422-.389-.1122-.58.6623-.973.8456-2.1188.9523-3.4563.0699-.8762.0475-1.8464-.0101-2.53792z" fill="url(#f)"/><path d="m28.2578 19.7344c-.0904.9179-.4443 1.8476-.8431 2.6319-.477.9383-1.0508 1.6863-1.4222 2.0784-.1589.1679-.151.4322.0177.5904.1688.1582.4344.1503.5934-.0176.4262-.4501 1.0467-1.2639 1.5603-2.2742.2166-.426.4276-.8831.5861-1.3761-.1462-.4883-.2963-1.0649-.4922-1.6328z" fill="url(#g)"/></svg>