<svg fill="none" height="32" viewBox="0 0 32 32" width="32" xmlns="http://www.w3.org/2000/svg"><path d="m15.9989 30c9.3344 0 13.9989-6.2676 13.9989-13.9989 0-7.73139-4.6645-13.9989-13.9989-13.9989-9.33447 0-13.9989 6.26751-13.9989 13.9989 0 7.7313 4.66443 13.9989 13.9989 13.9989z" fill="#ffce7c"/><path d="m16 2.75c-.5286 0-1.0404.02085-1.5354.0614-.4128.03382-.7749-.27344-.8087-.68627s.2734-.77491.6862-.80872c.5372-.04401 1.0899-.06641 1.6579-.06641s1.1207.0224 1.6579.06641c.4128.03381.72.39589.6862.80872s-.3959.72009-.8087.68627c-.495-.04055-1.0068-.0614-1.5354-.0614zm5.0451-.05627c.1438-.38846.5752-.58681.9637-.44304 1.0984.40654 2.0973.92943 2.9946 1.55442.3399.23675.4235.70421.1867 1.04409-.2367.33989-.7042.4235-1.0441.18676-.79-.5503-1.6753-1.01486-2.6579-1.37853-.3884-.14377-.5868-.57524-.443-.9637zm-10.0902 0c.1438.38846-.0546.81993-.4431.9637-.98253.36367-1.8678.82823-2.65783 1.37853-.33988.23674-.80734.15313-1.04409-.18676-.23674-.33988-.15313-.80734.18675-1.04409.89728-.62499 1.89614-1.14788 2.99456-1.55442.38851-.14377.81991.05458.96371.44304zm-6.08783 4.11541c.34135.23464.42785.70157.1932 1.04292-.55986.81446-1.01943 1.70853-1.3772 2.66764-.14477.3881-.57674.5854-.96483.4406s-.58535-.5767-.44058-.96483c.39817-1.06743.91316-2.07178 1.5465-2.99313.23464-.34134.70157-.42784 1.04291-.1932zm22.26583 0c.3414-.23464.8083-.14814 1.0429.1932.6334.92135 1.1484 1.9257 1.5465 2.99313.1448.38813-.0524.82003-.4405.96483s-.8201-.0525-.9649-.4406c-.3577-.95912-.8173-1.85318-1.3772-2.66764-.2346-.34135-.1481-.80828.1932-1.04292zm-24.99991 6.84786c.41267.0358.71817.3994.68236.812-.04352.5016-.06535 1.0124-.06535 1.531s.02183 1.0294.06535 1.531c.03581.4126-.26969.7762-.68236.812-.41266.0358-.77622-.2697-.81202-.6824-.04737-.5458-.07097-1.1-.07097-1.6606s.0236-1.1148.07097-1.6606c.0358-.4127.39936-.7182.81202-.6824zm27.73401 0c.4127-.0358.7762.2697.812.6824.0474.5458.071 1.1.071 1.6606s-.0236 1.1148-.071 1.6606c-.0358.4127-.3993.7182-.812.6824s-.7182-.3994-.6824-.812c.0436-.5016.0654-1.0124.0654-1.531s-.0218-1.0294-.0654-1.531c-.0358-.4126.2697-.7762.6824-.812zm-.5852 7.3827c.3881.1448.5853.5767.4405.9648-.3981 1.0675-.9131 2.0718-1.5465 2.9932-.2346.3413-.7015.4278-1.0429.1932-.3413-.2347-.4278-.7016-.1932-1.043.5599-.8144 1.0195-1.7085 1.3772-2.6676.1448-.3881.5768-.5854.9649-.4406zm-26.56356 0c.38809-.1448.82006.0525.96483.4406.35777.9591.81734 1.8532 1.3772 2.6676.23465.3414.14815.8083-.1932 1.043-.34134.2346-.80827.1481-1.04291-.1932-.63334-.9214-1.14833-1.9257-1.5465-2.9932-.14477-.3881.05249-.82.44058-.9648zm4.09164 6.1111c.23675-.3399.70421-.4235 1.04409-.1868.79003.5503 1.6753 1.0149 2.65783 1.3786.3885.1437.5869.5752.4431.9637-.1438.3884-.5752.5868-.96371.443-1.09842-.4065-2.09728-.9294-2.99456-1.5544-.33988-.2368-.42349-.7042-.18675-1.0441zm18.38022 0c.2368.3399.1532.8073-.1867 1.0441-.8973.625-1.8962 1.1479-2.9946 1.5544-.3885.1438-.8199-.0546-.9637-.443-.1438-.3885.0546-.82.4431-.9637.9825-.3637 1.8678-.8283 2.6578-1.3786.3399-.2367.8074-.1531 1.0441.1868zm-11.5342 2.7241c.0338-.4129.3959-.7201.8087-.6863.495.0406 1.0068.0614 1.5354.0614s1.0404-.0208 1.5354-.0614c.4128-.0338.7749.2734.8087.6863.0338.4128-.2734.7749-.6862.8087-.5372.044-1.0899.0664-1.6579.0664s-1.1207-.0224-1.6579-.0664c-.4128-.0338-.72-.3959-.6862-.8087z" fill="#d3883e"/><path d="m14.9989 11.501c0 2.4856-2.0149 4.5006-4.5005 4.5006-2.48563 0-4.5006-2.015-4.5006-4.5006 0-2.48554 2.01497-4.50051 4.5006-4.50051 2.4856 0 4.5005 2.01497 4.5005 4.50051zm1.9989 0c0 2.4856 2.015 4.5006 4.5005 4.5006 2.4856 0 4.5006-2.015 4.5006-4.5006 0-2.48554-2.015-4.50051-4.5006-4.50051-2.4855 0-4.5005 2.01497-4.5005 4.50051z" fill="#fff"/><path d="m11.12 14.6913c1.7729 0 3.2102-1.4373 3.2102-3.2102 0-1.77288-1.4373-3.2101-3.2102-3.2101-1.77287 0-3.21009 1.43722-3.21009 3.2101 0 1.7729 1.43722 3.2102 3.21009 3.2102zm9.7568 0c-1.7729 0-3.2101-1.4373-3.2101-3.2102 0-1.77288 1.4372-3.2101 3.2101-3.2101s3.2101 1.43722 3.2101 3.2101c0 1.7729-1.4372 3.2102-3.2101 3.2102zm-9.384 4.0611c-.4142 0-.75.3358-.75.75 0 .4143.3358.75.75.75h9.0121c.4142 0 .75-.3357.75-.75 0-.4142-.3358-.75-.75-.75z" fill="#402a32"/></svg>