<svg fill="none" height="32" viewBox="0 0 32 32" width="32" xmlns="http://www.w3.org/2000/svg"><path d="m2 6c0-2.20914 1.79086-4 4-4h20c2.2091 0 4 1.79086 4 4v20c0 2.2091-1.7909 4-4 4h-20c-2.20914 0-4-1.7909-4-4z" fill="#f92f60"/><path d="m11.755 8c-.965 0-1.7478.78108-1.75 1.74603l-.02843 12.52197c-.00106.4648.18283.911.51113 1.24.3283.3291.774.514 1.2389.514h5.7298c.0412 0 .0821-.0014.1227-.0042 2.664-.0379 4.8584-2.1821 4.8584-4.8791 0-1.5173-.6945-2.8596-1.7764-3.7504-.0968-.0797-.1255-.2168-.069-.3288.3305-.6539.5171-1.3934.5171-2.1799 0-2.7213-2.2339-4.8796-4.9302-4.8796zm4.3971 9.759c.009.0002.0179.0002.0269.0002.0151 0 .0301 0 .0452-.0002h1.2831c.8164 0 1.4302.644 1.4302 1.3797 0 .7356-.6138 1.3796-1.4302 1.3796-.0387 0-.0771.0012-.1151.0037h-3.6611c-.1383 0-.2503-.1123-.25-.2506l.0051-2.2629c.0004-.1379.1122-.2495.25-.2495zm.0519-3.5h-2.4587c-.1383 0-.2503-.1122-.25-.2505l.0051-2.2591c.0004-.1378.1122-.2494.25-.2494h2.4286c.8164 0 1.4302.644 1.4302 1.3796 0 .7281-.6013 1.3664-1.4052 1.3794z" fill="#fff"/></svg>