<svg enable-background="new 0 0 128 128" viewBox="0 0 32 32" xmlns="http://www.w3.org/2000/svg"><path d="m9.81475 24.34c-1.44 1.08-3.03 1.78-4.68 2.13-1.43.3-1.54 2.3-.15 2.76 4.75 1.56 10.15995.85 14.45995-2.38 4.44-3.33 6.64-8.54 6.31-13.7-.28-4.44995-5.39-6.81995-8.96-4.13995-1.52 1.13995-2.37 2.96995-2.23 4.85995.29 3.93-1.37 7.93-4.74995 10.47z" fill="#f8312f"/><path d="m20.9647 3c0-.55228-.4477-1-1-1s-1 .44772-1 1v2.03003h-1.61c-2.77 0-5.01 2.24-5.01 4.99997 0 1.07.46 2.1 1.26 2.82l.01.01c.72.65 1.82.65 2.54 0s1.82-.65 2.54 0 1.82.65 2.54 0 1.82-.65 2.54 0 1.82.65 2.54 0l.01-.01c.8-.72 1.26-1.74 1.26-2.82 0-2.75997-2.24-4.99997-5-4.99997h-1.62z" fill="#00d26a"/></svg>