<svg enable-background="new 0 0 128 128" viewBox="0 0 32 32" xmlns="http://www.w3.org/2000/svg"><path d="m9.1352 26.5-5.88324 3.4319c-.23853.1391-.54469.0586-.68383-.18-.13914-.2385-.05857-.5446.17995-.6838l5.75194-3.3553v-3.8423l-5.24806 3.0614c-.23853.1391-.54469.0586-.68383-.18-.13914-.2385-.05857-.5446.17995-.6838l5.75194-3.3553v-3.8423l-5.24806 3.0614c-.23853.1391-.54469.0586-.68383-.18-.13914-.2385-.05857-.5446.17995-.6838l5.75194-3.3553v-4.7128h1v4.5h5.99998v-4.5h1v4.5h6v-4.5h1v4.7128l5.752 3.3553c.2385.1392.3191.4453.1799.6838-.1391.2386-.4453.3191-.6838.18l-5.2481-3.0614v3.8423l5.752 3.3553c.2385.1392.3191.4453.1799.6838-.1391.2386-.4453.3191-.6838.18l-5.2481-3.0614v3.8423l5.752 3.3553c.2385.1392.3191.4453.1799.6838-.1391.2386-.4453.3191-.6838.18l-5.8833-3.4319zm13.3648-1v-4h-6v4zm0-5v-4h-6v4zm-12.99998-4v4h5.99998v-4zm0 5v4h5.99998v-4z" fill="#9b9b9b"/><path d="m5.08124 12.6887c-.61272.4377-1.08124 1.1349-1.08124 2.3113v14.5c0 .2761-.22386.5-.5.5h-1c-.27614 0-.5-.2239-.5-.5v-14.5c0-1.8236.78148-3.1264 1.91876-3.9387 1.09115-.7794 2.43843-1.0613 3.58124-1.0613h17c1.1428 0 2.4901.2819 3.5812 1.0613 1.1373.8123 1.9188 2.1151 1.9188 3.9387v14.5c0 .2761-.2239.5-.5.5h-1c-.2761 0-.5-.2239-.5-.5v-14.5c0-1.1764-.4685-1.8736-1.0812-2.3113-.6589-.4706-1.5616-.6887-2.4188-.6887h-17c-.85719 0-1.75991.2181-2.41876.6887z" fill="#f8312f"/></svg>