<svg fill="none" height="32" viewBox="0 0 32 32" width="32" xmlns="http://www.w3.org/2000/svg" xmlns:xlink="http://www.w3.org/1999/xlink"><filter id="a" color-interpolation-filters="sRGB" filterUnits="userSpaceOnUse" height="2.10282" width="4.48002" x="11.5827" y="16.1199"><feFlood flood-opacity="0" result="BackgroundImageFix"/><feBlend in="SourceGraphic" in2="BackgroundImageFix" mode="normal" result="shape"/><feGaussianBlur result="effect1_foregroundBlur_18_15324" stdDeviation=".1"/></filter><filter id="b" color-interpolation-filters="sRGB" filterUnits="userSpaceOnUse" height="1.85282" width="4.58002" x="11.9799" y="16.02"><feFlood flood-opacity="0" result="BackgroundImageFix"/><feBlend in="SourceGraphic" in2="BackgroundImageFix" mode="normal" result="shape"/><feColorMatrix in="SourceAlpha" result="hardAlpha" type="matrix" values="0 0 0 0 0 0 0 0 0 0 0 0 0 0 0 0 0 0 127 0"/><feOffset dx=".5" dy="-.15"/><feGaussianBlur stdDeviation=".25"/><feComposite in2="hardAlpha" k2="-1" k3="1" operator="arithmetic"/><feColorMatrix type="matrix" values="0 0 0 0 0.0745098 0 0 0 0 0.168627 0 0 0 0 0.223529 0 0 0 1 0"/><feBlend in2="shape" mode="normal" result="effect1_innerShadow_18_15324"/></filter><filter id="c" color-interpolation-filters="sRGB" filterUnits="userSpaceOnUse" height="2.25779" width="4.48875" x="10.6818" y="12.0757"><feFlood flood-opacity="0" result="BackgroundImageFix"/><feBlend in="SourceGraphic" in2="BackgroundImageFix" mode="normal" result="shape"/><feGaussianBlur result="effect1_foregroundBlur_18_15324" stdDeviation=".1"/></filter><filter id="d" color-interpolation-filters="sRGB" filterUnits="userSpaceOnUse" height="1.95779" width="4.51373" x="10.9511" y="12.1522"><feFlood flood-opacity="0" result="BackgroundImageFix"/><feBlend in="SourceGraphic" in2="BackgroundImageFix" mode="normal" result="shape"/><feColorMatrix in="SourceAlpha" result="hardAlpha" type="matrix" values="0 0 0 0 0 0 0 0 0 0 0 0 0 0 0 0 0 0 127 0"/><feOffset dx=".25" dy=".1"/><feGaussianBlur stdDeviation=".25"/><feComposite in2="hardAlpha" k2="-1" k3="1" operator="arithmetic"/><feColorMatrix type="matrix" values="0 0 0 0 0.0901961 0 0 0 0 0.32549 0 0 0 0 0.670588 0 0 0 1 0"/><feBlend in2="shape" mode="normal" result="effect1_innerShadow_18_15324"/></filter><filter id="e" color-interpolation-filters="sRGB" filterUnits="userSpaceOnUse" height="10.48" width="11.4968" x="18.6232" y="16.9"><feFlood flood-opacity="0" result="BackgroundImageFix"/><feBlend in="SourceGraphic" in2="BackgroundImageFix" mode="normal" result="shape"/><feColorMatrix in="SourceAlpha" result="hardAlpha" type="matrix" values="0 0 0 0 0 0 0 0 0 0 0 0 0 0 0 0 0 0 127 0"/><feOffset dy="-.1"/><feGaussianBlur stdDeviation=".25"/><feComposite in2="hardAlpha" k2="-1" k3="1" operator="arithmetic"/><feColorMatrix type="matrix" values="0 0 0 0 0.266667 0 0 0 0 0.478431 0 0 0 0 0.690196 0 0 0 1 0"/><feBlend in2="shape" mode="normal" result="effect1_innerShadow_18_15324"/></filter><filter id="f" color-interpolation-filters="sRGB" filterUnits="userSpaceOnUse" height="6.14375" width="6.14375" x="20.8615" y="16.7713"><feFlood flood-opacity="0" result="BackgroundImageFix"/><feBlend in="SourceGraphic" in2="BackgroundImageFix" mode="normal" result="shape"/><feGaussianBlur result="effect1_foregroundBlur_18_15324" stdDeviation=".2"/></filter><filter id="g" color-interpolation-filters="sRGB" filterUnits="userSpaceOnUse" height="8.0625" width="8.0625" x="22.3865" y="18.2275"><feFlood flood-opacity="0" result="BackgroundImageFix"/><feBlend in="SourceGraphic" in2="BackgroundImageFix" mode="normal" result="shape"/><feGaussianBlur result="effect1_foregroundBlur_18_15324" stdDeviation=".25"/></filter><filter id="h" color-interpolation-filters="sRGB" filterUnits="userSpaceOnUse" height="3.40449" width="3.47969" x="22.3849" y="24.1659"><feFlood flood-opacity="0" result="BackgroundImageFix"/><feBlend in="SourceGraphic" in2="BackgroundImageFix" mode="normal" result="shape"/><feGaussianBlur result="effect1_foregroundBlur_18_15324" stdDeviation=".2"/></filter><linearGradient id="i" gradientUnits="userSpaceOnUse" x1="17.0173" x2="17.0173" y1="9.91889" y2="31.7275"><stop offset="0" stop-color="#4cd1ff"/><stop offset="1" stop-color="#48c5fa"/></linearGradient><linearGradient id="j"><stop offset="0" stop-color="#5debff"/><stop offset="1" stop-color="#5debff" stop-opacity="0"/></linearGradient><radialGradient id="k" cx="0" cy="0" gradientTransform="matrix(0 6 -4.14834 0 16.6365 10.9775)" gradientUnits="userSpaceOnUse" r="1" xlink:href="#j"/><radialGradient id="l" cx="0" cy="0" gradientTransform="matrix(-2.4374767 -3.71876059 1.860961 -1.21977443 19.3553 19.04)" gradientUnits="userSpaceOnUse" r="1" xlink:href="#j"/><radialGradient id="m" cx="0" cy="0" gradientTransform="matrix(-1.78124018 -1.84375526 .98406636 -.95070022 18.4178 21.79)" gradientUnits="userSpaceOnUse" r="1"><stop offset=".184844" stop-color="#2598e2"/><stop offset="1" stop-color="#2598e2" stop-opacity="0"/></radialGradient><radialGradient id="n" cx="0" cy="0" gradientTransform="matrix(-5.22445429 1.74148995 -.54557025 -1.63670589 11.7381 9.08764)" gradientUnits="userSpaceOnUse" r="1"><stop offset="0" stop-color="#1f84cf"/><stop offset="1" stop-color="#1f84cf" stop-opacity="0"/></radialGradient><radialGradient id="o" cx="0" cy="0" gradientTransform="matrix(0 -8.029 3.08431 0 14.6919 27.9621)" gradientUnits="userSpaceOnUse" r="1"><stop offset="0" stop-color="#46d8ff"/><stop offset="1" stop-color="#46d8ff" stop-opacity="0"/></radialGradient><linearGradient id="p" gradientUnits="userSpaceOnUse" x1="10.5149" x2="10.5149" y1="30.415" y2="27.6025"><stop offset="0" stop-color="#3a83b9"/><stop offset="1" stop-color="#3a83b9" stop-opacity="0"/></linearGradient><radialGradient id="q" cx="0" cy="0" gradientTransform="matrix(-2.03173455 -.11611733 .04212097 -.73700134 18.1042 23.987)" gradientUnits="userSpaceOnUse" r="1"><stop offset=".235294" stop-color="#29aced"/><stop offset="1" stop-color="#29aced" stop-opacity="0"/></radialGradient><radialGradient id="r" cx="0" cy="0" gradientTransform="matrix(-1.53106961 -1.11475695 .48341451 -.66394855 17.3326 26.3208)" gradientUnits="userSpaceOnUse" r="1"><stop offset="0" stop-color="#3a72b9"/><stop offset="1" stop-color="#29aced" stop-opacity="0"/></radialGradient><linearGradient id="s"><stop offset="0" stop-color="#46daff"/><stop offset="1" stop-color="#46daff" stop-opacity="0"/></linearGradient><radialGradient id="t" cx="0" cy="0" gradientTransform="matrix(-.12238761 -.66092385 1.4844238 -.27488051 16.7971 22.6502)" gradientUnits="userSpaceOnUse" r="1" xlink:href="#s"/><radialGradient id="u" cx="0" cy="0" gradientTransform="matrix(.220309 -.53853105 1.20953187 .49481037 16.6992 24.535)" gradientUnits="userSpaceOnUse" r="1" xlink:href="#s"/><radialGradient id="v" cx="0" cy="0" gradientTransform="matrix(-.26563037 -1.34374684 2.84696766 -.56278537 13.4646 14.3213)" gradientUnits="userSpaceOnUse" r="1"><stop offset="0" stop-color="#1255b1"/><stop offset="1" stop-color="#1255b1" stop-opacity="0"/></radialGradient><radialGradient id="w" cx="0" cy="0" gradientTransform="matrix(-2.8203092 .42391385 -.17988309 -1.19676661 14.7303 12.6572)" gradientUnits="userSpaceOnUse" r="1"><stop offset="0" stop-color="#52c4ff"/><stop offset="1" stop-color="#3b85d9" stop-opacity="0"/></radialGradient><radialGradient id="x" cx="0" cy="0" gradientTransform="matrix(-1.06272637 -.04688281 .04270935 -.96812338 15.2149 12.7588)" gradientUnits="userSpaceOnUse" r="1"><stop offset="0" stop-color="#52c4ff"/><stop offset="1" stop-color="#52c4ff" stop-opacity="0"/></radialGradient><linearGradient id="y" gradientUnits="userSpaceOnUse" x1=".557005" x2="15.5715" y1="16" y2="16"><stop offset="0" stop-color="#284fa2"/><stop offset="1" stop-color="#3999e8"/></linearGradient><linearGradient id="z" gradientUnits="userSpaceOnUse" x1="13.7057" x2="8.73055" y1=".49108" y2="21.6357"><stop offset="0" stop-color="#4996d2"/><stop offset="1" stop-color="#4996d2" stop-opacity="0"/></linearGradient><radialGradient id="A" cx="0" cy="0" gradientTransform="matrix(-5.175443 1.66354632 -.86197186 -2.68167238 14.0342 9.82315)" gradientUnits="userSpaceOnUse" r="1"><stop offset="0" stop-color="#1c7aca"/><stop offset="1" stop-color="#1c7aca" stop-opacity="0"/></radialGradient><radialGradient id="B" cx="0" cy="0" gradientTransform="matrix(-3.55367906 5.68597112 -4.24212925 -2.65129133 16.371 2.53447)" gradientUnits="userSpaceOnUse" r="1"><stop offset="0" stop-color="#52c1ff"/><stop offset="1" stop-color="#52c1ff" stop-opacity="0"/></radialGradient><radialGradient id="C" cx="0" cy="0" gradientTransform="matrix(0 -10.4741 5.52372 0 9.16678 20.4205)" gradientUnits="userSpaceOnUse" r="1"><stop offset="0" stop-color="#4f9cf1"/><stop offset="1" stop-color="#4f9cf1" stop-opacity="0"/></radialGradient><linearGradient id="D" gradientUnits="userSpaceOnUse" x1="4.88651" x2="4.88651" y1="31.29" y2="25.79"><stop offset="0" stop-color="#384b91"/><stop offset="1" stop-color="#384b91" stop-opacity="0"/></linearGradient><radialGradient id="E" cx="0" cy="0" gradientTransform="matrix(2.18750191 2.81250079 -5.62932724 4.37836821 23.074 23.6025)" gradientUnits="userSpaceOnUse" r="1"><stop offset="0" stop-color="#34a2c9"/><stop offset="1" stop-color="#34a2c9" stop-opacity="0"/></radialGradient><radialGradient id="F" cx="0" cy="0" gradientTransform="matrix(-5.18750278 .97503233 -1.67169589 -8.89398931 30.3553 22.19)" gradientUnits="userSpaceOnUse" r="1"><stop offset="0" stop-color="#5de8ff"/><stop offset="1" stop-color="#5de8ff" stop-opacity="0"/></radialGradient><radialGradient id="G" cx="0" cy="0" gradientTransform="matrix(-.12500261 -3.4062471 3.40193 -.12484418 27.3553 26.1025)" gradientUnits="userSpaceOnUse" r="1"><stop offset="0" stop-color="#2e80bf"/><stop offset="1" stop-color="#2e80bf" stop-opacity="0"/></radialGradient><radialGradient id="H" cx="0" cy="0" gradientTransform="matrix(.264879 -2.9531247 3.27085916 .29337803 24.3716 27.6182)" gradientUnits="userSpaceOnUse" r="1"><stop offset="0" stop-color="#3678b3"/><stop offset="1" stop-color="#3678b3" stop-opacity="0"/></radialGradient><radialGradient id="I" cx="0" cy="0" gradientTransform="matrix(5.03125438 -.96874849 .46707689 2.4257923 19.8865 24.7588)" gradientUnits="userSpaceOnUse" r="1"><stop offset="0" stop-color="#4acfec"/><stop offset="1" stop-color="#4acfec" stop-opacity="0"/></radialGradient><radialGradient id="J" cx="0" cy="0" gradientTransform="matrix(1.79892205 -1.51986797 1.00223309 1.18624725 22.5727 26.5856)" gradientUnits="userSpaceOnUse" r="1"><stop offset=".28722" stop-color="#3777af"/><stop offset="1" stop-color="#3777af" stop-opacity="0"/></radialGradient><radialGradient id="K" cx="0" cy="0" gradientTransform="matrix(-3.43748289 2.00002032 -2.46384432 -4.23466831 25.5115 18.6025)" gradientUnits="userSpaceOnUse" r="1"><stop offset="0" stop-color="#5ff5ff"/><stop offset="1" stop-color="#5ff5ff" stop-opacity="0"/></radialGradient><linearGradient id="L"><stop offset="0" stop-color="#66f0ff"/><stop offset="1" stop-color="#66f0ff" stop-opacity="0"/></linearGradient><radialGradient id="M" cx="0" cy="0" gradientTransform="matrix(-1.8749633 4.09376477 -4.28118271 -1.96080159 27.574 17.5088)" gradientUnits="userSpaceOnUse" r="1" xlink:href="#L"/><radialGradient id="N" cx="0" cy="0" gradientTransform="matrix(-4.42103817 1.71871476 -1.79739698 -4.62343192 30.12 19.8838)" gradientUnits="userSpaceOnUse" r="1" xlink:href="#L"/><radialGradient id="O" cx="0" cy="0" gradientTransform="matrix(-1.21598747 4.86403772 -4.86403772 -1.21598747 24.4165 17.651)" gradientUnits="userSpaceOnUse" r="1"><stop offset=".52872" stop-color="#3591bf" stop-opacity="0"/><stop offset="1" stop-color="#3591bf"/></radialGradient><radialGradient id="P" cx="0" cy="0" gradientTransform="matrix(-5.43747649 3.68754133 -3.68754133 -5.43747649 29.949 20.7275)" gradientUnits="userSpaceOnUse" r="1"><stop offset=".291765" stop-color="#59e7ff"/><stop offset="1" stop-color="#3099cf"/></radialGradient><radialGradient id="Q" cx="0" cy="0" gradientTransform="matrix(-1.03125169 7.37499868 -7.37499868 -1.03125169 27.449 18.7275)" gradientUnits="userSpaceOnUse" r="1"><stop offset=".723549" stop-color="#2e80bf" stop-opacity="0"/><stop offset="1" stop-color="#2e80bf"/></radialGradient><radialGradient id="R" cx="0" cy="0" gradientTransform="matrix(-1.62501501 2.08592114 -1.74433271 -1.35890412 25.0115 25.0845)" gradientUnits="userSpaceOnUse" r="1"><stop offset=".340589" stop-color="#56e6ff"/><stop offset="1" stop-color="#358cc4"/></radialGradient><path d="m2.00995 6.28003 7.64999-.14002c4.05006 0 7.36996 3.32001 7.37996 7.38999v2.761c0 .1629.0395.3236.1172.4667.5645 1.0398.9965 1.6301 1.3017 2.0471.3777.5159.5611.7666.5611 1.2752 0 .95-1.04 1.72-1.99 1.72-.0029 0-.0053.0024-.0054.0053-.0049.235-.0114.4668-.0201.695.0085-.0002.017-.0003.0256-.0003.5412 0 .98.4388.98.98 0 .4348-.2832.8035-.6752.9317.3868.1311.6652.4972.6652.9283 0 .5412-.4388.98-.98.98-.1869 0-.3616-.0524-.5103-.1432-.6892 2.3266-2.2743 3.7832-5.9198 3.7832-.70056 0-1.87619.0075-3.2106.016-1.75122.0111-3.77594.024-5.35934.024z" fill="url(#i)"/><path d="m2.00995 6.28003 7.64999-.14002c4.05006 0 7.36996 3.32001 7.37996 7.38999v2.761c0 .1629.0395.3236.1172.4667.5645 1.0398.9965 1.6301 1.3017 2.0471.3777.5159.5611.7666.5611 1.2752 0 .95-1.04 1.72-1.99 1.72-.0029 0-.0053.0024-.0054.0053-.0049.235-.0114.4668-.0201.695.0085-.0002.017-.0003.0256-.0003.5412 0 .98.4388.98.98 0 .4348-.2832.8035-.6752.9317.3868.1311.6652.4972.6652.9283 0 .5412-.4388.98-.98.98-.1869 0-.3616-.0524-.5103-.1432-.6892 2.3266-2.2743 3.7832-5.9198 3.7832-.70056 0-1.87619.0075-3.2106.016-1.75122.0111-3.77594.024-5.35934.024z" fill="url(#k)"/><path d="m2.00995 6.28003 7.64999-.14002c4.05006 0 7.36996 3.32001 7.37996 7.38999v2.761c0 .1629.0395.3236.1172.4667.5645 1.0398.9965 1.6301 1.3017 2.0471.3777.5159.5611.7666.5611 1.2752 0 .95-1.04 1.72-1.99 1.72-.0029 0-.0053.0024-.0054.0053-.0049.235-.0114.4668-.0201.695.0085-.0002.017-.0003.0256-.0003.5412 0 .98.4388.98.98 0 .4348-.2832.8035-.6752.9317.3868.1311.6652.4972.6652.9283 0 .5412-.4388.98-.98.98-.1869 0-.3616-.0524-.5103-.1432-.6892 2.3266-2.2743 3.7832-5.9198 3.7832-.70056 0-1.87619.0075-3.2106.016-1.75122.0111-3.77594.024-5.35934.024z" fill="url(#l)"/><path d="m2.00995 6.28003 7.64999-.14002c4.05006 0 7.36996 3.32001 7.37996 7.38999v2.761c0 .1629.0395.3236.1172.4667.5645 1.0398.9965 1.6301 1.3017 2.0471.3777.5159.5611.7666.5611 1.2752 0 .95-1.04 1.72-1.99 1.72-.0029 0-.0053.0024-.0054.0053-.0049.235-.0114.4668-.0201.695.0085-.0002.017-.0003.0256-.0003.5412 0 .98.4388.98.98 0 .4348-.2832.8035-.6752.9317.3868.1311.6652.4972.6652.9283 0 .5412-.4388.98-.98.98-.1869 0-.3616-.0524-.5103-.1432-.6892 2.3266-2.2743 3.7832-5.9198 3.7832-.70056 0-1.87619.0075-3.2106.016-1.75122.0111-3.77594.024-5.35934.024z" fill="url(#m)"/><path d="m2.00995 6.28003 7.64999-.14002c4.05006 0 7.36996 3.32001 7.37996 7.38999v2.761c0 .1629.0395.3236.1172.4667.5645 1.0398.9965 1.6301 1.3017 2.0471.3777.5159.5611.7666.5611 1.2752 0 .95-1.04 1.72-1.99 1.72-.0029 0-.0053.0024-.0054.0053-.0049.235-.0114.4668-.0201.695.0085-.0002.017-.0003.0256-.0003.5412 0 .98.4388.98.98 0 .4348-.2832.8035-.6752.9317.3868.1311.6652.4972.6652.9283 0 .5412-.4388.98-.98.98-.1869 0-.3616-.0524-.5103-.1432-.6892 2.3266-2.2743 3.7832-5.9198 3.7832-.70056 0-1.87619.0075-3.2106.016-1.75122.0111-3.77594.024-5.35934.024z" fill="url(#n)"/><path d="m2.00995 6.28003 7.64999-.14002c4.05006 0 7.36996 3.32001 7.37996 7.38999v2.761c0 .1629.0395.3236.1172.4667.5645 1.0398.9965 1.6301 1.3017 2.0471.3777.5159.5611.7666.5611 1.2752 0 .95-1.04 1.72-1.99 1.72-.0029 0-.0053.0024-.0054.0053-.0049.235-.0114.4668-.0201.695.0085-.0002.017-.0003.0256-.0003.5412 0 .98.4388.98.98 0 .4348-.2832.8035-.6752.9317.3868.1311.6652.4972.6652.9283 0 .5412-.4388.98-.98.98-.1869 0-.3616-.0524-.5103-.1432-.6892 2.3266-2.2743 3.7832-5.9198 3.7832-.70056 0-1.87619.0075-3.2106.016-1.75122.0111-3.77594.024-5.35934.024z" fill="url(#o)"/><path d="m2.00995 6.28003 7.64999-.14002c4.05006 0 7.36996 3.32001 7.37996 7.38999v2.761c0 .1629.0395.3236.1172.4667.5645 1.0398.9965 1.6301 1.3017 2.0471.3777.5159.5611.7666.5611 1.2752 0 .95-1.04 1.72-1.99 1.72-.0029 0-.0053.0024-.0054.0053-.0049.235-.0114.4668-.0201.695.0085-.0002.017-.0003.0256-.0003.5412 0 .98.4388.98.98 0 .4348-.2832.8035-.6752.9317.3868.1311.6652.4972.6652.9283 0 .5412-.4388.98-.98.98-.1869 0-.3616-.0524-.5103-.1432-.6892 2.3266-2.2743 3.7832-5.9198 3.7832-.70056 0-1.87619.0075-3.2106.016-1.75122.0111-3.77594.024-5.35934.024z" fill="url(#p)"/><path d="m2.00995 6.28003 7.64999-.14002c4.05006 0 7.36996 3.32001 7.37996 7.38999v2.761c0 .1629.0395.3236.1172.4667.5645 1.0398.9965 1.6301 1.3017 2.0471.3777.5159.5611.7666.5611 1.2752 0 .95-1.04 1.72-1.99 1.72-.0029 0-.0053.0024-.0054.0053-.0049.235-.0114.4668-.0201.695.0085-.0002.017-.0003.0256-.0003.5412 0 .98.4388.98.98 0 .4348-.2832.8035-.6752.9317.3868.1311.6652.4972.6652.9283 0 .5412-.4388.98-.98.98-.1869 0-.3616-.0524-.5103-.1432-.6892 2.3266-2.2743 3.7832-5.9198 3.7832-.70056 0-1.87619.0075-3.2106.016-1.75122.0111-3.77594.024-5.35934.024z" fill="url(#q)"/><path d="m2.00995 6.28003 7.64999-.14002c4.05006 0 7.36996 3.32001 7.37996 7.38999v2.761c0 .1629.0395.3236.1172.4667.5645 1.0398.9965 1.6301 1.3017 2.0471.3777.5159.5611.7666.5611 1.2752 0 .95-1.04 1.72-1.99 1.72-.0029 0-.0053.0024-.0054.0053-.0049.235-.0114.4668-.0201.695.0085-.0002.017-.0003.0256-.0003.5412 0 .98.4388.98.98 0 .4348-.2832.8035-.6752.9317.3868.1311.6652.4972.6652.9283 0 .5412-.4388.98-.98.98-.1869 0-.3616-.0524-.5103-.1432-.6892 2.3266-2.2743 3.7832-5.9198 3.7832-.70056 0-1.87619.0075-3.2106.016-1.75122.0111-3.77594.024-5.35934.024z" fill="url(#r)"/><path d="m2.00995 6.28003 7.64999-.14002c4.05006 0 7.36996 3.32001 7.37996 7.38999v2.761c0 .1629.0395.3236.1172.4667.5645 1.0398.9965 1.6301 1.3017 2.0471.3777.5159.5611.7666.5611 1.2752 0 .95-1.04 1.72-1.99 1.72-.0029 0-.0053.0024-.0054.0053-.0049.235-.0114.4668-.0201.695.0085-.0002.017-.0003.0256-.0003.5412 0 .98.4388.98.98 0 .4348-.2832.8035-.6752.9317.3868.1311.6652.4972.6652.9283 0 .5412-.4388.98-.98.98-.1869 0-.3616-.0524-.5103-.1432-.6892 2.3266-2.2743 3.7832-5.9198 3.7832-.70056 0-1.87619.0075-3.2106.016-1.75122.0111-3.77594.024-5.35934.024z" fill="url(#t)"/><path d="m2.00995 6.28003 7.64999-.14002c4.05006 0 7.36996 3.32001 7.37996 7.38999v2.761c0 .1629.0395.3236.1172.4667.5645 1.0398.9965 1.6301 1.3017 2.0471.3777.5159.5611.7666.5611 1.2752 0 .95-1.04 1.72-1.99 1.72-.0029 0-.0053.0024-.0054.0053-.0049.235-.0114.4668-.0201.695.0085-.0002.017-.0003.0256-.0003.5412 0 .98.4388.98.98 0 .4348-.2832.8035-.6752.9317.3868.1311.6652.4972.6652.9283 0 .5412-.4388.98-.98.98-.1869 0-.3616-.0524-.5103-.1432-.6892 2.3266-2.2743 3.7832-5.9198 3.7832-.70056 0-1.87619.0075-3.2106.016-1.75122.0111-3.77594.024-5.35934.024z" fill="url(#u)"/><g filter="url(#a)"><path clip-rule="evenodd" d="m15.7015 16.4522c.2031.1871.216.5035.0289.7065-1.0078 1.0939-2.7057 1.1561-3.7885.1471-.2021-.1883-.2132-.5047-.025-.7067.1883-.202.5047-.2132.7067-.025.6771.631 1.7393.5932 2.3714-.0929.1871-.2031.5034-.2161.7065-.029z" fill="#286aa1" fill-rule="evenodd"/></g><g filter="url(#b)"><path clip-rule="evenodd" d="m15.8987 16.3023c.2031.1871.2161.5034.0289.7065-1.0078 1.0939-2.7057 1.156-3.7885.147-.2021-.1883-.2132-.5046-.025-.7067.1883-.202.5047-.2132.7067-.0249.6771.631 1.7393.5931 2.3714-.093.1871-.2031.5034-.216.7065-.0289z" fill="#4d4c4e" fill-rule="evenodd"/></g><g filter="url(#c)"><path d="m11.4047 14.1333c-.1541.004-.31-.0594-.4099-.1918-.1792-.2171-.1393-.5363.0778-.7154.0566-.0497 1.3978-1.1162 3.4369-.9282.2802.0216.4893.2765.458.5569-.0216.2801-.2765.4892-.5569.458-1.5947-.1514-2.691.6966-2.7003.7065-.0946.07-.1996.1112-.3056.114z" fill="#2875bd"/></g><g filter="url(#d)"><path d="m11.48 14.01c-.16 0-.32-.07-.42-.21-.18-.23-.13-.56.1-.74.06-.05 1.48-1.12 3.59-.87.29.03.5.3.46.59-.03.29-.3.5-.59.46-1.65-.2-2.81.65-2.82.66-.1.07-.21.11-.32.11z" fill="#1c93e9"/><path d="m11.48 14.01c-.16 0-.32-.07-.42-.21-.18-.23-.13-.56.1-.74.06-.05 1.48-1.12 3.59-.87.29.03.5.3.46.59-.03.29-.3.5-.59.46-1.65-.2-2.81.65-2.82.66-.1.07-.21.11-.32.11z" fill="url(#v)"/></g><path d="m11.48 14.01c-.16 0-.32-.07-.42-.21-.18-.23-.13-.56.1-.74.06-.05 1.48-1.12 3.59-.87.29.03.5.3.46.59-.03.29-.3.5-.59.46-1.65-.2-2.81.65-2.82.66-.1.07-.21.11-.32.11z" fill="url(#w)"/><path d="m11.48 14.01c-.16 0-.32-.07-.42-.21-.18-.23-.13-.56.1-.74.06-.05 1.48-1.12 3.59-.87.29.03.5.3.46.59-.03.29-.3.5-.59.46-1.65-.2-2.81.65-2.82.66-.1.07-.21.11-.32.11z" fill="url(#x)"/><path d="m12.9099 2c-4.16995 0-10.67995.05-10.88995 0l-.01 28c8.42995 0 6.24-12.44 7.51-16.92 1.51995-5.37 7.50995-1.08 7.50995-7.09 0-3.15-1.33-3.99-4.12-3.99z" fill="url(#y)"/><path d="m12.9099 2c-4.16995 0-10.67995.05-10.88995 0l-.01 28c8.42995 0 6.24-12.44 7.51-16.92 1.51995-5.37 7.50995-1.08 7.50995-7.09 0-3.15-1.33-3.99-4.12-3.99z" fill="url(#z)"/><path d="m12.9099 2c-4.16995 0-10.67995.05-10.88995 0l-.01 28c8.42995 0 6.24-12.44 7.51-16.92 1.51995-5.37 7.50995-1.08 7.50995-7.09 0-3.15-1.33-3.99-4.12-3.99z" fill="url(#A)"/><path d="m12.9099 2c-4.16995 0-10.67995.05-10.88995 0l-.01 28c8.42995 0 6.24-12.44 7.51-16.92 1.51995-5.37 7.50995-1.08 7.50995-7.09 0-3.15-1.33-3.99-4.12-3.99z" fill="url(#B)"/><path d="m12.9099 2c-4.16995 0-10.67995.05-10.88995 0l-.01 28c8.42995 0 6.24-12.44 7.51-16.92 1.51995-5.37 7.50995-1.08 7.50995-7.09 0-3.15-1.33-3.99-4.12-3.99z" fill="url(#C)"/><path d="m12.9099 2c-4.16995 0-10.67995.05-10.88995 0l-.01 28c8.42995 0 6.24-12.44 7.51-16.92 1.51995-5.37 7.50995-1.08 7.50995-7.09 0-3.15-1.33-3.99-4.12-3.99z" fill="url(#D)"/><g filter="url(#e)"><path d="m26.48 18.54c-.04 0-.17.01-.21.01-.45-.91-1.38-1.55-2.47-1.55-1.53 0-2.78 1.24-2.78 2.78 0 .5458.1614 1.0523.4372 1.4799.2786.4317.3952 1.0042.0589 1.3926-.6419.7413-1.5269 1.4103-2.7161 1.6375-.2.04-.24.3-.07.41.7.44 2.12 1.17 3.93 1.32.05.76.67 1.36 1.44 1.36.7368 0 1.3464-.5513 1.4381-1.2634.0123-.0952.1008-.1667.1952-.1494.2125.0387.4296.0628.6467.0628 2.07 0 3.74-1.68 3.74-3.74s-1.57-3.75-3.64-3.75z" fill="#38b6e3"/><path d="m26.48 18.54c-.04 0-.17.01-.21.01-.45-.91-1.38-1.55-2.47-1.55-1.53 0-2.78 1.24-2.78 2.78 0 .5458.1614 1.0523.4372 1.4799.2786.4317.3952 1.0042.0589 1.3926-.6419.7413-1.5269 1.4103-2.7161 1.6375-.2.04-.24.3-.07.41.7.44 2.12 1.17 3.93 1.32.05.76.67 1.36 1.44 1.36.7368 0 1.3464-.5513 1.4381-1.2634.0123-.0952.1008-.1667.1952-.1494.2125.0387.4296.0628.6467.0628 2.07 0 3.74-1.68 3.74-3.74s-1.57-3.75-3.64-3.75z" fill="url(#E)"/><path d="m26.48 18.54c-.04 0-.17.01-.21.01-.45-.91-1.38-1.55-2.47-1.55-1.53 0-2.78 1.24-2.78 2.78 0 .5458.1614 1.0523.4372 1.4799.2786.4317.3952 1.0042.0589 1.3926-.6419.7413-1.5269 1.4103-2.7161 1.6375-.2.04-.24.3-.07.41.7.44 2.12 1.17 3.93 1.32.05.76.67 1.36 1.44 1.36.7368 0 1.3464-.5513 1.4381-1.2634.0123-.0952.1008-.1667.1952-.1494.2125.0387.4296.0628.6467.0628 2.07 0 3.74-1.68 3.74-3.74s-1.57-3.75-3.64-3.75z" fill="url(#F)"/><path d="m26.48 18.54c-.04 0-.17.01-.21.01-.45-.91-1.38-1.55-2.47-1.55-1.53 0-2.78 1.24-2.78 2.78 0 .5458.1614 1.0523.4372 1.4799.2786.4317.3952 1.0042.0589 1.3926-.6419.7413-1.5269 1.4103-2.7161 1.6375-.2.04-.24.3-.07.41.7.44 2.12 1.17 3.93 1.32.05.76.67 1.36 1.44 1.36.7368 0 1.3464-.5513 1.4381-1.2634.0123-.0952.1008-.1667.1952-.1494.2125.0387.4296.0628.6467.0628 2.07 0 3.74-1.68 3.74-3.74s-1.57-3.75-3.64-3.75z" fill="url(#G)"/><path d="m26.48 18.54c-.04 0-.17.01-.21.01-.45-.91-1.38-1.55-2.47-1.55-1.53 0-2.78 1.24-2.78 2.78 0 .5458.1614 1.0523.4372 1.4799.2786.4317.3952 1.0042.0589 1.3926-.6419.7413-1.5269 1.4103-2.7161 1.6375-.2.04-.24.3-.07.41.7.44 2.12 1.17 3.93 1.32.05.76.67 1.36 1.44 1.36.7368 0 1.3464-.5513 1.4381-1.2634.0123-.0952.1008-.1667.1952-.1494.2125.0387.4296.0628.6467.0628 2.07 0 3.74-1.68 3.74-3.74s-1.57-3.75-3.64-3.75z" fill="url(#H)"/><path d="m26.48 18.54c-.04 0-.17.01-.21.01-.45-.91-1.38-1.55-2.47-1.55-1.53 0-2.78 1.24-2.78 2.78 0 .5458.1614 1.0523.4372 1.4799.2786.4317.3952 1.0042.0589 1.3926-.6419.7413-1.5269 1.4103-2.7161 1.6375-.2.04-.24.3-.07.41.7.44 2.12 1.17 3.93 1.32.05.76.67 1.36 1.44 1.36.7368 0 1.3464-.5513 1.4381-1.2634.0123-.0952.1008-.1667.1952-.1494.2125.0387.4296.0628.6467.0628 2.07 0 3.74-1.68 3.74-3.74s-1.57-3.75-3.64-3.75z" fill="url(#I)"/><path d="m26.48 18.54c-.04 0-.17.01-.21.01-.45-.91-1.38-1.55-2.47-1.55-1.53 0-2.78 1.24-2.78 2.78 0 .5458.1614 1.0523.4372 1.4799.2786.4317.3952 1.0042.0589 1.3926-.6419.7413-1.5269 1.4103-2.7161 1.6375-.2.04-.24.3-.07.41.7.44 2.12 1.17 3.93 1.32.05.76.67 1.36 1.44 1.36.7368 0 1.3464-.5513 1.4381-1.2634.0123-.0952.1008-.1667.1952-.1494.2125.0387.4296.0628.6467.0628 2.07 0 3.74-1.68 3.74-3.74s-1.57-3.75-3.64-3.75z" fill="url(#J)"/><path d="m26.48 18.54c-.04 0-.17.01-.21.01-.45-.91-1.38-1.55-2.47-1.55-1.53 0-2.78 1.24-2.78 2.78 0 .5458.1614 1.0523.4372 1.4799.2786.4317.3952 1.0042.0589 1.3926-.6419.7413-1.5269 1.4103-2.7161 1.6375-.2.04-.24.3-.07.41.7.44 2.12 1.17 3.93 1.32.05.76.67 1.36 1.44 1.36.7368 0 1.3464-.5513 1.4381-1.2634.0123-.0952.1008-.1667.1952-.1494.2125.0387.4296.0628.6467.0628 2.07 0 3.74-1.68 3.74-3.74s-1.57-3.75-3.64-3.75z" fill="url(#K)"/></g><path d="m26.48 18.54c-.04 0-.17.01-.21.01-.45-.91-1.38-1.55-2.47-1.55-1.53 0-2.78 1.24-2.78 2.78 0 .5458.1614 1.0523.4372 1.4799.2786.4317.3952 1.0042.0589 1.3926-.6419.7413-1.5269 1.4103-2.7161 1.6375-.2.04-.24.3-.07.41.7.44 2.12 1.17 3.93 1.32.05.76.67 1.36 1.44 1.36.7368 0 1.3464-.5513 1.4381-1.2634.0123-.0952.1008-.1667.1952-.1494.2125.0387.4296.0628.6467.0628 2.07 0 3.74-1.68 3.74-3.74s-1.57-3.75-3.64-3.75z" fill="url(#M)"/><path d="m26.48 18.54c-.04 0-.17.01-.21.01-.45-.91-1.38-1.55-2.47-1.55-1.53 0-2.78 1.24-2.78 2.78 0 .5458.1614 1.0523.4372 1.4799.2786.4317.3952 1.0042.0589 1.3926-.6419.7413-1.5269 1.4103-2.7161 1.6375-.2.04-.24.3-.07.41.7.44 2.12 1.17 3.93 1.32.05.76.67 1.36 1.44 1.36.7368 0 1.3464-.5513 1.4381-1.2634.0123-.0952.1008-.1667.1952-.1494.2125.0387.4296.0628.6467.0628 2.07 0 3.74-1.68 3.74-3.74s-1.57-3.75-3.64-3.75z" fill="url(#N)"/><g filter="url(#f)"><circle cx="23.9333" cy="19.8432" fill="url(#O)" r="2.67188"/></g><g filter="url(#g)"><circle cx="26.4177" cy="22.2588" fill="url(#P)" r="3.53125"/><circle cx="26.4177" cy="22.2588" fill="url(#Q)" r="3.53125"/></g><g filter="url(#h)"><path d="m23.6715 24.5659c-.517.1864-.8866.6814-.8866 1.2627 0 .741.6008 1.3418 1.3419 1.3418.6698 0 1.2675-.4922 1.3378-1.3828-.4141-.8516-1.2266-1.1484-1.7931-1.2217z" fill="url(#R)"/></g></svg>