<svg enable-background="new 0 0 128 128" viewBox="0 0 128 128" xmlns="http://www.w3.org/2000/svg"><g transform="scale(4)"><path d="m13.5 28.99.5-.39v-6.6l.91-4 1.09.68v10.32c0 .49-.43 1-.92 1h-.54-.59-.46c-.27 0-.49-.25-.49-.52.01-.27.23-.49.5-.49zm13.3073-3.7864c.0532.0578.1579.1717.4924.5335.0173.0125.0341.0267.0503.0429l.61.65c.11.13.1.32-.02.43-.13.11-.32.1-.43-.02l-.02-.02c-.0012-.008-.0025-.0161-.0039-.0241l-.0019-.0019c.009.094-.0257.1896-.1042.2561-.1297.1097-.3189.0901-.4191-.029-.0037-.0036-.0073-.0073-.0108-.0111l-.0066-.0078-.1035-.1121-.0021-.011-.0078-.0091c.01.1-.03.2-.11.27-.13.1-.31.08-.42-.04l-.27-.3c-.0578-.0579-.1342-.0971-.2203-.0909l.0103.091c.03.2-.12.39-.32.41-.21.02-.39-.13-.41-.33l-.0865-.6823c-.0674-.0747-.1135-.1278-.1135-.1278l-6.02-6.32.94-1.03 1.55.73 5.2525 5.5441.0003.0003c.1002.1074.1286.1377.1568.1683l.0376.0408z" fill="#ffc83d"/><path d="m21 14h-6v3.7353c-.3219.7716-1.05 2.6911-1.05 4.2646h2l1.0672-1.9999h1.9502l1.9525 1.9 1.5-1.3c-.5522-1.563-1.3233-2.5215-1.4199-2.6298z" fill="#00a6ed"/><path d="m14.9518 14.05-10.68-.03c-.22 0-.35-.26-.22-.44l.39-.54c.43-.59.94-.6 1.67-.68l9.89-1.36c1.91-.35 2.9-.33 3.56-.97l7.21-6.61998c.6-.56 1.5682-1.41002 2.0282-1.41002h.7c.21 0 .3218.24002.1918.41002l-8.64 11.63998z" fill="#ffc83d"/><path d="m14.9517 14.0499h-1.95v-2.64l4.03-.67c.98-.22 2.15-.46 2.62-.89002l1.7-1.47 2.32 2.14002-2.62 3.53z" fill="#9b9b9b"/><path d="m30.8601 2.89018c-1.13.63-2.77 1.55-2.77 1.55l-1.69-.72-.04-1.17c-.01-.27.3699-.55012.6399-.55012 0 0 3.17-.06 3.83-.02.22.01.2601.78012.0301.91012zm-28.39022 11.79982c1.26-.27 3.1-.66 3.1-.66l.79-1.66-.74-.91c-.18-.21-.49-.24-.69-.06 0 0-2.42 2.05-2.89 2.51-.15.16.17.83.43.78z" fill="#533566"/><path d="m16.8601 20.41c0-.04.53-1.18.85-1.56.12-.14.34-.15.46 0 .33.38.88 1.56.88 1.56 0 .65-.45.56-1.11.56-.67-.01-1.08.1-1.08-.56z" fill="#fcb100"/><path d="m16.6901 22.5199c0 .37-.3.67-.67.67s-.67-.3-.67-.67c0-.3701.3-.67.67-.67s.67.2999.67.67zm3.9099 0c0 .37-.3.67-.67.67s-.67-.3-.67-.67c0-.3701.3-.67.67-.67s.67.2999.67.67z" fill="#fdbb11"/><path d="m18.1501 25.4999c1.13 0 2.03-.96 1.95-2.09l-.16-2.27c-.07-.71-.63-1.22-1.31-1.22h-1.31c-.68 0-1.24.51-1.31 1.22l-.16 2.27c-.08 1.13.82 2.09 1.95 2.09z" fill="#ffc83d"/><path d="m16.4431 23.6263.0013.0009.0018.0014.0048.0036c.0038.0028.0087.0063.0147.0104.0119.0082.0282.019.0487.0311.0407.0243.0984.0547.1709.083.1452.0565.3526.1052.6018.0748.1224-.0149.2096-.1262.1946-.2487-.0149-.1224-.1262-.2095-.2486-.1946-.1608.0196-.2934-.0117-.3857-.0477-.0462-.0179-.0817-.0369-.1044-.0504-.0113-.0067-.0193-.0121-.0237-.0151l-.0038-.0027c-.0973-.0742-.2364-.0563-.3117.0405-.0757.0973-.058.2377.0393.3135zm2.7916-.354c.0973-.0742.2364-.0563.3117.0405.0757.0973.0581.2376-.0392.3133l-.0014.0011-.0018.0014-.0049.0036c-.0038.0028-.0087.0063-.0146.0104-.012.0082-.0283.019-.0487.0311-.0407.0243-.0984.0547-.1709.083-.1452.0565-.3526.1052-.6018.0748-.1225-.0149-.2096-.1262-.1947-.2487.015-.1224.1263-.2095.2487-.1946.1608.0196.2934-.0117.3857-.0477.0462-.0179.0816-.0369.1044-.0504.0113-.0067.0193-.0121.0237-.0151z" fill="#d37034"/><path d="m16.4502 22.64c.06.25.28.43.55.43.28 0 .51-.2.56-.46.01-.06-.03-.11-.09-.11h-.91c-.07 0-.13.07-.11.14zm3.05 0c-.06.25-.28.43-.55.43-.28 0-.51-.2-.56-.46-.01-.06.03-.11.09-.11h.91c.07 0 .13.07.11.14z" fill="#fff"/><path d="m16.7202 22.6c0 .2.16.36.36.36s.37-.16.36-.36c0-.04 0-.07-.01-.1h-.7c-.01.03-.01.07-.01.1zm2.4998 0c0 .2-.16.36-.36.36s-.36-.16-.36-.36c0-.04 0-.07.01-.1h.7c.01.03.01.07.01.1z" fill="#7d4533"/><path d="m17.0801 22.81c.12 0 .21-.1.21-.21 0-.04-.01-.07-.03-.1h-.37c-.01.03-.02.07-.02.1 0 .12.1.21.21.21zm1.7901 0c-.12 0-.21-.1-.21-.21 0-.04.01-.07.03-.1h.37c.01.03.02.07.02.1 0 .12-.1.21-.21.21z"/><path d="m17.2601 22.7399c0 .0332-.0268.06-.06.06-.0331 0-.06-.0268-.06-.06 0-.0331.0269-.06.06-.06.0332 0 .06.0269.06.06zm1.7901 0c0 .0332-.0269.06-.06.06-.0332 0-.06-.0268-.06-.06 0-.0331.0268-.06.06-.06.0331 0 .06.0269.06.06z" fill="#fff"/><path d="m18.1301 22.6299.21-.68c.04-.14-.06-.28-.21-.28h-.31c-.15 0-.25.14-.21.28l.21.68c.05.15.26.15.31 0z" fill="#ed9200"/><path d="m15.8401 25.0899.17.09c.12.06.23.14.33.24l.34.34c.25.25.63.34.96.22.22-.08.46-.08.67 0 .3.15.65.09.89-.14l.41-.41c.1-.1.21-.18.33-.24l.17-.09c.32-.16.49-.51.43-.86l-.23-1.26c-.02-.13-.13-.22-.26-.22 0 0 .02.36.04.59.01.12-.04.23-.13.31l-.07.07c-.1.09-.16.22-.16.36v.35c0 .1-.07.19-.16.21-.26.07-.82.18-1.59.18s-1.33-.11-1.59-.18c-.1-.02-.16-.11-.16-.21v-.35c0-.14-.06-.27-.16-.36l-.08-.07c-.09-.08-.14-.19-.13-.31.01-.23.04-.58.04-.58-.12.01-.23.1-.25.22l-.23 1.26c-.08.34.1.69.42.84z" fill="#f1a11e"/><path d="m17.9701 21.32c.22 0 .43.05.6.14.06.03.12-.04.09-.09-.15-.22-.4-.37-.69-.37s-.54.15-.69.37c-.04.06.03.12.09.09.18-.09.38-.14.6-.14z" fill="#990839"/></g></svg>