<svg enable-background="new 0 0 128 128" viewBox="0 0 32 32" xmlns="http://www.w3.org/2000/svg"><path d="m25.7722 5.70188c-.5442 0-.7766.61153-.6054.8806l-.6299.55649 1.0274 1.99359c.0693-.07339.2642-.25929.4892-.41584.2813-.19569.5015-.47088.7216-.86837.3853-.19569.5259-.37915.6605-.77665.2385-.10396.587-.29964.6176-.79498.4843-.20548.6435-.66712.6577-.85873.3711-.125.5899-.4386.5899-.8789 1.0518-.50757.3057-1.61355.1406-1.87039s-.3119-.62988-.7828-.61153c-.3767.01468-.4788.345-.4828.48973-.4685 0-.7149.5-.6118.82506-.4351 0-.7216.40361-.5748.81333-.4954-.04892-.6972.42196-.5993.78276-.636-.02935-.6768.47699-.6177.73383z" fill="#00a6ed"/><path d="m25.1668 6.58247c-.1712-.26908.0612-.88061.6054-.88061l-.0003-.00162c.4073.17794 1.3096 1.00896 1.0093 2.13961l-.0034.00711-.0027.00137c-.2037.36793-.4075.63107-.6598.82336l-1.1409-1.91923z" fill="#1345b7"/><path d="m28.0568 6.27518-.0036.00152c-.0305.4941-.3774.69005-.6158.79421.0818-.38961.0161-1.44426-1.0501-2.11251-.0915-.3589.1103-.82008.5994-.77336.3699.31559.819.71694.9938 1.34231.0659.23593.0829.50342.0763.74783z" fill="#1345b7"/><path d="m29.3078 4.53565c-.0023.00114-.0047.00228-.007.00342 0 .43858-.2171.75145-.5855.87743l.0001-.00161c.0236-.45345-.0662-.77464-.4251-1.20919-.1566-.18955-.2906-.32732-.4022-.44214-.1442-.14842-.2512-.25849-.3217-.39246-.0021-.00393-.0042-.00793-.0063-.012-.0921-.32322.1503-.80626.6072-.81216-.0062.1935.0951.30465.2416.46543.0338.03718.0701.07701.1081.12112.0268.03113.0621.06965.1029.11425.2673.2915.7725.84267.6879 1.28791z" fill="#1345b7"/><path d="m23.4468 7.85825c-.3.11807-.2439.68873-.1783.9593-.0492.65593.0123 1.93705.6518 1.81405.7995-.1537 1.0823-1.00234.7503-1.65417-.3321-.65183-.8486-1.26676-1.2238-1.11918z" fill="#00a6ed"/><path d="m25.3808 6.53355c-.3141-.24946-.534-.106-.636 0l-.4158.53203 1.3576 1.93243.4587-.50757c.1467-1.21694-.3486-1.62666-.7645-1.95689z" fill="#00a6ed"/><path d="m17.1616 6.20448c.1657-.57412.799-.62887 1.0949-.58448.1134-.24015.5188-.6484 1.2337-.36022.2135-.26415.7643-.46648 1.2308-.12927.4103-.28663.9891-.23096 1.2645.12927.3372-.12927.9049-.17423 1.2365.39903.5339-.08992.9161.09555 1.1128.62385.3878 0 .8655.12364.9498.87675.5171.03934.8711.4721.7362 1.06222.5396.18547.8037.54516.4159 1.09032.5564.25853.6913.67443.2473 1.14095.5564.2922.5283.9723.0338 1.1633.4327.3316.4777.9049-.1743 1.1297.5171.3372.1743 1.2084-.3709 1.0735.4103.3484.1686 1.1802-.5452.9947.1349.3822.0461 1.0094-.7137.9105.0805.3316.0202.96-.8655.8206 0 .2978-.2249.8486-.9499.6463-.0112.2885-.2236.8003-.9835.5395-.0506.2136-.326.7475-1.0173.4946-.0618.2248-.3585.6194-1.0509.3991-.4047.5114-.7026.472-1.0623.354-.3091.4159-.635.4967-1.0622.2979-.0674.1798-.3349.4979-.8655.3316l-.6703-2.3986c.1794-.0767.6246-.1683.9705.0782.3219-.5427.8324-.4415 1.0072-.3128.1931-.4921.7956-.4507.9796-.3127.1426-.3495.5565-.5151.9198-.3771.2208-.3634.6347-.5197.929-.391.2024-.4691.5841-.5381.8371-.4829.1471-.4415.5059-.5565.7404-.5059.0598-.4553.4967-.6025.6117-.5887 0-.3449.3312-.6071.5197-.6255-.0015-.1579.069-.516.3634-.6852-.0552-.4185.1747-.6255.2713-.7359-.0828-.2253-.0644-.5887.138-.791-.2061-.3091-.1012-.6409-.023-.7681-.0859-.115-.2383-.4296-.161-.76805-.2833-.27963-.302-.59789-.2759-.72206-.115-.05366-.3762-.25848-.5013-.64848-.276-.08279-.4646-.19777-.5611-.5519-.2085.00495-.6522-.07274-.7589-.42312-.3733.09793-.6389.03153-.7772-.24835-.3174.14257-.6097.14517-.8695-.07559-.1219.12111-.4818.28899-.846.07559-.253.31734-.5289.33573-.8279.24835-.0536.15363-.2741.44377-.7266.37532-.1196.40653-.3588.50312-.6761.53531-.0138.20236-.1518.6218-.5933.68067.0598.38633-.0948.60442-.4121.7332.0468.17971.1067.61621-.287.80751.1564.3403.1288.7083-.1655.9152.1057.1472.2667.5363.0644.9153 0 .4709.1165 1.6648.1747 2.2029.1211.1334.3017.494.0552.8693.2576.2621.4305.6117.1794 1.0854l-2.4325-.2201c-.0358-.2211.0471-.4354.1713-.5196-.6214-.5031-.5006-1.7337-.3625-2.2861-.1701-.2441-.2663-.6955 0-1.0506-.4143-.5919-.1282-1.0259.0666-1.1689-.2885-.2368-.2367-.9692.1924-1.2208-.259-.50307.0148-.97657.4069-1.19112-.0962-.5031.1184-.92481.6584-1.08757-.0887-.45131.3182-.9396.7843-.9396.1035-.71025.7842-.82863.9914-.82863z" fill="#00a6ed"/><path d="m19.0156 6.43749c-.025-.61875.3073-1.03385.4766-1.16406-.0011-.00404-.0018-.00862-.0021-.0137.2135-.26415.7644-.46644 1.2309-.12923.0049-.00345.0099-.00685.0149-.0102-.0069.00543-.0139.0109-.0211.01641-.7574.58171-.7968 1.49119-.8124 2.21365l-.0023-.00133c-.253.31734-.5289.33573-.8279.24835l-.0016.00455c.0129-.17629-.0026-.3813-.0214-.62887-.0121-.1596-.0256-.33689-.0336-.53557z" fill="#1345b7"/><path d="m18.3508 7.97347c-.0375-.15194-.0828-.30017-.1276-.44696-.184-.60286-.3607-1.18161.0346-1.89371.0219-.03937.0405-.07621.056-.11061-.0238.03413-.0429.06732-.0573.0978-.2937-.04406-.92.00957-1.0912.57196-.0009.0049-.0012.00859-.0012.01116-.0873.15495-.2055.61094.0195 1.19532.1005.26113.1961.44938.2765.60775.0977.19253.173.34091.2076.5224.0008-.00708.0013-.01394.0018-.02057.3173-.0322.5565-.12878.6761-.53531z" fill="#1345b7"/><path d="m17.0766 9.18863c-.0008-.00296-.0016-.00595-.0024-.00895-.0226-.08706-.1224-.22581-.2486-.4012-.3099-.43062-.7786-1.08212-.6537-1.73162.0073-.03832.0126-.07421.0161-.10777-.0071.03012-.0131.06144-.0178.094-.4661 0-.873.4883-.7843.93961-.0049.0015-.0099.00302-.0148.00457-.0024.16325.077.57793.414.93678.081.08623.1597.16857.2346.247.3155.33016.5647.59096.6404.78035.0048.01183.0102.02292.0163.03327-.004-.01934-.0082-.03706-.0123-.0528.3173-.12877.4723-.34691.4125-.73324z" fill="#1345b7"/><path d="m16.3808 10.7375c-.0046-.0065-.0092-.0127-.0136-.0188-.125-.0989-.4625-.3632-.8125-.6289-.4369-.33156-.683-.56185-.8276-1.02935-.3919.21465-.6654.68802-.4065 1.19095-.0022.0013-.0044.0026-.0065.0039.0021.0035.0042.0069.0062.0103.0638.1263.2672.4219.5703.5938.1073.0608.2455.1291.3926.2018.3722.184.8006.3957.9238.5833.0106.0161.0214.0302.0324.0426-.0095-.0158-.0189-.03-.0278-.0425.292-.2053.3214-.569.1692-.9071z" fill="#1345b7"/><path d="m16.2765 12.6178c-.3146-.1817-.6999-.3303-1.0655-.4714-.1246-.048-.2469-.0952-.3633-.1425-.4872-.1979-.6802-.4317-.7199-.5315-.1948.1433-.4802.5772-.0662 1.1687-.0013.0017-.0025.0034-.0038.0052.0044.0022.0085.0042.0125.006.1875.1797.4571.3282.8203.4453.2486.0802.974.3547 1.4508.5376-.0335-.3914-.0609-.7755-.0649-1.0174z" fill="#1345b7"/><path d="m16.4434 14.6941c-.1346-.0479-.2931-.0802-.4943-.1211-.0396-.0081-.0808-.0165-.1239-.0254-.5826-.1207-1.3151.6118-.4411.6908.6991.0633 1.0348.2872 1.1153.3912.0082.0074.0163.0144.0245.021-.006-.0062-.012-.0124-.018-.0185.2465-.3753.0659-.7359-.0552-.8693-.0023-.0218-.0048-.0447-.0073-.0687z" fill="#1345b7"/><path d="m14.1212 11.4663c.0021.0018.0045.0044.0066.0061-.0009-.0023-.002-.0054-.0028-.0076z" fill="#1345b7"/><path d="m21.5971 7.35719c-.3057.13247-.5879.13273-.8399-.07444l.0006-.00151c.0115-.04408.0231-.09049.0353-.1388.1492-.59379.3707-1.47527 1.1835-1.86901.0312-.01512.0619-.02918.0922-.04223.3403-.1036.8441-.10077 1.1501.42224-.0013.00354-.0027.00708-.0041.01061-.5429.17578-.9023.39063-1.3007 1.10547-.0778.13947-.1372.25396-.1862.34825-.0524.10102-.0929.17887-.1308.23942z" fill="#1345b7"/><path d="m24.2129 9.22694c.0003-.00207.0007-.00409.0012-.00607-.1147-.05352-.375-.25746-.5004-.6456l.005-.00284c.2272.0279.4636-.04571.7459-.13364.3939-.12267.8773-.27322 1.5502-.21483-.0284-.00154-.0141.00179.0313.00653.5224.18795.7723.54486.3906 1.08145.0167.00773.0329.0156.0488.02361-.0157-.00209-.0305-.00585-.0441-.01134-.1641-.06641-.46-.0644-1.1331-.02621-.6204.0352-.8799-.02289-1.055-.0621z" fill="#1345b7"/><path d="m24.649 10.7142.002-.0032c-.0853-.1142-.2361-.4251-.1626-.76082l.0038-.00097c.2539.21089.5976.30859 1.0078.36329.0981.0131.2148.0201.3405.0277.2897.0175.6271.0379.895.1418.5027.306.4611.9492-.0177 1.1342l.0045.0035c-.0025-.0008-.005-.0016-.0075-.0025-.1703-.0619-.5344-.1631-.8999-.2647-.0956-.0266-.1913-.0531-.2837-.0791-.4453-.125-.7187-.332-.8789-.5547z" fill="#1345b7"/><path d="m24.5339 12.2725.0021-.0024c-.0824-.2243-.0646-.5852.1351-.7882.0031.0007.0059.0015.0086.0025l.0273.0464c.151.2575.2824.4816.8242.7543.3128.1575.7229.3419 1.0404.4802.4761.35.136 1.1864-.399 1.0541.0094.0079.0184.0161.027.0245-.011-.0081-.0216-.016-.0316-.0236-.0506-.0379-.1313-.088-.2301-.1494-.237-.1472-.5786-.3594-.8598-.624-.392-.369-.4891-.6282-.5367-.7556l-.0023-.0062c-.0016-.0042-.0034-.0084-.0052-.0126z" fill="#1345b7"/><path d="m23.8967 13.6917.0046-.0005c-.0015-.1576.0688-.5149.362-.6844.0022.0016.0042.0033.0062.0049.0703.3867.1836.6758.6211 1.0781.0622.0572.1225.1115.1806.1638.2271.2044.4206.3786.5624.5788.125.3814.029.9828-.7075.8938l-.0042-.0036c-.0615-.1843-.2467-.4244-.4223-.6519-.1034-.1341-.2035-.2639-.273-.3754-.1875-.3008-.3-.5531-.3282-1z" fill="#1345b7"/><path d="m22.7832 14.8328c.093-.3952.4833-.527.5957-.5164-.0417.1303-.0695.511.1523.9922.0864.1873.1667.3425.237.4782.1553.3.2613.5048.2748.7523.0013.0239.0019.048.0017.0722-.0306.3049-.2716.767-.9434.581 0-.0029.0001-.0058.0003-.0087.0117-.2774-.0547-.586-.2579-1.1055-.2031-.5195-.1484-.8437-.0742-1.1719l.0008-.0032c.0053-.0242.0095-.0475.0129-.0702z" fill="#1345b7"/><path d="m21.1856 15.8913c.0023.001.0046.0019.0068.0029.2013-.4666.58-.5373.8329-.4838-.1367.3128-.1323.5116.0007 1.2596.1331.7491.1414.8365.0957 1.057 0 0-.0008.004-.0012.006l-.0057-.002c-.0506.2136-.326.7475-1.0173.4946-.0042.0152-.0094.0313-.0158.0478.0046-.0181.01-.0366.0162-.0553.0916-.2747.1124-.6783.0292-1.1569-.0071-.0408-.0142-.0805-.0212-.119-.074-.4133-.1258-.7045.0797-1.0509z" fill="#1345b7"/><path d="m19.3409 16.6603.0027.002c.1411-.3461.5483-.5118.909-.3812.0016.0021.0032.0041.0047.006-.1914.283-.1415.9572-.1082 1.3484.0057.067.0128.1297.0195.1894.0325.2889.0572.5072-.1194.7969l-.0007.0035-.0019-.0007c-.4047.5115-.7026.4721-1.0623.3541-.0093.0126-.0187.0249-.0281.0369.0105-.0169.0225-.0345.036-.0526.208-.2788.258-.6325.2247-1.236-.0332-.6015.0163-.7481.1197-1.0542l.001-.0028c.0011-.0032.0022-.0065.0033-.0097z" fill="#1345b7"/><path d="m17.3672 17.2705c.3185-.5169.8117-.4252.9903-.3001.0008.0026.0015.0051.0021.0076-.1023.2369-.1088.5312-.1153.8245-.0035.1601-.0071.3198-.0262.4697-.0541.4245-.0915.6625-.2913.9988.0003.0027.0007.0054.001.0082-.0019-.0009-.0038-.0017-.0057-.0026-.0674.1798-.3349.4979-.8655.3316l-.0122-.0435c.0015-.1335.0336-.2918.0875-.4685.08-.2619.0918-.589.1032-.9059.0123-.3427.0243-.6733.1216-.8961.0035-.008.007-.0159.0105-.0237z" fill="#1345b7"/><path d="m14.2536 18.4289c-.0695-.4711.3457-.6558.5621-.6892l.4751 1.9671c-.1361.2945-.5848.8565-1.2914.7494-.8832-.1338.3412-1.4385.2542-2.0273z" fill="#00a6ed"/><path d="m23.2166 8.39469c-.4107-.06571-.6844.26282-.6735.59134-.2153-.03285-.6559.04161-.6954.60229-.4818-.12045-.7556.25735-.7227.54758-.3176-.1095-.772.0273-.7556.5092-.4052-.1205-.7721.1369-.8049.5201-.4873-.2135-.8706.1314-.8925.46-.4161-.3395-.9144.1204-.8925.4435-.2902-.3121-.887-.1041-.9527.3559-.4216-.2902-.8761.0328-.9363.334-.4545-.2519-.9144.0328-1.0075.323-.4818-.2518-.9417.0931-1.0129.3669-.3972-.1906-.8407.0289-1.002.3395-.2209-.1077-.7381-.1906-1.0403.3394-.5038-.2683-.9473.2628-1.0239.3724-.3669-.2191-.82135.093-.98561.3175-.20989-.0985-.71509-.1522-1.05675.4216-.54754-.104-.95819.2629-1.06223.5421-.25004-.0365-.7994.0504-.99652.6899-.57492.0876-.79941.5147-.87606.8487-.22084.0547-.67457.323-.72276.9582-.57408.3079-.5363.9989-.5315 1.0866.00024.0043.00039.0085.00039.0085-.16974.0657-.53659.5749-.34495 1.1607-.14966.1698-.37671.6527-.08761 1.2265-.19164.1369-.29019.887.13689 1.2539-.10951.219-.18726.7666.3778 1.2046-.07666.219-.0219.6516.3559.8103.30224.1271 1.00774 1.053 1.3227 1.5001.02479.1883.24836.5368.94434.4238.1041.4015.49075.7659 1.1674.4759.11897.3718.73614.6841 1.21946.2082.18678.4022.76881.6092 1.21021 0 .25.3475.8125.4491 1.1719-.2033.2812.3242.9726.2164 1.1133-.4336.4531.25 1.0078.0235 1.0312-.6289.4024.1563.9469-.1055.8906-.8086.4258 0 .9102-.3359.7461-.9961.2943-.0456.8125-.3234.5313-1.0703.3359-.0625.7031-.5625.3828-1.1289.3984-.1875.5391-.6992.2031-1.1758.2188-.1745.5391-.6539.0703-1.1758.2344-.1718.4336-.7851-.0507-1.1757.25-.4454.1992-.7969-.1329-1.1094.1836-.3438.1407-.7422-.1406-1.0274.1406-.183.2257-.6751-.1881-1.0722.1007-.1118.2416-.4272 0-.7941.0505-.0507.084-.105.0944-.1258.2031.0794.6937.1156 1.0312-.375.3945.1992.918-.2071.9961-.4063.2083.056.6945.0484.9727-.4297.3047.0586.6718-.0664.957-.4844.3672.086.7695-.2187.9531-.5468.461 0 .8008-.3321.8828-.5664.1627.0024.5555-.1192.826-.625.424-.0586.7092-.4493.7795-.6524-.2725-.9834-.5-1.63897-.7795-2.23031zm-8.9932 7.35451c.0141.0496.079.1667.2252.2381-.255.1615-.3315.7523.1998.9945-.3358.2976-.289.8586.1233 1.1009-.3231.4293-.1105.799.1147 1.0073-.3273.3315-.1827.7353.034.9478-.2805.2551-.2082.7013-.034.9479-.2762.1742-.3613.5695-.1955.901-.3145.1573-.3613.6121-.2423.9011-.3638.068-.493.5908-.4207.7651-.146.0099-.4497.1513-.4973.6375-.3367.0442-.5455.4038-.6078.5781-.1148-.0269-.4123.0119-.6843.3825-.2211-.0595-.4888.051-.7481.289-.3689-.1006-.6096.0469-.816.1733l-.0086.0052c-.1402-.1997-.544-.1317-.82453-.0255-.13176-.1742-.55255-.1955-.80332-.153-.068-.1303-.31367-.3766-.75231-.3187.0238-.1463-.38961-.4633-.5993-.6036l-1.04926-1.5366c.01825-.0766-.00985-.265-.26829-.4051.18591-.1854.24841-.5643-.07581-.8182.19141-.1289.35474-.4961.07581-.8047.26829-.1015.42028-.5586.20935-.8007.17968-.0313.50859-.225.38672-.75.3164 0 .5625-.3164.49218-.668.19792.0065.59844-.1078.61719-.6172.27734.0664.71484-.1055.71484-.5391.19402.0886.63282.1313.83594-.4062.25781.1601.67969.0625.92189-.4063.2031.1276.6836.2399.9805-.332.2656.1836.7539.1524.996-.3594.2058.1219.6961.2276 1.0118-.325.1562.1069.5239.0446.6882 0z" fill="#00a6ed"/><g fill="#1345b7"><path d="m23.9995 10.6257c.0971-.3357.1447-.76614.0083-1.19209-.2281-.7125-.6315-.98959-.8047-1.03906l-.003-.0023c-.3968-.0538-.6615.26215-.6573.58242 1.0958.57879.7977 2.05313.6803 2.30173.4204-.0616.703-.4493.773-.6514z"/><path d="m22.3958 11.9024c.1236-.3395.2076-.7443.1433-1.125-.1185-.7015-.5137-1.08542-.6979-1.19069-.4757-.11493-.7466.25708-.7166.54549.8437.6718.5434 2.1528.3911 2.3365.4569-.0037.7934-.3333.8749-.5663z"/><path d="m20.5624 13.0174.0001-.0018c.4205-1.0512.123-2.0055-.1961-2.3714-.404-.1183-.7691.1387-.8019.521l-.004-.0017.002.0045c.5031 1.1406.2383 2.0299.043 2.332l.0008.0016c.3029.0546.6659-.0719.9484-.486.0026.0006.0052.0012.0077.0018z"/><path d="m18.6352 13.9323.0015-.0026c.443-.7674.204-1.8582.0283-2.3102-.4147-.3286-.9073.1279-.8855.4492"/><path d="m15.8806 12.7532c.0033.0017.0066.0035.0099.0054.0602-.3012.5147-.6242.9363-.334l.0007-.005c-.0074.1732.0045.3683.0171.5749.0338.5565.0727 1.1971-.245 1.7172l-.0019-.0007c-.0027.0053-.0068.0127-.0124.0217-.192.27-.5787.4185-.9915.365.1445-.211.2578-.6055.246-1.3047-.0182-.2565-.0359-.8227.0391-1.0352z"/><path d="m13.9109 13.3498c.1386-.2472.5441-.4885.9674-.2706-.1044.2978-.113.6709-.1217 1.0481-.0149.6488-.0301 1.3099-.5332 1.6222-.1622.044-.5228.105-.6823.0037l-.002-.0032c.1484-.2539.1679-.6055.1757-1.164.0104-.2827.0555-.9022.1536-1.1383l.0017.0008c.0011-.0045.0024-.009.0038-.0135l.0065-.015c.0101-.0236.0203-.0471.0305-.0702z"/><path d="m11.8525 14.0861c.3038-.4823.7968-.4036 1.013-.2994.0009.0021.0018.0042.0025.0063-.0716.0858-.2132.3826-.2061.8828l.0002.0134c.0088.6142.0165 1.1507-.1306 1.3897-.0028-.0016-.0054-.0031-.0081-.0047-.2397.5066-.7206.5423-.988.3649l-.0026-.0045c.0344-.0988.0986-.4388.0807-1.0081-.0224-.7116.0448-.9742.2195-1.3039.0066-.0123.013-.0245.0195-.0365z"/><path d="m9.81351 14.8151.00477.0022c.16196-.2213.60602-.5278.97012-.3265-.1062.1279-.3003.5265-.2324 1.106.0852.7258.0583.9633 0 1.1739-.003-.0019-.0062-.0032-.0091-.0051-.2411.4666-.66011.5655-.91824.4085.00598-.0911.00437-.355-.04939-.6812-.06721-.4078-.09858-1.1426.23299-1.6758z"/><path d="m7.68123 15.7786c.00618.0008.01221.0015.01808.0024.10322-.2771.50834-.6404 1.04953-.5444l.00151.0017c-.13293.1688-.36472.664-.22851 1.2949.11254.5213.20159.8467.27621 1.0489-.00305-.0013-.00604-.0026-.00898-.004 0 .4269-.42392.6001-.70172.542-.08513-.1075-.29854-.4596-.4706-1.0044-.16528-.5234-.03231-1.0909.06448-1.3371z"/><path d="m5.82485 17.3201.00187-.0005c.07609-.3315.29784-.7548.86339-.8467-.22668.7375-.05216 1.6467.76717 2.2615.07031.3516-.17603.668-.49243.668-.00322-.001-.0063-.0012-.00957-.0021-.39954-.1148-1.2411-.8798-1.1306-2.0784z"/><path d="m4.56613 19.3756c.00227-.001.00452-.0019.00672-.0027l-.00039-.0085c-.00477-.0872-.04211-.7701.52089-1.0808.00294.001.00587.002.00878.0031.00425.7566.42503 1.6194 1.48337 1.8829.0028.0007.0056.0014.00837.0021.1872.2464.03622.6825-.22509.7814l.00246.0028c-.23298-.0051-1.41122-.1809-1.80511-1.5803z"/><path d="m4.12946 21.7686c.00358-.003.00719-.0059.01084-.0085-.2849-.5655-.06855-1.0427.08103-1.2189l.00098.0024c.46328 1.1434 1.66613 1.3006 2.07841 1.2241l.00381-.0006c.31102.2536.24797.6255.06446.8087-1.05958.1225-1.59882.0452-2.23953-.8072z"/><path d="m4.65377 24.2221.00121-.0035c-.56325-.4366-.4878-.9821-.37885-1.2025.61909.6631 1.62429.5465 2.0501.405.24652.0893.60099.3519.04675.6886-.69281.4208-1.1986.34-1.70439.119-.00494-.0022-.00989-.0044-.01482-.0066z"/><path d="m8.43534 27.4329c-.66897.2816-1.05211-.0789-1.15672-.4774.4037-.1211.54947-.2974.71747-.5006.05439-.0658.11113-.1344.1797-.2049.08363-.0859.15931-.1833.23476-.2803.17828-.2293.35521-.4569.63242-.5283l.0033-.0028c.25165-.0406.66468-.0179.79499.1544.0076-.0028.0153-.0057.02308-.0085-.00754.0032-.0157.0063-.02449.0093-.3295.111-.49886.4745-.65847.8171-.02002.043-.04027.0864-.06028.1282-.17969.375-.44141.6992-.67188.8828-.00462.0037-.00924.0074-.01388.011z"/><path d="m10.8693 27.6448c-.4381.596-1.01173.395-1.20119-.0008.16989-.189.21549-.3167.31103-.5844.02746-.077.05906-.1656.09896-.2705.043-.1196.0779-.2352.1112-.3452.1058-.3499.1945-.6434.4709-.8306l.0006-.0017c.0017.0023.0034.0046.005.0069l.0086-.0052c.2056-.126.4454-.2728.8121-.1743l-.0021.0024c-.2422.2774-.3828.6211-.3946 1.1641-.0116.5405-.0659.7636-.2205 1.0393z"/><path d="m13.1602 27c-.1407.65-.832.7578-1.1133.4337.0013-.004.0026-.0079.0039-.0118.1107-.3255.0803-.5778.0467-.8563-.0067-.0557-.0135-.1125-.0194-.1711l-.0039-.039c-.0341-.337-.0689-.6808.1566-1.2065.0025.0007.0051.0013.0077.002.2652-.3614.5546-.4073.6753-.3844-.0992.4028-.022.742.0667 1.085.0131.0507.0272.1026.0415.1556.084.3092.1771.6536.1382.9928z"/><path d="m15.0846 25.6019c.0329.6684-.4905.9187-.8842.7726.0045-.1501-.0641-.5522-.3801-1.1245-.3312-.6-.3359-.9531-.2969-1.0547l-.0013-.0037c.0028-.0004.0056-.0008.0085-.0012.0467-.4779.341-.6227.4896-.6369l.0088.0364c.0509.2106.0773.3198.4827.8984.4297.6133.4961.8008.5625 1.0742.0033.0134.0068.0265.0104.0394z"/><path d="m16.3665 23.5153c.2624.7246-.2358 1-.5289 1.0496-.075-.2986-.4086-.6396-.8493-1.061-.3526-.3371-.5072-.6153-.5419-.7157l.0022-.0004c-.119-.289-.0722-.7438.2423-.9011-.003-.0059-.0058-.0118-.0086-.0178.0043.0057.0087.0117.013.0178l.0062.0088c.2114.2998.3537.5016.8063.7686.457.2695.711.6172.8516.8398.0024.0038.0047.0076.0071.0114z"/><path d="m16.9479 21.1894-.0026.002c.3342.4741.1968.9831-.197 1.1729-.2869-.348-.5531-.5965-1.178-.8565-.4995-.2078-.6681-.4303-.6909-.5176.0023-.0015.0047-.003.007-.0045-.1742-.2466-.2465-.6928.034-.9479-.0061-.006-.0122-.0121-.0182-.0184.0089.0051.0168.0117.0236.0197.1328.1562.3164.3359.9765.5312.5165.1528.9056.4699 1.0456.6191z"/><path d="m16.9726 18.8462c.4745.3908.2761.9985.043 1.1694l.0019.0021c-.2265-.2026-.5546-.4205-1.2089-.5685-.5131-.116-.8242-.2838-.9231-.3582l.0009-.001c-.2247-.2077-.4367-.5761-.1172-1.004.1434.0702.5191.2103 1.0589.2929.4994.0764.7224.2196.902.3349.0775.0497.1469.0943.2269.1261.0052.002.0104.0041.0156.0063z"/><path d="m16.6928 16.7013-.0014.0018c.281.2849.3241.6828.1412 1.0264-.4776-.3228-.8858-.4048-1.2902-.4861-.2905-.0584-.5791-.1164-.8901-.2629-.0031-.0004-.0063-.0008-.0095-.0012-.5191-.2411-.45-.8177-.2028-.9863.0082-.0013.0141-.0028.017-.0047.069.0312.3235.1031.7891.1406.5774.0465 1.0164.1738 1.4467.5724z"/><path d="m8.29071 25.1206-.00508.0007c.01596-.0981-.16463-.2729-.34858-.4198l-1.22611.4626.25.8359c.25935-.158.44241-.3147.60341-.4525.233-.1995.41978-.3594.72472-.4264"/><path d="m18.6352 13.9323c-.0035-.0008-.0069-.0017-.0102-.0026-.0776.1979-.5947.6001-.9883.4101.1758-.3164.2774-.8164.2539-1.2734-.0131-.2559-.0385-.4237-.0631-.5862-.0193-.1277-.0381-.2522-.0502-.4138"/></g><path d="m12.2372 18.9717c.053-.2702.3666-.8056 1.0082-.4487.2274-.5858.767-.5855 1.0324-.3811-.063.198-.0079.9537 0 1.1675.0231.629-.1673 1.0243-.2654 1.1433-.1817.2139-.4534.4245-.8683.3859-.2817.3975-.648.4422-.796.4149-.2364.3956-.5355.5355-.8249.5017-.0917.2557-.4728.6609-.8008.603-.1737.4554-.5902.6014-.7767.6175-.14473.3039-.3184.6223-.77187.6223-.0656.467-.51618.677-.73326.7237-.08202.4197-.34252.6802-.73327.7236-.00965.3666-.30392.8056-.66091.7429-.08491.5943-.49849.7879-.69468.8105-.08683.5837-.44382.7236-.66573.767.00483.5114-.33769.8297-.65126.8297.06272.5355-.42452.907-.66573.8443.02412.8587-.90211.9407-1.1192.849-.30874.1303-.93106-.0289-1.15779-1.0468-.18139-.8143.34251-1.0147.62714-1.0131-.10613-.5499.32321-.8539.6609-.9021-.05017-.6677.42614-.8314.67056-.8298-.04824-.5065.2991-.8201.70915-.8442-.02316-.7294.45025-.8346.68985-.796-.04824-.4872.20261-.8587.74774-.8587.00772-.7255.51458-.804.76704-.7525-.02412-.55.42935-.8491.8201-.7429.0193-.6986.54513-.7703.80563-.7188.00965-.4053.28945-.8057.87317-.6658.06561-.7487.60622-.7332.86832-.6319.0097-.304.2065-.8481.9166-.5934.1582-.7333.7252-.6529.989-.521z" fill="#00a6ed"/><path d="m11.2425 19.4907c.0019.0006.0038.0013.0057.002.1562-.7238.7106-.6548.9786-.5261.0059.1459.0425.5114.1443.8537.1289.4336.2148.9727-.0235 1.4336l-.0014.0028c-.234.3897-.5292.5298-.8155.4994.1817-.5239.0234-1.0667-.1233-1.5696-.071-.2436-.1393-.4777-.1649-.6958z" fill="#1345b7"/><path d="m9.46096 20.7175.00232.0005c.06482-.7396.59322-.7335.85872-.6356l.0022.0036c.0026.1119.0594.4406.2656.8593.2578.5235.2422 1.0391.1407 1.4141-.0027-.0004-.0054-.0007-.0081-.0012-.1667.4371-.5571.5892-.75315.6149-.00663-.0013-.01331-.0028-.02004-.0043.02344-.8242-.03125-.9532-.17578-1.2891-.02248-.0522-.04542-.1039-.06817-.1551-.12302-.277-.24027-.541-.2443-.8071z" fill="#1345b7"/><path d="m7.7741 22.0998c.00347.0009.00693.0018.01038.0028.01929-.6984.54485-.7703.80543-.7189.00279.0944.06912.3773.32024.8312.29402.5313.28285 1.098.27822 1.333-.00037.0189-.0007.0356-.00083.05-.00454.0001-.00911.0001-.01371.0001-.06394.4552-.49355.6662-.71629.7198.03769-.4731-.05658-.8048-.35989-1.3803-.09683-.1807-.29582-.5991-.32355-.8377z" fill="#1345b7"/><path d="m6.18542 23.5981c.00396 0 .00793-.0001.01192-.0001.0076-.7143.49902-.8014.75515-.7548.04057.1351.17037.4824.39516.8834.28906.5156.39843.8437.36718 1.3125l.00282.005c-.00344.0004-.00689.0008-.01035.0012-.00958.3638-.29944.7989-.65274.7442-.0034-.173-.08403-.6228-.3866-1.1332-.38672-.6524-.43359-.7969-.48047-1.0469-.0007-.0037-.00139-.0075-.00207-.0113z" fill="#1345b7"/><path d="m4.7534 25.2531c.00211-.0001.00423-.0003.00635-.0004-.02277-.7173.43464-.8309.67771-.7978.00137.0021.00269.0041.00394.0061.04036.1289.18047.4757.41797.832.29687.4453.55859.9375.5 1.3008l.0018.0037c-.0032.0004-.00636.0008-.00946.0012-.08631.5802-.43952.7219-.6617.7662.02985-.1362-.02877-.5457-.49471-1.1852-.43451-.5964-.44382-.8798-.4419-.9266z" fill="#1345b7"/><path d="m3.37142 26.928c.00288-.0005.00576-.0009.00862-.0013-.0499-.6641.4211-.8296.66665-.8298-.00472.1025.07342.4183.42596.8914.44348.5952.52279.8805.57745 1.2069-.00513.0002-.01026.0002-.01538.0002.06154.5255-.40649.893-.65194.8473-.03131-.3046-.17196-.5819-.53904-1.1247-.13642-.1936-.42139-.662-.47232-.99z" fill="#1345b7"/><path d="m3.12584 29.9222c-.32895.046-.83441-.185-1.03384-1.0803-.18109-.813.34077-1.014.62572-1.0131.02936.1552.15134.5384.43462.9603.36718.5469.51171.9726.10156 1.0937-.03591.0106-.07074.0215-.10472.0321-.00782.0025-.0156.0049-.02334.0073z" fill="#1345b7"/><path d="m13.1582 20.8399c.2402-.4783.2362-.7866.1816-1.2891-.0437-.4031-.0859-.8555-.1015-1.0312.0024.0013.0047.0021.0071.0034.2274-.5858.767-.5855 1.0324-.3811-.0519.1633-.0236.7061-.0076 1.0112.0034.0648.0062.1188.0076.1563.0231.629-.1673 1.0243-.2654 1.1433-.1796.2114-.4472.4197-.8542.3872z" fill="#1345b7"/><path d="m23.1558 8.03541c-.0014-.00492-.0028-.00989-.0041-.0149-.2081.00494-.6501-.07238-.7581-.42065.1879-.13502.3385-.30024.489-.46546.1515-.16629.303-.33259.4927-.46808.3794-.27099.7292-.36953.9509-.37938.0129-.00057.0271-.00192.0424-.00396.3813.00735.8341.1451.916.87643.0172.0013.0342.00305.051.00521l-.019.00426c-.1774-.02792-.6681-.00986-1.2121.28576-.5439.29563-.854.50749-.941.57647-.0025.00142-.0051.00286-.0077.0043z" fill="#1345b7"/></svg>