<svg enable-background="new 0 0 128 128" viewBox="0 0 32 32" xmlns="http://www.w3.org/2000/svg"><path d="m11.9301 19.74c.11.14.32.16.46.05s.16-.32.05-.46l-.35-.44c-.11-.14-.32-.16-.46-.05s-.16.32-.05.46z" fill="#a9715f"/><path d="m19.21 19.74c-.11.14-.32.16-.46.05s-.17-.32-.05-.46l.35-.44c.11-.14.32-.16.46-.05s.16.32.05.46z" fill="#a9715f"/><path d="m13.96 8.98999.1 1.33001.09 1.04c-.03.01-1.7 1.39-1.17 6.89.02.24.07.73.1.95.01.17-.38.24-.51.07-.0349-.0523-.0636-.1446-.094-.2419-.0567-.1819-.1187-.3811-.236-.3681-.3.03-.17.52-.17.52s.14.71.16.87c.03.32-.43.41-.56.18-.16-.29-.31-.59-.4-1.02-.05-.22-.14-.91-.14-.91-.6311-7.6726 1.217-8.54141 2.4517-9.12181.1347-.06334.2622-.12325.3783-.1882z" fill="#c68d7b"/><path d="m17.18 8.98999-.1 1.33001-.08 1.04c.02.01 1.69 1.39 1.15 6.89-.0146.1749-.0451.488-.0683.7262-.0086.0886-.0163.1668-.0217.2238-.01.17.38.24.51.07.0348-.0523.0636-.1446.0939-.2419.0567-.1819.1188-.3811.2361-.3681.3.03.17.52.17.52s-.14.71-.16.87c-.03.32.43.41.56.18.16-.29.31-.59.4-1.02.05-.22.14-.91.14-.91.6311-7.6726-1.217-8.54141-2.4517-9.12181-.1347-.06334-.2622-.12325-.3783-.1882z" fill="#c68d7b"/><path d="m16.1001 30.03v-1.57l.9276-.372 1.0224.372s-.25.18.91 1c.22.15.11.57.11.57z" fill="#533566"/><path d="m15.0699 30.03v-1.57l-.9946-.3358-1.0154.3358s.07.32-.92 1c-.22.15-.11.57-.11.57z" fill="#533566"/><path d="m12.59 16 .4801 12.46h2.01l.27-10.37c0-.38.46-.36.46 0l.29 10.37h1.94l.5299-12.4678-2.9115-.8374z" fill="#9b9b9b"/><path d="m18.5701 16h-5.98v-3.35h-1.3901c0-1.15.63-2.2 1.39-2.96998.77-.78 1.8301-1.25998 3.0001-1.25998s2.23.49 3 1.26c.76.76996 1.3399 1.81996 1.3399 2.96996h-1.3493z" fill="#ff6723"/><path d="m15.5699 9.41002c-.5 0-.91-.41-.91-.91v-.6h1.82v.6c0 .5-.41.91-.91.91z" fill="#b87a66"/><path d="m17.575 7.228c.0008-.0652.0016-.13158.0133-.19797l.04-.73658c.13-.01.3517-.06.4517-.13v.50658c0 .37-.21.7-.55.85.0427-.09142.0438-.19028.045-.29203z" fill="#593b39"/><path d="m13.0601 6.16592c.11.08.3117.13.4617.13l.04.73411c.0054.04837.0077.09601.01.14293.0064.12771.0124.25007.0783.36707-.36-.15-.59-.49-.59-.87z" fill="#593b39"/><path d="m14.19 5.67996c0 .39765-.3224.72-.72.72s-.72-.32235-.72-.72c0-.39764.3224-.72.72-.72s.72.32236.72.72z" fill="#bb806e"/><path d="m18.39 5.67996c0 .39765-.3224.72-.72.72-.3977 0-.72-.32235-.72-.72 0-.39764.3223-.72.72-.72.3976 0 .72.32236.72.72z" fill="#bb806e"/><path d="m16.0599 2.52002h-.96c-1.08 0-1.89.9-1.77 2.02l.16 2.48c.11.85.83 1.48 1.68 1.48h.41.41c.85 0 1.57-.63 1.68-1.47l.15-2.48c.15-1.08-.68-2.03-1.76-2.03z" fill="#c68d7b"/><path d="m13.9995 4.77471c.0199.01406.0438.02154.0682.02139.0257-.00064.0505-.00939.071-.025.1871-.12961.4172-.18192.642-.146.0305.00299.0611-.00564.0855-.02417.0245-.01854.0411-.04561.0465-.07583.0021-.01523.0012-.03074-.0027-.04562s-.0107-.02885-.02-.04111c-.0092-.01226-.0209-.02257-.0341-.03034-.0133-.00777-.028-.01284-.0432-.01493-.2876-.04443-.5811.02518-.818.194-.0192.01507-.0332.03576-.04.05917-.0069.02342-.0062.04838.0018.07141s.0231.04297.043.05703z" fill="#593b39"/><path d="m17.0046 4.77111c.0207.01649.0465.02532.073.025.0174-.00008.0346-.00398.0503-.0114.0157-.00743.0296-.01822.0407-.0316.0192-.02445.028-.05551.0244-.08641-.0035-.0309-.0191-.05914-.0434-.07859-.2388-.16556-.5313-.23484-.819-.194-.0152.00209-.0299.00716-.0432.01493s-.0249.01808-.0342.03034-.016.02623-.0199.04111-.0048.03039-.0027.04562c.002.01529.007.03005.0147.04339s.018.02501.0303.03432.0263.01608.0413.0199c.0149.00383.0304.00464.0457.00239.2247-.03589.4546.01603.642.145z" fill="#593b39"/><path d="m13.94 5.54997c.06-.26.3-.46.59-.46s.54.21.6.49c.01.06-.04.12-.1.12h-.98c-.08 0-.14-.07-.11-.15z" fill="#fff"/><path d="m17.2101 5.54997c-.06-.26-.3-.46-.59-.46-.3 0-.54.21-.6.49-.01.06.04.12.1.12h.98c.08 0 .13-.07.11-.15z" fill="#fff"/><path d="m14.22 5.59995c0-.22.18-.4.4-.4.21 0 .39.18.39.4 0 .03-.01.07-.03.1h-.75c0-.01392-.0022-.02784-.0045-.04277-.0027-.01723-.0055-.03579-.0055-.05723z" fill="#7d4533"/><path d="m16.9199 5.59996c0-.21-.17-.39-.39-.39-.21 0-.39.18-.39.4 0 .03 0 .07.01.09h.76c0-.01392.0021-.02785.0045-.04277.0026-.01723.0055-.03579.0055-.05723z" fill="#7d4533"/><path d="m14.6199 5.38c.12 0 .22.1.22.22 0 .015-.0025.0325-.005.05s-.005.035-.005.05h-.4c-.02-.03-.03-.06-.03-.1 0-.12.1-.22.22-.22z"/><path d="m16.5301 5.38c-.12 0-.22.1-.22.22 0 .015.0025.0325.005.05s.005.035.005.05h.4c.02-.03.03-.06.03-.1 0-.12-.1-.22-.22-.22z"/><path d="m14.5499 5.44c0 .03866-.0313.07-.07.07-.0386 0-.07-.03134-.07-.07s.0314-.07.07-.07c.0387 0 .07.03134.07.07z" fill="#fff"/><path d="m16.4801 5.44c0 .03866-.0314.07-.07.07-.0387 0-.07-.03134-.07-.07s.0313-.07.07-.07c.0386 0 .07.03134.07.07z" fill="#fff"/><path d="m15.4099 5.55994-.23.74c-.04.15.07.3.23.3h.34c.16 0 .27-.15.22-.3l-.23-.74c-.05-.16-.28-.16-.33 0z" fill="#ab6a55"/><path d="m15.5699 7.00996c-.23 0-.45-.06-.63-.15-.06-.03-.13.04-.09.1.15.24.42.39.72.39s.57-.16.73-.39c.04-.06-.03-.13-.09-.1-.19.1-.4.15-.64.15z" fill="#990838"/><path d="m18.2499 3.41c-.13-.22-.33-.38-.55-.46-.25-.08-.46-.24-.6-.46-.18-.29-.5-.49-.87-.49-.14 0-.28.03-.4.08-.17.07-.36.07-.52 0-.12-.05-.26-.08-.4-.08-.37 0-.68.19-.87.48-.14.22-.35.39-.6.48-.24.08-.44.24-.57.48-.18.35-.15.76.06 1.06.08.11.12.24.12.38v.22c.09-.06.19-.11.3-.12v-.01-.35c0-.81.65-1.46 1.46-1.46h.56c.12 0 .23.07.27.18.17.38.55.62.97.62h.61c.33.01.6.29.6.62l-.0299.4h.0199.01c.1.02.19.06.26.12v-.22c0-.13.04-.27.12-.38.22-.31.26-.74.05-1.09z" fill="#593b39"/></svg>