<svg fill="none" height="32" viewBox="0 0 32 32" width="32" xmlns="http://www.w3.org/2000/svg"><path d="m2 8c0-1.10457.89543-2 2-2h24c1.1046 0 2 .89543 2 2v16c0 1.1046-.8954 2-2 2h-24c-1.10457 0-2-.8954-2-2z" fill="#b4acbc"/><path d="m3.05699 7.8758 7.72031 5.2081-.5547.832-7.22259-4.87545-.00001 13.90825 9.2315-5.8706.5369.8437-9.71816 6.1802c.15201.519.63162.898 1.19976.898h23.5c.5741 0 1.0578-.387 1.2044-.9144l-9.7229-6.1638.5369-.8437 9.2316 5.8515v-13.88923l-7.2227 4.87553-.5547-.832 7.7204-5.20817c-.1591-.50751-.633-.87573-1.193-.87573h-23.49999c-.56 0-1.03399.36825-1.19302.8758z" fill="#e1d8ec"/><path d="m12 9c1.6943 0 2.9293.91861 3.5493 1.5107.2411.2302.6603.2302.9014 0 .62-.59209 1.855-1.5107 3.5493-1.5107 2.5 0 4 2 4 5 0 4-6.5 9-8 9s-8-5-8-9c0-3 1.5-5 4-5z" fill="#f92f60"/></svg>