<svg fill="none" height="32" viewBox="0 0 32 32" width="32" xmlns="http://www.w3.org/2000/svg" xmlns:xlink="http://www.w3.org/1999/xlink"><filter id="a" color-interpolation-filters="sRGB" filterUnits="userSpaceOnUse" height="7.42261" width="8.37463" x="11.002" y="12.7843"><feFlood flood-opacity="0" result="BackgroundImageFix"/><feBlend in="SourceGraphic" in2="BackgroundImageFix" mode="normal" result="shape"/><feGaussianBlur result="effect1_foregroundBlur_18_31130" stdDeviation=".5"/></filter><filter id="b" color-interpolation-filters="sRGB" filterUnits="userSpaceOnUse" height="7.42261" width="8.37463" x="14.7451" y="8.2926"><feFlood flood-opacity="0" result="BackgroundImageFix"/><feBlend in="SourceGraphic" in2="BackgroundImageFix" mode="normal" result="shape"/><feGaussianBlur result="effect1_foregroundBlur_18_31130" stdDeviation=".5"/></filter><filter id="c" color-interpolation-filters="sRGB" filterUnits="userSpaceOnUse" height="7.07654" width="8.33423" x="18.4415" y="4.06421"><feFlood flood-opacity="0" result="BackgroundImageFix"/><feBlend in="SourceGraphic" in2="BackgroundImageFix" mode="normal" result="shape"/><feGaussianBlur result="effect1_foregroundBlur_18_31130" stdDeviation=".5"/></filter><filter id="d" color-interpolation-filters="sRGB" filterUnits="userSpaceOnUse" height="4.56104" width="4.97266" x="22.5883" y="2.19629"><feFlood flood-opacity="0" result="BackgroundImageFix"/><feBlend in="SourceGraphic" in2="BackgroundImageFix" mode="normal" result="shape"/><feGaussianBlur result="effect1_foregroundBlur_18_31130" stdDeviation=".5"/></filter><filter id="e" color-interpolation-filters="sRGB" filterUnits="userSpaceOnUse" height="14.8346" width="5.17407" x="4.64417" y="10.4117"><feFlood flood-opacity="0" result="BackgroundImageFix"/><feBlend in="SourceGraphic" in2="BackgroundImageFix" mode="normal" result="shape"/><feGaussianBlur result="effect1_foregroundBlur_18_31130" stdDeviation=".25"/></filter><filter id="f" color-interpolation-filters="sRGB" filterUnits="userSpaceOnUse" height="4.8175" width="14.4871" x="12.9969" y="20.5259"><feFlood flood-opacity="0" result="BackgroundImageFix"/><feBlend in="SourceGraphic" in2="BackgroundImageFix" mode="normal" result="shape"/><feGaussianBlur result="effect1_foregroundBlur_18_31130" stdDeviation=".5"/></filter><linearGradient id="g" gradientUnits="userSpaceOnUse" x1="15.6179" x2="14.096" y1="25.745" y2="20.1881"><stop offset="0" stop-color="#f8ec1d"/><stop offset=".8631" stop-color="#f89c20"/><stop offset="1" stop-color="#f5891f"/></linearGradient><radialGradient id="h" cx="0" cy="0" gradientTransform="matrix(-5.79358959 1.92480031 -1.27057516 -3.82439205 15.0411 26.0891)" gradientUnits="userSpaceOnUse" r="1"><stop offset=".0925969" stop-color="#467f82"/><stop offset=".542696" stop-color="#1c6d4c"/><stop offset="1" stop-color="#1e7249" stop-opacity="0"/></radialGradient><radialGradient id="i" cx="0" cy="0" gradientTransform="matrix(.59375133 5.34375496 -7.36518524 .81835499 10.5313 12.7812)" gradientUnits="userSpaceOnUse" r="1"><stop offset="0" stop-color="#f0bf2c"/><stop offset=".731707" stop-color="#925600"/><stop offset=".915276" stop-color="#955800"/></radialGradient><linearGradient id="j" gradientUnits="userSpaceOnUse" x1="12.8125" x2="8.97503" y1="19.375" y2="24.5179"><stop offset=".0420641" stop-color="#b17600"/><stop offset=".142032" stop-color="#cf9f00"/><stop offset=".43274" stop-color="#dfbe48"/><stop offset=".645231" stop-color="#c49002"/></linearGradient><linearGradient id="k"><stop offset="0" stop-color="#fcc62f"/><stop offset="1" stop-color="#f6c130" stop-opacity="0"/></linearGradient><radialGradient id="l" cx="0" cy="0" gradientTransform="matrix(-.03124779 4.62500444 -6.43788307 -.04349609 19.0625 4)" gradientUnits="userSpaceOnUse" r="1" xlink:href="#k"/><radialGradient id="m" cx="0" cy="0" gradientTransform="matrix(.15624815 4.43750004 -6.12073692 .21551635 14.5312 8.375)" gradientUnits="userSpaceOnUse" r="1"><stop offset="0" stop-color="#f0bf2c"/><stop offset="1" stop-color="#f6c130" stop-opacity="0"/></radialGradient><radialGradient id="n" cx="0" cy="0" gradientTransform="matrix(-4.24999785 2.03124387 -2.32406371 -4.8626686 27.5 10.5625)" gradientUnits="userSpaceOnUse" r="1"><stop offset="0" stop-color="#ffed56"/><stop offset="1" stop-color="#ffe558" stop-opacity="0"/></radialGradient><radialGradient id="o" cx="0" cy="0" gradientTransform="matrix(-3.12498659 3.26064193 -4.3858397 -4.20337176 23.6875 15.75)" gradientUnits="userSpaceOnUse" r="1"><stop offset="0" stop-color="#ffe352"/><stop offset=".877353" stop-color="#ffe558" stop-opacity="0"/></radialGradient><linearGradient id="p" gradientUnits="userSpaceOnUse" x1="17.625" x2="12.6421" y1="13.1875" y2="19.7236"><stop offset="0" stop-color="#f0b301"/><stop offset=".547803" stop-color="#fbcb34"/><stop offset="1" stop-color="#c49002"/></linearGradient><linearGradient id="q"><stop offset=".18676" stop-color="#f0b301"/><stop offset=".468263" stop-color="#fbcb34"/><stop offset=".820641" stop-color="#e5a906"/><stop offset="1" stop-color="#c49002"/></linearGradient><linearGradient id="r" gradientUnits="userSpaceOnUse" x1="21.75" x2="15.4919" xlink:href="#q" y1="8.3125" y2="16.3687"/><linearGradient id="s" gradientUnits="userSpaceOnUse" x1="25.2803" x2="19.3021" xlink:href="#q" y1="4.08659" y2="11.7657"/><radialGradient id="t" cx="0" cy="0" gradientTransform="matrix(-.5000128 2.71874288 -3.69114434 -.6788503 23.375 2.53125)" gradientUnits="userSpaceOnUse" r="1" xlink:href="#k"/><radialGradient id="u" cx="0" cy="0" gradientTransform="matrix(-.84265507 2.03384726 -2.91956627 -1.20962245 28.8403 4.11357)" gradientUnits="userSpaceOnUse" r="1"><stop offset="0" stop-color="#ffe558"/><stop offset="1" stop-color="#ffe558" stop-opacity="0"/></radialGradient><radialGradient id="v" cx="0" cy="0" gradientTransform="matrix(-2.59374148 1.18750756 -1.21948209 -2.6635799 27.5938 3.25)" gradientUnits="userSpaceOnUse" r="1"><stop offset="0" stop-color="#ffea55"/><stop offset=".923557" stop-color="#ffeb56" stop-opacity="0"/></radialGradient><linearGradient id="w" gradientUnits="userSpaceOnUse" x1="26.2794" x2="26.4308" xlink:href="#q" y1=".903144" y2="6.47869"/><linearGradient id="x"><stop offset="0" stop-color="#ffe458"/><stop offset=".470849" stop-color="#ffda57"/><stop offset="1" stop-color="#ffd856" stop-opacity="0"/></linearGradient><linearGradient id="y" gradientUnits="userSpaceOnUse" x1="16.9818" x2="12.465" xlink:href="#x" y1="17.2901" y2="14.0023"/><linearGradient id="z" gradientUnits="userSpaceOnUse" x1="20.7249" x2="16.2081" xlink:href="#x" y1="12.7984" y2="9.51059"/><linearGradient id="A" gradientUnits="userSpaceOnUse" x1="24.3908" x2="19.8953" xlink:href="#x" y1="8.31395" y2="5.31217"/><linearGradient id="B" gradientUnits="userSpaceOnUse" x1="25.9001" x2="24.046" xlink:href="#x" y1="4.7038" y2="3.42104"/><radialGradient id="C" cx="0" cy="0" gradientTransform="matrix(-.31249334 10.49995091 -3.47431167 -.10340041 8.1875 13.0625)" gradientUnits="userSpaceOnUse" r="1"><stop offset=".0367327" stop-color="#20cc21"/><stop offset="1" stop-color="#56c857" stop-opacity="0"/></radialGradient><radialGradient id="D" cx="0" cy="0" gradientTransform="matrix(3.93750341 5.74999742 -4.63940574 3.17698854 3.625 23.375)" gradientUnits="userSpaceOnUse" r="1"><stop offset="0" stop-color="#145637"/><stop offset="1" stop-color="#1c5a2d" stop-opacity="0"/></radialGradient><linearGradient id="E" gradientUnits="userSpaceOnUse" x1="8.02394" x2="9.3768" y1="11.4218" y2="23.7208"><stop offset="0" stop-color="#59d159"/><stop offset=".351782" stop-color="#56c957"/><stop offset="1" stop-color="#146444"/></linearGradient><linearGradient id="F" gradientUnits="userSpaceOnUse" x1="2.0625" x2="26.5625" y1="23.125" y2="22.8125"><stop offset=".110197" stop-color="#256c27"/><stop offset=".582059" stop-color="#1fb720"/><stop offset="1" stop-color="#41c342"/></linearGradient><radialGradient id="G" cx="0" cy="0" gradientTransform="matrix(-.74999479 8.56249649 -11.95084341 -1.04678236 12.6875 29.625)" gradientUnits="userSpaceOnUse" r="1"><stop offset="0" stop-color="#175b51"/><stop offset="1" stop-color="#187350" stop-opacity="0"/></radialGradient><radialGradient id="H" cx="0" cy="0" gradientTransform="matrix(.74999921 4.31249854 -11.36018142 1.97568231 20.0625 21.5)" gradientUnits="userSpaceOnUse" r="1"><stop offset="0" stop-color="#2ac127"/><stop offset="1" stop-color="#26c025" stop-opacity="0"/></radialGradient><radialGradient id="I" cx="0" cy="0" gradientTransform="matrix(1.9999988 5.12500018 -9.69306594 3.78265749 21.75 27.3125)" gradientUnits="userSpaceOnUse" r="1"><stop offset="0" stop-color="#248f4a"/><stop offset=".852176" stop-color="#26904d" stop-opacity="0"/></radialGradient><linearGradient id="J" gradientUnits="userSpaceOnUse" x1="26.0835" x2="15.1406" y1="22.375" y2="23.0878"><stop offset="0" stop-color="#57c958"/><stop offset=".519559" stop-color="#59ca5a"/><stop offset="1" stop-color="#58ca59" stop-opacity=".32"/></linearGradient><path d="m12.1588 23.9201 2.43 1.38c.82.47 1.84.37 2.55-.25.38-.33.64-.78.73-1.28.17-.93-.27-1.86-1.08-2.33l-2.43-1.38" fill="url(#g)"/><rect fill="#226523" height="9.03926" rx="2.98344" transform="matrix(.76951437 .63862949 -.63862949 .76951437 14.96196 -.525393)" width="5.96689" x="8.20886" y="20.4656"/><rect fill="url(#h)" height="9.03926" rx="2.98344" transform="matrix(.76951437 .63862949 -.63862949 .76951437 14.96196 -.525393)" width="5.96689" x="8.20886" y="20.4656"/><rect fill="#985b00" height="5.8649" rx="2.93245" transform="matrix(.77552329 .63131896 -.63131896 .77552329 11.477667 -1.256425)" width="10.1714" x="7.50562" y="15.5117"/><path d="m8.76932 12.4229c1.02245-1.256 2.86948-1.4453 4.12548-.4229l3.0253 2.4627c1.2559 1.0225 1.4453 2.8695.4228 4.1255l-.2137.2626c-1.0225 1.256-2.8695 1.4453-4.1255.4229l-3.02525-2.4627c-1.256-1.0225-1.44532-2.8695-.42287-4.1255z" fill="#c07f00"/><path d="m8.76932 12.4229c1.02245-1.256 2.86948-1.4453 4.12548-.4229l3.0253 2.4627c1.2559 1.0225 1.4453 2.8695.4228 4.1255l-.2137.2626c-1.0225 1.256-2.8695 1.4453-4.1255.4229l-3.02525-2.4627c-1.256-1.0225-1.44532-2.8695-.42287-4.1255z" fill="url(#i)"/><path d="m6.95121 18.8721c1.02245-1.256 2.86949-1.4453 4.12549-.4228l3.3398 2.7187c1.256 1.0225 1.4453 2.8695.4229 4.1255-1.0225 1.256-2.8695 1.4453-4.1255.4229l-3.33982-2.7188c-1.256-1.0224-1.44533-2.8695-.42287-4.1255z" fill="#cba21c"/><path d="m6.95121 18.8721c1.02245-1.256 2.86949-1.4453 4.12549-.4228l3.3398 2.7187c1.256 1.0225 1.4453 2.8695.4229 4.1255-1.0225 1.256-2.8695 1.4453-4.1255.4229l-3.33982-2.7188c-1.256-1.0224-1.44533-2.8695-.42287-4.1255z" fill="url(#j)"/><path d="m13.5512 16.3503c1.0225-1.256 2.8695-1.4453 4.1255-.4229l2.9788 2.4249c1.256 1.0224 1.4453 2.8695.4229 4.1255l-.1496.1837c-1.0224 1.256-2.8695 1.4454-4.1255.4229l-2.9788-2.4249c-1.256-1.0224-1.4453-2.8695-.4229-4.1255z" fill="#dfbb38"/><path d="m16.917 4.12409c.9889-1.21489 2.7755-1.39802 3.9904-.40903l3.1006 2.52401c1.2148.98898 1.398 2.77557.409 3.99043-.989 1.2149-2.7756 1.398-3.9905.4091l-3.1005-2.52405c-1.2149-.98899-1.398-2.77558-.409-3.99046z" fill="#c68401"/><path d="m16.917 4.12409c.9889-1.21489 2.7755-1.39802 3.9904-.40903l3.1006 2.52401c1.2148.98898 1.398 2.77557.409 3.99043-.989 1.2149-2.7756 1.398-3.9905.4091l-3.1005-2.52405c-1.2149-.98899-1.398-2.77558-.409-3.99046z" fill="url(#l)"/><path d="m12.5482 7.84076c1.0225-1.256 2.8695-1.44533 4.1255-.42288l2.9517 2.40281c1.256 1.02241 1.4453 2.86951.4228 4.12551l-.1578.1938c-1.0224 1.256-2.8695 1.4454-4.1255.4229l-2.9516-2.4028c-1.256-1.0225-1.4453-2.8695-.4229-4.1255z" fill="#c07f00"/><path d="m12.5482 7.84076c1.0225-1.256 2.8695-1.44533 4.1255-.42288l2.9517 2.40281c1.256 1.02241 1.4453 2.86951.4228 4.12551l-.1578.1938c-1.0224 1.256-2.8695 1.4454-4.1255.4229l-2.9516-2.4028c-1.256-1.0225-1.4453-2.8695-.4229-4.1255z" fill="url(#m)"/><path d="m20.0976 6.80974c.9952-1.22252 2.793-1.4068 4.0155-.41161l3.0729 2.50152c1.2225.99519 1.4068 2.79305.4116 4.01555s-2.793 1.4068-4.0155.4116l-3.0729-2.5015c-1.2225-.99524-1.4068-2.79305-.4116-4.01556z" fill="#e29300"/><path d="m20.0976 6.80974c.9952-1.22252 2.793-1.4068 4.0155-.41161l3.0729 2.50152c1.2225.99519 1.4068 2.79305.4116 4.01555s-2.793 1.4068-4.0155.4116l-3.0729-2.5015c-1.2225-.99524-1.4068-2.79305-.4116-4.01556z" fill="url(#n)"/><path d="m17.1134 11.7311c1.0225-1.256 2.8695-1.4453 4.1255-.4228l2.9655 2.4141c1.256 1.0224 1.4454 2.8695.4229 4.1255l-.0664.0815c-1.0224 1.256-2.8695 1.4453-4.1255.4229l-2.9655-2.4141c-1.256-1.0225-1.4453-2.8695-.4229-4.1255z" fill="#e29300"/><path d="m17.1134 11.7311c1.0225-1.256 2.8695-1.4453 4.1255-.4228l2.9655 2.4141c1.256 1.0224 1.4454 2.8695.4229 4.1255l-.0664.0815c-1.0224 1.256-2.8695 1.4453-4.1255.4229l-2.9655-2.4141c-1.256-1.0225-1.4453-2.8695-.4229-4.1255z" fill="url(#o)"/><path d="m10.8795 14.2018c1.0224-1.256 2.8695-1.4453 4.1255-.4228l2.9788 2.4249c1.256 1.0224 1.4453 2.8695.4228 4.1255l-.1495.1837c-1.0225 1.256-2.8695 1.4453-4.1255.4229l-2.9788-2.4249c-1.25603-1.0225-1.44536-2.8695-.4229-4.1255z" fill="#cba21c"/><path d="m10.8795 14.2018c1.0224-1.256 2.8695-1.4453 4.1255-.4228l2.9788 2.4249c1.256 1.0224 1.4453 2.8695.4228 4.1255l-.1495.1837c-1.0225 1.256-2.8695 1.4453-4.1255.4229l-2.9788-2.4249c-1.25603-1.0225-1.44536-2.8695-.4229-4.1255z" fill="url(#p)"/><path d="m14.6877 9.70501c1.0225-1.25599 2.8695-1.44532 4.1255-.42287l2.9517 2.40286c1.256 1.0224 1.4453 2.8694.4229 4.1254l-.0753.0925c-1.0225 1.256-2.8695 1.4453-4.1255.4229l-2.9517-2.4028c-1.256-1.0225-1.4453-2.8695-.4228-4.12553z" fill="#cba21c"/><path d="m14.6877 9.70501c1.0225-1.25599 2.8695-1.44532 4.1255-.42287l2.9517 2.40286c1.256 1.0224 1.4453 2.8694.4229 4.1254l-.0753.0925c-1.0225 1.256-2.8695 1.4453-4.1255.4229l-2.9517-2.4028c-1.256-1.0225-1.4453-2.8695-.4228-4.12553z" fill="url(#r)"/><path d="m18.3432 5.32536c.9952-1.22252 2.793-1.4068 4.0155-.4116l3.0729 2.50151c1.2225.9952 1.4068 2.79303.4116 4.01553s-2.793 1.4068-4.0155.4116l-3.0729-2.50152c-1.2225-.99519-1.4068-2.793-.4116-4.01552z" fill="#cba21c"/><path d="m18.3432 5.32536c.9952-1.22252 2.793-1.4068 4.0155-.4116l3.0729 2.50151c1.2225.9952 1.4068 2.79303.4116 4.01553s-2.793 1.4068-4.0155.4116l-3.0729-2.50152c-1.2225-.99519-1.4068-2.793-.4116-4.01552z" fill="url(#s)"/><path d="m22.0004 2.67503c.5704-.70076 1.601-.80639 2.3017-.23594l.9076.73886c.7008.57046.8064 1.60098.236 2.30174-.5705.70076-1.601.80639-2.3018.23593l-.9076-.73886c-.7007-.57045-.8064-1.60097-.2359-2.30173z" fill="#d98d00"/><path d="m22.0004 2.67503c.5704-.70076 1.601-.80639 2.3017-.23594l.9076.73886c.7008.57046.8064 1.60098.236 2.30174-.5705.70076-1.601.80639-2.3018.23593l-.9076-.73886c-.7007-.57045-.8064-1.60097-.2359-2.30173z" fill="url(#t)"/><rect fill="#f7a001" height="3.2722" rx="1.6361" transform="matrix(.77552329 .63131896 -.63131896 .77552329 7.824412 -15.286639)" width="4.69721" x="25.4083" y="3.35938"/><rect fill="url(#u)" height="3.2722" rx="1.6361" transform="matrix(.77552329 .63131896 -.63131896 .77552329 7.824412 -15.286639)" width="4.69721" x="25.4083" y="3.35938"/><path d="m28.0782 4.0719c0 .43869-.1386.84503-.3743 1.17765-2.0789.98483-3.7898-.24174-3.1409-2.58435.3713-.38959.8954-.63236 1.4761-.63236 1.1261 0 2.0391.91292 2.0391 2.03906z" fill="#f3bb30"/><path d="m28.0782 4.0719c0 .43869-.1386.84503-.3743 1.17765-2.0789.98483-3.7898-.24174-3.1409-2.58435.3713-.38959.8954-.63236 1.4761-.63236 1.1261 0 2.0391.91292 2.0391 2.03906z" fill="url(#v)"/><rect fill="#cba21c" height="3.2722" rx="1.6361" transform="matrix(.77552329 .63131896 -.63131896 .77552329 6.89476 -14.734603)" width="4.44254" x="24.1672" y="2.32812"/><rect fill="url(#w)" height="3.2722" rx="1.6361" transform="matrix(.77552329 .63131896 -.63131896 .77552329 6.89476 -14.734603)" width="4.44254" x="24.1672" y="2.32812"/><g filter="url(#a)"><path d="m13.4476 13.807c.7849.1457 4.4655 3.3087 4.802 3.753.3366.4442-.1023 1.6469-.1023 1.6469l-6.1453-4.9429s.6607-.6027 1.4456-.457z" fill="url(#y)"/></g><g filter="url(#b)"><path d="m17.1908 9.31529c.7849.14573 4.4655 3.30871 4.802 3.75301.3365.4442-.1023 1.6469-.1023 1.6469l-6.1453-4.94291s.6607-.60272 1.4456-.457z" fill="url(#z)"/></g><g filter="url(#c)"><path d="m20.8444 5.07486c.7716.09946 4.4532 3.01422 4.7938 3.43384.3405.41961-.0584 1.632-.0584 1.632l-6.1383-4.5328s.6312-.6325 1.4029-.53304z" fill="url(#A)"/></g><g filter="url(#d)"><path d="m24.5334 3.19853c.3969-.06273 1.8893 1.2112 2.0027 1.42574.1134.21453-.1978 1.13305-.1978 1.13305l-2.7501-2.07814s.5483-.41793.9452-.48065z" fill="url(#B)"/></g><path d="m8.25001 10.5c-1.01555-.0781-1.29035 1.4198-2.98439 4.5156-1.69403 3.0958-1.99997 7.9688 1.04839 11.0375l2.35786-3.8813c2.90623-5.1406.59369-11.5936-.42186-11.6718z" fill="#1b7c1e"/><path d="m8.25001 10.5c-1.01555-.0781-1.29035 1.4198-2.98439 4.5156-1.69403 3.0958-1.99997 7.9688 1.04839 11.0375l2.35786-3.8813c2.90623-5.1406.59369-11.5936-.42186-11.6718z" fill="url(#C)"/><path d="m8.25001 10.5c-1.01555-.0781-1.29035 1.4198-2.98439 4.5156-1.69403 3.0958-1.99997 7.9688 1.04839 11.0375l2.35786-3.8813c2.90623-5.1406.59369-11.5936-.42186-11.6718z" fill="url(#D)"/><g filter="url(#e)"><path d="m5.14421 24.7463c4.70794-4.5656 4.90569-11.3422 3.17544-13.8345.1236 3.4799-.02008 4.9979-.40054 6.8673-.46933 2.306-2.7749 6.9672-2.7749 6.9672z" fill="url(#E)"/></g><path d="m26.9375 22.7656c-.0119-1.7854-7.5783-6.4999-12.6407-3.7812-5.06242 2.7187-9.32564 4.1699-9.20306 5.3281.29059 2.7457 7.93746 6.5156 12.89056 3.5469 4.9531-2.9688 8.9651-3.3083 8.9532-5.0938z" fill="url(#F)"/><path d="m26.9375 22.7656c-.0119-1.7854-7.5783-6.4999-12.6407-3.7812-5.06242 2.7187-9.32564 4.1699-9.20306 5.3281.29059 2.7457 7.93746 6.5156 12.89056 3.5469 4.9531-2.9688 8.9651-3.3083 8.9532-5.0938z" fill="url(#G)"/><path d="m26.9375 22.7656c-.0119-1.7854-7.5783-6.4999-12.6407-3.7812-5.06242 2.7187-9.32564 4.1699-9.20306 5.3281.29059 2.7457 7.93746 6.5156 12.89056 3.5469 4.9531-2.9688 8.9651-3.3083 8.9532-5.0938z" fill="url(#H)"/><path d="m26.9375 22.7656c-.0119-1.7854-7.5783-6.4999-12.6407-3.7812-5.06242 2.7187-9.32564 4.1699-9.20306 5.3281.29059 2.7457 7.93746 6.5156 12.89056 3.5469 4.9531-2.9688 8.9651-3.3083 8.9532-5.0938z" fill="url(#I)"/><g filter="url(#f)"><path d="m20.3437 21.5625c2.9374-.2188 4.9386.5937 6.1403 1.0937-5.5411 0-9.0152.9688-11.8165 1.6563-1.0775.2644-.6248-1.2465-.2337-1.4688.6231-.3541 2.9725-1.0625 5.9099-1.2812z" fill="url(#J)"/></g></svg>