<svg enable-background="new 0 0 128 128" viewBox="0 0 128 128" xmlns="http://www.w3.org/2000/svg"><g transform="scale(4)"><path d="m27.5047 30h-22.99933c-1.38296 0-2.50537-1.1222-2.50537-2.5048v-22.87401c0-.34065.2806-.62119.62133-.62119h26.75737c.3407 0 .6213.28054.6213.62119v22.87401c0 1.3826-1.1124 2.5048-2.4953 2.5048z" fill="#aeddff"/><path d="m4.5 27c-.86199 0-1.5-.6984-1.5-1.5565v-6.4557c0-.5488.44102-.9878.99229-.9878h4.00771l8-2.5 8 2.5h4.0077c.5513 0 .9923.439.9923.9878v6.4557c0 .8581-.7016 1.5565-1.5636 1.5565z" fill="#d3883e"/><path d="m17.0398 13c.5323 0 .9602.4428.9602.9935v4.0065h-10v-4.0065c0-.5507.42792-.9935.96021-.9935z" fill="#b4f6fc"/><path d="m24 18h-8v-4.0022c0-.5531.4282-.9978.9608-.9978h6.0784c.5326 0 .9608.4447.9608.9978z" fill="#00a6ed"/><path d="m26 7c0-.55228.4477-1 1-1s1 .44772 1 1v18c0 .5523-.4477 1-1 1s-1-.4477-1-1z" fill="#fff"/></g></svg>