<svg fill="none" height="32" viewBox="0 0 32 32" width="32" xmlns="http://www.w3.org/2000/svg" xmlns:xlink="http://www.w3.org/1999/xlink"><filter id="a" color-interpolation-filters="sRGB" filterUnits="userSpaceOnUse" height="6" width="6.15" x="4.31628" y="14.8071"><feFlood flood-opacity="0" result="BackgroundImageFix"/><feBlend in="SourceGraphic" in2="BackgroundImageFix" mode="normal" result="shape"/><feColorMatrix in="SourceAlpha" result="hardAlpha" type="matrix" values="0 0 0 0 0 0 0 0 0 0 0 0 0 0 0 0 0 0 127 0"/><feOffset dx=".15"/><feGaussianBlur stdDeviation=".25"/><feComposite in2="hardAlpha" k2="-1" k3="1" operator="arithmetic"/><feColorMatrix type="matrix" values="0 0 0 0 0.894118 0 0 0 0 0.682353 0 0 0 0 0.6 0 0 0 1 0"/><feBlend in2="shape" mode="normal" result="effect1_innerShadow_3987_19260"/></filter><filter id="b" color-interpolation-filters="sRGB" filterUnits="userSpaceOnUse" height="6.25" width="6" x="22.0522" y="14.5571"><feFlood flood-opacity="0" result="BackgroundImageFix"/><feBlend in="SourceGraphic" in2="BackgroundImageFix" mode="normal" result="shape"/><feColorMatrix in="SourceAlpha" result="hardAlpha" type="matrix" values="0 0 0 0 0 0 0 0 0 0 0 0 0 0 0 0 0 0 127 0"/><feOffset dy="-.25"/><feGaussianBlur stdDeviation=".25"/><feComposite in2="hardAlpha" k2="-1" k3="1" operator="arithmetic"/><feColorMatrix type="matrix" values="0 0 0 0 0.784314 0 0 0 0 0.572549 0 0 0 0 0.513726 0 0 0 1 0"/><feBlend in2="shape" mode="normal" result="effect1_innerShadow_3987_19260"/></filter><filter id="c" color-interpolation-filters="sRGB" filterUnits="userSpaceOnUse" height="5.00519" width="5.00516" x="22.5497" y="15.3046"><feFlood flood-opacity="0" result="BackgroundImageFix"/><feBlend in="SourceGraphic" in2="BackgroundImageFix" mode="normal" result="shape"/><feGaussianBlur result="effect1_foregroundBlur_3987_19260" stdDeviation=".25"/></filter><filter id="d" color-interpolation-filters="sRGB" filterUnits="userSpaceOnUse" height="4.80519" width="4.80516" x="4.94964" y="15.4046"><feFlood flood-opacity="0" result="BackgroundImageFix"/><feBlend in="SourceGraphic" in2="BackgroundImageFix" mode="normal" result="shape"/><feGaussianBlur result="effect1_foregroundBlur_3987_19260" stdDeviation=".2"/></filter><filter id="e" color-interpolation-filters="sRGB" filterUnits="userSpaceOnUse" height="24.6006" width="19.853" x="6.69852" y="4.58813"><feFlood flood-opacity="0" result="BackgroundImageFix"/><feBlend in="SourceGraphic" in2="BackgroundImageFix" mode="normal" result="shape"/><feColorMatrix in="SourceAlpha" result="hardAlpha" type="matrix" values="0 0 0 0 0 0 0 0 0 0 0 0 0 0 0 0 0 0 127 0"/><feOffset dx="1.25" dy=".25"/><feGaussianBlur stdDeviation=".875"/><feComposite in2="hardAlpha" k2="-1" k3="1" operator="arithmetic"/><feColorMatrix type="matrix" values="0 0 0 0 0.913725 0 0 0 0 0.682353 0 0 0 0 0.592157 0 0 0 1 0"/><feBlend in2="shape" mode="normal" result="effect1_innerShadow_3987_19260"/></filter><filter id="f" color-interpolation-filters="sRGB" filterUnits="userSpaceOnUse" height="5.71875" width="4.5" x="13.4232" y="16.5828"><feFlood flood-opacity="0" result="BackgroundImageFix"/><feBlend in="SourceGraphic" in2="BackgroundImageFix" mode="normal" result="shape"/><feGaussianBlur result="effect1_foregroundBlur_3987_19260" stdDeviation=".25"/></filter><filter id="g" color-interpolation-filters="sRGB" filterUnits="userSpaceOnUse" height="5.5" width="4" x="14.0522" y="16.3571"><feFlood flood-opacity="0" result="BackgroundImageFix"/><feBlend in="SourceGraphic" in2="BackgroundImageFix" mode="normal" result="shape"/><feGaussianBlur result="effect1_foregroundBlur_3987_19260" stdDeviation=".125"/></filter><filter id="h" color-interpolation-filters="sRGB" filterUnits="userSpaceOnUse" height="2.39655" width="5.42296" x="17.9815" y="15.1884"><feFlood flood-opacity="0" result="BackgroundImageFix"/><feBlend in="SourceGraphic" in2="BackgroundImageFix" mode="normal" result="shape"/><feColorMatrix in="SourceAlpha" result="hardAlpha" type="matrix" values="0 0 0 0 0 0 0 0 0 0 0 0 0 0 0 0 0 0 127 0"/><feOffset dx="-.2"/><feGaussianBlur stdDeviation=".2"/><feComposite in2="hardAlpha" k2="-1" k3="1" operator="arithmetic"/><feColorMatrix type="matrix" values="0 0 0 0 0.0941176 0 0 0 0 0.0666667 0 0 0 0 0.117647 0 0 0 1 0"/><feBlend in2="shape" mode="normal" result="effect1_innerShadow_3987_19260"/></filter><filter id="i" color-interpolation-filters="sRGB" filterUnits="userSpaceOnUse" height="2.39655" width="5.42296" x="8.70029" y="15.1884"><feFlood flood-opacity="0" result="BackgroundImageFix"/><feBlend in="SourceGraphic" in2="BackgroundImageFix" mode="normal" result="shape"/><feColorMatrix in="SourceAlpha" result="hardAlpha" type="matrix" values="0 0 0 0 0 0 0 0 0 0 0 0 0 0 0 0 0 0 127 0"/><feOffset dx=".2"/><feGaussianBlur stdDeviation=".125"/><feComposite in2="hardAlpha" k2="-1" k3="1" operator="arithmetic"/><feColorMatrix type="matrix" values="0 0 0 0 0.0862745 0 0 0 0 0.054902 0 0 0 0 0.113725 0 0 0 1 0"/><feBlend in2="shape" mode="normal" result="effect1_innerShadow_3987_19260"/></filter><filter id="j" color-interpolation-filters="sRGB" filterUnits="userSpaceOnUse" height="1.12529" width="1.29409" x="18.8381" y="15.9604"><feFlood flood-opacity="0" result="BackgroundImageFix"/><feBlend in="SourceGraphic" in2="BackgroundImageFix" mode="normal" result="shape"/><feGaussianBlur result="effect1_foregroundBlur_3987_19260" stdDeviation=".05"/></filter><filter id="k" color-interpolation-filters="sRGB" filterUnits="userSpaceOnUse" height="1.35721" width="1.31586" x="20.4905" y="16.1867"><feFlood flood-opacity="0" result="BackgroundImageFix"/><feBlend in="SourceGraphic" in2="BackgroundImageFix" mode="normal" result="shape"/><feGaussianBlur result="effect1_foregroundBlur_3987_19260" stdDeviation=".1"/></filter><filter id="l" color-interpolation-filters="sRGB" filterUnits="userSpaceOnUse" height="1.59354" width="1.49311" x="12.2072" y="16.0685"><feFlood flood-opacity="0" result="BackgroundImageFix"/><feBlend in="SourceGraphic" in2="BackgroundImageFix" mode="normal" result="shape"/><feGaussianBlur result="effect1_foregroundBlur_3987_19260" stdDeviation=".1"/></filter><filter id="m" color-interpolation-filters="sRGB" filterUnits="userSpaceOnUse" height="1.14055" width="1.52941" x="10.7135" y="15.9452"><feFlood flood-opacity="0" result="BackgroundImageFix"/><feBlend in="SourceGraphic" in2="BackgroundImageFix" mode="normal" result="shape"/><feGaussianBlur result="effect1_foregroundBlur_3987_19260" stdDeviation=".05"/></filter><filter id="n" color-interpolation-filters="sRGB" filterUnits="userSpaceOnUse" height="11.918" width="12.8604" x="14.0981" y="3.59167"><feFlood flood-opacity="0" result="BackgroundImageFix"/><feBlend in="SourceGraphic" in2="BackgroundImageFix" mode="normal" result="shape"/><feGaussianBlur result="effect1_foregroundBlur_3987_19260" stdDeviation="1.25"/></filter><filter id="o" color-interpolation-filters="sRGB" filterUnits="userSpaceOnUse" height="1.86119" width="4.40007" x="8.95227" y="12.7071"><feFlood flood-opacity="0" result="BackgroundImageFix"/><feBlend in="SourceGraphic" in2="BackgroundImageFix" mode="normal" result="shape"/><feColorMatrix in="SourceAlpha" result="hardAlpha" type="matrix" values="0 0 0 0 0 0 0 0 0 0 0 0 0 0 0 0 0 0 127 0"/><feOffset dx=".2" dy="-.2"/><feGaussianBlur stdDeviation=".15"/><feComposite in2="hardAlpha" k2="-1" k3="1" operator="arithmetic"/><feColorMatrix type="matrix" values="0 0 0 0 0.0431373 0 0 0 0 0.0235294 0 0 0 0 0.0313726 0 0 0 1 0"/><feBlend in2="shape" mode="normal" result="effect1_innerShadow_3987_19260"/></filter><filter id="p" color-interpolation-filters="sRGB" filterUnits="userSpaceOnUse" height="1.86132" width="4.40007" x="19.0522" y="12.7071"><feFlood flood-opacity="0" result="BackgroundImageFix"/><feBlend in="SourceGraphic" in2="BackgroundImageFix" mode="normal" result="shape"/><feColorMatrix in="SourceAlpha" result="hardAlpha" type="matrix" values="0 0 0 0 0 0 0 0 0 0 0 0 0 0 0 0 0 0 127 0"/><feOffset dx=".2" dy="-.2"/><feGaussianBlur stdDeviation=".15"/><feComposite in2="hardAlpha" k2="-1" k3="1" operator="arithmetic"/><feColorMatrix type="matrix" values="0 0 0 0 0.0431373 0 0 0 0 0.0235294 0 0 0 0 0.0313726 0 0 0 1 0"/><feBlend in2="shape" mode="normal" result="effect1_innerShadow_3987_19260"/></filter><filter id="q" color-interpolation-filters="sRGB" filterUnits="userSpaceOnUse" height="1.90425" width="4.2964" x="19.0683" y="12.7213"><feFlood flood-opacity="0" result="BackgroundImageFix"/><feBlend in="SourceGraphic" in2="BackgroundImageFix" mode="normal" result="shape"/><feGaussianBlur result="effect1_foregroundBlur_3987_19260" stdDeviation=".2"/></filter><filter id="r" color-interpolation-filters="sRGB" filterUnits="userSpaceOnUse" height="1.90425" width="4.2964" x="8.90414" y="12.7213"><feFlood flood-opacity="0" result="BackgroundImageFix"/><feBlend in="SourceGraphic" in2="BackgroundImageFix" mode="normal" result="shape"/><feGaussianBlur result="effect1_foregroundBlur_3987_19260" stdDeviation=".2"/></filter><linearGradient id="s" gradientUnits="userSpaceOnUse" x1="4.31628" x2="9.83365" y1="17.9697" y2="17.9697"><stop offset="0" stop-color="#cc9987"/><stop offset="1" stop-color="#ac7864"/></linearGradient><radialGradient id="t" cx="0" cy="0" gradientTransform="matrix(3.40624868 -3.79687275 4.63581038 4.15887601 24.4585 19.6259)" gradientUnits="userSpaceOnUse" r="1"><stop offset=".444268" stop-color="#e5b1a5"/><stop offset=".94391" stop-color="#ffd8c1"/></radialGradient><radialGradient id="u" cx="0" cy="0" gradientTransform="matrix(2.45312707 1.37500415 -.38873424 .69353571 25.5054 14.6728)" gradientUnits="userSpaceOnUse" r="1"><stop offset="0" stop-color="#dba98b"/><stop offset="1" stop-color="#dba98b" stop-opacity="0"/></radialGradient><radialGradient id="v" cx="0" cy="0" gradientTransform="matrix(2.81506263 -.20939933 .16369235 2.20060024 24.2397 18.0166)" gradientUnits="userSpaceOnUse" r="1"><stop offset=".719132" stop-color="#f4b89e" stop-opacity="0"/><stop offset="1" stop-color="#f5b99d"/></radialGradient><radialGradient id="w" cx="0" cy="0" gradientTransform="matrix(-2.25 0 0 -1.77497 7.47412 17.8072)" gradientUnits="userSpaceOnUse" r="1"><stop offset=".666667" stop-color="#bc8272" stop-opacity="0"/><stop offset="1" stop-color="#bc8272"/></radialGradient><radialGradient id="x" cx="0" cy="0" gradientTransform="matrix(-9.37500246 5.12501046 -6.13481653 -11.22220541 21.3125 15.8104)" gradientUnits="userSpaceOnUse" r="1"><stop offset="0" stop-color="#ffddc1"/><stop offset="1" stop-color="#dca896"/></radialGradient><radialGradient id="y" cx="0" cy="0" gradientTransform="matrix(0 -2.60062 2.93086 0 11.5955 15.8147)" gradientUnits="userSpaceOnUse" r="1"><stop offset=".230771" stop-color="#d1968f"/><stop offset="1" stop-color="#d1968f" stop-opacity="0"/></radialGradient><radialGradient id="z" cx="0" cy="0" gradientTransform="matrix(0 -2.60062 3.4675 0 20.6357 15.6495)" gradientUnits="userSpaceOnUse" r="1"><stop offset=".264418" stop-color="#f9bbaa"/><stop offset="1" stop-color="#f9bbaa" stop-opacity="0"/></radialGradient><radialGradient id="A" cx="0" cy="0" gradientTransform="matrix(0 2.03125 -1.93296 0 11.7813 17.4666)" gradientUnits="userSpaceOnUse" r="1"><stop offset="0" stop-color="#e9b6a1"/><stop offset="1" stop-color="#d7a285" stop-opacity="0"/><stop offset="1" stop-color="#e9b6a1" stop-opacity="0"/></radialGradient><radialGradient id="B" cx="0" cy="0" gradientTransform="matrix(-4.93755821 15.94082378 -17.3741415 -5.38151831 19.1875 12.9979)" gradientUnits="userSpaceOnUse" r="1"><stop offset=".62233" stop-color="#b57994" stop-opacity="0"/><stop offset="1" stop-color="#b57994"/></radialGradient><radialGradient id="C" cx="0" cy="0" gradientTransform="matrix(1.8163048 4.08668369 -8.498931 3.77730462 9.61403 5.82498)" gradientUnits="userSpaceOnUse" r="1"><stop offset="0" stop-color="#d3a68d"/><stop offset="1" stop-color="#d3a68d" stop-opacity="0"/></radialGradient><radialGradient id="D" cx="0" cy="0" gradientTransform="matrix(-8.10316789 8.33849206 -7.75702367 -7.53810937 24.1032 6.66864)" gradientUnits="userSpaceOnUse" r="1"><stop offset="0" stop-color="#ffe5c4"/><stop offset="1" stop-color="#ffe5c4" stop-opacity="0"/></radialGradient><radialGradient id="E" cx="0" cy="0" gradientTransform="matrix(-.84931983 -3.81088428 1.17447558 -.26175169 17.5147 20.1533)" gradientUnits="userSpaceOnUse" r="1"><stop offset=".0168227" stop-color="#ffdcc5"/><stop offset="1" stop-color="#ffdcc5" stop-opacity="0"/></radialGradient><linearGradient id="F" gradientUnits="userSpaceOnUse" x1="14.3022" x2="16.0522" y1="20.2891" y2="20.2891"><stop offset="0" stop-color="#dfa791"/><stop offset="1" stop-color="#dfa791" stop-opacity="0"/></linearGradient><linearGradient id="G" gradientUnits="userSpaceOnUse" x1="16.0522" x2="16.0522" y1="21.7787" y2="20.6409"><stop offset="0" stop-color="#d29394"/><stop offset="1" stop-color="#d29394" stop-opacity="0"/></linearGradient><radialGradient id="H" cx="0" cy="0" gradientTransform="matrix(-1.45312 0 0 -.40625 17.0679 20.5478)" gradientUnits="userSpaceOnUse" r="1"><stop offset="0" stop-color="#ffd6c2"/><stop offset="1" stop-color="#ffd6c2" stop-opacity="0"/></radialGradient><linearGradient id="I" gradientUnits="userSpaceOnUse" x1="16.1981" x2="16.1981" y1="21.7299" y2="21.4698"><stop offset="0" stop-color="#cc8c8d"/><stop offset="1" stop-color="#cc8c8d" stop-opacity="0"/></linearGradient><radialGradient id="J" cx="0" cy="0" gradientTransform="matrix(-2.55650399 1.755132 -2.10939586 -3.07252043 16.7554 19.4384)" gradientUnits="userSpaceOnUse" r="1"><stop offset=".777645" stop-color="#cc8c8d" stop-opacity="0"/><stop offset="1" stop-color="#cc8c8d"/></radialGradient><linearGradient id="K" gradientUnits="userSpaceOnUse" x1="14.693" x2="15.5368" y1="24.5322" y2="22.9072"><stop offset="0" stop-color="#ce9591"/><stop offset="1" stop-color="#ce9591" stop-opacity="0"/></linearGradient><linearGradient id="L"><stop offset=".80198" stop-color="#7d574a"/><stop offset="1" stop-color="#694b43"/><stop offset="1" stop-color="#804d49"/><stop offset="1" stop-color="#664944"/></linearGradient><radialGradient id="M" cx="0" cy="0" gradientTransform="matrix(0 1.51263 -2.406 0 20.1205 16.6939)" gradientUnits="userSpaceOnUse" r="1" xlink:href="#L"/><linearGradient id="N"><stop offset=".765532" stop-color="#ffe6e2" stop-opacity="0"/><stop offset=".966159" stop-color="#ffe6e2"/></linearGradient><radialGradient id="O" cx="0" cy="0" gradientTransform="matrix(-.43238841 -.55719077 .76711823 -.59529527 19.695 16.8508)" gradientUnits="userSpaceOnUse" r="1" xlink:href="#N"/><linearGradient id="P"><stop offset="0" stop-color="#b4948d"/><stop offset="1" stop-color="#b4948d" stop-opacity="0"/></linearGradient><linearGradient id="Q" gradientUnits="userSpaceOnUse" x1="21.5709" x2="20.9859" xlink:href="#P" y1="16.7944" y2="17.1549"/><radialGradient id="R" cx="0" cy="0" gradientTransform="matrix(0 1.51264 -2.40602 0 11.984 16.6939)" gradientUnits="userSpaceOnUse" r="1" xlink:href="#L"/><linearGradient id="S" gradientUnits="userSpaceOnUse" x1="13.3707" x2="12.7858" xlink:href="#P" y1="16.7944" y2="17.1548"/><radialGradient id="T" cx="0" cy="0" gradientTransform="matrix(-.01442203 -.9211301 1.1072343 -.01733584 11.45 17.1026)" gradientUnits="userSpaceOnUse" r="1" xlink:href="#N"/><linearGradient id="U" gradientUnits="userSpaceOnUse" x1="19.5908" x2="25.4496" y1="12.2588" y2="4.94513"><stop offset="0" stop-color="#ffe2c8"/><stop offset="1" stop-color="#ffe2c8" stop-opacity="0"/></linearGradient><g filter="url(#a)"><path d="m7.31628 20.8071c1.65686 0 3.00002-1.3431 3.00002-3 0-1.6568-1.34316-3-3.00002-3-1.65685 0-3 1.3432-3 3 0 1.6569 1.34315 3 3 3z" fill="url(#s)"/></g><g filter="url(#b)"><path d="m25.0522 20.8071c1.6569 0 3-1.3431 3-3 0-1.6568-1.3431-3-3-3-1.6568 0-3 1.3432-3 3 0 1.6569 1.3432 3 3 3z" fill="url(#t)"/><path d="m25.0522 20.8071c1.6569 0 3-1.3431 3-3 0-1.6568-1.3431-3-3-3-1.6568 0-3 1.3432-3 3 0 1.6569 1.3432 3 3 3z" fill="url(#u)"/></g><g filter="url(#c)"><path d="m25.0522 19.8097c1.106 0 2.0026-.8966 2.0026-2.0025 0-1.106-.8966-2.0026-2.0026-2.0026s-2.0025.8966-2.0025 2.0026c0 1.1059.8965 2.0025 2.0025 2.0025z" fill="#f6bca5"/><path d="m25.0522 19.8097c1.106 0 2.0026-.8966 2.0026-2.0025 0-1.106-.8966-2.0026-2.0026-2.0026s-2.0025.8966-2.0025 2.0026c0 1.1059.8965 2.0025 2.0025 2.0025z" fill="url(#v)"/></g><g filter="url(#d)"><path d="m7.35222 19.8097c1.106 0 2.00259-.8966 2.00259-2.0025 0-1.106-.89659-2.0026-2.00259-2.0026-1.10599 0-2.00258.8966-2.00258 2.0026 0 1.1059.89659 2.0025 2.00258 2.0025z" fill="#c58c80"/><path d="m7.35222 19.8097c1.106 0 2.00259-.8966 2.00259-2.0025 0-1.106-.89659-2.0026-2.00259-2.0026-1.10599 0-2.00258.8966-2.00258 2.0026 0 1.1059.89659 2.0025 2.00258 2.0025z" fill="url(#w)"/></g><g filter="url(#e)"><path d="m6.69852 20.2052c.22987 5.225 4.31018 8.7336 9.29078 8.7336 4.9807 0 9.061-3.5086 9.2909-8.7336l.0213-8.7218c0-3.30058-2.0575-5.92033-6.3-6.73552-1.6-.21154-4.5-.21444-6 0-4.2424.81519-6.29997 3.43494-6.29997 6.73552z" fill="url(#x)"/><path d="m6.69852 20.2052c.22987 5.225 4.31018 8.7336 9.29078 8.7336 4.9807 0 9.061-3.5086 9.2909-8.7336l.0213-8.7218c0-3.30058-2.0575-5.92033-6.3-6.73552-1.6-.21154-4.5-.21444-6 0-4.2424.81519-6.29997 3.43494-6.29997 6.73552z" fill="url(#y)"/><path d="m6.69852 20.2052c.22987 5.225 4.31018 8.7336 9.29078 8.7336 4.9807 0 9.061-3.5086 9.2909-8.7336l.0213-8.7218c0-3.30058-2.0575-5.92033-6.3-6.73552-1.6-.21154-4.5-.21444-6 0-4.2424.81519-6.29997 3.43494-6.29997 6.73552z" fill="url(#z)"/><path d="m6.69852 20.2052c.22987 5.225 4.31018 8.7336 9.29078 8.7336 4.9807 0 9.061-3.5086 9.2909-8.7336l.0213-8.7218c0-3.30058-2.0575-5.92033-6.3-6.73552-1.6-.21154-4.5-.21444-6 0-4.2424.81519-6.29997 3.43494-6.29997 6.73552z" fill="url(#A)"/><path d="m6.69852 20.2052c.22987 5.225 4.31018 8.7336 9.29078 8.7336 4.9807 0 9.061-3.5086 9.2909-8.7336l.0213-8.7218c0-3.30058-2.0575-5.92033-6.3-6.73552-1.6-.21154-4.5-.21444-6 0-4.2424.81519-6.29997 3.43494-6.29997 6.73552z" fill="url(#B)"/></g><path d="m6.69852 20.2052c.22987 5.225 4.31018 8.7336 9.29078 8.7336 4.9807 0 9.061-3.5086 9.2909-8.7336l.0213-8.7218c0-3.30058-2.0575-5.92033-6.3-6.73552-1.6-.21154-4.5-.21444-6 0-4.2424.81519-6.29997 3.43494-6.29997 6.73552z" fill="url(#C)"/><path d="m6.69852 20.2052c.22987 5.225 4.31018 8.7336 9.29078 8.7336 4.9807 0 9.061-3.5086 9.2909-8.7336l.0213-8.7218c0-3.30058-2.0575-5.92033-6.3-6.73552-1.6-.21154-4.5-.21444-6 0-4.2424.81519-6.29997 3.43494-6.29997 6.73552z" fill="url(#D)"/><g filter="url(#f)"><path d="m15.2439 17.6094-1.2744 2.8883c-.2022.6519.2831 1.3039.9707 1.3039h1.4661c.6876 0 1.1729-.662.9707-1.3039l-.991-2.8883c-.2123-.7021-.9196-.7021-1.1421 0z" fill="#d19590"/></g><g filter="url(#g)"><path d="m15.3394 17.1337-.9909 3.1695c-.2022.652.2831 1.3039.9707 1.3039h1.4661c.6876 0 1.1729-.662.9707-1.3039l-.9909-3.1695c-.2124-.7021-1.2032-.7021-1.4257 0z" fill="#f1c4b2"/><path d="m15.3394 17.1337-.9909 3.1695c-.2022.652.2831 1.3039.9707 1.3039h1.4661c.6876 0 1.1729-.662.9707-1.3039l-.9909-3.1695c-.2124-.7021-1.2032-.7021-1.4257 0z" fill="url(#E)"/><path d="m15.3394 17.1337-.9909 3.1695c-.2022.652.2831 1.3039.9707 1.3039h1.4661c.6876 0 1.1729-.662.9707-1.3039l-.9909-3.1695c-.2124-.7021-1.2032-.7021-1.4257 0z" fill="url(#F)"/><path d="m15.3394 17.1337-.9909 3.1695c-.2022.652.2831 1.3039.9707 1.3039h1.4661c.6876 0 1.1729-.662.9707-1.3039l-.9909-3.1695c-.2124-.7021-1.2032-.7021-1.4257 0z" fill="url(#G)"/><path d="m15.3394 17.1337-.9909 3.1695c-.2022.652.2831 1.3039.9707 1.3039h1.4661c.6876 0 1.1729-.662.9707-1.3039l-.9909-3.1695c-.2124-.7021-1.2032-.7021-1.4257 0z" fill="url(#H)"/></g><path d="m15.3394 17.1337-.9909 3.1695c-.2022.652.2831 1.3039.9707 1.3039h1.4661c.6876 0 1.1729-.662.9707-1.3039l-.9909-3.1695c-.2124-.7021-1.2032-.7021-1.4257 0z" fill="url(#I)"/><path d="m15.3394 17.1337-.9909 3.1695c-.2022.652.2831 1.3039.9707 1.3039h1.4661c.6876 0 1.1729-.662.9707-1.3039l-.9909-3.1695c-.2124-.7021-1.2032-.7021-1.4257 0z" fill="url(#J)"/><path d="m13.4253 22.5487-.0004-.0002c-.1539-.08-.3137-.0305-.4093.0724-.0956.103-.1314.2646-.0342.4085.6496 1.0065 1.7814 1.6778 3.0708 1.6778 1.2896 0 2.4216-.6715 3.0711-1.6782.0964-.148.0618-.3095-.0347-.412-.0961-.1021-.2559-.1482-.409-.0685l-.0004.0002c-.7596.405-1.6544.6368-2.627.6368-.9629 0-1.8674-.2318-2.6269-.6368z" fill="#88014e" stroke="url(#K)" stroke-width=".1"/><g filter="url(#h)"><path d="m18.1816 16.7461c.4948-.8702 1.2471-1.5577 2.8662-1.5577.7089 0 1.3925.1964 2.0002.6875.5012.405.4341.9232.0459 1.1172l-1.0367.5919c-1.2152-.3928-2.5591-.446-3.8756-.8389z" fill="#2d2b2e"/></g><g filter="url(#i)"><path d="m13.9232 16.7461c-.4948-.8702-1.2471-1.5577-2.8662-1.5577-.709 0-1.39255.1964-2.0002.6875-.50119.405-.43407.9232-.04594 1.1172l1.03674.5919c1.2152-.3928 2.5591-.446 3.8756-.8389z" fill="#272528"/></g><path d="m20.51 15.2979c1.2177 0 2.2463.8395 2.5261 1.9739.0832.3252-.1664.6353-.4992.6353h-4.1597c-.2647 0-.4765-.242-.4235-.5067.2344-1.195 1.2857-2.1025 2.5563-2.1025z" fill="#fff"/><path d="m20.1243 15.8046c.9227 0 1.6639.7487 1.6639 1.6639 0 .1512-.0227.3025-.0605.4386h-3.2144c-.0378-.1437-.0605-.2874-.0605-.4386 0-.9152.7488-1.6639 1.6715-1.6639z" fill="url(#M)"/><path d="m19.1713 17.4685c0-.5295.4235-.953.953-.953.5294 0 .9529.4235.9529.953 0 .1588-.0378.31-.1059.4386h-1.6866c-.0756-.1286-.1134-.2798-.1134-.4386z" fill="#000"/><g filter="url(#j)"><path d="m20.0018 16.1563c.1186.1586-.1292.3519-.4109.5625-.2818.2107-.4908.3589-.6093.2004-.1186-.1586.0137-.4579.2955-.6685.2817-.2107.6062-.2529.7247-.0944z" fill="#c7a7a3"/><path d="m20.0018 16.1563c.1186.1586-.1292.3519-.4109.5625-.2818.2107-.4908.3589-.6093.2004-.1186-.1586.0137-.4579.2955-.6685.2817-.2107.6062-.2529.7247-.0944z" fill="url(#O)"/></g><g filter="url(#k)"><path d="m21.6063 17.2494c-.0614-.4302-.3131-.7544-.4313-.8627l-.4845.5318.2186.4254z" fill="url(#Q)"/></g><path d="m11.5945 15.2979c-1.2177 0-2.24629.8395-2.52613 1.9739-.08319.3253.16639.6354.49917.6354h4.15976c.2647 0 .4765-.2421.4235-.5068-.2344-1.195-1.2933-2.1025-2.5563-2.1025z" fill="#fff"/><path d="m11.9802 15.8046c-.9227 0-1.6639.7487-1.6639 1.6639 0 .1512.0227.3025.0605.4386h3.2143c.0379-.1437.0605-.2874.0605-.4386-.0075-.9152-.7487-1.6639-1.6714-1.6639z" fill="url(#R)"/><path d="m12.9331 17.4685c0-.5295-.4235-.953-.9529-.953-.5295 0-.953.4235-.953.953 0 .1588.0378.3101.1059.4386h1.6866c.068-.1285.1134-.2798.1134-.4386z" fill="#000"/><g filter="url(#l)"><path d="m13.5003 17.273c0-.5377-.4373-.8962-.5554-1.0045l-.5377.52.3309.6736z" fill="url(#S)"/></g><g filter="url(#m)"><ellipse cx="11.4782" cy="16.5155" fill="#c7a7a3" fill-opacity=".9" rx=".726381" ry=".367616" transform="matrix(.88365127 -.46814574 .46814574 .88365127 -6.396187 7.295028)"/><ellipse cx="11.4782" cy="16.5155" fill="url(#T)" rx=".726381" ry=".367616" transform="matrix(.88365127 -.46814574 .46814574 .88365127 -6.396187 7.295028)"/></g><g filter="url(#n)"><path d="m17.2959 9.16279 3.251-3.07112c2.9375 1.10938 3.7343 4.06253 3.9116 5.44713l-5.0407 1.3904c-1.0061.2776-2.07-.1808-2.5595-1.1026-.4701-.8853-.291-1.97549.4376-2.66381z" fill="url(#U)"/></g><g filter="url(#o)"><path d="m9.7177 14.4924-.00818.0047c-.00026.0001-.00052.0003-.00077.0004-.23665.1413-.54336.0645-.68523-.1719-.14207-.2368-.065-.5441.17179-.6862l.00107-.0006.00193-.0012.0055-.0032.01755-.0102c.01457-.0083.03483-.0197.06048-.0336.05126-.0277.1242-.0657.21624-.1095.18371-.0876.44556-.1997.76462-.3016.6337-.2022 1.5199-.3724 2.4765-.2036.2719.048.4535.3074.4055.5793-.048.272-.3074.4535-.5793.4055-.7434-.1312-1.4573-.0013-1.9986.1715-.2684.0856-.4878.1797-.63846.2516-.07516.0358-.13269.0658-.17009.0861-.01869.0101-.03231.0178-.04055.0225z" fill="#1e1e1e"/></g><g filter="url(#p)"><path clip-rule="evenodd" d="m23.0093 13.6394c.0001.0001.0003.0002-.257.4289l.257-.4289c.2368.1421.3139.4494.1718.6862-.1419.2365-.4484.3134-.6851.1721-.0001-.0001-.0004-.0003-.0008-.0006l-.0083-.0047c-.0082-.0047-.0219-.0124-.0405-.0225-.0375-.0203-.095-.0503-.1701-.0861-.1507-.0719-.3701-.166-.6385-.2516-.5413-.1728-1.2552-.3027-1.9986-.1715-.2719.048-.5313-.1335-.5793-.4055-.048-.2719.1336-.5313.4055-.5793.9566-.1688 1.8428.0014 2.4765.2036.3191.1019.5809.214.7646.3016.0921.0438.165.0818.2163.1095.0256.0139.0459.0253.0604.0336l.0176.0102.0055.0032.0019.0012z" fill="#1e1e1e" fill-rule="evenodd"/></g><g filter="url(#q)"><path d="m19.6683 13.3836c.6014-.1463 2.0967-.0732 3.0964.642" stroke="#323233" stroke-linecap="round" stroke-width=".4"/></g><g filter="url(#r)"><path d="m12.6005 13.3836c-.6014-.1463-2.0967-.0732-3.09636.642" stroke="#323233" stroke-linecap="round" stroke-width=".4"/></g></svg>