<svg fill="none" height="32" viewBox="0 0 32 32" width="32" xmlns="http://www.w3.org/2000/svg" xmlns:xlink="http://www.w3.org/1999/xlink"><filter id="a" color-interpolation-filters="sRGB" filterUnits="userSpaceOnUse" height="27.8699" width="28.9375" x="2.03125" y="3.10474"><feFlood flood-opacity="0" result="BackgroundImageFix"/><feBlend in="SourceGraphic" in2="BackgroundImageFix" mode="normal" result="shape"/><feColorMatrix in="SourceAlpha" result="hardAlpha" type="matrix" values="0 0 0 0 0 0 0 0 0 0 0 0 0 0 0 0 0 0 127 0"/><feOffset dx="1" dy="1"/><feGaussianBlur stdDeviation="1"/><feComposite in2="hardAlpha" k2="-1" k3="1" operator="arithmetic"/><feColorMatrix type="matrix" values="0 0 0 0 0.219608 0 0 0 0 0.658824 0 0 0 0 0.352941 0 0 0 1 0"/><feBlend in2="shape" mode="normal" result="effect1_innerShadow_3987_23491"/></filter><filter id="b" color-interpolation-filters="sRGB" filterUnits="userSpaceOnUse" height="5.19794" width="8.37775" x="17.7712" y="3.10474"><feFlood flood-opacity="0" result="BackgroundImageFix"/><feBlend in="SourceGraphic" in2="BackgroundImageFix" mode="normal" result="shape"/><feColorMatrix in="SourceAlpha" result="hardAlpha" type="matrix" values="0 0 0 0 0 0 0 0 0 0 0 0 0 0 0 0 0 0 127 0"/><feOffset dx=".25" dy=".5"/><feGaussianBlur stdDeviation=".375"/><feComposite in2="hardAlpha" k2="-1" k3="1" operator="arithmetic"/><feColorMatrix type="matrix" values="0 0 0 0 0.705882 0 0 0 0 0.705882 0 0 0 0 0.709804 0 0 0 1 0"/><feBlend in2="shape" mode="normal" result="effect1_innerShadow_3987_23491"/></filter><filter id="c" color-interpolation-filters="sRGB" filterUnits="userSpaceOnUse" height="3.38811" width="27.9219" x="2.04688" y="26.802"><feFlood flood-opacity="0" result="BackgroundImageFix"/><feBlend in="SourceGraphic" in2="BackgroundImageFix" mode="normal" result="shape"/><feColorMatrix in="SourceAlpha" result="hardAlpha" type="matrix" values="0 0 0 0 0 0 0 0 0 0 0 0 0 0 0 0 0 0 127 0"/><feOffset dy=".2"/><feGaussianBlur stdDeviation=".5"/><feComposite in2="hardAlpha" k2="-1" k3="1" operator="arithmetic"/><feColorMatrix type="matrix" values="0 0 0 0 0.47451 0 0 0 0 0.258824 0 0 0 0 0.25098 0 0 0 1 0"/><feBlend in2="shape" mode="normal" result="effect1_innerShadow_3987_23491"/></filter><filter id="d" color-interpolation-filters="sRGB" filterUnits="userSpaceOnUse" height="9.9375" width="9.9375" x="2.10376" y="20.0078"><feFlood flood-opacity="0" result="BackgroundImageFix"/><feBlend in="SourceGraphic" in2="BackgroundImageFix" mode="normal" result="shape"/><feColorMatrix in="SourceAlpha" result="hardAlpha" type="matrix" values="0 0 0 0 0 0 0 0 0 0 0 0 0 0 0 0 0 0 127 0"/><feOffset/><feGaussianBlur stdDeviation=".25"/><feComposite in2="hardAlpha" k2="-1" k3="1" operator="arithmetic"/><feColorMatrix type="matrix" values="0 0 0 0 0.227451 0 0 0 0 0.156863 0 0 0 0 0.27451 0 0 0 1 0"/><feBlend in2="shape" mode="normal" result="effect1_innerShadow_3987_23491"/></filter><filter id="e" color-interpolation-filters="sRGB" filterUnits="userSpaceOnUse" height="10.4094" width="10.4093" x="1.86783" y="19.7721"><feFlood flood-opacity="0" result="BackgroundImageFix"/><feBlend in="SourceGraphic" in2="BackgroundImageFix" mode="normal" result="shape"/><feGaussianBlur result="effect1_foregroundBlur_3987_23491" stdDeviation=".25"/></filter><filter id="f" color-interpolation-filters="sRGB" filterUnits="userSpaceOnUse" height="10.0375" width="10.0375" x="20.0491" y="19.9078"><feFlood flood-opacity="0" result="BackgroundImageFix"/><feBlend in="SourceGraphic" in2="BackgroundImageFix" mode="normal" result="shape"/><feColorMatrix in="SourceAlpha" result="hardAlpha" type="matrix" values="0 0 0 0 0 0 0 0 0 0 0 0 0 0 0 0 0 0 127 0"/><feOffset dx=".1" dy="-.1"/><feGaussianBlur stdDeviation=".2"/><feComposite in2="hardAlpha" k2="-1" k3="1" operator="arithmetic"/><feColorMatrix type="matrix" values="0 0 0 0 0.152941 0 0 0 0 0.0862745 0 0 0 0 0.164706 0 0 0 1 0"/><feBlend in2="shape" mode="normal" result="effect1_innerShadow_3987_23491"/></filter><filter id="g" color-interpolation-filters="sRGB" filterUnits="userSpaceOnUse" height="4.07656" width="9.1875" x="16.6819" y="22.8633"><feFlood flood-opacity="0" result="BackgroundImageFix"/><feBlend in="SourceGraphic" in2="BackgroundImageFix" mode="normal" result="shape"/><feColorMatrix in="SourceAlpha" result="hardAlpha" type="matrix" values="0 0 0 0 0 0 0 0 0 0 0 0 0 0 0 0 0 0 127 0"/><feOffset dx=".25" dy="-.25"/><feGaussianBlur stdDeviation=".25"/><feComposite in2="hardAlpha" k2="-1" k3="1" operator="arithmetic"/><feColorMatrix type="matrix" values="0 0 0 0 0.701961 0 0 0 0 0.341176 0 0 0 0 0.254902 0 0 0 1 0"/><feBlend in2="shape" mode="normal" result="effect1_innerShadow_3987_23491"/><feColorMatrix in="SourceAlpha" result="hardAlpha" type="matrix" values="0 0 0 0 0 0 0 0 0 0 0 0 0 0 0 0 0 0 127 0"/><feOffset dx=".25" dy=".1"/><feGaussianBlur stdDeviation=".25"/><feComposite in2="hardAlpha" k2="-1" k3="1" operator="arithmetic"/><feColorMatrix type="matrix" values="0 0 0 0 0.894118 0 0 0 0 0.490196 0 0 0 0 0.196078 0 0 0 1 0"/><feBlend in2="effect1_innerShadow_3987_23491" mode="normal" result="effect2_innerShadow_3987_23491"/></filter><filter id="h" color-interpolation-filters="sRGB" filterUnits="userSpaceOnUse" height="2.18125" width="4.03448" x="13.5444" y="23.0758"><feFlood flood-opacity="0" result="BackgroundImageFix"/><feBlend in="SourceGraphic" in2="BackgroundImageFix" mode="normal" result="shape"/><feColorMatrix in="SourceAlpha" result="hardAlpha" type="matrix" values="0 0 0 0 0 0 0 0 0 0 0 0 0 0 0 0 0 0 127 0"/><feOffset dx=".1" dy="-.15"/><feGaussianBlur stdDeviation=".125"/><feComposite in2="hardAlpha" k2="-1" k3="1" operator="arithmetic"/><feColorMatrix type="matrix" values="0 0 0 0 0.27451 0 0 0 0 0.188235 0 0 0 0 0.52549 0 0 0 1 0"/><feBlend in2="shape" mode="normal" result="effect1_innerShadow_3987_23491"/></filter><filter id="i" color-interpolation-filters="sRGB" filterUnits="userSpaceOnUse" height="8.62047" width="3.57217" x="15.2175" y="15.4858"><feFlood flood-opacity="0" result="BackgroundImageFix"/><feBlend in="SourceGraphic" in2="BackgroundImageFix" mode="normal" result="shape"/><feColorMatrix in="SourceAlpha" result="hardAlpha" type="matrix" values="0 0 0 0 0 0 0 0 0 0 0 0 0 0 0 0 0 0 127 0"/><feOffset dx=".1" dy=".2"/><feGaussianBlur stdDeviation=".1"/><feComposite in2="hardAlpha" k2="-1" k3="1" operator="arithmetic"/><feColorMatrix type="matrix" values="0 0 0 0 0.890196 0 0 0 0 0.654902 0 0 0 0 0.54902 0 0 0 1 0"/><feBlend in2="shape" mode="normal" result="effect1_innerShadow_3987_23491"/></filter><filter id="j" color-interpolation-filters="sRGB" filterUnits="userSpaceOnUse" height="7.67023" width="6.66827" x="16.5959" y="10.3516"><feFlood flood-opacity="0" result="BackgroundImageFix"/><feBlend in="SourceGraphic" in2="BackgroundImageFix" mode="normal" result="shape"/><feColorMatrix in="SourceAlpha" result="hardAlpha" type="matrix" values="0 0 0 0 0 0 0 0 0 0 0 0 0 0 0 0 0 0 127 0"/><feOffset dx=".25" dy="-.25"/><feGaussianBlur stdDeviation=".625"/><feComposite in2="hardAlpha" k2="-1" k3="1" operator="arithmetic"/><feColorMatrix type="matrix" values="0 0 0 0 0.482353 0 0 0 0 0.360784 0 0 0 0 0.556863 0 0 0 1 0"/><feBlend in2="shape" mode="normal" result="effect1_innerShadow_3987_23491"/></filter><filter id="k" color-interpolation-filters="sRGB" filterUnits="userSpaceOnUse" height="5.86945" width="7.97131" x="15.0544" y="7.25562"><feFlood flood-opacity="0" result="BackgroundImageFix"/><feBlend in="SourceGraphic" in2="BackgroundImageFix" mode="normal" result="shape"/><feColorMatrix in="SourceAlpha" result="hardAlpha" type="matrix" values="0 0 0 0 0 0 0 0 0 0 0 0 0 0 0 0 0 0 127 0"/><feOffset dx="1"/><feGaussianBlur stdDeviation=".75"/><feComposite in2="hardAlpha" k2="-1" k3="1" operator="arithmetic"/><feColorMatrix type="matrix" values="0 0 0 0 0.301961 0 0 0 0 0.243137 0 0 0 0 0.466667 0 0 0 1 0"/><feBlend in2="shape" mode="normal" result="effect1_innerShadow_3987_23491"/></filter><filter id="l" color-interpolation-filters="sRGB" filterUnits="userSpaceOnUse" height="4.2594" width="6.00464" x="6.95068" y="11.0344"><feFlood flood-opacity="0" result="BackgroundImageFix"/><feBlend in="SourceGraphic" in2="BackgroundImageFix" mode="normal" result="shape"/><feColorMatrix in="SourceAlpha" result="hardAlpha" type="matrix" values="0 0 0 0 0 0 0 0 0 0 0 0 0 0 0 0 0 0 127 0"/><feOffset dx="-.25"/><feGaussianBlur stdDeviation=".5"/><feComposite in2="hardAlpha" k2="-1" k3="1" operator="arithmetic"/><feColorMatrix type="matrix" values="0 0 0 0 0.576471 0 0 0 0 0.505882 0 0 0 0 0.529412 0 0 0 1 0"/><feBlend in2="shape" mode="normal" result="effect1_innerShadow_3987_23491"/></filter><filter id="m" color-interpolation-filters="sRGB" filterUnits="userSpaceOnUse" height="2.91486" width="3.13672" x="6.95142" y="12.6289"><feFlood flood-opacity="0" result="BackgroundImageFix"/><feBlend in="SourceGraphic" in2="BackgroundImageFix" mode="normal" result="shape"/><feColorMatrix in="SourceAlpha" result="hardAlpha" type="matrix" values="0 0 0 0 0 0 0 0 0 0 0 0 0 0 0 0 0 0 127 0"/><feOffset dx="-.25" dy=".25"/><feGaussianBlur stdDeviation=".25"/><feComposite in2="hardAlpha" k2="-1" k3="1" operator="arithmetic"/><feColorMatrix type="matrix" values="0 0 0 0 0.164706 0 0 0 0 0.117647 0 0 0 0 0.231373 0 0 0 1 0"/><feBlend in2="shape" mode="normal" result="effect1_innerShadow_3987_23491"/></filter><filter id="n" color-interpolation-filters="sRGB" filterUnits="userSpaceOnUse" height="6.93665" width="10.2718" x="7.82767" y="7.59058"><feFlood flood-opacity="0" result="BackgroundImageFix"/><feBlend in="SourceGraphic" in2="BackgroundImageFix" mode="normal" result="shape"/><feColorMatrix in="SourceAlpha" result="hardAlpha" type="matrix" values="0 0 0 0 0 0 0 0 0 0 0 0 0 0 0 0 0 0 127 0"/><feOffset dx=".5" dy="-.5"/><feGaussianBlur stdDeviation=".375"/><feComposite in2="hardAlpha" k2="-1" k3="1" operator="arithmetic"/><feColorMatrix type="matrix" values="0 0 0 0 0.745098 0 0 0 0 0.478431 0 0 0 0 0.521569 0 0 0 1 0"/><feBlend in2="shape" mode="normal" result="effect1_innerShadow_3987_23491"/></filter><filter id="o" color-interpolation-filters="sRGB" filterUnits="userSpaceOnUse" height="6.37188" width="5.49572" x="17.742" y="10.7755"><feFlood flood-opacity="0" result="BackgroundImageFix"/><feBlend in="SourceGraphic" in2="BackgroundImageFix" mode="normal" result="shape"/><feGaussianBlur result="effect1_foregroundBlur_3987_23491" stdDeviation=".3"/></filter><filter id="p" color-interpolation-filters="sRGB" filterUnits="userSpaceOnUse" height="2.96935" width="2.96935" x="7.75571" y="11.9393"><feFlood flood-opacity="0" result="BackgroundImageFix"/><feBlend in="SourceGraphic" in2="BackgroundImageFix" mode="normal" result="shape"/><feGaussianBlur result="effect1_foregroundBlur_3987_23491" stdDeviation=".3"/></filter><filter id="q" color-interpolation-filters="sRGB" filterUnits="userSpaceOnUse" height="5.06772" width="5.5502" x="10.3537" y="4.6228"><feFlood flood-opacity="0" result="BackgroundImageFix"/><feBlend in="SourceGraphic" in2="BackgroundImageFix" mode="normal" result="shape"/><feColorMatrix in="SourceAlpha" result="hardAlpha" type="matrix" values="0 0 0 0 0 0 0 0 0 0 0 0 0 0 0 0 0 0 127 0"/><feOffset dx=".25" dy=".15"/><feGaussianBlur stdDeviation=".15"/><feComposite in2="hardAlpha" k2="-1" k3="1" operator="arithmetic"/><feColorMatrix type="matrix" values="0 0 0 0 0.909804 0 0 0 0 0.670588 0 0 0 0 0.541176 0 0 0 1 0"/><feBlend in2="shape" mode="normal" result="effect1_innerShadow_3987_23491"/></filter><filter id="r" color-interpolation-filters="sRGB" filterUnits="userSpaceOnUse" height="3.77947" width="4.51322" x="12.8601" y="3.93318"><feFlood flood-opacity="0" result="BackgroundImageFix"/><feBlend in="SourceGraphic" in2="BackgroundImageFix" mode="normal" result="shape"/><feColorMatrix in="SourceAlpha" result="hardAlpha" type="matrix" values="0 0 0 0 0 0 0 0 0 0 0 0 0 0 0 0 0 0 127 0"/><feOffset dx=".15" dy="-.2"/><feGaussianBlur stdDeviation=".3"/><feComposite in2="hardAlpha" k2="-1" k3="1" operator="arithmetic"/><feColorMatrix type="matrix" values="0 0 0 0 0.768627 0 0 0 0 0.607843 0 0 0 0 0.466667 0 0 0 1 0"/><feBlend in2="shape" mode="normal" result="effect1_innerShadow_3987_23491"/></filter><filter id="s" color-interpolation-filters="sRGB" filterUnits="userSpaceOnUse" height="5.08512" width="5.92068" x="9.29239" y="1.82833"><feFlood flood-opacity="0" result="BackgroundImageFix"/><feBlend in="SourceGraphic" in2="BackgroundImageFix" mode="normal" result="shape"/><feColorMatrix in="SourceAlpha" result="hardAlpha" type="matrix" values="0 0 0 0 0 0 0 0 0 0 0 0 0 0 0 0 0 0 127 0"/><feOffset dy="-.15"/><feGaussianBlur stdDeviation=".3"/><feComposite in2="hardAlpha" k2="-1" k3="1" operator="arithmetic"/><feColorMatrix type="matrix" values="0 0 0 0 0.305882 0 0 0 0 0.556863 0 0 0 0 0.882353 0 0 0 1 0"/><feBlend in2="shape" mode="normal" result="effect1_innerShadow_3987_23491"/></filter><filter id="t" color-interpolation-filters="sRGB" filterUnits="userSpaceOnUse" height="1.38586" width="1.99753" x="11.2549" y="3.98315"><feFlood flood-opacity="0" result="BackgroundImageFix"/><feBlend in="SourceGraphic" in2="BackgroundImageFix" mode="normal" result="shape"/><feColorMatrix in="SourceAlpha" result="hardAlpha" type="matrix" values="0 0 0 0 0 0 0 0 0 0 0 0 0 0 0 0 0 0 127 0"/><feOffset/><feGaussianBlur stdDeviation=".25"/><feComposite in2="hardAlpha" k2="-1" k3="1" operator="arithmetic"/><feColorMatrix type="matrix" values="0 0 0 0 0.137255 0 0 0 0 0.482353 0 0 0 0 0.796078 0 0 0 1 0"/><feBlend in2="shape" mode="normal" result="effect1_innerShadow_3987_23491"/></filter><linearGradient id="u" gradientUnits="userSpaceOnUse" x1="9.65043" x2="27.955" y1="21.0486" y2="8.85899"><stop offset="0" stop-color="#37c173"/><stop offset="1" stop-color="#36c571"/></linearGradient><linearGradient id="v" gradientUnits="userSpaceOnUse" x1="29.3631" x2="25.9033" y1="12.0371" y2="14.4509"><stop offset=".163861" stop-color="#4cdd80"/><stop offset="1" stop-color="#36c871" stop-opacity="0"/></linearGradient><linearGradient id="w" gradientUnits="userSpaceOnUse" x1="21.1562" x2="24.8976" y1="7.04864" y2="4.95669"><stop offset="0" stop-color="#d7cfdf"/><stop offset="1" stop-color="#e2dce7"/></linearGradient><radialGradient id="x" cx="0" cy="0" gradientTransform="matrix(-3.22339976 1.83628404 -4.14127775 -7.2695691 25.0585 5.45372)" gradientUnits="userSpaceOnUse" r="1"><stop offset=".190301" stop-color="#ebeaed"/><stop offset="1" stop-color="#d9d1df" stop-opacity="0"/></radialGradient><radialGradient id="y" cx="0" cy="0" gradientTransform="matrix(4.42528675 4.18324972 -2.33904521 2.47437912 19.7481 26.802)" gradientUnits="userSpaceOnUse" r="1"><stop offset="0" stop-color="#8a4c56"/><stop offset="1" stop-color="#8a4c56" stop-opacity="0"/></radialGradient><radialGradient id="z" cx="0" cy="0" gradientTransform="matrix(-5.87497859 7.81251861 -7.54119471 -5.67094425 10.3147 21.0625)" gradientUnits="userSpaceOnUse" r="1"><stop offset="0" stop-color="#32295b"/><stop offset="1" stop-color="#3c2150"/></radialGradient><linearGradient id="A" gradientUnits="userSpaceOnUse" x1="9.28345" x2="3.2522" y1="21.3127" y2="28.344"><stop offset="0" stop-color="#302a5b"/><stop offset="1" stop-color="#302a5b" stop-opacity="0"/></linearGradient><linearGradient id="B" gradientUnits="userSpaceOnUse" x1="17.7522" x2="18.7209" y1="20.5156" y2="19.5098"><stop offset=".573276" stop-color="#bb7774"/><stop offset="1" stop-color="#c6957f"/></linearGradient><linearGradient id="C" gradientUnits="userSpaceOnUse" x1="22.2678" x2="17.6741" y1="22.0841" y2="21.6252"><stop offset=".890666" stop-color="#615f76" stop-opacity="0"/><stop offset="1" stop-color="#615f76"/></linearGradient><radialGradient id="D" cx="0" cy="0" gradientTransform="matrix(-1.53126999 2.45311583 -.44454279 -.27748997 20.3459 20.9533)" gradientUnits="userSpaceOnUse" r="1"><stop offset="0" stop-color="#5d5c7e"/><stop offset="1" stop-color="#5d5c7e" stop-opacity="0"/></radialGradient><linearGradient id="E" gradientUnits="userSpaceOnUse" x1="11.5491" x2="10.6741" y1="14.9064" y2="14.6251"><stop offset="0" stop-color="#bfa8c7"/><stop offset="1" stop-color="#908590"/></linearGradient><radialGradient id="F" cx="0" cy="0" gradientTransform="matrix(1.07812374 -2.67187294 .30151132 .12166241 10.6272 16.5939)" gradientUnits="userSpaceOnUse" r="1"><stop offset="0" stop-color="#baa3b9"/><stop offset="1" stop-color="#baa3b9" stop-opacity="0"/></radialGradient><linearGradient id="G" gradientUnits="userSpaceOnUse" x1="9.78345" x2="8.5022" y1="19.8595" y2="19.3751"><stop offset=".146259" stop-color="#d4385b"/><stop offset="1" stop-color="#973c50"/></linearGradient><radialGradient id="H" cx="0" cy="0" gradientTransform="matrix(6.71875315 4.82812728 -1.31598798 1.83131012 10.2209 18.5158)" gradientUnits="userSpaceOnUse" r="1"><stop offset="0" stop-color="#ce3d5e"/><stop offset="1" stop-color="#932145"/></radialGradient><linearGradient id="I" gradientUnits="userSpaceOnUse" x1="13.0022" x2="13.3928" y1="21.9065" y2="21.4065"><stop offset="0" stop-color="#96275e"/><stop offset="1" stop-color="#96275e" stop-opacity="0"/><stop offset="1" stop-color="#9c2649" stop-opacity="0"/></linearGradient><radialGradient id="J" cx="0" cy="0" gradientTransform="matrix(-6.86715328 7.00003073 -6.75692924 -6.62866645 29.2522 21.875)" gradientUnits="userSpaceOnUse" r="1"><stop offset=".427322" stop-color="#373c67"/><stop offset="1" stop-color="#38144f"/></radialGradient><linearGradient id="K" gradientUnits="userSpaceOnUse" x1="20.0491" x2="27.8039" y1="27.4174" y2="24.9766"><stop offset="0" stop-color="#352542"/><stop offset="1" stop-color="#352542" stop-opacity="0"/></linearGradient><linearGradient id="L" gradientUnits="userSpaceOnUse" x1="23.8303" x2="22.7678" y1="21.8438" y2="22.5938"><stop offset="0" stop-color="#fd5a60"/><stop offset="1" stop-color="#af253c"/></linearGradient><linearGradient id="M" gradientUnits="userSpaceOnUse" x1="19.6272" x2="18.6116" y1="20.6173" y2="20.4688"><stop offset="0" stop-color="#e5435f"/><stop offset="1" stop-color="#a62f2f"/></linearGradient><radialGradient id="N" cx="0" cy="0" gradientTransform="matrix(-1.0937525 4.48437198 -.42827913 -.10445863 20.1584 17.4219)" gradientUnits="userSpaceOnUse" r="1"><stop offset="0" stop-color="#e44354"/><stop offset="1" stop-color="#e44354" stop-opacity="0"/></radialGradient><radialGradient id="O" cx="0" cy="0" gradientTransform="matrix(-.03125031 -1.06250053 1.65481439 -.04867146 18.5022 23.7501)" gradientUnits="userSpaceOnUse" r="1"><stop offset="0" stop-color="#ac2735"/><stop offset="1" stop-color="#ac2735" stop-opacity="0"/></radialGradient><radialGradient id="P" cx="0" cy="0" gradientTransform="matrix(-.28124699 3.99267664 -5.05378734 -.35599238 15.4155 15.187)" gradientUnits="userSpaceOnUse" r="1"><stop offset=".32125" stop-color="#b57d68"/><stop offset=".868437" stop-color="#bf7a7b"/></radialGradient><radialGradient id="Q" cx="0" cy="0" gradientTransform="matrix(1.21875062 .45312581 -.35000106 .94138095 15.7834 17.1563)" gradientUnits="userSpaceOnUse" r="1"><stop offset=".345681" stop-color="#ad6e5f"/><stop offset="1" stop-color="#b57b69" stop-opacity="0"/></radialGradient><radialGradient id="R" cx="0" cy="0" gradientTransform="matrix(-2.62500036 -.59373614 .79114225 -3.49776366 15.7437 17.2183)" gradientUnits="userSpaceOnUse" r="1"><stop offset=".73763" stop-color="#dca28a" stop-opacity="0"/><stop offset="1" stop-color="#dca28a"/></radialGradient><radialGradient id="S" cx="0" cy="0" gradientTransform="matrix(-2.31251357 1.68748882 -.72630839 -.99532394 18.5022 13.8437)" gradientUnits="userSpaceOnUse" r="1"><stop offset=".254766" stop-color="#4f414e"/><stop offset="1" stop-color="#564a5a"/></radialGradient><linearGradient id="T" gradientUnits="userSpaceOnUse" x1="16.635" x2="17.0022" y1="13.7422" y2="14.2734"><stop offset="0" stop-color="#72696b"/><stop offset="1" stop-color="#72696b" stop-opacity="0"/></linearGradient><linearGradient id="U" gradientUnits="userSpaceOnUse" x1="25.3459" x2="16.6819" y1="24.9766" y2="24.9766"><stop offset="0" stop-color="#f7b14e"/><stop offset="1" stop-color="#e8774d"/></linearGradient><radialGradient id="V" cx="0" cy="0" gradientTransform="matrix(-.867187 0 0 -.96875 25.6194 24.8125)" gradientUnits="userSpaceOnUse" r="1"><stop offset="0" stop-color="#ffd359"/><stop offset="1" stop-color="#ffd359" stop-opacity="0"/></radialGradient><radialGradient id="W" cx="0" cy="0" gradientTransform="matrix(1.56250158 -.65625048 .66796813 1.59040076 17.7209 25.1719)" gradientUnits="userSpaceOnUse" r="1"><stop offset=".470418" stop-color="#d8cfe2"/><stop offset="1" stop-color="#c5bfcb"/></radialGradient><radialGradient id="X" cx="0" cy="0" gradientTransform="matrix(-1.56250016 .85938242 -.85938242 -1.56250016 18.9241 24.7031)" gradientUnits="userSpaceOnUse" r="1"><stop offset=".632246" stop-color="#e2dfe5" stop-opacity="0"/><stop offset="1" stop-color="#e2dfe5"/></radialGradient><linearGradient id="Y" gradientUnits="userSpaceOnUse" x1="17.479" x2="16.7209" y1="24.8438" y2="24.8438"><stop offset="0" stop-color="#605c92"/><stop offset="1" stop-color="#605c92" stop-opacity="0"/></linearGradient><radialGradient id="Z" cx="0" cy="0" gradientTransform="matrix(-1.10939185 -1.99999616 6.41983308 -3.56106207 16.2991 25.5156)" gradientUnits="userSpaceOnUse" r="1"><stop offset=".300652" stop-color="#5c4f86" stop-opacity="0"/><stop offset=".942972" stop-color="#493b63"/></radialGradient><linearGradient id="aa" gradientUnits="userSpaceOnUse" x1="15.565" x2="13.5201" y1="9.37521" y2="9.45802"><stop offset="0" stop-color="#e1ae8c"/><stop offset="1" stop-color="#b66c66"/></linearGradient><radialGradient id="ab" cx="0" cy="0" gradientTransform="matrix(.03131881 1.42110493 -.52543542 .01157973 14.9788 8.89696)" gradientUnits="userSpaceOnUse" r="1"><stop offset=".180159" stop-color="#e0a588"/><stop offset="1" stop-color="#e0a588" stop-opacity="0"/></radialGradient><radialGradient id="ac" cx="0" cy="0" gradientTransform="matrix(-.74999348 -8.78125028 2.5288134 -.21598218 17.9397 23.9063)" gradientUnits="userSpaceOnUse" r="1"><stop offset=".122469" stop-color="#e2ae96"/><stop offset="1" stop-color="#d29a7d"/></radialGradient><radialGradient id="ad" cx="0" cy="0" gradientTransform="matrix(-1.68750309 .06249727 -.11168168 -3.01554262 18.8459 17.6251)" gradientUnits="userSpaceOnUse" r="1"><stop offset=".284247" stop-color="#b7707a"/><stop offset="1" stop-color="#b7707a" stop-opacity="0"/></radialGradient><radialGradient id="ae" cx="0" cy="0" gradientTransform="matrix(5.12499803 -4.92969106 2.61319214 2.71672289 16.8147 15.5312)" gradientUnits="userSpaceOnUse" r="1"><stop offset=".148384" stop-color="#726b71"/><stop offset="1" stop-color="#a3a1a2"/></radialGradient><radialGradient id="af" cx="0" cy="0" gradientTransform="matrix(2.59374628 -.09374984 .01804196 .49916105 18.2366 13.8125)" gradientUnits="userSpaceOnUse" r="1"><stop offset=".219629" stop-color="#736e75"/><stop offset="1" stop-color="#736e75" stop-opacity="0"/></radialGradient><radialGradient id="ag" cx="0" cy="0" gradientTransform="matrix(-3.49999043 -4.06251234 1.7090785 -1.47242836 21.1272 11.5)" gradientUnits="userSpaceOnUse" r="1"><stop offset="0" stop-color="#977ed0"/><stop offset="1" stop-color="#674e9f"/></radialGradient><radialGradient id="ah" cx="0" cy="0" gradientTransform="matrix(3.25232 0 0 1.29925 10.078 12.9375)" gradientUnits="userSpaceOnUse" r="1"><stop offset=".25377" stop-color="#8c5ea8"/><stop offset="1" stop-color="#8c5ea8" stop-opacity="0"/></radialGradient><radialGradient id="ai" cx="0" cy="0" gradientTransform="matrix(-1.03442913 .40624249 -.45267741 -1.15266796 17.5991 8.75006)" gradientUnits="userSpaceOnUse" r="1"><stop offset="0" stop-color="#ebbca0"/><stop offset="1" stop-color="#ebbca0" stop-opacity="0"/></radialGradient><linearGradient id="aj"><stop offset=".686216" stop-color="#c38a80"/><stop offset="1" stop-color="#bc7c7f"/></linearGradient><radialGradient id="ak" cx="0" cy="0" gradientTransform="matrix(1.70877337 .92891613 -1.02416999 1.88399613 7.02853 12.7674)" gradientUnits="userSpaceOnUse" r="1" xlink:href="#aj"/><linearGradient id="al"><stop offset=".679691" stop-color="#d29a8c" stop-opacity="0"/><stop offset="1" stop-color="#d29a8c"/></linearGradient><radialGradient id="am" cx="0" cy="0" gradientTransform="matrix(-1.31056149 -.2410769 .37304097 -2.02795512 8.44125 13.8781)" gradientUnits="userSpaceOnUse" r="1" xlink:href="#al"/><radialGradient id="an" cx="0" cy="0" gradientTransform="matrix(5.49999736 -1.43750185 2.00474707 7.67032308 17.3772 14.6876)" gradientUnits="userSpaceOnUse" r="1"><stop offset=".624989" stop-color="#afa6a9" stop-opacity="0"/><stop offset=".90475" stop-color="#afa6a9"/></radialGradient><radialGradient id="ao" cx="0" cy="0" gradientTransform="matrix(1.04758317 .75841571 -1.02541815 1.41638786 7.40432 13.4502)" gradientUnits="userSpaceOnUse" r="1" xlink:href="#aj"/><radialGradient id="ap" cx="0" cy="0" gradientTransform="matrix(-.81595845 -.17382436 .37209174 -1.74665622 8.26131 14.3737)" gradientUnits="userSpaceOnUse" r="1" xlink:href="#al"/><radialGradient id="aq" cx="0" cy="0" gradientTransform="matrix(1.01588602 .59883734 -.8244887 1.39868789 7.73732 13.7584)" gradientUnits="userSpaceOnUse" r="1" xlink:href="#aj"/><radialGradient id="ar" cx="0" cy="0" gradientTransform="matrix(-.74999978 -.07812679 .17331623 -1.66379726 8.59839 14.5305)" gradientUnits="userSpaceOnUse" r="1" xlink:href="#al"/><radialGradient id="as" cx="0" cy="0" gradientTransform="matrix(.67079132 .44668593 -.3505201 .52637845 10.8512 7.72448)" gradientUnits="userSpaceOnUse" r="1"><stop offset=".390709" stop-color="#cc9778"/><stop offset="1" stop-color="#d4997b"/></radialGradient><radialGradient id="at" cx="0" cy="0" gradientTransform="matrix(3.0931746 -1.20011118 1.2447071 3.20811644 11.6013 7.83444)" gradientUnits="userSpaceOnUse" r="1"><stop offset=".164144" stop-color="#d19f82"/><stop offset="1" stop-color="#cf9388"/></radialGradient><radialGradient id="au" cx="0" cy="0" gradientTransform="matrix(1.12485078 1.54580037 -1.24734588 .90767089 13.0678 5.03936)" gradientUnits="userSpaceOnUse" r="1"><stop offset="0" stop-color="#a46f70"/><stop offset="1" stop-color="#a46f70" stop-opacity="0"/></radialGradient><radialGradient id="av" cx="0" cy="0" gradientTransform="matrix(.19521009 2.51494527 -3.16965596 .24602875 12.885 6.91668)" gradientUnits="userSpaceOnUse" r="1"><stop offset=".571359" stop-color="#ca9081" stop-opacity="0"/><stop offset="1" stop-color="#bd7678"/></radialGradient><radialGradient id="aw" cx="0" cy="0" gradientTransform="matrix(-1.62630342 1.69275631 -1.88435781 -1.81038318 14.9025 5.75111)" gradientUnits="userSpaceOnUse" r="1"><stop offset=".368209" stop-color="#d59e88"/><stop offset="1" stop-color="#d59e88" stop-opacity="0"/></radialGradient><linearGradient id="ax" gradientUnits="userSpaceOnUse" x1="11.1819" x2="11.4196" y1="7.20957" y2="7.06304"><stop offset=".242014" stop-color="#5f5451"/><stop offset=".667004" stop-color="#383838"/></linearGradient><radialGradient id="ay" cx="0" cy="0" gradientTransform="matrix(-.84940651 2.4982592 -3.6027077 -1.22491829 15.7135 4.42155)" gradientUnits="userSpaceOnUse" r="1"><stop offset=".0943174" stop-color="#fee0b4"/><stop offset="1" stop-color="#e7bca0"/></radialGradient><radialGradient id="az" cx="0" cy="0" gradientTransform="matrix(-.63999921 -.57852719 .57852719 -.63999921 13.9581 6.08955)" gradientUnits="userSpaceOnUse" r="1"><stop offset="0" stop-color="#e8bda2"/><stop offset="1" stop-color="#c48b7a"/></radialGradient><linearGradient id="aA" gradientUnits="userSpaceOnUse" x1="13.8164" x2="13.3993" y1="6.55347" y2="6.77521"><stop offset="0" stop-color="#37234c"/><stop offset="1" stop-color="#37234c" stop-opacity="0"/></linearGradient><linearGradient id="aB" gradientUnits="userSpaceOnUse" x1="13.6935" x2="14.2159" y1="8.37282" y2="8.0482"><stop offset=".324467" stop-color="#72687c"/><stop offset="1" stop-color="#72687c" stop-opacity="0"/></linearGradient><radialGradient id="aC" cx="0" cy="0" gradientTransform="matrix(.18770042 -.09019858 .52870086 1.1002099 13.4435 6.37196)" gradientUnits="userSpaceOnUse" r="1"><stop offset="0" stop-color="#564975"/><stop offset="1" stop-color="#4d3a6e" stop-opacity="0"/></radialGradient><radialGradient id="aD" cx="0" cy="0" gradientTransform="matrix(1.02974799 2.14752783 -2.52412179 1.21032627 11.8847 3.22494)" gradientUnits="userSpaceOnUse" r="1"><stop offset=".0445853" stop-color="#4fbdff"/><stop offset=".918703" stop-color="#52abe4"/></radialGradient><radialGradient id="aE" cx="0" cy="0" gradientTransform="matrix(-.30298873 -.61329363 1.5727296 -.77698402 12.4098 4.97887)" gradientUnits="userSpaceOnUse" r="1"><stop offset=".217657" stop-color="#4b89d0"/><stop offset="1" stop-color="#337bcd"/></radialGradient><g filter="url(#a)"><path d="m3.89844 16.7559-1.86719 1.9375v11.2812h27.93755v-16.5312l-6.1402-9.30539c-.9097-1.37873-2.933-1.37746-3.841.00241l-8.9158 13.54888c-.1578.2398-.4846.2978-.7153.1269l-2.04791-1.5173c-1.31971-.9797-3.19921-.8008-4.41015.457z" fill="url(#u)"/><path d="m3.89844 16.7559-1.86719 1.9375v11.2812h27.93755v-16.5312l-6.1402-9.30539c-.9097-1.37873-2.933-1.37746-3.841.00241l-8.9158 13.54888c-.1578.2398-.4846.2978-.7153.1269l-2.04791-1.5173c-1.31971-.9797-3.19921-.8008-4.41015.457z" fill="url(#v)"/></g><g filter="url(#b)"><path d="m17.7712 7.50841 2.2471-1.31478c.1695-.09918.386-.06064.5108.09096l1.0702 1.29953c.24.29143.6863.29143.9263 0l1.0676-1.29636c.126-.15299.345-.19065.5149-.08855l1.7909 1.07651-2.0704-3.13771c-.9098-1.37873-2.9331-1.37746-3.8411.00241z" fill="url(#w)"/></g><path d="m17.7712 7.50841 2.2471-1.31478c.1695-.09918.386-.06064.5108.09096l1.0702 1.29953c.24.29143.6863.29143.9263 0l1.0676-1.29636c.126-.15299.345-.19065.5149-.08855l1.7909 1.07651-2.0704-3.13771c-.9098-1.37873-2.9331-1.37746-3.8411.00241z" fill="url(#x)"/><g filter="url(#c)"><path d="m5.6633 27.1601-3.61642 2.1581v.6719h27.92192v-.6719l-3.5317-2.1504c-.7426-.4522-1.6717-.4674-2.4287-.0397l-.8178.462c-.5654.3195-1.2507.3445-1.8379.0672l-1.3182-.6226c-.6236-.2945-1.3479-.2868-1.9651.021l-1.1764.5867c-.5754.287-1.2537.2798-1.823-.0193l-1.1258-.5916c-.5553-.2917-1.2153-.3061-1.7827-.0387l-1.4205.6692c-.5829.2746-1.26233.2516-1.82528-.0618l-.85514-.4761c-.74828-.4165-1.66185-.4028-2.39728.036z" fill="#97595f"/><path d="m5.6633 27.1601-3.61642 2.1581v.6719h27.92192v-.6719l-3.5317-2.1504c-.7426-.4522-1.6717-.4674-2.4287-.0397l-.8178.462c-.5654.3195-1.2507.3445-1.8379.0672l-1.3182-.6226c-.6236-.2945-1.3479-.2868-1.9651.021l-1.1764.5867c-.5754.287-1.2537.2798-1.823-.0193l-1.1258-.5916c-.5553-.2917-1.2153-.3061-1.7827-.0387l-1.4205.6692c-.5829.2746-1.26233.2516-1.82528-.0618l-.85514-.4761c-.74828-.4165-1.66185-.4028-2.39728.036z" fill="url(#y)"/></g><g filter="url(#d)"><path clip-rule="evenodd" d="m7.07251 21.0078c-2.19188 0-3.96875 1.7769-3.96875 3.9688 0 2.1918 1.77687 3.9687 3.96875 3.9687s3.96879-1.7769 3.96879-3.9687c0-2.1919-1.77691-3.9688-3.96879-3.9688zm-4.96875 3.9688c0-2.7442 2.22458-4.9688 4.96875-4.9688 2.74416 0 4.96879 2.2246 4.96879 4.9688 0 2.7441-2.22463 4.9687-4.96879 4.9687-2.74417 0-4.96875-2.2246-4.96875-4.9687z" fill="url(#z)" fill-rule="evenodd"/></g><g filter="url(#e)"><circle cx="7.0725" cy="24.9768" r="4.55468" stroke="url(#A)" stroke-width=".3"/></g><path d="m19.2036 20.1328-1.8264-1.9883-.4236 2.0586 1.001.7056z" fill="url(#B)"/><path d="m17.8981 20.8661-.3005 1.9808c-.0662.4758-.0394.8871.3648 1.1668.1015.0703.2373.031.3065-.0712l1.9637-2.9017c.0619-.0914.0379-.2158-.0536-.2777l-.9519-.6442z" fill="#413354"/><path d="m17.8981 20.8661-.3005 1.9808c-.0662.4758-.0394.8871.3648 1.1668.1015.0703.2373.031.3065-.0712l1.9637-2.9017c.0619-.0914.0379-.2158-.0536-.2777l-.9519-.6442z" fill="url(#C)"/><path d="m17.8981 20.8661-.3005 1.9808c-.0662.4758-.0394.8871.3648 1.1668.1015.0703.2373.031.3065-.0712l1.9637-2.9017c.0619-.0914.0379-.2158-.0536-.2777l-.9519-.6442z" fill="url(#D)"/><g clip-rule="evenodd" fill-rule="evenodd"><path d="m12.5048 11.6004c.2553.1053.3769.3976.2716.6528l-2.5398 6.2469c-.1053.2553-.39759.3769-.65288.2717-.25529-.1053-.3769-.3976-.27163-.6529l2.53981-6.2469c.1053-.2553.3976-.3769.6529-.2716z" fill="url(#E)"/><path d="m12.5048 11.6004c.2553.1053.3769.3976.2716.6528l-2.5398 6.2469c-.1053.2553-.39759.3769-.65288.2717-.25529-.1053-.3769-.3976-.27163-.6529l2.53981-6.2469c.1053-.2553.3976-.3769.6529-.2716z" fill="url(#F)"/><path d="m10.5708 16.3352c.2809.1155.4151.4368.2996.7178l-3.28911 8c-.1155.2809-.43688.415-.71782.2995s-.41505-.4369-.29955-.7178l3.28906-8c.11551-.2809.43692-.415.71782-.2995z" fill="url(#G)"/><path d="m9.64674 18.5627c.10169-.2219.43086-.4654.67266-.2816l6.25 4.75c.2418.1838.2889.5288.1051.7706-.1838.2419-.5289.2889-.7707.1051l-6.08112-4.6097c-.24184-.1838-.30484-.4531-.17594-.7344z" fill="url(#H)"/><path d="m9.64674 18.5627c.10169-.2219.43086-.4654.67266-.2816l6.25 4.75c.2418.1838.2889.5288.1051.7706-.1838.2419-.5289.2889-.7707.1051l-6.08112-4.6097c-.24184-.1838-.30484-.4531-.17594-.7344z" fill="url(#I)"/><g filter="url(#f)"><path d="m25.0178 21.0078c-2.1919 0-3.9687 1.7769-3.9687 3.9688 0 2.1918 1.7768 3.9687 3.9687 3.9687s3.9688-1.7769 3.9688-3.9687c0-2.1919-1.7769-3.9688-3.9688-3.9688zm-4.9687 3.9688c0-2.7442 2.2246-4.9688 4.9687-4.9688 2.7442 0 4.9688 2.2246 4.9688 4.9688 0 2.7441-2.2246 4.9687-4.9688 4.9687-2.7441 0-4.9687-2.2246-4.9687-4.9687z" fill="url(#J)"/><path d="m25.0178 21.0078c-2.1919 0-3.9687 1.7769-3.9687 3.9688 0 2.1918 1.7768 3.9687 3.9687 3.9687s3.9688-1.7769 3.9688-3.9687c0-2.1919-1.7769-3.9688-3.9688-3.9688zm-4.9687 3.9688c0-2.7442 2.2246-4.9688 4.9687-4.9688 2.7442 0 4.9688 2.2246 4.9688 4.9688 0 2.7441-2.2246 4.9687-4.9688 4.9687-2.7441 0-4.9687-2.2246-4.9687-4.9687z" fill="url(#K)"/></g><path d="m19.7555 16.6208c-.2569.1622-.3337.5018-.1716.7587l4.7188 7.4766c.1621.2568.5018.3337.7586.1715.2569-.1621.3337-.5018.1716-.7586l-4.7187-7.4766c-.1622-.2569-.5018-.3337-.7587-.1716z" fill="url(#L)"/><path d="m20.0595 16.5414c.2964.0661.4832.36.4171.6565l-1.5781 7.0781c-.0661.2965-.3601.4832-.6565.4171-.2965-.0661-.4833-.36-.4172-.6565l1.5781-7.0781c.0661-.2965.3601-.4832.6566-.4171z" fill="url(#M)"/><path d="m20.0595 16.5414c.2964.0661.4832.36.4171.6565l-1.5781 7.0781c-.0661.2965-.3601.4832-.6565.4171-.2965-.0661-.4833-.36-.4172-.6565l1.5781-7.0781c.0661-.2965.3601-.4832.6566-.4171z" fill="url(#N)"/><path d="m20.0595 16.5414c.2964.0661.4832.36.4171.6565l-1.5781 7.0781c-.0661.2965-.3601.4832-.6565.4171-.2965-.0661-.4833-.36-.4172-.6565l1.5781-7.0781c.0661-.2965.3601-.4832.6566-.4171z" fill="url(#O)"/></g><path d="m14.0145 15.4453 1.3399-.8359 1.039 1.039-.7657 3.5313c-.513-.3802-1.5686-1.161-1.6874-1.2422-.1484-.1016-.6608-.543-.6529-1.2383.0079-.7111.4771-1.0716.7271-1.2539z" fill="url(#P)"/><path d="m14.0145 15.4453 1.3399-.8359 1.039 1.039-.7657 3.5313c-.513-.3802-1.5686-1.161-1.6874-1.2422-.1484-.1016-.6608-.543-.6529-1.2383.0079-.7111.4771-1.0716.7271-1.2539z" fill="url(#Q)"/><path d="m14.0145 15.4453 1.3399-.8359 1.039 1.039-.7657 3.5313c-.513-.3802-1.5686-1.161-1.6874-1.2422-.1484-.1016-.6608-.543-.6529-1.2383.0079-.7111.4771-1.0716.7271-1.2539z" fill="url(#R)"/><path d="m15.2952 14.6445 2.6406-1.6093 1.207.6289-2.7265 2.4765c-.2688-.2312-.8399-1.0508-1.1211-1.4961z" fill="url(#S)"/><path d="m15.2952 14.6445 2.6406-1.6093 1.207.6289-2.7265 2.4765c-.2688-.2312-.8399-1.0508-1.1211-1.4961z" fill="url(#T)"/><g filter="url(#g)"><path d="m18.9293 26.8002c-.124.026-.2525.0396-.3841.0396-1.0291 0-1.8633-.8342-1.8633-1.8632 0-1.0291.8342-1.8633 1.8633-1.8633.1381 0 .2727.015.4023.0435l5.8984.9057c.4389.0727.7735.4547.7735.9141 0 .489-.3792.8894-.8595.9234z" fill="url(#U)"/><path d="m18.9293 26.8002c-.124.026-.2525.0396-.3841.0396-1.0291 0-1.8633-.8342-1.8633-1.8632 0-1.0291.8342-1.8633 1.8633-1.8633.1381 0 .2727.015.4023.0435l5.8984.9057c.4389.0727.7735.4547.7735.9141 0 .489-.3792.8894-.8595.9234z" fill="url(#V)"/></g><circle cx="18.3889" cy="24.9766" fill="url(#W)" r="1.02734"/><circle cx="18.3889" cy="24.9766" fill="url(#X)" r="1.02734"/><g filter="url(#h)"><path d="m16.1152 23.2258-1.8088.8613c-.4312.2118-.7568.4646-.762.9561-.0012.1234.1074.2139.2308.2139h3.5037c.1105 0 .2-.0895.2-.2v-1.1494z" fill="#5b4e85"/><path d="m16.1152 23.2258-1.8088.8613c-.4312.2118-.7568.4646-.762.9561-.0012.1234.1074.2139.2308.2139h3.5037c.1105 0 .2-.0895.2-.2v-1.1494z" fill="url(#Y)"/><path d="m16.1152 23.2258-1.8088.8613c-.4312.2118-.7568.4646-.762.9561-.0012.1234.1074.2139.2308.2139h3.5037c.1105 0 .2-.0895.2-.2v-1.1494z" fill="url(#Z)"/></g><path d="m13.5544 7.91284h2.15415v2.66825h-2.15415z" fill="url(#aa)" transform="matrix(.56788972 -.82310465 .82310465 .56788972 -.6561 14.575909)"/><path d="m13.5544 7.91284h2.15415v2.66825h-2.15415z" fill="url(#ab)" transform="matrix(.56788972 -.82310465 .82310465 .56788972 -.6561 14.575909)"/><g filter="url(#i)"><path d="m16.0963 16.0001.5532-.5143 2.0402 1.9166c-.2734.1537-.8871.4633-1.0308.582-.1098.0907-.1098.2344-.1098.3282l-.0465 5.5937-1.4063-.6719c-.138-.7942-.4196-2.7082-.7692-4.3007-.3952-1.8008.376-2.5925.7692-2.9336z" fill="url(#ac)"/><path d="m16.0963 16.0001.5532-.5143 2.0402 1.9166c-.2734.1537-.8871.4633-1.0308.582-.1098.0907-.1098.2344-.1098.3282l-.0465 5.5937-1.4063-.6719c-.138-.7942-.4196-2.7082-.7692-4.3007-.3952-1.8008.376-2.5925.7692-2.9336z" fill="url(#ad)"/></g><g filter="url(#j)"><path d="m18.3801 13.7774-.6357-.6993 4.0312-2.4765c1.4219 1.8672 1.5 3.2109.836 4.2734-.6641 1.0625-1.5821 2.0508-2.6172 2.9453-.2714.2346-.8027.3617-1.3594-.1797-.707-.6875-1.5781-1.5781-2.0391-2.1133l1.7773-1.6085c.041-.0371.0441-.1005.0069-.1414z" fill="url(#ae)"/><path d="m18.3801 13.7774-.6357-.6993 4.0312-2.4765c1.4219 1.8672 1.5 3.2109.836 4.2734-.6641 1.0625-1.5821 2.0508-2.6172 2.9453-.2714.2346-.8027.3617-1.3594-.1797-.707-.6875-1.5781-1.5781-2.0391-2.1133l1.7773-1.6085c.041-.0371.0441-.1005.0069-.1414z" fill="url(#af)"/></g><g filter="url(#k)"><path d="m16.1116 11.1563c.664.625 1.3633 1.5859 1.6718 1.9687l4.2423-2.1796c-.5859-.9766-2.0703-2.53129-3.539-3.35942-1.7188-.8125-2.6724 0-3.3052 1.07032-.4136.85156.2582 1.7812.9301 2.5z" fill="url(#ag)"/></g><g filter="url(#l)"><path d="m12.9553 11.6094c0-.3175-.2574-.575-.575-.575h-3.04993c-1.17619 0-2.12969.9535-2.12969 2.1297s.9535 2.1297 2.12969 2.1297h.18276c.31757 0 .57497-.2574.57497-.575s-.2574-.575-.57497-.575h-.18276c-.54107 0-.97969-.4386-.97969-.9797s.43862-.9797.97969-.9797h3.04993c.3176 0 .575-.2574.575-.575z" fill="#c0b9bc"/><path d="m12.9553 11.6094c0-.3175-.2574-.575-.575-.575h-3.04993c-1.17619 0-2.12969.9535-2.12969 2.1297s.9535 2.1297 2.12969 2.1297h.18276c.31757 0 .57497-.2574.57497-.575s-.2574-.575-.57497-.575h-.18276c-.54107 0-.97969-.4386-.97969-.9797s.43862-.9797.97969-.9797h3.04993c.3176 0 .575-.2574.575-.575z" fill="url(#ah)"/></g><g filter="url(#m)"><path clip-rule="evenodd" d="m8.34985 13.2227v-.0215c0-.3161-.2561-.5723-.57226-.5723s-.57227.2562-.57227.5723v.0215h-.0039c.031 1.1491.97241 2.0711 2.1289 2.0711h.18286c.31763 0 .57492-.2575.57492-.575 0-.3176-.25729-.5751-.57492-.5751h-.18286c-.52124 0-.94775-.4073-.97803-.921z" fill="#2b174f" fill-rule="evenodd"/></g><g clip-rule="evenodd" fill-rule="evenodd" filter="url(#n)"><path d="m17.142 8.27395c.4787.32733.6014.98073.2741 1.45942-.7828 1.14463-3.1516 4.30283-7.93267 4.78793-.57694.0585-1.59458-.3193-1.65311-.8962-.05853-.577.86422-1.1346 1.44115-1.1931 3.84393-.39 5.74073-2.90363 6.41113-3.88401.3273-.47868.9807-.60138 1.4594-.27404z" fill="#d19e7f"/><path d="m17.142 8.27395c.4787.32733.6014.98073.2741 1.45942-.7828 1.14463-3.1516 4.30283-7.93267 4.78793-.57694.0585-1.59458-.3193-1.65311-.8962-.05853-.577.86422-1.1346 1.44115-1.1931 3.84393-.39 5.74073-2.90363 6.41113-3.88401.3273-.47868.9807-.60138 1.4594-.27404z" fill="url(#ai)"/></g><path clip-rule="evenodd" d="m9.33658 12.922c0 .1933-.1567.35-.35.35-.17295 0-.43539.0425-.66246.1496-.22597.1067-.36989.2526-.41531.4388-.04579.1878-.23516.3029-.42295.2571-.1878-.0458-.30291-.2351-.25712-.4229.11367-.4661.46185-.748.79661-.906.33367-.1575.70059-.2166.96123-.2166.1933 0 .35.1567.35.35z" fill="url(#ak)" fill-rule="evenodd"/><path clip-rule="evenodd" d="m9.33658 12.922c0 .1933-.1567.35-.35.35-.17295 0-.43539.0425-.66246.1496-.22597.1067-.36989.2526-.41531.4388-.04579.1878-.23516.3029-.42295.2571-.1878-.0458-.30291-.2351-.25712-.4229.11367-.4661.46185-.748.79661-.906.33367-.1575.70059-.2166.96123-.2166.1933 0 .35.1567.35.35z" fill="url(#am)" fill-rule="evenodd"/><g filter="url(#o)"><path d="m21.006 12.8952-.5233-.8635 1.125-.6562c.9687 1.3125 1.3437 2.2969.7343 2.875-.4875.4625-2.8698 1.7239-4 2.2969l2.503-2.4141c.3364-.3244.4032-.8384.161-1.2381z" fill="url(#an)"/></g><path clip-rule="evenodd" d="m8.82653 13.457c.05881.1842-.04279.3811-.22693.4399-.28845.0921-.37727.3293-.40575.4574-.04194.1887-.2289.3077-.4176.2657-.18869-.0419-.30766-.2289-.26572-.4176.04967-.2234.23499-.7675.87611-.9723.18414-.0588.38108.0428.43989.2269z" fill="url(#ao)" fill-rule="evenodd"/><path clip-rule="evenodd" d="m8.82653 13.457c.05881.1842-.04279.3811-.22693.4399-.28845.0921-.37727.3293-.40575.4574-.04194.1887-.2289.3077-.4176.2657-.18869-.0419-.30766-.2289-.26572-.4176.04967-.2234.23499-.7675.87611-.9723.18414-.0588.38108.0428.43989.2269z" fill="url(#ap)" fill-rule="evenodd"/><path clip-rule="evenodd" d="m8.97412 13.5164c.06659.0803.11328.2422 0 .4023-.15152.1256-.34264.389-.37246.5935-.0279.1913-.20557.3237-.39685.2958-.19127-.0279-.32372-.2055-.29583-.3968.01875-.1286.07672-.2847.15467-.4288.07977-.1475.1966-.3126.3539-.443.14882-.1234.4332-.1718.55657-.023z" fill="url(#aq)" fill-rule="evenodd"/><path clip-rule="evenodd" d="m8.97412 13.5164c.06659.0803.11328.2422 0 .4023-.15152.1256-.34264.389-.37246.5935-.0279.1913-.20557.3237-.39685.2958-.19127-.0279-.32372-.2055-.29583-.3968.01875-.1286.07672-.2847.15467-.4288.07977-.1475.1966-.3126.3539-.443.14882-.1234.4332-.1718.55657-.023z" fill="url(#ar)" fill-rule="evenodd"/><g filter="url(#p)"><circle cx="9.24039" cy="13.424" fill="#d7a58b" r=".884675"/></g><path d="m10.8947 8.42781c-.2054-.13473-.2126-.29439-.1546-.65095.0424-.26052-.0254-.4528-.0745-.5345l.8351.97495c-.1033.22479-.4007.34523-.606.2105z" fill="url(#as)"/><g filter="url(#q)"><path d="m12.0916 9.15897c-.7966-.72411-1.4686-1.90219-1.7379-2.36215l3.4098-2.17401 1.8904 1.63554c-.0667.34249-.3376 1.20828-.8879 1.93152-.688.90405-1.6291 1.91923-2.6744.9691z" fill="url(#at)"/><path d="m12.0916 9.15897c-.7966-.72411-1.4686-1.90219-1.7379-2.36215l3.4098-2.17401 1.8904 1.63554c-.0667.34249-.3376 1.20828-.8879 1.93152-.688.90405-1.6291 1.91923-2.6744.9691z" fill="url(#au)"/><path d="m12.0916 9.15897c-.7966-.72411-1.4686-1.90219-1.7379-2.36215l3.4098-2.17401 1.8904 1.63554c-.0667.34249-.3376 1.20828-.8879 1.93152-.688.90405-1.6291 1.91923-2.6744.9691z" fill="url(#av)"/><path d="m12.0916 9.15897c-.7966-.72411-1.4686-1.90219-1.7379-2.36215l3.4098-2.17401 1.8904 1.63554c-.0667.34249-.3376 1.20828-.8879 1.93152-.688.90405-1.6291 1.91923-2.6744.9691z" fill="url(#aw)"/></g><path clip-rule="evenodd" d="m11.9707 8.63191c-.0344-.05489-.0178-.12727.0371-.16168.1008-.06317.2324-.21655.2986-.53461.0132-.06342.0753-.10414.1387-.09095.0634.0132.1041.0753.0909.13872-.0755.3631-.2352.58006-.4036.68561-.0549.0344-.1273.01779-.1617-.03709z" fill="#86004d" fill-rule="evenodd"/><path d="m11.9456 6.41589c-.2401-.09115-.4631-.03347-.59.01647.2866.14286.3459.37525.5037.35303.2058-.02897.2862-.29362.0863-.3695z" fill="#1b131c"/><path d="m11.0409 6.74983c-.0649.22996.0764.45534.1519.56904l.8759-.5453c-.5397-.58094-.9396-.33618-1.0278-.02374z" fill="#fff"/><path d="m11.6851 7.01254c-.0095-.01601-.0196-.03196-.0303-.04782-.1656-.24561-.4072-.37236-.5396-.28311-.1323.08925-.1054.3607.0603.60631.0067.00992.0135.01964.0204.02917z" fill="#654b4b"/><path d="m11.4986 7.12941c-.0129-.03042-.0296-.06143-.0501-.09178-.0924-.13703-.2257-.20878-.2976-.16026-.072.04852-.0554.19894.037.33597.0182.02701.038.05148.0586.07299z" fill="url(#ax)"/><g filter="url(#r)"><path d="m14.4329 7.22146-1.014-1.04102-.5588-.91244 2.2261-1.13483c.0661.09761.3297.32706.8557.46399.6575.17118.9635.62447 1.0982.85786.1348.23339.5427 1.29838-.5864 1.99957-.9034.56096-1.7236.07831-2.0208-.23313z" fill="url(#ay)"/></g><circle cx="11.1585" cy="6.8557" fill="#dfdfdf" r=".085073" transform="matrix(.41769899 -.90858547 .90858547 .41769899 .268616 14.130532)"/><circle cx="13.4888" cy="5.75236" fill="url(#az)" r=".655168" transform="matrix(.41769899 -.90858547 .90858547 .41769899 2.628031 15.605333)"/><path clip-rule="evenodd" d="m12.7126 5.05297c.1461-.06984.3211-.00803.391.13808l1.5757 3.29612c.0699.14611.0081.32117-.138.39102s-.3212.00803-.391-.13807l-1.5758-3.29613c-.0699-.1461-.008-.32117.1381-.39102z" fill="#4d3771" fill-rule="evenodd"/><path clip-rule="evenodd" d="m12.7126 5.05297c.1461-.06984.3211-.00803.391.13808l1.5757 3.29612c.0699.14611.0081.32117-.138.39102s-.3212.00803-.391-.13807l-1.5758-3.29613c-.0699-.1461-.008-.32117.1381-.39102z" fill="url(#aA)" fill-rule="evenodd"/><path clip-rule="evenodd" d="m12.7126 5.05297c.1461-.06984.3211-.00803.391.13808l1.5757 3.29612c.0699.14611.0081.32117-.138.39102s-.3212.00803-.391-.13807l-1.5758-3.29613c-.0699-.1461-.008-.32117.1381-.39102z" fill="url(#aB)" fill-rule="evenodd"/><path clip-rule="evenodd" d="m12.7126 5.05297c.1461-.06984.3211-.00803.391.13808l1.5757 3.29612c.0699.14611.0081.32117-.138.39102s-.3212.00803-.391-.13807l-1.5758-3.29613c-.0699-.1461-.008-.32117.1381-.39102z" fill="url(#aC)" fill-rule="evenodd"/><g filter="url(#s)"><path d="m15.0648 4.33196-4.6502 2.54626c-.1174.06432-.263.0401-.341-.06885-.16986-.23763-.40894-.64011-.6023-1.12181-.57589-1.43462.41142-2.27503.5404-2.40395.1866-.18652.7024-.65032 1.8255-1.09711 1.318-.52429 2.1786.04346 2.6063.58297.2689.3393.5664.85125.7407 1.19717.0675.13392.0121.29329-.1194.36532z" fill="url(#aD)"/></g><g filter="url(#t)"><path d="m11.2956 5.17963c-.091-.17309-.0244-.38716.1487-.47814l1.2892-.67763c.1731-.09097.3872-.02441.4782.14869.091.17309.0244.38716-.1487.47814l-1.2893.67763c-.173.09098-.3871.02441-.4781-.14869z" fill="url(#aE)"/></g></svg>