<svg fill="none" height="32" viewBox="0 0 32 32" width="32" xmlns="http://www.w3.org/2000/svg" xmlns:xlink="http://www.w3.org/1999/xlink"><filter id="a" color-interpolation-filters="sRGB" filterUnits="userSpaceOnUse" height="3.73438" width="8.3125" x="5.36084" y="17.408"><feFlood flood-opacity="0" result="BackgroundImageFix"/><feBlend in="SourceGraphic" in2="BackgroundImageFix" mode="normal" result="shape"/><feColorMatrix in="SourceAlpha" result="hardAlpha" type="matrix" values="0 0 0 0 0 0 0 0 0 0 0 0 0 0 0 0 0 0 127 0"/><feOffset/><feGaussianBlur stdDeviation=".375"/><feComposite in2="hardAlpha" k2="-1" k3="1" operator="arithmetic"/><feColorMatrix type="matrix" values="0 0 0 0 0.368627 0 0 0 0 0.376471 0 0 0 0 0.662745 0 0 0 1 0"/><feBlend in2="shape" mode="normal" result="effect1_innerShadow_2_94"/></filter><filter id="b" color-interpolation-filters="sRGB" filterUnits="userSpaceOnUse" height="3.73438" width="8.3125" x="5.36084" y="13.6737"><feFlood flood-opacity="0" result="BackgroundImageFix"/><feBlend in="SourceGraphic" in2="BackgroundImageFix" mode="normal" result="shape"/><feColorMatrix in="SourceAlpha" result="hardAlpha" type="matrix" values="0 0 0 0 0 0 0 0 0 0 0 0 0 0 0 0 0 0 127 0"/><feOffset/><feGaussianBlur stdDeviation=".25"/><feComposite in2="hardAlpha" k2="-1" k3="1" operator="arithmetic"/><feColorMatrix type="matrix" values="0 0 0 0 0.14902 0 0 0 0 0.266667 0 0 0 0 0.643137 0 0 0 1 0"/><feBlend in2="shape" mode="normal" result="effect1_innerShadow_2_94"/></filter><filter id="c" color-interpolation-filters="sRGB" filterUnits="userSpaceOnUse" height="9.5625" width="19.1274" x="11.2647" y="14.0799"><feFlood flood-opacity="0" result="BackgroundImageFix"/><feBlend in="SourceGraphic" in2="BackgroundImageFix" mode="normal" result="shape"/><feGaussianBlur result="effect1_foregroundBlur_2_94" stdDeviation=".25"/></filter><filter id="d" color-interpolation-filters="sRGB" filterUnits="userSpaceOnUse" height="8.86828" width="8.54671" x="5.61816" y="9.10979"><feFlood flood-opacity="0" result="BackgroundImageFix"/><feBlend in="SourceGraphic" in2="BackgroundImageFix" mode="normal" result="shape"/><feGaussianBlur result="effect1_foregroundBlur_2_94" stdDeviation=".5"/></filter><filter id="e" color-interpolation-filters="sRGB" filterUnits="userSpaceOnUse" height="9.3625" width="18.7375" x="11.5796" y="13.1549"><feFlood flood-opacity="0" result="BackgroundImageFix"/><feBlend in="SourceGraphic" in2="BackgroundImageFix" mode="normal" result="shape"/><feGaussianBlur result="effect1_foregroundBlur_2_94" stdDeviation=".375"/></filter><filter id="f" color-interpolation-filters="sRGB" filterUnits="userSpaceOnUse" height="5.96037" width="7.10285" x="6.92707" y="9.16289"><feFlood flood-opacity="0" result="BackgroundImageFix"/><feBlend in="SourceGraphic" in2="BackgroundImageFix" mode="normal" result="shape"/><feColorMatrix in="SourceAlpha" result="hardAlpha" type="matrix" values="0 0 0 0 0 0 0 0 0 0 0 0 0 0 0 0 0 0 127 0"/><feOffset dx=".2" dy="-.2"/><feGaussianBlur stdDeviation=".5"/><feComposite in2="hardAlpha" k2="-1" k3="1" operator="arithmetic"/><feColorMatrix type="matrix" values="0 0 0 0 0.603922 0 0 0 0 0.403922 0 0 0 0 0.466667 0 0 0 1 0"/><feBlend in2="shape" mode="normal" result="effect1_innerShadow_2_94"/></filter><filter id="g" color-interpolation-filters="sRGB" filterUnits="userSpaceOnUse" height="7.80202" width="5.19184" x="5.35731" y="8.23086"><feFlood flood-opacity="0" result="BackgroundImageFix"/><feBlend in="SourceGraphic" in2="BackgroundImageFix" mode="normal" result="shape"/><feColorMatrix in="SourceAlpha" result="hardAlpha" type="matrix" values="0 0 0 0 0 0 0 0 0 0 0 0 0 0 0 0 0 0 127 0"/><feOffset dy="-.15"/><feGaussianBlur stdDeviation=".15"/><feComposite in2="hardAlpha" k2="-1" k3="1" operator="arithmetic"/><feColorMatrix type="matrix" values="0 0 0 0 0.254902 0 0 0 0 0.14902 0 0 0 0 0.168627 0 0 0 1 0"/><feBlend in2="shape" mode="normal" result="effect1_innerShadow_2_94"/></filter><filter id="h" color-interpolation-filters="sRGB" filterUnits="userSpaceOnUse" height="1.11425" width=".714191" x="9.51632" y="10.1489"><feFlood flood-opacity="0" result="BackgroundImageFix"/><feBlend in="SourceGraphic" in2="BackgroundImageFix" mode="normal" result="shape"/><feColorMatrix in="SourceAlpha" result="hardAlpha" type="matrix" values="0 0 0 0 0 0 0 0 0 0 0 0 0 0 0 0 0 0 127 0"/><feOffset dx="-.1" dy=".1"/><feGaussianBlur stdDeviation=".1"/><feComposite in2="hardAlpha" k2="-1" k3="1" operator="arithmetic"/><feColorMatrix type="matrix" values="0 0 0 0 0.219608 0 0 0 0 0.168627 0 0 0 0 0.180392 0 0 0 1 0"/><feBlend in2="shape" mode="normal" result="effect1_innerShadow_2_94"/></filter><filter id="i" color-interpolation-filters="sRGB" filterUnits="userSpaceOnUse" height=".967991" width=".778632" x="10.473" y="10.6183"><feFlood flood-opacity="0" result="BackgroundImageFix"/><feBlend in="SourceGraphic" in2="BackgroundImageFix" mode="normal" result="shape"/><feGaussianBlur result="effect1_foregroundBlur_2_94" stdDeviation=".05"/></filter><linearGradient id="j" gradientUnits="userSpaceOnUse" x1="5.91943" x2="5.91943" y1="27.8924" y2="29.5799"><stop offset="0" stop-color="#5e4ac0"/><stop offset="1" stop-color="#7b74d4"/></linearGradient><linearGradient id="k"><stop offset="0" stop-color="#5a4eb7"/><stop offset="1" stop-color="#5a4eb7" stop-opacity="0"/></linearGradient><linearGradient id="l" gradientUnits="userSpaceOnUse" x1="4.18115" x2="4.64209" xlink:href="#k" y1="29.9471" y2="29.9471"/><linearGradient id="m" gradientUnits="userSpaceOnUse" x1="26.8179" x2="26.8179" y1="27.8924" y2="29.5799"><stop offset="0" stop-color="#5e4ac0"/><stop offset="1" stop-color="#7c75d7"/></linearGradient><linearGradient id="n" gradientUnits="userSpaceOnUse" x1="25.0521" x2="25.5203" xlink:href="#k" y1="29.9471" y2="29.9471"/><linearGradient id="o" gradientUnits="userSpaceOnUse" x1="14.3296" x2="16.353" y1="21.5487" y2="26.7987"><stop offset="0" stop-color="#40225f"/><stop offset="1" stop-color="#4a2160"/></linearGradient><linearGradient id="p" gradientUnits="userSpaceOnUse" x1="2.43896" x2="4.18896" y1="26.6737" y2="26.6737"><stop offset=".205357" stop-color="#3c2c4d"/><stop offset="1" stop-color="#3c2c4d" stop-opacity="0"/></linearGradient><linearGradient id="q" gradientUnits="userSpaceOnUse" x1="30.2671" x2="28.8608" y1="26.4237" y2="26.4237"><stop offset=".0888907" stop-color="#4e3568"/><stop offset="1" stop-color="#4e3568" stop-opacity="0"/></linearGradient><linearGradient id="r" gradientUnits="userSpaceOnUse" x1="18.5796" x2="18.5796" y1="28.2635" y2="27.9862"><stop offset="0" stop-color="#481764"/><stop offset="1" stop-color="#481764" stop-opacity="0"/></linearGradient><linearGradient id="s" gradientUnits="userSpaceOnUse" x1="16.353" x2="16.353" y1="21.1424" y2="21.3455"><stop offset="0" stop-color="#160639"/><stop offset="1" stop-color="#160639" stop-opacity="0"/></linearGradient><linearGradient id="t" gradientUnits="userSpaceOnUse" x1="11.4858" x2="5.57959" y1="20.3924" y2="20.3924"><stop offset="0" stop-color="#817ed9"/><stop offset="1" stop-color="#7f7dcb"/></linearGradient><linearGradient id="u" gradientUnits="userSpaceOnUse" x1="11.7046" x2="10.1733" y1="20.7362" y2="20.7362"><stop offset="0" stop-color="#6964bd"/><stop offset="1" stop-color="#6964bd" stop-opacity="0"/></linearGradient><linearGradient id="v" gradientUnits="userSpaceOnUse" x1="11.6108" x2="9.95459" y1="17.1112" y2="17.1112"><stop offset=".0566036" stop-color="#28469e"/><stop offset="1" stop-color="#305fb8" stop-opacity="0"/></linearGradient><linearGradient id="w" gradientUnits="userSpaceOnUse" x1="5.36084" x2="2.43896" y1="21.1424" y2="21.1424"><stop offset=".192513" stop-color="#403064"/><stop offset="1" stop-color="#32274d"/></linearGradient><linearGradient id="x" gradientUnits="userSpaceOnUse" x1="5.54834" x2="4.48584" y1="21.1424" y2="21.1424"><stop offset="0" stop-color="#0d0426"/><stop offset="1" stop-color="#2a2356" stop-opacity="0"/></linearGradient><linearGradient id="y" gradientUnits="userSpaceOnUse" x1="12.2671" x2="29.1421" y1="18.7987" y2="18.7987"><stop offset="0" stop-color="#3071d8"/><stop offset="1" stop-color="#3172d9"/></linearGradient><linearGradient id="z" gradientUnits="userSpaceOnUse" x1="11.4546" x2="12.7671" y1="21.4549" y2="21.4549"><stop offset="0" stop-color="#1c4eb1"/><stop offset="1" stop-color="#1f60bf" stop-opacity="0"/></linearGradient><linearGradient id="A" gradientUnits="userSpaceOnUse" x1="23.3921" x2="23.3921" y1="22.4158" y2="21.9783"><stop offset="0" stop-color="#1441b8"/><stop offset="1" stop-color="#1441b8" stop-opacity="0"/></linearGradient><linearGradient id="B" gradientUnits="userSpaceOnUse" x1="11.2749" x2="11.7437" y1="18.7987" y2="18.7987"><stop offset="0" stop-color="#0b3081"/><stop offset="1" stop-color="#1d46a7" stop-opacity="0"/></linearGradient><linearGradient id="C" gradientUnits="userSpaceOnUse" x1="20.8608" x2="20.8608" y1="12.7987" y2="13.9862"><stop offset="0" stop-color="#497dba"/><stop offset="1" stop-color="#497dba" stop-opacity="0"/></linearGradient><radialGradient id="D" cx="0" cy="0" gradientTransform="matrix(-3.71875333 5.28125189 -7.99172044 -5.62730914 30.4233 12.9237)" gradientUnits="userSpaceOnUse" r="1"><stop offset=".21462" stop-color="#4790dd"/><stop offset="1" stop-color="#3173da" stop-opacity="0"/></radialGradient><radialGradient id="E" cx="0" cy="0" gradientTransform="matrix(-9.21869461 9.56259026 -16.93759023 -16.32847037 30.0171 14.2049)" gradientUnits="userSpaceOnUse" r="1"><stop offset=".124609" stop-color="#5490e6"/><stop offset="1" stop-color="#5490e6" stop-opacity="0"/></radialGradient><radialGradient id="F" cx="0" cy="0" gradientTransform="matrix(-.09235205 .61156631 -.86324883 -.1303584 12.5967 10.376)" gradientUnits="userSpaceOnUse" r="1"><stop offset=".100808" stop-color="#bf9580"/><stop offset=".684407" stop-color="#ad7f6d"/></radialGradient><radialGradient id="G" cx="0" cy="0" gradientTransform="matrix(-.18328827 -.30971378 .46481292 -.27507577 12.6075 10.9633)" gradientUnits="userSpaceOnUse" r="1"><stop offset="0" stop-color="#a66d75"/><stop offset="1" stop-color="#a66d75" stop-opacity="0"/></radialGradient><linearGradient id="H" gradientUnits="userSpaceOnUse" x1="10.331" x2="12.4541" y1="13.4564" y2="10.9651"><stop offset="0" stop-color="#a87a72"/><stop offset="1" stop-color="#ab826c"/></linearGradient><radialGradient id="I" cx="0" cy="0" gradientTransform="matrix(.5369009 -.80140165 .97707349 .65459266 9.43975 13.2314)" gradientUnits="userSpaceOnUse" r="1"><stop offset=".155748" stop-color="#916051"/><stop offset="1" stop-color="#9c6e67" stop-opacity="0"/></radialGradient><radialGradient id="J" cx="0" cy="0" gradientTransform="matrix(-4.7291601 -3.56367775 1.38468008 -1.83753253 12.5121 11.4066)" gradientUnits="userSpaceOnUse" r="1"><stop offset=".21945" stop-color="#c19382"/><stop offset="1" stop-color="#bd927e" stop-opacity="0"/></radialGradient><radialGradient id="K" cx="0" cy="0" gradientTransform="matrix(.35611078 .26834872 -.41849675 .55536395 10.9033 11.378)" gradientUnits="userSpaceOnUse" r="1"><stop offset=".154762" stop-color="#a67d65"/><stop offset="1" stop-color="#a67d65" stop-opacity="0"/></radialGradient><radialGradient id="L" cx="0" cy="0" gradientTransform="matrix(-3.42928103 .85603303 -1.30132395 -5.21312307 9.14956 11.8038)" gradientUnits="userSpaceOnUse" r="1"><stop offset=".193851" stop-color="#503339"/><stop offset="1" stop-color="#583e3b"/></radialGradient><radialGradient id="M" cx="0" cy="0" gradientTransform="matrix(-1.62235595 .4932806 -.79359679 -2.61006914 9.3274 8.69801)" gradientUnits="userSpaceOnUse" r="1"><stop offset="0" stop-color="#68514d"/><stop offset="1" stop-color="#68514d" stop-opacity="0"/></radialGradient><radialGradient id="N" cx="0" cy="0" gradientTransform="matrix(.49490991 -.37521615 .18435896 .24316938 9.0554 15.4013)" gradientUnits="userSpaceOnUse" r="1"><stop offset=".196701" stop-color="#5f4745"/><stop offset="1" stop-color="#5f4745" stop-opacity="0"/></radialGradient><radialGradient id="O" cx="0" cy="0" gradientTransform="matrix(-.69142749 .51746092 -.25256522 -.3374758 9.48716 12.9463)" gradientUnits="userSpaceOnUse" r="1"><stop offset=".169715" stop-color="#ba9682"/><stop offset="1" stop-color="#ad8570"/></radialGradient><radialGradient id="P" cx="0" cy="0" gradientTransform="matrix(.92027915 1.01644776 -1.05918399 .958972 9.19148 12.7682)" gradientUnits="userSpaceOnUse" r="1"><stop offset=".556148" stop-color="#9e6563" stop-opacity="0"/><stop offset="1" stop-color="#9e6563"/></radialGradient><linearGradient id="Q" gradientUnits="userSpaceOnUse" x1="9.58729" x2="9.496" y1="12.9436" y2="13.087"><stop offset="0" stop-color="#a17363"/><stop offset="1" stop-color="#a17363" stop-opacity="0"/></linearGradient><path d="m4.43896 27.3299h2.96094v2.9688h-2.96094z" fill="url(#j)"/><path d="m4.43896 27.3299h2.96094v2.9688h-2.96094z" fill="url(#l)"/><path d="m25.314 27.3299h3.00781v2.96875h-3.00781z" fill="url(#m)"/><path d="m25.314 27.3299h3.00781v2.96875h-3.00781z" fill="url(#n)"/><path d="m2.43896 21.2924c0-.0828.06716-.15.15-.15h27.52814c.0828 0 .15.0672.15.15v6.8211c0 .0828-.0672.15-.15.15h-27.52814c-.08284 0-.15-.0672-.15-.15z" fill="url(#o)"/><path d="m2.43896 21.2924c0-.0828.06716-.15.15-.15h27.52814c.0828 0 .15.0672.15.15v6.8211c0 .0828-.0672.15-.15.15h-27.52814c-.08284 0-.15-.0672-.15-.15z" fill="url(#p)"/><path d="m2.43896 21.2924c0-.0828.06716-.15.15-.15h27.52814c.0828 0 .15.0672.15.15v6.8211c0 .0828-.0672.15-.15.15h-27.52814c-.08284 0-.15-.0672-.15-.15z" fill="url(#q)"/><path d="m2.43896 21.2924c0-.0828.06716-.15.15-.15h27.52814c.0828 0 .15.0672.15.15v6.8211c0 .0828-.0672.15-.15.15h-27.52814c-.08284 0-.15-.0672-.15-.15z" fill="url(#r)"/><path d="m2.43896 21.2924c0-.0828.06716-.15.15-.15h27.52814c.0828 0 .15.0672.15.15v6.8211c0 .0828-.0672.15-.15.15h-27.52814c-.08284 0-.15-.0672-.15-.15z" fill="url(#s)"/><g filter="url(#a)"><path d="m5.36084 17.808c0-.2209.17909-.4.4-.4h7.91246v3.7344h-7.91246c-.22091 0-.4-.1791-.4-.4z" fill="url(#t)"/><path d="m5.36084 17.808c0-.2209.17909-.4.4-.4h7.91246v3.7344h-7.91246c-.22091 0-.4-.1791-.4-.4z" fill="url(#u)"/></g><g filter="url(#b)"><path d="m5.36084 15.0737c0-.7732.6268-1.4 1.4-1.4h6.91246v3.7343h-7.91246c-.22091 0-.4-.1791-.4-.4z" fill="#2f63c0"/><path d="m5.36084 15.0737c0-.7732.6268-1.4 1.4-1.4h6.91246v3.7343h-7.91246c-.22091 0-.4-.1791-.4-.4z" fill="url(#v)"/></g><path d="m2.43896 11.8377c0-.8068.65409-1.4609 1.46094-1.4609.80686 0 1.46094.6541 1.46094 1.4609v9.3047h-2.82188c-.05522 0-.1-.0448-.1-.1z" fill="url(#w)"/><path d="m2.43896 11.8377c0-.8068.65409-1.4609 1.46094-1.4609.80686 0 1.46094.6541 1.46094 1.4609v9.3047h-2.82188c-.05522 0-.1-.0448-.1-.1z" fill="url(#x)"/><g filter="url(#c)"><path d="m12.1421 14.5799h14.4477c1.8238 0 3.3023 1.4704 3.3023 3.2843v4.9967c0 .1555-.1267.2815-.283.2815h-17.467c-.2084 0-.3774-.168-.3774-.3753z" fill="#321853"/></g><g filter="url(#d)"><path d="m8.073 10.5877c.15743-.2385.53108-.5604 1.07762-.4586.4486.0836.80928.4075.85078.8554.2321.0068.6413.0973 1.1781.4566.1684.1126.3622.2444.5668.3896.1048.0231.2366.0369.3637.0139.2704-.0487.4863.0365.5833.2082.0771.1364.0229.3034-.0965.4255.4865.4032.2875 1.5325.4828 1.9297.36.7323-.4148 1.9034-2.4217 1.7337-.0656.1323-.1421.283-.2329.4566-.1518.2901-.3985.427-.60466.3652-.24177-.0725-.38625-.3016-.31358-.5436l.01435-.0478c-.35259.0364-1.23463-.0019-2.34745-.8269-1.20778-.8955-.08208-1.4482.00014-1.83l.53094-.2371c.08329-.3871-1.19408-.7585-.5526-1.3324.35486-.3175.44319-.5444.5526-.8253.07773-.1996.1661-.4266.36826-.7327z" fill="#25409f"/></g><path d="m11.4546 13.2049h15.3125c1.933 0 3.5 1.567 3.5 3.5v5.325c0 .1657-.1343.3-.3.3h-18.1125c-.2209 0-.4-.1791-.4-.4z" fill="url(#y)"/><path d="m11.4546 13.2049h15.3125c1.933 0 3.5 1.567 3.5 3.5v5.325c0 .1657-.1343.3-.3.3h-18.1125c-.2209 0-.4-.1791-.4-.4z" fill="url(#z)"/><path d="m11.4546 13.2049h15.3125c1.933 0 3.5 1.567 3.5 3.5v5.325c0 .1657-.1343.3-.3.3h-18.1125c-.2209 0-.4-.1791-.4-.4z" fill="url(#A)"/><path d="m11.4546 13.2049h15.3125c1.933 0 3.5 1.567 3.5 3.5v5.325c0 .1657-.1343.3-.3.3h-18.1125c-.2209 0-.4-.1791-.4-.4z" fill="url(#B)"/><path d="m11.4546 13.2049h15.3125c1.933 0 3.5 1.567 3.5 3.5v5.325c0 .1657-.1343.3-.3.3h-18.1125c-.2209 0-.4-.1791-.4-.4z" fill="url(#C)"/><path d="m11.4546 13.2049h15.3125c1.933 0 3.5 1.567 3.5 3.5v5.325c0 .1657-.1343.3-.3.3h-18.1125c-.2209 0-.4-.1791-.4-.4z" fill="url(#D)"/><g filter="url(#e)"><path d="m12.3296 14.5049h14.4375v-.6h-14.4375zm16.6375 2.2v5.0625h.6v-5.0625zm-2.2-2.2c1.215 0 2.2.985 2.2 2.2h.6c0-1.5464-1.2536-2.8-2.8-2.8z" fill="url(#E)"/></g><path d="m11.998 10.3408c-.2413.0415-.4964-.0353-.5938-.0789l-.1235.1638 1.0256.7728c.2723-.1019.4637-.3968.3395-.6208-.1066-.192-.3463-.2888-.6478-.2369z" fill="url(#F)"/><path d="m11.998 10.3408c-.2413.0415-.4964-.0353-.5938-.0789l-.1235.1638 1.0256.7728c.2723-.1019.4637-.3968.3395-.6208-.1066-.192-.3463-.2888-.6478-.2369z" fill="url(#G)"/><g filter="url(#f)"><path d="m10.9652 9.88281c-.7569-.51527-1.28722-.544-1.47413-.51018l-2.564 3.40257 2.84114 2.2302c2.52959.6677 4.42949-1.6811 4.00129-2.5684-.4283-.8872-1.928-1.9576-2.8043-2.55419z" fill="url(#H)"/><path d="m10.9652 9.88281c-.7569-.51527-1.28722-.544-1.47413-.51018l-2.564 3.40257 2.84114 2.2302c2.52959.6677 4.42949-1.6811 4.00129-2.5684-.4283-.8872-1.928-1.9576-2.8043-2.55419z" fill="url(#I)"/><path d="m10.9652 9.88281c-.7569-.51527-1.28722-.544-1.47413-.51018l-2.564 3.40257 2.84114 2.2302c2.52959.6677 4.42949-1.6811 4.00129-2.5684-.4283-.8872-1.928-1.9576-2.8043-2.55419z" fill="url(#J)"/><path d="m10.9652 9.88281c-.7569-.51527-1.28722-.544-1.47413-.51018l-2.564 3.40257 2.84114 2.2302c2.52959.6677 4.42949-1.6811 4.00129-2.5684-.4283-.8872-1.928-1.9576-2.8043-2.55419z" fill="url(#K)"/></g><g filter="url(#g)"><path d="m8.71688 8.40433c-.60759-.11838-1.02609.23634-1.20325.5002-.54767.81569-.35753 1.12647-1.03755 1.72507-.71868.6327-.95264 1.0355-1.04845 1.4655l-.0019.0085c-.09459.4241-.29022 1.3014 1.04708 2.3091 1.23214.9285 2.2137.9793 2.60648.9422l-.01636.053c-.08282.2686.07617.5249.34472.6078.22903.0707.50476-.0793.67605-.4007.1957-.3673.3325-.642.4374-.8593.0589-.1219.0226-.2682-.0855-.3497l-1.01443-.7644c-.42733-.322-.45545-.8157-.43123-1.0059-.43085-.347-.53186-.6353-.47231-.9366.0986-.4989.27188-.5467.87731-1.4606.60946-.91986.08142-1.68619-.67806-1.83417z" fill="url(#L)"/><path d="m8.71688 8.40433c-.60759-.11838-1.02609.23634-1.20325.5002-.54767.81569-.35753 1.12647-1.03755 1.72507-.71868.6327-.95264 1.0355-1.04845 1.4655l-.0019.0085c-.09459.4241-.29022 1.3014 1.04708 2.3091 1.23214.9285 2.2137.9793 2.60648.9422l-.01636.053c-.08282.2686.07617.5249.34472.6078.22903.0707.50476-.0793.67605-.4007.1957-.3673.3325-.642.4374-.8593.0589-.1219.0226-.2682-.0855-.3497l-1.01443-.7644c-.42733-.322-.45545-.8157-.43123-1.0059-.43085-.347-.53186-.6353-.47231-.9366.0986-.4989.27188-.5467.87731-1.4606.60946-.91986.08142-1.68619-.67806-1.83417z" fill="url(#M)"/><path d="m8.71688 8.40433c-.60759-.11838-1.02609.23634-1.20325.5002-.54767.81569-.35753 1.12647-1.03755 1.72507-.71868.6327-.95264 1.0355-1.04845 1.4655l-.0019.0085c-.09459.4241-.29022 1.3014 1.04708 2.3091 1.23214.9285 2.2137.9793 2.60648.9422l-.01636.053c-.08282.2686.07617.5249.34472.6078.22903.0707.50476-.0793.67605-.4007.1957-.3673.3325-.642.4374-.8593.0589-.1219.0226-.2682-.0855-.3497l-1.01443-.7644c-.42733-.322-.45545-.8157-.43123-1.0059-.43085-.347-.53186-.6353-.47231-.9366.0986-.4989.27188-.5467.87731-1.4606.60946-.91986.08142-1.68619-.67806-1.83417z" fill="url(#N)"/></g><path d="m10.3875 13.408-1.44933-.807c-.19264.3549-.10187.8068.23037 1.0572.36582.2756.88586.2026 1.16146-.1632.0212-.0282.0404-.0572.0575-.087z" fill="url(#O)"/><path d="m10.3875 13.408-1.44933-.807c-.19264.3549-.10187.8068.23037 1.0572.36582.2756.88586.2026 1.16146-.1632.0212-.0282.0404-.0572.0575-.087z" fill="url(#P)"/><path d="m10.3875 13.408-1.44933-.807c-.19264.3549-.10187.8068.23037 1.0572.36582.2756.88586.2026 1.16146-.1632.0212-.0282.0404-.0572.0575-.087z" fill="url(#Q)"/><path clip-rule="evenodd" d="m11.8443 12.3345c.0117.078.0844.1316.1623.1199.3766-.0566.6677-.3294.7531-.4215.0536-.0578.0503-.1481-.0075-.2017s-.1481-.0502-.2017.0076c-.073.0787-.308.2916-.5863.3334-.0779.0117-.1316.0844-.1199.1623z" fill="#86004c" fill-rule="evenodd"/><g filter="url(#h)"><path clip-rule="evenodd" d="m10.0475 10.6477c.0507-.1054.108-.1808.1347-.2083.0658-.0679.0642-.1763-.0037-.2422-.0679-.0658-.1763-.0642-.24213.0037-.05672.0585-.13386.166-.19751.2985-.06417.1335-.12081.3052-.12254.491-.00087.0945.07508.1719.16964.1728.09456.0008.17192-.0751.1728-.1697.00111-.1202.03862-.2415.08874-.3458z" fill="#403235" fill-rule="evenodd"/></g><path d="m10.5605 11.4705c.0938-.0286.2569-.0534.3985-.2422.1045-.1393.0846-.3138.0625-.4257" stroke="#52363a" stroke-linecap="round" stroke-width=".35"/><g filter="url(#i)"><path d="m10.623 11.4362c.0938-.0286.2569-.0534.3985-.2421.1045-.1394.0846-.3138.0625-.4258" stroke="#483d3d" stroke-linecap="round" stroke-width=".1"/></g></svg>