<svg fill="none" height="32" viewBox="0 0 32 32" width="32" xmlns="http://www.w3.org/2000/svg" xmlns:xlink="http://www.w3.org/1999/xlink"><filter id="a" color-interpolation-filters="sRGB" filterUnits="userSpaceOnUse" height="4.91846" width="11.8595" x="17.642" y="22.4548"><feFlood flood-opacity="0" result="BackgroundImageFix"/><feBlend in="SourceGraphic" in2="BackgroundImageFix" mode="normal" result="shape"/><feGaussianBlur result="effect1_foregroundBlur_18_28271" stdDeviation=".5"/></filter><filter id="b" color-interpolation-filters="sRGB" filterUnits="userSpaceOnUse" height="11.3439" width="8.90637" x="3.96875" y="10.9688"><feFlood flood-opacity="0" result="BackgroundImageFix"/><feBlend in="SourceGraphic" in2="BackgroundImageFix" mode="normal" result="shape"/><feGaussianBlur result="effect1_foregroundBlur_18_28271" stdDeviation=".375"/></filter><filter id="c" color-interpolation-filters="sRGB" filterUnits="userSpaceOnUse" height="6.09387" width="12.3439" x="4.15625" y="24.0311"><feFlood flood-opacity="0" result="BackgroundImageFix"/><feBlend in="SourceGraphic" in2="BackgroundImageFix" mode="normal" result="shape"/><feGaussianBlur result="effect1_foregroundBlur_18_28271" stdDeviation=".375"/></filter><filter id="d" color-interpolation-filters="sRGB" filterUnits="userSpaceOnUse" height="11.3439" width="8.90637" x="19.6466" y="10.9688"><feFlood flood-opacity="0" result="BackgroundImageFix"/><feBlend in="SourceGraphic" in2="BackgroundImageFix" mode="normal" result="shape"/><feGaussianBlur result="effect1_foregroundBlur_18_28271" stdDeviation=".375"/></filter><filter id="e" color-interpolation-filters="sRGB" filterUnits="userSpaceOnUse" height="5.40637" width="11.5675" x="16.3075" y="24.2811"><feFlood flood-opacity="0" result="BackgroundImageFix"/><feBlend in="SourceGraphic" in2="BackgroundImageFix" mode="normal" result="shape"/><feGaussianBlur result="effect1_foregroundBlur_18_28271" stdDeviation=".25"/></filter><filter id="f" color-interpolation-filters="sRGB" filterUnits="userSpaceOnUse" height="4.91846" width="11.8595" x="2.70303" y="22.7065"><feFlood flood-opacity="0" result="BackgroundImageFix"/><feBlend in="SourceGraphic" in2="BackgroundImageFix" mode="normal" result="shape"/><feGaussianBlur result="effect1_foregroundBlur_18_28271" stdDeviation=".5"/></filter><filter id="g" color-interpolation-filters="sRGB" filterUnits="userSpaceOnUse" height="13.1082" width="13.6275" x="9.21622" y="2.37598"><feFlood flood-opacity="0" result="BackgroundImageFix"/><feBlend in="SourceGraphic" in2="BackgroundImageFix" mode="normal" result="shape"/><feGaussianBlur result="effect1_foregroundBlur_18_28271" stdDeviation=".125"/></filter><filter id="h" color-interpolation-filters="sRGB" filterUnits="userSpaceOnUse" height="2.47229" width="2.44894" x="25.964" y="27.2954"><feFlood flood-opacity="0" result="BackgroundImageFix"/><feBlend in="SourceGraphic" in2="BackgroundImageFix" mode="normal" result="shape"/><feGaussianBlur result="effect1_foregroundBlur_18_28271" stdDeviation=".375"/></filter><filter id="i" color-interpolation-filters="sRGB" filterUnits="userSpaceOnUse" height="3.26135" width="2.9939" x="26.2594" y="22.6371"><feFlood flood-opacity="0" result="BackgroundImageFix"/><feBlend in="SourceGraphic" in2="BackgroundImageFix" mode="normal" result="shape"/><feGaussianBlur result="effect1_foregroundBlur_18_28271" stdDeviation=".375"/></filter><linearGradient id="j" gradientUnits="userSpaceOnUse" x1="7.7693" x2="7.7693" y1="6.03259" y2="22.5356"><stop offset="0" stop-color="#e95acb"/><stop offset=".626697" stop-color="#ca379f"/><stop offset=".906949" stop-color="#a5035f"/><stop offset="1" stop-color="#b91b92"/></linearGradient><radialGradient id="k" cx="0" cy="0" gradientTransform="matrix(-1.18751169 2.87499324 -23.52111752 -9.71536271 10.3125 22.0625)" gradientUnits="userSpaceOnUse" r="1"><stop offset="0" stop-color="#b91e98"/><stop offset="1" stop-color="#b81790" stop-opacity="0"/></radialGradient><radialGradient id="l" cx="0" cy="0" gradientTransform="matrix(2.74999948 5.81249546 -4.51034917 2.1339299 6.375 7.6875)" gradientUnits="userSpaceOnUse" r="1"><stop offset="0" stop-color="#f073cb"/><stop offset="1" stop-color="#e95acc" stop-opacity="0"/></radialGradient><linearGradient id="m" gradientUnits="userSpaceOnUse" x1="5.0775" x2="5.0775" y1="9.00378" y2="11.3438"><stop offset="0" stop-color="#ca31b3"/><stop offset="1" stop-color="#c521a9"/></linearGradient><linearGradient id="n" gradientUnits="userSpaceOnUse" x1="24.1927" x2="24.1927" y1="6.03259" y2="22.5356"><stop offset=".0472584" stop-color="#e95acb"/><stop offset=".5964" stop-color="#ca379f"/><stop offset=".857716" stop-color="#a5035f"/><stop offset="1" stop-color="#b91b92"/></linearGradient><radialGradient id="o" cx="0" cy="0" gradientTransform="matrix(1.66147705 4.21874731 -15.10201242 5.94765346 22.5312 22.2812)" gradientUnits="userSpaceOnUse" r="1"><stop offset="0" stop-color="#c8199d"/><stop offset="1" stop-color="#c6199b" stop-opacity="0"/></radialGradient><radialGradient id="p" cx="0" cy="0" gradientTransform="matrix(.74999841 4.75000428 -2.95233482 .46615672 28.125 8)" gradientUnits="userSpaceOnUse" r="1"><stop offset="0" stop-color="#f475ce"/><stop offset="1" stop-color="#eb5bcd" stop-opacity="0"/></radialGradient><linearGradient id="q" gradientUnits="userSpaceOnUse" x1="26.8845" x2="26.8845" y1="9.00378" y2="11.3438"><stop offset="0" stop-color="#cc31b4"/><stop offset="1" stop-color="#c923ab"/></linearGradient><linearGradient id="r"><stop offset=".19322" stop-color="#b63377"/><stop offset=".862986" stop-color="#c926a3"/></linearGradient><linearGradient id="s" gradientUnits="userSpaceOnUse" x1="9.5" x2="8.4375" xlink:href="#r" y1="22.6094" y2="26.8125"/><linearGradient id="t" gradientUnits="userSpaceOnUse" x1="22.5176" x2="23.5801" xlink:href="#r" y1="22.6094" y2="26.8125"/><linearGradient id="u"><stop offset="0" stop-color="#d23db0"/><stop offset="1" stop-color="#e352c5"/></linearGradient><linearGradient id="v" gradientUnits="userSpaceOnUse" x1="19.4404" x2="27.8578" xlink:href="#u" y1="24.3128" y2="24.3128"/><linearGradient id="w"><stop offset=".62976" stop-color="#c01a8d"/><stop offset="1" stop-color="#ee40ef"/></linearGradient><linearGradient id="x" gradientUnits="userSpaceOnUse" x1="10.0135" x2="10.0135" xlink:href="#w" y1="22.5723" y2="30.0001"/><linearGradient id="y"><stop offset=".0357574" stop-color="#dc52ba" stop-opacity="0"/><stop offset="1" stop-color="#e350c6"/></linearGradient><linearGradient id="z" gradientUnits="userSpaceOnUse" x1="11.4164" x2="5.5" xlink:href="#y" y1="12.9595" y2="12.2187"/><linearGradient id="A" gradientUnits="userSpaceOnUse" x1="14.9202" x2="5.61682" xlink:href="#u" y1="26.1835" y2="26.1835"/><linearGradient id="B" gradientUnits="userSpaceOnUse" x1="14.9063" x2="14.9063" y1="24.9063" y2="26.4687"><stop offset="0" stop-color="#c51a9d"/><stop offset=".62" stop-color="#bb0986" stop-opacity="0"/></linearGradient><linearGradient id="C" gradientUnits="userSpaceOnUse" x1="14.125" x2="27.0217" xlink:href="#y" y1="22.4375" y2="12.2187"/><linearGradient id="D" gradientUnits="userSpaceOnUse" x1="22.0007" x2="22.0007" xlink:href="#w" y1="22.5723" y2="30.0001"/><linearGradient id="E" gradientUnits="userSpaceOnUse" x1="17.6374" x2="26.9408" xlink:href="#u" y1="26.1835" y2="26.1835"/><linearGradient id="F" gradientUnits="userSpaceOnUse" x1="17.9062" x2="17.9062" y1="25" y2="26.1563"><stop offset="0" stop-color="#c3128c"/><stop offset=".418919" stop-color="#c71d96" stop-opacity="0"/></linearGradient><linearGradient id="G" gradientUnits="userSpaceOnUse" x1="12.7641" x2="4.34676" xlink:href="#u" y1="24.5645" y2="24.5645"/><radialGradient id="H" cx="0" cy="0" gradientTransform="matrix(-4.49999759 3.81249631 -8.08001848 -9.5370751 18.9375 20.875)" gradientUnits="userSpaceOnUse" r="1"><stop offset=".131525" stop-color="#fe6de1"/><stop offset=".519708" stop-color="#ed50d7"/><stop offset="1" stop-color="#dc2acd"/></radialGradient><radialGradient id="I" cx="0" cy="0" gradientTransform="matrix(-2.75 0 0 -2.87222 19.8125 25.0001)" gradientUnits="userSpaceOnUse" r="1"><stop offset="0" stop-color="#d627ac"/><stop offset="1" stop-color="#d320ab" stop-opacity="0"/></radialGradient><radialGradient id="J" cx="0" cy="0" gradientTransform="matrix(1.93749881 1.6249998 -1.69722301 2.02361106 11.6875 24.6875)" gradientUnits="userSpaceOnUse" r="1"><stop offset="0" stop-color="#c81eac"/><stop offset="1" stop-color="#c620aa" stop-opacity="0"/></radialGradient><radialGradient id="K" cx="0" cy="0" gradientTransform="matrix(-.17968837 2.75004582 -2.13587547 -.1395584 11.1875 22.25)" gradientUnits="userSpaceOnUse" r="1"><stop offset="0" stop-color="#d578b5"/><stop offset="1" stop-color="#d578b5" stop-opacity="0"/></radialGradient><linearGradient id="L" gradientUnits="userSpaceOnUse" x1="16.03" x2="16.03" y1="2.20886" y2="12.25"><stop offset=".221951" stop-color="#f678c8"/><stop offset="1" stop-color="#c8369e"/></linearGradient><linearGradient id="M" gradientUnits="userSpaceOnUse" x1="10.25" x2="21.8125" y1="8.93006" y2="8.93006"><stop offset="0" stop-color="#d852b5"/><stop offset="1" stop-color="#ea5bc3"/></linearGradient><linearGradient id="N" gradientUnits="userSpaceOnUse" x1="12.6563" x2="11.6094" y1="7.6875" y2="7.26562"><stop offset="0" stop-color="#c13692" stop-opacity="0"/><stop offset=".425679" stop-color="#c12d91"/><stop offset="1" stop-color="#c13493" stop-opacity="0"/></linearGradient><linearGradient id="O" gradientUnits="userSpaceOnUse" x1="16" x2="16" y1="2" y2="18.75"><stop offset="0" stop-color="#da58b0"/><stop offset=".58498" stop-color="#e053b9"/><stop offset="1" stop-color="#c732a0"/></linearGradient><radialGradient id="P" cx="0" cy="0" gradientTransform="matrix(1.2500127 14.56254948 -3.76399874 .32309221 19.25 8.5625)" gradientUnits="userSpaceOnUse" r="1"><stop offset="0" stop-color="#fc7dd3"/><stop offset="1" stop-color="#fe7cd4" stop-opacity="0"/></radialGradient><linearGradient id="Q" gradientUnits="userSpaceOnUse" x1="16" x2="16" y1="15.6875" y2="20.6094"><stop offset=".215873" stop-color="#dd31bc" stop-opacity="0"/><stop offset=".495238" stop-color="#d81db4"/></linearGradient><radialGradient id="R" cx="0" cy="0" gradientTransform="matrix(-1.43752519 6.24999192 -1.91918971 -.44142194 12.25 5.8125)" gradientUnits="userSpaceOnUse" r="1"><stop offset="0" stop-color="#dc7eb7"/><stop offset="1" stop-color="#dd81b9" stop-opacity="0"/></radialGradient><radialGradient id="S" cx="0" cy="0" gradientTransform="matrix(3.06250083 5.31249803 -4.03232844 2.32452024 9.875 18.5)" gradientUnits="userSpaceOnUse" r="1"><stop offset="0" stop-color="#d95ab5"/><stop offset="1" stop-color="#c045a0" stop-opacity="0"/></radialGradient><radialGradient id="T" cx="0" cy="0" gradientTransform="matrix(2.24999909 3.18749788 -.86931909 .61363716 9.375 18.9375)" gradientUnits="userSpaceOnUse" r="1"><stop offset="0" stop-color="#ac257d"/><stop offset="1" stop-color="#b22b88" stop-opacity="0"/></radialGradient><linearGradient id="U" gradientUnits="userSpaceOnUse" x1="16.8241" x2="19.0641" y1="12.7875" y2="12.7875"><stop offset="0" stop-color="#b644a0"/><stop offset="1" stop-color="#c154a8"/></linearGradient><linearGradient id="V" gradientUnits="userSpaceOnUse" x1="14.3438" x2="15.7097" y1="11.9062" y2="11.9062"><stop offset="0" stop-color="#9e298b"/><stop offset="1" stop-color="#a83194"/></linearGradient><linearGradient id="W" gradientUnits="userSpaceOnUse" x1="13.943" x2="16.1562" y1="15.1875" y2="15.1875"><stop offset="0" stop-color="#a0288d"/><stop offset="1" stop-color="#ac3498"/></linearGradient><linearGradient id="X"><stop offset="0" stop-color="#504f52"/><stop offset=".537404" stop-color="#372546"/><stop offset=".769231" stop-color="#362545"/><stop offset=".995903" stop-color="#5a595b"/></linearGradient><radialGradient id="Y" cx="0" cy="0" gradientTransform="matrix(-1.05843801 .53125144 -.53125144 -1.05843801 13.8281 22.5)" gradientUnits="userSpaceOnUse" r="1" xlink:href="#X"/><radialGradient id="Z" cx="0" cy="0" gradientTransform="matrix(-1.05843801 .53125144 -.53125144 -1.05843801 18.7567 22.5)" gradientUnits="userSpaceOnUse" r="1" xlink:href="#X"/><path d="m2.64062 9.64554c0-.75492.82185-2.06327 1.44532-2.96985.47-.87 1.44722-.84482 2.01562-.00006.50219.7463 1.42969 2.02597 1.42969 2.97 0 .97947-.45063 1.45447-.89063 1.85447-.31.28-.32812.6055-.32812 1.0255v3.7c0 1.19.59875 1.9626 1.71875 2.3526l4.10935 1.6562c.59.21.8963.9712.6963 1.5512-.16.46-.6.75-1.06.75-.12 0-.25-.02-.37-.06l-4.21002-1.48c-2.02-.71-3.38001-2.63-3.38001-4.77v-3.7c0-.43 0-.7834-.33249-1.0255-.49128-.3578-.84376-1.1646-.84376-1.85456z" fill="url(#j)"/><path d="m2.64062 9.64554c0-.75492.82185-2.06327 1.44532-2.96985.47-.87 1.44722-.84482 2.01562-.00006.50219.7463 1.42969 2.02597 1.42969 2.97 0 .97947-.45063 1.45447-.89063 1.85447-.31.28-.32812.6055-.32812 1.0255v3.7c0 1.19.59875 1.9626 1.71875 2.3526l4.10935 1.6562c.59.21.8963.9712.6963 1.5512-.16.46-.6.75-1.06.75-.12 0-.25-.02-.37-.06l-4.21002-1.48c-2.02-.71-3.38001-2.63-3.38001-4.77v-3.7c0-.43 0-.7834-.33249-1.0255-.49128-.3578-.84376-1.1646-.84376-1.85456z" fill="url(#k)"/><path d="m2.64062 9.64554c0-.75492.82185-2.06327 1.44532-2.96985.47-.87 1.44722-.84482 2.01562-.00006.50219.7463 1.42969 2.02597 1.42969 2.97 0 .97947-.45063 1.45447-.89063 1.85447-.31.28-.32812.6055-.32812 1.0255v3.7c0 1.19.59875 1.9626 1.71875 2.3526l4.10935 1.6562c.59.21.8963.9712.6963 1.5512-.16.46-.6.75-1.06.75-.12 0-.25-.02-.37-.06l-4.21002-1.48c-2.02-.71-3.38001-2.63-3.38001-4.77v-3.7c0-.43 0-.7834-.33249-1.0255-.49128-.3578-.84376-1.1646-.84376-1.85456z" fill="url(#l)"/><path d="m5.0775 11.3438c.64617 0 1.17-.5238 1.17-1.17 0-.64619-.52383-1.17002-1.17-1.17002s-1.17.52383-1.17 1.17002c0 .6462.52383 1.17 1.17 1.17z" fill="url(#m)"/><path d="m5.81626 8.93001c.28719 0 .52-.23281.52-.52 0-.28718-.23281-.52-.52-.52-.28718 0-.52.23282-.52.52 0 .28719.23282.52.52.52z" fill="#ca31aa"/><path d="m4.22001 8.93014c.28719 0 .52-.23282.52-.52 0-.28719-.23281-.52-.52-.52s-.52.23281-.52.52c0 .28718.23281.52.52.52z" fill="#c631a3"/><path d="m4.99156 7.6578c.28719 0 .52-.23281.52-.52s-.23281-.52-.52-.52-.52.23281-.52.52.23281.52.52.52z" fill="#c62fa3"/><path d="m29.3214 9.64554c0-.75492-.8218-2.06327-1.4453-2.96985-.47-.87-1.4472-.84482-2.0156-.00006-.5022.7463-1.4297 2.02597-1.4297 2.97 0 .97947.4506 1.45447.8906 1.85447.31.28.3281.6055.3281 1.0255v3.7c0 1.19-.5987 1.9626-1.7187 2.3526l-4.1094 1.6562c-.59.21-.8962.9712-.6962 1.5512.16.46.6.75 1.06.75.12 0 .25-.02.37-.06l4.21-1.48c2.02-.71 3.38-2.63 3.38-4.77v-3.7c0-.43 0-.7834.3325-1.0255.4912-.3578.8437-1.1646.8437-1.85456z" fill="url(#n)"/><path d="m29.3214 9.64554c0-.75492-.8218-2.06327-1.4453-2.96985-.47-.87-1.4472-.84482-2.0156-.00006-.5022.7463-1.4297 2.02597-1.4297 2.97 0 .97947.4506 1.45447.8906 1.85447.31.28.3281.6055.3281 1.0255v3.7c0 1.19-.5987 1.9626-1.7187 2.3526l-4.1094 1.6562c-.59.21-.8962.9712-.6962 1.5512.16.46.6.75 1.06.75.12 0 .25-.02.37-.06l4.21-1.48c2.02-.71 3.38-2.63 3.38-4.77v-3.7c0-.43 0-.7834.3325-1.0255.4912-.3578.8437-1.1646.8437-1.85456z" fill="url(#o)"/><path d="m29.3214 9.64554c0-.75492-.8218-2.06327-1.4453-2.96985-.47-.87-1.4472-.84482-2.0156-.00006-.5022.7463-1.4297 2.02597-1.4297 2.97 0 .97947.4506 1.45447.8906 1.85447.31.28.3281.6055.3281 1.0255v3.7c0 1.19-.5987 1.9626-1.7187 2.3526l-4.1094 1.6562c-.59.21-.8962.9712-.6962 1.5512.16.46.6.75 1.06.75.12 0 .25-.02.37-.06l4.21-1.48c2.02-.71 3.38-2.63 3.38-4.77v-3.7c0-.43 0-.7834.3325-1.0255.4912-.3578.8437-1.1646.8437-1.85456z" fill="url(#p)"/><path d="m26.8845 11.3438c-.6461 0-1.17-.5238-1.17-1.17 0-.64619.5239-1.17002 1.17-1.17002.6462 0 1.17.52383 1.17 1.17002 0 .6462-.5238 1.17-1.17 1.17z" fill="url(#q)"/><path d="m25.9895 8.93014c-.2872 0-.52-.23282-.52-.52 0-.28719.2328-.52.52-.52s.52.23281.52.52c0 .28718-.2328.52-.52.52z" fill="#c730a8"/><path d="m27.6639 8.93014c-.2872 0-.52-.23282-.52-.52 0-.28719.2328-.52.52-.52s.52.23281.52.52c0 .28718-.2328.52-.52.52z" fill="#ce32aa"/><path d="m26.783 7.6578c-.2872 0-.52-.23281-.52-.52s.2328-.52.52-.52.52.23281.52.52-.2328.52-.52.52z" fill="#c62ea4"/><path d="m10.51 27.2188c-3.135 0-3.25219-2.0782-4.29125-2.0782-.63281 0-.82125.4931-1.125.7969-.44.44-1.27498.3426-1.71498-.0974s-.46112-1.0401-.06626-1.5901c.4375-.6094 1.0703-1.6406 3.09374-1.6406 2.0625 0 2.39294 2.0755 4.01565 2.1094.9375 0 1.1859-.8344 1.9062-1.5547.44-.44 1.6119-.3341 2.0519.1059s.44 1.15 0 1.59l-1.02 1.02c-.77.76-1.78 1.3388-2.85 1.3388z" fill="url(#s)"/><path d="m21.5076 27.2188c3.135 0 3.2522-2.0782 4.2912-2.0782.6328 0 .8213.4931 1.125.7969.44.44 1.275.3426 1.715-.0974s.4611-1.0401.0663-1.5901c-.4375-.6094-1.0703-1.6406-3.0938-1.6406-2.0625 0-2.3929 2.0755-4.0156 2.1094-.9375 0-1.1859-.8344-1.9062-1.5547-.44-.44-1.6119-.3341-2.0519.1059s-.44 1.15 0 1.59l1.02 1.02c.77.76 1.78 1.3388 2.85 1.3388z" fill="url(#t)"/><g filter="url(#a)"><path d="m28.0014 25.2014c-.2708-.4896-1.0625-1.3594-2.1875-1.2344-1.4062.1562-2.0156 1.9062-3.9844 1.9062-1.575 0-2.3541-.9582-2.6875-1.4687" stroke="url(#v)" stroke-linecap="round"/></g><path d="m5.13279 30.0001h7.44721c1.5 0 2.8815-1.0032 3.2715-2.4532l.1626-.8018.0001-2.7901c0-1.4003-1.2416-1.9773-1.6142-.58l-.9703 3.5703c-.12.46-.3797.6719-.8597.6719h-7.43721c-.62 0-1.12.6329-1.12 1.2529s.5 1.13 1.12 1.13z" fill="url(#x)"/><path d="m26.8814 30.0001h-7.4472c-1.5 0-2.8815-1.0032-3.2715-2.4532l-.1627-.8018v-2.7901c0-1.4003 1.2416-1.9773 1.6142-.58l.9703 3.5703c.12.46.3797.6719.8597.6719h7.4372c.62 0 1.12.6329 1.12 1.2529s-.5 1.13-1.12 1.13z" fill="#c01a8d"/><g filter="url(#b)"><path d="m5.21875 12.2188v4.5c0 .625.96875 2.3124 2.07813 2.7031l4.32812 1.6406" stroke="url(#z)" stroke-linecap="round"/></g><g filter="url(#c)" stroke-linecap="round"><path d="m5.40625 28.875h7.65625c.4375-.0625 1.3705.1562 1.75-.9062.25-.7.3542-2.3542.4375-2.6876" stroke="url(#A)"/><path d="m5.40625 28.875h7.65625c.4375-.0625 1.3705.1562 1.75-.9062.25-.7.3542-2.3542.4375-2.6876" stroke="url(#B)"/></g><g filter="url(#d)"><path d="m27.303 12.2188v4.5c0 .625-.9688 2.3124-2.0781 2.7031l-4.3282 1.6406" stroke="url(#C)" stroke-linecap="round"/></g><path d="m26.8814 30.0001h-7.4472c-1.5 0-2.8815-1.0032-3.2715-2.4532l-.1627-.8018v-2.7901c0-1.4003 1.2416-1.9773 1.6142-.58l.9703 3.5703c.12.46.3797.6719.8597.6719h7.4372c.62 0 1.12.6329 1.12 1.2529s-.5 1.13-1.12 1.13z" fill="url(#D)"/><g filter="url(#e)" stroke-linecap="round"><path d="m26.875 28.6875h-7.2188c-.4374 0-1.4196 0-1.6874-.75-.2679-.75-.5779-2.3229-.6612-2.6563" stroke="url(#E)"/><path d="m26.875 28.6875h-7.2188c-.4374 0-1.4196 0-1.6874-.75-.2679-.75-.5779-2.3229-.6612-2.6563" stroke="url(#F)"/></g><g filter="url(#f)"><path d="m4.20312 25.4531c.27084-.4896 1.0625-1.3594 2.1875-1.2344 1.40626.1562 2.01563 1.9063 3.98438 1.9063 1.575 0 2.3542-.9583 2.6875-1.4688" stroke="url(#G)" stroke-linecap="round"/></g><path d="m18.25 25h-4.4609c-1.3802 0-2.7813-1.12-2.7813-2.5v-2.2h9.961v2.2c0 1.38-1.3985 2.5-2.7188 2.5z" fill="url(#H)"/><path d="m18.25 25h-4.4609c-1.3802 0-2.7813-1.12-2.7813-2.5v-2.2h9.961v2.2c0 1.38-1.3985 2.5-2.7188 2.5z" fill="url(#I)"/><path d="m18.25 25h-4.4609c-1.3802 0-2.7813-1.12-2.7813-2.5v-2.2h9.961v2.2c0 1.38-1.3985 2.5-2.7188 2.5z" fill="url(#J)"/><path d="m18.25 25h-4.4609c-1.3802 0-2.7813-1.12-2.7813-2.5v-2.2h9.961v2.2c0 1.38-1.3985 2.5-2.7188 2.5z" fill="url(#K)"/><path d="m22.5694 8.08386-4.56-5.05c-1.1-1.1-2.88-1.1-3.97 0l-4.55004 5.05c-.61.61-.61 1.6 0 2.21004l5.44004 4.9c.61.61 1.6.61 2.21 0l5.44-4.9c.6-.62004.6-1.60004-.01-2.21004z" fill="url(#L)"/><g filter="url(#g)"><path d="m22.1635 8.13633-4.277-4.73656c-1.0317-1.03172-2.7012-1.03172-3.7236 0l-4.26758 4.73656c-.57214.57214-.57214 1.50069 0 2.07287l5.10238 4.5958c.5721.5722 1.5007.5722 2.0728 0l5.1024-4.5958c.5627-.58156.5627-1.50073-.0094-2.07287z" fill="url(#M)"/><path d="m22.1635 8.13633-4.277-4.73656c-1.0317-1.03172-2.7012-1.03172-3.7236 0l-4.26758 4.73656c-.57214.57214-.57214 1.50069 0 2.07287l5.10238 4.5958c.5721.5722 1.5007.5722 2.0728 0l5.1024-4.5958c.5627-.58156.5627-1.50073-.0094-2.07287z" fill="url(#N)"/></g><path d="m15.9864 2c-1.2009 0-2.2618.76-2.6521 1.89 0 0-4.3968 11.4225-4.3968 12.86s.26773 1.5865 1.2187 2.7969c.6876.875.8907 1.0625.8907 1.0625h9.9297s.2109-.1563.7845-.8794c.9763-1.2308 1.3014-1.7456 1.3014-2.98s-4.4139-12.86-4.4139-12.86c-.4003-1.13-1.4612-1.89-2.6622-1.89z" fill="url(#O)"/><path d="m15.9864 2c-1.2009 0-2.2618.76-2.6521 1.89 0 0-4.3968 11.4225-4.3968 12.86s.26773 1.5865 1.2187 2.7969c.6876.875.8907 1.0625.8907 1.0625h9.9297s.2109-.1563.7845-.8794c.9763-1.2308 1.3014-1.7456 1.3014-2.98s-4.4139-12.86-4.4139-12.86c-.4003-1.13-1.4612-1.89-2.6622-1.89z" fill="url(#P)"/><path d="m15.9864 2c-1.2009 0-2.2618.76-2.6521 1.89 0 0-4.3968 11.4225-4.3968 12.86s.26773 1.5865 1.2187 2.7969c.6876.875.8907 1.0625.8907 1.0625h9.9297s.2109-.1563.7845-.8794c.9763-1.2308 1.3014-1.7456 1.3014-2.98s-4.4139-12.86-4.4139-12.86c-.4003-1.13-1.4612-1.89-2.6622-1.89z" fill="url(#Q)"/><path d="m15.9864 2c-1.2009 0-2.2618.76-2.6521 1.89 0 0-4.3968 11.4225-4.3968 12.86s.26773 1.5865 1.2187 2.7969c.6876.875.8907 1.0625.8907 1.0625h9.9297s.2109-.1563.7845-.8794c.9763-1.2308 1.3014-1.7456 1.3014-2.98s-4.4139-12.86-4.4139-12.86c-.4003-1.13-1.4612-1.89-2.6622-1.89z" fill="url(#R)"/><path d="m15.9864 2c-1.2009 0-2.2618.76-2.6521 1.89 0 0-4.3968 11.4225-4.3968 12.86s.26773 1.5865 1.2187 2.7969c.6876.875.8907 1.0625.8907 1.0625h9.9297s.2109-.1563.7845-.8794c.9763-1.2308 1.3014-1.7456 1.3014-2.98s-4.4139-12.86-4.4139-12.86c-.4003-1.13-1.4612-1.89-2.6622-1.89z" fill="url(#S)"/><path d="m15.9864 2c-1.2009 0-2.2618.76-2.6521 1.89 0 0-4.3968 11.4225-4.3968 12.86s.26773 1.5865 1.2187 2.7969c.6876.875.8907 1.0625.8907 1.0625h9.9297s.2109-.1563.7845-.8794c.9763-1.2308 1.3014-1.7456 1.3014-2.98s-4.4139-12.86-4.4139-12.86c-.4003-1.13-1.4612-1.89-2.6622-1.89z" fill="url(#T)"/><path d="m17.9441 13.725c.6185 0 1.12-.5015 1.12-1.12 0-.6186-.5015-1.12-1.12-1.12-.6186 0-1.12.5014-1.12 1.12 0 .6185.5014 1.12 1.12 1.12z" fill="url(#U)"/><path d="m14.9597 12.6562c.4142 0 .75-.3357.75-.75 0-.4142-.3358-.75-.75-.75s-.75.3358-.75.75c0 .4143.3358.75.75.75z" fill="url(#V)"/><path d="m15.0496 16.1138c.6112 0 1.1066-.4955 1.1066-1.1066 0-.6112-.4954-1.1067-1.1066-1.1067s-1.1066.4955-1.1066 1.1067c0 .6111.4954 1.1066 1.1066 1.1066z" fill="url(#W)"/><path d="m13.5197 23.4938c.4142 0 .75-.3358.75-.75s-.3358-.75-.75-.75-.75.3358-.75.75.3358.75.75.75z" fill="url(#Y)"/><path d="m18.4482 23.4938c.4142 0 .75-.3358.75-.75s-.3358-.75-.75-.75-.75.3358-.75.75.3358.75.75.75z" fill="url(#Z)"/><g filter="url(#h)"><ellipse cx="27.1884" cy="28.5316" fill="#ee71c8" rx=".56632" ry=".375" transform="matrix(.68480915 .72872246 -.72872246 .68480915 29.361153 -10.819899)"/></g><g filter="url(#i)"><path d="m28.4531 25.125c-.1509.1418-.4733-.3971-.6875-.625s-.8853-.9519-.7343-1.0937c.1509-.1418.9264.5377 1.1406.7657.2142.2279.4322.8112.2812.953z" fill="#ee71c8"/></g></svg>