<svg fill="none" height="32" viewBox="0 0 32 32" width="32" xmlns="http://www.w3.org/2000/svg" xmlns:xlink="http://www.w3.org/1999/xlink"><filter id="a" color-interpolation-filters="sRGB" filterUnits="userSpaceOnUse" height="23.3065" width="16.1382" x="5.65771" y="6.66455"><feFlood flood-opacity="0" result="BackgroundImageFix"/><feBlend in="SourceGraphic" in2="BackgroundImageFix" mode="normal" result="shape"/><feColorMatrix in="SourceAlpha" result="hardAlpha" type="matrix" values="0 0 0 0 0 0 0 0 0 0 0 0 0 0 0 0 0 0 127 0"/><feOffset dx=".15" dy="-.25"/><feGaussianBlur stdDeviation=".25"/><feComposite in2="hardAlpha" k2="-1" k3="1" operator="arithmetic"/><feColorMatrix type="matrix" values="0 0 0 0 0.384314 0 0 0 0 0.266667 0 0 0 0 0.313726 0 0 0 1 0"/><feBlend in2="shape" mode="normal" result="effect1_innerShadow_20020_3488"/></filter><filter id="b" color-interpolation-filters="sRGB" filterUnits="userSpaceOnUse" height="6.74487" width="4.96973" x="7.43448" y="13.944"><feFlood flood-opacity="0" result="BackgroundImageFix"/><feBlend in="SourceGraphic" in2="BackgroundImageFix" mode="normal" result="shape"/><feGaussianBlur result="effect1_foregroundBlur_20020_3488" stdDeviation=".375"/></filter><filter id="c" color-interpolation-filters="sRGB" filterUnits="userSpaceOnUse" height="6.19495" width="4.69421" x="8.96288" y="10.4197"><feFlood flood-opacity="0" result="BackgroundImageFix"/><feBlend in="SourceGraphic" in2="BackgroundImageFix" mode="normal" result="shape"/><feGaussianBlur result="effect1_foregroundBlur_20020_3488" stdDeviation=".375"/></filter><filter id="d" color-interpolation-filters="sRGB" filterUnits="userSpaceOnUse" height="7.48071" width="5.51726" x="10.8932" y="7.14734"><feFlood flood-opacity="0" result="BackgroundImageFix"/><feBlend in="SourceGraphic" in2="BackgroundImageFix" mode="normal" result="shape"/><feGaussianBlur result="effect1_foregroundBlur_20020_3488" stdDeviation=".375"/></filter><filter id="e" color-interpolation-filters="sRGB" filterUnits="userSpaceOnUse" height="3.25" width="2.66244" x="6.99581" y="1.97031"><feFlood flood-opacity="0" result="BackgroundImageFix"/><feBlend in="SourceGraphic" in2="BackgroundImageFix" mode="normal" result="shape"/><feColorMatrix in="SourceAlpha" result="hardAlpha" type="matrix" values="0 0 0 0 0 0 0 0 0 0 0 0 0 0 0 0 0 0 127 0"/><feOffset dx="-.15" dy=".15"/><feGaussianBlur stdDeviation=".15"/><feComposite in2="hardAlpha" k2="-1" k3="1" operator="arithmetic"/><feColorMatrix type="matrix" values="0 0 0 0 0.109804 0 0 0 0 0.580392 0 0 0 0 0.905882 0 0 0 1 0"/><feBlend in2="shape" mode="normal" result="effect1_innerShadow_20020_3488"/><feColorMatrix in="SourceAlpha" result="hardAlpha" type="matrix" values="0 0 0 0 0 0 0 0 0 0 0 0 0 0 0 0 0 0 127 0"/><feOffset dx=".25" dy="-.1"/><feGaussianBlur stdDeviation=".2"/><feComposite in2="hardAlpha" k2="-1" k3="1" operator="arithmetic"/><feColorMatrix type="matrix" values="0 0 0 0 0.0862745 0 0 0 0 0.317647 0 0 0 0 0.654902 0 0 0 1 0"/><feBlend in2="effect1_innerShadow_20020_3488" mode="normal" result="effect2_innerShadow_20020_3488"/></filter><filter id="f" color-interpolation-filters="sRGB" filterUnits="userSpaceOnUse" height="2.85776" width="3.15835" x="3.81146" y="3.83789"><feFlood flood-opacity="0" result="BackgroundImageFix"/><feBlend in="SourceGraphic" in2="BackgroundImageFix" mode="normal" result="shape"/><feColorMatrix in="SourceAlpha" result="hardAlpha" type="matrix" values="0 0 0 0 0 0 0 0 0 0 0 0 0 0 0 0 0 0 127 0"/><feOffset dx="-.15" dy=".15"/><feGaussianBlur stdDeviation=".15"/><feComposite in2="hardAlpha" k2="-1" k3="1" operator="arithmetic"/><feColorMatrix type="matrix" values="0 0 0 0 0.113725 0 0 0 0 0.568627 0 0 0 0 0.898039 0 0 0 1 0"/><feBlend in2="shape" mode="normal" result="effect1_innerShadow_20020_3488"/><feColorMatrix in="SourceAlpha" result="hardAlpha" type="matrix" values="0 0 0 0 0 0 0 0 0 0 0 0 0 0 0 0 0 0 127 0"/><feOffset dx=".25"/><feGaussianBlur stdDeviation=".2"/><feComposite in2="hardAlpha" k2="-1" k3="1" operator="arithmetic"/><feColorMatrix type="matrix" values="0 0 0 0 0.0784314 0 0 0 0 0.341176 0 0 0 0 0.588235 0 0 0 1 0"/><feBlend in2="effect1_innerShadow_20020_3488" mode="normal" result="effect2_innerShadow_20020_3488"/></filter><filter id="g" color-interpolation-filters="sRGB" filterUnits="userSpaceOnUse" height="2.51292" width="3.4" x="2.31146" y="7.21594"><feFlood flood-opacity="0" result="BackgroundImageFix"/><feBlend in="SourceGraphic" in2="BackgroundImageFix" mode="normal" result="shape"/><feColorMatrix in="SourceAlpha" result="hardAlpha" type="matrix" values="0 0 0 0 0 0 0 0 0 0 0 0 0 0 0 0 0 0 127 0"/><feOffset dx="-.15" dy=".15"/><feGaussianBlur stdDeviation=".15"/><feComposite in2="hardAlpha" k2="-1" k3="1" operator="arithmetic"/><feColorMatrix type="matrix" values="0 0 0 0 0.113725 0 0 0 0 0.556863 0 0 0 0 0.87451 0 0 0 1 0"/><feBlend in2="shape" mode="normal" result="effect1_innerShadow_20020_3488"/><feColorMatrix in="SourceAlpha" result="hardAlpha" type="matrix" values="0 0 0 0 0 0 0 0 0 0 0 0 0 0 0 0 0 0 127 0"/><feOffset dx=".25"/><feGaussianBlur stdDeviation=".2"/><feComposite in2="hardAlpha" k2="-1" k3="1" operator="arithmetic"/><feColorMatrix type="matrix" values="0 0 0 0 0.0941176 0 0 0 0 0.301961 0 0 0 0 0.603922 0 0 0 1 0"/><feBlend in2="effect1_innerShadow_20020_3488" mode="normal" result="effect2_innerShadow_20020_3488"/></filter><filter id="h" color-interpolation-filters="sRGB" filterUnits="userSpaceOnUse" height="24.355" width="19.7218" x="11.1722" y="5.58508"><feFlood flood-opacity="0" result="BackgroundImageFix"/><feBlend in="SourceGraphic" in2="BackgroundImageFix" mode="normal" result="shape"/><feColorMatrix in="SourceAlpha" result="hardAlpha" type="matrix" values="0 0 0 0 0 0 0 0 0 0 0 0 0 0 0 0 0 0 127 0"/><feOffset dx=".5" dy="-1"/><feGaussianBlur stdDeviation="1"/><feComposite in2="hardAlpha" k2="-1" k3="1" operator="arithmetic"/><feColorMatrix type="matrix" values="0 0 0 0 0.482353 0 0 0 0 0.25098 0 0 0 0 0.384314 0 0 0 1 0"/><feBlend in2="shape" mode="normal" result="effect1_innerShadow_20020_3488"/><feColorMatrix in="SourceAlpha" result="hardAlpha" type="matrix" values="0 0 0 0 0 0 0 0 0 0 0 0 0 0 0 0 0 0 127 0"/><feOffset dx=".15" dy="-.25"/><feGaussianBlur stdDeviation=".2"/><feComposite in2="hardAlpha" k2="-1" k3="1" operator="arithmetic"/><feColorMatrix type="matrix" values="0 0 0 0 0.501961 0 0 0 0 0.290196 0 0 0 0 0.466667 0 0 0 1 0"/><feBlend in2="effect1_innerShadow_20020_3488" mode="normal" result="effect2_innerShadow_20020_3488"/></filter><filter id="i" color-interpolation-filters="sRGB" filterUnits="userSpaceOnUse" height="22.6885" width="18.9289" x="12.1624" y="6.854"><feFlood flood-opacity="0" result="BackgroundImageFix"/><feBlend in="SourceGraphic" in2="BackgroundImageFix" mode="normal" result="shape"/><feGaussianBlur result="effect1_foregroundBlur_20020_3488" stdDeviation="1"/></filter><filter id="j" color-interpolation-filters="sRGB" filterUnits="userSpaceOnUse" height="8.88806" width="7.18745" x="11.9896" y="14.1249"><feFlood flood-opacity="0" result="BackgroundImageFix"/><feBlend in="SourceGraphic" in2="BackgroundImageFix" mode="normal" result="shape"/><feGaussianBlur result="effect1_foregroundBlur_20020_3488" stdDeviation=".625"/></filter><filter id="k" color-interpolation-filters="sRGB" filterUnits="userSpaceOnUse" height="11.125" width="8.75389" x="13.6771" y="9.71863"><feFlood flood-opacity="0" result="BackgroundImageFix"/><feBlend in="SourceGraphic" in2="BackgroundImageFix" mode="normal" result="shape"/><feGaussianBlur result="effect1_foregroundBlur_20020_3488" stdDeviation=".625"/></filter><filter id="l" color-interpolation-filters="sRGB" filterUnits="userSpaceOnUse" height="12.363" width="9.31152" x="15.7708" y="6.52234"><feFlood flood-opacity="0" result="BackgroundImageFix"/><feBlend in="SourceGraphic" in2="BackgroundImageFix" mode="normal" result="shape"/><feGaussianBlur result="effect1_foregroundBlur_20020_3488" stdDeviation=".625"/></filter><filter id="m" color-interpolation-filters="sRGB" filterUnits="userSpaceOnUse" height="10.9482" width="7.87929" x="19.5833" y="6.24988"><feFlood flood-opacity="0" result="BackgroundImageFix"/><feBlend in="SourceGraphic" in2="BackgroundImageFix" mode="normal" result="shape"/><feGaussianBlur result="effect1_foregroundBlur_20020_3488" stdDeviation=".625"/></filter><filter id="n" color-interpolation-filters="sRGB" filterUnits="userSpaceOnUse" height="12.4518" width="3.93355" x="26.572" y="10.7118"><feFlood flood-opacity="0" result="BackgroundImageFix"/><feBlend in="SourceGraphic" in2="BackgroundImageFix" mode="normal" result="shape"/><feGaussianBlur result="effect1_foregroundBlur_20020_3488" stdDeviation=".625"/></filter><radialGradient id="o" cx="0" cy="0" gradientTransform="matrix(-1.46517722 -21.55686478 14.9483118 -1.01600702 16.9257 27.6961)" gradientUnits="userSpaceOnUse" r="1"><stop offset="0" stop-color="#532a47"/><stop offset="1" stop-color="#5c433a"/></radialGradient><radialGradient id="p" cx="0" cy="0" gradientTransform="matrix(-7.68860964 -6.09785072 3.14876473 -3.97018949 19.3245 24.5407)" gradientUnits="userSpaceOnUse" r="1"><stop offset="0" stop-color="#3b1f26"/><stop offset="1" stop-color="#3b1f26" stop-opacity="0"/></radialGradient><linearGradient id="q"><stop offset="0" stop-color="#3b241d"/><stop offset="1" stop-color="#110808" stop-opacity="0"/></linearGradient><radialGradient id="r" cx="0" cy="0" gradientTransform="matrix(2.43964563 3.9182198 -1.5223609 .94788483 9.86157 16.6673)" gradientUnits="userSpaceOnUse" r="1" xlink:href="#q"/><radialGradient id="s" cx="0" cy="0" gradientTransform="matrix(2.99411528 4.76840553 -1.656051 1.03984604 11.451 13.2296)" gradientUnits="userSpaceOnUse" r="1" xlink:href="#q"/><radialGradient id="t" cx="0" cy="0" gradientTransform="matrix(3.94050711 6.40475203 -3.28048212 2.01830814 13.761 10.9747)" gradientUnits="userSpaceOnUse" r="1" xlink:href="#q"/><linearGradient id="u" gradientUnits="userSpaceOnUse" x1="11.28" x2="7.18618" y1="19.5826" y2="15.1414"><stop offset="0" stop-color="#68504f"/><stop offset="1" stop-color="#68504f" stop-opacity="0"/></linearGradient><linearGradient id="v" gradientUnits="userSpaceOnUse" x1="10.213" x2="16.1064" y1="12.0098" y2="18.1702"><stop offset="0" stop-color="#6c5952"/><stop offset="1" stop-color="#6c5952" stop-opacity="0"/></linearGradient><linearGradient id="w" gradientUnits="userSpaceOnUse" x1="12.9296" x2="19.2544" y1="7.72196" y2="14.5004"><stop offset="0" stop-color="#76625b"/><stop offset="1" stop-color="#76625b" stop-opacity="0"/></linearGradient><radialGradient id="x" cx="0" cy="0" gradientTransform="matrix(0 14.9047 -12.2669 0 20.7831 15.0354)" gradientUnits="userSpaceOnUse" r="1"><stop offset="0" stop-color="#81554a"/><stop offset="1" stop-color="#976961"/></radialGradient><radialGradient id="y" cx="0" cy="0" gradientTransform="matrix(-2.50645974 16.4442777 -17.8337303 -2.71824204 23.9844 17.2427)" gradientUnits="userSpaceOnUse" r="1"><stop offset="0" stop-color="#a47f74"/><stop offset="1" stop-color="#a47f74" stop-opacity="0"/></radialGradient><linearGradient id="z"><stop offset="0" stop-color="#73564a"/><stop offset="1" stop-color="#73564a" stop-opacity="0"/></linearGradient><radialGradient id="A" cx="0" cy="0" gradientTransform="matrix(-.48236747 2.16901029 -2.50768631 -.55768583 13.2197 15.0782)" gradientUnits="userSpaceOnUse" r="1" xlink:href="#z"/><linearGradient id="B"><stop offset="0" stop-color="#643a2e"/><stop offset="1" stop-color="#643a2e" stop-opacity="0"/></linearGradient><radialGradient id="C" cx="0" cy="0" gradientTransform="matrix(3.10801247 5.09184173 -1.81221749 1.10616058 14.1022 15.1154)" gradientUnits="userSpaceOnUse" r="1" xlink:href="#B"/><radialGradient id="D" cx="0" cy="0" gradientTransform="matrix(1.12417256 3.30639617 -5.29054821 1.79878297 14.2676 8.86628)" gradientUnits="userSpaceOnUse" r="1" xlink:href="#z"/><radialGradient id="E" cx="0" cy="0" gradientTransform="matrix(4.04254989 5.90441522 -2.09988727 1.43772054 16.1434 11.79)" gradientUnits="userSpaceOnUse" r="1" xlink:href="#B"/><radialGradient id="F" cx="0" cy="0" gradientTransform="matrix(.82148711 3.91370412 -6.27312849 1.31673065 16.6151 4.9317)" gradientUnits="userSpaceOnUse" r="1" xlink:href="#z"/><radialGradient id="G" cx="0" cy="0" gradientTransform="matrix(3.62463523 6.34827574 -2.17110323 1.23962121 20.0537 11.2138)" gradientUnits="userSpaceOnUse" r="1" xlink:href="#B"/><radialGradient id="H" cx="0" cy="0" gradientTransform="matrix(2.94268863 2.64511105 -3.87619202 4.31226741 18.9296 6.28725)" gradientUnits="userSpaceOnUse" r="1" xlink:href="#z"/><radialGradient id="I" cx="0" cy="0" gradientTransform="matrix(.09919267 -6.2080376 2.80932141 .04488763 25.5424 14.5784)" gradientUnits="userSpaceOnUse" r="1"><stop offset=".150595" stop-color="#5c382b"/><stop offset="1" stop-color="#7f594c" stop-opacity="0"/></radialGradient><linearGradient id="J" gradientUnits="userSpaceOnUse" x1="28.5387" x2="28.5387" y1="12.5868" y2="21.2885"><stop offset="0" stop-color="#a37e73"/><stop offset="1" stop-color="#a37e73" stop-opacity="0"/></linearGradient><g filter="url(#a)"><path d="m13.761 8.8854c.0187-.68039.3802-1.3347 1.0118-1.69933.9483-.54753 2.1602-.24174 2.7352.69019l3.8083 6.17194c.6494 1.0526.2961 2.4339-.779 3.0453-1.0546.5998-2.3959.2251-2.987-.8344l-.2602-.4663c-.1308.609-.5103 1.1629-1.0965 1.4964-.4658.2651-.9857.3472-1.4765.2693l.0309.0535c.3305.5725.3654 1.2356.1507 1.8113l6.7472 9.6548c-.7812.4687-2.8672 1.3593-5.8047.5937-2.7109-.875-4.0547-2.4219-4.9922-4.0156l-4.90173-8.3663c-.59226-1.014-.2468-2.3163.77017-2.9034.37799-.2183.79529-.3068 1.20032-.2794l-.3805-.683c-.55185-.9905-.2066-2.2406.77536-2.8075.44236-.2554.93964-.3295 1.40577-.2452l-.07724-.1387c-.56028-1.00567-.20975-2.27489.78725-2.85052.9863-.56944 2.2466-.25221 2.8458.71632z" fill="url(#o)"/><path d="m13.761 8.8854c.0187-.68039.3802-1.3347 1.0118-1.69933.9483-.54753 2.1602-.24174 2.7352.69019l3.8083 6.17194c.6494 1.0526.2961 2.4339-.779 3.0453-1.0546.5998-2.3959.2251-2.987-.8344l-.2602-.4663c-.1308.609-.5103 1.1629-1.0965 1.4964-.4658.2651-.9857.3472-1.4765.2693l.0309.0535c.3305.5725.3654 1.2356.1507 1.8113l6.7472 9.6548c-.7812.4687-2.8672 1.3593-5.8047.5937-2.7109-.875-4.0547-2.4219-4.9922-4.0156l-4.90173-8.3663c-.59226-1.014-.2468-2.3163.77017-2.9034.37799-.2183.79529-.3068 1.20032-.2794l-.3805-.683c-.55185-.9905-.2066-2.2406.77536-2.8075.44236-.2554.93964-.3295 1.40577-.2452l-.07724-.1387c-.56028-1.00567-.20975-2.27489.78725-2.85052.9863-.56944 2.2466-.25221 2.8458.71632z" fill="url(#p)"/></g><path d="m8.31263 10.6167c-.98196.5669-1.32721 1.817-.77536 2.8075l.3805.683c.68084.046 1.32705.4195 1.69387 1.0548l3.25976 5.6462c.385.006.7767-.0922 1.1316-.3062.9942-.5995 1.3255-1.8845.745-2.8899l-3.6002-6.2357c-.5731-.9927-1.84246-1.3329-2.83517-.7597z" fill="url(#r)"/><path d="m10.4284 7.38223c-.99701.57563-1.34754 1.84485-.78727 2.85057l.07724.1386c.57993.1048 1.11173.4546 1.42943 1.0049l3.5693 6.1823c.4908.0778 1.0106-.0042 1.4765-.2693 1.1177-.636 1.4841-2.0727.8075-3.1663l-3.7269-6.02445c-.5992-.96853-1.8595-1.28576-2.8458-.71632z" fill="url(#s)"/><path d="m13.761 8.8854 3.2401 5.2376c.3217.52.4076 1.1176.289 1.6698l.2602.4663c.5911 1.0595 1.9324 1.4342 2.987.8344 1.0751-.6114 1.4284-1.9927.779-3.0453l-3.8083-6.17194c-.575-.93193-1.7869-1.23772-2.7352-.69019-.6316.36463-.9931 1.01894-1.0118 1.69933z" fill="url(#t)"/><g filter="url(#b)"><path d="m8.68455 15.1941 2.46955 4.2447" stroke="url(#u)" stroke-linecap="round"/></g><g filter="url(#c)"><path d="m10.213 11.6698 2.194 3.6948" stroke="url(#v)" stroke-linecap="round"/></g><g filter="url(#d)"><path d="m12.1432 8.39746 3.0172 4.98054" stroke="url(#w)" stroke-linecap="round"/></g><g filter="url(#e)"><path d="m8.45731 4.88738-1.22-1.65155c-.19-.25806-.07-.62967.23-.72257l1.36-.4232c.3-.0929.6.15482.58.47481l-.14 2.07479c-.04.42321-.56.58836-.81.24772z" fill="#187ec9"/></g><g filter="url(#f)"><path d="m6.09731 6.50941-1.86-.78c-.29-.12-.37-.49-.15-.72l.96999-1.03c.21-.23.59-.17.73.11l.89001 1.81c.17.37-.2.77-.58.61z" fill="#1a78c3"/></g><g filter="url(#g)"><path d="m5.05273 9.30513-2.07149.26979c-.32108.04151-.58001-.24904-.50751-.57072l.34179-1.43197c.07251-.3113.44538-.45656.71467-.28015l1.72969 1.16217c.35215.24904.21751.799-.20715.85088z" fill="#1c75c1"/></g><g filter="url(#h)"><path d="m20.4291 29.2687c.8973.4303 1.9026.6714 2.9642.6714 2.765 0 5.148-1.6353 6.2346-3.9916l.018.0046c.9548-1.9599.7783-3.6066.6318-4.9726-.0357-.333-.0696-.6492-.0849-.9493-.0463-.9068-.0383-2.4459-.0205-3.6048.0015-.0199.0027-.0398.0037-.0598l.1564-3.2451c.058-1.2042-.8711-2.2275-2.0753-2.2855-1.2043-.058-2.2275.8711-2.2856 2.0753l-.0092.1921-2.8463-5.39275c-.5445-1.03146-1.8242-1.42511-2.8556-.8807-.5484.28943-.9174.7864-1.0611 1.34342l-.2648-.42973c-.612-.99288-1.9151-1.30037-2.9079-.68842-.9929.61194-1.3039 1.91423-.6919 2.90711l.0841.13647c-.4821-.082-.9948.0042-1.4438.2809-.981.6047-1.2861 1.8901-.6815 2.8711l.5266.8545c-.5388-.1413-1.1322-.0704-1.6438.2449-.9929.6119-1.3017 1.9129-.6898 2.9058l5.3776 8.7251c1.1099 1.7533 2.5284 2.7903 3.565 3.2876z" fill="url(#x)"/></g><g filter="url(#i)"><path d="m18.6334 24.5087-4.347-7.3686c-.2378-.4031-.1243-.9213.2602-1.1881.4089-.2837.9707-.1788 1.2495.2334l2.4569 3.6314c.209.3088.6306.3863.9357.1719.2914-.2047.3705-.6022.1797-.9029l-3.8299-6.0358c-.2399-.378-.152-.8765.2027-1.1497.4099-.3158 1.0035-.2038 1.2702.2396l3.7325 6.2049c.1818.3024.5774.395.8746.2049.2821-.1805.3725-.5508.2052-.8409l-4.2792-7.4207c-.2762-.4791-.0897-1.09193.4066-1.33587.45-.22121.9945-.05716 1.2474.37584l4.4051 7.54093c.1594.2728.5145.3569.7793.1846.2423-.1577.3223-.4754.1836-.729l-2.8787-5.264c-.2413-.4412-.078-.9945.3643-1.23382.4348-.23539.9781-.07938 1.2218.35092l3.3354 5.8882c.0037-.124.0756-.7507.1731-1.1528.3294-1.3589.7743-1.89 1.2576-1.89.5016 0 1.0916.2137.9304 1.7883-.3198 3.1258-.0581 5.2921 0 5.6992.0582.4071.9529 4.7621-3.1761 6.594-3.3033 1.4655-6.2401-1.0935-7.1609-2.5959z" fill="url(#y)"/></g><rect fill="url(#A)" height="14.5754" rx="2.1118" transform="matrix(.85129774 -.52468292 .52468292 .85129774 -6.5674 7.744106)" width="4.22359" x="10.3785" y="15.4583"/><path d="m13.975 10.3798c-.981.6046-1.2862 1.8901-.6815 2.8711l.5266.8544c.5068.1329.9653.4534 1.262.9347l4.887 7.9291c.5297.1362 1.112.0651 1.6144-.2445.981-.6047 1.2862-1.8901.6815-2.8711l-5.4189-8.7922c-.6047-.981-1.8901-1.28615-2.8711-.6815z" fill="url(#C)"/><path d="m13.975 10.3798c-.981.6046-1.2862 1.8901-.6815 2.8711l.5266.8544c.5068.1329.9653.4534 1.262.9347l4.887 7.9291c.5297.1362 1.112.0651 1.6144-.2445.981-.6047 1.2862-1.8901.6815-2.8711l-5.4189-8.7922c-.6047-.981-1.8901-1.28615-2.8711-.6815z" fill="url(#D)"/><path d="m16.0266 7.05529c-.9929.61195-1.3038 1.91424-.6919 2.90712l.0841.13649c.5713.0971 1.0994.4304 1.4273.9624l5.3136 8.6214c.4922.0865 1.0169 0 1.4754-.2826.9929-.612 1.3038-1.9143.6919-2.9071l-5.3925-8.74928c-.612-.99288-1.9151-1.30037-2.9079-.68843z" fill="url(#E)"/><path d="m16.0266 7.05529c-.9929.61195-1.3038 1.91424-.6919 2.90712l.0841.13649c.5713.0971 1.0994.4304 1.4273.9624l5.3136 8.6214c.4922.0865 1.0169 0 1.4754-.2826.9929-.612 1.3038-1.9143.6919-2.9071l-5.3925-8.74928c-.612-.99288-1.9151-1.30037-2.9079-.68843z" fill="url(#F)"/><path d="m19.1993 8.17339 5.1277 8.31951c.4669.7576.3965 1.6953-.1041 2.369.5692.9653 1.8048 1.3211 2.8063.7925 1.0315-.5444 1.4285-1.8231.8841-2.8546l-4.7973-9.08915c-.5445-1.03146-1.8242-1.42511-2.8556-.8807-.5484.28943-.9175.78641-1.0611 1.34344z" fill="url(#G)"/><path d="m19.1993 8.17339 5.1277 8.31951c.4669.7576.3965 1.6953-.1041 2.369.5692.9653 1.8048 1.3211 2.8063.7925 1.0315-.5444 1.4285-1.8231.8841-2.8546l-4.7973-9.08915c-.5445-1.03146-1.8242-1.42511-2.8556-.8807-.5484.28943-.9175.78641-1.0611 1.34344z" fill="url(#H)"/><path d="m28.7146 18.3233-2.7524-5.2175.0093-.1944c.0581-1.2042 1.0814-2.1334 2.2855-2.0753 1.2043.058 2.1334 1.0813 2.0754 2.2855l-.1564 3.245c-.0442.9155-.6461 1.672-1.4614 1.9567z" fill="url(#I)"/><g filter="url(#j)"><path d="m13.8647 16 3.4373 5.1379" stroke="#a37e73" stroke-linecap="round" stroke-width="1.25"/></g><g filter="url(#k)"><path d="m15.5522 11.5938 5.0037 7.3748" stroke="#a37e73" stroke-linecap="round" stroke-width="1.25"/></g><g filter="url(#l)"><path d="m17.6459 8.39746 5.5614 8.61284" stroke="#a37e73" stroke-linecap="round" stroke-width="1.25"/></g><g filter="url(#m)"><path d="m21.4584 8.125 4.1291 7.198" stroke="#a37e73" stroke-linecap="round" stroke-width="1.25"/></g><g filter="url(#n)"><path d="m28.6305 12.5868c-.3105 2.7331-.1688 6.3396 0 8.7017" stroke="url(#J)" stroke-linecap="round" stroke-width="1.25"/></g></svg>