<svg fill="none" height="32" viewBox="0 0 32 32" width="32" xmlns="http://www.w3.org/2000/svg"><path d="m21.0656 4.93075c-1.0528-.17288-2.1705.14695-2.9831.9595l-2.6633 2.65544-2.6254-2.62541c-1.34-1.34-3.51002-1.34-4.85002 0s-1.34 3.51 0 4.85002l3.37002 3.37c.0109.0109.0219.0218.033.0326l-.2999.2999c-.8532.8531-.8532 2.2472 0 3.1003.8531.8531 2.2472.8531 3.1003 0l1.3878-1.3878 1.375 1.375c.8702.8702 2.2921.8702 3.1622 0 .8701-.8701.8701-2.292 0-3.1621l-.4038-.4038 3.2541-3.2541c1.35-1.34005 1.35-3.51005.01-4.85005-.0465-.04649-.094-.09138-.1424-.13465l-.5372-.27498c-.0458-.02289-.103-.02289-.1602 0l-.9496.50342c-.1144.0572-.2517-.04577-.2288-.18306z" fill="#75e0fc"/><path d="m10.7838 6.24988c-.0119-.09592-.0993-.16401-.1952-.15209s-.164.09933-.1521.19524l.1894 1.52434-1.09967-.99856c-.07155-.06497-.18222-.05964-.2472.01192-.06497.07155-.05964.18222.01192.2472l4.21625 3.82857c.139-.0328.2794-.0561.4212-.0723-.0095-.0203-.0231-.039-.0406-.0549l-2.8643-2.60094zm6.6378 4.64332c-.1228-.0281-.2435-.0485-.3648-.063-.0005-.0486.0191-.0972.0582-.1322l2.7311-2.4472.2615-1.94671c.0128-.09579.1009-.16301.1967-.15014s.163.10095.1502.19674l-.207 1.54036 1.1975-1.073c.072-.0645.1826-.05844.2471.01354s.0584.18262-.0135.24712zm1.9449.7584-.3611-.1486 2.0856-1.83176c.0259.0445.0568.08632.0921.12458.0454.04931.0825.1041.1113.16259l-1.442 1.26649 1.0186.0821c.0963.0078.1681.0922.1603.1885-.0077.0964-.0921.1682-.1885.1604l-1.24-.1c-.0335-.0027-.0641-.0147-.0894-.0333zm-7.1312.1198c-.055.0612-.1113.1245-.1688.1893-.0212.0238-.0425.0479-.064.072l-.5311-.4824-.0024.0002-1.25.1c-.0964.0077-.1807-.0641-.1884-.1605-.0077-.0963.0641-.1807.1605-.1884l.9251-.074-1.8768-1.70495c-.07154-.06499-.07685-.17567-.01186-.24721.06499-.07153.17566-.07684.2472-.01186z" fill="#fff"/><path d="m22.4441 9.01178c0-.18334.1486-.33179.3319-.33179.1938 0 .3463.1652.331.35832l-.0832 1.04409c-.0216.6474-.0697 2.3743-.1016 3.5368-.0173.6314-.5341 1.1334-1.1657 1.1334-.1528 0-.304-.0301-.4452-.0884l-2.9019-1.199c-.0559-.0231-.1174.018-.1174.0785v.3423c0 1.4073 0 2.1109.0979 2.8054.0979.6944.2924 1.3707.6814 2.7231l.5593 1.9446c.1174.4081.0563.847-.1682 1.2075l-3.1388 5.0407c-.1058.1699-.3582.1529-.4403-.0295l-.6385-1.4195c-.036-.0801-.0355-.171.0018-.2504.2616-.5566 1.3354-2.8522 1.891-4.1978.0497-.1204.0488-.2547-.0006-.3753l-1.2054-2.9405c-.1001-.244-.4609-.1869-.4806.0762l-.789 10.5362c-.0081.107-.0726.2015-.1692.248l-1.3217.6353c-.166.0797-.3583-.0412-.3583-.2254l-.0129-15.2696c-.0002-.1343-.0002-.2015-.0352-.2253-.009-.0061-.0192-.0104-.03-.0124-.0415-.0079-.0891.0395-.1842.1344s-.6891.67-1.6563 1.16c-.8896.4506-1.76911.4445-2.3325.4406-.04925-.0003-.09607-.0006-.14028-.0006-.55 0-1.24686-.196-1.24686-.196s-.30078.3438-.79396.186c-.15091.1837-.39757.3923-.65918.2085-.47266-.332-.08924-1.0339.13687-1.2915.34301-.4086.97332-.827 1.53495-.827.20555-.0105.4071-.0115.60885-.0126.56733-.0029 1.13625-.0058 1.80025-.2183.95446-.3056 1.67716-1.1192 2.26416-1.7801.3801-.4279.7032-.7917.9955-.9121.51-.21 1.0362-.2492 1.5862-.2492h1.82c.62 0 1.1319.0738 1.8238.4101l2.71 1.1151c.0499-.2502.2484-1.3136.3545-1.8834.0432-.2315-.014-.47219-.1734-.64538-.1124-.12199-.181-.28014-.181-.44596l.0001-.79382c0-.23443.1915-.4237.4259-.421.241.00277.4345.20692.4335.44792-.0013.28725.0022.53875.0053.77431.0021.15758.1306.28347.2882.28347.1596 0 .289-.12926.289-.28888z" fill="#f59f00"/><path d="m14.7377 27.9953-.0757 1.0113c-.0081.107-.0726.2015-.1692.248l-1.3217.6353c-.166.0797-.3583-.0412-.3583-.2254l-.0013-1.4819zm2.2029-1.3789-.617.9908c-.1058.1699-.3582.1529-.4402-.0295l-.6386-1.4195c-.036-.0801-.0355-.171.0018-.2504.0934-.1987.2902-.619.5301-1.1385z" fill="#635994"/><path d="m14.011 4.61961-.278.27735c-.1011.10087-.2218.18001-.3546.23256-.5211.20615-.7879.78572-.6056 1.31561l.1169.33967c.0491.14271.0752.29232.0773.44322l.0227 1.60706c.008.56888.4714 1.02584 1.0403 1.02584h3c.5754 0 1.0418-.46643 1.0418-1.0418v-1.5334c0-.18779.0434-.37303.1269-.54126l.0571-.1152c.2971-.59901-.0014-1.3226-.6344-1.53794-.1757-.05977-.3335-.1628-.4589-.29961l-.1298-.14154c-.3114-.33969-.7794-.48892-1.23-.39214-.1797.03862-.3656.03862-.5453.00003l-.0106-.00227c-.447-.09597-.9121.04097-1.2358.36382z" fill="#f1a11e"/><path d="m16.53 10.0004v2.9862l-2 .0136v-3z" fill="#fcb100"/><path d="m14.0619 8.00005c0 .3866-.3134.7-.7.7s-.7-.3134-.7-.7.3134-.7.7-.7.7.3134.7.7zm4.2902 0c0 .3866-.3134.7-.7.7s-.7-.3134-.7-.7.3134-.7.7-.7.7.3134.7.7z" fill="#fcb100"/><path d="m17.7866 7.22736v-.41455c-.0103-.33109-.2793-.61045-.6104-.62079h-.6105c-.4138 0-.7966-.24832-.9725-.63115-.0414-.11381-.1449-.18624-.269-.18624h-.5588c-.807 0-1.4815.64669-1.4815 1.45373l-.0368.31724.1507 2.20549c.1146.83041.8443 1.44821 1.7094 1.44821h.8339c.8652 0 1.5948-.6178 1.7095-1.44821z" fill="#ffc83d"/><path d="m22.5245 5.3335h-.6918v4.03023c0 .16711.1588.30473.3516.30473.1927 0 .3515-.13762.3515-.30473v-4.03023z" fill="#75443e"/><path d="m22.333 2.36881.4691.96107c.0229.04577.0686.08009.1258.09153l1.0641.14874c.1373.02288.1945.18306.0915.28603l-.7665.74369c-.0344.03433-.0572.09154-.0458.14874l.1831 1.05261c.0228.1373-.1145.24027-.2403.17162l-.9611-.49198c-.0458-.02288-.103-.02288-.1602 0l-.9496.50342c-.1144.05721-.2517-.04576-.2288-.18306l.183-1.05261c.0115-.0572-.0114-.11441-.0457-.14874l-.7666-.74369c-.103-.09153-.0458-.26315.0915-.28603l1.0526-.14874c.0572-.01144.103-.04576.1259-.09153l.4691-.96107c.0686-.12586.2403-.12586.3089 0z" fill="#fcd53f"/><path d="m12.8063 22.0078-.0051-5.9975h5.5223c.0145.2424.0356.4622.0665.6811.0978.6944.2923 1.3706.6813 2.7231l.3331 1.1579-2.364.5267-1.1088-2.7048c-.1-.244-.4609-.1869-.4806.0762l-.2649 3.5373z" fill="#ff6723"/><path d="m16.5288 10.7996c.5346.0044.9942.0696 1.5698.3206.1086.1581.173.349.1751.5551l.0195 1.8543c-.0008.0045-.0012.0092-.0012.0141v.3423c0 .9063 0 1.5208.0262 2.0289l.0009.0853h-5.5179l-.0013-1.6053c-.0001-.1085-.0002-.1732-.0187-.2066v-2.4533c0-.263.1016-.5023.2675-.6808.0045-.0019.0089-.0038.0133-.0056.4731-.1948.9601-.2427 1.4671-.2486l.6466 1.2273c.1501.2849.5582.2847.708-.0003z" fill="#ff6723"/><path d="m12.8015 16.4084-.0007-.8342h5.504c.009.3126.0244.58.0506.8342z" fill="#c3ef3c"/><path d="m15.365 8.0055-.22.71c-.04.15.07.3.22.3h.33c.15 0 .26-.15.22-.29l-.22-.71c-.06-.17-.28-.17-.33-.01z" fill="#ed9200"/><path d="m15.53 9.35078c-.23 0-.44-.05-.62-.15-.06-.03-.13.04-.09.1.16.23.42.38.71.38.3 0 .56-.15.71-.38.04-.06-.03-.13-.09-.1-.18.09-.39.15-.62.15z" fill="#990839"/><path d="m13.9181 7.86016c.07-.26.3-.45.58-.45.29 0 .53.2.59.47.01.06-.04.12-.1.12h-.95c-.07 0-.13-.07-.12-.14zm3.2051 0c-.07-.26-.3-.45-.58-.45-.29 0-.53.2-.58.47-.01.06.04.12.1.12h.95c.07 0 .13-.07.11-.14z" fill="#fff"/><path d="m14.2083 7.90026c0-.21.17-.38.38-.38s.38.17.37.38v.00001c0 .03 0 .07-.01.09999h-.73c0-.015-.0025-.0325-.005-.05s-.005-.035-.005-.05zm2.6251 0c0-.21-.17-.38-.38-.38s-.38.17-.37.38c0 .03 0 .07.01.1h.73c0-.015.0025-.0325.005-.05s.005-.035.005-.05z" fill="#7d4533"/><path d="m14.5882 7.68018c.12 0 .22.1.22.22 0 .04-.01.07-.04.1h-.38v-.00001c-.01-.03-.02-.06-.02-.09999 0-.12.1-.22.22-.22zm1.8752 0c-.12 0-.22.1-.22.22 0 .04.01.07.04.1h.38c.01-.03.02-.06.02-.1 0-.12-.1-.22-.22-.22z" fill="#000"/><path d="m14.5282 7.75018c0 .03866-.0314.07-.07.07-.0387 0-.07-.03134-.07-.07s.0313-.07.07-.07c.0386 0 .07.03134.07.07zm1.885 0c0 .03866-.0313.07-.07.07s-.07-.03134-.07-.07.0313-.07.07-.07.07.03134.07.07z" fill="#fff"/><path d="m17.1225 6.81361-.0019-.00147-.0038-.00274-.0126-.00878c-.0107-.00718-.0257-.01691-.0448-.02817-.0383-.02248-.0933-.05131-.1624-.07828-.1382-.05388-.3352-.1012-.5687-.07341-.064.00762-.1097.06568-.1021.12968s.0657.10971.1297.10209c.1865-.02221.3444.01548.4563.05909.0558.02178.0996.04483.1289.06203.0146.00859.0254.01566.0323.02031l.0072.00501.0011.00075c.0513.03883.1244.02876.1634-.02254.0389-.05135.0288-.12461-.0226-.16357zm-3.0275.17621c-.0002.00021-.0002.00015 0 0zm0 0 .0033-.00288c.0038-.00322.0109-.00882.0213-.01593.0208-.01418.0553-.03446.1052-.05377.0992-.03838.2632-.07449.5071-.04723.0641.00716.1218-.03896.129-.10301.0071-.06406-.039-.12178-.1031-.12894-.2795-.03124-.4814.00895-.6172.0615-.0676.02615-.1178.055-.1524.07857-.0173.01178-.0306.02221-.0403.0303-.0048.00405-.0086.00751-.0116.01026l-.0038.00358-.0014.00136-.0008.00082c-.0001.00016.1387.13681 0 0-.0452.04588-.045.12001.0009.16527.0455.04485.1184.04473.1638.0001z" fill="#d37034"/></svg>