<svg fill="none" height="32" viewBox="0 0 32 32" width="32" xmlns="http://www.w3.org/2000/svg" xmlns:xlink="http://www.w3.org/1999/xlink"><filter id="a" color-interpolation-filters="sRGB" filterUnits="userSpaceOnUse" height="2.4" width="13.18" x="16.82" y="16.75"><feFlood flood-opacity="0" result="BackgroundImageFix"/><feBlend in="SourceGraphic" in2="BackgroundImageFix" mode="normal" result="shape"/><feColorMatrix in="SourceAlpha" result="hardAlpha" type="matrix" values="0 0 0 0 0 0 0 0 0 0 0 0 0 0 0 0 0 0 127 0"/><feOffset dx="-.15" dy="-.25"/><feGaussianBlur stdDeviation=".125"/><feComposite in2="hardAlpha" k2="-1" k3="1" operator="arithmetic"/><feColorMatrix type="matrix" values="0 0 0 0 0.192157 0 0 0 0 0.0196078 0 0 0 0 0.117647 0 0 0 1 0"/><feBlend in2="shape" mode="normal" result="effect1_innerShadow_18_10719"/><feColorMatrix in="SourceAlpha" result="hardAlpha" type="matrix" values="0 0 0 0 0 0 0 0 0 0 0 0 0 0 0 0 0 0 127 0"/><feOffset dx="-.15" dy=".25"/><feGaussianBlur stdDeviation=".075"/><feComposite in2="hardAlpha" k2="-1" k3="1" operator="arithmetic"/><feColorMatrix type="matrix" values="0 0 0 0 0.333275 0 0 0 0 0.282795 0 0 0 0 0.379167 0 0 0 1 0"/><feBlend in2="effect1_innerShadow_18_10719" mode="normal" result="effect2_innerShadow_18_10719"/></filter><filter id="b" color-interpolation-filters="sRGB" filterUnits="userSpaceOnUse" height="15.8594" width="27.49" x="1.96997" y="11.1406"><feFlood flood-opacity="0" result="BackgroundImageFix"/><feBlend in="SourceGraphic" in2="BackgroundImageFix" mode="normal" result="shape"/><feColorMatrix in="SourceAlpha" result="hardAlpha" type="matrix" values="0 0 0 0 0 0 0 0 0 0 0 0 0 0 0 0 0 0 127 0"/><feOffset dx=".5"/><feGaussianBlur stdDeviation=".5"/><feComposite in2="hardAlpha" k2="-1" k3="1" operator="arithmetic"/><feColorMatrix type="matrix" values="0 0 0 0 0.584314 0 0 0 0 0.156863 0 0 0 0 0.227451 0 0 0 1 0"/><feBlend in2="shape" mode="normal" result="effect1_innerShadow_18_10719"/></filter><filter id="c" color-interpolation-filters="sRGB" filterUnits="userSpaceOnUse" height="10.1296" width="2.69397" x="14.6661" y="10.9352"><feFlood flood-opacity="0" result="BackgroundImageFix"/><feBlend in="SourceGraphic" in2="BackgroundImageFix" mode="normal" result="shape"/><feGaussianBlur result="effect1_foregroundBlur_18_10719" stdDeviation=".375"/></filter><filter id="d" color-interpolation-filters="sRGB" filterUnits="userSpaceOnUse" height="1.62049" width="24.9992" x="3.45996" y="19.3542"><feFlood flood-opacity="0" result="BackgroundImageFix"/><feBlend in="SourceGraphic" in2="BackgroundImageFix" mode="normal" result="shape"/><feGaussianBlur result="effect1_foregroundBlur_18_10719" stdDeviation=".25"/></filter><filter id="e" color-interpolation-filters="sRGB" filterUnits="userSpaceOnUse" height="3.70112" width="2.90054" x="9.3709" y="16.8465"><feFlood flood-opacity="0" result="BackgroundImageFix"/><feBlend in="SourceGraphic" in2="BackgroundImageFix" mode="normal" result="shape"/><feGaussianBlur result="effect1_foregroundBlur_18_10719" stdDeviation=".15"/></filter><filter id="f" color-interpolation-filters="sRGB" filterUnits="userSpaceOnUse" height="7.15" width="7" x="3.95996" y="23"><feFlood flood-opacity="0" result="BackgroundImageFix"/><feBlend in="SourceGraphic" in2="BackgroundImageFix" mode="normal" result="shape"/><feColorMatrix in="SourceAlpha" result="hardAlpha" type="matrix" values="0 0 0 0 0 0 0 0 0 0 0 0 0 0 0 0 0 0 127 0"/><feOffset/><feGaussianBlur stdDeviation=".5"/><feComposite in2="hardAlpha" k2="-1" k3="1" operator="arithmetic"/><feColorMatrix type="matrix" values="0 0 0 0 0.145098 0 0 0 0 0.0823529 0 0 0 0 0.215686 0 0 0 1 0"/><feBlend in2="shape" mode="normal" result="effect1_innerShadow_18_10719"/><feColorMatrix in="SourceAlpha" result="hardAlpha" type="matrix" values="0 0 0 0 0 0 0 0 0 0 0 0 0 0 0 0 0 0 127 0"/><feOffset dy=".15"/><feGaussianBlur stdDeviation=".125"/><feComposite in2="hardAlpha" k2="-1" k3="1" operator="arithmetic"/><feColorMatrix type="matrix" values="0 0 0 0 0.207843 0 0 0 0 0.0313726 0 0 0 0 0.235294 0 0 0 1 0"/><feBlend in2="effect1_innerShadow_18_10719" mode="normal" result="effect2_innerShadow_18_10719"/></filter><filter id="g" color-interpolation-filters="sRGB" filterUnits="userSpaceOnUse" height="3.1" width="3.1" x="5.90996" y="24.95"><feFlood flood-opacity="0" result="BackgroundImageFix"/><feBlend in="SourceGraphic" in2="BackgroundImageFix" mode="normal" result="shape"/><feColorMatrix in="SourceAlpha" result="hardAlpha" type="matrix" values="0 0 0 0 0 0 0 0 0 0 0 0 0 0 0 0 0 0 127 0"/><feOffset dx=".05" dy="-.05"/><feGaussianBlur stdDeviation=".05"/><feComposite in2="hardAlpha" k2="-1" k3="1" operator="arithmetic"/><feColorMatrix type="matrix" values="0 0 0 0 0.478431 0 0 0 0 0.364706 0 0 0 0 0.584314 0 0 0 1 0"/><feBlend in2="shape" mode="normal" result="effect1_innerShadow_18_10719"/><feColorMatrix in="SourceAlpha" result="hardAlpha" type="matrix" values="0 0 0 0 0 0 0 0 0 0 0 0 0 0 0 0 0 0 127 0"/><feOffset dx="-.05" dy=".05"/><feGaussianBlur stdDeviation=".05"/><feComposite in2="hardAlpha" k2="-1" k3="1" operator="arithmetic"/><feColorMatrix type="matrix" values="0 0 0 0 0.807843 0 0 0 0 0.764706 0 0 0 0 0.858824 0 0 0 1 0"/><feBlend in2="effect1_innerShadow_18_10719" mode="normal" result="effect2_innerShadow_18_10719"/></filter><filter id="h" color-interpolation-filters="sRGB" filterUnits="userSpaceOnUse" height="7.15" width="7" x="19.96" y="23"><feFlood flood-opacity="0" result="BackgroundImageFix"/><feBlend in="SourceGraphic" in2="BackgroundImageFix" mode="normal" result="shape"/><feColorMatrix in="SourceAlpha" result="hardAlpha" type="matrix" values="0 0 0 0 0 0 0 0 0 0 0 0 0 0 0 0 0 0 127 0"/><feOffset/><feGaussianBlur stdDeviation=".5"/><feComposite in2="hardAlpha" k2="-1" k3="1" operator="arithmetic"/><feColorMatrix type="matrix" values="0 0 0 0 0.145098 0 0 0 0 0.0823529 0 0 0 0 0.215686 0 0 0 1 0"/><feBlend in2="shape" mode="normal" result="effect1_innerShadow_18_10719"/><feColorMatrix in="SourceAlpha" result="hardAlpha" type="matrix" values="0 0 0 0 0 0 0 0 0 0 0 0 0 0 0 0 0 0 127 0"/><feOffset dy=".15"/><feGaussianBlur stdDeviation=".125"/><feComposite in2="hardAlpha" k2="-1" k3="1" operator="arithmetic"/><feColorMatrix type="matrix" values="0 0 0 0 0.207843 0 0 0 0 0.0313726 0 0 0 0 0.235294 0 0 0 1 0"/><feBlend in2="effect1_innerShadow_18_10719" mode="normal" result="effect2_innerShadow_18_10719"/></filter><filter id="i" color-interpolation-filters="sRGB" filterUnits="userSpaceOnUse" height="3.1" width="3.1" x="21.91" y="24.95"><feFlood flood-opacity="0" result="BackgroundImageFix"/><feBlend in="SourceGraphic" in2="BackgroundImageFix" mode="normal" result="shape"/><feColorMatrix in="SourceAlpha" result="hardAlpha" type="matrix" values="0 0 0 0 0 0 0 0 0 0 0 0 0 0 0 0 0 0 127 0"/><feOffset dx=".05" dy="-.05"/><feGaussianBlur stdDeviation=".05"/><feComposite in2="hardAlpha" k2="-1" k3="1" operator="arithmetic"/><feColorMatrix type="matrix" values="0 0 0 0 0.478431 0 0 0 0 0.364706 0 0 0 0 0.584314 0 0 0 1 0"/><feBlend in2="shape" mode="normal" result="effect1_innerShadow_18_10719"/><feColorMatrix in="SourceAlpha" result="hardAlpha" type="matrix" values="0 0 0 0 0 0 0 0 0 0 0 0 0 0 0 0 0 0 127 0"/><feOffset dx="-.05" dy=".05"/><feGaussianBlur stdDeviation=".05"/><feComposite in2="hardAlpha" k2="-1" k3="1" operator="arithmetic"/><feColorMatrix type="matrix" values="0 0 0 0 0.807843 0 0 0 0 0.764706 0 0 0 0 0.858824 0 0 0 1 0"/><feBlend in2="effect1_innerShadow_18_10719" mode="normal" result="effect2_innerShadow_18_10719"/></filter><filter id="j" color-interpolation-filters="sRGB" filterUnits="userSpaceOnUse" height="7.39221" width="7.39221" x="4.00592" y="22.6385"><feFlood flood-opacity="0" result="BackgroundImageFix"/><feBlend in="SourceGraphic" in2="BackgroundImageFix" mode="normal" result="shape"/><feGaussianBlur result="effect1_foregroundBlur_18_10719" stdDeviation=".375"/></filter><filter id="k" color-interpolation-filters="sRGB" filterUnits="userSpaceOnUse" height="7.39221" width="7.39221" x="19.7889" y="22.6385"><feFlood flood-opacity="0" result="BackgroundImageFix"/><feBlend in="SourceGraphic" in2="BackgroundImageFix" mode="normal" result="shape"/><feGaussianBlur result="effect1_foregroundBlur_18_10719" stdDeviation=".375"/></filter><filter id="l" color-interpolation-filters="sRGB" filterUnits="userSpaceOnUse" height="6.6" width="8.88467" x="4.07529" y="13"><feFlood flood-opacity="0" result="BackgroundImageFix"/><feBlend in="SourceGraphic" in2="BackgroundImageFix" mode="normal" result="shape"/><feColorMatrix in="SourceAlpha" result="hardAlpha" type="matrix" values="0 0 0 0 0 0 0 0 0 0 0 0 0 0 0 0 0 0 127 0"/><feOffset dx="-.75" dy="1"/><feGaussianBlur stdDeviation=".3"/><feComposite in2="hardAlpha" k2="-1" k3="1" operator="arithmetic"/><feColorMatrix type="matrix" values="0 0 0 0 0.129412 0 0 0 0 0.443137 0 0 0 0 0.768627 0 0 0 1 0"/><feBlend in2="shape" mode="normal" result="effect1_innerShadow_18_10719"/></filter><linearGradient id="m" gradientUnits="userSpaceOnUse" x1="29.9974" x2="16.963" y1="18.002" y2="18.002"><stop offset="0" stop-color="#3d2e42"/><stop offset="1" stop-color="#3f2d52"/></linearGradient><linearGradient id="n" gradientUnits="userSpaceOnUse" x1="6.70996" x2="17.585" y1="17.25" y2="17.25"><stop offset="0" stop-color="#d8445d"/><stop offset="1" stop-color="#e24658"/></linearGradient><linearGradient id="o" gradientUnits="userSpaceOnUse" x1="17.2721" x2="16.1617" y1="17.4758" y2="17.4758"><stop offset="0" stop-color="#d82533"/><stop offset="1" stop-color="#d82533" stop-opacity="0"/></linearGradient><linearGradient id="p" gradientUnits="userSpaceOnUse" x1="14.5403" x2="14.5403" y1="19.1623" y2="18.5966"><stop offset="0" stop-color="#df1a39"/><stop offset="1" stop-color="#df1a39" stop-opacity="0"/></linearGradient><linearGradient id="q" gradientUnits="userSpaceOnUse" x1="1.96297" x2="23.3168" y1="23.002" y2="23.002"><stop offset="0" stop-color="#c7385b"/><stop offset="1" stop-color="#e5393e"/></linearGradient><linearGradient id="r" gradientUnits="userSpaceOnUse" x1="28.96" x2="27.686" y1="22.3126" y2="22.3126"><stop offset="0" stop-color="#c92725"/><stop offset="1" stop-color="#c92725" stop-opacity="0"/></linearGradient><linearGradient id="s" gradientUnits="userSpaceOnUse" x1="1.96997" x2="3.40759" y1="24.0172" y2="24.0172"><stop offset="0" stop-color="#923545"/><stop offset="1" stop-color="#923545" stop-opacity="0"/></linearGradient><linearGradient id="t" gradientUnits="userSpaceOnUse" x1="16.7251" x2="16.7251" y1="27" y2="25.6446"><stop offset="0" stop-color="#7a174d"/><stop offset="1" stop-color="#7a174d" stop-opacity="0"/></linearGradient><radialGradient id="u" cx="0" cy="0" gradientTransform="matrix(-1.79604042 1.43309316 -.25344141 -.31762836 29.1019 19)" gradientUnits="userSpaceOnUse" r="1"><stop offset="0" stop-color="#ff5755"/><stop offset="1" stop-color="#ff5755" stop-opacity="0"/></radialGradient><linearGradient id="v" gradientUnits="userSpaceOnUse" x1="8.20996" x2="7.08496" y1="22.9375" y2="26.1562"><stop offset="0" stop-color="#530817"/><stop offset="1" stop-color="#6d1727"/></linearGradient><linearGradient id="w" gradientUnits="userSpaceOnUse" x1="4.25287" x2="28.2001" y1="20.4747" y2="20.4747"><stop offset="0" stop-color="#db4663"/><stop offset="1" stop-color="#f94947"/></linearGradient><linearGradient id="x" gradientUnits="userSpaceOnUse" x1="11.5763" x2="9.41336" y1="20.2476" y2="18.222"><stop offset="0" stop-color="#7f0d28"/><stop offset="1" stop-color="#7f0d28" stop-opacity="0"/></linearGradient><linearGradient id="y" gradientUnits="userSpaceOnUse" x1="24.21" x2="23.085" y1="22.9375" y2="26.1562"><stop offset="0" stop-color="#4d0615"/><stop offset="1" stop-color="#6c1828"/></linearGradient><linearGradient id="z"><stop offset=".239044" stop-color="#34214f"/><stop offset="1" stop-color="#241337"/></linearGradient><linearGradient id="A" gradientUnits="userSpaceOnUse" x1="5.84606" x2="11.1031" xlink:href="#z" y1="25.6199" y2="25.6199"/><linearGradient id="B"><stop offset=".523134" stop-color="#2d114d"/><stop offset="1" stop-color="#2b1249" stop-opacity="0"/></linearGradient><radialGradient id="C" cx="0" cy="0" gradientTransform="matrix(.79082946 -1.73825857 1.81554586 .8259917 7.45996 26.1868)" gradientUnits="userSpaceOnUse" r="1" xlink:href="#B"/><linearGradient id="D" gradientUnits="userSpaceOnUse" x1="21.8461" x2="27.1031" xlink:href="#z" y1="25.6199" y2="25.6199"/><radialGradient id="E" cx="0" cy="0" gradientTransform="matrix(.79082946 -1.73825857 1.81554586 .8259917 23.46 26.1868)" gradientUnits="userSpaceOnUse" r="1" xlink:href="#B"/><linearGradient id="F" gradientUnits="userSpaceOnUse" x1="28.4819" x2="27.2963" y1="23.0572" y2="21.1908"><stop offset="0" stop-color="#ff406d"/><stop offset=".708782" stop-color="#d61049"/></linearGradient><radialGradient id="G" cx="0" cy="0" gradientTransform="matrix(0 -2.68752 2.25 0 2.64746 24)" gradientUnits="userSpaceOnUse" r="1"><stop offset="0" stop-color="#fffb78"/><stop offset=".755815" stop-color="#f9d963"/></radialGradient><linearGradient id="H"><stop offset=".0830122" stop-color="#615b6b"/><stop offset=".390771" stop-color="#615b6b" stop-opacity="0"/><stop offset=".692394" stop-color="#615b6b" stop-opacity="0"/><stop offset=".934982" stop-color="#615b6b"/></linearGradient><linearGradient id="I" gradientUnits="userSpaceOnUse" x1="9.0756" x2="6.01277" xlink:href="#H" y1="24.3344" y2="28.564"/><linearGradient id="J" gradientUnits="userSpaceOnUse" x1="24.8586" x2="21.7957" xlink:href="#H" y1="24.3344" y2="28.564"/><linearGradient id="K" gradientUnits="userSpaceOnUse" x1="4.96293" x2="12.9629" y1="16.002" y2="16.002"><stop offset="0" stop-color="#60bdff"/><stop offset="1" stop-color="#61bff9"/></linearGradient><radialGradient id="L" cx="0" cy="0" gradientTransform="matrix(1.25000015 -1.30468638 3.48231435 3.33635233 11.0522 19.4248)" gradientUnits="userSpaceOnUse" r="1"><stop offset="0" stop-color="#ac2038"/><stop offset="1" stop-color="#fc5760"/></radialGradient><linearGradient id="M" gradientUnits="userSpaceOnUse" x1="11.9298" x2="12.2461" y1="18.7352" y2="18.7352"><stop offset="0" stop-color="#d31d2f" stop-opacity="0"/><stop offset="1" stop-color="#d31d2f"/></linearGradient><g filter="url(#a)"><path d="m30 18c0 .55-.45 1-1 1h-12.03v-2h12.03c.55 0 1 .45 1 1z" fill="url(#m)"/></g><g filter="url(#b)"><path d="m4.67531 19c.31667 0 .61463-.15.80325-.4044l4.92854-6.6463c.3773-.5087.9732-.8087 1.6065-.8087h3.4895c.8238 0 1.4934.6644 1.4999 1.4881l.0487 6.1233c.0011.1373.1127.248.25.248h11.4083c.138 0 .25.1119.25.25v1.75l-1 1 1 1v2.65c0 .75-.61 1.35-1.35 1.35h-24.29003c-.75 0-1.35-.6-1.35-1.35v-1.65l1.47-1.4-1.47-1.6c0-1.1.9-2 2-2z" fill="url(#n)"/><path d="m4.67531 19c.31667 0 .61463-.15.80325-.4044l4.92854-6.6463c.3773-.5087.9732-.8087 1.6065-.8087h3.4895c.8238 0 1.4934.6644 1.4999 1.4881l.0487 6.1233c.0011.1373.1127.248.25.248h11.4083c.138 0 .25.1119.25.25v1.75l-1 1 1 1v2.65c0 .75-.61 1.35-1.35 1.35h-24.29003c-.75 0-1.35-.6-1.35-1.35v-1.65l1.47-1.4-1.47-1.6c0-1.1.9-2 2-2z" fill="url(#o)"/><path d="m4.67531 19c.31667 0 .61463-.15.80325-.4044l4.92854-6.6463c.3773-.5087.9732-.8087 1.6065-.8087h3.4895c.8238 0 1.4934.6644 1.4999 1.4881l.0487 6.1233c.0011.1373.1127.248.25.248h11.4083c.138 0 .25.1119.25.25v1.75l-1 1 1 1v2.65c0 .75-.61 1.35-1.35 1.35h-24.29003c-.75 0-1.35-.6-1.35-1.35v-1.65l1.47-1.4-1.47-1.6c0-1.1.9-2 2-2z" fill="url(#p)"/></g><g filter="url(#c)"><path d="m15.6661 11.9357c.2909-.0132.694.2419.694.8922v7.2369" stroke="#f95963" stroke-linecap="round" stroke-width=".5"/></g><path d="m28.71 19c.138 0 .25.1119.25.25v6.4c0 .75-.61 1.35-1.35 1.35h-24.29003c-.75 0-1.35-.6-1.35-1.35v-4.65c0-1.1.9-2 2-2z" fill="url(#q)"/><path d="m28.71 19c.138 0 .25.1119.25.25v6.4c0 .75-.61 1.35-1.35 1.35h-24.29003c-.75 0-1.35-.6-1.35-1.35v-4.65c0-1.1.9-2 2-2z" fill="url(#r)"/><path d="m28.71 19c.138 0 .25.1119.25.25v6.4c0 .75-.61 1.35-1.35 1.35h-24.29003c-.75 0-1.35-.6-1.35-1.35v-4.65c0-1.1.9-2 2-2z" fill="url(#s)"/><path d="m28.71 19c.138 0 .25.1119.25.25v6.4c0 .75-.61 1.35-1.35 1.35h-24.29003c-.75 0-1.35-.6-1.35-1.35v-4.65c0-1.1.9-2 2-2z" fill="url(#t)"/><path d="m28.71 19c.138 0 .25.1119.25.25v6.4c0 .75-.61 1.35-1.35 1.35h-24.29003c-.75 0-1.35-.6-1.35-1.35v-4.65c0-1.1.9-2 2-2z" fill="url(#u)"/><path d="m3.63748 27h7.64502c.0311-.1976.0472-.4002.0472-.6066 0-2.1372-1.73253-3.8697-3.86974-3.8697s-3.86975 1.7325-3.86975 3.8697c0 .2064.01617.409.04727.6066z" fill="url(#v)"/><g filter="url(#d)"><path d="m3.95996 19.8542h23.9992v.620494h-23.9992z" fill="url(#w)"/></g><g filter="url(#e)"><path d="m9.6709 18.697c.00475-.2921.3478-.9496.7693-1.2973.2721-.2245.7039-.2743 1.0579-.2461.2951.0236.4734.2862.4734.5732v1.9405c0 .287-.1783.5495-.4734.5731-.354.0283-.7858-.0216-1.0579-.246-.50368-.3271-.76455-1.0053-.7693-1.2974z" fill="url(#x)"/></g><path d="m19.6375 27h7.645c.0311-.1976.0472-.4002.0472-.6066 0-2.1372-1.7325-3.8697-3.8697-3.8697s-3.8698 1.7325-3.8698 3.8697c0 .2064.0162.409.0473.6066z" fill="url(#y)"/><g filter="url(#f)"><path d="m7.45996 30c1.933 0 3.50004-1.567 3.50004-3.5s-1.56704-3.5-3.50004-3.5-3.5 1.567-3.5 3.5 1.567 3.5 3.5 3.5z" fill="url(#A)"/><path d="m7.45996 30c1.933 0 3.50004-1.567 3.50004-3.5s-1.56704-3.5-3.50004-3.5-3.5 1.567-3.5 3.5 1.567 3.5 3.5 3.5z" fill="url(#C)"/></g><g filter="url(#g)"><path d="m7.45997 28c.82842 0 1.49999-.6716 1.49999-1.5s-.67157-1.5-1.49999-1.5c-.82843 0-1.50001.6716-1.50001 1.5s.67158 1.5 1.50001 1.5z" fill="#d9c3f0"/></g><g filter="url(#h)"><path d="m23.46 30c1.933 0 3.5-1.567 3.5-3.5s-1.567-3.5-3.5-3.5-3.5 1.567-3.5 3.5 1.567 3.5 3.5 3.5z" fill="url(#D)"/><path d="m23.46 30c1.933 0 3.5-1.567 3.5-3.5s-1.567-3.5-3.5-3.5-3.5 1.567-3.5 3.5 1.567 3.5 3.5 3.5z" fill="url(#E)"/></g><g filter="url(#i)"><path d="m23.46 28c.8284 0 1.5-.6716 1.5-1.5s-.6716-1.5-1.5-1.5c-.8285 0-1.5.6716-1.5 1.5s.6715 1.5 1.5 1.5z" fill="#d9c3f0"/></g><path d="m28.96 21h-.5c-.85 0-1.54.71-1.5 1.57.04.81.74 1.43 1.55 1.43h.45z" fill="url(#F)"/><path d="m2.86996 24h-.91v-3h.91c.6 0 1.09.49 1.09 1.09v.82c0 .6-.49 1.09-1.09 1.09z" fill="url(#G)"/><g filter="url(#j)"><circle cx="7.70201" cy="26.3346" r="2.5211" stroke="url(#I)" stroke-width=".85"/></g><g filter="url(#k)"><circle cx="23.485" cy="26.3346" r="2.5211" stroke="url(#J)" stroke-width=".85"/></g><g filter="url(#l)"><path clip-rule="evenodd" d="m5.47853 18.5956c-.18862.2544-.48658.4044-.80325.4044h7.42462c.48 0 .86-.38.86-.86v-4.24c0-.5-.4-.9-.9-.9h-2.43191z" fill="url(#K)" fill-rule="evenodd"/></g><path d="m10.2231 18.4914c.0048-.2921.0703-.9495.4918-1.2973.272-.2245.7039-.2743 1.0578-.246.2952.0235.4734.2861.4734.5731v1.9405c0 .287-.1782.5496-.4734.5731-.3539.0283-.7858-.0215-1.0578-.246-.4215-.3478-.487-1.0052-.4918-1.2974z" fill="url(#L)"/><path d="m10.2231 18.4914c.0048-.2921.0703-.9495.4918-1.2973.272-.2245.7039-.2743 1.0578-.246.2952.0235.4734.2861.4734.5731v1.9405c0 .287-.1782.5496-.4734.5731-.3539.0283-.7858-.0215-1.0578-.246-.4215-.3478-.487-1.0052-.4918-1.2974z" fill="url(#M)"/></svg>