<svg enable-background="new 0 0 128 128" viewBox="0 0 32 32" xmlns="http://www.w3.org/2000/svg"><path d="m14 20h2l1.88 6.55c.08.29.08.59 0 .87l-.7 2.39c-.03.11-.13.18-.24.18h-1.48c-.17 0-.29-.16-.24-.32l.76-2.59c.02-.05.02-.11 0-.17z" fill="#9b9b9b"/><path d="m20.29 30h1.48c.11 0 .21-.07.24-.18l1.95-6.82h-2l-1.91 6.68c-.05.16.07.32.24.32z" fill="#9b9b9b"/><path d="m25.94 25h-5.06c-1.63 0-2.94-1.32-2.94-2.94v-3.06h8z" fill="#ff8687"/><path d="m25.31 10h-.4428l-5.9941 2.2454-4.8831-3.09987c-.5829-.39222-1.0864-.90846-1.47-1.52553l-.22-.37-1.58 2.75h-4.72l.90972 5.0142 1.19866 1.9479.90908 3.076-.89368 1.4368c.33558.7707 1.03203 1.3312 1.86622 1.4851v6.79c0 .14.11.25.25.25h1.5c.14 0 .25-.11.25-.25v-2.75l.87-.44c.69-.35 1.13-1.05 1.13-1.82v-1.74h6.39c.61 0 1.16-.21 1.61-.55 0 1.5 1.02 2.81 2.48 3.17l1.53.38v3.75c0 .14.11.25.25.25h1.5c.14 0 .25-.11.25-.25v-9.46c.38-.25.71-.55 1-.89v4.61h1v-9.31c0-2.6-2.1-4.7-4.69-4.7z" fill="#d3d3d3"/><path d="m9.07001 4.47.52 1.03h1.49999l-.82-1.63c-.11-.23-.34999-.37-.59999-.37-.5 0-.82.52-.6.97z" fill="#f9c23c"/><path d="m10.0162 5h2.1244l-6.10518 8h-.35472l-3.0438-2.0608 1.4803-2.77904 3.79736-2.51178c.62048-.41895 1.35104-.64838 2.10164-.64838z" fill="#e6e6e6"/><g fill="#636363"><path d="m6.50343 9.6783-2.32179 3.2918c.1301.0199.2602.0299.40031.0299h4.45342c1.80143 0 3.26253-1.4564 3.26253-3.25187v-2.46384h.4103c1.261 0 2.2918-1.02743 2.2918-2.28429h-2.8322c-.5504 0-1.0808.1596-1.5512.44888l-3.94304 2.51371z"/><path d="m25.58 12.25-.43.43c-.73.73-1.15 1.73-1.15 2.77v1.05c0 .83.67 1.5 1.5 1.5s1.5-.67 1.5-1.5v-3.66c0-.74-.9-1.11-1.42-.59z"/><path d="m30 23c-1.1 0-2 .9-2 2 0 1.11.9 2 2 2z"/><path d="m13.61 16.46 3.14 2.36c.51.38.24 1.18-.39 1.18h-2.4c-.53 0-.96-.43-.96-.96v-2.27c0-.32.36-.5.61-.31z"/><path d="m6.90997 15 .36 2 .68 3.9c.05.29.15.56.29.8.19.34.65.4.93.13.53-.53.82-1.24.82-1.99v-.42c0-.25.10003-.49.27003-.67l.6-.63c.62-.64.61-1.66-.01-2.29-.52-.53-1.23003-.83-1.97003-.83z"/><path d="m24 20c0 .5523-.4477 1-1 1s-1-.4477-1-1 .4477-1 1-1 1 .4477 1 1z"/><path d="m23 13.32v1.98c0 1.49-1.21 2.7-2.72 2.71-.45 0-.89-.11-1.28-.32l-3.26-1.74c-1.08-.58-1.75-1.71-1.75-2.93v-3.86c.81.55 1.78.85 2.79.85h8.09l-1.14 1.33c-.47.55-.73 1.25-.73 1.98z"/></g><path d="m5.72286 13v-2.9726c0-1.16704-.85065-1.88525-1.58121-1.88525l-1.4311.95761c-.44034.29925-.71055.78803-.71055 1.32664 0 1.4265 1.16089 2.5736 2.58199 2.5736z" fill="#ff8687"/><path d="m7.5 10.47c-.28 0-.5-.23-.5-.50002v-.68c0-.28.22-.5.5-.5s.5.22.5.5v.68c0 .27002-.22.50002-.5.50002z" fill="#1c1c1c"/><path d="m3.5 11.56c-.28 0-.5-.22-.5-.5v-.56c0-.28.22-.5.5-.5s.5.22.5.5v.55c0 .28-.22.51-.5.51z" fill="#bb1d80"/></svg>