<svg fill="none" height="32" viewBox="0 0 32 32" width="32" xmlns="http://www.w3.org/2000/svg" xmlns:xlink="http://www.w3.org/1999/xlink"><filter id="a" color-interpolation-filters="sRGB" filterUnits="userSpaceOnUse" height="7.17588" width="8.47128" x="16.2206" y="3.89553"><feFlood flood-opacity="0" result="BackgroundImageFix"/><feBlend in="SourceGraphic" in2="BackgroundImageFix" mode="normal" result="shape"/><feColorMatrix in="SourceAlpha" result="hardAlpha" type="matrix" values="0 0 0 0 0 0 0 0 0 0 0 0 0 0 0 0 0 0 127 0"/><feOffset dx="1"/><feGaussianBlur stdDeviation=".5"/><feComposite in2="hardAlpha" k2="-1" k3="1" operator="arithmetic"/><feColorMatrix type="matrix" values="0 0 0 0 0.447059 0 0 0 0 0.262745 0 0 0 0 0.247059 0 0 0 1 0"/><feBlend in2="shape" mode="normal" result="effect1_innerShadow_3987_22981"/><feColorMatrix in="SourceAlpha" result="hardAlpha" type="matrix" values="0 0 0 0 0 0 0 0 0 0 0 0 0 0 0 0 0 0 127 0"/><feOffset dx=".15" dy="-.15"/><feGaussianBlur stdDeviation=".25"/><feComposite in2="hardAlpha" k2="-1" k3="1" operator="arithmetic"/><feColorMatrix type="matrix" values="0 0 0 0 0.529412 0 0 0 0 0.380392 0 0 0 0 0.34902 0 0 0 1 0"/><feBlend in2="effect1_innerShadow_3987_22981" mode="normal" result="effect2_innerShadow_3987_22981"/></filter><filter id="b" color-interpolation-filters="sRGB" filterUnits="userSpaceOnUse" height="14.1935" width="18.1866" x="6.90662" y="2.30037"><feFlood flood-opacity="0" result="BackgroundImageFix"/><feBlend in="SourceGraphic" in2="BackgroundImageFix" mode="normal" result="shape"/><feColorMatrix in="SourceAlpha" result="hardAlpha" type="matrix" values="0 0 0 0 0 0 0 0 0 0 0 0 0 0 0 0 0 0 127 0"/><feOffset dy="-.2"/><feGaussianBlur stdDeviation=".2"/><feComposite in2="hardAlpha" k2="-1" k3="1" operator="arithmetic"/><feColorMatrix type="matrix" values="0 0 0 0 0.568627 0 0 0 0 0.454902 0 0 0 0 0.647059 0 0 0 1 0"/><feBlend in2="shape" mode="normal" result="effect1_innerShadow_3987_22981"/></filter><filter id="c" color-interpolation-filters="sRGB" filterUnits="userSpaceOnUse" height="2.26953" width="4.79297" x="18.1771" y="27.934"><feFlood flood-opacity="0" result="BackgroundImageFix"/><feBlend in="SourceGraphic" in2="BackgroundImageFix" mode="normal" result="shape"/><feColorMatrix in="SourceAlpha" result="hardAlpha" type="matrix" values="0 0 0 0 0 0 0 0 0 0 0 0 0 0 0 0 0 0 127 0"/><feOffset dx=".5" dy="-.5"/><feGaussianBlur stdDeviation=".5"/><feComposite in2="hardAlpha" k2="-1" k3="1" operator="arithmetic"/><feColorMatrix type="matrix" values="0 0 0 0 0.262745 0 0 0 0 0.188235 0 0 0 0 0.341176 0 0 0 1 0"/><feBlend in2="shape" mode="normal" result="effect1_innerShadow_3987_22981"/></filter><filter id="d" color-interpolation-filters="sRGB" filterUnits="userSpaceOnUse" height="12.4766" width="8.9895" x="12.1605" y="15.9691"><feFlood flood-opacity="0" result="BackgroundImageFix"/><feBlend in="SourceGraphic" in2="BackgroundImageFix" mode="normal" result="shape"/><feColorMatrix in="SourceAlpha" result="hardAlpha" type="matrix" values="0 0 0 0 0 0 0 0 0 0 0 0 0 0 0 0 0 0 127 0"/><feOffset dx=".5"/><feGaussianBlur stdDeviation=".5"/><feComposite in2="hardAlpha" k2="-1" k3="1" operator="arithmetic"/><feColorMatrix type="matrix" values="0 0 0 0 0.67451 0 0 0 0 0.635294 0 0 0 0 0.686275 0 0 0 1 0"/><feBlend in2="shape" mode="normal" result="effect1_innerShadow_3987_22981"/></filter><filter id="e" color-interpolation-filters="sRGB" filterUnits="userSpaceOnUse" height="7.56687" width="7.55347" x="14.3505" y="3.85547"><feFlood flood-opacity="0" result="BackgroundImageFix"/><feBlend in="SourceGraphic" in2="BackgroundImageFix" mode="normal" result="shape"/><feColorMatrix in="SourceAlpha" result="hardAlpha" type="matrix" values="0 0 0 0 0 0 0 0 0 0 0 0 0 0 0 0 0 0 127 0"/><feOffset dx=".25" dy=".15"/><feGaussianBlur stdDeviation=".25"/><feComposite in2="hardAlpha" k2="-1" k3="1" operator="arithmetic"/><feColorMatrix type="matrix" values="0 0 0 0 0.435294 0 0 0 0 0.278431 0 0 0 0 0.239216 0 0 0 1 0"/><feBlend in2="shape" mode="normal" result="effect1_innerShadow_3987_22981"/><feColorMatrix in="SourceAlpha" result="hardAlpha" type="matrix" values="0 0 0 0 0 0 0 0 0 0 0 0 0 0 0 0 0 0 127 0"/><feOffset dy="-.25"/><feGaussianBlur stdDeviation=".25"/><feComposite in2="hardAlpha" k2="-1" k3="1" operator="arithmetic"/><feColorMatrix type="matrix" values="0 0 0 0 0.494118 0 0 0 0 0.309804 0 0 0 0 0.345098 0 0 0 1 0"/><feBlend in2="effect1_innerShadow_3987_22981" mode="normal" result="effect2_innerShadow_3987_22981"/></filter><filter id="f" color-interpolation-filters="sRGB" filterUnits="userSpaceOnUse" height="2.90918" width="3.39526" x="14.3129" y="8.43005"><feFlood flood-opacity="0" result="BackgroundImageFix"/><feBlend in="SourceGraphic" in2="BackgroundImageFix" mode="normal" result="shape"/><feColorMatrix in="SourceAlpha" result="hardAlpha" type="matrix" values="0 0 0 0 0 0 0 0 0 0 0 0 0 0 0 0 0 0 127 0"/><feOffset dy="-.25"/><feGaussianBlur stdDeviation=".25"/><feComposite in2="hardAlpha" k2="-1" k3="1" operator="arithmetic"/><feColorMatrix type="matrix" values="0 0 0 0 0.145098 0 0 0 0 0.4 0 0 0 0 0.835294 0 0 0 1 0"/><feBlend in2="shape" mode="normal" result="effect1_innerShadow_3987_22981"/></filter><filter id="g" color-interpolation-filters="sRGB" filterUnits="userSpaceOnUse" height="3.49683" width="1.78903" x="8.08682" y="12.5879"><feFlood flood-opacity="0" result="BackgroundImageFix"/><feBlend in="SourceGraphic" in2="BackgroundImageFix" mode="normal" result="shape"/><feGaussianBlur result="effect1_foregroundBlur_3987_22981" stdDeviation=".125"/></filter><filter id="h" color-interpolation-filters="sRGB" filterUnits="userSpaceOnUse" height="13.6007" width="2.60079" x="18.4275" y="15.4344"><feFlood flood-opacity="0" result="BackgroundImageFix"/><feBlend in="SourceGraphic" in2="BackgroundImageFix" mode="normal" result="shape"/><feGaussianBlur result="effect1_foregroundBlur_3987_22981" stdDeviation=".4"/></filter><filter id="i" color-interpolation-filters="sRGB" filterUnits="userSpaceOnUse" height="7.45312" width="2.5625" x="15.0248" y="16.8754"><feFlood flood-opacity="0" result="BackgroundImageFix"/><feBlend in="SourceGraphic" in2="BackgroundImageFix" mode="normal" result="shape"/><feGaussianBlur result="effect1_foregroundBlur_3987_22981" stdDeviation=".375"/></filter><filter id="j" color-interpolation-filters="sRGB" filterUnits="userSpaceOnUse" height="1.40857" width="1.6086" x="12.2082" y="6.49817"><feFlood flood-opacity="0" result="BackgroundImageFix"/><feBlend in="SourceGraphic" in2="BackgroundImageFix" mode="normal" result="shape"/><feColorMatrix in="SourceAlpha" result="hardAlpha" type="matrix" values="0 0 0 0 0 0 0 0 0 0 0 0 0 0 0 0 0 0 127 0"/><feOffset dx=".2"/><feGaussianBlur stdDeviation=".15"/><feComposite in2="hardAlpha" k2="-1" k3="1" operator="arithmetic"/><feColorMatrix type="matrix" values="0 0 0 0 0.517647 0 0 0 0 0.384314 0 0 0 0 0.34902 0 0 0 1 0"/><feBlend in2="shape" mode="normal" result="effect1_innerShadow_3987_22981"/></filter><filter id="k" color-interpolation-filters="sRGB" filterUnits="userSpaceOnUse" height="1.83948" width="1.83951" x="11.993" y="6.28271"><feFlood flood-opacity="0" result="BackgroundImageFix"/><feBlend in="SourceGraphic" in2="BackgroundImageFix" mode="normal" result="shape"/><feGaussianBlur result="effect1_foregroundBlur_3987_22981" stdDeviation=".25"/></filter><filter id="l" color-interpolation-filters="sRGB" filterUnits="userSpaceOnUse" height="1.65857" width="1.6586" x="15.6835" y="4.2417"><feFlood flood-opacity="0" result="BackgroundImageFix"/><feBlend in="SourceGraphic" in2="BackgroundImageFix" mode="normal" result="shape"/><feColorMatrix in="SourceAlpha" result="hardAlpha" type="matrix" values="0 0 0 0 0 0 0 0 0 0 0 0 0 0 0 0 0 0 127 0"/><feOffset dx=".25" dy="-.25"/><feGaussianBlur stdDeviation=".25"/><feComposite in2="hardAlpha" k2="-1" k3="1" operator="arithmetic"/><feColorMatrix type="matrix" values="0 0 0 0 0.482353 0 0 0 0 0.278431 0 0 0 0 0.372549 0 0 0 1 0"/><feBlend in2="shape" mode="normal" result="effect1_innerShadow_3987_22981"/></filter><filter id="m" color-interpolation-filters="sRGB" filterUnits="userSpaceOnUse" height="1.83948" width="1.83951" x="15.4679" y="4.27625"><feFlood flood-opacity="0" result="BackgroundImageFix"/><feBlend in="SourceGraphic" in2="BackgroundImageFix" mode="normal" result="shape"/><feGaussianBlur result="effect1_foregroundBlur_3987_22981" stdDeviation=".25"/></filter><filter id="n" color-interpolation-filters="sRGB" filterUnits="userSpaceOnUse" height="2.62439" width="2.26978" x="13.7595" y="5.31433"><feFlood flood-opacity="0" result="BackgroundImageFix"/><feBlend in="SourceGraphic" in2="BackgroundImageFix" mode="normal" result="shape"/><feGaussianBlur result="effect1_foregroundBlur_3987_22981" stdDeviation=".375"/></filter><filter id="o" color-interpolation-filters="sRGB" filterUnits="userSpaceOnUse" height="1.31743" width="1.10891" x="14.3431" y="5.87009"><feFlood flood-opacity="0" result="BackgroundImageFix"/><feBlend in="SourceGraphic" in2="BackgroundImageFix" mode="normal" result="shape"/><feGaussianBlur result="effect1_foregroundBlur_3987_22981" stdDeviation=".05"/></filter><filter id="p" color-interpolation-filters="sRGB" filterUnits="userSpaceOnUse" height=".472095" width=".371509" x="14.9646" y="5.29673"><feFlood flood-opacity="0" result="BackgroundImageFix"/><feBlend in="SourceGraphic" in2="BackgroundImageFix" mode="normal" result="shape"/><feGaussianBlur result="effect1_foregroundBlur_3987_22981" stdDeviation=".05"/></filter><filter id="q" color-interpolation-filters="sRGB" filterUnits="userSpaceOnUse" height=".617529" width=".616827" x="15.2362" y="5.11287"><feFlood flood-opacity="0" result="BackgroundImageFix"/><feBlend in="SourceGraphic" in2="BackgroundImageFix" mode="normal" result="shape"/><feGaussianBlur result="effect1_foregroundBlur_3987_22981" stdDeviation=".1"/></filter><filter id="r" color-interpolation-filters="sRGB" filterUnits="userSpaceOnUse" height=".657202" width=".668921" x="13.5989" y="6.02058"><feFlood flood-opacity="0" result="BackgroundImageFix"/><feBlend in="SourceGraphic" in2="BackgroundImageFix" mode="normal" result="shape"/><feGaussianBlur result="effect1_foregroundBlur_3987_22981" stdDeviation=".1"/></filter><filter id="s" color-interpolation-filters="sRGB" filterUnits="userSpaceOnUse" height=".491626" width=".423907" x="13.3738" y="6.18918"><feFlood flood-opacity="0" result="BackgroundImageFix"/><feBlend in="SourceGraphic" in2="BackgroundImageFix" mode="normal" result="shape"/><feGaussianBlur result="effect1_foregroundBlur_3987_22981" stdDeviation=".05"/></filter><filter id="t" color-interpolation-filters="sRGB" filterUnits="userSpaceOnUse" height=".998389" width="1.34665" x="14.4904" y="4.01174"><feFlood flood-opacity="0" result="BackgroundImageFix"/><feBlend in="SourceGraphic" in2="BackgroundImageFix" mode="normal" result="shape"/><feColorMatrix in="SourceAlpha" result="hardAlpha" type="matrix" values="0 0 0 0 0 0 0 0 0 0 0 0 0 0 0 0 0 0 127 0"/><feOffset dx=".25" dy="-.4"/><feGaussianBlur stdDeviation=".3"/><feComposite in2="hardAlpha" k2="-1" k3="1" operator="arithmetic"/><feColorMatrix type="matrix" values="0 0 0 0 0.156863 0 0 0 0 0.0784314 0 0 0 0 0.109804 0 0 0 1 0"/><feBlend in2="shape" mode="normal" result="effect1_innerShadow_3987_22981"/></filter><filter id="u" color-interpolation-filters="sRGB" filterUnits="userSpaceOnUse" height="1.30869" width="1.16122" x="12.7098" y="4.94387"><feFlood flood-opacity="0" result="BackgroundImageFix"/><feBlend in="SourceGraphic" in2="BackgroundImageFix" mode="normal" result="shape"/><feColorMatrix in="SourceAlpha" result="hardAlpha" type="matrix" values="0 0 0 0 0 0 0 0 0 0 0 0 0 0 0 0 0 0 127 0"/><feOffset dx=".25" dy="-.4"/><feGaussianBlur stdDeviation=".3"/><feComposite in2="hardAlpha" k2="-1" k3="1" operator="arithmetic"/><feColorMatrix type="matrix" values="0 0 0 0 0.156863 0 0 0 0 0.0784314 0 0 0 0 0.109804 0 0 0 1 0"/><feBlend in2="shape" mode="normal" result="effect1_innerShadow_3987_22981"/></filter><filter id="v" color-interpolation-filters="sRGB" filterUnits="userSpaceOnUse" height="2.62141" width="4.07648" x="11.9513" y="3.70879"><feFlood flood-opacity="0" result="BackgroundImageFix"/><feBlend in="SourceGraphic" in2="BackgroundImageFix" mode="normal" result="shape"/><feColorMatrix in="SourceAlpha" result="hardAlpha" type="matrix" values="0 0 0 0 0 0 0 0 0 0 0 0 0 0 0 0 0 0 127 0"/><feOffset dy="-.05"/><feGaussianBlur stdDeviation=".05"/><feComposite in2="hardAlpha" k2="-1" k3="1" operator="arithmetic"/><feColorMatrix type="matrix" values="0 0 0 0 0.160784 0 0 0 0 0.396078 0 0 0 0 0.721569 0 0 0 1 0"/><feBlend in2="shape" mode="normal" result="effect1_innerShadow_3987_22981"/></filter><linearGradient id="w" gradientUnits="userSpaceOnUse" x1="23.0134" x2="19.9562" y1="5.06653" y2="11.0715"><stop offset="0" stop-color="#82615c"/><stop offset=".798664" stop-color="#7d4f55"/></linearGradient><radialGradient id="x" cx="0" cy="0" gradientTransform="matrix(-4.12499402 2.68751119 -1.11874823 -1.71713882 19.3529 6.04731)" gradientUnits="userSpaceOnUse" r="1"><stop offset="0" stop-color="#a99797"/><stop offset="1" stop-color="#a99797" stop-opacity="0"/></radialGradient><linearGradient id="y" gradientUnits="userSpaceOnUse" x1="12.4935" x2="12.8217" y1="9.49714" y2="9.96918"><stop offset=".348988" stop-color="#b39fbc"/><stop offset="1" stop-color="#b39fbc" stop-opacity="0"/></linearGradient><radialGradient id="z" cx="0" cy="0" gradientTransform="matrix(1.43750193 -.06250051 .2362632 5.43401623 6.50916 13.6411)" gradientUnits="userSpaceOnUse" r="1"><stop offset="0" stop-color="#b8acbd"/><stop offset="1" stop-color="#b8acbd" stop-opacity="0"/></radialGradient><linearGradient id="A" gradientUnits="userSpaceOnUse" x1="24.9156" x2="22.775" y1="3.01606" y2="4.32856"><stop offset="0" stop-color="#533d66"/><stop offset="1" stop-color="#482a5b"/></linearGradient><linearGradient id="B" gradientUnits="userSpaceOnUse" x1="23.8844" x2="23.6188" y1="4.01606" y2="3.48481"><stop offset="0" stop-color="#482c58"/><stop offset="1" stop-color="#482c58" stop-opacity="0"/></linearGradient><radialGradient id="C" cx="0" cy="0" gradientTransform="matrix(-.27343771 .16015563 -.21807463 -.37232426 24.8414 2.89497)" gradientUnits="userSpaceOnUse" r="1"><stop offset=".181008" stop-color="#615273"/><stop offset="1" stop-color="#615273" stop-opacity="0"/></radialGradient><linearGradient id="D" gradientUnits="userSpaceOnUse" x1="12.6967" x2="12.6967" y1="30.3519" y2="29.6801"><stop offset="0" stop-color="#442563"/><stop offset="1" stop-color="#442563" stop-opacity="0"/></linearGradient><radialGradient id="E" cx="0" cy="0" gradientTransform="matrix(-.87499686 -.46875637 .24583419 -.45888261 14.1342 29.5004)" gradientUnits="userSpaceOnUse" r="1"><stop offset="0" stop-color="#403451"/><stop offset="1" stop-color="#403451" stop-opacity="0"/></radialGradient><radialGradient id="F" cx="0" cy="0" gradientTransform="matrix(-.7656242 .85156633 -1.15841992 -1.04150939 12.7435 26.9926)" gradientUnits="userSpaceOnUse" r="1"><stop offset=".115085" stop-color="#271938"/><stop offset="1" stop-color="#271938" stop-opacity="0"/></radialGradient><radialGradient id="G" cx="0" cy="0" gradientTransform="matrix(.81250042 .15624968 -.58593537 3.04687168 11.3685 28.391)" gradientUnits="userSpaceOnUse" r="1"><stop offset="0" stop-color="#655e6d"/><stop offset="1" stop-color="#655e6d" stop-opacity="0"/></radialGradient><linearGradient id="H" gradientUnits="userSpaceOnUse" x1="20.4781" x2="19.8844" y1="22.891" y2="22.8597"><stop offset="0" stop-color="#a19ca8"/><stop offset="1" stop-color="#a49faa" stop-opacity="0"/></linearGradient><radialGradient id="I" cx="0" cy="0" gradientTransform="matrix(2.71875153 -2.53125218 .8125781 .87276881 13.1656 27.9535)" gradientUnits="userSpaceOnUse" r="1"><stop offset="0" stop-color="#937da8"/><stop offset="1" stop-color="#937da8" stop-opacity="0"/></radialGradient><radialGradient id="J" cx="0" cy="0" gradientTransform="matrix(2.54687604 -2.64063039 .28940106 .27912601 12.275 26.2972)" gradientUnits="userSpaceOnUse" r="1"><stop offset=".284564" stop-color="#9f9c9d"/><stop offset="1" stop-color="#9f9c9d" stop-opacity="0"/></radialGradient><radialGradient id="K" cx="0" cy="0" gradientTransform="matrix(-.765625 0 0 -5.02098 17.3688 21.641)" gradientUnits="userSpaceOnUse" r="1"><stop offset=".000540103" stop-color="#827a8b"/><stop offset="1" stop-color="#827a8b" stop-opacity="0"/></radialGradient><radialGradient id="L" cx="0" cy="0" gradientTransform="matrix(.04687479 -.98437457 1.15192471 .05485334 17.6188 18.3129)" gradientUnits="userSpaceOnUse" r="1"><stop offset=".153846" stop-color="#7f5d9d"/><stop offset="1" stop-color="#9c8cad" stop-opacity="0"/></radialGradient><radialGradient id="M" cx="0" cy="0" gradientTransform="matrix(.78125 0 0 7.6823 17.9781 23.0004)" gradientUnits="userSpaceOnUse" r="1"><stop offset="0" stop-color="#5d5467"/><stop offset="1" stop-color="#8c7e97" stop-opacity="0"/></radialGradient><radialGradient id="N" cx="0" cy="0" gradientTransform="matrix(3.40625323 -3.34375332 1.207937 1.2305152 13.6656 28.016)" gradientUnits="userSpaceOnUse" r="1"><stop offset="0" stop-color="#8c6fa7"/><stop offset="1" stop-color="#8c6fa7" stop-opacity="0"/></radialGradient><radialGradient id="O" cx="0" cy="0" gradientTransform="matrix(-3.84376694 2.18746962 -3.04633914 -5.35295099 19.7906 9.98472)" gradientUnits="userSpaceOnUse" r="1"><stop offset="0" stop-color="#53aff7"/><stop offset="1" stop-color="#347fda"/></radialGradient><radialGradient id="P" cx="0" cy="0" gradientTransform="matrix(.57403575 2.7380126 -4.62680811 .9700296 17.2791 7.27795)" gradientUnits="userSpaceOnUse" r="1"><stop offset=".305939" stop-color="#3090bc"/><stop offset="1" stop-color="#3090bc" stop-opacity="0"/></radialGradient><linearGradient id="Q" gradientUnits="userSpaceOnUse" x1="17.2791" x2="17.2791" y1="16.2972" y2="13.1097"><stop offset=".0392156" stop-color="#366bc5"/><stop offset="1" stop-color="#366bc5" stop-opacity="0"/></linearGradient><radialGradient id="R" cx="0" cy="0" gradientTransform="matrix(.87500212 1.59375052 -2.60061445 1.42779132 15.2906 7.98472)" gradientUnits="userSpaceOnUse" r="1"><stop offset=".284934" stop-color="#246c9d"/><stop offset="1" stop-color="#246c9d" stop-opacity="0"/></radialGradient><radialGradient id="S" cx="0" cy="0" gradientTransform="matrix(1.71874898 -.01562501 .05880882 6.46896269 13.4781 10.391)" gradientUnits="userSpaceOnUse" r="1"><stop offset="0" stop-color="#56a2e0"/><stop offset="1" stop-color="#56a2e0" stop-opacity="0"/></radialGradient><linearGradient id="T"><stop offset=".183294" stop-color="#8c6d67"/><stop offset="1" stop-color="#794b50"/></linearGradient><radialGradient id="U" cx="0" cy="0" gradientTransform="matrix(-.64636255 .00474945 -.00630515 -.85808084 21.7606 4.47083)" gradientUnits="userSpaceOnUse" r="1" xlink:href="#T"/><radialGradient id="V" cx="0" cy="0" gradientTransform="matrix(-.64636255 .00474945 -.00630515 -.85808084 22.2796 4.22473)" gradientUnits="userSpaceOnUse" r="1" xlink:href="#T"/><radialGradient id="W" cx="0" cy="0" gradientTransform="matrix(-.64636255 .00474945 -.00630515 -.85808084 22.8489 3.97083)" gradientUnits="userSpaceOnUse" r="1" xlink:href="#T"/><radialGradient id="X" cx="0" cy="0" gradientTransform="matrix(-.02456748 .47351911 -.46721459 -.02424038 22.3692 4.48596)" gradientUnits="userSpaceOnUse" r="1"><stop offset="0" stop-color="#876b66"/><stop offset="1" stop-color="#79534a"/></radialGradient><radialGradient id="Y" cx="0" cy="0" gradientTransform="matrix(3.80387969 .30087156 -.62375166 7.88601034 17.5762 5.62537)" gradientUnits="userSpaceOnUse" r="1"><stop offset=".628834" stop-color="#917169" stop-opacity="0"/><stop offset="1" stop-color="#917169"/></radialGradient><linearGradient id="Z" gradientUnits="userSpaceOnUse" x1="16.0105" x2="16.0105" y1="8.68005" y2="10.891"><stop offset="0" stop-color="#2d9de0"/><stop offset="1" stop-color="#3083ea"/></linearGradient><radialGradient id="aa" cx="0" cy="0" gradientTransform="matrix(1.71875302 .21242226 -.56202855 4.54749081 14.0406 9.79724)" gradientUnits="userSpaceOnUse" r="1"><stop offset=".204232" stop-color="#579fde"/><stop offset="1" stop-color="#579fde" stop-opacity="0"/></radialGradient><radialGradient id="ab" cx="0" cy="0" gradientTransform="matrix(.04687471 .51562473 -1.98830088 .18075361 16.1813 8.78162)" gradientUnits="userSpaceOnUse" r="1"><stop offset="0" stop-color="#2f89b9"/><stop offset="1" stop-color="#2f89b9" stop-opacity="0"/></radialGradient><linearGradient id="ac" gradientUnits="userSpaceOnUse" x1="19.7435" x2="19.7435" y1="16.9222" y2="27.8285"><stop offset="0" stop-color="#a89eb3"/><stop offset="1" stop-color="#a599b3"/></linearGradient><linearGradient id="ad" gradientUnits="userSpaceOnUse" x1="16.306" x2="16.306" y1="18.3597" y2="24.9222"><stop offset="0" stop-color="#a59ab1"/><stop offset="1" stop-color="#a59ab1" stop-opacity="0"/></linearGradient><radialGradient id="ae" cx="0" cy="0" gradientTransform="matrix(.740212 0 0 1.29538 12.2083 7.20245)" gradientUnits="userSpaceOnUse" r="1"><stop offset=".350532" stop-color="#664249"/><stop offset="1" stop-color="#613641"/></radialGradient><linearGradient id="af" gradientUnits="userSpaceOnUse" x1="12.9128" x2="12.6426" y1="7.31998" y2="7.31998"><stop offset="0" stop-color="#553038"/><stop offset="1" stop-color="#59323c"/></linearGradient><linearGradient id="ag" gradientUnits="userSpaceOnUse" x1="16.8461" x2="16.5008" y1="4.73556" y2="5.80538"><stop offset="0" stop-color="#96776b"/><stop offset="1" stop-color="#855a5b"/></linearGradient><radialGradient id="ah" cx="0" cy="0" gradientTransform="matrix(.34870848 -.25391361 .28980933 .39800533 16.5448 5.08427)" gradientUnits="userSpaceOnUse" r="1"><stop offset=".542503" stop-color="#7c524c"/><stop offset="1" stop-color="#7c524c" stop-opacity="0"/></radialGradient><radialGradient id="ai" cx="0" cy="0" gradientTransform="matrix(.34641275 -.63715078 .3729271 .20275687 16.3702 5.54239)" gradientUnits="userSpaceOnUse" r="1"><stop offset=".754913" stop-color="#73443e" stop-opacity="0"/><stop offset=".915553" stop-color="#73443e"/></radialGradient><radialGradient id="aj" cx="0" cy="0" gradientTransform="matrix(.10936967 .10825941 -.1395612 .14099249 16.3876 5.19597)" gradientUnits="userSpaceOnUse" r="1"><stop offset="0" stop-color="#6c443e"/><stop offset="1" stop-color="#6c443e" stop-opacity="0"/></radialGradient><linearGradient id="ak" gradientUnits="userSpaceOnUse" x1="16.2054" x2="13.665" y1="5.49098" y2="7.5074"><stop offset="0" stop-color="#9b6c5e"/><stop offset="1" stop-color="#744d4a"/></linearGradient><radialGradient id="al" cx="0" cy="0" gradientTransform="matrix(-.275667 -.47746925 .58517683 -.337852 15.2404 5.23914)" gradientUnits="userSpaceOnUse" r="1"><stop offset="0" stop-color="#855354"/><stop offset="1" stop-color="#855354" stop-opacity="0"/></radialGradient><radialGradient id="am" cx="0" cy="0" gradientTransform="matrix(-.2898035 -.50195439 .62159493 -.358878 13.6106 6.24536)" gradientUnits="userSpaceOnUse" r="1"><stop offset="0" stop-color="#6f414d"/><stop offset="1" stop-color="#6f414d" stop-opacity="0"/></radialGradient><linearGradient id="an" gradientUnits="userSpaceOnUse" x1="13.3431" x2="14.0135" y1="8.45662" y2="8.0372"><stop offset="0" stop-color="#84615a"/><stop offset="1" stop-color="#84615a" stop-opacity="0"/></linearGradient><linearGradient id="ao" gradientUnits="userSpaceOnUse" x1="16.8986" x2="16.4935" y1="5.99577" y2="6.18108"><stop offset="0" stop-color="#966d5f"/><stop offset="1" stop-color="#966d5f" stop-opacity="0"/></linearGradient><radialGradient id="ap" cx="0" cy="0" gradientTransform="matrix(1.86576 3.23159111 -4.36822348 2.521995 14.1712 5.61154)" gradientUnits="userSpaceOnUse" r="1"><stop offset=".618855" stop-color="#714250" stop-opacity="0"/><stop offset="1" stop-color="#5f3e52"/></radialGradient><radialGradient id="aq" cx="0" cy="0" gradientTransform="matrix(.91759 1.5893125 -2.34635727 1.35467 13.9563 4.89088)" gradientUnits="userSpaceOnUse" r="1"><stop offset=".153846" stop-color="#563450"/><stop offset="1" stop-color="#633e4f" stop-opacity="0"/></radialGradient><linearGradient id="ar" gradientUnits="userSpaceOnUse" x1="14.5527" x2="14.8954" y1="6.76645" y2="6.56858"><stop offset="0" stop-color="#754e46"/><stop offset="1" stop-color="#754e46" stop-opacity="0"/></linearGradient><linearGradient id="as" gradientUnits="userSpaceOnUse" x1="15.2792" x2="14.9014" y1="6.50408" y2="6.71504"><stop offset="0" stop-color="#9d766b"/><stop offset="1" stop-color="#9d766b" stop-opacity="0"/></linearGradient><linearGradient id="at" gradientUnits="userSpaceOnUse" x1="15.164" x2="15.0432" y1="6.93213" y2="6.72281"><stop offset="0" stop-color="#7c4559"/><stop offset="1" stop-color="#7c4559" stop-opacity="0"/></linearGradient><radialGradient id="au" cx="0" cy="0" gradientTransform="matrix(.04152675 .07192644 -.23108242 .1334155 15.1056 6.71898)" gradientUnits="userSpaceOnUse" r="1"><stop offset="0" stop-color="#976f6a"/><stop offset="1" stop-color="#976f6a" stop-opacity="0"/></radialGradient><linearGradient id="av" gradientUnits="userSpaceOnUse" x1="14.5275" x2="14.8102" y1="5.99374" y2="6.48345"><stop offset="0" stop-color="#764e53"/><stop offset="1" stop-color="#764e53" stop-opacity="0"/></linearGradient><linearGradient id="aw" gradientUnits="userSpaceOnUse" x1="15.0544" x2="15.0683" y1="7.7818" y2="7.43891"><stop offset="0" stop-color="#865e63"/><stop offset=".663171" stop-color="#865e63" stop-opacity="0"/></linearGradient><linearGradient id="ax"><stop offset=".80198" stop-color="#7d574a"/><stop offset="1" stop-color="#694b43"/><stop offset="1" stop-color="#804d49"/><stop offset="1" stop-color="#664944"/></linearGradient><radialGradient id="ay" cx="0" cy="0" gradientTransform="matrix(.17107 .29630193 -.47130142 .272106 15.299 5.49245)" gradientUnits="userSpaceOnUse" r="1" xlink:href="#ax"/><linearGradient id="az"><stop offset=".765532" stop-color="#ffe6e2" stop-opacity="0"/><stop offset=".966159" stop-color="#ffe6e2"/></linearGradient><radialGradient id="aA" cx="0" cy="0" gradientTransform="matrix(-.14771398 -.06024487 .08294258 -.20336633 15.2335 5.57131)" gradientUnits="userSpaceOnUse" r="1" xlink:href="#az"/><linearGradient id="aB"><stop offset="0" stop-color="#b4948d"/><stop offset="1" stop-color="#b4948d" stop-opacity="0"/></linearGradient><linearGradient id="aC" gradientUnits="userSpaceOnUse" x1="15.5947" x2="15.5208" xlink:href="#aB" y1="5.34797" y2="5.48473"/><radialGradient id="aD" cx="0" cy="0" gradientTransform="matrix(.171079 .29631752 -.47132567 .27212 13.7052 6.41249)" gradientUnits="userSpaceOnUse" r="1" xlink:href="#ax"/><linearGradient id="aE" gradientUnits="userSpaceOnUse" x1="13.9883" x2="13.9145" xlink:href="#aB" y1="6.27541" y2="6.41218"/><radialGradient id="aF" cx="0" cy="0" gradientTransform="matrix(-.00325608 -.20796451 .24998136 -.00391393 13.5794 6.5676)" gradientUnits="userSpaceOnUse" r="1" xlink:href="#az"/><linearGradient id="aG" gradientUnits="userSpaceOnUse" x1="12.3636" x2="12.1836" y1="6.4988" y2="6.60268"><stop offset="0" stop-color="#1e191c"/><stop offset="1" stop-color="#463f3d"/></linearGradient><linearGradient id="aH" gradientUnits="userSpaceOnUse" x1="16.0798" x2="16.2598" y1="4.35324" y2="4.24935"><stop offset=".54842" stop-color="#252224"/><stop offset="1" stop-color="#5b5a5a"/></linearGradient><radialGradient id="aI" cx="0" cy="0" gradientTransform="matrix(2.7062928 -1.79283245 6.643532 10.02845686 12.5341 5.98845)" gradientUnits="userSpaceOnUse" r="1"><stop offset="0" stop-color="#3e82bc"/><stop offset="1" stop-color="#1d78b8"/></radialGradient><radialGradient id="aJ" cx="0" cy="0" gradientTransform="matrix(-.0176539 -.62957853 1.11578142 -.03128743 15.1102 4.60881)" gradientUnits="userSpaceOnUse" r="1"><stop offset="0" stop-color="#3386c4"/><stop offset="1" stop-color="#3386c4" stop-opacity="0"/></radialGradient><radialGradient id="aK" cx="0" cy="0" gradientTransform="matrix(-2.48517117 1.25284697 -1.19452414 -2.36948089 14.7775 3.97063)" gradientUnits="userSpaceOnUse" r="1"><stop offset="0" stop-color="#30a2e5"/><stop offset="1" stop-color="#1b96dc"/></radialGradient><radialGradient id="aL" cx="0" cy="0" gradientTransform="matrix(.09030825 -2.39680926 3.7135849 .13992242 12.1876 5.98252)" gradientUnits="userSpaceOnUse" r="1"><stop offset="0" stop-color="#4199e0"/><stop offset="1" stop-color="#4199e0" stop-opacity="0"/></radialGradient><radialGradient id="aM" cx="0" cy="0" gradientTransform="matrix(-.4403033 -.91701157 2.0277491 -.97362415 13.8408 4.83353)" gradientUnits="userSpaceOnUse" r="1"><stop offset=".154606" stop-color="#1a7ccc"/><stop offset="1" stop-color="#1a7ccc" stop-opacity="0"/></radialGradient><radialGradient id="aN" cx="0" cy="0" gradientTransform="matrix(.34553505 .52587281 -2.85459844 1.87566991 12.781 2.98878)" gradientUnits="userSpaceOnUse" r="1"><stop offset="0" stop-color="#4195cb"/><stop offset="1" stop-color="#4195cb" stop-opacity="0"/></radialGradient><g filter="url(#a)"><path clip-rule="evenodd" d="m20.9613 7.80422c.8521-1.08214.4807-2.21322.2188-2.67718l1.9158-1.08151c.4673.82771 1.2418 3.02684-.4061 5.1197-.8899 1.13017-2.3305 1.56667-3.484 1.75277-1.1983.1932-2.3698.1584-2.9852.1347l.0849-2.19841c.5981.02311 1.5828.04771 2.55-.10827 1.0118-.16318 1.7457-.4845 2.1058-.9418z" fill="url(#w)" fill-rule="evenodd"/></g><g filter="url(#b)"><path d="m8.94826 12.9141c-.16382.0975-.21941.3083-.12503.474l.88034 1.5453c.27337.4798.10597 1.0905-.3739 1.3639l-.11477.0653c-.47988.2734-1.09051.106-1.36389-.3739l-.72779-1.2775c-.45107-.7918-.17486-1.7993.61694-2.2504l.34253-.1951 16.30351-9.70895c.1898-.11303.4353-.05079.5483.13902l.1024.17183c.113.18981.0507.43531-.1391.54834z" fill="#afa2b8"/><path d="m8.94826 12.9141c-.16382.0975-.21941.3083-.12503.474l.88034 1.5453c.27337.4798.10597 1.0905-.3739 1.3639l-.11477.0653c-.47988.2734-1.09051.106-1.36389-.3739l-.72779-1.2775c-.45107-.7918-.17486-1.7993.61694-2.2504l.34253-.1951 16.30351-9.70895c.1898-.11303.4353-.05079.5483.13902l.1024.17183c.113.18981.0507.43531-.1391.54834z" fill="url(#x)"/><path d="m8.94826 12.9141c-.16382.0975-.21941.3083-.12503.474l.88034 1.5453c.27337.4798.10597 1.0905-.3739 1.3639l-.11477.0653c-.47988.2734-1.09051.106-1.36389-.3739l-.72779-1.2775c-.45107-.7918-.17486-1.7993.61694-2.2504l.34253-.1951 16.30351-9.70895c.1898-.11303.4353-.05079.5483.13902l.1024.17183c.113.18981.0507.43531-.1391.54834z" fill="url(#y)"/></g><path d="m8.94826 12.9141c-.16382.0975-.21941.3083-.12503.474l.88034 1.5453c.27337.4798.10597 1.0905-.3739 1.3639l-.11477.0653c-.47988.2734-1.09051.106-1.36389-.3739l-.72779-1.2775c-.45107-.7918-.17486-1.7993.61694-2.2504l.34253-.1951 16.30351-9.70895c.1898-.11303.4353-.05079.5483.13902l.1024.17183c.113.18981.0507.43531-.1391.54834z" fill="url(#z)"/><path d="m21.765 5.28172-.5-.86608 3.1215-1.85889c.1898-.11303.4353-.05079.5483.13902l.1023.17183c.113.18981.0508.43531-.139.54834z" fill="url(#A)"/><path d="m21.765 5.28172-.5-.86608 3.1215-1.85889c.1898-.11303.4353-.05079.5483.13902l.1023.17183c.113.18981.0508.43531-.139.54834z" fill="url(#B)"/><path d="m21.765 5.28172-.5-.86608 3.1215-1.85889c.1898-.11303.4353-.05079.5483.13902l.1023.17183c.113.18981.0508.43531-.139.54834z" fill="url(#C)"/><g filter="url(#c)"><path d="m18.1771 30.2035v-1.7695h2.1602c.164.1562.789.5507 1.5039.7812.4937.1313.625.4883.6289.6211v.3672z" fill="#4c3765"/></g><path d="m11.5951 27.8129c0-.8063.4583-1.1589.6875-1.2344l1.3672 1.1797v1.2831c0 .1519.069.2956.1876.3904l.203.1624c.1276.0938.2969.2383.25.4141-.082.1719-.25.1953-.5391.1953h-1.5062c-.359 0-.65-.2908-.65-.6498z" fill="#47385d"/><path d="m11.5951 27.8129c0-.8063.4583-1.1589.6875-1.2344l1.3672 1.1797v1.2831c0 .1519.069.2956.1876.3904l.203.1624c.1276.0938.2969.2383.25.4141-.082.1719-.25.1953-.5391.1953h-1.5062c-.359 0-.65-.2908-.65-.6498z" fill="url(#D)"/><path d="m11.5951 27.8129c0-.8063.4583-1.1589.6875-1.2344l1.3672 1.1797v1.2831c0 .1519.069.2956.1876.3904l.203.1624c.1276.0938.2969.2383.25.4141-.082.1719-.25.1953-.5391.1953h-1.5062c-.359 0-.65-.2908-.65-.6498z" fill="url(#E)"/><path d="m11.5951 27.8129c0-.8063.4583-1.1589.6875-1.2344l1.3672 1.1797v1.2831c0 .1519.069.2956.1876.3904l.203.1624c.1276.0938.2969.2383.25.4141-.082.1719-.25.1953-.5391.1953h-1.5062c-.359 0-.65-.2908-.65-.6498z" fill="url(#F)"/><path d="m11.5951 27.8129c0-.8063.4583-1.1589.6875-1.2344l1.3672 1.1797v1.2831c0 .1519.069.2956.1876.3904l.203.1624c.1276.0938.2969.2383.25.4141-.082.1719-.25.1953-.5391.1953h-1.5062c-.359 0-.65-.2908-.65-.6498z" fill="url(#G)"/><g filter="url(#d)"><path d="m14.5219 23.9714c.1822-.1916.281-.4475.275-.7118l-.1664-7.2905h6.0195l-.3125 12.4766h-2.1562l-.2592-10.002c-.0036-.138-.1165-.248-.2546-.248-.1364 0-.2486.107-.2542.2433-.049 1.1957-.1304 3.4546-.1304 4.5848 0 1.2125-.6928 2.2135-1.0391 2.5625l-2.4728 2.2877c-.0866.0801-.205.1191-.3168.0815-.1947-.0654-.4682-.2011-.7182-.4239-.2522-.2246-.4385-.5527-.5466-.7949-.0596-.1335-.0236-.2866.0772-.3927z" fill="#9785a9"/></g><path d="m14.5219 23.9714c.1822-.1916.281-.4475.275-.7118l-.1664-7.2905h6.0195l-.3125 12.4766h-2.1562l-.2592-10.002c-.0036-.138-.1165-.248-.2546-.248-.1364 0-.2486.107-.2542.2433-.049 1.1957-.1304 3.4546-.1304 4.5848 0 1.2125-.6928 2.2135-1.0391 2.5625l-2.4728 2.2877c-.0866.0801-.205.1191-.3168.0815-.1947-.0654-.4682-.2011-.7182-.4239-.2522-.2246-.4385-.5527-.5466-.7949-.0596-.1335-.0236-.2866.0772-.3927z" fill="url(#H)"/><path d="m14.5219 23.9714c.1822-.1916.281-.4475.275-.7118l-.1664-7.2905h6.0195l-.3125 12.4766h-2.1562l-.2592-10.002c-.0036-.138-.1165-.248-.2546-.248-.1364 0-.2486.107-.2542.2433-.049 1.1957-.1304 3.4546-.1304 4.5848 0 1.2125-.6928 2.2135-1.0391 2.5625l-2.4728 2.2877c-.0866.0801-.205.1191-.3168.0815-.1947-.0654-.4682-.2011-.7182-.4239-.2522-.2246-.4385-.5527-.5466-.7949-.0596-.1335-.0236-.2866.0772-.3927z" fill="url(#I)"/><path d="m14.5219 23.9714c.1822-.1916.281-.4475.275-.7118l-.1664-7.2905h6.0195l-.3125 12.4766h-2.1562l-.2592-10.002c-.0036-.138-.1165-.248-.2546-.248-.1364 0-.2486.107-.2542.2433-.049 1.1957-.1304 3.4546-.1304 4.5848 0 1.2125-.6928 2.2135-1.0391 2.5625l-2.4728 2.2877c-.0866.0801-.205.1191-.3168.0815-.1947-.0654-.4682-.2011-.7182-.4239-.2522-.2246-.4385-.5527-.5466-.7949-.0596-.1335-.0236-.2866.0772-.3927z" fill="url(#J)"/><path d="m14.5219 23.9714c.1822-.1916.281-.4475.275-.7118l-.1664-7.2905h6.0195l-.3125 12.4766h-2.1562l-.2592-10.002c-.0036-.138-.1165-.248-.2546-.248-.1364 0-.2486.107-.2542.2433-.049 1.1957-.1304 3.4546-.1304 4.5848 0 1.2125-.6928 2.2135-1.0391 2.5625l-2.4728 2.2877c-.0866.0801-.205.1191-.3168.0815-.1947-.0654-.4682-.2011-.7182-.4239-.2522-.2246-.4385-.5527-.5466-.7949-.0596-.1335-.0236-.2866.0772-.3927z" fill="url(#K)"/><path d="m14.5219 23.9714c.1822-.1916.281-.4475.275-.7118l-.1664-7.2905h6.0195l-.3125 12.4766h-2.1562l-.2592-10.002c-.0036-.138-.1165-.248-.2546-.248-.1364 0-.2486.107-.2542.2433-.049 1.1957-.1304 3.4546-.1304 4.5848 0 1.2125-.6928 2.2135-1.0391 2.5625l-2.4728 2.2877c-.0866.0801-.205.1191-.3168.0815-.1947-.0654-.4682-.2011-.7182-.4239-.2522-.2246-.4385-.5527-.5466-.7949-.0596-.1335-.0236-.2866.0772-.3927z" fill="url(#L)"/><path d="m14.5219 23.9714c.1822-.1916.281-.4475.275-.7118l-.1664-7.2905h6.0195l-.3125 12.4766h-2.1562l-.2592-10.002c-.0036-.138-.1165-.248-.2546-.248-.1364 0-.2486.107-.2542.2433-.049 1.1957-.1304 3.4546-.1304 4.5848 0 1.2125-.6928 2.2135-1.0391 2.5625l-2.4728 2.2877c-.0866.0801-.205.1191-.3168.0815-.1947-.0654-.4682-.2011-.7182-.4239-.2522-.2246-.4385-.5527-.5466-.7949-.0596-.1335-.0236-.2866.0772-.3927z" fill="url(#M)"/><path d="m14.5219 23.9714c.1822-.1916.281-.4475.275-.7118l-.1664-7.2905h6.0195l-.3125 12.4766h-2.1562l-.2592-10.002c-.0036-.138-.1165-.248-.2546-.248-.1364 0-.2486.107-.2542.2433-.049 1.1957-.1304 3.4546-.1304 4.5848 0 1.2125-.6928 2.2135-1.0391 2.5625l-2.4728 2.2877c-.0866.0801-.205.1191-.3168.0815-.1947-.0654-.4682-.2011-.7182-.4239-.2522-.2246-.4385-.5527-.5466-.7949-.0596-.1335-.0236-.2866.0772-.3927z" fill="url(#N)"/><path d="m13.9271 9.85972c.1758-1.28516.7031-1.86198 1-2.07031.51-.35791 1.6641-.94531 3.336 0 1.7578 1.09375 2.4036 4.05729 2.3749 5.37499v2.8047h-6v-3.2422c0-.4875-.1054-.7422-.2578-.9609-.1444-.2578-.5195-.9805-.4531-1.90628z" fill="url(#O)"/><path d="m13.9271 9.85972c.1758-1.28516.7031-1.86198 1-2.07031.51-.35791 1.6641-.94531 3.336 0 1.7578 1.09375 2.4036 4.05729 2.3749 5.37499v2.8047h-6v-3.2422c0-.4875-.1054-.7422-.2578-.9609-.1444-.2578-.5195-.9805-.4531-1.90628z" fill="url(#P)"/><path d="m13.9271 9.85972c.1758-1.28516.7031-1.86198 1-2.07031.51-.35791 1.6641-.94531 3.336 0 1.7578 1.09375 2.4036 4.05729 2.3749 5.37499v2.8047h-6v-3.2422c0-.4875-.1054-.7422-.2578-.9609-.1444-.2578-.5195-.9805-.4531-1.90628z" fill="url(#Q)"/><path d="m13.9271 9.85972c.1758-1.28516.7031-1.86198 1-2.07031.51-.35791 1.6641-.94531 3.336 0 1.7578 1.09375 2.4036 4.05729 2.3749 5.37499v2.8047h-6v-3.2422c0-.4875-.1054-.7422-.2578-.9609-.1444-.2578-.5195-.9805-.4531-1.90628z" fill="url(#R)"/><path d="m13.9271 9.85972c.1758-1.28516.7031-1.86198 1-2.07031.51-.35791 1.6641-.94531 3.336 0 1.7578 1.09375 2.4036 4.05729 2.3749 5.37499v2.8047h-6v-3.2422c0-.4875-.1054-.7422-.2578-.9609-.1444-.2578-.5195-.9805-.4531-1.90628z" fill="url(#S)"/><rect fill="#6f4d40" height="1.15669" rx=".346037" transform="matrix(.8927172 -.45061736 .45061736 .8927172 .384951 9.74142)" width=".692073" x="20.6508" y="4.06226"/><rect fill="url(#U)" height="1.15669" rx=".346037" transform="matrix(.8927172 -.45061736 .45061736 .8927172 .54858 9.908926)" width=".692073" x="21.0844" y="3.80237"/><rect fill="url(#V)" height="1.15669" rx=".346037" transform="matrix(.8927172 -.45061736 .45061736 .8927172 .715156 10.116394)" width=".692073" x="21.6034" y="3.55627"/><rect fill="url(#W)" height="1.15669" rx=".346037" transform="matrix(.8927172 -.45061736 .45061736 .8927172 .890644 10.345691)" width=".692073" x="22.1727" y="3.30237"/><rect fill="url(#X)" height="1.25169" rx=".368697" transform="matrix(.5 .8660254 -.8660254 .5 14.741025 -16.864964)" width=".737393" x="21.976" y="4.33362"/><g filter="url(#e)"><path d="m19.3174 6.01585c.0133-.07152.0157-.16031-.0154-.25371-.0594-.17812-.1758-.42317-.2266-.52343-.0195-.08855-.025-.29063.1094-.39063s.28-.07812.336-.05469c.013-.0651.0726-.21328.207-.28515.1344-.07188.2982-.02995.3633 0 .0182-.06641.0898-.2086.2304-.2461.1407-.0375.2956.02344.3555.0586.0404-.07552.1688-.22422.3594-.21485.2383.01172.375.26172.4101.44922.0352.1875.0938.43359.1524.57813.0586.14453.1172.60546-.0899 1.19921l-.001-.00011c-.4537 1.88456-1.4918 3.10325-2.6637 3.85336-1.1841.7579-2.4543 1.0082-3.2973 1.0824-.6052.0532-1.139-.3942-1.1922-.9993-.0533-.60522.3941-1.13899.9993-1.19226.6361-.056 1.5222-.24327 2.3042-.7438.6823-.43672 1.3267-1.13523 1.6591-2.31689z" fill="#7c564f"/><path d="m19.3174 6.01585c.0133-.07152.0157-.16031-.0154-.25371-.0594-.17812-.1758-.42317-.2266-.52343-.0195-.08855-.025-.29063.1094-.39063s.28-.07812.336-.05469c.013-.0651.0726-.21328.207-.28515.1344-.07188.2982-.02995.3633 0 .0182-.06641.0898-.2086.2304-.2461.1407-.0375.2956.02344.3555.0586.0404-.07552.1688-.22422.3594-.21485.2383.01172.375.26172.4101.44922.0352.1875.0938.43359.1524.57813.0586.14453.1172.60546-.0899 1.19921l-.001-.00011c-.4537 1.88456-1.4918 3.10325-2.6637 3.85336-1.1841.7579-2.4543 1.0082-3.2973 1.0824-.6052.0532-1.139-.3942-1.1922-.9993-.0533-.60522.3941-1.13899.9993-1.19226.6361-.056 1.5222-.24327 2.3042-.7438.6823-.43672 1.3267-1.13523 1.6591-2.31689z" fill="url(#Y)"/></g><g filter="url(#f)"><path d="m16.0011 8.8949c.3281-.03125.6524-.125.8476-.21485l.8594 2.19535c-.2343.1211-1.7148.5937-2.5391.4297-.8242-.1641-1.0193-1.1954-.7304-1.73833.2734-.60937 1.1183-.62956 1.5625-.67187z" fill="url(#Z)"/><path d="m16.0011 8.8949c.3281-.03125.6524-.125.8476-.21485l.8594 2.19535c-.2343.1211-1.7148.5937-2.5391.4297-.8242-.1641-1.0193-1.1954-.7304-1.73833.2734-.60937 1.1183-.62956 1.5625-.67187z" fill="url(#aa)"/><path d="m16.0011 8.8949c.3281-.03125.6524-.125.8476-.21485l.8594 2.19535c-.2343.1211-1.7148.5937-2.5391.4297-.8242-.1641-1.0193-1.1954-.7304-1.73833.2734-.60937 1.1183-.62956 1.5625-.67187z" fill="url(#ab)"/></g><g filter="url(#g)"><path d="m8.50936 12.9379c-.05469.0807-.13125.3015 0 .539s.71879 1.2774.96098 1.7149c.04948.1028.11093.3554-.03907.5429" stroke="#c3b8c3" stroke-linecap="round" stroke-width=".2"/></g><g filter="url(#h)"><path d="m19.8217 16.641-.1875 11.1875" stroke="url(#ac)" stroke-linecap="square" stroke-width=".8"/></g><g filter="url(#i)"><path d="m16.1498 23.5785-.375-5.9531 1.0625.5v5.4531z" fill="url(#ad)"/></g><g filter="url(#j)"><circle cx="12.9125" cy="7.20245" fill="url(#ae)" r=".704188" transform="matrix(.8660254 -.5 .5 .8660254 -1.871278 7.421195)"/></g><g filter="url(#k)"><circle cx="12.9128" cy="7.20244" fill="url(#af)" r=".419685" transform="matrix(.8660254 -.5 .5 .8660254 -1.871233 7.421344)"/></g><g filter="url(#l)"><circle cx="16.3878" cy="5.19598" fill="url(#ag)" r=".704188" transform="matrix(.8660254 -.5 .5 .8660254 -.402441 8.890029)"/><circle cx="16.3878" cy="5.19598" fill="url(#ah)" r=".704188" transform="matrix(.8660254 -.5 .5 .8660254 -.402441 8.890029)"/></g><g filter="url(#m)"><circle cx="16.3876" cy="5.19597" fill="#7a5654" r=".419685" transform="matrix(.8660254 -.5 .5 .8660254 -.402463 8.889928)"/><circle cx="16.3876" cy="5.19597" fill="url(#ai)" r=".419685" transform="matrix(.8660254 -.5 .5 .8660254 -.402463 8.889928)"/><circle cx="16.3876" cy="5.19597" fill="url(#aj)" r=".419685" transform="matrix(.8660254 -.5 .5 .8660254 -.402463 8.889928)"/></g><path d="m12.3165 6.4787c-.0563-.09741-.1262-.26197-.0815-.36566l-.0709-.17029c.053-.1345.176-.11025.1085-.22715l-.1799-.31172c-.0563-.09741-.0425-.20928.0442-.28533.2014-.1942.635-.57443 1.3404-.98169s1.2515-.59266 1.5204-.66997c.0896-.02576.213.00692.2692.10433l.18.31172c.0675.1169.0198-.38861.1431-.35593.2576.02263.461.68837.5332.84865.3118.69177.6743 1.36573 1.0089 2.04683.3145.68027.0665 1.42421-.5394 1.77403l-1.1728.67708c-.6254.36111-1.3742.19269-1.806-.41987-.4324-.63174-.9143-1.31111-1.2974-1.97503z" fill="url(#ak)"/><path d="m12.3165 6.4787c-.0563-.09741-.1262-.26197-.0815-.36566l-.0709-.17029c.053-.1345.176-.11025.1085-.22715l-.1799-.31172c-.0563-.09741-.0425-.20928.0442-.28533.2014-.1942.635-.57443 1.3404-.98169s1.2515-.59266 1.5204-.66997c.0896-.02576.213.00692.2692.10433l.18.31172c.0675.1169.0198-.38861.1431-.35593.2576.02263.461.68837.5332.84865.3118.69177.6743 1.36573 1.0089 2.04683.3145.68027.0665 1.42421-.5394 1.77403l-1.1728.67708c-.6254.36111-1.3742.19269-1.806-.41987-.4324-.63174-.9143-1.31111-1.2974-1.97503z" fill="url(#al)"/><path d="m12.3165 6.4787c-.0563-.09741-.1262-.26197-.0815-.36566l-.0709-.17029c.053-.1345.176-.11025.1085-.22715l-.1799-.31172c-.0563-.09741-.0425-.20928.0442-.28533.2014-.1942.635-.57443 1.3404-.98169s1.2515-.59266 1.5204-.66997c.0896-.02576.213.00692.2692.10433l.18.31172c.0675.1169.0198-.38861.1431-.35593.2576.02263.461.68837.5332.84865.3118.69177.6743 1.36573 1.0089 2.04683.3145.68027.0665 1.42421-.5394 1.77403l-1.1728.67708c-.6254.36111-1.3742.19269-1.806-.41987-.4324-.63174-.9143-1.31111-1.2974-1.97503z" fill="url(#am)"/><path d="m12.3165 6.4787c-.0563-.09741-.1262-.26197-.0815-.36566l-.0709-.17029c.053-.1345.176-.11025.1085-.22715l-.1799-.31172c-.0563-.09741-.0425-.20928.0442-.28533.2014-.1942.635-.57443 1.3404-.98169s1.2515-.59266 1.5204-.66997c.0896-.02576.213.00692.2692.10433l-.1552-.34502c.0674.1169.3031.15576.4264.18844.2576.02263.5129.80074.5851.96102.3118.69177.6743 1.36573 1.0089 2.04683.3145.68027.0665 1.42421-.5394 1.77403l-1.1728.67708c-.6254.36111-1.3742.19269-1.806-.41987-.4324-.63174-.9143-1.31111-1.2974-1.97503z" fill="url(#an)"/><path d="m12.3165 6.4787c-.0563-.09741-.1262-.26197-.0815-.36566l-.0709-.17029c.053-.1345.176-.11025.1085-.22715l-.1799-.31172c-.0563-.09741-.0425-.20928.0442-.28533.2014-.1942.635-.57443 1.3404-.98169s1.2515-.59266 1.5204-.66997c.0896-.02576.213.00692.2692.10433l-.1552-.34502c.0674.1169.3031.15576.4264.18844.2576.02263.5129.80074.5851.96102.3118.69177.6743 1.36573 1.0089 2.04683.3145.68027.0665 1.42421-.5394 1.77403l-1.1728.67708c-.6254.36111-1.3742.19269-1.806-.41987-.4324-.63174-.9143-1.31111-1.2974-1.97503z" fill="url(#ao)"/><path d="m12.3165 6.4787c-.0563-.09741-.1262-.26197-.0815-.36566l-.0709-.17029c.053-.1345.176-.11025.1085-.22715l-.1799-.31172c-.0563-.09741-.0425-.20928.0442-.28533.2014-.1942.635-.57443 1.3404-.98169s1.2515-.59266 1.5204-.66997c.0896-.02576.213.00692.2692.10433l-.1552-.34502c.0674.1169.3031.15576.4264.18844.2576.02263.5129.80074.5851.96102.3118.69177.6743 1.36573 1.0089 2.04683.3145.68027.0665 1.42421-.5394 1.77403l-1.1728.67708c-.6254.36111-1.3742.19269-1.806-.41987-.4324-.63174-.9143-1.31111-1.2974-1.97503z" fill="url(#ap)"/><path d="m12.3165 6.4787c-.0563-.09741-.1262-.26197-.0815-.36566l-.0709-.17029c.053-.1345.176-.11025.1085-.22715l-.1799-.31172c-.0563-.09741-.0425-.20928.0442-.28533.2014-.1942.635-.57443 1.3404-.98169s1.2515-.59266 1.5204-.66997c.0896-.02576.213.00692.2692.10433l-.1552-.34502c.0674.1169.3031.15576.4264.18844.2576.02263.5129.80074.5851.96102.3118.69177.6743 1.36573 1.0089 2.04683.3145.68027.0665 1.42421-.5394 1.77403l-1.1728.67708c-.6254.36111-1.3742.19269-1.806-.41987-.4324-.63174-.9143-1.31111-1.2974-1.97503z" fill="url(#aq)"/><g filter="url(#n)"><path d="m14.5207 6.21441.0588.79387c.0365.14916.1994.2254.3257.15248l.2693-.15548c.1263-.07292.1406-.25406.0309-.35836l-.5405-.51577c-.1184-.11502-.1828-.07786-.1442.08326z" fill="#71404a"/></g><g filter="url(#o)"><path d="m14.4474 6.1775.1644.73292c.0341.15058.2029.2234.3376.14564l.2872-.1658c.1346-.07776.1548-.26232.0426-.3652l-.5525-.50879c-.121-.11352-.3151-.00146-.2793.16123z" fill="#8c5f5e"/><path d="m14.4474 6.1775.1644.73292c.0341.15058.2029.2234.3376.14564l.2872-.1658c.1346-.07776.1548-.26232.0426-.3652l-.5525-.50879c-.121-.11352-.3151-.00146-.2793.16123z" fill="url(#ar)"/><path d="m14.4474 6.1775.1644.73292c.0341.15058.2029.2234.3376.14564l.2872-.1658c.1346-.07776.1548-.26232.0426-.3652l-.5525-.50879c-.121-.11352-.3151-.00146-.2793.16123z" fill="url(#as)"/><path d="m14.4474 6.1775.1644.73292c.0341.15058.2029.2234.3376.14564l.2872-.1658c.1346-.07776.1548-.26232.0426-.3652l-.5525-.50879c-.121-.11352-.3151-.00146-.2793.16123z" fill="url(#at)"/><path d="m14.4474 6.1775.1644.73292c.0341.15058.2029.2234.3376.14564l.2872-.1658c.1346-.07776.1548-.26232.0426-.3652l-.5525-.50879c-.121-.11352-.3151-.00146-.2793.16123z" fill="url(#au)"/><path d="m14.4474 6.1775.1644.73292c.0341.15058.2029.2234.3376.14564l.2872-.1658c.1346-.07776.1548-.26232.0426-.3652l-.5525-.50879c-.121-.11352-.3151-.00146-.2793.16123z" fill="url(#av)"/></g><path d="m15.91 6.97002c.0037-.05881-.0344-.10039-.0794-.11336-.0442-.01273-.0979.00097-.1288.04839l-.0003.00043c-.0978.15387-.239.29144-.4195.39562-.1786.10313-.3702.15767-.5524.16552l-.0005.00002c-.0573.00306-.0953.04406-.106.08834-.0107.04461.0052.09911.0586.1246m1.2283-.70956v.00012l-.0499-.00322.0499.00298zm0 0c-.0163.27224-.1671.53422-.4248.68302-.2576.14873-.5597.14836-.8035.02654m0 0c.0001.00009.0003.00018.0005.00028l.0214-.04522m-.0219.04494c-.0002-.00008-.0004-.00015-.0005-.00023l.0224-.04471m0 0c.2293.11475.5138.11528.7566-.0249s.3846-.38682.3999-.64282c.0042-.06544-.081-.08893-.1164-.0346-.1023.16087-.2495.304-.4367.41208-.1853.107-.3847.16397-.5752.17217-.0648.00345-.086.09082-.0282.11807z" fill="#88014f" stroke="url(#aw)" stroke-width=".1"/><path d="m15.2176 5.17493c.2385-.13771.5349-.08959.718.10099.0531.0543.0393.14327-.0259.1809l-.8148.47044c-.0519.02994-.1207.00648-.1403-.05136-.0892-.26059.0141-.55727.263-.70097z" fill="#fff"/><path d="m15.1991 5.3178c.1808-.10435.4106-.0415.5141.13776.0171.02963.0298.06183.0378.09277l-.6297.36352c-.0236-.02387-.0443-.04945-.0614-.07908-.1035-.17926-.0415-.41061.1392-.51497z" fill="url(#ay)"/><path d="m15.2007 5.75114c-.0598-.10351-.0248-.23413.0788-.29389.1035-.05976.2341-.02476.2938.07875.018.03105.0277.06489.0289.09771l-.3298.19038c-.0293-.0166-.0538-.0419-.0717-.07295z" fill="#000"/><g filter="url(#p)"><path d="m15.2151 5.40057c.0411.01765.0145.08354-.0169.15666-.0314.07313-.0556.1258-.0967.10815-.0412-.01765-.0491-.09124-.0177-.16436.0313-.07313.0901-.1181.1313-.10045z" fill="#c7a7a3"/><path d="m15.2151 5.40057c.0411.01765.0145.08354-.0169.15666-.0314.07313-.0556.1258-.0967.10815-.0412-.01765-.0491-.09124-.0177-.16436.0313-.07313.0901-.1181.1313-.10045z" fill="url(#aA)"/></g><g filter="url(#q)"><path d="m15.6531 5.43308c-.0607-.07731-.1467-.11235-.1821-.1202l-.0348.15896.091.05861z" fill="url(#aC)"/></g><path d="m13.471 6.18318c-.2385.13772-.3451.41851-.2716.67239.0205.07312.1045.10564.1697.068l.8148-.47047c.0519-.02993.066-.1013.0257-.14716-.1811-.20758-.4911-.26561-.7386-.12276z" fill="#fff"/><path d="m13.6039 6.23869c-.1808.10436-.2413.33487-.1378.51414.0171.02963.0387.0567.0615.07909l.6297-.36354c-.0089-.03243-.0207-.06315-.0378-.09278-.105-.17842-.3348-.24126-.5156-.13691z" fill="url(#aD)"/><path d="m13.9779 6.45702c-.0598-.10352-.1904-.13852-.2939-.07876-.1035.05977-.1385.19039-.0787.29391.0179.03105.0424.05636.0702.07381l.3297-.19039c-.0012-.03282-.0094-.06752-.0273-.09857z" fill="#000"/><g filter="url(#r)"><path d="m14.0679 6.35451c-.0609-.10533-.1871-.1261-.2225-.13395l-.0465.16267.141.09453z" fill="url(#aE)"/></g><g filter="url(#s)"><ellipse cx="13.5858" cy="6.43505" fill="#c7a7a3" fill-opacity=".9" rx=".163995" ry=".082997" transform="matrix(.53119157 -.84725174 .84725174 .53119157 .91703 14.527398)"/><ellipse cx="13.5858" cy="6.43505" fill="url(#aF)" rx=".163995" ry=".082997" transform="matrix(.53119157 -.84725174 .84725174 .53119157 .91703 14.527398)"/></g><g filter="url(#t)"><path clip-rule="evenodd" d="m14.8049 4.97339c.2487-.17639.4765-.17113.5392-.15705.1074.02412.2139-.04336.238-.1507.0242-.10735-.0433-.21393-.1507-.23805-.1713-.0385-.5149-.0218-.857.22079-.0898.06365-.1109.188-.0473.27774.0637.08975.188.11091.2778.04727z" fill="#261629" fill-rule="evenodd"/></g><g filter="url(#u)"><path clip-rule="evenodd" d="m13.5049 5.72413c-.2771.12721-.3865.32716-.4056.38847-.0328.10503-.1445.16359-.2496.13081-.105-.03279-.1635-.14451-.1308-.24954.0524-.16766.2387-.45689.6198-.63185.1-.0459.2182-.00205.2641.09795.0459.09999.0021.21826-.0979.26416z" fill="#261629" fill-rule="evenodd"/></g><path d="m12.3823 6.9453-.4938-.8553.4369-.25226c.0119.06049.0267.2134-.0099.34109-.0365.1277.0151.28077.0599.3583l.2931.50774c-.0977.05644-.2227.02053-.2862-.09957z" fill="url(#aG)"/><path d="m16.4572 4.59268-.4938-.8553-.437.25226c.0464.0406.1715.12983.3003.16203.1289.0322.2357.15343.2804.23097l.2758.51778c.0977-.05644.1465-.19266.0743-.30774z" fill="url(#aH)"/><g filter="url(#v)"><path d="m12.3651 5.32602c-.1829.25641-.3149.54187-.4138.87631l.2571.09974c.1932.07336.4135-.00027.5198-.17846.1889-.31342.5615-.80589 1.2147-1.18305.6533-.37716 1.2661-.45359 1.6319-.46044.2075-.00302.3814-.15694.4108-.35883l.0422-.27252c-.3391-.08159-.6502-.10634-.9658-.07985-1.0836.09525-2.0726.66626-2.6969 1.5571z" fill="url(#aI)"/><path d="m12.3651 5.32602c-.1829.25641-.3149.54187-.4138.87631l.2571.09974c.1932.07336.4135-.00027.5198-.17846.1889-.31342.5615-.80589 1.2147-1.18305.6533-.37716 1.2661-.45359 1.6319-.46044.2075-.00302.3814-.15694.4108-.35883l.0422-.27252c-.3391-.08159-.6502-.10634-.9658-.07985-1.0836.09525-2.0726.66626-2.6969 1.5571z" fill="url(#aJ)"/></g><path d="m13.2013 2.7705c.5256-.30342 1.1198-.43726 1.6795-.23485.4303.15541.8914.63372 1.1474 1.31313-.3391-.0816-.6502-.10635-.9658-.07986-1.0836.09525-2.0727.66626-2.697 1.5571-.1828.25641-.3148.54187-.4137.87632-.4625-.56507-.6441-1.19986-.5635-1.65026.1045-.58589.5176-1.03359 1.0431-1.337z" fill="url(#aK)"/><path d="m13.2013 2.7705c.5256-.30342 1.1198-.43726 1.6795-.23485.4303.15541.8914.63372 1.1474 1.31313-.3391-.0816-.6502-.10635-.9658-.07986-1.0836.09525-2.0727.66626-2.697 1.5571-.1828.25641-.3148.54187-.4137.87632-.4625-.56507-.6441-1.19986-.5635-1.65026.1045-.58589.5176-1.03359 1.0431-1.337z" fill="url(#aL)"/><path d="m13.2013 2.7705c.5256-.30342 1.1198-.43726 1.6795-.23485.4303.15541.8914.63372 1.1474 1.31313-.3391-.0816-.6502-.10635-.9658-.07986-1.0836.09525-2.0727.66626-2.697 1.5571-.1828.25641-.3148.54187-.4137.87632-.4625-.56507-.6441-1.19986-.5635-1.65026.1045-.58589.5176-1.03359 1.0431-1.337z" fill="url(#aM)"/><path d="m13.2013 2.7705c.5256-.30342 1.1198-.43726 1.6795-.23485.4303.15541.8914.63372 1.1474 1.31313-.3391-.0816-.6502-.10635-.9658-.07986-1.0836.09525-2.0727.66626-2.697 1.5571-.1828.25641-.3148.54187-.4137.87632-.4625-.56507-.6441-1.19986-.5635-1.65026.1045-.58589.5176-1.03359 1.0431-1.337z" fill="url(#aN)"/></svg>