<svg fill="none" height="32" viewBox="0 0 32 32" width="32" xmlns="http://www.w3.org/2000/svg" xmlns:xlink="http://www.w3.org/1999/xlink"><filter id="a" color-interpolation-filters="sRGB" filterUnits="userSpaceOnUse" height="8.96479" width="21.451" x="5.64941" y="20.7798"><feFlood flood-opacity="0" result="BackgroundImageFix"/><feBlend in="SourceGraphic" in2="BackgroundImageFix" mode="normal" result="shape"/><feColorMatrix in="SourceAlpha" result="hardAlpha" type="matrix" values="0 0 0 0 0 0 0 0 0 0 0 0 0 0 0 0 0 0 127 0"/><feOffset dy="-.3"/><feGaussianBlur stdDeviation=".3"/><feComposite in2="hardAlpha" k2="-1" k3="1" operator="arithmetic"/><feColorMatrix type="matrix" values="0 0 0 0 0.458824 0 0 0 0 0.27451 0 0 0 0 0.780392 0 0 0 1 0"/><feBlend in2="shape" mode="normal" result="effect1_innerShadow_3987_24254"/><feColorMatrix in="SourceAlpha" result="hardAlpha" type="matrix" values="0 0 0 0 0 0 0 0 0 0 0 0 0 0 0 0 0 0 127 0"/><feOffset dx=".75"/><feGaussianBlur stdDeviation=".625"/><feComposite in2="hardAlpha" k2="-1" k3="1" operator="arithmetic"/><feColorMatrix type="matrix" values="0 0 0 0 0.454902 0 0 0 0 0.376471 0 0 0 0 0.6 0 0 0 1 0"/><feBlend in2="effect1_innerShadow_3987_24254" mode="normal" result="effect2_innerShadow_3987_24254"/></filter><filter id="b" color-interpolation-filters="sRGB" filterUnits="userSpaceOnUse" height="11.9893" width="8.43424" x="16.5429" y="9.60596"><feFlood flood-opacity="0" result="BackgroundImageFix"/><feBlend in="SourceGraphic" in2="BackgroundImageFix" mode="normal" result="shape"/><feColorMatrix in="SourceAlpha" result="hardAlpha" type="matrix" values="0 0 0 0 0 0 0 0 0 0 0 0 0 0 0 0 0 0 127 0"/><feOffset dx=".4" dy="-.25"/><feGaussianBlur stdDeviation=".4"/><feComposite in2="hardAlpha" k2="-1" k3="1" operator="arithmetic"/><feColorMatrix type="matrix" values="0 0 0 0 0.52549 0 0 0 0 0.27451 0 0 0 0 0.101961 0 0 0 1 0"/><feBlend in2="shape" mode="normal" result="effect1_innerShadow_3987_24254"/></filter><filter id="c" color-interpolation-filters="sRGB" filterUnits="userSpaceOnUse" height="12.0393" width="8.78424" x="7.17285" y="9.55596"><feFlood flood-opacity="0" result="BackgroundImageFix"/><feBlend in="SourceGraphic" in2="BackgroundImageFix" mode="normal" result="shape"/><feColorMatrix in="SourceAlpha" result="hardAlpha" type="matrix" values="0 0 0 0 0 0 0 0 0 0 0 0 0 0 0 0 0 0 127 0"/><feOffset dx=".5"/><feGaussianBlur stdDeviation=".5"/><feComposite in2="hardAlpha" k2="-1" k3="1" operator="arithmetic"/><feColorMatrix type="matrix" values="0 0 0 0 0.811765 0 0 0 0 0.54902 0 0 0 0 0.254902 0 0 0 1 0"/><feBlend in2="shape" mode="normal" result="effect1_innerShadow_3987_24254"/><feColorMatrix in="SourceAlpha" result="hardAlpha" type="matrix" values="0 0 0 0 0 0 0 0 0 0 0 0 0 0 0 0 0 0 127 0"/><feOffset dx="-.25" dy="-.3"/><feGaussianBlur stdDeviation=".5"/><feComposite in2="hardAlpha" k2="-1" k3="1" operator="arithmetic"/><feColorMatrix type="matrix" values="0 0 0 0 0.54902 0 0 0 0 0.254902 0 0 0 0 0.0705882 0 0 0 1 0"/><feBlend in2="effect1_innerShadow_3987_24254" mode="normal" result="effect2_innerShadow_3987_24254"/></filter><filter id="d" color-interpolation-filters="sRGB" filterUnits="userSpaceOnUse" height="2.98594" width="2.98594" x="9.11055" y="12.8884"><feFlood flood-opacity="0" result="BackgroundImageFix"/><feBlend in="SourceGraphic" in2="BackgroundImageFix" mode="normal" result="shape"/><feGaussianBlur result="effect1_foregroundBlur_3987_24254" stdDeviation=".1"/></filter><filter id="e" color-interpolation-filters="sRGB" filterUnits="userSpaceOnUse" height="2.98594" width="2.98594" x="19.9035" y="12.8884"><feFlood flood-opacity="0" result="BackgroundImageFix"/><feBlend in="SourceGraphic" in2="BackgroundImageFix" mode="normal" result="shape"/><feGaussianBlur result="effect1_foregroundBlur_3987_24254" stdDeviation=".1"/></filter><filter id="f" color-interpolation-filters="sRGB" filterUnits="userSpaceOnUse" height="3.82935" width="3.82947" x="11.6094" y="11.343"><feFlood flood-opacity="0" result="BackgroundImageFix"/><feBlend in="SourceGraphic" in2="BackgroundImageFix" mode="normal" result="shape"/><feGaussianBlur result="effect1_foregroundBlur_3987_24254" stdDeviation=".25"/></filter><filter id="g" color-interpolation-filters="sRGB" filterUnits="userSpaceOnUse" height="15.2578" width="12.0205" x="10.2397" y="5.82202"><feFlood flood-opacity="0" result="BackgroundImageFix"/><feBlend in="SourceGraphic" in2="BackgroundImageFix" mode="normal" result="shape"/><feColorMatrix in="SourceAlpha" result="hardAlpha" type="matrix" values="0 0 0 0 0 0 0 0 0 0 0 0 0 0 0 0 0 0 127 0"/><feOffset dx=".5"/><feGaussianBlur stdDeviation=".375"/><feComposite in2="hardAlpha" k2="-1" k3="1" operator="arithmetic"/><feColorMatrix type="matrix" values="0 0 0 0 0.807843 0 0 0 0 0.607843 0 0 0 0 0.278431 0 0 0 1 0"/><feBlend in2="shape" mode="normal" result="effect1_innerShadow_3987_24254"/></filter><filter id="h" color-interpolation-filters="sRGB" filterUnits="userSpaceOnUse" height="14.2512" width="8.1857" x="8.27124" y="1.42114"><feFlood flood-opacity="0" result="BackgroundImageFix"/><feBlend in="SourceGraphic" in2="BackgroundImageFix" mode="normal" result="shape"/><feGaussianBlur result="effect1_foregroundBlur_3987_24254" stdDeviation=".5"/></filter><filter id="i" color-interpolation-filters="sRGB" filterUnits="userSpaceOnUse" height="10.4543" width="8.1857" x="15.4601" y="5.45361"><feFlood flood-opacity="0" result="BackgroundImageFix"/><feBlend in="SourceGraphic" in2="BackgroundImageFix" mode="normal" result="shape"/><feGaussianBlur result="effect1_foregroundBlur_3987_24254" stdDeviation=".5"/></filter><filter id="j" color-interpolation-filters="sRGB" filterUnits="userSpaceOnUse" height="6.92319" width="11.1862" x="10.5084" y="4.12002"><feFlood flood-opacity="0" result="BackgroundImageFix"/><feBlend in="SourceGraphic" in2="BackgroundImageFix" mode="normal" result="shape"/><feColorMatrix in="SourceAlpha" result="hardAlpha" type="matrix" values="0 0 0 0 0 0 0 0 0 0 0 0 0 0 0 0 0 0 127 0"/><feOffset dy="-.4"/><feGaussianBlur stdDeviation=".3"/><feComposite in2="hardAlpha" k2="-1" k3="1" operator="arithmetic"/><feColorMatrix type="matrix" values="0 0 0 0 0.870588 0 0 0 0 0.466667 0 0 0 0 0.0862745 0 0 0 1 0"/><feBlend in2="shape" mode="normal" result="effect1_innerShadow_3987_24254"/></filter><filter id="k" color-interpolation-filters="sRGB" filterUnits="userSpaceOnUse" height="5.79712" width="8.71484" x="11.9355" y="4.73853"><feFlood flood-opacity="0" result="BackgroundImageFix"/><feBlend in="SourceGraphic" in2="BackgroundImageFix" mode="normal" result="shape"/><feGaussianBlur result="effect1_foregroundBlur_3987_24254" stdDeviation=".125"/></filter><filter id="l" color-interpolation-filters="sRGB" filterUnits="userSpaceOnUse" height="3.66016" width="3.66016" x="11.8848" y="11.5122"><feFlood flood-opacity="0" result="BackgroundImageFix"/><feBlend in="SourceGraphic" in2="BackgroundImageFix" mode="normal" result="shape"/><feGaussianBlur result="effect1_foregroundBlur_3987_24254" stdDeviation=".25"/></filter><filter id="m" color-interpolation-filters="sRGB" filterUnits="userSpaceOnUse" height="1.21392" width="2.69927" x="11.7972" y="11.7849"><feFlood flood-opacity="0" result="BackgroundImageFix"/><feBlend in="SourceGraphic" in2="BackgroundImageFix" mode="normal" result="shape"/><feColorMatrix in="SourceAlpha" result="hardAlpha" type="matrix" values="0 0 0 0 0 0 0 0 0 0 0 0 0 0 0 0 0 0 127 0"/><feOffset dx=".2" dy=".2"/><feGaussianBlur stdDeviation=".1"/><feComposite in2="hardAlpha" k2="-1" k3="1" operator="arithmetic"/><feColorMatrix type="matrix" values="0 0 0 0 0.698039 0 0 0 0 0.27451 0 0 0 0 0.109804 0 0 0 1 0"/><feBlend in2="shape" mode="normal" result="effect1_innerShadow_3987_24254"/></filter><filter id="n" color-interpolation-filters="sRGB" filterUnits="userSpaceOnUse" height=".91377" width="2.39924" x="11.8473" y="11.8351"><feFlood flood-opacity="0" result="BackgroundImageFix"/><feBlend in="SourceGraphic" in2="BackgroundImageFix" mode="normal" result="shape"/><feGaussianBlur result="effect1_foregroundBlur_3987_24254" stdDeviation=".075"/></filter><filter id="o" color-interpolation-filters="sRGB" filterUnits="userSpaceOnUse" height="1.21392" width="2.69927" x="17.7035" y="11.7849"><feFlood flood-opacity="0" result="BackgroundImageFix"/><feBlend in="SourceGraphic" in2="BackgroundImageFix" mode="normal" result="shape"/><feColorMatrix in="SourceAlpha" result="hardAlpha" type="matrix" values="0 0 0 0 0 0 0 0 0 0 0 0 0 0 0 0 0 0 127 0"/><feOffset dx=".2" dy=".2"/><feGaussianBlur stdDeviation=".1"/><feComposite in2="hardAlpha" k2="-1" k3="1" operator="arithmetic"/><feColorMatrix type="matrix" values="0 0 0 0 0.745098 0 0 0 0 0.282353 0 0 0 0 0.117647 0 0 0 1 0"/><feBlend in2="shape" mode="normal" result="effect1_innerShadow_3987_24254"/></filter><filter id="p" color-interpolation-filters="sRGB" filterUnits="userSpaceOnUse" height=".91377" width="2.39924" x="17.7535" y="11.7804"><feFlood flood-opacity="0" result="BackgroundImageFix"/><feBlend in="SourceGraphic" in2="BackgroundImageFix" mode="normal" result="shape"/><feGaussianBlur result="effect1_foregroundBlur_3987_24254" stdDeviation=".075"/></filter><filter id="q" color-interpolation-filters="sRGB" filterUnits="userSpaceOnUse" height=".919873" width="2.61799" x="12.2691" y="13.7755"><feFlood flood-opacity="0" result="BackgroundImageFix"/><feBlend in="SourceGraphic" in2="BackgroundImageFix" mode="normal" result="shape"/><feGaussianBlur result="effect1_foregroundBlur_3987_24254" stdDeviation=".075"/></filter><filter id="r" color-interpolation-filters="sRGB" filterUnits="userSpaceOnUse" height=".919873" width="2.61799" x="17.1598" y="13.7755"><feFlood flood-opacity="0" result="BackgroundImageFix"/><feBlend in="SourceGraphic" in2="BackgroundImageFix" mode="normal" result="shape"/><feGaussianBlur result="effect1_foregroundBlur_3987_24254" stdDeviation=".075"/></filter><filter id="s" color-interpolation-filters="sRGB" filterUnits="userSpaceOnUse" height="4.21094" width="3.12247" x="14.1621" y="13.2271"><feFlood flood-opacity="0" result="BackgroundImageFix"/><feBlend in="SourceGraphic" in2="BackgroundImageFix" mode="normal" result="shape"/><feGaussianBlur result="effect1_foregroundBlur_3987_24254" stdDeviation=".25"/></filter><filter id="t" color-interpolation-filters="sRGB" filterUnits="userSpaceOnUse" height="1.7293" width="4.19854" x="13.9064" y="17.1292"><feFlood flood-opacity="0" result="BackgroundImageFix"/><feBlend in="SourceGraphic" in2="BackgroundImageFix" mode="normal" result="shape"/><feGaussianBlur result="effect1_foregroundBlur_3987_24254" stdDeviation=".05"/></filter><filter id="u" color-interpolation-filters="sRGB" filterUnits="userSpaceOnUse" height="12.4512" width="6.6857" x="8.59863" y="2.05537"><feFlood flood-opacity="0" result="BackgroundImageFix"/><feBlend in="SourceGraphic" in2="BackgroundImageFix" mode="normal" result="shape"/><feColorMatrix in="SourceAlpha" result="hardAlpha" type="matrix" values="0 0 0 0 0 0 0 0 0 0 0 0 0 0 0 0 0 0 127 0"/><feOffset dx=".5" dy="-.2"/><feGaussianBlur stdDeviation=".625"/><feComposite in2="hardAlpha" k2="-1" k3="1" operator="arithmetic"/><feColorMatrix type="matrix" values="0 0 0 0 0.921569 0 0 0 0 0.556863 0 0 0 0 0.164706 0 0 0 1 0"/><feBlend in2="shape" mode="normal" result="effect1_innerShadow_3987_24254"/></filter><filter id="v" color-interpolation-filters="sRGB" filterUnits="userSpaceOnUse" height="12.5012" width="6.4357" x="17.2393" y="2.00537"><feFlood flood-opacity="0" result="BackgroundImageFix"/><feBlend in="SourceGraphic" in2="BackgroundImageFix" mode="normal" result="shape"/><feColorMatrix in="SourceAlpha" result="hardAlpha" type="matrix" values="0 0 0 0 0 0 0 0 0 0 0 0 0 0 0 0 0 0 127 0"/><feOffset dx=".25" dy="-.25"/><feGaussianBlur stdDeviation=".5"/><feComposite in2="hardAlpha" k2="-1" k3="1" operator="arithmetic"/><feColorMatrix type="matrix" values="0 0 0 0 0.917647 0 0 0 0 0.541176 0 0 0 0 0.160784 0 0 0 1 0"/><feBlend in2="shape" mode="normal" result="effect1_innerShadow_3987_24254"/></filter><filter id="w" color-interpolation-filters="sRGB" filterUnits="userSpaceOnUse" height="12.5012" width="6.4357" x="17.2393" y="2.00537"><feFlood flood-opacity="0" result="BackgroundImageFix"/><feBlend in="SourceGraphic" in2="BackgroundImageFix" mode="normal" result="shape"/><feColorMatrix in="SourceAlpha" result="hardAlpha" type="matrix" values="0 0 0 0 0 0 0 0 0 0 0 0 0 0 0 0 0 0 127 0"/><feOffset dx=".25" dy="-.25"/><feGaussianBlur stdDeviation=".5"/><feComposite in2="hardAlpha" k2="-1" k3="1" operator="arithmetic"/><feColorMatrix type="matrix" values="0 0 0 0 0.917647 0 0 0 0 0.541176 0 0 0 0 0.160784 0 0 0 1 0"/><feBlend in2="shape" mode="normal" result="effect1_innerShadow_3987_24254"/></filter><filter id="x" color-interpolation-filters="sRGB" filterUnits="userSpaceOnUse" height="12.8901" width="6.90894" x="17.1057" y="1.7876"><feFlood flood-opacity="0" result="BackgroundImageFix"/><feBlend in="SourceGraphic" in2="BackgroundImageFix" mode="normal" result="shape"/><feGaussianBlur result="effect1_foregroundBlur_3987_24254" stdDeviation=".5"/></filter><filter id="y" color-interpolation-filters="sRGB" filterUnits="userSpaceOnUse" height="6.36792" width="2.81104" x="8.71875" y="8.27734"><feFlood flood-opacity="0" result="BackgroundImageFix"/><feBlend in="SourceGraphic" in2="BackgroundImageFix" mode="normal" result="shape"/><feGaussianBlur result="effect1_foregroundBlur_3987_24254" stdDeviation=".375"/></filter><filter id="z" color-interpolation-filters="sRGB" filterUnits="userSpaceOnUse" height="8.85498" width="5.6398" x="9.42285" y="1.50537"><feFlood flood-opacity="0" result="BackgroundImageFix"/><feBlend in="SourceGraphic" in2="BackgroundImageFix" mode="normal" result="shape"/><feGaussianBlur result="effect1_foregroundBlur_3987_24254" stdDeviation=".375"/></filter><radialGradient id="A" cx="0" cy="0" gradientTransform="matrix(-18.0313 0 0 -12.0938 23.4814 28.3287)" gradientUnits="userSpaceOnUse" r="1"><stop offset="0" stop-color="#936dd4"/><stop offset=".831561" stop-color="#725698"/></radialGradient><radialGradient id="B" cx="0" cy="0" gradientTransform="matrix(-4.16616523 -7.1846999 8.98983928 -5.2129047 23.9824 28.2646)" gradientUnits="userSpaceOnUse" r="1"><stop offset=".0788176" stop-color="#9574dd"/><stop offset="1" stop-color="#9574dd" stop-opacity="0"/></radialGradient><radialGradient id="C" cx="0" cy="0" gradientTransform="matrix(-9.92768002 4.49504103 -1.86086012 -4.10986768 15.5771 19.3111)" gradientUnits="userSpaceOnUse" r="1"><stop offset=".302999" stop-color="#6a3874"/><stop offset="1" stop-color="#7c4fa2" stop-opacity="0"/></radialGradient><radialGradient id="D" cx="0" cy="0" gradientTransform="matrix(0 -9.5924 15.2389 0 15.9999 30.3287)" gradientUnits="userSpaceOnUse" r="1"><stop offset=".866658" stop-color="#623e81" stop-opacity="0"/><stop offset=".977141" stop-color="#402452"/></radialGradient><radialGradient id="E" cx="0" cy="0" gradientTransform="matrix(-5.56243769 7.87504074 -7.63171004 -5.39056406 25.3181 13.8913)" gradientUnits="userSpaceOnUse" r="1"><stop offset=".198015" stop-color="#ffc135"/><stop offset="1" stop-color="#f28e2a"/></radialGradient><radialGradient id="F" cx="0" cy="0" gradientTransform="matrix(-2.06250043 .53124874 -1.2982846 -5.04041203 24.7556 17.0788)" gradientUnits="userSpaceOnUse" r="1"><stop offset="0" stop-color="#ffce3b"/><stop offset="1" stop-color="#ffce3b" stop-opacity="0"/></radialGradient><radialGradient id="G" cx="0" cy="0" gradientTransform="matrix(-4.31227569 2.26581984 -4.21818477 -8.02798852 12.2152 17.9224)" gradientUnits="userSpaceOnUse" r="1"><stop offset=".172418" stop-color="#df711c"/><stop offset="1" stop-color="#ee861f"/></radialGradient><radialGradient id="H" cx="0" cy="0" gradientTransform="matrix(1.78475025 1.03515376 -2.16852376 3.73883906 8.59805 11.3044)" gradientUnits="userSpaceOnUse" r="1"><stop offset="0" stop-color="#cd9640"/><stop offset="1" stop-color="#cd9640" stop-opacity="0"/></radialGradient><radialGradient id="I" cx="0" cy="0" gradientTransform="matrix(-1.40623692 1.75000649 -2.02771577 -1.62939325 10.8184 15.11)" gradientUnits="userSpaceOnUse" r="1"><stop offset=".284247" stop-color="#c26117"/><stop offset="1" stop-color="#c26117" stop-opacity="0"/></radialGradient><radialGradient id="J" cx="0" cy="0" gradientTransform="matrix(1.97851564 2.09375097 -2.09375097 1.97851564 8.625 14.2661)" gradientUnits="userSpaceOnUse" r="1"><stop offset="0" stop-color="#d88f27"/><stop offset="1" stop-color="#d27f2e"/></radialGradient><radialGradient id="K" cx="0" cy="0" gradientTransform="matrix(-1.34373959 2.26563681 -1.44817898 -.85890882 23.1689 13.9849)" gradientUnits="userSpaceOnUse" r="1"><stop offset="0" stop-color="#ffd742"/><stop offset=".908448" stop-color="#fdb530"/></radialGradient><radialGradient id="L" cx="0" cy="0" gradientTransform="matrix(.59374889 2.26562027 -2.26562027 .59374889 21.5283 14.1724)" gradientUnits="userSpaceOnUse" r="1"><stop offset=".798098" stop-color="#eb992f" stop-opacity="0"/><stop offset="1" stop-color="#eb992f"/></radialGradient><linearGradient id="M"><stop offset=".346648" stop-color="#ffb129"/><stop offset=".901581" stop-color="#f39423"/></linearGradient><radialGradient id="N" cx="0" cy="0" gradientTransform="matrix(.92788473 -1.80183903 1.99142722 1.02551609 13.3662 13.9587)" gradientUnits="userSpaceOnUse" r="1" xlink:href="#M"/><radialGradient id="O" cx="0" cy="0" gradientTransform="matrix(-2.5613808 2.00001837 -1.42514072 -1.82514727 18.2616 22.9225)" gradientUnits="userSpaceOnUse" r="1"><stop offset=".185583" stop-color="#ffd73e"/><stop offset="1" stop-color="#ffae20" stop-opacity="0"/></radialGradient><radialGradient id="P" cx="0" cy="0" gradientTransform="matrix(1.41332865 2.53124968 -8.23121301 4.5959153 14.0994 20.5163)" gradientUnits="userSpaceOnUse" r="1"><stop offset="0" stop-color="#d37f20"/><stop offset="1" stop-color="#d37f20" stop-opacity="0"/></radialGradient><radialGradient id="Q" cx="0" cy="0" gradientTransform="matrix(-6.03506912 .60801871 -.70580098 -7.00563589 19.5049 14.9271)" gradientUnits="userSpaceOnUse" r="1"><stop offset=".282722" stop-color="#ffdd41"/><stop offset="1" stop-color="#fda828"/></radialGradient><radialGradient id="R" cx="0" cy="0" gradientTransform="matrix(0 10.0892 -11.8947 0 16 10.9906)" gradientUnits="userSpaceOnUse" r="1"><stop offset=".677763" stop-color="#ec9433" stop-opacity="0"/><stop offset="1" stop-color="#cd791e"/></radialGradient><radialGradient id="S" cx="0" cy="0" gradientTransform="matrix(-1.15626328 4.78124512 -12.88264302 -3.11544936 17.3494 8.82874)" gradientUnits="userSpaceOnUse" r="1"><stop offset="0" stop-color="#f4962b"/><stop offset="1" stop-color="#f4962b" stop-opacity="0"/></radialGradient><radialGradient id="T" cx="0" cy="0" gradientTransform="matrix(1.05597878 2.75832674 -1.51630224 .58049068 11.3081 7.18458)" gradientUnits="userSpaceOnUse" r="1"><stop offset="0" stop-color="#9b4607"/><stop offset="1" stop-color="#d97513"/></radialGradient><radialGradient id="U" cx="0" cy="0" gradientTransform="matrix(-.11351805 -5.07335016 3.05801459 -.06842419 11.0054 14.4252)" gradientUnits="userSpaceOnUse" r="1"><stop offset="0" stop-color="#cd8135"/><stop offset="1" stop-color="#cd8135" stop-opacity="0"/></radialGradient><radialGradient id="V" cx="0" cy="0" gradientTransform="matrix(.07039111 7.01753697 -5.71616244 .05733736 20.3585 7.09018)" gradientUnits="userSpaceOnUse" r="1"><stop offset="0" stop-color="#b95a08"/><stop offset="1" stop-color="#fba42d"/></radialGradient><radialGradient id="W" cx="0" cy="0" gradientTransform="matrix(-5.71876695 -2.53122398 1.47285033 -3.32759483 19.4431 8.20374)" gradientUnits="userSpaceOnUse" r="1"><stop offset=".135701" stop-color="#ffd52b"/><stop offset="1" stop-color="#ffb611"/></radialGradient><radialGradient id="X" cx="0" cy="0" gradientTransform="matrix(2.06250353 -1.68750248 2.89382029 3.53689233 10.8181 10.2037)" gradientUnits="userSpaceOnUse" r="1"><stop offset="0" stop-color="#e77421"/><stop offset="1" stop-color="#e77421" stop-opacity="0"/></radialGradient><radialGradient id="Y" cx="0" cy="0" gradientTransform="matrix(-2.4374892 -1.71875874 2.94742981 -4.17995158 21.4431 10.5475)" gradientUnits="userSpaceOnUse" r="1"><stop offset="0" stop-color="#f49512"/><stop offset="1" stop-color="#f49512" stop-opacity="0"/></radialGradient><radialGradient id="Z" cx="0" cy="0" gradientTransform="matrix(3.18749627 -2.56250139 .76060955 .94612246 12.1306 6.67249)" gradientUnits="userSpaceOnUse" r="1"><stop offset="0" stop-color="#bf9a3b"/><stop offset="1" stop-color="#bf9a3b" stop-opacity="0"/></radialGradient><radialGradient id="aa" cx="0" cy="0" gradientTransform="matrix(-1.62501957 -4.71512173 4.31184012 -1.4860326 17.1309 9.70365)" gradientUnits="userSpaceOnUse" r="1"><stop offset=".524324" stop-color="#fbba28" stop-opacity="0"/><stop offset="1" stop-color="#fbba28"/></radialGradient><radialGradient id="ab" cx="0" cy="0" gradientTransform="matrix(2.43749869 -3.96875289 11.53735079 7.08592301 17.0059 9.6099)" gradientUnits="userSpaceOnUse" r="1"><stop offset=".51179" stop-color="#ffb91d" stop-opacity="0"/><stop offset=".95174" stop-color="#c08d3e"/></radialGradient><radialGradient id="ac" cx="0" cy="0" gradientTransform="matrix(.87235962 -1.69401602 1.87226893 .96415369 13.5664 14.0013)" gradientUnits="userSpaceOnUse" r="1" xlink:href="#M"/><linearGradient id="ad"><stop offset="0" stop-color="#cd6f5c"/><stop offset="1" stop-color="#cd6f5c" stop-opacity="0"/></linearGradient><linearGradient id="ae" gradientUnits="userSpaceOnUse" x1="14.0215" x2="11.8096" xlink:href="#ad" y1="12.0601" y2="12.5239"/><linearGradient id="af" gradientUnits="userSpaceOnUse" x1="19.9893" x2="17.8096" xlink:href="#ad" y1="12.4067" y2="11.9223"/><linearGradient id="ag"><stop offset=".250757" stop-color="#8a374b"/><stop offset="1" stop-color="#b54919"/></linearGradient><radialGradient id="ah" cx="0" cy="0" gradientTransform="matrix(0 -1.07812 3.27721 0 13.5781 14.5942)" gradientUnits="userSpaceOnUse" r="1" xlink:href="#ag"/><linearGradient id="ai"><stop offset=".0452431" stop-color="#bf6a57"/><stop offset=".320431" stop-color="#93534a"/><stop offset=".794009" stop-color="#93534a"/><stop offset="1" stop-color="#bf6a57"/></linearGradient><linearGradient id="aj" gradientUnits="userSpaceOnUse" x1="14.9357" x2="12.4941" xlink:href="#ai" y1="14.0005" y2="14.0005"/><radialGradient id="ak" cx="0" cy="0" gradientTransform="matrix(0 -1.07812 3.27721 0 18.4688 14.5942)" gradientUnits="userSpaceOnUse" r="1" xlink:href="#ag"/><linearGradient id="al" gradientUnits="userSpaceOnUse" x1="19.8263" x2="17.3848" xlink:href="#ai" y1="14.0005" y2="14.0005"/><linearGradient id="am" gradientUnits="userSpaceOnUse" x1="17.0614" x2="15.1621" y1="15.4846" y2="15.6724"><stop offset=".218318" stop-color="#ffdb40"/><stop offset="1" stop-color="#ffdb40" stop-opacity="0"/></linearGradient><radialGradient id="an" cx="0" cy="0" gradientTransform="matrix(.19455471 -1.08993198 4.30796611 .76897928 16.0002 16.7739)" gradientUnits="userSpaceOnUse" r="1"><stop offset=".0298078" stop-color="#ed8f30"/><stop offset="1" stop-color="#ffb520" stop-opacity="0"/></radialGradient><radialGradient id="ao" cx="0" cy="0" gradientTransform="matrix(.20312463 -.39062481 1.7548621 .91252706 14.9191 18.3601)" gradientUnits="userSpaceOnUse" r="1"><stop offset=".156171" stop-color="#ffb333"/><stop offset="1" stop-color="#ffb333" stop-opacity="0"/></radialGradient><radialGradient id="ap" cx="0" cy="0" gradientTransform="matrix(3.15625368 8.25792874 -4.21158055 1.60970348 12.4189 3.24994)" gradientUnits="userSpaceOnUse" r="1"><stop offset="0" stop-color="#ffdf3b"/><stop offset="1" stop-color="#ffdf3b" stop-opacity="0"/></radialGradient><radialGradient id="aq" cx="0" cy="0" gradientTransform="matrix(-1.79688441 -2.57682754 .85739495 -.59788232 11.8096 10.6037)" gradientUnits="userSpaceOnUse" r="1"><stop offset="0" stop-color="#c96a05"/><stop offset="1" stop-color="#ffa92e" stop-opacity="0"/></radialGradient><radialGradient id="ar" cx="0" cy="0" gradientTransform="matrix(0 3.99577 -1.29371 0 22.5187 2.1132)" gradientUnits="userSpaceOnUse" r="1"><stop offset="0" stop-color="#ffe041"/><stop offset="1" stop-color="#ffe041" stop-opacity="0"/></radialGradient><linearGradient id="as" gradientUnits="userSpaceOnUse" x1="22.0157" x2="22.0157" y1="3.19823" y2="14.5696"><stop offset=".786111" stop-color="#ffdf40"/><stop offset="1" stop-color="#ffdf40" stop-opacity="0"/></linearGradient><linearGradient id="at" gradientUnits="userSpaceOnUse" x1="10.1243" x2="10.1243" y1="13.1127" y2="8.28176"><stop offset="0" stop-color="#ffca3e"/><stop offset="1" stop-color="#ffcb3b" stop-opacity="0"/></linearGradient><g filter="url(#a)"><path d="m5.64941 29.7446h20.70109c-.4941-4.9315-5.2034-8.6648-10.3914-8.6648-5.1881 0-9.71203 3.7645-10.30969 8.6648z" fill="url(#A)"/><path d="m5.64941 29.7446h20.70109c-.4941-4.9315-5.2034-8.6648-10.3914-8.6648-5.1881 0-9.71203 3.7645-10.30969 8.6648z" fill="url(#B)"/></g><path d="m5.64941 29.7446h20.70109c-.4941-4.9315-5.2034-8.6648-10.3914-8.6648-5.1881 0-9.71203 3.7645-10.30969 8.6648z" fill="url(#C)"/><path d="m5.64941 29.7446h20.70109c-.4941-4.9315-5.2034-8.6648-10.3914-8.6648-5.1881 0-9.71203 3.7645-10.30969 8.6648z" fill="url(#D)"/><g filter="url(#b)"><path d="m23.846 11.8918c-.5609-.9816-.5299-1.7215-.6385-2.03584l-6.6646 2.82444v8.9147h3.7202c2.443 0 3.523-1.02 4.0031-2.2201.48-1.2.2805-2.1321.0599-2.7944-.1242-.3729-.0638-.7386.03-.9986.452-1.2518.1757-2.4901-.5101-3.6902z" fill="url(#E)"/><path d="m23.846 11.8918c-.5609-.9816-.5299-1.7215-.6385-2.03584l-6.6646 2.82444v8.9147h3.7202c2.443 0 3.523-1.02 4.0031-2.2201.48-1.2.2805-2.1321.0599-2.7944-.1242-.3729-.0638-.7386.03-.9986.452-1.2518.1757-2.4901-.5101-3.6902z" fill="url(#F)"/></g><g filter="url(#c)"><path d="m8.15396 11.8918c.56096-.9816.52994-1.7215.6385-2.03584l6.66464 2.82444v8.9147h-3.7202c-2.443 0-3.52297-1.02-4.00305-2.2201-.48009-1.2-.28055-2.1321-.05998-2.7944.12419-.3729.06387-.7386-.03001-.9986-.45195-1.2518-.17566-2.4901.5101-3.6902z" fill="url(#G)"/></g><path d="m8.15396 11.8918c.56096-.9816.52994-1.7215.6385-2.03584l6.66464 2.82444v8.9147h-3.7202c-2.443 0-3.52297-1.02-4.00305-2.2201-.48009-1.2-.28055-2.1321-.05998-2.7944.12419-.3729.06387-.7386-.03001-.9986-.45195-1.2518-.17566-2.4901.5101-3.6902z" fill="url(#H)"/><path d="m8.15396 11.8918c.56096-.9816.52994-1.7215.6385-2.03584l6.66464 2.82444v8.9147h-3.7202c-2.443 0-3.52297-1.02-4.00305-2.2201-.48009-1.2-.28055-2.1321-.05998-2.7944.12419-.3729.06387-.7386-.03001-.9986-.45195-1.2518-.17566-2.4901.5101-3.6902z" fill="url(#I)"/><circle cx="10.6035" cy="14.3813" fill="url(#J)" r="1.97852"/><g filter="url(#d)" opacity=".5"><circle cx="10.6035" cy="14.3813" fill="#d07d1c" r="1.29297"/></g><circle cx="21.3965" cy="14.3813" fill="url(#K)" r="1.97852"/><circle cx="21.3965" cy="14.3813" fill="url(#L)" r="1.97852"/><g filter="url(#e)"><circle cx="21.3965" cy="14.3813" fill="#ffc12d" r="1.29297"/></g><g filter="url(#f)"><circle cx="13.5241" cy="13.2578" fill="url(#N)" r="1.41473"/></g><path d="m13.7495 20.0163c0-1.246 1.0101-2.256 2.2561-2.256s2.256 1.01 2.256 2.256v2.1019c0 1.246-1.5879 1.624-2.256 1.624-.7658 0-2.2561-.378-2.2561-1.624z" fill="#ffad20"/><path d="m13.7495 20.0163c0-1.246 1.0101-2.256 2.2561-2.256s2.256 1.01 2.256 2.256v2.1019c0 1.246-1.5879 1.624-2.256 1.624-.7658 0-2.2561-.378-2.2561-1.624z" fill="url(#O)"/><path d="m13.7495 20.0163c0-1.246 1.0101-2.256 2.2561-2.256s2.256 1.01 2.256 2.256v2.1019c0 1.246-1.5879 1.624-2.256 1.624-.7658 0-2.2561-.378-2.2561-1.624z" fill="url(#P)"/><g filter="url(#g)"><rect fill="url(#Q)" height="15.2578" rx="5.76026" width="11.5205" x="10.2397" y="5.82202"/></g><rect fill="url(#R)" height="15.2578" rx="5.76026" width="11.5205" x="10.2397" y="5.82202"/><rect fill="url(#S)" height="15.2578" rx="5.76026" width="11.5205" x="10.2397" y="5.82202"/><g filter="url(#h)"><path d="m9.27124 2.42114 1.51576 5.89206 1.9375-.90415c0 .33999.1992-.38098.6561 0 .3757.33477 1.0954 1.02229 1.7272 1.63172.4762.45941.4632 1.20713-.0264 1.65323-.4535.4131-1.0881.3491-1.5523-.0526l-.98-.71314c-.2178-.18837-.5529-.16981-.7469.04137-.0854.09297-.1325.21297-.1325.33717v3.209c0 .6388-.5369 1.1566-1.1992 1.1566-.66239 0-1.19926-.5178-1.19926-1.1566z" fill="url(#T)"/><path d="m9.27124 2.42114 1.51576 5.89206 1.9375-.90415c0 .33999.1992-.38098.6561 0 .3757.33477 1.0954 1.02229 1.7272 1.63172.4762.45941.4632 1.20713-.0264 1.65323-.4535.4131-1.0881.3491-1.5523-.0526l-.98-.71314c-.2178-.18837-.5529-.16981-.7469.04137-.0854.09297-.1325.21297-.1325.33717v3.209c0 .6388-.5369 1.1566-1.1992 1.1566-.66239 0-1.19926-.5178-1.19926-1.1566z" fill="url(#U)"/></g><g filter="url(#i)"><path d="m22.6458 8.26611h-3.4258l-.6836-1.8125c0 .35253.4569.52802 0 .92305-.3758.34711-1.0954 1.06-1.7272 1.69191-.4762.47635-.4633 1.25163.0264 1.71423.4535.4283 1.0899.3619 1.5542-.0546l.9781-.73941c.2178-.19532.5529-.17607.7468.04291.0855.0964.1326.2208.1326.3496v3.3274c0 .6623.5369 1.1992 1.1992 1.1992.6624 0 1.1993-.5369 1.1993-1.1992z" fill="url(#V)"/></g><g filter="url(#j)"><path d="m13.2085 8.50591c-.7817 1.24806-2.1572 2.11439-2.7001 2.31439v-4.14876c.2657 0 1.5766-.14156 2.1686-.5143.6943-.43717 1.3372-1.63722 3.3516-1.63722 1.0715 0 1.8086.37716 2.923 1.3372.8829.65146 2.1829.69718 2.743.65146v4.53452c-.5168-.3728-1.4272-.4106-1.8456-.428l-.0145-.0006h-3.3602c-1.7443 0-2.9344-1.38866-3.2658-2.10869z" fill="url(#W)"/><path d="m13.2085 8.50591c-.7817 1.24806-2.1572 2.11439-2.7001 2.31439v-4.14876c.2657 0 1.5766-.14156 2.1686-.5143.6943-.43717 1.3372-1.63722 3.3516-1.63722 1.0715 0 1.8086.37716 2.923 1.3372.8829.65146 2.1829.69718 2.743.65146v4.53452c-.5168-.3728-1.4272-.4106-1.8456-.428l-.0145-.0006h-3.3602c-1.7443 0-2.9344-1.38866-3.2658-2.10869z" fill="url(#X)"/><path d="m13.2085 8.50591c-.7817 1.24806-2.1572 2.11439-2.7001 2.31439v-4.14876c.2657 0 1.5766-.14156 2.1686-.5143.6943-.43717 1.3372-1.63722 3.3516-1.63722 1.0715 0 1.8086.37716 2.923 1.3372.8829.65146 2.1829.69718 2.743.65146v4.53452c-.5168-.3728-1.4272-.4106-1.8456-.428l-.0145-.0006h-3.3602c-1.7443 0-2.9344-1.38866-3.2658-2.10869z" fill="url(#Y)"/><path d="m13.2085 8.50591c-.7817 1.24806-2.1572 2.11439-2.7001 2.31439v-4.14876c.2657 0 1.5766-.14156 2.1686-.5143.6943-.43717 1.3372-1.63722 3.3516-1.63722 1.0715 0 1.8086.37716 2.923 1.3372.8829.65146 2.1829.69718 2.743.65146v4.53452c-.5168-.3728-1.4272-.4106-1.8456-.428l-.0145-.0006h-3.3602c-1.7443 0-2.9344-1.38866-3.2658-2.10869z" fill="url(#Z)"/></g><g filter="url(#k)"><path d="m13.1348 6.2974c-.3125.20625-.8295.46615-.9493.4375 1.0375 3.6875 4.892 3.7396 6.5899 3.4375l1.625-1.5625v-1.875c-1.1641-.57031-3.2188-1.82812-4.6719-1.74218-1.4531.08593-2.2031 1.04687-2.5937 1.30468z" fill="url(#aa)"/><path d="m13.1348 6.2974c-.3125.20625-.8295.46615-.9493.4375 1.0375 3.6875 4.892 3.7396 6.5899 3.4375l1.625-1.5625v-1.875c-1.1641-.57031-3.2188-1.82812-4.6719-1.74218-1.4531.08593-2.2031 1.04687-2.5937 1.30468z" fill="url(#ab)"/></g><g filter="url(#l)"><circle cx="13.7148" cy="13.3423" fill="url(#ac)" r="1.33008"/></g><g filter="url(#m)"><path d="m12.0723 12.5239c.2578-.207.8828-.5781 1.9492-.4297" stroke="#b73e46" stroke-linecap="round" stroke-width=".55"/></g><g filter="url(#n)"><path d="m12.0723 12.5239c.2578-.207.8828-.5781 1.9492-.4297" stroke="url(#ae)" stroke-linecap="round" stroke-width=".15"/></g><g filter="url(#o)"><path d="m19.9277 12.5239c-.2578-.207-.8828-.5781-1.9492-.4297" stroke="#ba3d44" stroke-linecap="round" stroke-width=".55"/></g><g filter="url(#p)"><path d="m19.9277 12.4692c-.2578-.207-.8828-.5781-1.9492-.4297" stroke="url(#af)" stroke-linecap="round" stroke-width=".15"/></g><path d="m12.4941 14.0005c.1459.1641.5363.4502 1.0235.4687.6172.0235.9492-.3046 1.1445-.4687" stroke="url(#ah)" stroke-linecap="round" stroke-width=".55"/><g filter="url(#q)"><path d="m12.4941 14.0005c.1459.1641.5363.4502 1.0235.4687.6172.0235.9492-.3046 1.1445-.4687" stroke="url(#aj)" stroke-linecap="round" stroke-width=".15"/></g><path d="m17.3848 14.0005c.1458.1641.5363.4502 1.0234.4687.6172.0235.9492-.3046 1.1445-.4687" stroke="url(#ak)" stroke-linecap="round" stroke-width=".55"/><g filter="url(#r)"><path d="m17.3848 14.0005c.1458.1641.5363.4502 1.0234.4687.6172.0235.9492-.3046 1.1445-.4687" stroke="url(#al)" stroke-linecap="round" stroke-width=".15"/></g><g filter="url(#s)"><path d="m15.8721 13.7271c-.1636 0-.2476.093-.2969.2536l-.8869 2.205c-.0591.1923-.0165.4024.1121.5544.1066.1257.2608.1979.4228.1979h1.0003c.162 0 .3162-.0722.4228-.1979.1286-.152.1712-.3621.1121-.5544l-.6774-2.205c-.0494-.1606-.0454-.2536-.2089-.2536z" fill="#f4982a"/></g><path d="m16.0002 13.6411c-.1636 0-.3083.106-.3576.2619l-.6775 2.1406c-.0591.1867-.0165.3907.1122.5382.1066.1221.2607.1921.4227.1921h1.0004c.162 0 .3161-.07.4227-.1921.1287-.1475.1713-.3515.1122-.5382l-.6775-2.1406c-.0493-.1559-.194-.2619-.3576-.2619z" fill="#ffb31f"/><path d="m16.0002 13.6411c-.1636 0-.3083.106-.3576.2619l-.6775 2.1406c-.0591.1867-.0165.3907.1122.5382.1066.1221.2607.1921.4227.1921h1.0004c.162 0 .3161-.07.4227-.1921.1287-.1475.1713-.3515.1122-.5382l-.6775-2.1406c-.0493-.1559-.194-.2619-.3576-.2619z" fill="url(#am)"/><path d="m16.0002 13.6411c-.1636 0-.3083.106-.3576.2619l-.6775 2.1406c-.0591.1867-.0165.3907.1122.5382.1066.1221.2607.1921.4227.1921h1.0004c.162 0 .3161-.07.4227-.1921.1287-.1475.1713-.3515.1122-.5382l-.6775-2.1406c-.0493-.1559-.194-.2619-.3576-.2619z" fill="url(#an)"/><g filter="url(#t)"><path d="m14.3569 17.349c.3442.1802.8787.3836 1.6488.3841.7702-.0005 1.3046-.2039 1.6488-.3841.1079-.0565.2424.0133.2501.1349.0017.0264-.003.0529-.0145.0767-.7601 1.4713-3.066 1.4563-3.7688 0-.0115-.0238-.0162-.0503-.0145-.0767.0077-.1216.1422-.1914.2501-.1349z" stroke="url(#ao)" stroke-width=".2"/></g><path d="m14.3569 17.349c.3442.1802.8787.3836 1.6488.3841.7702-.0005 1.3046-.2039 1.6488-.3841.1079-.0565.2424.0133.2501.1349.0017.0264-.003.0529-.0145.0767-.7601 1.4713-3.066 1.4563-3.7688 0-.0115-.0238-.0162-.0503-.0145-.0767.0077-.1216.1422-.1914.2501-.1349z" fill="#89004e"/><g filter="url(#u)"><path d="m8.59863 2.25537h3.42577v3.60814c0 .33999.2267.99879.6836 1.37977.3757.33476 1.0953 1.02229 1.7272 1.63172.4762.45941.4632 1.2071-.0264 1.6532-.4535.4132-1.0881.3491-1.5524-.0526l-.9799-.71311c-.2178-.18837-.5529-.16981-.7469.04137-.0854.093-.1325.21294-.1325.33714v3.2091c0 .6387-.5369 1.1565-1.19925 1.1565s-1.19922-.5178-1.19922-1.1565z" fill="#ffb52d"/><path d="m8.59863 2.25537h3.42577v3.60814c0 .33999.2267.99879.6836 1.37977.3757.33476 1.0953 1.02229 1.7272 1.63172.4762.45941.4632 1.2071-.0264 1.6532-.4535.4132-1.0881.3491-1.5524-.0526l-.9799-.71311c-.2178-.18837-.5529-.16981-.7469.04137-.0854.093-.1325.21294-.1325.33714v3.2091c0 .6387-.5369 1.1565-1.19925 1.1565s-1.19922-.5178-1.19922-1.1565z" fill="url(#ap)"/><path d="m8.59863 2.25537h3.42577v3.60814c0 .33999.2267.99879.6836 1.37977.3757.33476 1.0953 1.02229 1.7272 1.63172.4762.45941.4632 1.2071-.0264 1.6532-.4535.4132-1.0881.3491-1.5524-.0526l-.9799-.71311c-.2178-.18837-.5529-.16981-.7469.04137-.0854.093-.1325.21294-.1325.33714v3.2091c0 .6387-.5369 1.1565-1.19925 1.1565s-1.19922-.5178-1.19922-1.1565z" fill="url(#aq)"/></g><g filter="url(#v)"><path d="m23.425 2.25537h-3.4257v3.60814c0 .33999-.2267.99879-.6836 1.37977-.3758.33476-1.0954 1.02229-1.7272 1.63172-.4762.45941-.4633 1.2071.0264 1.6532.4535.4132 1.0899.3491 1.5542-.0526l.9781-.71311c.2178-.18837.5529-.16981.7468.04137.0855.093.1326.21294.1326.33714v3.2091c0 .6387.5369 1.1565 1.1992 1.1565.6624 0 1.1992-.5178 1.1992-1.1565z" fill="#ffb62d"/><path d="m23.425 2.25537h-3.4257v3.60814c0 .33999-.2267.99879-.6836 1.37977-.3758.33476-1.0954 1.02229-1.7272 1.63172-.4762.45941-.4633 1.2071.0264 1.6532.4535.4132 1.0899.3491 1.5542-.0526l.9781-.71311c.2178-.18837.5529-.16981.7468.04137.0855.093.1326.21294.1326.33714v3.2091c0 .6387.5369 1.1565 1.1992 1.1565.6624 0 1.1992-.5178 1.1992-1.1565z" fill="url(#ar)"/></g><g filter="url(#w)"><path d="m23.425 2.25537h-3.4257v3.60814c0 .33999-.2267.99879-.6836 1.37977-.3758.33476-1.0954 1.02229-1.7272 1.63172-.4762.45941-.4633 1.2071.0264 1.6532.4535.4132 1.0899.3491 1.5542-.0526l.9781-.71311c.2178-.18837.5529-.16981.7468.04137.0855.093.1326.21294.1326.33714v3.2091c0 .6387.5369 1.1565 1.1992 1.1565.6624 0 1.1992-.5178 1.1992-1.1565z" fill="#ffb62d"/><path d="m23.425 2.25537h-3.4257v3.60814c0 .33999-.2267.99879-.6836 1.37977-.3758.33476-1.0954 1.02229-1.7272 1.63172-.4762.45941-.4633 1.2071.0264 1.6532.4535.4132 1.0899.3491 1.5542-.0526l.9781-.71311c.2178-.18837.5529-.16981.7468.04137.0855.093.1326.21294.1326.33714v3.2091c0 .6387.5369 1.1565 1.1992 1.1565.6624 0 1.1992-.5178 1.1992-1.1565z" fill="url(#ar)"/></g><g filter="url(#x)"><path d="m21.0746 8.65264-2.021 1.43516c-.2443.1735-.5849.142-.7906-.0733-.2193-.22945-.2085-.58559.0273-.79936.5356-.48561 1.3271-1.18653 1.9905-1.72278.8748-.70724 1.0506-1.77327 1.0292-2.21787v-2.48689h1.7046v10.3319c0 .3084-.2592.5584-.5789.5584s-.5789-.25-.5789-.5584v-4.08553c0-.3883-.458-.61156-.7822-.38133z" fill="url(#as)"/></g><g filter="url(#y)"><path d="m9.46875 9.02734 1.31105.77918v3.43318c0 .362-.2935.6555-.6555.6555-.36207 0-.65555-.2935-.65555-.6555z" fill="url(#at)"/></g><g filter="url(#z)"><path d="m10.1729 5.15496v-2.89959h1.4687v3.53416c0 .25877.1003.50746.2798.69381l2.2626 2.34849c.1738.18043.1712.46683-.006.64399-.1719.17189-.4479.18025-.6298.01908l-2.3644-2.09416c-.6429-.5694-1.0109-1.387-1.0109-2.24578z" fill="#ffdf38"/></g></svg>