<svg fill="none" height="32" viewBox="0 0 32 32" width="32" xmlns="http://www.w3.org/2000/svg" xmlns:xlink="http://www.w3.org/1999/xlink"><filter id="a" color-interpolation-filters="sRGB" filterUnits="userSpaceOnUse" height="29" width="29" x="1.99124" y="1.775"><feFlood flood-opacity="0" result="BackgroundImageFix"/><feBlend in="SourceGraphic" in2="BackgroundImageFix" mode="normal" result="shape"/><feColorMatrix in="SourceAlpha" result="hardAlpha" type="matrix" values="0 0 0 0 0 0 0 0 0 0 0 0 0 0 0 0 0 0 127 0"/><feOffset dy="-.6"/><feGaussianBlur stdDeviation=".375"/><feComposite in2="hardAlpha" k2="-1" k3="1" operator="arithmetic"/><feColorMatrix type="matrix" values="0 0 0 0 0.996078 0 0 0 0 0.490196 0 0 0 0 0.266667 0 0 0 1 0"/><feBlend in2="shape" mode="normal" result="effect1_innerShadow_18590_682"/><feColorMatrix in="SourceAlpha" result="hardAlpha" type="matrix" values="0 0 0 0 0 0 0 0 0 0 0 0 0 0 0 0 0 0 127 0"/><feOffset dx=".6"/><feGaussianBlur stdDeviation=".375"/><feComposite in2="hardAlpha" k2="-1" k3="1" operator="arithmetic"/><feColorMatrix type="matrix" values="0 0 0 0 0.996078 0 0 0 0 0.490196 0 0 0 0 0.266667 0 0 0 1 0"/><feBlend in2="effect1_innerShadow_18590_682" mode="normal" result="effect2_innerShadow_18590_682"/><feColorMatrix in="SourceAlpha" result="hardAlpha" type="matrix" values="0 0 0 0 0 0 0 0 0 0 0 0 0 0 0 0 0 0 127 0"/><feOffset dx=".4"/><feGaussianBlur stdDeviation=".25"/><feComposite in2="hardAlpha" k2="-1" k3="1" operator="arithmetic"/><feColorMatrix type="matrix" values="0 0 0 0 0.784314 0 0 0 0 0.458824 0 0 0 0 0.196078 0 0 0 1 0"/><feBlend in2="effect2_innerShadow_18590_682" mode="normal" result="effect3_innerShadow_18590_682"/><feColorMatrix in="SourceAlpha" result="hardAlpha" type="matrix" values="0 0 0 0 0 0 0 0 0 0 0 0 0 0 0 0 0 0 127 0"/><feOffset dx="-.4" dy=".4"/><feGaussianBlur stdDeviation=".3"/><feComposite in2="hardAlpha" k2="-1" k3="1" operator="arithmetic"/><feColorMatrix type="matrix" values="0 0 0 0 1 0 0 0 0 0.996078 0 0 0 0 0.439216 0 0 0 1 0"/><feBlend in2="effect3_innerShadow_18590_682" mode="normal" result="effect4_innerShadow_18590_682"/></filter><filter id="b" color-interpolation-filters="sRGB" filterUnits="userSpaceOnUse" height="20.3481" width="23.1831" x="4.54968" y="6.45093"><feFlood flood-opacity="0" result="BackgroundImageFix"/><feBlend in="SourceGraphic" in2="BackgroundImageFix" mode="normal" result="shape"/><feColorMatrix in="SourceAlpha" result="hardAlpha" type="matrix" values="0 0 0 0 0 0 0 0 0 0 0 0 0 0 0 0 0 0 127 0"/><feOffset dx="-.75" dy=".75"/><feGaussianBlur stdDeviation=".5"/><feComposite in2="hardAlpha" k2="-1" k3="1" operator="arithmetic"/><feColorMatrix type="matrix" values="0 0 0 0 0.2 0 0 0 0 0.168627 0 0 0 0 0.235294 0 0 0 1 0"/><feBlend in2="shape" mode="normal" result="effect1_innerShadow_18590_682"/><feColorMatrix in="SourceAlpha" result="hardAlpha" type="matrix" values="0 0 0 0 0 0 0 0 0 0 0 0 0 0 0 0 0 0 127 0"/><feOffset dx=".25" dy="-.25"/><feGaussianBlur stdDeviation=".5"/><feComposite in2="hardAlpha" k2="-1" k3="1" operator="arithmetic"/><feColorMatrix type="matrix" values="0 0 0 0 0.290196 0 0 0 0 0.278431 0 0 0 0 0.305882 0 0 0 1 0"/><feBlend in2="effect1_innerShadow_18590_682" mode="normal" result="effect2_innerShadow_18590_682"/></filter><linearGradient id="c" gradientUnits="userSpaceOnUse" x1="16.3912" x2="16.3912" y1="2.375" y2="30.375"><stop offset="0" stop-color="#ffd857"/><stop offset=".902471" stop-color="#ffaa56"/></linearGradient><g filter="url(#a)"><path d="m16.3912 30.375c-7.72996 0-13.99996-6.27-13.99996-14s6.27-14 13.99996-14c7.73 0 14 6.27 14 14s-6.27 14-14 14z" fill="url(#c)"/></g><g fill="#48424e" filter="url(#b)"><path d="m21.7397 13.6817c1.05 0 2.12.27 3.09.83 1.24.71 2.13 1.79 2.63 3.02.12.27-.26.48-.43.24-.4-.56-.92-1.05-1.56-1.42-2.38-1.37-5.43-.53-6.76 1.9-1.28 2.34-.43 5.31 1.89 6.62.63.36 1.3.56 1.98.62.29.03.31.46.01.5-1.32.18-2.7-.06-3.94-.77-.97-.56-1.74-1.35-2.26-2.26-.52.91-1.29 1.7-2.26 2.26-1.23.71-2.62.95-3.93.77-.28996-.04-.27996-.47.01-.5.68-.06 1.37-.27 2.01-.64 2.39-1.37 3.18-4.44 1.74-6.8-1.36-2.23-4.25996-3-6.54996-1.75-.68.37-1.23.88-1.65 1.47-.18.24-.55.04-.44-.24.49-1.23 1.39-2.31 2.63-3.02.98-.56 2.04-.83 3.08996-.83-.53-.91-.83-1.96-.83-3.09 0-1.43004.49-2.74004 1.3-3.79004.18-.23.55-.01.43.27-.29.62-.45 1.32-.45 2.06 0 2.74004 2.26 4.97004 5.02 4.90004 2.61-.07 4.73-2.19 4.79-4.80004.02-.78-.15-1.51-.45-2.17-.13-.27.24-.5.42-.26.81 1.04 1.3 2.36 1.3 3.79004 0 1.13-.3 2.18-.83 3.09zm-6.85 2.87c0 .83.67 1.5 1.5 1.5s1.5-.67 1.5-1.5-.67-1.5-1.5-1.5-1.5.67-1.5 1.5z"/><path d="m13.9198 11.6416c-.21.11-.47.05-.62-.14-.2-.25-.12-.61.16-.75.88-.45 1.88-.7 2.93-.7s2.04.25 2.93.69c.28.14.36.5.17.75-.01 0-.01.01-.01.01-.15.19-.41.25-.62.14-.74-.38-1.58-.59-2.47-.59s-1.73.21-2.47.59z"/><path d="m13.5597 21.7516c.09-.22.01-.47-.19-.6-.7-.46-1.3-1.08-1.75-1.85-.44-.77-.68-1.6-.73-2.43-.01-.24-.19-.43-.43-.47h-.01c-.31-.04-.57998.21-.55998.52.05.98.32998 1.97.85998 2.88s1.24 1.65 2.07 2.19c.27.17.62.06.74-.24z"/><path d="m22.2398 16.7616h.01c.34-.06.63.22.59.55-.23 1.91-1.3 3.58-2.82 4.61-.28.19-.67.05-.76-.27v-.01c-.06-.2.02-.42.2-.54 1.3-.87 2.2-2.28 2.39-3.91.02-.21.18-.39.39-.43z"/></g></svg>