<svg fill="none" height="32" viewBox="0 0 32 32" width="32" xmlns="http://www.w3.org/2000/svg"><path d="m6.38665 27.3134 2.35 2.35c.46.46 1.24.41 1.75995-.11 0 0 .28-.28.31-.46.12-.81-.5-1.53.13-2.17.64-.64 1.48.04 2.17-.13.18-.05.5-.34.5-.34.52-.52.57-1.3.11-1.76l-2.35-2.35c-.46-.46-1.24-.41-1.75995.11l-3.1 3.1c-.53.52-.58 1.31-.12 1.76z" fill="#ff9f2e"/><path d="m15.5267 4.46339c2.62-2.62 6.75-3.3 9.87-1.31 4.35 2.78 4.81 8.70001 1.37 12.14001-2.442 2.4482-6.1389 2.9234-9.0705 1.4304l-11.35954 11.3596c-.85.84-2.1 1.2-3.06.75-1.58-.74-1.67-2.82-.4-4.09 0 0 1.05-1.03 1.68-1.68.15046-.1588 3.54314-3.5459 4.79265-4.7933.24528-.2449.40797-.4073.44735-.4467.38114-.3811 3.74044-3.7247 4.49844-4.4792-.2527-.4738-.4707-.9874-.6484-1.5408-.83-2.59001-.04-5.42001 1.88-7.34001zm2.86 2.65c-.96.96-1.36 2.38-.94 3.67001 1.01 3.13 4.6 3.72 6.56 1.75 1.72-1.72 1.49-4.68001-.69-6.07001-1.55-1-3.62-.66-4.93.65z" fill="#f9c23c"/><path d="m12.9697 12.9697c.2929-.2929.7677-.2929 1.0606 0l4 4c.2929.2929.2929.7677 0 1.0606-.2307.2308-.5744.2797-.8531.1469.1328.2787.0839.6224-.1469.8531-.2929.2929-.7677.2929-1.0606 0l-4-4c-.2929-.2929-.2929-.7677 0-1.0606.2307-.2308.5744-.2797.8531-.1469-.1328-.2787-.0839-.6224.1469-.8531z" fill="#ffb02e"/></svg>