<svg enable-background="new 0 0 128 128" viewBox="0 0 128 128" xmlns="http://www.w3.org/2000/svg"><g transform="scale(4)"><path d="m2 6c0-2.20914 1.79086-4 4-4h20c2.2091 0 4 1.79086 4 4v20c0 2.2091-1.7909 4-4 4h-20c-2.20914 0-4-1.7909-4-4z" fill="#8d65c5"/><g fill="#fff"><path d="m16 17.75c.9665 0 1.75-.7835 1.75-1.75s-.7835-1.75-1.75-1.75-1.75.7835-1.75 1.75.7835 1.75 1.75 1.75z"/><path d="m16.003 28.0041c1.704-.0005 3.2169-1.875 4.1697-4.7751 2.9881.6242 5.3678.2506 6.2197-1.225.8521-1.4759-.0146-3.724-2.0499-6.0001 2.0352-2.276 2.9019-4.5241 2.0499-5.9999-.8523-1.47613-3.2332-1.84947-6.2226-1.22452-.9542-2.90107-2.4684-4.77588-4.1728-4.77545-1.7039.00043-3.2168 1.87484-4.1696 4.77484-2.98804-.6241-5.36769-.25052-6.21963 1.22513-.85208 1.4758.01462 3.7239 2.04982 5.9999-2.03524 2.2761-2.90196 4.5242-2.04987 6.0001.8522 1.476 3.23306 1.8494 6.22238 1.2245.9542 2.9011 2.4685 4.776 4.1729 4.7756zm-.0003-1.5c-.2223 0-.5541-.0971-.9882-.5186-.4411-.4284-.907-1.1212-1.3309-2.0943-.1402-.3218-.2725-.6668-.3958-1.0329.8751-.2597 1.7857-.5948 2.7123-1.0031.9275.4087 1.839.744 2.7149 1.0039-.1229.3653-.2549.7097-.3946 1.031-.4234.9732-.889 1.6663-1.3299 2.0949-.4338.4218-.7655.519-.9878.5191zm3.1231-5.0878c-.428-.1274-.8676-.2749-1.316-.4427.2672-.1428.5347-.2914.8021-.4458.2677-.1545.5305-.3121.7881-.4724-.0788.4722-.1707.9266-.2742 1.3609zm4.8635-3.4768c.6309.8534.9982 1.6032 1.1488 2.1994.1481.5867.0664.9226-.0447 1.1151-.1112.1925-.3612.4312-.9433.5962-.5916.1677-1.4246.2246-2.4792.1048-.3481-.0395-.7123-.0973-1.0902-.1735.2127-.8882.3777-1.845.4873-2.8523.817-.5986 1.5626-1.2198 2.2252-1.8479.2552.2894.4876.5762.6961.8582zm-.0001-3.871c-.2084.2819-.4408.5687-.696.8581-.6629-.6285-1.409-1.25-2.2265-1.8488-.11-1.0068-.2754-1.9631-.4883-2.8509.3787-.0764.7437-.1344 1.0924-.174 1.0546-.11973 1.8876-.06285 2.4792.1048.5821.165.8322.4037.9433.5963.1112.1925.1929.5284.0447 1.115-.1506.5962-.5178 1.346-1.1488 2.1995zm-1.7399 1.9354c-.324.3067-.6713.6133-1.0404.9175.0099-.3032.0149-.6096.0148-.9187-.0001-.3084-.0052-.614-.0152-.9166.3693.3043.7167.6111 1.0408.9178zm-3.1258-5.4116c.1036.4337.1956.8875.2745 1.3589-.257-.1598-.5191-.317-.786-.4711-.2674-.1544-.535-.303-.8022-.4458.4476-.1675.8865-.3148 1.3137-.442zm-5.8384-1.44346c.1229-.3653.2548-.70962.3945-1.0308.4234-.97327.889-1.66633 1.3299-2.09494.4338-.42176.7655-.51902.9878-.51907.2223-.00006.5541.09703.9882.51857.4411.42839.907 1.12121 1.3309 2.09426.1402.32177.2725.66676.3958 1.03282-.875.25972-1.7856.59479-2.7121 1.00302-.9276-.40868-1.8391-.74403-2.715-1.00386zm-2.9558.90406c.348.0395.7122.0973 1.09.1735-.2126.8882-.3777 1.8451-.4873 2.8524-.817.5985-1.56255 1.2197-2.22506 1.8478-.25516-.2894-.48759-.5762-.69603-.8581-.63097-.8535-.9982-1.6033-1.14879-2.1995-.14818-.5866-.06646-.9225.04469-1.115.11115-.1926.36118-.4313.94332-.5963.59159-.16765 1.42457-.22453 2.47917-.1048zm-2.31845 7.8866c.20846-.282.4409-.5688.69609-.8582.66286.6284 1.40886 1.2499 2.22636 1.8487.11 1.0068.2754 1.9632.4882 2.8511-.3786.0764-.7435.1344-1.0923.1739-1.05455.1198-1.88753.0629-2.47912-.1048-.58215-.165-.83218-.4037-.94333-.5962s-.19287-.5284-.04469-1.1151c.15059-.5962.51782-1.346 1.14879-2.1994zm1.73994-1.9356c.32401-.3066.67121-.6132 1.04031-.9173-.0099.3032-.0149.6096-.0148.9188.0001.3082.0052.6138.0152.9162-.3692-.3042-.7166-.6109-1.04071-.9177zm2.52551.0011c-.0002-.7219.0289-1.4243.084-2.1018.559-.3866 1.1527-.7632 1.7779-1.1241.6249-.3608 1.2477-.6866 1.8619-.9774.6141.2908 1.2369.6166 1.8619.9774.6247.3607 1.218.737 1.7768 1.1233.0553.6771.0847 1.3792.0849 2.1007.0002.7218-.0289 1.4243-.084 2.1017-.559.3865-1.1527.7631-1.7778 1.124-.6249.3608-1.2477.6866-1.8618.9774-.6141-.2908-1.2369-.6166-1.8619-.9774-.6248-.3607-1.2182-.7371-1.777-1.1234-.0553-.6771-.0847-1.3791-.0849-2.1004zm.6002 5.4107c-.1036-.4337-.1956-.8876-.2745-1.3591.257.1598.5192.3171.7862.4712.2674.1544.5349.303.8022.4458-.4477.1675-.8866.3148-1.3139.4421zm1.3139-10.3814c-.2673.1428-.5349.2914-.8022.4458-.2677.1546-.5305.3122-.7882.4724.0788-.4721.1707-.9266.2743-1.3609.428.1274.8676.2749 1.3161.4427z"/></g></g></svg>