<svg fill="none" height="32" viewBox="0 0 32 32" width="32" xmlns="http://www.w3.org/2000/svg" xmlns:xlink="http://www.w3.org/1999/xlink"><filter id="a" color-interpolation-filters="sRGB" filterUnits="userSpaceOnUse" height="13.8117" width="22.3" x="4.7" y="5.0625"><feFlood flood-opacity="0" result="BackgroundImageFix"/><feBlend in="SourceGraphic" in2="BackgroundImageFix" mode="normal" result="shape"/><feColorMatrix in="SourceAlpha" result="hardAlpha" type="matrix" values="0 0 0 0 0 0 0 0 0 0 0 0 0 0 0 0 0 0 127 0"/><feOffset dx="-.3" dy=".4"/><feGaussianBlur stdDeviation=".5"/><feComposite in2="hardAlpha" k2="-1" k3="1" operator="arithmetic"/><feColorMatrix type="matrix" values="0 0 0 0 1 0 0 0 0 0.890196 0 0 0 0 0.290196 0 0 0 1 0"/><feBlend in2="shape" mode="normal" result="effect1_innerShadow_18_23356"/><feColorMatrix in="SourceAlpha" result="hardAlpha" type="matrix" values="0 0 0 0 0 0 0 0 0 0 0 0 0 0 0 0 0 0 127 0"/><feOffset dy=".2"/><feGaussianBlur stdDeviation=".25"/><feComposite in2="hardAlpha" k2="-1" k3="1" operator="arithmetic"/><feColorMatrix type="matrix" values="0 0 0 0 0.976471 0 0 0 0 0.792157 0 0 0 0 0.298039 0 0 0 1 0"/><feBlend in2="effect1_innerShadow_18_23356" mode="normal" result="effect2_innerShadow_18_23356"/></filter><filter id="b" color-interpolation-filters="sRGB" filterUnits="userSpaceOnUse" height="14.2117" width="22.3" x="4.7" y="8.6625"><feFlood flood-opacity="0" result="BackgroundImageFix"/><feBlend in="SourceGraphic" in2="BackgroundImageFix" mode="normal" result="shape"/><feColorMatrix in="SourceAlpha" result="hardAlpha" type="matrix" values="0 0 0 0 0 0 0 0 0 0 0 0 0 0 0 0 0 0 127 0"/><feOffset dy="-.4"/><feGaussianBlur stdDeviation=".375"/><feComposite in2="hardAlpha" k2="-1" k3="1" operator="arithmetic"/><feColorMatrix type="matrix" values="0 0 0 0 0.956863 0 0 0 0 0.6 0 0 0 0 0.407843 0 0 0 1 0"/><feBlend in2="shape" mode="normal" result="effect1_innerShadow_18_23356"/><feColorMatrix in="SourceAlpha" result="hardAlpha" type="matrix" values="0 0 0 0 0 0 0 0 0 0 0 0 0 0 0 0 0 0 127 0"/><feOffset dx="-.3" dy=".4"/><feGaussianBlur stdDeviation=".5"/><feComposite in2="hardAlpha" k2="-1" k3="1" operator="arithmetic"/><feColorMatrix type="matrix" values="0 0 0 0 1 0 0 0 0 0.890196 0 0 0 0 0.290196 0 0 0 1 0"/><feBlend in2="effect1_innerShadow_18_23356" mode="normal" result="effect2_innerShadow_18_23356"/></filter><filter id="c" color-interpolation-filters="sRGB" filterUnits="userSpaceOnUse" height="14.2117" width="22.3" x="4.7" y="12.5375"><feFlood flood-opacity="0" result="BackgroundImageFix"/><feBlend in="SourceGraphic" in2="BackgroundImageFix" mode="normal" result="shape"/><feColorMatrix in="SourceAlpha" result="hardAlpha" type="matrix" values="0 0 0 0 0 0 0 0 0 0 0 0 0 0 0 0 0 0 127 0"/><feOffset dy="-.4"/><feGaussianBlur stdDeviation=".375"/><feComposite in2="hardAlpha" k2="-1" k3="1" operator="arithmetic"/><feColorMatrix type="matrix" values="0 0 0 0 0.956863 0 0 0 0 0.6 0 0 0 0 0.407843 0 0 0 1 0"/><feBlend in2="shape" mode="normal" result="effect1_innerShadow_18_23356"/><feColorMatrix in="SourceAlpha" result="hardAlpha" type="matrix" values="0 0 0 0 0 0 0 0 0 0 0 0 0 0 0 0 0 0 127 0"/><feOffset dx="-.3" dy=".4"/><feGaussianBlur stdDeviation=".5"/><feComposite in2="hardAlpha" k2="-1" k3="1" operator="arithmetic"/><feColorMatrix type="matrix" values="0 0 0 0 1 0 0 0 0 0.945098 0 0 0 0 0.317647 0 0 0 1 0"/><feBlend in2="effect1_innerShadow_18_23356" mode="normal" result="effect2_innerShadow_18_23356"/></filter><filter id="d" color-interpolation-filters="sRGB" filterUnits="userSpaceOnUse" height="6.8375" width="8.77656" x="11.4219" y="20.7656"><feFlood flood-opacity="0" result="BackgroundImageFix"/><feColorMatrix in="SourceAlpha" result="hardAlpha" type="matrix" values="0 0 0 0 0 0 0 0 0 0 0 0 0 0 0 0 0 0 127 0"/><feOffset dx="-.1" dy=".25"/><feGaussianBlur stdDeviation=".2"/><feComposite in2="hardAlpha" operator="out"/><feColorMatrix type="matrix" values="0 0 0 0 0.266667 0 0 0 0 0.2 0 0 0 0 0.345098 0 0 0 1 0"/><feBlend in2="BackgroundImageFix" mode="normal" result="effect1_dropShadow_18_23356"/><feBlend in="SourceGraphic" in2="effect1_dropShadow_18_23356" mode="normal" result="shape"/><feColorMatrix in="SourceAlpha" result="hardAlpha" type="matrix" values="0 0 0 0 0 0 0 0 0 0 0 0 0 0 0 0 0 0 127 0"/><feOffset dy="-.25"/><feGaussianBlur stdDeviation=".25"/><feComposite in2="hardAlpha" k2="-1" k3="1" operator="arithmetic"/><feColorMatrix type="matrix" values="0 0 0 0 0.533333 0 0 0 0 0.294118 0 0 0 0 0.831373 0 0 0 1 0"/><feBlend in2="shape" mode="normal" result="effect2_innerShadow_18_23356"/><feColorMatrix in="SourceAlpha" result="hardAlpha" type="matrix" values="0 0 0 0 0 0 0 0 0 0 0 0 0 0 0 0 0 0 127 0"/><feOffset dx="-.15" dy=".15"/><feGaussianBlur stdDeviation=".125"/><feComposite in2="hardAlpha" k2="-1" k3="1" operator="arithmetic"/><feColorMatrix type="matrix" values="0 0 0 0 0.572549 0 0 0 0 0.486275 0 0 0 0 0.792157 0 0 0 1 0"/><feBlend in2="effect2_innerShadow_18_23356" mode="normal" result="effect3_innerShadow_18_23356"/></filter><filter id="e" color-interpolation-filters="sRGB" filterUnits="userSpaceOnUse" height="13.4813" width="28.075" x="1.86875" y="4.9625"><feFlood flood-opacity="0" result="BackgroundImageFix"/><feBlend in="SourceGraphic" in2="BackgroundImageFix" mode="normal" result="shape"/><feColorMatrix in="SourceAlpha" result="hardAlpha" type="matrix" values="0 0 0 0 0 0 0 0 0 0 0 0 0 0 0 0 0 0 127 0"/><feOffset dx="-.1" dy="-.1"/><feGaussianBlur stdDeviation=".05"/><feComposite in2="hardAlpha" k2="-1" k3="1" operator="arithmetic"/><feColorMatrix type="matrix" values="0 0 0 0 0.45098 0 0 0 0 0.427451 0 0 0 0 0.627451 0 0 0 1 0"/><feBlend in2="shape" mode="normal" result="effect1_innerShadow_18_23356"/><feColorMatrix in="SourceAlpha" result="hardAlpha" type="matrix" values="0 0 0 0 0 0 0 0 0 0 0 0 0 0 0 0 0 0 127 0"/><feOffset dx=".1" dy=".1"/><feGaussianBlur stdDeviation=".1"/><feComposite in2="hardAlpha" k2="-1" k3="1" operator="arithmetic"/><feColorMatrix type="matrix" values="0 0 0 0 0.384314 0 0 0 0 0.333333 0 0 0 0 0.478431 0 0 0 1 0"/><feBlend in2="effect1_innerShadow_18_23356" mode="normal" result="effect2_innerShadow_18_23356"/></filter><filter id="f" color-interpolation-filters="sRGB" filterUnits="userSpaceOnUse" height="2.1" width="6.22344" x="7.84922" y="10.9375"><feFlood flood-opacity="0" result="BackgroundImageFix"/><feBlend in="SourceGraphic" in2="BackgroundImageFix" mode="normal" result="shape"/><feColorMatrix in="SourceAlpha" result="hardAlpha" type="matrix" values="0 0 0 0 0 0 0 0 0 0 0 0 0 0 0 0 0 0 127 0"/><feOffset dx="-.1"/><feGaussianBlur stdDeviation=".125"/><feComposite in2="hardAlpha" k2="-1" k3="1" operator="arithmetic"/><feColorMatrix type="matrix" values="0 0 0 0 1 0 0 0 0 0.25098 0 0 0 0 0.458824 0 0 0 1 0"/><feBlend in2="shape" mode="normal" result="effect1_innerShadow_18_23356"/><feColorMatrix in="SourceAlpha" result="hardAlpha" type="matrix" values="0 0 0 0 0 0 0 0 0 0 0 0 0 0 0 0 0 0 127 0"/><feOffset dx=".1" dy=".1"/><feGaussianBlur stdDeviation=".125"/><feComposite in2="hardAlpha" k2="-1" k3="1" operator="arithmetic"/><feColorMatrix type="matrix" values="0 0 0 0 0.992157 0 0 0 0 0.282353 0 0 0 0 0.262745 0 0 0 1 0"/><feBlend in2="effect1_innerShadow_18_23356" mode="normal" result="effect2_innerShadow_18_23356"/></filter><filter id="g" color-interpolation-filters="sRGB" filterUnits="userSpaceOnUse" height="2.1" width="6.22344" x="12.7945" y="7.0625"><feFlood flood-opacity="0" result="BackgroundImageFix"/><feBlend in="SourceGraphic" in2="BackgroundImageFix" mode="normal" result="shape"/><feColorMatrix in="SourceAlpha" result="hardAlpha" type="matrix" values="0 0 0 0 0 0 0 0 0 0 0 0 0 0 0 0 0 0 127 0"/><feOffset dx="-.1"/><feGaussianBlur stdDeviation=".125"/><feComposite in2="hardAlpha" k2="-1" k3="1" operator="arithmetic"/><feColorMatrix type="matrix" values="0 0 0 0 0.298039 0 0 0 0 0.611765 0 0 0 0 0.85098 0 0 0 1 0"/><feBlend in2="shape" mode="normal" result="effect1_innerShadow_18_23356"/><feColorMatrix in="SourceAlpha" result="hardAlpha" type="matrix" values="0 0 0 0 0 0 0 0 0 0 0 0 0 0 0 0 0 0 127 0"/><feOffset dx=".1" dy=".1"/><feGaussianBlur stdDeviation=".125"/><feComposite in2="hardAlpha" k2="-1" k3="1" operator="arithmetic"/><feColorMatrix type="matrix" values="0 0 0 0 0.270588 0 0 0 0 0.501961 0 0 0 0 0.768627 0 0 0 1 0"/><feBlend in2="effect1_innerShadow_18_23356" mode="normal" result="effect2_innerShadow_18_23356"/></filter><filter id="h" color-interpolation-filters="sRGB" filterUnits="userSpaceOnUse" height="2.1" width="6.22344" x="17.7555" y="3.0625"><feFlood flood-opacity="0" result="BackgroundImageFix"/><feBlend in="SourceGraphic" in2="BackgroundImageFix" mode="normal" result="shape"/><feColorMatrix in="SourceAlpha" result="hardAlpha" type="matrix" values="0 0 0 0 0 0 0 0 0 0 0 0 0 0 0 0 0 0 127 0"/><feOffset dx="-.1"/><feGaussianBlur stdDeviation=".125"/><feComposite in2="hardAlpha" k2="-1" k3="1" operator="arithmetic"/><feColorMatrix type="matrix" values="0 0 0 0 0.34902 0 0 0 0 0.905882 0 0 0 0 0.603922 0 0 0 1 0"/><feBlend in2="shape" mode="normal" result="effect1_innerShadow_18_23356"/><feColorMatrix in="SourceAlpha" result="hardAlpha" type="matrix" values="0 0 0 0 0 0 0 0 0 0 0 0 0 0 0 0 0 0 127 0"/><feOffset dx=".1" dy=".1"/><feGaussianBlur stdDeviation=".125"/><feComposite in2="hardAlpha" k2="-1" k3="1" operator="arithmetic"/><feColorMatrix type="matrix" values="0 0 0 0 0.239216 0 0 0 0 0.713726 0 0 0 0 0.411765 0 0 0 1 0"/><feBlend in2="effect1_innerShadow_18_23356" mode="normal" result="effect2_innerShadow_18_23356"/></filter><linearGradient id="i" gradientUnits="userSpaceOnUse" x1="16" x2="16" y1="6.42187" y2="16.9844"><stop offset="0" stop-color="#4b3d53"/><stop offset="1" stop-color="#321143"/></linearGradient><linearGradient id="j" gradientUnits="userSpaceOnUse" x1="16" x2="16" y1="5.0625" y2="8.61928"><stop offset="0" stop-color="#ffd650"/><stop offset="1" stop-color="#ffcd4a"/></linearGradient><linearGradient id="k"><stop offset="0" stop-color="#ffba48"/><stop offset="1" stop-color="#ffba48" stop-opacity="0"/></linearGradient><linearGradient id="l" gradientUnits="userSpaceOnUse" x1="16" x2="16" xlink:href="#k" y1="8.68868" y2="6.67606"/><linearGradient id="m"><stop offset="0" stop-color="#ffe857"/><stop offset="1" stop-color="#ffe857" stop-opacity="0"/></linearGradient><radialGradient id="n" cx="0" cy="0" gradientTransform="matrix(-1.25801013 1.28096514 -2.16671749 -2.12788973 27 5.42227)" gradientUnits="userSpaceOnUse" r="1" xlink:href="#m"/><linearGradient id="o"><stop offset="0" stop-color="#ffda53"/><stop offset="1" stop-color="#ffba59"/></linearGradient><linearGradient id="p" gradientUnits="userSpaceOnUse" x1="16" x2="16" xlink:href="#o" y1="9.0625" y2="22.4742"/><linearGradient id="q" gradientUnits="userSpaceOnUse" x1="16" x2="16" xlink:href="#k" y1="13.3827" y2="10.6414"/><radialGradient id="r" cx="0" cy="0" gradientTransform="matrix(-1.25801013 1.28096514 -2.16671749 -2.12788973 27 9.42227)" gradientUnits="userSpaceOnUse" r="1" xlink:href="#m"/><linearGradient id="s" gradientUnits="userSpaceOnUse" x1="16" x2="16" xlink:href="#o" y1="12.9375" y2="26.3492"/><radialGradient id="t" cx="0" cy="0" gradientTransform="matrix(-1.25801013 1.28096514 -2.16671749 -2.12788973 27 13.2973)" gradientUnits="userSpaceOnUse" r="1" xlink:href="#m"/><linearGradient id="u" gradientUnits="userSpaceOnUse" x1="15.9062" x2="15.9062" y1="16.0938" y2="29.875"><stop offset="0" stop-color="#5d4a72"/><stop offset="1" stop-color="#544862"/></linearGradient><linearGradient id="v" gradientUnits="userSpaceOnUse" x1="30.0313" x2="27.3438" y1="28.0625" y2="28.0625"><stop offset=".546512" stop-color="#5d5468"/><stop offset="1" stop-color="#5b5069" stop-opacity="0"/></linearGradient><linearGradient id="w" gradientUnits="userSpaceOnUse" x1="1.96875" x2="4.5" y1="25.1875" y2="25.1875"><stop offset="0" stop-color="#564f5e"/><stop offset="1" stop-color="#564f5e" stop-opacity="0"/></linearGradient><linearGradient id="x" gradientUnits="userSpaceOnUse" x1="15.9102" x2="15.9102" y1="21.0156" y2="26.9531"><stop offset="0" stop-color="#8b6dc5"/><stop offset="1" stop-color="#8466be"/></linearGradient><linearGradient id="y" gradientUnits="userSpaceOnUse" x1="15.9063" x2="15.9063" y1="5.0625" y2="14.9688"><stop offset="0" stop-color="#63567e"/><stop offset="1" stop-color="#6c6695"/></linearGradient><linearGradient id="z" gradientUnits="userSpaceOnUse" x1="12.2188" x2="10.9609" y1="10.9375" y2="12.9375"><stop offset="0" stop-color="#ff416d"/><stop offset="1" stop-color="#ff3a66"/></linearGradient><linearGradient id="A" gradientUnits="userSpaceOnUse" x1="16.625" x2="15.9063" y1="7.0625" y2="9.0625"><stop offset="0" stop-color="#4794d7"/><stop offset="1" stop-color="#4482ca"/></linearGradient><linearGradient id="B" gradientUnits="userSpaceOnUse" x1="21.5625" x2="20.8672" y1="2.71875" y2="5.0625"><stop offset="0" stop-color="#4edc8e"/><stop offset="1" stop-color="#54c877"/></linearGradient><linearGradient id="C" gradientUnits="userSpaceOnUse" x1="18.4062" x2="14.9062" y1="22.3438" y2="25.9922"><stop offset="0" stop-color="#decbf4"/><stop offset="1" stop-color="#ccbfdc"/></linearGradient><rect fill="url(#i)" height="10.5625" rx=".75" width="25.0312" x="3.48438" y="6.42188"/><g filter="url(#a)"><rect fill="url(#j)" height="13.4117" rx="2.5" width="22" x="5" y="5.0625"/><rect fill="url(#l)" height="13.4117" rx="2.5" width="22" x="5" y="5.0625"/></g><rect fill="url(#n)" height="13.4117" rx="2.5" width="22" x="5" y="5.0625"/><rect fill="url(#n)" height="13.4117" rx="2.5" width="22" x="5" y="5.0625"/><g filter="url(#b)"><rect fill="url(#p)" height="13.4117" rx="2.5" width="22" x="5" y="9.0625"/><rect fill="url(#q)" height="13.4117" rx="2.5" width="22" x="5" y="9.0625"/></g><rect fill="url(#r)" height="13.4117" rx="2.5" width="22" x="5" y="9.0625"/><g filter="url(#c)"><rect fill="url(#s)" height="13.4117" rx="2.5" width="22" x="5" y="12.9375"/></g><rect fill="url(#t)" height="13.4117" rx="2.5" width="22" x="5" y="12.9375"/><path d="m1.96875 16.0938v11.5312c0 1.2426 1.00739 2.25 2.25 2.25h23.37505c1.2426 0 2.25-1.0074 2.25-2.25v-11.5312c0 1.2426-1.0074 2.25-2.25 2.25h-23.37505c-1.24261 0-2.25-1.0074-2.25-2.25z" fill="url(#u)"/><path d="m1.96875 16.0938v11.5312c0 1.2426 1.00739 2.25 2.25 2.25h23.37505c1.2426 0 2.25-1.0074 2.25-2.25v-11.5312c0 1.2426-1.0074 2.25-2.25 2.25h-23.37505c-1.24261 0-2.25-1.0074-2.25-2.25z" fill="url(#v)"/><path d="m1.96875 16.0938v11.5312c0 1.2426 1.00739 2.25 2.25 2.25h23.37505c1.2426 0 2.25-1.0074 2.25-2.25v-11.5312c0 1.2426-1.0074 2.25-2.25 2.25h-23.37505c-1.24261 0-2.25-1.0074-2.25-2.25z" fill="url(#w)"/><g filter="url(#d)"><path clip-rule="evenodd" d="m13.3219 21.0156c-.7732 0-1.4.6268-1.4 1.4v3.1375c0 .7732.6268 1.4 1.4 1.4h5.1765c.7732 0 1.4-.6268 1.4-1.4v-3.1375c0-.7732-.6268-1.4-1.4-1.4zm-.0234.961c-.221 0-.4001.179-.4001.4v3.2156c0 .2209.1791.4.4001.4h5.2234c.2209 0 .4-.1791.4-.4v-3.2156c0-.221-.1791-.4-.4-.4z" fill="url(#x)" fill-rule="evenodd"/></g><g filter="url(#e)"><path d="m1.96875 7.3125c0-1.24264 1.00739-2.25 2.25-2.25h3.28125c-.96985 0-1.81067.55222-2.22522 1.35938h-1.0404c-.41419 0-.75.33578-.75.75v9.06252c0 .4142.33581.75.75.75h23.53122c.4142 0 .75-.3358.75-.75v-9.06252c0-.41422-.3358-.75-.75-.75h-1.0404c-.4145-.80716-1.2554-1.35938-2.2252-1.35938h3.0938c1.2426 0 2.25 1.00736 2.25 2.25v8.7813c0 1.2426-1.0074 2.25-2.25 2.25h-23.37505c-1.24261 0-2.25-1.0074-2.25-2.25z" fill="url(#y)"/></g><g filter="url(#f)"><path d="m7.94922 11.9375c0-.5523.44771-1 1-1h4.02348c.5522 0 1 .4477 1 1v1h-6.02348z" fill="url(#z)"/></g><g filter="url(#g)"><path d="m12.8945 8.0625c0-.55228.4477-1 1-1h4.0235c.5523 0 1 .44772 1 1v1h-6.0235z" fill="url(#A)"/></g><g filter="url(#h)"><path d="m17.8555 4.0625c0-.55228.4477-1 1-1h4.0234c.5523 0 1 .44772 1 1v1h-6.0234z" fill="url(#B)"/></g><rect fill="url(#C)" height="4.01562" rx=".4" width="6.02344" x="12.8984" y="21.9766"/></svg>