<svg enable-background="new 0 0 128 128" viewBox="0 0 32 32" xmlns="http://www.w3.org/2000/svg"><path d="m30 13.9518-4.3463-6.52695c-2.9182-2.38055-6.2794-.97263-7.5104.09783l-7.5509 10.89862-2.27974-1.7298c-1.31984-.9999-3.17962-.8799-4.35948.3l-1.94976 1.9597v10.9987h27.99658z" fill="#00d26a"/><path d="m24.1806 5.22292c-1.0398-1.56981-3.3396-1.5898-4.4094-.03999l-1.6298 2.34972 1.8197-.90989c.21-.09999.46-.05.6.12998l.9299 1.17986c.2699.33996.7799.33996 1.0398 0l.9299-1.17986c.14-.17998.39-.23997.5999-.12998l1.5899.7999z" fill="#d3d3d3"/><path d="m23.5108 27.8604-.02.01c-.9199.5499-2.0597.5499-2.9796 0l-.03-.02c-.9199-.5499-2.0698-.5499-2.9896.01-.9199.5599-2.0698.5599-2.9897.01l-.02-.01c-.9199-.5499-2.0697-.5499-2.9896.01l-.01.01c-.9199.5599-2.06977.5599-2.98966.01l-.03-.02c-.91989-.5499-2.06975-.5499-2.98964 0l-3.46958 2.1296h27.99658l-3.5095-2.1496c-.9199-.5399-2.0598-.5399-2.9797.01z" fill="#a56953"/><path d="m15.0001 7 1.7 1.15-1.16 1.75-1.71-1.18z" fill="#e4b29a"/><path d="m12.2899 4.47991-.93.51c-.78.44-1.07 1.44-.63 2.23l.22.4c.07.13.11.27.1.41-.01.43-.08.51 0 .67.13.26.39.19.51.14.04-.01.08 0 .1.03.52.87 1.03 1.41999 2.09.83.65-.36 1.49-1.25 1.35-2.17l-.3-1.18-.28-1.25c-.44-.78-1.44-1.06-2.23-.62z" fill="#eebfaa"/><path d="m12.5495 8.37307c.059-.01136.1162.02733.1275.08642.0614.31931-.1475.62624-.4664.68756-.0591.01137-.1162-.02732-.1276-.08641-.0113-.05909.0274-.1162.0864-.12757.2012-.03867.3322-.23174.2936-.43243-.0113-.05909.0274-.1162.0865-.12757z" fill="#990838"/><path d="m15.52 14.8701-1.34.8c-.67.4-1.02 1.19-.82 1.95 0 .01 0 .01.01.02.06.23.2.43.4.57l3.89 2.82 1.21-.58-3.2-2.98 1.33-.77z" fill="#e4b29a"/><path d="m18.4599 13.02-3.28 2.04 1.14 1.43c.12.27.62.47 1.05.29l3.2-1.85z" fill="#636363"/><path d="m17.2101 23.29c.18-.92.45-2.25.45-2.25l1.19-.58.5329.4279c.0046-.0052.007-.008.007-.008l.22.18c.19.16-.03.44-.03.44l-1.8 2.11s-.07.08-.17.04c-.018-.012-.0505-.0349-.0736-.0512-.1675-.0543-.3514-.1894-.3263-.3087z" fill="#533566"/><path d="m7.43091 13.7c0-1.1609.94182-2.0889 2.0889-2.0889h3.51999c.1561 0 .3019.0776.389.2071.0872.1295.1042.2939.0454.4384l-2.42 5.95c-.0976.2399-.3712.3553-.6111.2577-.2398-.0975-.3552-.3711-.2576-.611l2.1574-5.3044h-2.82309c-.63292 0-1.1511.5119-1.1511 1.1511 0 .6329.51195 1.1511 1.1511 1.1511.25896 0 .4689.2099.4689.4689 0 .2589-.20994.4689-.4689.4689-1.16085 0-2.0889-.9418-2.0889-2.0889z" fill="#d3d3d3"/><path d="m7.89981 13.231c.25896 0 .4689.2099.4689.4689 0 .6329.51195 1.1511 1.1511 1.1511.25896 0 .4689.2099.4689.4689 0 .2589-.20994.4689-.4689.4689-1.16085 0-2.0889-.9419-2.0889-2.0889 0-.259.20993-.4689.4689-.4689z" fill="#433b6b"/><path d="m12 25.25c0 2.3472-1.9028 4.25-4.25 4.25-2.34721 0-4.25-1.9028-4.25-4.25s1.90279-4.25 4.25-4.25c2.3472 0 4.25 1.9028 4.25 4.25zm-1.5 0c0-1.5188-1.23122-2.75-2.75-2.75s-2.75 1.2312-2.75 2.75 1.23122 2.75 2.75 2.75 2.75-1.2312 2.75-2.75z" fill="#f3eef8"/><path d="m28.1001 25.25c0 2.3472-1.9028 4.25-4.25 4.25s-4.25-1.9028-4.25-4.25 1.9028-4.25 4.25-4.25 4.25 1.9028 4.25 4.25zm-1.5 0c0-1.5188-1.2312-2.75-2.75-2.75s-2.75 1.2312-2.75 2.75 1.2312 2.75 2.75 2.75 2.75-1.2312 2.75-2.75z" fill="#f3eef8"/><path d="m7.79004 20.4126c-2.64749 0-4.7937 2.1462-4.7937 4.7937s2.14621 4.7937 4.7937 4.7937c2.64746 0 4.79366-2.1462 4.79366-4.7937s-2.1462-4.7937-4.79366-4.7937zm-3.7663 4.7937c0-2.0801 1.68623-3.7663 3.7663-3.7663s3.76626 1.6862 3.76626 3.7663-1.68619 3.7663-3.76626 3.7663-3.7663-1.6862-3.7663-3.7663z" fill="#433b6b"/><path d="m23.8901 20.4126c-2.6475 0-4.7937 2.1462-4.7937 4.7937s2.1462 4.7937 4.7937 4.7937 4.7937-2.1462 4.7937-4.7937-2.1462-4.7937-4.7937-4.7937zm-3.7663 4.7937c0-2.0801 1.6863-3.7663 3.7663-3.7663 2.0801 0 3.7663 1.6862 3.7663 3.7663s-1.6862 3.7663-3.7663 3.7663c-2.08 0-3.7663-1.6862-3.7663-3.7663z" fill="#433b6b"/><path d="m20.0744 16.9821c-.1124-.1758-.3196-.2666-.5251-.2299-.2054.0366-.3685.1934-.4132.3972l-1.5184 6.9179-6.8216-5.103.6121-1.5105c.107-.264-.0204-.5648-.2844-.6718-.264-.1069-.5647.0204-.6717.2844l-3.12002 7.7c-.10698.264.02033.5647.28434.6717.26402.107.56477-.0203.67175-.2843l2.10733-5.2009 7.2454 5.4201c.1404.105.3245.1315.4889.0704.1643-.0612.2863-.2016.3239-.3729l1.4229-6.483 4.1887 6.5503c.1535.24.4725.3102.7125.1567s.3101-.4724.1566-.7124z" fill="#f8312f"/><path d="m24.37 23.9399-5.96-.78c-1.01-.13-1.9.65-1.9 1.67 0 1.01.89 1.8 1.9 1.67l5.96-.78c.44-.06.78-.44.78-.88-.01-.46-.34-.84-.78-.9z" fill="#f9c23c"/><path d="m18.1299 25.8301c.5468 0 .99-.4432.99-.99s-.4432-.99-.99-.99-.99.4432-.99.99.4432.99.99.99z" fill="#fff"/><path d="m17.7601 8.14012c-.34-.14-.84-.25-1.36-.05-1.31.5-1.43 1.43-1.43 1.43s-.22 1.16998 1.3 2.25998c.01 0 .92.94 1.58 2.36.13.28.47.39.74.24l3.56-2.01c-1.54-2.71998-3.95-4.16998-4.39-4.22998z" fill="#8b62bf"/><path d="m21.9801 12.1001.24.78c.43 1.23.1 2.29-1 2.92l-3.95 2.72.04 5.53-1.39-.65-.78-4.78c-.12-.84.16-1.68.75-2.29l.01-.01 3.06-2.27z" fill="#eebfaa"/><path d="m13.5999 24.6199c.94-.49 2.33-1.21 2.33-1.21l1.4.65v.8001h.0002v.32c0 .29-.59.27-.59.27l-3.01-.05s-.08-.01-.12-.12c-.03-.04-.05-.13-.05-.13h.0098c-.0777-.1908-.0931-.4653.03-.5301z" fill="#533566"/><path d="m22.56 13.33s-.11-.69-1.17-2.12l-3.88 2.4.39.62c.13.21.08.48-.11.63l-1.32 1.03 1.96 2.11c.43.48 1.19.45 1.59-.05l1.68-1.93c.29-.34.54-.71.73-1.11.21-.43.27-1.14.13-1.58z" fill="#9b9b9b"/><path d="m11.3101 7.47989s0-.39.41-.53c.15-.05.3-.03.41 0 .09.03.13.13.09.21l-.16.32z"/><path d="m11.54 7.82996c-.05.03-.13 0-.17-.06 0 0 0 0 0-.01-.15-.26 0-.54.21-.66s.52-.1.67.16v.01c.04.07.02.14-.04.17z" fill="#fff"/><path d="m11.46 7.88009c-.03-.04-.06-.07-.09-.12-.1-.19-.07-.41.08-.49s.36 0 .46.19c.03.05.04.09.05.14z" fill="#7d4533"/><path d="m11.5499 7.83008c-.04-.02-.08-.06-.1-.1-.06-.12-.04-.24.04-.29.09-.05.2 0 .26.11.03.05.04.1.03.14z"/><path d="m11.4674 7.62042c.0289-.0161.035-.06046.0135-.09907-.0215-.03862-.0623-.05686-.0913-.04075s-.035.06047-.0136.09908c.0215.03861.0624.05685.0914.04074z" fill="#fff"/><path d="m17.21 7.02989c-.05-.66-.57-1.21-1.23-1.3-.18-.02-.34-.01-.5.02-.09.02-.18-.02-.23-.09-.21-.31-.56-.52-.97-.52-.42 0-.78.22-.99.55.07.32.22.63.31.95.07.24.12.49.19.73.02.01.03.01.05.02.13.31.25.63.34.95.39.2 1.04.39 1.9.19l.12-.03c.62-.19 1.06-.78 1.01-1.47z" fill="#fff9ba"/><path d="m14.39 9.51007c-.1 0-.19-.06-.23-.16l-1.16-3.18c-.05-.12.02-.26.14-.31.13-.05.26.02.31.14l1.16 3.18c.05.12-.02.26-.14.31-.03.02-.06.02-.08.02z" fill="#433b6b"/><path d="m12.0599 3.18011-1.45.69c-.95002.45-1.36002 1.59-.91002 2.54l.40002.84c.09.2.33.28.53.19l4.18-1.98c.2-.09.28-.33.19-.53l-.4-.84c-.45-.95-1.59-1.36-2.54-.91z" fill="#00a6ed"/><path d="m12.7899 4.96-1.27.6c-.16.08-.23.27-.15.43.07.16.26.23.43.15l1.27-.6c.16-.08.23-.27.15-.43s-.27-.23-.43-.15z" fill="#007acf"/><path d="m16.7901 8.87008c-.51-.25-1.13-.05-1.39.46-.01.02-1.15 2.23002-3.34 3.15002-.74.31-2.17001.57-2.65001.65-.21.03-.66.26-.81.4 0 0-.79.79-.81 1.39s.97.9.97.9.34.11.43-.4c.04-.2.23-.19.51-.24 0 0 2.05001-.33 3.15001-.79 2.92-1.22 4.34-4.02 4.39-4.14.27-.51002.06-1.13002-.45-1.38002z" fill="#eebfaa"/></svg>