<svg enable-background="new 0 0 128 128" viewBox="0 0 128 128" xmlns="http://www.w3.org/2000/svg"><g transform="scale(4)"><path d="m16.98 3c0-.55228-.4477-1-1-1-.5522 0-1 .44772-1 1v19.9638h2z" fill="#433b6b"/><path d="m5.5 14.98c1.28 0 2.4.7 3 1.73.1.16.27.26.46.26h.06c.19 0 .36-.1.46-.26.61-1.03 1.72-1.73 3-1.73s2.4.7 3 1.73c.1.16.27.26.46.26h.06c.19 0 .36-.1.46-.26.61-1.03 1.72-1.73 3-1.73s2.4.7 3 1.73c.1.16.27.26.46.26h.06c.19 0 .36-.1.46-.26.61-1.03 1.72-1.73 3-1.73 1.34 0 2.5.76 3.08 1.88.04.07.11.12.19.12.12 0 .22-.1.22-.22-.1-7.62-6.31-13.76-13.96-13.76s-13.85 6.14-13.97 13.75c0 .12.1.22.22.22.08 0 .16-.05.19-.12.59-1.11 1.75-1.87 3.09-1.87z" fill="#8d65c5"/><path d="m15.98 21.96c.5523 0 1 .4477 1 1v3.54c0 1.9222-1.5477 3.47-3.47 3.47-1.9249 0-3.47-1.5604-3.47-3.47 0-.5523.4478-1 1-1 .5523 0 1 .4477 1 1 0 .8103.655 1.47 1.47 1.47.8178 0 1.47-.6523 1.47-1.47v-3.54c0-.5523.4478-1 1-1z" fill="#8c5543"/></g></svg>