<svg fill="none" height="32" viewBox="0 0 32 32" width="32" xmlns="http://www.w3.org/2000/svg"><g clip-rule="evenodd" fill-rule="evenodd"><path d="m13.6348 17.8071c1.8064-.9767 2.7486-3.1356 3.189-5.212l.7396.3137c2.5134 1.0669 5.36 1.0669 7.8734 0l1.7564-.7449c1.4737-.624 3.0484.6342 2.7759 2.2044l-1.7564 10.005c-.5754 3.2512-3.4017 5.6266-6.7126 5.6266s-6.1373-2.3754-6.7126-5.6266zm7.1806 2.6323c-.318-.78-1.0099-1.3175-1.8235-1.3175s-1.5056.5375-1.8141 1.3175c-.0468.0948-.1684.0737-.1777-.0317v-.1581c0-1.2858.9632-2.3292 2.1227-2.2449.9912.0632 1.7955.9591 1.8703 2.0658.0093.1159.0093.2318 0 .3372-.0094.1054-.1403.1265-.1777.0317zm.6847 3.1904c1.8935 0 3.5404 1.0898 4.3885 2.6888.1578.3056.6115.1935.6115-.1527 0-.1732-.0099-.3463-.0296-.5297-.2367-2.4952-2.2288-4.4711-4.6548-4.6239-2.8994-.1833-5.3156 2.1898-5.3156 5.1536v.0101c0 .3463.4536.4482.6114.1528.8481-1.6092 2.4951-2.699 4.3886-2.699zm4.336-3.1904c-.3179-.78-1.0099-1.3175-1.8235-1.3175-.8135 0-1.5055.5375-1.8141 1.3175-.0468.0948-.1683.0737-.1777-.0317v-.1581c0-1.2858.9632-2.3292 2.1227-2.2449.9913.0632 1.7955.9591 1.8703 2.0658.0093.1159.0093.2318 0 .3372-.0094.1054-.1403.1265-.1777.0317z" fill="#ffb02e"/><path d="m14.4452 2.90808 1.7562-.74487c1.4735-.62409 3.048.63415 2.7654 2.20443l-1.7561 10.00556c-.5753 3.2512-3.4013 5.6268-6.7118 5.6268-3.31046 0-6.13646-2.3756-6.71175-5.6268l-1.75616-10.00556c-.27251-1.57028 1.30198-2.82852 2.77554-2.20443l1.76625.74487c2.51312 1.06699 5.35932 1.06699 7.87242 0zm-6.44403 6.21389c.81356 0 1.50555.53752 1.82349 1.31743.03741.0949.15897.0738.16833-.0316.00931-.1159.00931-.2213 0-.3373-.07481-1.10662-.87902-2.00249-1.87025-2.06572-1.15956-.08432-2.12274.9591-2.12274 2.24492v.1581c.00935.1054.13092.1265.17767.0316.31795-.77991 1.00994-1.31743 1.8235-1.31743zm-2.32859 3.04503c.93294 1.4537 2.74458 2.4444 4.82742 2.4444 2.0828 0 3.8945-.9907 4.8274-2.4536.1736-.2685.6726-.1759.6726.1389v.0092c0 2.6944-2.6578 4.8517-5.8471 4.6851-2.66868-.1389-4.86-1.9352-5.12036-4.2036-.02169-.1667-.03254-.3241-.03254-.4815 0-.3148.49901-.4166.67258-.1389zm7.32392-3.04503c.8117 0 1.502.53752 1.8192 1.31743.0374.0949.168.0738.1773-.0316s.0093-.2213 0-.3373c-.0746-1.10662-.877-2.00249-1.8659-2.06572-1.1662-.08432-2.1271.9591-2.1271 2.24492v.1581c.0093.1054.1306.1265.1773.0316.3172-.77991 1.0075-1.31743 1.8192-1.31743z" fill="#00a6ed"/></g></svg>