<svg fill="none" height="32" viewBox="0 0 32 32" width="32" xmlns="http://www.w3.org/2000/svg" xmlns:xlink="http://www.w3.org/1999/xlink"><filter id="a" color-interpolation-filters="sRGB" filterUnits="userSpaceOnUse" height="18.5" width="28.5" x="2.02002" y="11.5"><feFlood flood-opacity="0" result="BackgroundImageFix"/><feBlend in="SourceGraphic" in2="BackgroundImageFix" mode="normal" result="shape"/><feColorMatrix in="SourceAlpha" result="hardAlpha" type="matrix" values="0 0 0 0 0 0 0 0 0 0 0 0 0 0 0 0 0 0 127 0"/><feOffset dx=".5" dy="-.5"/><feGaussianBlur stdDeviation=".625"/><feComposite in2="hardAlpha" k2="-1" k3="1" operator="arithmetic"/><feColorMatrix type="matrix" values="0 0 0 0 0.690196 0 0 0 0 0.556863 0 0 0 0 0.788235 0 0 0 1 0"/><feBlend in2="shape" mode="normal" result="effect1_innerShadow_18_12890"/></filter><filter id="b" color-interpolation-filters="sRGB" filterUnits="userSpaceOnUse" height="4.75" width="28.75" x="1.27002" y="12"><feFlood flood-opacity="0" result="BackgroundImageFix"/><feBlend in="SourceGraphic" in2="BackgroundImageFix" mode="normal" result="shape"/><feColorMatrix in="SourceAlpha" result="hardAlpha" type="matrix" values="0 0 0 0 0 0 0 0 0 0 0 0 0 0 0 0 0 0 127 0"/><feOffset dx="-.75" dy=".75"/><feGaussianBlur stdDeviation=".5"/><feComposite in2="hardAlpha" k2="-1" k3="1" operator="arithmetic"/><feColorMatrix type="matrix" values="0 0 0 0 0.384314 0 0 0 0 0.643137 0 0 0 0 0.980392 0 0 0 1 0"/><feBlend in2="shape" mode="normal" result="effect1_innerShadow_18_12890"/></filter><filter id="c" color-interpolation-filters="sRGB" filterUnits="userSpaceOnUse" height="11.25" width="12" x=".02002" y="14"><feFlood flood-opacity="0" result="BackgroundImageFix"/><feBlend in="SourceGraphic" in2="BackgroundImageFix" mode="normal" result="shape"/><feColorMatrix in="SourceAlpha" result="hardAlpha" type="matrix" values="0 0 0 0 0 0 0 0 0 0 0 0 0 0 0 0 0 0 127 0"/><feOffset dx="-2" dy="1.25"/><feGaussianBlur stdDeviation="1"/><feComposite in2="hardAlpha" k2="-1" k3="1" operator="arithmetic"/><feColorMatrix type="matrix" values="0 0 0 0 0.243137 0 0 0 0 0.670588 0 0 0 0 0.913725 0 0 0 1 0"/><feBlend in2="shape" mode="normal" result="effect1_innerShadow_18_12890"/></filter><filter id="d" color-interpolation-filters="sRGB" filterUnits="userSpaceOnUse" height="8.5" width="6.75" x="13.27" y="14"><feFlood flood-opacity="0" result="BackgroundImageFix"/><feBlend in="SourceGraphic" in2="BackgroundImageFix" mode="normal" result="shape"/><feColorMatrix in="SourceAlpha" result="hardAlpha" type="matrix" values="0 0 0 0 0 0 0 0 0 0 0 0 0 0 0 0 0 0 127 0"/><feOffset dx="-.75" dy=".5"/><feGaussianBlur stdDeviation=".5"/><feComposite in2="hardAlpha" k2="-1" k3="1" operator="arithmetic"/><feColorMatrix type="matrix" values="0 0 0 0 0.243137 0 0 0 0 0.670588 0 0 0 0 0.913725 0 0 0 1 0"/><feBlend in2="shape" mode="normal" result="effect1_innerShadow_18_12890"/></filter><filter id="e" color-interpolation-filters="sRGB" filterUnits="userSpaceOnUse" height="8.5" width="6.75" x="21.27" y="14"><feFlood flood-opacity="0" result="BackgroundImageFix"/><feBlend in="SourceGraphic" in2="BackgroundImageFix" mode="normal" result="shape"/><feColorMatrix in="SourceAlpha" result="hardAlpha" type="matrix" values="0 0 0 0 0 0 0 0 0 0 0 0 0 0 0 0 0 0 127 0"/><feOffset dx="-.75" dy=".5"/><feGaussianBlur stdDeviation=".5"/><feComposite in2="hardAlpha" k2="-1" k3="1" operator="arithmetic"/><feColorMatrix type="matrix" values="0 0 0 0 0.243137 0 0 0 0 0.670588 0 0 0 0 0.913725 0 0 0 1 0"/><feBlend in2="shape" mode="normal" result="effect1_innerShadow_18_12890"/></filter><linearGradient id="f" gradientUnits="userSpaceOnUse" x1="17.5771" x2="17.5156" y1="21.003" y2="35.5"><stop offset=".519227" stop-color="#fff"/><stop offset=".642011" stop-color="#8d65c5"/><stop offset=".754055" stop-color="#635994"/></linearGradient><linearGradient id="g" gradientUnits="userSpaceOnUse" x1="2.02002" x2="30.02" y1="24.678" y2="24.678"><stop offset="0" stop-color="#eee2f5"/><stop offset="1" stop-color="#dfd4e6"/></linearGradient><linearGradient id="h" gradientUnits="userSpaceOnUse" x1="30.02" x2="28.507" y1="22.0038" y2="22.0038"><stop offset="0" stop-color="#f0e9f5"/><stop offset="1" stop-color="#f0e9f5" stop-opacity="0"/></linearGradient><linearGradient id="i" gradientUnits="userSpaceOnUse" x1="2.02002" x2="30.3221" y1="5.99999" y2="5.99999"><stop offset="0" stop-color="#837f87"/><stop offset="1" stop-color="#817d85"/></linearGradient><radialGradient id="j" cx="0" cy="0" gradientTransform="matrix(-1.0625006 .90624323 -1.2452838 -1.45999965 12.0981 5.73437)" gradientUnits="userSpaceOnUse" r="1"><stop offset=".560509" stop-color="#544d5c"/><stop offset="1" stop-color="#544d5c" stop-opacity="0"/></radialGradient><linearGradient id="k"><stop offset="0" stop-color="#c8c1cd"/><stop offset="1" stop-color="#ded7e4"/></linearGradient><linearGradient id="l" gradientUnits="userSpaceOnUse" x1="30.5825" x2="2.70751" xlink:href="#k" y1="3.99999" y2="3.99998"/><radialGradient id="m" cx="0" cy="0" gradientTransform="matrix(-1.76563 0 0 -1.85938 12.2231 5)" gradientUnits="userSpaceOnUse" r="1"><stop offset=".373831" stop-color="#918996"/><stop offset="1" stop-color="#918996" stop-opacity="0"/></radialGradient><linearGradient id="n" gradientUnits="userSpaceOnUse" x1="30.5825" x2="2.70751" xlink:href="#k" y1="6.99999" y2="6.99998"/><linearGradient id="o" gradientUnits="userSpaceOnUse" x1="2.02002" x2="3.92097" y1="14.3607" y2="14.3607"><stop offset=".255187" stop-color="#4169a1"/><stop offset="1" stop-color="#4169a1" stop-opacity="0"/></linearGradient><linearGradient id="p" gradientUnits="userSpaceOnUse" x1="2.41053" x2="23.2358" y1="27" y2="27"><stop offset="0" stop-color="#ffca56"/><stop offset="1" stop-color="#ffa053"/></linearGradient><radialGradient id="q" cx="0" cy="0" gradientTransform="matrix(-23.87507831 7.94588412 -111.24256721 -334.25166562 26.3106 19.054)" gradientUnits="userSpaceOnUse" r="1"><stop offset=".92963" stop-color="#b4934e" stop-opacity="0"/><stop offset=".992995" stop-color="#b4934e"/></radialGradient><linearGradient id="r" gradientUnits="userSpaceOnUse" x1="30.04" x2="28.858" y1="27" y2="27"><stop offset="0" stop-color="#ffb45d"/><stop offset="1" stop-color="#ffb45d" stop-opacity="0"/></linearGradient><linearGradient id="s" gradientUnits="userSpaceOnUse" x1="3.02002" x2="12.02" y1="23.25" y2="13.625"><stop offset="0" stop-color="#5ef0ff"/><stop offset="1" stop-color="#51c9ff"/></linearGradient><linearGradient id="t"><stop offset="0" stop-color="#c0fffe"/><stop offset=".733464" stop-color="#79def8"/><stop offset=".942445" stop-color="#00a6ed"/></linearGradient><linearGradient id="u" gradientUnits="userSpaceOnUse" x1="12.5185" x2="20.6266" xlink:href="#t" y1="18.0024" y2="18.0024"/><linearGradient id="v" gradientUnits="userSpaceOnUse" x1="20.5185" x2="28.6266" xlink:href="#t" y1="18.0024" y2="18.0024"/><linearGradient id="w"><stop offset="0" stop-color="#6bffff"/><stop offset="1" stop-color="#51c9ff"/><stop offset="1" stop-color="#56d6ff"/></linearGradient><linearGradient id="x" gradientUnits="userSpaceOnUse" x1="14.62" x2="21.6642" xlink:href="#w" y1="21.4" y2="15.7499"/><linearGradient id="y" gradientUnits="userSpaceOnUse" x1="22.62" x2="29.6642" xlink:href="#w" y1="21.4" y2="15.7499"/><linearGradient id="z" gradientUnits="userSpaceOnUse" x1="11.02" x2="21.02" y1="12" y2="12"><stop offset="0" stop-color="#9194a3"/><stop offset=".0625" stop-color="#d8d5e2"/><stop offset=".93036" stop-color="#d8d5e2"/><stop offset="1" stop-color="#f0edf7"/></linearGradient><linearGradient id="A" gradientUnits="userSpaceOnUse" x1="16.02" x2="16.02" y1="11" y2="11.2656"><stop offset="0" stop-color="#d4d2d5"/><stop offset="1" stop-color="#d4d2d5" stop-opacity="0"/></linearGradient><linearGradient id="B" gradientUnits="userSpaceOnUse" x1="11.02" x2="21.02" y1="5" y2="5"><stop offset="0" stop-color="#6c6770"/><stop offset=".190625" stop-color="#919091"/><stop offset=".803125" stop-color="#919091"/><stop offset="1" stop-color="#a8a7aa"/></linearGradient><linearGradient id="C" gradientUnits="userSpaceOnUse" x1="17.5825" x2="17.5825" y1="7" y2="4.5"><stop offset="0" stop-color="#6f6879"/><stop offset="1" stop-color="#6f6879" stop-opacity="0"/></linearGradient><linearGradient id="D" gradientUnits="userSpaceOnUse" x1="16.02" x2="16.02" y1="2.08182" y2="4.05929"><stop offset="0" stop-color="#706c75"/><stop offset=".943396" stop-color="#706c75" stop-opacity="0"/></linearGradient><linearGradient id="E" gradientUnits="userSpaceOnUse" x1="17.02" x2="15.2075" y1="8.28122" y2="8.28122"><stop offset="0" stop-color="#a29fa5"/><stop offset="1" stop-color="#69666e"/></linearGradient><radialGradient id="F" cx="0" cy="0" gradientTransform="matrix(0 -4.37883 3.12506 0 16.02 10.9999)" gradientUnits="userSpaceOnUse" r="1"><stop offset=".917037" stop-color="#69666e" stop-opacity="0"/><stop offset=".983943" stop-color="#69666e"/></radialGradient><linearGradient id="G" gradientUnits="userSpaceOnUse" x1="14.02" x2="17.6774" y1="11" y2="11"><stop offset="0" stop-color="#626263"/><stop offset="1" stop-color="#adabae"/></linearGradient><path d="m30.02 13.78c0-.98-.8003-1.78-1.7806-1.78h-24.40874c-.99035 0-1.80064.81-1.80064 1.8v4.2h-.01v6.5c0 .1-.00001.2.01.3l.01001.2c.25009 2.72 2.48088 4.86 5.23186 4.99.05002 0 .09004.01.14005.01h20.92746c.9303 0 1.6806-.81 1.6806-1.8v-3.16-.04z" fill="url(#f)"/><g filter="url(#a)"><path d="m30.02 13.78c0-.98-.8003-1.78-1.7806-1.78h-24.40874c-.99035 0-1.80064.81-1.80064 1.8v4.2h-.01v6.5c0 .1-.00001.2.01.3l.01001.2c.25009 2.72 2.48088 4.86 5.23186 4.99.05002 0 .09004.01.14005.01h20.92746c.9303 0 1.6806-.81 1.6806-1.8v-3.16-.04z" fill="url(#g)"/></g><path d="m30.02 13.78c0-.98-.8003-1.78-1.7806-1.78h-24.40874c-.99035 0-1.80064.81-1.80064 1.8v4.2h-.01v6.5c0 .1-.00001.2.01.3l.01001.2c.25009 2.72 2.48088 4.86 5.23186 4.99.05002 0 .09004.01.14005.01h20.92746c.9303 0 1.6806-.81 1.6806-1.8v-3.16-.04z" fill="url(#h)"/><path d="m30.02 5h-27.99998v2h27.99998z" fill="url(#i)"/><path d="m30.02 5h-27.99998v2h27.99998z" fill="url(#j)"/><path d="m30.02 4h-27.99998v1h27.99998z" fill="url(#l)"/><path d="m30.02 4h-27.99998v1h27.99998z" fill="url(#m)"/><path d="m30.02 7h-27.99998v1h27.99998z" fill="url(#n)"/><g filter="url(#b)"><path d="m30.02 16v-2.2244c0-.9776-.8-1.7756-1.78-1.7756h-24.41999c-.99 0-1.79999.808-1.79999 1.7955v2.1945h27.99998z" fill="#518fe8"/></g><path d="m30.02 16v-2.2244c0-.9776-.8-1.7756-1.78-1.7756h-24.41999c-.99 0-1.79999.808-1.79999 1.7955v2.1945h27.99998z" fill="url(#o)"/><path d="m2.04004 25h.01002c.06004.72.27019 1.39.59041 2h27.39953v-2z" fill="url(#p)"/><path d="m2.04004 25h.01002c.06004.72.27019 1.39.59041 2h27.39953v-2z" fill="url(#q)"/><path d="m2.04004 25h.01002c.06004.72.27019 1.39.59041 2h27.39953v-2z" fill="url(#r)"/><g filter="url(#c)"><path d="m2.02002 24h8.89888c.6106 0 1.1011-.49 1.1011-1.1v-7.8c0-.61-.4905-1.1-1.1011-1.1h-8.89888z" fill="url(#s)"/></g><path d="m18.9182 14h-3.7964c-.611 0-1.1018.49-1.1018 1.1v5.8c0 .61.4908 1.1 1.1018 1.1h3.7964c.611 0 1.1018-.49 1.1018-1.1v-5.8c0-.6-.4908-1.1-1.1018-1.1z" fill="url(#u)"/><path d="m26.9182 14h-3.7964c-.611 0-1.1018.49-1.1018 1.1v5.8c0 .61.4908 1.1 1.1018 1.1h3.7964c.611 0 1.1018-.49 1.1018-1.1v-5.8c0-.6-.4908-1.1-1.1018-1.1z" fill="url(#v)"/><g filter="url(#d)"><path d="m18.9182 14h-3.7964c-.611 0-1.1018.49-1.1018 1.1v5.8c0 .61.4908 1.1 1.1018 1.1h3.7964c.611 0 1.1018-.49 1.1018-1.1v-5.8c0-.6-.4908-1.1-1.1018-1.1z" fill="url(#x)"/></g><g filter="url(#e)"><path d="m26.9182 14h-3.7964c-.611 0-1.1018.49-1.1018 1.1v5.8c0 .61.4908 1.1 1.1018 1.1h3.7964c.611 0 1.1018-.49 1.1018-1.1v-5.8c0-.6-.4908-1.1-1.1018-1.1z" fill="url(#y)"/></g><path d="m20.43 11h-8.82c-.33 0-.59.27-.59.59v.41h10v-.41c0-.32-.27-.59-.59-.59z" fill="url(#z)"/><path d="m20.43 11h-8.82c-.33 0-.59.27-.59.59v.41h10v-.41c0-.32-.27-.59-.59-.59z" fill="url(#A)"/><path d="m19.02 3h-6c-1.1 0-2 .9-2 2s.9 2 2 2h6c1.1 0 2-.9 2-2s-.9-2-2-2z" fill="url(#B)"/><path d="m19.02 3h-6c-1.1 0-2 .9-2 2s.9 2 2 2h6c1.1 0 2-.9 2-2s-.9-2-2-2z" fill="url(#C)"/><path d="m19.02 3h-6c-1.1 0-2 .9-2 2s.9 2 2 2h6c1.1 0 2-.9 2-2s-.9-2-2-2z" fill="url(#D)"/><path d="m17.0171 6.99989h.0029v4.00001h-2v-3.99329c.5938-.41289 1.5156-.38161 1.9971-.00672z" fill="url(#E)"/><path d="m17.0171 6.99989h.0029v4.00001h-2v-3.99329c.5938-.41289 1.5156-.38161 1.9971-.00672z" fill="url(#F)"/><path d="m15.0239 9.22913c-.6367.33557-1.0039 1.00477-1.0039 1.77087h4c0-.7661-.3633-1.4353-1-1.77087z" fill="url(#G)"/></svg>