<svg fill="none" height="32" viewBox="0 0 32 32" width="32" xmlns="http://www.w3.org/2000/svg" xmlns:xlink="http://www.w3.org/1999/xlink"><filter id="a" color-interpolation-filters="sRGB" filterUnits="userSpaceOnUse" height="7.24442" width="19.1612" x="8.20526" y="22.7451"><feFlood flood-opacity="0" result="BackgroundImageFix"/><feBlend in="SourceGraphic" in2="BackgroundImageFix" mode="normal" result="shape"/><feColorMatrix in="SourceAlpha" result="hardAlpha" type="matrix" values="0 0 0 0 0 0 0 0 0 0 0 0 0 0 0 0 0 0 127 0"/><feOffset dx=".5" dy="-.5"/><feGaussianBlur stdDeviation=".75"/><feComposite in2="hardAlpha" k2="-1" k3="1" operator="arithmetic"/><feColorMatrix type="matrix" values="0 0 0 0 0.239216 0 0 0 0 0.0941176 0 0 0 0 0.14902 0 0 0 1 0"/><feBlend in2="shape" mode="normal" result="effect1_innerShadow_13036_4626"/></filter><filter id="b" color-interpolation-filters="sRGB" filterUnits="userSpaceOnUse" height="7.17656" width="19.0089" x="5.21838" y="22.8129"><feFlood flood-opacity="0" result="BackgroundImageFix"/><feBlend in="SourceGraphic" in2="BackgroundImageFix" mode="normal" result="shape"/><feColorMatrix in="SourceAlpha" result="hardAlpha" type="matrix" values="0 0 0 0 0 0 0 0 0 0 0 0 0 0 0 0 0 0 127 0"/><feOffset dx=".5" dy="-.3"/><feGaussianBlur stdDeviation=".5"/><feComposite in2="hardAlpha" k2="-1" k3="1" operator="arithmetic"/><feColorMatrix type="matrix" values="0 0 0 0 0.227451 0 0 0 0 0.121569 0 0 0 0 0.196078 0 0 0 1 0"/><feBlend in2="shape" mode="normal" result="effect1_innerShadow_13036_4626"/></filter><filter id="c" color-interpolation-filters="sRGB" filterUnits="userSpaceOnUse" height="12.4966" width="11.183" x="10.9556" y="4.66666"><feFlood flood-opacity="0" result="BackgroundImageFix"/><feBlend in="SourceGraphic" in2="BackgroundImageFix" mode="normal" result="shape"/><feColorMatrix in="SourceAlpha" result="hardAlpha" type="matrix" values="0 0 0 0 0 0 0 0 0 0 0 0 0 0 0 0 0 0 127 0"/><feOffset dx="1"/><feGaussianBlur stdDeviation=".7"/><feComposite in2="hardAlpha" k2="-1" k3="1" operator="arithmetic"/><feColorMatrix type="matrix" values="0 0 0 0 0.333333 0 0 0 0 0.270588 0 0 0 0 0.258824 0 0 0 1 0"/><feBlend in2="shape" mode="normal" result="effect1_innerShadow_13036_4626"/><feColorMatrix in="SourceAlpha" result="hardAlpha" type="matrix" values="0 0 0 0 0 0 0 0 0 0 0 0 0 0 0 0 0 0 127 0"/><feOffset dy=".2"/><feGaussianBlur stdDeviation=".375"/><feComposite in2="hardAlpha" k2="-1" k3="1" operator="arithmetic"/><feColorMatrix type="matrix" values="0 0 0 0 0.145098 0 0 0 0 0.0705882 0 0 0 0 0.0745098 0 0 0 1 0"/><feBlend in2="effect1_innerShadow_13036_4626" mode="normal" result="effect2_innerShadow_13036_4626"/></filter><filter id="d" color-interpolation-filters="sRGB" filterUnits="userSpaceOnUse" height=".711993" width="1.22405" x="15.4349" y="14.08"><feFlood flood-opacity="0" result="BackgroundImageFix"/><feBlend in="SourceGraphic" in2="BackgroundImageFix" mode="normal" result="shape"/><feGaussianBlur result="effect1_foregroundBlur_13036_4626" stdDeviation=".05"/></filter><filter id="e" color-interpolation-filters="sRGB" filterUnits="userSpaceOnUse" height="4.88947" width="3.74036" x="13.9885" y="8.99365"><feFlood flood-opacity="0" result="BackgroundImageFix"/><feBlend in="SourceGraphic" in2="BackgroundImageFix" mode="normal" result="shape"/><feGaussianBlur result="effect1_foregroundBlur_13036_4626" stdDeviation=".5"/></filter><filter id="f" color-interpolation-filters="sRGB" filterUnits="userSpaceOnUse" height="3.28947" width="2.27042" x="14.8649" y="9.59858"><feFlood flood-opacity="0" result="BackgroundImageFix"/><feBlend in="SourceGraphic" in2="BackgroundImageFix" mode="normal" result="shape"/><feGaussianBlur result="effect1_foregroundBlur_13036_4626" stdDeviation=".1"/></filter><filter id="g" color-interpolation-filters="sRGB" filterUnits="userSpaceOnUse" height="8.32782" width="12.8256" x="9.58716" y="1.5"><feFlood flood-opacity="0" result="BackgroundImageFix"/><feBlend in="SourceGraphic" in2="BackgroundImageFix" mode="normal" result="shape"/><feColorMatrix in="SourceAlpha" result="hardAlpha" type="matrix" values="0 0 0 0 0 0 0 0 0 0 0 0 0 0 0 0 0 0 127 0"/><feOffset dy="-.5"/><feGaussianBlur stdDeviation=".625"/><feComposite in2="hardAlpha" k2="-1" k3="1" operator="arithmetic"/><feColorMatrix type="matrix" values="0 0 0 0 0.137255 0 0 0 0 0.0901961 0 0 0 0 0.145098 0 0 0 1 0"/><feBlend in2="shape" mode="normal" result="effect1_innerShadow_13036_4626"/><feColorMatrix in="SourceAlpha" result="hardAlpha" type="matrix" values="0 0 0 0 0 0 0 0 0 0 0 0 0 0 0 0 0 0 127 0"/><feOffset dy="-.2"/><feGaussianBlur stdDeviation=".2"/><feComposite in2="hardAlpha" k2="-1" k3="1" operator="arithmetic"/><feColorMatrix type="matrix" values="0 0 0 0 0.0784314 0 0 0 0 0.0352941 0 0 0 0 0.0470588 0 0 0 1 0"/><feBlend in2="effect1_innerShadow_13036_4626" mode="normal" result="effect2_innerShadow_13036_4626"/></filter><filter id="h" color-interpolation-filters="sRGB" filterUnits="userSpaceOnUse" height="6.47174" width="7.06213" x="9.69067" y="2.33582"><feFlood flood-opacity="0" result="BackgroundImageFix"/><feBlend in="SourceGraphic" in2="BackgroundImageFix" mode="normal" result="shape"/><feColorMatrix in="SourceAlpha" result="hardAlpha" type="matrix" values="0 0 0 0 0 0 0 0 0 0 0 0 0 0 0 0 0 0 127 0"/><feOffset dx=".4" dy=".2"/><feGaussianBlur stdDeviation=".2"/><feComposite in2="hardAlpha" k2="-1" k3="1" operator="arithmetic"/><feColorMatrix type="matrix" values="0 0 0 0 0.286275 0 0 0 0 0.243137 0 0 0 0 0.227451 0 0 0 1 0"/><feBlend in2="shape" mode="normal" result="effect1_innerShadow_13036_4626"/><feGaussianBlur result="effect2_foregroundBlur_13036_4626" stdDeviation=".25"/></filter><filter id="i" color-interpolation-filters="sRGB" filterUnits="userSpaceOnUse" height="6.21579" width="6.83905" x="15.5916" y="2.75882"><feFlood flood-opacity="0" result="BackgroundImageFix"/><feBlend in="SourceGraphic" in2="BackgroundImageFix" mode="normal" result="shape"/><feGaussianBlur result="effect1_foregroundBlur_13036_4626" stdDeviation=".25"/></filter><filter id="j" color-interpolation-filters="sRGB" filterUnits="userSpaceOnUse" height=".727557" width=".823779" x="17.3868" y="9.4907"><feFlood flood-opacity="0" result="BackgroundImageFix"/><feBlend in="SourceGraphic" in2="BackgroundImageFix" mode="normal" result="shape"/><feGaussianBlur result="effect1_foregroundBlur_13036_4626" stdDeviation=".05"/></filter><filter id="k" color-interpolation-filters="sRGB" filterUnits="userSpaceOnUse" height=".945715" width=".922156" x="18.2858" y="9.57679"><feFlood flood-opacity="0" result="BackgroundImageFix"/><feBlend in="SourceGraphic" in2="BackgroundImageFix" mode="normal" result="shape"/><feGaussianBlur result="effect1_foregroundBlur_13036_4626" stdDeviation=".1"/></filter><filter id="l" color-interpolation-filters="sRGB" filterUnits="userSpaceOnUse" height="1.09061" width="1.03251" x="13.8876" y="9.51756"><feFlood flood-opacity="0" result="BackgroundImageFix"/><feBlend in="SourceGraphic" in2="BackgroundImageFix" mode="normal" result="shape"/><feGaussianBlur result="effect1_foregroundBlur_13036_4626" stdDeviation=".1"/></filter><filter id="m" color-interpolation-filters="sRGB" filterUnits="userSpaceOnUse" height=".74422" width=".969226" x="13.0655" y="9.48838"><feFlood flood-opacity="0" result="BackgroundImageFix"/><feBlend in="SourceGraphic" in2="BackgroundImageFix" mode="normal" result="shape"/><feGaussianBlur result="effect1_foregroundBlur_13036_4626" stdDeviation=".05"/></filter><filter id="n" color-interpolation-filters="sRGB" filterUnits="userSpaceOnUse" height="2.3725" width="1.32587" x="9.94067" y="9.37088"><feFlood flood-opacity="0" result="BackgroundImageFix"/><feBlend in="SourceGraphic" in2="BackgroundImageFix" mode="normal" result="shape"/><feGaussianBlur result="effect1_foregroundBlur_13036_4626" stdDeviation=".125"/></filter><filter id="o" color-interpolation-filters="sRGB" filterUnits="userSpaceOnUse" height="2.89639" width="1.94305" x="20.425" y="9.10223"><feFlood flood-opacity="0" result="BackgroundImageFix"/><feBlend in="SourceGraphic" in2="BackgroundImageFix" mode="normal" result="shape"/><feGaussianBlur result="effect1_foregroundBlur_13036_4626" stdDeviation=".25"/></filter><filter id="p" color-interpolation-filters="sRGB" filterUnits="userSpaceOnUse" height=".641138" width="2.74844" x="12.4634" y="8.37461"><feFlood flood-opacity="0" result="BackgroundImageFix"/><feBlend in="SourceGraphic" in2="BackgroundImageFix" mode="normal" result="shape"/><feColorMatrix in="SourceAlpha" result="hardAlpha" type="matrix" values="0 0 0 0 0 0 0 0 0 0 0 0 0 0 0 0 0 0 127 0"/><feOffset dx=".1" dy="-.1"/><feGaussianBlur stdDeviation=".1"/><feComposite in2="hardAlpha" k2="-1" k3="1" operator="arithmetic"/><feColorMatrix type="matrix" values="0 0 0 0 0.0431373 0 0 0 0 0.0196078 0 0 0 0 0.0509804 0 0 0 1 0"/><feBlend in2="shape" mode="normal" result="effect1_innerShadow_13036_4626"/></filter><filter id="q" color-interpolation-filters="sRGB" filterUnits="userSpaceOnUse" height=".641138" width="2.74844" x="16.9822" y="8.37461"><feFlood flood-opacity="0" result="BackgroundImageFix"/><feBlend in="SourceGraphic" in2="BackgroundImageFix" mode="normal" result="shape"/><feColorMatrix in="SourceAlpha" result="hardAlpha" type="matrix" values="0 0 0 0 0 0 0 0 0 0 0 0 0 0 0 0 0 0 127 0"/><feOffset dx=".1" dy="-.1"/><feGaussianBlur stdDeviation=".1"/><feComposite in2="hardAlpha" k2="-1" k3="1" operator="arithmetic"/><feColorMatrix type="matrix" values="0 0 0 0 0.0431373 0 0 0 0 0.0196078 0 0 0 0 0.0509804 0 0 0 1 0"/><feBlend in2="shape" mode="normal" result="effect1_innerShadow_13036_4626"/></filter><filter id="r" color-interpolation-filters="sRGB" filterUnits="userSpaceOnUse" height=".700012" width="2.77026" x="16.9799" y="8.3483"><feFlood flood-opacity="0" result="BackgroundImageFix"/><feBlend in="SourceGraphic" in2="BackgroundImageFix" mode="normal" result="shape"/><feGaussianBlur result="effect1_foregroundBlur_13036_4626" stdDeviation=".125"/></filter><filter id="s" color-interpolation-filters="sRGB" filterUnits="userSpaceOnUse" height=".700012" width="2.77026" x="12.485" y="8.3483"><feFlood flood-opacity="0" result="BackgroundImageFix"/><feBlend in="SourceGraphic" in2="BackgroundImageFix" mode="normal" result="shape"/><feGaussianBlur result="effect1_foregroundBlur_13036_4626" stdDeviation=".125"/></filter><radialGradient id="t" cx="0" cy="0" gradientTransform="matrix(2.02196689 9.09668254 -14.16841527 3.14928728 14.0222 14.5908)" gradientUnits="userSpaceOnUse" r="1"><stop offset="0" stop-color="#9d2707"/><stop offset=".674044" stop-color="#ed4628"/></radialGradient><radialGradient id="u" cx="0" cy="0" gradientTransform="matrix(0 -8.71875 9.5625 0 21.7305 24.3125)" gradientUnits="userSpaceOnUse" r="1"><stop offset="0" stop-color="#ff6547"/><stop offset="1" stop-color="#ff6646" stop-opacity="0"/></radialGradient><linearGradient id="v" gradientUnits="userSpaceOnUse" x1="17.4257" x2="17.4257" y1="30.3571" y2="26.7534"><stop offset="0" stop-color="#d73726"/><stop offset="1" stop-color="#d73726" stop-opacity="0"/></linearGradient><radialGradient id="w" cx="0" cy="0" gradientTransform="matrix(1.71400834 2.19659512 -2.70173024 2.10816647 15.728 16.428)" gradientUnits="userSpaceOnUse" r="1"><stop offset=".537603" stop-color="#341617"/><stop offset=".962246" stop-color="#582b26"/></radialGradient><radialGradient id="x" cx="0" cy="0" gradientTransform="matrix(1.24999932 .99999916 -1.2835357 1.60442009 13.918 16.625)" gradientUnits="userSpaceOnUse" r="1"><stop offset="0" stop-color="#2f1513"/><stop offset="1" stop-color="#2f1513" stop-opacity="0"/></radialGradient><linearGradient id="y" gradientUnits="userSpaceOnUse" x1="22.9674" x2="24.8809" y1="22.4688" y2="22.4688"><stop offset=".170138" stop-color="#ff491d"/><stop offset="1" stop-color="#ff6747"/></linearGradient><linearGradient id="z" gradientUnits="userSpaceOnUse" x1="8.98047" x2="6.91485" y1="23.3125" y2="22.8493"><stop offset=".173372" stop-color="#ff5437"/><stop offset="1" stop-color="#ff3a19"/></linearGradient><radialGradient id="A" cx="0" cy="0" gradientTransform="matrix(-4.625 0 0 -9.0144 10.168 23.3125)" gradientUnits="userSpaceOnUse" r="1"><stop offset=".722973" stop-color="#e45b4e" stop-opacity="0"/><stop offset="1" stop-color="#e45b4e"/></radialGradient><radialGradient id="B" cx="0" cy="0" gradientTransform="matrix(14.39624438 1.34674445 -.4674854 4.99726139 16.7102 24.8421)" gradientUnits="userSpaceOnUse" r="1"><stop offset="0" stop-color="#4a3839"/><stop offset="1" stop-color="#452831"/></radialGradient><radialGradient id="C" cx="0" cy="0" gradientTransform="matrix(.70684236 1.42914427 -5.74959891 2.84370177 17.5358 26.6173)" gradientUnits="userSpaceOnUse" r="1"><stop offset=".177833" stop-color="#331e2a"/><stop offset="1" stop-color="#331e2a" stop-opacity="0"/></radialGradient><radialGradient id="D" cx="0" cy="0" gradientTransform="matrix(-5.23766192 1.30065377 -.29588949 -1.19153087 27.3346 24.67)" gradientUnits="userSpaceOnUse" r="1"><stop offset="0" stop-color="#5f4844"/><stop offset="1" stop-color="#5f4844" stop-opacity="0"/></radialGradient><radialGradient id="E" cx="0" cy="0" gradientTransform="matrix(.56249979 2.87499962 -15.79355213 3.09004207 16.293 25)" gradientUnits="userSpaceOnUse" r="1"><stop offset=".169594" stop-color="#5c4543"/><stop offset=".834442" stop-color="#4d3330"/></radialGradient><radialGradient id="F" cx="0" cy="0" gradientTransform="matrix(.74603773 2.01214903 -2.3902849 .8862379 20.736 11.7528)" gradientUnits="userSpaceOnUse" r="1"><stop offset=".214643" stop-color="#3c3b3c"/><stop offset="1" stop-color="#221c27"/></radialGradient><radialGradient id="G" cx="0" cy="0" gradientTransform="matrix(1.47106776 .46233591 -1.426333 4.53832908 9.96587 12.2414)" gradientUnits="userSpaceOnUse" r="1"><stop offset="0" stop-color="#463c39"/><stop offset=".745836" stop-color="#1b141e"/></radialGradient><radialGradient id="H" cx="0" cy="0" gradientTransform="matrix(-5.20874 0 0 -9.21421 18.7977 10.8149)" gradientUnits="userSpaceOnUse" r="1"><stop offset="0" stop-color="#563b38"/><stop offset="1" stop-color="#3c2828"/></radialGradient><linearGradient id="I" gradientUnits="userSpaceOnUse" x1="21.1386" x2="16.8019" y1="12.4942" y2="12.4942"><stop offset="0" stop-color="#563b38"/><stop offset="1" stop-color="#563b38" stop-opacity="0"/></linearGradient><radialGradient id="J" cx="0" cy="0" gradientTransform="matrix(-1.01848903 12.37806916 -10.25055893 -.84343379 17.576 4.92309)" gradientUnits="userSpaceOnUse" r="1"><stop offset=".767031" stop-color="#432742" stop-opacity="0"/><stop offset=".99662" stop-color="#432742"/></radialGradient><radialGradient id="K" cx="0" cy="0" gradientTransform="matrix(0 -1.14415 1.41589 0 18.4385 9.50686)" gradientUnits="userSpaceOnUse" r="1"><stop offset=".325" stop-color="#432728"/><stop offset="1" stop-color="#432728" stop-opacity="0"/></radialGradient><radialGradient id="L" cx="0" cy="0" gradientTransform="matrix(.00391615 -1.09027297 1.18648235 .00426173 13.7085 9.55318)" gradientUnits="userSpaceOnUse" r="1"><stop offset=".377617" stop-color="#361e27"/><stop offset="1" stop-color="#361e27" stop-opacity="0"/></radialGradient><radialGradient id="M" cx="0" cy="0" gradientTransform="matrix(-8.46492144 .53434765 -1.36499223 -21.62366031 19.4205 11.7994)" gradientUnits="userSpaceOnUse" r="1"><stop offset=".835902" stop-color="#564440" stop-opacity="0"/><stop offset="1" stop-color="#564440"/></radialGradient><radialGradient id="N" cx="0" cy="0" gradientTransform="matrix(4.05811102 -2.63861175 .96591906 1.48555648 10.5528 6.50545)" gradientUnits="userSpaceOnUse" r="1"><stop offset=".379603" stop-color="#231112"/><stop offset="1" stop-color="#231112" stop-opacity="0"/></radialGradient><radialGradient id="O" cx="0" cy="0" gradientTransform="matrix(-.23379936 2.48831035 -.99468097 -.09345931 21.5247 7.90826)" gradientUnits="userSpaceOnUse" r="1"><stop offset=".244676" stop-color="#6b5b59"/><stop offset="1" stop-color="#6b5b59" stop-opacity="0"/></radialGradient><radialGradient id="P" cx="0" cy="0" gradientTransform="matrix(-1.73679071 2.87241911 -2.37141209 -1.43385987 18.4185 5.85415)" gradientUnits="userSpaceOnUse" r="1"><stop offset=".0780198" stop-color="#534445"/><stop offset="1" stop-color="#534445" stop-opacity="0"/></radialGradient><radialGradient id="Q" cx="0" cy="0" gradientTransform="matrix(0 -1.92347 6.89968 0 16.0471 16.9632)" gradientUnits="userSpaceOnUse" r="1"><stop offset="0" stop-color="#35161b"/><stop offset=".263925" stop-color="#4a1c1c"/><stop offset=".647426" stop-color="#4a1c1c" stop-opacity="0"/></radialGradient><linearGradient id="R" gradientUnits="userSpaceOnUse" x1="16.1183" x2="15.3907" y1="14.2515" y2="14.5183"><stop offset="0" stop-color="#331c1f"/><stop offset="1" stop-color="#554948"/></linearGradient><linearGradient id="S" gradientUnits="userSpaceOnUse" x1="16.094" x2="16.094" y1="14.8215" y2="14.4698"><stop offset=".206896" stop-color="#442d32"/><stop offset="1" stop-color="#442d32" stop-opacity="0"/></linearGradient><linearGradient id="T" gradientUnits="userSpaceOnUse" x1="16.8353" x2="16.0001" y1="11.4873" y2="11.522"><stop offset=".360477" stop-color="#66514e"/><stop offset="1" stop-color="#66514e" stop-opacity="0"/></linearGradient><radialGradient id="U" cx="0" cy="0" gradientTransform="matrix(0 .243211 -.764376 0 16.4647 12.1706)" gradientUnits="userSpaceOnUse" r="1"><stop offset="0" stop-color="#685554"/><stop offset="1" stop-color="#685554" stop-opacity="0"/></radialGradient><linearGradient id="V" gradientUnits="userSpaceOnUse" x1="16.0001" x2="16.0001" y1="12.6223" y2="12.159"><stop offset="0" stop-color="#3e2230"/><stop offset="1" stop-color="#3e2230" stop-opacity="0"/></linearGradient><radialGradient id="W" cx="0" cy="0" gradientTransform="matrix(-1.51558453 .69488091 -1.11672988 -2.43566702 16.5805 11.6031)" gradientUnits="userSpaceOnUse" r="1"><stop offset=".714105" stop-color="#3e2b29" stop-opacity="0"/><stop offset="1" stop-color="#3f2c2a"/></radialGradient><linearGradient id="X" gradientUnits="userSpaceOnUse" x1="16.0001" x2="16.0001" y1="9.67848" y2="10.4717"><stop offset="0" stop-color="#4b302a"/><stop offset="1" stop-color="#4b302a" stop-opacity="0"/></linearGradient><linearGradient id="Y" gradientUnits="userSpaceOnUse" x1="22.827" x2="11.2572" y1="5.17301" y2="5.17301"><stop offset="0" stop-color="#443d40"/><stop offset="1" stop-color="#272127"/></linearGradient><radialGradient id="Z" cx="0" cy="0" gradientTransform="matrix(0 -3.48852 8.82207 0 10.7896 7.93326)" gradientUnits="userSpaceOnUse" r="1"><stop offset=".535851" stop-color="#3e3433"/><stop offset="1" stop-color="#3e3433" stop-opacity="0"/></radialGradient><radialGradient id="aa" cx="0" cy="0" gradientTransform="matrix(.1136245 -2.50336269 4.43545353 .20131968 20.843 9.23875)" gradientUnits="userSpaceOnUse" r="1"><stop offset="0" stop-color="#4f4d4d"/><stop offset="1" stop-color="#4f4d4d" stop-opacity="0"/></radialGradient><radialGradient id="ab" cx="0" cy="0" gradientTransform="matrix(-2.35021114 -1.5457386 1.13464907 -1.72517196 20.0915 2.9853)" gradientUnits="userSpaceOnUse" r="1"><stop offset="0" stop-color="#5e5a5b"/><stop offset="1" stop-color="#5e5a5b" stop-opacity="0"/></radialGradient><radialGradient id="ac" cx="0" cy="0" gradientTransform="matrix(.90180046 1.46960029 -3.40291525 2.0881532 15.0982 1.3988)" gradientUnits="userSpaceOnUse" r="1"><stop offset=".286771" stop-color="#484646"/><stop offset="1" stop-color="#484646" stop-opacity="0"/></radialGradient><radialGradient id="ad" cx="0" cy="0" gradientTransform="matrix(-2.19308 0 0 -.813937 16.2528 3.64975)" gradientUnits="userSpaceOnUse" r="1"><stop offset="0" stop-color="#423c3f"/><stop offset="1" stop-color="#423c3f" stop-opacity="0"/></radialGradient><radialGradient id="ae" cx="0" cy="0" gradientTransform="matrix(3.20640505 -5.07681669 5.62458386 3.55236267 10.5894 7.57781)" gradientUnits="userSpaceOnUse" r="1"><stop offset=".0926981" stop-color="#0b0306"/><stop offset=".311222" stop-color="#1c0c20"/><stop offset="1" stop-color="#1c0c20" stop-opacity="0"/></radialGradient><radialGradient id="af" cx="0" cy="0" gradientTransform="matrix(3.04721 0 0 1.19141 19.4015 4.4237)" gradientUnits="userSpaceOnUse" r="1"><stop offset="0" stop-color="#4e494b"/><stop offset="1" stop-color="#4e494b" stop-opacity="0"/></radialGradient><radialGradient id="ag" cx="0" cy="0" gradientTransform="matrix(2.66893249 -2.54284278 4.65529316 4.8861311 18.624 7.44989)" gradientUnits="userSpaceOnUse" r="1"><stop offset=".856906" stop-color="#545051" stop-opacity="0"/><stop offset="1" stop-color="#545051"/></radialGradient><radialGradient id="ah" cx="0" cy="0" gradientTransform="matrix(3.23633811 .37827329 -.15837612 1.35499565 17.7413 5.97883)" gradientUnits="userSpaceOnUse" r="1"><stop offset="0" stop-color="#200e25"/><stop offset="1" stop-color="#200e25" stop-opacity="0"/></radialGradient><linearGradient id="ai"><stop offset=".80198" stop-color="#7d574a"/><stop offset="1" stop-color="#694b43"/><stop offset="1" stop-color="#804d49"/><stop offset="1" stop-color="#664842"/></linearGradient><radialGradient id="aj" cx="0" cy="0" gradientTransform="matrix(0 .862376 -1.37171 0 18.1607 9.95193)" gradientUnits="userSpaceOnUse" r="1" xlink:href="#ai"/><linearGradient id="ak"><stop offset=".765532" stop-color="#ffe6e2" stop-opacity="0"/><stop offset=".966159" stop-color="#ffe6e2"/></linearGradient><radialGradient id="al" cx="0" cy="0" gradientTransform="matrix(-.24651217 -.31766418 .43734768 -.33938837 17.9182 10.0414)" gradientUnits="userSpaceOnUse" r="1" xlink:href="#ak"/><linearGradient id="am"><stop offset="0" stop-color="#b4948d"/><stop offset="1" stop-color="#b4948d" stop-opacity="0"/></linearGradient><linearGradient id="an" gradientUnits="userSpaceOnUse" x1="18.9878" x2="18.6543" xlink:href="#am" y1="10.0092" y2="10.2147"/><radialGradient id="ao" cx="0" cy="0" gradientTransform="matrix(0 .875214 -1.39213 0 13.8429 9.96372)" gradientUnits="userSpaceOnUse" r="1" xlink:href="#ai"/><linearGradient id="ap" gradientUnits="userSpaceOnUse" x1="14.6452" x2="14.3067" xlink:href="#am" y1="10.0218" y2="10.2304"/><radialGradient id="aq" cx="0" cy="0" gradientTransform="matrix(-.00834461 -.53296768 .64064948 -.01003057 13.5338 10.2002)" gradientUnits="userSpaceOnUse" r="1" xlink:href="#ak"/><linearGradient id="ar" gradientUnits="userSpaceOnUse" x1="22.4129" x2="21.2105" y1="9.98263" y2="12.1509"><stop offset="0" stop-color="#62504f"/><stop offset="1" stop-color="#492f32"/></linearGradient><radialGradient id="as" cx="0" cy="0" gradientTransform="matrix(.6262515 2.2350719 -2.13243471 .59749327 20.601 9.91583)" gradientUnits="userSpaceOnUse" r="1"><stop offset=".856273" stop-color="#301924" stop-opacity="0"/><stop offset="1" stop-color="#301924"/></radialGradient><radialGradient id="at" cx="0" cy="0" gradientTransform="matrix(.78490282 -1.07715214 .90286523 .65790285 20.96 10.4586)" gradientUnits="userSpaceOnUse" r="1"><stop offset=".663731" stop-color="#351b1e"/><stop offset="1" stop-color="#351b1e" stop-opacity="0"/></radialGradient><radialGradient id="au" cx="0" cy="0" gradientTransform="matrix(.58485059 -1.54475269 2.06400343 .78144135 21.0736 10.6304)" gradientUnits="userSpaceOnUse" r="1"><stop offset=".803247" stop-color="#361c1e" stop-opacity="0"/><stop offset=".965916" stop-color="#361c1e"/></radialGradient><linearGradient id="av" gradientUnits="userSpaceOnUse" x1="10.1717" x2="11.6246" y1="10.684" y2="10.5571"><stop offset="0" stop-color="#372425"/><stop offset="1" stop-color="#281919"/></linearGradient><radialGradient id="aw" cx="0" cy="0" gradientTransform="matrix(-.41136158 2.06843167 -2.03345662 -.40440588 10.7562 10.0828)" gradientUnits="userSpaceOnUse" r="1"><stop offset=".77507" stop-color="#301929" stop-opacity="0"/><stop offset="1" stop-color="#301929"/></radialGradient><radialGradient id="ax" cx="0" cy="0" gradientTransform="matrix(-.91312929 .15674024 -.06913134 -.40274182 11.1038 10.5571)" gradientUnits="userSpaceOnUse" r="1"><stop offset="0" stop-color="#2c1d22"/><stop offset="1" stop-color="#271416"/></radialGradient><linearGradient id="ay" gradientUnits="userSpaceOnUse" x1="21.3966" x2="21.3966" y1="9.60223" y2="11.4986"><stop offset="0" stop-color="#4c3838"/><stop offset="1" stop-color="#3e2724"/></linearGradient><linearGradient id="az"><stop offset="0" stop-color="#635453"/><stop offset="1" stop-color="#635453" stop-opacity="0"/></linearGradient><radialGradient id="aA" cx="0" cy="0" gradientTransform="matrix(.1546686 -.37820921 .90203915 .36888878 16.748 14.0945)" gradientUnits="userSpaceOnUse" r="1" xlink:href="#az"/><radialGradient id="aB" cx="0" cy="0" gradientTransform="matrix(.22010574 -.23856808 .16329206 .1506552 14.7908 14.0945)" gradientUnits="userSpaceOnUse" r="1" xlink:href="#az"/><linearGradient id="aC"><stop offset=".333387" stop-color="#343434"/><stop offset="1" stop-color="#343434" stop-opacity="0"/></linearGradient><linearGradient id="aD" gradientUnits="userSpaceOnUse" x1="19.4705" x2="16.6533" xlink:href="#aC" y1="8.6983" y2="8.6983"/><linearGradient id="aE" gradientUnits="userSpaceOnUse" x1="14.9756" x2="12.1584" xlink:href="#aC" y1="8.6983" y2="8.6983"/><path d="m9.19919 24.75-3.90537.1835c.57745-5.253 5.02978-9.3397 10.43658-9.3397h.625c5.4145 0 9.8717 4.0982 10.4391 9.3618l-4.377-.2056v5.1875h-13.21831z" fill="url(#t)"/><path d="m9.19919 24.75-3.90537.1835c.57745-5.253 5.02978-9.3397 10.43658-9.3397h.625c5.4145 0 9.8717 4.0982 10.4391 9.3618l-4.377-.2056v5.1875h-13.21831z" fill="url(#u)"/><path d="m9.19919 24.75-3.90537.1835c.57745-5.253 5.02978-9.3397 10.43658-9.3397h.625c5.4145 0 9.8717 4.0982 10.4391 9.3618l-4.377-.2056v5.1875h-13.21831z" fill="url(#v)"/><rect fill="url(#w)" height="6.02758" rx="2.11145" width="4.2229" x="13.918" y="12.688"/><rect fill="url(#x)" height="6.02758" rx="2.11145" width="4.2229" x="13.918" y="12.688"/><path d="m22.9674 17.9366c2.0951 1.7003 3.5223 4.1915 3.827 7.019l-3.827-.1798z" fill="url(#y)"/><path d="m5.29382 24.9335 3.8468-.1601.0586.1822h.03125v-7.1086c-2.15064 1.6974-3.62134 4.218-3.93665 7.0865z" fill="url(#z)"/><path d="m5.29382 24.9335 3.8468-.1601.0586.1822h.03125v-7.1086c-2.15064 1.6974-3.62134 4.218-3.93665 7.0865z" fill="url(#A)"/><g filter="url(#a)"><path d="m26.4169 28.5312c.6-1.05.4531-2.8125.375-3.5976l-3.9375-.168c-.4125.2125-1.5261.0886-2.0313 0l-8.8973-1.4062c-.6172-.1172-2.09653-.2317-2.77346.1328-.76562.4123-1 1.1927-.9375 1.5781 4.27086 1.5313 12.63176 4.5625 13.75676 4.8125 1.8203.3125 3.6953-.0391 4.4453-1.3516z" fill="url(#B)"/></g><path d="m26.4169 28.5312c.6-1.05.4531-2.8125.375-3.5976l-3.9375-.168c-.4125.2125-1.5261.0886-2.0313 0l-8.8973-1.4062c-.6172-.1172-2.09653-.2317-2.77346.1328-.76562.4123-1 1.1927-.9375 1.5781 4.27086 1.5313 12.63176 4.5625 13.75676 4.8125 1.8203.3125 3.6953-.0391 4.4453-1.3516z" fill="url(#C)"/><path d="m26.4169 28.5312c.6-1.05.4531-2.8125.375-3.5976l-3.9375-.168c-.4125.2125-1.5261.0886-2.0313 0l-8.8973-1.4062c-.6172-.1172-2.09653-.2317-2.77346.1328-.76562.4123-1 1.1927-.9375 1.5781 4.27086 1.5313 12.63176 4.5625 13.75676 4.8125 1.8203.3125 3.6953-.0391 4.4453-1.3516z" fill="url(#D)"/><g filter="url(#b)"><path d="m5.66796 28.5312c-.6-1.05-.45314-2.8125-.375-3.5976l3.9375-.168c.4125.2125 1.52604.0886 2.03124 0l9.6719-1.5625c.6172-.1172 1.4481-.177 2.125.1875.7282.3921.7002.9653.6419 1.3521-.0054.0359-.029.0652-.0633.0775-4.2854 1.5396-12.4037 4.8137-13.5239 5.0626-1.82034.3125-3.69534-.0391-4.44534-1.3516z" fill="url(#E)"/></g><path d="m20.8436 12.0602c.334-.0108.6468-.124.9013-.3074v.9276c0 .8899-.5302 1.6826-1.336 2.0116.1696-.3613.2863-.755.3446-1.1757z" fill="url(#F)"/><path d="m11.1566 12.0602c-.334-.0108-.6468-.124-.9012-.3074v.9276c0 .8899.5301 1.6826 1.336 2.0116-.1697-.3613-.2863-.755-.3446-1.1757z" fill="url(#G)"/><g filter="url(#c)"><path d="m11.193 13.5698c.2563 1.9452 1.9117 3.3934 3.8715 3.3934h1.8796c1.9598 0 3.6152-1.4482 3.8715-3.3934.1176-1.8768.2358-3.7461.323-5.62192-.0106-.7642-.613-1.39479-1.3739-1.42685h-1.3951c-.9512 0-1.8126-.56112-2.2036-1.43754-.1004-.25117-.3435-.41683-.613-.41683h-1.2683c-1.8389 0-3.3291 1.507-3.3291 3.36672 0 1.85392.1158 3.67782.2374 5.53642z" fill="url(#H)"/></g><path d="m11.193 13.5698c.2563 1.9452 1.9117 3.3934 3.8715 3.3934h1.8796c1.9598 0 3.6152-1.4482 3.8715-3.3934.1176-1.8768.2358-3.7461.323-5.62192-.0106-.7642-.613-1.39479-1.3739-1.42685h-1.3951c-.9512 0-1.8126-.56112-2.2036-1.43754-.1004-.25117-.3435-.41683-.613-.41683h-1.2683c-1.8389 0-3.3291 1.507-3.3291 3.36672 0 1.85392.1158 3.67782.2374 5.53642z" fill="url(#I)"/><path d="m11.193 13.5698c.2563 1.9452 1.9117 3.3934 3.8715 3.3934h1.8796c1.9598 0 3.6152-1.4482 3.8715-3.3934.1176-1.8768.2358-3.7461.323-5.62192-.0106-.7642-.613-1.39479-1.3739-1.42685h-1.3951c-.9512 0-1.8126-.56112-2.2036-1.43754-.1004-.25117-.3435-.41683-.613-.41683h-1.2683c-1.8389 0-3.3291 1.507-3.3291 3.36672 0 1.85392.1158 3.67782.2374 5.53642z" fill="url(#J)"/><path d="m11.193 13.5698c.2563 1.9452 1.9117 3.3934 3.8715 3.3934h1.8796c1.9598 0 3.6152-1.4482 3.8715-3.3934.1176-1.8768.2358-3.7461.323-5.62192-.0106-.7642-.613-1.39479-1.3739-1.42685h-1.3951c-.9512 0-1.8126-.56112-2.2036-1.43754-.1004-.25117-.3435-.41683-.613-.41683h-1.2683c-1.8389 0-3.3291 1.507-3.3291 3.36672 0 1.85392.1158 3.67782.2374 5.53642z" fill="url(#K)"/><path d="m11.193 13.5698c.2563 1.9452 1.9117 3.3934 3.8715 3.3934h1.8796c1.9598 0 3.6152-1.4482 3.8715-3.3934.1176-1.8768.2358-3.7461.323-5.62192-.0106-.7642-.613-1.39479-1.3739-1.42685h-1.3951c-.9512 0-1.8126-.56112-2.2036-1.43754-.1004-.25117-.3435-.41683-.613-.41683h-1.2683c-1.8389 0-3.3291 1.507-3.3291 3.36672 0 1.85392.1158 3.67782.2374 5.53642z" fill="url(#L)"/><path d="m11.193 13.5698c.2563 1.9452 1.9117 3.3934 3.8715 3.3934h1.8796c1.9598 0 3.6152-1.4482 3.8715-3.3934.1176-1.8768.2358-3.7461.323-5.62192-.0106-.7642-.613-1.39479-1.3739-1.42685h-1.3951c-.9512 0-1.8126-.56112-2.2036-1.43754-.1004-.25117-.3435-.41683-.613-.41683h-1.2683c-1.8389 0-3.3291 1.507-3.3291 3.36672 0 1.85392.1158 3.67782.2374 5.53642z" fill="url(#M)"/><path d="m11.193 13.5698c.2563 1.9452 1.9117 3.3934 3.8715 3.3934h1.8796c1.9598 0 3.6152-1.4482 3.8715-3.3934.1176-1.8768.2358-3.7461.323-5.62192-.0106-.7642-.613-1.39479-1.3739-1.42685h-1.3951c-.9512 0-1.8126-.56112-2.2036-1.43754-.1004-.25117-.3435-.41683-.613-.41683h-1.2683c-1.8389 0-3.3291 1.507-3.3291 3.36672 0 1.85392.1158 3.67782.2374 5.53642z" fill="url(#N)"/><path d="m11.193 13.5698c.2563 1.9452 1.9117 3.3934 3.8715 3.3934h1.8796c1.9598 0 3.6152-1.4482 3.8715-3.3934.1176-1.8768.2358-3.7461.323-5.62192-.0106-.7642-.613-1.39479-1.3739-1.42685h-1.3951c-.9512 0-1.8126-.56112-2.2036-1.43754-.1004-.25117-.3435-.41683-.613-.41683h-1.2683c-1.8389 0-3.3291 1.507-3.3291 3.36672 0 1.85392.1158 3.67782.2374 5.53642z" fill="url(#O)"/><path d="m11.193 13.5698c.2563 1.9452 1.9117 3.3934 3.8715 3.3934h1.8796c1.9598 0 3.6152-1.4482 3.8715-3.3934.1176-1.8768.2358-3.7461.323-5.62192-.0106-.7642-.613-1.39479-1.3739-1.42685h-1.3951c-.9512 0-1.8126-.56112-2.2036-1.43754-.1004-.25117-.3435-.41683-.613-.41683h-1.2683c-1.8389 0-3.3291 1.507-3.3291 3.36672 0 1.85392.1158 3.67782.2374 5.53642z" fill="url(#P)"/><path d="m11.193 13.5698c.2563 1.9452 1.9117 3.3934 3.8715 3.3934h1.8796c1.9598 0 3.6152-1.4482 3.8715-3.3934.1176-1.8768.2358-3.7461.323-5.62192-.0106-.7642-.613-1.39479-1.3739-1.42685h-1.3951c-.9512 0-1.8126-.56112-2.2036-1.43754-.1004-.25117-.3435-.41683-.613-.41683h-1.2683c-1.8389 0-3.3291 1.507-3.3291 3.36672 0 1.85392.1158 3.67782.2374 5.53642z" fill="url(#Q)"/><g filter="url(#d)"><path d="m16.559 14.692c0-.2827-.2293-.512-.5121-.512-.2827 0-.512.2293-.512.512z" fill="url(#R)"/><path d="m16.559 14.692c0-.2827-.2293-.512-.5121-.512-.2827 0-.512.2293-.512.512z" fill="url(#S)"/></g><g filter="url(#e)"><path d="m15.6002 10.298-.5887 1.8316c-.1005.3767.1408.7535.4827.7535h.729c.3419 0 .5832-.3825.4827-.7535l-.4927-1.8316c-.1056-.40578-.5024-.40578-.613 0z" fill="#331e24"/></g><g filter="url(#f)"><path d="m15.6192 10.1029-.5295 1.8316c-.1081.3768.1513.7535.5187.7535h.7835c.3674 0 .6268-.3825.5187-.7535l-.5295-1.8316c-.1135-.40575-.643-.40575-.7619 0z" fill="#402929"/><path d="m15.6192 10.1029-.5295 1.8316c-.1081.3768.1513.7535.5187.7535h.7835c.3674 0 .6268-.3825.5187-.7535l-.5295-1.8316c-.1135-.40575-.643-.40575-.7619 0z" fill="url(#T)"/><path d="m15.6192 10.1029-.5295 1.8316c-.1081.3768.1513.7535.5187.7535h.7835c.3674 0 .6268-.3825.5187-.7535l-.5295-1.8316c-.1135-.40575-.643-.40575-.7619 0z" fill="url(#U)"/><path d="m15.6192 10.1029-.5295 1.8316c-.1081.3768.1513.7535.5187.7535h.7835c.3674 0 .6268-.3825.5187-.7535l-.5295-1.8316c-.1135-.40575-.643-.40575-.7619 0z" fill="url(#V)"/><path d="m15.6192 10.1029-.5295 1.8316c-.1081.3768.1513.7535.5187.7535h.7835c.3674 0 .6268-.3825.5187-.7535l-.5295-1.8316c-.1135-.40575-.643-.40575-.7619 0z" fill="url(#W)"/><path d="m15.6192 10.1029-.5295 1.8316c-.1081.3768.1513.7535.5187.7535h.7835c.3674 0 .6268-.3825.5187-.7535l-.5295-1.8316c-.1135-.40575-.643-.40575-.7619 0z" fill="url(#X)"/></g><g filter="url(#g)"><path d="m20.8371 4.19639c.5126.17635.9723.5344 1.263 1.04743.465.81763.3963 1.79558-.1057 2.51703-.1744.25651-.2695.56112-.2695.87107v1.1837c-.1864-.12982-.4323-.22607-.6648-.2672l.0782-1.60053c-.0106-.7642-.613-1.39479-1.374-1.42686h-1.395c-.9512 0-1.8126-.56112-2.2036-1.43753-.1004-.25117-.3435-.41684-.613-.41684h-1.2683c-1.8389 0-3.3291 1.50701-3.3291 3.36673l.0305 1.53173c-.2531.03718-.5174.12177-.7175.26271v-1.19591c0-.30995-.0951-.61456-.26951-.87107-.4756-.70007-.56015-1.64062-.14268-2.43687.29069-.55044.76099-.93521 1.29469-1.12225.5707-.20307 1.0569-.58784 1.3792-1.10621.4122-.65731 1.1362-1.09552 1.9658-1.09552.3224 0 .6289.06947.9142.18704.3805.16566.8085.16566 1.189 0 .2801-.11757.5866-.18704.9089-.18704.8402 0 1.5748.45424 1.9817 1.12759.3065.50768.7873.87641 1.3475 1.0688z" fill="url(#Y)"/><path d="m20.8371 4.19639c.5126.17635.9723.5344 1.263 1.04743.465.81763.3963 1.79558-.1057 2.51703-.1744.25651-.2695.56112-.2695.87107v1.1837c-.1864-.12982-.4323-.22607-.6648-.2672l.0782-1.60053c-.0106-.7642-.613-1.39479-1.374-1.42686h-1.395c-.9512 0-1.8126-.56112-2.2036-1.43753-.1004-.25117-.3435-.41684-.613-.41684h-1.2683c-1.8389 0-3.3291 1.50701-3.3291 3.36673l.0305 1.53173c-.2531.03718-.5174.12177-.7175.26271v-1.19591c0-.30995-.0951-.61456-.26951-.87107-.4756-.70007-.56015-1.64062-.14268-2.43687.29069-.55044.76099-.93521 1.29469-1.12225.5707-.20307 1.0569-.58784 1.3792-1.10621.4122-.65731 1.1362-1.09552 1.9658-1.09552.3224 0 .6289.06947.9142.18704.3805.16566.8085.16566 1.189 0 .2801-.11757.5866-.18704.9089-.18704.8402 0 1.5748.45424 1.9817 1.12759.3065.50768.7873.87641 1.3475 1.0688z" fill="url(#Z)"/><path d="m20.8371 4.19639c.5126.17635.9723.5344 1.263 1.04743.465.81763.3963 1.79558-.1057 2.51703-.1744.25651-.2695.56112-.2695.87107v1.1837c-.1864-.12982-.4323-.22607-.6648-.2672l.0782-1.60053c-.0106-.7642-.613-1.39479-1.374-1.42686h-1.395c-.9512 0-1.8126-.56112-2.2036-1.43753-.1004-.25117-.3435-.41684-.613-.41684h-1.2683c-1.8389 0-3.3291 1.50701-3.3291 3.36673l.0305 1.53173c-.2531.03718-.5174.12177-.7175.26271v-1.19591c0-.30995-.0951-.61456-.26951-.87107-.4756-.70007-.56015-1.64062-.14268-2.43687.29069-.55044.76099-.93521 1.29469-1.12225.5707-.20307 1.0569-.58784 1.3792-1.10621.4122-.65731 1.1362-1.09552 1.9658-1.09552.3224 0 .6289.06947.9142.18704.3805.16566.8085.16566 1.189 0 .2801-.11757.5866-.18704.9089-.18704.8402 0 1.5748.45424 1.9817 1.12759.3065.50768.7873.87641 1.3475 1.0688z" fill="url(#aa)"/><path d="m20.8371 4.19639c.5126.17635.9723.5344 1.263 1.04743.465.81763.3963 1.79558-.1057 2.51703-.1744.25651-.2695.56112-.2695.87107v1.1837c-.1864-.12982-.4323-.22607-.6648-.2672l.0782-1.60053c-.0106-.7642-.613-1.39479-1.374-1.42686h-1.395c-.9512 0-1.8126-.56112-2.2036-1.43753-.1004-.25117-.3435-.41684-.613-.41684h-1.2683c-1.8389 0-3.3291 1.50701-3.3291 3.36673l.0305 1.53173c-.2531.03718-.5174.12177-.7175.26271v-1.19591c0-.30995-.0951-.61456-.26951-.87107-.4756-.70007-.56015-1.64062-.14268-2.43687.29069-.55044.76099-.93521 1.29469-1.12225.5707-.20307 1.0569-.58784 1.3792-1.10621.4122-.65731 1.1362-1.09552 1.9658-1.09552.3224 0 .6289.06947.9142.18704.3805.16566.8085.16566 1.189 0 .2801-.11757.5866-.18704.9089-.18704.8402 0 1.5748.45424 1.9817 1.12759.3065.50768.7873.87641 1.3475 1.0688z" fill="url(#ab)"/><path d="m20.8371 4.19639c.5126.17635.9723.5344 1.263 1.04743.465.81763.3963 1.79558-.1057 2.51703-.1744.25651-.2695.56112-.2695.87107v1.1837c-.1864-.12982-.4323-.22607-.6648-.2672l.0782-1.60053c-.0106-.7642-.613-1.39479-1.374-1.42686h-1.395c-.9512 0-1.8126-.56112-2.2036-1.43753-.1004-.25117-.3435-.41684-.613-.41684h-1.2683c-1.8389 0-3.3291 1.50701-3.3291 3.36673l.0305 1.53173c-.2531.03718-.5174.12177-.7175.26271v-1.19591c0-.30995-.0951-.61456-.26951-.87107-.4756-.70007-.56015-1.64062-.14268-2.43687.29069-.55044.76099-.93521 1.29469-1.12225.5707-.20307 1.0569-.58784 1.3792-1.10621.4122-.65731 1.1362-1.09552 1.9658-1.09552.3224 0 .6289.06947.9142.18704.3805.16566.8085.16566 1.189 0 .2801-.11757.5866-.18704.9089-.18704.8402 0 1.5748.45424 1.9817 1.12759.3065.50768.7873.87641 1.3475 1.0688z" fill="url(#ac)"/></g><g filter="url(#h)"><path d="m16.2318 5.2198c-.0232-.04453-.0452-.08998-.0659-.13631-.1004-.25117-.3435-.41683-.613-.41683h-1.2682c-1.839 0-3.3292 1.50701-3.3292 3.36673v.27416c-.3388-.2578-.7648-.80161-.7648-1.68164 0-1.06792.7789-1.60771 1.2757-1.95204.1402-.09721.258-.17883.3295-.25237.0303-.03123.0633-.06627.0993-.10438.3482-.36937.9687-1.02749 2.0523-1.31512.5283-.14024 1.0636-.17479 1.4992-.16449.4728.01117.8061.41945.8061.8923v1.4766z" fill="#23181c"/><path d="m16.2318 5.2198c-.0232-.04453-.0452-.08998-.0659-.13631-.1004-.25117-.3435-.41683-.613-.41683h-1.2682c-1.839 0-3.3292 1.50701-3.3292 3.36673v.27416c-.3388-.2578-.7648-.80161-.7648-1.68164 0-1.06792.7789-1.60771 1.2757-1.95204.1402-.09721.258-.17883.3295-.25237.0303-.03123.0633-.06627.0993-.10438.3482-.36937.9687-1.02749 2.0523-1.31512.5283-.14024 1.0636-.17479 1.4992-.16449.4728.01117.8061.41945.8061.8923v1.4766z" fill="url(#ad)"/><path d="m16.2318 5.2198c-.0232-.04453-.0452-.08998-.0659-.13631-.1004-.25117-.3435-.41683-.613-.41683h-1.2682c-1.839 0-3.3292 1.50701-3.3292 3.36673v.27416c-.3388-.2578-.7648-.80161-.7648-1.68164 0-1.06792.7789-1.60771 1.2757-1.95204.1402-.09721.258-.17883.3295-.25237.0303-.03123.0633-.06627.0993-.10438.3482-.36937.9687-1.02749 2.0523-1.31512.5283-.14024 1.0636-.17479 1.4992-.16449.4728.01117.8061.41945.8061.8923v1.4766z" fill="url(#ae)"/></g><g filter="url(#i)"><path d="m21.1936 8.4746-.0291-.62888c-.0105-.76067-.6391-1.38835-1.4001-1.42027h-1.3951c-.8856 0-1.6933-.48418-2.1161-1.25505 0 0-.0574-.13285-.118-.36073-.2578-.96939.6697-1.71208 1.6543-1.52062.9683.18829 2.0701.51494 2.8852 1.04656 1.7381 1.1337 1.4338 3.17685.5189 4.13899z" fill="#1f151b"/><path d="m21.1936 8.4746-.0291-.62888c-.0105-.76067-.6391-1.38835-1.4001-1.42027h-1.3951c-.8856 0-1.6933-.48418-2.1161-1.25505 0 0-.0574-.13285-.118-.36073-.2578-.96939.6697-1.71208 1.6543-1.52062.9683.18829 2.0701.51494 2.8852 1.04656 1.7381 1.1337 1.4338 3.17685.5189 4.13899z" fill="url(#af)"/><path d="m21.1936 8.4746-.0291-.62888c-.0105-.76067-.6391-1.38835-1.4001-1.42027h-1.3951c-.8856 0-1.6933-.48418-2.1161-1.25505 0 0-.0574-.13285-.118-.36073-.2578-.96939.6697-1.71208 1.6543-1.52062.9683.18829 2.0701.51494 2.8852 1.04656 1.7381 1.1337 1.4338 3.17685.5189 4.13899z" fill="url(#ag)"/><path d="m21.1936 8.4746-.0291-.62888c-.0105-.76067-.6391-1.38835-1.4001-1.42027h-1.3951c-.8856 0-1.6933-.48418-2.1161-1.25505 0 0-.0574-.13285-.118-.36073-.2578-.96939.6697-1.71208 1.6543-1.52062.9683.18829 2.0701.51494 2.8852 1.04656 1.7381 1.1337 1.4338 3.17685.5189 4.13899z" fill="url(#ah)"/></g><path d="m18.3827 9.15601c.6942 0 1.2807.47861 1.4402 1.12539.0474.1854-.0949.3622-.2846.3622h-2.3715c-.1509 0-.2717-.138-.2415-.2889.1337-.68127.733-1.19869 1.4574-1.19869z" fill="#fff"/><path d="m18.1629 9.44489c.526 0 .9486.42687.9486.94861 0 .0862-.0129.1725-.0345.2501h-1.8325c-.0216-.0819-.0345-.1639-.0345-.2501 0-.52174.4268-.94861.9529-.94861z" fill="url(#aj)"/><path d="m17.6196 10.3935c0-.3018.2415-.54328.5433-.54328.3019 0 .5433.24148.5433.54328 0 .0906-.0215.1768-.0603.2501h-.9616c-.0431-.0733-.0647-.1595-.0647-.2501z" fill="#000"/><g filter="url(#j)"><path d="m18.0932 9.64543c.0676.09039-.0737.20059-.2343.32068s-.2798.20459-.3474.11419c-.0676-.09037.0079-.261.1685-.38109.1606-.1201.3456-.14417.4132-.05378z" fill="#c7a7a3"/><path d="m18.0932 9.64543c.0676.09039-.0737.20059-.2343.32068s-.2798.20459-.3474.11419c-.0676-.09037.0079-.261.1685-.38109.1606-.1201.3456-.14417.4132-.05378z" fill="url(#al)"/></g><g filter="url(#k)"><path d="m19.008 10.2686c-.0351-.2452-.1786-.43005-.2459-.49181l-.2763.30321.1247.2425z" fill="url(#an)"/></g><path d="m13.6174 9.15594c-.7045 0-1.2997.48575-1.4616 1.14216-.0481.1882.0963.3676.2888.3676h2.4069c.1531 0 .2757-.14.245-.2932-.1356-.69143-.7483-1.21656-1.4791-1.21656z" fill="#fff"/><path d="m13.8407 9.44913c-.5339 0-.9628.43323-.9628.96277 0 .0875.0132.175.035.2538h1.8599c.0218-.0832.035-.1663.035-.2538-.0044-.52954-.4333-.96277-.9671-.96277z" fill="url(#ao)"/><path d="m14.3918 10.4119c0-.3064-.245-.55143-.5514-.55143-.3063 0-.5513.24503-.5513.55143 0 .0919.0218.1794.0612.2538h.9759c.0394-.0744.0656-.1619.0656-.2538z" fill="#000"/><g filter="url(#l)"><path d="m14.7201 10.2988c0-.31115-.253-.51856-.3213-.58124l-.3112.30084.1915.3898z" fill="url(#ap)"/></g><g filter="url(#m)"><ellipse cx="13.5501" cy="9.86049" fill="#c7a7a3" fill-opacity=".9" rx=".420285" ry=".212703" transform="matrix(.88365127 -.46814574 .46814574 .88365127 -3.039609 7.490677)"/><ellipse cx="13.5501" cy="9.86049" fill="url(#aq)" rx=".420285" ry=".212703" transform="matrix(.88365127 -.46814574 .46814574 .88365127 -3.039609 7.490677)"/></g><path d="m20.9041 12.1509c.0655-1.0603.1287-2.1193.1839-3.17962.7528.13172 1.3249.78862 1.3249 1.57912 0 .8538-.6673 1.5517-1.5088 1.6005z" fill="url(#ar)"/><path d="m20.9041 12.1509c.0655-1.0603.1287-2.1193.1839-3.17962.7528.13172 1.3249.78862 1.3249 1.57912 0 .8538-.6673 1.5517-1.5088 1.6005z" fill="url(#as)"/><path d="m20.9041 12.1509c.0655-1.0603.1287-2.1193.1839-3.17962.7528.13172 1.3249.78862 1.3249 1.57912 0 .8538-.6673 1.5517-1.5088 1.6005z" fill="url(#at)"/><path d="m20.9041 12.1509c.0655-1.0603.1287-2.1193.1839-3.17962.7528.13172 1.3249.78862 1.3249 1.57912 0 .8538-.6673 1.5517-1.5088 1.6005z" fill="url(#au)"/><path d="m10.9645 8.96301c-.7785.10977-1.37734.77866-1.37734 1.58739 0 .856.67074 1.5552 1.51534 1.6009-.0644-1.0647-.1174-2.1233-.138-3.18829z" fill="url(#av)"/><path d="m10.9645 8.96301c-.7785.10977-1.37734.77866-1.37734 1.58739 0 .856.67074 1.5552 1.51534 1.6009-.0644-1.0647-.1174-2.1233-.138-3.18829z" fill="url(#aw)"/><g filter="url(#n)"><path d="m10.9334 9.62088c-.4251.09531-.7427.47502-.7427.92882 0 .483.3597.882.8258.9437-.0345-.6246-.0636-1.2479-.0831-1.87252z" fill="url(#ax)"/></g><g filter="url(#o)"><path d="m20.925 11.4986c.0384-.6322.0756-1.2641.1103-1.89637.4695.05858.8328.45917.8328.94457 0 .5227-.4214.9471-.9431.9518z" fill="url(#ay)"/></g><path d="m15.1446 14.0956c.4864-.3339 1.208-.3346 1.6998.0006.1271.0866.3003.0537.3869-.0733.0866-.1271.0538-.3003-.0733-.3869-.6803-.4636-1.6516-.4643-2.3286.0005-.1268.0871-.159.2604-.0719.3872.087.1267.2603.1589.3871.0719z" fill="#280017"/><path d="m15.1446 14.0956c.4864-.3339 1.208-.3346 1.6998.0006.1271.0866.3003.0537.3869-.0733.0866-.1271.0538-.3003-.0733-.3869-.6803-.4636-1.6516-.4643-2.3286.0005-.1268.0871-.159.2604-.0719.3872.087.1267.2603.1589.3871.0719z" stroke="url(#aA)" stroke-linecap="round" stroke-linejoin="round" stroke-width=".1"/><path d="m15.1446 14.0956c.4864-.3339 1.208-.3346 1.6998.0006.1271.0866.3003.0537.3869-.0733.0866-.1271.0538-.3003-.0733-.3869-.6803-.4636-1.6516-.4643-2.3286.0005-.1268.0871-.159.2604-.0719.3872.087.1267.2603.1589.3871.0719z" stroke="url(#aB)" stroke-linecap="round" stroke-linejoin="round" stroke-width=".1"/><g filter="url(#p)"><rect fill="#0b090a" height=".541128" rx=".270564" width="2.64844" x="12.4634" y="8.47461"/></g><g filter="url(#q)"><rect fill="#0b090a" height=".541128" rx=".270564" width="2.64844" x="16.9822" y="8.47461"/></g><g filter="url(#r)"><path d="m17.3298 8.6983h2.0703" stroke="url(#aD)" stroke-linecap="round" stroke-width=".2"/></g><g filter="url(#s)"><path d="m12.835 8.6983h2.0703" stroke="url(#aE)" stroke-linecap="round" stroke-width=".2"/></g></svg>