<svg fill="none" height="32" viewBox="0 0 32 32" width="32" xmlns="http://www.w3.org/2000/svg"><path d="m21.0712 9.48132-6.4314-6.43133-11.54996 11.56001 6.43134 6.4313c3.19002 3.19 8.37002 3.19 11.56002 0 3.18-3.19 3.18-8.37-.01-11.55998z" fill="#f3ad61"/><path d="m27.57 27.54c3.19-3.19 3.19-8.37 0-11.56l-2.59-2.59c-.8331 5.3581-1.0277 10.9395-1.44 16.35 1.48-.32 2.89-1.05 4.03-2.2z" fill="#9b9b9b"/><path d="m24.9799 13.39-5.73-5.72997c3.19 3.18997 3.19 8.36997 0 11.55997s-8.37 3.19-11.55996 0l8.31996 8.32c2.04 2.04 4.9 2.78 7.53 2.2 3.85-4.68 4.33-11.21 1.44-16.35z" fill="#d3d3d3"/><path d="m15.6379 5.7858c-.09-.76-.4299-1.5-1.0199-2.09-2.3363 2.39021-8.17324 8.3034-10.9471 10.934.59.59 1.32999.92 2.08999 1.02z" fill="#f9c23c"/><path d="m15.1213 4.22383c-.13-.19-.27-.36-.44-.53-.2655-.26548-.5623-.48026-.8787-.64433-3.2533 2.71226-7.14704 6.82421-10.9547 10.4548.17374.4264.43327.8267.77858 1.1745.16.16.34.31.53.44z" fill="#f8312f"/><path d="m15.7057 7.64048c.4-.72.2977-1.75047-.3556-1.75047-.39.04-.76.21-1.06.51s-.47.69-.51 1.08c-.02.21-.18.37-.39.39-.4.04-.78.21-1.08.51s-.47.69-.51 1.08c-.02.21-.18.37001-.39.39001-.4.04-.78.20998-1.08.50998s-.46997.69-.50997 1.08c-.02.21-.18.37-.39.39-.4.04-.78.21-1.08.51s-.47001.69-.51001 1.08c-.02.2-.17.37-.37.39-.43.04-.84.23-1.16.57-.26.28-.4.63-.44.99.60548.6669 1.64217.4 2.36217 0 .28-.16 1.18917-.75 1.42917-.99l5.28864-5.34013c.24-.24.5956-1.11939.7556-1.39939z" fill="#6d4534"/><path d="m11.81 2.95c.91 0 1.82.35 2.52 1.04 1.39 1.39 1.39 3.65 0 5.04l-5.3 5.3c-.7.7-1.60999 1.04-2.51999 1.04s-1.82-.35-2.52-1.04c-1.39-1.39-1.39-3.65 0-5.04l5.3-5.3c.69-.7 1.60999-1.04 2.51999-1.04zm0-.95c-1.2 0-2.34.47-3.19 1.32l-5.29999 5.3c-.85.85-1.32001 1.98-1.32001 3.19 0 1.2.47001 2.34 1.32001 3.19s1.98 1.32 3.19 1.32c1.2 0 2.33999-.47 3.18999-1.32l5.3-5.3c.85-.85 1.32-1.98 1.32-3.19 0-1.2-.47-2.34-1.32-3.19s-1.99-1.32-3.19-1.32z" fill="#ffdea7"/><path d="m13.2499 3.17996c-1.05-.62-2.41-.52-3.34996.3-.01.01-.03001.02-.04001.04-.66.59-1.53999.85-2.42999.75-.84-.1-1.72.18-2.36.82s-.92001 1.52-.82001 2.36c.1.88-.16 1.77-.75 2.43-.01.01-.01999.03-.03999.04-.82.94004-.92 2.30004-.3 3.35004z" fill="#44911b"/><path d="m14.0301 3.64c-.69-.69-1.7999-.69-2.4899 0-.3.3-.4701.69-.5101 1.08-.02.21-.18.37-.39.39-.4.04-.77996.21-1.07996.51s-.46999.69-.50999 1.08c-.02.21-.18.37-.39.39-.4.04-.78.21-1.08.51s-.47.69-.51 1.08c-.02.21-.17999.37-.38999.39-.40001.04-.78001.21-1.08001.51s-.47001.69-.51001 1.08c-.02.2-.16999.37-.36999.39-.43.04-.84001.23-1.16001.57-.59.66-.59998 1.68-.01998 2.34.03.03.04998.06.07998.08z" fill="#fff478"/></svg>