<svg fill="none" height="32" viewBox="0 0 32 32" width="32" xmlns="http://www.w3.org/2000/svg" xmlns:xlink="http://www.w3.org/1999/xlink"><filter id="a" color-interpolation-filters="sRGB" filterUnits="userSpaceOnUse" height="6.80176" width="6.80176" x="12.7241" y="1.79407"><feFlood flood-opacity="0" result="BackgroundImageFix"/><feBlend in="SourceGraphic" in2="BackgroundImageFix" mode="normal" result="shape"/><feColorMatrix in="SourceAlpha" result="hardAlpha" type="matrix" values="0 0 0 0 0 0 0 0 0 0 0 0 0 0 0 0 0 0 127 0"/><feOffset dx=".25" dy="-.25"/><feGaussianBlur stdDeviation=".375"/><feComposite in2="hardAlpha" k2="-1" k3="1" operator="arithmetic"/><feColorMatrix type="matrix" values="0 0 0 0 0.92549 0 0 0 0 0.537255 0 0 0 0 0.12549 0 0 0 1 0"/><feBlend in2="shape" mode="normal" result="effect1_innerShadow_4002_168"/></filter><filter id="b" color-interpolation-filters="sRGB" filterUnits="userSpaceOnUse" height="12.4531" width="6.16875" x="13.0156" y="15.9052"><feFlood flood-opacity="0" result="BackgroundImageFix"/><feBlend in="SourceGraphic" in2="BackgroundImageFix" mode="normal" result="shape"/><feColorMatrix in="SourceAlpha" result="hardAlpha" type="matrix" values="0 0 0 0 0 0 0 0 0 0 0 0 0 0 0 0 0 0 127 0"/><feOffset dx=".2"/><feGaussianBlur stdDeviation=".4"/><feComposite in2="hardAlpha" k2="-1" k3="1" operator="arithmetic"/><feColorMatrix type="matrix" values="0 0 0 0 0.419608 0 0 0 0 0.360784 0 0 0 0 0.411765 0 0 0 1 0"/><feBlend in2="shape" mode="normal" result="effect1_innerShadow_4002_168"/></filter><filter id="c" color-interpolation-filters="sRGB" filterUnits="userSpaceOnUse" height="7.69375" width="6.41719" x="12.9414" y="8.36218"><feFlood flood-opacity="0" result="BackgroundImageFix"/><feBlend in="SourceGraphic" in2="BackgroundImageFix" mode="normal" result="shape"/><feColorMatrix in="SourceAlpha" result="hardAlpha" type="matrix" values="0 0 0 0 0 0 0 0 0 0 0 0 0 0 0 0 0 0 127 0"/><feOffset dx=".5" dy=".1"/><feGaussianBlur stdDeviation=".15"/><feComposite in2="hardAlpha" k2="-1" k3="1" operator="arithmetic"/><feColorMatrix type="matrix" values="0 0 0 0 0.564706 0 0 0 0 0.470588 0 0 0 0 0.690196 0 0 0 1 0"/><feBlend in2="shape" mode="normal" result="effect1_innerShadow_4002_168"/></filter><filter id="d" color-interpolation-filters="sRGB" filterUnits="userSpaceOnUse" height="1.84766" width="3.31641" x="12.4336" y="28.3583"><feFlood flood-opacity="0" result="BackgroundImageFix"/><feBlend in="SourceGraphic" in2="BackgroundImageFix" mode="normal" result="shape"/><feColorMatrix in="SourceAlpha" result="hardAlpha" type="matrix" values="0 0 0 0 0 0 0 0 0 0 0 0 0 0 0 0 0 0 127 0"/><feOffset dx=".25" dy=".25"/><feGaussianBlur stdDeviation=".25"/><feComposite in2="hardAlpha" k2="-1" k3="1" operator="arithmetic"/><feColorMatrix type="matrix" values="0 0 0 0 0.313726 0 0 0 0 0.235294 0 0 0 0 0.431373 0 0 0 1 0"/><feBlend in2="shape" mode="normal" result="effect1_innerShadow_4002_168"/></filter><filter id="e" color-interpolation-filters="sRGB" filterUnits="userSpaceOnUse" height="13.7656" width="6.59375" x="12.8411" y="15.2762"><feFlood flood-opacity="0" result="BackgroundImageFix"/><feBlend in="SourceGraphic" in2="BackgroundImageFix" mode="normal" result="shape"/><feGaussianBlur result="effect1_foregroundBlur_4002_168" stdDeviation=".5"/></filter><filter id="f" color-interpolation-filters="sRGB" filterUnits="userSpaceOnUse" height="1.65393" width="1.40396" x="17.4041" y="4.81262"><feFlood flood-opacity="0" result="BackgroundImageFix"/><feBlend in="SourceGraphic" in2="BackgroundImageFix" mode="normal" result="shape"/><feColorMatrix in="SourceAlpha" result="hardAlpha" type="matrix" values="0 0 0 0 0 0 0 0 0 0 0 0 0 0 0 0 0 0 127 0"/><feOffset dy="-.25"/><feGaussianBlur stdDeviation=".25"/><feComposite in2="hardAlpha" k2="-1" k3="1" operator="arithmetic"/><feColorMatrix type="matrix" values="0 0 0 0 0.937255 0 0 0 0 0.576471 0 0 0 0 0.341176 0 0 0 1 0"/><feBlend in2="shape" mode="normal" result="effect1_innerShadow_4002_168"/></filter><filter id="g" color-interpolation-filters="sRGB" filterUnits="userSpaceOnUse" height="1.93713" width="1.93716" x="17.1375" y="4.7959"><feFlood flood-opacity="0" result="BackgroundImageFix"/><feBlend in="SourceGraphic" in2="BackgroundImageFix" mode="normal" result="shape"/><feGaussianBlur result="effect1_foregroundBlur_4002_168" stdDeviation=".25"/></filter><filter id="h" color-interpolation-filters="sRGB" filterUnits="userSpaceOnUse" height="1.43713" width="1.43716" x="13.2456" y="5.0459"><feFlood flood-opacity="0" result="BackgroundImageFix"/><feBlend in="SourceGraphic" in2="BackgroundImageFix" mode="normal" result="shape"/><feGaussianBlur result="effect1_foregroundBlur_4002_168" stdDeviation=".125"/></filter><filter id="i" color-interpolation-filters="sRGB" filterUnits="userSpaceOnUse" height="4.84512" width="4.44583" x="13.7771" y="3.6239"><feFlood flood-opacity="0" result="BackgroundImageFix"/><feBlend in="SourceGraphic" in2="BackgroundImageFix" mode="normal" result="shape"/><feColorMatrix in="SourceAlpha" result="hardAlpha" type="matrix" values="0 0 0 0 0 0 0 0 0 0 0 0 0 0 0 0 0 0 127 0"/><feOffset dy=".1"/><feGaussianBlur stdDeviation=".15"/><feComposite in2="hardAlpha" k2="-1" k3="1" operator="arithmetic"/><feColorMatrix type="matrix" values="0 0 0 0 0.92549 0 0 0 0 0.529412 0 0 0 0 0.137255 0 0 0 1 0"/><feBlend in2="shape" mode="normal" result="effect1_innerShadow_4002_168"/></filter><filter id="j" color-interpolation-filters="sRGB" filterUnits="userSpaceOnUse" height="2.16992" width="1.81897" x="15.0198" y="5.04419"><feFlood flood-opacity="0" result="BackgroundImageFix"/><feBlend in="SourceGraphic" in2="BackgroundImageFix" mode="normal" result="shape"/><feGaussianBlur result="effect1_foregroundBlur_4002_168" stdDeviation=".25"/></filter><filter id="k" color-interpolation-filters="sRGB" filterUnits="userSpaceOnUse" height="1.26992" width=".91897" x="15.5406" y="5.43376"><feFlood flood-opacity="0" result="BackgroundImageFix"/><feBlend in="SourceGraphic" in2="BackgroundImageFix" mode="normal" result="shape"/><feGaussianBlur result="effect1_foregroundBlur_4002_168" stdDeviation=".025"/></filter><filter id="l" color-interpolation-filters="sRGB" filterUnits="userSpaceOnUse" height=".891284" width="1.84075" x="15.0797" y="6.67612"><feFlood flood-opacity="0" result="BackgroundImageFix"/><feBlend in="SourceGraphic" in2="BackgroundImageFix" mode="normal" result="shape"/><feGaussianBlur result="effect1_foregroundBlur_4002_168" stdDeviation=".05"/></filter><filter id="m" color-interpolation-filters="sRGB" filterUnits="userSpaceOnUse" height=".560791" width="1.42214" x="16.2981" y="5.15186"><feFlood flood-opacity="0" result="BackgroundImageFix"/><feBlend in="SourceGraphic" in2="BackgroundImageFix" mode="normal" result="shape"/><feColorMatrix in="SourceAlpha" result="hardAlpha" type="matrix" values="0 0 0 0 0 0 0 0 0 0 0 0 0 0 0 0 0 0 127 0"/><feOffset dx="-.2"/><feGaussianBlur stdDeviation=".2"/><feComposite in2="hardAlpha" k2="-1" k3="1" operator="arithmetic"/><feColorMatrix type="matrix" values="0 0 0 0 0.141176 0 0 0 0 0.0862745 0 0 0 0 0.176471 0 0 0 1 0"/><feBlend in2="shape" mode="normal" result="effect1_innerShadow_4002_168"/></filter><filter id="n" color-interpolation-filters="sRGB" filterUnits="userSpaceOnUse" height=".560791" width="1.42214" x="14.2798" y="5.15186"><feFlood flood-opacity="0" result="BackgroundImageFix"/><feBlend in="SourceGraphic" in2="BackgroundImageFix" mode="normal" result="shape"/><feColorMatrix in="SourceAlpha" result="hardAlpha" type="matrix" values="0 0 0 0 0 0 0 0 0 0 0 0 0 0 0 0 0 0 127 0"/><feOffset dx=".2"/><feGaussianBlur stdDeviation=".125"/><feComposite in2="hardAlpha" k2="-1" k3="1" operator="arithmetic"/><feColorMatrix type="matrix" values="0 0 0 0 0.133333 0 0 0 0 0.0784314 0 0 0 0 0.168627 0 0 0 1 0"/><feBlend in2="shape" mode="normal" result="effect1_innerShadow_4002_168"/></filter><filter id="o" color-interpolation-filters="sRGB" filterUnits="userSpaceOnUse" height=".588672" width="1.18279" x="14.3389" y="4.41804"><feFlood flood-opacity="0" result="BackgroundImageFix"/><feBlend in="SourceGraphic" in2="BackgroundImageFix" mode="normal" result="shape"/><feColorMatrix in="SourceAlpha" result="hardAlpha" type="matrix" values="0 0 0 0 0 0 0 0 0 0 0 0 0 0 0 0 0 0 127 0"/><feOffset dx=".2" dy="-.2"/><feGaussianBlur stdDeviation=".15"/><feComposite in2="hardAlpha" k2="-1" k3="1" operator="arithmetic"/><feColorMatrix type="matrix" values="0 0 0 0 0.658824 0 0 0 0 0.270588 0 0 0 0 0.141176 0 0 0 1 0"/><feBlend in2="shape" mode="normal" result="effect1_innerShadow_4002_168"/></filter><filter id="p" color-interpolation-filters="sRGB" filterUnits="userSpaceOnUse" height=".588672" width="1.18279" x="16.7021" y="4.41804"><feFlood flood-opacity="0" result="BackgroundImageFix"/><feBlend in="SourceGraphic" in2="BackgroundImageFix" mode="normal" result="shape"/><feColorMatrix in="SourceAlpha" result="hardAlpha" type="matrix" values="0 0 0 0 0 0 0 0 0 0 0 0 0 0 0 0 0 0 127 0"/><feOffset dx=".2" dy="-.2"/><feGaussianBlur stdDeviation=".15"/><feComposite in2="hardAlpha" k2="-1" k3="1" operator="arithmetic"/><feColorMatrix type="matrix" values="0 0 0 0 0.658824 0 0 0 0 0.270588 0 0 0 0 0.141176 0 0 0 1 0"/><feBlend in2="shape" mode="normal" result="effect1_innerShadow_4002_168"/></filter><filter id="q" color-interpolation-filters="sRGB" filterUnits="userSpaceOnUse" height=".416309" width=".455829" x="16.5753" y="5.25596"><feFlood flood-opacity="0" result="BackgroundImageFix"/><feBlend in="SourceGraphic" in2="BackgroundImageFix" mode="normal" result="shape"/><feGaussianBlur result="effect1_foregroundBlur_4002_168" stdDeviation=".05"/></filter><filter id="r" color-interpolation-filters="sRGB" filterUnits="userSpaceOnUse" height=".623022" width=".613409" x="16.8854" y="5.23213"><feFlood flood-opacity="0" result="BackgroundImageFix"/><feBlend in="SourceGraphic" in2="BackgroundImageFix" mode="normal" result="shape"/><feGaussianBlur result="effect1_foregroundBlur_4002_168" stdDeviation=".1"/></filter><filter id="s" color-interpolation-filters="sRGB" filterUnits="userSpaceOnUse" height=".678076" width=".6547" x="14.947" y="5.20454"><feFlood flood-opacity="0" result="BackgroundImageFix"/><feBlend in="SourceGraphic" in2="BackgroundImageFix" mode="normal" result="shape"/><feGaussianBlur result="effect1_foregroundBlur_4002_168" stdDeviation=".1"/></filter><filter id="t" color-interpolation-filters="sRGB" filterUnits="userSpaceOnUse" height=".419971" width=".510791" x="14.6742" y="5.25229"><feFlood flood-opacity="0" result="BackgroundImageFix"/><feBlend in="SourceGraphic" in2="BackgroundImageFix" mode="normal" result="shape"/><feGaussianBlur result="effect1_foregroundBlur_4002_168" stdDeviation=".05"/></filter><filter id="u" color-interpolation-filters="sRGB" filterUnits="userSpaceOnUse" height=".464648" width="1.02373" x="16.6962" y="4.56492"><feFlood flood-opacity="0" result="BackgroundImageFix"/><feBlend in="SourceGraphic" in2="BackgroundImageFix" mode="normal" result="shape"/><feGaussianBlur result="effect1_foregroundBlur_4002_168" stdDeviation=".05"/></filter><filter id="v" color-interpolation-filters="sRGB" filterUnits="userSpaceOnUse" height=".464648" width="1.02373" x="14.3187" y="4.56492"><feFlood flood-opacity="0" result="BackgroundImageFix"/><feBlend in="SourceGraphic" in2="BackgroundImageFix" mode="normal" result="shape"/><feGaussianBlur result="effect1_foregroundBlur_4002_168" stdDeviation=".05"/></filter><filter id="w" color-interpolation-filters="sRGB" filterUnits="userSpaceOnUse" height="2.12012" width="2.02051" x="13.1509" y="2.66748"><feFlood flood-opacity="0" result="BackgroundImageFix"/><feBlend in="SourceGraphic" in2="BackgroundImageFix" mode="normal" result="shape"/><feGaussianBlur result="effect1_foregroundBlur_4002_168" stdDeviation=".125"/></filter><filter id="x" color-interpolation-filters="sRGB" filterUnits="userSpaceOnUse" height="2.60347" width="3.97075" x="14.5121" y="2.20107"><feFlood flood-opacity="0" result="BackgroundImageFix"/><feBlend in="SourceGraphic" in2="BackgroundImageFix" mode="normal" result="shape"/><feGaussianBlur result="effect1_foregroundBlur_4002_168" stdDeviation=".075"/></filter><filter id="y" color-interpolation-filters="sRGB" filterUnits="userSpaceOnUse" height="1.34509" width=".837402" x="14.4388" y="2.6106"><feFlood flood-opacity="0" result="BackgroundImageFix"/><feBlend in="SourceGraphic" in2="BackgroundImageFix" mode="normal" result="shape"/><feGaussianBlur result="effect1_foregroundBlur_4002_168" stdDeviation=".125"/></filter><radialGradient id="z" cx="0" cy="0" gradientTransform="matrix(-2.31244606 6.43751608 -6.13870014 -2.20510719 18.0796 3.08871)" gradientUnits="userSpaceOnUse" r="1"><stop offset=".496786" stop-color="#ffd13c"/><stop offset=".799723" stop-color="#f79929"/></radialGradient><radialGradient id="A" cx="0" cy="0" gradientTransform="matrix(.52343575 -1.04687383 .68749998 .34374922 13.7671 5.08871)" gradientUnits="userSpaceOnUse" r="1"><stop offset=".373134" stop-color="#df7916"/><stop offset="1" stop-color="#df7916" stop-opacity="0"/></radialGradient><radialGradient id="B" cx="0" cy="0" gradientTransform="matrix(.60937386 .89062149 -2.08988293 1.42992286 14.7358 2.55746)" gradientUnits="userSpaceOnUse" r="1"><stop offset=".230818" stop-color="#cc9f38"/><stop offset="1" stop-color="#cc9f38" stop-opacity="0"/></radialGradient><linearGradient id="C" gradientUnits="userSpaceOnUse" x1="16" x2="16" y1="8.93246" y2="8.05746"><stop offset="0" stop-color="#9d4a0e"/><stop offset="1" stop-color="#e37123" stop-opacity="0"/></linearGradient><radialGradient id="D" cx="0" cy="0" gradientTransform="matrix(-1.84375 0 0 -12.369 13.3567 16.5246)" gradientUnits="userSpaceOnUse" r="1"><stop offset=".1375" stop-color="#e97a06"/><stop offset="1" stop-color="#f2a31f" stop-opacity="0"/></radialGradient><radialGradient id="E" cx="0" cy="0" gradientTransform="matrix(.12500232 3.21875364 -.73141065 .02840479 13.2786 16.7919)" gradientUnits="userSpaceOnUse" r="1"><stop offset=".0215009" stop-color="#ad6605"/><stop offset="1" stop-color="#d58816" stop-opacity="0"/></radialGradient><radialGradient id="F" cx="0" cy="0" gradientTransform="matrix(-.50769214 -1.98437411 .99334477 -.25414226 12.9661 20.3544)" gradientUnits="userSpaceOnUse" r="1"><stop offset="0" stop-color="#c2821c"/><stop offset="1" stop-color="#eda82d" stop-opacity="0"/></radialGradient><radialGradient id="G" cx="0" cy="0" gradientTransform="matrix(1.60938 0 0 15.4135 18.8723 16.5246)" gradientUnits="userSpaceOnUse" r="1"><stop offset=".101266" stop-color="#f88e01"/><stop offset="1" stop-color="#fcb726" stop-opacity="0"/></radialGradient><radialGradient id="H" cx="0" cy="0" gradientTransform="matrix(.71875 0 0 4.57812 18.6692 17.0419)" gradientUnits="userSpaceOnUse" r="1"><stop offset=".0869564" stop-color="#bc7a0b"/><stop offset="1" stop-color="#d0910c" stop-opacity="0"/></radialGradient><radialGradient id="I" cx="0" cy="0" gradientTransform="matrix(.57812543 -1.70312214 .46444137 .15765479 19.0129 20.4169)" gradientUnits="userSpaceOnUse" r="1"><stop offset="0" stop-color="#cc952b"/><stop offset="1" stop-color="#cc952b" stop-opacity="0"/></radialGradient><radialGradient id="J" cx="0" cy="0" gradientTransform="matrix(-1.98267 0 0 -3.69141 13.5129 12.4169)" gradientUnits="userSpaceOnUse" r="1"><stop offset=".638345" stop-color="#84749d" stop-opacity="0"/><stop offset="1" stop-color="#84749d"/></radialGradient><radialGradient id="K" cx="0" cy="0" gradientTransform="matrix(-1.51586551 1.2382935 -.95062679 -1.16371632 14.562 8.72546)" gradientUnits="userSpaceOnUse" r="1"><stop offset="0" stop-color="#765887"/><stop offset="1" stop-color="#765887" stop-opacity="0"/></radialGradient><linearGradient id="L" gradientUnits="userSpaceOnUse" x1="12.4661" x2="12.4661" y1="12.6747" y2="12.1981"><stop offset="0" stop-color="#684082"/><stop offset="1" stop-color="#6e498e" stop-opacity="0"/></linearGradient><radialGradient id="M" cx="0" cy="0" gradientTransform="matrix(.87499985 -.31249953 1.29629613 3.62963397 18.7942 11.87)" gradientUnits="userSpaceOnUse" r="1"><stop offset=".251131" stop-color="#674ea1"/><stop offset="1" stop-color="#8065b2" stop-opacity="0"/></radialGradient><linearGradient id="N" gradientUnits="userSpaceOnUse" x1="19.7473" x2="19.7473" y1="12.6747" y2="12.4364"><stop offset="0" stop-color="#6d4ca1"/><stop offset="1" stop-color="#7055a4" stop-opacity="0"/></linearGradient><linearGradient id="O" gradientUnits="userSpaceOnUse" x1="13.3411" x2="13.5676" y1="24.12" y2="24.1122"><stop offset="0" stop-color="#a5949b"/><stop offset="1" stop-color="#a5949b" stop-opacity="0"/></linearGradient><linearGradient id="P" gradientUnits="userSpaceOnUse" x1="16" x2="16" y1="15.9052" y2="16.3387"><stop offset="0" stop-color="#966d92"/><stop offset="1" stop-color="#966d92" stop-opacity="0"/></linearGradient><radialGradient id="Q" cx="0" cy="0" gradientTransform="matrix(0 -.359375 1.91919 0 16 17.995)" gradientUnits="userSpaceOnUse" r="1"><stop offset="0" stop-color="#8560a3"/><stop offset="1" stop-color="#867081" stop-opacity="0"/></radialGradient><linearGradient id="R"><stop offset="0" stop-color="#aa9ba7"/><stop offset="1" stop-color="#aa9ba7" stop-opacity="0"/></linearGradient><radialGradient id="S" cx="0" cy="0" gradientTransform="matrix(0 -.269531 1.85938 0 18.0754 28.3583)" gradientUnits="userSpaceOnUse" r="1" xlink:href="#R"/><radialGradient id="T" cx="0" cy="0" gradientTransform="matrix(0 -.328125 1.20581 0 14.7942 28.4481)" gradientUnits="userSpaceOnUse" r="1" xlink:href="#R"/><linearGradient id="U" gradientUnits="userSpaceOnUse" x1="16" x2="16" y1="8.995" y2="15.9559"><stop offset="0" stop-color="#9d6ec3"/><stop offset="1" stop-color="#825ab8"/></linearGradient><radialGradient id="V" cx="0" cy="0" gradientTransform="matrix(-1.93749598 1.62500318 -2.522137 -3.00715122 18.4036 9.65125)" gradientUnits="userSpaceOnUse" r="1"><stop offset="0" stop-color="#a282d2"/><stop offset="1" stop-color="#a282d2" stop-opacity="0"/></radialGradient><linearGradient id="W" gradientUnits="userSpaceOnUse" x1="17.1733" x2="17.1733" y1="15.9559" y2="15.62"><stop offset=".116279" stop-color="#6c4a9f"/><stop offset="1" stop-color="#8761b9" stop-opacity="0"/></linearGradient><radialGradient id="X" cx="0" cy="0" gradientTransform="matrix(-1.23437168 -7.85937703 10.48665099 -1.64700395 16.4233 15.8387)" gradientUnits="userSpaceOnUse" r="1"><stop offset=".849882" stop-color="#733b64" stop-opacity="0"/><stop offset=".966845" stop-color="#4f2646"/></radialGradient><radialGradient id="Y" cx="0" cy="0" gradientTransform="matrix(0 1.11133 -1.40894 0 16 8.37976)" gradientUnits="userSpaceOnUse" r="1"><stop offset=".637961" stop-color="#fa9e1e"/><stop offset="1" stop-color="#ffb614"/></radialGradient><linearGradient id="Z" gradientUnits="userSpaceOnUse" x1="18.2473" x2="16.5" y1="29.62" y2="29.4169"><stop offset="0" stop-color="#5a3f7c"/><stop offset="1" stop-color="#462f5e"/></linearGradient><radialGradient id="aa" cx="0" cy="0" gradientTransform="matrix(-1.66284028 -.843753 .32902774 -.6484369 19.5664 29.3075)" gradientUnits="userSpaceOnUse" r="1"><stop offset="0" stop-color="#635185"/><stop offset="1" stop-color="#635185" stop-opacity="0"/></radialGradient><linearGradient id="ab" gradientUnits="userSpaceOnUse" x1="13.2539" x2="14.5449" y1="5.80263" y2="5.80263"><stop offset="0" stop-color="#e79b27"/><stop offset="1" stop-color="#b96201"/></linearGradient><radialGradient id="ac" cx="0" cy="0" gradientTransform="matrix(1.08586654 -.49357673 .60263469 1.32579354 17.7624 5.95618)" gradientUnits="userSpaceOnUse" r="1"><stop offset=".572298" stop-color="#ffc531"/><stop offset=".904617" stop-color="#ffe549"/></radialGradient><radialGradient id="ad" cx="0" cy="0" gradientTransform="matrix(.53379275 -.19743052 .19743052 .53379275 18.0037 5.86833)" gradientUnits="userSpaceOnUse" r="1"><stop offset=".71002" stop-color="#ffba25" stop-opacity="0"/><stop offset="1" stop-color="#ffba25"/></radialGradient><radialGradient id="ae" cx="0" cy="0" gradientTransform="matrix(-.468588 0 0 -.448234 13.9642 5.76449)" gradientUnits="userSpaceOnUse" r="1"><stop offset=".415002" stop-color="#d67923" stop-opacity="0"/><stop offset="1" stop-color="#d67923"/></radialGradient><radialGradient id="af" cx="0" cy="0" gradientTransform="matrix(-2.83722921 1.30834086 -1.75119085 -3.79758058 17.2474 5.53005)" gradientUnits="userSpaceOnUse" r="1"><stop offset="0" stop-color="#ffe644"/><stop offset="1" stop-color="#f0a024"/></radialGradient><radialGradient id="ag" cx="0" cy="0" gradientTransform="matrix(-.92038961 .48682771 -.41303699 -.78088192 16.829 5.83431)" gradientUnits="userSpaceOnUse" r="1"><stop offset="0" stop-color="#ffe842"/><stop offset="1" stop-color="#ffe842" stop-opacity="0"/></radialGradient><radialGradient id="ah" cx="0" cy="0" gradientTransform="matrix(.36511448 -1.76471521 2.23909829 .46326297 15.0491 8.48899)" gradientUnits="userSpaceOnUse" r="1"><stop offset="0" stop-color="#e4883f"/><stop offset="1" stop-color="#e4883f" stop-opacity="0"/></radialGradient><radialGradient id="ai" cx="0" cy="0" gradientTransform="matrix(0 3.24601 -5.15554 0 15.8858 5.31905)" gradientUnits="userSpaceOnUse" r="1"><stop offset=".699218" stop-color="#f3943b" stop-opacity="0"/><stop offset="1" stop-color="#d58820"/></radialGradient><radialGradient id="aj" cx="0" cy="0" gradientTransform="matrix(-2.36562439 .65417863 -1.12629462 -4.07287846 16.2738 6.25267)" gradientUnits="userSpaceOnUse" r="1"><stop offset=".876514" stop-color="#d4993e" stop-opacity="0"/><stop offset="1" stop-color="#d4993e"/></radialGradient><radialGradient id="ak" cx="0" cy="0" gradientTransform="matrix(0 -.502031 .616129 0 17.004 5.34749)" gradientUnits="userSpaceOnUse" r="1"><stop offset="0" stop-color="#ffbb31"/><stop offset="1" stop-color="#ffbb31" stop-opacity="0"/></radialGradient><radialGradient id="al" cx="0" cy="0" gradientTransform="matrix(0 -.59331 .679973 0 15.1632 5.38553)" gradientUnits="userSpaceOnUse" r="1"><stop offset="0" stop-color="#f09429"/><stop offset="1" stop-color="#f09429" stop-opacity="0"/></radialGradient><radialGradient id="am" cx="0" cy="0" gradientTransform="matrix(-.587617 0 0 -1.93445 18.2229 5.99644)" gradientUnits="userSpaceOnUse" r="1"><stop offset="0" stop-color="#ffda39"/><stop offset="1" stop-color="#ffda39" stop-opacity="0"/></radialGradient><linearGradient id="an" gradientUnits="userSpaceOnUse" x1="16.0001" x2="16.0001" y1="6.65372" y2="5.48376"><stop offset="0" stop-color="#ffc134"/><stop offset="1" stop-color="#f8c73f"/></linearGradient><radialGradient id="ao" cx="0" cy="0" gradientTransform="matrix(-.30427153 -1.06871982 .6115331 -.17410748 16.3423 6.31353)" gradientUnits="userSpaceOnUse" r="1"><stop offset=".0168227" stop-color="#ffe848"/><stop offset="1" stop-color="#ffe848" stop-opacity="0"/></radialGradient><linearGradient id="ap" gradientUnits="userSpaceOnUse" x1="15.5436" x2="15.9163" y1="6.32114" y2="6.36678"><stop offset="0" stop-color="#f8a322"/><stop offset="1" stop-color="#f8a322" stop-opacity="0"/></linearGradient><linearGradient id="aq" gradientUnits="userSpaceOnUse" x1="16.0001" x2="16.0001" y1="6.69386" y2="6.42763"><stop offset="0" stop-color="#e48538"/><stop offset="1" stop-color="#e48538" stop-opacity="0"/></linearGradient><linearGradient id="ar" gradientUnits="userSpaceOnUse" x1="15.682" x2="15.8795" y1="7.33814" y2="6.9579"><stop offset="0" stop-color="#feac35"/><stop offset="1" stop-color="#feac35" stop-opacity="0"/></linearGradient><linearGradient id="as"><stop offset=".80198" stop-color="#925c51"/><stop offset="1" stop-color="#694b43"/><stop offset="1" stop-color="#804d49"/><stop offset="1" stop-color="#85534d"/></linearGradient><radialGradient id="at" cx="0" cy="0" gradientTransform="matrix(0 .353539 -.562343 0 16.9515 5.50389)" gradientUnits="userSpaceOnUse" r="1" xlink:href="#as"/><linearGradient id="au"><stop offset=".765532" stop-color="#ffe6e2" stop-opacity="0"/><stop offset=".966159" stop-color="#ffe6e2"/></linearGradient><radialGradient id="av" cx="0" cy="0" gradientTransform="matrix(-.10109382 -.13027302 .17935422 -.13918156 16.8522 5.54076)" gradientUnits="userSpaceOnUse" r="1" xlink:href="#au"/><linearGradient id="aw"><stop offset="0" stop-color="#b4948d"/><stop offset="1" stop-color="#b4948d" stop-opacity="0"/></linearGradient><linearGradient id="ax" gradientUnits="userSpaceOnUse" x1="17.2906" x2="17.1543" xlink:href="#aw" y1="5.52712" y2="5.61111"/><radialGradient id="ay" cx="0" cy="0" gradientTransform="matrix(0 .353541 -.562347 0 15.0477 5.50377)" gradientUnits="userSpaceOnUse" r="1" xlink:href="#as"/><linearGradient id="az" gradientUnits="userSpaceOnUse" x1="15.3715" x2="15.2352" xlink:href="#aw" y1="5.52707" y2="5.61105"/><radialGradient id="aA" cx="0" cy="0" gradientTransform="matrix(-.00337191 -.2153626 .25887527 -.00405318 14.923 5.59953)" gradientUnits="userSpaceOnUse" r="1" xlink:href="#au"/><radialGradient id="aB" cx="0" cy="0" gradientTransform="matrix(-1.49170339 1.80611006 -.78770202 -.65057927 14.8154 2.73142)" gradientUnits="userSpaceOnUse" r="1"><stop offset=".395696" stop-color="#ee971b" stop-opacity="0"/><stop offset=".911046" stop-color="#d8772c"/></radialGradient><radialGradient id="aC" cx="0" cy="0" gradientTransform="matrix(-1.35360523 .9670151 -.47791196 -.66897004 14.7545 2.97019)" gradientUnits="userSpaceOnUse" r="1"><stop offset=".120488" stop-color="#ffca2d"/><stop offset="1" stop-color="#ffe134" stop-opacity="0"/><stop offset="1" stop-color="#ffca2d" stop-opacity="0"/></radialGradient><radialGradient id="aD" cx="0" cy="0" gradientTransform="matrix(-.95337056 1.98716703 -2.82145026 -1.35362935 16.7817 2.2199)" gradientUnits="userSpaceOnUse" r="1"><stop offset=".627022" stop-color="#f49523" stop-opacity="0"/><stop offset="1" stop-color="#f49523"/></radialGradient><radialGradient id="aE" cx="0" cy="0" gradientTransform="matrix(-.41136827 1.44325905 -3.02460836 -.86209603 17.0947 2.76666)" gradientUnits="userSpaceOnUse" r="1"><stop offset=".131886" stop-color="#ffe337"/><stop offset="1" stop-color="#ffe337" stop-opacity="0"/></radialGradient><radialGradient id="aF" cx="0" cy="0" gradientTransform="matrix(-1.49060866 -2.82145896 2.52221371 -1.33251401 16.5018 5.2234)" gradientUnits="userSpaceOnUse" r="1"><stop offset=".897563" stop-color="#ca9b37" stop-opacity="0"/><stop offset="1" stop-color="#ca9b37"/></radialGradient><linearGradient id="aG" gradientUnits="userSpaceOnUse" x1="14.7388" x2="14.9761" y1="3.06037" y2="3.61547"><stop offset="0" stop-color="#faa719"/><stop offset="1" stop-color="#db6008"/></linearGradient><g clip-rule="evenodd" fill-rule="evenodd" filter="url(#a)"><path d="m19.1346 6.37953c.0927-.18984.1413-.40176.1413-.6225 0-.20387-.042-.39516-.1172-.56953h.0023c-.035-.07896-.0745-.15356-.1226-.2238l-.0009-.00136c-.1501-.22958-.2296-.49889-.2296-.77261v-.00442c0-.79469-.6446-1.43927-1.4393-1.43927-.0794 0-.1545-.03532-.1986-.10154-.2605-.36203-.6888-.60043-1.17-.60043-.4813 0-.9095.2384-1.17.60043-.0442.06181-.1192.10154-.1987.10154-.0124 0-.0247.00016-.0371.00047-.7775.01969-1.4021.65651-1.4021 1.4388v.00442c0 .27372-.0795.54303-.2296.77261l-.001.0016c-.1495.22923-.2374.49797-.2374.79309 0 .22516.053.43266.1413.6225.0309.06181.0309.13686 0 .19867-.0883.18543-.1413.39293-.1413.61368 0 .77703.6269 1.40395 1.404 1.40395h3.7438c.7771 0 1.404-.62692 1.404-1.40395 0-.22075-.053-.42825-.1413-.61368-.0309-.06181-.0309-.13686 0-.19867zm-5.3486-1.16585h-.0053l.5229 1.02762c.0538 1.22261.5309 0 1.6964 0 1.1654 0 1.6736 1.36085 1.7274.13823l.4955-1.39477c-.0234-.54307-.417-.58118-.4955-.58118h-1.4048c-.5547 0-1.0781-.27152-1.3913-.72999-.0537-.07567-.1655-.06231-.2013.02226l-.0358.08457c-.0984.24481-.2863.43176-.519.53859-.0067.00222-.0145.00556-.0223.0089-.0079.00334-.0157.00668-.0224.0089-.1029.05341-.3445.21365-.3534.62761l.0045.13353z" fill="url(#z)"/><path d="m19.1346 6.37953c.0927-.18984.1413-.40176.1413-.6225 0-.20387-.042-.39516-.1172-.56953h.0023c-.035-.07896-.0745-.15356-.1226-.2238l-.0009-.00136c-.1501-.22958-.2296-.49889-.2296-.77261v-.00442c0-.79469-.6446-1.43927-1.4393-1.43927-.0794 0-.1545-.03532-.1986-.10154-.2605-.36203-.6888-.60043-1.17-.60043-.4813 0-.9095.2384-1.17.60043-.0442.06181-.1192.10154-.1987.10154-.0124 0-.0247.00016-.0371.00047-.7775.01969-1.4021.65651-1.4021 1.4388v.00442c0 .27372-.0795.54303-.2296.77261l-.001.0016c-.1495.22923-.2374.49797-.2374.79309 0 .22516.053.43266.1413.6225.0309.06181.0309.13686 0 .19867-.0883.18543-.1413.39293-.1413.61368 0 .77703.6269 1.40395 1.404 1.40395h3.7438c.7771 0 1.404-.62692 1.404-1.40395 0-.22075-.053-.42825-.1413-.61368-.0309-.06181-.0309-.13686 0-.19867zm-5.3486-1.16585h-.0053l.5229 1.02762c.0538 1.22261.5309 0 1.6964 0 1.1654 0 1.6736 1.36085 1.7274.13823l.4955-1.39477c-.0234-.54307-.417-.58118-.4955-.58118h-1.4048c-.5547 0-1.0781-.27152-1.3913-.72999-.0537-.07567-.1655-.06231-.2013.02226l-.0358.08457c-.0984.24481-.2863.43176-.519.53859-.0067.00222-.0145.00556-.0223.0089-.0079.00334-.0157.00668-.0224.0089-.1029.05341-.3445.21365-.3534.62761l.0045.13353z" fill="url(#A)"/><path d="m19.1346 6.37953c.0927-.18984.1413-.40176.1413-.6225 0-.20387-.042-.39516-.1172-.56953h.0023c-.035-.07896-.0745-.15356-.1226-.2238l-.0009-.00136c-.1501-.22958-.2296-.49889-.2296-.77261v-.00442c0-.79469-.6446-1.43927-1.4393-1.43927-.0794 0-.1545-.03532-.1986-.10154-.2605-.36203-.6888-.60043-1.17-.60043-.4813 0-.9095.2384-1.17.60043-.0442.06181-.1192.10154-.1987.10154-.0124 0-.0247.00016-.0371.00047-.7775.01969-1.4021.65651-1.4021 1.4388v.00442c0 .27372-.0795.54303-.2296.77261l-.001.0016c-.1495.22923-.2374.49797-.2374.79309 0 .22516.053.43266.1413.6225.0309.06181.0309.13686 0 .19867-.0883.18543-.1413.39293-.1413.61368 0 .77703.6269 1.40395 1.404 1.40395h3.7438c.7771 0 1.404-.62692 1.404-1.40395 0-.22075-.053-.42825-.1413-.61368-.0309-.06181-.0309-.13686 0-.19867zm-5.3486-1.16585h-.0053l.5229 1.02762c.0538 1.22261.5309 0 1.6964 0 1.1654 0 1.6736 1.36085 1.7274.13823l.4955-1.39477c-.0234-.54307-.417-.58118-.4955-.58118h-1.4048c-.5547 0-1.0781-.27152-1.3913-.72999-.0537-.07567-.1655-.06231-.2013.02226l-.0358.08457c-.0984.24481-.2863.43176-.519.53859-.0067.00222-.0145.00556-.0223.0089-.0079.00334-.0157.00668-.0224.0089-.1029.05341-.3445.21365-.3534.62761l.0045.13353z" fill="url(#B)"/></g><path clip-rule="evenodd" d="m19.1346 6.37953c.0927-.18984.1413-.40176.1413-.6225 0-.20387-.042-.39516-.1172-.56953h.0023c-.035-.07896-.0745-.15356-.1226-.2238l-.0009-.00136c-.1501-.22958-.2296-.49889-.2296-.77261v-.00442c0-.79469-.6446-1.43927-1.4393-1.43927-.0794 0-.1545-.03532-.1986-.10154-.2605-.36203-.6888-.60043-1.17-.60043-.4813 0-.9095.2384-1.17.60043-.0442.06181-.1192.10154-.1987.10154-.0124 0-.0247.00016-.0371.00047-.7775.01969-1.4021.65651-1.4021 1.4388v.00442c0 .27372-.0795.54303-.2296.77261l-.001.0016c-.1495.22923-.2374.49797-.2374.79309 0 .22516.053.43266.1413.6225.0309.06181.0309.13686 0 .19867-.0883.18543-.1413.39293-.1413.61368 0 .77703.6269 1.40395 1.404 1.40395h3.7438c.7771 0 1.404-.62692 1.404-1.40395 0-.22075-.053-.42825-.1413-.61368-.0309-.06181-.0309-.13686 0-.19867zm-5.3486-1.16585h-.0053l.5229 1.02762c.0538 1.22261.5309 0 1.6964 0 1.1654 0 1.6736 1.36085 1.7274.13823l.4955-1.39477c-.0234-.54307-.417-.58118-.4955-.58118h-1.4048c-.5547 0-1.0781-.27152-1.3913-.72999-.0537-.07567-.1655-.06231-.2013.02226l-.0358.08457c-.0984.24481-.2863.43176-.519.53859-.0067.00222-.0145.00556-.0223.0089-.0079.00334-.0157.00668-.0224.0089-.1029.05341-.3445.21365-.3534.62761l.0045.13353z" fill="url(#C)" fill-rule="evenodd"/><path d="m12.6675 19.0536c-.0844-.0906-.0638-.1966-.043-.2383h-.4375l.3203.9961c.2617.0781.5391.0508.5899-.1133.0406-.1312-.0274-.2539-.0743-.3008-.0833-.0768-.271-.2531-.3554-.3437z" fill="#bf8011"/><path d="m19.3325 19.0536c.0844-.0906.0638-.1966.043-.2383h.4375l-.3203.9961c-.2617.0781-.5391.0508-.5899-.1133-.0406-.1312.0274-.2539.0743-.3008.0833-.0768.271-.2531.3554-.3437z" fill="#c78e18"/><path d="m12.1118 20.3343c-.9379-1.9819-.7687-6.2587-.4873-7.8237h1.6719c-.0717 2.4256.0394 5.2431.1779 6.5114.0112.1032.0833.2142 0 .2761-.1494.111-.3632.0549-.4388-.1151l-.1167-.2624c-.0384-.0863-.1361-.1294-.2257-.0995-.0848.0282-.1371.1133-.1193.2009.0607.2994.1715.6781.2639.9732.0649.2072-.0375.4307-.2385.5128-.1862.0759-.4014.008-.4874-.1737z" fill="#eaae34"/><path d="m12.1118 20.3343c-.9379-1.9819-.7687-6.2587-.4873-7.8237h1.6719c-.0717 2.4256.0394 5.2431.1779 6.5114.0112.1032.0833.2142 0 .2761-.1494.111-.3632.0549-.4388-.1151l-.1167-.2624c-.0384-.0863-.1361-.1294-.2257-.0995-.0848.0282-.1371.1133-.1193.2009.0607.2994.1715.6781.2639.9732.0649.2072-.0375.4307-.2385.5128-.1862.0759-.4014.008-.4874-.1737z" fill="url(#D)"/><path d="m12.1118 20.3343c-.9379-1.9819-.7687-6.2587-.4873-7.8237h1.6719c-.0717 2.4256.0394 5.2431.1779 6.5114.0112.1032.0833.2142 0 .2761-.1494.111-.3632.0549-.4388-.1151l-.1167-.2624c-.0384-.0863-.1361-.1294-.2257-.0995-.0848.0282-.1371.1133-.1193.2009.0607.2994.1715.6781.2639.9732.0649.2072-.0375.4307-.2385.5128-.1862.0759-.4014.008-.4874-.1737z" fill="url(#E)"/><path d="m12.1118 20.3343c-.9379-1.9819-.7687-6.2587-.4873-7.8237h1.6719c-.0717 2.4256.0394 5.2431.1779 6.5114.0112.1032.0833.2142 0 .2761-.1494.111-.3632.0549-.4388-.1151l-.1167-.2624c-.0384-.0863-.1361-.1294-.2257-.0995-.0848.0282-.1371.1133-.1193.2009.0607.2994.1715.6781.2639.9732.0649.2072-.0375.4307-.2385.5128-.1862.0759-.4014.008-.4874-.1737z" fill="url(#F)"/><path d="m19.8882 20.3343c.9379-1.9819.7687-6.2587.4873-7.8237h-1.6719c.0717 2.4256-.1554 5.2537-.2939 6.5221-.0113.1031.0327.2035.1161.2654.1493.111.3631.0549.4387-.1151l.1168-.2624c.0384-.0863.136-.1294.2256-.0995.0848.0282.1371.1133.1194.2009-.0608.2994-.1716.6781-.264.9732-.0649.2072.0375.4307.2385.5128.1862.0759.4014.008.4874-.1737z" fill="#ffcc2d"/><path d="m19.8882 20.3343c.9379-1.9819.7687-6.2587.4873-7.8237h-1.6719c.0717 2.4256-.1554 5.2537-.2939 6.5221-.0113.1031.0327.2035.1161.2654.1493.111.3631.0549.4387-.1151l.1168-.2624c.0384-.0863.136-.1294.2256-.0995.0848.0282.1371.1133.1194.2009-.0608.2994-.1716.6781-.264.9732-.0649.2072.0375.4307.2385.5128.1862.0759.4014.008.4874-.1737z" fill="url(#G)"/><path d="m19.8882 20.3343c.9379-1.9819.7687-6.2587.4873-7.8237h-1.6719c.0717 2.4256-.1554 5.2537-.2939 6.5221-.0113.1031.0327.2035.1161.2654.1493.111.3631.0549.4387-.1151l.1168-.2624c.0384-.0863.136-.1294.2256-.0995.0848.0282.1371.1133.1194.2009-.0608.2994-.1716.6781-.264.9732-.0649.2072.0375.4307.2385.5128.1862.0759.4014.008.4874-.1737z" fill="url(#H)"/><path d="m19.8882 20.3343c.9379-1.9819.7687-6.2587.4873-7.8237h-1.6719c.0717 2.4256-.1554 5.2537-.2939 6.5221-.0113.1031.0327.2035.1161.2654.1493.111.3631.0549.4387-.1151l.1168-.2624c.0384-.0863.136-.1294.2256-.0995.0848.0282.1371.1133.1194.2009-.0608.2994-.1716.6781-.264.9732-.0649.2072.0375.4307.2385.5128.1862.0759.4014.008.4874-.1737z" fill="url(#I)"/><path d="m11.5325 12.5543c.4862-2.2538 1.6285-3.33367 3.0296-3.82884v3.94924h-2.9325c-.0632 0-.1104-.0587-.0971-.1204z" fill="#7c5897"/><path d="m11.5325 12.5543c.4862-2.2538 1.6285-3.33367 3.0296-3.82884v3.94924h-2.9325c-.0632 0-.1104-.0587-.0971-.1204z" fill="url(#J)"/><path d="m11.5325 12.5543c.4862-2.2538 1.6285-3.33367 3.0296-3.82884v3.94924h-2.9325c-.0632 0-.1104-.0587-.0971-.1204z" fill="url(#K)"/><path d="m11.5325 12.5543c.4862-2.2538 1.6285-3.33367 3.0296-3.82884v3.94924h-2.9325c-.0632 0-.1104-.0587-.0971-.1204z" fill="url(#L)"/><path d="m20.4675 12.5543c-.4862-2.2538-1.6285-3.33367-3.0295-3.82884v3.94924h2.9324c.0632 0 .1104-.0587.0971-.1204z" fill="#957fc5"/><path d="m20.4675 12.5543c-.4862-2.2538-1.6285-3.33367-3.0295-3.82884v3.94924h2.9324c.0632 0 .1104-.0587.0971-.1204z" fill="url(#M)"/><path d="m20.4675 12.5543c-.4862-2.2538-1.6285-3.33367-3.0295-3.82884v3.94924h2.9324c.0632 0 .1104-.0587.0971-.1204z" fill="url(#N)"/><g filter="url(#b)"><path d="m13.0156 15.9052.4844 12.4531h2l.2383-9.5235c0-.3281.0285-.8593.2617-.8593.2122 0 .2631.5547.2617.8593l.2383 9.5235h2l.4844-12.4531z" fill="#a2859a"/></g><path d="m13.0156 15.9052.4844 12.4531h2l.2383-9.5235c0-.3281.0285-.8593.2617-.8593.2122 0 .2631.5547.2617.8593l.2383 9.5235h2l.4844-12.4531z" fill="url(#O)"/><path d="m13.0156 15.9052.4844 12.4531h2l.2383-9.5235c0-.3281.0285-.8593.2617-.8593.2122 0 .2631.5547.2617.8593l.2383 9.5235h2l.4844-12.4531z" fill="url(#P)"/><path d="m13.0156 15.9052.4844 12.4531h2l.2383-9.5235c0-.3281.0285-.8593.2617-.8593.2122 0 .2631.5547.2617.8593l.2383 9.5235h2l.4844-12.4531z" fill="url(#Q)"/><path d="m13.0156 15.9052.4844 12.4531h2l.2383-9.5235c0-.3281.0285-.8593.2617-.8593.2122 0 .2631.5547.2617.8593l.2383 9.5235h2l.4844-12.4531z" fill="url(#S)"/><path d="m13.0156 15.9052.4844 12.4531h2l.2383-9.5235c0-.3281.0285-.8593.2617-.8593.2122 0 .2631.5547.2617.8593l.2383 9.5235h2l.4844-12.4531z" fill="url(#T)"/><g filter="url(#c)"><path d="m12.9414 11.4208c0-1.68924 1.3694-3.05862 3.0586-3.05862s3.0586 1.36938 3.0586 3.05862v4.4414c0 .0518-.042.0937-.0938.0937h-5.9296c-.0518 0-.0938-.0419-.0938-.0937z" fill="url(#U)"/><path d="m12.9414 11.4208c0-1.68924 1.3694-3.05862 3.0586-3.05862s3.0586 1.36938 3.0586 3.05862v4.4414c0 .0518-.042.0937-.0938.0937h-5.9296c-.0518 0-.0938-.0419-.0938-.0937z" fill="url(#V)"/></g><path d="m12.9414 11.4208c0-1.68924 1.3694-3.05862 3.0586-3.05862s3.0586 1.36938 3.0586 3.05862v4.4414c0 .0518-.042.0937-.0938.0937h-5.9296c-.0518 0-.0938-.0419-.0938-.0937z" fill="url(#W)"/><path d="m12.9414 11.4208c0-1.68924 1.3694-3.05862 3.0586-3.05862s3.0586 1.36938 3.0586 3.05862v4.4414c0 .0518-.042.0937-.0938.0937h-5.9296c-.0518 0-.0938-.0419-.0938-.0937z" fill="url(#X)"/><path d="m15.1289 7.26843h1.7422v1.35157c0 .48109-.39.87109-.8711.87109s-.8711-.39-.8711-.87109z" fill="url(#Y)"/><g filter="url(#d)"><path d="m12.4336 29.7137v.2422h3.0664v-1.5976h-1.9923c-.1016.3672-.5741.7539-.8163.914-.1865.1234-.2578.3008-.2578.4414z" fill="#5d4480"/></g><path d="m19.5664 29.7137v.2422h-3.0664v-1.5976h1.9923c.1016.3672.5741.7539.8163.914.1865.1234.2578.3008.2578.4414z" fill="url(#Z)"/><path d="m19.5664 29.7137v.2422h-3.0664v-1.5976h1.9923c.1016.3672.5741.7539.8163.914.1865.1234.2578.3008.2578.4414z" fill="url(#aa)"/><g filter="url(#e)"><path d="m13.8411 16.2762.4687 11.7657h.8125v-10.6094h2.2031v10.6094h.6719l.4375-11.7657z" fill="#ac99aa"/></g><path d="m13.9559 6.46657c.3877 0 .702-.31428.702-.70197s-.3143-.70198-.702-.70198-.702.31429-.702.70198.3143.70197.702.70197z" fill="url(#ab)"/><g filter="url(#f)"><path d="m18.106 6.46657c.3877 0 .702-.31428.702-.70197s-.3143-.70198-.702-.70198-.7019.31429-.7019.70198.3142.70197.7019.70197z" fill="url(#ac)"/></g><g filter="url(#g)"><path d="m18.106 6.23307c.2588 0 .4686-.20979.4686-.46858 0-.2588-.2098-.46859-.4686-.46859s-.4685.20979-.4685.46859c0 .25879.2097.46858.4685.46858z" fill="#ffca38"/><path d="m18.106 6.23307c.2588 0 .4686-.20979.4686-.46858 0-.2588-.2098-.46859-.4686-.46859s-.4685.20979-.4685.46859c0 .25879.2097.46858.4685.46858z" fill="url(#ad)"/></g><g filter="url(#h)"><path d="m13.9642 6.23307c.2588 0 .4686-.20979.4686-.46858 0-.2588-.2098-.46859-.4686-.46859s-.4686.20979-.4686.46859c0 .25879.2098.46858.4686.46858z" fill="#e28527"/><path d="m13.9642 6.23307c.2588 0 .4686-.20979.4686-.46858 0-.2588-.2098-.46859-.4686-.46859s-.4686.20979-.4686.46859c0 .25879.2098.46858.4686.46858z" fill="url(#ae)"/></g><g filter="url(#i)"><path d="m13.7807 5.21369h.0053l-.0044-.11573-.0045-.13353c.0089-.41396.2505-.5742.3534-.62761.0067-.00223.0146-.00556.0224-.0089s.0157-.00668.0224-.0089c.2326-.10683.4205-.29378.5189-.53859l.0358-.08457c.0358-.08457.1476-.09793.2013-.02226.3132.45847.8366.72999 1.3914.72999h1.4047c.0786 0 .4721.03811.4955.58118l-.0518 1.34063c-.0538 1.22262-1.0085 2.04358-2.1739 2.04358-1.1655 0-2.1202-.82096-2.174-2.04358z" fill="url(#af)"/><path d="m13.7807 5.21369h.0053l-.0044-.11573-.0045-.13353c.0089-.41396.2505-.5742.3534-.62761.0067-.00223.0146-.00556.0224-.0089s.0157-.00668.0224-.0089c.2326-.10683.4205-.29378.5189-.53859l.0358-.08457c.0358-.08457.1476-.09793.2013-.02226.3132.45847.8366.72999 1.3914.72999h1.4047c.0786 0 .4721.03811.4955.58118l-.0518 1.34063c-.0538 1.22262-1.0085 2.04358-2.1739 2.04358-1.1655 0-2.1202-.82096-2.174-2.04358z" fill="url(#ag)"/><path d="m13.7807 5.21369h.0053l-.0044-.11573-.0045-.13353c.0089-.41396.2505-.5742.3534-.62761.0067-.00223.0146-.00556.0224-.0089s.0157-.00668.0224-.0089c.2326-.10683.4205-.29378.5189-.53859l.0358-.08457c.0358-.08457.1476-.09793.2013-.02226.3132.45847.8366.72999 1.3914.72999h1.4047c.0786 0 .4721.03811.4955.58118l-.0518 1.34063c-.0538 1.22262-1.0085 2.04358-2.1739 2.04358-1.1655 0-2.1202-.82096-2.174-2.04358z" fill="url(#ah)"/><path d="m13.7807 5.21369h.0053l-.0044-.11573-.0045-.13353c.0089-.41396.2505-.5742.3534-.62761.0067-.00223.0146-.00556.0224-.0089s.0157-.00668.0224-.0089c.2326-.10683.4205-.29378.5189-.53859l.0358-.08457c.0358-.08457.1476-.09793.2013-.02226.3132.45847.8366.72999 1.3914.72999h1.4047c.0786 0 .4721.03811.4955.58118l-.0518 1.34063c-.0538 1.22262-1.0085 2.04358-2.1739 2.04358-1.1655 0-2.1202-.82096-2.174-2.04358z" fill="url(#ai)"/><path d="m13.7807 5.21369h.0053l-.0044-.11573-.0045-.13353c.0089-.41396.2505-.5742.3534-.62761.0067-.00223.0146-.00556.0224-.0089s.0157-.00668.0224-.0089c.2326-.10683.4205-.29378.5189-.53859l.0358-.08457c.0358-.08457.1476-.09793.2013-.02226.3132.45847.8366.72999 1.3914.72999h1.4047c.0786 0 .4721.03811.4955.58118l-.0518 1.34063c-.0538 1.22262-1.0085 2.04358-2.1739 2.04358-1.1655 0-2.1202-.82096-2.174-2.04358z" fill="url(#aj)"/><path d="m13.7807 5.21369h.0053l-.0044-.11573-.0045-.13353c.0089-.41396.2505-.5742.3534-.62761.0067-.00223.0146-.00556.0224-.0089s.0157-.00668.0224-.0089c.2326-.10683.4205-.29378.5189-.53859l.0358-.08457c.0358-.08457.1476-.09793.2013-.02226.3132.45847.8366.72999 1.3914.72999h1.4047c.0786 0 .4721.03811.4955.58118l-.0518 1.34063c-.0538 1.22262-1.0085 2.04358-2.1739 2.04358-1.1655 0-2.1202-.82096-2.174-2.04358z" fill="url(#ak)"/><path d="m13.7807 5.21369h.0053l-.0044-.11573-.0045-.13353c.0089-.41396.2505-.5742.3534-.62761.0067-.00223.0146-.00556.0224-.0089s.0157-.00668.0224-.0089c.2326-.10683.4205-.29378.5189-.53859l.0358-.08457c.0358-.08457.1476-.09793.2013-.02226.3132.45847.8366.72999 1.3914.72999h1.4047c.0786 0 .4721.03811.4955.58118l-.0518 1.34063c-.0538 1.22262-1.0085 2.04358-2.1739 2.04358-1.1655 0-2.1202-.82096-2.174-2.04358z" fill="url(#al)"/></g><path d="m13.7807 5.21369h.0053l-.0044-.11573-.0045-.13353c.0089-.41396.2505-.5742.3534-.62761.0067-.00223.0146-.00556.0224-.0089s.0157-.00668.0224-.0089c.2326-.10683.4205-.29378.5189-.53859l.0358-.08457c.0358-.08457.1476-.09793.2013-.02226.3132.45847.8366.72999 1.3914.72999h1.4047c.0786 0 .4721.03811.4955.58118l-.0518 1.34063c-.0538 1.22262-1.0085 2.04358-2.1739 2.04358-1.1655 0-2.1202-.82096-2.174-2.04358z" fill="url(#am)"/><g filter="url(#j)"><path d="m15.8288 5.6674-.2982.74164c-.0473.15255.0663.30511.2271.30511h.3431c.1609 0 .2744-.1549.2271-.30511l-.2318-.74164c-.0497-.16428-.2152-.16428-.2673 0z" fill="#eb8b29"/></g><g filter="url(#k)"><path d="m15.8333 5.60698-.2319.74164c-.0473.15255.0663.3051.2271.3051h.3431c.1609 0 .2744-.1549.2271-.3051l-.2318-.74164c-.0497-.16429-.2816-.16429-.3336 0z" fill="url(#an)"/><path d="m15.8333 5.60698-.2319.74164c-.0473.15255.0663.3051.2271.3051h.3431c.1609 0 .2744-.1549.2271-.3051l-.2318-.74164c-.0497-.16429-.2816-.16429-.3336 0z" fill="url(#ao)"/><path d="m15.8333 5.60698-.2319.74164c-.0473.15255.0663.3051.2271.3051h.3431c.1609 0 .2744-.1549.2271-.3051l-.2318-.74164c-.0497-.16429-.2816-.16429-.3336 0z" fill="url(#ap)"/><path d="m15.8333 5.60698-.2319.74164c-.0473.15255.0663.3051.2271.3051h.3431c.1609 0 .2744-.1549.2271-.3051l-.2318-.74164c-.0497-.16429-.2816-.16429-.3336 0z" fill="url(#aq)"/></g><g filter="url(#l)"><path d="m16.0001 7.03472c-.2272 0-.4407-.05468-.6202-.15038-.0613-.0319-.1272.03874-.0886.0957.1499.23241.4112.38734.7088.38734s.5588-.15493.7088-.38734c.0386-.05924-.0273-.1276-.0886-.0957-.1795.0957-.3908.15038-.6202.15038z" stroke="url(#ar)" stroke-width=".2"/></g><path d="m16.0001 7.03472c-.2272 0-.4407-.05468-.6202-.15038-.0613-.0319-.1272.03874-.0886.0957.1499.23241.4112.38734.7088.38734s.5588-.15493.7088-.38734c.0386-.05924-.0273-.1276-.0886-.0957-.1795.0957-.3908.15038-.6202.15038z" fill="#8a004f"/><g filter="url(#m)"><path d="m16.4981 5.51635c.1158-.20364.2918-.36449.6707-.36449.1659 0 .3258.04595.468.16085.1173.09477.1016.21602.0107.26143l-.2425.13849c-.2844-.09191-.5988-.10436-.9069-.19628z" fill="#635d5f"/></g><g filter="url(#n)"><path d="m15.5019 5.51635c-.1158-.20364-.2918-.36449-.6707-.36449-.1659 0-.3258.04595-.468.16085-.1173.09477-.1016.21602-.0107.26143l.2425.13849c.2844-.09191.5988-.10436.9069-.19628z" fill="#635d5f"/></g><g filter="url(#o)"><path d="m14.518 4.98898-.0019.0011c-.0001.00004-.0002.00008-.0002.00011-.0554.03305-.1272.01509-.1604-.04023-.0332-.05541-.0152-.12732.0402-.16056l.0003-.00015.0004-.00027.0013-.00076.0041-.00237.0142-.00787c.012-.0065.029-.01537.0506-.02564.043-.02049.1042-.04673.1789-.07056.1483-.04732.3556-.08713.5795-.04763.0636.01123.1061.07192.0949.13555-.0113.06363-.072.10611-.1356.09488-.1739-.0307-.341-.00031-.4676.04012-.0629.02004-.1142.04206-.1494.05887-.0176.00838-.0311.0154-.0398.02015z" fill="#bd4f26"/></g><g filter="url(#p)"><path clip-rule="evenodd" d="m17.6281 4.7894c0 .00002 0 .00004-.0602.10036l.0602-.10036c.0554.03324.0734.10515.0402.16056-.0332.05533-.105.07332-.1603.04026-.0001-.00002-.0001-.00006-.0002-.00012l-.002-.00112c-.0019-.0011-.0051-.0029-.0095-.00526-.0087-.00475-.0222-.01177-.0398-.02015-.0352-.01681-.0865-.03883-.1494-.05887-.1266-.04043-.2937-.07082-.4676-.04012-.0636.01123-.1243-.03125-.1356-.09488-.0112-.06363.0313-.12432.0949-.13555.2239-.0395.4312.00031.5795.04763.0747.02383.1359.05007.1789.07056.0216.01027.0386.01914.0506.02564.006.00326.0108.00592.0142.00787l.0041.00237.0013.00076.0004.00027z" fill="#bd4f26" fill-rule="evenodd"/></g><path d="m17.0432 5.17737c.2849 0 .5256.19644.5911.46189.0194.0761-.039.14866-.1168.14866h-.9734c-.0619 0-.1115-.05663-.0991-.11857.0549-.27962.3009-.49198.5982-.49198z" fill="#fff"/><path d="m16.9524 5.29602c.2157 0 .3889.175.3889.38889 0 .03536-.0053.07071-.0141.10253h-.7513c-.0088-.03359-.0141-.06717-.0141-.10253 0-.21389.175-.38889.3906-.38889z" fill="url(#at)"/><path d="m16.73 5.68501c0-.12374.099-.22273.2227-.22273s.2227.09899.2227.22273c0 .03712-.0088.07248-.0247.10253h-.3942c-.0177-.03005-.0265-.06541-.0265-.10253z" fill="#000"/><g filter="url(#q)"><path d="m16.924 5.37839c.0277.03707-.0302.08227-.0961.13152s-.1147.0839-.1425.04683c-.0277-.03707.0033-.10704.0691-.15629.0659-.04925.1418-.05912.1695-.02206z" fill="#c7a7a3"/><path d="m16.924 5.37839c.0277.03707-.0302.08227-.0961.13152s-.1147.0839-.1425.04683c-.0277-.03707.0033-.10704.0691-.15629.0659-.04925.1418-.05912.1695-.02206z" fill="url(#av)"/></g><g filter="url(#r)"><path d="m17.2988 5.63313c-.0143-.10022-.0729-.17576-.1005-.201l-.1129.12391.051.09912z" fill="url(#ax)"/></g><path d="m14.9569 5.17737c-.2849 0-.5256.19644-.5911.4619-.0194.07609.039.14865.1168.14865h.9734c.0619 0 .1115-.05663.0991-.11857-.0549-.27962-.3026-.49198-.5982-.49198z" fill="#fff"/><path d="m15.0469 5.2959c-.2157 0-.3889.175-.3889.38889 0 .03536.0053.07071.0141.10253h.7513c.0088-.03359.0141-.06717.0141-.10253-.0018-.21389-.175-.38889-.3906-.38889z" fill="url(#ay)"/><path d="m15.2697 5.68501c0-.12374-.099-.22273-.2228-.22273-.1237 0-.2227.09899-.2227.22273 0 .03712.0089.07248.0248.10253h.3942c.0159-.03005.0265-.06541.0265-.10253z" fill="#000"/><g filter="url(#s)"><path d="m15.4017 5.63859c0-.12529-.1019-.20881-.1294-.23405l-.1253.12116.0771.15695z" fill="url(#az)"/></g><g filter="url(#t)"><ellipse cx="14.9296" cy="5.46226" fill="#c7a7a3" fill-opacity=".9" rx=".16983" ry=".08595" transform="matrix(.88365127 -.46814574 .46814574 .88365127 -.820094 7.624756)"/><ellipse cx="14.9296" cy="5.46226" fill="url(#aA)" rx=".16983" ry=".08595" transform="matrix(.88365127 -.46814574 .46814574 .88365127 -.820094 7.624756)"/></g><g filter="url(#u)"><path d="m16.8462 4.7295c.1405-.03419.4901-.01709.7237.15006" stroke="#c9725d" stroke-linecap="round" stroke-width=".1"/></g><g filter="url(#v)"><path d="m15.1924 4.7295c-.1406-.03419-.4901-.01709-.7237.15006" stroke="#c9725d" stroke-linecap="round" stroke-width=".1"/></g><g filter="url(#w)"><path d="m13.8648 3.1409c.2709-.2413.6617-.24374.8811-.20474l.1755.56304c-.1121-.01706-.2121.02194-.2961.10237-.1989.54988-.8824.8531-1.1993.93597-.0658-.65079-.0292-.97984.4388-1.39664z" fill="url(#aB)"/><path d="m13.8648 3.1409c.2709-.2413.6617-.24374.8811-.20474l.1755.56304c-.1121-.01706-.2121.02194-.2961.10237-.1989.54988-.8824.8531-1.1993.93597-.0658-.65079-.0292-.97984.4388-1.39664z" fill="url(#aC)"/></g><g filter="url(#x)"><path d="m15.737 2.36582c-.4941-.10909-1.0237.4168-1.0749.59961.6727 1.57944 1.7057 1.42891 2.8518 1.30157.686-.07622.7605.23643.819.38755-.1902-1.76956-1.4698-2.04011-2.5959-2.28873z" fill="url(#aD)"/><path d="m15.737 2.36582c-.4941-.10909-1.0237.4168-1.0749.59961.6727 1.57944 1.7057 1.42891 2.8518 1.30157.686-.07622.7605.23643.819.38755-.1902-1.76956-1.4698-2.04011-2.5959-2.28873z" fill="url(#aE)"/><path d="m15.737 2.36582c-.4941-.10909-1.0237.4168-1.0749.59961.6727 1.57944 1.7057 1.42891 2.8518 1.30157.686-.07622.7605.23643.819.38755-.1902-1.76956-1.4698-2.04011-2.5959-2.28873z" fill="url(#aF)"/></g><g filter="url(#y)"><path d="m14.7388 2.91064c.0101.10591.1022.50397.2373.745" stroke="url(#aG)" stroke-linecap="round" stroke-width=".1"/></g></svg>