<svg fill="none" height="32" viewBox="0 0 32 32" width="32" xmlns="http://www.w3.org/2000/svg" xmlns:xlink="http://www.w3.org/1999/xlink"><filter id="a" color-interpolation-filters="sRGB" filterUnits="userSpaceOnUse" height="25.4375" width="25.125" x="3.125" y="4.125"><feFlood flood-opacity="0" result="BackgroundImageFix"/><feBlend in="SourceGraphic" in2="BackgroundImageFix" mode="normal" result="shape"/><feGaussianBlur result="effect1_foregroundBlur_18_28893" stdDeviation=".625"/></filter><filter id="b" color-interpolation-filters="sRGB" filterUnits="userSpaceOnUse" height="10.9456" width="15" x="8.25" y="17.0232"><feFlood flood-opacity="0" result="BackgroundImageFix"/><feBlend in="SourceGraphic" in2="BackgroundImageFix" mode="normal" result="shape"/><feGaussianBlur result="effect1_foregroundBlur_18_28893" stdDeviation=".125"/></filter><filter id="c" color-interpolation-filters="sRGB" filterUnits="userSpaceOnUse" height="12.6991" width="14.3925" x="8.81687" y="17.3086"><feFlood flood-opacity="0" result="BackgroundImageFix"/><feBlend in="SourceGraphic" in2="BackgroundImageFix" mode="normal" result="shape"/><feGaussianBlur result="effect1_foregroundBlur_18_28893" stdDeviation=".05"/></filter><filter id="d" color-interpolation-filters="sRGB" filterUnits="userSpaceOnUse" height="3.85388" width="5.25" x="11.75" y="3.448"><feFlood flood-opacity="0" result="BackgroundImageFix"/><feBlend in="SourceGraphic" in2="BackgroundImageFix" mode="normal" result="shape"/><feGaussianBlur result="effect1_foregroundBlur_18_28893" stdDeviation=".5"/></filter><linearGradient id="e" gradientUnits="userSpaceOnUse" x1="3" x2="29.0362" y1="15.375" y2="15.375"><stop offset="0" stop-color="#916540"/><stop offset=".184839" stop-color="#97643a"/><stop offset=".540113" stop-color="#d28138"/><stop offset=".734553" stop-color="#ffa45a"/><stop offset="1" stop-color="#ffad65"/></linearGradient><radialGradient id="f" cx="0" cy="0" gradientTransform="matrix(-10.93749594 2.74994745 -.72739901 -2.89311843 24.5 28.125)" gradientUnits="userSpaceOnUse" r="1"><stop offset="0" stop-color="#9b617d"/><stop offset="1" stop-color="#a26070" stop-opacity="0"/></radialGradient><linearGradient id="g" gradientUnits="userSpaceOnUse" x1="23.9741" x2="7.08024" y1="9.12518" y2="24.6891"><stop offset="0" stop-color="#d28149"/><stop offset=".462677" stop-color="#d98f5a"/><stop offset="1" stop-color="#e2a26f"/></linearGradient><linearGradient id="h"><stop offset="0" stop-color="#51386e"/><stop offset="1" stop-color="#584a95"/></linearGradient><linearGradient id="i" gradientUnits="userSpaceOnUse" x1="8.76312" x2="23.2631" xlink:href="#h" y1="23.6582" y2="23.6582"/><linearGradient id="j"><stop offset="0" stop-color="#4c2d6f"/><stop offset="1" stop-color="#503374" stop-opacity="0"/></linearGradient><linearGradient id="k" gradientUnits="userSpaceOnUse" x1="14.0625" x2="14.0625" xlink:href="#j" y1="30.0432" y2="23.6582"/><linearGradient id="l" gradientUnits="userSpaceOnUse" x1="9.75" x2="23" y1="29.3125" y2="17.2732"><stop offset="0" stop-color="#442c51"/><stop offset=".338516" stop-color="#4b356a"/><stop offset=".508653" stop-color="#5c4877"/><stop offset="1" stop-color="#7975b9"/></linearGradient><linearGradient id="m" gradientUnits="userSpaceOnUse" x1="8.91687" x2="23.1094" xlink:href="#h" y1="23.6582" y2="23.6582"/><linearGradient id="n" gradientUnits="userSpaceOnUse" x1="14.1039" x2="14.1039" xlink:href="#j" y1="29.9078" y2="23.6582"/><linearGradient id="o" gradientUnits="userSpaceOnUse" x1="14.375" x2="18.4687" y1="5.37494" y2="5.96875"><stop offset="0" stop-color="#e79043"/><stop offset=".840714" stop-color="#e79043" stop-opacity="0"/></linearGradient><path d="m28.7531 17.0131c0-1.17.48-2.39.19-3.46-.3-1.12-1.33-1.93-1.89-2.91-.57-.98998-.77-2.28998-1.57-3.08998s-2.1-1-3.09-1.57c-.98-.57-1.79-1.6-2.91-1.89-1.08-.29-2.3.19-3.46.19-1.17 0-2.39-.48-3.46-.19-1.12.3-1.93 1.33-2.90998 1.89-1 .57-2.3.77-3.1 1.57s-1 2.1-1.57 3.08998c-.57.98-1.6 1.79-1.89 2.91-.29 1.08.19 2.3.19 3.46 0 1.17-.48 2.39-.19 3.46.3 1.12 1.33 1.93 1.89 2.91.57.99.77 2.29 1.57 3.09s2.1 1 3.09 1.57c.97998.57 1.78998 1.6 2.90998 1.89 1.08.29 2.3-.19 3.46-.19 1.17 0 2.39.48 3.46.19 1.12-.3 1.93-1.33 2.91-1.89.99-.57 2.29-.77 3.09-1.57s1-2.1 1.57-3.09c.57-.98 1.6-1.79 1.89-2.91.3-1.07-.18-2.29-.18-3.46z" fill="url(#e)"/><path d="m28.7531 17.0131c0-1.17.48-2.39.19-3.46-.3-1.12-1.33-1.93-1.89-2.91-.57-.98998-.77-2.28998-1.57-3.08998s-2.1-1-3.09-1.57c-.98-.57-1.79-1.6-2.91-1.89-1.08-.29-2.3.19-3.46.19-1.17 0-2.39-.48-3.46-.19-1.12.3-1.93 1.33-2.90998 1.89-1 .57-2.3.77-3.1 1.57s-1 2.1-1.57 3.08998c-.57.98-1.6 1.79-1.89 2.91-.29 1.08.19 2.3.19 3.46 0 1.17-.48 2.39-.19 3.46.3 1.12 1.33 1.93 1.89 2.91.57.99.77 2.29 1.57 3.09s2.1 1 3.09 1.57c.97998.57 1.78998 1.6 2.90998 1.89 1.08.29 2.3-.19 3.46-.19 1.17 0 2.39.48 3.46.19 1.12-.3 1.93-1.33 2.91-1.89.99-.57 2.29-.77 3.09-1.57s1-2.1 1.57-3.09c.57-.98 1.6-1.79 1.89-2.91.3-1.07-.18-2.29-.18-3.46z" fill="url(#f)"/><g filter="url(#a)"><path d="m26.754 16.8438c0-1.0312.4171-2.1064.1651-3.0494-.2607-.9871-1.1557-1.701-1.6424-2.5647-.4953-.8725-.6691-2.0182-1.3643-2.72326s-1.8248-.88132-2.6851-1.38368c-.8516-.50235-1.5555-1.41011-2.5288-1.6657-.9385-.25558-1.9986.16746-3.0066.16746-1.0168 0-2.0769-.42304-3.0067-.16746-.9733.2644-2.0914 1.01169-3.0602 1.29294-.96875.28125-1.46106.07619-2.15625.78125s-.87514 2.82595-1.37046 3.69845c-.49532.8637-1.39037 1.5776-1.64237 2.5647-.25201.9518.1651 2.027.1651 3.0494 0 1.0311-.41711 2.1063-.1651 3.0493.26069.9871 1.15574 1.701 1.64237 2.5647.49532.8725.66912 2.0182 1.3643 2.7233.69519.705 1.82487.8813 2.68511 1.3836.8517.5024 1.5555 1.4102 2.5288 1.6657.9385.2556 1.9986-.1674 3.0067-.1674 1.0167 0 2.0768.423 3.0066.1674.9733-.2644 1.6772-1.1721 2.5288-1.6657.8603-.5023 1.99-.6786 2.6851-1.3836.6952-.7051.869-1.8508 1.3643-2.7233.4954-.8637 1.3904-1.5776 1.6424-2.5647.2607-.943-.1564-2.0182-.1564-3.0493z" fill="url(#g)"/></g><path d="m11.8731 13.7631.84 1.88c.19.42.67.6 1.09.42.42-.19.6-.67.42-1.09l-.84-1.88c-.19-.42-.68-.6-1.09-.41-.42.18-.6.67-.42 1.08z" fill="#e6b990"/><path d="m7.5831 14.5031-1.83.95c-.4.21-.56.71-.35 1.11s.71.56 1.11.35l1.83-.95c.4-.21.56-.71.35-1.11s-.71-.56-1.11-.35z" fill="#e6b78d"/><path d="m20.2731 9.17315v2.05995c0 .45.37.82.82.82s.82-.37.82-.82v-2.05995c0-.45-.37-.82-.82-.82s-.82.37-.82.82z" fill="#e7ba93"/><path d="m8.5131 9.66313-1.22 1.65997c-.27.37-.2.88.17 1.15s.88.19 1.15-.17l1.22-1.66c.28-.36.2-.87998-.17-1.14998-.36-.27-.88-.19-1.15.17001z" fill="#e6b990"/><path d="m15.1131 7.0531-1.57 1.34c-.35.29-.39.81-.09 1.16.29.35.81.39 1.16.09l1.57-1.33c.35-.29.39-.81.09-1.16s-.82-.39-1.16-.1z" fill="#e6b990"/><path d="m24.5131 15.3331 1.33 1.57c.29.35.81.39 1.16.09.35-.29.39-.81.09-1.16l-1.33-1.57c-.29-.35-.81-.39-1.16-.09-.34.3-.39.82-.09 1.16z" fill="#e8bb94"/><path d="m25.3131 22.6031 1.51-1.4c.33-.31.35-.83.04-1.16s-.83-.35-1.16-.04l-1.51 1.4c-.33.31-.35.83-.04 1.16.3.33.82.35 1.16.04z" fill="#ecbb95"/><path d="m8.16312 21.9831-1.03-1.78c-.23-.39-.73-.53-1.13-.3-.39.23-.53.73-.3 1.13l1.03 1.78c.23.39.73.53 1.13.3s.53-.73.3-1.13z" fill="#e3b38c"/><path d="m20.6031 14.7231-1.89-.81c-.42-.18-.9.01-1.08.43s.01.9.43 1.08l1.89.81c.42.18.9-.01 1.08-.43s-.01-.9-.43-1.08z" fill="#e7b990"/><g filter="url(#b)"><path d="m22.13 17.2732h-12.76c-.48 0-.87.39-.87.87v8.2943c0 1.2813 1.48 1.2813 3.31 1.2813h7.88c1.83 0 3.31 0 3.31-1.2032v-8.3724c0-.48-.39-.87-.87-.87z" fill="#87564e"/></g><path d="m22.3931 17.2732h-12.75998c-.48 0-.87.39-.87.87v8.59c0 1.83 1.47998 3.31 3.30998 3.31h7.88c1.83 0 3.31-1.48 3.31-3.31v-8.59c0-.48-.39-.87-.87-.87z" fill="url(#i)"/><path d="m22.3931 17.2732h-12.75998c-.48 0-.87.39-.87.87v8.59c0 1.83 1.47998 3.31 3.30998 3.31h7.88c1.83 0 3.31-1.48 3.31-3.31v-8.59c0-.48-.39-.87-.87-.87z" fill="url(#k)"/><path d="m22.3931 17.2732h-12.75998c-.48 0-.87.39-.87.87v8.59c0 1.83 1.47998 3.31 3.30998 3.31h7.88c1.83 0 3.31-1.48 3.31-3.31v-8.59c0-.48-.39-.87-.87-.87z" fill="url(#l)"/><g filter="url(#c)"><path d="m22.2578 17.4086h-12.48938c-.46982 0-.85155.3817-.85155.8515v8.4079c0 1.7911 1.44863 3.2398 3.23983 3.2398h7.7129c1.7912 0 3.2398-1.4487 3.2398-3.2398v-8.4079c0-.4698-.3818-.8515-.8516-.8515z" fill="url(#m)"/><path d="m22.2578 17.4086h-12.48938c-.46982 0-.85155.3817-.85155.8515v8.4079c0 1.7911 1.44863 3.2398 3.23983 3.2398h7.7129c1.7912 0 3.2398-1.4487 3.2398-3.2398v-8.4079c0-.4698-.3818-.8515-.8516-.8515z" fill="url(#n)"/></g><g filter="url(#d)"><path d="m12.75 5.90112c.05-.65.4062-1.45312.4062-1.45312.5626.23437 2.8438.40625 2.8438.40625v1.42187c-1.1042.14584-3.25-.375-3.25-.375z" fill="url(#o)"/></g></svg>