<svg fill="none" height="32" viewBox="0 0 32 32" width="32" xmlns="http://www.w3.org/2000/svg" xmlns:xlink="http://www.w3.org/1999/xlink"><filter id="a" color-interpolation-filters="sRGB" filterUnits="userSpaceOnUse" height="15.9791" width="11.1591" x="7.73572" y="6.28253"><feFlood flood-opacity="0" result="BackgroundImageFix"/><feBlend in="SourceGraphic" in2="BackgroundImageFix" mode="normal" result="shape"/><feGaussianBlur result="effect1_foregroundBlur_18_13585" stdDeviation=".75"/></filter><filter id="b" color-interpolation-filters="sRGB" filterUnits="userSpaceOnUse" height="9.99539" width="2.6" x="15.0288" y="7.02704"><feFlood flood-opacity="0" result="BackgroundImageFix"/><feBlend in="SourceGraphic" in2="BackgroundImageFix" mode="normal" result="shape"/><feColorMatrix in="SourceAlpha" result="hardAlpha" type="matrix" values="0 0 0 0 0 0 0 0 0 0 0 0 0 0 0 0 0 0 127 0"/><feOffset dx=".6"/><feGaussianBlur stdDeviation=".425"/><feComposite in2="hardAlpha" k2="-1" k3="1" operator="arithmetic"/><feColorMatrix type="matrix" values="0 0 0 0 0.635294 0 0 0 0 0.227451 0 0 0 0 0.403922 0 0 0 1 0"/><feBlend in2="shape" mode="normal" result="effect1_innerShadow_18_13585"/></filter><filter id="c" color-interpolation-filters="sRGB" filterUnits="userSpaceOnUse" height="28.8" width="28.8" x="1.6" y="1.61117"><feFlood flood-opacity="0" result="BackgroundImageFix"/><feBlend in="SourceGraphic" in2="BackgroundImageFix" mode="normal" result="shape"/><feColorMatrix in="SourceAlpha" result="hardAlpha" type="matrix" values="0 0 0 0 0 0 0 0 0 0 0 0 0 0 0 0 0 0 127 0"/><feOffset dx=".4" dy="-.4"/><feGaussianBlur stdDeviation=".3"/><feComposite in2="hardAlpha" k2="-1" k3="1" operator="arithmetic"/><feColorMatrix type="matrix" values="0 0 0 0 0.282353 0 0 0 0 0.254902 0 0 0 0 0.313726 0 0 0 1 0"/><feBlend in2="shape" mode="normal" result="effect1_innerShadow_18_13585"/><feColorMatrix in="SourceAlpha" result="hardAlpha" type="matrix" values="0 0 0 0 0 0 0 0 0 0 0 0 0 0 0 0 0 0 127 0"/><feOffset dx="-.4" dy=".4"/><feGaussianBlur stdDeviation=".3"/><feComposite in2="hardAlpha" k2="-1" k3="1" operator="arithmetic"/><feColorMatrix type="matrix" values="0 0 0 0 0.533333 0 0 0 0 0.533333 0 0 0 0 0.533333 0 0 0 1 0"/><feBlend in2="effect1_innerShadow_18_13585" mode="normal" result="effect2_innerShadow_18_13585"/></filter><radialGradient id="d" cx="0" cy="0" gradientTransform="matrix(17.50491717 -18.26186864 18.26186864 17.50491717 9.57405 24.5094)" gradientUnits="userSpaceOnUse" r="1"><stop offset=".598155" stop-color="#dddadf"/><stop offset="1" stop-color="#bdbabf"/></radialGradient><linearGradient id="e" gradientUnits="userSpaceOnUse" x1="16.0288" x2="16.0288" y1="7.02704" y2="17.0224"><stop offset="0" stop-color="#f83f4c"/><stop offset="1" stop-color="#f74093"/></linearGradient><linearGradient id="f" gradientUnits="userSpaceOnUse" x1="9.99506" x2="15.0279" y1="19.506" y2="16.6003"><stop offset="0" stop-color="#32183d"/><stop offset="1" stop-color="#2c3a65"/></linearGradient><linearGradient id="g" gradientUnits="userSpaceOnUse" x1="13.1193" x2="12.6193" y1="18.8569" y2="17.9909"><stop offset="0" stop-color="#2e2840"/><stop offset="1" stop-color="#2e2840" stop-opacity="0"/></linearGradient><radialGradient id="h" cx="0" cy="0" gradientTransform="matrix(4.96255073 -2.86513 .4076405 .70605406 10.0302 18.7821)" gradientUnits="userSpaceOnUse" r="1"><stop offset="0" stop-color="#50375f"/><stop offset="1" stop-color="#50375f" stop-opacity="0"/></radialGradient><linearGradient id="i" gradientUnits="userSpaceOnUse" x1="9.99506" x2="10.6166" y1="19.506" y2="19.1472"><stop offset="0" stop-color="#3e1846"/><stop offset="1" stop-color="#3e1846" stop-opacity="0"/></linearGradient><linearGradient id="j" gradientUnits="userSpaceOnUse" x1="24.5108" x2="4.28379" y1="4.02466" y2="28.5448"><stop offset="0" stop-color="#6d6b70"/><stop offset="1" stop-color="#706c74"/></linearGradient><radialGradient id="k" cx="0" cy="0" gradientTransform="matrix(-2.36657524 2.44732449 -2.44732449 -2.36657524 17.111 15.5638)" gradientUnits="userSpaceOnUse" r="1"><stop offset="0" stop-color="#c9c6cc"/><stop offset="1" stop-color="#928e95"/></radialGradient><radialGradient id="l" cx="0" cy="0" gradientTransform="matrix(-2.18751143 1.87499028 -1.87499028 -2.18751143 16.5937 15.5158)" gradientUnits="userSpaceOnUse" r="1"><stop offset=".527069" stop-color="#776f7f" stop-opacity="0"/><stop offset="1" stop-color="#776f7f"/></radialGradient><path d="m30 16.0112c0 7.732-6.268 14-14 14-7.73199 0-14-6.268-14-14 0-7.73202 6.26801-14.00003 14-14.00003 7.732 0 14 6.26801 14 14.00003z" fill="url(#d)"/><g filter="url(#a)"><path d="m15.4036 7.78253c.5523 0 1 .44772 1 1v6.27437c.5927.3444.9912.9861.9912 1.7209 0 1.0984-.8904 1.9889-1.9888 1.9889-.3606 0-.6987-.096-.9903-.2637l-3.6798 2.1245c-.4783.2761-1.0899.1123-1.36604-.366s-.11227-1.0899.36602-1.366l3.68132-2.1254c.0028-.7297.3984-1.3666.9864-1.7104v-6.27717c0-.55228.4477-1 1-1z" fill="#c6c3c9"/></g><g filter="url(#b)"><path clip-rule="evenodd" d="m16.0288 7.02704c.5523 0 1 .44771 1 1v7.99536c0 .5523-.4477 1-1 1s-1-.4477-1-1v-7.99536c0-.55229.4477-1 1-1z" fill="url(#e)" fill-rule="evenodd"/></g><g clip-rule="evenodd" fill-rule="evenodd"><path d="m9.99506 19.506c-.27615-.4783-.11227-1.0899.36604-1.366l5.1677-2.9836c.4783-.2762 1.0899-.1123 1.366.366.2762.4783.1123 1.0899-.366 1.366l-5.1677 2.9836c-.4783.2762-1.0899.1123-1.36604-.366z" fill="url(#f)"/><path d="m9.99506 19.506c-.27615-.4783-.11227-1.0899.36604-1.366l5.1677-2.9836c.4783-.2762 1.0899-.1123 1.366.366.2762.4783.1123 1.0899-.366 1.366l-5.1677 2.9836c-.4783.2762-1.0899.1123-1.36604-.366z" fill="url(#g)"/><path d="m9.99506 19.506c-.27615-.4783-.11227-1.0899.36604-1.366l5.1677-2.9836c.4783-.2762 1.0899-.1123 1.366.366.2762.4783.1123 1.0899-.366 1.366l-5.1677 2.9836c-.4783.2762-1.0899.1123-1.36604-.366z" fill="url(#h)"/><path d="m9.99506 19.506c-.27615-.4783-.11227-1.0899.36604-1.366l5.1677-2.9836c.4783-.2762 1.0899-.1123 1.366.366.2762.4783.1123 1.0899-.366 1.366l-5.1677 2.9836c-.4783.2762-1.0899.1123-1.36604-.366z" fill="url(#i)"/></g><g filter="url(#c)"><path clip-rule="evenodd" d="m16 27.0112c6.0751 0 11-4.9249 11-11 0-6.07516-4.9249-11.00003-11-11.00003-6.07513 0-11 4.92487-11 11.00003 0 6.0751 4.92487 11 11 11zm0 3c7.732 0 14-6.268 14-14 0-7.73202-6.268-14.00003-14-14.00003-7.73199 0-14 6.26801-14 14.00003 0 7.732 6.26801 14 14 14z" fill="url(#j)" fill-rule="evenodd"/></g><path d="m18.02 16.0223c0 1.0984-.8904 1.9889-1.9888 1.9889s-1.9888-.8905-1.9888-1.9889.8904-1.9888 1.9888-1.9888 1.9888.8904 1.9888 1.9888z" fill="url(#k)"/><path d="m18.02 16.0223c0 1.0984-.8904 1.9889-1.9888 1.9889s-1.9888-.8905-1.9888-1.9889.8904-1.9888 1.9888-1.9888 1.9888.8904 1.9888 1.9888z" fill="url(#l)"/></svg>