<svg fill="none" height="32" viewBox="0 0 32 32" width="32" xmlns="http://www.w3.org/2000/svg" xmlns:xlink="http://www.w3.org/1999/xlink"><filter id="a" color-interpolation-filters="sRGB" filterUnits="userSpaceOnUse" height="28.875" width="28.875" x="2.0658" y="1.1875"><feFlood flood-opacity="0" result="BackgroundImageFix"/><feBlend in="SourceGraphic" in2="BackgroundImageFix" mode="normal" result="shape"/><feColorMatrix in="SourceAlpha" result="hardAlpha" type="matrix" values="0 0 0 0 0 0 0 0 0 0 0 0 0 0 0 0 0 0 127 0"/><feOffset dx="1" dy="-1"/><feGaussianBlur stdDeviation="1.5"/><feComposite in2="hardAlpha" k2="-1" k3="1" operator="arithmetic"/><feColorMatrix type="matrix" values="0 0 0 0 0.188235 0 0 0 0 0.470588 0 0 0 0 0.843137 0 0 0 1 0"/><feBlend in2="shape" mode="normal" result="effect1_innerShadow_18590_792"/><feColorMatrix in="SourceAlpha" result="hardAlpha" type="matrix" values="0 0 0 0 0 0 0 0 0 0 0 0 0 0 0 0 0 0 127 0"/><feOffset dy="-1"/><feGaussianBlur stdDeviation="1.5"/><feComposite in2="hardAlpha" k2="-1" k3="1" operator="arithmetic"/><feColorMatrix type="matrix" values="0 0 0 0 0.27451 0 0 0 0 0.34902 0 0 0 0 0.8 0 0 0 1 0"/><feBlend in2="effect1_innerShadow_18590_792" mode="normal" result="effect2_innerShadow_18590_792"/></filter><filter id="b" color-interpolation-filters="sRGB" filterUnits="userSpaceOnUse" height="28.375" width="5.5" x="25.5033" y="1.9375"><feFlood flood-opacity="0" result="BackgroundImageFix"/><feBlend in="SourceGraphic" in2="BackgroundImageFix" mode="normal" result="shape"/><feGaussianBlur result="effect1_foregroundBlur_18590_792" stdDeviation="1"/></filter><filter id="c" color-interpolation-filters="sRGB" filterUnits="userSpaceOnUse" height="5.5" width="27.2812" x="2.77966" y="1.25"><feFlood flood-opacity="0" result="BackgroundImageFix"/><feBlend in="SourceGraphic" in2="BackgroundImageFix" mode="normal" result="shape"/><feGaussianBlur result="effect1_foregroundBlur_18590_792" stdDeviation="1"/></filter><filter id="d" color-interpolation-filters="sRGB" filterUnits="userSpaceOnUse" height="16.6027" width="16.6028" x="8.1189" y="7.82373"><feFlood flood-opacity="0" result="BackgroundImageFix"/><feBlend in="SourceGraphic" in2="BackgroundImageFix" mode="normal" result="shape"/><feGaussianBlur result="effect1_foregroundBlur_18590_792" stdDeviation=".5"/></filter><filter id="e" color-interpolation-filters="sRGB" filterUnits="userSpaceOnUse" height="15.6027" width="15.6028" x="8.5189" y="8.42373"><feFlood flood-opacity="0" result="BackgroundImageFix"/><feBlend in="SourceGraphic" in2="BackgroundImageFix" mode="normal" result="shape"/><feColorMatrix in="SourceAlpha" result="hardAlpha" type="matrix" values="0 0 0 0 0 0 0 0 0 0 0 0 0 0 0 0 0 0 127 0"/><feOffset dx="-.6" dy=".6"/><feGaussianBlur stdDeviation=".5"/><feComposite in2="hardAlpha" k2="-1" k3="1" operator="arithmetic"/><feColorMatrix type="matrix" values="0 0 0 0 0.866667 0 0 0 0 0.819608 0 0 0 0 0.941176 0 0 0 1 0"/><feBlend in2="shape" mode="normal" result="effect1_innerShadow_18590_792"/><feColorMatrix in="SourceAlpha" result="hardAlpha" type="matrix" values="0 0 0 0 0 0 0 0 0 0 0 0 0 0 0 0 0 0 127 0"/><feOffset dx=".4" dy="-.4"/><feGaussianBlur stdDeviation=".5"/><feComposite in2="hardAlpha" k2="-1" k3="1" operator="arithmetic"/><feColorMatrix type="matrix" values="0 0 0 0 1 0 0 0 0 0.988235 0 0 0 0 1 0 0 0 1 0"/><feBlend in2="effect1_innerShadow_18590_792" mode="normal" result="effect2_innerShadow_18590_792"/></filter><linearGradient id="f" gradientUnits="userSpaceOnUse" x1="16.0033" x2="16.0033" y1="5.76201" y2="39.0147"><stop offset="0" stop-color="#5cb7ff"/><stop offset="1" stop-color="#4878dd"/></linearGradient><radialGradient id="g" cx="0" cy="0" gradientTransform="matrix(-1.56248628 1.46876123 -1.71548166 -1.82495051 27.722 4.28125)" gradientUnits="userSpaceOnUse" r="1"><stop offset="0" stop-color="#7bd7ff"/><stop offset="1" stop-color="#7bd7ff" stop-opacity="0"/></radialGradient><linearGradient id="h" gradientUnits="userSpaceOnUse" x1="28.7533" x2="28.7533" y1="4.6875" y2="27.5625"><stop offset="0" stop-color="#7fd9ff"/><stop offset="1" stop-color="#639df4"/></linearGradient><linearGradient id="i" gradientUnits="userSpaceOnUse" x1="28.4672" x2="2.93591" y1="4.25002" y2="4.25002"><stop offset="0" stop-color="#7dd8ff"/><stop offset="1" stop-color="#5db6ff"/></linearGradient><g filter="url(#a)"><rect fill="url(#f)" height="27.875" rx="3.6" width="27.875" x="2.0658" y="2.1875"/><rect fill="url(#g)" height="27.875" rx="3.6" width="27.875" x="2.0658" y="2.1875"/></g><g filter="url(#b)"><path d="m28.2533 4.6875v22.875" stroke="url(#h)" stroke-linecap="round" stroke-width="1.5"/></g><g filter="url(#c)"><path d="m5.52966 4h21.78124" stroke="url(#i)" stroke-linecap="round" stroke-width="1.5"/></g><g filter="url(#d)"><path d="m9.11891 9.57756c-.00213-.4172.33661-.75595.75381-.75382l7.29288.03722c.6663.0034.9977.80915.5265 1.28034l-1.9166 1.9166c-.1269.1269-.081.3482.0491.4719.0062.0059.0123.0119.0184.0179l7.5857 7.5858c.3906.3905.3906 1.0237 0 1.4142l-1.5857 1.5858c-.3906.3905-1.0237.3905-1.4143 0l-7.5857-7.5858c-.0061-.006-.0121-.0121-.018-.0183-.1237-.1301-.345-.176-.4719-.0491l-1.9167 1.9166c-.47112.4712-1.27687.1399-1.28027-.5265z" fill="#579fff"/></g><g filter="url(#e)"><path d="m9.11891 9.57756c-.00213-.4172.33661-.75595.75381-.75382l7.29288.03722c.6663.0034.9977.80915.5265 1.28034l-1.9166 1.9166c-.1269.1269-.081.3482.0491.4719.0062.0059.0123.0119.0184.0179l7.5857 7.5858c.3906.3905.3906 1.0237 0 1.4142l-1.5857 1.5858c-.3906.3905-1.0237.3905-1.4143 0l-7.5857-7.5858c-.0061-.006-.0121-.0121-.018-.0183-.1237-.1301-.345-.176-.4719-.0491l-1.9167 1.9166c-.47112.4712-1.27687.1399-1.28027-.5265z" fill="#fcf2ff"/></g></svg>