<svg enable-background="new 0 0 128 128" viewBox="0 0 128 128" xmlns="http://www.w3.org/2000/svg"><g transform="scale(4)"><path d="m16.525 11.6497.61 2.34-2.4.66-.61-2.4z" fill="#e4b29a"/><path d="m16.1653 13.7196c-3.2939.2804-2.104 7.2927-1.8638 9.7804h5.6985c-.2356-2.4737-.5409-10.0608-3.8347-9.7804z" fill="#ff6723"/><path d="m10.3242 27.6289 4.1868-4.1289h5.489s.401 2.1652-.6167 3.5533h.241l1.6894 1.9467-9.3137 1c-1.1982.1093-2.93443-.8225-1.6729-2.3706z" fill="#9b9b9b"/><path d="m15.994 26.4977c1.3993-.0066 2.5305-.012 3.5268.2217.1345.0315.2179.1661.1863.3005-.0315.1344-.166.2178-.3004.1863-.934-.219-1.9958-.2144-3.4008-.2083-.2426.001-.4954.0021-.7596.0021-.138 0-.25-.1119-.25-.25 0-.138.112-.25.25-.25.2577 0 .5067-.0011.7477-.0023z" fill="#636363"/><path d="m18.0727 20.4836-.9531-4.9536c-.0354-.0495-.068-.0962-.0984-.1398-.2774-.398-.3751-.5381-.8271-.2148-.1528.1093-.2911.1258-.4161.1408-.2852.034-.5016.0599-.6659 1.1612l.5013 4.3669c.0363.0488-.0132.1221-.0575.1673l-1.8329 2.0652c-.1488.1209-.8539.8232-1.0149 1.1309l-.0016-.0019-.5435 1.0211c-.0945.1806-.0382.4026.1208.5108l-.025.092c-.1053.1889-.0356.4342.1534.5395s.4342.0356.535-.1623c.0452.0442.0947.075.1531.1012.1885.0606.3888-.031.4809-.2019l.3551-.6658.1514-.0553c.3208-.1197.6141-.2928.8757-.5058l2.5784-2.7152c.4431-.3849.6391-.9587.5309-1.6805z" fill="#eebfaa"/><path d="m20.2152 26.0096-1.1449 1.1271.8711 2.0117 3.9038.9012c.43.06.68-.47.36-.77l-3.55-3.29c-.13-.11-.32-.11-.44.02z" fill="#635994"/><path d="m17.8351 18.9996c.11-.01.19-.11.18-.22l-.37-2.9c-.1-.79-.83-1.36-1.62-1.25-.79.1-1.36.83-1.25 1.62l.39 3.05c.54-.06 1.86-.21 2.67-.3z" fill="#ff8101"/><path d="m14.0452 13.5695c.87-.08 2.21-.65 2.5-1.72l.24-1.43.28-1.48996c-.11-1.06-1.06-1.84-2.12-1.74l-1.26.12c-1.06.11-1.84 1.06-1.74 2.12l.0617.67886c-.1397.349-.2772.5567-.3775.7083-.1009.1524-.1642.248-.1542.3733.03.25.32.42.57.4.0485-.0039.0831-.0145.1072-.0309.1462 1.2538.4203 2.1507 1.8928 2.0104z" fill="#eebfaa"/><path d="m12.5351 10.4896c-.07 0-.14-.06-.15-.15v-.01c-.04-.35003.25-.58003.54-.61003s.62.14.65.50003v.01c.01.08-.05.16-.12.17z" fill="#fff"/><path d="m12.4252 10.4997c-.02-.05-.03-.1-.04-.16-.02-.26.12-.48004.32-.50004.2-.03.38.17004.41.42004.01.06 0 .11-.01.17z" fill="#7d4533"/><path d="m12.5453 10.4896c-.03-.04-.06-.1-.06-.16-.02-.15.07-.28.18-.29.12-.01.22.1.23.25.01.06 0 .12-.02.16z"/><path d="m12.5533 10.2192c.0385-.0037.0658-.0469.061-.0963-.0048-.0495-.0399-.0866-.0784-.0828-.0385.0037-.0658.0468-.061.0963s.0399.0865.0784.0828z" fill="#fff"/><path d="m13.3736 11.543c.0699.0158.1138.0853.098.1552-.0862.3819-.4673.6134-.8452.528-.0699-.0158-.1138-.0852-.098-.1552.0158-.0699.0853-.1138.1552-.098.2421.0547.481-.0939.5348-.332.0158-.0699.0853-.1138.1552-.098z" fill="#990838"/><path d="m13.3951 9.41779c-.0266.00016-.0527-.00749-.075-.022-.2315-.12286-.4995-.15835-.755-.1-.0178.00441-.0362.00516-.0543.00222-.018-.00295-.0353-.00953-.0507-.01935-.0155-.00982-.0287-.02267-.0391-.03778-.0103-.0151-.0174-.03214-.0209-.05009-.0042-.01774-.0047-.03612-.0016-.05407.003-.01795.0097-.03511.0194-.05047.0098-.01536.0226-.02862.0375-.039.015-.01039.0319-.01768.0497-.02146.3273-.07554.671-.02633.964.138.0252.01617.0445.04005.055.06809.0106.02804.0118.05874.0035.08751-.0084.02878-.0258.0541-.0496.07219-.0239.01809-.053.02798-.0829.02821z" fill="#a56953"/><path d="m15.3652 9.37957s-.09-.99-1.73-.83c-1.38.14-1.81-.3-1.88-1.09-.08-.82.56-1.08.92-1.12.4692-.04734.7308-.00391.9485.03222.288.04781.4989.08283 1.0115-.12222 1.24-.48 3.15-.43 3.35 1.63.27 2.83003-.75 2.95003-.75 2.95003.81-.08.81.97.21 1.03-.0477.0053-.1027.0151-.1622.0259-.3902.0701-.9811.1762-1.0678-.7259-.0213-.2248-.0484-.4216-.0798-.5939.0777-.1371.1152-.2986.0996-.4661-.035-.38547-.3386-.67116-.7025-.70918-.099-.03466-.1673-.01085-.1673-.01085z" fill="#fff9ba"/></g></svg>