<svg fill="none" height="32" viewBox="0 0 32 32" width="32" xmlns="http://www.w3.org/2000/svg" xmlns:xlink="http://www.w3.org/1999/xlink"><filter id="a" color-interpolation-filters="sRGB" filterUnits="userSpaceOnUse" height="7.24442" width="19.1613" x="8.16284" y="22.7503"><feFlood flood-opacity="0" result="BackgroundImageFix"/><feBlend in="SourceGraphic" in2="BackgroundImageFix" mode="normal" result="shape"/><feColorMatrix in="SourceAlpha" result="hardAlpha" type="matrix" values="0 0 0 0 0 0 0 0 0 0 0 0 0 0 0 0 0 0 127 0"/><feOffset dx=".5" dy="-.5"/><feGaussianBlur stdDeviation=".75"/><feComposite in2="hardAlpha" k2="-1" k3="1" operator="arithmetic"/><feColorMatrix type="matrix" values="0 0 0 0 0.407843 0 0 0 0 0.223529 0 0 0 0 0.34902 0 0 0 1 0"/><feBlend in2="shape" mode="normal" result="effect1_innerShadow_13036_4636"/></filter><filter id="b" color-interpolation-filters="sRGB" filterUnits="userSpaceOnUse" height="7.17656" width="19.0088" x="5.1759" y="22.8182"><feFlood flood-opacity="0" result="BackgroundImageFix"/><feBlend in="SourceGraphic" in2="BackgroundImageFix" mode="normal" result="shape"/><feColorMatrix in="SourceAlpha" result="hardAlpha" type="matrix" values="0 0 0 0 0 0 0 0 0 0 0 0 0 0 0 0 0 0 127 0"/><feOffset dx=".5" dy="-.3"/><feGaussianBlur stdDeviation=".5"/><feComposite in2="hardAlpha" k2="-1" k3="1" operator="arithmetic"/><feColorMatrix type="matrix" values="0 0 0 0 0.466667 0 0 0 0 0.282353 0 0 0 0 0.313726 0 0 0 1 0"/><feBlend in2="shape" mode="normal" result="effect1_innerShadow_13036_4636"/></filter><filter id="c" color-interpolation-filters="sRGB" filterUnits="userSpaceOnUse" height="3.32968" width="3.52971" x="9.54919" y="8.91791"><feFlood flood-opacity="0" result="BackgroundImageFix"/><feBlend in="SourceGraphic" in2="BackgroundImageFix" mode="normal" result="shape"/><feColorMatrix in="SourceAlpha" result="hardAlpha" type="matrix" values="0 0 0 0 0 0 0 0 0 0 0 0 0 0 0 0 0 0 127 0"/><feOffset dx=".2"/><feGaussianBlur stdDeviation=".15"/><feComposite in2="hardAlpha" k2="-1" k3="1" operator="arithmetic"/><feColorMatrix type="matrix" values="0 0 0 0 0.517647 0 0 0 0 0.384314 0 0 0 0 0.34902 0 0 0 1 0"/><feBlend in2="shape" mode="normal" result="effect1_innerShadow_13036_4636"/></filter><filter id="d" color-interpolation-filters="sRGB" filterUnits="userSpaceOnUse" height="2.98444" width="2.9845" x="9.7218" y="9.09052"><feFlood flood-opacity="0" result="BackgroundImageFix"/><feBlend in="SourceGraphic" in2="BackgroundImageFix" mode="normal" result="shape"/><feGaussianBlur result="effect1_foregroundBlur_13036_4636" stdDeviation=".25"/></filter><filter id="e" color-interpolation-filters="sRGB" filterUnits="userSpaceOnUse" height="3.57968" width="3.57971" x="19.0363" y="8.66791"><feFlood flood-opacity="0" result="BackgroundImageFix"/><feBlend in="SourceGraphic" in2="BackgroundImageFix" mode="normal" result="shape"/><feColorMatrix in="SourceAlpha" result="hardAlpha" type="matrix" values="0 0 0 0 0 0 0 0 0 0 0 0 0 0 0 0 0 0 127 0"/><feOffset dx=".25" dy="-.25"/><feGaussianBlur stdDeviation=".25"/><feComposite in2="hardAlpha" k2="-1" k3="1" operator="arithmetic"/><feColorMatrix type="matrix" values="0 0 0 0 0.482353 0 0 0 0 0.278431 0 0 0 0 0.372549 0 0 0 1 0"/><feBlend in2="shape" mode="normal" result="effect1_innerShadow_13036_4636"/></filter><filter id="f" color-interpolation-filters="sRGB" filterUnits="userSpaceOnUse" height="2.98444" width="2.9845" x="19.2089" y="9.09052"><feFlood flood-opacity="0" result="BackgroundImageFix"/><feBlend in="SourceGraphic" in2="BackgroundImageFix" mode="normal" result="shape"/><feGaussianBlur result="effect1_foregroundBlur_13036_4636" stdDeviation=".25"/></filter><filter id="g" color-interpolation-filters="sRGB" filterUnits="userSpaceOnUse" height="12.0947" width="10.345" x="10.8051" y="4.97382"><feFlood flood-opacity="0" result="BackgroundImageFix"/><feBlend in="SourceGraphic" in2="BackgroundImageFix" mode="normal" result="shape"/><feColorMatrix in="SourceAlpha" result="hardAlpha" type="matrix" values="0 0 0 0 0 0 0 0 0 0 0 0 0 0 0 0 0 0 127 0"/><feOffset dy=".1"/><feGaussianBlur stdDeviation=".125"/><feComposite in2="hardAlpha" k2="-1" k3="1" operator="arithmetic"/><feColorMatrix type="matrix" values="0 0 0 0 0.490196 0 0 0 0 0.298039 0 0 0 0 0.227451 0 0 0 1 0"/><feBlend in2="shape" mode="normal" result="effect1_innerShadow_13036_4636"/></filter><filter id="h" color-interpolation-filters="sRGB" filterUnits="userSpaceOnUse" height="7.0582" width="8.23438" x="14.1183" y="2.97382"><feFlood flood-opacity="0" result="BackgroundImageFix"/><feBlend in="SourceGraphic" in2="BackgroundImageFix" mode="normal" result="shape"/><feGaussianBlur result="effect1_foregroundBlur_13036_4636" stdDeviation="1"/></filter><filter id="i" color-interpolation-filters="sRGB" filterUnits="userSpaceOnUse" height="8.5213" width="12.5668" x="9.66553" y="1.50525"><feFlood flood-opacity="0" result="BackgroundImageFix"/><feBlend in="SourceGraphic" in2="BackgroundImageFix" mode="normal" result="shape"/><feColorMatrix in="SourceAlpha" result="hardAlpha" type="matrix" values="0 0 0 0 0 0 0 0 0 0 0 0 0 0 0 0 0 0 127 0"/><feOffset dy="-.5"/><feGaussianBlur stdDeviation=".375"/><feComposite in2="hardAlpha" k2="-1" k3="1" operator="arithmetic"/><feColorMatrix type="matrix" values="0 0 0 0 0.0392157 0 0 0 0 0.00784314 0 0 0 0 0.0196078 0 0 0 1 0"/><feBlend in2="shape" mode="normal" result="effect1_innerShadow_13036_4636"/></filter><filter id="j" color-interpolation-filters="sRGB" filterUnits="userSpaceOnUse" height="4.17377" width="3.25513" x="14.083" y="9.42932"><feFlood flood-opacity="0" result="BackgroundImageFix"/><feBlend in="SourceGraphic" in2="BackgroundImageFix" mode="normal" result="shape"/><feGaussianBlur result="effect1_foregroundBlur_13036_4636" stdDeviation=".375"/></filter><filter id="k" color-interpolation-filters="sRGB" filterUnits="userSpaceOnUse" height="3.17377" width="2.3717" x="14.7631" y="9.76666"><feFlood flood-opacity="0" result="BackgroundImageFix"/><feBlend in="SourceGraphic" in2="BackgroundImageFix" mode="normal" result="shape"/><feGaussianBlur result="effect1_foregroundBlur_13036_4636" stdDeviation=".125"/></filter><filter id="l" color-interpolation-filters="sRGB" filterUnits="userSpaceOnUse" height=".694812" width=".785083" x="17.3895" y="9.46384"><feFlood flood-opacity="0" result="BackgroundImageFix"/><feBlend in="SourceGraphic" in2="BackgroundImageFix" mode="normal" result="shape"/><feGaussianBlur result="effect1_foregroundBlur_13036_4636" stdDeviation=".05"/></filter><filter id="m" color-interpolation-filters="sRGB" filterUnits="userSpaceOnUse" height=".911871" width=".889746" x="18.2265" y="9.53834"><feFlood flood-opacity="0" result="BackgroundImageFix"/><feBlend in="SourceGraphic" in2="BackgroundImageFix" mode="normal" result="shape"/><feGaussianBlur result="effect1_foregroundBlur_13036_4636" stdDeviation=".1"/></filter><filter id="n" color-interpolation-filters="sRGB" filterUnits="userSpaceOnUse" height="1.03831" width=".984595" x="13.7971" y="9.47511"><feFlood flood-opacity="0" result="BackgroundImageFix"/><feBlend in="SourceGraphic" in2="BackgroundImageFix" mode="normal" result="shape"/><feGaussianBlur result="effect1_foregroundBlur_13036_4636" stdDeviation=".1"/></filter><filter id="o" color-interpolation-filters="sRGB" filterUnits="userSpaceOnUse" height=".702991" width=".910938" x="13.0448" y="9.45566"><feFlood flood-opacity="0" result="BackgroundImageFix"/><feBlend in="SourceGraphic" in2="BackgroundImageFix" mode="normal" result="shape"/><feGaussianBlur result="effect1_foregroundBlur_13036_4636" stdDeviation=".05"/></filter><filter id="p" color-interpolation-filters="sRGB" filterUnits="userSpaceOnUse" height="2.26517" width="1.00745" x="10.796" y="5.40973"><feFlood flood-opacity="0" result="BackgroundImageFix"/><feBlend in="SourceGraphic" in2="BackgroundImageFix" mode="normal" result="shape"/><feGaussianBlur result="effect1_foregroundBlur_13036_4636" stdDeviation=".125"/></filter><filter id="q" color-interpolation-filters="sRGB" filterUnits="userSpaceOnUse" height="1.08229" width="2.69817" x="14.66" y="13.1797"><feFlood flood-opacity="0" result="BackgroundImageFix"/><feBlend in="SourceGraphic" in2="BackgroundImageFix" mode="normal" result="shape"/><feGaussianBlur result="effect1_foregroundBlur_13036_4636" stdDeviation=".05"/></filter><filter id="r" color-interpolation-filters="sRGB" filterUnits="userSpaceOnUse" height=".711993" width="1.22405" x="15.3503" y="14.0853"><feFlood flood-opacity="0" result="BackgroundImageFix"/><feBlend in="SourceGraphic" in2="BackgroundImageFix" mode="normal" result="shape"/><feGaussianBlur result="effect1_foregroundBlur_13036_4636" stdDeviation=".05"/></filter><filter id="s" color-interpolation-filters="sRGB" filterUnits="userSpaceOnUse" height=".75" width="2.98438" x="16.9343" y="7.95532"><feFlood flood-opacity="0" result="BackgroundImageFix"/><feBlend in="SourceGraphic" in2="BackgroundImageFix" mode="normal" result="shape"/><feGaussianBlur result="effect1_foregroundBlur_13036_4636" stdDeviation=".125"/></filter><filter id="t" color-interpolation-filters="sRGB" filterUnits="userSpaceOnUse" height=".75" width="2.98438" x="12.2236" y="7.95532"><feFlood flood-opacity="0" result="BackgroundImageFix"/><feBlend in="SourceGraphic" in2="BackgroundImageFix" mode="normal" result="shape"/><feGaussianBlur result="effect1_foregroundBlur_13036_4636" stdDeviation=".125"/></filter><radialGradient id="u" cx="0" cy="0" gradientTransform="matrix(0 8.31345 -13.7312 0 14.9356 15.2803)" gradientUnits="userSpaceOnUse" r="1"><stop offset=".00450318" stop-color="#185b85"/><stop offset=".572107" stop-color="#3980c2"/></radialGradient><radialGradient id="v" cx="0" cy="0" gradientTransform="matrix(0 -9.09375 4.78449 0 22.3128 23.3178)" gradientUnits="userSpaceOnUse" r="1"><stop offset="0" stop-color="#5ca5ec"/><stop offset="1" stop-color="#5ca5ec" stop-opacity="0"/></radialGradient><linearGradient id="w" gradientUnits="userSpaceOnUse" x1="15.6828" x2="15.6828" y1="29.9427" y2="26.3493"><stop offset="0" stop-color="#3566b7"/><stop offset="1" stop-color="#3566b7" stop-opacity="0"/></linearGradient><radialGradient id="x" cx="0" cy="0" gradientTransform="matrix(2.03637831 1.82563709 -2.2454658 2.50466967 15.3633 16.8042)" gradientUnits="userSpaceOnUse" r="1"><stop offset=".219072" stop-color="#563435"/><stop offset=".962246" stop-color="#76595a"/></radialGradient><radialGradient id="y" cx="0" cy="0" gradientTransform="matrix(-.74873686 -4.29684308 1.65203631 -.28787192 24.8384 23.3602)" gradientUnits="userSpaceOnUse" r="1"><stop offset=".0325946" stop-color="#5da0e2"/><stop offset="1" stop-color="#4f94d1"/></radialGradient><linearGradient id="z" gradientUnits="userSpaceOnUse" x1="22.6788" x2="23.6563" y1="23.3993" y2="23.3295"><stop offset=".197348" stop-color="#1979ba"/><stop offset="1" stop-color="#1979ba" stop-opacity="0"/></linearGradient><radialGradient id="A" cx="0" cy="0" gradientTransform="matrix(2.97917116 .60514461 -1.64344792 8.09081426 5.75799 22.7709)" gradientUnits="userSpaceOnUse" r="1"><stop offset=".179105" stop-color="#5e7da4"/><stop offset="1" stop-color="#376c9c"/><stop offset="1" stop-color="#3c6287"/></radialGradient><radialGradient id="B" cx="0" cy="0" gradientTransform="matrix(0 -3.91264 .529699 0 8.65829 24.7184)" gradientUnits="userSpaceOnUse" r="1"><stop offset="0" stop-color="#3c6998"/><stop offset="1" stop-color="#3c6998" stop-opacity="0"/></radialGradient><radialGradient id="C" cx="0" cy="0" gradientTransform="matrix(14.39624438 1.34674445 -.4674854 4.99726139 16.6678 24.8473)" gradientUnits="userSpaceOnUse" r="1"><stop offset="0" stop-color="#84615d"/><stop offset="1" stop-color="#8e5c61"/></radialGradient><radialGradient id="D" cx="0" cy="0" gradientTransform="matrix(.71875126 1.62500095 -6.53755461 2.89161408 17.2504 26.2237)" gradientUnits="userSpaceOnUse" r="1"><stop offset=".177833" stop-color="#65354f"/><stop offset="1" stop-color="#65354f" stop-opacity="0"/></radialGradient><radialGradient id="E" cx="0" cy="0" gradientTransform="matrix(-6.0935664 1.55481638 -.17180068 -.67331351 26.9692 25.0677)" gradientUnits="userSpaceOnUse" r="1"><stop offset="0" stop-color="#9a7268"/><stop offset="1" stop-color="#9a7268" stop-opacity="0"/></radialGradient><radialGradient id="F" cx="0" cy="0" gradientTransform="matrix(-.50000299 -2.49999965 6.91726941 -1.38346236 13.3129 24.9737)" gradientUnits="userSpaceOnUse" r="1"><stop offset="0" stop-color="#6d5249"/><stop offset="1" stop-color="#6d5249" stop-opacity="0"/></radialGradient><radialGradient id="G" cx="0" cy="0" gradientTransform="matrix(.76449838 3.00702967 -22.88623769 5.81852978 16.1962 25.2021)" gradientUnits="userSpaceOnUse" r="1"><stop offset="0" stop-color="#9b716a"/><stop offset=".478744" stop-color="#8a665a"/></radialGradient><linearGradient id="H" gradientUnits="userSpaceOnUse" x1="16.7503" x2="15.9691" y1="28.5675" y2="25.4425"><stop offset="0" stop-color="#804b62"/><stop offset="1" stop-color="#804b62" stop-opacity="0"/></linearGradient><radialGradient id="I" cx="0" cy="0" gradientTransform="matrix(1.75001 0 0 3.06254 9.54919 10.5828)" gradientUnits="userSpaceOnUse" r="1"><stop offset=".350532" stop-color="#664249"/><stop offset="1" stop-color="#613641"/></radialGradient><linearGradient id="J" gradientUnits="userSpaceOnUse" x1="11.214" x2="10.5752" y1="10.8606" y2="10.8606"><stop offset="0" stop-color="#553038"/><stop offset="1" stop-color="#59323c"/></linearGradient><linearGradient id="K" gradientUnits="userSpaceOnUse" x1="21.7845" x2="20.9681" y1="9.49421" y2="12.0235"><stop offset="0" stop-color="#96776b"/><stop offset="1" stop-color="#855a5b"/></linearGradient><radialGradient id="L" cx="0" cy="0" gradientTransform="matrix(.82441934 -.60030457 .68516848 .94096592 21.0722 10.3186)" gradientUnits="userSpaceOnUse" r="1"><stop offset=".542503" stop-color="#7c524c"/><stop offset="1" stop-color="#7c524c" stop-opacity="0"/></radialGradient><radialGradient id="M" cx="0" cy="0" gradientTransform="matrix(.818991 -1.50635551 .88167394 .47935764 20.6598 11.4017)" gradientUnits="userSpaceOnUse" r="1"><stop offset=".754913" stop-color="#73443e" stop-opacity="0"/><stop offset=".915553" stop-color="#73443e"/></radialGradient><radialGradient id="N" cx="0" cy="0" gradientTransform="matrix(.25857151 .25594663 -.32995098 .33333483 20.7011 10.5827)" gradientUnits="userSpaceOnUse" r="1"><stop offset="0" stop-color="#6c443e"/><stop offset="1" stop-color="#6c443e" stop-opacity="0"/></radialGradient><linearGradient id="O" gradientUnits="userSpaceOnUse" x1="19.9736" x2="12.3579" y1="10.9711" y2="12.106"><stop offset="0" stop-color="#9b6c5e"/><stop offset="1" stop-color="#744d4a"/></linearGradient><radialGradient id="P" cx="0" cy="0" gradientTransform="matrix(0 -1.30347 1.60427 0 18.2884 9.31478)" gradientUnits="userSpaceOnUse" r="1"><stop offset="0" stop-color="#855354"/><stop offset="1" stop-color="#855354" stop-opacity="0"/></radialGradient><radialGradient id="Q" cx="0" cy="0" gradientTransform="matrix(0 -1.37031 1.7041 0 13.743 9.44847)" gradientUnits="userSpaceOnUse" r="1"><stop offset="0" stop-color="#6f414d"/><stop offset="1" stop-color="#6f414d" stop-opacity="0"/></radialGradient><linearGradient id="R" gradientUnits="userSpaceOnUse" x1="10.5679" x2="12.4441" y1="13.6597" y2="13.5928"><stop offset="0" stop-color="#84615a"/><stop offset="1" stop-color="#84615a" stop-opacity="0"/></linearGradient><linearGradient id="S" gradientUnits="userSpaceOnUse" x1="20.7997" x2="19.7469" y1="12.8241" y2="12.7238"><stop offset="0" stop-color="#966d5f"/><stop offset="1" stop-color="#966d5f" stop-opacity="0"/></linearGradient><radialGradient id="T" cx="0" cy="0" gradientTransform="matrix(0 8.15502 -11.07 0 15.648 8.81345)" gradientUnits="userSpaceOnUse" r="1"><stop offset=".710425" stop-color="#7e5550" stop-opacity="0"/><stop offset="1" stop-color="#70434b"/></radialGradient><linearGradient id="U" gradientUnits="userSpaceOnUse" x1="15.9775" x2="15.9775" y1="16.0504" y2="17.0968"><stop offset=".532839" stop-color="#583e53" stop-opacity="0"/><stop offset="1" stop-color="#583e53"/></linearGradient><linearGradient id="V" gradientUnits="userSpaceOnUse" x1="15.4187" x2="23.5403" y1="7.9946" y2="5.08687"><stop offset="0" stop-color="#a27b71"/><stop offset="1" stop-color="#a27b71" stop-opacity="0"/></linearGradient><radialGradient id="W" cx="0" cy="0" gradientTransform="matrix(.79561393 -2.94845125 1.09337278 .29503714 20.282 6.48783)" gradientUnits="userSpaceOnUse" r="1"><stop offset="0" stop-color="#544649"/><stop offset="1" stop-color="#544649" stop-opacity="0"/></radialGradient><radialGradient id="X" cx="0" cy="0" gradientTransform="matrix(3.81426347 .3510059 -.18873355 2.05090425 18.644 4.7328)" gradientUnits="userSpaceOnUse" r="1"><stop offset=".230943" stop-color="#544649"/><stop offset="1" stop-color="#544649" stop-opacity="0"/></radialGradient><radialGradient id="Y" cx="0" cy="0" gradientTransform="matrix(0 1.67453 -2.59338 0 15.9489 2.00525)" gradientUnits="userSpaceOnUse" r="1"><stop offset="0" stop-color="#3e3034"/><stop offset="1" stop-color="#3e3034" stop-opacity="0"/></radialGradient><radialGradient id="Z" cx="0" cy="0" gradientTransform="matrix(3.06544454 -2.24643495 3.51943347 4.80255532 9.51787 8.80446)" gradientUnits="userSpaceOnUse" r="1"><stop offset="0" stop-color="#453938"/><stop offset="1" stop-color="#453938" stop-opacity="0"/></radialGradient><linearGradient id="aa" gradientUnits="userSpaceOnUse" x1="15.0871" x2="16.0227" y1="11.6286" y2="11.6286"><stop offset="0" stop-color="#754e46"/><stop offset="1" stop-color="#754e46" stop-opacity="0"/></linearGradient><linearGradient id="ab" gradientUnits="userSpaceOnUse" x1="16.8847" x2="15.8619" y1="11.9502" y2="11.9356"><stop offset="0" stop-color="#9d766b"/><stop offset="1" stop-color="#9d766b" stop-opacity="0"/></linearGradient><linearGradient id="ac" gradientUnits="userSpaceOnUse" x1="16.1429" x2="16.1429" y1="12.6904" y2="12.119"><stop offset="0" stop-color="#7c4559"/><stop offset="1" stop-color="#7c4559" stop-opacity="0"/></linearGradient><radialGradient id="ad" cx="0" cy="0" gradientTransform="matrix(0 .196355 -.630845 0 16.2752 12.1849)" gradientUnits="userSpaceOnUse" r="1"><stop offset="0" stop-color="#976f6a"/><stop offset="1" stop-color="#976f6a" stop-opacity="0"/></radialGradient><linearGradient id="ae" gradientUnits="userSpaceOnUse" x1="16.0742" x2="16.0742" y1="12.7322" y2="12.5651"><stop offset="0" stop-color="#743b4a"/><stop offset="1" stop-color="#743b4a" stop-opacity="0"/></linearGradient><linearGradient id="af"><stop offset=".80198" stop-color="#7d574a"/><stop offset="1" stop-color="#694b43"/><stop offset="1" stop-color="#804d49"/><stop offset="1" stop-color="#664944"/></linearGradient><radialGradient id="ag" cx="0" cy="0" gradientTransform="matrix(0 .80889 -1.28663 0 18.1218 9.90266)" gradientUnits="userSpaceOnUse" r="1" xlink:href="#af"/><linearGradient id="ah"><stop offset=".765532" stop-color="#ffe6e2" stop-opacity="0"/><stop offset=".966159" stop-color="#ffe6e2"/></linearGradient><radialGradient id="ai" cx="0" cy="0" gradientTransform="matrix(-.23122276 -.2979617 .41022212 -.31833852 17.8942 9.98654)" gradientUnits="userSpaceOnUse" r="1" xlink:href="#ah"/><linearGradient id="aj"><stop offset="0" stop-color="#b4948d"/><stop offset="1" stop-color="#b4948d" stop-opacity="0"/></linearGradient><linearGradient id="ak" gradientUnits="userSpaceOnUse" x1="18.8973" x2="18.5845" xlink:href="#aj" y1="9.95636" y2="10.1491"/><radialGradient id="al" cx="0" cy="0" gradientTransform="matrix(0 .808931 -1.2867 0 13.7708 9.90262)" gradientUnits="userSpaceOnUse" r="1" xlink:href="#af"/><linearGradient id="am" gradientUnits="userSpaceOnUse" x1="14.5124" x2="14.1995" xlink:href="#aj" y1="9.95634" y2="10.1491"/><radialGradient id="an" cx="0" cy="0" gradientTransform="matrix(-.00771264 -.49260363 .59213043 -.00927092 13.4852 10.1212)" gradientUnits="userSpaceOnUse" r="1" xlink:href="#ah"/><linearGradient id="ao" gradientUnits="userSpaceOnUse" x1="11.2997" x2="11.2997" y1="5.68629" y2="7.83735"><stop offset=".227964" stop-color="#32272d"/><stop offset="1" stop-color="#32272d" stop-opacity="0"/></linearGradient><linearGradient id="ap"><stop offset="0" stop-color="#8f6b68"/><stop offset="1" stop-color="#8f6b68" stop-opacity="0"/></linearGradient><radialGradient id="aq" cx="0" cy="0" gradientTransform="matrix(.17968753 -.34375 .82581674 .43167701 16.6409 14.0209)" gradientUnits="userSpaceOnUse" r="1" xlink:href="#ap"/><radialGradient id="ar" cx="0" cy="0" gradientTransform="matrix(.34765603 -.12890616 .07838563 .21140367 14.8167 14.017)" gradientUnits="userSpaceOnUse" r="1" xlink:href="#ap"/><radialGradient id="as" cx="0" cy="0" gradientTransform="matrix(.66015664 -.25599824 .18909895 .48763978 15.6254 14.6973)" gradientUnits="userSpaceOnUse" r="1"><stop offset="0" stop-color="#79524b"/><stop offset="1" stop-color="#713d33"/></radialGradient><linearGradient id="at"><stop offset="0" stop-color="#32242c"/><stop offset="1" stop-color="#32242c" stop-opacity="0"/></linearGradient><linearGradient id="au" gradientUnits="userSpaceOnUse" x1="13.8527" x2="13.8527" xlink:href="#at" y1="8.93185" y2="8.68967"/><linearGradient id="av" gradientUnits="userSpaceOnUse" x1="18.6199" x2="18.6199" xlink:href="#at" y1="8.93185" y2="8.68967"/><path d="m9.15671 24.7552-3.90537.1835c.57745-5.253 5.02976-9.3397 10.43666-9.3397h.625c5.4144 0 9.8717 4.0982 10.439 9.3619l-4.377-.2057v5.1875h-13.21829z" fill="url(#u)"/><path d="m9.15671 24.7552-3.90537.1835c.57745-5.253 5.02976-9.3397 10.43666-9.3397h.625c5.4144 0 9.8717 4.0982 10.439 9.3619l-4.377-.2057v5.1875h-13.21829z" fill="url(#v)"/><path d="m9.15671 24.7552-3.90537.1835c.57745-5.253 5.02976-9.3397 10.43666-9.3397h.625c5.4144 0 9.8717 4.0982 10.439 9.3619l-4.377-.2057v5.1875h-13.21829z" fill="url(#w)"/><rect fill="url(#x)" height="6.02758" rx="2.11145" width="4.2229" x="13.8756" y="12.6933"/><path d="m22.9249 17.9418c2.0951 1.7003 3.5224 4.1916 3.8271 7.0191l-3.8271-.1798z" fill="url(#y)"/><path d="m22.9249 17.9418c2.0951 1.7003 3.5224 4.1916 3.8271 7.0191l-3.8271-.1798z" fill="url(#z)"/><path d="m5.25134 24.9387 3.8468-.16.0586.1821h.03125v-7.1086c-2.15064 1.6974-3.62134 4.2181-3.93665 7.0865z" fill="url(#A)"/><path d="m5.25134 24.9387 3.8468-.16.0586.1821h.03125v-7.1086c-2.15064 1.6974-3.62134 4.2181-3.93665 7.0865z" fill="url(#B)"/><g filter="url(#a)"><path d="m26.3745 28.5365c.6-1.05.4532-2.8125.375-3.5977l-3.9375-.168c-.4125.2125-1.526.0886-2.0312 0l-8.8974-1.4062c-.6172-.1172-2.09649-.2317-2.77341.1328-.76563.4123-1 1.1927-.9375 1.5781 4.27081 1.5313 12.63171 4.5625 13.75671 4.8125 1.8203.3125 3.6953-.039 4.4453-1.3515z" fill="url(#C)"/></g><path d="m26.3745 28.5365c.6-1.05.4532-2.8125.375-3.5977l-3.9375-.168c-.4125.2125-1.526.0886-2.0312 0l-8.8974-1.4062c-.6172-.1172-2.09649-.2317-2.77341.1328-.76563.4123-1 1.1927-.9375 1.5781 4.27081 1.5313 12.63171 4.5625 13.75671 4.8125 1.8203.3125 3.6953-.039 4.4453-1.3515z" fill="url(#D)"/><path d="m26.3745 28.5365c.6-1.05.4532-2.8125.375-3.5977l-3.9375-.168c-.4125.2125-1.526.0886-2.0312 0l-8.8974-1.4062c-.6172-.1172-2.09649-.2317-2.77341.1328-.76563.4123-1 1.1927-.9375 1.5781 4.27081 1.5313 12.63171 4.5625 13.75671 4.8125 1.8203.3125 3.6953-.039 4.4453-1.3515z" fill="url(#E)"/><path d="m26.3745 28.5365c.6-1.05.4532-2.8125.375-3.5977l-3.9375-.168c-.4125.2125-1.526.0886-2.0312 0l-8.8974-1.4062c-.6172-.1172-2.09649-.2317-2.77341.1328-.76563.4123-1 1.1927-.9375 1.5781 4.27081 1.5313 12.63171 4.5625 13.75671 4.8125 1.8203.3125 3.6953-.039 4.4453-1.3515z" fill="url(#F)"/><g filter="url(#b)"><path d="m5.62548 28.5365c-.6-1.05-.45314-2.8125-.375-3.5976l3.9375-.168c.4125.2125 1.52602.0885 2.03122 0l9.6719-1.5625c.6172-.1172 1.4481-.177 2.125.1875.7282.3921.7002.9653.642 1.352-.0055.036-.0291.0653-.0634.0776-4.2854 1.5396-12.4036 4.8136-13.5239 5.0626-1.82032.3125-3.69532-.0391-4.44532-1.3516z" fill="url(#G)"/><path d="m5.62548 28.5365c-.6-1.05-.45314-2.8125-.375-3.5976l3.9375-.168c.4125.2125 1.52602.0885 2.03122 0l9.6719-1.5625c.6172-.1172 1.4481-.177 2.125.1875.7282.3921.7002.9653.642 1.352-.0055.036-.0291.0653-.0634.0776-4.2854 1.5396-12.4036 4.8136-13.5239 5.0626-1.82032.3125-3.69532-.0391-4.44532-1.3516z" fill="url(#H)"/></g><g filter="url(#c)"><circle cx="11.214" cy="10.5828" fill="url(#I)" r="1.66484"/></g><g filter="url(#d)"><circle cx="11.214" cy="10.5827" fill="url(#J)" r=".992222"/></g><g filter="url(#e)"><circle cx="20.7011" cy="10.5828" fill="url(#K)" r="1.66484"/><circle cx="20.7011" cy="10.5828" fill="url(#L)" r="1.66484"/></g><g filter="url(#f)"><circle cx="20.7011" cy="10.5827" fill="#7a5654" r=".992222"/><circle cx="20.7011" cy="10.5827" fill="url(#M)" r=".992222"/><circle cx="20.7011" cy="10.5827" fill="url(#N)" r=".992222"/></g><g filter="url(#g)"><path d="m10.8631 9.97169c.0162.00111.0325.00167.0489.00167 0 0-.0535-.85099-.1069-1.43604 0-.26594.1069-.58506.3209-.74461l.1605-.15956c.2674-.21275.3744-.53187.3744-.85099v-.85099c0-.26593.1605-.47867.4279-.53186.6419-.15956 1.9792-.42549 3.9049-.42549s3.263.26593 3.9049.42549c.2139.05319.4279.26593.4279.53186v.85099c0 .31912.1605.63824.3744.85099.5007.35085.4696.54382.428.95735-.0535.53187-.107 1.436-.107 1.436.006 0 .0121 0 .018-.0002l-.2651 3.9475c-.1601 1.7647-1.5474 2.9947-3.2015 2.9947h-3.2015c-1.7075 0-3.0414-1.23-3.2015-2.9947z" fill="url(#O)"/><path d="m10.8631 9.97169c.0162.00111.0325.00167.0489.00167 0 0-.0535-.85099-.1069-1.43604 0-.26594.1069-.58506.3209-.74461l.1605-.15956c.2674-.21275.3744-.53187.3744-.85099v-.85099c0-.26593.1605-.47867.4279-.53186.6419-.15956 1.9792-.42549 3.9049-.42549s3.263.26593 3.9049.42549c.2139.05319.4279.26593.4279.53186v.85099c0 .31912.1605.63824.3744.85099.5007.35085.4696.54382.428.95735-.0535.53187-.107 1.436-.107 1.436.006 0 .0121 0 .018-.0002l-.2651 3.9475c-.1601 1.7647-1.5474 2.9947-3.2015 2.9947h-3.2015c-1.7075 0-3.0414-1.23-3.2015-2.9947z" fill="url(#P)"/><path d="m10.8631 9.97169c.0162.00111.0325.00167.0489.00167 0 0-.0535-.85099-.1069-1.43604 0-.26594.1069-.58506.3209-.74461l.1605-.15956c.2674-.21275.3744-.53187.3744-.85099v-.85099c0-.26593.1605-.47867.4279-.53186.6419-.15956 1.9792-.42549 3.9049-.42549s3.263.26593 3.9049.42549c.2139.05319.4279.26593.4279.53186v.85099c0 .31912.1605.63824.3744.85099.5007.35085.4696.54382.428.95735-.0535.53187-.107 1.436-.107 1.436.006 0 .0121 0 .018-.0002l-.2651 3.9475c-.1601 1.7647-1.5474 2.9947-3.2015 2.9947h-3.2015c-1.7075 0-3.0414-1.23-3.2015-2.9947z" fill="url(#Q)"/></g><path d="m10.8631 9.97169c.0162.00111.0325.00167.0489.00167 0 0-.0535-.85099-.1069-1.43604 0-.26594.1069-.58506.3209-.74461l.1605-.15956c.2674-.21275.3744-.53187.3744-.85099v-.85099c0-.26593.1605-.47867.4279-.53186.6419-.15956 1.9792-.42549 3.9049-.42549s3.263.26593 3.9049.42549c.2139.05319.4279.26593.4279.53186v.85099c0 .31912.1605.63824.3744.85099.5007.35085.4696.54382.428.95735-.0535.53187-.107 1.436-.107 1.436.006 0 .0121 0 .018-.0002l-.2651 3.9475c-.1601 1.7647-1.5474 2.9947-3.2015 2.9947h-3.2015c-1.7075 0-3.0414-1.23-3.2015-2.9947z" fill="url(#R)"/><path d="m10.8631 9.97169c.0162.00111.0325.00167.0489.00167 0 0-.0535-.85099-.1069-1.43604 0-.26594.1069-.58506.3209-.74461l.1605-.15956c.2674-.21275.3744-.53187.3744-.85099v-.85099c0-.26593.1605-.47867.4279-.53186.6419-.15956 1.9792-.42549 3.9049-.42549s3.263.26593 3.9049.42549c.2139.05319.4279.26593.4279.53186v.85099c0 .31912.1605.63824.3744.85099.5007.35085.4696.54382.428.95735-.0535.53187-.107 1.436-.107 1.436.006 0 .0121 0 .018-.0002l-.2651 3.9475c-.1601 1.7647-1.5474 2.9947-3.2015 2.9947h-3.2015c-1.7075 0-3.0414-1.23-3.2015-2.9947z" fill="url(#S)"/><path d="m10.8631 9.97169c.0162.00111.0325.00167.0489.00167 0 0-.0535-.85099-.1069-1.43604 0-.26594.1069-.58506.3209-.74461l.1605-.15956c.2674-.21275.3744-.53187.3744-.85099v-.85099c0-.26593.1605-.47867.4279-.53186.6419-.15956 1.9792-.42549 3.9049-.42549s3.263.26593 3.9049.42549c.2139.05319.4279.26593.4279.53186v.85099c0 .31912.1605.63824.3744.85099.5007.35085.4696.54382.428.95735-.0535.53187-.107 1.436-.107 1.436.006 0 .0121 0 .018-.0002l-.2651 3.9475c-.1601 1.7647-1.5474 2.9947-3.2015 2.9947h-3.2015c-1.7075 0-3.0414-1.23-3.2015-2.9947z" fill="url(#T)"/><path d="m10.8631 9.97169c.0162.00111.0325.00167.0489.00167 0 0-.0535-.85099-.1069-1.43604 0-.26594.1069-.58506.3209-.74461l.1605-.15956c.2674-.21275.3744-.53187.3744-.85099v-.85099c0-.26593.1605-.47867.4279-.53186.6419-.15956 1.9792-.42549 3.9049-.42549s3.263.26593 3.9049.42549c.2139.05319.4279.26593.4279.53186v.85099c0 .31912.1605.63824.3744.85099.5007.35085.4696.54382.428.95735-.0535.53187-.107 1.436-.107 1.436.006 0 .0121 0 .018-.0002l-.2651 3.9475c-.1601 1.7647-1.5474 2.9947-3.2015 2.9947h-3.2015c-1.7075 0-3.0414-1.23-3.2015-2.9947z" fill="url(#U)"/><g filter="url(#h)"><path d="m19.9015 4.97382-3.069 1.02318c-.5225.1742-.8199.72428-.6795 1.25688.1342.50913.6265.8387 1.1484.76883l3.0513-.40854z" fill="url(#V)"/></g><g filter="url(#i)"><path d="m20.7545 4.12287.4279.21275c.7489.3723 1.1768 1.22329 1.0163 2.12746l-.5884 3.03164c-.0524.3131-.2594.52378-.5703.53168-.006.0001-.012.0002-.0181.0002 0 0 .0535-.90422.107-1.43608.0435-.43191-.0319-.56366-.4279-.95736-.214-.21275-.3744-.53187-.3744-.85099v-.85098c0-.26594-.214-.47868-.428-.53187-.6419-.15956-1.9791-.42549-3.9048-.42549s-3.263.26593-3.9049.42549c-.2675.05319-.4279.26593-.4279.53187v.85098c0 .31912-.107.63824-.3745.85099l-.1604.15956c-.214.15956-.321.47868-.321.74461.0535.58505.107 1.43604.107 1.43604-.0165 0-.0328-.00056-.0489-.00167-.2989-.02043-.5423-.22741-.593-.53017l-.5884-3.03164c-.10699-.85098.3209-1.70197 1.0698-2.07427l.428-.21275c.2674-.15956.5349-.3723.8023-.58505l.9629-1.01055c.5884-.53186 1.4442-.69142 2.1931-.31912.5349.15956 1.1233.15956 1.6582 0 .8024-.26593 1.7118-.05318 2.3536.53187l.8024.7978c.214.26593.4814.42549.8024.58505z" fill="#39262c"/><path d="m20.7545 4.12287.4279.21275c.7489.3723 1.1768 1.22329 1.0163 2.12746l-.5884 3.03164c-.0524.3131-.2594.52378-.5703.53168-.006.0001-.012.0002-.0181.0002 0 0 .0535-.90422.107-1.43608.0435-.43191-.0319-.56366-.4279-.95736-.214-.21275-.3744-.53187-.3744-.85099v-.85098c0-.26594-.214-.47868-.428-.53187-.6419-.15956-1.9791-.42549-3.9048-.42549s-3.263.26593-3.9049.42549c-.2675.05319-.4279.26593-.4279.53187v.85098c0 .31912-.107.63824-.3745.85099l-.1604.15956c-.214.15956-.321.47868-.321.74461.0535.58505.107 1.43604.107 1.43604-.0165 0-.0328-.00056-.0489-.00167-.2989-.02043-.5423-.22741-.593-.53017l-.5884-3.03164c-.10699-.85098.3209-1.70197 1.0698-2.07427l.428-.21275c.2674-.15956.5349-.3723.8023-.58505l.9629-1.01055c.5884-.53186 1.4442-.69142 2.1931-.31912.5349.15956 1.1233.15956 1.6582 0 .8024-.26593 1.7118-.05318 2.3536.53187l.8024.7978c.214.26593.4814.42549.8024.58505z" fill="url(#W)"/><path d="m20.7545 4.12287.4279.21275c.7489.3723 1.1768 1.22329 1.0163 2.12746l-.5884 3.03164c-.0524.3131-.2594.52378-.5703.53168-.006.0001-.012.0002-.0181.0002 0 0 .0535-.90422.107-1.43608.0435-.43191-.0319-.56366-.4279-.95736-.214-.21275-.3744-.53187-.3744-.85099v-.85098c0-.26594-.214-.47868-.428-.53187-.6419-.15956-1.9791-.42549-3.9048-.42549s-3.263.26593-3.9049.42549c-.2675.05319-.4279.26593-.4279.53187v.85098c0 .31912-.107.63824-.3745.85099l-.1604.15956c-.214.15956-.321.47868-.321.74461.0535.58505.107 1.43604.107 1.43604-.0165 0-.0328-.00056-.0489-.00167-.2989-.02043-.5423-.22741-.593-.53017l-.5884-3.03164c-.10699-.85098.3209-1.70197 1.0698-2.07427l.428-.21275c.2674-.15956.5349-.3723.8023-.58505l.9629-1.01055c.5884-.53186 1.4442-.69142 2.1931-.31912.5349.15956 1.1233.15956 1.6582 0 .8024-.26593 1.7118-.05318 2.3536.53187l.8024.7978c.214.26593.4814.42549.8024.58505z" fill="url(#X)"/><path d="m20.7545 4.12287.4279.21275c.7489.3723 1.1768 1.22329 1.0163 2.12746l-.5884 3.03164c-.0524.3131-.2594.52378-.5703.53168-.006.0001-.012.0002-.0181.0002 0 0 .0535-.90422.107-1.43608.0435-.43191-.0319-.56366-.4279-.95736-.214-.21275-.3744-.53187-.3744-.85099v-.85098c0-.26594-.214-.47868-.428-.53187-.6419-.15956-1.9791-.42549-3.9048-.42549s-3.263.26593-3.9049.42549c-.2675.05319-.4279.26593-.4279.53187v.85098c0 .31912-.107.63824-.3745.85099l-.1604.15956c-.214.15956-.321.47868-.321.74461.0535.58505.107 1.43604.107 1.43604-.0165 0-.0328-.00056-.0489-.00167-.2989-.02043-.5423-.22741-.593-.53017l-.5884-3.03164c-.10699-.85098.3209-1.70197 1.0698-2.07427l.428-.21275c.2674-.15956.5349-.3723.8023-.58505l.9629-1.01055c.5884-.53186 1.4442-.69142 2.1931-.31912.5349.15956 1.1233.15956 1.6582 0 .8024-.26593 1.7118-.05318 2.3536.53187l.8024.7978c.214.26593.4814.42549.8024.58505z" fill="url(#Y)"/><path d="m20.7545 4.12287.4279.21275c.7489.3723 1.1768 1.22329 1.0163 2.12746l-.5884 3.03164c-.0524.3131-.2594.52378-.5703.53168-.006.0001-.012.0002-.0181.0002 0 0 .0535-.90422.107-1.43608.0435-.43191-.0319-.56366-.4279-.95736-.214-.21275-.3744-.53187-.3744-.85099v-.85098c0-.26594-.214-.47868-.428-.53187-.6419-.15956-1.9791-.42549-3.9048-.42549s-3.263.26593-3.9049.42549c-.2675.05319-.4279.26593-.4279.53187v.85098c0 .31912-.107.63824-.3745.85099l-.1604.15956c-.214.15956-.321.47868-.321.74461.0535.58505.107 1.43604.107 1.43604-.0165 0-.0328-.00056-.0489-.00167-.2989-.02043-.5423-.22741-.593-.53017l-.5884-3.03164c-.10699-.85098.3209-1.70197 1.0698-2.07427l.428-.21275c.2674-.15956.5349-.3723.8023-.58505l.9629-1.01055c.5884-.53186 1.4442-.69142 2.1931-.31912.5349.15956 1.1233.15956 1.6582 0 .8024-.26593 1.7118-.05318 2.3536.53187l.8024.7978c.214.26593.4814.42549.8024.58505z" fill="url(#Z)"/></g><g filter="url(#j)"><path d="m15.6743 10.4609-.8181 1.6949c-.1014.3487.142.6973.4868.6973h.7351c.3448 0 .5882-.354.4868-.6973l-.4969-1.6949c-.1065-.3754-.2822-.3754-.3937 0z" fill="#71404a"/></g><g filter="url(#k)"><path d="m15.5677 10.2983-.5299 1.6949c-.1081.3486.1514.6972.5191.6972h.784c.3677 0 .6272-.354.5191-.6972l-.5299-1.6949c-.1136-.3755-.6435-.3755-.7624 0z" fill="#8c5f5e"/><path d="m15.5677 10.2983-.5299 1.6949c-.1081.3486.1514.6972.5191.6972h.784c.3677 0 .6272-.354.5191-.6972l-.5299-1.6949c-.1136-.3755-.6435-.3755-.7624 0z" fill="url(#aa)"/><path d="m15.5677 10.2983-.5299 1.6949c-.1081.3486.1514.6972.5191.6972h.784c.3677 0 .6272-.354.5191-.6972l-.5299-1.6949c-.1136-.3755-.6435-.3755-.7624 0z" fill="url(#ab)"/><path d="m15.5677 10.2983-.5299 1.6949c-.1081.3486.1514.6972.5191.6972h.784c.3677 0 .6272-.354.5191-.6972l-.5299-1.6949c-.1136-.3755-.6435-.3755-.7624 0z" fill="url(#ac)"/><path d="m15.5677 10.2983-.5299 1.6949c-.1081.3486.1514.6972.5191.6972h.784c.3677 0 .6272-.354.5191-.6972l-.5299-1.6949c-.1136-.3755-.6435-.3755-.7624 0z" fill="url(#ad)"/></g><path d="m15.5677 10.2983-.5299 1.6949c-.1081.3486.1514.6972.5191.6972h.784c.3677 0 .6272-.354.5191-.6972l-.5299-1.6949c-.1136-.3755-.6435-.3755-.7624 0z" fill="url(#ae)"/><path d="m18.33 9.15607c.6512 0 1.2012.44893 1.3509 1.05563.0444.1739-.089.3397-.267.3397h-2.2244c-.1416 0-.2548-.1294-.2265-.271.1254-.639.6875-1.12433 1.367-1.12433z" fill="#fff"/><path d="m18.1238 9.42706c.4934 0 .8898.4004.8898.88974 0 .0809-.0122.1618-.0324.2346h-1.7189c-.0202-.0768-.0323-.1537-.0323-.2346 0-.48934.4004-.88974.8938-.88974z" fill="url(#ag)"/><path d="m17.6141 10.3168c0-.2831.2265-.50961.5096-.50961s.5096.22651.5096.50961c0 .0849-.0202.1658-.0566.2346h-.9019c-.0404-.0688-.0607-.1497-.0607-.2346z" fill="#000"/><g filter="url(#l)"><path d="m18.0583 9.61516c.0634.08479-.0691.18815-.2197.3008-.1507.11264-.2625.19194-.3259.10714s.0074-.24485.158-.35749c.1507-.11265.3242-.13523.3876-.05045z" fill="#c7a7a3"/><path d="m18.0583 9.61516c.0634.08479-.0691.18815-.2197.3008-.1507.11264-.2625.19194-.3259.10714s.0074-.24485.158-.35749c.1507-.11265.3242-.13523.3876-.05045z" fill="url(#ai)"/></g><g filter="url(#m)"><path d="m18.9163 10.1997c-.0329-.23007-.1675-.40343-.2307-.46136l-.2591.28436.1169.2275z" fill="url(#ak)"/></g><path d="m13.5625 9.15601c-.6511 0-1.2012.44895-1.3509 1.05569-.0445.1739.089.3397.267.3397h2.2245c.1416 0 .2548-.1294.2265-.271-.1254-.63904-.6916-1.12439-1.3671-1.12439z" fill="#fff"/><path d="m13.7687 9.427c-.4934 0-.8898.40042-.8898.8898 0 .0809.0121.1618.0324.2346h1.7189c.0203-.0768.0324-.1537.0324-.2346-.004-.48938-.4004-.8898-.8939-.8898z" fill="url(#al)"/><path d="m14.2784 10.3168c0-.2831-.2265-.50961-.5096-.50961s-.5096.22651-.5096.50961c0 .085.0202.1658.0566.2346h.9019c.0364-.0688.0607-.1496.0607-.2346z" fill="#000"/><g filter="url(#n)"><path d="m14.5816 10.2123c0-.28756-.2338-.47926-.297-.53719l-.2875.27807.1769.36022z" fill="url(#am)"/></g><g filter="url(#o)"><ellipse cx="13.5002" cy="9.80717" fill="#c7a7a3" fill-opacity=".9" rx=".388456" ry=".196594" transform="matrix(.88365127 -.46814574 .46814574 .88365127 -3.020454 7.461113)"/><ellipse cx="13.5002" cy="9.80717" fill="url(#an)" rx=".388456" ry=".196594" transform="matrix(.88365127 -.46814574 .46814574 .88365127 -3.020454 7.461113)"/></g><g filter="url(#p)"><path d="m11.4284 5.78473v.89506c-.0078.1482-.0702.47971-.2574.62011" stroke="url(#ao)" stroke-linecap="round" stroke-width=".25"/></g><g style="filter:url(#q);fill-rule:evenodd;clip-rule:evenodd;stroke-width:.2;stroke-linecap:round;stroke-linejoin:round"><path d="m16.8455 14.0272c-.4846-.3302-1.1926-.3297-1.6723-.0004-.0911.0626-.2156.0394-.2781-.0516-.0625-.0911-.0394-.2156.0517-.2781.6166-.4234 1.504-.4229 2.124-.0004.0912.0622.1148.1866.0526.2779s-.1866.1148-.2779.0526z" stroke="url(#aq)"/><path d="m16.8455 14.0272c-.4846-.3302-1.1926-.3297-1.6723-.0004-.0911.0626-.2156.0394-.2781-.0516-.0625-.0911-.0394-.2156.0517-.2781.6166-.4234 1.504-.4229 2.124-.0004.0912.0622.1148.1866.0526.2779s-.1866.1148-.2779.0526z" stroke="url(#ar)"/></g><path clip-rule="evenodd" d="m16.8455 14.0272c-.4846-.3302-1.1926-.3297-1.6723-.0004-.0911.0626-.2156.0394-.2781-.0516-.0625-.0911-.0394-.2156.0517-.2781.6166-.4234 1.504-.4229 2.124-.0004.0912.0622.1148.1866.0526.2779s-.1866.1148-.2779.0526z" fill="#86004c" fill-rule="evenodd"/><g filter="url(#r)"><path d="m16.4744 14.6973c0-.2828-.2293-.512-.5121-.512-.2827 0-.512.2292-.512.512z" fill="url(#as)"/></g><rect fill="#302321" height=".959615" rx=".479807" width="3.0921" x="12.0624" y="7.93115"/><rect fill="url(#au)" height=".959615" rx=".479807" width="3.0921" x="12.0624" y="7.93115"/><rect fill="#302321" height=".959615" rx=".479807" width="3.0921" x="16.8296" y="7.93115"/><rect fill="url(#av)" height=".959615" rx=".479807" width="3.0921" x="16.8296" y="7.93115"/><g filter="url(#s)"><path d="m17.3093 8.33032h2.2344" stroke="#463c3c" stroke-linecap="round" stroke-width=".25"/></g><g filter="url(#t)"><path d="m12.5986 8.33032h2.2344" stroke="#463c3c" stroke-linecap="round" stroke-width=".25"/></g></svg>