<svg fill="none" height="32" viewBox="0 0 32 32" width="32" xmlns="http://www.w3.org/2000/svg" xmlns:xlink="http://www.w3.org/1999/xlink"><filter id="a" color-interpolation-filters="sRGB" filterUnits="userSpaceOnUse" height="24.039" width="28.2153" x="2.01733" y="2.8877"><feFlood flood-opacity="0" result="BackgroundImageFix"/><feBlend in="SourceGraphic" in2="BackgroundImageFix" mode="normal" result="shape"/><feColorMatrix in="SourceAlpha" result="hardAlpha" type="matrix" values="0 0 0 0 0 0 0 0 0 0 0 0 0 0 0 0 0 0 127 0"/><feOffset dx=".25" dy="-1"/><feGaussianBlur stdDeviation="1.25"/><feComposite in2="hardAlpha" k2="-1" k3="1" operator="arithmetic"/><feColorMatrix type="matrix" values="0 0 0 0 0.603922 0 0 0 0 0.34902 0 0 0 0 0.52549 0 0 0 1 0"/><feBlend in2="shape" mode="normal" result="effect1_innerShadow_20020_6491"/></filter><filter id="b" color-interpolation-filters="sRGB" filterUnits="userSpaceOnUse" height="5.45779" width="7.82343" x="11.8321" y="4.8719"><feFlood flood-opacity="0" result="BackgroundImageFix"/><feBlend in="SourceGraphic" in2="BackgroundImageFix" mode="normal" result="shape"/><feGaussianBlur result="effect1_foregroundBlur_20020_6491" stdDeviation=".375"/></filter><filter id="c" color-interpolation-filters="sRGB" filterUnits="userSpaceOnUse" height="3.41387" width="12.1016" x="15.3984" y="10.6798"><feFlood flood-opacity="0" result="BackgroundImageFix"/><feBlend in="SourceGraphic" in2="BackgroundImageFix" mode="normal" result="shape"/><feGaussianBlur result="effect1_foregroundBlur_20020_6491" stdDeviation=".5"/></filter><filter id="d" color-interpolation-filters="sRGB" filterUnits="userSpaceOnUse" height="4.0642" width="15.8079" x="14.4382" y="14.8129"><feFlood flood-opacity="0" result="BackgroundImageFix"/><feBlend in="SourceGraphic" in2="BackgroundImageFix" mode="normal" result="shape"/><feGaussianBlur result="effect1_foregroundBlur_20020_6491" stdDeviation=".5"/></filter><filter id="e" color-interpolation-filters="sRGB" filterUnits="userSpaceOnUse" height="3.55455" width="13.0938" x="14.455" y="19.5925"><feFlood flood-opacity="0" result="BackgroundImageFix"/><feBlend in="SourceGraphic" in2="BackgroundImageFix" mode="normal" result="shape"/><feGaussianBlur result="effect1_foregroundBlur_20020_6491" stdDeviation=".5"/></filter><filter id="f" color-interpolation-filters="sRGB" filterUnits="userSpaceOnUse" height="6.11031" width="21.8273" x="3.41791" y="21.4355"><feFlood flood-opacity="0" result="BackgroundImageFix"/><feBlend in="SourceGraphic" in2="BackgroundImageFix" mode="normal" result="shape"/><feGaussianBlur result="effect1_foregroundBlur_20020_6491" stdDeviation=".5"/></filter><filter id="g" color-interpolation-filters="sRGB" filterUnits="userSpaceOnUse" height="3.52104" width="13.0922" x="11.3914" y="23.7492"><feFlood flood-opacity="0" result="BackgroundImageFix"/><feBlend in="SourceGraphic" in2="BackgroundImageFix" mode="normal" result="shape"/><feGaussianBlur result="effect1_foregroundBlur_20020_6491" stdDeviation=".5"/></filter><radialGradient id="h" cx="0" cy="0" gradientTransform="matrix(2.62500134 5.12500336 -18.39158964 9.42008112 4.92374 9.44519)" gradientUnits="userSpaceOnUse" r="1"><stop offset="0" stop-color="#926563"/><stop offset="1" stop-color="#926563" stop-opacity="0"/></radialGradient><radialGradient id="i" cx="0" cy="0" gradientTransform="matrix(-2.43885006 .45950306 -.7254185 -3.85021799 19.9234 5.84319)" gradientUnits="userSpaceOnUse" r="1"><stop offset="0" stop-color="#95755e"/><stop offset="1" stop-color="#95755e" stop-opacity="0"/></radialGradient><radialGradient id="j" cx="0" cy="0" gradientTransform="matrix(-.74219864 -1.11330081 3.24361749 -2.16240614 16.6112 10.0834)" gradientUnits="userSpaceOnUse" r="1"><stop offset="0" stop-color="#634638"/><stop offset="1" stop-color="#634638" stop-opacity="0"/></radialGradient><linearGradient id="k" gradientUnits="userSpaceOnUse" x1="18.4136" x2="11.6238" y1="6.37232" y2="10.6809"><stop offset="0" stop-color="#b48974"/><stop offset="1" stop-color="#b48974" stop-opacity="0"/></linearGradient><linearGradient id="l" gradientUnits="userSpaceOnUse" x1="20.1553" x2="20.2667" y1="8.99918" y2="11.0489"><stop offset="0" stop-color="#916a5e"/><stop offset="1" stop-color="#916a5e" stop-opacity="0"/></linearGradient><linearGradient id="m" gradientUnits="userSpaceOnUse" x1="20.9394" x2="20.9238" y1="14.0233" y2="13.039"><stop offset="0" stop-color="#855d50"/><stop offset="1" stop-color="#855d50" stop-opacity="0"/></linearGradient><radialGradient id="n" cx="0" cy="0" gradientTransform="matrix(-.43750958 -1.04687531 1.6490256 -.68915992 26.7988 13.8827)" gradientUnits="userSpaceOnUse" r="1"><stop offset="0" stop-color="#634535"/><stop offset="1" stop-color="#634535" stop-opacity="0"/></radialGradient><linearGradient id="o" gradientUnits="userSpaceOnUse" x1="15.2206" x2="17.2206" y1="11.4698" y2="10.8515"><stop offset=".23634" stop-color="#b3857a"/><stop offset="1" stop-color="#b3857a" stop-opacity="0"/></linearGradient><radialGradient id="p" cx="0" cy="0" gradientTransform="matrix(-1.68397915 .97056146 -2.27506817 -3.94737223 28.205 10.0077)" gradientUnits="userSpaceOnUse" r="1"><stop offset="0" stop-color="#a2846c"/><stop offset="1" stop-color="#a2846c" stop-opacity="0"/></radialGradient><linearGradient id="q" gradientUnits="userSpaceOnUse" x1="22.1112" x2="22.1644" y1="12.6952" y2="15.7739"><stop offset="0" stop-color="#81584e"/><stop offset="1" stop-color="#81584e" stop-opacity="0"/></linearGradient><radialGradient id="r" cx="0" cy="0" gradientTransform="matrix(-1.62143561 .8749888 -1.31992968 -2.44595242 29.9827 14.6014)" gradientUnits="userSpaceOnUse" r="1"><stop offset="0" stop-color="#9a7d67"/><stop offset="1" stop-color="#9a7d67" stop-opacity="0"/></radialGradient><linearGradient id="s" gradientUnits="userSpaceOnUse" x1="22.4853" x2="22.4853" y1="18.8772" y2="17.6695"><stop offset="0" stop-color="#a47a65"/><stop offset="1" stop-color="#a47a65" stop-opacity="0"/></linearGradient><linearGradient id="t"><stop offset="0" stop-color="#b3857a"/><stop offset="1" stop-color="#b3857a" stop-opacity="0"/></linearGradient><linearGradient id="u" gradientUnits="userSpaceOnUse" x1="14.9237" x2="17.855" xlink:href="#t" y1="15.2264" y2="15.4311"/><linearGradient id="v" gradientUnits="userSpaceOnUse" x1="29.8445" x2="23.6817" y1="17.5303" y2="26.1611"><stop offset="0" stop-color="#c79e8a"/><stop offset="1" stop-color="#c79e8a" stop-opacity="0"/></linearGradient><linearGradient id="w" gradientUnits="userSpaceOnUse" x1="21.1771" x2="21.2292" y1="17.5979" y2="20.3822"><stop offset="0" stop-color="#8d5e4f"/><stop offset="1" stop-color="#8d5e4f" stop-opacity="0"/></linearGradient><linearGradient id="x" gradientUnits="userSpaceOnUse" x1="21.1495" x2="21.1385" y1="23.5114" y2="22.0403"><stop offset="0" stop-color="#a87e69"/><stop offset="1" stop-color="#a87e69" stop-opacity="0"/></linearGradient><linearGradient id="y" gradientUnits="userSpaceOnUse" x1="16.1113" x2="18.8496" xlink:href="#t" y1="19.4138" y2="19.943"/><radialGradient id="z" cx="0" cy="0" gradientTransform="matrix(-1.354008 .7913452 -1.24433394 -2.1290811 27.7503 19.322)" gradientUnits="userSpaceOnUse" r="1"><stop offset="0" stop-color="#92735f"/><stop offset="1" stop-color="#92735f" stop-opacity="0"/></radialGradient><linearGradient id="A" gradientUnits="userSpaceOnUse" x1="26.5487" x2="12.9862" y1="21.8033" y2="21.8033"><stop offset="0" stop-color="#cca38e"/><stop offset="1" stop-color="#cca38e" stop-opacity="0"/></linearGradient><linearGradient id="B" gradientUnits="userSpaceOnUse" x1="9.40123" x2="9.40123" y1="27.313" y2="21.9586"><stop offset="0" stop-color="#c59b81"/><stop offset="1" stop-color="#c59b81" stop-opacity="0"/></linearGradient><linearGradient id="C"><stop offset="0" stop-color="#bf9685"/><stop offset="1" stop-color="#bf9685" stop-opacity="0"/></linearGradient><radialGradient id="D" cx="0" cy="0" gradientTransform="matrix(2.26749098 -.18749988 .14683506 1.77571941 16 12.6639)" gradientUnits="userSpaceOnUse" r="1" xlink:href="#C"/><radialGradient id="E" cx="0" cy="0" gradientTransform="matrix(2.17373932 -.09374933 .08644978 2.00448666 16 17.3827)" gradientUnits="userSpaceOnUse" r="1" xlink:href="#C"/><radialGradient id="F" cx="0" cy="0" gradientTransform="matrix(1.87499864 -.06249955 .06249955 1.87499864 15.7675 21.2577)" gradientUnits="userSpaceOnUse" r="1" xlink:href="#C"/><radialGradient id="G" cx="0" cy="0" gradientTransform="matrix(1.06249711 -2.12499896 2.79979985 1.3998968 15.5175 24.7889)" gradientUnits="userSpaceOnUse" r="1" xlink:href="#C"/><radialGradient id="H" cx="0" cy="0" gradientTransform="matrix(1.41382728 2.68627646 -10.66353403 5.61237668 9.49639 8.42343)" gradientUnits="userSpaceOnUse" r="1"><stop offset="0" stop-color="#936565"/><stop offset="1" stop-color="#936565" stop-opacity="0"/></radialGradient><linearGradient id="I" gradientUnits="userSpaceOnUse" x1="15.869" x2="15.975" y1="27.1538" y2="24.185"><stop offset="0" stop-color="#c89b84"/><stop offset="1" stop-color="#c89b84" stop-opacity="0"/></linearGradient><linearGradient id="J" gradientUnits="userSpaceOnUse" x1="19.3912" x2="19.1448" y1="21.6843" y2="24.0111"><stop offset="0" stop-color="#946354"/><stop offset="1" stop-color="#946354" stop-opacity="0"/></linearGradient><linearGradient id="K" gradientUnits="userSpaceOnUse" x1="15.0487" x2="17.5964" y1="24.0108" y2="24.1126"><stop offset="0" stop-color="#bc9181"/><stop offset="1" stop-color="#bc9181" stop-opacity="0"/></linearGradient><radialGradient id="L" cx="0" cy="0" gradientTransform="matrix(-1.76170763 .84085765 -2.2463002 -4.70629505 25.3612 23.3826)" gradientUnits="userSpaceOnUse" r="1"><stop offset="0" stop-color="#94715b"/><stop offset="1" stop-color="#94715b" stop-opacity="0"/></radialGradient><linearGradient id="M" gradientUnits="userSpaceOnUse" x1="23.4765" x2="9.91627" y1="25.984" y2="25.7355"><stop offset="0" stop-color="#d0a88e"/><stop offset="1" stop-color="#d0a88e" stop-opacity="0"/></linearGradient><g filter="url(#a)"><path d="m27.5093 13.5621c1.328-.0374 2.435 1.0089 2.4724 2.3369.0374 1.3281-1.0089 2.4351-2.337 2.4725l-.9444.0266c.6468.442 1.0653 1.1909 1.0496 2.0327-.0249 1.3283-1.122 2.385-2.4503 2.3601l-1.3695-.0257c.4908.4601.787 1.1223.7594 1.8472-.0504 1.3277-1.1676 2.363-2.4953 2.3126l-8.8223-.3354c-1.3307-.0049-3.69517-.1489-5.76074-1.0036-3.26625-1.2075-5.59384-4.3408-5.59384-8.0158 0-3.7152 2.37869-6.8767 5.70116-8.05467 2.10882-.88823 4.28302-2.36146 5.20502-2.98623.021-.01424.0414-.02803.0611-.04137l2.8193-2.09836c1.1237-.83638 2.7127-.60344 3.549.52028.829 1.11379.6084 2.68707-.4949 3.52994l-1.4242 1.08804 7.9531-.34373c1.316-.05689 2.4289.9638 2.4858 2.2799.0382.8843-.4102 1.677-1.1078 2.1191z" fill="#b3857a"/><path d="m27.5093 13.5621c1.328-.0374 2.435 1.0089 2.4724 2.3369.0374 1.3281-1.0089 2.4351-2.337 2.4725l-.9444.0266c.6468.442 1.0653 1.1909 1.0496 2.0327-.0249 1.3283-1.122 2.385-2.4503 2.3601l-1.3695-.0257c.4908.4601.787 1.1223.7594 1.8472-.0504 1.3277-1.1676 2.363-2.4953 2.3126l-8.8223-.3354c-1.3307-.0049-3.69517-.1489-5.76074-1.0036-3.26625-1.2075-5.59384-4.3408-5.59384-8.0158 0-3.7152 2.37869-6.8767 5.70116-8.05467 2.10882-.88823 4.28302-2.36146 5.20502-2.98623.021-.01424.0414-.02803.0611-.04137l2.8193-2.09836c1.1237-.83638 2.7127-.60344 3.549.52028.829 1.11379.6084 2.68707-.4949 3.52994l-1.4242 1.08804 7.9531-.34373c1.316-.05689 2.4289.9638 2.4858 2.2799.0382.8843-.4102 1.677-1.1078 2.1191z" fill="url(#h)"/><path d="m27.5093 13.5621c1.328-.0374 2.435 1.0089 2.4724 2.3369.0374 1.3281-1.0089 2.4351-2.337 2.4725l-.9444.0266c.6468.442 1.0653 1.1909 1.0496 2.0327-.0249 1.3283-1.122 2.385-2.4503 2.3601l-1.3695-.0257c.4908.4601.787 1.1223.7594 1.8472-.0504 1.3277-1.1676 2.363-2.4953 2.3126l-8.8223-.3354c-1.3307-.0049-3.69517-.1489-5.76074-1.0036-3.26625-1.2075-5.59384-4.3408-5.59384-8.0158 0-3.7152 2.37869-6.8767 5.70116-8.05467 2.10882-.88823 4.28302-2.36146 5.20502-2.98623.021-.01424.0414-.02803.0611-.04137l2.8193-2.09836c1.1237-.83638 2.7127-.60344 3.549.52028.829 1.11379.6084 2.68707-.4949 3.52994l-1.4242 1.08804 7.9531-.34373c1.316-.05689 2.4289.9638 2.4858 2.2799.0382.8843-.4102 1.677-1.1078 2.1191z" fill="url(#i)"/></g><path d="m19.2919 4.83105c.0207.02577.0411.05205.061.07883.829 1.11378.6084 2.68707-.4949 3.52994l-1.419 1.08406-4.5123.16192z" fill="url(#j)"/><g filter="url(#b)"><path d="m15.6834 9.57969h-3.1013l4.8227-3.76126c.3986-.31086.9726-.2461 1.2919.14577.326.40012.2635.98928-.1393 1.31207z" fill="url(#k)"/></g><path d="m17.4527 9.51344-2.7789.11927 1.7187 4.12499 10.3771-.1775c.695-.4427 1.1413-1.2338 1.1031-2.1162-.0569-1.316-1.1698-2.33673-2.4858-2.27985l-7.9531.34374z" fill="url(#l)"/><path d="m17.4527 9.51344-2.7789.11927 1.7187 4.12499 10.3771-.1775c.695-.4427 1.1413-1.2338 1.1031-2.1162-.0569-1.316-1.1698-2.33673-2.4858-2.27985l-7.9531.34374z" fill="url(#m)"/><path d="m17.4527 9.51344-2.7789.11927 1.7187 4.12499 10.3771-.1775c.695-.4427 1.1413-1.2338 1.1031-2.1162-.0569-1.316-1.1698-2.33673-2.4858-2.27985l-7.9531.34374z" fill="url(#n)"/><path d="m17.4527 9.51344-2.7789.11927 1.7187 4.12499 10.3771-.1775c.695-.4427 1.1413-1.2338 1.1031-2.1162-.0569-1.316-1.1698-2.33673-2.4858-2.27985l-7.9531.34374z" fill="url(#o)"/><path d="m17.4527 9.51344-2.7789.11927 1.7187 4.12499 10.3771-.1775c.695-.4427 1.1413-1.2338 1.1031-2.1162-.0569-1.316-1.1698-2.33673-2.4858-2.27985l-7.9531.34374z" fill="url(#p)"/><g filter="url(#c)"><path d="m25.8817 11.6798-9.4833.1292.1881 1.2846 9.3162-.194c.3319-.0069.5973-.2779.5973-.6099 0-.3401-.2782-.6145-.6183-.6099z" fill="#c19988"/></g><path d="m26.7018 18.3991-.0015-.001.9444-.0266c1.3281-.0374 2.3744-1.1444 2.337-2.4725-.0359-1.2751-1.0578-2.2905-2.3148-2.3363l-.4551.0078-.4469.0126c.0027-.0017.0054-.0034.0081-.0052l-12.5993.172v4.6875z" fill="url(#q)"/><path d="m26.7018 18.3991-.0015-.001.9444-.0266c1.3281-.0374 2.3744-1.1444 2.337-2.4725-.0359-1.2751-1.0578-2.2905-2.3148-2.3363l-.4551.0078-.4469.0126c.0027-.0017.0054-.0034.0081-.0052l-12.5993.172v4.6875z" fill="url(#r)"/><path d="m26.7018 18.3991-.0015-.001.9444-.0266c1.3281-.0374 2.3744-1.1444 2.337-2.4725-.0359-1.2751-1.0578-2.2905-2.3148-2.3363l-.4551.0078-.4469.0126c.0027-.0017.0054-.0034.0081-.0052l-12.5993.172v4.6875z" fill="url(#s)"/><path d="m26.7018 18.3991-.0015-.001.9444-.0266c1.3281-.0374 2.3744-1.1444 2.337-2.4725-.0359-1.2751-1.0578-2.2905-2.3148-2.3363l-.4551.0078-.4469.0126c.0027-.0017.0054-.0034.0081-.0052l-12.5993.172v4.6875z" fill="url(#u)"/><g filter="url(#d)"><path d="m26.804 16.3115c.3018 0 .5803-.061.8094-.1868.3798-.2086.8556-.4298 1.2446-.2389.3113.1527.4867.5098.3295.8188-.5416 1.065-1.6696 1.1965-2.3835 1.1694h-10.5933c-.4266 0-.7725-.3458-.7725-.7725 0-.4334.3544-.782.7878-.776 3.4926.0485 9.664-.014 10.578-.014z" fill="url(#v)"/></g><path d="m26.705 18.4011-12.1563-.0185v4.1875l9.3829.1964-.0015-.0014 1.3695.0257c1.3283.0249 2.4254-1.0318 2.4503-2.3602.0157-.8397-.4008-1.587-1.0449-2.0295z" fill="url(#w)"/><path d="m26.705 18.4011-12.1563-.0185v4.1875l9.3829.1964-.0015-.0014 1.3695.0257c1.3283.0249 2.4254-1.0318 2.4503-2.3602.0157-.8397-.4008-1.587-1.0449-2.0295z" fill="url(#x)"/><path d="m26.705 18.4011-12.1563-.0185v4.1875l9.3829.1964-.0015-.0014 1.3695.0257c1.3283.0249 2.4254-1.0318 2.4503-2.3602.0157-.8397-.4008-1.587-1.0449-2.0295z" fill="url(#y)"/><path d="m26.705 18.4011-12.1563-.0185v4.1875l9.3829.1964-.0015-.0014 1.3695.0257c1.3283.0249 2.4254-1.0318 2.4503-2.3602.0157-.8397-.4008-1.587-1.0449-2.0295z" fill="url(#z)"/><g filter="url(#e)"><path d="m26.5487 21.3698c0-.4314-.3504-.7803-.7819-.7773-2.1948.015-7.0384.0429-9.523.0064-.4334-.0063-.7888.3422-.7888.7756 0 .4267.3458.7725.7724.7725h9.5441c.4292 0 .7772-.348.7772-.7772z" fill="url(#A)"/></g><path d="m27.5093 13.5621c1.328-.0374 2.435 1.0089 2.4724 2.3369.0374 1.3281-1.0089 2.4351-2.337 2.4725l-.9444.0266c.6468.442 1.0653 1.1909 1.0496 2.0327-.0249 1.3283-1.122 2.385-2.4503 2.3601l-1.3695-.0257c.4908.4601.787 1.1223.7594 1.8472-.0504 1.3277-1.1676 2.363-2.4953 2.3126l-8.8223-.3354c-1.3307-.0049-3.69517-.1489-5.76074-1.0036-3.26625-1.2075-5.59384-4.3408-5.59384-8.0158 0-3.7152 2.37869-6.8767 5.70116-8.05467 2.10882-.88823 4.28302-2.36146 5.20502-2.98623.021-.01424.0414-.02803.0611-.04137l2.8193-2.09836c1.1237-.83638 2.7127-.60344 3.549.52028.829 1.11379.6084 2.68707-.4949 3.52994l-1.4242 1.08804 7.9531-.34373c1.316-.05689 2.4289.9638 2.4858 2.2799.0382.8843-.4102 1.677-1.1078 2.1191z" fill="url(#B)"/><path d="m27.5093 13.5621c1.328-.0374 2.435 1.0089 2.4724 2.3369.0374 1.3281-1.0089 2.4351-2.337 2.4725l-.9444.0266c.6468.442 1.0653 1.1909 1.0496 2.0327-.0249 1.3283-1.122 2.385-2.4503 2.3601l-1.3695-.0257c.4908.4601.787 1.1223.7594 1.8472-.0504 1.3277-1.1676 2.363-2.4953 2.3126l-8.8223-.3354c-1.3307-.0049-3.69517-.1489-5.76074-1.0036-3.26625-1.2075-5.59384-4.3408-5.59384-8.0158 0-3.7152 2.37869-6.8767 5.70116-8.05467 2.10882-.88823 4.28302-2.36146 5.20502-2.98623.021-.01424.0414-.02803.0611-.04137l2.8193-2.09836c1.1237-.83638 2.7127-.60344 3.549.52028.829 1.11379.6084 2.68707-.4949 3.52994l-1.4242 1.08804 7.9531-.34373c1.316-.05689 2.4289.9638 2.4858 2.2799.0382.8843-.4102 1.677-1.1078 2.1191z" fill="url(#D)"/><path d="m27.5093 13.5621c1.328-.0374 2.435 1.0089 2.4724 2.3369.0374 1.3281-1.0089 2.4351-2.337 2.4725l-.9444.0266c.6468.442 1.0653 1.1909 1.0496 2.0327-.0249 1.3283-1.122 2.385-2.4503 2.3601l-1.3695-.0257c.4908.4601.787 1.1223.7594 1.8472-.0504 1.3277-1.1676 2.363-2.4953 2.3126l-8.8223-.3354c-1.3307-.0049-3.69517-.1489-5.76074-1.0036-3.26625-1.2075-5.59384-4.3408-5.59384-8.0158 0-3.7152 2.37869-6.8767 5.70116-8.05467 2.10882-.88823 4.28302-2.36146 5.20502-2.98623.021-.01424.0414-.02803.0611-.04137l2.8193-2.09836c1.1237-.83638 2.7127-.60344 3.549.52028.829 1.11379.6084 2.68707-.4949 3.52994l-1.4242 1.08804 7.9531-.34373c1.316-.05689 2.4289.9638 2.4858 2.2799.0382.8843-.4102 1.677-1.1078 2.1191z" fill="url(#E)"/><path d="m27.5093 13.5621c1.328-.0374 2.435 1.0089 2.4724 2.3369.0374 1.3281-1.0089 2.4351-2.337 2.4725l-.9444.0266c.6468.442 1.0653 1.1909 1.0496 2.0327-.0249 1.3283-1.122 2.385-2.4503 2.3601l-1.3695-.0257c.4908.4601.787 1.1223.7594 1.8472-.0504 1.3277-1.1676 2.363-2.4953 2.3126l-8.8223-.3354c-1.3307-.0049-3.69517-.1489-5.76074-1.0036-3.26625-1.2075-5.59384-4.3408-5.59384-8.0158 0-3.7152 2.37869-6.8767 5.70116-8.05467 2.10882-.88823 4.28302-2.36146 5.20502-2.98623.021-.01424.0414-.02803.0611-.04137l2.8193-2.09836c1.1237-.83638 2.7127-.60344 3.549.52028.829 1.11379.6084 2.68707-.4949 3.52994l-1.4242 1.08804 7.9531-.34373c1.316-.05689 2.4289.9638 2.4858 2.2799.0382.8843-.4102 1.677-1.1078 2.1191z" fill="url(#F)"/><path d="m27.5093 13.5621c1.328-.0374 2.435 1.0089 2.4724 2.3369.0374 1.3281-1.0089 2.4351-2.337 2.4725l-.9444.0266c.6468.442 1.0653 1.1909 1.0496 2.0327-.0249 1.3283-1.122 2.385-2.4503 2.3601l-1.3695-.0257c.4908.4601.787 1.1223.7594 1.8472-.0504 1.3277-1.1676 2.363-2.4953 2.3126l-8.8223-.3354c-1.3307-.0049-3.69517-.1489-5.76074-1.0036-3.26625-1.2075-5.59384-4.3408-5.59384-8.0158 0-3.7152 2.37869-6.8767 5.70116-8.05467 2.10882-.88823 4.28302-2.36146 5.20502-2.98623.021-.01424.0414-.02803.0611-.04137l2.8193-2.09836c1.1237-.83638 2.7127-.60344 3.549.52028.829 1.11379.6084 2.68707-.4949 3.52994l-1.4242 1.08804 7.9531-.34373c1.316-.05689 2.4289.9638 2.4858 2.2799.0382.8843-.4102 1.677-1.1078 2.1191z" fill="url(#G)"/><path d="m27.5093 13.5621c1.328-.0374 2.435 1.0089 2.4724 2.3369.0374 1.3281-1.0089 2.4351-2.337 2.4725l-.9444.0266c.6468.442 1.0653 1.1909 1.0496 2.0327-.0249 1.3283-1.122 2.385-2.4503 2.3601l-1.3695-.0257c.4908.4601.787 1.1223.7594 1.8472-.0504 1.3277-1.1676 2.363-2.4953 2.3126l-8.8223-.3354c-1.3307-.0049-3.69517-.1489-5.76074-1.0036-3.26625-1.2075-5.59384-4.3408-5.59384-8.0158 0-3.7152 2.37869-6.8767 5.70116-8.05467 2.10882-.88823 4.28302-2.36146 5.20502-2.98623.021-.01424.0414-.02803.0611-.04137l2.8193-2.09836c1.1237-.83638 2.7127-.60344 3.549.52028.829 1.11379.6084 2.68707-.4949 3.52994l-1.4242 1.08804 7.9531-.34373c1.316-.05689 2.4289.9638 2.4858 2.2799.0382.8843-.4102 1.677-1.1078 2.1191z" fill="url(#H)"/><g filter="url(#f)"><path d="m11.9857 26.1465c-3.6474-.1696-6.40148-1.9085-7.5678-3.711l19.8273 1.8821c0 2.0145-1.5112 2.252-2.4519 2.2265-1.9615-.053-6.1602-.228-9.8076-.3976z" fill="url(#I)"/></g><path d="m23.9407 22.7751-8.5482-.2675-.3438 4.1562 7.1455.261c1.3277.0505 2.4448-.9848 2.4953-2.3125.0274-.7197-.2644-1.3776-.7488-1.8372z" fill="url(#J)"/><path d="m23.9407 22.7751-8.5482-.2675-.3438 4.1562 7.1455.261c1.3277.0505 2.4448-.9848 2.4953-2.3125.0274-.7197-.2644-1.3776-.7488-1.8372z" fill="url(#K)"/><path d="m23.9407 22.7751-8.5482-.2675-.3438 4.1562 7.1455.261c1.3277.0505 2.4448-.9848 2.4953-2.3125.0274-.7197-.2644-1.3776-.7488-1.8372z" fill="url(#L)"/><g filter="url(#g)"><path d="m23.4834 25.6074c.0069-.3745-.2901-.683-.6646-.6876-2.1416-.0264-7.1024-.0917-9.6264-.1702-.4331-.0135-.7941.2826-.801.6589-.0068.3704.3335.677.7601.6848l9.6444.1768c.3729.0068.6807-.2899.6875-.6627z" fill="url(#M)"/></g></svg>