<svg enable-background="new 0 0 128 128" viewBox="0 0 128 128" xmlns="http://www.w3.org/2000/svg"><g transform="scale(4)"><path d="m14.1215 9.87866 15 15.00004c1.1716 1.1715 1.1716 3.071 0 4.2426-1.1715 1.1716-3.071 1.1716-4.2426 0l-14.99999-15z" fill="#7d4533"/><path d="m12.4272 3.22946c.1068-.10679.2561-.15959.4063-.14366l3.1964.3392c.418.04436.598.55349.3008.85076l-2.7242 2.72412s-.4269.51953.0503 1l1.9497 1.94975c.1953.19527.1953.51187 0 .70707l-4.9497 4.9498c-.1953.1952-.5119.1952-.70713 0l-.28999-.29-3.1598-.8166-.96921-3.3124-.17719-.1772c-.19526-.1953-.19526-.5119 0-.7071z" fill="#b4acbc"/><path d="m2.17674 12.2981c-.09763-.0976-.09763-.2559 0-.3535l.64347-.6435c.78105-.781 2.04737-.781 2.82842 0l3.88909 3.8891c.78108.7811.78108 2.0474 0 2.8284l-.64347.6435c-.09763.0976-.25592.0976-.35355 0z" fill="#cdc4d6"/></g></svg>