<svg fill="none" height="32" viewBox="0 0 32 32" width="32" xmlns="http://www.w3.org/2000/svg" xmlns:xlink="http://www.w3.org/1999/xlink"><filter id="a" color-interpolation-filters="sRGB" filterUnits="userSpaceOnUse" height="16.45" width="15.95" x="8.81873" y="4.63379"><feFlood flood-opacity="0" result="BackgroundImageFix"/><feBlend in="SourceGraphic" in2="BackgroundImageFix" mode="normal" result="shape"/><feColorMatrix in="SourceAlpha" result="hardAlpha" type="matrix" values="0 0 0 0 0 0 0 0 0 0 0 0 0 0 0 0 0 0 127 0"/><feOffset dx=".25" dy="-.75"/><feGaussianBlur stdDeviation=".75"/><feComposite in2="hardAlpha" k2="-1" k3="1" operator="arithmetic"/><feColorMatrix type="matrix" values="0 0 0 0 0.121569 0 0 0 0 0.0705882 0 0 0 0 0.164706 0 0 0 1 0"/><feBlend in2="shape" mode="normal" result="effect1_innerShadow_3987_23859"/></filter><filter id="b" color-interpolation-filters="sRGB" filterUnits="userSpaceOnUse" height="10.3031" width="21.2469" x="6.24988" y="19.623"><feFlood flood-opacity="0" result="BackgroundImageFix"/><feBlend in="SourceGraphic" in2="BackgroundImageFix" mode="normal" result="shape"/><feColorMatrix in="SourceAlpha" result="hardAlpha" type="matrix" values="0 0 0 0 0 0 0 0 0 0 0 0 0 0 0 0 0 0 127 0"/><feOffset dx=".2" dy=".1"/><feGaussianBlur stdDeviation=".25"/><feComposite in2="hardAlpha" k2="-1" k3="1" operator="arithmetic"/><feColorMatrix type="matrix" values="0 0 0 0 0.615686 0 0 0 0 0.607843 0 0 0 0 0.619608 0 0 0 1 0"/><feBlend in2="shape" mode="normal" result="effect1_innerShadow_3987_23859"/></filter><filter id="c" color-interpolation-filters="sRGB" filterUnits="userSpaceOnUse" height="2.07803" width="2.07803" x="15.6219" y="27.4566"><feFlood flood-opacity="0" result="BackgroundImageFix"/><feColorMatrix in="SourceAlpha" result="hardAlpha" type="matrix" values="0 0 0 0 0 0 0 0 0 0 0 0 0 0 0 0 0 0 127 0"/><feOffset dx="-.1" dy=".2"/><feGaussianBlur stdDeviation=".15"/><feComposite in2="hardAlpha" operator="out"/><feColorMatrix type="matrix" values="0 0 0 0 0.792157 0 0 0 0 0.717647 0 0 0 0 0.788235 0 0 0 1 0"/><feBlend in2="BackgroundImageFix" mode="normal" result="effect1_dropShadow_3987_23859"/><feBlend in="SourceGraphic" in2="effect1_dropShadow_3987_23859" mode="normal" result="shape"/><feColorMatrix in="SourceAlpha" result="hardAlpha" type="matrix" values="0 0 0 0 0 0 0 0 0 0 0 0 0 0 0 0 0 0 127 0"/><feOffset/><feGaussianBlur stdDeviation=".075"/><feComposite in2="hardAlpha" k2="-1" k3="1" operator="arithmetic"/><feColorMatrix type="matrix" values="0 0 0 0 0.831373 0 0 0 0 0.745098 0 0 0 0 0.803922 0 0 0 1 0"/><feBlend in2="shape" mode="normal" result="effect2_innerShadow_3987_23859"/></filter><filter id="d" color-interpolation-filters="sRGB" filterUnits="userSpaceOnUse" height="2.07803" width="2.07803" x="15.6219" y="25.4435"><feFlood flood-opacity="0" result="BackgroundImageFix"/><feColorMatrix in="SourceAlpha" result="hardAlpha" type="matrix" values="0 0 0 0 0 0 0 0 0 0 0 0 0 0 0 0 0 0 127 0"/><feOffset dx="-.1" dy=".2"/><feGaussianBlur stdDeviation=".15"/><feComposite in2="hardAlpha" operator="out"/><feColorMatrix type="matrix" values="0 0 0 0 0.792157 0 0 0 0 0.717647 0 0 0 0 0.788235 0 0 0 1 0"/><feBlend in2="BackgroundImageFix" mode="normal" result="effect1_dropShadow_3987_23859"/><feBlend in="SourceGraphic" in2="effect1_dropShadow_3987_23859" mode="normal" result="shape"/><feColorMatrix in="SourceAlpha" result="hardAlpha" type="matrix" values="0 0 0 0 0 0 0 0 0 0 0 0 0 0 0 0 0 0 127 0"/><feOffset/><feGaussianBlur stdDeviation=".075"/><feComposite in2="hardAlpha" k2="-1" k3="1" operator="arithmetic"/><feColorMatrix type="matrix" values="0 0 0 0 0.831373 0 0 0 0 0.745098 0 0 0 0 0.803922 0 0 0 1 0"/><feBlend in2="shape" mode="normal" result="effect2_innerShadow_3987_23859"/></filter><filter id="e" color-interpolation-filters="sRGB" filterUnits="userSpaceOnUse" height="3.70156" width="6.56279" x="13.3954" y="19.523"><feFlood flood-opacity="0" result="BackgroundImageFix"/><feBlend in="SourceGraphic" in2="BackgroundImageFix" mode="normal" result="shape"/><feColorMatrix in="SourceAlpha" result="hardAlpha" type="matrix" values="0 0 0 0 0 0 0 0 0 0 0 0 0 0 0 0 0 0 127 0"/><feOffset dx=".2" dy="-.1"/><feGaussianBlur stdDeviation=".15"/><feComposite in2="hardAlpha" k2="-1" k3="1" operator="arithmetic"/><feColorMatrix type="matrix" values="0 0 0 0 0.721569 0 0 0 0 0.682353 0 0 0 0 0.74902 0 0 0 1 0"/><feBlend in2="shape" mode="normal" result="effect1_innerShadow_3987_23859"/></filter><filter id="f" color-interpolation-filters="sRGB" filterUnits="userSpaceOnUse" height="4.46021" width="7.43164" x="12.5673" y="22.0835"><feFlood flood-opacity="0" result="BackgroundImageFix"/><feBlend in="SourceGraphic" in2="BackgroundImageFix" mode="normal" result="shape"/><feGaussianBlur result="effect1_foregroundBlur_3987_23859" stdDeviation=".5"/></filter><filter id="g" color-interpolation-filters="sRGB" filterUnits="userSpaceOnUse" height="2.8645" width="2.67178" x="13.6112" y="22.4033"><feFlood flood-opacity="0" result="BackgroundImageFix"/><feBlend in="SourceGraphic" in2="BackgroundImageFix" mode="normal" result="shape"/><feColorMatrix in="SourceAlpha" result="hardAlpha" type="matrix" values="0 0 0 0 0 0 0 0 0 0 0 0 0 0 0 0 0 0 127 0"/><feOffset/><feGaussianBlur stdDeviation=".2"/><feComposite in2="hardAlpha" k2="-1" k3="1" operator="arithmetic"/><feColorMatrix type="matrix" values="0 0 0 0 0.780392 0 0 0 0 0.270588 0 0 0 0 0.396078 0 0 0 1 0"/><feBlend in2="shape" mode="normal" result="effect1_innerShadow_3987_23859"/></filter><filter id="h" color-interpolation-filters="sRGB" filterUnits="userSpaceOnUse" height="2.8645" width="2.67178" x="17.2636" y="22.4033"><feFlood flood-opacity="0" result="BackgroundImageFix"/><feBlend in="SourceGraphic" in2="BackgroundImageFix" mode="normal" result="shape"/><feColorMatrix in="SourceAlpha" result="hardAlpha" type="matrix" values="0 0 0 0 0 0 0 0 0 0 0 0 0 0 0 0 0 0 127 0"/><feOffset/><feGaussianBlur stdDeviation=".2"/><feComposite in2="hardAlpha" k2="-1" k3="1" operator="arithmetic"/><feColorMatrix type="matrix" values="0 0 0 0 0.780392 0 0 0 0 0.270588 0 0 0 0 0.396078 0 0 0 1 0"/><feBlend in2="shape" mode="normal" result="effect1_innerShadow_3987_23859"/></filter><filter id="i" color-interpolation-filters="sRGB" filterUnits="userSpaceOnUse" height="1.99854" width="1.55359" x="15.9862" y="22.812"><feFlood flood-opacity="0" result="BackgroundImageFix"/><feBlend in="SourceGraphic" in2="BackgroundImageFix" mode="normal" result="shape"/><feColorMatrix in="SourceAlpha" result="hardAlpha" type="matrix" values="0 0 0 0 0 0 0 0 0 0 0 0 0 0 0 0 0 0 127 0"/><feOffset/><feGaussianBlur stdDeviation=".125"/><feComposite in2="hardAlpha" k2="-1" k3="1" operator="arithmetic"/><feColorMatrix type="matrix" values="0 0 0 0 0.827451 0 0 0 0 0.137255 0 0 0 0 0.317647 0 0 0 1 0"/><feBlend in2="shape" mode="normal" result="effect1_innerShadow_3987_23859"/></filter><filter id="j" color-interpolation-filters="sRGB" filterUnits="userSpaceOnUse" height="4.76602" width="4.76405" x="24.7499" y="19.3492"><feFlood flood-opacity="0" result="BackgroundImageFix"/><feBlend in="SourceGraphic" in2="BackgroundImageFix" mode="normal" result="shape"/><feColorMatrix in="SourceAlpha" result="hardAlpha" type="matrix" values="0 0 0 0 0 0 0 0 0 0 0 0 0 0 0 0 0 0 127 0"/><feOffset dx=".3" dy="-.1"/><feGaussianBlur stdDeviation=".3"/><feComposite in2="hardAlpha" k2="-1" k3="1" operator="arithmetic"/><feColorMatrix type="matrix" values="0 0 0 0 0.898039 0 0 0 0 0.67451 0 0 0 0 0.556863 0 0 0 1 0"/><feBlend in2="shape" mode="normal" result="effect1_innerShadow_3987_23859"/></filter><filter id="k" color-interpolation-filters="sRGB" filterUnits="userSpaceOnUse" height="3.84448" width="2.07712" x="25.9066" y="17.4478"><feFlood flood-opacity="0" result="BackgroundImageFix"/><feBlend in="SourceGraphic" in2="BackgroundImageFix" mode="normal" result="shape"/><feColorMatrix in="SourceAlpha" result="hardAlpha" type="matrix" values="0 0 0 0 0 0 0 0 0 0 0 0 0 0 0 0 0 0 127 0"/><feOffset dx=".4"/><feGaussianBlur stdDeviation=".3"/><feComposite in2="hardAlpha" k2="-1" k3="1" operator="arithmetic"/><feColorMatrix type="matrix" values="0 0 0 0 0.866667 0 0 0 0 0.639216 0 0 0 0 0.6 0 0 0 1 0"/><feBlend in2="shape" mode="normal" result="effect1_innerShadow_3987_23859"/></filter><filter id="l" color-interpolation-filters="sRGB" filterUnits="userSpaceOnUse" height="4.05249" width="2.40085" x="24.4359" y="17.1069"><feFlood flood-opacity="0" result="BackgroundImageFix"/><feBlend in="SourceGraphic" in2="BackgroundImageFix" mode="normal" result="shape"/><feColorMatrix in="SourceAlpha" result="hardAlpha" type="matrix" values="0 0 0 0 0 0 0 0 0 0 0 0 0 0 0 0 0 0 127 0"/><feOffset dx=".4"/><feGaussianBlur stdDeviation=".3"/><feComposite in2="hardAlpha" k2="-1" k3="1" operator="arithmetic"/><feColorMatrix type="matrix" values="0 0 0 0 0.866667 0 0 0 0 0.639216 0 0 0 0 0.6 0 0 0 1 0"/><feBlend in2="shape" mode="normal" result="effect1_innerShadow_3987_23859"/></filter><filter id="m" color-interpolation-filters="sRGB" filterUnits="userSpaceOnUse" height="4.04443" width="2.31159" x="23.3861" y="17.9604"><feFlood flood-opacity="0" result="BackgroundImageFix"/><feBlend in="SourceGraphic" in2="BackgroundImageFix" mode="normal" result="shape"/><feColorMatrix in="SourceAlpha" result="hardAlpha" type="matrix" values="0 0 0 0 0 0 0 0 0 0 0 0 0 0 0 0 0 0 127 0"/><feOffset dx=".4"/><feGaussianBlur stdDeviation=".3"/><feComposite in2="hardAlpha" k2="-1" k3="1" operator="arithmetic"/><feColorMatrix type="matrix" values="0 0 0 0 0.866667 0 0 0 0 0.639216 0 0 0 0 0.6 0 0 0 1 0"/><feBlend in2="shape" mode="normal" result="effect1_innerShadow_3987_23859"/></filter><filter id="n" color-interpolation-filters="sRGB" filterUnits="userSpaceOnUse" height="3.11401" width="2.12305" x="22.3944" y="19.041"><feFlood flood-opacity="0" result="BackgroundImageFix"/><feBlend in="SourceGraphic" in2="BackgroundImageFix" mode="normal" result="shape"/><feColorMatrix in="SourceAlpha" result="hardAlpha" type="matrix" values="0 0 0 0 0 0 0 0 0 0 0 0 0 0 0 0 0 0 127 0"/><feOffset dx=".4"/><feGaussianBlur stdDeviation=".3"/><feComposite in2="hardAlpha" k2="-1" k3="1" operator="arithmetic"/><feColorMatrix type="matrix" values="0 0 0 0 0.866667 0 0 0 0 0.639216 0 0 0 0 0.6 0 0 0 1 0"/><feBlend in2="shape" mode="normal" result="effect1_innerShadow_3987_23859"/></filter><filter id="o" color-interpolation-filters="sRGB" filterUnits="userSpaceOnUse" height="3.14712" width="3.00165" x="6.64929" y="16.3468"><feFlood flood-opacity="0" result="BackgroundImageFix"/><feBlend in="SourceGraphic" in2="BackgroundImageFix" mode="normal" result="shape"/><feColorMatrix in="SourceAlpha" result="hardAlpha" type="matrix" values="0 0 0 0 0 0 0 0 0 0 0 0 0 0 0 0 0 0 127 0"/><feOffset dx=".15" dy="-.1"/><feGaussianBlur stdDeviation=".2"/><feComposite in2="hardAlpha" k2="-1" k3="1" operator="arithmetic"/><feColorMatrix type="matrix" values="0 0 0 0 0.917647 0 0 0 0 0.662745 0 0 0 0 0.54902 0 0 0 1 0"/><feBlend in2="shape" mode="normal" result="effect1_innerShadow_3987_23859"/></filter><filter id="p" color-interpolation-filters="sRGB" filterUnits="userSpaceOnUse" height="2.49072" width="1.26416" x="22.9078" y="19.1902"><feFlood flood-opacity="0" result="BackgroundImageFix"/><feBlend in="SourceGraphic" in2="BackgroundImageFix" mode="normal" result="shape"/><feGaussianBlur result="effect1_foregroundBlur_3987_23859" stdDeviation=".125"/></filter><filter id="q" color-interpolation-filters="sRGB" filterUnits="userSpaceOnUse" height="2.97827" width="1.28638" x="23.9327" y="18.1243"><feFlood flood-opacity="0" result="BackgroundImageFix"/><feBlend in="SourceGraphic" in2="BackgroundImageFix" mode="normal" result="shape"/><feGaussianBlur result="effect1_foregroundBlur_3987_23859" stdDeviation=".125"/></filter><filter id="r" color-interpolation-filters="sRGB" filterUnits="userSpaceOnUse" height="3.77515" width="1.4436" x="24.963" y="17.2258"><feFlood flood-opacity="0" result="BackgroundImageFix"/><feBlend in="SourceGraphic" in2="BackgroundImageFix" mode="normal" result="shape"/><feGaussianBlur result="effect1_foregroundBlur_3987_23859" stdDeviation=".125"/></filter><filter id="s" color-interpolation-filters="sRGB" filterUnits="userSpaceOnUse" height="3.01416" width="1.17035" x="26.4235" y="17.7058"><feFlood flood-opacity="0" result="BackgroundImageFix"/><feBlend in="SourceGraphic" in2="BackgroundImageFix" mode="normal" result="shape"/><feGaussianBlur result="effect1_foregroundBlur_3987_23859" stdDeviation=".125"/></filter><filter id="t" color-interpolation-filters="sRGB" filterUnits="userSpaceOnUse" height="2.6001" width="1.7876" x="27.3297" y="19.8699"><feFlood flood-opacity="0" result="BackgroundImageFix"/><feBlend in="SourceGraphic" in2="BackgroundImageFix" mode="normal" result="shape"/><feGaussianBlur result="effect1_foregroundBlur_3987_23859" stdDeviation=".125"/></filter><filter id="u" color-interpolation-filters="sRGB" filterUnits="userSpaceOnUse" height="1.68994" width="2.32269" x="3.75162" y="19.4402"><feFlood flood-opacity="0" result="BackgroundImageFix"/><feBlend in="SourceGraphic" in2="BackgroundImageFix" mode="normal" result="shape"/><feGaussianBlur result="effect1_foregroundBlur_3987_23859" stdDeviation=".125"/></filter><filter id="v" color-interpolation-filters="sRGB" filterUnits="userSpaceOnUse" height="2.02197" width="2.34225" x="3.29068" y="18.1511"><feFlood flood-opacity="0" result="BackgroundImageFix"/><feBlend in="SourceGraphic" in2="BackgroundImageFix" mode="normal" result="shape"/><feGaussianBlur result="effect1_foregroundBlur_3987_23859" stdDeviation=".125"/></filter><filter id="w" color-interpolation-filters="sRGB" filterUnits="userSpaceOnUse" height="2.12354" width="2.13132" x="4.5563" y="16.7136"><feFlood flood-opacity="0" result="BackgroundImageFix"/><feBlend in="SourceGraphic" in2="BackgroundImageFix" mode="normal" result="shape"/><feGaussianBlur result="effect1_foregroundBlur_3987_23859" stdDeviation=".125"/></filter><filter id="x" color-interpolation-filters="sRGB" filterUnits="userSpaceOnUse" height="2.44385" width="2.56882" x="3.34537" y="17.0417"><feFlood flood-opacity="0" result="BackgroundImageFix"/><feBlend in="SourceGraphic" in2="BackgroundImageFix" mode="normal" result="shape"/><feGaussianBlur result="effect1_foregroundBlur_3987_23859" stdDeviation=".125"/></filter><filter id="y" color-interpolation-filters="sRGB" filterUnits="userSpaceOnUse" height="3.36426" width="3.51429" x="10.0883" y="12.6172"><feFlood flood-opacity="0" result="BackgroundImageFix"/><feBlend in="SourceGraphic" in2="BackgroundImageFix" mode="normal" result="shape"/><feColorMatrix in="SourceAlpha" result="hardAlpha" type="matrix" values="0 0 0 0 0 0 0 0 0 0 0 0 0 0 0 0 0 0 127 0"/><feOffset dx=".15"/><feGaussianBlur stdDeviation=".25"/><feComposite in2="hardAlpha" k2="-1" k3="1" operator="arithmetic"/><feColorMatrix type="matrix" values="0 0 0 0 0.894118 0 0 0 0 0.682353 0 0 0 0 0.6 0 0 0 1 0"/><feBlend in2="shape" mode="normal" result="effect1_innerShadow_3987_23859"/></filter><filter id="z" color-interpolation-filters="sRGB" filterUnits="userSpaceOnUse" height="3.61426" width="3.36429" x="20.0326" y="12.3672"><feFlood flood-opacity="0" result="BackgroundImageFix"/><feBlend in="SourceGraphic" in2="BackgroundImageFix" mode="normal" result="shape"/><feColorMatrix in="SourceAlpha" result="hardAlpha" type="matrix" values="0 0 0 0 0 0 0 0 0 0 0 0 0 0 0 0 0 0 127 0"/><feOffset dy="-.25"/><feGaussianBlur stdDeviation=".25"/><feComposite in2="hardAlpha" k2="-1" k3="1" operator="arithmetic"/><feColorMatrix type="matrix" values="0 0 0 0 0.784314 0 0 0 0 0.572549 0 0 0 0 0.513726 0 0 0 1 0"/><feBlend in2="shape" mode="normal" result="effect1_innerShadow_3987_23859"/></filter><filter id="A" color-interpolation-filters="sRGB" filterUnits="userSpaceOnUse" height="3.24585" width="3.24576" x="20.0922" y="12.6763"><feFlood flood-opacity="0" result="BackgroundImageFix"/><feBlend in="SourceGraphic" in2="BackgroundImageFix" mode="normal" result="shape"/><feGaussianBlur result="effect1_foregroundBlur_3987_23859" stdDeviation=".25"/></filter><filter id="B" color-interpolation-filters="sRGB" filterUnits="userSpaceOnUse" height="3.04585" width="3.04576" x="10.2674" y="12.7763"><feFlood flood-opacity="0" result="BackgroundImageFix"/><feBlend in="SourceGraphic" in2="BackgroundImageFix" mode="normal" result="shape"/><feGaussianBlur result="effect1_foregroundBlur_3987_23859" stdDeviation=".2"/></filter><filter id="C" color-interpolation-filters="sRGB" filterUnits="userSpaceOnUse" height="11.7706" width="10.6712" x="11.3417" y="9.16992"><feFlood flood-opacity="0" result="BackgroundImageFix"/><feBlend in="SourceGraphic" in2="BackgroundImageFix" mode="normal" result="shape"/><feColorMatrix in="SourceAlpha" result="hardAlpha" type="matrix" values="0 0 0 0 0 0 0 0 0 0 0 0 0 0 0 0 0 0 127 0"/><feOffset dy=".4"/><feGaussianBlur stdDeviation=".3"/><feComposite in2="hardAlpha" k2="-1" k3="1" operator="arithmetic"/><feColorMatrix type="matrix" values="0 0 0 0 0.807843 0 0 0 0 0.592157 0 0 0 0 0.52549 0 0 0 1 0"/><feBlend in2="shape" mode="normal" result="effect1_innerShadow_3987_23859"/></filter><filter id="D" color-interpolation-filters="sRGB" filterUnits="userSpaceOnUse" height="3.80347" width="2.96249" x="15.0179" y="13.2715"><feFlood flood-opacity="0" result="BackgroundImageFix"/><feBlend in="SourceGraphic" in2="BackgroundImageFix" mode="normal" result="shape"/><feGaussianBlur result="effect1_foregroundBlur_3987_23859" stdDeviation=".25"/></filter><filter id="E" color-interpolation-filters="sRGB" filterUnits="userSpaceOnUse" height="3.30347" width="2.46249" x="15.4374" y="13.3765"><feFlood flood-opacity="0" result="BackgroundImageFix"/><feBlend in="SourceGraphic" in2="BackgroundImageFix" mode="normal" result="shape"/><feGaussianBlur result="effect1_foregroundBlur_3987_23859" stdDeviation=".125"/></filter><filter id="F" color-interpolation-filters="sRGB" filterUnits="userSpaceOnUse" height="1.57695" width="3.85225" x="14.7427" y="16.7633"><feFlood flood-opacity="0" result="BackgroundImageFix"/><feBlend in="SourceGraphic" in2="BackgroundImageFix" mode="normal" result="shape"/><feGaussianBlur result="effect1_foregroundBlur_3987_23859" stdDeviation=".05"/></filter><filter id="G" color-interpolation-filters="sRGB" filterUnits="userSpaceOnUse" height="1.34375" width="3.12859" x="17.6628" y="12.8311"><feFlood flood-opacity="0" result="BackgroundImageFix"/><feBlend in="SourceGraphic" in2="BackgroundImageFix" mode="normal" result="shape"/><feColorMatrix in="SourceAlpha" result="hardAlpha" type="matrix" values="0 0 0 0 0 0 0 0 0 0 0 0 0 0 0 0 0 0 127 0"/><feOffset dx="-.2"/><feGaussianBlur stdDeviation=".2"/><feComposite in2="hardAlpha" k2="-1" k3="1" operator="arithmetic"/><feColorMatrix type="matrix" values="0 0 0 0 0.0941176 0 0 0 0 0.0666667 0 0 0 0 0.117647 0 0 0 1 0"/><feBlend in2="shape" mode="normal" result="effect1_innerShadow_3987_23859"/></filter><filter id="H" color-interpolation-filters="sRGB" filterUnits="userSpaceOnUse" height="1.34375" width="3.12859" x="12.5468" y="12.8311"><feFlood flood-opacity="0" result="BackgroundImageFix"/><feBlend in="SourceGraphic" in2="BackgroundImageFix" mode="normal" result="shape"/><feColorMatrix in="SourceAlpha" result="hardAlpha" type="matrix" values="0 0 0 0 0 0 0 0 0 0 0 0 0 0 0 0 0 0 127 0"/><feOffset dx=".2"/><feGaussianBlur stdDeviation=".125"/><feComposite in2="hardAlpha" k2="-1" k3="1" operator="arithmetic"/><feColorMatrix type="matrix" values="0 0 0 0 0.0862745 0 0 0 0 0.054902 0 0 0 0 0.113725 0 0 0 1 0"/><feBlend in2="shape" mode="normal" result="effect1_innerShadow_3987_23859"/></filter><filter id="I" color-interpolation-filters="sRGB" filterUnits="userSpaceOnUse" height="1.1314" width="2.55504" x="12.6874" y="11.3518"><feFlood flood-opacity="0" result="BackgroundImageFix"/><feBlend in="SourceGraphic" in2="BackgroundImageFix" mode="normal" result="shape"/><feColorMatrix in="SourceAlpha" result="hardAlpha" type="matrix" values="0 0 0 0 0 0 0 0 0 0 0 0 0 0 0 0 0 0 127 0"/><feOffset dx=".2" dy="-.2"/><feGaussianBlur stdDeviation=".15"/><feComposite in2="hardAlpha" k2="-1" k3="1" operator="arithmetic"/><feColorMatrix type="matrix" values="0 0 0 0 0.0431373 0 0 0 0 0.0235294 0 0 0 0 0.0313726 0 0 0 1 0"/><feBlend in2="shape" mode="normal" result="effect1_innerShadow_3987_23859"/></filter><filter id="J" color-interpolation-filters="sRGB" filterUnits="userSpaceOnUse" height="1.13164" width="2.55504" x="18.351" y="11.3518"><feFlood flood-opacity="0" result="BackgroundImageFix"/><feBlend in="SourceGraphic" in2="BackgroundImageFix" mode="normal" result="shape"/><feColorMatrix in="SourceAlpha" result="hardAlpha" type="matrix" values="0 0 0 0 0 0 0 0 0 0 0 0 0 0 0 0 0 0 127 0"/><feOffset dx=".2" dy="-.2"/><feGaussianBlur stdDeviation=".15"/><feComposite in2="hardAlpha" k2="-1" k3="1" operator="arithmetic"/><feColorMatrix type="matrix" values="0 0 0 0 0.0431373 0 0 0 0 0.0235294 0 0 0 0 0.0313726 0 0 0 1 0"/><feBlend in2="shape" mode="normal" result="effect1_innerShadow_3987_23859"/></filter><filter id="K" color-interpolation-filters="sRGB" filterUnits="userSpaceOnUse" height=".718799" width=".813464" x="18.1873" y="13.2201"><feFlood flood-opacity="0" result="BackgroundImageFix"/><feBlend in="SourceGraphic" in2="BackgroundImageFix" mode="normal" result="shape"/><feGaussianBlur result="effect1_foregroundBlur_3987_23859" stdDeviation=".05"/></filter><filter id="L" color-interpolation-filters="sRGB" filterUnits="userSpaceOnUse" height=".936621" width=".913519" x="19.0694" y="13.3029"><feFlood flood-opacity="0" result="BackgroundImageFix"/><feBlend in="SourceGraphic" in2="BackgroundImageFix" mode="normal" result="shape"/><feGaussianBlur result="effect1_foregroundBlur_3987_23859" stdDeviation=".1"/></filter><filter id="M" color-interpolation-filters="sRGB" filterUnits="userSpaceOnUse" height="1.06919" width="1.01292" x="14.4249" y="13.2365"><feFlood flood-opacity="0" result="BackgroundImageFix"/><feBlend in="SourceGraphic" in2="BackgroundImageFix" mode="normal" result="shape"/><feGaussianBlur result="effect1_foregroundBlur_3987_23859" stdDeviation=".1"/></filter><filter id="N" color-interpolation-filters="sRGB" filterUnits="userSpaceOnUse" height=".727344" width=".945422" x="13.6315" y="13.2113"><feFlood flood-opacity="0" result="BackgroundImageFix"/><feBlend in="SourceGraphic" in2="BackgroundImageFix" mode="normal" result="shape"/><feGaussianBlur result="effect1_foregroundBlur_3987_23859" stdDeviation=".05"/></filter><filter id="O" color-interpolation-filters="sRGB" filterUnits="userSpaceOnUse" height=".994971" width="2.33622" x="18.3966" y="11.4841"><feFlood flood-opacity="0" result="BackgroundImageFix"/><feBlend in="SourceGraphic" in2="BackgroundImageFix" mode="normal" result="shape"/><feGaussianBlur result="effect1_foregroundBlur_3987_23859" stdDeviation=".1"/></filter><filter id="P" color-interpolation-filters="sRGB" filterUnits="userSpaceOnUse" height=".994971" width="2.33622" x="12.6971" y="11.4841"><feFlood flood-opacity="0" result="BackgroundImageFix"/><feBlend in="SourceGraphic" in2="BackgroundImageFix" mode="normal" result="shape"/><feGaussianBlur result="effect1_foregroundBlur_3987_23859" stdDeviation=".1"/></filter><filter id="Q" color-interpolation-filters="sRGB" filterUnits="userSpaceOnUse" height="2.3873" width="1.1695" x="13.2336" y="7.51289"><feFlood flood-opacity="0" result="BackgroundImageFix"/><feBlend in="SourceGraphic" in2="BackgroundImageFix" mode="normal" result="shape"/><feGaussianBlur result="effect1_foregroundBlur_3987_23859" stdDeviation=".1"/></filter><filter id="R" color-interpolation-filters="sRGB" filterUnits="userSpaceOnUse" height="3.45703" width="6.65088" x="15.9823" y="8.37842"><feFlood flood-opacity="0" result="BackgroundImageFix"/><feBlend in="SourceGraphic" in2="BackgroundImageFix" mode="normal" result="shape"/><feGaussianBlur result="effect1_foregroundBlur_3987_23859" stdDeviation=".375"/></filter><linearGradient id="S" gradientUnits="userSpaceOnUse" x1="21.5751" x2="14.461" y1="7.0309" y2="20.2077"><stop offset="0" stop-color="#393134"/><stop offset="1" stop-color="#1a1718"/></linearGradient><radialGradient id="T" cx="0" cy="0" gradientTransform="matrix(-.63079922 4.76606741 -5.95378985 -.78799683 16.3534 16.9135)" gradientUnits="userSpaceOnUse" r="1"><stop offset=".590551" stop-color="#171418"/><stop offset="1" stop-color="#171418" stop-opacity="0"/></radialGradient><radialGradient id="U" cx="0" cy="0" gradientTransform="matrix(-3.01391733 2.03260678 -2.67068049 -3.96004297 13.4097 17.1938)" gradientUnits="userSpaceOnUse" r="1"><stop offset=".258378" stop-color="#181518"/><stop offset="1" stop-color="#181518" stop-opacity="0"/></radialGradient><radialGradient id="V" cx="0" cy="0" gradientTransform="matrix(-1.36672732 1.78728186 -1.37238679 -1.04945871 11.6049 14.5305)" gradientUnits="userSpaceOnUse" r="1"><stop offset=".333546" stop-color="#040101"/><stop offset="1" stop-color="#040101" stop-opacity="0"/></radialGradient><radialGradient id="W" cx="0" cy="0" gradientTransform="matrix(-1.34923735 2.20780532 -1.55520133 -.95041701 12.0779 12.4103)" gradientUnits="userSpaceOnUse" r="1"><stop offset=".320588" stop-color="#040002"/><stop offset="1" stop-color="#040002" stop-opacity="0"/></radialGradient><radialGradient id="X" cx="0" cy="0" gradientTransform="matrix(1.43683369 2.73348355 -3.79448528 1.99454073 12.989 5.87443)" gradientUnits="userSpaceOnUse" r="1"><stop offset="0" stop-color="#474445"/><stop offset="1" stop-color="#474445" stop-opacity="0"/></radialGradient><radialGradient id="Y" cx="0" cy="0" gradientTransform="matrix(-1.50682731 1.50693251 -2.10590821 -2.1057612 22.7665 8.0472)" gradientUnits="userSpaceOnUse" r="1"><stop offset="0" stop-color="#4a4446"/><stop offset="1" stop-color="#4a4446" stop-opacity="0"/></radialGradient><radialGradient id="Z" cx="0" cy="0" gradientTransform="matrix(-1.92737292 .56071972 -1.16933561 -4.01938026 24.5187 13.409)" gradientUnits="userSpaceOnUse" r="1"><stop offset="0" stop-color="#3b3638"/><stop offset="1" stop-color="#3b3638" stop-opacity="0"/></radialGradient><radialGradient id="aa" cx="0" cy="0" gradientTransform="matrix(-2.94366457 .73595744 -.93749821 -3.74978241 23.8879 16.9836)" gradientUnits="userSpaceOnUse" r="1"><stop offset="0" stop-color="#464444"/><stop offset="1" stop-color="#464444" stop-opacity="0"/></radialGradient><radialGradient id="ab" cx="0" cy="0" gradientTransform="matrix(-.94550595 -2.77058796 2.19137733 -.74784137 21.6162 10.8645)" gradientUnits="userSpaceOnUse" r="1"><stop offset="0" stop-color="#575455"/><stop offset="1" stop-color="#575455" stop-opacity="0"/></radialGradient><radialGradient id="ac" cx="0" cy="0" gradientTransform="matrix(1.5721943 .16491498 -.26721146 2.5474238 10.248 13.3712)" gradientUnits="userSpaceOnUse" r="1"><stop offset="0" stop-color="#413733"/><stop offset="1" stop-color="#413733" stop-opacity="0"/></radialGradient><radialGradient id="ad" cx="0" cy="0" gradientTransform="matrix(-9.19531988 9.12497466 -8.84371314 -8.91189009 25.9686 21.0762)" gradientUnits="userSpaceOnUse" r="1"><stop offset=".195375" stop-color="#fbf2f7"/><stop offset=".794211" stop-color="#ccbdde"/></radialGradient><radialGradient id="ae" cx="0" cy="0" gradientTransform="matrix(0 2.09375 -3.28125 0 20.2186 20.1387)" gradientUnits="userSpaceOnUse" r="1"><stop offset="0" stop-color="#d6d3d7"/><stop offset="1" stop-color="#d6d3d7" stop-opacity="0"/></radialGradient><radialGradient id="af" cx="0" cy="0" gradientTransform="matrix(-1.75 0 0 -11.7187 20.9999 25.9199)" gradientUnits="userSpaceOnUse" r="1"><stop offset=".214286" stop-color="#b1a0b8"/><stop offset="1" stop-color="#d1bed4" stop-opacity="0"/></radialGradient><radialGradient id="ag" cx="0" cy="0" gradientTransform="matrix(-1.15625 0 0 -5.75902 11.6561 25.3262)" gradientUnits="userSpaceOnUse" r="1"><stop offset="0" stop-color="#beb4c6"/><stop offset="1" stop-color="#beb4c6" stop-opacity="0"/></radialGradient><radialGradient id="ah" cx="0" cy="0" gradientTransform="matrix(2.12500055 5.34374524 -11.02301476 4.38342611 13.0985 18.7324)" gradientUnits="userSpaceOnUse" r="1"><stop offset="0" stop-color="#968f9c"/><stop offset="1" stop-color="#968f9c" stop-opacity="0"/></radialGradient><radialGradient id="ai" cx="0" cy="0" gradientTransform="matrix(-1.34374517 2.43750729 -2.36068714 -1.30139588 7.18738 11.8262)" gradientUnits="userSpaceOnUse" r="1"><stop offset=".0770201" stop-color="#4bb8fb"/><stop offset="1" stop-color="#357ace"/></radialGradient><radialGradient id="aj" cx="0" cy="0" gradientTransform="matrix(-1.43751054 3.06249267 -2.6752692 -1.25575082 7.24988 11.8887)" gradientUnits="userSpaceOnUse" r="1"><stop offset=".451506" stop-color="#3a7ab4" stop-opacity="0"/><stop offset=".826267" stop-color="#5f679a"/></radialGradient><radialGradient id="ak" cx="0" cy="0" gradientTransform="matrix(-1.34374517 2.43750729 -2.36068714 -1.30139588 10.1014 2.8457)" gradientUnits="userSpaceOnUse" r="1"><stop offset=".0770201" stop-color="#ff894e"/><stop offset="1" stop-color="#e35838"/></radialGradient><radialGradient id="al" cx="0" cy="0" gradientTransform="matrix(-1.43751054 3.06249267 -2.6752692 -1.25575082 10.1639 2.9082)" gradientUnits="userSpaceOnUse" r="1"><stop offset=".451506" stop-color="#de5534" stop-opacity="0"/><stop offset=".826267" stop-color="#b6424c"/></radialGradient><radialGradient id="am" cx="0" cy="0" gradientTransform="matrix(-1.34374517 2.43750729 -2.36068714 -1.30139588 26.0663 3.86133)" gradientUnits="userSpaceOnUse" r="1"><stop offset=".0770201" stop-color="#9ae453"/><stop offset="1" stop-color="#5c9946"/></radialGradient><radialGradient id="an" cx="0" cy="0" gradientTransform="matrix(-.90622337 3.37500206 -3.28746284 -.88271817 25.6561 3.82617)" gradientUnits="userSpaceOnUse" r="1"><stop offset=".37513" stop-color="#61a150" stop-opacity="0"/><stop offset=".826267" stop-color="#415e58"/></radialGradient><radialGradient id="ao" cx="0" cy="0" gradientTransform="matrix(-1.34374517 2.43750729 -2.36068714 -1.30139588 27.0897 13.8184)" gradientUnits="userSpaceOnUse" r="1"><stop offset=".0770201" stop-color="#ffff54"/><stop offset="1" stop-color="#e1ac3a"/></radialGradient><radialGradient id="ap" cx="0" cy="0" gradientTransform="matrix(.99999637 1.07812249 -1.58770654 1.47265343 24.9686 13.3574)" gradientUnits="userSpaceOnUse" r="1"><stop offset="0" stop-color="#b8a734"/><stop offset="1" stop-color="#e4cc30" stop-opacity="0"/></radialGradient><radialGradient id="aq" cx="0" cy="0" gradientTransform="matrix(-1.13281658 3.26953346 -3.18471997 -1.1034307 26.9061 13.8887)" gradientUnits="userSpaceOnUse" r="1"><stop offset=".346841" stop-color="#f2c341" stop-opacity="0"/><stop offset=".829048" stop-color="#cf8b51"/></radialGradient><linearGradient id="ar"><stop offset=".212303" stop-color="#f0dff0"/><stop offset="1" stop-color="#dcc8ec"/></linearGradient><radialGradient id="as" cx="0" cy="0" gradientTransform="matrix(-.75780555 1.14063223 -.96755752 -.64281934 17.2499 27.8549)" gradientUnits="userSpaceOnUse" r="1" xlink:href="#ar"/><radialGradient id="at" cx="0" cy="0" gradientTransform="matrix(-.75780555 1.14063223 -.96755752 -.64281934 17.2499 25.8417)" gradientUnits="userSpaceOnUse" r="1" xlink:href="#ar"/><radialGradient id="au" cx="0" cy="0" gradientTransform="matrix(0 8.03125 -2.40212 0 22.222 20.9825)" gradientUnits="userSpaceOnUse" r="1"><stop offset="0" stop-color="#9e78c9"/><stop offset="1" stop-color="#6f5ea2"/></radialGradient><linearGradient id="av" gradientUnits="userSpaceOnUse" x1="22.5624" x2="21.8124" y1="29.8263" y2="29.8263"><stop offset="0" stop-color="#7a6cad"/><stop offset="1" stop-color="#7a6cad" stop-opacity="0"/></linearGradient><linearGradient id="aw" gradientUnits="userSpaceOnUse" x1="20.6439" x2="21.0624" y1="29.0138" y2="29.0138"><stop offset="0" stop-color="#6d5096"/><stop offset="1" stop-color="#7160a4" stop-opacity="0"/></linearGradient><radialGradient id="ax" cx="0" cy="0" gradientTransform="matrix(0 6.1875 -1.38818 0 12.8568 23.1387)" gradientUnits="userSpaceOnUse" r="1"><stop offset="0" stop-color="#8566b5"/><stop offset="1" stop-color="#7060a5"/></radialGradient><radialGradient id="ay" cx="0" cy="0" gradientTransform="matrix(0 5.25 -.609375 0 13.0624 24.1075)" gradientUnits="userSpaceOnUse" r="1"><stop offset="0" stop-color="#896bb4"/><stop offset="1" stop-color="#896bb4" stop-opacity="0"/></radialGradient><radialGradient id="az" cx="0" cy="0" gradientTransform="matrix(2.93750594 -7.988812 7.0618603 2.59666351 10.3124 28.2637)" gradientUnits="userSpaceOnUse" r="1"><stop offset=".723885" stop-color="#775184" stop-opacity="0"/><stop offset="1" stop-color="#775184"/></radialGradient><radialGradient id="aA" cx="0" cy="0" gradientTransform="matrix(0 6.42188 -.185059 0 12.8568 21.7168)" gradientUnits="userSpaceOnUse" r="1"><stop offset="0" stop-color="#784b89"/><stop offset="1" stop-color="#784b89" stop-opacity="0"/></radialGradient><radialGradient id="aB" cx="0" cy="0" gradientTransform="matrix(-3.90623703 2.4297161 -4.28691533 -6.8920428 19.2653 20.7949)" gradientUnits="userSpaceOnUse" r="1"><stop offset="0" stop-color="#e8e2ec"/><stop offset="1" stop-color="#c3b7c1"/></radialGradient><radialGradient id="aC" cx="0" cy="0" gradientTransform="matrix(-.46875143 -.12499673 .54686116 -2.05078933 19.1871 22.4824)" gradientUnits="userSpaceOnUse" r="1"><stop offset=".107884" stop-color="#dbcdd4"/><stop offset="1" stop-color="#dbcdd4" stop-opacity="0"/></radialGradient><linearGradient id="aD" gradientUnits="userSpaceOnUse" x1="9.53113" x2="4.90613" y1="27.4512" y2="27.4512"><stop offset="0" stop-color="#ece4f4"/><stop offset="1" stop-color="#c0b5cd"/></linearGradient><linearGradient id="aE" gradientUnits="userSpaceOnUse" x1="9.74988" x2="8.828" y1="27.0762" y2="27.0762"><stop offset="0" stop-color="#decfd8"/><stop offset="1" stop-color="#e5ddee" stop-opacity="0"/></linearGradient><linearGradient id="aF" gradientUnits="userSpaceOnUse" x1="27.871" x2="22.8436" y1="28.1416" y2="28.1416"><stop offset="0" stop-color="#ede7f3"/><stop offset=".90676" stop-color="#b9aac8"/></linearGradient><linearGradient id="aG" gradientUnits="userSpaceOnUse" x1="28.0897" x2="27.1678" y1="27.8756" y2="27.8756"><stop offset="0" stop-color="#e0dde3"/><stop offset="1" stop-color="#e0dde3" stop-opacity="0"/></linearGradient><radialGradient id="aH" cx="0" cy="0" gradientTransform="matrix(1.73878369 1.34509705 -1.47726757 1.90963823 13.7754 23.3582)" gradientUnits="userSpaceOnUse" r="1"><stop offset="0" stop-color="#e7377c"/><stop offset="1" stop-color="#d72c5e"/></radialGradient><linearGradient id="aI"><stop offset=".690378" stop-color="#ef4c8b" stop-opacity="0"/><stop offset="1" stop-color="#ef4c8b"/></linearGradient><radialGradient id="aJ" cx="0" cy="0" gradientTransform="matrix(-1.68957843 -.47740188 .7945885 -2.81213722 15.4158 23.8356)" gradientUnits="userSpaceOnUse" r="1" xlink:href="#aI"/><radialGradient id="aK" cx="0" cy="0" gradientTransform="matrix(-.50000929 1.58457314 -.75052534 -.23682696 16.1093 23.8356)" gradientUnits="userSpaceOnUse" r="1"><stop offset="0" stop-color="#d61f4d"/><stop offset="1" stop-color="#d61f4d" stop-opacity="0"/></radialGradient><radialGradient id="aL" cx="0" cy="0" gradientTransform="matrix(-1.73878369 1.34509705 -1.47726757 -1.90963823 19.7712 23.3582)" gradientUnits="userSpaceOnUse" r="1"><stop offset="0" stop-color="#e9387a"/><stop offset="1" stop-color="#d02759"/></radialGradient><radialGradient id="aM" cx="0" cy="0" gradientTransform="matrix(1.68957843 -.47740188 .7945885 2.81213722 18.1308 23.8356)" gradientUnits="userSpaceOnUse" r="1" xlink:href="#aI"/><linearGradient id="aN" gradientUnits="userSpaceOnUse" x1="16.763" x2="16.763" y1="22.812" y2="24.8104"><stop offset=".351052" stop-color="#eb3782"/><stop offset="1" stop-color="#c93857"/></linearGradient><radialGradient id="aO" cx="0" cy="0" gradientTransform="matrix(-.391357 0 0 -2.59279 17.5397 23.5917)" gradientUnits="userSpaceOnUse" r="1"><stop offset="0" stop-color="#ec4182"/><stop offset="1" stop-color="#ec4182" stop-opacity="0"/></radialGradient><radialGradient id="aP" cx="0" cy="0" gradientTransform="matrix(-4.37500627 1.44045985 -1.38930302 -4.21963126 28.0975 22.4556)" gradientUnits="userSpaceOnUse" r="1"><stop offset=".240534" stop-color="#ffd3be"/><stop offset="1" stop-color="#edb9a9"/></radialGradient><radialGradient id="aQ" cx="0" cy="0" gradientTransform="matrix(-3.73297351 1.1348046 -3.92278565 -12.90412014 26.9374 21.9379)" gradientUnits="userSpaceOnUse" r="1"><stop offset=".69937" stop-color="#dba096" stop-opacity="0"/><stop offset="1" stop-color="#dba096"/></radialGradient><radialGradient id="aR" cx="0" cy="0" gradientTransform="matrix(.21874942 1.0258771 -2.11620526 .45124184 25.5829 20.5342)" gradientUnits="userSpaceOnUse" r="1"><stop offset=".13356" stop-color="#f2bdaa"/><stop offset="1" stop-color="#f2bdaa" stop-opacity="0"/></radialGradient><radialGradient id="aS" cx="0" cy="0" gradientTransform="matrix(-1.17187746 .98436803 -2.3399202 -2.78564489 8.85925 17.7323)" gradientUnits="userSpaceOnUse" r="1"><stop offset=".129143" stop-color="#f3c0a7"/><stop offset="1" stop-color="#ebae91"/></radialGradient><linearGradient id="aT"><stop offset="0" stop-color="#f9c6ac"/><stop offset="1" stop-color="#e7aea1"/></linearGradient><radialGradient id="aU" cx="0" cy="0" gradientTransform="matrix(-.7938643 1.27188048 -2.43489655 -1.51977915 6.44198 17.5533)" gradientUnits="userSpaceOnUse" r="1" xlink:href="#aT"/><linearGradient id="aV"><stop offset=".579458" stop-color="#d39891" stop-opacity="0"/><stop offset=".953944" stop-color="#d39891"/></linearGradient><radialGradient id="aW" cx="0" cy="0" gradientTransform="matrix(-.73037226 2.48832499 -3.82657808 -1.12317583 6.97737 17.2875)" gradientUnits="userSpaceOnUse" r="1" xlink:href="#aV"/><radialGradient id="aX" cx="0" cy="0" gradientTransform="matrix(-.71028945 1.4182916 -2.42029015 -1.21209669 5.06598 17.9729)" gradientUnits="userSpaceOnUse" r="1" xlink:href="#aT"/><radialGradient id="aY" cx="0" cy="0" gradientTransform="matrix(-.65347383 2.77476998 -3.52334114 -.82976652 5.54502 17.6765)" gradientUnits="userSpaceOnUse" r="1" xlink:href="#aV"/><radialGradient id="aZ" cx="0" cy="0" gradientTransform="matrix(-.6846795 1.22288359 -2.22170578 -1.24390941 4.93859 18.9471)" gradientUnits="userSpaceOnUse" r="1" xlink:href="#aT"/><radialGradient id="a0" cx="0" cy="0" gradientTransform="matrix(-.62992698 2.39246066 -3.35226868 -.88264125 5.40035 18.6916)" gradientUnits="userSpaceOnUse" r="1" xlink:href="#aV"/><radialGradient id="a1" cx="0" cy="0" gradientTransform="matrix(-.67187498 1.04687433 -2.02817226 -1.30166358 5.23425 19.9512)" gradientUnits="userSpaceOnUse" r="1" xlink:href="#aT"/><radialGradient id="a2" cx="0" cy="0" gradientTransform="matrix(-.61813148 2.04812536 -3.22394233 -.9729972 5.68738 19.7325)" gradientUnits="userSpaceOnUse" r="1" xlink:href="#aV"/><radialGradient id="a3" cx="0" cy="0" gradientTransform="matrix(-3.51269901 -1.14059956 1.57591091 -4.8533253 9.51257 21.7793)" gradientUnits="userSpaceOnUse" r="1"><stop offset="0" stop-color="#ffd8c1"/><stop offset=".644422" stop-color="#f0bea2"/></radialGradient><radialGradient id="a4" cx="0" cy="0" gradientTransform="matrix(.07812483 -.82812504 3.88844489 .36683362 6.15613 21.7793)" gradientUnits="userSpaceOnUse" r="1"><stop offset="0" stop-color="#dea98d"/><stop offset="1" stop-color="#ebb8a2" stop-opacity="0"/></radialGradient><radialGradient id="a5" cx="0" cy="0" gradientTransform="matrix(1.68749644 2.24808988 -2.56376153 1.92445085 16.0988 20.289)" gradientUnits="userSpaceOnUse" r="1"><stop offset=".251661" stop-color="#c57e83"/><stop offset="1" stop-color="#e2aa9f"/></radialGradient><linearGradient id="a6" gradientUnits="userSpaceOnUse" x1="29.1298" x2="28.3798" y1="20.0342" y2="21.6592"><stop offset="0" stop-color="#ffd5bf"/><stop offset="1" stop-color="#efc0a4" stop-opacity="0"/><stop offset="1" stop-color="#ffd5bf" stop-opacity="0"/></linearGradient><linearGradient id="a7"><stop offset="0" stop-color="#ffd0bd"/><stop offset="1" stop-color="#ffd0bd" stop-opacity="0"/></linearGradient><linearGradient id="a8" gradientUnits="userSpaceOnUse" x1="4.76031" x2="5.33057" xlink:href="#a7" y1="20.1692" y2="21.2233"/><linearGradient id="a9" gradientUnits="userSpaceOnUse" x1="4.30711" x2="5.21801" xlink:href="#a7" y1="19.0003" y2="20.223"/><linearGradient id="ba" gradientUnits="userSpaceOnUse" x1="5.48914" x2="6.52039" xlink:href="#a7" y1="17.5996" y2="18.6934"/><linearGradient id="bb" gradientUnits="userSpaceOnUse" x1="4.4516" x2="5.73399" xlink:href="#a7" y1="18.0437" y2="19.5015"/><linearGradient id="bc" gradientUnits="userSpaceOnUse" x1="10.0883" x2="13.1819" y1="14.3905" y2="14.3905"><stop offset="0" stop-color="#cc9987"/><stop offset="1" stop-color="#ac7864"/></linearGradient><radialGradient id="bd" cx="0" cy="0" gradientTransform="matrix(1.90993559 -2.12896446 2.59936234 2.33193871 21.3818 15.3192)" gradientUnits="userSpaceOnUse" r="1"><stop offset=".444268" stop-color="#e5b1a5"/><stop offset=".94391" stop-color="#ffd8c1"/></radialGradient><radialGradient id="be" cx="0" cy="0" gradientTransform="matrix(1.37550277 .77098412 -.21796911 .38887586 21.9688 12.5419)" gradientUnits="userSpaceOnUse" r="1"><stop offset="0" stop-color="#dba98b"/><stop offset="1" stop-color="#dba98b" stop-opacity="0"/></radialGradient><radialGradient id="bf" cx="0" cy="0" gradientTransform="matrix(1.57844911 -.11741344 .09178412 1.23390101 21.2595 14.4166)" gradientUnits="userSpaceOnUse" r="1"><stop offset=".719132" stop-color="#f4b89e" stop-opacity="0"/><stop offset="1" stop-color="#f5b99d"/></radialGradient><radialGradient id="bg" cx="0" cy="0" gradientTransform="matrix(-1.26161 0 0 -.995254 11.8586 14.2991)" gradientUnits="userSpaceOnUse" r="1"><stop offset=".666667" stop-color="#bc8272" stop-opacity="0"/><stop offset="1" stop-color="#bc8272"/></radialGradient><radialGradient id="bh" cx="0" cy="0" gradientTransform="matrix(-6.79885793 3.13517977 -4.19638408 -9.10015416 19.6575 13.7376)" gradientUnits="userSpaceOnUse" r="1"><stop offset="0" stop-color="#ffd7bf"/><stop offset="1" stop-color="#d59f97"/></radialGradient><radialGradient id="bi" cx="0" cy="0" gradientTransform="matrix(-3.6183151 .47160682 -.52057022 -3.99397762 20.0678 15.1617)" gradientUnits="userSpaceOnUse" r="1"><stop offset="0" stop-color="#ffdebf"/><stop offset="1" stop-color="#ffdebf" stop-opacity="0"/></radialGradient><radialGradient id="bj" cx="0" cy="0" gradientTransform="matrix(1.36673757 -3.96004138 5.02456376 1.73413846 14.1803 21.3996)" gradientUnits="userSpaceOnUse" r="1"><stop offset="0" stop-color="#b87c92"/><stop offset="1" stop-color="#b87c92" stop-opacity="0"/></radialGradient><radialGradient id="bk" cx="0" cy="0" gradientTransform="matrix(0 7.02999 -8.13748 0 16.6685 13.5106)" gradientUnits="userSpaceOnUse" r="1"><stop offset=".566942" stop-color="#cd9897" stop-opacity="0"/><stop offset="1" stop-color="#b4807e"/></radialGradient><radialGradient id="bl" cx="0" cy="0" gradientTransform="matrix(-7.21919783 1.41674285 -2.43919178 -12.42921957 18.5609 15.5471)" gradientUnits="userSpaceOnUse" r="1"><stop offset=".794964" stop-color="#e2a895" stop-opacity="0"/><stop offset="1" stop-color="#e2a895"/></radialGradient><radialGradient id="bm" cx="0" cy="0" gradientTransform="matrix(0 -1.20302 1.47643 0 19.0743 13.3002)" gradientUnits="userSpaceOnUse" r="1"><stop offset="0" stop-color="#f6baa9"/><stop offset="1" stop-color="#f6baa9" stop-opacity="0"/></radialGradient><radialGradient id="bn" cx="0" cy="0" gradientTransform="matrix(0 -1.37211 1.57252 0 14.4977 13.0612)" gradientUnits="userSpaceOnUse" r="1"><stop offset="0" stop-color="#d09790"/><stop offset="1" stop-color="#d09790" stop-opacity="0"/></radialGradient><radialGradient id="bo" cx="0" cy="0" gradientTransform="matrix(-1.34586 0 0 -6.73822 27.1204 12.8006)" gradientUnits="userSpaceOnUse" r="1"><stop offset="0" stop-color="#ffd8bc"/><stop offset="1" stop-color="#ffd8bc" stop-opacity="0"/></radialGradient><radialGradient id="bp" cx="0" cy="0" gradientTransform="matrix(1.37436047 4.18161693 -7.2945735 2.39748731 19.4971 5.41224)" gradientUnits="userSpaceOnUse" r="1"><stop offset="0" stop-color="#a47463"/><stop offset="1" stop-color="#a47463" stop-opacity="0"/></radialGradient><linearGradient id="bq" gradientUnits="userSpaceOnUse" x1="16.6773" x2="16.6773" y1="10.7833" y2="11.8666"><stop offset="0" stop-color="#c78c84"/><stop offset="1" stop-color="#c78c84" stop-opacity="0"/></linearGradient><radialGradient id="br" cx="0" cy="0" gradientTransform="matrix(-.4762254 -2.13681565 .65854729 -.14676837 17.4886 15.6148)" gradientUnits="userSpaceOnUse" r="1"><stop offset=".0168227" stop-color="#ffdcc5"/><stop offset="1" stop-color="#ffdcc5" stop-opacity="0"/></radialGradient><linearGradient id="bs" gradientUnits="userSpaceOnUse" x1="15.6874" x2="16.6686" y1="15.691" y2="15.691"><stop offset="0" stop-color="#dfa791"/><stop offset="1" stop-color="#dfa791" stop-opacity="0"/></linearGradient><linearGradient id="bt" gradientUnits="userSpaceOnUse" x1="16.6686" x2="16.6686" y1="16.5262" y2="15.8883"><stop offset="0" stop-color="#d29394"/><stop offset="1" stop-color="#d29394" stop-opacity="0"/></linearGradient><radialGradient id="bu" cx="0" cy="0" gradientTransform="matrix(-.814788 0 0 -.22779 17.2381 15.836)" gradientUnits="userSpaceOnUse" r="1"><stop offset="0" stop-color="#ffd6c2"/><stop offset="1" stop-color="#ffd6c2" stop-opacity="0"/></radialGradient><linearGradient id="bv" gradientUnits="userSpaceOnUse" x1="15.5561" x2="16.038" y1="18.0002" y2="17.2555"><stop offset="0" stop-color="#eabbab"/><stop offset=".663171" stop-color="#eabbab" stop-opacity="0"/></linearGradient><linearGradient id="bw"><stop offset=".80198" stop-color="#7d574a"/><stop offset="1" stop-color="#694b43"/><stop offset="1" stop-color="#804d49"/><stop offset="1" stop-color="#664944"/></linearGradient><radialGradient id="bx" cx="0" cy="0" gradientTransform="matrix(0 .848152 -1.34908 0 18.9496 13.675)" gradientUnits="userSpaceOnUse" r="1" xlink:href="#bw"/><linearGradient id="by"><stop offset=".765532" stop-color="#ffe6e2" stop-opacity="0"/><stop offset=".966159" stop-color="#ffe6e2"/></linearGradient><radialGradient id="bz" cx="0" cy="0" gradientTransform="matrix(-.24244628 -.31242472 .43013395 -.3337904 18.7116 13.7633)" gradientUnits="userSpaceOnUse" r="1" xlink:href="#by"/><linearGradient id="bA"><stop offset="0" stop-color="#b4948d"/><stop offset="1" stop-color="#b4948d" stop-opacity="0"/></linearGradient><linearGradient id="bB" gradientUnits="userSpaceOnUse" x1="19.7631" x2="19.4351" xlink:href="#bA" y1="13.7315" y2="13.9336"/><radialGradient id="bC" cx="0" cy="0" gradientTransform="matrix(0 .848157 -1.34909 0 14.3876 13.675)" gradientUnits="userSpaceOnUse" r="1" xlink:href="#bw"/><linearGradient id="bD" gradientUnits="userSpaceOnUse" x1="15.1652" x2="14.8372" xlink:href="#bA" y1="13.7314" y2="13.9335"/><radialGradient id="bE" cx="0" cy="0" gradientTransform="matrix(-.00808663 -.5164907 .62084291 -.00972046 14.0884 13.9042)" gradientUnits="userSpaceOnUse" r="1" xlink:href="#by"/><linearGradient id="bF" gradientUnits="userSpaceOnUse" x1="13.5336" x2="14.103" y1="8.1722" y2="9.50389"><stop offset="0" stop-color="#1a1316"/><stop offset="1" stop-color="#24182d"/></linearGradient><radialGradient id="bG" cx="0" cy="0" gradientTransform="matrix(-5.49999263 4.12500983 -3.61500861 -4.81999354 20.7186 4.57617)" gradientUnits="userSpaceOnUse" r="1"><stop offset=".179091" stop-color="#5e5764"/><stop offset="1" stop-color="#372f3c"/></radialGradient><radialGradient id="bH" cx="0" cy="0" gradientTransform="matrix(2.87499664 .37499967 -.58342076 4.47289128 10.7811 7.70117)" gradientUnits="userSpaceOnUse" r="1"><stop offset="0" stop-color="#5b5a5d"/><stop offset="1" stop-color="#38303e" stop-opacity="0"/></radialGradient><radialGradient id="bI" cx="0" cy="0" gradientTransform="matrix(0 -5.875 8.03906 0 16.7733 8.32617)" gradientUnits="userSpaceOnUse" r="1"><stop offset=".760638" stop-color="#5d5565" stop-opacity="0"/><stop offset="1" stop-color="#5d5565"/></radialGradient><radialGradient id="bJ" cx="0" cy="0" gradientTransform="matrix(0 1.47656 -8.28125 0 18.4061 7.91211)" gradientUnits="userSpaceOnUse" r="1"><stop offset="0" stop-color="#9072ca"/><stop offset="1" stop-color="#634d93"/></radialGradient><linearGradient id="bK" gradientUnits="userSpaceOnUse" x1="16.7733" x2="16.7733" y1="7.91211" y2="8.09961"><stop offset="0" stop-color="#745ba5"/><stop offset="1" stop-color="#745ba5" stop-opacity="0"/></linearGradient><radialGradient id="bL" cx="0" cy="0" gradientTransform="matrix(-7.1875 0 0 -.632813 21.2689 9.87061)" gradientUnits="userSpaceOnUse" r="1"><stop offset="0" stop-color="#605966"/><stop offset="1" stop-color="#392f42"/></radialGradient><radialGradient id="bM" cx="0" cy="0" gradientTransform="matrix(3.48438 0 0 2.01172 9.0033 10.1089)" gradientUnits="userSpaceOnUse" r="1"><stop offset="0" stop-color="#5b595e"/><stop offset="1" stop-color="#3e3843" stop-opacity="0"/></radialGradient><linearGradient id="bN" gradientUnits="userSpaceOnUse" x1="17.9564" x2="17.9564" y1="10.98" y2="10.2144"><stop offset="0" stop-color="#543459"/><stop offset="1" stop-color="#462f5a" stop-opacity="0"/></linearGradient><g clip-rule="evenodd" fill-rule="evenodd" filter="url(#a)"><path d="m24.1802 15.7729c.2222-.4549.3385-.9628.3385-1.4917 0-.4886-.1005-.947-.2807-1.3648h.0055c-.084-.1892-.1786-.368-.2939-.5363l-.0022-.0033c-.3597-.5501-.5501-1.1954-.5501-1.8514v-.0105c0-.81082-1.4315-1.25129-1.9001-1.84022-.6319-.7943-.4553-1.60875-1.5488-1.60875-.1905 0-.3703-.08463-.4761-.24333-.6242-.86752-1.6505-1.43881-2.8037-1.43881s-2.1794.57129-2.8036 1.43881c-.1057.14812-.2856.24333-.476.24333-.0298 0-.0594.00038-.0889.00113-1.0574.02677-1.0128 1.44885-1.6276 2.22157-.4685.58892-1.73245.41544-1.73245 1.22627v.0105c0 .656-.19044 1.3013-.55014 1.8514l-.0024.0039c-.35818.5493-.56878 1.1933-.56878 1.9005 0 .5395.12695 1.0368.33854 1.4917.07406.1481.07406.3279 0 .4761-.21159.4443-.33854.9415-.33854 1.4705 0 1.862 1.50227 3.3643 3.36427 3.3643h8.9714c1.862 0 3.3643-1.5023 3.3643-3.3643 0-.529-.1269-1.0262-.3385-1.4705-.0741-.1482-.0741-.328 0-.4761zm-12.8168-2.7938h-.0129l1.2531 2.4625c.1289 2.9298 1.2723 0 4.065 0s4.0106 3.261 4.1395.3313l1.1874-3.3423c-.0561-1.3014-.9992-1.3927-1.1874-1.3927h-3.3662c-1.3294 0-2.5837-.6507-3.3341-1.74927-.1286-.18133-.3966-.14933-.4824.05333l-.0858.20265c-.2358.58669-.6861 1.03459-1.2435 1.29059-.0161.0054-.0349.0134-.0536.0214-.0188.008-.0376.016-.0536.0213-.2466.128-.8255.512-.847 1.5039l.0108.32z" fill="url(#S)"/><path d="m24.1802 15.7729c.2222-.4549.3385-.9628.3385-1.4917 0-.4886-.1005-.947-.2807-1.3648h.0055c-.084-.1892-.1786-.368-.2939-.5363l-.0022-.0033c-.3597-.5501-.5501-1.1954-.5501-1.8514v-.0105c0-.81082-1.4315-1.25129-1.9001-1.84022-.6319-.7943-.4553-1.60875-1.5488-1.60875-.1905 0-.3703-.08463-.4761-.24333-.6242-.86752-1.6505-1.43881-2.8037-1.43881s-2.1794.57129-2.8036 1.43881c-.1057.14812-.2856.24333-.476.24333-.0298 0-.0594.00038-.0889.00113-1.0574.02677-1.0128 1.44885-1.6276 2.22157-.4685.58892-1.73245.41544-1.73245 1.22627v.0105c0 .656-.19044 1.3013-.55014 1.8514l-.0024.0039c-.35818.5493-.56878 1.1933-.56878 1.9005 0 .5395.12695 1.0368.33854 1.4917.07406.1481.07406.3279 0 .4761-.21159.4443-.33854.9415-.33854 1.4705 0 1.862 1.50227 3.3643 3.36427 3.3643h8.9714c1.862 0 3.3643-1.5023 3.3643-3.3643 0-.529-.1269-1.0262-.3385-1.4705-.0741-.1482-.0741-.328 0-.4761zm-12.8168-2.7938h-.0129l1.2531 2.4625c.1289 2.9298 1.2723 0 4.065 0s4.0106 3.261 4.1395.3313l1.1874-3.3423c-.0561-1.3014-.9992-1.3927-1.1874-1.3927h-3.3662c-1.3294 0-2.5837-.6507-3.3341-1.74927-.1286-.18133-.3966-.14933-.4824.05333l-.0858.20265c-.2358.58669-.6861 1.03459-1.2435 1.29059-.0161.0054-.0349.0134-.0536.0214-.0188.008-.0376.016-.0536.0213-.2466.128-.8255.512-.847 1.5039l.0108.32z" fill="url(#T)"/><path d="m24.1802 15.7729c.2222-.4549.3385-.9628.3385-1.4917 0-.4886-.1005-.947-.2807-1.3648h.0055c-.084-.1892-.1786-.368-.2939-.5363l-.0022-.0033c-.3597-.5501-.5501-1.1954-.5501-1.8514v-.0105c0-.81082-1.4315-1.25129-1.9001-1.84022-.6319-.7943-.4553-1.60875-1.5488-1.60875-.1905 0-.3703-.08463-.4761-.24333-.6242-.86752-1.6505-1.43881-2.8037-1.43881s-2.1794.57129-2.8036 1.43881c-.1057.14812-.2856.24333-.476.24333-.0298 0-.0594.00038-.0889.00113-1.0574.02677-1.0128 1.44885-1.6276 2.22157-.4685.58892-1.73245.41544-1.73245 1.22627v.0105c0 .656-.19044 1.3013-.55014 1.8514l-.0024.0039c-.35818.5493-.56878 1.1933-.56878 1.9005 0 .5395.12695 1.0368.33854 1.4917.07406.1481.07406.3279 0 .4761-.21159.4443-.33854.9415-.33854 1.4705 0 1.862 1.50227 3.3643 3.36427 3.3643h8.9714c1.862 0 3.3643-1.5023 3.3643-3.3643 0-.529-.1269-1.0262-.3385-1.4705-.0741-.1482-.0741-.328 0-.4761zm-12.8168-2.7938h-.0129l1.2531 2.4625c.1289 2.9298 1.2723 0 4.065 0s4.0106 3.261 4.1395.3313l1.1874-3.3423c-.0561-1.3014-.9992-1.3927-1.1874-1.3927h-3.3662c-1.3294 0-2.5837-.6507-3.3341-1.74927-.1286-.18133-.3966-.14933-.4824.05333l-.0858.20265c-.2358.58669-.6861 1.03459-1.2435 1.29059-.0161.0054-.0349.0134-.0536.0214-.0188.008-.0376.016-.0536.0213-.2466.128-.8255.512-.847 1.5039l.0108.32z" fill="url(#U)"/><path d="m24.1802 15.7729c.2222-.4549.3385-.9628.3385-1.4917 0-.4886-.1005-.947-.2807-1.3648h.0055c-.084-.1892-.1786-.368-.2939-.5363l-.0022-.0033c-.3597-.5501-.5501-1.1954-.5501-1.8514v-.0105c0-.81082-1.4315-1.25129-1.9001-1.84022-.6319-.7943-.4553-1.60875-1.5488-1.60875-.1905 0-.3703-.08463-.4761-.24333-.6242-.86752-1.6505-1.43881-2.8037-1.43881s-2.1794.57129-2.8036 1.43881c-.1057.14812-.2856.24333-.476.24333-.0298 0-.0594.00038-.0889.00113-1.0574.02677-1.0128 1.44885-1.6276 2.22157-.4685.58892-1.73245.41544-1.73245 1.22627v.0105c0 .656-.19044 1.3013-.55014 1.8514l-.0024.0039c-.35818.5493-.56878 1.1933-.56878 1.9005 0 .5395.12695 1.0368.33854 1.4917.07406.1481.07406.3279 0 .4761-.21159.4443-.33854.9415-.33854 1.4705 0 1.862 1.50227 3.3643 3.36427 3.3643h8.9714c1.862 0 3.3643-1.5023 3.3643-3.3643 0-.529-.1269-1.0262-.3385-1.4705-.0741-.1482-.0741-.328 0-.4761zm-12.8168-2.7938h-.0129l1.2531 2.4625c.1289 2.9298 1.2723 0 4.065 0s4.0106 3.261 4.1395.3313l1.1874-3.3423c-.0561-1.3014-.9992-1.3927-1.1874-1.3927h-3.3662c-1.3294 0-2.5837-.6507-3.3341-1.74927-.1286-.18133-.3966-.14933-.4824.05333l-.0858.20265c-.2358.58669-.6861 1.03459-1.2435 1.29059-.0161.0054-.0349.0134-.0536.0214-.0188.008-.0376.016-.0536.0213-.2466.128-.8255.512-.847 1.5039l.0108.32z" fill="url(#V)"/><path d="m24.1802 15.7729c.2222-.4549.3385-.9628.3385-1.4917 0-.4886-.1005-.947-.2807-1.3648h.0055c-.084-.1892-.1786-.368-.2939-.5363l-.0022-.0033c-.3597-.5501-.5501-1.1954-.5501-1.8514v-.0105c0-.81082-1.4315-1.25129-1.9001-1.84022-.6319-.7943-.4553-1.60875-1.5488-1.60875-.1905 0-.3703-.08463-.4761-.24333-.6242-.86752-1.6505-1.43881-2.8037-1.43881s-2.1794.57129-2.8036 1.43881c-.1057.14812-.2856.24333-.476.24333-.0298 0-.0594.00038-.0889.00113-1.0574.02677-1.0128 1.44885-1.6276 2.22157-.4685.58892-1.73245.41544-1.73245 1.22627v.0105c0 .656-.19044 1.3013-.55014 1.8514l-.0024.0039c-.35818.5493-.56878 1.1933-.56878 1.9005 0 .5395.12695 1.0368.33854 1.4917.07406.1481.07406.3279 0 .4761-.21159.4443-.33854.9415-.33854 1.4705 0 1.862 1.50227 3.3643 3.36427 3.3643h8.9714c1.862 0 3.3643-1.5023 3.3643-3.3643 0-.529-.1269-1.0262-.3385-1.4705-.0741-.1482-.0741-.328 0-.4761zm-12.8168-2.7938h-.0129l1.2531 2.4625c.1289 2.9298 1.2723 0 4.065 0s4.0106 3.261 4.1395.3313l1.1874-3.3423c-.0561-1.3014-.9992-1.3927-1.1874-1.3927h-3.3662c-1.3294 0-2.5837-.6507-3.3341-1.74927-.1286-.18133-.3966-.14933-.4824.05333l-.0858.20265c-.2358.58669-.6861 1.03459-1.2435 1.29059-.0161.0054-.0349.0134-.0536.0214-.0188.008-.0376.016-.0536.0213-.2466.128-.8255.512-.847 1.5039l.0108.32z" fill="url(#W)"/><path d="m24.1802 15.7729c.2222-.4549.3385-.9628.3385-1.4917 0-.4886-.1005-.947-.2807-1.3648h.0055c-.084-.1892-.1786-.368-.2939-.5363l-.0022-.0033c-.3597-.5501-.5501-1.1954-.5501-1.8514v-.0105c0-.81082-1.4315-1.25129-1.9001-1.84022-.6319-.7943-.4553-1.60875-1.5488-1.60875-.1905 0-.3703-.08463-.4761-.24333-.6242-.86752-1.6505-1.43881-2.8037-1.43881s-2.1794.57129-2.8036 1.43881c-.1057.14812-.2856.24333-.476.24333-.0298 0-.0594.00038-.0889.00113-1.0574.02677-1.0128 1.44885-1.6276 2.22157-.4685.58892-1.73245.41544-1.73245 1.22627v.0105c0 .656-.19044 1.3013-.55014 1.8514l-.0024.0039c-.35818.5493-.56878 1.1933-.56878 1.9005 0 .5395.12695 1.0368.33854 1.4917.07406.1481.07406.3279 0 .4761-.21159.4443-.33854.9415-.33854 1.4705 0 1.862 1.50227 3.3643 3.36427 3.3643h8.9714c1.862 0 3.3643-1.5023 3.3643-3.3643 0-.529-.1269-1.0262-.3385-1.4705-.0741-.1482-.0741-.328 0-.4761zm-12.8168-2.7938h-.0129l1.2531 2.4625c.1289 2.9298 1.2723 0 4.065 0s4.0106 3.261 4.1395.3313l1.1874-3.3423c-.0561-1.3014-.9992-1.3927-1.1874-1.3927h-3.3662c-1.3294 0-2.5837-.6507-3.3341-1.74927-.1286-.18133-.3966-.14933-.4824.05333l-.0858.20265c-.2358.58669-.6861 1.03459-1.2435 1.29059-.0161.0054-.0349.0134-.0536.0214-.0188.008-.0376.016-.0536.0213-.2466.128-.8255.512-.847 1.5039l.0108.32z" fill="url(#X)"/><path d="m24.1802 15.7729c.2222-.4549.3385-.9628.3385-1.4917 0-.4886-.1005-.947-.2807-1.3648h.0055c-.084-.1892-.1786-.368-.2939-.5363l-.0022-.0033c-.3597-.5501-.5501-1.1954-.5501-1.8514v-.0105c0-.81082-1.4315-1.25129-1.9001-1.84022-.6319-.7943-.4553-1.60875-1.5488-1.60875-.1905 0-.3703-.08463-.4761-.24333-.6242-.86752-1.6505-1.43881-2.8037-1.43881s-2.1794.57129-2.8036 1.43881c-.1057.14812-.2856.24333-.476.24333-.0298 0-.0594.00038-.0889.00113-1.0574.02677-1.0128 1.44885-1.6276 2.22157-.4685.58892-1.73245.41544-1.73245 1.22627v.0105c0 .656-.19044 1.3013-.55014 1.8514l-.0024.0039c-.35818.5493-.56878 1.1933-.56878 1.9005 0 .5395.12695 1.0368.33854 1.4917.07406.1481.07406.3279 0 .4761-.21159.4443-.33854.9415-.33854 1.4705 0 1.862 1.50227 3.3643 3.36427 3.3643h8.9714c1.862 0 3.3643-1.5023 3.3643-3.3643 0-.529-.1269-1.0262-.3385-1.4705-.0741-.1482-.0741-.328 0-.4761zm-12.8168-2.7938h-.0129l1.2531 2.4625c.1289 2.9298 1.2723 0 4.065 0s4.0106 3.261 4.1395.3313l1.1874-3.3423c-.0561-1.3014-.9992-1.3927-1.1874-1.3927h-3.3662c-1.3294 0-2.5837-.6507-3.3341-1.74927-.1286-.18133-.3966-.14933-.4824.05333l-.0858.20265c-.2358.58669-.6861 1.03459-1.2435 1.29059-.0161.0054-.0349.0134-.0536.0214-.0188.008-.0376.016-.0536.0213-.2466.128-.8255.512-.847 1.5039l.0108.32z" fill="url(#Y)"/><path d="m24.1802 15.7729c.2222-.4549.3385-.9628.3385-1.4917 0-.4886-.1005-.947-.2807-1.3648h.0055c-.084-.1892-.1786-.368-.2939-.5363l-.0022-.0033c-.3597-.5501-.5501-1.1954-.5501-1.8514v-.0105c0-.81082-1.4315-1.25129-1.9001-1.84022-.6319-.7943-.4553-1.60875-1.5488-1.60875-.1905 0-.3703-.08463-.4761-.24333-.6242-.86752-1.6505-1.43881-2.8037-1.43881s-2.1794.57129-2.8036 1.43881c-.1057.14812-.2856.24333-.476.24333-.0298 0-.0594.00038-.0889.00113-1.0574.02677-1.0128 1.44885-1.6276 2.22157-.4685.58892-1.73245.41544-1.73245 1.22627v.0105c0 .656-.19044 1.3013-.55014 1.8514l-.0024.0039c-.35818.5493-.56878 1.1933-.56878 1.9005 0 .5395.12695 1.0368.33854 1.4917.07406.1481.07406.3279 0 .4761-.21159.4443-.33854.9415-.33854 1.4705 0 1.862 1.50227 3.3643 3.36427 3.3643h8.9714c1.862 0 3.3643-1.5023 3.3643-3.3643 0-.529-.1269-1.0262-.3385-1.4705-.0741-.1482-.0741-.328 0-.4761zm-12.8168-2.7938h-.0129l1.2531 2.4625c.1289 2.9298 1.2723 0 4.065 0s4.0106 3.261 4.1395.3313l1.1874-3.3423c-.0561-1.3014-.9992-1.3927-1.1874-1.3927h-3.3662c-1.3294 0-2.5837-.6507-3.3341-1.74927-.1286-.18133-.3966-.14933-.4824.05333l-.0858.20265c-.2358.58669-.6861 1.03459-1.2435 1.29059-.0161.0054-.0349.0134-.0536.0214-.0188.008-.0376.016-.0536.0213-.2466.128-.8255.512-.847 1.5039l.0108.32z" fill="url(#Z)"/><path d="m24.1802 15.7729c.2222-.4549.3385-.9628.3385-1.4917 0-.4886-.1005-.947-.2807-1.3648h.0055c-.084-.1892-.1786-.368-.2939-.5363l-.0022-.0033c-.3597-.5501-.5501-1.1954-.5501-1.8514v-.0105c0-.81082-1.4315-1.25129-1.9001-1.84022-.6319-.7943-.4553-1.60875-1.5488-1.60875-.1905 0-.3703-.08463-.4761-.24333-.6242-.86752-1.6505-1.43881-2.8037-1.43881s-2.1794.57129-2.8036 1.43881c-.1057.14812-.2856.24333-.476.24333-.0298 0-.0594.00038-.0889.00113-1.0574.02677-1.0128 1.44885-1.6276 2.22157-.4685.58892-1.73245.41544-1.73245 1.22627v.0105c0 .656-.19044 1.3013-.55014 1.8514l-.0024.0039c-.35818.5493-.56878 1.1933-.56878 1.9005 0 .5395.12695 1.0368.33854 1.4917.07406.1481.07406.3279 0 .4761-.21159.4443-.33854.9415-.33854 1.4705 0 1.862 1.50227 3.3643 3.36427 3.3643h8.9714c1.862 0 3.3643-1.5023 3.3643-3.3643 0-.529-.1269-1.0262-.3385-1.4705-.0741-.1482-.0741-.328 0-.4761zm-12.8168-2.7938h-.0129l1.2531 2.4625c.1289 2.9298 1.2723 0 4.065 0s4.0106 3.261 4.1395.3313l1.1874-3.3423c-.0561-1.3014-.9992-1.3927-1.1874-1.3927h-3.3662c-1.3294 0-2.5837-.6507-3.3341-1.74927-.1286-.18133-.3966-.14933-.4824.05333l-.0858.20265c-.2358.58669-.6861 1.03459-1.2435 1.29059-.0161.0054-.0349.0134-.0536.0214-.0188.008-.0376.016-.0536.0213-.2466.128-.8255.512-.847 1.5039l.0108.32z" fill="url(#aa)"/><path d="m24.1802 15.7729c.2222-.4549.3385-.9628.3385-1.4917 0-.4886-.1005-.947-.2807-1.3648h.0055c-.084-.1892-.1786-.368-.2939-.5363l-.0022-.0033c-.3597-.5501-.5501-1.1954-.5501-1.8514v-.0105c0-.81082-1.4315-1.25129-1.9001-1.84022-.6319-.7943-.4553-1.60875-1.5488-1.60875-.1905 0-.3703-.08463-.4761-.24333-.6242-.86752-1.6505-1.43881-2.8037-1.43881s-2.1794.57129-2.8036 1.43881c-.1057.14812-.2856.24333-.476.24333-.0298 0-.0594.00038-.0889.00113-1.0574.02677-1.0128 1.44885-1.6276 2.22157-.4685.58892-1.73245.41544-1.73245 1.22627v.0105c0 .656-.19044 1.3013-.55014 1.8514l-.0024.0039c-.35818.5493-.56878 1.1933-.56878 1.9005 0 .5395.12695 1.0368.33854 1.4917.07406.1481.07406.3279 0 .4761-.21159.4443-.33854.9415-.33854 1.4705 0 1.862 1.50227 3.3643 3.36427 3.3643h8.9714c1.862 0 3.3643-1.5023 3.3643-3.3643 0-.529-.1269-1.0262-.3385-1.4705-.0741-.1482-.0741-.328 0-.4761zm-12.8168-2.7938h-.0129l1.2531 2.4625c.1289 2.9298 1.2723 0 4.065 0s4.0106 3.261 4.1395.3313l1.1874-3.3423c-.0561-1.3014-.9992-1.3927-1.1874-1.3927h-3.3662c-1.3294 0-2.5837-.6507-3.3341-1.74927-.1286-.18133-.3966-.14933-.4824.05333l-.0858.20265c-.2358.58669-.6861 1.03459-1.2435 1.29059-.0161.0054-.0349.0134-.0536.0214-.0188.008-.0376.016-.0536.0213-.2466.128-.8255.512-.847 1.5039l.0108.32z" fill="url(#ab)"/><path d="m24.1802 15.7729c.2222-.4549.3385-.9628.3385-1.4917 0-.4886-.1005-.947-.2807-1.3648h.0055c-.084-.1892-.1786-.368-.2939-.5363l-.0022-.0033c-.3597-.5501-.5501-1.1954-.5501-1.8514v-.0105c0-.81082-1.4315-1.25129-1.9001-1.84022-.6319-.7943-.4553-1.60875-1.5488-1.60875-.1905 0-.3703-.08463-.4761-.24333-.6242-.86752-1.6505-1.43881-2.8037-1.43881s-2.1794.57129-2.8036 1.43881c-.1057.14812-.2856.24333-.476.24333-.0298 0-.0594.00038-.0889.00113-1.0574.02677-1.0128 1.44885-1.6276 2.22157-.4685.58892-1.73245.41544-1.73245 1.22627v.0105c0 .656-.19044 1.3013-.55014 1.8514l-.0024.0039c-.35818.5493-.56878 1.1933-.56878 1.9005 0 .5395.12695 1.0368.33854 1.4917.07406.1481.07406.3279 0 .4761-.21159.4443-.33854.9415-.33854 1.4705 0 1.862 1.50227 3.3643 3.36427 3.3643h8.9714c1.862 0 3.3643-1.5023 3.3643-3.3643 0-.529-.1269-1.0262-.3385-1.4705-.0741-.1482-.0741-.328 0-.4761zm-12.8168-2.7938h-.0129l1.2531 2.4625c.1289 2.9298 1.2723 0 4.065 0s4.0106 3.261 4.1395.3313l1.1874-3.3423c-.0561-1.3014-.9992-1.3927-1.1874-1.3927h-3.3662c-1.3294 0-2.5837-.6507-3.3341-1.74927-.1286-.18133-.3966-.14933-.4824.05333l-.0858.20265c-.2358.58669-.6861 1.03459-1.2435 1.29059-.0161.0054-.0349.0134-.0536.0214-.0188.008-.0376.016-.0536.0213-.2466.128-.8255.512-.847 1.5039l.0108.32z" fill="url(#ac)"/></g><g filter="url(#b)"><path d="m6.24988 29.8262c0-5.6351 4.56812-10.2032 10.20312-10.2032h.6406c5.6351 0 10.2032 4.5681 10.2032 10.2032z" fill="url(#ad)"/><path d="m6.24988 29.8262c0-5.6351 4.56812-10.2032 10.20312-10.2032h.6406c5.6351 0 10.2032 4.5681 10.2032 10.2032z" fill="url(#ae)"/><path d="m6.24988 29.8262c0-5.6351 4.56812-10.2032 10.20312-10.2032h.6406c5.6351 0 10.2032 4.5681 10.2032 10.2032z" fill="url(#af)"/><path d="m6.24988 29.8262c0-5.6351 4.56812-10.2032 10.20312-10.2032h.6406c5.6351 0 10.2032 4.5681 10.2032 10.2032z" fill="url(#ag)"/><path d="m6.24988 29.8262c0-5.6351 4.56812-10.2032 10.20312-10.2032h.6406c5.6351 0 10.2032 4.5681 10.2032 10.2032z" fill="url(#ah)"/></g><circle cx="6.33191" cy="12.8379" fill="url(#ai)" r="1.68359"/><circle cx="6.33191" cy="12.8379" fill="url(#aj)" r="1.68359"/><circle cx="9.24597" cy="3.85742" fill="url(#ak)" r="1.68359"/><circle cx="9.24597" cy="3.85742" fill="url(#al)" r="1.68359"/><circle cx="25.2108" cy="4.87305" fill="url(#am)" r="1.68359"/><circle cx="25.2108" cy="4.87305" fill="url(#an)" r="1.68359"/><circle cx="26.2343" cy="14.8301" fill="url(#ao)" r="1.68359"/><circle cx="26.2343" cy="14.8301" fill="url(#ap)" r="1.68359"/><circle cx="26.2343" cy="14.8301" fill="url(#aq)" r="1.68359"/><g filter="url(#c)"><circle cx="16.7609" cy="28.2957" fill="url(#as)" r=".739014"/></g><g filter="url(#d)"><circle cx="16.7609" cy="26.2825" fill="url(#at)" r=".739014"/></g><path d="m22.222 29.8263h-1.5781v-9.5685c.5501.2042 1.0777.4544 1.5781.746z" fill="url(#au)"/><path d="m22.222 29.8263h-1.5781v-9.5685c.5501.2042 1.0777.4544 1.5781.746z" fill="url(#av)"/><path d="m22.222 29.8263h-1.5781v-9.5685c.5501.2042 1.0777.4544 1.5781.746z" fill="url(#aw)"/><path d="m12.8568 29.8262h-1.5781v-8.7956c.5002-.295 1.0278-.5484 1.5781-.7557z" fill="url(#ax)"/><path d="m12.8568 29.8262h-1.5781v-8.7956c.5002-.295 1.0278-.5484 1.5781-.7557z" fill="url(#ay)"/><path d="m12.8568 29.8262h-1.5781v-8.7956c.5002-.295 1.0278-.5484 1.5781-.7557z" fill="url(#az)"/><path d="m12.8568 29.8262h-1.5781v-8.7956c.5002-.295 1.0278-.5484 1.5781-.7557z" fill="url(#aA)"/><g filter="url(#e)"><path d="m16.453 19.623c-1.0654 0-2.0923.1633-3.0576.4661l.5962 3.1355h4.9453l.8213-3.2501c-.8496-.2292-1.7427-.3515-2.6646-.3515z" fill="url(#aB)"/><path d="m16.453 19.623c-1.0654 0-2.0923.1633-3.0576.4661l.5962 3.1355h4.9453l.8213-3.2501c-.8496-.2292-1.7427-.3515-2.6646-.3515z" fill="url(#aC)"/></g><path d="m5.43738 21.7637h4.09375v8.0625h-4.09375z" fill="url(#aD)"/><path d="m5.43738 21.7637h4.09375v8.0625h-4.09375z" fill="url(#aE)"/><path d="m23.7772 24.1074h4.09375v5.71875h-4.09375z" fill="url(#aF)"/><path d="m23.7772 24.1074h4.09375v5.71875h-4.09375z" fill="url(#aG)"/><g filter="url(#f)"><path clip-rule="evenodd" d="m16.8989 24.8714c-.0382.123-.1361.2191-.2662.244-.2498.0477-.4672.0477-.717 0-.125-.0239-.2202-.1135-.2614-.2295-.1802.199-.4903.4307-1.0091.6065-.3102.1052-.6679.058-.8337-.2295-.1205-.209-.2442-.5187-.2442-.9493s.1237-.7403.2442-.9493c.1658-.2875.5235-.3347.8337-.2295.5031.1705.81.4175.9924.6293.025-.1462.1309-.2654.2781-.2935.2498-.0477.4672-.0477.717 0 .1531.0292.2616.157.2807.3113.1804-.2157.4903-.4718 1.0076-.6471.3102-.1052.6679-.058.8336.2295.1205.209.2443.514.2443.9493s-.1238.7403-.2443.9493c-.1657.2875-.5234.3347-.8336.2295-.5314-.1801-.8439-.4188-1.0221-.621z" fill="#bc9ebb" fill-rule="evenodd"/></g><g filter="url(#g)"><path d="m14.8663 22.463c.9089.3081 1.2678.8305 1.3886 1.0816l.0281.291-.0281.358c-.1208.251-.4797.7064-1.3886 1.0145-.3612.1224-.7777.0675-.9707-.2672-.1403-.2434-.2844-.604-.2844-1.1053 0-.5014.1441-.862.2844-1.1053.193-.3348.6095-.3897.9707-.2673z" fill="url(#aH)"/><path d="m14.8663 22.463c.9089.3081 1.2678.8305 1.3886 1.0816l.0281.291-.0281.358c-.1208.251-.4797.7064-1.3886 1.0145-.3612.1224-.7777.0675-.9707-.2672-.1403-.2434-.2844-.604-.2844-1.1053 0-.5014.1441-.862.2844-1.1053.193-.3348.6095-.3897.9707-.2673z" fill="url(#aJ)"/><path d="m14.8663 22.463c.9089.3081 1.2678.8305 1.3886 1.0816l.0281.291-.0281.358c-.1208.251-.4797.7064-1.3886 1.0145-.3612.1224-.7777.0675-.9707-.2672-.1403-.2434-.2844-.604-.2844-1.1053 0-.5014.1441-.862.2844-1.1053.193-.3348.6095-.3897.9707-.2673z" fill="url(#aK)"/></g><g filter="url(#h)"><path d="m18.6804 22.463c-.9089.3081-1.2679.8305-1.3887 1.0816l-.0281.291.0281.358c.1208.251.4798.7064 1.3887 1.0145.3612.1224.7776.0675.9706-.2672.1403-.2434.2844-.5985.2844-1.1053 0-.5069-.1441-.862-.2844-1.1053-.193-.3348-.6094-.3897-.9706-.2673z" fill="url(#aL)"/><path d="m18.6804 22.463c-.9089.3081-1.2679.8305-1.3887 1.0816l-.0281.291.0281.358c.1208.251.4798.7064 1.3887 1.0145.3612.1224.7776.0675.9706-.2672.1403-.2434.2844-.5985.2844-1.1053 0-.5069-.1441-.862-.2844-1.1053-.193-.3348-.6094-.3897-.9706-.2673z" fill="url(#aM)"/></g><g filter="url(#i)"><path d="m16.0178 23.2242c.0195-.1832.1468-.336.3278-.3705.2908-.0556.544-.0556.8348 0 .1809.0345.3083.1873.3278.3705.0421.3952.0422.7776 0 1.174-.0195.1832-.1469.336-.3278.3706-.2908.0555-.544.0555-.8348 0-.181-.0346-.3083-.1874-.3278-.3706-.0421-.3949-.0422-.7779 0-1.174z" fill="url(#aN)"/><path d="m16.0178 23.2242c.0195-.1832.1468-.336.3278-.3705.2908-.0556.544-.0556.8348 0 .1809.0345.3083.1873.3278.3705.0421.3952.0422.7776 0 1.174-.0195.1832-.1469.336-.3278.3706-.2908.0555-.544.0555-.8348 0-.181-.0346-.3083-.1874-.3278-.3706-.0421-.3949-.0422-.7779 0-1.174z" fill="url(#aO)"/></g><g filter="url(#j)"><path d="m27.8506 19.8291-.4474.8252-1.1719 1.4219-1.4814 1.9922 3.0986.0469c.099-.1719.2188-.5664.3806-1.3278.164-.6602.3264-1.1136.471-1.3754l.4426-.9238c.1561-.326.0485-.7172-.2524-.9174-.3551-.2363-.8365-.1168-1.0397.2582z" fill="#ffd4bf"/></g><g filter="url(#k)"><path d="m25.9198 18.2474c-.0763-.3812.1876-.7469.5734-.7945.3589-.0444.688.2047.7427.5622l.34 2.2216c.0084.0545.01.1098.005.1647l-.0149.1626c-.005.0549-.0018.1102.0009.1653.0147.2946-.1466.5142-.4547.5571-.3191.0444-.6176-.1676-.6808-.4835z" fill="#f1bdaa"/></g><g filter="url(#l)"><path d="m24.4576 17.959c-.1016-.3947.1646-.7895.5687-.8431l.0226-.003c.3547-.0471.6852.189.7556.5398l.6221 3.0392c.0714.3554-.2453.4206-.6059.4582-.3028.0316-.5525-.0056-.6284-.3005z" fill="#f1bdaa"/></g><g filter="url(#m)"><path d="m23.4065 18.8034c-.0979-.3921.1666-.7824.5671-.8367.3547-.0482.6859.1877.7564.5387l.5555 2.766c.0712.3542-.1779.6928-.5373.7303-.3036.0316-.5842-.165-.6581-.4611z" fill="#f1bdaa"/></g><g filter="url(#n)"><path d="m22.4136 19.8807c-.0947-.3915.1718-.7793.5709-.8334.3553-.0483.6885.1877.7591.5393l.3603 1.7938c.1161.5777-.5392.9959-1.0144.6475-.1228-.0901-.2098-.2207-.2456-.3687z" fill="#f1bdaa"/></g><path d="m22.993 22.2129c.1188.4634.586 1.4561.8047 1.8945h4.0469l-.2578-3.789-4.8359.9237c.0312.1305.1234.5073.2421.9708z" fill="url(#aP)"/><path d="m22.993 22.2129c.1188.4634.586 1.4561.8047 1.8945h4.0469l-.2578-3.789-4.8359.9237c.0312.1305.1234.5073.2421.9708z" fill="url(#aQ)"/><path d="m22.993 22.2129c.1188.4634.586 1.4561.8047 1.8945h4.0469l-.2578-3.789-4.8359.9237c.0312.1305.1234.5073.2421.9708z" fill="url(#aR)"/><g filter="url(#o)"><path d="m6.80271 17.6937c-.25686-.3471-.1837-.8367.1634-1.0935.34287-.2537.82584-.1858 1.08544.1526l.93113 1.2139c.33611.4382.51828.975.51828 1.5273l-1.49906-.1798z" fill="url(#aS)"/></g><g clip-rule="evenodd" fill-rule="evenodd"><path d="m4.2731 16.7539c.34199-.2337.80868-.1459 1.04237.1961.06151.09.11439.1755.16525.2577.14132.2285.26706.4318.5192.6371.29198.2378.79432.4854 1.74704.4207.41326-.0281.77104.2841.79912.6974s-.28418.771-.69744.7991c-1.28947.0876-2.17775-.2507-2.79592-.7541-.47732-.3887-.77997-.8901-.9163-1.1159-.02569-.0426-.04548-.0753-.05941-.0957-.2337-.342-.14591-.8087.19609-1.0424z" fill="url(#aU)"/><path d="m4.2731 16.7539c.34199-.2337.80868-.1459 1.04237.1961.06151.09.11439.1755.16525.2577.14132.2285.26706.4318.5192.6371.29198.2378.79432.4854 1.74704.4207.41326-.0281.77104.2841.79912.6974s-.28418.771-.69744.7991c-1.28947.0876-2.17775-.2507-2.79592-.7541-.47732-.3887-.77997-.8901-.9163-1.1159-.02569-.0426-.04548-.0753-.05941-.0957-.2337-.342-.14591-.8087.19609-1.0424z" fill="url(#aW)"/><path d="m3.15981 17.0664c.342-.2337.80869-.1459 1.04238.1961.03687.0539.07526.1122.11585.1739.17001.2583.37872.5754.67616.8762.35931.3634.76813.6143 1.24578.6397.41363.022.73111.3752.70911.7888-.02201.4136-.37515.7311-.78878.7091-.9911-.0527-1.73072-.5752-2.23273-1.083-.41586-.4205-.72425-.8928-.88799-1.1436-.03033-.0465-.0557-.0853-.07587-.1148-.23369-.342-.1459-.8087.19609-1.0424z" fill="url(#aX)"/><path d="m3.15981 17.0664c.342-.2337.80869-.1459 1.04238.1961.03687.0539.07526.1122.11585.1739.17001.2583.37872.5754.67616.8762.35931.3634.76813.6143 1.24578.6397.41363.022.73111.3752.70911.7888-.02201.4136-.37515.7311-.78878.7091-.9911-.0527-1.73072-.5752-2.23273-1.083-.41586-.4205-.72425-.8928-.88799-1.1436-.03033-.0465-.0557-.0853-.07587-.1148-.23369-.342-.1459-.8087.19609-1.0424z" fill="url(#aY)"/><path d="m3.11294 18.1836c.34199-.2337.80868-.1459 1.04238.1961.31121.4554.97332 1.2044 1.84951 1.2044.41422 0 .75.3357.75.75 0 .4142-.33578.75-.75.75-1.70193 0-2.75857-1.3761-3.08798-1.8582-.2337-.3419-.1459-.8086.19609-1.0423z" fill="url(#aZ)"/><path d="m3.11294 18.1836c.34199-.2337.80868-.1459 1.04238.1961.31121.4554.97332 1.2044 1.84951 1.2044.41422 0 .75.3357.75.75 0 .4142-.33578.75-.75.75-1.70193 0-2.75857-1.3761-3.08798-1.8582-.2337-.3419-.1459-.8086.19609-1.0423z" fill="url(#a0)"/><path d="m3.41578 19.3403c.32877-.252.79954-.1897 1.0515.1391.24324.3174.83268.882 1.79924.882.41421 0 .75.3358.75.75s-.33579.6692-.75.6692c-1.68224 0-2.59245-.8703-2.98983-1.3888-.25195-.3288-.18968-.7996.13909-1.0515z" fill="url(#a1)"/><path d="m3.41578 19.3403c.32877-.252.79954-.1897 1.0515.1391.24324.3174.83268.882 1.79924.882.41421 0 .75.3358.75.75s-.33579.6692-.75.6692c-1.68224 0-2.59245-.8703-2.98983-1.3888-.25195-.3288-.18968-.7996.13909-1.0515z" fill="url(#a2)"/></g><path d="m5.96262 18.8917c-.24389.1632-.36899.4473-.36899.7408v2.1077l.61719.0391h3.30175v-2.3282c0-.8359-.80468-1.25-1.96875-1.1484-.65539.0572-1.20847.3396-1.5812.589z" fill="url(#a3)"/><path d="m5.96262 18.8917c-.24389.1632-.36899.4473-.36899.7408v2.1077l.61719.0391h3.30175v-2.3282c0-.8359-.80468-1.25-1.96875-1.1484-.65539.0572-1.20847.3396-1.5812.589z" fill="url(#a4)"/><path d="m14.5453 18.4172c0-.9909.9007-1.7942 2.0117-1.7942s2.0117.8033 2.0117 1.7942v2.3258c0 .9909-.9007 1.7941-2.0117 1.7941s-2.0117-.8032-2.0117-1.7941z" fill="url(#a5)"/><g filter="url(#p)"><path d="m23.3329 19.6152.414 1.6407" stroke="#ffd1bd" stroke-linecap="round" stroke-width=".35"/></g><g filter="url(#q)"><path d="m24.3578 18.5493.4363 2.1282" stroke="#ffd1bd" stroke-linecap="round" stroke-width=".35"/></g><g filter="url(#r)"><path d="m25.3881 17.6509.5935 2.9251" stroke="#ffd1bd" stroke-linecap="round" stroke-width=".35"/></g><g filter="url(#s)"><path d="m26.8485 18.1309.3203 2.164" stroke="#ffd1bd" stroke-linecap="round" stroke-width=".35"/></g><g filter="url(#t)"><path d="m28.6923 20.2949-.9375 1.75" stroke="url(#a6)" stroke-linecap="round" stroke-width=".35"/></g><g filter="url(#u)"><path d="m4.17664 19.8652c.17708.2448.83203.7422 1.47265.8399" stroke="url(#a8)" stroke-linecap="round" stroke-width=".35"/></g><g filter="url(#v)"><path d="m3.7157 18.5762c.17708.2448.67187.9531 1.49219 1.1718" stroke="url(#a9)" stroke-linecap="round" stroke-width=".35"/></g><g filter="url(#w)"><path d="m4.98132 17.1387c.10938.1718.625 1.0781 1.28125 1.2734" stroke="url(#ba)" stroke-linecap="round" stroke-width=".35"/></g><g filter="url(#x)"><path d="m3.77039 17.4668c.17708.2448.61718 1.0782 1.71875 1.5938" stroke="url(#bb)" stroke-linecap="round" stroke-width=".35"/></g><g filter="url(#y)"><path d="m11.7704 15.9815c.929 0 1.6821-.7531 1.6821-1.6822 0-.929-.7531-1.6821-1.6821-1.6821s-1.6821.7531-1.6821 1.6821c0 .9291.7531 1.6822 1.6821 1.6822z" fill="url(#bc)"/></g><g filter="url(#z)"><path d="m21.7147 15.9815c.9291 0 1.6822-.7531 1.6822-1.6822 0-.929-.7531-1.6821-1.6822-1.6821-.929 0-1.6821.7531-1.6821 1.6821 0 .9291.7531 1.6822 1.6821 1.6822z" fill="url(#bd)"/><path d="m21.7147 15.9815c.9291 0 1.6822-.7531 1.6822-1.6822 0-.929-.7531-1.6821-1.6822-1.6821-.929 0-1.6821.7531-1.6821 1.6821 0 .9291.7531 1.6822 1.6821 1.6822z" fill="url(#be)"/></g><g filter="url(#A)"><path d="m21.715 15.422c.6202 0 1.1229-.5027 1.1229-1.1229 0-.6201-.5027-1.1228-1.1229-1.1228-.6201 0-1.1228.5027-1.1228 1.1228 0 .6202.5027 1.1229 1.1228 1.1229z" fill="#f6bca5"/><path d="m21.715 15.422c.6202 0 1.1229-.5027 1.1229-1.1229 0-.6201-.5027-1.1228-1.1229-1.1228-.6201 0-1.1228.5027-1.1228 1.1228 0 .6202.5027 1.1229 1.1228 1.1229z" fill="url(#bf)"/></g><g filter="url(#B)"><path d="m11.7902 15.422c.6202 0 1.1229-.5027 1.1229-1.1229 0-.6201-.5027-1.1228-1.1229-1.1228-.6201 0-1.1228.5027-1.1228 1.1228 0 .6202.5027 1.1229 1.1228 1.1229z" fill="#c58c80"/><path d="m11.7902 15.422c.6202 0 1.1229-.5027 1.1229-1.1229 0-.6201-.5027-1.1228-1.1229-1.1228-.6201 0-1.1228.5027-1.1228 1.1228 0 .6202.5027 1.1229 1.1228 1.1229z" fill="url(#bg)"/></g><g filter="url(#C)"><path d="m11.3502 12.9795h.0129l-.0107-.2773-.0107-.32c.0214-.9919.6003-1.3759.8469-1.5039.0161-.0053.0348-.0133.0536-.0213s.0375-.016.0536-.0214c.5575-.256 1.0077-.7039 1.2436-1.29059l.0857-.20266c.0858-.20266.3538-.23466.4824-.05333.7505 1.09858 2.0048 1.12318 3.3341 1.12318h3.3662c.1882 0 1.3618 0 1.1874 2.0188l-.1241 3.2125c-.1289 2.9298-2.4168 4.8971-5.2095 4.8971s-5.0806-1.9673-5.2095-4.8971z" fill="url(#bh)"/><path d="m11.3502 12.9795h.0129l-.0107-.2773-.0107-.32c.0214-.9919.6003-1.3759.8469-1.5039.0161-.0053.0348-.0133.0536-.0213s.0375-.016.0536-.0214c.5575-.256 1.0077-.7039 1.2436-1.29059l.0857-.20266c.0858-.20266.3538-.23466.4824-.05333.7505 1.09858 2.0048 1.12318 3.3341 1.12318h3.3662c.1882 0 1.3618 0 1.1874 2.0188l-.1241 3.2125c-.1289 2.9298-2.4168 4.8971-5.2095 4.8971s-5.0806-1.9673-5.2095-4.8971z" fill="url(#bi)"/><path d="m11.3502 12.9795h.0129l-.0107-.2773-.0107-.32c.0214-.9919.6003-1.3759.8469-1.5039.0161-.0053.0348-.0133.0536-.0213s.0375-.016.0536-.0214c.5575-.256 1.0077-.7039 1.2436-1.29059l.0857-.20266c.0858-.20266.3538-.23466.4824-.05333.7505 1.09858 2.0048 1.12318 3.3341 1.12318h3.3662c.1882 0 1.3618 0 1.1874 2.0188l-.1241 3.2125c-.1289 2.9298-2.4168 4.8971-5.2095 4.8971s-5.0806-1.9673-5.2095-4.8971z" fill="url(#bj)"/><path d="m11.3502 12.9795h.0129l-.0107-.2773-.0107-.32c.0214-.9919.6003-1.3759.8469-1.5039.0161-.0053.0348-.0133.0536-.0213s.0375-.016.0536-.0214c.5575-.256 1.0077-.7039 1.2436-1.29059l.0857-.20266c.0858-.20266.3538-.23466.4824-.05333.7505 1.09858 2.0048 1.12318 3.3341 1.12318h3.3662c.1882 0 1.3618 0 1.1874 2.0188l-.1241 3.2125c-.1289 2.9298-2.4168 4.8971-5.2095 4.8971s-5.0806-1.9673-5.2095-4.8971z" fill="url(#bk)"/><path d="m11.3502 12.9795h.0129l-.0107-.2773-.0107-.32c.0214-.9919.6003-1.3759.8469-1.5039.0161-.0053.0348-.0133.0536-.0213s.0375-.016.0536-.0214c.5575-.256 1.0077-.7039 1.2436-1.29059l.0857-.20266c.0858-.20266.3538-.23466.4824-.05333.7505 1.09858 2.0048 1.12318 3.3341 1.12318h3.3662c.1882 0 1.3618 0 1.1874 2.0188l-.1241 3.2125c-.1289 2.9298-2.4168 4.8971-5.2095 4.8971s-5.0806-1.9673-5.2095-4.8971z" fill="url(#bl)"/><path d="m11.3502 12.9795h.0129l-.0107-.2773-.0107-.32c.0214-.9919.6003-1.3759.8469-1.5039.0161-.0053.0348-.0133.0536-.0213s.0375-.016.0536-.0214c.5575-.256 1.0077-.7039 1.2436-1.29059l.0857-.20266c.0858-.20266.3538-.23466.4824-.05333.7505 1.09858 2.0048 1.12318 3.3341 1.12318h3.3662c.1882 0 1.3618 0 1.1874 2.0188l-.1241 3.2125c-.1289 2.9298-2.4168 4.8971-5.2095 4.8971s-5.0806-1.9673-5.2095-4.8971z" fill="url(#bm)"/><path d="m11.3502 12.9795h.0129l-.0107-.2773-.0107-.32c.0214-.9919.6003-1.3759.8469-1.5039.0161-.0053.0348-.0133.0536-.0213s.0375-.016.0536-.0214c.5575-.256 1.0077-.7039 1.2436-1.29059l.0857-.20266c.0858-.20266.3538-.23466.4824-.05333.7505 1.09858 2.0048 1.12318 3.3341 1.12318h3.3662c.1882 0 1.3618 0 1.1874 2.0188l-.1241 3.2125c-.1289 2.9298-2.4168 4.8971-5.2095 4.8971s-5.0806-1.9673-5.2095-4.8971z" fill="url(#bn)"/></g><path d="m11.3502 12.9795h.0129l-.0107-.2773-.0107-.32c.0214-.9919.6003-1.3759.8469-1.5039.0161-.0053.0348-.0133.0536-.0213s.0375-.016.0536-.0214c.5575-.256 1.0077-.7039 1.2436-1.29059l.0857-.20266c.0858-.20266.3538-.23466.4824-.05333.7505 1.09858 2.0048 1.12318 3.3341 1.12318h3.3662c.1882 0 1.3618 0 1.1874 2.0188l-.1241 3.2125c-.1289 2.9298-2.4168 4.8971-5.2095 4.8971s-5.0806-1.9673-5.2095-4.8971z" fill="url(#bo)"/><path d="m11.3502 12.9795h.0129l-.0107-.2773-.0107-.32c.0214-.9919.6003-1.3759.8469-1.5039.0161-.0053.0348-.0133.0536-.0213s.0375-.016.0536-.0214c.5575-.256 1.0077-.7039 1.2436-1.29059l.0857-.20266c.0858-.20266.3538-.23466.4824-.05333.7505 1.09858 2.0048 1.12318 3.3341 1.12318h3.3662c.1882 0 1.3618 0 1.1874 2.0188l-.1241 3.2125c-.1289 2.9298-2.4168 4.8971-5.2095 4.8971s-5.0806-1.9673-5.2095-4.8971z" fill="url(#bp)"/><path d="m11.3502 12.9795h.0129l-.0107-.2773-.0107-.32c.0214-.9919.6003-1.3759.8469-1.5039.0161-.0053.0348-.0133.0536-.0213s.0375-.016.0536-.0214c.5575-.256 1.0077-.7039 1.2436-1.29059l.0857-.20266c.0858-.20266.3538-.23466.4824-.05333.7505 1.09858 2.0048 1.12318 3.3341 1.12318h3.3662c.1882 0 1.3618 0 1.1874 2.0188l-.1241 3.2125c-.1289 2.9298-2.4168 4.8971-5.2095 4.8971s-5.0806-1.9673-5.2095-4.8971z" fill="url(#bq)"/><g filter="url(#D)"><path d="m16.2585 14.0667-.7146 1.7772c-.1134.3656.1587.7312.5443.7312h.822c.3855 0 .6577-.3712.5443-.7312l-.5556-1.7772c-.1191-.3936-.5157-.3936-.6404 0z" fill="#d19590"/></g><g filter="url(#E)"><path d="m16.2689 13.9217-.5556 1.7772c-.1134.3656.1588.7311.5443.7311h.8221c.3855 0 .6576-.3711.5442-.7311l-.5556-1.7772c-.119-.3937-.6746-.3937-.7994 0z" fill="#f1c4b2"/><path d="m16.2689 13.9217-.5556 1.7772c-.1134.3656.1588.7311.5443.7311h.8221c.3855 0 .6576-.3711.5442-.7311l-.5556-1.7772c-.119-.3937-.6746-.3937-.7994 0z" fill="url(#br)"/><path d="m16.2689 13.9217-.5556 1.7772c-.1134.3656.1588.7311.5443.7311h.8221c.3855 0 .6576-.3711.5442-.7311l-.5556-1.7772c-.119-.3937-.6746-.3937-.7994 0z" fill="url(#bs)"/><path d="m16.2689 13.9217-.5556 1.7772c-.1134.3656.1588.7311.5443.7311h.8221c.3855 0 .6576-.3711.5442-.7311l-.5556-1.7772c-.119-.3937-.6746-.3937-.7994 0z" fill="url(#bt)"/><path d="m16.2689 13.9217-.5556 1.7772c-.1134.3656.1588.7311.5443.7311h.8221c.3855 0 .6576-.3711.5442-.7311l-.5556-1.7772c-.119-.3937-.6746-.3937-.7994 0z" fill="url(#bu)"/></g><g filter="url(#F)"><path d="m16.6688 17.3432c-.5444 0-1.0561-.131-1.4861-.3604-.147-.0764-.3049.0929-.2124.2294.3593.5569.9854.9282 1.6985.9282s1.3392-.3713 1.6984-.9282c.0926-.142-.0653-.3058-.2123-.2294-.43.2294-.9363.3604-1.4861.3604z" stroke="url(#bv)" stroke-width=".2"/></g><path d="m16.6688 17.3432c-.5444 0-1.0561-.131-1.4861-.3604-.147-.0764-.3049.0929-.2124.2294.3593.5569.9854.9282 1.6985.9282s1.3392-.3713 1.6984-.9282c.0926-.142-.0653-.3058-.2123-.2294-.43.2294-.9363.3604-1.4861.3604z" fill="#88024e"/><g filter="url(#G)"><path d="m17.8628 13.7045c.2775-.488.6993-.8734 1.6072-.8734.3975 0 .7808.1101 1.1215.3854.281.2271.2434.5177.0257.6265l-.5812.3318c-.6815-.2202-1.435-.25-2.1732-.4703z" fill="#2d2b2e"/></g><g filter="url(#H)"><path d="m15.4753 13.7045c-.2774-.488-.6992-.8734-1.6071-.8734-.3975 0-.7808.1101-1.1215.3854-.2811.2271-.2434.5177-.0258.6265l.5813.3318c.6814-.2202 1.4349-.25 2.1731-.4703z" fill="#272528"/></g><g filter="url(#I)"><path d="m13.1166 12.4406-.0046.0027c-.0002.0001-.0003.0001-.0004.0002-.1327.0792-.3047.0362-.3843-.0964-.0796-.1327-.0364-.3051.0964-.3847l.0006-.0004.001-.0006.0031-.0018.0099-.0057c.0081-.0047.0195-.0111.0339-.0189.0287-.0155.0696-.0368.1212-.0614.103-.0491.2499-.112.4288-.1691.3553-.1134.8522-.2088 1.3885-.1141.1525.0269.2543.1723.2274.3248s-.1723.2543-.3248.2273c-.4168-.0735-.8171-.0007-1.1206.0962-.1505.048-.2735.1008-.358.141-.0422.0201-.0744.037-.0954.0483-.0105.0057-.0181.01-.0227.0126z" fill="#1e1e1e"/></g><g filter="url(#J)"><path clip-rule="evenodd" d="m20.5697 11.9624c.0001 0 .0002.0001-.1441.2405l.1441-.2405c.1328.0796.176.252.0963.3847-.0795.1326-.2514.1757-.3841.0965 0 0-.0002-.0001-.0005-.0003l-.0046-.0027c-.0046-.0026-.0122-.0069-.0227-.0126-.021-.0113-.0533-.0282-.0954-.0483-.0845-.0402-.2075-.093-.358-.141-.3035-.0969-.7038-.1697-1.1206-.0962-.1525.027-.2979-.0748-.3248-.2273s.0749-.2979.2273-.3248c.5364-.0947 1.0333.0007 1.3886.1141.1789.0571.3257.12.4288.1691.0516.0246.0925.0459.1212.0614.0144.0078.0257.0142.0339.0189l.0099.0057.003.0018.0011.0006z" fill="#1e1e1e" fill-rule="evenodd"/></g><path d="m19.1683 12.8926c.6828 0 1.2595.4707 1.4164 1.1068.0467.1824-.0933.3562-.2799.3562h-2.3324c-.1484 0-.2672-.1357-.2375-.2841.1315-.67.721-1.1789 1.4334-1.1789z" fill="#fff"/><path d="m18.9517 13.1763c.5174 0 .933.4198.933.9329 0 .0849-.0127.1697-.0339.246h-1.8023c-.0213-.0806-.034-.1611-.034-.246 0-.5131.4199-.9329.9372-.9329z" fill="url(#bx)"/><path d="m18.4178 14.1095c0-.2968.2375-.5343.5344-.5343.2968 0 .5343.2375.5343.5343 0 .0891-.0212.1739-.0594.246h-.9456c-.0424-.0721-.0637-.1569-.0637-.246z" fill="#000"/><g filter="url(#K)"><path d="m18.8837 13.3739c.0665.0889-.0724.1973-.2304.3154s-.2752.2012-.3417.1123c-.0664-.0889.0077-.2567.1657-.3748.158-.1182.3399-.1418.4064-.0529z" fill="#c7a7a3"/><path d="m18.8837 13.3739c.0665.0889-.0724.1973-.2304.3154s-.2752.2012-.3417.1123c-.0664-.0889.0077-.2567.1657-.3748.158-.1182.3399-.1418.4064-.0529z" fill="url(#bz)"/></g><g filter="url(#L)"><path d="m19.7829 13.9866c-.0344-.2412-.1756-.4229-.2418-.4837l-.2717.2982.1226.2386z" fill="url(#bB)"/></g><path d="m14.169 12.8926c-.6828 0-1.2595.4707-1.4164 1.1068-.0467.1824.0933.3562.2799.3562h2.3324c.1484 0 .2672-.1357.2375-.2841-.1315-.67-.7252-1.1789-1.4334-1.1789z" fill="#fff"/><path d="m14.3855 13.1763c-.5174 0-.933.4198-.933.9329 0 .0849.0127.1697.0339.246h1.8024c.0212-.0806.0339-.1611.0339-.246-.0042-.5131-.4198-.9329-.9372-.9329z" fill="url(#bC)"/><path d="m14.9201 14.1095c0-.2968-.2375-.5343-.5343-.5343-.2969 0-.5344.2375-.5344.5343 0 .0891.0212.1739.0594.246h.9457c.0382-.0721.0636-.1569.0636-.246z" fill="#000"/><g filter="url(#M)"><path d="m15.2378 13.9998c0-.3015-.2452-.5025-.3114-.5633l-.3015.2916.1855.3777z" fill="url(#bD)"/></g><g filter="url(#N)"><ellipse cx="14.1042" cy="13.575" fill="#c7a7a3" fill-opacity=".9" rx=".407292" ry=".206128" transform="matrix(.88365127 -.46814574 .46814574 .88365127 -4.714073 8.182255)"/><ellipse cx="14.1042" cy="13.575" fill="url(#bE)" rx=".407292" ry=".206128" transform="matrix(.88365127 -.46814574 .46814574 .88365127 -4.714073 8.182255)"/></g><g filter="url(#O)"><path d="m18.6967 11.8191c.3372-.0821 1.1756-.0411 1.7361.36" stroke="#323233" stroke-linecap="round" stroke-width=".2"/></g><g filter="url(#P)"><path d="m14.7333 11.8191c-.3372-.0821-1.1757-.0411-1.7362.36" stroke="#323233" stroke-linecap="round" stroke-width=".2"/></g><g filter="url(#Q)"><path d="m13.5336 7.81299c.0243.25407.2453 1.20904.5694 1.78727" stroke="url(#bF)" stroke-linecap="round" stroke-width=".2"/></g><g filter="url(#R)"><path d="m19.072 10.2812-1.4902.2741c-.442.0813-.8495-.258-.8495-.70749 0-.39731.3216-.71939.7189-.71939h2.447c1.4473 0 1.9264 1.45858 1.985 1.95698-.7599-.6927-1.8-.9902-2.8112-.8042z" fill="#4b4648"/></g><path d="m10.9999 8.66211c0-3.18858 2.5848-5.77344 5.7734-5.77344s5.7735 2.58486 5.7735 5.77344v1.64839h-11.5469z" fill="url(#bG)"/><path d="m10.9999 8.66211c0-3.18858 2.5848-5.77344 5.7734-5.77344s5.7735 2.58486 5.7735 5.77344v1.64839h-11.5469z" fill="url(#bH)"/><path d="m10.9999 8.66211c0-3.18858 2.5848-5.77344 5.7734-5.77344s5.7735 2.58486 5.7735 5.77344v1.64839h-11.5469z" fill="url(#bI)"/><path d="m11.0482 7.91211c-.0317.24549-.0483.49583-.0483.75v1.64839h11.5469v-1.64839c0-.25417-.0166-.50451-.0484-.75z" fill="url(#bJ)"/><path d="m11.0482 7.91211c-.0317.24549-.0483.49583-.0483.75v1.64839h11.5469v-1.64839c0-.25417-.0166-.50451-.0484-.75z" fill="url(#bK)"/><rect fill="url(#bL)" height="1.74219" rx=".871094" width="15.5156" x="9.0033" y="9.23779"/><rect fill="url(#bM)" height="1.74219" rx=".871094" width="15.5156" x="9.0033" y="9.23779"/><rect fill="url(#bN)" height="1.74219" rx=".871094" width="15.5156" x="9.0033" y="9.23779"/></svg>