<svg fill="none" height="32" viewBox="0 0 32 32" width="32" xmlns="http://www.w3.org/2000/svg" xmlns:xlink="http://www.w3.org/1999/xlink"><filter id="a" color-interpolation-filters="sRGB" filterUnits="userSpaceOnUse" height="6.57458" width="4.46924" x="20.2239" y="2.25"><feFlood flood-opacity="0" result="BackgroundImageFix"/><feBlend in="SourceGraphic" in2="BackgroundImageFix" mode="normal" result="shape"/><feGaussianBlur result="effect1_foregroundBlur_18_16776" stdDeviation=".125"/></filter><filter id="b" color-interpolation-filters="sRGB" filterUnits="userSpaceOnUse" height="1.1" width="5.50635" x="17.9729" y="15.9547"><feFlood flood-opacity="0" result="BackgroundImageFix"/><feBlend in="SourceGraphic" in2="BackgroundImageFix" mode="normal" result="shape"/><feColorMatrix in="SourceAlpha" result="hardAlpha" type="matrix" values="0 0 0 0 0 0 0 0 0 0 0 0 0 0 0 0 0 0 127 0"/><feOffset dy="-.1"/><feGaussianBlur stdDeviation=".1"/><feComposite in2="hardAlpha" k2="-1" k3="1" operator="arithmetic"/><feColorMatrix type="matrix" values="0 0 0 0 0.745098 0 0 0 0 0.619608 0 0 0 0 0.427451 0 0 0 1 0"/><feBlend in2="shape" mode="normal" result="effect1_innerShadow_18_16776"/></filter><filter id="c" color-interpolation-filters="sRGB" filterUnits="userSpaceOnUse" height="12.7436" width="12.4437" x="8.99375" y="8.73984"><feFlood flood-opacity="0" result="BackgroundImageFix"/><feBlend in="SourceGraphic" in2="BackgroundImageFix" mode="normal" result="shape"/><feGaussianBlur result="effect1_foregroundBlur_18_16776" stdDeviation=".3"/></filter><filter id="d" color-interpolation-filters="sRGB" filterUnits="userSpaceOnUse" height="6.39412" width="4.11924" x="7.24585" y="2.05547"><feFlood flood-opacity="0" result="BackgroundImageFix"/><feBlend in="SourceGraphic" in2="BackgroundImageFix" mode="normal" result="shape"/><feColorMatrix in="SourceAlpha" result="hardAlpha" type="matrix" values="0 0 0 0 0 0 0 0 0 0 0 0 0 0 0 0 0 0 127 0"/><feOffset dx=".15" dy="-.3"/><feGaussianBlur stdDeviation=".25"/><feComposite in2="hardAlpha" k2="-1" k3="1" operator="arithmetic"/><feColorMatrix type="matrix" values="0 0 0 0 0.729412 0 0 0 0 0.219608 0 0 0 0 0.403922 0 0 0 1 0"/><feBlend in2="shape" mode="normal" result="effect1_innerShadow_18_16776"/></filter><filter id="e" color-interpolation-filters="sRGB" filterUnits="userSpaceOnUse" height="3.5562" width="5.92363" x="13.0404" y="1.92502"><feFlood flood-opacity="0" result="BackgroundImageFix"/><feBlend in="SourceGraphic" in2="BackgroundImageFix" mode="normal" result="shape"/><feGaussianBlur result="effect1_foregroundBlur_18_16776" stdDeviation=".05"/></filter><filter id="f" color-interpolation-filters="sRGB" filterUnits="userSpaceOnUse" height=".946875" width="15.9517" x="7.87305" y="28.9516"><feFlood flood-opacity="0" result="BackgroundImageFix"/><feBlend in="SourceGraphic" in2="BackgroundImageFix" mode="normal" result="shape"/><feColorMatrix in="SourceAlpha" result="hardAlpha" type="matrix" values="0 0 0 0 0 0 0 0 0 0 0 0 0 0 0 0 0 0 127 0"/><feOffset dy="-.15"/><feGaussianBlur stdDeviation=".175"/><feComposite in2="hardAlpha" k2="-1" k3="1" operator="arithmetic"/><feColorMatrix type="matrix" values="0 0 0 0 0.776471 0 0 0 0 0.521569 0 0 0 0 0.294118 0 0 0 1 0"/><feBlend in2="shape" mode="normal" result="effect1_innerShadow_18_16776"/></filter><filter id="g" color-interpolation-filters="sRGB" filterUnits="userSpaceOnUse" height="17.1344" width="3.78774" x="20.2759" y="11.9015"><feFlood flood-opacity="0" result="BackgroundImageFix"/><feBlend in="SourceGraphic" in2="BackgroundImageFix" mode="normal" result="shape"/><feGaussianBlur result="effect1_foregroundBlur_18_16776" stdDeviation=".15"/></filter><filter id="h" color-interpolation-filters="sRGB" filterUnits="userSpaceOnUse" height="2.96838" width="3.72021" x="21.1223" y="2.66754"><feFlood flood-opacity="0" result="BackgroundImageFix"/><feBlend in="SourceGraphic" in2="BackgroundImageFix" mode="normal" result="shape"/><feGaussianBlur result="effect1_foregroundBlur_18_16776" stdDeviation=".25"/></filter><filter id="i" color-interpolation-filters="sRGB" filterUnits="userSpaceOnUse" height="18.8383" width="13.0066" x="9.05225" y="2.11753"><feFlood flood-opacity="0" result="BackgroundImageFix"/><feBlend in="SourceGraphic" in2="BackgroundImageFix" mode="normal" result="shape"/><feColorMatrix in="SourceAlpha" result="hardAlpha" type="matrix" values="0 0 0 0 0 0 0 0 0 0 0 0 0 0 0 0 0 0 127 0"/><feOffset dy="-.1"/><feGaussianBlur stdDeviation=".15"/><feComposite in2="hardAlpha" k2="-1" k3="1" operator="arithmetic"/><feColorMatrix type="matrix" values="0 0 0 0 0.678431 0 0 0 0 0.611765 0 0 0 0 0.211765 0 0 0 1 0"/><feBlend in2="shape" mode="normal" result="effect1_innerShadow_18_16776"/></filter><linearGradient id="j" gradientUnits="userSpaceOnUse" x1="20.7385" x2="20.7385" y1="6.63281" y2="17.2578"><stop offset=".158249" stop-color="#53c8da"/><stop offset="1" stop-color="#6bffab"/></linearGradient><linearGradient id="k" gradientUnits="userSpaceOnUse" x1="23.6917" x2="23.1917" y1="15.0391" y2="15.0391"><stop offset="0" stop-color="#49c4e3"/><stop offset="1" stop-color="#49c4e3" stop-opacity="0"/></linearGradient><radialGradient id="l" cx="0" cy="0" gradientTransform="matrix(0 -4.16406 .5625 0 23.5041 16.0078)" gradientUnits="userSpaceOnUse" r="1"><stop offset="0" stop-color="#65fca7"/><stop offset="1" stop-color="#65fca7" stop-opacity="0"/></radialGradient><radialGradient id="m" cx="0" cy="0" gradientTransform="matrix(1.71875 0 0 1.01646 21.2229 16.5547)" gradientUnits="userSpaceOnUse" r="1"><stop offset="0" stop-color="#ffdc4f"/><stop offset="1" stop-color="#ffcd53"/></radialGradient><linearGradient id="n" gradientUnits="userSpaceOnUse" x1="15.907" x2="15.907" y1="13.6641" y2="29.3516"><stop offset="0" stop-color="#4fb7e8"/><stop offset="1" stop-color="#63eba8"/></linearGradient><linearGradient id="o" gradientUnits="userSpaceOnUse" x1="7.85254" x2="16.9417" y1="26.2266" y2="26.2266"><stop offset="0" stop-color="#5dbba1"/><stop offset="1" stop-color="#5dbba1" stop-opacity="0"/></linearGradient><linearGradient id="p" gradientUnits="userSpaceOnUse" x1="7.24074" x2="9.0576" y1="27.0828" y2="27.3942"><stop offset="0" stop-color="#86cead"/><stop offset="1" stop-color="#86cead" stop-opacity="0"/></linearGradient><radialGradient id="q" cx="0" cy="0" gradientTransform="matrix(-11.24997918 7.88727335 -7.68239047 -10.95774534 19.8053 13.0687)" gradientUnits="userSpaceOnUse" r="1"><stop offset="0" stop-color="#49a9d9"/><stop offset="1" stop-color="#2b877d"/></radialGradient><linearGradient id="r" gradientUnits="userSpaceOnUse" x1="10.9729" x2="9.23048" y1="2.35547" y2="7.57031"><stop offset="0" stop-color="#ec6a4c"/><stop offset="1" stop-color="#d94971"/></linearGradient><linearGradient id="s" gradientUnits="userSpaceOnUse" x1="11.2151" x2="10.0354" y1="7.60156" y2="7.25781"><stop offset=".138139" stop-color="#ca4a4c"/><stop offset="1" stop-color="#ca4a4c" stop-opacity="0"/></linearGradient><linearGradient id="t" gradientUnits="userSpaceOnUse" x1="8.03543" x2="8.69168" y1="3.69531" y2="4.52344"><stop offset="0" stop-color="#e9766f"/><stop offset="1" stop-color="#e9766f" stop-opacity="0"/></linearGradient><linearGradient id="u" gradientUnits="userSpaceOnUse" x1="16.0022" x2="16.0022" y1="2.125" y2="8.53906"><stop offset="0" stop-color="#e5653f"/><stop offset="1" stop-color="#e54c74"/></linearGradient><linearGradient id="v" gradientUnits="userSpaceOnUse" x1="11.1917" x2="13.0979" y1="12.2891" y2="6.86328"><stop offset="0" stop-color="#cb2979"/><stop offset="1" stop-color="#cb2979" stop-opacity="0"/></linearGradient><radialGradient id="w" cx="0" cy="0" gradientTransform="matrix(6.12499701 1.42187229 -3.41514192 14.71140144 13.2229 4.64844)" gradientUnits="userSpaceOnUse" r="1"><stop offset=".75193" stop-color="#cb4637" stop-opacity="0"/><stop offset=".904568" stop-color="#cb4637"/></radialGradient><linearGradient id="x" gradientUnits="userSpaceOnUse" x1="15.6448" x2="15.6604" y1="1.66406" y2="2.44531"><stop offset="0" stop-color="#f78555"/><stop offset="1" stop-color="#f78555" stop-opacity="0"/></linearGradient><radialGradient id="y" cx="0" cy="0" gradientTransform="matrix(.85937766 -1.03125213 1.80468931 1.5039093 13.8479 4.38281)" gradientUnits="userSpaceOnUse" r="1"><stop offset="0" stop-color="#f2674f"/><stop offset="1" stop-color="#f2674f" stop-opacity="0"/></radialGradient><radialGradient id="z" cx="0" cy="0" gradientTransform="matrix(1.21484724 3.1562533 -6.45120712 2.48308055 14.7874 2.125)" gradientUnits="userSpaceOnUse" r="1"><stop offset="0" stop-color="#bb5a4a"/><stop offset="1" stop-color="#a34c52"/></radialGradient><linearGradient id="A" gradientUnits="userSpaceOnUse" x1="16.0022" x2="16.0022" y1="1.85156" y2="2.91406"><stop offset="0" stop-color="#ce6741"/><stop offset="1" stop-color="#ba594a" stop-opacity="0"/></linearGradient><radialGradient id="B" cx="0" cy="0" gradientTransform="matrix(3.18750453 2.01562518 -2.11962576 3.35197078 15.1448 2.52344)" gradientUnits="userSpaceOnUse" r="1"><stop offset=".811774" stop-color="#95312b" stop-opacity="0"/><stop offset=".915194" stop-color="#95312b"/></radialGradient><linearGradient id="C" gradientUnits="userSpaceOnUse" x1="22.0041" x2="22.9728" y1="3.19531" y2="7.75781"><stop offset="0" stop-color="#ff6c60"/><stop offset="1" stop-color="#e63e7e"/></linearGradient><linearGradient id="D" gradientUnits="userSpaceOnUse" x1="11.5667" x2="21.9729" y1="29.8984" y2="29.8984"><stop offset="0" stop-color="#ceb032"/><stop offset="1" stop-color="#f7c44f"/></linearGradient><linearGradient id="E" gradientUnits="userSpaceOnUse" x1="20.8823" x2="23.9448" y1="13.0078" y2="28.3516"><stop offset="0" stop-color="#56c0f6"/><stop offset="1" stop-color="#6fffb8"/></linearGradient><linearGradient id="F" gradientUnits="userSpaceOnUse" x1="22.2697" x2="25.094" y1="3.37884" y2="3.2419"><stop offset="0" stop-color="#ff7f68"/><stop offset="1" stop-color="#ff7b85"/></linearGradient><linearGradient id="G" gradientUnits="userSpaceOnUse" x1="17.1603" x2="14.7853" y1="14.3828" y2="9.50781"><stop offset="0" stop-color="#52d3bf"/><stop offset=".9195" stop-color="#3fbbca"/></linearGradient><radialGradient id="H" cx="0" cy="0" gradientTransform="matrix(4.40624615 -7.28125463 9.50482858 5.75184038 10.0978 19.7578)" gradientUnits="userSpaceOnUse" r="1"><stop offset="0" stop-color="#4ec18d"/><stop offset="1" stop-color="#4ec18d" stop-opacity="0"/></radialGradient><linearGradient id="I" gradientUnits="userSpaceOnUse" x1="20.5353" x2="20.5353" y1="1.85156" y2="10.0078"><stop offset="0" stop-color="#34acf4"/><stop offset="1" stop-color="#34acf4" stop-opacity="0"/></linearGradient><linearGradient id="J" gradientUnits="userSpaceOnUse" x1="9.50406" x2="11.0978" y1="17.1016" y2="17.3828"><stop offset="0" stop-color="#77c6af"/><stop offset="1" stop-color="#77c6af" stop-opacity="0"/></linearGradient><radialGradient id="K" cx="0" cy="0" gradientTransform="matrix(-2.78125441 -3.68750053 9.40602965 -7.09438853 18.223 8.25781)" gradientUnits="userSpaceOnUse" r="1"><stop offset=".211673" stop-color="#f4cf4b"/><stop offset="1" stop-color="#f0be3d"/></radialGradient><radialGradient id="L" cx="0" cy="0" gradientTransform="matrix(1.34375119 .21875013 -.48725987 2.99316866 18.223 3.60156)" gradientUnits="userSpaceOnUse" r="1"><stop offset=".463238" stop-color="#d29c35"/><stop offset="1" stop-color="#d29c35" stop-opacity="0"/></radialGradient><linearGradient id="M" gradientUnits="userSpaceOnUse" x1="22.0587" x2="13.7853" y1="2.6953" y2="19.5078"><stop offset="0" stop-color="#feca52"/><stop offset="1" stop-color="#e7c93b"/></linearGradient><linearGradient id="N" gradientUnits="userSpaceOnUse" x1="9.41031" x2="15.5555" y1="21.1328" y2="14.539"><stop offset="0" stop-color="#ccb948"/><stop offset="1" stop-color="#ccb948" stop-opacity="0"/></linearGradient><path d="m7.86809 28.7243 1.74554-9.8727 11.29687-7.25 3.0279 16.6463c.1563.8594-.5039 1.6505-1.3774 1.6505h-13.70819c-.62193 0-1.093-.5616-.98472-1.1741z" fill="#836ce0" fill-opacity=".5"/><path d="m17.9729 6.63281h5.5313v9.17189c0 .6903-.5597 1.25-1.25 1.25h-4.2813z" fill="url(#j)"/><path d="m17.9729 6.63281h5.5313v9.17189c0 .6903-.5597 1.25-1.25 1.25h-4.2813z" fill="url(#k)"/><path d="m17.9729 6.63281h5.5313v9.17189c0 .6903-.5597 1.25-1.25 1.25h-4.2813z" fill="url(#l)"/><g filter="url(#a)"><path d="m21.677 2.92578c-.375-.2375-.8099-.39713-.9219-.42578l-.2813.38281v4.75l1.4913.86122c.2888.16681.6582.06604.8224-.2243l1.5712-2.77953c.1666-.29462.0795-.66766-.1993-.85952-.918-.63177-2.1692-1.50649-2.4824-1.7049z" fill="#2f8aa6"/></g><g filter="url(#b)"><path clip-rule="evenodd" d="m23.4791 16.0547c-.1158.5705-.6202 1-1.2249 1h-4.2813v-1z" fill="url(#m)" fill-rule="evenodd"/></g><path d="m7.86809 28.7243 1.74554-9.8727 11.29687-7.25 3.0279 16.6463c.1563.8594-.5039 1.6505-1.3774 1.6505h-13.70819c-.62193 0-1.093-.5616-.98472-1.1741z" fill="url(#n)"/><path d="m7.86809 28.7243 1.74554-9.8727 11.29687-7.25 3.0279 16.6463c.1563.8594-.5039 1.6505-1.3774 1.6505h-13.70819c-.62193 0-1.093-.5616-.98472-1.1741z" fill="url(#o)"/><path d="m7.86809 28.7243 1.74554-9.8727 11.29687-7.25 3.0279 16.6463c.1563.8594-.5039 1.6505-1.3774 1.6505h-13.70819c-.62193 0-1.093-.5616-.98472-1.1741z" fill="url(#p)"/><g filter="url(#c)"><path d="m10.1742 17.281c4.1361-3.0285 8.1054-6.0733 10.6633-7.94116v2.39736c0 .6568-.3115 1.2747-.8395 1.6653l-9.8166 7.4075c-.26816.1984-.64083-.0335-.58133-.3617z" fill="url(#q)"/></g><g filter="url(#d)"><path d="m10.012 2.80078c.375-.2375.8607-.41667.9726-.44531l.2305.40234v4.75l-1.49122.86122c-.28882.16681-.65825.06604-.82238-.2243l-1.57128-2.77953c-.16655-.29462-.0795-.66766.1993-.85952.91807-.63177 2.1692-1.50649 2.48248-1.7049z" fill="url(#r)"/><path d="m10.012 2.80078c.375-.2375.8607-.41667.9726-.44531l.2305.40234v4.75l-1.49122.86122c-.28882.16681-.65825.06604-.82238-.2243l-1.57128-2.77953c-.16655-.29462-.0795-.66766.1993-.85952.91807-.63177 2.1692-1.50649 2.48248-1.7049z" fill="url(#s)"/><path d="m10.012 2.80078c.375-.2375.8607-.41667.9726-.44531l.2305.40234v4.75l-1.49122.86122c-.28882.16681-.65825.06604-.82238-.2243l-1.57128-2.77953c-.16655-.29462-.0795-.66766.1993-.85952.91807-.63177 2.1692-1.50649 2.48248-1.7049z" fill="url(#t)"/></g><path d="m10.9495 11.6016v-9.23441c.1968-.08074.7353-.24219 1.3148-.24219h7.4758c.5794 0 1.118.16145 1.3148.24219v9.23441z" fill="url(#u)"/><path d="m10.9495 11.6016v-9.23441c.1968-.08074.7353-.24219 1.3148-.24219h7.4758c.5794 0 1.118.16145 1.3148.24219v9.23441z" fill="url(#v)"/><path d="m10.9495 11.6016v-9.23441c.1968-.08074.7353-.24219 1.3148-.24219h7.4758c.5794 0 1.118.16145 1.3148.24219v9.23441z" fill="url(#w)"/><path d="m10.9495 11.6016v-9.23441c.1968-.08074.7353-.24219 1.3148-.24219h7.4758c.5794 0 1.118.16145 1.3148.24219v9.23441z" fill="url(#x)"/><g filter="url(#e)"><path d="m13.2405 2.075h-.05v.05.39453c0 1.55287 1.2588 2.81172 2.8117 2.81172s2.8117-1.25885 2.8117-2.81172v-.39453-.05h-.05z" stroke="url(#y)" stroke-width=".1"/></g><path d="m13.2405 2.125v.39453c0 1.52525 1.2364 2.76172 2.7617 2.76172s2.7617-1.23647 2.7617-2.76172v-.39453z" fill="url(#z)"/><path d="m13.2405 2.125v.39453c0 1.52525 1.2364 2.76172 2.7617 2.76172s2.7617-1.23647 2.7617-2.76172v-.39453z" fill="url(#A)"/><path d="m13.2405 2.125v.39453c0 1.52525 1.2364 2.76172 2.7617 2.76172s2.7617-1.23647 2.7617-2.76172v-.39453z" fill="url(#B)"/><path d="m13.2405 2.125v.39453c0 1.52525 1.2364 2.76172 2.7617 2.76172s2.7617-1.23647 2.7617-2.76172v-.39453z" fill="url(#z)"/><path d="m13.2405 2.125v.39453c0 1.52525 1.2364 2.76172 2.7617 2.76172s2.7617-1.23647 2.7617-2.76172v-.39453z" fill="url(#A)"/><path d="m13.2405 2.125v.39453c0 1.52525 1.2364 2.76172 2.7617 2.76172s2.7617-1.23647 2.7617-2.76172v-.39453z" fill="url(#B)"/><path d="m21.988 2.78516c-.375-.2375-.8099-.39714-.9219-.42578l-.2812.38281v4.75l1.4912.86122c.2888.1668.6583.06604.8224-.22431l1.5713-2.77952c.1665-.29462.0795-.66766-.1993-.85952-.9181-.63178-2.1692-1.50649-2.4825-1.7049z" fill="url(#C)"/><g filter="url(#f)"><path d="m23.8247 29.1016c-.2234.4661-.699.7968-1.2638.7968h-13.70818c-.49028 0-.88682-.349-.97967-.7968z" fill="url(#D)"/></g><g filter="url(#g)"><path d="m20.7261 12.3516 2.8875 16.2343" stroke="url(#E)" stroke-linecap="round" stroke-width=".3"/></g><g filter="url(#h)"><rect fill="url(#F)" height=".522435" rx=".261218" transform="matrix(.83541811 .54961494 -.54961494 .83541811 5.275013 -11.481666)" width="3.15312" x="21.8088" y="3.06702"/></g><path d="m19.069 3.68648v-1.28492c0-.16568.1343-.3.3-.3h1.0264c.3612 0 .7157.09785 1.0258.28314l.2722.16265c.2266.13538.3654.37989.3654.64382v7.40113c0 .7134-.3384 1.3846-.9119 1.8088l-11.4563 8.4751c-.2913.2155-.69611-.0364-.63148-.3929l1.48788-8.208c.0946-.5215.3922-.9841.8276-1.2863l6.0827-4.22186c1.0096-.70075 1.6117-1.85171 1.6117-3.08066z" fill="url(#G)"/><path d="m19.069 3.68648v-1.28492c0-.16568.1343-.3.3-.3h1.0264c.3612 0 .7157.09785 1.0258.28314l.2722.16265c.2266.13538.3654.37989.3654.64382v7.40113c0 .7134-.3384 1.3846-.9119 1.8088l-11.4563 8.4751c-.2913.2155-.69611-.0364-.63148-.3929l1.48788-8.208c.0946-.5215.3922-.9841.8276-1.2863l6.0827-4.22186c1.0096-.70075 1.6117-1.85171 1.6117-3.08066z" fill="url(#H)"/><path d="m19.069 3.68648v-1.28492c0-.16568.1343-.3.3-.3h1.0264c.3612 0 .7157.09785 1.0258.28314l.2722.16265c.2266.13538.3654.37989.3654.64382v7.40113c0 .7134-.3384 1.3846-.9119 1.8088l-11.4563 8.4751c-.2913.2155-.69611-.0364-.63148-.3929l1.48788-8.208c.0946-.5215.3922-.9841.8276-1.2863l6.0827-4.22186c1.0096-.70075 1.6117-1.85171 1.6117-3.08066z" fill="url(#I)"/><path d="m19.069 3.68648v-1.28492c0-.16568.1343-.3.3-.3h1.0264c.3612 0 .7157.09785 1.0258.28314l.2722.16265c.2266.13538.3654.37989.3654.64382v7.40113c0 .7134-.3384 1.3846-.9119 1.8088l-11.4563 8.4751c-.2913.2155-.69611-.0364-.63148-.3929l1.48788-8.208c.0946-.5215.3922-.9841.8276-1.2863l6.0827-4.22186c1.0096-.70075 1.6117-1.85171 1.6117-3.08066z" fill="url(#J)"/><path d="m10.4661 12.7231 7.3615-4.95559c1.3803-.92912 2.2079-2.48395 2.2079-4.14777v-1.51818h-.6663c-.1657 0-.3.13432-.3.3v1.28492c0 1.22895-.6022 2.37991-1.6117 3.08066l-6.0827 4.22186c-.4354.3022-.733.7648-.8276 1.2863z" fill="url(#K)"/><path d="m10.4661 12.7231 7.3615-4.95559c1.3803-.92912 2.2079-2.48395 2.2079-4.14777v-1.51818h-.6663c-.1657 0-.3.13432-.3.3v1.28492c0 1.22895-.6022 2.37991-1.6117 3.08066l-6.0827 4.22186c-.4354.3022-.733.7648-.8276 1.2863z" fill="url(#L)"/><g filter="url(#i)"><path d="m9.15551 19.9516 11.09289-8.1258c.5143-.3767.8182-.9759.8182-1.6134v-7.99487c.1229.04378.2417.09967.3546.16716l.2722.16265c.2266.13538.3654.37988.3654.64382v7.40114c0 .7134-.3384 1.3845-.9119 1.8088l-11.4563 8.4751c-.2913.2155-.69611-.0364-.63148-.3929z" fill="url(#M)"/><path d="m9.15551 19.9516 11.09289-8.1258c.5143-.3767.8182-.9759.8182-1.6134v-7.99487c.1229.04378.2417.09967.3546.16716l.2722.16265c.2266.13538.3654.37988.3654.64382v7.40114c0 .7134-.3384 1.3845-.9119 1.8088l-11.4563 8.4751c-.2913.2155-.69611-.0364-.63148-.3929z" fill="url(#N)"/></g></svg>