<svg fill="none" height="32" viewBox="0 0 32 32" width="32" xmlns="http://www.w3.org/2000/svg"><path d="m13 4v-1.20996c0-.43773.3143-.79004.7048-.79004h4.5904c.3905 0 .7048.35231.7048.79004v1.20996h3.23c.98 0 1.77.78939 1.77 1.76864v22.46276c0 .9792-.79 1.7686-1.77 1.7686h-12.46c-.98 0-1.77-.7894-1.77-1.7686v-22.46276c0-.97925.79-1.76864 1.77-1.76864z" fill="#9b9b9b"/><path d="m24 6h-16v22h16z" fill="#86d72f"/><path d="m15 12.5v.93c0 .31.26.57.57.57h.86c.31 0 .57-.26.57-.58v-.92h.93c.31 0 .57-.26.56-.58v-.85c0-.31-.25-.57-.57-.57h-.92v-.93c0-.31-.26-.57-.58-.57h-.85c-.31 0-.57.26-.57.57v.93h-.93c-.31 0-.57.25-.57.57v.86c0 .31.26.57.57.57zm2.93 12.5h-3.86c-.32 0-.57-.26-.57-.57v-.85c0-.32.26-.58.57-.58h3.85c.32 0 .57.26.57.57v.85c.01.32-.25.58-.56.58z" fill="#fff"/></svg>