<svg fill="none" height="32" viewBox="0 0 32 32" width="32" xmlns="http://www.w3.org/2000/svg" xmlns:xlink="http://www.w3.org/1999/xlink"><filter id="a" color-interpolation-filters="sRGB" filterUnits="userSpaceOnUse" height="8.26038" width="5.59479" x="11.9365" y="11.9896"><feFlood flood-opacity="0" result="BackgroundImageFix"/><feBlend in="SourceGraphic" in2="BackgroundImageFix" mode="normal" result="shape"/><feGaussianBlur result="effect1_foregroundBlur_20020_1078" stdDeviation=".375"/></filter><filter id="b" color-interpolation-filters="sRGB" filterUnits="userSpaceOnUse" height="3.06909" width="2.7345" x="26.7968" y="9.78577"><feFlood flood-opacity="0" result="BackgroundImageFix"/><feBlend in="SourceGraphic" in2="BackgroundImageFix" mode="normal" result="shape"/><feGaussianBlur result="effect1_foregroundBlur_20020_1078" stdDeviation=".25"/></filter><filter id="c" color-interpolation-filters="sRGB" filterUnits="userSpaceOnUse" height="7.8125" width="6.25885" x="22.9052" y="14.4219"><feFlood flood-opacity="0" result="BackgroundImageFix"/><feBlend in="SourceGraphic" in2="BackgroundImageFix" mode="normal" result="shape"/><feGaussianBlur result="effect1_foregroundBlur_20020_1078" stdDeviation=".5"/></filter><filter id="d" color-interpolation-filters="sRGB" filterUnits="userSpaceOnUse" height="14" width="6.87982" x="23.2812" y="15.3281"><feFlood flood-opacity="0" result="BackgroundImageFix"/><feBlend in="SourceGraphic" in2="BackgroundImageFix" mode="normal" result="shape"/><feGaussianBlur result="effect1_foregroundBlur_20020_1078" stdDeviation=".75"/></filter><filter id="e" color-interpolation-filters="sRGB" filterUnits="userSpaceOnUse" height="11.0626" width="11.8751" x="12.9999" y="13.6406"><feFlood flood-opacity="0" result="BackgroundImageFix"/><feBlend in="SourceGraphic" in2="BackgroundImageFix" mode="normal" result="shape"/><feGaussianBlur result="effect1_foregroundBlur_20020_1078" stdDeviation=".75"/></filter><filter id="f" color-interpolation-filters="sRGB" filterUnits="userSpaceOnUse" height="11.2595" width="7.07206" x="18.1124" y="5.6905"><feFlood flood-opacity="0" result="BackgroundImageFix"/><feBlend in="SourceGraphic" in2="BackgroundImageFix" mode="normal" result="shape"/><feGaussianBlur result="effect1_foregroundBlur_20020_1078" stdDeviation=".6"/></filter><filter id="g" color-interpolation-filters="sRGB" filterUnits="userSpaceOnUse" height="6.70945" width="4.44388" x="20.0905" y="9.3874"><feFlood flood-opacity="0" result="BackgroundImageFix"/><feBlend in="SourceGraphic" in2="BackgroundImageFix" mode="normal" result="shape"/><feGaussianBlur result="effect1_foregroundBlur_20020_1078" stdDeviation=".35"/></filter><filter id="h" color-interpolation-filters="sRGB" filterUnits="userSpaceOnUse" height="6.36331" width="5.5491" x="20.3624" y="2.07883"><feFlood flood-opacity="0" result="BackgroundImageFix"/><feBlend in="SourceGraphic" in2="BackgroundImageFix" mode="normal" result="shape"/><feColorMatrix in="SourceAlpha" result="hardAlpha" type="matrix" values="0 0 0 0 0 0 0 0 0 0 0 0 0 0 0 0 0 0 127 0"/><feOffset dx=".1" dy="-.1"/><feGaussianBlur stdDeviation=".25"/><feComposite in2="hardAlpha" k2="-1" k3="1" operator="arithmetic"/><feColorMatrix type="matrix" values="0 0 0 0 0.0823529 0 0 0 0 0.337255 0 0 0 0 0.627451 0 0 0 1 0"/><feBlend in2="shape" mode="normal" result="effect1_innerShadow_20020_1078"/></filter><filter id="i" color-interpolation-filters="sRGB" filterUnits="userSpaceOnUse" height="6.621" width="5.90151" x="18.1905" y="3.65708"><feFlood flood-opacity="0" result="BackgroundImageFix"/><feBlend in="SourceGraphic" in2="BackgroundImageFix" mode="normal" result="shape"/><feColorMatrix in="SourceAlpha" result="hardAlpha" type="matrix" values="0 0 0 0 0 0 0 0 0 0 0 0 0 0 0 0 0 0 127 0"/><feOffset dx=".1" dy="-.1"/><feGaussianBlur stdDeviation=".25"/><feComposite in2="hardAlpha" k2="-1" k3="1" operator="arithmetic"/><feColorMatrix type="matrix" values="0 0 0 0 0.0823529 0 0 0 0 0.337255 0 0 0 0 0.627451 0 0 0 1 0"/><feBlend in2="shape" mode="normal" result="effect1_innerShadow_20020_1078"/></filter><filter id="j" color-interpolation-filters="sRGB" filterUnits="userSpaceOnUse" height="6.92847" width="5.28473" x="10.3458" y="16.715"><feFlood flood-opacity="0" result="BackgroundImageFix"/><feBlend in="SourceGraphic" in2="BackgroundImageFix" mode="normal" result="shape"/><feGaussianBlur result="effect1_foregroundBlur_20020_1078" stdDeviation=".375"/></filter><filter id="k" color-interpolation-filters="sRGB" filterUnits="userSpaceOnUse" height="10.7971" width="6.28143" x="14.4999" y="6.98425"><feFlood flood-opacity="0" result="BackgroundImageFix"/><feBlend in="SourceGraphic" in2="BackgroundImageFix" mode="normal" result="shape"/><feGaussianBlur result="effect1_foregroundBlur_20020_1078" stdDeviation=".5"/></filter><radialGradient id="l" cx="0" cy="0" gradientTransform="matrix(-2.71814587 16.56953119 -18.49756109 -3.0344292 23.6493 14.4954)" gradientUnits="userSpaceOnUse" r="1"><stop offset=".81512" stop-color="#ba7d94" stop-opacity="0"/><stop offset="1" stop-color="#ba7d94"/></radialGradient><linearGradient id="m" gradientUnits="userSpaceOnUse" x1="14.7537" x2="11.1376" y1="22.6274" y2="25.4901"><stop offset="0" stop-color="#ba7d94" stop-opacity="0"/><stop offset="1" stop-color="#ba7d94"/></linearGradient><radialGradient id="n" cx="0" cy="0" gradientTransform="matrix(-3.74850408 1.66604185 -3.50036243 -7.8756262 23.2219 11.2273)" gradientUnits="userSpaceOnUse" r="1"><stop offset=".719134" stop-color="#e1a696" stop-opacity="0"/><stop offset="1" stop-color="#e1a696"/></radialGradient><radialGradient id="o" cx="0" cy="0" gradientTransform="matrix(-4.66620367 2.18064753 -5.48667448 -11.74052212 23.2219 11.2273)" gradientUnits="userSpaceOnUse" r="1"><stop offset=".768664" stop-color="#df9e84" stop-opacity="0"/><stop offset="1" stop-color="#df9e84"/></radialGradient><linearGradient id="p"><stop offset="0" stop-color="#f5bfae"/><stop offset="1" stop-color="#f5bfae" stop-opacity="0"/></linearGradient><linearGradient id="q" gradientUnits="userSpaceOnUse" x1="20.5466" x2="20.1401" xlink:href="#p" y1="16.6673" y2="14.5624"/><radialGradient id="r" cx="0" cy="0" gradientTransform="matrix(-2.27346176 -2.95310973 .63162789 -.48626092 24.5078 14.8593)" gradientUnits="userSpaceOnUse" r="1"><stop offset="0" stop-color="#c8947a"/><stop offset="1" stop-color="#c8947a" stop-opacity="0"/></radialGradient><radialGradient id="s" cx="0" cy="0" gradientTransform="matrix(.22117054 2.28133406 -2.85271517 .27656473 19.6024 5.8683)" gradientUnits="userSpaceOnUse" r="1"><stop offset="0" stop-color="#e3b79c"/><stop offset="1" stop-color="#e3b79c" stop-opacity="0"/></radialGradient><radialGradient id="t" cx="0" cy="0" gradientTransform="matrix(-2.92188985 1.93747887 -5.1854552 -7.820126 15.9688 15.6093)" gradientUnits="userSpaceOnUse" r="1"><stop offset=".425307" stop-color="#e2a693" stop-opacity="0"/><stop offset="1" stop-color="#e2a693"/></radialGradient><radialGradient id="u" cx="0" cy="0" gradientTransform="matrix(-3.87500499 2.43748264 -6.52365829 -10.37103116 15.9688 15.6093)" gradientUnits="userSpaceOnUse" r="1"><stop offset=".624797" stop-color="#e09e7e" stop-opacity="0"/><stop offset="1" stop-color="#e09e7e"/></radialGradient><radialGradient id="v" cx="0" cy="0" gradientTransform="matrix(3.31250222 -2.12500511 13.45039599 20.9667573 12.6649 17.4933)" gradientUnits="userSpaceOnUse" r="1"><stop offset=".692182" stop-color="#d59271" stop-opacity="0"/><stop offset="1" stop-color="#d59271"/></radialGradient><linearGradient id="w" gradientUnits="userSpaceOnUse" x1="16.8125" x2="15.0938" xlink:href="#p" y1="19.3593" y2="18.4531"/><radialGradient id="x" cx="0" cy="0" gradientTransform="matrix(.27556141 2.28608198 -2.69993626 .32544688 12.7406 11.2181)" gradientUnits="userSpaceOnUse" r="1"><stop offset="0" stop-color="#daaa90"/><stop offset="1" stop-color="#daaa90" stop-opacity="0"/></radialGradient><radialGradient id="y" cx="0" cy="0" gradientTransform="matrix(1.12500051 -5.14061909 2.21896468 .48561007 25.5312 17.9219)" gradientUnits="userSpaceOnUse" r="1"><stop offset="0" stop-color="#ebb5a5"/><stop offset="1" stop-color="#ebb5a5" stop-opacity="0"/></radialGradient><linearGradient id="z"><stop offset="0" stop-color="#d3987e"/><stop offset="1" stop-color="#d3987e" stop-opacity="0"/></linearGradient><radialGradient id="A" cx="0" cy="0" gradientTransform="matrix(.97169492 .09268198 -.33556669 3.51814276 24.8125 11.6407)" gradientUnits="userSpaceOnUse" r="1" xlink:href="#z"/><radialGradient id="B" cx="0" cy="0" gradientTransform="matrix(1.09942107 1.78124768 -6.44924292 3.98059946 25.7998 9.17085)" gradientUnits="userSpaceOnUse" r="1" xlink:href="#z"/><radialGradient id="C" cx="0" cy="0" gradientTransform="matrix(-1.69946281 .39094626 -.54291952 -2.3600981 28.7836 11.3235)" gradientUnits="userSpaceOnUse" r="1"><stop offset="0" stop-color="#ffe2c7"/><stop offset="1" stop-color="#ffe2c7" stop-opacity="0"/></radialGradient><radialGradient id="D" cx="0" cy="0" gradientTransform="matrix(-4.96883387 11.18749819 -5.59230511 -2.4837756 29.5 19.0469)" gradientUnits="userSpaceOnUse" r="1"><stop offset="0" stop-color="#ffe2c8"/><stop offset="1" stop-color="#ffe2c8" stop-opacity="0"/></radialGradient><radialGradient id="E" cx="0" cy="0" gradientTransform="matrix(-3.74424908 2.16183035 -5.11700468 -8.86255487 18.9404 12.4878)" gradientUnits="userSpaceOnUse" r="1"><stop offset=".655467" stop-color="#e2a085" stop-opacity="0"/><stop offset="1" stop-color="#e2a085"/></radialGradient><radialGradient id="F" cx="0" cy="0" gradientTransform="matrix(-1.53124971 .68300557 -4.32239829 -9.69050822 18.8311 12.4878)" gradientUnits="userSpaceOnUse" r="1"><stop offset="0" stop-color="#e1a086"/><stop offset="1" stop-color="#e1a086" stop-opacity="0"/></radialGradient><linearGradient id="G" gradientUnits="userSpaceOnUse" x1="17.6562" x2="16.7968" xlink:href="#p" y1="17.9687" y2="15.3281"/><radialGradient id="H" cx="0" cy="0" gradientTransform="matrix(.28125052 2.49999937 -2.7607644 .31058664 15.4461 6.68083)" gradientUnits="userSpaceOnUse" r="1"><stop offset="0" stop-color="#ddad92"/><stop offset="1" stop-color="#ddad92" stop-opacity="0"/></radialGradient><radialGradient id="I" cx="0" cy="0" gradientTransform="matrix(-1.15624253 .96875923 -3.28463224 -3.92030482 14.3125 18.5468)" gradientUnits="userSpaceOnUse" r="1"><stop offset="0" stop-color="#f2b69c"/><stop offset="1" stop-color="#f2b69c" stop-opacity="0"/></radialGradient><radialGradient id="J" cx="0" cy="0" gradientTransform="matrix(.28130584 2.10629818 -2.74726702 .36691019 11.12 15.872)" gradientUnits="userSpaceOnUse" r="1"><stop offset="0" stop-color="#dca990"/><stop offset="1" stop-color="#dca990" stop-opacity="0"/></radialGradient><linearGradient id="K" gradientUnits="userSpaceOnUse" x1="23.5" x2="21.0312" y1="14.7969" y2="10.3906"><stop offset="0" stop-color="#fdccb8"/><stop offset="1" stop-color="#fdccb8" stop-opacity="0"/></linearGradient><radialGradient id="L" cx="0" cy="0" gradientTransform="matrix(1.54687317 -1.53125028 3.91781252 3.9577848 22.8438 5.46875)" gradientUnits="userSpaceOnUse" r="1"><stop offset="0" stop-color="#16579c"/><stop offset=".743739" stop-color="#16579c" stop-opacity="0"/></radialGradient><radialGradient id="M" cx="0" cy="0" gradientTransform="matrix(1.66670904 -1.6048571 4.10340852 4.26155581 20.8293 7.18339)" gradientUnits="userSpaceOnUse" r="1"><stop offset="0" stop-color="#16579c"/><stop offset=".861756" stop-color="#16579c" stop-opacity="0"/></radialGradient><linearGradient id="N" gradientUnits="userSpaceOnUse" x1="5.46872" x2="8.65622" y1="16.1953" y2="22.8281"><stop offset="0" stop-color="#1679c5"/><stop offset="1" stop-color="#0d5194"/></linearGradient><linearGradient id="O"><stop offset=".705955" stop-color="#0e5196" stop-opacity="0"/><stop offset="1" stop-color="#0e5196"/></linearGradient><radialGradient id="P" cx="0" cy="0" gradientTransform="matrix(-2.18749978 .59375661 -1.59623383 -5.88079542 6.17184 18.8125)" gradientUnits="userSpaceOnUse" r="1" xlink:href="#O"/><linearGradient id="Q" gradientUnits="userSpaceOnUse" x1="3.50514" x2="7.24668" y1="18.0625" y2="26.1829"><stop offset=".297941" stop-color="#1679c5"/><stop offset="1" stop-color="#0d5194"/></linearGradient><radialGradient id="R" cx="0" cy="0" gradientTransform="matrix(-2.08905461 .5529273 -1.45443582 -5.4951091 4.17662 20.4998)" gradientUnits="userSpaceOnUse" r="1" xlink:href="#O"/><path d="m19.1452 6.1991c.9555 0 1.7611.64145 2.0098 1.51719.7999 2.32241 2.2501 5.62851 3.3271 7.12301.1906-.4927.3286-1.1095.3889-1.6519.0209-.1881.1524-1.4101.3361-1.9563.2214-.6581.6777-1.2244 1.3639-1.44597 1.1166-.36066 2.3298.30057 2.7097 1.47687.035.1085.0618.2175.0805.3263.1306.5591.04 1.0729-.0137 1.4117-.0833.526-.2718 1.7874-.3593 2.625-.1094 1.0468-.1719 2.8046.125 4.7812.3 1.4125.2187 2.9115.1406 3.4844-.8606 6.3107-7.8476 6.7812-9.8125 5.8505-1.3389-.4351-2.7587-1.4704-4.7109-3.4677-2.2826-2.3354-4.3675-4.9057-5.52819-6.6435-.26227-.3465-.41785-.7782-.41785-1.2462 0-1.1416.92539-2.0669 2.06694-2.0669.2186 0 .4293.0339.6271.0968-.3769-.7344-.6809-1.3764-.9177-2.0865-.0725-.2108-.1119-.4371-.1119-.6726 0-1.1415.9254-2.0669 2.0669-2.0669.633 0 1.1996.2847 1.5788.7329-.1196-.2675-.8346-2.0324-.9599-2.85498-.0155-.1023-.0236-.20705-.0236-.3137 0-1.14151.9254-2.06689 2.0669-2.06689.8331 0 1.5511.49289 1.8782 1.20297.0001-1.15364.9354-2.0888 2.0891-2.0888z" fill="#f5bfae"/><path d="m19.1452 6.1991c.9555 0 1.7611.64145 2.0098 1.51719.7999 2.32241 2.2501 5.62851 3.3271 7.12301.1906-.4927.3286-1.1095.3889-1.6519.0209-.1881.1524-1.4101.3361-1.9563.2214-.6581.6777-1.2244 1.3639-1.44597 1.1166-.36066 2.3298.30057 2.7097 1.47687.035.1085.0618.2175.0805.3263.1306.5591.04 1.0729-.0137 1.4117-.0833.526-.2718 1.7874-.3593 2.625-.1094 1.0468-.1719 2.8046.125 4.7812.3 1.4125.2187 2.9115.1406 3.4844-.8606 6.3107-7.8476 6.7812-9.8125 5.8505-1.3389-.4351-2.7587-1.4704-4.7109-3.4677-2.2826-2.3354-4.3675-4.9057-5.52819-6.6435-.26227-.3465-.41785-.7782-.41785-1.2462 0-1.1416.92539-2.0669 2.06694-2.0669.2186 0 .4293.0339.6271.0968-.3769-.7344-.6809-1.3764-.9177-2.0865-.0725-.2108-.1119-.4371-.1119-.6726 0-1.1415.9254-2.0669 2.0669-2.0669.633 0 1.1996.2847 1.5788.7329-.1196-.2675-.8346-2.0324-.9599-2.85498-.0155-.1023-.0236-.20705-.0236-.3137 0-1.14151.9254-2.06689 2.0669-2.06689.8331 0 1.5511.49289 1.8782 1.20297.0001-1.15364.9354-2.0888 2.0891-2.0888z" fill="url(#l)"/><path d="m19.1452 6.1991c.9555 0 1.7611.64145 2.0098 1.51719.7999 2.32241 2.2501 5.62851 3.3271 7.12301.1906-.4927.3286-1.1095.3889-1.6519.0209-.1881.1524-1.4101.3361-1.9563.2214-.6581.6777-1.2244 1.3639-1.44597 1.1166-.36066 2.3298.30057 2.7097 1.47687.035.1085.0618.2175.0805.3263.1306.5591.04 1.0729-.0137 1.4117-.0833.526-.2718 1.7874-.3593 2.625-.1094 1.0468-.1719 2.8046.125 4.7812.3 1.4125.2187 2.9115.1406 3.4844-.8606 6.3107-7.8476 6.7812-9.8125 5.8505-1.3389-.4351-2.7587-1.4704-4.7109-3.4677-2.2826-2.3354-4.3675-4.9057-5.52819-6.6435-.26227-.3465-.41785-.7782-.41785-1.2462 0-1.1416.92539-2.0669 2.06694-2.0669.2186 0 .4293.0339.6271.0968-.3769-.7344-.6809-1.3764-.9177-2.0865-.0725-.2108-.1119-.4371-.1119-.6726 0-1.1415.9254-2.0669 2.0669-2.0669.633 0 1.1996.2847 1.5788.7329-.1196-.2675-.8346-2.0324-.9599-2.85498-.0155-.1023-.0236-.20705-.0236-.3137 0-1.14151.9254-2.06689 2.0669-2.06689.8331 0 1.5511.49289 1.8782 1.20297.0001-1.15364.9354-2.0888 2.0891-2.0888z" fill="url(#m)"/><path d="m17.0563 8.26277c.0286.24795.1017.5661.2512.95593.0651.16983.1445.38744.2377.64316.4187 1.22684 1.206 3.30784 2.2497 5.20994.3933.7166 1.1108 1.2197 1.9274 1.1816 1.0758-.0502 2.3119-.4052 2.7855-1.4644l-.0028-.0101c-.0075.0203-.0152.0405-.0229.0604-1.077-1.4945-2.5272-4.8006-3.3271-7.12301-.2487-.87574-1.0543-1.51719-2.0098-1.51719-1.1453 0-2.0753.92161-2.0889 2.06367z" fill="url(#n)"/><path d="m17.0563 8.26277c.0286.24795.1017.5661.2512.95593.0651.16983.1445.38744.2377.64316.4187 1.22684 1.206 3.30784 2.2497 5.20994.3933.7166 1.1108 1.2197 1.9274 1.1816 1.0758-.0502 2.3119-.4052 2.7855-1.4644l-.0028-.0101c-.0075.0203-.0152.0405-.0229.0604-1.077-1.4945-2.5272-4.8006-3.3271-7.12301-.2487-.87574-1.0543-1.51719-2.0098-1.51719-1.1453 0-2.0753.92161-2.0889 2.06367z" fill="url(#o)"/><path d="m17.0563 8.26277c.0286.24795.1017.5661.2512.95593.0651.16983.1445.38744.2377.64316.4187 1.22684 1.206 3.30784 2.2497 5.20994.3933.7166 1.1108 1.2197 1.9274 1.1816 1.0758-.0502 2.3119-.4052 2.7855-1.4644l-.0028-.0101c-.0075.0203-.0152.0405-.0229.0604-1.077-1.4945-2.5272-4.8006-3.3271-7.12301-.2487-.87574-1.0543-1.51719-2.0098-1.51719-1.1453 0-2.0753.92161-2.0889 2.06367z" fill="url(#q)"/><path d="m17.0563 8.26277c.0286.24795.1017.5661.2512.95593.0651.16983.1445.38744.2377.64316.4187 1.22684 1.206 3.30784 2.2497 5.20994.3933.7166 1.1108 1.2197 1.9274 1.1816 1.0758-.0502 2.3119-.4052 2.7855-1.4644l-.0028-.0101c-.0075.0203-.0152.0405-.0229.0604-1.077-1.4945-2.5272-4.8006-3.3271-7.12301-.2487-.87574-1.0543-1.51719-2.0098-1.51719-1.1453 0-2.0753.92161-2.0889 2.06367z" fill="url(#r)"/><path d="m17.0563 8.26277c.0286.24795.1017.5661.2512.95593.0651.16983.1445.38744.2377.64316.4187 1.22684 1.206 3.30784 2.2497 5.20994.3933.7166 1.1108 1.2197 1.9274 1.1816 1.0758-.0502 2.3119-.4052 2.7855-1.4644l-.0028-.0101c-.0075.0203-.0152.0405-.0229.0604-1.077-1.4945-2.5272-4.8006-3.3271-7.12301-.2487-.87574-1.0543-1.51719-2.0098-1.51719-1.1453 0-2.0753.92161-2.0889 2.06367z" fill="url(#s)"/><path d="m10.5645 14.3271c-.0725-.2108-.1119-.4371-.1119-.6726 0-1.1415.9254-2.0669 2.0669-2.0669.6222 0 1.1801.2749 1.559.7099 1.0347 2.0853 2.309 4.5181 3.2769 5.9368-1.2304 1.6719-1.526 2.5157-1.7812 3.2344-.7813-1.0885-2.4157-3.3046-3-4.0469-.3132-.3978-.6953-.9062-1.0898-1.0078-.4141-.7617-.7148-1.4719-.9199-2.0869z" fill="url(#t)"/><path d="m10.5645 14.3271c-.0725-.2108-.1119-.4371-.1119-.6726 0-1.1415.9254-2.0669 2.0669-2.0669.6222 0 1.1801.2749 1.559.7099 1.0347 2.0853 2.309 4.5181 3.2769 5.9368-1.2304 1.6719-1.526 2.5157-1.7812 3.2344-.7813-1.0885-2.4157-3.3046-3-4.0469-.3132-.3978-.6953-.9062-1.0898-1.0078-.4141-.7617-.7148-1.4719-.9199-2.0869z" fill="url(#u)"/><path d="m10.5645 14.3271c-.0725-.2108-.1119-.4371-.1119-.6726 0-1.1415.9254-2.0669 2.0669-2.0669.6222 0 1.1801.2749 1.559.7099 1.0347 2.0853 2.309 4.5181 3.2769 5.9368-1.2304 1.6719-1.526 2.5157-1.7812 3.2344-.7813-1.0885-2.4157-3.3046-3-4.0469-.3132-.3978-.6953-.9062-1.0898-1.0078-.4141-.7617-.7148-1.4719-.9199-2.0869z" fill="url(#v)"/><path d="m10.5645 14.3271c-.0725-.2108-.1119-.4371-.1119-.6726 0-1.1415.9254-2.0669 2.0669-2.0669.6222 0 1.1801.2749 1.559.7099 1.0347 2.0853 2.309 4.5181 3.2769 5.9368-1.2304 1.6719-1.526 2.5157-1.7812 3.2344-.7813-1.0885-2.4157-3.3046-3-4.0469-.3132-.3978-.6953-.9062-1.0898-1.0078-.4141-.7617-.7148-1.4719-.9199-2.0869z" fill="url(#w)"/><path d="m10.5645 14.3271c-.0725-.2108-.1119-.4371-.1119-.6726 0-1.1415.9254-2.0669 2.0669-2.0669.6222 0 1.1801.2749 1.559.7099 1.0347 2.0853 2.309 4.5181 3.2769 5.9368-1.2304 1.6719-1.526 2.5157-1.7812 3.2344-.7813-1.0885-2.4157-3.3046-3-4.0469-.3132-.3978-.6953-.9062-1.0898-1.0078-.4141-.7617-.7148-1.4719-.9199-2.0869z" fill="url(#x)"/><g filter="url(#a)"><path d="m16.1767 19.5c-1.701-2.8135-2.7959-4.8495-3.4099-5.8963-.1527-.2603-.0828-.5987.1669-.7682.2667-.1811.6312-.0973.7921.1821l1.3689 2.3779 1.6865 3.0576c-.1874.5-.4062.8907-.6045 1.0469z" fill="#ffd6c0"/></g><path d="m24.478 14.8336c.0014.002.0027.0039.0041.0058.1907-.4927.3287-1.1095.3889-1.6519.0006-.0053.0013-.0113.002-.0182.0264-.238.1556-1.4072.3342-1.9381.2213-.6582.6777-1.2244 1.3638-1.44598 1.1166-.36066 2.3298.30058 2.7098 1.47688.035.1084.0617.2175.0805.3263.1256.5379.0465 1.0339-.0075 1.3724-.0021.0134-.0042.0264-.0062.0392-.0833.5261-.2719 1.7875-.3594 2.625-.0941.9006-.1535 2.3272.0207 3.9666-2.2706.4372-3.6652-.9978-4.1359-1.8259-.5088-.8953-.6138-2.5973-.395-2.9321z" fill="url(#y)"/><path d="m24.478 14.8336c.0014.002.0027.0039.0041.0058.1907-.4927.3287-1.1095.3889-1.6519.0006-.0053.0013-.0113.002-.0182.0264-.238.1556-1.4072.3342-1.9381.2213-.6582.6777-1.2244 1.3638-1.44598 1.1166-.36066 2.3298.30058 2.7098 1.47688.035.1084.0617.2175.0805.3263.1256.5379.0465 1.0339-.0075 1.3724-.0021.0134-.0042.0264-.0062.0392-.0833.5261-.2719 1.7875-.3594 2.625-.0941.9006-.1535 2.3272.0207 3.9666-2.2706.4372-3.6652-.9978-4.1359-1.8259-.5088-.8953-.6138-2.5973-.395-2.9321z" fill="url(#A)"/><path d="m24.478 14.8336c.0014.002.0027.0039.0041.0058.1907-.4927.3287-1.1095.3889-1.6519.0006-.0053.0013-.0113.002-.0182.0264-.238.1556-1.4072.3342-1.9381.2213-.6582.6777-1.2244 1.3638-1.44598 1.1166-.36066 2.3298.30058 2.7098 1.47688.035.1084.0617.2175.0805.3263.1256.5379.0465 1.0339-.0075 1.3724-.0021.0134-.0042.0264-.0062.0392-.0833.5261-.2719 1.7875-.3594 2.625-.0941.9006-.1535 2.3272.0207 3.9666-2.2706.4372-3.6652-.9978-4.1359-1.8259-.5088-.8953-.6138-2.5973-.395-2.9321z" fill="url(#B)"/><g filter="url(#b)"><ellipse cx="28.164" cy="11.3203" fill="url(#C)" rx=".773438" ry="1.10615" transform="matrix(.86828454 -.49606648 .49606648 .86828454 -1.905987 15.462275)"/></g><g filter="url(#c)"><path d="m28.1641 19.4844c-2.7-.675-3.4584-2.9896-3.5-4.0625-.4688.2083-1 1.8593-.6407 2.9687.703 2.1699 2.9844 2.8229 3.6094 2.8438z" fill="#fcc8b3"/></g><g filter="url(#d)"><path d="m24.8447 16.936c-.0242-.0362-.0454-.0722-.0635-.1079.0214.036.0426.0719.0635.1079.506.759 2.3017 1.6223 3.4053 1.8609.4583 1.2187 1.2188 6.8125-2.1562 9.0312.7853-1.3743 1.3348-6.4487-1.2491-10.8921z" fill="url(#D)"/></g><path d="m13.9937 12.0811c.7454 1.6009 1.6718 3.5941 2.8319 5.3145.2077.308.5799.4645.9246.3259.5952-.2393 1.3939-.7298 2.0469-1.5427.2384-.2967.2307-.71.0448-1.0421-.8421-1.5046-2.0426-4.1653-2.7985-6.87579-.3328-.69554-1.0431-1.17595-1.8655-1.17595-1.1416 0-2.0669.92539-2.0669 2.0669 0 .10664.008.21139.0236.31369.1049.68855.6229 2.03735.8591 2.61555z" fill="url(#E)"/><path d="m13.9937 12.0811c.7454 1.6009 1.6718 3.5941 2.8319 5.3145.2077.308.5799.4645.9246.3259.5952-.2393 1.3939-.7298 2.0469-1.5427.2384-.2967.2307-.71.0448-1.0421-.8421-1.5046-2.0426-4.1653-2.7985-6.87579-.3328-.69554-1.0431-1.17595-1.8655-1.17595-1.1416 0-2.0669.92539-2.0669 2.0669 0 .10664.008.21139.0236.31369.1049.68855.6229 2.03735.8591 2.61555z" fill="url(#F)"/><path d="m13.9937 12.0811c.7454 1.6009 1.6718 3.5941 2.8319 5.3145.2077.308.5799.4645.9246.3259.5952-.2393 1.3939-.7298 2.0469-1.5427.2384-.2967.2307-.71.0448-1.0421-.8421-1.5046-2.0426-4.1653-2.7985-6.87579-.3328-.69554-1.0431-1.17595-1.8655-1.17595-1.1416 0-2.0669.92539-2.0669 2.0669 0 .10664.008.21139.0236.31369.1049.68855.6229 2.03735.8591 2.61555z" fill="url(#G)"/><path d="m13.9937 12.0811c.7454 1.6009 1.6718 3.5941 2.8319 5.3145.2077.308.5799.4645.9246.3259.5952-.2393 1.3939-.7298 2.0469-1.5427.2384-.2967.2307-.71.0448-1.0421-.8421-1.5046-2.0426-4.1653-2.7985-6.87579-.3328-.69554-1.0431-1.17595-1.8655-1.17595-1.1416 0-2.0669.92539-2.0669 2.0669 0 .10664.008.21139.0236.31369.1049.68855.6229 2.03735.8591 2.61555z" fill="url(#H)"/><path d="m11.4784 16.4136c-.1978-.0629-.4085-.0968-.6271-.0968-1.14155 0-2.06694.9254-2.06694 2.0669 0 .468.15558.8997.41785 1.2462 1.00389 1.503 2.69909 3.6288 4.61549 5.6866 2.3782-1.114 2.1667-3.379 1.7612-3.861-.0079.0222-2.025-2.7892-3.0047-4.0336-.0161-.0204-.0323-.0411-.0487-.062-.3037-.387-.6668-.8495-1.0411-.9459-.1441-.2649-.1455-.2722-.006-.0004z" fill="url(#I)"/><path d="m11.4784 16.4136c-.1978-.0629-.4085-.0968-.6271-.0968-1.14155 0-2.06694.9254-2.06694 2.0669 0 .468.15558.8997.41785 1.2462 1.00389 1.503 2.69909 3.6288 4.61549 5.6866 2.3782-1.114 2.1667-3.379 1.7612-3.861-.0079.0222-2.025-2.7892-3.0047-4.0336-.0161-.0204-.0323-.0411-.0487-.062-.3037-.387-.6668-.8495-1.0411-.9459-.1441-.2649-.1455-.2722-.006-.0004z" fill="url(#J)"/><g filter="url(#e)"><path d="m14.5149 22.5819c-.0669.2679.0959.5393.3638.6063s.5394-.0959.6064-.3638zm8.3945-6.4425c.2755-.019.4834-.2577.4644-.5332s-.2577-.4834-.5332-.4644zm-7.4243 6.685c.2912-1.1651 1.0893-2.7774 2.3592-4.1312 1.2649-1.3485 2.9666-2.4089 5.0651-2.5538l-.0688-.9976c-2.4142.1666-4.3375 1.3874-5.7257 2.8673-1.3832 1.4746-2.2662 3.2378-2.6 4.5728z" fill="#f0bba4"/></g><g filter="url(#f)"><path d="m19.8125 7.39062c.5313 2.28126 2.5156 6.07818 3.6719 7.85938" stroke="#ffe4c9" stroke-linecap="round"/></g><g filter="url(#g)"><path d="m21.1406 10.4375c.3438.8021 1.1688 2.9094 2.3438 4.6094" stroke="url(#K)" stroke-linecap="round" stroke-width=".7"/></g><g stroke-linecap="round" stroke-width=".9"><g filter="url(#h)"><path d="m20.8124 2.62891c1.7578.125 4.6406 1.59765 4.5469 5.36328" stroke="#1b99e7"/><path d="m20.8124 2.62891c1.7578.125 4.6406 1.59765 4.5469 5.36328" stroke="url(#L)"/></g><g filter="url(#i)"><path d="m18.6405 4.20703c1.75.05859 5.0156 1.57422 4.8984 5.62109" stroke="#1b99e7"/><path d="m18.6405 4.20703c1.75.05859 5.0156 1.57422 4.8984 5.62109" stroke="url(#M)"/></g><path d="m4.37875 16.1953c-.19923 2.4688 1.19139 5.2188 4.67576 5.7969" stroke="url(#N)"/><path d="m4.37875 16.1953c-.19923 2.4688 1.19139 5.2188 4.67576 5.7969" stroke="url(#P)"/><path d="m2.46862 18.0625c-.2344 2.4687 1.39841 4.9844 4.46093 5.3984" stroke="url(#Q)"/><path d="m2.46862 18.0625c-.2344 2.4687 1.39841 4.9844 4.46093 5.3984" stroke="url(#R)"/></g><g filter="url(#j)"><path d="m14.7389 22.8934c-1.3896-1.5244-2.7642-3.2797-3.5134-4.3183-.2187-.3032-.153-.7198.1393-.9528.3106-.2475.7628-.1975 1.0117.112l2.503 3.1123c.0125.9-.0885 1.7395-.1406 2.0468z" fill="#ffd6c0"/></g><g filter="url(#k)"><path d="m16 8.48438c.3229 1.125 1.7601 5.36492 3.2812 7.79682" stroke="#fdcbb6" stroke-linecap="round"/></g></svg>