<svg fill="none" height="32" viewBox="0 0 32 32" width="32" xmlns="http://www.w3.org/2000/svg" xmlns:xlink="http://www.w3.org/1999/xlink"><filter id="a" color-interpolation-filters="sRGB" filterUnits="userSpaceOnUse" height="3.84679" width="7.1" x="5.5" y="8.38608"><feFlood flood-opacity="0" result="BackgroundImageFix"/><feBlend in="SourceGraphic" in2="BackgroundImageFix" mode="normal" result="shape"/><feColorMatrix in="SourceAlpha" result="hardAlpha" type="matrix" values="0 0 0 0 0 0 0 0 0 0 0 0 0 0 0 0 0 0 127 0"/><feOffset dx=".75"/><feGaussianBlur stdDeviation=".3"/><feComposite in2="hardAlpha" k2="-1" k3="1" operator="arithmetic"/><feColorMatrix type="matrix" values="0 0 0 0 0.207843 0 0 0 0 0.384314 0 0 0 0 0.294118 0 0 0 1 0"/><feBlend in2="shape" mode="normal" result="effect1_innerShadow_18_10816"/><feColorMatrix in="SourceAlpha" result="hardAlpha" type="matrix" values="0 0 0 0 0 0 0 0 0 0 0 0 0 0 0 0 0 0 127 0"/><feOffset dx="-.5"/><feGaussianBlur stdDeviation=".25"/><feComposite in2="hardAlpha" k2="-1" k3="1" operator="arithmetic"/><feColorMatrix type="matrix" values="0 0 0 0 0.207843 0 0 0 0 0.384314 0 0 0 0 0.294118 0 0 0 1 0"/><feBlend in2="effect1_innerShadow_18_10816" mode="normal" result="effect2_innerShadow_18_10816"/></filter><filter id="b" color-interpolation-filters="sRGB" filterUnits="userSpaceOnUse" height="18" width="19" x="12" y="6"><feFlood flood-opacity="0" result="BackgroundImageFix"/><feBlend in="SourceGraphic" in2="BackgroundImageFix" mode="normal" result="shape"/><feColorMatrix in="SourceAlpha" result="hardAlpha" type="matrix" values="0 0 0 0 0 0 0 0 0 0 0 0 0 0 0 0 0 0 127 0"/><feOffset dx="-1"/><feGaussianBlur stdDeviation=".5"/><feComposite in2="hardAlpha" k2="-1" k3="1" operator="arithmetic"/><feColorMatrix type="matrix" values="0 0 0 0 0.94902 0 0 0 0 0.945098 0 0 0 0 0.952941 0 0 0 1 0"/><feBlend in2="shape" mode="normal" result="effect1_innerShadow_18_10816"/><feColorMatrix in="SourceAlpha" result="hardAlpha" type="matrix" values="0 0 0 0 0 0 0 0 0 0 0 0 0 0 0 0 0 0 127 0"/><feOffset dx="1"/><feGaussianBlur stdDeviation=".5"/><feComposite in2="hardAlpha" k2="-1" k3="1" operator="arithmetic"/><feColorMatrix type="matrix" values="0 0 0 0 0.694118 0 0 0 0 0.701961 0 0 0 0 0.705882 0 0 0 1 0"/><feBlend in2="effect1_innerShadow_18_10816" mode="normal" result="effect2_innerShadow_18_10816"/></filter><filter id="c" color-interpolation-filters="sRGB" filterUnits="userSpaceOnUse" height="12.5" width="11" x="1.5" y="12"><feFlood flood-opacity="0" result="BackgroundImageFix"/><feBlend in="SourceGraphic" in2="BackgroundImageFix" mode="normal" result="shape"/><feColorMatrix in="SourceAlpha" result="hardAlpha" type="matrix" values="0 0 0 0 0 0 0 0 0 0 0 0 0 0 0 0 0 0 127 0"/><feOffset dx="-.5" dy=".5"/><feGaussianBlur stdDeviation=".375"/><feComposite in2="hardAlpha" k2="-1" k3="1" operator="arithmetic"/><feColorMatrix type="matrix" values="0 0 0 0 0.388235 0 0 0 0 0.988235 0 0 0 0 0.631373 0 0 0 1 0"/><feBlend in2="shape" mode="normal" result="effect1_innerShadow_18_10816"/><feColorMatrix in="SourceAlpha" result="hardAlpha" type="matrix" values="0 0 0 0 0 0 0 0 0 0 0 0 0 0 0 0 0 0 127 0"/><feOffset dx=".5"/><feGaussianBlur stdDeviation=".25"/><feComposite in2="hardAlpha" k2="-1" k3="1" operator="arithmetic"/><feColorMatrix type="matrix" values="0 0 0 0 0.184314 0 0 0 0 0.533333 0 0 0 0 0.309804 0 0 0 1 0"/><feBlend in2="effect1_innerShadow_18_10816" mode="normal" result="effect2_innerShadow_18_10816"/></filter><filter id="d" color-interpolation-filters="sRGB" filterUnits="userSpaceOnUse" height="3.70112" width="2.62295" x="3.39104" y="15.7997"><feFlood flood-opacity="0" result="BackgroundImageFix"/><feBlend in="SourceGraphic" in2="BackgroundImageFix" mode="normal" result="shape"/><feGaussianBlur result="effect1_foregroundBlur_18_10816" stdDeviation=".15"/></filter><filter id="e" color-interpolation-filters="sRGB" filterUnits="userSpaceOnUse" height="5.26" width="5.16998" x="1.83002" y="12.99"><feFlood flood-opacity="0" result="BackgroundImageFix"/><feBlend in="SourceGraphic" in2="BackgroundImageFix" mode="normal" result="shape"/><feColorMatrix in="SourceAlpha" result="hardAlpha" type="matrix" values="0 0 0 0 0 0 0 0 0 0 0 0 0 0 0 0 0 0 127 0"/><feOffset dx="-.25" dy=".25"/><feGaussianBlur stdDeviation=".125"/><feComposite in2="hardAlpha" k2="-1" k3="1" operator="arithmetic"/><feColorMatrix type="matrix" values="0 0 0 0 0.0627451 0 0 0 0 0.584314 0 0 0 0 0.901961 0 0 0 1 0"/><feBlend in2="shape" mode="normal" result="effect1_innerShadow_18_10816"/></filter><filter id="f" color-interpolation-filters="sRGB" filterUnits="userSpaceOnUse" height="5.5" width="3.75" x="7.25" y="13"><feFlood flood-opacity="0" result="BackgroundImageFix"/><feBlend in="SourceGraphic" in2="BackgroundImageFix" mode="normal" result="shape"/><feColorMatrix in="SourceAlpha" result="hardAlpha" type="matrix" values="0 0 0 0 0 0 0 0 0 0 0 0 0 0 0 0 0 0 127 0"/><feOffset dx="-.75" dy=".5"/><feGaussianBlur stdDeviation=".5"/><feComposite in2="hardAlpha" k2="-1" k3="1" operator="arithmetic"/><feColorMatrix type="matrix" values="0 0 0 0 0.137255 0 0 0 0 0.556863 0 0 0 0 0.811765 0 0 0 1 0"/><feBlend in2="shape" mode="normal" result="effect1_innerShadow_18_10816"/></filter><filter id="g" color-interpolation-filters="sRGB" filterUnits="userSpaceOnUse" height="13.25" width="3.25" x="14.75" y="8"><feFlood flood-opacity="0" result="BackgroundImageFix"/><feBlend in="SourceGraphic" in2="BackgroundImageFix" mode="normal" result="shape"/><feColorMatrix in="SourceAlpha" result="hardAlpha" type="matrix" values="0 0 0 0 0 0 0 0 0 0 0 0 0 0 0 0 0 0 127 0"/><feOffset dx="-.25" dy=".25"/><feGaussianBlur stdDeviation=".25"/><feComposite in2="hardAlpha" k2="-1" k3="1" operator="arithmetic"/><feColorMatrix type="matrix" values="0 0 0 0 0.729412 0 0 0 0 0.705882 0 0 0 0 0.74902 0 0 0 1 0"/><feBlend in2="shape" mode="normal" result="effect1_innerShadow_18_10816"/></filter><filter id="h" color-interpolation-filters="sRGB" filterUnits="userSpaceOnUse" height="13.25" width="3.25" x="19.75" y="8"><feFlood flood-opacity="0" result="BackgroundImageFix"/><feBlend in="SourceGraphic" in2="BackgroundImageFix" mode="normal" result="shape"/><feColorMatrix in="SourceAlpha" result="hardAlpha" type="matrix" values="0 0 0 0 0 0 0 0 0 0 0 0 0 0 0 0 0 0 127 0"/><feOffset dx="-.25" dy=".25"/><feGaussianBlur stdDeviation=".25"/><feComposite in2="hardAlpha" k2="-1" k3="1" operator="arithmetic"/><feColorMatrix type="matrix" values="0 0 0 0 0.729412 0 0 0 0 0.705882 0 0 0 0 0.74902 0 0 0 1 0"/><feBlend in2="shape" mode="normal" result="effect1_innerShadow_18_10816"/></filter><filter id="i" color-interpolation-filters="sRGB" filterUnits="userSpaceOnUse" height="13.25" width="3.25" x="24.75" y="8"><feFlood flood-opacity="0" result="BackgroundImageFix"/><feBlend in="SourceGraphic" in2="BackgroundImageFix" mode="normal" result="shape"/><feColorMatrix in="SourceAlpha" result="hardAlpha" type="matrix" values="0 0 0 0 0 0 0 0 0 0 0 0 0 0 0 0 0 0 127 0"/><feOffset dx="-.25" dy=".25"/><feGaussianBlur stdDeviation=".25"/><feComposite in2="hardAlpha" k2="-1" k3="1" operator="arithmetic"/><feColorMatrix type="matrix" values="0 0 0 0 0.729412 0 0 0 0 0.705882 0 0 0 0 0.74902 0 0 0 1 0"/><feBlend in2="shape" mode="normal" result="effect1_innerShadow_18_10816"/></filter><filter id="j" color-interpolation-filters="sRGB" filterUnits="userSpaceOnUse" height="2.25" width="10.5" x="2" y="23.75"><feFlood flood-opacity="0" result="BackgroundImageFix"/><feBlend in="SourceGraphic" in2="BackgroundImageFix" mode="normal" result="shape"/><feColorMatrix in="SourceAlpha" result="hardAlpha" type="matrix" values="0 0 0 0 0 0 0 0 0 0 0 0 0 0 0 0 0 0 127 0"/><feOffset dx=".5" dy="-.25"/><feGaussianBlur stdDeviation=".325"/><feComposite in2="hardAlpha" k2="-1" k3="1" operator="arithmetic"/><feColorMatrix type="matrix" values="0 0 0 0 0.439216 0 0 0 0 0.423529 0 0 0 0 0.447059 0 0 0 1 0"/><feBlend in2="shape" mode="normal" result="effect1_innerShadow_18_10816"/></filter><filter id="k" color-interpolation-filters="sRGB" filterUnits="userSpaceOnUse" height="4.3" width="2.5" x="1.5" y="19"><feFlood flood-opacity="0" result="BackgroundImageFix"/><feBlend in="SourceGraphic" in2="BackgroundImageFix" mode="normal" result="shape"/><feColorMatrix in="SourceAlpha" result="hardAlpha" type="matrix" values="0 0 0 0 0 0 0 0 0 0 0 0 0 0 0 0 0 0 127 0"/><feOffset dx="-.5" dy=".3"/><feGaussianBlur stdDeviation=".25"/><feComposite in2="hardAlpha" k2="-1" k3="1" operator="arithmetic"/><feColorMatrix type="matrix" values="0 0 0 0 0.729412 0 0 0 0 0.603922 0 0 0 0 0.215686 0 0 0 1 0"/><feBlend in2="shape" mode="normal" result="effect1_innerShadow_18_10816"/></filter><filter id="l" color-interpolation-filters="sRGB" filterUnits="userSpaceOnUse" height="7.15" width="7" x="4" y="22"><feFlood flood-opacity="0" result="BackgroundImageFix"/><feBlend in="SourceGraphic" in2="BackgroundImageFix" mode="normal" result="shape"/><feColorMatrix in="SourceAlpha" result="hardAlpha" type="matrix" values="0 0 0 0 0 0 0 0 0 0 0 0 0 0 0 0 0 0 127 0"/><feOffset/><feGaussianBlur stdDeviation=".5"/><feComposite in2="hardAlpha" k2="-1" k3="1" operator="arithmetic"/><feColorMatrix type="matrix" values="0 0 0 0 0.145098 0 0 0 0 0.0823529 0 0 0 0 0.215686 0 0 0 1 0"/><feBlend in2="shape" mode="normal" result="effect1_innerShadow_18_10816"/><feColorMatrix in="SourceAlpha" result="hardAlpha" type="matrix" values="0 0 0 0 0 0 0 0 0 0 0 0 0 0 0 0 0 0 127 0"/><feOffset dy=".15"/><feGaussianBlur stdDeviation=".125"/><feComposite in2="hardAlpha" k2="-1" k3="1" operator="arithmetic"/><feColorMatrix type="matrix" values="0 0 0 0 0.207843 0 0 0 0 0.0313726 0 0 0 0 0.235294 0 0 0 1 0"/><feBlend in2="effect1_innerShadow_18_10816" mode="normal" result="effect2_innerShadow_18_10816"/></filter><filter id="m" color-interpolation-filters="sRGB" filterUnits="userSpaceOnUse" height="2.6698" width="2.66982" x="6.16509" y="24.1651"><feFlood flood-opacity="0" result="BackgroundImageFix"/><feBlend in="SourceGraphic" in2="BackgroundImageFix" mode="normal" result="shape"/><feColorMatrix in="SourceAlpha" result="hardAlpha" type="matrix" values="0 0 0 0 0 0 0 0 0 0 0 0 0 0 0 0 0 0 127 0"/><feOffset dx=".05" dy="-.05"/><feGaussianBlur stdDeviation=".05"/><feComposite in2="hardAlpha" k2="-1" k3="1" operator="arithmetic"/><feColorMatrix type="matrix" values="0 0 0 0 0.478431 0 0 0 0 0.364706 0 0 0 0 0.584314 0 0 0 1 0"/><feBlend in2="shape" mode="normal" result="effect1_innerShadow_18_10816"/><feColorMatrix in="SourceAlpha" result="hardAlpha" type="matrix" values="0 0 0 0 0 0 0 0 0 0 0 0 0 0 0 0 0 0 127 0"/><feOffset dx="-.05" dy=".05"/><feGaussianBlur stdDeviation=".05"/><feComposite in2="hardAlpha" k2="-1" k3="1" operator="arithmetic"/><feColorMatrix type="matrix" values="0 0 0 0 0.807843 0 0 0 0 0.764706 0 0 0 0 0.858824 0 0 0 1 0"/><feBlend in2="effect1_innerShadow_18_10816" mode="normal" result="effect2_innerShadow_18_10816"/></filter><filter id="n" color-interpolation-filters="sRGB" filterUnits="userSpaceOnUse" height="7.15" width="7" x="20.99" y="22"><feFlood flood-opacity="0" result="BackgroundImageFix"/><feBlend in="SourceGraphic" in2="BackgroundImageFix" mode="normal" result="shape"/><feColorMatrix in="SourceAlpha" result="hardAlpha" type="matrix" values="0 0 0 0 0 0 0 0 0 0 0 0 0 0 0 0 0 0 127 0"/><feOffset/><feGaussianBlur stdDeviation=".5"/><feComposite in2="hardAlpha" k2="-1" k3="1" operator="arithmetic"/><feColorMatrix type="matrix" values="0 0 0 0 0.145098 0 0 0 0 0.0823529 0 0 0 0 0.215686 0 0 0 1 0"/><feBlend in2="shape" mode="normal" result="effect1_innerShadow_18_10816"/><feColorMatrix in="SourceAlpha" result="hardAlpha" type="matrix" values="0 0 0 0 0 0 0 0 0 0 0 0 0 0 0 0 0 0 127 0"/><feOffset dy=".15"/><feGaussianBlur stdDeviation=".125"/><feComposite in2="hardAlpha" k2="-1" k3="1" operator="arithmetic"/><feColorMatrix type="matrix" values="0 0 0 0 0.207843 0 0 0 0 0.0313726 0 0 0 0 0.235294 0 0 0 1 0"/><feBlend in2="effect1_innerShadow_18_10816" mode="normal" result="effect2_innerShadow_18_10816"/></filter><filter id="o" color-interpolation-filters="sRGB" filterUnits="userSpaceOnUse" height="7.15" width="7" x="14" y="22"><feFlood flood-opacity="0" result="BackgroundImageFix"/><feBlend in="SourceGraphic" in2="BackgroundImageFix" mode="normal" result="shape"/><feColorMatrix in="SourceAlpha" result="hardAlpha" type="matrix" values="0 0 0 0 0 0 0 0 0 0 0 0 0 0 0 0 0 0 127 0"/><feOffset/><feGaussianBlur stdDeviation=".5"/><feComposite in2="hardAlpha" k2="-1" k3="1" operator="arithmetic"/><feColorMatrix type="matrix" values="0 0 0 0 0.145098 0 0 0 0 0.0823529 0 0 0 0 0.215686 0 0 0 1 0"/><feBlend in2="shape" mode="normal" result="effect1_innerShadow_18_10816"/><feColorMatrix in="SourceAlpha" result="hardAlpha" type="matrix" values="0 0 0 0 0 0 0 0 0 0 0 0 0 0 0 0 0 0 127 0"/><feOffset dy=".15"/><feGaussianBlur stdDeviation=".125"/><feComposite in2="hardAlpha" k2="-1" k3="1" operator="arithmetic"/><feColorMatrix type="matrix" values="0 0 0 0 0.207843 0 0 0 0 0.0313726 0 0 0 0 0.235294 0 0 0 1 0"/><feBlend in2="effect1_innerShadow_18_10816" mode="normal" result="effect2_innerShadow_18_10816"/></filter><filter id="p" color-interpolation-filters="sRGB" filterUnits="userSpaceOnUse" height="2.6698" width="2.66982" x="16.1651" y="24.1651"><feFlood flood-opacity="0" result="BackgroundImageFix"/><feBlend in="SourceGraphic" in2="BackgroundImageFix" mode="normal" result="shape"/><feColorMatrix in="SourceAlpha" result="hardAlpha" type="matrix" values="0 0 0 0 0 0 0 0 0 0 0 0 0 0 0 0 0 0 127 0"/><feOffset dx=".05" dy="-.05"/><feGaussianBlur stdDeviation=".05"/><feComposite in2="hardAlpha" k2="-1" k3="1" operator="arithmetic"/><feColorMatrix type="matrix" values="0 0 0 0 0.478431 0 0 0 0 0.364706 0 0 0 0 0.584314 0 0 0 1 0"/><feBlend in2="shape" mode="normal" result="effect1_innerShadow_18_10816"/><feColorMatrix in="SourceAlpha" result="hardAlpha" type="matrix" values="0 0 0 0 0 0 0 0 0 0 0 0 0 0 0 0 0 0 127 0"/><feOffset dx="-.05" dy=".05"/><feGaussianBlur stdDeviation=".05"/><feComposite in2="hardAlpha" k2="-1" k3="1" operator="arithmetic"/><feColorMatrix type="matrix" values="0 0 0 0 0.807843 0 0 0 0 0.764706 0 0 0 0 0.858824 0 0 0 1 0"/><feBlend in2="effect1_innerShadow_18_10816" mode="normal" result="effect2_innerShadow_18_10816"/></filter><filter id="q" color-interpolation-filters="sRGB" filterUnits="userSpaceOnUse" height="2.6698" width="2.66982" x="23.1551" y="24.1651"><feFlood flood-opacity="0" result="BackgroundImageFix"/><feBlend in="SourceGraphic" in2="BackgroundImageFix" mode="normal" result="shape"/><feColorMatrix in="SourceAlpha" result="hardAlpha" type="matrix" values="0 0 0 0 0 0 0 0 0 0 0 0 0 0 0 0 0 0 127 0"/><feOffset dx=".05" dy="-.05"/><feGaussianBlur stdDeviation=".05"/><feComposite in2="hardAlpha" k2="-1" k3="1" operator="arithmetic"/><feColorMatrix type="matrix" values="0 0 0 0 0.478431 0 0 0 0 0.364706 0 0 0 0 0.584314 0 0 0 1 0"/><feBlend in2="shape" mode="normal" result="effect1_innerShadow_18_10816"/><feColorMatrix in="SourceAlpha" result="hardAlpha" type="matrix" values="0 0 0 0 0 0 0 0 0 0 0 0 0 0 0 0 0 0 127 0"/><feOffset dx="-.05" dy=".05"/><feGaussianBlur stdDeviation=".05"/><feComposite in2="hardAlpha" k2="-1" k3="1" operator="arithmetic"/><feColorMatrix type="matrix" values="0 0 0 0 0.807843 0 0 0 0 0.764706 0 0 0 0 0.858824 0 0 0 1 0"/><feBlend in2="effect1_innerShadow_18_10816" mode="normal" result="effect2_innerShadow_18_10816"/></filter><filter id="r" color-interpolation-filters="sRGB" filterUnits="userSpaceOnUse" height="7.2975" width="7.29749" x="20.9921" y="21.5686"><feFlood flood-opacity="0" result="BackgroundImageFix"/><feBlend in="SourceGraphic" in2="BackgroundImageFix" mode="normal" result="shape"/><feGaussianBlur result="effect1_foregroundBlur_18_10816" stdDeviation=".375"/></filter><filter id="s" color-interpolation-filters="sRGB" filterUnits="userSpaceOnUse" height="7.2975" width="7.29749" x="13.8775" y="21.5686"><feFlood flood-opacity="0" result="BackgroundImageFix"/><feBlend in="SourceGraphic" in2="BackgroundImageFix" mode="normal" result="shape"/><feGaussianBlur result="effect1_foregroundBlur_18_10816" stdDeviation=".375"/></filter><filter id="t" color-interpolation-filters="sRGB" filterUnits="userSpaceOnUse" height="7.2975" width="7.29749" x="3.85126" y="21.5686"><feFlood flood-opacity="0" result="BackgroundImageFix"/><feBlend in="SourceGraphic" in2="BackgroundImageFix" mode="normal" result="shape"/><feGaussianBlur result="effect1_foregroundBlur_18_10816" stdDeviation=".375"/></filter><filter id="u" color-interpolation-filters="sRGB" filterUnits="userSpaceOnUse" height="4.11294" width="4.73444" x="7.24994" y="8.3393"><feFlood flood-opacity="0" result="BackgroundImageFix"/><feBlend in="SourceGraphic" in2="BackgroundImageFix" mode="normal" result="shape"/><feGaussianBlur result="effect1_foregroundBlur_18_10816" stdDeviation=".25"/></filter><linearGradient id="v" gradientUnits="userSpaceOnUse" x1="30" x2="13" y1="14.9984" y2="14.9984"><stop offset="0" stop-color="#e1dde4"/><stop offset="1" stop-color="#dedbe2"/></linearGradient><linearGradient id="w" gradientUnits="userSpaceOnUse" x1="2" x2="12.3406" y1="21.6554" y2="21.6554"><stop offset="0" stop-color="#3dcf77"/><stop offset="1" stop-color="#3ccc76"/></linearGradient><linearGradient id="x" gradientUnits="userSpaceOnUse" x1="8.62616" x2="8.62616" y1="12" y2="16.6289"><stop offset="0" stop-color="#50ec8f"/><stop offset="1" stop-color="#50ec8f" stop-opacity="0"/></linearGradient><linearGradient id="y" gradientUnits="userSpaceOnUse" x1="4.70253" x2="4.70253" y1="16.0997" y2="19.2008"><stop offset="0" stop-color="#227148"/><stop offset="1" stop-color="#25764e"/></linearGradient><linearGradient id="z" gradientUnits="userSpaceOnUse" x1="6.71564" x2="2.74689" y1="15.1241" y2="17.5616"><stop offset="0" stop-color="#249feb"/><stop offset="1" stop-color="#47d6ff"/></linearGradient><linearGradient id="A" gradientUnits="userSpaceOnUse" x1="11" x2="8" y1="15.5" y2="15.5001"><stop offset=".365621" stop-color="#38afe3"/><stop offset="1" stop-color="#53ecff"/></linearGradient><linearGradient id="B"><stop offset="0" stop-color="#d3cdd8"/><stop offset="1" stop-color="#c6c0cb"/></linearGradient><linearGradient id="C" gradientUnits="userSpaceOnUse" x1="14.9944" x2="18.4969" xlink:href="#B" y1="14.5" y2="14.5"/><linearGradient id="D"><stop offset="0" stop-color="#dcd8e0"/><stop offset="1" stop-color="#dcd8e0" stop-opacity="0"/></linearGradient><linearGradient id="E" gradientUnits="userSpaceOnUse" x1="15" x2="15.7156" xlink:href="#D" y1="13.8116" y2="13.8116"/><linearGradient id="F" gradientUnits="userSpaceOnUse" x1="14.0281" x2="17.4656" xlink:href="#D" y1="21" y2="15.8429"/><linearGradient id="G" gradientUnits="userSpaceOnUse" x1="19.9944" x2="23" xlink:href="#B" y1="14.5" y2="14.5"/><linearGradient id="H" gradientUnits="userSpaceOnUse" x1="20" x2="20.7156" xlink:href="#D" y1="13.8116" y2="13.8116"/><linearGradient id="I" gradientUnits="userSpaceOnUse" x1="19.0281" x2="22.4656" xlink:href="#D" y1="21" y2="15.8429"/><linearGradient id="J" gradientUnits="userSpaceOnUse" x1="24.9944" x2="28" xlink:href="#B" y1="14.5" y2="14.5"/><linearGradient id="K" gradientUnits="userSpaceOnUse" x1="25" x2="25.7156" xlink:href="#D" y1="13.8116" y2="13.8116"/><linearGradient id="L" gradientUnits="userSpaceOnUse" x1="24.0281" x2="27.4656" xlink:href="#D" y1="21" y2="15.8429"/><linearGradient id="M" gradientUnits="userSpaceOnUse" x1="12.4109" x2="13.7781" y1="25.2828" y2="25.2828"><stop offset="0" stop-color="#9b96a0"/><stop offset="1" stop-color="#6a6970"/></linearGradient><linearGradient id="N" gradientUnits="userSpaceOnUse" x1="30" x2="13" y1="25" y2="25"><stop offset="0" stop-color="#8c8892"/><stop offset="1" stop-color="#aaa3ae"/></linearGradient><linearGradient id="O" gradientUnits="userSpaceOnUse" x1="13" x2="14.0784" y1="25.5319" y2="25.5319"><stop offset="0" stop-color="#666f6e"/><stop offset="1" stop-color="#666f6e" stop-opacity="0"/></linearGradient><linearGradient id="P" gradientUnits="userSpaceOnUse" x1="30" x2="28.1218" y1="25.309" y2="25.309"><stop offset="0" stop-color="#c5c1c7"/><stop offset="1" stop-color="#c5c1c7" stop-opacity="0"/></linearGradient><linearGradient id="Q" gradientUnits="userSpaceOnUse" x1="22.7162" x2="22.7162" y1="26.1728" y2="25"><stop offset="0" stop-color="#836f92"/><stop offset="1" stop-color="#836f92" stop-opacity="0"/></linearGradient><linearGradient id="R" gradientUnits="userSpaceOnUse" x1="12" x2="2" y1="25" y2="25"><stop offset="0" stop-color="#aba5b1"/><stop offset="1" stop-color="#b7b2bb"/></linearGradient><linearGradient id="S"><stop offset="0" stop-color="#666369"/><stop offset="1" stop-color="#666369" stop-opacity="0"/></linearGradient><linearGradient id="T" gradientUnits="userSpaceOnUse" x1="7" x2="7" xlink:href="#S" y1="23.8976" y2="24.1632"/><linearGradient id="U" gradientUnits="userSpaceOnUse" x1="12.2781" x2="11.7469" xlink:href="#S" y1="24.1632" y2="24.1632"/><linearGradient id="V" gradientUnits="userSpaceOnUse" x1="7" x2="7" y1="26" y2="25.3741"><stop offset="0" stop-color="#857095"/><stop offset="1" stop-color="#857095" stop-opacity="0"/></linearGradient><linearGradient id="W" gradientUnits="userSpaceOnUse" x1="4.33144" x2="5.93439" y1="13.3941" y2="14.0538"><stop offset=".0912652" stop-color="#353139"/><stop offset=".370779" stop-color="#614f70"/></linearGradient><linearGradient id="X" gradientUnits="userSpaceOnUse" x1="1.90197" x2="2.54284" y1="21.4359" y2="21.4359"><stop offset="0" stop-color="#dabb4b"/><stop offset="1" stop-color="#dabb4b" stop-opacity="0"/></linearGradient><radialGradient id="Y" cx="0" cy="0" gradientTransform="matrix(2.09375228 -.46786712 .66970473 2.9969958 28.3094 22.9679)" gradientUnits="userSpaceOnUse" r="1"><stop offset="0" stop-color="#db2979"/><stop offset="1" stop-color="#be0564"/></radialGradient><linearGradient id="Z"><stop offset="0" stop-color="#62536d"/><stop offset="1" stop-color="#4d4257"/></linearGradient><linearGradient id="aa" gradientUnits="userSpaceOnUse" x1="16.7156" x2="16.7156" xlink:href="#Z" y1="25.1554" y2="21.5604"/><linearGradient id="ab" gradientUnits="userSpaceOnUse" x1="6.70123" x2="6.70123" xlink:href="#Z" y1="25.1554" y2="21.5604"/><linearGradient id="ac" gradientUnits="userSpaceOnUse" x1="23.7056" x2="23.7056" xlink:href="#Z" y1="25.1554" y2="21.5604"/><linearGradient id="ad"><stop offset=".239044" stop-color="#34214f"/><stop offset="1" stop-color="#241337"/></linearGradient><linearGradient id="ae" gradientUnits="userSpaceOnUse" x1="5.8861" x2="11.1432" xlink:href="#ad" y1="24.6199" y2="24.6199"/><linearGradient id="af"><stop offset=".523134" stop-color="#2d114d"/><stop offset="1" stop-color="#2b1249" stop-opacity="0"/></linearGradient><radialGradient id="ag" cx="0" cy="0" gradientTransform="matrix(.79082946 -1.73825857 1.81554586 .8259917 7.5 25.1868)" gradientUnits="userSpaceOnUse" r="1" xlink:href="#af"/><linearGradient id="ah" gradientUnits="userSpaceOnUse" x1="22.8761" x2="28.1332" xlink:href="#ad" y1="24.6199" y2="24.6199"/><radialGradient id="ai" cx="0" cy="0" gradientTransform="matrix(.79082946 -1.73825857 1.81554586 .8259917 24.49 25.1868)" gradientUnits="userSpaceOnUse" r="1" xlink:href="#af"/><linearGradient id="aj" gradientUnits="userSpaceOnUse" x1="15.8861" x2="21.1432" xlink:href="#ad" y1="24.6199" y2="24.6199"/><radialGradient id="ak" cx="0" cy="0" gradientTransform="matrix(.79082946 -1.73825857 1.81554586 .8259917 17.5 25.1868)" gradientUnits="userSpaceOnUse" r="1" xlink:href="#af"/><linearGradient id="al"><stop offset=".0830122" stop-color="#615b6b"/><stop offset=".390771" stop-color="#615b6b" stop-opacity="0"/><stop offset=".692394" stop-color="#615b6b" stop-opacity="0"/><stop offset=".934982" stop-color="#615b6b"/></linearGradient><linearGradient id="am" gradientUnits="userSpaceOnUse" x1="27.2341" x2="22.7568" xlink:href="#al" y1="24.2215" y2="27.1476"/><linearGradient id="an" gradientUnits="userSpaceOnUse" x1="20.1196" x2="15.6423" xlink:href="#al" y1="24.2215" y2="27.1476"/><linearGradient id="ao" gradientUnits="userSpaceOnUse" x1="10.0933" x2="5.61603" xlink:href="#al" y1="24.2215" y2="27.1476"/><linearGradient id="ap" gradientUnits="userSpaceOnUse" x1="11.2344" x2="10.2469" y1="8.65537" y2="10.7179"><stop offset="0" stop-color="#3a9475"/><stop offset="1" stop-color="#3a9475" stop-opacity="0"/></linearGradient><radialGradient id="aq" cx="0" cy="0" gradientTransform="matrix(-1.37255 0 0 -3.84933 5.66564 17.1449)" gradientUnits="userSpaceOnUse" r="1"><stop offset="0" stop-color="#55505e"/><stop offset=".368421" stop-color="#2f1c44"/></radialGradient><linearGradient id="ar" gradientUnits="userSpaceOnUse" x1="5.68368" x2="5.99997" y1="17.7631" y2="17.7631"><stop offset="0" stop-color="#281f4a" stop-opacity="0"/><stop offset="1" stop-color="#281f4a"/></linearGradient><g filter="url(#a)"><path d="m10.68 8.44001-2.77998.93c-1.14.38-1.90002 1.38609-1.90002 2.86289h6v-2.84289c0-.69-.67-1.17-1.32-.95z" fill="#328a65"/></g><g filter="url(#b)"><path d="m28 6h-13c-1.1 0-2 .9-2 2v16h17v-16c0-1.1-.89-2-2-2z" fill="url(#v)"/></g><g filter="url(#c)"><path d="m12 12h-6.39279c-.38076 0-.73146.21-.9018.55l-2.39479 4.81c-.2004.42-.31062.88-.31062 1.34v4.3 1h10z" fill="url(#w)"/><path d="m12 12h-6.39279c-.38076 0-.73146.21-.9018.55l-2.39479 4.81c-.2004.42-.31062.88-.31062 1.34v4.3 1h10z" fill="url(#x)"/></g><g filter="url(#d)"><path clip-rule="evenodd" d="m3.69104 17.6503c.00475-.2921.07025-.9496.49173-1.2974.27204-.2244.70391-.2743 1.05787-.246.29513.0236.47338.2861.47338.5731v.9703.9702c0 .287-.17825.5496-.47338.5732-.35396.0282-.78583-.0216-1.05787-.2461-.42148-.3477-.48698-1.0052-.49173-1.2973z" fill="url(#y)" fill-rule="evenodd"/></g><g filter="url(#e)"><path d="m5.99002 12.99h-1.5l-2.18 4.37c-.1.2-.18.42-.23.64h3.92c.55 0 1-.45 1-1v-3c0-.55-.46-1.01-1.01-1.01z" fill="url(#z)"/></g><g filter="url(#f)"><path d="m10.0066 13h-1.01322c-.54636 0-.99338.4491-.99338.998v3.004c0 .5489.44702.998.99338.998h1.01322c.5464 0 .9934-.4491.9934-.998v-3.004c0-.5489-.447-.998-.9934-.998z" fill="url(#A)"/></g><g filter="url(#g)"><path d="m17.43 21h-1.86c-.31 0-.57-.25-.57-.57v-11.86c0-.31.25-.57.57-.57h1.86c.31 0 .57.25.57.57v11.86c0 .32-.26.57-.57.57z" fill="url(#C)"/><path d="m17.43 21h-1.86c-.31 0-.57-.25-.57-.57v-11.86c0-.31.25-.57.57-.57h1.86c.31 0 .57.25.57.57v11.86c0 .32-.26.57-.57.57z" fill="url(#E)"/><path d="m17.43 21h-1.86c-.31 0-.57-.25-.57-.57v-11.86c0-.31.25-.57.57-.57h1.86c.31 0 .57.25.57.57v11.86c0 .32-.26.57-.57.57z" fill="url(#F)"/></g><g filter="url(#h)"><path d="m22.4319 21h-1.8638c-.309 0-.5681-.25-.5681-.57v-11.86c0-.31.2492-.57.5681-.57h1.8638c.309 0 .5681.25.5681.57v11.86c0 .32-.2492.57-.5681.57z" fill="url(#G)"/><path d="m22.4319 21h-1.8638c-.309 0-.5681-.25-.5681-.57v-11.86c0-.31.2492-.57.5681-.57h1.8638c.309 0 .5681.25.5681.57v11.86c0 .32-.2492.57-.5681.57z" fill="url(#H)"/><path d="m22.4319 21h-1.8638c-.309 0-.5681-.25-.5681-.57v-11.86c0-.31.2492-.57.5681-.57h1.8638c.309 0 .5681.25.5681.57v11.86c0 .32-.2492.57-.5681.57z" fill="url(#I)"/></g><g filter="url(#i)"><path d="m27.43 21h-1.86c-.31 0-.57-.25-.57-.57v-11.86c0-.31.25-.57.57-.57h1.86c.31 0 .57.25.57.57v11.86c0 .32-.25.57-.57.57z" fill="url(#J)"/><path d="m27.43 21h-1.86c-.31 0-.57-.25-.57-.57v-11.86c0-.31.25-.57.57-.57h1.86c.31 0 .57.25.57.57v11.86c0 .32-.25.57-.57.57z" fill="url(#K)"/><path d="m27.43 21h-1.86c-.31 0-.57-.25-.57-.57v-11.86c0-.31.25-.57.57-.57h1.86c.31 0 .57.25.57.57v11.86c0 .32-.25.57-.57.57z" fill="url(#L)"/></g><path d="m11.4188 24h2.14844v2h-2.14844z" fill="url(#M)"/><path d="m13 25.85c0 .0828.0672.15.15.15h15.8493c.5604 0 1.0007-.45 1.0007-1v-1h-17z" fill="url(#N)"/><path d="m13 25.85c0 .0828.0672.15.15.15h15.8493c.5604 0 1.0007-.45 1.0007-1v-1h-17z" fill="url(#O)"/><path d="m13 25.85c0 .0828.0672.15.15.15h15.8493c.5604 0 1.0007-.45 1.0007-1v-1h-17z" fill="url(#P)"/><path d="m13 25.85c0 .0828.0672.15.15.15h15.8493c.5604 0 1.0007-.45 1.0007-1v-1h-17z" fill="url(#Q)"/><g filter="url(#j)"><path d="m12 24h-10v1c0 .55.45032 1 1.00071 1h8.84929c.0828 0 .15-.0672.15-.15z" fill="url(#R)"/><path d="m12 24h-10v1c0 .55.45032 1 1.00071 1h8.84929c.0828 0 .15-.0672.15-.15z" fill="url(#T)"/><path d="m12 24h-10v1c0 .55.45032 1 1.00071 1h8.84929c.0828 0 .15-.0672.15-.15z" fill="url(#U)"/></g><path d="m12 24h-10v1c0 .55.45032 1 1.00071 1h8.84929c.0828 0 .15-.0672.15-.15z" fill="url(#V)"/><path d="m7 14.0003c0-.55-.45996-1.0103-1.01001-1.0103h-1.5l-.50397 1.0103z" fill="url(#W)"/><g filter="url(#k)"><path d="m2.91 23h-.91v-4h.91c.6 0 1.09.49 1.09 1.09v1.82c0 .6-.49 1.09-1.09 1.09z" fill="#f3cf4d"/><path d="m2.91 23h-.91v-4h.91c.6 0 1.09.49 1.09 1.09v1.82c0 .6-.49 1.09-1.09 1.09z" fill="url(#X)"/></g><path d="m30 21h-.4996c-.8493 0-1.5387.71-1.4987 1.57.0399.81.7393 1.43 1.5487 1.43h.4496z" fill="url(#Y)"/><path d="m13.6668 26h7.6664c.027-.1846.0409-.3734.0409-.5655 0-2.1396-1.7345-3.8741-3.8741-3.8741-2.1397 0-3.8742 1.7345-3.8742 3.8741 0 .1921.014.3809.041.5655z" fill="url(#aa)"/><path d="m3.65236 26h7.66644c.027-.1846.0409-.3734.0409-.5655 0-2.1396-1.73449-3.8741-3.87414-3.8741-2.13964 0-3.87417 1.7345-3.87417 3.8741 0 .1921.01398.3809.04097.5655z" fill="url(#ab)"/><path d="m20.6568 26h7.6664c.027-.1846.0409-.3734.0409-.5655 0-2.1396-1.7345-3.8741-3.8741-3.8741-2.1397 0-3.8742 1.7345-3.8742 3.8741 0 .1921.014.3809.041.5655z" fill="url(#ac)"/><g filter="url(#l)"><path d="m7.5 29c1.933 0 3.5-1.567 3.5-3.5s-1.567-3.5-3.5-3.5-3.5 1.567-3.5 3.5 1.567 3.5 3.5 3.5z" fill="url(#ae)"/><path d="m7.5 29c1.933 0 3.5-1.567 3.5-3.5s-1.567-3.5-3.5-3.5-3.5 1.567-3.5 3.5 1.567 3.5 3.5 3.5z" fill="url(#ag)"/></g><g filter="url(#m)"><path d="m7.49999 26.7849c.70963 0 1.2849-.5753 1.2849-1.2849s-.57527-1.2849-1.2849-1.2849-1.2849.5753-1.2849 1.2849.57527 1.2849 1.2849 1.2849z" fill="#cdc5d5"/></g><g filter="url(#n)"><path d="m24.49 29c1.933 0 3.5-1.567 3.5-3.5s-1.567-3.5-3.5-3.5-3.5 1.567-3.5 3.5 1.567 3.5 3.5 3.5z" fill="url(#ah)"/><path d="m24.49 29c1.933 0 3.5-1.567 3.5-3.5s-1.567-3.5-3.5-3.5-3.5 1.567-3.5 3.5 1.567 3.5 3.5 3.5z" fill="url(#ai)"/></g><g filter="url(#o)"><path d="m17.5 29c1.933 0 3.5-1.567 3.5-3.5s-1.567-3.5-3.5-3.5-3.5 1.567-3.5 3.5 1.567 3.5 3.5 3.5z" fill="url(#aj)"/><path d="m17.5 29c1.933 0 3.5-1.567 3.5-3.5s-1.567-3.5-3.5-3.5-3.5 1.567-3.5 3.5 1.567 3.5 3.5 3.5z" fill="url(#ak)"/></g><g filter="url(#p)"><path d="m17.5 26.7849c.7096 0 1.2849-.5753 1.2849-1.2849s-.5753-1.2849-1.2849-1.2849-1.2849.5753-1.2849 1.2849.5753 1.2849 1.2849 1.2849z" fill="#cdc5d5"/></g><g filter="url(#q)"><path d="m24.49 26.7849c.7096 0 1.2849-.5753 1.2849-1.2849s-.5753-1.2849-1.2849-1.2849c-.7097 0-1.2849.5753-1.2849 1.2849s.5752 1.2849 1.2849 1.2849z" fill="#cdc5d5"/></g><g filter="url(#r)"><circle cx="24.6408" cy="25.2173" r="2.47375" stroke="url(#am)" stroke-width=".85"/></g><g filter="url(#s)"><circle cx="17.5262" cy="25.2173" r="2.47375" stroke="url(#an)" stroke-width=".85"/></g><g filter="url(#t)"><circle cx="7.5" cy="25.2173" r="2.47375" stroke="url(#ao)" stroke-width=".85"/></g><g filter="url(#u)"><path d="m8 10.0147 2.9095-.91356c.161-.05058.3249.06971.3249.23851v2.36255" stroke="url(#ap)" stroke-linecap="round" stroke-width=".5"/></g><g clip-rule="evenodd" fill-rule="evenodd"><path d="m3.97699 17.5193c.00475-.2921.07025-.9496.49173-1.2973.27204-.2245.70391-.2743 1.05787-.2461.29513.0236.47338.2862.47338.5732v.9702.9703c0 .287-.17825.5495-.47338.5731-.35396.0283-.78583-.0216-1.05787-.246-.42148-.3478-.48698-1.0053-.49173-1.2974z" fill="url(#aq)"/><path d="m3.97699 17.5193c.00475-.2921.07025-.9496.49173-1.2973.27204-.2245.70391-.2743 1.05787-.2461.29513.0236.47338.2862.47338.5732v.9702.9703c0 .287-.17825.5495-.47338.5731-.35396.0283-.78583-.0216-1.05787-.246-.42148-.3478-.48698-1.0053-.49173-1.2974z" fill="url(#ar)"/></g></svg>