<svg enable-background="new 0 0 128 128" viewBox="0 0 128 128" xmlns="http://www.w3.org/2000/svg"><g transform="scale(4)"><path d="m12.0955 2.00006c-.6979-.01527-1.3762.23242-1.9.69396-.83698.75-.72399 1.467-1.47099 2.521-.20878.33683-.48434.62735-.80976.85352-.32541.22617-.69373.38326-1.08221.46154l-.02899.00696c-.52495.14523-.99188.4499-1.33618.87195s-.54898.94059-.58582 1.48401c-.649 5.089 1.09996 13.0001 5.32195 17.3311 1.1519 1.0925 2.4075 2.07 3.749 2.9189 1.3797.4765 2.8793.4765 4.259 0 1.3562-.8383 2.62-1.8178 3.7701-2.922 4.087-4.192 5.9839-12.1379 5.3219-17.33093-.0315-.5502-.2376-1.076-.5885-1.50098-.3509-.42497-.8281-.72699-1.3624-.86206-.3885-.07828-.7569-.23537-1.0823-.46154-.3254-.22618-.6009-.51657-.8097-.8534-.676-.954-.6671-1.79999-1.4711-2.52099-.5238-.46155-1.202-.70936-1.9-.6941z" fill="#e6e6e6"/><path d="m20.0089 3.5h-4.0089l-3.2142 12.4188 3.2142 12.5812c2 0 2-.5 4-2 0 0 6.5-4.5 6-17 0 0 .0024-1.25-1-1.5-2.5-.5-3.5-3.5-3.5-3.5-.132-.33407-.5-1-1.4911-1z" fill="#aeddff"/><path d="m12.0186 3.5h4.0089v25c-2 0-2-.5-4-2 0 0-6.50003-4.5-6.00003-17 0 0-.00242-1.25 1-1.5 2.5-.5 3.50003-3.5 3.50003-3.5.1319-.33407.5-1 1.4911-1z" fill="#00a6ed"/></g></svg>