<svg fill="none" height="32" viewBox="0 0 32 32" width="32" xmlns="http://www.w3.org/2000/svg"><path d="m30 9.5c0-.27614-.2239-.5-.5-.5h-16c-.2761 0-.5.22386-.5.5 0 .27614.2239.5.5.5h.5v3h-.5c-.2761 0-.5.2239-.5.5 0 .2761.2239.5.5.5h16c.2761 0 .5-.2239.5-.5 0-.2761-.2239-.5-.5-.5h-2.3c-.1105 0-.2-.0895-.2-.2v-2.6c0-.1105.0895-.2.2-.2h2.3c.2761 0 .5-.22386.5-.5zm-12 .7v2.6c0 .1105-.0895.2-.2.2h-2.6c-.1105 0-.2-.0895-.2-.2v-2.6c0-.1105.0895-.2.2-.2h2.6c.1105 0 .2.0895.2.2zm1-.1c0-.0552.0448-.1.1-.1h2.8c.0552 0 .1.0448.1.1v2.7c0 .1105-.0895.2-.2.2h-2.6c-.1105 0-.2-.0895-.2-.2zm7 .1v2.6c0 .1105-.0895.2-.2.2h-2.6c-.1105 0-.2-.0895-.2-.2v-2.6c0-.1105.0895-.2.2-.2h2.6c.1105 0 .2.0895.2.2z" fill="#d3d3d3"/><path d="m4.9 18h-2.59l-.15 1 13.92 1 13.92-1v-3.3099c0-.9356-.76-1.6901-1.69-1.6901h-14.31v-5.23001c0-.98-.8-1.78-1.78-1.78h-7.01c-.7 0-1.29.51-1.39 1.2l-.13.81h1.21c.6 0 1.1.49 1.1 1.10001v6.8c0 .61-.5 1.1-1.1 1.1zm23.41 9h-16.08-.23-8.22c-.98 0-1.78-.8-1.78-1.78v-4.32h28v4.41c0 .93-.76 1.69-1.69 1.69z" fill="#f8312f"/><path d="m2.12 19.21c-.07.44-.11.89-.12 1.34v.45h28v-2h-27.85z" fill="#f4f4f4"/><path d="m10.41 6h-2.82c-.32 0-.59.26-.59.59v.41h4v-.41c0-.33-.26-.59-.59-.59z" fill="#9b9b9b"/><path d="m10 5c0-.55-.45-1-1-1s-1 .45-1 1v1h2z" fill="#f92f60"/><path d="m12 26.5c0 1.933-1.567 3.5-3.5 3.5s-3.5-1.567-3.5-3.5 1.567-3.5 3.5-3.5 3.5 1.567 3.5 3.5zm15 0c0 1.933-1.567 3.5-3.5 3.5s-3.5-1.567-3.5-3.5 1.567-3.5 3.5-3.5 3.5 1.567 3.5 3.5z" fill="#321b41"/><path d="m10 26.5c0 .8284-.67157 1.5-1.5 1.5s-1.5-.6716-1.5-1.5.67157-1.5 1.5-1.5 1.5.6716 1.5 1.5zm15 0c0 .8284-.6716 1.5-1.5 1.5s-1.5-.6716-1.5-1.5.6716-1.5 1.5-1.5 1.5.6716 1.5 1.5z" fill="#f4f4f4"/><path d="m6 16.9c0 .61-.5 1.1-1.1 1.1h-2.59l1.38-9h1.21c.6 0 1.1.49 1.1 1.1zm2-7.9c-.55228 0-1 .44772-1 1v7c0 .5523.44772 1 1 1h3c.5523 0 1-.4477 1-1v-7c0-.55228-.4477-1-1-1z" fill="#26c9fc"/><path d="m3 23c0-.5523-.44772-1-1-1v3c.55228 0 1-.4477 1-1zm26-1c-.5523 0-1 .4477-1 1s.4477 1 1 1h1v-2z" fill="#fcd53f"/></svg>