<svg fill="none" height="32" viewBox="0 0 32 32" width="32" xmlns="http://www.w3.org/2000/svg" xmlns:xlink="http://www.w3.org/1999/xlink"><filter id="a" color-interpolation-filters="sRGB" filterUnits="userSpaceOnUse" height="8.02795" width="2.31108" x="11.3719" y="12.6168"><feFlood flood-opacity="0" result="BackgroundImageFix"/><feBlend in="SourceGraphic" in2="BackgroundImageFix" mode="normal" result="shape"/><feColorMatrix in="SourceAlpha" result="hardAlpha" type="matrix" values="0 0 0 0 0 0 0 0 0 0 0 0 0 0 0 0 0 0 127 0"/><feOffset dx=".2"/><feGaussianBlur stdDeviation=".1"/><feComposite in2="hardAlpha" k2="-1" k3="1" operator="arithmetic"/><feColorMatrix type="matrix" values="0 0 0 0 0.972549 0 0 0 0 0.74902 0 0 0 0 0.658824 0 0 0 1 0"/><feBlend in2="shape" mode="normal" result="effect1_innerShadow_4002_182"/></filter><filter id="b" color-interpolation-filters="sRGB" filterUnits="userSpaceOnUse" height="6.91296" width="1.46448" x="19.1953" y="11.9791"><feFlood flood-opacity="0" result="BackgroundImageFix"/><feBlend in="SourceGraphic" in2="BackgroundImageFix" mode="normal" result="shape"/><feGaussianBlur result="effect1_foregroundBlur_4002_182" stdDeviation=".25"/></filter><filter id="c" color-interpolation-filters="sRGB" filterUnits="userSpaceOnUse" height="12.4531" width="6.16875" x="13.0468" y="16.0114"><feFlood flood-opacity="0" result="BackgroundImageFix"/><feBlend in="SourceGraphic" in2="BackgroundImageFix" mode="normal" result="shape"/><feColorMatrix in="SourceAlpha" result="hardAlpha" type="matrix" values="0 0 0 0 0 0 0 0 0 0 0 0 0 0 0 0 0 0 127 0"/><feOffset dx=".2"/><feGaussianBlur stdDeviation=".4"/><feComposite in2="hardAlpha" k2="-1" k3="1" operator="arithmetic"/><feColorMatrix type="matrix" values="0 0 0 0 0.486275 0 0 0 0 0.462745 0 0 0 0 0.505882 0 0 0 1 0"/><feBlend in2="shape" mode="normal" result="effect1_innerShadow_4002_182"/></filter><filter id="d" color-interpolation-filters="sRGB" filterUnits="userSpaceOnUse" height="7.59375" width="6.41719" x="12.9725" y="8.46838"><feFlood flood-opacity="0" result="BackgroundImageFix"/><feBlend in="SourceGraphic" in2="BackgroundImageFix" mode="normal" result="shape"/><feColorMatrix in="SourceAlpha" result="hardAlpha" type="matrix" values="0 0 0 0 0 0 0 0 0 0 0 0 0 0 0 0 0 0 127 0"/><feOffset dx=".5"/><feGaussianBlur stdDeviation=".15"/><feComposite in2="hardAlpha" k2="-1" k3="1" operator="arithmetic"/><feColorMatrix type="matrix" values="0 0 0 0 1 0 0 0 0 0.415686 0 0 0 0 0.25098 0 0 0 1 0"/><feBlend in2="shape" mode="normal" result="effect1_innerShadow_4002_182"/></filter><filter id="e" color-interpolation-filters="sRGB" filterUnits="userSpaceOnUse" height="1.84766" width="3.31641" x="12.4647" y="28.4645"><feFlood flood-opacity="0" result="BackgroundImageFix"/><feBlend in="SourceGraphic" in2="BackgroundImageFix" mode="normal" result="shape"/><feColorMatrix in="SourceAlpha" result="hardAlpha" type="matrix" values="0 0 0 0 0 0 0 0 0 0 0 0 0 0 0 0 0 0 127 0"/><feOffset dx=".25" dy=".25"/><feGaussianBlur stdDeviation=".25"/><feComposite in2="hardAlpha" k2="-1" k3="1" operator="arithmetic"/><feColorMatrix type="matrix" values="0 0 0 0 0.313726 0 0 0 0 0.235294 0 0 0 0 0.431373 0 0 0 1 0"/><feBlend in2="shape" mode="normal" result="effect1_innerShadow_4002_182"/></filter><filter id="f" color-interpolation-filters="sRGB" filterUnits="userSpaceOnUse" height="13.7656" width="6.59375" x="12.8719" y="15.3824"><feFlood flood-opacity="0" result="BackgroundImageFix"/><feBlend in="SourceGraphic" in2="BackgroundImageFix" mode="normal" result="shape"/><feGaussianBlur result="effect1_foregroundBlur_4002_182" stdDeviation=".5"/></filter><filter id="g" color-interpolation-filters="sRGB" filterUnits="userSpaceOnUse" height="5.73992" width="5.58777" x="13.7582" y="3.13928"><feFlood flood-opacity="0" result="BackgroundImageFix"/><feBlend in="SourceGraphic" in2="BackgroundImageFix" mode="normal" result="shape"/><feColorMatrix in="SourceAlpha" result="hardAlpha" type="matrix" values="0 0 0 0 0 0 0 0 0 0 0 0 0 0 0 0 0 0 127 0"/><feOffset dx="1"/><feGaussianBlur stdDeviation=".7"/><feComposite in2="hardAlpha" k2="-1" k3="1" operator="arithmetic"/><feColorMatrix type="matrix" values="0 0 0 0 0.913725 0 0 0 0 0.686275 0 0 0 0 0.592157 0 0 0 1 0"/><feBlend in2="shape" mode="normal" result="effect1_innerShadow_4002_182"/><feColorMatrix in="SourceAlpha" result="hardAlpha" type="matrix" values="0 0 0 0 0 0 0 0 0 0 0 0 0 0 0 0 0 0 127 0"/><feOffset dy=".2"/><feGaussianBlur stdDeviation=".375"/><feComposite in2="hardAlpha" k2="-1" k3="1" operator="arithmetic"/><feColorMatrix type="matrix" values="0 0 0 0 0.780392 0 0 0 0 0.568627 0 0 0 0 0.486275 0 0 0 1 0"/><feBlend in2="effect1_innerShadow_4002_182" mode="normal" result="effect2_innerShadow_4002_182"/></filter><filter id="h" color-interpolation-filters="sRGB" filterUnits="userSpaceOnUse" height="3.30176" width="2.78409" x="14.5753" y="4.53699"><feFlood flood-opacity="0" result="BackgroundImageFix"/><feBlend in="SourceGraphic" in2="BackgroundImageFix" mode="normal" result="shape"/><feGaussianBlur result="effect1_foregroundBlur_4002_182" stdDeviation=".5"/></filter><filter id="i" color-interpolation-filters="sRGB" filterUnits="userSpaceOnUse" height="1.50176" width="1.04268" x="15.5097" y="5.35142"><feFlood flood-opacity="0" result="BackgroundImageFix"/><feBlend in="SourceGraphic" in2="BackgroundImageFix" mode="normal" result="shape"/><feGaussianBlur result="effect1_foregroundBlur_4002_182" stdDeviation=".05"/></filter><filter id="j" color-interpolation-filters="sRGB" filterUnits="userSpaceOnUse" height=".981616" width="1.94487" x="15.0585" y="6.80393"><feFlood flood-opacity="0" result="BackgroundImageFix"/><feBlend in="SourceGraphic" in2="BackgroundImageFix" mode="normal" result="shape"/><feGaussianBlur result="effect1_foregroundBlur_4002_182" stdDeviation=".05"/></filter><filter id="k" color-interpolation-filters="sRGB" filterUnits="userSpaceOnUse" height="4.02661" width="5.77832" x="13.142" y="1.43787"><feFlood flood-opacity="0" result="BackgroundImageFix"/><feBlend in="SourceGraphic" in2="BackgroundImageFix" mode="normal" result="shape"/><feColorMatrix in="SourceAlpha" result="hardAlpha" type="matrix" values="0 0 0 0 0 0 0 0 0 0 0 0 0 0 0 0 0 0 127 0"/><feOffset dy="-.5"/><feGaussianBlur stdDeviation=".625"/><feComposite in2="hardAlpha" k2="-1" k3="1" operator="arithmetic"/><feColorMatrix type="matrix" values="0 0 0 0 0.137255 0 0 0 0 0.0901961 0 0 0 0 0.145098 0 0 0 1 0"/><feBlend in2="shape" mode="normal" result="effect1_innerShadow_4002_182"/><feColorMatrix in="SourceAlpha" result="hardAlpha" type="matrix" values="0 0 0 0 0 0 0 0 0 0 0 0 0 0 0 0 0 0 127 0"/><feOffset dy="-.2"/><feGaussianBlur stdDeviation=".2"/><feComposite in2="hardAlpha" k2="-1" k3="1" operator="arithmetic"/><feColorMatrix type="matrix" values="0 0 0 0 0.0784314 0 0 0 0 0.0352941 0 0 0 0 0.0470588 0 0 0 1 0"/><feBlend in2="effect1_innerShadow_4002_182" mode="normal" result="effect2_innerShadow_4002_182"/></filter><filter id="l" color-interpolation-filters="sRGB" filterUnits="userSpaceOnUse" height=".64458" width="1.10497" x="16.7443" y="4.14546"><feFlood flood-opacity="0" result="BackgroundImageFix"/><feBlend in="SourceGraphic" in2="BackgroundImageFix" mode="normal" result="shape"/><feColorMatrix in="SourceAlpha" result="hardAlpha" type="matrix" values="0 0 0 0 0 0 0 0 0 0 0 0 0 0 0 0 0 0 127 0"/><feOffset dx=".1" dy="-.2"/><feGaussianBlur stdDeviation=".125"/><feComposite in2="hardAlpha" k2="-1" k3="1" operator="arithmetic"/><feColorMatrix type="matrix" values="0 0 0 0 0.0588235 0 0 0 0 0.054902 0 0 0 0 0.0588235 0 0 0 1 0"/><feBlend in2="shape" mode="normal" result="effect1_innerShadow_4002_182"/></filter><filter id="m" color-interpolation-filters="sRGB" filterUnits="userSpaceOnUse" height=".637988" width="1.10497" x="14.3849" y="4.15217"><feFlood flood-opacity="0" result="BackgroundImageFix"/><feBlend in="SourceGraphic" in2="BackgroundImageFix" mode="normal" result="shape"/><feColorMatrix in="SourceAlpha" result="hardAlpha" type="matrix" values="0 0 0 0 0 0 0 0 0 0 0 0 0 0 0 0 0 0 127 0"/><feOffset dx=".1" dy="-.2"/><feGaussianBlur stdDeviation=".125"/><feComposite in2="hardAlpha" k2="-1" k3="1" operator="arithmetic"/><feColorMatrix type="matrix" values="0 0 0 0 0.0588235 0 0 0 0 0.054902 0 0 0 0 0.0588235 0 0 0 1 0"/><feBlend in2="shape" mode="normal" result="effect1_innerShadow_4002_182"/></filter><filter id="n" color-interpolation-filters="sRGB" filterUnits="userSpaceOnUse" height="2.74543" width="3.23117" x="13.3135" y="2.23423"><feFlood flood-opacity="0" result="BackgroundImageFix"/><feBlend in="SourceGraphic" in2="BackgroundImageFix" mode="normal" result="shape"/><feColorMatrix in="SourceAlpha" result="hardAlpha" type="matrix" values="0 0 0 0 0 0 0 0 0 0 0 0 0 0 0 0 0 0 127 0"/><feOffset dx=".4" dy=".2"/><feGaussianBlur stdDeviation=".2"/><feComposite in2="hardAlpha" k2="-1" k3="1" operator="arithmetic"/><feColorMatrix type="matrix" values="0 0 0 0 0.286275 0 0 0 0 0.243137 0 0 0 0 0.227451 0 0 0 1 0"/><feBlend in2="shape" mode="normal" result="effect1_innerShadow_4002_182"/><feGaussianBlur result="effect2_foregroundBlur_4002_182" stdDeviation=".05"/></filter><filter id="o" color-interpolation-filters="sRGB" filterUnits="userSpaceOnUse" height="2.51201" width="2.75789" x="16.0451" y="2.44297"><feFlood flood-opacity="0" result="BackgroundImageFix"/><feBlend in="SourceGraphic" in2="BackgroundImageFix" mode="normal" result="shape"/><feGaussianBlur result="effect1_foregroundBlur_4002_182" stdDeviation=".05"/></filter><filter id="p" color-interpolation-filters="sRGB" filterUnits="userSpaceOnUse" height=".422778" width=".463397" x="16.6257" y="5.24546"><feFlood flood-opacity="0" result="BackgroundImageFix"/><feBlend in="SourceGraphic" in2="BackgroundImageFix" mode="normal" result="shape"/><feGaussianBlur result="effect1_foregroundBlur_4002_182" stdDeviation=".05"/></filter><filter id="q" color-interpolation-filters="sRGB" filterUnits="userSpaceOnUse" height=".630469" width=".62049" x="16.9478" y="5.22407"><feFlood flood-opacity="0" result="BackgroundImageFix"/><feBlend in="SourceGraphic" in2="BackgroundImageFix" mode="normal" result="shape"/><feGaussianBlur result="effect1_foregroundBlur_4002_182" stdDeviation=".1"/></filter><filter id="r" color-interpolation-filters="sRGB" filterUnits="userSpaceOnUse" height=".687354" width=".663184" x="14.9534" y="5.19551"><feFlood flood-opacity="0" result="BackgroundImageFix"/><feBlend in="SourceGraphic" in2="BackgroundImageFix" mode="normal" result="shape"/><feGaussianBlur result="effect1_foregroundBlur_4002_182" stdDeviation=".1"/></filter><filter id="s" color-interpolation-filters="sRGB" filterUnits="userSpaceOnUse" height=".426563" width=".520068" x="14.6697" y="5.2418"><feFlood flood-opacity="0" result="BackgroundImageFix"/><feBlend in="SourceGraphic" in2="BackgroundImageFix" mode="normal" result="shape"/><feGaussianBlur result="effect1_foregroundBlur_4002_182" stdDeviation=".05"/></filter><filter id="t" color-interpolation-filters="sRGB" filterUnits="userSpaceOnUse" height="1.34363" width=".87207" x="13.1635" y="5.12134"><feFlood flood-opacity="0" result="BackgroundImageFix"/><feBlend in="SourceGraphic" in2="BackgroundImageFix" mode="normal" result="shape"/><feGaussianBlur result="effect1_foregroundBlur_4002_182" stdDeviation=".125"/></filter><filter id="u" color-interpolation-filters="sRGB" filterUnits="userSpaceOnUse" height="1.85437" width="1.42487" x="17.778" y="4.86768"><feFlood flood-opacity="0" result="BackgroundImageFix"/><feBlend in="SourceGraphic" in2="BackgroundImageFix" mode="normal" result="shape"/><feGaussianBlur result="effect1_foregroundBlur_4002_182" stdDeviation=".25"/></filter><filter id="v" color-interpolation-filters="sRGB" filterUnits="userSpaceOnUse" height=".48418" width="1.04302" x="14.3667" y="4.31418"><feFlood flood-opacity="0" result="BackgroundImageFix"/><feBlend in="SourceGraphic" in2="BackgroundImageFix" mode="normal" result="shape"/><feGaussianBlur result="effect1_foregroundBlur_4002_182" stdDeviation=".05"/></filter><filter id="w" color-interpolation-filters="sRGB" filterUnits="userSpaceOnUse" height=".48418" width="1.04302" x="16.7365" y="4.29355"><feFlood flood-opacity="0" result="BackgroundImageFix"/><feBlend in="SourceGraphic" in2="BackgroundImageFix" mode="normal" result="shape"/><feGaussianBlur result="effect1_foregroundBlur_4002_182" stdDeviation=".05"/></filter><radialGradient id="x" cx="0" cy="0" gradientTransform="matrix(-1.84375 0 0 -12.369 13.3258 16.6308)" gradientUnits="userSpaceOnUse" r="1"><stop offset=".1375" stop-color="#d0756e"/><stop offset="1" stop-color="#d0756e" stop-opacity="0"/></radialGradient><radialGradient id="y" cx="0" cy="0" gradientTransform="matrix(1.60938 0 0 15.4135 18.9032 16.6308)" gradientUnits="userSpaceOnUse" r="1"><stop offset=".101266" stop-color="#ff9682"/><stop offset="1" stop-color="#ff9682" stop-opacity="0"/></radialGradient><radialGradient id="z" cx="0" cy="0" gradientTransform="matrix(.18359386 -.56250059 .39910654 .13026388 19.3499 19.025)" gradientUnits="userSpaceOnUse" r="1"><stop offset="0" stop-color="#d48f89"/><stop offset="1" stop-color="#d48f89" stop-opacity="0"/></radialGradient><radialGradient id="A" cx="0" cy="0" gradientTransform="matrix(-1.98267 0 0 -3.09375 13.5441 12.5231)" gradientUnits="userSpaceOnUse" r="1"><stop offset=".638345" stop-color="#f16440" stop-opacity="0"/><stop offset="1" stop-color="#f16440"/></radialGradient><radialGradient id="B" cx="0" cy="0" gradientTransform="matrix(-1.51586551 1.2382935 -.95062679 -1.16371632 14.5931 8.83166)" gradientUnits="userSpaceOnUse" r="1"><stop offset="0" stop-color="#de5d25"/><stop offset="1" stop-color="#de5d25" stop-opacity="0"/></radialGradient><linearGradient id="C" gradientUnits="userSpaceOnUse" x1="12.4972" x2="12.4972" y1="12.7809" y2="12.3043"><stop offset="0" stop-color="#fb2d18"/><stop offset="1" stop-color="#fb2d18" stop-opacity="0"/></linearGradient><radialGradient id="D" cx="0" cy="0" gradientTransform="matrix(.87499985 -.31249953 1.29629613 3.62963397 18.8253 11.9762)" gradientUnits="userSpaceOnUse" r="1"><stop offset=".251131" stop-color="#ff391e"/><stop offset="1" stop-color="#ff391e" stop-opacity="0"/></radialGradient><linearGradient id="E" gradientUnits="userSpaceOnUse" x1="19.7784" x2="19.7784" y1="12.8668" y2="12.1637"><stop offset="0" stop-color="#ff381e"/><stop offset="1" stop-color="#ff381e" stop-opacity="0"/></linearGradient><linearGradient id="F" gradientUnits="userSpaceOnUse" x1="16.0311" x2="16.0311" y1="16.0114" y2="16.4449"><stop offset="0" stop-color="#856988"/><stop offset="1" stop-color="#856988" stop-opacity="0"/></linearGradient><radialGradient id="G" cx="0" cy="0" gradientTransform="matrix(0 -.359375 1.91919 0 16.0311 18.1012)" gradientUnits="userSpaceOnUse" r="1"><stop offset="0" stop-color="#6a597b"/><stop offset="1" stop-color="#6a597b" stop-opacity="0"/></radialGradient><linearGradient id="H"><stop offset="0" stop-color="#aa9ba7"/><stop offset="1" stop-color="#aa9ba7" stop-opacity="0"/></linearGradient><radialGradient id="I" cx="0" cy="0" gradientTransform="matrix(0 -.269531 1.85938 0 18.1066 28.4645)" gradientUnits="userSpaceOnUse" r="1" xlink:href="#H"/><radialGradient id="J" cx="0" cy="0" gradientTransform="matrix(0 -.328125 1.20581 0 14.8253 28.5543)" gradientUnits="userSpaceOnUse" r="1" xlink:href="#H"/><linearGradient id="K" gradientUnits="userSpaceOnUse" x1="16.0311" x2="16.0311" y1="9.1012" y2="16.0621"><stop offset="0" stop-color="#ff7325"/><stop offset="1" stop-color="#ff4c2e"/></linearGradient><radialGradient id="L" cx="0" cy="0" gradientTransform="matrix(-1.93749598 1.62500318 -2.522137 -3.00715122 18.4347 9.75745)" gradientUnits="userSpaceOnUse" r="1"><stop offset="0" stop-color="#ff863c"/><stop offset="1" stop-color="#ff863c" stop-opacity="0"/></radialGradient><radialGradient id="M" cx="0" cy="0" gradientTransform="matrix(1.42712457 .66406352 -.84189413 1.8092965 15.4751 8.87268)" gradientUnits="userSpaceOnUse" r="1"><stop offset=".525911" stop-color="#dc9795"/><stop offset="1" stop-color="#fab5a2"/></radialGradient><linearGradient id="N" gradientUnits="userSpaceOnUse" x1="18.2784" x2="16.5311" y1="29.7262" y2="29.5231"><stop offset="0" stop-color="#5a3f7c"/><stop offset="1" stop-color="#462f5e"/></linearGradient><radialGradient id="O" cx="0" cy="0" gradientTransform="matrix(-1.66284028 -.843753 .32902774 -.6484369 19.5975 29.4137)" gradientUnits="userSpaceOnUse" r="1"><stop offset="0" stop-color="#635185"/><stop offset="1" stop-color="#635185" stop-opacity="0"/></radialGradient><radialGradient id="P" cx="0" cy="0" gradientTransform="matrix(.33611259 .90653408 -1.07689353 .3992762 18.1645 6.33179)" gradientUnits="userSpaceOnUse" r="1"><stop offset=".214643" stop-color="#313131"/><stop offset="1" stop-color="#1a161e"/></radialGradient><radialGradient id="Q" cx="0" cy="0" gradientTransform="matrix(.66275847 .20829567 -.64260676 2.04465644 13.3123 6.55189)" gradientUnits="userSpaceOnUse" r="1"><stop offset="0" stop-color="#564943"/><stop offset=".745836" stop-color="#1e191c"/></radialGradient><radialGradient id="R" cx="0" cy="0" gradientTransform="matrix(-2.34669 0 0 -4.15127 17.2913 5.90927)" gradientUnits="userSpaceOnUse" r="1"><stop offset="0" stop-color="#ffdcc0"/><stop offset="1" stop-color="#d6a195"/></radialGradient><linearGradient id="S" gradientUnits="userSpaceOnUse" x1="18.3459" x2="16.3921" y1="6.66583" y2="6.66583"><stop offset="0" stop-color="#ffd6ba"/><stop offset="1" stop-color="#ffd6ba" stop-opacity="0"/></linearGradient><radialGradient id="T" cx="0" cy="0" gradientTransform="matrix(0 5.95723 -4.9333 0 16.1881 2.96278)" gradientUnits="userSpaceOnUse" r="1"><stop offset=".802589" stop-color="#d69b93" stop-opacity="0"/><stop offset="1" stop-color="#c9747e"/></radialGradient><radialGradient id="U" cx="0" cy="0" gradientTransform="matrix(0 -.515474 .6379 0 17.1295 5.31994)" gradientUnits="userSpaceOnUse" r="1"><stop offset=".325" stop-color="#f6b8a8"/><stop offset="1" stop-color="#f6b8a8" stop-opacity="0"/></radialGradient><radialGradient id="V" cx="0" cy="0" gradientTransform="matrix(.00176435 -.49120283 .53454455 .00192003 14.9984 5.34081)" gradientUnits="userSpaceOnUse" r="1"><stop offset=".377617" stop-color="#d39991"/><stop offset="1" stop-color="#d39991" stop-opacity="0"/></radialGradient><radialGradient id="W" cx="0" cy="0" gradientTransform="matrix(-3.81369922 .24073953 -.61496879 -9.74208936 17.5719 6.35278)" gradientUnits="userSpaceOnUse" r="1"><stop offset=".835902" stop-color="#e6ad97" stop-opacity="0"/><stop offset="1" stop-color="#e6ad97"/></radialGradient><radialGradient id="X" cx="0" cy="0" gradientTransform="matrix(1.39082414 -1.47133131 .53861052 .50913925 13.5767 3.96771)" gradientUnits="userSpaceOnUse" r="1"><stop offset=".427646" stop-color="#9f6d5c"/><stop offset="1" stop-color="#9f6d5c" stop-opacity="0"/></radialGradient><radialGradient id="Y" cx="0" cy="0" gradientTransform="matrix(-.78247604 1.29411052 -1.06839337 -.64599754 17.1204 3.67428)" gradientUnits="userSpaceOnUse" r="1"><stop offset=".0780198" stop-color="#f6c3b0"/><stop offset="1" stop-color="#f6c3b0" stop-opacity="0"/></radialGradient><linearGradient id="Z" gradientUnits="userSpaceOnUse" x1="16.4073" x2="16.0311" y1="6.21223" y2="6.22789"><stop offset=".360477" stop-color="#ffdfc7"/><stop offset="1" stop-color="#ffdfc7" stop-opacity="0"/></linearGradient><radialGradient id="aa" cx="0" cy="0" gradientTransform="matrix(0 .109574 -.344374 0 16.2404 6.52008)" gradientUnits="userSpaceOnUse" r="1"><stop offset="0" stop-color="#ffddc7"/><stop offset="1" stop-color="#ffddc7" stop-opacity="0"/></radialGradient><linearGradient id="ab" gradientUnits="userSpaceOnUse" x1="16.0311" x2="16.0311" y1="6.72358" y2="6.51487"><stop offset="0" stop-color="#d89793"/><stop offset="1" stop-color="#d89793" stop-opacity="0"/></linearGradient><radialGradient id="ac" cx="0" cy="0" gradientTransform="matrix(-.68281615 .31306463 -.50311964 -1.09733959 16.2926 6.26441)" gradientUnits="userSpaceOnUse" r="1"><stop offset=".714105" stop-color="#d3968c" stop-opacity="0"/><stop offset="1" stop-color="#d3968c"/></radialGradient><linearGradient id="ad" gradientUnits="userSpaceOnUse" x1="16.0311" x2="16.0311" y1="5.45142" y2="5.75469"><stop offset="0" stop-color="#e8bba8"/><stop offset="1" stop-color="#e8bba8" stop-opacity="0"/></linearGradient><linearGradient id="ae" gradientUnits="userSpaceOnUse" x1="15.4916" x2="15.6345" y1="7.42867" y2="7.05408"><stop offset="0" stop-color="#e1aca6"/><stop offset="1" stop-color="#e1aca6" stop-opacity="0"/></linearGradient><radialGradient id="af" cx="0" cy="0" gradientTransform="matrix(0 -.323526 1.30163 0 16.031 7.49798)" gradientUnits="userSpaceOnUse" r="1"><stop offset="0" stop-color="#88014e"/><stop offset="1" stop-color="#86004d"/></radialGradient><linearGradient id="ag" gradientUnits="userSpaceOnUse" x1="19.1069" x2="13.8944" y1="3.3674" y2="3.3674"><stop offset="0" stop-color="#443d40"/><stop offset="1" stop-color="#272127"/></linearGradient><radialGradient id="ah" cx="0" cy="0" gradientTransform="matrix(0 -1.57168 3.97461 0 13.6837 4.61097)" gradientUnits="userSpaceOnUse" r="1"><stop offset=".535851" stop-color="#3e3433"/><stop offset="1" stop-color="#3e3433" stop-opacity="0"/></radialGradient><radialGradient id="ai" cx="0" cy="0" gradientTransform="matrix(.05119119 -1.12783885 1.99830267 .09070045 18.2131 5.19914)" gradientUnits="userSpaceOnUse" r="1"><stop offset="0" stop-color="#4f4d4d"/><stop offset="1" stop-color="#4f4d4d" stop-opacity="0"/></radialGradient><radialGradient id="aj" cx="0" cy="0" gradientTransform="matrix(-1.05883446 -.69639756 .51119269 -.77724058 17.8745 2.38177)" gradientUnits="userSpaceOnUse" r="1"><stop offset="0" stop-color="#5e5a5b"/><stop offset="1" stop-color="#5e5a5b" stop-opacity="0"/></radialGradient><radialGradient id="ak" cx="0" cy="0" gradientTransform="matrix(.40628851 .66209958 -1.53311538 .94077564 15.6248 1.66701)" gradientUnits="userSpaceOnUse" r="1"><stop offset=".286771" stop-color="#484646"/><stop offset="1" stop-color="#484646" stop-opacity="0"/></radialGradient><radialGradient id="al" cx="0" cy="0" gradientTransform="matrix(-.988047 0 0 -.366703 16.1446 2.68116)" gradientUnits="userSpaceOnUse" r="1"><stop offset="0" stop-color="#423c3f"/><stop offset="1" stop-color="#423c3f" stop-opacity="0"/></radialGradient><radialGradient id="am" cx="0" cy="0" gradientTransform="matrix(1.44457743 -2.28725152 2.53404139 1.60044445 13.5931 4.45086)" gradientUnits="userSpaceOnUse" r="1"><stop offset=".0926981" stop-color="#0b0306"/><stop offset=".311222" stop-color="#1c0c20"/><stop offset="1" stop-color="#1c0c20" stop-opacity="0"/></radialGradient><radialGradient id="an" cx="0" cy="0" gradientTransform="matrix(1.37286 0 0 .536763 17.5635 3.02988)" gradientUnits="userSpaceOnUse" r="1"><stop offset="0" stop-color="#4e494b"/><stop offset="1" stop-color="#4e494b" stop-opacity="0"/></radialGradient><radialGradient id="ao" cx="0" cy="0" gradientTransform="matrix(1.20242998 -1.14562298 2.09734381 2.20134296 17.2132 4.39327)" gradientUnits="userSpaceOnUse" r="1"><stop offset=".856906" stop-color="#545051" stop-opacity="0"/><stop offset="1" stop-color="#545051"/></radialGradient><radialGradient id="ap" cx="0" cy="0" gradientTransform="matrix(1.458064 .17042307 -.07135307 .61046516 16.8155 3.73051)" gradientUnits="userSpaceOnUse" r="1"><stop offset="0" stop-color="#200e25"/><stop offset="1" stop-color="#200e25" stop-opacity="0"/></radialGradient><linearGradient id="aq"><stop offset=".80198" stop-color="#7d574a"/><stop offset="1" stop-color="#694b43"/><stop offset="1" stop-color="#804d49"/><stop offset="1" stop-color="#664842"/></linearGradient><radialGradient id="ar" cx="0" cy="0" gradientTransform="matrix(0 .364187 -.579281 0 17.0105 5.49806)" gradientUnits="userSpaceOnUse" r="1" xlink:href="#aq"/><linearGradient id="as"><stop offset=".765532" stop-color="#ffe6e2" stop-opacity="0"/><stop offset=".966159" stop-color="#ffe6e2"/></linearGradient><radialGradient id="at" cx="0" cy="0" gradientTransform="matrix(-.10410401 -.13415205 .1846948 -.14332594 16.9079 5.53582)" gradientUnits="userSpaceOnUse" r="1" xlink:href="#as"/><linearGradient id="au"><stop offset="0" stop-color="#b4948d"/><stop offset="1" stop-color="#b4948d" stop-opacity="0"/></linearGradient><linearGradient id="av" gradientUnits="userSpaceOnUse" x1="17.3598" x2="17.219" xlink:href="#au" y1="5.52223" y2="5.60901"/><radialGradient id="aw" cx="0" cy="0" gradientTransform="matrix(0 .364206 -.57931 0 15.0516 5.49807)" gradientUnits="userSpaceOnUse" r="1" xlink:href="#aq"/><linearGradient id="ax" gradientUnits="userSpaceOnUse" x1="15.3854" x2="15.2446" xlink:href="#au" y1="5.52213" y2="5.60891"/><radialGradient id="ay" cx="0" cy="0" gradientTransform="matrix(-.00347247 -.22178582 .26659533 -.00417405 14.923 5.59644)" gradientUnits="userSpaceOnUse" r="1" xlink:href="#as"/><linearGradient id="az" gradientUnits="userSpaceOnUse" x1="18.9202" x2="18.3784" y1="5.53426" y2="6.51113"><stop offset="0" stop-color="#ffd6bd"/><stop offset="1" stop-color="#f0b8a6"/></linearGradient><radialGradient id="aA" cx="0" cy="0" gradientTransform="matrix(.2821457 1.00696915 -.96072416 .26918818 18.1038 5.50416)" gradientUnits="userSpaceOnUse" r="1"><stop offset=".856273" stop-color="#ce978e" stop-opacity="0"/><stop offset="1" stop-color="#ce978e"/></radialGradient><radialGradient id="aB" cx="0" cy="0" gradientTransform="matrix(.35362175 -.48528865 .40676861 .29640551 18.2656 5.74869)" gradientUnits="userSpaceOnUse" r="1"><stop offset=".663731" stop-color="#f7b99c"/><stop offset="1" stop-color="#f7b99c" stop-opacity="0"/></radialGradient><radialGradient id="aC" cx="0" cy="0" gradientTransform="matrix(.26349258 -.69595703 .92989574 .35206288 18.3168 5.82609)" gradientUnits="userSpaceOnUse" r="1"><stop offset=".803247" stop-color="#ebbb9d" stop-opacity="0"/><stop offset="1" stop-color="#ebbb9d"/></radialGradient><linearGradient id="aD" gradientUnits="userSpaceOnUse" x1="13.4053" x2="14.0599" y1="5.85033" y2="5.79316"><stop offset="0" stop-color="#d19787"/><stop offset="1" stop-color="#c9887d"/></linearGradient><radialGradient id="aE" cx="0" cy="0" gradientTransform="matrix(-.72412199 -.08847485 .09497366 -.77731145 13.8247 5.79316)" gradientUnits="userSpaceOnUse" r="1"><stop offset=".77507" stop-color="#e8af99" stop-opacity="0"/><stop offset="1" stop-color="#e8af99"/></radialGradient><radialGradient id="aF" cx="0" cy="0" gradientTransform="matrix(-.41139131 .07061604 -.08664966 -.5047992 13.8248 5.79314)" gradientUnits="userSpaceOnUse" r="1"><stop offset="0" stop-color="#c18472"/><stop offset="1" stop-color="#ca8b7a"/></radialGradient><linearGradient id="aG" gradientUnits="userSpaceOnUse" x1="18.4904" x2="18.4904" y1="5.36768" y2="6.22206"><stop offset="0" stop-color="#f9bb9e"/><stop offset="1" stop-color="#f6bba0"/></linearGradient><path d="m12.6986 19.1598c-.0844-.0906-.0638-.1966-.043-.2383h-.4375l.3204.9961c.2617.0781.539.0508.5898-.1133.0406-.1312-.0273-.2539-.0742-.3008-.0834-.0768-.2711-.2531-.3555-.3437z" fill="#b87e78"/><path d="m19.3636 19.1598c.0844-.0906.0638-.1966.043-.2383h.4375l-.3203.9961c-.2617.0781-.5391.0508-.5898-.1133-.0407-.1312.0273-.2539.0742-.3008.0833-.0768.2711-.2531.3554-.3437z" fill="#d89888"/><g filter="url(#a)"><path d="m12.0809 20.4405c-.9379-1.9819-.7687-6.2587-.4873-7.8237h1.6719c-.0717 2.4256.0394 5.2431.1779 6.5114.0112.1032.0833.2142 0 .2761-.1494.111-.3632.0549-.4388-.1151l-.1167-.2624c-.0384-.0863-.1361-.1294-.2257-.0995-.0847.0282-.1371.1133-.1193.2009.0607.2994.1715.6781.264.9732.0648.2072-.0376.4307-.2386.5128-.1862.0759-.4013.008-.4874-.1737z" fill="#e3ab9b"/><path d="m12.0809 20.4405c-.9379-1.9819-.7687-6.2587-.4873-7.8237h1.6719c-.0717 2.4256.0394 5.2431.1779 6.5114.0112.1032.0833.2142 0 .2761-.1494.111-.3632.0549-.4388-.1151l-.1167-.2624c-.0384-.0863-.1361-.1294-.2257-.0995-.0847.0282-.1371.1133-.1193.2009.0607.2994.1715.6781.264.9732.0648.2072-.0376.4307-.2386.5128-.1862.0759-.4013.008-.4874-.1737z" fill="url(#x)"/></g><path d="m19.9191 20.4405c.9379-1.9819.7687-6.2587.4873-7.8237h-1.6719c.0717 2.4256-.1555 5.2537-.2939 6.5221-.0113.1031.0327.2035.116.2654.1494.111.3632.0549.4388-.1151l.1167-.2624c.0384-.0863.1361-.1294.2257-.0995.0848.0282.1371.1133.1193.2009-.0607.2994-.1715.6781-.2639.9732-.0649.2072.0375.4307.2385.5128.1862.0759.4014.008.4874-.1737z" fill="#facbb3"/><path d="m19.9191 20.4405c.9379-1.9819.7687-6.2587.4873-7.8237h-1.6719c.0717 2.4256-.1555 5.2537-.2939 6.5221-.0113.1031.0327.2035.116.2654.1494.111.3632.0549.4388-.1151l.1167-.2624c.0384-.0863.1361-.1294.2257-.0995.0848.0282.1371.1133.1193.2009-.0607.2994-.1715.6781-.2639.9732-.0649.2072.0375.4307.2385.5128.1862.0759.4014.008.4874-.1737z" fill="url(#y)"/><path d="m19.9191 20.4405c.9379-1.9819.7687-6.2587.4873-7.8237h-1.6719c.0717 2.4256-.1555 5.2537-.2939 6.5221-.0113.1031.0327.2035.116.2654.1494.111.3632.0549.4388-.1151l.1167-.2624c.0384-.0863.1361-.1294.2257-.0995.0848.0282.1371.1133.1193.2009-.0607.2994-.1715.6781-.2639.9732-.0649.2072.0375.4307.2385.5128.1862.0759.4014.008.4874-.1737z" fill="url(#z)"/><path d="m11.5637 12.6605c.4862-2.2538 1.6284-3.33367 3.0295-3.82883v3.94923h-2.9324c-.0632 0-.1105-.0587-.0971-.1204z" fill="#ff4326"/><path d="m11.5637 12.6605c.4862-2.2538 1.6284-3.33367 3.0295-3.82883v3.94923h-2.9324c-.0632 0-.1105-.0587-.0971-.1204z" fill="url(#A)"/><path d="m11.5637 12.6605c.4862-2.2538 1.6284-3.33367 3.0295-3.82883v3.94923h-2.9324c-.0632 0-.1105-.0587-.0971-.1204z" fill="url(#B)"/><path d="m11.5637 12.6605c.4862-2.2538 1.6284-3.33367 3.0295-3.82883v3.94923h-2.9324c-.0632 0-.1105-.0587-.0971-.1204z" fill="url(#C)"/><g filter="url(#b)"><path d="m19.8441 12.4977c.125 1 .3 3.575 0 5.875" stroke="#ffc9b6" stroke-width=".3"/></g><path d="m20.4986 12.6605c-.4862-2.2538-1.6284-3.33367-3.0295-3.82883v3.94923h2.9324c.0632 0 .1105-.0587.0971-.1204z" fill="#ff7a43"/><path d="m20.4986 12.6605c-.4862-2.2538-1.6284-3.33367-3.0295-3.82883v3.94923h2.9324c.0632 0 .1105-.0587.0971-.1204z" fill="url(#D)"/><path d="m20.4986 12.6605c-.4862-2.2538-1.6284-3.33367-3.0295-3.82883v3.94923h2.9324c.0632 0 .1105-.0587.0971-.1204z" fill="url(#E)"/><g filter="url(#c)"><path d="m13.0468 16.0114.4843 12.4531h2l.2383-9.5235c0-.3281.0286-.8593.2617-.8593.2122 0 .2631.5547.2617.8593l.2383 9.5235h2l.4844-12.4531z" fill="#827a8a"/></g><path d="m13.0468 16.0114.4843 12.4531h2l.2383-9.5235c0-.3281.0286-.8593.2617-.8593.2122 0 .2631.5547.2617.8593l.2383 9.5235h2l.4844-12.4531z" fill="url(#F)"/><path d="m13.0468 16.0114.4843 12.4531h2l.2383-9.5235c0-.3281.0286-.8593.2617-.8593.2122 0 .2631.5547.2617.8593l.2383 9.5235h2l.4844-12.4531z" fill="url(#G)"/><path d="m13.0468 16.0114.4843 12.4531h2l.2383-9.5235c0-.3281.0286-.8593.2617-.8593.2122 0 .2631.5547.2617.8593l.2383 9.5235h2l.4844-12.4531z" fill="url(#I)"/><path d="m13.0468 16.0114.4843 12.4531h2l.2383-9.5235c0-.3281.0286-.8593.2617-.8593.2122 0 .2631.5547.2617.8593l.2383 9.5235h2l.4844-12.4531z" fill="url(#J)"/><g filter="url(#d)"><path d="m12.9725 11.527c0-1.68924 1.3694-3.05862 3.0586-3.05862s3.0586 1.36938 3.0586 3.05862v4.4414c0 .0518-.042.0937-.0937.0937h-5.9297c-.0518 0-.0938-.0419-.0938-.0937z" fill="url(#K)"/><path d="m12.9725 11.527c0-1.68924 1.3694-3.05862 3.0586-3.05862s3.0586 1.36938 3.0586 3.05862v4.4414c0 .0518-.042.0937-.0937.0937h-5.9297c-.0518 0-.0938-.0419-.0938-.0937z" fill="url(#L)"/></g><path d="m15.16 7.37463h1.7422v1.35157c0 .48109-.39.87109-.8711.87109s-.8711-.39-.8711-.87109z" fill="url(#M)"/><g filter="url(#e)"><path d="m12.4647 29.8199v.2422h3.0664v-1.5976h-1.9923c-.1015.3672-.5741.7539-.8163.914-.1865.1234-.2578.3008-.2578.4414z" fill="#5d4480"/></g><path d="m19.5975 29.8199v.2422h-3.0664v-1.5976h1.9923c.1016.3672.5741.7539.8163.914.1865.1234.2578.3008.2578.4414z" fill="url(#N)"/><path d="m19.5975 29.8199v.2422h-3.0664v-1.5976h1.9923c.1016.3672.5741.7539.8163.914.1865.1234.2578.3008.2578.4414z" fill="url(#O)"/><g filter="url(#f)"><path d="m13.8719 16.3824.4688 11.7657h.8125v-10.6094h2.2031v10.6094h.6719l.4375-11.7657z" fill="#9d98a2"/></g><path d="m18.213 6.47028c.1504-.00486.2914-.05588.406-.13849v.41791c0 .4009-.2388.75807-.6019.90629.0764-.16279.129-.34016.1553-.52968z" fill="url(#P)"/><path d="m13.8488 6.47028c-.1505-.00486-.2914-.05588-.4061-.13849v.41791c0 .4009.2389.75807.602.90629-.0765-.16279-.129-.34016-.1553-.52968z" fill="url(#Q)"/><g filter="url(#g)"><path d="m13.8651 7.1504c.1155.87638.8613 1.52885 1.7443 1.52885h.8468c.8829 0 1.6288-.65247 1.7442-1.52885.053-.84556.1062-1.68772.1455-2.53283-.0047-.34429-.2761-.62839-.619-.64284h-.6285c-.4285 0-.8166-.2528-.9928-.64765-.0452-.11316-.1547-.1878-.2761-.1878h-.5714c-.8285 0-1.4999.67895-1.4999 1.51681 0 .83525.0521 1.65696.1069 2.49431z" fill="url(#R)"/></g><path d="m13.8651 7.1504c.1155.87638.8613 1.52885 1.7443 1.52885h.8468c.8829 0 1.6288-.65247 1.7442-1.52885.053-.84556.1062-1.68772.1455-2.53283-.0047-.34429-.2761-.62839-.619-.64284h-.6285c-.4285 0-.8166-.2528-.9928-.64765-.0452-.11316-.1547-.1878-.2761-.1878h-.5714c-.8285 0-1.4999.67895-1.4999 1.51681 0 .83525.0521 1.65696.1069 2.49431z" fill="url(#S)"/><path d="m13.8651 7.1504c.1155.87638.8613 1.52885 1.7443 1.52885h.8468c.8829 0 1.6288-.65247 1.7442-1.52885.053-.84556.1062-1.68772.1455-2.53283-.0047-.34429-.2761-.62839-.619-.64284h-.6285c-.4285 0-.8166-.2528-.9928-.64765-.0452-.11316-.1547-.1878-.2761-.1878h-.5714c-.8285 0-1.4999.67895-1.4999 1.51681 0 .83525.0521 1.65696.1069 2.49431z" fill="url(#T)"/><path d="m13.8651 7.1504c.1155.87638.8613 1.52885 1.7443 1.52885h.8468c.8829 0 1.6288-.65247 1.7442-1.52885.053-.84556.1062-1.68772.1455-2.53283-.0047-.34429-.2761-.62839-.619-.64284h-.6285c-.4285 0-.8166-.2528-.9928-.64765-.0452-.11316-.1547-.1878-.2761-.1878h-.5714c-.8285 0-1.4999.67895-1.4999 1.51681 0 .83525.0521 1.65696.1069 2.49431z" fill="url(#U)"/><path d="m13.8651 7.1504c.1155.87638.8613 1.52885 1.7443 1.52885h.8468c.8829 0 1.6288-.65247 1.7442-1.52885.053-.84556.1062-1.68772.1455-2.53283-.0047-.34429-.2761-.62839-.619-.64284h-.6285c-.4285 0-.8166-.2528-.9928-.64765-.0452-.11316-.1547-.1878-.2761-.1878h-.5714c-.8285 0-1.4999.67895-1.4999 1.51681 0 .83525.0521 1.65696.1069 2.49431z" fill="url(#V)"/><path d="m13.8651 7.1504c.1155.87638.8613 1.52885 1.7443 1.52885h.8468c.8829 0 1.6288-.65247 1.7442-1.52885.053-.84556.1062-1.68772.1455-2.53283-.0047-.34429-.2761-.62839-.619-.64284h-.6285c-.4285 0-.8166-.2528-.9928-.64765-.0452-.11316-.1547-.1878-.2761-.1878h-.5714c-.8285 0-1.4999.67895-1.4999 1.51681 0 .83525.0521 1.65696.1069 2.49431z" fill="url(#W)"/><path d="m13.8651 7.1504c.1155.87638.8613 1.52885 1.7443 1.52885h.8468c.8829 0 1.6288-.65247 1.7442-1.52885.053-.84556.1062-1.68772.1455-2.53283-.0047-.34429-.2761-.62839-.619-.64284h-.6285c-.4285 0-.8166-.2528-.9928-.64765-.0452-.11316-.1547-.1878-.2761-.1878h-.5714c-.8285 0-1.4999.67895-1.4999 1.51681 0 .83525.0521 1.65696.1069 2.49431z" fill="url(#X)"/><path d="m13.8651 7.1504c.1155.87638.8613 1.52885 1.7443 1.52885h.8468c.8829 0 1.6288-.65247 1.7442-1.52885.053-.84556.1062-1.68772.1455-2.53283-.0047-.34429-.2761-.62839-.619-.64284h-.6285c-.4285 0-.8166-.2528-.9928-.64765-.0452-.11316-.1547-.1878-.2761-.1878h-.5714c-.8285 0-1.4999.67895-1.4999 1.51681 0 .83525.0521 1.65696.1069 2.49431z" fill="url(#Y)"/><g filter="url(#h)"><path d="m15.8509 5.67409-.2652.8252c-.0453.16974.0634.33948.2174.33948h.3285c.154 0 .2627-.17235.2174-.33948l-.222-.8252c-.0475-.1828-.2263-.1828-.2761 0z" fill="#d69790"/></g><g filter="url(#i)"><path d="m15.8595 5.58851-.2386.82521c-.0487.16974.0681.33948.2337.33948h.353c.1655 0 .2824-.17235.2337-.33948l-.2386-.82521c-.0511-.18279-.2897-.18279-.3432 0z" fill="#f6bfab"/><path d="m15.8595 5.58851-.2386.82521c-.0487.16974.0681.33948.2337.33948h.353c.1655 0 .2824-.17235.2337-.33948l-.2386-.82521c-.0511-.18279-.2897-.18279-.3432 0z" fill="url(#Z)"/><path d="m15.8595 5.58851-.2386.82521c-.0487.16974.0681.33948.2337.33948h.353c.1655 0 .2824-.17235.2337-.33948l-.2386-.82521c-.0511-.18279-.2897-.18279-.3432 0z" fill="url(#aa)"/><path d="m15.8595 5.58851-.2386.82521c-.0487.16974.0681.33948.2337.33948h.353c.1655 0 .2824-.17235.2337-.33948l-.2386-.82521c-.0511-.18279-.2897-.18279-.3432 0z" fill="url(#ab)"/><path d="m15.8595 5.58851-.2386.82521c-.0487.16974.0681.33948.2337.33948h.353c.1655 0 .2824-.17235.2337-.33948l-.2386-.82521c-.0511-.18279-.2897-.18279-.3432 0z" fill="url(#ac)"/><path d="m15.8595 5.58851-.2386.82521c-.0487.16974.0681.33948.2337.33948h.353c.1655 0 .2824-.17235.2337-.33948l-.2386-.82521c-.0511-.18279-.2897-.18279-.3432 0z" fill="url(#ad)"/></g><g filter="url(#j)"><path d="m15.4438 6.99554v-.00001l-.0007-.00034c-.0641-.03262-.1312-.01175-.1704.02944-.0395.04155-.0568.11149-.0146.17316.1639.24792.4488.41281.7729.41281.3244 0 .6095-.16517.7733-.41343l-.0625-.04131.0623.04161c.0412-.06175.0257-.13164-.0152-.17406-.0399-.04142-.1069-.06029-.17-.02822v-.00001l-.0007.00036c-.1689.08806-.3688.13893-.5872.13893-.2162 0-.4184-.0509-.5872-.13893z" stroke="url(#ae)" stroke-width=".15"/></g><path d="m16.031 7.20947c-.2278 0-.4419-.05361-.6219-.14743-.0615-.03127-.1276.03797-.0888.09382.1503.22785.4123.37974.7107.37974s.5604-.15189.7107-.37974c.0388-.05808-.0273-.12509-.0888-.09382-.18.09382-.3918.14743-.6219.14743z" fill="url(#af)"/><g filter="url(#k)"><path d="m18.2104 2.9274c.2309.07946.4381.24077.569.4719.2095.36837.1786.80897-.0476 1.134-.0786.11556-.1214.2528-.1214.39244v.53329c-.084-.05849-.1948-.10185-.2995-.12038l.0352-.72109c-.0048-.34429-.2762-.62839-.619-.64283h-.6285c-.4286 0-.8166-.25281-.9928-.64766-.0453-.11316-.1548-.18779-.2762-.18779h-.5714c-.8285 0-1.4999.67895-1.4999 1.51681l.0138.69009c-.114.01675-.2331.05486-.3233.11835v-.53879c0-.13964-.0428-.27688-.1214-.39244-.2143-.3154-.2523-.73915-.0643-1.09788.131-.24799.3429-.42134.5833-.50561.2572-.09149.4762-.26484.6214-.49838.1857-.29614.5119-.49356.8857-.49356.1452 0 .2833.0313.4118.08426.1714.07464.3643.07464.5357 0 .1262-.05296.2643-.08426.4095-.08426.3785 0 .7095.20465.8928.50801.1381.22872.3547.39485.6071.48152z" fill="url(#ag)"/><path d="m18.2104 2.9274c.2309.07946.4381.24077.569.4719.2095.36837.1786.80897-.0476 1.134-.0786.11556-.1214.2528-.1214.39244v.53329c-.084-.05849-.1948-.10185-.2995-.12038l.0352-.72109c-.0048-.34429-.2762-.62839-.619-.64283h-.6285c-.4286 0-.8166-.25281-.9928-.64766-.0453-.11316-.1548-.18779-.2762-.18779h-.5714c-.8285 0-1.4999.67895-1.4999 1.51681l.0138.69009c-.114.01675-.2331.05486-.3233.11835v-.53879c0-.13964-.0428-.27688-.1214-.39244-.2143-.3154-.2523-.73915-.0643-1.09788.131-.24799.3429-.42134.5833-.50561.2572-.09149.4762-.26484.6214-.49838.1857-.29614.5119-.49356.8857-.49356.1452 0 .2833.0313.4118.08426.1714.07464.3643.07464.5357 0 .1262-.05296.2643-.08426.4095-.08426.3785 0 .7095.20465.8928.50801.1381.22872.3547.39485.6071.48152z" fill="url(#ah)"/><path d="m18.2104 2.9274c.2309.07946.4381.24077.569.4719.2095.36837.1786.80897-.0476 1.134-.0786.11556-.1214.2528-.1214.39244v.53329c-.084-.05849-.1948-.10185-.2995-.12038l.0352-.72109c-.0048-.34429-.2762-.62839-.619-.64283h-.6285c-.4286 0-.8166-.25281-.9928-.64766-.0453-.11316-.1548-.18779-.2762-.18779h-.5714c-.8285 0-1.4999.67895-1.4999 1.51681l.0138.69009c-.114.01675-.2331.05486-.3233.11835v-.53879c0-.13964-.0428-.27688-.1214-.39244-.2143-.3154-.2523-.73915-.0643-1.09788.131-.24799.3429-.42134.5833-.50561.2572-.09149.4762-.26484.6214-.49838.1857-.29614.5119-.49356.8857-.49356.1452 0 .2833.0313.4118.08426.1714.07464.3643.07464.5357 0 .1262-.05296.2643-.08426.4095-.08426.3785 0 .7095.20465.8928.50801.1381.22872.3547.39485.6071.48152z" fill="url(#ai)"/><path d="m18.2104 2.9274c.2309.07946.4381.24077.569.4719.2095.36837.1786.80897-.0476 1.134-.0786.11556-.1214.2528-.1214.39244v.53329c-.084-.05849-.1948-.10185-.2995-.12038l.0352-.72109c-.0048-.34429-.2762-.62839-.619-.64283h-.6285c-.4286 0-.8166-.25281-.9928-.64766-.0453-.11316-.1548-.18779-.2762-.18779h-.5714c-.8285 0-1.4999.67895-1.4999 1.51681l.0138.69009c-.114.01675-.2331.05486-.3233.11835v-.53879c0-.13964-.0428-.27688-.1214-.39244-.2143-.3154-.2523-.73915-.0643-1.09788.131-.24799.3429-.42134.5833-.50561.2572-.09149.4762-.26484.6214-.49838.1857-.29614.5119-.49356.8857-.49356.1452 0 .2833.0313.4118.08426.1714.07464.3643.07464.5357 0 .1262-.05296.2643-.08426.4095-.08426.3785 0 .7095.20465.8928.50801.1381.22872.3547.39485.6071.48152z" fill="url(#aj)"/><path d="m18.2104 2.9274c.2309.07946.4381.24077.569.4719.2095.36837.1786.80897-.0476 1.134-.0786.11556-.1214.2528-.1214.39244v.53329c-.084-.05849-.1948-.10185-.2995-.12038l.0352-.72109c-.0048-.34429-.2762-.62839-.619-.64283h-.6285c-.4286 0-.8166-.25281-.9928-.64766-.0453-.11316-.1548-.18779-.2762-.18779h-.5714c-.8285 0-1.4999.67895-1.4999 1.51681l.0138.69009c-.114.01675-.2331.05486-.3233.11835v-.53879c0-.13964-.0428-.27688-.1214-.39244-.2143-.3154-.2523-.73915-.0643-1.09788.131-.24799.3429-.42134.5833-.50561.2572-.09149.4762-.26484.6214-.49838.1857-.29614.5119-.49356.8857-.49356.1452 0 .2833.0313.4118.08426.1714.07464.3643.07464.5357 0 .1262-.05296.2643-.08426.4095-.08426.3785 0 .7095.20465.8928.50801.1381.22872.3547.39485.6071.48152z" fill="url(#ak)"/></g><g filter="url(#l)"><path d="m17.7065 4.57169c-.0786-.0685-.1701-.14107-.3086-.18468-.1366-.04299-.3076-.05454-.5443-.02559-.0682.00835-.1168.07044-.1084.13868.0083.06825.0704.1168.1387.10845.216-.02642.3483-.01269.4392.01594.089.02802.1493.07342.2199.13494.0518.04516.1305.03974.1756-.01211.0452-.05184.0398-.13048-.0121-.17563z" fill="#202020"/></g><g filter="url(#m)"><path d="m14.4999 4.52284c.0405-.02422.0987-.05519.1722-.08409.147-.05779.357-.10798.6084-.07723.0682.00835.1168.07044.1084.13868-.0083.06824-.0704.1168-.1386.10845-.2013-.02463-.3693.01547-.4871.06181-.0589.02316-.1048.04771-.1354.06601-.0153.00913-.0266.01665-.0337.02157l-.0075.00528-.0012.00092c-.0543.04183-.1322.03197-.1743-.02216-.0422-.05427-.0324-.13248.0219-.17469z" fill="#202020"/></g><g filter="url(#n)"><path d="m16.1352 3.38851c-.0105-.02006-.0204-.04054-.0297-.06141-.0453-.11316-.1548-.1878-.2762-.1878h-.5714c-.8285 0-1.4999.67896-1.4999 1.51681v.12352c-.1526-.11615-.3445-.36115-.3445-.75763 0-.48113.3509-.72432.5747-.87945.0632-.04379.1163-.08057.1484-.1137.0137-.01407.0286-.02986.0448-.04703.1569-.16641.4364-.46291.9246-.59249.0772-.0205.1547-.03598.231-.04739.4676-.07.8076.34822.8076.82107v.21946z" fill="#23181c"/><path d="m16.1352 3.38851c-.0105-.02006-.0204-.04054-.0297-.06141-.0453-.11316-.1548-.1878-.2762-.1878h-.5714c-.8285 0-1.4999.67896-1.4999 1.51681v.12352c-.1526-.11615-.3445-.36115-.3445-.75763 0-.48113.3509-.72432.5747-.87945.0632-.04379.1163-.08057.1484-.1137.0137-.01407.0286-.02986.0448-.04703.1569-.16641.4364-.46291.9246-.59249.0772-.0205.1547-.03598.231-.04739.4676-.07.8076.34822.8076.82107v.21946z" fill="url(#al)"/><path d="m16.1352 3.38851c-.0105-.02006-.0204-.04054-.0297-.06141-.0453-.11316-.1548-.1878-.2762-.1878h-.5714c-.8285 0-1.4999.67896-1.4999 1.51681v.12352c-.1526-.11615-.3445-.36115-.3445-.75763 0-.48113.3509-.72432.5747-.87945.0632-.04379.1163-.08057.1484-.1137.0137-.01407.0286-.02986.0448-.04703.1569-.16641.4364-.46291.9246-.59249.0772-.0205.1547-.03598.231-.04739.4676-.07.8076.34822.8076.82107v.21946z" fill="url(#am)"/></g><g filter="url(#o)"><path d="m18.3709 4.85493-.0131-.28333c-.0048-.3427-.288-.62549-.6308-.63987h-.6285c-.399 0-.7629-.21814-.9534-.56544s.3233-.93333.8597-.81246c.3919.08829.8114.22707 1.1323.43636.7831.51077.646 1.43127.2338 1.86474z" fill="#1f151b"/><path d="m18.3709 4.85493-.0131-.28333c-.0048-.3427-.288-.62549-.6308-.63987h-.6285c-.399 0-.7629-.21814-.9534-.56544s.3233-.93333.8597-.81246c.3919.08829.8114.22707 1.1323.43636.7831.51077.646 1.43127.2338 1.86474z" fill="url(#an)"/><path d="m18.3709 4.85493-.0131-.28333c-.0048-.3427-.288-.62549-.6308-.63987h-.6285c-.399 0-.7629-.21814-.9534-.56544s.3233-.93333.8597-.81246c.3919.08829.8114.22707 1.1323.43636.7831.51077.646 1.43127.2338 1.86474z" fill="url(#ao)"/><path d="m18.3709 4.85493-.0131-.28333c-.0048-.3427-.288-.62549-.6308-.63987h-.6285c-.399 0-.7629-.21814-.9534-.56544s.3233-.93333.8597-.81246c.3919.08829.8114.22707 1.1323.43636.7831.51077.646 1.43127.2338 1.86474z" fill="url(#ap)"/></g><path d="m17.1041 5.16187c.2932 0 .5409.20212.6082.47526.0201.0783-.04.15296-.1202.15296h-1.0015c-.0637 0-.1147-.05827-.1019-.122.0564-.28771.3095-.50622.6154-.50622z" fill="#fff"/><path d="m17.0114 5.28394c.2222 0 .4006.18027.4006.4006 0 .03642-.0054.07284-.0145.10562h-.7739c-.0091-.0346-.0146-.0692-.0146-.10562 0-.22033.1803-.4006.4024-.4006z" fill="url(#ar)"/><path d="m16.7821 5.68452c0-.12747.102-.22944.2294-.22944.1275 0 .2295.10197.2295.22944 0 .03824-.0091.07465-.0255.10561h-.4061c-.0182-.03096-.0273-.06737-.0273-.10561z" fill="#000"/><g filter="url(#p)"><path d="m16.9818 5.36861c.0285.03818-.0311.08471-.099.13543-.0678.05072-.1181.08641-.1467.04823-.0285-.03817.0033-.11023.0712-.16095.0678-.05071.1459-.06088.1745-.02271z" fill="#c7a7a3"/><path d="m16.9818 5.36861c.0285.03818-.0311.08471-.099.13543-.0678.05072-.1181.08641-.1467.04823-.0285-.03817.0033-.11023.0712-.16095.0678-.05071.1459-.06088.1745-.02271z" fill="url(#at)"/></g><g filter="url(#q)"><path d="m17.3683 5.63177c-.0148-.10356-.0754-.18162-.1038-.2077l-.1167.12804.0527.10242z" fill="url(#av)"/></g><path d="m14.9577 5.16187c-.2932 0-.5409.20213-.6082.47528-.0201.07831.04.15297.1202.15297h1.0015c.0638 0 .1147-.05827.102-.12201-.0565-.28772-.3114-.50624-.6155-.50624z" fill="#fff"/><path d="m15.0507 5.28394c-.2222 0-.4007.18028-.4007.40062 0 .03642.0055.07284.0146.10562h.7739c.0091-.0346.0146-.0692.0146-.10562-.0018-.22034-.1803-.40062-.4024-.40062z" fill="url(#aw)"/><path d="m15.2801 5.68453c0-.12747-.102-.22945-.2295-.22945s-.2294.10198-.2294.22945c0 .03824.0091.07466.0255.10562h.4061c.0163-.03096.0273-.06738.0273-.10562z" fill="#000"/><g filter="url(#r)"><path d="m15.4166 5.63736c0-.12946-.1052-.21577-.1337-.24185l-.1295.12519.0797.16219z" fill="url(#ax)"/></g><g filter="url(#s)"><ellipse cx="14.9297" cy="5.45508" fill="#c7a7a3" fill-opacity=".9" rx=".174895" ry=".088513" transform="matrix(.88365127 -.46814574 .46814574 .88365127 -.816721 7.623967)"/><ellipse cx="14.9297" cy="5.45508" fill="url(#ay)" rx=".174895" ry=".088513" transform="matrix(.88365127 -.46814574 .46814574 .88365127 -.816721 7.623967)"/></g><path d="m18.2404 6.51113c.0295-.4777.058-.95482.0828-1.43252.3392.05935.597.3553.597.71146 0 .38464-.3007.69906-.6798.72106z" fill="url(#az)"/><path d="m18.2404 6.51113c.0295-.4777.058-.95482.0828-1.43252.3392.05935.597.3553.597.71146 0 .38464-.3007.69906-.6798.72106z" fill="url(#aA)"/><path d="m18.2404 6.51113c.0295-.4777.058-.95482.0828-1.43252.3392.05935.597.3553.597.71146 0 .38464-.3007.69906-.6798.72106z" fill="url(#aB)"/><path d="m18.2404 6.51113c.0295-.4777.058-.95482.0828-1.43252.3392.05935.597.3553.597.71146 0 .38464-.3007.69906-.6798.72106z" fill="url(#aC)"/><path d="m13.7668 5.07471c-.3507.04945-.6248.35106-.6248.71543 0 .38562.3022.70066.6827.72122-.029-.47966-.0486-.95684-.0579-1.43665z" fill="url(#aD)"/><path d="m13.7668 5.07471c-.3507.04945-.6248.35106-.6248.71543 0 .38562.3022.70066.6827.72122-.029-.47966-.0486-.95684-.0579-1.43665z" fill="url(#aE)"/><g filter="url(#t)"><path d="m13.7481 5.37134c-.1915.04294-.3346.21399-.3346.41847 0 .2176.162.39736.372.42514-.0155-.28137-.0287-.56219-.0374-.84361z" fill="url(#aF)"/></g><g filter="url(#u)"><path d="m18.278 6.22206c.0173-.28484.034-.56955.0496-.85438.2115.02639.3752.20684.3752.42553 0 .23553-.1898.42671-.4248.42885z" fill="url(#aG)"/></g><g filter="url(#v)"><path d="m14.5167 4.64837c.1154-.08277.4029-.22835.743-.17117" stroke="#353535" stroke-linecap="round" stroke-width=".1"/></g><g filter="url(#w)"><path d="m17.6295 4.62774c-.1153-.08277-.4029-.22835-.743-.17117" stroke="#353535" stroke-linecap="round" stroke-width=".1"/></g></svg>