<svg fill="none" height="32" viewBox="0 0 32 32" width="32" xmlns="http://www.w3.org/2000/svg" xmlns:xlink="http://www.w3.org/1999/xlink"><filter id="a" color-interpolation-filters="sRGB" filterUnits="userSpaceOnUse" height="12.1826" width="12.1808" x="3.9754" y="3.97583"><feFlood flood-opacity="0" result="BackgroundImageFix"/><feBlend in="SourceGraphic" in2="BackgroundImageFix" mode="normal" result="shape"/><feGaussianBlur result="effect1_foregroundBlur_18_29625" stdDeviation=".75"/></filter><filter id="b" color-interpolation-filters="sRGB" filterUnits="userSpaceOnUse" height="8.79376" width="9.40076" x="8.8125" y="9.125"><feFlood flood-opacity="0" result="BackgroundImageFix"/><feBlend in="SourceGraphic" in2="BackgroundImageFix" mode="normal" result="shape"/><feGaussianBlur result="effect1_foregroundBlur_18_29625" stdDeviation=".5"/></filter><filter id="c" color-interpolation-filters="sRGB" filterUnits="userSpaceOnUse" height="9.53143" width="9.61389" x="15.5725" y="15.5425"><feFlood flood-opacity="0" result="BackgroundImageFix"/><feBlend in="SourceGraphic" in2="BackgroundImageFix" mode="normal" result="shape"/><feGaussianBlur result="effect1_foregroundBlur_18_29625" stdDeviation=".5"/></filter><filter id="d" color-interpolation-filters="sRGB" filterUnits="userSpaceOnUse" height="6.88812" width="13.1251" x="3.62494" y="2.92444"><feFlood flood-opacity="0" result="BackgroundImageFix"/><feBlend in="SourceGraphic" in2="BackgroundImageFix" mode="normal" result="shape"/><feGaussianBlur result="effect1_foregroundBlur_18_29625" stdDeviation="1"/></filter><filter id="e" color-interpolation-filters="sRGB" filterUnits="userSpaceOnUse" height="5.40222" width="5.04352" x="12.4783" y="4.86139"><feFlood flood-opacity="0" result="BackgroundImageFix"/><feBlend in="SourceGraphic" in2="BackgroundImageFix" mode="normal" result="shape"/><feGaussianBlur result="effect1_foregroundBlur_18_29625" stdDeviation=".75"/></filter><linearGradient id="f" gradientUnits="userSpaceOnUse" x1="3" x2="5.375" y1="5.0625" y2="2.6875"><stop offset="0" stop-color="#a96e55"/><stop offset=".5" stop-color="#dba579"/><stop offset=".9944" stop-color="#ffd59e"/></linearGradient><linearGradient id="g" gradientUnits="userSpaceOnUse" x1="3.875" x2="16.25" y1="11.125" y2="6.125"><stop offset=".0157881" stop-color="#4a3e60"/><stop offset=".183384" stop-color="#422b69"/><stop offset=".585431" stop-color="#595295"/></linearGradient><radialGradient id="h" cx="0" cy="0" gradientTransform="matrix(-1.12501618 5.06249256 -5.06151637 -1.12479924 8 17.0625)" gradientUnits="userSpaceOnUse" r="1"><stop offset="0" stop-color="#4c2e6e"/><stop offset="1" stop-color="#503372" stop-opacity="0"/></radialGradient><radialGradient id="i" cx="0" cy="0" gradientTransform="matrix(-10.31253392 3.12493192 -3.12493192 -10.31253392 21.4375 13.125)" gradientUnits="userSpaceOnUse" r="1"><stop offset=".109003" stop-color="#ffceb9"/><stop offset=".618671" stop-color="#dd9490"/><stop offset="1" stop-color="#a06866"/></radialGradient><radialGradient id="j" cx="0" cy="0" gradientTransform="matrix(-2.31251664 7.93749476 -7.93749476 -2.31251664 13.625 23)" gradientUnits="userSpaceOnUse" r="1"><stop offset="0" stop-color="#c56e96"/><stop offset="1" stop-color="#f1a1c4" stop-opacity="0"/></radialGradient><linearGradient id="k" gradientUnits="userSpaceOnUse" x1="20.0625" x2="25.4687" y1="19.6875" y2="25.0937"><stop offset=".00558659" stop-color="#d1ae93"/><stop offset=".219653" stop-color="#dec6b5"/><stop offset=".549133" stop-color="#f5d3c9"/><stop offset=".870901" stop-color="#f9d9cc"/><stop offset="1" stop-color="#e2c4c2"/></linearGradient><radialGradient id="l" cx="0" cy="0" gradientTransform="matrix(1.12499614 3.68749843 -3.68749843 1.12499614 27.9375 18)" gradientUnits="userSpaceOnUse" r="1"><stop offset="0" stop-color="#ffe"/><stop offset=".527145" stop-color="#fceed2"/><stop offset="1" stop-color="#f5e2cd" stop-opacity="0"/></radialGradient><radialGradient id="m" cx="0" cy="0" gradientTransform="matrix(5.93749507 1.74999996 -1.24768939 4.23322847 18.1875 29.875)" gradientUnits="userSpaceOnUse" r="1"><stop offset="0" stop-color="#d998b6"/><stop offset="1" stop-color="#dd9bb2" stop-opacity="0"/></radialGradient><radialGradient id="n" cx="0" cy="0" gradientTransform="matrix(-1.22747242 4.31250324 -2.0553926 -.5850286 23.8125 26.6875)" gradientUnits="userSpaceOnUse" r="1"><stop offset=".278646" stop-color="#d597a2"/><stop offset="1" stop-color="#d798a3" stop-opacity="0"/></radialGradient><radialGradient id="o" cx="0" cy="0" gradientTransform="matrix(-1.63503545 6.43749655 -3.73330584 -.94820826 15.6975 24.25)" gradientUnits="userSpaceOnUse" r="1"><stop offset="0" stop-color="#bc997f"/><stop offset="1" stop-color="#d5af96" stop-opacity="0"/></radialGradient><linearGradient id="p" gradientUnits="userSpaceOnUse" x1="27.3635" x2="25.2379" y1="25.1792" y2="27.3048"><stop offset="0" stop-color="#ffd6a1"/><stop offset=".251098" stop-color="#ffd6a1"/><stop offset=".574021" stop-color="#eaaa86"/><stop offset=".9944" stop-color="#c1706a"/></linearGradient><path d="m28 27.94-25-24.94" stroke="url(#f)" stroke-linecap="round" stroke-linejoin="round" stroke-miterlimit="10" stroke-width="3"/><path d="m3.50999 7.34999 1.89 7.06001c.62 2.33 3.54 3.11 5.24001 1.4l5.17-5.17c1.71-1.71001.92-4.62001-1.4-5.24001l-7.06001-1.89c-2.33-.62-4.46 1.51-3.84 3.84z" fill="url(#g)"/><path d="m3.50999 7.34999 1.89 7.06001c.62 2.33 3.54 3.11 5.24001 1.4l5.17-5.17c1.71-1.71001.92-4.62001-1.4-5.24001l-7.06001-1.89c-2.33-.62-4.46 1.51-3.84 3.84z" fill="url(#h)"/><g filter="url(#a)"><path d="m5.55035 8.19566 1.30178 4.86274c.42704 1.6048 2.43826 2.1421 3.60917.9643l3.561-3.561c1.1778-1.17777.6336-3.1821-.9643-3.60914l-4.86276-1.30178c-1.60484-.42704-3.07193 1.04004-2.64489 2.64488z" fill="#4f3d81"/></g><g filter="url(#b)"><path d="m15.875 10.125c-2.6875 0-6.0625 2.5-6.0625 5.9062 2.1563.9376 4.8125 1.4063 6.0625 0 1.25-1.4062 2.25-3.75 0-5.9062z" fill="#30143d"/></g><path d="m16.78 23.63c3.7831 0 6.85-3.0669 6.85-6.85 0-3.7832-3.0669-6.85001-6.85-6.85001-3.7832 0-6.85001 3.06681-6.85001 6.85001 0 3.7831 3.06681 6.85 6.85001 6.85z" fill="url(#i)"/><path d="m16.78 23.63c3.7831 0 6.85-3.0669 6.85-6.85 0-3.7832-3.0669-6.85001-6.85-6.85001-3.7832 0-6.85001 3.06681-6.85001 6.85001 0 3.7831 3.06681 6.85 6.85001 6.85z" fill="url(#j)"/><g filter="url(#c)"><path d="m16.5725 22.9925 6.45-6.45c1.4775.3013 1.6962 3.3638-.21 5.27-3.0469 3.0469-6.0469 2.5625-6.24 1.18z" fill="#c26454"/></g><path d="m28.4 21.95-6.45 6.45c-1.43 1.43-3.75 1.43-5.18 0s-1.43-3.75 0-5.18l6.45-6.45c1.43-1.43 3.75-1.43 5.18 0s1.43 3.75 0 5.18z" fill="url(#k)"/><path d="m28.4 21.95-6.45 6.45c-1.43 1.43-3.75 1.43-5.18 0s-1.43-3.75 0-5.18l6.45-6.45c1.43-1.43 3.75-1.43 5.18 0s1.43 3.75 0 5.18z" fill="url(#l)"/><path d="m28.4 21.95-6.45 6.45c-1.43 1.43-3.75 1.43-5.18 0s-1.43-3.75 0-5.18l6.45-6.45c1.43-1.43 3.75-1.43 5.18 0s1.43 3.75 0 5.18z" fill="url(#m)"/><path d="m28.4 21.95-6.45 6.45c-1.43 1.43-3.75 1.43-5.18 0s-1.43-3.75 0-5.18l6.45-6.45c1.43-1.43 3.75-1.43 5.18 0s1.43 3.75 0 5.18z" fill="url(#n)"/><path d="m28.4 21.95-6.45 6.45c-1.43 1.43-3.75 1.43-5.18 0s-1.43-3.75 0-5.18l6.45-6.45c1.43-1.43 3.75-1.43 5.18 0s1.43 3.75 0 5.18z" fill="url(#o)"/><path d="m28 27.94-3.4-3.39" stroke="url(#p)" stroke-linecap="round" stroke-linejoin="round" stroke-miterlimit="10" stroke-width="3"/><g filter="url(#d)"><path d="m5.875 5.31248c.04167-.10417.3-.25 1 0s5.375 1.60418 7.625 2.25002" stroke="#8c7fcf" stroke-linecap="round" stroke-width=".5"/></g><g filter="url(#e)"><ellipse cx="15" cy="7.56249" fill="#6e65a3" rx="1" ry="1.21875" transform="matrix(.95422624 -.29908576 .29908576 .95422624 -1.575227 4.83245)"/></g></svg>