<svg fill="none" height="32" viewBox="0 0 32 32" width="32" xmlns="http://www.w3.org/2000/svg" xmlns:xlink="http://www.w3.org/1999/xlink"><filter id="a" color-interpolation-filters="sRGB" filterUnits="userSpaceOnUse" height="28.51" width="28.03" x="1.97449" y="1.99365"><feFlood flood-opacity="0" result="BackgroundImageFix"/><feBlend in="SourceGraphic" in2="BackgroundImageFix" mode="normal" result="shape"/><feColorMatrix in="SourceAlpha" result="hardAlpha" type="matrix" values="0 0 0 0 0 0 0 0 0 0 0 0 0 0 0 0 0 0 127 0"/><feOffset dy=".5"/><feGaussianBlur stdDeviation="2"/><feComposite in2="hardAlpha" k2="-1" k3="1" operator="arithmetic"/><feColorMatrix type="matrix" values="0 0 0 0 0.27451 0 0 0 0 0.588235 0 0 0 0 0.741176 0 0 0 1 0"/><feBlend in2="shape" mode="normal" result="effect1_innerShadow_18_5296"/></filter><filter id="b" color-interpolation-filters="sRGB" filterUnits="userSpaceOnUse" height="14.8646" width="6" x="24.6748" y=".938599"><feFlood flood-opacity="0" result="BackgroundImageFix"/><feBlend in="SourceGraphic" in2="BackgroundImageFix" mode="normal" result="shape"/><feGaussianBlur result="effect1_foregroundBlur_18_5296" stdDeviation="1"/></filter><filter id="c" color-interpolation-filters="sRGB" filterUnits="userSpaceOnUse" height="2.01001" width="2.26587" x="13.9841" y="14.9836"><feFlood flood-opacity="0" result="BackgroundImageFix"/><feBlend in="SourceGraphic" in2="BackgroundImageFix" mode="normal" result="shape"/><feColorMatrix in="SourceAlpha" result="hardAlpha" type="matrix" values="0 0 0 0 0 0 0 0 0 0 0 0 0 0 0 0 0 0 127 0"/><feOffset dx=".25"/><feGaussianBlur stdDeviation=".25"/><feComposite in2="hardAlpha" k2="-1" k3="1" operator="arithmetic"/><feColorMatrix type="matrix" values="0 0 0 0 0.137255 0 0 0 0 0.517647 0 0 0 0 0.333333 0 0 0 1 0"/><feBlend in2="shape" mode="normal" result="effect1_innerShadow_18_5296"/></filter><filter id="d" color-interpolation-filters="sRGB" filterUnits="userSpaceOnUse" height="3.28003" width="3.53406" x="3.36511" y="13.9937"><feFlood flood-opacity="0" result="BackgroundImageFix"/><feBlend in="SourceGraphic" in2="BackgroundImageFix" mode="normal" result="shape"/><feColorMatrix in="SourceAlpha" result="hardAlpha" type="matrix" values="0 0 0 0 0 0 0 0 0 0 0 0 0 0 0 0 0 0 127 0"/><feOffset dx=".25"/><feGaussianBlur stdDeviation=".25"/><feComposite in2="hardAlpha" k2="-1" k3="1" operator="arithmetic"/><feColorMatrix type="matrix" values="0 0 0 0 0.156863 0 0 0 0 0.419608 0 0 0 0 0.329412 0 0 0 1 0"/><feBlend in2="shape" mode="normal" result="effect1_innerShadow_18_5296"/></filter><filter id="e" color-interpolation-filters="sRGB" filterUnits="userSpaceOnUse" height="2.85632" width="3.1051" x="25.5552" y="14.2874"><feFlood flood-opacity="0" result="BackgroundImageFix"/><feBlend in="SourceGraphic" in2="BackgroundImageFix" mode="normal" result="shape"/><feColorMatrix in="SourceAlpha" result="hardAlpha" type="matrix" values="0 0 0 0 0 0 0 0 0 0 0 0 0 0 0 0 0 0 127 0"/><feOffset dx=".25"/><feGaussianBlur stdDeviation=".25"/><feComposite in2="hardAlpha" k2="-1" k3="1" operator="arithmetic"/><feColorMatrix type="matrix" values="0 0 0 0 0.137255 0 0 0 0 0.517647 0 0 0 0 0.333333 0 0 0 1 0"/><feBlend in2="shape" mode="normal" result="effect1_innerShadow_18_5296"/></filter><radialGradient id="f" cx="0" cy="0" gradientTransform="matrix(-6.16672657 6.59498163 -4.88320241 -4.56610431 30.9294 1.41186)" gradientUnits="userSpaceOnUse" r="1"><stop offset="0" stop-color="#60deff"/><stop offset="1" stop-color="#60deff" stop-opacity="0"/></radialGradient><linearGradient id="g" gradientUnits="userSpaceOnUse" x1="27.8745" x2="27.8745" y1="3.23888" y2="11.2187"><stop offset="0" stop-color="#5ddbff"/><stop offset="1" stop-color="#5ddbff" stop-opacity="0"/></linearGradient><radialGradient id="h" cx="0" cy="0" gradientTransform="matrix(-2.28627562 -1.86869759 1.86870392 -2.28628336 10.3101 10.8737)" gradientUnits="userSpaceOnUse" r="1"><stop offset="0" stop-color="#b4b3b5"/><stop offset="1" stop-color="#d6dde2"/></radialGradient><radialGradient id="i" cx="0" cy="0" gradientTransform="matrix(-.72506513 3.17216035 -3.17216035 -.72506513 5.7342 7.37025)" gradientUnits="userSpaceOnUse" r="1"><stop offset="0" stop-color="#acb2b6"/><stop offset="1" stop-color="#acb2b6" stop-opacity="0"/></radialGradient><radialGradient id="j" cx="0" cy="0" gradientTransform="matrix(-4.53169781 6.97873599 -6.99778263 -4.5440659 19.8729 6.57723)" gradientUnits="userSpaceOnUse" r="1"><stop offset="0" stop-color="#fff"/><stop offset="1" stop-color="#fff" stop-opacity="0"/></radialGradient><radialGradient id="k" cx="0" cy="0" gradientTransform="matrix(-2.87799352 1.69296813 -3.18491021 -5.41424895 7.42186 11.3795)" gradientUnits="userSpaceOnUse" r="1"><stop offset="0" stop-color="#ebebeb"/><stop offset="1" stop-color="#e1e0e2" stop-opacity="0"/></radialGradient><radialGradient id="l" cx="0" cy="0" gradientTransform="matrix(-2.43783439 -6.50090731 3.94025225 -1.47759105 11.3495 17.4741)" gradientUnits="userSpaceOnUse" r="1"><stop offset="0" stop-color="#b2a1c5"/><stop offset="1" stop-color="#b2a1c5" stop-opacity="0"/></radialGradient><linearGradient id="m" gradientUnits="userSpaceOnUse" x1="1.39498" x2="4.3407" y1="16.3229" y2="13.0047"><stop offset="0" stop-color="#b6abc0"/><stop offset="1" stop-color="#b6abc0" stop-opacity="0"/></linearGradient><radialGradient id="n" cx="0" cy="0" gradientTransform="matrix(5.75957752 -8.3827445 3.03554799 2.08565035 11.2533 17.4278)" gradientUnits="userSpaceOnUse" r="1"><stop offset="0" stop-color="#a19fa5"/><stop offset="1" stop-color="#a19fa5" stop-opacity="0"/></radialGradient><radialGradient id="o" cx="0" cy="0" gradientTransform="matrix(1.36861234 6.07320961 -1.41115196 .31800648 8.31645 7.76194)" gradientUnits="userSpaceOnUse" r="1"><stop offset="0" stop-color="#b4b4b5"/><stop offset="1" stop-color="#b4b4b5" stop-opacity="0"/></radialGradient><radialGradient id="p" cx="0" cy="0" gradientTransform="matrix(2.22688027 -.47107175 .63815595 3.01673127 28.5313 11.8611)" gradientUnits="userSpaceOnUse" r="1"><stop offset=".186549" stop-color="#eaeff3"/><stop offset="1" stop-color="#fff"/></radialGradient><linearGradient id="q" gradientUnits="userSpaceOnUse" x1="18.6516" x2="18.6516" y1="10.125" y2="20"><stop offset="0" stop-color="#504681"/><stop offset="1" stop-color="#3f3a60"/></linearGradient><radialGradient id="r" cx="0" cy="0" gradientTransform="matrix(-1.58926407 2.27037894 -3.00832685 -2.10582722 19.257 13.0041)" gradientUnits="userSpaceOnUse" r="1"><stop offset="0" stop-color="#50457d"/><stop offset="1" stop-color="#50457d" stop-opacity="0"/></radialGradient><linearGradient id="s" gradientUnits="userSpaceOnUse" x1="12.453" x2="13.1323" y1="18.4718" y2="16.1226"><stop offset="0" stop-color="#21183b"/><stop offset="1" stop-color="#21183b" stop-opacity="0"/></linearGradient><linearGradient id="t" gradientUnits="userSpaceOnUse" x1="12.8923" x2="14.6879" y1="12.1151" y2="13.5409"><stop offset="0" stop-color="#39325b"/><stop offset="1" stop-color="#39325b" stop-opacity="0"/></linearGradient><linearGradient id="u" gradientUnits="userSpaceOnUse" x1="20.3704" x2="25.1445" y1="13.5308" y2="7.99275"><stop offset="0" stop-color="#473862"/><stop offset="1" stop-color="#62568f"/></linearGradient><radialGradient id="v" cx="0" cy="0" gradientTransform="matrix(0 -13.5429 10.8186 0 22.6668 18.4004)" gradientUnits="userSpaceOnUse" r="1"><stop offset=".934506" stop-color="#a49ec8" stop-opacity="0"/><stop offset=".983083" stop-color="#a49ec8"/></radialGradient><linearGradient id="w" gradientUnits="userSpaceOnUse" x1="26.6158" x2="24.3259" y1="5.0927" y2="7.6644"><stop offset=".301892" stop-color="#a7a7d7"/><stop offset="1" stop-color="#a7a7d7" stop-opacity="0"/></linearGradient><radialGradient id="x" cx="0" cy="0" gradientTransform="matrix(-3.80473452 5.3899593 -5.48899981 -3.87464653 7.45137 13.0896)" gradientUnits="userSpaceOnUse" r="1"><stop offset="0" stop-color="#716aa3"/><stop offset="1" stop-color="#423c69"/></radialGradient><radialGradient id="y" cx="0" cy="0" gradientTransform="matrix(-1.19130344 -.77879527 1.64326305 -2.51365796 4.22881 16.513)" gradientUnits="userSpaceOnUse" r="1"><stop offset="0" stop-color="#21233c"/><stop offset="1" stop-color="#21233c" stop-opacity="0"/></radialGradient><radialGradient id="z" cx="0" cy="0" gradientTransform="matrix(-.67742592 2.63954724 -2.38805755 -.61288241 5.3128 11.7676)" gradientUnits="userSpaceOnUse" r="1"><stop offset="0" stop-color="#68667c"/><stop offset="1" stop-color="#68667c" stop-opacity="0"/></radialGradient><linearGradient id="A"><stop offset="0" stop-color="#29b465"/><stop offset="1" stop-color="#4fcf84"/></linearGradient><linearGradient id="B" gradientUnits="userSpaceOnUse" x1="14.5271" x2="15.3925" xlink:href="#A" y1="16.9937" y2="15.5912"/><linearGradient id="C"><stop offset="0" stop-color="#01a13e"/><stop offset="1" stop-color="#01a13e" stop-opacity="0"/></linearGradient><linearGradient id="D" gradientUnits="userSpaceOnUse" x1="14.9921" x2="14.9921" xlink:href="#C" y1="17.136" y2="16.447"/><linearGradient id="E"><stop offset=".122404" stop-color="#5fda8d"/><stop offset="1" stop-color="#5fda8d" stop-opacity="0"/></linearGradient><linearGradient id="F" gradientUnits="userSpaceOnUse" x1="15.7431" x2="15.4005" xlink:href="#E" y1="15.8353" y2="15.9891"/><linearGradient id="G" gradientUnits="userSpaceOnUse" x1="4.24973" x2="5.66294" y1="17.2737" y2="14.9872"><stop offset="0" stop-color="#269b69"/><stop offset="1" stop-color="#58be94"/></linearGradient><linearGradient id="H" gradientUnits="userSpaceOnUse" x1="5.00714" x2="5.00714" y1="17.5059" y2="16.3816"><stop offset="0" stop-color="#01542b"/><stop offset="1" stop-color="#01542b" stop-opacity="0"/></linearGradient><linearGradient id="I" gradientUnits="userSpaceOnUse" x1="6.23073" x2="5.67225" y1="15.3833" y2="15.6337"><stop offset=".122404" stop-color="#65d1a1"/><stop offset="1" stop-color="#65d1a1" stop-opacity="0"/></linearGradient><linearGradient id="J" gradientUnits="userSpaceOnUse" x1="26.3243" x2="27.5558" xlink:href="#A" y1="17.1437" y2="15.1544"/><linearGradient id="K" gradientUnits="userSpaceOnUse" x1="26.9827" x2="26.9827" xlink:href="#C" y1="17.3459" y2="16.3669"/><linearGradient id="L" gradientUnits="userSpaceOnUse" x1="28.0465" x2="27.5607" xlink:href="#E" y1="15.4975" y2="15.7149"/><radialGradient id="M" cx="0" cy="0" gradientTransform="matrix(-.62499831 -7.1250004 22.18451272 -1.94600452 23.4117 23.0625)" gradientUnits="userSpaceOnUse" r="1"><stop offset=".117135" stop-color="#33ce7a"/><stop offset="1" stop-color="#3b9f86"/></radialGradient><linearGradient id="N" gradientUnits="userSpaceOnUse" x1="15.9894" x2="15.9894" y1="16.7969" y2="17.5469"><stop offset="0" stop-color="#45c978"/><stop offset="1" stop-color="#45c978" stop-opacity="0"/></linearGradient><radialGradient id="O" cx="0" cy="0" gradientTransform="matrix(-32.87138449 -6.79178166 7.41906494 -35.90735809 27.8238 25.9712)" gradientUnits="userSpaceOnUse" r="1"><stop offset="0" stop-color="#60dcff"/><stop offset=".889292" stop-color="#3974ff"/></radialGradient><radialGradient id="P" cx="0" cy="0" gradientTransform="matrix(-1.37499741 -13.81253021 38.67733347 -3.85021662 13.7867 33)" gradientUnits="userSpaceOnUse" r="1"><stop offset=".911242" stop-color="#287cd6" stop-opacity="0"/><stop offset="1" stop-color="#287cd6"/></radialGradient><radialGradient id="Q" cx="0" cy="0" gradientTransform="matrix(.32775843 -15.12504917 42.35245713 .91777386 15.6617 34.375)" gradientUnits="userSpaceOnUse" r="1"><stop offset=".911242" stop-color="#51ebff" stop-opacity="0"/><stop offset="1" stop-color="#51ebff"/></radialGradient><g filter="url(#a)"><path d="m26.8445 1.99365h-21.71002c-1.74 0-3.15999 1.41-3.15999 3.16v21.69005c0 1.74 1.40999 3.16 3.15999 3.16h21.71002c1.74 0 3.16-1.41 3.16-3.16v-21.70005c0-1.74-1.42-3.15-3.16-3.15z" fill="#4fd3ff"/></g><path d="m26.8445 1.99365h-21.71002c-1.74 0-3.15999 1.41-3.15999 3.16v21.69005c0 1.74 1.40999 3.16 3.15999 3.16h21.71002c1.74 0 3.16-1.41 3.16-3.16v-21.70005c0-1.74-1.42-3.15-3.16-3.15z" fill="url(#f)"/><g filter="url(#b)"><path d="m27.6748 12.8032v-8.86466" stroke="url(#g)" stroke-linecap="round" stroke-width="2"/></g><path d="m8.78454 13.7537c1.59056 0 2.87996-1.2895 2.87996-2.88 0-1.59063-1.2894-2.88005-2.87996-2.88005-1.59058 0-2.88 1.28942-2.88 2.88005 0 1.5905 1.28942 2.88 2.88 2.88z" fill="url(#h)"/><path d="m8.78454 13.7537c1.59056 0 2.87996-1.2895 2.87996-2.88 0-1.59063-1.2894-2.88005-2.87996-2.88005-1.59058 0-2.88 1.28942-2.88 2.88005 0 1.5905 1.28942 2.88 2.88 2.88z" fill="url(#i)"/><path d="m9.47278 9.54547c.99692-1.92595 3.43692-3.55735 5.54172-3.55735 3.4536-.33988 7.804 3.1495 7.804 7.31558 0 3.29-4.514 5.96-7.804 5.96h-9.03001c-1.71501 0-3.21011-.929-4.01025-2.312v-4.636c.80014-1.383 2.29524-2.312 4.01025-2.312.81554 0 1.58527.2137 2.25259.587.7681.4297.75281-.296 1.2357-1.04523z" fill="#d1d0d2"/><path d="m9.47278 9.54547c.99692-1.92595 3.43692-3.55735 5.54172-3.55735 3.4536-.33988 7.804 3.1495 7.804 7.31558 0 3.29-4.514 5.96-7.804 5.96h-9.03001c-1.71501 0-3.21011-.929-4.01025-2.312v-4.636c.80014-1.383 2.29524-2.312 4.01025-2.312.81554 0 1.58527.2137 2.25259.587.7681.4297.75281-.296 1.2357-1.04523z" fill="url(#j)"/><path d="m9.47278 9.54547c.99692-1.92595 3.43692-3.55735 5.54172-3.55735 3.4536-.33988 7.804 3.1495 7.804 7.31558 0 3.29-4.514 5.96-7.804 5.96h-9.03001c-1.71501 0-3.21011-.929-4.01025-2.312v-4.636c.80014-1.383 2.29524-2.312 4.01025-2.312.81554 0 1.58527.2137 2.25259.587.7681.4297.75281-.296 1.2357-1.04523z" fill="url(#k)"/><path d="m9.47278 9.54547c.99692-1.92595 3.43692-3.55735 5.54172-3.55735 3.4536-.33988 7.804 3.1495 7.804 7.31558 0 3.29-4.514 5.96-7.804 5.96h-9.03001c-1.71501 0-3.21011-.929-4.01025-2.312v-4.636c.80014-1.383 2.29524-2.312 4.01025-2.312.81554 0 1.58527.2137 2.25259.587.7681.4297.75281-.296 1.2357-1.04523z" fill="url(#l)"/><path d="m9.47278 9.54547c.99692-1.92595 3.43692-3.55735 5.54172-3.55735 3.4536-.33988 7.804 3.1495 7.804 7.31558 0 3.29-4.514 5.96-7.804 5.96h-9.03001c-1.71501 0-3.21011-.929-4.01025-2.312v-4.636c.80014-1.383 2.29524-2.312 4.01025-2.312.81554 0 1.58527.2137 2.25259.587.7681.4297.75281-.296 1.2357-1.04523z" fill="url(#m)"/><path d="m9.47278 9.54547c.99692-1.92595 3.43692-3.55735 5.54172-3.55735 3.4536-.33988 7.804 3.1495 7.804 7.31558 0 3.29-4.514 5.96-7.804 5.96h-9.03001c-1.71501 0-3.21011-.929-4.01025-2.312v-4.636c.80014-1.383 2.29524-2.312 4.01025-2.312.81554 0 1.58527.2137 2.25259.587.7681.4297.75281-.296 1.2357-1.04523z" fill="url(#n)"/><path d="m9.47278 9.54547c.99692-1.92595 3.43692-3.55735 5.54172-3.55735 3.4536-.33988 7.804 3.1495 7.804 7.31558 0 3.29-4.514 5.96-7.804 5.96h-9.03001c-1.71501 0-3.21011-.929-4.01025-2.312v-4.636c.80014-1.383 2.29524-2.312 4.01025-2.312.81554 0 1.58527.2137 2.25259.587.7681.4297.75281-.296 1.2357-1.04523z" fill="url(#o)"/><path d="m30.0045 9.05568c-.107-.00778-.2152-.01173-.3243-.01173-2.2782 0-4.125 1.72465-4.125 3.85225 0 2.1275 1.8468 3.8522 4.125 3.8522.1091 0 .2173-.004.3243-.0117z" fill="url(#p)"/><path d="m30.0045 12.2136-6.2-6.20001c-.78-.78-2.06-.78-2.84 0l-2.35 2.35c-.41.4-.96.63-1.53.63h-.12c-.64 0-1.25.29-1.66.78l-4.35 5.22001-5.64001 6.67c-.78.78-.78 2.06 0 2.84l24.64351-7.4841h.0465z" fill="url(#q)"/><path d="m30.0045 12.2136-6.2-6.20001c-.78-.78-2.06-.78-2.84 0l-2.35 2.35c-.41.4-.96.63-1.53.63h-.12c-.64 0-1.25.29-1.66.78l-4.35 5.22001-5.64001 6.67c-.78.78-.78 2.06 0 2.84l24.64351-7.4841h.0465z" fill="url(#r)"/><path d="m30.0045 12.2136-6.2-6.20001c-.78-.78-2.06-.78-2.84 0l-2.35 2.35c-.41.4-.96.63-1.53.63h-.12c-.64 0-1.25.29-1.66.78l-4.35 5.22001-5.64001 6.67c-.78.78-.78 2.06 0 2.84l24.64351-7.4841h.0465z" fill="url(#s)"/><path d="m30.0045 12.2136-6.2-6.20001c-.78-.78-2.06-.78-2.84 0l-2.35 2.35c-.41.4-.96.63-1.53.63h-.12c-.64 0-1.25.29-1.66.78l-4.35 5.22001-5.64001 6.67c-.78.78-.78 2.06 0 2.84l24.64351-7.4841h.0465z" fill="url(#t)"/><path d="m25.4112 18.4004-4.5567-4.5567c-.6-.6-1.42-.94-2.27-.94-.93 0-1.68-.75-1.68-1.68v-2.22926c.02-.00057.04-.00085.06-.00085h.12c.57 0 1.12-.23 1.53-.63l2.35-2.35c.78-.78 2.06-.78 2.84 0l6.2 6.20001v4.8059h-.0465z" fill="url(#u)"/><path d="m25.4112 18.4004-4.5567-4.5567c-.6-.6-1.42-.94-2.27-.94-.93 0-1.68-.75-1.68-1.68v-2.22926c.02-.00057.04-.00085.06-.00085h.12c.57 0 1.12-.23 1.53-.63l2.35-2.35c.78-.78 2.06-.78 2.84 0l6.2 6.20001v4.8059h-.0465z" fill="url(#v)"/><path d="m25.4112 18.4004-4.5567-4.5567c-.6-.6-1.42-.94-2.27-.94-.93 0-1.68-.75-1.68-1.68v-2.22926c.02-.00057.04-.00085.06-.00085h.12c.57 0 1.12-.23 1.53-.63l2.35-2.35c.78-.78 2.06-.78 2.84 0l6.2 6.20001v4.8059h-.0465z" fill="url(#w)"/><path d="m1.97449 17.0077 5.33895 4.0197h8.53466l-8.44374-8.4437c-.78-.78-2.06-.78-2.84 0l-2.35 2.35c-.07546.0736-.15567.1414-.23987.2032z" fill="url(#x)"/><path d="m1.97449 17.0077 5.33895 4.0197h8.53466l-8.44374-8.4437c-.78-.78-2.06-.78-2.84 0l-2.35 2.35c-.07546.0736-.15567.1414-.23987.2032z" fill="url(#y)"/><path d="m1.97449 17.0077 5.33895 4.0197h8.53466l-8.44374-8.4437c-.78-.78-2.06-.78-2.84 0l-2.35 2.35c-.07546.0736-.15567.1414-.23987.2032z" fill="url(#z)"/><g filter="url(#c)"><path d="m14.5945 15.2137-.57 1.19c-.13.27.07.59.37.59h1.19c.31 0 .51-.33.37-.6l-.61-1.19c-.17-.3-.6-.29-.75.01z" fill="url(#B)"/><path d="m14.5945 15.2137-.57 1.19c-.13.27.07.59.37.59h1.19c.31 0 .51-.33.37-.6l-.61-1.19c-.17-.3-.6-.29-.75.01z" fill="url(#D)"/><path d="m14.5945 15.2137-.57 1.19c-.13.27.07.59.37.59h1.19c.31 0 .51-.33.37-.6l-.61-1.19c-.17-.3-.6-.29-.75.01z" fill="url(#F)"/></g><g filter="url(#d)"><path d="m4.36452 14.3737-.93 1.93c-.22.45.11.97.61.97h1.93c.5 0 .83-.53.6-.98l-1-1.93c-.26-.5-.97-.49-1.21.01z" fill="url(#G)"/><path d="m4.36452 14.3737-.93 1.93c-.22.45.11.97.61.97h1.93c.5 0 .83-.53.6-.98l-1-1.93c-.26-.5-.97-.49-1.21.01z" fill="url(#H)"/><path d="m4.36452 14.3737-.93 1.93c-.22.45.11.97.61.97h1.93c.5 0 .83-.53.6-.98l-1-1.93c-.26-.5-.97-.49-1.21.01z" fill="url(#I)"/></g><g filter="url(#e)"><path d="m26.4245 14.6237-.81 1.68c-.19.39.1.84.53.84h1.68c.44 0 .72-.47.52-.86l-.87-1.68c-.23-.43-.84-.42-1.05.02z" fill="url(#J)"/><path d="m26.4245 14.6237-.81 1.68c-.19.39.1.84.53.84h1.68c.44 0 .72-.47.52-.86l-.87-1.68c-.23-.43-.84-.42-1.05.02z" fill="url(#K)"/><path d="m26.4245 14.6237-.81 1.68c-.19.39.1.84.53.84h1.68c.44 0 .72-.47.52-.86l-.87-1.68c-.23-.43-.84-.42-1.05.02z" fill="url(#L)"/></g><path d="m30.0045 16.9937h-28.03026v4.5811h28.03026z" fill="url(#M)"/><path d="m30.0045 16.9937h-28.03026v4.5811h28.03026z" fill="url(#N)"/><path d="m30.0045 21.0902c-4.5671-.7218-9.2497-1.0967-14.0201-1.0967-4.7666.001-9.44583.3756-14.00991 1.0961v5.7541c0 1.74 1.40999 3.16 3.15999 3.16h21.71002c1.74 0 3.16-1.41 3.16-3.16z" fill="url(#O)"/><path d="m30.0045 21.0902c-4.5671-.7218-9.2497-1.0967-14.0201-1.0967-4.7666.001-9.44583.3756-14.00991 1.0961v5.7541c0 1.74 1.40999 3.16 3.15999 3.16h21.71002c1.74 0 3.16-1.41 3.16-3.16z" fill="url(#P)"/><path d="m30.0045 21.0902c-4.5671-.7218-9.2497-1.0967-14.0201-1.0967-4.7666.001-9.44583.3756-14.00991 1.0961v5.7541c0 1.74 1.40999 3.16 3.15999 3.16h21.71002c1.74 0 3.16-1.41 3.16-3.16z" fill="url(#Q)"/></svg>