<svg fill="none" height="32" viewBox="0 0 32 32" width="32" xmlns="http://www.w3.org/2000/svg" xmlns:xlink="http://www.w3.org/1999/xlink"><filter id="a" color-interpolation-filters="sRGB" filterUnits="userSpaceOnUse" height="11.6623" width="8.15279" x="18.112" y="3.33972"><feFlood flood-opacity="0" result="BackgroundImageFix"/><feBlend in="SourceGraphic" in2="BackgroundImageFix" mode="normal" result="shape"/><feColorMatrix in="SourceAlpha" result="hardAlpha" type="matrix" values="0 0 0 0 0 0 0 0 0 0 0 0 0 0 0 0 0 0 127 0"/><feOffset dx=".15" dy=".15"/><feGaussianBlur stdDeviation=".25"/><feComposite in2="hardAlpha" k2="-1" k3="1" operator="arithmetic"/><feColorMatrix type="matrix" values="0 0 0 0 0.239216 0 0 0 0 0.380392 0 0 0 0 0.623529 0 0 0 1 0"/><feBlend in2="shape" mode="normal" result="effect1_innerShadow_18_4353"/></filter><filter id="b" color-interpolation-filters="sRGB" filterUnits="userSpaceOnUse" height="4.92646" width="5.38753" x="20.7824" y="3.3981"><feFlood flood-opacity="0" result="BackgroundImageFix"/><feBlend in="SourceGraphic" in2="BackgroundImageFix" mode="normal" result="shape"/><feGaussianBlur result="effect1_foregroundBlur_18_4353" stdDeviation=".2"/></filter><filter id="c" color-interpolation-filters="sRGB" filterUnits="userSpaceOnUse" height="5.1875" width="19.3125" x="2.60257" y="24.7349"><feFlood flood-opacity="0" result="BackgroundImageFix"/><feBlend in="SourceGraphic" in2="BackgroundImageFix" mode="normal" result="shape"/><feColorMatrix in="SourceAlpha" result="hardAlpha" type="matrix" values="0 0 0 0 0 0 0 0 0 0 0 0 0 0 0 0 0 0 127 0"/><feOffset/><feGaussianBlur stdDeviation=".25"/><feComposite in2="hardAlpha" k2="-1" k3="1" operator="arithmetic"/><feColorMatrix type="matrix" values="0 0 0 0 0.831373 0 0 0 0 0.662745 0 0 0 0 0.423529 0 0 0 1 0"/><feBlend in2="shape" mode="normal" result="effect1_innerShadow_18_4353"/></filter><filter id="d" color-interpolation-filters="sRGB" filterUnits="userSpaceOnUse" height="18.5888" width="22.0446" x="7.93556" y="4.4613"><feFlood flood-opacity="0" result="BackgroundImageFix"/><feBlend in="SourceGraphic" in2="BackgroundImageFix" mode="normal" result="shape"/><feColorMatrix in="SourceAlpha" result="hardAlpha" type="matrix" values="0 0 0 0 0 0 0 0 0 0 0 0 0 0 0 0 0 0 127 0"/><feOffset dy="-.25"/><feGaussianBlur stdDeviation=".25"/><feComposite in2="hardAlpha" k2="-1" k3="1" operator="arithmetic"/><feColorMatrix type="matrix" values="0 0 0 0 0.607843 0 0 0 0 0.419608 0 0 0 0 0.756863 0 0 0 1 0"/><feBlend in2="shape" mode="normal" result="effect1_innerShadow_18_4353"/><feColorMatrix in="SourceAlpha" result="hardAlpha" type="matrix" values="0 0 0 0 0 0 0 0 0 0 0 0 0 0 0 0 0 0 127 0"/><feOffset dy=".15"/><feGaussianBlur stdDeviation=".375"/><feComposite in2="hardAlpha" k2="-1" k3="1" operator="arithmetic"/><feColorMatrix type="matrix" values="0 0 0 0 0.588235 0 0 0 0 0.572549 0 0 0 0 0.588235 0 0 0 1 0"/><feBlend in2="effect1_innerShadow_18_4353" mode="normal" result="effect2_innerShadow_18_4353"/></filter><filter id="e" color-interpolation-filters="sRGB" filterUnits="userSpaceOnUse" height="5.1875" width="19.3125" x="2.60257" y="6.35986"><feFlood flood-opacity="0" result="BackgroundImageFix"/><feBlend in="SourceGraphic" in2="BackgroundImageFix" mode="normal" result="shape"/><feColorMatrix in="SourceAlpha" result="hardAlpha" type="matrix" values="0 0 0 0 0 0 0 0 0 0 0 0 0 0 0 0 0 0 127 0"/><feOffset/><feGaussianBlur stdDeviation=".25"/><feComposite in2="hardAlpha" k2="-1" k3="1" operator="arithmetic"/><feColorMatrix type="matrix" values="0 0 0 0 0.831373 0 0 0 0 0.662745 0 0 0 0 0.423529 0 0 0 1 0"/><feBlend in2="shape" mode="normal" result="effect1_innerShadow_18_4353"/></filter><filter id="f" color-interpolation-filters="sRGB" filterUnits="userSpaceOnUse" height="4.92139" width="14.5098" x="7.72696" y="5.67993"><feFlood flood-opacity="0" result="BackgroundImageFix"/><feBlend in="SourceGraphic" in2="BackgroundImageFix" mode="normal" result="shape"/><feGaussianBlur result="effect1_foregroundBlur_18_4353" stdDeviation=".625"/></filter><filter id="g" color-interpolation-filters="sRGB" filterUnits="userSpaceOnUse" height="4.92139" width="14.5098" x="7.72696" y="24.0623"><feFlood flood-opacity="0" result="BackgroundImageFix"/><feBlend in="SourceGraphic" in2="BackgroundImageFix" mode="normal" result="shape"/><feGaussianBlur result="effect1_foregroundBlur_18_4353" stdDeviation=".625"/></filter><filter id="h" color-interpolation-filters="sRGB" filterUnits="userSpaceOnUse" height="4.45508" width="4.4551" x="25.822" y="4.58594"><feFlood flood-opacity="0" result="BackgroundImageFix"/><feBlend in="SourceGraphic" in2="BackgroundImageFix" mode="normal" result="shape"/><feGaussianBlur result="effect1_foregroundBlur_18_4353" stdDeviation=".25"/></filter><linearGradient id="i" gradientUnits="userSpaceOnUse" x1="25.3213" x2="20.6963" y1="5.04727" y2="14.9223"><stop offset="0" stop-color="#3c7ce1"/><stop offset="1" stop-color="#3464c6"/></linearGradient><linearGradient id="j" gradientUnits="userSpaceOnUse" x1="25.4151" x2="20.5401" y1="7.64111" y2="3.92236"><stop offset="0" stop-color="#619ffa"/><stop offset="1" stop-color="#619ffa" stop-opacity="0"/></linearGradient><radialGradient id="k" cx="0" cy="0" gradientTransform="matrix(0 18.8726 -8.9457 0 15.0064 10.9199)" gradientUnits="userSpaceOnUse" r="1"><stop offset=".318043" stop-color="#45b3ff"/><stop offset="1" stop-color="#3079d4"/></radialGradient><linearGradient id="l" gradientUnits="userSpaceOnUse" x1="12.2588" x2="12.2588" y1="11.4681" y2="11.9059"><stop offset="0" stop-color="#535fae"/><stop offset="1" stop-color="#535fae" stop-opacity="0"/></linearGradient><radialGradient id="m" cx="0" cy="0" gradientTransform="matrix(0 .734375 -6.21875 0 13.7276 19.5161)" gradientUnits="userSpaceOnUse" r="1"><stop offset=".659575" stop-color="#193ebb"/><stop offset="1" stop-color="#193ebb" stop-opacity="0"/></radialGradient><radialGradient id="n" cx="0" cy="0" gradientTransform="matrix(-10.25008164 11.49999354 -10.47145143 -9.33332978 16.7588 13.5474)" gradientUnits="userSpaceOnUse" r="1"><stop offset=".749927" stop-color="#2e5eae" stop-opacity="0"/><stop offset="1" stop-color="#2e5eae"/></radialGradient><radialGradient id="o" cx="0" cy="0" gradientTransform="matrix(-.84374615 .68750524 -.57641653 -.70741166 8.13382 22.2661)" gradientUnits="userSpaceOnUse" r="1"><stop offset=".359028" stop-color="#2c5ab2"/><stop offset="1" stop-color="#2c5ab2" stop-opacity="0"/></radialGradient><radialGradient id="p" cx="0" cy="0" gradientTransform="matrix(0 3.75 -5.72222 0 14.9463 20.7349)" gradientUnits="userSpaceOnUse" r="1"><stop offset="0" stop-color="#347ae9"/><stop offset="1" stop-color="#2c569f"/></radialGradient><linearGradient id="q"><stop offset="0" stop-color="#d28241"/><stop offset="1" stop-color="#e7af70"/></linearGradient><linearGradient id="r" gradientUnits="userSpaceOnUse" x1="7.13382" x2="21.9151" xlink:href="#q" y1="28.7974" y2="28.7974"/><linearGradient id="s"><stop offset="0" stop-color="#c1675c"/><stop offset="1" stop-color="#c1675c" stop-opacity="0"/></linearGradient><radialGradient id="t" cx="0" cy="0" gradientTransform="matrix(0 -2.59375 14.0625 0 12.2588 29.9224)" gradientUnits="userSpaceOnUse" r="1" xlink:href="#s"/><linearGradient id="u"><stop offset=".819926" stop-color="#a65841" stop-opacity="0"/><stop offset="1" stop-color="#a65841"/></linearGradient><radialGradient id="v" cx="0" cy="0" gradientTransform="matrix(-13.5397 0 0 -4.56879 15.2979 27.3286)" gradientUnits="userSpaceOnUse" r="1" xlink:href="#u"/><linearGradient id="w" gradientUnits="userSpaceOnUse" x1="12.2588" x2="12.2588" y1="30.5625" y2="28.4375"><stop offset="0" stop-color="#c3517c"/><stop offset="1" stop-color="#c3517c" stop-opacity="0"/></linearGradient><linearGradient id="x"><stop offset=".408333" stop-color="#347ae9"/><stop offset="1" stop-color="#2c569f"/></linearGradient><radialGradient id="y" cx="0" cy="0" gradientTransform="matrix(0 3.75 -6.0625 0 14.9463 13.1411)" gradientUnits="userSpaceOnUse" r="1" xlink:href="#x"/><linearGradient id="z"><stop offset="0" stop-color="#2658a2"/><stop offset="1" stop-color="#2658a2" stop-opacity="0"/></linearGradient><radialGradient id="A" cx="0" cy="0" gradientTransform="matrix(-2.21875609 1.68748694 -.33741264 -.44363979 18.6963 13.7036)" gradientUnits="userSpaceOnUse" r="1" xlink:href="#z"/><radialGradient id="B" cx="0" cy="0" gradientTransform="matrix(0 3.75 -6.0625 0 14.9463 15.6724)" gradientUnits="userSpaceOnUse" r="1" xlink:href="#x"/><radialGradient id="C" cx="0" cy="0" gradientTransform="matrix(-1.60938491 1.24998732 -.24509637 -.31556672 15.0244 16.3911)" gradientUnits="userSpaceOnUse" r="1" xlink:href="#z"/><radialGradient id="D" cx="0" cy="0" gradientTransform="matrix(-1.3437449 .15626094 -.04789592 -.4118745 12.5781 19.7344)" gradientUnits="userSpaceOnUse" r="1"><stop offset="0" stop-color="#9d72bd"/><stop offset="1" stop-color="#9d72bd" stop-opacity="0"/></radialGradient><radialGradient id="E" cx="0" cy="0" gradientTransform="matrix(0 3.75 -6.0625 0 14.9463 18.2036)" gradientUnits="userSpaceOnUse" r="1" xlink:href="#x"/><linearGradient id="F" gradientUnits="userSpaceOnUse" x1="7.13382" x2="21.9151" xlink:href="#q" y1="10.4224" y2="10.4224"/><radialGradient id="G" cx="0" cy="0" gradientTransform="matrix(0 -2.59375 14.0625 0 12.2588 11.5474)" gradientUnits="userSpaceOnUse" r="1" xlink:href="#s"/><radialGradient id="H" cx="0" cy="0" gradientTransform="matrix(-13.5397 0 0 -4.56879 15.2979 8.95361)" gradientUnits="userSpaceOnUse" r="1" xlink:href="#u"/><radialGradient id="I" cx="0" cy="0" gradientTransform="matrix(5.34311107 11.22545148 -16.92603266 8.0564842 14.3201 1.16502)" gradientUnits="userSpaceOnUse" r="1"><stop offset=".850984" stop-color="#b17273" stop-opacity="0"/><stop offset=".956593" stop-color="#b17273"/></radialGradient><linearGradient id="J"><stop offset="0" stop-color="#ffd88c"/><stop offset="1" stop-color="#ffd88c" stop-opacity="0"/></linearGradient><radialGradient id="K" cx="0" cy="0" gradientTransform="matrix(-11.3693 0 0 -1.92656 20.3462 8.14063)" gradientUnits="userSpaceOnUse" r="1" xlink:href="#J"/><radialGradient id="L" cx="0" cy="0" gradientTransform="matrix(-11.3693 0 0 -1.92656 20.3462 26.523)" gradientUnits="userSpaceOnUse" r="1" xlink:href="#J"/><linearGradient id="M" gradientUnits="userSpaceOnUse" x1="29.2778" x2="26.4651" y1="5.72756" y2="7.86378"><stop offset="0" stop-color="#e6e2ec"/><stop offset=".311563" stop-color="#e6e2ec" stop-opacity="0"/><stop offset=".763693" stop-color="#e6e2ec" stop-opacity="0"/><stop offset="1" stop-color="#e6e2ec"/></linearGradient><g filter="url(#a)"><path d="m20.1273 3.94483c2.7784-.12226 5.168 1.98742 5.3733 4.77958.2091 2.84379-1.9268 5.31859-4.7705 5.52769h-2.0181" stroke="url(#i)" stroke-linecap="round" stroke-width="1.2"/></g><g filter="url(#b)"><path d="m21.1963 3.92236c1.0209.11459 3.6563 1.09375 4.4531 3.96875" stroke="url(#j)" stroke-width=".25"/></g><path d="m5.23038 10.6724h14.0569v15.4375h-14.0569z" fill="url(#k)"/><path d="m5.23038 10.6724h14.0569v15.4375h-14.0569z" fill="url(#l)"/><path d="m5.23038 10.6724h14.0569v15.4375h-14.0569z" fill="url(#m)"/><path d="m5.23038 10.6724h14.0569v15.4375h-14.0569z" fill="url(#n)"/><path d="m5.23038 10.6724h14.0569v15.4375h-14.0569z" fill="url(#o)"/><path d="m5.23038 22.3911v-1.2812h14.05692v1.2812z" fill="url(#p)"/><g filter="url(#c)"><rect fill="url(#r)" height="5.1875" rx="2.59375" width="19.3125" x="2.60257" y="24.7349"/><rect fill="url(#t)" height="5.1875" rx="2.59375" width="19.3125" x="2.60257" y="24.7349"/><rect fill="url(#v)" height="5.1875" rx="2.59375" width="19.3125" x="2.60257" y="24.7349"/></g><rect fill="url(#w)" height="5.1875" rx="2.59375" width="19.3125" x="2.60257" y="24.7349"/><path d="m5.23038 14.7974v-1.2813h14.05692v1.2813z" fill="url(#y)"/><path d="m5.23038 14.7974v-1.2813h14.05692v1.2813z" fill="url(#A)"/><path d="m5.23038 17.3286v-1.2812h14.05692v1.2812z" fill="url(#B)"/><path d="m5.23038 17.3286v-1.2812h14.05692v1.2812z" fill="url(#C)"/><g clip-rule="evenodd" fill-rule="evenodd" filter="url(#d)"><path d="m29.9801 6.98085c-.011 1.24259-1.0069 2.24118-2.2245 2.2304-.3249-.00287-.6327-.07735-.9093-.20858-.0719-.03415-.1575-.02827-.2205.02043l-17.8061 13.757c-.23377.1839-.56556.1545-.75671-.0745-.19179-.2217-.1626-.5627.05737-.7552l17.19874-14.16966c.0138-.0126.1204-.1044.2068-.1774.0657-.05551.0965-.14741.0813-.23205-.025-.13914-.0375-.28271-.0362-.42945.0109-1.2426 1.0069-2.24118 2.2244-2.23041 1.2176.01077 2.1957 1.02682 2.1847 2.26942zm-1.4697-.01301c-.0037.4142-.3357.74706-.7415.74347-.4059-.00359-.7319-.34227-.7282-.75647.0036-.4142.3356-.74706.7415-.74347.4058.00359.7318.34227.7282.75647z" fill="#c7b7d8"/><path d="m29.9801 6.98085c-.011 1.24259-1.0069 2.24118-2.2245 2.2304-.3249-.00287-.6327-.07735-.9093-.20858-.0719-.03415-.1575-.02827-.2205.02043l-17.8061 13.757c-.23377.1839-.56556.1545-.75671-.0745-.19179-.2217-.1626-.5627.05737-.7552l17.19874-14.16966c.0138-.0126.1204-.1044.2068-.1774.0657-.05551.0965-.14741.0813-.23205-.025-.13914-.0375-.28271-.0362-.42945.0109-1.2426 1.0069-2.24118 2.2244-2.23041 1.2176.01077 2.1957 1.02682 2.1847 2.26942zm-1.4697-.01301c-.0037.4142-.3357.74706-.7415.74347-.4059-.00359-.7319-.34227-.7282-.75647.0036-.4142.3356-.74706.7415-.74347.4058.00359.7318.34227.7282.75647z" fill="url(#D)"/></g><path d="m5.23038 19.8599v-1.2813h14.05692v1.2813z" fill="url(#E)"/><g filter="url(#e)"><rect fill="url(#F)" height="5.1875" rx="2.59375" width="19.3125" x="2.60257" y="6.35986"/><rect fill="url(#G)" height="5.1875" rx="2.59375" width="19.3125" x="2.60257" y="6.35986"/><rect fill="url(#H)" height="5.1875" rx="2.59375" width="19.3125" x="2.60257" y="6.35986"/><rect fill="url(#I)" height="5.1875" rx="2.59375" width="19.3125" x="2.60257" y="6.35986"/></g><g filter="url(#f)"><ellipse cx="14.9819" cy="8.14063" fill="url(#K)" rx="6.0049" ry="1.2107"/></g><g filter="url(#g)"><ellipse cx="14.9819" cy="26.523" fill="url(#L)" rx="6.0049" ry="1.2107"/></g><g filter="url(#h)"><circle cx="28.0495" cy="6.81349" r="1.47755" stroke="url(#M)" stroke-width=".5"/></g></svg>