<svg enable-background="new 0 0 128 128" viewBox="0 0 32 32" xmlns="http://www.w3.org/2000/svg"><path d="m7.01735 7.29022c1.29617 0 1.6858.7098 1.6858.7098l.09375-1.82812c.07813-.9598 1.20091-1.91293 2.2512-1.91293 1.4363 0 1.9832 1.03793 1.9832 1.03793-.0938-2.20313.7023-3.30355 2.6799-3.30355 1.6013.10042 2.259 1.62386 2.1326 3.30355 0 0 .6719-1.3125 2.5305-1.1473 1.0462.09299 1.8914 1.1473 1.8914 2.91292l-.1875 7.68748s1.1904-1.723 2.0781-2.2344c.8876-.5113 2.3539-.4795 3.0782.2902.8517.9049 1.0064 2.323.3953 3.1875-2.286 2.9442-4.4735 6.2255-5.1454 7.5848-1.7925 3.6267-4.5312 6.4286-8.1958 6.4286-4.44482 0-8.55267-3.2567-9.03857-9.1942-.48591-5.9375-.54841-10.8035-.54841-10.8035-.07903-1.0469.74293-2.71878 2.31573-2.71878z" fill="#c68d7b"/><g fill="#a9715f"><path d="m13.952 4.49866.5312 7.77374c.0188.2755-.1893.5141-.4648.5329-.2755.0189-.5141-.1892-.5329-.4647l-.4848-7.09508c.0207.03257.0306.05138.0306.05138-.0884-2.07854.6151-3.17557 2.3557-3.29299l-.0001.01173c-.4766-.00357-.834.2209-1.0839.63528-.2616.43378-.401 1.08063-.351 1.84774z"/><path d="m17.8438 5.29689c.0066-.08727.011-.17412.0134-.26037-.16.47771-.2444 1.00941-.2632 1.55572l-.0001.00698-.125 6.14058c-.0057.2761.2136.5045.4897.5101s.5044-.2136.51-.4897l.125-6.13707c.0269-.77185.2038-1.42066.4892-1.859.2372-.36442.5429-.58014.932-.62866-1.5866.01974-2.171 1.16142-2.171 1.16142z"/><path d="m10.0356 17.6238c1.1631-.0831 2.9563-.1916 4.7701-.1076 1.2323.057 2.4376.2019 3.4502.4858-.5103.171-1.1247.4039-1.7941.7135-1.82.8419-4.0741 2.2636-5.7352 4.5762-.1611.2242-.1099.5367.1144.6978s.5367.1098.6978-.1144c1.5263-2.125 3.616-3.4532 5.3429-4.252.8612-.3983 1.6253-.6618 2.1725-.8253.2733-.0817.4919-.1382.6405-.174.0743-.0179.1311-.0306.1685-.0387l.0412-.0087.0092-.0018.0014-.0003c.2067-.0401.3665-.2054.3991-.4134.0327-.2082-.0686-.4144-.2533-.5158-1.3816-.7586-3.3523-1.0419-5.2088-1.1279-1.8755-.0868-3.7173.0255-4.88762.1091-.27544.0197-.48278.2589-.46311.5344.01967.2754.25891.4827.53433.4631z"/><path d="m8.7041 7.97991.09272-1.80801c.07736-.95041 1.17903-1.89427 2.22038-1.91265-.4497.07264-.7495.2041-.9524.35531-.1987.1481-.32883.33301-.41381.55698-.18128.47778-.15566 1.11887-.06143 1.88981l.86544 6.43455c.0368.2737-.1552.5254-.4289.5622-.27368.0368-.52537-.1552-.56218-.4289z"/></g></svg>