<svg fill="none" height="32" viewBox="0 0 32 32" width="32" xmlns="http://www.w3.org/2000/svg" xmlns:xlink="http://www.w3.org/1999/xlink"><filter id="a" color-interpolation-filters="sRGB" filterUnits="userSpaceOnUse" height="17.5969" width="17.0969" x="7.5976" y="3.76172"><feFlood flood-opacity="0" result="BackgroundImageFix"/><feBlend in="SourceGraphic" in2="BackgroundImageFix" mode="normal" result="shape"/><feColorMatrix in="SourceAlpha" result="hardAlpha" type="matrix" values="0 0 0 0 0 0 0 0 0 0 0 0 0 0 0 0 0 0 127 0"/><feOffset dx=".25" dy="-.75"/><feGaussianBlur stdDeviation=".75"/><feComposite in2="hardAlpha" k2="-1" k3="1" operator="arithmetic"/><feColorMatrix type="matrix" values="0 0 0 0 0.121569 0 0 0 0 0.0705882 0 0 0 0 0.164706 0 0 0 1 0"/><feBlend in2="shape" mode="normal" result="effect1_innerShadow_4002_2949"/></filter><filter id="b" color-interpolation-filters="sRGB" filterUnits="userSpaceOnUse" height="3.61011" width="3.76005" x="8.69745" y="12.2734"><feFlood flood-opacity="0" result="BackgroundImageFix"/><feBlend in="SourceGraphic" in2="BackgroundImageFix" mode="normal" result="shape"/><feColorMatrix in="SourceAlpha" result="hardAlpha" type="matrix" values="0 0 0 0 0 0 0 0 0 0 0 0 0 0 0 0 0 0 127 0"/><feOffset dx=".15"/><feGaussianBlur stdDeviation=".25"/><feComposite in2="hardAlpha" k2="-1" k3="1" operator="arithmetic"/><feColorMatrix type="matrix" values="0 0 0 0 0.337255 0 0 0 0 0.266667 0 0 0 0 0.25098 0 0 0 1 0"/><feBlend in2="shape" mode="normal" result="effect1_innerShadow_4002_2949"/></filter><filter id="c" color-interpolation-filters="sRGB" filterUnits="userSpaceOnUse" height="3.86011" width="3.61005" x="19.7783" y="12.0234"><feFlood flood-opacity="0" result="BackgroundImageFix"/><feBlend in="SourceGraphic" in2="BackgroundImageFix" mode="normal" result="shape"/><feColorMatrix in="SourceAlpha" result="hardAlpha" type="matrix" values="0 0 0 0 0 0 0 0 0 0 0 0 0 0 0 0 0 0 127 0"/><feOffset dy="-.25"/><feGaussianBlur stdDeviation=".25"/><feComposite in2="hardAlpha" k2="-1" k3="1" operator="arithmetic"/><feColorMatrix type="matrix" values="0 0 0 0 0.184314 0 0 0 0 0.0901961 0 0 0 0 0.117647 0 0 0 1 0"/><feBlend in2="shape" mode="normal" result="effect1_innerShadow_4002_2949"/></filter><filter id="d" color-interpolation-filters="sRGB" filterUnits="userSpaceOnUse" height="3.40979" width="3.40982" x="19.8784" y="12.3735"><feFlood flood-opacity="0" result="BackgroundImageFix"/><feBlend in="SourceGraphic" in2="BackgroundImageFix" mode="normal" result="shape"/><feGaussianBlur result="effect1_foregroundBlur_4002_2949" stdDeviation=".25"/></filter><filter id="e" color-interpolation-filters="sRGB" filterUnits="userSpaceOnUse" height="2.90979" width="2.90982" x="9.06903" y="12.6235"><feFlood flood-opacity="0" result="BackgroundImageFix"/><feBlend in="SourceGraphic" in2="BackgroundImageFix" mode="normal" result="shape"/><feGaussianBlur result="effect1_foregroundBlur_4002_2949" stdDeviation=".125"/></filter><filter id="f" color-interpolation-filters="sRGB" filterUnits="userSpaceOnUse" height="12.4513" width="11.4319" x="10.3052" y="8.57373"><feFlood flood-opacity="0" result="BackgroundImageFix"/><feBlend in="SourceGraphic" in2="BackgroundImageFix" mode="normal" result="shape"/><feColorMatrix in="SourceAlpha" result="hardAlpha" type="matrix" values="0 0 0 0 0 0 0 0 0 0 0 0 0 0 0 0 0 0 127 0"/><feOffset dy=".25"/><feGaussianBlur stdDeviation=".15"/><feComposite in2="hardAlpha" k2="-1" k3="1" operator="arithmetic"/><feColorMatrix type="matrix" values="0 0 0 0 0.14902 0 0 0 0 0.0901961 0 0 0 0 0.0941176 0 0 0 1 0"/><feBlend in2="shape" mode="normal" result="effect1_innerShadow_4002_2949"/></filter><filter id="g" color-interpolation-filters="sRGB" filterUnits="userSpaceOnUse" height="4.00842" width="3.10587" x="14.2859" y="13.0117"><feFlood flood-opacity="0" result="BackgroundImageFix"/><feBlend in="SourceGraphic" in2="BackgroundImageFix" mode="normal" result="shape"/><feGaussianBlur result="effect1_foregroundBlur_4002_2949" stdDeviation=".25"/></filter><filter id="h" color-interpolation-filters="sRGB" filterUnits="userSpaceOnUse" height="3.50842" width="2.60587" x="14.7181" y="13.1064"><feFlood flood-opacity="0" result="BackgroundImageFix"/><feBlend in="SourceGraphic" in2="BackgroundImageFix" mode="normal" result="shape"/><feGaussianBlur result="effect1_foregroundBlur_4002_2949" stdDeviation=".125"/></filter><filter id="i" color-interpolation-filters="sRGB" filterUnits="userSpaceOnUse" height="1.66301" width="4.10445" x="13.9688" y="16.7369"><feFlood flood-opacity="0" result="BackgroundImageFix"/><feBlend in="SourceGraphic" in2="BackgroundImageFix" mode="normal" result="shape"/><feGaussianBlur result="effect1_foregroundBlur_4002_2949" stdDeviation=".05"/></filter><filter id="j" color-interpolation-filters="sRGB" filterUnits="userSpaceOnUse" height="1.44202" width="3.34252" x="17.1022" y="12.5024"><feFlood flood-opacity="0" result="BackgroundImageFix"/><feBlend in="SourceGraphic" in2="BackgroundImageFix" mode="normal" result="shape"/><feColorMatrix in="SourceAlpha" result="hardAlpha" type="matrix" values="0 0 0 0 0 0 0 0 0 0 0 0 0 0 0 0 0 0 127 0"/><feOffset dx="-.2"/><feGaussianBlur stdDeviation=".2"/><feComposite in2="hardAlpha" k2="-1" k3="1" operator="arithmetic"/><feColorMatrix type="matrix" values="0 0 0 0 0.0941176 0 0 0 0 0.0666667 0 0 0 0 0.117647 0 0 0 1 0"/><feBlend in2="shape" mode="normal" result="effect1_innerShadow_4002_2949"/></filter><filter id="k" color-interpolation-filters="sRGB" filterUnits="userSpaceOnUse" height="1.44202" width="3.34252" x="11.5976" y="12.5024"><feFlood flood-opacity="0" result="BackgroundImageFix"/><feBlend in="SourceGraphic" in2="BackgroundImageFix" mode="normal" result="shape"/><feColorMatrix in="SourceAlpha" result="hardAlpha" type="matrix" values="0 0 0 0 0 0 0 0 0 0 0 0 0 0 0 0 0 0 127 0"/><feOffset dx=".2"/><feGaussianBlur stdDeviation=".125"/><feComposite in2="hardAlpha" k2="-1" k3="1" operator="arithmetic"/><feColorMatrix type="matrix" values="0 0 0 0 0.0862745 0 0 0 0 0.054902 0 0 0 0 0.113725 0 0 0 1 0"/><feBlend in2="shape" mode="normal" result="effect1_innerShadow_4002_2949"/></filter><filter id="l" color-interpolation-filters="sRGB" filterUnits="userSpaceOnUse" height=".756763" width=".858295" x="17.6574" y="12.9271"><feFlood flood-opacity="0" result="BackgroundImageFix"/><feBlend in="SourceGraphic" in2="BackgroundImageFix" mode="normal" result="shape"/><feGaussianBlur result="effect1_foregroundBlur_4002_2949" stdDeviation=".05"/></filter><filter id="m" color-interpolation-filters="sRGB" filterUnits="userSpaceOnUse" height=".975928" width=".951056" x="18.6117" y="13.0236"><feFlood flood-opacity="0" result="BackgroundImageFix"/><feBlend in="SourceGraphic" in2="BackgroundImageFix" mode="normal" result="shape"/><feGaussianBlur result="effect1_foregroundBlur_4002_2949" stdDeviation=".1"/></filter><filter id="n" color-interpolation-filters="sRGB" filterUnits="userSpaceOnUse" height="1.11814" width="1.05771" x="13.6278" y="12.9523"><feFlood flood-opacity="0" result="BackgroundImageFix"/><feBlend in="SourceGraphic" in2="BackgroundImageFix" mode="normal" result="shape"/><feGaussianBlur result="effect1_foregroundBlur_4002_2949" stdDeviation=".1"/></filter><filter id="o" color-interpolation-filters="sRGB" filterUnits="userSpaceOnUse" height=".765918" width=".999866" x="12.769" y="12.9179"><feFlood flood-opacity="0" result="BackgroundImageFix"/><feBlend in="SourceGraphic" in2="BackgroundImageFix" mode="normal" result="shape"/><feGaussianBlur result="effect1_foregroundBlur_4002_2949" stdDeviation=".05"/></filter><filter id="p" color-interpolation-filters="sRGB" filterUnits="userSpaceOnUse" height="8.42798" width="5.79063" x="12.9148" y="2.07031"><feFlood flood-opacity="0" result="BackgroundImageFix"/><feBlend in="SourceGraphic" in2="BackgroundImageFix" mode="normal" result="shape"/><feColorMatrix in="SourceAlpha" result="hardAlpha" type="matrix" values="0 0 0 0 0 0 0 0 0 0 0 0 0 0 0 0 0 0 127 0"/><feOffset dx=".2"/><feGaussianBlur stdDeviation=".3"/><feComposite in2="hardAlpha" k2="-1" k3="1" operator="arithmetic"/><feColorMatrix type="matrix" values="0 0 0 0 0.768627 0 0 0 0 0.658824 0 0 0 0 0.321569 0 0 0 1 0"/><feBlend in2="shape" mode="normal" result="effect1_innerShadow_4002_2949"/><feColorMatrix in="SourceAlpha" result="hardAlpha" type="matrix" values="0 0 0 0 0 0 0 0 0 0 0 0 0 0 0 0 0 0 127 0"/><feOffset dx="-.2"/><feGaussianBlur stdDeviation=".3"/><feComposite in2="hardAlpha" k2="-1" k3="1" operator="arithmetic"/><feColorMatrix type="matrix" values="0 0 0 0 1 0 0 0 0 0.92549 0 0 0 0 0.372549 0 0 0 1 0"/><feBlend in2="effect1_innerShadow_4002_2949" mode="normal" result="effect2_innerShadow_4002_2949"/></filter><filter id="q" color-interpolation-filters="sRGB" filterUnits="userSpaceOnUse" height="2.52783" width="7.65393" x="15.502" y="9.59229"><feFlood flood-opacity="0" result="BackgroundImageFix"/><feBlend in="SourceGraphic" in2="BackgroundImageFix" mode="normal" result="shape"/><feGaussianBlur result="effect1_foregroundBlur_4002_2949" stdDeviation=".5"/></filter><linearGradient id="r" gradientUnits="userSpaceOnUse" x1="21.2858" x2="13.6521" y1="6.27916" y2="20.4185"><stop offset="0" stop-color="#393134"/><stop offset="1" stop-color="#1a1718"/></linearGradient><radialGradient id="s" cx="0" cy="0" gradientTransform="matrix(-.67688207 5.11425107 -6.38873689 -.845563 15.6827 16.8837)" gradientUnits="userSpaceOnUse" r="1"><stop offset=".590551" stop-color="#171418"/><stop offset="1" stop-color="#171418" stop-opacity="0"/></radialGradient><radialGradient id="t" cx="0" cy="0" gradientTransform="matrix(-3.23408691 2.18109068 -2.86578506 -4.24934096 12.5239 17.1845)" gradientUnits="userSpaceOnUse" r="1"><stop offset=".258378" stop-color="#181518"/><stop offset="1" stop-color="#181518" stop-opacity="0"/></radialGradient><radialGradient id="u" cx="0" cy="0" gradientTransform="matrix(-1.46657308 1.91785108 -1.47264317 -1.12612436 10.5873 14.3266)" gradientUnits="userSpaceOnUse" r="1"><stop offset=".333546" stop-color="#040101"/><stop offset="1" stop-color="#040101" stop-opacity="0"/></radialGradient><radialGradient id="v" cx="0" cy="0" gradientTransform="matrix(-1.44780305 2.3690919 -1.66881528 -1.01984894 11.0948 12.0515)" gradientUnits="userSpaceOnUse" r="1"><stop offset=".320588" stop-color="#040002"/><stop offset="1" stop-color="#040002" stop-opacity="0"/></radialGradient><radialGradient id="w" cx="0" cy="0" gradientTransform="matrix(1.54179605 2.93316768 -4.07169207 2.14025226 12.0726 5.0382)" gradientUnits="userSpaceOnUse" r="1"><stop offset="0" stop-color="#474445"/><stop offset="1" stop-color="#474445" stop-opacity="0"/></radialGradient><radialGradient id="x" cx="0" cy="0" gradientTransform="matrix(-1.61690585 1.61701873 -2.25975173 -2.25959398 22.5643 7.3697)" gradientUnits="userSpaceOnUse" r="1"><stop offset="0" stop-color="#4a4446"/><stop offset="1" stop-color="#4a4446" stop-opacity="0"/></radialGradient><radialGradient id="y" cx="0" cy="0" gradientTransform="matrix(-2.06816578 .6016798 -1.25475871 -4.31300678 24.4445 13.1232)" gradientUnits="userSpaceOnUse" r="1"><stop offset="0" stop-color="#3b3638"/><stop offset="1" stop-color="#3b3638" stop-opacity="0"/></radialGradient><radialGradient id="z" cx="0" cy="0" gradientTransform="matrix(-3.15870564 .78972073 -1.00598661 -4.02372065 23.7676 16.9589)" gradientUnits="userSpaceOnUse" r="1"><stop offset="0" stop-color="#464444"/><stop offset="1" stop-color="#464444" stop-opacity="0"/></radialGradient><radialGradient id="A" cx="0" cy="0" gradientTransform="matrix(-1.01458084 -2.97299606 2.3514621 -.80247277 21.33 10.3928)" gradientUnits="userSpaceOnUse" r="1"><stop offset="0" stop-color="#575455"/><stop offset="1" stop-color="#575455" stop-opacity="0"/></radialGradient><radialGradient id="B" cx="0" cy="0" gradientTransform="matrix(1.68705413 .17696317 -.28673123 2.73351284 9.13128 13.0827)" gradientUnits="userSpaceOnUse" r="1"><stop offset="0" stop-color="#413733"/><stop offset="1" stop-color="#413733" stop-opacity="0"/></radialGradient><radialGradient id="C" cx="0" cy="0" gradientTransform="matrix(-.97845742 3.12570227 -2.88130681 -.90195283 9.70351 9.61733)" gradientUnits="userSpaceOnUse" r="1"><stop offset=".242742" stop-color="#585352"/><stop offset="1" stop-color="#585352" stop-opacity="0"/></radialGradient><radialGradient id="D" cx="0" cy="0" gradientTransform="matrix(0 7.59375 -5.6138 0 16.011 20.6096)" gradientUnits="userSpaceOnUse" r="1"><stop offset=".174353" stop-color="#9d67e1"/><stop offset="1" stop-color="#a473f8"/></radialGradient><radialGradient id="E" cx="0" cy="0" gradientTransform="matrix(-.96875 0 0 -5.28125 18.4825 26.1722)" gradientUnits="userSpaceOnUse" r="1"><stop offset="0" stop-color="#a271ef"/><stop offset="1" stop-color="#a271ef" stop-opacity="0"/></radialGradient><radialGradient id="F" cx="0" cy="0" gradientTransform="matrix(0 5.91396 -1.61702 0 13.721 24.5637)" gradientUnits="userSpaceOnUse" r="1"><stop offset="0" stop-color="#ff7446"/><stop offset="1" stop-color="#ff6f4e"/></radialGradient><radialGradient id="G" cx="0" cy="0" gradientTransform="matrix(0 4.55816 -.70149 0 13.721 26.2311)" gradientUnits="userSpaceOnUse" r="1"><stop offset=".350427" stop-color="#ff7e58"/><stop offset="1" stop-color="#ff7e58" stop-opacity="0"/></radialGradient><radialGradient id="H" cx="0" cy="0" gradientTransform="matrix(-1.51940128 3.01928636 -4.9324908 -2.48218683 14.2082 20.0367)" gradientUnits="userSpaceOnUse" r="1"><stop offset=".343087" stop-color="#da4708"/><stop offset="1" stop-color="#dc5314" stop-opacity="0"/></radialGradient><radialGradient id="I" cx="0" cy="0" gradientTransform="matrix(0 9.4375 -2.83386 0 20.0424 20.2656)" gradientUnits="userSpaceOnUse" r="1"><stop offset="0" stop-color="#ff7523"/><stop offset="1" stop-color="#fb684a"/></radialGradient><radialGradient id="J" cx="0" cy="0" gradientTransform="matrix(.881714 0 0 11.0473 18.279 27.384)" gradientUnits="userSpaceOnUse" r="1"><stop offset=".213767" stop-color="#f25937"/><stop offset="1" stop-color="#f25937" stop-opacity="0"/></radialGradient><linearGradient id="K" gradientUnits="userSpaceOnUse" x1="9.15795" x2="9.15795" y1="21.1994" y2="29.9298"><stop offset="0" stop-color="#e6743e"/><stop offset="1" stop-color="#f46d40"/></linearGradient><radialGradient id="L" cx="0" cy="0" gradientTransform="matrix(-3.52725561 -8.45621026 9.64626165 -4.02365001 12.4159 28.8848)" gradientUnits="userSpaceOnUse" r="1"><stop offset=".683649" stop-color="#e07241" stop-opacity="0"/><stop offset=".950951" stop-color="#cc6e42"/></radialGradient><radialGradient id="M" cx="0" cy="0" gradientTransform="matrix(.13057 0 0 9.00654 8.341 29.9298)" gradientUnits="userSpaceOnUse" r="1"><stop offset=".24463" stop-color="#de521d"/><stop offset="1" stop-color="#de521d" stop-opacity="0"/></radialGradient><radialGradient id="N" cx="0" cy="0" gradientTransform="matrix(0 8.78322 -2.01004 0 23.659 22.5437)" gradientUnits="userSpaceOnUse" r="1"><stop offset=".308824" stop-color="#ff905a"/><stop offset="1" stop-color="#ff7955"/></radialGradient><radialGradient id="O" cx="0" cy="0" gradientTransform="matrix(0 4.375 -.278564 0 23.659 27.9378)" gradientUnits="userSpaceOnUse" r="1"><stop offset=".325" stop-color="#fe713a"/><stop offset="1" stop-color="#fe713a" stop-opacity="0"/></radialGradient><radialGradient id="P" cx="0" cy="0" gradientTransform="matrix(-3.62217463 -11.08795491 17.74570881 -5.79710658 14.5884 30.8233)" gradientUnits="userSpaceOnUse" r="1"><stop offset=".566287" stop-color="#fdbf28" stop-opacity="0"/><stop offset=".970564" stop-color="#cd963a"/></radialGradient><linearGradient id="Q" gradientUnits="userSpaceOnUse" x1="21.0337" x2="21.0337" y1="19.7354" y2="29.9295"><stop offset="0" stop-color="#ffda42"/><stop offset="1" stop-color="#ffcf4c"/></linearGradient><radialGradient id="R" cx="0" cy="0" gradientTransform="matrix(1.79394549 -5.21875283 8.0603426 2.77074154 19.2398 25.3594)" gradientUnits="userSpaceOnUse" r="1"><stop offset=".833575" stop-color="#ffce64" stop-opacity="0"/><stop offset=".998494" stop-color="#ffce64"/></radialGradient><radialGradient id="S" cx="0" cy="0" gradientTransform="matrix(1.86999683 -7.3125029 2.94555184 .75325407 6.47101 28.891)" gradientUnits="userSpaceOnUse" r="1"><stop offset="0" stop-color="#966ce3"/><stop offset="1" stop-color="#8d6fbf"/></radialGradient><linearGradient id="T" gradientUnits="userSpaceOnUse" x1="8.46814" x2="6.8001" y1="29.9299" y2="29.7697"><stop offset=".332672" stop-color="#735992"/><stop offset="1" stop-color="#735992" stop-opacity="0"/></linearGradient><radialGradient id="U" cx="0" cy="0" gradientTransform="matrix(-1.21240613 -8.20544327 2.09118594 -.30898594 25.529 29.9299)" gradientUnits="userSpaceOnUse" r="1"><stop offset="0" stop-color="#b087fd"/><stop offset="1" stop-color="#9879c9"/></radialGradient><radialGradient id="V" cx="0" cy="0" gradientTransform="matrix(0 -8.32422 .469781 0 23.659 29.9299)" gradientUnits="userSpaceOnUse" r="1"><stop offset=".352773" stop-color="#8356c7"/><stop offset="1" stop-color="#8356c7" stop-opacity="0"/></radialGradient><radialGradient id="W" cx="0" cy="0" gradientTransform="matrix(0 2.09685 -3.968 0 16.0211 20.5908)" gradientUnits="userSpaceOnUse" r="1"><stop offset=".132812" stop-color="#381b28"/><stop offset=".88" stop-color="#3e212b"/></radialGradient><radialGradient id="X" cx="0" cy="0" gradientTransform="matrix(-1.74998254 2.57193009 -1.25505638 -.85396052 18.3961 20.7873)" gradientUnits="userSpaceOnUse" r="1"><stop offset=".239481" stop-color="#492a29"/><stop offset="1" stop-color="#492a29" stop-opacity="0"/></radialGradient><radialGradient id="Y" cx="0" cy="0" gradientTransform="matrix(-2.64062753 1.50710372 -2.68834343 -4.710302 16.6929 20.2959)" gradientUnits="userSpaceOnUse" r="1"><stop offset=".705847" stop-color="#422652" stop-opacity="0"/><stop offset="1" stop-color="#422652"/></radialGradient><linearGradient id="Z"><stop offset=".00558659" stop-color="#ccc"/><stop offset="1" stop-color="#e6e6e6"/></linearGradient><linearGradient id="aa" gradientUnits="userSpaceOnUse" x1="7.96143" x2="24.088" xlink:href="#Z" y1="19.6621" y2="19.6621"/><linearGradient id="ab" gradientUnits="userSpaceOnUse" x1="7.96144" x2="24.088" xlink:href="#Z" y1="19.6281" y2="19.6281"/><linearGradient id="ac" gradientUnits="userSpaceOnUse" x1="8.69745" x2="12.0171" y1="14.1763" y2="14.1763"><stop offset="0" stop-color="#392526"/><stop offset="1" stop-color="#2a1c1f"/></linearGradient><radialGradient id="ad" cx="0" cy="0" gradientTransform="matrix(2.79214761 -1.26916066 1.54958713 3.40908454 20.6997 14.5711)" gradientUnits="userSpaceOnUse" r="1"><stop offset=".63975" stop-color="#493033"/><stop offset=".94391" stop-color="#6a5956"/></radialGradient><radialGradient id="ae" cx="0" cy="0" gradientTransform="matrix(1.47598485 .82730541 -.23389201 .4172837 21.8559 12.1926)" gradientUnits="userSpaceOnUse" r="1"><stop offset="0" stop-color="#402824"/><stop offset="1" stop-color="#402824" stop-opacity="0"/></radialGradient><radialGradient id="af" cx="0" cy="0" gradientTransform="matrix(1.69376053 -.12599091 .09848928 1.32404197 21.0944 14.2044)" gradientUnits="userSpaceOnUse" r="1"><stop offset=".719132" stop-color="#371d1f" stop-opacity="0"/><stop offset="1" stop-color="#371d1f"/></radialGradient><radialGradient id="ag" cx="0" cy="0" gradientTransform="matrix(-1.35377 0 0 -1.06796 10.5973 14.0784)" gradientUnits="userSpaceOnUse" r="1"><stop offset=".666667" stop-color="#2d181a" stop-opacity="0"/><stop offset="1" stop-color="#2d181a"/></radialGradient><radialGradient id="ah" cx="0" cy="0" gradientTransform="matrix(-7.29553378 3.36421354 -4.5029545 -9.76497368 19.2286 13.4751)" gradientUnits="userSpaceOnUse" r="1"><stop offset="0" stop-color="#4f322e"/><stop offset="1" stop-color="#402a29"/></radialGradient><radialGradient id="ai" cx="0" cy="0" gradientTransform="matrix(-2.28442875 1.08898045 -.758346 -1.59083425 18.0706 14.4203)" gradientUnits="userSpaceOnUse" r="1"><stop offset="0" stop-color="#533632"/><stop offset="1" stop-color="#533632" stop-opacity="0"/></radialGradient><linearGradient id="aj"><stop offset="0" stop-color="#3a1f30"/><stop offset="1" stop-color="#3a1f30" stop-opacity="0"/></linearGradient><radialGradient id="ak" cx="0" cy="0" gradientTransform="matrix(1.20419895 -3.8993637 4.94756844 1.52790485 13.576 21.0836)" gradientUnits="userSpaceOnUse" r="1" xlink:href="#aj"/><radialGradient id="al" cx="0" cy="0" gradientTransform="matrix(-.89972236 7.6280626 -7.66890945 -.9045402 16.6272 13.6512)" gradientUnits="userSpaceOnUse" r="1"><stop offset=".72739" stop-color="#3f243b" stop-opacity="0"/><stop offset="1" stop-color="#3f243b"/></radialGradient><radialGradient id="am" cx="0" cy="0" gradientTransform="matrix(0 7.36657 -7.40602 0 15.7275 13.9126)" gradientUnits="userSpaceOnUse" r="1"><stop offset=".79368" stop-color="#3b232b" stop-opacity="0"/><stop offset="1" stop-color="#2b151b"/></radialGradient><radialGradient id="an" cx="0" cy="0" gradientTransform="matrix(-7.74657834 1.52023947 -2.6173799 -13.33720034 18.0518 15.4168)" gradientUnits="userSpaceOnUse" r="1"><stop offset=".794964" stop-color="#5e4543" stop-opacity="0"/><stop offset="1" stop-color="#5e4543"/></radialGradient><radialGradient id="ao" cx="0" cy="0" gradientTransform="matrix(0 -1.2909 1.58429 0 18.6027 13.0057)" gradientUnits="userSpaceOnUse" r="1"><stop offset="0" stop-color="#43272a"/><stop offset="1" stop-color="#43272a" stop-opacity="0"/></radialGradient><radialGradient id="ap" cx="0" cy="0" gradientTransform="matrix(0 -1.47234 1.6874 0 13.6918 12.7493)" gradientUnits="userSpaceOnUse" r="1"><stop offset="0" stop-color="#371e27"/><stop offset="1" stop-color="#371e27" stop-opacity="0"/></radialGradient><radialGradient id="aq" cx="0" cy="0" gradientTransform="matrix(-1.44179 0 0 -7.23046 21.7371 14.6744)" gradientUnits="userSpaceOnUse" r="1"><stop offset="0" stop-color="#59403d"/><stop offset="1" stop-color="#59403d" stop-opacity="0"/></radialGradient><radialGradient id="ar" cx="0" cy="0" gradientTransform="matrix(-2.05171347 1.76606074 -1.18365839 -1.37511004 20.42 19.2139)" gradientUnits="userSpaceOnUse" r="1"><stop offset="0" stop-color="#594d4d"/><stop offset=".693603" stop-color="#594d4d" stop-opacity="0"/></radialGradient><radialGradient id="as" cx="0" cy="0" gradientTransform="matrix(0 2 -8.61997 0 16.0212 12.2019)" gradientUnits="userSpaceOnUse" r="1"><stop offset=".1875" stop-color="#381e24"/><stop offset="1" stop-color="#381e24" stop-opacity="0"/></radialGradient><radialGradient id="at" cx="0" cy="0" gradientTransform="matrix(-.51101498 -2.29291591 .706656 -.15749021 16.9009 15.4901)" gradientUnits="userSpaceOnUse" r="1"><stop offset=".0168227" stop-color="#634d4b"/><stop offset="1" stop-color="#634d4b" stop-opacity="0"/></radialGradient><linearGradient id="au" gradientUnits="userSpaceOnUse" x1="14.9681" x2="16.021" y1="15.5718" y2="15.5718"><stop offset="0" stop-color="#3d2928"/><stop offset="1" stop-color="#3d2928" stop-opacity="0"/></linearGradient><linearGradient id="av" gradientUnits="userSpaceOnUse" x1="16.021" x2="16.021" xlink:href="#aj" y1="16.468" y2="15.7835"/><radialGradient id="aw" cx="0" cy="0" gradientTransform="matrix(-.87431 0 0 -.244431 16.6321 15.7274)" gradientUnits="userSpaceOnUse" r="1"><stop offset="0" stop-color="#655251"/><stop offset="1" stop-color="#655251" stop-opacity="0"/></radialGradient><linearGradient id="ax" gradientUnits="userSpaceOnUse" x1="16.1088" x2="16.1088" y1="16.4387" y2="16.2822"><stop offset="0" stop-color="#311620"/><stop offset="1" stop-color="#311620" stop-opacity="0"/></linearGradient><radialGradient id="ay" cx="0" cy="0" gradientTransform="matrix(-1.53818934 1.05602234 -1.26917382 -1.84866319 16.4441 15.06)" gradientUnits="userSpaceOnUse" r="1"><stop offset=".777645" stop-color="#2d151c" stop-opacity="0"/><stop offset="1" stop-color="#2d151c"/></radialGradient><linearGradient id="az" gradientUnits="userSpaceOnUse" x1="14.8271" x2="15.3441" y1="18.0496" y2="17.2505"><stop offset="0" stop-color="#564848"/><stop offset=".663171" stop-color="#564848" stop-opacity="0"/></linearGradient><linearGradient id="aA"><stop offset=".80198" stop-color="#7d574a"/><stop offset="1" stop-color="#694b43"/><stop offset="1" stop-color="#804d49"/><stop offset="1" stop-color="#664944"/></linearGradient><radialGradient id="aB" cx="0" cy="0" gradientTransform="matrix(0 .910112 -1.44764 0 18.4688 13.4086)" gradientUnits="userSpaceOnUse" r="1" xlink:href="#aA"/><linearGradient id="aC"><stop offset=".765532" stop-color="#ffe6e2" stop-opacity="0"/><stop offset=".966159" stop-color="#ffe6e2"/></linearGradient><radialGradient id="aD" cx="0" cy="0" gradientTransform="matrix(-.26015794 -.33524859 .46155647 -.35817475 18.2127 13.5027)" gradientUnits="userSpaceOnUse" r="1" xlink:href="#aC"/><linearGradient id="aE"><stop offset="0" stop-color="#b4948d"/><stop offset="1" stop-color="#b4948d" stop-opacity="0"/></linearGradient><linearGradient id="aF" gradientUnits="userSpaceOnUse" x1="19.3414" x2="18.9895" xlink:href="#aE" y1="13.4689" y2="13.6858"/><radialGradient id="aG" cx="0" cy="0" gradientTransform="matrix(0 .910118 -1.44764 0 13.5733 13.4086)" gradientUnits="userSpaceOnUse" r="1" xlink:href="#aA"/><linearGradient id="aH" gradientUnits="userSpaceOnUse" x1="14.4076" x2="14.0556" xlink:href="#aE" y1="13.4688" y2="13.6856"/><radialGradient id="aI" cx="0" cy="0" gradientTransform="matrix(-.00867739 -.55422207 .66619735 -.01043057 13.252 13.6542)" gradientUnits="userSpaceOnUse" r="1" xlink:href="#aC"/><radialGradient id="aJ" cx="0" cy="0" gradientTransform="matrix(.0073232 4.1875036 -2.64388596 .00462369 19.5762 7.17188)" gradientUnits="userSpaceOnUse" r="1"><stop offset="0" stop-color="#ffee61"/><stop offset="1" stop-color="#fd4"/></radialGradient><radialGradient id="aK" cx="0" cy="0" gradientTransform="matrix(0 -16 5.79775 0 11.8336 9.85938)" gradientUnits="userSpaceOnUse" r="1"><stop offset=".300781" stop-color="#e9b840"/><stop offset="1" stop-color="#e9b840" stop-opacity="0"/></radialGradient><radialGradient id="aL" cx="0" cy="0" gradientTransform="matrix(1.28124913 -7.99999965 15.26891608 2.44541078 17.2398 10.2969)" gradientUnits="userSpaceOnUse" r="1"><stop offset=".813976" stop-color="#eecd67" stop-opacity="0"/><stop offset=".94608" stop-color="#eecd67"/></radialGradient><radialGradient id="aM" cx="0" cy="0" gradientTransform="matrix(0 6.875 -.590373 0 13.1773 6.46875)" gradientUnits="userSpaceOnUse" r="1"><stop offset=".304545" stop-color="#d7a439"/><stop offset="1" stop-color="#e1b037" stop-opacity="0"/></radialGradient><radialGradient id="aN" cx="0" cy="0" gradientTransform="matrix(.37499908 4.21874619 -1.68529516 .14980378 13.3023 2.70313)" gradientUnits="userSpaceOnUse" r="1"><stop offset=".102941" stop-color="#b59741"/><stop offset="1" stop-color="#cba731" stop-opacity="0"/></radialGradient><radialGradient id="aO" cx="0" cy="0" gradientTransform="matrix(-5.2499499 -6.37504343 7.83630158 -6.45331928 16.7398 9.70312)" gradientUnits="userSpaceOnUse" r="1"><stop offset=".781425" stop-color="#c3a852" stop-opacity="0"/><stop offset="1" stop-color="#c3a852"/></radialGradient><linearGradient id="aP" gradientUnits="userSpaceOnUse" x1="9.77106" x2="10.5836" y1="9.23438" y2="9.23438"><stop offset="0" stop-color="#cdac54"/><stop offset="1" stop-color="#cdac54" stop-opacity="0"/></linearGradient><radialGradient id="aQ" cx="0" cy="0" gradientTransform="matrix(0 -.59375 5.79687 0 10.9586 10.0938)" gradientUnits="userSpaceOnUse" r="1"><stop offset=".263158" stop-color="#c8a03f"/><stop offset="1" stop-color="#c8a03f" stop-opacity="0"/></radialGradient><linearGradient id="aR" gradientUnits="userSpaceOnUse" x1="15.8101" x2="15.8101" y1="2.07031" y2="10.4983"><stop offset="0" stop-color="#f9cd2e"/><stop offset="1" stop-color="#ffca3d"/></linearGradient><linearGradient id="aS" gradientUnits="userSpaceOnUse" x1="15.8101" x2="15.8101" y1="2.07031" y2="4.67188"><stop offset="0" stop-color="#e7c44c"/><stop offset="1" stop-color="#e7c44c" stop-opacity="0"/></linearGradient><radialGradient id="aT" cx="0" cy="0" gradientTransform="matrix(0 -9.0625 1 0 13.4586 9.85937)" gradientUnits="userSpaceOnUse" r="1"><stop offset="0" stop-color="#e3b438"/><stop offset="1" stop-color="#e3b438" stop-opacity="0"/></radialGradient><radialGradient id="aU" cx="0" cy="0" gradientTransform="matrix(0 -8.78125 1.6875 0 18.3336 9.92187)" gradientUnits="userSpaceOnUse" r="1"><stop offset="0" stop-color="#ffe550"/><stop offset="1" stop-color="#ffe550" stop-opacity="0"/></radialGradient><linearGradient id="aV" gradientUnits="userSpaceOnUse" x1="21.7861" x2="5.15824" y1="11.2434" y2="11.2434"><stop offset="0" stop-color="#ffe24a"/><stop offset="1" stop-color="#f0bc33"/></linearGradient><linearGradient id="aW" gradientUnits="userSpaceOnUse" x1="15.5872" x2="15.5872" y1="9.84229" y2="10.1559"><stop offset=".0269463" stop-color="#ffd131"/><stop offset="1" stop-color="#ffd131" stop-opacity="0"/></linearGradient><linearGradient id="aX" gradientUnits="userSpaceOnUse" x1="16.5047" x2="16.5047" y1="12.1487" y2="10.8959"><stop offset="0" stop-color="#e1926f"/><stop offset="1" stop-color="#f9b14d" stop-opacity="0"/></linearGradient><radialGradient id="aY" cx="0" cy="0" gradientTransform="matrix(.5231362 2.06026065 -12.32013845 3.12829855 11.6974 8.93525)" gradientUnits="userSpaceOnUse" r="1"><stop offset=".173346" stop-color="#c4a966"/><stop offset="1" stop-color="#dfb83e" stop-opacity="0"/></radialGradient><g clip-rule="evenodd" fill-rule="evenodd" filter="url(#a)"><path d="m24.0812 15.6598c.2384-.4882.3633-1.0331.3633-1.6007 0-.5243-.1078-1.0161-.3012-1.4645h.0059c-.0902-.203-.1916-.3948-.3154-.5755l-.0023-.0035c-.386-.5903-.7897-.7329-.7897-1.4367l-1.7656.4827c0-2.04342.3075-4.74485-1.7359-4.74485-.2043 0-.3973-.09082-.5109-.26111-.6698-.93089-1.771-1.54392-3.0085-1.54392-1.2374 0-2.3385.61303-3.0083 1.54392-.1136.15894-.3066.26111-.5109.26111-.0319 0-.0637.0004-.0954.00121-1.9994.05062-2.3332 2.60711-2.3332 4.61864l-1.07817-.5294c0 .7038-.39844 1.0181-.78442 1.6084l-.00258.0042c-.38434.5894-.61033 1.2804-.61033 2.0393 0 .5789.13622 1.1125.36327 1.6007.07947.1589.07947.3519 0 .5108-.22705.4768-.36327 1.0104-.36327 1.578 0 1.998 1.61203 3.61 3.6101 3.61h9.6268c1.998 0 3.61-1.612 3.61-3.61 0-.5676-.1362-1.1012-.3633-1.578-.0794-.1589-.0794-.3519 0-.5108zm-13.7531-2.9979h-.0138l1.3447 2.6424c.1383 3.1438 1.3652 0 4.3619 0 2.9968 0 4.3036 3.4992 4.4419.3555l1.2742-3.5865c-.0603-1.3964-1.0722-1.4944-1.2742-1.4944h-3.6121c-1.4265 0-2.7724-.69821-3.5776-1.87709-.1381-.19457-.4257-.16023-.5177.05723l-.092.21746c-.2531.6295-.7363 1.1102-1.3344 1.3849-.0173.0057-.0374.0143-.0576.0229-.0201.0086-.0402.0172-.0575.0229-.2646.1373-.8858.5494-.9088 1.6138l.0115.3434z" fill="url(#r)"/><path d="m24.0812 15.6598c.2384-.4882.3633-1.0331.3633-1.6007 0-.5243-.1078-1.0161-.3012-1.4645h.0059c-.0902-.203-.1916-.3948-.3154-.5755l-.0023-.0035c-.386-.5903-.7897-.7329-.7897-1.4367l-1.7656.4827c0-2.04342.3075-4.74485-1.7359-4.74485-.2043 0-.3973-.09082-.5109-.26111-.6698-.93089-1.771-1.54392-3.0085-1.54392-1.2374 0-2.3385.61303-3.0083 1.54392-.1136.15894-.3066.26111-.5109.26111-.0319 0-.0637.0004-.0954.00121-1.9994.05062-2.3332 2.60711-2.3332 4.61864l-1.07817-.5294c0 .7038-.39844 1.0181-.78442 1.6084l-.00258.0042c-.38434.5894-.61033 1.2804-.61033 2.0393 0 .5789.13622 1.1125.36327 1.6007.07947.1589.07947.3519 0 .5108-.22705.4768-.36327 1.0104-.36327 1.578 0 1.998 1.61203 3.61 3.6101 3.61h9.6268c1.998 0 3.61-1.612 3.61-3.61 0-.5676-.1362-1.1012-.3633-1.578-.0794-.1589-.0794-.3519 0-.5108zm-13.7531-2.9979h-.0138l1.3447 2.6424c.1383 3.1438 1.3652 0 4.3619 0 2.9968 0 4.3036 3.4992 4.4419.3555l1.2742-3.5865c-.0603-1.3964-1.0722-1.4944-1.2742-1.4944h-3.6121c-1.4265 0-2.7724-.69821-3.5776-1.87709-.1381-.19457-.4257-.16023-.5177.05723l-.092.21746c-.2531.6295-.7363 1.1102-1.3344 1.3849-.0173.0057-.0374.0143-.0576.0229-.0201.0086-.0402.0172-.0575.0229-.2646.1373-.8858.5494-.9088 1.6138l.0115.3434z" fill="url(#s)"/><path d="m24.0812 15.6598c.2384-.4882.3633-1.0331.3633-1.6007 0-.5243-.1078-1.0161-.3012-1.4645h.0059c-.0902-.203-.1916-.3948-.3154-.5755l-.0023-.0035c-.386-.5903-.7897-.7329-.7897-1.4367l-1.7656.4827c0-2.04342.3075-4.74485-1.7359-4.74485-.2043 0-.3973-.09082-.5109-.26111-.6698-.93089-1.771-1.54392-3.0085-1.54392-1.2374 0-2.3385.61303-3.0083 1.54392-.1136.15894-.3066.26111-.5109.26111-.0319 0-.0637.0004-.0954.00121-1.9994.05062-2.3332 2.60711-2.3332 4.61864l-1.07817-.5294c0 .7038-.39844 1.0181-.78442 1.6084l-.00258.0042c-.38434.5894-.61033 1.2804-.61033 2.0393 0 .5789.13622 1.1125.36327 1.6007.07947.1589.07947.3519 0 .5108-.22705.4768-.36327 1.0104-.36327 1.578 0 1.998 1.61203 3.61 3.6101 3.61h9.6268c1.998 0 3.61-1.612 3.61-3.61 0-.5676-.1362-1.1012-.3633-1.578-.0794-.1589-.0794-.3519 0-.5108zm-13.7531-2.9979h-.0138l1.3447 2.6424c.1383 3.1438 1.3652 0 4.3619 0 2.9968 0 4.3036 3.4992 4.4419.3555l1.2742-3.5865c-.0603-1.3964-1.0722-1.4944-1.2742-1.4944h-3.6121c-1.4265 0-2.7724-.69821-3.5776-1.87709-.1381-.19457-.4257-.16023-.5177.05723l-.092.21746c-.2531.6295-.7363 1.1102-1.3344 1.3849-.0173.0057-.0374.0143-.0576.0229-.0201.0086-.0402.0172-.0575.0229-.2646.1373-.8858.5494-.9088 1.6138l.0115.3434z" fill="url(#t)"/><path d="m24.0812 15.6598c.2384-.4882.3633-1.0331.3633-1.6007 0-.5243-.1078-1.0161-.3012-1.4645h.0059c-.0902-.203-.1916-.3948-.3154-.5755l-.0023-.0035c-.386-.5903-.7897-.7329-.7897-1.4367l-1.7656.4827c0-2.04342.3075-4.74485-1.7359-4.74485-.2043 0-.3973-.09082-.5109-.26111-.6698-.93089-1.771-1.54392-3.0085-1.54392-1.2374 0-2.3385.61303-3.0083 1.54392-.1136.15894-.3066.26111-.5109.26111-.0319 0-.0637.0004-.0954.00121-1.9994.05062-2.3332 2.60711-2.3332 4.61864l-1.07817-.5294c0 .7038-.39844 1.0181-.78442 1.6084l-.00258.0042c-.38434.5894-.61033 1.2804-.61033 2.0393 0 .5789.13622 1.1125.36327 1.6007.07947.1589.07947.3519 0 .5108-.22705.4768-.36327 1.0104-.36327 1.578 0 1.998 1.61203 3.61 3.6101 3.61h9.6268c1.998 0 3.61-1.612 3.61-3.61 0-.5676-.1362-1.1012-.3633-1.578-.0794-.1589-.0794-.3519 0-.5108zm-13.7531-2.9979h-.0138l1.3447 2.6424c.1383 3.1438 1.3652 0 4.3619 0 2.9968 0 4.3036 3.4992 4.4419.3555l1.2742-3.5865c-.0603-1.3964-1.0722-1.4944-1.2742-1.4944h-3.6121c-1.4265 0-2.7724-.69821-3.5776-1.87709-.1381-.19457-.4257-.16023-.5177.05723l-.092.21746c-.2531.6295-.7363 1.1102-1.3344 1.3849-.0173.0057-.0374.0143-.0576.0229-.0201.0086-.0402.0172-.0575.0229-.2646.1373-.8858.5494-.9088 1.6138l.0115.3434z" fill="url(#u)"/><path d="m24.0812 15.6598c.2384-.4882.3633-1.0331.3633-1.6007 0-.5243-.1078-1.0161-.3012-1.4645h.0059c-.0902-.203-.1916-.3948-.3154-.5755l-.0023-.0035c-.386-.5903-.7897-.7329-.7897-1.4367l-1.7656.4827c0-2.04342.3075-4.74485-1.7359-4.74485-.2043 0-.3973-.09082-.5109-.26111-.6698-.93089-1.771-1.54392-3.0085-1.54392-1.2374 0-2.3385.61303-3.0083 1.54392-.1136.15894-.3066.26111-.5109.26111-.0319 0-.0637.0004-.0954.00121-1.9994.05062-2.3332 2.60711-2.3332 4.61864l-1.07817-.5294c0 .7038-.39844 1.0181-.78442 1.6084l-.00258.0042c-.38434.5894-.61033 1.2804-.61033 2.0393 0 .5789.13622 1.1125.36327 1.6007.07947.1589.07947.3519 0 .5108-.22705.4768-.36327 1.0104-.36327 1.578 0 1.998 1.61203 3.61 3.6101 3.61h9.6268c1.998 0 3.61-1.612 3.61-3.61 0-.5676-.1362-1.1012-.3633-1.578-.0794-.1589-.0794-.3519 0-.5108zm-13.7531-2.9979h-.0138l1.3447 2.6424c.1383 3.1438 1.3652 0 4.3619 0 2.9968 0 4.3036 3.4992 4.4419.3555l1.2742-3.5865c-.0603-1.3964-1.0722-1.4944-1.2742-1.4944h-3.6121c-1.4265 0-2.7724-.69821-3.5776-1.87709-.1381-.19457-.4257-.16023-.5177.05723l-.092.21746c-.2531.6295-.7363 1.1102-1.3344 1.3849-.0173.0057-.0374.0143-.0576.0229-.0201.0086-.0402.0172-.0575.0229-.2646.1373-.8858.5494-.9088 1.6138l.0115.3434z" fill="url(#v)"/><path d="m24.0812 15.6598c.2384-.4882.3633-1.0331.3633-1.6007 0-.5243-.1078-1.0161-.3012-1.4645h.0059c-.0902-.203-.1916-.3948-.3154-.5755l-.0023-.0035c-.386-.5903-.7897-.7329-.7897-1.4367l-1.7656.4827c0-2.04342.3075-4.74485-1.7359-4.74485-.2043 0-.3973-.09082-.5109-.26111-.6698-.93089-1.771-1.54392-3.0085-1.54392-1.2374 0-2.3385.61303-3.0083 1.54392-.1136.15894-.3066.26111-.5109.26111-.0319 0-.0637.0004-.0954.00121-1.9994.05062-2.3332 2.60711-2.3332 4.61864l-1.07817-.5294c0 .7038-.39844 1.0181-.78442 1.6084l-.00258.0042c-.38434.5894-.61033 1.2804-.61033 2.0393 0 .5789.13622 1.1125.36327 1.6007.07947.1589.07947.3519 0 .5108-.22705.4768-.36327 1.0104-.36327 1.578 0 1.998 1.61203 3.61 3.6101 3.61h9.6268c1.998 0 3.61-1.612 3.61-3.61 0-.5676-.1362-1.1012-.3633-1.578-.0794-.1589-.0794-.3519 0-.5108zm-13.7531-2.9979h-.0138l1.3447 2.6424c.1383 3.1438 1.3652 0 4.3619 0 2.9968 0 4.3036 3.4992 4.4419.3555l1.2742-3.5865c-.0603-1.3964-1.0722-1.4944-1.2742-1.4944h-3.6121c-1.4265 0-2.7724-.69821-3.5776-1.87709-.1381-.19457-.4257-.16023-.5177.05723l-.092.21746c-.2531.6295-.7363 1.1102-1.3344 1.3849-.0173.0057-.0374.0143-.0576.0229-.0201.0086-.0402.0172-.0575.0229-.2646.1373-.8858.5494-.9088 1.6138l.0115.3434z" fill="url(#w)"/><path d="m24.0812 15.6598c.2384-.4882.3633-1.0331.3633-1.6007 0-.5243-.1078-1.0161-.3012-1.4645h.0059c-.0902-.203-.1916-.3948-.3154-.5755l-.0023-.0035c-.386-.5903-.7897-.7329-.7897-1.4367l-1.7656.4827c0-2.04342.3075-4.74485-1.7359-4.74485-.2043 0-.3973-.09082-.5109-.26111-.6698-.93089-1.771-1.54392-3.0085-1.54392-1.2374 0-2.3385.61303-3.0083 1.54392-.1136.15894-.3066.26111-.5109.26111-.0319 0-.0637.0004-.0954.00121-1.9994.05062-2.3332 2.60711-2.3332 4.61864l-1.07817-.5294c0 .7038-.39844 1.0181-.78442 1.6084l-.00258.0042c-.38434.5894-.61033 1.2804-.61033 2.0393 0 .5789.13622 1.1125.36327 1.6007.07947.1589.07947.3519 0 .5108-.22705.4768-.36327 1.0104-.36327 1.578 0 1.998 1.61203 3.61 3.6101 3.61h9.6268c1.998 0 3.61-1.612 3.61-3.61 0-.5676-.1362-1.1012-.3633-1.578-.0794-.1589-.0794-.3519 0-.5108zm-13.7531-2.9979h-.0138l1.3447 2.6424c.1383 3.1438 1.3652 0 4.3619 0 2.9968 0 4.3036 3.4992 4.4419.3555l1.2742-3.5865c-.0603-1.3964-1.0722-1.4944-1.2742-1.4944h-3.6121c-1.4265 0-2.7724-.69821-3.5776-1.87709-.1381-.19457-.4257-.16023-.5177.05723l-.092.21746c-.2531.6295-.7363 1.1102-1.3344 1.3849-.0173.0057-.0374.0143-.0576.0229-.0201.0086-.0402.0172-.0575.0229-.2646.1373-.8858.5494-.9088 1.6138l.0115.3434z" fill="url(#x)"/><path d="m24.0812 15.6598c.2384-.4882.3633-1.0331.3633-1.6007 0-.5243-.1078-1.0161-.3012-1.4645h.0059c-.0902-.203-.1916-.3948-.3154-.5755l-.0023-.0035c-.386-.5903-.7897-.7329-.7897-1.4367l-1.7656.4827c0-2.04342.3075-4.74485-1.7359-4.74485-.2043 0-.3973-.09082-.5109-.26111-.6698-.93089-1.771-1.54392-3.0085-1.54392-1.2374 0-2.3385.61303-3.0083 1.54392-.1136.15894-.3066.26111-.5109.26111-.0319 0-.0637.0004-.0954.00121-1.9994.05062-2.3332 2.60711-2.3332 4.61864l-1.07817-.5294c0 .7038-.39844 1.0181-.78442 1.6084l-.00258.0042c-.38434.5894-.61033 1.2804-.61033 2.0393 0 .5789.13622 1.1125.36327 1.6007.07947.1589.07947.3519 0 .5108-.22705.4768-.36327 1.0104-.36327 1.578 0 1.998 1.61203 3.61 3.6101 3.61h9.6268c1.998 0 3.61-1.612 3.61-3.61 0-.5676-.1362-1.1012-.3633-1.578-.0794-.1589-.0794-.3519 0-.5108zm-13.7531-2.9979h-.0138l1.3447 2.6424c.1383 3.1438 1.3652 0 4.3619 0 2.9968 0 4.3036 3.4992 4.4419.3555l1.2742-3.5865c-.0603-1.3964-1.0722-1.4944-1.2742-1.4944h-3.6121c-1.4265 0-2.7724-.69821-3.5776-1.87709-.1381-.19457-.4257-.16023-.5177.05723l-.092.21746c-.2531.6295-.7363 1.1102-1.3344 1.3849-.0173.0057-.0374.0143-.0576.0229-.0201.0086-.0402.0172-.0575.0229-.2646.1373-.8858.5494-.9088 1.6138l.0115.3434z" fill="url(#y)"/><path d="m24.0812 15.6598c.2384-.4882.3633-1.0331.3633-1.6007 0-.5243-.1078-1.0161-.3012-1.4645h.0059c-.0902-.203-.1916-.3948-.3154-.5755l-.0023-.0035c-.386-.5903-.7897-.7329-.7897-1.4367l-1.7656.4827c0-2.04342.3075-4.74485-1.7359-4.74485-.2043 0-.3973-.09082-.5109-.26111-.6698-.93089-1.771-1.54392-3.0085-1.54392-1.2374 0-2.3385.61303-3.0083 1.54392-.1136.15894-.3066.26111-.5109.26111-.0319 0-.0637.0004-.0954.00121-1.9994.05062-2.3332 2.60711-2.3332 4.61864l-1.07817-.5294c0 .7038-.39844 1.0181-.78442 1.6084l-.00258.0042c-.38434.5894-.61033 1.2804-.61033 2.0393 0 .5789.13622 1.1125.36327 1.6007.07947.1589.07947.3519 0 .5108-.22705.4768-.36327 1.0104-.36327 1.578 0 1.998 1.61203 3.61 3.6101 3.61h9.6268c1.998 0 3.61-1.612 3.61-3.61 0-.5676-.1362-1.1012-.3633-1.578-.0794-.1589-.0794-.3519 0-.5108zm-13.7531-2.9979h-.0138l1.3447 2.6424c.1383 3.1438 1.3652 0 4.3619 0 2.9968 0 4.3036 3.4992 4.4419.3555l1.2742-3.5865c-.0603-1.3964-1.0722-1.4944-1.2742-1.4944h-3.6121c-1.4265 0-2.7724-.69821-3.5776-1.87709-.1381-.19457-.4257-.16023-.5177.05723l-.092.21746c-.2531.6295-.7363 1.1102-1.3344 1.3849-.0173.0057-.0374.0143-.0576.0229-.0201.0086-.0402.0172-.0575.0229-.2646.1373-.8858.5494-.9088 1.6138l.0115.3434z" fill="url(#z)"/><path d="m24.0812 15.6598c.2384-.4882.3633-1.0331.3633-1.6007 0-.5243-.1078-1.0161-.3012-1.4645h.0059c-.0902-.203-.1916-.3948-.3154-.5755l-.0023-.0035c-.386-.5903-.7897-.7329-.7897-1.4367l-1.7656.4827c0-2.04342.3075-4.74485-1.7359-4.74485-.2043 0-.3973-.09082-.5109-.26111-.6698-.93089-1.771-1.54392-3.0085-1.54392-1.2374 0-2.3385.61303-3.0083 1.54392-.1136.15894-.3066.26111-.5109.26111-.0319 0-.0637.0004-.0954.00121-1.9994.05062-2.3332 2.60711-2.3332 4.61864l-1.07817-.5294c0 .7038-.39844 1.0181-.78442 1.6084l-.00258.0042c-.38434.5894-.61033 1.2804-.61033 2.0393 0 .5789.13622 1.1125.36327 1.6007.07947.1589.07947.3519 0 .5108-.22705.4768-.36327 1.0104-.36327 1.578 0 1.998 1.61203 3.61 3.6101 3.61h9.6268c1.998 0 3.61-1.612 3.61-3.61 0-.5676-.1362-1.1012-.3633-1.578-.0794-.1589-.0794-.3519 0-.5108zm-13.7531-2.9979h-.0138l1.3447 2.6424c.1383 3.1438 1.3652 0 4.3619 0 2.9968 0 4.3036 3.4992 4.4419.3555l1.2742-3.5865c-.0603-1.3964-1.0722-1.4944-1.2742-1.4944h-3.6121c-1.4265 0-2.7724-.69821-3.5776-1.87709-.1381-.19457-.4257-.16023-.5177.05723l-.092.21746c-.2531.6295-.7363 1.1102-1.3344 1.3849-.0173.0057-.0374.0143-.0576.0229-.0201.0086-.0402.0172-.0575.0229-.2646.1373-.8858.5494-.9088 1.6138l.0115.3434z" fill="url(#A)"/><path d="m24.0812 15.6598c.2384-.4882.3633-1.0331.3633-1.6007 0-.5243-.1078-1.0161-.3012-1.4645h.0059c-.0902-.203-.1916-.3948-.3154-.5755l-.0023-.0035c-.386-.5903-.7897-.7329-.7897-1.4367l-1.7656.4827c0-2.04342.3075-4.74485-1.7359-4.74485-.2043 0-.3973-.09082-.5109-.26111-.6698-.93089-1.771-1.54392-3.0085-1.54392-1.2374 0-2.3385.61303-3.0083 1.54392-.1136.15894-.3066.26111-.5109.26111-.0319 0-.0637.0004-.0954.00121-1.9994.05062-2.3332 2.60711-2.3332 4.61864l-1.07817-.5294c0 .7038-.39844 1.0181-.78442 1.6084l-.00258.0042c-.38434.5894-.61033 1.2804-.61033 2.0393 0 .5789.13622 1.1125.36327 1.6007.07947.1589.07947.3519 0 .5108-.22705.4768-.36327 1.0104-.36327 1.578 0 1.998 1.61203 3.61 3.6101 3.61h9.6268c1.998 0 3.61-1.612 3.61-3.61 0-.5676-.1362-1.1012-.3633-1.578-.0794-.1589-.0794-.3519 0-.5108zm-13.7531-2.9979h-.0138l1.3447 2.6424c.1383 3.1438 1.3652 0 4.3619 0 2.9968 0 4.3036 3.4992 4.4419.3555l1.2742-3.5865c-.0603-1.3964-1.0722-1.4944-1.2742-1.4944h-3.6121c-1.4265 0-2.7724-.69821-3.5776-1.87709-.1381-.19457-.4257-.16023-.5177.05723l-.092.21746c-.2531.6295-.7363 1.1102-1.3344 1.3849-.0173.0057-.0374.0143-.0576.0229-.0201.0086-.0402.0172-.0575.0229-.2646.1373-.8858.5494-.9088 1.6138l.0115.3434z" fill="url(#B)"/><path d="m24.0812 15.6598c.2384-.4882.3633-1.0331.3633-1.6007 0-.5243-.1078-1.0161-.3012-1.4645h.0059c-.0902-.203-.1916-.3948-.3154-.5755l-.0023-.0035c-.386-.5903-.7897-.7329-.7897-1.4367l-1.7656.4827c0-2.04342.3075-4.74485-1.7359-4.74485-.2043 0-.3973-.09082-.5109-.26111-.6698-.93089-1.771-1.54392-3.0085-1.54392-1.2374 0-2.3385.61303-3.0083 1.54392-.1136.15894-.3066.26111-.5109.26111-.0319 0-.0637.0004-.0954.00121-1.9994.05062-2.3332 2.60711-2.3332 4.61864l-1.07817-.5294c0 .7038-.39844 1.0181-.78442 1.6084l-.00258.0042c-.38434.5894-.61033 1.2804-.61033 2.0393 0 .5789.13622 1.1125.36327 1.6007.07947.1589.07947.3519 0 .5108-.22705.4768-.36327 1.0104-.36327 1.578 0 1.998 1.61203 3.61 3.6101 3.61h9.6268c1.998 0 3.61-1.612 3.61-3.61 0-.5676-.1362-1.1012-.3633-1.578-.0794-.1589-.0794-.3519 0-.5108zm-13.7531-2.9979h-.0138l1.3447 2.6424c.1383 3.1438 1.3652 0 4.3619 0 2.9968 0 4.3036 3.4992 4.4419.3555l1.2742-3.5865c-.0603-1.3964-1.0722-1.4944-1.2742-1.4944h-3.6121c-1.4265 0-2.7724-.69821-3.5776-1.87709-.1381-.19457-.4257-.16023-.5177.05723l-.092.21746c-.2531.6295-.7363 1.1102-1.3344 1.3849-.0173.0057-.0374.0143-.0576.0229-.0201.0086-.0402.0172-.0575.0229-.2646.1373-.8858.5494-.9088 1.6138l.0115.3434z" fill="url(#C)"/></g><path d="m16.021 19.3198c-.78 0-1.55.08-2.3.23v10.38h4.58v-10.38c-.74-.15-1.5-.23-2.28-.23z" fill="url(#D)"/><path d="m16.021 19.3198c-.78 0-1.55.08-2.3.23v10.38h4.58v-10.38c-.74-.15-1.5-.23-2.28-.23z" fill="url(#E)"/><path d="m13.721 19.1978c-.6077.1344-1.1955.3101-1.7634.5376v10.1942h1.7634z" fill="url(#F)"/><path d="m13.721 19.1978c-.6077.1344-1.1955.3101-1.7634.5376v10.1942h1.7634z" fill="url(#G)"/><path d="m13.721 19.1978c-.6077.1344-1.1955.3101-1.7634.5376v10.1942h1.7634z" fill="url(#H)"/><path d="m18.279 19.1978c.6077.1344 1.1955.3101 1.7634.5376v10.1942h-1.7634z" fill="url(#I)"/><path d="m18.279 19.1978c.6077.1344 1.1955.3101 1.7634.5376v10.1942h-1.7634z" fill="url(#J)"/><path d="m8.38861 22.0176c-.03045.0282-.04761.0678-.04761.1094v7.8028h1.63391v-9.1603c-.55984.3707-1.09163.7898-1.5863 1.2481z" fill="url(#K)"/><path d="m8.38861 22.0176c-.03045.0282-.04761.0678-.04761.1094v7.8028h1.63391v-9.1603c-.55984.3707-1.09163.7898-1.5863 1.2481z" fill="url(#L)"/><path d="m8.38861 22.0176c-.03045.0282-.04761.0678-.04761.1094v7.8028h1.63391v-9.1603c-.55984.3707-1.09163.7898-1.5863 1.2481z" fill="url(#M)"/><path d="m23.6273 22.0323c.0203.0189.0317.0453.0317.073v7.8245h-1.6339v-9.1603c.5658.3746 1.103.7988 1.6022 1.2628z" fill="url(#N)"/><path d="m23.6273 22.0323c.0203.0189.0317.0453.0317.073v7.8245h-1.6339v-9.1603c.5658.3746 1.103.7988 1.6022 1.2628z" fill="url(#O)"/><path d="m9.97496 20.7692v9.1603h1.98264v-10.1941c-.6974.2791-1.355.6203-1.98264 1.0338z" fill="#ffca44"/><path d="m9.97496 20.7692v9.1603h1.98264v-10.1941c-.6974.2791-1.355.6203-1.98264 1.0338z" fill="url(#P)"/><path d="m22.025 20.7692v9.1603h-1.9826v-10.1941c.6974.2791 1.355.6203 1.9826 1.0338z" fill="url(#Q)"/><path d="m22.025 20.7692v9.1603h-1.9826v-10.1941c.6974.2791 1.355.6203 1.9826 1.0338z" fill="url(#R)"/><path d="m4.60098 29.9299c.13988-.9459.33971-1.8815.61946-2.7863.59947-1.9741 1.7118-3.682 3.12056-5.0186v7.8049z" fill="url(#S)"/><path d="m4.60098 29.9299c.13988-.9459.33971-1.8815.61946-2.7863.59947-1.9741 1.7118-3.682 3.12056-5.0186v7.8049z" fill="url(#T)"/><path d="m27.399 29.9299c-.1399-.9459-.3397-1.8815-.6194-2.7863-.5995-1.9741-1.7118-3.682-3.1206-5.0186v7.8049z" fill="url(#U)"/><path d="m27.399 29.9299c-.1399-.9459-.3397-1.8815-.6194-2.7863-.5995-1.9741-1.7118-3.682-3.1206-5.0186v7.8049z" fill="url(#V)"/><path d="m13.8101 20.2959c.0596.7972.5853 2.3917 2.211 2.3917 1.6256 0 2.1513-1.5945 2.2109-2.3917z" fill="url(#W)"/><path d="m13.8101 20.2959c.0596.7972.5853 2.3917 2.211 2.3917 1.6256 0 2.1513-1.5945 2.2109-2.3917z" fill="url(#X)"/><path d="m13.8101 20.2959c.0596.7972.5853 2.3917 2.211 2.3917 1.6256 0 2.1513-1.5945 2.2109-2.3917z" fill="url(#Y)"/><path d="m16.4193 19.6289c.2804.0112.5721.0337.8637.0561-.2916-.0224-.5721-.0449-.8637-.0561z" fill="url(#aa)"/><path d="m16.0491 19.6289c-.0112 0-.0225 0-.0449 0 .1122 0 .2131 0 .3253.0112-.0897-.0112-.1907-.0112-.2804-.0112z" fill="url(#ab)"/><g filter="url(#b)"><path d="m10.5025 15.8835c.9969 0 1.805-.8081 1.805-1.805s-.8081-1.8051-1.805-1.8051c-.99691 0-1.80505.8082-1.80505 1.8051s.80814 1.805 1.80505 1.805z" fill="url(#ac)"/></g><g filter="url(#c)"><path d="m21.5833 15.8835c.9969 0 1.805-.8081 1.805-1.805s-.8081-1.8051-1.805-1.8051-1.805.8082-1.805 1.8051.8081 1.805 1.805 1.805z" fill="url(#ad)"/><path d="m21.5833 15.8835c.9969 0 1.805-.8081 1.805-1.805s-.8081-1.8051-1.805-1.8051-1.805.8082-1.805 1.8051.8081 1.805 1.805 1.805z" fill="url(#ae)"/></g><g filter="url(#d)"><path d="m21.5833 15.2833c.6654 0 1.2049-.5394 1.2049-1.2049 0-.6654-.5395-1.2049-1.2049-1.2049-.6655 0-1.2049.5395-1.2049 1.2049 0 .6655.5394 1.2049 1.2049 1.2049z" fill="#4c3637"/><path d="m21.5833 15.2833c.6654 0 1.2049-.5394 1.2049-1.2049 0-.6654-.5395-1.2049-1.2049-1.2049-.6655 0-1.2049.5395-1.2049 1.2049 0 .6655.5394 1.2049 1.2049 1.2049z" fill="url(#af)"/></g><g filter="url(#e)"><path d="m10.5239 15.2833c.6655 0 1.2049-.5394 1.2049-1.2049 0-.6654-.5394-1.2049-1.2049-1.2049-.66541 0-1.20487.5395-1.20487 1.2049 0 .6655.53946 1.2049 1.20487 1.2049z" fill="#35252b"/><path d="m10.5239 15.2833c.6655 0 1.2049-.5394 1.2049-1.2049 0-.6654-.5394-1.2049-1.2049-1.2049-.66541 0-1.20487.5395-1.20487 1.2049 0 .6655.53946 1.2049 1.20487 1.2049z" fill="url(#ag)"/></g><g filter="url(#f)"><path d="m10.3144 12.6616h.0138l-.0115-.2975-.0115-.3434c.023-1.0644.6442-1.4765.9088-1.6138.0173-.0057.0374-.0143.0575-.0229.0202-.0086.0403-.0172.0576-.0229.5981-.2747 1.0813-.75538 1.3344-1.38488l.092-.21746c.092-.21747.3796-.2518.5177-.05723.8052 1.17888 2.1511 1.87707 3.5776 1.87707h3.6121c.202 0 1.2139.098 1.2742 1.4944l-.1332 3.4473c-.1383 3.1437-2.5934 5.2547-5.5901 5.2547s-5.4518-2.111-5.5901-5.2547z" fill="url(#ah)"/><path d="m10.3144 12.6616h.0138l-.0115-.2975-.0115-.3434c.023-1.0644.6442-1.4765.9088-1.6138.0173-.0057.0374-.0143.0575-.0229.0202-.0086.0403-.0172.0576-.0229.5981-.2747 1.0813-.75538 1.3344-1.38488l.092-.21746c.092-.21747.3796-.2518.5177-.05723.8052 1.17888 2.1511 1.87707 3.5776 1.87707h3.6121c.202 0 1.2139.098 1.2742 1.4944l-.1332 3.4473c-.1383 3.1437-2.5934 5.2547-5.5901 5.2547s-5.4518-2.111-5.5901-5.2547z" fill="url(#ai)"/><path d="m10.3144 12.6616h.0138l-.0115-.2975-.0115-.3434c.023-1.0644.6442-1.4765.9088-1.6138.0173-.0057.0374-.0143.0575-.0229.0202-.0086.0403-.0172.0576-.0229.5981-.2747 1.0813-.75538 1.3344-1.38488l.092-.21746c.092-.21747.3796-.2518.5177-.05723.8052 1.17888 2.1511 1.87707 3.5776 1.87707h3.6121c.202 0 1.2139.098 1.2742 1.4944l-.1332 3.4473c-.1383 3.1437-2.5934 5.2547-5.5901 5.2547s-5.4518-2.111-5.5901-5.2547z" fill="url(#ak)"/><path d="m10.3144 12.6616h.0138l-.0115-.2975-.0115-.3434c.023-1.0644.6442-1.4765.9088-1.6138.0173-.0057.0374-.0143.0575-.0229.0202-.0086.0403-.0172.0576-.0229.5981-.2747 1.0813-.75538 1.3344-1.38488l.092-.21746c.092-.21747.3796-.2518.5177-.05723.8052 1.17888 2.1511 1.87707 3.5776 1.87707h3.6121c.202 0 1.2139.098 1.2742 1.4944l-.1332 3.4473c-.1383 3.1437-2.5934 5.2547-5.5901 5.2547s-5.4518-2.111-5.5901-5.2547z" fill="url(#al)"/><path d="m10.3144 12.6616h.0138l-.0115-.2975-.0115-.3434c.023-1.0644.6442-1.4765.9088-1.6138.0173-.0057.0374-.0143.0575-.0229.0202-.0086.0403-.0172.0576-.0229.5981-.2747 1.0813-.75538 1.3344-1.38488l.092-.21746c.092-.21747.3796-.2518.5177-.05723.8052 1.17888 2.1511 1.87707 3.5776 1.87707h3.6121c.202 0 1.2139.098 1.2742 1.4944l-.1332 3.4473c-.1383 3.1437-2.5934 5.2547-5.5901 5.2547s-5.4518-2.111-5.5901-5.2547z" fill="url(#am)"/><path d="m10.3144 12.6616h.0138l-.0115-.2975-.0115-.3434c.023-1.0644.6442-1.4765.9088-1.6138.0173-.0057.0374-.0143.0575-.0229.0202-.0086.0403-.0172.0576-.0229.5981-.2747 1.0813-.75538 1.3344-1.38488l.092-.21746c.092-.21747.3796-.2518.5177-.05723.8052 1.17888 2.1511 1.87707 3.5776 1.87707h3.6121c.202 0 1.2139.098 1.2742 1.4944l-.1332 3.4473c-.1383 3.1437-2.5934 5.2547-5.5901 5.2547s-5.4518-2.111-5.5901-5.2547z" fill="url(#an)"/><path d="m10.3144 12.6616h.0138l-.0115-.2975-.0115-.3434c.023-1.0644.6442-1.4765.9088-1.6138.0173-.0057.0374-.0143.0575-.0229.0202-.0086.0403-.0172.0576-.0229.5981-.2747 1.0813-.75538 1.3344-1.38488l.092-.21746c.092-.21747.3796-.2518.5177-.05723.8052 1.17888 2.1511 1.87707 3.5776 1.87707h3.6121c.202 0 1.2139.098 1.2742 1.4944l-.1332 3.4473c-.1383 3.1437-2.5934 5.2547-5.5901 5.2547s-5.4518-2.111-5.5901-5.2547z" fill="url(#ao)"/><path d="m10.3144 12.6616h.0138l-.0115-.2975-.0115-.3434c.023-1.0644.6442-1.4765.9088-1.6138.0173-.0057.0374-.0143.0575-.0229.0202-.0086.0403-.0172.0576-.0229.5981-.2747 1.0813-.75538 1.3344-1.38488l.092-.21746c.092-.21747.3796-.2518.5177-.05723.8052 1.17888 2.1511 1.87707 3.5776 1.87707h3.6121c.202 0 1.2139.098 1.2742 1.4944l-.1332 3.4473c-.1383 3.1437-2.5934 5.2547-5.5901 5.2547s-5.4518-2.111-5.5901-5.2547z" fill="url(#ap)"/></g><path d="m10.3144 12.6616h.0138l-.0115-.2975-.0115-.3434c.023-1.0644.6442-1.4765.9088-1.6138.0173-.0057.0374-.0143.0575-.0229.0202-.0086.0403-.0172.0576-.0229.5981-.2747 1.0813-.75538 1.3344-1.38488l.092-.21746c.092-.21747.3796-.2518.5177-.05723.8052 1.17888 2.1511 1.87707 3.5776 1.87707h3.6121c.202 0 1.2139.098 1.2742 1.4944l-.1332 3.4473c-.1383 3.1437-2.5934 5.2547-5.5901 5.2547s-5.4518-2.111-5.5901-5.2547z" fill="url(#aq)"/><path d="m10.3144 12.6616h.0138l-.0115-.2975-.0115-.3434c.023-1.0644.6442-1.4765.9088-1.6138.0173-.0057.0374-.0143.0575-.0229.0202-.0086.0403-.0172.0576-.0229.5981-.2747 1.0813-.75538 1.3344-1.38488l.092-.21746c.092-.21747.3796-.2518.5177-.05723.8052 1.17888 2.1511 1.87707 3.5776 1.87707h3.6121c.202 0 1.2139.098 1.2742 1.4944l-.1332 3.4473c-.1383 3.1437-2.5934 5.2547-5.5901 5.2547s-5.4518-2.111-5.5901-5.2547z" fill="url(#ar)"/><path d="m10.3144 12.6616h.0138l-.0115-.2975-.0115-.3434c.023-1.0644.6442-1.4765.9088-1.6138.0173-.0057.0374-.0143.0575-.0229.0202-.0086.0403-.0172.0576-.0229.5981-.2747 1.0813-.75538 1.3344-1.38488l.092-.21746c.092-.21747.3796-.2518.5177-.05723.8052 1.17888 2.1511 1.87707 3.5776 1.87707h3.6121c.202 0 1.2139.098 1.2742 1.4944l-.1332 3.4473c-.1383 3.1437-2.5934 5.2547-5.5901 5.2547s-5.4518-2.111-5.5901-5.2547z" fill="url(#as)"/><g filter="url(#g)"><path d="m15.5806 13.8285-.7668 1.9071c-.1217.3922.1703.7845.584.7845h.8821c.4137 0 .7057-.3983.5841-.7845l-.5962-1.9071c-.1278-.4224-.5533-.4224-.6872 0z" fill="#331b25"/></g><g filter="url(#h)"><path d="m15.5921 13.6733-.5962 1.907c-.1216.3923.1704.7845.5841.7845h.8821c.4137 0 .7057-.3983.584-.7845l-.5962-1.907c-.1278-.4225-.7239-.4225-.8578 0z" fill="#4a302d"/><path d="m15.5921 13.6733-.5962 1.907c-.1216.3923.1704.7845.5841.7845h.8821c.4137 0 .7057-.3983.584-.7845l-.5962-1.907c-.1278-.4225-.7239-.4225-.8578 0z" fill="url(#at)"/><path d="m15.5921 13.6733-.5962 1.907c-.1216.3923.1704.7845.5841.7845h.8821c.4137 0 .7057-.3983.584-.7845l-.5962-1.907c-.1278-.4225-.7239-.4225-.8578 0z" fill="url(#au)"/><path d="m15.5921 13.6733-.5962 1.907c-.1216.3923.1704.7845.5841.7845h.8821c.4137 0 .7057-.3983.584-.7845l-.5962-1.907c-.1278-.4225-.7239-.4225-.8578 0z" fill="url(#av)"/><path d="m15.5921 13.6733-.5962 1.907c-.1216.3923.1704.7845.5841.7845h.8821c.4137 0 .7057-.3983.584-.7845l-.5962-1.907c-.1278-.4225-.7239-.4225-.8578 0z" fill="url(#aw)"/></g><path d="m15.5921 13.6733-.5962 1.907c-.1216.3923.1704.7845.5841.7845h.8821c.4137 0 .7057-.3983.584-.7845l-.5962-1.907c-.1278-.4225-.7239-.4225-.8578 0z" fill="url(#ax)"/><path d="m15.5921 13.6733-.5962 1.907c-.1216.3923.1704.7845.5841.7845h.8821c.4137 0 .7057-.3983.584-.7845l-.5962-1.907c-.1278-.4225-.7239-.4225-.8578 0z" fill="url(#ay)"/><g filter="url(#i)"><path d="m16.021 17.3446c-.5841 0-1.1332-.1406-1.5947-.3867-.1577-.082-.3271.0996-.2278.2461.3855.5976 1.0573.996 1.8225.996.7653 0 1.437-.3984 1.8226-.996.0993-.1524-.0701-.3281-.2279-.2461-.4614.2461-1.0047.3867-1.5947.3867z" stroke="url(#az)" stroke-width=".2"/></g><path d="m16.021 17.3446c-.5841 0-1.1332-.1406-1.5947-.3867-.1577-.082-.3271.0996-.2278.2461.3855.5976 1.0573.996 1.8225.996.7653 0 1.437-.3984 1.8226-.996.0993-.1524-.0701-.3281-.2279-.2461-.4614.2461-1.0047.3867-1.5947.3867z" fill="#2a0219"/><g filter="url(#j)"><path d="m17.3022 13.4397c.2978-.5236.7504-.9373 1.7246-.9373.4265 0 .8379.1182 1.2035.4137.3015.2436.2611.5554.0276.6722l-.6238.3561c-.7312-.2363-1.5397-.2684-2.3319-.5047z" fill="#2d2b2e"/></g><g filter="url(#k)"><path d="m14.7401 13.4397c-.2977-.5236-.7503-.9373-1.7245-.9373-.4266 0-.8379.1182-1.2035.4137-.3016.2436-.2612.5554-.0276.6722l.6237.3561c.7312-.2363 1.5398-.2684 2.3319-.5047z" fill="#272528"/></g><path d="m18.7032 12.5684c.7327 0 1.3515.5051 1.5199 1.1877.0501.1956-.1001.3822-.3003.3822h-2.5028c-.1593 0-.2867-.1456-.2549-.3049.1411-.719.7736-1.265 1.5381-1.265z" fill="#fff"/><path d="m18.4711 12.8735c.5551 0 1.0011.4505 1.0011 1.0012 0 .091-.0137.182-.0364.2639h-1.934c-.0228-.0865-.0364-.1729-.0364-.2639 0-.5507.4505-1.0012 1.0057-1.0012z" fill="url(#aB)"/><path d="m17.8978 13.8746c0-.3185.2548-.5733.5733-.5733.3186 0 .5734.2548.5734.5733 0 .0956-.0227.1866-.0637.264h-1.0148c-.0455-.0774-.0682-.1684-.0682-.264z" fill="#000"/><g filter="url(#l)"><path d="m18.3974 13.0849c.0713.0953-.0778.2116-.2473.3384-.1695.1267-.2953.2159-.3666.1205s.0083-.2755.1778-.4022.3647-.1521.4361-.0567z" fill="#c7a7a3"/><path d="m18.3974 13.0849c.0713.0953-.0778.2116-.2473.3384-.1695.1267-.2953.2159-.3666.1205s.0083-.2755.1778-.4022.3647-.1521.4361-.0567z" fill="url(#aD)"/></g><g filter="url(#m)"><path d="m19.3628 13.7427c-.037-.2588-.1885-.4539-.2596-.5191l-.2915.32.1315.256z" fill="url(#aF)"/></g><path d="m13.3389 12.5684c-.7327 0-1.3516.5051-1.5199 1.1877-.0501.1956.1001.3822.3003.3822h2.5028c.1593 0 .2867-.1456.2549-.3049-.1411-.719-.7782-1.265-1.5381-1.265z" fill="#fff"/><path d="m13.571 12.8735c-.5552 0-1.0011.4505-1.0011 1.0012 0 .091.0136.182.0364.2639h1.934c.0227-.0865.0364-.1729.0364-.2639-.0046-.5507-.4505-1.0012-1.0057-1.0012z" fill="url(#aG)"/><path d="m14.1444 13.8746c0-.3185-.2549-.5733-.5734-.5733s-.5734.2548-.5734.5733c0 .0956.0228.1866.0637.264h1.0148c.041-.0774.0683-.1684.0683-.264z" fill="#000"/><g filter="url(#n)"><path d="m14.4855 13.7567c0-.3235-.2631-.5392-.3342-.6044l-.3235.3129.1991.4053z" fill="url(#aH)"/></g><g filter="url(#o)"><ellipse cx="13.269" cy="13.3009" fill="#c7a7a3" fill-opacity=".9" rx=".437046" ry=".221186" transform="matrix(.88365127 -.46814574 .46814574 .88365127 -4.682928 7.759369)"/><ellipse cx="13.269" cy="13.3009" fill="url(#aI)" rx=".437046" ry=".221186" transform="matrix(.88365127 -.46814574 .46814574 .88365127 -4.682928 7.759369)"/></g><path d="m9.77106 7.17812c0-2.26436 1.83564-4.1 4.10004-4.1h3.9875c2.2643 0 4.1 1.83564 4.1 4.1v2.68126h-12.18754z" fill="url(#aJ)"/><path d="m9.77106 7.17812c0-2.26436 1.83564-4.1 4.10004-4.1h3.9875c2.2643 0 4.1 1.83564 4.1 4.1v2.68126h-12.18754z" fill="url(#aK)"/><path d="m9.77106 7.17812c0-2.26436 1.83564-4.1 4.10004-4.1h3.9875c2.2643 0 4.1 1.83564 4.1 4.1v2.68126h-12.18754z" fill="url(#aL)"/><path d="m9.77106 7.17812c0-2.26436 1.83564-4.1 4.10004-4.1h3.9875c2.2643 0 4.1 1.83564 4.1 4.1v2.68126h-12.18754z" fill="url(#aM)"/><path d="m9.77106 7.17812c0-2.26436 1.83564-4.1 4.10004-4.1h3.9875c2.2643 0 4.1 1.83564 4.1 4.1v2.68126h-12.18754z" fill="url(#aN)"/><path d="m9.77106 7.17812c0-2.26436 1.83564-4.1 4.10004-4.1h3.9875c2.2643 0 4.1 1.83564 4.1 4.1v2.68126h-12.18754z" fill="url(#aO)"/><path d="m9.77106 7.17812c0-2.26436 1.83564-4.1 4.10004-4.1h3.9875c2.2643 0 4.1 1.83564 4.1 4.1v2.68126h-12.18754z" fill="url(#aP)"/><path d="m9.77106 7.17812c0-2.26436 1.83564-4.1 4.10004-4.1h3.9875c2.2643 0 4.1 1.83564 4.1 4.1v2.68126h-12.18754z" fill="url(#aQ)"/><g filter="url(#p)"><path d="m14.6148 2.07031h2.3906c.8285 0 1.5.60254 1.5 1.6322v6.79579h-5.3906v-6.79579c0-1.02966.6716-1.6322 1.5-1.6322z" fill="url(#aR)"/><path d="m14.6148 2.07031h2.3906c.8285 0 1.5.60254 1.5 1.6322v6.79579h-5.3906v-6.79579c0-1.02966.6716-1.6322 1.5-1.6322z" fill="url(#aS)"/><path d="m14.6148 2.07031h2.3906c.8285 0 1.5.60254 1.5 1.6322v6.79579h-5.3906v-6.79579c0-1.02966.6716-1.6322 1.5-1.6322z" fill="url(#aT)"/><path d="m14.6148 2.07031h2.3906c.8285 0 1.5.60254 1.5 1.6322v6.79579h-5.3906v-6.79579c0-1.02966.6716-1.6322 1.5-1.6322z" fill="url(#aU)"/></g><path d="m22.2659 9.84229h-12.59345c-.64171 0-1.15322.52081-1.15322 1.15321 0 .6417.52081 1.1532 1.15322 1.1532h12.59345c.6417 0 1.1532-.5208 1.1532-1.1532.0093-.6324-.5115-1.15321-1.1532-1.15321z" fill="url(#aV)"/><path d="m22.2659 9.84229h-12.59345c-.64171 0-1.15322.52081-1.15322 1.15321 0 .6417.52081 1.1532 1.15322 1.1532h12.59345c.6417 0 1.1532-.5208 1.1532-1.1532.0093-.6324-.5115-1.15321-1.1532-1.15321z" fill="url(#aW)"/><path d="m22.2659 9.84229h-12.59345c-.64171 0-1.15322.52081-1.15322 1.15321 0 .6417.52081 1.1532 1.15322 1.1532h12.59345c.6417 0 1.1532-.5208 1.1532-1.1532.0093-.6324-.5115-1.15321-1.1532-1.15321z" fill="url(#aX)"/><path d="m22.2659 9.84229h-12.59345c-.64171 0-1.15322.52081-1.15322 1.15321 0 .6417.52081 1.1532 1.15322 1.1532h12.59345c.6417 0 1.1532-.5208 1.1532-1.1532.0093-.6324-.5115-1.15321-1.1532-1.15321z" fill="url(#aY)"/><g filter="url(#q)"><ellipse cx="19.329" cy="10.8562" fill="#fff060" rx="2.82697" ry=".263895"/></g></svg>