<svg fill="none" height="32" viewBox="0 0 32 32" width="32" xmlns="http://www.w3.org/2000/svg" xmlns:xlink="http://www.w3.org/1999/xlink"><filter id="a" color-interpolation-filters="sRGB" filterUnits="userSpaceOnUse" height="8.61635" width="6.14936" x="8.20361" y="1.93757"><feFlood flood-opacity="0" result="BackgroundImageFix"/><feBlend in="SourceGraphic" in2="BackgroundImageFix" mode="normal" result="shape"/><feColorMatrix in="SourceAlpha" result="hardAlpha" type="matrix" values="0 0 0 0 0 0 0 0 0 0 0 0 0 0 0 0 0 0 127 0"/><feOffset dx=".15" dy="-.15"/><feGaussianBlur stdDeviation=".25"/><feComposite in2="hardAlpha" k2="-1" k3="1" operator="arithmetic"/><feColorMatrix type="matrix" values="0 0 0 0 0.941176 0 0 0 0 0.705882 0 0 0 0 0.580392 0 0 0 1 0"/><feBlend in2="shape" mode="normal" result="effect1_innerShadow_20020_2435"/></filter><filter id="b" color-interpolation-filters="sRGB" filterUnits="userSpaceOnUse" height="28.9313" width="22.3245" x="4.71277" y="1.53853"><feFlood flood-opacity="0" result="BackgroundImageFix"/><feBlend in="SourceGraphic" in2="BackgroundImageFix" mode="normal" result="shape"/><feColorMatrix in="SourceAlpha" result="hardAlpha" type="matrix" values="0 0 0 0 0 0 0 0 0 0 0 0 0 0 0 0 0 0 127 0"/><feOffset dx=".25"/><feGaussianBlur stdDeviation=".5"/><feComposite in2="hardAlpha" k2="-1" k3="1" operator="arithmetic"/><feColorMatrix type="matrix" values="0 0 0 0 0.952941 0 0 0 0 0.72549 0 0 0 0 0.592157 0 0 0 1 0"/><feBlend in2="shape" mode="normal" result="effect1_innerShadow_20020_2435"/><feColorMatrix in="SourceAlpha" result="hardAlpha" type="matrix" values="0 0 0 0 0 0 0 0 0 0 0 0 0 0 0 0 0 0 127 0"/><feOffset dy="-.5"/><feGaussianBlur stdDeviation=".5"/><feComposite in2="hardAlpha" k2="-1" k3="1" operator="arithmetic"/><feColorMatrix type="matrix" values="0 0 0 0 0.760784 0 0 0 0 0.494118 0 0 0 0 0.588235 0 0 0 1 0"/><feBlend in2="effect1_innerShadow_20020_2435" mode="normal" result="effect2_innerShadow_20020_2435"/><feColorMatrix in="SourceAlpha" result="hardAlpha" type="matrix" values="0 0 0 0 0 0 0 0 0 0 0 0 0 0 0 0 0 0 127 0"/><feOffset dx="-.5" dy=".5"/><feGaussianBlur stdDeviation=".5"/><feComposite in2="hardAlpha" k2="-1" k3="1" operator="arithmetic"/><feColorMatrix type="matrix" values="0 0 0 0 0.964706 0 0 0 0 0.768627 0 0 0 0 0.603922 0 0 0 1 0"/><feBlend in2="effect2_innerShadow_20020_2435" mode="normal" result="effect3_innerShadow_20020_2435"/></filter><filter id="c" color-interpolation-filters="sRGB" filterUnits="userSpaceOnUse" height="17.7848" width="13.0565" x="7.18097" y="1.45477"><feFlood flood-opacity="0" result="BackgroundImageFix"/><feBlend in="SourceGraphic" in2="BackgroundImageFix" mode="normal" result="shape"/><feGaussianBlur result="effect1_foregroundBlur_20020_2435" stdDeviation=".75"/></filter><filter id="d" color-interpolation-filters="sRGB" filterUnits="userSpaceOnUse" height="12.1349" width="10.2697" x="11.2075" y="9.14719"><feFlood flood-opacity="0" result="BackgroundImageFix"/><feBlend in="SourceGraphic" in2="BackgroundImageFix" mode="normal" result="shape"/><feGaussianBlur result="effect1_foregroundBlur_20020_2435" stdDeviation=".75"/></filter><filter id="e" color-interpolation-filters="sRGB" filterUnits="userSpaceOnUse" height="12.4151" width="10.4498" x="14.5029" y="12.5076"><feFlood flood-opacity="0" result="BackgroundImageFix"/><feBlend in="SourceGraphic" in2="BackgroundImageFix" mode="normal" result="shape"/><feGaussianBlur result="effect1_foregroundBlur_20020_2435" stdDeviation=".75"/></filter><filter id="f" color-interpolation-filters="sRGB" filterUnits="userSpaceOnUse" height="12.0559" width="10.4454" x="17.1847" y="16.1313"><feFlood flood-opacity="0" result="BackgroundImageFix"/><feBlend in="SourceGraphic" in2="BackgroundImageFix" mode="normal" result="shape"/><feGaussianBlur result="effect1_foregroundBlur_20020_2435" stdDeviation=".75"/></filter><filter id="g" color-interpolation-filters="sRGB" filterUnits="userSpaceOnUse" height="5.99797" width="4.82448" x="12.4507" y="9.78025"><feFlood flood-opacity="0" result="BackgroundImageFix"/><feBlend in="SourceGraphic" in2="BackgroundImageFix" mode="normal" result="shape"/><feGaussianBlur result="effect1_foregroundBlur_20020_2435" stdDeviation=".2"/></filter><filter id="h" color-interpolation-filters="sRGB" filterUnits="userSpaceOnUse" height="5.06865" width="4.14784" x="16.7423" y="13.4059"><feFlood flood-opacity="0" result="BackgroundImageFix"/><feBlend in="SourceGraphic" in2="BackgroundImageFix" mode="normal" result="shape"/><feGaussianBlur result="effect1_foregroundBlur_20020_2435" stdDeviation=".2"/></filter><filter id="i" color-interpolation-filters="sRGB" filterUnits="userSpaceOnUse" height="4.39601" width="3.65883" x="20.0006" y="16.7284"><feFlood flood-opacity="0" result="BackgroundImageFix"/><feBlend in="SourceGraphic" in2="BackgroundImageFix" mode="normal" result="shape"/><feGaussianBlur result="effect1_foregroundBlur_20020_2435" stdDeviation=".2"/></filter><radialGradient id="j" cx="0" cy="0" gradientTransform="matrix(-.94363691 4.44518465 -4.21450505 -.89466756 12.1469 3.22288)" gradientUnits="userSpaceOnUse" r="1"><stop offset="0" stop-color="#f5c49a"/><stop offset="1" stop-color="#e0a687"/></radialGradient><radialGradient id="k" cx="0" cy="0" gradientTransform="matrix(-.74086234 -2.91715242 1.72003594 -.43683348 12.9341 7.01981)" gradientUnits="userSpaceOnUse" r="1"><stop offset=".209349" stop-color="#ca926c"/><stop offset="1" stop-color="#e5b08e" stop-opacity="0"/></radialGradient><radialGradient id="l" cx="0" cy="0" gradientTransform="matrix(.59053314 2.00963175 -2.74221765 .80580454 9.17963 2.08757)" gradientUnits="userSpaceOnUse" r="1"><stop offset="0" stop-color="#cc9c7a"/><stop offset="1" stop-color="#e2af88" stop-opacity="0"/></radialGradient><radialGradient id="m" cx="0" cy="0" gradientTransform="matrix(-.3241169 22.64268035 -21.99844634 -.31489506 16.6384 5.21395)" gradientUnits="userSpaceOnUse" r="1"><stop offset="0" stop-color="#f2bb97"/><stop offset="1" stop-color="#db9997"/></radialGradient><linearGradient id="n" gradientUnits="userSpaceOnUse" x1="18.2487" x2="17.5623" y1="6.93405" y2="17.766"><stop offset="0" stop-color="#e9aa9c"/><stop offset="1" stop-color="#e9aa9c" stop-opacity="0"/></linearGradient><radialGradient id="o" cx="0" cy="0" gradientTransform="matrix(1.44964085 -2.10905126 1.82442275 1.25400354 18.8685 3.38154)" gradientUnits="userSpaceOnUse" r="1"><stop offset=".224366" stop-color="#ffd0ac"/><stop offset="1" stop-color="#ffd0ac" stop-opacity="0"/></radialGradient><linearGradient id="p"><stop offset="0" stop-color="#e3a49b"/><stop offset="1" stop-color="#e3a49b" stop-opacity="0"/></linearGradient><linearGradient id="q" gradientUnits="userSpaceOnUse" x1="19.5729" x2="19.3356" xlink:href="#p" y1="12.7408" y2="19.3957"/><linearGradient id="r"><stop offset=".224366" stop-color="#ffd1ac"/><stop offset="1" stop-color="#ffd1ac" stop-opacity="0"/></linearGradient><radialGradient id="s" cx="0" cy="0" gradientTransform="matrix(-.31566032 4.67937521 -2.19688715 -.14819716 20.4149 10.5276)" gradientUnits="userSpaceOnUse" r="1" xlink:href="#r"/><linearGradient id="t" gradientUnits="userSpaceOnUse" x1="23.0483" x2="22.7952" xlink:href="#p" y1="16.1947" y2="23.068"/><radialGradient id="u" cx="0" cy="0" gradientTransform="matrix(-.31566143 4.83338327 -2.19750857 -.14351618 23.8903 13.9086)" gradientUnits="userSpaceOnUse" r="1" xlink:href="#r"/><linearGradient id="v" gradientUnits="userSpaceOnUse" x1="25.8087" x2="25.5699" xlink:href="#p" y1="19.717" y2="26.3925"/><radialGradient id="w" cx="0" cy="0" gradientTransform="matrix(-.31566537 4.69396786 -2.19694781 -.14774288 26.6507 17.4969)" gradientUnits="userSpaceOnUse" r="1" xlink:href="#r"/><g filter="url(#a)"><path d="m9.58571 7.46017c.4 1.075.74999 2.53125.79689 3.09373l3.8204-5.57811c-.8749-1.92188-2.0845-2.74577-3.1639-2.8672-1.25004-.14063-2.39848.42188-2.79695 1.76565-.25778 1.38281.84356 2.24218 1.34356 3.58593z" fill="url(#j)"/><path d="m9.58571 7.46017c.4 1.075.74999 2.53125.79689 3.09373l3.8204-5.57811c-.8749-1.92188-2.0845-2.74577-3.1639-2.8672-1.25004-.14063-2.39848.42188-2.79695 1.76565-.25778 1.38281.84356 2.24218 1.34356 3.58593z" fill="url(#k)"/><path d="m9.58571 7.46017c.4 1.075.74999 2.53125.79689 3.09373l3.8204-5.57811c-.8749-1.92188-2.0845-2.74577-3.1639-2.8672-1.25004-.14063-2.39848.42188-2.79695 1.76565-.25778 1.38281.84356 2.24218 1.34356 3.58593z" fill="url(#l)"/></g><g filter="url(#b)"><path d="m14.4219 3.46016c.7828-1.2894 2.514-1.84394 3.8033-1.06116 1.2895.78277 1.7002 2.46261.9174 3.75201l-2.2516 3.7088c.7975-.29281 1.7183-.21875 2.4848.28079.9937.6477 1.4379 1.8217 1.2048 2.9163.6782-.114 1.3995.0165 2.0211.4217 1.0327.6731 1.483 1.904 1.2129 3.0382.5526-.0053 1.1172.1572 1.6427.5214 1.3125.8125 1.75 2.8906.8739 4.4589l-2.9637 4.3302c-.008.0122-.0158.0245-.0237.0367-4.3786 6.7667-11.8744 4.2629-16.30838-.982-3-3.975-1.65625-7.2188-.48425-9.0391l4.41013-6.74218z" fill="url(#m)"/></g><g filter="url(#c)"><rect fill="url(#n)" height="16.5149" rx="1.79852" transform="matrix(.8660254 .5 -.5 .8660254 3.329545 -7.832491)" width="3.59704" x="16.2804" y="2.29677"/><rect fill="url(#o)" height="16.5149" rx="1.79852" transform="matrix(.8660254 .5 -.5 .8660254 3.329545 -7.832491)" width="3.59704" x="16.2804" y="2.29677"/></g><g filter="url(#d)"><rect fill="url(#q)" height="10.1186" rx="1.9585" transform="matrix(.84130894 .54055459 -.54055459 .84130894 8.117137 -7.850572)" width="3.917" x="17.4294" y="9.89955"/><rect fill="url(#s)" height="10.1186" rx="1.9585" transform="matrix(.84130894 .54055459 -.54055459 .84130894 8.117137 -7.850572)" width="3.917" x="17.4294" y="9.89955"/></g><g filter="url(#e)"><rect fill="url(#t)" height="10.4516" rx="1.9585" transform="matrix(.84130894 .54055459 -.54055459 .84130894 10.48512 -9.196012)" width="3.917" x="20.9049" y="13.2599"/><rect fill="url(#u)" height="10.4516" rx="1.9585" transform="matrix(.84130894 .54055459 -.54055459 .84130894 10.48512 -9.196012)" width="3.917" x="20.9049" y="13.2599"/></g><g filter="url(#f)"><rect fill="url(#v)" height="10.1501" rx="1.9585" transform="matrix(.82439992 .56600774 -.56600774 .82439992 13.702424 -10.432914)" width="3.917" x="23.6653" y="16.8669"/><rect fill="url(#w)" height="10.1501" rx="1.9585" transform="matrix(.82439992 .56600774 -.56600774 .82439992 13.702424 -10.432914)" width="3.917" x="23.6653" y="16.8669"/></g><g filter="url(#g)"><ellipse cx="14.863" cy="12.7792" fill="#ce8767" rx=".178344" ry="2.7207" transform="matrix(.80727047 .59018165 -.59018165 .80727047 10.406588 -6.308941)"/><path d="m13.1392 15.137c.093.068.1906.0332.2127.0247.0346-.0132.0642-.0329.0848-.0479.0436-.0317.0929-.0771.1443-.1285.1047-.1048.2422-.2595.4018-.4502.3202-.3827.7405-.9237 1.1856-1.5326.4451-.6088.8331-1.1734 1.1006-1.5947.1333-.2099.2391-.3878.3072-.5194.0333-.0645.0616-.1253.0786-.1765.0081-.0242.0178-.0583.02-.0953.0013-.0236.0049-.1272-.0881-.1952s-.1905-.0331-.2127-.0247c-.0346.0133-.0641.0329-.0847.0479-.0436.0318-.093.0772-.1443.1286-.1047.1047-.2422.2595-.4018.4502-.3202.3827-.7405.9237-1.1857 1.5325-.4451.6089-.833 1.1735-1.1006 1.5947-.1333.2099-.239.3879-.3071.5195-.0334.0645-.0617.1253-.0787.1765-.008.0242-.0178.0583-.0199.0953-.0014.0236-.005.1271.088.1951z" stroke="#dd9d7e" stroke-width=".4"/></g><g filter="url(#h)"><ellipse cx="18.8162" cy="15.9402" fill="#dc9370" rx=".178344" ry="2.14451" transform="matrix(.80727047 .59018165 -.59018165 .80727047 13.034051 -8.032829)"/><path d="m17.4325 17.8329c.0756.0552.1555.0427.1894.0339.0372-.0096.068-.0266.0885-.0392.0427-.0264.0878-.0641.1313-.1043.0894-.0825.2033-.2045.3325-.3535.2597-.2996.5957-.7252.9474-1.2063s.6553-.9304.862-1.2688c.1028-.1683.1845-.3138.236-.424.0251-.0537.0474-.1081.0596-.1568.0058-.0233.0126-.0578.0105-.0962-.0019-.035-.0142-.1149-.0898-.1702-.0756-.0552-.1555-.0427-.1894-.0339-.0372.0096-.0681.0266-.0885.0392-.0427.0264-.0878.0641-.1313.1043-.0894.0825-.2033.2045-.3325.3535-.2597.2996-.5957.7253-.9474 1.2063-.3517.4811-.6554.9304-.862 1.2688-.1028.1683-.1845.3138-.236.424-.0251.0537-.0474.1081-.0596.1568-.0058.0233-.0127.0578-.0105.0962.0019.035.0142.1149.0898.1702z" stroke="#e5a27f" stroke-width=".4"/></g><g filter="url(#i)"><ellipse cx="21.83" cy="18.9264" fill="#dc9370" rx=".178344" ry="1.7269" transform="matrix(.80727047 .59018165 -.59018165 .80727047 15.3773 -9.235989)"/><path d="m20.6928 20.482c.0617.0451.1277.0457.167.04.0385-.0057.0705-.0196.0917-.0305.0432-.022.086-.0543.1243-.0866.0792-.0667.1764-.1653.2838-.2843.2164-.2397.4917-.5822.7758-.9709.2842-.3887.527-.7549.6898-1.0338.0808-.1384.1452-.261.1848-.3566.0191-.0463.0369-.0969.0448-.1448.0039-.0235.0075-.0581.0012-.0965-.0064-.0393-.027-.1019-.0888-.1471-.0618-.0451-.1277-.0458-.1671-.04-.0385.0057-.0704.0196-.0916.0305-.0432.022-.086.0543-.1243.0866-.0792.0667-.1765.1653-.2838.2843-.2164.2397-.4917.5822-.7758.9708-.2842.3887-.527.7549-.6898 1.0338-.0808.1384-.1453.261-.1848.3567-.0191.0463-.0369.0969-.0448.1447-.0039.0235-.0075.0582-.0012.0966.0064.0392.027.1019.0888.1471z" stroke="#e5a27f" stroke-width=".4"/></g></svg>