<svg fill="none" height="32" viewBox="0 0 32 32" width="32" xmlns="http://www.w3.org/2000/svg"><path d="m26.7135 2c0 1.20408-.4346 2.28571-1.1459 3.12245.8891 1.06122 1.4324 2.43877 1.4324 3.93877 0 1.52838-.3069 2.72798-.8602 3.66718.554 1.3133.8602 2.7567.8602 4.2716 0 4.248-2.408 7.9336-5.9335 9.7663l.121 1.2337-5.2284.5308-5.1505-.5308.1234-1.2345c-3.52469-1.8329-5.932-5.5181-5.932-9.7655 0-1.5456.31877-3.0168.89416-4.3513-.52426-.9271-.81414-2.102-.81414-3.58748 0-1.5.5433-2.87755 1.43235-3.93877-.71124-.83674-1.14588-1.92857-1.14588-3.12245h5.64841c1.0767 0 1.9875.35714 2.7679 1h4.5045c.7804-.64286 1.6335-1 2.7103-1z" fill="#6d4534"/><path d="m7.83934 14.5959c1.94007 1.1451 4.73466 1.4041 7.83026 1.4041h.7408c3.061 0 5.8276-.2533 7.7648-1.3659.2949.8584.4548 1.7786.4548 2.7359 0 4.6938-3.86 10.63-8.63 10.63s-8.63-5.9362-8.63-10.63c0-.9709.16515-1.9043.46934-2.7741z" fill="#ffdea7"/><path d="m14.5448 13h2.9904c0-.8269-.6635-1.4904-1.4904-1.5-.8269 0-1.5.6731-1.5 1.5z" fill="#ff822d"/><path d="m16 28c1.8301 0 3.5558-.447 5.074-1.2376.4692.7363.7828 1.5816.895 2.489.0509.4111-.2898.7486-.704.7486h-10.53c-.4142 0-.75493-.3375-.7039-.7485.1125-.907.4269-1.7519.897-2.488 1.5177.79 3.2426 1.2365 5.0719 1.2365z" fill="#ff822d"/><path d="m14 9c0 2.2091-1.7909 4-4 4-2.20914 0-4-1.7909-4-4 0-2.20914 1.79086-4 4-4 2.2091 0 4 1.79086 4 4z" fill="#1c1c1c"/><path d="m26 9c0 2.2091-1.7909 4-4 4s-4-1.7909-4-4c0-2.20914 1.7909-4 4-4s4 1.79086 4 4z" fill="#1c1c1c"/><path d="m13.7481 9.51389c0 1.82521-1.4796 3.30481-3.3048 3.30481-1.82521 0-3.30481-1.4796-3.30481-3.30481 0-1.82518 1.4796-3.30478 3.30481-3.30478 1.8252 0 3.3048 1.4796 3.3048 3.30478z" fill="#fcd53f"/><path d="m24.8413 9.51389c0 1.82521-1.4796 3.30481-3.3048 3.30481-1.8251 0-3.3047-1.4796-3.3047-3.30481 0-1.82518 1.4796-3.30478 3.3047-3.30478 1.8252 0 3.3048 1.4796 3.3048 3.30478z" fill="#fcd53f"/><g fill="#533566"><path d="m12.4785 9.5139c0 1.124-.9112 2.0353-2.0352 2.0353-1.12406 0-2.03528-.9113-2.03528-2.0353 0-1.12404.91122-2.03526 2.03528-2.03526 1.124 0 2.0352.91122 2.0352 2.03526z"/><path d="m23.5717 9.5139c0 1.124-.9112 2.0353-2.0352 2.0353-1.1241 0-2.0353-.9113-2.0353-2.0353 0-1.12404.9112-2.03526 2.0353-2.03526 1.124 0 2.0352.91122 2.0352 2.03526z"/></g></svg>