<svg enable-background="new 0 0 128 128" viewBox="0 0 128 128" xmlns="http://www.w3.org/2000/svg"><g transform="scale(4)"><path d="m10.0179 14h11.9642c1.1165 0 2.0179-.9503 2.0179-2.1274v-5.74517c0-1.17711-.9014-2.12743-2.0179-2.12743h-11.9642c-1.11649 0-2.0179.95032-2.0179 2.12743v5.73437c0 1.1879.90141 2.1382 2.0179 2.1382z" fill="#433b6b"/><path d="m26 9h-20l-1 8 1 8h20l1-8z" fill="#635994"/><path d="m23.0093 20h-14.00814c-1.1059 0-2.00116.8854-2.00116 1.9792v3.0208h17.9999v-3.0208c.0105-1.0938-.8847-1.9792-1.9906-1.9792z" fill="#1c1c1c"/><path d="m21.3991 30h-10.788c-.88714 0-1.6111-.6961-1.6111-1.549v-8.451h14v8.451c0 .8529-.7138 1.549-1.6009 1.549z" fill="#433b6b"/><path d="m20.5053 2h-9.0106c-.8221 0-1.4947.588-1.4947 1.30667v5.69333h12v-5.69333c0-.71867-.6726-1.30667-1.4947-1.30667zm-16.13818 7h1.63288v16h-1.63288c-1.30411 0-2.36712-.9968-2.36712-2.2197v-11.5606c0-1.23319 1.06301-2.2197 2.36712-2.2197zm23.26578 0h-1.6329v16h1.6329c1.3041 0 2.3671-.9968 2.3671-2.2197v-11.5606c0-1.23319-1.0521-2.2197-2.3671-2.2197zm-16.1382 19h9.0106c.8221 0 1.4947-.6231 1.4947-1.397v-6.603h-12v6.593c0 .7738.6726 1.407 1.4947 1.407z" fill="#d3d3d3"/><path d="m28 17c.5523 0 1-.4477 1-1s-.4477-1-1-1-1 .4477-1 1 .4477 1 1 1zm-16 4c-.2761 0-.5.2239-.5.5s.2239.5.5.5h8c.2761 0 .5-.2239.5-.5s-.2239-.5-.5-.5zm-.5 2.5c0-.2761.2239-.5.5-.5h8c.2761 0 .5.2239.5.5s-.2239.5-.5.5h-8c-.2761 0-.5-.2239-.5-.5zm0 2c0-.2761.2239-.5.5-.5h8c.2761 0 .5.2239.5.5s-.2239.5-.5.5h-8c-.2761 0-.5-.2239-.5-.5zm17.5-6.5c0 .5523-.4477 1-1 1s-1-.4477-1-1 .4477-1 1-1 1 .4477 1 1z" fill="#9b9b9b"/><path d="m19 16h-5c-.5545 0-1 .4455-1 1s.4455 1 1 1h5c.5545 0 1-.4455 1-1s-.4455-1-1-1z" fill="#1c1c1c"/><path d="m28 23c.5523 0 1-.4477 1-1s-.4477-1-1-1-1 .4477-1 1 .4477 1 1 1z" fill="#f70a8d"/></g></svg>