<svg fill="none" height="32" viewBox="0 0 32 32" width="32" xmlns="http://www.w3.org/2000/svg" xmlns:xlink="http://www.w3.org/1999/xlink"><filter id="a" color-interpolation-filters="sRGB" filterUnits="userSpaceOnUse" height="7.3468" width="6.8468" x="12.7017" y="1.33643"><feFlood flood-opacity="0" result="BackgroundImageFix"/><feBlend in="SourceGraphic" in2="BackgroundImageFix" mode="normal" result="shape"/><feColorMatrix in="SourceAlpha" result="hardAlpha" type="matrix" values="0 0 0 0 0 0 0 0 0 0 0 0 0 0 0 0 0 0 127 0"/><feOffset dx=".25" dy="-.75"/><feGaussianBlur stdDeviation=".75"/><feComposite in2="hardAlpha" k2="-1" k3="1" operator="arithmetic"/><feColorMatrix type="matrix" values="0 0 0 0 0.886275 0 0 0 0 0.698039 0 0 0 0 0.607843 0 0 0 1 0"/><feBlend in2="shape" mode="normal" result="effect1_innerShadow_4002_180"/></filter><filter id="b" color-interpolation-filters="sRGB" filterUnits="userSpaceOnUse" height="8.02795" width="2.31108" x="11.4028" y="12.4683"><feFlood flood-opacity="0" result="BackgroundImageFix"/><feBlend in="SourceGraphic" in2="BackgroundImageFix" mode="normal" result="shape"/><feColorMatrix in="SourceAlpha" result="hardAlpha" type="matrix" values="0 0 0 0 0 0 0 0 0 0 0 0 0 0 0 0 0 0 127 0"/><feOffset dx=".2"/><feGaussianBlur stdDeviation=".1"/><feComposite in2="hardAlpha" k2="-1" k3="1" operator="arithmetic"/><feColorMatrix type="matrix" values="0 0 0 0 0.909804 0 0 0 0 0.682353 0 0 0 0 0.564706 0 0 0 1 0"/><feBlend in2="shape" mode="normal" result="effect1_innerShadow_4002_180"/></filter><filter id="c" color-interpolation-filters="sRGB" filterUnits="userSpaceOnUse" height="7.03186" width="1.43741" x="19.1177" y="11.6794"><feFlood flood-opacity="0" result="BackgroundImageFix"/><feBlend in="SourceGraphic" in2="BackgroundImageFix" mode="normal" result="shape"/><feGaussianBlur result="effect1_foregroundBlur_4002_180" stdDeviation=".25"/></filter><filter id="d" color-interpolation-filters="sRGB" filterUnits="userSpaceOnUse" height="12.4531" width="6.16875" x="13.0156" y="15.8628"><feFlood flood-opacity="0" result="BackgroundImageFix"/><feBlend in="SourceGraphic" in2="BackgroundImageFix" mode="normal" result="shape"/><feColorMatrix in="SourceAlpha" result="hardAlpha" type="matrix" values="0 0 0 0 0 0 0 0 0 0 0 0 0 0 0 0 0 0 127 0"/><feOffset dx=".2"/><feGaussianBlur stdDeviation=".4"/><feComposite in2="hardAlpha" k2="-1" k3="1" operator="arithmetic"/><feColorMatrix type="matrix" values="0 0 0 0 0.486275 0 0 0 0 0.462745 0 0 0 0 0.505882 0 0 0 1 0"/><feBlend in2="shape" mode="normal" result="effect1_innerShadow_4002_180"/></filter><filter id="e" color-interpolation-filters="sRGB" filterUnits="userSpaceOnUse" height="7.69375" width="6.51719" x="12.9414" y="8.31982"><feFlood flood-opacity="0" result="BackgroundImageFix"/><feBlend in="SourceGraphic" in2="BackgroundImageFix" mode="normal" result="shape"/><feColorMatrix in="SourceAlpha" result="hardAlpha" type="matrix" values="0 0 0 0 0 0 0 0 0 0 0 0 0 0 0 0 0 0 127 0"/><feOffset dx=".4" dy=".1"/><feGaussianBlur stdDeviation=".4"/><feComposite in2="hardAlpha" k2="-1" k3="1" operator="arithmetic"/><feColorMatrix type="matrix" values="0 0 0 0 0.439216 0 0 0 0 0.380392 0 0 0 0 0.580392 0 0 0 1 0"/><feBlend in2="shape" mode="normal" result="effect1_innerShadow_4002_180"/></filter><filter id="f" color-interpolation-filters="sRGB" filterUnits="userSpaceOnUse" height="1.84766" width="3.31641" x="12.4336" y="28.3159"><feFlood flood-opacity="0" result="BackgroundImageFix"/><feBlend in="SourceGraphic" in2="BackgroundImageFix" mode="normal" result="shape"/><feColorMatrix in="SourceAlpha" result="hardAlpha" type="matrix" values="0 0 0 0 0 0 0 0 0 0 0 0 0 0 0 0 0 0 127 0"/><feOffset dx=".25" dy=".25"/><feGaussianBlur stdDeviation=".25"/><feComposite in2="hardAlpha" k2="-1" k3="1" operator="arithmetic"/><feColorMatrix type="matrix" values="0 0 0 0 0.313726 0 0 0 0 0.235294 0 0 0 0 0.431373 0 0 0 1 0"/><feBlend in2="shape" mode="normal" result="effect1_innerShadow_4002_180"/></filter><filter id="g" color-interpolation-filters="sRGB" filterUnits="userSpaceOnUse" height="13.7656" width="6.59375" x="12.8411" y="15.2339"><feFlood flood-opacity="0" result="BackgroundImageFix"/><feBlend in="SourceGraphic" in2="BackgroundImageFix" mode="normal" result="shape"/><feGaussianBlur result="effect1_foregroundBlur_4002_180" stdDeviation=".5"/></filter><filter id="h" color-interpolation-filters="sRGB" filterUnits="userSpaceOnUse" height="1.66357" width="1.5636" x="13.2349" y="5.12561"><feFlood flood-opacity="0" result="BackgroundImageFix"/><feBlend in="SourceGraphic" in2="BackgroundImageFix" mode="normal" result="shape"/><feColorMatrix in="SourceAlpha" result="hardAlpha" type="matrix" values="0 0 0 0 0 0 0 0 0 0 0 0 0 0 0 0 0 0 127 0"/><feOffset dx=".15" dy=".25"/><feGaussianBlur stdDeviation=".25"/><feComposite in2="hardAlpha" k2="-1" k3="1" operator="arithmetic"/><feColorMatrix type="matrix" values="0 0 0 0 0.858824 0 0 0 0 0.635294 0 0 0 0 0.533333 0 0 0 1 0"/><feBlend in2="shape" mode="normal" result="effect1_innerShadow_4002_180"/></filter><filter id="i" color-interpolation-filters="sRGB" filterUnits="userSpaceOnUse" height="1.66357" width="1.4136" x="17.4136" y="4.87561"><feFlood flood-opacity="0" result="BackgroundImageFix"/><feBlend in="SourceGraphic" in2="BackgroundImageFix" mode="normal" result="shape"/><feColorMatrix in="SourceAlpha" result="hardAlpha" type="matrix" values="0 0 0 0 0 0 0 0 0 0 0 0 0 0 0 0 0 0 127 0"/><feOffset dy="-.25"/><feGaussianBlur stdDeviation=".25"/><feComposite in2="hardAlpha" k2="-1" k3="1" operator="arithmetic"/><feColorMatrix type="matrix" values="0 0 0 0 0.827451 0 0 0 0 0.568627 0 0 0 0 0.505882 0 0 0 1 0"/><feBlend in2="shape" mode="normal" result="effect1_innerShadow_4002_180"/></filter><filter id="j" color-interpolation-filters="sRGB" filterUnits="userSpaceOnUse" height="1.9436" width="1.9436" x="17.1487" y="4.8606"><feFlood flood-opacity="0" result="BackgroundImageFix"/><feBlend in="SourceGraphic" in2="BackgroundImageFix" mode="normal" result="shape"/><feGaussianBlur result="effect1_foregroundBlur_4002_180" stdDeviation=".25"/></filter><filter id="k" color-interpolation-filters="sRGB" filterUnits="userSpaceOnUse" height="1.7436" width="1.7436" x="13.0785" y="4.9606"><feFlood flood-opacity="0" result="BackgroundImageFix"/><feBlend in="SourceGraphic" in2="BackgroundImageFix" mode="normal" result="shape"/><feGaussianBlur result="effect1_foregroundBlur_4002_180" stdDeviation=".2"/></filter><filter id="l" color-interpolation-filters="sRGB" filterUnits="userSpaceOnUse" height="4.87771" width="4.47641" x="13.7617" y="3.677"><feFlood flood-opacity="0" result="BackgroundImageFix"/><feBlend in="SourceGraphic" in2="BackgroundImageFix" mode="normal" result="shape"/><feColorMatrix in="SourceAlpha" result="hardAlpha" type="matrix" values="0 0 0 0 0 0 0 0 0 0 0 0 0 0 0 0 0 0 127 0"/><feOffset dy=".1"/><feGaussianBlur stdDeviation=".075"/><feComposite in2="hardAlpha" k2="-1" k3="1" operator="arithmetic"/><feColorMatrix type="matrix" values="0 0 0 0 0.745098 0 0 0 0 0.486275 0 0 0 0 0.384314 0 0 0 1 0"/><feBlend in2="shape" mode="normal" result="effect1_innerShadow_4002_180"/></filter><filter id="m" color-interpolation-filters="sRGB" filterUnits="userSpaceOnUse" height="2.17798" width="1.82462" x="15.0164" y="5.11047"><feFlood flood-opacity="0" result="BackgroundImageFix"/><feBlend in="SourceGraphic" in2="BackgroundImageFix" mode="normal" result="shape"/><feGaussianBlur result="effect1_foregroundBlur_4002_180" stdDeviation=".25"/></filter><filter id="n" color-interpolation-filters="sRGB" filterUnits="userSpaceOnUse" height="1.37798" width="1.02462" x="15.4876" y="5.44968"><feFlood flood-opacity="0" result="BackgroundImageFix"/><feBlend in="SourceGraphic" in2="BackgroundImageFix" mode="normal" result="shape"/><feGaussianBlur result="effect1_foregroundBlur_4002_180" stdDeviation=".05"/></filter><filter id="o" color-interpolation-filters="sRGB" filterUnits="userSpaceOnUse" height=".89458" width="1.85067" x="15.0746" y="6.75156"><feFlood flood-opacity="0" result="BackgroundImageFix"/><feBlend in="SourceGraphic" in2="BackgroundImageFix" mode="normal" result="shape"/><feGaussianBlur result="effect1_foregroundBlur_4002_180" stdDeviation=".05"/></filter><filter id="p" color-interpolation-filters="sRGB" filterUnits="userSpaceOnUse" height=".564575" width="1.43053" x="16.3016" y="5.21545"><feFlood flood-opacity="0" result="BackgroundImageFix"/><feBlend in="SourceGraphic" in2="BackgroundImageFix" mode="normal" result="shape"/><feColorMatrix in="SourceAlpha" result="hardAlpha" type="matrix" values="0 0 0 0 0 0 0 0 0 0 0 0 0 0 0 0 0 0 127 0"/><feOffset dx="-.2"/><feGaussianBlur stdDeviation=".2"/><feComposite in2="hardAlpha" k2="-1" k3="1" operator="arithmetic"/><feColorMatrix type="matrix" values="0 0 0 0 0.141176 0 0 0 0 0.0862745 0 0 0 0 0.176471 0 0 0 1 0"/><feBlend in2="shape" mode="normal" result="effect1_innerShadow_4002_180"/></filter><filter id="q" color-interpolation-filters="sRGB" filterUnits="userSpaceOnUse" height=".564575" width="1.43053" x="14.2678" y="5.21545"><feFlood flood-opacity="0" result="BackgroundImageFix"/><feBlend in="SourceGraphic" in2="BackgroundImageFix" mode="normal" result="shape"/><feColorMatrix in="SourceAlpha" result="hardAlpha" type="matrix" values="0 0 0 0 0 0 0 0 0 0 0 0 0 0 0 0 0 0 127 0"/><feOffset dx=".2"/><feGaussianBlur stdDeviation=".125"/><feComposite in2="hardAlpha" k2="-1" k3="1" operator="arithmetic"/><feColorMatrix type="matrix" values="0 0 0 0 0.133333 0 0 0 0 0.0784314 0 0 0 0 0.168627 0 0 0 1 0"/><feBlend in2="shape" mode="normal" result="effect1_innerShadow_4002_180"/></filter><filter id="r" color-interpolation-filters="sRGB" filterUnits="userSpaceOnUse" height=".591357" width="1.18953" x="14.3271" y="4.47798"><feFlood flood-opacity="0" result="BackgroundImageFix"/><feBlend in="SourceGraphic" in2="BackgroundImageFix" mode="normal" result="shape"/><feColorMatrix in="SourceAlpha" result="hardAlpha" type="matrix" values="0 0 0 0 0 0 0 0 0 0 0 0 0 0 0 0 0 0 127 0"/><feOffset dx=".2" dy="-.2"/><feGaussianBlur stdDeviation=".15"/><feComposite in2="hardAlpha" k2="-1" k3="1" operator="arithmetic"/><feColorMatrix type="matrix" values="0 0 0 0 0.47451 0 0 0 0 0.262745 0 0 0 0 0.164706 0 0 0 1 0"/><feBlend in2="shape" mode="normal" result="effect1_innerShadow_4002_180"/></filter><filter id="s" color-interpolation-filters="sRGB" filterUnits="userSpaceOnUse" height=".591357" width="1.18953" x="16.7068" y="4.47798"><feFlood flood-opacity="0" result="BackgroundImageFix"/><feBlend in="SourceGraphic" in2="BackgroundImageFix" mode="normal" result="shape"/><feColorMatrix in="SourceAlpha" result="hardAlpha" type="matrix" values="0 0 0 0 0 0 0 0 0 0 0 0 0 0 0 0 0 0 127 0"/><feOffset dx=".2" dy="-.2"/><feGaussianBlur stdDeviation=".15"/><feComposite in2="hardAlpha" k2="-1" k3="1" operator="arithmetic"/><feColorMatrix type="matrix" values="0 0 0 0 0.47451 0 0 0 0 0.262745 0 0 0 0 0.164706 0 0 0 1 0"/><feBlend in2="shape" mode="normal" result="effect1_innerShadow_4002_180"/></filter><filter id="t" color-interpolation-filters="sRGB" filterUnits="userSpaceOnUse" height=".417896" width=".457751" x="16.58" y="5.3209"><feFlood flood-opacity="0" result="BackgroundImageFix"/><feBlend in="SourceGraphic" in2="BackgroundImageFix" mode="normal" result="shape"/><feGaussianBlur result="effect1_foregroundBlur_4002_180" stdDeviation=".05"/></filter><filter id="u" color-interpolation-filters="sRGB" filterUnits="userSpaceOnUse" height=".625464" width=".615759" x="16.8928" y="5.2978"><feFlood flood-opacity="0" result="BackgroundImageFix"/><feBlend in="SourceGraphic" in2="BackgroundImageFix" mode="normal" result="shape"/><feGaussianBlur result="effect1_foregroundBlur_4002_180" stdDeviation=".1"/></filter><filter id="v" color-interpolation-filters="sRGB" filterUnits="userSpaceOnUse" height=".68125" width=".657538" x="14.9411" y="5.26997"><feFlood flood-opacity="0" result="BackgroundImageFix"/><feBlend in="SourceGraphic" in2="BackgroundImageFix" mode="normal" result="shape"/><feGaussianBlur result="effect1_foregroundBlur_4002_180" stdDeviation=".1"/></filter><filter id="w" color-interpolation-filters="sRGB" filterUnits="userSpaceOnUse" height=".421558" width=".513232" x="14.6656" y="5.31736"><feFlood flood-opacity="0" result="BackgroundImageFix"/><feBlend in="SourceGraphic" in2="BackgroundImageFix" mode="normal" result="shape"/><feGaussianBlur result="effect1_foregroundBlur_4002_180" stdDeviation=".05"/></filter><filter id="x" color-interpolation-filters="sRGB" filterUnits="userSpaceOnUse" height="2.26682" width="1.84388" x="13.2702" y="2.76582"><feFlood flood-opacity="0" result="BackgroundImageFix"/><feBlend in="SourceGraphic" in2="BackgroundImageFix" mode="normal" result="shape"/><feGaussianBlur result="effect1_foregroundBlur_4002_180" stdDeviation=".1"/></filter><filter id="y" color-interpolation-filters="sRGB" filterUnits="userSpaceOnUse" height="2.51934" width="3.89598" x="14.5526" y="2.29551"><feFlood flood-opacity="0" result="BackgroundImageFix"/><feBlend in="SourceGraphic" in2="BackgroundImageFix" mode="normal" result="shape"/><feGaussianBlur result="effect1_foregroundBlur_4002_180" stdDeviation=".05"/></filter><linearGradient id="z" gradientUnits="userSpaceOnUse" x1="18.0616" x2="15.0724" y1="2.77851" y2="8.31511"><stop offset="0" stop-color="#ffffbe"/><stop offset="1" stop-color="#e5ae90"/></linearGradient><radialGradient id="A" cx="0" cy="0" gradientTransform="matrix(.76570043 -1.59030471 3.62599276 1.74584417 18.0616 8.38873)" gradientUnits="userSpaceOnUse" r="1"><stop offset="0" stop-color="#f9bfa4"/><stop offset="1" stop-color="#ffc3a8" stop-opacity="0"/></radialGradient><radialGradient id="B" cx="0" cy="0" gradientTransform="matrix(-.82950175 2.39897828 -2.24559844 -.77646715 15.7056 6.60701)" gradientUnits="userSpaceOnUse" r="1"><stop offset=".619534" stop-color="#c7897d"/><stop offset="1" stop-color="#c7897d" stop-opacity="0"/></radialGradient><radialGradient id="C" cx="0" cy="0" gradientTransform="matrix(-1.38414358 1.07492926 -1.32318141 -1.70380799 14.6307 7.04876)" gradientUnits="userSpaceOnUse" r="1"><stop offset=".205322" stop-color="#cf987b"/><stop offset="1" stop-color="#cf987b" stop-opacity="0"/></radialGradient><radialGradient id="D" cx="0" cy="0" gradientTransform="matrix(-.44914524 .64054128 -.58222265 -.40825242 13.8723 5.92966)" gradientUnits="userSpaceOnUse" r="1"><stop offset=".333546" stop-color="#c58e72"/><stop offset="1" stop-color="#c58e72" stop-opacity="0"/></radialGradient><radialGradient id="E" cx="0" cy="0" gradientTransform="matrix(-1.02338966 -.22822964 .33549994 -1.50439344 14.1079 5.2744)" gradientUnits="userSpaceOnUse" r="1"><stop offset=".225789" stop-color="#c49070"/><stop offset="1" stop-color="#c49070" stop-opacity="0"/></radialGradient><radialGradient id="F" cx="0" cy="0" gradientTransform="matrix(.9497972 1.39151053 -2.42837897 1.65752791 14.314 2.5061)" gradientUnits="userSpaceOnUse" r="1"><stop offset="0" stop-color="#dcc893"/><stop offset="1" stop-color="#dcc893" stop-opacity="0"/></radialGradient><radialGradient id="G" cx="0" cy="0" gradientTransform="matrix(-.48592093 .53010387 -.74080835 -.67906368 18.415 3.30861)" gradientUnits="userSpaceOnUse" r="1"><stop offset="0" stop-color="#ffffbf"/><stop offset="1" stop-color="#ffffbf" stop-opacity="0"/></radialGradient><radialGradient id="H" cx="0" cy="0" gradientTransform="matrix(-.80983884 .23560184 -.5126392 -1.76210479 19.2985 5.45846)" gradientUnits="userSpaceOnUse" r="1"><stop offset="0" stop-color="#fffabe"/><stop offset="1" stop-color="#fffabe" stop-opacity="0"/></radialGradient><radialGradient id="I" cx="0" cy="0" gradientTransform="matrix(-1.38415491 .5889935 -.93844434 -2.20537635 19.1807 6.68063)" gradientUnits="userSpaceOnUse" r="1"><stop offset="0" stop-color="#fff4bc"/><stop offset="1" stop-color="#fff4bc" stop-opacity="0"/></radialGradient><radialGradient id="J" cx="0" cy="0" gradientTransform="matrix(.37109352 -.30859359 .27427508 .32982443 18.9596 19.7576)" gradientUnits="userSpaceOnUse" r="1"><stop offset="0" stop-color="#c2807d"/><stop offset="1" stop-color="#c6856b"/></radialGradient><radialGradient id="K" cx="0" cy="0" gradientTransform="matrix(-1.84375 0 0 -12.369 13.3567 16.4823)" gradientUnits="userSpaceOnUse" r="1"><stop offset=".1375" stop-color="#9c5f5c"/><stop offset="1" stop-color="#9c5f5c" stop-opacity="0"/></radialGradient><radialGradient id="L" cx="0" cy="0" gradientTransform="matrix(1.60938 0 0 15.4135 18.8723 16.4823)" gradientUnits="userSpaceOnUse" r="1"><stop offset=".101266" stop-color="#d27e6a"/><stop offset="1" stop-color="#d27e6a" stop-opacity="0"/></radialGradient><radialGradient id="M" cx="0" cy="0" gradientTransform="matrix(.18359386 -.56250059 .39910654 .13026388 19.319 18.8765)" gradientUnits="userSpaceOnUse" r="1"><stop offset="0" stop-color="#c07874"/><stop offset="1" stop-color="#c07874" stop-opacity="0"/></radialGradient><radialGradient id="N" cx="0" cy="0" gradientTransform="matrix(-.54686244 1.78125395 -.87652175 -.26910078 13.2515 11.4116)" gradientUnits="userSpaceOnUse" r="1"><stop offset=".270362" stop-color="#4a367d"/><stop offset="1" stop-color="#4a367d" stop-opacity="0"/></radialGradient><radialGradient id="O" cx="0" cy="0" gradientTransform="matrix(-3.84619 0 0 -3.93164 15.3765 12.3745)" gradientUnits="userSpaceOnUse" r="1"><stop offset=".865304" stop-color="#645b87" stop-opacity="0"/><stop offset="1" stop-color="#645b87"/></radialGradient><radialGradient id="P" cx="0" cy="0" gradientTransform="matrix(-1.51586551 1.2382935 -.95062679 -1.16371632 14.562 8.68311)" gradientUnits="userSpaceOnUse" r="1"><stop offset="0" stop-color="#5e4f7e"/><stop offset="1" stop-color="#5e4f7e" stop-opacity="0"/></radialGradient><linearGradient id="Q" gradientUnits="userSpaceOnUse" x1="12.4661" x2="12.4661" y1="12.6323" y2="12.4741"><stop offset="0" stop-color="#482f7c"/><stop offset="1" stop-color="#655690" stop-opacity="0"/></linearGradient><radialGradient id="R" cx="0" cy="0" gradientTransform="matrix(1.08227682 -.29101581 1.20717603 4.48944208 18.7942 11.8276)" gradientUnits="userSpaceOnUse" r="1"><stop offset=".251131" stop-color="#624da1"/><stop offset="1" stop-color="#7361ab" stop-opacity="0"/></radialGradient><linearGradient id="S" gradientUnits="userSpaceOnUse" x1="19.7473" x2="19.7473" y1="12.6323" y2="12.394"><stop offset="0" stop-color="#503a89"/><stop offset="1" stop-color="#6c5ca2" stop-opacity="0"/></linearGradient><linearGradient id="T" gradientUnits="userSpaceOnUse" x1="16" x2="16" y1="15.8628" y2="16.2964"><stop offset="0" stop-color="#856988"/><stop offset="1" stop-color="#856988" stop-opacity="0"/></linearGradient><radialGradient id="U" cx="0" cy="0" gradientTransform="matrix(0 -.359375 1.91919 0 16 17.9526)" gradientUnits="userSpaceOnUse" r="1"><stop offset="0" stop-color="#6a597b"/><stop offset="1" stop-color="#6a597b" stop-opacity="0"/></radialGradient><linearGradient id="V"><stop offset="0" stop-color="#aa9ba7"/><stop offset="1" stop-color="#aa9ba7" stop-opacity="0"/></linearGradient><radialGradient id="W" cx="0" cy="0" gradientTransform="matrix(0 -.269531 1.85938 0 18.0754 28.3159)" gradientUnits="userSpaceOnUse" r="1" xlink:href="#V"/><radialGradient id="X" cx="0" cy="0" gradientTransform="matrix(0 -.328125 1.20581 0 14.7942 28.4058)" gradientUnits="userSpaceOnUse" r="1" xlink:href="#V"/><linearGradient id="Y" gradientUnits="userSpaceOnUse" x1="16" x2="16" y1="8.95264" y2="15.9136"><stop offset="0" stop-color="#8467c1"/><stop offset="1" stop-color="#7759b9"/></linearGradient><radialGradient id="Z" cx="0" cy="0" gradientTransform="matrix(-1.93749598 1.62500318 -2.522137 -3.00715122 18.4036 9.60889)" gradientUnits="userSpaceOnUse" r="1"><stop offset="0" stop-color="#9e85d7"/><stop offset="1" stop-color="#886cc6" stop-opacity="0"/></radialGradient><linearGradient id="aa" gradientUnits="userSpaceOnUse" x1="17.1733" x2="17.1733" y1="15.9136" y2="15.6538"><stop offset=".0676692" stop-color="#614699"/><stop offset="1" stop-color="#7c63b5" stop-opacity="0"/></linearGradient><radialGradient id="ab" cx="0" cy="0" gradientTransform="matrix(-.9218811 -7.88477013 10.52053569 -1.23005272 16.4233 15.7964)" gradientUnits="userSpaceOnUse" r="1"><stop offset=".849882" stop-color="#4b3677" stop-opacity="0"/><stop offset=".966845" stop-color="#271a45"/></radialGradient><radialGradient id="ac" cx="0" cy="0" gradientTransform="matrix(0 1.11133 -1.40894 0 16 8.3374)" gradientUnits="userSpaceOnUse" r="1"><stop offset=".637961" stop-color="#d0958c"/><stop offset="1" stop-color="#d69a8c"/></radialGradient><radialGradient id="ad" cx="0" cy="0" gradientTransform="matrix(0 .898437 -.283691 0 15.1289 8.13818)" gradientUnits="userSpaceOnUse" r="1"><stop offset="0" stop-color="#d79d88"/><stop offset="1" stop-color="#d79d88" stop-opacity="0"/></radialGradient><linearGradient id="ae" gradientUnits="userSpaceOnUse" x1="18.2473" x2="16.5" y1="29.5776" y2="29.3745"><stop offset="0" stop-color="#5a3f7c"/><stop offset="1" stop-color="#462f5e"/></linearGradient><radialGradient id="af" cx="0" cy="0" gradientTransform="matrix(-1.66284028 -.843753 .32902774 -.6484369 19.5664 29.2651)" gradientUnits="userSpaceOnUse" r="1"><stop offset="0" stop-color="#635185"/><stop offset="1" stop-color="#635185" stop-opacity="0"/></radialGradient><linearGradient id="ag"><stop offset=".00558659" stop-color="#ccc"/><stop offset="1" stop-color="#e6e6e6"/></linearGradient><linearGradient id="ah" gradientUnits="userSpaceOnUse" x1="12.8655" x2="19.1372" xlink:href="#ag" y1="7.82053" y2="7.82053"/><linearGradient id="ai" gradientUnits="userSpaceOnUse" x1="12.8656" x2="19.1372" xlink:href="#ag" y1="7.80731" y2="7.80731"/><linearGradient id="aj" gradientUnits="userSpaceOnUse" x1="13.2349" x2="14.5348" y1="5.8707" y2="5.8707"><stop offset="0" stop-color="#c48b78"/><stop offset="1" stop-color="#b47860"/></linearGradient><radialGradient id="ak" cx="0" cy="0" gradientTransform="matrix(1.09333154 -.49696992 .60677686 1.3349063 17.7744 6.02531)" gradientUnits="userSpaceOnUse" r="1"><stop offset=".572298" stop-color="#e1a792"/><stop offset=".904617" stop-color="#f6c3a3"/></radialGradient><radialGradient id="al" cx="0" cy="0" gradientTransform="matrix(.43806838 .12516243 -.06580287 .23030998 18.2234 5.04979)" gradientUnits="userSpaceOnUse" r="1"><stop offset="0" stop-color="#d59566"/><stop offset="1" stop-color="#d59566" stop-opacity="0"/></radialGradient><radialGradient id="am" cx="0" cy="0" gradientTransform="matrix(.53746277 -.19878792 .19878792 .53746277 18.0175 5.93696)" gradientUnits="userSpaceOnUse" r="1"><stop offset=".71002" stop-color="#e3a280" stop-opacity="0"/><stop offset="1" stop-color="#e3a280"/></radialGradient><radialGradient id="an" cx="0" cy="0" gradientTransform="matrix(-.534513 0 0 -.511295 13.9503 5.8324)" gradientUnits="userSpaceOnUse" r="1"><stop offset=".572999" stop-color="#b0725a" stop-opacity="0"/><stop offset="1" stop-color="#b0725a"/></radialGradient><radialGradient id="ao" cx="0" cy="0" gradientTransform="matrix(-2.85673519 1.31733571 -1.76323005 -3.82368843 17.2559 5.59625)" gradientUnits="userSpaceOnUse" r="1"><stop offset="0" stop-color="#ffc59d"/><stop offset="1" stop-color="#d39b88"/></radialGradient><radialGradient id="ap" cx="0" cy="0" gradientTransform="matrix(-.92670994 .49017076 -.41587648 -.78625022 16.8346 5.90261)" gradientUnits="userSpaceOnUse" r="1"><stop offset="0" stop-color="#ffc89e"/><stop offset="1" stop-color="#ffc89e" stop-opacity="0"/></radialGradient><radialGradient id="aq" cx="0" cy="0" gradientTransform="matrix(.36762477 -1.77684825 2.25449226 .46644794 15.0425 8.57554)" gradientUnits="userSpaceOnUse" r="1"><stop offset="0" stop-color="#b97783"/><stop offset="1" stop-color="#b97783" stop-opacity="0"/></radialGradient><radialGradient id="ar" cx="0" cy="0" gradientTransform="matrix(0 3.26697 -4.42857 0 15.9999 5.47009)" gradientUnits="userSpaceOnUse" r="1"><stop offset=".684444" stop-color="#bd8381" stop-opacity="0"/><stop offset="1" stop-color="#a46e69"/></radialGradient><radialGradient id="as" cx="0" cy="0" gradientTransform="matrix(-2.51797851 .3386542 -.58305866 -4.33518664 16.2797 6.62163)" gradientUnits="userSpaceOnUse" r="1"><stop offset=".813118" stop-color="#e3ab91" stop-opacity="0"/><stop offset="1" stop-color="#e3ab91"/></radialGradient><radialGradient id="at" cx="0" cy="0" gradientTransform="matrix(0 -.505483 .726689 0 17.0108 5.41244)" gradientUnits="userSpaceOnUse" r="1"><stop offset=".258747" stop-color="#e3a48e"/><stop offset="1" stop-color="#e3a48e" stop-opacity="0"/></radialGradient><radialGradient id="au" cx="0" cy="0" gradientTransform="matrix(0 -.597389 .684647 0 15.1573 5.45074)" gradientUnits="userSpaceOnUse" r="1"><stop offset="0" stop-color="#c2847a"/><stop offset="1" stop-color="#c2847a" stop-opacity="0"/></radialGradient><radialGradient id="av" cx="0" cy="0" gradientTransform="matrix(-.591657 0 0 -1.94775 18.2381 6.06585)" gradientUnits="userSpaceOnUse" r="1"><stop offset="0" stop-color="#f4c099"/><stop offset="1" stop-color="#f4c099" stop-opacity="0"/></radialGradient><radialGradient id="aw" cx="0" cy="0" gradientTransform="matrix(.50788895 1.85311061 -3.82936007 1.04952703 14.9018 3.17772)" gradientUnits="userSpaceOnUse" r="1"><stop offset="0" stop-color="#be7c5a"/><stop offset="1" stop-color="#be7c5a" stop-opacity="0"/></radialGradient><radialGradient id="ax" cx="0" cy="0" gradientTransform="matrix(-.30636081 -1.0760582 .61573704 -.17530436 16.3445 6.38516)" gradientUnits="userSpaceOnUse" r="1"><stop offset=".0168227" stop-color="#fdc9a8"/><stop offset="1" stop-color="#fdc9a8" stop-opacity="0"/></radialGradient><linearGradient id="ay" gradientUnits="userSpaceOnUse" x1="15.5403" x2="15.9156" y1="6.39282" y2="6.43877"><stop offset="0" stop-color="#d1987a"/><stop offset="1" stop-color="#d1987a" stop-opacity="0"/></linearGradient><linearGradient id="az" gradientUnits="userSpaceOnUse" x1="15.9999" x2="15.9999" y1="6.7681" y2="6.50004"><stop offset="0" stop-color="#c57f82"/><stop offset="1" stop-color="#c57f82" stop-opacity="0"/></linearGradient><linearGradient id="aA" gradientUnits="userSpaceOnUse" x1="15.6797" x2="15.8785" y1="7.41676" y2="7.03391"><stop offset="0" stop-color="#d8a29e"/><stop offset="1" stop-color="#d8a29e" stop-opacity="0"/></linearGradient><linearGradient id="aB"><stop offset=".80198" stop-color="#925c51"/><stop offset="1" stop-color="#694b43"/><stop offset="1" stop-color="#804d49"/><stop offset="1" stop-color="#85534d"/></linearGradient><radialGradient id="aC" cx="0" cy="0" gradientTransform="matrix(0 .356375 -.566855 0 16.9583 5.57013)" gradientUnits="userSpaceOnUse" r="1" xlink:href="#aB"/><linearGradient id="aD"><stop offset=".765532" stop-color="#ffe6e2" stop-opacity="0"/><stop offset=".966159" stop-color="#ffe6e2"/></linearGradient><radialGradient id="aE" cx="0" cy="0" gradientTransform="matrix(-.10187058 -.13127398 .18073281 -.14025138 16.8583 5.60708)" gradientUnits="userSpaceOnUse" r="1" xlink:href="#aD"/><linearGradient id="aF"><stop offset="0" stop-color="#b4948d"/><stop offset="1" stop-color="#b4948d" stop-opacity="0"/></linearGradient><linearGradient id="aG" gradientUnits="userSpaceOnUse" x1="17.3002" x2="17.1624" xlink:href="#aF" y1="5.59386" y2="5.67877"/><radialGradient id="aH" cx="0" cy="0" gradientTransform="matrix(0 .356377 -.566858 0 15.0416 5.57013)" gradientUnits="userSpaceOnUse" r="1" xlink:href="#aB"/><linearGradient id="aI" gradientUnits="userSpaceOnUse" x1="15.3681" x2="15.2303" xlink:href="#aF" y1="5.59387" y2="5.67879"/><radialGradient id="aJ" cx="0" cy="0" gradientTransform="matrix(-.00339783 -.2170184 .26086503 -.00408433 14.9156 5.66648)" gradientUnits="userSpaceOnUse" r="1" xlink:href="#aD"/><radialGradient id="aK" cx="0" cy="0" gradientTransform="matrix(.84990106 1.17800081 -2.34069058 1.68875555 13.3831 3.0877)" gradientUnits="userSpaceOnUse" r="1"><stop offset=".403078" stop-color="#daa88f" stop-opacity="0"/><stop offset="1" stop-color="#daa88f"/></radialGradient><radialGradient id="aL" cx="0" cy="0" gradientTransform="matrix(-.82463815 1.08965538 -.85456756 -.6467265 14.8073 3.19078)" gradientUnits="userSpaceOnUse" r="1"><stop offset="0" stop-color="#fee2a9"/><stop offset="1" stop-color="#fee2a9" stop-opacity="0"/></radialGradient><radialGradient id="aM" cx="0" cy="0" gradientTransform="matrix(-.92768695 1.92896944 -2.74291353 -1.31913189 16.8392 2.35146)" gradientUnits="userSpaceOnUse" r="1"><stop offset=".595085" stop-color="#f0c6a3" stop-opacity="0"/><stop offset="1" stop-color="#f0c6a3"/></radialGradient><radialGradient id="aN" cx="0" cy="0" gradientTransform="matrix(-.37635017 1.40878622 -2.51473254 -.67179817 17.016 2.86683)" gradientUnits="userSpaceOnUse" r="1"><stop offset="0" stop-color="#ffffc0"/><stop offset="1" stop-color="#ffffc0" stop-opacity="0"/></radialGradient><radialGradient id="aO" cx="0" cy="0" gradientTransform="matrix(-1.538795 -2.76830619 2.47802754 -1.37744025 16.5668 5.26701)" gradientUnits="userSpaceOnUse" r="1"><stop offset=".891192" stop-color="#dac493" stop-opacity="0"/><stop offset=".979491" stop-color="#dac493"/></radialGradient><g clip-rule="evenodd" fill-rule="evenodd" filter="url(#a)"><path d="m19.1562 6.45169c.0934-.19114.1423-.40452.1423-.62678 0-.20527-.0423-.39787-.118-.57344h.0023c-.0353-.0795-.075-.15461-.1235-.22534l-.0009-.00137c-.1511-.23116-.2311-.50232-.2311-.77793v-.00444c0-.80015-.649-1.44916-1.4492-1.44916-.08 0-.1556-.03557-.2-.10225-.2623-.36451-.6935-.60455-1.1781-.60455-.4845 0-.9157.24004-1.178.60455-.0444.06224-.12.10225-.2.10225-.0125 0-.025.00015-.0374.00047-.7829.01982-1.4118.66102-1.4118 1.44869v.00444c0 .27561-.08.54677-.2311.77793l-.001.00161c-.1505.2308-.239.5014-.239.79854 0 .22671.0533.43564.1422.62678.0311.06224.0311.13781 0 .20004-.0889.1867-.1422.39563-.1422.6179 0 .78237.6312 1.4136 1.4136 1.4136h3.7696c.7823 0 1.4136-.63123 1.4136-1.4136 0-.22227-.0534-.4312-.1423-.6179-.0311-.06223-.0311-.1378 0-.20004zm-5.3853-1.17386h-.0054l.5265 1.03468c.0542 1.23102.5346 0 1.708 0 1.1735 0 1.6852 1.3702 1.7393.13918l.499-1.40435c-.0236-.5468-.4199-.58518-.499-.58518h-1.4144c-.5585 0-1.0856-.27339-1.4009-.73501-.054-.07619-.1666-.06274-.2027.02241l-.036.08516c-.0991.24649-.2883.43472-.5225.54228-.0068.00224-.0147.00561-.0226.00897-.0078.00336-.0157.00672-.0225.00896-.1036.05378-.3468.21512-.3558.63192l.0045.13445z" fill="url(#z)"/><path d="m19.1562 6.45169c.0934-.19114.1423-.40452.1423-.62678 0-.20527-.0423-.39787-.118-.57344h.0023c-.0353-.0795-.075-.15461-.1235-.22534l-.0009-.00137c-.1511-.23116-.2311-.50232-.2311-.77793v-.00444c0-.80015-.649-1.44916-1.4492-1.44916-.08 0-.1556-.03557-.2-.10225-.2623-.36451-.6935-.60455-1.1781-.60455-.4845 0-.9157.24004-1.178.60455-.0444.06224-.12.10225-.2.10225-.0125 0-.025.00015-.0374.00047-.7829.01982-1.4118.66102-1.4118 1.44869v.00444c0 .27561-.08.54677-.2311.77793l-.001.00161c-.1505.2308-.239.5014-.239.79854 0 .22671.0533.43564.1422.62678.0311.06224.0311.13781 0 .20004-.0889.1867-.1422.39563-.1422.6179 0 .78237.6312 1.4136 1.4136 1.4136h3.7696c.7823 0 1.4136-.63123 1.4136-1.4136 0-.22227-.0534-.4312-.1423-.6179-.0311-.06223-.0311-.1378 0-.20004zm-5.3853-1.17386h-.0054l.5265 1.03468c.0542 1.23102.5346 0 1.708 0 1.1735 0 1.6852 1.3702 1.7393.13918l.499-1.40435c-.0236-.5468-.4199-.58518-.499-.58518h-1.4144c-.5585 0-1.0856-.27339-1.4009-.73501-.054-.07619-.1666-.06274-.2027.02241l-.036.08516c-.0991.24649-.2883.43472-.5225.54228-.0068.00224-.0147.00561-.0226.00897-.0078.00336-.0157.00672-.0225.00896-.1036.05378-.3468.21512-.3558.63192l.0045.13445z" fill="url(#A)"/><path d="m19.1562 6.45169c.0934-.19114.1423-.40452.1423-.62678 0-.20527-.0423-.39787-.118-.57344h.0023c-.0353-.0795-.075-.15461-.1235-.22534l-.0009-.00137c-.1511-.23116-.2311-.50232-.2311-.77793v-.00444c0-.80015-.649-1.44916-1.4492-1.44916-.08 0-.1556-.03557-.2-.10225-.2623-.36451-.6935-.60455-1.1781-.60455-.4845 0-.9157.24004-1.178.60455-.0444.06224-.12.10225-.2.10225-.0125 0-.025.00015-.0374.00047-.7829.01982-1.4118.66102-1.4118 1.44869v.00444c0 .27561-.08.54677-.2311.77793l-.001.00161c-.1505.2308-.239.5014-.239.79854 0 .22671.0533.43564.1422.62678.0311.06224.0311.13781 0 .20004-.0889.1867-.1422.39563-.1422.6179 0 .78237.6312 1.4136 1.4136 1.4136h3.7696c.7823 0 1.4136-.63123 1.4136-1.4136 0-.22227-.0534-.4312-.1423-.6179-.0311-.06223-.0311-.1378 0-.20004zm-5.3853-1.17386h-.0054l.5265 1.03468c.0542 1.23102.5346 0 1.708 0 1.1735 0 1.6852 1.3702 1.7393.13918l.499-1.40435c-.0236-.5468-.4199-.58518-.499-.58518h-1.4144c-.5585 0-1.0856-.27339-1.4009-.73501-.054-.07619-.1666-.06274-.2027.02241l-.036.08516c-.0991.24649-.2883.43472-.5225.54228-.0068.00224-.0147.00561-.0226.00897-.0078.00336-.0157.00672-.0225.00896-.1036.05378-.3468.21512-.3558.63192l.0045.13445z" fill="url(#B)"/><path d="m19.1562 6.45169c.0934-.19114.1423-.40452.1423-.62678 0-.20527-.0423-.39787-.118-.57344h.0023c-.0353-.0795-.075-.15461-.1235-.22534l-.0009-.00137c-.1511-.23116-.2311-.50232-.2311-.77793v-.00444c0-.80015-.649-1.44916-1.4492-1.44916-.08 0-.1556-.03557-.2-.10225-.2623-.36451-.6935-.60455-1.1781-.60455-.4845 0-.9157.24004-1.178.60455-.0444.06224-.12.10225-.2.10225-.0125 0-.025.00015-.0374.00047-.7829.01982-1.4118.66102-1.4118 1.44869v.00444c0 .27561-.08.54677-.2311.77793l-.001.00161c-.1505.2308-.239.5014-.239.79854 0 .22671.0533.43564.1422.62678.0311.06224.0311.13781 0 .20004-.0889.1867-.1422.39563-.1422.6179 0 .78237.6312 1.4136 1.4136 1.4136h3.7696c.7823 0 1.4136-.63123 1.4136-1.4136 0-.22227-.0534-.4312-.1423-.6179-.0311-.06223-.0311-.1378 0-.20004zm-5.3853-1.17386h-.0054l.5265 1.03468c.0542 1.23102.5346 0 1.708 0 1.1735 0 1.6852 1.3702 1.7393.13918l.499-1.40435c-.0236-.5468-.4199-.58518-.499-.58518h-1.4144c-.5585 0-1.0856-.27339-1.4009-.73501-.054-.07619-.1666-.06274-.2027.02241l-.036.08516c-.0991.24649-.2883.43472-.5225.54228-.0068.00224-.0147.00561-.0226.00897-.0078.00336-.0157.00672-.0225.00896-.1036.05378-.3468.21512-.3558.63192l.0045.13445z" fill="url(#C)"/><path d="m19.1562 6.45169c.0934-.19114.1423-.40452.1423-.62678 0-.20527-.0423-.39787-.118-.57344h.0023c-.0353-.0795-.075-.15461-.1235-.22534l-.0009-.00137c-.1511-.23116-.2311-.50232-.2311-.77793v-.00444c0-.80015-.649-1.44916-1.4492-1.44916-.08 0-.1556-.03557-.2-.10225-.2623-.36451-.6935-.60455-1.1781-.60455-.4845 0-.9157.24004-1.178.60455-.0444.06224-.12.10225-.2.10225-.0125 0-.025.00015-.0374.00047-.7829.01982-1.4118.66102-1.4118 1.44869v.00444c0 .27561-.08.54677-.2311.77793l-.001.00161c-.1505.2308-.239.5014-.239.79854 0 .22671.0533.43564.1422.62678.0311.06224.0311.13781 0 .20004-.0889.1867-.1422.39563-.1422.6179 0 .78237.6312 1.4136 1.4136 1.4136h3.7696c.7823 0 1.4136-.63123 1.4136-1.4136 0-.22227-.0534-.4312-.1423-.6179-.0311-.06223-.0311-.1378 0-.20004zm-5.3853-1.17386h-.0054l.5265 1.03468c.0542 1.23102.5346 0 1.708 0 1.1735 0 1.6852 1.3702 1.7393.13918l.499-1.40435c-.0236-.5468-.4199-.58518-.499-.58518h-1.4144c-.5585 0-1.0856-.27339-1.4009-.73501-.054-.07619-.1666-.06274-.2027.02241l-.036.08516c-.0991.24649-.2883.43472-.5225.54228-.0068.00224-.0147.00561-.0226.00897-.0078.00336-.0157.00672-.0225.00896-.1036.05378-.3468.21512-.3558.63192l.0045.13445z" fill="url(#D)"/><path d="m19.1562 6.45169c.0934-.19114.1423-.40452.1423-.62678 0-.20527-.0423-.39787-.118-.57344h.0023c-.0353-.0795-.075-.15461-.1235-.22534l-.0009-.00137c-.1511-.23116-.2311-.50232-.2311-.77793v-.00444c0-.80015-.649-1.44916-1.4492-1.44916-.08 0-.1556-.03557-.2-.10225-.2623-.36451-.6935-.60455-1.1781-.60455-.4845 0-.9157.24004-1.178.60455-.0444.06224-.12.10225-.2.10225-.0125 0-.025.00015-.0374.00047-.7829.01982-1.4118.66102-1.4118 1.44869v.00444c0 .27561-.08.54677-.2311.77793l-.001.00161c-.1505.2308-.239.5014-.239.79854 0 .22671.0533.43564.1422.62678.0311.06224.0311.13781 0 .20004-.0889.1867-.1422.39563-.1422.6179 0 .78237.6312 1.4136 1.4136 1.4136h3.7696c.7823 0 1.4136-.63123 1.4136-1.4136 0-.22227-.0534-.4312-.1423-.6179-.0311-.06223-.0311-.1378 0-.20004zm-5.3853-1.17386h-.0054l.5265 1.03468c.0542 1.23102.5346 0 1.708 0 1.1735 0 1.6852 1.3702 1.7393.13918l.499-1.40435c-.0236-.5468-.4199-.58518-.499-.58518h-1.4144c-.5585 0-1.0856-.27339-1.4009-.73501-.054-.07619-.1666-.06274-.2027.02241l-.036.08516c-.0991.24649-.2883.43472-.5225.54228-.0068.00224-.0147.00561-.0226.00897-.0078.00336-.0157.00672-.0225.00896-.1036.05378-.3468.21512-.3558.63192l.0045.13445z" fill="url(#E)"/><path d="m19.1562 6.45169c.0934-.19114.1423-.40452.1423-.62678 0-.20527-.0423-.39787-.118-.57344h.0023c-.0353-.0795-.075-.15461-.1235-.22534l-.0009-.00137c-.1511-.23116-.2311-.50232-.2311-.77793v-.00444c0-.80015-.649-1.44916-1.4492-1.44916-.08 0-.1556-.03557-.2-.10225-.2623-.36451-.6935-.60455-1.1781-.60455-.4845 0-.9157.24004-1.178.60455-.0444.06224-.12.10225-.2.10225-.0125 0-.025.00015-.0374.00047-.7829.01982-1.4118.66102-1.4118 1.44869v.00444c0 .27561-.08.54677-.2311.77793l-.001.00161c-.1505.2308-.239.5014-.239.79854 0 .22671.0533.43564.1422.62678.0311.06224.0311.13781 0 .20004-.0889.1867-.1422.39563-.1422.6179 0 .78237.6312 1.4136 1.4136 1.4136h3.7696c.7823 0 1.4136-.63123 1.4136-1.4136 0-.22227-.0534-.4312-.1423-.6179-.0311-.06223-.0311-.1378 0-.20004zm-5.3853-1.17386h-.0054l.5265 1.03468c.0542 1.23102.5346 0 1.708 0 1.1735 0 1.6852 1.3702 1.7393.13918l.499-1.40435c-.0236-.5468-.4199-.58518-.499-.58518h-1.4144c-.5585 0-1.0856-.27339-1.4009-.73501-.054-.07619-.1666-.06274-.2027.02241l-.036.08516c-.0991.24649-.2883.43472-.5225.54228-.0068.00224-.0147.00561-.0226.00897-.0078.00336-.0157.00672-.0225.00896-.1036.05378-.3468.21512-.3558.63192l.0045.13445z" fill="url(#F)"/><path d="m19.1562 6.45169c.0934-.19114.1423-.40452.1423-.62678 0-.20527-.0423-.39787-.118-.57344h.0023c-.0353-.0795-.075-.15461-.1235-.22534l-.0009-.00137c-.1511-.23116-.2311-.50232-.2311-.77793v-.00444c0-.80015-.649-1.44916-1.4492-1.44916-.08 0-.1556-.03557-.2-.10225-.2623-.36451-.6935-.60455-1.1781-.60455-.4845 0-.9157.24004-1.178.60455-.0444.06224-.12.10225-.2.10225-.0125 0-.025.00015-.0374.00047-.7829.01982-1.4118.66102-1.4118 1.44869v.00444c0 .27561-.08.54677-.2311.77793l-.001.00161c-.1505.2308-.239.5014-.239.79854 0 .22671.0533.43564.1422.62678.0311.06224.0311.13781 0 .20004-.0889.1867-.1422.39563-.1422.6179 0 .78237.6312 1.4136 1.4136 1.4136h3.7696c.7823 0 1.4136-.63123 1.4136-1.4136 0-.22227-.0534-.4312-.1423-.6179-.0311-.06223-.0311-.1378 0-.20004zm-5.3853-1.17386h-.0054l.5265 1.03468c.0542 1.23102.5346 0 1.708 0 1.1735 0 1.6852 1.3702 1.7393.13918l.499-1.40435c-.0236-.5468-.4199-.58518-.499-.58518h-1.4144c-.5585 0-1.0856-.27339-1.4009-.73501-.054-.07619-.1666-.06274-.2027.02241l-.036.08516c-.0991.24649-.2883.43472-.5225.54228-.0068.00224-.0147.00561-.0226.00897-.0078.00336-.0157.00672-.0225.00896-.1036.05378-.3468.21512-.3558.63192l.0045.13445z" fill="url(#G)"/><path d="m19.1562 6.45169c.0934-.19114.1423-.40452.1423-.62678 0-.20527-.0423-.39787-.118-.57344h.0023c-.0353-.0795-.075-.15461-.1235-.22534l-.0009-.00137c-.1511-.23116-.2311-.50232-.2311-.77793v-.00444c0-.80015-.649-1.44916-1.4492-1.44916-.08 0-.1556-.03557-.2-.10225-.2623-.36451-.6935-.60455-1.1781-.60455-.4845 0-.9157.24004-1.178.60455-.0444.06224-.12.10225-.2.10225-.0125 0-.025.00015-.0374.00047-.7829.01982-1.4118.66102-1.4118 1.44869v.00444c0 .27561-.08.54677-.2311.77793l-.001.00161c-.1505.2308-.239.5014-.239.79854 0 .22671.0533.43564.1422.62678.0311.06224.0311.13781 0 .20004-.0889.1867-.1422.39563-.1422.6179 0 .78237.6312 1.4136 1.4136 1.4136h3.7696c.7823 0 1.4136-.63123 1.4136-1.4136 0-.22227-.0534-.4312-.1423-.6179-.0311-.06223-.0311-.1378 0-.20004zm-5.3853-1.17386h-.0054l.5265 1.03468c.0542 1.23102.5346 0 1.708 0 1.1735 0 1.6852 1.3702 1.7393.13918l.499-1.40435c-.0236-.5468-.4199-.58518-.499-.58518h-1.4144c-.5585 0-1.0856-.27339-1.4009-.73501-.054-.07619-.1666-.06274-.2027.02241l-.036.08516c-.0991.24649-.2883.43472-.5225.54228-.0068.00224-.0147.00561-.0226.00897-.0078.00336-.0157.00672-.0225.00896-.1036.05378-.3468.21512-.3558.63192l.0045.13445z" fill="url(#H)"/><path d="m19.1562 6.45169c.0934-.19114.1423-.40452.1423-.62678 0-.20527-.0423-.39787-.118-.57344h.0023c-.0353-.0795-.075-.15461-.1235-.22534l-.0009-.00137c-.1511-.23116-.2311-.50232-.2311-.77793v-.00444c0-.80015-.649-1.44916-1.4492-1.44916-.08 0-.1556-.03557-.2-.10225-.2623-.36451-.6935-.60455-1.1781-.60455-.4845 0-.9157.24004-1.178.60455-.0444.06224-.12.10225-.2.10225-.0125 0-.025.00015-.0374.00047-.7829.01982-1.4118.66102-1.4118 1.44869v.00444c0 .27561-.08.54677-.2311.77793l-.001.00161c-.1505.2308-.239.5014-.239.79854 0 .22671.0533.43564.1422.62678.0311.06224.0311.13781 0 .20004-.0889.1867-.1422.39563-.1422.6179 0 .78237.6312 1.4136 1.4136 1.4136h3.7696c.7823 0 1.4136-.63123 1.4136-1.4136 0-.22227-.0534-.4312-.1423-.6179-.0311-.06223-.0311-.1378 0-.20004zm-5.3853-1.17386h-.0054l.5265 1.03468c.0542 1.23102.5346 0 1.708 0 1.1735 0 1.6852 1.3702 1.7393.13918l.499-1.40435c-.0236-.5468-.4199-.58518-.499-.58518h-1.4144c-.5585 0-1.0856-.27339-1.4009-.73501-.054-.07619-.1666-.06274-.2027.02241l-.036.08516c-.0991.24649-.2883.43472-.5225.54228-.0068.00224-.0147.00561-.0226.00897-.0078.00336-.0157.00672-.0225.00896-.1036.05378-.3468.21512-.3558.63192l.0045.13445z" fill="url(#I)"/></g><path d="m12.6675 19.0112c-.0844-.0906-.0638-.1966-.043-.2383h-.4375l.3203.9961c.2617.0782.5391.0508.5899-.1132.0406-.1313-.0274-.2539-.0743-.3008-.0833-.0768-.271-.2531-.3554-.3438z" fill="#aa6e62"/><path d="m19.3325 19.0112c.0844-.0906.0638-.1966.043-.2383h.4375l-.3203.9961c-.2617.0782-.5391.0508-.5899-.1132-.0406-.1313.0274-.2539.0743-.3008.0833-.0768.271-.2531.3554-.3438z" fill="url(#J)"/><g filter="url(#b)"><path d="m12.1118 20.2919c-.9379-1.9818-.7687-6.2586-.4873-7.8236h1.6719c-.0717 2.4255.0394 5.243.1779 6.5114.0112.1031.0833.2142 0 .2761-.1494.111-.3632.0549-.4388-.1152l-.1167-.2624c-.0384-.0863-.1361-.1293-.2257-.0995-.0848.0283-.1371.1134-.1193.201.0607.2993.1715.678.2639.9731.0649.2072-.0375.4308-.2385.5128-.1862.076-.4014.008-.4874-.1737z" fill="#d19881"/><path d="m12.1118 20.2919c-.9379-1.9818-.7687-6.2586-.4873-7.8236h1.6719c-.0717 2.4255.0394 5.243.1779 6.5114.0112.1031.0833.2142 0 .2761-.1494.111-.3632.0549-.4388-.1152l-.1167-.2624c-.0384-.0863-.1361-.1293-.2257-.0995-.0848.0283-.1371.1134-.1193.201.0607.2993.1715.678.2639.9731.0649.2072-.0375.4308-.2385.5128-.1862.076-.4014.008-.4874-.1737z" fill="url(#K)"/></g><path d="m19.8882 20.2919c.9379-1.9818.7687-6.2586.4873-7.8236h-1.6719c.0717 2.4255-.1554 5.2537-.2939 6.522-.0113.1032.0327.2036.1161.2655.1493.111.3631.0549.4387-.1152l.1168-.2624c.0384-.0863.136-.1293.2256-.0995.0848.0283.1371.1134.1194.201-.0608.2993-.1716.678-.264.9731-.0649.2072.0375.4308.2385.5128.1862.076.4014.008.4874-.1737z" fill="#e3b495"/><path d="m19.8882 20.2919c.9379-1.9818.7687-6.2586.4873-7.8236h-1.6719c.0717 2.4255-.1554 5.2537-.2939 6.522-.0113.1032.0327.2036.1161.2655.1493.111.3631.0549.4387-.1152l.1168-.2624c.0384-.0863.136-.1293.2256-.0995.0848.0283.1371.1134.1194.201-.0608.2993-.1716.678-.264.9731-.0649.2072.0375.4308.2385.5128.1862.076.4014.008.4874-.1737z" fill="url(#L)"/><path d="m19.8882 20.2919c.9379-1.9818.7687-6.2586.4873-7.8236h-1.6719c.0717 2.4255-.1554 5.2537-.2939 6.522-.0113.1032.0327.2036.1161.2655.1493.111.3631.0549.4387-.1152l.1168-.2624c.0384-.0863.136-.1293.2256-.0995.0848.0283.1371.1134.1194.201-.0608.2993-.1716.678-.264.9731-.0649.2072.0375.4308.2385.5128.1862.076.4014.008.4874-.1737z" fill="url(#M)"/><g filter="url(#c)"><path d="m19.7671 12.1929c.1042 1.1562.25 3.975 0 6" stroke="#f2ae96" stroke-width=".3"/></g><path d="m11.5325 12.5119c.4862-2.2538 1.6285-3.33363 3.0296-3.82879v3.94919h-2.9325c-.0632 0-.1104-.0586-.0971-.1204z" fill="#64558f"/><path d="m11.5325 12.5119c.4862-2.2538 1.6285-3.33363 3.0296-3.82879v3.94919h-2.9325c-.0632 0-.1104-.0586-.0971-.1204z" fill="url(#N)"/><path d="m11.5325 12.5119c.4862-2.2538 1.6285-3.33363 3.0296-3.82879v3.94919h-2.9325c-.0632 0-.1104-.0586-.0971-.1204z" fill="url(#O)"/><path d="m11.5325 12.5119c.4862-2.2538 1.6285-3.33363 3.0296-3.82879v3.94919h-2.9325c-.0632 0-.1104-.0586-.0971-.1204z" fill="url(#P)"/><path d="m11.5325 12.5119c.4862-2.2538 1.6285-3.33363 3.0296-3.82879v3.94919h-2.9325c-.0632 0-.1104-.0586-.0971-.1204z" fill="url(#Q)"/><path d="m20.4675 12.5119c-.4862-2.2538-1.6285-3.33363-3.0295-3.82879v3.94919h2.9324c.0632 0 .1104-.0586.0971-.1204z" fill="#8b7dbc"/><path d="m20.4675 12.5119c-.4862-2.2538-1.6285-3.33363-3.0295-3.82879v3.94919h2.9324c.0632 0 .1104-.0586.0971-.1204z" fill="url(#R)"/><path d="m20.4675 12.5119c-.4862-2.2538-1.6285-3.33363-3.0295-3.82879v3.94919h2.9324c.0632 0 .1104-.0586.0971-.1204z" fill="url(#S)"/><g filter="url(#d)"><path d="m13.0156 15.8628.4844 12.4531h2l.2383-9.5234c0-.3281.0285-.8594.2617-.8594.2122 0 .2631.5547.2617.8594l.2383 9.5234h2l.4844-12.4531z" fill="#827a8a"/></g><path d="m13.0156 15.8628.4844 12.4531h2l.2383-9.5234c0-.3281.0285-.8594.2617-.8594.2122 0 .2631.5547.2617.8594l.2383 9.5234h2l.4844-12.4531z" fill="url(#T)"/><path d="m13.0156 15.8628.4844 12.4531h2l.2383-9.5234c0-.3281.0285-.8594.2617-.8594.2122 0 .2631.5547.2617.8594l.2383 9.5234h2l.4844-12.4531z" fill="url(#U)"/><path d="m13.0156 15.8628.4844 12.4531h2l.2383-9.5234c0-.3281.0285-.8594.2617-.8594.2122 0 .2631.5547.2617.8594l.2383 9.5234h2l.4844-12.4531z" fill="url(#W)"/><path d="m13.0156 15.8628.4844 12.4531h2l.2383-9.5234c0-.3281.0285-.8594.2617-.8594.2122 0 .2631.5547.2617.8594l.2383 9.5234h2l.4844-12.4531z" fill="url(#X)"/><g filter="url(#e)"><path d="m12.9414 11.3784c0-1.6892 1.3694-3.05858 3.0586-3.05858s3.0586 1.36938 3.0586 3.05858v4.4414c0 .0518-.042.0938-.0938.0938h-5.9296c-.0518 0-.0938-.042-.0938-.0938z" fill="url(#Y)"/><path d="m12.9414 11.3784c0-1.6892 1.3694-3.05858 3.0586-3.05858s3.0586 1.36938 3.0586 3.05858v4.4414c0 .0518-.042.0938-.0938.0938h-5.9296c-.0518 0-.0938-.042-.0938-.0938z" fill="url(#Z)"/></g><path d="m12.9414 11.3784c0-1.6892 1.3694-3.05858 3.0586-3.05858s3.0586 1.36938 3.0586 3.05858v4.4414c0 .0518-.042.0938-.0938.0938h-5.9296c-.0518 0-.0938-.042-.0938-.0938z" fill="url(#aa)"/><path d="m12.9414 11.3784c0-1.6892 1.3694-3.05858 3.0586-3.05858s3.0586 1.36938 3.0586 3.05858v4.4414c0 .0518-.042.0938-.0938.0938h-5.9296c-.0518 0-.0938-.042-.0938-.0938z" fill="url(#ab)"/><path d="m15.1289 7.22607h1.7422v1.35157c0 .48109-.39.87109-.8711.87109s-.8711-.39-.8711-.87109z" fill="url(#ac)"/><path d="m15.1289 7.22607h1.7422v1.35157c0 .48109-.39.87109-.8711.87109s-.8711-.39-.8711-.87109z" fill="url(#ad)"/><g filter="url(#f)"><path d="m12.4336 29.6714v.2422h3.0664v-1.5977h-1.9923c-.1016.3672-.5741.7539-.8163.9141-.1865.1233-.2578.3008-.2578.4414z" fill="#5d4480"/></g><path d="m19.5664 29.6714v.2422h-3.0664v-1.5977h1.9923c.1016.3672.5741.7539.8163.9141.1865.1233.2578.3008.2578.4414z" fill="url(#ae)"/><path d="m19.5664 29.6714v.2422h-3.0664v-1.5977h1.9923c.1016.3672.5741.7539.8163.9141.1865.1233.2578.3008.2578.4414z" fill="url(#af)"/><g filter="url(#g)"><path d="m13.8411 16.2339.4687 11.7656h.8125v-10.6094h2.2031v10.6094h.6719l.4375-11.7656z" fill="#9d98a2"/></g><path d="m16.1548 7.80762c.109.00436.2225.01308.3359.02181-.1134-.00873-.2225-.01745-.3359-.02181z" fill="url(#ah)"/><path d="m16.0109 7.80762c-.0044 0-.0088 0-.0175 0 .0436 0 .0829 0 .1265.00436-.0349-.00436-.0741-.00436-.109-.00436z" fill="url(#ai)"/><g filter="url(#h)"><path d="m13.9417 6.53921c.3903 0 .7068-.31644.7068-.7068 0-.39035-.3165-.7068-.7068-.7068-.3904 0-.7068.31645-.7068.7068 0 .39036.3164.7068.7068.7068z" fill="url(#aj)"/></g><g filter="url(#i)"><path d="m18.1204 6.53921c.3903 0 .7068-.31644.7068-.7068 0-.39035-.3165-.7068-.7068-.7068-.3904 0-.7068.31645-.7068.7068 0 .39036.3164.7068.7068.7068z" fill="url(#ak)"/><path d="m18.1204 6.53921c.3903 0 .7068-.31644.7068-.7068 0-.39035-.3165-.7068-.7068-.7068-.3904 0-.7068.31645-.7068.7068 0 .39036.3164.7068.7068.7068z" fill="url(#al)"/></g><g filter="url(#j)"><path d="m18.1205 6.30421c.2606 0 .4718-.21123.4718-.47181 0-.26057-.2112-.4718-.4718-.4718s-.4718.21123-.4718.4718c0 .26058.2112.47181.4718.47181z" fill="#e5aa8b"/><path d="m18.1205 6.30421c.2606 0 .4718-.21123.4718-.47181 0-.26057-.2112-.4718-.4718-.4718s-.4718.21123-.4718.4718c0 .26058.2112.47181.4718.47181z" fill="url(#am)"/></g><g filter="url(#k)"><path d="m13.9503 6.30421c.2606 0 .4718-.21123.4718-.47181 0-.26057-.2112-.4718-.4718-.4718-.2605 0-.4718.21123-.4718.4718 0 .26058.2113.47181.4718.47181z" fill="#b47a6c"/><path d="m13.9503 6.30421c.2606 0 .4718-.21123.4718-.47181 0-.26057-.2112-.4718-.4718-.4718-.2605 0-.4718.21123-.4718.4718 0 .26058.2113.47181.4718.47181z" fill="url(#an)"/></g><g filter="url(#l)"><path d="m13.7662 5.1612-.0045-.13446c.009-.4168.2523-.57814.3559-.63192.0067-.00224.0146-.0056.0225-.00896s.0158-.00672.0225-.00897c.2343-.10756.4234-.29579.5225-.54228l.0361-.08516c.036-.08515.1486-.09859.2027-.02241.3153.46162.8423.73501 1.4009.73501h1.4144c.0791 0 .4753.03838.4989.58518l-.0521 1.34985c-.0542 1.23102-1.0155 2.05762-2.189 2.05762-1.1734 0-2.1347-.8266-2.1889-2.05762z" fill="url(#ao)"/><path d="m13.7662 5.1612-.0045-.13446c.009-.4168.2523-.57814.3559-.63192.0067-.00224.0146-.0056.0225-.00896s.0158-.00672.0225-.00897c.2343-.10756.4234-.29579.5225-.54228l.0361-.08516c.036-.08515.1486-.09859.2027-.02241.3153.46162.8423.73501 1.4009.73501h1.4144c.0791 0 .4753.03838.4989.58518l-.0521 1.34985c-.0542 1.23102-1.0155 2.05762-2.189 2.05762-1.1734 0-2.1347-.8266-2.1889-2.05762z" fill="url(#ap)"/><path d="m13.7662 5.1612-.0045-.13446c.009-.4168.2523-.57814.3559-.63192.0067-.00224.0146-.0056.0225-.00896s.0158-.00672.0225-.00897c.2343-.10756.4234-.29579.5225-.54228l.0361-.08516c.036-.08515.1486-.09859.2027-.02241.3153.46162.8423.73501 1.4009.73501h1.4144c.0791 0 .4753.03838.4989.58518l-.0521 1.34985c-.0542 1.23102-1.0155 2.05762-2.189 2.05762-1.1734 0-2.1347-.8266-2.1889-2.05762z" fill="url(#aq)"/><path d="m13.7662 5.1612-.0045-.13446c.009-.4168.2523-.57814.3559-.63192.0067-.00224.0146-.0056.0225-.00896s.0158-.00672.0225-.00897c.2343-.10756.4234-.29579.5225-.54228l.0361-.08516c.036-.08515.1486-.09859.2027-.02241.3153.46162.8423.73501 1.4009.73501h1.4144c.0791 0 .4753.03838.4989.58518l-.0521 1.34985c-.0542 1.23102-1.0155 2.05762-2.189 2.05762-1.1734 0-2.1347-.8266-2.1889-2.05762z" fill="url(#ar)"/><path d="m13.7662 5.1612-.0045-.13446c.009-.4168.2523-.57814.3559-.63192.0067-.00224.0146-.0056.0225-.00896s.0158-.00672.0225-.00897c.2343-.10756.4234-.29579.5225-.54228l.0361-.08516c.036-.08515.1486-.09859.2027-.02241.3153.46162.8423.73501 1.4009.73501h1.4144c.0791 0 .4753.03838.4989.58518l-.0521 1.34985c-.0542 1.23102-1.0155 2.05762-2.189 2.05762-1.1734 0-2.1347-.8266-2.1889-2.05762z" fill="url(#as)"/><path d="m13.7662 5.1612-.0045-.13446c.009-.4168.2523-.57814.3559-.63192.0067-.00224.0146-.0056.0225-.00896s.0158-.00672.0225-.00897c.2343-.10756.4234-.29579.5225-.54228l.0361-.08516c.036-.08515.1486-.09859.2027-.02241.3153.46162.8423.73501 1.4009.73501h1.4144c.0791 0 .4753.03838.4989.58518l-.0521 1.34985c-.0542 1.23102-1.0155 2.05762-2.189 2.05762-1.1734 0-2.1347-.8266-2.1889-2.05762z" fill="url(#at)"/><path d="m13.7662 5.1612-.0045-.13446c.009-.4168.2523-.57814.3559-.63192.0067-.00224.0146-.0056.0225-.00896s.0158-.00672.0225-.00897c.2343-.10756.4234-.29579.5225-.54228l.0361-.08516c.036-.08515.1486-.09859.2027-.02241.3153.46162.8423.73501 1.4009.73501h1.4144c.0791 0 .4753.03838.4989.58518l-.0521 1.34985c-.0542 1.23102-1.0155 2.05762-2.189 2.05762-1.1734 0-2.1347-.8266-2.1889-2.05762z" fill="url(#au)"/></g><path d="m13.7653 5.27772h.0054l-.0045-.11652-.0045-.13446c.009-.4168.2523-.57814.3559-.63192.0067-.00224.0146-.0056.0225-.00896s.0158-.00672.0225-.00897c.2343-.10756.4234-.29579.5225-.54228l.0361-.08516c.036-.08515.1486-.09859.2027-.02241.3153.46162.8423.73501 1.4009.73501h1.4144c.0791 0 .4753.03838.4989.58518l-.0521 1.34985c-.0542 1.23102-1.0155 2.05762-2.189 2.05762-1.1734 0-2.1347-.8266-2.1889-2.05762z" fill="url(#av)"/><path d="m13.7653 5.27772h.0054l-.0045-.11652-.0045-.13446c.009-.4168.2523-.57814.3559-.63192.0067-.00224.0146-.0056.0225-.00896s.0158-.00672.0225-.00897c.2343-.10756.4234-.29579.5225-.54228l.0361-.08516c.036-.08515.1486-.09859.2027-.02241.3153.46162.8423.73501 1.4009.73501h1.4144c.0791 0 .4753.03838.4989.58518l-.0521 1.34985c-.0542 1.23102-1.0155 2.05762-2.189 2.05762-1.1734 0-2.1347-.8266-2.1889-2.05762z" fill="url(#aw)"/><g filter="url(#m)"><path d="m15.8275 5.73454-.3002.74673c-.0477.1536.0667.3072.2287.3072h.3454c.162 0 .2763-.15596.2287-.3072l-.2335-.74673c-.05-.16542-.2167-.16542-.2691 0z" fill="#c28178"/></g><g filter="url(#n)"><path d="m15.832 5.67374-.2334.74674c-.0477.1536.0667.3072.2286.3072h.3455c.1619 0 .2763-.15596.2286-.3072l-.2334-.74674c-.05-.16541-.2835-.16541-.3359 0z" fill="#efb696"/><path d="m15.832 5.67374-.2334.74674c-.0477.1536.0667.3072.2286.3072h.3455c.1619 0 .2763-.15596.2286-.3072l-.2334-.74674c-.05-.16541-.2835-.16541-.3359 0z" fill="url(#ax)"/><path d="m15.832 5.67374-.2334.74674c-.0477.1536.0667.3072.2286.3072h.3455c.1619 0 .2763-.15596.2286-.3072l-.2334-.74674c-.05-.16541-.2835-.16541-.3359 0z" fill="url(#ay)"/><path d="m15.832 5.67374-.2334.74674c-.0477.1536.0667.3072.2286.3072h.3455c.1619 0 .2763-.15596.2286-.3072l-.2334-.74674c-.05-.16541-.2835-.16541-.3359 0z" fill="url(#az)"/></g><g filter="url(#o)"><path d="m15.9999 7.11125c-.2287 0-.4437-.05506-.6244-.15141-.0618-.03212-.1281.039-.0892.09635.1509.23401.414.39001.7136.39001s.5627-.156.7137-.39001c.0388-.05965-.0275-.12847-.0892-.09635-.1807.09635-.3935.15141-.6245.15141z" stroke="url(#aA)" stroke-width=".2"/></g><path d="m15.9999 7.11125c-.2287 0-.4437-.05506-.6244-.15141-.0618-.03212-.1281.039-.0892.09635.1509.23401.414.39001.7136.39001s.5627-.156.7137-.39001c.0388-.05965-.0275-.12847-.0892-.09635-.1807.09635-.3935.15141-.6245.15141z" fill="#88014e"/><g filter="url(#p)"><path d="m16.5016 5.58246c.1166-.20505.2939-.36701.6753-.36701.1671 0 .3281.04628.4713.16196.1181.09543.1023.21751.0108.26323l-.2442.13945c-.2864-.09255-.603-.10509-.9132-.19763z" fill="#635d5f"/></g><g filter="url(#q)"><path d="m15.4984 5.58246c-.1166-.20505-.2939-.36701-.6753-.36701-.1671 0-.3281.04628-.4713.16196-.1181.09543-.1023.21751-.0108.26323l.2442.13945c.2864-.09255.603-.10509.9132-.19763z" fill="#635d5f"/></g><g filter="url(#r)"><path d="m14.5075 5.05147-.0019.00111c-.0001.00004-.0002.00007-.0002.00011-.0558.03327-.128.01519-.1615-.04052-.0334-.05578-.0153-.12818.0405-.16166l.0003-.00015.0004-.00027.0013-.00076.0041-.00239.0143-.00792c.0121-.00654.0293-.01548.0509-.02582.0433-.02063.105-.04705.1802-.07104.1493-.04765.3581-.08773.5834-.04796.0641.0113.1069.07241.0956.13648s-.0724.10684-.1365.09553c-.1752-.03091-.3433-.00031-.4709.04039-.0632.02019-.1149.04236-.1504.05928-.0177.00844-.0313.01551-.0401.02029z" fill="#9f6836"/></g><g filter="url(#s)"><path clip-rule="evenodd" d="m17.6391 4.85051c0 .00002 0 .00004-.0606.10106l.0606-.10106c.0558.03348.0739.10588.0404.16166-.0334.05572-.1056.07383-.1614.04054 0-.00002-.0001-.00006-.0002-.00012l-.0019-.00112c-.0019-.00111-.0052-.00292-.0096-.0053-.0088-.00478-.0223-.01185-.04-.02029-.0355-.01692-.0872-.03909-.1505-.05928-.1275-.0407-.2957-.0713-.4708-.04039-.0641.01131-.1252-.03146-.1365-.09553s.0315-.12518.0955-.13648c.2254-.03977.4342.00031.5835.04796.0752.02399.1369.05041.1801.07104.0217.01034.0389.01928.051.02582.006.00327.0108.00595.0142.00792l.0042.00239.0013.00076.0004.00027z" fill="#9f6836" fill-rule="evenodd"/></g><path d="m17.0502 5.24121c.2869 0 .5293.19779.5952.46507.0196.07662-.0392.14968-.1176.14968h-.98c-.0624 0-.1123-.05702-.0998-.11939.0552-.28153.3029-.49536.6022-.49536z" fill="#fff"/><path d="m16.9592 5.3606c.2174 0 .392.1764.392.39201 0 .03564-.0053.07127-.0142.10335h-.7573c-.0089-.03386-.0143-.06771-.0143-.10335 0-.21561.1764-.39201.3938-.39201z" fill="url(#aC)"/><path d="m16.7349 5.75259c0-.12473.0997-.22451.2245-.22451.1247 0 .2245.09978.2245.22451 0 .03742-.0089.07306-.025.10335h-.3973c-.0178-.03029-.0267-.06593-.0267-.10335z" fill="#000"/><g filter="url(#t)"><path d="m16.9306 5.44346c.0279.03735-.0305.08289-.0968.13252-.0664.04963-.1157.08455-.1436.0472-.0279-.03736.0033-.10787.0696-.1575.0664-.04963.1429-.05958.1708-.02222z" fill="#c7a7a3"/><path d="m16.9306 5.44346c.0279.03735-.0305.08289-.0968.13252-.0664.04963-.1157.08455-.1436.0472-.0279-.03736.0033-.10787.0696-.1575.0664-.04963.1429-.05958.1708-.02222z" fill="url(#aE)"/></g><g filter="url(#u)"><path d="m17.3085 5.70105c-.0144-.10135-.0737-.17773-.1016-.20325l-.1141.12529.0515.10023z" fill="url(#aG)"/></g><path d="m14.9498 5.24121c-.2869 0-.5292.19779-.5952.46507-.0196.07662.0392.14968.1176.14968h.9801c.0623 0 .1122-.05702.0998-.11938-.0553-.28154-.3047-.49537-.6023-.49537z" fill="#fff"/><path d="m15.0407 5.3606c-.2174 0-.392.1764-.392.39201 0 .03564.0053.07128.0142.10335h.7573c.0089-.03386.0143-.06771.0143-.10335-.0018-.21561-.1764-.39201-.3938-.39201z" fill="url(#aH)"/><path d="m15.2652 5.75259c0-.12473-.0998-.22451-.2245-.22451-.1248 0-.2245.09978-.2245.22451 0 .03742.0089.07306.0249.10335h.3974c.016-.03029.0267-.06593.0267-.10335z" fill="#000"/><g filter="url(#v)"><path d="m15.3987 5.70663c0-.12668-.1031-.21114-.1309-.23666l-.1267.12251.078.15869z" fill="url(#aI)"/></g><g filter="url(#w)"><ellipse cx="14.9222" cy="5.52816" fill="#c7a7a3" fill-opacity=".9" rx=".171135" ry=".08661" transform="matrix(.88365127 -.46814574 .46814574 .88365127 -.851806 7.628959)"/><ellipse cx="14.9222" cy="5.52816" fill="url(#aJ)" rx=".171135" ry=".08661" transform="matrix(.88365127 -.46814574 .46814574 .88365127 -.851806 7.628959)"/></g><g filter="url(#x)"><path d="m13.8502 3.19078c.2728-.24296.6663-.24542.8872-.20615l.1767.56691c-.1129-.01718-.2135.02209-.2982.10308-.1988.73625-.9498.62581-1.097 1.178-.0663-.65527-.1399-1.22218.3313-1.64184z" fill="url(#aK)"/><path d="m13.8502 3.19078c.2728-.24296.6663-.24542.8872-.20615l.1767.56691c-.1129-.01718-.2135.02209-.2982.10308-.1988.73625-.9498.62581-1.097 1.178-.0663-.65527-.1399-1.22218.3313-1.64184z" fill="url(#aL)"/></g><g filter="url(#y)"><path d="m15.7349 2.41036c-.4976-.10985-1.0308.41966-1.0823.60372.6773 1.5903 1.7174 1.43874 2.8714 1.31053.6907-.07675.7657.23805.8246.39021-.1915-1.78172-1.4799-2.05413-2.6137-2.30446z" fill="url(#aM)"/><path d="m15.7349 2.41036c-.4976-.10985-1.0308.41966-1.0823.60372.6773 1.5903 1.7174 1.43874 2.8714 1.31053.6907-.07675.7657.23805.8246.39021-.1915-1.78172-1.4799-2.05413-2.6137-2.30446z" fill="url(#aN)"/><path d="m15.7349 2.41036c-.4976-.10985-1.0308.41966-1.0823.60372.6773 1.5903 1.7174 1.43874 2.8714 1.31053.6907-.07675.7657.23805.8246.39021-.1915-1.78172-1.4799-2.05413-2.6137-2.30446z" fill="url(#aO)"/></g></svg>