<svg enable-background="new 0 0 128 128" viewBox="0 0 32 32" xmlns="http://www.w3.org/2000/svg"><path d="m22.463 6.64886s2-.79 3.41-.12c2.5056 1.19867 2.863 3.41409 2.1415 5.17034 1.6382.9635 2.684 2.9451 1.4085 5.4097-.71 1.38-2.79 1.96-2.79 1.96s1.37 1.66 1.17 3.21c-.3596 2.74-2.3432 3.7681-4.2398 3.631-.4082 1.8611-1.9683 3.4735-4.7103 3.019-1.54-.25-2.73-2.05-2.73-2.05s-1.16 1.82-2.69 2.1c-2.7275.5037-4.31556-1.0641-4.768-2.9109-1.89735.1863-3.91299-.797-4.33195-3.5491-.23-1.54 1.11-3.23 1.11-3.23s-2.09-.54-2.83-1.91c-1.32401-2.4322-.32318-4.4294 1.29234-5.4328-.76094-1.7451-.44517-3.96582 2.03766-5.20724 1.4-.7 3.42.05 3.42.05s-.13-2.15.93995-3.28c1.9095-2.01036 4.1202-1.67391 5.5657-.44597 1.424-1.27202 3.6401-1.6672 5.5944.31597 1.09 1.11 1 3.27 1 3.27z" fill="#ff822d"/><path d="m21.773 13.5789c.72-.26 1.46-.44 2.16-.4 1.57.08 3.22 1.61 2.15 3.72-.44.85-1.72 1.21-1.72 1.21s.84 1.02.72 1.97c-.31 2.34-2.55 2.65-3.88 1.82-.57-.35-1.06-.89-1.49-1.48-.01.005-.02.0125-.03.02s-.02.015-.03.02c.44.58.81 1.2.98 1.85.4 1.52-.54 3.57-2.87 3.18-.95-.16-1.68-1.26-1.68-1.26s-.71 1.12-1.65 1.29c-2.32.43-3.3-1.6-2.93-3.12.16-.65.52-1.28.95-1.87-.01-.005-.0175-.0125-.025-.02s-.015-.015-.025-.02c-.41.61-.89 1.15-1.46 1.52-1.32004.85-3.56004.59-3.91004-1.75-.14-.95.68-1.99.68-1.99s-1.28-.33-1.74-1.17c-1.13-2.07.5-3.63 2.06-3.75.7-.06 1.44.1 2.16004.35 0-.03.01-.05.02-.07-.73004-.21-1.43004-.5-1.97004-.94-1.22-.99-1.66-3.19999.45-4.25999.86-.43 2.10004.03 2.10004.03s-.08-1.32.58-2.01c1.63-1.72 3.61-.65 4.21.8.27.66.35 1.43.33 2.21h.06c-.03-.78.03-1.55.28-2.23.56-1.46 2.53-2.56 4.19-.88.68.69.62 2.01.62 2.01s1.24-.48 2.1-.07c2.14 1.02 1.74 3.23999.54 4.24999-.54.45-1.22.76-1.95.98.005.01.0075.02.01.03s.005.02.01.03z" fill="#ffb02e"/><path d="m18.123 12.829c2.16 0 3.06 2.76 1.31 4.03.67 2.05-1.68 3.76-3.43 2.49-1.75 1.27-4.1-.44-3.43-2.49-1.75-1.27-.85-4.03 1.31-4.03.67-2.05 3.57-2.05 4.24 0z" fill="#ff6723"/><path d="m16.0029 17.1689c.9002 0 1.63-.7297 1.63-1.63 0-.9002-.7298-1.63-1.63-1.63s-1.63.7298-1.63 1.63c0 .9003.7298 1.63 1.63 1.63z" fill="#f4f4f4"/></svg>