<svg fill="none" height="32" viewBox="0 0 32 32" width="32" xmlns="http://www.w3.org/2000/svg" xmlns:xlink="http://www.w3.org/1999/xlink"><filter id="a" color-interpolation-filters="sRGB" filterUnits="userSpaceOnUse" height="7.37051" width="7.33549" x="13.8907" y="10.9013"><feFlood flood-opacity="0" result="BackgroundImageFix"/><feBlend in="SourceGraphic" in2="BackgroundImageFix" mode="normal" result="shape"/><feColorMatrix in="SourceAlpha" result="hardAlpha" type="matrix" values="0 0 0 0 0 0 0 0 0 0 0 0 0 0 0 0 0 0 127 0"/><feOffset dx="-.075" dy=".08"/><feGaussianBlur stdDeviation=".05"/><feComposite in2="hardAlpha" k2="-1" k3="1" operator="arithmetic"/><feColorMatrix type="matrix" values="0 0 0 0 0.662745 0 0 0 0 1 0 0 0 0 1 0 0 0 1 0"/><feBlend in2="shape" mode="normal" result="effect1_innerShadow_4002_1151"/><feColorMatrix in="SourceAlpha" result="hardAlpha" type="matrix" values="0 0 0 0 0 0 0 0 0 0 0 0 0 0 0 0 0 0 127 0"/><feOffset dx=".05" dy="-.08"/><feGaussianBlur stdDeviation=".05"/><feComposite in2="hardAlpha" k2="-1" k3="1" operator="arithmetic"/><feColorMatrix type="matrix" values="0 0 0 0 0.513726 0 0 0 0 0.745098 0 0 0 0 0.996078 0 0 0 1 0"/><feBlend in2="effect1_innerShadow_4002_1151" mode="normal" result="effect2_innerShadow_4002_1151"/></filter><filter id="b" color-interpolation-filters="sRGB" filterUnits="userSpaceOnUse" height="10.5172" width="10.5172" x="14.1403" y="4.71964"><feFlood flood-opacity="0" result="BackgroundImageFix"/><feBlend in="SourceGraphic" in2="BackgroundImageFix" mode="normal" result="shape"/><feColorMatrix in="SourceAlpha" result="hardAlpha" type="matrix" values="0 0 0 0 0 0 0 0 0 0 0 0 0 0 0 0 0 0 127 0"/><feOffset dx="-.05" dy="-.1"/><feGaussianBlur stdDeviation=".05"/><feComposite in2="hardAlpha" k2="-1" k3="1" operator="arithmetic"/><feColorMatrix type="matrix" values="0 0 0 0 0.623529 0 0 0 0 1 0 0 0 0 1 0 0 0 1 0"/><feBlend in2="shape" mode="normal" result="effect1_innerShadow_4002_1151"/><feColorMatrix in="SourceAlpha" result="hardAlpha" type="matrix" values="0 0 0 0 0 0 0 0 0 0 0 0 0 0 0 0 0 0 127 0"/><feOffset dx="-.1" dy=".1"/><feGaussianBlur stdDeviation=".05"/><feComposite in2="hardAlpha" k2="-1" k3="1" operator="arithmetic"/><feColorMatrix type="matrix" values="0 0 0 0 0.639216 0 0 0 0 1 0 0 0 0 1 0 0 0 1 0"/><feBlend in2="effect1_innerShadow_4002_1151" mode="normal" result="effect2_innerShadow_4002_1151"/><feColorMatrix in="SourceAlpha" result="hardAlpha" type="matrix" values="0 0 0 0 0 0 0 0 0 0 0 0 0 0 0 0 0 0 127 0"/><feOffset dx=".1"/><feGaussianBlur stdDeviation=".05"/><feComposite in2="hardAlpha" k2="-1" k3="1" operator="arithmetic"/><feColorMatrix type="matrix" values="0 0 0 0 0.47451 0 0 0 0 0.788235 0 0 0 0 0.827451 0 0 0 1 0"/><feBlend in2="effect2_innerShadow_4002_1151" mode="normal" result="effect3_innerShadow_4002_1151"/></filter><filter id="c" color-interpolation-filters="sRGB" filterUnits="userSpaceOnUse" height="10.9225" width="9.39131" x="7.46611" y="4.73026"><feFlood flood-opacity="0" result="BackgroundImageFix"/><feBlend in="SourceGraphic" in2="BackgroundImageFix" mode="normal" result="shape"/><feColorMatrix in="SourceAlpha" result="hardAlpha" type="matrix" values="0 0 0 0 0 0 0 0 0 0 0 0 0 0 0 0 0 0 127 0"/><feOffset dx="-.05" dy=".1"/><feGaussianBlur stdDeviation=".05"/><feComposite in2="hardAlpha" k2="-1" k3="1" operator="arithmetic"/><feColorMatrix type="matrix" values="0 0 0 0 0.592157 0 0 0 0 1 0 0 0 0 1 0 0 0 1 0"/><feBlend in2="shape" mode="normal" result="effect1_innerShadow_4002_1151"/><feColorMatrix in="SourceAlpha" result="hardAlpha" type="matrix" values="0 0 0 0 0 0 0 0 0 0 0 0 0 0 0 0 0 0 127 0"/><feOffset dx=".05" dy=".05"/><feGaussianBlur stdDeviation=".05"/><feComposite in2="hardAlpha" k2="-1" k3="1" operator="arithmetic"/><feColorMatrix type="matrix" values="0 0 0 0 0.545098 0 0 0 0 0.811765 0 0 0 0 0.831373 0 0 0 1 0"/><feBlend in2="effect1_innerShadow_4002_1151" mode="normal" result="effect2_innerShadow_4002_1151"/><feColorMatrix in="SourceAlpha" result="hardAlpha" type="matrix" values="0 0 0 0 0 0 0 0 0 0 0 0 0 0 0 0 0 0 127 0"/><feOffset dx=".05" dy="-.1"/><feGaussianBlur stdDeviation=".05"/><feComposite in2="hardAlpha" k2="-1" k3="1" operator="arithmetic"/><feColorMatrix type="matrix" values="0 0 0 0 0.521569 0 0 0 0 0.662745 0 0 0 0 0.886275 0 0 0 1 0"/><feBlend in2="effect2_innerShadow_4002_1151" mode="normal" result="effect3_innerShadow_4002_1151"/></filter><filter id="d" color-interpolation-filters="sRGB" filterUnits="userSpaceOnUse" height="7.29799" width="7.29799" x="10.8454" y="10.8938"><feFlood flood-opacity="0" result="BackgroundImageFix"/><feBlend in="SourceGraphic" in2="BackgroundImageFix" mode="normal" result="shape"/><feColorMatrix in="SourceAlpha" result="hardAlpha" type="matrix" values="0 0 0 0 0 0 0 0 0 0 0 0 0 0 0 0 0 0 127 0"/><feOffset dx=".05" dy="-.05"/><feGaussianBlur stdDeviation=".05"/><feComposite in2="hardAlpha" k2="-1" k3="1" operator="arithmetic"/><feColorMatrix type="matrix" values="0 0 0 0 0.443137 0 0 0 0 0.654902 0 0 0 0 0.905882 0 0 0 1 0"/><feBlend in2="shape" mode="normal" result="effect1_innerShadow_4002_1151"/></filter><filter id="e" color-interpolation-filters="sRGB" filterUnits="userSpaceOnUse" height="3.64186" width="3.9075" x="9.54531" y="9.05917"><feFlood flood-opacity="0" result="BackgroundImageFix"/><feColorMatrix in="SourceAlpha" result="hardAlpha" type="matrix" values="0 0 0 0 0 0 0 0 0 0 0 0 0 0 0 0 0 0 127 0"/><feOffset dx="-.05" dy=".05"/><feGaussianBlur stdDeviation=".05"/><feComposite in2="hardAlpha" operator="out"/><feColorMatrix type="matrix" values="0 0 0 0 0.505882 0 0 0 0 0.768627 0 0 0 0 0.941176 0 0 0 1 0"/><feBlend in2="BackgroundImageFix" mode="normal" result="effect1_dropShadow_4002_1151"/><feColorMatrix in="SourceAlpha" result="hardAlpha" type="matrix" values="0 0 0 0 0 0 0 0 0 0 0 0 0 0 0 0 0 0 127 0"/><feOffset dx=".05" dy="-.05"/><feGaussianBlur stdDeviation=".05"/><feComposite in2="hardAlpha" operator="out"/><feColorMatrix type="matrix" values="0 0 0 0 0.6 0 0 0 0 0.941176 0 0 0 0 1 0 0 0 1 0"/><feBlend in2="effect1_dropShadow_4002_1151" mode="normal" result="effect2_dropShadow_4002_1151"/><feBlend in="SourceGraphic" in2="effect2_dropShadow_4002_1151" mode="normal" result="shape"/></filter><filter id="f" color-interpolation-filters="sRGB" filterUnits="userSpaceOnUse" height="6.54817" width="6.45047" x="9.61953" y="5.98885"><feFlood flood-opacity="0" result="BackgroundImageFix"/><feColorMatrix in="SourceAlpha" result="hardAlpha" type="matrix" values="0 0 0 0 0 0 0 0 0 0 0 0 0 0 0 0 0 0 127 0"/><feOffset dx="-.05" dy=".05"/><feGaussianBlur stdDeviation=".05"/><feComposite in2="hardAlpha" operator="out"/><feColorMatrix type="matrix" values="0 0 0 0 0.505882 0 0 0 0 0.768627 0 0 0 0 0.941176 0 0 0 1 0"/><feBlend in2="BackgroundImageFix" mode="normal" result="effect1_dropShadow_4002_1151"/><feColorMatrix in="SourceAlpha" result="hardAlpha" type="matrix" values="0 0 0 0 0 0 0 0 0 0 0 0 0 0 0 0 0 0 127 0"/><feOffset dx=".05" dy="-.05"/><feGaussianBlur stdDeviation=".05"/><feComposite in2="hardAlpha" operator="out"/><feColorMatrix type="matrix" values="0 0 0 0 0.6 0 0 0 0 0.941176 0 0 0 0 1 0 0 0 1 0"/><feBlend in2="effect1_dropShadow_4002_1151" mode="normal" result="effect2_dropShadow_4002_1151"/><feBlend in="SourceGraphic" in2="effect2_dropShadow_4002_1151" mode="normal" result="shape"/></filter><filter id="g" color-interpolation-filters="sRGB" filterUnits="userSpaceOnUse" height="3.64186" width="3.9075" x="18.631" y="9.05917"><feFlood flood-opacity="0" result="BackgroundImageFix"/><feColorMatrix in="SourceAlpha" result="hardAlpha" type="matrix" values="0 0 0 0 0 0 0 0 0 0 0 0 0 0 0 0 0 0 127 0"/><feOffset dx="-.05" dy=".05"/><feGaussianBlur stdDeviation=".05"/><feComposite in2="hardAlpha" operator="out"/><feColorMatrix type="matrix" values="0 0 0 0 0.505882 0 0 0 0 0.768627 0 0 0 0 0.941176 0 0 0 1 0"/><feBlend in2="BackgroundImageFix" mode="normal" result="effect1_dropShadow_4002_1151"/><feColorMatrix in="SourceAlpha" result="hardAlpha" type="matrix" values="0 0 0 0 0 0 0 0 0 0 0 0 0 0 0 0 0 0 127 0"/><feOffset dx=".05" dy="-.05"/><feGaussianBlur stdDeviation=".05"/><feComposite in2="hardAlpha" operator="out"/><feColorMatrix type="matrix" values="0 0 0 0 0.607843 0 0 0 0 0.968627 0 0 0 0 1 0 0 0 1 0"/><feBlend in2="effect1_dropShadow_4002_1151" mode="normal" result="effect2_dropShadow_4002_1151"/><feBlend in="SourceGraphic" in2="effect2_dropShadow_4002_1151" mode="normal" result="shape"/></filter><filter id="h" color-interpolation-filters="sRGB" filterUnits="userSpaceOnUse" height="6.54817" width="6.45047" x="16.0138" y="5.98885"><feFlood flood-opacity="0" result="BackgroundImageFix"/><feColorMatrix in="SourceAlpha" result="hardAlpha" type="matrix" values="0 0 0 0 0 0 0 0 0 0 0 0 0 0 0 0 0 0 127 0"/><feOffset dx="-.05" dy=".05"/><feGaussianBlur stdDeviation=".05"/><feComposite in2="hardAlpha" operator="out"/><feColorMatrix type="matrix" values="0 0 0 0 0.505882 0 0 0 0 0.768627 0 0 0 0 0.941176 0 0 0 1 0"/><feBlend in2="BackgroundImageFix" mode="normal" result="effect1_dropShadow_4002_1151"/><feColorMatrix in="SourceAlpha" result="hardAlpha" type="matrix" values="0 0 0 0 0 0 0 0 0 0 0 0 0 0 0 0 0 0 127 0"/><feOffset dx=".05" dy="-.05"/><feGaussianBlur stdDeviation=".05"/><feComposite in2="hardAlpha" operator="out"/><feColorMatrix type="matrix" values="0 0 0 0 0.607843 0 0 0 0 0.968627 0 0 0 0 1 0 0 0 1 0"/><feBlend in2="effect1_dropShadow_4002_1151" mode="normal" result="effect2_dropShadow_4002_1151"/><feBlend in="SourceGraphic" in2="effect2_dropShadow_4002_1151" mode="normal" result="shape"/></filter><filter id="i" color-interpolation-filters="sRGB" filterUnits="userSpaceOnUse" height="7.4176" width="6.91759" x="12.6946" y="3.29108"><feFlood flood-opacity="0" result="BackgroundImageFix"/><feBlend in="SourceGraphic" in2="BackgroundImageFix" mode="normal" result="shape"/><feColorMatrix in="SourceAlpha" result="hardAlpha" type="matrix" values="0 0 0 0 0 0 0 0 0 0 0 0 0 0 0 0 0 0 127 0"/><feOffset dx=".25" dy="-.75"/><feGaussianBlur stdDeviation=".75"/><feComposite in2="hardAlpha" k2="-1" k3="1" operator="arithmetic"/><feColorMatrix type="matrix" values="0 0 0 0 0.262745 0 0 0 0 0.133333 0 0 0 0 0.184314 0 0 0 1 0"/><feBlend in2="shape" mode="normal" result="effect1_innerShadow_4002_1151"/></filter><filter id="j" color-interpolation-filters="sRGB" filterUnits="userSpaceOnUse" height="4.83281" width=".98927" x="22.3545" y="4.79725"><feFlood flood-opacity="0" result="BackgroundImageFix"/><feBlend in="SourceGraphic" in2="BackgroundImageFix" mode="normal" result="shape"/><feColorMatrix in="SourceAlpha" result="hardAlpha" type="matrix" values="0 0 0 0 0 0 0 0 0 0 0 0 0 0 0 0 0 0 127 0"/><feOffset dx=".35" dy="-.2"/><feGaussianBlur stdDeviation=".15"/><feComposite in2="hardAlpha" k2="-1" k3="1" operator="arithmetic"/><feColorMatrix type="matrix" values="0 0 0 0 0.439216 0 0 0 0 0.254902 0 0 0 0 0.239216 0 0 0 1 0"/><feBlend in2="shape" mode="normal" result="effect1_innerShadow_4002_1151"/></filter><filter id="k" color-interpolation-filters="sRGB" filterUnits="userSpaceOnUse" height="3.79896" width="4.08414" x="20.7322" y="2.11656"><feFlood flood-opacity="0" result="BackgroundImageFix"/><feBlend in="SourceGraphic" in2="BackgroundImageFix" mode="normal" result="shape"/><feColorMatrix in="SourceAlpha" result="hardAlpha" type="matrix" values="0 0 0 0 0 0 0 0 0 0 0 0 0 0 0 0 0 0 127 0"/><feOffset dx=".15" dy="-.05"/><feGaussianBlur stdDeviation=".25"/><feComposite in2="hardAlpha" k2="-1" k3="1" operator="arithmetic"/><feColorMatrix type="matrix" values="0 0 0 0 0.917647 0 0 0 0 0.639216 0 0 0 0 0.270588 0 0 0 1 0"/><feBlend in2="shape" mode="normal" result="effect1_innerShadow_4002_1151"/></filter><filter id="l" color-interpolation-filters="sRGB" filterUnits="userSpaceOnUse" height="8.84307" width="5.09129" x="15.749" y="18.772"><feFlood flood-opacity="0" result="BackgroundImageFix"/><feBlend in="SourceGraphic" in2="BackgroundImageFix" mode="normal" result="shape"/><feColorMatrix in="SourceAlpha" result="hardAlpha" type="matrix" values="0 0 0 0 0 0 0 0 0 0 0 0 0 0 0 0 0 0 127 0"/><feOffset dx=".65" dy="-.2"/><feGaussianBlur stdDeviation=".5"/><feComposite in2="hardAlpha" k2="-1" k3="1" operator="arithmetic"/><feColorMatrix type="matrix" values="0 0 0 0 0.560784 0 0 0 0 0.376471 0 0 0 0 0.329412 0 0 0 1 0"/><feBlend in2="shape" mode="normal" result="effect1_innerShadow_4002_1151"/></filter><filter id="m" color-interpolation-filters="sRGB" filterUnits="userSpaceOnUse" height="5.43435" width="7.57812" x="6.01465" y="10.5518"><feFlood flood-opacity="0" result="BackgroundImageFix"/><feBlend in="SourceGraphic" in2="BackgroundImageFix" mode="normal" result="shape"/><feColorMatrix in="SourceAlpha" result="hardAlpha" type="matrix" values="0 0 0 0 0 0 0 0 0 0 0 0 0 0 0 0 0 0 127 0"/><feOffset dy="-.5"/><feGaussianBlur stdDeviation=".375"/><feComposite in2="hardAlpha" k2="-1" k3="1" operator="arithmetic"/><feColorMatrix type="matrix" values="0 0 0 0 0.611765 0 0 0 0 0.392157 0 0 0 0 0.45098 0 0 0 1 0"/><feBlend in2="shape" mode="normal" result="effect1_innerShadow_4002_1151"/><feColorMatrix in="SourceAlpha" result="hardAlpha" type="matrix" values="0 0 0 0 0 0 0 0 0 0 0 0 0 0 0 0 0 0 127 0"/><feOffset dy="-.1"/><feGaussianBlur stdDeviation=".125"/><feComposite in2="hardAlpha" k2="-1" k3="1" operator="arithmetic"/><feColorMatrix type="matrix" values="0 0 0 0 0.54902 0 0 0 0 0.254902 0 0 0 0 0.368627 0 0 0 1 0"/><feBlend in2="effect1_innerShadow_4002_1151" mode="normal" result="effect2_innerShadow_4002_1151"/><feColorMatrix in="SourceAlpha" result="hardAlpha" type="matrix" values="0 0 0 0 0 0 0 0 0 0 0 0 0 0 0 0 0 0 127 0"/><feOffset dy=".1"/><feGaussianBlur stdDeviation=".25"/><feComposite in2="hardAlpha" k2="-1" k3="1" operator="arithmetic"/><feColorMatrix type="matrix" values="0 0 0 0 0.576471 0 0 0 0 0.443137 0 0 0 0 0.360784 0 0 0 1 0"/><feBlend in2="effect2_innerShadow_4002_1151" mode="normal" result="effect3_innerShadow_4002_1151"/></filter><filter id="n" color-interpolation-filters="sRGB" filterUnits="userSpaceOnUse" height="1.56063" width="1.69159" x="6.72241" y="14.3337"><feFlood flood-opacity="0" result="BackgroundImageFix"/><feBlend in="SourceGraphic" in2="BackgroundImageFix" mode="normal" result="shape"/><feColorMatrix in="SourceAlpha" result="hardAlpha" type="matrix" values="0 0 0 0 0 0 0 0 0 0 0 0 0 0 0 0 0 0 127 0"/><feOffset dx=".1" dy="-.1"/><feGaussianBlur stdDeviation=".125"/><feComposite in2="hardAlpha" k2="-1" k3="1" operator="arithmetic"/><feColorMatrix type="matrix" values="0 0 0 0 0.886275 0 0 0 0 0.592157 0 0 0 0 0.203922 0 0 0 1 0"/><feBlend in2="shape" mode="normal" result="effect1_innerShadow_4002_1151"/></filter><filter id="o" color-interpolation-filters="sRGB" filterUnits="userSpaceOnUse" height="1.56063" width="1.69159" x="6.72241" y="14.3337"><feFlood flood-opacity="0" result="BackgroundImageFix"/><feBlend in="SourceGraphic" in2="BackgroundImageFix" mode="normal" result="shape"/><feColorMatrix in="SourceAlpha" result="hardAlpha" type="matrix" values="0 0 0 0 0 0 0 0 0 0 0 0 0 0 0 0 0 0 127 0"/><feOffset dx=".1" dy="-.1"/><feGaussianBlur stdDeviation=".125"/><feComposite in2="hardAlpha" k2="-1" k3="1" operator="arithmetic"/><feColorMatrix type="matrix" values="0 0 0 0 0.607843 0 0 0 0 0.380392 0 0 0 0 0.498039 0 0 0 1 0"/><feBlend in2="shape" mode="normal" result="effect1_innerShadow_4002_1151"/></filter><filter id="p" color-interpolation-filters="sRGB" filterUnits="userSpaceOnUse" height="7.21041" width="5.39764" x="18.2178" y="7.50663"><feFlood flood-opacity="0" result="BackgroundImageFix"/><feBlend in="SourceGraphic" in2="BackgroundImageFix" mode="normal" result="shape"/><feColorMatrix in="SourceAlpha" result="hardAlpha" type="matrix" values="0 0 0 0 0 0 0 0 0 0 0 0 0 0 0 0 0 0 127 0"/><feOffset dy="-.6"/><feGaussianBlur stdDeviation=".4"/><feComposite in2="hardAlpha" k2="-1" k3="1" operator="arithmetic"/><feColorMatrix type="matrix" values="0 0 0 0 0.631373 0 0 0 0 0.34902 0 0 0 0 0.454902 0 0 0 1 0"/><feBlend in2="shape" mode="normal" result="effect1_innerShadow_4002_1151"/></filter><filter id="q" color-interpolation-filters="sRGB" filterUnits="userSpaceOnUse" height="5.06515" width="6.34883" x="13.1399" y="16.0069"><feFlood flood-opacity="0" result="BackgroundImageFix"/><feBlend in="SourceGraphic" in2="BackgroundImageFix" mode="normal" result="shape"/><feColorMatrix in="SourceAlpha" result="hardAlpha" type="matrix" values="0 0 0 0 0 0 0 0 0 0 0 0 0 0 0 0 0 0 127 0"/><feOffset dy="-.25"/><feGaussianBlur stdDeviation=".125"/><feComposite in2="hardAlpha" k2="-1" k3="1" operator="arithmetic"/><feColorMatrix type="matrix" values="0 0 0 0 0.513726 0 0 0 0 0.329412 0 0 0 0 0.701961 0 0 0 1 0"/><feBlend in2="shape" mode="normal" result="effect1_innerShadow_4002_1151"/><feColorMatrix in="SourceAlpha" result="hardAlpha" type="matrix" values="0 0 0 0 0 0 0 0 0 0 0 0 0 0 0 0 0 0 127 0"/><feOffset dy=".1"/><feGaussianBlur stdDeviation=".075"/><feComposite in2="hardAlpha" k2="-1" k3="1" operator="arithmetic"/><feColorMatrix type="matrix" values="0 0 0 0 0.513726 0 0 0 0 0.415686 0 0 0 0 0.717647 0 0 0 1 0"/><feBlend in2="effect1_innerShadow_4002_1151" mode="normal" result="effect2_innerShadow_4002_1151"/></filter><filter id="r" color-interpolation-filters="sRGB" filterUnits="userSpaceOnUse" height="5.16144" width="4.60946" x="18.9511" y="9.38605"><feFlood flood-opacity="0" result="BackgroundImageFix"/><feBlend in="SourceGraphic" in2="BackgroundImageFix" mode="normal" result="shape"/><feGaussianBlur result="effect1_foregroundBlur_4002_1151" stdDeviation=".25"/></filter><filter id="s" color-interpolation-filters="sRGB" filterUnits="userSpaceOnUse" height="1.42877" width="1.57877" x="13.2336" y="7.11285"><feFlood flood-opacity="0" result="BackgroundImageFix"/><feBlend in="SourceGraphic" in2="BackgroundImageFix" mode="normal" result="shape"/><feColorMatrix in="SourceAlpha" result="hardAlpha" type="matrix" values="0 0 0 0 0 0 0 0 0 0 0 0 0 0 0 0 0 0 127 0"/><feOffset dx=".15"/><feGaussianBlur stdDeviation=".25"/><feComposite in2="hardAlpha" k2="-1" k3="1" operator="arithmetic"/><feColorMatrix type="matrix" values="0 0 0 0 0.607843 0 0 0 0 0.458824 0 0 0 0 0.403922 0 0 0 1 0"/><feBlend in2="shape" mode="normal" result="effect1_innerShadow_4002_1151"/></filter><filter id="t" color-interpolation-filters="sRGB" filterUnits="userSpaceOnUse" height="1.67877" width="1.42877" x="17.457" y="6.86285"><feFlood flood-opacity="0" result="BackgroundImageFix"/><feBlend in="SourceGraphic" in2="BackgroundImageFix" mode="normal" result="shape"/><feColorMatrix in="SourceAlpha" result="hardAlpha" type="matrix" values="0 0 0 0 0 0 0 0 0 0 0 0 0 0 0 0 0 0 127 0"/><feOffset dy="-.25"/><feGaussianBlur stdDeviation=".25"/><feComposite in2="hardAlpha" k2="-1" k3="1" operator="arithmetic"/><feColorMatrix type="matrix" values="0 0 0 0 0.556863 0 0 0 0 0.34902 0 0 0 0 0.384314 0 0 0 1 0"/><feBlend in2="shape" mode="normal" result="effect1_innerShadow_4002_1151"/></filter><filter id="u" color-interpolation-filters="sRGB" filterUnits="userSpaceOnUse" height="1.35374" width="1.35374" x="17.4946" y="7.1504"><feFlood flood-opacity="0" result="BackgroundImageFix"/><feBlend in="SourceGraphic" in2="BackgroundImageFix" mode="normal" result="shape"/><feGaussianBlur result="effect1_foregroundBlur_4002_1151" stdDeviation=".1"/></filter><filter id="v" color-interpolation-filters="sRGB" filterUnits="userSpaceOnUse" height="1.35374" width="1.35374" x="13.2797" y="7.1504"><feFlood flood-opacity="0" result="BackgroundImageFix"/><feBlend in="SourceGraphic" in2="BackgroundImageFix" mode="normal" result="shape"/><feGaussianBlur result="effect1_foregroundBlur_4002_1151" stdDeviation=".1"/></filter><filter id="w" color-interpolation-filters="sRGB" filterUnits="userSpaceOnUse" height="4.87898" width="4.52444" x="13.7661" y="5.64874"><feFlood flood-opacity="0" result="BackgroundImageFix"/><feBlend in="SourceGraphic" in2="BackgroundImageFix" mode="normal" result="shape"/><feColorMatrix in="SourceAlpha" result="hardAlpha" type="matrix" values="0 0 0 0 0 0 0 0 0 0 0 0 0 0 0 0 0 0 127 0"/><feOffset dy=".05"/><feGaussianBlur stdDeviation=".05"/><feComposite in2="hardAlpha" k2="-1" k3="1" operator="arithmetic"/><feColorMatrix type="matrix" values="0 0 0 0 0.407843 0 0 0 0 0.223529 0 0 0 0 0.25098 0 0 0 1 0"/><feBlend in2="shape" mode="normal" result="effect1_innerShadow_4002_1151"/></filter><filter id="x" color-interpolation-filters="sRGB" filterUnits="userSpaceOnUse" height="2.19061" width="1.83345" x="15.0396" y="7.10297"><feFlood flood-opacity="0" result="BackgroundImageFix"/><feBlend in="SourceGraphic" in2="BackgroundImageFix" mode="normal" result="shape"/><feGaussianBlur result="effect1_foregroundBlur_4002_1151" stdDeviation=".25"/></filter><filter id="y" color-interpolation-filters="sRGB" filterUnits="userSpaceOnUse" height="1.39061" width="1.03345" x="15.5116" y="7.44156"><feFlood flood-opacity="0" result="BackgroundImageFix"/><feBlend in="SourceGraphic" in2="BackgroundImageFix" mode="normal" result="shape"/><feGaussianBlur result="effect1_foregroundBlur_4002_1151" stdDeviation=".05"/></filter><filter id="z" color-interpolation-filters="sRGB" filterUnits="userSpaceOnUse" height=".699915" width="1.66614" x="15.1951" y="8.85851"><feFlood flood-opacity="0" result="BackgroundImageFix"/><feBlend in="SourceGraphic" in2="BackgroundImageFix" mode="normal" result="shape"/><feGaussianBlur result="effect1_foregroundBlur_4002_1151" stdDeviation=".025"/></filter><filter id="A" color-interpolation-filters="sRGB" filterUnits="userSpaceOnUse" height=".570679" width="1.44373" x="16.3353" y="7.20367"><feFlood flood-opacity="0" result="BackgroundImageFix"/><feBlend in="SourceGraphic" in2="BackgroundImageFix" mode="normal" result="shape"/><feColorMatrix in="SourceAlpha" result="hardAlpha" type="matrix" values="0 0 0 0 0 0 0 0 0 0 0 0 0 0 0 0 0 0 127 0"/><feOffset dx="-.2"/><feGaussianBlur stdDeviation=".2"/><feComposite in2="hardAlpha" k2="-1" k3="1" operator="arithmetic"/><feColorMatrix type="matrix" values="0 0 0 0 0.117647 0 0 0 0 0.0705882 0 0 0 0 0.156863 0 0 0 1 0"/><feBlend in2="shape" mode="normal" result="effect1_innerShadow_4002_1151"/></filter><filter id="B" color-interpolation-filters="sRGB" filterUnits="userSpaceOnUse" height=".570679" width="1.44373" x="14.2776" y="7.20367"><feFlood flood-opacity="0" result="BackgroundImageFix"/><feBlend in="SourceGraphic" in2="BackgroundImageFix" mode="normal" result="shape"/><feColorMatrix in="SourceAlpha" result="hardAlpha" type="matrix" values="0 0 0 0 0 0 0 0 0 0 0 0 0 0 0 0 0 0 127 0"/><feOffset dx=".2"/><feGaussianBlur stdDeviation=".125"/><feComposite in2="hardAlpha" k2="-1" k3="1" operator="arithmetic"/><feColorMatrix type="matrix" values="0 0 0 0 0.0862745 0 0 0 0 0.054902 0 0 0 0 0.113725 0 0 0 1 0"/><feBlend in2="shape" mode="normal" result="effect1_innerShadow_4002_1151"/></filter><filter id="C" color-interpolation-filters="sRGB" filterUnits="userSpaceOnUse" height=".595569" width="1.20016" x="14.3376" y="6.46046"><feFlood flood-opacity="0" result="BackgroundImageFix"/><feBlend in="SourceGraphic" in2="BackgroundImageFix" mode="normal" result="shape"/><feColorMatrix in="SourceAlpha" result="hardAlpha" type="matrix" values="0 0 0 0 0 0 0 0 0 0 0 0 0 0 0 0 0 0 127 0"/><feOffset dx=".2" dy="-.2"/><feGaussianBlur stdDeviation=".15"/><feComposite in2="hardAlpha" k2="-1" k3="1" operator="arithmetic"/><feColorMatrix type="matrix" values="0 0 0 0 0.211765 0 0 0 0 0.121569 0 0 0 0 0.12549 0 0 0 1 0"/><feBlend in2="shape" mode="normal" result="effect1_innerShadow_4002_1151"/></filter><filter id="D" color-interpolation-filters="sRGB" filterUnits="userSpaceOnUse" height=".59563" width="1.20016" x="16.7427" y="6.46046"><feFlood flood-opacity="0" result="BackgroundImageFix"/><feBlend in="SourceGraphic" in2="BackgroundImageFix" mode="normal" result="shape"/><feColorMatrix in="SourceAlpha" result="hardAlpha" type="matrix" values="0 0 0 0 0 0 0 0 0 0 0 0 0 0 0 0 0 0 127 0"/><feOffset dx=".2" dy="-.2"/><feGaussianBlur stdDeviation=".15"/><feComposite in2="hardAlpha" k2="-1" k3="1" operator="arithmetic"/><feColorMatrix type="matrix" values="0 0 0 0 0.211765 0 0 0 0 0.121569 0 0 0 0 0.12549 0 0 0 1 0"/><feBlend in2="shape" mode="normal" result="effect1_innerShadow_4002_1151"/></filter><filter id="E" color-interpolation-filters="sRGB" filterUnits="userSpaceOnUse" height=".420398" width=".460532" x="16.6156" y="7.31125"><feFlood flood-opacity="0" result="BackgroundImageFix"/><feBlend in="SourceGraphic" in2="BackgroundImageFix" mode="normal" result="shape"/><feGaussianBlur result="effect1_foregroundBlur_4002_1151" stdDeviation=".05"/></filter><filter id="F" color-interpolation-filters="sRGB" filterUnits="userSpaceOnUse" height=".627966" width=".61809" x="16.9328" y="7.28907"><feFlood flood-opacity="0" result="BackgroundImageFix"/><feBlend in="SourceGraphic" in2="BackgroundImageFix" mode="normal" result="shape"/><feGaussianBlur result="effect1_foregroundBlur_4002_1151" stdDeviation=".1"/></filter><filter id="G" color-interpolation-filters="sRGB" filterUnits="userSpaceOnUse" height=".684241" width=".660302" x="14.9604" y="7.26088"><feFlood flood-opacity="0" result="BackgroundImageFix"/><feBlend in="SourceGraphic" in2="BackgroundImageFix" mode="normal" result="shape"/><feGaussianBlur result="effect1_foregroundBlur_4002_1151" stdDeviation=".1"/></filter><filter id="H" color-interpolation-filters="sRGB" filterUnits="userSpaceOnUse" height=".423938" width=".516568" x="14.6809" y="7.30765"><feFlood flood-opacity="0" result="BackgroundImageFix"/><feBlend in="SourceGraphic" in2="BackgroundImageFix" mode="normal" result="shape"/><feGaussianBlur result="effect1_foregroundBlur_4002_1151" stdDeviation=".05"/></filter><filter id="I" color-interpolation-filters="sRGB" filterUnits="userSpaceOnUse" height="2.64503" width="4.04823" x="14.4539" y="4.2526"><feFlood flood-opacity="0" result="BackgroundImageFix"/><feBlend in="SourceGraphic" in2="BackgroundImageFix" mode="normal" result="shape"/><feColorMatrix in="SourceAlpha" result="hardAlpha" type="matrix" values="0 0 0 0 0 0 0 0 0 0 0 0 0 0 0 0 0 0 127 0"/><feOffset dx="-.3" dy=".2"/><feGaussianBlur stdDeviation=".4"/><feComposite in2="hardAlpha" k2="-1" k3="1" operator="arithmetic"/><feColorMatrix type="matrix" values="0 0 0 0 0.415686 0 0 0 0 0.317647 0 0 0 0 0.305882 0 0 0 1 0"/><feBlend in2="shape" mode="normal" result="effect1_innerShadow_4002_1151"/><feGaussianBlur result="effect2_foregroundBlur_4002_1151" stdDeviation=".05"/></filter><filter id="J" color-interpolation-filters="sRGB" filterUnits="userSpaceOnUse" height="1.63112" width="2.98751" x="15.703" y="5.08151"><feFlood flood-opacity="0" result="BackgroundImageFix"/><feBlend in="SourceGraphic" in2="BackgroundImageFix" mode="normal" result="shape"/><feGaussianBlur result="effect1_foregroundBlur_4002_1151" stdDeviation=".2"/></filter><radialGradient id="K" cx="0" cy="0" gradientTransform="matrix(-1.87824967 -2.80633154 3.32448668 -2.22504573 16.8385 21.3012)" gradientUnits="userSpaceOnUse" r="1"><stop offset="0" stop-color="#93efff"/><stop offset="1" stop-color="#91e5ff"/></radialGradient><radialGradient id="L" cx="0" cy="0" gradientTransform="matrix(0 8.75045 -10.1868 0 3.09225 .2804)" gradientUnits="userSpaceOnUse" r="1"><stop offset=".356061" stop-color="#90eeff"/><stop offset="1" stop-color="#91deff"/></radialGradient><radialGradient id="M" cx="0" cy="0" gradientTransform="matrix(1.50260188 -2.45277285 1.4409968 .88277416 -.465377 9.3623)" gradientUnits="userSpaceOnUse" r="1"><stop offset=".418965" stop-color="#94d8ff"/><stop offset="1" stop-color="#94d8ff" stop-opacity="0"/></radialGradient><linearGradient id="N" gradientUnits="userSpaceOnUse" x1="8.52858" x2="12.668" y1="5.84273" y2="9.98215"><stop offset="0" stop-color="#8eefff"/><stop offset="1" stop-color="#8bd2ff"/></linearGradient><linearGradient id="O" gradientUnits="userSpaceOnUse" x1="11.1319" x2="10.6944" y1="12.966" y2="9.05975"><stop offset="0" stop-color="#87c9fb"/><stop offset="1" stop-color="#87c9fb" stop-opacity="0"/></linearGradient><radialGradient id="P" cx="0" cy="0" gradientTransform="matrix(.46403945 .88388365 -1.60026777 .84014155 1.81543 6.28859)" gradientUnits="userSpaceOnUse" r="1"><stop offset="0" stop-color="#85d1fb"/><stop offset="1" stop-color="#80caf3"/></radialGradient><linearGradient id="Q" gradientUnits="userSpaceOnUse" x1="18.112" x2="15.3884" y1="4.74058" y2="9.51802"><stop offset="0" stop-color="#6d524e"/><stop offset="1" stop-color="#2c1c24"/></linearGradient><radialGradient id="R" cx="0" cy="0" gradientTransform="matrix(-.2678925 2.02408889 -2.52850016 -.33465241 15.8945 8.93759)" gradientUnits="userSpaceOnUse" r="1"><stop offset=".590551" stop-color="#261326"/><stop offset="1" stop-color="#261326" stop-opacity="0"/></radialGradient><radialGradient id="S" cx="0" cy="0" gradientTransform="matrix(-1.27996992 .86322061 -1.1342054 -1.6817819 14.6443 9.05666)" gradientUnits="userSpaceOnUse" r="1"><stop offset=".258378" stop-color="#25131c"/><stop offset="1" stop-color="#25131c" stop-opacity="0"/></radialGradient><radialGradient id="T" cx="0" cy="0" gradientTransform="matrix(-.58043268 .75903715 -.58283503 -.44569163 13.8778 7.92555)" gradientUnits="userSpaceOnUse" r="1"><stop offset=".333546" stop-color="#27141e"/><stop offset="1" stop-color="#27141e" stop-opacity="0"/></radialGradient><radialGradient id="U" cx="0" cy="0" gradientTransform="matrix(-.57300245 .9376244 -.66047377 -.40362974 14.0787 7.02513)" gradientUnits="userSpaceOnUse" r="1"><stop offset=".320588" stop-color="#230c14"/><stop offset="1" stop-color="#230c14" stop-opacity="0"/></radialGradient><radialGradient id="V" cx="0" cy="0" gradientTransform="matrix(.61020451 1.16087478 -1.61146747 .84705494 14.4657 4.24945)" gradientUnits="userSpaceOnUse" r="1"><stop offset="0" stop-color="#554543"/><stop offset="1" stop-color="#554543" stop-opacity="0"/></radialGradient><radialGradient id="W" cx="0" cy="0" gradientTransform="matrix(-.6399291 .63997377 -.89435159 -.89428915 18.618 5.17219)" gradientUnits="userSpaceOnUse" r="1"><stop offset="0" stop-color="#6e5350"/><stop offset="1" stop-color="#6e5350" stop-opacity="0"/></radialGradient><radialGradient id="X" cx="0" cy="0" gradientTransform="matrix(-.81852857 .2381299 -.49660211 -1.7069802 19.3622 7.44929)" gradientUnits="userSpaceOnUse" r="1"><stop offset="0" stop-color="#604947"/><stop offset="1" stop-color="#604947" stop-opacity="0"/></radialGradient><radialGradient id="Y" cx="0" cy="0" gradientTransform="matrix(-1.2501312 .31255034 -.39814326 -1.59248366 19.0943 8.96736)" gradientUnits="userSpaceOnUse" r="1"><stop offset="0" stop-color="#564544"/><stop offset="1" stop-color="#564544" stop-opacity="0"/></radialGradient><radialGradient id="Z" cx="0" cy="0" gradientTransform="matrix(-.40154321 -1.17663014 .9306504 -.31759883 18.1295 6.36867)" gradientUnits="userSpaceOnUse" r="1"><stop offset="0" stop-color="#5f4846"/><stop offset="1" stop-color="#5f4846" stop-opacity="0"/></radialGradient><radialGradient id="aa" cx="0" cy="0" gradientTransform="matrix(.66769277 .07003749 -.11348089 1.08185451 13.3016 7.43324)" gradientUnits="userSpaceOnUse" r="1"><stop offset="0" stop-color="#56413d"/><stop offset="1" stop-color="#56413d" stop-opacity="0"/></radialGradient><radialGradient id="ab" cx="0" cy="0" gradientTransform="matrix(-.37206937 -1.64457669 .59355999 -.13428713 18.298 7.14418)" gradientUnits="userSpaceOnUse" r="1"><stop offset="0" stop-color="#3e2125"/><stop offset="1" stop-color="#3e2125" stop-opacity="0"/></radialGradient><linearGradient id="ac" gradientUnits="userSpaceOnUse" x1="22.9209" x2="22.5467" y1="5.34452" y2="6.12671"><stop offset=".166688" stop-color="#6c2d29"/><stop offset="1" stop-color="#6c2d29" stop-opacity="0"/></linearGradient><radialGradient id="ad" cx="0" cy="0" gradientTransform="matrix(-2.5937544 2.06250028 -2.16436713 -2.72185988 23.9353 3.37231)" gradientUnits="userSpaceOnUse" r="1"><stop offset="0" stop-color="#ffc736"/><stop offset="1" stop-color="#febb35"/></radialGradient><radialGradient id="ae" cx="0" cy="0" gradientTransform="matrix(.3515627 .89062441 -.53122179 .20969307 23.2166 2.57543)" gradientUnits="userSpaceOnUse" r="1"><stop offset=".219947" stop-color="#ffdd49"/><stop offset="1" stop-color="#ffdd49" stop-opacity="0"/></radialGradient><linearGradient id="af"><stop offset="0" stop-color="#ffd545"/><stop offset="1" stop-color="#ffd545" stop-opacity="0"/></linearGradient><radialGradient id="ag" cx="0" cy="0" gradientTransform="matrix(.20307373 1.02382463 -.34390138 .0682122 23.9613 5.03396)" gradientUnits="userSpaceOnUse" r="1" xlink:href="#af"/><radialGradient id="ah" cx="0" cy="0" gradientTransform="matrix(-.63460291 .21999907 -.12993131 -.37479606 24.7313 3.52783)" gradientUnits="userSpaceOnUse" r="1" xlink:href="#af"/><linearGradient id="ai" gradientUnits="userSpaceOnUse" x1="18.7921" x2="16.9913" y1="16.2473" y2="16.2473"><stop offset="0" stop-color="#bff332"/><stop offset="1" stop-color="#bff332" stop-opacity="0"/></linearGradient><linearGradient id="aj" gradientUnits="userSpaceOnUse" x1="13.2673" x2="15.007" y1="16.431" y2="16.431"><stop offset="0" stop-color="#839927"/><stop offset="1" stop-color="#afd730" stop-opacity="0"/></linearGradient><linearGradient id="ak" gradientUnits="userSpaceOnUse" x1="15.3455" x2="13.8746" y1="24.3478" y2="24.3478"><stop offset=".266974" stop-color="#c09386"/><stop offset=".945023" stop-color="#a77871"/></linearGradient><linearGradient id="al" gradientUnits="userSpaceOnUse" x1="15.5173" x2="15.0167" y1="26.0356" y2="26.0095"><stop offset="0" stop-color="#af8375"/><stop offset="1" stop-color="#af8375" stop-opacity="0"/></linearGradient><radialGradient id="am" cx="0" cy="0" gradientTransform="matrix(-.26562492 3.71320135 -.85216938 -.06096018 15.4058 25.5645)" gradientUnits="userSpaceOnUse" r="1"><stop offset=".0848634" stop-color="#906663"/><stop offset="1" stop-color="#a87c70" stop-opacity="0"/></radialGradient><linearGradient id="an" gradientUnits="userSpaceOnUse" x1="13.3181" x2="13.7496" y1="24.8331" y2="24.8331"><stop offset="0" stop-color="#a07a6f"/><stop offset="1" stop-color="#a07a6f" stop-opacity="0"/></linearGradient><linearGradient id="ao" gradientUnits="userSpaceOnUse" x1="15.1965" x2="13.7098" y1="28.8913" y2="28.8913"><stop offset="0" stop-color="#664c88"/><stop offset=".159174" stop-color="#6d5191"/><stop offset=".453463" stop-color="#6d5191"/><stop offset="1" stop-color="#4c3866"/></linearGradient><radialGradient id="ap" cx="0" cy="0" gradientTransform="matrix(-.07031246 -.19921901 1.40812062 -.49698278 14.5028 29.466)" gradientUnits="userSpaceOnUse" r="1"><stop offset="0" stop-color="#603b8b"/><stop offset="1" stop-color="#603b8b" stop-opacity="0"/></radialGradient><linearGradient id="aq" gradientUnits="userSpaceOnUse" x1="18.825" x2="18.3038" y1="23.6454" y2="23.3884"><stop offset="0" stop-color="#b38885"/><stop offset="1" stop-color="#bb8981" stop-opacity="0"/></linearGradient><radialGradient id="ar" cx="0" cy="0" gradientTransform="matrix(.46875116 2.21329638 -.9862439 .20887531 19.3193 18.972)" gradientUnits="userSpaceOnUse" r="1"><stop offset=".0906409" stop-color="#cda38f"/><stop offset="1" stop-color="#cda38f" stop-opacity="0"/></radialGradient><linearGradient id="as" gradientUnits="userSpaceOnUse" x1="15.835" x2="17.1162" y1="26.3566" y2="27.0441"><stop offset="0" stop-color="#543556"/><stop offset="1" stop-color="#66488c"/></linearGradient><radialGradient id="at" cx="0" cy="0" gradientTransform="matrix(.28515623 -.16406218 .55034817 .95655931 16.2529 27.216)" gradientUnits="userSpaceOnUse" r="1"><stop offset=".121929" stop-color="#593569"/><stop offset="1" stop-color="#593569" stop-opacity="0"/></radialGradient><radialGradient id="au" cx="0" cy="0" gradientTransform="matrix(.43749987 .19140639 -.31977676 .73091753 6.13452 15.7297)" gradientUnits="userSpaceOnUse" r="1"><stop offset="0" stop-color="#9c6e69"/><stop offset="1" stop-color="#8f566c"/></radialGradient><radialGradient id="av" cx="0" cy="0" gradientTransform="matrix(6.31250283 -5.06249819 4.0013691 4.98936549 6.94434 17.1535)" gradientUnits="userSpaceOnUse" r="1"><stop offset=".7596" stop-color="#885e54" stop-opacity="0"/><stop offset="1" stop-color="#885e54"/></radialGradient><radialGradient id="aw" cx="0" cy="0" gradientTransform="matrix(-.94746868 2.71999514 -.89540024 -.31189897 13.5928 13.469)" gradientUnits="userSpaceOnUse" r="1"><stop offset="0" stop-color="#8a405c"/><stop offset="1" stop-color="#8a405c" stop-opacity="0"/></radialGradient><radialGradient id="ax" cx="0" cy="0" gradientTransform="matrix(-1.16876276 .93749479 -.15599781 -.19448047 8.314 14.5423)" gradientUnits="userSpaceOnUse" r="1"><stop offset="0" stop-color="#bb9586"/><stop offset="1" stop-color="#bb9586" stop-opacity="0"/></radialGradient><radialGradient id="ay" cx="0" cy="0" gradientTransform="matrix(.80469063 -.67968896 .45175347 .5348355 7.44211 15.2689)" gradientUnits="userSpaceOnUse" r="1"><stop offset=".45036" stop-color="#a77b6c" stop-opacity="0"/><stop offset="1" stop-color="#a77b6c"/></radialGradient><linearGradient id="az" gradientUnits="userSpaceOnUse" x1="16.0297" x2="16.0297" y1="10.7086" y2="15.5441"><stop offset="0" stop-color="#916ed5"/><stop offset="1" stop-color="#8466c6"/></linearGradient><linearGradient id="aA" gradientUnits="userSpaceOnUse" x1="13.2673" x2="15.1385" y1="15.5441" y2="15.5441"><stop offset="0" stop-color="#6f5187"/><stop offset="1" stop-color="#8664c8" stop-opacity="0"/></linearGradient><radialGradient id="aB" cx="0" cy="0" gradientTransform="matrix(.10937465 1.06249525 -3.85869873 .39721949 15.6073 10.5891)" gradientUnits="userSpaceOnUse" r="1"><stop offset=".178472" stop-color="#402d65"/><stop offset="1" stop-color="#634990" stop-opacity="0"/></radialGradient><linearGradient id="aC" gradientUnits="userSpaceOnUse" x1="18.7921" x2="16.6073" y1="13.9485" y2="13.9485"><stop offset="0" stop-color="#ac8de6"/><stop offset="1" stop-color="#9673d5" stop-opacity="0"/></linearGradient><linearGradient id="aD" gradientUnits="userSpaceOnUse" x1="18.96" x2="17.9594" y1="14.2245" y2="14.2245"><stop offset=".0491807" stop-color="#9771bf"/><stop offset="1" stop-color="#a585e1" stop-opacity="0"/></linearGradient><radialGradient id="aE" cx="0" cy="0" gradientTransform="matrix(.5468736 1.25508054 -2.3557799 1.02647901 15.1475 10.136)" gradientUnits="userSpaceOnUse" r="1"><stop offset="0" stop-color="#865653"/><stop offset="1" stop-color="#ad8273"/></radialGradient><linearGradient id="aF" gradientUnits="userSpaceOnUse" x1="13.1399" x2="15.351" y1="18.8997" y2="18.8997"><stop offset="0" stop-color="#67568f"/><stop offset="1" stop-color="#8266c3" stop-opacity="0"/></linearGradient><linearGradient id="aG" gradientUnits="userSpaceOnUse" x1="19.2551" x2="16.7289" y1="18.3091" y2="18.8997"><stop offset=".349108" stop-color="#9882d5"/><stop offset="1" stop-color="#8467c6" stop-opacity="0"/></linearGradient><linearGradient id="aH" gradientUnits="userSpaceOnUse" x1="19.4887" x2="18.6071" y1="18.3861" y2="18.6145"><stop offset="0" stop-color="#8569c7"/><stop offset="1" stop-color="#9f8cca" stop-opacity="0"/></linearGradient><linearGradient id="aI" gradientUnits="userSpaceOnUse" x1="22.4512" x2="19.8574" y1="11.6829" y2="13.5267"><stop offset=".180254" stop-color="#b58c7d"/><stop offset="1" stop-color="#c39b88" stop-opacity="0"/></linearGradient><linearGradient id="aJ"><stop offset=".00558659" stop-color="#ccc"/><stop offset="1" stop-color="#e6e6e6"/></linearGradient><linearGradient id="aK" gradientUnits="userSpaceOnUse" x1="12.9374" x2="19.2591" xlink:href="#aJ" y1="10.0143" y2="10.0143"/><linearGradient id="aL" gradientUnits="userSpaceOnUse" x1="12.9373" x2="19.259" xlink:href="#aJ" y1="10.001" y2="10.001"/><linearGradient id="aM" gradientUnits="userSpaceOnUse" x1="13.2336" x2="14.0583" y1="7.86594" y2="7.86594"><stop offset="0" stop-color="#8d645f"/><stop offset="1" stop-color="#604138"/></linearGradient><radialGradient id="aN" cx="0" cy="0" gradientTransform="matrix(-.29022153 -.53429916 .60543354 -.32886042 13.7735 8.54162)" gradientUnits="userSpaceOnUse" r="1"><stop offset="0" stop-color="#814e62"/><stop offset="1" stop-color="#814e62" stop-opacity="0"/></radialGradient><radialGradient id="aO" cx="0" cy="0" gradientTransform="matrix(1.10506616 -.50230385 .61328599 1.34922636 17.8217 8.02221)" gradientUnits="userSpaceOnUse" r="1"><stop offset=".63975" stop-color="#b28279"/><stop offset="1" stop-color="#cca58b"/></radialGradient><radialGradient id="aP" cx="0" cy="0" gradientTransform="matrix(.535788 0 0 .230687 18.2235 7.06969)" gradientUnits="userSpaceOnUse" r="1"><stop offset="0" stop-color="#906d53"/><stop offset="1" stop-color="#906d53" stop-opacity="0"/></radialGradient><radialGradient id="aQ" cx="0" cy="0" gradientTransform="matrix(.67034599 -.0498639 .03897971 .52402424 17.978 7.87714)" gradientUnits="userSpaceOnUse" r="1"><stop offset=".719132" stop-color="#a26d62" stop-opacity="0"/><stop offset="1" stop-color="#a26d62"/></radialGradient><radialGradient id="aR" cx="0" cy="0" gradientTransform="matrix(-.468815 0 0 -.468815 13.9856 7.82727)" gradientUnits="userSpaceOnUse" r="1"><stop offset=".722222" stop-color="#6c4640" stop-opacity="0"/><stop offset="1" stop-color="#6c4640"/></radialGradient><radialGradient id="aS" cx="0" cy="0" gradientTransform="matrix(-2.88738354 1.33146869 -1.78214939 -3.86471636 17.2978 7.58859)" gradientUnits="userSpaceOnUse" r="1"><stop offset="0" stop-color="#c79980"/><stop offset="1" stop-color="#946568"/></radialGradient><radialGradient id="aT" cx="0" cy="0" gradientTransform="matrix(-.96798022 .42594166 -.29661819 -.6740842 16.9033 7.96771)" gradientUnits="userSpaceOnUse" r="1"><stop offset="0" stop-color="#c4967a"/><stop offset="1" stop-color="#c4967a" stop-opacity="0"/></radialGradient><radialGradient id="aU" cx="0" cy="0" gradientTransform="matrix(.57234175 -1.74406963 2.21290034 .72619535 15.0684 10.4777)" gradientUnits="userSpaceOnUse" r="1"><stop offset="0" stop-color="#945a73"/><stop offset="1" stop-color="#945a73" stop-opacity="0"/></radialGradient><radialGradient id="aV" cx="0" cy="0" gradientTransform="matrix(0 3.40625 -4.25777 0 16.4825 7.23586)" gradientUnits="userSpaceOnUse" r="1"><stop offset=".636944" stop-color="#9c6576" stop-opacity="0"/><stop offset=".954878" stop-color="#9a567d"/></radialGradient><radialGradient id="aW" cx="0" cy="0" gradientTransform="matrix(-3.06589967 .60167231 -1.0358944 -5.27853489 16.832 8.35707)" gradientUnits="userSpaceOnUse" r="1"><stop offset=".794964" stop-color="#9a7267" stop-opacity="0"/><stop offset="1" stop-color="#9a7267"/></radialGradient><radialGradient id="aX" cx="0" cy="0" gradientTransform="matrix(0 -.510907 .627022 0 17.05 7.4028)" gradientUnits="userSpaceOnUse" r="1"><stop offset="0" stop-color="#ae7b75"/><stop offset="1" stop-color="#ae7b75" stop-opacity="0"/></radialGradient><radialGradient id="aY" cx="0" cy="0" gradientTransform="matrix(0 -.582715 .667831 0 15.1064 7.30133)" gradientUnits="userSpaceOnUse" r="1"><stop offset="0" stop-color="#8f5c65"/><stop offset="1" stop-color="#8f5c65" stop-opacity="0"/></radialGradient><radialGradient id="aZ" cx="0" cy="0" gradientTransform="matrix(-.38632354 1.43257397 -1.14630055 -.30912393 16.6425 6.3746)" gradientUnits="userSpaceOnUse" r="1"><stop offset="0" stop-color="#ab8179"/><stop offset="1" stop-color="#ab8179" stop-opacity="0"/></radialGradient><radialGradient id="a0" cx="0" cy="0" gradientTransform="matrix(-.570625 0 0 -2.86163 18.2905 8.06323)" gradientUnits="userSpaceOnUse" r="1"><stop offset="0" stop-color="#c0967a"/><stop offset="1" stop-color="#c0967a" stop-opacity="0"/></radialGradient><radialGradient id="a1" cx="0" cy="0" gradientTransform="matrix(-.20224679 -.90747806 .27967646 -.06233061 16.3765 8.386)" gradientUnits="userSpaceOnUse" r="1"><stop offset=".0168227" stop-color="#cda38b"/><stop offset="1" stop-color="#cda38b" stop-opacity="0"/></radialGradient><linearGradient id="a2" gradientUnits="userSpaceOnUse" x1="15.6116" x2="16.0283" y1="8.41835" y2="8.41835"><stop offset="0" stop-color="#875f54"/><stop offset="1" stop-color="#875f54" stop-opacity="0"/></linearGradient><linearGradient id="a3" gradientUnits="userSpaceOnUse" x1="16.0283" x2="16.0283" y1="8.73221" y2="8.45389"><stop offset="0" stop-color="#995c76"/><stop offset="1" stop-color="#995c76" stop-opacity="0"/></linearGradient><radialGradient id="a4" cx="0" cy="0" gradientTransform="matrix(-.34603 0 0 -.0967397 16.2701 8.47994)" gradientUnits="userSpaceOnUse" r="1"><stop offset="0" stop-color="#ca9f8c"/><stop offset="1" stop-color="#ca9f8c" stop-opacity="0"/></radialGradient><linearGradient id="a5" gradientUnits="userSpaceOnUse" x1="15.5557" x2="15.7603" y1="9.39888" y2="9.08261"><stop offset="0" stop-color="#a87d7b"/><stop offset=".663171" stop-color="#a87d7b" stop-opacity="0"/></linearGradient><linearGradient id="a6"><stop offset=".80198" stop-color="#7d574a"/><stop offset="1" stop-color="#694b43"/><stop offset="1" stop-color="#804d49"/><stop offset="1" stop-color="#664944"/></linearGradient><radialGradient id="a7" cx="0" cy="0" gradientTransform="matrix(0 .360199 -.572937 0 16.997 7.56219)" gradientUnits="userSpaceOnUse" r="1" xlink:href="#a6"/><linearGradient id="a8"><stop offset=".765532" stop-color="#ffe6e2" stop-opacity="0"/><stop offset=".966159" stop-color="#ffe6e2"/></linearGradient><radialGradient id="a9" cx="0" cy="0" gradientTransform="matrix(-.10296369 -.1326826 .18267233 -.14175647 16.8958 7.59951)" gradientUnits="userSpaceOnUse" r="1" xlink:href="#a8"/><linearGradient id="ba"><stop offset="0" stop-color="#b4948d"/><stop offset="1" stop-color="#b4948d" stop-opacity="0"/></linearGradient><linearGradient id="bb" gradientUnits="userSpaceOnUse" x1="17.3425" x2="17.2032" xlink:href="#ba" y1="7.58616" y2="7.67199"/><radialGradient id="bc" cx="0" cy="0" gradientTransform="matrix(0 .360201 -.572941 0 15.0595 7.56219)" gradientUnits="userSpaceOnUse" r="1" xlink:href="#a6"/><linearGradient id="bd" gradientUnits="userSpaceOnUse" x1="15.3898" x2="15.2506" xlink:href="#ba" y1="7.5861" y2="7.67193"/><radialGradient id="be" cx="0" cy="0" gradientTransform="matrix(-.00343429 -.21934712 .26366368 -.00412815 14.9325 7.65944)" gradientUnits="userSpaceOnUse" r="1" xlink:href="#a8"/><radialGradient id="bf" cx="0" cy="0" gradientTransform="matrix(-.93764232 1.94966996 -3.1875917 -1.53298812 16.8766 4.30893)" gradientUnits="userSpaceOnUse" r="1"><stop offset=".639192" stop-color="#442534" stop-opacity="0"/><stop offset="1" stop-color="#442534"/></radialGradient><radialGradient id="bg" cx="0" cy="0" gradientTransform="matrix(-.09338283 .60699277 -1.30591597 -.2009087 16.1216 4.47293)" gradientUnits="userSpaceOnUse" r="1"><stop offset="0" stop-color="#634945"/><stop offset="1" stop-color="#4c4749" stop-opacity="0"/><stop offset="1" stop-color="#634945" stop-opacity="0"/></radialGradient><g filter="url(#a)"><rect fill="url(#K)" height="8.191" rx="2.42167" transform="matrix(.70710678 -.70710678 .70710678 .70710678 -5.680695 13.09159)" width="4.84334" x="12.9626" y="13.403"/></g><g filter="url(#b)"><rect fill="url(#L)" height="11.735" rx="3.44715" transform="matrix(-.707107 -.707107 -.707107 .707107 25.9854 8.26678)" width="6.89429"/></g><rect fill="url(#M)" height="11.735" rx="3.44715" transform="matrix(-.707107 -.707107 -.707107 .707107 25.9854 8.26678)" width="6.89429"/><g filter="url(#c)"><path d="m8.52295 10.7234c-1.34619-1.34623-1.34057-3.53448.00563-4.88067 1.34619-1.3462 3.53442-1.35183 4.88062-.00563l1.1891 1.18912c.3382.33816.6023.74299.7755 1.18874l1.1995 3.08614c.1547.3981.2341.8216.2341 1.2487v.5598c0 .6479-.2574 1.2694-.7156 1.7275-.9541.9541-2.501.9541-3.4551 0z" fill="url(#N)"/><path d="m8.52295 10.7234c-1.34619-1.34623-1.34057-3.53448.00563-4.88067 1.34619-1.3462 3.53442-1.35183 4.88062-.00563l1.1891 1.18912c.3382.33816.6023.74299.7755 1.18874l1.1995 3.08614c.1547.3981.2341.8216.2341 1.2487v.5598c0 .6479-.2574 1.2694-.7156 1.7275-.9541.9541-2.501.9541-3.4551 0z" fill="url(#O)"/></g><g filter="url(#d)"><rect fill="url(#P)" height="8.24403" rx="2.42167" transform="matrix(-.707107 -.707107 -.707107 .707107 19.0964 13.3655)" width="4.84334"/></g><g filter="url(#e)"><path d="m10.0472 9.26437c-.08548-.07837-.21832-.0726-.29669.0129-.07837.08549-.07259.21833.0129.2967l1.81909 1.66753-.8392.0859c-.1154.0119-.1993.115-.1875.2304.0118.1153.1149.1993.2303.1875l1.2107-.124.9541.8745c.0855.0784.2183.0726.2967-.0129.0784-.0854.0726-.2183-.0129-.2967z" fill="#fff"/></g><g filter="url(#f)"><path d="m11.403 6.32493c-.0132-.11522-.1174-.19791-.2326-.18469-.1152.01323-.1979.11735-.1847.23258l.159 1.38494-1.0242-.9278c-.0859-.07787-.21873-.07131-.2966.01464s-.07131.21876.01464.29662l5.73046 5.19138c.086.0779.2188.0713.2966-.0146.0779-.086.0713-.2188-.0146-.2966l-4.2345-3.83622z" fill="#fff"/></g><g filter="url(#g)"><path d="m22.0366 9.26437c.0855-.07837.2183-.0726.2967.0129.0784.08549.0726.21833-.0129.2967l-1.8191 1.66753.8392.0859c.1154.0119.1994.115.1876.2304-.0119.1153-.115.1993-.2303.1875l-1.2108-.124-.9541.8745c-.0855.0784-.2183.0726-.2967-.0129-.0784-.0854-.0726-.2183.0129-.2967z" fill="#fff"/></g><g filter="url(#h)"><path d="m20.6808 6.32493c.0132-.11522.1174-.19791.2326-.18469.1152.01323.1979.11735.1847.23258l-.1589 1.38494 1.0241-.9278c.086-.07787.2188-.07131.2966.01464.0779.08595.0713.21876-.0146.29662l-5.7305 5.19138c-.0859.0779-.2187.0713-.2966-.0146-.0779-.086-.0713-.2188.0146-.2966l4.2346-3.83622z" fill="#fff"/></g><g clip-rule="evenodd" fill-rule="evenodd" filter="url(#i)"><path d="m19.2184 8.45319c.0943-.1932.1438-.40887.1438-.63351 0-.20748-.0427-.40215-.1193-.5796h.0024c-.0357-.08035-.0759-.15627-.1248-.22775l-.001-.00139c-.1527-.23364-.2336-.50771-.2336-.78627v-.0045c0-.80873-.656-1.46471-1.4647-1.46471-.0809 0-.1573-.03594-.2022-.10334-.2651-.36842-.7009-.61104-1.1907-.61104-.4897 0-.9255.24262-1.1906.61104-.0449.0629-.1213.10334-.2022.10334-.0126 0-.0252.00016-.0377.00048-.7913.02003-1.427.66812-1.427 1.46423v.0045c0 .27856-.0809.55263-.2336.78627l-.0011.00163c-.1521.23328-.2415.50678-.2415.80711 0 .22914.0539.44031.1438.63351.0314.0629.0314.13928 0 .20218-.0899.18871-.1438.39988-.1438.62453 0 .7908.638 1.4288 1.4287 1.4288h3.8101c.7908 0 1.4288-.638 1.4288-1.4288 0-.22465-.0539-.43582-.1438-.62453-.0315-.0629-.0315-.13928 0-.20218zm-5.4431-1.18647h-.0055l.5322 1.04579c.0547 1.24423.5403 0 1.7263 0 1.1861 0 1.7033 1.38491 1.758.14068l.5043-1.41943c-.0239-.55267-.4244-.59146-.5043-.59146h-1.4296c-.5645 0-1.0972-.27632-1.4159-.74289-.0546-.07701-.1685-.06342-.2049.02265l-.0364.08607c-.1002.24914-.2914.43939-.5281.5481-.0069.00227-.0148.00567-.0228.00906-.008.0034-.0159.0068-.0228.00906-.1047.05436-.3505.21743-.3596.63871l.0045.13589z" fill="url(#Q)"/><path d="m19.2184 8.45319c.0943-.1932.1438-.40887.1438-.63351 0-.20748-.0427-.40215-.1193-.5796h.0024c-.0357-.08035-.0759-.15627-.1248-.22775l-.001-.00139c-.1527-.23364-.2336-.50771-.2336-.78627v-.0045c0-.80873-.656-1.46471-1.4647-1.46471-.0809 0-.1573-.03594-.2022-.10334-.2651-.36842-.7009-.61104-1.1907-.61104-.4897 0-.9255.24262-1.1906.61104-.0449.0629-.1213.10334-.2022.10334-.0126 0-.0252.00016-.0377.00048-.7913.02003-1.427.66812-1.427 1.46423v.0045c0 .27856-.0809.55263-.2336.78627l-.0011.00163c-.1521.23328-.2415.50678-.2415.80711 0 .22914.0539.44031.1438.63351.0314.0629.0314.13928 0 .20218-.0899.18871-.1438.39988-.1438.62453 0 .7908.638 1.4288 1.4287 1.4288h3.8101c.7908 0 1.4288-.638 1.4288-1.4288 0-.22465-.0539-.43582-.1438-.62453-.0315-.0629-.0315-.13928 0-.20218zm-5.4431-1.18647h-.0055l.5322 1.04579c.0547 1.24423.5403 0 1.7263 0 1.1861 0 1.7033 1.38491 1.758.14068l.5043-1.41943c-.0239-.55267-.4244-.59146-.5043-.59146h-1.4296c-.5645 0-1.0972-.27632-1.4159-.74289-.0546-.07701-.1685-.06342-.2049.02265l-.0364.08607c-.1002.24914-.2914.43939-.5281.5481-.0069.00227-.0148.00567-.0228.00906-.008.0034-.0159.0068-.0228.00906-.1047.05436-.3505.21743-.3596.63871l.0045.13589z" fill="url(#R)"/><path d="m19.2184 8.45319c.0943-.1932.1438-.40887.1438-.63351 0-.20748-.0427-.40215-.1193-.5796h.0024c-.0357-.08035-.0759-.15627-.1248-.22775l-.001-.00139c-.1527-.23364-.2336-.50771-.2336-.78627v-.0045c0-.80873-.656-1.46471-1.4647-1.46471-.0809 0-.1573-.03594-.2022-.10334-.2651-.36842-.7009-.61104-1.1907-.61104-.4897 0-.9255.24262-1.1906.61104-.0449.0629-.1213.10334-.2022.10334-.0126 0-.0252.00016-.0377.00048-.7913.02003-1.427.66812-1.427 1.46423v.0045c0 .27856-.0809.55263-.2336.78627l-.0011.00163c-.1521.23328-.2415.50678-.2415.80711 0 .22914.0539.44031.1438.63351.0314.0629.0314.13928 0 .20218-.0899.18871-.1438.39988-.1438.62453 0 .7908.638 1.4288 1.4287 1.4288h3.8101c.7908 0 1.4288-.638 1.4288-1.4288 0-.22465-.0539-.43582-.1438-.62453-.0315-.0629-.0315-.13928 0-.20218zm-5.4431-1.18647h-.0055l.5322 1.04579c.0547 1.24423.5403 0 1.7263 0 1.1861 0 1.7033 1.38491 1.758.14068l.5043-1.41943c-.0239-.55267-.4244-.59146-.5043-.59146h-1.4296c-.5645 0-1.0972-.27632-1.4159-.74289-.0546-.07701-.1685-.06342-.2049.02265l-.0364.08607c-.1002.24914-.2914.43939-.5281.5481-.0069.00227-.0148.00567-.0228.00906-.008.0034-.0159.0068-.0228.00906-.1047.05436-.3505.21743-.3596.63871l.0045.13589z" fill="url(#S)"/><path d="m19.2184 8.45319c.0943-.1932.1438-.40887.1438-.63351 0-.20748-.0427-.40215-.1193-.5796h.0024c-.0357-.08035-.0759-.15627-.1248-.22775l-.001-.00139c-.1527-.23364-.2336-.50771-.2336-.78627v-.0045c0-.80873-.656-1.46471-1.4647-1.46471-.0809 0-.1573-.03594-.2022-.10334-.2651-.36842-.7009-.61104-1.1907-.61104-.4897 0-.9255.24262-1.1906.61104-.0449.0629-.1213.10334-.2022.10334-.0126 0-.0252.00016-.0377.00048-.7913.02003-1.427.66812-1.427 1.46423v.0045c0 .27856-.0809.55263-.2336.78627l-.0011.00163c-.1521.23328-.2415.50678-.2415.80711 0 .22914.0539.44031.1438.63351.0314.0629.0314.13928 0 .20218-.0899.18871-.1438.39988-.1438.62453 0 .7908.638 1.4288 1.4287 1.4288h3.8101c.7908 0 1.4288-.638 1.4288-1.4288 0-.22465-.0539-.43582-.1438-.62453-.0315-.0629-.0315-.13928 0-.20218zm-5.4431-1.18647h-.0055l.5322 1.04579c.0547 1.24423.5403 0 1.7263 0 1.1861 0 1.7033 1.38491 1.758.14068l.5043-1.41943c-.0239-.55267-.4244-.59146-.5043-.59146h-1.4296c-.5645 0-1.0972-.27632-1.4159-.74289-.0546-.07701-.1685-.06342-.2049.02265l-.0364.08607c-.1002.24914-.2914.43939-.5281.5481-.0069.00227-.0148.00567-.0228.00906-.008.0034-.0159.0068-.0228.00906-.1047.05436-.3505.21743-.3596.63871l.0045.13589z" fill="url(#T)"/><path d="m19.2184 8.45319c.0943-.1932.1438-.40887.1438-.63351 0-.20748-.0427-.40215-.1193-.5796h.0024c-.0357-.08035-.0759-.15627-.1248-.22775l-.001-.00139c-.1527-.23364-.2336-.50771-.2336-.78627v-.0045c0-.80873-.656-1.46471-1.4647-1.46471-.0809 0-.1573-.03594-.2022-.10334-.2651-.36842-.7009-.61104-1.1907-.61104-.4897 0-.9255.24262-1.1906.61104-.0449.0629-.1213.10334-.2022.10334-.0126 0-.0252.00016-.0377.00048-.7913.02003-1.427.66812-1.427 1.46423v.0045c0 .27856-.0809.55263-.2336.78627l-.0011.00163c-.1521.23328-.2415.50678-.2415.80711 0 .22914.0539.44031.1438.63351.0314.0629.0314.13928 0 .20218-.0899.18871-.1438.39988-.1438.62453 0 .7908.638 1.4288 1.4287 1.4288h3.8101c.7908 0 1.4288-.638 1.4288-1.4288 0-.22465-.0539-.43582-.1438-.62453-.0315-.0629-.0315-.13928 0-.20218zm-5.4431-1.18647h-.0055l.5322 1.04579c.0547 1.24423.5403 0 1.7263 0 1.1861 0 1.7033 1.38491 1.758.14068l.5043-1.41943c-.0239-.55267-.4244-.59146-.5043-.59146h-1.4296c-.5645 0-1.0972-.27632-1.4159-.74289-.0546-.07701-.1685-.06342-.2049.02265l-.0364.08607c-.1002.24914-.2914.43939-.5281.5481-.0069.00227-.0148.00567-.0228.00906-.008.0034-.0159.0068-.0228.00906-.1047.05436-.3505.21743-.3596.63871l.0045.13589z" fill="url(#U)"/><path d="m19.2184 8.45319c.0943-.1932.1438-.40887.1438-.63351 0-.20748-.0427-.40215-.1193-.5796h.0024c-.0357-.08035-.0759-.15627-.1248-.22775l-.001-.00139c-.1527-.23364-.2336-.50771-.2336-.78627v-.0045c0-.80873-.656-1.46471-1.4647-1.46471-.0809 0-.1573-.03594-.2022-.10334-.2651-.36842-.7009-.61104-1.1907-.61104-.4897 0-.9255.24262-1.1906.61104-.0449.0629-.1213.10334-.2022.10334-.0126 0-.0252.00016-.0377.00048-.7913.02003-1.427.66812-1.427 1.46423v.0045c0 .27856-.0809.55263-.2336.78627l-.0011.00163c-.1521.23328-.2415.50678-.2415.80711 0 .22914.0539.44031.1438.63351.0314.0629.0314.13928 0 .20218-.0899.18871-.1438.39988-.1438.62453 0 .7908.638 1.4288 1.4287 1.4288h3.8101c.7908 0 1.4288-.638 1.4288-1.4288 0-.22465-.0539-.43582-.1438-.62453-.0315-.0629-.0315-.13928 0-.20218zm-5.4431-1.18647h-.0055l.5322 1.04579c.0547 1.24423.5403 0 1.7263 0 1.1861 0 1.7033 1.38491 1.758.14068l.5043-1.41943c-.0239-.55267-.4244-.59146-.5043-.59146h-1.4296c-.5645 0-1.0972-.27632-1.4159-.74289-.0546-.07701-.1685-.06342-.2049.02265l-.0364.08607c-.1002.24914-.2914.43939-.5281.5481-.0069.00227-.0148.00567-.0228.00906-.008.0034-.0159.0068-.0228.00906-.1047.05436-.3505.21743-.3596.63871l.0045.13589z" fill="url(#V)"/><path d="m19.2184 8.45319c.0943-.1932.1438-.40887.1438-.63351 0-.20748-.0427-.40215-.1193-.5796h.0024c-.0357-.08035-.0759-.15627-.1248-.22775l-.001-.00139c-.1527-.23364-.2336-.50771-.2336-.78627v-.0045c0-.80873-.656-1.46471-1.4647-1.46471-.0809 0-.1573-.03594-.2022-.10334-.2651-.36842-.7009-.61104-1.1907-.61104-.4897 0-.9255.24262-1.1906.61104-.0449.0629-.1213.10334-.2022.10334-.0126 0-.0252.00016-.0377.00048-.7913.02003-1.427.66812-1.427 1.46423v.0045c0 .27856-.0809.55263-.2336.78627l-.0011.00163c-.1521.23328-.2415.50678-.2415.80711 0 .22914.0539.44031.1438.63351.0314.0629.0314.13928 0 .20218-.0899.18871-.1438.39988-.1438.62453 0 .7908.638 1.4288 1.4287 1.4288h3.8101c.7908 0 1.4288-.638 1.4288-1.4288 0-.22465-.0539-.43582-.1438-.62453-.0315-.0629-.0315-.13928 0-.20218zm-5.4431-1.18647h-.0055l.5322 1.04579c.0547 1.24423.5403 0 1.7263 0 1.1861 0 1.7033 1.38491 1.758.14068l.5043-1.41943c-.0239-.55267-.4244-.59146-.5043-.59146h-1.4296c-.5645 0-1.0972-.27632-1.4159-.74289-.0546-.07701-.1685-.06342-.2049.02265l-.0364.08607c-.1002.24914-.2914.43939-.5281.5481-.0069.00227-.0148.00567-.0228.00906-.008.0034-.0159.0068-.0228.00906-.1047.05436-.3505.21743-.3596.63871l.0045.13589z" fill="url(#W)"/><path d="m19.2184 8.45319c.0943-.1932.1438-.40887.1438-.63351 0-.20748-.0427-.40215-.1193-.5796h.0024c-.0357-.08035-.0759-.15627-.1248-.22775l-.001-.00139c-.1527-.23364-.2336-.50771-.2336-.78627v-.0045c0-.80873-.656-1.46471-1.4647-1.46471-.0809 0-.1573-.03594-.2022-.10334-.2651-.36842-.7009-.61104-1.1907-.61104-.4897 0-.9255.24262-1.1906.61104-.0449.0629-.1213.10334-.2022.10334-.0126 0-.0252.00016-.0377.00048-.7913.02003-1.427.66812-1.427 1.46423v.0045c0 .27856-.0809.55263-.2336.78627l-.0011.00163c-.1521.23328-.2415.50678-.2415.80711 0 .22914.0539.44031.1438.63351.0314.0629.0314.13928 0 .20218-.0899.18871-.1438.39988-.1438.62453 0 .7908.638 1.4288 1.4287 1.4288h3.8101c.7908 0 1.4288-.638 1.4288-1.4288 0-.22465-.0539-.43582-.1438-.62453-.0315-.0629-.0315-.13928 0-.20218zm-5.4431-1.18647h-.0055l.5322 1.04579c.0547 1.24423.5403 0 1.7263 0 1.1861 0 1.7033 1.38491 1.758.14068l.5043-1.41943c-.0239-.55267-.4244-.59146-.5043-.59146h-1.4296c-.5645 0-1.0972-.27632-1.4159-.74289-.0546-.07701-.1685-.06342-.2049.02265l-.0364.08607c-.1002.24914-.2914.43939-.5281.5481-.0069.00227-.0148.00567-.0228.00906-.008.0034-.0159.0068-.0228.00906-.1047.05436-.3505.21743-.3596.63871l.0045.13589z" fill="url(#X)"/><path d="m19.2184 8.45319c.0943-.1932.1438-.40887.1438-.63351 0-.20748-.0427-.40215-.1193-.5796h.0024c-.0357-.08035-.0759-.15627-.1248-.22775l-.001-.00139c-.1527-.23364-.2336-.50771-.2336-.78627v-.0045c0-.80873-.656-1.46471-1.4647-1.46471-.0809 0-.1573-.03594-.2022-.10334-.2651-.36842-.7009-.61104-1.1907-.61104-.4897 0-.9255.24262-1.1906.61104-.0449.0629-.1213.10334-.2022.10334-.0126 0-.0252.00016-.0377.00048-.7913.02003-1.427.66812-1.427 1.46423v.0045c0 .27856-.0809.55263-.2336.78627l-.0011.00163c-.1521.23328-.2415.50678-.2415.80711 0 .22914.0539.44031.1438.63351.0314.0629.0314.13928 0 .20218-.0899.18871-.1438.39988-.1438.62453 0 .7908.638 1.4288 1.4287 1.4288h3.8101c.7908 0 1.4288-.638 1.4288-1.4288 0-.22465-.0539-.43582-.1438-.62453-.0315-.0629-.0315-.13928 0-.20218zm-5.4431-1.18647h-.0055l.5322 1.04579c.0547 1.24423.5403 0 1.7263 0 1.1861 0 1.7033 1.38491 1.758.14068l.5043-1.41943c-.0239-.55267-.4244-.59146-.5043-.59146h-1.4296c-.5645 0-1.0972-.27632-1.4159-.74289-.0546-.07701-.1685-.06342-.2049.02265l-.0364.08607c-.1002.24914-.2914.43939-.5281.5481-.0069.00227-.0148.00567-.0228.00906-.008.0034-.0159.0068-.0228.00906-.1047.05436-.3505.21743-.3596.63871l.0045.13589z" fill="url(#Y)"/><path d="m19.2184 8.45319c.0943-.1932.1438-.40887.1438-.63351 0-.20748-.0427-.40215-.1193-.5796h.0024c-.0357-.08035-.0759-.15627-.1248-.22775l-.001-.00139c-.1527-.23364-.2336-.50771-.2336-.78627v-.0045c0-.80873-.656-1.46471-1.4647-1.46471-.0809 0-.1573-.03594-.2022-.10334-.2651-.36842-.7009-.61104-1.1907-.61104-.4897 0-.9255.24262-1.1906.61104-.0449.0629-.1213.10334-.2022.10334-.0126 0-.0252.00016-.0377.00048-.7913.02003-1.427.66812-1.427 1.46423v.0045c0 .27856-.0809.55263-.2336.78627l-.0011.00163c-.1521.23328-.2415.50678-.2415.80711 0 .22914.0539.44031.1438.63351.0314.0629.0314.13928 0 .20218-.0899.18871-.1438.39988-.1438.62453 0 .7908.638 1.4288 1.4287 1.4288h3.8101c.7908 0 1.4288-.638 1.4288-1.4288 0-.22465-.0539-.43582-.1438-.62453-.0315-.0629-.0315-.13928 0-.20218zm-5.4431-1.18647h-.0055l.5322 1.04579c.0547 1.24423.5403 0 1.7263 0 1.1861 0 1.7033 1.38491 1.758.14068l.5043-1.41943c-.0239-.55267-.4244-.59146-.5043-.59146h-1.4296c-.5645 0-1.0972-.27632-1.4159-.74289-.0546-.07701-.1685-.06342-.2049.02265l-.0364.08607c-.1002.24914-.2914.43939-.5281.5481-.0069.00227-.0148.00567-.0228.00906-.008.0034-.0159.0068-.0228.00906-.1047.05436-.3505.21743-.3596.63871l.0045.13589z" fill="url(#Z)"/><path d="m19.2184 8.45319c.0943-.1932.1438-.40887.1438-.63351 0-.20748-.0427-.40215-.1193-.5796h.0024c-.0357-.08035-.0759-.15627-.1248-.22775l-.001-.00139c-.1527-.23364-.2336-.50771-.2336-.78627v-.0045c0-.80873-.656-1.46471-1.4647-1.46471-.0809 0-.1573-.03594-.2022-.10334-.2651-.36842-.7009-.61104-1.1907-.61104-.4897 0-.9255.24262-1.1906.61104-.0449.0629-.1213.10334-.2022.10334-.0126 0-.0252.00016-.0377.00048-.7913.02003-1.427.66812-1.427 1.46423v.0045c0 .27856-.0809.55263-.2336.78627l-.0011.00163c-.1521.23328-.2415.50678-.2415.80711 0 .22914.0539.44031.1438.63351.0314.0629.0314.13928 0 .20218-.0899.18871-.1438.39988-.1438.62453 0 .7908.638 1.4288 1.4287 1.4288h3.8101c.7908 0 1.4288-.638 1.4288-1.4288 0-.22465-.0539-.43582-.1438-.62453-.0315-.0629-.0315-.13928 0-.20218zm-5.4431-1.18647h-.0055l.5322 1.04579c.0547 1.24423.5403 0 1.7263 0 1.1861 0 1.7033 1.38491 1.758.14068l.5043-1.41943c-.0239-.55267-.4244-.59146-.5043-.59146h-1.4296c-.5645 0-1.0972-.27632-1.4159-.74289-.0546-.07701-.1685-.06342-.2049.02265l-.0364.08607c-.1002.24914-.2914.43939-.5281.5481-.0069.00227-.0148.00567-.0228.00906-.008.0034-.0159.0068-.0228.00906-.1047.05436-.3505.21743-.3596.63871l.0045.13589z" fill="url(#aa)"/><path d="m19.2184 8.45319c.0943-.1932.1438-.40887.1438-.63351 0-.20748-.0427-.40215-.1193-.5796h.0024c-.0357-.08035-.0759-.15627-.1248-.22775l-.001-.00139c-.1527-.23364-.2336-.50771-.2336-.78627v-.0045c0-.80873-.656-1.46471-1.4647-1.46471-.0809 0-.1573-.03594-.2022-.10334-.2651-.36842-.7009-.61104-1.1907-.61104-.4897 0-.9255.24262-1.1906.61104-.0449.0629-.1213.10334-.2022.10334-.0126 0-.0252.00016-.0377.00048-.7913.02003-1.427.66812-1.427 1.46423v.0045c0 .27856-.0809.55263-.2336.78627l-.0011.00163c-.1521.23328-.2415.50678-.2415.80711 0 .22914.0539.44031.1438.63351.0314.0629.0314.13928 0 .20218-.0899.18871-.1438.39988-.1438.62453 0 .7908.638 1.4288 1.4287 1.4288h3.8101c.7908 0 1.4288-.638 1.4288-1.4288 0-.22465-.0539-.43582-.1438-.62453-.0315-.0629-.0315-.13928 0-.20218zm-5.4431-1.18647h-.0055l.5322 1.04579c.0547 1.24423.5403 0 1.7263 0 1.1861 0 1.7033 1.38491 1.758.14068l.5043-1.41943c-.0239-.55267-.4244-.59146-.5043-.59146h-1.4296c-.5645 0-1.0972-.27632-1.4159-.74289-.0546-.07701-.1685-.06342-.2049.02265l-.0364.08607c-.1002.24914-.2914.43939-.5281.5481-.0069.00227-.0148.00567-.0228.00906-.008.0034-.0159.0068-.0228.00906-.1047.05436-.3505.21743-.3596.63871l.0045.13589z" fill="url(#ab)"/></g><g filter="url(#j)"><rect fill="#9a6159" height="4.63281" rx=".344635" width=".68927" x="22.3545" y="4.99725"/><rect fill="url(#ac)" height="4.63281" rx=".344635" width=".68927" x="22.3545" y="4.99725"/></g><g filter="url(#k)"><path d="m22.5009 2.29341c.0792-.16954.3205-.16901.399.00089l.4138.89568c.0321.06958.0982.11741.1743.12627l.9835.11436c.1839.0214.2608.24668.1282.37601l-.7347.71662c-.0533.05204-.0767.12754-.0621.20062l.185.92522c.0364.18201-.155.32451-.3189.23742l-.8644-.45933c-.0645-.0343-.1419-.0343-.2065 0l-.8696.46213c-.163.08661-.3538-.0539-.3194-.23524l.1767-.93232c.0136-.07193-.0094-.14592-.0614-.1974l-.7266-.71854c-.1312-.1297-.0541-.35353.1291-.37494l.9808-.11463c.0757-.00885.1414-.05628.1737-.12535z" fill="url(#ad)"/></g><path d="m22.5009 2.29341c.0792-.16954.3205-.16901.399.00089l.4138.89568c.0321.06958.0982.11741.1743.12627l.9835.11436c.1839.0214.2608.24668.1282.37601l-.7347.71662c-.0533.05204-.0767.12754-.0621.20062l.185.92522c.0364.18201-.155.32451-.3189.23742l-.8644-.45933c-.0645-.0343-.1419-.0343-.2065 0l-.8696.46213c-.163.08661-.3538-.0539-.3194-.23524l.1767-.93232c.0136-.07193-.0094-.14592-.0614-.1974l-.7266-.71854c-.1312-.1297-.0541-.35353.1291-.37494l.9808-.11463c.0757-.00885.1414-.05628.1737-.12535z" fill="url(#ae)"/><path d="m22.5009 2.29341c.0792-.16954.3205-.16901.399.00089l.4138.89568c.0321.06958.0982.11741.1743.12627l.9835.11436c.1839.0214.2608.24668.1282.37601l-.7347.71662c-.0533.05204-.0767.12754-.0621.20062l.185.92522c.0364.18201-.155.32451-.3189.23742l-.8644-.45933c-.0645-.0343-.1419-.0343-.2065 0l-.8696.46213c-.163.08661-.3538-.0539-.3194-.23524l.1767-.93232c.0136-.07193-.0094-.14592-.0614-.1974l-.7266-.71854c-.1312-.1297-.0541-.35353.1291-.37494l.9808-.11463c.0757-.00885.1414-.05628.1737-.12535z" fill="url(#ag)"/><path d="m22.5009 2.29341c.0792-.16954.3205-.16901.399.00089l.4138.89568c.0321.06958.0982.11741.1743.12627l.9835.11436c.1839.0214.2608.24668.1282.37601l-.7347.71662c-.0533.05204-.0767.12754-.0621.20062l.185.92522c.0364.18201-.155.32451-.3189.23742l-.8644-.45933c-.0645-.0343-.1419-.0343-.2065 0l-.8696.46213c-.163.08661-.3538-.0539-.3194-.23524l.1767-.93232c.0136-.07193-.0094-.14592-.0614-.1974l-.7266-.71854c-.1312-.1297-.0541-.35353.1291-.37494l.9808-.11463c.0757-.00885.1414-.05628.1737-.12535z" fill="url(#ah)"/><path d="m13.2673 16.3899v-.8614h5.5248v.8203c-2.3371.1485-4.2762.1036-5.5248.0411z" fill="#aed62f"/><path d="m13.2673 16.3899v-.8614h5.5248v.8203c-2.3371.1485-4.2762.1036-5.5248.0411z" fill="url(#ai)"/><path d="m13.2673 16.3899v-.8614h5.5248v.8203c-2.3371.1485-4.2762.1036-5.5248.0411z" fill="url(#aj)"/><path d="m13.3183 29.5886-.0002-9.4838 2.3203.0625-.4957 8.6756c-.0092.1519-.0862.2927-.2155.3728-.4422.2741-.9388.4781-1.2871.6034-.1582.0569-.3212-.0623-.3218-.2305z" fill="url(#ak)"/><path d="m13.3183 29.5886-.0002-9.4838 2.3203.0625-.4957 8.6756c-.0092.1519-.0862.2927-.2155.3728-.4422.2741-.9388.4781-1.2871.6034-.1582.0569-.3212-.0623-.3218-.2305z" fill="url(#al)"/><path d="m13.3183 29.5886-.0002-9.4838 2.3203.0625-.4957 8.6756c-.0092.1519-.0862.2927-.2155.3728-.4422.2741-.9388.4781-1.2871.6034-.1582.0569-.3212-.0623-.3218-.2305z" fill="url(#am)"/><path d="m13.3183 29.5886-.0002-9.4838 2.3203.0625-.4957 8.6756c-.0092.1519-.0862.2927-.2155.3728-.4422.2741-.9388.4781-1.2871.6034-.1582.0569-.3212-.0623-.3218-.2305z" fill="url(#an)"/><path d="m13.3123 28.0978.0056 1.4908c.0007.1681.1636.2873.3219.2304.3483-.1253.8449-.3293 1.287-.6033.1293-.0802.2064-.221.2156-.3729l.0541-.8936z" fill="url(#ao)"/><path d="m13.3123 28.0978.0056 1.4908c.0007.1681.1636.2873.3219.2304.3483-.1253.8449-.3293 1.287-.6033.1293-.0802.2064-.221.2156-.3729l.0541-.8936z" fill="url(#ap)"/><g filter="url(#l)"><path d="m17.6716 21.2747-.5957-1.3105 2.2657-.9922c.0208.0625.6731 1.8878.7981 2.3066.1249.4187-.0104.7734-.0937.8984l-3.269 5.3441c-.0708.1157-.2329.1281-.311.0173-.2967-.421-.5471-.9743-.686-1.3581-.0496-.137-.038-.2873.0228-.4197l1.8494-4.033c.0655-.1426.0724-.3052.0194-.4529z" fill="#b78880"/><path d="m17.6716 21.2747-.5957-1.3105 2.2657-.9922c.0208.0625.6731 1.8878.7981 2.3066.1249.4187-.0104.7734-.0937.8984l-3.269 5.3441c-.0708.1157-.2329.1281-.311.0173-.2967-.421-.5471-.9743-.686-1.3581-.0496-.137-.038-.2873.0228-.4197l1.8494-4.033c.0655-.1426.0724-.3052.0194-.4529z" fill="url(#aq)"/><path d="m17.6716 21.2747-.5957-1.3105 2.2657-.9922c.0208.0625.6731 1.8878.7981 2.3066.1249.4187-.0104.7734-.0937.8984l-3.269 5.3441c-.0708.1157-.2329.1281-.311.0173-.2967-.421-.5471-.9743-.686-1.3581-.0496-.137-.038-.2873.0228-.4197l1.8494-4.033c.0655-.1426.0724-.3052.0194-.4529z" fill="url(#ar)"/></g><path d="m17.397 26.5074-.62 1.0136c-.0708.1157-.2329.1281-.311.0173-.2967-.421-.5471-.9743-.686-1.3581-.0496-.137-.038-.2873.0228-.4197l.4664-1.017z" fill="url(#as)"/><path d="m17.397 26.5074-.62 1.0136c-.0708.1157-.2329.1281-.311.0173-.2967-.421-.5471-.9743-.686-1.3581-.0496-.137-.038-.2873.0228-.4197l.4664-1.017z" fill="url(#at)"/><circle cx="6.57202" cy="15.6848" fill="url(#au)" r=".4375"/><g filter="url(#m)"><path d="m13.2803 11.2785c.1937-.1875.289-.2292.3125-.2266v2.5899c-.3985.5573-1.7828 1.9195-3.5078 2.1758-1.61467.2398-2.64066-.2058-2.88285-.4688-.13245.0895-.3024.2396-.44791.377-.15216.1437-.3854.1661-.556.0449-.17278-.1336-.23774-.3688-.13337-.5607.55788-1.0256 1.46187-1.3725 2.88728-1.3299 1.25625.0375 2.11715-.5209 2.39065-.8047.5651-.5209 1.7437-1.6094 1.9375-1.7969z" fill="#a77b6c"/><path d="m13.2803 11.2785c.1937-.1875.289-.2292.3125-.2266v2.5899c-.3985.5573-1.7828 1.9195-3.5078 2.1758-1.61467.2398-2.64066-.2058-2.88285-.4688-.13245.0895-.3024.2396-.44791.377-.15216.1437-.3854.1661-.556.0449-.17278-.1336-.23774-.3688-.13337-.5607.55788-1.0256 1.46187-1.3725 2.88728-1.3299 1.25625.0375 2.11715-.5209 2.39065-.8047.5651-.5209 1.7437-1.6094 1.9375-1.7969z" fill="url(#av)"/><path d="m13.2803 11.2785c.1937-.1875.289-.2292.3125-.2266v2.5899c-.3985.5573-1.7828 1.9195-3.5078 2.1758-1.61467.2398-2.64066-.2058-2.88285-.4688-.13245.0895-.3024.2396-.44791.377-.15216.1437-.3854.1661-.556.0449-.17278-.1336-.23774-.3688-.13337-.5607.55788-1.0256 1.46187-1.3725 2.88728-1.3299 1.25625.0375 2.11715-.5209 2.39065-.8047.5651-.5209 1.7437-1.6094 1.9375-1.7969z" fill="url(#aw)"/></g><g filter="url(#n)"><path d="m7.07948 15.0031c.17704-.1327.33908-.264.43126-.3417.41563-.3469.63672-.2175.72266-.1289.09985.1029.14453.418-.09375.6953-.24891.2897-.50883.4645-.73441.6016-.16551.1005-.45969.0876-.58202-.0625-.23835-.2422-.01381-.5612.25626-.7638z" fill="#ffbd3b"/></g><g filter="url(#o)"><path d="m7.07948 15.0031c.17704-.1327.33908-.264.43126-.3417.41563-.3469.63672-.2175.72266-.1289.09985.1029.14453.418-.09375.6953-.24891.2897-.50883.4645-.73441.6016-.16551.1005-.45969.0876-.58202-.0625-.23835-.2422-.01381-.5612.25626-.7638z" fill="#a47e69"/><path d="m7.07948 15.0031c.17704-.1327.33908-.264.43126-.3417.41563-.3469.63672-.2175.72266-.1289.09985.1029.14453.418-.09375.6953-.24891.2897-.50883.4645-.73441.6016-.16551.1005-.45969.0876-.58202-.0625-.23835-.2422-.01381-.5612.25626-.7638z" fill="url(#ax)"/><path d="m7.07948 15.0031c.17704-.1327.33908-.264.43126-.3417.41563-.3469.63672-.2175.72266-.1289.09985.1029.14453.418-.09375.6953-.24891.2897-.50883.4645-.73441.6016-.16551.1005-.45969.0876-.58202-.0625-.23835-.2422-.01381-.5612.25626-.7638z" fill="url(#ay)"/></g><g filter="url(#p)"><path d="m21.499 12.2707-3.1445-1.207-.1367 2.1757 3.5781 1.3672c.1849.0834.6516.2 1.0391 0s.5156-.7187.5312-.9531l.2486-4.55907c.0135-.24802-.184-.45655-.4324-.45655h-.007c-.0759 0-.1373.06146-.1373.13728v.47991c0 .18984-.1539.34375-.3438.34375-.1898 0-.3437-.15391-.3437-.34375v-.74457c0-.22305-.1808-.40387-.4039-.40387-.2092 0-.3835.15967-.4005.36818-.0132.162-.0294.36593-.0472.60057-.0375.49375.2761.83594.4375.96092z" fill="#a07364"/></g><path d="m16.0166 10.709c-.4375.015-1.4194.0836-1.9848.1632-.7213.1016-.7645.711-.7645.9922v3.6797h5.5248v-3.6797c0-.2812-.0431-.8906-.7644-.9922-.5655-.0796-1.5473-.1482-1.9849-.1632-.0043.0001-.0087-.0006-.0131-.0004-.0044-.0002-.0088.0005-.0131.0004z" fill="url(#az)"/><path d="m16.0166 10.709c-.4375.015-1.4194.0836-1.9848.1632-.7213.1016-.7645.711-.7645.9922v3.6797h5.5248v-3.6797c0-.2812-.0431-.8906-.7644-.9922-.5655-.0796-1.5473-.1482-1.9849-.1632-.0043.0001-.0087-.0006-.0131-.0004-.0044-.0002-.0088.0005-.0131.0004z" fill="url(#aA)"/><path d="m16.0166 10.709c-.4375.015-1.4194.0836-1.9848.1632-.7213.1016-.7645.711-.7645.9922v3.6797h5.5248v-3.6797c0-.2812-.0431-.8906-.7644-.9922-.5655-.0796-1.5473-.1482-1.9849-.1632-.0043.0001-.0087-.0006-.0131-.0004-.0044-.0002-.0088.0005-.0131.0004z" fill="url(#aB)"/><path d="m16.0166 10.709c-.4375.015-1.4194.0836-1.9848.1632-.7213.1016-.7645.711-.7645.9922v3.6797h5.5248v-3.6797c0-.2812-.0431-.8906-.7644-.9922-.5655-.0796-1.5473-.1482-1.9849-.1632-.0043.0001-.0087-.0006-.0131-.0004-.0044-.0002-.0088.0005-.0131.0004z" fill="url(#aC)"/><path d="m16.0166 10.709c-.4375.015-1.4194.0836-1.9848.1632-.7213.1016-.7645.711-.7645.9922v3.6797h5.5248v-3.6797c0-.2812-.0431-.8906-.7644-.9922-.5655-.0796-1.5473-.1482-1.9849-.1632-.0043.0001-.0087-.0006-.0131-.0004-.0044-.0002-.0088.0005-.0131.0004z" fill="url(#aD)"/><path d="m15.0693 10.136v.6987c0 .0586.0264.1137.0658.157.1344.1475.3259.4435.4562.8699.0598.1958.2323.3427.437.3427s.3773-.1469.4371-.3427c.1303-.4264.3218-.7224.4561-.8699.0395-.0433.0658-.0984.0658-.157v-.6987z" fill="url(#aE)"/><g filter="url(#q)"><path d="m13.1399 20.5345c.0122-.3664.0702-2.8263.0995-4.0927.0012-.0502.0384-.091.0884-.0958 1.3413-.1305 4.0819-.0896 5.3647-.0519.0437.0012.0803.0306.092.0728.2362.8549.6549 2.4653.6913 2.6051.0375.1438-.0156.237-.0468.2656-.3985.0313-.9375.5391-2.336 1.0547-1.3984.5157-2.7422.6094-3.1953.5938-.3625-.0125-.5171.0117-.5836.0859-.0338-.013-.1742-.1437-.1742-.4375z" fill="#8569c7"/><path d="m13.1399 20.5345c.0122-.3664.0702-2.8263.0995-4.0927.0012-.0502.0384-.091.0884-.0958 1.3413-.1305 4.0819-.0896 5.3647-.0519.0437.0012.0803.0306.092.0728.2362.8549.6549 2.4653.6913 2.6051.0375.1438-.0156.237-.0468.2656-.3985.0313-.9375.5391-2.336 1.0547-1.3984.5157-2.7422.6094-3.1953.5938-.3625-.0125-.5171.0117-.5836.0859-.0338-.013-.1742-.1437-.1742-.4375z" fill="url(#aF)"/><path d="m13.1399 20.5345c.0122-.3664.0702-2.8263.0995-4.0927.0012-.0502.0384-.091.0884-.0958 1.3413-.1305 4.0819-.0896 5.3647-.0519.0437.0012.0803.0306.092.0728.2362.8549.6549 2.4653.6913 2.6051.0375.1438-.0156.237-.0468.2656-.3985.0313-.9375.5391-2.336 1.0547-1.3984.5157-2.7422.6094-3.1953.5938-.3625-.0125-.5171.0117-.5836.0859-.0338-.013-.1742-.1437-.1742-.4375z" fill="url(#aG)"/><path d="m13.1399 20.5345c.0122-.3664.0702-2.8263.0995-4.0927.0012-.0502.0384-.091.0884-.0958 1.3413-.1305 4.0819-.0896 5.3647-.0519.0437.0012.0803.0306.092.0728.2362.8549.6549 2.4653.6913 2.6051.0375.1438-.0156.237-.0468.2656-.3985.0313-.9375.5391-2.336 1.0547-1.3984.5157-2.7422.6094-3.1953.5938-.3625-.0125-.5171.0117-.5836.0859-.0338-.013-.1742-.1437-.1742-.4375z" fill="url(#aH)"/></g><g filter="url(#r)"><path d="m19.7012 12.7454 2.672 1.045c.0623.0243.1305-.0181.1361-.0848l.3012-3.5696" stroke="url(#aI)" stroke-linecap="round" stroke-width=".5"/></g><path d="m16.2529 10.0013c.11.0044.2243.0132.3386.022-.1143-.0088-.2242-.0176-.3386-.022z" fill="url(#aK)"/><path d="m16.1077 10.0013c-.0044 0-.0088 0-.0176 0 .044 0 .0835 0 .1275.0044-.0352-.0044-.0747-.0044-.1099-.0044z" fill="url(#aL)"/><g filter="url(#s)"><path d="m13.948 8.54162c.3946 0 .7144-.31984.7144-.71438 0-.39455-.3198-.71439-.7144-.71439-.3945 0-.7144.31984-.7144.71439 0 .39454.3199.71438.7144.71438z" fill="url(#aM)"/></g><path d="m13.948 8.54162c.3946 0 .7144-.31984.7144-.71438 0-.39455-.3198-.71439-.7144-.71439-.3945 0-.7144.31984-.7144.71439 0 .39454.3199.71438.7144.71438z" fill="url(#aN)"/><g filter="url(#t)"><path d="m18.1714 8.54162c.3946 0 .7144-.31984.7144-.71438 0-.39455-.3198-.71439-.7144-.71439-.3945 0-.7144.31984-.7144.71439 0 .39454.3199.71438.7144.71438z" fill="url(#aO)"/><path d="m18.1714 8.54162c.3946 0 .7144-.31984.7144-.71438 0-.39455-.3198-.71439-.7144-.71439-.3945 0-.7144.31984-.7144.71439 0 .39454.3199.71438.7144.71438z" fill="url(#aP)"/></g><g filter="url(#u)"><path d="m18.1715 8.30415c.2633 0 .4768-.21351.4768-.47688 0-.26336-.2135-.47687-.4768-.47687-.2634 0-.4769.21351-.4769.47687 0 .26337.2135.47688.4769.47688z" fill="#b38574"/><path d="m18.1715 8.30415c.2633 0 .4768-.21351.4768-.47688 0-.26336-.2135-.47687-.4768-.47687-.2634 0-.4769.21351-.4769.47687 0 .26337.2135.47688.4769.47688z" fill="url(#aQ)"/></g><g filter="url(#v)"><path d="m13.9566 8.30415c.2634 0 .4769-.21351.4769-.47688 0-.26336-.2135-.47687-.4769-.47687s-.4769.21351-.4769.47687c0 .26337.2135.47688.4769.47688z" fill="#7e555a"/><path d="m13.9566 8.30415c.2634 0 .4769-.21351.4769-.47688 0-.26336-.2135-.47687-.4769-.47687s-.4769.21351-.4769.47687c0 .26337.2135.47688.4769.47688z" fill="url(#aR)"/></g><g filter="url(#w)"><path d="m13.7698 7.26664h.0054l-.0045-.11778-.0046-.13589c.0091-.42127.255-.58435.3597-.63871.0068-.00226.0148-.00566.0228-.00906.0079-.00339.0159-.00679.0227-.00905.2368-.10872.428-.29897.5281-.54811l.0365-.08607c.0364-.08606.1502-.09965.2048-.02265.3187.46657.8514.74289 1.416.74289h1.4296c.0799 0 .4804.03879.5042.59146l-.0527 1.36433c-.0547 1.24423-1.0264 2.0797-2.2124 2.0797s-2.1576-.83547-2.2124-2.0797z" fill="url(#aS)"/><path d="m13.7698 7.26664h.0054l-.0045-.11778-.0046-.13589c.0091-.42127.255-.58435.3597-.63871.0068-.00226.0148-.00566.0228-.00906.0079-.00339.0159-.00679.0227-.00905.2368-.10872.428-.29897.5281-.54811l.0365-.08607c.0364-.08606.1502-.09965.2048-.02265.3187.46657.8514.74289 1.416.74289h1.4296c.0799 0 .4804.03879.5042.59146l-.0527 1.36433c-.0547 1.24423-1.0264 2.0797-2.2124 2.0797s-2.1576-.83547-2.2124-2.0797z" fill="url(#aT)"/><path d="m13.7698 7.26664h.0054l-.0045-.11778-.0046-.13589c.0091-.42127.255-.58435.3597-.63871.0068-.00226.0148-.00566.0228-.00906.0079-.00339.0159-.00679.0227-.00905.2368-.10872.428-.29897.5281-.54811l.0365-.08607c.0364-.08606.1502-.09965.2048-.02265.3187.46657.8514.74289 1.416.74289h1.4296c.0799 0 .4804.03879.5042.59146l-.0527 1.36433c-.0547 1.24423-1.0264 2.0797-2.2124 2.0797s-2.1576-.83547-2.2124-2.0797z" fill="url(#aU)"/><path d="m13.7698 7.26664h.0054l-.0045-.11778-.0046-.13589c.0091-.42127.255-.58435.3597-.63871.0068-.00226.0148-.00566.0228-.00906.0079-.00339.0159-.00679.0227-.00905.2368-.10872.428-.29897.5281-.54811l.0365-.08607c.0364-.08606.1502-.09965.2048-.02265.3187.46657.8514.74289 1.416.74289h1.4296c.0799 0 .4804.03879.5042.59146l-.0527 1.36433c-.0547 1.24423-1.0264 2.0797-2.2124 2.0797s-2.1576-.83547-2.2124-2.0797z" fill="url(#aV)"/><path d="m13.7698 7.26664h.0054l-.0045-.11778-.0046-.13589c.0091-.42127.255-.58435.3597-.63871.0068-.00226.0148-.00566.0228-.00906.0079-.00339.0159-.00679.0227-.00905.2368-.10872.428-.29897.5281-.54811l.0365-.08607c.0364-.08606.1502-.09965.2048-.02265.3187.46657.8514.74289 1.416.74289h1.4296c.0799 0 .4804.03879.5042.59146l-.0527 1.36433c-.0547 1.24423-1.0264 2.0797-2.2124 2.0797s-2.1576-.83547-2.2124-2.0797z" fill="url(#aW)"/><path d="m13.7698 7.26664h.0054l-.0045-.11778-.0046-.13589c.0091-.42127.255-.58435.3597-.63871.0068-.00226.0148-.00566.0228-.00906.0079-.00339.0159-.00679.0227-.00905.2368-.10872.428-.29897.5281-.54811l.0365-.08607c.0364-.08606.1502-.09965.2048-.02265.3187.46657.8514.74289 1.416.74289h1.4296c.0799 0 .4804.03879.5042.59146l-.0527 1.36433c-.0547 1.24423-1.0264 2.0797-2.2124 2.0797s-2.1576-.83547-2.2124-2.0797z" fill="url(#aX)"/><path d="m13.7698 7.26664h.0054l-.0045-.11778-.0046-.13589c.0091-.42127.255-.58435.3597-.63871.0068-.00226.0148-.00566.0228-.00906.0079-.00339.0159-.00679.0227-.00905.2368-.10872.428-.29897.5281-.54811l.0365-.08607c.0364-.08606.1502-.09965.2048-.02265.3187.46657.8514.74289 1.416.74289h1.4296c.0799 0 .4804.03879.5042.59146l-.0527 1.36433c-.0547 1.24423-1.0264 2.0797-2.2124 2.0797s-2.1576-.83547-2.2124-2.0797z" fill="url(#aY)"/><path d="m13.7698 7.26664h.0054l-.0045-.11778-.0046-.13589c.0091-.42127.255-.58435.3597-.63871.0068-.00226.0148-.00566.0228-.00906.0079-.00339.0159-.00679.0227-.00905.2368-.10872.428-.29897.5281-.54811l.0365-.08607c.0364-.08606.1502-.09965.2048-.02265.3187.46657.8514.74289 1.416.74289h1.4296c.0799 0 .4804.03879.5042.59146l-.0527 1.36433c-.0547 1.24423-1.0264 2.0797-2.2124 2.0797s-2.1576-.83547-2.2124-2.0797z" fill="url(#aZ)"/></g><path d="m13.7698 7.26664h.0054l-.0045-.11778-.0046-.13589c.0091-.42127.255-.58435.3597-.63871.0068-.00226.0148-.00566.0228-.00906.0079-.00339.0159-.00679.0227-.00905.2368-.10872.428-.29897.5281-.54811l.0365-.08607c.0364-.08606.1502-.09965.2048-.02265.3187.46657.8514.74289 1.416.74289h1.4296c.0799 0 .4804.03879.5042.59146l-.0527 1.36433c-.0547 1.24423-1.0264 2.0797-2.2124 2.0797s-2.1576-.83547-2.2124-2.0797z" fill="url(#a0)"/><g filter="url(#x)"><path d="m15.8541 7.72836-.3035.75475c-.0482.15525.0674.3105.2311.3105h.3491c.1638 0 .2793-.15764.2312-.3105l-.236-.75475c-.0505-.16719-.219-.16719-.2719 0z" fill="#88555f"/></g><g filter="url(#y)"><path d="m15.8586 7.66696-.236.75475c-.0482.15525.0674.3105.2311.3105h.3492c.1637 0 .2793-.15764.2311-.3105l-.236-.75475c-.0505-.16719-.2865-.16719-.3394 0z" fill="#b38578"/><path d="m15.8586 7.66696-.236.75475c-.0482.15525.0674.3105.2311.3105h.3492c.1637 0 .2793-.15764.2311-.3105l-.236-.75475c-.0505-.16719-.2865-.16719-.3394 0z" fill="url(#a1)"/><path d="m15.8586 7.66696-.236.75475c-.0482.15525.0674.3105.2311.3105h.3492c.1637 0 .2793-.15764.2311-.3105l-.236-.75475c-.0505-.16719-.2865-.16719-.3394 0z" fill="url(#a2)"/><path d="m15.8586 7.66696-.236.75475c-.0482.15525.0674.3105.2311.3105h.3492c.1637 0 .2793-.15764.2311-.3105l-.236-.75475c-.0505-.16719-.2865-.16719-.3394 0z" fill="url(#a3)"/><path d="m15.8586 7.66696-.236.75475c-.0482.15525.0674.3105.2311.3105h.3492c.1637 0 .2793-.15764.2311-.3105l-.236-.75475c-.0505-.16719-.2865-.16719-.3394 0z" fill="url(#a4)"/></g><g filter="url(#z)"><path d="m16.0282 9.11986c-.2312 0-.4485-.05565-.6311-.15304-.0625-.03246-.1295.03942-.0902.09739.1526.23652.4184.39419.7213.39419s.5687-.15767.7213-.39419c.0393-.06029-.0277-.12985-.0902-.09739-.1826.09739-.3976.15304-.6311.15304z" stroke="url(#a5)" stroke-width=".1"/></g><path d="m16.0282 9.11986c-.2312 0-.4485-.05565-.6311-.15304-.0625-.03246-.1295.03942-.0902.09739.1526.23652.4184.39419.7213.39419s.5687-.15767.7213-.39419c.0393-.06029-.0277-.12985-.0902-.09739-.1826.09739-.3976.15304-.6311.15304z" fill="#88024e"/><g filter="url(#A)"><path d="m16.5353 7.57461c.1179-.20724.297-.37094.6826-.37094.1688 0 .3316.04678.4763.1637.1193.09645.1033.21985.0109.26606l-.2469.14094c-.2894-.09355-.6094-.10621-.9229-.19976z" fill="#2f2c32"/></g><g filter="url(#B)"><path d="m15.5213 7.57461c-.1178-.20724-.2969-.37094-.6825-.37094-.1688 0-.3316.04678-.4763.1637-.1194.09645-.1034.21985-.011.26606l.2469.14094c.2894-.09355.6094-.10621.9229-.19976z" fill="#27232a"/></g><g filter="url(#C)"><path d="m14.5199 7.03796-.0019.00112c-.0001.00004-.0002.00007-.0002.00011-.0564.03363-.1294.01536-.1632-.04095-.0338-.05638-.0155-.12956.0409-.16339l.0003-.00016.0004-.00027.0013-.00077.0042-.00242.0144-.008c.0122-.00661.0296-.01565.0515-.0261.0438-.02085.1061-.04755.1821-.0718.1509-.04816.3619-.08867.5897-.04847.0648.01142.108.07318.0966.13794-.0115.06476-.0732.10799-.138.09656-.177-.03124-.347-.00031-.4759.04082-.0639.0204-.1161.04281-.152.05991-.0179.00853-.0316.01568-.0405.02051z" fill="#432a28"/></g><g filter="url(#D)"><path clip-rule="evenodd" d="m17.685 6.83485c0 .00002 0 .00004-.0612.10213l.0612-.10213c.0563.03383.0747.10701.0409.16339-.0338.05631-.1068.07462-.1632.04098 0-.00002-.0001-.00006-.0002-.00013l-.0019-.00113c-.002-.00112-.0052-.00295-.0097-.00536-.0089-.00483-.0226-.01198-.0405-.02051-.0359-.0171-.0881-.03951-.152-.05991-.1289-.04113-.2989-.07206-.4759-.04082-.0648.01143-.1266-.0318-.138-.09656s.0318-.12652.0966-.13794c.2278-.0402.4388.00031.5897.04847.076.02425.1383.05095.1821.0718.0219.01045.0392.01949.0515.0261.0061.00331.0109.00602.0144.008l.0041.00242.0013.00077.0005.00027z" fill="#432a28" fill-rule="evenodd"/></g><path d="m17.0899 7.2298c.29 0 .5349.19991.6016.47006.0198.07744-.0397.15128-.1189.15128h-.9906c-.063 0-.1134-.05763-.1008-.12067.0558-.28455.3062-.50067.6087-.50067z" fill="#fff"/><path d="m16.9979 7.3504c.2197 0 .3962.1783.3962.39622 0 .03602-.0054.07204-.0144.10446h-.7654c-.009-.03422-.0144-.06844-.0144-.10446 0-.21792.1783-.39622.398-.39622z" fill="url(#a7)"/><path d="m16.771 7.74664c0-.12607.1009-.22693.2269-.22693.1261 0 .2269.10086.2269.22693 0 .03782-.009.07384-.0252.10446h-.4016c-.018-.03062-.027-.06664-.027-.10446z" fill="#000"/><g filter="url(#E)"><path d="m16.9689 7.43414c.0282.03775-.0308.08378-.0979.13394s-.1169.08546-.1451.04771c-.0282-.03776.0033-.10903.0704-.15919s.1443-.06022.1726-.02246z" fill="#c7a7a3"/><path d="m16.9689 7.43414c.0282.03775-.0308.08378-.0979.13394s-.1169.08546-.1451.04771c-.0282-.03776.0033-.10903.0704-.15919s.1443-.06022.1726-.02246z" fill="url(#a9)"/></g><g filter="url(#F)"><path d="m17.3509 7.6945c-.0146-.10243-.0746-.17963-.1027-.20543l-.1154.12664.0521.1013z" fill="url(#bb)"/></g><path d="m14.9667 7.2298c-.29 0-.5349.19991-.6015.47006-.0198.07744.0396.15128.1188.15128h.9906c.063 0 .1135-.05763.1008-.12066-.0558-.28456-.3079-.50068-.6087-.50068z" fill="#fff"/><path d="m15.0586 7.3504c-.2197 0-.3962.1783-.3962.39622 0 .03602.0054.07204.0144.10446h.7654c.009-.03422.0144-.06844.0144-.10446-.0018-.21792-.1783-.39622-.398-.39622z" fill="url(#bc)"/><path d="m15.2856 7.74664c0-.12607-.1008-.22693-.2269-.22693s-.2269.10086-.2269.22693c0 .03782.009.07384.0252.10446h.4016c.0162-.03062.027-.06664.027-.10446z" fill="#000"/><g filter="url(#G)"><path d="m15.4207 7.70007c0-.12804-.1041-.2134-.1323-.23919l-.128.12382.0788.1604z" fill="url(#bd)"/></g><g filter="url(#H)"><ellipse cx="14.9392" cy="7.51963" fill="#c7a7a3" fill-opacity=".9" rx=".172972" ry=".08754" transform="matrix(.88365127 -.46814574 .46814574 .88365127 -1.782126 7.868622)"/><ellipse cx="14.9392" cy="7.51963" fill="url(#be)" rx=".172972" ry=".08754" transform="matrix(.88365127 -.46814574 .46814574 .88365127 -1.782126 7.868622)"/></g><g filter="url(#I)"><path d="m15.7604 4.36846c-.5029-.11102-.9544.39068-1.0065.57672.467 1.57388 1.6485 1.48766 2.8148 1.35807.6982-.07757.7739.24061.8334.3944 0-1.746-1.4847-2.07377-2.629-2.32638z" fill="#553836"/><path d="m15.7604 4.36846c-.5029-.11102-.9544.39068-1.0065.57672.467 1.57388 1.6485 1.48766 2.8148 1.35807.6982-.07757.7739.24061.8334.3944 0-1.746-1.4847-2.07377-2.629-2.32638z" fill="url(#bf)"/><path d="m15.7604 4.36846c-.5029-.11102-.9544.39068-1.0065.57672.467 1.57388 1.6485 1.48766 2.8148 1.35807.6982-.07757.7739.24061.8334.3944 0-1.746-1.4847-2.07377-2.629-2.32638z" fill="url(#bg)"/></g><g filter="url(#J)"><path d="m17.0967 5.97109-.6329.11641c-.1877.03453-.3608-.10961-.3608-.30048 0-.16873.1366-.30551.3053-.30551h1.0393c.6146 0 .818.61944.8429.83111-.3227-.29417-.7644-.42053-1.1938-.34153z" fill="#664a4a"/></g></svg>