<svg fill="none" height="32" viewBox="0 0 32 32" width="32" xmlns="http://www.w3.org/2000/svg" xmlns:xlink="http://www.w3.org/1999/xlink"><filter id="a" color-interpolation-filters="sRGB" filterUnits="userSpaceOnUse" height="13.25" width="29.25" x="1.34375" y="8.25"><feFlood flood-opacity="0" result="BackgroundImageFix"/><feBlend in="SourceGraphic" in2="BackgroundImageFix" mode="normal" result="shape"/><feColorMatrix in="SourceAlpha" result="hardAlpha" type="matrix" values="0 0 0 0 0 0 0 0 0 0 0 0 0 0 0 0 0 0 127 0"/><feOffset dx=".75" dy="-.75"/><feGaussianBlur stdDeviation=".375"/><feComposite in2="hardAlpha" k2="-1" k3="1" operator="arithmetic"/><feColorMatrix type="matrix" values="0 0 0 0 0.2 0 0 0 0 0.129412 0 0 0 0 0.254902 0 0 0 1 0"/><feBlend in2="shape" mode="normal" result="effect1_innerShadow_18_11988"/><feColorMatrix in="SourceAlpha" result="hardAlpha" type="matrix" values="0 0 0 0 0 0 0 0 0 0 0 0 0 0 0 0 0 0 127 0"/><feOffset dx="-.75" dy=".75"/><feGaussianBlur stdDeviation=".25"/><feComposite in2="hardAlpha" k2="-1" k3="1" operator="arithmetic"/><feColorMatrix type="matrix" values="0 0 0 0 0.372549 0 0 0 0 0.333333 0 0 0 0 0.411765 0 0 0 1 0"/><feBlend in2="effect1_innerShadow_18_11988" mode="normal" result="effect2_innerShadow_18_11988"/></filter><filter id="b" color-interpolation-filters="sRGB" filterUnits="userSpaceOnUse" height="7.2" width="7.2" x="20.0437" y="11.6"><feFlood flood-opacity="0" result="BackgroundImageFix"/><feColorMatrix in="SourceAlpha" result="hardAlpha" type="matrix" values="0 0 0 0 0 0 0 0 0 0 0 0 0 0 0 0 0 0 127 0"/><feOffset dx="-.2" dy=".2"/><feGaussianBlur stdDeviation=".3"/><feComposite in2="hardAlpha" operator="out"/><feColorMatrix type="matrix" values="0 0 0 0 0.121569 0 0 0 0 0.121569 0 0 0 0 0.14902 0 0 0 1 0"/><feBlend in2="BackgroundImageFix" mode="normal" result="effect1_dropShadow_18_11988"/><feBlend in="SourceGraphic" in2="effect1_dropShadow_18_11988" mode="normal" result="shape"/><feColorMatrix in="SourceAlpha" result="hardAlpha" type="matrix" values="0 0 0 0 0 0 0 0 0 0 0 0 0 0 0 0 0 0 127 0"/><feOffset dy=".5"/><feGaussianBlur stdDeviation=".5"/><feComposite in2="hardAlpha" k2="-1" k3="1" operator="arithmetic"/><feColorMatrix type="matrix" values="0 0 0 0 0.313726 0 0 0 0 0.0352941 0 0 0 0 0.12549 0 0 0 1 0"/><feBlend in2="shape" mode="normal" result="effect2_innerShadow_18_11988"/></filter><filter id="c" color-interpolation-filters="sRGB" filterUnits="userSpaceOnUse" height="7.2" width="7.2" x="12.0437" y="11.6"><feFlood flood-opacity="0" result="BackgroundImageFix"/><feColorMatrix in="SourceAlpha" result="hardAlpha" type="matrix" values="0 0 0 0 0 0 0 0 0 0 0 0 0 0 0 0 0 0 127 0"/><feOffset dx="-.2" dy=".2"/><feGaussianBlur stdDeviation=".3"/><feComposite in2="hardAlpha" operator="out"/><feColorMatrix type="matrix" values="0 0 0 0 0.121569 0 0 0 0 0.121569 0 0 0 0 0.14902 0 0 0 1 0"/><feBlend in2="BackgroundImageFix" mode="normal" result="effect1_dropShadow_18_11988"/><feBlend in="SourceGraphic" in2="effect1_dropShadow_18_11988" mode="normal" result="shape"/><feColorMatrix in="SourceAlpha" result="hardAlpha" type="matrix" values="0 0 0 0 0 0 0 0 0 0 0 0 0 0 0 0 0 0 127 0"/><feOffset dy=".5"/><feGaussianBlur stdDeviation=".5"/><feComposite in2="hardAlpha" k2="-1" k3="1" operator="arithmetic"/><feColorMatrix type="matrix" values="0 0 0 0 0.439216 0 0 0 0 0.235294 0 0 0 0 0.0431373 0 0 0 1 0"/><feBlend in2="shape" mode="normal" result="effect2_innerShadow_18_11988"/></filter><filter id="d" color-interpolation-filters="sRGB" filterUnits="userSpaceOnUse" height="7.2" width="7.2" x="4.04375" y="11.6"><feFlood flood-opacity="0" result="BackgroundImageFix"/><feColorMatrix in="SourceAlpha" result="hardAlpha" type="matrix" values="0 0 0 0 0 0 0 0 0 0 0 0 0 0 0 0 0 0 127 0"/><feOffset dx="-.2" dy=".2"/><feGaussianBlur stdDeviation=".3"/><feComposite in2="hardAlpha" operator="out"/><feColorMatrix type="matrix" values="0 0 0 0 0.121569 0 0 0 0 0.121569 0 0 0 0 0.14902 0 0 0 1 0"/><feBlend in2="BackgroundImageFix" mode="normal" result="effect1_dropShadow_18_11988"/><feBlend in="SourceGraphic" in2="effect1_dropShadow_18_11988" mode="normal" result="shape"/><feColorMatrix in="SourceAlpha" result="hardAlpha" type="matrix" values="0 0 0 0 0 0 0 0 0 0 0 0 0 0 0 0 0 0 127 0"/><feOffset dy=".5"/><feGaussianBlur stdDeviation=".5"/><feComposite in2="hardAlpha" k2="-1" k3="1" operator="arithmetic"/><feColorMatrix type="matrix" values="0 0 0 0 0.0431373 0 0 0 0 0.34902 0 0 0 0 0.176471 0 0 0 1 0"/><feBlend in2="shape" mode="normal" result="effect2_innerShadow_18_11988"/></filter><filter id="e" color-interpolation-filters="sRGB" filterUnits="userSpaceOnUse" height="3.29463" width="7.54023" x="4.19033" y="10.7451"><feFlood flood-opacity="0" result="BackgroundImageFix"/><feBlend in="SourceGraphic" in2="BackgroundImageFix" mode="normal" result="shape"/><feGaussianBlur result="effect1_foregroundBlur_18_11988" stdDeviation=".2"/></filter><filter id="f" color-interpolation-filters="sRGB" filterUnits="userSpaceOnUse" height="3.29463" width="7.54023" x="12.2437" y="10.7451"><feFlood flood-opacity="0" result="BackgroundImageFix"/><feBlend in="SourceGraphic" in2="BackgroundImageFix" mode="normal" result="shape"/><feGaussianBlur result="effect1_foregroundBlur_18_11988" stdDeviation=".2"/></filter><filter id="g" color-interpolation-filters="sRGB" filterUnits="userSpaceOnUse" height="3.18025" width="7.54023" x="20.0736" y="10.8596"><feFlood flood-opacity="0" result="BackgroundImageFix"/><feBlend in="SourceGraphic" in2="BackgroundImageFix" mode="normal" result="shape"/><feGaussianBlur result="effect1_foregroundBlur_18_11988" stdDeviation=".2"/></filter><linearGradient id="h" gradientUnits="userSpaceOnUse" x1="15.8438" x2="15.8438" y1="9" y2="18.8647"><stop offset="0" stop-color="#5b4969"/><stop offset="1" stop-color="#3b363e"/></linearGradient><linearGradient id="i" gradientUnits="userSpaceOnUse" x1="26.8438" x2="23.0444" y1="12" y2="16.373"><stop offset="0" stop-color="#e94489"/><stop offset="1" stop-color="#fa2f47"/></linearGradient><radialGradient id="j" cx="0" cy="0" gradientTransform="matrix(-2.70899233 3.93807341 -3.93807341 -2.70899233 24.8949 13.5896)" gradientUnits="userSpaceOnUse" r="1"><stop offset=".776196" stop-color="#b50f2f" stop-opacity="0"/><stop offset="1" stop-color="#b50f2f"/></radialGradient><linearGradient id="k" gradientUnits="userSpaceOnUse" x1="18.8438" x2="15.0444" y1="12" y2="16.373"><stop offset="0" stop-color="#fe9142"/><stop offset="1" stop-color="#ffe67b"/></linearGradient><radialGradient id="l" cx="0" cy="0" gradientTransform="matrix(-2.70899233 3.93807341 -3.93807341 -2.70899233 16.8949 13.5896)" gradientUnits="userSpaceOnUse" r="1"><stop offset=".776196" stop-color="#c39a59" stop-opacity="0"/><stop offset="1" stop-color="#c39a59"/></radialGradient><linearGradient id="m" gradientUnits="userSpaceOnUse" x1="10.8438" x2="7.04438" y1="12" y2="16.373"><stop offset="0" stop-color="#3f995f"/><stop offset="1" stop-color="#00d26a"/></linearGradient><radialGradient id="n" cx="0" cy="0" gradientTransform="matrix(-2.70899233 3.93807341 -3.93807341 -2.70899233 8.8949 13.5896)" gradientUnits="userSpaceOnUse" r="1"><stop offset=".776196" stop-color="#1b9d5f" stop-opacity="0"/><stop offset="1" stop-color="#1b9d5f"/></radialGradient><linearGradient id="o"><stop offset="0" stop-color="#f2f7f7"/><stop offset="1" stop-color="#f2f7f7" stop-opacity="0"/></linearGradient><radialGradient id="p" cx="0" cy="0" gradientTransform="matrix(1.04002572 -1.25588036 2.32314876 1.9238572 24.3591 14.4696)" gradientUnits="userSpaceOnUse" r="1" xlink:href="#o"/><radialGradient id="q" cx="0" cy="0" gradientTransform="matrix(1.04002572 -1.25588036 2.32314876 1.9238572 16.3591 14.4696)" gradientUnits="userSpaceOnUse" r="1" xlink:href="#o"/><radialGradient id="r" cx="0" cy="0" gradientTransform="matrix(1.04002572 -1.25588036 2.32314876 1.9238572 8.35913 14.4696)" gradientUnits="userSpaceOnUse" r="1" xlink:href="#o"/><linearGradient id="s"><stop offset="0" stop-color="#291c32"/><stop offset="1" stop-color="#2a2630"/></linearGradient><linearGradient id="t" gradientUnits="userSpaceOnUse" x1="4.4375" x2="11.2344" xlink:href="#s" y1="13.2041" y2="13.2041"/><linearGradient id="u" gradientUnits="userSpaceOnUse" x1="12.4375" x2="19.2344" xlink:href="#s" y1="13.2041" y2="13.2041"/><linearGradient id="v" gradientUnits="userSpaceOnUse" x1="20.4375" x2="27.2344" xlink:href="#s" y1="13.2041" y2="13.2041"/><linearGradient id="w"><stop offset="0" stop-color="#4d4b4e"/><stop offset=".359375" stop-color="#4d4b4e" stop-opacity="0"/><stop offset="1" stop-color="#4d4b4e"/></linearGradient><linearGradient id="x" gradientUnits="userSpaceOnUse" x1="4.90558" x2="11.2774" xlink:href="#w" y1="12.2469" y2="12.2469"/><linearGradient id="y" gradientUnits="userSpaceOnUse" x1="12.959" x2="19.3308" xlink:href="#w" y1="12.2469" y2="12.2469"/><linearGradient id="z" gradientUnits="userSpaceOnUse" x1="20.7889" x2="27.1607" y1="12.3122" y2="12.3122"><stop offset="0" stop-color="#4d4b4e"/><stop offset=".328025" stop-color="#4d4b4e" stop-opacity="0"/><stop offset="1" stop-color="#4d4b4e"/></linearGradient><g filter="url(#a)"><path d="m1.84375 15c0-3.31 2.69289-6 6.00644-6h15.98711c3.3136 0 6.0064 2.69 6.0064 6s-2.6928 6-6.0064 6h-15.98711c-3.31355 0-6.00644-2.69-6.00644-6z" fill="url(#h)"/></g><g filter="url(#b)"><path d="m23.8438 18c1.6568 0 3-1.3431 3-3s-1.3432-3-3-3c-1.6569 0-3 1.3431-3 3s1.3431 3 3 3z" fill="url(#i)"/><path d="m23.8438 18c1.6568 0 3-1.3431 3-3s-1.3432-3-3-3c-1.6569 0-3 1.3431-3 3s1.3431 3 3 3z" fill="url(#j)"/></g><g filter="url(#c)"><path d="m15.8438 18c1.6568 0 3-1.3431 3-3s-1.3432-3-3-3c-1.6569 0-3 1.3431-3 3s1.3431 3 3 3z" fill="url(#k)"/><path d="m15.8438 18c1.6568 0 3-1.3431 3-3s-1.3432-3-3-3c-1.6569 0-3 1.3431-3 3s1.3431 3 3 3z" fill="url(#l)"/></g><g filter="url(#d)"><path d="m7.84375 18c1.65686 0 3.00005-1.3431 3.00005-3s-1.34319-3-3.00005-3-3 1.3431-3 3 1.34314 3 3 3z" fill="url(#m)"/><path d="m7.84375 18c1.65686 0 3.00005-1.3431 3.00005-3s-1.34319-3-3.00005-3-3 1.3431-3 3 1.34314 3 3 3z" fill="url(#n)"/></g><path d="m24.8438 15c.5522 0 1-.4477 1-1s-.4478-1-1-1c-.5523 0-1 .4477-1 1s.4477 1 1 1z" fill="url(#p)"/><path d="m16.8438 15c.5522 0 1-.4477 1-1s-.4478-1-1-1c-.5523 0-1 .4477-1 1s.4477 1 1 1z" fill="url(#q)"/><path d="m8.84375 15c.55228 0 1-.4477 1-1s-.44772-1-1-1-1 .4477-1 1 .44772 1 1 1z" fill="url(#r)"/><path d="m4.19261 13.3639c-.13996.3118.11014.6361.45195.6361.22169 0 .41534-.142.51451-.3403.49222-.984 1.50956-1.6597 2.6847-1.6597 1.17515 0 2.19243.6757 2.68473 1.6597.0991.1983.2928.3403.5145.3403.3418 0 .5919-.3243.4519-.6361-.6253-1.3934-2.02489-2.3639-3.65113-2.3639s-3.0258.9705-3.65116 2.3639z" fill="url(#t)"/><path d="m12.1926 13.3639c-.1399.3118.1102.6361.452.6361.2217 0 .4153-.142.5145-.3403.4922-.984 1.5095-1.6597 2.6847-1.6597 1.1751 0 2.1924.6757 2.6847 1.6597.0991.1983.2928.3403.5145.3403.3418 0 .5919-.3243.4519-.6361-.6253-1.3934-2.0249-2.3639-3.6511-2.3639-1.6263 0-3.0258.9705-3.6512 2.3639z" fill="url(#u)"/><path d="m20.1926 13.3639c-.1399.3118.1102.6361.452.6361.2217 0 .4153-.142.5145-.3403.4922-.984 1.5095-1.6597 2.6847-1.6597 1.1751 0 2.1924.6757 2.6847 1.6597.0991.1983.2928.3403.5145.3403.3418 0 .5919-.3243.4519-.6361-.6253-1.3934-2.0249-2.3639-3.6511-2.3639-1.6263 0-3.0258.9705-3.6512 2.3639z" fill="url(#v)"/><g filter="url(#e)"><path d="m4.79034 13.329c.29954-.5382 1.16411-1.8865 2.80401-1.9777 1.6399-.0911 2.95375.8238 3.53615 2.0885" stroke="url(#x)" stroke-linecap="round" stroke-width=".4"/></g><g filter="url(#f)"><path d="m12.8438 13.329c.2995-.5382 1.1641-1.8865 2.804-1.9777 1.6399-.0911 2.9537.8238 3.5361 2.0885" stroke="url(#y)" stroke-linecap="round" stroke-width=".4"/></g><g filter="url(#g)"><path d="m20.6736 13.3352c.2996-.5089 1.1641-1.7836 2.8041-1.8697 1.6399-.0861 2.9537.7787 3.5361 1.9744" stroke="url(#z)" stroke-linecap="round" stroke-width=".4"/></g></svg>