<svg fill="none" height="32" viewBox="0 0 32 32" width="32" xmlns="http://www.w3.org/2000/svg" xmlns:xlink="http://www.w3.org/1999/xlink"><filter id="a" color-interpolation-filters="sRGB" filterUnits="userSpaceOnUse" height="7.93999" width="17.94" x="7.01147" y="1.80854"><feFlood flood-opacity="0" result="BackgroundImageFix"/><feBlend in="SourceGraphic" in2="BackgroundImageFix" mode="normal" result="shape"/><feColorMatrix in="SourceAlpha" result="hardAlpha" type="matrix" values="0 0 0 0 0 0 0 0 0 0 0 0 0 0 0 0 0 0 127 0"/><feOffset dy="-.2"/><feGaussianBlur stdDeviation=".3"/><feComposite in2="hardAlpha" k2="-1" k3="1" operator="arithmetic"/><feColorMatrix type="matrix" values="0 0 0 0 0.298039 0 0 0 0 0.596078 0 0 0 0 0.72549 0 0 0 1 0"/><feBlend in2="shape" mode="normal" result="effect1_innerShadow_3987_22274"/></filter><filter id="b" color-interpolation-filters="sRGB" filterUnits="userSpaceOnUse" height="2.19375" width="7.4125" x="20.982" y="25.8291"><feFlood flood-opacity="0" result="BackgroundImageFix"/><feBlend in="SourceGraphic" in2="BackgroundImageFix" mode="normal" result="shape"/><feColorMatrix in="SourceAlpha" result="hardAlpha" type="matrix" values="0 0 0 0 0 0 0 0 0 0 0 0 0 0 0 0 0 0 127 0"/><feOffset dx="-.1" dy=".1"/><feGaussianBlur stdDeviation=".2"/><feComposite in2="hardAlpha" k2="-1" k3="1" operator="arithmetic"/><feColorMatrix type="matrix" values="0 0 0 0 0.839216 0 0 0 0 0.768627 0 0 0 0 0.729412 0 0 0 1 0"/><feBlend in2="shape" mode="normal" result="effect1_innerShadow_3987_22274"/></filter><filter id="c" color-interpolation-filters="sRGB" filterUnits="userSpaceOnUse" height="2.19375" width="9.01406" x="20.982" y="23.7354"><feFlood flood-opacity="0" result="BackgroundImageFix"/><feBlend in="SourceGraphic" in2="BackgroundImageFix" mode="normal" result="shape"/><feColorMatrix in="SourceAlpha" result="hardAlpha" type="matrix" values="0 0 0 0 0 0 0 0 0 0 0 0 0 0 0 0 0 0 127 0"/><feOffset dx="-.1" dy=".1"/><feGaussianBlur stdDeviation=".2"/><feComposite in2="hardAlpha" k2="-1" k3="1" operator="arithmetic"/><feColorMatrix type="matrix" values="0 0 0 0 0.839216 0 0 0 0 0.768627 0 0 0 0 0.729412 0 0 0 1 0"/><feBlend in2="shape" mode="normal" result="effect1_innerShadow_3987_22274"/></filter><filter id="d" color-interpolation-filters="sRGB" filterUnits="userSpaceOnUse" height="6.62656" width="4.36875" x="20.1602" y="23.3354"><feFlood flood-opacity="0" result="BackgroundImageFix"/><feBlend in="SourceGraphic" in2="BackgroundImageFix" mode="normal" result="shape"/><feColorMatrix in="SourceAlpha" result="hardAlpha" type="matrix" values="0 0 0 0 0 0 0 0 0 0 0 0 0 0 0 0 0 0 127 0"/><feOffset dx=".4" dy="-.4"/><feGaussianBlur stdDeviation=".35"/><feComposite in2="hardAlpha" k2="-1" k3="1" operator="arithmetic"/><feColorMatrix type="matrix" values="0 0 0 0 0.639216 0 0 0 0 0.54902 0 0 0 0 0.713726 0 0 0 1 0"/><feBlend in2="shape" mode="normal" result="effect1_innerShadow_3987_22274"/></filter><filter id="e" color-interpolation-filters="sRGB" filterUnits="userSpaceOnUse" height="2.43906" width="6.27344" x="4.64453" y="27.5229"><feFlood flood-opacity="0" result="BackgroundImageFix"/><feBlend in="SourceGraphic" in2="BackgroundImageFix" mode="normal" result="shape"/><feColorMatrix in="SourceAlpha" result="hardAlpha" type="matrix" values="0 0 0 0 0 0 0 0 0 0 0 0 0 0 0 0 0 0 127 0"/><feOffset dx="-.5" dy="-.4"/><feGaussianBlur stdDeviation=".375"/><feComposite in2="hardAlpha" k2="-1" k3="1" operator="arithmetic"/><feColorMatrix type="matrix" values="0 0 0 0 0.635294 0 0 0 0 0.541176 0 0 0 0 0.717647 0 0 0 1 0"/><feBlend in2="shape" mode="normal" result="effect1_innerShadow_3987_22274"/></filter><filter id="f" color-interpolation-filters="sRGB" filterUnits="userSpaceOnUse" height="2.49375" width="7.8125" x="3.10547" y="25.4291"><feFlood flood-opacity="0" result="BackgroundImageFix"/><feBlend in="SourceGraphic" in2="BackgroundImageFix" mode="normal" result="shape"/><feColorMatrix in="SourceAlpha" result="hardAlpha" type="matrix" values="0 0 0 0 0 0 0 0 0 0 0 0 0 0 0 0 0 0 127 0"/><feOffset dx="-.5" dy="-.4"/><feGaussianBlur stdDeviation=".375"/><feComposite in2="hardAlpha" k2="-1" k3="1" operator="arithmetic"/><feColorMatrix type="matrix" values="0 0 0 0 0.780392 0 0 0 0 0.694118 0 0 0 0 0.776471 0 0 0 1 0"/><feBlend in2="shape" mode="normal" result="effect1_innerShadow_3987_22274"/></filter><filter id="g" color-interpolation-filters="sRGB" filterUnits="userSpaceOnUse" height="2.49375" width="9.41406" x="1.50391" y="23.3354"><feFlood flood-opacity="0" result="BackgroundImageFix"/><feBlend in="SourceGraphic" in2="BackgroundImageFix" mode="normal" result="shape"/><feColorMatrix in="SourceAlpha" result="hardAlpha" type="matrix" values="0 0 0 0 0 0 0 0 0 0 0 0 0 0 0 0 0 0 127 0"/><feOffset dx="-.5" dy="-.4"/><feGaussianBlur stdDeviation=".375"/><feComposite in2="hardAlpha" k2="-1" k3="1" operator="arithmetic"/><feColorMatrix type="matrix" values="0 0 0 0 0.780392 0 0 0 0 0.694118 0 0 0 0 0.776471 0 0 0 1 0"/><feBlend in2="shape" mode="normal" result="effect1_innerShadow_3987_22274"/></filter><filter id="h" color-interpolation-filters="sRGB" filterUnits="userSpaceOnUse" height="6.62656" width="4.36875" x="7.47109" y="23.3354"><feFlood flood-opacity="0" result="BackgroundImageFix"/><feBlend in="SourceGraphic" in2="BackgroundImageFix" mode="normal" result="shape"/><feColorMatrix in="SourceAlpha" result="hardAlpha" type="matrix" values="0 0 0 0 0 0 0 0 0 0 0 0 0 0 0 0 0 0 127 0"/><feOffset dx="-.4" dy="-.4"/><feGaussianBlur stdDeviation=".35"/><feComposite in2="hardAlpha" k2="-1" k3="1" operator="arithmetic"/><feColorMatrix type="matrix" values="0 0 0 0 0.67451 0 0 0 0 0.54902 0 0 0 0 0.709804 0 0 0 1 0"/><feBlend in2="shape" mode="normal" result="effect1_innerShadow_3987_22274"/></filter><filter id="i" color-interpolation-filters="sRGB" filterUnits="userSpaceOnUse" height="4.23059" width="4.23058" x="5.12939" y="18.4817"><feFlood flood-opacity="0" result="BackgroundImageFix"/><feBlend in="SourceGraphic" in2="BackgroundImageFix" mode="normal" result="shape"/><feGaussianBlur result="effect1_foregroundBlur_3987_22274" stdDeviation=".125"/></filter><filter id="j" color-interpolation-filters="sRGB" filterUnits="userSpaceOnUse" height="4.34473" width="4.34476" x="22.6201" y="18.4246"><feFlood flood-opacity="0" result="BackgroundImageFix"/><feBlend in="SourceGraphic" in2="BackgroundImageFix" mode="normal" result="shape"/><feGaussianBlur result="effect1_foregroundBlur_3987_22274" stdDeviation=".125"/></filter><filter id="k" color-interpolation-filters="sRGB" filterUnits="userSpaceOnUse" height="24.0129" width="21.9686" x="5.47769" y="5.97864"><feFlood flood-opacity="0" result="BackgroundImageFix"/><feBlend in="SourceGraphic" in2="BackgroundImageFix" mode="normal" result="shape"/><feColorMatrix in="SourceAlpha" result="hardAlpha" type="matrix" values="0 0 0 0 0 0 0 0 0 0 0 0 0 0 0 0 0 0 127 0"/><feOffset dx="1.25"/><feGaussianBlur stdDeviation="1"/><feComposite in2="hardAlpha" k2="-1" k3="1" operator="arithmetic"/><feColorMatrix type="matrix" values="0 0 0 0 0.470588 0 0 0 0 0.333333 0 0 0 0 0.305882 0 0 0 1 0"/><feBlend in2="shape" mode="normal" result="effect1_innerShadow_3987_22274"/><feColorMatrix in="SourceAlpha" result="hardAlpha" type="matrix" values="0 0 0 0 0 0 0 0 0 0 0 0 0 0 0 0 0 0 127 0"/><feOffset dx="-.4"/><feGaussianBlur stdDeviation=".6"/><feComposite in2="hardAlpha" k2="-1" k3="1" operator="arithmetic"/><feColorMatrix type="matrix" values="0 0 0 0 0.623529 0 0 0 0 0.490196 0 0 0 0 0.443137 0 0 0 1 0"/><feBlend in2="effect1_innerShadow_3987_22274" mode="normal" result="effect2_innerShadow_3987_22274"/></filter><filter id="l" color-interpolation-filters="sRGB" filterUnits="userSpaceOnUse" height="2.21655" width="6.46501" x="12.7861" y="23.7734"><feFlood flood-opacity="0" result="BackgroundImageFix"/><feBlend in="SourceGraphic" in2="BackgroundImageFix" mode="normal" result="shape"/><feColorMatrix in="SourceAlpha" result="hardAlpha" type="matrix" values="0 0 0 0 0 0 0 0 0 0 0 0 0 0 0 0 0 0 127 0"/><feOffset/><feGaussianBlur stdDeviation=".5"/><feComposite in2="hardAlpha" k2="-1" k3="1" operator="arithmetic"/><feColorMatrix type="matrix" values="0 0 0 0 0.529412 0 0 0 0 0 0 0 0 0 0.301961 0 0 0 1 0"/><feBlend in2="shape" mode="normal" result="effect1_innerShadow_3987_22274"/></filter><filter id="m" color-interpolation-filters="sRGB" filterUnits="userSpaceOnUse" height="1.56953" width="3.5314" x="9.49669" y="15.2149"><feFlood flood-opacity="0" result="BackgroundImageFix"/><feBlend in="SourceGraphic" in2="BackgroundImageFix" mode="normal" result="shape"/><feColorMatrix in="SourceAlpha" result="hardAlpha" type="matrix" values="0 0 0 0 0 0 0 0 0 0 0 0 0 0 0 0 0 0 127 0"/><feOffset dx=".25" dy="-.3"/><feGaussianBlur stdDeviation=".25"/><feComposite in2="hardAlpha" k2="-1" k3="1" operator="arithmetic"/><feColorMatrix type="matrix" values="0 0 0 0 0.168627 0 0 0 0 0.0823529 0 0 0 0 0.141176 0 0 0 1 0"/><feBlend in2="shape" mode="normal" result="effect1_innerShadow_3987_22274"/></filter><filter id="n" color-interpolation-filters="sRGB" filterUnits="userSpaceOnUse" height=".969458" width="2.98127" x="9.69732" y="15.5782"><feFlood flood-opacity="0" result="BackgroundImageFix"/><feBlend in="SourceGraphic" in2="BackgroundImageFix" mode="normal" result="shape"/><feGaussianBlur result="effect1_foregroundBlur_3987_22274" stdDeviation=".1"/></filter><filter id="o" color-interpolation-filters="sRGB" filterUnits="userSpaceOnUse" height="1.56953" width="3.53139" x="18.5752" y="15.2149"><feFlood flood-opacity="0" result="BackgroundImageFix"/><feBlend in="SourceGraphic" in2="BackgroundImageFix" mode="normal" result="shape"/><feColorMatrix in="SourceAlpha" result="hardAlpha" type="matrix" values="0 0 0 0 0 0 0 0 0 0 0 0 0 0 0 0 0 0 127 0"/><feOffset dx="-.25" dy="-.3"/><feGaussianBlur stdDeviation=".25"/><feComposite in2="hardAlpha" k2="-1" k3="1" operator="arithmetic"/><feColorMatrix type="matrix" values="0 0 0 0 0.164706 0 0 0 0 0.0784314 0 0 0 0 0.145098 0 0 0 1 0"/><feBlend in2="shape" mode="normal" result="effect1_innerShadow_3987_22274"/></filter><filter id="p" color-interpolation-filters="sRGB" filterUnits="userSpaceOnUse" height=".969458" width="2.98127" x="18.9752" y="15.5301"><feFlood flood-opacity="0" result="BackgroundImageFix"/><feBlend in="SourceGraphic" in2="BackgroundImageFix" mode="normal" result="shape"/><feGaussianBlur result="effect1_foregroundBlur_3987_22274" stdDeviation=".1"/></filter><filter id="q" color-interpolation-filters="sRGB" filterUnits="userSpaceOnUse" height="8.12805" width="7.35115" x="12.3128" y="4.52478"><feFlood flood-opacity="0" result="BackgroundImageFix"/><feBlend in="SourceGraphic" in2="BackgroundImageFix" mode="normal" result="shape"/><feGaussianBlur result="effect1_foregroundBlur_3987_22274" stdDeviation=".25"/></filter><filter id="r" color-interpolation-filters="sRGB" filterUnits="userSpaceOnUse" height="7.89263" width="7.48861" x="12.1305" y="4.00361"><feFlood flood-opacity="0" result="BackgroundImageFix"/><feBlend in="SourceGraphic" in2="BackgroundImageFix" mode="normal" result="shape"/><feColorMatrix in="SourceAlpha" result="hardAlpha" type="matrix" values="0 0 0 0 0 0 0 0 0 0 0 0 0 0 0 0 0 0 127 0"/><feOffset dx="-.1" dy="-.2"/><feGaussianBlur stdDeviation=".25"/><feComposite in2="hardAlpha" k2="-1" k3="1" operator="arithmetic"/><feColorMatrix type="matrix" values="0 0 0 0 0.0705882 0 0 0 0 0.0313726 0 0 0 0 0.0627451 0 0 0 1 0"/><feBlend in2="shape" mode="normal" result="effect1_innerShadow_3987_22274"/></filter><filter id="s" color-interpolation-filters="sRGB" filterUnits="userSpaceOnUse" height="2.48059" width="3.43675" x="14.1772" y="21.618"><feFlood flood-opacity="0" result="BackgroundImageFix"/><feBlend in="SourceGraphic" in2="BackgroundImageFix" mode="normal" result="shape"/><feGaussianBlur result="effect1_foregroundBlur_3987_22274" stdDeviation=".25"/></filter><filter id="t" color-interpolation-filters="sRGB" filterUnits="userSpaceOnUse" height="1.98059" width="2.93675" x="14.55" y="21.5448"><feFlood flood-opacity="0" result="BackgroundImageFix"/><feBlend in="SourceGraphic" in2="BackgroundImageFix" mode="normal" result="shape"/><feGaussianBlur result="effect1_foregroundBlur_3987_22274" stdDeviation=".125"/></filter><filter id="u" color-interpolation-filters="sRGB" filterUnits="userSpaceOnUse" height="1.32988" width="1.53604" x="18.349" y="18.9441"><feFlood flood-opacity="0" result="BackgroundImageFix"/><feBlend in="SourceGraphic" in2="BackgroundImageFix" mode="normal" result="shape"/><feGaussianBlur result="effect1_foregroundBlur_3987_22274" stdDeviation=".05"/></filter><filter id="v" color-interpolation-filters="sRGB" filterUnits="userSpaceOnUse" height="1.56895" width="1.51839" x="20.3891" y="19.2426"><feFlood flood-opacity="0" result="BackgroundImageFix"/><feBlend in="SourceGraphic" in2="BackgroundImageFix" mode="normal" result="shape"/><feGaussianBlur result="effect1_foregroundBlur_3987_22274" stdDeviation=".1"/></filter><filter id="w" color-interpolation-filters="sRGB" filterUnits="userSpaceOnUse" height="1.85752" width="1.73485" x="11.9255" y="19.0983"><feFlood flood-opacity="0" result="BackgroundImageFix"/><feBlend in="SourceGraphic" in2="BackgroundImageFix" mode="normal" result="shape"/><feGaussianBlur result="effect1_foregroundBlur_3987_22274" stdDeviation=".1"/></filter><filter id="x" color-interpolation-filters="sRGB" filterUnits="userSpaceOnUse" height="1.34856" width="1.8234" x="10.0791" y="18.9255"><feFlood flood-opacity="0" result="BackgroundImageFix"/><feBlend in="SourceGraphic" in2="BackgroundImageFix" mode="normal" result="shape"/><feGaussianBlur result="effect1_foregroundBlur_3987_22274" stdDeviation=".05"/></filter><filter id="y" color-interpolation-filters="sRGB" filterUnits="userSpaceOnUse" height="11.8053" width="12.9276" x="14.379" y="6.11938"><feFlood flood-opacity="0" result="BackgroundImageFix"/><feBlend in="SourceGraphic" in2="BackgroundImageFix" mode="normal" result="shape"/><feGaussianBlur result="effect1_foregroundBlur_3987_22274" stdDeviation="1.25"/></filter><radialGradient id="z" cx="0" cy="0" gradientTransform="matrix(-.75002846 3.68749594 -9.72121139 -1.97727275 20.9365 3.29003)" gradientUnits="userSpaceOnUse" r="1"><stop offset="0" stop-color="#4de2ff"/><stop offset="1" stop-color="#33aed4"/></radialGradient><radialGradient id="A" cx="0" cy="0" gradientTransform="matrix(2.81249936 -4.40624958 8.96894554 5.72485808 8.56152 7.32128)" gradientUnits="userSpaceOnUse" r="1"><stop offset="0" stop-color="#3d8db9"/><stop offset="1" stop-color="#3d8db9" stop-opacity="0"/></radialGradient><radialGradient id="B" cx="0" cy="0" gradientTransform="matrix(1.34374941 1.46874913 -1.11568713 1.02073519 9.82715 6.88378)" gradientUnits="userSpaceOnUse" r="1"><stop offset=".157705" stop-color="#5bbfd1"/><stop offset="1" stop-color="#5bbfd1" stop-opacity="0"/></radialGradient><radialGradient id="C" cx="0" cy="0" gradientTransform="matrix(-1.03124805 -.98438071 .58815582 -.61615851 10.3271 7.33691)" gradientUnits="userSpaceOnUse" r="1"><stop offset="0" stop-color="#47c2d5"/><stop offset="1" stop-color="#47c2d5" stop-opacity="0"/></radialGradient><radialGradient id="D" cx="0" cy="0" gradientTransform="matrix(-2.68749732 1.85938508 -1.34212871 -1.93987106 23.2646 7.68066)" gradientUnits="userSpaceOnUse" r="1"><stop offset=".210308" stop-color="#4997c1"/><stop offset="1" stop-color="#4997c1" stop-opacity="0"/></radialGradient><radialGradient id="E" cx="0" cy="0" gradientTransform="matrix(-1.18749475 .84375264 -.60903356 -.85715188 22.5928 6.57128)" gradientUnits="userSpaceOnUse" r="1"><stop offset=".210308" stop-color="#439fb2"/><stop offset="1" stop-color="#439fb2" stop-opacity="0"/></radialGradient><radialGradient id="F" cx="0" cy="0" gradientTransform="matrix(-1.93751994 -7.27100943 18.54198089 -4.94091749 11.7178 9.74854)" gradientUnits="userSpaceOnUse" r="1"><stop offset=".878807" stop-color="#43acc0" stop-opacity="0"/><stop offset="1" stop-color="#43acc0"/></radialGradient><linearGradient id="G" gradientUnits="userSpaceOnUse" x1="24.5847" x2="24.5847" y1="30.1847" y2="28.6896"><stop offset=".0787878" stop-color="#9a84af"/><stop offset="1" stop-color="#c4b7cf" stop-opacity="0"/></linearGradient><linearGradient id="H"><stop offset=".670301" stop-color="#cebfd0" stop-opacity="0"/><stop offset=".890681" stop-color="#a797b5"/></linearGradient><radialGradient id="I" cx="0" cy="0" gradientTransform="matrix(.60719628 2.64773902 -4.70571727 1.07914488 25.39 27.5348)" gradientUnits="userSpaceOnUse" r="1" xlink:href="#H"/><linearGradient id="J"><stop offset=".200681" stop-color="#fff"/><stop offset="1" stop-color="#f7f1f1" stop-opacity="0"/></linearGradient><radialGradient id="K" cx="0" cy="0" gradientTransform="matrix(-.52433912 .60867586 -.33593285 -.28938676 26.8555 28.037)" gradientUnits="userSpaceOnUse" r="1" xlink:href="#J"/><linearGradient id="L" gradientUnits="userSpaceOnUse" x1="24.4365" x2="24.4365" y1="27.9229" y2="28.3213"><stop offset="0" stop-color="#cfcacf"/><stop offset="1" stop-color="#feeeec" stop-opacity="0"/></linearGradient><linearGradient id="M" gradientUnits="userSpaceOnUse" x1="25.5184" x2="25.5184" y1="27.9229" y2="26.876"><stop offset=".216418" stop-color="#c6bec8"/><stop offset="1" stop-color="#d4c7cd" stop-opacity="0"/></linearGradient><radialGradient id="N" cx="0" cy="0" gradientTransform="matrix(.76906204 2.71874939 -5.80879938 1.64315515 26.5384 25.4307)" gradientUnits="userSpaceOnUse" r="1" xlink:href="#H"/><radialGradient id="O" cx="0" cy="0" gradientTransform="matrix(-.66411649 .62500064 -.34814428 -.36993299 28.3945 25.9463)" gradientUnits="userSpaceOnUse" r="1" xlink:href="#J"/><linearGradient id="P" gradientUnits="userSpaceOnUse" x1="26.4901" x2="26.4901" y1="25.8291" y2="24.7822"><stop offset=".216418" stop-color="#d3c5cf"/><stop offset="1" stop-color="#d4c7cd" stop-opacity="0"/></linearGradient><radialGradient id="Q" cx="0" cy="0" gradientTransform="matrix(.93750002 2.71875099 -6.83491455 2.35686628 27.7334 23.3369)" gradientUnits="userSpaceOnUse" r="1"><stop offset=".699079" stop-color="#cebfd0" stop-opacity="0"/><stop offset=".922246" stop-color="#a89bb4"/></radialGradient><radialGradient id="R" cx="0" cy="0" gradientTransform="matrix(-.80957006 .62500747 -.33742923 -.43707095 29.9961 23.8525)" gradientUnits="userSpaceOnUse" r="1" xlink:href="#J"/><linearGradient id="S" gradientUnits="userSpaceOnUse" x1="0" x2=".958008" y1="5.39844" y2="5.39844"><stop offset="0" stop-color="#f6eff5"/><stop offset="1" stop-color="#f6eff5" stop-opacity="0"/></linearGradient><radialGradient id="T" cx="0" cy="0" gradientTransform="matrix(-.68749521 1.73438026 -1.3745582 -.54486447 8.81152 28.5088)" gradientUnits="userSpaceOnUse" r="1"><stop offset=".30848" stop-color="#af9aba"/><stop offset="1" stop-color="#af9aba" stop-opacity="0"/></radialGradient><radialGradient id="U" cx="0" cy="0" gradientTransform="matrix(.54687379 -2.21093966 5.3992739 1.33550518 6.76465 30.1338)" gradientUnits="userSpaceOnUse" r="1"><stop offset=".512584" stop-color="#e7cbd8" stop-opacity="0"/><stop offset="1" stop-color="#bfa9ad"/></radialGradient><radialGradient id="V" cx="0" cy="0" gradientTransform="matrix(-.81249246 2.25000548 -2.22312442 -.80278553 8.78027 26.2275)" gradientUnits="userSpaceOnUse" r="1"><stop offset=".30848" stop-color="#cfb6bb"/><stop offset="1" stop-color="#cfb6bb" stop-opacity="0"/></radialGradient><radialGradient id="W" cx="0" cy="0" gradientTransform="matrix(.84155055 -2.27023208 6.63898414 2.46099983 5.65747 28.0993)" gradientUnits="userSpaceOnUse" r="1"><stop offset=".624239" stop-color="#d3b6b4" stop-opacity="0"/><stop offset="1" stop-color="#d3b6b4"/></radialGradient><linearGradient id="X"><stop offset=".701251" stop-color="#b0a1bb" stop-opacity="0"/><stop offset=".986238" stop-color="#b0a1bb"/></linearGradient><radialGradient id="Y" cx="0" cy="0" gradientTransform="matrix(-1.08269615 3.18750938 -5.20641271 -1.76845378 5.83174 25.2275)" gradientUnits="userSpaceOnUse" r="1" xlink:href="#X"/><linearGradient id="Z" gradientUnits="userSpaceOnUse" x1="6.46094" x2="6.46094" y1="23.7354" y2="24.6182"><stop offset="0" stop-color="#cab1a7"/><stop offset="1" stop-color="#f2d3d7" stop-opacity="0"/></linearGradient><radialGradient id="aa" cx="0" cy="0" gradientTransform="matrix(-1.21875171 3.46875373 -6.65847913 -2.3394664 4.71777 23.1338)" gradientUnits="userSpaceOnUse" r="1" xlink:href="#X"/><radialGradient id="ab" cx="0" cy="0" gradientTransform="matrix(-1.03125225 1.62499353 -2.64748309 -1.68014386 10.124 27.2588)" gradientUnits="userSpaceOnUse" r="1"><stop offset="0" stop-color="#d7b5ca"/><stop offset="1" stop-color="#dcbdc9"/></radialGradient><linearGradient id="ac" gradientUnits="userSpaceOnUse" x1="7.87109" x2="9.12402" y1="29.1338" y2="29.1338"><stop offset="0" stop-color="#e7d1d9"/><stop offset="1" stop-color="#dac4cc" stop-opacity="0"/></linearGradient><linearGradient id="ad" gradientUnits="userSpaceOnUse" x1="4.7266" x2="6.89122" y1="18.0572" y2="23.5987"><stop offset="0" stop-color="#65423d"/><stop offset="1" stop-color="#653549"/></linearGradient><radialGradient id="ae" cx="0" cy="0" gradientTransform="matrix(-3.0016155 .44736268 -.46519663 -3.1212738 7.24478 20.5971)" gradientUnits="userSpaceOnUse" r="1"><stop offset=".838717" stop-color="#825d58" stop-opacity="0"/><stop offset="1" stop-color="#825d58"/></radialGradient><radialGradient id="af" cx="0" cy="0" gradientTransform="matrix(0 1.86529 -1.86529 0 7.24468 20.597)" gradientUnits="userSpaceOnUse" r="1"><stop offset="0" stop-color="#5a2f2f"/><stop offset="1" stop-color="#5a343a"/></radialGradient><linearGradient id="ag" gradientUnits="userSpaceOnUse" x1="27.4551" x2="25.0699" y1="19.0386" y2="22.906"><stop offset="0" stop-color="#997768"/><stop offset="1" stop-color="#7f5258"/></linearGradient><radialGradient id="ah" cx="0" cy="0" gradientTransform="matrix(-.07215274 4.35811276 -4.17657764 -.06914725 25.1132 19.5004)" gradientUnits="userSpaceOnUse" r="1"><stop offset=".765592" stop-color="#794566" stop-opacity="0"/><stop offset="1" stop-color="#794566"/></radialGradient><radialGradient id="ai" cx="0" cy="0" gradientTransform="matrix(1.7069697 -1.91929767 1.89395163 1.68442764 25.1132 20.2219)" gradientUnits="userSpaceOnUse" r="1"><stop offset=".586383" stop-color="#7a4941"/><stop offset=".883309" stop-color="#7a4941" stop-opacity="0"/></radialGradient><radialGradient id="aj" cx="0" cy="0" gradientTransform="matrix(.75040222 -3.52111694 2.76507523 .58927852 25.2905 21.4197)" gradientUnits="userSpaceOnUse" r="1"><stop offset=".879486" stop-color="#8e6d5e" stop-opacity="0"/><stop offset="1" stop-color="#8e6d5e"/></radialGradient><radialGradient id="ak" cx="0" cy="0" gradientTransform="matrix(1.37092608 .2164621 -.32001349 2.0267513 25.4202 20.7412)" gradientUnits="userSpaceOnUse" r="1"><stop offset=".54973" stop-color="#835e58"/><stop offset="1" stop-color="#7b4941"/></radialGradient><linearGradient id="al" gradientUnits="userSpaceOnUse" x1="16.037" x2="16.037" y1="30.5254" y2="25.7921"><stop offset=".195126" stop-color="#7d4271"/><stop offset="1" stop-color="#7d4271" stop-opacity="0"/></linearGradient><linearGradient id="am" gradientUnits="userSpaceOnUse" x1="7.52596" x2="17.9161" y1="18.9808" y2="21.6361"><stop offset="0" stop-color="#734a4b"/><stop offset="1" stop-color="#734a4b" stop-opacity="0"/></linearGradient><radialGradient id="an" cx="0" cy="0" gradientTransform="matrix(1.26991561 9.23572185 -2.81599454 .38720043 6.19832 20.4239)" gradientUnits="userSpaceOnUse" r="1"><stop offset="0" stop-color="#836059"/><stop offset="1" stop-color="#836059" stop-opacity="0"/></radialGradient><radialGradient id="ao" cx="0" cy="0" gradientTransform="matrix(-1.15445876 -12.00642512 18.83980885 -1.81151193 11.1048 29.9915)" gradientUnits="userSpaceOnUse" r="1"><stop offset=".108925" stop-color="#733f59"/><stop offset="1" stop-color="#733f59" stop-opacity="0"/></radialGradient><linearGradient id="ap" gradientUnits="userSpaceOnUse" x1="13.8612" x2="14.323" y1="25.4313" y2="24.5943"><stop offset="0" stop-color="#845b5f"/><stop offset="1" stop-color="#845b5f" stop-opacity="0"/></linearGradient><linearGradient id="aq"><stop offset=".80198" stop-color="#865f54"/><stop offset="1" stop-color="#694b43"/><stop offset="1" stop-color="#6d4c4a"/></linearGradient><radialGradient id="ar" cx="0" cy="0" gradientTransform="matrix(0 1.84715 -2.93809 0 19.8929 19.8177)" gradientUnits="userSpaceOnUse" r="1" xlink:href="#aq"/><radialGradient id="as" cx="0" cy="0" gradientTransform="matrix(0 1.84715 -2.93809 0 11.6085 19.8177)" gradientUnits="userSpaceOnUse" r="1" xlink:href="#aq"/><linearGradient id="at"><stop offset="0" stop-color="#343434"/><stop offset="1" stop-color="#343434" stop-opacity="0"/></linearGradient><linearGradient id="au" gradientUnits="userSpaceOnUse" x1="12.6922" x2="9.76279" xlink:href="#at" y1="15.8204" y2="16.1977"/><linearGradient id="av" gradientUnits="userSpaceOnUse" x1="21.9701" x2="19.0406" xlink:href="#at" y1="15.7723" y2="16.1496"/><linearGradient id="aw" gradientUnits="userSpaceOnUse" x1="16.3195" x2="15.3602" y1="5.12269" y2="12.044"><stop offset="0" stop-color="#553327"/><stop offset="1" stop-color="#724139"/></linearGradient><radialGradient id="ax" cx="0" cy="0" gradientTransform="matrix(7.22388716 -1.40933738 1.17570395 6.02634458 12.2305 8.24424)" gradientUnits="userSpaceOnUse" r="1"><stop offset=".825502" stop-color="#4c494a" stop-opacity="0"/><stop offset="1" stop-color="#4b4849"/></radialGradient><radialGradient id="ay" cx="0" cy="0" gradientTransform="matrix(5.6569809 -2.48209883 2.39658126 5.4620768 12.2305 8.73489)" gradientUnits="userSpaceOnUse" r="1"><stop offset=".718898" stop-color="#4b4849"/><stop offset=".911623" stop-color="#4c494a" stop-opacity="0"/></radialGradient><radialGradient id="az" cx="0" cy="0" gradientTransform="matrix(-3.3596939 -5.22042511 5.38218195 -3.46379527 16.5986 9.92323)" gradientUnits="userSpaceOnUse" r="1"><stop offset=".825317" stop-color="#3e3431" stop-opacity="0"/><stop offset="1" stop-color="#3e3431"/></radialGradient><radialGradient id="aA" cx="0" cy="0" gradientTransform="matrix(2.82843918 4.50242193 -4.32449721 2.71666617 15.261 6.97433)" gradientUnits="userSpaceOnUse" r="1"><stop offset=".862139" stop-color="#1a1118" stop-opacity="0"/><stop offset=".965829" stop-color="#1a1118"/></radialGradient><radialGradient id="aB" cx="0" cy="0" gradientTransform="matrix(1.7605578 .04329244 -.0223854 .91033881 15.3041 22.3576)" gradientUnits="userSpaceOnUse" r="1"><stop offset=".660502" stop-color="#8e6559"/><stop offset="1" stop-color="#98726a"/></radialGradient><radialGradient id="aC" cx="0" cy="0" gradientTransform="matrix(0 1.3132 -1.65751 0 16.0184 21.7948)" gradientUnits="userSpaceOnUse" r="1"><stop offset=".559454" stop-color="#7c4457" stop-opacity="0"/><stop offset="1" stop-color="#7c4457"/></radialGradient><linearGradient id="aD"><stop offset=".765532" stop-color="#ffe6e2" stop-opacity="0"/><stop offset=".966159" stop-color="#ffe6e2"/></linearGradient><radialGradient id="aE" cx="0" cy="0" gradientTransform="matrix(-.52801056 -.6804128 .93676617 -.72694462 19.3733 20.0093)" gradientUnits="userSpaceOnUse" r="1" xlink:href="#aD"/><linearGradient id="aF"><stop offset="0" stop-color="#b4948d"/><stop offset="1" stop-color="#b4948d" stop-opacity="0"/></linearGradient><linearGradient id="aG" gradientUnits="userSpaceOnUse" x1="21.6642" x2="20.9499" xlink:href="#aF" y1="19.9405" y2="20.3806"/><linearGradient id="aH" gradientUnits="userSpaceOnUse" x1="13.3021" x2="12.5878" xlink:href="#aF" y1="19.9405" y2="20.3807"/><radialGradient id="aI" cx="0" cy="0" gradientTransform="matrix(-.01761136 -1.12483214 1.35209429 -.02116958 10.9564 20.3168)" gradientUnits="userSpaceOnUse" r="1" xlink:href="#aD"/><linearGradient id="aJ" gradientUnits="userSpaceOnUse" x1="17.5623" x2="26.517" y1="15.7194" y2="10.3222"><stop offset="0" stop-color="#b08579"/><stop offset="1" stop-color="#b08579" stop-opacity="0"/></linearGradient><g filter="url(#a)"><path d="m15.9715 3.50854c2.16 0 4.26.37 5.75 1.01 1.25.54 1.72 1.12 1.72 1.36s-.47.82-1.72 1.36c-1.49.64-3.58 1.01-5.75 1.01s-4.26-.36-5.74-1c-1.26003-.54-1.72003-1.13-1.72003-1.37s.47-.82 1.72003-1.36c1.48-.64 3.58-1.01 5.74-1.01zm0-1.5c-4.95 0-8.96003 1.73-8.96003 3.87s4.01003 3.87 8.97003 3.87 8.97-1.73 8.97-3.87-4.02-3.87-8.98-3.87z" fill="url(#z)"/><path d="m15.9715 3.50854c2.16 0 4.26.37 5.75 1.01 1.25.54 1.72 1.12 1.72 1.36s-.47.82-1.72 1.36c-1.49.64-3.58 1.01-5.75 1.01s-4.26-.36-5.74-1c-1.26003-.54-1.72003-1.13-1.72003-1.37s.47-.82 1.72003-1.36c1.48-.64 3.58-1.01 5.74-1.01zm0-1.5c-4.95 0-8.96003 1.73-8.96003 3.87s4.01003 3.87 8.97003 3.87 8.97-1.73 8.97-3.87-4.02-3.87-8.98-3.87z" fill="url(#A)"/><path d="m15.9715 3.50854c2.16 0 4.26.37 5.75 1.01 1.25.54 1.72 1.12 1.72 1.36s-.47.82-1.72 1.36c-1.49.64-3.58 1.01-5.75 1.01s-4.26-.36-5.74-1c-1.26003-.54-1.72003-1.13-1.72003-1.37s.47-.82 1.72003-1.36c1.48-.64 3.58-1.01 5.74-1.01zm0-1.5c-4.95 0-8.96003 1.73-8.96003 3.87s4.01003 3.87 8.97003 3.87 8.97-1.73 8.97-3.87-4.02-3.87-8.98-3.87z" fill="url(#B)"/><path d="m15.9715 3.50854c2.16 0 4.26.37 5.75 1.01 1.25.54 1.72 1.12 1.72 1.36s-.47.82-1.72 1.36c-1.49.64-3.58 1.01-5.75 1.01s-4.26-.36-5.74-1c-1.26003-.54-1.72003-1.13-1.72003-1.37s.47-.82 1.72003-1.36c1.48-.64 3.58-1.01 5.74-1.01zm0-1.5c-4.95 0-8.96003 1.73-8.96003 3.87s4.01003 3.87 8.97003 3.87 8.97-1.73 8.97-3.87-4.02-3.87-8.98-3.87z" fill="url(#C)"/><path d="m15.9715 3.50854c2.16 0 4.26.37 5.75 1.01 1.25.54 1.72 1.12 1.72 1.36s-.47.82-1.72 1.36c-1.49.64-3.58 1.01-5.75 1.01s-4.26-.36-5.74-1c-1.26003-.54-1.72003-1.13-1.72003-1.37s.47-.82 1.72003-1.36c1.48-.64 3.58-1.01 5.74-1.01zm0-1.5c-4.95 0-8.96003 1.73-8.96003 3.87s4.01003 3.87 8.97003 3.87 8.97-1.73 8.97-3.87-4.02-3.87-8.98-3.87z" fill="url(#D)"/><path d="m15.9715 3.50854c2.16 0 4.26.37 5.75 1.01 1.25.54 1.72 1.12 1.72 1.36s-.47.82-1.72 1.36c-1.49.64-3.58 1.01-5.75 1.01s-4.26-.36-5.74-1c-1.26003-.54-1.72003-1.13-1.72003-1.37s.47-.82 1.72003-1.36c1.48-.64 3.58-1.01 5.74-1.01zm0-1.5c-4.95 0-8.96003 1.73-8.96003 3.87s4.01003 3.87 8.97003 3.87 8.97-1.73 8.97-3.87-4.02-3.87-8.98-3.87z" fill="url(#E)"/></g><path d="m15.9715 3.50854c2.16 0 4.26.37 5.75 1.01 1.25.54 1.72 1.12 1.72 1.36s-.47.82-1.72 1.36c-1.49.64-3.58 1.01-5.75 1.01s-4.26-.36-5.74-1c-1.26003-.54-1.72003-1.13-1.72003-1.37s.47-.82 1.72003-1.36c1.48-.64 3.58-1.01 5.74-1.01zm0-1.5c-4.95 0-8.96003 1.73-8.96003 3.87s4.01003 3.87 8.97003 3.87 8.97-1.73 8.97-3.87-4.02-3.87-8.98-3.87z" fill="url(#F)"/><path d="m26.8555 28.4083c0-.2681-.2174-.4854-.4855-.4854h-5.288v2.039h4.2199c.858 0 1.5536-.6955 1.5536-1.5536z" fill="#fdedeb"/><path d="m26.8555 28.4083c0-.2681-.2174-.4854-.4855-.4854h-5.288v2.039h4.2199c.858 0 1.5536-.6955 1.5536-1.5536z" fill="url(#G)"/><path d="m26.8555 28.4083c0-.2681-.2174-.4854-.4855-.4854h-5.288v2.039h4.2199c.858 0 1.5536-.6955 1.5536-1.5536z" fill="url(#I)"/><path d="m26.8555 28.4083c0-.2681-.2174-.4854-.4855-.4854h-5.288v2.039h4.2199c.858 0 1.5536-.6955 1.5536-1.5536z" fill="url(#K)"/><path d="m26.8555 28.4083c0-.2681-.2174-.4854-.4855-.4854h-5.288v2.039h4.2199c.858 0 1.5536-.6955 1.5536-1.5536z" fill="url(#L)"/><g filter="url(#b)"><path d="m28.3945 26.3276c0-.2753-.2232-.4985-.4985-.4985h-6.814v2.0938h5.7173c.881 0 1.5952-.7143 1.5952-1.5953z" fill="#fdedeb"/><path d="m28.3945 26.3276c0-.2753-.2232-.4985-.4985-.4985h-6.814v2.0938h5.7173c.881 0 1.5952-.7143 1.5952-1.5953z" fill="url(#M)"/><path d="m28.3945 26.3276c0-.2753-.2232-.4985-.4985-.4985h-6.814v2.0938h5.7173c.881 0 1.5952-.7143 1.5952-1.5953z" fill="url(#N)"/><path d="m28.3945 26.3276c0-.2753-.2232-.4985-.4985-.4985h-6.814v2.0938h5.7173c.881 0 1.5952-.7143 1.5952-1.5953z" fill="url(#O)"/></g><g filter="url(#c)"><path d="m29.9961 24.2339c0-.2754-.2232-.4985-.4985-.4985h-8.4156v2.0937h7.3189c.881 0 1.5952-.7142 1.5952-1.5952z" fill="#fdedeb"/><path d="m29.9961 24.2339c0-.2754-.2232-.4985-.4985-.4985h-8.4156v2.0937h7.3189c.881 0 1.5952-.7142 1.5952-1.5952z" fill="url(#P)"/><path d="m29.9961 24.2339c0-.2754-.2232-.4985-.4985-.4985h-8.4156v2.0937h7.3189c.881 0 1.5952-.7142 1.5952-1.5952z" fill="url(#Q)"/><path d="m29.9961 24.2339c0-.2754-.2232-.4985-.4985-.4985h-8.4156v2.0937h7.3189c.881 0 1.5952-.7142 1.5952-1.5952z" fill="url(#R)"/></g><g filter="url(#d)"><rect fill="#f7e1ed" height="6.22656" rx="1" transform="matrix(-1 0 0 1 24.1289 23.7354)" width="3.96875"/><rect fill="url(#S)" height="6.22656" rx="1" transform="matrix(-1 0 0 1 24.1289 23.7354)" width="3.96875"/></g><g filter="url(#e)"><path d="m5.14453 28.4083c0-.2681.21736-.4854.48549-.4854h5.28798v2.039h-4.2199c-.85801 0-1.55357-.6955-1.55357-1.5536z" fill="#e7cbd7"/><path d="m5.14453 28.4083c0-.2681.21736-.4854.48549-.4854h5.28798v2.039h-4.2199c-.85801 0-1.55357-.6955-1.55357-1.5536z" fill="url(#T)"/><path d="m5.14453 28.4083c0-.2681.21736-.4854.48549-.4854h5.28798v2.039h-4.2199c-.85801 0-1.55357-.6955-1.55357-1.5536z" fill="url(#U)"/></g><g filter="url(#f)"><path d="m3.60547 26.3276c0-.2753.22319-.4985.49851-.4985h6.81402v2.0938h-5.71729c-.88103 0-1.59524-.7143-1.59524-1.5953z" fill="#e7cbd7"/><path d="m3.60547 26.3276c0-.2753.22319-.4985.49851-.4985h6.81402v2.0938h-5.71729c-.88103 0-1.59524-.7143-1.59524-1.5953z" fill="url(#V)"/><path d="m3.60547 26.3276c0-.2753.22319-.4985.49851-.4985h6.81402v2.0938h-5.71729c-.88103 0-1.59524-.7143-1.59524-1.5953z" fill="url(#W)"/></g><path d="m3.60547 26.3276c0-.2753.22319-.4985.49851-.4985h6.81402v2.0938h-5.71729c-.88103 0-1.59524-.7143-1.59524-1.5953z" fill="url(#Y)"/><g filter="url(#g)"><path d="m2.00391 24.2339c0-.2754.22319-.4985.49851-.4985h8.41558v2.0937h-7.31886c-.88102 0-1.59523-.7142-1.59523-1.5952z" fill="#e7cbd7"/><path d="m2.00391 24.2339c0-.2754.22319-.4985.49851-.4985h8.41558v2.0937h-7.31886c-.88102 0-1.59523-.7142-1.59523-1.5952z" fill="#f1d2d6"/><path d="m2.00391 24.2339c0-.2754.22319-.4985.49851-.4985h8.41558v2.0937h-7.31886c-.88102 0-1.59523-.7142-1.59523-1.5952z" fill="url(#Z)"/></g><path d="m2.00391 24.2339c0-.2754.22319-.4985.49851-.4985h8.41558v2.0937h-7.31886c-.88102 0-1.59523-.7142-1.59523-1.5952z" fill="url(#aa)"/><g filter="url(#h)"><rect fill="url(#ab)" height="6.22656" rx="1" width="3.96875" x="7.87109" y="23.7354"/><rect fill="url(#ac)" height="6.22656" rx="1" width="3.96875" x="7.87109" y="23.7354"/></g><path d="m7.24478 23.5987c1.65774 0 3.00162-1.3439 3.00162-3.0016 0-1.6578-1.34388-3.0016-3.00162-3.0016-1.65775 0-3.00162 1.3438-3.00162 3.0016 0 1.6577 1.34387 3.0016 3.00162 3.0016z" fill="url(#ad)"/><path d="m7.24478 23.5987c1.65774 0 3.00162-1.3439 3.00162-3.0016 0-1.6578-1.34388-3.0016-3.00162-3.0016-1.65775 0-3.00162 1.3438-3.00162 3.0016 0 1.6577 1.34387 3.0016 3.00162 3.0016z" fill="url(#ae)"/><g filter="url(#i)"><path d="m7.24468 22.4623c1.03018 0 1.86529-.8351 1.86529-1.8653s-.83511-1.8653-1.86529-1.8653c-1.03017 0-1.86529.8351-1.86529 1.8653s.83512 1.8653 1.86529 1.8653z" fill="url(#af)"/></g><path d="m24.7926 23.5987c1.6578 0 3.0016-1.3439 3.0016-3.0016 0-1.6578-1.3438-3.0016-3.0016-3.0016-1.6577 0-3.0016 1.3438-3.0016 3.0016 0 1.6577 1.3439 3.0016 3.0016 3.0016z" fill="url(#ag)"/><path d="m24.7926 23.5987c1.6578 0 3.0016-1.3439 3.0016-3.0016 0-1.6578-1.3438-3.0016-3.0016-3.0016-1.6577 0-3.0016 1.3438-3.0016 3.0016 0 1.6577 1.3439 3.0016 3.0016 3.0016z" fill="url(#ah)"/><path d="m24.7926 23.5987c1.6578 0 3.0016-1.3439 3.0016-3.0016 0-1.6578-1.3438-3.0016-3.0016-3.0016-1.6577 0-3.0016 1.3438-3.0016 3.0016 0 1.6577 1.3439 3.0016 3.0016 3.0016z" fill="url(#ai)"/><path d="m24.7926 23.5987c1.6578 0 3.0016-1.3439 3.0016-3.0016 0-1.6578-1.3438-3.0016-3.0016-3.0016-1.6577 0-3.0016 1.3438-3.0016 3.0016 0 1.6577 1.3439 3.0016 3.0016 3.0016z" fill="url(#aj)"/><g filter="url(#j)"><path d="m24.7925 22.5193c1.0617 0 1.9224-.8607 1.9224-1.9224s-.8607-1.9223-1.9224-1.9223-1.9224.8606-1.9224 1.9223.8607 1.9224 1.9224 1.9224z" fill="url(#ak)"/></g><g filter="url(#k)"><path d="m22.6951 7.63199c-1.4324-1.07145-3.1476-1.65335-4.9005-1.65335h-3.5152c-1.7529 0-3.4681.5819-4.90057 1.65335-2.44085 1.83809-3.76023 4.89541-3.45865 8.02661l.82932 7.4909c.2733 2.9003 2.19582 5.3388 4.8629 6.1701 2.8837.8959 5.9654.8959 8.8492 0 2.667-.8313 4.5896-3.2698 4.8629-6.1701l.8293-7.4909c.3016-3.1312-1.0178-6.18852-3.4587-8.02661z" fill="#9a6b5e"/><path d="m22.6951 7.63199c-1.4324-1.07145-3.1476-1.65335-4.9005-1.65335h-3.5152c-1.7529 0-3.4681.5819-4.90057 1.65335-2.44085 1.83809-3.76023 4.89541-3.45865 8.02661l.82932 7.4909c.2733 2.9003 2.19582 5.3388 4.8629 6.1701 2.8837.8959 5.9654.8959 8.8492 0 2.667-.8313 4.5896-3.2698 4.8629-6.1701l.8293-7.4909c.3016-3.1312-1.0178-6.18852-3.4587-8.02661z" fill="url(#al)"/><path d="m22.6951 7.63199c-1.4324-1.07145-3.1476-1.65335-4.9005-1.65335h-3.5152c-1.7529 0-3.4681.5819-4.90057 1.65335-2.44085 1.83809-3.76023 4.89541-3.45865 8.02661l.82932 7.4909c.2733 2.9003 2.19582 5.3388 4.8629 6.1701 2.8837.8959 5.9654.8959 8.8492 0 2.667-.8313 4.5896-3.2698 4.8629-6.1701l.8293-7.4909c.3016-3.1312-1.0178-6.18852-3.4587-8.02661z" fill="url(#am)"/><path d="m22.6951 7.63199c-1.4324-1.07145-3.1476-1.65335-4.9005-1.65335h-3.5152c-1.7529 0-3.4681.5819-4.90057 1.65335-2.44085 1.83809-3.76023 4.89541-3.45865 8.02661l.82932 7.4909c.2733 2.9003 2.19582 5.3388 4.8629 6.1701 2.8837.8959 5.9654.8959 8.8492 0 2.667-.8313 4.5896-3.2698 4.8629-6.1701l.8293-7.4909c.3016-3.1312-1.0178-6.18852-3.4587-8.02661z" fill="url(#an)"/><path d="m22.6951 7.63199c-1.4324-1.07145-3.1476-1.65335-4.9005-1.65335h-3.5152c-1.7529 0-3.4681.5819-4.90057 1.65335-2.44085 1.83809-3.76023 4.89541-3.45865 8.02661l.82932 7.4909c.2733 2.9003 2.19582 5.3388 4.8629 6.1701 2.8837.8959 5.9654.8959 8.8492 0 2.667-.8313 4.5896-3.2698 4.8629-6.1701l.8293-7.4909c.3016-3.1312-1.0178-6.18852-3.4587-8.02661z" fill="url(#ao)"/></g><g filter="url(#l)"><path d="m16.0112 24.4882c-1.0207 0-1.9771-.2503-2.7771-.6767-.2759-.1484-.5701.1668-.3954.4357.6713 1.0475 1.8483 1.7428 3.1817 1.7428s2.5013-.6953 3.1818-1.7428c.1655-.2596-.1196-.5748-.3954-.4357-.8185.4264-1.7748.6767-2.7956.6767z" fill="#88014e"/></g><path d="m13.2695 23.7453c-.3446-.1851-.7105.2092-.4937.5427l.0629-.0408z" stroke="url(#ap)" stroke-width=".15"/><path d="m20.3687 18.113c1.487 0 2.743 1.0252 3.0847 2.4106.1016.3971-.2031.7758-.6095.7758h-5.0797c-.3232 0-.5818-.2956-.5172-.6188.2863-1.4593 1.5701-2.5676 3.1217-2.5676z" fill="#fff"/><path d="m11.1327 18.113c-1.48691 0-2.74297 1.0252-3.08469 2.4106-.10159.3971.20319.7758.60956.7758h5.07963c.3233 0 .5819-.2956.5172-.6188-.2863-1.4593-1.5793-2.5676-3.1217-2.5676z" fill="#fff"/><path d="m19.8975 18.7317c1.1268 0 2.0319.9143 2.0319 2.0318 0 .1848-.0277.3695-.0739.5357h-3.9252c-.0461-.1755-.0739-.3509-.0739-.5357 0-1.1175.9144-2.0318 2.0411-2.0318z" fill="url(#ar)"/><path d="m11.6039 18.7317c-1.1268 0-2.03188.9143-2.03188 2.0318 0 .1848.02771.3695.07389.5357h3.92519c.0462-.1755.0739-.3509.0739-.5357-.0093-1.1175-.9144-2.0318-2.0411-2.0318z" fill="url(#as)"/><path d="m18.7339 20.7636c0-.6465.5172-1.1637 1.1637-1.1637s1.1637.5172 1.1637 1.1637c0 .1939-.0462.3786-.1293.5356h-2.0596c-.0923-.157-.1385-.3417-.1385-.5356z" fill="#000"/><path d="m12.7676 20.7636c0-.6465-.5172-1.1637-1.1637-1.1637s-1.1637.5172-1.1637 1.1637c0 .1939.0462.3786.1293.5356h2.0596c.0831-.157.1385-.3417.1385-.5356z" fill="#000"/><g filter="url(#m)"><path d="m9.99683 16.2843c.54487-.1939 1.30227-.3325 2.28127-.2401" stroke="#2d1e1d" stroke-linecap="round" stroke-linejoin="round" stroke-miterlimit="10"/></g><g filter="url(#n)"><path d="m10.0474 16.1977c.5449-.194 1.3022-.3325 2.2812-.2402" stroke="url(#au)" stroke-linecap="round" stroke-linejoin="round" stroke-miterlimit="10" stroke-width=".3"/></g><g filter="url(#o)"><path d="m21.6064 16.2843c-.5449-.1939-1.3022-.3325-2.2812-.2401" stroke="#332422" stroke-linecap="round" stroke-linejoin="round" stroke-miterlimit="10"/></g><g filter="url(#p)"><path d="m21.6064 16.1496c-.5449-.194-1.3022-.3325-2.2812-.2402" stroke="url(#av)" stroke-linecap="round" stroke-linejoin="round" stroke-miterlimit="10" stroke-width=".3"/></g><g filter="url(#q)"><path d="m16.1289 5.09671c-1.3604-.2055-2.5468-.00253-3.3161 1.02572 1.8421 0 4.1222 1.54458 3.9948 3.54855-.1027.68022-.4372 1.26062-.9183 1.67662-.0863.0728-.1429.175-.1578.283-.0426.3075.2254.5733.5301.5139 1.4616-.2801 2.6502-1.462 2.8667-3.02421.2755-1.92666-1.075-3.73146-2.9994-4.02358z" fill="url(#aw)"/></g><g filter="url(#r)"><path d="m15.74 4.20392c-1.5146-.01848-2.8261.81274-3.5095 2.05033.5726-.1293 1.1544-.20319 1.7363-.20319h.1385c1.6717 0 3.0755 1.36689 3.0663 3.03855-.0093.75733-.2863 1.44079-.7481 1.96719-.0831.0924-.1293.2124-.1293.3325 0 .3417.3325.5911.6557.4803 1.5516-.5265 2.6691-1.99495 2.6691-3.73127.0093-2.14268-1.7363-3.90671-3.879-3.93441z" fill="#211b1d"/><path d="m15.74 4.20392c-1.5146-.01848-2.8261.81274-3.5095 2.05033.5726-.1293 1.1544-.20319 1.7363-.20319h.1385c1.6717 0 3.0755 1.36689 3.0663 3.03855-.0093.75733-.2863 1.44079-.7481 1.96719-.0831.0924-.1293.2124-.1293.3325 0 .3417.3325.5911.6557.4803 1.5516-.5265 2.6691-1.99495 2.6691-3.73127.0093-2.14268-1.7363-3.90671-3.879-3.93441z" fill="url(#ax)"/><path d="m15.74 4.20392c-1.5146-.01848-2.8261.81274-3.5095 2.05033.5726-.1293 1.1544-.20319 1.7363-.20319h.1385c1.6717 0 3.0755 1.36689 3.0663 3.03855-.0093.75733-.2863 1.44079-.7481 1.96719-.0831.0924-.1293.2124-.1293.3325 0 .3417.3325.5911.6557.4803 1.5516-.5265 2.6691-1.99495 2.6691-3.73127.0093-2.14268-1.7363-3.90671-3.879-3.93441z" fill="url(#ay)"/><path d="m15.74 4.20392c-1.5146-.01848-2.8261.81274-3.5095 2.05033.5726-.1293 1.1544-.20319 1.7363-.20319h.1385c1.6717 0 3.0755 1.36689 3.0663 3.03855-.0093.75733-.2863 1.44079-.7481 1.96719-.0831.0924-.1293.2124-.1293.3325 0 .3417.3325.5911.6557.4803 1.5516-.5265 2.6691-1.99495 2.6691-3.73127.0093-2.14268-1.7363-3.90671-3.879-3.93441z" fill="url(#az)"/><path d="m15.74 4.20392c-1.5146-.01848-2.8261.81274-3.5095 2.05033.5726-.1293 1.1544-.20319 1.7363-.20319h.1385c1.6717 0 3.0755 1.36689 3.0663 3.03855-.0093.75733-.2863 1.44079-.7481 1.96719-.0831.0924-.1293.2124-.1293.3325 0 .3417.3325.5911.6557.4803 1.5516-.5265 2.6691-1.99495 2.6691-3.73127.0093-2.14268-1.7363-3.90671-3.879-3.93441z" fill="url(#aA)"/></g><g filter="url(#s)"><path d="m15.8978 23.5986c.4703 0 .8906-.2593 1.1308-.6484.2202-.3566-.01-.8322-.4103-.8322h-1.4411c-.4003 0-.6404.4864-.4103.8322.2402.3999.6605.6484 1.1309.6484z" fill="#753f4c"/></g><g filter="url(#t)"><path d="m16.0206 23.2754c.4703 0 .8907-.2594 1.1308-.6484.2202-.3567-.01-.8322-.4103-.8322h-1.4411c-.4003 0-.6404.4863-.4103.8322.2402.3998.6605.6484 1.1309.6484z" fill="url(#aB)"/><path d="m16.0206 23.2754c.4703 0 .8907-.2594 1.1308-.6484.2202-.3567-.01-.8322-.4103-.8322h-1.4411c-.4003 0-.6404.4863-.4103.8322.2402.3998.6605.6484 1.1309.6484z" fill="url(#aC)"/></g><g filter="url(#u)"><path d="m19.748 19.1612c.1448.1937-.1578.4297-.5019.6869-.344.2573-.5992.4383-.744.2447-.1448-.1937.0168-.5591.3608-.8164.3441-.2572.7403-.3088.8851-.1152z" fill="#c7a7a3"/><path d="m19.748 19.1612c.1448.1937-.1578.4297-.5019.6869-.344.2573-.5992.4383-.744.2447-.1448-.1937.0168-.5591.3608-.8164.3441-.2572.7403-.3088.8851-.1152z" fill="url(#aE)"/></g><g filter="url(#v)"><path d="m21.7075 20.4961c-.075-.5253-.3824-.9212-.5267-1.0535l-.5917.6494.267.5195z" fill="url(#aG)"/></g><g filter="url(#w)"><path d="m13.4603 20.525c0-.6566-.5339-1.0944-.6782-1.2267l-.6566.635.4041.8226z" fill="url(#aH)"/></g><g filter="url(#x)"><ellipse cx="10.9908" cy="19.5998" fill="#c7a7a3" fill-opacity=".9" rx=".887015" ry=".448911" transform="matrix(.88365127 -.46814574 .46814574 .88365127 -7.896797 7.425708)"/><ellipse cx="10.9908" cy="19.5998" fill="url(#aI)" rx=".887015" ry=".448911" transform="matrix(.88365127 -.46814574 .46814574 .88365127 -7.896797 7.425708)"/></g><g filter="url(#y)"><path d="m18.1889 10.7675 4.0277-2.14812c2.5611 1.84712 2.6765 5.18552 2.5611 6.08982l-5.0911.6926c-1.3071.1779-2.5238-.7011-2.7655-1.9979-.1979-1.0613.3152-2.1283 1.2678-2.6364z" fill="url(#aJ)"/></g></svg>