<svg enable-background="new 0 0 128 128" viewBox="0 0 32 32" xmlns="http://www.w3.org/2000/svg"><path d="m2 6c0-2.20914 1.79086-4 4-4h20c2.2091 0 4 1.79086 4 4v20c0 2.2091-1.7909 4-4 4h-20c-2.20914 0-4-1.7909-4-4z" fill="#00a6ed"/><g fill="#f4f4f4"><path d="m12.78 19.92c0 .45.37.82.82.82.3303 0 .6174-.1993.7469-.4832.4987.3064 1.0855.4832 1.7131.4832 1.81 0 3.28-1.47 3.28-3.28v-1.19c0-1.81-1.47-3.28-3.28-3.28-.5972 0-1.1574.16-1.64.4395v-3.3495c0-.44999-.37-.81999-.82-.81999s-.82.37-.82.81999zm1.64-3.65c0-.9.74-1.64 1.64-1.64s1.64.74 1.64 1.64v1.19c0 .9-.74 1.64-1.64 1.64s-1.64-.74-1.64-1.64z"/><path d="m23.49 20.74c-1.81 0-3.28-1.47-3.28-3.28v-1.19c0-1.81 1.47-3.28 3.28-3.28 1.39 0 2.63.88 3.1 2.19.15.43-.07.9-.5 1.05s-.9-.07-1.05-.5c-.23-.66-.85-1.1-1.55-1.1-.9 0-1.64.74-1.64 1.64v1.19c0 .9.74 1.64 1.64 1.64.69 0 1.32-.44 1.55-1.1.15-.43.62-.65 1.05-.5s.65.62.5 1.05c-.47 1.31-1.71 2.19-3.1 2.19z"/><path d="m9.99722 20.1629c.10448.3329.41728.5771.78288.5771.45 0 .82-.37.82-.82v-3.96c0-1.64-1.33-2.97-2.97004-2.97h-1.95007c-.45 0-.82.37-.82.82s.37.82.82.82h1.95007c.73 0 1.33.59 1.33 1.33v.24h-2.31006c-1.25 0-2.27 1.02-2.27 2.27s1.02 2.27 2.27 2.27h.49001c.6875 0 1.3274-.2136 1.85721-.5771zm-3.12722-1.6929c0-.43.35001-.78.78-.78h2.27c-.10999.88-.87 1.56-1.77999 1.56h-.49001c-.42999 0-.78-.35-.78-.78z"/></g></svg>