<svg enable-background="new 0 0 128 128" viewBox="0 0 128 128" xmlns="http://www.w3.org/2000/svg"><g fill="#e1d8ec" transform="scale(4)"><path d="m26.8066 9.56882c1.852.62368 3.1934 2.36398 3.1934 4.43618 0 2.0723-1.3514 3.8126-3.2235 4.4362.0401.2515.0801.5131.0801.7847 0 2.5953-2.0922 4.6977-4.675 4.6977-1.1012 0-2.0922-.4023-2.8931-1.0361-.5806 1.2474-1.8419 2.1125-3.3035 2.1125s-2.7129-.8651-3.3036-2.1125c-.8008.6438-1.7919 1.0361-2.89305 1.0361-2.58277 0-4.67501-2.1024-4.67501-4.6977 0-.2622.03732-.5057.07594-.7576l.00414-.0271c-1.85198-.6236-3.19342-2.3639-3.19342-4.4362 0-2.0722 1.34144-3.8125 3.20343-4.44624-.04004-.25149-.08008-.51304-.08008-.78464 0-2.59534 2.09224-4.69776 4.67501-4.69776 1.10114 0 2.09224.40238 2.89314 1.03612.5806-1.24737 1.8419-2.11248 3.3035-2.11248 1.4716 0 2.7229.86511 3.3236 2.12254.8008-.6438 1.7919-1.03612 2.8931-1.03612 2.5827 0 4.675 2.10242 4.675 4.69776 0 .26223-.0374.5057-.076.75758z"/><path d="m7 26.5c0 1.3807-1.11929 2.5-2.5 2.5s-2.5-1.1193-2.5-2.5 1.11929-2.5 2.5-2.5 2.5 1.1193 2.5 2.5z"/></g></svg>