<svg fill="none" height="32" viewBox="0 0 32 32" width="32" xmlns="http://www.w3.org/2000/svg" xmlns:xlink="http://www.w3.org/1999/xlink"><filter id="a" color-interpolation-filters="sRGB" filterUnits="userSpaceOnUse" height="28.875" width="28.875" x="2.48657" y="1.4375"><feFlood flood-opacity="0" result="BackgroundImageFix"/><feBlend in="SourceGraphic" in2="BackgroundImageFix" mode="normal" result="shape"/><feColorMatrix in="SourceAlpha" result="hardAlpha" type="matrix" values="0 0 0 0 0 0 0 0 0 0 0 0 0 0 0 0 0 0 127 0"/><feOffset dx="1" dy="-1"/><feGaussianBlur stdDeviation="1.5"/><feComposite in2="hardAlpha" k2="-1" k3="1" operator="arithmetic"/><feColorMatrix type="matrix" values="0 0 0 0 0.188235 0 0 0 0 0.470588 0 0 0 0 0.843137 0 0 0 1 0"/><feBlend in2="shape" mode="normal" result="effect1_innerShadow_18590_434"/><feColorMatrix in="SourceAlpha" result="hardAlpha" type="matrix" values="0 0 0 0 0 0 0 0 0 0 0 0 0 0 0 0 0 0 127 0"/><feOffset dy="-1"/><feGaussianBlur stdDeviation="1.5"/><feComposite in2="hardAlpha" k2="-1" k3="1" operator="arithmetic"/><feColorMatrix type="matrix" values="0 0 0 0 0.27451 0 0 0 0 0.34902 0 0 0 0 0.8 0 0 0 1 0"/><feBlend in2="effect1_innerShadow_18590_434" mode="normal" result="effect2_innerShadow_18590_434"/></filter><filter id="b" color-interpolation-filters="sRGB" filterUnits="userSpaceOnUse" height="28.375" width="5.5" x="25.9241" y="2.1875"><feFlood flood-opacity="0" result="BackgroundImageFix"/><feBlend in="SourceGraphic" in2="BackgroundImageFix" mode="normal" result="shape"/><feGaussianBlur result="effect1_foregroundBlur_18590_434" stdDeviation="1"/></filter><filter id="c" color-interpolation-filters="sRGB" filterUnits="userSpaceOnUse" height="5.5" width="27.2812" x="3.20044" y="1.5"><feFlood flood-opacity="0" result="BackgroundImageFix"/><feBlend in="SourceGraphic" in2="BackgroundImageFix" mode="normal" result="shape"/><feGaussianBlur result="effect1_foregroundBlur_18590_434" stdDeviation="1"/></filter><filter id="d" color-interpolation-filters="sRGB" filterUnits="userSpaceOnUse" height="21.66" width="25.6635" x="4.01062" y="5.54504"><feFlood flood-opacity="0" result="BackgroundImageFix"/><feBlend in="SourceGraphic" in2="BackgroundImageFix" mode="normal" result="shape"/><feGaussianBlur result="effect1_foregroundBlur_18590_434" stdDeviation=".5"/></filter><filter id="e" color-interpolation-filters="sRGB" filterUnits="userSpaceOnUse" height="20.46" width="24.4635" x="4.61062" y="6.14504"><feFlood flood-opacity="0" result="BackgroundImageFix"/><feBlend in="SourceGraphic" in2="BackgroundImageFix" mode="normal" result="shape"/><feColorMatrix in="SourceAlpha" result="hardAlpha" type="matrix" values="0 0 0 0 0 0 0 0 0 0 0 0 0 0 0 0 0 0 127 0"/><feOffset dx="-.4" dy=".4"/><feGaussianBlur stdDeviation=".375"/><feComposite in2="hardAlpha" k2="-1" k3="1" operator="arithmetic"/><feColorMatrix type="matrix" values="0 0 0 0 0.901961 0 0 0 0 0.854902 0 0 0 0 0.980392 0 0 0 1 0"/><feBlend in2="shape" mode="normal" result="effect1_innerShadow_18590_434"/><feColorMatrix in="SourceAlpha" result="hardAlpha" type="matrix" values="0 0 0 0 0 0 0 0 0 0 0 0 0 0 0 0 0 0 127 0"/><feOffset dx=".4" dy="-.4"/><feGaussianBlur stdDeviation=".2"/><feComposite in2="hardAlpha" k2="-1" k3="1" operator="arithmetic"/><feColorMatrix type="matrix" values="0 0 0 0 1 0 0 0 0 0.988235 0 0 0 0 1 0 0 0 1 0"/><feBlend in2="effect1_innerShadow_18590_434" mode="normal" result="effect2_innerShadow_18590_434"/></filter><linearGradient id="f" gradientUnits="userSpaceOnUse" x1="16.4241" x2="16.4241" y1="6.01201" y2="39.2647"><stop offset="0" stop-color="#5cb7ff"/><stop offset="1" stop-color="#4878dd"/></linearGradient><radialGradient id="g" cx="0" cy="0" gradientTransform="matrix(-1.56248628 1.46876123 -1.71548166 -1.82495051 28.1428 4.53125)" gradientUnits="userSpaceOnUse" r="1"><stop offset="0" stop-color="#7bd7ff"/><stop offset="1" stop-color="#7bd7ff" stop-opacity="0"/></radialGradient><linearGradient id="h" gradientUnits="userSpaceOnUse" x1="29.1741" x2="29.1741" y1="4.9375" y2="27.8125"><stop offset="0" stop-color="#7fd9ff"/><stop offset="1" stop-color="#639df4"/></linearGradient><linearGradient id="i" gradientUnits="userSpaceOnUse" x1="28.8879" x2="3.35669" y1="4.50002" y2="4.50002"><stop offset="0" stop-color="#7dd8ff"/><stop offset="1" stop-color="#5db6ff"/></linearGradient><g filter="url(#a)"><rect fill="url(#f)" height="27.875" rx="3.6" width="27.875" x="2.48657" y="2.4375"/><rect fill="url(#g)" height="27.875" rx="3.6" width="27.875" x="2.48657" y="2.4375"/></g><g filter="url(#b)"><path d="m28.6741 4.9375v22.875" stroke="url(#h)" stroke-linecap="round" stroke-width="1.5"/></g><g filter="url(#c)"><path d="m5.95044 4.25h21.78126" stroke="url(#i)" stroke-linecap="round" stroke-width="1.5"/></g><g fill="#579fff" filter="url(#d)"><path d="m16.1206 25.655c0 .3.24.55.55.55s.55-.25.55-.56v-18.54996c0-.3-.24-.55-.55-.55-.3 0-.55.24-.55.55z"/><path d="m23.3007 10.945c1.215 0 2.2-.98493 2.2-2.19996 0-1.21502-.985-2.2-2.2-2.2s-2.2.98498-2.2 2.2c0 1.21503.985 2.19996 2.2 2.19996z"/><path d="m28.6206 16.5051-.97-3.58c-.25-.7-.92-1.17-1.66-1.17h-5.28c-.75 0-1.41.47-1.66 1.17l-.97 3.58c-.16.45.05.96.49 1.13.11.04.22.06.33.06.3587 0 .6976-.2184.8286-.5761.001-.0026.0013-.0036.0021-.0062.0226-.0839.6437-2.3836.8793-3.2377.05-.18.22-.31.41-.31.28 0 .48.27.41.54l-1.57 5.83c-.09.33.16.66.5.66h.65c.06 0 .11.05.11.11v4.25c0 .47.36.88.84.9.5.02.92-.38.92-.88v-3.95c0-.24.2-.44.44-.44s.44.2.44.44v3.93c0 .47.36.88.84.9.5.02.92-.38.92-.88v-4.28c0-.06.05-.11.11-.11h.71c.34 0 .59-.33.5-.66l-1.57-5.82c-.07-.27.13-.54.41-.54.19 0 .36.13.41.31.2843 1.0391.8568 3.1544.8793 3.2375.0008.0026.0012.0038.0021.0064.1311.3577.4699.5761.8286.5761.11 0 .22-.02.33-.06.44-.17.65-.68.49-1.13z"/><path d="m12.7106 11.7551h-5.73998c-1.08 0-1.96.88-1.96 1.96v3.59c0 .47.36.88.84.9.5.02.92-.38.92-.88v-3.0695c0-.24.2-.44.44-.44s.44.2.44.44v10.7095c0 .47.36.88.84.9.5.02.92-.38.92-.88v-5.8022c0-.24.2-.44.44-.44.23998 0 .43998.2.43998.44v5.7722c0 .47.36.88.84.9.5.02.92-.38.92-.88v-10.7195c0-.24.2-.44.44-.44s.44.2.44.44v3.0695c0 .5.42.9.92.88.47-.02.84-.43.84-.9v-3.59c-.02-1.08-.9-1.96-1.98-1.96z"/><path d="m11.9907 8.74504c0 1.21503-.985 2.19996-2.2 2.19996-1.21503 0-2.2-.98493-2.2-2.19996 0-1.21502.98497-2.2 2.2-2.2 1.215 0 2.2.98498 2.2 2.2z"/></g><g fill="#fcf2ff" filter="url(#e)"><path d="m16.1206 25.655c0 .3.24.55.55.55s.55-.25.55-.56v-18.54996c0-.3-.24-.55-.55-.55-.3 0-.55.24-.55.55z"/><path d="m23.3007 10.945c1.215 0 2.2-.98493 2.2-2.19996 0-1.21502-.985-2.2-2.2-2.2s-2.2.98498-2.2 2.2c0 1.21503.985 2.19996 2.2 2.19996z"/><path d="m28.6206 16.5051-.97-3.58c-.25-.7-.92-1.17-1.66-1.17h-5.28c-.75 0-1.41.47-1.66 1.17l-.97 3.58c-.16.45.05.96.49 1.13.11.04.22.06.33.06.3587 0 .6976-.2184.8286-.5761.001-.0026.0013-.0036.0021-.0062.0226-.0839.6437-2.3836.8793-3.2377.05-.18.22-.31.41-.31.28 0 .48.27.41.54l-1.57 5.83c-.09.33.16.66.5.66h.65c.06 0 .11.05.11.11v4.25c0 .47.36.88.84.9.5.02.92-.38.92-.88v-3.95c0-.24.2-.44.44-.44s.44.2.44.44v3.93c0 .47.36.88.84.9.5.02.92-.38.92-.88v-4.28c0-.06.05-.11.11-.11h.71c.34 0 .59-.33.5-.66l-1.57-5.82c-.07-.27.13-.54.41-.54.19 0 .36.13.41.31.2843 1.0391.8568 3.1544.8793 3.2375.0008.0026.0012.0038.0021.0064.1311.3577.4699.5761.8286.5761.11 0 .22-.02.33-.06.44-.17.65-.68.49-1.13z"/><path d="m12.7106 11.7551h-5.73998c-1.08 0-1.96.88-1.96 1.96v3.59c0 .47.36.88.84.9.5.02.92-.38.92-.88v-3.0695c0-.24.2-.44.44-.44s.44.2.44.44v10.7095c0 .47.36.88.84.9.5.02.92-.38.92-.88v-5.8022c0-.24.2-.44.44-.44.23998 0 .43998.2.43998.44v5.7722c0 .47.36.88.84.9.5.02.92-.38.92-.88v-10.7195c0-.24.2-.44.44-.44s.44.2.44.44v3.0695c0 .5.42.9.92.88.47-.02.84-.43.84-.9v-3.59c-.02-1.08-.9-1.96-1.98-1.96z"/><path d="m11.9907 8.74504c0 1.21503-.985 2.19996-2.2 2.19996-1.21503 0-2.2-.98493-2.2-2.19996 0-1.21502.98497-2.2 2.2-2.2 1.215 0 2.2.98498 2.2 2.2z"/></g></svg>