<svg fill="none" height="32" viewBox="0 0 32 32" width="32" xmlns="http://www.w3.org/2000/svg" xmlns:xlink="http://www.w3.org/1999/xlink"><filter id="a" color-interpolation-filters="sRGB" filterUnits="userSpaceOnUse" height="6.1" width="11" x="2.00299" y="24.0004"><feFlood flood-opacity="0" result="BackgroundImageFix"/><feBlend in="SourceGraphic" in2="BackgroundImageFix" mode="normal" result="shape"/><feColorMatrix in="SourceAlpha" result="hardAlpha" type="matrix" values="0 0 0 0 0 0 0 0 0 0 0 0 0 0 0 0 0 0 127 0"/><feOffset dy=".1"/><feGaussianBlur stdDeviation=".25"/><feComposite in2="hardAlpha" k2="-1" k3="1" operator="arithmetic"/><feColorMatrix type="matrix" values="0 0 0 0 0.890196 0 0 0 0 0.478431 0 0 0 0 0.27451 0 0 0 1 0"/><feBlend in2="shape" mode="normal" result="effect1_innerShadow_4002_4039"/></filter><filter id="b" color-interpolation-filters="sRGB" filterUnits="userSpaceOnUse" height="3.2" width="3.2" x="14.403" y="1.90037"><feFlood flood-opacity="0" result="BackgroundImageFix"/><feBlend in="SourceGraphic" in2="BackgroundImageFix" mode="normal" result="shape"/><feColorMatrix in="SourceAlpha" result="hardAlpha" type="matrix" values="0 0 0 0 0 0 0 0 0 0 0 0 0 0 0 0 0 0 127 0"/><feOffset dx=".1" dy="-.1"/><feGaussianBlur stdDeviation=".15"/><feComposite in2="hardAlpha" k2="-1" k3="1" operator="arithmetic"/><feColorMatrix type="matrix" values="0 0 0 0 0.188235 0 0 0 0 0.47451 0 0 0 0 0.698039 0 0 0 1 0"/><feBlend in2="shape" mode="normal" result="effect1_innerShadow_4002_4039"/><feColorMatrix in="SourceAlpha" result="hardAlpha" type="matrix" values="0 0 0 0 0 0 0 0 0 0 0 0 0 0 0 0 0 0 127 0"/><feOffset dx="-.1" dy=".1"/><feGaussianBlur stdDeviation=".125"/><feComposite in2="hardAlpha" k2="-1" k3="1" operator="arithmetic"/><feColorMatrix type="matrix" values="0 0 0 0 0.286275 0 0 0 0 0.67451 0 0 0 0 0.929412 0 0 0 1 0"/><feBlend in2="effect1_innerShadow_4002_4039" mode="normal" result="effect2_innerShadow_4002_4039"/></filter><filter id="c" color-interpolation-filters="sRGB" filterUnits="userSpaceOnUse" height="3.32231" width="3.32286" x="7.783" y="2.78037"><feFlood flood-opacity="0" result="BackgroundImageFix"/><feBlend in="SourceGraphic" in2="BackgroundImageFix" mode="normal" result="shape"/><feColorMatrix in="SourceAlpha" result="hardAlpha" type="matrix" values="0 0 0 0 0 0 0 0 0 0 0 0 0 0 0 0 0 0 127 0"/><feOffset dx=".1" dy="-.1"/><feGaussianBlur stdDeviation=".15"/><feComposite in2="hardAlpha" k2="-1" k3="1" operator="arithmetic"/><feColorMatrix type="matrix" values="0 0 0 0 0.188235 0 0 0 0 0.47451 0 0 0 0 0.698039 0 0 0 1 0"/><feBlend in2="shape" mode="normal" result="effect1_innerShadow_4002_4039"/><feColorMatrix in="SourceAlpha" result="hardAlpha" type="matrix" values="0 0 0 0 0 0 0 0 0 0 0 0 0 0 0 0 0 0 127 0"/><feOffset dx="-.1" dy=".1"/><feGaussianBlur stdDeviation=".125"/><feComposite in2="hardAlpha" k2="-1" k3="1" operator="arithmetic"/><feColorMatrix type="matrix" values="0 0 0 0 0.286275 0 0 0 0 0.67451 0 0 0 0 0.929412 0 0 0 1 0"/><feBlend in2="effect1_innerShadow_4002_4039" mode="normal" result="effect2_innerShadow_4002_4039"/></filter><filter id="d" color-interpolation-filters="sRGB" filterUnits="userSpaceOnUse" height="3.32231" width="3.31523" x="20.903" y="2.77878"><feFlood flood-opacity="0" result="BackgroundImageFix"/><feBlend in="SourceGraphic" in2="BackgroundImageFix" mode="normal" result="shape"/><feColorMatrix in="SourceAlpha" result="hardAlpha" type="matrix" values="0 0 0 0 0 0 0 0 0 0 0 0 0 0 0 0 0 0 127 0"/><feOffset dx=".1" dy="-.1"/><feGaussianBlur stdDeviation=".15"/><feComposite in2="hardAlpha" k2="-1" k3="1" operator="arithmetic"/><feColorMatrix type="matrix" values="0 0 0 0 0.188235 0 0 0 0 0.47451 0 0 0 0 0.698039 0 0 0 1 0"/><feBlend in2="shape" mode="normal" result="effect1_innerShadow_4002_4039"/><feColorMatrix in="SourceAlpha" result="hardAlpha" type="matrix" values="0 0 0 0 0 0 0 0 0 0 0 0 0 0 0 0 0 0 127 0"/><feOffset dx="-.1" dy=".1"/><feGaussianBlur stdDeviation=".125"/><feComposite in2="hardAlpha" k2="-1" k3="1" operator="arithmetic"/><feColorMatrix type="matrix" values="0 0 0 0 0.286275 0 0 0 0 0.67451 0 0 0 0 0.929412 0 0 0 1 0"/><feBlend in2="effect1_innerShadow_4002_4039" mode="normal" result="effect2_innerShadow_4002_4039"/></filter><filter id="e" color-interpolation-filters="sRGB" filterUnits="userSpaceOnUse" height="11.7075" width="12.6503" x="9.68823" y="14.5427"><feFlood flood-opacity="0" result="BackgroundImageFix"/><feBlend in="SourceGraphic" in2="BackgroundImageFix" mode="normal" result="shape"/><feColorMatrix in="SourceAlpha" result="hardAlpha" type="matrix" values="0 0 0 0 0 0 0 0 0 0 0 0 0 0 0 0 0 0 127 0"/><feOffset dy=".25"/><feGaussianBlur stdDeviation=".25"/><feComposite in2="hardAlpha" k2="-1" k3="1" operator="arithmetic"/><feColorMatrix type="matrix" values="0 0 0 0 0.364706 0 0 0 0 0.192157 0 0 0 0 0.223529 0 0 0 1 0"/><feBlend in2="shape" mode="normal" result="effect1_innerShadow_4002_4039"/></filter><filter id="f" color-interpolation-filters="sRGB" filterUnits="userSpaceOnUse" height="1.38596" width="2.83594" x="11.259" y="17.3043"><feFlood flood-opacity="0" result="BackgroundImageFix"/><feBlend in="SourceGraphic" in2="BackgroundImageFix" mode="normal" result="shape"/><feColorMatrix in="SourceAlpha" result="hardAlpha" type="matrix" values="0 0 0 0 0 0 0 0 0 0 0 0 0 0 0 0 0 0 127 0"/><feOffset dy="-.15"/><feGaussianBlur stdDeviation=".125"/><feComposite in2="hardAlpha" k2="-1" k3="1" operator="arithmetic"/><feColorMatrix type="matrix" values="0 0 0 0 0.168627 0 0 0 0 0.0823529 0 0 0 0 0.160784 0 0 0 1 0"/><feBlend in2="shape" mode="normal" result="effect1_innerShadow_4002_4039"/></filter><filter id="g" color-interpolation-filters="sRGB" filterUnits="userSpaceOnUse" height="1.38596" width="2.83606" x="17.911" y="17.3043"><feFlood flood-opacity="0" result="BackgroundImageFix"/><feBlend in="SourceGraphic" in2="BackgroundImageFix" mode="normal" result="shape"/><feColorMatrix in="SourceAlpha" result="hardAlpha" type="matrix" values="0 0 0 0 0 0 0 0 0 0 0 0 0 0 0 0 0 0 127 0"/><feOffset dy="-.15"/><feGaussianBlur stdDeviation=".125"/><feComposite in2="hardAlpha" k2="-1" k3="1" operator="arithmetic"/><feColorMatrix type="matrix" values="0 0 0 0 0.168627 0 0 0 0 0.0823529 0 0 0 0 0.160784 0 0 0 1 0"/><feBlend in2="shape" mode="normal" result="effect1_innerShadow_4002_4039"/></filter><filter id="h" color-interpolation-filters="sRGB" filterUnits="userSpaceOnUse" height="4.29431" width="3.34399" x="14.1477" y="20.363"><feFlood flood-opacity="0" result="BackgroundImageFix"/><feBlend in="SourceGraphic" in2="BackgroundImageFix" mode="normal" result="shape"/><feGaussianBlur result="effect1_foregroundBlur_4002_4039" stdDeviation=".25"/></filter><filter id="i" color-interpolation-filters="sRGB" filterUnits="userSpaceOnUse" height="3.47256" width="2.44503" x="14.8305" y="20.4679"><feFlood flood-opacity="0" result="BackgroundImageFix"/><feBlend in="SourceGraphic" in2="BackgroundImageFix" mode="normal" result="shape"/><feColorMatrix in="SourceAlpha" result="hardAlpha" type="matrix" values="0 0 0 0 0 0 0 0 0 0 0 0 0 0 0 0 0 0 127 0"/><feOffset dx=".1" dy="-.1"/><feGaussianBlur stdDeviation=".2"/><feComposite in2="hardAlpha" k2="-1" k3="1" operator="arithmetic"/><feColorMatrix type="matrix" values="0 0 0 0 0.443137 0 0 0 0 0.223529 0 0 0 0 0.278431 0 0 0 1 0"/><feBlend in2="shape" mode="normal" result="effect1_innerShadow_4002_4039"/></filter><filter id="j" color-interpolation-filters="sRGB" filterUnits="userSpaceOnUse" height="3.5" width="7" x="9.00299" y="26.5004"><feFlood flood-opacity="0" result="BackgroundImageFix"/><feBlend in="SourceGraphic" in2="BackgroundImageFix" mode="normal" result="shape"/><feColorMatrix in="SourceAlpha" result="hardAlpha" type="matrix" values="0 0 0 0 0 0 0 0 0 0 0 0 0 0 0 0 0 0 127 0"/><feOffset dx=".5"/><feGaussianBlur stdDeviation=".5"/><feComposite in2="hardAlpha" k2="-1" k3="1" operator="arithmetic"/><feColorMatrix type="matrix" values="0 0 0 0 0.537255 0 0 0 0 0.262745 0 0 0 0 0.231373 0 0 0 1 0"/><feBlend in2="shape" mode="normal" result="effect1_innerShadow_4002_4039"/></filter><filter id="k" color-interpolation-filters="sRGB" filterUnits="userSpaceOnUse" height="3.6" width="7" x="16.503" y="26.4004"><feFlood flood-opacity="0" result="BackgroundImageFix"/><feBlend in="SourceGraphic" in2="BackgroundImageFix" mode="normal" result="shape"/><feColorMatrix in="SourceAlpha" result="hardAlpha" type="matrix" values="0 0 0 0 0 0 0 0 0 0 0 0 0 0 0 0 0 0 127 0"/><feOffset dx=".5" dy="-.1"/><feGaussianBlur stdDeviation=".5"/><feComposite in2="hardAlpha" k2="-1" k3="1" operator="arithmetic"/><feColorMatrix type="matrix" values="0 0 0 0 0.411765 0 0 0 0 0.219608 0 0 0 0 0.231373 0 0 0 1 0"/><feBlend in2="shape" mode="normal" result="effect1_innerShadow_4002_4039"/></filter><filter id="l" color-interpolation-filters="sRGB" filterUnits="userSpaceOnUse" height="12.5" width="17" x="7.75494" y="6.00037"><feFlood flood-opacity="0" result="BackgroundImageFix"/><feBlend in="SourceGraphic" in2="BackgroundImageFix" mode="normal" result="shape"/><feColorMatrix in="SourceAlpha" result="hardAlpha" type="matrix" values="0 0 0 0 0 0 0 0 0 0 0 0 0 0 0 0 0 0 127 0"/><feOffset dx=".5"/><feGaussianBlur stdDeviation=".25"/><feComposite in2="hardAlpha" k2="-1" k3="1" operator="arithmetic"/><feColorMatrix type="matrix" values="0 0 0 0 0.152941 0 0 0 0 0.0470588 0 0 0 0 0.133333 0 0 0 1 0"/><feBlend in2="shape" mode="normal" result="effect1_innerShadow_4002_4039"/><feColorMatrix in="SourceAlpha" result="hardAlpha" type="matrix" values="0 0 0 0 0 0 0 0 0 0 0 0 0 0 0 0 0 0 127 0"/><feOffset dy="-1"/><feGaussianBlur stdDeviation=".5"/><feComposite in2="hardAlpha" k2="-1" k3="1" operator="arithmetic"/><feColorMatrix type="matrix" values="0 0 0 0 0.172549 0 0 0 0 0.0509804 0 0 0 0 0.176471 0 0 0 1 0"/><feBlend in2="effect1_innerShadow_4002_4039" mode="normal" result="effect2_innerShadow_4002_4039"/><feColorMatrix in="SourceAlpha" result="hardAlpha" type="matrix" values="0 0 0 0 0 0 0 0 0 0 0 0 0 0 0 0 0 0 127 0"/><feOffset dy="-.5"/><feGaussianBlur stdDeviation=".625"/><feComposite in2="hardAlpha" k2="-1" k3="1" operator="arithmetic"/><feColorMatrix type="matrix" values="0 0 0 0 0.121569 0 0 0 0 0.0509804 0 0 0 0 0.141176 0 0 0 1 0"/><feBlend in2="effect2_innerShadow_4002_4039" mode="normal" result="effect3_innerShadow_4002_4039"/></filter><filter id="m" color-interpolation-filters="sRGB" filterUnits="userSpaceOnUse" height="1.23069" width="1.1608" x="13.2702" y="20.0059"><feFlood flood-opacity="0" result="BackgroundImageFix"/><feBlend in="SourceGraphic" in2="BackgroundImageFix" mode="normal" result="shape"/><feGaussianBlur result="effect1_foregroundBlur_4002_4039" stdDeviation=".1"/></filter><filter id="n" color-interpolation-filters="sRGB" filterUnits="userSpaceOnUse" height=".854663" width="1.12523" x="12.261" y="19.9505"><feFlood flood-opacity="0" result="BackgroundImageFix"/><feBlend in="SourceGraphic" in2="BackgroundImageFix" mode="normal" result="shape"/><feGaussianBlur result="effect1_foregroundBlur_4002_4039" stdDeviation=".05"/></filter><filter id="o" color-interpolation-filters="sRGB" filterUnits="userSpaceOnUse" height="1.23069" width="1.1608" x="18.9266" y="20.0059"><feFlood flood-opacity="0" result="BackgroundImageFix"/><feBlend in="SourceGraphic" in2="BackgroundImageFix" mode="normal" result="shape"/><feGaussianBlur result="effect1_foregroundBlur_4002_4039" stdDeviation=".1"/></filter><filter id="p" color-interpolation-filters="sRGB" filterUnits="userSpaceOnUse" height=".854663" width="1.12523" x="17.9174" y="19.9505"><feFlood flood-opacity="0" result="BackgroundImageFix"/><feBlend in="SourceGraphic" in2="BackgroundImageFix" mode="normal" result="shape"/><feGaussianBlur result="effect1_foregroundBlur_4002_4039" stdDeviation=".05"/></filter><filter id="q" color-interpolation-filters="sRGB" filterUnits="userSpaceOnUse" height="1.27588" width="2.90625" x="17.9105" y="17.4088"><feFlood flood-opacity="0" result="BackgroundImageFix"/><feBlend in="SourceGraphic" in2="BackgroundImageFix" mode="normal" result="shape"/><feGaussianBlur result="effect1_foregroundBlur_4002_4039" stdDeviation=".125"/></filter><filter id="r" color-interpolation-filters="sRGB" filterUnits="userSpaceOnUse" height="1.27588" width="2.90625" x="11.2238" y="17.4088"><feFlood flood-opacity="0" result="BackgroundImageFix"/><feBlend in="SourceGraphic" in2="BackgroundImageFix" mode="normal" result="shape"/><feGaussianBlur result="effect1_foregroundBlur_4002_4039" stdDeviation=".125"/></filter><filter id="s" color-interpolation-filters="sRGB" filterUnits="userSpaceOnUse" height="2.88733" width="5.31531" x="17.7855" y="26.6426"><feFlood flood-opacity="0" result="BackgroundImageFix"/><feBlend in="SourceGraphic" in2="BackgroundImageFix" mode="normal" result="shape"/><feGaussianBlur result="effect1_foregroundBlur_4002_4039" stdDeviation=".25"/></filter><filter id="t" color-interpolation-filters="sRGB" filterUnits="userSpaceOnUse" height="2.7804" width="6.2348" x="16.9214" y="12.5143"><feFlood flood-opacity="0" result="BackgroundImageFix"/><feBlend in="SourceGraphic" in2="BackgroundImageFix" mode="normal" result="shape"/><feGaussianBlur result="effect1_foregroundBlur_4002_4039" stdDeviation=".375"/></filter><radialGradient id="u" cx="0" cy="0" gradientTransform="matrix(-6.78363249 10.07268913 -19.7259317 -13.28478121 24.7433 18.547)" gradientUnits="userSpaceOnUse" r="1"><stop offset="0" stop-color="#ff9c2c"/><stop offset=".27001" stop-color="#ff802a"/><stop offset="1" stop-color="#fb5b1b"/></radialGradient><radialGradient id="v" cx="0" cy="0" gradientTransform="matrix(-3.01498689 4.36558019 -4.67954261 -3.23181777 14.328 23.5004)" gradientUnits="userSpaceOnUse" r="1"><stop offset=".499718" stop-color="#e4380a"/><stop offset="1" stop-color="#e4380a" stop-opacity="0"/></radialGradient><linearGradient id="w" gradientUnits="userSpaceOnUse" x1="2.95339" x2="7.20173" y1="23.5004" y2="24.8168"><stop offset="0" stop-color="#e57544"/><stop offset="1" stop-color="#e57544" stop-opacity="0"/></linearGradient><radialGradient id="x" cx="0" cy="0" gradientTransform="matrix(-6.44104171 -1.73816764 1.87440307 -6.9458826 11.1075 27.0004)" gradientUnits="userSpaceOnUse" r="1"><stop offset="0" stop-color="#ff7919"/><stop offset="1" stop-color="#f46a2e"/></radialGradient><linearGradient id="y" gradientUnits="userSpaceOnUse" x1="7.19262" x2="7.19262" y1="30.2191" y2="27.2743"><stop offset="0" stop-color="#e95252"/><stop offset="1" stop-color="#fc6028" stop-opacity="0"/></linearGradient><radialGradient id="z" cx="0" cy="0" gradientTransform="matrix(-8.03127394 4.7187061 -4.36101307 -7.42247766 28.4886 24.4348)" gradientUnits="userSpaceOnUse" r="1"><stop offset="0" stop-color="#ffa741"/><stop offset=".724201" stop-color="#ff7530"/></radialGradient><linearGradient id="A" gradientUnits="userSpaceOnUse" x1="24.503" x2="24.503" y1="30.0442" y2="29.1223"><stop offset="0" stop-color="#eb5b6d"/><stop offset="1" stop-color="#ff6836" stop-opacity="0"/></linearGradient><radialGradient id="B" cx="0" cy="0" gradientTransform="matrix(6.28124985 -1.78431965 .36961311 1.30113026 22.2698 27.0004)" gradientUnits="userSpaceOnUse" r="1"><stop offset=".0782281" stop-color="#ff9d3d"/><stop offset="1" stop-color="#ff9d3d" stop-opacity="0"/></radialGradient><radialGradient id="C" cx="0" cy="0" gradientTransform="matrix(-6.04861465 -4.16269571 5.47959766 -7.96214207 25.0516 31.292)" gradientUnits="userSpaceOnUse" r="1"><stop offset=".854782" stop-color="#b64101" stop-opacity="0"/><stop offset="1" stop-color="#b64101"/></radialGradient><linearGradient id="D" gradientUnits="userSpaceOnUse" x1="23.0469" x2="23.1875" y1="24.8268" y2="25.2487"><stop offset="0" stop-color="#c95506"/><stop offset="1" stop-color="#c95506" stop-opacity="0"/></linearGradient><linearGradient id="E"><stop offset=".319871" stop-color="#399be2"/><stop offset="1" stop-color="#3a91ce"/></linearGradient><linearGradient id="F" gradientUnits="userSpaceOnUse" x1="17.503" x2="14.9076" xlink:href="#E" y1="2.49884" y2="5.00037"/><linearGradient id="G" gradientUnits="userSpaceOnUse" x1="11.0059" x2="8.30467" xlink:href="#E" y1="3.39917" y2="6.00317"/><linearGradient id="H" gradientUnits="userSpaceOnUse" x1="24.1183" x2="21.4173" xlink:href="#E" y1="3.39758" y2="5.995"/><radialGradient id="I" cx="0" cy="0" gradientTransform="matrix(-1.79873 0 0 -1.83056 9.75299 17.9312)" gradientUnits="userSpaceOnUse" r="1"><stop offset=".319712" stop-color="#2a1722"/><stop offset="1" stop-color="#4f3b38"/></radialGradient><linearGradient id="J" gradientUnits="userSpaceOnUse" x1="21.7698" x2="23.9573" y1="19.4973" y2="16.4973"><stop offset="0" stop-color="#442832"/><stop offset="1" stop-color="#695655"/></linearGradient><radialGradient id="K" cx="0" cy="0" gradientTransform="matrix(-.21453321 1.21568568 -1.21568568 -.21453321 22.625 17.7504)" gradientUnits="userSpaceOnUse" r="1"><stop offset=".142857" stop-color="#3b232a"/><stop offset="1" stop-color="#3b232a" stop-opacity="0"/></radialGradient><radialGradient id="L" cx="0" cy="0" gradientTransform="matrix(3.03124802 5.43749883 -6.00357924 3.34682145 15.3125 19.5624)" gradientUnits="userSpaceOnUse" r="1"><stop offset="0" stop-color="#7b475b"/><stop offset="1" stop-color="#7b475b" stop-opacity="0"/></radialGradient><radialGradient id="M" cx="0" cy="0" gradientTransform="matrix(-2.64619741 1.11638275 -.73383007 -1.73942068 18.3216 21.4599)" gradientUnits="userSpaceOnUse" r="1"><stop offset="0" stop-color="#90625b"/><stop offset="1" stop-color="#90625b" stop-opacity="0"/></radialGradient><radialGradient id="N" cx="0" cy="0" gradientTransform="matrix(11.4008 0 0 12.5877 11.5058 20.2715)" gradientUnits="userSpaceOnUse" r="1"><stop offset=".701571" stop-color="#9e6857" stop-opacity="0"/><stop offset=".94648" stop-color="#9e6857"/></radialGradient><radialGradient id="O" cx="0" cy="0" gradientTransform="matrix(1.26797273 -1.03367277 .62986797 .77263852 19.2588 19.999)" gradientUnits="userSpaceOnUse" r="1"><stop offset=".200628" stop-color="#783f49"/><stop offset="1" stop-color="#783f49" stop-opacity="0"/></radialGradient><radialGradient id="P" cx="0" cy="0" gradientTransform="matrix(-1.39097879 -1.2464772 1.12100595 -1.25096192 12.6148 19.8482)" gradientUnits="userSpaceOnUse" r="1"><stop offset="0" stop-color="#6f3948"/><stop offset="1" stop-color="#6f3948" stop-opacity="0"/><stop offset="1" stop-color="#3f1c1e" stop-opacity="0"/></radialGradient><radialGradient id="Q" cx="0" cy="0" gradientTransform="matrix(.44767044 8.05814441 -1.48652779 .08258409 9.94474 15.137)" gradientUnits="userSpaceOnUse" r="1"><stop offset=".362797" stop-color="#805b57"/><stop offset="1" stop-color="#805b57" stop-opacity="0"/></radialGradient><radialGradient id="R" cx="0" cy="0" gradientTransform="matrix(.14282688 11.45750981 -11.29472246 .14079761 16.0134 14.5427)" gradientUnits="userSpaceOnUse" r="1"><stop offset=".675931" stop-color="#70332f" stop-opacity="0"/><stop offset="1" stop-color="#70332f"/></radialGradient><radialGradient id="S" cx="0" cy="0" gradientTransform="matrix(0 -2.1875 1.73657 0 16.0134 26.5937)" gradientUnits="userSpaceOnUse" r="1"><stop offset="0" stop-color="#6b3551"/><stop offset="1" stop-color="#6b3551" stop-opacity="0"/></radialGradient><radialGradient id="T" cx="0" cy="0" gradientTransform="matrix(-.13782258 -1.92952405 1.14204036 -.08157398 16.9158 22.7004)" gradientUnits="userSpaceOnUse" r="1"><stop offset="0" stop-color="#8c625e"/><stop offset="1" stop-color="#8c625e" stop-opacity="0"/></radialGradient><linearGradient id="U" gradientUnits="userSpaceOnUse" x1="16.003" x2="16.003" y1="20.8411" y2="23.9404"><stop offset="0" stop-color="#7e4b5a"/><stop offset=".362983" stop-color="#7e4b5a" stop-opacity="0"/></linearGradient><linearGradient id="V" gradientUnits="userSpaceOnUse" x1="13.4071" x2="11.8716" y1="27.3452" y2="31.0443"><stop offset=".122598" stop-color="#865e51"/><stop offset=".671579" stop-color="#79455b"/></linearGradient><radialGradient id="W" cx="0" cy="0" gradientTransform="matrix(0 -2.10938 .25 0 9.62499 30.2018)" gradientUnits="userSpaceOnUse" r="1"><stop offset=".22963" stop-color="#835857"/><stop offset="1" stop-color="#835857" stop-opacity="0"/></radialGradient><radialGradient id="X" cx="0" cy="0" gradientTransform="matrix(-1.42967826 -.6406343 .18606426 -.41523226 14.3984 28.7018)" gradientUnits="userSpaceOnUse" r="1"><stop offset="0" stop-color="#9b7870"/><stop offset=".608524" stop-color="#9b7870" stop-opacity="0"/></radialGradient><radialGradient id="Y" cx="0" cy="0" gradientTransform="matrix(-1.41443784 3.64494017 -5.52041896 -2.14222706 20.621 26.6799)" gradientUnits="userSpaceOnUse" r="1"><stop offset="0" stop-color="#996f5e"/><stop offset="1" stop-color="#835262"/></radialGradient><radialGradient id="Z" cx="0" cy="0" gradientTransform="matrix(-13.43026458 10.82641186 -9.88482921 -12.26222254 22.8247 9.47934)" gradientUnits="userSpaceOnUse" r="1"><stop offset=".165609" stop-color="#47353a"/><stop offset=".558865" stop-color="#302123"/></radialGradient><radialGradient id="aa" cx="0" cy="0" gradientTransform="matrix(-14.50001924 3.93739408 -3.32837958 -12.25723585 22.7073 11.216)" gradientUnits="userSpaceOnUse" r="1"><stop offset=".642955" stop-color="#413333" stop-opacity="0"/><stop offset="1" stop-color="#413333"/></radialGradient><radialGradient id="ab" cx="0" cy="0" gradientTransform="matrix(-4.44243476 3.68752556 -3.99366756 -4.81125007 24.2549 9.98305)" gradientUnits="userSpaceOnUse" r="1"><stop offset=".260893" stop-color="#45343a"/><stop offset="1" stop-color="#45343a" stop-opacity="0"/></radialGradient><linearGradient id="ac"><stop offset=".80198" stop-color="#7f584b"/><stop offset="1" stop-color="#694b43"/><stop offset="1" stop-color="#804d49"/><stop offset="1" stop-color="#6a4c45"/></linearGradient><radialGradient id="ad" cx="0" cy="0" gradientTransform="matrix(0 1.05276 -1.67453 0 13.1757 20.5019)" gradientUnits="userSpaceOnUse" r="1" xlink:href="#ac"/><linearGradient id="ae"><stop offset="0" stop-color="#b4948d"/><stop offset="1" stop-color="#b4948d" stop-opacity="0"/></linearGradient><linearGradient id="af" gradientUnits="userSpaceOnUse" x1="14.1408" x2="13.7337" xlink:href="#ae" y1="20.5719" y2="20.8228"/><linearGradient id="ag"><stop offset=".765532" stop-color="#ffe6e2" stop-opacity="0"/><stop offset=".966159" stop-color="#ffe6e2"/></linearGradient><radialGradient id="ah" cx="0" cy="0" gradientTransform="matrix(-.01003738 -.64108443 .77060955 -.01206534 12.8041 20.7865)" gradientUnits="userSpaceOnUse" r="1" xlink:href="#ag"/><radialGradient id="ai" cx="0" cy="0" gradientTransform="matrix(0 1.05276 -1.67453 0 18.8321 20.5019)" gradientUnits="userSpaceOnUse" r="1" xlink:href="#ac"/><linearGradient id="aj" gradientUnits="userSpaceOnUse" x1="19.7973" x2="19.3901" xlink:href="#ae" y1="20.5719" y2="20.8228"/><radialGradient id="ak" cx="0" cy="0" gradientTransform="matrix(-.01003738 -.64108443 .77060955 -.01206534 18.4604 20.7865)" gradientUnits="userSpaceOnUse" r="1" xlink:href="#ag"/><linearGradient id="al"><stop offset=".515411" stop-color="#473c3d"/><stop offset="1" stop-color="#473c3d" stop-opacity="0"/></linearGradient><linearGradient id="am" gradientUnits="userSpaceOnUse" x1="20.3407" x2="18.2855" xlink:href="#al" y1="18.1255" y2="17.7838"/><linearGradient id="an" gradientUnits="userSpaceOnUse" x1="14.1406" x2="11.7187" xlink:href="#al" y1="17.7031" y2="18.1875"/><linearGradient id="ao" gradientUnits="userSpaceOnUse" x1="17.9498" x2="23.1573" y1="14.608" y2="12.8762"><stop offset="0" stop-color="#513e44"/><stop offset="1" stop-color="#513e44" stop-opacity="0"/></linearGradient><path d="m26.9189 19.1887c-.5608-1.329-1.8627-2.1883-3.3048-2.1883h-15.3023c-1.44209 0-2.74399.8593-3.3048 2.1883l-2.75401 6.6417h4.75v4.17h18.00001v-4.15l4.75-.0168z" fill="url(#u)"/><path d="m26.9189 19.1887c-.5608-1.329-1.8627-2.1883-3.3048-2.1883h-15.3023c-1.44209 0-2.74399.8593-3.3048 2.1883l-2.75401 6.6417h4.75v4.17h18.00001v-4.15l4.75-.0168z" fill="url(#v)"/><path d="m26.9189 19.1887c-.5608-1.329-1.8627-2.1883-3.3048-2.1883h-15.3023c-1.44209 0-2.74399.8593-3.3048 2.1883l-2.75401 6.6417h4.75v4.17h18.00001v-4.15l4.75-.0168z" fill="url(#w)"/><g filter="url(#a)"><path d="m10.9775 25.5906c.1143.0293.2285.0585.3324.0976.9868.3609 1.6931 1.2683 1.6931 2.3317 0 .8097-.4051 1.5219-1.0387 1.9805h-6.78284c-1.75543 0-3.17847-1.3561-3.17847-3.0049s1.42304-2.9951 3.18886-2.9951c.27006 0 .54013.039.78942.0975h.00004c.11425.0293.22849.0586.33235.0976z" fill="url(#x)"/><path d="m10.9775 25.5906c.1143.0293.2285.0585.3324.0976.9868.3609 1.6931 1.2683 1.6931 2.3317 0 .8097-.4051 1.5219-1.0387 1.9805h-6.78284c-1.75543 0-3.17847-1.3561-3.17847-3.0049s1.42304-2.9951 3.18886-2.9951c.27006 0 .54013.039.78942.0975h.00004c.11425.0293.22849.0586.33235.0976z" fill="url(#y)"/></g><path d="m21.0285 25.5906c-.1143.0293-.2285.0585-.3324.0976-.9868.3609-1.6931 1.2683-1.6931 2.3317 0 .8097.4051 1.5219 1.0387 1.9805h6.7828c1.7555 0 3.1785-1.3561 3.1785-3.0049s-1.423-2.9951-3.1889-2.9951c-.27 0-.5401.039-.7894.0975-.1143.0293-.2285.0586-.3324.0976z" fill="url(#z)"/><path d="m21.0285 25.5906c-.1143.0293-.2285.0585-.3324.0976-.9868.3609-1.6931 1.2683-1.6931 2.3317 0 .8097.4051 1.5219 1.0387 1.9805h6.7828c1.7555 0 3.1785-1.3561 3.1785-3.0049s-1.423-2.9951-3.1889-2.9951c-.27 0-.5401.039-.7894.0975-.1143.0293-.2285.0586-.3324.0976z" fill="url(#A)"/><path d="m21.0285 25.5906c-.1143.0293-.2285.0585-.3324.0976-.9868.3609-1.6931 1.2683-1.6931 2.3317 0 .8097.4051 1.5219 1.0387 1.9805h6.7828c1.7555 0 3.1785-1.3561 3.1785-3.0049s-1.423-2.9951-3.1889-2.9951c-.27 0-.5401.039-.7894.0975-.1143.0293-.2285.0586-.3324.0976z" fill="url(#B)"/><path d="m21.0285 25.5906c-.1143.0293-.2285.0585-.3324.0976-.9868.3609-1.6931 1.2683-1.6931 2.3317 0 .8097.4051 1.5219 1.0387 1.9805h6.7828c1.7555 0 3.1785-1.3561 3.1785-3.0049s-1.423-2.9951-3.1889-2.9951c-.27 0-.5401.039-.7894.0975-.1143.0293-.2285.0586-.3324.0976z" fill="url(#C)"/><path d="m21.0285 25.5906c-.1143.0293-.2285.0585-.3324.0976-.9868.3609-1.6931 1.2683-1.6931 2.3317 0 .8097.4051 1.5219 1.0387 1.9805h6.7828c1.7555 0 3.1785-1.3561 3.1785-3.0049s-1.423-2.9951-3.1889-2.9951c-.27 0-.5401.039-.7894.0975-.1143.0293-.2285.0586-.3324.0976z" fill="url(#D)"/><g filter="url(#b)"><path d="m15.6625 4.78966-1.1217-2.24749c-.1201-.25083.0601-.5418.3405-.5418h2.2433c.2805 0 .4607.29097.3405.5418l-1.1216 2.24749c-.1502.28094-.5408.28094-.681 0z" fill="url(#F)"/></g><g filter="url(#c)"><path d="m10.5152 5.98201-2.38-.79c-.26-.09-.34-.42-.14-.62l1.58-1.58c.2-.2.53-.12.62.15l.79 2.38c.1.28-.18.56-.47.46z" fill="url(#G)"/></g><g filter="url(#d)"><path d="m21.4937 5.98043 2.37-.79c.26-.09.34-.42.15-.62l-1.58-1.58c-.2-.2-.53-.12-.62.15l-.79 2.38c-.1.28.18.56.47.46z" fill="url(#H)"/></g><path d="m9.75299 19.7504c1.10461 0 2.00001-.8955 2.00001-2 0-1.1046-.8954-2-2.00001-2-1.10457 0-2 .8954-2 2 0 1.1045.89543 2 2 2z" fill="url(#I)"/><path d="m22.253 19.7504c1.1046 0 2-.8955 2-2 0-1.1046-.8954-2-2-2s-2 .8954-2 2c0 1.1045.8954 2 2 2z" fill="url(#J)"/><path d="m22.253 19.7504c1.1046 0 2-.8955 2-2 0-1.1046-.8954-2-2-2s-2 .8954-2 2c0 1.1045.8954 2 2 2z" fill="url(#K)"/><g filter="url(#e)"><path d="m9.69648 17.7911c-.15043-2.2883 1.77712-3.2484 4.09722-3.2484h1.713c.3206.0302.5911.2316.7113.5337.5009 1.1178 1.6128 1.8328 2.835 1.8328h1.5628c.1384.0061.277.0077.4121.0093.7545.0087 1.3999.0162 1.3005.8013l-.0625.7735h.0017l-.2646 3.2069s-.44 4.3001-5.97 4.3001c-5.53-.0001-6.03-4.3001-6.03-4.3001l-.28633-3.6517-.00935-.1255c-.00101-.0103-.00198-.0205-.0029-.0307z" fill="#8e5b56"/><path d="m9.69648 17.7911c-.15043-2.2883 1.77712-3.2484 4.09722-3.2484h1.713c.3206.0302.5911.2316.7113.5337.5009 1.1178 1.6128 1.8328 2.835 1.8328h1.5628c.1384.0061.277.0077.4121.0093.7545.0087 1.3999.0162 1.3005.8013l-.0625.7735h.0017l-.2646 3.2069s-.44 4.3001-5.97 4.3001c-5.53-.0001-6.03-4.3001-6.03-4.3001l-.28633-3.6517-.00935-.1255c-.00101-.0103-.00198-.0205-.0029-.0307z" fill="url(#L)"/><path d="m9.69648 17.7911c-.15043-2.2883 1.77712-3.2484 4.09722-3.2484h1.713c.3206.0302.5911.2316.7113.5337.5009 1.1178 1.6128 1.8328 2.835 1.8328h1.5628c.1384.0061.277.0077.4121.0093.7545.0087 1.3999.0162 1.3005.8013l-.0625.7735h.0017l-.2646 3.2069s-.44 4.3001-5.97 4.3001c-5.53-.0001-6.03-4.3001-6.03-4.3001l-.28633-3.6517-.00935-.1255c-.00101-.0103-.00198-.0205-.0029-.0307z" fill="url(#M)"/><path d="m9.69648 17.7911c-.15043-2.2883 1.77712-3.2484 4.09722-3.2484h1.713c.3206.0302.5911.2316.7113.5337.5009 1.1178 1.6128 1.8328 2.835 1.8328h1.5628c.1384.0061.277.0077.4121.0093.7545.0087 1.3999.0162 1.3005.8013l-.0625.7735h.0017l-.2646 3.2069s-.44 4.3001-5.97 4.3001c-5.53-.0001-6.03-4.3001-6.03-4.3001l-.28633-3.6517-.00935-.1255c-.00101-.0103-.00198-.0205-.0029-.0307z" fill="url(#N)"/><path d="m9.69648 17.7911c-.15043-2.2883 1.77712-3.2484 4.09722-3.2484h1.713c.3206.0302.5911.2316.7113.5337.5009 1.1178 1.6128 1.8328 2.835 1.8328h1.5628c.1384.0061.277.0077.4121.0093.7545.0087 1.3999.0162 1.3005.8013l-.0625.7735h.0017l-.2646 3.2069s-.44 4.3001-5.97 4.3001c-5.53-.0001-6.03-4.3001-6.03-4.3001l-.28633-3.6517-.00935-.1255c-.00101-.0103-.00198-.0205-.0029-.0307z" fill="url(#O)"/><path d="m9.69648 17.7911c-.15043-2.2883 1.77712-3.2484 4.09722-3.2484h1.713c.3206.0302.5911.2316.7113.5337.5009 1.1178 1.6128 1.8328 2.835 1.8328h1.5628c.1384.0061.277.0077.4121.0093.7545.0087 1.3999.0162 1.3005.8013l-.0625.7735h.0017l-.2646 3.2069s-.44 4.3001-5.97 4.3001c-5.53-.0001-6.03-4.3001-6.03-4.3001l-.28633-3.6517-.00935-.1255c-.00101-.0103-.00198-.0205-.0029-.0307z" fill="url(#P)"/><path d="m9.69648 17.7911c-.15043-2.2883 1.77712-3.2484 4.09722-3.2484h1.713c.3206.0302.5911.2316.7113.5337.5009 1.1178 1.6128 1.8328 2.835 1.8328h1.5628c.1384.0061.277.0077.4121.0093.7545.0087 1.3999.0162 1.3005.8013l-.0625.7735h.0017l-.2646 3.2069s-.44 4.3001-5.97 4.3001c-5.53-.0001-6.03-4.3001-6.03-4.3001l-.28633-3.6517-.00935-.1255c-.00101-.0103-.00198-.0205-.0029-.0307z" fill="url(#Q)"/><path d="m9.69648 17.7911c-.15043-2.2883 1.77712-3.2484 4.09722-3.2484h1.713c.3206.0302.5911.2316.7113.5337.5009 1.1178 1.6128 1.8328 2.835 1.8328h1.5628c.1384.0061.277.0077.4121.0093.7545.0087 1.3999.0162 1.3005.8013l-.0625.7735h.0017l-.2646 3.2069s-.44 4.3001-5.97 4.3001c-5.53-.0001-6.03-4.3001-6.03-4.3001l-.28633-3.6517-.00935-.1255c-.00101-.0103-.00198-.0205-.0029-.0307z" fill="url(#R)"/><path d="m9.69648 17.7911c-.15043-2.2883 1.77712-3.2484 4.09722-3.2484h1.713c.3206.0302.5911.2316.7113.5337.5009 1.1178 1.6128 1.8328 2.835 1.8328h1.5628c.1384.0061.277.0077.4121.0093.7545.0087 1.3999.0162 1.3005.8013l-.0625.7735h.0017l-.2646 3.2069s-.44 4.3001-5.97 4.3001c-5.53-.0001-6.03-4.3001-6.03-4.3001l-.28633-3.6517-.00935-.1255c-.00101-.0103-.00198-.0205-.0029-.0307z" fill="url(#S)"/></g><g filter="url(#f)"><path d="m11.613 18.6903c-.11 0-.21-.05-.28-.14-.12-.15-.09-.37.06-.49.04-.03.99-.75 2.39-.58.19.02.33.2.31.39s-.19.33-.39.31c-1.11-.13-1.87.43-1.88.44-.06.05-.14.07-.21.07z" fill="#372b2b"/></g><g filter="url(#g)"><path d="m20.393 18.6903c-.07 0-.15-.02-.21-.07-.01-.01-.77-.57-1.88-.44-.2.01-.37-.12-.39-.31s.11-.37.31-.39c1.4-.17 2.35.55 2.39.58.15.12.18.34.06.49-.07.1-.18.14-.28.14z" fill="#372b2b"/></g><g filter="url(#h)"><path d="m15.4436 21.1839-.7537 2.0453c-.1592.4203.151.862.6105.8829l.979.0445c.4595.0209.809-.4005.6882-.8238l-.565-2.1053c-.1291-.4626-.7984-.4931-.959-.0436z" fill="#693641"/></g><g filter="url(#i)"><path d="m15.523 20.9204-.66 2.14c-.14.44.19.88.65.88h.98c.46 0 .79-.45.65-.88l-.66-2.14c-.15-.47-.82-.47-.96 0z" fill="#80505c"/><path d="m15.523 20.9204-.66 2.14c-.14.44.19.88.65.88h.98c.46 0 .79-.45.65-.88l-.66-2.14c-.15-.47-.82-.47-.96 0z" fill="url(#T)"/></g><path d="m15.523 20.9204-.66 2.14c-.14.44.19.88.65.88h.98c.46 0 .79-.45.65-.88l-.66-2.14c-.15-.47-.82-.47-.96 0z" fill="url(#U)"/><g filter="url(#j)"><path d="m10.6475 26.5004c.2433 0 .4768.051.6909.153l3.7073 1.7653c.2724.1327.4573.4184.4573.7347 0 .449-.3405.847-.7687.847h-5.72148l-.00973-1.7653c-.00973-.949.72978-1.7245 1.64441-1.7347z" fill="url(#V)"/><path d="m10.6475 26.5004c.2433 0 .4768.051.6909.153l3.7073 1.7653c.2724.1327.4573.4184.4573.7347 0 .449-.3405.847-.7687.847h-5.72148l-.00973-1.7653c-.00973-.949.72978-1.7245 1.64441-1.7347z" fill="url(#W)"/><path d="m10.6475 26.5004c.2433 0 .4768.051.6909.153l3.7073 1.7653c.2724.1327.4573.4184.4573.7347 0 .449-.3405.847-.7687.847h-5.72148l-.00973-1.7653c-.00973-.949.72978-1.7245 1.64441-1.7347z" fill="url(#X)"/></g><g filter="url(#k)"><path d="m21.3585 26.5004c-.2433 0-.4768.051-.6909.153l-3.7073 1.7653c-.2724.1327-.4573.4184-.4573.7347 0 .449.3405.847.7686.847h5.7216l.0097-1.7653c.0097-.949-.7298-1.7245-1.6444-1.7347z" fill="url(#Y)"/></g><g filter="url(#l)"><path d="m23.8515 11.1492c-.3806-.6545-.9617-1.1177-1.6229-1.33929-.7212-.24168-1.3423-.71497-1.733-1.36953-.5209-.86602-1.4726-1.44001-2.5545-1.44001-.4108 0-.8115.08056-1.1721.24168-.4909.21147-1.0419.21147-1.5327 0-.3507-.16112-.7514-.24168-1.1621-.24168-1.0619 0-2.0035.56392-2.5245 1.39973-.4107.66463-1.0418 1.15806-1.77311 1.40981-.69122.24169-1.3023.73509-1.67296 1.42999-.54096 1.017-.43076 2.2154.18032 3.1217.22039.3323.35062.7149.35062 1.1178v.0604.9063 1.0171c0 .5739.54473 1.0372 1.11574 1.0372l-.04297-.5773c-.23437-2.3833 1.72216-3.3803 4.08636-3.3803h1.713c.3206.0302.5911.2316.7113.5337.5009 1.1178 1.6129 1.8328 2.835 1.8328h1.5628c.9116.0403 1.8298-.1151 1.7126.8107l-.0625.7734c.551 0 1.0948-.4462 1.0948-1v-.7251-1.299c0-.3928.1202-.7855.3506-1.1077.6511-.9164.7413-2.1651.1402-3.2124z" fill="url(#Z)"/><path d="m23.8515 11.1492c-.3806-.6545-.9617-1.1177-1.6229-1.33929-.7212-.24168-1.3423-.71497-1.733-1.36953-.5209-.86602-1.4726-1.44001-2.5545-1.44001-.4108 0-.8115.08056-1.1721.24168-.4909.21147-1.0419.21147-1.5327 0-.3507-.16112-.7514-.24168-1.1621-.24168-1.0619 0-2.0035.56392-2.5245 1.39973-.4107.66463-1.0418 1.15806-1.77311 1.40981-.69122.24169-1.3023.73509-1.67296 1.42999-.54096 1.017-.43076 2.2154.18032 3.1217.22039.3323.35062.7149.35062 1.1178v.0604.9063 1.0171c0 .5739.54473 1.0372 1.11574 1.0372l-.04297-.5773c-.23437-2.3833 1.72216-3.3803 4.08636-3.3803h1.713c.3206.0302.5911.2316.7113.5337.5009 1.1178 1.6129 1.8328 2.835 1.8328h1.5628c.9116.0403 1.8298-.1151 1.7126.8107l-.0625.7734c.551 0 1.0948-.4462 1.0948-1v-.7251-1.299c0-.3928.1202-.7855.3506-1.1077.6511-.9164.7413-2.1651.1402-3.2124z" fill="url(#aa)"/><path d="m23.8515 11.1492c-.3806-.6545-.9617-1.1177-1.6229-1.33929-.7212-.24168-1.3423-.71497-1.733-1.36953-.5209-.86602-1.4726-1.44001-2.5545-1.44001-.4108 0-.8115.08056-1.1721.24168-.4909.21147-1.0419.21147-1.5327 0-.3507-.16112-.7514-.24168-1.1621-.24168-1.0619 0-2.0035.56392-2.5245 1.39973-.4107.66463-1.0418 1.15806-1.77311 1.40981-.69122.24169-1.3023.73509-1.67296 1.42999-.54096 1.017-.43076 2.2154.18032 3.1217.22039.3323.35062.7149.35062 1.1178v.0604.9063 1.0171c0 .5739.54473 1.0372 1.11574 1.0372l-.04297-.5773c-.23437-2.3833 1.72216-3.3803 4.08636-3.3803h1.713c.3206.0302.5911.2316.7113.5337.5009 1.1178 1.6129 1.8328 2.835 1.8328h1.5628c.9116.0403 1.8298-.1151 1.7126.8107l-.0625.7734c.551 0 1.0948-.4462 1.0948-1v-.7251-1.299c0-.3928.1202-.7855.3506-1.1077.6511-.9164.7413-2.1651.1402-3.2124z" fill="url(#ab)"/></g><path d="m12.9047 19.5303c-.8475 0-1.5633.5843-1.7581 1.3738-.0579.2264.1158.4422.3474.4422h2.8951c.1842 0 .3316-.1685.2948-.3527-.1632-.8317-.9001-1.4633-1.7792-1.4633z" fill="#fff"/><path d="m13.173 19.8829c-.6421 0-1.158.5211-1.158 1.1581 0 .1052.0158.2105.0421.3053h2.2371c.0264-.1.0421-.2001.0421-.3053-.0052-.637-.5211-1.1581-1.1633-1.1581z" fill="url(#ad)"/><path d="m13.8362 21.041c0-.3684-.2947-.6632-.6632-.6632s-.6632.2948-.6632.6632c0 .1106.0263.2159.0737.3053h1.1738c.0474-.0894.0789-.1947.0789-.3053z" fill="#000"/><g filter="url(#m)"><path d="m14.231 20.905c0-.3742-.3043-.6237-.3866-.6991l-.3742.3619.2303.4688z" fill="url(#af)"/></g><g filter="url(#n)"><ellipse cx="12.8236" cy="20.3778" fill="#c7a7a3" fill-opacity=".9" rx=".505544" ry=".255852" transform="matrix(.88365127 -.46814574 .46814574 .88365127 -8.047771 8.374245)"/><ellipse cx="12.8236" cy="20.3778" fill="url(#ah)" rx=".505544" ry=".255852" transform="matrix(.88365127 -.46814574 .46814574 .88365127 -8.047771 8.374245)"/></g><path d="m19.0298 19.5303c-.8474 0-1.5633.5843-1.7581 1.3738-.0579.2264.1158.4422.3474.4422h2.8951c.1842 0 .3316-.1685.2948-.3527-.1632-.8317-.9001-1.4633-1.7792-1.4633z" fill="#fff"/><path d="m18.8295 19.8829c-.6422 0-1.1581.5211-1.1581 1.1581 0 .1052.0158.2105.0422.3053h2.2371c.0263-.1.0421-.2001.0421-.3053-.0053-.637-.5211-1.1581-1.1633-1.1581z" fill="url(#ai)"/><path d="m19.4926 21.041c0-.3684-.2948-.6632-.6632-.6632-.3685 0-.6633.2948-.6633.6632 0 .1106.0264.2159.0737.3053h1.1739c.0473-.0894.0789-.1947.0789-.3053z" fill="#000"/><g filter="url(#o)"><path d="m19.8874 20.905c0-.3742-.3043-.6237-.3865-.6991l-.3743.3619.2303.4688z" fill="url(#aj)"/></g><g filter="url(#p)"><ellipse cx="18.48" cy="20.3778" fill="#c7a7a3" fill-opacity=".9" rx=".505544" ry=".255852" transform="matrix(.88365127 -.46814574 .46814574 .88365127 -7.389656 11.022265)"/><ellipse cx="18.48" cy="20.3778" fill="url(#ak)" rx=".505544" ry=".255852" transform="matrix(.88365127 -.46814574 .46814574 .88365127 -7.389656 11.022265)"/></g><g filter="url(#q)"><path d="m18.2855 17.7941c.3489-.0365 1.4843 0 2.1562.5156" stroke="url(#am)" stroke-linecap="round" stroke-width=".25"/></g><g filter="url(#r)"><path d="m13.7551 17.7941c-.349-.0365-1.4844 0-2.1563.5156" stroke="url(#an)" stroke-linecap="round" stroke-width=".25"/></g><g filter="url(#s)"><path d="m20.353 27.5299c-1.0851.5625-1.8305.8281-2.0675.8906.1874.1042.7221.0942 1.5246-.1094.604-.1532 1.2571-.4453 1.7863-.3984.4235.0375.8406.7838.9894 1.1172.0221-.2761.0364-.9281-.0827-1.3281-.1488-.5-.7939-.875-2.1501-.1719z" fill="#a27b74"/></g><g filter="url(#t)"><path d="m22.1875 13.2643-4.5161.7265c1.4224.9454 3.8911.461 4.7349.1485z" fill="url(#ao)"/></g></svg>