<svg fill="none" height="32" viewBox="0 0 32 32" width="32" xmlns="http://www.w3.org/2000/svg" xmlns:xlink="http://www.w3.org/1999/xlink"><filter id="a" color-interpolation-filters="sRGB" filterUnits="userSpaceOnUse" height="10.1094" width="5.97784" x="15.6168" y="7.2644"><feFlood flood-opacity="0" result="BackgroundImageFix"/><feBlend in="SourceGraphic" in2="BackgroundImageFix" mode="normal" result="shape"/><feGaussianBlur result="effect1_foregroundBlur_28327_3315" stdDeviation=".5"/></filter><filter id="b" color-interpolation-filters="sRGB" filterUnits="userSpaceOnUse" height="14.0067" width="6.5625" x="23.1705" y="7.73462"><feFlood flood-opacity="0" result="BackgroundImageFix"/><feBlend in="SourceGraphic" in2="BackgroundImageFix" mode="normal" result="shape"/><feGaussianBlur result="effect1_foregroundBlur_28327_3315" stdDeviation=".625"/></filter><filter id="c" color-interpolation-filters="sRGB" filterUnits="userSpaceOnUse" height="10.2812" width="2.00165" x="10.1776" y="2.04688"><feFlood flood-opacity="0" result="BackgroundImageFix"/><feBlend in="SourceGraphic" in2="BackgroundImageFix" mode="normal" result="shape"/><feGaussianBlur result="effect1_foregroundBlur_28327_3315" stdDeviation=".25"/></filter><filter id="d" color-interpolation-filters="sRGB" filterUnits="userSpaceOnUse" height="7.95312" width="3.375" x="9.17926" y="6.1875"><feFlood flood-opacity="0" result="BackgroundImageFix"/><feBlend in="SourceGraphic" in2="BackgroundImageFix" mode="normal" result="shape"/><feGaussianBlur result="effect1_foregroundBlur_28327_3315" stdDeviation=".5"/></filter><filter id="e" color-interpolation-filters="sRGB" filterUnits="userSpaceOnUse" height="12.4375" width="2.66003" x="11.7068" y="17.5469"><feFlood flood-opacity="0" result="BackgroundImageFix"/><feBlend in="SourceGraphic" in2="BackgroundImageFix" mode="normal" result="shape"/><feGaussianBlur result="effect1_foregroundBlur_28327_3315" stdDeviation=".5"/></filter><filter id="f" color-interpolation-filters="sRGB" filterUnits="userSpaceOnUse" height="15.9944" width="2.66003" x="26.7032" y="14.1905"><feFlood flood-opacity="0" result="BackgroundImageFix"/><feBlend in="SourceGraphic" in2="BackgroundImageFix" mode="normal" result="shape"/><feGaussianBlur result="effect1_foregroundBlur_28327_3315" stdDeviation=".5"/></filter><filter id="g" color-interpolation-filters="sRGB" filterUnits="userSpaceOnUse" height="9.77356" width="3.95483" x="14.53" y="20.332"><feFlood flood-opacity="0" result="BackgroundImageFix"/><feBlend in="SourceGraphic" in2="BackgroundImageFix" mode="normal" result="shape"/><feGaussianBlur result="effect1_foregroundBlur_28327_3315" stdDeviation=".375"/></filter><filter id="h" color-interpolation-filters="sRGB" filterUnits="userSpaceOnUse" height="9.77356" width="3.95483" x="20.3425" y="20.332"><feFlood flood-opacity="0" result="BackgroundImageFix"/><feBlend in="SourceGraphic" in2="BackgroundImageFix" mode="normal" result="shape"/><feGaussianBlur result="effect1_foregroundBlur_28327_3315" stdDeviation=".375"/></filter><filter id="i" color-interpolation-filters="sRGB" filterUnits="userSpaceOnUse" height="4.6438" width="2.40942" x="12.498" y="16.7562"><feFlood flood-opacity="0" result="BackgroundImageFix"/><feBlend in="SourceGraphic" in2="BackgroundImageFix" mode="normal" result="shape"/><feGaussianBlur result="effect1_foregroundBlur_28327_3315" stdDeviation=".375"/></filter><linearGradient id="j" gradientUnits="userSpaceOnUse" x1="6.36676" x2="6.36676" y1="8.67187" y2="18.6094"><stop offset="0" stop-color="#9d481f"/><stop offset="1" stop-color="#c27550"/></linearGradient><radialGradient id="k" cx="0" cy="0" gradientTransform="matrix(-.56252017 2.65625015 -2.18861136 -.46348724 6.52301 9.76562)" gradientUnits="userSpaceOnUse" r="1"><stop offset="0" stop-color="#803815"/><stop offset="1" stop-color="#9d481f" stop-opacity="0"/></radialGradient><radialGradient id="l" cx="0" cy="0" gradientTransform="matrix(-1.99996248 -5.00000983 2.57527674 -1.03008934 9.86676 20.1094)" gradientUnits="userSpaceOnUse" r="1"><stop offset="0" stop-color="#d15c76"/><stop offset="1" stop-color="#c26378" stop-opacity="0"/></radialGradient><linearGradient id="m" gradientUnits="userSpaceOnUse" x1="1.46051" x2="5.67926" y1="13.1719" y2="13.1719"><stop offset="0" stop-color="#feb98c"/><stop offset="1" stop-color="#feb98c" stop-opacity="0"/></linearGradient><linearGradient id="n"><stop offset="0" stop-color="#c56b44"/><stop offset="1" stop-color="#7e3834"/></linearGradient><radialGradient id="o" cx="0" cy="0" gradientTransform="matrix(3.51943164 12.57425573 -2.75967236 .77240979 23.9032 27.3578)" gradientUnits="userSpaceOnUse" r="1" xlink:href="#n"/><linearGradient id="p"><stop offset="0" stop-color="#7e3834" stop-opacity="0"/><stop offset=".878057" stop-color="#7e3834"/></linearGradient><linearGradient id="q" gradientUnits="userSpaceOnUse" x1="23.5543" x2="26.2128" xlink:href="#p" y1="28.4844" y2="19.3185"/><linearGradient id="r"><stop offset="0" stop-color="#d57446"/><stop offset="1" stop-color="#d57446" stop-opacity="0"/></linearGradient><linearGradient id="s" gradientUnits="userSpaceOnUse" x1="24.8417" x2="24.6168" xlink:href="#r" y1="28.1402" y2="21.8594"/><linearGradient id="t"><stop offset="0" stop-color="#c26378"/><stop offset="1" stop-color="#c26378" stop-opacity="0"/></linearGradient><linearGradient id="u" gradientUnits="userSpaceOnUse" x1="23.4215" x2="23.4215" xlink:href="#t" y1="30.5811" y2="28.9678"/><radialGradient id="v" cx="0" cy="0" gradientTransform="matrix(3.74999223 14.06248781 -2.96032186 .78941821 17.4293 27.0469)" gradientUnits="userSpaceOnUse" r="1" xlink:href="#n"/><linearGradient id="w" gradientUnits="userSpaceOnUse" x1="17.0576" x2="15.6749" xlink:href="#p" y1="28.3068" y2="19.479"/><linearGradient id="x" gradientUnits="userSpaceOnUse" x1="18.4293" x2="18.4293" xlink:href="#r" y1="27.9219" y2="21.4844"/><linearGradient id="y" gradientUnits="userSpaceOnUse" x1="16.9161" x2="16.9161" xlink:href="#t" y1="30.6517" y2="28.8474"/><radialGradient id="z" cx="0" cy="0" gradientTransform="matrix(3.68750024 2.12499944 -2.07665236 3.60360382 6.74176 2.76562)" gradientUnits="userSpaceOnUse" r="1"><stop offset=".348958" stop-color="#d98c47"/><stop offset="1" stop-color="#824530"/></radialGradient><radialGradient id="A" cx="0" cy="0" gradientTransform="matrix(1.7500011 .59709215 -.39189803 1.14860325 7.49176 3.71874)" gradientUnits="userSpaceOnUse" r="1"><stop offset="0" stop-color="#d18f61"/><stop offset="1" stop-color="#c7885c" stop-opacity="0"/></radialGradient><radialGradient id="B" cx="0" cy="0" gradientTransform="matrix(-1.46875381 -.79687091 .46162383 -.85084267 10.6011 4.96874)" gradientUnits="userSpaceOnUse" r="1"><stop offset="0" stop-color="#824530"/><stop offset="1" stop-color="#824530" stop-opacity="0"/></radialGradient><linearGradient id="C" gradientUnits="userSpaceOnUse" x1="9.13239" x2="9.13239" y1="5.45312" y2="4.07812"><stop offset=".219512" stop-color="#824530"/><stop offset="1" stop-color="#824530" stop-opacity="0"/></linearGradient><linearGradient id="D" gradientUnits="userSpaceOnUse" x1="16" x2="16" y1="9.85937" y2="23.0469"><stop offset="0" stop-color="#e9b077"/><stop offset="1" stop-color="#d48153"/></linearGradient><linearGradient id="E"><stop offset="0" stop-color="#c98a55"/><stop offset="1" stop-color="#c98a55" stop-opacity="0"/></linearGradient><radialGradient id="F" cx="0" cy="0" gradientTransform="matrix(1.78948986 6.65624975 -3.27821701 .88132752 21.1168 8.98438)" gradientUnits="userSpaceOnUse" r="1" xlink:href="#E"/><radialGradient id="G" cx="0" cy="0" gradientTransform="matrix(-1.9062746 6.49999551 -2.58341275 -.75764577 13.5855 8.14062)" gradientUnits="userSpaceOnUse" r="1" xlink:href="#E"/><radialGradient id="H" cx="0" cy="0" gradientTransform="matrix(1.93750386 -5.50000199 5.49457866 1.93559336 9.11676 21.1094)" gradientUnits="userSpaceOnUse" r="1"><stop offset="0" stop-color="#bf7e48"/><stop offset="1" stop-color="#c98a55" stop-opacity="0"/></radialGradient><radialGradient id="I" cx="0" cy="0" gradientTransform="matrix(6.9062558 -4.81249682 2.00632424 2.87920988 .77301 13.2344)" gradientUnits="userSpaceOnUse" r="1"><stop offset="0" stop-color="#c9578e"/><stop offset="1" stop-color="#c9578e" stop-opacity="0"/></radialGradient><radialGradient id="J" cx="0" cy="0" gradientTransform="matrix(4.250001 -4.12500059 3.96394067 4.08406046 6.30426 20.9219)" gradientUnits="userSpaceOnUse" r="1" xlink:href="#t"/><linearGradient id="K"><stop offset="0" stop-color="#fbc791"/><stop offset="1" stop-color="#fbc791" stop-opacity="0"/></linearGradient><radialGradient id="L" cx="0" cy="0" gradientTransform="matrix(-6.56252974 3.49994423 -4.15590554 -7.79248238 32.3043 12.4844)" gradientUnits="userSpaceOnUse" r="1" xlink:href="#K"/><radialGradient id="M" cx="0" cy="0" gradientTransform="matrix(-1.7500139 -2.28123954 .88628255 -.6798965 29.8668 15.9844)" gradientUnits="userSpaceOnUse" r="1"><stop offset="0" stop-color="#d57e34"/><stop offset="1" stop-color="#d47e34" stop-opacity="0"/></radialGradient><linearGradient id="N" gradientUnits="userSpaceOnUse" x1="7.70547" x2="7.09257" y1="6.86939" y2="6.86939"><stop offset="0" stop-color="#574d50"/><stop offset=".855263" stop-color="#31232c"/></linearGradient><linearGradient id="O" gradientUnits="userSpaceOnUse" x1="8.02301" x2="8.02301" y1="8.01453" y2="7.33575"><stop offset="0" stop-color="#552d52"/><stop offset="1" stop-color="#552d52" stop-opacity="0"/></linearGradient><linearGradient id="P" gradientUnits="userSpaceOnUse" x1="6.65708" x2="7.1087" y1="6.98379" y2="6.98379"><stop offset="0" stop-color="#574d50"/><stop offset="1" stop-color="#574d50" stop-opacity="0"/></linearGradient><radialGradient id="Q" cx="0" cy="0" gradientTransform="matrix(.4375 0 0 .828125 3.17145 8.42187)" gradientUnits="userSpaceOnUse" r="1"><stop offset="0" stop-color="#c78e72"/><stop offset="1" stop-color="#bc7748"/></radialGradient><linearGradient id="R" gradientUnits="userSpaceOnUse" x1="10.9293" x2="10.9293" y1="29.9844" y2="20.5469"><stop offset="0" stop-color="#d67f50"/><stop offset="1" stop-color="#d67f50" stop-opacity="0"/></linearGradient><linearGradient id="S" gradientUnits="userSpaceOnUse" x1="12.7605" x2="12.7605" xlink:href="#t" y1="30.7621" y2="28.6594"/><radialGradient id="T" cx="0" cy="0" gradientTransform="matrix(3.45797211 -2.21875156 3.45797187 5.38932366 23.1168 23.8594)" gradientUnits="userSpaceOnUse" r="1" xlink:href="#t"/><linearGradient id="U" gradientUnits="userSpaceOnUse" x1="27.3668" x2="27.3668" xlink:href="#t" y1="30.8281" y2="28.5469"/><linearGradient id="V" gradientUnits="userSpaceOnUse" x1="17.5969" x2="21.1792" xlink:href="#K" y1="8.2644" y2="15.7344"/><radialGradient id="W" cx="0" cy="0" gradientTransform="matrix(-2.92193079 10.03120701 -32.14419979 -9.36309329 26.4518 9.73436)" gradientUnits="userSpaceOnUse" r="1" xlink:href="#K"/><radialGradient id="X" cx="0" cy="0" gradientTransform="matrix(0 -4.15625 9.7655 0 18.523 22.3281)" gradientUnits="userSpaceOnUse" r="1" xlink:href="#t"/><radialGradient id="Y" cx="0" cy="0" gradientTransform="matrix(0 -2.25 16.9992 0 18.523 21.4219)" gradientUnits="userSpaceOnUse" r="1"><stop offset="0" stop-color="#d86ba6"/><stop offset=".407404" stop-color="#d86ba6" stop-opacity="0"/></radialGradient><radialGradient id="Z" cx="0" cy="0" gradientTransform="matrix(3.21873699 -9.84372367 12.35840414 4.04099646 15.898 26.2656)" gradientUnits="userSpaceOnUse" r="1" xlink:href="#t"/><linearGradient id="aa"><stop offset="0" stop-color="#f9cc9e"/><stop offset="1" stop-color="#f9cc9e" stop-opacity="0"/></linearGradient><linearGradient id="ab" gradientUnits="userSpaceOnUse" x1="11.8264" x2="14.8289" xlink:href="#aa" y1="1.57813" y2="3.35852"/><linearGradient id="ac" gradientUnits="userSpaceOnUse" x1="11.7563" x2="6.81906" xlink:href="#aa" y1="15.2344" y2="8.9685"/><linearGradient id="ad" gradientUnits="userSpaceOnUse" x1="27.2952" x2="27.2952" xlink:href="#K" y1="30.4686" y2="19.8614"/><linearGradient id="ae"><stop offset="0" stop-color="#ca886c"/><stop offset="1" stop-color="#f9a372"/></linearGradient><linearGradient id="af" gradientUnits="userSpaceOnUse" x1="15.8043" x2="17.4918" xlink:href="#ae" y1="21.3906" y2="29.2969"/><linearGradient id="ag" gradientUnits="userSpaceOnUse" x1="23.023" x2="21.3355" xlink:href="#ae" y1="21.3906" y2="29.2969"/><path d="m9.12676 13.6144v-3.63002h-3.36c-.5 0-.9.40002-.9.90002v2.16c0 .71.3 1.34.78 1.79.14.13.22.32.22.51v.68c0 1.63 1.33 2.96 2.96 2.96h1.36004v-5.37z" fill="url(#j)"/><path d="m9.12676 13.6144v-3.63002h-3.36c-.5 0-.9.40002-.9.90002v2.16c0 .71.3 1.34.78 1.79.14.13.22.32.22.51v.68c0 1.63 1.33 2.96 2.96 2.96h1.36004v-5.37z" fill="url(#k)"/><path d="m9.12676 13.6144v-3.63002h-3.36c-.5 0-.9.40002-.9.90002v2.16c0 .71.3 1.34.78 1.79.14.13.22.32.22.51v.68c0 1.63 1.33 2.96 2.96 2.96h1.36004v-5.37z" fill="url(#l)"/><path d="m9.12676 13.6144v-3.63002h-3.36c-.5 0-.9.40002-.9.90002v2.16c0 .71.3 1.34.78 1.79.14.13.22.32.22.51v.68c0 1.63 1.33 2.96 2.96 2.96h1.36004v-5.37z" fill="url(#m)"/><path d="m22.5068 19.2544h2.36c.2 0 .35.19.31.38l-2.21 9.96c-.06.23-.27.39-.5.39h-2.21c-.2 0-.35-.19-.31-.38l2.25-10.1c.03-.15.16-.25.31-.25z" fill="url(#o)"/><path d="m22.5068 19.2544h2.36c.2 0 .35.19.31.38l-2.21 9.96c-.06.23-.27.39-.5.39h-2.21c-.2 0-.35-.19-.31-.38l2.25-10.1c.03-.15.16-.25.31-.25z" fill="url(#q)"/><path d="m22.5068 19.2544h2.36c.2 0 .35.19.31.38l-2.21 9.96c-.06.23-.27.39-.5.39h-2.21c-.2 0-.35-.19-.31-.38l2.25-10.1c.03-.15.16-.25.31-.25z" fill="url(#s)"/><path d="m22.5068 19.2544h2.36c.2 0 .35.19.31.38l-2.21 9.96c-.06.23-.27.39-.5.39h-2.21c-.2 0-.35-.19-.31-.38l2.25-10.1c.03-.15.16-.25.31-.25z" fill="url(#u)"/><path d="m16.2068 17.9844h-3l2.57 11.61c.05.23.26.39.49.39h2.21c.2 0 .35-.18.31-.38z" fill="url(#v)"/><path d="m16.2068 17.9844h-3l2.57 11.61c.05.23.26.39.49.39h2.21c.2 0 .35-.18.31-.38z" fill="url(#w)"/><path d="m16.2068 17.9844h-3l2.57 11.61c.05.23.26.39.49.39h2.21c.2 0 .35-.18.31-.38z" fill="url(#x)"/><path d="m16.2068 17.9844h-3l2.57 11.61c.05.23.26.39.49.39h2.21c.2 0 .35-.18.31-.38z" fill="url(#y)"/><path d="m8.05676 3.02437 2.81004.56v2.06l-5.00004-.03v-.8c0-1.15 1.06-2.02 2.19-1.79z" fill="url(#z)"/><path d="m8.05676 3.02437 2.81004.56v2.06l-5.00004-.03v-.8c0-1.15 1.06-2.02 2.19-1.79z" fill="url(#A)"/><path d="m8.05676 3.02437 2.81004.56v2.06l-5.00004-.03v-.8c0-1.15 1.06-2.02 2.19-1.79z" fill="url(#B)"/><path d="m8.05676 3.02437 2.81004.56v2.06l-5.00004-.03v-.8c0-1.15 1.06-2.02 2.19-1.79z" fill="url(#C)"/><path d="m29.88 14.4744-3-4.03-1.11-1.55003c-.87-1.22-2.69-1.22-3.56 0l-1.21 1.70003c-.25.35-.77.35-1.02 0l-1.21-1.70003c-.87-1.22-2.69-1.22-3.56 0l-2.27 3.17003c-.28.42-.93.22-.94-.28v-7.07002-.23-1.73001-.49999c0-.15-.13-.27-.28-.27-.95 0-1.72 1.27-1.72 2.23 0 .15-.13.27-.28.27h-4.21c-1.94 0-3.51 1.57-3.51 3.51v.87c0 .62.5 1.12 1.12 1.12h2.94c.52-.01.94.41002.94.93002v2.38c0 2.67 1.47 5.01 3.64 6.25.22.13.36.36.36.62v1.13.37 3.32 1 .57 2.92c0 .28.22.51.5.51h2c.28 0 .5-.22.5-.5v-8.25c0-.1381.1119-.25.25-.25h7.75c.6885 0 1.338-.1403 1.9348-.3864.1206-.0497.2592.0207.287.1481.1729.7905.4365 1.5548.7982 2.2783l.85 1.71c.09.16.13.35.13.53v2.04.08 2.03c0 .31.25.57.57.57h1.93c.28 0 .5-.22.5-.5l-.01-14.21c.37.31 1.01.08 1.01-.44 0-.13-.04-.26-.12-.36z" fill="url(#D)"/><path d="m29.88 14.4744-3-4.03-1.11-1.55003c-.87-1.22-2.69-1.22-3.56 0l-1.21 1.70003c-.25.35-.77.35-1.02 0l-1.21-1.70003c-.87-1.22-2.69-1.22-3.56 0l-2.27 3.17003c-.28.42-.93.22-.94-.28v-7.07002-.23-1.73001-.49999c0-.15-.13-.27-.28-.27-.95 0-1.72 1.27-1.72 2.23 0 .15-.13.27-.28.27h-4.21c-1.94 0-3.51 1.57-3.51 3.51v.87c0 .62.5 1.12 1.12 1.12h2.94c.52-.01.94.41002.94.93002v2.38c0 2.67 1.47 5.01 3.64 6.25.22.13.36.36.36.62v1.13.37 3.32 1 .57 2.92c0 .28.22.51.5.51h2c.28 0 .5-.22.5-.5v-8.25c0-.1381.1119-.25.25-.25h7.75c.6885 0 1.338-.1403 1.9348-.3864.1206-.0497.2592.0207.287.1481.1729.7905.4365 1.5548.7982 2.2783l.85 1.71c.09.16.13.35.13.53v2.04.08 2.03c0 .31.25.57.57.57h1.93c.28 0 .5-.22.5-.5l-.01-14.21c.37.31 1.01.08 1.01-.44 0-.13-.04-.26-.12-.36z" fill="url(#F)"/><path d="m29.88 14.4744-3-4.03-1.11-1.55003c-.87-1.22-2.69-1.22-3.56 0l-1.21 1.70003c-.25.35-.77.35-1.02 0l-1.21-1.70003c-.87-1.22-2.69-1.22-3.56 0l-2.27 3.17003c-.28.42-.93.22-.94-.28v-7.07002-.23-1.73001-.49999c0-.15-.13-.27-.28-.27-.95 0-1.72 1.27-1.72 2.23 0 .15-.13.27-.28.27h-4.21c-1.94 0-3.51 1.57-3.51 3.51v.87c0 .62.5 1.12 1.12 1.12h2.94c.52-.01.94.41002.94.93002v2.38c0 2.67 1.47 5.01 3.64 6.25.22.13.36.36.36.62v1.13.37 3.32 1 .57 2.92c0 .28.22.51.5.51h2c.28 0 .5-.22.5-.5v-8.25c0-.1381.1119-.25.25-.25h7.75c.6885 0 1.338-.1403 1.9348-.3864.1206-.0497.2592.0207.287.1481.1729.7905.4365 1.5548.7982 2.2783l.85 1.71c.09.16.13.35.13.53v2.04.08 2.03c0 .31.25.57.57.57h1.93c.28 0 .5-.22.5-.5l-.01-14.21c.37.31 1.01.08 1.01-.44 0-.13-.04-.26-.12-.36z" fill="url(#G)"/><path d="m29.88 14.4744-3-4.03-1.11-1.55003c-.87-1.22-2.69-1.22-3.56 0l-1.21 1.70003c-.25.35-.77.35-1.02 0l-1.21-1.70003c-.87-1.22-2.69-1.22-3.56 0l-2.27 3.17003c-.28.42-.93.22-.94-.28v-7.07002-.23-1.73001-.49999c0-.15-.13-.27-.28-.27-.95 0-1.72 1.27-1.72 2.23 0 .15-.13.27-.28.27h-4.21c-1.94 0-3.51 1.57-3.51 3.51v.87c0 .62.5 1.12 1.12 1.12h2.94c.52-.01.94.41002.94.93002v2.38c0 2.67 1.47 5.01 3.64 6.25.22.13.36.36.36.62v1.13.37 3.32 1 .57 2.92c0 .28.22.51.5.51h2c.28 0 .5-.22.5-.5v-8.25c0-.1381.1119-.25.25-.25h7.75c.6885 0 1.338-.1403 1.9348-.3864.1206-.0497.2592.0207.287.1481.1729.7905.4365 1.5548.7982 2.2783l.85 1.71c.09.16.13.35.13.53v2.04.08 2.03c0 .31.25.57.57.57h1.93c.28 0 .5-.22.5-.5l-.01-14.21c.37.31 1.01.08 1.01-.44 0-.13-.04-.26-.12-.36z" fill="url(#H)"/><path d="m29.88 14.4744-3-4.03-1.11-1.55003c-.87-1.22-2.69-1.22-3.56 0l-1.21 1.70003c-.25.35-.77.35-1.02 0l-1.21-1.70003c-.87-1.22-2.69-1.22-3.56 0l-2.27 3.17003c-.28.42-.93.22-.94-.28v-7.07002-.23-1.73001-.49999c0-.15-.13-.27-.28-.27-.95 0-1.72 1.27-1.72 2.23 0 .15-.13.27-.28.27h-4.21c-1.94 0-3.51 1.57-3.51 3.51v.87c0 .62.5 1.12 1.12 1.12h2.94c.52-.01.94.41002.94.93002v2.38c0 2.67 1.47 5.01 3.64 6.25.22.13.36.36.36.62v1.13.37 3.32 1 .57 2.92c0 .28.22.51.5.51h2c.28 0 .5-.22.5-.5v-8.25c0-.1381.1119-.25.25-.25h7.75c.6885 0 1.338-.1403 1.9348-.3864.1206-.0497.2592.0207.287.1481.1729.7905.4365 1.5548.7982 2.2783l.85 1.71c.09.16.13.35.13.53v2.04.08 2.03c0 .31.25.57.57.57h1.93c.28 0 .5-.22.5-.5l-.01-14.21c.37.31 1.01.08 1.01-.44 0-.13-.04-.26-.12-.36z" fill="url(#I)"/><path d="m29.88 14.4744-3-4.03-1.11-1.55003c-.87-1.22-2.69-1.22-3.56 0l-1.21 1.70003c-.25.35-.77.35-1.02 0l-1.21-1.70003c-.87-1.22-2.69-1.22-3.56 0l-2.27 3.17003c-.28.42-.93.22-.94-.28v-7.07002-.23-1.73001-.49999c0-.15-.13-.27-.28-.27-.95 0-1.72 1.27-1.72 2.23 0 .15-.13.27-.28.27h-4.21c-1.94 0-3.51 1.57-3.51 3.51v.87c0 .62.5 1.12 1.12 1.12h2.94c.52-.01.94.41002.94.93002v2.38c0 2.67 1.47 5.01 3.64 6.25.22.13.36.36.36.62v1.13.37 3.32 1 .57 2.92c0 .28.22.51.5.51h2c.28 0 .5-.22.5-.5v-8.25c0-.1381.1119-.25.25-.25h7.75c.6885 0 1.338-.1403 1.9348-.3864.1206-.0497.2592.0207.287.1481.1729.7905.4365 1.5548.7982 2.2783l.85 1.71c.09.16.13.35.13.53v2.04.08 2.03c0 .31.25.57.57.57h1.93c.28 0 .5-.22.5-.5l-.01-14.21c.37.31 1.01.08 1.01-.44 0-.13-.04-.26-.12-.36z" fill="url(#J)"/><path d="m29.88 14.4744-3-4.03-1.11-1.55003c-.87-1.22-2.69-1.22-3.56 0l-1.21 1.70003c-.25.35-.77.35-1.02 0l-1.21-1.70003c-.87-1.22-2.69-1.22-3.56 0l-2.27 3.17003c-.28.42-.93.22-.94-.28v-7.07002-.23-1.73001-.49999c0-.15-.13-.27-.28-.27-.95 0-1.72 1.27-1.72 2.23 0 .15-.13.27-.28.27h-4.21c-1.94 0-3.51 1.57-3.51 3.51v.87c0 .62.5 1.12 1.12 1.12h2.94c.52-.01.94.41002.94.93002v2.38c0 2.67 1.47 5.01 3.64 6.25.22.13.36.36.36.62v1.13.37 3.32 1 .57 2.92c0 .28.22.51.5.51h2c.28 0 .5-.22.5-.5v-8.25c0-.1381.1119-.25.25-.25h7.75c.6885 0 1.338-.1403 1.9348-.3864.1206-.0497.2592.0207.287.1481.1729.7905.4365 1.5548.7982 2.2783l.85 1.71c.09.16.13.35.13.53v2.04.08 2.03c0 .31.25.57.57.57h1.93c.28 0 .5-.22.5-.5l-.01-14.21c.37.31 1.01.08 1.01-.44 0-.13-.04-.26-.12-.36z" fill="url(#L)"/><path d="m29.88 14.4744-3-4.03-1.11-1.55003c-.87-1.22-2.69-1.22-3.56 0l-1.21 1.70003c-.25.35-.77.35-1.02 0l-1.21-1.70003c-.87-1.22-2.69-1.22-3.56 0l-2.27 3.17003c-.28.42-.93.22-.94-.28v-7.07002-.23-1.73001-.49999c0-.15-.13-.27-.28-.27-.95 0-1.72 1.27-1.72 2.23 0 .15-.13.27-.28.27h-4.21c-1.94 0-3.51 1.57-3.51 3.51v.87c0 .62.5 1.12 1.12 1.12h2.94c.52-.01.94.41002.94.93002v2.38c0 2.67 1.47 5.01 3.64 6.25.22.13.36.36.36.62v1.13.37 3.32 1 .57 2.92c0 .28.22.51.5.51h2c.28 0 .5-.22.5-.5v-8.25c0-.1381.1119-.25.25-.25h7.75c.6885 0 1.338-.1403 1.9348-.3864.1206-.0497.2592.0207.287.1481.1729.7905.4365 1.5548.7982 2.2783l.85 1.71c.09.16.13.35.13.53v2.04.08 2.03c0 .31.25.57.57.57h1.93c.28 0 .5-.22.5-.5l-.01-14.21c.37.31 1.01.08 1.01-.44 0-.13-.04-.26-.12-.36z" fill="url(#M)"/><path d="m7.36676 7.80439c-.28 0-.5-.22-.5-.5v-.87c0-.28.22-.5.5-.5s.5.22.5.5v.88c0 .27-.22.49-.5.49z" fill="url(#N)"/><path d="m7.36676 7.80439c-.28 0-.5-.22-.5-.5v-.87c0-.28.22-.5.5-.5s.5.22.5.5v.88c0 .27-.22.49-.5.49z" fill="url(#O)"/><path d="m7.36676 7.80439c-.28 0-.5-.22-.5-.5v-.87c0-.28.22-.5.5-.5s.5.22.5.5v.88c0 .27-.22.49-.5.49z" fill="url(#P)"/><path d="m3.36676 8.98437c-.28 0-.5-.22-.5-.5v-.44c0-.28.22-.5.5-.5s.5.22.5.5v.44c0 .28-.22.5-.5.5z" fill="url(#Q)"/><path d="m11.0074 20.207c0-.5-.3164-.5859-.711-.8789 0-1.1875.961-3.3281 2.2422-3.3281 1.2813 0 1.4688 1.9688 1.4688 2.7812v10.7032c0 .28-.22.5-.5.5h-2c-.28 0-.5-.22-.5-.5z" fill="url(#R)"/><path d="m11.0074 20.207c0-.5-.3164-.5859-.711-.8789 0-1.1875.961-3.3281 2.2422-3.3281 1.2813 0 1.4688 1.9688 1.4688 2.7812v10.7032c0 .28-.22.5-.5.5h-2c-.28 0-.5-.22-.5-.5z" fill="url(#S)"/><path d="m28.9896 29.5881c.0001-.0033.0001-.0067.0001-.01v-14.7656c-1.7187 0-4.83 2.4687-4.83 5.7757.004.0207.0081.0414.0122.0621.024.0259.0418.0584.0499.0958.1729.7905.4365 1.5548.7982 2.2783l.85 1.71c.09.16.13.35.13.53v4.15c0 .31.25.57.57.57h1.93c.2443 0 .443-.1676.4896-.3963z" fill="url(#T)"/><path d="m28.9896 29.5881c.0001-.0033.0001-.0067.0001-.01v-14.7656c-1.7187 0-4.83 2.4687-4.83 5.7757.004.0207.0081.0414.0122.0621.024.0259.0418.0584.0499.0958.1729.7905.4365 1.5548.7982 2.2783l.85 1.71c.09.16.13.35.13.53v4.15c0 .31.25.57.57.57h1.93c.2443 0 .443-.1676.4896-.3963z" fill="url(#U)"/><g filter="url(#a)"><path d="m20.5946 16.3738-3.9778-8.1094c.7141 0 1.3867.33498 1.817.9048l2.1608 2.8616z" fill="url(#V)"/></g><g filter="url(#b)"><path d="m24.4205 9.23512v6.70758l4.0625 4.5486v-6.5278l-3.6116-4.87716c-.1434-.1937-.4509-.09225-.4509.14878z" fill="url(#W)"/></g><g clip-rule="evenodd" fill-rule="evenodd"><path d="m24.2261 20.7657v-5.9532h-10.2187v6.3613c.0271-.1088.1254-.1894.2426-.1894h7.75c.6885 0 1.338-.1403 1.9348-.3864.1206-.0497.2592.0207.287.1481.0015.0066.0029.0131.0043.0196z" fill="url(#X)"/><path d="m24.2261 20.7657v-5.9532h-10.2187v6.3613c.0271-.1088.1254-.1894.2426-.1894h7.75c.6885 0 1.338-.1403 1.9348-.3864.1206-.0497.2592.0207.287.1481.0015.0066.0029.0131.0043.0196z" fill="url(#Y)"/><path d="m24.2261 20.7657v-5.9532h-10.2187v6.3613c.0271-.1088.1254-.1894.2426-.1894h7.75c.6885 0 1.338-.1403 1.9348-.3864.1206-.0497.2592.0207.287.1481.0015.0066.0029.0131.0043.0196z" fill="url(#Z)"/></g><g filter="url(#c)"><path d="m11.6792 11.8281v-9.28122c-.85.52499-1.0208 6.40624-1 9.28122z" fill="url(#ab)"/></g><g filter="url(#d)"><rect fill="url(#ac)" height="5.95312" rx=".687497" width="1.37499" x="10.1793" y="7.1875"/></g><g filter="url(#e)"><path d="m12.7068 18.5469h.660004v10.4375h-.660004z" fill="#feb98c"/></g><g filter="url(#f)"><path d="m27.7032 15.1905h.660004v13.9944h-.660004z" fill="url(#ad)"/></g><g filter="url(#g)"><path d="m15.523 21.1406 1.9688 8.1563" stroke="url(#af)" stroke-width=".5"/></g><g filter="url(#h)"><path d="m23.3043 21.1406-1.9688 8.1563" stroke="url(#ag)" stroke-width=".5"/></g><g filter="url(#i)"><path d="m13.398 17.6562c.2031.3959.6094 1.5188.6094 2.8438" stroke="#feb98c" stroke-linecap="round" stroke-width=".3"/></g></svg>