<svg fill="none" height="32" viewBox="0 0 32 32" width="32" xmlns="http://www.w3.org/2000/svg"><path d="m21.9982 16.635c.025-.313-.2117-.635-.6102-.635h-10.2831c-.3337 0-.5532.2364-.5969.5h-.008s-8 1.9801-8.5 13.5h2l12-3 12 3h2c-.4242-10.1965-6.2454-12.8028-8.0018-13.365z" fill="#f8312f"/><path d="m8 30-1.5-5.5 1.5-5.6451c.7607-.772 1.62204-1.4406 2.5772-1.9734.0448.0753.1098.1432.1969.1973l5.2259 3.4212 5.7188-3.4212c.0071-.0044.014-.0089.0208-.0136.8297.4999 1.5847 1.104 2.2604 1.7897l1.5 5.6451-1.5 5.5z" fill="#007acf"/><g fill="#0092e7"><path d="m8 30v-11.1451c-2.57783 2.6161-4 6.4194-4 10.1451v1z"/><path d="m24 18.8549v11.1451h4v-1c0-3.7257-1.4222-7.529-4-10.1451z"/><path d="m13.3317 23h5.3366c.7912 0 1.269.8752.8412 1.5408l-2.6683 4.1507c-.3937.6123-1.2887.6123-1.6824 0l-2.6683-4.1507c-.4278-.6656.05-1.5408.8412-1.5408z"/></g><path d="m15.97 20.93c.5523 0 1-.4477 1-1s-.4477-1-1-1-1 .4477-1 1 .4477 1 1 1z" fill="#fcd53f"/><path d="m16 18.5c-1.1068 0-2-.9641-2-2.1587v-2.6826c0-1.1946.8932-2.1587 2-2.1587s2 .9641 2 2.1587v2.6826c0 1.1946-.8932 2.1587-2 2.1587z" fill="#fcb100"/><path d="m12.7702 10.59c0 .9224-.7477 1.67-1.67 1.67s-1.67002-.7476-1.67002-1.67c0-.92227.74772-1.66996 1.67002-1.66996s1.67.74769 1.67 1.66996z" fill="#fdbb11"/><path d="m22.5601 10.59c0 .9224-.7477 1.67-1.67 1.67s-1.67-.7476-1.67-1.67c0-.92227.7477-1.66996 1.67-1.66996s1.67.74769 1.67 1.66996z" fill="#fdbb11"/><path d="m15.5542 3c-2.7863 0-4.985 2.40916-4.7925 5.24225l.0293.42141.709 1.33634-.5261 1.3015.183 2.6379c.1722 1.7888 1.5502 3.0606 3.2321 3.0606h3.222c1.6819 0 3.0599-1.2718 3.2321-3.0606l.182-2.6242-.5251-1.3152.7071-1.30913.0312-.44862c.1925-2.83309-2.0062-5.24225-4.7925-5.24225z" fill="#ffc83d"/><path d="m16.0005 13.7058c-.5505 0-1.0704-.1388-1.5087-.3844-.1529-.0855-.3058.0961-.2141.2456.367.5873.999.9824 1.7228.9824s1.3558-.3951 1.7228-.9824c.0918-.1495-.0713-.3204-.214-.2456-.4486.2456-.9583.3844-1.5088.3844z" fill="#990839"/><path d="m21.22 4.3278-.42-.21c-.3-.15-.57-.34-.8-.58l-.82-.81c-.61-.61-1.52-.82-2.34-.53-.53.19-1.11.19-1.64 0-.72-.36-1.59-.22-2.15.35l-1 1c-.24.23-.51.43-.8.58l-.42.2c-.77.38-1.19997 1.23-1.03997 2.08l.55997 3.05c.06.31.32.53.62.54 0 0-.06-.87-.09-1.43-.02-.29.1-.57.31-.76l.18-.16c.25-.22.39-.54.39-.88v-.85c0-.24.16-.45.4-.51.63-.16 1.98-.43 3.86-.43s3.23.27 3.86.43c.24.06.4.27.4.51v.85c0 .33.14.65.39.88l.19.17c.21.19.33.47.31.76-.03.56-.09 1.42-.09 1.42.3-.02.56-.24.61-.54l.56-3.05c.16-.85-.26-1.7-1.03-2.08z" fill="#f1a11e"/><path d="m8 18.8549v11.1451h-4v-1c0-3.7257 1.42217-7.529 4-10.1451z" fill="#0092e7"/><path d="m24 30v-11.1451c2.5778 2.6161 4 6.4194 4 10.1451v1z" fill="#0092e7"/><path d="m20.6726 8.67764h.5354l-.1845 2.65996h-.4487c-.186 0-.3621.04-.5285.12l-.2642.12-.2348.09-.1762.06c-.411.15-.8709.16-1.2917.04l-.3033-.09c-.1175-.03-.2349-.08-.3425-.13l-.2055-.1c-.1664-.08-.3425-.12-.5285-.12h-1.4384c-.186 0-.3621.04-.5285.12l-.225.11c-.0979.05-.2055.09-.3132.12l-.274.08c-.4208.12-.8709.11-1.2917-.02l-.2153-.07c-.088-.03-.1761-.07-.2642-.11l-.2446-.12c-.1664-.08-.3425-.12-.5284-.12h-.4013l-.1845-2.65996h.4781c.2544 0 .4991-.08.7144-.22l.0293-.03c.1859-.12.3817-.22.5872-.29l.0391-.01c.4208-.14.8709-.14 1.2917-.02l.0881.03c.225.07.4403.17.636.31l.0098.01c.2055.14.4502.22.7046.22h1.2134c.2544 0 .4991-.07.7046-.22s.4306-.25.6654-.32l.1272-.03c.4208-.12.8709-.11 1.2917.04.1957.07.3817.16.548.28l.049.03c.2152.14.4599.22.7045.24z" fill="#f8312f"/><path d="m15.6541 10.2897-.4958 1.7385c-.1029.3558.1403.7218.4864.7218h.7296c.3461 0 .5893-.366.4864-.7218l-.4957-1.7385c-.1029-.38628-.5987-.38628-.7109 0z" fill="#ed9200"/><path d="m12.1802 10.28c.15-.62005.71-1.08005 1.38-1.08005.7 0 1.27.49 1.4 1.15005.03.15-.08.28-.23.28h-2.28c-.18 0-.32-.18-.27-.35z" fill="#fff"/><path d="m19.8301 10.28c-.15-.62005-.71-1.08005-1.38-1.08005-.7 0-1.27.49-1.4 1.15005-.03.15.08.28.23.28h2.28c.18 0 .31-.17.27-.35z" fill="#fff"/><path d="m12.8599 10.39c0-.50002.41-.91002.91-.91002.51 0 .92.41.91.91002 0 .08-.01.16-.03.24h-1.76c-.02-.08-.03-.16-.03-.24z" fill="#7d4533"/><path d="m19.1498 10.39c0-.50002-.41-.91002-.91-.91002-.51 0-.91.41-.91.91002 0 .08.01.16.03.24h1.76c.02-.08.03-.16.03-.24z" fill="#7d4533"/><path d="m13.77 9.87c.29 0 .52.23.52.52 0 .09-.02.17-.06.24h-.92c-.04-.07-.06-.15-.06-.24 0-.29.23-.52.52-.52z" fill="#000"/><path d="m18.24 9.87c-.29 0-.52.23-.52.52 0 .09.02.17.06.24h.92c.04-.07.06-.15.06-.24 0-.29-.23-.52-.52-.52z" fill="#000"/><path d="m13.62 10.02c0 .0884-.0716.16-.16.16-.0883 0-.16-.0716-.16-.16 0-.08838.0717-.16001.16-.16001.0884 0 .16.07163.16.16001z" fill="#fff"/><path d="m18.12 10.02c0 .0884-.0716.16-.16.16-.0883 0-.16-.0716-.16-.16 0-.08838.0717-.16001.16-.16001.0884 0 .16.07163.16.16001z" fill="#fff"/></svg>