<svg fill="none" height="32" viewBox="0 0 32 32" width="32" xmlns="http://www.w3.org/2000/svg" xmlns:xlink="http://www.w3.org/1999/xlink"><filter id="a" color-interpolation-filters="sRGB" filterUnits="userSpaceOnUse" height="14" width="27" x="2.5" y="7.5"><feFlood flood-opacity="0" result="BackgroundImageFix"/><feBlend in="SourceGraphic" in2="BackgroundImageFix" mode="normal" result="shape"/><feColorMatrix in="SourceAlpha" result="hardAlpha" type="matrix" values="0 0 0 0 0 0 0 0 0 0 0 0 0 0 0 0 0 0 127 0"/><feOffset dx=".5" dy="-.5"/><feGaussianBlur stdDeviation=".375"/><feComposite in2="hardAlpha" k2="-1" k3="1" operator="arithmetic"/><feColorMatrix type="matrix" values="0 0 0 0 0.831373 0 0 0 0 0.494118 0 0 0 0 0.282353 0 0 0 1 0"/><feBlend in2="shape" mode="normal" result="effect1_innerShadow_18_12057"/><feColorMatrix in="SourceAlpha" result="hardAlpha" type="matrix" values="0 0 0 0 0 0 0 0 0 0 0 0 0 0 0 0 0 0 127 0"/><feOffset dx="-.5" dy=".5"/><feGaussianBlur stdDeviation=".375"/><feComposite in2="hardAlpha" k2="-1" k3="1" operator="arithmetic"/><feColorMatrix type="matrix" values="0 0 0 0 1 0 0 0 0 1 0 0 0 0 0.415686 0 0 0 1 0"/><feBlend in2="effect1_innerShadow_18_12057" mode="normal" result="effect2_innerShadow_18_12057"/></filter><filter id="b" color-interpolation-filters="sRGB" filterUnits="userSpaceOnUse" height="9.3" width="1.77473" x="6.45938" y="20.85"><feFlood flood-opacity="0" result="BackgroundImageFix"/><feBlend in="SourceGraphic" in2="BackgroundImageFix" mode="normal" result="shape"/><feGaussianBlur result="effect1_foregroundBlur_18_12057" stdDeviation=".325"/></filter><filter id="c" color-interpolation-filters="sRGB" filterUnits="userSpaceOnUse" height="9.3" width="1.77473" x="24.35" y="20.85"><feFlood flood-opacity="0" result="BackgroundImageFix"/><feBlend in="SourceGraphic" in2="BackgroundImageFix" mode="normal" result="shape"/><feGaussianBlur result="effect1_foregroundBlur_18_12057" stdDeviation=".325"/></filter><linearGradient id="d" gradientUnits="userSpaceOnUse" x1="25.8457" x2="8.5" y1="9.98514" y2="18.625"><stop offset="0" stop-color="#f7d142"/><stop offset="1" stop-color="#fcb545"/></linearGradient><linearGradient id="e" gradientUnits="userSpaceOnUse" x1="3" x2="3.79" y1="14.0109" y2="14.0109"><stop offset="0" stop-color="#a57c4b"/><stop offset="1" stop-color="#a57c4b" stop-opacity="0"/></linearGradient><radialGradient id="f" cx="0" cy="0" gradientTransform="matrix(12.0629 0 0 1.90436 4.68831 8)" gradientUnits="userSpaceOnUse" r="1"><stop offset=".135638" stop-color="#fbbc43"/><stop offset="1" stop-color="#fbbc43" stop-opacity="0"/></radialGradient><linearGradient id="g"><stop offset="0" stop-color="#353138"/><stop offset="1" stop-color="#503b62"/></linearGradient><linearGradient id="h" gradientUnits="userSpaceOnUse" x1="27.6071" x2="18.4096" xlink:href="#g" y1="11.5249" y2="17.9823"/><linearGradient id="i"><stop offset="0" stop-color="#4b2867"/><stop offset="1" stop-color="#4b2867" stop-opacity="0"/></linearGradient><linearGradient id="j" gradientUnits="userSpaceOnUse" x1="22.0781" x2="22.0781" xlink:href="#i" y1="20.9999" y2="20.3116"/><linearGradient id="k" gradientUnits="userSpaceOnUse" x1="29" x2="25.7434" y1="14.4905" y2="14.4905"><stop offset="0" stop-color="#353139"/><stop offset=".166461" stop-color="#413d46"/><stop offset=".455618" stop-color="#413d46" stop-opacity="0"/></linearGradient><linearGradient id="l" gradientUnits="userSpaceOnUse" x1="24.836" x2="11.4256" xlink:href="#g" y1="8" y2="21"/><linearGradient id="m" gradientUnits="userSpaceOnUse" x1="14.3616" x2="14.3616" xlink:href="#i" y1="21" y2="20.0557"/><linearGradient id="n"><stop offset="0" stop-color="#353139"/><stop offset=".166461" stop-color="#413d46"/><stop offset=".422206" stop-color="#413d46" stop-opacity="0"/></linearGradient><linearGradient id="o" gradientUnits="userSpaceOnUse" x1="23.3427" x2="23.3427" xlink:href="#n" y1="8" y2="12.0689"/><linearGradient id="p" gradientUnits="userSpaceOnUse" x1="15.3468" x2="2.32672" xlink:href="#g" y1="8" y2="18.1782"/><linearGradient id="q" gradientUnits="userSpaceOnUse" x1="6.90025" x2="6.90025" xlink:href="#i" y1="21" y2="20.0557"/><linearGradient id="r" gradientUnits="userSpaceOnUse" x1="14.1427" x2="14.1427" xlink:href="#n" y1="8" y2="12.0689"/><linearGradient id="s"><stop offset="0" stop-color="#2f2c32"/><stop offset="1" stop-color="#2f2c32" stop-opacity="0"/></linearGradient><linearGradient id="t" gradientUnits="userSpaceOnUse" x1="3" x2="3.75" xlink:href="#s" y1="15.1145" y2="15.1145"/><linearGradient id="u" gradientUnits="userSpaceOnUse" x1="6.81693" x2="2.47324" xlink:href="#g" y1="8" y2="11.0496"/><linearGradient id="v" gradientUnits="userSpaceOnUse" x1="6.44467" x2="6.44467" xlink:href="#n" y1="8" y2="9.40056"/><linearGradient id="w" gradientUnits="userSpaceOnUse" x1="3" x2="4" xlink:href="#s" y1="10.4489" y2="10.4489"/><linearGradient id="x"><stop offset="0" stop-color="#857c8c"/><stop offset="1" stop-color="#b9a7c4"/></linearGradient><linearGradient id="y" gradientUnits="userSpaceOnUse" x1="24" x2="25" xlink:href="#x" y1="23.9375" y2="23.9375"/><linearGradient id="z"><stop offset=".912727" stop-color="#7e5e91" stop-opacity="0"/><stop offset=".992895" stop-color="#7e5e91"/></linearGradient><radialGradient id="A" cx="0" cy="0" gradientTransform="matrix(0 -8.79687 5.25369 0 25 29.5937)" gradientUnits="userSpaceOnUse" r="1" xlink:href="#z"/><linearGradient id="B" gradientUnits="userSpaceOnUse" x1="6" x2="7" xlink:href="#x" y1="23.9375" y2="23.9375"/><radialGradient id="C" cx="0" cy="0" gradientTransform="matrix(0 -8.79687 5.25369 0 7 29.5937)" gradientUnits="userSpaceOnUse" r="1" xlink:href="#z"/><linearGradient id="D"><stop offset=".5625" stop-color="#cb1e72"/><stop offset="1" stop-color="#e61c31"/></linearGradient><linearGradient id="E" gradientUnits="userSpaceOnUse" x1="7.5" x2="7.5" xlink:href="#D" y1="6" y2="8"/><linearGradient id="F" gradientUnits="userSpaceOnUse" x1="24.5" x2="24.5" xlink:href="#D" y1="6" y2="8"/><g filter="url(#a)"><path d="m3 9c0-.55228.44772-1 1-1h24c.5523 0 1 .44772 1 1v11c0 .5523-.4477 1-1 1h-24c-.55228 0-1-.4477-1-1z" fill="url(#d)"/></g><path d="m3 9c0-.55228.44772-1 1-1h24c.5523 0 1 .44772 1 1v11c0 .5523-.4477 1-1 1h-24c-.55228 0-1-.4477-1-1z" fill="url(#e)"/><path d="m3 9c0-.55228.44772-1 1-1h24c.5523 0 1 .44772 1 1v11c0 .5523-.4477 1-1 1h-24c-.55228 0-1-.4477-1-1z" fill="url(#f)"/><g clip-rule="evenodd" fill-rule="evenodd"><path d="m24.4748 20.9999h-4.9498l9.475-9.475v4.9497z" fill="url(#h)"/><path d="m24.4748 20.9999h-4.9498l9.475-9.475v4.9497z" fill="url(#j)"/><path d="m24.4748 20.9999h-4.9498l9.475-9.475v4.9497z" fill="url(#k)"/><path d="m14.4748 21h-4.94978l12.99998-13h4.9498z" fill="url(#l)"/><path d="m14.4748 21h-4.94978l12.99998-13h4.9498z" fill="url(#m)"/><path d="m14.4748 21h-4.94978l12.99998-13h4.9498z" fill="url(#o)"/><path d="m4.47476 21h-.47476c-.55228 0-1-.4477-1-1v-2.475l9.525-9.525h4.9498z" fill="url(#p)"/><path d="m4.47476 21h-.47476c-.55228 0-1-.4477-1-1v-2.475l9.525-9.525h4.9498z" fill="url(#q)"/><path d="m4.47476 21h-.47476c-.55228 0-1-.4477-1-1v-2.475l9.525-9.525h4.9498z" fill="url(#r)"/><path d="m4.47476 21h-.47476c-.55228 0-1-.4477-1-1v-2.475l9.525-9.525h4.9498z" fill="url(#t)"/><path d="m7.47476 8h-3.47476c-.55228 0-1 .44772-1 1v3.4748z" fill="url(#u)"/><path d="m7.47476 8h-3.47476c-.55228 0-1 .44772-1 1v3.4748z" fill="url(#v)"/><path d="m7.47476 8h-3.47476c-.55228 0-1 .44772-1 1v3.4748z" fill="url(#w)"/><path d="m26 21h-2v9h2z" fill="url(#y)"/><path d="m26 21h-2v9h2z" fill="url(#A)"/><path d="m8 21h-2v9h2z" fill="url(#B)"/><path d="m8 21h-2v9h2z" fill="url(#C)"/></g><path d="m6 7.5c0-.82843.67157-1.5 1.5-1.5s1.5.67157 1.5 1.5v.5h-3z" fill="url(#E)"/><path d="m23 7.5c0-.82843.6716-1.5 1.5-1.5s1.5.67157 1.5 1.5v.5h-3z" fill="url(#F)"/><g filter="url(#b)"><rect fill="#dfd0e9" height="8" rx=".23738" width=".47476" x="7.10938" y="21.5"/></g><g filter="url(#c)"><rect fill="#dfd0e9" height="8" rx=".23738" width=".47476" x="25" y="21.5"/></g></svg>