<svg fill="none" height="32" viewBox="0 0 32 32" width="32" xmlns="http://www.w3.org/2000/svg" xmlns:xlink="http://www.w3.org/1999/xlink"><filter id="a" color-interpolation-filters="sRGB" filterUnits="userSpaceOnUse" height="6.55322" width="6.5531" x="21.8022" y="14.5298"><feFlood flood-opacity="0" result="BackgroundImageFix"/><feBlend in="SourceGraphic" in2="BackgroundImageFix" mode="normal" result="shape"/><feColorMatrix in="SourceAlpha" result="hardAlpha" type="matrix" values="0 0 0 0 0 0 0 0 0 0 0 0 0 0 0 0 0 0 127 0"/><feOffset dx=".25" dy="-.25"/><feGaussianBlur stdDeviation=".25"/><feComposite in2="hardAlpha" k2="-1" k3="1" operator="arithmetic"/><feColorMatrix type="matrix" values="0 0 0 0 0.584314 0 0 0 0 0.368627 0 0 0 0 0.470588 0 0 0 1 0"/><feBlend in2="shape" mode="normal" result="effect1_innerShadow_3987_20108"/></filter><filter id="b" color-interpolation-filters="sRGB" filterUnits="userSpaceOnUse" height="4.99072" width="4.9906" x="22.4585" y="15.436"><feFlood flood-opacity="0" result="BackgroundImageFix"/><feBlend in="SourceGraphic" in2="BackgroundImageFix" mode="normal" result="shape"/><feGaussianBlur result="effect1_foregroundBlur_3987_20108" stdDeviation=".25"/></filter><filter id="c" color-interpolation-filters="sRGB" filterUnits="userSpaceOnUse" height="6.30322" width="6.5031" x="4.06689" y="14.7798"><feFlood flood-opacity="0" result="BackgroundImageFix"/><feBlend in="SourceGraphic" in2="BackgroundImageFix" mode="normal" result="shape"/><feColorMatrix in="SourceAlpha" result="hardAlpha" type="matrix" values="0 0 0 0 0 0 0 0 0 0 0 0 0 0 0 0 0 0 127 0"/><feOffset dx=".2"/><feGaussianBlur stdDeviation=".15"/><feComposite in2="hardAlpha" k2="-1" k3="1" operator="arithmetic"/><feColorMatrix type="matrix" values="0 0 0 0 0.619608 0 0 0 0 0.470588 0 0 0 0 0.407843 0 0 0 1 0"/><feBlend in2="shape" mode="normal" result="effect1_innerShadow_3987_20108"/></filter><filter id="d" color-interpolation-filters="sRGB" filterUnits="userSpaceOnUse" height="4.99072" width="4.9906" x="4.72314" y="15.436"><feFlood flood-opacity="0" result="BackgroundImageFix"/><feBlend in="SourceGraphic" in2="BackgroundImageFix" mode="normal" result="shape"/><feGaussianBlur result="effect1_foregroundBlur_3987_20108" stdDeviation=".25"/></filter><filter id="e" color-interpolation-filters="sRGB" filterUnits="userSpaceOnUse" height="25.5" width="20.7928" x="6.10413" y="4.34229"><feFlood flood-opacity="0" result="BackgroundImageFix"/><feBlend in="SourceGraphic" in2="BackgroundImageFix" mode="normal" result="shape"/><feColorMatrix in="SourceAlpha" result="hardAlpha" type="matrix" values="0 0 0 0 0 0 0 0 0 0 0 0 0 0 0 0 0 0 127 0"/><feOffset dx="1"/><feGaussianBlur stdDeviation=".75"/><feComposite in2="hardAlpha" k2="-1" k3="1" operator="arithmetic"/><feColorMatrix type="matrix" values="0 0 0 0 0.603922 0 0 0 0 0.454902 0 0 0 0 0.407843 0 0 0 1 0"/><feBlend in2="shape" mode="normal" result="effect1_innerShadow_3987_20108"/><feColorMatrix in="SourceAlpha" result="hardAlpha" type="matrix" values="0 0 0 0 0 0 0 0 0 0 0 0 0 0 0 0 0 0 127 0"/><feOffset dx="-.25"/><feGaussianBlur stdDeviation=".375"/><feComposite in2="hardAlpha" k2="-1" k3="1" operator="arithmetic"/><feColorMatrix type="matrix" values="0 0 0 0 0.772549 0 0 0 0 0.635294 0 0 0 0 0.52549 0 0 0 1 0"/><feBlend in2="effect1_innerShadow_3987_20108" mode="normal" result="effect2_innerShadow_3987_20108"/></filter><filter id="f" color-interpolation-filters="sRGB" filterUnits="userSpaceOnUse" height="9.71899" width="11.9183" x="15.0355" y="6.41211"><feFlood flood-opacity="0" result="BackgroundImageFix"/><feBlend in="SourceGraphic" in2="BackgroundImageFix" mode="normal" result="shape"/><feGaussianBlur result="effect1_foregroundBlur_3987_20108" stdDeviation="1"/></filter><filter id="g" color-interpolation-filters="sRGB" filterUnits="userSpaceOnUse" height="6.4082" width="4.79626" x="13.2719" y="16.468"><feFlood flood-opacity="0" result="BackgroundImageFix"/><feBlend in="SourceGraphic" in2="BackgroundImageFix" mode="normal" result="shape"/><feGaussianBlur result="effect1_foregroundBlur_3987_20108" stdDeviation=".375"/></filter><filter id="h" color-interpolation-filters="sRGB" filterUnits="userSpaceOnUse" height="5.4082" width="3.79626" x="14.2719" y="16.6924"><feFlood flood-opacity="0" result="BackgroundImageFix"/><feBlend in="SourceGraphic" in2="BackgroundImageFix" mode="normal" result="shape"/><feGaussianBlur result="effect1_foregroundBlur_3987_20108" stdDeviation=".125"/></filter><filter id="i" color-interpolation-filters="sRGB" filterUnits="userSpaceOnUse" height="9.2" width="4.3" x="23.17" y="7.64229"><feFlood flood-opacity="0" result="BackgroundImageFix"/><feBlend in="SourceGraphic" in2="BackgroundImageFix" mode="normal" result="shape"/><feColorMatrix in="SourceAlpha" result="hardAlpha" type="matrix" values="0 0 0 0 0 0 0 0 0 0 0 0 0 0 0 0 0 0 127 0"/><feOffset dx=".3" dy="-.2"/><feGaussianBlur stdDeviation=".25"/><feComposite in2="hardAlpha" k2="-1" k3="1" operator="arithmetic"/><feColorMatrix type="matrix" values="0 0 0 0 0.580392 0 0 0 0 0.568627 0 0 0 0 0.556863 0 0 0 1 0"/><feBlend in2="shape" mode="normal" result="effect1_innerShadow_3987_20108"/></filter><filter id="j" color-interpolation-filters="sRGB" filterUnits="userSpaceOnUse" height="1.5936" width="1.4932" x="12.2447" y="16.2036"><feFlood flood-opacity="0" result="BackgroundImageFix"/><feBlend in="SourceGraphic" in2="BackgroundImageFix" mode="normal" result="shape"/><feGaussianBlur result="effect1_foregroundBlur_3987_20108" stdDeviation=".1"/></filter><filter id="k" color-interpolation-filters="sRGB" filterUnits="userSpaceOnUse" height="1.14067" width="1.52947" x="10.7509" y="16.0802"><feFlood flood-opacity="0" result="BackgroundImageFix"/><feBlend in="SourceGraphic" in2="BackgroundImageFix" mode="normal" result="shape"/><feGaussianBlur result="effect1_foregroundBlur_3987_20108" stdDeviation=".05"/></filter><filter id="l" color-interpolation-filters="sRGB" filterUnits="userSpaceOnUse" height="1.12529" width="1.29406" x="18.8755" y="16.0953"><feFlood flood-opacity="0" result="BackgroundImageFix"/><feBlend in="SourceGraphic" in2="BackgroundImageFix" mode="normal" result="shape"/><feGaussianBlur result="effect1_foregroundBlur_3987_20108" stdDeviation=".05"/></filter><filter id="m" color-interpolation-filters="sRGB" filterUnits="userSpaceOnUse" height="1.35728" width="1.31583" x="20.5278" y="16.3217"><feFlood flood-opacity="0" result="BackgroundImageFix"/><feBlend in="SourceGraphic" in2="BackgroundImageFix" mode="normal" result="shape"/><feGaussianBlur result="effect1_foregroundBlur_3987_20108" stdDeviation=".1"/></filter><filter id="n" color-interpolation-filters="sRGB" filterUnits="userSpaceOnUse" height="3.00034" width="5.21418" x="18.5136" y="11.5294"><feFlood flood-opacity="0" result="BackgroundImageFix"/><feBlend in="SourceGraphic" in2="BackgroundImageFix" mode="normal" result="shape"/><feColorMatrix in="SourceAlpha" result="hardAlpha" type="matrix" values="0 0 0 0 0 0 0 0 0 0 0 0 0 0 0 0 0 0 127 0"/><feOffset dx=".3" dy="-.4"/><feGaussianBlur stdDeviation=".3"/><feComposite in2="hardAlpha" k2="-1" k3="1" operator="arithmetic"/><feColorMatrix type="matrix" values="0 0 0 0 0.345098 0 0 0 0 0.305882 0 0 0 0 0.368627 0 0 0 1 0"/><feBlend in2="shape" mode="normal" result="effect1_innerShadow_3987_20108"/></filter><filter id="o" color-interpolation-filters="sRGB" filterUnits="userSpaceOnUse" height="2.06147" width="4.45784" x="18.7887" y="11.9198"><feFlood flood-opacity="0" result="BackgroundImageFix"/><feBlend in="SourceGraphic" in2="BackgroundImageFix" mode="normal" result="shape"/><feGaussianBlur result="effect1_foregroundBlur_3987_20108" stdDeviation=".2"/></filter><filter id="p" color-interpolation-filters="sRGB" filterUnits="userSpaceOnUse" height="3.00034" width="5.21418" x="8.91217" y="11.5294"><feFlood flood-opacity="0" result="BackgroundImageFix"/><feBlend in="SourceGraphic" in2="BackgroundImageFix" mode="normal" result="shape"/><feColorMatrix in="SourceAlpha" result="hardAlpha" type="matrix" values="0 0 0 0 0 0 0 0 0 0 0 0 0 0 0 0 0 0 127 0"/><feOffset dx=".3" dy="-.4"/><feGaussianBlur stdDeviation=".3"/><feComposite in2="hardAlpha" k2="-1" k3="1" operator="arithmetic"/><feColorMatrix type="matrix" values="0 0 0 0 0.345098 0 0 0 0 0.305882 0 0 0 0 0.368627 0 0 0 1 0"/><feBlend in2="shape" mode="normal" result="effect1_innerShadow_3987_20108"/></filter><filter id="q" color-interpolation-filters="sRGB" filterUnits="userSpaceOnUse" height="2.06147" width="4.45784" x="9.09341" y="11.9198"><feFlood flood-opacity="0" result="BackgroundImageFix"/><feBlend in="SourceGraphic" in2="BackgroundImageFix" mode="normal" result="shape"/><feGaussianBlur result="effect1_foregroundBlur_3987_20108" stdDeviation=".2"/></filter><linearGradient id="r" gradientUnits="userSpaceOnUse" x1="27.0047" x2="25.4592" y1="15.8707" y2="20.6587"><stop offset="0" stop-color="#cca68c"/><stop offset="1" stop-color="#ae7f75"/></linearGradient><radialGradient id="s" cx="0" cy="0" gradientTransform="matrix(1.56062641 -1.136377 1.29702213 1.78124601 25.6562 17.4314)" gradientUnits="userSpaceOnUse" r="1"><stop offset=".542503" stop-color="#8f6459"/><stop offset="1" stop-color="#8f6459" stop-opacity="0"/></radialGradient><radialGradient id="t" cx="0" cy="0" gradientTransform="matrix(1.64694284 -3.02919254 1.77299431 .96395995 24.8709 19.5783)" gradientUnits="userSpaceOnUse" r="1"><stop offset=".754913" stop-color="#8a5d55" stop-opacity="0"/><stop offset=".915553" stop-color="#8a5d55"/></radialGradient><radialGradient id="u" cx="0" cy="0" gradientTransform="matrix(.51997234 .51469385 -.66351228 .670317 24.9538 17.9313)" gradientUnits="userSpaceOnUse" r="1"><stop offset="0" stop-color="#895f52"/><stop offset="1" stop-color="#895f52" stop-opacity="0"/></radialGradient><radialGradient id="v" cx="0" cy="0" gradientTransform="matrix(3.31277 0 0 5.79738 4.06689 17.9313)" gradientUnits="userSpaceOnUse" r="1"><stop offset=".350532" stop-color="#865d5f"/><stop offset="1" stop-color="#76594a"/></radialGradient><radialGradient id="w" cx="0" cy="0" gradientTransform="matrix(-1.79298886 -2.56255681 2.56255681 -1.79298886 7.21845 21.0829)" gradientUnits="userSpaceOnUse" r="1"><stop offset=".339551" stop-color="#834e63"/><stop offset="1" stop-color="#834e63" stop-opacity="0"/></radialGradient><linearGradient id="x" gradientUnits="userSpaceOnUse" x1="7.21843" x2="5.93386" y1="18.4901" y2="18.4901"><stop offset="0" stop-color="#694448"/><stop offset="1" stop-color="#6e464d"/></linearGradient><radialGradient id="y" cx="0" cy="0" gradientTransform="matrix(-15.06247967 8.00009709 -14.69378496 -27.66526891 22.4036 14.8423)" gradientUnits="userSpaceOnUse" r="1"><stop offset="0" stop-color="#c59980"/><stop offset=".840492" stop-color="#946866"/></radialGradient><radialGradient id="z" cx="0" cy="0" gradientTransform="matrix(-9.27860684 3.62504203 -4.65557493 -11.91634442 26.3411 8.40478)" gradientUnits="userSpaceOnUse" r="1"><stop offset="0" stop-color="#c8a283"/><stop offset="1" stop-color="#c8a283" stop-opacity="0"/></radialGradient><radialGradient id="A" cx="0" cy="0" gradientTransform="matrix(0 -2.625 3.09375 0 20.9349 15.6235)" gradientUnits="userSpaceOnUse" r="1"><stop offset="0" stop-color="#ab7772"/><stop offset="1" stop-color="#ab7772" stop-opacity="0"/></radialGradient><radialGradient id="B" cx="0" cy="0" gradientTransform="matrix(0 -3.3125 3.3125 0 11.75 15.9048)" gradientUnits="userSpaceOnUse" r="1"><stop offset=".172043" stop-color="#8f5c66"/><stop offset="1" stop-color="#8f5c66" stop-opacity="0"/></radialGradient><radialGradient id="C" cx="0" cy="0" gradientTransform="matrix(-2.35306757 -1.63195526 1.28996614 -1.85996367 24.9715 10.1894)" gradientUnits="userSpaceOnUse" r="1"><stop offset=".583699" stop-color="#8f6751"/><stop offset="1" stop-color="#8f6751" stop-opacity="0"/></radialGradient><radialGradient id="D" cx="0" cy="0" gradientTransform="matrix(-1.73065261 2.2853469 -1.98840407 -1.50578308 6.71982 10.5084)" gradientUnits="userSpaceOnUse" r="1"><stop offset=".475541" stop-color="#724c4b"/><stop offset="1" stop-color="#724c4b" stop-opacity="0"/></radialGradient><radialGradient id="E" cx="0" cy="0" gradientTransform="matrix(0 1.75 -4.63513 0 17.6875 3.96729)" gradientUnits="userSpaceOnUse" r="1"><stop offset="0" stop-color="#af9077"/><stop offset="1" stop-color="#af9077" stop-opacity="0"/></radialGradient><radialGradient id="F" cx="0" cy="0" gradientTransform="matrix(3.97576331 4.25652322 -7.55571621 7.05734182 9.46697 6.07441)" gradientUnits="userSpaceOnUse" r="1"><stop offset="0" stop-color="#8c705e"/><stop offset="1" stop-color="#8c705e" stop-opacity="0"/></radialGradient><radialGradient id="G" cx="0" cy="0" gradientTransform="matrix(0 -5.8125 26.0906 0 16.1255 29.8423)" gradientUnits="userSpaceOnUse" r="1"><stop offset="0" stop-color="#985682"/><stop offset="1" stop-color="#a46f79" stop-opacity="0"/></radialGradient><linearGradient id="H" gradientUnits="userSpaceOnUse" x1="15.7272" x2="30.9147" y1="14.061" y2="8.62352"><stop offset="0" stop-color="#c49b89"/><stop offset="1" stop-color="#c49b89" stop-opacity="0"/></linearGradient><linearGradient id="I" gradientUnits="userSpaceOnUse" x1="14.6522" x2="16.3" y1="19.9013" y2="19.9013"><stop offset="0" stop-color="#8b6455"/><stop offset="1" stop-color="#8b6455" stop-opacity="0"/></linearGradient><linearGradient id="J" gradientUnits="userSpaceOnUse" x1="17.8181" x2="16.0167" y1="20.4917" y2="20.467"><stop offset="0" stop-color="#cda186"/><stop offset="1" stop-color="#cda186" stop-opacity="0"/></linearGradient><linearGradient id="K" gradientUnits="userSpaceOnUse" x1="16.5116" x2="16.5116" y1="21.8505" y2="20.8015"><stop offset="0" stop-color="#9c6073"/><stop offset="1" stop-color="#9c6073" stop-opacity="0"/></linearGradient><radialGradient id="L" cx="0" cy="0" gradientTransform="matrix(0 .360441 -1.11102 0 16.7446 20.9226)" gradientUnits="userSpaceOnUse" r="1"><stop offset="0" stop-color="#c39787"/><stop offset="1" stop-color="#c39787" stop-opacity="0"/></radialGradient><radialGradient id="M" cx="0" cy="0" gradientTransform="matrix(-3.15779673 2.71872374 -5.21784397 -6.06052406 8.24738 8.84229)" gradientUnits="userSpaceOnUse" r="1"><stop offset="0" stop-color="#bbb6b3"/><stop offset="1" stop-color="#807680" stop-opacity="0"/></radialGradient><radialGradient id="N" cx="0" cy="0" gradientTransform="matrix(0 3.04688 -.951599 0 7.0896 14.686)" gradientUnits="userSpaceOnUse" r="1"><stop offset=".236994" stop-color="#735551"/><stop offset="1" stop-color="#735551" stop-opacity="0"/></radialGradient><radialGradient id="O" cx="0" cy="0" gradientTransform="matrix(1.98437722 -2.09375233 .72836519 .69031626 24.6224 13.1235)" gradientUnits="userSpaceOnUse" r="1"><stop offset=".230803" stop-color="#8f8286"/><stop offset="1" stop-color="#8f8286" stop-opacity="0"/></radialGradient><radialGradient id="P" cx="0" cy="0" gradientTransform="matrix(-1.46874533 2.62499724 -2.01353405 -1.12661785 25.9036 8.96729)" gradientUnits="userSpaceOnUse" r="1"><stop offset=".180134" stop-color="#c0bfc0"/><stop offset="1" stop-color="#c0bfc0" stop-opacity="0"/></radialGradient><radialGradient id="Q" cx="0" cy="0" gradientTransform="matrix(.32885941 -4.54687289 .85753399 .06202243 26.8411 16.2173)" gradientUnits="userSpaceOnUse" r="1"><stop offset="0" stop-color="#b1adb0"/><stop offset="1" stop-color="#b1adb0" stop-opacity="0"/></radialGradient><linearGradient id="R" gradientUnits="userSpaceOnUse" x1="14.2361" x2="15.0472" y1="24.7916" y2="23.5095"><stop offset="0" stop-color="#865e63"/><stop offset=".663171" stop-color="#865e63" stop-opacity="0"/></linearGradient><linearGradient id="S" gradientUnits="userSpaceOnUse" x1="13.17" x2="17.9375" y1="7.9856" y2="7.9856"><stop offset="0" stop-color="#91705e"/><stop offset="1" stop-color="#a07c67"/></linearGradient><linearGradient id="T" gradientUnits="userSpaceOnUse" x1="13.3125" x2="19.8437" y1="10.365" y2="10.365"><stop offset="0" stop-color="#8b685c"/><stop offset="1" stop-color="#a78271"/></linearGradient><linearGradient id="U"><stop offset=".75" stop-color="#7f584b"/><stop offset="1" stop-color="#694b43"/><stop offset="1" stop-color="#804d49"/><stop offset="1" stop-color="#5d4139"/></linearGradient><radialGradient id="V" cx="0" cy="0" gradientTransform="matrix(0 1.68433 -1.993 0 12.0215 17.4509)" gradientUnits="userSpaceOnUse" r="1" xlink:href="#U"/><linearGradient id="W"><stop offset="0" stop-color="#b4948d"/><stop offset="1" stop-color="#b4948d" stop-opacity="0"/></linearGradient><linearGradient id="X" gradientUnits="userSpaceOnUse" x1="13.4083" x2="12.8233" xlink:href="#W" y1="16.9295" y2="17.2899"/><linearGradient id="Y"><stop offset=".765532" stop-color="#ffe6e2" stop-opacity="0"/><stop offset=".966159" stop-color="#ffe6e2"/></linearGradient><radialGradient id="Z" cx="0" cy="0" gradientTransform="matrix(-.01442275 -.9211761 1.10729429 -.01733678 11.4875 17.2377)" gradientUnits="userSpaceOnUse" r="1" xlink:href="#Y"/><radialGradient id="aa" cx="0" cy="0" gradientTransform="matrix(0 1.68424 -1.9929 0 20.1578 17.4511)" gradientUnits="userSpaceOnUse" r="1" xlink:href="#U"/><radialGradient id="ab" cx="0" cy="0" gradientTransform="matrix(-.43239025 -.55719314 .76712139 -.59529772 19.7324 16.9858)" gradientUnits="userSpaceOnUse" r="1" xlink:href="#Y"/><linearGradient id="ac" gradientUnits="userSpaceOnUse" x1="21.6082" x2="21.0233" xlink:href="#W" y1="16.9294" y2="17.2899"/><linearGradient id="ad"><stop offset="0" stop-color="#a8a7a9"/><stop offset="1" stop-color="#a8a7a9" stop-opacity="0"/></linearGradient><linearGradient id="ae" gradientUnits="userSpaceOnUse" x1="22.6465" x2="19.1536" xlink:href="#ad" y1="13.3814" y2="13.3814"/><linearGradient id="af" gradientUnits="userSpaceOnUse" x1="13.1471" x2="9.69342" xlink:href="#ad" y1="12.5198" y2="13.863"/><g filter="url(#a)"><path d="m24.9538 21.0829c1.7405 0 3.1515-1.411 3.1515-3.1516 0-1.7405-1.411-3.1515-3.1515-3.1515-1.7406 0-3.1516 1.411-3.1516 3.1515 0 1.7406 1.411 3.1516 3.1516 3.1516z" fill="url(#r)"/><path d="m24.9538 21.0829c1.7405 0 3.1515-1.411 3.1515-3.1516 0-1.7405-1.411-3.1515-3.1515-3.1515-1.7406 0-3.1516 1.411-3.1516 3.1515 0 1.7406 1.411 3.1516 3.1516 3.1516z" fill="url(#s)"/></g><g filter="url(#b)"><path d="m24.9538 19.9266c1.102 0 1.9953-.8933 1.9953-1.9953 0-1.1019-.8933-1.9953-1.9953-1.9953s-1.9953.8934-1.9953 1.9953c0 1.102.8933 1.9953 1.9953 1.9953z" fill="#a57c70"/><path d="m24.9538 19.9266c1.102 0 1.9953-.8933 1.9953-1.9953 0-1.1019-.8933-1.9953-1.9953-1.9953s-1.9953.8934-1.9953 1.9953c0 1.102.8933 1.9953 1.9953 1.9953z" fill="url(#t)"/><path d="m24.9538 19.9266c1.102 0 1.9953-.8933 1.9953-1.9953 0-1.1019-.8933-1.9953-1.9953-1.9953s-1.9953.8934-1.9953 1.9953c0 1.102.8933 1.9953 1.9953 1.9953z" fill="url(#u)"/></g><g filter="url(#c)"><path d="m7.21844 21.0829c1.74056 0 3.15156-1.411 3.15156-3.1516 0-1.7405-1.411-3.1515-3.15156-3.1515-1.74055 0-3.15155 1.411-3.15155 3.1515 0 1.7406 1.411 3.1516 3.15155 3.1516z" fill="url(#v)"/></g><path d="m7.21844 21.0829c1.74056 0 3.15156-1.411 3.15156-3.1516 0-1.7405-1.411-3.1515-3.15156-3.1515-1.74055 0-3.15155 1.411-3.15155 3.1515 0 1.7406 1.411 3.1516 3.15155 3.1516z" fill="url(#w)"/><g filter="url(#d)"><path d="m7.21844 19.9266c1.10198 0 1.99531-.8933 1.99531-1.9953 0-1.1019-.89333-1.9953-1.99531-1.9953-1.10197 0-1.9953.8934-1.9953 1.9953 0 1.102.89333 1.9953 1.9953 1.9953z" fill="url(#x)"/></g><g filter="url(#e)"><path d="m15.27 4.34229c-5.2 0-9.20004 4.4-8.90004 9.50001l.8 10.4c.3 3.3 2.8 5.6 6.00004 5.6h6c3.1 0 5.7-2.3 6-5.6l.7-10.4c.4-5.20001-3.7-9.50001-8.9-9.50001z" fill="url(#y)"/><path d="m15.27 4.34229c-5.2 0-9.20004 4.4-8.90004 9.50001l.8 10.4c.3 3.3 2.8 5.6 6.00004 5.6h6c3.1 0 5.7-2.3 6-5.6l.7-10.4c.4-5.20001-3.7-9.50001-8.9-9.50001z" fill="url(#z)"/><path d="m15.27 4.34229c-5.2 0-9.20004 4.4-8.90004 9.50001l.8 10.4c.3 3.3 2.8 5.6 6.00004 5.6h6c3.1 0 5.7-2.3 6-5.6l.7-10.4c.4-5.20001-3.7-9.50001-8.9-9.50001z" fill="url(#A)"/><path d="m15.27 4.34229c-5.2 0-9.20004 4.4-8.90004 9.50001l.8 10.4c.3 3.3 2.8 5.6 6.00004 5.6h6c3.1 0 5.7-2.3 6-5.6l.7-10.4c.4-5.20001-3.7-9.50001-8.9-9.50001z" fill="url(#B)"/><path d="m15.27 4.34229c-5.2 0-9.20004 4.4-8.90004 9.50001l.8 10.4c.3 3.3 2.8 5.6 6.00004 5.6h6c3.1 0 5.7-2.3 6-5.6l.7-10.4c.4-5.20001-3.7-9.50001-8.9-9.50001z" fill="url(#C)"/><path d="m15.27 4.34229c-5.2 0-9.20004 4.4-8.90004 9.50001l.8 10.4c.3 3.3 2.8 5.6 6.00004 5.6h6c3.1 0 5.7-2.3 6-5.6l.7-10.4c.4-5.20001-3.7-9.50001-8.9-9.50001z" fill="url(#D)"/><path d="m15.27 4.34229c-5.2 0-9.20004 4.4-8.90004 9.50001l.8 10.4c.3 3.3 2.8 5.6 6.00004 5.6h6c3.1 0 5.7-2.3 6-5.6l.7-10.4c.4-5.20001-3.7-9.50001-8.9-9.50001z" fill="url(#E)"/><path d="m15.27 4.34229c-5.2 0-9.20004 4.4-8.90004 9.50001l.8 10.4c.3 3.3 2.8 5.6 6.00004 5.6h6c3.1 0 5.7-2.3 6-5.6l.7-10.4c.4-5.20001-3.7-9.50001-8.9-9.50001z" fill="url(#F)"/></g><path d="m15.27 4.34229c-5.2 0-9.20004 4.4-8.90004 9.50001l.8 10.4c.3 3.3 2.8 5.6 6.00004 5.6h6c3.1 0 5.7-2.3 6-5.6l.7-10.4c.4-5.20001-3.7-9.50001-8.9-9.50001z" fill="url(#G)"/><g filter="url(#f)"><path d="m24.11 8.41211-5.7389 1.91339c-.9772.3257-1.5333 1.3544-1.2707 2.3504.251.952 1.1715 1.5683 2.1474 1.4377l5.706-.764z" fill="url(#H)"/></g><g filter="url(#g)"><path d="m15.638 17.7261-1.5714 3.1001c-.2.6.3 1.2999.9 1.2999h1.4c.7 0 1.1-.5999.9-1.2999l-.9-3.1001c-.2265-.6546-.4286-.7-.7286 0z" fill="#87565c"/></g><g filter="url(#h)"><path d="m15.5666 17.4505-1 3.1c-.2.6.3 1.3.9 1.3h1.4c.7 0 1.1-.6.9-1.3l-.9554-3.1c-.2265-.6546-.9446-.7-1.2446 0z" fill="#b7877d"/><path d="m15.5666 17.4505-1 3.1c-.2.6.3 1.3.9 1.3h1.4c.7 0 1.1-.6.9-1.3l-.9554-3.1c-.2265-.6546-.9446-.7-1.2446 0z" fill="url(#I)"/><path d="m15.5666 17.4505-1 3.1c-.2.6.3 1.3.9 1.3h1.4c.7 0 1.1-.6.9-1.3l-.9554-3.1c-.2265-.6546-.9446-.7-1.2446 0z" fill="url(#J)"/><path d="m15.5666 17.4505-1 3.1c-.2.6.3 1.3.9 1.3h1.4c.7 0 1.1-.6.9-1.3l-.9554-3.1c-.2265-.6546-.9446-.7-1.2446 0z" fill="url(#K)"/><path d="m15.5666 17.4505-1 3.1c-.2.6.3 1.3.9 1.3h1.4c.7 0 1.1-.6.9-1.3l-.9554-3.1c-.2265-.6546-.9446-.7-1.2446 0z" fill="url(#L)"/></g><path d="m8.35564 11.3906c.44803-.3667.73396-.9241.73396-1.54831 0-1.10457-.89543-2-2-2s-2 .89543-2 2c0 .09774.00701.19381.02056.28781l.40819 5.7147c.04015.562.5078.9897 1.07125.9897v-3.5188c0-.2997.13439-.5835.36619-.7735l1.40334-1.1499z" fill="#7f7680"/><path d="m8.35564 11.3906c.44803-.3667.73396-.9241.73396-1.54831 0-1.10457-.89543-2-2-2s-2 .89543-2 2c0 .09774.00701.19381.02056.28781l.40819 5.7147c.04015.562.5078.9897 1.07125.9897v-3.5188c0-.2997.13439-.5835.36619-.7735l1.40334-1.1499z" fill="url(#M)"/><path d="m8.35564 11.3906c.44803-.3667.73396-.9241.73396-1.54831 0-1.10457-.89543-2-2-2s-2 .89543-2 2c0 .09774.00701.19381.02056.28781l.40819 5.7147c.04015.562.5078.9897 1.07125.9897v-3.5188c0-.2997.13439-.5835.36619-.7735l1.40334-1.1499z" fill="url(#N)"/><g filter="url(#i)"><path d="m23.9039 11.3906c-.448-.3667-.7339-.9241-.7339-1.54831 0-1.10457.8954-2 2-2s2 .89543 2 2c0 .09774-.007.19381-.0206.28781l-.4082 5.7147c-.0401.562-.5078.9975-1.0712.9975v-3.5266c0-.2997-.1344-.5835-.3662-.7735l-1.4033-1.1499z" fill="#9f9aa1"/><path d="m23.9039 11.3906c-.448-.3667-.7339-.9241-.7339-1.54831 0-1.10457.8954-2 2-2s2 .89543 2 2c0 .09774-.007.19381-.0206.28781l-.4082 5.7147c-.0401.562-.5078.9975-1.0712.9975v-3.5266c0-.2997-.1344-.5835-.3662-.7735l-1.4033-1.1499z" fill="url(#O)"/><path d="m23.9039 11.3906c-.448-.3667-.7339-.9241-.7339-1.54831 0-1.10457.8954-2 2-2s2 .89543 2 2c0 .09774-.007.19381-.0206.28781l-.4082 5.7147c-.0401.562-.5078.9975-1.0712.9975v-3.5266c0-.2997-.1344-.5835-.3662-.7735l-1.4033-1.1499z" fill="url(#P)"/><path d="m23.9039 11.3906c-.448-.3667-.7339-.9241-.7339-1.54831 0-1.10457.8954-2 2-2s2 .89543 2 2c0 .09774-.007.19381-.0206.28781l-.4082 5.7147c-.0401.562-.5078.9975-1.0712.9975v-3.5266c0-.2997-.1344-.5835-.3662-.7735l-1.4033-1.1499z" fill="url(#Q)"/></g><path d="m13.6101 23.0185-.0005-.0002c-.15-.0763-.3059-.0293-.3995.0693-.0939.0988-.1293.2545-.0336.3929.6335.9597 1.7369 1.5993 2.9935 1.5993 1.2567 0 2.3602-.6397 2.9937-1.5997.0949-.1423.0607-.2979-.0341-.3963-.0941-.0977-.25-.1414-.3992-.0655h-.0001l-.0004.0002c-.7401.3859-1.6121.6067-2.5599.6067-.9384 0-1.8199-.2209-2.5599-.6067z" fill="#88014f" stroke="url(#R)" stroke-width=".1"/><path d="m18.1094 18.6261c.2058-.1843.5219-.1668.7061.0389.1954.2182.3771.3695.6129.4737.2402.1061.5743.1798 1.0946.1798.2761 0 .5.2239.5.5 0 .2762-.2239.5-.5.5-.6119 0-1.094-.0863-1.4988-.2651-.4091-.1808-.7014-.4396-.9537-.7213-.1842-.2057-.1668-.5218.0389-.706z" fill="#ab7c6c"/><path d="m13.335 18.6534c.1904-.1996.5065-.2073.7064-.0171.2.1903.2077.5071.0174.7071l-.001.0011-.0016.0016-.004.0042-.0117.0117c-.0093.0093-.0218.0215-.0374.0362-.0313.0293-.075.0686-.1309.1146-.1114.0916-.2724.2109-.4792.3295-.4133.237-1.0185.4762-1.7762.4762-.2762 0-.5-.2238-.5-.5 0-.2761.2238-.5.5-.5.5423 0 .977-.1707 1.2787-.3437.1508-.0864.2659-.1722.3414-.2343.0376-.0309.0649-.0556.0815-.0711.0082-.0078.0139-.0133.0166-.016z" fill="#8d635a"/><rect fill="url(#S)" height="1" rx=".5" width="6" x="13.17" y="6.9856"/><rect fill="url(#T)" height="1" rx=".5" width="10" x="11.1255" y="9.36499"/><path d="m11.632 15.4329c-1.2178 0-2.24642.8395-2.52628 1.974-.08319.3253.1664.6354.4992.6354h4.15998c.2647 0 .4765-.242.4235-.5068-.2344-1.195-1.2933-2.1026-2.5564-2.1026z" fill="#fff"/><path d="m12.0177 15.9395c-.9228 0-1.664.7487-1.664 1.6639 0 .1513.0227.3026.0605.4387h3.2145c.0378-.1437.0605-.2874.0605-.4387-.0075-.9152-.7488-1.6639-1.6715-1.6639z" fill="url(#V)"/><path d="m12.9707 17.6036c0-.5294-.4235-.953-.953-.953-.5294 0-.953.4236-.953.953 0 .1589.0378.3101.1059.4387h1.6867c.068-.1286.1134-.2798.1134-.4387z" fill="#000"/><g filter="url(#j)"><path d="m13.5379 17.4081c0-.5377-.4373-.8962-.5555-1.0045l-.5377.52.3309.6736z" fill="url(#X)"/></g><g filter="url(#k)"><ellipse cx="11.5156" cy="16.6506" fill="#c7a7a3" fill-opacity=".9" rx=".726417" ry=".367634" transform="matrix(.88365127 -.46814574 .46814574 .88365127 -6.455082 7.328255)"/><ellipse cx="11.5156" cy="16.6506" fill="url(#Z)" rx=".726417" ry=".367634" transform="matrix(.88365127 -.46814574 .46814574 .88365127 -6.455082 7.328255)"/></g><path d="m20.5474 15.4329c1.2176 0 2.2462.8395 2.5261 1.9739.0832.3253-.1664.6354-.4992.6354h-4.1597c-.2648 0-.4765-.2421-.4236-.5068.2345-1.195 1.2858-2.1025 2.5564-2.1025z" fill="#fff"/><path d="m20.1616 15.9397c.9227 0 1.6639.7488 1.6639 1.6639 0 .1513-.0227.3025-.0605.4387h-3.2143c-.0378-.1437-.0605-.2874-.0605-.4387 0-.9151.7487-1.6639 1.6714-1.6639z" fill="url(#aa)"/><path d="m19.2087 17.6036c0-.5294.4235-.953.9529-.953.5295 0 .953.4236.953.953 0 .1588-.0378.3101-.1059.4387h-1.6866c-.0756-.1286-.1134-.2799-.1134-.4387z" fill="#000"/><g filter="url(#l)"><path d="m20.0392 16.2913c.1186.1586-.1292.3519-.4109.5625-.2818.2107-.4908.3589-.6093.2004-.1186-.1586.0137-.4579.2955-.6685.2817-.2107.6062-.2529.7247-.0944z" fill="#c7a7a3"/><path d="m20.0392 16.2913c.1186.1586-.1292.3519-.4109.5625-.2818.2107-.4908.3589-.6093.2004-.1186-.1586.0137-.4579.2955-.6685.2817-.2107.6062-.2529.7247-.0944z" fill="url(#ab)"/></g><g filter="url(#m)"><path d="m21.6437 17.3844c-.0615-.4302-.3132-.7543-.4313-.8627l-.4846.5318.2187.4254z" fill="url(#ac)"/></g><g filter="url(#n)"><path d="m19.3887 12.8422c.711-.0937 2.086-.0781 3.1641.8125" stroke="#8a8a8a" stroke-linecap="round" stroke-width="1.75"/></g><g filter="url(#o)"><path d="m19.3887 12.5376c.8828-.0703 2.1953.0391 3.2578.8438" stroke="url(#ae)" stroke-linecap="round" stroke-width=".4"/></g><g filter="url(#p)"><path d="m12.9512 12.8422c-.7109-.0937-2.0859-.0781-3.16403.8125" stroke="#8a8a8a" stroke-linecap="round" stroke-width="1.75"/></g><g filter="url(#q)"><path d="m12.9512 12.5376c-.8828-.0703-2.1953.0391-3.25778.8438" stroke="url(#af)" stroke-linecap="round" stroke-width=".4"/></g></svg>