<svg enable-background="new 0 0 128 128" viewBox="0 0 128 128" xmlns="http://www.w3.org/2000/svg"><g transform="scale(4)"><path clip-rule="evenodd" d="m8.35938 15.4375c.67856-.5885 2.06702-1.7969 2.19232-1.9219.1566-.1562.5011-.7344.5011-1.3594v-7.76558c0-.79687.4416-2.375 2.1453-2.375 1.8883 0 2.2422 1.2654 2.2941 2.11084.0519-.84544.4058-2.11084 2.2941-2.11084 1.7037 0 2.1453 1.57813 2.1453 2.375v7.76558c0 .625.3445 1.2032.5011 1.3594.1253.125 1.5137 1.3334 2.1923 1.9219l-5.9192 8.125c-.8644-.2914-1.1606-1.0673-1.2136-1.4918-.053.4245-.3492 1.2004-1.2136 1.4918z" fill="#422426" fill-rule="evenodd"/><path d="m10.5517 13.5156c-.1253.125-1.51376 1.3334-2.19232 1.9219l5.91922 8.125c.927-.3125 1.2005-1.1823 1.2214-1.5781v-14.59378c0-.8125-.2036-2.375-2.3019-2.375-1.7037 0-2.1453 1.57813-2.1453 2.375v4.76558c0 .625-.3445 1.2032-.5011 1.3594z" fill="#573739"/><path clip-rule="evenodd" d="m11.0469 7c0-.25497.0983-.77402.4145-1.21568.2969-.41467.7994-.78432 1.6882-.78432 1.1334 0 1.6348.39695 1.8825.7738.2729.41534.3117.9172.3117 1.2262h.1406v-2.2292c-.4998-.46349-1.2505-.7708-2.3348-.7708-.9331 0-1.6187.31125-2.1027.75253z" fill="#341a1c" fill-rule="evenodd"/><path d="m20.4327 13.5156c.1253.125 1.5137 1.3334 2.1923 1.9219l-5.9192 8.125c-.927-.3125-1.2005-1.1823-1.2214-1.5781v-14.56252c0-.8125.2035-2.375 2.3019-2.375 1.7037 0 2.1453 1.57812 2.1453 2.375v4.73432c0 .625.3445 1.2032.5011 1.3594z" fill="#573739"/><path clip-rule="evenodd" d="m15.9844 23.1052c-.323-.3417-.4581-.761-.4922-1.0345-.0347.2778-.1736.7062-.5078 1.0508v-20.42771c.3704.43117.4806.98958.5078 1.43265.0268-.43678.1342-.98565.4922-1.41421z" fill="#341a1c" fill-rule="evenodd"/><path clip-rule="evenodd" d="m19.9219 7c0-.25497-.0983-.77402-.4146-1.21568-.2969-.41467-.7993-.78432-1.6882-.78432-1.1333 0-1.6348.39695-1.8824.7738-.273.41534-.3117.9172-.3117 1.2262h-.1406v-2.2292c.4998-.46349 1.2504-.7708 2.3347-.7708.9331 0 1.6187.31125 2.1028.75253z" fill="#341a1c" fill-rule="evenodd"/><g fill="#803bff"><path d="m24 29.5469v-13.0782c0-.3515-.1641-.5937-.3281-.7343-.1313-.1125-.5495-.4271-.7422-.5704-.25-.1562-.461-.1484-.625.0547-.1641.2032-6.1094 7.2813-6.3516 7.5782-.2422.2968-.4062.6171 0 .9453.4063.3281 6.7285 5.6773 7.1641 6.0312.5239.4257.8828.1797.8828-.2265z"/><path d="m7.00001 29.5469v-13.0782c0-.3515.16406-.5937.32812-.7343.13125-.1125.54948-.4271.74219-.5704.25-.1562.46094-.1484.625.0547.16406.2032 6.10938 7.2813 6.35158 7.5782.2422.2968.4062.6171 0 .9453-.4063.3281-6.72849 5.6773-7.16408 6.0312-.52388.4257-.88281.1797-.88281-.2265z"/></g></g></svg>