<svg fill="none" height="32" viewBox="0 0 32 32" width="32" xmlns="http://www.w3.org/2000/svg" xmlns:xlink="http://www.w3.org/1999/xlink"><filter id="a" color-interpolation-filters="sRGB" filterUnits="userSpaceOnUse" height="2.925" width="4.71312" x="5.12439" y="22.3677"><feFlood flood-opacity="0" result="BackgroundImageFix"/><feBlend in="SourceGraphic" in2="BackgroundImageFix" mode="normal" result="shape"/><feColorMatrix in="SourceAlpha" result="hardAlpha" type="matrix" values="0 0 0 0 0 0 0 0 0 0 0 0 0 0 0 0 0 0 127 0"/><feOffset dx=".2" dy=".3"/><feGaussianBlur stdDeviation=".25"/><feComposite in2="hardAlpha" k2="-1" k3="1" operator="arithmetic"/><feColorMatrix type="matrix" values="0 0 0 0 0.278431 0 0 0 0 0.278431 0 0 0 0 0.431373 0 0 0 1 0"/><feBlend in2="shape" mode="normal" result="effect1_innerShadow_4002_460"/></filter><filter id="b" color-interpolation-filters="sRGB" filterUnits="userSpaceOnUse" height="8.57812" width="10.3281" x="8.63757" y="15.3716"><feFlood flood-opacity="0" result="BackgroundImageFix"/><feBlend in="SourceGraphic" in2="BackgroundImageFix" mode="normal" result="shape"/><feColorMatrix in="SourceAlpha" result="hardAlpha" type="matrix" values="0 0 0 0 0 0 0 0 0 0 0 0 0 0 0 0 0 0 127 0"/><feOffset dy=".25"/><feGaussianBlur stdDeviation=".25"/><feComposite in2="hardAlpha" k2="-1" k3="1" operator="arithmetic"/><feColorMatrix type="matrix" values="0 0 0 0 0.513726 0 0 0 0 0.501961 0 0 0 0 0.505882 0 0 0 1 0"/><feBlend in2="shape" mode="normal" result="effect1_innerShadow_4002_460"/></filter><filter id="c" color-interpolation-filters="sRGB" filterUnits="userSpaceOnUse" height="7.5" width="3.95312" x="8.74744" y="17.1763"><feFlood flood-opacity="0" result="BackgroundImageFix"/><feBlend in="SourceGraphic" in2="BackgroundImageFix" mode="normal" result="shape"/><feGaussianBlur result="effect1_foregroundBlur_4002_460" stdDeviation=".25"/></filter><filter id="d" color-interpolation-filters="sRGB" filterUnits="userSpaceOnUse" height="3.60156" width="3.60156" x="9.92712" y="26.688"><feFlood flood-opacity="0" result="BackgroundImageFix"/><feBlend in="SourceGraphic" in2="BackgroundImageFix" mode="normal" result="shape"/><feGaussianBlur result="effect1_foregroundBlur_4002_460" stdDeviation=".125"/></filter><filter id="e" color-interpolation-filters="sRGB" filterUnits="userSpaceOnUse" height="7.73125" width="7.82812" x="11.1068" y="19.0826"><feFlood flood-opacity="0" result="BackgroundImageFix"/><feBlend in="SourceGraphic" in2="BackgroundImageFix" mode="normal" result="shape"/><feColorMatrix in="SourceAlpha" result="hardAlpha" type="matrix" values="0 0 0 0 0 0 0 0 0 0 0 0 0 0 0 0 0 0 127 0"/><feOffset dy=".2"/><feGaussianBlur stdDeviation=".15"/><feComposite in2="hardAlpha" k2="-1" k3="1" operator="arithmetic"/><feColorMatrix type="matrix" values="0 0 0 0 0.709804 0 0 0 0 0.0745098 0 0 0 0 0.203922 0 0 0 1 0"/><feBlend in2="shape" mode="normal" result="effect1_innerShadow_4002_460"/></filter><filter id="f" color-interpolation-filters="sRGB" filterUnits="userSpaceOnUse" height="3.2562" width="4.54315" x="5.27875" y="23.3777"><feFlood flood-opacity="0" result="BackgroundImageFix"/><feBlend in="SourceGraphic" in2="BackgroundImageFix" mode="normal" result="shape"/><feColorMatrix in="SourceAlpha" result="hardAlpha" type="matrix" values="0 0 0 0 0 0 0 0 0 0 0 0 0 0 0 0 0 0 127 0"/><feOffset dy="-.4"/><feGaussianBlur stdDeviation=".375"/><feComposite in2="hardAlpha" k2="-1" k3="1" operator="arithmetic"/><feColorMatrix type="matrix" values="0 0 0 0 0.509804 0 0 0 0 0.360784 0 0 0 0 0.631373 0 0 0 1 0"/><feBlend in2="shape" mode="normal" result="effect1_innerShadow_4002_460"/></filter><filter id="g" color-interpolation-filters="sRGB" filterUnits="userSpaceOnUse" height="4.31329" width="8.50623" x="12.5599" y="16.0154"><feFlood flood-opacity="0" result="BackgroundImageFix"/><feBlend in="SourceGraphic" in2="BackgroundImageFix" mode="normal" result="shape"/><feColorMatrix in="SourceAlpha" result="hardAlpha" type="matrix" values="0 0 0 0 0 0 0 0 0 0 0 0 0 0 0 0 0 0 127 0"/><feOffset dx=".15"/><feGaussianBlur stdDeviation=".075"/><feComposite in2="hardAlpha" k2="-1" k3="1" operator="arithmetic"/><feColorMatrix type="matrix" values="0 0 0 0 0.803922 0 0 0 0 0.270588 0 0 0 0 0.360784 0 0 0 1 0"/><feBlend in2="shape" mode="normal" result="effect1_innerShadow_4002_460"/></filter><filter id="h" color-interpolation-filters="sRGB" filterUnits="userSpaceOnUse" height="8.26719" width="8.26719" x="16.4802" y="19.8853"><feFlood flood-opacity="0" result="BackgroundImageFix"/><feBlend in="SourceGraphic" in2="BackgroundImageFix" mode="normal" result="shape"/><feColorMatrix in="SourceAlpha" result="hardAlpha" type="matrix" values="0 0 0 0 0 0 0 0 0 0 0 0 0 0 0 0 0 0 127 0"/><feOffset dx="-.15" dy=".15"/><feGaussianBlur stdDeviation=".3"/><feComposite in2="hardAlpha" k2="-1" k3="1" operator="arithmetic"/><feColorMatrix type="matrix" values="0 0 0 0 0.698039 0 0 0 0 0.611765 0 0 0 0 0.807843 0 0 0 1 0"/><feBlend in2="shape" mode="normal" result="effect1_innerShadow_4002_460"/></filter><filter id="i" color-interpolation-filters="sRGB" filterUnits="userSpaceOnUse" height="9.82969" width="9.67969" x="15.849" y="18.9541"><feFlood flood-opacity="0" result="BackgroundImageFix"/><feBlend in="SourceGraphic" in2="BackgroundImageFix" mode="normal" result="shape"/><feColorMatrix in="SourceAlpha" result="hardAlpha" type="matrix" values="0 0 0 0 0 0 0 0 0 0 0 0 0 0 0 0 0 0 127 0"/><feOffset dy="-.15"/><feGaussianBlur stdDeviation=".15"/><feComposite in2="hardAlpha" k2="-1" k3="1" operator="arithmetic"/><feColorMatrix type="matrix" values="0 0 0 0 0.478431 0 0 0 0 0.4 0 0 0 0 0.560784 0 0 0 1 0"/><feBlend in2="shape" mode="normal" result="effect1_innerShadow_4002_460"/></filter><filter id="j" color-interpolation-filters="sRGB" filterUnits="userSpaceOnUse" height="3.27344" width="3.27344" x="18.9521" y="22.4072"><feFlood flood-opacity="0" result="BackgroundImageFix"/><feColorMatrix in="SourceAlpha" result="hardAlpha" type="matrix" values="0 0 0 0 0 0 0 0 0 0 0 0 0 0 0 0 0 0 127 0"/><feOffset dx="-.1" dy=".1"/><feGaussianBlur stdDeviation=".25"/><feComposite in2="hardAlpha" operator="out"/><feColorMatrix type="matrix" values="0 0 0 0 0.764706 0 0 0 0 0.678431 0 0 0 0 0.858824 0 0 0 1 0"/><feBlend in2="BackgroundImageFix" mode="normal" result="effect1_dropShadow_4002_460"/><feBlend in="SourceGraphic" in2="effect1_dropShadow_4002_460" mode="normal" result="shape"/><feColorMatrix in="SourceAlpha" result="hardAlpha" type="matrix" values="0 0 0 0 0 0 0 0 0 0 0 0 0 0 0 0 0 0 127 0"/><feOffset dy="4"/><feGaussianBlur stdDeviation=".1"/><feComposite in2="hardAlpha" k2="-1" k3="1" operator="arithmetic"/><feColorMatrix type="matrix" values="0 0 0 0 0.247059 0 0 0 0 0.207843 0 0 0 0 0.286275 0 0 0 1 0"/><feBlend in2="shape" mode="normal" result="effect2_innerShadow_4002_460"/></filter><filter id="k" color-interpolation-filters="sRGB" filterUnits="userSpaceOnUse" height="2.24529" width="2.24529" x="19.5662" y="22.8213"><feFlood flood-opacity="0" result="BackgroundImageFix"/><feBlend in="SourceGraphic" in2="BackgroundImageFix" mode="normal" result="shape"/><feGaussianBlur result="effect1_foregroundBlur_4002_460" stdDeviation=".05"/></filter><filter id="l" color-interpolation-filters="sRGB" filterUnits="userSpaceOnUse" height="9.4015" width="9.4015" x="16.122" y="19.1093"><feFlood flood-opacity="0" result="BackgroundImageFix"/><feBlend in="SourceGraphic" in2="BackgroundImageFix" mode="normal" result="shape"/><feGaussianBlur result="effect1_foregroundBlur_4002_460" stdDeviation=".075"/></filter><filter id="m" color-interpolation-filters="sRGB" filterUnits="userSpaceOnUse" height="12.2172" width="12.2172" x="14.674" y="17.6029"><feFlood flood-opacity="0" result="BackgroundImageFix"/><feBlend in="SourceGraphic" in2="BackgroundImageFix" mode="normal" result="shape"/><feGaussianBlur result="effect1_foregroundBlur_4002_460" stdDeviation=".15"/></filter><filter id="n" color-interpolation-filters="sRGB" filterUnits="userSpaceOnUse" height="8.4829" width="3.23754" x="17.3584" y="10.8513"><feFlood flood-opacity="0" result="BackgroundImageFix"/><feBlend in="SourceGraphic" in2="BackgroundImageFix" mode="normal" result="shape"/><feColorMatrix in="SourceAlpha" result="hardAlpha" type="matrix" values="0 0 0 0 0 0 0 0 0 0 0 0 0 0 0 0 0 0 127 0"/><feOffset dx="-.1" dy="-.2"/><feGaussianBlur stdDeviation=".25"/><feComposite in2="hardAlpha" k2="-1" k3="1" operator="arithmetic"/><feColorMatrix type="matrix" values="0 0 0 0 0.815686 0 0 0 0 0.545098 0 0 0 0 0.188235 0 0 0 1 0"/><feBlend in2="shape" mode="normal" result="effect1_innerShadow_4002_460"/></filter><filter id="o" color-interpolation-filters="sRGB" filterUnits="userSpaceOnUse" height="1.19999" width="4.025" x="20.8912" y="11.1563"><feFlood flood-opacity="0" result="BackgroundImageFix"/><feBlend in="SourceGraphic" in2="BackgroundImageFix" mode="normal" result="shape"/><feGaussianBlur result="effect1_foregroundBlur_4002_460" stdDeviation=".225"/></filter><filter id="p" color-interpolation-filters="sRGB" filterUnits="userSpaceOnUse" height="2.62196" width="4.23134" x="5.58489" y="23.6857"><feFlood flood-opacity="0" result="BackgroundImageFix"/><feBlend in="SourceGraphic" in2="BackgroundImageFix" mode="normal" result="shape"/><feGaussianBlur result="effect1_foregroundBlur_4002_460" stdDeviation=".2"/></filter><filter id="q" color-interpolation-filters="sRGB" filterUnits="userSpaceOnUse" height="8.1813" width="2.77957" x="17.8911" y="11.2419"><feFlood flood-opacity="0" result="BackgroundImageFix"/><feBlend in="SourceGraphic" in2="BackgroundImageFix" mode="normal" result="shape"/><feGaussianBlur result="effect1_foregroundBlur_4002_460" stdDeviation=".25"/></filter><filter id="r" color-interpolation-filters="sRGB" filterUnits="userSpaceOnUse" height="5.44834" width="4.38678" x="12.192" y="3.26934"><feFlood flood-opacity="0" result="BackgroundImageFix"/><feBlend in="SourceGraphic" in2="BackgroundImageFix" mode="normal" result="shape"/><feColorMatrix in="SourceAlpha" result="hardAlpha" type="matrix" values="0 0 0 0 0 0 0 0 0 0 0 0 0 0 0 0 0 0 127 0"/><feOffset dx="-.25" dy="-.4"/><feGaussianBlur stdDeviation=".5"/><feComposite in2="hardAlpha" k2="-1" k3="1" operator="arithmetic"/><feColorMatrix type="matrix" values="0 0 0 0 0.85098 0 0 0 0 0.54902 0 0 0 0 0.227451 0 0 0 1 0"/><feBlend in2="shape" mode="normal" result="effect1_innerShadow_4002_460"/><feColorMatrix in="SourceAlpha" result="hardAlpha" type="matrix" values="0 0 0 0 0 0 0 0 0 0 0 0 0 0 0 0 0 0 127 0"/><feOffset dx="-.15" dy="-.05"/><feGaussianBlur stdDeviation=".125"/><feComposite in2="hardAlpha" k2="-1" k3="1" operator="arithmetic"/><feColorMatrix type="matrix" values="0 0 0 0 0.737255 0 0 0 0 0.4 0 0 0 0 0.0470588 0 0 0 1 0"/><feBlend in2="effect1_innerShadow_4002_460" mode="normal" result="effect2_innerShadow_4002_460"/></filter><filter id="s" color-interpolation-filters="sRGB" filterUnits="userSpaceOnUse" height="6.47369" width="6.99677" x="11.5667" y="2.10939"><feFlood flood-opacity="0" result="BackgroundImageFix"/><feBlend in="SourceGraphic" in2="BackgroundImageFix" mode="normal" result="shape"/><feColorMatrix in="SourceAlpha" result="hardAlpha" type="matrix" values="0 0 0 0 0 0 0 0 0 0 0 0 0 0 0 0 0 0 127 0"/><feOffset dx="-.4" dy=".4"/><feGaussianBlur stdDeviation=".3"/><feComposite in2="hardAlpha" k2="-1" k3="1" operator="arithmetic"/><feColorMatrix type="matrix" values="0 0 0 0 1 0 0 0 0 0.843137 0 0 0 0 0.207843 0 0 0 1 0"/><feBlend in2="shape" mode="normal" result="effect1_innerShadow_4002_460"/><feColorMatrix in="SourceAlpha" result="hardAlpha" type="matrix" values="0 0 0 0 0 0 0 0 0 0 0 0 0 0 0 0 0 0 127 0"/><feOffset dy="-.2"/><feGaussianBlur stdDeviation=".25"/><feComposite in2="hardAlpha" k2="-1" k3="1" operator="arithmetic"/><feColorMatrix type="matrix" values="0 0 0 0 1 0 0 0 0 0.607843 0 0 0 0 0.117647 0 0 0 1 0"/><feBlend in2="effect1_innerShadow_4002_460" mode="normal" result="effect2_innerShadow_4002_460"/></filter><filter id="t" color-interpolation-filters="sRGB" filterUnits="userSpaceOnUse" height=".434778" width=".946832" x="12.8663" y="4.94193"><feFlood flood-opacity="0" result="BackgroundImageFix"/><feBlend in="SourceGraphic" in2="BackgroundImageFix" mode="normal" result="shape"/><feColorMatrix in="SourceAlpha" result="hardAlpha" type="matrix" values="0 0 0 0 0 0 0 0 0 0 0 0 0 0 0 0 0 0 127 0"/><feOffset dx="-.1" dy=".1"/><feGaussianBlur stdDeviation=".1"/><feComposite in2="hardAlpha" k2="-1" k3="1" operator="arithmetic"/><feColorMatrix type="matrix" values="0 0 0 0 0.682353 0 0 0 0 0.219608 0 0 0 0 0.133333 0 0 0 1 0"/><feBlend in2="shape" mode="normal" result="effect1_innerShadow_4002_460"/></filter><linearGradient id="u" gradientUnits="userSpaceOnUse" x1="9.1145" x2="8.19725" y1="24.4444" y2="23.9617"><stop offset=".208966" stop-color="#342252"/><stop offset="1" stop-color="#4e4b80" stop-opacity="0"/></linearGradient><linearGradient id="v" gradientUnits="userSpaceOnUse" x1="7.87541" x2="8.16507" y1="24.7824" y2="24.0261"><stop offset=".122288" stop-color="#332156"/><stop offset="1" stop-color="#4e4b80" stop-opacity="0"/></linearGradient><radialGradient id="w" cx="0" cy="0" gradientTransform="matrix(.73949185 -.0482765 .08300083 1.27139359 5.12439 23.0122)" gradientUnits="userSpaceOnUse" r="1"><stop offset="0" stop-color="#615f82"/><stop offset="1" stop-color="#615f82" stop-opacity="0"/></radialGradient><linearGradient id="x" gradientUnits="userSpaceOnUse" x1="9.90393" x2="16.0602" y1="20.692" y2="17.317"><stop offset="0" stop-color="#918697"/><stop offset="1" stop-color="#8c8181"/></linearGradient><radialGradient id="y" cx="0" cy="0" gradientTransform="matrix(-1.90621396 5.43751151 -2.13201569 -.74741508 10.9664 20.6295)" gradientUnits="userSpaceOnUse" r="1"><stop offset="0" stop-color="#8a7794"/><stop offset="1" stop-color="#8a7794" stop-opacity="0"/></radialGradient><radialGradient id="z" cx="0" cy="0" gradientTransform="matrix(7.5 0 0 12.1563 10.9977 17.1295)" gradientUnits="userSpaceOnUse" r="1"><stop offset=".45" stop-color="#655558" stop-opacity="0"/><stop offset="1" stop-color="#655558"/></radialGradient><radialGradient id="A" cx="0" cy="0" gradientTransform="matrix(0 -1.46875 5.125 0 16.0602 18.0982)" gradientUnits="userSpaceOnUse" r="1"><stop offset=".212765" stop-color="#4b3d47"/><stop offset="1" stop-color="#4b3d47" stop-opacity="0"/></radialGradient><linearGradient id="B" gradientUnits="userSpaceOnUse" x1="9.06018" x2="9.96643" y1="19.942" y2="20.0045"><stop offset="0" stop-color="#948f93"/><stop offset="1" stop-color="#948f93" stop-opacity="0"/></linearGradient><linearGradient id="C" gradientUnits="userSpaceOnUse" x1="11.9193" x2="11.9193" y1="30.3326" y2="26.7662"><stop offset="0" stop-color="#3c2053"/><stop offset=".595838" stop-color="#2b1e2d"/></linearGradient><radialGradient id="D" cx="0" cy="0" gradientTransform="matrix(1.48438 0 0 3.64062 9.30994 28.4888)" gradientUnits="userSpaceOnUse" r="1"><stop offset="0" stop-color="#79747b"/><stop offset="1" stop-color="#79747b" stop-opacity="0"/></radialGradient><radialGradient id="E" cx="0" cy="0" gradientTransform="matrix(0 -2.80266 4.80004 0 11.7279 29.7407)" gradientUnits="userSpaceOnUse" r="1"><stop offset="0" stop-color="#423650"/><stop offset="1" stop-color="#3b3145"/></radialGradient><radialGradient id="F" cx="0" cy="0" gradientTransform="matrix(0 -1.71875 1.03125 0 11.5287 28.192)" gradientUnits="userSpaceOnUse" r="1"><stop offset="0" stop-color="#31223f"/><stop offset="1" stop-color="#31223f" stop-opacity="0"/></radialGradient><linearGradient id="G" gradientUnits="userSpaceOnUse" x1="12.349" x2="11.612" y1="26.8658" y2="26.8658"><stop offset="0" stop-color="#7f758d"/><stop offset="1" stop-color="#7f758d" stop-opacity="0"/></linearGradient><linearGradient id="H"><stop offset="0" stop-color="#5f3b5c"/><stop offset="1" stop-color="#6e5c72" stop-opacity="0"/></linearGradient><radialGradient id="I" cx="0" cy="0" gradientTransform="matrix(0 5.11265 -.46567 0 12.349 24.2781)" gradientUnits="userSpaceOnUse" r="1" xlink:href="#H"/><radialGradient id="J" cx="0" cy="0" gradientTransform="matrix(0 5.9265 -.246012 0 11.1068 23.4643)" gradientUnits="userSpaceOnUse" r="1" xlink:href="#H"/><radialGradient id="K" cx="0" cy="0" gradientTransform="matrix(0 -2.69196 .275687 0 11.1068 28.6395)" gradientUnits="userSpaceOnUse" r="1"><stop offset="0" stop-color="#7a727f"/><stop offset="1" stop-color="#7a727f" stop-opacity="0"/></radialGradient><radialGradient id="L" cx="0" cy="0" gradientTransform="matrix(0 -.949024 .804516 0 11.7279 29.1295)" gradientUnits="userSpaceOnUse" r="1"><stop offset="0" stop-color="#64487f"/><stop offset="1" stop-color="#64487f" stop-opacity="0"/></radialGradient><radialGradient id="M" cx="0" cy="0" gradientTransform="matrix(1.15624767 .90624906 -.472333 .60263118 11.9349 24.1607)" gradientUnits="userSpaceOnUse" r="1"><stop offset=".166742" stop-color="#654970"/><stop offset="1" stop-color="#654970" stop-opacity="0"/></radialGradient><radialGradient id="N" cx="0" cy="0" gradientTransform="matrix(-5.01534244 -.13833917 .0281487 -1.02050186 13.9064 27.0307)" gradientUnits="userSpaceOnUse" r="1"><stop offset=".434923" stop-color="#bb3161"/><stop offset="1" stop-color="#c62f3a"/></radialGradient><linearGradient id="O" gradientUnits="userSpaceOnUse" x1="11.9013" x2="11.8132" y1="27.8311" y2="27.0777"><stop offset="0" stop-color="#980a27"/><stop offset="1" stop-color="#980a27" stop-opacity="0"/></linearGradient><linearGradient id="P" gradientUnits="userSpaceOnUse" x1="12.351" x2="17.2592" y1="18.59" y2="18.59"><stop offset="0" stop-color="#523c64"/><stop offset="1" stop-color="#4d3659"/></linearGradient><linearGradient id="Q" gradientUnits="userSpaceOnUse" x1="15.7474" x2="15.7474" y1="17.5201" y2="17.8638"><stop offset="0" stop-color="#3b223c"/><stop offset="1" stop-color="#3b223c" stop-opacity="0"/></linearGradient><linearGradient id="R" gradientUnits="userSpaceOnUse" x1="14.8256" x2="14.8256" y1="19.3638" y2="18.317"><stop offset="0" stop-color="#49344d"/><stop offset="1" stop-color="#49344d" stop-opacity="0"/></linearGradient><linearGradient id="S" gradientUnits="userSpaceOnUse" x1="11.1068" x2="11.3412" y1="19.1295" y2="19.1295"><stop offset="0" stop-color="#5f5168"/><stop offset="1" stop-color="#5f5168" stop-opacity="0"/></linearGradient><radialGradient id="T" cx="0" cy="0" gradientTransform="matrix(-2.07811704 -.42189126 .60152397 -2.96293698 17.5912 19.067)" gradientUnits="userSpaceOnUse" r="1"><stop offset="0" stop-color="#2f1f36"/><stop offset="1" stop-color="#2f1f36" stop-opacity="0"/></radialGradient><radialGradient id="U" cx="0" cy="0" gradientTransform="matrix(-.828125 0 0 -2.43007 12.8099 18.2857)" gradientUnits="userSpaceOnUse" r="1"><stop offset="0" stop-color="#3f2245"/><stop offset="1" stop-color="#3f2245" stop-opacity="0"/></radialGradient><linearGradient id="V" gradientUnits="userSpaceOnUse" x1="15.0209" x2="15.0209" y1="19.0826" y2="26.6138"><stop offset="0" stop-color="#d53155"/><stop offset="1" stop-color="#ca283c"/></linearGradient><linearGradient id="W" gradientUnits="userSpaceOnUse" x1="11.1068" x2="11.5286" y1="21.3775" y2="21.3775"><stop offset="0" stop-color="#cd3945"/><stop offset="1" stop-color="#cd3945" stop-opacity="0"/></linearGradient><linearGradient id="X" gradientUnits="userSpaceOnUse" x1="15.3563" x2="16.6952" y1="8.76357" y2="7.9139"><stop offset="0" stop-color="#c38d3c"/><stop offset="1" stop-color="#8b4d03"/></linearGradient><radialGradient id="Y" cx="0" cy="0" gradientTransform="matrix(.06825039 -4.1241453 .84695703 .01401627 21.2632 15.7045)" gradientUnits="userSpaceOnUse" r="1"><stop offset=".553379" stop-color="#c8325e"/><stop offset="1" stop-color="#b61f30"/></radialGradient><radialGradient id="Z" cx="0" cy="0" gradientTransform="matrix(.59495456 -.39035444 .70458773 1.07388989 5.73895 24.7104)" gradientUnits="userSpaceOnUse" r="1"><stop offset="0" stop-color="#89828d"/><stop offset="1" stop-color="#89828d" stop-opacity="0"/></radialGradient><linearGradient id="aa" gradientUnits="userSpaceOnUse" x1="13.3568" x2="19.0912" y1="19.3483" y2="16.0983"><stop offset="0" stop-color="#d52e59"/><stop offset="1" stop-color="#bf223d"/></linearGradient><linearGradient id="ab" gradientUnits="userSpaceOnUse" x1="21.1696" x2="20.147" y1="17.4752" y2="17.4752"><stop offset="0" stop-color="#e35373"/><stop offset="1" stop-color="#e35373" stop-opacity="0"/></linearGradient><linearGradient id="ac" gradientUnits="userSpaceOnUse" x1="16.7381" x2="16.7381" y1="16.0154" y2="16.3484"><stop offset="0" stop-color="#c72b4c"/><stop offset="1" stop-color="#c72b4c" stop-opacity="0"/></linearGradient><linearGradient id="ad" gradientUnits="userSpaceOnUse" x1="24.5287" x2="16.4349" y1="19.567" y2="28.6295"><stop offset="0" stop-color="#3f2c51"/><stop offset="1" stop-color="#3d2c4c"/></linearGradient><radialGradient id="ae" cx="0" cy="0" gradientTransform="matrix(0 5.3418 -5.3418 0 20.6888 23.9439)" gradientUnits="userSpaceOnUse" r="1"><stop offset=".754296" stop-color="#1b1423"/><stop offset="1" stop-color="#1b1423" stop-opacity="0"/></radialGradient><radialGradient id="af" cx="0" cy="0" gradientTransform="matrix(-9.25003857 -8.46867663 6.57573711 -7.1824471 24.9662 28.5357)" gradientUnits="userSpaceOnUse" r="1"><stop offset=".921046" stop-color="#301d2f" stop-opacity="0"/><stop offset="1" stop-color="#301d2f"/></radialGradient><linearGradient id="ag" gradientUnits="userSpaceOnUse" x1="21.0131" x2="24.8959" y1="11.9732" y2="11.9732"><stop offset="0" stop-color="#37213e"/><stop offset="1" stop-color="#46295f"/></linearGradient><radialGradient id="ah" cx="0" cy="0" gradientTransform="matrix(-.85937786 .39452484 -.43395142 -.94525921 25.0287 11.442)" gradientUnits="userSpaceOnUse" r="1"><stop offset="0" stop-color="#675a75"/><stop offset="1" stop-color="#675a75" stop-opacity="0"/></radialGradient><radialGradient id="ai" cx="0" cy="0" gradientTransform="matrix(4.09374821 -5.53125247 9.86397675 7.30045092 18.8412 26.7232)" gradientUnits="userSpaceOnUse" r="1"><stop offset=".245968" stop-color="#dccaee"/><stop offset="1" stop-color="#c2b1db"/></radialGradient><radialGradient id="aj" cx="0" cy="0" gradientTransform="matrix(1.81093522 4.76328818 -1.81631255 .6905365 18.0296 12.649)" gradientUnits="userSpaceOnUse" r="1"><stop offset=".148171" stop-color="#604098"/><stop offset="1" stop-color="#604098" stop-opacity="0"/></radialGradient><linearGradient id="ak" gradientUnits="userSpaceOnUse" x1="15.7767" x2="15.7767" y1="15.528" y2="11.4903"><stop offset="0" stop-color="#514576"/><stop offset="1" stop-color="#685294" stop-opacity="0"/></linearGradient><radialGradient id="al" cx="0" cy="0" gradientTransform="matrix(-1.60921947 1.60921947 -4.29661415 -4.29661415 19.2848 8.75465)" gradientUnits="userSpaceOnUse" r="1"><stop offset="0" stop-color="#967dc8"/><stop offset="1" stop-color="#967dc8" stop-opacity="0"/></radialGradient><radialGradient id="am" cx="0" cy="0" gradientTransform="matrix(.69854816 5.12500232 -2.13812014 .29143009 14.6915 11.2342)" gradientUnits="userSpaceOnUse" r="1"><stop offset="0" stop-color="#876eb4"/><stop offset="1" stop-color="#876eb4" stop-opacity="0"/></radialGradient><radialGradient id="an" cx="0" cy="0" gradientTransform="matrix(-1.99997069 -6.00933214 5.11023798 -1.70074244 17.7963 14.2342)" gradientUnits="userSpaceOnUse" r="1"><stop offset=".856559" stop-color="#7a4e62" stop-opacity="0"/><stop offset="1" stop-color="#7a4e62"/></radialGradient><linearGradient id="ao" gradientUnits="userSpaceOnUse" x1="21.4974" x2="20.0131" y1="23.0826" y2="25.0806"><stop offset="0" stop-color="#463a52"/><stop offset="1" stop-color="#443850"/></linearGradient><linearGradient id="ap" gradientUnits="userSpaceOnUse" x1="21.6615" x2="20.2787" y1="22.9185" y2="24.6451"><stop offset=".138914" stop-color="#524a5b"/><stop offset=".487692" stop-color="#524a5b" stop-opacity="0"/></linearGradient><linearGradient id="aq" gradientUnits="userSpaceOnUse" x1="24.2943" x2="18.1693" y1="20.3795" y2="28.0201"><stop offset=".0662296" stop-color="#938c9b"/><stop offset=".256871" stop-color="#938c9b" stop-opacity="0"/><stop offset=".802846" stop-color="#938c9b" stop-opacity="0"/><stop offset=".945367" stop-color="#96909f"/></linearGradient><linearGradient id="ar" gradientUnits="userSpaceOnUse" x1="24.4976" x2="17.1232" y1="19.3051" y2="28.6185"><stop offset="0" stop-color="#4e4558"/><stop offset=".294488" stop-color="#4e4558" stop-opacity="0"/><stop offset=".800777" stop-color="#484151"/></linearGradient><radialGradient id="as" cx="0" cy="0" gradientTransform="matrix(.20703155 -.70312476 .70312476 .20703155 17.5211 18.0552)" gradientUnits="userSpaceOnUse" r="1"><stop offset="0" stop-color="#e3a330"/><stop offset="1" stop-color="#d99215"/></radialGradient><linearGradient id="at" gradientUnits="userSpaceOnUse" x1="16.5913" x2="17.1382" y1="11.4147" y2="11.0202"><stop offset="0" stop-color="#866db3"/><stop offset="1" stop-color="#7c5cb9" stop-opacity="0"/></linearGradient><linearGradient id="au" gradientUnits="userSpaceOnUse" x1="18.8824" x2="17.6111" y1="10.2834" y2="11.2972"><stop offset="0" stop-color="#9477bc"/><stop offset="1" stop-color="#9477bc" stop-opacity="0"/></linearGradient><radialGradient id="av" cx="0" cy="0" gradientTransform="matrix(-2.01559929 -2.96876126 2.35368692 -1.5980031 18.4351 11.8483)" gradientUnits="userSpaceOnUse" r="1"><stop offset=".879965" stop-color="#8c6396" stop-opacity="0"/><stop offset="1" stop-color="#8c6396"/></radialGradient><radialGradient id="aw" cx="0" cy="0" gradientTransform="matrix(1.49999875 2.0312514 -.62744944 .46334657 18.5775 10.4061)" gradientUnits="userSpaceOnUse" r="1"><stop offset="0" stop-color="#997fd4"/><stop offset="1" stop-color="#997fd4" stop-opacity="0"/></radialGradient><linearGradient id="ax" gradientUnits="userSpaceOnUse" x1="9.21619" x2="4.16931" y1="25.7076" y2="23.4732"><stop offset="0" stop-color="#a198a7"/><stop offset="1" stop-color="#a198a7" stop-opacity="0"/></linearGradient><radialGradient id="ay" cx="0" cy="0" gradientTransform="matrix(-4.23436658 6.76562516 -1.43418759 -.89760751 20.3256 13.4263)" gradientUnits="userSpaceOnUse" r="1"><stop offset=".471142" stop-color="#ffce3c"/><stop offset="1" stop-color="#ffce3c" stop-opacity="0"/></radialGradient><radialGradient id="az" cx="0" cy="0" gradientTransform="matrix(.39366435 .47627973 -.60656794 .50135279 12.3535 6.68321)" gradientUnits="userSpaceOnUse" r="1"><stop offset=".332173" stop-color="#ffbf42"/><stop offset="1" stop-color="#eba544"/></radialGradient><linearGradient id="aA" gradientUnits="userSpaceOnUse" x1="15.2745" x2="12.7725" y1="6.35103" y2="7.0555"><stop offset="0" stop-color="#ffc33e"/><stop offset="1" stop-color="#ffc247"/></linearGradient><radialGradient id="aB" cx="0" cy="0" gradientTransform="matrix(-.75633881 .12128125 -.14786619 -.92212885 15.408 5.63339)" gradientUnits="userSpaceOnUse" r="1"><stop offset=".155748" stop-color="#ffab1d"/><stop offset="1" stop-color="#ffab1d" stop-opacity="0"/></radialGradient><radialGradient id="aC" cx="0" cy="0" gradientTransform="matrix(1.84307545 4.82290003 -3.93280073 1.50292323 15.6493 3.57953)" gradientUnits="userSpaceOnUse" r="1"><stop offset=".717685" stop-color="#fba522" stop-opacity="0"/><stop offset="1" stop-color="#a76445"/></radialGradient><radialGradient id="aD" cx="0" cy="0" gradientTransform="matrix(-.21968518 .92121466 -1.49692384 -.3569765 15.5568 5.4343)" gradientUnits="userSpaceOnUse" r="1"><stop offset=".0404354" stop-color="#ffd040"/><stop offset="1" stop-color="#fead30"/></radialGradient><radialGradient id="aE" cx="0" cy="0" gradientTransform="matrix(.2421793 -.0527567 .10249859 .47051918 13.3292 6.15503)" gradientUnits="userSpaceOnUse" r="1"><stop offset=".894737" stop-color="#916a62"/><stop offset="1" stop-color="#824d44"/></radialGradient><radialGradient id="aF" cx="0" cy="0" gradientTransform="matrix(.22114657 -.04817489 .10425353 .47857524 13.1845 6.206)" gradientUnits="userSpaceOnUse" r="1"><stop offset="0" stop-color="#666361"/><stop offset=".8125" stop-color="#565352"/></radialGradient><linearGradient id="aG" gradientUnits="userSpaceOnUse" x1="13.1095" x2="13.2777" y1="5.84784" y2="5.90271"><stop offset="0" stop-color="#fff"/><stop offset="1" stop-color="#fff" stop-opacity="0"/></linearGradient><g filter="url(#a)"><path d="m6.54767 22.4263 2.09375-.0586.99609.8243-.79614 1.8007-3.49875-1.5763c-.17379-.0783-.27726-.2746-.18193-.4397.24244-.4198.74807-.5504 1.38698-.5504z" fill="#4d4a7f"/><path d="m6.54767 22.4263 2.09375-.0586.99609.8243-.79614 1.8007-3.49875-1.5763c-.17379-.0783-.27726-.2746-.18193-.4397.24244-.4198.74807-.5504 1.38698-.5504z" fill="url(#u)"/><path d="m6.54767 22.4263 2.09375-.0586.99609.8243-.79614 1.8007-3.49875-1.5763c-.17379-.0783-.27726-.2746-.18193-.4397.24244-.4198.74807-.5504 1.38698-.5504z" fill="url(#v)"/><path d="m6.54767 22.4263 2.09375-.0586.99609.8243-.79614 1.8007-3.49875-1.5763c-.17379-.0783-.27726-.2746-.18193-.4397.24244-.4198.74807-.5504 1.38698-.5504z" fill="url(#w)"/></g><g filter="url(#b)"><path d="m11.911 15.3716h7.0547v3.1563h-6.8438l-2.4062 5.1719-1.07813-1.3282c.15625-.7968.59375-3.0546.96094-4.8359.37523-1.8203 1.59379-2.1641 2.31249-2.1641z" fill="url(#x)"/><path d="m11.911 15.3716h7.0547v3.1563h-6.8438l-2.4062 5.1719-1.07813-1.3282c.15625-.7968.59375-3.0546.96094-4.8359.37523-1.8203 1.59379-2.1641 2.31249-2.1641z" fill="url(#y)"/><path d="m11.911 15.3716h7.0547v3.1563h-6.8438l-2.4062 5.1719-1.07813-1.3282c.15625-.7968.59375-3.0546.96094-4.8359.37523-1.8203 1.59379-2.1641 2.31249-2.1641z" fill="url(#z)"/><path d="m11.911 15.3716h7.0547v3.1563h-6.8438l-2.4062 5.1719-1.07813-1.3282c.15625-.7968.59375-3.0546.96094-4.8359.37523-1.8203 1.59379-2.1641 2.31249-2.1641z" fill="url(#A)"/><path d="m11.911 15.3716h7.0547v3.1563h-6.8438l-2.4062 5.1719-1.07813-1.3282c.15625-.7968.59375-3.0546.96094-4.8359.37523-1.8203 1.59379-2.1641 2.31249-2.1641z" fill="url(#B)"/></g><g filter="url(#c)"><path d="m9.24744 24.1763 1.92186-6.5 1.0313 1.75z" fill="#553750"/></g><circle cx="11.7279" cy="28.4888" fill="url(#C)" r="1.72266"/><circle cx="11.7279" cy="28.4888" fill="url(#D)" r="1.72266"/><g filter="url(#d)"><circle cx="11.7279" cy="28.4888" fill="url(#E)" r="1.55078"/><circle cx="11.7279" cy="28.4888" fill="url(#F)" r="1.55078"/></g><rect fill="#776a86" height="6.69531" rx=".621094" width="1.24219" x="11.1068" y="22.4341"/><rect fill="url(#G)" height="6.69531" rx=".621094" width="1.24219" x="11.1068" y="22.4341"/><rect fill="url(#I)" height="6.69531" rx=".621094" width="1.24219" x="11.1068" y="22.4341"/><rect fill="url(#J)" height="6.69531" rx=".621094" width="1.24219" x="11.1068" y="22.4341"/><rect fill="url(#K)" height="6.69531" rx=".621094" width="1.24219" x="11.1068" y="22.4341"/><rect fill="url(#L)" height="6.69531" rx=".621094" width="1.24219" x="11.1068" y="22.4341"/><rect fill="url(#M)" height="6.69531" rx=".621094" width="1.24219" x="11.1068" y="22.4341"/><rect fill="url(#N)" height="1.37249" rx=".686244" transform="matrix(.41733105 -.90875453 .90875453 .41733105 -19.073424 22.751901)" width="7.83198" x="8.20569" y="26.2498"/><rect fill="url(#O)" height="1.37249" rx=".686244" transform="matrix(.41733105 -.90875453 .90875453 .41733105 -19.073424 22.751901)" width="7.83198" x="8.20569" y="26.2498"/><path d="m11.1068 17.9201c0-.2209.1791-.4.4-.4h8.8813v2.5078h-9.2813z" fill="url(#P)"/><path d="m11.1068 17.9201c0-.2209.1791-.4.4-.4h8.8813v2.5078h-9.2813z" fill="url(#Q)"/><path d="m11.1068 17.9201c0-.2209.1791-.4.4-.4h8.8813v2.5078h-9.2813z" fill="url(#R)"/><path d="m11.1068 17.9201c0-.2209.1791-.4.4-.4h8.8813v2.5078h-9.2813z" fill="url(#S)"/><path d="m11.1068 17.9201c0-.2209.1791-.4.4-.4h8.8813v2.5078h-9.2813z" fill="url(#T)"/><path d="m11.1068 17.9201c0-.2209.1791-.4.4-.4h8.8813v2.5078h-9.2813z" fill="url(#U)"/><g clip-rule="evenodd" fill-rule="evenodd" filter="url(#e)"><path d="m11.1068 19.8795c0-.4833.3371-.7969.8203-.7969h7.0078v7.5312h-4.7261c-.4451 0-.7737-.3213-.8639-.6859-.0819-.3309-.2687-.6584-.5622-.9245-.2798-.2537-.6056-.4055-.9277-.4617-.3901-.0682-.7482-.4048-.7482-.8768zm1.5.4531c-.1381 0-.25.1119-.25.25v2.4885c0 .1797.1209.3348.2883.3999.3493.1357.6818.3385.9772.6064.3274.2968.5797.6469.7516 1.0228.0708.1547.22.2636.3902.2636h2.9208v-5.0312z" fill="url(#V)"/><path d="m11.1068 19.8795c0-.4833.3371-.7969.8203-.7969h7.0078v7.5312h-4.7261c-.4451 0-.7737-.3213-.8639-.6859-.0819-.3309-.2687-.6584-.5622-.9245-.2798-.2537-.6056-.4055-.9277-.4617-.3901-.0682-.7482-.4048-.7482-.8768zm1.5.4531c-.1381 0-.25.1119-.25.25v2.4885c0 .1797.1209.3348.2883.3999.3493.1357.6818.3385.9772.6064.3274.2968.5797.6469.7516 1.0228.0708.1547.22.2636.3902.2636h2.9208v-5.0312z" fill="url(#W)"/></g><path d="m14.7691 7.57222 1.7511-.89584.753 2.25793-1.771.64644z" fill="url(#X)"/><path d="m20.7362 11.7563h1.16244v5.44922h-1.16244z" fill="url(#Y)" transform="matrix(.95899157 .2834346 -.2834346 .95899157 4.182501 -5.395249)"/><g filter="url(#f)"><rect fill="#7c767d" height="1.45203" rx=".726016" transform="matrix(.910486 .41353989 -.41353989 .910486 10.241078 -.226688)" width="4.84666" x="5.64417" y="23.5427"/></g><rect fill="url(#Z)" height="1.45203" rx=".726016" transform="matrix(.910486 .41353989 -.41353989 .910486 10.241078 -.226688)" width="4.84666" x="5.64417" y="23.5427"/><g clip-rule="evenodd" fill-rule="evenodd"><g filter="url(#g)"><path d="m14.4857 17.1654c-.4282 0-.7753.347-.7753.775v2.3883h-1.0005c-.0828 0-.15-.0671-.15-.15v-2.2383c0-1.0631.8622-1.925 1.9258-1.925h6.1805c.138 0 .25.112.25.25v2.7489h-1.1505v-1.8489z" fill="url(#aa)"/><path d="m14.4857 17.1654c-.4282 0-.7753.347-.7753.775v2.3883h-1.0005c-.0828 0-.15-.0671-.15-.15v-2.2383c0-1.0631.8622-1.925 1.9258-1.925h6.1805c.138 0 .25.112.25.25v2.7489h-1.1505v-1.8489z" fill="url(#ab)"/><path d="m14.4857 17.1654c-.4282 0-.7753.347-.7753.775v2.3883h-1.0005c-.0828 0-.15-.0671-.15-.15v-2.2383c0-1.0631.8622-1.925 1.9258-1.925h6.1805c.138 0 .25.112.25.25v2.7489h-1.1505v-1.8489z" fill="url(#ac)"/></g><path d="m20.6888 30.2115c3.4615 0 6.2676-2.8061 6.2676-6.2676s-2.8061-6.2676-6.2676-6.2676c-3.4614 0-6.2675 2.8061-6.2675 6.2676s2.8061 6.2676 6.2675 6.2676zm0-1.4277c2.673 0 4.8399-2.1669 4.8399-4.8399s-2.1669-4.8398-4.8399-4.8398c-2.6729 0-4.8398 2.1668-4.8398 4.8398s2.1669 4.8399 4.8398 4.8399z" fill="url(#ad)"/><path d="m20.6888 30.2115c3.4615 0 6.2676-2.8061 6.2676-6.2676s-2.8061-6.2676-6.2676-6.2676c-3.4614 0-6.2675 2.8061-6.2675 6.2676s2.8061 6.2676 6.2675 6.2676zm0-1.4277c2.673 0 4.8399-2.1669 4.8399-4.8399s-2.1669-4.8398-4.8399-4.8398c-2.6729 0-4.8398 2.1668-4.8398 4.8398s2.1669 4.8399 4.8398 4.8399z" fill="url(#ae)"/><path d="m20.6888 30.2115c3.4615 0 6.2676-2.8061 6.2676-6.2676s-2.8061-6.2676-6.2676-6.2676c-3.4614 0-6.2675 2.8061-6.2675 6.2676s2.8061 6.2676 6.2675 6.2676zm0-1.4277c2.673 0 4.8399-2.1669 4.8399-4.8399s-2.1669-4.8398-4.8399-4.8398c-2.6729 0-4.8398 2.1668-4.8398 4.8398s2.1669 4.8399 4.8398 4.8399z" fill="url(#af)"/></g><rect fill="url(#ag)" height="1.21094" rx=".605469" width="4.22656" x="20.6693" y="11.231"/><rect fill="url(#ah)" height="1.21094" rx=".605469" width="4.22656" x="20.6693" y="11.231"/><g filter="url(#h)"><circle cx="20.6888" cy="23.9439" fill="url(#ai)" r="4.05859"/></g><g filter="url(#i)"><path clip-rule="evenodd" d="m20.6888 28.7838c2.673 0 4.8399-2.1669 4.8399-4.8399s-2.1669-4.8398-4.8399-4.8398c-2.6729 0-4.8398 2.1668-4.8398 4.8398s2.1669 4.8399 4.8398 4.8399zm0-.7813c2.2416 0 4.0586-1.8171 4.0586-4.0586s-1.817-4.0586-4.0586-4.0586c-2.2415 0-4.0586 1.8171-4.0586 4.0586s1.8171 4.0586 4.0586 4.0586z" fill="#8a7e97" fill-rule="evenodd"/></g><path d="m15.3825 15.3758c-.3111-1.0376-.9363-3.9938-.5888-5.73844.4376-1.44531 1.7423-1.46094 2.375-1.39063.7735.08596 1.6016.47657 2.0391 1.83597.4532 1.25.5807 4.0807.6327 5.4453h-.8748v-.1522z" fill="#755ba9"/><path d="m15.3825 15.3758c-.3111-1.0376-.9363-3.9938-.5888-5.73844.4376-1.44531 1.7423-1.46094 2.375-1.39063.7735.08596 1.6016.47657 2.0391 1.83597.4532 1.25.5807 4.0807.6327 5.4453h-.8748v-.1522z" fill="url(#aj)"/><path d="m15.3825 15.3758c-.3111-1.0376-.9363-3.9938-.5888-5.73844.4376-1.44531 1.7423-1.46094 2.375-1.39063.7735.08596 1.6016.47657 2.0391 1.83597.4532 1.25.5807 4.0807.6327 5.4453h-.8748v-.1522z" fill="url(#ak)"/><path d="m15.3825 15.3758c-.3111-1.0376-.9363-3.9938-.5888-5.73844.4376-1.44531 1.7423-1.46094 2.375-1.39063.7735.08596 1.6016.47657 2.0391 1.83597.4532 1.25.5807 4.0807.6327 5.4453h-.8748v-.1522z" fill="url(#al)"/><path d="m15.3825 15.3758c-.3111-1.0376-.9363-3.9938-.5888-5.73844.4376-1.44531 1.7423-1.46094 2.375-1.39063.7735.08596 1.6016.47657 2.0391 1.83597.4532 1.25.5807 4.0807.6327 5.4453h-.8748v-.1522z" fill="url(#am)"/><path d="m15.3825 15.3758c-.3111-1.0376-.9363-3.9938-.5888-5.73844.4376-1.44531 1.7423-1.46094 2.375-1.39063.7735.08596 1.6016.47657 2.0391 1.83597.4532 1.25.5807 4.0807.6327 5.4453h-.8748v-.1522z" fill="url(#an)"/><g filter="url(#j)"><circle cx="20.6888" cy="23.9439" fill="url(#ao)" r="1.13672"/></g><g filter="url(#k)"><circle cx="20.6888" cy="23.9439" r=".972656" stroke="url(#ap)" stroke-width=".1"/></g><g filter="url(#l)"><circle cx="20.8228" cy="23.81" r="4.47574" stroke="url(#aq)" stroke-width=".15"/></g><g filter="url(#m)"><circle cx="20.7826" cy="23.7115" r="5.55859" stroke="url(#ar)" stroke-width=".5"/></g><circle cx="17.8583" cy="17.8463" fill="url(#as)" r=".494141"/><path d="m17.6888 12.563c.4258-.1093 1.2485-.6929 1.7891-1.2929-.4141.0443-1.3453.3773-1.7891 1.2929z" fill="#745182"/><g filter="url(#n)"><path d="m18.6547 13.5277-1.025-1.3436 1.418-1.1328c.2031.2383.7031.9414 1.1445 1.5235.4515.5953.4479 1.3828.3516 1.7343-.2318 1.0521-.7531 3.3157-.9219 3.9532-.2109.7968-.4609.9453-.9375 1.0547-.4765.1093-1.2851-.3125-1.2226-.9297.0273-.4805.3867-.6953.6445-1.4844.2178-.8714.5116-2.2739.6423-2.9904.0248-.1359-.0101-.275-.0939-.3848z" fill="#ffbe30"/></g><path d="m16.1888 10.4537c-.3565-.50111-.2379-1.19656.2645-1.55125.5017-.35416 1.1956-.23401 1.549.26823l1.4828 2.10732c-.8711.4805-1.793 1.2891-1.793 1.2891z" fill="#7f5dc0"/><path d="m16.1888 10.4537c-.3565-.50111-.2379-1.19656.2645-1.55125.5017-.35416 1.1956-.23401 1.549.26823l1.4828 2.10732c-.8711.4805-1.793 1.2891-1.793 1.2891z" fill="url(#at)"/><path d="m16.1888 10.4537c-.3565-.50111-.2379-1.19656.2645-1.55125.5017-.35416 1.1956-.23401 1.549.26823l1.4828 2.10732c-.8711.4805-1.793 1.2891-1.793 1.2891z" fill="url(#au)"/><path d="m16.1888 10.4537c-.3565-.50111-.2379-1.19656.2645-1.55125.5017-.35416 1.1956-.23401 1.549.26823l1.4828 2.10732c-.8711.4805-1.793 1.2891-1.793 1.2891z" fill="url(#av)"/><path d="m16.1888 10.4537c-.3565-.50111-.2379-1.19656.2645-1.55125.5017-.35416 1.1956-.23401 1.549.26823l1.4828 2.10732c-.8711.4805-1.793 1.2891-1.793 1.2891z" fill="url(#aw)"/><g filter="url(#o)"><path d="m21.3412 11.7563h3.125" stroke="#4c3e59" stroke-width=".3"/></g><g filter="url(#p)"><path d="m6.18494 24.2857 3.03125 1.4219" stroke="url(#ax)" stroke-linecap="round" stroke-width=".4"/></g><g filter="url(#q)"><path d="m18.9662 11.942.8402 1.2726c.1426.216.1965.4789.1454.7326-.2213 1.099-.717 3.2696-1.3606 4.776" stroke="url(#ay)" stroke-linecap="round" stroke-width=".4"/></g><path d="m12.4736 6.51901c.1101-.16024.1393-.36978.1402-.45453l.1592-.03467.217.99639c-.1639.16254-.4402.20278-.5605.03876-.1032-.1406-.0934-.34566.0441-.54595z" fill="url(#az)"/><g filter="url(#r)"><path d="m12.486 5.6222c-.1204-.71703.0349-1.10914.1214-1.23274l3.3056-.72011.6657 2.78989c-.358 2.0464-2.6831 2.63727-3.181 2.03379-.4979-.60347-.7722-2.04068-.9117-2.87083z" fill="url(#aA)"/><path d="m12.486 5.6222c-.1204-.71703.0349-1.10914.1214-1.23274l3.3056-.72011.6657 2.78989c-.358 2.0464-2.6831 2.63727-3.181 2.03379-.4979-.60347-.7722-2.04068-.9117-2.87083z" fill="url(#aB)"/></g><g filter="url(#s)"><path d="m12.1204 4.45242c-.2312-.33013-.148-.7505-.0913-.90056.2448-.64754.861-.85197 1.2867-.7659.5004.10118.7187.10683 1.3531-.19329.7126-.33718 1.7208-.50076 2.3852.25324.6643.754.3147 1.84741.5468 2.34766.2322.50025.5949.48843.8516 1.07031.3359.875-.1573 1.55571-.5937 1.78125-.4365.22554-1.4424.24049-1.9226-.46666-.7857-1.15699-.5429-1.85447-.7923-2.46693-.2494-.61247-.6963-.68772-1.3581-.3986-.7791.34036-1.3575.17888-1.6654-.26052z" fill="#ffb629"/></g><path d="m12.1204 4.45242c-.2312-.33013-.148-.7505-.0913-.90056.2448-.64754.861-.85197 1.2867-.7659.5004.10118.7187.10683 1.3531-.19329.7126-.33718 1.7208-.50076 2.3852.25324.6643.754.3147 1.84741.5468 2.34766.2322.50025.5949.48843.8516 1.07031.3359.875-.1573 1.55571-.5937 1.78125-.4365.22554-1.4424.24049-1.9226-.46666-.7857-1.15699-.5429-1.85447-.7923-2.46693-.2494-.61247-.6963-.68772-1.3581-.3986-.7791.34036-1.3575.17888-1.6654-.26052z" fill="url(#aC)"/><path d="m15.2161 6.38189c-.0445.0097-.0847-.02456-.0882-.06996l-.0869-1.13006c-.0043-.05549.0378-.10458.0932-.09966.2794.02476.5223.22754.5852.516.0774.35539-.148.70626-.5033.78368z" fill="url(#aD)"/><path clip-rule="evenodd" d="m13.963 7.07009c.0523.03432.0669.10456.0326.15688-.1658.25287-.4593.37227-.5541.40334-.0595.01949-.1235-.01292-.143-.07239-.0195-.05946.0129-.12347.0724-.14295.0811-.02657.3127-.12544.4352-.31227.0343-.05233.1045-.06693.1569-.03261z" fill="#87014d" fill-rule="evenodd"/><g filter="url(#t)"><path clip-rule="evenodd" d="m13.3425 5.21397c-.0929.00155-.1663.01787-.195.02799-.0708.02496-.1485-.01221-.1734-.08304-.025-.07082.0122-.14847.083-.17343.061-.02151.1642-.04147.2808-.04342.1177-.00195.2603.01416.3949.0746.0685.03076.0991.11123.0684.17973-.0308.06851-.1113.09911-.1798.06835-.0871-.03912-.187-.05231-.2789-.05078z" fill="#af5247" fill-rule="evenodd"/></g><path d="m13.8976 5.57706c-.1415-.09089-.3402-.07542-.4219-.05633l.3582.35497c.1287-.03585.2405-.18503.0637-.29864z" fill="#2f2c2d"/><path d="m13.0878 6.22761.8753-.19068c-.0755-.3468-.3327-.58525-.5744-.5326-.2417.05266-.3764.37648-.3009.72328z" fill="#fff"/><path d="m13.624 6.11075-.0008-.00346c-.0618-.28374-.2335-.48727-.3835-.4546s-.2215.28918-.1596.57293l.0007.00346z" fill="url(#aE)"/><path d="m13.4504 6.14807c-.0022-.0211-.0056-.04276-.0103-.06471-.0358-.16412-.1344-.282-.2203-.26329s-.1265.16692-.0907.33104c.0047.02194.0107.04306.0175.06314z" fill="url(#aF)"/><ellipse cx="13.1738" cy="5.88238" fill="url(#aG)" rx=".058207" ry=".079373" transform="matrix(.97696855 .21338336 -.21338336 .97696855 1.558614 -2.67559)"/></svg>