<svg fill="none" height="32" viewBox="0 0 32 32" width="32" xmlns="http://www.w3.org/2000/svg" xmlns:xlink="http://www.w3.org/1999/xlink"><linearGradient id="a" gradientUnits="userSpaceOnUse" x1="2" x2="30.0109" y1="17.815" y2="17.815"><stop offset="0" stop-color="#499976"/><stop offset=".323534" stop-color="#5e9c59"/><stop offset=".517655" stop-color="#6eb25b"/><stop offset="1" stop-color="#86b942"/></linearGradient><radialGradient id="b" cx="0" cy="0" gradientTransform="matrix(-.37499916 2.8749967 -6.47142238 -.84409766 20.0625 12.6875)" gradientUnits="userSpaceOnUse" r="1"><stop offset="0" stop-color="#91c575"/><stop offset="1" stop-color="#92de69" stop-opacity="0"/></radialGradient><radialGradient id="c" cx="0" cy="0" gradientTransform="matrix(2.8125005 6.81249816 -3.0260875 1.24930274 28.4375 17.3125)" gradientUnits="userSpaceOnUse" r="1"><stop offset="0" stop-color="#ade76f"/><stop offset="1" stop-color="#afea71" stop-opacity="0"/></radialGradient><radialGradient id="d" cx="0" cy="0" gradientTransform="matrix(6.18749972 2.93249771 -3.8516774 8.12694677 5.6875 25.63)" gradientUnits="userSpaceOnUse" r="1"><stop offset="0" stop-color="#446568"/><stop offset="1" stop-color="#446667" stop-opacity="0"/></radialGradient><radialGradient id="e" cx="0" cy="0" gradientTransform="matrix(-3.43752325 4.87498657 -4.87499474 -3.43752901 10.4375 18.3125)" gradientUnits="userSpaceOnUse" r="1"><stop offset="0" stop-color="#d33b44"/><stop offset=".534043" stop-color="#f03b72"/><stop offset=".875793" stop-color="#e73f89"/></radialGradient><radialGradient id="f" cx="0" cy="0" gradientTransform="matrix(-4.87497544 3.75003636 -3.75003636 -4.87497544 25.125 13.9375)" gradientUnits="userSpaceOnUse" r="1"><stop offset="0" stop-color="#ff6a7f"/><stop offset=".648699" stop-color="#f43668"/></radialGradient><radialGradient id="g" cx="0" cy="0" gradientTransform="matrix(18.12042635 -9.87498259 9.40785115 17.26324804 10.875 27.375)" gradientUnits="userSpaceOnUse" r="1"><stop offset=".169156" stop-color="#efb44c"/><stop offset=".684045" stop-color="#f6d34b"/><stop offset=".895848" stop-color="#ffe657"/></radialGradient><linearGradient id="h" gradientUnits="userSpaceOnUse" x1="18.0904" x2="18.0904" y1="13.63" y2="29.84"><stop offset=".88649" stop-color="#ecb24e" stop-opacity="0"/><stop offset="1" stop-color="#e49e53"/></linearGradient><path d="m13.8354 13.63c-6.01997 0-10.89998 4.88-10.89998 10.9v2.79c0 1.39 1.13001 2.52 2.52001 2.52h16.76997c1.39 0 2.52-1.13 2.52-2.52v-2.78c-.01-6.03-4.89-10.91-10.91-10.91z" fill="#e38f38"/><path d="m12.4754 16.73c-4.22995 0-7.64996 3.43-7.64996 7.65v1.96c0 .98.79 1.77 1.77 1.77h11.76996c.98 0 1.7701-.79 1.7701-1.77v-1.96c-.01-4.22-3.4401-7.65-7.6601-7.65z" fill="#68394f"/><path d="m24.8254 14.42c-.03 0-.07 0-.1-.01-1.72-.09-3.28-.95-4.36-2.3-1.02-1.28-2.6-2.11-4.36-2.11s-3.34.82-4.36 2.11c-1.07 1.35-2.63996 2.21-4.35996 2.3-.03 0-.07 0-.1.01-2.75.19-4.97 2.42-5.17 5.17-.24 3.29 2.35 6.04 5.57 6.04 2.93996 0 5.34996-2.29 5.56996-5.19.84.5 1.81.79 2.85.79s2.02-.29 2.85-.79c.22 2.9 2.63 5.19 5.57 5.19 3.23 0 5.81-2.75 5.57-6.04-.2-2.76-2.43-4.98-5.17-5.17z" fill="url(#a)"/><path d="m24.8254 14.42c-.03 0-.07 0-.1-.01-1.72-.09-3.28-.95-4.36-2.3-1.02-1.28-2.6-2.11-4.36-2.11s-3.34.82-4.36 2.11c-1.07 1.35-2.63996 2.21-4.35996 2.3-.03 0-.07 0-.1.01-2.75.19-4.97 2.42-5.17 5.17-.24 3.29 2.35 6.04 5.57 6.04 2.93996 0 5.34996-2.29 5.56996-5.19.84.5 1.81.79 2.85.79s2.02-.29 2.85-.79c.22 2.9 2.63 5.19 5.57 5.19 3.23 0 5.81-2.75 5.57-6.04-.2-2.76-2.43-4.98-5.17-5.17z" fill="url(#b)"/><path d="m24.8254 14.42c-.03 0-.07 0-.1-.01-1.72-.09-3.28-.95-4.36-2.3-1.02-1.28-2.6-2.11-4.36-2.11s-3.34.82-4.36 2.11c-1.07 1.35-2.63996 2.21-4.35996 2.3-.03 0-.07 0-.1.01-2.75.19-4.97 2.42-5.17 5.17-.24 3.29 2.35 6.04 5.57 6.04 2.93996 0 5.34996-2.29 5.56996-5.19.84.5 1.81.79 2.85.79s2.02-.29 2.85-.79c.22 2.9 2.63 5.19 5.57 5.19 3.23 0 5.81-2.75 5.57-6.04-.2-2.76-2.43-4.98-5.17-5.17z" fill="url(#c)"/><path d="m24.8254 14.42c-.03 0-.07 0-.1-.01-1.72-.09-3.28-.95-4.36-2.3-1.02-1.28-2.6-2.11-4.36-2.11s-3.34.82-4.36 2.11c-1.07 1.35-2.63996 2.21-4.35996 2.3-.03 0-.07 0-.1.01-2.75.19-4.97 2.42-5.17 5.17-.24 3.29 2.35 6.04 5.57 6.04 2.93996 0 5.34996-2.29 5.56996-5.19.84.5 1.81.79 2.85.79s2.02-.29 2.85-.79c.22 2.9 2.63 5.19 5.57 5.19 3.23 0 5.81-2.75 5.57-6.04-.2-2.76-2.43-4.98-5.17-5.17z" fill="url(#d)"/><path d="m9.06548 24c2.18702 0 3.96002-1.773 3.96002-3.96s-1.773-3.96-3.96002-3.96c-2.18705 0-3.96001 1.773-3.96001 3.96s1.77296 3.96 3.96001 3.96z" fill="url(#e)"/><path d="m22.5154 19.76c2.1871 0 3.96-1.773 3.96-3.96 0-2.1871-1.7729-3.96-3.96-3.96-2.187 0-3.96 1.7729-3.96 3.96 0 2.187 1.773 3.96 3.96 3.96z" fill="url(#f)"/><path d="m18.0854 13.63c-6.02 0-10.89998 4.88-10.89998 10.9v2.79c0 1.39 1.13001 2.52 2.52001 2.52h16.76997c1.39 0 2.52-1.13 2.52-2.52v-2.78c-.01-6.03-4.89-10.91-10.91-10.91z" fill="url(#g)"/><path d="m18.0854 13.63c-6.02 0-10.89998 4.88-10.89998 10.9v2.79c0 1.39 1.13001 2.52 2.52001 2.52h16.76997c1.39 0 2.52-1.13 2.52-2.52v-2.78c-.01-6.03-4.89-10.91-10.91-10.91z" fill="url(#h)"/></svg>