<svg enable-background="new 0 0 128 128" viewBox="0 0 128 128" xmlns="http://www.w3.org/2000/svg"><g transform="scale(4)"><path d="m24.0208 10.6035c.1795-.3788.2792-.79752.2792-1.23617 0-.57822-.1795-1.12653-.4785-1.57515-.2991-.45859-.4586-.98697-.4586-1.53528v-.00997c0-1.57515-1.2761-2.85122-2.8513-2.85122-.1595 0-.299-.06979-.3888-.19939-.5184-.72776-1.3658-1.19632-2.3228-1.19632-.9571 0-1.8045.46856-2.3229 1.19632-.0897.11963-.2392.19939-.3888.19939-1.5751 0-2.8512 1.27607-2.8512 2.85122v.00997c0 .54831-.1595 1.07669-.4586 1.53528-.2991.44862-.4785.99693-.4785 1.57515 0 .43865.0997.85737.2791 1.23617.0598.1296.0598.2692 0 .3988-.1794.3689-.2791.7776-.2791 1.2163 0 1.5352 1.2462 2.7814 2.7814 2.7814h7.4272c1.5353 0 2.7814-1.2462 2.7814-2.7814 0-.4387-.0997-.8474-.2791-1.2163-.0499-.1296-.0499-.2791.0099-.3988z" fill="#2d242d"/><path d="m22 16.0088c0-1.725-1.66-3.0088-3.4306-3.0088h-2.6559l-3.4306 3.6708c-.332.351-.5332.8224-.5332 1.3439 0 .5015.1911.9629.493 1.3039.0905.1003.0301.2708-.1006.2908-3.02822.5115-5.3421 3.1393-5.3421 6.3086v.5717c0 1.9357 1.57948 3.5103 3.5211 3.5103h9.7284c.9658 0 1.7505-.7823 1.7505-1.7451v-8.2744z" fill="#8b62bf"/><path d="m15.5 9.5c0 .8284-.6716 1.5-1.5 1.5s-1.5-.6716-1.5-1.5c0-.82843.6716-1.5 1.5-1.5s1.5.67157 1.5 1.5z" fill="#8b5c56"/><path d="m23.5 9.5c0 .8284-.6716 1.5-1.5 1.5s-1.5-.6716-1.5-1.5c0-.82843.6716-1.5 1.5-1.5s1.5.67157 1.5 1.5z" fill="#8b5c56"/><path d="m21.4102 6.54388h-2.7631c-1.0913 0-2.1224-.54247-2.7331-1.44657-.1002-.15069-.3304-.12055-.4005.05023l-.0701.15068c-.2002.48219-.6005.78344-1.0211 1.06483-.4804.3213-.7732.64811-.7809 1.28584l.1101 2.76251c.1001 2.4411 1.9822 4.0886 4.2649 4.0886 2.2826 0 4.1647-1.6374 4.2648-4.0886l.1102-2.62187c-.0201-1.16529-.821-1.24565-.9812-1.24565z" fill="#966661"/><path d="m20.2912 8.25c-.49 0-.89.34-1.14.72.2538.08035.4986.15175.7412.22254.3312.0966.6583.19204.9988.30746l.42-.39c.17-.15.16-.43-.03-.56-.28-.19-.64-.3-.99-.3z"/><path d="m15.7513 8.26074c.49 0 .89.33 1.14.71-.2538.08035-.4986.15175-.7412.22254-.3312.0966-.6583.19204-.9988.30746l-.41-.37c-.18-.16-.16-.43.02-.57.28-.19.64-.3.99-.3z"/><path d="m14.7413 9.25984c.13-.53.6-.92 1.17-.92.58 0 1.07.42 1.19.98.02.12-.08.23-.2.23h-1.94c-.15 0-.27-.14-.22-.29z" fill="#fff"/><path d="m21.3113 9.25984c-.13-.53-.6-.92-1.17-.92-.59 0-1.08.42-1.19.98-.02.12.08.23.2.23h1.93c.15 0 .27-.14.23-.29z" fill="#fff"/><path d="m15.3113 9.34031c0-.42.34-.77.77-.77s.78.35.78.77c0 .08-.01.14-.03.21h-1.49c-.02-.07-.03-.14-.03-.21z" fill="#7d4533"/><path d="m20.7313 9.34031c0-.42-.34-.77-.77-.77s-.78.35-.78.77c0 .08.01.14.03.21h1.49c.02-.07.03-.14.03-.21z" fill="#7d4533"/><path d="m16.0912 8.90039c.24 0 .44.2.44.44 0 .07-.02.14-.05.21h-.78c-.03-.07-.05-.14-.05-.21 0-.24.2-.44.44-.44z"/><path d="m19.9612 8.90039c-.24 0-.44.2-.44.44 0 .07.01.14.05.21h.78c.03-.07.05-.14.05-.21 0-.24-.2-.44-.44-.44z"/><path d="m15.9613 9.04039c0 .07732-.0627.14-.14.14s-.14-.06268-.14-.14.0627-.14.14-.14.14.06268.14.14z" fill="#fff"/><path d="m19.8413 9.04039c0 .07732-.0627.14-.14.14s-.14-.06268-.14-.14.0627-.14.14-.14.14.06268.14.14z" fill="#fff"/><path d="m18.0113 11.9603c-.45 0-.87-.11-1.23-.3-.12-.06-.25.08-.18.2.3.46.82.77 1.41.77s1.11-.3 1.41-.77c.07-.12-.05-.25-.18-.19-.36.18-.78.29-1.23.29z" fill="#990838"/><path d="m17.676 9.15125-.4254 1.42475c-.087.291.1257.592.4158.592h.6284c.2998 0 .5028-.301.4158-.592l-.4254-1.42475c-.087-.31104-.5125-.31104-.6092 0z" fill="#75443e"/><path d="m20.9612 7.78033c.04.02.08.03.12.03.08 0 .16-.04.21-.12.06-.11.02-.26-.09-.32-.0025-.00084-.0101-.00465-.0225-.01083-.1344-.06729-.8306-.41572-1.6275-.26917-.13.02-.21.14-.19.27s.15.21.27.19c.6259-.11792 1.2024.16732 1.3116.22135.0112.00554.0175.00865.0184.00865z" fill="#372128"/><path d="m14.7412 7.69072c.04.08.12.12.2.12.04 0 .08 0 .12-.03 0 0 .63-.36 1.33-.23.12.03.25-.06.27-.18.02-.13-.06-.25-.19-.27-.87-.16-1.62.26-1.65.28-.11.06-.15.21-.08.31z" fill="#372128"/><path d="m18.1552 20.01c-.3894 1.2625-1.0984 2.7455-2.3965 3.8678-1.5977 1.3927-3.6647 2.0741-4.903 2.3847-.2796.0702-.5691-.01-.7688-.2104l-.53927-.5411c-.24963-.2505-.66903-.2505-.91867 0s-.24964.6714 0 .9219l.29957.3006h-1.25818c-.33951 0-.63908.2605-.66904.6012-.01997.3306.18973.6112.4893.6813-.1398.1203-.22967.3006-.22967.501 0 .2906.18972.5411.44935.6213-.03994.1102-.04993.2405-.01997.3707.0699.2906.34949.491.65905.491h1.0385c.04992 0 .60911 0 .84873-.0401.1798-.03 4.5335-.6212 7.7988-3.4569 2.2667-1.9739 3.2752-4.5691 3.7146-6.503h-3.5948z" fill="#966661"/><path d="m20.2436 15.6201c-.9746 0-1.7664.77-1.7664 1.73 0 .02.0796 1.21-.3772 2.67h3.65c.3452-1.48.2499-2.56.2499-2.66.0102-.95-.7817-1.74-1.7563-1.74z" fill="#774aa6"/></g></svg>