<svg fill="none" height="32" viewBox="0 0 32 32" width="32" xmlns="http://www.w3.org/2000/svg" xmlns:xlink="http://www.w3.org/1999/xlink"><filter id="a" color-interpolation-filters="sRGB" filterUnits="userSpaceOnUse" height="5.28735" width="7.55292" x="11.3964" y="10.0168"><feFlood flood-opacity="0" result="BackgroundImageFix"/><feBlend in="SourceGraphic" in2="BackgroundImageFix" mode="normal" result="shape"/><feGaussianBlur result="effect1_foregroundBlur_28327_4807" stdDeviation=".5"/></filter><filter id="b" color-interpolation-filters="sRGB" filterUnits="userSpaceOnUse" height="10.8259" width="10.3547" x="13.2488" y="4.36084"><feFlood flood-opacity="0" result="BackgroundImageFix"/><feBlend in="SourceGraphic" in2="BackgroundImageFix" mode="normal" result="shape"/><feGaussianBlur result="effect1_foregroundBlur_28327_4807" stdDeviation=".75"/></filter><filter id="c" color-interpolation-filters="sRGB" filterUnits="userSpaceOnUse" height="10.3354" width="10.931" x="14.5164" y="11.8396"><feFlood flood-opacity="0" result="BackgroundImageFix"/><feBlend in="SourceGraphic" in2="BackgroundImageFix" mode="normal" result="shape"/><feGaussianBlur result="effect1_foregroundBlur_28327_4807" stdDeviation=".75"/></filter><linearGradient id="d"><stop offset="0" stop-color="#e46d33"/><stop offset="1" stop-color="#db592a"/></linearGradient><linearGradient id="e" gradientUnits="userSpaceOnUse" x1="13.1403" x2="14.9663" xlink:href="#d" y1="29.3045" y2="22.8687"/><linearGradient id="f"><stop offset="0" stop-color="#f67f41"/><stop offset="1" stop-color="#f67f41" stop-opacity="0"/></linearGradient><linearGradient id="g" gradientUnits="userSpaceOnUse" x1="17.2656" x2="8.32793" xlink:href="#f" y1="29.1805" y2="29.1805"/><linearGradient id="h"><stop offset="0" stop-color="#ffa56b"/><stop offset="1" stop-color="#ffa56b" stop-opacity="0"/></linearGradient><radialGradient id="i" cx="0" cy="0" gradientTransform="matrix(-4.75 0 0 -.453124 15.9062 29.45)" gradientUnits="userSpaceOnUse" r="1" xlink:href="#h"/><linearGradient id="j"><stop offset="0" stop-color="#f15cc7"/><stop offset=".828473" stop-color="#f15cc7" stop-opacity="0"/></linearGradient><linearGradient id="k" gradientUnits="userSpaceOnUse" x1="13.8137" x2="13.8137" xlink:href="#j" y1="30.4987" y2="29.1991"/><linearGradient id="l"><stop offset="0" stop-color="#ea582f"/><stop offset="1" stop-color="#ea582f" stop-opacity="0"/></linearGradient><linearGradient id="m" gradientUnits="userSpaceOnUse" x1="13.8137" x2="13.8137" xlink:href="#l" y1="26.0125" y2="27.6687"/><linearGradient id="n" gradientUnits="userSpaceOnUse" x1="17.6507" x2="19.4665" xlink:href="#d" y1="29.3045" y2="22.8623"/><linearGradient id="o" gradientUnits="userSpaceOnUse" x1="21.8037" x2="12.8062" xlink:href="#f" y1="29.1805" y2="29.1805"/><radialGradient id="p" cx="0" cy="0" gradientTransform="matrix(-1.52480976 -1.39718176 1.13339584 -1.23692785 21.5942 30.347)" gradientUnits="userSpaceOnUse" r="1" xlink:href="#h"/><linearGradient id="q" gradientUnits="userSpaceOnUse" x1="18.3287" x2="18.3287" xlink:href="#j" y1="30.4987" y2="29.1991"/><linearGradient id="r" gradientUnits="userSpaceOnUse" x1="18.3287" x2="18.3287" xlink:href="#l" y1="26.0125" y2="27.6687"/><radialGradient id="s" cx="0" cy="0" gradientTransform="matrix(9.98979039 -6.90055663 3.35041366 4.85032323 2.104 21.163)" gradientUnits="userSpaceOnUse" r="1"><stop offset="0" stop-color="#e8b744"/><stop offset="1" stop-color="#b96d1e"/></radialGradient><linearGradient id="t" gradientUnits="userSpaceOnUse" x1="14.0938" x2="6.15854" y1="16.6375" y2="21.7543"><stop offset="0" stop-color="#cd7c10"/><stop offset="1" stop-color="#cd7c10" stop-opacity="0"/></linearGradient><linearGradient id="u"><stop offset="0" stop-color="#e7756b"/><stop offset="1" stop-color="#ea8980" stop-opacity="0"/><stop offset="1" stop-color="#e7756b" stop-opacity="0"/></linearGradient><radialGradient id="v" cx="0" cy="0" gradientTransform="matrix(-5.62500513 -2.31248968 2.15177358 -5.23407199 8.90625 20.6375)" gradientUnits="userSpaceOnUse" r="1" xlink:href="#u"/><radialGradient id="w" cx="0" cy="0" gradientTransform="matrix(6.18750182 -4.21303067 3.07163617 4.51118349 -1.21875 21.163)" gradientUnits="userSpaceOnUse" r="1"><stop offset="0" stop-color="#f9c958"/><stop offset=".805148" stop-color="#f9c958" stop-opacity="0"/></radialGradient><linearGradient id="x"><stop offset="0" stop-color="#f8ec1d"/><stop offset="1" stop-color="#f5891f"/></linearGradient><linearGradient id="y" gradientUnits="userSpaceOnUse" x1="31.6563" x2="20.3009" xlink:href="#x" y1="19.8875" y2="18.2149"/><radialGradient id="z" cx="0" cy="0" gradientTransform="matrix(-12.68746203 -12.75006172 .94445059 -.93981357 35.8437 25.325)" gradientUnits="userSpaceOnUse" r="1"><stop offset="0" stop-color="#f8ec1d"/><stop offset="1" stop-color="#f8ec1d" stop-opacity="0"/></radialGradient><radialGradient id="A" cx="0" cy="0" gradientTransform="matrix(-3.81249494 -1.81250786 .9102706 -1.91469628 31 19.4187)" gradientUnits="userSpaceOnUse" r="1"><stop offset="0" stop-color="#f8ec1d"/><stop offset=".512609" stop-color="#f8ec1d" stop-opacity="0"/></radialGradient><linearGradient id="B" gradientUnits="userSpaceOnUse" x1="21.7812" x2="26.677" y1="19.325" y2="18.2217"><stop offset="0" stop-color="#d39344"/><stop offset=".843902" stop-color="#df9d4c" stop-opacity="0"/></linearGradient><radialGradient id="C" cx="0" cy="0" gradientTransform="matrix(3.53125034 -1.78124948 1.65842426 3.28775463 23.875 21.0125)" gradientUnits="userSpaceOnUse" r="1" xlink:href="#u"/><linearGradient id="D" gradientUnits="userSpaceOnUse" x1="21.8437" x2="16.0798" xlink:href="#x" y1="4.26245" y2="30.772"/><linearGradient id="E"><stop offset="0" stop-color="#f5891f"/><stop offset="1" stop-color="#f5891f" stop-opacity="0"/></linearGradient><radialGradient id="F" cx="0" cy="0" gradientTransform="matrix(14.06246196 -6.24998633 5.50529052 12.38689724 3.21875 25.1375)" gradientUnits="userSpaceOnUse" r="1" xlink:href="#E"/><radialGradient id="G" cx="0" cy="0" gradientTransform="matrix(15.06247287 4.68748718 -4.12894077 13.26767539 .1875 9.875)" gradientUnits="userSpaceOnUse" r="1" xlink:href="#E"/><radialGradient id="H" cx="0" cy="0" gradientTransform="matrix(0 18.9837 -12.9275 0 16.0837 8.77876)" gradientUnits="userSpaceOnUse" r="1"><stop offset=".907816" stop-color="#e7756b" stop-opacity="0"/><stop offset="1" stop-color="#e7756b"/></radialGradient><radialGradient id="I" cx="0" cy="0" gradientTransform="matrix(0 -10.1875 9 0 16.0837 28.7)" gradientUnits="userSpaceOnUse" r="1" xlink:href="#u"/><radialGradient id="J" cx="0" cy="0" gradientTransform="matrix(0 3.75 -5.81447 0 16.0837 14.825)" gradientUnits="userSpaceOnUse" r="1"><stop offset="0" stop-color="#ffb14f"/><stop offset="1" stop-color="#ffb14f" stop-opacity="0"/></radialGradient><radialGradient id="K" cx="0" cy="0" gradientTransform="matrix(-21.23424145 -22.16298564 19.06875311 -18.26967333 25.4859 28.8397)" gradientUnits="userSpaceOnUse" r="1"><stop offset=".716325" stop-color="#bba553" stop-opacity="0"/><stop offset="1" stop-color="#bba553"/></radialGradient><linearGradient id="L" gradientUnits="userSpaceOnUse" x1="13.8108" x2="14.0046" y1="10.9236" y2="14.5684"><stop offset="0" stop-color="#e5951b"/><stop offset="1" stop-color="#e5951b" stop-opacity="0"/></linearGradient><linearGradient id="M" gradientUnits="userSpaceOnUse" x1="22.3629" x2="15.7009" y1="9.69306" y2="9.08966"><stop offset="0" stop-color="#fff558"/><stop offset="1" stop-color="#fff558" stop-opacity="0"/></linearGradient><linearGradient id="N"><stop offset=".00558659" stop-color="#433437"/><stop offset="1" stop-color="#3b2838"/></linearGradient><radialGradient id="O" cx="0" cy="0" gradientTransform="matrix(-.40625364 .56249786 -.50148884 -.36219101 19.9722 10.3516)" gradientUnits="userSpaceOnUse" r="1" xlink:href="#N"/><linearGradient id="P"><stop offset="0" stop-color="#5c5051"/><stop offset="1" stop-color="#5c5051" stop-opacity="0"/></linearGradient><radialGradient id="Q" cx="0" cy="0" gradientTransform="matrix(-.26562699 .24218545 -.21306472 -.23368761 20.0106 10.3875)" gradientUnits="userSpaceOnUse" r="1" xlink:href="#P"/><linearGradient id="R"><stop offset="0" stop-color="#5c5051" stop-opacity="0"/><stop offset="1" stop-color="#5c5051"/></linearGradient><linearGradient id="S" gradientUnits="userSpaceOnUse" x1="19.7254" x2="19.3817" xlink:href="#R" y1="10.1197" y2="9.90098"/><radialGradient id="T" cx="0" cy="0" gradientTransform="matrix(-.40625364 .56249786 -.50148884 -.36219101 12.4822 10.3516)" gradientUnits="userSpaceOnUse" r="1" xlink:href="#N"/><radialGradient id="U" cx="0" cy="0" gradientTransform="matrix(-.26562699 .24218545 -.21306472 -.23368761 12.5206 10.3875)" gradientUnits="userSpaceOnUse" r="1" xlink:href="#P"/><linearGradient id="V" gradientUnits="userSpaceOnUse" x1="12.2354" x2="11.8917" xlink:href="#R" y1="10.1197" y2="9.90098"/><radialGradient id="W" cx="0" cy="0" gradientTransform="matrix(0 -1.20443 1.75325 0 16.9835 11.8536)" gradientUnits="userSpaceOnUse" r="1"><stop offset="0" stop-color="#ff8e64"/><stop offset="1" stop-color="#ff8e64" stop-opacity="0"/></radialGradient><linearGradient id="X" gradientUnits="userSpaceOnUse" x1="16.0837" x2="16.0837" y1="12.0977" y2="11.6583"><stop offset="0" stop-color="#c1411b"/><stop offset=".787037" stop-color="#ea6038" stop-opacity="0"/></linearGradient><radialGradient id="Y" cx="0" cy="0" gradientTransform="matrix(.25974035 -1.52473468 .32257499 .05495103 14.6134 12.5372)" gradientUnits="userSpaceOnUse" r="1"><stop offset=".166103" stop-color="#ff8e64"/><stop offset="1" stop-color="#ff8e64" stop-opacity="0"/></radialGradient><radialGradient id="Z" cx="0" cy="0" gradientTransform="matrix(3.62008427 10.93747827 -6.66766561 2.20686257 19.9736 11.8875)" gradientUnits="userSpaceOnUse" r="1"><stop offset="0" stop-color="#ffdf58"/><stop offset=".97205" stop-color="#ffdf58" stop-opacity="0"/></radialGradient><path d="m16.0637 28.5125h-1.72l-.02-6h-1.5l.02 6h-1.29c-.73 0-1.33.52-1.47 1.21-.03.15.09.29.25.29h2.21 1.5 3.25c.16 0 .28-.14.25-.29-.14-.69-.75-1.21-1.48-1.21z" fill="url(#e)"/><path d="m16.0637 28.5125h-1.72l-.02-6h-1.5l.02 6h-1.29c-.73 0-1.33.52-1.47 1.21-.03.15.09.29.25.29h2.21 1.5 3.25c.16 0 .28-.14.25-.29-.14-.69-.75-1.21-1.48-1.21z" fill="url(#g)"/><path d="m16.0637 28.5125h-1.72l-.02-6h-1.5l.02 6h-1.29c-.73 0-1.33.52-1.47 1.21-.03.15.09.29.25.29h2.21 1.5 3.25c.16 0 .28-.14.25-.29-.14-.69-.75-1.21-1.48-1.21z" fill="url(#i)" fill-opacity=".75"/><path d="m16.0637 28.5125h-1.72l-.02-6h-1.5l.02 6h-1.29c-.73 0-1.33.52-1.47 1.21-.03.15.09.29.25.29h2.21 1.5 3.25c.16 0 .28-.14.25-.29-.14-.69-.75-1.21-1.48-1.21z" fill="url(#k)"/><path d="m16.0637 28.5125h-1.72l-.02-6h-1.5l.02 6h-1.29c-.73 0-1.33.52-1.47 1.21-.03.15.09.29.25.29h2.21 1.5 3.25c.16 0 .28-.14.25-.29-.14-.69-.75-1.21-1.48-1.21z" fill="url(#m)"/><path d="m20.6137 28.5125h-1.27l-.02-6h-1.5l.02 6h-1.8c-.73 0-1.33.52-1.47 1.21-.03.15.09.29.24.29h2.72 1.5 2.8c.16 0 .28-.14.25-.29-.13-.69-.74-1.21-1.47-1.21z" fill="url(#n)"/><path d="m20.6137 28.5125h-1.27l-.02-6h-1.5l.02 6h-1.8c-.73 0-1.33.52-1.47 1.21-.03.15.09.29.24.29h2.72 1.5 2.8c.16 0 .28-.14.25-.29-.13-.69-.74-1.21-1.47-1.21z" fill="url(#o)"/><path d="m20.6137 28.5125h-1.27l-.02-6h-1.5l.02 6h-1.8c-.73 0-1.33.52-1.47 1.21-.03.15.09.29.24.29h2.72 1.5 2.8c.16 0 .28-.14.25-.29-.13-.69-.74-1.21-1.47-1.21z" fill="url(#p)"/><path d="m20.6137 28.5125h-1.27l-.02-6h-1.5l.02 6h-1.8c-.73 0-1.33.52-1.47 1.21-.03.15.09.29.24.29h2.72 1.5 2.8c.16 0 .28-.14.25-.29-.13-.69-.74-1.21-1.47-1.21z" fill="url(#q)"/><path d="m20.6137 28.5125h-1.27l-.02-6h-1.5l.02 6h-1.8c-.73 0-1.33.52-1.47 1.21-.03.15.09.29.24.29h2.72 1.5 2.8c.16 0 .28-.14.25-.29-.13-.69-.74-1.21-1.47-1.21z" fill="url(#r)"/><path d="m10.5437 11.0125c.65 1.04 1.03 2.28 1.02 3.6-.04 3.59-2.96996 6.51-6.54996 6.55-.78.01-1.53-.12-2.23-.36s-.91-1.12-.39-1.65z" fill="url(#s)"/><path d="m10.5437 11.0125c.65 1.04 1.03 2.28 1.02 3.6-.04 3.59-2.96996 6.51-6.54996 6.55-.78.01-1.53-.12-2.23-.36s-.91-1.12-.39-1.65z" fill="url(#t)"/><path d="m10.5437 11.0125c.65 1.04 1.03 2.28 1.02 3.6-.04 3.59-2.96996 6.51-6.54996 6.55-.78.01-1.53-.12-2.23-.36s-.91-1.12-.39-1.65z" fill="url(#v)"/><path d="m10.5437 11.0125c.65 1.04 1.03 2.28 1.02 3.6-.04 3.59-2.96996 6.51-6.54996 6.55-.78.01-1.53-.12-2.23-.36s-.91-1.12-.39-1.65z" fill="url(#w)"/><path d="m21.6337 11.0125c-.66 1.04-1.03 2.28-1.02 3.61.04 3.59 2.97 6.51 6.55 6.55.78.01 1.53-.12 2.23-.36s.91-1.12.39-1.65z" fill="url(#y)"/><path d="m21.6337 11.0125c-.66 1.04-1.03 2.28-1.02 3.61.04 3.59 2.97 6.51 6.55 6.55.78.01 1.53-.12 2.23-.36s.91-1.12.39-1.65z" fill="url(#z)"/><path d="m21.6337 11.0125c-.66 1.04-1.03 2.28-1.02 3.61.04 3.59 2.97 6.51 6.55 6.55.78.01 1.53-.12 2.23-.36s.91-1.12.39-1.65z" fill="url(#A)"/><path d="m21.6337 11.0125c-.66 1.04-1.03 2.28-1.02 3.61.04 3.59 2.97 6.51 6.55 6.55.78.01 1.53-.12 2.23-.36s.91-1.12.39-1.65z" fill="url(#B)"/><path d="m21.6337 11.0125c-.66 1.04-1.03 2.28-1.02 3.61.04 3.59 2.97 6.51 6.55 6.55.78.01 1.53-.12 2.23-.36s.91-1.12.39-1.65z" fill="url(#C)"/><path d="m23.2837 12.6225c-.13-.18-.2-.39-.2-.61 0-3.65005-2.79-6.64005-6.35-6.97005-.21-.02-.43-.03-.65-.03s-.44.01-.65.03c-3.56.33-6.34996 3.33-6.34996 6.97005 0 .22-.07.43-.2.61-1.13 1.5-1.8 3.37-1.8 5.39 0 4.97 4.02996 9 8.99996 9s9-4.03 9-9c0-2.02-.67-3.89-1.8-5.39z" fill="url(#D)"/><path d="m23.2837 12.6225c-.13-.18-.2-.39-.2-.61 0-3.65005-2.79-6.64005-6.35-6.97005-.21-.02-.43-.03-.65-.03s-.44.01-.65.03c-3.56.33-6.34996 3.33-6.34996 6.97005 0 .22-.07.43-.2.61-1.13 1.5-1.8 3.37-1.8 5.39 0 4.97 4.02996 9 8.99996 9s9-4.03 9-9c0-2.02-.67-3.89-1.8-5.39z" fill="url(#F)"/><path d="m23.2837 12.6225c-.13-.18-.2-.39-.2-.61 0-3.65005-2.79-6.64005-6.35-6.97005-.21-.02-.43-.03-.65-.03s-.44.01-.65.03c-3.56.33-6.34996 3.33-6.34996 6.97005 0 .22-.07.43-.2.61-1.13 1.5-1.8 3.37-1.8 5.39 0 4.97 4.02996 9 8.99996 9s9-4.03 9-9c0-2.02-.67-3.89-1.8-5.39z" fill="url(#G)"/><path d="m23.2837 12.6225c-.13-.18-.2-.39-.2-.61 0-3.65005-2.79-6.64005-6.35-6.97005-.21-.02-.43-.03-.65-.03s-.44.01-.65.03c-3.56.33-6.34996 3.33-6.34996 6.97005 0 .22-.07.43-.2.61-1.13 1.5-1.8 3.37-1.8 5.39 0 4.97 4.02996 9 8.99996 9s9-4.03 9-9c0-2.02-.67-3.89-1.8-5.39z" fill="url(#H)"/><path d="m23.2837 12.6225c-.13-.18-.2-.39-.2-.61 0-3.65005-2.79-6.64005-6.35-6.97005-.21-.02-.43-.03-.65-.03s-.44.01-.65.03c-3.56.33-6.34996 3.33-6.34996 6.97005 0 .22-.07.43-.2.61-1.13 1.5-1.8 3.37-1.8 5.39 0 4.97 4.02996 9 8.99996 9s9-4.03 9-9c0-2.02-.67-3.89-1.8-5.39z" fill="url(#I)"/><path d="m23.2837 12.6225c-.13-.18-.2-.39-.2-.61 0-3.65005-2.79-6.64005-6.35-6.97005-.21-.02-.43-.03-.65-.03s-.44.01-.65.03c-3.56.33-6.34996 3.33-6.34996 6.97005 0 .22-.07.43-.2.61-1.13 1.5-1.8 3.37-1.8 5.39 0 4.97 4.02996 9 8.99996 9s9-4.03 9-9c0-2.02-.67-3.89-1.8-5.39z" fill="url(#J)"/><path d="m23.2837 12.6225c-.13-.18-.2-.39-.2-.61 0-3.65005-2.79-6.64005-6.35-6.97005-.21-.02-.43-.03-.65-.03s-.44.01-.65.03c-3.56.33-6.34996 3.33-6.34996 6.97005 0 .22-.07.43-.2.61-1.13 1.5-1.8 3.37-1.8 5.39 0 4.97 4.02996 9 8.99996 9s9-4.03 9-9c0-2.02-.67-3.89-1.8-5.39z" fill="url(#K)"/><g filter="url(#a)"><ellipse cx="15.1728" cy="12.6606" fill="url(#L)" fill-opacity=".5" rx="1.44721" ry="2.88322" transform="matrix(.31232829 .94997423 -.94997423 .31232829 22.461149 -5.707433)"/></g><g filter="url(#b)"><ellipse cx="18.4261" cy="9.77372" fill="url(#M)" rx="3.10136" ry="4.38293" transform="matrix(.77005803 -.63797385 .63797385 .77005803 -1.998444 14.002758)"/></g><path d="m19.8237 11.0125c.2762 0 .5-.2239.5-.5 0-.2762-.2238-.5-.5-.5-.2761 0-.5.2238-.5.5 0 .2761.2239.5.5.5z" fill="url(#O)"/><path d="m19.8237 11.0125c.2762 0 .5-.2239.5-.5 0-.2762-.2238-.5-.5-.5-.2761 0-.5.2238-.5.5 0 .2761.2239.5.5.5z" fill="url(#Q)"/><path d="m19.8237 11.0125c.2762 0 .5-.2239.5-.5 0-.2762-.2238-.5-.5-.5-.2761 0-.5.2238-.5.5 0 .2761.2239.5.5.5z" fill="url(#S)"/><path d="m12.3337 11.0125c.2762 0 .5-.2239.5-.5 0-.2762-.2238-.5-.5-.5-.2761 0-.5.2238-.5.5 0 .2761.2239.5.5.5z" fill="url(#T)"/><path d="m12.3337 11.0125c.2762 0 .5-.2239.5-.5 0-.2762-.2238-.5-.5-.5-.2761 0-.5.2238-.5.5 0 .2761.2239.5.5.5z" fill="url(#U)"/><path d="m12.3337 11.0125c.2762 0 .5-.2239.5-.5 0-.2762-.2238-.5-.5-.5-.2761 0-.5.2238-.5.5 0 .2761.2239.5.5.5z" fill="url(#V)"/><path d="m16.0837 10.0125c-1.1 0-2 .9-2 2h4c0-1.1-.9-2-2-2z" fill="#ed6c32"/><path d="m16.0837 10.0125c-1.1 0-2 .9-2 2h4c0-1.1-.9-2-2-2z" fill="url(#W)"/><path d="m16.0837 10.0125c-1.1 0-2 .9-2 2h4c0-1.1-.9-2-2-2z" fill="url(#X)"/><path d="m16.0837 10.0125c-1.1 0-2 .9-2 2h4c0-1.1-.9-2-2-2z" fill="url(#Y)"/><g filter="url(#c)"><path d="m22.1859 13.4832c-1.5354 1.3406-4.1276 1.7572-5.6864 1.8296-.2758.0128-.5015.2374-.482.5129.2934 4.1302 4.2111 5.9495 7.4564 4.1662.1173-.0645.201-.1783.2303-.3089.6213-2.7699-.0624-4.9925-.7726-6.1412-.1603-.2591-.5161-.2589-.7457-.0586z" fill="url(#Z)"/></g></svg>