<svg fill="none" height="32" viewBox="0 0 32 32" width="32" xmlns="http://www.w3.org/2000/svg" xmlns:xlink="http://www.w3.org/1999/xlink"><filter id="a" color-interpolation-filters="sRGB" filterUnits="userSpaceOnUse" height="7.71942" width="7.34686" x="13.1331" y="2.40381"><feFlood flood-opacity="0" result="BackgroundImageFix"/><feBlend in="SourceGraphic" in2="BackgroundImageFix" mode="normal" result="shape"/><feGaussianBlur result="effect1_foregroundBlur_28327_3508" stdDeviation=".75"/></filter><filter id="b" color-interpolation-filters="sRGB" filterUnits="userSpaceOnUse" height="10.0889" width="9.3949" x="20.7499" y="6.44904"><feFlood flood-opacity="0" result="BackgroundImageFix"/><feBlend in="SourceGraphic" in2="BackgroundImageFix" mode="normal" result="shape"/><feGaussianBlur result="effect1_foregroundBlur_28327_3508" stdDeviation=".75"/></filter><filter id="c" color-interpolation-filters="sRGB" filterUnits="userSpaceOnUse" height="11.2752" width="7.58682" x="10.7546" y="5.58757"><feFlood flood-opacity="0" result="BackgroundImageFix"/><feBlend in="SourceGraphic" in2="BackgroundImageFix" mode="normal" result="shape"/><feGaussianBlur result="effect1_foregroundBlur_28327_3508" stdDeviation=".4"/></filter><filter id="d" color-interpolation-filters="sRGB" filterUnits="userSpaceOnUse" height="2.85498" width="1.94934" x="7.73364" y="11.7425"><feFlood flood-opacity="0" result="BackgroundImageFix"/><feBlend in="SourceGraphic" in2="BackgroundImageFix" mode="normal" result="shape"/><feGaussianBlur result="effect1_foregroundBlur_28327_3508" stdDeviation=".25"/></filter><filter id="e" color-interpolation-filters="sRGB" filterUnits="userSpaceOnUse" height="3.83999" width="3.77999" x="7.17583" y="14.08"><feFlood flood-opacity="0" result="BackgroundImageFix"/><feBlend in="SourceGraphic" in2="BackgroundImageFix" mode="normal" result="shape"/><feGaussianBlur result="effect1_foregroundBlur_28327_3508" stdDeviation=".15"/></filter><filter id="f" color-interpolation-filters="sRGB" filterUnits="userSpaceOnUse" height="5.21877" width="3.81252" x="4.96331" y="20.0756"><feFlood flood-opacity="0" result="BackgroundImageFix"/><feBlend in="SourceGraphic" in2="BackgroundImageFix" mode="normal" result="shape"/><feGaussianBlur result="effect1_foregroundBlur_28327_3508" stdDeviation=".4"/></filter><filter id="g" color-interpolation-filters="sRGB" filterUnits="userSpaceOnUse" height="4.2129" width="4.17061" x="13.899" y="6.25332"><feFlood flood-opacity="0" result="BackgroundImageFix"/><feBlend in="SourceGraphic" in2="BackgroundImageFix" mode="normal" result="shape"/><feGaussianBlur result="effect1_foregroundBlur_28327_3508" stdDeviation=".2"/></filter><filter id="h" color-interpolation-filters="sRGB" filterUnits="userSpaceOnUse" height="7.6438" width="6.34222" x="2.08362" y="13.0662"><feFlood flood-opacity="0" result="BackgroundImageFix"/><feBlend in="SourceGraphic" in2="BackgroundImageFix" mode="normal" result="shape"/><feGaussianBlur result="effect1_foregroundBlur_28327_3508" stdDeviation=".25"/></filter><filter id="i" color-interpolation-filters="sRGB" filterUnits="userSpaceOnUse" height="2.95781" width="1.87566" x="8.4658" y="14.5811"><feFlood flood-opacity="0" result="BackgroundImageFix"/><feBlend in="SourceGraphic" in2="BackgroundImageFix" mode="normal" result="shape"/><feGaussianBlur result="effect1_foregroundBlur_28327_3508" stdDeviation=".3"/></filter><filter id="j" color-interpolation-filters="sRGB" filterUnits="userSpaceOnUse" height="9.15625" width="4.25" x="16.8665" y="20.8725"><feFlood flood-opacity="0" result="BackgroundImageFix"/><feBlend in="SourceGraphic" in2="BackgroundImageFix" mode="normal" result="shape"/><feGaussianBlur result="effect1_foregroundBlur_28327_3508" stdDeviation=".75"/></filter><radialGradient id="k" cx="0" cy="0" gradientTransform="matrix(.68749795 4.62500154 -3.29211697 .48936711 18.7571 25.9975)" gradientUnits="userSpaceOnUse" r="1"><stop offset="0" stop-color="#693a40"/><stop offset="1" stop-color="#4b1e24"/></radialGradient><linearGradient id="l"><stop offset="0" stop-color="#873d72"/><stop offset=".689655" stop-color="#6a315a" stop-opacity="0"/></linearGradient><linearGradient id="m" gradientUnits="userSpaceOnUse" x1="20.1722" x2="20.1722" xlink:href="#l" y1="29.5912" y2="27.06"/><linearGradient id="n" gradientUnits="userSpaceOnUse" x1="25.0696" x2="25.0696" y1="29.435" y2="27.8412"><stop offset="0" stop-color="#723365"/><stop offset="1" stop-color="#723365" stop-opacity="0"/></linearGradient><linearGradient id="o" gradientUnits="userSpaceOnUse" x1="1.22583" x2="15.9758" y1="21.7475" y2="21.7475"><stop offset="0" stop-color="#704440"/><stop offset="1" stop-color="#704440" stop-opacity="0"/></linearGradient><linearGradient id="p"><stop offset="0" stop-color="#873d72"/><stop offset="1" stop-color="#6a315a" stop-opacity="0"/></linearGradient><radialGradient id="q" cx="0" cy="0" gradientTransform="matrix(-4.25499353 -4.50000145 3.2279024 -3.05215542 21.2258 23.3725)" gradientUnits="userSpaceOnUse" r="1" xlink:href="#p"/><radialGradient id="r" cx="0" cy="0" gradientTransform="matrix(2.81250462 -3.37500208 2.31762276 1.93135428 9.41333 20.435)" gradientUnits="userSpaceOnUse" r="1" xlink:href="#p"/><radialGradient id="s" cx="0" cy="0" gradientTransform="matrix(.75000144 -2.96874794 4.39422241 1.11012225 6.91333 26.9975)" gradientUnits="userSpaceOnUse" r="1" xlink:href="#p"/><radialGradient id="t" cx="0" cy="0" gradientTransform="matrix(-4.34876763 -5.34372149 4.2645436 -3.47052315 21.3196 24.2162)" gradientUnits="userSpaceOnUse" r="1"><stop offset="0" stop-color="#873d72"/><stop offset=".648123" stop-color="#6a315a" stop-opacity="0"/></radialGradient><linearGradient id="u" gradientUnits="userSpaceOnUse" x1="25.7883" x2="25.7883" xlink:href="#l" y1="29.685" y2="26.06"/><radialGradient id="v" cx="0" cy="0" gradientTransform="matrix(2.68750069 -4.43750369 3.34004293 2.02284173 10.2571 21.5912)" gradientUnits="userSpaceOnUse" r="1"><stop offset="0" stop-color="#60383b"/><stop offset="1" stop-color="#60383b" stop-opacity="0"/></radialGradient><linearGradient id="w"><stop offset="0" stop-color="#664644"/><stop offset="1" stop-color="#664644" stop-opacity="0"/></linearGradient><linearGradient id="x" gradientUnits="userSpaceOnUse" x1="2.85083" x2="7.22583" xlink:href="#w" y1="20.435" y2="20.435"/><radialGradient id="y" cx="0" cy="0" gradientTransform="matrix(1.87499638 6.37500427 -4.32444642 1.2718927 11.6008 3.3725)" gradientUnits="userSpaceOnUse" r="1" xlink:href="#w"/><radialGradient id="z" cx="0" cy="0" gradientTransform="matrix(4.62500118 .68750037 -.20519353 1.38039245 3.03833 7.2475)" gradientUnits="userSpaceOnUse" r="1"><stop offset=".128417" stop-color="#664644"/><stop offset="1" stop-color="#664644" stop-opacity="0"/></radialGradient><radialGradient id="A" cx="0" cy="0" gradientTransform="matrix(-2.56249241 -1.15625599 1.64859265 -3.65360803 7.60083 18.8412)" gradientUnits="userSpaceOnUse" r="1"><stop offset="0" stop-color="#562727"/><stop offset=".713827" stop-color="#562727" stop-opacity="0"/></radialGradient><radialGradient id="B" cx="0" cy="0" gradientTransform="matrix(-1.06251412 1.65624369 -2.3614704 -1.51493144 5.16333 20.9975)" gradientUnits="userSpaceOnUse" r="1"><stop offset="0" stop-color="#562727"/><stop offset="1" stop-color="#562727" stop-opacity="0"/></radialGradient><radialGradient id="C" cx="0" cy="0" gradientTransform="matrix(4.93749685 -1.81249778 2.44733342 6.66687773 23.3508 25.3725)" gradientUnits="userSpaceOnUse" r="1"><stop offset="0" stop-color="#693944"/><stop offset="1" stop-color="#693944" stop-opacity="0"/></radialGradient><radialGradient id="D" cx="0" cy="0" gradientTransform="matrix(2.14062413 2.12499719 -.88746621 .89399252 7.36645 3.31)" gradientUnits="userSpaceOnUse" r="1"><stop offset="0" stop-color="#89675e"/><stop offset="1" stop-color="#89675e" stop-opacity="0"/></radialGradient><linearGradient id="E"><stop offset="0" stop-color="#996f67"/><stop offset="1" stop-color="#986e65" stop-opacity="0"/></linearGradient><radialGradient id="F" cx="0" cy="0" gradientTransform="matrix(-2.31184475 4.93593285 -3.46679256 -1.62374295 18.7877 5.72932)" gradientUnits="userSpaceOnUse" r="1" xlink:href="#E"/><radialGradient id="G" cx="0" cy="0" gradientTransform="matrix(-2.87695628 7.869312 -4.64048522 -1.69652354 27.9128 10.6418)" gradientUnits="userSpaceOnUse" r="1" xlink:href="#E"/><linearGradient id="H" gradientUnits="userSpaceOnUse" x1="14.9758" x2="13.3508" y1="6.06" y2="13.2787"><stop offset="0" stop-color="#704b4a"/><stop offset="1" stop-color="#684345"/></linearGradient><linearGradient id="I" gradientUnits="userSpaceOnUse" x1="14.4758" x2="14.4758" y1="16.3725" y2="15.0444"><stop offset="0" stop-color="#5a3046"/><stop offset="1" stop-color="#5a3046" stop-opacity="0"/></linearGradient><radialGradient id="J" cx="0" cy="0" gradientTransform="matrix(5.96874778 6.43749791 -10.67971429 9.90206473 10.0696 7.935)" gradientUnits="userSpaceOnUse" r="1"><stop offset=".862843" stop-color="#5a3046" stop-opacity="0"/><stop offset=".972496" stop-color="#5a3046"/></radialGradient><radialGradient id="K" cx="0" cy="0" gradientTransform="matrix(.03125028 10.34375279 -8.36753181 .02527977 12.2258 10.0287)" gradientUnits="userSpaceOnUse" r="1"><stop offset="0" stop-color="#6c4340"/><stop offset="1" stop-color="#6c4340" stop-opacity="0"/></radialGradient><linearGradient id="L"><stop offset=".228008" stop-color="#5a3535"/><stop offset="1" stop-color="#5a3535" stop-opacity="0"/></linearGradient><linearGradient id="M" gradientUnits="userSpaceOnUse" x1="15.1946" x2="15.1946" xlink:href="#L" y1="4.56" y2="6.9975"/><linearGradient id="N" gradientUnits="userSpaceOnUse" x1="9.85083" x2="12.7883" xlink:href="#L" y1="7.9975" y2="7.9975"/><linearGradient id="O" gradientUnits="userSpaceOnUse" x1="17.5071" x2="16.5383" y1="13.31" y2="12.185"><stop offset="0" stop-color="#5a3535"/><stop offset="1" stop-color="#5a3535" stop-opacity="0"/></linearGradient><linearGradient id="P" gradientUnits="userSpaceOnUse" x1="9.29236" x2="8.7135" y1="13.0869" y2="13.0869"><stop offset=".225" stop-color="#594c4f"/><stop offset="1" stop-color="#392833"/></linearGradient><linearGradient id="Q" gradientUnits="userSpaceOnUse" x1="9.44861" x2="9.44861" y1="14.0923" y2="13.1745"><stop offset="0" stop-color="#552d52"/><stop offset="1" stop-color="#552d52" stop-opacity="0"/></linearGradient><radialGradient id="R" cx="0" cy="0" gradientTransform="matrix(-.38575267 -1.06510721 1.05420989 -.38180596 8.98694 13.2039)" gradientUnits="userSpaceOnUse" r="1"><stop offset=".813951" stop-color="#594c4f" stop-opacity="0"/><stop offset="1" stop-color="#594c4f"/></radialGradient><linearGradient id="S" gradientUnits="userSpaceOnUse" x1="9.06582" x2="9.06582" y1="17.3725" y2="16.435"><stop offset="0" stop-color="#763f4e"/><stop offset=".507143" stop-color="#763f4e" stop-opacity=".078572"/></linearGradient><linearGradient id="T" gradientUnits="userSpaceOnUse" x1="10.3558" x2="9.44456" y1="14.9975" y2="16.3725"><stop offset="0" stop-color="#88635e"/><stop offset="1" stop-color="#88635e" stop-opacity="0"/></linearGradient><linearGradient id="U" gradientUnits="userSpaceOnUse" x1="3.28833" x2="10.0593" y1="17.2667" y2="17.2667"><stop offset="0" stop-color="#e1a776"/><stop offset="1" stop-color="#f5a86e"/></linearGradient><radialGradient id="V" cx="0" cy="0" gradientTransform="matrix(-1.78123927 .71876345 -1.0966027 -2.7176003 4.94458 17.4975)" gradientUnits="userSpaceOnUse" r="1"><stop offset="0" stop-color="#ffea9e"/><stop offset="1" stop-color="#ffea9e" stop-opacity="0"/></radialGradient><linearGradient id="W" gradientUnits="userSpaceOnUse" x1="1.81958" x2="3.19458" y1="21.36" y2="21.36"><stop offset="0" stop-color="#ba8961"/><stop offset=".615385" stop-color="#ba8961" stop-opacity="0"/></linearGradient><radialGradient id="X" cx="0" cy="0" gradientTransform="matrix(-6.25003532 6.87496388 -5.95571127 -5.41434201 9.44458 13.7475)" gradientUnits="userSpaceOnUse" r="1"><stop offset=".84457" stop-color="#ba8961" stop-opacity="0"/><stop offset="1" stop-color="#ba8961"/></radialGradient><radialGradient id="Y" cx="0" cy="0" gradientTransform="matrix(11.31248128 2.37498632 -1.33334224 6.35094566 -1.02417 16.3725)" gradientUnits="userSpaceOnUse" r="1"><stop offset=".895249" stop-color="#e3925e" stop-opacity="0"/><stop offset="1" stop-color="#e3925e"/></radialGradient><linearGradient id="Z" gradientUnits="userSpaceOnUse" x1="17.8821" x2="14.7415" y1="10.0912" y2="6.26929"><stop offset="0" stop-color="#816661" stop-opacity="0"/><stop offset=".475294" stop-color="#816661"/><stop offset="1" stop-color="#816661" stop-opacity="0"/></linearGradient><linearGradient id="aa" gradientUnits="userSpaceOnUse" x1="8.26956" x2="5.52208" y1="20.3479" y2="13.784"><stop offset="0" stop-color="#fff0bb" stop-opacity="0"/><stop offset="1" stop-color="#fff0bb"/></linearGradient><path d="m20.9758 22.06h-5v6.06c0 .52.42.94.94.94h3.12c.52 0 .94-.42.94-.94z" fill="url(#k)"/><path d="m20.9758 22.06h-5v6.06c0 .52.42.94.94.94h3.12c.52 0 .94-.42.94-.94z" fill="url(#m)"/><path d="m21.9758 22.06.51.25c.92.46 1.49 1.39 1.49 2.42v3.39c0 .52.42.94.94.94h3.12c.52 0 .94-.42.94-.94v-6.06z" fill="#4f272f"/><path d="m21.9758 22.06.51.25c.92.46 1.49 1.39 1.49 2.42v3.39c0 .52.42.94.94.94h3.12c.52 0 .94-.42.94-.94v-6.06z" fill="url(#n)"/><path d="m21.2258 6.06c-.83 0-1.59-.42-2.07-1.09-.82-1.16-2.16-1.91-3.68-1.91s-2.86.75-3.68 1.91l-.01.01c-.45.63-1.31.8-1.96997.41l-2.9-1.67c-.25-.15-.56.02-.58.31-.04.67.18 1.32.6 1.82.07.08.01.21-.1.21h-2.23c-.19 0-.35.16-.35.35 0 .16.04.31.13.44.25.4.6.71 1 .92-.87.94-1.41 2.21-1.41 3.6v7.69 4c0 1.66 1.34 3 3 3h.5c.83 0 1.5-.67 1.5-1.5s-.67-1.5-1.5-1.5h-.17c-.18 0-.33-.15-.33-.33v-3.29c0-.21.17-.38.38-.38h1.37c.77 0 1.51997.3 2.06997.85l.29.28c.57.56.89 1.32.89 2.11 0 .49-.15.98-.42 1.39l-2.27997 3.43c-.56.83.04 1.94 1.03997 1.94h2.39c.79 0 1.51-.42 1.9-1.1l3.1-5.43c.17-.29.48-.47.81-.47h3.89c.37 0 .74.09 1.07.25.92.46 1.49 1.39 1.49 2.42v3.39c0 .52.42.94.94.94h3.12c.52 0 .94-.42.94-.94v-6.06-7.25c.01-4.83-3.91-8.75-8.74-8.75z" fill="#825452"/><path d="m21.2258 6.06c-.83 0-1.59-.42-2.07-1.09-.82-1.16-2.16-1.91-3.68-1.91s-2.86.75-3.68 1.91l-.01.01c-.45.63-1.31.8-1.96997.41l-2.9-1.67c-.25-.15-.56.02-.58.31-.04.67.18 1.32.6 1.82.07.08.01.21-.1.21h-2.23c-.19 0-.35.16-.35.35 0 .16.04.31.13.44.25.4.6.71 1 .92-.87.94-1.41 2.21-1.41 3.6v7.69 4c0 1.66 1.34 3 3 3h.5c.83 0 1.5-.67 1.5-1.5s-.67-1.5-1.5-1.5h-.17c-.18 0-.33-.15-.33-.33v-3.29c0-.21.17-.38.38-.38h1.37c.77 0 1.51997.3 2.06997.85l.29.28c.57.56.89 1.32.89 2.11 0 .49-.15.98-.42 1.39l-2.27997 3.43c-.56.83.04 1.94 1.03997 1.94h2.39c.79 0 1.51-.42 1.9-1.1l3.1-5.43c.17-.29.48-.47.81-.47h3.89c.37 0 .74.09 1.07.25.92.46 1.49 1.39 1.49 2.42v3.39c0 .52.42.94.94.94h3.12c.52 0 .94-.42.94-.94v-6.06-7.25c.01-4.83-3.91-8.75-8.74-8.75z" fill="url(#o)"/><path d="m21.2258 6.06c-.83 0-1.59-.42-2.07-1.09-.82-1.16-2.16-1.91-3.68-1.91s-2.86.75-3.68 1.91l-.01.01c-.45.63-1.31.8-1.96997.41l-2.9-1.67c-.25-.15-.56.02-.58.31-.04.67.18 1.32.6 1.82.07.08.01.21-.1.21h-2.23c-.19 0-.35.16-.35.35 0 .16.04.31.13.44.25.4.6.71 1 .92-.87.94-1.41 2.21-1.41 3.6v7.69 4c0 1.66 1.34 3 3 3h.5c.83 0 1.5-.67 1.5-1.5s-.67-1.5-1.5-1.5h-.17c-.18 0-.33-.15-.33-.33v-3.29c0-.21.17-.38.38-.38h1.37c.77 0 1.51997.3 2.06997.85l.29.28c.57.56.89 1.32.89 2.11 0 .49-.15.98-.42 1.39l-2.27997 3.43c-.56.83.04 1.94 1.03997 1.94h2.39c.79 0 1.51-.42 1.9-1.1l3.1-5.43c.17-.29.48-.47.81-.47h3.89c.37 0 .74.09 1.07.25.92.46 1.49 1.39 1.49 2.42v3.39c0 .52.42.94.94.94h3.12c.52 0 .94-.42.94-.94v-6.06-7.25c.01-4.83-3.91-8.75-8.74-8.75z" fill="url(#q)"/><path d="m21.2258 6.06c-.83 0-1.59-.42-2.07-1.09-.82-1.16-2.16-1.91-3.68-1.91s-2.86.75-3.68 1.91l-.01.01c-.45.63-1.31.8-1.96997.41l-2.9-1.67c-.25-.15-.56.02-.58.31-.04.67.18 1.32.6 1.82.07.08.01.21-.1.21h-2.23c-.19 0-.35.16-.35.35 0 .16.04.31.13.44.25.4.6.71 1 .92-.87.94-1.41 2.21-1.41 3.6v7.69 4c0 1.66 1.34 3 3 3h.5c.83 0 1.5-.67 1.5-1.5s-.67-1.5-1.5-1.5h-.17c-.18 0-.33-.15-.33-.33v-3.29c0-.21.17-.38.38-.38h1.37c.77 0 1.51997.3 2.06997.85l.29.28c.57.56.89 1.32.89 2.11 0 .49-.15.98-.42 1.39l-2.27997 3.43c-.56.83.04 1.94 1.03997 1.94h2.39c.79 0 1.51-.42 1.9-1.1l3.1-5.43c.17-.29.48-.47.81-.47h3.89c.37 0 .74.09 1.07.25.92.46 1.49 1.39 1.49 2.42v3.39c0 .52.42.94.94.94h3.12c.52 0 .94-.42.94-.94v-6.06-7.25c.01-4.83-3.91-8.75-8.74-8.75z" fill="url(#r)"/><path d="m21.2258 6.06c-.83 0-1.59-.42-2.07-1.09-.82-1.16-2.16-1.91-3.68-1.91s-2.86.75-3.68 1.91l-.01.01c-.45.63-1.31.8-1.96997.41l-2.9-1.67c-.25-.15-.56.02-.58.31-.04.67.18 1.32.6 1.82.07.08.01.21-.1.21h-2.23c-.19 0-.35.16-.35.35 0 .16.04.31.13.44.25.4.6.71 1 .92-.87.94-1.41 2.21-1.41 3.6v7.69 4c0 1.66 1.34 3 3 3h.5c.83 0 1.5-.67 1.5-1.5s-.67-1.5-1.5-1.5h-.17c-.18 0-.33-.15-.33-.33v-3.29c0-.21.17-.38.38-.38h1.37c.77 0 1.51997.3 2.06997.85l.29.28c.57.56.89 1.32.89 2.11 0 .49-.15.98-.42 1.39l-2.27997 3.43c-.56.83.04 1.94 1.03997 1.94h2.39c.79 0 1.51-.42 1.9-1.1l3.1-5.43c.17-.29.48-.47.81-.47h3.89c.37 0 .74.09 1.07.25.92.46 1.49 1.39 1.49 2.42v3.39c0 .52.42.94.94.94h3.12c.52 0 .94-.42.94-.94v-6.06-7.25c.01-4.83-3.91-8.75-8.74-8.75z" fill="url(#s)"/><path d="m21.2258 6.06c-.83 0-1.59-.42-2.07-1.09-.82-1.16-2.16-1.91-3.68-1.91s-2.86.75-3.68 1.91l-.01.01c-.45.63-1.31.8-1.96997.41l-2.9-1.67c-.25-.15-.56.02-.58.31-.04.67.18 1.32.6 1.82.07.08.01.21-.1.21h-2.23c-.19 0-.35.16-.35.35 0 .16.04.31.13.44.25.4.6.71 1 .92-.87.94-1.41 2.21-1.41 3.6v7.69 4c0 1.66 1.34 3 3 3h.5c.83 0 1.5-.67 1.5-1.5s-.67-1.5-1.5-1.5h-.17c-.18 0-.33-.15-.33-.33v-3.29c0-.21.17-.38.38-.38h1.37c.77 0 1.51997.3 2.06997.85l.29.28c.57.56.89 1.32.89 2.11 0 .49-.15.98-.42 1.39l-2.27997 3.43c-.56.83.04 1.94 1.03997 1.94h2.39c.79 0 1.51-.42 1.9-1.1l3.1-5.43c.17-.29.48-.47.81-.47h3.89c.37 0 .74.09 1.07.25.92.46 1.49 1.39 1.49 2.42v3.39c0 .52.42.94.94.94h3.12c.52 0 .94-.42.94-.94v-6.06-7.25c.01-4.83-3.91-8.75-8.74-8.75z" fill="url(#t)"/><path d="m21.2258 6.06c-.83 0-1.59-.42-2.07-1.09-.82-1.16-2.16-1.91-3.68-1.91s-2.86.75-3.68 1.91l-.01.01c-.45.63-1.31.8-1.96997.41l-2.9-1.67c-.25-.15-.56.02-.58.31-.04.67.18 1.32.6 1.82.07.08.01.21-.1.21h-2.23c-.19 0-.35.16-.35.35 0 .16.04.31.13.44.25.4.6.71 1 .92-.87.94-1.41 2.21-1.41 3.6v7.69 4c0 1.66 1.34 3 3 3h.5c.83 0 1.5-.67 1.5-1.5s-.67-1.5-1.5-1.5h-.17c-.18 0-.33-.15-.33-.33v-3.29c0-.21.17-.38.38-.38h1.37c.77 0 1.51997.3 2.06997.85l.29.28c.57.56.89 1.32.89 2.11 0 .49-.15.98-.42 1.39l-2.27997 3.43c-.56.83.04 1.94 1.03997 1.94h2.39c.79 0 1.51-.42 1.9-1.1l3.1-5.43c.17-.29.48-.47.81-.47h3.89c.37 0 .74.09 1.07.25.92.46 1.49 1.39 1.49 2.42v3.39c0 .52.42.94.94.94h3.12c.52 0 .94-.42.94-.94v-6.06-7.25c.01-4.83-3.91-8.75-8.74-8.75z" fill="url(#u)"/><path d="m21.2258 6.06c-.83 0-1.59-.42-2.07-1.09-.82-1.16-2.16-1.91-3.68-1.91s-2.86.75-3.68 1.91l-.01.01c-.45.63-1.31.8-1.96997.41l-2.9-1.67c-.25-.15-.56.02-.58.31-.04.67.18 1.32.6 1.82.07.08.01.21-.1.21h-2.23c-.19 0-.35.16-.35.35 0 .16.04.31.13.44.25.4.6.71 1 .92-.87.94-1.41 2.21-1.41 3.6v7.69 4c0 1.66 1.34 3 3 3h.5c.83 0 1.5-.67 1.5-1.5s-.67-1.5-1.5-1.5h-.17c-.18 0-.33-.15-.33-.33v-3.29c0-.21.17-.38.38-.38h1.37c.77 0 1.51997.3 2.06997.85l.29.28c.57.56.89 1.32.89 2.11 0 .49-.15.98-.42 1.39l-2.27997 3.43c-.56.83.04 1.94 1.03997 1.94h2.39c.79 0 1.51-.42 1.9-1.1l3.1-5.43c.17-.29.48-.47.81-.47h3.89c.37 0 .74.09 1.07.25.92.46 1.49 1.39 1.49 2.42v3.39c0 .52.42.94.94.94h3.12c.52 0 .94-.42.94-.94v-6.06-7.25c.01-4.83-3.91-8.75-8.74-8.75z" fill="url(#v)"/><path d="m21.2258 6.06c-.83 0-1.59-.42-2.07-1.09-.82-1.16-2.16-1.91-3.68-1.91s-2.86.75-3.68 1.91l-.01.01c-.45.63-1.31.8-1.96997.41l-2.9-1.67c-.25-.15-.56.02-.58.31-.04.67.18 1.32.6 1.82.07.08.01.21-.1.21h-2.23c-.19 0-.35.16-.35.35 0 .16.04.31.13.44.25.4.6.71 1 .92-.87.94-1.41 2.21-1.41 3.6v7.69 4c0 1.66 1.34 3 3 3h.5c.83 0 1.5-.67 1.5-1.5s-.67-1.5-1.5-1.5h-.17c-.18 0-.33-.15-.33-.33v-3.29c0-.21.17-.38.38-.38h1.37c.77 0 1.51997.3 2.06997.85l.29.28c.57.56.89 1.32.89 2.11 0 .49-.15.98-.42 1.39l-2.27997 3.43c-.56.83.04 1.94 1.03997 1.94h2.39c.79 0 1.51-.42 1.9-1.1l3.1-5.43c.17-.29.48-.47.81-.47h3.89c.37 0 .74.09 1.07.25.92.46 1.49 1.39 1.49 2.42v3.39c0 .52.42.94.94.94h3.12c.52 0 .94-.42.94-.94v-6.06-7.25c.01-4.83-3.91-8.75-8.74-8.75z" fill="url(#x)"/><path d="m21.2258 6.06c-.83 0-1.59-.42-2.07-1.09-.82-1.16-2.16-1.91-3.68-1.91s-2.86.75-3.68 1.91l-.01.01c-.45.63-1.31.8-1.96997.41l-2.9-1.67c-.25-.15-.56.02-.58.31-.04.67.18 1.32.6 1.82.07.08.01.21-.1.21h-2.23c-.19 0-.35.16-.35.35 0 .16.04.31.13.44.25.4.6.71 1 .92-.87.94-1.41 2.21-1.41 3.6v7.69 4c0 1.66 1.34 3 3 3h.5c.83 0 1.5-.67 1.5-1.5s-.67-1.5-1.5-1.5h-.17c-.18 0-.33-.15-.33-.33v-3.29c0-.21.17-.38.38-.38h1.37c.77 0 1.51997.3 2.06997.85l.29.28c.57.56.89 1.32.89 2.11 0 .49-.15.98-.42 1.39l-2.27997 3.43c-.56.83.04 1.94 1.03997 1.94h2.39c.79 0 1.51-.42 1.9-1.1l3.1-5.43c.17-.29.48-.47.81-.47h3.89c.37 0 .74.09 1.07.25.92.46 1.49 1.39 1.49 2.42v3.39c0 .52.42.94.94.94h3.12c.52 0 .94-.42.94-.94v-6.06-7.25c.01-4.83-3.91-8.75-8.74-8.75z" fill="url(#y)"/><path d="m21.2258 6.06c-.83 0-1.59-.42-2.07-1.09-.82-1.16-2.16-1.91-3.68-1.91s-2.86.75-3.68 1.91l-.01.01c-.45.63-1.31.8-1.96997.41l-2.9-1.67c-.25-.15-.56.02-.58.31-.04.67.18 1.32.6 1.82.07.08.01.21-.1.21h-2.23c-.19 0-.35.16-.35.35 0 .16.04.31.13.44.25.4.6.71 1 .92-.87.94-1.41 2.21-1.41 3.6v7.69 4c0 1.66 1.34 3 3 3h.5c.83 0 1.5-.67 1.5-1.5s-.67-1.5-1.5-1.5h-.17c-.18 0-.33-.15-.33-.33v-3.29c0-.21.17-.38.38-.38h1.37c.77 0 1.51997.3 2.06997.85l.29.28c.57.56.89 1.32.89 2.11 0 .49-.15.98-.42 1.39l-2.27997 3.43c-.56.83.04 1.94 1.03997 1.94h2.39c.79 0 1.51-.42 1.9-1.1l3.1-5.43c.17-.29.48-.47.81-.47h3.89c.37 0 .74.09 1.07.25.92.46 1.49 1.39 1.49 2.42v3.39c0 .52.42.94.94.94h3.12c.52 0 .94-.42.94-.94v-6.06-7.25c.01-4.83-3.91-8.75-8.74-8.75z" fill="url(#z)"/><path d="m21.2258 6.06c-.83 0-1.59-.42-2.07-1.09-.82-1.16-2.16-1.91-3.68-1.91s-2.86.75-3.68 1.91l-.01.01c-.45.63-1.31.8-1.96997.41l-2.9-1.67c-.25-.15-.56.02-.58.31-.04.67.18 1.32.6 1.82.07.08.01.21-.1.21h-2.23c-.19 0-.35.16-.35.35 0 .16.04.31.13.44.25.4.6.71 1 .92-.87.94-1.41 2.21-1.41 3.6v7.69 4c0 1.66 1.34 3 3 3h.5c.83 0 1.5-.67 1.5-1.5s-.67-1.5-1.5-1.5h-.17c-.18 0-.33-.15-.33-.33v-3.29c0-.21.17-.38.38-.38h1.37c.77 0 1.51997.3 2.06997.85l.29.28c.57.56.89 1.32.89 2.11 0 .49-.15.98-.42 1.39l-2.27997 3.43c-.56.83.04 1.94 1.03997 1.94h2.39c.79 0 1.51-.42 1.9-1.1l3.1-5.43c.17-.29.48-.47.81-.47h3.89c.37 0 .74.09 1.07.25.92.46 1.49 1.39 1.49 2.42v3.39c0 .52.42.94.94.94h3.12c.52 0 .94-.42.94-.94v-6.06-7.25c.01-4.83-3.91-8.75-8.74-8.75z" fill="url(#A)"/><path d="m21.2258 6.06c-.83 0-1.59-.42-2.07-1.09-.82-1.16-2.16-1.91-3.68-1.91s-2.86.75-3.68 1.91l-.01.01c-.45.63-1.31.8-1.96997.41l-2.9-1.67c-.25-.15-.56.02-.58.31-.04.67.18 1.32.6 1.82.07.08.01.21-.1.21h-2.23c-.19 0-.35.16-.35.35 0 .16.04.31.13.44.25.4.6.71 1 .92-.87.94-1.41 2.21-1.41 3.6v7.69 4c0 1.66 1.34 3 3 3h.5c.83 0 1.5-.67 1.5-1.5s-.67-1.5-1.5-1.5h-.17c-.18 0-.33-.15-.33-.33v-3.29c0-.21.17-.38.38-.38h1.37c.77 0 1.51997.3 2.06997.85l.29.28c.57.56.89 1.32.89 2.11 0 .49-.15.98-.42 1.39l-2.27997 3.43c-.56.83.04 1.94 1.03997 1.94h2.39c.79 0 1.51-.42 1.9-1.1l3.1-5.43c.17-.29.48-.47.81-.47h3.89c.37 0 .74.09 1.07.25.92.46 1.49 1.39 1.49 2.42v3.39c0 .52.42.94.94.94h3.12c.52 0 .94-.42.94-.94v-6.06-7.25c.01-4.83-3.91-8.75-8.74-8.75z" fill="url(#B)"/><path d="m21.2258 6.06c-.83 0-1.59-.42-2.07-1.09-.82-1.16-2.16-1.91-3.68-1.91s-2.86.75-3.68 1.91l-.01.01c-.45.63-1.31.8-1.96997.41l-2.9-1.67c-.25-.15-.56.02-.58.31-.04.67.18 1.32.6 1.82.07.08.01.21-.1.21h-2.23c-.19 0-.35.16-.35.35 0 .16.04.31.13.44.25.4.6.71 1 .92-.87.94-1.41 2.21-1.41 3.6v7.69 4c0 1.66 1.34 3 3 3h.5c.83 0 1.5-.67 1.5-1.5s-.67-1.5-1.5-1.5h-.17c-.18 0-.33-.15-.33-.33v-3.29c0-.21.17-.38.38-.38h1.37c.77 0 1.51997.3 2.06997.85l.29.28c.57.56.89 1.32.89 2.11 0 .49-.15.98-.42 1.39l-2.27997 3.43c-.56.83.04 1.94 1.03997 1.94h2.39c.79 0 1.51-.42 1.9-1.1l3.1-5.43c.17-.29.48-.47.81-.47h3.89c.37 0 .74.09 1.07.25.92.46 1.49 1.39 1.49 2.42v3.39c0 .52.42.94.94.94h3.12c.52 0 .94-.42.94-.94v-6.06-7.25c.01-4.83-3.91-8.75-8.74-8.75z" fill="url(#C)"/><path d="m21.2258 6.06c-.83 0-1.59-.42-2.07-1.09-.82-1.16-2.16-1.91-3.68-1.91s-2.86.75-3.68 1.91l-.01.01c-.45.63-1.31.8-1.96997.41l-2.9-1.67c-.25-.15-.56.02-.58.31-.04.67.18 1.32.6 1.82.07.08.01.21-.1.21h-2.23c-.19 0-.35.16-.35.35 0 .16.04.31.13.44.25.4.6.71 1 .92-.87.94-1.41 2.21-1.41 3.6v7.69 4c0 1.66 1.34 3 3 3h.5c.83 0 1.5-.67 1.5-1.5s-.67-1.5-1.5-1.5h-.17c-.18 0-.33-.15-.33-.33v-3.29c0-.21.17-.38.38-.38h1.37c.77 0 1.51997.3 2.06997.85l.29.28c.57.56.89 1.32.89 2.11 0 .49-.15.98-.42 1.39l-2.27997 3.43c-.56.83.04 1.94 1.03997 1.94h2.39c.79 0 1.51-.42 1.9-1.1l3.1-5.43c.17-.29.48-.47.81-.47h3.89c.37 0 .74.09 1.07.25.92.46 1.49 1.39 1.49 2.42v3.39c0 .52.42.94.94.94h3.12c.52 0 .94-.42.94-.94v-6.06-7.25c.01-4.83-3.91-8.75-8.74-8.75z" fill="url(#D)"/><g filter="url(#a)"><ellipse cx="16.8066" cy="6.26354" fill="url(#F)" rx="1.84369" ry="2.625" transform="matrix(.78781945 -.61590626 .61590626 .78781945 -.29172 11.680291)"/></g><g filter="url(#b)"><ellipse cx="25.4473" cy="11.4935" fill="url(#G)" rx="2.29441" ry="4.18501" transform="matrix(.77157462 -.63613882 .63613882 .77157462 -1.498652 18.813422)"/></g><g filter="url(#c)"><path d="m17.5348 9.83156c-.1752-2.01446-1.9108-3.54698-3.9483-3.43858l-1.3971.07433c-.3687.01962-.6535.33639-.6339.70508l.4264 8.01411c.0428.8053 1.0256 1.1713 1.5885.5965l2.4315-2.2115c1.0387-.9601 1.6078-2.3331 1.5329-3.73994z" fill="#60332f"/></g><path d="m17.9758 9.81c-.07-2.08-1.77-3.75-3.87-3.75h-1.44c-.38 0-.69.31-.69.69v8.26c0 .83.99 1.26 1.6.7l2.62-2.14c1.12-.93 1.78-2.31 1.78-3.76z" fill="url(#H)"/><path d="m17.9758 9.81c-.07-2.08-1.77-3.75-3.87-3.75h-1.44c-.38 0-.69.31-.69.69v8.26c0 .83.99 1.26 1.6.7l2.62-2.14c1.12-.93 1.78-2.31 1.78-3.76z" fill="url(#I)"/><path d="m17.9758 9.81c-.07-2.08-1.77-3.75-3.87-3.75h-1.44c-.38 0-.69.31-.69.69v8.26c0 .83.99 1.26 1.6.7l2.62-2.14c1.12-.93 1.78-2.31 1.78-3.76z" fill="url(#J)"/><path d="m17.9758 9.81c-.07-2.08-1.77-3.75-3.87-3.75h-1.44c-.38 0-.69.31-.69.69v8.26c0 .83.99 1.26 1.6.7l2.62-2.14c1.12-.93 1.78-2.31 1.78-3.76z" fill="url(#K)"/><path d="m17.9758 9.81c-.07-2.08-1.77-3.75-3.87-3.75h-1.44c-.38 0-.69.31-.69.69v8.26c0 .83.99 1.26 1.6.7l2.62-2.14c1.12-.93 1.78-2.31 1.78-3.76z" fill="url(#M)"/><path d="m17.9758 9.81c-.07-2.08-1.77-3.75-3.87-3.75h-1.44c-.38 0-.69.31-.69.69v8.26c0 .83.99 1.26 1.6.7l2.62-2.14c1.12-.93 1.78-2.31 1.78-3.76z" fill="url(#N)"/><path d="m17.9758 9.81c-.07-2.08-1.77-3.75-3.87-3.75h-1.44c-.38 0-.69.31-.69.69v8.26c0 .83.99 1.26 1.6.7l2.62-2.14c1.12-.93 1.78-2.31 1.78-3.76z" fill="url(#O)"/><g filter="url(#d)"><path d="m8.70833 14.0975c-.26583 0-.47469-.2089-.47469-.4747v-.9056c0-.2658.20886-.4747.47469-.4747.26582 0 .47468.2089.47468.4747v.9056c0 .2658-.20886.4747-.47468.4747z" fill="#6b3b3d"/></g><path d="m8.79236 14.0639c-.28 0-.5-.22-.5-.5v-.9539c0-.28.22-.5.5-.5s.5.22.5.5v.9539c0 .28-.22.5-.5.5z" fill="url(#P)"/><path d="m8.79236 14.0639c-.28 0-.5-.22-.5-.5v-.9539c0-.28.22-.5.5-.5s.5.22.5.5v.9539c0 .28-.22.5-.5.5z" fill="url(#Q)"/><path d="m8.79236 14.0639c-.28 0-.5-.22-.5-.5v-.9539c0-.28.22-.5.5-.5s.5.22.5.5v.9539c0 .28-.22.5-.5.5z" fill="url(#R)"/><path d="m10.0458 17.32h-1.96998c-.17 0-.3-.13-.3-.3v-1.05c0-.71.58-1.29 1.29-1.29s1.28998.58 1.28998 1.29v1.05c-.01.17-.14.3-.31.3z" fill="#754940"/><path d="m10.0458 17.32h-1.96998c-.17 0-.3-.13-.3-.3v-1.05c0-.71.58-1.29 1.29-1.29s1.28998.58 1.28998 1.29v1.05c-.01.17-.14.3-.31.3z" fill="url(#S)"/><g filter="url(#e)"><path d="m10.5056 17.0288h.0002v-.0088-1.05c0-.7929-.64714-1.44-1.43998-1.44s-1.44.6471-1.44 1.44v1.05c0 .2528.19715.45.45.45h1.96998c.2543 0 .4454-.1969.4598-.4412z" stroke="url(#T)" stroke-width=".3"/></g><g filter="url(#f)"><path d="m5.96332 21.0756v1.7188c0 .8284.67157 1.5 1.5 1.5h.3125" stroke="#9e746f" stroke-linecap="round" stroke-width=".4"/></g><path d="m8.05583 17.32c0 1.13-.92 2.04-2.04 2.04-1.12.01-2.04-.91-2.04-2.04v-.86c0-.86-.2-1.7-.58-2.46l-.25-.49c-.1-.21-.32-.34-.55-.34-.34 0-.62.27-.62.61v3.54c0 2.23 1.81 4.04 4.04 4.04s4.03997-1.81 4.03997-4.04z" fill="url(#U)"/><path d="m8.05583 17.32c0 1.13-.92 2.04-2.04 2.04-1.12.01-2.04-.91-2.04-2.04v-.86c0-.86-.2-1.7-.58-2.46l-.25-.49c-.1-.21-.32-.34-.55-.34-.34 0-.62.27-.62.61v3.54c0 2.23 1.81 4.04 4.04 4.04s4.03997-1.81 4.03997-4.04z" fill="url(#V)"/><path d="m8.05583 17.32c0 1.13-.92 2.04-2.04 2.04-1.12.01-2.04-.91-2.04-2.04v-.86c0-.86-.2-1.7-.58-2.46l-.25-.49c-.1-.21-.32-.34-.55-.34-.34 0-.62.27-.62.61v3.54c0 2.23 1.81 4.04 4.04 4.04s4.03997-1.81 4.03997-4.04z" fill="url(#W)"/><path d="m8.05583 17.32c0 1.13-.92 2.04-2.04 2.04-1.12.01-2.04-.91-2.04-2.04v-.86c0-.86-.2-1.7-.58-2.46l-.25-.49c-.1-.21-.32-.34-.55-.34-.34 0-.62.27-.62.61v3.54c0 2.23 1.81 4.04 4.04 4.04s4.03997-1.81 4.03997-4.04z" fill="url(#X)"/><path d="m8.05583 17.32c0 1.13-.92 2.04-2.04 2.04-1.12.01-2.04-.91-2.04-2.04v-.86c0-.86-.2-1.7-.58-2.46l-.25-.49c-.1-.21-.32-.34-.55-.34-.34 0-.62.27-.62.61v3.54c0 2.23 1.81 4.04 4.04 4.04s4.03997-1.81 4.03997-4.04z" fill="url(#Y)"/><g filter="url(#g)"><path d="m14.399 6.75336c.8393.08233 2.9206.666 3.1706 3.21288" stroke="url(#Z)" stroke-linecap="round" stroke-width=".2"/></g><g filter="url(#h)"><path d="m2.73364 13.7162c.17969.3282.68282 1.5469.68282 2.7188 0 1.2812.01562 2.0312.32812 2.5.3125.4687.98438 1.125 2.14063 1.125.925 0 1.64583-.5417 1.89062-.8125" stroke="url(#aa)" stroke-linecap="round" stroke-width=".3"/></g><g filter="url(#i)"><path d="m9.0658 15.5189c0-.1866.15124-.3378.33781-.3378.18657 0 .33781.1512.33781.3378v1.42h-.67562z" fill="#8e6a65"/></g><g filter="url(#j)"><path d="m18.3665 22.3725 1.25.8125v5.3437h-1.25z" fill="#765053"/></g></svg>