<svg enable-background="new 0 0 128 128" viewBox="0 0 128 128" xmlns="http://www.w3.org/2000/svg"><g transform="scale(4)"><path d="m11.04 2.00635c2.66-.13 4.92 1.75 5.38 4.26l1.716 8.36595-2.5659 5.005 4.0385 2.1744.0114.0556v-.081l7.65-.73c.37-.03.69.26.68.63v2.19c0 1.72-1.39 3.12-3.12 3.12h-4.9648l-.0052.0001h-2.9072l-.743.6555-.7429-.6555h-1.2969c-.2628 0-.5232-.0098-.7809-.0289l-.8844.4644-.5475-.6713c-4.55464-.9871-7.9572-4.958-7.9572-9.7142 0-2.22.76-4.32 2.06-6.01.46-.58.58-1.36005.33-2.06005-.22-.62-.33-1.31-.3-2.02.13-2.69 2.25-4.83 4.95-4.95z" fill="#f70a8d"/><path d="m8.86998 7.88634c0 .97202-.78798 1.76-1.76 1.76-.97203 0-1.76-.78798-1.76-1.76s.78797-1.76 1.76-1.76c.97202 0 1.76.78798 1.76 1.76z" fill="#ff822d"/><path d="m11.46 28.4964.4908-1.7372c.4689.1019.9501.1722 1.4411.2085l-.4319 1.5287h1.25c.41 0 .75.34.75.75s-.34.75-.75.75h-5.49998c-.42 0-.75-.34-.75-.75s.34-.75.75-.75z" fill="#ff822d"/><g fill="#ffb02e"><path d="m8.83997 7.54639-2.81 1.28c-.24.11-.39.35-.39.61v.24c0 .28-.32.44001-.54.28-.66-.46-1.07-1.26-1-2.14.1-1.19 1.08-2.14 2.27-2.19 1.22-.05 2.25.79 2.47 1.92z"/><path d="m10.3717 14.5278c.376-1.8193 1.9741-3.1515 3.8683-3.1515 1.88 0 3.49 1.31 3.87 3.15l1.8987 9.2701h-.2087v.01c-2.2139-.2961-4.9421-.7473-6.5365-2.1526-1.9028-1.6772-2.4998-4.4995-2.8918-7.126z"/><path d="m15.46 26.9963v1.5001h-2.75c-.41 0-.75.34-.75.75s.33.75.75.75h5.5c.41 0 .75-.34.75-.75s-.34-.75-.75-.75h-1.25v-1.5001z"/></g><path d="m19.8 23.8064c-4.86-.65-8.71-4.46-9.43-9.29-.03.13-.05.27-.06.4-.04.38-.06.76-.06 1.14 0 5.59 4.16 10.21 9.55 10.93.45 0 .78-.41.69-.85l-.48-2.34h-.21z" fill="#00a6ed"/><path d="m11.32 8.64c1.2813 0 2.32-1.0387 2.32-2.32s-1.0387-2.32-2.32-2.32-2.32 1.0387-2.32 2.32 1.0387 2.32 2.32 2.32z" fill="#e6e6e6"/><path d="m11.32 7.36003c.5744 0 1.04-.46562 1.04-1.04s-.4656-1.04-1.04-1.04c-.5743 0-1.04.46562-1.04 1.04s.4657 1.04 1.04 1.04z" fill="#212121"/></g></svg>