<svg fill="none" height="32" viewBox="0 0 32 32" width="32" xmlns="http://www.w3.org/2000/svg" xmlns:xlink="http://www.w3.org/1999/xlink"><filter id="a" color-interpolation-filters="sRGB" filterUnits="userSpaceOnUse" height="6.92767" width="7.17856" x="11.6315" y="10.8795"><feFlood flood-opacity="0" result="BackgroundImageFix"/><feBlend in="SourceGraphic" in2="BackgroundImageFix" mode="normal" result="shape"/><feColorMatrix in="SourceAlpha" result="hardAlpha" type="matrix" values="0 0 0 0 0 0 0 0 0 0 0 0 0 0 0 0 0 0 127 0"/><feOffset dx="-.5" dy="-.75"/><feGaussianBlur stdDeviation=".5"/><feComposite in2="hardAlpha" k2="-1" k3="1" operator="arithmetic"/><feColorMatrix type="matrix" values="0 0 0 0 0.223529 0 0 0 0 0.121569 0 0 0 0 0.164706 0 0 0 1 0"/><feBlend in2="shape" mode="normal" result="effect1_innerShadow_4002_318"/></filter><filter id="b" color-interpolation-filters="sRGB" filterUnits="userSpaceOnUse" height="2.72185" width="2.60698" x="12.332" y="15.1508"><feFlood flood-opacity="0" result="BackgroundImageFix"/><feBlend in="SourceGraphic" in2="BackgroundImageFix" mode="normal" result="shape"/><feGaussianBlur result="effect1_foregroundBlur_4002_318" stdDeviation=".05"/></filter><filter id="c" color-interpolation-filters="sRGB" filterUnits="userSpaceOnUse" height="11.7954" width="8.67351" x="4.18274" y="17.4828"><feFlood flood-opacity="0" result="BackgroundImageFix"/><feBlend in="SourceGraphic" in2="BackgroundImageFix" mode="normal" result="shape"/><feColorMatrix in="SourceAlpha" result="hardAlpha" type="matrix" values="0 0 0 0 0 0 0 0 0 0 0 0 0 0 0 0 0 0 127 0"/><feOffset dy="-.2"/><feGaussianBlur stdDeviation=".2"/><feComposite in2="hardAlpha" k2="-1" k3="1" operator="arithmetic"/><feColorMatrix type="matrix" values="0 0 0 0 0.741176 0 0 0 0 0.647059 0 0 0 0 0.811765 0 0 0 1 0"/><feBlend in2="shape" mode="normal" result="effect1_innerShadow_4002_318"/></filter><filter id="d" color-interpolation-filters="sRGB" filterUnits="userSpaceOnUse" height="1.67969" width="1.67969" x="3.61707" y="28.2266"><feFlood flood-opacity="0" result="BackgroundImageFix"/><feBlend in="SourceGraphic" in2="BackgroundImageFix" mode="normal" result="shape"/><feColorMatrix in="SourceAlpha" result="hardAlpha" type="matrix" values="0 0 0 0 0 0 0 0 0 0 0 0 0 0 0 0 0 0 127 0"/><feOffset/><feGaussianBlur stdDeviation=".1"/><feComposite in2="hardAlpha" k2="-1" k3="1" operator="arithmetic"/><feColorMatrix type="matrix" values="0 0 0 0 0.835294 0 0 0 0 0.819608 0 0 0 0 0.835294 0 0 0 1 0"/><feBlend in2="shape" mode="normal" result="effect1_innerShadow_4002_318"/></filter><filter id="e" color-interpolation-filters="sRGB" filterUnits="userSpaceOnUse" height="3.07935" width="2.72647" x="11.538" y="15.9185"><feFlood flood-opacity="0" result="BackgroundImageFix"/><feBlend in="SourceGraphic" in2="BackgroundImageFix" mode="normal" result="shape"/><feColorMatrix in="SourceAlpha" result="hardAlpha" type="matrix" values="0 0 0 0 0 0 0 0 0 0 0 0 0 0 0 0 0 0 127 0"/><feOffset/><feGaussianBlur stdDeviation=".25"/><feComposite in2="hardAlpha" k2="-1" k3="1" operator="arithmetic"/><feColorMatrix type="matrix" values="0 0 0 0 0.211765 0 0 0 0 0.133333 0 0 0 0 0.27451 0 0 0 1 0"/><feBlend in2="shape" mode="normal" result="effect1_innerShadow_4002_318"/></filter><filter id="f" color-interpolation-filters="sRGB" filterUnits="userSpaceOnUse" height="1.66119" width="1.09328" x="12.0331" y="15.5433"><feFlood flood-opacity="0" result="BackgroundImageFix"/><feBlend in="SourceGraphic" in2="BackgroundImageFix" mode="normal" result="shape"/><feColorMatrix in="SourceAlpha" result="hardAlpha" type="matrix" values="0 0 0 0 0 0 0 0 0 0 0 0 0 0 0 0 0 0 127 0"/><feOffset dx="-.15"/><feGaussianBlur stdDeviation=".25"/><feComposite in2="hardAlpha" k2="-1" k3="1" operator="arithmetic"/><feColorMatrix type="matrix" values="0 0 0 0 0.286275 0 0 0 0 0.168627 0 0 0 0 0.160784 0 0 0 1 0"/><feBlend in2="shape" mode="normal" result="effect1_innerShadow_4002_318"/></filter><filter id="g" color-interpolation-filters="sRGB" filterUnits="userSpaceOnUse" height="5.24926" width="4.4428" x="15.6331" y="3.30458"><feFlood flood-opacity="0" result="BackgroundImageFix"/><feBlend in="SourceGraphic" in2="BackgroundImageFix" mode="normal" result="shape"/><feColorMatrix in="SourceAlpha" result="hardAlpha" type="matrix" values="0 0 0 0 0 0 0 0 0 0 0 0 0 0 0 0 0 0 127 0"/><feOffset dx="-.2" dy="-.2"/><feGaussianBlur stdDeviation=".5"/><feComposite in2="hardAlpha" k2="-1" k3="1" operator="arithmetic"/><feColorMatrix type="matrix" values="0 0 0 0 0.321569 0 0 0 0 0.239216 0 0 0 0 0.294118 0 0 0 1 0"/><feBlend in2="shape" mode="normal" result="effect1_innerShadow_4002_318"/></filter><filter id="h" color-interpolation-filters="sRGB" filterUnits="userSpaceOnUse" height="5.47878" width="6.39082" x="15.1999" y="1.6599"><feFlood flood-opacity="0" result="BackgroundImageFix"/><feBlend in="SourceGraphic" in2="BackgroundImageFix" mode="normal" result="shape"/><feColorMatrix in="SourceAlpha" result="hardAlpha" type="matrix" values="0 0 0 0 0 0 0 0 0 0 0 0 0 0 0 0 0 0 127 0"/><feOffset dx="-.3" dy=".3"/><feGaussianBlur stdDeviation=".3"/><feComposite in2="hardAlpha" k2="-1" k3="1" operator="arithmetic"/><feColorMatrix type="matrix" values="0 0 0 0 0.282353 0 0 0 0 0.262745 0 0 0 0 0.270588 0 0 0 1 0"/><feBlend in2="shape" mode="normal" result="effect1_innerShadow_4002_318"/><feColorMatrix in="SourceAlpha" result="hardAlpha" type="matrix" values="0 0 0 0 0 0 0 0 0 0 0 0 0 0 0 0 0 0 127 0"/><feOffset dx=".2" dy="-.3"/><feGaussianBlur stdDeviation=".375"/><feComposite in2="hardAlpha" k2="-1" k3="1" operator="arithmetic"/><feColorMatrix type="matrix" values="0 0 0 0 0.0980392 0 0 0 0 0.054902 0 0 0 0 0.0705882 0 0 0 1 0"/><feBlend in2="effect1_innerShadow_4002_318" mode="normal" result="effect2_innerShadow_4002_318"/></filter><filter id="i" color-interpolation-filters="sRGB" filterUnits="userSpaceOnUse" height="14.7709" width="8.67448" x="20.3556" y="15.4171"><feFlood flood-opacity="0" result="BackgroundImageFix"/><feBlend in="SourceGraphic" in2="BackgroundImageFix" mode="normal" result="shape"/><feColorMatrix in="SourceAlpha" result="hardAlpha" type="matrix" values="0 0 0 0 0 0 0 0 0 0 0 0 0 0 0 0 0 0 127 0"/><feOffset dx=".75" dy="-.75"/><feGaussianBlur stdDeviation=".5"/><feComposite in2="hardAlpha" k2="-1" k3="1" operator="arithmetic"/><feColorMatrix type="matrix" values="0 0 0 0 0.439216 0 0 0 0 0.388235 0 0 0 0 0.486275 0 0 0 1 0"/><feBlend in2="shape" mode="normal" result="effect1_innerShadow_4002_318"/><feColorMatrix in="SourceAlpha" result="hardAlpha" type="matrix" values="0 0 0 0 0 0 0 0 0 0 0 0 0 0 0 0 0 0 127 0"/><feOffset dy="-.5"/><feGaussianBlur stdDeviation=".375"/><feComposite in2="hardAlpha" k2="-1" k3="1" operator="arithmetic"/><feColorMatrix type="matrix" values="0 0 0 0 0.537255 0 0 0 0 0.423529 0 0 0 0 0.635294 0 0 0 1 0"/><feBlend in2="effect1_innerShadow_4002_318" mode="normal" result="effect2_innerShadow_4002_318"/><feColorMatrix in="SourceAlpha" result="hardAlpha" type="matrix" values="0 0 0 0 0 0 0 0 0 0 0 0 0 0 0 0 0 0 127 0"/><feOffset dx=".25" dy=".25"/><feGaussianBlur stdDeviation=".375"/><feComposite in2="hardAlpha" k2="-1" k3="1" operator="arithmetic"/><feColorMatrix type="matrix" values="0 0 0 0 0.529412 0 0 0 0 0.490196 0 0 0 0 0.537255 0 0 0 1 0"/><feBlend in2="effect2_innerShadow_4002_318" mode="normal" result="effect3_innerShadow_4002_318"/></filter><filter id="j" color-interpolation-filters="sRGB" filterUnits="userSpaceOnUse" height="14.1042" width="10.9719" x="12.0499" y="15.9359"><feFlood flood-opacity="0" result="BackgroundImageFix"/><feBlend in="SourceGraphic" in2="BackgroundImageFix" mode="normal" result="shape"/><feColorMatrix in="SourceAlpha" result="hardAlpha" type="matrix" values="0 0 0 0 0 0 0 0 0 0 0 0 0 0 0 0 0 0 127 0"/><feOffset dx=".5" dy="-.2"/><feGaussianBlur stdDeviation=".25"/><feComposite in2="hardAlpha" k2="-1" k3="1" operator="arithmetic"/><feColorMatrix type="matrix" values="0 0 0 0 0.619608 0 0 0 0 0.592157 0 0 0 0 0.611765 0 0 0 1 0"/><feBlend in2="shape" mode="normal" result="effect1_innerShadow_4002_318"/></filter><filter id="k" color-interpolation-filters="sRGB" filterUnits="userSpaceOnUse" height="5.875" width="5.58594" x="18.4283" y="8.255"><feFlood flood-opacity="0" result="BackgroundImageFix"/><feBlend in="SourceGraphic" in2="BackgroundImageFix" mode="normal" result="shape"/><feGaussianBlur result="effect1_foregroundBlur_4002_318" stdDeviation=".375"/></filter><filter id="l" color-interpolation-filters="sRGB" filterUnits="userSpaceOnUse" height="10.5113" width="7.58994" x="19.9085" y="9.09888"><feFlood flood-opacity="0" result="BackgroundImageFix"/><feBlend in="SourceGraphic" in2="BackgroundImageFix" mode="normal" result="shape"/><feColorMatrix in="SourceAlpha" result="hardAlpha" type="matrix" values="0 0 0 0 0 0 0 0 0 0 0 0 0 0 0 0 0 0 127 0"/><feOffset dx=".25" dy="-.25"/><feGaussianBlur stdDeviation=".4"/><feComposite in2="hardAlpha" k2="-1" k3="1" operator="arithmetic"/><feColorMatrix type="matrix" values="0 0 0 0 0.266667 0 0 0 0 0.156863 0 0 0 0 0.231373 0 0 0 1 0"/><feBlend in2="shape" mode="normal" result="effect1_innerShadow_4002_318"/><feColorMatrix in="SourceAlpha" result="hardAlpha" type="matrix" values="0 0 0 0 0 0 0 0 0 0 0 0 0 0 0 0 0 0 127 0"/><feOffset dx="-.4" dy=".4"/><feGaussianBlur stdDeviation=".4"/><feComposite in2="hardAlpha" k2="-1" k3="1" operator="arithmetic"/><feColorMatrix type="matrix" values="0 0 0 0 0.376471 0 0 0 0 0.305882 0 0 0 0 0.301961 0 0 0 1 0"/><feBlend in2="effect1_innerShadow_4002_318" mode="normal" result="effect2_innerShadow_4002_318"/></filter><filter id="m" color-interpolation-filters="sRGB" filterUnits="userSpaceOnUse" height="9.06884" width="6.08442" x="21.1547" y="9.8436"><feFlood flood-opacity="0" result="BackgroundImageFix"/><feBlend in="SourceGraphic" in2="BackgroundImageFix" mode="normal" result="shape"/><feGaussianBlur result="effect1_foregroundBlur_4002_318" stdDeviation=".3"/></filter><filter id="n" color-interpolation-filters="sRGB" filterUnits="userSpaceOnUse" height="4.525" width="4.75781" x="19.047" y="8.59524"><feFlood flood-opacity="0" result="BackgroundImageFix"/><feBlend in="SourceGraphic" in2="BackgroundImageFix" mode="normal" result="shape"/><feColorMatrix in="SourceAlpha" result="hardAlpha" type="matrix" values="0 0 0 0 0 0 0 0 0 0 0 0 0 0 0 0 0 0 127 0"/><feOffset dx=".25" dy="-.15"/><feGaussianBlur stdDeviation=".25"/><feComposite in2="hardAlpha" k2="-1" k3="1" operator="arithmetic"/><feColorMatrix type="matrix" values="0 0 0 0 0.160784 0 0 0 0 0.47451 0 0 0 0 0.866667 0 0 0 1 0"/><feBlend in2="shape" mode="normal" result="effect1_innerShadow_4002_318"/></filter><filter id="o" color-interpolation-filters="sRGB" filterUnits="userSpaceOnUse" height="12.8906" width="6.84375" x="15.0236" y="16.0577"><feFlood flood-opacity="0" result="BackgroundImageFix"/><feBlend in="SourceGraphic" in2="BackgroundImageFix" mode="normal" result="shape"/><feGaussianBlur result="effect1_foregroundBlur_4002_318" stdDeviation=".5"/></filter><filter id="p" color-interpolation-filters="sRGB" filterUnits="userSpaceOnUse" height="8.47473" width="6.44972" x="20.972" y="17.9857"><feFlood flood-opacity="0" result="BackgroundImageFix"/><feBlend in="SourceGraphic" in2="BackgroundImageFix" mode="normal" result="shape"/><feGaussianBlur result="effect1_foregroundBlur_4002_318" stdDeviation=".375"/></filter><filter id="q" color-interpolation-filters="sRGB" filterUnits="userSpaceOnUse" height=".648462" width="1.1172" x="16.3364" y="4.23071"><feFlood flood-opacity="0" result="BackgroundImageFix"/><feBlend in="SourceGraphic" in2="BackgroundImageFix" mode="normal" result="shape"/><feColorMatrix in="SourceAlpha" result="hardAlpha" type="matrix" values="0 0 0 0 0 0 0 0 0 0 0 0 0 0 0 0 0 0 127 0"/><feOffset dx="-.1" dy=".1"/><feGaussianBlur stdDeviation=".1"/><feComposite in2="hardAlpha" k2="-1" k3="1" operator="arithmetic"/><feColorMatrix type="matrix" values="0 0 0 0 0.0666667 0 0 0 0 0.0627451 0 0 0 0 0.0627451 0 0 0 1 0"/><feBlend in2="shape" mode="normal" result="effect1_innerShadow_4002_318"/></filter><radialGradient id="r" cx="0" cy="0" gradientTransform="matrix(-2.34374615 2.75000033 -.60904205 -.51906901 16.5431 12.5)" gradientUnits="userSpaceOnUse" r="1"><stop offset="0" stop-color="#5c4844"/><stop offset="1" stop-color="#5c4844" stop-opacity="0"/></radialGradient><radialGradient id="s" cx="0" cy="0" gradientTransform="matrix(1.50000315 .09375034 -.10135115 1.62161586 12.9181 16.2813)" gradientUnits="userSpaceOnUse" r="1"><stop offset="0" stop-color="#453837"/><stop offset="1" stop-color="#453837" stop-opacity="0"/></radialGradient><linearGradient id="t" gradientUnits="userSpaceOnUse" x1="14.3322" x2="12.4494" y1="15.5234" y2="17.5625"><stop offset="0" stop-color="#443d44"/><stop offset="1" stop-color="#443d44" stop-opacity="0"/></linearGradient><linearGradient id="u" gradientUnits="userSpaceOnUse" x1="8.8869" x2="10.1369" y1="21.8125" y2="22.75"><stop offset="0" stop-color="#d4c6dc"/><stop offset="1" stop-color="#cdb4e3"/></linearGradient><linearGradient id="v" gradientUnits="userSpaceOnUse" x1="5.22284" x2="6.95721" y1="28.6562" y2="26.3125"><stop offset="0" stop-color="#e82b8e"/><stop offset="1" stop-color="#f3386a"/></linearGradient><linearGradient id="w" gradientUnits="userSpaceOnUse" x1="5.27753" x2="5.63591" y1="27.0937" y2="27.3437"><stop offset="0" stop-color="#f35886"/><stop offset="1" stop-color="#f35886" stop-opacity="0"/></linearGradient><radialGradient id="x" cx="0" cy="0" gradientTransform="matrix(0 1.57031 -1.46069 0 4.45691 28.4609)" gradientUnits="userSpaceOnUse" r="1"><stop offset=".237838" stop-color="#d8cbdd"/><stop offset="1" stop-color="#ccaae9"/></radialGradient><radialGradient id="y" cx="0" cy="0" gradientTransform="matrix(.47241224 -.12500019 .12500019 .47241224 4.82434 28.8125)" gradientUnits="userSpaceOnUse" r="1"><stop offset="0" stop-color="#e9d9f5"/><stop offset="1" stop-color="#e9d9f5" stop-opacity="0"/></radialGradient><radialGradient id="z" cx="0" cy="0" gradientTransform="matrix(.50415 0 0 .668771 3.61707 28.9531)" gradientUnits="userSpaceOnUse" r="1"><stop offset="0" stop-color="#e4d4ea"/><stop offset="1" stop-color="#e4d4ea" stop-opacity="0"/></radialGradient><linearGradient id="A" gradientUnits="userSpaceOnUse" x1="13.7463" x2="11.9963" y1="16.3594" y2="18.6563"><stop offset="0" stop-color="#4d3b5c"/><stop offset="1" stop-color="#3f3647"/></linearGradient><linearGradient id="B" gradientUnits="userSpaceOnUse" x1="13.8557" x2="13.3322" y1="16.4219" y2="17.1875"><stop offset=".0976148" stop-color="#62516b"/><stop offset="1" stop-color="#483a55" stop-opacity="0"/></linearGradient><radialGradient id="C" cx="0" cy="0" gradientTransform="matrix(-.05151911 -2.21336049 1.59857701 -.03720915 19.8922 8.70828)" gradientUnits="userSpaceOnUse" r="1"><stop offset=".116409" stop-color="#564341"/><stop offset="1" stop-color="#3d2323"/></radialGradient><radialGradient id="D" cx="0" cy="0" gradientTransform="matrix(-.53616553 .66447723 -.89991368 -.7261388 20.2464 7.13682)" gradientUnits="userSpaceOnUse" r="1"><stop offset="0" stop-color="#271213"/><stop offset="1" stop-color="#57423f" stop-opacity="0"/></radialGradient><radialGradient id="E" cx="0" cy="0" gradientTransform="matrix(.01104765 -.86883977 .23985061 .0030498 18.3984 9.11204)" gradientUnits="userSpaceOnUse" r="1"><stop offset="0" stop-color="#614e4a"/><stop offset="1" stop-color="#614e4a" stop-opacity="0"/></radialGradient><radialGradient id="F" cx="0" cy="0" gradientTransform="matrix(.47656197 .25781263 -.36391269 .67268602 15.3458 6.20612)" gradientUnits="userSpaceOnUse" r="1"><stop offset=".100808" stop-color="#68534f"/><stop offset=".684407" stop-color="#41212e"/></radialGradient><linearGradient id="G" gradientUnits="userSpaceOnUse" x1="18.6954" x2="15.8331" y1="6.24527" y2="6.41714"><stop offset="0" stop-color="#432b2f"/><stop offset="1" stop-color="#48302f"/></linearGradient><radialGradient id="H" cx="0" cy="0" gradientTransform="matrix(-.84374978 -.0468775 .05715326 -1.02870355 19.0079 5.50308)" gradientUnits="userSpaceOnUse" r="1"><stop offset=".155748" stop-color="#34191a"/><stop offset="1" stop-color="#34191a" stop-opacity="0"/></radialGradient><radialGradient id="I" cx="0" cy="0" gradientTransform="matrix(0 -5.1875 1.40625 0 16.1115 6.69053)" gradientUnits="userSpaceOnUse" r="1"><stop offset=".163152" stop-color="#614c49"/><stop offset="1" stop-color="#614c49" stop-opacity="0"/></radialGradient><radialGradient id="J" cx="0" cy="0" gradientTransform="matrix(0 .390625 -.609189 0 16.9396 5.5499)" gradientUnits="userSpaceOnUse" r="1"><stop offset=".154762" stop-color="#472f2c"/><stop offset="1" stop-color="#472f2c" stop-opacity="0"/></radialGradient><radialGradient id="K" cx="0" cy="0" gradientTransform="matrix(-3.43748564 3.12502102 -3.54357399 -3.89788888 20.8827 2.84089)" gradientUnits="userSpaceOnUse" r="1"><stop offset=".363348" stop-color="#251a23"/><stop offset="1" stop-color="#1d0d23"/></radialGradient><radialGradient id="L" cx="0" cy="0" gradientTransform="matrix(.39451924 2.68272635 -1.18513348 .17428463 20.776 3.59037)" gradientUnits="userSpaceOnUse" r="1"><stop offset=".105842" stop-color="#464143"/><stop offset="1" stop-color="#464143" stop-opacity="0"/></radialGradient><radialGradient id="M" cx="0" cy="0" gradientTransform="matrix(1.50000315 -.09375034 .18397382 2.94357641 15.5858 3.45613)" gradientUnits="userSpaceOnUse" r="1"><stop offset=".217899" stop-color="#544b49"/><stop offset="1" stop-color="#544b49" stop-opacity="0"/></radialGradient><radialGradient id="N" cx="0" cy="0" gradientTransform="matrix(.72656245 -.2109374 .10295564 .35462514 18.7833 5.38584)" gradientUnits="userSpaceOnUse" r="1"><stop offset=".169715" stop-color="#635251"/><stop offset="1" stop-color="#482c2e"/></radialGradient><linearGradient id="O" gradientUnits="userSpaceOnUse" x1="18.7482" x2="18.8615" y1="5.45224" y2="5.46787"><stop offset="0" stop-color="#48302c"/><stop offset="1" stop-color="#48302c" stop-opacity="0"/></linearGradient><linearGradient id="P" gradientUnits="userSpaceOnUse" x1="22.1408" x2="24.3692" y1="22.8391" y2="20.8956"><stop offset=".210898" stop-color="#8b8290"/><stop offset="1" stop-color="#9f9c9f"/></linearGradient><radialGradient id="Q" cx="0" cy="0" gradientTransform="matrix(2.45369246 2.93957374 -5.966604 4.98038578 21.1205 17.9803)" gradientUnits="userSpaceOnUse" r="1"><stop offset=".434038" stop-color="#887e8b"/><stop offset="1" stop-color="#887e8b" stop-opacity="0"/></radialGradient><radialGradient id="R" cx="0" cy="0" gradientTransform="matrix(.89062467 .65625091 -3.94140873 5.34904529 20.8047 18.9952)" gradientUnits="userSpaceOnUse" r="1"><stop offset=".0427458" stop-color="#695c75"/><stop offset="1" stop-color="#695c75" stop-opacity="0"/></radialGradient><radialGradient id="S" cx="0" cy="0" gradientTransform="matrix(3.2499963 -5.14062822 1.3540234 .8560376 20.0236 20.839)" gradientUnits="userSpaceOnUse" r="1"><stop offset=".0699383" stop-color="#897998"/><stop offset="1" stop-color="#897998" stop-opacity="0"/></radialGradient><radialGradient id="T" cx="0" cy="0" gradientTransform="matrix(0 1.42188 -1.38588 0 20.8361 16.1359)" gradientUnits="userSpaceOnUse" r="1"><stop offset="0" stop-color="#99919a"/><stop offset="1" stop-color="#8c8393" stop-opacity="0"/></radialGradient><linearGradient id="U" gradientUnits="userSpaceOnUse" x1="19.9142" x2="19.9142" y1="16.0265" y2="16.3702"><stop offset=".136364" stop-color="#817076"/><stop offset="1" stop-color="#817076" stop-opacity="0"/></linearGradient><radialGradient id="V" cx="0" cy="0" gradientTransform="matrix(.14062477 -.17968748 .64580724 .50541359 16.1407 28.0499)" gradientUnits="userSpaceOnUse" r="1"><stop offset="0" stop-color="#a19da6"/><stop offset="1" stop-color="#a19da6" stop-opacity="0"/></radialGradient><radialGradient id="W" cx="0" cy="0" gradientTransform="matrix(6.37499666 -1.81250162 4.67454852 16.44149214 16.4611 19.1827)" gradientUnits="userSpaceOnUse" r="1"><stop offset=".801823" stop-color="#8c8388" stop-opacity="0"/><stop offset="1" stop-color="#8c8388"/></radialGradient><radialGradient id="X" cx="0" cy="0" gradientTransform="matrix(-.09374932 -1.53125283 2.45635065 -.15038745 15.0079 29.4015)" gradientUnits="userSpaceOnUse" r="1"><stop offset="0" stop-color="#4a4b75"/><stop offset="1" stop-color="#47456f"/></radialGradient><radialGradient id="Y" cx="0" cy="0" gradientTransform="matrix(1.06249554 -.21874842 .1513667 .73521189 11.8986 28.464)" gradientUnits="userSpaceOnUse" r="1"><stop offset="0" stop-color="#63617e"/><stop offset="1" stop-color="#63617e" stop-opacity="0"/></radialGradient><radialGradient id="Z" cx="0" cy="0" gradientTransform="matrix(.59375082 -1.71875282 .84777893 .29286901 15.9142 29.6984)" gradientUnits="userSpaceOnUse" r="1"><stop offset=".0797402" stop-color="#515279"/><stop offset="1" stop-color="#515279" stop-opacity="0"/></radialGradient><linearGradient id="aa" gradientUnits="userSpaceOnUse" x1="14.4454" x2="14.5314" y1="29.5734" y2="29.2609"><stop offset="0" stop-color="#282955"/><stop offset="1" stop-color="#282955" stop-opacity="0"/></linearGradient><linearGradient id="ab" gradientUnits="userSpaceOnUse" x1="16.4142" x2="15.8361" y1="29.9484" y2="29.7296"><stop offset=".0638969" stop-color="#444571"/><stop offset="1" stop-color="#444571" stop-opacity="0"/></linearGradient><linearGradient id="ac" gradientUnits="userSpaceOnUse" x1="25.0236" x2="25.6173" y1="27.9328" y2="28.1046"><stop offset="0" stop-color="#5a577e"/><stop offset="1" stop-color="#5a577e" stop-opacity="0"/></linearGradient><linearGradient id="ad" gradientUnits="userSpaceOnUse" x1="27.1486" x2="26.9689" y1="28.007" y2="27.8585"><stop offset="0" stop-color="#492d85"/><stop offset=".0001" stop-color="#443a80"/><stop offset="1" stop-color="#46437b" stop-opacity="0"/></linearGradient><radialGradient id="ae" cx="0" cy="0" gradientTransform="matrix(-1.3593667 -1.46413341 .8099859 -.752027 28.0392 27.0734)" gradientUnits="userSpaceOnUse" r="1"><stop offset="0" stop-color="#60618d"/><stop offset="1" stop-color="#46437b" stop-opacity="0"/></radialGradient><linearGradient id="af" gradientUnits="userSpaceOnUse" x1="17.5077" x2="16.9218" y1="12.8331" y2="12.1221"><stop offset="0" stop-color="#3981ca"/><stop offset="1" stop-color="#4e98d7"/></linearGradient><radialGradient id="ag" cx="0" cy="0" gradientTransform="matrix(-1.56250132 -.54687405 .76305817 -2.18017184 20.0389 9.66901)" gradientUnits="userSpaceOnUse" r="1"><stop offset=".265556" stop-color="#3d98c9"/><stop offset="1" stop-color="#3d98c9" stop-opacity="0"/></radialGradient><radialGradient id="ah" cx="0" cy="0" gradientTransform="matrix(-.0937457 -4.9512226 1.33997984 -.02537098 20.7314 16.1359)" gradientUnits="userSpaceOnUse" r="1"><stop offset="0" stop-color="#407bbe"/><stop offset="1" stop-color="#407bbe" stop-opacity="0"/></radialGradient><radialGradient id="ai" cx="0" cy="0" gradientTransform="matrix(3.65186 0 0 15.6875 18.8564 14.2471)" gradientUnits="userSpaceOnUse" r="1"><stop offset=".436422" stop-color="#4475a6" stop-opacity="0"/><stop offset="1" stop-color="#4475a6"/></radialGradient><radialGradient id="aj" cx="0" cy="0" gradientTransform="matrix(-4.78125341 .78124664 -1.79107517 -10.96143494 22.2314 15.0596)" gradientUnits="userSpaceOnUse" r="1"><stop offset=".781102" stop-color="#588fc4" stop-opacity="0"/><stop offset=".930515" stop-color="#588fc4"/></radialGradient><linearGradient id="ak" gradientUnits="userSpaceOnUse" x1="20.2264" x2="20.2264" y1="16.169" y2="15.9893"><stop offset="0" stop-color="#445b8b"/><stop offset="1" stop-color="#417ab5" stop-opacity="0"/></linearGradient><radialGradient id="al" cx="0" cy="0" gradientTransform="matrix(0 .90625 -.90625 0 24.9611 17.8312)" gradientUnits="userSpaceOnUse" r="1"><stop offset=".256412" stop-color="#4b3838"/><stop offset="1" stop-color="#3d1f32"/></radialGradient><linearGradient id="am" gradientUnits="userSpaceOnUse" x1="20.8986" x2="22.0079" y1="9.07336" y2="12.5265"><stop offset=".118333" stop-color="#2e83d0"/><stop offset="1" stop-color="#3384e0"/></linearGradient><radialGradient id="an" cx="0" cy="0" gradientTransform="matrix(1.09069672 .20312548 -.42058115 2.25834043 19.047 10.294)" gradientUnits="userSpaceOnUse" r="1"><stop offset=".119508" stop-color="#5696dc"/><stop offset="1" stop-color="#5696dc" stop-opacity="0"/></radialGradient><radialGradient id="ao" cx="0" cy="0" gradientTransform="matrix(-2.15622815 -2.31251435 .88732895 -.82736077 23.1327 11.6378)" gradientUnits="userSpaceOnUse" r="1"><stop offset="0" stop-color="#4d95e1"/><stop offset="1" stop-color="#4d95e1" stop-opacity="0"/></radialGradient><radialGradient id="ap" cx="0" cy="0" gradientTransform="matrix(.46875097 1.14252966 -2.54725043 1.0450723 19.7108 8.74524)" gradientUnits="userSpaceOnUse" r="1"><stop offset=".125686" stop-color="#5b789d"/><stop offset="1" stop-color="#4080be" stop-opacity="0"/></radialGradient><radialGradient id="aq" cx="0" cy="0" gradientTransform="matrix(.273437 0 0 .53125 16.6447 5.57727)" gradientUnits="userSpaceOnUse" r="1"><stop offset=".894737" stop-color="#916a62"/><stop offset="1" stop-color="#824d44"/></radialGradient><radialGradient id="ar" cx="0" cy="0" gradientTransform="matrix(.25 0 0 .541016 16.4767 5.59875)" gradientUnits="userSpaceOnUse" r="1"><stop offset="0" stop-color="#666361"/><stop offset=".8125" stop-color="#565352"/></radialGradient><linearGradient id="as" gradientUnits="userSpaceOnUse" x1="16.4699" x2="16.6562" y1="5.20894" y2="5.2697"><stop offset="0" stop-color="#fff"/><stop offset="1" stop-color="#fff" stop-opacity="0"/></linearGradient><linearGradient id="at" gradientUnits="userSpaceOnUse" x1="16.2423" x2="20.8673" y1="27.3702" y2="17.2296"><stop offset="0" stop-color="#94899e"/><stop offset="1" stop-color="#94899e" stop-opacity="0"/></linearGradient><linearGradient id="au" gradientUnits="userSpaceOnUse" x1="26.3866" x2="22.0758" y1="25.2793" y2="19.9073"><stop offset="0" stop-color="#a39fa7"/><stop offset="1" stop-color="#a39fa7" stop-opacity="0"/></linearGradient><g clip-rule="evenodd" fill-rule="evenodd" filter="url(#a)"><path d="m18.2187 11.7353c.5216.2534.7389.8817.4855 1.4033-1.8321 3.7705-4.2357 4.9121-5.7206 4.6269-.5695-.1093-.9425-.6597-.8331-1.2292.1094-.5694.6597-.9424 1.2292-.8331-.0002 0-.0003 0-.0003 0 0-.0001.0265.0042.0821.0004.0576-.0039.138-.0158.2396-.0441.2029-.0565.4785-.1749.804-.4039.6498-.4573 1.4937-1.3542 2.3103-3.0348.2534-.5216.8817-.739 1.4033-.4855z" fill="#45302d"/><path d="m18.2187 11.7353c.5216.2534.7389.8817.4855 1.4033-1.8321 3.7705-4.2357 4.9121-5.7206 4.6269-.5695-.1093-.9425-.6597-.8331-1.2292.1094-.5694.6597-.9424 1.2292-.8331-.0002 0-.0003 0-.0003 0 0-.0001.0265.0042.0821.0004.0576-.0039.138-.0158.2396-.0441.2029-.0565.4785-.1749.804-.4039.6498-.4573 1.4937-1.3542 2.3103-3.0348.2534-.5216.8817-.739 1.4033-.4855z" fill="url(#r)"/><path d="m18.2187 11.7353c.5216.2534.7389.8817.4855 1.4033-1.8321 3.7705-4.2357 4.9121-5.7206 4.6269-.5695-.1093-.9425-.6597-.8331-1.2292.1094-.5694.6597-.9424 1.2292-.8331-.0002 0-.0003 0-.0003 0 0-.0001.0265.0042.0821.0004.0576-.0039.138-.0158.2396-.0441.2029-.0565.4785-.1749.804-.4039.6498-.4573 1.4937-1.3542 2.3103-3.0348.2534-.5216.8817-.739 1.4033-.4855z" fill="url(#s)"/></g><path d="m12.4916 15.9762c.1976-.4002.6098-.6754 1.0864-.6754.6688 0 1.2109.5421 1.2109 1.2109s-.5421 1.211-1.2109 1.211c-.4059 0-.7652-.1997-.9849-.5062" stroke="#33241a" stroke-width=".35"/><g filter="url(#b)"><path d="m12.4774 16.006c.1916-.4162.6124-.7052 1.1006-.7052.6688 0 1.211.5421 1.211 1.2109s-.5422 1.211-1.211 1.211c-.405 0-.7637-.1989-.9835-.5044" stroke="url(#t)" stroke-width=".1"/></g><g filter="url(#c)"><path clip-rule="evenodd" d="m12.6708 17.7688c.201.1461.2455.4276.0994.6286l-7.77342 10.6953c-.14611.201-.42754.2456-.62858.0995-.20103-.1462-.24556-.4276-.09944-.6286l7.77344-10.6953c.1461-.2011.4275-.2456.6286-.0995z" fill="url(#u)" fill-rule="evenodd"/></g><path d="m7.08909 26.2139-2.09231 2.8788c-.14611.201-.42754.2455-.62858.0994-.20103-.1461-.24556-.4275-.09944-.6286l2.09201-2.8783z" fill="url(#v)"/><path d="m7.08909 26.2139-2.09231 2.8788c-.14611.201-.42754.2455-.62858.0994-.20103-.1461-.24556-.4275-.09944-.6286l2.09201-2.8783z" fill="url(#w)"/><g filter="url(#d)"><circle cx="4.45691" cy="29.0664" fill="url(#x)" r=".839844"/><circle cx="4.45691" cy="29.0664" fill="url(#y)" r=".839844"/><circle cx="4.45691" cy="29.0664" fill="url(#z)" r=".839844"/></g><g filter="url(#e)"><path d="m13.085 16.0013c.0647-.0895.1898-.1096.2793-.0449l.8173.5904c.0895.0647.1096.1897.0449.2793l-1.5091 2.0888c-.0647.0896-.1897.1097-.2793.045l-.8172-.5904c-.0896-.0647-.1097-.1897-.045-.2793z" fill="url(#A)"/><path d="m13.085 16.0013c.0647-.0895.1898-.1096.2793-.0449l.8173.5904c.0895.0647.1096.1897.0449.2793l-1.5091 2.0888c-.0647.0896-.1897.1097-.2793.045l-.8172-.5904c-.0896-.0647-.1097-.1897-.045-.2793z" fill="url(#B)"/></g><g filter="url(#f)"><rect fill="#594644" height="1.66861" rx=".415833" transform="matrix(.99108248 -.13324986 .13324986 .99108248 -1.970835 1.755655)" width=".831665" x="12.1315" y="15.6024"/></g><path d="m18.1842 6.69861h1.94553v3.44006h-1.94553z" fill="url(#C)" transform="matrix(.99713656 -.07562197 .07562197 .99713656 -.454493 1.394306)"/><path d="m18.1842 6.69861h1.94553v3.44006h-1.94553z" fill="url(#D)" transform="matrix(.99713656 -.07562197 .07562197 .99713656 -.454493 1.394306)"/><path d="m18.1842 6.69861h1.94553v3.44006h-1.94553z" fill="url(#E)" transform="matrix(.99713656 -.07562197 .07562197 .99713656 -.454493 1.394306)"/><path d="m15.6369 5.76868c.1563-.14688.237-.36589.2578-.45703h.1797v1.125c-.2148.13671-.5221.11521-.6133-.08985-.0782-.17578-.0195-.39453.1758-.57812z" fill="url(#F)"/><g filter="url(#g)"><path d="m15.8609 4.80489c.0385-.80119.298-1.18737.4202-1.30031h3.7323l.0625 3.16359c-.8665 2.12178-3.5114 2.21273-3.9064 1.44532-.395-.76742-.3532-2.38102-.3086-3.3086z" fill="url(#G)"/><path d="m15.8609 4.80489c.0385-.80119.298-1.18737.4202-1.30031h3.7323l.0625 3.16359c-.8665 2.12178-3.5114 2.21273-3.9064 1.44532-.395-.76742-.3532-2.38102-.3086-3.3086z" fill="url(#H)"/><path d="m15.8609 4.80489c.0385-.80119.298-1.18737.4202-1.30031h3.7323l.0625 3.16359c-.8665 2.12178-3.5114 2.21273-3.9064 1.44532-.395-.76742-.3532-2.38102-.3086-3.3086z" fill="url(#I)"/><path d="m15.8609 4.80489c.0385-.80119.298-1.18737.4202-1.30031h3.7323l.0625 3.16359c-.8665 2.12178-3.5114 2.21273-3.9064 1.44532-.395-.76742-.3532-2.38102-.3086-3.3086z" fill="url(#J)"/></g><g filter="url(#h)"><path d="m16.4999 4.05183c-.6563 0-.9688-.3711-1-.83594 0-.65625.5011-.7956.6953-.81641.2187-.02343.3047-.04687.6094-.26171.3882-.27375.7617-.16797.9101-.09766.1485.07031.4766.10547.711.03516.3906-.11719.6953-.11337.9961.11718.2089.16016.3627.16016.6132.16016.3438 0 .6356.15389.8555.32031.6573.4974.582 2.20703.2578 3.16797-.3102.91934-.7773 1.02735-1.168.99219-.4701-.04231-.5898-.39844-.6601-.69531-.0563-.2375-.2005-.99021-.2656-1.2376-.1355-.0625-.4313-.08584-.5313-.47334s-.4924-.43194-.7578-.40625c-.1615.01562-.6094.03125-1.2656.03125z" fill="url(#K)"/><path d="m16.4999 4.05183c-.6563 0-.9688-.3711-1-.83594 0-.65625.5011-.7956.6953-.81641.2187-.02343.3047-.04687.6094-.26171.3882-.27375.7617-.16797.9101-.09766.1485.07031.4766.10547.711.03516.3906-.11719.6953-.11337.9961.11718.2089.16016.3627.16016.6132.16016.3438 0 .6356.15389.8555.32031.6573.4974.582 2.20703.2578 3.16797-.3102.91934-.7773 1.02735-1.168.99219-.4701-.04231-.5898-.39844-.6601-.69531-.0563-.2375-.2005-.99021-.2656-1.2376-.1355-.0625-.4313-.08584-.5313-.47334s-.4924-.43194-.7578-.40625c-.1615.01562-.6094.03125-1.2656.03125z" fill="url(#L)"/><path d="m16.4999 4.05183c-.6563 0-.9688-.3711-1-.83594 0-.65625.5011-.7956.6953-.81641.2187-.02343.3047-.04687.6094-.26171.3882-.27375.7617-.16797.9101-.09766.1485.07031.4766.10547.711.03516.3906-.11719.6953-.11337.9961.11718.2089.16016.3627.16016.6132.16016.3438 0 .6356.15389.8555.32031.6573.4974.582 2.20703.2578 3.16797-.3102.91934-.7773 1.02735-1.168.99219-.4701-.04231-.5898-.39844-.6601-.69531-.0563-.2375-.2005-.99021-.2656-1.2376-.1355-.0625-.4313-.08584-.5313-.47334s-.4924-.43194-.7578-.40625c-.1615.01562-.6094.03125-1.2656.03125z" fill="url(#M)"/></g><path d="m18.6317 6.25914.1995-1.43944c.3498.05233.6182.3541.6182.71854 0 .40127-.3253.72656-.7266.72656-.0309 0-.0613-.00192-.0911-.00566z" fill="url(#N)"/><path d="m18.6317 6.25914.1995-1.43944c.3498.05233.6182.3541.6182.71854 0 .40127-.3253.72656-.7266.72656-.0309 0-.0613-.00192-.0911-.00566z" fill="url(#O)"/><g filter="url(#i)"><path d="m23.3364 19.9015-.8906-3.7344h-1.7813c-.0521.6146-.152 2.2156-.2895 3.5156s.4922 2.0313.7659 2.3125l4.4455 4.3125c-.1979.6615-.627 2.025-.727 2.625-.077.4618.145.7681.3511.9524.0932.0834.2346.0642.3181-.0289l2.6876-2.9955c.092-.1027.0836-.2605-.0189-.3528l-.9859-.8877c-1.0417-1.3645-3.1906-4.1937-3.4531-4.5937-.1814-.2764-.3907-.9167-.4219-1.125z" fill="url(#P)"/><path d="m23.3364 19.9015-.8906-3.7344h-1.7813c-.0521.6146-.152 2.2156-.2895 3.5156s.4922 2.0313.7659 2.3125l4.4455 4.3125c-.1979.6615-.627 2.025-.727 2.625-.077.4618.145.7681.3511.9524.0932.0834.2346.0642.3181-.0289l2.6876-2.9955c.092-.1027.0836-.2605-.0189-.3528l-.9859-.8877c-1.0417-1.3645-3.1906-4.1937-3.4531-4.5937-.1814-.2764-.3907-.9167-.4219-1.125z" fill="url(#Q)"/><path d="m23.3364 19.9015-.8906-3.7344h-1.7813c-.0521.6146-.152 2.2156-.2895 3.5156s.4922 2.0313.7659 2.3125l4.4455 4.3125c-.1979.6615-.627 2.025-.727 2.625-.077.4618.145.7681.3511.9524.0932.0834.2346.0642.3181-.0289l2.6876-2.9955c.092-.1027.0836-.2605-.0189-.3528l-.9859-.8877c-1.0417-1.3645-3.1906-4.1937-3.4531-4.5937-.1814-.2764-.3907-.9167-.4219-1.125z" fill="url(#R)"/></g><g filter="url(#j)"><path d="m16.9845 18.5187c.3831-1.0509.7161-2.0287.7734-2.3828h4.7422c.1 1.375-.1441 1.7121-.7734 2.4218-.6927.7813-2.1719 2.4297-2.5391 2.8946-.35.35-.5.789-.5547.9804l-2.2623 7.4301c-.0405.1331-.1819.2075-.3146.1656l-3.7375-1.1828c-.1945-.0616-.3257-.2653-.2438-.4522.1073-.2448.3327-.4993.8863-.656.6625-.1875 1.9427-.2838 2.5157-.3359.2135-1.7656.6593-5.4313.7343-5.9688.0938-.6718.2266-1.414.7735-2.914z" fill="#8c8393"/><path d="m16.9845 18.5187c.3831-1.0509.7161-2.0287.7734-2.3828h4.7422c.1 1.375-.1441 1.7121-.7734 2.4218-.6927.7813-2.1719 2.4297-2.5391 2.8946-.35.35-.5.789-.5547.9804l-2.2623 7.4301c-.0405.1331-.1819.2075-.3146.1656l-3.7375-1.1828c-.1945-.0616-.3257-.2653-.2438-.4522.1073-.2448.3327-.4993.8863-.656.6625-.1875 1.9427-.2838 2.5157-.3359.2135-1.7656.6593-5.4313.7343-5.9688.0938-.6718.2266-1.414.7735-2.914z" fill="url(#S)"/><path d="m16.9845 18.5187c.3831-1.0509.7161-2.0287.7734-2.3828h4.7422c.1 1.375-.1441 1.7121-.7734 2.4218-.6927.7813-2.1719 2.4297-2.5391 2.8946-.35.35-.5.789-.5547.9804l-2.2623 7.4301c-.0405.1331-.1819.2075-.3146.1656l-3.7375-1.1828c-.1945-.0616-.3257-.2653-.2438-.4522.1073-.2448.3327-.4993.8863-.656.6625-.1875 1.9427-.2838 2.5157-.3359.2135-1.7656.6593-5.4313.7343-5.9688.0938-.6718.2266-1.414.7735-2.914z" fill="url(#T)"/><path d="m16.9845 18.5187c.3831-1.0509.7161-2.0287.7734-2.3828h4.7422c.1 1.375-.1441 1.7121-.7734 2.4218-.6927.7813-2.1719 2.4297-2.5391 2.8946-.35.35-.5.789-.5547.9804l-2.2623 7.4301c-.0405.1331-.1819.2075-.3146.1656l-3.7375-1.1828c-.1945-.0616-.3257-.2653-.2438-.4522.1073-.2448.3327-.4993.8863-.656.6625-.1875 1.9427-.2838 2.5157-.3359.2135-1.7656.6593-5.4313.7343-5.9688.0938-.6718.2266-1.414.7735-2.914z" fill="url(#U)"/><path d="m16.9845 18.5187c.3831-1.0509.7161-2.0287.7734-2.3828h4.7422c.1 1.375-.1441 1.7121-.7734 2.4218-.6927.7813-2.1719 2.4297-2.5391 2.8946-.35.35-.5.789-.5547.9804l-2.2623 7.4301c-.0405.1331-.1819.2075-.3146.1656l-3.7375-1.1828c-.1945-.0616-.3257-.2653-.2438-.4522.1073-.2448.3327-.4993.8863-.656.6625-.1875 1.9427-.2838 2.5157-.3359.2135-1.7656.6593-5.4313.7343-5.9688.0938-.6718.2266-1.414.7735-2.914z" fill="url(#V)"/><path d="m16.9845 18.5187c.3831-1.0509.7161-2.0287.7734-2.3828h4.7422c.1 1.375-.1441 1.7121-.7734 2.4218-.6927.7813-2.1719 2.4297-2.5391 2.8946-.35.35-.5.789-.5547.9804l-2.2623 7.4301c-.0405.1331-.1819.2075-.3146.1656l-3.7375-1.1828c-.1945-.0616-.3257-.2653-.2438-.4522.1073-.2448.3327-.4993.8863-.656.6625-.1875 1.9427-.2838 2.5157-.3359.2135-1.7656.6593-5.4313.7343-5.9688.0938-.6718.2266-1.414.7735-2.914z" fill="url(#W)"/></g><path d="m16.762 28.5773-.3914 1.2855c-.0405.1332-.1819.2076-.3146.1656l-3.7375-1.1828c-.1945-.0615-.3257-.2653-.2438-.4522.1073-.2448.3327-.4993.8863-.656.5907-.1671 1.6724-.2618 2.306-.3173.0771-.0068.1475-.0129.2097-.0186l.0002-.0016z" fill="url(#X)"/><path d="m16.762 28.5773-.3914 1.2855c-.0405.1332-.1819.2076-.3146.1656l-3.7375-1.1828c-.1945-.0615-.3257-.2653-.2438-.4522.1073-.2448.3327-.4993.8863-.656.5907-.1671 1.6724-.2618 2.306-.3173.0771-.0068.1475-.0129.2097-.0186l.0002-.0016z" fill="url(#Y)"/><path d="m16.762 28.5773-.3914 1.2855c-.0405.1332-.1819.2076-.3146.1656l-3.7375-1.1828c-.1945-.0615-.3257-.2653-.2438-.4522.1073-.2448.3327-.4993.8863-.656.5907-.1671 1.6724-.2618 2.306-.3173.0771-.0068.1475-.0129.2097-.0186l.0002-.0016z" fill="url(#Z)"/><path d="m16.762 28.5773-.3914 1.2855c-.0405.1332-.1819.2076-.3146.1656l-3.7375-1.1828c-.1945-.0615-.3257-.2653-.2438-.4522.1073-.2448.3327-.4993.8863-.656.5907-.1671 1.6724-.2618 2.306-.3173.0771-.0068.1475-.0129.2097-.0186l.0002-.0016z" fill="url(#aa)"/><path d="m16.762 28.5773-.3914 1.2855c-.0405.1332-.1819.2076-.3146.1656l-3.7375-1.1828c-.1945-.0615-.3257-.2653-.2438-.4522.1073-.2448.3327-.4993.8863-.656.5907-.1671 1.6724-.2618 2.306-.3173.0771-.0068.1475-.0129.2097-.0186l.0002-.0016z" fill="url(#ab)"/><path d="m27.2031 25.6093-1.6379.6777.0213.0208c-.0309.103-.0672.223-.1072.3546-.2164.713-.5355 1.7638-.6198 2.2704-.0769.4617.145.768.351.9523.0933.0834.2347.0642.3182-.0289l2.6876-2.9955c.092-.1026.0836-.2605-.0188-.3527l-.986-.8877c-.0028-.0037-.0056-.0074-.0084-.011z" fill="#45437a"/><path d="m27.2031 25.6093-1.6379.6777.0213.0208c-.0309.103-.0672.223-.1072.3546-.2164.713-.5355 1.7638-.6198 2.2704-.0769.4617.145.768.351.9523.0933.0834.2347.0642.3182-.0289l2.6876-2.9955c.092-.1026.0836-.2605-.0188-.3527l-.986-.8877c-.0028-.0037-.0056-.0074-.0084-.011z" fill="url(#ac)"/><path d="m27.2031 25.6093-1.6379.6777.0213.0208c-.0309.103-.0672.223-.1072.3546-.2164.713-.5355 1.7638-.6198 2.2704-.0769.4617.145.768.351.9523.0933.0834.2347.0642.3182-.0289l2.6876-2.9955c.092-.1026.0836-.2605-.0188-.3527l-.986-.8877c-.0028-.0037-.0056-.0074-.0084-.011z" fill="url(#ad)"/><path d="m27.2031 25.6093-1.6379.6777.0213.0208c-.0309.103-.0672.223-.1072.3546-.2164.713-.5355 1.7638-.6198 2.2704-.0769.4617.145.768.351.9523.0933.0834.2347.0642.3182-.0289l2.6876-2.9955c.092-.1026.0836-.2605-.0188-.3527l-.986-.8877c-.0028-.0037-.0056-.0074-.0084-.011z" fill="url(#ae)"/><path d="m17.3829 10.4562c.2813-.71252.7735-1.22398.9844-1.39065l-.0391 4.46875-1.7851-.8359c.2773-.5235.4883-1.3516.8398-2.2422z" fill="url(#af)"/><path d="m19.6916 8.55383c.8907 0 1.1367.21485 1.4336.40625l1.0235 2.59762c.3 1.4.3645 3.6355.3593 4.5782h-4.7464c-.2579-.6563-.6967-2.675-.535-4.5782.1641-1.92965 1.2072-2.9023 2.465-3.00387z" fill="#397ec9"/><path d="m19.6916 8.55383c.8907 0 1.1367.21485 1.4336.40625l1.0235 2.59762c.3 1.4.3645 3.6355.3593 4.5782h-4.7464c-.2579-.6563-.6967-2.675-.535-4.5782.1641-1.92965 1.2072-2.9023 2.465-3.00387z" fill="url(#ag)"/><path d="m19.6916 8.55383c.8907 0 1.1367.21485 1.4336.40625l1.0235 2.59762c.3 1.4.3645 3.6355.3593 4.5782h-4.7464c-.2579-.6563-.6967-2.675-.535-4.5782.1641-1.92965 1.2072-2.9023 2.465-3.00387z" fill="url(#ah)"/><path d="m19.6916 8.55383c.8907 0 1.1367.21485 1.4336.40625l1.0235 2.59762c.3 1.4.3645 3.6355.3593 4.5782h-4.7464c-.2579-.6563-.6967-2.675-.535-4.5782.1641-1.92965 1.2072-2.9023 2.465-3.00387z" fill="url(#ai)"/><path d="m19.6916 8.55383c.8907 0 1.1367.21485 1.4336.40625l1.0235 2.59762c.3 1.4.3645 3.6355.3593 4.5782h-4.7464c-.2579-.6563-.6967-2.675-.535-4.5782.1641-1.92965 1.2072-2.9023 2.465-3.00387z" fill="url(#aj)"/><path d="m19.6916 8.55383c.8907 0 1.1367.21485 1.4336.40625l1.0235 2.59762c.3 1.4.3645 3.6355.3593 4.5782h-4.7464c-.2579-.6563-.6967-2.675-.535-4.5782.1641-1.92965 1.2072-2.9023 2.465-3.00387z" fill="url(#ak)"/><circle cx="25.0978" cy="17.9835" fill="url(#al)" r=".550781"/><g filter="url(#k)"><path d="m19.6406 11.2315c-.3103-.2484-.4623-.6382-.4623-1.0666 0-.74865.185-1.1599.9336-1.1599.3372 0 .6455.12307.8827.32673.9506.69147 1.7892 1.59127 2.2697 2.13417l-2.0391 1.9141c-.2877-.3829-1.069-1.4454-1.5846-2.1485z" fill="#1049ac"/></g><g filter="url(#l)"><path clip-rule="evenodd" d="m26.0042 19.1796c-.3253.108-.6744-.0795-.7759-.407-1.2149-3.9216-3.1657-6.29-4.5414-7.545-.4378-.3994-.5158-1.0821-.1283-1.53045.3464-.40075.9444-.47166 1.3482-.12888 1.6261 1.38033 3.9107 3.97533 5.3164 8.60463.0929.3062-.0789.6281-.3826.729z" fill="#462c2f" fill-rule="evenodd"/></g><g filter="url(#m)"><path d="m21.9547 10.6436c.9688.9063 3.1563 3.2188 4.4844 7.4688" stroke="#604f4e" stroke-linecap="round" stroke-width=".4"/></g><g filter="url(#n)"><path d="m19.5562 11.1596c-.3104-.2484-.5092-.6305-.5092-1.0589 0-.7486.6068-1.35546 1.3555-1.35546.3371 0 .6455.12307.8827.32673.9506.69151 1.7891 1.59123 2.2696 2.13423l-2.0391 1.914c-.3077-.3198-1.3819-1.3925-1.9595-1.9606z" fill="url(#am)"/><path d="m19.5562 11.1596c-.3104-.2484-.5092-.6305-.5092-1.0589 0-.7486.6068-1.35546 1.3555-1.35546.3371 0 .6455.12307.8827.32673.9506.69151 1.7891 1.59123 2.2696 2.13423l-2.0391 1.914c-.3077-.3198-1.3819-1.3925-1.9595-1.9606z" fill="url(#an)"/><path d="m19.5562 11.1596c-.3104-.2484-.5092-.6305-.5092-1.0589 0-.7486.6068-1.35546 1.3555-1.35546.3371 0 .6455.12307.8827.32673.9506.69151 1.7891 1.59123 2.2696 2.13423l-2.0391 1.914c-.3077-.3198-1.3819-1.3925-1.9595-1.9606z" fill="url(#ao)"/></g><path d="m19.5562 11.1596c-.3104-.2484-.5092-.6305-.5092-1.0589 0-.7486.6068-1.35546 1.3555-1.35546.3371 0 .6455.12307.8827.32673.9506.69151 1.7891 1.59123 2.2696 2.13423l-2.0391 1.914c-.3077-.3198-1.3819-1.3925-1.9595-1.9606z" fill="url(#ap)"/><path clip-rule="evenodd" d="m17.1128 6.71238c.0483.04928.0476.12842-.0017.17677-.2381.23364-.5825.29342-.692.30466-.0686.00704-.13-.04292-.1371-.1116-.007-.06867.043-.13006.1116-.1371.0937-.0096.3665-.06179.5424-.23441.0493-.04835.1284-.04759.1768.00168z" fill="#280017" fill-rule="evenodd"/><path d="m16.3673 5.59875h.9883c0-.39156-.2212-.70898-.4941-.70898-.273 0-.4942.31742-.4942.70898z" fill="#fff"/><path d="m16.9728 5.59875v-.0039c0-.32037-.1373-.58008-.3067-.58008-.1693 0-.3066.25971-.3066.58008v.0039z" fill="url(#aq)"/><path d="m16.7773 5.59875c.0027-.02327.0041-.04745.0041-.07226 0-.18553-.0787-.33594-.1758-.33594s-.1758.15041-.1758.33594c0 .02481.0014.04899.0041.07226z" fill="url(#ar)"/><ellipse cx="16.5412" cy="5.24719" fill="url(#as)" rx=".064453" ry=".087891" transform="matrix(.90916271 .41644106 -.41644106 .90916271 3.687703 -6.411794)"/><g filter="url(#o)"><path d="m17.3673 21.1359-1.3437 6.5.3593.3125 1.4688-6.5313 3.0156-3.875-.7031-.4844z" fill="url(#at)"/></g><g filter="url(#p)"><path d="m23.1956 21.0834 3.4762 4.428-.514.199-3.4845-3.7081c-.3903-.4153-.6542-.9332-.7608-1.4931l-.1905-.9998.7517-.7737.5437 1.9933c.0351.1289.0957.2494.1782.3544z" fill="url(#au)"/></g><g filter="url(#q)"><path clip-rule="evenodd" d="m17.1371 4.7417c-.1474-.10562-.3628-.11097-.5007-.11097-.1105 0-.2-.08955-.2-.2 0-.11046.0895-.2.2-.2.0031 0 .0062-.00001.0096-.00001.1283-.00014.4641-.0005.7241.18591.0898.06436.1104.18931.046.27907-.0643.08977-.1893.11037-.279.046z" fill="#2c2929" fill-rule="evenodd"/></g></svg>