<svg fill="none" height="32" viewBox="0 0 32 32" width="32" xmlns="http://www.w3.org/2000/svg" xmlns:xlink="http://www.w3.org/1999/xlink"><filter id="a" color-interpolation-filters="sRGB" filterUnits="userSpaceOnUse" height="4.43851" width="4.36406" x="13.6553" y="5.36697"><feFlood flood-opacity="0" result="BackgroundImageFix"/><feBlend in="SourceGraphic" in2="BackgroundImageFix" mode="normal" result="shape"/><feColorMatrix in="SourceAlpha" result="hardAlpha" type="matrix" values="0 0 0 0 0 0 0 0 0 0 0 0 0 0 0 0 0 0 127 0"/><feOffset dx=".2" dy="-.15"/><feGaussianBlur stdDeviation=".25"/><feComposite in2="hardAlpha" k2="-1" k3="1" operator="arithmetic"/><feColorMatrix type="matrix" values="0 0 0 0 0.733333 0 0 0 0 0.486275 0 0 0 0 0.145098 0 0 0 1 0"/><feBlend in2="shape" mode="normal" result="effect1_innerShadow_3987_23062"/></filter><filter id="b" color-interpolation-filters="sRGB" filterUnits="userSpaceOnUse" height=".366602" width=".762543" x="16.6802" y="6.50284"><feFlood flood-opacity="0" result="BackgroundImageFix"/><feBlend in="SourceGraphic" in2="BackgroundImageFix" mode="normal" result="shape"/><feColorMatrix in="SourceAlpha" result="hardAlpha" type="matrix" values="0 0 0 0 0 0 0 0 0 0 0 0 0 0 0 0 0 0 127 0"/><feOffset dy="-.1"/><feGaussianBlur stdDeviation=".05"/><feComposite in2="hardAlpha" k2="-1" k3="1" operator="arithmetic"/><feColorMatrix type="matrix" values="0 0 0 0 0.678431 0 0 0 0 0.243137 0 0 0 0 0.239216 0 0 0 1 0"/><feBlend in2="shape" mode="normal" result="effect1_innerShadow_3987_23062"/></filter><filter id="c" color-interpolation-filters="sRGB" filterUnits="userSpaceOnUse" height="6.14148" width="6.37705" x="9.00928" y="8.86621"><feFlood flood-opacity="0" result="BackgroundImageFix"/><feBlend in="SourceGraphic" in2="BackgroundImageFix" mode="normal" result="shape"/><feColorMatrix in="SourceAlpha" result="hardAlpha" type="matrix" values="0 0 0 0 0 0 0 0 0 0 0 0 0 0 0 0 0 0 127 0"/><feOffset dx=".65"/><feGaussianBlur stdDeviation=".6"/><feComposite in2="hardAlpha" k2="-1" k3="1" operator="arithmetic"/><feColorMatrix type="matrix" values="0 0 0 0 0.407843 0 0 0 0 0.321569 0 0 0 0 0.666667 0 0 0 1 0"/><feBlend in2="shape" mode="normal" result="effect1_innerShadow_3987_23062"/></filter><filter id="d" color-interpolation-filters="sRGB" filterUnits="userSpaceOnUse" height="6.0375" width="27.9828" x="1.49365" y="20.4374"><feFlood flood-opacity="0" result="BackgroundImageFix"/><feBlend in="SourceGraphic" in2="BackgroundImageFix" mode="normal" result="shape"/><feColorMatrix in="SourceAlpha" result="hardAlpha" type="matrix" values="0 0 0 0 0 0 0 0 0 0 0 0 0 0 0 0 0 0 127 0"/><feOffset dx=".1" dy=".1"/><feGaussianBlur stdDeviation=".075"/><feComposite in2="hardAlpha" k2="-1" k3="1" operator="arithmetic"/><feColorMatrix type="matrix" values="0 0 0 0 0.180392 0 0 0 0 0.541176 0 0 0 0 0.729412 0 0 0 1 0"/><feBlend in2="shape" mode="normal" result="effect1_innerShadow_3987_23062"/></filter><filter id="e" color-interpolation-filters="sRGB" filterUnits="userSpaceOnUse" height="2.19067" width="24.059" x="3.32075" y="15.4381"><feFlood flood-opacity="0" result="BackgroundImageFix"/><feBlend in="SourceGraphic" in2="BackgroundImageFix" mode="normal" result="shape"/><feColorMatrix in="SourceAlpha" result="hardAlpha" type="matrix" values="0 0 0 0 0 0 0 0 0 0 0 0 0 0 0 0 0 0 127 0"/><feOffset dx="-.2"/><feGaussianBlur stdDeviation=".375"/><feComposite in2="hardAlpha" k2="-1" k3="1" operator="arithmetic"/><feColorMatrix type="matrix" values="0 0 0 0 0.278431 0 0 0 0 0.529412 0 0 0 0 0.184314 0 0 0 1 0"/><feBlend in2="shape" mode="normal" result="effect1_innerShadow_3987_23062"/></filter><filter id="f" color-interpolation-filters="sRGB" filterUnits="userSpaceOnUse" height=".875793" width="1.23447" x="19.0531" y="12.5945"><feFlood flood-opacity="0" result="BackgroundImageFix"/><feBlend in="SourceGraphic" in2="BackgroundImageFix" mode="normal" result="shape"/><feColorMatrix in="SourceAlpha" result="hardAlpha" type="matrix" values="0 0 0 0 0 0 0 0 0 0 0 0 0 0 0 0 0 0 127 0"/><feOffset/><feGaussianBlur stdDeviation=".125"/><feComposite in2="hardAlpha" k2="-1" k3="1" operator="arithmetic"/><feColorMatrix type="matrix" values="0 0 0 0 0.886275 0 0 0 0 0.701961 0 0 0 0 0.262745 0 0 0 1 0"/><feBlend in2="shape" mode="normal" result="effect1_innerShadow_3987_23062"/></filter><filter id="g" color-interpolation-filters="sRGB" filterUnits="userSpaceOnUse" height="6.80316" width="6.80219" x="7.77222" y="19.1764"><feFlood flood-opacity="0" result="BackgroundImageFix"/><feBlend in="SourceGraphic" in2="BackgroundImageFix" mode="normal" result="shape"/><feColorMatrix in="SourceAlpha" result="hardAlpha" type="matrix" values="0 0 0 0 0 0 0 0 0 0 0 0 0 0 0 0 0 0 127 0"/><feOffset dx=".5" dy="-.5"/><feGaussianBlur stdDeviation=".625"/><feComposite in2="hardAlpha" k2="-1" k3="1" operator="arithmetic"/><feColorMatrix type="matrix" values="0 0 0 0 0.776471 0 0 0 0 0.556863 0 0 0 0 0.341176 0 0 0 1 0"/><feBlend in2="shape" mode="normal" result="effect1_innerShadow_3987_23062"/></filter><filter id="h" color-interpolation-filters="sRGB" filterUnits="userSpaceOnUse" height="6.0375" width="27.9828" x="1.39365" y="23.9374"><feFlood flood-opacity="0" result="BackgroundImageFix"/><feBlend in="SourceGraphic" in2="BackgroundImageFix" mode="normal" result="shape"/><feColorMatrix in="SourceAlpha" result="hardAlpha" type="matrix" values="0 0 0 0 0 0 0 0 0 0 0 0 0 0 0 0 0 0 127 0"/><feOffset dx="-.1" dy=".1"/><feGaussianBlur stdDeviation=".2"/><feComposite in2="hardAlpha" k2="-1" k3="1" operator="arithmetic"/><feColorMatrix type="matrix" values="0 0 0 0 0.384314 0 0 0 0 0.843137 0 0 0 0 1 0 0 0 1 0"/><feBlend in2="shape" mode="normal" result="effect1_innerShadow_3987_23062"/></filter><filter id="i" color-interpolation-filters="sRGB" filterUnits="userSpaceOnUse" height="4.10803" width="6.67754" x="14.2202" y="10.7616"><feFlood flood-opacity="0" result="BackgroundImageFix"/><feBlend in="SourceGraphic" in2="BackgroundImageFix" mode="normal" result="shape"/><feColorMatrix in="SourceAlpha" result="hardAlpha" type="matrix" values="0 0 0 0 0 0 0 0 0 0 0 0 0 0 0 0 0 0 127 0"/><feOffset dx=".2" dy="-.5"/><feGaussianBlur stdDeviation=".4"/><feComposite in2="hardAlpha" k2="-1" k3="1" operator="arithmetic"/><feColorMatrix type="matrix" values="0 0 0 0 0.92549 0 0 0 0 0.607843 0 0 0 0 0.254902 0 0 0 1 0"/><feBlend in2="shape" mode="normal" result="effect1_innerShadow_3987_23062"/></filter><filter id="j" color-interpolation-filters="sRGB" filterUnits="userSpaceOnUse" height="3.70499" width="3.88187" x="12.2383" y="9.16207"><feFlood flood-opacity="0" result="BackgroundImageFix"/><feBlend in="SourceGraphic" in2="BackgroundImageFix" mode="normal" result="shape"/><feColorMatrix in="SourceAlpha" result="hardAlpha" type="matrix" values="0 0 0 0 0 0 0 0 0 0 0 0 0 0 0 0 0 0 127 0"/><feOffset dx=".4" dy="-.15"/><feGaussianBlur stdDeviation=".4"/><feComposite in2="hardAlpha" k2="-1" k3="1" operator="arithmetic"/><feColorMatrix type="matrix" values="0 0 0 0 0.337255 0 0 0 0 0.243137 0 0 0 0 0.611765 0 0 0 1 0"/><feBlend in2="shape" mode="normal" result="effect1_innerShadow_3987_23062"/></filter><filter id="k" color-interpolation-filters="sRGB" filterUnits="userSpaceOnUse" height="5.31296" width="6.31732" x="12.3413" y="3.75411"><feFlood flood-opacity="0" result="BackgroundImageFix"/><feBlend in="SourceGraphic" in2="BackgroundImageFix" mode="normal" result="shape"/><feColorMatrix in="SourceAlpha" result="hardAlpha" type="matrix" values="0 0 0 0 0 0 0 0 0 0 0 0 0 0 0 0 0 0 127 0"/><feOffset dx=".1" dy="-.15"/><feGaussianBlur stdDeviation=".4"/><feComposite in2="hardAlpha" k2="-1" k3="1" operator="arithmetic"/><feColorMatrix type="matrix" values="0 0 0 0 1 0 0 0 0 0.490196 0 0 0 0 0.121569 0 0 0 1 0"/><feBlend in2="shape" mode="normal" result="effect1_innerShadow_3987_23062"/></filter><radialGradient id="l" cx="0" cy="0" gradientTransform="matrix(-.39076573 .94292641 -1.73825527 -.72036437 15.7072 8.3525)" gradientUnits="userSpaceOnUse" r="1"><stop offset=".141603" stop-color="#98711c"/><stop offset="1" stop-color="#b97f21"/></radialGradient><radialGradient id="m" cx="0" cy="0" gradientTransform="matrix(-.2070263 .58866997 -.54534137 -.19178829 17.7007 8.01668)" gradientUnits="userSpaceOnUse" r="1"><stop offset=".462544" stop-color="#ffd13f"/><stop offset="1" stop-color="#e7a740"/></radialGradient><radialGradient id="n" cx="0" cy="0" gradientTransform="matrix(-2.70312084 .88555305 -.91680058 -2.79850285 17.0171 7.66123)" gradientUnits="userSpaceOnUse" r="1"><stop offset=".175941" stop-color="#ffd43f"/><stop offset="1" stop-color="#ffad2d"/></radialGradient><radialGradient id="o" cx="0" cy="0" gradientTransform="matrix(1.31250143 4.15624654 -2.18414257 .68973056 13.2358 11.5624)" gradientUnits="userSpaceOnUse" r="1"><stop offset=".0796495" stop-color="#57399f"/><stop offset="1" stop-color="#57399f" stop-opacity="0"/></radialGradient><radialGradient id="p" cx="0" cy="0" gradientTransform="matrix(4.6562529 1.25780953 -.56538123 2.09297031 10.4233 14.4061)" gradientUnits="userSpaceOnUse" r="1"><stop offset=".396256" stop-color="#8d8695"/><stop offset=".769686" stop-color="#697167"/></radialGradient><linearGradient id="q" gradientUnits="userSpaceOnUse" x1="24.4858" x2="7.23584" y1="18.7811" y2="24.1561"><stop offset=".352803" stop-color="#86bf45"/><stop offset="1" stop-color="#679951"/></linearGradient><linearGradient id="r" gradientUnits="userSpaceOnUse" x1="26.5796" x2="25.8765" y1="20.3436" y2="20.3436"><stop offset="0" stop-color="#99d852"/><stop offset="1" stop-color="#99d852" stop-opacity="0"/></linearGradient><radialGradient id="s" cx="0" cy="0" gradientTransform="matrix(5.56250786 -6.21874845 2.25745208 2.01923185 12.5796 21.9374)" gradientUnits="userSpaceOnUse" r="1"><stop offset="0" stop-color="#659941"/><stop offset="1" stop-color="#79af4c" stop-opacity="0"/></radialGradient><radialGradient id="t" cx="0" cy="0" gradientTransform="matrix(-2.15624817 -1.8437588 1.36973202 -1.60188099 10.7671 21.8436)" gradientUnits="userSpaceOnUse" r="1"><stop offset="0" stop-color="#528c3f"/><stop offset="1" stop-color="#528c3f" stop-opacity="0"/></radialGradient><radialGradient id="u" cx="0" cy="0" gradientTransform="matrix(-6.24997452 6.68751944 -13.50505705 -12.6214605 22.6108 20.0311)" gradientUnits="userSpaceOnUse" r="1"><stop offset="0" stop-color="#379fe9"/><stop offset="1" stop-color="#3691df"/></radialGradient><radialGradient id="v" cx="0" cy="0" gradientTransform="matrix(-2.84372804 -3.00001797 5.32223536 -5.04496643 8.57959 24.6561)" gradientUnits="userSpaceOnUse" r="1"><stop offset="0" stop-color="#286ec5"/><stop offset="1" stop-color="#286ec5" stop-opacity="0"/></radialGradient><radialGradient id="w" cx="0" cy="0" gradientTransform="matrix(-4.87499627 .37502493 -1.76113837 -22.89325928 30.9858 23.0311)" gradientUnits="userSpaceOnUse" r="1"><stop offset=".288236" stop-color="#38a7fb"/><stop offset="1" stop-color="#38a7fb" stop-opacity="0"/></radialGradient><linearGradient id="x" gradientUnits="userSpaceOnUse" x1="15.4503" x2="15.8296" y1="15.1874" y2="18.7186"><stop offset="0" stop-color="#79b34c"/><stop offset="1" stop-color="#4d8c4e"/></linearGradient><radialGradient id="y" cx="0" cy="0" gradientTransform="matrix(-1.28125 0 0 -1 26.9858 16.0624)" gradientUnits="userSpaceOnUse" r="1"><stop offset="0" stop-color="#78bb7d"/><stop offset="1" stop-color="#78bb7d" stop-opacity="0"/></radialGradient><radialGradient id="z" cx="0" cy="0" gradientTransform="matrix(16.1875 0 0 .716439 3.70459 16.5334)" gradientUnits="userSpaceOnUse" r="1"><stop offset="0" stop-color="#7caf55"/><stop offset="1" stop-color="#7caf55" stop-opacity="0"/></radialGradient><radialGradient id="A" cx="0" cy="0" gradientTransform="matrix(0 .812501 -9.78125 0 17.3921 16.3124)" gradientUnits="userSpaceOnUse" r="1"><stop offset="0" stop-color="#70a762"/><stop offset="1" stop-color="#70a762" stop-opacity="0"/></radialGradient><radialGradient id="B" cx="0" cy="0" gradientTransform="matrix(-8.56252555 8.49998789 -.92363421 -.93042974 21.2358 12.4686)" gradientUnits="userSpaceOnUse" r="1"><stop offset=".235656" stop-color="#fecca0"/><stop offset="1" stop-color="#da9c63"/></radialGradient><linearGradient id="C" gradientUnits="userSpaceOnUse" x1="16.603" x2="17.0171" y1="16.2225" y2="16.617"><stop offset="0" stop-color="#cd9157"/><stop offset="1" stop-color="#eeb683" stop-opacity="0"/></linearGradient><linearGradient id="D" gradientUnits="userSpaceOnUse" x1="18.9546" x2="18.6187" y1="15.9061" y2="15.5545"><stop offset="0" stop-color="#d59c7a"/><stop offset="1" stop-color="#d59c7a" stop-opacity="0"/></linearGradient><radialGradient id="E" cx="0" cy="0" gradientTransform="matrix(-3.55738635 3.43748852 -2.02460107 -2.09521811 14.0745 20.8749)" gradientUnits="userSpaceOnUse" r="1"><stop offset="0" stop-color="#fbc998"/><stop offset="1" stop-color="#e9b37e"/></radialGradient><linearGradient id="F" gradientUnits="userSpaceOnUse" x1="17.8921" x2="12.1733" y1="23.3124" y2="33.4061"><stop offset="0" stop-color="#5fcdff"/><stop offset="1" stop-color="#4aadff"/></linearGradient><radialGradient id="G" cx="0" cy="0" gradientTransform="matrix(-3.09375 0 0 -12.375 29.6108 28.8436)" gradientUnits="userSpaceOnUse" r="1"><stop offset="0" stop-color="#65deff"/><stop offset="1" stop-color="#5dc9ff" stop-opacity="0"/></radialGradient><linearGradient id="H" gradientUnits="userSpaceOnUse" x1="17.4546" x2="17.4546" y1="29.8749" y2="29.5936"><stop offset="0" stop-color="#59a0ff"/><stop offset="1" stop-color="#55beff" stop-opacity="0"/></linearGradient><radialGradient id="I" cx="0" cy="0" gradientTransform="matrix(2.15624866 2.43749577 -1.44730782 1.28031219 14.6108 10.0624)" gradientUnits="userSpaceOnUse" r="1"><stop offset=".0488889" stop-color="#9178d3"/><stop offset="1" stop-color="#7151be"/></radialGradient><linearGradient id="J"><stop offset="0" stop-color="#3d3d3d"/><stop offset="1" stop-color="#191919"/></linearGradient><radialGradient id="K" cx="0" cy="0" gradientTransform="matrix(-.36061165 .26664383 -.28066432 -.37957309 16.8921 7.18271)" gradientUnits="userSpaceOnUse" r="1" xlink:href="#J"/><radialGradient id="L" cx="0" cy="0" gradientTransform="matrix(.1268314 -.48046877 .53901335 .14228566 16.9779 7.67179)" gradientUnits="userSpaceOnUse" r="1"><stop offset=".625996" stop-color="#81504c"/><stop offset="1" stop-color="#aa8d86"/></radialGradient><radialGradient id="M" cx="0" cy="0" gradientTransform="matrix(.0738527 .26171855 -.25327623 .07147042 16.925 7.40615)" gradientUnits="userSpaceOnUse" r="1" xlink:href="#J"/><radialGradient id="N" cx="0" cy="0" gradientTransform="matrix(-5.2903227 1.54439301 -1.92915877 -6.6083389 18.0542 5.87716)" gradientUnits="userSpaceOnUse" r="1"><stop offset=".332135" stop-color="#ffce38"/><stop offset="1" stop-color="#ffa738"/></radialGradient><path d="m14.1479 7.61633h1.74374v2h-1.74374z" fill="url(#l)" transform="matrix(.77539436 .63147731 -.63147731 .77539436 7.987238 -7.223407)"/><path d="m17.667 7.97253c-.0813-.14687-.0664-.41145-.0469-.5039l-.4453 1.01953c.1406.07422.3781.13924.5156-.03125.0977-.12109.0782-.30078-.0234-.48438z" fill="url(#m)"/><g filter="url(#a)"><path d="m15.3664 9.57746c-.9144-.45312-1.5358-1.23437-1.7111-1.61719l.6631-1.5927c.1755-.42167.5762-.7077 1.0338-.73797l1.6563-.10957c.1289-.00853.2629-.003.3719.06612.2879.18255.5758.6445.3683 1.47569-.2282 1.08071-.5006 1.74367-.7485 2.22644-.177.34447-.5329.57202-.9158.50572-.2095-.03627-.4548-.10192-.718-.21654z" fill="url(#n)"/></g><path clip-rule="evenodd" d="m16.4146 8.38149c.0503-.02286.1096-.00063.1324.04965.0322.07072.1497.24335.339.32447.0508.02175.0743.08054.0525.1313-.0217.05077-.0805.07428-.1313.05253-.2482-.10639-.3963-.32438-.4423-.42554-.0228-.05028-.0006-.10956.0497-.13241z" fill="#87004d" fill-rule="evenodd"/><g filter="url(#b)"><path clip-rule="evenodd" d="m17.301 6.8603c-.1945-.08917-.4102-.0547-.488-.02769-.0522.01812-.1091-.00949-.1273-.06166-.0181-.05218.0095-.10916.0617-.12727.1097-.03809.3815-.08227.637.03481.0502.02301.0722.08236.0492.13257s-.0824.07225-.1326.04924z" fill="#bf6559" fill-rule="evenodd"/></g><g filter="url(#c)"><path d="m10.603 10.4842c-1.00622 1.2313-1.41404 2.668-1.59372 3.2735l3.99222 1.25c.125-1.0235.75-2.7188 1.1718-3.375.4219-.6563.4883-.8711.5547-1.3477.0664-.47655-.2555-1.19445-1.3359-1.39452-.8438-.15625-1.8541.44967-2.7891 1.59372z" fill="#7355bd"/><path d="m10.603 10.4842c-1.00622 1.2313-1.41404 2.668-1.59372 3.2735l3.99222 1.25c.125-1.0235.75-2.7188 1.1718-3.375.4219-.6563.4883-.8711.5547-1.3477.0664-.47655-.2555-1.19445-1.3359-1.39452-.8438-.15625-1.8541.44967-2.7891 1.59372z" fill="url(#o)"/></g><path d="m9.03267 13.6405c-.24223.8945-.20311 1.7617-.10938 2.0234l6.30861-.0625z" fill="url(#p)"/><path d="m4.66748 16.8964 21.72462-.0215v6.25l-18.00782-.1172z" fill="url(#q)"/><path d="m4.66748 16.8964 21.72462-.0215v6.25l-18.00782-.1172z" fill="url(#r)"/><path d="m4.66748 16.8964 21.72462-.0215v6.25l-18.00782-.1172z" fill="url(#s)"/><path d="m4.66748 16.8964 21.72462-.0215v6.25l-18.00782-.1172z" fill="url(#t)"/><g filter="url(#d)"><path d="m2.93896 20.8593c-.775-.425-1.2539-.4219-1.44531-.4219v5.9375h27.88285v-5.9375c-1.5625 0-2.2149 1.1562-3.5313 1.1562s-2.1875-1.1562-3.5469-1.1562c-1.1171 0-2.2421 1.1562-3.5078 1.1562-.9726 0-2.2031-1.1562-3.3906-1.1562-1.2578 0-2.2617 1.1562-3.3984 1.1562-.5586 0-.836-.1015-1.5391-.4375-.70312-.3359-1.32422-.7031-1.98047-.7031-.65363 0-1.31114.3333-1.87989.6215l-.00683.0035c-.57031.2891-1.03125.5156-1.65625.5156s-1.03125-.2031-2-.7343z" fill="url(#u)"/><path d="m2.93896 20.8593c-.775-.425-1.2539-.4219-1.44531-.4219v5.9375h27.88285v-5.9375c-1.5625 0-2.2149 1.1562-3.5313 1.1562s-2.1875-1.1562-3.5469-1.1562c-1.1171 0-2.2421 1.1562-3.5078 1.1562-.9726 0-2.2031-1.1562-3.3906-1.1562-1.2578 0-2.2617 1.1562-3.3984 1.1562-.5586 0-.836-.1015-1.5391-.4375-.70312-.3359-1.32422-.7031-1.98047-.7031-.65363 0-1.31114.3333-1.87989.6215l-.00683.0035c-.57031.2891-1.03125.5156-1.65625.5156s-1.03125-.2031-2-.7343z" fill="url(#v)"/><path d="m2.93896 20.8593c-.775-.425-1.2539-.4219-1.44531-.4219v5.9375h27.88285v-5.9375c-1.5625 0-2.2149 1.1562-3.5313 1.1562s-2.1875-1.1562-3.5469-1.1562c-1.1171 0-2.2421 1.1562-3.5078 1.1562-.9726 0-2.2031-1.1562-3.3906-1.1562-1.2578 0-2.2617 1.1562-3.3984 1.1562-.5586 0-.836-.1015-1.5391-.4375-.70312-.3359-1.32422-.7031-1.98047-.7031-.65363 0-1.31114.3333-1.87989.6215l-.00683.0035c-.57031.2891-1.03125.5156-1.65625.5156s-1.03125-.2031-2-.7343z" fill="url(#w)"/></g><g filter="url(#e)"><rect fill="url(#x)" height="2.19068" rx="1.09534" width="23.859" x="3.52075" y="15.4381"/><rect fill="url(#y)" height="2.19068" rx="1.09534" width="23.859" x="3.52075" y="15.4381"/><rect fill="url(#z)" height="2.19068" rx="1.09534" width="23.859" x="3.52075" y="15.4381"/><rect fill="url(#A)" height="2.19068" rx="1.09534" width="23.859" x="3.52075" y="15.4381"/></g><g filter="url(#f)"><rect fill="#f4c03b" height=".636719" rx=".318359" transform="matrix(.92856877 -.3711604 .3711604 .92856877 -3.461404 7.963162)" width="1.28028" x="18.9578" y="12.9744"/></g><path d="m20.7692 12.1896c.2318-.2288.6052-.2264.834.0053.2289.2318.2265.6052-.0053.8341l-8.4388 8.3315c-.2317.2288-.6052.2265-.834-.0053s-.2264-.6052.0053-.8341z" fill="url(#B)"/><path d="m20.7692 12.1896c.2318-.2288.6052-.2264.834.0053.2289.2318.2265.6052-.0053.8341l-8.4388 8.3315c-.2317.2288-.6052.2265-.834-.0053s-.2264-.6052.0053-.8341z" fill="url(#C)"/><path d="m20.7692 12.1896c.2318-.2288.6052-.2264.834.0053.2289.2318.2265.6052-.0053.8341l-8.4388 8.3315c-.2317.2288-.6052.2265-.834-.0053s-.2264-.6052.0053-.8341z" fill="url(#D)"/><g filter="url(#g)"><path d="m10.8014 20.2382c.7485-.7489 1.9624-.7491 2.7112-.0006.7488.7486.7491 1.9624.0006 2.7113l-2.468 2.4689c-.7485.7488-1.96236.7491-2.71119.0005-.74884-.7485-.74909-1.9624-.00055-2.7112z" fill="url(#E)"/></g><g filter="url(#h)"><path d="m2.93896 24.3593c-.775-.425-1.2539-.4219-1.44531-.4219v5.9375h27.88285v-5.9375c-1.5625 0-2.2149 1.1562-3.5313 1.1562s-2.1875-1.1562-3.5469-1.1562c-1.1171 0-2.2421 1.1562-3.5078 1.1562-.9726 0-2.2031-1.1562-3.3906-1.1562-1.2578 0-2.2617 1.1562-3.3984 1.1562-.5586 0-.836-.1015-1.5391-.4375-.70312-.3359-1.32422-.7031-1.98047-.7031-.65363 0-1.31114.3333-1.87989.6215l-.00683.0035c-.57031.2891-1.03125.5156-1.65625.5156s-1.03125-.2031-2-.7343z" fill="url(#F)"/><path d="m2.93896 24.3593c-.775-.425-1.2539-.4219-1.44531-.4219v5.9375h27.88285v-5.9375c-1.5625 0-2.2149 1.1562-3.5313 1.1562s-2.1875-1.1562-3.5469-1.1562c-1.1171 0-2.2421 1.1562-3.5078 1.1562-.9726 0-2.2031-1.1562-3.3906-1.1562-1.2578 0-2.2617 1.1562-3.3984 1.1562-.5586 0-.836-.1015-1.5391-.4375-.70312-.3359-1.32422-.7031-1.98047-.7031-.65363 0-1.31114.3333-1.87989.6215l-.00683.0035c-.57031.2891-1.03125.5156-1.65625.5156s-1.03125-.2031-2-.7343z" fill="url(#G)"/><path d="m2.93896 24.3593c-.775-.425-1.2539-.4219-1.44531-.4219v5.9375h27.88285v-5.9375c-1.5625 0-2.2149 1.1562-3.5313 1.1562s-2.1875-1.1562-3.5469-1.1562c-1.1171 0-2.2421 1.1562-3.5078 1.1562-.9726 0-2.2031-1.1562-3.3906-1.1562-1.2578 0-2.2617 1.1562-3.3984 1.1562-.5586 0-.836-.1015-1.5391-.4375-.70312-.3359-1.32422-.7031-1.98047-.7031-.65363 0-1.31114.3333-1.87989.6215l-.00683.0035c-.57031.2891-1.03125.5156-1.65625.5156s-1.03125-.2031-2-.7343z" fill="url(#H)"/></g><g filter="url(#i)"><path d="m15.939 13.6952c-.7125-.3313-1.4427-.9662-1.7188-1.2422l1.2813-1.1914c1.1562 1.1094 2.3749 1.2782 2.6836 1.3516.3945.0937 1.5377.3007 2.1679.7304.5157.3516.3789.9922.0703 1.2657-.2538.2249-.6757.3359-1.0117.2031-.3359-.1328-.5586-.2696-1.2265-.3985-.5034-.0971-1.3555-.3046-2.2461-.7187z" fill="#ffd839"/></g><g filter="url(#j)"><path d="m12.4389 10.9842c.6.7188 1.3334 1.5547 1.625 1.8828l1.6563-1.4843c-.3308-.3959-1.1172-1.3032-1.6172-1.76565-.625-.57813-1.2695-.19141-1.4688 0-.1724.16567-.6718.68745-.1953 1.36715z" fill="url(#I)"/></g><path d="m16.349 7.3915.1158.06226.5704-.28906c-.2794-.15998-.5432-.12703-.7224.02507-.0676.05738-.0419.15976.0362.20173z" fill="url(#K)"/><path d="m17.0804 7.69362c.0473.01268.0983-.02642.1236-.08297 0 0 0 0 .0026-.00985.066-.24619-.0956-.4373-.2942-.49053-.1892-.0507-.4342.0314-.5002.27759 0 0 0 0-.0026.00985-.0159.05909.0088.11847.0655.13368z" fill="#fff"/><path d="m17.1551 7.71428c.0204-.0368.0382-.06374.0514-.11303.0476-.17748-.0213-.35444-.1691-.39408-.1381-.037-.296.07918-.3436.25665-.0106.03944-.0113.08152-.012.1236z" fill="url(#L)"/><path d="m17.0761 7.69257c.0303-.03412.0507-.07087.0612-.11026.0264-.09848-.0187-.20558-.0975-.2267s-.1689.03919-.1979.14751c-.0105.03939-.0113.08142-.0021.12609z" fill="url(#M)"/><path d="m16.9801 7.32162c.0164-.03663.0695-.0485.1185-.0265.0491.02199.0755.06952.0591.10615-.0165.03663-.0695.04849-.1186.02649-.049-.02199-.0754-.06951-.059-.10614z" fill="#fff"/><g filter="url(#k)"><path d="m13.0343 6.69614.0003-.00021c.3321-.22656.4181-.4414.5157-1.09375.2188-1.09375.5422-1.30591.9685-1.54687.4492-.25391 1.1953-.1875 1.7034.19531.5576.42014.6676.34123 1.3474.36328.7224.02344.9726.4961.9883.91016.0156.41406-.2063.98051-.9336 1.03125-.8341.05819-.875-.6875-1.574-.53125-.5963.1333-.7268 1.3164-.9765 1.79687-.1586.30509-.299 1.01294-1.1644 1.21094-.9219.21094-1.6795-.5625-1.5545-1.32813.0999-.61229.3824-.80501.6794-1.0076z" fill="url(#N)"/></g></svg>