<svg enable-background="new 0 0 128 128" viewBox="0 0 128 128" xmlns="http://www.w3.org/2000/svg"><g transform="scale(4)"><path d="m13 14.75c0 .9665-.7835 1.75-1.75 1.75s-1.75-.7835-1.75-1.75.7835-1.75 1.75-1.75 1.75.7835 1.75 1.75z" fill="#4e3233"/><path d="m22.5 14.75c0 .9665-.7835 1.75-1.75 1.75s-1.75-.7835-1.75-1.75.7835-1.75 1.75-1.75 1.75.7835 1.75 1.75z" fill="#4e3233"/><path d="m24 30-.0965-7.0676c-2.09-1.8979-4.9968-2.9324-7.991-2.9324-3.0148 0-5.8135 1.064-7.9125 2.8531v7.1469z" fill="#0092e7"/><path d="m26.8735 27.2955c.2829.88.485 1.79.6265 2.71h-3.7592v-7.61c1.4248 1.3 2.5263 2.98 3.1327 4.9z" fill="#3bc6f6"/><path d="m8.23901 22.4258v7.58h-3.73901c.14148-.9.35369-1.8.63664-2.67l.03032-.09c.59622-1.89 1.6775-3.53 3.07205-4.82z" fill="#3bc6f6"/><g fill="#fcd53f"><path d="m7.5 22v2.477c0 .1326.05268.2598.14645.3536.09376.0937.22094.1464.35355.1464s.25979-.0527.35355-.1464c.08833-.0884.1402-.2063.14592-.3306 0 .0594.01059.1184.03134.1742.02342.0631.05931.1207.10552.1695s.10179.0878.16341.1147c.06163.0269.12804.041.19526.0416.06762-.0008.13442-.015.19651-.0417.0621-.0268.11826-.0657.16523-.1143.04698-.0487.08383-.1062.10842-.1691.02204-.0565.03384-.1164.0349-.1769.00295.128.05355.2505.14233.3434.09363.0979.22216.1549.35761.1586.0673-.0012.1337-.0157.1953-.0426.0616-.027.1173-.066.1638-.1146s.0829-.106.1071-.1688c.0225-.0584.034-.1205.034-.183.0036.1275.0558.2491.1462.3396.0938.0937.221.1464.3536.1464s.2598-.0527.3536-.1464c.0883-.0884.1401-.2063.1459-.3306 0 .0594.0106.1184.0313.1742.0234.0631.0593.1207.1055.1695s.1018.0878.1634.1147c.0617.0269.1281.041.1953.0416.0676-.0008.1344-.015.1965-.0417.0621-.0268.1183-.0657.1652-.1143.047-.0487.0839-.1062.1085-.1691.0245-.063.0364-.1303.0348-.1979v-2.477z"/><path d="m19.5 22v2.477c0 .1326.0527.2598.1464.3536.0938.0937.221.1464.3536.1464s.2598-.0527.3536-.1464c.0883-.0884.1401-.2063.1459-.3306 0 .0594.0106.1184.0313.1742.0234.0631.0593.1207.1055.1695s.1018.0878.1634.1147c.0617.0269.1281.041.1953.0416.0676-.0008.1344-.015.1965-.0417.0621-.0268.1183-.0657.1652-.1143.047-.0487.0839-.1062.1085-.1691.022-.0565.0338-.1164.0349-.1769.0029.128.0535.2505.1423.3434.0936.0979.2221.1549.3576.1586.0673-.0012.1337-.0157.1953-.0426.0616-.027.1173-.066.1638-.1146s.0829-.106.1071-.1688c.0225-.0584.034-.1205.034-.183.0036.1275.0558.2491.1462.3396.0938.0937.221.1464.3536.1464s.2598-.0527.3536-.1464c.0883-.0884.1401-.2063.1459-.3306 0 .0594.0106.1184.0313.1742.0234.0631.0593.1207.1055.1695s.1018.0878.1634.1147c.0617.0269.1281.041.1953.0416.0676-.0008.1344-.015.1965-.0417.0621-.0268.1183-.0657.1652-.1143.047-.0487.0839-.1062.1085-.1691.0246-.063.0364-.1303.0348-.1979v-2.477z"/><path d="m15.5 22.8257h1v7.16h-1z"/></g><path d="m7 20.75c0-.4142.33579-.75.75-.75h16.5c.4142 0 .75.3358.75.75v1c0 .4142-.3358.75-.75.75h-4.5c-.1828 0-.3503-.0654-.4805-.1741-.7255 1.0235-1.9225 1.6743-3.2745 1.6743-1.3502 0-2.5459-.6491-3.2694-1.6702-.1294.1062-.2951.17-.4756.17h-4.5c-.41421 0-.75-.3358-.75-.75z" fill="#fff478"/><path d="m18 25.5c0 .2761-.2239.5-.5.5s-.5-.2239-.5-.5.2239-.5.5-.5.5.2239.5.5z" fill="#fff478"/><path d="m18 28.5c0 .2761-.2239.5-.5.5s-.5-.2239-.5-.5.2239-.5.5-.5.5.2239.5.5z" fill="#fff478"/><path d="m16 22.5c-1.1071 0-2-.8086-2-1.8113v-1.1887h4v1.1887c0 1.0027-.8929 1.8113-2 1.8113z" fill="#452829"/><path d="m10.5 11.9.346 5.4735c.2747 2.0722 2.0555 3.6264 4.1517 3.6264h1.0074 1.0074c2.0962 0 3.8668-1.544 4.1517-3.6264l.3358-5.4736z" fill="#573739"/><path d="m12.0096 14.39c.158-.66.7507-1.14 1.4421-1.14.7309 0 1.3334.52 1.4618 1.22.0296.15-.0988.29-.2469.29h-2.3706c-.1876 0-.3358-.18-.2864-.37z" fill="#fff"/><path d="m19.9904 14.39c-.158-.66-.7507-1.14-1.4421-1.14-.721 0-1.3235.52-1.4618 1.22-.0296.15.0988.29.2469.29h2.3706c.1876 0 .3358-.18.2864-.37z" fill="#fff"/><path d="m12.7307 14.5c0-.53.4247-.96.9482-.96s.9482.43.9482.97c0 .08-.0098.17-.0197.25h-1.8372c-.0296-.09-.0395-.17-.0395-.26z" fill="#7d4533"/><path d="m19.2792 14.5c0-.53-.4247-.96-.9482-.96-.5334 0-.9581.43-.968.96 0 .09.0198.18.0395.26h1.8372c.0296-.09.0395-.17.0395-.26z" fill="#7d4533"/><path d="m13.6789 13.9502c.2963 0 .5432.25.5432.55 0 .09-.0296.17-.0691.26h-.9581c-.0395-.08-.0593-.17-.0593-.26 0-.3.247-.55.5433-.55z"/><path d="m18.331 13.9502c-.2963 0-.5432.25-.5432.55 0 .09.0198.17.0691.26h.9581c.0395-.08.0593-.17.0593-.26 0-.3-.2469-.55-.5433-.55z"/><path d="m13.5208 14.1202c0 .0939-.0752.17-.168.17-.0927 0-.1679-.0761-.1679-.17s.0752-.17.1679-.17c.0928 0 .168.0761.168.17z" fill="#fff"/><path d="m18.2026 14.1202c0 .0939-.0752.17-.1679.17-.0928 0-.1679-.0761-.1679-.17s.0751-.17.1679-.17c.0927 0 .1679.0761.1679.17z" fill="#fff"/><path d="m15.5908 14.2439-.5658 1.7476c-.1111.3592.1617.7185.5557.7185h.8386c.394 0 .6668-.3593.5557-.7185l-.5658-1.7476c-.1313-.3786-.6972-.3786-.8184 0z" fill="#3d2123"/><path d="m16.0019 17.9068c-.5517 0-1.0744-.1422-1.51-.386-.1451-.0813-.3097.0914-.2129.2438.3678.5892 1.0066.9854 1.7229.9854.7259 0 1.3647-.3962 1.7229-.9854.0871-.1524-.0678-.3251-.213-.2438-.4355.2438-.9582.386-1.5099.386z" fill="#290118"/><path d="m10.75 9.5c0 .41421-.3358.75-.75.75-.41421 0-.75-.33579-.75-.75s.33579-.75.75-.75c.4142 0 .75.33579.75.75z" fill="#37c9cd"/><path d="m22.75 9.5c0 .41421-.3358.75-.75.75s-.75-.33579-.75-.75.3358-.75.75-.75.75.33579.75.75z" fill="#37c9cd"/><path d="m19.9626 7.49755c.2383.22892.5065.42798.8044.57727l.3774 2.28918.3556 1.636s.2306 1 .1609 1.4196c-.0698.4195-.3079.5175-.6059.5374 0 0 .0497-.8559.0894-1.4133.0199-.2886-.0894-.5673-.3078-.7564l-.1987-.1692c-.2483-.219-.3873-.5375-.3873-.8759v-.85594c0-.24882-.1589-.45783-.3972-.51755-.6257-.15925-1.9764-.42798-3.8534-.42798s-3.2277.26873-3.8534.41803c-.2284.05971-.3972.27868-.3972.51755v.85599c0 .3384-.149.6569-.3973.8858l-.1788.1592c-.2085.1891-.3277.4678-.3078.7565.0397.5573.0993 1.4232.0993 1.4232-.3079-.0099-.5661-.2289-.6257-.5374-.0596-.3086.1609-1.4196.1609-1.4196l.4648-1.636.2681-2.28918c.298-.14929.5661-.3384.7945-.57727l1.0031-.9953c.5661-.56732 1.4301-.70666 2.1452-.34835.5363.1891 1.1123.1891 1.6387 0 .9335-.41803 1.7181-.07963 2.3338.5275z"/><path d="m12.11 5.34557-1.11 2.56 3.43-.4-1.65-2.24c.19-.13.31-.34.31-.59 0-.4-.32-.72-.72-.72s-.72.32-.72.72c0 .31.19.56.46.67z" fill="#f9c23c"/><path d="m19.8199 5.34557 1.11 2.56-3.43-.4 1.65-2.24c-.19-.13-.31-.34-.31-.59 0-.4.32-.72.72-.72s.72.32.72.72c0 .31-.19.56-.46.67z" fill="#f9c23c"/><path d="m23.4983 5.16429c.0308-.44006-.3697-.8019-.832-.74322-.3287.03912-.5957.29338-.6368.60631-.0206.17603.0205.34228.1232.47919-.1129 0-.2362.02934-.3492.09779l-2.116 1.29086c-.2773.16625-.6471.10758-.8422-.14668l-2.342-3.03158c-.0205-.01955-.0411-.04889-.0616-.06845.3082-.16625.5136-.48896.4725-.8508-.0411-.41073-.3801-.74322-.8115-.79212-.5546-.05867-1.0271.35206-1.0271.87036 0 .33249.1951.62587.4827.77256-.0205.01956-.041.03912-.0616.06845l-2.3419 3.03158c-.1952.25426-.565.32271-.8423.14668l-2.116-1.29086c-.113-.06845-.23622-.09779-.3492-.09779.09244-.13691.1438-.30316.12326-.47919-.04109-.31293-.30815-.56719-.63685-.60631-.47249-.05868-.86282.30316-.832.74322.02054.24449.18489.45963.41086.57698.14381.06846.27734.08801.4006.07824-.0719.10757-.09245.25426-.06163.40094l1.18106 5.67995c.0121.058.0632.0996.1224.0996h2.2505 3.1945 3.1945 2.2505c.0593 0 .1104-.0416.1224-.0996l1.1811-5.67995c.0308-.14668 0-.29337-.0616-.40094.1232.00977.2568 0 .4006-.06846.2259-.11735.3903-.33249.4108-.58676z" fill="#ffb02e"/><path d="m16 10.627c.6904 0 1.25-.5466 1.25-1.22075 0-.67418-.5596-1.2207-1.25-1.2207s-1.25.54652-1.25 1.2207c0 .67415.5596 1.22075 1.25 1.22075z" fill="#00d1ed"/><path d="m13.5 9.5c0 .41421-.3358.75-.75.75s-.75-.33579-.75-.75.3358-.75.75-.75.75.33579.75.75z" fill="#f92f60"/><path d="m20 9.5c0 .41421-.3358.75-.75.75s-.75-.33579-.75-.75.3358-.75.75-.75.75.33579.75.75z" fill="#f92f60"/></g></svg>