<svg fill="none" height="32" viewBox="0 0 32 32" width="32" xmlns="http://www.w3.org/2000/svg" xmlns:xlink="http://www.w3.org/1999/xlink"><filter id="a" color-interpolation-filters="sRGB" filterUnits="userSpaceOnUse" height="12.25" width="4.97418" x="5.80579" y="17.8899"><feFlood flood-opacity="0" result="BackgroundImageFix"/><feBlend in="SourceGraphic" in2="BackgroundImageFix" mode="normal" result="shape"/><feColorMatrix in="SourceAlpha" result="hardAlpha" type="matrix" values="0 0 0 0 0 0 0 0 0 0 0 0 0 0 0 0 0 0 127 0"/><feOffset dx=".25" dy="-.25"/><feGaussianBlur stdDeviation=".125"/><feComposite in2="hardAlpha" k2="-1" k3="1" operator="arithmetic"/><feColorMatrix type="matrix" values="0 0 0 0 0.854167 0 0 0 0 0.599194 0 0 0 0 0.40217 0 0 0 0.5 0"/><feBlend in2="shape" mode="normal" result="effect1_innerShadow_28327_1801"/></filter><filter id="b" color-interpolation-filters="sRGB" filterUnits="userSpaceOnUse" height="4.09375" width="3.34375" x="12.9731" y="11.5662"><feFlood flood-opacity="0" result="BackgroundImageFix"/><feBlend in="SourceGraphic" in2="BackgroundImageFix" mode="normal" result="shape"/><feGaussianBlur result="effect1_foregroundBlur_28327_1801" stdDeviation=".5"/></filter><filter id="c" color-interpolation-filters="sRGB" filterUnits="userSpaceOnUse" height="11.3125" width="3.60522" x="11.53" y="6.11499"><feFlood flood-opacity="0" result="BackgroundImageFix"/><feBlend in="SourceGraphic" in2="BackgroundImageFix" mode="normal" result="shape"/><feGaussianBlur result="effect1_foregroundBlur_28327_1801" stdDeviation=".5"/></filter><filter id="d" color-interpolation-filters="sRGB" filterUnits="userSpaceOnUse" height="12.2649" width="5.1806" x="24.5231" y="16.0332"><feFlood flood-opacity="0" result="BackgroundImageFix"/><feBlend in="SourceGraphic" in2="BackgroundImageFix" mode="normal" result="shape"/><feGaussianBlur result="effect1_foregroundBlur_28327_1801" stdDeviation=".5"/></filter><filter id="e" color-interpolation-filters="sRGB" filterUnits="userSpaceOnUse" height="7.12813" width="2.55586" x="11.9794" y="3.32437"><feFlood flood-opacity="0" result="BackgroundImageFix"/><feBlend in="SourceGraphic" in2="BackgroundImageFix" mode="normal" result="shape"/><feGaussianBlur result="effect1_foregroundBlur_28327_1801" stdDeviation=".2"/></filter><filter id="f" color-interpolation-filters="sRGB" filterUnits="userSpaceOnUse" height="6.42261" width="6.16595" x="17.1212" y="22.7473"><feFlood flood-opacity="0" result="BackgroundImageFix"/><feBlend in="SourceGraphic" in2="BackgroundImageFix" mode="normal" result="shape"/><feGaussianBlur result="effect1_foregroundBlur_28327_1801" stdDeviation=".5"/></filter><linearGradient id="g" gradientUnits="userSpaceOnUse" x1="22.3325" x2="27.8325" y1="28.7399" y2="21.2399"><stop offset="0" stop-color="#63332a"/><stop offset="1" stop-color="#9c634d"/></linearGradient><radialGradient id="h" cx="0" cy="0" gradientTransform="matrix(2.48437888 .27993143 -.82311888 7.30514313 25.0825 22.6006)" gradientUnits="userSpaceOnUse" r="1"><stop offset="0" stop-color="#914135"/><stop offset="1" stop-color="#914135" stop-opacity="0"/></radialGradient><linearGradient id="i" gradientUnits="userSpaceOnUse" x1="31.8529" x2="27.4112" y1="29.1305" y2="22.3586"><stop offset="0" stop-color="#793875"/><stop offset="1" stop-color="#793875" stop-opacity="0"/></linearGradient><linearGradient id="j" gradientUnits="userSpaceOnUse" x1="24.8325" x2="24.145" y1="9.05233" y2="8.83358"><stop offset="0" stop-color="#229bff"/><stop offset="1" stop-color="#1e6ca5"/></linearGradient><linearGradient id="k" gradientUnits="userSpaceOnUse" x1="22.1763" x2="29.0513" y1="13.8883" y2="13.8883"><stop offset="0" stop-color="#01a6f0"/><stop offset="1" stop-color="#01a6f0" stop-opacity="0"/></linearGradient><linearGradient id="l" gradientUnits="userSpaceOnUse" x1="21.2075" x2="21.2075" y1="14.9898" y2="12.9742"><stop offset="0" stop-color="#1e6ca5"/><stop offset=".651163" stop-color="#1e6ca5" stop-opacity="0"/></linearGradient><linearGradient id="m" gradientUnits="userSpaceOnUse" x1="26.645" x2="25.7075" y1="7.67733" y2="7.36483"><stop offset="0" stop-color="#75c6ff"/><stop offset="1" stop-color="#53b7ff" stop-opacity="0"/></linearGradient><linearGradient id="n" gradientUnits="userSpaceOnUse" x1="6.95749" x2="10.27" y1="24.8648" y2="23.3961"><stop offset="0" stop-color="#d29169"/><stop offset="1" stop-color="#cd6a3d"/></linearGradient><linearGradient id="o" gradientUnits="userSpaceOnUse" x1="8.51999" x2="10.53" y1="24.9273" y2="25.8023"><stop offset="0" stop-color="#cd6a3d" stop-opacity="0"/><stop offset="1" stop-color="#cd6a3d"/></linearGradient><linearGradient id="p"><stop offset="0" stop-color="#ef74e3"/><stop offset="1" stop-color="#eb8d98" stop-opacity="0"/></linearGradient><linearGradient id="q" gradientUnits="userSpaceOnUse" x1="8.075" x2="8.075" xlink:href="#p" y1="30.8565" y2="29.2086"/><linearGradient id="r" gradientUnits="userSpaceOnUse" x1="18.5825" x2="9.645" y1="18.9899" y2="30.14"><stop offset=".288499" stop-color="#eead71"/><stop offset="1" stop-color="#d38c84"/></linearGradient><radialGradient id="s" cx="0" cy="0" gradientTransform="matrix(9.06248353 14.58756525 -25.02924276 15.54934606 13.0825 15.5524)" gradientUnits="userSpaceOnUse" r="1"><stop offset=".77868" stop-color="#ef9766" stop-opacity="0"/><stop offset="1" stop-color="#ef9766"/></radialGradient><linearGradient id="t" gradientUnits="userSpaceOnUse" x1="13.525" x2="13.525" xlink:href="#p" y1="30.8024" y2="29.7087"/><linearGradient id="u"><stop offset="0" stop-color="#c67040"/><stop offset="1" stop-color="#c67040" stop-opacity="0"/></linearGradient><radialGradient id="v" cx="0" cy="0" gradientTransform="matrix(-3.46870465 -5.56253095 4.45002136 -2.7749616 16.145 25.0524)" gradientUnits="userSpaceOnUse" r="1" xlink:href="#u"/><linearGradient id="w"><stop offset="0" stop-color="#e07b42"/><stop offset="1" stop-color="#e07b42" stop-opacity="0"/></linearGradient><radialGradient id="x" cx="0" cy="0" gradientTransform="matrix(1.53124826 1.96874661 -1.4253093 1.10857455 10.6919 4.73991)" gradientUnits="userSpaceOnUse" r="1" xlink:href="#w"/><linearGradient id="y" gradientUnits="userSpaceOnUse" x1="25.8325" x2="23.4575" xlink:href="#w" y1="22.2399" y2="22.2399"/><linearGradient id="z" gradientUnits="userSpaceOnUse" x1="20.02" x2="19.3325" y1="32.9274" y2="28.3649"><stop offset="0" stop-color="#d23ac3"/><stop offset="1" stop-color="#d23ac3" stop-opacity="0"/></linearGradient><linearGradient id="A"><stop offset="0" stop-color="#e966dc"/><stop offset=".967241" stop-color="#d23ac3" stop-opacity="0"/></linearGradient><radialGradient id="B" cx="0" cy="0" gradientTransform="matrix(-2.00002032 -3.43748289 2.80360682 -1.63121412 15.895 26.3649)" gradientUnits="userSpaceOnUse" r="1" xlink:href="#A"/><linearGradient id="C"><stop offset="0" stop-color="#d49177"/><stop offset="1" stop-color="#d49177" stop-opacity="0"/></linearGradient><radialGradient id="D" cx="0" cy="0" gradientTransform="matrix(6.93750527 -2.8125022 4.88747271 12.05576576 5.3325 23.9899)" gradientUnits="userSpaceOnUse" r="1" xlink:href="#C"/><radialGradient id="E" cx="0" cy="0" gradientTransform="matrix(3.50000266 -1.90625105 1.63903296 3.00937262 6.77 22.7399)" gradientUnits="userSpaceOnUse" r="1" xlink:href="#A"/><radialGradient id="F" cx="0" cy="0" gradientTransform="matrix(3.03125009 -3.46874536 2.33083236 2.03685629 4.27 16.0524)" gradientUnits="userSpaceOnUse" r="1"><stop offset="0" stop-color="#ec52dc"/><stop offset=".967241" stop-color="#d23ac3" stop-opacity="0"/></radialGradient><radialGradient id="G" cx="0" cy="0" gradientTransform="matrix(5.12500361 3.87499749 -6.73381871 8.90603035 4.895 6.92741)" gradientUnits="userSpaceOnUse" r="1" xlink:href="#C"/><linearGradient id="H" gradientUnits="userSpaceOnUse" x1="13.8325" x2="13.3538" y1="15.1775" y2="7.64251"><stop offset="0" stop-color="#f4d4a3" stop-opacity=".5"/><stop offset="1" stop-color="#ffc38b" stop-opacity="0"/></linearGradient><linearGradient id="I" gradientUnits="userSpaceOnUse" x1="17.03" x2="17.03" y1="32.0523" y2="23.8648"><stop offset="0" stop-color="#f3a250"/><stop offset="1" stop-color="#f3a372"/></linearGradient><radialGradient id="J" cx="0" cy="0" gradientTransform="matrix(2.99999645 -5.68749698 4.00842227 2.11433124 15.02 31.4898)" gradientUnits="userSpaceOnUse" r="1" xlink:href="#u"/><radialGradient id="K" cx="0" cy="0" gradientTransform="matrix(6.3749966 -3.05631579 5.678318 11.84408302 12.0825 30.1399)" gradientUnits="userSpaceOnUse" r="1"><stop offset="0" stop-color="#f0b392"/><stop offset="1" stop-color="#f0b392" stop-opacity="0"/></radialGradient><linearGradient id="L" gradientUnits="userSpaceOnUse" x1="17.03" x2="17.03" y1="30.8023" y2="28.2398"><stop offset="0" stop-color="#eb64dd"/><stop offset="1" stop-color="#eb8d98" stop-opacity="0"/></linearGradient><radialGradient id="M" cx="0" cy="0" gradientTransform="matrix(12.59376123 .0312505 -.02013997 8.11628501 11.145 27.0523)" gradientUnits="userSpaceOnUse" r="1"><stop offset=".838235" stop-color="#cd6a3d" stop-opacity="0"/><stop offset="1" stop-color="#cd6a3d"/></radialGradient><linearGradient id="N" gradientUnits="userSpaceOnUse" x1="12.53" x2="7.40283" y1="16.1399" y2="16.1399"><stop offset="0" stop-color="#626067"/><stop offset="1" stop-color="#605d65"/></linearGradient><linearGradient id="O"><stop offset="0" stop-color="#5e4a66"/><stop offset="1" stop-color="#5e4a66" stop-opacity="0"/></linearGradient><linearGradient id="P" gradientUnits="userSpaceOnUse" x1="9.96643" x2="9.96643" xlink:href="#O" y1="18.3336" y2="17.7555"/><linearGradient id="Q" gradientUnits="userSpaceOnUse" x1="13.6294" x2="12.145" xlink:href="#O" y1="17.7555" y2="17.7555"/><radialGradient id="R" cx="0" cy="0" gradientTransform="matrix(-10.75 0 0 -10.5461 22.5825 18.5149)" gradientUnits="userSpaceOnUse" r="1"><stop offset="0" stop-color="#ff6064"/><stop offset="1" stop-color="#fb3252"/></radialGradient><linearGradient id="S"><stop offset="0" stop-color="#8a898d"/><stop offset="1" stop-color="#79787d" stop-opacity="0"/></linearGradient><radialGradient id="T" cx="0" cy="0" gradientTransform="matrix(-1.33376352 3.31249392 -8.99696921 -3.62259662 20.8638 15.5211)" gradientUnits="userSpaceOnUse" r="1" xlink:href="#S"/><linearGradient id="U" gradientUnits="userSpaceOnUse" x1="18.472" x2="18.472" xlink:href="#O" y1="22.4273" y2="21.568"/><linearGradient id="V" gradientUnits="userSpaceOnUse" x1="12.3325" x2="12.9888" xlink:href="#O" y1="21.568" y2="21.568"/><radialGradient id="W" cx="0" cy="0" gradientTransform="matrix(-2.68750518 2.5312487 -4.88385023 -5.18533512 16.0513 13.5211)" gradientUnits="userSpaceOnUse" r="1" xlink:href="#S"/><radialGradient id="X" cx="0" cy="0" gradientTransform="matrix(-4.46875008 1.87500303 -3.25038907 -7.74674822 24.7388 19.8961)" gradientUnits="userSpaceOnUse" r="1" xlink:href="#S"/><linearGradient id="Y" gradientUnits="userSpaceOnUse" x1="4.5265" x2="4.5265" y1="9.13989" y2="14.4407"><stop offset="0" stop-color="#a4745f"/><stop offset="1" stop-color="#63332a"/></linearGradient><radialGradient id="Z" cx="0" cy="0" gradientTransform="matrix(0 4.01685 -8.11095 0 5.85919 10.9259)" gradientUnits="userSpaceOnUse" r="1"><stop offset=".365385" stop-color="#793875" stop-opacity="0"/><stop offset="1" stop-color="#793875"/></radialGradient><linearGradient id="aa"><stop offset=".225" stop-color="#6b5e60"/><stop offset="1" stop-color="#433338"/></linearGradient><linearGradient id="ab" gradientUnits="userSpaceOnUse" x1="4.2177" x2="3.05899" xlink:href="#aa" y1="9.61272" y2="9.88989"/><linearGradient id="ac"><stop offset="0" stop-color="#552d52"/><stop offset="1" stop-color="#552d52" stop-opacity="0"/></linearGradient><linearGradient id="ad" gradientUnits="userSpaceOnUse" x1="4.83252" x2="4.83252" xlink:href="#ac" y1="10.9023" y2="9.63672"/><linearGradient id="ae" gradientUnits="userSpaceOnUse" x1="9.37939" x2="8.75439" xlink:href="#aa" y1="10.1399" y2="10.1399"/><linearGradient id="af" gradientUnits="userSpaceOnUse" x1="9.67627" x2="9.67627" xlink:href="#ac" y1="11.4898" y2="9.80233"/><linearGradient id="ag" gradientUnits="userSpaceOnUse" x1="27.1134" x2="30.1182" y1="17.6852" y2="24.8411"><stop offset="0" stop-color="#fadcaf"/><stop offset="1" stop-color="#ffdeab" stop-opacity="0"/></linearGradient><linearGradient id="ah" gradientUnits="userSpaceOnUse" x1="13.7075" x2="13.9144" y1="3.17749" y2="8.41933"><stop offset="0" stop-color="#f4d4a3"/><stop offset="1" stop-color="#ffc38b" stop-opacity="0"/></linearGradient><radialGradient id="ai" cx="0" cy="0" gradientTransform="matrix(-2.44461705 2.5849293 -1.99711347 -1.88870838 21.4184 26.2464)" gradientUnits="userSpaceOnUse" r="1"><stop offset="0" stop-color="#ffbf7a"/><stop offset="1" stop-color="#ffbf7a" stop-opacity="0"/></radialGradient><path d="m24.53 16.77c0 1.16.42 2.27 1.15 3.17.56.69.89 1.59.84 2.56-.09 1.94-1.65 3.52-3.59 3.62-1.82.1-3.39-1.1-3.86-2.75h-3.07c.51 3.29 3.37 5.8 6.82 5.76 3.63-.05 6.61-2.99 6.7-6.62.07-2.84-1.59-5.29-4.01-6.38-.45-.2-.98.13-.98.64z" fill="url(#g)"/><path d="m24.53 16.77c0 1.16.42 2.27 1.15 3.17.56.69.89 1.59.84 2.56-.09 1.94-1.65 3.52-3.59 3.62-1.82.1-3.39-1.1-3.86-2.75h-3.07c.51 3.29 3.37 5.8 6.82 5.76 3.63-.05 6.61-2.99 6.7-6.62.07-2.84-1.59-5.29-4.01-6.38-.45-.2-.98.13-.98.64z" fill="url(#h)"/><path d="m24.53 16.77c0 1.16.42 2.27 1.15 3.17.56.69.89 1.59.84 2.56-.09 1.94-1.65 3.52-3.59 3.62-1.82.1-3.39-1.1-3.86-2.75h-3.07c.51 3.29 3.37 5.8 6.82 5.76 3.63-.05 6.61-2.99 6.7-6.62.07-2.84-1.59-5.29-4.01-6.38-.45-.2-.98.13-.98.64z" fill="url(#i)"/><path d="m26.57 2.13989-2.92 7.87001c-.68 1.88-2.49 3.15-4.49 3.15h-5.63v1.5h5.63c2.63 0 5-1.66 5.9-4.13l3.11-8.39001z" fill="url(#j)"/><path d="m26.57 2.13989-2.92 7.87001c-.68 1.88-2.49 3.15-4.49 3.15h-5.63v1.5h5.63c2.63 0 5-1.66 5.9-4.13l3.11-8.39001z" fill="url(#k)"/><path d="m26.57 2.13989-2.92 7.87001c-.68 1.88-2.49 3.15-4.49 3.15h-5.63v1.5h5.63c2.63 0 5-1.66 5.9-4.13l3.11-8.39001z" fill="url(#l)"/><path d="m26.57 2.13989-2.92 7.87001c-.68 1.88-2.49 3.15-4.49 3.15h-5.63v1.5h5.63c2.63 0 5-1.66 5.9-4.13l3.11-8.39001z" fill="url(#m)"/><g filter="url(#a)"><path d="m7.53 18.1399v5.81c0 .14-.02.28-.05.41l-1.64982 5.1268c-.10387.3228.13688.6532.47597.6532h2.31385l1.71-5.26c.13-.48.2-.99.2-1.49v-5.25z" fill="url(#n)"/><path d="m7.53 18.1399v5.81c0 .14-.02.28-.05.41l-1.64982 5.1268c-.10387.3228.13688.6532.47597.6532h2.31385l1.71-5.26c.13-.48.2-.99.2-1.49v-5.25z" fill="url(#o)"/></g><path d="m7.53 18.1399v5.81c0 .14-.02.28-.05.41l-1.64982 5.1268c-.10387.3228.13688.6532.47597.6532h2.31385l1.71-5.26c.13-.48.2-.99.2-1.49v-5.25z" fill="url(#q)"/><path d="m19.8 15.3-5.0757-3.0435c-.1205-.0723-.1943-.2025-.1943-.3431v-4.79342c0-1.57-.82-3.05-2.12-3.88-.38-.24-.88.05-.88.5l.0237 1.89375c.0035.27856-.2214.50625-.5.50625h-.9337c-1.01 0-1.95.51-2.5 1.35l-.81 1.23c-.17.26-.46.42-.78.42h-2.79c-.4 0-.72.32-.72.72v.27002c-.01 2.21 1.78 4.01 3.99 4.01h.61c.22 0 .41.18.41.4l.01 3.52c0 1.074.54945 2.0156 1.38444 2.5662.3477.2293.61556.5896.61556 1.0061v2.6677c0 .14-.02.28-.05.41l-1.64174 4.7672c-.11181.3246.12938.6628.47275.6628h1.94419c.2125 0 .4018-.1344.4719-.335l1.5929-4.555c.13-.48.2-.99.2-1.49v-.0977c0-.2315.2512-.3758.4512-.2591l2.5488 1.4868v5.25h4.86c2.29 0 4.14-1.85 4.14-4.14v-2.34c0-3.42-1.79-6.6-4.73-8.36z" fill="url(#r)"/><path d="m19.8 15.3-5.0757-3.0435c-.1205-.0723-.1943-.2025-.1943-.3431v-4.79342c0-1.57-.82-3.05-2.12-3.88-.38-.24-.88.05-.88.5l.0237 1.89375c.0035.27856-.2214.50625-.5.50625h-.9337c-1.01 0-1.95.51-2.5 1.35l-.81 1.23c-.17.26-.46.42-.78.42h-2.79c-.4 0-.72.32-.72.72v.27002c-.01 2.21 1.78 4.01 3.99 4.01h.61c.22 0 .41.18.41.4l.01 3.52c0 1.074.54945 2.0156 1.38444 2.5662.3477.2293.61556.5896.61556 1.0061v2.6677c0 .14-.02.28-.05.41l-1.64174 4.7672c-.11181.3246.12938.6628.47275.6628h1.94419c.2125 0 .4018-.1344.4719-.335l1.5929-4.555c.13-.48.2-.99.2-1.49v-.0977c0-.2315.2512-.3758.4512-.2591l2.5488 1.4868v5.25h4.86c2.29 0 4.14-1.85 4.14-4.14v-2.34c0-3.42-1.79-6.6-4.73-8.36z" fill="url(#s)"/><path d="m19.8 15.3-5.0757-3.0435c-.1205-.0723-.1943-.2025-.1943-.3431v-4.79342c0-1.57-.82-3.05-2.12-3.88-.38-.24-.88.05-.88.5l.0237 1.89375c.0035.27856-.2214.50625-.5.50625h-.9337c-1.01 0-1.95.51-2.5 1.35l-.81 1.23c-.17.26-.46.42-.78.42h-2.79c-.4 0-.72.32-.72.72v.27002c-.01 2.21 1.78 4.01 3.99 4.01h.61c.22 0 .41.18.41.4l.01 3.52c0 1.074.54945 2.0156 1.38444 2.5662.3477.2293.61556.5896.61556 1.0061v2.6677c0 .14-.02.28-.05.41l-1.64174 4.7672c-.11181.3246.12938.6628.47275.6628h1.94419c.2125 0 .4018-.1344.4719-.335l1.5929-4.555c.13-.48.2-.99.2-1.49v-.0977c0-.2315.2512-.3758.4512-.2591l2.5488 1.4868v5.25h4.86c2.29 0 4.14-1.85 4.14-4.14v-2.34c0-3.42-1.79-6.6-4.73-8.36z" fill="url(#t)"/><path d="m19.8 15.3-5.0757-3.0435c-.1205-.0723-.1943-.2025-.1943-.3431v-4.79342c0-1.57-.82-3.05-2.12-3.88-.38-.24-.88.05-.88.5l.0237 1.89375c.0035.27856-.2214.50625-.5.50625h-.9337c-1.01 0-1.95.51-2.5 1.35l-.81 1.23c-.17.26-.46.42-.78.42h-2.79c-.4 0-.72.32-.72.72v.27002c-.01 2.21 1.78 4.01 3.99 4.01h.61c.22 0 .41.18.41.4l.01 3.52c0 1.074.54945 2.0156 1.38444 2.5662.3477.2293.61556.5896.61556 1.0061v2.6677c0 .14-.02.28-.05.41l-1.64174 4.7672c-.11181.3246.12938.6628.47275.6628h1.94419c.2125 0 .4018-.1344.4719-.335l1.5929-4.555c.13-.48.2-.99.2-1.49v-.0977c0-.2315.2512-.3758.4512-.2591l2.5488 1.4868v5.25h4.86c2.29 0 4.14-1.85 4.14-4.14v-2.34c0-3.42-1.79-6.6-4.73-8.36z" fill="url(#v)"/><path d="m19.8 15.3-5.0757-3.0435c-.1205-.0723-.1943-.2025-.1943-.3431v-4.79342c0-1.57-.82-3.05-2.12-3.88-.38-.24-.88.05-.88.5l.0237 1.89375c.0035.27856-.2214.50625-.5.50625h-.9337c-1.01 0-1.95.51-2.5 1.35l-.81 1.23c-.17.26-.46.42-.78.42h-2.79c-.4 0-.72.32-.72.72v.27002c-.01 2.21 1.78 4.01 3.99 4.01h.61c.22 0 .41.18.41.4l.01 3.52c0 1.074.54945 2.0156 1.38444 2.5662.3477.2293.61556.5896.61556 1.0061v2.6677c0 .14-.02.28-.05.41l-1.64174 4.7672c-.11181.3246.12938.6628.47275.6628h1.94419c.2125 0 .4018-.1344.4719-.335l1.5929-4.555c.13-.48.2-.99.2-1.49v-.0977c0-.2315.2512-.3758.4512-.2591l2.5488 1.4868v5.25h4.86c2.29 0 4.14-1.85 4.14-4.14v-2.34c0-3.42-1.79-6.6-4.73-8.36z" fill="url(#x)"/><path d="m19.8 15.3-5.0757-3.0435c-.1205-.0723-.1943-.2025-.1943-.3431v-4.79342c0-1.57-.82-3.05-2.12-3.88-.38-.24-.88.05-.88.5l.0237 1.89375c.0035.27856-.2214.50625-.5.50625h-.9337c-1.01 0-1.95.51-2.5 1.35l-.81 1.23c-.17.26-.46.42-.78.42h-2.79c-.4 0-.72.32-.72.72v.27002c-.01 2.21 1.78 4.01 3.99 4.01h.61c.22 0 .41.18.41.4l.01 3.52c0 1.074.54945 2.0156 1.38444 2.5662.3477.2293.61556.5896.61556 1.0061v2.6677c0 .14-.02.28-.05.41l-1.64174 4.7672c-.11181.3246.12938.6628.47275.6628h1.94419c.2125 0 .4018-.1344.4719-.335l1.5929-4.555c.13-.48.2-.99.2-1.49v-.0977c0-.2315.2512-.3758.4512-.2591l2.5488 1.4868v5.25h4.86c2.29 0 4.14-1.85 4.14-4.14v-2.34c0-3.42-1.79-6.6-4.73-8.36z" fill="url(#y)"/><path d="m19.8 15.3-5.0757-3.0435c-.1205-.0723-.1943-.2025-.1943-.3431v-4.79342c0-1.57-.82-3.05-2.12-3.88-.38-.24-.88.05-.88.5l.0237 1.89375c.0035.27856-.2214.50625-.5.50625h-.9337c-1.01 0-1.95.51-2.5 1.35l-.81 1.23c-.17.26-.46.42-.78.42h-2.79c-.4 0-.72.32-.72.72v.27002c-.01 2.21 1.78 4.01 3.99 4.01h.61c.22 0 .41.18.41.4l.01 3.52c0 1.074.54945 2.0156 1.38444 2.5662.3477.2293.61556.5896.61556 1.0061v2.6677c0 .14-.02.28-.05.41l-1.64174 4.7672c-.11181.3246.12938.6628.47275.6628h1.94419c.2125 0 .4018-.1344.4719-.335l1.5929-4.555c.13-.48.2-.99.2-1.49v-.0977c0-.2315.2512-.3758.4512-.2591l2.5488 1.4868v5.25h4.86c2.29 0 4.14-1.85 4.14-4.14v-2.34c0-3.42-1.79-6.6-4.73-8.36z" fill="url(#z)"/><path d="m19.8 15.3-5.0757-3.0435c-.1205-.0723-.1943-.2025-.1943-.3431v-4.79342c0-1.57-.82-3.05-2.12-3.88-.38-.24-.88.05-.88.5l.0237 1.89375c.0035.27856-.2214.50625-.5.50625h-.9337c-1.01 0-1.95.51-2.5 1.35l-.81 1.23c-.17.26-.46.42-.78.42h-2.79c-.4 0-.72.32-.72.72v.27002c-.01 2.21 1.78 4.01 3.99 4.01h.61c.22 0 .41.18.41.4l.01 3.52c0 1.074.54945 2.0156 1.38444 2.5662.3477.2293.61556.5896.61556 1.0061v2.6677c0 .14-.02.28-.05.41l-1.64174 4.7672c-.11181.3246.12938.6628.47275.6628h1.94419c.2125 0 .4018-.1344.4719-.335l1.5929-4.555c.13-.48.2-.99.2-1.49v-.0977c0-.2315.2512-.3758.4512-.2591l2.5488 1.4868v5.25h4.86c2.29 0 4.14-1.85 4.14-4.14v-2.34c0-3.42-1.79-6.6-4.73-8.36z" fill="url(#B)"/><path d="m19.8 15.3-5.0757-3.0435c-.1205-.0723-.1943-.2025-.1943-.3431v-4.79342c0-1.57-.82-3.05-2.12-3.88-.38-.24-.88.05-.88.5l.0237 1.89375c.0035.27856-.2214.50625-.5.50625h-.9337c-1.01 0-1.95.51-2.5 1.35l-.81 1.23c-.17.26-.46.42-.78.42h-2.79c-.4 0-.72.32-.72.72v.27002c-.01 2.21 1.78 4.01 3.99 4.01h.61c.22 0 .41.18.41.4l.01 3.52c0 1.074.54945 2.0156 1.38444 2.5662.3477.2293.61556.5896.61556 1.0061v2.6677c0 .14-.02.28-.05.41l-1.64174 4.7672c-.11181.3246.12938.6628.47275.6628h1.94419c.2125 0 .4018-.1344.4719-.335l1.5929-4.555c.13-.48.2-.99.2-1.49v-.0977c0-.2315.2512-.3758.4512-.2591l2.5488 1.4868v5.25h4.86c2.29 0 4.14-1.85 4.14-4.14v-2.34c0-3.42-1.79-6.6-4.73-8.36z" fill="url(#D)"/><path d="m19.8 15.3-5.0757-3.0435c-.1205-.0723-.1943-.2025-.1943-.3431v-4.79342c0-1.57-.82-3.05-2.12-3.88-.38-.24-.88.05-.88.5l.0237 1.89375c.0035.27856-.2214.50625-.5.50625h-.9337c-1.01 0-1.95.51-2.5 1.35l-.81 1.23c-.17.26-.46.42-.78.42h-2.79c-.4 0-.72.32-.72.72v.27002c-.01 2.21 1.78 4.01 3.99 4.01h.61c.22 0 .41.18.41.4l.01 3.52c0 1.074.54945 2.0156 1.38444 2.5662.3477.2293.61556.5896.61556 1.0061v2.6677c0 .14-.02.28-.05.41l-1.64174 4.7672c-.11181.3246.12938.6628.47275.6628h1.94419c.2125 0 .4018-.1344.4719-.335l1.5929-4.555c.13-.48.2-.99.2-1.49v-.0977c0-.2315.2512-.3758.4512-.2591l2.5488 1.4868v5.25h4.86c2.29 0 4.14-1.85 4.14-4.14v-2.34c0-3.42-1.79-6.6-4.73-8.36z" fill="url(#E)"/><path d="m19.8 15.3-5.0757-3.0435c-.1205-.0723-.1943-.2025-.1943-.3431v-4.79342c0-1.57-.82-3.05-2.12-3.88-.38-.24-.88.05-.88.5l.0237 1.89375c.0035.27856-.2214.50625-.5.50625h-.9337c-1.01 0-1.95.51-2.5 1.35l-.81 1.23c-.17.26-.46.42-.78.42h-2.79c-.4 0-.72.32-.72.72v.27002c-.01 2.21 1.78 4.01 3.99 4.01h.61c.22 0 .41.18.41.4l.01 3.52c0 1.074.54945 2.0156 1.38444 2.5662.3477.2293.61556.5896.61556 1.0061v2.6677c0 .14-.02.28-.05.41l-1.64174 4.7672c-.11181.3246.12938.6628.47275.6628h1.94419c.2125 0 .4018-.1344.4719-.335l1.5929-4.555c.13-.48.2-.99.2-1.49v-.0977c0-.2315.2512-.3758.4512-.2591l2.5488 1.4868v5.25h4.86c2.29 0 4.14-1.85 4.14-4.14v-2.34c0-3.42-1.79-6.6-4.73-8.36z" fill="url(#F)"/><path d="m19.8 15.3-5.0757-3.0435c-.1205-.0723-.1943-.2025-.1943-.3431v-4.79342c0-1.57-.82-3.05-2.12-3.88-.38-.24-.88.05-.88.5l.0237 1.89375c.0035.27856-.2214.50625-.5.50625h-.9337c-1.01 0-1.95.51-2.5 1.35l-.81 1.23c-.17.26-.46.42-.78.42h-2.79c-.4 0-.72.32-.72.72v.27002c-.01 2.21 1.78 4.01 3.99 4.01h.61c.22 0 .41.18.41.4l.01 3.52c0 1.074.54945 2.0156 1.38444 2.5662.3477.2293.61556.5896.61556 1.0061v2.6677c0 .14-.02.28-.05.41l-1.64174 4.7672c-.11181.3246.12938.6628.47275.6628h1.94419c.2125 0 .4018-.1344.4719-.335l1.5929-4.555c.13-.48.2-.99.2-1.49v-.0977c0-.2315.2512-.3758.4512-.2591l2.5488 1.4868v5.25h4.86c2.29 0 4.14-1.85 4.14-4.14v-2.34c0-3.42-1.79-6.6-4.73-8.36z" fill="url(#G)"/><g filter="url(#b)"><path d="m13.9731 12.5662v1.9062l1.3438.1875v-1.3437z" fill="#d98126"/></g><g filter="url(#c)"><path d="m12.53 7.11499h1.60523v9.3125h-1.60523z" fill="url(#H)"/></g><path d="m19.03 23.1399h-1.66c-2.12 0-3.84 1.72-3.84 3.84v1.16c-.9293 0-1.716.6424-1.9376 1.5052-.0687.2674.1615.4948.4376.4948h5.5 1.5c1.93 0 3.5-1.57 3.5-3.5s-1.56-3.5-3.5-3.5z" fill="url(#I)"/><path d="m19.03 23.1399h-1.66c-2.12 0-3.84 1.72-3.84 3.84v1.16c-.9293 0-1.716.6424-1.9376 1.5052-.0687.2674.1615.4948.4376.4948h5.5 1.5c1.93 0 3.5-1.57 3.5-3.5s-1.56-3.5-3.5-3.5z" fill="url(#J)"/><path d="m19.03 23.1399h-1.66c-2.12 0-3.84 1.72-3.84 3.84v1.16c-.9293 0-1.716.6424-1.9376 1.5052-.0687.2674.1615.4948.4376.4948h5.5 1.5c1.93 0 3.5-1.57 3.5-3.5s-1.56-3.5-3.5-3.5z" fill="url(#K)"/><path d="m19.03 23.1399h-1.66c-2.12 0-3.84 1.72-3.84 3.84v1.16c-.9293 0-1.716.6424-1.9376 1.5052-.0687.2674.1615.4948.4376.4948h5.5 1.5c1.93 0 3.5-1.57 3.5-3.5s-1.56-3.5-3.5-3.5z" fill="url(#L)"/><path d="m19.03 23.1399h-1.66c-2.12 0-3.84 1.72-3.84 3.84v1.16c-.9293 0-1.716.6424-1.9376 1.5052-.0687.2674.1615.4948.4376.4948h5.5 1.5c1.93 0 3.5-1.57 3.5-3.5s-1.56-3.5-3.5-3.5z" fill="url(#M)"/><path d="m12.53 16.1399h-4.97717c-.08284 0-.15.0671-.15.15v1.7c0 .0828.06716.15.15.15h4.97717z" fill="url(#N)"/><path d="m12.53 16.1399h-4.97717c-.08284 0-.15.0671-.15.15v1.7c0 .0828.06716.15.15.15h4.97717z" fill="url(#P)"/><path d="m12.53 16.1399h-4.97717c-.08284 0-.15.0671-.15.15v1.7c0 .0828.06716.15.15.15h4.97717z" fill="url(#Q)"/><path d="m19.8 15.2999-4.9671-2.9784c-.1333-.0799-.3029.0161-.3029.1715v1.3369c0 .17-.14.31-.31.31h-.75c-.52 0-.94.42-.94.94v4.12c0 .52.42.94.94.94h.75c.17 0 .31.14.31.31v.75c0 .52.42.94.94.94h8.7064c.1228 0 .2167-.1096.1948-.2304-.493-2.7265-2.1395-5.1506-4.5712-6.6096z" fill="url(#R)"/><path d="m19.8 15.2999-.27-.16v7h1v-6.35c-.23-.18-.48-.34-.73-.49z" fill="#636363"/><path d="m19.8 15.2999-.27-.16v7h1v-6.35c-.23-.18-.48-.34-.73-.49z" fill="url(#T)"/><path d="m15.5339 21.1672-.0039-.695c0-.72-.59-1.31-1.31-1.31h-.69v-4.0223h.69c.72 0 1.31-.59 1.31-1.31v-1.09l-.6971-.4183c-.1333-.08-.3029.0161-.3029.1715v1.3368c0 .04-.01.08-.02.12-.03.07-.09.13-.17.17-.04.01-.08.02-.12.02h-.75c-.32 0-.61.16-.78.41-.1.15-.16.33-.16.52v4.1423c0 .19.06.37.16.52.17.25.45.41.78.41h.75c.04 0 .08.01.12.02.07.03.13.09.17.17.02.04.02.08.02.12l.0039.755c0 .19.06.37.16.52.17.25.45.41.78.41h8.7085c.122 0 .2158-.1084.1947-.2286-.0458-.2602-.1035-.5158-.1732-.7714h-8.67z" fill="#636363"/><path d="m15.5339 21.1672-.0039-.695c0-.72-.59-1.31-1.31-1.31h-.69v-4.0223h.69c.72 0 1.31-.59 1.31-1.31v-1.09l-.6971-.4183c-.1333-.08-.3029.0161-.3029.1715v1.3368c0 .04-.01.08-.02.12-.03.07-.09.13-.17.17-.04.01-.08.02-.12.02h-.75c-.32 0-.61.16-.78.41-.1.15-.16.33-.16.52v4.1423c0 .19.06.37.16.52.17.25.45.41.78.41h.75c.04 0 .08.01.12.02.07.03.13.09.17.17.02.04.02.08.02.12l.0039.755c0 .19.06.37.16.52.17.25.45.41.78.41h8.7085c.122 0 .2158-.1084.1947-.2286-.0458-.2602-.1035-.5158-.1732-.7714h-8.67z" fill="url(#U)"/><path d="m15.5339 21.1672-.0039-.695c0-.72-.59-1.31-1.31-1.31h-.69v-4.0223h.69c.72 0 1.31-.59 1.31-1.31v-1.09l-.6971-.4183c-.1333-.08-.3029.0161-.3029.1715v1.3368c0 .04-.01.08-.02.12-.03.07-.09.13-.17.17-.04.01-.08.02-.12.02h-.75c-.32 0-.61.16-.78.41-.1.15-.16.33-.16.52v4.1423c0 .19.06.37.16.52.17.25.45.41.78.41h.75c.04 0 .08.01.12.02.07.03.13.09.17.17.02.04.02.08.02.12l.0039.755c0 .19.06.37.16.52.17.25.45.41.78.41h8.7085c.122 0 .2158-.1084.1947-.2286-.0458-.2602-.1035-.5158-.1732-.7714h-8.67z" fill="url(#V)"/><path d="m15.5339 21.1672-.0039-.695c0-.72-.59-1.31-1.31-1.31h-.69v-4.0223h.69c.72 0 1.31-.59 1.31-1.31v-1.09l-.6971-.4183c-.1333-.08-.3029.0161-.3029.1715v1.3368c0 .04-.01.08-.02.12-.03.07-.09.13-.17.17-.04.01-.08.02-.12.02h-.75c-.32 0-.61.16-.78.41-.1.15-.16.33-.16.52v4.1423c0 .19.06.37.16.52.17.25.45.41.78.41h.75c.04 0 .08.01.12.02.07.03.13.09.17.17.02.04.02.08.02.12l.0039.755c0 .19.06.37.16.52.17.25.45.41.78.41h8.7085c.122 0 .2158-.1084.1947-.2286-.0458-.2602-.1035-.5158-.1732-.7714h-8.67z" fill="url(#W)"/><path d="m15.5339 21.1672-.0039-.695c0-.72-.59-1.31-1.31-1.31h-.69v-4.0223h.69c.72 0 1.31-.59 1.31-1.31v-1.09l-.6971-.4183c-.1333-.08-.3029.0161-.3029.1715v1.3368c0 .04-.01.08-.02.12-.03.07-.09.13-.17.17-.04.01-.08.02-.12.02h-.75c-.32 0-.61.16-.78.41-.1.15-.16.33-.16.52v4.1423c0 .19.06.37.16.52.17.25.45.41.78.41h.75c.04 0 .08.01.12.02.07.03.13.09.17.17.02.04.02.08.02.12l.0039.755c0 .19.06.37.16.52.17.25.45.41.78.41h8.7085c.122 0 .2158-.1084.1947-.2286-.0458-.2602-.1035-.5158-.1732-.7714h-8.67z" fill="url(#X)"/><path d="m16.03 18.28c.6296 0 1.14-.5104 1.14-1.14s-.5104-1.14-1.14-1.14-1.14.5104-1.14 1.14.5104 1.14 1.14 1.14z" fill="#ff939c"/><path d="m6.53 10.2099c0-.59001-.48-1.07001-1.06-1.07001h-2.24c-.39.01-.71.32-.71.72v.27001c-.01 2.21 1.78 4.01 3.99 4.01h.02z" fill="url(#Y)"/><path d="m6.53 10.2099c0-.59001-.48-1.07001-1.06-1.07001h-2.24c-.39.01-.71.32-.71.72v.27001c-.01 2.21 1.78 4.01 3.99 4.01h.02z" fill="url(#Z)"/><path d="m3.77002 10.6399h-.5c-.41 0-.75-.34-.75-.75001 0-.41.34-.75.75-.75h.5c.42 0 .75.34.75.75 0 .41001-.33.75001-.75.75001z" fill="url(#ab)"/><path d="m3.77002 10.6399h-.5c-.41 0-.75-.34-.75-.75001 0-.41.34-.75.75-.75h.5c.42 0 .75.34.75.75 0 .41001-.33.75001-.75.75001z" fill="url(#ad)"/><rect fill="url(#ae)" height="2" rx=".5" width="1" x="8.52002" y="9.13989"/><rect fill="url(#af)" height="2" rx=".5" width="1" x="8.52002" y="9.13989"/><g filter="url(#d)"><path d="m25.9435 17.1831c.7467.4506 2.3019 1.8617 2.5491 3.901.309 2.5491-.5407 4.7893-2.8195 6.0639" stroke="url(#ag)" stroke-linecap="round" stroke-width=".3"/></g><g filter="url(#e)"><path d="m12.3794 3.72437c.4734.13226 1.6023 1.25467 1.7285 3.66719.0104.19966.0195 2.48231.0274 2.66094h-1.0684c0-4.32813-.6875-6.32813-.6875-6.32813z" fill="url(#ah)"/></g><g filter="url(#f)"><ellipse cx="20.2041" cy="25.9586" fill="url(#ai)" rx="1.88381" ry="2.383" transform="matrix(.79314823 -.60902863 .60902863 .79314823 -11.630277 17.674458)"/></g></svg>