<svg fill="none" height="32" viewBox="0 0 32 32" width="32" xmlns="http://www.w3.org/2000/svg" xmlns:xlink="http://www.w3.org/1999/xlink"><filter id="a" color-interpolation-filters="sRGB" filterUnits="userSpaceOnUse" height="7.17588" width="8.47128" x="17.5581" y="3.96523"><feFlood flood-opacity="0" result="BackgroundImageFix"/><feBlend in="SourceGraphic" in2="BackgroundImageFix" mode="normal" result="shape"/><feColorMatrix in="SourceAlpha" result="hardAlpha" type="matrix" values="0 0 0 0 0 0 0 0 0 0 0 0 0 0 0 0 0 0 127 0"/><feOffset dx="1"/><feGaussianBlur stdDeviation=".5"/><feComposite in2="hardAlpha" k2="-1" k3="1" operator="arithmetic"/><feColorMatrix type="matrix" values="0 0 0 0 0.847059 0 0 0 0 0.6 0 0 0 0 0.517647 0 0 0 1 0"/><feBlend in2="shape" mode="normal" result="effect1_innerShadow_3987_22985"/><feColorMatrix in="SourceAlpha" result="hardAlpha" type="matrix" values="0 0 0 0 0 0 0 0 0 0 0 0 0 0 0 0 0 0 127 0"/><feOffset dx=".15" dy="-.15"/><feGaussianBlur stdDeviation=".25"/><feComposite in2="hardAlpha" k2="-1" k3="1" operator="arithmetic"/><feColorMatrix type="matrix" values="0 0 0 0 0.921569 0 0 0 0 0.682353 0 0 0 0 0.580392 0 0 0 1 0"/><feBlend in2="effect1_innerShadow_3987_22985" mode="normal" result="effect2_innerShadow_3987_22985"/></filter><filter id="b" color-interpolation-filters="sRGB" filterUnits="userSpaceOnUse" height="14.1935" width="18.1866" x="8.24414" y="2.36995"><feFlood flood-opacity="0" result="BackgroundImageFix"/><feBlend in="SourceGraphic" in2="BackgroundImageFix" mode="normal" result="shape"/><feColorMatrix in="SourceAlpha" result="hardAlpha" type="matrix" values="0 0 0 0 0 0 0 0 0 0 0 0 0 0 0 0 0 0 127 0"/><feOffset dy="-.2"/><feGaussianBlur stdDeviation=".2"/><feComposite in2="hardAlpha" k2="-1" k3="1" operator="arithmetic"/><feColorMatrix type="matrix" values="0 0 0 0 0.568627 0 0 0 0 0.454902 0 0 0 0 0.647059 0 0 0 1 0"/><feBlend in2="shape" mode="normal" result="effect1_innerShadow_3987_22985"/></filter><filter id="c" color-interpolation-filters="sRGB" filterUnits="userSpaceOnUse" height="2.26953" width="4.79297" x="19.5146" y="28.0037"><feFlood flood-opacity="0" result="BackgroundImageFix"/><feBlend in="SourceGraphic" in2="BackgroundImageFix" mode="normal" result="shape"/><feColorMatrix in="SourceAlpha" result="hardAlpha" type="matrix" values="0 0 0 0 0 0 0 0 0 0 0 0 0 0 0 0 0 0 127 0"/><feOffset dx=".5" dy="-.5"/><feGaussianBlur stdDeviation=".5"/><feComposite in2="hardAlpha" k2="-1" k3="1" operator="arithmetic"/><feColorMatrix type="matrix" values="0 0 0 0 0.262745 0 0 0 0 0.188235 0 0 0 0 0.341176 0 0 0 1 0"/><feBlend in2="shape" mode="normal" result="effect1_innerShadow_3987_22985"/></filter><filter id="d" color-interpolation-filters="sRGB" filterUnits="userSpaceOnUse" height="12.4766" width="8.9895" x="13.498" y="16.0388"><feFlood flood-opacity="0" result="BackgroundImageFix"/><feBlend in="SourceGraphic" in2="BackgroundImageFix" mode="normal" result="shape"/><feColorMatrix in="SourceAlpha" result="hardAlpha" type="matrix" values="0 0 0 0 0 0 0 0 0 0 0 0 0 0 0 0 0 0 127 0"/><feOffset dx=".5"/><feGaussianBlur stdDeviation=".5"/><feComposite in2="hardAlpha" k2="-1" k3="1" operator="arithmetic"/><feColorMatrix type="matrix" values="0 0 0 0 0.67451 0 0 0 0 0.635294 0 0 0 0 0.686275 0 0 0 1 0"/><feBlend in2="shape" mode="normal" result="effect1_innerShadow_3987_22985"/></filter><filter id="e" color-interpolation-filters="sRGB" filterUnits="userSpaceOnUse" height="7.56687" width="7.55347" x="15.688" y="3.92505"><feFlood flood-opacity="0" result="BackgroundImageFix"/><feBlend in="SourceGraphic" in2="BackgroundImageFix" mode="normal" result="shape"/><feColorMatrix in="SourceAlpha" result="hardAlpha" type="matrix" values="0 0 0 0 0 0 0 0 0 0 0 0 0 0 0 0 0 0 127 0"/><feOffset dx=".25" dy=".15"/><feGaussianBlur stdDeviation=".25"/><feComposite in2="hardAlpha" k2="-1" k3="1" operator="arithmetic"/><feColorMatrix type="matrix" values="0 0 0 0 0.87451 0 0 0 0 0.647059 0 0 0 0 0.54902 0 0 0 1 0"/><feBlend in2="shape" mode="normal" result="effect1_innerShadow_3987_22985"/><feColorMatrix in="SourceAlpha" result="hardAlpha" type="matrix" values="0 0 0 0 0 0 0 0 0 0 0 0 0 0 0 0 0 0 127 0"/><feOffset dy="-.25"/><feGaussianBlur stdDeviation=".25"/><feComposite in2="hardAlpha" k2="-1" k3="1" operator="arithmetic"/><feColorMatrix type="matrix" values="0 0 0 0 0.858824 0 0 0 0 0.611765 0 0 0 0 0.580392 0 0 0 1 0"/><feBlend in2="effect1_innerShadow_3987_22985" mode="normal" result="effect2_innerShadow_3987_22985"/></filter><filter id="f" color-interpolation-filters="sRGB" filterUnits="userSpaceOnUse" height="2.90918" width="3.39526" x="15.6504" y="8.49976"><feFlood flood-opacity="0" result="BackgroundImageFix"/><feBlend in="SourceGraphic" in2="BackgroundImageFix" mode="normal" result="shape"/><feColorMatrix in="SourceAlpha" result="hardAlpha" type="matrix" values="0 0 0 0 0 0 0 0 0 0 0 0 0 0 0 0 0 0 127 0"/><feOffset dy="-.25"/><feGaussianBlur stdDeviation=".25"/><feComposite in2="hardAlpha" k2="-1" k3="1" operator="arithmetic"/><feColorMatrix type="matrix" values="0 0 0 0 0.145098 0 0 0 0 0.4 0 0 0 0 0.835294 0 0 0 1 0"/><feBlend in2="shape" mode="normal" result="effect1_innerShadow_3987_22985"/></filter><filter id="g" color-interpolation-filters="sRGB" filterUnits="userSpaceOnUse" height="3.49683" width="1.78903" x="9.42435" y="12.6576"><feFlood flood-opacity="0" result="BackgroundImageFix"/><feBlend in="SourceGraphic" in2="BackgroundImageFix" mode="normal" result="shape"/><feGaussianBlur result="effect1_foregroundBlur_3987_22985" stdDeviation=".125"/></filter><filter id="h" color-interpolation-filters="sRGB" filterUnits="userSpaceOnUse" height="13.6007" width="2.60079" x="19.765" y="15.5041"><feFlood flood-opacity="0" result="BackgroundImageFix"/><feBlend in="SourceGraphic" in2="BackgroundImageFix" mode="normal" result="shape"/><feGaussianBlur result="effect1_foregroundBlur_3987_22985" stdDeviation=".4"/></filter><filter id="i" color-interpolation-filters="sRGB" filterUnits="userSpaceOnUse" height="7.45312" width="2.5625" x="16.3623" y="16.9451"><feFlood flood-opacity="0" result="BackgroundImageFix"/><feBlend in="SourceGraphic" in2="BackgroundImageFix" mode="normal" result="shape"/><feGaussianBlur result="effect1_foregroundBlur_3987_22985" stdDeviation=".375"/></filter><filter id="j" color-interpolation-filters="sRGB" filterUnits="userSpaceOnUse" height=".659033" width=".670844" x="14.9169" y="6.07856"><feFlood flood-opacity="0" result="BackgroundImageFix"/><feBlend in="SourceGraphic" in2="BackgroundImageFix" mode="normal" result="shape"/><feGaussianBlur result="effect1_foregroundBlur_3987_22985" stdDeviation=".1"/></filter><filter id="k" color-interpolation-filters="sRGB" filterUnits="userSpaceOnUse" height="1.41968" width="1.61962" x="13.4879" y="6.56311"><feFlood flood-opacity="0" result="BackgroundImageFix"/><feBlend in="SourceGraphic" in2="BackgroundImageFix" mode="normal" result="shape"/><feColorMatrix in="SourceAlpha" result="hardAlpha" type="matrix" values="0 0 0 0 0 0 0 0 0 0 0 0 0 0 0 0 0 0 127 0"/><feOffset dx=".2"/><feGaussianBlur stdDeviation=".15"/><feComposite in2="hardAlpha" k2="-1" k3="1" operator="arithmetic"/><feColorMatrix type="matrix" values="0 0 0 0 0.917647 0 0 0 0 0.694118 0 0 0 0 0.607843 0 0 0 1 0"/><feBlend in2="shape" mode="normal" result="effect1_innerShadow_3987_22985"/></filter><filter id="l" color-interpolation-filters="sRGB" filterUnits="userSpaceOnUse" height="1.84607" width="1.84607" x="13.2749" y="6.34985"><feFlood flood-opacity="0" result="BackgroundImageFix"/><feBlend in="SourceGraphic" in2="BackgroundImageFix" mode="normal" result="shape"/><feGaussianBlur result="effect1_foregroundBlur_3987_22985" stdDeviation=".25"/></filter><filter id="m" color-interpolation-filters="sRGB" filterUnits="userSpaceOnUse" height="1.66968" width="1.66962" x="16.9904" y="4.29089"><feFlood flood-opacity="0" result="BackgroundImageFix"/><feBlend in="SourceGraphic" in2="BackgroundImageFix" mode="normal" result="shape"/><feColorMatrix in="SourceAlpha" result="hardAlpha" type="matrix" values="0 0 0 0 0 0 0 0 0 0 0 0 0 0 0 0 0 0 127 0"/><feOffset dx=".25" dy="-.25"/><feGaussianBlur stdDeviation=".25"/><feComposite in2="hardAlpha" k2="-1" k3="1" operator="arithmetic"/><feColorMatrix type="matrix" values="0 0 0 0 0.843137 0 0 0 0 0.623529 0 0 0 0 0.580392 0 0 0 1 0"/><feBlend in2="shape" mode="normal" result="effect1_innerShadow_3987_22985"/></filter><filter id="n" color-interpolation-filters="sRGB" filterUnits="userSpaceOnUse" height="1.84607" width="1.84607" x="16.7773" y="4.32776"><feFlood flood-opacity="0" result="BackgroundImageFix"/><feBlend in="SourceGraphic" in2="BackgroundImageFix" mode="normal" result="shape"/><feGaussianBlur result="effect1_foregroundBlur_3987_22985" stdDeviation=".25"/></filter><filter id="o" color-interpolation-filters="sRGB" filterUnits="userSpaceOnUse" height="2.63318" width="2.27576" x="15.0573" y="5.37598"><feFlood flood-opacity="0" result="BackgroundImageFix"/><feBlend in="SourceGraphic" in2="BackgroundImageFix" mode="normal" result="shape"/><feGaussianBlur result="effect1_foregroundBlur_3987_22985" stdDeviation=".375"/></filter><filter id="p" color-interpolation-filters="sRGB" filterUnits="userSpaceOnUse" height="1.32622" width="1.11599" x="15.6401" y="5.93088"><feFlood flood-opacity="0" result="BackgroundImageFix"/><feBlend in="SourceGraphic" in2="BackgroundImageFix" mode="normal" result="shape"/><feGaussianBlur result="effect1_foregroundBlur_3987_22985" stdDeviation=".05"/></filter><filter id="q" color-interpolation-filters="sRGB" filterUnits="userSpaceOnUse" height=".473682" width=".372485" x="16.2667" y="5.35349"><feFlood flood-opacity="0" result="BackgroundImageFix"/><feBlend in="SourceGraphic" in2="BackgroundImageFix" mode="normal" result="shape"/><feGaussianBlur result="effect1_foregroundBlur_3987_22985" stdDeviation=".05"/></filter><filter id="r" color-interpolation-filters="sRGB" filterUnits="userSpaceOnUse" height=".61875" width=".618079" x="16.5411" y="5.16877"><feFlood flood-opacity="0" result="BackgroundImageFix"/><feBlend in="SourceGraphic" in2="BackgroundImageFix" mode="normal" result="shape"/><feGaussianBlur result="effect1_foregroundBlur_3987_22985" stdDeviation=".1"/></filter><filter id="s" color-interpolation-filters="sRGB" filterUnits="userSpaceOnUse" height=".658667" width=".670477" x="14.8911" y="6.08333"><feFlood flood-opacity="0" result="BackgroundImageFix"/><feBlend in="SourceGraphic" in2="BackgroundImageFix" mode="normal" result="shape"/><feGaussianBlur result="effect1_foregroundBlur_3987_22985" stdDeviation=".1"/></filter><filter id="t" color-interpolation-filters="sRGB" filterUnits="userSpaceOnUse" height=".494434" width=".426074" x="14.6635" y="6.25193"><feFlood flood-opacity="0" result="BackgroundImageFix"/><feBlend in="SourceGraphic" in2="BackgroundImageFix" mode="normal" result="shape"/><feGaussianBlur result="effect1_foregroundBlur_3987_22985" stdDeviation=".05"/></filter><filter id="u" color-interpolation-filters="sRGB" filterUnits="userSpaceOnUse" height="1.00315" width="1.35522" x="15.732" y="3.96255"><feFlood flood-opacity="0" result="BackgroundImageFix"/><feBlend in="SourceGraphic" in2="BackgroundImageFix" mode="normal" result="shape"/><feColorMatrix in="SourceAlpha" result="hardAlpha" type="matrix" values="0 0 0 0 0 0 0 0 0 0 0 0 0 0 0 0 0 0 127 0"/><feOffset dx=".25" dy="-.4"/><feGaussianBlur stdDeviation=".3"/><feComposite in2="hardAlpha" k2="-1" k3="1" operator="arithmetic"/><feColorMatrix type="matrix" values="0 0 0 0 0.0431373 0 0 0 0 0.0196078 0 0 0 0 0.027451 0 0 0 1 0"/><feBlend in2="shape" mode="normal" result="effect1_innerShadow_3987_22985"/></filter><filter id="v" color-interpolation-filters="sRGB" filterUnits="userSpaceOnUse" height="1.31589" width="1.16833" x="13.9371" y="4.90188"><feFlood flood-opacity="0" result="BackgroundImageFix"/><feBlend in="SourceGraphic" in2="BackgroundImageFix" mode="normal" result="shape"/><feColorMatrix in="SourceAlpha" result="hardAlpha" type="matrix" values="0 0 0 0 0 0 0 0 0 0 0 0 0 0 0 0 0 0 127 0"/><feOffset dx=".25" dy="-.4"/><feGaussianBlur stdDeviation=".3"/><feComposite in2="hardAlpha" k2="-1" k3="1" operator="arithmetic"/><feColorMatrix type="matrix" values="0 0 0 0 0.0431373 0 0 0 0 0.0196078 0 0 0 0 0.027451 0 0 0 1 0"/><feBlend in2="shape" mode="normal" result="effect1_innerShadow_3987_22985"/></filter><filter id="w" color-interpolation-filters="sRGB" filterUnits="userSpaceOnUse" height="2.64155" width="4.10834" x="13.173" y="3.65459"><feFlood flood-opacity="0" result="BackgroundImageFix"/><feBlend in="SourceGraphic" in2="BackgroundImageFix" mode="normal" result="shape"/><feColorMatrix in="SourceAlpha" result="hardAlpha" type="matrix" values="0 0 0 0 0 0 0 0 0 0 0 0 0 0 0 0 0 0 127 0"/><feOffset dy="-.05"/><feGaussianBlur stdDeviation=".05"/><feComposite in2="hardAlpha" k2="-1" k3="1" operator="arithmetic"/><feColorMatrix type="matrix" values="0 0 0 0 0.160784 0 0 0 0 0.396078 0 0 0 0 0.721569 0 0 0 1 0"/><feBlend in2="shape" mode="normal" result="effect1_innerShadow_3987_22985"/></filter><linearGradient id="x" gradientUnits="userSpaceOnUse" x1="24.3509" x2="21.2937" y1="5.13624" y2="11.1412"><stop offset="0" stop-color="#e9b9a9"/><stop offset=".798664" stop-color="#e0a598"/></linearGradient><radialGradient id="y" cx="0" cy="0" gradientTransform="matrix(-4.12499402 2.68751119 -1.11874823 -1.71713882 20.6904 6.11689)" gradientUnits="userSpaceOnUse" r="1"><stop offset="0" stop-color="#a99797"/><stop offset="1" stop-color="#a99797" stop-opacity="0"/></radialGradient><linearGradient id="z" gradientUnits="userSpaceOnUse" x1="13.8311" x2="14.1592" y1="9.56672" y2="10.0388"><stop offset=".348988" stop-color="#b39fbc"/><stop offset="1" stop-color="#b39fbc" stop-opacity="0"/></linearGradient><radialGradient id="A" cx="0" cy="0" gradientTransform="matrix(1.43750193 -.06250051 .2362632 5.43401623 7.84668 13.7106)" gradientUnits="userSpaceOnUse" r="1"><stop offset="0" stop-color="#b8acbd"/><stop offset="1" stop-color="#b8acbd" stop-opacity="0"/></radialGradient><linearGradient id="B" gradientUnits="userSpaceOnUse" x1="26.2532" x2="24.1125" y1="3.08564" y2="4.39814"><stop offset="0" stop-color="#533d66"/><stop offset="1" stop-color="#482a5b"/></linearGradient><linearGradient id="C" gradientUnits="userSpaceOnUse" x1="25.2219" x2="24.9563" y1="4.08564" y2="3.55439"><stop offset="0" stop-color="#482c58"/><stop offset="1" stop-color="#482c58" stop-opacity="0"/></linearGradient><radialGradient id="D" cx="0" cy="0" gradientTransform="matrix(-.27343771 .16015563 -.21807463 -.37232426 26.179 2.96455)" gradientUnits="userSpaceOnUse" r="1"><stop offset=".181008" stop-color="#615273"/><stop offset="1" stop-color="#615273" stop-opacity="0"/></radialGradient><linearGradient id="E" gradientUnits="userSpaceOnUse" x1="14.0342" x2="14.0342" y1="30.4216" y2="29.7498"><stop offset="0" stop-color="#442563"/><stop offset="1" stop-color="#442563" stop-opacity="0"/></linearGradient><radialGradient id="F" cx="0" cy="0" gradientTransform="matrix(-.87499686 -.46875637 .24583419 -.45888261 15.4717 29.5701)" gradientUnits="userSpaceOnUse" r="1"><stop offset="0" stop-color="#403451"/><stop offset="1" stop-color="#403451" stop-opacity="0"/></radialGradient><radialGradient id="G" cx="0" cy="0" gradientTransform="matrix(-.7656242 .85156633 -1.15841992 -1.04150939 14.0811 27.0623)" gradientUnits="userSpaceOnUse" r="1"><stop offset=".115085" stop-color="#271938"/><stop offset="1" stop-color="#271938" stop-opacity="0"/></radialGradient><radialGradient id="H" cx="0" cy="0" gradientTransform="matrix(.81250042 .15624968 -.58593537 3.04687168 12.7061 28.4607)" gradientUnits="userSpaceOnUse" r="1"><stop offset="0" stop-color="#655e6d"/><stop offset="1" stop-color="#655e6d" stop-opacity="0"/></radialGradient><linearGradient id="I" gradientUnits="userSpaceOnUse" x1="21.8157" x2="21.2219" y1="22.9607" y2="22.9294"><stop offset="0" stop-color="#a19ca8"/><stop offset="1" stop-color="#a49faa" stop-opacity="0"/></linearGradient><radialGradient id="J" cx="0" cy="0" gradientTransform="matrix(2.71875153 -2.53125218 .8125781 .87276881 14.5032 28.0232)" gradientUnits="userSpaceOnUse" r="1"><stop offset="0" stop-color="#937da8"/><stop offset="1" stop-color="#937da8" stop-opacity="0"/></radialGradient><radialGradient id="K" cx="0" cy="0" gradientTransform="matrix(2.54687604 -2.64063039 .28940106 .27912601 13.6125 26.3669)" gradientUnits="userSpaceOnUse" r="1"><stop offset=".284564" stop-color="#9f9c9d"/><stop offset="1" stop-color="#9f9c9d" stop-opacity="0"/></radialGradient><radialGradient id="L" cx="0" cy="0" gradientTransform="matrix(-.765625 0 0 -5.02098 18.7063 21.7107)" gradientUnits="userSpaceOnUse" r="1"><stop offset=".000540103" stop-color="#827a8b"/><stop offset="1" stop-color="#827a8b" stop-opacity="0"/></radialGradient><radialGradient id="M" cx="0" cy="0" gradientTransform="matrix(.04687479 -.98437457 1.15192471 .05485334 18.9563 18.3826)" gradientUnits="userSpaceOnUse" r="1"><stop offset=".153846" stop-color="#7f5d9d"/><stop offset="1" stop-color="#9c8cad" stop-opacity="0"/></radialGradient><radialGradient id="N" cx="0" cy="0" gradientTransform="matrix(.78125 0 0 7.6823 19.3157 23.0701)" gradientUnits="userSpaceOnUse" r="1"><stop offset="0" stop-color="#5d5467"/><stop offset="1" stop-color="#8c7e97" stop-opacity="0"/></radialGradient><radialGradient id="O" cx="0" cy="0" gradientTransform="matrix(3.40625323 -3.34375332 1.207937 1.2305152 15.0032 28.0857)" gradientUnits="userSpaceOnUse" r="1"><stop offset="0" stop-color="#8c6fa7"/><stop offset="1" stop-color="#8c6fa7" stop-opacity="0"/></radialGradient><radialGradient id="P" cx="0" cy="0" gradientTransform="matrix(-3.84376694 2.18746962 -3.04633914 -5.35295099 21.1282 10.0544)" gradientUnits="userSpaceOnUse" r="1"><stop offset="0" stop-color="#53aff7"/><stop offset="1" stop-color="#347fda"/></radialGradient><radialGradient id="Q" cx="0" cy="0" gradientTransform="matrix(.57403575 2.7380126 -4.62680811 .9700296 18.6166 7.34766)" gradientUnits="userSpaceOnUse" r="1"><stop offset=".305939" stop-color="#3090bc"/><stop offset="1" stop-color="#3090bc" stop-opacity="0"/></radialGradient><linearGradient id="R" gradientUnits="userSpaceOnUse" x1="18.6166" x2="18.6166" y1="16.3669" y2="13.1794"><stop offset=".0392156" stop-color="#366bc5"/><stop offset="1" stop-color="#366bc5" stop-opacity="0"/></linearGradient><radialGradient id="S" cx="0" cy="0" gradientTransform="matrix(.87500212 1.59375052 -2.60061445 1.42779132 16.6282 8.05442)" gradientUnits="userSpaceOnUse" r="1"><stop offset=".284934" stop-color="#246c9d"/><stop offset="1" stop-color="#246c9d" stop-opacity="0"/></radialGradient><radialGradient id="T" cx="0" cy="0" gradientTransform="matrix(1.71874898 -.01562501 .05880882 6.46896269 14.8157 10.4607)" gradientUnits="userSpaceOnUse" r="1"><stop offset="0" stop-color="#56a2e0"/><stop offset="1" stop-color="#56a2e0" stop-opacity="0"/></radialGradient><linearGradient id="U"><stop offset=".183294" stop-color="#ebbaaa"/><stop offset="1" stop-color="#e0a899"/></linearGradient><radialGradient id="V" cx="0" cy="0" gradientTransform="matrix(-.64636255 .00474945 -.00630515 -.85808084 23.0981 4.54053)" gradientUnits="userSpaceOnUse" r="1" xlink:href="#U"/><radialGradient id="W" cx="0" cy="0" gradientTransform="matrix(-.64636255 .00474945 -.00630515 -.85808084 23.6171 4.29444)" gradientUnits="userSpaceOnUse" r="1" xlink:href="#U"/><radialGradient id="X" cx="0" cy="0" gradientTransform="matrix(-.64636255 .00474945 -.00630515 -.85808084 24.1865 4.04053)" gradientUnits="userSpaceOnUse" r="1" xlink:href="#U"/><radialGradient id="Y" cx="0" cy="0" gradientTransform="matrix(-.02456748 .47351911 -.46721459 -.02424038 23.7067 4.55566)" gradientUnits="userSpaceOnUse" r="1"><stop offset="0" stop-color="#e7b6a5"/><stop offset="1" stop-color="#e2ac98"/></radialGradient><radialGradient id="Z" cx="0" cy="0" gradientTransform="matrix(3.80387969 .30087156 -.62375166 7.88601034 18.9137 5.69495)" gradientUnits="userSpaceOnUse" r="1"><stop offset=".628834" stop-color="#e4b79d" stop-opacity="0"/><stop offset="1" stop-color="#e4b79d"/></radialGradient><linearGradient id="aa" gradientUnits="userSpaceOnUse" x1="17.348" x2="17.348" y1="8.74976" y2="10.9607"><stop offset="0" stop-color="#2d9de0"/><stop offset="1" stop-color="#3083ea"/></linearGradient><radialGradient id="ab" cx="0" cy="0" gradientTransform="matrix(1.71875302 .21242226 -.56202855 4.54749081 15.3782 9.86694)" gradientUnits="userSpaceOnUse" r="1"><stop offset=".204232" stop-color="#579fde"/><stop offset="1" stop-color="#579fde" stop-opacity="0"/></radialGradient><radialGradient id="ac" cx="0" cy="0" gradientTransform="matrix(.04687471 .51562473 -1.98830088 .18075361 17.5188 8.85132)" gradientUnits="userSpaceOnUse" r="1"><stop offset="0" stop-color="#2f89b9"/><stop offset="1" stop-color="#2f89b9" stop-opacity="0"/></radialGradient><linearGradient id="ad" gradientUnits="userSpaceOnUse" x1="21.0811" x2="21.0811" y1="16.9919" y2="27.8982"><stop offset="0" stop-color="#a89eb3"/><stop offset="1" stop-color="#a599b3"/></linearGradient><linearGradient id="ae" gradientUnits="userSpaceOnUse" x1="17.6436" x2="17.6436" y1="18.4294" y2="24.9919"><stop offset="0" stop-color="#a59ab1"/><stop offset="1" stop-color="#a59ab1" stop-opacity="0"/></linearGradient><linearGradient id="af"><stop offset="0" stop-color="#b4948d"/><stop offset="1" stop-color="#b4948d" stop-opacity="0"/></linearGradient><linearGradient id="ag" gradientUnits="userSpaceOnUse" x1="15.3076" x2="15.2333" xlink:href="#af" y1="6.33384" y2="6.47159"/><radialGradient id="ah" cx="0" cy="0" gradientTransform="matrix(.745995 0 0 1.3055 13.488 7.27295)" gradientUnits="userSpaceOnUse" r="1"><stop offset=".350532" stop-color="#cf9888"/><stop offset="1" stop-color="#be8c77"/></radialGradient><linearGradient id="ai" gradientUnits="userSpaceOnUse" x1="14.1979" x2="13.9256" y1="7.39131" y2="7.39131"><stop offset="0" stop-color="#ba7c6b"/><stop offset="1" stop-color="#be8474"/></linearGradient><linearGradient id="aj" gradientUnits="userSpaceOnUse" x1="18.162" x2="17.814" y1="4.78671" y2="5.86489"><stop offset="0" stop-color="#fbd3bd"/><stop offset="1" stop-color="#f0b8a4"/></linearGradient><radialGradient id="ak" cx="0" cy="0" gradientTransform="matrix(.35143277 -.25589732 .29207382 .40111523 17.8583 5.13814)" gradientUnits="userSpaceOnUse" r="1"><stop offset=".542503" stop-color="#d9aa94"/><stop offset="1" stop-color="#d9aa94" stop-opacity="0"/></radialGradient><radialGradient id="al" cx="0" cy="0" gradientTransform="matrix(.34911963 -.6421295 .37584035 .20434078 17.6828 5.59989)" gradientUnits="userSpaceOnUse" r="1"><stop offset=".754913" stop-color="#d6a38d" stop-opacity="0"/><stop offset=".915553" stop-color="#d6a38d"/></radialGradient><radialGradient id="am" cx="0" cy="0" gradientTransform="matrix(.11022394 .109105 -.14065161 .14209408 17.7003 5.25076)" gradientUnits="userSpaceOnUse" r="1"><stop offset="0" stop-color="#d5a58e"/><stop offset="1" stop-color="#d5a58e" stop-opacity="0"/></radialGradient><linearGradient id="an" gradientUnits="userSpaceOnUse" x1="17.5221" x2="14.9581" y1="5.54486" y2="7.58098"><stop offset="0" stop-color="#ffdabf"/><stop offset="1" stop-color="#eaab97"/></linearGradient><radialGradient id="ao" cx="0" cy="0" gradientTransform="matrix(2.005475 3.47358459 -4.70317612 2.71538 15.5586 5.54231)" gradientUnits="userSpaceOnUse" r="1"><stop offset=".556791" stop-color="#d69e9e" stop-opacity="0"/><stop offset="1" stop-color="#c9859b"/></radialGradient><linearGradient id="ap" gradientUnits="userSpaceOnUse" x1="14.2927" x2="15.5499" y1="8.15906" y2="7.4888"><stop offset="0" stop-color="#a58787"/><stop offset="1" stop-color="#dead9d" stop-opacity="0"/></linearGradient><linearGradient id="aq" gradientUnits="userSpaceOnUse" x1="14.6316" x2="15.3084" y1="8.537" y2="8.11357"><stop offset="0" stop-color="#e8ad97"/><stop offset="1" stop-color="#e8ad97" stop-opacity="0"/></linearGradient><radialGradient id="ar" cx="0" cy="0" gradientTransform="matrix(-.277821 -.48120009 .59073411 -.3410605 16.5485 5.29165)" gradientUnits="userSpaceOnUse" r="1"><stop offset="0" stop-color="#f5b7a7"/><stop offset="1" stop-color="#f5b7a7" stop-opacity="0"/></radialGradient><radialGradient id="as" cx="0" cy="0" gradientTransform="matrix(-.29563 -.51204618 .63514996 -.366704 14.8676 6.24565)" gradientUnits="userSpaceOnUse" r="1"><stop offset="0" stop-color="#d0958d"/><stop offset="1" stop-color="#d0958d" stop-opacity="0"/></radialGradient><radialGradient id="at" cx="0" cy="0" gradientTransform="matrix(.51562338 2.01562338 -2.2877601 .58523959 14.688 4.46504)" gradientUnits="userSpaceOnUse" r="1"><stop offset="0" stop-color="#a67e9c"/><stop offset="1" stop-color="#a67e9c" stop-opacity="0"/></radialGradient><linearGradient id="au" gradientUnits="userSpaceOnUse" x1="15.8506" x2="16.196" y1="6.83344" y2="6.63402"><stop offset="0" stop-color="#dfa790"/><stop offset="1" stop-color="#dfa790" stop-opacity="0"/></linearGradient><linearGradient id="av" gradientUnits="userSpaceOnUse" x1="16.5828" x2="16.2021" y1="6.56903" y2="6.78163"><stop offset="0" stop-color="#ffdfc4"/><stop offset="1" stop-color="#ffdfc4" stop-opacity="0"/></linearGradient><linearGradient id="aw" gradientUnits="userSpaceOnUse" x1="16.4667" x2="16.3449" y1="7.00042" y2="6.78946"><stop offset="0" stop-color="#dc9c96"/><stop offset="1" stop-color="#dc9c96" stop-opacity="0"/></linearGradient><radialGradient id="ax" cx="0" cy="0" gradientTransform="matrix(.0418512 .0724884 -.23288809 .134458 16.4078 6.7856)" gradientUnits="userSpaceOnUse" r="1"><stop offset="0" stop-color="#ffd7c1"/><stop offset="1" stop-color="#ffd7c1" stop-opacity="0"/></radialGradient><linearGradient id="ay" gradientUnits="userSpaceOnUse" x1="16.3566" x2="16.3706" y1="7.85667" y2="7.5111"><stop offset="0" stop-color="#e2b0a6"/><stop offset=".663171" stop-color="#e2b0a6" stop-opacity="0"/></linearGradient><linearGradient id="az"><stop offset=".80198" stop-color="#7d574a"/><stop offset="1" stop-color="#694b43"/><stop offset="1" stop-color="#804d49"/><stop offset="1" stop-color="#664944"/></linearGradient><radialGradient id="aA" cx="0" cy="0" gradientTransform="matrix(.1724065 .29861682 -.47498376 .274232 16.603 5.54946)" gradientUnits="userSpaceOnUse" r="1" xlink:href="#az"/><linearGradient id="aB"><stop offset=".765532" stop-color="#ffe6e2" stop-opacity="0"/><stop offset=".966159" stop-color="#ffe6e2"/></linearGradient><radialGradient id="aC" cx="0" cy="0" gradientTransform="matrix(-.14856122 -.06059042 .08341842 -.20453303 16.5366 5.62906)" gradientUnits="userSpaceOnUse" r="1" xlink:href="#aB"/><linearGradient id="aD" gradientUnits="userSpaceOnUse" x1="16.9005" x2="16.8262" xlink:href="#af" y1="5.40401" y2="5.54155"/><radialGradient id="aE" cx="0" cy="0" gradientTransform="matrix(.1724155 .29863241 -.47500801 .274246 14.9968 6.47671)" gradientUnits="userSpaceOnUse" r="1" xlink:href="#az"/><linearGradient id="aF" gradientUnits="userSpaceOnUse" x1="15.2816" x2="15.2074" xlink:href="#af" y1="6.33849" y2="6.47604"/><radialGradient id="aG" cx="0" cy="0" gradientTransform="matrix(-.00328775 -.20998726 .25241306 -.003952 14.8701 6.63303)" gradientUnits="userSpaceOnUse" r="1" xlink:href="#aB"/><linearGradient id="aH" gradientUnits="userSpaceOnUse" x1="13.5999" x2="13.4073" y1="6.45885" y2="6.57002"><stop offset="0" stop-color="#1a0916"/><stop offset="1" stop-color="#423735"/></linearGradient><radialGradient id="aI" cx="0" cy="0" gradientTransform="matrix(-.34159902 -.46029906 .11634234 -.08634045 13.6178 6.93455)" gradientUnits="userSpaceOnUse" r="1"><stop offset="0" stop-color="#4f4c4b"/><stop offset="1" stop-color="#4f4c4b" stop-opacity="0"/></radialGradient><linearGradient id="aJ" gradientUnits="userSpaceOnUse" x1="17.0774" x2="17.6093" y1="3.9509" y2="4.87218"><stop offset="0" stop-color="#241521"/><stop offset="1" stop-color="#1e1521"/></linearGradient><radialGradient id="aK" cx="0" cy="0" gradientTransform="matrix(-.23506482 .12042338 -.70999895 -1.38590843 17.7301 4.44564)" gradientUnits="userSpaceOnUse" r="1"><stop offset=".218711" stop-color="#413f3f"/><stop offset="1" stop-color="#413f3f" stop-opacity="0"/></radialGradient><radialGradient id="aL" cx="0" cy="0" gradientTransform="matrix(2.72744281 -1.80684365 6.69544581 10.10682111 13.7603 5.9517)" gradientUnits="userSpaceOnUse" r="1"><stop offset="0" stop-color="#3e82bc"/><stop offset="1" stop-color="#1d78b8"/></radialGradient><radialGradient id="aM" cx="0" cy="0" gradientTransform="matrix(-.01779184 -.6344976 1.124498 -.03153185 16.3565 4.56129)" gradientUnits="userSpaceOnUse" r="1"><stop offset="0" stop-color="#3386c4"/><stop offset="1" stop-color="#3386c4" stop-opacity="0"/></radialGradient><radialGradient id="aN" cx="0" cy="0" gradientTransform="matrix(-2.50458385 1.26263347 -1.20385598 -2.38799169 16.0208 3.91802)" gradientUnits="userSpaceOnUse" r="1"><stop offset="0" stop-color="#30a2e5"/><stop offset="1" stop-color="#1b96dc"/></radialGradient><radialGradient id="aO" cx="0" cy="0" gradientTransform="matrix(.09101384 -2.41553597 3.74260431 .14101583 13.4107 5.94563)" gradientUnits="userSpaceOnUse" r="1"><stop offset="0" stop-color="#4199e0"/><stop offset="1" stop-color="#4199e0" stop-opacity="0"/></radialGradient><radialGradient id="aP" cx="0" cy="0" gradientTransform="matrix(-.44374438 -.92417826 2.04359695 -.98123349 15.0768 4.78766)" gradientUnits="userSpaceOnUse" r="1"><stop offset=".154606" stop-color="#1a7ccc"/><stop offset="1" stop-color="#1a7ccc" stop-opacity="0"/></radialGradient><radialGradient id="aQ" cx="0" cy="0" gradientTransform="matrix(.3482346 .52998128 -2.87689581 1.89032083 14.0087 2.9285)" gradientUnits="userSpaceOnUse" r="1"><stop offset="0" stop-color="#4195cb"/><stop offset="1" stop-color="#4195cb" stop-opacity="0"/></radialGradient><g filter="url(#a)"><path clip-rule="evenodd" d="m22.2988 7.87392c.8521-1.08214.4808-2.21322.2189-2.67718l1.9158-1.08151c.4672.82771 1.2417 3.02684-.4062 5.1197-.8899 1.13017-2.3305 1.56667-3.484 1.75277-1.1982.1932-2.3698.1584-2.9852.1347l.0849-2.1984c.5982.0231 1.5829.0477 2.55-.10828 1.0118-.16318 1.7457-.4845 2.1058-.9418z" fill="url(#x)" fill-rule="evenodd"/></g><g filter="url(#b)"><path d="m10.2858 12.9837c-.1638.0975-.2194.3083-.125.4739l.8803 1.5453c.2734.4799.106 1.0906-.3739 1.3639l-.1148.0654c-.4799.2734-1.09049.106-1.36387-.3739l-.72778-1.2775c-.45108-.7918-.17487-1.7994.61693-2.2504l.34253-.1952 16.30349-9.70887c.1898-.11303.4353-.05079.5483.13902l.1024.17183c.113.18981.0508.43531-.139.54834z" fill="#afa2b8"/><path d="m10.2858 12.9837c-.1638.0975-.2194.3083-.125.4739l.8803 1.5453c.2734.4799.106 1.0906-.3739 1.3639l-.1148.0654c-.4799.2734-1.09049.106-1.36387-.3739l-.72778-1.2775c-.45108-.7918-.17487-1.7994.61693-2.2504l.34253-.1952 16.30349-9.70887c.1898-.11303.4353-.05079.5483.13902l.1024.17183c.113.18981.0508.43531-.139.54834z" fill="url(#y)"/><path d="m10.2858 12.9837c-.1638.0975-.2194.3083-.125.4739l.8803 1.5453c.2734.4799.106 1.0906-.3739 1.3639l-.1148.0654c-.4799.2734-1.09049.106-1.36387-.3739l-.72778-1.2775c-.45108-.7918-.17487-1.7994.61693-2.2504l.34253-.1952 16.30349-9.70887c.1898-.11303.4353-.05079.5483.13902l.1024.17183c.113.18981.0508.43531-.139.54834z" fill="url(#z)"/></g><path d="m10.2858 12.9837c-.1638.0975-.2194.3083-.125.4739l.8803 1.5453c.2734.4799.106 1.0906-.3739 1.3639l-.1148.0654c-.4799.2734-1.09049.106-1.36387-.3739l-.72778-1.2775c-.45108-.7918-.17487-1.7994.61693-2.2504l.34253-.1952 16.30349-9.70887c.1898-.11303.4353-.05079.5483.13902l.1024.17183c.113.18981.0508.43531-.139.54834z" fill="url(#A)"/><path d="m23.1025 5.3513-.5-.86608 3.1215-1.85889c.1898-.11303.4353-.05079.5483.13902l.1023.17183c.1131.18981.0508.43531-.139.54834z" fill="url(#B)"/><path d="m23.1025 5.3513-.5-.86608 3.1215-1.85889c.1898-.11303.4353-.05079.5483.13902l.1023.17183c.1131.18981.0508.43531-.139.54834z" fill="url(#C)"/><path d="m23.1025 5.3513-.5-.86608 3.1215-1.85889c.1898-.11303.4353-.05079.5483.13902l.1023.17183c.1131.18981.0508.43531-.139.54834z" fill="url(#D)"/><g filter="url(#c)"><path d="m19.5146 30.2732v-1.7695h2.1602c.1641.1562.7891.5507 1.5039.7812.4938.1313.625.4883.6289.6211v.3672z" fill="#4c3765"/></g><path d="m12.9326 27.8826c0-.8063.4584-1.1589.6875-1.2344l1.3672 1.1797v1.2831c0 .1519.069.2956.1877.3904l.2029.1624c.1276.0938.2969.2383.25.4141-.082.1719-.25.1953-.539.1953h-1.5063c-.359 0-.65-.2908-.65-.6498z" fill="#47385d"/><path d="m12.9326 27.8826c0-.8063.4584-1.1589.6875-1.2344l1.3672 1.1797v1.2831c0 .1519.069.2956.1877.3904l.2029.1624c.1276.0938.2969.2383.25.4141-.082.1719-.25.1953-.539.1953h-1.5063c-.359 0-.65-.2908-.65-.6498z" fill="url(#E)"/><path d="m12.9326 27.8826c0-.8063.4584-1.1589.6875-1.2344l1.3672 1.1797v1.2831c0 .1519.069.2956.1877.3904l.2029.1624c.1276.0938.2969.2383.25.4141-.082.1719-.25.1953-.539.1953h-1.5063c-.359 0-.65-.2908-.65-.6498z" fill="url(#F)"/><path d="m12.9326 27.8826c0-.8063.4584-1.1589.6875-1.2344l1.3672 1.1797v1.2831c0 .1519.069.2956.1877.3904l.2029.1624c.1276.0938.2969.2383.25.4141-.082.1719-.25.1953-.539.1953h-1.5063c-.359 0-.65-.2908-.65-.6498z" fill="url(#G)"/><path d="m12.9326 27.8826c0-.8063.4584-1.1589.6875-1.2344l1.3672 1.1797v1.2831c0 .1519.069.2956.1877.3904l.2029.1624c.1276.0938.2969.2383.25.4141-.082.1719-.25.1953-.539.1953h-1.5063c-.359 0-.65-.2908-.65-.6498z" fill="url(#H)"/><g filter="url(#d)"><path d="m15.8595 24.0411c.1821-.1916.2809-.4475.2749-.7118l-.1664-7.2905h6.0195l-.3124 12.4766h-2.1563l-.2592-10.002c-.0036-.138-.1165-.248-.2545-.248-.1365 0-.2487.107-.2542.2433-.0491 1.1957-.1305 3.4546-.1305 4.5848 0 1.2125-.6927 2.2135-1.0391 2.5625l-2.4728 2.2877c-.0866.0801-.2049.1191-.3168.0815-.1946-.0654-.4681-.2011-.7182-.4239-.2522-.2246-.4385-.5527-.5466-.7949-.0596-.1335-.0235-.2866.0772-.3927z" fill="#9785a9"/></g><path d="m15.8595 24.0411c.1821-.1916.2809-.4475.2749-.7118l-.1664-7.2905h6.0195l-.3124 12.4766h-2.1563l-.2592-10.002c-.0036-.138-.1165-.248-.2545-.248-.1365 0-.2487.107-.2542.2433-.0491 1.1957-.1305 3.4546-.1305 4.5848 0 1.2125-.6927 2.2135-1.0391 2.5625l-2.4728 2.2877c-.0866.0801-.2049.1191-.3168.0815-.1946-.0654-.4681-.2011-.7182-.4239-.2522-.2246-.4385-.5527-.5466-.7949-.0596-.1335-.0235-.2866.0772-.3927z" fill="url(#I)"/><path d="m15.8595 24.0411c.1821-.1916.2809-.4475.2749-.7118l-.1664-7.2905h6.0195l-.3124 12.4766h-2.1563l-.2592-10.002c-.0036-.138-.1165-.248-.2545-.248-.1365 0-.2487.107-.2542.2433-.0491 1.1957-.1305 3.4546-.1305 4.5848 0 1.2125-.6927 2.2135-1.0391 2.5625l-2.4728 2.2877c-.0866.0801-.2049.1191-.3168.0815-.1946-.0654-.4681-.2011-.7182-.4239-.2522-.2246-.4385-.5527-.5466-.7949-.0596-.1335-.0235-.2866.0772-.3927z" fill="url(#J)"/><path d="m15.8595 24.0411c.1821-.1916.2809-.4475.2749-.7118l-.1664-7.2905h6.0195l-.3124 12.4766h-2.1563l-.2592-10.002c-.0036-.138-.1165-.248-.2545-.248-.1365 0-.2487.107-.2542.2433-.0491 1.1957-.1305 3.4546-.1305 4.5848 0 1.2125-.6927 2.2135-1.0391 2.5625l-2.4728 2.2877c-.0866.0801-.2049.1191-.3168.0815-.1946-.0654-.4681-.2011-.7182-.4239-.2522-.2246-.4385-.5527-.5466-.7949-.0596-.1335-.0235-.2866.0772-.3927z" fill="url(#K)"/><path d="m15.8595 24.0411c.1821-.1916.2809-.4475.2749-.7118l-.1664-7.2905h6.0195l-.3124 12.4766h-2.1563l-.2592-10.002c-.0036-.138-.1165-.248-.2545-.248-.1365 0-.2487.107-.2542.2433-.0491 1.1957-.1305 3.4546-.1305 4.5848 0 1.2125-.6927 2.2135-1.0391 2.5625l-2.4728 2.2877c-.0866.0801-.2049.1191-.3168.0815-.1946-.0654-.4681-.2011-.7182-.4239-.2522-.2246-.4385-.5527-.5466-.7949-.0596-.1335-.0235-.2866.0772-.3927z" fill="url(#L)"/><path d="m15.8595 24.0411c.1821-.1916.2809-.4475.2749-.7118l-.1664-7.2905h6.0195l-.3124 12.4766h-2.1563l-.2592-10.002c-.0036-.138-.1165-.248-.2545-.248-.1365 0-.2487.107-.2542.2433-.0491 1.1957-.1305 3.4546-.1305 4.5848 0 1.2125-.6927 2.2135-1.0391 2.5625l-2.4728 2.2877c-.0866.0801-.2049.1191-.3168.0815-.1946-.0654-.4681-.2011-.7182-.4239-.2522-.2246-.4385-.5527-.5466-.7949-.0596-.1335-.0235-.2866.0772-.3927z" fill="url(#M)"/><path d="m15.8595 24.0411c.1821-.1916.2809-.4475.2749-.7118l-.1664-7.2905h6.0195l-.3124 12.4766h-2.1563l-.2592-10.002c-.0036-.138-.1165-.248-.2545-.248-.1365 0-.2487.107-.2542.2433-.0491 1.1957-.1305 3.4546-.1305 4.5848 0 1.2125-.6927 2.2135-1.0391 2.5625l-2.4728 2.2877c-.0866.0801-.2049.1191-.3168.0815-.1946-.0654-.4681-.2011-.7182-.4239-.2522-.2246-.4385-.5527-.5466-.7949-.0596-.1335-.0235-.2866.0772-.3927z" fill="url(#N)"/><path d="m15.8595 24.0411c.1821-.1916.2809-.4475.2749-.7118l-.1664-7.2905h6.0195l-.3124 12.4766h-2.1563l-.2592-10.002c-.0036-.138-.1165-.248-.2545-.248-.1365 0-.2487.107-.2542.2433-.0491 1.1957-.1305 3.4546-.1305 4.5848 0 1.2125-.6927 2.2135-1.0391 2.5625l-2.4728 2.2877c-.0866.0801-.2049.1191-.3168.0815-.1946-.0654-.4681-.2011-.7182-.4239-.2522-.2246-.4385-.5527-.5466-.7949-.0596-.1335-.0235-.2866.0772-.3927z" fill="url(#O)"/><path d="m15.2646 9.92942c.1758-1.28515.7032-1.86198 1-2.07031.5101-.35791 1.6641-.94531 3.336 0 1.7578 1.09375 2.4036 4.05729 2.375 5.37499v2.8047h-6v-3.2422c0-.4875-.1055-.7422-.2578-.9609-.1445-.2578-.5195-.9805-.4532-1.90628z" fill="url(#P)"/><path d="m15.2646 9.92942c.1758-1.28515.7032-1.86198 1-2.07031.5101-.35791 1.6641-.94531 3.336 0 1.7578 1.09375 2.4036 4.05729 2.375 5.37499v2.8047h-6v-3.2422c0-.4875-.1055-.7422-.2578-.9609-.1445-.2578-.5195-.9805-.4532-1.90628z" fill="url(#Q)"/><path d="m15.2646 9.92942c.1758-1.28515.7032-1.86198 1-2.07031.5101-.35791 1.6641-.94531 3.336 0 1.7578 1.09375 2.4036 4.05729 2.375 5.37499v2.8047h-6v-3.2422c0-.4875-.1055-.7422-.2578-.9609-.1445-.2578-.5195-.9805-.4532-1.90628z" fill="url(#R)"/><path d="m15.2646 9.92942c.1758-1.28515.7032-1.86198 1-2.07031.5101-.35791 1.6641-.94531 3.336 0 1.7578 1.09375 2.4036 4.05729 2.375 5.37499v2.8047h-6v-3.2422c0-.4875-.1055-.7422-.2578-.9609-.1445-.2578-.5195-.9805-.4532-1.90628z" fill="url(#S)"/><path d="m15.2646 9.92942c.1758-1.28515.7032-1.86198 1-2.07031.5101-.35791 1.6641-.94531 3.336 0 1.7578 1.09375 2.4036 4.05729 2.375 5.37499v2.8047h-6v-3.2422c0-.4875-.1055-.7422-.2578-.9609-.1445-.2578-.5195-.9805-.4532-1.90628z" fill="url(#T)"/><rect fill="#dba489" height="1.15669" rx=".346037" transform="matrix(.8927172 -.45061736 .45061736 .8927172 .497088 10.351585)" width=".692073" x="21.9883" y="4.13184"/><rect fill="url(#V)" height="1.15669" rx=".346037" transform="matrix(.8927172 -.45061736 .45061736 .8927172 .660662 10.519104)" width=".692073" x="22.4219" y="3.87207"/><rect fill="url(#W)" height="1.15669" rx=".346037" transform="matrix(.8927172 -.45061736 .45061736 .8927172 .827235 10.726573)" width=".692073" x="22.9409" y="3.62598"/><rect fill="url(#X)" height="1.15669" rx=".346037" transform="matrix(.8927172 -.45061736 .45061736 .8927172 1.002738 10.955914)" width=".692073" x="23.5103" y="3.37207"/><rect fill="url(#Y)" height="1.25169" rx=".368697" transform="matrix(.5 .8660254 -.8660254 .5 15.470137 -17.988423)" width=".737393" x="23.3135" y="4.40332"/><g filter="url(#e)"><path d="m20.6549 6.08543c.0134-.07152.0158-.16031-.0154-.25371-.0593-.17812-.1757-.42317-.2265-.52343-.0196-.08855-.025-.29063.1093-.39063.1344-.1.28-.07812.336-.05469.013-.0651.0726-.21328.207-.28515.1344-.07188.2982-.02995.3633 0 .0182-.06641.0898-.2086.2305-.2461.1406-.0375.2955.02344.3554.0586.0404-.07552.1688-.22422.3594-.21485.2383.01172.375.26172.4102.44922.0351.1875.0937.43359.1523.57813.0586.14453.1172.60546-.0898 1.19921l-.0011-.00011c-.4537 1.88456-1.4918 3.10325-2.6637 3.85338-1.1841.7579-2.4543 1.0081-3.2973 1.0823-.6052.0533-1.1389-.3941-1.1922-.9993-.0533-.60514.3941-1.13891.9993-1.19218.6361-.056 1.5222-.24327 2.3042-.7438.6823-.43672 1.3267-1.13523 1.6591-2.31689z" fill="#e7b39d"/><path d="m20.6549 6.08543c.0134-.07152.0158-.16031-.0154-.25371-.0593-.17812-.1757-.42317-.2265-.52343-.0196-.08855-.025-.29063.1093-.39063.1344-.1.28-.07812.336-.05469.013-.0651.0726-.21328.207-.28515.1344-.07188.2982-.02995.3633 0 .0182-.06641.0898-.2086.2305-.2461.1406-.0375.2955.02344.3554.0586.0404-.07552.1688-.22422.3594-.21485.2383.01172.375.26172.4102.44922.0351.1875.0937.43359.1523.57813.0586.14453.1172.60546-.0898 1.19921l-.0011-.00011c-.4537 1.88456-1.4918 3.10325-2.6637 3.85338-1.1841.7579-2.4543 1.0081-3.2973 1.0823-.6052.0533-1.1389-.3941-1.1922-.9993-.0533-.60514.3941-1.13891.9993-1.19218.6361-.056 1.5222-.24327 2.3042-.7438.6823-.43672 1.3267-1.13523 1.6591-2.31689z" fill="url(#Z)"/></g><g filter="url(#f)"><path d="m17.3386 8.9646c.3282-.03125.6524-.125.8477-.21484l.8594 2.19534c-.2344.1211-1.7149.5937-2.5391.4297-.8242-.1641-1.0194-1.1954-.7305-1.73833.2735-.60937 1.1183-.62956 1.5625-.67187z" fill="url(#aa)"/><path d="m17.3386 8.9646c.3282-.03125.6524-.125.8477-.21484l.8594 2.19534c-.2344.1211-1.7149.5937-2.5391.4297-.8242-.1641-1.0194-1.1954-.7305-1.73833.2735-.60937 1.1183-.62956 1.5625-.67187z" fill="url(#ab)"/><path d="m17.3386 8.9646c.3282-.03125.6524-.125.8477-.21484l.8594 2.19534c-.2344.1211-1.7149.5937-2.5391.4297-.8242-.1641-1.0194-1.1954-.7305-1.73833.2735-.60937 1.1183-.62956 1.5625-.67187z" fill="url(#ac)"/></g><g filter="url(#g)"><path d="m9.84688 13.0076c-.05468.0807-.13125.3015 0 .539s.71882 1.2774.96102 1.7149c.0494.1028.1109.3554-.0391.5429" stroke="#c3b8c3" stroke-linecap="round" stroke-width=".2"/></g><g filter="url(#h)"><path d="m21.1592 16.7107-.1875 11.1875" stroke="url(#ad)" stroke-linecap="square" stroke-width=".8"/></g><g filter="url(#i)"><path d="m17.4873 23.6482-.375-5.9531 1.0625.5v5.4531z" fill="url(#ae)"/></g><g filter="url(#j)"><path d="m15.3877 6.41351c-.0612-.10609-.1883-.127-.224-.13492l-.0469.16384.1421.09521z" fill="url(#ag)"/></g><g filter="url(#k)"><circle cx="14.1977" cy="7.27295" fill="url(#ah)" r=".70969" transform="matrix(.8660254 -.5 .5 .8660254 -1.734344 8.073241)"/></g><g filter="url(#l)"><circle cx="14.1979" cy="7.27286" fill="url(#ai)" r=".422964" transform="matrix(.8660254 -.5 .5 .8660254 -1.734272 8.073328)"/></g><g filter="url(#m)"><circle cx="17.7002" cy="5.25073" fill="url(#aj)" r=".70969" transform="matrix(.8660254 -.5 .5 .8660254 -.253988 9.553564)"/><circle cx="17.7002" cy="5.25073" fill="url(#ak)" r=".70969" transform="matrix(.8660254 -.5 .5 .8660254 -.253988 9.553564)"/></g><g filter="url(#n)"><circle cx="17.7003" cy="5.25076" fill="#e4af9a" r=".422964" transform="matrix(.8660254 -.5 .5 .8660254 -.253989 9.553618)"/><circle cx="17.7003" cy="5.25076" fill="url(#al)" r=".422964" transform="matrix(.8660254 -.5 .5 .8660254 -.253989 9.553618)"/><circle cx="17.7003" cy="5.25076" fill="url(#am)" r=".422964" transform="matrix(.8660254 -.5 .5 .8660254 -.253989 9.553618)"/></g><path d="m13.5972 6.54355c-.0567-.09817-.1272-.26401-.0822-.36852l-.0714-.17162c.0534-.13555.1774-.11111.1094-.22892l-.1814-.31416c-.0567-.09817-.0428-.21091.0446-.28756.203-.19571.64-.57892 1.3509-.98936s1.2612-.59729 1.5322-.6752c.0903-.02597.2147.00697.2714.10514l.1813.31416c.068.11781-.1846-.5196-.0603-.48666.2597.0228.6692.8217.742.98323.3141.69718.6795 1.3764 1.0167 2.06282.317.68559.067 1.43534-.5436 1.78789l-1.1819.68237c-.6304.36393-1.385.1942-1.8202-.42315-.4358-.63667-.9214-1.32136-1.3075-1.99046z" fill="url(#an)"/><path d="m13.5972 6.54355c-.0567-.09817-.1272-.26401-.0822-.36852l-.0714-.17162c.0534-.13555.1774-.11111.1094-.22892l-.1814-.31416c-.0567-.09817-.0428-.21091.0446-.28756.203-.19571.64-.57892 1.3509-.98936s1.2612-.59729 1.5322-.6752c.0903-.02597.2147.00697.2714.10514l.1813.31416c.068.11781-.1846-.5196-.0603-.48666.2597.0228.6692.8217.742.98323.3141.69718.6795 1.3764 1.0167 2.06282.317.68559.067 1.43534-.5436 1.78789l-1.1819.68237c-.6304.36393-1.385.1942-1.8202-.42315-.4358-.63667-.9214-1.32136-1.3075-1.99046z" fill="url(#ao)"/><path d="m13.5972 6.54355c-.0567-.09817-.1272-.26401-.0822-.36852l-.0714-.17162c.0534-.13555.1774-.11111.1094-.22892l-.1814-.31416c-.0567-.09817-.0428-.21091.0446-.28756.203-.19571.64-.57892 1.3509-.98936s1.2612-.59729 1.5322-.6752c.0903-.02597.2147.00697.2714.10514l.1813.31416c.068.11781-.1846-.5196-.0603-.48666.2597.0228.6692.8217.742.98323.3141.69718.6795 1.3764 1.0167 2.06282.317.68559.067 1.43534-.5436 1.78789l-1.1819.68237c-.6304.36393-1.385.1942-1.8202-.42315-.4358-.63667-.9214-1.32136-1.3075-1.99046z" fill="url(#ap)"/><path d="m13.5972 6.54355c-.0567-.09817-.1272-.26401-.0822-.36852l-.0714-.17162c.0534-.13555.1774-.11111.1094-.22892l-.1814-.31416c-.0567-.09817-.0428-.21091.0446-.28756.203-.19571.64-.57892 1.3509-.98936s1.2612-.59729 1.5322-.6752c.0903-.02597.2147.00697.2714.10514l.1813.31416c.068.11781-.1846-.5196-.0603-.48666.2597.0228.6692.8217.742.98323.3141.69718.6795 1.3764 1.0167 2.06282.317.68559.067 1.43534-.5436 1.78789l-1.1819.68237c-.6304.36393-1.385.1942-1.8202-.42315-.4358-.63667-.9214-1.32136-1.3075-1.99046z" fill="url(#aq)"/><path d="m13.5972 6.54355c-.0567-.09817-.1272-.26401-.0822-.36852l-.0714-.17162c.0534-.13555.1774-.11111.1094-.22892l-.1814-.31416c-.0567-.09817-.0428-.21091.0446-.28756.203-.19571.64-.57892 1.3509-.98936s1.2612-.59729 1.5322-.6752c.0903-.02597.2147.00697.2714.10514l.1813.31416c.068.11781-.1846-.5196-.0603-.48666.2597.0228.6692.8217.742.98323.3141.69718.6795 1.3764 1.0167 2.06282.317.68559.067 1.43534-.5436 1.78789l-1.1819.68237c-.6304.36393-1.385.1942-1.8202-.42315-.4358-.63667-.9214-1.32136-1.3075-1.99046z" fill="url(#ar)"/><path d="m13.5972 6.54355c-.0567-.09817-.1272-.26401-.0822-.36852l-.0714-.17162c.0534-.13555.1774-.11111.1094-.22892l-.1814-.31416c-.0567-.09817-.0428-.21091.0446-.28756.203-.19571.64-.57892 1.3509-.98936s1.2612-.59729 1.5322-.6752c.0903-.02597.2147.00697.2714.10514l.1813.31416c.068.11781-.1846-.5196-.0603-.48666.2597.0228.6692.8217.742.98323.3141.69718.6795 1.3764 1.0167 2.06282.317.68559.067 1.43534-.5436 1.78789l-1.1819.68237c-.6304.36393-1.385.1942-1.8202-.42315-.4358-.63667-.9214-1.32136-1.3075-1.99046z" fill="url(#as)"/><path d="m13.5972 6.54355c-.0567-.09817-.1272-.26401-.0822-.36852l-.0714-.17162c.0534-.13555.1774-.11111.1094-.22892l-.1814-.31416c-.0567-.09817-.0428-.21091.0446-.28756.203-.19571.64-.57892 1.3509-.98936s1.2612-.59729 1.5322-.6752c.0903-.02597.2147.00697.2714.10514l.1813.31416c.068.11781-.1846-.5196-.0603-.48666.2597.0228.6692.8217.742.98323.3141.69718.6795 1.3764 1.0167 2.06282.317.68559.067 1.43534-.5436 1.78789l-1.1819.68237c-.6304.36393-1.385.1942-1.8202-.42315-.4358-.63667-.9214-1.32136-1.3075-1.99046z" fill="url(#at)"/><g filter="url(#o)"><path d="m15.8186 6.27718.0592.80008c.0369.15032.2011.22715.3283.15366l.2715-.15669c.1272-.07349.1416-.25605.031-.36116l-.5447-.5198c-.1193-.11592-.1841-.07847-.1453.08391z" fill="#d89992"/></g><g filter="url(#p)"><path d="m15.7445 6.23989.1656.73865c.0344.15175.2046.22514.3403.14678l.2894-.16711c.1358-.07836.1561-.26436.043-.36804l-.5568-.51277c-.122-.11441-.3176-.00147-.2815.16249z" fill="#fbc4b1"/><path d="m15.7445 6.23989.1656.73865c.0344.15175.2046.22514.3403.14678l.2894-.16711c.1358-.07836.1561-.26436.043-.36804l-.5568-.51277c-.122-.11441-.3176-.00147-.2815.16249z" fill="url(#au)"/><path d="m15.7445 6.23989.1656.73865c.0344.15175.2046.22514.3403.14678l.2894-.16711c.1358-.07836.1561-.26436.043-.36804l-.5568-.51277c-.122-.11441-.3176-.00147-.2815.16249z" fill="url(#av)"/><path d="m15.7445 6.23989.1656.73865c.0344.15175.2046.22514.3403.14678l.2894-.16711c.1358-.07836.1561-.26436.043-.36804l-.5568-.51277c-.122-.11441-.3176-.00147-.2815.16249z" fill="url(#aw)"/><path d="m15.7445 6.23989.1656.73865c.0344.15175.2046.22514.3403.14678l.2894-.16711c.1358-.07836.1561-.26436.043-.36804l-.5568-.51277c-.122-.11441-.3176-.00147-.2815.16249z" fill="url(#ax)"/></g><path d="m16.0292 7.53942c.1837-.00791.3768-.0629.5569-.16687.1819-.10502.3243-.24371.423-.39883l.0002-.00043c.031-.04764.085-.06139.1294-.04861.0452.01303.0835.05478.0797.11385m-1.1892.50089 1.1393-.50399m-1.1393.50399-.0005.00003c-.0575.00306-.0957.04425-.1064.08873-.0108.04481.0052.09953.0588.12513m.0481-.21389-.0262.16894m1.2154-.66983v.00012l-.0499-.00322m.0499.0031c0-.00004 0-.00008 0-.00012l-.0499-.00298m.0499.0031c-.0164.27424-.1683.53815-.4279.68804-.2595.14982-.5638.14945-.8094.02674m1.1874-.71788c-.0154.258-.1583.50657-.403.64784s-.5314.14074-.7625.02509m-.0219.04495c.0001.00009.0003.00018.0005.00027l.0214-.04522m-.0219.04495c-.0002-.00008-.0004-.00016-.0005-.00023l.0224-.04472" fill="#88024e" stroke="url(#ay)" stroke-width=".1"/><path d="m16.5209 5.22943c.2404-.13879.5392-.09029.7237.10178.0535.05472.0396.14438-.0261.18231l-.8212.47412c-.0523.03017-.1217.00653-.1414-.05176-.0899-.26264.0142-.56163.265-.70645z" fill="#fff"/><path d="m16.5023 5.37346c.1822-.10517.4139-.04184.5182.13883.0172.02986.03.06231.038.09349l-.6345.36637c-.0239-.02406-.0447-.04984-.062-.07971-.1043-.18066-.0418-.41382.1403-.51898z" fill="url(#aA)"/><path d="m16.5041 5.81044c-.0603-.10451-.025-.2364.0795-.29674.1046-.06034.2364-.02501.2968.07951.0181.03136.0279.06553.0291.09867l-.333.19223c-.0296-.01676-.0543-.04231-.0724-.07367z" fill="#000"/><g filter="url(#q)"><path d="m16.518 5.45734c.0414.01775.0146.08402-.017.15756-.0315.07355-.0558.12652-.0972.10877s-.0494-.09176-.0178-.16531c.0315-.07354.0906-.11877.132-.10102z" fill="#c7a7a3"/><path d="m16.518 5.45734c.0414.01775.0146.08402-.017.15756-.0315.07355-.0558.12652-.0972.10877s-.0494-.09176-.0178-.16531c.0315-.07354.0906-.11877.132-.10102z" fill="url(#aC)"/></g><g filter="url(#r)"><path d="m16.9592 5.48961c-.061-.07775-.1475-.11299-.1831-.12089l-.0349.15987.0914.05895z" fill="url(#aD)"/></g><path d="m14.7607 6.24563c-.2404.13879-.3478.42178-.2737.67765.0206.07369.1052.10646.1709.06853l.8213-.47415c.0522-.03017.0665-.10209.0258-.14831-.1825-.2092-.495-.26769-.7443-.12372z" fill="#fff"/><path d="m14.8947 6.30155c-.1822.10518-.2432.33748-.1389.51816.0173.02986.039.05714.062.0797l.6346-.36638c-.009-.03268-.0209-.06364-.0381-.0935-.1058-.17981-.3375-.24315-.5196-.13798z" fill="url(#aE)"/><path d="m15.2725 6.52143c-.0603-.10452-.1922-.13986-.2968-.07951-.1045.06034-.1398.19223-.0795.29676.0181.03135.0428.0569.0709.07453l.333-.19224c-.0012-.03315-.0095-.06818-.0276-.09954z" fill="#000"/><g filter="url(#s)"><path d="m15.3616 6.41804c-.0612-.10593-.1881-.12682-.2237-.13472l-.0468.16361.1418.09507z" fill="url(#aF)"/></g><g filter="url(#t)"><ellipse cx="14.8765" cy="6.49919" fill="#c7a7a3" fill-opacity=".9" rx=".165591" ry=".083804" transform="matrix(.53119157 -.84725174 .84725174 .53119157 1.467779 15.651016)"/><ellipse cx="14.8765" cy="6.49919" fill="url(#aG)" rx=".165591" ry=".083804" transform="matrix(.53119157 -.84725174 .84725174 .53119157 1.467779 15.651016)"/></g><g filter="url(#u)"><path clip-rule="evenodd" d="m16.0489 4.92864c.2507-.17776.4803-.17246.5435-.15827.1081.02431.2155-.04369.2399-.15188.0243-.10819-.0437-.2156-.1519-.2399-.1727-.03881-.519-.02197-.8638.22251-.0904.06414-.1118.18946-.0476.27991.0641.09045.1894.11178.2799.04763z" fill="#1e1e1e" fill-rule="evenodd"/></g><g filter="url(#v)"><path clip-rule="evenodd" d="m14.7384 5.68521c-.2793.1282-.3895.32972-.4088.39151-.0331.10585-.1457.16487-.2515.13182-.1058-.03304-.1649-.14563-.1318-.25148.0527-.16897.2405-.46046.6246-.63678.1007-.04626.2199-.00207.2662.0987.0462.10078.0021.21997-.0987.26623z" fill="#1e1e1e" fill-rule="evenodd"/></g><path d="m13.6072 6.91585-.4977-.86198.4404-.25423c.012.06096.0269.21506-.0099.34375-.0369.1287.0151.28296.0603.3611l.2954.51171c-.0985.05688-.2245.02069-.2885-.10035z" fill="url(#aH)"/><path d="m13.6072 6.91585-.4977-.86198.4404-.25423c.012.06096.0269.21506-.0099.34375-.0369.1287.0151.28296.0603.3611l.2954.51171c-.0985.05688-.2245.02069-.2885-.10035z" fill="url(#aI)"/><path d="m17.7138 4.54492-.4976-.86198-.4404.25423c.0468.04091.1728.13085.3027.1633s.2374.15463.2826.23277l.2779.52183c.0985-.05689.1476-.19418.0748-.31015z" fill="url(#aJ)"/><path d="m17.7138 4.54492-.4976-.86198-.4404.25423c.0468.04091.1728.13085.3027.1633s.2374.15463.2826.23277l.2779.52183c.0985-.05689.1476-.19418.0748-.31015z" fill="url(#aK)"/><g filter="url(#w)"><path d="m13.5899 5.2841c-.1842.25842-.3173.54611-.4169.88316l.2591.10052c.1947.07393.4166-.00028.5238-.17986.1904-.31586.5659-.81218 1.2242-1.19229.6584-.3801 1.276-.45713 1.6447-.46404.2091-.00304.3844-.15817.414-.36163l.0425-.27465c-.3417-.08223-.6553-.10718-.9733-.08047-1.0921.09599-2.0889.67146-2.7181 1.56926z" fill="url(#aL)"/><path d="m13.5899 5.2841c-.1842.25842-.3173.54611-.4169.88316l.2591.10052c.1947.07393.4166-.00028.5238-.17986.1904-.31586.5659-.81218 1.2242-1.19229.6584-.3801 1.276-.45713 1.6447-.46404.2091-.00304.3844-.15817.414-.36163l.0425-.27465c-.3417-.08223-.6553-.10718-.9733-.08047-1.0921.09599-2.0889.67146-2.7181 1.56926z" fill="url(#aM)"/></g><path d="m14.4323 2.70851c.5297-.30578 1.1285-.44067 1.6926-.23669.4337.15663.8983.63867 1.1563 1.32339-.3417-.08223-.6552-.10718-.9733-.08047-1.0921.09599-2.0888.67146-2.718 1.56926-.1843.25842-.3173.5461-.417.88316-.4661-.56948-.6491-1.20923-.5679-1.66315.1054-.59046.5216-1.04166 1.0513-1.34744z" fill="url(#aN)"/><path d="m14.4323 2.70851c.5297-.30578 1.1285-.44067 1.6926-.23669.4337.15663.8983.63867 1.1563 1.32339-.3417-.08223-.6552-.10718-.9733-.08047-1.0921.09599-2.0888.67146-2.718 1.56926-.1843.25842-.3173.5461-.417.88316-.4661-.56948-.6491-1.20923-.5679-1.66315.1054-.59046.5216-1.04166 1.0513-1.34744z" fill="url(#aO)"/><path d="m14.4323 2.70851c.5297-.30578 1.1285-.44067 1.6926-.23669.4337.15663.8983.63867 1.1563 1.32339-.3417-.08223-.6552-.10718-.9733-.08047-1.0921.09599-2.0888.67146-2.718 1.56926-.1843.25842-.3173.5461-.417.88316-.4661-.56948-.6491-1.20923-.5679-1.66315.1054-.59046.5216-1.04166 1.0513-1.34744z" fill="url(#aP)"/><path d="m14.4323 2.70851c.5297-.30578 1.1285-.44067 1.6926-.23669.4337.15663.8983.63867 1.1563 1.32339-.3417-.08223-.6552-.10718-.9733-.08047-1.0921.09599-2.0888.67146-2.718 1.56926-.1843.25842-.3173.5461-.417.88316-.4661-.56948-.6491-1.20923-.5679-1.66315.1054-.59046.5216-1.04166 1.0513-1.34744z" fill="url(#aQ)"/></svg>