<svg fill="none" height="32" viewBox="0 0 32 32" width="32" xmlns="http://www.w3.org/2000/svg" xmlns:xlink="http://www.w3.org/1999/xlink"><filter id="a" color-interpolation-filters="sRGB" filterUnits="userSpaceOnUse" height="8.77661" width="5.99491" x="12.3644" y="14.3921"><feFlood flood-opacity="0" result="BackgroundImageFix"/><feBlend in="SourceGraphic" in2="BackgroundImageFix" mode="normal" result="shape"/><feGaussianBlur result="effect1_foregroundBlur_28327_5989" stdDeviation=".375"/></filter><linearGradient id="b"><stop offset="0" stop-color="#6d5a93"/><stop offset="1" stop-color="#5f498c"/></linearGradient><radialGradient id="c" cx="0" cy="0" gradientTransform="matrix(1.31250096 -.53906406 .8307473 2.0226847 2 20.4844)" gradientUnits="userSpaceOnUse" r="1" xlink:href="#b"/><radialGradient id="d" cx="0" cy="0" gradientTransform="matrix(-.10156236 .70312482 -.78584532 -.11351086 3.05469 18.75)" gradientUnits="userSpaceOnUse" r="1"><stop offset="0" stop-color="#442e79"/><stop offset="1" stop-color="#442e79" stop-opacity="0"/></radialGradient><radialGradient id="e" cx="0" cy="0" gradientTransform="matrix(1.625 0 0 2.50428 1.875 17.9453)" gradientUnits="userSpaceOnUse" r="1" xlink:href="#b"/><linearGradient id="f" gradientUnits="userSpaceOnUse" x1="30.8125" x2="20.5" y1="17.375" y2="17.375"><stop offset="0" stop-color="#ffe359"/><stop offset="1" stop-color="#ffbe3e"/></linearGradient><linearGradient id="g"><stop offset="0" stop-color="#ff835d"/><stop offset="1" stop-color="#ff835d" stop-opacity="0"/></linearGradient><radialGradient id="h" cx="0" cy="0" gradientTransform="matrix(8.06249881 -3.62500374 5.13835466 11.42839602 17.1875 31.625)" gradientUnits="userSpaceOnUse" r="1" xlink:href="#g"/><radialGradient id="i" cx="0" cy="0" gradientTransform="matrix(3.68750299 3.90624779 -5.53700818 5.22694292 22.3125 20.7812)" gradientUnits="userSpaceOnUse" r="1" xlink:href="#g"/><linearGradient id="j" gradientUnits="userSpaceOnUse" x1="26" x2="26" y1="30.6563" y2="29.4375"><stop offset=".117647" stop-color="#ff835d"/><stop offset="1" stop-color="#ff835d" stop-opacity="0"/></linearGradient><radialGradient id="k" cx="0" cy="0" gradientTransform="matrix(16.74997245 18.68749698 -12.28487628 11.01117712 9.25 10.625)" gradientUnits="userSpaceOnUse" r="1"><stop offset=".943448" stop-color="#ff835d" stop-opacity="0"/><stop offset="1" stop-color="#ff835d"/></radialGradient><radialGradient id="l" cx="0" cy="0" gradientTransform="matrix(-3.18749472 2.34376103 -3.47769582 -4.72963621 25.0625 8.5625)" gradientUnits="userSpaceOnUse" r="1"><stop offset="0" stop-color="#ffe65e"/><stop offset=".654314" stop-color="#ffe65e" stop-opacity="0"/></radialGradient><radialGradient id="m" cx="0" cy="0" gradientTransform="matrix(0 -6.0625 11.8125 0 27.125 14.9375)" gradientUnits="userSpaceOnUse" r="1"><stop offset="0" stop-color="#ffe65e"/><stop offset="1" stop-color="#ffe65e" stop-opacity="0"/></radialGradient><linearGradient id="n" gradientUnits="userSpaceOnUse" x1="19.0938" x2="19.2188" y1="6.3125" y2="7.625"><stop offset="0" stop-color="#ffb941"/><stop offset="1" stop-color="#ffb941" stop-opacity="0"/></linearGradient><radialGradient id="o" cx="0" cy="0" gradientTransform="matrix(-10.49993391 18.1250001 -19.4109097 -11.24486995 22.8125 9.75)" gradientUnits="userSpaceOnUse" r="1"><stop offset="0" stop-color="#76cdff"/><stop offset="1" stop-color="#5181ff"/></radialGradient><radialGradient id="p" cx="0" cy="0" gradientTransform="matrix(0 23.0625 -17.9752 0 14.5 9.0625)" gradientUnits="userSpaceOnUse" r="1"><stop offset=".78628" stop-color="#5a67ff" stop-opacity="0"/><stop offset=".92876" stop-color="#5a67ff"/></radialGradient><radialGradient id="q" cx="0" cy="0" gradientTransform="matrix(-3.6875 0 0 -6.17092 28.5 18.8125)" gradientUnits="userSpaceOnUse" r="1"><stop offset=".0169493" stop-color="#5a67ff"/><stop offset="1" stop-color="#5a67ff" stop-opacity="0"/></radialGradient><radialGradient id="r" cx="0" cy="0" gradientTransform="matrix(2.37499925 2.81250249 -7.5213511 6.35135552 7.875 8.125)" gradientUnits="userSpaceOnUse" r="1"><stop offset="0" stop-color="#65afe3"/><stop offset="1" stop-color="#65afe3" stop-opacity="0"/></radialGradient><radialGradient id="s" cx="0" cy="0" gradientTransform="matrix(23.875 0 0 34.7797 .625 18.4667)" gradientUnits="userSpaceOnUse" r="1"><stop offset=".065445" stop-color="#80739f"/><stop offset=".26178" stop-color="#6f53a3"/></radialGradient><linearGradient id="t" gradientUnits="userSpaceOnUse" x1="18" x2="13.8125" y1="17.8751" y2="17.8751"><stop offset="0" stop-color="#ffd65c"/><stop offset="1" stop-color="#ff8c42"/></linearGradient><linearGradient id="u" gradientUnits="userSpaceOnUse" x1="15.7525" x2="14.2812" y1="19.5938" y2="20.6251"><stop offset="0" stop-color="#ff8c42" stop-opacity="0"/><stop offset="1" stop-color="#ff8c42"/></linearGradient><radialGradient id="v" cx="0" cy="0" gradientTransform="matrix(0 4.5 -.71873 0 18 15.8438)" gradientUnits="userSpaceOnUse" r="1"><stop offset="0" stop-color="#ffd65c"/><stop offset="1" stop-color="#ffd65c" stop-opacity="0"/></radialGradient><radialGradient id="w" cx="0" cy="0" gradientTransform="matrix(-.40625364 .56249786 -.50148884 -.36219101 7.57031 16.2297)" gradientUnits="userSpaceOnUse" r="1"><stop offset=".00558659" stop-color="#433437"/><stop offset="1" stop-color="#3b2838"/></radialGradient><radialGradient id="x" cx="0" cy="0" gradientTransform="matrix(-.26562699 .24218545 -.21306472 -.23368761 7.60873 16.2656)" gradientUnits="userSpaceOnUse" r="1"><stop offset="0" stop-color="#5c5051"/><stop offset="1" stop-color="#5c5051" stop-opacity="0"/></radialGradient><linearGradient id="y" gradientUnits="userSpaceOnUse" x1="7.32358" x2="6.97983" y1="15.9979" y2="15.7792"><stop offset="0" stop-color="#5c5051" stop-opacity="0"/><stop offset="1" stop-color="#5c5051"/></linearGradient><radialGradient id="z" cx="0" cy="0" gradientTransform="matrix(-4.375 0 0 -8.85937 30.375 18.8907)" gradientUnits="userSpaceOnUse" r="1"><stop offset=".328571" stop-color="#ffc256"/><stop offset="1" stop-color="#ff8646"/></radialGradient><radialGradient id="A" cx="0" cy="0" gradientTransform="matrix(0 4.59375 -1.28023 0 30.0625 17.0938)" gradientUnits="userSpaceOnUse" r="1"><stop offset="0" stop-color="#ffd661"/><stop offset="1" stop-color="#ffd661" stop-opacity="0"/></radialGradient><radialGradient id="B" cx="0" cy="0" gradientTransform="matrix(-5.375 0 0 -5.125 31.1875 18.8907)" gradientUnits="userSpaceOnUse" r="1"><stop offset=".892442" stop-color="#f37539" stop-opacity="0"/><stop offset="1" stop-color="#f37539"/></radialGradient><circle cx="3.05469" cy="19.9453" fill="url(#c)" r="1.05469"/><circle cx="3.05469" cy="19.9453" fill="url(#d)" r="1.05469"/><circle cx="3.05469" cy="17.9453" fill="url(#e)" r="1.05469"/><path d="m14.375 7h8.625c1.6569 0 3 1.34315 3 3v17c0 1.6569-1.3431 3-3 3h-8.625z" fill="url(#f)"/><path d="m14.375 7h8.625c1.6569 0 3 1.34315 3 3v17c0 1.6569-1.3431 3-3 3h-8.625z" fill="url(#h)"/><path d="m14.375 7h8.625c1.6569 0 3 1.34315 3 3v17c0 1.6569-1.3431 3-3 3h-8.625z" fill="url(#i)"/><path d="m14.375 7h8.625c1.6569 0 3 1.34315 3 3v17c0 1.6569-1.3431 3-3 3h-8.625z" fill="url(#j)"/><path d="m14.375 7h8.625c1.6569 0 3 1.34315 3 3v17c0 1.6569-1.3431 3-3 3h-8.625z" fill="url(#k)"/><path d="m14.375 7h8.625c1.6569 0 3 1.34315 3 3v17c0 1.6569-1.3431 3-3 3h-8.625z" fill="url(#l)"/><path d="m14.375 7h8.625c1.6569 0 3 1.34315 3 3v17c0 1.6569-1.3431 3-3 3h-8.625z" fill="url(#m)"/><path d="m14.375 7h8.625c1.6569 0 3 1.34315 3 3v17c0 1.6569-1.3431 3-3 3h-8.625z" fill="url(#n)"/><circle cx="14.5" cy="18.5" fill="url(#o)" r="11.5"/><circle cx="14.5" cy="18.5" fill="url(#p)" r="11.5"/><circle cx="14.5" cy="18.5" fill="url(#q)" r="11.5"/><circle cx="14.5" cy="18.5" fill="url(#r)" r="11.5"/><path d="m6.69925 10.0503c2.43379 1.9826 3.98825 5.0034 3.98825 8.3873 0 3.4171-1.58511 6.4639-4.06013 8.4454-2.23283-2.0978-3.62737-5.0775-3.62737-8.3829 0-3.3407 1.42451-6.3488 3.69925-8.4498z" fill="url(#s)"/><g filter="url(#a)"><path d="m17.6094 21.7172v-5.8737c0-.6094-.7247-.9278-1.1736-.5156l-2.9978 2.7535c-.4354.4-.4307 1.0884.0102 1.4823l2.9948 2.6756c.451.4029 1.1664.0828 1.1664-.5221z" fill="#4d82fd"/></g><path d="m18 21.4516v-5.8738c0-.6094-.7247-.9277-1.1735-.5155l-2.9979 2.7535c-.4354.4-.4307 1.0883.0102 1.4822l2.9948 2.6756c.451.403 1.1664.0828 1.1664-.522z" fill="url(#t)"/><path d="m18 21.4516v-5.8738c0-.6094-.7247-.9277-1.1735-.5155l-2.9979 2.7535c-.4354.4-.4307 1.0883.0102 1.4822l2.9948 2.6756c.451.403 1.1664.0828 1.1664-.522z" fill="url(#u)"/><path d="m18 21.4516v-5.8738c0-.6094-.7247-.9277-1.1735-.5155l-2.9979 2.7535c-.4354.4-.4307 1.0883.0102 1.4822l2.9948 2.6756c.451.403 1.1664.0828 1.1664-.522z" fill="url(#v)"/><circle cx="7.42188" cy="16.3906" fill="url(#w)" r=".5"/><circle cx="7.42188" cy="16.3906" fill="url(#x)" r=".5"/><circle cx="7.42188" cy="16.3906" fill="url(#y)" r=".5"/><path d="m30.0625 15.9552c0-.6719-.7656-1.4766-1.8204-.9559-1.3407.7792-2.2421 2.231-2.2421 3.8934 0 1.6623.9014 3.1142 2.2421 3.8934.7588.441 1.8204-.0731 1.8204-.8309z" fill="url(#z)"/><path d="m30.0625 15.9552c0-.6719-.7656-1.4766-1.8204-.9559-1.3407.7792-2.2421 2.231-2.2421 3.8934 0 1.6623.9014 3.1142 2.2421 3.8934.7588.441 1.8204-.0731 1.8204-.8309z" fill="url(#A)"/><path d="m30.0625 15.9552c0-.6719-.7656-1.4766-1.8204-.9559-1.3407.7792-2.2421 2.231-2.2421 3.8934 0 1.6623.9014 3.1142 2.2421 3.8934.7588.441 1.8204-.0731 1.8204-.8309z" fill="url(#B)"/></svg>