<svg fill="none" height="32" viewBox="0 0 32 32" width="32" xmlns="http://www.w3.org/2000/svg"><path d="m16.0001 20.5312c-3.4407 0-6.39072 1.1407-8.79698 3.2844v6.0906h17.53128v-6.0906c-2.4063-2.1437-5.2936-3.2844-8.7343-3.2844z" fill="#1c1c1c"/><rect fill="#0074ba" height="7.32812" rx="2.5" width="5" x="13.5" y="17"/><path d="m7.13272 8.64838c.3161-1.84046 1.539-2.35147 2.39838-2.53897.7335-.16004 1.082-.02741 1.7265-.67194 1.525-1.525 2.3973-1.45004 2.9454-1.37503 1.4844.20312 2.3046-.10935 2.3046-.10935.586-1.57812 1.859-1.89869 3.2344-1.89865 1.7736.00006 1.7251.89672 1.2969 1.18757-1.0473.71133-1.2969 1.27328-1.2969 1.27328.15.1375.5989.45349.8594.5785.1856.08912.5906.04219 1.4531.11719 1.0956.09527 2.3906 1.17892 2.8203 1.85156.3594.5626-.1641.85937-.4297.9375-.2656.07812-.4609.07031-.4609.07031h-.3203c.2578.48438.2039 1.68008-.0469 2.22655-.2188.4766-.5268 1.258-.5391 1.6874-.0312 1.0938-.0375 3.3782-.0625 4.6407s-.8203 2.3282-1.6719 2.6718c-2.9323.1354-9.1438.2662-10.4531 0-1.38278-.2811-1.78643-1.677-1.85934-2.3593-.06771-1.6823-.1035-5.3113-.28896-5.9141-.16912-.5497-.35986-.3589-.50536-.2134l-.00249.0025c-.67708.6094-1.53896.3828-1.10153-2.16412z" fill="#321b41"/><path d="m10 16.1719c1.1046 0 2-.8955 2-2 0-1.1046-.8954-2-2-2-1.10457 0-2 .8954-2 2 0 1.1045.89543 2 2 2z" fill="#00d1ed"/><path d="m22 16.1719c1.1046 0 2-.8955 2-2 0-1.1046-.8954-2-2-2s-2 .8954-2 2c0 1.1045.8954 2 2 2z" fill="#00d1ed"/><path d="m10.0886 17.6616c-.1384-1.5782-.3386-6.0938-.3386-6.0938 0-3.89054 2.7552-4.64059 4.71-4.5625.892.03564 1.6533.09163 1.847.67188.4848 1.45313 2.278 1.45313 4.1251 1.45313 1.3826 0 1.8485 1.30869 1.8164 1.96879-.0821 1.6875-.2709 5.3625-.3695 6.5625-.0985 1.2-1.2403 3.3954-2.986 3.9687-.8374.275-4.2791.2813-5.7259 0-1.5863-.3084-2.9401-2.3906-3.0785-3.9687z" fill="#37c9cd"/><path d="m13.375 15.5938c1.0355 0 1.875-.8395 1.875-1.875 0-1.0356-.8395-1.875-1.875-1.875s-1.875.8394-1.875 1.875c0 1.0355.8395 1.875 1.875 1.875z" fill="#321b41"/><path d="m18.875 15.75c1.0355 0 1.875-.8395 1.875-1.875 0-.1365-.0146-.2695-.0423-.3977-.1824-.8445-.9336-1.4773-1.8327-1.4773-1.0355 0-1.875.8395-1.875 1.875s.8395 1.875 1.875 1.875z" fill="#321b41"/><path d="m13.6094 15.1875c.8974 0 1.625-.7275 1.625-1.625s-.7276-1.625-1.625-1.625c-.8975 0-1.625.7275-1.625 1.625s.7275 1.625 1.625 1.625z" fill="#ffce7c"/><path d="m18.625 15.1875c.8975 0 1.625-.7275 1.625-1.625s-.7275-1.625-1.625-1.625-1.625.7275-1.625 1.625.7275 1.625 1.625 1.625z" fill="#ffce7c"/><path d="m13.5312 14.1172c.3452 0 .625-.2798.625-.625s-.2798-.625-.625-.625c-.3451 0-.625.2798-.625.625s.2799.625.625.625z" fill="#990838"/><path d="m18.457 14.1172c.3452 0 .625-.2798.625-.625s-.2798-.625-.625-.625c-.3451 0-.625.2798-.625.625s.2799.625.625.625z" fill="#990838"/><path d="m14.0469 19.875h2.8437c0-2.1-1.8594-2.3125-2.8437-2.3125-.5157 0-1.1563.2594-1.1563 1.1719s.7709 1.1406 1.1563 1.1406z" fill="#000"/><path d="m17 13.3272c0-.8272.9376-1.4834 1.8404-1.4834s1.6572.6354 1.8403 1.4834z" fill="#37c9cd"/><path d="m16.4406 18.4219h-1.9406c-.2761 0-.5-.2239-.5-.5v-.3587c.0157-.0005.0314-.0007.0469-.0007.6809 0 1.7804.1017 2.3937.8594z" fill="#ffce7c"/><path d="m20.482 11.0278c-.0619.0837-.161.1196-.2724.1196-.0743 0-.1362-.0119-.1981-.0717 0 0-.0082-.0043-.0209-.012-.128-.0776-.8304-.5034-1.7993-.3946-.1858.0239-.3591-.1076-.3715-.287-.0248-.1793.1114-.3348.2972-.3587 1.3002-.14977 2.1982.4662 2.2955.5329.0037.0026.0076.0052.0076.0052.1486.1196.1734.3228.0619.4663z" fill="#321b41"/><path d="m11.5068 11.0278c.0619.0837.1609.1196.2724.1196.0743 0 .1362-.0119.1981-.0717 0 0 .0082-.0043.0208-.012.1281-.0776.8305-.5034 1.7994-.3946.1857.0239.3591-.1076.3715-.287.0247-.1793-.1115-.3348-.2972-.3587-1.3002-.14977-2.1982.4662-2.2955.5329-.0037.0026-.0076.0052-.0076.0052-.1486.1196-.1734.3228-.0619.4663z" fill="#321b41"/><path d="m22.0001 15.8c-.0065.1119-.0154.2686-.0218.3754-.0344.035-.0794.0603-.1312.0703-.3517.0674-.7385.2458-1.0434.6907-.31.4522-.5529 1.2049-.5529 2.4543 0 .138-.1119.25-.25.25-.138 0-.25-.112-.25-.25 0-1.3066.2529-2.1717.6405-2.7371.3926-.5727.9055-.8116 1.3617-.899.0956-.0183.1912-.0266.2471.0454z" fill="#00a6ed"/><path d="m9.99099 16.2715c-.01008-.1653-.02017-.3363-.03021-.5108.38372.0521.85382.1989 1.26592.589.5574.5279.9609 1.4549.9609 3.041 0 .138-.1119.25-.25.25s-.25-.112-.25-.25c0-1.5078-.383-2.2786-.8047-2.6779-.2822-.2672-.6031-.3886-.89191-.4413z" fill="#00a6ed"/><path d="m10.6875 23.1719v2.7031c0 .3906.0297 1.1406.9297 1.0156.8281-.2031 2.5398-.3918 2.6328.8438.0613.8137-.7109.9687-1.6562.9062-.5769-.0381-.9922.2266-1.4219.625-.4455.4131-1.40888.6406-1.75784.6406h-3.41406c-.67188 0-1.21875-.4062-1.73438-1.1406-.04175-.0666-.08965-.1439-.14087-.2265-.2171-.3503-.49398-.797-.61694-.9375-.0875-.1-.52343-.5235-.72656-.711l.44531-2.0937 1.03906.7812.29688-.1719.42188-2.8281 1.26562 1.7969.28125-.1875 1.10937-2.5.625 1.4219c.07032.1406.26094.275.39844.0625.07032-.1087.07032-.75.07032-1.125z" fill="#00a6ed"/><path d="m21.2925 23.1719v2.7031c0 .3906-.0297 1.1406-.9297 1.0156-.8281-.2031-2.5398-.3918-2.6328.8438-.0613.8137.7109.9687 1.6562.9062.5769-.0381.9922.2266 1.4219.625.4455.4131 1.4089.6406 1.7578.6406h3.4141c.6719 0 1.2187-.4062 1.7344-1.1406.0417-.0666.0896-.1439.1408-.2265.2171-.3503.494-.797.617-.9375.0875-.1.5234-.5235.7265-.711l-.4453-2.0937-1.039.7812-.2969-.1719-.4219-2.8281-1.2656 1.7969-.2813-.1875-1.1093-2.5-.625 1.4219c-.0704.1406-.261.275-.3985.0625-.0703-.1087-.0703-.75-.0703-1.125z" fill="#00a6ed"/><g fill="#37c9cd"><path d="m22.2628 20.8936c.5445 0 .986.4414.986.9859v1.6841c0 .5445-.4415.9859-.986.9859s-.9859-.4414-.9859-.9859v-1.6841c0-.5445.4414-.9859.9859-.9859z"/><path d="m25.5252 21.1897c.5202.1633.8095.7173.6462 1.2375l-.5092 1.6216c-.1633.5202-.7173.8094-1.2375.6461-.5201-.1633-.8094-.7173-.6461-1.2375l.5091-1.6216c.1633-.5202.7174-.8094 1.2375-.6461z"/><path d="m28.2377 22.3558c.4806.2792.6439.8951.3646 1.3757l-.8344 1.4364c-.2793.4806-.8952.6438-1.3758.3646s-.6439-.8952-.3646-1.3758l.8344-1.4363c.2793-.4806.8952-.6439 1.3758-.3646z"/><path d="m30.0611 26.094c.2905-.4316.1761-1.017-.2555-1.3075-.4316-.2906-1.0171-.1762-1.3076.2555l-.4678.6949c-.2905.4317-.1761 1.0171.2555 1.3076.4317.2906 1.0171.1762 1.3076-.2555z"/><path d="m5.80863 22.4272c-.16331-.5202.12598-1.0742.64613-1.2375.52016-.1633 1.07421.1259 1.23751.6461l.50912 1.6216c.1633.5202-.12598 1.0742-.64614 1.2375-.52015.1633-1.0742-.1259-1.23751-.6461z"/><path d="m3.74227 22.3558c-.4806.2792-.64385.8951-.36463 1.3757l.83449 1.4364c.27922.4806.89517.6438 1.37577.3646.48059-.2792.64384-.8952.36463-1.3758l-.83449-1.4363c-.27922-.4806-.89517-.6439-1.37577-.3646z"/><path d="m1.91887 26.094c-.29053-.4316-.17614-1.017.2555-1.3075.43164-.2906 1.01707-.1762 1.3076.2555l.46778.6949c.29052.4317.17613 1.0171-.25551 1.3076-.43164.2906-1.01707.1762-1.3076-.2555z"/><path d="m9.71716 20.8936c-.54453 0-.98596.4414-.98596.9859v1.6841c0 .5445.44143.9859.98596.9859.54454 0 .98594-.4414.98594-.9859v-1.6841c0-.5445-.4414-.9859-.98594-.9859z"/></g><path d="m15.5009 13.6123-.6683 2.248c-.1442.4577.1965.9288.6683.9288h1.0089c.4718 0 .8125-.4711.6683-.9288l-.6814-2.248c-.1572-.498-.8386-.498-.9958 0z" fill="#00a6ed"/><path d="m14.0469 19.875h2.8437c0-2.1-1.8594-2.3125-2.8437-2.3125-.5157 0-1.1563.2594-1.1563 1.1719s.7709 1.1406 1.1563 1.1406z" fill="#000"/><path d="m16.4406 18.4219h-1.9406c-.2761 0-.5-.2239-.5-.5v-.3587c.0157-.0005.0314-.0007.0469-.0007.6809 0 1.7804.1017 2.3937.8594z" fill="#ffce7c"/><path d="m15.4772 13.6182-.6926 2.2162c-.1494.4511.2037.9156.6926.9156h1.0456c.4889 0 .842-.4645.6926-.9156l-.7062-2.2162c-.1629-.4909-.8691-.4909-1.032 0z" fill="#00a6ed"/></svg>