<svg fill="none" height="32" viewBox="0 0 32 32" width="32" xmlns="http://www.w3.org/2000/svg" xmlns:xlink="http://www.w3.org/1999/xlink"><filter id="a" color-interpolation-filters="sRGB" filterUnits="userSpaceOnUse" height="18.1" width="18.25" x="7" y="2"><feFlood flood-opacity="0" result="BackgroundImageFix"/><feBlend in="SourceGraphic" in2="BackgroundImageFix" mode="normal" result="shape"/><feColorMatrix in="SourceAlpha" result="hardAlpha" type="matrix" values="0 0 0 0 0 0 0 0 0 0 0 0 0 0 0 0 0 0 127 0"/><feOffset dx=".25" dy=".1"/><feGaussianBlur stdDeviation=".25"/><feComposite in2="hardAlpha" k2="-1" k3="1" operator="arithmetic"/><feColorMatrix type="matrix" values="0 0 0 0 0.8 0 0 0 0 0.447059 0 0 0 0 0.517647 0 0 0 1 0"/><feBlend in2="shape" mode="normal" result="effect1_innerShadow_18_3963"/></filter><filter id="b" color-interpolation-filters="sRGB" filterUnits="userSpaceOnUse" height="11.25" width="22" x="5" y="18.75"><feFlood flood-opacity="0" result="BackgroundImageFix"/><feBlend in="SourceGraphic" in2="BackgroundImageFix" mode="normal" result="shape"/><feColorMatrix in="SourceAlpha" result="hardAlpha" type="matrix" values="0 0 0 0 0 0 0 0 0 0 0 0 0 0 0 0 0 0 127 0"/><feOffset dy="-.25"/><feGaussianBlur stdDeviation=".25"/><feComposite in2="hardAlpha" k2="-1" k3="1" operator="arithmetic"/><feColorMatrix type="matrix" values="0 0 0 0 0.792157 0 0 0 0 0.388235 0 0 0 0 0.639216 0 0 0 1 0"/><feBlend in2="shape" mode="normal" result="effect1_innerShadow_18_3963"/></filter><linearGradient id="c" gradientUnits="userSpaceOnUse" x1="16" x2="16" y1="2" y2="20"><stop offset="0" stop-color="#f1358c"/><stop offset="1" stop-color="#d82e4a"/></linearGradient><radialGradient id="d" cx="0" cy="0" gradientTransform="matrix(-3.18748419 5.56250903 -5.35369315 -3.06782644 19.5 2.5625)" gradientUnits="userSpaceOnUse" r="1"><stop offset="0" stop-color="#ff59aa"/><stop offset="1" stop-color="#ff59aa" stop-opacity="0"/></radialGradient><radialGradient id="e" cx="0" cy="0" gradientTransform="matrix(2.24999995 5.06249727 -4.39561594 1.9536081 18.875 10.6875)" gradientUnits="userSpaceOnUse" r="1"><stop offset="0" stop-color="#ff739b"/><stop offset="1" stop-color="#ff739b" stop-opacity="0"/></radialGradient><radialGradient id="f" cx="0" cy="0" gradientTransform="matrix(1.24999362 -8.37500118 10.15590434 1.51579867 19.5625 20.4375)" gradientUnits="userSpaceOnUse" r="1"><stop offset="0" stop-color="#ff7288"/><stop offset="1" stop-color="#ff7288" stop-opacity="0"/></radialGradient><radialGradient id="g" cx="0" cy="0" gradientTransform="matrix(4.70588314 -5.64705397 9.79750597 8.16459668 13.8039 20)" gradientUnits="userSpaceOnUse" r="1"><stop offset=".114754" stop-color="#bfb4b3"/><stop offset=".76776" stop-color="#f9f1f7"/></radialGradient><linearGradient id="h" gradientUnits="userSpaceOnUse" x1="28.125" x2="9.0625" y1="21.75" y2="21.6875"><stop offset="0" stop-color="#fa4e95"/><stop offset="1" stop-color="#c02d59"/></linearGradient><radialGradient id="i" cx="0" cy="0" gradientTransform="matrix(-5.99998915 -6.87500947 12.81983958 -11.18818798 24.375 29.25)" gradientUnits="userSpaceOnUse" r="1"><stop offset="0" stop-color="#e1295e"/><stop offset="1" stop-color="#e1295e" stop-opacity="0"/></radialGradient><linearGradient id="j" gradientUnits="userSpaceOnUse" x1="16" x2="16" y1="19" y2="20.3125"><stop offset="0" stop-color="#d93e70"/><stop offset="1" stop-color="#d93e70" stop-opacity="0"/></linearGradient><radialGradient id="k" cx="0" cy="0" gradientTransform="matrix(-6.625 0 0 -.5 22.4687 19.6562)" gradientUnits="userSpaceOnUse" r="1"><stop offset="0" stop-color="#ff71b0"/><stop offset="1" stop-color="#ff71b0" stop-opacity="0"/></radialGradient><linearGradient id="l" gradientUnits="userSpaceOnUse" x1="16" x2="16" y1="20.375" y2="25.8125"><stop offset="0" stop-color="#d4c7df"/><stop offset="1" stop-color="#b59dcd"/></linearGradient><linearGradient id="m" gradientUnits="userSpaceOnUse" x1="16" x2="16" y1="19" y2="20"><stop offset="0" stop-color="#e9dfdf"/><stop offset="1" stop-color="#e9dfdf" stop-opacity="0"/></linearGradient><linearGradient id="n" gradientUnits="userSpaceOnUse" x1="13.6875" x2="19.1563" y1="13.3125" y2="13.3125"><stop offset="0" stop-color="#b42948"/><stop offset="1" stop-color="#dd647a"/></linearGradient><linearGradient id="o" gradientUnits="userSpaceOnUse" x1="15.4375" x2="18.875" y1="6.9375" y2="11.25"><stop offset="0" stop-color="#e7a668"/><stop offset="1" stop-color="#ffefbf"/></linearGradient><linearGradient id="p" gradientUnits="userSpaceOnUse" x1="14.5" x2="14.5" y1="8" y2="9.5"><stop offset="0" stop-color="#463552"/><stop offset="1" stop-color="#342f36"/></linearGradient><linearGradient id="q" gradientUnits="userSpaceOnUse" x1="17.5" x2="17.5" y1="8" y2="9.5"><stop offset="0" stop-color="#685d73"/><stop offset="1" stop-color="#5d5960"/></linearGradient><linearGradient id="r" gradientUnits="userSpaceOnUse" x1="16.5" x2="19.75" y1="4" y2="8"><stop offset="0" stop-color="#794b41"/><stop offset=".245294" stop-color="#81534a"/><stop offset="1" stop-color="#be8b7d"/></linearGradient><linearGradient id="s" gradientUnits="userSpaceOnUse" x1="15.0625" x2="12" y1="4.6875" y2="8"><stop offset="0" stop-color="#794b41"/><stop offset="1" stop-color="#935749"/></linearGradient><g filter="url(#a)"><path d="m9 14.5c-1.38675 2.0801-2 3.5-2 5.5h18c0-2-.6132-3.4199-2-5.5-1-1.5-1.5-4.5-1.5-5.5 0-2.33333-.5-7-5.5-7s-5.5 4.66667-5.5 7c0 1-.5 4-1.5 5.5z" fill="url(#c)"/><path d="m9 14.5c-1.38675 2.0801-2 3.5-2 5.5h18c0-2-.6132-3.4199-2-5.5-1-1.5-1.5-4.5-1.5-5.5 0-2.33333-.5-7-5.5-7s-5.5 4.66667-5.5 7c0 1-.5 4-1.5 5.5z" fill="url(#d)"/><path d="m9 14.5c-1.38675 2.0801-2 3.5-2 5.5h18c0-2-.6132-3.4199-2-5.5-1-1.5-1.5-4.5-1.5-5.5 0-2.33333-.5-7-5.5-7s-5.5 4.66667-5.5 7c0 1-.5 4-1.5 5.5z" fill="url(#e)"/><path d="m9 14.5c-1.38675 2.0801-2 3.5-2 5.5h18c0-2-.6132-3.4199-2-5.5-1-1.5-1.5-4.5-1.5-5.5 0-2.33333-.5-7-5.5-7s-5.5 4.66667-5.5 7c0 1-.5 4-1.5 5.5z" fill="url(#f)"/></g><path d="m21 20c-2-.5-4.5-6-5-8-.5 2-3 7.5-5 8z" fill="url(#g)"/><g filter="url(#b)"><path d="m5 20c0-.5523.44772-1 1-1h20c.5523 0 1 .4477 1 1v1c0 4.9706-4.0294 9-9 9h-4c-4.97056 0-9-4.0294-9-9z" fill="url(#h)"/><path d="m5 20c0-.5523.44772-1 1-1h20c.5523 0 1 .4477 1 1v1c0 4.9706-4.0294 9-9 9h-4c-4.97056 0-9-4.0294-9-9z" fill="url(#i)"/><path d="m5 20c0-.5523.44772-1 1-1h20c.5523 0 1 .4477 1 1v1c0 4.9706-4.0294 9-9 9h-4c-4.97056 0-9-4.0294-9-9z" fill="url(#j)"/><path d="m5 20c0-.5523.44772-1 1-1h20c.5523 0 1 .4477 1 1v1c0 4.9706-4.0294 9-9 9h-4c-4.97056 0-9-4.0294-9-9z" fill="url(#k)"/></g><path d="m9.22656 19h13.54684v1.8125c0 2.7614-2.2385 5-5 5h-3.5468c-2.7615 0-5.00004-2.2386-5.00004-5z" fill="url(#l)"/><path d="m9.22656 19h13.54684v1.8125c0 2.7614-2.2385 5-5 5h-3.5468c-2.7615 0-5.00004-2.2386-5.00004-5z" fill="url(#m)"/><path d="m14.3182 12c-1.0042 0-1.8182.814-1.8182 1.8182 0 .1004.0814.1818.1818.1818h1.3182c.7403 0 1.6542-.6444 2-1.2422.1551-.25-.147-.254 0 0 .3458.5978 1.2597 1.2422 2 1.2422h1.3182c.1004 0 .1818-.0814.1818-.1818 0-1.0042-.814-1.8182-1.8182-1.8182z" fill="url(#n)"/><circle cx="16" cy="8" fill="url(#o)" r="4"/><rect fill="url(#p)" height="1.5" rx=".5" width="1" x="14" y="8"/><rect fill="url(#q)" height="1.5" rx=".5" width="1" x="17" y="8"/><path d="m16 4c2.2091 0 4 1.79086 4 4-2.2091 0-4-1.79086-4-4z" fill="url(#r)"/><path d="m16 4c-2.2091 0-4 1.79086-4 4 2.2091 0 4-1.79086 4-4z" fill="url(#s)"/></svg>