<svg fill="none" height="32" viewBox="0 0 32 32" width="32" xmlns="http://www.w3.org/2000/svg"><path d="m29.7475 24.7238c-.6181-2.7311-1.462-2.7258-1.6694-6.3644s-.6719-8.2969-6.0156-8.2969c-2.4375 0-5.6419 1.413-5.8281 6.5937-.6563 4.5-4.75 5.7969-7.14558 6.8138-.79297.3366-2.15617.9675-2.9482.9675-.46874 0-.78812-.3069-1.32812-.2969-1.9375 0-2.76562 1.7969-2.76562 3.0782 0 1.2812.87104 2.705 2.87195 2.705h20.87867c3.0109 0 4.5681-2.469 3.95-5.2z" fill="#573739"/><path d="m2.26233 26.0312h2.72202v-1.8831c-.05492-.0058-.11204-.0086-.17187-.0075-1.37604 0-2.1925.9064-2.55015 1.8906z" fill="#feefc2"/><g fill="#341a1c"><path d="m23.3125 23c-1.75 0-2.2396-1.875-2.3437-3 0-.4375-.2688-1.0312-.9688-1.0312s-.9531.4843-.9531.9218c0 1.5938.7968 4.1094 4.2656 4.1094 1.6094 0 2.5781-.8281 2.75-1.8125-.2969.2969-1 .8125-2.75.8125z"/><path d="m28.55 28.9844h-25.87635c.46562.5522 1.20179.9394 2.24519.9394h20.87866c1.1383 0 2.0688-.3529 2.7525-.9394z"/></g></svg>