<svg fill="none" height="32" viewBox="0 0 32 32" width="32" xmlns="http://www.w3.org/2000/svg" xmlns:xlink="http://www.w3.org/1999/xlink"><filter id="a" color-interpolation-filters="sRGB" filterUnits="userSpaceOnUse" height="11.3438" width="7.16504" x="22.9761" y="8.73047"><feFlood flood-opacity="0" result="BackgroundImageFix"/><feBlend in="SourceGraphic" in2="BackgroundImageFix" mode="normal" result="shape"/><feColorMatrix in="SourceAlpha" result="hardAlpha" type="matrix" values="0 0 0 0 0 0 0 0 0 0 0 0 0 0 0 0 0 0 127 0"/><feOffset dx=".25" dy="-.5"/><feGaussianBlur stdDeviation=".5"/><feComposite in2="hardAlpha" k2="-1" k3="1" operator="arithmetic"/><feColorMatrix type="matrix" values="0 0 0 0 0.960784 0 0 0 0 0.305882 0 0 0 0 0.764706 0 0 0 1 0"/><feBlend in2="shape" mode="normal" result="effect1_innerShadow_18_16960"/></filter><filter id="b" color-interpolation-filters="sRGB" filterUnits="userSpaceOnUse" height="21.404" width="16.3752" x="8.10205" y="8.61328"><feFlood flood-opacity="0" result="BackgroundImageFix"/><feBlend in="SourceGraphic" in2="BackgroundImageFix" mode="normal" result="shape"/><feColorMatrix in="SourceAlpha" result="hardAlpha" type="matrix" values="0 0 0 0 0 0 0 0 0 0 0 0 0 0 0 0 0 0 127 0"/><feOffset dx=".5" dy="-.5"/><feGaussianBlur stdDeviation=".75"/><feComposite in2="hardAlpha" k2="-1" k3="1" operator="arithmetic"/><feColorMatrix type="matrix" values="0 0 0 0 0.909804 0 0 0 0 0.223529 0 0 0 0 0.717647 0 0 0 1 0"/><feBlend in2="shape" mode="normal" result="effect1_innerShadow_18_16960"/></filter><filter id="c" color-interpolation-filters="sRGB" filterUnits="userSpaceOnUse" height="7.48293" width="13.6063" x="9.23643" y="8.83018"><feFlood flood-opacity="0" result="BackgroundImageFix"/><feBlend in="SourceGraphic" in2="BackgroundImageFix" mode="normal" result="shape"/><feColorMatrix in="SourceAlpha" result="hardAlpha" type="matrix" values="0 0 0 0 0 0 0 0 0 0 0 0 0 0 0 0 0 0 127 0"/><feOffset dx="-.1" dy=".1"/><feGaussianBlur stdDeviation=".075"/><feComposite in2="hardAlpha" k2="-1" k3="1" operator="arithmetic"/><feColorMatrix type="matrix" values="0 0 0 0 0.913725 0 0 0 0 0.411765 0 0 0 0 0.662745 0 0 0 1 0"/><feBlend in2="shape" mode="normal" result="effect1_innerShadow_18_16960"/><feColorMatrix in="SourceAlpha" result="hardAlpha" type="matrix" values="0 0 0 0 0 0 0 0 0 0 0 0 0 0 0 0 0 0 127 0"/><feOffset dx=".1" dy="-.1"/><feGaussianBlur stdDeviation=".075"/><feComposite in2="hardAlpha" k2="-1" k3="1" operator="arithmetic"/><feColorMatrix type="matrix" values="0 0 0 0 0.898039 0 0 0 0 0.247059 0 0 0 0 0.615686 0 0 0 1 0"/><feBlend in2="effect1_innerShadow_18_16960" mode="normal" result="effect2_innerShadow_18_16960"/></filter><filter id="d" color-interpolation-filters="sRGB" filterUnits="userSpaceOnUse" height="5.34406" width="7.70312" x="22.3521" y="8.74973"><feFlood flood-opacity="0" result="BackgroundImageFix"/><feBlend in="SourceGraphic" in2="BackgroundImageFix" mode="normal" result="shape"/><feGaussianBlur result="effect1_foregroundBlur_18_16960" stdDeviation=".375"/></filter><filter id="e" color-interpolation-filters="sRGB" filterUnits="userSpaceOnUse" height="1.21246" width="8.375" x="11.8521" y="9.67184"><feFlood flood-opacity="0" result="BackgroundImageFix"/><feBlend in="SourceGraphic" in2="BackgroundImageFix" mode="normal" result="shape"/><feGaussianBlur result="effect1_foregroundBlur_18_16960" stdDeviation=".125"/></filter><radialGradient id="f" cx="0" cy="0" gradientTransform="matrix(-6.18234643 4.91783658 -6.41098315 -8.05942169 9.34699 13.0197)" gradientUnits="userSpaceOnUse" r="1"><stop offset=".33454" stop-color="#f96acf"/><stop offset="1" stop-color="#e44cba"/></radialGradient><linearGradient id="g" gradientUnits="userSpaceOnUse" x1="8.6845" x2="5.96097" y1="20.7855" y2="19.8653"><stop offset="0" stop-color="#de47b0"/><stop offset="1" stop-color="#de47b0" stop-opacity="0"/></linearGradient><linearGradient id="h" gradientUnits="userSpaceOnUse" x1="3.94586" x2="4.85211" y1="11.25" y2="12.375"><stop offset=".0818905" stop-color="#e665b5"/><stop offset="1" stop-color="#e665b5" stop-opacity="0"/></linearGradient><linearGradient id="i" gradientUnits="userSpaceOnUse" x1="24.227" x2="27.0083" y1="9.90625" y2="19.0937"><stop offset=".456882" stop-color="#ff6ed9"/><stop offset="1" stop-color="#fa5bca"/></linearGradient><radialGradient id="j" cx="0" cy="0" gradientTransform="matrix(0 4.34375 -.71875 0 24.102 13.5)" gradientUnits="userSpaceOnUse" r="1"><stop offset="0" stop-color="#ff81d9"/><stop offset="1" stop-color="#ff81d9" stop-opacity="0"/></radialGradient><linearGradient id="k" gradientUnits="userSpaceOnUse" x1="16.0396" x2="16.0396" y1="15.3125" y2="30.0172"><stop offset="0" stop-color="#f972ca"/><stop offset="1" stop-color="#f949c4"/></linearGradient><radialGradient id="l" cx="0" cy="0" gradientTransform="matrix(0 11.25 -5.41274 0 7.78955 10.25)" gradientUnits="userSpaceOnUse" r="1"><stop offset=".355346" stop-color="#f76ac8"/><stop offset="1" stop-color="#f360c4" stop-opacity="0"/></radialGradient><radialGradient id="m" cx="0" cy="0" gradientTransform="matrix(0 10.2813 -1.40643 0 23.9772 14.9688)" gradientUnits="userSpaceOnUse" r="1"><stop offset=".0772727" stop-color="#ff83da"/><stop offset="1" stop-color="#ff83da" stop-opacity="0"/></radialGradient><radialGradient id="n" cx="0" cy="0" gradientTransform="matrix(0 5.4375 -8.52102 0 15.8669 9.71876)" gradientUnits="userSpaceOnUse" r="1"><stop offset=".247312" stop-color="#ce59a3"/><stop offset="1" stop-color="#b8387f"/></radialGradient><radialGradient id="o" cx="0" cy="0" gradientTransform="matrix(-4.87501464 3.18198459 -.95862698 -1.46868109 19.3207 12.3492)" gradientUnits="userSpaceOnUse" r="1"><stop offset="0" stop-color="#ba3a82"/><stop offset="1" stop-color="#ba3a82" stop-opacity="0"/></radialGradient><linearGradient id="p" gradientUnits="userSpaceOnUse" x1="22.0707" x2="15.1645" y1="9.40625" y2="15.75"><stop offset="0" stop-color="#dd53a4"/><stop offset="1" stop-color="#e24b9b"/></linearGradient><radialGradient id="q" cx="0" cy="0" gradientTransform="matrix(0 .925036 -5.03125 0 16.0396 10.2781)" gradientUnits="userSpaceOnUse" r="1"><stop offset="0" stop-color="#d463a8"/><stop offset="1" stop-color="#d463a8" stop-opacity="0"/></radialGradient><path d="m6.8834 9.84375c.6125-.36875 1.20571-.57552 1.35936-.60156l.78125.73437-.91405 10.10934c0-.1302-.13282-.4062-.66408-.4687-.66407-.0781-2.6797-.3984-4.04689-2.3516-.91622-1.2456-1.24531-2.7127-1.28927-3.7852-.01622-.3957.20484-.7533.53933-.9654 1.46479-.9287 3.69285-2.3452 4.23435-2.67125z" fill="url(#f)"/><path d="m6.8834 9.84375c.6125-.36875 1.20571-.57552 1.35936-.60156l.78125.73437-.91405 10.10934c0-.1302-.13282-.4062-.66408-.4687-.66407-.0781-2.6797-.3984-4.04689-2.3516-.91622-1.2456-1.24531-2.7127-1.28927-3.7852-.01622-.3957.20484-.7533.53933-.9654 1.46479-.9287 3.69285-2.3452 4.23435-2.67125z" fill="url(#g)"/><path d="m6.8834 9.84375c.6125-.36875 1.20571-.57552 1.35936-.60156l.78125.73437-.91405 10.10934c0-.1302-.13282-.4062-.66408-.4687-.66407-.0781-2.6797-.3984-4.04689-2.3516-.91622-1.2456-1.24531-2.7127-1.28927-3.7852-.01622-.3957.20484-.7533.53933-.9654 1.46479-.9287 3.69285-2.3452 4.23435-2.67125z" fill="url(#h)"/><g filter="url(#a)"><path d="m25.1166 9.83203c-.6125-.36875-1.2057-.57552-1.3594-.60156l-.7812.73437.914 10.10936c0-.1302.1329-.4062.6641-.4687.6641-.0782 2.6797-.3985 4.0469-2.3516.9162-1.2456 1.2453-2.7128 1.2893-3.7852.0162-.3957-.2049-.7534-.5394-.9654-1.4647-.9287-3.6928-2.3453-4.2343-2.67127z" fill="url(#i)"/></g><path d="m25.1166 9.83203c-.6125-.36875-1.2057-.57552-1.3594-.60156l-.7812.73437.914 10.10936c0-.1302.1329-.4062.6641-.4687.6641-.0782 2.6797-.3985 4.0469-2.3516.9162-1.2456 1.2453-2.7128 1.2893-3.7852.0162-.3957-.2049-.7534-.5394-.9654-1.4647-.9287-3.6928-2.3453-4.2343-2.67127z" fill="url(#j)"/><g filter="url(#b)"><path d="m8.10205 9.29621.04242 18.76719c.00117.5169.33085.9792.82866 1.1182 4.53517 1.1537 9.62897 1.0755 14.13167-.0049.4989-.1351.8288-.5964.83-1.1133l.0424-18.76719c-.2031-.11719-1.325-.27344-1.9774-.11719-1.5464.425-4.2571.90628-5.9602.90628-1.703 0-4.4137-.48128-5.9601-.90628-.65244-.15625-1.77432 0-1.97745.11719z" fill="url(#k)"/></g><path d="m8.10205 9.29621.04242 18.76719c.00117.5169.33085.9792.82866 1.1182 4.53517 1.1537 9.62897 1.0755 14.13167-.0049.4989-.1351.8288-.5964.83-1.1133l.0424-18.76719c-.2031-.11719-1.325-.27344-1.9774-.11719-1.5464.425-4.2571.90628-5.9602.90628-1.703 0-4.4137-.48128-5.9601-.90628-.65244-.15625-1.77432 0-1.97745.11719z" fill="url(#l)"/><path d="m8.10205 9.29621.04242 18.76719c.00117.5169.33085.9792.82866 1.1182 4.53517 1.1537 9.62897 1.0755 14.13167-.0049.4989-.1351.8288-.5964.83-1.1133l.0424-18.76719c-.2031-.11719-1.325-.27344-1.9774-.11719-1.5464.425-4.2571.90628-5.9602.90628-1.703 0-4.4137-.48128-5.9601-.90628-.65244-.15625-1.77432 0-1.97745.11719z" fill="url(#m)"/><path d="m10.0264 9.16724 5.9974 6.36406 5.6836-6.27479c-1.5778.40388-4.0677.82879-5.6679.82879-1.703 0-4.4137-.48127-5.9602-.90627-.0173-.00415-.035-.00808-.0529-.01179z" fill="url(#n)"/><path d="m10.0264 9.16724 5.9974 6.36406 5.6836-6.27479c-1.5778.40388-4.0677.82879-5.6679.82879-1.703 0-4.4137-.48127-5.9602-.90627-.0173-.00415-.035-.00808-.0529-.01179z" fill="url(#o)"/><g filter="url(#c)"><path d="m14.4562 14.5766c.5092.5779.9753 1.1071 1.3621 1.5377.1183.1317.3242.1317.4425 0 .3868-.4306.8529-.9598 1.3621-1.5377 1.6726-1.8985 3.8092-4.2729 5.1198-5.46332-.396 0-.7728-.11316-1.0251-.16901-.1615-.03575-.3332-.00425-.459.10319-1.0643.90879-2.3351 2.36044-3.4346 3.61654-.6609.755-1.26 1.4394-1.7152 1.8927-.0384.0383-.1001.0383-.1385 0-.4552-.4533-1.0543-1.1377-1.7152-1.8927-1.0995-1.2561-2.3703-2.70775-3.4346-3.61654-.1258-.10744-.2975-.13894-.459-.10319-.2523.05585-.62906.16901-1.02507.16901 1.31067 1.19042 3.44717 3.56482 5.11977 5.46332z" fill="url(#p)"/></g><g filter="url(#d)"><path d="m23.3521 9.75c.1458-.00521.5625.0625 1.0625.375s3.302 2.1094 4.6406 2.9687" stroke="#ff8ee2" stroke-linecap="round" stroke-width=".5"/></g><g filter="url(#e)"><path d="m12.2271 10.0469c1.177.3489 4.35.8375 7.625 0" stroke="url(#q)" stroke-linecap="round" stroke-width=".25"/></g></svg>