<svg fill="none" height="32" viewBox="0 0 32 32" width="32" xmlns="http://www.w3.org/2000/svg" xmlns:xlink="http://www.w3.org/1999/xlink"><filter id="a" color-interpolation-filters="sRGB" filterUnits="userSpaceOnUse" height="7.92961" width="8.02971" x="7.84763" y="5.41025"><feFlood flood-opacity="0" result="BackgroundImageFix"/><feBlend in="SourceGraphic" in2="BackgroundImageFix" mode="normal" result="shape"/><feGaussianBlur result="effect1_foregroundBlur_18_5845" stdDeviation=".3"/></filter><filter id="b" color-interpolation-filters="sRGB" filterUnits="userSpaceOnUse" height="7.92961" width="8.02971" x="1.31797" y="5.41025"><feFlood flood-opacity="0" result="BackgroundImageFix"/><feBlend in="SourceGraphic" in2="BackgroundImageFix" mode="normal" result="shape"/><feGaussianBlur result="effect1_foregroundBlur_18_5845" stdDeviation=".3"/></filter><filter id="c" color-interpolation-filters="sRGB" filterUnits="userSpaceOnUse" height="7.92961" width="8.02971" x="22.8789" y="5.41025"><feFlood flood-opacity="0" result="BackgroundImageFix"/><feBlend in="SourceGraphic" in2="BackgroundImageFix" mode="normal" result="shape"/><feGaussianBlur result="effect1_foregroundBlur_18_5845" stdDeviation=".3"/></filter><filter id="d" color-interpolation-filters="sRGB" filterUnits="userSpaceOnUse" height="7.92961" width="8.02971" x="16.3492" y="5.41025"><feFlood flood-opacity="0" result="BackgroundImageFix"/><feBlend in="SourceGraphic" in2="BackgroundImageFix" mode="normal" result="shape"/><feGaussianBlur result="effect1_foregroundBlur_18_5845" stdDeviation=".3"/></filter><filter id="e" color-interpolation-filters="sRGB" filterUnits="userSpaceOnUse" height="9.27197" width="6.28003" x="9.46924" y="17.0404"><feFlood flood-opacity="0" result="BackgroundImageFix"/><feBlend in="SourceGraphic" in2="BackgroundImageFix" mode="normal" result="shape"/><feGaussianBlur result="effect1_foregroundBlur_18_5845" stdDeviation=".25"/></filter><filter id="f" color-interpolation-filters="sRGB" filterUnits="userSpaceOnUse" height="4.95972" width="4.95935" x="17.4546" y="17.2451"><feFlood flood-opacity="0" result="BackgroundImageFix"/><feBlend in="SourceGraphic" in2="BackgroundImageFix" mode="normal" result="shape"/><feColorMatrix in="SourceAlpha" result="hardAlpha" type="matrix" values="0 0 0 0 0 0 0 0 0 0 0 0 0 0 0 0 0 0 127 0"/><feOffset dx="-.5" dy=".5"/><feGaussianBlur stdDeviation=".25"/><feComposite in2="hardAlpha" k2="-1" k3="1" operator="arithmetic"/><feColorMatrix type="matrix" values="0 0 0 0 0.0470588 0 0 0 0 0.47451 0 0 0 0 0.792157 0 0 0 1 0"/><feBlend in2="shape" mode="normal" result="effect1_innerShadow_18_5845"/></filter><filter id="g" color-interpolation-filters="sRGB" filterUnits="userSpaceOnUse" height="8.11011" width="6.33892" x="10.066" y="17.1248"><feFlood flood-opacity="0" result="BackgroundImageFix"/><feBlend in="SourceGraphic" in2="BackgroundImageFix" mode="normal" result="shape"/><feColorMatrix in="SourceAlpha" result="hardAlpha" type="matrix" values="0 0 0 0 0 0 0 0 0 0 0 0 0 0 0 0 0 0 127 0"/><feOffset dx=".25"/><feGaussianBlur stdDeviation=".25"/><feComposite in2="hardAlpha" k2="-1" k3="1" operator="arithmetic"/><feColorMatrix type="matrix" values="0 0 0 0 0.254902 0 0 0 0 0.188235 0 0 0 0 0.141176 0 0 0 1 0"/><feBlend in2="shape" mode="normal" result="effect1_innerShadow_18_5845"/><feColorMatrix in="SourceAlpha" result="hardAlpha" type="matrix" values="0 0 0 0 0 0 0 0 0 0 0 0 0 0 0 0 0 0 127 0"/><feOffset dx="-.2"/><feGaussianBlur stdDeviation=".15"/><feComposite in2="hardAlpha" k2="-1" k3="1" operator="arithmetic"/><feColorMatrix type="matrix" values="0 0 0 0 0.694118 0 0 0 0 0.470588 0 0 0 0 0.407843 0 0 0 1 0"/><feBlend in2="effect1_innerShadow_18_5845" mode="normal" result="effect2_innerShadow_18_5845"/></filter><filter id="h" color-interpolation-filters="sRGB" filterUnits="userSpaceOnUse" height="1.14827" width="1.14827" x="14.1059" y="20.7475"><feFlood flood-opacity="0" result="BackgroundImageFix"/><feBlend in="SourceGraphic" in2="BackgroundImageFix" mode="normal" result="shape"/><feGaussianBlur result="effect1_foregroundBlur_18_5845" stdDeviation=".075"/></filter><filter id="i" color-interpolation-filters="sRGB" filterUnits="userSpaceOnUse" height=".857056" width="1.05706" x="14.2616" y="20.8247"><feFlood flood-opacity="0" result="BackgroundImageFix"/><feBlend in="SourceGraphic" in2="BackgroundImageFix" mode="normal" result="shape"/><feColorMatrix in="SourceAlpha" result="hardAlpha" type="matrix" values="0 0 0 0 0 0 0 0 0 0 0 0 0 0 0 0 0 0 127 0"/><feOffset dx="-.1"/><feGaussianBlur stdDeviation=".1"/><feComposite in2="hardAlpha" k2="-1" k3="1" operator="arithmetic"/><feColorMatrix type="matrix" values="0 0 0 0 0.694118 0 0 0 0 0.482353 0 0 0 0 0.419608 0 0 0 1 0"/><feBlend in2="shape" mode="normal" result="effect1_innerShadow_18_5845"/><feColorMatrix in="SourceAlpha" result="hardAlpha" type="matrix" values="0 0 0 0 0 0 0 0 0 0 0 0 0 0 0 0 0 0 127 0"/><feOffset dx=".1"/><feGaussianBlur stdDeviation=".1"/><feComposite in2="hardAlpha" k2="-1" k3="1" operator="arithmetic"/><feColorMatrix type="matrix" values="0 0 0 0 0.290196 0 0 0 0 0.184314 0 0 0 0 0.164706 0 0 0 1 0"/><feBlend in2="effect1_innerShadow_18_5845" mode="normal" result="effect2_innerShadow_18_5845"/></filter><filter id="j" color-interpolation-filters="sRGB" filterUnits="userSpaceOnUse" height="11.0674" width="11.2165" x="15.467" y="6.13303"><feFlood flood-opacity="0" result="BackgroundImageFix"/><feBlend in="SourceGraphic" in2="BackgroundImageFix" mode="normal" result="shape"/><feGaussianBlur result="effect1_foregroundBlur_18_5845" stdDeviation=".3"/></filter><filter id="k" color-interpolation-filters="sRGB" filterUnits="userSpaceOnUse" height="11.0674" width="11.2165" x="5.75059" y="6.13303"><feFlood flood-opacity="0" result="BackgroundImageFix"/><feBlend in="SourceGraphic" in2="BackgroundImageFix" mode="normal" result="shape"/><feGaussianBlur result="effect1_foregroundBlur_18_5845" stdDeviation=".3"/></filter><filter id="l" color-interpolation-filters="sRGB" filterUnits="userSpaceOnUse" height="5.61895" width="7.45842" x="21.0995" y="20.6606"><feFlood flood-opacity="0" result="BackgroundImageFix"/><feBlend in="SourceGraphic" in2="BackgroundImageFix" mode="normal" result="shape"/><feColorMatrix in="SourceAlpha" result="hardAlpha" type="matrix" values="0 0 0 0 0 0 0 0 0 0 0 0 0 0 0 0 0 0 127 0"/><feOffset dx=".2" dy=".2"/><feGaussianBlur stdDeviation=".3"/><feComposite in2="hardAlpha" k2="-1" k3="1" operator="arithmetic"/><feColorMatrix type="matrix" values="0 0 0 0 0.309804 0 0 0 0 0.564706 0 0 0 0 0.329412 0 0 0 1 0"/><feBlend in2="shape" mode="normal" result="effect1_innerShadow_18_5845"/></filter><filter id="m" color-interpolation-filters="sRGB" filterUnits="userSpaceOnUse" height="5.61895" width="7.45842" x="3.78699" y="20.6606"><feFlood flood-opacity="0" result="BackgroundImageFix"/><feBlend in="SourceGraphic" in2="BackgroundImageFix" mode="normal" result="shape"/><feColorMatrix in="SourceAlpha" result="hardAlpha" type="matrix" values="0 0 0 0 0 0 0 0 0 0 0 0 0 0 0 0 0 0 127 0"/><feOffset dx=".2" dy=".2"/><feGaussianBlur stdDeviation=".3"/><feComposite in2="hardAlpha" k2="-1" k3="1" operator="arithmetic"/><feColorMatrix type="matrix" values="0 0 0 0 0.309804 0 0 0 0 0.564706 0 0 0 0 0.329412 0 0 0 1 0"/><feBlend in2="shape" mode="normal" result="effect1_innerShadow_18_5845"/></filter><filter id="n" color-interpolation-filters="sRGB" filterUnits="userSpaceOnUse" height="3.16582" width="4.17253" x="25.9998" y="17.134"><feFlood flood-opacity="0" result="BackgroundImageFix"/><feBlend in="SourceGraphic" in2="BackgroundImageFix" mode="normal" result="shape"/><feColorMatrix in="SourceAlpha" result="hardAlpha" type="matrix" values="0 0 0 0 0 0 0 0 0 0 0 0 0 0 0 0 0 0 127 0"/><feOffset dx=".2" dy=".2"/><feGaussianBlur stdDeviation=".3"/><feComposite in2="hardAlpha" k2="-1" k3="1" operator="arithmetic"/><feColorMatrix type="matrix" values="0 0 0 0 0.309804 0 0 0 0 0.564706 0 0 0 0 0.329412 0 0 0 1 0"/><feBlend in2="shape" mode="normal" result="effect1_innerShadow_18_5845"/></filter><filter id="o" color-interpolation-filters="sRGB" filterUnits="userSpaceOnUse" height="3.16582" width="4.17253" x="2.12488" y="17.134"><feFlood flood-opacity="0" result="BackgroundImageFix"/><feBlend in="SourceGraphic" in2="BackgroundImageFix" mode="normal" result="shape"/><feColorMatrix in="SourceAlpha" result="hardAlpha" type="matrix" values="0 0 0 0 0 0 0 0 0 0 0 0 0 0 0 0 0 0 127 0"/><feOffset dx=".2" dy=".2"/><feGaussianBlur stdDeviation=".3"/><feComposite in2="hardAlpha" k2="-1" k3="1" operator="arithmetic"/><feColorMatrix type="matrix" values="0 0 0 0 0.309804 0 0 0 0 0.564706 0 0 0 0 0.329412 0 0 0 1 0"/><feBlend in2="shape" mode="normal" result="effect1_innerShadow_18_5845"/></filter><filter id="p" color-interpolation-filters="sRGB" filterUnits="userSpaceOnUse" height="3.8335" width="3.61914" x="21.2314" y="22.5125"><feFlood flood-opacity="0" result="BackgroundImageFix"/><feBlend in="SourceGraphic" in2="BackgroundImageFix" mode="normal" result="shape"/><feGaussianBlur result="effect1_foregroundBlur_18_5845" stdDeviation=".375"/></filter><filter id="q" color-interpolation-filters="sRGB" filterUnits="userSpaceOnUse" height="2.7771" width="2.65979" x="25.7324" y="17.8081"><feFlood flood-opacity="0" result="BackgroundImageFix"/><feBlend in="SourceGraphic" in2="BackgroundImageFix" mode="normal" result="shape"/><feGaussianBlur result="effect1_foregroundBlur_18_5845" stdDeviation=".375"/></filter><filter id="r" color-interpolation-filters="sRGB" filterUnits="userSpaceOnUse" height="2.7771" width="2.65979" x="3.70496" y="17.8081"><feFlood flood-opacity="0" result="BackgroundImageFix"/><feBlend in="SourceGraphic" in2="BackgroundImageFix" mode="normal" result="shape"/><feGaussianBlur result="effect1_foregroundBlur_18_5845" stdDeviation=".375"/></filter><linearGradient id="s" gradientUnits="userSpaceOnUse" x1="3.54858" x2="29.3611" y1="26.8437" y2="26.8437"><stop offset="0" stop-color="#42cf80"/><stop offset="1" stop-color="#50db92"/></linearGradient><linearGradient id="t"><stop offset="0" stop-color="#d39364"/><stop offset="1" stop-color="#9f6941"/></linearGradient><radialGradient id="u" cx="0" cy="0" gradientTransform="matrix(0 2.53622 -1.25918 0 5.81669 6.48001)" gradientUnits="userSpaceOnUse" r="1" xlink:href="#t"/><linearGradient id="v"><stop offset="0" stop-color="#8e694b"/><stop offset="1" stop-color="#8e694b" stop-opacity="0"/></linearGradient><linearGradient id="w" gradientUnits="userSpaceOnUse" x1="3.97275" x2="4.79869" xlink:href="#v" y1="8.36641" y2="8.36641"/><linearGradient id="x"><stop offset="0" stop-color="#c77958"/><stop offset="1" stop-color="#c77958" stop-opacity="0"/></linearGradient><linearGradient id="y" gradientUnits="userSpaceOnUse" x1="5.59023" x2="5.22887" xlink:href="#x" y1="9.01623" y2="8.5901"/><linearGradient id="z"><stop offset="0" stop-color="#d5ad80"/><stop offset="1" stop-color="#d5ad80" stop-opacity="0"/></linearGradient><linearGradient id="A" gradientUnits="userSpaceOnUse" x1="5.09644" x2="5.09644" xlink:href="#z" y1="6.12926" y2="6.22231"/><linearGradient id="B"><stop offset="0" stop-color="#eaaa75"/><stop offset="1" stop-color="#eaaa75" stop-opacity="0"/></linearGradient><radialGradient id="C" cx="0" cy="0" gradientTransform="matrix(-1.36805 0 0 -.294068 6.31532 6.26265)" gradientUnits="userSpaceOnUse" r="1" xlink:href="#B"/><linearGradient id="D" gradientUnits="userSpaceOnUse" x1="8.59764" x2="5.98602" y1="16.9686" y2="14.3436"><stop offset=".163506" stop-color="#836444"/><stop offset="1" stop-color="#d38157"/></linearGradient><linearGradient id="E"><stop offset="0" stop-color="#ba8951"/><stop offset="1" stop-color="#ba8951" stop-opacity="0"/></linearGradient><linearGradient id="F" gradientUnits="userSpaceOnUse" x1="3.78225" x2="7.93483" xlink:href="#E" y1="19.3245" y2="13.4626"/><linearGradient id="G"><stop offset="0" stop-color="#beab75"/><stop offset="1" stop-color="#beab75" stop-opacity="0"/></linearGradient><radialGradient id="H" cx="0" cy="0" gradientTransform="matrix(-.88468209 -1.75479609 2.09692592 -1.05716717 10.7099 18.6241)" gradientUnits="userSpaceOnUse" r="1" xlink:href="#G"/><linearGradient id="I"><stop offset="0" stop-color="#ffe6b1"/><stop offset="1" stop-color="#ffe6b1" stop-opacity="0"/></linearGradient><linearGradient id="J" gradientUnits="userSpaceOnUse" x1="14.1032" x2="13.7495" xlink:href="#I" y1="16.379" y2="16.379"/><linearGradient id="K"><stop offset=".35" stop-color="#9e413e"/><stop offset="1" stop-color="#9e413e" stop-opacity="0"/></linearGradient><radialGradient id="L" cx="0" cy="0" gradientTransform="matrix(0 2.46128 -.509982 0 14.2333 11.5993)" gradientUnits="userSpaceOnUse" r="1" xlink:href="#K"/><linearGradient id="M" gradientUnits="userSpaceOnUse" x1="10.4507" x2="9.59039" y1="8.57957" y2="9.57582"><stop offset="0" stop-color="#9d3c3a"/><stop offset="1" stop-color="#9d3c3a" stop-opacity="0"/></linearGradient><linearGradient id="N"><stop offset="0" stop-color="#845f3d"/><stop offset="1" stop-color="#845f3d" stop-opacity="0"/></linearGradient><linearGradient id="O" gradientUnits="userSpaceOnUse" x1="3.02412" x2="3.4001" xlink:href="#N" y1="17.5835" y2="17.5835"/><linearGradient id="P" gradientUnits="userSpaceOnUse" x1="8.48441" x2="8.48441" y1="5.67188" y2="10.8198"><stop offset="0" stop-color="#e85430"/><stop offset="1" stop-color="#c11c2a"/></linearGradient><linearGradient id="Q"><stop offset="0" stop-color="#ff8337"/><stop offset="1" stop-color="#f24747"/></linearGradient><linearGradient id="R" gradientUnits="userSpaceOnUse" x1="8.39703" x2="15.4008" xlink:href="#Q" y1="6.06057" y2="13.2713"/><linearGradient id="S" gradientUnits="userSpaceOnUse" x1="8.79828" x2="1.79453" xlink:href="#Q" y1="6.06057" y2="13.2713"/><radialGradient id="T" cx="0" cy="0" gradientTransform="matrix(0 2.53622 -1.25918 0 20.8479 6.48001)" gradientUnits="userSpaceOnUse" r="1"><stop offset="0" stop-color="#ffd1a3"/><stop offset="1" stop-color="#dfa276"/></radialGradient><linearGradient id="U" gradientUnits="userSpaceOnUse" x1="19.004" x2="19.8299" xlink:href="#v" y1="8.36641" y2="8.36641"/><linearGradient id="V" gradientUnits="userSpaceOnUse" x1="20.6215" x2="20.2601" xlink:href="#x" y1="9.01623" y2="8.5901"/><linearGradient id="W" gradientUnits="userSpaceOnUse" x1="20.1277" x2="20.1277" xlink:href="#z" y1="6.12926" y2="6.22231"/><radialGradient id="X" cx="0" cy="0" gradientTransform="matrix(-1.36805 0 0 -.294068 21.3466 6.26265)" gradientUnits="userSpaceOnUse" r="1"><stop offset="0" stop-color="#ffe9b1"/><stop offset="1" stop-color="#ffe9b1" stop-opacity="0"/></radialGradient><radialGradient id="Y" cx="0" cy="0" gradientTransform="matrix(0 2.53622 -1.25918 0 20.8479 6.48001)" gradientUnits="userSpaceOnUse" r="1" xlink:href="#t"/><radialGradient id="Z" cx="0" cy="0" gradientTransform="matrix(-1.36805 0 0 -.294068 21.3466 6.26265)" gradientUnits="userSpaceOnUse" r="1" xlink:href="#B"/><linearGradient id="aa" gradientUnits="userSpaceOnUse" x1="21.611" x2="28.8307" y1="14.6575" y2="14.6575"><stop offset="0" stop-color="#e39162"/><stop offset="1" stop-color="#ebb48c"/></linearGradient><linearGradient id="ab" gradientUnits="userSpaceOnUse" x1="18.8135" x2="22.9661" xlink:href="#E" y1="19.3245" y2="13.4626"/><radialGradient id="ac" cx="0" cy="0" gradientTransform="matrix(-.88468209 -1.75479609 2.09692592 -1.05716717 25.7412 18.6241)" gradientUnits="userSpaceOnUse" r="1" xlink:href="#G"/><linearGradient id="ad" gradientUnits="userSpaceOnUse" x1="29.1345" x2="28.7807" xlink:href="#I" y1="16.379" y2="16.379"/><radialGradient id="ae" cx="0" cy="0" gradientTransform="matrix(0 2.46128 -.509982 0 29.2646 11.5993)" gradientUnits="userSpaceOnUse" r="1" xlink:href="#K"/><linearGradient id="af"><stop offset="0" stop-color="#b55852"/><stop offset="1" stop-color="#b55852" stop-opacity="0"/></linearGradient><linearGradient id="ag" gradientUnits="userSpaceOnUse" x1="25.3141" x2="24.6914" xlink:href="#af" y1="8.73427" y2="9.37762"/><linearGradient id="ah" gradientUnits="userSpaceOnUse" x1="18.0554" x2="18.4313" xlink:href="#N" y1="17.5835" y2="17.5835"/><radialGradient id="ai" cx="0" cy="0" gradientTransform="matrix(2.98213 0 0 3.49335 23.6289 17.5311)" gradientUnits="userSpaceOnUse" r="1"><stop offset="0" stop-color="#bb825c"/><stop offset="1" stop-color="#bb825c" stop-opacity="0"/></radialGradient><linearGradient id="aj"><stop offset="0" stop-color="#ea6d2e"/><stop offset="1" stop-color="#ca222b"/></linearGradient><linearGradient id="ak" gradientUnits="userSpaceOnUse" x1="23.5157" x2="23.5157" xlink:href="#aj" y1="5.67187" y2="10.0721"/><linearGradient id="al" gradientUnits="userSpaceOnUse" x1="23.4283" x2="30.432" xlink:href="#Q" y1="6.06057" y2="13.2713"/><linearGradient id="am" gradientUnits="userSpaceOnUse" x1="23.8295" x2="16.8258" xlink:href="#Q" y1="6.06057" y2="13.2713"/><linearGradient id="an" gradientUnits="userSpaceOnUse" x1="8.47577" x2="23.8129" y1="19.7209" y2="19.7209"><stop offset="0" stop-color="#d7905f"/><stop offset="1" stop-color="#e8bc97"/></linearGradient><linearGradient id="ao" gradientUnits="userSpaceOnUse" x1="8.90695" x2="14.9169" xlink:href="#E" y1="26.5232" y2="17.8618"/><radialGradient id="ap" cx="0" cy="0" gradientTransform="matrix(-1.31644597 -2.55768255 3.09378769 -1.59238071 19.2156 25.5024)" gradientUnits="userSpaceOnUse" r="1" xlink:href="#G"/><linearGradient id="aq" gradientUnits="userSpaceOnUse" x1="24.265" x2="23.7386" xlink:href="#I" y1="22.2301" y2="22.2301"/><radialGradient id="ar" cx="0" cy="0" gradientTransform="matrix(0 3.58741 -.758873 0 24.4586 15.2634)" gradientUnits="userSpaceOnUse" r="1" xlink:href="#K"/><linearGradient id="as" gradientUnits="userSpaceOnUse" x1="18.8299" x2="18.4768" xlink:href="#af" y1="10.8621" y2="11.2152"/><linearGradient id="at" gradientUnits="userSpaceOnUse" x1="7.77881" x2="8.33828" xlink:href="#N" y1="23.9857" y2="23.9857"/><linearGradient id="au" gradientUnits="userSpaceOnUse" x1="12.6093" x2="12.6093" y1="17.5404" y2="25.8124"><stop offset="0" stop-color="#805139"/><stop offset="1" stop-color="#6d4d2f"/></linearGradient><linearGradient id="av" gradientUnits="userSpaceOnUse" x1="17.9546" x2="22.7667" y1="22.0422" y2="17.2451"><stop offset="0" stop-color="#4cccff"/><stop offset="1" stop-color="#3a9ee6"/></linearGradient><linearGradient id="aw" gradientUnits="userSpaceOnUse" x1="20.1843" x2="20.1843" y1="21.9846" y2="21.1074"><stop offset="0" stop-color="#1e9fe4"/><stop offset="1" stop-color="#1e9fe4" stop-opacity="0"/></linearGradient><linearGradient id="ax" gradientUnits="userSpaceOnUse" x1="17.9546" x2="18.8502" y1="20.5714" y2="20.5714"><stop offset="0" stop-color="#48e0ff"/><stop offset="1" stop-color="#48e0ff" stop-opacity="0"/></linearGradient><linearGradient id="ay" gradientUnits="userSpaceOnUse" x1="18.6291" x2="19.2293" y1="16.4647" y2="18.2653"><stop offset="0" stop-color="#43b3f2"/><stop offset="1" stop-color="#43b3f2" stop-opacity="0"/></linearGradient><linearGradient id="az" gradientUnits="userSpaceOnUse" x1="10.266" x2="16.1546" y1="22.2112" y2="22.1733"><stop offset="0" stop-color="#70504d"/><stop offset="1" stop-color="#9b665e"/></linearGradient><linearGradient id="aA" gradientUnits="userSpaceOnUse" x1="16.0486" x2="16.0486" xlink:href="#aj" y1="6.15625" y2="17.5405"/><linearGradient id="aB" gradientUnits="userSpaceOnUse" x1="9.7062" x2="16.576" y1="26.0957" y2="26.0957"><stop offset="0" stop-color="#9fa1a3"/><stop offset="1" stop-color="#c4c1c7"/></linearGradient><linearGradient id="aC" gradientUnits="userSpaceOnUse" x1="9.38543" x2="10.2603" y1="26.0957" y2="26.0957"><stop offset="0" stop-color="#59675c"/><stop offset="1" stop-color="#59675c" stop-opacity="0"/></linearGradient><linearGradient id="aD" gradientUnits="userSpaceOnUse" x1="16.8435" x2="16.031" y1="25.6652" y2="26.0957"><stop offset="0" stop-color="#c8cac6"/><stop offset="1" stop-color="#c8cac6" stop-opacity="0"/></linearGradient><linearGradient id="aE" gradientUnits="userSpaceOnUse" x1="15.9185" x2="26.3404" xlink:href="#Q" y1="6.73469" y2="17.4645"/><linearGradient id="aF" gradientUnits="userSpaceOnUse" x1="16.5156" x2="6.09372" xlink:href="#Q" y1="6.73469" y2="17.4645"/><linearGradient id="aG"><stop offset="0" stop-color="#3b8478"/><stop offset="1" stop-color="#3b8478" stop-opacity="0"/></linearGradient><linearGradient id="aH" gradientUnits="userSpaceOnUse" x1="23.903" x2="23.903" xlink:href="#aG" y1="26.6309" y2="24.7534"/><linearGradient id="aI"><stop offset="0" stop-color="#2c785b"/><stop offset="1" stop-color="#2c785b" stop-opacity="0"/></linearGradient><radialGradient id="aJ" cx="0" cy="0" gradientTransform="matrix(-2.15101876 -5.80592639 2.64467946 -.97981868 25.7132 28.7867)" gradientUnits="userSpaceOnUse" r="1" xlink:href="#aI"/><linearGradient id="aK"><stop offset=".641466" stop-color="#2c785b" stop-opacity="0"/><stop offset=".965993" stop-color="#2c785b"/></linearGradient><radialGradient id="aL" cx="0" cy="0" gradientTransform="matrix(-5.43867007 4.23206005 -5.72822813 -7.36141324 26.6401 22.561)" gradientUnits="userSpaceOnUse" r="1" xlink:href="#aK"/><linearGradient id="aM" gradientUnits="userSpaceOnUse" x1="8.2419" x2="8.2419" xlink:href="#aG" y1="26.6309" y2="24.7534"/><radialGradient id="aN" cx="0" cy="0" gradientTransform="matrix(2.15099849 -5.80593389 2.64468288 .97980945 6.43167 28.7867)" gradientUnits="userSpaceOnUse" r="1" xlink:href="#aI"/><radialGradient id="aO" cx="0" cy="0" gradientTransform="matrix(5.43869223 4.23203157 -5.72818959 7.36144324 5.50482 22.561)" gradientUnits="userSpaceOnUse" r="1" xlink:href="#aK"/><linearGradient id="aP" gradientUnits="userSpaceOnUse" x1="27.5341" x2="27.5341" xlink:href="#aG" y1="20.4016" y2="19.374"/><radialGradient id="aQ" cx="0" cy="0" gradientTransform="matrix(-1.17725197 -3.17758188 1.44743536 -.53625561 28.5249 21.5814)" gradientUnits="userSpaceOnUse" r="1" xlink:href="#aI"/><radialGradient id="aR" cx="0" cy="0" gradientTransform="matrix(-2.97658681 2.31620855 -3.13505763 -4.02889938 29.0321 18.1741)" gradientUnits="userSpaceOnUse" r="1" xlink:href="#aK"/><linearGradient id="aS" gradientUnits="userSpaceOnUse" x1="4.56305" x2="4.56305" xlink:href="#aG" y1="20.4016" y2="19.374"/><radialGradient id="aT" cx="0" cy="0" gradientTransform="matrix(2.97659894 2.31619297 -3.13503654 4.0289158 3.06505 18.1741)" gradientUnits="userSpaceOnUse" r="1" xlink:href="#aK"/><linearGradient id="aU"><stop offset="0" stop-color="#60fb9a"/><stop offset="1" stop-color="#60fb9a" stop-opacity="0"/></linearGradient><radialGradient id="aV" cx="0" cy="0" gradientTransform="matrix(-3.36285895 2.02988725 -1.9324033 -3.20135994 28.0916 22.0014)" gradientUnits="userSpaceOnUse" r="1" xlink:href="#aU"/><radialGradient id="aW" cx="0" cy="0" gradientTransform="matrix(-3.37500663 3.56248735 -5.04135801 -4.77604971 9.79858 22.0937)" gradientUnits="userSpaceOnUse" r="1" xlink:href="#aU"/><linearGradient id="aX" gradientUnits="userSpaceOnUse" x1="8.2419" x2="8.2419" y1="26.5312" y2="24.7534"><stop offset="0" stop-color="#3b8478"/><stop offset=".818766" stop-color="#3b8478" stop-opacity="0"/></linearGradient><radialGradient id="aY" cx="0" cy="0" gradientTransform="matrix(-5.93748257 2.50003485 -3.34867335 -7.95296498 10.1111 22.4687)" gradientUnits="userSpaceOnUse" r="1"><stop offset=".591041" stop-color="#39895b" stop-opacity="0"/><stop offset="1" stop-color="#39895b"/></radialGradient><radialGradient id="aZ" cx="0" cy="0" gradientTransform="matrix(-1.84049281 1.11095736 -1.05760577 -1.75210669 29.8265 17.8678)" gradientUnits="userSpaceOnUse" r="1" xlink:href="#aU"/><radialGradient id="a0" cx="0" cy="0" gradientTransform="matrix(-1.46874754 1.96875439 -1.87420647 -1.39821207 5.36114 17.4999)" gradientUnits="userSpaceOnUse" r="1" xlink:href="#aU"/><path d="m1.98608 18.7031h27.9863v11.2969h-27.9863z" fill="url(#s)"/><path d="m4.10913 6.51028c0-.1933.1567-.35.35-.35h1.27461c.1933 0 .35.1567.35.35v5.36192h-1.97461z" fill="url(#u)"/><path d="m4.10913 6.51028c0-.1933.1567-.35.35-.35h1.27461c.1933 0 .35.1567.35.35v5.36192h-1.97461z" fill="url(#w)"/><path d="m4.10913 6.51028c0-.1933.1567-.35.35-.35h1.27461c.1933 0 .35.1567.35.35v5.36192h-1.97461z" fill="url(#y)"/><path d="m4.10913 6.51028c0-.1933.1567-.35.35-.35h1.27461c.1933 0 .35.1567.35.35v5.36192h-1.97461z" fill="url(#A)"/><path d="m4.10913 6.51028c0-.1933.1567-.35.35-.35h1.27461c.1933 0 .35.1567.35.35v5.36192h-1.97461z" fill="url(#C)"/><path d="m14.1032 19.0311h-11.01116v-7.0132l5.5056-5.61067 5.50556 5.61067z" fill="url(#D)"/><path d="m14.1032 19.0311h-11.01116v-7.0132l5.5056-5.61067 5.50556 5.61067z" fill="url(#F)"/><path d="m14.1032 19.0311h-11.01116v-7.0132l5.5056-5.61067 5.50556 5.61067z" fill="url(#H)"/><path d="m14.1032 19.0311h-11.01116v-7.0132l5.5056-5.61067 5.50556 5.61067z" fill="url(#J)"/><path d="m14.1032 19.0311h-11.01116v-7.0132l5.5056-5.61067 5.50556 5.61067z" fill="url(#L)"/><path d="m14.1032 19.0311h-11.01116v-7.0132l5.5056-5.61067 5.50556 5.61067z" fill="url(#M)"/><path d="m14.1032 19.0311h-11.01116v-7.0132l5.5056-5.61067 5.50556 5.61067z" fill="url(#O)"/><path d="m15.4459 12.2679-6.51143-6.41496c-.24142-.24142-.6346-.24142-.87602 0 0 0-.00689 0-.00689.0069l-6.52528 6.42176c-.24142.2415-.24142.6277 0 .8623.24142.2345.63459.2414.87602 0l5.91525-5.82821c.09733-.09588.2536-.09589.35092 0l5.89453 5.80751c.2415.2414.6346.2414.876 0 .2415-.2415.2484-.6208.0069-.8553z" fill="url(#P)"/><g filter="url(#a)"><path d="m8.59766 6.16028 6.52964 6.42952" stroke="url(#R)" stroke-linecap="round" stroke-width=".3"/></g><g filter="url(#b)"><path d="m8.59766 6.16028-6.52969 6.42952" stroke="url(#S)" stroke-linecap="round" stroke-opacity=".5" stroke-width=".3"/></g><path d="m19.1404 6.51028c0-.1933.1567-.35.35-.35h1.2746c.1933 0 .35.1567.35.35v5.36192h-1.9746z" fill="url(#T)"/><path d="m19.1404 6.51028c0-.1933.1567-.35.35-.35h1.2746c.1933 0 .35.1567.35.35v5.36192h-1.9746z" fill="url(#U)"/><path d="m19.1404 6.51028c0-.1933.1567-.35.35-.35h1.2746c.1933 0 .35.1567.35.35v5.36192h-1.9746z" fill="url(#V)"/><path d="m19.1404 6.51028c0-.1933.1567-.35.35-.35h1.2746c.1933 0 .35.1567.35.35v5.36192h-1.9746z" fill="url(#W)"/><path d="m19.1404 6.51028c0-.1933.1567-.35.35-.35h1.2746c.1933 0 .35.1567.35.35v5.36192h-1.9746z" fill="url(#X)"/><path d="m19.1404 6.51028c0-.1933.1567-.35.35-.35h1.2746c.1933 0 .35.1567.35.35v5.36192h-1.9746z" fill="url(#Y)"/><path d="m19.1404 6.51028c0-.1933.1567-.35.35-.35h1.2746c.1933 0 .35.1567.35.35v5.36192h-1.9746z" fill="url(#U)"/><path d="m19.1404 6.51028c0-.1933.1567-.35.35-.35h1.2746c.1933 0 .35.1567.35.35v5.36192h-1.9746z" fill="url(#V)"/><path d="m19.1404 6.51028c0-.1933.1567-.35.35-.35h1.2746c.1933 0 .35.1567.35.35v5.36192h-1.9746z" fill="url(#W)"/><path d="m19.1404 6.51028c0-.1933.1567-.35.35-.35h1.2746c.1933 0 .35.1567.35.35v5.36192h-1.9746z" fill="url(#Z)"/><path d="m29.1345 19.0311h-11.0112v-7.0132l5.5056-5.61067 5.5056 5.61067z" fill="url(#aa)"/><path d="m29.1345 19.0311h-11.0112v-7.0132l5.5056-5.61067 5.5056 5.61067z" fill="url(#ab)"/><path d="m29.1345 19.0311h-11.0112v-7.0132l5.5056-5.61067 5.5056 5.61067z" fill="url(#ac)"/><path d="m29.1345 19.0311h-11.0112v-7.0132l5.5056-5.61067 5.5056 5.61067z" fill="url(#ad)"/><path d="m29.1345 19.0311h-11.0112v-7.0132l5.5056-5.61067 5.5056 5.61067z" fill="url(#ae)"/><path d="m29.1345 19.0311h-11.0112v-7.0132l5.5056-5.61067 5.5056 5.61067z" fill="url(#ag)"/><path d="m29.1345 19.0311h-11.0112v-7.0132l5.5056-5.61067 5.5056 5.61067z" fill="url(#ah)"/><path d="m29.1345 19.0311h-11.0112v-7.0132l5.5056-5.61067 5.5056 5.61067z" fill="url(#ai)"/><path d="m30.4772 12.2679-6.5115-6.41496c-.2414-.24142-.6346-.24142-.876 0 0 0-.0069 0-.0069.0069l-6.5253 6.42176c-.2414.2415-.2414.6277 0 .8623.2415.2345.6346.2414.876 0l5.9153-5.82821c.0973-.09588.2536-.09589.3509 0l5.8946 5.80751c.2414.2414.6346.2414.876 0 .2414-.2415.2483-.6208.0069-.8553z" fill="url(#ak)"/><g filter="url(#c)"><path d="m23.6289 6.16028 6.5297 6.42952" stroke="url(#al)" stroke-linecap="round" stroke-width=".3"/></g><g filter="url(#d)"><path d="m23.6289 6.16028-6.5297 6.42952" stroke="url(#am)" stroke-linecap="round" stroke-opacity=".5" stroke-width=".3"/></g><path d="m24.265 26.0956h-16.38512v-10.2221l8.19252-8.1777 8.1926 8.1777z" fill="url(#an)"/><path d="m24.265 26.0956h-16.38512v-10.2221l8.19252-8.1777 8.1926 8.1777z" fill="url(#ao)"/><path d="m24.265 26.0956h-16.38512v-10.2221l8.19252-8.1777 8.1926 8.1777z" fill="url(#ap)"/><path d="m24.265 26.0956h-16.38512v-10.2221l8.19252-8.1777 8.1926 8.1777z" fill="url(#aq)"/><path d="m24.265 26.0956h-16.38512v-10.2221l8.19252-8.1777 8.1926 8.1777z" fill="url(#ar)"/><path d="m24.265 26.0956h-16.38512v-10.2221l8.19252-8.1777 8.1926 8.1777z" fill="url(#as)"/><path d="m24.265 26.0956h-16.38512v-10.2221l8.19252-8.1777 8.1926 8.1777z" fill="url(#at)"/><g filter="url(#e)"><path d="m15.2493 25.8124h-5.28006v-7.2639c0-.5535.40476-1.0081.89756-1.0081h3.4849c.4928 0 .8976.4546.8976 1.0081z" fill="url(#au)"/></g><g filter="url(#f)"><path d="m21.7769 21.7048h-3.1853c-.3576 0-.637-.2906-.637-.6371v-3.1855c0-.3577.2906-.6371.637-.6371h3.1853c.3576 0 .6371.2906.6371.6371v3.1855c0 .3577-.2795.6371-.6371.6371z" fill="url(#av)"/><path d="m21.7769 21.7048h-3.1853c-.3576 0-.637-.2906-.637-.6371v-3.1855c0-.3577.2906-.6371.637-.6371h3.1853c.3576 0 .6371.2906.6371.6371v3.1855c0 .3577-.2795.6371-.6371.6371z" fill="url(#aw)"/></g><path d="m21.7769 21.7048h-3.1853c-.3576 0-.637-.2906-.637-.6371v-3.1855c0-.3577.2906-.6371.637-.6371h3.1853c.3576 0 .6371.2906.6371.6371v3.1855c0 .3577-.2795.6371-.6371.6371z" fill="url(#ax)"/><path d="m21.7769 21.7048h-3.1853c-.3576 0-.637-.2906-.637-.6371v-3.1855c0-.3577.2906-.6371.637-.6371h3.1853c.3576 0 .6371.2906.6371.6371v3.1855c0 .3577-.2795.6371-.6371.6371z" fill="url(#ay)"/><g filter="url(#g)"><path d="m16.1548 25.2348h-5.8888v-7.1217c0-.5426.4515-.9883 1.0011-.9883h3.8866c.5497 0 1.0011.4457 1.0011.9883z" fill="url(#az)"/></g><g filter="url(#h)"><path d="m14.68 21.7458c.2343 0 .4242-.1899.4242-.4242 0-.2342-.1899-.4241-.4242-.4241-.2342 0-.4241.1899-.4241.4241 0 .2343.1899.4242.4241.4242z" fill="#62393d"/></g><path d="m26.4076 15.9713-9.6893-9.54562c-.3593-.35924-.9443-.35924-1.3036 0 0 0-.0102 0-.0102.01027l-9.7099 9.55595c-.35924.3592-.35924.934 0 1.283.35925.3489.9443.3592 1.30355 0l8.88775-8.75695c.0973-.09589.2536-.09589.3509-.00001l8.857 8.72616c.3593.3592.9443.3592 1.3035 0 .3593-.3593.3696-.9238.0103-1.2728z" fill="url(#aA)"/><g filter="url(#i)"><path d="m14.7901 21.6817c.2366 0 .4285-.1918.4285-.4285 0-.2366-.1919-.4285-.4285-.4285-.2367 0-.4285.1919-.4285.4285 0 .2367.1918.4285.4285.4285z" fill="#895d56"/></g><path d="m9.5083 25.9847c0-.4142.33579-.75.75-.75h5.8352c.4143 0 .75.3358.75.75v.111h-7.3352z" fill="url(#aB)"/><path d="m9.5083 25.9847c0-.4142.33579-.75.75-.75h5.8352c.4143 0 .75.3358.75.75v.111h-7.3352z" fill="url(#aC)"/><path d="m9.5083 25.9847c0-.4142.33579-.75.75-.75h5.8352c.4143 0 .75.3358.75.75v.111h-7.3352z" fill="url(#aD)"/><g filter="url(#j)"><path d="m16.217 6.88306 9.7165 9.56744" stroke="url(#aE)" stroke-linecap="round" stroke-width=".3"/></g><g filter="url(#k)"><path d="m16.217 6.88306-9.7164 9.56744" stroke="url(#aF)" stroke-linecap="round" stroke-opacity=".5" stroke-width=".3"/></g><g filter="url(#l)"><path d="m26.5044 26.0796c1.0822-.3946 1.8535-1.42 1.8535-2.6229 0-1.5442-1.2712-2.7961-2.8393-2.7961-.9287 0-1.7532.4391-2.2713 1.118-.3599.4717-.8633.8657-1.3464 1.2102-.4856.3462-.8014.909-.8014 1.5445 0 .6366.3169 1.2002.8039 1.5463z" fill="#2ead69"/><path d="m26.5044 26.0796c1.0822-.3946 1.8535-1.42 1.8535-2.6229 0-1.5442-1.2712-2.7961-2.8393-2.7961-.9287 0-1.7532.4391-2.2713 1.118-.3599.4717-.8633.8657-1.3464 1.2102-.4856.3462-.8014.909-.8014 1.5445 0 .6366.3169 1.2002.8039 1.5463z" fill="url(#aH)"/><path d="m26.5044 26.0796c1.0822-.3946 1.8535-1.42 1.8535-2.6229 0-1.5442-1.2712-2.7961-2.8393-2.7961-.9287 0-1.7532.4391-2.2713 1.118-.3599.4717-.8633.8657-1.3464 1.2102-.4856.3462-.8014.909-.8014 1.5445 0 .6366.3169 1.2002.8039 1.5463z" fill="url(#aJ)"/><path d="m26.5044 26.0796c1.0822-.3946 1.8535-1.42 1.8535-2.6229 0-1.5442-1.2712-2.7961-2.8393-2.7961-.9287 0-1.7532.4391-2.2713 1.118-.3599.4717-.8633.8657-1.3464 1.2102-.4856.3462-.8014.909-.8014 1.5445 0 .6366.3169 1.2002.8039 1.5463z" fill="url(#aL)"/></g><g filter="url(#m)"><path d="m5.64047 26.0796c-1.08216-.3946-1.85348-1.42-1.85348-2.6229 0-1.5442 1.27119-2.7961 2.83928-2.7961.92871 0 1.75327.4391 2.2713 1.118.35993.4717.86335.8657 1.34643 1.2102.4856.3462.8014.909.8014 1.5445 0 .6366-.3169 1.2002-.8039 1.5463z" fill="#2ead69"/><path d="m5.64047 26.0796c-1.08216-.3946-1.85348-1.42-1.85348-2.6229 0-1.5442 1.27119-2.7961 2.83928-2.7961.92871 0 1.75327.4391 2.2713 1.118.35993.4717.86335.8657 1.34643 1.2102.4856.3462.8014.909.8014 1.5445 0 .6366-.3169 1.2002-.8039 1.5463z" fill="url(#aM)"/><path d="m5.64047 26.0796c-1.08216-.3946-1.85348-1.42-1.85348-2.6229 0-1.5442 1.27119-2.7961 2.83928-2.7961.92871 0 1.75327.4391 2.2713 1.118.35993.4717.86335.8657 1.34643 1.2102.4856.3462.8014.909.8014 1.5445 0 .6366-.3169 1.2002-.8039 1.5463z" fill="url(#aN)"/><path d="m5.64047 26.0796c-1.08216-.3946-1.85348-1.42-1.85348-2.6229 0-1.5442 1.27119-2.7961 2.83928-2.7961.92871 0 1.75327.4391 2.2713 1.118.35993.4717.86335.8657 1.34643 1.2102.4856.3462.8014.909.8014 1.5445 0 .6366-.3169 1.2002-.8039 1.5463z" fill="url(#aO)"/></g><g filter="url(#n)"><path d="m28.9579 20.0998c.5922-.2159 1.0144-.7772 1.0144-1.4355 0-.8451-.6957-1.5303-1.5539-1.5303-.5839 0-1.0926.3171-1.3581.786-.0975.1721-.2608.3033-.4411.3844-.3655.1645-.6194.5276-.6194.9491 0 .3484.1734.6569.4399.8463z" fill="#3abd6c"/><path d="m28.9579 20.0998c.5922-.2159 1.0144-.7772 1.0144-1.4355 0-.8451-.6957-1.5303-1.5539-1.5303-.5839 0-1.0926.3171-1.3581.786-.0975.1721-.2608.3033-.4411.3844-.3655.1645-.6194.5276-.6194.9491 0 .3484.1734.6569.4399.8463z" fill="url(#aP)"/><path d="m28.9579 20.0998c.5922-.2159 1.0144-.7772 1.0144-1.4355 0-.8451-.6957-1.5303-1.5539-1.5303-.5839 0-1.0926.3171-1.3581.786-.0975.1721-.2608.3033-.4411.3844-.3655.1645-.6194.5276-.6194.9491 0 .3484.1734.6569.4399.8463z" fill="url(#aQ)"/><path d="m28.9579 20.0998c.5922-.2159 1.0144-.7772 1.0144-1.4355 0-.8451-.6957-1.5303-1.5539-1.5303-.5839 0-1.0926.3171-1.3581.786-.0975.1721-.2608.3033-.4411.3844-.3655.1645-.6194.5276-.6194.9491 0 .3484.1734.6569.4399.8463z" fill="url(#aR)"/></g><g filter="url(#o)"><path d="m3.13929 20.0998c-.59227-.2159-1.01441-.7772-1.01441-1.4355 0-.8451.69572-1.5303 1.55394-1.5303.58386 0 1.09252.3171 1.35807.786.09746.1721.26076.3033.44112.3844.36546.1645.6194.5276.6194.9491 0 .3484-.17345.6569-.43996.8463z" fill="#2ba75c"/><path d="m3.13929 20.0998c-.59227-.2159-1.01441-.7772-1.01441-1.4355 0-.8451.69572-1.5303 1.55394-1.5303.58386 0 1.09252.3171 1.35807.786.09746.1721.26076.3033.44112.3844.36546.1645.6194.5276.6194.9491 0 .3484-.17345.6569-.43996.8463z" fill="url(#aS)"/><path d="m3.13929 20.0998c-.59227-.2159-1.01441-.7772-1.01441-1.4355 0-.8451.69572-1.5303 1.55394-1.5303.58386 0 1.09252.3171 1.35807.786.09746.1721.26076.3033.44112.3844.36546.1645.6194.5276.6194.9491 0 .3484-.17345.6569-.43996.8463z" fill="url(#aT)"/></g><path d="m26.5044 26.0796c1.0822-.3946 1.8535-1.42 1.8535-2.6229 0-1.5442-1.2712-2.7961-2.8393-2.7961-.9287 0-1.7532.4391-2.2713 1.118-.3599.4717-.8633.8657-1.3464 1.2102-.4856.3462-.8014.909-.8014 1.5445 0 .6366.3169 1.2002.8039 1.5463z" fill="url(#aV)"/><path d="m5.64047 26.0796c-1.08216-.3946-1.85348-1.42-1.85348-2.6229 0-1.5442 1.27119-2.7961 2.83928-2.7961.92871 0 1.75327.4391 2.2713 1.118.35993.4717.86335.8657 1.34643 1.2102.4856.3462.8014.909.8014 1.5445 0 .6366-.3169 1.2002-.8039 1.5463z" fill="url(#aW)"/><path d="m5.64047 26.0796c-1.08216-.3946-1.85348-1.42-1.85348-2.6229 0-1.5442 1.27119-2.7961 2.83928-2.7961.92871 0 1.75327.4391 2.2713 1.118.35993.4717.86335.8657 1.34643 1.2102.4856.3462.8014.909.8014 1.5445 0 .6366-.3169 1.2002-.8039 1.5463z" fill="url(#aX)"/><path d="m5.64047 26.0796c-1.08216-.3946-1.85348-1.42-1.85348-2.6229 0-1.5442 1.27119-2.7961 2.83928-2.7961.92871 0 1.75327.4391 2.2713 1.118.35993.4717.86335.8657 1.34643 1.2102.4856.3462.8014.909.8014 1.5445 0 .6366-.3169 1.2002-.8039 1.5463z" fill="url(#aY)"/><path d="m28.9579 20.0998c.5922-.2159 1.0144-.7772 1.0144-1.4355 0-.8451-.6957-1.5303-1.5539-1.5303-.5839 0-1.0926.3171-1.3581.786-.0975.1721-.2608.3033-.4411.3844-.3655.1645-.6194.5276-.6194.9491 0 .3484.1734.6569.4399.8463z" fill="url(#aZ)"/><path d="m3.13929 20.0998c-.59227-.2159-1.01441-.7772-1.01441-1.4355 0-.8451.69572-1.5303 1.55394-1.5303.58386 0 1.09252.3171 1.35807.786.09746.1721.26076.3033.44112.3844.36546.1645.6194.5276.6194.9491 0 .3484-.17345.6569-.43996.8463z" fill="url(#a0)"/><g filter="url(#p)"><path d="m24.0698 25.3655c-.5389-.6773-.805-1.4606-.9049-1.9375-.0253-.1207-.152-.1968-.2672-.1531l-.1624.0615c-.4537.172-.7539.6066-.7539 1.0919 0 .6448.5228 1.1676 1.1677 1.1676h.8151c.1155 0 .1776-.1399.1056-.2304z" fill="#31b570"/></g><g filter="url(#q)"><path d="m27.6254 19.7091c-.295-.3707-.4406-.7994-.4953-1.0604-.0138-.066-.0831-.1077-.1462-.0838l-.0889.0337c-.2483.0941-.4126.332-.4126.5976 0 .3529.2861.639.6391.639h.4461c.0632 0 .0972-.0766.0578-.1261z" fill="#31b570"/></g><g filter="url(#r)"><path d="m4.47177 19.7091c.29495-.3707.4406-.7994.49529-1.0604.01384-.066.08315-.1077.14623-.0838l.08887.0337c.24834.0941.41259.332.41259.5976 0 .3529-.28611.639-.63904.639h-.44612c-.06324 0-.09719-.0766-.05782-.1261z" fill="#31b570"/></g></svg>