<svg fill="none" height="32" viewBox="0 0 32 32" width="32" xmlns="http://www.w3.org/2000/svg"><path d="m21.74 16.08-12.91-12.91c-1.56-1.56-4.09-1.56-5.66 0-1.56 1.56-1.56 4.09 0 5.66l12.91 12.91c-.39 2.18.26 4.5 1.94 6.18 2.73 2.73 7.17 2.73 9.9 0s2.73-7.17 0-9.9c-1.68-1.68-4-2.32-6.18-1.94z" fill="#f4f4f4"/><path d="m4.59 7.42002c-.78-.78-.78-2.05002 0-2.83002s2.04-.78 2.83 0l13.7239 13.7239c.5657-.222 1.1816-.3439 1.8261-.3439 2.7614 0 5 2.2385 5 5 0 2.7614-2.2386 5-5 5-2.7615 0-5-2.2386-5-5 0-.6445.1219-1.2604.3439-1.8261z" fill="#f8312f"/><path d="m10.23 4.59998-2.12 2.11999c-.39.39-.39 1.03 0 1.41.39.39 1.02.39 1.41 0l2.12-2.11999zm2.12 6.37002 2.12-2.12002 1.41 1.41002-2.12 2.12c-.39.39-1.02.39-1.41 0s-.39-1.02 0-1.41zm4.24 4.24 2.12-2.12 1.41 1.41-2.12 2.12c-.39.39-1.02.39-1.41 0s-.39-1.02 0-1.41z" fill="#000"/><path d="m24.97 23.97c1.1045 0 2-.8955 2-2 0-1.1046-.8955-2-2-2-1.1046 0-2 .8954-2 2 0 1.1045.8954 2 2 2z" fill="#ff8687"/></svg>