<svg fill="none" height="32" viewBox="0 0 32 32" width="32" xmlns="http://www.w3.org/2000/svg" xmlns:xlink="http://www.w3.org/1999/xlink"><filter id="a" color-interpolation-filters="sRGB" filterUnits="userSpaceOnUse" height="6.22656" width="6.42656" x="3.97894" y="14.936"><feFlood flood-opacity="0" result="BackgroundImageFix"/><feBlend in="SourceGraphic" in2="BackgroundImageFix" mode="normal" result="shape"/><feColorMatrix in="SourceAlpha" result="hardAlpha" type="matrix" values="0 0 0 0 0 0 0 0 0 0 0 0 0 0 0 0 0 0 127 0"/><feOffset dx=".2"/><feGaussianBlur stdDeviation=".15"/><feComposite in2="hardAlpha" k2="-1" k3="1" operator="arithmetic"/><feColorMatrix type="matrix" values="0 0 0 0 0.619608 0 0 0 0 0.470588 0 0 0 0 0.407843 0 0 0 1 0"/><feBlend in2="shape" mode="normal" result="effect1_innerShadow_3987_20010"/></filter><filter id="b" color-interpolation-filters="sRGB" filterUnits="userSpaceOnUse" height="6.22656" width="6.42656" x="3.97894" y="14.936"><feFlood flood-opacity="0" result="BackgroundImageFix"/><feBlend in="SourceGraphic" in2="BackgroundImageFix" mode="normal" result="shape"/><feColorMatrix in="SourceAlpha" result="hardAlpha" type="matrix" values="0 0 0 0 0 0 0 0 0 0 0 0 0 0 0 0 0 0 127 0"/><feOffset dx=".2"/><feGaussianBlur stdDeviation=".15"/><feComposite in2="hardAlpha" k2="-1" k3="1" operator="arithmetic"/><feColorMatrix type="matrix" values="0 0 0 0 0.917647 0 0 0 0 0.694118 0 0 0 0 0.607843 0 0 0 1 0"/><feBlend in2="shape" mode="normal" result="effect1_innerShadow_3987_20010"/></filter><filter id="c" color-interpolation-filters="sRGB" filterUnits="userSpaceOnUse" height="4.71094" width="4.71094" x="4.73676" y="15.6938"><feFlood flood-opacity="0" result="BackgroundImageFix"/><feBlend in="SourceGraphic" in2="BackgroundImageFix" mode="normal" result="shape"/><feGaussianBlur result="effect1_foregroundBlur_3987_20010" stdDeviation=".25"/></filter><filter id="d" color-interpolation-filters="sRGB" filterUnits="userSpaceOnUse" height="6.47656" width="6.47656" x="21.7198" y="14.686"><feFlood flood-opacity="0" result="BackgroundImageFix"/><feBlend in="SourceGraphic" in2="BackgroundImageFix" mode="normal" result="shape"/><feColorMatrix in="SourceAlpha" result="hardAlpha" type="matrix" values="0 0 0 0 0 0 0 0 0 0 0 0 0 0 0 0 0 0 127 0"/><feOffset dx=".25" dy="-.25"/><feGaussianBlur stdDeviation=".25"/><feComposite in2="hardAlpha" k2="-1" k3="1" operator="arithmetic"/><feColorMatrix type="matrix" values="0 0 0 0 0.843137 0 0 0 0 0.623529 0 0 0 0 0.580392 0 0 0 1 0"/><feBlend in2="shape" mode="normal" result="effect1_innerShadow_3987_20010"/></filter><filter id="e" color-interpolation-filters="sRGB" filterUnits="userSpaceOnUse" height="4.71094" width="4.71094" x="22.4776" y="15.6938"><feFlood flood-opacity="0" result="BackgroundImageFix"/><feBlend in="SourceGraphic" in2="BackgroundImageFix" mode="normal" result="shape"/><feGaussianBlur result="effect1_foregroundBlur_3987_20010" stdDeviation=".25"/></filter><filter id="f" color-interpolation-filters="sRGB" filterUnits="userSpaceOnUse" height="22.7302" width="19.3452" x="6.32739" y="7.56055"><feFlood flood-opacity="0" result="BackgroundImageFix"/><feBlend in="SourceGraphic" in2="BackgroundImageFix" mode="normal" result="shape"/><feColorMatrix in="SourceAlpha" result="hardAlpha" type="matrix" values="0 0 0 0 0 0 0 0 0 0 0 0 0 0 0 0 0 0 127 0"/><feOffset dy=".3"/><feGaussianBlur stdDeviation=".25"/><feComposite in2="hardAlpha" k2="-1" k3="1" operator="arithmetic"/><feColorMatrix type="matrix" values="0 0 0 0 0.854902 0 0 0 0 0.592157 0 0 0 0 0.509804 0 0 0 1 0"/><feBlend in2="shape" mode="normal" result="effect1_innerShadow_3987_20010"/></filter><filter id="g" color-interpolation-filters="sRGB" filterUnits="userSpaceOnUse" height="9.71887" width="11.9183" x="15.0095" y="5.56055"><feFlood flood-opacity="0" result="BackgroundImageFix"/><feBlend in="SourceGraphic" in2="BackgroundImageFix" mode="normal" result="shape"/><feGaussianBlur result="effect1_foregroundBlur_3987_20010" stdDeviation="1"/></filter><filter id="h" color-interpolation-filters="sRGB" filterUnits="userSpaceOnUse" height="15.5" width="23.5" x="4.19635" y="1.50928"><feFlood flood-opacity="0" result="BackgroundImageFix"/><feBlend in="SourceGraphic" in2="BackgroundImageFix" mode="normal" result="shape"/><feColorMatrix in="SourceAlpha" result="hardAlpha" type="matrix" values="0 0 0 0 0 0 0 0 0 0 0 0 0 0 0 0 0 0 127 0"/><feOffset dy="-.5"/><feGaussianBlur stdDeviation=".5"/><feComposite in2="hardAlpha" k2="-1" k3="1" operator="arithmetic"/><feColorMatrix type="matrix" values="0 0 0 0 0.701961 0 0 0 0 0.262745 0 0 0 0 0.121569 0 0 0 1 0"/><feBlend in2="shape" mode="normal" result="effect1_innerShadow_3987_20010"/></filter><filter id="i" color-interpolation-filters="sRGB" filterUnits="userSpaceOnUse" height="6.5" width="4.78204" x="13.1097" y="16.5449"><feFlood flood-opacity="0" result="BackgroundImageFix"/><feBlend in="SourceGraphic" in2="BackgroundImageFix" mode="normal" result="shape"/><feGaussianBlur result="effect1_foregroundBlur_3987_20010" stdDeviation=".375"/></filter><filter id="j" color-interpolation-filters="sRGB" filterUnits="userSpaceOnUse" height="5.5" width="4" x="13.9464" y="16.7407"><feFlood flood-opacity="0" result="BackgroundImageFix"/><feBlend in="SourceGraphic" in2="BackgroundImageFix" mode="normal" result="shape"/><feGaussianBlur result="effect1_foregroundBlur_3987_20010" stdDeviation=".125"/></filter><filter id="k" color-interpolation-filters="sRGB" filterUnits="userSpaceOnUse" height="3.1467" width="5.34039" x="18.1509" y="11.5907"><feFlood flood-opacity="0" result="BackgroundImageFix"/><feBlend in="SourceGraphic" in2="BackgroundImageFix" mode="normal" result="shape"/><feColorMatrix in="SourceAlpha" result="hardAlpha" type="matrix" values="0 0 0 0 0 0 0 0 0 0 0 0 0 0 0 0 0 0 127 0"/><feOffset dx=".25" dy="-.4"/><feGaussianBlur stdDeviation=".3"/><feComposite in2="hardAlpha" k2="-1" k3="1" operator="arithmetic"/><feColorMatrix type="matrix" values="0 0 0 0 0.627451 0 0 0 0 0.266667 0 0 0 0 0.219608 0 0 0 1 0"/><feBlend in2="shape" mode="normal" result="effect1_innerShadow_3987_20010"/></filter><filter id="l" color-interpolation-filters="sRGB" filterUnits="userSpaceOnUse" height="3.1467" width="5.3407" x="8.55103" y="11.5907"><feFlood flood-opacity="0" result="BackgroundImageFix"/><feBlend in="SourceGraphic" in2="BackgroundImageFix" mode="normal" result="shape"/><feColorMatrix in="SourceAlpha" result="hardAlpha" type="matrix" values="0 0 0 0 0 0 0 0 0 0 0 0 0 0 0 0 0 0 127 0"/><feOffset dx=".25" dy="-.4"/><feGaussianBlur stdDeviation=".3"/><feComposite in2="hardAlpha" k2="-1" k3="1" operator="arithmetic"/><feColorMatrix type="matrix" values="0 0 0 0 0.627451 0 0 0 0 0.266667 0 0 0 0 0.219608 0 0 0 1 0"/><feBlend in2="shape" mode="normal" result="effect1_innerShadow_3987_20010"/></filter><filter id="m" color-interpolation-filters="sRGB" filterUnits="userSpaceOnUse" height="1.12542" width="1.29406" x="18.7273" y="16.0438"><feFlood flood-opacity="0" result="BackgroundImageFix"/><feBlend in="SourceGraphic" in2="BackgroundImageFix" mode="normal" result="shape"/><feGaussianBlur result="effect1_foregroundBlur_3987_20010" stdDeviation=".05"/></filter><filter id="n" color-interpolation-filters="sRGB" filterUnits="userSpaceOnUse" height="1.35715" width="1.31583" x="20.3797" y="16.2702"><feFlood flood-opacity="0" result="BackgroundImageFix"/><feBlend in="SourceGraphic" in2="BackgroundImageFix" mode="normal" result="shape"/><feGaussianBlur result="effect1_foregroundBlur_3987_20010" stdDeviation=".1"/></filter><filter id="o" color-interpolation-filters="sRGB" filterUnits="userSpaceOnUse" height="1.5936" width="1.4932" x="12.0965" y="16.1519"><feFlood flood-opacity="0" result="BackgroundImageFix"/><feBlend in="SourceGraphic" in2="BackgroundImageFix" mode="normal" result="shape"/><feGaussianBlur result="effect1_foregroundBlur_3987_20010" stdDeviation=".1"/></filter><filter id="p" color-interpolation-filters="sRGB" filterUnits="userSpaceOnUse" height="1.14055" width="1.52947" x="10.6027" y="16.0288"><feFlood flood-opacity="0" result="BackgroundImageFix"/><feBlend in="SourceGraphic" in2="BackgroundImageFix" mode="normal" result="shape"/><feGaussianBlur result="effect1_foregroundBlur_3987_20010" stdDeviation=".05"/></filter><filter id="q" color-interpolation-filters="sRGB" filterUnits="userSpaceOnUse" height="2.30396" width="4.94891" x="18.2931" y="11.8954"><feFlood flood-opacity="0" result="BackgroundImageFix"/><feBlend in="SourceGraphic" in2="BackgroundImageFix" mode="normal" result="shape"/><feGaussianBlur result="effect1_foregroundBlur_3987_20010" stdDeviation=".25"/></filter><filter id="r" color-interpolation-filters="sRGB" filterUnits="userSpaceOnUse" height="2.41016" width="5.09393" x="8.55951" y="12.0142"><feFlood flood-opacity="0" result="BackgroundImageFix"/><feBlend in="SourceGraphic" in2="BackgroundImageFix" mode="normal" result="shape"/><feGaussianBlur result="effect1_foregroundBlur_3987_20010" stdDeviation=".25"/></filter><radialGradient id="s" cx="0" cy="0" gradientTransform="matrix(3.27255 0 0 5.72699 3.97894 18.0493)" gradientUnits="userSpaceOnUse" r="1"><stop offset=".350532" stop-color="#865d5f"/><stop offset="1" stop-color="#76594a"/></radialGradient><radialGradient id="t" cx="0" cy="0" gradientTransform="matrix(3.27255 0 0 5.72699 3.97894 18.0493)" gradientUnits="userSpaceOnUse" r="1"><stop offset=".350532" stop-color="#cf9888"/><stop offset="1" stop-color="#be8c77"/></radialGradient><linearGradient id="u" gradientUnits="userSpaceOnUse" x1="7.09221" x2="5.89766" y1="18.569" y2="18.569"><stop offset="0" stop-color="#ba7c6b"/><stop offset="1" stop-color="#be8474"/></linearGradient><linearGradient id="v" gradientUnits="userSpaceOnUse" x1="26.8591" x2="25.3324" y1="16.0137" y2="20.7435"><stop offset="0" stop-color="#fbd3bd"/><stop offset="1" stop-color="#f0b8a4"/></linearGradient><radialGradient id="w" cx="0" cy="0" gradientTransform="matrix(1.5416695 -1.12257344 1.28127607 1.7596214 25.527 17.5554)" gradientUnits="userSpaceOnUse" r="1"><stop offset=".542503" stop-color="#d9aa94"/><stop offset="1" stop-color="#d9aa94" stop-opacity="0"/></radialGradient><radialGradient id="x" cx="0" cy="0" gradientTransform="matrix(1.53152654 -2.8169094 1.64874151 .89640489 24.756 19.5809)" gradientUnits="userSpaceOnUse" r="1"><stop offset=".754913" stop-color="#d6a38d" stop-opacity="0"/><stop offset=".915553" stop-color="#d6a38d"/></radialGradient><radialGradient id="y" cx="0" cy="0" gradientTransform="matrix(.48353237 .47862379 -.61701298 .62334082 24.8331 18.0493)" gradientUnits="userSpaceOnUse" r="1"><stop offset="0" stop-color="#d5a58e"/><stop offset="1" stop-color="#d5a58e" stop-opacity="0"/></radialGradient><radialGradient id="z" cx="0" cy="0" gradientTransform="matrix(-14.1844 0 0 -27.6939 24.1875 20.3657)" gradientUnits="userSpaceOnUse" r="1"><stop offset="0" stop-color="#ffdbc1"/><stop offset="1" stop-color="#d9a496"/></radialGradient><linearGradient id="A" gradientUnits="userSpaceOnUse" x1="5.6875" x2="9.46875" y1="23.1782" y2="22.9907"><stop offset=".322622" stop-color="#e8ad97"/><stop offset="1" stop-color="#e8ad97" stop-opacity="0"/></linearGradient><radialGradient id="B" cx="0" cy="0" gradientTransform="matrix(0 16.3495 -27.7163 0 17.2165 14.2364)" gradientUnits="userSpaceOnUse" r="1"><stop offset=".652381" stop-color="#d49a9f" stop-opacity="0"/><stop offset="1" stop-color="#b57895"/></radialGradient><radialGradient id="C" cx="0" cy="0" gradientTransform="matrix(-2.9969 0 0 -3.02146 18.1115 17.6782)" gradientUnits="userSpaceOnUse" r="1"><stop offset="0" stop-color="#ffdfc3"/><stop offset="1" stop-color="#ffdfc3" stop-opacity="0"/></radialGradient><radialGradient id="D" cx="0" cy="0" gradientTransform="matrix(0 -2.5 2.93253 0 20.3213 15.7407)" gradientUnits="userSpaceOnUse" r="1"><stop offset=".2375" stop-color="#f6b8a7"/><stop offset="1" stop-color="#f6b8a7" stop-opacity="0"/></radialGradient><radialGradient id="E" cx="0" cy="0" gradientTransform="matrix(0 -2.59375 3.22556 0 11.8214 15.6157)" gradientUnits="userSpaceOnUse" r="1"><stop offset="0" stop-color="#d0948d"/><stop offset="1" stop-color="#d0948d" stop-opacity="0"/></radialGradient><radialGradient id="F" cx="0" cy="0" gradientTransform="matrix(-8.16694402 4.86770299 -4.19822904 -7.04371273 26.3125 10.2407)" gradientUnits="userSpaceOnUse" r="1"><stop offset="0" stop-color="#ffdabf"/><stop offset="1" stop-color="#ffdabf" stop-opacity="0"/></radialGradient><linearGradient id="G" gradientUnits="userSpaceOnUse" x1="15.7012" x2="30.8887" y1="13.2095" y2="7.77196"><stop offset="0" stop-color="#fcc8a7"/><stop offset="1" stop-color="#fcc8a7" stop-opacity="0"/></linearGradient><linearGradient id="H" gradientUnits="userSpaceOnUse" x1="3.43345" x2="25.9102" y1="11.3558" y2="11.3558"><stop offset="0" stop-color="#bc613d"/><stop offset=".349231" stop-color="#c26333"/><stop offset="1" stop-color="#ea8455"/></linearGradient><radialGradient id="I" cx="0" cy="0" gradientTransform="matrix(-8.06249699 -1.56251808 1.19912581 -6.18741527 21.4375 8.17822)" gradientUnits="userSpaceOnUse" r="1"><stop offset=".222607" stop-color="#f78d61"/><stop offset="1" stop-color="#f78d61" stop-opacity="0"/></radialGradient><radialGradient id="J" cx="0" cy="0" gradientTransform="matrix(-.5625043 -7.49997544 14.0749688 -1.05563419 26.8125 17.0092)" gradientUnits="userSpaceOnUse" r="1"><stop offset="0" stop-color="#d56a42"/><stop offset="1" stop-color="#d56a42" stop-opacity="0"/></radialGradient><radialGradient id="K" cx="0" cy="0" gradientTransform="matrix(3.81250014 -.62500001 1.78488002 10.88776832 3.8125 11.5532)" gradientUnits="userSpaceOnUse" r="1"><stop offset="0" stop-color="#ba7260"/><stop offset="1" stop-color="#ba7260" stop-opacity="0"/></radialGradient><radialGradient id="L" cx="0" cy="0" gradientTransform="matrix(1.18749963 1.40625125 -6.20388018 5.23882586 7.8125 4.80322)" gradientUnits="userSpaceOnUse" r="1"><stop offset="0" stop-color="#af725f"/><stop offset="1" stop-color="#af725f" stop-opacity="0"/></radialGradient><radialGradient id="M" cx="0" cy="0" gradientTransform="matrix(.26562376 1.59374636 -2.85032352 .47505278 17.7656 1.86572)" gradientUnits="userSpaceOnUse" r="1"><stop offset=".172811" stop-color="#bd765f"/><stop offset="1" stop-color="#bd765f" stop-opacity="0"/></radialGradient><radialGradient id="N" cx="0" cy="0" gradientTransform="matrix(-.25000295 -4.59375215 1.72724402 -.09400074 8.21875 11.8032)" gradientUnits="userSpaceOnUse" r="1"><stop offset=".169151" stop-color="#de6f4f"/><stop offset="1" stop-color="#de6f4f" stop-opacity="0"/></radialGradient><radialGradient id="O" cx="0" cy="0" gradientTransform="matrix(-.69635268 -4.37499865 1.72998341 -.27535519 4.19635 11.1157)" gradientUnits="userSpaceOnUse" r="1"><stop offset="0" stop-color="#b97362"/><stop offset="1" stop-color="#b97362" stop-opacity="0"/></radialGradient><radialGradient id="P" cx="0" cy="0" gradientTransform="matrix(1.11615025 -5.99999693 2.31519168 .43068385 27.6963 14.3657)" gradientUnits="userSpaceOnUse" r="1"><stop offset=".442242" stop-color="#d57852"/><stop offset="1" stop-color="#d57852" stop-opacity="0"/></radialGradient><linearGradient id="Q" gradientUnits="userSpaceOnUse" x1="14.3348" x2="16.0844" y1="20.005" y2="20.005"><stop offset="0" stop-color="#dfa790"/><stop offset="1" stop-color="#dfa790" stop-opacity="0"/></linearGradient><linearGradient id="R" gradientUnits="userSpaceOnUse" x1="17.6964" x2="15.7837" y1="20.6064" y2="20.5791"><stop offset="0" stop-color="#ffdfc4"/><stop offset="1" stop-color="#ffdfc4" stop-opacity="0"/></linearGradient><linearGradient id="S" gradientUnits="userSpaceOnUse" x1="16.3091" x2="16.3091" y1="21.9907" y2="20.9221"><stop offset="0" stop-color="#dc9c96"/><stop offset="1" stop-color="#dc9c96" stop-opacity="0"/></linearGradient><radialGradient id="T" cx="0" cy="0" gradientTransform="matrix(0 .367187 -1.17969 0 16.5565 21.0454)" gradientUnits="userSpaceOnUse" r="1"><stop offset="0" stop-color="#ffd7c1"/><stop offset="1" stop-color="#ffd7c1" stop-opacity="0"/></radialGradient><linearGradient id="U" gradientUnits="userSpaceOnUse" x1="16.1807" x2="16.1807" y1="22.0688" y2="21.7563"><stop offset="0" stop-color="#d6938e"/><stop offset="1" stop-color="#d6938e" stop-opacity="0"/></linearGradient><linearGradient id="V" gradientUnits="userSpaceOnUse" x1="14.0125" x2="14.8236" y1="25.0025" y2="23.7204"><stop offset="0" stop-color="#d9a4a4"/><stop offset=".663171" stop-color="#d9a4a4" stop-opacity="0"/></linearGradient><linearGradient id="W"><stop offset="0" stop-color="#a83e3f"/><stop offset="1" stop-color="#a83e3f" stop-opacity="0"/></linearGradient><radialGradient id="X" cx="0" cy="0" gradientTransform="matrix(.19430567 -1.12500349 3.3282232 .57483611 20.5018 14.1626)" gradientUnits="userSpaceOnUse" r="1" xlink:href="#W"/><radialGradient id="Y" cx="0" cy="0" gradientTransform="matrix(.19431745 -1.12500146 3.32839456 .5749016 10.9021 14.1626)" gradientUnits="userSpaceOnUse" r="1" xlink:href="#W"/><linearGradient id="Z"><stop offset=".75" stop-color="#7d574a"/><stop offset="1" stop-color="#5e433e"/></linearGradient><radialGradient id="aa" cx="0" cy="0" gradientTransform="matrix(0 1.68424 -1.9929 0 20.0096 17.3994)" gradientUnits="userSpaceOnUse" r="1" xlink:href="#Z"/><linearGradient id="ab"><stop offset=".765532" stop-color="#ffe6e2" stop-opacity="0"/><stop offset=".966159" stop-color="#ffe6e2"/></linearGradient><radialGradient id="ac" cx="0" cy="0" gradientTransform="matrix(-.43239025 -.55719314 .76712139 -.59529772 19.5842 16.9343)" gradientUnits="userSpaceOnUse" r="1" xlink:href="#ab"/><linearGradient id="ad"><stop offset="0" stop-color="#b4948d"/><stop offset="1" stop-color="#b4948d" stop-opacity="0"/></linearGradient><linearGradient id="ae" gradientUnits="userSpaceOnUse" x1="21.4601" x2="20.8751" xlink:href="#ad" y1="16.8779" y2="17.2383"/><radialGradient id="af" cx="0" cy="0" gradientTransform="matrix(0 1.68433 -1.993 0 11.8733 17.3994)" gradientUnits="userSpaceOnUse" r="1" xlink:href="#Z"/><linearGradient id="ag" gradientUnits="userSpaceOnUse" x1="13.2601" x2="12.6751" xlink:href="#ad" y1="16.8778" y2="17.2383"/><radialGradient id="ah" cx="0" cy="0" gradientTransform="matrix(-.01442275 -.9211761 1.10729429 -.01733678 11.3393 17.1862)" gradientUnits="userSpaceOnUse" r="1" xlink:href="#ab"/><linearGradient id="ai"><stop offset="0" stop-color="#cc725e"/><stop offset="1" stop-color="#cc725e" stop-opacity="0"/></linearGradient><linearGradient id="aj" gradientUnits="userSpaceOnUse" x1="21.4894" x2="20.7058" xlink:href="#ai" y1="12.8879" y2="11.2866"/><linearGradient id="ak" gradientUnits="userSpaceOnUse" x1="11.5969" x2="9.37932" xlink:href="#ai" y1="12.6496" y2="11.7195"/><g filter="url(#a)"><circle cx="7.09222" cy="18.0493" fill="url(#s)" r="3.11328"/></g><g filter="url(#b)"><circle cx="7.09222" cy="18.0493" fill="url(#t)" r="3.11328"/></g><g filter="url(#c)"><circle cx="7.09222" cy="18.0493" fill="url(#u)" r="1.85547"/></g><g filter="url(#d)"><circle cx="24.8331" cy="18.0493" fill="url(#v)" r="3.11328"/><circle cx="24.8331" cy="18.0493" fill="url(#w)" r="3.11328"/></g><g filter="url(#e)"><circle cx="24.8331" cy="18.0493" fill="#e4af9a" r="1.85547"/><circle cx="24.8331" cy="18.0493" fill="url(#x)" r="1.85547"/><circle cx="24.8331" cy="18.0493" fill="url(#y)" r="1.85547"/></g><g filter="url(#f)"><path d="m6.32739 14.2243c0-.4973.20006-1.094.60018-1.3924l.30009-.2984c.50014-.3978.7002-.9946.7002-1.5913v-1.59138c0-.4973.30009-.89514.80024-.9946 1.20035-.29837 3.7011-.79567 7.3021-.79567 3.6011 0 6.1018.4973 7.3022.79567.4001.09946.8002.4973.8002.9946v1.59138c0 .5967.3001 1.1935.7002 1.5913.9363.6561.878 1.017.8003 1.7903-.1001.9946-.2001 2.6854-.2001 2.6854.0113 0 .0226-.0001.0337-.0004l-.4957 7.3819c-.2994 3.3-2.8937 5.6-5.9869 5.6h-5.9868c-3.19303 0-5.68756-2.3-5.9869-5.6-.26-3.3874-.37383-6.7848-.68301-10.1664z" fill="url(#z)"/><path d="m6.32739 14.2243c0-.4973.20006-1.094.60018-1.3924l.30009-.2984c.50014-.3978.7002-.9946.7002-1.5913v-1.59138c0-.4973.30009-.89514.80024-.9946 1.20035-.29837 3.7011-.79567 7.3021-.79567 3.6011 0 6.1018.4973 7.3022.79567.4001.09946.8002.4973.8002.9946v1.59138c0 .5967.3001 1.1935.7002 1.5913.9363.6561.878 1.017.8003 1.7903-.1001.9946-.2001 2.6854-.2001 2.6854.0113 0 .0226-.0001.0337-.0004l-.4957 7.3819c-.2994 3.3-2.8937 5.6-5.9869 5.6h-5.9868c-3.19303 0-5.68756-2.3-5.9869-5.6-.26-3.3874-.37383-6.7848-.68301-10.1664z" fill="url(#A)"/><path d="m6.32739 14.2243c0-.4973.20006-1.094.60018-1.3924l.30009-.2984c.50014-.3978.7002-.9946.7002-1.5913v-1.59138c0-.4973.30009-.89514.80024-.9946 1.20035-.29837 3.7011-.79567 7.3021-.79567 3.6011 0 6.1018.4973 7.3022.79567.4001.09946.8002.4973.8002.9946v1.59138c0 .5967.3001 1.1935.7002 1.5913.9363.6561.878 1.017.8003 1.7903-.1001.9946-.2001 2.6854-.2001 2.6854.0113 0 .0226-.0001.0337-.0004l-.4957 7.3819c-.2994 3.3-2.8937 5.6-5.9869 5.6h-5.9868c-3.19303 0-5.68756-2.3-5.9869-5.6-.26-3.3874-.37383-6.7848-.68301-10.1664z" fill="url(#B)"/><path d="m6.32739 14.2243c0-.4973.20006-1.094.60018-1.3924l.30009-.2984c.50014-.3978.7002-.9946.7002-1.5913v-1.59138c0-.4973.30009-.89514.80024-.9946 1.20035-.29837 3.7011-.79567 7.3021-.79567 3.6011 0 6.1018.4973 7.3022.79567.4001.09946.8002.4973.8002.9946v1.59138c0 .5967.3001 1.1935.7002 1.5913.9363.6561.878 1.017.8003 1.7903-.1001.9946-.2001 2.6854-.2001 2.6854.0113 0 .0226-.0001.0337-.0004l-.4957 7.3819c-.2994 3.3-2.8937 5.6-5.9869 5.6h-5.9868c-3.19303 0-5.68756-2.3-5.9869-5.6-.26-3.3874-.37383-6.7848-.68301-10.1664z" fill="url(#C)"/><path d="m6.32739 14.2243c0-.4973.20006-1.094.60018-1.3924l.30009-.2984c.50014-.3978.7002-.9946.7002-1.5913v-1.59138c0-.4973.30009-.89514.80024-.9946 1.20035-.29837 3.7011-.79567 7.3021-.79567 3.6011 0 6.1018.4973 7.3022.79567.4001.09946.8002.4973.8002.9946v1.59138c0 .5967.3001 1.1935.7002 1.5913.9363.6561.878 1.017.8003 1.7903-.1001.9946-.2001 2.6854-.2001 2.6854.0113 0 .0226-.0001.0337-.0004l-.4957 7.3819c-.2994 3.3-2.8937 5.6-5.9869 5.6h-5.9868c-3.19303 0-5.68756-2.3-5.9869-5.6-.26-3.3874-.37383-6.7848-.68301-10.1664z" fill="url(#D)"/><path d="m6.32739 14.2243c0-.4973.20006-1.094.60018-1.3924l.30009-.2984c.50014-.3978.7002-.9946.7002-1.5913v-1.59138c0-.4973.30009-.89514.80024-.9946 1.20035-.29837 3.7011-.79567 7.3021-.79567 3.6011 0 6.1018.4973 7.3022.79567.4001.09946.8002.4973.8002.9946v1.59138c0 .5967.3001 1.1935.7002 1.5913.9363.6561.878 1.017.8003 1.7903-.1001.9946-.2001 2.6854-.2001 2.6854.0113 0 .0226-.0001.0337-.0004l-.4957 7.3819c-.2994 3.3-2.8937 5.6-5.9869 5.6h-5.9868c-3.19303 0-5.68756-2.3-5.9869-5.6-.26-3.3874-.37383-6.7848-.68301-10.1664z" fill="url(#E)"/><path d="m6.32739 14.2243c0-.4973.20006-1.094.60018-1.3924l.30009-.2984c.50014-.3978.7002-.9946.7002-1.5913v-1.59138c0-.4973.30009-.89514.80024-.9946 1.20035-.29837 3.7011-.79567 7.3021-.79567 3.6011 0 6.1018.4973 7.3022.79567.4001.09946.8002.4973.8002.9946v1.59138c0 .5967.3001 1.1935.7002 1.5913.9363.6561.878 1.017.8003 1.7903-.1001.9946-.2001 2.6854-.2001 2.6854.0113 0 .0226-.0001.0337-.0004l-.4957 7.3819c-.2994 3.3-2.8937 5.6-5.9869 5.6h-5.9868c-3.19303 0-5.68756-2.3-5.9869-5.6-.26-3.3874-.37383-6.7848-.68301-10.1664z" fill="url(#F)"/></g><g filter="url(#g)"><path d="m24.084 7.56055-5.739 1.91336c-.9771.32577-1.5332 1.35439-1.2707 2.35039.251.9521 1.1716 1.5684 2.1475 1.4377l5.7059-.764z" fill="url(#G)"/></g><g filter="url(#h)"><path d="m24.9328 5.96926.8003.39784c1.4004.69621 2.2006 2.28757 1.9005 3.9784l-1.1003 5.6692c-.0981.5855-.4851.9795-1.0666.9942-.0111.0002-.0224.0003-.0337.0003 0 0 .1-1.6908.2001-2.6854.0812-.8077-.0598-1.054-.8003-1.7903-.4001-.3978-.7002-.9946-.7002-1.5913v-1.59137c0-.4973-.4001-.89513-.8002-.99459-1.2004-.29838-3.7011-.79568-7.3022-.79568-3.601 0-6.10175.4973-7.3021.79568-.50015.09946-.80024.49729-.80024.99459v1.59137c0 .5967-.20006 1.1935-.7002 1.5913l-.30009.2984c-.40012.2984-.60018.8952-.60018 1.3925.10003 1.094.20006 2.6854.20006 2.6854-.03077 0-.06128-.0011-.09149-.0031-.55892-.0383-1.01396-.4253-1.10887-.9915l-1.10032-5.6692c-.20006-1.59133.60018-3.18269 2.00059-3.8789l.80023-.39784c.50015-.29838 1.00029-.69622 1.50044-1.09405l1.80057-1.88974c1.1003-.9946 2.7008-1.29297 4.1012-.59676 1.0309.51254 2.1006.29838 3.1009 0 1.5004-.4973 3.2009-.09946 4.4013.9946l1.5004 1.49189c.4001.4973.9003.79568 1.5004 1.09406z" fill="url(#H)"/><path d="m24.9328 5.96926.8003.39784c1.4004.69621 2.2006 2.28757 1.9005 3.9784l-1.1003 5.6692c-.0981.5855-.4851.9795-1.0666.9942-.0111.0002-.0224.0003-.0337.0003 0 0 .1-1.6908.2001-2.6854.0812-.8077-.0598-1.054-.8003-1.7903-.4001-.3978-.7002-.9946-.7002-1.5913v-1.59137c0-.4973-.4001-.89513-.8002-.99459-1.2004-.29838-3.7011-.79568-7.3022-.79568-3.601 0-6.10175.4973-7.3021.79568-.50015.09946-.80024.49729-.80024.99459v1.59137c0 .5967-.20006 1.1935-.7002 1.5913l-.30009.2984c-.40012.2984-.60018.8952-.60018 1.3925.10003 1.094.20006 2.6854.20006 2.6854-.03077 0-.06128-.0011-.09149-.0031-.55892-.0383-1.01396-.4253-1.10887-.9915l-1.10032-5.6692c-.20006-1.59133.60018-3.18269 2.00059-3.8789l.80023-.39784c.50015-.29838 1.00029-.69622 1.50044-1.09405l1.80057-1.88974c1.1003-.9946 2.7008-1.29297 4.1012-.59676 1.0309.51254 2.1006.29838 3.1009 0 1.5004-.4973 3.2009-.09946 4.4013.9946l1.5004 1.49189c.4001.4973.9003.79568 1.5004 1.09406z" fill="url(#I)"/><path d="m24.9328 5.96926.8003.39784c1.4004.69621 2.2006 2.28757 1.9005 3.9784l-1.1003 5.6692c-.0981.5855-.4851.9795-1.0666.9942-.0111.0002-.0224.0003-.0337.0003 0 0 .1-1.6908.2001-2.6854.0812-.8077-.0598-1.054-.8003-1.7903-.4001-.3978-.7002-.9946-.7002-1.5913v-1.59137c0-.4973-.4001-.89513-.8002-.99459-1.2004-.29838-3.7011-.79568-7.3022-.79568-3.601 0-6.10175.4973-7.3021.79568-.50015.09946-.80024.49729-.80024.99459v1.59137c0 .5967-.20006 1.1935-.7002 1.5913l-.30009.2984c-.40012.2984-.60018.8952-.60018 1.3925.10003 1.094.20006 2.6854.20006 2.6854-.03077 0-.06128-.0011-.09149-.0031-.55892-.0383-1.01396-.4253-1.10887-.9915l-1.10032-5.6692c-.20006-1.59133.60018-3.18269 2.00059-3.8789l.80023-.39784c.50015-.29838 1.00029-.69622 1.50044-1.09405l1.80057-1.88974c1.1003-.9946 2.7008-1.29297 4.1012-.59676 1.0309.51254 2.1006.29838 3.1009 0 1.5004-.4973 3.2009-.09946 4.4013.9946l1.5004 1.49189c.4001.4973.9003.79568 1.5004 1.09406z" fill="url(#J)"/><path d="m24.9328 5.96926.8003.39784c1.4004.69621 2.2006 2.28757 1.9005 3.9784l-1.1003 5.6692c-.0981.5855-.4851.9795-1.0666.9942-.0111.0002-.0224.0003-.0337.0003 0 0 .1-1.6908.2001-2.6854.0812-.8077-.0598-1.054-.8003-1.7903-.4001-.3978-.7002-.9946-.7002-1.5913v-1.59137c0-.4973-.4001-.89513-.8002-.99459-1.2004-.29838-3.7011-.79568-7.3022-.79568-3.601 0-6.10175.4973-7.3021.79568-.50015.09946-.80024.49729-.80024.99459v1.59137c0 .5967-.20006 1.1935-.7002 1.5913l-.30009.2984c-.40012.2984-.60018.8952-.60018 1.3925.10003 1.094.20006 2.6854.20006 2.6854-.03077 0-.06128-.0011-.09149-.0031-.55892-.0383-1.01396-.4253-1.10887-.9915l-1.10032-5.6692c-.20006-1.59133.60018-3.18269 2.00059-3.8789l.80023-.39784c.50015-.29838 1.00029-.69622 1.50044-1.09405l1.80057-1.88974c1.1003-.9946 2.7008-1.29297 4.1012-.59676 1.0309.51254 2.1006.29838 3.1009 0 1.5004-.4973 3.2009-.09946 4.4013.9946l1.5004 1.49189c.4001.4973.9003.79568 1.5004 1.09406z" fill="url(#K)"/><path d="m24.9328 5.96926.8003.39784c1.4004.69621 2.2006 2.28757 1.9005 3.9784l-1.1003 5.6692c-.0981.5855-.4851.9795-1.0666.9942-.0111.0002-.0224.0003-.0337.0003 0 0 .1-1.6908.2001-2.6854.0812-.8077-.0598-1.054-.8003-1.7903-.4001-.3978-.7002-.9946-.7002-1.5913v-1.59137c0-.4973-.4001-.89513-.8002-.99459-1.2004-.29838-3.7011-.79568-7.3022-.79568-3.601 0-6.10175.4973-7.3021.79568-.50015.09946-.80024.49729-.80024.99459v1.59137c0 .5967-.20006 1.1935-.7002 1.5913l-.30009.2984c-.40012.2984-.60018.8952-.60018 1.3925.10003 1.094.20006 2.6854.20006 2.6854-.03077 0-.06128-.0011-.09149-.0031-.55892-.0383-1.01396-.4253-1.10887-.9915l-1.10032-5.6692c-.20006-1.59133.60018-3.18269 2.00059-3.8789l.80023-.39784c.50015-.29838 1.00029-.69622 1.50044-1.09405l1.80057-1.88974c1.1003-.9946 2.7008-1.29297 4.1012-.59676 1.0309.51254 2.1006.29838 3.1009 0 1.5004-.4973 3.2009-.09946 4.4013.9946l1.5004 1.49189c.4001.4973.9003.79568 1.5004 1.09406z" fill="url(#L)"/><path d="m24.9328 5.96926.8003.39784c1.4004.69621 2.2006 2.28757 1.9005 3.9784l-1.1003 5.6692c-.0981.5855-.4851.9795-1.0666.9942-.0111.0002-.0224.0003-.0337.0003 0 0 .1-1.6908.2001-2.6854.0812-.8077-.0598-1.054-.8003-1.7903-.4001-.3978-.7002-.9946-.7002-1.5913v-1.59137c0-.4973-.4001-.89513-.8002-.99459-1.2004-.29838-3.7011-.79568-7.3022-.79568-3.601 0-6.10175.4973-7.3021.79568-.50015.09946-.80024.49729-.80024.99459v1.59137c0 .5967-.20006 1.1935-.7002 1.5913l-.30009.2984c-.40012.2984-.60018.8952-.60018 1.3925.10003 1.094.20006 2.6854.20006 2.6854-.03077 0-.06128-.0011-.09149-.0031-.55892-.0383-1.01396-.4253-1.10887-.9915l-1.10032-5.6692c-.20006-1.59133.60018-3.18269 2.00059-3.8789l.80023-.39784c.50015-.29838 1.00029-.69622 1.50044-1.09405l1.80057-1.88974c1.1003-.9946 2.7008-1.29297 4.1012-.59676 1.0309.51254 2.1006.29838 3.1009 0 1.5004-.4973 3.2009-.09946 4.4013.9946l1.5004 1.49189c.4001.4973.9003.79568 1.5004 1.09406z" fill="url(#M)"/></g><path d="m24.9328 5.96926.8003.39784c1.4004.69621 2.2006 2.28757 1.9005 3.9784l-1.1003 5.6692c-.0981.5855-.4851.9795-1.0666.9942-.0111.0002-.0224.0003-.0337.0003 0 0 .1-1.6908.2001-2.6854.0812-.8077-.0598-1.054-.8003-1.7903-.4001-.3978-.7002-.9946-.7002-1.5913v-1.59137c0-.4973-.4001-.89513-.8002-.99459-1.2004-.29838-3.7011-.79568-7.3022-.79568-3.601 0-6.10175.4973-7.3021.79568-.50015.09946-.80024.49729-.80024.99459v1.59137c0 .5967-.20006 1.1935-.7002 1.5913l-.30009.2984c-.40012.2984-.60018.8952-.60018 1.3925.10003 1.094.20006 2.6854.20006 2.6854-.03077 0-.06128-.0011-.09149-.0031-.55892-.0383-1.01396-.4253-1.10887-.9915l-1.10032-5.6692c-.20006-1.59133.60018-3.18269 2.00059-3.8789l.80023-.39784c.50015-.29838 1.00029-.69622 1.50044-1.09405l1.80057-1.88974c1.1003-.9946 2.7008-1.29297 4.1012-.59676 1.0309.51254 2.1006.29838 3.1009 0 1.5004-.4973 3.2009-.09946 4.4013.9946l1.5004 1.49189c.4001.4973.9003.79568 1.5004 1.09406z" fill="url(#N)"/><path d="m24.9328 5.96926.8003.39784c1.4004.69621 2.2006 2.28757 1.9005 3.9784l-1.1003 5.6692c-.0981.5855-.4851.9795-1.0666.9942-.0111.0002-.0224.0003-.0337.0003 0 0 .1-1.6908.2001-2.6854.0812-.8077-.0598-1.054-.8003-1.7903-.4001-.3978-.7002-.9946-.7002-1.5913v-1.59137c0-.4973-.4001-.89513-.8002-.99459-1.2004-.29838-3.7011-.79568-7.3022-.79568-3.601 0-6.10175.4973-7.3021.79568-.50015.09946-.80024.49729-.80024.99459v1.59137c0 .5967-.20006 1.1935-.7002 1.5913l-.30009.2984c-.40012.2984-.60018.8952-.60018 1.3925.10003 1.094.20006 2.6854.20006 2.6854-.03077 0-.06128-.0011-.09149-.0031-.55892-.0383-1.01396-.4253-1.10887-.9915l-1.10032-5.6692c-.20006-1.59133.60018-3.18269 2.00059-3.8789l.80023-.39784c.50015-.29838 1.00029-.69622 1.50044-1.09405l1.80057-1.88974c1.1003-.9946 2.7008-1.29297 4.1012-.59676 1.0309.51254 2.1006.29838 3.1009 0 1.5004-.4973 3.2009-.09946 4.4013.9946l1.5004 1.49189c.4001.4973.9003.79568 1.5004 1.09406z" fill="url(#O)"/><path d="m24.9328 5.96926.8003.39784c1.4004.69621 2.2006 2.28757 1.9005 3.9784l-1.1003 5.6692c-.0981.5855-.4851.9795-1.0666.9942-.0111.0002-.0224.0003-.0337.0003 0 0 .1-1.6908.2001-2.6854.0812-.8077-.0598-1.054-.8003-1.7903-.4001-.3978-.7002-.9946-.7002-1.5913v-1.59137c0-.4973-.4001-.89513-.8002-.99459-1.2004-.29838-3.7011-.79568-7.3022-.79568-3.601 0-6.10175.4973-7.3021.79568-.50015.09946-.80024.49729-.80024.99459v1.59137c0 .5967-.20006 1.1935-.7002 1.5913l-.30009.2984c-.40012.2984-.60018.8952-.60018 1.3925.10003 1.094.20006 2.6854.20006 2.6854-.03077 0-.06128-.0011-.09149-.0031-.55892-.0383-1.01396-.4253-1.10887-.9915l-1.10032-5.6692c-.20006-1.59133.60018-3.18269 2.00059-3.8789l.80023-.39784c.50015-.29838 1.00029-.69622 1.50044-1.09405l1.80057-1.88974c1.1003-.9946 2.7008-1.29297 4.1012-.59676 1.0309.51254 2.1006.29838 3.1009 0 1.5004-.4973 3.2009-.09946 4.4013.9946l1.5004 1.49189c.4001.4973.9003.79568 1.5004 1.09406z" fill="url(#P)"/><g filter="url(#i)"><path d="m15.4329 17.8215-1.5298 3.1695c-.1896.652.2655 1.3039.9102 1.3039h1.3748c.6447 0 1.0999-.662.9102-1.3039l-.9292-3.1695c-.1991-.7021-.5276-.7021-.7362 0z" fill="#d89992"/></g><g filter="url(#j)"><path d="m15.2335 17.5173-.9909 3.1695c-.2022.652.2831 1.3039.9707 1.3039h1.4661c.6876 0 1.1729-.662.9707-1.3039l-.9909-3.1695c-.2124-.7021-1.2032-.7021-1.4257 0z" fill="#fbc4b1"/><path d="m15.2335 17.5173-.9909 3.1695c-.2022.652.2831 1.3039.9707 1.3039h1.4661c.6876 0 1.1729-.662.9707-1.3039l-.9909-3.1695c-.2124-.7021-1.2032-.7021-1.4257 0z" fill="url(#Q)"/><path d="m15.2335 17.5173-.9909 3.1695c-.2022.652.2831 1.3039.9707 1.3039h1.4661c.6876 0 1.1729-.662.9707-1.3039l-.9909-3.1695c-.2124-.7021-1.2032-.7021-1.4257 0z" fill="url(#R)"/><path d="m15.2335 17.5173-.9909 3.1695c-.2022.652.2831 1.3039.9707 1.3039h1.4661c.6876 0 1.1729-.662.9707-1.3039l-.9909-3.1695c-.2124-.7021-1.2032-.7021-1.4257 0z" fill="url(#S)"/><path d="m15.2335 17.5173-.9909 3.1695c-.2022.652.2831 1.3039.9707 1.3039h1.4661c.6876 0 1.1729-.662.9707-1.3039l-.9909-3.1695c-.2124-.7021-1.2032-.7021-1.4257 0z" fill="url(#T)"/></g><path d="m15.2335 17.5173-.9909 3.1695c-.2022.652.2831 1.3039.9707 1.3039h1.4661c.6876 0 1.1729-.662.9707-1.3039l-.9909-3.1695c-.2124-.7021-1.2032-.7021-1.4257 0z" fill="url(#U)"/><path d="m13.3864 23.2295-.0004-.0003c-.15-.0762-.3059-.0292-.3995.0693-.0939.0988-.1293.2545-.0336.393.6335.9597 1.7369 1.5992 2.9934 1.5992 1.2568 0 2.3603-.6397 2.9938-1.5996.0948-.1424.0606-.298-.0341-.3963-.0941-.0977-.25-.1415-.3993-.0656l-.0004.0003c-.7401.3858-1.6121.6066-2.56.6066-.9384 0-1.8198-.2208-2.5599-.6066z" fill="#88024e" stroke="url(#V)" stroke-width=".1"/><g filter="url(#k)"><path d="m22.8828 12.977-.0023-.0019-.0035-.0029-.0084-.0068-.0223-.0178c-.0174-.0136-.0398-.0307-.0671-.0507-.0544-.0399-.1287-.0915-.2217-.1497-.1857-.1164-.4493-.2613-.7828-.3931-.6694-.2647-1.6254-.4779-2.7836-.295-.5429.0857-.9136.5953-.8278 1.1383.0857.5429.5953.9136 1.1383.8278.7418-.1171 1.3358.0197 1.7413.18.2041.0807.3592.167.4579.2288.0492.0308.0835.055.1021.0686.0077.0057.0126.0095.0147.0111.4222.3441 1.0438.2851 1.3933-.1344.3519-.4223.2941-1.0504-.1281-1.4023z" fill="#bd593b"/><path d="m22.8828 12.977-.0023-.0019-.0035-.0029-.0084-.0068-.0223-.0178c-.0174-.0136-.0398-.0307-.0671-.0507-.0544-.0399-.1287-.0915-.2217-.1497-.1857-.1164-.4493-.2613-.7828-.3931-.6694-.2647-1.6254-.4779-2.7836-.295-.5429.0857-.9136.5953-.8278 1.1383.0857.5429.5953.9136 1.1383.8278.7418-.1171 1.3358.0197 1.7413.18.2041.0807.3592.167.4579.2288.0492.0308.0835.055.1021.0686.0077.0057.0126.0095.0147.0111.4222.3441 1.0438.2851 1.3933-.1344.3519-.4223.2941-1.0504-.1281-1.4023z" fill="url(#X)"/></g><g filter="url(#l)"><path d="m8.90916 12.9776.00144-.0012.00156-.0013.00348-.0029.00836-.0068.02236-.0178c.01739-.0136.03977-.0307.06703-.0507.05447-.0399.12871-.0915.22178-.1497.18569-.1164.44927-.2613.78273-.3931.6694-.2647 1.6254-.4779 2.7836-.295.543.0857.9136.5953.8279 1.1383-.0858.5429-.5954.9136-1.1383.8278-.7418-.1171-1.3358.0197-1.7414.18-.204.0807-.3592.167-.4579.2288-.0491.0308-.0835.055-.102.0686-.0078.0057-.0127.0095-.0148.0111-.42213.3441-1.04372.2851-1.39327-.1344-.35189-.4223-.29483-1.0498.12743-1.4017z" fill="#bd593b"/><path d="m8.90916 12.9776.00144-.0012.00156-.0013.00348-.0029.00836-.0068.02236-.0178c.01739-.0136.03977-.0307.06703-.0507.05447-.0399.12871-.0915.22178-.1497.18569-.1164.44927-.2613.78273-.3931.6694-.2647 1.6254-.4779 2.7836-.295.543.0857.9136.5953.8279 1.1383-.0858.5429-.5954.9136-1.1383.8278-.7418-.1171-1.3358.0197-1.7414.18-.204.0807-.3592.167-.4579.2288-.0491.0308-.0835.055-.102.0686-.0078.0057-.0127.0095-.0148.0111-.42213.3441-1.04372.2851-1.39327-.1344-.35189-.4223-.29483-1.0498.12743-1.4017z" fill="url(#Y)"/></g><path d="m20.3992 15.3813c1.2176 0 2.2462.8396 2.5261 1.974.0832.3253-.1664.6353-.4992.6353h-4.1597c-.2648 0-.4765-.242-.4236-.5067.2345-1.195 1.2858-2.1026 2.5564-2.1026z" fill="#fff"/><path d="m20.0134 15.8881c.9227 0 1.6639.7487 1.6639 1.6639 0 .1512-.0227.3025-.0605.4386h-3.2143c-.0378-.1437-.0605-.2874-.0605-.4386 0-.9152.7487-1.6639 1.6714-1.6639z" fill="url(#aa)"/><path d="m19.0605 17.552c0-.5295.4235-.953.9529-.953.5295 0 .953.4235.953.953 0 .1588-.0378.31-.1059.4386h-1.6866c-.0756-.1286-.1134-.2798-.1134-.4386z" fill="#000"/><g filter="url(#m)"><path d="m19.891 16.2398c.1186.1586-.1292.3519-.4109.5625-.2818.2107-.4908.3589-.6093.2004-.1186-.1586.0137-.4579.2955-.6685.2817-.2107.6062-.2529.7247-.0944z" fill="#c7a7a3"/><path d="m19.891 16.2398c.1186.1586-.1292.3519-.4109.5625-.2818.2107-.4908.3589-.6093.2004-.1186-.1586.0137-.4579.2955-.6685.2817-.2107.6062-.2529.7247-.0944z" fill="url(#ac)"/></g><g filter="url(#n)"><path d="m21.4955 17.3329c-.0614-.4302-.3132-.7544-.4313-.8627l-.4845.5318.2186.4254z" fill="url(#ae)"/></g><path d="m11.4838 15.3812c-1.2178 0-2.24642.8396-2.52627 1.9741-.0832.3252.1664.6354.4992.6354h4.15997c.2647 0 .4765-.2421.4235-.5068-.2344-1.195-1.2933-2.1027-2.5564-2.1027z" fill="#fff"/><path d="m11.8695 15.8879c-.9228 0-1.664.7488-1.664 1.664 0 .1513.0227.3026.0605.4387h3.2145c.0378-.1437.0605-.2874.0605-.4387-.0075-.9152-.7488-1.664-1.6715-1.664z" fill="url(#af)"/><path d="m12.8225 17.552c0-.5294-.4235-.953-.953-.953-.5294 0-.953.4236-.953.953 0 .1588.0378.3101.1059.4387h1.6867c.068-.1286.1134-.2799.1134-.4387z" fill="#000"/><g filter="url(#o)"><path d="m13.3897 17.3565c0-.5378-.4373-.8962-.5555-1.0046l-.5377.52.3309.6737z" fill="url(#ag)"/></g><g filter="url(#p)"><ellipse cx="11.3674" cy="16.599" fill="#c7a7a3" fill-opacity=".9" rx=".726417" ry=".367634" transform="matrix(.88365127 -.46814574 .46814574 .88365127 -6.448169 7.252873)"/><ellipse cx="11.3674" cy="16.599" fill="url(#ah)" rx=".726417" ry=".367634" transform="matrix(.88365127 -.46814574 .46814574 .88365127 -6.448169 7.252873)"/></g><g filter="url(#q)"><path d="m19.0432 12.7074c.802-.1404 2.366-.1003 3.4488.7419" stroke="url(#aj)" stroke-linecap="round" stroke-width=".5"/></g><g filter="url(#r)"><path d="m9.30953 13.6743c.61009-.5392 1.94237-1.1069 3.59387-.8437" stroke="url(#ak)" stroke-linecap="round" stroke-width=".5"/></g></svg>