<svg enable-background="new 0 0 128 128" viewBox="0 0 32 32" xmlns="http://www.w3.org/2000/svg"><path d="m11.4063 6.15625c-5.27504-.65-7.15629 2-8.06254 3.21876-2.468747 3.64059-.98437 7.64059.8125 9.56249 0 0 10.09374 9.8281 10.37504 10.0937.2812.2657.9453 1.1719 2.5468.9141 1.3976-.225 1.7969-1.9141 1.7969-1.9141s1.0323.8419 2.5156 0c1.1563-.6562 1.1094-1.9687 1.1094-1.9687s1.2383.6204 2.5625-.5c1.1928-1.0093.4531-2.7813.4531-2.7813s1.07.1759 1.8282-.6562c1.025-1.125.6718-2.5469 0-3.1875l-7.7188-8.4375-.5937-3.125z" fill="#ffc83d"/><g fill="#d67d00"><path d="m26.7074 22.5933-2.2265-2.2569c-.1939-.1966-.5105-.1988-.707-.0049-.1966.194-.1988.5106-.0049.7071l1.7644 1.7886c-.0111-.0299-.0178-.046-.0178-.046s.5821.0957 1.1918-.1879z"/><path d="m23.9779 26.1509-2.3095-2.5637c-.1849-.2052-.501-.2216-.7062-.0368s-.2216.501-.0368.7061l1.6591 1.8418c.1991.0758.7312.2319 1.3934.0526z"/><path d="m20.5759 28.351-1.8061-1.913c-.1896-.2008-.506-.2099-.7068-.0203s-.2099.506-.0203.7068l.9044.9579c.1986.13.7946.4502 1.6288.2686z"/><path d="m18.4033 29.0535c-.7591.2022-2.1674.2658-3.1377-.7723l-.7757.7104c.0201.0194.0341.0328.0414.0396.0289.0274.0619.0615.0996.1005.3282.3394 1.0105 1.0449 2.4472.8136.6217-.1001 1.0459-.4899 1.3252-.8918z"/></g><path d="m6.375 6.8125c-1.6875 2.16666-4.2875 7.775.3125 11.625l-1.44705 1.5556c-.66705-.6494-1.08419-1.0556-1.08419-1.0556-1.79687-1.9219-3.281247-5.9219-.8125-9.5625.0134-.01802.02702-.03636.04085-.055.52411-.70584 1.36538-1.83883 2.94896-2.56734z" fill="#f59f00"/><path d="m17.25 23.6875c1.2031 1.3906-.3008 3.1621-1 3.9063l-10.58132-11.0093c1.97445-2.0029 3.27834-2.2031 4.15945-1.3345.88107.8686.46877 1.4844.46877 1.4844s1.194-.6787 2.4531.5625.3906 2.1875.3906 2.1875 1.2994-.234 2.2188.7968c1.0312 1.1563.375 2.5.375 2.5s.7904.0681 1.5156.9063z" fill="#d67d00"/><path d="m12.4375 8c3.2344-1.29687 8.1406-1.95312 10.3906-1.98438 1.5313 0 3.481.37097 5.5469 2.79688 3.2998 3.8748.8281 8.2969-1.125 10.0937v-1.4062s-7.5064-6.5356-7.75-6.7656c-.45-.425-2.3021-.2969-2.5-.2344-.6042.1875-1.65.5-3 1-1.0977.4066-1.9688.0781-2.3282-.7656-.3594-.84378-.8421-2.08974.7657-2.7344z" fill="#ffc83d"/><path d="m28.3106 17.7099c-.3461.4705-.7116.8753-1.0606 1.1964-2.7604-2.4063-8.3781-7.325-8.8281-7.75s-.974-.4063-1.1719-.3438c-.6042.1875-2.15.6875-3.5 1.1875-1.0977.4066-2.2031-.4219-2.5625-1.2656-.3286-.77148-.3554-1.87919.8714-2.55609l.6311-.27698c.0168-.00637.0335-.01273.0503-.01907-1.9534 1.46742-.2287 3.26124 1.3847 3.05524.5669-.0724 1.5-.2656 2.4063-.5.3596-.093.7126-.2581 1.0458-.4139.625-.29236 1.1804-.55209 1.5792-.24234 1.4998 1.16494 5.977 4.96794 9.1543 7.92864z" fill="#d67d00"/><path d="m8.81945 16.8786c-.74343-.9632-2.12694-1.1414-3.09016-.398l-1.91677 1.621c-.8828.7344-1.11145 2.1087-.46638 3.0014.58392.8081 1.4806 1.1417 2.30249.9082-.36501.8348-.3337 1.9028.36704 2.4889.65484.5476 1.46385.9229 2.27502.6696-.07723.5355.08061 1.1217.63123 1.7053.51999.5512 1.27538.8256 2.08638.6433-.1072.5719.0735 1.2074.7424 1.8528.8193.7905 2.0804.8577 3.265-.2304l.7722-.8997c.6203-.78 1.4779-2.1355.1965-3.2878-.4432-.3985-.9528-.6191-1.4818-.6205.2875-.7006.2821-1.5579-.5494-2.3795-.5198-.5136-1.1574-.7367-1.86-.568.3798-.8086.3712-1.6329-.39-2.3851-.6914-.6832-1.5428-1.0072-2.64316-.391.1941-.5947.14799-1.227-.24059-1.7305z" fill="#ffc83d"/><path d="m9.03352 17.2422-4.72346 4.6644c.41777.1869.87334.229 1.30925.1125l3.46948-3.4261c-.00959.0053-.01919.0106-.02881.016.1497-.4588.15652-.9398-.02646-1.3668z" fill="#d67d00"/><path d="m12.2463 19.8263-5.28774 5.2583c.42563.1717.87851.2266 1.33207.085.00004-.0003-.00004.0002 0 0l3.80757-3.7858c-.0017.0004-.0034.0008-.005.0012.2446-.5209.3281-1.0483.1531-1.5587z" fill="#d67d00"/><path d="m14.5732 22.8968-4.91824 4.4985c.40374.1769.86464.2309 1.34544.1246l3.5125-3.2128c.1701-.4276.23-.912.0603-1.4103z" fill="#d67d00"/></svg>