<svg fill="none" height="32" viewBox="0 0 32 32" width="32" xmlns="http://www.w3.org/2000/svg" xmlns:xlink="http://www.w3.org/1999/xlink"><filter id="a" color-interpolation-filters="sRGB" filterUnits="userSpaceOnUse" height="22.7969" width="21.082" x="5.44135" y="4.47998"><feFlood flood-opacity="0" result="BackgroundImageFix"/><feBlend in="SourceGraphic" in2="BackgroundImageFix" mode="normal" result="shape"/><feColorMatrix in="SourceAlpha" result="hardAlpha" type="matrix" values="0 0 0 0 0 0 0 0 0 0 0 0 0 0 0 0 0 0 127 0"/><feOffset dx=".25" dy=".25"/><feGaussianBlur stdDeviation="1"/><feComposite in2="hardAlpha" k2="-1" k3="1" operator="arithmetic"/><feColorMatrix type="matrix" values="0 0 0 0 0.776471 0 0 0 0 0.592157 0 0 0 0 0.458824 0 0 0 1 0"/><feBlend in2="shape" mode="normal" result="effect1_innerShadow_20020_4959"/></filter><filter id="b" color-interpolation-filters="sRGB" filterUnits="userSpaceOnUse" height="20.7339" width="9.58582" x="13.0085" y="3.66791"><feFlood flood-opacity="0" result="BackgroundImageFix"/><feBlend in="SourceGraphic" in2="BackgroundImageFix" mode="normal" result="shape"/><feGaussianBlur result="effect1_foregroundBlur_20020_4959" stdDeviation="1.25"/></filter><filter id="c" color-interpolation-filters="sRGB" filterUnits="userSpaceOnUse" height="6.65067" width="10.1019" x="16.7324" y="16.5949"><feFlood flood-opacity="0" result="BackgroundImageFix"/><feBlend in="SourceGraphic" in2="BackgroundImageFix" mode="normal" result="shape"/><feGaussianBlur result="effect1_foregroundBlur_20020_4959" stdDeviation=".75"/></filter><filter id="d" color-interpolation-filters="sRGB" filterUnits="userSpaceOnUse" height="8.93951" width="7.05487" x="5.67206" y="15.7569"><feFlood flood-opacity="0" result="BackgroundImageFix"/><feBlend in="SourceGraphic" in2="BackgroundImageFix" mode="normal" result="shape"/><feGaussianBlur result="effect1_foregroundBlur_20020_4959" stdDeviation="1"/></filter><linearGradient id="e" gradientUnits="userSpaceOnUse" x1="15.8574" x2="15.8574" y1="12.4213" y2="28.0269"><stop offset="0" stop-color="#ebb891"/><stop offset="1" stop-color="#dba38a"/></linearGradient><linearGradient id="f" gradientUnits="userSpaceOnUse" x1="22.6699" x2="15.8574" y1="13.7144" y2="16.2194"><stop offset="0" stop-color="#ffcda4"/><stop offset="1" stop-color="#ffcda4" stop-opacity="0"/></linearGradient><linearGradient id="g" gradientUnits="userSpaceOnUse" x1="6.04212" x2="15.5797" y1="20.7971" y2="22.0654"><stop offset="0" stop-color="#ce9b7a"/><stop offset="1" stop-color="#ce9b7a" stop-opacity="0"/></linearGradient><radialGradient id="h" cx="0" cy="0" gradientTransform="matrix(0 -6.46491 8.5603 0 14.3454 26.3035)" gradientUnits="userSpaceOnUse" r="1"><stop offset="0" stop-color="#b46d8d"/><stop offset="1" stop-color="#b46d8d" stop-opacity="0"/></radialGradient><radialGradient id="i" cx="0" cy="0" gradientTransform="matrix(-.04799035 -2.15944681 3.02219379 -.06716356 22.3624 24.6003)" gradientUnits="userSpaceOnUse" r="1"><stop offset="0" stop-color="#b87788"/><stop offset="1" stop-color="#b87788" stop-opacity="0"/></radialGradient><radialGradient id="j" cx="0" cy="0" gradientTransform="matrix(.70381629 -2.65531666 3.27475619 .86800448 9.32576 25.0002)" gradientUnits="userSpaceOnUse" r="1"><stop offset="0" stop-color="#b77780"/><stop offset="1" stop-color="#b37084" stop-opacity="0"/></radialGradient><radialGradient id="k" cx="0" cy="0" gradientTransform="matrix(6.54438179 -1.21756133 1.12495674 6.04663291 5.94066 21.2029)" gradientUnits="userSpaceOnUse" r="1"><stop offset="0" stop-color="#c58c7c"/><stop offset="1" stop-color="#c58c7c" stop-opacity="0"/></radialGradient><linearGradient id="l"><stop offset="0" stop-color="#a37271"/><stop offset="1" stop-color="#8a4f6c"/></linearGradient><radialGradient id="m" cx="0" cy="0" gradientTransform="matrix(-1.61018597 -1.36911624 .79803198 -.93854697 10.9199 25.0129)" gradientUnits="userSpaceOnUse" r="1" xlink:href="#l"/><linearGradient id="n"><stop offset=".652848" stop-color="#955f77" stop-opacity="0"/><stop offset="1" stop-color="#955f77"/></linearGradient><radialGradient id="o" cx="0" cy="0" gradientTransform="matrix(-.53125719 -2.14062157 3.68531147 -.91461669 9.48077 25.2144)" gradientUnits="userSpaceOnUse" r="1" xlink:href="#n"/><radialGradient id="p" cx="0" cy="0" gradientTransform="matrix(1.85774915 -1.47430889 .85934578 1.0828456 21.1265 25.0129)" gradientUnits="userSpaceOnUse" r="1" xlink:href="#l"/><radialGradient id="q" cx="0" cy="0" gradientTransform="matrix(-.53125719 -2.14062157 3.68531147 -.91461669 22.5762 25.2144)" gradientUnits="userSpaceOnUse" r="1" xlink:href="#n"/><linearGradient id="r" gradientUnits="userSpaceOnUse" x1="19.6382" x2="14.1085" y1="12.7307" y2="11.6653"><stop offset=".192674" stop-color="#ffd2ac"/><stop offset="1" stop-color="#ffd2ac" stop-opacity="0"/></linearGradient><linearGradient id="s" gradientUnits="userSpaceOnUse" x1="24.7114" x2="20.155" y1="19.7925" y2="18.2579"><stop offset="0" stop-color="#ffd2ac"/><stop offset="1" stop-color="#ffd2ac" stop-opacity="0"/></linearGradient><g filter="url(#a)"><path d="m13.0147 6.75611c.2982-1.33044 1.4792-2.27613 2.8427-2.27613 1.3634 0 2.5445.94569 2.8426 2.27613l1.9308 8.77079c.2266.8203 1.0174 1.3727 1.8359 1.4296 2.1328.1485 3.8067 1.7929 3.8067 3.8985s-1.7069 3.8125-3.8125 3.8125c-.0536 0-.1068-.0011-.1598-.0033-.9694-.04-2.0438.2539-2.7547.9142-.9676.8988-2.2642 1.4485-3.689 1.4485-1.4249 0-2.7215-.5497-3.6891-1.4485-.7108-.6603-1.7853-.9542-2.75466-.9142-.05298.0022-.10627.0033-.15979.0033-2.1056 0-3.8125-1.7069-3.8125-3.8125s1.67382-3.75 3.80664-3.8985c.81851-.0569 1.60941-.6093 1.83591-1.4296z" fill="url(#e)"/></g><path d="m13.0147 6.75611c.2982-1.33044 1.4792-2.27613 2.8427-2.27613 1.3634 0 2.5445.94569 2.8426 2.27613l1.9308 8.77079c.2266.8203 1.0174 1.3727 1.8359 1.4296 2.1328.1485 3.8067 1.7929 3.8067 3.8985s-1.7069 3.8125-3.8125 3.8125c-.0536 0-.1068-.0011-.1598-.0033-.9694-.04-2.0438.2539-2.7547.9142-.9676.8988-2.2642 1.4485-3.689 1.4485-1.4249 0-2.7215-.5497-3.6891-1.4485-.7108-.6603-1.7853-.9542-2.75466-.9142-.05298.0022-.10627.0033-.15979.0033-2.1056 0-3.8125-1.7069-3.8125-3.8125s1.67382-3.75 3.80664-3.8985c.81851-.0569 1.60941-.6093 1.83591-1.4296z" fill="url(#f)"/><path d="m13.0147 6.75611c.2982-1.33044 1.4792-2.27613 2.8427-2.27613 1.3634 0 2.5445.94569 2.8426 2.27613l1.9308 8.77079c.2266.8203 1.0174 1.3727 1.8359 1.4296 2.1328.1485 3.8067 1.7929 3.8067 3.8985s-1.7069 3.8125-3.8125 3.8125c-.0536 0-.1068-.0011-.1598-.0033-.9694-.04-2.0438.2539-2.7547.9142-.9676.8988-2.2642 1.4485-3.689 1.4485-1.4249 0-2.7215-.5497-3.6891-1.4485-.7108-.6603-1.7853-.9542-2.75466-.9142-.05298.0022-.10627.0033-.15979.0033-2.1056 0-3.8125-1.7069-3.8125-3.8125s1.67382-3.75 3.80664-3.8985c.81851-.0569 1.60941-.6093 1.83591-1.4296z" fill="url(#g)"/><path d="m13.0147 6.75611c.2982-1.33044 1.4792-2.27613 2.8427-2.27613 1.3634 0 2.5445.94569 2.8426 2.27613l1.9308 8.77079c.2266.8203 1.0174 1.3727 1.8359 1.4296 2.1328.1485 3.8067 1.7929 3.8067 3.8985s-1.7069 3.8125-3.8125 3.8125c-.0536 0-.1068-.0011-.1598-.0033-.9694-.04-2.0438.2539-2.7547.9142-.9676.8988-2.2642 1.4485-3.689 1.4485-1.4249 0-2.7215-.5497-3.6891-1.4485-.7108-.6603-1.7853-.9542-2.75466-.9142-.05298.0022-.10627.0033-.15979.0033-2.1056 0-3.8125-1.7069-3.8125-3.8125s1.67382-3.75 3.80664-3.8985c.81851-.0569 1.60941-.6093 1.83591-1.4296z" fill="url(#h)"/><path d="m13.0147 6.75611c.2982-1.33044 1.4792-2.27613 2.8427-2.27613 1.3634 0 2.5445.94569 2.8426 2.27613l1.9308 8.77079c.2266.8203 1.0174 1.3727 1.8359 1.4296 2.1328.1485 3.8067 1.7929 3.8067 3.8985s-1.7069 3.8125-3.8125 3.8125c-.0536 0-.1068-.0011-.1598-.0033-.9694-.04-2.0438.2539-2.7547.9142-.9676.8988-2.2642 1.4485-3.689 1.4485-1.4249 0-2.7215-.5497-3.6891-1.4485-.7108-.6603-1.7853-.9542-2.75466-.9142-.05298.0022-.10627.0033-.15979.0033-2.1056 0-3.8125-1.7069-3.8125-3.8125s1.67382-3.75 3.80664-3.8985c.81851-.0569 1.60941-.6093 1.83591-1.4296z" fill="url(#i)"/><path d="m13.0147 6.75611c.2982-1.33044 1.4792-2.27613 2.8427-2.27613 1.3634 0 2.5445.94569 2.8426 2.27613l1.9308 8.77079c.2266.8203 1.0174 1.3727 1.8359 1.4296 2.1328.1485 3.8067 1.7929 3.8067 3.8985s-1.7069 3.8125-3.8125 3.8125c-.0536 0-.1068-.0011-.1598-.0033-.9694-.04-2.0438.2539-2.7547.9142-.9676.8988-2.2642 1.4485-3.689 1.4485-1.4249 0-2.7215-.5497-3.6891-1.4485-.7108-.6603-1.7853-.9542-2.75466-.9142-.05298.0022-.10627.0033-.15979.0033-2.1056 0-3.8125-1.7069-3.8125-3.8125s1.67382-3.75 3.80664-3.8985c.81851-.0569 1.60941-.6093 1.83591-1.4296z" fill="url(#j)"/><path d="m13.0147 6.75611c.2982-1.33044 1.4792-2.27613 2.8427-2.27613 1.3634 0 2.5445.94569 2.8426 2.27613l1.9308 8.77079c.2266.8203 1.0174 1.3727 1.8359 1.4296 2.1328.1485 3.8067 1.7929 3.8067 3.8985s-1.7069 3.8125-3.8125 3.8125c-.0536 0-.1068-.0011-.1598-.0033-.9694-.04-2.0438.2539-2.7547.9142-.9676.8988-2.2642 1.4485-3.689 1.4485-1.4249 0-2.7215-.5497-3.6891-1.4485-.7108-.6603-1.7853-.9542-2.75466-.9142-.05298.0022-.10627.0033-.15979.0033-2.1056 0-3.8125-1.7069-3.8125-3.8125s1.67382-3.75 3.80664-3.8985c.81851-.0569 1.60941-.6093 1.83591-1.4296z" fill="url(#k)"/><path d="m11.2963 25.0129c-.5873-.2612-1.2568-.3745-1.8826-.3487-.05298.0022-.10627.0033-.15979.0033-.42645 0-.83655-.07-1.21943-.1992-.40465-.1365-.52068-.6389-.17718-.8926.36056-.2664.80648-.4238 1.28918-.4238 1.09402 0 1.99902.8088 2.14982 1.861z" fill="url(#m)"/><path d="m11.2963 25.0129c-.5873-.2612-1.2568-.3745-1.8826-.3487-.05298.0022-.10627.0033-.15979.0033-.42645 0-.83655-.07-1.21943-.1992-.40465-.1365-.52068-.6389-.17718-.8926.36056-.2664.80648-.4238 1.28918-.4238 1.09402 0 1.99902.8088 2.14982 1.861z" fill="url(#o)"/><path d="m23.8576 23.5757c.3435.2537.2275.7561-.1772.8926-.3829.1292-.793.1992-1.2194.1992-.0535 0-.1068-.0011-.1598-.0033-.6258-.0258-1.2953.0875-1.8826.3487.1508-1.0522 1.0558-1.861 2.1498-1.861.4827 0 .9286.1574 1.2892.4238z" fill="url(#p)"/><path d="m23.8576 23.5757c.3435.2537.2275.7561-.1772.8926-.3829.1292-.793.1992-1.2194.1992-.0535 0-.1068-.0011-.1598-.0033-.6258-.0258-1.2953.0875-1.8826.3487.1508-1.0522 1.0558-1.861 2.1498-1.861.4827 0 .9286.1574 1.2892.4238z" fill="url(#q)"/><g filter="url(#b)"><path d="m15.5102 19.5223.4787-12.60414c.0202-.53179.5557-.8873 1.0536-.69948.2506.09453.4351.31115.4886.5736l2.5164 12.35972c.2893 1.4207-.7965 2.7498-2.2464 2.7498-1.3003 0-2.3402-1.0802-2.2909-2.3795z" fill="url(#r)"/></g><g filter="url(#c)"><path d="m23.2588 21.7456h-4.3389c-.3797 0-.6875-.3078-.6875-.6875s.3078-.6875.6875-.6875h2.8754c.6446 0 1.1366-.5762 1.0355-1.2128-.1065-.6712.4658-1.2846 1.0756-.9847.6615.3254 1.0713.8435 1.3114 1.4071.4984 1.1701-.6872 2.1654-1.959 2.1654z" fill="url(#s)"/></g><g filter="url(#d)"><path d="m10.7213 18.6965-.3417 3.2095c-.0623.585-.62631.9918-1.12881.6858-.98489-.5995-1.73814-1.7299-1.54969-3.0025.16399-1.1074 1.22638-1.6394 2.14266-1.8181.53734-.1048.93554.3809.87754.9253z" fill="#e8b592"/></g></svg>