<svg fill="none" height="32" viewBox="0 0 32 32" width="32" xmlns="http://www.w3.org/2000/svg"><path d="m23.5 29h-15c-3.59 0-6.5-2.91-6.5-6.5s2.91-6.5 6.5-6.5h15c3.59 0 6.5 2.91 6.5 6.5s-2.91 6.5-6.5 6.5z" fill="#f3ad61"/><path d="m23.6299 18.9074v2.4726c0 1.5-1.21 2.71-2.71 2.71h-10.5099c-1.50005 0-2.71005-1.21-2.71005-2.71v-5.4c0-.1205.00782-.2392.02297-.3555.1928-2.784 2.51288-4.9745 5.33708-4.9745h5.22c2.9373 0 5.3133 2.3634 5.3495 5.2823.0003.0159.0004.0318.0004.0477v.0088c.0001.0038.0001.0075.0001.0112v2.9c0 .0025 0 .005-.0001.0074z" fill="#f3c07b"/><path d="m10.03 21.23h11.28c1.28 0 2.32-1.04 2.32-2.33v-.3449c.0032-.0103.0065-.0205.0096-.0308l-.0297 3.2057c-.06 1.31-1.14 2.33-2.44 2.33h-11.02c-1.31996 0-2.39996-1.04-2.43996-2.36l-.02-3.19c.00641.022.01309.0439.02002.0656v.3344c0 1.28 1.04 2.32 2.32004 2.32zm13.6096-2.7057c.0035-.0114.007-.0228.0103-.0343h-.01z" fill="#ca0b4a"/><path d="m18.9751 20.9407-3.8549-1.9707c-1.13-.57-2.46.24-2.46 1.51v3.6c0 1.26 1.34 2.08 2.46 1.51l.3206-.164-1.3974 3.664c-.1.27.17.52.43.4l1.02-.46c.16-.07.35 0 .42.16l.45 1.02c.11.26.49.25.59-.01l2.0217-5.2912 2.0744 5.2912c.1.26.48.27.59.01l.45-1.02c.07-.16.26-.23.42-.16l1.02.46c.26.12.53-.13.43-.4l-1.45-3.6639.3206.1639c1.12.57 2.46-.25 2.46-1.51v-3.6c0-1.27-1.33-2.08-2.46-1.51z" fill="#ca0b4a"/><path d="m17.3198 21.11c0-.91.74-1.65 1.65-1.65.92 0 1.66.74 1.65 1.65v2.17c0 .3605-.1162.6944-.3131.9662l2.5232-1.2861c1.07-.54 2.32.1599 2.45 1.31-.13 1.15-1.38 1.85-2.45 1.31l-2.5489-1.2993c-.3018.3944-.7772.6492-1.3112.6492-.529 0-1.0006-.2502-1.3028-.6384l-2.5471 1.2983c-1.07.54-2.32-.16-2.45-1.31.13-1.15 1.38-1.85 2.45-1.31l2.5185 1.2838c-.2002-.2731-.3186-.6098-.3186-.9737z" fill="#990838"/></svg>