<svg enable-background="new 0 0 128 128" viewBox="0 0 128 128" xmlns="http://www.w3.org/2000/svg"><g transform="scale(4)"><path d="m17 5.18288c0-.21191.1356-.39715.3256-.49091.7032-.34691 1.2507-.96118 1.51-1.71008.1807-.52189-.2833-.98189-.8356-.98189h-4c-.5523 0-1.0163.46-.8356.98189.2592.7489.8068 1.36317 1.51 1.71008.19.09376.3256.279.3256.49091v1.06782c0 .27614.2238.5.5.5h1c.2761 0 .5-.22386.5-.5z" fill="#321b41"/><path d="m10.056 28.2617c-.64787-.3938-1.25551-.8473-1.81528-1.3527-.21951-.4483-.36162-.7489-.41998-.983.33788.0566.63849.0996.91344.1388.45869.0656.84593.1209 1.21561.2122-.34192-2.2716-.6984-5.0631-.69839-6.059 0 0 5.081.6557 7.103.6556.0308 1.938.0647 4.0744.1702 6.0503 2.3583-.0543 2.9329-.1405 2.9329-.1405-.0585.495-.2546 1.3675-.404 1.9328.931-.1034 1.8064-.2633 2.7541-.4887-.0501.0316.0468.0459.1422.06.0938.0138.1862.0275.136.0571-1.7702 1.0437-3.5356 1.6543-5.9458 1.6547-2.4711.0003-4.2825-.6426-6.084-1.7376z" fill="#71667d"/><path d="m10.8108 26.6229c-.4224-.957-.7676-1.995-1.02259-3.0946.85719.131 1.75399.2368 2.68269.3148.1057 1.039.2532 2.0287.437 2.954l.0081.0402c1.694.1302 3.3641.16 3.3641.16v2.0027c-1.1901 0-2.3429-.0677-3.438-.1944-.3125-.0362-.6204-.0772-.9231-.1228-.4113-.6328-.7827-1.3223-1.1082-2.0599z" fill="#62576e"/><path d="m6.22937 19.3289c-.08166-1.9817.34564-3.6253.34564-3.6253s1.45324.2946 2.87059.6802c-.10868.8474-.16553 1.7218-.16553 2.6158 0 .4293.01311.8541.03878 1.2736-1.1405-.2573-2.18003-.5759-3.08948-.9443z" fill="#898291"/><path d="m25.9716 19.9709c-.1281 2.1817-.6846 4.226-1.5721 6.0193-.7743.1744-1.6435.3321-2.4648.4812l-.0071.0013c-.1439.0261-.2863.052-.4264.0776-.3331.765-.7154 1.4791-1.1402 2.1327.5795-.0873 1.14-.1915 1.6783-.3112 1.1589-.6763 2.1942-1.5412 3.0638-2.5527 1.1736-1.365 2.0453-2.9968 2.5119-4.7922-.452-.3792-1.0048-.7333-1.6434-1.056z" fill="#898291"/><path d="m19.4725 26.8547c.1723-.7455.3308-1.9831.4232-3.1069-.3718 0-.9376.0243-1.5467.0504-.7105.0305-1.48.0634-2.0689.0634v3.1383c1.0985 0 2.1673-.0502 3.1924-.1452z" fill="#898291"/><path d="m12.2851 20.6301c.0175 1.1095.0812 2.1854.1858 3.213 1.2208.1025 2.4965.1568 3.8092.1568v-3.1135z" fill="#898291"/><path d="m6.65167 22.8599c.28017 1.15.75201 2.5066 1.12406 3.1713.93972.2376 1.957.4369 3.03507.5917-.4373-.9907-.7918-2.0679-1.0491-3.2106-.71517-.0954-1.32264-.2169-1.88055-.3284-.43041-.0861-.83135-.1663-1.22948-.224z" fill="#898291"/><path d="m9.28009 18.9996c0 .4292.0131.8539.03876 1.2733.92795.2093 1.92275.3781 2.96875.5001-.005-.256-.0075-.5139-.0075-.7734 0-1.1196.0469-2.2085.1356-3.2521-.8147-.1249-2.3673-.3383-2.97014-.3632-.10864.8472-.16547 1.7215-.16547 2.6153z" fill="#998ea4"/><path d="m20.5053 28.6607c.4219-.5837 1.0371-2.1279 1.0371-2.1279s-1.4757.1762-2.1634.2297c-.1471.7452-.3178 1.4488-.5092 2.103.5597-.0534 1.1057-.122 1.6355-.2048z" fill="#998ea4"/><path d="m6.19771 19.3159c.91698.3738 1.96738.6967 3.12114.957.0691 1.1291.2292 2.2197.46936 3.2555-1.12032-.1712-2.17284-.3853-3.13985-.6362-.30094-1.0231-.54788-2.7648-.45065-3.5763z" fill="#998ea4"/><path d="m8.52822 27.1604c-.2245-.3645-.43436-.7421-.62857-1.1317-.22446-.1244-.44542-.2191-.75207-.244.42231.495.88416.9552 1.38064 1.3757z" fill="#998ea4"/><path d="m4.28003 17.9998c0-1.0515.13524-2.0714.38928-3.0433.04421.0186.08778.0369.13072.0549.78069.3278 1.35406.5686 1.81005.7141-.21578 1.0504-.33005 2.1469-.33005 3.2746 0 .1171.00123.234.00369.3504-.76178-.3051-1.43373-.645-1.99903-1.0131-.0031-.1121-.00466-.2247-.00466-.3376z" fill="#b4acbc"/><path d="m12.2801 19.9998c0 .2594.0025.5172.0075.7732 1.2635.1474 2.6016.2267 3.9868.2269v2.9902c1.3124 0 2.3303-.045 3.5348-.1469-.1082 1.0632-.2601 2.0747-.4499 3.0184.7614-.0639 1.5007-.149 2.213-.2536.7702-1.5087.9978-3.1446.9978-3.1446s-1.173.0943-2.6306.259c.1667-1.4256.1342-3.0578.1342-3.0578s-2.5217.238-3.7936.2387v-4.0282l-3.865-.1203c-.0883 1.0414-.135 2.1279-.135 3.245z" fill="#b4acbc"/><path d="m5.08173 22.3213c.5086 1.3171 1.24288 2.5219 2.15541 3.5671.22244.0617.44973.1212.6816.1784-.51517-1.0259-.9216-2.1351-1.20084-3.3062-.51478-.155-.99887-.2813-1.63617-.4393z" fill="#b4acbc"/><path d="m6.52545 15.728c.40247-1.6773.99301-3.1427 1.35388-3.8315.11965.031.23276.0605.34033.0885.91498.2385 1.42924.3725 2.15614.4813-.4391 1.2241-.75864 2.5557-.93573 3.9611-1.06545-.1921-2.04475-.4277-2.91462-.6994z" fill="#9b9b9b"/><path d="m25.0429 25.8883c.9-1.0307 1.6265-2.2167 2.1342-3.5126-.5538.1885-.9681.3047-1.6351.4686-.2785 1.1402-.6778 2.221-1.1807 3.2224.2319-.0571.4592-.1166.6816-.1784z" fill="#9b9b9b"/><g fill="#bebebe"><path d="m16 7.00012c1.2507 0 2.4121-.19136 3.3734-.51871-1.0279-.29404-2.1125-.45138-3.2334-.45138-1.1751 0-2.3102.17289-3.3819.49491.9349.30072 2.0477.47518 3.2419.47518z"/><path d="m6.38002 11.2163c-.78132 1.1381-1.37148 2.4176-1.7242 3.7924.56535.2701 1.21941.5194 1.94877.7437.28071-1.3787.73617-2.6784 1.33758-3.8655-.41278-.1436-.69711-.264-1.56215-.6706z"/><path d="m9.44011 16.4271c.178-1.4125.49991-2.7505.94249-3.9798 1.0045.1532 1.6199.2381 2.6153.3209-.2677 1.2399-.4686 2.6054-.5888 4.0574-1.0449-.0964-2.0397-.2309-2.96899-.3985z"/><path d="m27.15 22.4445c.5172-1.2963.8149-2.7039.8471-4.1769-.4393.3126-1.5921.8793-1.9994 1.0093-.0209 1.2624-.1851 2.4838-.4744 3.6431.5728-.1461 1.1163-.305 1.6267-.4755z"/><path d="m23.0149 20.167c.0767 1.149.0042 1.7444-.3625 3.2161.3364-.0707.7569-.1411 1.1994-.2151.5702-.0954 1.1771-.1969 1.6876-.3132-.2784 1.1364-.6768 2.2138-1.1782 3.2122-.8996.2219-1.8684.409-2.8919.556.4225-.9572.7677-1.9951 1.0226-3.0948-.8572.131-1.754.2368-2.6827.3148.1042-1.0243.1678-2.0965.1856-3.2021.8492-.0576 2.6262-.3726 3.0201-.4739z"/><path d="m6.2837 19.3506c-.76178-.3051-1.43373-.645-1.99903-1.0131.03998 1.4477.33636 2.8314.84537 4.1072.51044.1705 1.05388.3294 1.6267.4755-.28362-1.1368-.44701-2.3333-.47304-3.5696z"/></g><path d="m9.71957 9.13212c.02695-.03012.05388-.06022.0808-.09037.44473.09082.74973.17346 1.08953.26557.253.06857.5254.14238.8892.22871-.5589.89737-1.0393 1.90247-1.4253 2.99177-.94422-.165-1.78989-.3682-2.50761-.6017.66456-1.4429 1.27381-2.12386 1.87338-2.79398z" fill="#c9c9c9"/><path d="m12.9878 12.815c-.2626 1.2275-.46 2.577-.5787 4.0109 1.2294.1134 2.5281.1742 3.871.1742v-4.1144c-1.5875-.0002-3.01-.0584-3.2923-.0707z" fill="#c9c9c9"/><path d="m15.2664 6.97801c-.4697.65109-1.2967 2.32335-1.5244 2.90106.7958.07782 1.6374.11998 2.508.12093v3.0001c1.1368 0 2.0048-.047 3.0161-.1343l.0402.309c.1445 1.1146.2718 2.0965.5354 3.4971-.7193.1093-2.2246.1557-3.5616.1557v4.1725c1.3242 0 2.6023-.0833 3.8065-.238 0-1.5552 0-2.4208-.1114-3.9461 1.0068-.0956 1.9664-.2267 2.8648-.3887.105.8338.16 1.6936.16 2.5723 0 .4293-.0131.8541-.0388 1.2736 1.1523-.26 2.2014-.5824 3.1175-.9556 0-1.1183 0-2.1798-.2786-3.7448l-.0858.0166c-.2385-1.5161-.777-2.6761-1.3154-3.7529l-.0317.0076c-.5833-1.1494-1.0972-1.89673-1.882-2.80665-.6198.21379-1.5671.42748-1.9786.50743l.029.0469c-.682-1.107-1.4827-2.05234-2.3724-2.79246-.4221.0816-.8672.14002-1.3292.17214.5996.66234 1.1426 1.63989 1.6028 2.85973-.1374.03123-.6074.0949-2.1567.09571v-2.9299c-.0928.00213-.1862.00321-.2801.00321-.2484 0-.4932-.00755-.7336-.0222zm5.2692 2.61377c.5247.85172.9792 1.79922 1.35 2.82242-.2571.0321-.4729.0614-.685.0901-.48.0651-.9417.1277-1.8229.2158-.2952-1.3291-.7482-2.5457-.8607-2.83892.7134-.06913 1.3903-.16695 2.0186-.2894z" fill="#e6e6e6"/><path d="m18.9032 11.249c-.1378-.4811-.2867-.9362-.4456-1.3622.7353-.06941 1.4322-.16918 2.0779-.295.5441.8832 1.0127 1.8693 1.3908 2.9362-.8086.1412-1.6893.2545-2.6239.3346.2576 1.2147.4514 2.5479.5686 3.9633-1.2207.1134-2.2511.1742-3.5939.1742v-4.0011c1.0517-.0071 2.0668-.0542 3.0253-.1364-.0925-.4362-.1933-.8572-.3016-1.2612-.0319-.1189-.0644-.2364-.0976-.3524z" fill="#f4f4f4"/><path d="m18.1632 6.79922c.4295-.08303.8351-.19006 1.2102-.31781-.0177-.00504-.0353-.01005-.053-.01502l.0021-.00057c.0479.01379.0958.02786.1434.04223.7426.44518 1.6974 1.02116 2.9985 2.52878.1418-.0585.2782-.10617.4099-.1522.2184-.07633.424-.14817.62-.25743.9443.75604 1.7719 1.6518 2.4514 2.656-.4182.2406-.9504.4637-1.5774.6639-.5253-1.0486-1.164-2.01038-1.8966-2.86237-.5711.19693-1.2223.36787-1.9362.50698-.682-1.107-1.4826-2.05236-2.3723-2.79249z" fill="#d3d3d3"/><path d="m13.0027 6.45435c-.0008-.00024-.0016-.00049-.0025-.00074-.0251.00713-.0503.0147-.0757.02269.026-.0074.0521-.01472.0782-.02195z" fill="#d3d3d3"/><path d="m12.7714 6.52922c.4018.12847.8362.23368 1.2956.3118-.8698.73379-1.6532 1.66441-2.3224 2.75066-.7139-.13911-1.3652-.31005-1.93624-.50699-.7326.85198-1.37133 1.81371-1.89654 2.86241-.62709-.2003-1.15923-.4233-1.57741-.664.68152-1.0071 1.51201-1.90528 2.45984-2.66274l.06008.02248c.19566.07298.54941.20493.88996.37593.92141-1.14429 2.04101-2.11922 3.02711-2.48955z" fill="#d3d3d3"/><path d="m19.871 16.8258c.0844 1.0197.129 2.0821.129 3.1738 0 .2595-.0025.5174-.0075.7734 1.046-.122 2.0408-.2908 2.9687-.5001.0257-.4194.0388-.8442.0388-1.2734 0-.8787-.0549-1.7384-.16-2.5722-.9293.1676-1.9241.302-2.969.3985z" fill="#d3d3d3"/><path d="m12.9777 12.8624c1.0425.0894 2.1518.1376 3.3024.1376v-3.00143c-.093.00095-.1864.00143-.2801.00143-.7541 0-1.4865-.03091-2.1865-.08915l.0306-.08182c-1.174-.1416-1.8546-.23854-2.0783-.27141-.5532.89198-1.029 1.88978-1.412 2.97038.8086.1413 1.6894.2543 2.6239.3344z" fill="#d3d3d3"/><path d="m22.4919 23.5284c.2401-1.0358.4002-2.1264.4693-3.2555 1.1179-.2522 2.1387-.5631 3.0351-.9222-.026 1.2362-.1894 2.4326-.4731 3.5694-.937.2389-1.9528.4435-3.0313.6083z" fill="#d3d3d3"/><path d="m12.898 6.48388c.0008-.00049.0016-.00097.0024-.00146-.0399.01172-.0799.02364-.1197.03576.039-.01164.0781-.02307.1173-.0343z" fill="#dadada"/><path d="m12.7583 6.52502c-1.4738.45178-2.82691 1.17972-3.9989 2.12347.30887.15625.66038.3023 1.04902.43632.87568-1.01832 1.88538-1.8798 2.99558-2.54524-.0152-.00482-.0305-.00967-.0457-.01455z" fill="#dadada"/><path d="m14.067 6.84102c-.8698.73379-1.6532 1.66441-2.3224 2.75066l-.0805-.01579c.6681.13332 1.3925.2386 2.1583.31091.4611-1.23627 1.0066-2.22777 1.6098-2.89994-.4732-.02221-.9304-.0719-1.3652-.14584z" fill="#dadada"/><path d="m16.2858 6.99677v3.00323c.8519 0 1.4009-.03967 2.1718-.11341-.4646-1.2457-1.0149-2.24287-1.6237-2.91522-.1802.01254-.3631.02106-.5481.0254z" fill="#dadada"/><path d="m22.4717 9.08481c-.901-1.04772-1.9438-1.92941-3.0921-2.60239 1.5291.44793 2.9315 1.19207 4.1411 2.16607-.3089.15625-.6604.3023-1.049.43632z" fill="#dadada"/><path d="m25.6214 15.4976c-.2784-1.261-.7036-2.4532-1.2531-3.5504.6271-.2003 1.1592-.4233 1.5774-.6639.7587 1.1212 1.3328 2.3776 1.6786 3.7254.2453.9562.3757 1.9586.3757 2.9913 0 .1129-.0015.2255-.0046.3376-.5653.3681-1.2373.708-1.999 1.0132.0024-.1165.0036-.2334.0036-.3505 0-1.2096-.1314-2.3833-.3786-3.5027z" fill="#dadada"/><path d="m20.3038 13.0842-2.2315.9563c-.404.1732-.404.746 0 .9191l2.2315.9564c.1253.0537.2233.1563.2712.284l.9568 2.5516c.1622.4326.7741.4326.9364 0l.9568-2.5516c.0479-.1277.1459-.2303.2712-.284l2.2315-.9564c.404-.1731.404-.7459 0-.9191l-2.2315-.9563c-.1253-.0537-.2233-.1563-.2712-.284l-.9568-2.5517c-.1623-.43257-.7742-.43257-.9364 0l-.9568 2.5517c-.0479.1277-.1459.2303-.2712.284z" fill="#fff"/></g></svg>