<svg enable-background="new 0 0 128 128" viewBox="0 0 128 128" xmlns="http://www.w3.org/2000/svg"><g transform="scale(4)"><path d="m15.9989 29.9978c9.3344 0 13.9989-6.2675 13.9989-13.9989 0-7.73139-4.6645-13.9989-13.9989-13.9989-9.33447 0-13.9989 6.26751-13.9989 13.9989 0 7.7314 4.66443 13.9989 13.9989 13.9989z" fill="#ffb02e"/><path d="m6 15.5c0-.169.00932-.3358.02746-.5h4.00384l2.3007.9227 2.1319-.9227h.5086c.0182.1642.0275.331.0275.5 0 2.4853-2.0147 4.5-4.5 4.5-2.48528 0-4.5-2.0147-4.5-4.5z" fill="#fff"/><path d="m17 15.5c0-.169.0093-.3358.0275-.5h4.0132l2.2409.7124 2.1664-.7124h.5245c.0182.1642.0275.331.0275.5 0 2.4853-2.0147 4.5-4.5 4.5s-4.5-2.0147-4.5-4.5z" fill="#fff"/><g fill="#402a32"><path d="m10 15.25c0-.0845.0046-.1679.0137-.25h4.4726c.0091.0821.0137.1655.0137.25 0 1.2445-1.0055 2.25-2.25 2.25-1.2445-.01-2.25-1.0155-2.25-2.25z"/><path d="m21 15.25c0-.0845.0046-.1679.0137-.25h4.4726c.0091.0821.0137.1655.0137.25 0 1.2445-1.0055 2.25-2.25 2.25-1.2445-.01-2.25-1.0155-2.25-2.25z"/><path d="m8.06915 9.98761c-.5929.56289-.95146 1.24009-1.09492 1.67049-.08732.262-.37048.4036-.63245.3162-.26197-.0873-.40355-.3704-.31623-.6324.18987-.5696.63132-1.39239 1.35509-2.07951.73226-.69519 1.76716-1.26239 3.11926-1.26239.2761 0 .5.22386.5.5s-.2239.5-.5.5c-1.04792 0-1.84635.4328-2.43075.98761z"/><path d="m23.9309 9.98761c.5929.56289.9514 1.24009 1.0949 1.67049.0873.262.3705.4036.6324.3162.262-.0873.4036-.3704.3163-.6324-.1899-.5696-.6314-1.39239-1.3551-2.07951-.7323-.69519-1.7672-1.26239-3.1193-1.26239-.2761 0-.5.22386-.5.5s.2239.5.5.5c1.0479 0 1.8464.4328 2.4308.98761z"/><path d="m12.8944 25.4472c.1715-.343 1.101-1.4472 3.1056-1.4472s2.934 1.1042 3.1055 1.4472c.247.494.8477.6942 1.3417.4472s.6942-.8476.4472-1.3416c-.4952-.9903-2.099-2.5528-4.8944-2.5528s-4.3993 1.5625-4.8945 2.5528c-.2469.494-.0467 1.0946.4473 1.3416.4939.247 1.0946.0468 1.3416-.4472z"/></g></g></svg>