<svg fill="none" height="32" viewBox="0 0 32 32" width="32" xmlns="http://www.w3.org/2000/svg"><path d="m25.2186 18.9999c0-4.18.0457-8.54.0457-12.71997 0-1.26-1.02-2.28-2.28-2.28-1.7344 0-2.4766 1.44531-2.3907 3.38281l-1.0233-3.65624c-.25-.85157-1.3203-1.89847-2.7969-1.5625-1.21.33-1.9528 1.57688-1.6328 2.79688l.7578 3.03906-2.8359-4.55469c-.63-1.09-2.1911-1.45358-3.42188-.74219-1.09.63-1.46874 2.29688-.8125 3.39844l3.72658 6.1016c-2.82032.9375-4.90613 2.9215-5.71876 5.2343-.52258 1.4874.7529 3.2674 2.30355 3.2674 1.93331 0 2.27091-1.8407 3.43861-2.8455.69-.6 1.6507-.9519 2.6407-.9219 1.94.07 3.6131 1.6226 3.7031 3.5726.1 2.16-1.6513 4.0993-3.7813 4.0993-1.5 0-3.2305-1.0961-3.7579-2.4922-.3375-.8934-1.39538-1.414-2.35153-1.414-1.53 0-2.67189 1.5781-2.21865 3.1406 1.22 3.65 4.71108 6.01 8.78108 6 4.99-.03 9.625-4.4844 9.625-10.8438z" fill="#966661"/><g fill="#764c49"><path d="m16.406 2.29834c-.9878.45906-1.5515 1.57156-1.2654 2.66257l.7034 2.82067 1.656 2.71842-1.3437-5.92192c-.1424-.57392-.2513-1.71105.2497-2.27974z"/><path d="m9.23253 3.01728c-.76643.76312-.9705 2.13402-.4044 3.08426l3.72177 6.09376c.938-.2735 1.953-.2735 3.0907-.2735-1.0468-.2343-2.2336-.5412-2.9365-1.4218-.7029-.88069-3.12593-5.07817-3.12593-5.07817-.36238-.5457-.82666-1.65115-.34564-2.40455z"/><path d="m20.5879 7.19623c-.025-1.48139.4541-2.64637 1.5147-3.0465-.4032.49646-.5157 1.33755-.5088 1.85024l-.1875 4.50003z"/></g></svg>