<svg fill="none" height="32" viewBox="0 0 32 32" width="32" xmlns="http://www.w3.org/2000/svg" xmlns:xlink="http://www.w3.org/1999/xlink"><filter id="a" color-interpolation-filters="sRGB" filterUnits="userSpaceOnUse" height="13.3975" width="23.9766" x="6.01624" y="16.3616"><feFlood flood-opacity="0" result="BackgroundImageFix"/><feBlend in="SourceGraphic" in2="BackgroundImageFix" mode="normal" result="shape"/><feColorMatrix in="SourceAlpha" result="hardAlpha" type="matrix" values="0 0 0 0 0 0 0 0 0 0 0 0 0 0 0 0 0 0 127 0"/><feOffset dy="-.5"/><feGaussianBlur stdDeviation=".5"/><feComposite in2="hardAlpha" k2="-1" k3="1" operator="arithmetic"/><feColorMatrix type="matrix" values="0 0 0 0 0.25098 0 0 0 0 0.729412 0 0 0 0 1 0 0 0 1 0"/><feBlend in2="shape" mode="normal" result="effect1_innerShadow_3987_22999"/></filter><filter id="b" color-interpolation-filters="sRGB" filterUnits="userSpaceOnUse" height="10.082" width="20.6809" x="6.10999" y="20.2505"><feFlood flood-opacity="0" result="BackgroundImageFix"/><feBlend in="SourceGraphic" in2="BackgroundImageFix" mode="normal" result="shape"/><feGaussianBlur result="effect1_foregroundBlur_3987_22999" stdDeviation=".75"/></filter><filter id="c" color-interpolation-filters="sRGB" filterUnits="userSpaceOnUse" height="8.64355" width="24.3443" x="2.0072" y="21.1265"><feFlood flood-opacity="0" result="BackgroundImageFix"/><feBlend in="SourceGraphic" in2="BackgroundImageFix" mode="normal" result="shape"/><feColorMatrix in="SourceAlpha" result="hardAlpha" type="matrix" values="0 0 0 0 0 0 0 0 0 0 0 0 0 0 0 0 0 0 127 0"/><feOffset/><feGaussianBlur stdDeviation=".25"/><feComposite in2="hardAlpha" k2="-1" k3="1" operator="arithmetic"/><feColorMatrix type="matrix" values="0 0 0 0 0.490196 0 0 0 0 0.415686 0 0 0 0 0.839216 0 0 0 1 0"/><feBlend in2="shape" mode="normal" result="effect1_innerShadow_3987_22999"/></filter><filter id="d" color-interpolation-filters="sRGB" filterUnits="userSpaceOnUse" height="2.68594" width="2.68594" x="24.5709" y="13.3691"><feFlood flood-opacity="0" result="BackgroundImageFix"/><feBlend in="SourceGraphic" in2="BackgroundImageFix" mode="normal" result="shape"/><feColorMatrix in="SourceAlpha" result="hardAlpha" type="matrix" values="0 0 0 0 0 0 0 0 0 0 0 0 0 0 0 0 0 0 127 0"/><feOffset dx=".1" dy="-.1"/><feGaussianBlur stdDeviation=".3"/><feComposite in2="hardAlpha" k2="-1" k3="1" operator="arithmetic"/><feColorMatrix type="matrix" values="0 0 0 0 0.290196 0 0 0 0 0.619608 0 0 0 0 0.952941 0 0 0 1 0"/><feBlend in2="shape" mode="normal" result="effect1_innerShadow_3987_22999"/></filter><filter id="e" color-interpolation-filters="sRGB" filterUnits="userSpaceOnUse" height="2.18594" width="2.18594" x="27.8209" y="11.6699"><feFlood flood-opacity="0" result="BackgroundImageFix"/><feBlend in="SourceGraphic" in2="BackgroundImageFix" mode="normal" result="shape"/><feColorMatrix in="SourceAlpha" result="hardAlpha" type="matrix" values="0 0 0 0 0 0 0 0 0 0 0 0 0 0 0 0 0 0 127 0"/><feOffset dx=".1" dy="-.1"/><feGaussianBlur stdDeviation=".3"/><feComposite in2="hardAlpha" k2="-1" k3="1" operator="arithmetic"/><feColorMatrix type="matrix" values="0 0 0 0 0.290196 0 0 0 0 0.619608 0 0 0 0 0.952941 0 0 0 1 0"/><feBlend in2="shape" mode="normal" result="effect1_innerShadow_3987_22999"/></filter><filter id="f" color-interpolation-filters="sRGB" filterUnits="userSpaceOnUse" height="1.92813" width="1.92813" x="25.9459" y="9.71287"><feFlood flood-opacity="0" result="BackgroundImageFix"/><feBlend in="SourceGraphic" in2="BackgroundImageFix" mode="normal" result="shape"/><feColorMatrix in="SourceAlpha" result="hardAlpha" type="matrix" values="0 0 0 0 0 0 0 0 0 0 0 0 0 0 0 0 0 0 127 0"/><feOffset dx=".1" dy="-.1"/><feGaussianBlur stdDeviation=".225"/><feComposite in2="hardAlpha" k2="-1" k3="1" operator="arithmetic"/><feColorMatrix type="matrix" values="0 0 0 0 0.290196 0 0 0 0 0.619608 0 0 0 0 0.952941 0 0 0 1 0"/><feBlend in2="shape" mode="normal" result="effect1_innerShadow_3987_22999"/></filter><filter id="g" color-interpolation-filters="sRGB" filterUnits="userSpaceOnUse" height="2.89844" width="2.85715" x="20.5321" y="12.1371"><feFlood flood-opacity="0" result="BackgroundImageFix"/><feBlend in="SourceGraphic" in2="BackgroundImageFix" mode="normal" result="shape"/><feColorMatrix in="SourceAlpha" result="hardAlpha" type="matrix" values="0 0 0 0 0 0 0 0 0 0 0 0 0 0 0 0 0 0 127 0"/><feOffset dx=".25" dy="-.25"/><feGaussianBlur stdDeviation=".5"/><feComposite in2="hardAlpha" k2="-1" k3="1" operator="arithmetic"/><feColorMatrix type="matrix" values="0 0 0 0 0.592157 0 0 0 0 0.34902 0 0 0 0 0.313726 0 0 0 1 0"/><feBlend in2="shape" mode="normal" result="effect1_innerShadow_3987_22999"/></filter><filter id="h" color-interpolation-filters="sRGB" filterUnits="userSpaceOnUse" height="6.95156" width="5.57114" x="7.77322" y="7.83396"><feFlood flood-opacity="0" result="BackgroundImageFix"/><feBlend in="SourceGraphic" in2="BackgroundImageFix" mode="normal" result="shape"/><feColorMatrix in="SourceAlpha" result="hardAlpha" type="matrix" values="0 0 0 0 0 0 0 0 0 0 0 0 0 0 0 0 0 0 127 0"/><feOffset dx="-.15" dy="-.6"/><feGaussianBlur stdDeviation=".3"/><feComposite in2="hardAlpha" k2="-1" k3="1" operator="arithmetic"/><feColorMatrix type="matrix" values="0 0 0 0 0.156863 0 0 0 0 0.396078 0 0 0 0 0.768627 0 0 0 1 0"/><feBlend in2="shape" mode="normal" result="effect1_innerShadow_3987_22999"/></filter><filter id="i" color-interpolation-filters="sRGB" filterUnits="userSpaceOnUse" height="18.1526" width="14.9698" x="8.42664" y="7.60583"><feFlood flood-opacity="0" result="BackgroundImageFix"/><feBlend in="SourceGraphic" in2="BackgroundImageFix" mode="normal" result="shape"/><feColorMatrix in="SourceAlpha" result="hardAlpha" type="matrix" values="0 0 0 0 0 0 0 0 0 0 0 0 0 0 0 0 0 0 127 0"/><feOffset dx=".25" dy=".2"/><feGaussianBlur stdDeviation=".15"/><feComposite in2="hardAlpha" k2="-1" k3="1" operator="arithmetic"/><feColorMatrix type="matrix" values="0 0 0 0 0.270588 0 0 0 0 0.537255 0 0 0 0 0.8 0 0 0 1 0"/><feBlend in2="shape" mode="normal" result="effect1_innerShadow_3987_22999"/></filter><filter id="j" color-interpolation-filters="sRGB" filterUnits="userSpaceOnUse" height="14.7997" width="17.7373" x="13.5787" y="15.8513"><feFlood flood-opacity="0" result="BackgroundImageFix"/><feBlend in="SourceGraphic" in2="BackgroundImageFix" mode="normal" result="shape"/><feGaussianBlur result="effect1_foregroundBlur_3987_22999" stdDeviation="1"/></filter><filter id="k" color-interpolation-filters="sRGB" filterUnits="userSpaceOnUse" height="14.7504" width="6.50629" x="14.5724" y="7.4104"><feFlood flood-opacity="0" result="BackgroundImageFix"/><feBlend in="SourceGraphic" in2="BackgroundImageFix" mode="normal" result="shape"/><feGaussianBlur result="effect1_foregroundBlur_3987_22999" stdDeviation=".375"/></filter><filter id="l" color-interpolation-filters="sRGB" filterUnits="userSpaceOnUse" height="5.42083" width="5.50643" x="17.9909" y="7.48527"><feFlood flood-opacity="0" result="BackgroundImageFix"/><feBlend in="SourceGraphic" in2="BackgroundImageFix" mode="normal" result="shape"/><feGaussianBlur result="effect1_foregroundBlur_3987_22999" stdDeviation=".3"/></filter><filter id="m" color-interpolation-filters="sRGB" filterUnits="userSpaceOnUse" height="1.47772" width="1.67769" x="11.3353" y="5.29773"><feFlood flood-opacity="0" result="BackgroundImageFix"/><feBlend in="SourceGraphic" in2="BackgroundImageFix" mode="normal" result="shape"/><feColorMatrix in="SourceAlpha" result="hardAlpha" type="matrix" values="0 0 0 0 0 0 0 0 0 0 0 0 0 0 0 0 0 0 127 0"/><feOffset dx=".2"/><feGaussianBlur stdDeviation=".15"/><feComposite in2="hardAlpha" k2="-1" k3="1" operator="arithmetic"/><feColorMatrix type="matrix" values="0 0 0 0 0.619608 0 0 0 0 0.470588 0 0 0 0 0.407843 0 0 0 1 0"/><feBlend in2="shape" mode="normal" result="effect1_innerShadow_3987_22999"/></filter><filter id="n" color-interpolation-filters="sRGB" filterUnits="userSpaceOnUse" height="1.88068" width="1.88068" x="11.1339" y="5.09631"><feFlood flood-opacity="0" result="BackgroundImageFix"/><feBlend in="SourceGraphic" in2="BackgroundImageFix" mode="normal" result="shape"/><feGaussianBlur result="effect1_foregroundBlur_3987_22999" stdDeviation=".25"/></filter><filter id="o" color-interpolation-filters="sRGB" filterUnits="userSpaceOnUse" height="1.72772" width="1.72769" x="15.5455" y="5.04773"><feFlood flood-opacity="0" result="BackgroundImageFix"/><feBlend in="SourceGraphic" in2="BackgroundImageFix" mode="normal" result="shape"/><feColorMatrix in="SourceAlpha" result="hardAlpha" type="matrix" values="0 0 0 0 0 0 0 0 0 0 0 0 0 0 0 0 0 0 127 0"/><feOffset dx=".25" dy="-.25"/><feGaussianBlur stdDeviation=".25"/><feComposite in2="hardAlpha" k2="-1" k3="1" operator="arithmetic"/><feColorMatrix type="matrix" values="0 0 0 0 0.584314 0 0 0 0 0.368627 0 0 0 0 0.470588 0 0 0 1 0"/><feBlend in2="shape" mode="normal" result="effect1_innerShadow_3987_22999"/></filter><filter id="p" color-interpolation-filters="sRGB" filterUnits="userSpaceOnUse" height="1.88068" width="1.88068" x="15.3441" y="5.09631"><feFlood flood-opacity="0" result="BackgroundImageFix"/><feBlend in="SourceGraphic" in2="BackgroundImageFix" mode="normal" result="shape"/><feGaussianBlur result="effect1_foregroundBlur_3987_22999" stdDeviation=".25"/></filter><filter id="q" color-interpolation-filters="sRGB" filterUnits="userSpaceOnUse" height="5.37318" width="4.59106" x="11.8927" y="3.49736"><feFlood flood-opacity="0" result="BackgroundImageFix"/><feBlend in="SourceGraphic" in2="BackgroundImageFix" mode="normal" result="shape"/><feColorMatrix in="SourceAlpha" result="hardAlpha" type="matrix" values="0 0 0 0 0 0 0 0 0 0 0 0 0 0 0 0 0 0 127 0"/><feOffset dy="-.05"/><feGaussianBlur stdDeviation=".075"/><feComposite in2="hardAlpha" k2="-1" k3="1" operator="arithmetic"/><feColorMatrix type="matrix" values="0 0 0 0 0.305882 0 0 0 0 0.2 0 0 0 0 0.172549 0 0 0 1 0"/><feBlend in2="shape" mode="normal" result="effect1_innerShadow_3987_22999"/></filter><filter id="r" color-interpolation-filters="sRGB" filterUnits="userSpaceOnUse" height="3.35718" width="3.87921" x="13.2505" y="2.54736"><feFlood flood-opacity="0" result="BackgroundImageFix"/><feBlend in="SourceGraphic" in2="BackgroundImageFix" mode="normal" result="shape"/><feGaussianBlur result="effect1_foregroundBlur_3987_22999" stdDeviation=".5"/></filter><filter id="s" color-interpolation-filters="sRGB" filterUnits="userSpaceOnUse" height="3.65981" width="5.57709" x="11.3868" y="2.12998"><feFlood flood-opacity="0" result="BackgroundImageFix"/><feBlend in="SourceGraphic" in2="BackgroundImageFix" mode="normal" result="shape"/><feColorMatrix in="SourceAlpha" result="hardAlpha" type="matrix" values="0 0 0 0 0 0 0 0 0 0 0 0 0 0 0 0 0 0 127 0"/><feOffset dy="-.1"/><feGaussianBlur stdDeviation=".1"/><feComposite in2="hardAlpha" k2="-1" k3="1" operator="arithmetic"/><feColorMatrix type="matrix" values="0 0 0 0 0.207843 0 0 0 0 0.109804 0 0 0 0 0.109804 0 0 0 1 0"/><feBlend in2="shape" mode="normal" result="effect1_innerShadow_3987_22999"/></filter><filter id="t" color-interpolation-filters="sRGB" filterUnits="userSpaceOnUse" height="2.68658" width="2.2789" x="12.9303" y="5.10754"><feFlood flood-opacity="0" result="BackgroundImageFix"/><feBlend in="SourceGraphic" in2="BackgroundImageFix" mode="normal" result="shape"/><feGaussianBlur result="effect1_foregroundBlur_3987_22999" stdDeviation=".375"/></filter><filter id="u" color-interpolation-filters="sRGB" filterUnits="userSpaceOnUse" height="1.38658" width="1.03063" x="13.6601" y="5.6854"><feFlood flood-opacity="0" result="BackgroundImageFix"/><feBlend in="SourceGraphic" in2="BackgroundImageFix" mode="normal" result="shape"/><feGaussianBlur result="effect1_foregroundBlur_3987_22999" stdDeviation=".05"/></filter><filter id="v" color-interpolation-filters="sRGB" filterUnits="userSpaceOnUse" height="1.05186" width="1.45807" x="14.6986" y="4.19875"><feFlood flood-opacity="0" result="BackgroundImageFix"/><feBlend in="SourceGraphic" in2="BackgroundImageFix" mode="normal" result="shape"/><feColorMatrix in="SourceAlpha" result="hardAlpha" type="matrix" values="0 0 0 0 0 0 0 0 0 0 0 0 0 0 0 0 0 0 127 0"/><feOffset dx=".25" dy="-.4"/><feGaussianBlur stdDeviation=".3"/><feComposite in2="hardAlpha" k2="-1" k3="1" operator="arithmetic"/><feColorMatrix type="matrix" values="0 0 0 0 0.254902 0 0 0 0 0.156863 0 0 0 0 0.152941 0 0 0 1 0"/><feBlend in2="shape" mode="normal" result="effect1_innerShadow_3987_22999"/></filter><filter id="w" color-interpolation-filters="sRGB" filterUnits="userSpaceOnUse" height="1.05186" width="1.45813" x="12.4203" y="4.19875"><feFlood flood-opacity="0" result="BackgroundImageFix"/><feBlend in="SourceGraphic" in2="BackgroundImageFix" mode="normal" result="shape"/><feColorMatrix in="SourceAlpha" result="hardAlpha" type="matrix" values="0 0 0 0 0 0 0 0 0 0 0 0 0 0 0 0 0 0 127 0"/><feOffset dx=".25" dy="-.4"/><feGaussianBlur stdDeviation=".3"/><feComposite in2="hardAlpha" k2="-1" k3="1" operator="arithmetic"/><feColorMatrix type="matrix" values="0 0 0 0 0.254902 0 0 0 0 0.156863 0 0 0 0 0.152941 0 0 0 1 0"/><feBlend in2="shape" mode="normal" result="effect1_innerShadow_3987_22999"/></filter><filter id="x" color-interpolation-filters="sRGB" filterUnits="userSpaceOnUse" height=".419604" width=".459674" x="14.7593" y="5.48441"><feFlood flood-opacity="0" result="BackgroundImageFix"/><feBlend in="SourceGraphic" in2="BackgroundImageFix" mode="normal" result="shape"/><feGaussianBlur result="effect1_foregroundBlur_3987_22999" stdDeviation=".05"/></filter><filter id="y" color-interpolation-filters="sRGB" filterUnits="userSpaceOnUse" height=".627173" width=".617346" x="15.075" y="5.46187"><feFlood flood-opacity="0" result="BackgroundImageFix"/><feBlend in="SourceGraphic" in2="BackgroundImageFix" mode="normal" result="shape"/><feGaussianBlur result="effect1_foregroundBlur_3987_22999" stdDeviation=".1"/></filter><filter id="z" color-interpolation-filters="sRGB" filterUnits="userSpaceOnUse" height=".683264" width=".65943" x="13.1092" y="5.43379"><feFlood flood-opacity="0" result="BackgroundImageFix"/><feBlend in="SourceGraphic" in2="BackgroundImageFix" mode="normal" result="shape"/><feGaussianBlur result="effect1_foregroundBlur_3987_22999" stdDeviation=".1"/></filter><filter id="A" color-interpolation-filters="sRGB" filterUnits="userSpaceOnUse" height=".423267" width=".515521" x="12.8311" y="5.48081"><feFlood flood-opacity="0" result="BackgroundImageFix"/><feBlend in="SourceGraphic" in2="BackgroundImageFix" mode="normal" result="shape"/><feGaussianBlur result="effect1_foregroundBlur_3987_22999" stdDeviation=".05"/></filter><filter id="B" color-interpolation-filters="sRGB" filterUnits="userSpaceOnUse" height=".590894" width="1.21852" x="14.7105" y="4.5541"><feFlood flood-opacity="0" result="BackgroundImageFix"/><feBlend in="SourceGraphic" in2="BackgroundImageFix" mode="normal" result="shape"/><feGaussianBlur result="effect1_foregroundBlur_3987_22999" stdDeviation=".075"/></filter><filter id="C" color-interpolation-filters="sRGB" filterUnits="userSpaceOnUse" height=".616101" width="1.25291" x="12.4004" y="4.5823"><feFlood flood-opacity="0" result="BackgroundImageFix"/><feBlend in="SourceGraphic" in2="BackgroundImageFix" mode="normal" result="shape"/><feGaussianBlur result="effect1_foregroundBlur_3987_22999" stdDeviation=".075"/></filter><filter id="D" color-interpolation-filters="sRGB" filterUnits="userSpaceOnUse" height="1.42249" width=".864227" x="11.6801" y="3.53235"><feFlood flood-opacity="0" result="BackgroundImageFix"/><feBlend in="SourceGraphic" in2="BackgroundImageFix" mode="normal" result="shape"/><feGaussianBlur result="effect1_foregroundBlur_3987_22999" stdDeviation=".125"/></filter><linearGradient id="E" gradientUnits="userSpaceOnUse" x1="7.17249" x2="16.735" y1="29.3637" y2="29.3637"><stop offset="0" stop-color="#2d7cf2"/><stop offset="1" stop-color="#2d7cf2" stop-opacity="0"/></linearGradient><radialGradient id="F" cx="0" cy="0" gradientTransform="matrix(3.84375228 7.81249983 -11.27827054 5.54891251 20.985 21.77)" gradientUnits="userSpaceOnUse" r="1"><stop offset=".699635" stop-color="#3eb9ff" stop-opacity="0"/><stop offset=".912945" stop-color="#7196ff"/></radialGradient><linearGradient id="G" gradientUnits="userSpaceOnUse" x1="16.86" x2="16.7662" y1="30.27" y2="28.645"><stop offset=".177664" stop-color="#7f8fff"/><stop offset="1" stop-color="#7f8fff" stop-opacity="0"/></linearGradient><radialGradient id="H" cx="0" cy="0" gradientTransform="matrix(3.56250106 -6.12499706 3.81620608 2.21963179 22.2037 21.9262)" gradientUnits="userSpaceOnUse" r="1"><stop offset="0" stop-color="#4db5e2"/><stop offset="1" stop-color="#4db5e2" stop-opacity="0"/></radialGradient><radialGradient id="I" cx="0" cy="0" gradientTransform="matrix(2.15624814 -12.12496371 23.16435959 4.11944385 23.61 28.77)" gradientUnits="userSpaceOnUse" r="1"><stop offset=".930601" stop-color="#66b4dd" stop-opacity="0"/><stop offset="1" stop-color="#66b4dd"/></radialGradient><radialGradient id="J" cx="0" cy="0" gradientTransform="matrix(1.09704625 3.37499821 -16.62040304 5.40247719 16.1692 25.2075)" gradientUnits="userSpaceOnUse" r="1"><stop offset=".715914" stop-color="#37a9ff" stop-opacity="0"/><stop offset="1" stop-color="#37a9ff"/></radialGradient><radialGradient id="K" cx="0" cy="0" gradientTransform="matrix(-.83721209 2.5116288 -.64637948 -.21546047 9.76116 25.1404)" gradientUnits="userSpaceOnUse" r="1"><stop offset="0" stop-color="#ba917f"/><stop offset="1" stop-color="#ba917f" stop-opacity="0"/></radialGradient><linearGradient id="L" gradientUnits="userSpaceOnUse" x1="21.1725" x2="19.4694" y1="21.9261" y2="23.0121"><stop offset="0" stop-color="#c5a18a"/><stop offset="1" stop-color="#82574c"/></linearGradient><linearGradient id="M" gradientUnits="userSpaceOnUse" x1="22.0945" x2="23.3287" y1="24.8324" y2="26.1136"><stop offset="0" stop-color="#b041ab"/><stop offset="1" stop-color="#9157c5"/></linearGradient><radialGradient id="N" cx="0" cy="0" gradientTransform="matrix(-.73437277 -1.28906035 .42946145 -.24466255 23.5787 25.473)" gradientUnits="userSpaceOnUse" r="1"><stop offset="0" stop-color="#b77dc7"/><stop offset="1" stop-color="#b77dc7" stop-opacity="0"/></radialGradient><linearGradient id="O" gradientUnits="userSpaceOnUse" x1="5.89124" x2="25.735" y1="29.2388" y2="22.3325"><stop offset="0" stop-color="#f54696"/><stop offset="1" stop-color="#84a6e9"/></linearGradient><radialGradient id="P" cx="0" cy="0" gradientTransform="matrix(-.84374012 -2.31250419 1.52582138 -.55671109 25.2037 23.27)" gradientUnits="userSpaceOnUse" r="1"><stop offset="0" stop-color="#9eaef5"/><stop offset="1" stop-color="#9eaef5" stop-opacity="0"/></radialGradient><radialGradient id="Q" cx="0" cy="0" gradientTransform="matrix(-1.98032817 1.30152526 -1.05308241 -1.60231141 26.7037 14.2855)" gradientUnits="userSpaceOnUse" r="1"><stop offset=".171296" stop-color="#64ddff"/><stop offset="1" stop-color="#36b0fc"/></radialGradient><linearGradient id="R"><stop offset="0" stop-color="#65e0ff"/><stop offset="1" stop-color="#36b0fc"/></linearGradient><radialGradient id="S" cx="0" cy="0" gradientTransform="matrix(-1.47607442 .92253278 -.74643722 -1.19431732 29.42 12.5558)" gradientUnits="userSpaceOnUse" r="1" xlink:href="#R"/><radialGradient id="T" cx="0" cy="0" gradientTransform="matrix(-1.29364378 .80851533 -.65418129 -1.04670564 27.3474 10.5016)" gradientUnits="userSpaceOnUse" r="1" xlink:href="#R"/><radialGradient id="U" cx="0" cy="0" gradientTransform="matrix(-.06342427 .7319904 -.559948 -.04851743 21.0243 13.1079)" gradientUnits="userSpaceOnUse" r="1"><stop offset=".316525" stop-color="#94625a"/><stop offset="1" stop-color="#8d5050"/></radialGradient><radialGradient id="V" cx="0" cy="0" gradientTransform="matrix(-2.12500474 1.82811509 -1.79960898 -2.09186918 23.2975 13.2074)" gradientUnits="userSpaceOnUse" r="1"><stop offset="0" stop-color="#c9a38e"/><stop offset="1" stop-color="#a1706f"/></radialGradient><radialGradient id="W" cx="0" cy="0" gradientTransform="matrix(-3.7500054 2.87498548 -.73886408 -.96374201 12.9225 9.05115)" gradientUnits="userSpaceOnUse" r="1"><stop offset=".262684" stop-color="#5391be"/><stop offset="1" stop-color="#5391be" stop-opacity="0"/></radialGradient><radialGradient id="X" cx="0" cy="0" gradientTransform="matrix(-.9687314 4.04687881 -1.31668152 -.31518382 13.1412 10.7386)" gradientUnits="userSpaceOnUse" r="1"><stop offset="0" stop-color="#1154b9"/><stop offset="1" stop-color="#1154b9" stop-opacity="0"/></radialGradient><linearGradient id="Y" gradientUnits="userSpaceOnUse" x1="15.7766" x2="15.7766" y1="7.60583" y2="25.5668"><stop offset="0" stop-color="#3794e2"/><stop offset="1" stop-color="#3066bf"/></linearGradient><radialGradient id="Z" cx="0" cy="0" gradientTransform="matrix(4.21875521 -6.78124829 .537192 .33419828 11.3287 24.4261)" gradientUnits="userSpaceOnUse" r="1"><stop offset="0" stop-color="#2b68b8"/><stop offset="1" stop-color="#2b68b8" stop-opacity="0"/></radialGradient><radialGradient id="aa" cx="0" cy="0" gradientTransform="matrix(0 1.49191 -2.04898 0 13.7762 7.60583)" gradientUnits="userSpaceOnUse" r="1"><stop offset=".183779" stop-color="#3168c8"/><stop offset="1" stop-color="#3168c8" stop-opacity="0"/></radialGradient><radialGradient id="ab" cx="0" cy="0" gradientTransform="matrix(1.38037627 -.82812562 3.08645313 5.14471062 17.3387 21.2384)" gradientUnits="userSpaceOnUse" r="1"><stop offset=".256007" stop-color="#4861ab"/><stop offset="1" stop-color="#4861ab" stop-opacity="0"/></radialGradient><linearGradient id="ac" gradientUnits="userSpaceOnUse" x1="23.6512" x2="16.5175" y1="12.5025" y2="8.54855"><stop offset="0" stop-color="#46a5ef"/><stop offset=".910063" stop-color="#418dd5"/></linearGradient><radialGradient id="ad" cx="0" cy="0" gradientTransform="matrix(3.55688671 1.62587241 -.93464372 2.04470032 18.61 10.7531)" gradientUnits="userSpaceOnUse" r="1"><stop offset=".316958" stop-color="#2965ce"/><stop offset=".9999" stop-color="#2965ce" stop-opacity="0"/><stop offset="1" stop-color="#815ecd" stop-opacity="0"/></radialGradient><linearGradient id="ae"><stop offset=".32144" stop-color="#9b686d"/><stop offset=".769429" stop-color="#9b686d" stop-opacity="0"/></linearGradient><radialGradient id="af" cx="0" cy="0" gradientTransform="matrix(-1.03125981 -.86849368 1.09431814 -1.29940648 5.36462 13.794)" gradientUnits="userSpaceOnUse" r="1" xlink:href="#ae"/><radialGradient id="ag" cx="0" cy="0" gradientTransform="matrix(-1.2438761 -.94213608 1.33263591 -1.75944218 5.77065 14.6898)" gradientUnits="userSpaceOnUse" r="1" xlink:href="#ae"/><radialGradient id="ah" cx="0" cy="0" gradientTransform="matrix(-1.23006875 -1.01774603 1.46903567 -1.77550669 5.59849 15.2556)" gradientUnits="userSpaceOnUse" r="1" xlink:href="#ae"/><radialGradient id="ai" cx="0" cy="0" gradientTransform="matrix(-1.04688256 -.89062039 1.2917809 -1.51842796 5.80212 15.4879)" gradientUnits="userSpaceOnUse" r="1" xlink:href="#ae"/><radialGradient id="aj" cx="0" cy="0" gradientTransform="matrix(.14062505 .15625012 -.65979707 .5938171 7.0365 14.7799)" gradientUnits="userSpaceOnUse" r="1"><stop offset="0" stop-color="#bd9484"/><stop offset="1" stop-color="#bd9484" stop-opacity="0"/></radialGradient><radialGradient id="ak" cx="0" cy="0" gradientTransform="matrix(-11.2812523 11.2812523 -14.3498836 -14.3498836 28.8287 18.8637)" gradientUnits="userSpaceOnUse" r="1"><stop offset="0" stop-color="#67ecff"/><stop offset="1" stop-color="#67ecff" stop-opacity="0"/></radialGradient><linearGradient id="al" gradientUnits="userSpaceOnUse" x1="17.8255" x2="20.2687" y1="8.1604" y2="21.3966"><stop offset="0" stop-color="#54acfa"/><stop offset="1" stop-color="#6096e0"/></linearGradient><linearGradient id="am" gradientUnits="userSpaceOnUse" x1="22.4381" x2="18.7662" y1="11.8794" y2="7.98876"><stop offset="0" stop-color="#57b4fd"/><stop offset="1" stop-color="#57b4fd" stop-opacity="0"/></linearGradient><radialGradient id="an" cx="0" cy="0" gradientTransform="matrix(.776648 0 0 1.35914 11.3353 6.03658)" gradientUnits="userSpaceOnUse" r="1"><stop offset=".350532" stop-color="#865d5f"/><stop offset="1" stop-color="#76594a"/></radialGradient><radialGradient id="ao" cx="0" cy="0" gradientTransform="matrix(-.42034918 -.60076707 .60076707 -.42034918 12.0742 6.77543)" gradientUnits="userSpaceOnUse" r="1"><stop offset=".339551" stop-color="#834e63"/><stop offset="1" stop-color="#834e63" stop-opacity="0"/></radialGradient><linearGradient id="ap" gradientUnits="userSpaceOnUse" x1="12.0743" x2="11.7908" y1="6.15998" y2="6.15998"><stop offset="0" stop-color="#694448"/><stop offset="1" stop-color="#6e464d"/></linearGradient><linearGradient id="aq" gradientUnits="userSpaceOnUse" x1="16.7652" x2="16.4029" y1="5.55349" y2="6.67598"><stop offset="0" stop-color="#cca68c"/><stop offset="1" stop-color="#ae7f75"/></linearGradient><radialGradient id="ar" cx="0" cy="0" gradientTransform="matrix(.36587317 -.26641216 .30407497 .41759683 16.4491 5.91936)" gradientUnits="userSpaceOnUse" r="1"><stop offset=".542503" stop-color="#8f6459"/><stop offset="1" stop-color="#8f6459" stop-opacity="0"/></radialGradient><radialGradient id="as" cx="0" cy="0" gradientTransform="matrix(.36346511 -.66851488 .39128432 .21273752 16.2662 6.40013)" gradientUnits="userSpaceOnUse" r="1"><stop offset=".754913" stop-color="#8a5d55" stop-opacity="0"/><stop offset=".915553" stop-color="#8a5d55"/></radialGradient><radialGradient id="at" cx="0" cy="0" gradientTransform="matrix(.11475326 .11358835 -.14643079 .14793252 16.2845 6.03666)" gradientUnits="userSpaceOnUse" r="1"><stop offset="0" stop-color="#895f52"/><stop offset="1" stop-color="#895f52" stop-opacity="0"/></radialGradient><linearGradient id="au" gradientUnits="userSpaceOnUse" x1="15.9617" x2="12.5818" y1="6.20895" y2="6.7126"><stop offset="0" stop-color="#c69980"/><stop offset="1" stop-color="#916762"/></linearGradient><radialGradient id="av" cx="0" cy="0" gradientTransform="matrix(0 -.578473 .711966 0 15.2138 5.47387)" gradientUnits="userSpaceOnUse" r="1"><stop offset="0" stop-color="#ab7773"/><stop offset="1" stop-color="#ab7773" stop-opacity="0"/></radialGradient><radialGradient id="aw" cx="0" cy="0" gradientTransform="matrix(0 -.608138 .756274 0 13.1965 5.5332)" gradientUnits="userSpaceOnUse" r="1"><stop offset="0" stop-color="#8f5d65"/><stop offset="1" stop-color="#8f5d65" stop-opacity="0"/></radialGradient><linearGradient id="ax" gradientUnits="userSpaceOnUse" x1="11.7874" x2="12.6201" y1="7.40211" y2="7.37244"><stop offset="0" stop-color="#9b7569"/><stop offset="1" stop-color="#9b7569" stop-opacity="0"/></linearGradient><linearGradient id="ay" gradientUnits="userSpaceOnUse" x1="16.3533" x2="15.861" y1="7.02972" y2="6.98679"><stop offset="0" stop-color="#c1987f"/><stop offset="1" stop-color="#c1987f" stop-opacity="0"/></linearGradient><radialGradient id="az" cx="0" cy="0" gradientTransform="matrix(0 3.68591 -4.56845 0 14.1188 5.35787)" gradientUnits="userSpaceOnUse" r="1"><stop offset=".607961" stop-color="#9b7168" stop-opacity="0"/><stop offset=".884019" stop-color="#8f5d78"/><stop offset="1" stop-color="#7c5267"/></radialGradient><linearGradient id="aA" gradientUnits="userSpaceOnUse" x1="13.9401" x2="17.5444" y1="4.88798" y2="3.59754"><stop offset="0" stop-color="#c89f8b"/><stop offset="1" stop-color="#c89f8b" stop-opacity="0"/></linearGradient><radialGradient id="aB" cx="0" cy="0" gradientTransform="matrix(.35308949 -1.30850793 .48523534 .13093654 16.0984 4.21933)" gradientUnits="userSpaceOnUse" r="1"><stop offset="0" stop-color="#554042"/><stop offset="1" stop-color="#554042" stop-opacity="0"/></radialGradient><radialGradient id="aC" cx="0" cy="0" gradientTransform="matrix(1.69275754 .15577526 -.08375911 .91018218 15.3715 3.44046)" gradientUnits="userSpaceOnUse" r="1"><stop offset=".392334" stop-color="#644949"/><stop offset="1" stop-color="#644949" stop-opacity="0"/></radialGradient><radialGradient id="aD" cx="0" cy="0" gradientTransform="matrix(0 .743151 -1.15093 0 14.1754 2.22998)" gradientUnits="userSpaceOnUse" r="1"><stop offset="0" stop-color="#624c49"/><stop offset="1" stop-color="#624c49" stop-opacity="0"/></radialGradient><radialGradient id="aE" cx="0" cy="0" gradientTransform="matrix(1.36043645 -.99696209 1.56190905 2.13135286 11.3213 5.24744)" gradientUnits="userSpaceOnUse" r="1"><stop offset="0" stop-color="#4e3c3a"/><stop offset="1" stop-color="#4e3c3a" stop-opacity="0"/></radialGradient><linearGradient id="aF" gradientUnits="userSpaceOnUse" x1="13.793" x2="14.2082" y1="6.50076" y2="6.50076"><stop offset="0" stop-color="#8b6455"/><stop offset="1" stop-color="#8b6455" stop-opacity="0"/></linearGradient><linearGradient id="aG" gradientUnits="userSpaceOnUse" x1="14.5908" x2="14.1368" y1="6.64349" y2="6.637"><stop offset="0" stop-color="#cda186"/><stop offset="1" stop-color="#cda186" stop-opacity="0"/></linearGradient><linearGradient id="aH" gradientUnits="userSpaceOnUse" x1="14.2615" x2="14.2615" y1="6.97201" y2="6.7184"><stop offset="0" stop-color="#9c6073"/><stop offset="1" stop-color="#9c6073" stop-opacity="0"/></linearGradient><radialGradient id="aI" cx="0" cy="0" gradientTransform="matrix(0 .0871417 -.279966 0 14.3203 6.74767)" gradientUnits="userSpaceOnUse" r="1"><stop offset="0" stop-color="#c39787"/><stop offset="1" stop-color="#c39787" stop-opacity="0"/></radialGradient><linearGradient id="aJ" gradientUnits="userSpaceOnUse" x1="13.7165" x2="13.909" y1="7.6868" y2="7.38251"><stop offset="0" stop-color="#a87d7b"/><stop offset=".663171" stop-color="#a87d7b" stop-opacity="0"/></linearGradient><linearGradient id="aK"><stop offset="0" stop-color="#422235"/><stop offset="1" stop-color="#422235" stop-opacity="0"/></linearGradient><radialGradient id="aL" cx="0" cy="0" gradientTransform="matrix(.04611283 -.26698706 .78986152 .13642142 15.2565 5.11419)" gradientUnits="userSpaceOnUse" r="1" xlink:href="#aK"/><radialGradient id="aM" cx="0" cy="0" gradientTransform="matrix(.0461158 -.26698756 .78990345 .13643718 12.9782 5.11419)" gradientUnits="userSpaceOnUse" r="1" xlink:href="#aK"/><linearGradient id="aN"><stop offset=".80198" stop-color="#7d574a"/><stop offset="1" stop-color="#694b43"/><stop offset="1" stop-color="#804d49"/><stop offset="1" stop-color="#664944"/></linearGradient><radialGradient id="aO" cx="0" cy="0" gradientTransform="matrix(0 .358982 -.571001 0 15.1398 5.73475)" gradientUnits="userSpaceOnUse" r="1" xlink:href="#aN"/><linearGradient id="aP"><stop offset=".765532" stop-color="#ffe6e2" stop-opacity="0"/><stop offset=".966159" stop-color="#ffe6e2"/></linearGradient><radialGradient id="aQ" cx="0" cy="0" gradientTransform="matrix(-.10261608 -.13223466 .18205532 -.14127766 15.039 5.772)" gradientUnits="userSpaceOnUse" r="1" xlink:href="#aP"/><linearGradient id="aR"><stop offset="0" stop-color="#b4948d"/><stop offset="1" stop-color="#b4948d" stop-opacity="0"/></linearGradient><linearGradient id="aS" gradientUnits="userSpaceOnUse" x1="15.484" x2="15.3451" xlink:href="#aR" y1="5.75862" y2="5.84416"/><radialGradient id="aT" cx="0" cy="0" gradientTransform="matrix(0 .359 -.57103 0 13.2089 5.73476)" gradientUnits="userSpaceOnUse" r="1" xlink:href="#aN"/><linearGradient id="aU" gradientUnits="userSpaceOnUse" x1="13.5379" x2="13.3991" xlink:href="#aR" y1="5.7586" y2="5.84414"/><radialGradient id="aV" cx="0" cy="0" gradientTransform="matrix(-.00342283 -.21861521 .26278479 -.00411439 13.0821 5.83178)" gradientUnits="userSpaceOnUse" r="1" xlink:href="#aP"/><linearGradient id="aW"><stop offset="0" stop-color="#5b4545"/><stop offset="1" stop-color="#5b4545" stop-opacity="0"/></linearGradient><linearGradient id="aX" gradientUnits="userSpaceOnUse" x1="15.4911" x2="15.3051" xlink:href="#aW" y1="4.81169" y2="4.43169"/><linearGradient id="aY" gradientUnits="userSpaceOnUse" x1="13.1432" x2="12.6169" xlink:href="#aW" y1="4.75517" y2="4.53445"/><linearGradient id="aZ" gradientUnits="userSpaceOnUse" x1="12.1122" x2="12.1122" y1="3.86366" y2="4.81829"><stop offset=".227964" stop-color="#4a3236"/><stop offset="1" stop-color="#4a3236" stop-opacity="0"/></linearGradient><g filter="url(#a)"><path d="m19.7506 29.748h-13.73436c3.43229-1.3259 10.76876-4.3457 12.65626-5.8182 2.3594-1.8406 2.9375-3.2913 4.1094-4.9759 1.1718-1.6846 2.0625-2.2933 3.9218-2.0355 1.6918.2346 3.1641 1.5745 3.2891 4.0391 0 4.5937-2.7392 6.5554-4.1641 7.5114-1.9062 1.2791-4.625 1.3259-6.0781 1.2791z" fill="#4bc4fd"/><path d="m19.7506 29.748h-13.73436c3.43229-1.3259 10.76876-4.3457 12.65626-5.8182 2.3594-1.8406 2.9375-3.2913 4.1094-4.9759 1.1718-1.6846 2.0625-2.2933 3.9218-2.0355 1.6918.2346 3.1641 1.5745 3.2891 4.0391 0 4.5937-2.7392 6.5554-4.1641 7.5114-1.9062 1.2791-4.625 1.3259-6.0781 1.2791z" fill="url(#E)"/></g><path d="m19.7506 29.748h-13.73436c3.43229-1.3259 10.76876-4.3457 12.65626-5.8182 2.3594-1.8406 2.9375-3.2913 4.1094-4.9759 1.1718-1.6846 2.0625-2.2933 3.9218-2.0355 1.6918.2346 3.1641 1.5745 3.2891 4.0391 0 4.5937-2.7392 6.5554-4.1641 7.5114-1.9062 1.2791-4.625 1.3259-6.0781 1.2791z" fill="url(#F)"/><path d="m19.7506 29.748h-13.73436c3.43229-1.3259 10.76876-4.3457 12.65626-5.8182 2.3594-1.8406 2.9375-3.2913 4.1094-4.9759 1.1718-1.6846 2.0625-2.2933 3.9218-2.0355 1.6918.2346 3.1641 1.5745 3.2891 4.0391 0 4.5937-2.7392 6.5554-4.1641 7.5114-1.9062 1.2791-4.625 1.3259-6.0781 1.2791z" fill="url(#G)"/><path d="m19.7506 29.748h-13.73436c3.43229-1.3259 10.76876-4.3457 12.65626-5.8182 2.3594-1.8406 2.9375-3.2913 4.1094-4.9759 1.1718-1.6846 2.0625-2.2933 3.9218-2.0355 1.6918.2346 3.1641 1.5745 3.2891 4.0391 0 4.5937-2.7392 6.5554-4.1641 7.5114-1.9062 1.2791-4.625 1.3259-6.0781 1.2791z" fill="url(#H)"/><path d="m19.7506 29.748h-13.73436c3.43229-1.3259 10.76876-4.3457 12.65626-5.8182 2.3594-1.8406 2.9375-3.2913 4.1094-4.9759 1.1718-1.6846 2.0625-2.2933 3.9218-2.0355 1.6918.2346 3.1641 1.5745 3.2891 4.0391 0 4.5937-2.7392 6.5554-4.1641 7.5114-1.9062 1.2791-4.625 1.3259-6.0781 1.2791z" fill="url(#I)"/><g filter="url(#b)"><path d="m21.985 27.3325-14.37501 1.5c4.68751-2.2396 11.93751-4.4063 14.37501-6.1875 1.8259-1.3343 2.8959-1.1992 3.2812.5625.2188 1-1.0312 3.625-3.2812 4.125z" fill="#1b71cc"/><path d="m21.985 27.3325-14.37501 1.5c4.68751-2.2396 11.93751-4.4063 14.37501-6.1875 1.8259-1.3343 2.8959-1.1992 3.2812.5625.2188 1-1.0312 3.625-3.2812 4.125z" fill="url(#J)"/></g><path d="m7.3053 27.348 1.17187-2.3906 1.76563.3047v1.039z" fill="#ab7f67"/><path d="m7.3053 27.348 1.17187-2.3906 1.76563.3047v1.039z" fill="url(#K)"/><path d="m19.8365 23.0121c-.1687-.1438-.6744-.638-.9062-.8672l1.8672-.8828c.075.1312.5104.7995.7187 1.1172z" fill="url(#L)"/><path d="m23.4685 25.327-.421-1.143-2.3516.5363 2.2255 1.0988c.0933.0461.201.0536.2998.0209.2126-.0704.3246-.3028.2473-.513z" fill="url(#M)"/><path d="m23.4685 25.327-.421-1.143-2.3516.5363 2.2255 1.0988c.0933.0461.201.0536.2998.0209.2126-.0704.3246-.3028.2473-.513z" fill="url(#N)"/><g filter="url(#c)"><path d="m24.4577 21.2622-22.16728 7.6886c-.17272.0599-.28709.2243-.28312.4071.00498.229.19162.4121.42071.4121h3.94763c.4875 0 .96875-.0989 1.15625-.1562 5.92191-2.0157 17.40621-5.8594 18.17581-6.1993.443-.1956.5115-.3783.605-.6277l.0004-.0012c.0938-.25.0469-1.0312-.5-1.4531-.4375-.3375-1.1054-.1849-1.3554-.0703z" fill="url(#O)"/><path d="m24.4577 21.2622-22.16728 7.6886c-.17272.0599-.28709.2243-.28312.4071.00498.229.19162.4121.42071.4121h3.94763c.4875 0 .96875-.0989 1.15625-.1562 5.92191-2.0157 17.40621-5.8594 18.17581-6.1993.443-.1956.5115-.3783.605-.6277l.0004-.0012c.0938-.25.0469-1.0312-.5-1.4531-.4375-.3375-1.1054-.1849-1.3554-.0703z" fill="url(#P)"/></g><g filter="url(#d)"><circle cx="25.8639" cy="14.7621" fill="url(#Q)" r="1.29297"/></g><g filter="url(#e)"><circle cx="28.8639" cy="12.8129" fill="url(#S)" r="1.04297"/></g><g filter="url(#f)"><circle cx="26.86" cy="10.7269" fill="url(#T)" r=".914062"/></g><rect fill="url(#U)" height="1.03067" rx=".299347" transform="matrix(.89419175 .44768418 -.44768418 .89419175 7.920633 -7.894508)" width=".598694" x="20.6615" y="12.8092"/><g filter="url(#g)"><path d="m20.6802 13.8489c.2562-.5878.3724-1.2195.3984-1.4618l2.047.0234c.0469.2689-.0391.5837-.0781.7036.0875.3221.0364.6866 0 .8286-.0547.2254-.1789.7129-.2383.8599-.0742.1837-.1836.2463-.3477.2306-.0572-.0054-.1075-.0225-.1488-.0429-.0687-.034-.157-.0435-.2296-.0188-.0653.0223-.146.036-.227.0187-.0843-.0179-.1537-.065-.2037-.1124-.0518-.0492-.1256-.0758-.1954-.0604-.0666.0146-.1466.0229-.2259.0048-.066-.0151-.1267-.0651-.172-.115-.0442-.0487-.11-.0769-.1755-.071-.0843.0075-.1828.0029-.2347-.0407-.0976-.0821-.2187-.1759.0313-.7466z" fill="url(#V)"/></g><path d="m7.60242 12.7758h.59375c-.10625.6688.0122 1.6083.11377 1.9963-1.00625.1313-1.63721-.1083-1.85596-.2463l-.10938-1.4609c.33125-.2563.97657-.2995 1.25782-.2891z" fill="#aa846a"/><g filter="url(#h)"><path d="m10.6842 11.6957c-.96738.7145-2.20452 1.0169-2.72275 1.0586-.13125 1 .10677 1.7708.24218 2.0312.30089-.0273 1.14854-.1094 2.49997-.7187 1.6792-.7572 2.4585-1.8034 2.6408-2.2461l-.2813-3.38674c-.375 1.03125-1.0039 2.24614-2.3789 3.26174z" fill="#3086d6"/><path d="m10.6842 11.6957c-.96738.7145-2.20452 1.0169-2.72275 1.0586-.13125 1 .10677 1.7708.24218 2.0312.30089-.0273 1.14854-.1094 2.49997-.7187 1.6792-.7572 2.4585-1.8034 2.6408-2.2461l-.2813-3.38674c-.375 1.03125-1.0039 2.24614-2.3789 3.26174z" fill="url(#W)"/><path d="m10.6842 11.6957c-.96738.7145-2.20452 1.0169-2.72275 1.0586-.13125 1 .10677 1.7708.24218 2.0312.30089-.0273 1.14854-.1094 2.49997-.7187 1.6792-.7572 2.4585-1.8034 2.6408-2.2461l-.2813-3.38674c-.375 1.03125-1.0039 2.24614-2.3789 3.26174z" fill="url(#X)"/></g><g filter="url(#i)"><path d="m12.7585 11.6527c-.4311-1.71529.1692-3.16145.5078-3.48437l2.3437-.5625h1.7422c1.5235 0 2.8219.18907 4.2032 1.25782 1.3531 1.04703 1.6221 2.79935 1.5884 3.59255-.0012.0271-.0242.0473-.0513.0463l-1.9882-.0742c-.0301-.0012-.0524-.0281-.0493-.0581.0383-.3712-.0663-1.2736-.9996-2.0144-.6061-.48096-1.5194-.53163-2.1467-.49384-.2472.0149-.4004.26294-.3226.49804.3161.9553.8405 2.5125 1.2114 3.5193.5469 1.4843-.1093 2.9531.375 4.4843.377 1.1918 1.2036 2.4186 1.6366 2.9207.0176.0203.0108.0517-.0135.063l-1.8339.8513c-.0162.0075-.0357.0031-.0474-.0105-1.848-2.1568-2.4998-3.825-2.5621-3.9885-.0625-.1641-.2304-.5313-.5742-.5313-.275 0-.5898.3516-.8086.7305l-4.6672 7.137c-.0121.0184-.0347.0268-.0559.0206l-1.78311-.5201c-.02953-.0086-.04498-.0402-.03182-.068 1.49851-3.1639 4.54113-9.5096 4.77243-10.0578.2109-.5.1813-.9165.1406-1.0859-.0313-.1302-.2188-.711-.5859-2.1719z" fill="url(#Y)"/><path d="m12.7585 11.6527c-.4311-1.71529.1692-3.16145.5078-3.48437l2.3437-.5625h1.7422c1.5235 0 2.8219.18907 4.2032 1.25782 1.3531 1.04703 1.6221 2.79935 1.5884 3.59255-.0012.0271-.0242.0473-.0513.0463l-1.9882-.0742c-.0301-.0012-.0524-.0281-.0493-.0581.0383-.3712-.0663-1.2736-.9996-2.0144-.6061-.48096-1.5194-.53163-2.1467-.49384-.2472.0149-.4004.26294-.3226.49804.3161.9553.8405 2.5125 1.2114 3.5193.5469 1.4843-.1093 2.9531.375 4.4843.377 1.1918 1.2036 2.4186 1.6366 2.9207.0176.0203.0108.0517-.0135.063l-1.8339.8513c-.0162.0075-.0357.0031-.0474-.0105-1.848-2.1568-2.4998-3.825-2.5621-3.9885-.0625-.1641-.2304-.5313-.5742-.5313-.275 0-.5898.3516-.8086.7305l-4.6672 7.137c-.0121.0184-.0347.0268-.0559.0206l-1.78311-.5201c-.02953-.0086-.04498-.0402-.03182-.068 1.49851-3.1639 4.54113-9.5096 4.77243-10.0578.2109-.5.1813-.9165.1406-1.0859-.0313-.1302-.2188-.711-.5859-2.1719z" fill="url(#Z)"/><path d="m12.7585 11.6527c-.4311-1.71529.1692-3.16145.5078-3.48437l2.3437-.5625h1.7422c1.5235 0 2.8219.18907 4.2032 1.25782 1.3531 1.04703 1.6221 2.79935 1.5884 3.59255-.0012.0271-.0242.0473-.0513.0463l-1.9882-.0742c-.0301-.0012-.0524-.0281-.0493-.0581.0383-.3712-.0663-1.2736-.9996-2.0144-.6061-.48096-1.5194-.53163-2.1467-.49384-.2472.0149-.4004.26294-.3226.49804.3161.9553.8405 2.5125 1.2114 3.5193.5469 1.4843-.1093 2.9531.375 4.4843.377 1.1918 1.2036 2.4186 1.6366 2.9207.0176.0203.0108.0517-.0135.063l-1.8339.8513c-.0162.0075-.0357.0031-.0474-.0105-1.848-2.1568-2.4998-3.825-2.5621-3.9885-.0625-.1641-.2304-.5313-.5742-.5313-.275 0-.5898.3516-.8086.7305l-4.6672 7.137c-.0121.0184-.0347.0268-.0559.0206l-1.78311-.5201c-.02953-.0086-.04498-.0402-.03182-.068 1.49851-3.1639 4.54113-9.5096 4.77243-10.0578.2109-.5.1813-.9165.1406-1.0859-.0313-.1302-.2188-.711-.5859-2.1719z" fill="url(#aa)"/></g><path d="m12.7585 11.6527c-.4311-1.71529.1692-3.16145.5078-3.48437l2.3437-.5625h1.7422c1.5235 0 2.8219.18907 4.2032 1.25782 1.3531 1.04703 1.6221 2.79935 1.5884 3.59255-.0012.0271-.0242.0473-.0513.0463l-1.9882-.0742c-.0301-.0012-.0524-.0281-.0493-.0581.0383-.3712-.0663-1.2736-.9996-2.0144-.6061-.48096-1.5194-.53163-2.1467-.49384-.2472.0149-.4004.26294-.3226.49804.3161.9553.8405 2.5125 1.2114 3.5193.5469 1.4843-.1093 2.9531.375 4.4843.377 1.1918 1.2036 2.4186 1.6366 2.9207.0176.0203.0108.0517-.0135.063l-1.8339.8513c-.0162.0075-.0357.0031-.0474-.0105-1.848-2.1568-2.4998-3.825-2.5621-3.9885-.0625-.1641-.2304-.5313-.5742-.5313-.275 0-.5898.3516-.8086.7305l-4.6672 7.137c-.0121.0184-.0347.0268-.0559.0206l-1.78311-.5201c-.02953-.0086-.04498-.0402-.03182-.068 1.49851-3.1639 4.54113-9.5096 4.77243-10.0578.2109-.5.1813-.9165.1406-1.0859-.0313-.1302-.2188-.711-.5859-2.1719z" fill="url(#ab)"/><path d="m17.568 10.2774c-.0226-.2073.1224-.40228.3406-.41544.6273-.03779 1.5406.01288 2.1467.49384.9334.7408 1.0379 1.6432.9996 2.0144-.0031.03.0193.0569.0494.0581l1.9881.0742c.0272.001.0502-.0192.0513-.0463.0337-.7932-.2352-2.54552-1.5884-3.59255-1.3813-1.06875-2.6797-1.25782-4.2031-1.25782h-.3903c-.1574 1.28524.2502 2.1929.6061 2.67157z" fill="url(#ac)"/><path d="m17.568 10.2774c-.0226-.2073.1224-.40228.3406-.41544.6273-.03779 1.5406.01288 2.1467.49384.9334.7408 1.0379 1.6432.9996 2.0144-.0031.03.0193.0569.0494.0581l1.9881.0742c.0272.001.0502-.0192.0513-.0463.0337-.7932-.2352-2.54552-1.5884-3.59255-1.3813-1.06875-2.6797-1.25782-4.2031-1.25782h-.3903c-.1574 1.28524.2502 2.1929.6061 2.67157z" fill="url(#ad)"/><g clip-rule="evenodd" fill-rule="evenodd"><path d="m7.12687 13.5437c-.94125-.2835-1.29437.0097-1.38802.1191-.1347.1574-.37142.1757-.52875.041-.15732-.1347-.17567-.3714-.04097-.5287.32773-.3828 1.01368-.699 2.17398-.3496.19832.0597.31067.2689.25096.4672-.05972.1983-.26889.3107-.4672.251z" fill="#ab8572"/><path d="m7.12687 13.5437c-.94125-.2835-1.29437.0097-1.38802.1191-.1347.1574-.37142.1757-.52875.041-.15732-.1347-.17567-.3714-.04097-.5287.32773-.3828 1.01368-.699 2.17398-.3496.19832.0597.31067.2689.25096.4672-.05972.1983-.26889.3107-.4672.251z" fill="url(#af)"/><path d="m5.40354 14.1389c-.00032.0008-.00045.0012-.00036.0013.00086.0005.02055-.0279.08426-.0796.0732-.0594.17878-.1285.31068-.1933.26513-.1304.60825-.2299.96811-.2186.20701.0065.38011-.156.38663-.363.00653-.207-.15599-.3801-.36299-.3866-.50733-.016-.97203.1227-1.32266.2951-.17598.0865-.33027.1849-.45234.284-.10947.0888-.23417.2108-.296.3548-.08171.1903.00632.4108.19663.4925.18692.0803.40299-.0032.48804-.1866z" fill="#ab8572"/><path d="m5.40354 14.1389c-.00032.0008-.00045.0012-.00036.0013.00086.0005.02055-.0279.08426-.0796.0732-.0594.17878-.1285.31068-.1933.26513-.1304.60825-.2299.96811-.2186.20701.0065.38011-.156.38663-.363.00653-.207-.15599-.3801-.36299-.3866-.50733-.016-.97203.1227-1.32266.2951-.17598.0865-.33027.1849-.45234.284-.10947.0888-.23417.2108-.296.3548-.08171.1903.00632.4108.19663.4925.18692.0803.40299-.0032.48804-.1866z" fill="url(#ag)"/><path d="m5.24982 14.6668c-.0033.0045-.00362.005-.00195.0011-.08171.1903-.30222.2783-.49253.1966s-.27834-.3022-.19662-.4925c.05533-.1289.16395-.2534.26989-.354.11566-.1097.26417-.2245.43726-.3284.34364-.2062.81149-.3853 1.3365-.3687.207.0065.36952.1796.36299.3866-.00652.207-.17962.3695-.38663.363-.34217-.0108-.66848.1071-.92693.2622-.12796.0768-.23247.1587-.30695.2294-.06011.057-.08681.0935-.09503.1047z" fill="#ab8572"/><path d="m5.24982 14.6668c-.0033.0045-.00362.005-.00195.0011-.08171.1903-.30222.2783-.49253.1966s-.27834-.3022-.19662-.4925c.05533-.1289.16395-.2534.26989-.354.11566-.1097.26417-.2245.43726-.3284.34364-.2062.81149-.3853 1.3365-.3687.207.0065.36952.1796.36299.3866-.00652.207-.17962.3695-.38663.363-.34217-.0108-.66848.1071-.92693.2622-.12796.0768-.23247.1587-.30695.2294-.06011.057-.08681.0935-.09503.1047z" fill="url(#ah)"/><path d="m5.61135 14.9446c-.00045.0008-.00058.001-.00044.0007-.08171.1903-.30223.2783-.49253.1966-.19031-.0817-.27834-.3022-.19663-.4925.09274-.216.32738-.4453.59957-.6045.28789-.1684.67757-.2948 1.11837-.2365.20532.0271.34977.2155.32263.4209-.02714.2053-.21559.3497-.42091.3226-.23888-.0316-.46184.0353-.6414.1404-.08934.0522-.16255.111-.21544.1639-.05058.0506-.07.083-.07322.0884z" fill="#ab8572"/><path d="m5.61135 14.9446c-.00045.0008-.00058.001-.00044.0007-.08171.1903-.30223.2783-.49253.1966-.19031-.0817-.27834-.3022-.19663-.4925.09274-.216.32738-.4453.59957-.6045.28789-.1684.67757-.2948 1.11837-.2365.20532.0271.34977.2155.32263.4209-.02714.2053-.21559.3497-.42091.3226-.23888-.0316-.46184.0353-.6414.1404-.08934.0522-.16255.111-.21544.1639-.05058.0506-.07.083-.07322.0884z" fill="url(#ai)"/></g><path d="m6.12563 14.8871c.125-.1375.39844-.461.51953-.6055.23127 0 .91146-.0664 1.1992-.0976-.39062.7148-.83984 1.0039-1.07422 1.1953-.3164.2109-.60547 0-.64451-.0664-.04687-.0469-.15625-.2539 0-.4258z" fill="#aa846a"/><path d="m6.12563 14.8871c.125-.1375.39844-.461.51953-.6055.23127 0 .91146-.0664 1.1992-.0976-.39062.7148-.83984 1.0039-1.07422 1.1953-.3164.2109-.60547 0-.64451-.0664-.04687-.0469-.15625-.2539 0-.4258z" fill="url(#aj)"/><g filter="url(#j)"><path d="m26.485 24.3324c.981-2.2784.6264-3.8868.0552-5.0133-.4746-.9358-.0031-1.6624 1.018-1.4211.7371.1743 1.3639.6943 1.5395 1.431.7214 3.0249-.3128 6.1816-3.5815 7.8159-2.95 1.475-7.8541 1.5938-9.9375 1.4688 3 0 9.8045-1.7222 10.9063-4.2813z" fill="url(#ak)"/></g><g filter="url(#k)"><path d="m16.7818 13.4499c-.6504-1.2805-1.1659-3.1848-1.4423-4.42321-.0895-.40127.1814-.78855.587-.85614.4477-.07462.855.2717.9096.7223.2059 1.69835.9514 3.37295 1.4457 4.68205.5781 1.5312.3125 1.0625.2344 3.5156-.0568 1.7812 1.2656 3.25 1.8125 4.1094l-.4063.2109c-.6094-.8281-2.2031-2.9453-2.2031-4.8515 0-1.7911.0625-1.1407-.9375-3.1094z" fill="url(#al)"/></g><g filter="url(#l)"><path d="m18.5944 8.28564c1.2083-.02084 3.7812.82812 4.104 4.00016" stroke="url(#am)" stroke-width=".4"/></g><g filter="url(#m)"><circle cx="12.0742" cy="6.03658" fill="url(#an)" r=".738851"/></g><circle cx="12.0742" cy="6.03658" fill="url(#ao)" r=".738851"/><g filter="url(#n)"><circle cx="12.0743" cy="6.03666" fill="url(#ap)" r=".440344"/></g><g filter="url(#o)"><circle cx="16.2844" cy="6.03658" fill="url(#aq)" r=".738851"/><circle cx="16.2844" cy="6.03658" fill="url(#ar)" r=".738851"/></g><g filter="url(#p)"><circle cx="16.2845" cy="6.03666" fill="#a57c70" r=".440344"/><circle cx="16.2845" cy="6.03666" fill="url(#as)" r=".440344"/><circle cx="16.2845" cy="6.03666" fill="url(#at)" r=".440344"/></g><g filter="url(#q)"><path d="m11.9185 5.7654c.0071.00049.0144.00074.0217.00074 0 0-.0238-.37767-.0475-.63731 0-.11802.0475-.25964.1424-.33046l.0713-.07081c.1186-.09441.1661-.23604.1661-.37766v-.37766c0-.11802.0712-.21244.1899-.23604.2849-.07082.8784-.18884 1.733-.18884s1.4481.11802 1.733.18884c.0949.0236.1899.11802.1899.23604v.37766c0 .14162.0712.28325.1661.37766.2223.15571.2084.24135.19.42487-.0238.23604-.0475.63731-.0475.63731.0027 0 .0053-.00003.008-.0001l-.1177 1.7519c-.071.78316-.6867 1.329-1.4208 1.329h-1.4208c-.7578 0-1.3498-.54584-1.4208-1.329z" fill="url(#au)"/><path d="m11.9185 5.7654c.0071.00049.0144.00074.0217.00074 0 0-.0238-.37767-.0475-.63731 0-.11802.0475-.25964.1424-.33046l.0713-.07081c.1186-.09441.1661-.23604.1661-.37766v-.37766c0-.11802.0712-.21244.1899-.23604.2849-.07082.8784-.18884 1.733-.18884s1.4481.11802 1.733.18884c.0949.0236.1899.11802.1899.23604v.37766c0 .14162.0712.28325.1661.37766.2223.15571.2084.24135.19.42487-.0238.23604-.0475.63731-.0475.63731.0027 0 .0053-.00003.008-.0001l-.1177 1.7519c-.071.78316-.6867 1.329-1.4208 1.329h-1.4208c-.7578 0-1.3498-.54584-1.4208-1.329z" fill="url(#av)"/><path d="m11.9185 5.7654c.0071.00049.0144.00074.0217.00074 0 0-.0238-.37767-.0475-.63731 0-.11802.0475-.25964.1424-.33046l.0713-.07081c.1186-.09441.1661-.23604.1661-.37766v-.37766c0-.11802.0712-.21244.1899-.23604.2849-.07082.8784-.18884 1.733-.18884s1.4481.11802 1.733.18884c.0949.0236.1899.11802.1899.23604v.37766c0 .14162.0712.28325.1661.37766.2223.15571.2084.24135.19.42487-.0238.23604-.0475.63731-.0475.63731.0027 0 .0053-.00003.008-.0001l-.1177 1.7519c-.071.78316-.6867 1.329-1.4208 1.329h-1.4208c-.7578 0-1.3498-.54584-1.4208-1.329z" fill="url(#aw)"/></g><path d="m11.8927 5.12883c0-.11802.0475-.25964.1424-.33046l.0713-.07081c.1186-.09441.1661-.23604.1661-.37766v-.37766c0-.11802.0712-.21244.1899-.23604.2849-.07082.8784-.18884 1.733-.18884s1.4481.11802 1.733.18884c.0949.0236.1899.11802.1899.23604v.37766c0 .14162.0712.28325.1661.37766.2223.15571.2084.24135.19.42487-.0238.23604-.0475.63731-.0475.63731.0027 0 .0053-.00003.008-.0001l-.1177 1.7519c-.071.78316-.6867 1.329-1.4208 1.329h-1.4208c-.7578 0-1.3498-.54584-1.4208-1.329-.0617-.80392-.0887-1.61018-.1621-2.41271z" fill="url(#ax)"/><path d="m11.8927 5.12883c0-.11802.0475-.25964.1424-.33046l.0713-.07081c.1186-.09441.1661-.23604.1661-.37766v-.37766c0-.11802.0712-.21244.1899-.23604.2849-.07082.8784-.18884 1.733-.18884s1.4481.11802 1.733.18884c.0949.0236.1899.11802.1899.23604v.37766c0 .14162.0712.28325.1661.37766.2223.15571.2084.24135.19.42487-.0238.23604-.0475.63731-.0475.63731.0027 0 .0053-.00003.008-.0001l-.1177 1.7519c-.071.78316-.6867 1.329-1.4208 1.329h-1.4208c-.7578 0-1.3498-.54584-1.4208-1.329-.0617-.80392-.0887-1.61018-.1621-2.41271z" fill="url(#ay)"/><path d="m11.8927 5.12883c0-.11802.0475-.25964.1424-.33046l.0713-.07081c.1186-.09441.1661-.23604.1661-.37766v-.37766c0-.11802.0712-.21244.1899-.23604.2849-.07082.8784-.18884 1.733-.18884s1.4481.11802 1.733.18884c.0949.0236.1899.11802.1899.23604v.37766c0 .14162.0712.28325.1661.37766.2223.15571.2084.24135.19.42487-.0238.23604-.0475.63731-.0475.63731.0027 0 .0053-.00003.008-.0001l-.1177 1.7519c-.071.78316-.6867 1.329-1.4208 1.329h-1.4208c-.7578 0-1.3498-.54584-1.4208-1.329-.0617-.80392-.0887-1.61018-.1621-2.41271z" fill="url(#az)"/><g filter="url(#r)"><path d="m15.9295 3.54736-1.362.45409c-.2319.07731-.3639.32143-.3015.5578.0595.22595.278.37221.5096.3412l1.3541-.18131z" fill="url(#aA)"/></g><g filter="url(#s)"><path d="m16.3081 3.16977.1899.09442c.3323.16523.5222.54289.451.94416l-.2611 1.34543c-.0233.13895-.1151.23246-.2531.23593-.0027.00007-.0053.00009-.008.00009 0 0 .0237-.40127.0474-.63731.0193-.19167-.0141-.25014-.1899-.42487-.0949-.09441-.1661-.23604-.1661-.37766v-.37767c0-.11801-.095-.21243-.19-.23603-.2848-.07082-.8783-.18884-1.7329-.18884s-1.4481.11802-1.733.18884c-.1187.0236-.1899.11802-.1899.23603v.37767c0 .14162-.0475.28325-.1662.37766l-.0712.07081c-.0949.07082-.1424.21244-.1424.33046.0237.25964.0475.63731.0475.63731-.0073 0-.0146-.00025-.0217-.00074-.1327-.00907-.2407-.10093-.2632-.23529l-.2611-1.34543c-.0475-.37766.1424-.75532.4747-.92055l.19-.09442c.1187-.07081.2373-.16522.356-.25964l.4274-.44848c.2611-.23604.6409-.30685.9733-.14162.2373.07081.4985.07081.7359 0 .3561-.11802.7596-.02361 1.0445.23604l.3561.35406c.0949.11802.2136.18883.3561.25964z" fill="#4f3332"/><path d="m16.3081 3.16977.1899.09442c.3323.16523.5222.54289.451.94416l-.2611 1.34543c-.0233.13895-.1151.23246-.2531.23593-.0027.00007-.0053.00009-.008.00009 0 0 .0237-.40127.0474-.63731.0193-.19167-.0141-.25014-.1899-.42487-.0949-.09441-.1661-.23604-.1661-.37766v-.37767c0-.11801-.095-.21243-.19-.23603-.2848-.07082-.8783-.18884-1.7329-.18884s-1.4481.11802-1.733.18884c-.1187.0236-.1899.11802-.1899.23603v.37767c0 .14162-.0475.28325-.1662.37766l-.0712.07081c-.0949.07082-.1424.21244-.1424.33046.0237.25964.0475.63731.0475.63731-.0073 0-.0146-.00025-.0217-.00074-.1327-.00907-.2407-.10093-.2632-.23529l-.2611-1.34543c-.0475-.37766.1424-.75532.4747-.92055l.19-.09442c.1187-.07081.2373-.16522.356-.25964l.4274-.44848c.2611-.23604.6409-.30685.9733-.14162.2373.07081.4985.07081.7359 0 .3561-.11802.7596-.02361 1.0445.23604l.3561.35406c.0949.11802.2136.18883.3561.25964z" fill="url(#aB)"/><path d="m16.3081 3.16977.1899.09442c.3323.16523.5222.54289.451.94416l-.2611 1.34543c-.0233.13895-.1151.23246-.2531.23593-.0027.00007-.0053.00009-.008.00009 0 0 .0237-.40127.0474-.63731.0193-.19167-.0141-.25014-.1899-.42487-.0949-.09441-.1661-.23604-.1661-.37766v-.37767c0-.11801-.095-.21243-.19-.23603-.2848-.07082-.8783-.18884-1.7329-.18884s-1.4481.11802-1.733.18884c-.1187.0236-.1899.11802-.1899.23603v.37767c0 .14162-.0475.28325-.1662.37766l-.0712.07081c-.0949.07082-.1424.21244-.1424.33046.0237.25964.0475.63731.0475.63731-.0073 0-.0146-.00025-.0217-.00074-.1327-.00907-.2407-.10093-.2632-.23529l-.2611-1.34543c-.0475-.37766.1424-.75532.4747-.92055l.19-.09442c.1187-.07081.2373-.16522.356-.25964l.4274-.44848c.2611-.23604.6409-.30685.9733-.14162.2373.07081.4985.07081.7359 0 .3561-.11802.7596-.02361 1.0445.23604l.3561.35406c.0949.11802.2136.18883.3561.25964z" fill="url(#aC)"/><path d="m16.3081 3.16977.1899.09442c.3323.16523.5222.54289.451.94416l-.2611 1.34543c-.0233.13895-.1151.23246-.2531.23593-.0027.00007-.0053.00009-.008.00009 0 0 .0237-.40127.0474-.63731.0193-.19167-.0141-.25014-.1899-.42487-.0949-.09441-.1661-.23604-.1661-.37766v-.37767c0-.11801-.095-.21243-.19-.23603-.2848-.07082-.8783-.18884-1.7329-.18884s-1.4481.11802-1.733.18884c-.1187.0236-.1899.11802-.1899.23603v.37767c0 .14162-.0475.28325-.1662.37766l-.0712.07081c-.0949.07082-.1424.21244-.1424.33046.0237.25964.0475.63731.0475.63731-.0073 0-.0146-.00025-.0217-.00074-.1327-.00907-.2407-.10093-.2632-.23529l-.2611-1.34543c-.0475-.37766.1424-.75532.4747-.92055l.19-.09442c.1187-.07081.2373-.16522.356-.25964l.4274-.44848c.2611-.23604.6409-.30685.9733-.14162.2373.07081.4985.07081.7359 0 .3561-.11802.7596-.02361 1.0445.23604l.3561.35406c.0949.11802.2136.18883.3561.25964z" fill="url(#aD)"/><path d="m16.3081 3.16977.1899.09442c.3323.16523.5222.54289.451.94416l-.2611 1.34543c-.0233.13895-.1151.23246-.2531.23593-.0027.00007-.0053.00009-.008.00009 0 0 .0237-.40127.0474-.63731.0193-.19167-.0141-.25014-.1899-.42487-.0949-.09441-.1661-.23604-.1661-.37766v-.37767c0-.11801-.095-.21243-.19-.23603-.2848-.07082-.8783-.18884-1.7329-.18884s-1.4481.11802-1.733.18884c-.1187.0236-.1899.11802-.1899.23603v.37767c0 .14162-.0475.28325-.1662.37766l-.0712.07081c-.0949.07082-.1424.21244-.1424.33046.0237.25964.0475.63731.0475.63731-.0073 0-.0146-.00025-.0217-.00074-.1327-.00907-.2407-.10093-.2632-.23529l-.2611-1.34543c-.0475-.37766.1424-.75532.4747-.92055l.19-.09442c.1187-.07081.2373-.16522.356-.25964l.4274-.44848c.2611-.23604.6409-.30685.9733-.14162.2373.07081.4985.07081.7359 0 .3561-.11802.7596-.02361 1.0445.23604l.3561.35406c.0949.11802.2136.18883.3561.25964z" fill="url(#aE)"/></g><g filter="url(#t)"><path d="m14.0537 5.98251-.3631.7522c-.045.15472.063.30945.216.30945h.3263c.153 0 .261-.15711.216-.30945l-.2205-.7522c-.0473-.16662-.1252-.16662-.1747 0z" fill="#87565c"/></g><g filter="url(#u)"><path d="m14.0063 5.91037-.2352.75219c-.048.15473.0672.30945.2304.30945h.3479c.1632 0 .2784-.1571.2304-.30945l-.2352-.75219c-.0504-.16663-.2855-.16663-.3383 0z" fill="#b7877d"/><path d="m14.0063 5.91037-.2352.75219c-.048.15473.0672.30945.2304.30945h.3479c.1632 0 .2784-.1571.2304-.30945l-.2352-.75219c-.0504-.16663-.2855-.16663-.3383 0z" fill="url(#aF)"/><path d="m14.0063 5.91037-.2352.75219c-.048.15473.0672.30945.2304.30945h.3479c.1632 0 .2784-.1571.2304-.30945l-.2352-.75219c-.0504-.16663-.2855-.16663-.3383 0z" fill="url(#aG)"/><path d="m14.0063 5.91037-.2352.75219c-.048.15473.0672.30945.2304.30945h.3479c.1632 0 .2784-.1571.2304-.30945l-.2352-.75219c-.0504-.16663-.2855-.16663-.3383 0z" fill="url(#aH)"/><path d="m14.0063 5.91037-.2352.75219c-.048.15473.0672.30945.2304.30945h.3479c.1632 0 .2784-.1571.2304-.30945l-.2352-.75219c-.0504-.16663-.2855-.16663-.3383 0z" fill="url(#aI)"/></g><path d="m14.9177 7.39664c.0336-.0504.021-.10692-.0124-.14159-.0327-.03403-.0876-.04946-.1395-.02309v-.00001l-.0004.00024c-.1701.08864-.3709.13966-.5899.13966-.2168 0-.4199-.05104-.5899-.13966l-.0005-.00023c-.0526-.02673-.1075-.0098-.1397.02417-.0325.0342-.0463.09082-.012.14084m1.4843-.00033v.0001l-.0416-.02773.0417.02753c0 .00004-.0001.00007-.0001.0001zm0 0c-.1572.23815-.4308.39668-.7422.39668-.3113 0-.5848-.15838-.7421-.39635m0 0c.0002.00018.0003.00035.0004.00053l.0411-.0285m-.0415.02797c-.0001-.00014-.0002-.00028-.0002-.00043l.0417-.02754m0 0c.1482.22459.4064.37432.7006.37432.2941 0 .5524-.14973.7006-.37432.0381-.05724-.027-.1233-.0876-.09247-.1774.09247-.3862.14532-.613.14532-.2246 0-.4357-.05285-.613-.14532-.0607-.03083-.1258.03743-.0876.09247z" fill="#88024e" stroke="url(#aJ)" stroke-width=".1"/><g filter="url(#v)"><path d="m15.8216 4.83282-.0006-.00045-.0008-.00068-.002-.00162-.0053-.00422c-.0041-.00323-.0094-.00729-.0159-.01203-.0129-.00947-.0305-.02171-.0526-.03555-.0441-.0276-.1066-.06199-.1858-.09327-.1589-.06282-.3857-.11342-.6606-.07002-.1289.02034-.2168.14129-.1965.27014.0204.12885.1413.21681.2702.19647.176-.0278.317.00466.4132.04271.0485.01915.0853.03964.1087.05431.0117.0073.0198.01304.0242.01628.0019.00134.003.00224.0035.00262.1002.08168.2477.06766.3307-.03189.0835-.10021.0698-.24929-.0304-.3328z" fill="#4c3230"/><path d="m15.8216 4.83282-.0006-.00045-.0008-.00068-.002-.00162-.0053-.00422c-.0041-.00323-.0094-.00729-.0159-.01203-.0129-.00947-.0305-.02171-.0526-.03555-.0441-.0276-.1066-.06199-.1858-.09327-.1589-.06282-.3857-.11342-.6606-.07002-.1289.02034-.2168.14129-.1965.27014.0204.12885.1413.21681.2702.19647.176-.0278.317.00466.4132.04271.0485.01915.0853.03964.1087.05431.0117.0073.0198.01304.0242.01628.0019.00134.003.00224.0035.00262.1002.08168.2477.06766.3307-.03189.0835-.10021.0698-.24929-.0304-.3328z" fill="url(#aL)"/></g><g filter="url(#w)"><path d="m12.5053 4.83296.0003-.00028.0004-.00031.0008-.00068.002-.00162.0053-.00422c.0041-.00323.0094-.00729.0159-.01203.0129-.00947.0306-.02171.0527-.03555.044-.0276.1066-.06199.1857-.09327.1589-.06282.3858-.11342.6606-.07002.1289.02034.2168.14129.1965.27014-.0204.12885-.1413.21681-.2701.19647-.1761-.0278-.3171.00466-.4133.04271-.0484.01915-.0853.03964-.1087.05431-.0116.0073-.0198.01304-.0242.01628-.0018.00134-.003.00224-.0035.00262-.1002.08168-.2477.06766-.3307-.03189-.0835-.10021-.0699-.24915.0303-.33266z" fill="#4c3230"/><path d="m12.5053 4.83296.0003-.00028.0004-.00031.0008-.00068.002-.00162.0053-.00422c.0041-.00323.0094-.00729.0159-.01203.0129-.00947.0306-.02171.0527-.03555.044-.0276.1066-.06199.1857-.09327.1589-.06282.3858-.11342.6606-.07002.1289.02034.2168.14129.1965.27014-.0204.12885-.1413.21681-.2701.19647-.1761-.0278-.3171.00466-.4133.04271-.0484.01915-.0853.03964-.1087.05431-.0116.0073-.0198.01304-.0242.01628-.0018.00134-.003.00224-.0035.00262-.1002.08168-.2477.06766-.3307-.03189-.0835-.10021-.0699-.24915.0303-.33266z" fill="url(#aM)"/></g><path d="m15.2323 5.40344c.289 0 .5331.19924.5995.46847.0197.07718-.0395.15078-.1185.15078h-.9872c-.0628 0-.1131-.05744-.1005-.12026.0556-.2836.3051-.49899.6067-.49899z" fill="#fff"/><path d="m15.1407 5.52368c.219 0 .3949.1777.3949.39488 0 .0359-.0054.0718-.0144.10411h-.7628c-.009-.03411-.0144-.06821-.0144-.10411 0-.21718.1777-.39488.3967-.39488z" fill="url(#aO)"/><path d="m14.9147 5.91866c0-.12564.1005-.22616.2261-.22616.1257 0 .2262.10052.2262.22616 0 .0377-.009.07359-.0251.10411h-.4003c-.018-.03052-.0269-.06641-.0269-.10411z" fill="#000"/><g filter="url(#x)"><path d="m15.1118 5.60719c.0281.03763-.0307.0835-.0975.13349-.0669.04999-.1165.08517-.1446.04754-.0282-.03762.0032-.10865.0701-.15864.0669-.05.1439-.06002.172-.02239z" fill="#c7a7a3"/><path d="m15.1118 5.60719c.0281.03763-.0307.0835-.0975.13349-.0669.04999-.1165.08517-.1446.04754-.0282-.03762.0032-.10865.0701-.15864.0669-.05.1439-.06002.172-.02239z" fill="url(#aQ)"/></g><g filter="url(#y)"><path d="m15.4924 5.8666c-.0146-.10209-.0743-.17903-.1024-.20473l-.115.1262.0519.10096z" fill="url(#aS)"/></g><path d="m13.1164 5.40344c-.289 0-.5331.19925-.5995.4685-.0198.07718.0395.15078.1185.15078h.9872c.0628 0 .1131-.05744.1005-.12027-.0556-.28361-.3069-.49901-.6067-.49901z" fill="#fff"/><path d="m13.208 5.52368c-.219 0-.3949.17771-.3949.3949 0 .0359.0054.0718.0144.10411h.7628c.009-.0341.0144-.06821.0144-.10411-.0018-.21719-.1777-.3949-.3967-.3949z" fill="url(#aT)"/><path d="m13.4342 5.91855c0-.12565-.1006-.22617-.2262-.22617-.1257 0-.2262.10052-.2262.22617 0 .0377.009.0736.0251.10411h.4003c.0162-.03051.027-.06641.027-.10411z" fill="#000"/><g filter="url(#z)"><path d="m13.5686 5.87219c0-.12762-.1037-.21269-.1318-.2384l-.1276.12341.0785.15986z" fill="url(#aU)"/></g><g filter="url(#A)"><ellipse cx="13.0888" cy="5.69244" fill="#c7a7a3" fill-opacity=".9" rx=".172395" ry=".087248" transform="matrix(.88365127 -.46814574 .46814574 .88365127 -1.142026 6.789774)"/><ellipse cx="13.0888" cy="5.69244" fill="url(#aV)" rx=".172395" ry=".087248" transform="matrix(.88365127 -.46814574 .46814574 .88365127 -1.142026 6.789774)"/></g><g filter="url(#B)"><path d="m14.9105 4.76886c.1904-.03331.5615-.02379.8185.17608" stroke="url(#aX)" stroke-linecap="round" stroke-width=".1"/></g><g filter="url(#C)"><path d="m12.6004 4.99837c.1447-.12797.4609-.26271.8529-.20024" stroke="url(#aY)" stroke-linecap="round" stroke-width=".1"/></g><g filter="url(#D)"><path d="m12.1693 3.90735v.39722c-.0035.06578-.0312.2129-.1142.27521" stroke="url(#aZ)" stroke-linecap="round" stroke-width=".25"/></g></svg>