<svg fill="none" height="32" viewBox="0 0 32 32" width="32" xmlns="http://www.w3.org/2000/svg" xmlns:xlink="http://www.w3.org/1999/xlink"><filter id="a" color-interpolation-filters="sRGB" filterUnits="userSpaceOnUse" height="6" width="4" x="8.5" y="12.5"><feFlood flood-opacity="0" result="BackgroundImageFix"/><feBlend in="SourceGraphic" in2="BackgroundImageFix" mode="normal" result="shape"/><feGaussianBlur result="effect1_foregroundBlur_31_1496" stdDeviation=".5"/></filter><filter id="b" color-interpolation-filters="sRGB" filterUnits="userSpaceOnUse" height="6" width="4" x="18.5" y="12.5"><feFlood flood-opacity="0" result="BackgroundImageFix"/><feBlend in="SourceGraphic" in2="BackgroundImageFix" mode="normal" result="shape"/><feGaussianBlur result="effect1_foregroundBlur_31_1496" stdDeviation=".5"/></filter><filter id="c" color-interpolation-filters="sRGB" filterUnits="userSpaceOnUse" height="3.5" width="1.5" x="10.5" y="13"><feFlood flood-opacity="0" result="BackgroundImageFix"/><feBlend in="SourceGraphic" in2="BackgroundImageFix" mode="normal" result="shape"/><feGaussianBlur result="effect1_foregroundBlur_31_1496" stdDeviation=".25"/></filter><filter id="d" color-interpolation-filters="sRGB" filterUnits="userSpaceOnUse" height="3.5" width="1.5" x="20.5" y="13"><feFlood flood-opacity="0" result="BackgroundImageFix"/><feBlend in="SourceGraphic" in2="BackgroundImageFix" mode="normal" result="shape"/><feGaussianBlur result="effect1_foregroundBlur_31_1496" stdDeviation=".25"/></filter><filter id="e" color-interpolation-filters="sRGB" filterUnits="userSpaceOnUse" height="8" width="6.75" x="18.5" y="6"><feFlood flood-opacity="0" result="BackgroundImageFix"/><feBlend in="SourceGraphic" in2="BackgroundImageFix" mode="normal" result="shape"/><feGaussianBlur result="effect1_foregroundBlur_31_1496" stdDeviation=".5"/></filter><filter id="f" color-interpolation-filters="sRGB" filterUnits="userSpaceOnUse" height="5" width="3" x="11.5" y="6"><feFlood flood-opacity="0" result="BackgroundImageFix"/><feBlend in="SourceGraphic" in2="BackgroundImageFix" mode="normal" result="shape"/><feGaussianBlur result="effect1_foregroundBlur_31_1496" stdDeviation=".5"/></filter><filter id="g" color-interpolation-filters="sRGB" filterUnits="userSpaceOnUse" height="7" width="3" x="22.5" y="18"><feFlood flood-opacity="0" result="BackgroundImageFix"/><feBlend in="SourceGraphic" in2="BackgroundImageFix" mode="normal" result="shape"/><feGaussianBlur result="effect1_foregroundBlur_31_1496" stdDeviation=".5"/></filter><filter id="h" color-interpolation-filters="sRGB" filterUnits="userSpaceOnUse" height="3.5" width="3" x="25.5" y="15"><feFlood flood-opacity="0" result="BackgroundImageFix"/><feBlend in="SourceGraphic" in2="BackgroundImageFix" mode="normal" result="shape"/><feGaussianBlur result="effect1_foregroundBlur_31_1496" stdDeviation=".5"/></filter><filter id="i" color-interpolation-filters="sRGB" filterUnits="userSpaceOnUse" height="6.5" width="3" x="27.75" y="9.5"><feFlood flood-opacity="0" result="BackgroundImageFix"/><feBlend in="SourceGraphic" in2="BackgroundImageFix" mode="normal" result="shape"/><feGaussianBlur result="effect1_foregroundBlur_31_1496" stdDeviation=".5"/></filter><filter id="j" color-interpolation-filters="sRGB" filterUnits="userSpaceOnUse" height="16.5" width="8.75" x="1.5" y="9.75"><feFlood flood-opacity="0" result="BackgroundImageFix"/><feBlend in="SourceGraphic" in2="BackgroundImageFix" mode="normal" result="shape"/><feGaussianBlur result="effect1_foregroundBlur_31_1496" stdDeviation=".375"/></filter><filter id="k" color-interpolation-filters="sRGB" filterUnits="userSpaceOnUse" height="6.75" width="14.75" x="9.25" y="20"><feFlood flood-opacity="0" result="BackgroundImageFix"/><feBlend in="SourceGraphic" in2="BackgroundImageFix" mode="normal" result="shape"/><feGaussianBlur result="effect1_foregroundBlur_31_1496" stdDeviation=".375"/></filter><filter id="l" color-interpolation-filters="sRGB" filterUnits="userSpaceOnUse" height="4" width="3" x="8.5" y="2.5"><feFlood flood-opacity="0" result="BackgroundImageFix"/><feBlend in="SourceGraphic" in2="BackgroundImageFix" mode="normal" result="shape"/><feGaussianBlur result="effect1_foregroundBlur_31_1496" stdDeviation=".5"/></filter><filter id="m" color-interpolation-filters="sRGB" filterUnits="userSpaceOnUse" height="4" width="3" x="21.5" y="2.5"><feFlood flood-opacity="0" result="BackgroundImageFix"/><feBlend in="SourceGraphic" in2="BackgroundImageFix" mode="normal" result="shape"/><feGaussianBlur result="effect1_foregroundBlur_31_1496" stdDeviation=".5"/></filter><linearGradient id="n" gradientUnits="userSpaceOnUse" x1="12" x2="12" y1="26" y2="28.8475"><stop offset="0" stop-color="#583b70"/><stop offset=".352838" stop-color="#6c4d89"/><stop offset="1" stop-color="#6a30a1"/></linearGradient><linearGradient id="o" gradientUnits="userSpaceOnUse" x1="22.5" x2="22.5" y1="3.0605" y2="6"><stop offset="0" stop-color="#6e70a5"/><stop offset=".628891" stop-color="#6a59b4"/><stop offset=".993489" stop-color="#5c48af"/></linearGradient><linearGradient id="p" gradientUnits="userSpaceOnUse" x1="16" x2="16" y1="3.0605" y2="28.8475"><stop offset="0" stop-color="#746bb1"/><stop offset="1" stop-color="#6f50a2"/></linearGradient><linearGradient id="q"><stop offset=".0411863" stop-color="#574151"/><stop offset="1" stop-color="#472a34"/></linearGradient><linearGradient id="r" gradientUnits="userSpaceOnUse" x1="11.485" x2="10" xlink:href="#q" y1="14.9647" y2="14.9647"/><linearGradient id="s" gradientUnits="userSpaceOnUse" x1="21.485" x2="20" xlink:href="#q" y1="14.9647" y2="14.9647"/><path clip-rule="evenodd" d="m13 29.03h-1.01c-1.1 0-1.99-.89-1.99-1.99v-.44c0-.31.26-.57.57-.57h2.43c.55 0 1 .45 1 1v1c0 .55-.45 1-1 1zm5-1v-1c0-.55.45-1 1-1h2.43c.31 0 .57.25.57.57v.46c0 1.09-.88 1.97-1.97 1.97h-1.03c-.55 0-1-.45-1-1z" fill="url(#n)" fill-rule="evenodd"/><path clip-rule="evenodd" d="m9 3h1c.55 0 1 .45 1 1v1.43c0 .31-.26.57-.57.57h-1.43c-.55 0-1-.45-1-1v-1c0-.55.45-1 1-1zm15 1v1c0 .55-.45 1-1 1h-1.43c-.31 0-.57-.26-.57-.57v-1.43c0-.55.45-1 1-1h1c.55 0 1 .45 1 1z" fill="url(#o)" fill-rule="evenodd"/><path d="m29 10.03c-.55 0-1 .45-1 1v1.43c0 .32-.26.57-.57.57h-1.86c-.3 0-.56-.21-.6-.51-.23-1.82-1.68-3.24-3.5-3.46-.27-.03-.47-.28-.47-.56v-1.93c0-.31-.26-.57-.57-.57h-.36c-1.14 0-2.07.93-2.07 2.07v.39c0 .32-.26.57-.57.57h-2.86c-.31 0-.57-.25-.57-.57v-.34c0-1.17-.95-2.12-2.12-2.12h-.3c-.32 0-.58.26-.58.57v1.93c0 .28-.2.53-.47.56-1.82.23-3.29 1.64-3.53 3.45-.04.29-.3.5-.6.51l-1.8.01c-.32 0-.57-.25-.57-.57v-1.43c0-.55-.45-1-1-1h-.03c-.55 0-1 .45-1 1v4c0 .55.45.97 1 .97h.43c.31 0 .57.29.57.6v.43c0 1.1.9 2 2 2h.43c.31 0 .57.26.57.57v2.43 2c0 1.1.9 2 2 2h.43c.32 0 .57-.26.57-.57v-2.86c0-.32.26-.57.57-.57h10.86c.32 0 .57.26.57.57v2.86c0 .32.26.57.57.57h.44c1.1 0 1.99-.89 1.99-1.99v-2.01-2.43c0-.32.26-.57.57-.57h.46c1.09 0 1.97-.88 1.97-1.97v-.46c0-.32.26-.57.57-.57h.43c.55 0 1-.45 1-1v-4c0-.55-.45-1-1-1z" fill="url(#p)"/><g filter="url(#a)"><path d="m10.4999 17.5c-.55439 0-.9999-.4534-.9999-1.0176v-1.9648c0-.5642.44551-1.0176.9999-1.0176.5544 0 .9999.4534.9999 1.0176v1.9648c.0099.5642-.4455 1.0176-.9999 1.0176z" fill="#533787"/></g><g filter="url(#b)"><path d="m20.4999 17.5c-.5544 0-.9999-.4534-.9999-1.0176v-1.9648c0-.5642.4455-1.0176.9999-1.0176s.9999.4534.9999 1.0176v1.9648c.0099.5642-.4455 1.0176-.9999 1.0176z" fill="#533787"/></g><path d="m10.9999 17c-.5544 0-.9999-.4534-.9999-1.0176v-1.9648c0-.5642.4455-1.0176.9999-1.0176s.9999.4534.9999 1.0176v1.9648c.0099.5642-.4455 1.0176-.9999 1.0176z" fill="url(#r)"/><path d="m20.9999 17c-.5544 0-.9999-.4534-.9999-1.0176v-1.9648c0-.5642.4455-1.0176.9999-1.0176s.9999.4534.9999 1.0176v1.9648c.0099.5642-.4455 1.0176-.9999 1.0176z" fill="url(#s)"/><g filter="url(#c)"><path d="m11 13.5h.5v2.5h-.5z" fill="#654e5d"/></g><g filter="url(#d)"><path d="m21 13.5h.5v2.5h-.5z" fill="#654e5d"/></g><g filter="url(#e)" opacity=".5"><path d="m20 7v3h1.75c1.1046 0 2 .8954 2 2v1" stroke="#8d8ccb"/></g><g filter="url(#f)" opacity=".5"><path d="m13 10v-3" stroke="#8d8ccb"/></g><g filter="url(#g)" opacity=".5"><path d="m24 19v5" stroke="#8d8ccb"/></g><g filter="url(#h)" opacity=".5"><path d="m27 16v1.5" stroke="#8d8ccb"/></g><g filter="url(#i)" opacity=".5"><path d="m29.25 10.5v4.5" stroke="#8d8ccb"/></g><g filter="url(#j)" opacity=".6"><path d="m2.75 11v3.75c0 .2761.22386.5.5.5h.5c.55228 0 1 .4477 1 1v1c0 .5523.44772 1 1 1h1c.55228 0 1 .4477 1 1v5.25c0 .2761.22386.5.5.5h.75" stroke="#6539a0" stroke-linecap="round"/></g><g filter="url(#k)" opacity=".6"><path d="m10.5 21.25h11.25c.5523 0 1 .4477 1 1v3.25" stroke="#64389f" stroke-linecap="round"/></g><g filter="url(#l)"><path d="m10 3.5v2" stroke="#8d8ccb"/></g><g filter="url(#m)"><path d="m23 3.5v2" stroke="#8d8ccb"/></g></svg>