<svg fill="none" height="32" viewBox="0 0 32 32" width="32" xmlns="http://www.w3.org/2000/svg" xmlns:xlink="http://www.w3.org/1999/xlink"><filter id="a" color-interpolation-filters="sRGB" filterUnits="userSpaceOnUse" height="8.02795" width="2.31108" x="11.403" y="12.6168"><feFlood flood-opacity="0" result="BackgroundImageFix"/><feBlend in="SourceGraphic" in2="BackgroundImageFix" mode="normal" result="shape"/><feColorMatrix in="SourceAlpha" result="hardAlpha" type="matrix" values="0 0 0 0 0 0 0 0 0 0 0 0 0 0 0 0 0 0 127 0"/><feOffset dx=".2"/><feGaussianBlur stdDeviation=".1"/><feComposite in2="hardAlpha" k2="-1" k3="1" operator="arithmetic"/><feColorMatrix type="matrix" values="0 0 0 0 0.352941 0 0 0 0 0.278431 0 0 0 0 0.266667 0 0 0 1 0"/><feBlend in2="shape" mode="normal" result="effect1_innerShadow_4002_170"/></filter><filter id="b" color-interpolation-filters="sRGB" filterUnits="userSpaceOnUse" height="6.51296" width="1.06448" x="19.3643" y="12.1791"><feFlood flood-opacity="0" result="BackgroundImageFix"/><feBlend in="SourceGraphic" in2="BackgroundImageFix" mode="normal" result="shape"/><feGaussianBlur result="effect1_foregroundBlur_4002_170" stdDeviation=".15"/></filter><filter id="c" color-interpolation-filters="sRGB" filterUnits="userSpaceOnUse" height="12.4531" width="6.16875" x="13.0157" y="16.0114"><feFlood flood-opacity="0" result="BackgroundImageFix"/><feBlend in="SourceGraphic" in2="BackgroundImageFix" mode="normal" result="shape"/><feColorMatrix in="SourceAlpha" result="hardAlpha" type="matrix" values="0 0 0 0 0 0 0 0 0 0 0 0 0 0 0 0 0 0 127 0"/><feOffset dx=".2"/><feGaussianBlur stdDeviation=".4"/><feComposite in2="hardAlpha" k2="-1" k3="1" operator="arithmetic"/><feColorMatrix type="matrix" values="0 0 0 0 0.486275 0 0 0 0 0.462745 0 0 0 0 0.505882 0 0 0 1 0"/><feBlend in2="shape" mode="normal" result="effect1_innerShadow_4002_170"/></filter><filter id="d" color-interpolation-filters="sRGB" filterUnits="userSpaceOnUse" height="7.59375" width="6.41719" x="12.9415" y="8.46838"><feFlood flood-opacity="0" result="BackgroundImageFix"/><feBlend in="SourceGraphic" in2="BackgroundImageFix" mode="normal" result="shape"/><feColorMatrix in="SourceAlpha" result="hardAlpha" type="matrix" values="0 0 0 0 0 0 0 0 0 0 0 0 0 0 0 0 0 0 127 0"/><feOffset dx=".5"/><feGaussianBlur stdDeviation=".15"/><feComposite in2="hardAlpha" k2="-1" k3="1" operator="arithmetic"/><feColorMatrix type="matrix" values="0 0 0 0 1 0 0 0 0 0.415686 0 0 0 0 0.25098 0 0 0 1 0"/><feBlend in2="shape" mode="normal" result="effect1_innerShadow_4002_170"/></filter><filter id="e" color-interpolation-filters="sRGB" filterUnits="userSpaceOnUse" height="1.84766" width="3.31641" x="12.4337" y="28.4645"><feFlood flood-opacity="0" result="BackgroundImageFix"/><feBlend in="SourceGraphic" in2="BackgroundImageFix" mode="normal" result="shape"/><feColorMatrix in="SourceAlpha" result="hardAlpha" type="matrix" values="0 0 0 0 0 0 0 0 0 0 0 0 0 0 0 0 0 0 127 0"/><feOffset dx=".25" dy=".25"/><feGaussianBlur stdDeviation=".25"/><feComposite in2="hardAlpha" k2="-1" k3="1" operator="arithmetic"/><feColorMatrix type="matrix" values="0 0 0 0 0.313726 0 0 0 0 0.235294 0 0 0 0 0.431373 0 0 0 1 0"/><feBlend in2="shape" mode="normal" result="effect1_innerShadow_4002_170"/></filter><filter id="f" color-interpolation-filters="sRGB" filterUnits="userSpaceOnUse" height="13.7656" width="6.59375" x="12.8409" y="15.3824"><feFlood flood-opacity="0" result="BackgroundImageFix"/><feBlend in="SourceGraphic" in2="BackgroundImageFix" mode="normal" result="shape"/><feGaussianBlur result="effect1_foregroundBlur_4002_170" stdDeviation=".5"/></filter><filter id="g" color-interpolation-filters="sRGB" filterUnits="userSpaceOnUse" height="5.73992" width="5.58777" x="13.7272" y="3.13928"><feFlood flood-opacity="0" result="BackgroundImageFix"/><feBlend in="SourceGraphic" in2="BackgroundImageFix" mode="normal" result="shape"/><feColorMatrix in="SourceAlpha" result="hardAlpha" type="matrix" values="0 0 0 0 0 0 0 0 0 0 0 0 0 0 0 0 0 0 127 0"/><feOffset dx="1"/><feGaussianBlur stdDeviation=".5"/><feComposite in2="hardAlpha" k2="-1" k3="1" operator="arithmetic"/><feColorMatrix type="matrix" values="0 0 0 0 0.333333 0 0 0 0 0.270588 0 0 0 0 0.258824 0 0 0 1 0"/><feBlend in2="shape" mode="normal" result="effect1_innerShadow_4002_170"/><feColorMatrix in="SourceAlpha" result="hardAlpha" type="matrix" values="0 0 0 0 0 0 0 0 0 0 0 0 0 0 0 0 0 0 127 0"/><feOffset dy=".2"/><feGaussianBlur stdDeviation=".375"/><feComposite in2="hardAlpha" k2="-1" k3="1" operator="arithmetic"/><feColorMatrix type="matrix" values="0 0 0 0 0.145098 0 0 0 0 0.0705882 0 0 0 0 0.0745098 0 0 0 1 0"/><feBlend in2="effect1_innerShadow_4002_170" mode="normal" result="effect2_innerShadow_4002_170"/></filter><filter id="h" color-interpolation-filters="sRGB" filterUnits="userSpaceOnUse" height="3.30176" width="2.78409" x="14.5443" y="4.53931"><feFlood flood-opacity="0" result="BackgroundImageFix"/><feBlend in="SourceGraphic" in2="BackgroundImageFix" mode="normal" result="shape"/><feGaussianBlur result="effect1_foregroundBlur_4002_170" stdDeviation=".5"/></filter><filter id="i" color-interpolation-filters="sRGB" filterUnits="userSpaceOnUse" height=".781543" width="1.74468" x="15.1277" y="6.90415"><feFlood flood-opacity="0" result="BackgroundImageFix"/><feBlend in="SourceGraphic" in2="BackgroundImageFix" mode="normal" result="shape"/><feGaussianBlur result="effect1_foregroundBlur_4002_170" stdDeviation=".05"/></filter><filter id="j" color-interpolation-filters="sRGB" filterUnits="userSpaceOnUse" height="4.02673" width="5.77832" x="13.1107" y="1.43787"><feFlood flood-opacity="0" result="BackgroundImageFix"/><feBlend in="SourceGraphic" in2="BackgroundImageFix" mode="normal" result="shape"/><feColorMatrix in="SourceAlpha" result="hardAlpha" type="matrix" values="0 0 0 0 0 0 0 0 0 0 0 0 0 0 0 0 0 0 127 0"/><feOffset dy="-.5"/><feGaussianBlur stdDeviation=".625"/><feComposite in2="hardAlpha" k2="-1" k3="1" operator="arithmetic"/><feColorMatrix type="matrix" values="0 0 0 0 0.137255 0 0 0 0 0.0901961 0 0 0 0 0.145098 0 0 0 1 0"/><feBlend in2="shape" mode="normal" result="effect1_innerShadow_4002_170"/><feColorMatrix in="SourceAlpha" result="hardAlpha" type="matrix" values="0 0 0 0 0 0 0 0 0 0 0 0 0 0 0 0 0 0 127 0"/><feOffset dy="-.2"/><feGaussianBlur stdDeviation=".2"/><feComposite in2="hardAlpha" k2="-1" k3="1" operator="arithmetic"/><feColorMatrix type="matrix" values="0 0 0 0 0.0784314 0 0 0 0 0.0352941 0 0 0 0 0.0470588 0 0 0 1 0"/><feBlend in2="effect1_innerShadow_4002_170" mode="normal" result="effect2_innerShadow_4002_170"/></filter><filter id="k" color-interpolation-filters="sRGB" filterUnits="userSpaceOnUse" height=".64458" width="1.10497" x="16.7133" y="4.14558"><feFlood flood-opacity="0" result="BackgroundImageFix"/><feBlend in="SourceGraphic" in2="BackgroundImageFix" mode="normal" result="shape"/><feColorMatrix in="SourceAlpha" result="hardAlpha" type="matrix" values="0 0 0 0 0 0 0 0 0 0 0 0 0 0 0 0 0 0 127 0"/><feOffset dx=".1" dy="-.2"/><feGaussianBlur stdDeviation=".125"/><feComposite in2="hardAlpha" k2="-1" k3="1" operator="arithmetic"/><feColorMatrix type="matrix" values="0 0 0 0 0.0588235 0 0 0 0 0.054902 0 0 0 0 0.0588235 0 0 0 1 0"/><feBlend in2="shape" mode="normal" result="effect1_innerShadow_4002_170"/></filter><filter id="l" color-interpolation-filters="sRGB" filterUnits="userSpaceOnUse" height=".637988" width="1.105" x="14.3539" y="4.15217"><feFlood flood-opacity="0" result="BackgroundImageFix"/><feBlend in="SourceGraphic" in2="BackgroundImageFix" mode="normal" result="shape"/><feColorMatrix in="SourceAlpha" result="hardAlpha" type="matrix" values="0 0 0 0 0 0 0 0 0 0 0 0 0 0 0 0 0 0 127 0"/><feOffset dx=".1" dy="-.2"/><feGaussianBlur stdDeviation=".125"/><feComposite in2="hardAlpha" k2="-1" k3="1" operator="arithmetic"/><feColorMatrix type="matrix" values="0 0 0 0 0.0588235 0 0 0 0 0.054902 0 0 0 0 0.0588235 0 0 0 1 0"/><feBlend in2="shape" mode="normal" result="effect1_innerShadow_4002_170"/></filter><filter id="m" color-interpolation-filters="sRGB" filterUnits="userSpaceOnUse" height="2.74543" width="3.23117" x="13.2827" y="2.23423"><feFlood flood-opacity="0" result="BackgroundImageFix"/><feBlend in="SourceGraphic" in2="BackgroundImageFix" mode="normal" result="shape"/><feColorMatrix in="SourceAlpha" result="hardAlpha" type="matrix" values="0 0 0 0 0 0 0 0 0 0 0 0 0 0 0 0 0 0 127 0"/><feOffset dx=".4" dy=".2"/><feGaussianBlur stdDeviation=".2"/><feComposite in2="hardAlpha" k2="-1" k3="1" operator="arithmetic"/><feColorMatrix type="matrix" values="0 0 0 0 0.286275 0 0 0 0 0.243137 0 0 0 0 0.227451 0 0 0 1 0"/><feBlend in2="shape" mode="normal" result="effect1_innerShadow_4002_170"/><feGaussianBlur result="effect2_foregroundBlur_4002_170" stdDeviation=".05"/></filter><filter id="n" color-interpolation-filters="sRGB" filterUnits="userSpaceOnUse" height="2.71201" width="2.95789" x="15.9141" y="2.34297"><feFlood flood-opacity="0" result="BackgroundImageFix"/><feBlend in="SourceGraphic" in2="BackgroundImageFix" mode="normal" result="shape"/><feColorMatrix in="SourceAlpha" result="hardAlpha" type="matrix" values="0 0 0 0 0 0 0 0 0 0 0 0 0 0 0 0 0 0 127 0"/><feOffset dx="-.1" dy=".2"/><feComposite in2="hardAlpha" k2="-1" k3="1" operator="arithmetic"/><feColorMatrix type="matrix" values="0 0 0 0 0.329412 0 0 0 0 0.305882 0 0 0 0 0.313726 0 0 0 1 0"/><feBlend in2="shape" mode="normal" result="effect1_innerShadow_4002_170"/><feGaussianBlur result="effect2_foregroundBlur_4002_170" stdDeviation=".1"/></filter><filter id="o" color-interpolation-filters="sRGB" filterUnits="userSpaceOnUse" height=".422778" width=".463397" x="16.5949" y="5.24546"><feFlood flood-opacity="0" result="BackgroundImageFix"/><feBlend in="SourceGraphic" in2="BackgroundImageFix" mode="normal" result="shape"/><feGaussianBlur result="effect1_foregroundBlur_4002_170" stdDeviation=".05"/></filter><filter id="p" color-interpolation-filters="sRGB" filterUnits="userSpaceOnUse" height=".630469" width=".62049" x="16.9168" y="5.22407"><feFlood flood-opacity="0" result="BackgroundImageFix"/><feBlend in="SourceGraphic" in2="BackgroundImageFix" mode="normal" result="shape"/><feGaussianBlur result="effect1_foregroundBlur_4002_170" stdDeviation=".1"/></filter><filter id="q" color-interpolation-filters="sRGB" filterUnits="userSpaceOnUse" height=".687354" width=".663184" x="14.9224" y="5.19563"><feFlood flood-opacity="0" result="BackgroundImageFix"/><feBlend in="SourceGraphic" in2="BackgroundImageFix" mode="normal" result="shape"/><feGaussianBlur result="effect1_foregroundBlur_4002_170" stdDeviation=".1"/></filter><filter id="r" color-interpolation-filters="sRGB" filterUnits="userSpaceOnUse" height=".426563" width=".520068" x="14.6387" y="5.2418"><feFlood flood-opacity="0" result="BackgroundImageFix"/><feBlend in="SourceGraphic" in2="BackgroundImageFix" mode="normal" result="shape"/><feGaussianBlur result="effect1_foregroundBlur_4002_170" stdDeviation=".05"/></filter><filter id="s" color-interpolation-filters="sRGB" filterUnits="userSpaceOnUse" height="1.34363" width=".87207" x="13.1327" y="5.12134"><feFlood flood-opacity="0" result="BackgroundImageFix"/><feBlend in="SourceGraphic" in2="BackgroundImageFix" mode="normal" result="shape"/><feGaussianBlur result="effect1_foregroundBlur_4002_170" stdDeviation=".125"/></filter><filter id="t" color-interpolation-filters="sRGB" filterUnits="userSpaceOnUse" height="1.85437" width="1.42487" x="17.7189" y="4.86292"><feFlood flood-opacity="0" result="BackgroundImageFix"/><feBlend in="SourceGraphic" in2="BackgroundImageFix" mode="normal" result="shape"/><feGaussianBlur result="effect1_foregroundBlur_4002_170" stdDeviation=".25"/></filter><filter id="u" color-interpolation-filters="sRGB" filterUnits="userSpaceOnUse" height=".48418" width="1.04302" x="14.3357" y="4.31418"><feFlood flood-opacity="0" result="BackgroundImageFix"/><feBlend in="SourceGraphic" in2="BackgroundImageFix" mode="normal" result="shape"/><feGaussianBlur result="effect1_foregroundBlur_4002_170" stdDeviation=".05"/></filter><filter id="v" color-interpolation-filters="sRGB" filterUnits="userSpaceOnUse" height=".48418" width="1.04302" x="16.7055" y="4.29355"><feFlood flood-opacity="0" result="BackgroundImageFix"/><feBlend in="SourceGraphic" in2="BackgroundImageFix" mode="normal" result="shape"/><feGaussianBlur result="effect1_foregroundBlur_4002_170" stdDeviation=".05"/></filter><filter id="w" color-interpolation-filters="sRGB" filterUnits="userSpaceOnUse" height="1.17578" width="2.1904" x="16.4813" y="2.71216"><feFlood flood-opacity="0" result="BackgroundImageFix"/><feBlend in="SourceGraphic" in2="BackgroundImageFix" mode="normal" result="shape"/><feGaussianBlur result="effect1_foregroundBlur_4002_170" stdDeviation=".125"/></filter><radialGradient id="x" cx="0" cy="0" gradientTransform="matrix(-1.84375 0 0 -12.369 13.3568 16.6308)" gradientUnits="userSpaceOnUse" r="1"><stop offset=".1375" stop-color="#2a1318"/><stop offset="1" stop-color="#2a1318" stop-opacity="0"/></radialGradient><radialGradient id="y" cx="0" cy="0" gradientTransform="matrix(1.60938 0 0 15.4135 18.8722 16.6308)" gradientUnits="userSpaceOnUse" r="1"><stop offset=".101266" stop-color="#341c1e"/><stop offset="1" stop-color="#4e2525" stop-opacity="0"/></radialGradient><radialGradient id="z" cx="0" cy="0" gradientTransform="matrix(-1.98267 0 0 -3.09375 13.5131 12.5231)" gradientUnits="userSpaceOnUse" r="1"><stop offset=".638345" stop-color="#f16440" stop-opacity="0"/><stop offset="1" stop-color="#f16440"/></radialGradient><radialGradient id="A" cx="0" cy="0" gradientTransform="matrix(-1.51586551 1.2382935 -.95062679 -1.16371632 14.5621 8.83166)" gradientUnits="userSpaceOnUse" r="1"><stop offset="0" stop-color="#de5d25"/><stop offset="1" stop-color="#de5d25" stop-opacity="0"/></radialGradient><linearGradient id="B" gradientUnits="userSpaceOnUse" x1="12.4662" x2="12.4662" y1="12.7809" y2="12.3043"><stop offset="0" stop-color="#fb2d18"/><stop offset="1" stop-color="#fb2d18" stop-opacity="0"/></linearGradient><radialGradient id="C" cx="0" cy="0" gradientTransform="matrix(.87499985 -.31249953 1.29629613 3.62963397 18.7943 11.9762)" gradientUnits="userSpaceOnUse" r="1"><stop offset=".251131" stop-color="#ff391e"/><stop offset="1" stop-color="#ff391e" stop-opacity="0"/></radialGradient><linearGradient id="D" gradientUnits="userSpaceOnUse" x1="19.7474" x2="19.7474" y1="12.8668" y2="12.1637"><stop offset="0" stop-color="#ff381e"/><stop offset="1" stop-color="#ff381e" stop-opacity="0"/></linearGradient><linearGradient id="E" gradientUnits="userSpaceOnUse" x1="16.0001" x2="16.0001" y1="16.0114" y2="16.4449"><stop offset="0" stop-color="#856988"/><stop offset="1" stop-color="#856988" stop-opacity="0"/></linearGradient><radialGradient id="F" cx="0" cy="0" gradientTransform="matrix(0 -.359375 1.91919 0 16.0001 18.1012)" gradientUnits="userSpaceOnUse" r="1"><stop offset="0" stop-color="#6a597b"/><stop offset="1" stop-color="#6a597b" stop-opacity="0"/></radialGradient><linearGradient id="G"><stop offset="0" stop-color="#aa9ba7"/><stop offset="1" stop-color="#aa9ba7" stop-opacity="0"/></linearGradient><radialGradient id="H" cx="0" cy="0" gradientTransform="matrix(0 -.269531 1.85938 0 18.0756 28.4645)" gradientUnits="userSpaceOnUse" r="1" xlink:href="#G"/><radialGradient id="I" cx="0" cy="0" gradientTransform="matrix(0 -.328125 1.20581 0 14.7943 28.5543)" gradientUnits="userSpaceOnUse" r="1" xlink:href="#G"/><linearGradient id="J" gradientUnits="userSpaceOnUse" x1="16.0001" x2="16.0001" y1="9.1012" y2="16.0621"><stop offset="0" stop-color="#ff7325"/><stop offset="1" stop-color="#ff4c2e"/></linearGradient><radialGradient id="K" cx="0" cy="0" gradientTransform="matrix(-1.93749598 1.62500318 -2.522137 -3.00715122 18.4037 9.75745)" gradientUnits="userSpaceOnUse" r="1"><stop offset="0" stop-color="#ff863c"/><stop offset="1" stop-color="#ff863c" stop-opacity="0"/></radialGradient><radialGradient id="L" cx="0" cy="0" gradientTransform="matrix(1.42712457 .66406352 -.84189413 1.8092965 15.4441 8.87268)" gradientUnits="userSpaceOnUse" r="1"><stop offset=".525911" stop-color="#3b1f1f"/><stop offset="1" stop-color="#5e332c"/></radialGradient><linearGradient id="M" gradientUnits="userSpaceOnUse" x1="18.2474" x2="16.5001" y1="29.7262" y2="29.5231"><stop offset="0" stop-color="#5a3f7c"/><stop offset="1" stop-color="#462f5e"/></linearGradient><radialGradient id="N" cx="0" cy="0" gradientTransform="matrix(-1.66284028 -.843753 .32902774 -.6484369 19.5665 29.4137)" gradientUnits="userSpaceOnUse" r="1"><stop offset="0" stop-color="#635185"/><stop offset="1" stop-color="#635185" stop-opacity="0"/></radialGradient><radialGradient id="O" cx="0" cy="0" gradientTransform="matrix(.33611329 .90653596 -1.07689353 .3992762 18.1337 6.33179)" gradientUnits="userSpaceOnUse" r="1"><stop offset=".214643" stop-color="#3c3b3c"/><stop offset="1" stop-color="#221c27"/></radialGradient><radialGradient id="P" cx="0" cy="0" gradientTransform="matrix(.66275943 .20829597 -.64260676 2.04465644 13.2813 6.55189)" gradientUnits="userSpaceOnUse" r="1"><stop offset="0" stop-color="#463c39"/><stop offset=".745836" stop-color="#1b141e"/></radialGradient><radialGradient id="Q" cx="0" cy="0" gradientTransform="matrix(-2.34669 0 0 -4.15128 17.2603 5.90927)" gradientUnits="userSpaceOnUse" r="1"><stop offset="0" stop-color="#563b38"/><stop offset="1" stop-color="#3c2828"/></radialGradient><linearGradient id="R" gradientUnits="userSpaceOnUse" x1="18.3149" x2="16.3611" y1="6.66584" y2="6.66584"><stop offset="0" stop-color="#563b38"/><stop offset="1" stop-color="#563b38" stop-opacity="0"/></linearGradient><radialGradient id="S" cx="0" cy="0" gradientTransform="matrix(-.45886088 5.57670391 -4.6181732 -.37999131 16.7099 3.25481)" gradientUnits="userSpaceOnUse" r="1"><stop offset=".767031" stop-color="#432742" stop-opacity="0"/><stop offset=".99662" stop-color="#432742"/></radialGradient><radialGradient id="T" cx="0" cy="0" gradientTransform="matrix(0 -.515475 .637901 0 17.0985 5.31994)" gradientUnits="userSpaceOnUse" r="1"><stop offset=".325" stop-color="#432728"/><stop offset="1" stop-color="#432728" stop-opacity="0"/></radialGradient><radialGradient id="U" cx="0" cy="0" gradientTransform="matrix(.00176435 -.49120283 .53454455 .00192003 14.9674 5.34081)" gradientUnits="userSpaceOnUse" r="1"><stop offset=".377617" stop-color="#361e27"/><stop offset="1" stop-color="#361e27" stop-opacity="0"/></radialGradient><radialGradient id="V" cx="0" cy="0" gradientTransform="matrix(-3.8137092 .24074016 -.61496942 -9.74209934 17.5409 6.35278)" gradientUnits="userSpaceOnUse" r="1"><stop offset=".835902" stop-color="#564440" stop-opacity="0"/><stop offset="1" stop-color="#564440"/></radialGradient><radialGradient id="W" cx="0" cy="0" gradientTransform="matrix(1.82829659 -1.18877104 .43517462 .66928638 13.5457 3.96772)" gradientUnits="userSpaceOnUse" r="1"><stop offset=".379603" stop-color="#231112"/><stop offset="1" stop-color="#231112" stop-opacity="0"/></radialGradient><radialGradient id="X" cx="0" cy="0" gradientTransform="matrix(-.10533305 1.12105238 -.44813421 -.04210628 18.4889 4.59972)" gradientUnits="userSpaceOnUse" r="1"><stop offset=".244676" stop-color="#6b5b59"/><stop offset="1" stop-color="#6b5b59" stop-opacity="0"/></radialGradient><radialGradient id="Y" cx="0" cy="0" gradientTransform="matrix(-.78247604 1.29411052 -1.06839337 -.64599754 17.0894 3.67428)" gradientUnits="userSpaceOnUse" r="1"><stop offset=".0780198" stop-color="#534445"/><stop offset="1" stop-color="#534445" stop-opacity="0"/></radialGradient><linearGradient id="Z" gradientUnits="userSpaceOnUse" x1="16.0211" x2="16.0211" y1="8.71572" y2="8.42828"><stop offset="0" stop-color="#49201f"/><stop offset="1" stop-color="#49201f" stop-opacity="0"/></linearGradient><linearGradient id="aa" gradientUnits="userSpaceOnUse" x1="16.3763" x2="16.0001" y1="6.21224" y2="6.22789"><stop offset=".360477" stop-color="#66514e"/><stop offset="1" stop-color="#66514e" stop-opacity="0"/></linearGradient><radialGradient id="ab" cx="0" cy="0" gradientTransform="matrix(0 .109574 -.344375 0 16.2094 6.52009)" gradientUnits="userSpaceOnUse" r="1"><stop offset="0" stop-color="#685554"/><stop offset="1" stop-color="#685554" stop-opacity="0"/></radialGradient><linearGradient id="ac" gradientUnits="userSpaceOnUse" x1="16.0001" x2="16.0001" y1="6.72358" y2="6.51487"><stop offset="0" stop-color="#3e2230"/><stop offset="1" stop-color="#3e2230" stop-opacity="0"/></linearGradient><radialGradient id="ad" cx="0" cy="0" gradientTransform="matrix(-.68281706 .31306505 -.50311964 -1.09733959 16.2616 6.26441)" gradientUnits="userSpaceOnUse" r="1"><stop offset=".714105" stop-color="#3e2b29" stop-opacity="0"/><stop offset="1" stop-color="#3f2c2a"/></radialGradient><linearGradient id="ae" gradientUnits="userSpaceOnUse" x1="16.0001" x2="16.0001" y1="5.3973" y2="5.75469"><stop offset="0" stop-color="#4b302a"/><stop offset="1" stop-color="#4b302a" stop-opacity="0"/></linearGradient><linearGradient id="af" gradientUnits="userSpaceOnUse" x1="15.4606" x2="15.6035" y1="7.42879" y2="7.0542"><stop offset="0" stop-color="#584a4a"/><stop offset="1" stop-color="#40222d" stop-opacity="0"/></linearGradient><radialGradient id="ag" cx="0" cy="0" gradientTransform="matrix(0 -.323527 1.30163 0 16 7.49811)" gradientUnits="userSpaceOnUse" r="1"><stop offset="0" stop-color="#290018"/><stop offset="1" stop-color="#290017"/></radialGradient><linearGradient id="ah" gradientUnits="userSpaceOnUse" x1="19.0757" x2="13.8631" y1="3.3674" y2="3.3674"><stop offset="0" stop-color="#443d40"/><stop offset="1" stop-color="#272127"/></linearGradient><radialGradient id="ai" cx="0" cy="0" gradientTransform="matrix(0 -1.57169 3.97461 0 13.6524 4.61098)" gradientUnits="userSpaceOnUse" r="1"><stop offset=".535851" stop-color="#3e3433"/><stop offset="1" stop-color="#3e3433" stop-opacity="0"/></radialGradient><radialGradient id="aj" cx="0" cy="0" gradientTransform="matrix(.05119119 -1.12783885 1.99830267 .09070045 18.1818 5.19914)" gradientUnits="userSpaceOnUse" r="1"><stop offset="0" stop-color="#4f4d4d"/><stop offset="1" stop-color="#4f4d4d" stop-opacity="0"/></radialGradient><radialGradient id="ak" cx="0" cy="0" gradientTransform="matrix(-1.05884282 -.69640305 .51119379 -.77724225 17.8432 2.38177)" gradientUnits="userSpaceOnUse" r="1"><stop offset="0" stop-color="#5e5a5b"/><stop offset="1" stop-color="#5e5a5b" stop-opacity="0"/></radialGradient><radialGradient id="al" cx="0" cy="0" gradientTransform="matrix(.40628903 .66210043 -1.53311538 .94077564 15.5936 1.66701)" gradientUnits="userSpaceOnUse" r="1"><stop offset=".286771" stop-color="#484646"/><stop offset="1" stop-color="#484646" stop-opacity="0"/></radialGradient><radialGradient id="am" cx="0" cy="0" gradientTransform="matrix(-.988049 0 0 -.366703 16.1139 2.68116)" gradientUnits="userSpaceOnUse" r="1"><stop offset="0" stop-color="#423c3f"/><stop offset="1" stop-color="#423c3f" stop-opacity="0"/></radialGradient><radialGradient id="an" cx="0" cy="0" gradientTransform="matrix(1.44458277 -2.28725997 2.53404985 1.60044979 13.5623 4.45087)" gradientUnits="userSpaceOnUse" r="1"><stop offset=".0926981" stop-color="#0b0306"/><stop offset=".311222" stop-color="#1c0c20"/><stop offset="1" stop-color="#1c0c20" stop-opacity="0"/></radialGradient><radialGradient id="ao" cx="0" cy="0" gradientTransform="matrix(1.45807393 .17042423 -.07135319 .61046615 16.7845 3.73052)" gradientUnits="userSpaceOnUse" r="1"><stop offset="0" stop-color="#200e25"/><stop offset="1" stop-color="#200e25" stop-opacity="0"/></radialGradient><linearGradient id="ap"><stop offset=".80198" stop-color="#7d574a"/><stop offset="1" stop-color="#694b43"/><stop offset="1" stop-color="#804d49"/><stop offset="1" stop-color="#664842"/></linearGradient><radialGradient id="aq" cx="0" cy="0" gradientTransform="matrix(0 .364188 -.579282 0 16.9795 5.49806)" gradientUnits="userSpaceOnUse" r="1" xlink:href="#ap"/><linearGradient id="ar"><stop offset=".765532" stop-color="#ffe6e2" stop-opacity="0"/><stop offset=".966159" stop-color="#ffe6e2"/></linearGradient><radialGradient id="as" cx="0" cy="0" gradientTransform="matrix(-.10410401 -.13415205 .1846948 -.14332594 16.8771 5.53582)" gradientUnits="userSpaceOnUse" r="1" xlink:href="#ar"/><linearGradient id="at"><stop offset="0" stop-color="#b4948d"/><stop offset="1" stop-color="#b4948d" stop-opacity="0"/></linearGradient><linearGradient id="au" gradientUnits="userSpaceOnUse" x1="17.3288" x2="17.188" xlink:href="#at" y1="5.52223" y2="5.60901"/><radialGradient id="av" cx="0" cy="0" gradientTransform="matrix(0 .364206 -.579311 0 15.0206 5.49807)" gradientUnits="userSpaceOnUse" r="1" xlink:href="#ap"/><linearGradient id="aw" gradientUnits="userSpaceOnUse" x1="15.3544" x2="15.2136" xlink:href="#at" y1="5.52225" y2="5.60903"/><radialGradient id="ax" cx="0" cy="0" gradientTransform="matrix(-.00347247 -.22178582 .26659533 -.00417405 14.892 5.59644)" gradientUnits="userSpaceOnUse" r="1" xlink:href="#ar"/><linearGradient id="ay" gradientUnits="userSpaceOnUse" x1="18.8892" x2="18.3474" y1="5.53426" y2="6.51113"><stop offset="0" stop-color="#62504f"/><stop offset="1" stop-color="#492f32"/></linearGradient><radialGradient id="az" cx="0" cy="0" gradientTransform="matrix(.2821457 1.00696915 -.96072608 .26918872 18.0728 5.50416)" gradientUnits="userSpaceOnUse" r="1"><stop offset=".856273" stop-color="#301924" stop-opacity="0"/><stop offset="1" stop-color="#301924"/></radialGradient><radialGradient id="aA" cx="0" cy="0" gradientTransform="matrix(.35362234 -.48528945 .40676942 .2964061 18.2346 5.74869)" gradientUnits="userSpaceOnUse" r="1"><stop offset=".663731" stop-color="#351b1e"/><stop offset="1" stop-color="#351b1e" stop-opacity="0"/></radialGradient><radialGradient id="aB" cx="0" cy="0" gradientTransform="matrix(.26349294 -.69595796 .92989668 .35206323 18.2858 5.82609)" gradientUnits="userSpaceOnUse" r="1"><stop offset=".803247" stop-color="#361c1e" stop-opacity="0"/><stop offset=".965916" stop-color="#361c1e"/></radialGradient><linearGradient id="aC" gradientUnits="userSpaceOnUse" x1="13.3741" x2="14.0286" y1="5.85032" y2="5.79315"><stop offset="0" stop-color="#372425"/><stop offset="1" stop-color="#281919"/></linearGradient><radialGradient id="aD" cx="0" cy="0" gradientTransform="matrix(-.18533117 .93189274 -.91613533 -.1821974 13.6374 5.57946)" gradientUnits="userSpaceOnUse" r="1"><stop offset=".77507" stop-color="#301929" stop-opacity="0"/><stop offset="1" stop-color="#301929"/></radialGradient><radialGradient id="aE" cx="0" cy="0" gradientTransform="matrix(-.4113923 .07061621 -.03114574 -.18144729 13.7941 5.79314)" gradientUnits="userSpaceOnUse" r="1"><stop offset="0" stop-color="#2c1d22"/><stop offset="1" stop-color="#271416"/></radialGradient><linearGradient id="aF" gradientUnits="userSpaceOnUse" x1="18.4313" x2="18.4313" y1="5.36292" y2="6.2173"><stop offset="0" stop-color="#4c3838"/><stop offset="1" stop-color="#3e2724"/></linearGradient><path d="m12.6676 19.1598c-.0844-.0906-.0638-.1966-.043-.2383h-.4375l.3203.9961c.2618.0781.5391.0508.5899-.1133.0406-.1312-.0274-.2539-.0742-.3008-.0834-.0768-.2711-.2531-.3555-.3437z" fill="#2b151c"/><path d="m19.3326 19.1598c.0844-.0906.0638-.1966.043-.2383h.4375l-.3203.9961c-.2617.0781-.5391.0508-.5898-.1133-.0407-.1312.0273-.2539.0742-.3008.0833-.0768.2711-.2531.3554-.3437z" fill="#3b2828"/><g filter="url(#a)"><path d="m12.112 20.4405c-.938-1.9819-.7688-6.2587-.4874-7.8237h1.6719c-.0717 2.4256.0394 5.2431.1779 6.5114.0113.1032.0833.2142 0 .2761-.1494.111-.3632.0549-.4388-.1151l-.1167-.2624c-.0384-.0863-.1361-.1294-.2257-.0995-.0847.0282-.1371.1133-.1193.2009.0607.2994.1715.6781.264.9732.0648.2072-.0376.4307-.2386.5128-.1862.0759-.4013.008-.4873-.1737z" fill="#412d2d"/><path d="m12.112 20.4405c-.938-1.9819-.7688-6.2587-.4874-7.8237h1.6719c-.0717 2.4256.0394 5.2431.1779 6.5114.0113.1032.0833.2142 0 .2761-.1494.111-.3632.0549-.4388-.1151l-.1167-.2624c-.0384-.0863-.1361-.1294-.2257-.0995-.0847.0282-.1371.1133-.1193.2009.0607.2994.1715.6781.264.9732.0648.2072-.0376.4307-.2386.5128-.1862.0759-.4013.008-.4873-.1737z" fill="url(#x)"/></g><path d="m19.8881 20.4405c.9379-1.9819.7687-6.2587.4873-7.8237h-1.6719c.0717 2.4256-.1555 5.2537-.2939 6.5221-.0113.1031.0327.2035.116.2654.1494.111.3632.0549.4388-.1151l.1167-.2624c.0384-.0863.1361-.1294.2257-.0995.0848.0282.1371.1133.1193.2009-.0607.2994-.1715.6781-.2639.9732-.0649.2072.0375.4307.2385.5128.1862.0759.4014.008.4874-.1737z" fill="#502626"/><path d="m19.8881 20.4405c.9379-1.9819.7687-6.2587.4873-7.8237h-1.6719c.0717 2.4256-.1555 5.2537-.2939 6.5221-.0113.1031.0327.2035.116.2654.1494.111.3632.0549.4388-.1151l.1167-.2624c.0384-.0863.1361-.1294.2257-.0995.0848.0282.1371.1133.1193.2009-.0607.2994-.1715.6781-.2639.9732-.0649.2072.0375.4307.2385.5128.1862.0759.4014.008.4874-.1737z" fill="url(#y)"/><path d="m11.5327 12.6605c.4862-2.2538 1.6284-3.33367 3.0295-3.82883v3.94923h-2.9324c-.0632 0-.1105-.0587-.0971-.1204z" fill="#ff4326"/><path d="m11.5327 12.6605c.4862-2.2538 1.6284-3.33367 3.0295-3.82883v3.94923h-2.9324c-.0632 0-.1105-.0587-.0971-.1204z" fill="url(#z)"/><path d="m11.5327 12.6605c.4862-2.2538 1.6284-3.33367 3.0295-3.82883v3.94923h-2.9324c-.0632 0-.1105-.0587-.0971-.1204z" fill="url(#A)"/><path d="m11.5327 12.6605c.4862-2.2538 1.6284-3.33367 3.0295-3.82883v3.94923h-2.9324c-.0632 0-.1105-.0587-.0971-.1204z" fill="url(#B)"/><g filter="url(#b)"><path d="m19.8131 12.4977c.125 1 .3 3.575 0 5.875" stroke="#583f3f" stroke-width=".3"/></g><path d="m20.4676 12.6605c-.4862-2.2538-1.6284-3.33367-3.0295-3.82883v3.94923h2.9324c.0632 0 .1105-.0587.0971-.1204z" fill="#ff7a43"/><path d="m20.4676 12.6605c-.4862-2.2538-1.6284-3.33367-3.0295-3.82883v3.94923h2.9324c.0632 0 .1105-.0587.0971-.1204z" fill="url(#C)"/><path d="m20.4676 12.6605c-.4862-2.2538-1.6284-3.33367-3.0295-3.82883v3.94923h2.9324c.0632 0 .1105-.0587.0971-.1204z" fill="url(#D)"/><g filter="url(#c)"><path d="m13.0157 16.0114.4844 12.4531h2l.2383-9.5235c0-.3281.0286-.8593.2617-.8593.2122 0 .2631.5547.2617.8593l.2383 9.5235h2l.4844-12.4531z" fill="#827a8a"/></g><path d="m13.0157 16.0114.4844 12.4531h2l.2383-9.5235c0-.3281.0286-.8593.2617-.8593.2122 0 .2631.5547.2617.8593l.2383 9.5235h2l.4844-12.4531z" fill="url(#E)"/><path d="m13.0157 16.0114.4844 12.4531h2l.2383-9.5235c0-.3281.0286-.8593.2617-.8593.2122 0 .2631.5547.2617.8593l.2383 9.5235h2l.4844-12.4531z" fill="url(#F)"/><path d="m13.0157 16.0114.4844 12.4531h2l.2383-9.5235c0-.3281.0286-.8593.2617-.8593.2122 0 .2631.5547.2617.8593l.2383 9.5235h2l.4844-12.4531z" fill="url(#H)"/><path d="m13.0157 16.0114.4844 12.4531h2l.2383-9.5235c0-.3281.0286-.8593.2617-.8593.2122 0 .2631.5547.2617.8593l.2383 9.5235h2l.4844-12.4531z" fill="url(#I)"/><g filter="url(#d)"><path d="m12.9415 11.527c0-1.68924 1.3694-3.05862 3.0586-3.05862s3.0586 1.36938 3.0586 3.05862v4.4414c0 .0518-.042.0937-.0937.0937h-5.9297c-.0518 0-.0938-.0419-.0938-.0937z" fill="url(#J)"/><path d="m12.9415 11.527c0-1.68924 1.3694-3.05862 3.0586-3.05862s3.0586 1.36938 3.0586 3.05862v4.4414c0 .0518-.042.0937-.0937.0937h-5.9297c-.0518 0-.0938-.0419-.0938-.0937z" fill="url(#K)"/></g><path d="m15.129 7.37463h1.7422v1.35157c0 .48109-.39.87109-.8711.87109s-.8711-.39-.8711-.87109z" fill="url(#L)"/><g filter="url(#e)"><path d="m12.4337 29.8199v.2422h3.0664v-1.5976h-1.9923c-.1016.3672-.5741.7539-.8163.914-.1865.1234-.2578.3008-.2578.4414z" fill="#5d4480"/></g><path d="m19.5665 29.8199v.2422h-3.0664v-1.5976h1.9923c.1016.3672.5741.7539.8163.914.1865.1234.2578.3008.2578.4414z" fill="url(#M)"/><path d="m19.5665 29.8199v.2422h-3.0664v-1.5976h1.9923c.1016.3672.5741.7539.8163.914.1865.1234.2578.3008.2578.4414z" fill="url(#N)"/><g filter="url(#f)"><path d="m13.8409 16.3824.4688 11.7657h.8125v-10.6094h2.2031v10.6094h.6719l.4375-11.7657z" fill="#9d98a2"/></g><path d="m18.1822 6.47028c.1505-.00486.2914-.05588.4061-.13849v.41791c0 .40091-.2389.75808-.602.90629.0765-.16279.129-.34016.1553-.52968z" fill="url(#O)"/><path d="m13.8178 6.47028c-.1505-.00486-.2914-.05588-.4061-.13849v.41791c0 .40091.2389.75808.602.90629-.0765-.16279-.129-.34016-.1553-.52968z" fill="url(#P)"/><g filter="url(#g)"><path d="m13.8341 7.15041c.1155.87638.8613 1.52885 1.7443 1.52885h.8468c.8829 0 1.6288-.65247 1.7442-1.52885.053-.84556.1063-1.68772.1455-2.53284-.0047-.34429-.2761-.62839-.619-.64284h-.6285c-.4285 0-.8166-.2528-.9928-.64765-.0452-.11316-.1547-.1878-.2761-.1878h-.5714c-.8285 0-1.4999.67895-1.4999 1.51681 0 .83525.0521 1.65697.1069 2.49432z" fill="url(#Q)"/></g><path d="m13.8341 7.15041c.1155.87638.8613 1.52885 1.7443 1.52885h.8468c.8829 0 1.6288-.65247 1.7442-1.52885.053-.84556.1063-1.68772.1455-2.53284-.0047-.34429-.2761-.62839-.619-.64284h-.6285c-.4285 0-.8166-.2528-.9928-.64765-.0452-.11316-.1547-.1878-.2761-.1878h-.5714c-.8285 0-1.4999.67895-1.4999 1.51681 0 .83525.0521 1.65697.1069 2.49432z" fill="url(#R)"/><path d="m13.8341 7.15041c.1155.87638.8613 1.52885 1.7443 1.52885h.8468c.8829 0 1.6288-.65247 1.7442-1.52885.053-.84556.1063-1.68772.1455-2.53284-.0047-.34429-.2761-.62839-.619-.64284h-.6285c-.4285 0-.8166-.2528-.9928-.64765-.0452-.11316-.1547-.1878-.2761-.1878h-.5714c-.8285 0-1.4999.67895-1.4999 1.51681 0 .83525.0521 1.65697.1069 2.49432z" fill="url(#S)"/><path d="m13.8341 7.15041c.1155.87638.8613 1.52885 1.7443 1.52885h.8468c.8829 0 1.6288-.65247 1.7442-1.52885.053-.84556.1063-1.68772.1455-2.53284-.0047-.34429-.2761-.62839-.619-.64284h-.6285c-.4285 0-.8166-.2528-.9928-.64765-.0452-.11316-.1547-.1878-.2761-.1878h-.5714c-.8285 0-1.4999.67895-1.4999 1.51681 0 .83525.0521 1.65697.1069 2.49432z" fill="url(#T)"/><path d="m13.8341 7.15041c.1155.87638.8613 1.52885 1.7443 1.52885h.8468c.8829 0 1.6288-.65247 1.7442-1.52885.053-.84556.1063-1.68772.1455-2.53284-.0047-.34429-.2761-.62839-.619-.64284h-.6285c-.4285 0-.8166-.2528-.9928-.64765-.0452-.11316-.1547-.1878-.2761-.1878h-.5714c-.8285 0-1.4999.67895-1.4999 1.51681 0 .83525.0521 1.65697.1069 2.49432z" fill="url(#U)"/><path d="m13.8341 7.15041c.1155.87638.8613 1.52885 1.7443 1.52885h.8468c.8829 0 1.6288-.65247 1.7442-1.52885.053-.84556.1063-1.68772.1455-2.53284-.0047-.34429-.2761-.62839-.619-.64284h-.6285c-.4285 0-.8166-.2528-.9928-.64765-.0452-.11316-.1547-.1878-.2761-.1878h-.5714c-.8285 0-1.4999.67895-1.4999 1.51681 0 .83525.0521 1.65697.1069 2.49432z" fill="url(#V)"/><path d="m13.8341 7.15041c.1155.87638.8613 1.52885 1.7443 1.52885h.8468c.8829 0 1.6288-.65247 1.7442-1.52885.053-.84556.1063-1.68772.1455-2.53284-.0047-.34429-.2761-.62839-.619-.64284h-.6285c-.4285 0-.8166-.2528-.9928-.64765-.0452-.11316-.1547-.1878-.2761-.1878h-.5714c-.8285 0-1.4999.67895-1.4999 1.51681 0 .83525.0521 1.65697.1069 2.49432z" fill="url(#W)"/><path d="m13.8341 7.15041c.1155.87638.8613 1.52885 1.7443 1.52885h.8468c.8829 0 1.6288-.65247 1.7442-1.52885.053-.84556.1063-1.68772.1455-2.53284-.0047-.34429-.2761-.62839-.619-.64284h-.6285c-.4285 0-.8166-.2528-.9928-.64765-.0452-.11316-.1547-.1878-.2761-.1878h-.5714c-.8285 0-1.4999.67895-1.4999 1.51681 0 .83525.0521 1.65697.1069 2.49432z" fill="url(#X)"/><path d="m13.8341 7.15041c.1155.87638.8613 1.52885 1.7443 1.52885h.8468c.8829 0 1.6288-.65247 1.7442-1.52885.053-.84556.1063-1.68772.1455-2.53284-.0047-.34429-.2761-.62839-.619-.64284h-.6285c-.4285 0-.8166-.2528-.9928-.64765-.0452-.11316-.1547-.1878-.2761-.1878h-.5714c-.8285 0-1.4999.67895-1.4999 1.51681 0 .83525.0521 1.65697.1069 2.49432z" fill="url(#Y)"/><path d="m13.8341 7.15041c.1155.87638.8613 1.52885 1.7443 1.52885h.8468c.8829 0 1.6288-.65247 1.7442-1.52885.053-.84556.1063-1.68772.1455-2.53284-.0047-.34429-.2761-.62839-.619-.64284h-.6285c-.4285 0-.8166-.2528-.9928-.64765-.0452-.11316-.1547-.1878-.2761-.1878h-.5714c-.8285 0-1.4999.67895-1.4999 1.51681 0 .83525.0521 1.65697.1069 2.49432z" fill="url(#Z)"/><g filter="url(#h)"><path d="m15.8199 5.67641-.2652.8252c-.0453.16974.0634.33948.2174.33948h.3285c.154 0 .2627-.17235.2174-.33948l-.222-.8252c-.0475-.1828-.2263-.1828-.2761 0z" fill="#331e24"/></g><path d="m15.8284 5.58851-.2385.82521c-.0487.16974.0681.33948.2337.33948h.353c.1655 0 .2824-.17235.2337-.33948l-.2386-.82521c-.0511-.18279-.2897-.18279-.3433 0z" fill="#402929"/><path d="m15.8284 5.58851-.2385.82521c-.0487.16974.0681.33948.2337.33948h.353c.1655 0 .2824-.17235.2337-.33948l-.2386-.82521c-.0511-.18279-.2897-.18279-.3433 0z" fill="url(#aa)"/><path d="m15.8284 5.58851-.2385.82521c-.0487.16974.0681.33948.2337.33948h.353c.1655 0 .2824-.17235.2337-.33948l-.2386-.82521c-.0511-.18279-.2897-.18279-.3433 0z" fill="url(#ab)"/><path d="m15.8284 5.58851-.2385.82521c-.0487.16974.0681.33948.2337.33948h.353c.1655 0 .2824-.17235.2337-.33948l-.2386-.82521c-.0511-.18279-.2897-.18279-.3433 0z" fill="url(#ac)"/><path d="m15.8284 5.58851-.2385.82521c-.0487.16974.0681.33948.2337.33948h.353c.1655 0 .2824-.17235.2337-.33948l-.2386-.82521c-.0511-.18279-.2897-.18279-.3433 0z" fill="url(#ad)"/><path d="m15.8284 5.58851-.2385.82521c-.0487.16974.0681.33948.2337.33948h.353c.1655 0 .2824-.17235.2337-.33948l-.2386-.82521c-.0511-.18279-.2897-.18279-.3433 0z" fill="url(#ae)"/><g filter="url(#i)"><path d="m16 7.20959c-.2278 0-.4419-.05361-.6219-.14743-.0615-.03127-.1276.03798-.0888.09382.1503.22785.4123.37975.7107.37975s.5604-.1519.7107-.37975c.0388-.05808-.0273-.12509-.0888-.09382-.18.09382-.3918.14743-.6219.14743z" stroke="url(#af)" stroke-width=".1"/></g><path d="m16 7.20959c-.2278 0-.4419-.05361-.6219-.14743-.0615-.03127-.1276.03798-.0888.09382.1503.22785.4123.37975.7107.37975s.5604-.1519.7107-.37975c.0388-.05808-.0273-.12509-.0888-.09382-.18.09382-.3918.14743-.6219.14743z" fill="url(#ag)"/><g filter="url(#j)"><path d="m18.1791 2.92741c.231.07945.4381.24076.5691.47189.2095.36837.1785.80897-.0477 1.134-.0785.11557-.1214.2528-.1214.39245v.53329c-.0839-.05849-.1947-.10185-.2995-.12038l.0353-.72109c-.0048-.34429-.2762-.62839-.619-.64284h-.6286c-.4285 0-.8166-.2528-.9928-.64766-.0452-.11315-.1547-.18779-.2761-.18779h-.5714c-.8285 0-1.4999.67895-1.4999 1.51681l.0137.69009c-.114.01675-.2331.05486-.3232.11836v-.53879c0-.13965-.0429-.27688-.1214-.39245-.2143-.3154-.2524-.73914-.0643-1.09788.1309-.24799.3428-.42134.5833-.50561.2571-.09149.4761-.26484.6214-.49838.1857-.29614.5118-.49356.8856-.49356.1452 0 .2833.0313.4119.08426.1714.07464.3642.07464.5357 0 .1261-.05296.2642-.08426.4095-.08426.3785 0 .7094.20465.8927.50801.1381.22872.3548.39485.6071.48153z" fill="url(#ah)"/><path d="m18.1791 2.92741c.231.07945.4381.24076.5691.47189.2095.36837.1785.80897-.0477 1.134-.0785.11557-.1214.2528-.1214.39245v.53329c-.0839-.05849-.1947-.10185-.2995-.12038l.0353-.72109c-.0048-.34429-.2762-.62839-.619-.64284h-.6286c-.4285 0-.8166-.2528-.9928-.64766-.0452-.11315-.1547-.18779-.2761-.18779h-.5714c-.8285 0-1.4999.67895-1.4999 1.51681l.0137.69009c-.114.01675-.2331.05486-.3232.11836v-.53879c0-.13965-.0429-.27688-.1214-.39245-.2143-.3154-.2524-.73914-.0643-1.09788.1309-.24799.3428-.42134.5833-.50561.2571-.09149.4761-.26484.6214-.49838.1857-.29614.5118-.49356.8856-.49356.1452 0 .2833.0313.4119.08426.1714.07464.3642.07464.5357 0 .1261-.05296.2642-.08426.4095-.08426.3785 0 .7094.20465.8927.50801.1381.22872.3548.39485.6071.48153z" fill="url(#ai)"/><path d="m18.1791 2.92741c.231.07945.4381.24076.5691.47189.2095.36837.1785.80897-.0477 1.134-.0785.11557-.1214.2528-.1214.39245v.53329c-.0839-.05849-.1947-.10185-.2995-.12038l.0353-.72109c-.0048-.34429-.2762-.62839-.619-.64284h-.6286c-.4285 0-.8166-.2528-.9928-.64766-.0452-.11315-.1547-.18779-.2761-.18779h-.5714c-.8285 0-1.4999.67895-1.4999 1.51681l.0137.69009c-.114.01675-.2331.05486-.3232.11836v-.53879c0-.13965-.0429-.27688-.1214-.39245-.2143-.3154-.2524-.73914-.0643-1.09788.1309-.24799.3428-.42134.5833-.50561.2571-.09149.4761-.26484.6214-.49838.1857-.29614.5118-.49356.8856-.49356.1452 0 .2833.0313.4119.08426.1714.07464.3642.07464.5357 0 .1261-.05296.2642-.08426.4095-.08426.3785 0 .7094.20465.8927.50801.1381.22872.3548.39485.6071.48153z" fill="url(#aj)"/><path d="m18.1791 2.92741c.231.07945.4381.24076.5691.47189.2095.36837.1785.80897-.0477 1.134-.0785.11557-.1214.2528-.1214.39245v.53329c-.0839-.05849-.1947-.10185-.2995-.12038l.0353-.72109c-.0048-.34429-.2762-.62839-.619-.64284h-.6286c-.4285 0-.8166-.2528-.9928-.64766-.0452-.11315-.1547-.18779-.2761-.18779h-.5714c-.8285 0-1.4999.67895-1.4999 1.51681l.0137.69009c-.114.01675-.2331.05486-.3232.11836v-.53879c0-.13965-.0429-.27688-.1214-.39245-.2143-.3154-.2524-.73914-.0643-1.09788.1309-.24799.3428-.42134.5833-.50561.2571-.09149.4761-.26484.6214-.49838.1857-.29614.5118-.49356.8856-.49356.1452 0 .2833.0313.4119.08426.1714.07464.3642.07464.5357 0 .1261-.05296.2642-.08426.4095-.08426.3785 0 .7094.20465.8927.50801.1381.22872.3548.39485.6071.48153z" fill="url(#ak)"/><path d="m18.1791 2.92741c.231.07945.4381.24076.5691.47189.2095.36837.1785.80897-.0477 1.134-.0785.11557-.1214.2528-.1214.39245v.53329c-.0839-.05849-.1947-.10185-.2995-.12038l.0353-.72109c-.0048-.34429-.2762-.62839-.619-.64284h-.6286c-.4285 0-.8166-.2528-.9928-.64766-.0452-.11315-.1547-.18779-.2761-.18779h-.5714c-.8285 0-1.4999.67895-1.4999 1.51681l.0137.69009c-.114.01675-.2331.05486-.3232.11836v-.53879c0-.13965-.0429-.27688-.1214-.39245-.2143-.3154-.2524-.73914-.0643-1.09788.1309-.24799.3428-.42134.5833-.50561.2571-.09149.4761-.26484.6214-.49838.1857-.29614.5118-.49356.8856-.49356.1452 0 .2833.0313.4119.08426.1714.07464.3642.07464.5357 0 .1261-.05296.2642-.08426.4095-.08426.3785 0 .7094.20465.8927.50801.1381.22872.3548.39485.6071.48153z" fill="url(#al)"/></g><g filter="url(#k)"><path d="m17.6755 4.57181c-.0786-.06849-.1701-.14107-.3086-.18468-.1366-.04299-.3076-.05454-.5443-.02559-.0682.00835-.1168.07044-.1084.13869.0083.06824.0704.11679.1387.10844.216-.02642.3483-.01269.4392.01595.089.02802.1493.07341.2199.13493.0518.04516.1305.03974.1756-.01211.0452-.05184.0398-.13047-.0121-.17563z" fill="#202020"/></g><g filter="url(#l)"><path d="m14.4689 4.52284c.0405-.02422.0987-.05519.1722-.08409.147-.05779.357-.10798.6084-.07723.0682.00835.1168.07044.1084.13868-.0083.06824-.0704.1168-.1386.10845-.2013-.02463-.3693.01547-.4871.06181-.0589.02316-.1049.04771-.1354.06601-.0153.00913-.0266.01665-.0337.02157l-.0075.00528-.0012.00092c-.0543.04183-.1322.03197-.1743-.02216-.0422-.05427-.0324-.13248.0218-.17469z" fill="#202020"/></g><g filter="url(#m)"><path d="m16.1044 3.38851c-.0105-.02006-.0204-.04054-.0297-.06141-.0452-.11316-.1547-.1878-.2762-.1878h-.5713c-.8286 0-1.4999.67896-1.4999 1.51682v.12351c-.1527-.11614-.3446-.36114-.3446-.75762 0-.48113.3509-.72433.5747-.87946.0632-.04379.1163-.08057.1485-.1137.0136-.01407.0285-.02986.0447-.04703.1569-.16641.4365-.46291.9246-.59249.0772-.0205.1548-.03598.231-.04739.4676-.07.8077.34822.8077.82107v.21947z" fill="#23181c"/><path d="m16.1044 3.38851c-.0105-.02006-.0204-.04054-.0297-.06141-.0452-.11316-.1547-.1878-.2762-.1878h-.5713c-.8286 0-1.4999.67896-1.4999 1.51682v.12351c-.1527-.11614-.3446-.36114-.3446-.75762 0-.48113.3509-.72433.5747-.87946.0632-.04379.1163-.08057.1485-.1137.0136-.01407.0285-.02986.0447-.04703.1569-.16641.4365-.46291.9246-.59249.0772-.0205.1548-.03598.231-.04739.4676-.07.8077.34822.8077.82107v.21947z" fill="url(#am)"/><path d="m16.1044 3.38851c-.0105-.02006-.0204-.04054-.0297-.06141-.0452-.11316-.1547-.1878-.2762-.1878h-.5713c-.8286 0-1.4999.67896-1.4999 1.51682v.12351c-.1527-.11614-.3446-.36114-.3446-.75762 0-.48113.3509-.72433.5747-.87946.0632-.04379.1163-.08057.1485-.1137.0136-.01407.0285-.02986.0447-.04703.1569-.16641.4365-.46291.9246-.59249.0772-.0205.1548-.03598.231-.04739.4676-.07.8077.34822.8077.82107v.21947z" fill="url(#an)"/></g><g filter="url(#n)"><path d="m18.3399 4.85494-.0131-.28334c-.0048-.3427-.288-.62549-.6308-.63987h-.6285c-.399 0-.7629-.21814-.9534-.56543s.3233-.93334.8597-.81247c.3919.08829.8114.22707 1.1323.43637.7831.51076.646 1.43126.2338 1.86474z" fill="#1f151b"/><path d="m18.3399 4.85494-.0131-.28334c-.0048-.3427-.288-.62549-.6308-.63987h-.6285c-.399 0-.7629-.21814-.9534-.56543s.3233-.93334.8597-.81247c.3919.08829.8114.22707 1.1323.43637.7831.51076.646 1.43126.2338 1.86474z" fill="url(#ao)"/></g><path d="m17.0734 5.16187c.2931 0 .5408.20212.6082.47526.02.0783-.0401.15296-.1202.15296h-1.0015c-.0638 0-.1147-.05827-.102-.122.0564-.28771.3096-.50622.6155-.50622z" fill="#fff"/><path d="m16.9804 5.28394c.2222 0 .4006.18027.4006.4006 0 .03642-.0054.07284-.0145.10562h-.7739c-.0091-.0346-.0146-.0692-.0146-.10562 0-.22033.1803-.4006.4024-.4006z" fill="url(#aq)"/><path d="m16.7509 5.68452c0-.12747.1019-.22944.2294-.22944s.2294.10197.2294.22944c0 .03824-.0091.07465-.0255.10561h-.406c-.0182-.03096-.0273-.06737-.0273-.10561z" fill="#000"/><g filter="url(#o)"><path d="m16.951 5.36861c.0286.03818-.0311.08471-.0989.13543-.0679.05072-.1182.08641-.1467.04823-.0286-.03817.0033-.11023.0711-.16095.0678-.05071.146-.06088.1745-.02271z" fill="#c7a7a3"/><path d="m16.951 5.36861c.0286.03818-.0311.08471-.0989.13543-.0679.05072-.1182.08641-.1467.04823-.0286-.03817.0033-.11023.0711-.16095.0678-.05071.146-.06088.1745-.02271z" fill="url(#as)"/></g><g filter="url(#p)"><path d="m17.3373 5.63177c-.0148-.10356-.0754-.18162-.1038-.2077l-.1167.12804.0527.10242z" fill="url(#au)"/></g><path d="m14.9269 5.16187c-.2932 0-.5408.20213-.6082.47528-.02.07831.0401.15297.1202.15297h1.0016c.0637 0 .1147-.05827.1019-.12201-.0564-.28772-.3114-.50624-.6155-.50624z" fill="#fff"/><path d="m15.0196 5.28394c-.2221 0-.4006.18028-.4006.40062 0 .03642.0055.07284.0146.10562h.7739c.0091-.0346.0146-.0692.0146-.10562-.0018-.22034-.1803-.40062-.4025-.40062z" fill="url(#av)"/><path d="m15.2491 5.68453c0-.12747-.102-.22945-.2295-.22945s-.2294.10198-.2294.22945c0 .03824.0091.07466.0255.10562h.406c.0164-.03096.0274-.06738.0274-.10562z" fill="#000"/><g filter="url(#q)"><path d="m15.3856 5.63749c0-.12947-.1052-.21578-.1337-.24186l-.1295.1252.0797.16218z" fill="url(#aw)"/></g><g filter="url(#r)"><ellipse cx="14.8987" cy="5.45508" fill="#c7a7a3" fill-opacity=".9" rx=".174895" ry=".088513" transform="matrix(.88365127 -.46814574 .46814574 .88365127 -.820328 7.609455)"/><ellipse cx="14.8987" cy="5.45508" fill="url(#ax)" rx=".174895" ry=".088513" transform="matrix(.88365127 -.46814574 .46814574 .88365127 -.820328 7.609455)"/></g><path d="m18.2094 6.51113c.0295-.4777.058-.95482.0828-1.43252.3392.05935.597.3553.597.71146 0 .38464-.3007.69907-.6798.72106z" fill="url(#ay)"/><path d="m18.2094 6.51113c.0295-.4777.058-.95482.0828-1.43252.3392.05935.597.3553.597.71146 0 .38464-.3007.69907-.6798.72106z" fill="url(#az)"/><path d="m18.2094 6.51113c.0295-.4777.058-.95482.0828-1.43252.3392.05935.597.3553.597.71146 0 .38464-.3007.69907-.6798.72106z" fill="url(#aA)"/><path d="m18.2094 6.51113c.0295-.4777.058-.95482.0828-1.43252.3392.05935.597.3553.597.71146 0 .38464-.3007.69907-.6798.72106z" fill="url(#aB)"/><path d="m13.7313 5.07495c-.3508.04945-.6206.35081-.6206.71518 0 .38562.3022.70066.6827.72123-.029-.47966-.0529-.9566-.0621-1.43641z" fill="url(#aC)"/><path d="m13.7313 5.07495c-.3508.04945-.6206.35081-.6206.71518 0 .38562.3022.70066.6827.72123-.029-.47966-.0529-.9566-.0621-1.43641z" fill="url(#aD)"/><g filter="url(#s)"><path d="m13.7173 5.37134c-.1915.04294-.3346.21399-.3346.41847 0 .2176.1621.39736.3721.42514-.0156-.28137-.0287-.56219-.0375-.84361z" fill="url(#aE)"/></g><g filter="url(#t)"><path d="m18.2189 6.2173c.0173-.28484.034-.56955.0496-.85438.2116.02639.3753.20684.3753.42553 0 .23553-.1899.42671-.4249.42885z" fill="url(#aF)"/></g><g filter="url(#u)"><path d="m14.4857 4.64837c.1154-.08277.4029-.22835.743-.17117" stroke="#353535" stroke-linecap="round" stroke-width=".1"/></g><g filter="url(#v)"><path d="m17.5985 4.62774c-.1154-.08277-.4029-.22835-.743-.17117" stroke="#353535" stroke-linecap="round" stroke-width=".1"/></g><g filter="url(#w)"><path d="m17.882 3.39636h-.9341c-.1196 0-.2166-.097-.2166-.21665 0-.13346.1195-.2358.2513-.21479.2423.03862.5642.09246.7797.14589.4873.12082.6218.35804.6594.52718-.174-.21264-.4323-.24969-.5397-.24163z" fill="#504a4c"/></g></svg>