<svg enable-background="new 0 0 128 128" viewBox="0 0 32 32" xmlns="http://www.w3.org/2000/svg"><path d="m29.52 14.84-12.36-12.36c-.64-.64-1.68-.64-2.32 0l-12.36 12.36c-.64.64-.64 1.68 0 2.32l12.36 12.36c.64.64 1.68.64 2.32 0l12.36-12.36c.64-.64.64-1.68 0-2.32z" fill="#ffb02e"/><path d="m22.69 15.43-2.53-1.57c.55-.36.91-.98.91-1.68 0-1.11-.9-2.01-2.01-2.01s-2.01.9-2.01 2.01c0 .7.35 1.31.89 1.67l-2.57 1.51-1.51-.6c.47-.37.77-.94.77-1.58 0-1.11-.9-2.01-2.01-2.01s-2.01.9-2.01 2.01c0 .7.36 1.32.91 1.68l-2.17996 1.36c-.43.24-.56.78-.3 1.18.16.26.45.41.73.41.16 0 .30996-.04.45996-.13l1.02-.63-.99 2.9c-.15.45.09.94.54 1.1.09.03.19.05.28.05.36 0 .69-.23.82-.59l.71-2.08.71 2.08c.12.36.46.59.82.59.09 0 .19-.01.28-.05.45-.15.69-.64.54-1.1l-1.16-3.35 1.3.52c.03.01.06.02.09.03.01 0 .02 0 .02.01.03.01.05.01.08.02h.02c.03 0 .07.01.1.01s.07 0 .1-.01h.02c.03 0 .06-.01.09-.02.01 0 .01 0 .02-.01.03-.01.06-.02.09-.03.01 0 .01 0 .02-.01.03-.01.06-.03.09-.05l1.99-1.16-1.16 4.09c-.13.46.14.94.6 1.07.08.02.16.03.24.03.38 0 .72-.25.83-.63l.7-2.47.7 2.47c.11.38.45.63.83.63.08 0 .16-.01.24-.03.46-.13.73-.61.6-1.07l-1.14-4.02 1.5.93c.14.09.3.13.46.13.29 0 .57-.14.73-.41.26-.4.13-.93-.27-1.19z"/></svg>