<svg fill="none" height="32" viewBox="0 0 32 32" width="32" xmlns="http://www.w3.org/2000/svg" xmlns:xlink="http://www.w3.org/1999/xlink"><filter id="a" color-interpolation-filters="sRGB" filterUnits="userSpaceOnUse" height="10.75" width="1.80005" x="26.4925" y="19.1624"><feFlood flood-opacity="0" result="BackgroundImageFix"/><feBlend in="SourceGraphic" in2="BackgroundImageFix" mode="normal" result="shape"/><feGaussianBlur result="effect1_foregroundBlur_28327_2831" stdDeviation=".375"/></filter><filter id="b" color-interpolation-filters="sRGB" filterUnits="userSpaceOnUse" height="6.2" width="1.39995" x="11.38" y="23.5624"><feFlood flood-opacity="0" result="BackgroundImageFix"/><feBlend in="SourceGraphic" in2="BackgroundImageFix" mode="normal" result="shape"/><feGaussianBlur result="effect1_foregroundBlur_28327_2831" stdDeviation=".3"/></filter><filter id="c" color-interpolation-filters="sRGB" filterUnits="userSpaceOnUse" height="2.97687" width="5.19629" x="6.2431" y="5.22559"><feFlood flood-opacity="0" result="BackgroundImageFix"/><feBlend in="SourceGraphic" in2="BackgroundImageFix" mode="normal" result="shape"/><feGaussianBlur result="effect1_foregroundBlur_28327_2831" stdDeviation=".25"/></filter><filter id="d" color-interpolation-filters="sRGB" filterUnits="userSpaceOnUse" height="5.64375" width=".899976" x="29.2863" y="17.9343"><feFlood flood-opacity="0" result="BackgroundImageFix"/><feBlend in="SourceGraphic" in2="BackgroundImageFix" mode="normal" result="shape"/><feGaussianBlur result="effect1_foregroundBlur_28327_2831" stdDeviation=".2"/></filter><filter id="e" color-interpolation-filters="sRGB" filterUnits="userSpaceOnUse" height="2.59155" width="1.78662" x="6.33417" y="7.80923"><feFlood flood-opacity="0" result="BackgroundImageFix"/><feBlend in="SourceGraphic" in2="BackgroundImageFix" mode="normal" result="shape"/><feGaussianBlur result="effect1_foregroundBlur_28327_2831" stdDeviation=".25"/></filter><filter id="f" color-interpolation-filters="sRGB" filterUnits="userSpaceOnUse" height="3.03128" width="3.73444" x="4.79871" y="2.89679"><feFlood flood-opacity="0" result="BackgroundImageFix"/><feBlend in="SourceGraphic" in2="BackgroundImageFix" mode="normal" result="shape"/><feGaussianBlur result="effect1_foregroundBlur_28327_2831" stdDeviation=".25"/></filter><filter id="g" color-interpolation-filters="sRGB" filterUnits="userSpaceOnUse" height="2.25" width="1.97461" x="9.50775" y="4.55307"><feFlood flood-opacity="0" result="BackgroundImageFix"/><feBlend in="SourceGraphic" in2="BackgroundImageFix" mode="normal" result="shape"/><feGaussianBlur result="effect1_foregroundBlur_28327_2831" stdDeviation=".375"/></filter><filter id="h" color-interpolation-filters="sRGB" filterUnits="userSpaceOnUse" height="2.60156" width="2.5" x="10.4706" y="7.27963"><feFlood flood-opacity="0" result="BackgroundImageFix"/><feBlend in="SourceGraphic" in2="BackgroundImageFix" mode="normal" result="shape"/><feGaussianBlur result="effect1_foregroundBlur_28327_2831" stdDeviation=".125"/></filter><filter id="i" color-interpolation-filters="sRGB" filterUnits="userSpaceOnUse" height="6.47208" width="5.50549" x="15.4435" y="7.50671"><feFlood flood-opacity="0" result="BackgroundImageFix"/><feBlend in="SourceGraphic" in2="BackgroundImageFix" mode="normal" result="shape"/><feGaussianBlur result="effect1_foregroundBlur_28327_2831" stdDeviation=".5"/></filter><filter id="j" color-interpolation-filters="sRGB" filterUnits="userSpaceOnUse" height="7.50476" width="6.11182" x="9.51587" y="4.39618"><feFlood flood-opacity="0" result="BackgroundImageFix"/><feBlend in="SourceGraphic" in2="BackgroundImageFix" mode="normal" result="shape"/><feGaussianBlur result="effect1_foregroundBlur_28327_2831" stdDeviation=".5"/></filter><filter id="k" color-interpolation-filters="sRGB" filterUnits="userSpaceOnUse" height="8.20358" width="8.16223" x="22.1461" y="9.77563"><feFlood flood-opacity="0" result="BackgroundImageFix"/><feBlend in="SourceGraphic" in2="BackgroundImageFix" mode="normal" result="shape"/><feGaussianBlur result="effect1_foregroundBlur_28327_2831" stdDeviation=".5"/></filter><filter id="l" color-interpolation-filters="sRGB" filterUnits="userSpaceOnUse" height="4.48325" width="4.48517" x="9.24408" y="6.97885"><feFlood flood-opacity="0" result="BackgroundImageFix"/><feBlend in="SourceGraphic" in2="BackgroundImageFix" mode="normal" result="shape"/><feGaussianBlur result="effect1_foregroundBlur_28327_2831" stdDeviation=".25"/></filter><filter id="m" color-interpolation-filters="sRGB" filterUnits="userSpaceOnUse" height="6.59375" width="4.07812" x="11.08" y="21.0999"><feFlood flood-opacity="0" result="BackgroundImageFix"/><feBlend in="SourceGraphic" in2="BackgroundImageFix" mode="normal" result="shape"/><feGaussianBlur result="effect1_foregroundBlur_28327_2831" stdDeviation=".5"/></filter><filter id="n" color-interpolation-filters="sRGB" filterUnits="userSpaceOnUse" height="7.13423" width="2.39385" x="15.432" y="22.5486"><feFlood flood-opacity="0" result="BackgroundImageFix"/><feBlend in="SourceGraphic" in2="BackgroundImageFix" mode="normal" result="shape"/><feGaussianBlur result="effect1_foregroundBlur_28327_2831" stdDeviation=".3"/></filter><filter id="o" color-interpolation-filters="sRGB" filterUnits="userSpaceOnUse" height="6.82164" width="2.92107" x="19.5257" y="22.8922"><feFlood flood-opacity="0" result="BackgroundImageFix"/><feBlend in="SourceGraphic" in2="BackgroundImageFix" mode="normal" result="shape"/><feGaussianBlur result="effect1_foregroundBlur_28327_2831" stdDeviation=".3"/></filter><linearGradient id="p"><stop offset="0" stop-color="#4c2325"/><stop offset="1" stop-color="#754a4d"/></linearGradient><linearGradient id="q" gradientUnits="userSpaceOnUse" x1="21.3293" x2="21.3293" xlink:href="#p" y1="22.6227" y2="29.4883"/><linearGradient id="r"><stop offset="0" stop-color="#782666"/><stop offset="1" stop-color="#693452" stop-opacity="0"/></linearGradient><linearGradient id="s" gradientUnits="userSpaceOnUse" x1="19.486" x2="19.486" xlink:href="#r" y1="30.1196" y2="29.2357"/><linearGradient id="t" gradientUnits="userSpaceOnUse" x1="16" x2="16" xlink:href="#p" y1="21.6875" y2="29.4375"/><linearGradient id="u" gradientUnits="userSpaceOnUse" x1="14.3649" x2="14.3649" xlink:href="#r" y1="30.1502" y2="29.1524"/><linearGradient id="v" gradientUnits="userSpaceOnUse" x1="14.3649" x2="16.455" xlink:href="#r" y1="30.1502" y2="30.1502"/><linearGradient id="w" gradientUnits="userSpaceOnUse" x1="17.1425" x2="17.1425" y1="32.7874" y2="9.78743"><stop offset="0" stop-color="#763f52"/><stop offset="1" stop-color="#865950"/></linearGradient><radialGradient id="x" cx="0" cy="0" gradientTransform="matrix(0 -16.3125 20.5732 0 18.5175 30.2249)" gradientUnits="userSpaceOnUse" r="1"><stop offset=".164751" stop-color="#5c302d"/><stop offset="1" stop-color="#5c302d" stop-opacity="0"/></radialGradient><linearGradient id="y"><stop offset="0" stop-color="#744036"/><stop offset="1" stop-color="#744036" stop-opacity="0"/></linearGradient><linearGradient id="z" gradientUnits="userSpaceOnUse" x1="18.5175" x2="18.5175" xlink:href="#y" y1="2.97493" y2="10.2249"/><radialGradient id="A" cx="0" cy="0" gradientTransform="matrix(-1.87499215 3.81250264 -7.63029067 -3.75258366 24.7675 7.97493)" gradientUnits="userSpaceOnUse" r="1" xlink:href="#y"/><radialGradient id="B" cx="0" cy="0" gradientTransform="matrix(1.46874945 -2.68750094 2.93951174 1.60647619 24.1738 26.0374)" gradientUnits="userSpaceOnUse" r="1"><stop offset="0" stop-color="#782666"/><stop offset=".889039" stop-color="#693452" stop-opacity="0"/></radialGradient><radialGradient id="C" cx="0" cy="0" gradientTransform="matrix(3.2656215 -4.01562486 2.33383475 1.89794146 8.22064 23.8499)" gradientUnits="userSpaceOnUse" r="1"><stop offset="0" stop-color="#782666"/><stop offset=".855892" stop-color="#693452" stop-opacity="0"/></radialGradient><linearGradient id="D" gradientUnits="userSpaceOnUse" x1="6.29877" x2="13.5175" y1="20.3187" y2="18.8499"><stop offset="0" stop-color="#672d2b"/><stop offset="1" stop-color="#644645" stop-opacity="0"/></linearGradient><linearGradient id="E" gradientUnits="userSpaceOnUse" x1="4.45962" x2="4.45962" xlink:href="#r" y1="30.7249" y2="28.2249"/><linearGradient id="F"><stop offset="0" stop-color="#a77c73"/><stop offset="1" stop-color="#a77c73" stop-opacity="0"/></linearGradient><linearGradient id="G" gradientUnits="userSpaceOnUse" x1="29.705" x2="29.705" xlink:href="#F" y1="27.9437" y2="16.2874"/><linearGradient id="H" gradientUnits="userSpaceOnUse" x1="14.3925" x2="14.3925" xlink:href="#F" y1="27.9437" y2="24.1624"/><radialGradient id="I" cx="0" cy="0" gradientTransform="matrix(.25000165 -2.04687917 .82312219 .10053447 28.8925 20.1937)" gradientUnits="userSpaceOnUse" r="1" xlink:href="#r"/><linearGradient id="J"><stop offset=".211905" stop-color="#782666"/><stop offset="1" stop-color="#693452" stop-opacity="0"/></linearGradient><radialGradient id="K" cx="0" cy="0" gradientTransform="matrix(-5.21955644 -10.06567498 6.11789923 -3.17243706 17.7806 26.7262)" gradientUnits="userSpaceOnUse" r="1" xlink:href="#J"/><radialGradient id="L" cx="0" cy="0" gradientTransform="matrix(2.31250224 -6.4374959 3.91269688 1.40553414 19.3925 26.6624)" gradientUnits="userSpaceOnUse" r="1" xlink:href="#J"/><radialGradient id="M" cx="0" cy="0" gradientTransform="matrix(-1.09375063 3.99999894 -1.84729528 -.50512023 28.5488 22.6624)" gradientUnits="userSpaceOnUse" r="1"><stop offset="0" stop-color="#291d1e"/><stop offset="1" stop-color="#291d1e" stop-opacity="0"/></radialGradient><linearGradient id="N" gradientUnits="userSpaceOnUse" x1="9.18217" x2="5.68446" y1="5.40393" y2="6.21703"><stop offset=".000914917" stop-color="#5d352e"/><stop offset="1" stop-color="#5d352e" stop-opacity="0"/></linearGradient><linearGradient id="O" gradientUnits="userSpaceOnUse" x1="5.31439" x2="6.31439" y1="6.47494" y2="8.03744"><stop offset="0" stop-color="#5d352e"/><stop offset=".783784" stop-color="#5d352e" stop-opacity="0"/></linearGradient><radialGradient id="P" cx="0" cy="0" gradientTransform="matrix(5.03124363 -2.41994661 3.16870803 6.58797266 2.62689 11.2249)" gradientUnits="userSpaceOnUse" r="1"><stop offset=".176802" stop-color="#916153"/><stop offset=".767357" stop-color="#86594c" stop-opacity="0"/></radialGradient><radialGradient id="Q" cx="0" cy="0" gradientTransform="matrix(3.43749977 -4.00000532 2.21868167 1.9066769 4.42377 14.3812)" gradientUnits="userSpaceOnUse" r="1"><stop offset=".193833" stop-color="#782666"/><stop offset=".889039" stop-color="#693452" stop-opacity="0"/></radialGradient><linearGradient id="R" gradientUnits="userSpaceOnUse" x1="4.83001" x2="11.7363" y1="4.96489" y2="4.96489"><stop offset="0" stop-color="#ffdea7"/><stop offset=".9944" stop-color="#dc872a"/></linearGradient><linearGradient id="S" gradientUnits="userSpaceOnUse" x1="8.04873" x2="8.04873" y1="7.03742" y2="5.72492"><stop offset="0" stop-color="#ca7134"/><stop offset="1" stop-color="#de9360" stop-opacity="0"/></linearGradient><radialGradient id="T" cx="0" cy="0" gradientTransform="matrix(-.93748053 2.64062392 -4.05021631 -1.43791735 8.04873 4.28742)" gradientUnits="userSpaceOnUse" r="1"><stop offset=".61077" stop-color="#b47b5b" stop-opacity="0"/><stop offset="1" stop-color="#b47b5b"/></radialGradient><radialGradient id="U" cx="0" cy="0" gradientTransform="matrix(-1.23437582 2.59374539 -3.57700631 -1.70231439 8.15813 4.30305)" gradientUnits="userSpaceOnUse" r="1"><stop offset=".812164" stop-color="#b47b5b" stop-opacity="0"/><stop offset="1" stop-color="#9d6647"/></radialGradient><linearGradient id="V" gradientUnits="userSpaceOnUse" x1="9.39251" x2="9.39251" y1="1.7093" y2="6.91242"><stop offset=".918919" stop-color="#b47b5b" stop-opacity="0"/><stop offset="1" stop-color="#9d6647"/></linearGradient><linearGradient id="W" gradientUnits="userSpaceOnUse" x1="13.955" x2="4.51751" y1="7.03742" y2="6.80499"><stop offset="0" stop-color="#e99354"/><stop offset="1" stop-color="#e99354" stop-opacity="0"/></linearGradient><radialGradient id="X" cx="0" cy="0" gradientTransform="matrix(.29687613 2.24280685 -1.96937192 .26068206 7.31438 3.12274)" gradientUnits="userSpaceOnUse" r="1"><stop offset="0" stop-color="#ffda9e"/><stop offset="1" stop-color="#ffda9e" stop-opacity="0"/></radialGradient><radialGradient id="Y" cx="0" cy="0" gradientTransform="matrix(.570313 0 0 1.11138 3.93937 10.8499)" gradientUnits="userSpaceOnUse" r="1"><stop offset="0" stop-color="#6a4342"/><stop offset="1" stop-color="#4e2425"/></radialGradient><radialGradient id="Z" cx="0" cy="0" gradientTransform="matrix(-2.37500628 -.3824979 .3824979 -2.37500628 30.455 25.1875)" gradientUnits="userSpaceOnUse" r="1"><stop offset="0" stop-color="#755b59"/><stop offset="1" stop-color="#412824"/></radialGradient><linearGradient id="aa" gradientUnits="userSpaceOnUse" x1="7.89252" x2="7.29877" y1="9.10502" y2="9.10502"><stop offset="0" stop-color="#594c4f"/><stop offset=".855263" stop-color="#31232c"/></linearGradient><linearGradient id="ab" gradientUnits="userSpaceOnUse" x1="8.20013" x2="8.20013" y1="10.3053" y2="9.59384"><stop offset="0" stop-color="#552d52"/><stop offset="1" stop-color="#552d52" stop-opacity="0"/></linearGradient><linearGradient id="ac" gradientUnits="userSpaceOnUse" x1="5.73627" x2="8.48627" y1="3.70932" y2="5.70932"><stop offset="0" stop-color="#ffdea7"/><stop offset="1" stop-color="#ffdea7" stop-opacity="0"/></linearGradient><linearGradient id="ad"><stop offset="0" stop-color="#7e5952"/><stop offset="1" stop-color="#7e5952" stop-opacity="0"/></linearGradient><linearGradient id="ae" gradientUnits="userSpaceOnUse" x1="10.8144" x2="12.2519" xlink:href="#ad" y1="7.93588" y2="9.50619"/><linearGradient id="af"><stop offset="0" stop-color="#976e66" stop-opacity=".75"/><stop offset="1" stop-color="#976e66" stop-opacity="0"/></linearGradient><radialGradient id="ag" cx="0" cy="0" gradientTransform="matrix(.07693167 2.74955395 -1.95553469 .05471525 18.1962 9.72799)" gradientUnits="userSpaceOnUse" r="1" xlink:href="#af"/><radialGradient id="ah" cx="0" cy="0" gradientTransform="matrix(-2.26816056 .40291827 -.7508436 -4.22674769 13.5503 7.92426)" gradientUnits="userSpaceOnUse" r="1" xlink:href="#af"/><radialGradient id="ai" cx="0" cy="0" gradientTransform="matrix(.17640415 4.81838194 -3.03762496 .11120946 26.1949 11.3397)" gradientUnits="userSpaceOnUse" r="1"><stop offset="0" stop-color="#976e66"/><stop offset="1" stop-color="#976e66" stop-opacity="0"/></radialGradient><radialGradient id="aj" cx="0" cy="0" gradientTransform="matrix(-1.78125275 1.82812405 -3.12353139 -3.04344713 12.705 8.36555)" gradientUnits="userSpaceOnUse" r="1"><stop offset="0" stop-color="#7d5953"/><stop offset="1" stop-color="#60363d"/></radialGradient><radialGradient id="ak" cx="0" cy="0" gradientTransform="matrix(-1.62499908 1.68750352 -2.32812832 -2.24189541 12.4081 8.66243)" gradientUnits="userSpaceOnUse" r="1"><stop offset=".616548" stop-color="#4d282e" stop-opacity="0"/><stop offset=".954626" stop-color="#4d282e"/></radialGradient><radialGradient id="al" cx="0" cy="0" gradientTransform="matrix(-1.53124706 1.71875482 -2.23437678 -1.99061719 12.3144 8.63118)" gradientUnits="userSpaceOnUse" r="1"><stop offset=".761032" stop-color="#3a2327" stop-opacity="0"/><stop offset=".954626" stop-color="#3a2327"/></radialGradient><radialGradient id="am" cx="0" cy="0" gradientTransform="matrix(-.56250086 -.14062268 .10986532 -.4394692 13.8144 10.3812)" gradientUnits="userSpaceOnUse" r="1" xlink:href="#ad"/><linearGradient id="an" gradientUnits="userSpaceOnUse" x1="12.9782" x2="13.1743" xlink:href="#af" y1="21.2249" y2="27.3124"/><linearGradient id="ao"><stop offset="0" stop-color="#d6b0a9"/><stop offset="1" stop-color="#d6b0a9" stop-opacity="0"/></linearGradient><linearGradient id="ap" gradientUnits="userSpaceOnUse" x1="18.3613" x2="18.3613" xlink:href="#ao" y1="29.5374" y2="18.4437"/><linearGradient id="aq" gradientUnits="userSpaceOnUse" x1="23.5631" x2="23.5631" xlink:href="#ao" y1="29.5439" y2="19.0371"/><clipPath id="ar"><path d="m0 0h32v32h-32z"/></clipPath><g clip-path="url(#ar)"><path d="m20.84 29.805h-1.48c-.17 0-.29-.16-.24-.32l2.43-8.53h2l-2.47 8.67c-.03.11-.13.18-.24.18z" fill="url(#q)"/><path d="m20.84 29.805h-1.48c-.17 0-.29-.16-.24-.32l2.43-8.53h2l-2.47 8.67c-.03.11-.13.18-.24.18z" fill="url(#s)"/><path d="m16.03 19.805h-2l1.98 6.91c.02.06.02.12 0 .17l-.76 2.59c-.05.16.07.32.24.32h1.48c.11 0 .21-.07.24-.18l.7-2.39c.08-.28.08-.58 0-.87z" fill="url(#t)"/><path d="m16.03 19.805h-2l1.98 6.91c.02.06.02.12 0 .17l-.76 2.59c-.05.16.07.32.24.32h1.48c.11 0 .21-.07.24-.18l.7-2.39c.08-.28.08-.58 0-.87z" fill="url(#u)"/><path d="m16.03 19.805h-2l1.98 6.91c.02.06.02.12 0 .17l-.76 2.59c-.05.16.07.32.24.32h1.48c.11 0 .21-.07.24-.18l.7-2.39c.08-.28.08-.58 0-.87z" fill="url(#v)"/><path d="m25.39 9.80499h-3.76c-.62 0-1.2-.27-1.63-.72-.72-.79-1.76-1.28-2.92-1.28h-2c-.16 0-.31-.08-.39-.22l-.56-.96c-.65-1.13-1.85-1.82-3.15-1.82h-.89c-.78998 0-1.54998.23-2.20998.67l-5.1 3.4c-.43.29-.7.79-.7 1.32001 0 1.43 1.13 2.61 2.56 2.61h2.02243c.24177 0 .4489.173.49199.4109l.65558 3.6191.68 3.9c.16456.9181.80176 1.6487 1.63868 1.9513.2268.082.4013.2837.4013.5249v6.3738c0 .14.11.25.25.25h1.5c.14 0 .25-.11.25-.25v-2.4426c0-.1885.1061-.3611.2744-.4462l.5956-.3012c.69-.35 1.13-1.05 1.13-1.82v-1.2425c0-.2752.2223-.4986.4975-.5l5.4325-.0275c.4293 0 .8288-.104 1.1847-.2841.1842-.0932.4321.0305.4636.2345.198 1.2837 1.1468 2.3503 2.4417 2.6696l1.1505.2857c.223.0554.3795.2556.3795.4853v3.359c0 .14.11.25.25.25h1.5c.14 0 .25-.11.25-.25v-3.75-5-.328c0-.2385.125-.4596.3123-.6072.2587-.2038.6877-.0329.6877.2964v3.6488h1v-9.31c0-2.6-2.1-4.70001-4.69-4.70001z" fill="url(#w)"/><path d="m25.39 9.80499h-3.76c-.62 0-1.2-.27-1.63-.72-.72-.79-1.76-1.28-2.92-1.28h-2c-.16 0-.31-.08-.39-.22l-.56-.96c-.65-1.13-1.85-1.82-3.15-1.82h-.89c-.78998 0-1.54998.23-2.20998.67l-5.1 3.4c-.43.29-.7.79-.7 1.32001 0 1.43 1.13 2.61 2.56 2.61h2.02243c.24177 0 .4489.173.49199.4109l.65558 3.6191.68 3.9c.16456.9181.80176 1.6487 1.63868 1.9513.2268.082.4013.2837.4013.5249v6.3738c0 .14.11.25.25.25h1.5c.14 0 .25-.11.25-.25v-2.4426c0-.1885.1061-.3611.2744-.4462l.5956-.3012c.69-.35 1.13-1.05 1.13-1.82v-1.2425c0-.2752.2223-.4986.4975-.5l5.4325-.0275c.4293 0 .8288-.104 1.1847-.2841.1842-.0932.4321.0305.4636.2345.198 1.2837 1.1468 2.3503 2.4417 2.6696l1.1505.2857c.223.0554.3795.2556.3795.4853v3.359c0 .14.11.25.25.25h1.5c.14 0 .25-.11.25-.25v-3.75-5-.328c0-.2385.125-.4596.3123-.6072.2587-.2038.6877-.0329.6877.2964v3.6488h1v-9.31c0-2.6-2.1-4.70001-4.69-4.70001z" fill="url(#x)"/><path d="m25.39 9.80499h-3.76c-.62 0-1.2-.27-1.63-.72-.72-.79-1.76-1.28-2.92-1.28h-2c-.16 0-.31-.08-.39-.22l-.56-.96c-.65-1.13-1.85-1.82-3.15-1.82h-.89c-.78998 0-1.54998.23-2.20998.67l-5.1 3.4c-.43.29-.7.79-.7 1.32001 0 1.43 1.13 2.61 2.56 2.61h2.02243c.24177 0 .4489.173.49199.4109l.65558 3.6191.68 3.9c.16456.9181.80176 1.6487 1.63868 1.9513.2268.082.4013.2837.4013.5249v6.3738c0 .14.11.25.25.25h1.5c.14 0 .25-.11.25-.25v-2.4426c0-.1885.1061-.3611.2744-.4462l.5956-.3012c.69-.35 1.13-1.05 1.13-1.82v-1.2425c0-.2752.2223-.4986.4975-.5l5.4325-.0275c.4293 0 .8288-.104 1.1847-.2841.1842-.0932.4321.0305.4636.2345.198 1.2837 1.1468 2.3503 2.4417 2.6696l1.1505.2857c.223.0554.3795.2556.3795.4853v3.359c0 .14.11.25.25.25h1.5c.14 0 .25-.11.25-.25v-3.75-5-.328c0-.2385.125-.4596.3123-.6072.2587-.2038.6877-.0329.6877.2964v3.6488h1v-9.31c0-2.6-2.1-4.70001-4.69-4.70001z" fill="url(#z)"/><path d="m25.39 9.80499h-3.76c-.62 0-1.2-.27-1.63-.72-.72-.79-1.76-1.28-2.92-1.28h-2c-.16 0-.31-.08-.39-.22l-.56-.96c-.65-1.13-1.85-1.82-3.15-1.82h-.89c-.78998 0-1.54998.23-2.20998.67l-5.1 3.4c-.43.29-.7.79-.7 1.32001 0 1.43 1.13 2.61 2.56 2.61h2.02243c.24177 0 .4489.173.49199.4109l.65558 3.6191.68 3.9c.16456.9181.80176 1.6487 1.63868 1.9513.2268.082.4013.2837.4013.5249v6.3738c0 .14.11.25.25.25h1.5c.14 0 .25-.11.25-.25v-2.4426c0-.1885.1061-.3611.2744-.4462l.5956-.3012c.69-.35 1.13-1.05 1.13-1.82v-1.2425c0-.2752.2223-.4986.4975-.5l5.4325-.0275c.4293 0 .8288-.104 1.1847-.2841.1842-.0932.4321.0305.4636.2345.198 1.2837 1.1468 2.3503 2.4417 2.6696l1.1505.2857c.223.0554.3795.2556.3795.4853v3.359c0 .14.11.25.25.25h1.5c.14 0 .25-.11.25-.25v-3.75-5-.328c0-.2385.125-.4596.3123-.6072.2587-.2038.6877-.0329.6877.2964v3.6488h1v-9.31c0-2.6-2.1-4.70001-4.69-4.70001z" fill="url(#A)"/><path d="m25.39 9.80499h-3.76c-.62 0-1.2-.27-1.63-.72-.72-.79-1.76-1.28-2.92-1.28h-2c-.16 0-.31-.08-.39-.22l-.56-.96c-.65-1.13-1.85-1.82-3.15-1.82h-.89c-.78998 0-1.54998.23-2.20998.67l-5.1 3.4c-.43.29-.7.79-.7 1.32001 0 1.43 1.13 2.61 2.56 2.61h2.02243c.24177 0 .4489.173.49199.4109l.65558 3.6191.68 3.9c.16456.9181.80176 1.6487 1.63868 1.9513.2268.082.4013.2837.4013.5249v6.3738c0 .14.11.25.25.25h1.5c.14 0 .25-.11.25-.25v-2.4426c0-.1885.1061-.3611.2744-.4462l.5956-.3012c.69-.35 1.13-1.05 1.13-1.82v-1.2425c0-.2752.2223-.4986.4975-.5l5.4325-.0275c.4293 0 .8288-.104 1.1847-.2841.1842-.0932.4321.0305.4636.2345.198 1.2837 1.1468 2.3503 2.4417 2.6696l1.1505.2857c.223.0554.3795.2556.3795.4853v3.359c0 .14.11.25.25.25h1.5c.14 0 .25-.11.25-.25v-3.75-5-.328c0-.2385.125-.4596.3123-.6072.2587-.2038.6877-.0329.6877.2964v3.6488h1v-9.31c0-2.6-2.1-4.70001-4.69-4.70001z" fill="url(#B)"/><path d="m25.39 9.80499h-3.76c-.62 0-1.2-.27-1.63-.72-.72-.79-1.76-1.28-2.92-1.28h-2c-.16 0-.31-.08-.39-.22l-.56-.96c-.65-1.13-1.85-1.82-3.15-1.82h-.89c-.78998 0-1.54998.23-2.20998.67l-5.1 3.4c-.43.29-.7.79-.7 1.32001 0 1.43 1.13 2.61 2.56 2.61h2.02243c.24177 0 .4489.173.49199.4109l.65558 3.6191.68 3.9c.16456.9181.80176 1.6487 1.63868 1.9513.2268.082.4013.2837.4013.5249v6.3738c0 .14.11.25.25.25h1.5c.14 0 .25-.11.25-.25v-2.4426c0-.1885.1061-.3611.2744-.4462l.5956-.3012c.69-.35 1.13-1.05 1.13-1.82v-1.2425c0-.2752.2223-.4986.4975-.5l5.4325-.0275c.4293 0 .8288-.104 1.1847-.2841.1842-.0932.4321.0305.4636.2345.198 1.2837 1.1468 2.3503 2.4417 2.6696l1.1505.2857c.223.0554.3795.2556.3795.4853v3.359c0 .14.11.25.25.25h1.5c.14 0 .25-.11.25-.25v-3.75-5-.328c0-.2385.125-.4596.3123-.6072.2587-.2038.6877-.0329.6877.2964v3.6488h1v-9.31c0-2.6-2.1-4.70001-4.69-4.70001z" fill="url(#C)"/><path d="m25.39 9.80499h-3.76c-.62 0-1.2-.27-1.63-.72-.72-.79-1.76-1.28-2.92-1.28h-2c-.16 0-.31-.08-.39-.22l-.56-.96c-.65-1.13-1.85-1.82-3.15-1.82h-.89c-.78998 0-1.54998.23-2.20998.67l-5.1 3.4c-.43.29-.7.79-.7 1.32001 0 1.43 1.13 2.61 2.56 2.61h2.02243c.24177 0 .4489.173.49199.4109l.65558 3.6191.68 3.9c.16456.9181.80176 1.6487 1.63868 1.9513.2268.082.4013.2837.4013.5249v6.3738c0 .14.11.25.25.25h1.5c.14 0 .25-.11.25-.25v-2.4426c0-.1885.1061-.3611.2744-.4462l.5956-.3012c.69-.35 1.13-1.05 1.13-1.82v-1.2425c0-.2752.2223-.4986.4975-.5l5.4325-.0275c.4293 0 .8288-.104 1.1847-.2841.1842-.0932.4321.0305.4636.2345.198 1.2837 1.1468 2.3503 2.4417 2.6696l1.1505.2857c.223.0554.3795.2556.3795.4853v3.359c0 .14.11.25.25.25h1.5c.14 0 .25-.11.25-.25v-3.75-5-.328c0-.2385.125-.4596.3123-.6072.2587-.2038.6877-.0329.6877.2964v3.6488h1v-9.31c0-2.6-2.1-4.70001-4.69-4.70001z" fill="url(#D)"/><path d="m25.39 9.80499h-3.76c-.62 0-1.2-.27-1.63-.72-.72-.79-1.76-1.28-2.92-1.28h-2c-.16 0-.31-.08-.39-.22l-.56-.96c-.65-1.13-1.85-1.82-3.15-1.82h-.89c-.78998 0-1.54998.23-2.20998.67l-5.1 3.4c-.43.29-.7.79-.7 1.32001 0 1.43 1.13 2.61 2.56 2.61h2.02243c.24177 0 .4489.173.49199.4109l.65558 3.6191.68 3.9c.16456.9181.80176 1.6487 1.63868 1.9513.2268.082.4013.2837.4013.5249v6.3738c0 .14.11.25.25.25h1.5c.14 0 .25-.11.25-.25v-2.4426c0-.1885.1061-.3611.2744-.4462l.5956-.3012c.69-.35 1.13-1.05 1.13-1.82v-1.2425c0-.2752.2223-.4986.4975-.5l5.4325-.0275c.4293 0 .8288-.104 1.1847-.2841.1842-.0932.4321.0305.4636.2345.198 1.2837 1.1468 2.3503 2.4417 2.6696l1.1505.2857c.223.0554.3795.2556.3795.4853v3.359c0 .14.11.25.25.25h1.5c.14 0 .25-.11.25-.25v-3.75-5-.328c0-.2385.125-.4596.3123-.6072.2587-.2038.6877-.0329.6877.2964v3.6488h1v-9.31c0-2.6-2.1-4.70001-4.69-4.70001z" fill="url(#E)"/><g filter="url(#a)"><path d="m27.3925 29.1624v-9.25" stroke="url(#G)" stroke-width=".3"/></g><g filter="url(#b)"><path d="m12.08 29.1624v-5" stroke="url(#H)" stroke-width=".2"/></g><path d="m29.08 23.4124.3438-.1406v-5.3246c0-.1065-.1443-.1392-.1902-.0432l-1.0911 2.2819c.0546-.1229.1421-.2312.2498-.3161.2587-.2038.6877-.0329.6877.2964z" fill="url(#I)"/><g clip-rule="evenodd" fill-rule="evenodd"><path d="m22.1583 23.0113 2.9842-5.7239-13.75-1.5 3.1375 7.7857v-.2406c0-.2752.2223-.4986.4975-.5l5.4325-.0275c.4293 0 .8288-.104 1.1847-.2841.1842-.0932.4321.0305.4636.2345.0133.0863.03.1717.05.2559z" fill="url(#K)"/><path d="m22.1583 23.0113 2.9842-5.7239-13.75-1.5 3.1375 7.7857v-.2406c0-.2752.2223-.4986.4975-.5l5.4325-.0275c.4293 0 .8288-.104 1.1847-.2841.1842-.0932.4321.0305.4636.2345.0133.0863.03.1717.05.2559z" fill="url(#L)"/><path d="m28.08 23.6962c-.5744.238-1 1.1015-1 2.1303s.4256 1.8922 1 2.1303v-2.1518z" fill="url(#M)"/></g><g filter="url(#c)"><path d="m6.7431 6.39919 4.1963-.6736c0 .75097-.5453 1.39081-1.28681 1.50983l-2.90949.46705z" fill="url(#N)"/></g><path d="m10.98 4.80499c1.3 0 2.5688.67005 3.15 1.82001.5813 1.14996-3.55 4.0999-7.04998 6.18h-2.44c-1.43 0-2.56-1.18-2.56-2.61 0-.52999.27-1.03.7-1.32l5.1-3.39996c.66-.44 1.42-.67005 2.20998-.67005z" fill="url(#O)"/><path d="m10.98 4.80499c1.3 0 2.5688.67005 3.15 1.82001.5813 1.14996-3.55 4.0999-7.04998 6.18h-2.44c-1.43 0-2.56-1.18-2.56-2.61 0-.52999.27-1.03.7-1.32l5.1-3.39996c.66-.44 1.42-.67005 2.20998-.67005z" fill="url(#P)"/><path d="m10.98 4.80499c1.3 0 2.5688.67005 3.15 1.82001.5813 1.14996-3.55 4.0999-7.04998 6.18h-2.44c-1.43 0-2.56-1.18-2.56-2.61 0-.52999.27-1.03.7-1.32l5.1-3.39996c.66-.44 1.42-.67005 2.20998-.67005z" fill="url(#Q)"/><path d="m8.04876 4.80499c-1.08-.05-2.01-.66-2.5-1.55-.11-.21-.43-.16-.46.08-.03.15-.04.3-.04.45-.01 1.66 1.39 3.02 3.05 3.02h1.95004c.55 0 1-.45 1-1s-.45-1-1-1z" fill="url(#R)"/><path d="m8.04876 4.80499c-1.08-.05-2.01-.66-2.5-1.55-.11-.21-.43-.16-.46.08-.03.15-.04.3-.04.45-.01 1.66 1.39 3.02 3.05 3.02h1.95004c.55 0 1-.45 1-1s-.45-1-1-1z" fill="url(#S)"/><path d="m8.04876 4.80499c-1.08-.05-2.01-.66-2.5-1.55-.11-.21-.43-.16-.46.08-.03.15-.04.3-.04.45-.01 1.66 1.39 3.02 3.05 3.02h1.95004c.55 0 1-.45 1-1s-.45-1-1-1z" fill="url(#T)"/><path d="m8.04876 4.80499c-1.08-.05-2.01-.66-2.5-1.55-.11-.21-.43-.16-.46.08-.03.15-.04.3-.04.45-.01 1.66 1.39 3.02 3.05 3.02h1.95004c.55 0 1-.45 1-1s-.45-1-1-1z" fill="url(#U)"/><path d="m8.04876 4.80499c-1.08-.05-2.01-.66-2.5-1.55-.11-.21-.43-.16-.46.08-.03.15-.04.3-.04.45-.01 1.66 1.39 3.02 3.05 3.02h1.95004c.55 0 1-.45 1-1s-.45-1-1-1z" fill="url(#V)"/><path d="m8.04876 4.80499c-1.08-.05-2.01-.66-2.5-1.55-.11-.21-.43-.16-.46.08-.03.15-.04.3-.04.45-.01 1.66 1.39 3.02 3.05 3.02h1.95004c.55 0 1-.45 1-1s-.45-1-1-1z" fill="url(#W)"/><path d="m8.04876 4.80499c-1.08-.05-2.01-.66-2.5-1.55-.11-.21-.43-.16-.46.08-.03.15-.04.3-.04.45-.01 1.66 1.39 3.02 3.05 3.02h1.95004c.55 0 1-.45 1-1s-.45-1-1-1z" fill="url(#X)"/><path d="m4.17999 11.215c-.28 0-.5-.22-.5-.5v-.55c0-.27999.22-.49999.5-.49999s.5.22.5.49999v.55c0 .28-.22.5-.5.5z" fill="url(#Y)"/><g filter="url(#d)"><path d="m29.7363 23.1781v-4.8438" stroke="#a77c73" stroke-width=".1"/></g><path d="m29.5852 26.7426c.2674.0688.4948-.1615.4948-.4376v-3.5c-1.1 0-2 .9-2 2 0 .9294.6425 1.716 1.5052 1.9376z" fill="url(#Z)"/><g filter="url(#e)"><rect fill="#5b2f2c" height="1.59156" rx=".393313" width=".786625" x="6.83417" y="8.30923"/></g><rect fill="url(#aa)" height="1.96005" rx=".484375" width=".96875" x="7.08002" y="8.125"/><rect fill="url(#ab)" height="1.96005" rx=".484375" width=".96875" x="7.08002" y="8.125"/><g filter="url(#f)"><path d="m5.42377 3.52182c.40625 1 1.18437 1.78125 2.48437 1.78125" stroke="url(#ac)" stroke-linecap="round" stroke-width=".25"/></g><g filter="url(#g)"><ellipse cx="10.4951" cy="5.67807" fill="#ffdea7" rx=".237303" ry=".375"/></g><g filter="url(#h)"><path d="m10.8456 7.65463 1.75 1.85157" stroke="url(#ae)" stroke-linecap="round" stroke-width=".25"/></g><g filter="url(#i)"><ellipse cx="18.1962" cy="10.7428" fill="url(#ag)" rx="1.70353" ry="2.27298" transform="matrix(.96206244 -.27282936 .27282936 .96206244 -2.240632 5.372013)"/></g><g filter="url(#j)"><ellipse cx="12.5718" cy="8.14857" fill="url(#ah)" rx="1.70353" ry="2.98267" transform="matrix(.88261142 -.47010327 .47010327 .88261142 -2.354884 6.866593)"/></g><g filter="url(#k)"><ellipse cx="26.2272" cy="13.8774" fill="url(#ai)" rx="3.1913" ry="2.98824" transform="matrix(.67024271 .74214197 -.74214197 .67024271 18.947611 -14.888132)"/></g><g filter="url(#l)"><path d="m11.2898 7.82431c-.5694-.56944-1.54572-.42878-1.54572.37653 0 1.51868 1.23192 2.76126 2.76122 2.76126.8092 0 .9481-.97414.376-1.54633z" fill="#5b2f2c"/></g><path d="m10.9315 7.24645c-.2264-.22641-.6077-.18306-.7116.11983-.0907.26474-.1399.54681-.1399.83871 0 1.43 1.16 2.60001 2.6 2.60001.2979 0 .5826-.0492.8467-.1401.3006-.1035.3417-.4815.1169-.70632z" fill="url(#aj)"/><path d="m10.9315 7.24645c-.2264-.22641-.6077-.18306-.7116.11983-.0907.26474-.1399.54681-.1399.83871 0 1.43 1.16 2.60001 2.6 2.60001.2979 0 .5826-.0492.8467-.1401.3006-.1035.3417-.4815.1169-.70632z" fill="url(#ak)"/><path d="m10.9315 7.24645c-.2264-.22641-.6077-.18306-.7116.11983-.0907.26474-.1399.54681-.1399.83871 0 1.43 1.16 2.60001 2.6 2.60001.2979 0 .5826-.0492.8467-.1401.3006-.1035.3417-.4815.1169-.70632z" fill="url(#al)" fill-opacity=".5"/><path d="m10.9315 7.24645c-.2264-.22641-.6077-.18306-.7116.11983-.0907.26474-.1399.54681-.1399.83871 0 1.43 1.16 2.60001 2.6 2.60001.2979 0 .5826-.0492.8467-.1401.3006-.1035.3417-.4815.1169-.70632z" fill="url(#am)"/><g filter="url(#m)"><path d="m12.08 22.3499c0-.138.1119-.25.25-.25h1.5781c.1381 0 .25.112.25.25v1.4153c0 1.0766-.5768 2.0706-1.5115 2.6048l-.5666.3237z" fill="url(#an)"/></g><g filter="url(#n)"><path d="m16.08 23.1624 1.0938 3.7813-.625 2.125" stroke="url(#ap)" stroke-width=".1"/></g><g filter="url(#o)"><path d="m21.7988 23.5062-1.625 5.5937" stroke="url(#aq)" stroke-width=".1"/></g></g></svg>